G04 EAGLE Gerber RS-274X export*
G75*
%MOMM*%
%FSLAX34Y34*%
%LPD*%
%INSolderpaste Top*%
%IPPOS*%
%AMOC8*
5,1,8,0,0,1.08239X$1,22.5*%
G01*
%ADD10R,1.500000X1.240000*%
%ADD11R,1.240000X1.500000*%
%ADD12R,1.200000X0.275000*%
%ADD13R,0.889000X0.889000*%
%ADD14R,1.900000X1.400000*%
%ADD15R,1.400000X1.800000*%
%ADD16R,1.500000X0.700000*%
%ADD17R,2.540000X1.524000*%
%ADD18R,3.048000X1.524000*%
%ADD19R,1.400000X1.000000*%
%ADD20R,0.800000X0.280000*%
%ADD21R,0.280000X0.800000*%
%ADD22R,1.000000X1.200000*%
%ADD23R,1.200000X2.000000*%
%ADD24R,1.500000X1.000000*%

G36*
X400115Y443877D02*
X400115Y443877D01*
X400181Y443879D01*
X400224Y443897D01*
X400271Y443905D01*
X400328Y443939D01*
X400388Y443964D01*
X400423Y443995D01*
X400464Y444020D01*
X400506Y444071D01*
X400554Y444115D01*
X400576Y444157D01*
X400605Y444194D01*
X400626Y444256D01*
X400657Y444315D01*
X400665Y444369D01*
X400677Y444406D01*
X400676Y444446D01*
X400684Y444500D01*
X400684Y454660D01*
X400673Y454725D01*
X400671Y454791D01*
X400653Y454834D01*
X400645Y454881D01*
X400611Y454938D01*
X400586Y454998D01*
X400555Y455033D01*
X400530Y455074D01*
X400479Y455116D01*
X400435Y455164D01*
X400393Y455186D01*
X400356Y455215D01*
X400294Y455236D01*
X400235Y455267D01*
X400181Y455275D01*
X400144Y455287D01*
X400104Y455286D01*
X400050Y455294D01*
X389890Y455294D01*
X389825Y455283D01*
X389759Y455281D01*
X389716Y455263D01*
X389669Y455255D01*
X389612Y455221D01*
X389552Y455196D01*
X389517Y455165D01*
X389476Y455140D01*
X389435Y455089D01*
X389386Y455045D01*
X389364Y455003D01*
X389335Y454966D01*
X389314Y454904D01*
X389283Y454845D01*
X389275Y454791D01*
X389263Y454754D01*
X389263Y454743D01*
X389263Y454742D01*
X389264Y454712D01*
X389256Y454660D01*
X389256Y444500D01*
X389267Y444435D01*
X389269Y444369D01*
X389287Y444326D01*
X389295Y444279D01*
X389329Y444222D01*
X389354Y444162D01*
X389385Y444127D01*
X389410Y444086D01*
X389461Y444045D01*
X389505Y443996D01*
X389547Y443974D01*
X389584Y443945D01*
X389646Y443924D01*
X389705Y443893D01*
X389759Y443885D01*
X389796Y443873D01*
X389836Y443874D01*
X389890Y443866D01*
X400050Y443866D01*
X400115Y443877D01*
G37*
D10*
X396240Y56540D03*
X396240Y75540D03*
X416560Y56540D03*
X416560Y75540D03*
X436880Y56540D03*
X436880Y75540D03*
X457200Y56540D03*
X457200Y75540D03*
D11*
X597560Y276860D03*
X616560Y276860D03*
D10*
X375920Y56540D03*
X375920Y75540D03*
X519430Y67920D03*
X519430Y48920D03*
D12*
X331710Y140390D03*
X331710Y145390D03*
X331710Y150390D03*
X331710Y155390D03*
X331710Y160390D03*
X331710Y165390D03*
X331710Y170390D03*
X331710Y175390D03*
X331710Y180390D03*
X331710Y185390D03*
X331710Y190390D03*
X331710Y195390D03*
X331710Y200390D03*
X331710Y205390D03*
X331710Y210390D03*
X331710Y215390D03*
X331710Y220390D03*
X331710Y225390D03*
X331710Y230390D03*
X331710Y235390D03*
X331710Y240390D03*
X331710Y245390D03*
X331710Y250390D03*
X331710Y255390D03*
X331710Y260390D03*
X331710Y265390D03*
X331710Y270390D03*
X331710Y275390D03*
X331710Y280390D03*
X331710Y285390D03*
X331710Y290390D03*
X331710Y295390D03*
X331710Y300390D03*
X331710Y305390D03*
X331710Y310390D03*
X331710Y315390D03*
X331710Y320390D03*
X331710Y325390D03*
X331710Y330390D03*
X331710Y335390D03*
X331710Y340390D03*
X331710Y345390D03*
X331710Y350390D03*
X331710Y355390D03*
X331710Y360390D03*
X331710Y365390D03*
X331710Y370390D03*
X331710Y375390D03*
X331710Y380390D03*
X331710Y385390D03*
D13*
X352425Y413385D03*
X352425Y400685D03*
X365125Y400685D03*
X365125Y413385D03*
X352425Y113665D03*
X352425Y126365D03*
X365125Y126365D03*
X365125Y113665D03*
D14*
X624350Y303720D03*
X633350Y435720D03*
D15*
X493350Y319720D03*
X493350Y379720D03*
D16*
X595350Y312720D03*
X595350Y323720D03*
X599350Y334720D03*
X595350Y345720D03*
X599350Y356720D03*
X595350Y367720D03*
X591350Y378720D03*
X595350Y389720D03*
D11*
X323190Y36830D03*
X304190Y36830D03*
D17*
X246380Y63500D03*
X294640Y63500D03*
X246380Y88900D03*
X294640Y88900D03*
D18*
X292100Y114300D03*
X248920Y114300D03*
X292100Y139700D03*
X248920Y139700D03*
X292100Y165100D03*
X248920Y165100D03*
X292100Y190500D03*
X248920Y190500D03*
X292100Y215900D03*
X248920Y215900D03*
X292100Y241300D03*
X248920Y241300D03*
X292100Y266700D03*
X248920Y266700D03*
X292100Y292100D03*
X248920Y292100D03*
X292100Y317500D03*
X248920Y317500D03*
X292100Y342900D03*
X248920Y342900D03*
X292100Y368300D03*
X248920Y368300D03*
X292100Y393700D03*
X248920Y393700D03*
D17*
X294640Y419100D03*
X246380Y419100D03*
X294640Y444500D03*
X246380Y444500D03*
X17780Y165100D03*
X66040Y165100D03*
X17780Y190500D03*
X66040Y190500D03*
D18*
X63500Y215900D03*
X20320Y215900D03*
X63500Y241300D03*
X20320Y241300D03*
X63500Y266700D03*
X20320Y266700D03*
X63500Y292100D03*
X20320Y292100D03*
X63500Y317500D03*
X20320Y317500D03*
X63500Y342900D03*
X20320Y342900D03*
X63500Y368300D03*
X20320Y368300D03*
X63500Y393700D03*
X20320Y393700D03*
D17*
X66040Y419100D03*
X17780Y419100D03*
X66040Y444500D03*
X17780Y444500D03*
D19*
X475410Y57150D03*
X497410Y66650D03*
X497410Y47650D03*
D11*
X494640Y82550D03*
X475640Y82550D03*
D20*
X409970Y442080D03*
X409970Y447080D03*
X409970Y452080D03*
X409970Y457080D03*
D21*
X402470Y464580D03*
X397470Y464580D03*
X392470Y464580D03*
X387470Y464580D03*
D20*
X379970Y457080D03*
X379970Y452080D03*
X379970Y447080D03*
X379970Y442080D03*
D21*
X387470Y434580D03*
X392470Y434580D03*
X397470Y434580D03*
X402470Y434580D03*
D22*
X342900Y78580D03*
X352400Y58580D03*
X333400Y58580D03*
D11*
X358750Y34290D03*
X339750Y34290D03*
X145440Y342900D03*
X164440Y342900D03*
D23*
X618170Y128790D03*
X618170Y66790D03*
X578170Y66790D03*
X578170Y128790D03*
D11*
X145440Y393700D03*
X164440Y393700D03*
X145440Y368300D03*
X164440Y368300D03*
D24*
X579060Y183280D03*
X579060Y208280D03*
X579060Y233280D03*
X635060Y233280D03*
X635060Y208280D03*
X635060Y183280D03*
M02*
