G04 EAGLE Gerber RS-274X export*
G75*
%MOMM*%
%FSLAX34Y34*%
%LPD*%
%INSilkscreen Top*%
%IPPOS*%
%AMOC8*
5,1,8,0,0,1.08239X$1,22.5*%
G01*
%ADD10C,0.177800*%
%ADD11C,0.254000*%
%ADD12C,0.203200*%
%ADD13C,0.127000*%

G36*
X116820Y62107D02*
X116820Y62107D01*
X116824Y62105D01*
X116864Y62126D01*
X116906Y62143D01*
X116908Y62148D01*
X116912Y62150D01*
X116925Y62193D01*
X116941Y62235D01*
X116939Y62240D01*
X116941Y62244D01*
X116905Y62314D01*
X116900Y62324D01*
X116899Y62325D01*
X111417Y67197D01*
X110635Y68051D01*
X110046Y69041D01*
X109919Y69392D01*
X109854Y69760D01*
X109854Y72035D01*
X109852Y72040D01*
X109854Y72046D01*
X109730Y73410D01*
X109724Y73420D01*
X109726Y73432D01*
X109358Y74751D01*
X109350Y74759D01*
X109349Y74772D01*
X108749Y76002D01*
X108742Y76009D01*
X108739Y76020D01*
X107922Y77177D01*
X107914Y77182D01*
X107911Y77191D01*
X106939Y78222D01*
X106931Y78226D01*
X106928Y78232D01*
X106927Y78233D01*
X106926Y78234D01*
X105819Y79119D01*
X105809Y79121D01*
X105802Y79130D01*
X104121Y80077D01*
X104110Y80078D01*
X104100Y80086D01*
X102276Y80714D01*
X102265Y80713D01*
X102254Y80720D01*
X100347Y81008D01*
X100336Y81005D01*
X100324Y81010D01*
X98396Y80949D01*
X98387Y80945D01*
X98375Y80947D01*
X97336Y80740D01*
X97328Y80735D01*
X97318Y80735D01*
X96320Y80377D01*
X96313Y80371D01*
X96302Y80370D01*
X95368Y79868D01*
X95361Y79859D01*
X95349Y79856D01*
X94212Y78949D01*
X94206Y78938D01*
X94193Y78931D01*
X93272Y77805D01*
X93260Y77762D01*
X93244Y77721D01*
X93246Y77716D01*
X93245Y77710D01*
X93267Y77672D01*
X93285Y77632D01*
X93291Y77629D01*
X93293Y77625D01*
X93322Y77617D01*
X93370Y77599D01*
X94250Y77599D01*
X94371Y77583D01*
X94473Y77539D01*
X94813Y77265D01*
X95061Y76904D01*
X95126Y76730D01*
X95184Y76192D01*
X95086Y75662D01*
X94837Y75174D01*
X94186Y74272D01*
X93832Y73860D01*
X93422Y73509D01*
X92964Y73226D01*
X92470Y73020D01*
X92170Y72961D01*
X91867Y72973D01*
X91348Y73130D01*
X90888Y73416D01*
X90518Y73811D01*
X90263Y74292D01*
X90125Y74782D01*
X90067Y75293D01*
X90067Y75896D01*
X90067Y75897D01*
X90058Y75919D01*
X90029Y75987D01*
X89937Y76022D01*
X89927Y76018D01*
X89852Y75984D01*
X89849Y75982D01*
X89848Y75981D01*
X89847Y75980D01*
X89827Y75959D01*
X89825Y75955D01*
X89822Y75954D01*
X89821Y75950D01*
X89816Y75948D01*
X89478Y75513D01*
X89474Y75498D01*
X89462Y75486D01*
X89241Y74982D01*
X89241Y74981D01*
X89089Y74625D01*
X88988Y74397D01*
X88988Y74387D01*
X88981Y74377D01*
X88761Y73499D01*
X88763Y73490D01*
X88758Y73480D01*
X88672Y72580D01*
X88676Y72570D01*
X88672Y72558D01*
X88738Y71690D01*
X88744Y71679D01*
X88743Y71666D01*
X88974Y70826D01*
X88982Y70816D01*
X88983Y70803D01*
X89371Y70023D01*
X89379Y70016D01*
X89382Y70005D01*
X89942Y69228D01*
X89949Y69224D01*
X89953Y69215D01*
X90611Y68519D01*
X90622Y68514D01*
X90630Y68503D01*
X91233Y68072D01*
X91248Y68069D01*
X91261Y68057D01*
X91953Y67790D01*
X91969Y67790D01*
X91984Y67782D01*
X92721Y67695D01*
X92736Y67700D01*
X92753Y67696D01*
X93488Y67795D01*
X93501Y67803D01*
X93518Y67803D01*
X94206Y68083D01*
X94215Y68092D01*
X94229Y68095D01*
X95987Y69282D01*
X95993Y69290D01*
X96003Y69294D01*
X97544Y70747D01*
X97979Y71117D01*
X98482Y71357D01*
X99030Y71459D01*
X99586Y71416D01*
X100111Y71230D01*
X100571Y70915D01*
X100936Y70490D01*
X101229Y69947D01*
X101427Y69361D01*
X101524Y68751D01*
X101489Y68040D01*
X101282Y67362D01*
X100917Y66756D01*
X100589Y66443D01*
X100185Y66237D01*
X99769Y66144D01*
X99341Y66144D01*
X98926Y66237D01*
X98788Y66309D01*
X98674Y66427D01*
X98075Y67251D01*
X98004Y67384D01*
X97976Y67522D01*
X97992Y67680D01*
X97978Y67723D01*
X97967Y67768D01*
X97963Y67770D01*
X97962Y67774D01*
X97921Y67794D01*
X97882Y67817D01*
X97878Y67816D01*
X97874Y67818D01*
X97831Y67803D01*
X97787Y67790D01*
X97785Y67787D01*
X97781Y67786D01*
X97762Y67748D01*
X97741Y67712D01*
X97665Y67229D01*
X97667Y67224D01*
X97664Y67219D01*
X97591Y66279D01*
X97593Y66273D01*
X97591Y66267D01*
X97592Y66264D01*
X97591Y66259D01*
X97664Y65319D01*
X97669Y65309D01*
X97668Y65297D01*
X97852Y64598D01*
X97860Y64588D01*
X97861Y64574D01*
X98182Y63926D01*
X98191Y63918D01*
X98195Y63904D01*
X98640Y63334D01*
X98651Y63328D01*
X98657Y63316D01*
X99207Y62846D01*
X99219Y62842D01*
X99228Y62831D01*
X99960Y62430D01*
X99973Y62429D01*
X99984Y62420D01*
X100783Y62180D01*
X100796Y62181D01*
X100809Y62175D01*
X101640Y62105D01*
X101646Y62107D01*
X101651Y62105D01*
X116815Y62105D01*
X116820Y62107D01*
G37*
D10*
X54991Y30099D02*
X45331Y30099D01*
X45331Y34929D01*
X46941Y36539D01*
X50161Y36539D01*
X51771Y34929D01*
X51771Y30099D01*
X51771Y33319D02*
X54991Y36539D01*
X54991Y40624D02*
X54991Y43844D01*
X54991Y42234D02*
X45331Y42234D01*
X45331Y40624D02*
X45331Y43844D01*
X45331Y47640D02*
X54991Y47640D01*
X54991Y54080D02*
X45331Y47640D01*
X45331Y54080D02*
X54991Y54080D01*
X45331Y62995D02*
X46941Y64605D01*
X45331Y62995D02*
X45331Y59775D01*
X46941Y58165D01*
X53381Y58165D01*
X54991Y59775D01*
X54991Y62995D01*
X53381Y64605D01*
X50161Y64605D01*
X50161Y61385D01*
X54991Y68689D02*
X54991Y75129D01*
X54991Y68689D02*
X48551Y75129D01*
X46941Y75129D01*
X45331Y73519D01*
X45331Y70299D01*
X46941Y68689D01*
X97401Y33319D02*
X107061Y33319D01*
X97401Y30099D02*
X97401Y36539D01*
X107061Y40624D02*
X107061Y43844D01*
X107061Y42234D02*
X97401Y42234D01*
X97401Y40624D02*
X97401Y43844D01*
X97401Y47640D02*
X107061Y47640D01*
X97401Y47640D02*
X97401Y52470D01*
X99011Y54080D01*
X102231Y54080D01*
X103841Y52470D01*
X103841Y47640D01*
X21541Y36539D02*
X19931Y34929D01*
X19931Y31709D01*
X21541Y30099D01*
X23151Y30099D01*
X24761Y31709D01*
X24761Y34929D01*
X26371Y36539D01*
X27981Y36539D01*
X29591Y34929D01*
X29591Y31709D01*
X27981Y30099D01*
X29591Y40624D02*
X19931Y40624D01*
X29591Y40624D02*
X29591Y47064D01*
X19931Y51148D02*
X19931Y57588D01*
X19931Y51148D02*
X29591Y51148D01*
X29591Y57588D01*
X24761Y54368D02*
X24761Y51148D01*
X19931Y61673D02*
X19931Y68113D01*
X19931Y61673D02*
X29591Y61673D01*
X29591Y68113D01*
X24761Y64893D02*
X24761Y61673D01*
X26371Y72197D02*
X19931Y72197D01*
X26371Y72197D02*
X29591Y75417D01*
X26371Y78638D01*
X19931Y78638D01*
X19931Y82722D02*
X19931Y89162D01*
X19931Y82722D02*
X29591Y82722D01*
X29591Y89162D01*
X24761Y85942D02*
X24761Y82722D01*
X72001Y30099D02*
X81661Y30099D01*
X72001Y30099D02*
X72001Y34929D01*
X73611Y36539D01*
X76831Y36539D01*
X78441Y34929D01*
X78441Y30099D01*
X78441Y33319D02*
X81661Y36539D01*
X81661Y40624D02*
X81661Y43844D01*
X81661Y42234D02*
X72001Y42234D01*
X72001Y40624D02*
X72001Y43844D01*
X72001Y47640D02*
X81661Y47640D01*
X81661Y54080D02*
X72001Y47640D01*
X72001Y54080D02*
X81661Y54080D01*
X72001Y62995D02*
X73611Y64605D01*
X72001Y62995D02*
X72001Y59775D01*
X73611Y58165D01*
X80051Y58165D01*
X81661Y59775D01*
X81661Y62995D01*
X80051Y64605D01*
X76831Y64605D01*
X76831Y61385D01*
X75221Y68689D02*
X72001Y71909D01*
X81661Y71909D01*
X81661Y68689D02*
X81661Y75129D01*
D11*
X105000Y94000D02*
X5000Y94000D01*
X122000Y94000D02*
X122000Y160000D01*
X110000Y160000D01*
X94000Y160000D02*
X70000Y160000D01*
X54000Y160000D02*
X40000Y160000D01*
X24000Y160000D02*
X5000Y160000D01*
D12*
X95250Y25400D02*
X107950Y25400D01*
X114300Y19050D01*
X114300Y6350D02*
X107950Y0D01*
X69850Y25400D02*
X63500Y19050D01*
X69850Y25400D02*
X82550Y25400D01*
X88900Y19050D01*
X88900Y6350D02*
X82550Y0D01*
X69850Y0D01*
X63500Y6350D01*
X88900Y19050D02*
X95250Y25400D01*
X88900Y6350D02*
X95250Y0D01*
X107950Y0D01*
X31750Y25400D02*
X19050Y25400D01*
X31750Y25400D02*
X38100Y19050D01*
X38100Y6350D02*
X31750Y0D01*
X38100Y19050D02*
X44450Y25400D01*
X57150Y25400D01*
X63500Y19050D01*
X63500Y6350D02*
X57150Y0D01*
X44450Y0D01*
X38100Y6350D01*
X12700Y6350D02*
X12700Y19050D01*
X19050Y25400D01*
X12700Y6350D02*
X19050Y0D01*
X31750Y0D01*
X114300Y6350D02*
X114300Y19050D01*
D13*
X14480Y31623D02*
X12573Y33530D01*
X14480Y31623D02*
X16386Y31623D01*
X18293Y33530D01*
X18293Y43063D01*
X16386Y43063D02*
X20200Y43063D01*
X24267Y43063D02*
X24267Y31623D01*
X24267Y43063D02*
X29987Y43063D01*
X31893Y41156D01*
X31893Y37343D01*
X29987Y35436D01*
X24267Y35436D01*
X35961Y39250D02*
X39774Y43063D01*
X39774Y31623D01*
X35961Y31623D02*
X43587Y31623D01*
M02*
