G04 EAGLE Gerber RS-274X export*
G75*
%MOMM*%
%FSLAX34Y34*%
%LPD*%
%INSoldermask Top*%
%IPPOS*%
%AMOC8*
5,1,8,0,0,1.08239X$1,22.5*%
G01*
%ADD10R,1.001600X0.551600*%
%ADD11C,3.617600*%
%ADD12R,1.651600X0.701600*%
%ADD13R,1.901600X1.301600*%
%ADD14C,1.101600*%
%ADD15C,0.500000*%
%ADD16R,0.901600X0.901600*%
%ADD17R,2.301600X0.701600*%
%ADD18C,1.778000*%
%ADD19R,1.101600X1.176600*%
%ADD20R,1.341600X1.601600*%


D10*
X83430Y101900D03*
X66430Y101900D03*
X83430Y92900D03*
X83430Y84900D03*
X83430Y75900D03*
X66430Y75900D03*
X66430Y92900D03*
X66430Y84900D03*
D11*
X25400Y152400D03*
X228600Y152400D03*
D12*
X203460Y83900D03*
X203460Y93900D03*
X203460Y73900D03*
X203460Y103900D03*
D13*
X242460Y60900D03*
X242460Y116900D03*
D12*
X50540Y93900D03*
X50540Y83900D03*
X50540Y103900D03*
X50540Y73900D03*
D13*
X11540Y116900D03*
X11540Y60900D03*
D14*
X53340Y12065D03*
D15*
X53340Y19565D02*
X53159Y19563D01*
X52978Y19556D01*
X52797Y19545D01*
X52616Y19530D01*
X52436Y19510D01*
X52256Y19486D01*
X52077Y19458D01*
X51899Y19425D01*
X51722Y19388D01*
X51545Y19347D01*
X51370Y19302D01*
X51195Y19252D01*
X51022Y19198D01*
X50851Y19140D01*
X50680Y19078D01*
X50512Y19011D01*
X50345Y18941D01*
X50179Y18867D01*
X50016Y18788D01*
X49855Y18706D01*
X49695Y18620D01*
X49538Y18530D01*
X49383Y18436D01*
X49230Y18339D01*
X49080Y18237D01*
X48932Y18133D01*
X48786Y18024D01*
X48644Y17913D01*
X48504Y17797D01*
X48367Y17679D01*
X48232Y17557D01*
X48101Y17432D01*
X47973Y17304D01*
X47848Y17173D01*
X47726Y17038D01*
X47608Y16901D01*
X47492Y16761D01*
X47381Y16619D01*
X47272Y16473D01*
X47168Y16325D01*
X47066Y16175D01*
X46969Y16022D01*
X46875Y15867D01*
X46785Y15710D01*
X46699Y15550D01*
X46617Y15389D01*
X46538Y15226D01*
X46464Y15060D01*
X46394Y14893D01*
X46327Y14725D01*
X46265Y14554D01*
X46207Y14383D01*
X46153Y14210D01*
X46103Y14035D01*
X46058Y13860D01*
X46017Y13683D01*
X45980Y13506D01*
X45947Y13328D01*
X45919Y13149D01*
X45895Y12969D01*
X45875Y12789D01*
X45860Y12608D01*
X45849Y12427D01*
X45842Y12246D01*
X45840Y12065D01*
X53340Y19565D02*
X53521Y19563D01*
X53702Y19556D01*
X53883Y19545D01*
X54064Y19530D01*
X54244Y19510D01*
X54424Y19486D01*
X54603Y19458D01*
X54781Y19425D01*
X54958Y19388D01*
X55135Y19347D01*
X55310Y19302D01*
X55485Y19252D01*
X55658Y19198D01*
X55829Y19140D01*
X56000Y19078D01*
X56168Y19011D01*
X56335Y18941D01*
X56501Y18867D01*
X56664Y18788D01*
X56825Y18706D01*
X56985Y18620D01*
X57142Y18530D01*
X57297Y18436D01*
X57450Y18339D01*
X57600Y18237D01*
X57748Y18133D01*
X57894Y18024D01*
X58036Y17913D01*
X58176Y17797D01*
X58313Y17679D01*
X58448Y17557D01*
X58579Y17432D01*
X58707Y17304D01*
X58832Y17173D01*
X58954Y17038D01*
X59072Y16901D01*
X59188Y16761D01*
X59299Y16619D01*
X59408Y16473D01*
X59512Y16325D01*
X59614Y16175D01*
X59711Y16022D01*
X59805Y15867D01*
X59895Y15710D01*
X59981Y15550D01*
X60063Y15389D01*
X60142Y15226D01*
X60216Y15060D01*
X60286Y14893D01*
X60353Y14725D01*
X60415Y14554D01*
X60473Y14383D01*
X60527Y14210D01*
X60577Y14035D01*
X60622Y13860D01*
X60663Y13683D01*
X60700Y13506D01*
X60733Y13328D01*
X60761Y13149D01*
X60785Y12969D01*
X60805Y12789D01*
X60820Y12608D01*
X60831Y12427D01*
X60838Y12246D01*
X60840Y12065D01*
X60838Y11884D01*
X60831Y11703D01*
X60820Y11522D01*
X60805Y11341D01*
X60785Y11161D01*
X60761Y10981D01*
X60733Y10802D01*
X60700Y10624D01*
X60663Y10447D01*
X60622Y10270D01*
X60577Y10095D01*
X60527Y9920D01*
X60473Y9747D01*
X60415Y9576D01*
X60353Y9405D01*
X60286Y9237D01*
X60216Y9070D01*
X60142Y8904D01*
X60063Y8741D01*
X59981Y8580D01*
X59895Y8420D01*
X59805Y8263D01*
X59711Y8108D01*
X59614Y7955D01*
X59512Y7805D01*
X59408Y7657D01*
X59299Y7511D01*
X59188Y7369D01*
X59072Y7229D01*
X58954Y7092D01*
X58832Y6957D01*
X58707Y6826D01*
X58579Y6698D01*
X58448Y6573D01*
X58313Y6451D01*
X58176Y6333D01*
X58036Y6217D01*
X57894Y6106D01*
X57748Y5997D01*
X57600Y5893D01*
X57450Y5791D01*
X57297Y5694D01*
X57142Y5600D01*
X56985Y5510D01*
X56825Y5424D01*
X56664Y5342D01*
X56501Y5263D01*
X56335Y5189D01*
X56168Y5119D01*
X56000Y5052D01*
X55829Y4990D01*
X55658Y4932D01*
X55485Y4878D01*
X55310Y4828D01*
X55135Y4783D01*
X54958Y4742D01*
X54781Y4705D01*
X54603Y4672D01*
X54424Y4644D01*
X54244Y4620D01*
X54064Y4600D01*
X53883Y4585D01*
X53702Y4574D01*
X53521Y4567D01*
X53340Y4565D01*
X53159Y4567D01*
X52978Y4574D01*
X52797Y4585D01*
X52616Y4600D01*
X52436Y4620D01*
X52256Y4644D01*
X52077Y4672D01*
X51899Y4705D01*
X51722Y4742D01*
X51545Y4783D01*
X51370Y4828D01*
X51195Y4878D01*
X51022Y4932D01*
X50851Y4990D01*
X50680Y5052D01*
X50512Y5119D01*
X50345Y5189D01*
X50179Y5263D01*
X50016Y5342D01*
X49855Y5424D01*
X49695Y5510D01*
X49538Y5600D01*
X49383Y5694D01*
X49230Y5791D01*
X49080Y5893D01*
X48932Y5997D01*
X48786Y6106D01*
X48644Y6217D01*
X48504Y6333D01*
X48367Y6451D01*
X48232Y6573D01*
X48101Y6698D01*
X47973Y6826D01*
X47848Y6957D01*
X47726Y7092D01*
X47608Y7229D01*
X47492Y7369D01*
X47381Y7511D01*
X47272Y7657D01*
X47168Y7805D01*
X47066Y7955D01*
X46969Y8108D01*
X46875Y8263D01*
X46785Y8420D01*
X46699Y8580D01*
X46617Y8741D01*
X46538Y8904D01*
X46464Y9070D01*
X46394Y9237D01*
X46327Y9405D01*
X46265Y9576D01*
X46207Y9747D01*
X46153Y9920D01*
X46103Y10095D01*
X46058Y10270D01*
X46017Y10447D01*
X45980Y10624D01*
X45947Y10802D01*
X45919Y10981D01*
X45895Y11161D01*
X45875Y11341D01*
X45860Y11522D01*
X45849Y11703D01*
X45842Y11884D01*
X45840Y12065D01*
D14*
X196850Y162941D03*
D15*
X196850Y170441D02*
X196669Y170439D01*
X196488Y170432D01*
X196307Y170421D01*
X196126Y170406D01*
X195946Y170386D01*
X195766Y170362D01*
X195587Y170334D01*
X195409Y170301D01*
X195232Y170264D01*
X195055Y170223D01*
X194880Y170178D01*
X194705Y170128D01*
X194532Y170074D01*
X194361Y170016D01*
X194190Y169954D01*
X194022Y169887D01*
X193855Y169817D01*
X193689Y169743D01*
X193526Y169664D01*
X193365Y169582D01*
X193205Y169496D01*
X193048Y169406D01*
X192893Y169312D01*
X192740Y169215D01*
X192590Y169113D01*
X192442Y169009D01*
X192296Y168900D01*
X192154Y168789D01*
X192014Y168673D01*
X191877Y168555D01*
X191742Y168433D01*
X191611Y168308D01*
X191483Y168180D01*
X191358Y168049D01*
X191236Y167914D01*
X191118Y167777D01*
X191002Y167637D01*
X190891Y167495D01*
X190782Y167349D01*
X190678Y167201D01*
X190576Y167051D01*
X190479Y166898D01*
X190385Y166743D01*
X190295Y166586D01*
X190209Y166426D01*
X190127Y166265D01*
X190048Y166102D01*
X189974Y165936D01*
X189904Y165769D01*
X189837Y165601D01*
X189775Y165430D01*
X189717Y165259D01*
X189663Y165086D01*
X189613Y164911D01*
X189568Y164736D01*
X189527Y164559D01*
X189490Y164382D01*
X189457Y164204D01*
X189429Y164025D01*
X189405Y163845D01*
X189385Y163665D01*
X189370Y163484D01*
X189359Y163303D01*
X189352Y163122D01*
X189350Y162941D01*
X196850Y170441D02*
X197031Y170439D01*
X197212Y170432D01*
X197393Y170421D01*
X197574Y170406D01*
X197754Y170386D01*
X197934Y170362D01*
X198113Y170334D01*
X198291Y170301D01*
X198468Y170264D01*
X198645Y170223D01*
X198820Y170178D01*
X198995Y170128D01*
X199168Y170074D01*
X199339Y170016D01*
X199510Y169954D01*
X199678Y169887D01*
X199845Y169817D01*
X200011Y169743D01*
X200174Y169664D01*
X200335Y169582D01*
X200495Y169496D01*
X200652Y169406D01*
X200807Y169312D01*
X200960Y169215D01*
X201110Y169113D01*
X201258Y169009D01*
X201404Y168900D01*
X201546Y168789D01*
X201686Y168673D01*
X201823Y168555D01*
X201958Y168433D01*
X202089Y168308D01*
X202217Y168180D01*
X202342Y168049D01*
X202464Y167914D01*
X202582Y167777D01*
X202698Y167637D01*
X202809Y167495D01*
X202918Y167349D01*
X203022Y167201D01*
X203124Y167051D01*
X203221Y166898D01*
X203315Y166743D01*
X203405Y166586D01*
X203491Y166426D01*
X203573Y166265D01*
X203652Y166102D01*
X203726Y165936D01*
X203796Y165769D01*
X203863Y165601D01*
X203925Y165430D01*
X203983Y165259D01*
X204037Y165086D01*
X204087Y164911D01*
X204132Y164736D01*
X204173Y164559D01*
X204210Y164382D01*
X204243Y164204D01*
X204271Y164025D01*
X204295Y163845D01*
X204315Y163665D01*
X204330Y163484D01*
X204341Y163303D01*
X204348Y163122D01*
X204350Y162941D01*
X204348Y162760D01*
X204341Y162579D01*
X204330Y162398D01*
X204315Y162217D01*
X204295Y162037D01*
X204271Y161857D01*
X204243Y161678D01*
X204210Y161500D01*
X204173Y161323D01*
X204132Y161146D01*
X204087Y160971D01*
X204037Y160796D01*
X203983Y160623D01*
X203925Y160452D01*
X203863Y160281D01*
X203796Y160113D01*
X203726Y159946D01*
X203652Y159780D01*
X203573Y159617D01*
X203491Y159456D01*
X203405Y159296D01*
X203315Y159139D01*
X203221Y158984D01*
X203124Y158831D01*
X203022Y158681D01*
X202918Y158533D01*
X202809Y158387D01*
X202698Y158245D01*
X202582Y158105D01*
X202464Y157968D01*
X202342Y157833D01*
X202217Y157702D01*
X202089Y157574D01*
X201958Y157449D01*
X201823Y157327D01*
X201686Y157209D01*
X201546Y157093D01*
X201404Y156982D01*
X201258Y156873D01*
X201110Y156769D01*
X200960Y156667D01*
X200807Y156570D01*
X200652Y156476D01*
X200495Y156386D01*
X200335Y156300D01*
X200174Y156218D01*
X200011Y156139D01*
X199845Y156065D01*
X199678Y155995D01*
X199510Y155928D01*
X199339Y155866D01*
X199168Y155808D01*
X198995Y155754D01*
X198820Y155704D01*
X198645Y155659D01*
X198468Y155618D01*
X198291Y155581D01*
X198113Y155548D01*
X197934Y155520D01*
X197754Y155496D01*
X197574Y155476D01*
X197393Y155461D01*
X197212Y155450D01*
X197031Y155443D01*
X196850Y155441D01*
X196669Y155443D01*
X196488Y155450D01*
X196307Y155461D01*
X196126Y155476D01*
X195946Y155496D01*
X195766Y155520D01*
X195587Y155548D01*
X195409Y155581D01*
X195232Y155618D01*
X195055Y155659D01*
X194880Y155704D01*
X194705Y155754D01*
X194532Y155808D01*
X194361Y155866D01*
X194190Y155928D01*
X194022Y155995D01*
X193855Y156065D01*
X193689Y156139D01*
X193526Y156218D01*
X193365Y156300D01*
X193205Y156386D01*
X193048Y156476D01*
X192893Y156570D01*
X192740Y156667D01*
X192590Y156769D01*
X192442Y156873D01*
X192296Y156982D01*
X192154Y157093D01*
X192014Y157209D01*
X191877Y157327D01*
X191742Y157449D01*
X191611Y157574D01*
X191483Y157702D01*
X191358Y157833D01*
X191236Y157968D01*
X191118Y158105D01*
X191002Y158245D01*
X190891Y158387D01*
X190782Y158533D01*
X190678Y158681D01*
X190576Y158831D01*
X190479Y158984D01*
X190385Y159139D01*
X190295Y159296D01*
X190209Y159456D01*
X190127Y159617D01*
X190048Y159780D01*
X189974Y159946D01*
X189904Y160113D01*
X189837Y160281D01*
X189775Y160452D01*
X189717Y160623D01*
X189663Y160796D01*
X189613Y160971D01*
X189568Y161146D01*
X189527Y161323D01*
X189490Y161500D01*
X189457Y161678D01*
X189429Y161857D01*
X189405Y162037D01*
X189385Y162217D01*
X189370Y162398D01*
X189359Y162579D01*
X189352Y162760D01*
X189350Y162941D01*
D11*
X25400Y25400D03*
X228600Y25400D03*
D16*
X28060Y125730D03*
X43060Y125730D03*
D17*
X102270Y82550D03*
X154270Y82550D03*
X102270Y95250D03*
X102270Y69850D03*
X102270Y57150D03*
X154270Y95250D03*
X154270Y69850D03*
X154270Y57150D03*
D18*
X101600Y152400D03*
X127000Y152400D03*
X152400Y152400D03*
X76200Y25400D03*
X101600Y25400D03*
X127000Y25400D03*
X152400Y25400D03*
X177800Y25400D03*
D19*
X175260Y96130D03*
X175260Y79130D03*
D20*
X62890Y58420D03*
X81890Y58420D03*
M02*
