G04 EAGLE Gerber RS-274X export*
G75*
%MOMM*%
%FSLAX34Y34*%
%LPD*%
%INSoldermask Top*%
%IPPOS*%
%AMOC8*
5,1,8,0,0,1.08239X$1,22.5*%
G01*
%ADD10C,0.701600*%
%ADD11C,1.101600*%
%ADD12C,0.500000*%
%ADD13R,1.501600X1.101600*%
%ADD14R,1.101600X1.176600*%
%ADD15R,2.001600X1.501600*%
%ADD16R,1.501600X1.901600*%
%ADD17R,1.601600X0.801600*%
%ADD18R,1.341600X1.601600*%
%ADD19R,2.301600X0.701600*%
%ADD20R,0.651600X1.301600*%
%ADD21R,1.101600X1.301600*%
%ADD22R,1.176600X1.101600*%
%ADD23C,1.778000*%
%ADD24C,3.617600*%


D10*
X27940Y139700D03*
X19050Y139700D03*
X10160Y139700D03*
X1270Y139700D03*
X-7620Y139700D03*
X294640Y139700D03*
X285750Y139700D03*
X276860Y139700D03*
X267970Y139700D03*
X259080Y139700D03*
D11*
X0Y0D03*
D12*
X0Y7500D02*
X-181Y7498D01*
X-362Y7491D01*
X-543Y7480D01*
X-724Y7465D01*
X-904Y7445D01*
X-1084Y7421D01*
X-1263Y7393D01*
X-1441Y7360D01*
X-1618Y7323D01*
X-1795Y7282D01*
X-1970Y7237D01*
X-2145Y7187D01*
X-2318Y7133D01*
X-2489Y7075D01*
X-2660Y7013D01*
X-2828Y6946D01*
X-2995Y6876D01*
X-3161Y6802D01*
X-3324Y6723D01*
X-3485Y6641D01*
X-3645Y6555D01*
X-3802Y6465D01*
X-3957Y6371D01*
X-4110Y6274D01*
X-4260Y6172D01*
X-4408Y6068D01*
X-4554Y5959D01*
X-4696Y5848D01*
X-4836Y5732D01*
X-4973Y5614D01*
X-5108Y5492D01*
X-5239Y5367D01*
X-5367Y5239D01*
X-5492Y5108D01*
X-5614Y4973D01*
X-5732Y4836D01*
X-5848Y4696D01*
X-5959Y4554D01*
X-6068Y4408D01*
X-6172Y4260D01*
X-6274Y4110D01*
X-6371Y3957D01*
X-6465Y3802D01*
X-6555Y3645D01*
X-6641Y3485D01*
X-6723Y3324D01*
X-6802Y3161D01*
X-6876Y2995D01*
X-6946Y2828D01*
X-7013Y2660D01*
X-7075Y2489D01*
X-7133Y2318D01*
X-7187Y2145D01*
X-7237Y1970D01*
X-7282Y1795D01*
X-7323Y1618D01*
X-7360Y1441D01*
X-7393Y1263D01*
X-7421Y1084D01*
X-7445Y904D01*
X-7465Y724D01*
X-7480Y543D01*
X-7491Y362D01*
X-7498Y181D01*
X-7500Y0D01*
X0Y7500D02*
X181Y7498D01*
X362Y7491D01*
X543Y7480D01*
X724Y7465D01*
X904Y7445D01*
X1084Y7421D01*
X1263Y7393D01*
X1441Y7360D01*
X1618Y7323D01*
X1795Y7282D01*
X1970Y7237D01*
X2145Y7187D01*
X2318Y7133D01*
X2489Y7075D01*
X2660Y7013D01*
X2828Y6946D01*
X2995Y6876D01*
X3161Y6802D01*
X3324Y6723D01*
X3485Y6641D01*
X3645Y6555D01*
X3802Y6465D01*
X3957Y6371D01*
X4110Y6274D01*
X4260Y6172D01*
X4408Y6068D01*
X4554Y5959D01*
X4696Y5848D01*
X4836Y5732D01*
X4973Y5614D01*
X5108Y5492D01*
X5239Y5367D01*
X5367Y5239D01*
X5492Y5108D01*
X5614Y4973D01*
X5732Y4836D01*
X5848Y4696D01*
X5959Y4554D01*
X6068Y4408D01*
X6172Y4260D01*
X6274Y4110D01*
X6371Y3957D01*
X6465Y3802D01*
X6555Y3645D01*
X6641Y3485D01*
X6723Y3324D01*
X6802Y3161D01*
X6876Y2995D01*
X6946Y2828D01*
X7013Y2660D01*
X7075Y2489D01*
X7133Y2318D01*
X7187Y2145D01*
X7237Y1970D01*
X7282Y1795D01*
X7323Y1618D01*
X7360Y1441D01*
X7393Y1263D01*
X7421Y1084D01*
X7445Y904D01*
X7465Y724D01*
X7480Y543D01*
X7491Y362D01*
X7498Y181D01*
X7500Y0D01*
X7498Y-181D01*
X7491Y-362D01*
X7480Y-543D01*
X7465Y-724D01*
X7445Y-904D01*
X7421Y-1084D01*
X7393Y-1263D01*
X7360Y-1441D01*
X7323Y-1618D01*
X7282Y-1795D01*
X7237Y-1970D01*
X7187Y-2145D01*
X7133Y-2318D01*
X7075Y-2489D01*
X7013Y-2660D01*
X6946Y-2828D01*
X6876Y-2995D01*
X6802Y-3161D01*
X6723Y-3324D01*
X6641Y-3485D01*
X6555Y-3645D01*
X6465Y-3802D01*
X6371Y-3957D01*
X6274Y-4110D01*
X6172Y-4260D01*
X6068Y-4408D01*
X5959Y-4554D01*
X5848Y-4696D01*
X5732Y-4836D01*
X5614Y-4973D01*
X5492Y-5108D01*
X5367Y-5239D01*
X5239Y-5367D01*
X5108Y-5492D01*
X4973Y-5614D01*
X4836Y-5732D01*
X4696Y-5848D01*
X4554Y-5959D01*
X4408Y-6068D01*
X4260Y-6172D01*
X4110Y-6274D01*
X3957Y-6371D01*
X3802Y-6465D01*
X3645Y-6555D01*
X3485Y-6641D01*
X3324Y-6723D01*
X3161Y-6802D01*
X2995Y-6876D01*
X2828Y-6946D01*
X2660Y-7013D01*
X2489Y-7075D01*
X2318Y-7133D01*
X2145Y-7187D01*
X1970Y-7237D01*
X1795Y-7282D01*
X1618Y-7323D01*
X1441Y-7360D01*
X1263Y-7393D01*
X1084Y-7421D01*
X904Y-7445D01*
X724Y-7465D01*
X543Y-7480D01*
X362Y-7491D01*
X181Y-7498D01*
X0Y-7500D01*
X-181Y-7498D01*
X-362Y-7491D01*
X-543Y-7480D01*
X-724Y-7465D01*
X-904Y-7445D01*
X-1084Y-7421D01*
X-1263Y-7393D01*
X-1441Y-7360D01*
X-1618Y-7323D01*
X-1795Y-7282D01*
X-1970Y-7237D01*
X-2145Y-7187D01*
X-2318Y-7133D01*
X-2489Y-7075D01*
X-2660Y-7013D01*
X-2828Y-6946D01*
X-2995Y-6876D01*
X-3161Y-6802D01*
X-3324Y-6723D01*
X-3485Y-6641D01*
X-3645Y-6555D01*
X-3802Y-6465D01*
X-3957Y-6371D01*
X-4110Y-6274D01*
X-4260Y-6172D01*
X-4408Y-6068D01*
X-4554Y-5959D01*
X-4696Y-5848D01*
X-4836Y-5732D01*
X-4973Y-5614D01*
X-5108Y-5492D01*
X-5239Y-5367D01*
X-5367Y-5239D01*
X-5492Y-5108D01*
X-5614Y-4973D01*
X-5732Y-4836D01*
X-5848Y-4696D01*
X-5959Y-4554D01*
X-6068Y-4408D01*
X-6172Y-4260D01*
X-6274Y-4110D01*
X-6371Y-3957D01*
X-6465Y-3802D01*
X-6555Y-3645D01*
X-6641Y-3485D01*
X-6723Y-3324D01*
X-6802Y-3161D01*
X-6876Y-2995D01*
X-6946Y-2828D01*
X-7013Y-2660D01*
X-7075Y-2489D01*
X-7133Y-2318D01*
X-7187Y-2145D01*
X-7237Y-1970D01*
X-7282Y-1795D01*
X-7323Y-1618D01*
X-7360Y-1441D01*
X-7393Y-1263D01*
X-7421Y-1084D01*
X-7445Y-904D01*
X-7465Y-724D01*
X-7480Y-543D01*
X-7491Y-362D01*
X-7498Y-181D01*
X-7500Y0D01*
D11*
X110490Y77470D03*
D12*
X110490Y84970D02*
X110309Y84968D01*
X110128Y84961D01*
X109947Y84950D01*
X109766Y84935D01*
X109586Y84915D01*
X109406Y84891D01*
X109227Y84863D01*
X109049Y84830D01*
X108872Y84793D01*
X108695Y84752D01*
X108520Y84707D01*
X108345Y84657D01*
X108172Y84603D01*
X108001Y84545D01*
X107830Y84483D01*
X107662Y84416D01*
X107495Y84346D01*
X107329Y84272D01*
X107166Y84193D01*
X107005Y84111D01*
X106845Y84025D01*
X106688Y83935D01*
X106533Y83841D01*
X106380Y83744D01*
X106230Y83642D01*
X106082Y83538D01*
X105936Y83429D01*
X105794Y83318D01*
X105654Y83202D01*
X105517Y83084D01*
X105382Y82962D01*
X105251Y82837D01*
X105123Y82709D01*
X104998Y82578D01*
X104876Y82443D01*
X104758Y82306D01*
X104642Y82166D01*
X104531Y82024D01*
X104422Y81878D01*
X104318Y81730D01*
X104216Y81580D01*
X104119Y81427D01*
X104025Y81272D01*
X103935Y81115D01*
X103849Y80955D01*
X103767Y80794D01*
X103688Y80631D01*
X103614Y80465D01*
X103544Y80298D01*
X103477Y80130D01*
X103415Y79959D01*
X103357Y79788D01*
X103303Y79615D01*
X103253Y79440D01*
X103208Y79265D01*
X103167Y79088D01*
X103130Y78911D01*
X103097Y78733D01*
X103069Y78554D01*
X103045Y78374D01*
X103025Y78194D01*
X103010Y78013D01*
X102999Y77832D01*
X102992Y77651D01*
X102990Y77470D01*
X110490Y84970D02*
X110671Y84968D01*
X110852Y84961D01*
X111033Y84950D01*
X111214Y84935D01*
X111394Y84915D01*
X111574Y84891D01*
X111753Y84863D01*
X111931Y84830D01*
X112108Y84793D01*
X112285Y84752D01*
X112460Y84707D01*
X112635Y84657D01*
X112808Y84603D01*
X112979Y84545D01*
X113150Y84483D01*
X113318Y84416D01*
X113485Y84346D01*
X113651Y84272D01*
X113814Y84193D01*
X113975Y84111D01*
X114135Y84025D01*
X114292Y83935D01*
X114447Y83841D01*
X114600Y83744D01*
X114750Y83642D01*
X114898Y83538D01*
X115044Y83429D01*
X115186Y83318D01*
X115326Y83202D01*
X115463Y83084D01*
X115598Y82962D01*
X115729Y82837D01*
X115857Y82709D01*
X115982Y82578D01*
X116104Y82443D01*
X116222Y82306D01*
X116338Y82166D01*
X116449Y82024D01*
X116558Y81878D01*
X116662Y81730D01*
X116764Y81580D01*
X116861Y81427D01*
X116955Y81272D01*
X117045Y81115D01*
X117131Y80955D01*
X117213Y80794D01*
X117292Y80631D01*
X117366Y80465D01*
X117436Y80298D01*
X117503Y80130D01*
X117565Y79959D01*
X117623Y79788D01*
X117677Y79615D01*
X117727Y79440D01*
X117772Y79265D01*
X117813Y79088D01*
X117850Y78911D01*
X117883Y78733D01*
X117911Y78554D01*
X117935Y78374D01*
X117955Y78194D01*
X117970Y78013D01*
X117981Y77832D01*
X117988Y77651D01*
X117990Y77470D01*
X117988Y77289D01*
X117981Y77108D01*
X117970Y76927D01*
X117955Y76746D01*
X117935Y76566D01*
X117911Y76386D01*
X117883Y76207D01*
X117850Y76029D01*
X117813Y75852D01*
X117772Y75675D01*
X117727Y75500D01*
X117677Y75325D01*
X117623Y75152D01*
X117565Y74981D01*
X117503Y74810D01*
X117436Y74642D01*
X117366Y74475D01*
X117292Y74309D01*
X117213Y74146D01*
X117131Y73985D01*
X117045Y73825D01*
X116955Y73668D01*
X116861Y73513D01*
X116764Y73360D01*
X116662Y73210D01*
X116558Y73062D01*
X116449Y72916D01*
X116338Y72774D01*
X116222Y72634D01*
X116104Y72497D01*
X115982Y72362D01*
X115857Y72231D01*
X115729Y72103D01*
X115598Y71978D01*
X115463Y71856D01*
X115326Y71738D01*
X115186Y71622D01*
X115044Y71511D01*
X114898Y71402D01*
X114750Y71298D01*
X114600Y71196D01*
X114447Y71099D01*
X114292Y71005D01*
X114135Y70915D01*
X113975Y70829D01*
X113814Y70747D01*
X113651Y70668D01*
X113485Y70594D01*
X113318Y70524D01*
X113150Y70457D01*
X112979Y70395D01*
X112808Y70337D01*
X112635Y70283D01*
X112460Y70233D01*
X112285Y70188D01*
X112108Y70147D01*
X111931Y70110D01*
X111753Y70077D01*
X111574Y70049D01*
X111394Y70025D01*
X111214Y70005D01*
X111033Y69990D01*
X110852Y69979D01*
X110671Y69972D01*
X110490Y69970D01*
X110309Y69972D01*
X110128Y69979D01*
X109947Y69990D01*
X109766Y70005D01*
X109586Y70025D01*
X109406Y70049D01*
X109227Y70077D01*
X109049Y70110D01*
X108872Y70147D01*
X108695Y70188D01*
X108520Y70233D01*
X108345Y70283D01*
X108172Y70337D01*
X108001Y70395D01*
X107830Y70457D01*
X107662Y70524D01*
X107495Y70594D01*
X107329Y70668D01*
X107166Y70747D01*
X107005Y70829D01*
X106845Y70915D01*
X106688Y71005D01*
X106533Y71099D01*
X106380Y71196D01*
X106230Y71298D01*
X106082Y71402D01*
X105936Y71511D01*
X105794Y71622D01*
X105654Y71738D01*
X105517Y71856D01*
X105382Y71978D01*
X105251Y72103D01*
X105123Y72231D01*
X104998Y72362D01*
X104876Y72497D01*
X104758Y72634D01*
X104642Y72774D01*
X104531Y72916D01*
X104422Y73062D01*
X104318Y73210D01*
X104216Y73360D01*
X104119Y73513D01*
X104025Y73668D01*
X103935Y73825D01*
X103849Y73985D01*
X103767Y74146D01*
X103688Y74309D01*
X103614Y74475D01*
X103544Y74642D01*
X103477Y74810D01*
X103415Y74981D01*
X103357Y75152D01*
X103303Y75325D01*
X103253Y75500D01*
X103208Y75675D01*
X103167Y75852D01*
X103130Y76029D01*
X103097Y76207D01*
X103069Y76386D01*
X103045Y76566D01*
X103025Y76746D01*
X103010Y76927D01*
X102999Y77108D01*
X102992Y77289D01*
X102990Y77470D01*
D13*
X239600Y-17780D03*
X217600Y-27280D03*
X217600Y-8280D03*
D14*
X200660Y-24520D03*
X200660Y-41520D03*
D15*
X8110Y109030D03*
X-890Y-22970D03*
D16*
X139110Y93030D03*
X139110Y33030D03*
D17*
X37110Y100030D03*
X37110Y89030D03*
X33110Y78030D03*
X37110Y67030D03*
X33110Y56030D03*
X37110Y45030D03*
X41110Y34030D03*
X37110Y23030D03*
D18*
X188620Y111760D03*
X207620Y111760D03*
D19*
X174660Y80010D03*
X226660Y54610D03*
X174660Y92710D03*
X174660Y67310D03*
X174660Y54610D03*
X226660Y67310D03*
X226660Y41910D03*
X226660Y29210D03*
X174660Y29210D03*
X226660Y3810D03*
X174660Y41910D03*
X174660Y16510D03*
X226660Y16510D03*
X174660Y3810D03*
X226660Y80010D03*
X226660Y92710D03*
D20*
X254660Y-10461D03*
X264160Y-10461D03*
X273660Y-10461D03*
X273660Y15541D03*
X254660Y15541D03*
D18*
X252120Y33020D03*
X271120Y33020D03*
X281280Y-31750D03*
X262280Y-31750D03*
D14*
X246380Y58810D03*
X246380Y75810D03*
D21*
X271780Y57310D03*
X262280Y77310D03*
X281280Y77310D03*
D22*
X265820Y96520D03*
X282820Y96520D03*
D14*
X251460Y94370D03*
X251460Y111370D03*
D23*
X270510Y-63500D03*
X245110Y-63500D03*
X219710Y-63500D03*
X194310Y-63500D03*
X168910Y-63500D03*
X143510Y-63500D03*
X118110Y-63500D03*
X92710Y-63500D03*
X67310Y-63500D03*
X41910Y-63500D03*
X16510Y-63500D03*
D24*
X10160Y165100D03*
X276860Y165100D03*
D11*
X87840Y-3140D03*
X87840Y100860D03*
M02*
