G04 EAGLE Gerber RS-274X export*
G75*
%MOMM*%
%FSLAX34Y34*%
%LPD*%
%INBottom Copper*%
%IPPOS*%
%AMOC8*
5,1,8,0,0,1.08239X$1,22.5*%
G01*
%ADD10C,1.400000*%
%ADD11C,1.625600*%
%ADD12C,4.016000*%
%ADD13C,1.778000*%
%ADD14C,0.806400*%
%ADD15C,0.280000*%
%ADD16C,0.250000*%
%ADD17C,0.906400*%
%ADD18C,0.254000*%
%ADD19C,0.609600*%
%ADD20C,0.812800*%
%ADD21C,0.406400*%
%ADD22C,1.016000*%
%ADD23C,1.270000*%

G36*
X420060Y2548D02*
X420060Y2548D01*
X420098Y2545D01*
X424198Y2867D01*
X424449Y2920D01*
X424486Y2925D01*
X432285Y5459D01*
X432570Y5593D01*
X432606Y5623D01*
X432633Y5636D01*
X439268Y10456D01*
X439497Y10672D01*
X439522Y10711D01*
X439544Y10732D01*
X444364Y17367D01*
X444516Y17643D01*
X444527Y17688D01*
X444541Y17715D01*
X447075Y25514D01*
X447123Y25766D01*
X447133Y25802D01*
X447455Y29902D01*
X447454Y29938D01*
X447458Y29960D01*
X447456Y29982D01*
X447459Y30000D01*
X447459Y820000D01*
X447452Y820060D01*
X447455Y820098D01*
X447133Y824198D01*
X447080Y824449D01*
X447075Y824486D01*
X444541Y832285D01*
X444407Y832570D01*
X444377Y832606D01*
X444364Y832633D01*
X439544Y839268D01*
X439328Y839497D01*
X439289Y839522D01*
X439268Y839544D01*
X432633Y844364D01*
X432357Y844516D01*
X432312Y844527D01*
X432285Y844541D01*
X427217Y846188D01*
X426907Y846247D01*
X426861Y846244D01*
X426831Y846249D01*
X23169Y846249D01*
X22856Y846209D01*
X22813Y846192D01*
X22783Y846188D01*
X17715Y844541D01*
X17430Y844407D01*
X17394Y844377D01*
X17367Y844364D01*
X10732Y839544D01*
X10503Y839328D01*
X10478Y839289D01*
X10456Y839268D01*
X5636Y832633D01*
X5484Y832357D01*
X5473Y832312D01*
X5459Y832285D01*
X2925Y824486D01*
X2877Y824234D01*
X2867Y824198D01*
X2545Y820098D01*
X2547Y820038D01*
X2541Y820000D01*
X2541Y795059D01*
X2559Y794919D01*
X2573Y794777D01*
X2579Y794762D01*
X2581Y794746D01*
X2633Y794615D01*
X2682Y794481D01*
X2692Y794468D01*
X2698Y794453D01*
X2781Y794339D01*
X2862Y794222D01*
X2875Y794212D01*
X2884Y794199D01*
X2994Y794109D01*
X3102Y794017D01*
X3116Y794009D01*
X3129Y793999D01*
X3258Y793940D01*
X3385Y793877D01*
X3401Y793874D01*
X3415Y793867D01*
X3555Y793842D01*
X3694Y793814D01*
X3710Y793814D01*
X3726Y793811D01*
X3867Y793822D01*
X4009Y793829D01*
X4024Y793834D01*
X4040Y793835D01*
X4175Y793881D01*
X4310Y793923D01*
X4321Y793931D01*
X4339Y793937D01*
X4603Y794110D01*
X4643Y794154D01*
X4673Y794176D01*
X6494Y795996D01*
X9093Y797073D01*
X11907Y797073D01*
X14506Y795996D01*
X16496Y794006D01*
X17573Y791407D01*
X17573Y788593D01*
X16496Y785994D01*
X14506Y784004D01*
X11907Y782927D01*
X9093Y782927D01*
X8690Y783094D01*
X8668Y783100D01*
X8648Y783111D01*
X8592Y783121D01*
X8386Y783177D01*
X8271Y783179D01*
X8212Y783189D01*
X5922Y783189D01*
X4673Y784437D01*
X4561Y784524D01*
X4451Y784614D01*
X4437Y784621D01*
X4424Y784631D01*
X4294Y784686D01*
X4165Y784746D01*
X4149Y784749D01*
X4134Y784755D01*
X3993Y784777D01*
X3854Y784802D01*
X3838Y784801D01*
X3822Y784803D01*
X3681Y784789D01*
X3540Y784778D01*
X3524Y784773D01*
X3508Y784771D01*
X3376Y784722D01*
X3241Y784676D01*
X3227Y784667D01*
X3212Y784662D01*
X3097Y784581D01*
X2977Y784503D01*
X2966Y784491D01*
X2953Y784482D01*
X2861Y784375D01*
X2766Y784269D01*
X2758Y784255D01*
X2748Y784243D01*
X2685Y784115D01*
X2619Y783990D01*
X2617Y783977D01*
X2608Y783959D01*
X2544Y783650D01*
X2547Y783591D01*
X2541Y783554D01*
X2541Y30000D01*
X2548Y29940D01*
X2545Y29902D01*
X2867Y25802D01*
X2920Y25551D01*
X2925Y25514D01*
X5459Y17715D01*
X5593Y17430D01*
X5623Y17394D01*
X5636Y17367D01*
X10456Y10732D01*
X10672Y10503D01*
X10711Y10478D01*
X10732Y10456D01*
X17367Y5636D01*
X17643Y5484D01*
X17688Y5473D01*
X17715Y5459D01*
X25514Y2925D01*
X25766Y2877D01*
X25802Y2867D01*
X29902Y2545D01*
X29962Y2547D01*
X30000Y2541D01*
X420000Y2541D01*
X420060Y2548D01*
G37*
%LPC*%
G36*
X334302Y77959D02*
X334302Y77959D01*
X330796Y79412D01*
X328112Y82096D01*
X326659Y85602D01*
X326659Y89398D01*
X328112Y92904D01*
X330796Y95588D01*
X331770Y95992D01*
X331832Y96027D01*
X331898Y96054D01*
X331968Y96105D01*
X332044Y96148D01*
X332095Y96198D01*
X332152Y96240D01*
X332207Y96308D01*
X332270Y96369D01*
X332307Y96430D01*
X332352Y96485D01*
X332388Y96564D01*
X332434Y96638D01*
X332454Y96707D01*
X332484Y96771D01*
X332499Y96857D01*
X332524Y96941D01*
X332527Y97012D01*
X332540Y97082D01*
X332533Y97169D01*
X332536Y97256D01*
X332521Y97325D01*
X332516Y97396D01*
X332488Y97479D01*
X332469Y97564D01*
X332437Y97628D01*
X332414Y97695D01*
X332366Y97768D01*
X332327Y97846D01*
X332280Y97899D01*
X332241Y97959D01*
X332176Y98017D01*
X332119Y98083D01*
X332060Y98123D01*
X332007Y98170D01*
X331930Y98211D01*
X331858Y98260D01*
X331791Y98284D01*
X331728Y98317D01*
X331668Y98328D01*
X331561Y98366D01*
X331347Y98385D01*
X331292Y98395D01*
X15285Y98395D01*
X15262Y98392D01*
X15240Y98394D01*
X15185Y98382D01*
X14972Y98355D01*
X14866Y98313D01*
X14807Y98300D01*
X13907Y97927D01*
X11093Y97927D01*
X8494Y99004D01*
X6504Y100994D01*
X5427Y103593D01*
X5427Y106407D01*
X6504Y109006D01*
X8494Y110996D01*
X11093Y112073D01*
X13907Y112073D01*
X14807Y111700D01*
X14829Y111694D01*
X14850Y111683D01*
X14905Y111673D01*
X15112Y111617D01*
X15226Y111615D01*
X15285Y111605D01*
X340507Y111605D01*
X340616Y111619D01*
X340726Y111624D01*
X340772Y111638D01*
X340820Y111645D01*
X340922Y111685D01*
X341027Y111718D01*
X341058Y111740D01*
X341113Y111762D01*
X341367Y111948D01*
X341379Y111963D01*
X341390Y111971D01*
X368790Y139370D01*
X368833Y139426D01*
X368884Y139476D01*
X368929Y139551D01*
X368983Y139620D01*
X369011Y139685D01*
X369048Y139746D01*
X369073Y139829D01*
X369107Y139910D01*
X369118Y139980D01*
X369139Y140048D01*
X369142Y140135D01*
X369155Y140221D01*
X369148Y140292D01*
X369151Y140363D01*
X369132Y140448D01*
X369123Y140535D01*
X369099Y140602D01*
X369084Y140672D01*
X369044Y140749D01*
X369014Y140831D01*
X368973Y140890D01*
X368941Y140953D01*
X368884Y141019D01*
X368834Y141090D01*
X368780Y141137D01*
X368733Y141190D01*
X368661Y141239D01*
X368595Y141296D01*
X368531Y141327D01*
X368472Y141367D01*
X368390Y141397D01*
X368312Y141435D01*
X368242Y141450D01*
X368175Y141474D01*
X368088Y141481D01*
X368003Y141499D01*
X367931Y141495D01*
X367861Y141502D01*
X367802Y141489D01*
X367687Y141483D01*
X367483Y141420D01*
X367428Y141408D01*
X364627Y140247D01*
X361813Y140247D01*
X359214Y141324D01*
X357224Y143314D01*
X356147Y145913D01*
X356147Y148727D01*
X357224Y151326D01*
X359043Y153146D01*
X359111Y153233D01*
X359184Y153314D01*
X359207Y153357D01*
X359236Y153395D01*
X359280Y153496D01*
X359331Y153594D01*
X359338Y153631D01*
X359361Y153685D01*
X359409Y153997D01*
X359407Y154016D01*
X359409Y154029D01*
X359409Y245201D01*
X359391Y245341D01*
X359377Y245482D01*
X359371Y245498D01*
X359369Y245514D01*
X359317Y245645D01*
X359268Y245778D01*
X359258Y245792D01*
X359252Y245807D01*
X359169Y245921D01*
X359088Y246037D01*
X359075Y246048D01*
X359066Y246061D01*
X358956Y246151D01*
X358848Y246243D01*
X358834Y246250D01*
X358821Y246261D01*
X358692Y246320D01*
X358565Y246382D01*
X358549Y246386D01*
X358535Y246392D01*
X358395Y246418D01*
X358256Y246446D01*
X358240Y246445D01*
X358224Y246448D01*
X358083Y246438D01*
X357941Y246431D01*
X357926Y246426D01*
X357910Y246425D01*
X357775Y246379D01*
X357640Y246337D01*
X357629Y246329D01*
X357611Y246323D01*
X357347Y246150D01*
X357307Y246105D01*
X357277Y246084D01*
X355604Y244412D01*
X352098Y242959D01*
X334302Y242959D01*
X330796Y244412D01*
X328112Y247096D01*
X326659Y250602D01*
X326659Y254398D01*
X328112Y257904D01*
X330796Y260588D01*
X334302Y262041D01*
X352098Y262041D01*
X355604Y260588D01*
X357277Y258916D01*
X357389Y258829D01*
X357499Y258739D01*
X357513Y258733D01*
X357526Y258723D01*
X357656Y258667D01*
X357785Y258608D01*
X357801Y258605D01*
X357816Y258598D01*
X357957Y258577D01*
X358096Y258552D01*
X358112Y258553D01*
X358128Y258550D01*
X358269Y258565D01*
X358410Y258575D01*
X358426Y258581D01*
X358442Y258582D01*
X358574Y258631D01*
X358709Y258677D01*
X358723Y258686D01*
X358738Y258692D01*
X358853Y258772D01*
X358973Y258850D01*
X358984Y258863D01*
X358997Y258872D01*
X359089Y258978D01*
X359184Y259084D01*
X359192Y259099D01*
X359202Y259111D01*
X359265Y259238D01*
X359331Y259364D01*
X359333Y259377D01*
X359342Y259394D01*
X359406Y259703D01*
X359403Y259762D01*
X359409Y259799D01*
X359409Y278438D01*
X371743Y290773D01*
X371811Y290859D01*
X371884Y290941D01*
X371907Y290984D01*
X371937Y291022D01*
X371980Y291123D01*
X372031Y291220D01*
X372038Y291257D01*
X372061Y291312D01*
X372109Y291624D01*
X372107Y291643D01*
X372109Y291656D01*
X372109Y296418D01*
X372100Y296489D01*
X372101Y296560D01*
X372080Y296645D01*
X372069Y296731D01*
X372043Y296797D01*
X372026Y296867D01*
X371985Y296943D01*
X371952Y297024D01*
X371910Y297082D01*
X371877Y297144D01*
X371817Y297208D01*
X371766Y297279D01*
X371711Y297324D01*
X371662Y297376D01*
X371589Y297423D01*
X371521Y297478D01*
X371457Y297508D01*
X371397Y297546D01*
X371314Y297574D01*
X371235Y297610D01*
X371165Y297623D01*
X371097Y297645D01*
X371010Y297650D01*
X370924Y297666D01*
X370853Y297661D01*
X370782Y297665D01*
X370697Y297649D01*
X370610Y297642D01*
X370542Y297619D01*
X370472Y297606D01*
X370394Y297569D01*
X370311Y297540D01*
X370251Y297501D01*
X370187Y297471D01*
X370120Y297415D01*
X370047Y297367D01*
X370000Y297314D01*
X369945Y297269D01*
X369912Y297218D01*
X369836Y297133D01*
X369736Y296944D01*
X369706Y296896D01*
X369216Y295714D01*
X367226Y293724D01*
X364627Y292647D01*
X361813Y292647D01*
X359214Y293724D01*
X357224Y295714D01*
X356147Y298313D01*
X356147Y300886D01*
X356133Y300995D01*
X356128Y301105D01*
X356114Y301151D01*
X356107Y301199D01*
X356067Y301301D01*
X356034Y301406D01*
X356012Y301437D01*
X355990Y301492D01*
X355804Y301746D01*
X355789Y301759D01*
X355781Y301769D01*
X334009Y323542D01*
X334009Y373824D01*
X333995Y373933D01*
X333990Y374043D01*
X333976Y374089D01*
X333969Y374137D01*
X333929Y374239D01*
X333896Y374344D01*
X333874Y374375D01*
X333852Y374430D01*
X333666Y374684D01*
X333651Y374697D01*
X333643Y374707D01*
X285749Y422602D01*
X285749Y496211D01*
X285735Y496320D01*
X285730Y496430D01*
X285716Y496476D01*
X285709Y496524D01*
X285669Y496626D01*
X285636Y496731D01*
X285614Y496762D01*
X285592Y496817D01*
X285406Y497071D01*
X285391Y497083D01*
X285383Y497094D01*
X283564Y498914D01*
X282487Y501513D01*
X282487Y504327D01*
X283564Y506926D01*
X285554Y508916D01*
X288153Y509993D01*
X290967Y509993D01*
X293566Y508916D01*
X295556Y506926D01*
X296633Y504327D01*
X296633Y501513D01*
X295556Y498914D01*
X293737Y497094D01*
X293669Y497007D01*
X293596Y496926D01*
X293573Y496883D01*
X293543Y496845D01*
X293500Y496744D01*
X293449Y496646D01*
X293442Y496609D01*
X293419Y496555D01*
X293371Y496243D01*
X293373Y496224D01*
X293371Y496211D01*
X293371Y426276D01*
X293385Y426167D01*
X293390Y426057D01*
X293404Y426011D01*
X293411Y425963D01*
X293451Y425861D01*
X293484Y425756D01*
X293506Y425725D01*
X293528Y425670D01*
X293714Y425416D01*
X293729Y425403D01*
X293737Y425393D01*
X341631Y377498D01*
X341631Y327216D01*
X341645Y327107D01*
X341650Y326997D01*
X341664Y326951D01*
X341671Y326903D01*
X341711Y326801D01*
X341744Y326696D01*
X341766Y326665D01*
X341788Y326610D01*
X341974Y326356D01*
X341989Y326343D01*
X341997Y326333D01*
X361171Y307159D01*
X361257Y307091D01*
X361339Y307018D01*
X361382Y306995D01*
X361420Y306965D01*
X361521Y306922D01*
X361618Y306871D01*
X361655Y306864D01*
X361710Y306841D01*
X362022Y306793D01*
X362041Y306795D01*
X362054Y306793D01*
X364627Y306793D01*
X367226Y305716D01*
X369216Y303726D01*
X369706Y302544D01*
X369741Y302482D01*
X369768Y302416D01*
X369819Y302345D01*
X369862Y302270D01*
X369912Y302219D01*
X369954Y302161D01*
X370022Y302106D01*
X370083Y302044D01*
X370144Y302007D01*
X370199Y301962D01*
X370278Y301925D01*
X370352Y301880D01*
X370421Y301860D01*
X370485Y301830D01*
X370571Y301815D01*
X370655Y301789D01*
X370726Y301787D01*
X370796Y301774D01*
X370883Y301781D01*
X370970Y301777D01*
X371039Y301792D01*
X371110Y301798D01*
X371193Y301826D01*
X371278Y301844D01*
X371342Y301877D01*
X371409Y301900D01*
X371482Y301948D01*
X371560Y301987D01*
X371613Y302034D01*
X371673Y302073D01*
X371731Y302138D01*
X371797Y302195D01*
X371837Y302254D01*
X371884Y302307D01*
X371925Y302384D01*
X371974Y302456D01*
X371998Y302523D01*
X372031Y302586D01*
X372042Y302645D01*
X372080Y302753D01*
X372099Y302966D01*
X372109Y303022D01*
X372109Y313331D01*
X372095Y313440D01*
X372090Y313550D01*
X372076Y313596D01*
X372069Y313644D01*
X372029Y313746D01*
X371996Y313851D01*
X371974Y313882D01*
X371952Y313937D01*
X371766Y314191D01*
X371751Y314203D01*
X371743Y314214D01*
X369924Y316034D01*
X368847Y318633D01*
X368847Y321447D01*
X369924Y324046D01*
X371914Y326036D01*
X374513Y327113D01*
X377327Y327113D01*
X379926Y326036D01*
X380645Y325318D01*
X380757Y325231D01*
X380867Y325141D01*
X380881Y325134D01*
X380894Y325125D01*
X381024Y325069D01*
X381153Y325009D01*
X381169Y325006D01*
X381184Y325000D01*
X381325Y324978D01*
X381464Y324953D01*
X381480Y324955D01*
X381496Y324952D01*
X381637Y324966D01*
X381778Y324977D01*
X381794Y324982D01*
X381810Y324984D01*
X381942Y325033D01*
X382077Y325079D01*
X382091Y325088D01*
X382106Y325093D01*
X382222Y325174D01*
X382341Y325252D01*
X382352Y325264D01*
X382365Y325273D01*
X382457Y325381D01*
X382552Y325486D01*
X382560Y325500D01*
X382570Y325513D01*
X382633Y325640D01*
X382699Y325766D01*
X382701Y325779D01*
X382710Y325796D01*
X382774Y326105D01*
X382771Y326164D01*
X382777Y326201D01*
X382777Y544958D01*
X382763Y545067D01*
X382758Y545177D01*
X382744Y545223D01*
X382737Y545271D01*
X382697Y545374D01*
X382664Y545478D01*
X382642Y545509D01*
X382620Y545564D01*
X382434Y545819D01*
X382419Y545831D01*
X382411Y545842D01*
X331977Y596276D01*
X331977Y672233D01*
X331963Y672342D01*
X331958Y672452D01*
X331944Y672498D01*
X331937Y672546D01*
X331897Y672648D01*
X331864Y672753D01*
X331842Y672784D01*
X331820Y672839D01*
X331634Y673093D01*
X331619Y673105D01*
X331611Y673116D01*
X330554Y674174D01*
X329477Y676773D01*
X329477Y679587D01*
X330554Y682186D01*
X332544Y684176D01*
X335143Y685253D01*
X337957Y685253D01*
X340556Y684176D01*
X342546Y682186D01*
X343623Y679587D01*
X343623Y676773D01*
X342546Y674174D01*
X341489Y673116D01*
X341421Y673029D01*
X341348Y672948D01*
X341325Y672905D01*
X341295Y672867D01*
X341252Y672766D01*
X341201Y672668D01*
X341194Y672631D01*
X341171Y672577D01*
X341123Y672265D01*
X341125Y672246D01*
X341123Y672233D01*
X341123Y600582D01*
X341137Y600473D01*
X341142Y600363D01*
X341156Y600317D01*
X341163Y600269D01*
X341203Y600166D01*
X341236Y600062D01*
X341258Y600031D01*
X341280Y599976D01*
X341466Y599721D01*
X341481Y599709D01*
X341489Y599698D01*
X391923Y549264D01*
X391923Y327294D01*
X391939Y327169D01*
X391948Y327044D01*
X391959Y327013D01*
X391963Y326981D01*
X392009Y326864D01*
X392050Y326745D01*
X392068Y326718D01*
X392080Y326688D01*
X392154Y326587D01*
X392223Y326481D01*
X392247Y326460D01*
X392266Y326434D01*
X392364Y326354D01*
X392457Y326270D01*
X392486Y326255D01*
X392511Y326234D01*
X392625Y326181D01*
X392736Y326123D01*
X392762Y326119D01*
X392797Y326102D01*
X393108Y326046D01*
X393147Y326049D01*
X393172Y326045D01*
X403715Y326045D01*
X403738Y326048D01*
X403761Y326046D01*
X403815Y326058D01*
X404028Y326085D01*
X404134Y326127D01*
X404193Y326140D01*
X405093Y326513D01*
X407907Y326513D01*
X408807Y326140D01*
X408829Y326134D01*
X408850Y326123D01*
X408905Y326113D01*
X409112Y326057D01*
X409226Y326055D01*
X409285Y326045D01*
X418715Y326045D01*
X418738Y326048D01*
X418761Y326046D01*
X418815Y326058D01*
X419028Y326085D01*
X419134Y326127D01*
X419193Y326140D01*
X420093Y326513D01*
X422907Y326513D01*
X423807Y326140D01*
X423829Y326134D01*
X423850Y326123D01*
X423905Y326113D01*
X424112Y326057D01*
X424226Y326055D01*
X424285Y326045D01*
X433715Y326045D01*
X433738Y326048D01*
X433761Y326046D01*
X433815Y326058D01*
X434028Y326085D01*
X434134Y326127D01*
X434193Y326140D01*
X435093Y326513D01*
X437907Y326513D01*
X440506Y325436D01*
X442496Y323446D01*
X443573Y320847D01*
X443573Y318033D01*
X442496Y315434D01*
X440506Y313444D01*
X437907Y312367D01*
X435093Y312367D01*
X434193Y312740D01*
X434171Y312746D01*
X434150Y312757D01*
X434095Y312767D01*
X433888Y312823D01*
X433774Y312825D01*
X433715Y312835D01*
X424285Y312835D01*
X424262Y312832D01*
X424239Y312834D01*
X424185Y312822D01*
X423972Y312795D01*
X423866Y312753D01*
X423807Y312740D01*
X422907Y312367D01*
X420093Y312367D01*
X419193Y312740D01*
X419171Y312746D01*
X419150Y312757D01*
X419095Y312767D01*
X418888Y312823D01*
X418774Y312825D01*
X418715Y312835D01*
X409285Y312835D01*
X409262Y312832D01*
X409239Y312834D01*
X409185Y312822D01*
X408972Y312795D01*
X408866Y312753D01*
X408807Y312740D01*
X407907Y312367D01*
X405093Y312367D01*
X404193Y312740D01*
X404171Y312746D01*
X404150Y312757D01*
X404095Y312767D01*
X403888Y312823D01*
X403774Y312825D01*
X403715Y312835D01*
X396854Y312835D01*
X396729Y312819D01*
X396604Y312810D01*
X396573Y312799D01*
X396541Y312795D01*
X396424Y312749D01*
X396305Y312708D01*
X396278Y312690D01*
X396248Y312678D01*
X396147Y312604D01*
X396041Y312535D01*
X396020Y312511D01*
X395994Y312492D01*
X395914Y312394D01*
X395830Y312301D01*
X395815Y312272D01*
X395794Y312247D01*
X395741Y312133D01*
X395683Y312022D01*
X395679Y311996D01*
X395662Y311961D01*
X395606Y311650D01*
X395609Y311611D01*
X395605Y311586D01*
X395605Y281006D01*
X394599Y278579D01*
X384161Y268140D01*
X384093Y268053D01*
X384020Y267972D01*
X383997Y267929D01*
X383967Y267891D01*
X383924Y267790D01*
X383873Y267692D01*
X383866Y267655D01*
X383843Y267601D01*
X383795Y267289D01*
X383797Y267270D01*
X383795Y267257D01*
X383795Y137116D01*
X382789Y134689D01*
X380756Y132655D01*
X349535Y101434D01*
X347486Y99386D01*
X347478Y99382D01*
X347408Y99331D01*
X347332Y99288D01*
X347281Y99238D01*
X347224Y99196D01*
X347169Y99128D01*
X347106Y99068D01*
X347069Y99007D01*
X347024Y98951D01*
X346988Y98872D01*
X346943Y98798D01*
X346922Y98730D01*
X346892Y98665D01*
X346877Y98579D01*
X346852Y98496D01*
X346849Y98424D01*
X346836Y98354D01*
X346843Y98267D01*
X346840Y98180D01*
X346855Y98111D01*
X346860Y98040D01*
X346888Y97957D01*
X346907Y97872D01*
X346939Y97809D01*
X346962Y97741D01*
X347010Y97668D01*
X347049Y97591D01*
X347096Y97537D01*
X347135Y97477D01*
X347200Y97419D01*
X347257Y97354D01*
X347316Y97314D01*
X347369Y97266D01*
X347446Y97225D01*
X347518Y97176D01*
X347585Y97152D01*
X347648Y97119D01*
X347708Y97108D01*
X347815Y97070D01*
X348029Y97051D01*
X348084Y97041D01*
X352098Y97041D01*
X355604Y95588D01*
X358288Y92904D01*
X359741Y89398D01*
X359741Y85602D01*
X358288Y82096D01*
X355604Y79412D01*
X352098Y77959D01*
X334302Y77959D01*
G37*
%LPD*%
%LPC*%
G36*
X68232Y444109D02*
X68232Y444109D01*
X64964Y445463D01*
X56463Y453964D01*
X55109Y457232D01*
X55109Y600828D01*
X56463Y604096D01*
X104904Y652537D01*
X108172Y653891D01*
X218768Y653891D01*
X222036Y652537D01*
X224537Y650036D01*
X225891Y646768D01*
X225891Y643232D01*
X224537Y639964D01*
X222036Y637463D01*
X218768Y636109D01*
X114140Y636109D01*
X114031Y636095D01*
X113921Y636090D01*
X113875Y636076D01*
X113827Y636069D01*
X113725Y636029D01*
X113620Y635996D01*
X113589Y635974D01*
X113534Y635952D01*
X113280Y635766D01*
X113268Y635751D01*
X113257Y635743D01*
X73257Y595743D01*
X73189Y595656D01*
X73116Y595575D01*
X73093Y595532D01*
X73063Y595494D01*
X73020Y595393D01*
X72969Y595295D01*
X72962Y595258D01*
X72939Y595204D01*
X72891Y594892D01*
X72893Y594873D01*
X72891Y594860D01*
X72891Y463200D01*
X72905Y463091D01*
X72910Y462981D01*
X72924Y462935D01*
X72931Y462887D01*
X72971Y462785D01*
X73004Y462680D01*
X73026Y462649D01*
X73048Y462594D01*
X73234Y462340D01*
X73249Y462328D01*
X73257Y462317D01*
X73317Y462257D01*
X73404Y462189D01*
X73485Y462116D01*
X73528Y462093D01*
X73566Y462063D01*
X73667Y462020D01*
X73765Y461969D01*
X73802Y461962D01*
X73856Y461939D01*
X74168Y461891D01*
X74187Y461893D01*
X74200Y461891D01*
X109768Y461891D01*
X113036Y460537D01*
X115537Y458036D01*
X116891Y454768D01*
X116891Y451232D01*
X115537Y447964D01*
X113036Y445463D01*
X109768Y444109D01*
X68232Y444109D01*
G37*
%LPD*%
%LPC*%
G36*
X302482Y506859D02*
X302482Y506859D01*
X299214Y508213D01*
X277397Y530030D01*
X276043Y533298D01*
X276043Y636608D01*
X277397Y639876D01*
X279898Y642377D01*
X283166Y643731D01*
X286702Y643731D01*
X289970Y642377D01*
X292471Y639876D01*
X293825Y636608D01*
X293825Y539266D01*
X293839Y539157D01*
X293844Y539047D01*
X293858Y539001D01*
X293865Y538953D01*
X293905Y538851D01*
X293938Y538746D01*
X293960Y538715D01*
X293982Y538660D01*
X294168Y538406D01*
X294183Y538394D01*
X294191Y538383D01*
X307567Y525007D01*
X307654Y524939D01*
X307735Y524866D01*
X307778Y524843D01*
X307816Y524813D01*
X307917Y524770D01*
X308015Y524719D01*
X308052Y524712D01*
X308106Y524689D01*
X308418Y524641D01*
X308437Y524643D01*
X308450Y524641D01*
X346518Y524641D01*
X349786Y523287D01*
X352287Y520786D01*
X353641Y517518D01*
X353641Y513982D01*
X352287Y510714D01*
X349786Y508213D01*
X346518Y506859D01*
X302482Y506859D01*
G37*
%LPD*%
%LPC*%
G36*
X214593Y381927D02*
X214593Y381927D01*
X211994Y383004D01*
X210004Y384994D01*
X208927Y387593D01*
X208927Y390407D01*
X210004Y393006D01*
X211994Y394996D01*
X214593Y396073D01*
X217407Y396073D01*
X220006Y394996D01*
X221826Y393177D01*
X221913Y393109D01*
X221994Y393036D01*
X222037Y393013D01*
X222075Y392983D01*
X222176Y392940D01*
X222274Y392889D01*
X222311Y392882D01*
X222365Y392859D01*
X222677Y392811D01*
X222696Y392813D01*
X222709Y392811D01*
X260904Y392811D01*
X261013Y392825D01*
X261123Y392830D01*
X261169Y392844D01*
X261217Y392851D01*
X261319Y392891D01*
X261424Y392924D01*
X261455Y392946D01*
X261510Y392968D01*
X261764Y393154D01*
X261777Y393169D01*
X261787Y393177D01*
X264823Y396213D01*
X264891Y396299D01*
X264964Y396381D01*
X264987Y396424D01*
X265017Y396462D01*
X265060Y396563D01*
X265111Y396660D01*
X265118Y396697D01*
X265141Y396752D01*
X265189Y397064D01*
X265187Y397083D01*
X265189Y397096D01*
X265189Y583904D01*
X265175Y584013D01*
X265170Y584123D01*
X265156Y584169D01*
X265149Y584217D01*
X265109Y584319D01*
X265076Y584424D01*
X265054Y584455D01*
X265032Y584510D01*
X264846Y584764D01*
X264831Y584777D01*
X264823Y584787D01*
X261787Y587823D01*
X261701Y587891D01*
X261619Y587964D01*
X261576Y587987D01*
X261538Y588017D01*
X261437Y588060D01*
X261340Y588111D01*
X261303Y588118D01*
X261248Y588141D01*
X260936Y588189D01*
X260917Y588187D01*
X260904Y588189D01*
X219422Y588189D01*
X202189Y605422D01*
X202189Y614291D01*
X202175Y614400D01*
X202170Y614510D01*
X202156Y614556D01*
X202149Y614604D01*
X202109Y614706D01*
X202076Y614811D01*
X202054Y614842D01*
X202032Y614897D01*
X201846Y615151D01*
X201831Y615163D01*
X201823Y615174D01*
X200004Y616994D01*
X198927Y619593D01*
X198927Y622407D01*
X200004Y625006D01*
X201994Y626996D01*
X204593Y628073D01*
X207407Y628073D01*
X210006Y626996D01*
X211996Y625006D01*
X213073Y622407D01*
X213073Y619593D01*
X211996Y616994D01*
X210177Y615174D01*
X210109Y615087D01*
X210036Y615006D01*
X210013Y614963D01*
X209984Y614925D01*
X209940Y614824D01*
X209889Y614726D01*
X209882Y614689D01*
X209859Y614635D01*
X209811Y614323D01*
X209813Y614304D01*
X209811Y614291D01*
X209811Y609096D01*
X209825Y608987D01*
X209830Y608877D01*
X209844Y608831D01*
X209851Y608783D01*
X209891Y608681D01*
X209924Y608576D01*
X209946Y608545D01*
X209968Y608490D01*
X210154Y608236D01*
X210169Y608223D01*
X210177Y608213D01*
X222213Y596177D01*
X222299Y596109D01*
X222381Y596036D01*
X222424Y596013D01*
X222462Y595983D01*
X222563Y595940D01*
X222660Y595889D01*
X222697Y595882D01*
X222752Y595859D01*
X223064Y595811D01*
X223083Y595813D01*
X223096Y595811D01*
X264578Y595811D01*
X272811Y587578D01*
X272811Y393422D01*
X264578Y385189D01*
X222709Y385189D01*
X222600Y385175D01*
X222490Y385170D01*
X222444Y385156D01*
X222396Y385149D01*
X222294Y385109D01*
X222189Y385076D01*
X222158Y385054D01*
X222103Y385032D01*
X221849Y384846D01*
X221837Y384831D01*
X221826Y384823D01*
X220006Y383004D01*
X217407Y381927D01*
X214593Y381927D01*
G37*
%LPD*%
%LPC*%
G36*
X13422Y376189D02*
X13422Y376189D01*
X8689Y380922D01*
X8689Y578578D01*
X22422Y592311D01*
X30791Y592311D01*
X30900Y592325D01*
X31010Y592330D01*
X31056Y592344D01*
X31104Y592351D01*
X31206Y592391D01*
X31311Y592424D01*
X31342Y592446D01*
X31397Y592468D01*
X31651Y592654D01*
X31663Y592669D01*
X31674Y592677D01*
X33494Y594496D01*
X36093Y595573D01*
X38907Y595573D01*
X41506Y594496D01*
X43496Y592506D01*
X44573Y589907D01*
X44573Y587093D01*
X43496Y584494D01*
X41506Y582504D01*
X38907Y581427D01*
X36093Y581427D01*
X33494Y582504D01*
X31674Y584323D01*
X31587Y584391D01*
X31506Y584464D01*
X31463Y584487D01*
X31425Y584517D01*
X31324Y584560D01*
X31226Y584611D01*
X31189Y584618D01*
X31135Y584641D01*
X30823Y584689D01*
X30804Y584687D01*
X30791Y584689D01*
X26096Y584689D01*
X25987Y584675D01*
X25877Y584670D01*
X25831Y584656D01*
X25783Y584649D01*
X25681Y584609D01*
X25576Y584576D01*
X25545Y584554D01*
X25490Y584532D01*
X25236Y584346D01*
X25223Y584331D01*
X25213Y584323D01*
X16677Y575787D01*
X16609Y575701D01*
X16536Y575619D01*
X16513Y575576D01*
X16483Y575538D01*
X16440Y575437D01*
X16389Y575340D01*
X16382Y575303D01*
X16359Y575248D01*
X16311Y574936D01*
X16313Y574917D01*
X16311Y574904D01*
X16311Y385060D01*
X16327Y384935D01*
X16336Y384810D01*
X16347Y384779D01*
X16351Y384747D01*
X16397Y384630D01*
X16438Y384511D01*
X16456Y384484D01*
X16468Y384454D01*
X16542Y384353D01*
X16611Y384247D01*
X16635Y384226D01*
X16654Y384200D01*
X16752Y384120D01*
X16845Y384036D01*
X16874Y384021D01*
X16899Y384000D01*
X17013Y383947D01*
X17124Y383889D01*
X17150Y383885D01*
X17185Y383868D01*
X17496Y383812D01*
X17535Y383815D01*
X17560Y383811D01*
X59904Y383811D01*
X60013Y383825D01*
X60123Y383830D01*
X60169Y383844D01*
X60217Y383851D01*
X60319Y383891D01*
X60424Y383924D01*
X60455Y383946D01*
X60510Y383968D01*
X60764Y384154D01*
X60777Y384169D01*
X60787Y384177D01*
X62823Y386213D01*
X62891Y386299D01*
X62964Y386381D01*
X62987Y386424D01*
X63017Y386462D01*
X63060Y386563D01*
X63111Y386660D01*
X63118Y386697D01*
X63141Y386752D01*
X63189Y387064D01*
X63187Y387083D01*
X63189Y387096D01*
X63189Y403291D01*
X63175Y403400D01*
X63170Y403510D01*
X63156Y403556D01*
X63149Y403604D01*
X63109Y403706D01*
X63076Y403811D01*
X63054Y403842D01*
X63032Y403897D01*
X62846Y404151D01*
X62831Y404163D01*
X62823Y404174D01*
X61004Y405994D01*
X59927Y408593D01*
X59927Y411407D01*
X61004Y414006D01*
X62994Y415996D01*
X65593Y417073D01*
X68407Y417073D01*
X71006Y415996D01*
X72996Y414006D01*
X74073Y411407D01*
X74073Y408593D01*
X72996Y405994D01*
X71177Y404174D01*
X71109Y404087D01*
X71036Y404006D01*
X71013Y403963D01*
X70983Y403925D01*
X70940Y403824D01*
X70889Y403726D01*
X70882Y403689D01*
X70859Y403635D01*
X70811Y403323D01*
X70813Y403304D01*
X70811Y403291D01*
X70811Y383422D01*
X63578Y376189D01*
X13422Y376189D01*
G37*
%LPD*%
%LPC*%
G36*
X345093Y420927D02*
X345093Y420927D01*
X342494Y422004D01*
X340504Y423994D01*
X339427Y426593D01*
X339427Y429407D01*
X340504Y432006D01*
X342494Y433996D01*
X345093Y435073D01*
X347907Y435073D01*
X350506Y433996D01*
X350548Y433955D01*
X350635Y433887D01*
X350716Y433814D01*
X350759Y433791D01*
X350797Y433761D01*
X350898Y433718D01*
X350996Y433667D01*
X351033Y433660D01*
X351087Y433637D01*
X351399Y433589D01*
X351418Y433591D01*
X351431Y433589D01*
X361668Y433589D01*
X361777Y433603D01*
X361886Y433608D01*
X361933Y433622D01*
X361981Y433629D01*
X362083Y433669D01*
X362188Y433702D01*
X362218Y433724D01*
X362274Y433746D01*
X362528Y433932D01*
X362540Y433947D01*
X362551Y433955D01*
X363045Y434449D01*
X363113Y434536D01*
X363186Y434617D01*
X363209Y434660D01*
X363239Y434699D01*
X363282Y434800D01*
X363333Y434897D01*
X363340Y434934D01*
X363363Y434988D01*
X363411Y435300D01*
X363409Y435319D01*
X363411Y435332D01*
X363411Y477168D01*
X363397Y477277D01*
X363392Y477386D01*
X363378Y477433D01*
X363371Y477481D01*
X363331Y477583D01*
X363298Y477688D01*
X363276Y477718D01*
X363254Y477774D01*
X363068Y478028D01*
X363053Y478040D01*
X363045Y478051D01*
X362551Y478545D01*
X362464Y478613D01*
X362383Y478686D01*
X362340Y478709D01*
X362301Y478739D01*
X362200Y478782D01*
X362103Y478833D01*
X362066Y478840D01*
X362012Y478863D01*
X361700Y478911D01*
X361681Y478909D01*
X361668Y478911D01*
X346431Y478911D01*
X346322Y478897D01*
X346212Y478892D01*
X346166Y478878D01*
X346118Y478871D01*
X346016Y478831D01*
X345911Y478798D01*
X345880Y478776D01*
X345825Y478754D01*
X345571Y478568D01*
X345559Y478553D01*
X345548Y478545D01*
X345506Y478504D01*
X342907Y477427D01*
X340093Y477427D01*
X337494Y478504D01*
X335504Y480494D01*
X334427Y483093D01*
X334427Y485907D01*
X335504Y488506D01*
X337054Y490057D01*
X337141Y490169D01*
X337231Y490279D01*
X337238Y490293D01*
X337247Y490306D01*
X337303Y490436D01*
X337363Y490565D01*
X337366Y490581D01*
X337372Y490596D01*
X337393Y490737D01*
X337419Y490876D01*
X337417Y490892D01*
X337420Y490908D01*
X337405Y491049D01*
X337395Y491190D01*
X337390Y491206D01*
X337388Y491222D01*
X337339Y491354D01*
X337293Y491489D01*
X337284Y491503D01*
X337279Y491518D01*
X337198Y491633D01*
X337120Y491753D01*
X337108Y491764D01*
X337099Y491777D01*
X336992Y491869D01*
X336886Y491964D01*
X336872Y491972D01*
X336859Y491982D01*
X336732Y492045D01*
X336606Y492111D01*
X336593Y492113D01*
X336576Y492122D01*
X336267Y492186D01*
X336208Y492183D01*
X336171Y492189D01*
X312154Y492189D01*
X312116Y492184D01*
X312077Y492187D01*
X311960Y492164D01*
X311841Y492149D01*
X311805Y492135D01*
X311767Y492128D01*
X311659Y492077D01*
X311548Y492032D01*
X311517Y492009D01*
X311482Y491993D01*
X311390Y491916D01*
X311294Y491846D01*
X311269Y491816D01*
X311239Y491790D01*
X311204Y491735D01*
X311095Y491601D01*
X311035Y491473D01*
X311000Y491418D01*
X309996Y488994D01*
X308006Y487004D01*
X305407Y485927D01*
X302593Y485927D01*
X299994Y487004D01*
X298004Y488994D01*
X296927Y491593D01*
X296927Y494407D01*
X298004Y497006D01*
X299994Y498996D01*
X302593Y500073D01*
X305407Y500073D01*
X305810Y499906D01*
X305832Y499900D01*
X305852Y499889D01*
X305908Y499879D01*
X306114Y499823D01*
X306229Y499821D01*
X306288Y499811D01*
X348291Y499811D01*
X348400Y499825D01*
X348510Y499830D01*
X348556Y499844D01*
X348604Y499851D01*
X348706Y499891D01*
X348811Y499924D01*
X348842Y499946D01*
X348897Y499968D01*
X349151Y500154D01*
X349163Y500169D01*
X349174Y500177D01*
X350994Y501996D01*
X353593Y503073D01*
X356407Y503073D01*
X359006Y501996D01*
X360996Y500006D01*
X362073Y497407D01*
X362073Y494593D01*
X360922Y491816D01*
X360908Y491763D01*
X360885Y491713D01*
X360867Y491611D01*
X360839Y491512D01*
X360839Y491456D01*
X360829Y491402D01*
X360837Y491299D01*
X360835Y491196D01*
X360849Y491143D01*
X360853Y491088D01*
X360886Y490990D01*
X360911Y490890D01*
X360937Y490841D01*
X360954Y490789D01*
X361011Y490703D01*
X361060Y490612D01*
X361097Y490571D01*
X361128Y490525D01*
X361204Y490456D01*
X361274Y490380D01*
X361321Y490351D01*
X361362Y490314D01*
X361453Y490266D01*
X361540Y490210D01*
X361592Y490193D01*
X361641Y490167D01*
X361705Y490156D01*
X361840Y490111D01*
X362012Y490100D01*
X362077Y490089D01*
X365612Y490089D01*
X367666Y489238D01*
X373738Y483166D01*
X374589Y481112D01*
X374589Y431388D01*
X373738Y429334D01*
X367666Y423262D01*
X365612Y422411D01*
X351431Y422411D01*
X351322Y422397D01*
X351212Y422392D01*
X351166Y422378D01*
X351118Y422371D01*
X351016Y422331D01*
X350911Y422298D01*
X350880Y422276D01*
X350825Y422254D01*
X350571Y422068D01*
X350559Y422053D01*
X350548Y422045D01*
X350506Y422004D01*
X347907Y420927D01*
X345093Y420927D01*
G37*
%LPD*%
%LPC*%
G36*
X32430Y117209D02*
X32430Y117209D01*
X26209Y123430D01*
X26209Y182978D01*
X26195Y183087D01*
X26190Y183197D01*
X26176Y183243D01*
X26169Y183291D01*
X26129Y183393D01*
X26096Y183498D01*
X26074Y183529D01*
X26052Y183584D01*
X25866Y183838D01*
X25851Y183851D01*
X25843Y183861D01*
X24428Y185277D01*
X23427Y187693D01*
X23427Y190307D01*
X24428Y192723D01*
X26277Y194572D01*
X28693Y195573D01*
X31307Y195573D01*
X33723Y194572D01*
X35572Y192723D01*
X36573Y190307D01*
X36573Y187693D01*
X35572Y185277D01*
X34157Y183861D01*
X34089Y183775D01*
X34016Y183693D01*
X33993Y183650D01*
X33963Y183612D01*
X33920Y183511D01*
X33869Y183414D01*
X33862Y183377D01*
X33839Y183322D01*
X33791Y183010D01*
X33793Y182991D01*
X33791Y182978D01*
X33791Y127088D01*
X33805Y126979D01*
X33810Y126869D01*
X33824Y126823D01*
X33831Y126775D01*
X33871Y126673D01*
X33904Y126568D01*
X33926Y126537D01*
X33948Y126482D01*
X34134Y126227D01*
X34149Y126215D01*
X34157Y126204D01*
X35204Y125157D01*
X35291Y125089D01*
X35373Y125016D01*
X35416Y124993D01*
X35454Y124963D01*
X35555Y124920D01*
X35652Y124869D01*
X35689Y124862D01*
X35744Y124839D01*
X36056Y124791D01*
X36075Y124793D01*
X36088Y124791D01*
X82898Y124791D01*
X83038Y124809D01*
X83180Y124823D01*
X83195Y124829D01*
X83211Y124831D01*
X83342Y124883D01*
X83476Y124932D01*
X83489Y124942D01*
X83504Y124948D01*
X83618Y125031D01*
X83735Y125112D01*
X83745Y125125D01*
X83758Y125134D01*
X83848Y125244D01*
X83941Y125352D01*
X83948Y125366D01*
X83958Y125379D01*
X84017Y125508D01*
X84080Y125635D01*
X84083Y125651D01*
X84090Y125665D01*
X84115Y125805D01*
X84144Y125944D01*
X84143Y125960D01*
X84146Y125976D01*
X84135Y126117D01*
X84128Y126259D01*
X84123Y126274D01*
X84122Y126290D01*
X84076Y126425D01*
X84034Y126560D01*
X84026Y126571D01*
X84020Y126589D01*
X83847Y126853D01*
X83803Y126893D01*
X83781Y126923D01*
X82428Y128277D01*
X81427Y130693D01*
X81427Y133307D01*
X82428Y135723D01*
X83843Y137139D01*
X83911Y137225D01*
X83984Y137307D01*
X84007Y137350D01*
X84037Y137388D01*
X84080Y137489D01*
X84131Y137586D01*
X84138Y137623D01*
X84161Y137678D01*
X84209Y137990D01*
X84207Y138009D01*
X84209Y138022D01*
X84209Y154978D01*
X84195Y155087D01*
X84190Y155197D01*
X84176Y155243D01*
X84169Y155291D01*
X84129Y155393D01*
X84096Y155498D01*
X84074Y155529D01*
X84052Y155584D01*
X83866Y155838D01*
X83851Y155851D01*
X83843Y155861D01*
X82428Y157277D01*
X81427Y159693D01*
X81427Y162307D01*
X82428Y164723D01*
X84277Y166572D01*
X86693Y167573D01*
X89307Y167573D01*
X91723Y166572D01*
X93572Y164723D01*
X94573Y162307D01*
X94573Y159693D01*
X93572Y157277D01*
X92157Y155861D01*
X92089Y155775D01*
X92016Y155693D01*
X91993Y155650D01*
X91963Y155612D01*
X91920Y155511D01*
X91869Y155414D01*
X91862Y155377D01*
X91839Y155322D01*
X91791Y155010D01*
X91793Y154991D01*
X91791Y154978D01*
X91791Y138022D01*
X91805Y137913D01*
X91810Y137803D01*
X91824Y137757D01*
X91831Y137709D01*
X91871Y137607D01*
X91904Y137502D01*
X91926Y137471D01*
X91948Y137416D01*
X92134Y137162D01*
X92149Y137149D01*
X92157Y137139D01*
X93572Y135723D01*
X94573Y133307D01*
X94573Y130693D01*
X93572Y128277D01*
X92219Y126923D01*
X92132Y126811D01*
X92042Y126701D01*
X92035Y126687D01*
X92025Y126674D01*
X91970Y126544D01*
X91910Y126415D01*
X91907Y126399D01*
X91901Y126384D01*
X91879Y126243D01*
X91854Y126104D01*
X91856Y126088D01*
X91853Y126072D01*
X91867Y125931D01*
X91878Y125790D01*
X91883Y125774D01*
X91885Y125758D01*
X91934Y125626D01*
X91980Y125491D01*
X91989Y125477D01*
X91994Y125462D01*
X92075Y125347D01*
X92153Y125227D01*
X92165Y125216D01*
X92174Y125203D01*
X92281Y125111D01*
X92387Y125016D01*
X92401Y125008D01*
X92414Y124998D01*
X92541Y124935D01*
X92666Y124869D01*
X92679Y124867D01*
X92697Y124858D01*
X93006Y124794D01*
X93065Y124797D01*
X93102Y124791D01*
X98912Y124791D01*
X99021Y124805D01*
X99131Y124810D01*
X99177Y124824D01*
X99225Y124831D01*
X99327Y124871D01*
X99432Y124904D01*
X99463Y124926D01*
X99518Y124948D01*
X99773Y125134D01*
X99785Y125149D01*
X99796Y125157D01*
X105843Y131204D01*
X105911Y131291D01*
X105984Y131373D01*
X106007Y131416D01*
X106037Y131454D01*
X106080Y131555D01*
X106131Y131652D01*
X106138Y131689D01*
X106161Y131744D01*
X106209Y132056D01*
X106207Y132075D01*
X106209Y132088D01*
X106209Y148978D01*
X106195Y149087D01*
X106190Y149197D01*
X106176Y149243D01*
X106169Y149291D01*
X106129Y149393D01*
X106096Y149498D01*
X106074Y149529D01*
X106052Y149584D01*
X105866Y149838D01*
X105851Y149851D01*
X105843Y149861D01*
X104428Y151277D01*
X103427Y153693D01*
X103427Y156307D01*
X104428Y158723D01*
X106277Y160572D01*
X108693Y161573D01*
X111307Y161573D01*
X113723Y160572D01*
X115572Y158723D01*
X116573Y156307D01*
X116573Y153693D01*
X115572Y151277D01*
X114157Y149861D01*
X114089Y149775D01*
X114016Y149693D01*
X113993Y149650D01*
X113963Y149612D01*
X113920Y149511D01*
X113869Y149414D01*
X113862Y149377D01*
X113839Y149322D01*
X113791Y149010D01*
X113793Y148991D01*
X113791Y148978D01*
X113791Y128430D01*
X102570Y117209D01*
X32430Y117209D01*
G37*
%LPD*%
%LPC*%
G36*
X142484Y375379D02*
X142484Y375379D01*
X139683Y376539D01*
X137539Y378683D01*
X136379Y381484D01*
X136379Y384516D01*
X137539Y387317D01*
X138013Y387791D01*
X138081Y387877D01*
X138154Y387959D01*
X138177Y388002D01*
X138207Y388040D01*
X138250Y388141D01*
X138301Y388239D01*
X138308Y388275D01*
X138331Y388330D01*
X138379Y388642D01*
X138377Y388661D01*
X138379Y388674D01*
X138379Y458016D01*
X138832Y459109D01*
X138838Y459131D01*
X138849Y459152D01*
X138859Y459207D01*
X138915Y459414D01*
X138917Y459528D01*
X138927Y459587D01*
X138927Y461907D01*
X140004Y464506D01*
X141994Y466496D01*
X144593Y467573D01*
X147407Y467573D01*
X150006Y466496D01*
X151996Y464506D01*
X153073Y461907D01*
X153073Y459587D01*
X153076Y459564D01*
X153074Y459542D01*
X153086Y459487D01*
X153113Y459274D01*
X153155Y459168D01*
X153168Y459109D01*
X153621Y458016D01*
X153621Y389838D01*
X153637Y389713D01*
X153646Y389588D01*
X153657Y389557D01*
X153661Y389525D01*
X153707Y389408D01*
X153748Y389289D01*
X153766Y389262D01*
X153778Y389232D01*
X153852Y389131D01*
X153921Y389025D01*
X153945Y389004D01*
X153964Y388978D01*
X154062Y388898D01*
X154155Y388814D01*
X154184Y388799D01*
X154209Y388778D01*
X154323Y388725D01*
X154434Y388667D01*
X154460Y388663D01*
X154495Y388646D01*
X154806Y388590D01*
X154845Y388593D01*
X154870Y388589D01*
X182069Y388589D01*
X182178Y388603D01*
X182288Y388608D01*
X182334Y388622D01*
X182382Y388629D01*
X182484Y388669D01*
X182589Y388702D01*
X182620Y388724D01*
X182675Y388746D01*
X182929Y388932D01*
X182941Y388947D01*
X182952Y388955D01*
X182994Y388996D01*
X185593Y390073D01*
X188407Y390073D01*
X191006Y388996D01*
X192996Y387006D01*
X194073Y384407D01*
X194073Y381593D01*
X192996Y378994D01*
X191006Y377004D01*
X188407Y375927D01*
X185593Y375927D01*
X182994Y377004D01*
X182952Y377045D01*
X182865Y377113D01*
X182784Y377186D01*
X182741Y377209D01*
X182703Y377239D01*
X182602Y377282D01*
X182504Y377333D01*
X182467Y377340D01*
X182413Y377363D01*
X182101Y377411D01*
X182082Y377409D01*
X182069Y377411D01*
X149706Y377411D01*
X149597Y377397D01*
X149487Y377392D01*
X149441Y377378D01*
X149393Y377371D01*
X149291Y377331D01*
X149186Y377298D01*
X149155Y377276D01*
X149100Y377254D01*
X148846Y377068D01*
X148834Y377053D01*
X148823Y377045D01*
X148317Y376539D01*
X145516Y375379D01*
X142484Y375379D01*
G37*
%LPD*%
%LPC*%
G36*
X419842Y797355D02*
X419842Y797355D01*
X419661Y797368D01*
X419598Y797379D01*
X415500Y797379D01*
X411715Y798947D01*
X411541Y798995D01*
X411481Y799018D01*
X411322Y799050D01*
X411188Y799140D01*
X411026Y799220D01*
X410972Y799255D01*
X407186Y800823D01*
X404289Y803720D01*
X404146Y803831D01*
X404100Y803876D01*
X403965Y803965D01*
X403876Y804100D01*
X403757Y804236D01*
X403720Y804289D01*
X400823Y807186D01*
X399255Y810972D01*
X399165Y811129D01*
X399140Y811188D01*
X399050Y811322D01*
X399018Y811481D01*
X398961Y811652D01*
X398947Y811715D01*
X397379Y815500D01*
X397379Y819598D01*
X397356Y819777D01*
X397355Y819842D01*
X397324Y820000D01*
X397355Y820158D01*
X397368Y820339D01*
X397379Y820402D01*
X397379Y824500D01*
X398947Y828285D01*
X398995Y828459D01*
X399018Y828519D01*
X399050Y828678D01*
X399140Y828812D01*
X399172Y828878D01*
X399177Y828883D01*
X399196Y828926D01*
X399220Y828974D01*
X399255Y829028D01*
X400823Y832814D01*
X403720Y835711D01*
X403831Y835854D01*
X403876Y835900D01*
X403965Y836035D01*
X404100Y836124D01*
X404236Y836243D01*
X404289Y836280D01*
X407186Y839177D01*
X410972Y840745D01*
X411129Y840835D01*
X411188Y840860D01*
X411322Y840950D01*
X411481Y840982D01*
X411652Y841039D01*
X411715Y841053D01*
X415500Y842621D01*
X419598Y842621D01*
X419777Y842644D01*
X419842Y842645D01*
X420000Y842676D01*
X420158Y842645D01*
X420339Y842632D01*
X420402Y842621D01*
X424500Y842621D01*
X428285Y841053D01*
X428459Y841005D01*
X428519Y840982D01*
X428678Y840950D01*
X428812Y840860D01*
X428974Y840780D01*
X429028Y840745D01*
X432814Y839177D01*
X435711Y836280D01*
X435854Y836169D01*
X435900Y836124D01*
X436035Y836035D01*
X436124Y835900D01*
X436243Y835764D01*
X436280Y835711D01*
X439177Y832814D01*
X440745Y829028D01*
X440757Y829006D01*
X440761Y828995D01*
X440781Y828965D01*
X440835Y828871D01*
X440860Y828812D01*
X440950Y828678D01*
X440982Y828519D01*
X441039Y828348D01*
X441053Y828285D01*
X442621Y824500D01*
X442621Y820402D01*
X442644Y820223D01*
X442645Y820158D01*
X442676Y820000D01*
X442645Y819842D01*
X442633Y819673D01*
X442622Y819614D01*
X442623Y819609D01*
X442621Y819598D01*
X442621Y815500D01*
X441053Y811715D01*
X441005Y811541D01*
X440982Y811481D01*
X440950Y811322D01*
X440860Y811188D01*
X440780Y811026D01*
X440745Y810972D01*
X439177Y807186D01*
X436280Y804289D01*
X436169Y804146D01*
X436124Y804100D01*
X436035Y803965D01*
X435900Y803876D01*
X435764Y803757D01*
X435711Y803720D01*
X432814Y800823D01*
X429028Y799255D01*
X428871Y799165D01*
X428812Y799140D01*
X428678Y799050D01*
X428519Y799018D01*
X428348Y798961D01*
X428285Y798947D01*
X424500Y797379D01*
X420402Y797379D01*
X420223Y797356D01*
X420158Y797355D01*
X420000Y797324D01*
X419842Y797355D01*
G37*
%LPD*%
%LPC*%
G36*
X29842Y797355D02*
X29842Y797355D01*
X29661Y797368D01*
X29598Y797379D01*
X25500Y797379D01*
X21715Y798947D01*
X21541Y798995D01*
X21481Y799018D01*
X21322Y799050D01*
X21188Y799140D01*
X21026Y799220D01*
X20972Y799255D01*
X17186Y800823D01*
X14289Y803720D01*
X14146Y803831D01*
X14100Y803876D01*
X13965Y803965D01*
X13876Y804100D01*
X13757Y804236D01*
X13720Y804289D01*
X10823Y807186D01*
X9255Y810972D01*
X9165Y811129D01*
X9140Y811188D01*
X9050Y811322D01*
X9018Y811481D01*
X8961Y811652D01*
X8947Y811715D01*
X7379Y815500D01*
X7379Y819598D01*
X7356Y819777D01*
X7355Y819842D01*
X7324Y820000D01*
X7355Y820158D01*
X7368Y820339D01*
X7379Y820402D01*
X7379Y824500D01*
X8947Y828285D01*
X8995Y828459D01*
X9018Y828519D01*
X9050Y828678D01*
X9140Y828812D01*
X9172Y828878D01*
X9177Y828883D01*
X9196Y828926D01*
X9220Y828974D01*
X9255Y829028D01*
X10823Y832814D01*
X13720Y835711D01*
X13831Y835854D01*
X13876Y835900D01*
X13965Y836035D01*
X14100Y836124D01*
X14236Y836243D01*
X14289Y836280D01*
X17186Y839177D01*
X20972Y840745D01*
X21129Y840835D01*
X21188Y840860D01*
X21322Y840950D01*
X21481Y840982D01*
X21652Y841039D01*
X21715Y841053D01*
X25500Y842621D01*
X29598Y842621D01*
X29777Y842644D01*
X29842Y842645D01*
X30000Y842676D01*
X30158Y842645D01*
X30339Y842632D01*
X30402Y842621D01*
X34500Y842621D01*
X38285Y841053D01*
X38459Y841005D01*
X38519Y840982D01*
X38678Y840950D01*
X38812Y840860D01*
X38974Y840780D01*
X39028Y840745D01*
X42814Y839177D01*
X45711Y836280D01*
X45854Y836169D01*
X45900Y836124D01*
X46035Y836035D01*
X46124Y835900D01*
X46243Y835764D01*
X46280Y835711D01*
X49177Y832814D01*
X50745Y829028D01*
X50757Y829006D01*
X50761Y828995D01*
X50781Y828965D01*
X50835Y828871D01*
X50860Y828812D01*
X50950Y828678D01*
X50982Y828519D01*
X51039Y828348D01*
X51053Y828285D01*
X52621Y824500D01*
X52621Y820402D01*
X52644Y820223D01*
X52645Y820158D01*
X52676Y820000D01*
X52645Y819842D01*
X52633Y819673D01*
X52622Y819614D01*
X52623Y819609D01*
X52621Y819598D01*
X52621Y815500D01*
X51053Y811715D01*
X51005Y811541D01*
X50982Y811481D01*
X50950Y811322D01*
X50860Y811188D01*
X50780Y811026D01*
X50745Y810972D01*
X49177Y807186D01*
X46280Y804289D01*
X46169Y804146D01*
X46124Y804100D01*
X46035Y803965D01*
X45900Y803876D01*
X45764Y803757D01*
X45711Y803720D01*
X42814Y800823D01*
X39028Y799255D01*
X38871Y799165D01*
X38812Y799140D01*
X38678Y799050D01*
X38519Y799018D01*
X38348Y798961D01*
X38285Y798947D01*
X34500Y797379D01*
X30402Y797379D01*
X30223Y797356D01*
X30158Y797355D01*
X30000Y797324D01*
X29842Y797355D01*
G37*
%LPD*%
%LPC*%
G36*
X29842Y7355D02*
X29842Y7355D01*
X29661Y7368D01*
X29598Y7379D01*
X25500Y7379D01*
X21715Y8947D01*
X21541Y8995D01*
X21481Y9018D01*
X21322Y9050D01*
X21188Y9140D01*
X21026Y9220D01*
X20972Y9255D01*
X17186Y10823D01*
X14289Y13720D01*
X14146Y13831D01*
X14100Y13876D01*
X13965Y13965D01*
X13876Y14100D01*
X13757Y14236D01*
X13720Y14289D01*
X10823Y17186D01*
X9255Y20972D01*
X9165Y21129D01*
X9140Y21188D01*
X9050Y21322D01*
X9018Y21481D01*
X8961Y21652D01*
X8947Y21715D01*
X7379Y25500D01*
X7379Y29598D01*
X7356Y29777D01*
X7355Y29842D01*
X7324Y30000D01*
X7355Y30158D01*
X7368Y30339D01*
X7379Y30402D01*
X7379Y34500D01*
X8947Y38285D01*
X8964Y38346D01*
X8986Y38394D01*
X9000Y38473D01*
X9018Y38519D01*
X9050Y38678D01*
X9140Y38812D01*
X9220Y38974D01*
X9255Y39028D01*
X10823Y42814D01*
X13720Y45711D01*
X13831Y45854D01*
X13876Y45900D01*
X13965Y46035D01*
X14100Y46124D01*
X14236Y46243D01*
X14289Y46280D01*
X17186Y49177D01*
X20972Y50745D01*
X21129Y50835D01*
X21188Y50860D01*
X21322Y50950D01*
X21481Y50982D01*
X21652Y51039D01*
X21715Y51053D01*
X25500Y52621D01*
X29598Y52621D01*
X29777Y52644D01*
X29842Y52645D01*
X30000Y52676D01*
X30158Y52645D01*
X30339Y52632D01*
X30402Y52621D01*
X34500Y52621D01*
X38285Y51053D01*
X38459Y51005D01*
X38519Y50982D01*
X38678Y50950D01*
X38812Y50860D01*
X38974Y50780D01*
X39028Y50745D01*
X42814Y49177D01*
X45711Y46280D01*
X45854Y46169D01*
X45900Y46124D01*
X46035Y46035D01*
X46124Y45900D01*
X46243Y45764D01*
X46280Y45711D01*
X49177Y42814D01*
X50745Y39028D01*
X50835Y38871D01*
X50860Y38812D01*
X50950Y38678D01*
X50982Y38519D01*
X50986Y38508D01*
X51039Y38348D01*
X51053Y38285D01*
X52621Y34500D01*
X52621Y30402D01*
X52644Y30223D01*
X52645Y30158D01*
X52676Y30000D01*
X52645Y29842D01*
X52632Y29661D01*
X52621Y29598D01*
X52621Y25500D01*
X51053Y21715D01*
X51041Y21672D01*
X51033Y21654D01*
X51026Y21618D01*
X51005Y21541D01*
X50982Y21481D01*
X50950Y21322D01*
X50860Y21188D01*
X50780Y21026D01*
X50745Y20972D01*
X49177Y17186D01*
X46280Y14289D01*
X46169Y14146D01*
X46124Y14100D01*
X46035Y13965D01*
X45900Y13876D01*
X45764Y13757D01*
X45711Y13720D01*
X42814Y10823D01*
X39028Y9255D01*
X38871Y9165D01*
X38812Y9140D01*
X38678Y9050D01*
X38519Y9018D01*
X38348Y8961D01*
X38285Y8947D01*
X34500Y7379D01*
X30402Y7379D01*
X30223Y7356D01*
X30158Y7355D01*
X30000Y7324D01*
X29842Y7355D01*
G37*
%LPD*%
%LPC*%
G36*
X419842Y7355D02*
X419842Y7355D01*
X419661Y7368D01*
X419598Y7379D01*
X415500Y7379D01*
X411715Y8947D01*
X411541Y8995D01*
X411481Y9018D01*
X411322Y9050D01*
X411188Y9140D01*
X411026Y9220D01*
X410972Y9255D01*
X407186Y10823D01*
X404289Y13720D01*
X404146Y13831D01*
X404100Y13876D01*
X403965Y13965D01*
X403876Y14100D01*
X403757Y14236D01*
X403720Y14289D01*
X400823Y17186D01*
X399255Y20972D01*
X399165Y21129D01*
X399140Y21188D01*
X399050Y21322D01*
X399018Y21481D01*
X398961Y21652D01*
X398947Y21715D01*
X397379Y25500D01*
X397379Y29598D01*
X397356Y29777D01*
X397355Y29842D01*
X397324Y30000D01*
X397355Y30158D01*
X397368Y30339D01*
X397379Y30402D01*
X397379Y34500D01*
X398947Y38285D01*
X398964Y38346D01*
X398986Y38394D01*
X399000Y38473D01*
X399018Y38519D01*
X399050Y38678D01*
X399140Y38812D01*
X399220Y38974D01*
X399255Y39028D01*
X400823Y42814D01*
X403720Y45711D01*
X403831Y45854D01*
X403876Y45900D01*
X403965Y46035D01*
X404100Y46124D01*
X404236Y46243D01*
X404289Y46280D01*
X407186Y49177D01*
X410972Y50745D01*
X411129Y50835D01*
X411188Y50860D01*
X411322Y50950D01*
X411481Y50982D01*
X411652Y51039D01*
X411715Y51053D01*
X415500Y52621D01*
X419598Y52621D01*
X419777Y52644D01*
X419842Y52645D01*
X420000Y52676D01*
X420158Y52645D01*
X420339Y52632D01*
X420402Y52621D01*
X424500Y52621D01*
X428285Y51053D01*
X428459Y51005D01*
X428519Y50982D01*
X428678Y50950D01*
X428812Y50860D01*
X428974Y50780D01*
X429028Y50745D01*
X432814Y49177D01*
X435711Y46280D01*
X435854Y46169D01*
X435900Y46124D01*
X436035Y46035D01*
X436124Y45900D01*
X436243Y45764D01*
X436280Y45711D01*
X439177Y42814D01*
X440745Y39028D01*
X440835Y38871D01*
X440860Y38812D01*
X440950Y38678D01*
X440982Y38519D01*
X440986Y38508D01*
X441039Y38348D01*
X441053Y38285D01*
X442621Y34500D01*
X442621Y30402D01*
X442644Y30223D01*
X442645Y30158D01*
X442676Y30000D01*
X442645Y29842D01*
X442632Y29661D01*
X442621Y29598D01*
X442621Y25500D01*
X441053Y21715D01*
X441041Y21672D01*
X441033Y21654D01*
X441026Y21618D01*
X441005Y21541D01*
X440982Y21481D01*
X440950Y21322D01*
X440860Y21188D01*
X440780Y21026D01*
X440745Y20972D01*
X439177Y17186D01*
X436280Y14289D01*
X436169Y14146D01*
X436124Y14100D01*
X436035Y13965D01*
X435900Y13876D01*
X435764Y13757D01*
X435711Y13720D01*
X432814Y10823D01*
X429028Y9255D01*
X428871Y9165D01*
X428812Y9140D01*
X428678Y9050D01*
X428519Y9018D01*
X428348Y8961D01*
X428285Y8947D01*
X424500Y7379D01*
X420402Y7379D01*
X420223Y7356D01*
X420158Y7355D01*
X420000Y7324D01*
X419842Y7355D01*
G37*
%LPD*%
%LPC*%
G36*
X276723Y696507D02*
X276723Y696507D01*
X274124Y697584D01*
X272134Y699574D01*
X271057Y702173D01*
X271057Y704987D01*
X272134Y707586D01*
X274124Y709576D01*
X276723Y710653D01*
X279296Y710653D01*
X279405Y710667D01*
X279515Y710672D01*
X279561Y710686D01*
X279609Y710693D01*
X279711Y710733D01*
X279816Y710766D01*
X279847Y710788D01*
X279902Y710810D01*
X280156Y710996D01*
X280169Y711011D01*
X280179Y711019D01*
X300682Y731521D01*
X390198Y731521D01*
X403941Y717778D01*
X403983Y717689D01*
X404028Y717578D01*
X404051Y717546D01*
X404067Y717511D01*
X404144Y717420D01*
X404214Y717324D01*
X404244Y717299D01*
X404270Y717269D01*
X404325Y717234D01*
X404459Y717124D01*
X404587Y717065D01*
X404642Y717030D01*
X406103Y716425D01*
X409105Y713423D01*
X410729Y709502D01*
X410729Y705258D01*
X409105Y701337D01*
X406103Y698335D01*
X402182Y696711D01*
X397938Y696711D01*
X394017Y698335D01*
X391015Y701337D01*
X389391Y705258D01*
X389391Y709502D01*
X391015Y713423D01*
X393383Y715791D01*
X393460Y715890D01*
X393542Y715986D01*
X393556Y716015D01*
X393576Y716040D01*
X393626Y716156D01*
X393681Y716269D01*
X393688Y716301D01*
X393701Y716330D01*
X393720Y716455D01*
X393745Y716578D01*
X393744Y716610D01*
X393749Y716642D01*
X393736Y716768D01*
X393730Y716893D01*
X393720Y716924D01*
X393717Y716956D01*
X393673Y717074D01*
X393636Y717194D01*
X393621Y717216D01*
X393607Y717252D01*
X393427Y717511D01*
X393398Y717537D01*
X393383Y717558D01*
X387407Y723533D01*
X387321Y723601D01*
X387239Y723674D01*
X387196Y723697D01*
X387158Y723727D01*
X387057Y723770D01*
X386960Y723821D01*
X386923Y723828D01*
X386868Y723851D01*
X386556Y723899D01*
X386537Y723897D01*
X386524Y723899D01*
X304356Y723899D01*
X304247Y723885D01*
X304137Y723880D01*
X304091Y723866D01*
X304043Y723859D01*
X303941Y723819D01*
X303836Y723786D01*
X303805Y723764D01*
X303750Y723742D01*
X303496Y723556D01*
X303483Y723541D01*
X303473Y723533D01*
X285569Y705629D01*
X285501Y705543D01*
X285428Y705461D01*
X285405Y705418D01*
X285375Y705380D01*
X285332Y705279D01*
X285281Y705182D01*
X285274Y705145D01*
X285251Y705090D01*
X285203Y704778D01*
X285205Y704759D01*
X285203Y704746D01*
X285203Y702173D01*
X284126Y699574D01*
X282136Y697584D01*
X279537Y696507D01*
X276723Y696507D01*
G37*
%LPD*%
%LPC*%
G36*
X423338Y671311D02*
X423338Y671311D01*
X419417Y672935D01*
X416415Y675937D01*
X414791Y679858D01*
X414791Y684102D01*
X416415Y688023D01*
X419417Y691025D01*
X423338Y692649D01*
X427582Y692649D01*
X429044Y692043D01*
X429081Y692033D01*
X429116Y692016D01*
X429233Y691992D01*
X429348Y691960D01*
X429387Y691960D01*
X429425Y691952D01*
X429544Y691958D01*
X429663Y691956D01*
X429701Y691966D01*
X429740Y691968D01*
X429854Y692003D01*
X429970Y692031D01*
X430004Y692050D01*
X430042Y692062D01*
X430095Y692099D01*
X430248Y692181D01*
X430351Y692277D01*
X430405Y692314D01*
X436513Y698423D01*
X436581Y698509D01*
X436654Y698591D01*
X436677Y698634D01*
X436707Y698672D01*
X436750Y698773D01*
X436801Y698870D01*
X436808Y698907D01*
X436831Y698962D01*
X436879Y699274D01*
X436877Y699293D01*
X436879Y699306D01*
X436879Y701102D01*
X436869Y701183D01*
X436868Y701265D01*
X436849Y701339D01*
X436839Y701415D01*
X436809Y701491D01*
X436788Y701570D01*
X436751Y701637D01*
X436722Y701708D01*
X436674Y701774D01*
X436634Y701846D01*
X436581Y701901D01*
X436536Y701962D01*
X436472Y702014D01*
X436415Y702073D01*
X436350Y702113D01*
X436291Y702162D01*
X436217Y702196D01*
X436147Y702239D01*
X436074Y702262D01*
X436005Y702293D01*
X435924Y702308D01*
X435845Y702332D01*
X435769Y702336D01*
X435694Y702349D01*
X435612Y702343D01*
X435530Y702347D01*
X435456Y702331D01*
X435380Y702326D01*
X435302Y702299D01*
X435221Y702282D01*
X435153Y702249D01*
X435081Y702224D01*
X435012Y702179D01*
X434939Y702142D01*
X434899Y702104D01*
X434817Y702051D01*
X434648Y701863D01*
X434619Y701836D01*
X433598Y700430D01*
X432410Y699242D01*
X431052Y698255D01*
X429555Y697493D01*
X427958Y696974D01*
X427709Y696935D01*
X427709Y706380D01*
X427693Y706505D01*
X427684Y706630D01*
X427673Y706661D01*
X427669Y706693D01*
X427623Y706809D01*
X427582Y706929D01*
X427564Y706956D01*
X427552Y706986D01*
X427478Y707087D01*
X427409Y707192D01*
X427385Y707214D01*
X427366Y707240D01*
X427268Y707320D01*
X427199Y707383D01*
X427273Y707431D01*
X427294Y707455D01*
X427320Y707474D01*
X427400Y707572D01*
X427484Y707665D01*
X427499Y707694D01*
X427520Y707719D01*
X427573Y707833D01*
X427631Y707945D01*
X427635Y707970D01*
X427652Y708005D01*
X427708Y708316D01*
X427705Y708355D01*
X427709Y708380D01*
X427709Y717825D01*
X427958Y717786D01*
X429555Y717267D01*
X431052Y716505D01*
X432410Y715518D01*
X433598Y714330D01*
X434619Y712924D01*
X434676Y712864D01*
X434724Y712798D01*
X434783Y712750D01*
X434836Y712694D01*
X434905Y712650D01*
X434969Y712598D01*
X435038Y712567D01*
X435102Y712526D01*
X435181Y712501D01*
X435255Y712467D01*
X435330Y712453D01*
X435403Y712430D01*
X435485Y712425D01*
X435566Y712411D01*
X435642Y712416D01*
X435718Y712412D01*
X435799Y712428D01*
X435880Y712434D01*
X435953Y712459D01*
X436027Y712474D01*
X436101Y712510D01*
X436179Y712536D01*
X436243Y712578D01*
X436311Y712611D01*
X436374Y712664D01*
X436443Y712709D01*
X436494Y712766D01*
X436552Y712815D01*
X436599Y712882D01*
X436654Y712943D01*
X436690Y713011D01*
X436734Y713073D01*
X436763Y713150D01*
X436801Y713223D01*
X436811Y713277D01*
X436845Y713368D01*
X436872Y713620D01*
X436879Y713658D01*
X436879Y715454D01*
X436865Y715563D01*
X436860Y715673D01*
X436846Y715719D01*
X436839Y715767D01*
X436799Y715869D01*
X436766Y715974D01*
X436744Y716005D01*
X436722Y716060D01*
X436536Y716314D01*
X436521Y716327D01*
X436513Y716337D01*
X384809Y768042D01*
X384809Y770531D01*
X384795Y770640D01*
X384790Y770750D01*
X384776Y770796D01*
X384769Y770844D01*
X384729Y770946D01*
X384696Y771051D01*
X384674Y771082D01*
X384652Y771137D01*
X384466Y771391D01*
X384451Y771403D01*
X384443Y771414D01*
X382624Y773234D01*
X381547Y775833D01*
X381547Y778647D01*
X382624Y781246D01*
X384614Y783236D01*
X387213Y784313D01*
X390027Y784313D01*
X392626Y783236D01*
X394616Y781246D01*
X395693Y778647D01*
X395693Y775833D01*
X394616Y773234D01*
X393389Y772007D01*
X393312Y771907D01*
X393230Y771812D01*
X393216Y771783D01*
X393196Y771757D01*
X393146Y771641D01*
X393091Y771529D01*
X393084Y771497D01*
X393072Y771467D01*
X393052Y771343D01*
X393027Y771220D01*
X393029Y771187D01*
X393024Y771156D01*
X393036Y771030D01*
X393043Y770905D01*
X393052Y770874D01*
X393055Y770842D01*
X393099Y770723D01*
X393137Y770603D01*
X393151Y770582D01*
X393165Y770546D01*
X393345Y770287D01*
X393374Y770261D01*
X393389Y770240D01*
X444501Y719128D01*
X444501Y695632D01*
X441903Y693033D01*
X435794Y686925D01*
X435770Y686894D01*
X435741Y686868D01*
X435674Y686770D01*
X435601Y686676D01*
X435586Y686640D01*
X435564Y686607D01*
X435524Y686495D01*
X435477Y686386D01*
X435471Y686347D01*
X435457Y686310D01*
X435447Y686192D01*
X435429Y686074D01*
X435433Y686035D01*
X435429Y685996D01*
X435443Y685932D01*
X435460Y685760D01*
X435509Y685627D01*
X435523Y685564D01*
X436129Y684102D01*
X436129Y679858D01*
X434505Y675937D01*
X431503Y672935D01*
X427582Y671311D01*
X423338Y671311D01*
G37*
%LPD*%
%LPC*%
G36*
X68693Y134427D02*
X68693Y134427D01*
X66277Y135428D01*
X64428Y137277D01*
X63427Y139693D01*
X63427Y142307D01*
X64428Y144723D01*
X65843Y146139D01*
X65911Y146225D01*
X65984Y146307D01*
X66007Y146350D01*
X66037Y146388D01*
X66080Y146489D01*
X66131Y146586D01*
X66138Y146623D01*
X66161Y146678D01*
X66209Y146990D01*
X66207Y147009D01*
X66209Y147022D01*
X66209Y176363D01*
X66200Y176434D01*
X66201Y176505D01*
X66180Y176590D01*
X66169Y176676D01*
X66143Y176742D01*
X66126Y176811D01*
X66085Y176888D01*
X66052Y176969D01*
X66010Y177027D01*
X65977Y177089D01*
X65917Y177153D01*
X65866Y177224D01*
X65811Y177269D01*
X65762Y177321D01*
X65689Y177368D01*
X65621Y177423D01*
X65557Y177453D01*
X65497Y177491D01*
X65414Y177518D01*
X65335Y177555D01*
X65265Y177568D01*
X65197Y177590D01*
X65110Y177595D01*
X65024Y177611D01*
X64953Y177605D01*
X64882Y177610D01*
X64797Y177594D01*
X64710Y177587D01*
X64642Y177564D01*
X64572Y177551D01*
X64494Y177513D01*
X64411Y177485D01*
X64351Y177446D01*
X64287Y177416D01*
X64220Y177360D01*
X64147Y177312D01*
X64099Y177259D01*
X64045Y177214D01*
X64012Y177163D01*
X63936Y177078D01*
X63836Y176888D01*
X63806Y176841D01*
X63684Y176547D01*
X63678Y176524D01*
X63667Y176504D01*
X63657Y176449D01*
X63601Y176242D01*
X63599Y176128D01*
X63589Y176069D01*
X63589Y150888D01*
X62738Y148834D01*
X60990Y147086D01*
X54732Y140828D01*
X54718Y140810D01*
X54700Y140795D01*
X54670Y140748D01*
X54599Y140657D01*
X54569Y140620D01*
X54566Y140615D01*
X54539Y140579D01*
X54493Y140473D01*
X54461Y140423D01*
X53572Y138277D01*
X51723Y136428D01*
X49307Y135427D01*
X46693Y135427D01*
X44277Y136428D01*
X42428Y138277D01*
X41427Y140693D01*
X41427Y143307D01*
X42428Y145723D01*
X44277Y147572D01*
X46423Y148461D01*
X46443Y148472D01*
X46465Y148479D01*
X46511Y148511D01*
X46697Y148618D01*
X46779Y148698D01*
X46828Y148732D01*
X52045Y153949D01*
X52113Y154036D01*
X52186Y154117D01*
X52209Y154160D01*
X52239Y154199D01*
X52282Y154300D01*
X52333Y154397D01*
X52340Y154434D01*
X52363Y154488D01*
X52411Y154800D01*
X52409Y154819D01*
X52411Y154832D01*
X52411Y176069D01*
X52408Y176091D01*
X52410Y176114D01*
X52398Y176169D01*
X52371Y176381D01*
X52329Y176488D01*
X52316Y176547D01*
X51427Y178693D01*
X51427Y181307D01*
X52428Y183723D01*
X54277Y185572D01*
X54569Y185693D01*
X54617Y185720D01*
X54669Y185740D01*
X54753Y185798D01*
X54843Y185850D01*
X54882Y185888D01*
X54928Y185920D01*
X54995Y185998D01*
X55069Y186070D01*
X55097Y186117D01*
X55133Y186159D01*
X55179Y186251D01*
X55232Y186340D01*
X55248Y186393D01*
X55273Y186442D01*
X55293Y186543D01*
X55323Y186642D01*
X55325Y186697D01*
X55336Y186751D01*
X55331Y186854D01*
X55335Y186957D01*
X55323Y187011D01*
X55321Y187066D01*
X55290Y187165D01*
X55268Y187265D01*
X55243Y187315D01*
X55227Y187367D01*
X55189Y187421D01*
X55126Y187547D01*
X55012Y187677D01*
X54974Y187731D01*
X54428Y188277D01*
X53427Y190693D01*
X53427Y193307D01*
X54428Y195723D01*
X56277Y197572D01*
X58693Y198573D01*
X61307Y198573D01*
X63723Y197572D01*
X65572Y195723D01*
X66573Y193307D01*
X66573Y190693D01*
X66334Y190117D01*
X66324Y190079D01*
X66307Y190044D01*
X66283Y189928D01*
X66251Y189813D01*
X66251Y189774D01*
X66243Y189735D01*
X66249Y189617D01*
X66247Y189497D01*
X66257Y189459D01*
X66259Y189420D01*
X66294Y189306D01*
X66322Y189191D01*
X66341Y189156D01*
X66353Y189119D01*
X66390Y189065D01*
X66472Y188913D01*
X66568Y188809D01*
X66605Y188756D01*
X71204Y184157D01*
X73791Y181570D01*
X73791Y147022D01*
X73805Y146913D01*
X73810Y146803D01*
X73824Y146757D01*
X73831Y146709D01*
X73871Y146607D01*
X73904Y146502D01*
X73926Y146471D01*
X73948Y146416D01*
X74134Y146162D01*
X74149Y146149D01*
X74157Y146139D01*
X75572Y144723D01*
X76573Y142307D01*
X76573Y139693D01*
X75572Y137277D01*
X73723Y135428D01*
X71307Y134427D01*
X68693Y134427D01*
G37*
%LPD*%
%LPC*%
G36*
X109693Y179427D02*
X109693Y179427D01*
X107277Y180428D01*
X105428Y182277D01*
X104427Y184693D01*
X104427Y187307D01*
X105428Y189723D01*
X106693Y190989D01*
X106761Y191075D01*
X106834Y191157D01*
X106857Y191200D01*
X106886Y191238D01*
X106930Y191339D01*
X106981Y191436D01*
X106988Y191473D01*
X107011Y191528D01*
X107059Y191840D01*
X107057Y191859D01*
X107059Y191872D01*
X107059Y199128D01*
X107045Y199237D01*
X107040Y199347D01*
X107026Y199393D01*
X107019Y199441D01*
X106979Y199543D01*
X106946Y199648D01*
X106924Y199679D01*
X106902Y199734D01*
X106716Y199988D01*
X106701Y200001D01*
X106693Y200011D01*
X105428Y201277D01*
X104427Y203693D01*
X104427Y206307D01*
X105428Y208723D01*
X107277Y210572D01*
X109693Y211573D01*
X112307Y211573D01*
X114723Y210572D01*
X115927Y209369D01*
X116039Y209282D01*
X116149Y209192D01*
X116163Y209185D01*
X116176Y209175D01*
X116306Y209120D01*
X116435Y209060D01*
X116451Y209057D01*
X116466Y209051D01*
X116607Y209029D01*
X116746Y209004D01*
X116762Y209006D01*
X116778Y209003D01*
X116919Y209017D01*
X117060Y209028D01*
X117076Y209033D01*
X117092Y209035D01*
X117224Y209084D01*
X117359Y209130D01*
X117373Y209139D01*
X117388Y209144D01*
X117503Y209225D01*
X117623Y209303D01*
X117634Y209315D01*
X117647Y209324D01*
X117739Y209431D01*
X117834Y209537D01*
X117842Y209551D01*
X117852Y209564D01*
X117915Y209691D01*
X117981Y209816D01*
X117983Y209829D01*
X117992Y209847D01*
X118056Y210156D01*
X118053Y210215D01*
X118059Y210252D01*
X118059Y214128D01*
X118045Y214237D01*
X118040Y214347D01*
X118026Y214393D01*
X118019Y214441D01*
X117979Y214543D01*
X117946Y214648D01*
X117924Y214679D01*
X117902Y214734D01*
X117716Y214988D01*
X117701Y215001D01*
X117693Y215011D01*
X116428Y216277D01*
X115427Y218693D01*
X115427Y221307D01*
X116428Y223723D01*
X118277Y225572D01*
X120693Y226573D01*
X123307Y226573D01*
X125723Y225572D01*
X127572Y223723D01*
X127656Y223521D01*
X127691Y223459D01*
X127718Y223393D01*
X127769Y223323D01*
X127812Y223247D01*
X127862Y223196D01*
X127904Y223139D01*
X127972Y223084D01*
X128033Y223021D01*
X128093Y222984D01*
X128149Y222939D01*
X128228Y222903D01*
X128302Y222858D01*
X128370Y222837D01*
X128435Y222807D01*
X128521Y222792D01*
X128605Y222767D01*
X128676Y222764D01*
X128746Y222751D01*
X128833Y222758D01*
X128920Y222755D01*
X128989Y222770D01*
X129060Y222775D01*
X129143Y222803D01*
X129228Y222822D01*
X129291Y222854D01*
X129359Y222877D01*
X129432Y222925D01*
X129510Y222964D01*
X129563Y223011D01*
X129623Y223050D01*
X129681Y223115D01*
X129747Y223172D01*
X129787Y223231D01*
X129834Y223284D01*
X129875Y223361D01*
X129924Y223433D01*
X129948Y223500D01*
X129981Y223563D01*
X129992Y223623D01*
X130030Y223730D01*
X130049Y223944D01*
X130059Y223999D01*
X130059Y227128D01*
X130045Y227237D01*
X130040Y227347D01*
X130026Y227393D01*
X130019Y227441D01*
X129979Y227543D01*
X129946Y227648D01*
X129924Y227679D01*
X129902Y227734D01*
X129716Y227988D01*
X129701Y228001D01*
X129693Y228011D01*
X128428Y229277D01*
X127427Y231693D01*
X127427Y234307D01*
X128428Y236723D01*
X130277Y238572D01*
X132693Y239573D01*
X135307Y239573D01*
X137723Y238572D01*
X139572Y236723D01*
X140573Y234307D01*
X140573Y231693D01*
X139572Y229277D01*
X138307Y228011D01*
X138239Y227925D01*
X138166Y227843D01*
X138143Y227800D01*
X138113Y227762D01*
X138070Y227661D01*
X138019Y227564D01*
X138012Y227527D01*
X137989Y227472D01*
X137941Y227160D01*
X137943Y227141D01*
X137941Y227128D01*
X137941Y220872D01*
X137955Y220763D01*
X137960Y220653D01*
X137974Y220607D01*
X137981Y220559D01*
X138021Y220457D01*
X138054Y220352D01*
X138076Y220321D01*
X138098Y220266D01*
X138284Y220012D01*
X138299Y219999D01*
X138307Y219989D01*
X139572Y218723D01*
X140573Y216307D01*
X140573Y213693D01*
X139572Y211277D01*
X137723Y209428D01*
X135307Y208427D01*
X132693Y208427D01*
X130277Y209428D01*
X128428Y211277D01*
X128344Y211479D01*
X128309Y211541D01*
X128282Y211607D01*
X128231Y211677D01*
X128188Y211753D01*
X128138Y211804D01*
X128096Y211861D01*
X128028Y211916D01*
X127967Y211979D01*
X127907Y212016D01*
X127851Y212061D01*
X127772Y212097D01*
X127698Y212142D01*
X127630Y212163D01*
X127565Y212193D01*
X127479Y212208D01*
X127395Y212233D01*
X127324Y212236D01*
X127254Y212249D01*
X127167Y212242D01*
X127080Y212245D01*
X127011Y212230D01*
X126940Y212225D01*
X126857Y212197D01*
X126772Y212178D01*
X126709Y212146D01*
X126641Y212123D01*
X126568Y212075D01*
X126490Y212036D01*
X126437Y211989D01*
X126377Y211950D01*
X126319Y211885D01*
X126253Y211828D01*
X126213Y211769D01*
X126166Y211716D01*
X126125Y211639D01*
X126076Y211567D01*
X126052Y211500D01*
X126019Y211437D01*
X126008Y211377D01*
X125970Y211270D01*
X125951Y211056D01*
X125941Y211001D01*
X125941Y206872D01*
X125955Y206763D01*
X125960Y206653D01*
X125974Y206607D01*
X125981Y206559D01*
X126021Y206457D01*
X126054Y206352D01*
X126076Y206321D01*
X126098Y206266D01*
X126284Y206012D01*
X126299Y205999D01*
X126307Y205989D01*
X127572Y204723D01*
X128573Y202307D01*
X128573Y199693D01*
X127572Y197277D01*
X125723Y195428D01*
X123307Y194427D01*
X120693Y194427D01*
X118277Y195428D01*
X117073Y196631D01*
X116961Y196718D01*
X116851Y196808D01*
X116837Y196815D01*
X116824Y196825D01*
X116694Y196880D01*
X116565Y196940D01*
X116549Y196943D01*
X116534Y196949D01*
X116393Y196971D01*
X116254Y196996D01*
X116238Y196994D01*
X116222Y196997D01*
X116081Y196983D01*
X115940Y196972D01*
X115924Y196967D01*
X115908Y196965D01*
X115776Y196916D01*
X115641Y196870D01*
X115627Y196861D01*
X115612Y196856D01*
X115497Y196775D01*
X115377Y196697D01*
X115366Y196685D01*
X115353Y196676D01*
X115261Y196569D01*
X115166Y196463D01*
X115158Y196449D01*
X115148Y196436D01*
X115085Y196309D01*
X115019Y196184D01*
X115017Y196171D01*
X115008Y196153D01*
X114944Y195844D01*
X114947Y195785D01*
X114941Y195748D01*
X114941Y191872D01*
X114955Y191763D01*
X114960Y191653D01*
X114974Y191607D01*
X114981Y191559D01*
X115021Y191457D01*
X115054Y191352D01*
X115076Y191321D01*
X115098Y191266D01*
X115284Y191012D01*
X115299Y190999D01*
X115307Y190989D01*
X116572Y189723D01*
X117573Y187307D01*
X117573Y184693D01*
X116572Y182277D01*
X114723Y180428D01*
X112307Y179427D01*
X109693Y179427D01*
G37*
%LPD*%
%LPC*%
G36*
X402102Y242959D02*
X402102Y242959D01*
X398596Y244412D01*
X395912Y247096D01*
X394459Y250602D01*
X394459Y254398D01*
X395912Y257904D01*
X398596Y260588D01*
X402102Y262041D01*
X419898Y262041D01*
X423404Y260588D01*
X426088Y257904D01*
X427541Y254398D01*
X427541Y250602D01*
X426088Y247096D01*
X423404Y244412D01*
X419898Y242959D01*
X402102Y242959D01*
G37*
%LPD*%
%LPC*%
G36*
X402102Y77959D02*
X402102Y77959D01*
X398596Y79412D01*
X395912Y82096D01*
X394459Y85602D01*
X394459Y89398D01*
X395912Y92904D01*
X398596Y95588D01*
X402102Y97041D01*
X419898Y97041D01*
X423404Y95588D01*
X426088Y92904D01*
X427541Y89398D01*
X427541Y85602D01*
X426088Y82096D01*
X423404Y79412D01*
X419898Y77959D01*
X402102Y77959D01*
G37*
%LPD*%
%LPC*%
G36*
X382704Y583459D02*
X382704Y583459D01*
X378463Y585216D01*
X375216Y588463D01*
X373459Y592704D01*
X373459Y597296D01*
X375216Y601537D01*
X378463Y604784D01*
X382704Y606541D01*
X387296Y606541D01*
X391537Y604784D01*
X394784Y601537D01*
X396541Y597296D01*
X396541Y592704D01*
X394784Y588463D01*
X391537Y585216D01*
X387296Y583459D01*
X382704Y583459D01*
G37*
%LPD*%
%LPC*%
G36*
X216166Y659129D02*
X216166Y659129D01*
X211965Y660869D01*
X208749Y664085D01*
X207009Y668286D01*
X207009Y672834D01*
X208749Y677035D01*
X211965Y680251D01*
X216166Y681991D01*
X220714Y681991D01*
X224915Y680251D01*
X228131Y677035D01*
X229871Y672834D01*
X229871Y668286D01*
X228131Y664085D01*
X224915Y660869D01*
X220714Y659129D01*
X216166Y659129D01*
G37*
%LPD*%
%LPC*%
G36*
X372538Y696711D02*
X372538Y696711D01*
X368617Y698335D01*
X365615Y701337D01*
X363991Y705258D01*
X363991Y709502D01*
X365615Y713423D01*
X368617Y716425D01*
X372538Y718049D01*
X376782Y718049D01*
X380703Y716425D01*
X383705Y713423D01*
X385329Y709502D01*
X385329Y705258D01*
X383705Y701337D01*
X380703Y698335D01*
X376782Y696711D01*
X372538Y696711D01*
G37*
%LPD*%
%LPC*%
G36*
X397938Y671311D02*
X397938Y671311D01*
X394017Y672935D01*
X391015Y675937D01*
X389391Y679858D01*
X389391Y684102D01*
X391015Y688023D01*
X394017Y691025D01*
X397938Y692649D01*
X402182Y692649D01*
X406103Y691025D01*
X409105Y688023D01*
X410729Y684102D01*
X410729Y679858D01*
X409105Y675937D01*
X406103Y672935D01*
X402182Y671311D01*
X397938Y671311D01*
G37*
%LPD*%
%LPC*%
G36*
X372538Y671311D02*
X372538Y671311D01*
X368617Y672935D01*
X365615Y675937D01*
X363991Y679858D01*
X363991Y684102D01*
X365615Y688023D01*
X368617Y691025D01*
X372538Y692649D01*
X376782Y692649D01*
X380703Y691025D01*
X383705Y688023D01*
X385329Y684102D01*
X385329Y679858D01*
X383705Y675937D01*
X380703Y672935D01*
X376782Y671311D01*
X372538Y671311D01*
G37*
%LPD*%
%LPC*%
G36*
X92693Y171427D02*
X92693Y171427D01*
X90277Y172428D01*
X88428Y174277D01*
X87427Y176693D01*
X87427Y179307D01*
X88428Y181723D01*
X89693Y182989D01*
X89761Y183075D01*
X89834Y183157D01*
X89857Y183200D01*
X89887Y183238D01*
X89930Y183339D01*
X89981Y183436D01*
X89988Y183473D01*
X90011Y183528D01*
X90059Y183840D01*
X90057Y183859D01*
X90059Y183872D01*
X90059Y195128D01*
X90045Y195237D01*
X90040Y195347D01*
X90026Y195393D01*
X90019Y195441D01*
X89979Y195543D01*
X89946Y195648D01*
X89924Y195679D01*
X89902Y195734D01*
X89716Y195988D01*
X89701Y196001D01*
X89693Y196011D01*
X88428Y197277D01*
X87427Y199693D01*
X87427Y202307D01*
X88428Y204723D01*
X90277Y206572D01*
X92693Y207573D01*
X95307Y207573D01*
X97723Y206572D01*
X99572Y204723D01*
X100573Y202307D01*
X100573Y199693D01*
X99572Y197277D01*
X98307Y196011D01*
X98239Y195925D01*
X98166Y195843D01*
X98143Y195800D01*
X98113Y195762D01*
X98070Y195661D01*
X98019Y195564D01*
X98012Y195527D01*
X97989Y195472D01*
X97941Y195160D01*
X97943Y195141D01*
X97941Y195128D01*
X97941Y183872D01*
X97955Y183763D01*
X97960Y183653D01*
X97974Y183607D01*
X97981Y183559D01*
X98021Y183457D01*
X98054Y183352D01*
X98076Y183321D01*
X98098Y183266D01*
X98284Y183012D01*
X98299Y182999D01*
X98307Y182989D01*
X99572Y181723D01*
X100573Y179307D01*
X100573Y176693D01*
X99572Y174277D01*
X97723Y172428D01*
X95307Y171427D01*
X92693Y171427D01*
G37*
%LPD*%
%LPC*%
G36*
X427903Y584459D02*
X427903Y584459D01*
X424029Y586064D01*
X421064Y589029D01*
X419459Y592903D01*
X419459Y597097D01*
X421064Y600971D01*
X424029Y603936D01*
X427903Y605541D01*
X432097Y605541D01*
X435971Y603936D01*
X438936Y600971D01*
X440541Y597097D01*
X440541Y592903D01*
X438936Y589029D01*
X435971Y586064D01*
X432097Y584459D01*
X427903Y584459D01*
G37*
%LPD*%
%LPC*%
G36*
X418102Y160459D02*
X418102Y160459D01*
X414596Y161912D01*
X411912Y164596D01*
X410459Y168102D01*
X410459Y171898D01*
X411912Y175404D01*
X414596Y178088D01*
X418102Y179541D01*
X421898Y179541D01*
X425404Y178088D01*
X428088Y175404D01*
X429541Y171898D01*
X429541Y168102D01*
X428088Y164596D01*
X425404Y161912D01*
X421898Y160459D01*
X418102Y160459D01*
G37*
%LPD*%
%LPC*%
G36*
X57840Y643879D02*
X57840Y643879D01*
X55068Y645027D01*
X52947Y647148D01*
X51799Y649920D01*
X51799Y652920D01*
X52947Y655692D01*
X55068Y657813D01*
X57840Y658961D01*
X60840Y658961D01*
X63612Y657813D01*
X65733Y655692D01*
X66881Y652920D01*
X66881Y649920D01*
X65733Y647148D01*
X63612Y645027D01*
X60840Y643879D01*
X57840Y643879D01*
G37*
%LPD*%
%LPC*%
G36*
X57840Y613879D02*
X57840Y613879D01*
X55068Y615027D01*
X52947Y617148D01*
X51799Y619920D01*
X51799Y622920D01*
X52947Y625692D01*
X55068Y627813D01*
X57840Y628961D01*
X60840Y628961D01*
X63612Y627813D01*
X65733Y625692D01*
X66881Y622920D01*
X66881Y619920D01*
X65733Y617148D01*
X63612Y615027D01*
X60840Y613879D01*
X57840Y613879D01*
G37*
%LPD*%
%LPC*%
G36*
X415015Y709629D02*
X415015Y709629D01*
X415054Y709878D01*
X415573Y711475D01*
X416335Y712972D01*
X417322Y714330D01*
X418510Y715518D01*
X419868Y716505D01*
X421365Y717267D01*
X422962Y717786D01*
X423211Y717825D01*
X423211Y709629D01*
X415015Y709629D01*
G37*
%LPD*%
%LPC*%
G36*
X422962Y696974D02*
X422962Y696974D01*
X421365Y697493D01*
X419868Y698255D01*
X418510Y699242D01*
X417322Y700430D01*
X416335Y701788D01*
X415573Y703285D01*
X415054Y704882D01*
X415015Y705131D01*
X423211Y705131D01*
X423211Y696935D01*
X422962Y696974D01*
G37*
%LPD*%
D10*
X418000Y252500D02*
X404000Y252500D01*
X404000Y87500D02*
X418000Y87500D01*
X350200Y252500D02*
X336200Y252500D01*
X336200Y87500D02*
X350200Y87500D01*
D11*
X400060Y681980D03*
X400060Y707380D03*
X374660Y707380D03*
X374660Y681980D03*
X425460Y681980D03*
X425460Y707380D03*
D12*
X420000Y30000D03*
X420000Y820000D03*
X30000Y820000D03*
X30000Y30000D03*
D13*
X218440Y670560D03*
D14*
X94000Y201000D03*
D15*
X94000Y178000D01*
D14*
X94000Y178000D03*
X111000Y205000D03*
D15*
X111000Y186000D01*
D14*
X111000Y186000D03*
X122000Y201000D03*
D15*
X122000Y220000D01*
D14*
X122000Y220000D03*
X134000Y233000D03*
D15*
X134000Y215000D01*
D14*
X134000Y215000D03*
X30000Y189000D03*
D16*
X30000Y125000D01*
X34000Y121000D01*
X101000Y121000D01*
X110000Y130000D01*
X110000Y155000D01*
D14*
X110000Y155000D03*
X70000Y141000D03*
X60000Y192000D03*
D16*
X60000Y190000D01*
X70000Y180000D01*
X70000Y141000D01*
D14*
X88000Y132000D03*
D16*
X88000Y161000D01*
D14*
X88000Y161000D03*
D17*
X34140Y736960D03*
X415000Y269500D03*
X20000Y242500D03*
X20000Y227500D03*
X20000Y212500D03*
X60000Y318000D03*
X190240Y765200D03*
X165240Y673200D03*
X194240Y699200D03*
X407500Y479500D03*
X422500Y479500D03*
X437500Y479500D03*
X344000Y455000D03*
X181000Y500000D03*
X199000Y500000D03*
X217000Y500000D03*
X235000Y500000D03*
X79000Y400500D03*
X29500Y394000D03*
X134500Y518000D03*
X134500Y502000D03*
X367500Y629500D03*
X387500Y629500D03*
X407500Y629500D03*
X427500Y629500D03*
X265500Y630500D03*
X265500Y604500D03*
X90000Y318000D03*
X110000Y318000D03*
X130000Y318000D03*
X150000Y318000D03*
X253000Y500000D03*
X171000Y420000D03*
X171000Y432500D03*
X171000Y407500D03*
X158500Y420000D03*
X183500Y420000D03*
X279000Y407500D03*
X205000Y313000D03*
X314960Y703580D03*
D18*
X314960Y706120D01*
D14*
X48000Y142000D03*
D19*
X58000Y152000D01*
X58000Y180000D01*
D14*
X58000Y180000D03*
D17*
X12500Y105000D03*
D20*
X389000Y319440D02*
X436500Y319440D01*
D17*
X436500Y319440D03*
X421500Y319440D03*
X406500Y319440D03*
D18*
X7500Y787000D02*
X10500Y790000D01*
D17*
X10500Y790000D03*
D20*
X389000Y319440D02*
X389000Y282320D01*
X377190Y270510D01*
X377190Y138430D01*
X343760Y105000D01*
X12500Y105000D01*
D21*
X387350Y321090D02*
X389000Y319440D01*
X387350Y321090D02*
X387350Y547370D01*
X336550Y598170D01*
X336550Y678180D01*
D17*
X336550Y678180D03*
X144000Y383000D03*
X146000Y460500D03*
D20*
X146000Y456500D01*
D22*
X146000Y385000D01*
X144000Y383000D01*
D17*
X187000Y383000D03*
D19*
X144000Y383000D01*
D17*
X341500Y484500D03*
X346500Y428000D03*
D19*
X341500Y484500D02*
X364500Y484500D01*
X369000Y480000D01*
X369000Y432500D01*
X364500Y428000D01*
X346500Y428000D01*
D17*
X284934Y634840D03*
D23*
X284934Y535066D01*
D17*
X344750Y515750D03*
D23*
X304250Y515750D02*
X284934Y535066D01*
X304250Y515750D02*
X344750Y515750D01*
D17*
X217000Y645000D03*
D23*
X109940Y645000D01*
X64000Y599060D01*
X64000Y459000D01*
X70000Y453000D01*
X108000Y453000D01*
D17*
X108000Y453000D03*
X96000Y453000D03*
D18*
X400060Y707380D02*
X400060Y716270D01*
X388620Y727710D01*
X302260Y727710D01*
X278130Y703580D01*
D17*
X278130Y703580D03*
X289560Y502920D03*
D18*
X289560Y424180D01*
X337820Y375920D01*
X337820Y325120D01*
X363220Y299720D01*
D17*
X363220Y299720D03*
D18*
X425460Y681980D02*
X440690Y697210D01*
X440690Y717550D01*
X388620Y769620D01*
X388620Y777240D01*
D17*
X388620Y777240D03*
X37500Y588500D03*
D18*
X24000Y588500D01*
X12500Y577000D01*
X12500Y425500D01*
D17*
X67000Y410000D03*
D18*
X12500Y425500D02*
X12500Y382500D01*
X15000Y380000D01*
X62000Y380000D01*
X67000Y385000D01*
X67000Y410000D01*
D17*
X355000Y496000D03*
D18*
X307000Y496000D01*
X304000Y493000D01*
D17*
X304000Y493000D03*
X216000Y389000D03*
D18*
X263000Y389000D01*
X269000Y395000D01*
X269000Y586000D01*
X263000Y592000D01*
X221000Y592000D01*
X206000Y607000D01*
X206000Y621000D01*
D17*
X206000Y621000D03*
X363220Y147320D03*
D18*
X363220Y276860D01*
X375920Y289560D01*
X375920Y320040D01*
D17*
X375920Y320040D03*
M02*
