<?xml version="1.0" standalone="no"?>
 <!DOCTYPE svg PUBLIC "-//W3C//DTD SVG 1.1//EN" 
 "http://www.w3.org/Graphics/SVG/1.1/DTD/svg11.dtd"> 
<svg
  xmlns:svg="http://www.w3.org/2000/svg"
  xmlns="http://www.w3.org/2000/svg"
  xmlns:xlink="http://www.w3.org/1999/xlink"
  version="1.1"
  width="29.700220cm" height="21.000720cm" viewBox="0 0 297002200 210007200">
<title>SVG Picture created as boardKicad-User_Eco1.svg date 2022/10/07 17:15:33 </title>
  <desc>Picture generated by PCBNEW </desc>
<g style="fill:#000000; fill-opacity:1.000000;stroke:#000000; stroke-opacity:1.000000;
stroke-linecap:round; stroke-linejoin:round;"
 transform="translate(0 0) scale(1 1)">
</g>
<g style="fill:#000000; fill-opacity:0.0; 
stroke:#000000; stroke-width:0.000000; stroke-opacity:1; 
stroke-linecap:round; stroke-linejoin:round;">
</g>
<g style="fill:#000000; fill-opacity:0.0; 
stroke:#000000; stroke-width:21200.000000; stroke-opacity:1; 
stroke-linecap:round; stroke-linejoin:round;">
</g>
<g style="fill:#000000; fill-opacity:0.0; 
stroke:#000000; stroke-width:150000.000000; stroke-opacity:1; 
stroke-linecap:round; stroke-linejoin:round;">
<rect x="177002200.000000" y="166007200.000000" width="108000000.000000" height="32000000.000000" rx="0.000000" />
</g>
<g style="fill:#000000; fill-opacity:0.0; 
stroke:#000000; stroke-width:21200.000000; stroke-opacity:1; 
stroke-linecap:round; stroke-linejoin:round;">
</g>
<g style="fill:#000000; fill-opacity:0.0; 
stroke:#000000; stroke-width:150000.000000; stroke-opacity:1; 
stroke-linecap:round; stroke-linejoin:round;">
<rect x="10000000.000000" y="10000000.000000" width="277002200.000000" height="190007200.000000" rx="0.000000" />
</g>
<g style="fill:#000000; fill-opacity:0.0; 
stroke:#000000; stroke-width:21200.000000; stroke-opacity:1; 
stroke-linecap:round; stroke-linejoin:round;">
</g>
<g style="fill:#000000; fill-opacity:0.0; 
stroke:#000000; stroke-width:150000.000000; stroke-opacity:1; 
stroke-linecap:round; stroke-linejoin:round;">
<rect x="12000000.000000" y="12000000.000000" width="273002200.000000" height="186007200.000000" rx="0.000000" />
</g>
<g style="fill:#000000; fill-opacity:0.0; 
stroke:#000000; stroke-width:21200.000000; stroke-opacity:1; 
stroke-linecap:round; stroke-linejoin:round;">
</g>
<g style="fill:#000000; fill-opacity:0.0; 
stroke:#000000; stroke-width:150000.000000; stroke-opacity:1; 
stroke-linecap:round; stroke-linejoin:round;">
<path d="M60000000 12000000
L60000000 10000000
" />
</g>
<g style="fill:#000000; fill-opacity:0.0; 
stroke:#000000; stroke-width:21200.000000; stroke-opacity:1; 
stroke-linecap:round; stroke-linejoin:round;">
</g>
<g style="fill:#000000; fill-opacity:0.0; 
stroke:#000000; stroke-width:150000.000000; stroke-opacity:1; 
stroke-linecap:round; stroke-linejoin:round;">
<path d="M110000000 12000000
L110000000 10000000
" />
</g>
<g style="fill:#000000; fill-opacity:0.0; 
stroke:#000000; stroke-width:21200.000000; stroke-opacity:1; 
stroke-linecap:round; stroke-linejoin:round;">
</g>
<g style="fill:#000000; fill-opacity:0.0; 
stroke:#000000; stroke-width:150000.000000; stroke-opacity:1; 
stroke-linecap:round; stroke-linejoin:round;">
<path d="M160000000 12000000
L160000000 10000000
" />
</g>
<g style="fill:#000000; fill-opacity:0.0; 
stroke:#000000; stroke-width:21200.000000; stroke-opacity:1; 
stroke-linecap:round; stroke-linejoin:round;">
</g>
<g style="fill:#000000; fill-opacity:0.0; 
stroke:#000000; stroke-width:150000.000000; stroke-opacity:1; 
stroke-linecap:round; stroke-linejoin:round;">
<path d="M210000000 12000000
L210000000 10000000
" />
</g>
<g style="fill:#000000; fill-opacity:0.0; 
stroke:#000000; stroke-width:21200.000000; stroke-opacity:1; 
stroke-linecap:round; stroke-linejoin:round;">
</g>
<g style="fill:#000000; fill-opacity:0.0; 
stroke:#000000; stroke-width:150000.000000; stroke-opacity:1; 
stroke-linecap:round; stroke-linejoin:round;">
<path d="M260000000 12000000
L260000000 10000000
" />
</g>
<g style="fill:#000000; fill-opacity:0.0; 
stroke:#000000; stroke-width:21200.000000; stroke-opacity:1; 
stroke-linecap:round; stroke-linejoin:round;">
</g>
<g style="fill:#000000; fill-opacity:0.0; 
stroke:#000000; stroke-width:150000.000000; stroke-opacity:1; 
stroke-linecap:round; stroke-linejoin:round;">
<text x="35000000.000000" y="11650000.000000"
textLength="1388095.000000" font-size="1733333.000000" lengthAdjust="spacingAndGlyphs"
text-anchor="start" opacity="0">1</text>
<g class="stroked-text"><desc>1</desc>
<path d="M36065476 11588095
L35322619 11588095
" />
<path d="M35694047 11588095
L35694047 10288095
L35570238 10473809
L35446428 10597619
L35322619 10659523
" />
</g></g>
<g style="fill:#000000; fill-opacity:0.0; 
stroke:#000000; stroke-width:21200.000000; stroke-opacity:1; 
stroke-linecap:round; stroke-linejoin:round;">
</g>
<g style="fill:#000000; fill-opacity:0.0; 
stroke:#000000; stroke-width:150000.000000; stroke-opacity:1; 
stroke-linecap:round; stroke-linejoin:round;">
<text x="85000000.000000" y="11650000.000000"
textLength="1388095.000000" font-size="1733333.000000" lengthAdjust="spacingAndGlyphs"
text-anchor="start" opacity="0">2</text>
<g class="stroked-text"><desc>2</desc>
<path d="M85322619 10411904
L85384523 10350000
L85508333 10288095
L85817857 10288095
L85941666 10350000
L86003571 10411904
L86065476 10535714
L86065476 10659523
L86003571 10845238
L85260714 11588095
L86065476 11588095
" />
</g></g>
<g style="fill:#000000; fill-opacity:0.0; 
stroke:#000000; stroke-width:21200.000000; stroke-opacity:1; 
stroke-linecap:round; stroke-linejoin:round;">
</g>
<g style="fill:#000000; fill-opacity:0.0; 
stroke:#000000; stroke-width:150000.000000; stroke-opacity:1; 
stroke-linecap:round; stroke-linejoin:round;">
<text x="135000000.000000" y="11650000.000000"
textLength="1388095.000000" font-size="1733333.000000" lengthAdjust="spacingAndGlyphs"
text-anchor="start" opacity="0">3</text>
<g class="stroked-text"><desc>3</desc>
<path d="M135260714 10288095
L136065476 10288095
L135632142 10783333
L135817857 10783333
L135941666 10845238
L136003571 10907142
L136065476 11030952
L136065476 11340476
L136003571 11464285
L135941666 11526190
L135817857 11588095
L135446428 11588095
L135322619 11526190
L135260714 11464285
" />
</g></g>
<g style="fill:#000000; fill-opacity:0.0; 
stroke:#000000; stroke-width:21200.000000; stroke-opacity:1; 
stroke-linecap:round; stroke-linejoin:round;">
</g>
<g style="fill:#000000; fill-opacity:0.0; 
stroke:#000000; stroke-width:150000.000000; stroke-opacity:1; 
stroke-linecap:round; stroke-linejoin:round;">
<text x="185000000.000000" y="11650000.000000"
textLength="1388095.000000" font-size="1733333.000000" lengthAdjust="spacingAndGlyphs"
text-anchor="start" opacity="0">4</text>
<g class="stroked-text"><desc>4</desc>
<path d="M185941666 10721428
L185941666 11588095
" />
<path d="M185632142 10226190
L185322619 11154761
L186127380 11154761
" />
</g></g>
<g style="fill:#000000; fill-opacity:0.0; 
stroke:#000000; stroke-width:21200.000000; stroke-opacity:1; 
stroke-linecap:round; stroke-linejoin:round;">
</g>
<g style="fill:#000000; fill-opacity:0.0; 
stroke:#000000; stroke-width:150000.000000; stroke-opacity:1; 
stroke-linecap:round; stroke-linejoin:round;">
<text x="235000000.000000" y="11650000.000000"
textLength="1388095.000000" font-size="1733333.000000" lengthAdjust="spacingAndGlyphs"
text-anchor="start" opacity="0">5</text>
<g class="stroked-text"><desc>5</desc>
<path d="M236003571 10288095
L235384523 10288095
L235322619 10907142
L235384523 10845238
L235508333 10783333
L235817857 10783333
L235941666 10845238
L236003571 10907142
L236065476 11030952
L236065476 11340476
L236003571 11464285
L235941666 11526190
L235817857 11588095
L235508333 11588095
L235384523 11526190
L235322619 11464285
" />
</g></g>
<g style="fill:#000000; fill-opacity:0.0; 
stroke:#000000; stroke-width:21200.000000; stroke-opacity:1; 
stroke-linecap:round; stroke-linejoin:round;">
</g>
<g style="fill:#000000; fill-opacity:0.0; 
stroke:#000000; stroke-width:150000.000000; stroke-opacity:1; 
stroke-linecap:round; stroke-linejoin:round;">
<text x="285000000.000000" y="11650000.000000"
textLength="1388095.000000" font-size="1733333.000000" lengthAdjust="spacingAndGlyphs"
text-anchor="start" opacity="0">6</text>
<g class="stroked-text"><desc>6</desc>
<path d="M285941666 10288095
L285694047 10288095
L285570238 10350000
L285508333 10411904
L285384523 10597619
L285322619 10845238
L285322619 11340476
L285384523 11464285
L285446428 11526190
L285570238 11588095
L285817857 11588095
L285941666 11526190
L286003571 11464285
L286065476 11340476
L286065476 11030952
L286003571 10907142
L285941666 10845238
L285817857 10783333
L285570238 10783333
L285446428 10845238
L285384523 10907142
L285322619 11030952
" />
</g></g>
<g style="fill:#000000; fill-opacity:0.0; 
stroke:#000000; stroke-width:21200.000000; stroke-opacity:1; 
stroke-linecap:round; stroke-linejoin:round;">
</g>
<g style="fill:#000000; fill-opacity:0.0; 
stroke:#000000; stroke-width:150000.000000; stroke-opacity:1; 
stroke-linecap:round; stroke-linejoin:round;">
<path d="M60000000 198007200
L60000000 200007200
" />
</g>
<g style="fill:#000000; fill-opacity:0.0; 
stroke:#000000; stroke-width:21200.000000; stroke-opacity:1; 
stroke-linecap:round; stroke-linejoin:round;">
</g>
<g style="fill:#000000; fill-opacity:0.0; 
stroke:#000000; stroke-width:150000.000000; stroke-opacity:1; 
stroke-linecap:round; stroke-linejoin:round;">
<path d="M110000000 198007200
L110000000 200007200
" />
</g>
<g style="fill:#000000; fill-opacity:0.0; 
stroke:#000000; stroke-width:21200.000000; stroke-opacity:1; 
stroke-linecap:round; stroke-linejoin:round;">
</g>
<g style="fill:#000000; fill-opacity:0.0; 
stroke:#000000; stroke-width:150000.000000; stroke-opacity:1; 
stroke-linecap:round; stroke-linejoin:round;">
<path d="M160000000 198007200
L160000000 200007200
" />
</g>
<g style="fill:#000000; fill-opacity:0.0; 
stroke:#000000; stroke-width:21200.000000; stroke-opacity:1; 
stroke-linecap:round; stroke-linejoin:round;">
</g>
<g style="fill:#000000; fill-opacity:0.0; 
stroke:#000000; stroke-width:150000.000000; stroke-opacity:1; 
stroke-linecap:round; stroke-linejoin:round;">
<path d="M210000000 198007200
L210000000 200007200
" />
</g>
<g style="fill:#000000; fill-opacity:0.0; 
stroke:#000000; stroke-width:21200.000000; stroke-opacity:1; 
stroke-linecap:round; stroke-linejoin:round;">
</g>
<g style="fill:#000000; fill-opacity:0.0; 
stroke:#000000; stroke-width:150000.000000; stroke-opacity:1; 
stroke-linecap:round; stroke-linejoin:round;">
<path d="M260000000 198007200
L260000000 200007200
" />
</g>
<g style="fill:#000000; fill-opacity:0.0; 
stroke:#000000; stroke-width:21200.000000; stroke-opacity:1; 
stroke-linecap:round; stroke-linejoin:round;">
</g>
<g style="fill:#000000; fill-opacity:0.0; 
stroke:#000000; stroke-width:150000.000000; stroke-opacity:1; 
stroke-linecap:round; stroke-linejoin:round;">
<text x="35000000.000000" y="199657200.000000"
textLength="1388095.000000" font-size="1733333.000000" lengthAdjust="spacingAndGlyphs"
text-anchor="start" opacity="0">1</text>
<g class="stroked-text"><desc>1</desc>
<path d="M36065476 199595295
L35322619 199595295
" />
<path d="M35694047 199595295
L35694047 198295295
L35570238 198481009
L35446428 198604819
L35322619 198666723
" />
</g></g>
<g style="fill:#000000; fill-opacity:0.0; 
stroke:#000000; stroke-width:21200.000000; stroke-opacity:1; 
stroke-linecap:round; stroke-linejoin:round;">
</g>
<g style="fill:#000000; fill-opacity:0.0; 
stroke:#000000; stroke-width:150000.000000; stroke-opacity:1; 
stroke-linecap:round; stroke-linejoin:round;">
<text x="85000000.000000" y="199657200.000000"
textLength="1388095.000000" font-size="1733333.000000" lengthAdjust="spacingAndGlyphs"
text-anchor="start" opacity="0">2</text>
<g class="stroked-text"><desc>2</desc>
<path d="M85322619 198419104
L85384523 198357200
L85508333 198295295
L85817857 198295295
L85941666 198357200
L86003571 198419104
L86065476 198542914
L86065476 198666723
L86003571 198852438
L85260714 199595295
L86065476 199595295
" />
</g></g>
<g style="fill:#000000; fill-opacity:0.0; 
stroke:#000000; stroke-width:21200.000000; stroke-opacity:1; 
stroke-linecap:round; stroke-linejoin:round;">
</g>
<g style="fill:#000000; fill-opacity:0.0; 
stroke:#000000; stroke-width:150000.000000; stroke-opacity:1; 
stroke-linecap:round; stroke-linejoin:round;">
<text x="135000000.000000" y="199657200.000000"
textLength="1388095.000000" font-size="1733333.000000" lengthAdjust="spacingAndGlyphs"
text-anchor="start" opacity="0">3</text>
<g class="stroked-text"><desc>3</desc>
<path d="M135260714 198295295
L136065476 198295295
L135632142 198790533
L135817857 198790533
L135941666 198852438
L136003571 198914342
L136065476 199038152
L136065476 199347676
L136003571 199471485
L135941666 199533390
L135817857 199595295
L135446428 199595295
L135322619 199533390
L135260714 199471485
" />
</g></g>
<g style="fill:#000000; fill-opacity:0.0; 
stroke:#000000; stroke-width:21200.000000; stroke-opacity:1; 
stroke-linecap:round; stroke-linejoin:round;">
</g>
<g style="fill:#000000; fill-opacity:0.0; 
stroke:#000000; stroke-width:150000.000000; stroke-opacity:1; 
stroke-linecap:round; stroke-linejoin:round;">
<text x="185000000.000000" y="199657200.000000"
textLength="1388095.000000" font-size="1733333.000000" lengthAdjust="spacingAndGlyphs"
text-anchor="start" opacity="0">4</text>
<g class="stroked-text"><desc>4</desc>
<path d="M185941666 198728628
L185941666 199595295
" />
<path d="M185632142 198233390
L185322619 199161961
L186127380 199161961
" />
</g></g>
<g style="fill:#000000; fill-opacity:0.0; 
stroke:#000000; stroke-width:21200.000000; stroke-opacity:1; 
stroke-linecap:round; stroke-linejoin:round;">
</g>
<g style="fill:#000000; fill-opacity:0.0; 
stroke:#000000; stroke-width:150000.000000; stroke-opacity:1; 
stroke-linecap:round; stroke-linejoin:round;">
<text x="235000000.000000" y="199657200.000000"
textLength="1388095.000000" font-size="1733333.000000" lengthAdjust="spacingAndGlyphs"
text-anchor="start" opacity="0">5</text>
<g class="stroked-text"><desc>5</desc>
<path d="M236003571 198295295
L235384523 198295295
L235322619 198914342
L235384523 198852438
L235508333 198790533
L235817857 198790533
L235941666 198852438
L236003571 198914342
L236065476 199038152
L236065476 199347676
L236003571 199471485
L235941666 199533390
L235817857 199595295
L235508333 199595295
L235384523 199533390
L235322619 199471485
" />
</g></g>
<g style="fill:#000000; fill-opacity:0.0; 
stroke:#000000; stroke-width:21200.000000; stroke-opacity:1; 
stroke-linecap:round; stroke-linejoin:round;">
</g>
<g style="fill:#000000; fill-opacity:0.0; 
stroke:#000000; stroke-width:150000.000000; stroke-opacity:1; 
stroke-linecap:round; stroke-linejoin:round;">
<text x="285000000.000000" y="199657200.000000"
textLength="1388095.000000" font-size="1733333.000000" lengthAdjust="spacingAndGlyphs"
text-anchor="start" opacity="0">6</text>
<g class="stroked-text"><desc>6</desc>
<path d="M285941666 198295295
L285694047 198295295
L285570238 198357200
L285508333 198419104
L285384523 198604819
L285322619 198852438
L285322619 199347676
L285384523 199471485
L285446428 199533390
L285570238 199595295
L285817857 199595295
L285941666 199533390
L286003571 199471485
L286065476 199347676
L286065476 199038152
L286003571 198914342
L285941666 198852438
L285817857 198790533
L285570238 198790533
L285446428 198852438
L285384523 198914342
L285322619 199038152
" />
</g></g>
<g style="fill:#000000; fill-opacity:0.0; 
stroke:#000000; stroke-width:21200.000000; stroke-opacity:1; 
stroke-linecap:round; stroke-linejoin:round;">
</g>
<g style="fill:#000000; fill-opacity:0.0; 
stroke:#000000; stroke-width:150000.000000; stroke-opacity:1; 
stroke-linecap:round; stroke-linejoin:round;">
<path d="M10000000 60000000
L12000000 60000000
" />
</g>
<g style="fill:#000000; fill-opacity:0.0; 
stroke:#000000; stroke-width:21200.000000; stroke-opacity:1; 
stroke-linecap:round; stroke-linejoin:round;">
</g>
<g style="fill:#000000; fill-opacity:0.0; 
stroke:#000000; stroke-width:150000.000000; stroke-opacity:1; 
stroke-linecap:round; stroke-linejoin:round;">
<path d="M10000000 110000000
L12000000 110000000
" />
</g>
<g style="fill:#000000; fill-opacity:0.0; 
stroke:#000000; stroke-width:21200.000000; stroke-opacity:1; 
stroke-linecap:round; stroke-linejoin:round;">
</g>
<g style="fill:#000000; fill-opacity:0.0; 
stroke:#000000; stroke-width:150000.000000; stroke-opacity:1; 
stroke-linecap:round; stroke-linejoin:round;">
<path d="M10000000 160000000
L12000000 160000000
" />
</g>
<g style="fill:#000000; fill-opacity:0.0; 
stroke:#000000; stroke-width:21200.000000; stroke-opacity:1; 
stroke-linecap:round; stroke-linejoin:round;">
</g>
<g style="fill:#000000; fill-opacity:0.0; 
stroke:#000000; stroke-width:150000.000000; stroke-opacity:1; 
stroke-linecap:round; stroke-linejoin:round;">
<text x="11000000.000000" y="35650000.000000"
textLength="1264286.000000" font-size="1733333.000000" lengthAdjust="spacingAndGlyphs"
text-anchor="middle" opacity="0">A</text>
<g class="stroked-text"><desc>A</desc>
<path d="M10690476 35216666
L11309523 35216666
" />
<path d="M10566666 35588095
L11000000 34288095
L11433333 35588095
" />
</g></g>
<g style="fill:#000000; fill-opacity:0.0; 
stroke:#000000; stroke-width:21200.000000; stroke-opacity:1; 
stroke-linecap:round; stroke-linejoin:round;">
</g>
<g style="fill:#000000; fill-opacity:0.0; 
stroke:#000000; stroke-width:150000.000000; stroke-opacity:1; 
stroke-linecap:round; stroke-linejoin:round;">
<text x="11000000.000000" y="85650000.000000"
textLength="1450000.000000" font-size="1733333.000000" lengthAdjust="spacingAndGlyphs"
text-anchor="middle" opacity="0">B</text>
<g class="stroked-text"><desc>B</desc>
<path d="M11092857 84907142
L11278571 84969047
L11340476 85030952
L11402380 85154761
L11402380 85340476
L11340476 85464285
L11278571 85526190
L11154761 85588095
L10659523 85588095
L10659523 84288095
L11092857 84288095
L11216666 84350000
L11278571 84411904
L11340476 84535714
L11340476 84659523
L11278571 84783333
L11216666 84845238
L11092857 84907142
L10659523 84907142
" />
</g></g>
<g style="fill:#000000; fill-opacity:0.0; 
stroke:#000000; stroke-width:21200.000000; stroke-opacity:1; 
stroke-linecap:round; stroke-linejoin:round;">
</g>
<g style="fill:#000000; fill-opacity:0.0; 
stroke:#000000; stroke-width:150000.000000; stroke-opacity:1; 
stroke-linecap:round; stroke-linejoin:round;">
<text x="11000000.000000" y="135650000.000000"
textLength="1450000.000000" font-size="1733333.000000" lengthAdjust="spacingAndGlyphs"
text-anchor="middle" opacity="0">C</text>
<g class="stroked-text"><desc>C</desc>
<path d="M11402380 135464285
L11340476 135526190
L11154761 135588095
L11030952 135588095
L10845238 135526190
L10721428 135402380
L10659523 135278571
L10597619 135030952
L10597619 134845238
L10659523 134597619
L10721428 134473809
L10845238 134350000
L11030952 134288095
L11154761 134288095
L11340476 134350000
L11402380 134411904
" />
</g></g>
<g style="fill:#000000; fill-opacity:0.0; 
stroke:#000000; stroke-width:21200.000000; stroke-opacity:1; 
stroke-linecap:round; stroke-linejoin:round;">
</g>
<g style="fill:#000000; fill-opacity:0.0; 
stroke:#000000; stroke-width:150000.000000; stroke-opacity:1; 
stroke-linecap:round; stroke-linejoin:round;">
<text x="11000000.000000" y="185650000.000000"
textLength="1450000.000000" font-size="1733333.000000" lengthAdjust="spacingAndGlyphs"
text-anchor="middle" opacity="0">D</text>
<g class="stroked-text"><desc>D</desc>
<path d="M10659523 185588095
L10659523 184288095
L10969047 184288095
L11154761 184350000
L11278571 184473809
L11340476 184597619
L11402380 184845238
L11402380 185030952
L11340476 185278571
L11278571 185402380
L11154761 185526190
L10969047 185588095
L10659523 185588095
" />
</g></g>
<g style="fill:#000000; fill-opacity:0.0; 
stroke:#000000; stroke-width:21200.000000; stroke-opacity:1; 
stroke-linecap:round; stroke-linejoin:round;">
</g>
<g style="fill:#000000; fill-opacity:0.0; 
stroke:#000000; stroke-width:150000.000000; stroke-opacity:1; 
stroke-linecap:round; stroke-linejoin:round;">
<path d="M287002200 60000000
L285002200 60000000
" />
</g>
<g style="fill:#000000; fill-opacity:0.0; 
stroke:#000000; stroke-width:21200.000000; stroke-opacity:1; 
stroke-linecap:round; stroke-linejoin:round;">
</g>
<g style="fill:#000000; fill-opacity:0.0; 
stroke:#000000; stroke-width:150000.000000; stroke-opacity:1; 
stroke-linecap:round; stroke-linejoin:round;">
<path d="M287002200 110000000
L285002200 110000000
" />
</g>
<g style="fill:#000000; fill-opacity:0.0; 
stroke:#000000; stroke-width:21200.000000; stroke-opacity:1; 
stroke-linecap:round; stroke-linejoin:round;">
</g>
<g style="fill:#000000; fill-opacity:0.0; 
stroke:#000000; stroke-width:150000.000000; stroke-opacity:1; 
stroke-linecap:round; stroke-linejoin:round;">
<path d="M287002200 160000000
L285002200 160000000
" />
</g>
<g style="fill:#000000; fill-opacity:0.0; 
stroke:#000000; stroke-width:21200.000000; stroke-opacity:1; 
stroke-linecap:round; stroke-linejoin:round;">
</g>
<g style="fill:#000000; fill-opacity:0.0; 
stroke:#000000; stroke-width:150000.000000; stroke-opacity:1; 
stroke-linecap:round; stroke-linejoin:round;">
<text x="286002200.000000" y="35650000.000000"
textLength="1264286.000000" font-size="1733333.000000" lengthAdjust="spacingAndGlyphs"
text-anchor="middle" opacity="0">A</text>
<g class="stroked-text"><desc>A</desc>
<path d="M285692676 35216666
L286311723 35216666
" />
<path d="M285568866 35588095
L286002200 34288095
L286435533 35588095
" />
</g></g>
<g style="fill:#000000; fill-opacity:0.0; 
stroke:#000000; stroke-width:21200.000000; stroke-opacity:1; 
stroke-linecap:round; stroke-linejoin:round;">
</g>
<g style="fill:#000000; fill-opacity:0.0; 
stroke:#000000; stroke-width:150000.000000; stroke-opacity:1; 
stroke-linecap:round; stroke-linejoin:round;">
<text x="286002200.000000" y="85650000.000000"
textLength="1450000.000000" font-size="1733333.000000" lengthAdjust="spacingAndGlyphs"
text-anchor="middle" opacity="0">B</text>
<g class="stroked-text"><desc>B</desc>
<path d="M286095057 84907142
L286280771 84969047
L286342676 85030952
L286404580 85154761
L286404580 85340476
L286342676 85464285
L286280771 85526190
L286156961 85588095
L285661723 85588095
L285661723 84288095
L286095057 84288095
L286218866 84350000
L286280771 84411904
L286342676 84535714
L286342676 84659523
L286280771 84783333
L286218866 84845238
L286095057 84907142
L285661723 84907142
" />
</g></g>
<g style="fill:#000000; fill-opacity:0.0; 
stroke:#000000; stroke-width:21200.000000; stroke-opacity:1; 
stroke-linecap:round; stroke-linejoin:round;">
</g>
<g style="fill:#000000; fill-opacity:0.0; 
stroke:#000000; stroke-width:150000.000000; stroke-opacity:1; 
stroke-linecap:round; stroke-linejoin:round;">
<text x="286002200.000000" y="135650000.000000"
textLength="1450000.000000" font-size="1733333.000000" lengthAdjust="spacingAndGlyphs"
text-anchor="middle" opacity="0">C</text>
<g class="stroked-text"><desc>C</desc>
<path d="M286404580 135464285
L286342676 135526190
L286156961 135588095
L286033152 135588095
L285847438 135526190
L285723628 135402380
L285661723 135278571
L285599819 135030952
L285599819 134845238
L285661723 134597619
L285723628 134473809
L285847438 134350000
L286033152 134288095
L286156961 134288095
L286342676 134350000
L286404580 134411904
" />
</g></g>
<g style="fill:#000000; fill-opacity:0.0; 
stroke:#000000; stroke-width:21200.000000; stroke-opacity:1; 
stroke-linecap:round; stroke-linejoin:round;">
</g>
<g style="fill:#000000; fill-opacity:0.0; 
stroke:#000000; stroke-width:150000.000000; stroke-opacity:1; 
stroke-linecap:round; stroke-linejoin:round;">
<text x="286002200.000000" y="185650000.000000"
textLength="1450000.000000" font-size="1733333.000000" lengthAdjust="spacingAndGlyphs"
text-anchor="middle" opacity="0">D</text>
<g class="stroked-text"><desc>D</desc>
<path d="M285661723 185588095
L285661723 184288095
L285971247 184288095
L286156961 184350000
L286280771 184473809
L286342676 184597619
L286404580 184845238
L286404580 185030952
L286342676 185278571
L286280771 185402380
L286156961 185526190
L285971247 185588095
L285661723 185588095
" />
</g></g>
<g style="fill:#000000; fill-opacity:0.0; 
stroke:#000000; stroke-width:21200.000000; stroke-opacity:1; 
stroke-linecap:round; stroke-linejoin:round;">
</g>
<g style="fill:#000000; fill-opacity:0.0; 
stroke:#000000; stroke-width:150000.000000; stroke-opacity:1; 
stroke-linecap:round; stroke-linejoin:round;">
<text x="200002200.000000" y="193857200.000000"
textLength="7007143.000000" font-size="2000000.000000" lengthAdjust="spacingAndGlyphs"
text-anchor="start" opacity="0">Date: </text>
<g class="stroked-text"><desc>Date: </desc>
<path d="M200434342 193785771
L200434342 192285771
L200791485 192285771
L201005771 192357200
L201148628 192500057
L201220057 192642914
L201291485 192928628
L201291485 193142914
L201220057 193428628
L201148628 193571485
L201005771 193714342
L200791485 193785771
L200434342 193785771
" />
<path d="M202577200 193785771
L202577200 193000057
L202505771 192857200
L202362914 192785771
L202077200 192785771
L201934342 192857200
" />
<path d="M202577200 193714342
L202434342 193785771
L202077200 193785771
L201934342 193714342
L201862914 193571485
L201862914 193428628
L201934342 193285771
L202077200 193214342
L202434342 193214342
L202577200 193142914
" />
<path d="M203077200 192785771
L203648628 192785771
" />
<path d="M203291485 192285771
L203291485 193571485
L203362914 193714342
L203505771 193785771
L203648628 193785771
" />
<path d="M204720057 193714342
L204577200 193785771
L204291485 193785771
L204148628 193714342
L204077200 193571485
L204077200 193000057
L204148628 192857200
L204291485 192785771
L204577200 192785771
L204720057 192857200
L204791485 193000057
L204791485 193142914
L204077200 193285771
" />
<path d="M205434342 193642914
L205505771 193714342
L205434342 193785771
L205362914 193714342
L205434342 193642914
L205434342 193785771
" />
<path d="M205434342 192857200
L205505771 192928628
L205434342 193000057
L205362914 192928628
L205434342 192857200
L205434342 193000057
" />
</g></g>
<g style="fill:#000000; fill-opacity:0.0; 
stroke:#000000; stroke-width:21200.000000; stroke-opacity:1; 
stroke-linecap:round; stroke-linejoin:round;">
</g>
<g style="fill:#000000; fill-opacity:0.0; 
stroke:#000000; stroke-width:150000.000000; stroke-opacity:1; 
stroke-linecap:round; stroke-linejoin:round;">
<path d="M177002200 194507200
L285002200 194507200
" />
</g>
<g style="fill:#000000; fill-opacity:0.0; 
stroke:#000000; stroke-width:21200.000000; stroke-opacity:1; 
stroke-linecap:round; stroke-linejoin:round;">
</g>
<g style="fill:#000000; fill-opacity:0.0; 
stroke:#000000; stroke-width:150000.000000; stroke-opacity:1; 
stroke-linecap:round; stroke-linejoin:round;">
<text x="178002200.000000" y="196657200.000000"
textLength="33364286.000000" font-size="2000000.000000" lengthAdjust="spacingAndGlyphs"
text-anchor="start" opacity="0">KiCad E.D.A.  pcbnew (6.0.6)</text>
<g class="stroked-text"><desc>KiCad E.D.A.  pcbnew (6.0.6)</desc>
<path d="M178434342 196585771
L178434342 195085771
" />
<path d="M179291485 196585771
L178648628 195728628
" />
<path d="M179291485 195085771
L178434342 195942914
" />
<path d="M179934342 196585771
L179934342 195585771
" />
<path d="M179934342 195085771
L179862914 195157200
L179934342 195228628
L180005771 195157200
L179934342 195085771
L179934342 195228628
" />
<path d="M181505771 196442914
L181434342 196514342
L181220057 196585771
L181077200 196585771
L180862914 196514342
L180720057 196371485
L180648628 196228628
L180577200 195942914
L180577200 195728628
L180648628 195442914
L180720057 195300057
L180862914 195157200
L181077200 195085771
L181220057 195085771
L181434342 195157200
L181505771 195228628
" />
<path d="M182791485 196585771
L182791485 195800057
L182720057 195657200
L182577200 195585771
L182291485 195585771
L182148628 195657200
" />
<path d="M182791485 196514342
L182648628 196585771
L182291485 196585771
L182148628 196514342
L182077200 196371485
L182077200 196228628
L182148628 196085771
L182291485 196014342
L182648628 196014342
L182791485 195942914
" />
<path d="M184148628 196585771
L184148628 195085771
" />
<path d="M184148628 196514342
L184005771 196585771
L183720057 196585771
L183577200 196514342
L183505771 196442914
L183434342 196300057
L183434342 195871485
L183505771 195728628
L183577200 195657200
L183720057 195585771
L184005771 195585771
L184148628 195657200
" />
<path d="M186005771 195800057
L186505771 195800057
" />
<path d="M186720057 196585771
L186005771 196585771
L186005771 195085771
L186720057 195085771
" />
<path d="M187362914 196442914
L187434342 196514342
L187362914 196585771
L187291485 196514342
L187362914 196442914
L187362914 196585771
" />
<path d="M188077200 196585771
L188077200 195085771
L188434342 195085771
L188648628 195157200
L188791485 195300057
L188862914 195442914
L188934342 195728628
L188934342 195942914
L188862914 196228628
L188791485 196371485
L188648628 196514342
L188434342 196585771
L188077200 196585771
" />
<path d="M189577200 196442914
L189648628 196514342
L189577200 196585771
L189505771 196514342
L189577200 196442914
L189577200 196585771
" />
<path d="M190220057 196157200
L190934342 196157200
" />
<path d="M190077200 196585771
L190577200 195085771
L191077200 196585771
" />
<path d="M191577200 196442914
L191648628 196514342
L191577200 196585771
L191505771 196514342
L191577200 196442914
L191577200 196585771
" />
<path d="M194577200 195585771
L194577200 197085771
" />
<path d="M194577200 195657200
L194720057 195585771
L195005771 195585771
L195148628 195657200
L195220057 195728628
L195291485 195871485
L195291485 196300057
L195220057 196442914
L195148628 196514342
L195005771 196585771
L194720057 196585771
L194577200 196514342
" />
<path d="M196577200 196514342
L196434342 196585771
L196148628 196585771
L196005771 196514342
L195934342 196442914
L195862914 196300057
L195862914 195871485
L195934342 195728628
L196005771 195657200
L196148628 195585771
L196434342 195585771
L196577200 195657200
" />
<path d="M197220057 196585771
L197220057 195085771
" />
<path d="M197220057 195657200
L197362914 195585771
L197648628 195585771
L197791485 195657200
L197862914 195728628
L197934342 195871485
L197934342 196300057
L197862914 196442914
L197791485 196514342
L197648628 196585771
L197362914 196585771
L197220057 196514342
" />
<path d="M198577200 195585771
L198577200 196585771
" />
<path d="M198577200 195728628
L198648628 195657200
L198791485 195585771
L199005771 195585771
L199148628 195657200
L199220057 195800057
L199220057 196585771
" />
<path d="M200505771 196514342
L200362914 196585771
L200077200 196585771
L199934342 196514342
L199862914 196371485
L199862914 195800057
L199934342 195657200
L200077200 195585771
L200362914 195585771
L200505771 195657200
L200577200 195800057
L200577200 195942914
L199862914 196085771
" />
<path d="M201077200 195585771
L201362914 196585771
L201648628 195871485
L201934342 196585771
L202220057 195585771
" />
<path d="M204362914 197157200
L204291485 197085771
L204148628 196871485
L204077200 196728628
L204005771 196514342
L203934342 196157200
L203934342 195871485
L204005771 195514342
L204077200 195300057
L204148628 195157200
L204291485 194942914
L204362914 194871485
" />
<path d="M205577200 195085771
L205291485 195085771
L205148628 195157200
L205077200 195228628
L204934342 195442914
L204862914 195728628
L204862914 196300057
L204934342 196442914
L205005771 196514342
L205148628 196585771
L205434342 196585771
L205577200 196514342
L205648628 196442914
L205720057 196300057
L205720057 195942914
L205648628 195800057
L205577200 195728628
L205434342 195657200
L205148628 195657200
L205005771 195728628
L204934342 195800057
L204862914 195942914
" />
<path d="M206362914 196442914
L206434342 196514342
L206362914 196585771
L206291485 196514342
L206362914 196442914
L206362914 196585771
" />
<path d="M207362914 195085771
L207505771 195085771
L207648628 195157200
L207720057 195228628
L207791485 195371485
L207862914 195657200
L207862914 196014342
L207791485 196300057
L207720057 196442914
L207648628 196514342
L207505771 196585771
L207362914 196585771
L207220057 196514342
L207148628 196442914
L207077200 196300057
L207005771 196014342
L207005771 195657200
L207077200 195371485
L207148628 195228628
L207220057 195157200
L207362914 195085771
" />
<path d="M208505771 196442914
L208577200 196514342
L208505771 196585771
L208434342 196514342
L208505771 196442914
L208505771 196585771
" />
<path d="M209862914 195085771
L209577200 195085771
L209434342 195157200
L209362914 195228628
L209220057 195442914
L209148628 195728628
L209148628 196300057
L209220057 196442914
L209291485 196514342
L209434342 196585771
L209720057 196585771
L209862914 196514342
L209934342 196442914
L210005771 196300057
L210005771 195942914
L209934342 195800057
L209862914 195728628
L209720057 195657200
L209434342 195657200
L209291485 195728628
L209220057 195800057
L209148628 195942914
" />
<path d="M210505771 197157200
L210577200 197085771
L210720057 196871485
L210791485 196728628
L210862914 196514342
L210934342 196157200
L210934342 195871485
L210862914 195514342
L210791485 195300057
L210720057 195157200
L210577200 194942914
L210505771 194871485
" />
</g></g>
<g style="fill:#000000; fill-opacity:0.0; 
stroke:#000000; stroke-width:21200.000000; stroke-opacity:1; 
stroke-linecap:round; stroke-linejoin:round;">
</g>
<g style="fill:#000000; fill-opacity:0.0; 
stroke:#000000; stroke-width:150000.000000; stroke-opacity:1; 
stroke-linecap:round; stroke-linejoin:round;">
<path d="M177002200 191507200
L285002200 191507200
" />
</g>
<g style="fill:#000000; fill-opacity:0.0; 
stroke:#000000; stroke-width:21200.000000; stroke-opacity:1; 
stroke-linecap:round; stroke-linejoin:round;">
</g>
<g style="fill:#000000; fill-opacity:0.0; 
stroke:#000000; stroke-width:300000.000000; stroke-opacity:1; 
stroke-linecap:round; stroke-linejoin:round;">
<text x="263002200.000000" y="193857200.000000"
textLength="5935714.000000" font-size="2000000.000000" lengthAdjust="spacingAndGlyphs"
text-anchor="start" opacity="0">Rev: </text>
<g class="stroked-text"><desc>Rev: </desc>
<path d="M264411485 193785771
L263911485 193071485
" />
<path d="M263554342 193785771
L263554342 192285771
L264125771 192285771
L264268628 192357200
L264340057 192428628
L264411485 192571485
L264411485 192785771
L264340057 192928628
L264268628 193000057
L264125771 193071485
L263554342 193071485
" />
<path d="M265625771 193714342
L265482914 193785771
L265197200 193785771
L265054342 193714342
L264982914 193571485
L264982914 193000057
L265054342 192857200
L265197200 192785771
L265482914 192785771
L265625771 192857200
L265697200 193000057
L265697200 193142914
L264982914 193285771
" />
<path d="M266197200 192785771
L266554342 193785771
L266911485 192785771
" />
<path d="M267482914 193642914
L267554342 193714342
L267482914 193785771
L267411485 193714342
L267482914 193642914
L267482914 193785771
" />
<path d="M267482914 192857200
L267554342 192928628
L267482914 193000057
L267411485 192928628
L267482914 192857200
L267482914 193000057
" />
</g></g>
<g style="fill:#000000; fill-opacity:0.0; 
stroke:#000000; stroke-width:21200.000000; stroke-opacity:1; 
stroke-linecap:round; stroke-linejoin:round;">
</g>
<g style="fill:#000000; fill-opacity:0.0; 
stroke:#000000; stroke-width:150000.000000; stroke-opacity:1; 
stroke-linecap:round; stroke-linejoin:round;">
<text x="178002200.000000" y="193857200.000000"
textLength="9604286.000000" font-size="2000000.000000" lengthAdjust="spacingAndGlyphs"
text-anchor="start" opacity="0">Size: A4</text>
<g class="stroked-text"><desc>Size: A4</desc>
<path d="M178362914 193714342
L178577200 193785771
L178934342 193785771
L179077200 193714342
L179148628 193642914
L179220057 193500057
L179220057 193357200
L179148628 193214342
L179077200 193142914
L178934342 193071485
L178648628 193000057
L178505771 192928628
L178434342 192857200
L178362914 192714342
L178362914 192571485
L178434342 192428628
L178505771 192357200
L178648628 192285771
L179005771 192285771
L179220057 192357200
" />
<path d="M179862914 193785771
L179862914 192785771
" />
<path d="M179862914 192285771
L179791485 192357200
L179862914 192428628
L179934342 192357200
L179862914 192285771
L179862914 192428628
" />
<path d="M180434342 192785771
L181220057 192785771
L180434342 193785771
L181220057 193785771
" />
<path d="M182362914 193714342
L182220057 193785771
L181934342 193785771
L181791485 193714342
L181720057 193571485
L181720057 193000057
L181791485 192857200
L181934342 192785771
L182220057 192785771
L182362914 192857200
L182434342 193000057
L182434342 193142914
L181720057 193285771
" />
<path d="M183077200 193642914
L183148628 193714342
L183077200 193785771
L183005771 193714342
L183077200 193642914
L183077200 193785771
" />
<path d="M183077200 192857200
L183148628 192928628
L183077200 193000057
L183005771 192928628
L183077200 192857200
L183077200 193000057
" />
<path d="M184862914 193357200
L185577200 193357200
" />
<path d="M184720057 193785771
L185220057 192285771
L185720057 193785771
" />
<path d="M186862914 192785771
L186862914 193785771
" />
<path d="M186505771 192214342
L186148628 193285771
L187077200 193285771
" />
</g></g>
<g style="fill:#000000; fill-opacity:0.0; 
stroke:#000000; stroke-width:21200.000000; stroke-opacity:1; 
stroke-linecap:round; stroke-linejoin:round;">
</g>
<g style="fill:#000000; fill-opacity:0.0; 
stroke:#000000; stroke-width:150000.000000; stroke-opacity:1; 
stroke-linecap:round; stroke-linejoin:round;">
<text x="263002200.000000" y="196657200.000000"
textLength="8507143.000000" font-size="2000000.000000" lengthAdjust="spacingAndGlyphs"
text-anchor="start" opacity="0">Id: 1/1</text>
<g class="stroked-text"><desc>Id: 1/1</desc>
<path d="M263434342 196585771
L263434342 195085771
" />
<path d="M264791485 196585771
L264791485 195085771
" />
<path d="M264791485 196514342
L264648628 196585771
L264362914 196585771
L264220057 196514342
L264148628 196442914
L264077200 196300057
L264077200 195871485
L264148628 195728628
L264220057 195657200
L264362914 195585771
L264648628 195585771
L264791485 195657200
" />
<path d="M265505771 196442914
L265577200 196514342
L265505771 196585771
L265434342 196514342
L265505771 196442914
L265505771 196585771
" />
<path d="M265505771 195657200
L265577200 195728628
L265505771 195800057
L265434342 195728628
L265505771 195657200
L265505771 195800057
" />
<path d="M268148628 196585771
L267291485 196585771
" />
<path d="M267720057 196585771
L267720057 195085771
L267577200 195300057
L267434342 195442914
L267291485 195514342
" />
<path d="M269862914 195014342
L268577200 196942914
" />
<path d="M271148628 196585771
L270291485 196585771
" />
<path d="M270720057 196585771
L270720057 195085771
L270577200 195300057
L270434342 195442914
L270291485 195514342
" />
</g></g>
<g style="fill:#000000; fill-opacity:0.0; 
stroke:#000000; stroke-width:21200.000000; stroke-opacity:1; 
stroke-linecap:round; stroke-linejoin:round;">
</g>
<g style="fill:#000000; fill-opacity:0.0; 
stroke:#000000; stroke-width:150000.000000; stroke-opacity:1; 
stroke-linecap:round; stroke-linejoin:round;">
<path d="M177002200 187507200
L285002200 187507200
" />
</g>
<g style="fill:#000000; fill-opacity:0.0; 
stroke:#000000; stroke-width:21200.000000; stroke-opacity:1; 
stroke-linecap:round; stroke-linejoin:round;">
</g>
<g style="fill:#000000; fill-opacity:0.0; 
stroke:#000000; stroke-width:400000.000000; stroke-opacity:1; 
stroke-linecap:round; stroke-linejoin:round;">
<text x="178002200.000000" y="190307200.000000"
textLength="9409643.000000" font-size="2666666.000000" lengthAdjust="spacingAndGlyphs"
text-anchor="start" opacity="0">Title: </text>
<g class="stroked-text"><desc>Title: </desc>
<path d="M178714580 188211961
L179857438 188211961
" />
<path d="M179036009 190211961
L179286009 188211961
" />
<path d="M180274104 190211961
L180440771 188878628
" />
<path d="M180524104 188211961
L180416961 188307200
L180500295 188402438
L180607438 188307200
L180524104 188211961
L180500295 188402438
" />
<path d="M181107438 188878628
L181869342 188878628
" />
<path d="M181476485 188211961
L181262200 189926247
L181333628 190116723
L181512200 190211961
L181702676 190211961
" />
<path d="M182655057 190211961
L182476485 190116723
L182405057 189926247
L182619342 188211961
" />
<path d="M184190771 190116723
L183988390 190211961
L183607438 190211961
L183428866 190116723
L183357438 189926247
L183452676 189164342
L183571723 188973866
L183774104 188878628
L184155057 188878628
L184333628 188973866
L184405057 189164342
L184381247 189354819
L183405057 189545295
" />
<path d="M185155057 190021485
L185238390 190116723
L185131247 190211961
L185047914 190116723
L185155057 190021485
L185131247 190211961
" />
<path d="M185286009 188973866
L185369342 189069104
L185262200 189164342
L185178866 189069104
L185286009 188973866
L185262200 189164342
" />
</g></g>
<g style="fill:#000000; fill-opacity:0.0; 
stroke:#000000; stroke-width:21200.000000; stroke-opacity:1; 
stroke-linecap:round; stroke-linejoin:round;">
</g>
<g style="fill:#000000; fill-opacity:0.0; 
stroke:#000000; stroke-width:150000.000000; stroke-opacity:1; 
stroke-linecap:round; stroke-linejoin:round;">
<text x="178002200.000000" y="186457200.000000"
textLength="30805714.000000" font-size="2000000.000000" lengthAdjust="spacingAndGlyphs"
text-anchor="start" opacity="0">File: boardKicad.kicad_pcb</text>
<g class="stroked-text"><desc>File: boardKicad.kicad_pcb</desc>
<path d="M178934342 185600057
L178434342 185600057
" />
<path d="M178434342 186385771
L178434342 184885771
L179148628 184885771
" />
<path d="M179720057 186385771
L179720057 185385771
" />
<path d="M179720057 184885771
L179648628 184957200
L179720057 185028628
L179791485 184957200
L179720057 184885771
L179720057 185028628
" />
<path d="M180648628 186385771
L180505771 186314342
L180434342 186171485
L180434342 184885771
" />
<path d="M181791485 186314342
L181648628 186385771
L181362914 186385771
L181220057 186314342
L181148628 186171485
L181148628 185600057
L181220057 185457200
L181362914 185385771
L181648628 185385771
L181791485 185457200
L181862914 185600057
L181862914 185742914
L181148628 185885771
" />
<path d="M182505771 186242914
L182577200 186314342
L182505771 186385771
L182434342 186314342
L182505771 186242914
L182505771 186385771
" />
<path d="M182505771 185457200
L182577200 185528628
L182505771 185600057
L182434342 185528628
L182505771 185457200
L182505771 185600057
" />
<path d="M184362914 186385771
L184362914 184885771
" />
<path d="M184362914 185457200
L184505771 185385771
L184791485 185385771
L184934342 185457200
L185005771 185528628
L185077200 185671485
L185077200 186100057
L185005771 186242914
L184934342 186314342
L184791485 186385771
L184505771 186385771
L184362914 186314342
" />
<path d="M185934342 186385771
L185791485 186314342
L185720057 186242914
L185648628 186100057
L185648628 185671485
L185720057 185528628
L185791485 185457200
L185934342 185385771
L186148628 185385771
L186291485 185457200
L186362914 185528628
L186434342 185671485
L186434342 186100057
L186362914 186242914
L186291485 186314342
L186148628 186385771
L185934342 186385771
" />
<path d="M187720057 186385771
L187720057 185600057
L187648628 185457200
L187505771 185385771
L187220057 185385771
L187077200 185457200
" />
<path d="M187720057 186314342
L187577200 186385771
L187220057 186385771
L187077200 186314342
L187005771 186171485
L187005771 186028628
L187077200 185885771
L187220057 185814342
L187577200 185814342
L187720057 185742914
" />
<path d="M188434342 186385771
L188434342 185385771
" />
<path d="M188434342 185671485
L188505771 185528628
L188577200 185457200
L188720057 185385771
L188862914 185385771
" />
<path d="M190005771 186385771
L190005771 184885771
" />
<path d="M190005771 186314342
L189862914 186385771
L189577200 186385771
L189434342 186314342
L189362914 186242914
L189291485 186100057
L189291485 185671485
L189362914 185528628
L189434342 185457200
L189577200 185385771
L189862914 185385771
L190005771 185457200
" />
<path d="M190720057 186385771
L190720057 184885771
" />
<path d="M191577200 186385771
L190934342 185528628
" />
<path d="M191577200 184885771
L190720057 185742914
" />
<path d="M192220057 186385771
L192220057 185385771
" />
<path d="M192220057 184885771
L192148628 184957200
L192220057 185028628
L192291485 184957200
L192220057 184885771
L192220057 185028628
" />
<path d="M193577200 186314342
L193434342 186385771
L193148628 186385771
L193005771 186314342
L192934342 186242914
L192862914 186100057
L192862914 185671485
L192934342 185528628
L193005771 185457200
L193148628 185385771
L193434342 185385771
L193577200 185457200
" />
<path d="M194862914 186385771
L194862914 185600057
L194791485 185457200
L194648628 185385771
L194362914 185385771
L194220057 185457200
" />
<path d="M194862914 186314342
L194720057 186385771
L194362914 186385771
L194220057 186314342
L194148628 186171485
L194148628 186028628
L194220057 185885771
L194362914 185814342
L194720057 185814342
L194862914 185742914
" />
<path d="M196220057 186385771
L196220057 184885771
" />
<path d="M196220057 186314342
L196077200 186385771
L195791485 186385771
L195648628 186314342
L195577200 186242914
L195505771 186100057
L195505771 185671485
L195577200 185528628
L195648628 185457200
L195791485 185385771
L196077200 185385771
L196220057 185457200
" />
<path d="M196934342 186242914
L197005771 186314342
L196934342 186385771
L196862914 186314342
L196934342 186242914
L196934342 186385771
" />
<path d="M197648628 186385771
L197648628 184885771
" />
<path d="M197791485 185814342
L198220057 186385771
" />
<path d="M198220057 185385771
L197648628 185957200
" />
<path d="M198862914 186385771
L198862914 185385771
" />
<path d="M198862914 184885771
L198791485 184957200
L198862914 185028628
L198934342 184957200
L198862914 184885771
L198862914 185028628
" />
<path d="M200220057 186314342
L200077200 186385771
L199791485 186385771
L199648628 186314342
L199577200 186242914
L199505771 186100057
L199505771 185671485
L199577200 185528628
L199648628 185457200
L199791485 185385771
L200077200 185385771
L200220057 185457200
" />
<path d="M201505771 186385771
L201505771 185600057
L201434342 185457200
L201291485 185385771
L201005771 185385771
L200862914 185457200
" />
<path d="M201505771 186314342
L201362914 186385771
L201005771 186385771
L200862914 186314342
L200791485 186171485
L200791485 186028628
L200862914 185885771
L201005771 185814342
L201362914 185814342
L201505771 185742914
" />
<path d="M202862914 186385771
L202862914 184885771
" />
<path d="M202862914 186314342
L202720057 186385771
L202434342 186385771
L202291485 186314342
L202220057 186242914
L202148628 186100057
L202148628 185671485
L202220057 185528628
L202291485 185457200
L202434342 185385771
L202720057 185385771
L202862914 185457200
" />
<path d="M203220057 186528628
L204362914 186528628
" />
<path d="M204720057 185385771
L204720057 186885771
" />
<path d="M204720057 185457200
L204862914 185385771
L205148628 185385771
L205291485 185457200
L205362914 185528628
L205434342 185671485
L205434342 186100057
L205362914 186242914
L205291485 186314342
L205148628 186385771
L204862914 186385771
L204720057 186314342
" />
<path d="M206720057 186314342
L206577200 186385771
L206291485 186385771
L206148628 186314342
L206077200 186242914
L206005771 186100057
L206005771 185671485
L206077200 185528628
L206148628 185457200
L206291485 185385771
L206577200 185385771
L206720057 185457200
" />
<path d="M207362914 186385771
L207362914 184885771
" />
<path d="M207362914 185457200
L207505771 185385771
L207791485 185385771
L207934342 185457200
L208005771 185528628
L208077200 185671485
L208077200 186100057
L208005771 186242914
L207934342 186314342
L207791485 186385771
L207505771 186385771
L207362914 186314342
" />
</g></g>
<g style="fill:#000000; fill-opacity:0.0; 
stroke:#000000; stroke-width:21200.000000; stroke-opacity:1; 
stroke-linecap:round; stroke-linejoin:round;">
</g>
<g style="fill:#000000; fill-opacity:0.0; 
stroke:#000000; stroke-width:150000.000000; stroke-opacity:1; 
stroke-linecap:round; stroke-linejoin:round;">
<path d="M177002200 181507200
L285002200 181507200
" />
</g>
<g style="fill:#000000; fill-opacity:0.0; 
stroke:#000000; stroke-width:21200.000000; stroke-opacity:1; 
stroke-linecap:round; stroke-linejoin:round;">
</g>
<g style="fill:#000000; fill-opacity:0.0; 
stroke:#000000; stroke-width:150000.000000; stroke-opacity:1; 
stroke-linecap:round; stroke-linejoin:round;">
<text x="178002200.000000" y="183757200.000000"
textLength="8221429.000000" font-size="2000000.000000" lengthAdjust="spacingAndGlyphs"
text-anchor="start" opacity="0">Sheet: </text>
<g class="stroked-text"><desc>Sheet: </desc>
<path d="M178362914 183614342
L178577200 183685771
L178934342 183685771
L179077200 183614342
L179148628 183542914
L179220057 183400057
L179220057 183257200
L179148628 183114342
L179077200 183042914
L178934342 182971485
L178648628 182900057
L178505771 182828628
L178434342 182757200
L178362914 182614342
L178362914 182471485
L178434342 182328628
L178505771 182257200
L178648628 182185771
L179005771 182185771
L179220057 182257200
" />
<path d="M179862914 183685771
L179862914 182185771
" />
<path d="M180505771 183685771
L180505771 182900057
L180434342 182757200
L180291485 182685771
L180077200 182685771
L179934342 182757200
L179862914 182828628
" />
<path d="M181791485 183614342
L181648628 183685771
L181362914 183685771
L181220057 183614342
L181148628 183471485
L181148628 182900057
L181220057 182757200
L181362914 182685771
L181648628 182685771
L181791485 182757200
L181862914 182900057
L181862914 183042914
L181148628 183185771
" />
<path d="M183077200 183614342
L182934342 183685771
L182648628 183685771
L182505771 183614342
L182434342 183471485
L182434342 182900057
L182505771 182757200
L182648628 182685771
L182934342 182685771
L183077200 182757200
L183148628 182900057
L183148628 183042914
L182434342 183185771
" />
<path d="M183577200 182685771
L184148628 182685771
" />
<path d="M183791485 182185771
L183791485 183471485
L183862914 183614342
L184005771 183685771
L184148628 183685771
" />
<path d="M184648628 183542914
L184720057 183614342
L184648628 183685771
L184577200 183614342
L184648628 183542914
L184648628 183685771
" />
<path d="M184648628 182757200
L184720057 182828628
L184648628 182900057
L184577200 182828628
L184648628 182757200
L184648628 182900057
" />
</g></g>
<g style="fill:#000000; fill-opacity:0.0; 
stroke:#000000; stroke-width:21200.000000; stroke-opacity:1; 
stroke-linecap:round; stroke-linejoin:round;">
</g>
<g style="fill:#000000; fill-opacity:0.0; 
stroke:#000000; stroke-width:300000.000000; stroke-opacity:1; 
stroke-linecap:round; stroke-linejoin:round;">
<text x="178002200.000000" y="180757200.000000"
textLength="150000.000000" font-size="2000000.000000" lengthAdjust="spacingAndGlyphs"
text-anchor="start" opacity="0"></text>
<g class="stroked-text"><desc></desc>
</g></g>
<g style="fill:#000000; fill-opacity:0.0; 
stroke:#000000; stroke-width:21200.000000; stroke-opacity:1; 
stroke-linecap:round; stroke-linejoin:round;">
</g>
<g style="fill:#000000; fill-opacity:0.0; 
stroke:#000000; stroke-width:150000.000000; stroke-opacity:1; 
stroke-linecap:round; stroke-linejoin:round;">
<text x="178002200.000000" y="177757200.000000"
textLength="300000.000000" font-size="2000000.000000" lengthAdjust="spacingAndGlyphs"
text-anchor="start" opacity="0"></text>
<g class="stroked-text"><desc></desc>
</g></g>
<g style="fill:#000000; fill-opacity:0.0; 
stroke:#000000; stroke-width:21200.000000; stroke-opacity:1; 
stroke-linecap:round; stroke-linejoin:round;">
</g>
<g style="fill:#000000; fill-opacity:0.0; 
stroke:#000000; stroke-width:150000.000000; stroke-opacity:1; 
stroke-linecap:round; stroke-linejoin:round;">
<text x="178002200.000000" y="174757200.000000"
textLength="150000.000000" font-size="2000000.000000" lengthAdjust="spacingAndGlyphs"
text-anchor="start" opacity="0"></text>
<g class="stroked-text"><desc></desc>
</g></g>
<g style="fill:#000000; fill-opacity:0.0; 
stroke:#000000; stroke-width:21200.000000; stroke-opacity:1; 
stroke-linecap:round; stroke-linejoin:round;">
</g>
<g style="fill:#000000; fill-opacity:0.0; 
stroke:#000000; stroke-width:150000.000000; stroke-opacity:1; 
stroke-linecap:round; stroke-linejoin:round;">
<text x="178002200.000000" y="171757200.000000"
textLength="150000.000000" font-size="2000000.000000" lengthAdjust="spacingAndGlyphs"
text-anchor="start" opacity="0"></text>
<g class="stroked-text"><desc></desc>
</g></g>
<g style="fill:#000000; fill-opacity:0.0; 
stroke:#000000; stroke-width:21200.000000; stroke-opacity:1; 
stroke-linecap:round; stroke-linejoin:round;">
</g>
<g style="fill:#000000; fill-opacity:0.0; 
stroke:#000000; stroke-width:150000.000000; stroke-opacity:1; 
stroke-linecap:round; stroke-linejoin:round;">
<text x="178002200.000000" y="168757200.000000"
textLength="150000.000000" font-size="2000000.000000" lengthAdjust="spacingAndGlyphs"
text-anchor="start" opacity="0"></text>
<g class="stroked-text"><desc></desc>
</g></g>
<g style="fill:#000000; fill-opacity:0.0; 
stroke:#000000; stroke-width:21200.000000; stroke-opacity:1; 
stroke-linecap:round; stroke-linejoin:round;">
</g>
<g style="fill:#000000; fill-opacity:0.0; 
stroke:#000000; stroke-width:150000.000000; stroke-opacity:1; 
stroke-linecap:round; stroke-linejoin:round;">
<path d="M197002200 191507200
L197002200 194507200
" />
</g>
<g style="fill:#000000; fill-opacity:0.0; 
stroke:#000000; stroke-width:21200.000000; stroke-opacity:1; 
stroke-linecap:round; stroke-linejoin:round;">
</g>
<g style="fill:#000000; fill-opacity:0.0; 
stroke:#000000; stroke-width:150000.000000; stroke-opacity:1; 
stroke-linecap:round; stroke-linejoin:round;">
<path d="M261002200 191507200
L261002200 198007200
" />
</g>
<g style="fill:#B4DBD2; fill-opacity:0.0; 
stroke:#B4DBD2; stroke-width:150000.000000; stroke-opacity:1; 
stroke-linecap:round; stroke-linejoin:round;">
</g>
<g style="fill:#B4DBD2; fill-opacity:0.0; 
stroke:#B4DBD2; stroke-width:120000.000000; stroke-opacity:1; 
stroke-linecap:round; stroke-linejoin:round;">
<text x="158700000.000000" y="97286500.000000"
textLength="2350000.000000" font-size="933333.000000" lengthAdjust="spacingAndGlyphs"
text-anchor="middle" opacity="0">MCP</text>
<g class="stroked-text"><desc>MCP</desc>
<path d="M157766666 97253166
L157766666 96553166
L158000000 97053166
L158233333 96553166
L158233333 97253166
" />
<path d="M158966666 97186500
L158933333 97219833
L158833333 97253166
L158766666 97253166
L158666666 97219833
L158600000 97153166
L158566666 97086500
L158533333 96953166
L158533333 96853166
L158566666 96719833
L158600000 96653166
L158666666 96586500
L158766666 96553166
L158833333 96553166
L158933333 96586500
L158966666 96619833
" />
<path d="M159266666 97253166
L159266666 96553166
L159533333 96553166
L159600000 96586500
L159633333 96619833
L159666666 96686500
L159666666 96786500
L159633333 96853166
L159600000 96886500
L159533333 96919833
L159266666 96919833
" />
</g><text x="158700000.000000" y="98413500.000000"
textLength="3489333.000000" font-size="933333.000000" lengthAdjust="spacingAndGlyphs"
text-anchor="middle" opacity="0">73831</text>
<g class="stroked-text"><desc>73831</desc>
<path d="M157133333 97680166
L157600000 97680166
L157300000 98380166
" />
<path d="M157800000 97680166
L158233333 97680166
L158000000 97946833
L158100000 97946833
L158166666 97980166
L158200000 98013500
L158233333 98080166
L158233333 98246833
L158200000 98313500
L158166666 98346833
L158100000 98380166
L157900000 98380166
L157833333 98346833
L157800000 98313500
" />
<path d="M158633333 97980166
L158566666 97946833
L158533333 97913500
L158500000 97846833
L158500000 97813500
L158533333 97746833
L158566666 97713500
L158633333 97680166
L158766666 97680166
L158833333 97713500
L158866666 97746833
L158900000 97813500
L158900000 97846833
L158866666 97913500
L158833333 97946833
L158766666 97980166
L158633333 97980166
L158566666 98013500
L158533333 98046833
L158500000 98113500
L158500000 98246833
L158533333 98313500
L158566666 98346833
L158633333 98380166
L158766666 98380166
L158833333 98346833
L158866666 98313500
L158900000 98246833
L158900000 98113500
L158866666 98046833
L158833333 98013500
L158766666 97980166
" />
<path d="M159133333 97680166
L159566666 97680166
L159333333 97946833
L159433333 97946833
L159500000 97980166
L159533333 98013500
L159566666 98080166
L159566666 98246833
L159533333 98313500
L159500000 98346833
L159433333 98380166
L159233333 98380166
L159166666 98346833
L159133333 98313500
" />
<path d="M160233333 98380166
L159833333 98380166
" />
<path d="M160033333 98380166
L160033333 97680166
L159966666 97780166
L159900000 97846833
L159833333 97880166
" />
</g><g transform="rotate(-45.000000 142801545.000000 109201545.000000)">
<text x="142801545.000000" y="109551545.000000"
textLength="1456000.000000" font-size="933333.000000" lengthAdjust="spacingAndGlyphs"
text-anchor="middle" opacity="0">AP</text>
</g>
<g class="stroked-text"><desc>AP</desc>
<path d="M142518702 109649379
L142754404 109413677
" />
<path d="M142612983 109837941
L142283000 109177974
L142942966 109507957
" />
<path d="M143107957 109342966
L142612983 108847991
L142801545 108659429
L142872255 108635859
L142919396 108635859
L142990106 108659429
L143060817 108730140
L143084387 108800851
L143084387 108847991
L143060817 108918702
L142872255 109107264
" />
</g><g transform="rotate(-45.000000 143598454.000000 109998454.000000)">
<text x="143598454.000000" y="110348454.000000"
textLength="3522667.000000" font-size="933333.000000" lengthAdjust="spacingAndGlyphs"
text-anchor="middle" opacity="0">2112K</text>
</g>
<g class="stroked-text"><desc>2112K</desc>
<path d="M142278521 110870552
L142278521 110823411
L142302091 110752701
L142419942 110634850
L142490653 110611279
L142537793 110611279
L142608504 110634850
L142655644 110681990
L142702785 110776271
L142702785 111341956
L143009198 111035543
" />
<path d="M143480602 110564139
L143197760 110846982
" />
<path d="M143339181 110705560
L142844206 110210586
L142867776 110328437
L142867776 110422718
L142844206 110493428
" />
<path d="M143952007 110092734
L143669164 110375577
" />
<path d="M143810586 110234156
L143315611 109739181
L143339181 109857032
L143339181 109951313
L143315611 110022024
" />
<path d="M143692734 109456338
L143692734 109409198
L143716305 109338487
L143834156 109220636
L143904866 109197066
L143952007 109197066
L144022718 109220636
L144069858 109267776
L144116998 109362057
L144116998 109927743
L144423411 109621330
" />
<path d="M144635543 109409198
L144140569 108914223
" />
<path d="M144918386 109126355
L144423411 109055644
" />
<path d="M144423411 108631380
L144423411 109197066
" />
</g><g transform="rotate(-90.000000 146800000.000000 113500000.000000)">
<text x="146800000.000000" y="113850000.000000"
textLength="3056000.000000" font-size="933333.000000" lengthAdjust="spacingAndGlyphs"
text-anchor="middle" opacity="0">Diode</text>
</g>
<g class="stroked-text"><desc>Diode</desc>
<path d="M147116666 114783333
L146416666 114783333
L146416666 114616666
L146450000 114516666
L146516666 114450000
L146583333 114416666
L146716666 114383333
L146816666 114383333
L146950000 114416666
L147016666 114450000
L147083333 114516666
L147116666 114616666
L147116666 114783333
" />
<path d="M147116666 114083333
L146650000 114083333
" />
<path d="M146416666 114083333
L146450000 114116666
L146483333 114083333
L146450000 114050000
L146416666 114083333
L146483333 114083333
" />
<path d="M147116666 113650000
L147083333 113716666
L147050000 113750000
L146983333 113783333
L146783333 113783333
L146716666 113750000
L146683333 113716666
L146650000 113650000
L146650000 113550000
L146683333 113483333
L146716666 113450000
L146783333 113416666
L146983333 113416666
L147050000 113450000
L147083333 113483333
L147116666 113550000
L147116666 113650000
" />
<path d="M147116666 112816666
L146416666 112816666
" />
<path d="M147083333 112816666
L147116666 112883333
L147116666 113016666
L147083333 113083333
L147050000 113116666
L146983333 113150000
L146783333 113150000
L146716666 113116666
L146683333 113083333
L146650000 113016666
L146650000 112883333
L146683333 112816666
" />
<path d="M147083333 112216666
L147116666 112283333
L147116666 112416666
L147083333 112483333
L147016666 112516666
L146750000 112516666
L146683333 112483333
L146650000 112416666
L146650000 112283333
L146683333 112216666
L146750000 112183333
L146816666 112183333
L146883333 112516666
" />
</g><text x="151500000.000000" y="113850000.000000"
textLength="3589333.000000" font-size="933333.000000" lengthAdjust="spacingAndGlyphs"
text-anchor="middle" opacity="0">12MHz</text>
<g class="stroked-text"><desc>12MHz</desc>
<path d="M150316666 113816666
L149916666 113816666
" />
<path d="M150116666 113816666
L150116666 113116666
L150050000 113216666
L149983333 113283333
L149916666 113316666
" />
<path d="M150583333 113183333
L150616666 113150000
L150683333 113116666
L150850000 113116666
L150916666 113150000
L150950000 113183333
L150983333 113250000
L150983333 113316666
L150950000 113416666
L150550000 113816666
L150983333 113816666
" />
<path d="M151283333 113816666
L151283333 113116666
L151516666 113616666
L151750000 113116666
L151750000 113816666
" />
<path d="M152083333 113816666
L152083333 113116666
" />
<path d="M152083333 113450000
L152483333 113450000
" />
<path d="M152483333 113816666
L152483333 113116666
" />
<path d="M152750000 113350000
L153116666 113350000
L152750000 113816666
L153116666 113816666
" />
</g><g transform="rotate(-90.000000 158500000.000000 113500000.000000)">
<text x="158500000.000000" y="113850000.000000"
textLength="2189333.000000" font-size="933333.000000" lengthAdjust="spacingAndGlyphs"
text-anchor="middle" opacity="0">10K</text>
</g>
<g class="stroked-text"><desc>10K</desc>
<path d="M158816666 113983333
L158816666 114383333
" />
<path d="M158816666 114183333
L158116666 114183333
L158216666 114250000
L158283333 114316666
L158316666 114383333
" />
<path d="M158116666 113550000
L158116666 113483333
L158150000 113416666
L158183333 113383333
L158250000 113350000
L158383333 113316666
L158550000 113316666
L158683333 113350000
L158750000 113383333
L158783333 113416666
L158816666 113483333
L158816666 113550000
L158783333 113616666
L158750000 113650000
L158683333 113683333
L158550000 113716666
L158383333 113716666
L158250000 113683333
L158183333 113650000
L158150000 113616666
L158116666 113550000
" />
<path d="M158816666 113016666
L158116666 113016666
" />
<path d="M158816666 112616666
L158416666 112916666
" />
<path d="M158116666 112616666
L158516666 113016666
" />
</g><g transform="rotate(-90.000000 158800000.000000 100750000.000000)">
<text x="158800000.000000" y="101100000.000000"
textLength="1522667.000000" font-size="933333.000000" lengthAdjust="spacingAndGlyphs"
text-anchor="middle" opacity="0">1K</text>
</g>
<g class="stroked-text"><desc>1K</desc>
<path d="M159116666 100900000
L159116666 101300000
" />
<path d="M159116666 101100000
L158416666 101100000
L158516666 101166666
L158583333 101233333
L158616666 101300000
" />
<path d="M159116666 100600000
L158416666 100600000
" />
<path d="M159116666 100200000
L158716666 100500000
" />
<path d="M158416666 100200000
L158816666 100600000
" />
</g></g>
<g style="fill:#B4DBD2; fill-opacity:0.0; 
stroke:#B4DBD2; stroke-width:150000.000000; stroke-opacity:1; 
stroke-linecap:round; stroke-linejoin:round;">
<text x="152900000.000000" y="107500000.000000"
textLength="5965524.000000" font-size="1333333.000000" lengthAdjust="spacingAndGlyphs"
text-anchor="middle" opacity="0">RP2040</text>
<g class="stroked-text"><desc>RP2040</desc>
<path d="M150804761 107452380
L150471428 106976190
" />
<path d="M150233333 107452380
L150233333 106452380
L150614285 106452380
L150709523 106500000
L150757142 106547619
L150804761 106642857
L150804761 106785714
L150757142 106880952
L150709523 106928571
L150614285 106976190
L150233333 106976190
" />
<path d="M151233333 107452380
L151233333 106452380
L151614285 106452380
L151709523 106500000
L151757142 106547619
L151804761 106642857
L151804761 106785714
L151757142 106880952
L151709523 106928571
L151614285 106976190
L151233333 106976190
" />
<path d="M152185714 106547619
L152233333 106500000
L152328571 106452380
L152566666 106452380
L152661904 106500000
L152709523 106547619
L152757142 106642857
L152757142 106738095
L152709523 106880952
L152138095 107452380
L152757142 107452380
" />
<path d="M153376190 106452380
L153471428 106452380
L153566666 106500000
L153614285 106547619
L153661904 106642857
L153709523 106833333
L153709523 107071428
L153661904 107261904
L153614285 107357142
L153566666 107404761
L153471428 107452380
L153376190 107452380
L153280952 107404761
L153233333 107357142
L153185714 107261904
L153138095 107071428
L153138095 106833333
L153185714 106642857
L153233333 106547619
L153280952 106500000
L153376190 106452380
" />
<path d="M154566666 106785714
L154566666 107452380
" />
<path d="M154328571 106404761
L154090476 107119047
L154709523 107119047
" />
<path d="M155280952 106452380
L155376190 106452380
L155471428 106500000
L155519047 106547619
L155566666 106642857
L155614285 106833333
L155614285 107071428
L155566666 107261904
L155519047 107357142
L155471428 107404761
L155376190 107452380
L155280952 107452380
L155185714 107404761
L155138095 107357142
L155090476 107261904
L155042857 107071428
L155042857 106833333
L155090476 106642857
L155138095 106547619
L155185714 106500000
L155280952 106452380
" />
</g></g>
<g style="fill:#B4DBD2; fill-opacity:0.0; 
stroke:#B4DBD2; stroke-width:120000.000000; stroke-opacity:1; 
stroke-linecap:round; stroke-linejoin:round;">
<g transform="rotate(-90.000000 154000000.000000 113500000.000000)">
<text x="154000000.000000" y="113850000.000000"
textLength="2761667.000000" font-size="933333.000000" lengthAdjust="spacingAndGlyphs"
text-anchor="middle" opacity="0">12pF</text>
</g>
<g class="stroked-text"><desc>12pF</desc>
<path d="M154316666 114250000
L154316666 114650000
" />
<path d="M154316666 114450000
L153616666 114450000
L153716666 114516666
L153783333 114583333
L153816666 114650000
" />
<path d="M153683333 113983333
L153650000 113950000
L153616666 113883333
L153616666 113716666
L153650000 113650000
L153683333 113616666
L153750000 113583333
L153816666 113583333
L153916666 113616666
L154316666 114016666
L154316666 113583333
" />
<path d="M153850000 113283333
L154550000 113283333
" />
<path d="M153883333 113283333
L153850000 113216666
L153850000 113083333
L153883333 113016666
L153916666 112983333
L153983333 112950000
L154183333 112950000
L154250000 112983333
L154283333 113016666
L154316666 113083333
L154316666 113216666
L154283333 113283333
" />
<path d="M153950000 112416666
L153950000 112650000
" />
<path d="M154316666 112650000
L153616666 112650000
L153616666 112316666
" />
</g><text x="143300000.000000" y="98100000.000000"
textLength="1522667.000000" font-size="933333.000000" lengthAdjust="spacingAndGlyphs"
text-anchor="middle" opacity="0">1K</text>
<g class="stroked-text"><desc>1K</desc>
<path d="M143150000 98066666
L142750000 98066666
" />
<path d="M142950000 98066666
L142950000 97366666
L142883333 97466666
L142816666 97533333
L142750000 97566666
" />
<path d="M143450000 98066666
L143450000 97366666
" />
<path d="M143850000 98066666
L143550000 97666666
" />
<path d="M143850000 97366666
L143450000 97766666
" />
</g><text x="147200000.000000" y="104250000.000000"
textLength="2722667.000000" font-size="933333.000000" lengthAdjust="spacingAndGlyphs"
text-anchor="middle" opacity="0">10uF</text>
<g class="stroked-text"><desc>10uF</desc>
<path d="M146450000 104216666
L146050000 104216666
" />
<path d="M146250000 104216666
L146250000 103516666
L146183333 103616666
L146116666 103683333
L146050000 103716666
" />
<path d="M146883333 103516666
L146950000 103516666
L147016666 103550000
L147050000 103583333
L147083333 103650000
L147116666 103783333
L147116666 103950000
L147083333 104083333
L147050000 104150000
L147016666 104183333
L146950000 104216666
L146883333 104216666
L146816666 104183333
L146783333 104150000
L146750000 104083333
L146716666 103950000
L146716666 103783333
L146750000 103650000
L146783333 103583333
L146816666 103550000
L146883333 103516666
" />
<path d="M147716666 103750000
L147716666 104216666
" />
<path d="M147416666 103750000
L147416666 104116666
L147450000 104183333
L147516666 104216666
L147616666 104216666
L147683333 104183333
L147716666 104150000
" />
<path d="M148283333 103850000
L148050000 103850000
" />
<path d="M148050000 104216666
L148050000 103516666
L148383333 103516666
" />
</g><g transform="rotate(-90.000000 155800000.000000 100800000.000000)">
<text x="155800000.000000" y="101150000.000000"
textLength="2056000.000000" font-size="933333.000000" lengthAdjust="spacingAndGlyphs"
text-anchor="middle" opacity="0">1uF</text>
</g>
<g class="stroked-text"><desc>1uF</desc>
<path d="M156116666 101216666
L156116666 101616666
" />
<path d="M156116666 101416666
L155416666 101416666
L155516666 101483333
L155583333 101550000
L155616666 101616666
" />
<path d="M155650000 100616666
L156116666 100616666
" />
<path d="M155650000 100916666
L156016666 100916666
L156083333 100883333
L156116666 100816666
L156116666 100716666
L156083333 100650000
L156050000 100616666
" />
<path d="M155750000 100050000
L155750000 100283333
" />
<path d="M156116666 100283333
L155416666 100283333
L155416666 99950000
" />
</g><g transform="rotate(-90.000000 152500000.000000 100750000.000000)">
<text x="152500000.000000" y="101100000.000000"
textLength="3056000.000000" font-size="933333.000000" lengthAdjust="spacingAndGlyphs"
text-anchor="middle" opacity="0">0.1uF</text>
</g>
<g class="stroked-text"><desc>0.1uF</desc>
<path d="M152116666 101900000
L152116666 101833333
L152150000 101766666
L152183333 101733333
L152250000 101700000
L152383333 101666666
L152550000 101666666
L152683333 101700000
L152750000 101733333
L152783333 101766666
L152816666 101833333
L152816666 101900000
L152783333 101966666
L152750000 102000000
L152683333 102033333
L152550000 102066666
L152383333 102066666
L152250000 102033333
L152183333 102000000
L152150000 101966666
L152116666 101900000
" />
<path d="M152750000 101366666
L152783333 101333333
L152816666 101366666
L152783333 101400000
L152750000 101366666
L152816666 101366666
" />
<path d="M152816666 100666666
L152816666 101066666
" />
<path d="M152816666 100866666
L152116666 100866666
L152216666 100933333
L152283333 101000000
L152316666 101066666
" />
<path d="M152350000 100066666
L152816666 100066666
" />
<path d="M152350000 100366666
L152716666 100366666
L152783333 100333333
L152816666 100266666
L152816666 100166666
L152783333 100100000
L152750000 100066666
" />
<path d="M152450000 99500000
L152450000 99733333
" />
<path d="M152816666 99733333
L152116666 99733333
L152116666 99400000
" />
</g><text x="159250000.000000" y="105150000.000000"
textLength="3056000.000000" font-size="933333.000000" lengthAdjust="spacingAndGlyphs"
text-anchor="middle" opacity="0">0.1uF</text>
<g class="stroked-text"><desc>0.1uF</desc>
<path d="M158100000 104416666
L158166666 104416666
L158233333 104450000
L158266666 104483333
L158300000 104550000
L158333333 104683333
L158333333 104850000
L158300000 104983333
L158266666 105050000
L158233333 105083333
L158166666 105116666
L158100000 105116666
L158033333 105083333
L158000000 105050000
L157966666 104983333
L157933333 104850000
L157933333 104683333
L157966666 104550000
L158000000 104483333
L158033333 104450000
L158100000 104416666
" />
<path d="M158633333 105050000
L158666666 105083333
L158633333 105116666
L158600000 105083333
L158633333 105050000
L158633333 105116666
" />
<path d="M159333333 105116666
L158933333 105116666
" />
<path d="M159133333 105116666
L159133333 104416666
L159066666 104516666
L159000000 104583333
L158933333 104616666
" />
<path d="M159933333 104650000
L159933333 105116666
" />
<path d="M159633333 104650000
L159633333 105016666
L159666666 105083333
L159733333 105116666
L159833333 105116666
L159900000 105083333
L159933333 105050000
" />
<path d="M160500000 104750000
L160266666 104750000
" />
<path d="M160266666 105116666
L160266666 104416666
L160600000 104416666
" />
</g><g transform="rotate(-90.000000 155800000.000000 97500000.000000)">
<text x="155800000.000000" y="97850000.000000"
textLength="1522667.000000" font-size="933333.000000" lengthAdjust="spacingAndGlyphs"
text-anchor="middle" opacity="0">2K</text>
</g>
<g class="stroked-text"><desc>2K</desc>
<path d="M155483333 98050000
L155450000 98016666
L155416666 97950000
L155416666 97783333
L155450000 97716666
L155483333 97683333
L155550000 97650000
L155616666 97650000
L155716666 97683333
L156116666 98083333
L156116666 97650000
" />
<path d="M156116666 97350000
L155416666 97350000
" />
<path d="M156116666 96950000
L155716666 97250000
" />
<path d="M155416666 96950000
L155816666 97350000
" />
</g><g transform="rotate(-90.000000 157000000.000000 113500000.000000)">
<text x="157000000.000000" y="113850000.000000"
textLength="3056000.000000" font-size="933333.000000" lengthAdjust="spacingAndGlyphs"
text-anchor="middle" opacity="0">0.1uF</text>
</g>
<g class="stroked-text"><desc>0.1uF</desc>
<path d="M156616666 114650000
L156616666 114583333
L156650000 114516666
L156683333 114483333
L156750000 114450000
L156883333 114416666
L157050000 114416666
L157183333 114450000
L157250000 114483333
L157283333 114516666
L157316666 114583333
L157316666 114650000
L157283333 114716666
L157250000 114750000
L157183333 114783333
L157050000 114816666
L156883333 114816666
L156750000 114783333
L156683333 114750000
L156650000 114716666
L156616666 114650000
" />
<path d="M157250000 114116666
L157283333 114083333
L157316666 114116666
L157283333 114150000
L157250000 114116666
L157316666 114116666
" />
<path d="M157316666 113416666
L157316666 113816666
" />
<path d="M157316666 113616666
L156616666 113616666
L156716666 113683333
L156783333 113750000
L156816666 113816666
" />
<path d="M156850000 112816666
L157316666 112816666
" />
<path d="M156850000 113116666
L157216666 113116666
L157283333 113083333
L157316666 113016666
L157316666 112916666
L157283333 112850000
L157250000 112816666
" />
<path d="M156950000 112250000
L156950000 112483333
" />
<path d="M157316666 112483333
L156616666 112483333
L156616666 112150000
" />
</g><text x="159250000.000000" y="106550000.000000"
textLength="3056000.000000" font-size="933333.000000" lengthAdjust="spacingAndGlyphs"
text-anchor="middle" opacity="0">0.1uF</text>
<g class="stroked-text"><desc>0.1uF</desc>
<path d="M158100000 105816666
L158166666 105816666
L158233333 105850000
L158266666 105883333
L158300000 105950000
L158333333 106083333
L158333333 106250000
L158300000 106383333
L158266666 106450000
L158233333 106483333
L158166666 106516666
L158100000 106516666
L158033333 106483333
L158000000 106450000
L157966666 106383333
L157933333 106250000
L157933333 106083333
L157966666 105950000
L158000000 105883333
L158033333 105850000
L158100000 105816666
" />
<path d="M158633333 106450000
L158666666 106483333
L158633333 106516666
L158600000 106483333
L158633333 106450000
L158633333 106516666
" />
<path d="M159333333 106516666
L158933333 106516666
" />
<path d="M159133333 106516666
L159133333 105816666
L159066666 105916666
L159000000 105983333
L158933333 106016666
" />
<path d="M159933333 106050000
L159933333 106516666
" />
<path d="M159633333 106050000
L159633333 106416666
L159666666 106483333
L159733333 106516666
L159833333 106516666
L159900000 106483333
L159933333 106450000
" />
<path d="M160500000 106150000
L160266666 106150000
" />
<path d="M160266666 106516666
L160266666 105816666
L160600000 105816666
" />
</g><g transform="rotate(-90.000000 146000000.000000 110000000.000000)">
<text x="146000000.000000" y="110350000.000000"
textLength="2856000.000000" font-size="933333.000000" lengthAdjust="spacingAndGlyphs"
text-anchor="middle" opacity="0">100K</text>
</g>
<g class="stroked-text"><desc>100K</desc>
<path d="M146316666 110816666
L146316666 111216666
" />
<path d="M146316666 111016666
L145616666 111016666
L145716666 111083333
L145783333 111150000
L145816666 111216666
" />
<path d="M145616666 110383333
L145616666 110316666
L145650000 110250000
L145683333 110216666
L145750000 110183333
L145883333 110150000
L146050000 110150000
L146183333 110183333
L146250000 110216666
L146283333 110250000
L146316666 110316666
L146316666 110383333
L146283333 110450000
L146250000 110483333
L146183333 110516666
L146050000 110550000
L145883333 110550000
L145750000 110516666
L145683333 110483333
L145650000 110450000
L145616666 110383333
" />
<path d="M145616666 109716666
L145616666 109650000
L145650000 109583333
L145683333 109550000
L145750000 109516666
L145883333 109483333
L146050000 109483333
L146183333 109516666
L146250000 109550000
L146283333 109583333
L146316666 109650000
L146316666 109716666
L146283333 109783333
L146250000 109816666
L146183333 109850000
L146050000 109883333
L145883333 109883333
L145750000 109850000
L145683333 109816666
L145650000 109783333
L145616666 109716666
" />
<path d="M146316666 109183333
L145616666 109183333
" />
<path d="M146316666 108783333
L145916666 109083333
" />
<path d="M145616666 108783333
L146016666 109183333
" />
</g><g transform="rotate(-90.000000 147500000.000000 110000000.000000)">
<text x="147500000.000000" y="110350000.000000"
textLength="2722667.000000" font-size="933333.000000" lengthAdjust="spacingAndGlyphs"
text-anchor="middle" opacity="0">10uF</text>
</g>
<g class="stroked-text"><desc>10uF</desc>
<path d="M147816666 110750000
L147816666 111150000
" />
<path d="M147816666 110950000
L147116666 110950000
L147216666 111016666
L147283333 111083333
L147316666 111150000
" />
<path d="M147116666 110316666
L147116666 110250000
L147150000 110183333
L147183333 110150000
L147250000 110116666
L147383333 110083333
L147550000 110083333
L147683333 110116666
L147750000 110150000
L147783333 110183333
L147816666 110250000
L147816666 110316666
L147783333 110383333
L147750000 110416666
L147683333 110450000
L147550000 110483333
L147383333 110483333
L147250000 110450000
L147183333 110416666
L147150000 110383333
L147116666 110316666
" />
<path d="M147350000 109483333
L147816666 109483333
" />
<path d="M147350000 109783333
L147716666 109783333
L147783333 109750000
L147816666 109683333
L147816666 109583333
L147783333 109516666
L147750000 109483333
" />
<path d="M147450000 108916666
L147450000 109150000
" />
<path d="M147816666 109150000
L147116666 109150000
L147116666 108816666
" />
</g><text x="159250000.000000" y="103550000.000000"
textLength="2056000.000000" font-size="933333.000000" lengthAdjust="spacingAndGlyphs"
text-anchor="middle" opacity="0">1uF</text>
<g class="stroked-text"><desc>1uF</desc>
<path d="M158833333 103516666
L158433333 103516666
" />
<path d="M158633333 103516666
L158633333 102816666
L158566666 102916666
L158500000 102983333
L158433333 103016666
" />
<path d="M159433333 103050000
L159433333 103516666
" />
<path d="M159133333 103050000
L159133333 103416666
L159166666 103483333
L159233333 103516666
L159333333 103516666
L159400000 103483333
L159433333 103450000
" />
<path d="M160000000 103150000
L159766666 103150000
" />
<path d="M159766666 103516666
L159766666 102816666
L160100000 102816666
" />
</g><g transform="rotate(-90.000000 160300000.000000 100750000.000000)">
<text x="160300000.000000" y="101100000.000000"
textLength="2722667.000000" font-size="933333.000000" lengthAdjust="spacingAndGlyphs"
text-anchor="middle" opacity="0">10uF</text>
</g>
<g class="stroked-text"><desc>10uF</desc>
<path d="M160616666 101500000
L160616666 101900000
" />
<path d="M160616666 101700000
L159916666 101700000
L160016666 101766666
L160083333 101833333
L160116666 101900000
" />
<path d="M159916666 101066666
L159916666 101000000
L159950000 100933333
L159983333 100900000
L160050000 100866666
L160183333 100833333
L160350000 100833333
L160483333 100866666
L160550000 100900000
L160583333 100933333
L160616666 101000000
L160616666 101066666
L160583333 101133333
L160550000 101166666
L160483333 101200000
L160350000 101233333
L160183333 101233333
L160050000 101200000
L159983333 101166666
L159950000 101133333
L159916666 101066666
" />
<path d="M160150000 100233333
L160616666 100233333
" />
<path d="M160150000 100533333
L160516666 100533333
L160583333 100500000
L160616666 100433333
L160616666 100333333
L160583333 100266666
L160550000 100233333
" />
<path d="M160250000 99666666
L160250000 99900000
" />
<path d="M160616666 99900000
L159916666 99900000
L159916666 99566666
" />
</g><g transform="rotate(-90.000000 154300000.000000 97500000.000000)">
<text x="154300000.000000" y="97850000.000000"
textLength="2189333.000000" font-size="933333.000000" lengthAdjust="spacingAndGlyphs"
text-anchor="middle" opacity="0">27R</text>
</g>
<g class="stroked-text"><desc>27R</desc>
<path d="M153983333 98383333
L153950000 98350000
L153916666 98283333
L153916666 98116666
L153950000 98050000
L153983333 98016666
L154050000 97983333
L154116666 97983333
L154216666 98016666
L154616666 98416666
L154616666 97983333
" />
<path d="M153916666 97750000
L153916666 97283333
L154616666 97583333
" />
<path d="M154616666 96616666
L154283333 96850000
" />
<path d="M154616666 97016666
L153916666 97016666
L153916666 96750000
L153950000 96683333
L153983333 96650000
L154050000 96616666
L154150000 96616666
L154216666 96650000
L154250000 96683333
L154283333 96750000
L154283333 97016666
" />
</g><g transform="rotate(-90.000000 149000000.000000 113500000.000000)">
<text x="149000000.000000" y="113850000.000000"
textLength="2722667.000000" font-size="933333.000000" lengthAdjust="spacingAndGlyphs"
text-anchor="middle" opacity="0">12pF</text>
</g>
<g class="stroked-text"><desc>12pF</desc>
<path d="M149316666 114250000
L149316666 114650000
" />
<path d="M149316666 114450000
L148616666 114450000
L148716666 114516666
L148783333 114583333
L148816666 114650000
" />
<path d="M148683333 113983333
L148650000 113950000
L148616666 113883333
L148616666 113716666
L148650000 113650000
L148683333 113616666
L148750000 113583333
L148816666 113583333
L148916666 113616666
L149316666 114016666
L149316666 113583333
" />
<path d="M148850000 113283333
L149550000 113283333
" />
<path d="M148883333 113283333
L148850000 113216666
L148850000 113083333
L148883333 113016666
L148916666 112983333
L148983333 112950000
L149183333 112950000
L149250000 112983333
L149283333 113016666
L149316666 113083333
L149316666 113216666
L149283333 113283333
" />
<path d="M148950000 112416666
L148950000 112650000
" />
<path d="M149316666 112650000
L148616666 112650000
L148616666 112316666
" />
</g><g transform="rotate(-90.000000 152700000.000000 97500000.000000)">
<text x="152700000.000000" y="97850000.000000"
textLength="2189333.000000" font-size="933333.000000" lengthAdjust="spacingAndGlyphs"
text-anchor="middle" opacity="0">27R</text>
</g>
<g class="stroked-text"><desc>27R</desc>
<path d="M152383333 98383333
L152350000 98350000
L152316666 98283333
L152316666 98116666
L152350000 98050000
L152383333 98016666
L152450000 97983333
L152516666 97983333
L152616666 98016666
L153016666 98416666
L153016666 97983333
" />
<path d="M152316666 97750000
L152316666 97283333
L153016666 97583333
" />
<path d="M153016666 96616666
L152683333 96850000
" />
<path d="M153016666 97016666
L152316666 97016666
L152316666 96750000
L152350000 96683333
L152383333 96650000
L152450000 96616666
L152550000 96616666
L152616666 96650000
L152650000 96683333
L152683333 96750000
L152683333 97016666
" />
</g><g transform="rotate(-90.000000 154000000.000000 100750000.000000)">
<text x="154000000.000000" y="101100000.000000"
textLength="3056000.000000" font-size="933333.000000" lengthAdjust="spacingAndGlyphs"
text-anchor="middle" opacity="0">0.1uF</text>
</g>
<g class="stroked-text"><desc>0.1uF</desc>
<path d="M153616666 101900000
L153616666 101833333
L153650000 101766666
L153683333 101733333
L153750000 101700000
L153883333 101666666
L154050000 101666666
L154183333 101700000
L154250000 101733333
L154283333 101766666
L154316666 101833333
L154316666 101900000
L154283333 101966666
L154250000 102000000
L154183333 102033333
L154050000 102066666
L153883333 102066666
L153750000 102033333
L153683333 102000000
L153650000 101966666
L153616666 101900000
" />
<path d="M154250000 101366666
L154283333 101333333
L154316666 101366666
L154283333 101400000
L154250000 101366666
L154316666 101366666
" />
<path d="M154316666 100666666
L154316666 101066666
" />
<path d="M154316666 100866666
L153616666 100866666
L153716666 100933333
L153783333 101000000
L153816666 101066666
" />
<path d="M153850000 100066666
L154316666 100066666
" />
<path d="M153850000 100366666
L154216666 100366666
L154283333 100333333
L154316666 100266666
L154316666 100166666
L154283333 100100000
L154250000 100066666
" />
<path d="M153950000 99500000
L153950000 99733333
" />
<path d="M154316666 99733333
L153616666 99733333
L153616666 99400000
" />
</g><text x="143750000.000000" y="113750000.000000"
textLength="3522667.000000" font-size="933333.000000" lengthAdjust="spacingAndGlyphs"
text-anchor="middle" opacity="0">BSS84</text>
<g class="stroked-text"><desc>BSS84</desc>
<path d="M142466666 113350000
L142566666 113383333
L142600000 113416666
L142633333 113483333
L142633333 113583333
L142600000 113650000
L142566666 113683333
L142500000 113716666
L142233333 113716666
L142233333 113016666
L142466666 113016666
L142533333 113050000
L142566666 113083333
L142600000 113150000
L142600000 113216666
L142566666 113283333
L142533333 113316666
L142466666 113350000
L142233333 113350000
" />
<path d="M142900000 113683333
L143000000 113716666
L143166666 113716666
L143233333 113683333
L143266666 113650000
L143300000 113583333
L143300000 113516666
L143266666 113450000
L143233333 113416666
L143166666 113383333
L143033333 113350000
L142966666 113316666
L142933333 113283333
L142900000 113216666
L142900000 113150000
L142933333 113083333
L142966666 113050000
L143033333 113016666
L143200000 113016666
L143300000 113050000
" />
<path d="M143566666 113683333
L143666666 113716666
L143833333 113716666
L143900000 113683333
L143933333 113650000
L143966666 113583333
L143966666 113516666
L143933333 113450000
L143900000 113416666
L143833333 113383333
L143700000 113350000
L143633333 113316666
L143600000 113283333
L143566666 113216666
L143566666 113150000
L143600000 113083333
L143633333 113050000
L143700000 113016666
L143866666 113016666
L143966666 113050000
" />
<path d="M144366666 113316666
L144300000 113283333
L144266666 113250000
L144233333 113183333
L144233333 113150000
L144266666 113083333
L144300000 113050000
L144366666 113016666
L144500000 113016666
L144566666 113050000
L144600000 113083333
L144633333 113150000
L144633333 113183333
L144600000 113250000
L144566666 113283333
L144500000 113316666
L144366666 113316666
L144300000 113350000
L144266666 113383333
L144233333 113450000
L144233333 113583333
L144266666 113650000
L144300000 113683333
L144366666 113716666
L144500000 113716666
L144566666 113683333
L144600000 113650000
L144633333 113583333
L144633333 113450000
L144600000 113383333
L144566666 113350000
L144500000 113316666
" />
<path d="M145233333 113250000
L145233333 113716666
" />
<path d="M145066666 112983333
L144900000 113483333
L145333333 113483333
" />
</g><text x="143300000.000000" y="96600000.000000"
textLength="2189333.000000" font-size="933333.000000" lengthAdjust="spacingAndGlyphs"
text-anchor="middle" opacity="0">10K</text>
<g class="stroked-text"><desc>10K</desc>
<path d="M142816666 96566666
L142416666 96566666
" />
<path d="M142616666 96566666
L142616666 95866666
L142550000 95966666
L142483333 96033333
L142416666 96066666
" />
<path d="M143250000 95866666
L143316666 95866666
L143383333 95900000
L143416666 95933333
L143450000 96000000
L143483333 96133333
L143483333 96300000
L143450000 96433333
L143416666 96500000
L143383333 96533333
L143316666 96566666
L143250000 96566666
L143183333 96533333
L143150000 96500000
L143116666 96433333
L143083333 96300000
L143083333 96133333
L143116666 96000000
L143150000 95933333
L143183333 95900000
L143250000 95866666
" />
<path d="M143783333 96566666
L143783333 95866666
" />
<path d="M144183333 96566666
L143883333 96166666
" />
<path d="M144183333 95866666
L143783333 96266666
" />
</g><text x="147200000.000000" y="102750000.000000"
textLength="3056000.000000" font-size="933333.000000" lengthAdjust="spacingAndGlyphs"
text-anchor="middle" opacity="0">0.1uF</text>
<g class="stroked-text"><desc>0.1uF</desc>
<path d="M146050000 102016666
L146116666 102016666
L146183333 102050000
L146216666 102083333
L146250000 102150000
L146283333 102283333
L146283333 102450000
L146250000 102583333
L146216666 102650000
L146183333 102683333
L146116666 102716666
L146050000 102716666
L145983333 102683333
L145950000 102650000
L145916666 102583333
L145883333 102450000
L145883333 102283333
L145916666 102150000
L145950000 102083333
L145983333 102050000
L146050000 102016666
" />
<path d="M146583333 102650000
L146616666 102683333
L146583333 102716666
L146550000 102683333
L146583333 102650000
L146583333 102716666
" />
<path d="M147283333 102716666
L146883333 102716666
" />
<path d="M147083333 102716666
L147083333 102016666
L147016666 102116666
L146950000 102183333
L146883333 102216666
" />
<path d="M147883333 102250000
L147883333 102716666
" />
<path d="M147583333 102250000
L147583333 102616666
L147616666 102683333
L147683333 102716666
L147783333 102716666
L147850000 102683333
L147883333 102650000
" />
<path d="M148450000 102350000
L148216666 102350000
" />
<path d="M148216666 102716666
L148216666 102016666
L148550000 102016666
" />
</g><g transform="rotate(-90.000000 155500000.000000 113500000.000000)">
<text x="155500000.000000" y="113850000.000000"
textLength="3056000.000000" font-size="933333.000000" lengthAdjust="spacingAndGlyphs"
text-anchor="middle" opacity="0">0.1uF</text>
</g>
<g class="stroked-text"><desc>0.1uF</desc>
<path d="M155116666 114650000
L155116666 114583333
L155150000 114516666
L155183333 114483333
L155250000 114450000
L155383333 114416666
L155550000 114416666
L155683333 114450000
L155750000 114483333
L155783333 114516666
L155816666 114583333
L155816666 114650000
L155783333 114716666
L155750000 114750000
L155683333 114783333
L155550000 114816666
L155383333 114816666
L155250000 114783333
L155183333 114750000
L155150000 114716666
L155116666 114650000
" />
<path d="M155750000 114116666
L155783333 114083333
L155816666 114116666
L155783333 114150000
L155750000 114116666
L155816666 114116666
" />
<path d="M155816666 113416666
L155816666 113816666
" />
<path d="M155816666 113616666
L155116666 113616666
L155216666 113683333
L155283333 113750000
L155316666 113816666
" />
<path d="M155350000 112816666
L155816666 112816666
" />
<path d="M155350000 113116666
L155716666 113116666
L155783333 113083333
L155816666 113016666
L155816666 112916666
L155783333 112850000
L155750000 112816666
" />
<path d="M155450000 112250000
L155450000 112483333
" />
<path d="M155816666 112483333
L155116666 112483333
L155116666 112150000
" />
</g><g >
</g>
<g >
</g>
<g >
</g>
<g >
</g>
<g >
</g>
<g >
</g>
<g >
</g>
<g >
</g>
<g >
</g>
<g >
</g>
<g >
</g>
<g >
</g>
<g >
</g>
<g >
</g>
<g >
</g>
<g >
</g>
<g >
</g>
<g >
</g>
<g >
</g>
<g >
</g>
<g >
</g>
<g >
</g>
<g >
</g>
<g >
</g>
<g >
</g>
<g >
</g>
<g >
</g>
<g >
</g>
<g >
</g>
<g >
</g>
<g >
</g>
<g >
</g>
<g >
</g>
<g >
</g>
<g >
</g>
<g >
</g>
<g >
</g>
<g >
</g>
<g >
</g>
<g >
</g>
<g >
</g>
<g >
</g>
<g >
</g>
<g >
</g>
<g >
</g>
<g >
</g>
<g >
</g>
<g >
</g>
<g >
</g>
<g >
</g>
<g >
</g>
<g >
</g>
<g >
</g>
<g >
</g>
<g >
</g>
<g >
</g>
<g >
</g>
<g >
</g>
<g >
</g>
<g >
</g>
<g >
</g>
<g >
</g>
<g >
</g>
<g >
</g>
<g >
</g>
<g >
</g>
<g >
</g>
<g >
</g>
<g >
</g>
<g >
</g>
<g >
</g>
<g >
</g>
<g >
</g>
<g >
</g>
<g >
</g>
<g >
</g>
<g >
</g>
<g >
</g>
</g>
<g style="fill:#000000; fill-opacity:0.0; 
stroke:#000000; stroke-width:120000.000000; stroke-opacity:1; 
stroke-linecap:round; stroke-linejoin:round;">
</g>
<g style="fill:#D0D2CD; fill-opacity:0.0; 
stroke:#D0D2CD; stroke-width:120000.000000; stroke-opacity:1; 
stroke-linecap:round; stroke-linejoin:round;">
</g>
<g style="fill:#D0D2CD; fill-opacity:0.0; 
stroke:#D0D2CD; stroke-width:100000.000000; stroke-opacity:1; 
stroke-linecap:round; stroke-linejoin:round;">
<path d="M140500000.000000 93000000.000000 A1500000.000000 1500000.000000 0.0 0 0 139000000.000000 94500000.000000" />
<path d="M139000000 118000000
L139000000 94500000
" />
<path d="M164000000 118000000
L139000000 118000000
" />
<path d="M164000000 93000000
L164000000 118000000
" />
<path d="M140500000 93000000
L164000000 93000000
" />
<g >
</g>
<g >
</g>
<g >
</g>
<g >
</g>
<g >
</g>
<g >
</g>
<g >
</g>
<g >
</g>
<g >
</g>
<g >
</g>
<g >
</g>
<g >
</g>
<g >
</g>
<g >
</g>
<g >
</g>
<g >
</g>
<g >
</g>
<g >
</g>
<g >
</g>
<g >
</g>
<g >
</g>
<g >
</g>
<g >
</g>
<g >
</g>
<g >
</g>
<g >
</g>
<g >
</g>
<g >
</g>
<g >
</g>
<g >
</g>
<g >
</g>
<g >
</g>
<g >
</g>
<g >
</g>
<g >
</g>
<g >
</g>
<g >
</g>
<g >
</g>
<g >
</g>
<g >
</g>
<g >
</g>
<g >
</g>
<g >
</g>
<g >
</g>
<g >
</g>
<g >
</g>
<g >
</g>
<g >
</g>
<g >
</g>
<g >
</g>
<g >
</g>
<g >
</g>
<g >
</g>
<g >
</g>
<g >
</g>
<g >
</g>
<g >
</g>
<g >
</g>
<g >
</g>
<g >
</g>
<g >
</g>
<g >
</g>
<g >
</g>
<g >
</g>
<g >
</g>
<g >
</g>
<g >
</g>
<g >
</g>
<g >
</g>
<g >
</g>
<g >
</g>
<g >
</g>
<g >
</g>
<g >
</g>
<g >
</g>
<g >
</g>
<g >
</g>
<g >
</g>
</g> 
</svg>
