G04 EAGLE Gerber RS-274X export*
G75*
%MOMM*%
%FSLAX34Y34*%
%LPD*%
%INSilkscreen Bottom*%
%IPPOS*%
%AMOC8*
5,1,8,0,0,1.08239X$1,22.5*%
G01*
%ADD10C,0.203200*%
%ADD11C,0.152400*%


D10*
X350191Y292100D02*
X350195Y292420D01*
X350207Y292739D01*
X350226Y293058D01*
X350254Y293377D01*
X350289Y293695D01*
X350332Y294012D01*
X350383Y294327D01*
X350441Y294642D01*
X350508Y294955D01*
X350581Y295266D01*
X350663Y295575D01*
X350752Y295882D01*
X350849Y296187D01*
X350953Y296489D01*
X351064Y296789D01*
X351183Y297086D01*
X351309Y297380D01*
X351442Y297671D01*
X351582Y297958D01*
X351729Y298242D01*
X351884Y298522D01*
X352045Y298798D01*
X352212Y299070D01*
X352387Y299339D01*
X352568Y299602D01*
X352755Y299861D01*
X352949Y300116D01*
X353148Y300366D01*
X353354Y300610D01*
X353566Y300850D01*
X353784Y301084D01*
X354007Y301313D01*
X354236Y301536D01*
X354470Y301754D01*
X354710Y301966D01*
X354954Y302172D01*
X355204Y302371D01*
X355459Y302565D01*
X355718Y302752D01*
X355981Y302933D01*
X356250Y303108D01*
X356522Y303275D01*
X356798Y303436D01*
X357078Y303591D01*
X357362Y303738D01*
X357649Y303878D01*
X357940Y304011D01*
X358234Y304137D01*
X358531Y304256D01*
X358831Y304367D01*
X359133Y304471D01*
X359438Y304568D01*
X359745Y304657D01*
X360054Y304739D01*
X360365Y304812D01*
X360678Y304879D01*
X360993Y304937D01*
X361308Y304988D01*
X361625Y305031D01*
X361943Y305066D01*
X362262Y305094D01*
X362581Y305113D01*
X362900Y305125D01*
X363220Y305129D01*
X363540Y305125D01*
X363859Y305113D01*
X364178Y305094D01*
X364497Y305066D01*
X364815Y305031D01*
X365132Y304988D01*
X365447Y304937D01*
X365762Y304879D01*
X366075Y304812D01*
X366386Y304739D01*
X366695Y304657D01*
X367002Y304568D01*
X367307Y304471D01*
X367609Y304367D01*
X367909Y304256D01*
X368206Y304137D01*
X368500Y304011D01*
X368791Y303878D01*
X369078Y303738D01*
X369362Y303591D01*
X369642Y303436D01*
X369918Y303275D01*
X370190Y303108D01*
X370459Y302933D01*
X370722Y302752D01*
X370981Y302565D01*
X371236Y302371D01*
X371486Y302172D01*
X371730Y301966D01*
X371970Y301754D01*
X372204Y301536D01*
X372433Y301313D01*
X372656Y301084D01*
X372874Y300850D01*
X373086Y300610D01*
X373292Y300366D01*
X373491Y300116D01*
X373685Y299861D01*
X373872Y299602D01*
X374053Y299339D01*
X374228Y299070D01*
X374395Y298798D01*
X374556Y298522D01*
X374711Y298242D01*
X374858Y297958D01*
X374998Y297671D01*
X375131Y297380D01*
X375257Y297086D01*
X375376Y296789D01*
X375487Y296489D01*
X375591Y296187D01*
X375688Y295882D01*
X375777Y295575D01*
X375859Y295266D01*
X375932Y294955D01*
X375999Y294642D01*
X376057Y294327D01*
X376108Y294012D01*
X376151Y293695D01*
X376186Y293377D01*
X376214Y293058D01*
X376233Y292739D01*
X376245Y292420D01*
X376249Y292100D01*
X376245Y291780D01*
X376233Y291461D01*
X376214Y291142D01*
X376186Y290823D01*
X376151Y290505D01*
X376108Y290188D01*
X376057Y289873D01*
X375999Y289558D01*
X375932Y289245D01*
X375859Y288934D01*
X375777Y288625D01*
X375688Y288318D01*
X375591Y288013D01*
X375487Y287711D01*
X375376Y287411D01*
X375257Y287114D01*
X375131Y286820D01*
X374998Y286529D01*
X374858Y286242D01*
X374711Y285958D01*
X374556Y285678D01*
X374395Y285402D01*
X374228Y285130D01*
X374053Y284861D01*
X373872Y284598D01*
X373685Y284339D01*
X373491Y284084D01*
X373292Y283834D01*
X373086Y283590D01*
X372874Y283350D01*
X372656Y283116D01*
X372433Y282887D01*
X372204Y282664D01*
X371970Y282446D01*
X371730Y282234D01*
X371486Y282028D01*
X371236Y281829D01*
X370981Y281635D01*
X370722Y281448D01*
X370459Y281267D01*
X370190Y281092D01*
X369918Y280925D01*
X369642Y280764D01*
X369362Y280609D01*
X369078Y280462D01*
X368791Y280322D01*
X368500Y280189D01*
X368206Y280063D01*
X367909Y279944D01*
X367609Y279833D01*
X367307Y279729D01*
X367002Y279632D01*
X366695Y279543D01*
X366386Y279461D01*
X366075Y279388D01*
X365762Y279321D01*
X365447Y279263D01*
X365132Y279212D01*
X364815Y279169D01*
X364497Y279134D01*
X364178Y279106D01*
X363859Y279087D01*
X363540Y279075D01*
X363220Y279071D01*
X362900Y279075D01*
X362581Y279087D01*
X362262Y279106D01*
X361943Y279134D01*
X361625Y279169D01*
X361308Y279212D01*
X360993Y279263D01*
X360678Y279321D01*
X360365Y279388D01*
X360054Y279461D01*
X359745Y279543D01*
X359438Y279632D01*
X359133Y279729D01*
X358831Y279833D01*
X358531Y279944D01*
X358234Y280063D01*
X357940Y280189D01*
X357649Y280322D01*
X357362Y280462D01*
X357078Y280609D01*
X356798Y280764D01*
X356522Y280925D01*
X356250Y281092D01*
X355981Y281267D01*
X355718Y281448D01*
X355459Y281635D01*
X355204Y281829D01*
X354954Y282028D01*
X354710Y282234D01*
X354470Y282446D01*
X354236Y282664D01*
X354007Y282887D01*
X353784Y283116D01*
X353566Y283350D01*
X353354Y283590D01*
X353148Y283834D01*
X352949Y284084D01*
X352755Y284339D01*
X352568Y284598D01*
X352387Y284861D01*
X352212Y285130D01*
X352045Y285402D01*
X351884Y285678D01*
X351729Y285958D01*
X351582Y286242D01*
X351442Y286529D01*
X351309Y286820D01*
X351183Y287114D01*
X351064Y287411D01*
X350953Y287711D01*
X350849Y288013D01*
X350752Y288318D01*
X350663Y288625D01*
X350581Y288934D01*
X350508Y289245D01*
X350441Y289558D01*
X350383Y289873D01*
X350332Y290188D01*
X350289Y290505D01*
X350254Y290823D01*
X350226Y291142D01*
X350207Y291461D01*
X350195Y291780D01*
X350191Y292100D01*
D11*
X365252Y311575D02*
X371862Y311575D01*
X371862Y309372D02*
X371862Y313778D01*
X371862Y316856D02*
X365252Y316856D01*
X371862Y316856D02*
X371862Y320161D01*
X370760Y321263D01*
X368557Y321263D01*
X367455Y320161D01*
X367455Y316856D01*
X369658Y324340D02*
X371862Y326544D01*
X365252Y326544D01*
X365252Y328747D02*
X365252Y324340D01*
D10*
X350191Y264160D02*
X350195Y264480D01*
X350207Y264799D01*
X350226Y265118D01*
X350254Y265437D01*
X350289Y265755D01*
X350332Y266072D01*
X350383Y266387D01*
X350441Y266702D01*
X350508Y267015D01*
X350581Y267326D01*
X350663Y267635D01*
X350752Y267942D01*
X350849Y268247D01*
X350953Y268549D01*
X351064Y268849D01*
X351183Y269146D01*
X351309Y269440D01*
X351442Y269731D01*
X351582Y270018D01*
X351729Y270302D01*
X351884Y270582D01*
X352045Y270858D01*
X352212Y271130D01*
X352387Y271399D01*
X352568Y271662D01*
X352755Y271921D01*
X352949Y272176D01*
X353148Y272426D01*
X353354Y272670D01*
X353566Y272910D01*
X353784Y273144D01*
X354007Y273373D01*
X354236Y273596D01*
X354470Y273814D01*
X354710Y274026D01*
X354954Y274232D01*
X355204Y274431D01*
X355459Y274625D01*
X355718Y274812D01*
X355981Y274993D01*
X356250Y275168D01*
X356522Y275335D01*
X356798Y275496D01*
X357078Y275651D01*
X357362Y275798D01*
X357649Y275938D01*
X357940Y276071D01*
X358234Y276197D01*
X358531Y276316D01*
X358831Y276427D01*
X359133Y276531D01*
X359438Y276628D01*
X359745Y276717D01*
X360054Y276799D01*
X360365Y276872D01*
X360678Y276939D01*
X360993Y276997D01*
X361308Y277048D01*
X361625Y277091D01*
X361943Y277126D01*
X362262Y277154D01*
X362581Y277173D01*
X362900Y277185D01*
X363220Y277189D01*
X363540Y277185D01*
X363859Y277173D01*
X364178Y277154D01*
X364497Y277126D01*
X364815Y277091D01*
X365132Y277048D01*
X365447Y276997D01*
X365762Y276939D01*
X366075Y276872D01*
X366386Y276799D01*
X366695Y276717D01*
X367002Y276628D01*
X367307Y276531D01*
X367609Y276427D01*
X367909Y276316D01*
X368206Y276197D01*
X368500Y276071D01*
X368791Y275938D01*
X369078Y275798D01*
X369362Y275651D01*
X369642Y275496D01*
X369918Y275335D01*
X370190Y275168D01*
X370459Y274993D01*
X370722Y274812D01*
X370981Y274625D01*
X371236Y274431D01*
X371486Y274232D01*
X371730Y274026D01*
X371970Y273814D01*
X372204Y273596D01*
X372433Y273373D01*
X372656Y273144D01*
X372874Y272910D01*
X373086Y272670D01*
X373292Y272426D01*
X373491Y272176D01*
X373685Y271921D01*
X373872Y271662D01*
X374053Y271399D01*
X374228Y271130D01*
X374395Y270858D01*
X374556Y270582D01*
X374711Y270302D01*
X374858Y270018D01*
X374998Y269731D01*
X375131Y269440D01*
X375257Y269146D01*
X375376Y268849D01*
X375487Y268549D01*
X375591Y268247D01*
X375688Y267942D01*
X375777Y267635D01*
X375859Y267326D01*
X375932Y267015D01*
X375999Y266702D01*
X376057Y266387D01*
X376108Y266072D01*
X376151Y265755D01*
X376186Y265437D01*
X376214Y265118D01*
X376233Y264799D01*
X376245Y264480D01*
X376249Y264160D01*
X376245Y263840D01*
X376233Y263521D01*
X376214Y263202D01*
X376186Y262883D01*
X376151Y262565D01*
X376108Y262248D01*
X376057Y261933D01*
X375999Y261618D01*
X375932Y261305D01*
X375859Y260994D01*
X375777Y260685D01*
X375688Y260378D01*
X375591Y260073D01*
X375487Y259771D01*
X375376Y259471D01*
X375257Y259174D01*
X375131Y258880D01*
X374998Y258589D01*
X374858Y258302D01*
X374711Y258018D01*
X374556Y257738D01*
X374395Y257462D01*
X374228Y257190D01*
X374053Y256921D01*
X373872Y256658D01*
X373685Y256399D01*
X373491Y256144D01*
X373292Y255894D01*
X373086Y255650D01*
X372874Y255410D01*
X372656Y255176D01*
X372433Y254947D01*
X372204Y254724D01*
X371970Y254506D01*
X371730Y254294D01*
X371486Y254088D01*
X371236Y253889D01*
X370981Y253695D01*
X370722Y253508D01*
X370459Y253327D01*
X370190Y253152D01*
X369918Y252985D01*
X369642Y252824D01*
X369362Y252669D01*
X369078Y252522D01*
X368791Y252382D01*
X368500Y252249D01*
X368206Y252123D01*
X367909Y252004D01*
X367609Y251893D01*
X367307Y251789D01*
X367002Y251692D01*
X366695Y251603D01*
X366386Y251521D01*
X366075Y251448D01*
X365762Y251381D01*
X365447Y251323D01*
X365132Y251272D01*
X364815Y251229D01*
X364497Y251194D01*
X364178Y251166D01*
X363859Y251147D01*
X363540Y251135D01*
X363220Y251131D01*
X362900Y251135D01*
X362581Y251147D01*
X362262Y251166D01*
X361943Y251194D01*
X361625Y251229D01*
X361308Y251272D01*
X360993Y251323D01*
X360678Y251381D01*
X360365Y251448D01*
X360054Y251521D01*
X359745Y251603D01*
X359438Y251692D01*
X359133Y251789D01*
X358831Y251893D01*
X358531Y252004D01*
X358234Y252123D01*
X357940Y252249D01*
X357649Y252382D01*
X357362Y252522D01*
X357078Y252669D01*
X356798Y252824D01*
X356522Y252985D01*
X356250Y253152D01*
X355981Y253327D01*
X355718Y253508D01*
X355459Y253695D01*
X355204Y253889D01*
X354954Y254088D01*
X354710Y254294D01*
X354470Y254506D01*
X354236Y254724D01*
X354007Y254947D01*
X353784Y255176D01*
X353566Y255410D01*
X353354Y255650D01*
X353148Y255894D01*
X352949Y256144D01*
X352755Y256399D01*
X352568Y256658D01*
X352387Y256921D01*
X352212Y257190D01*
X352045Y257462D01*
X351884Y257738D01*
X351729Y258018D01*
X351582Y258302D01*
X351442Y258589D01*
X351309Y258880D01*
X351183Y259174D01*
X351064Y259471D01*
X350953Y259771D01*
X350849Y260073D01*
X350752Y260378D01*
X350663Y260685D01*
X350581Y260994D01*
X350508Y261305D01*
X350441Y261618D01*
X350383Y261933D01*
X350332Y262248D01*
X350289Y262565D01*
X350254Y262883D01*
X350226Y263202D01*
X350207Y263521D01*
X350195Y263840D01*
X350191Y264160D01*
D11*
X343745Y266192D02*
X343745Y272802D01*
X345948Y272802D02*
X341542Y272802D01*
X338464Y272802D02*
X338464Y266192D01*
X338464Y272802D02*
X335159Y272802D01*
X334057Y271700D01*
X334057Y269497D01*
X335159Y268395D01*
X338464Y268395D01*
X330980Y266192D02*
X326573Y266192D01*
X326573Y270598D02*
X330980Y266192D01*
X326573Y270598D02*
X326573Y271700D01*
X327675Y272802D01*
X329878Y272802D01*
X330980Y271700D01*
D10*
X350191Y238760D02*
X350195Y239080D01*
X350207Y239399D01*
X350226Y239718D01*
X350254Y240037D01*
X350289Y240355D01*
X350332Y240672D01*
X350383Y240987D01*
X350441Y241302D01*
X350508Y241615D01*
X350581Y241926D01*
X350663Y242235D01*
X350752Y242542D01*
X350849Y242847D01*
X350953Y243149D01*
X351064Y243449D01*
X351183Y243746D01*
X351309Y244040D01*
X351442Y244331D01*
X351582Y244618D01*
X351729Y244902D01*
X351884Y245182D01*
X352045Y245458D01*
X352212Y245730D01*
X352387Y245999D01*
X352568Y246262D01*
X352755Y246521D01*
X352949Y246776D01*
X353148Y247026D01*
X353354Y247270D01*
X353566Y247510D01*
X353784Y247744D01*
X354007Y247973D01*
X354236Y248196D01*
X354470Y248414D01*
X354710Y248626D01*
X354954Y248832D01*
X355204Y249031D01*
X355459Y249225D01*
X355718Y249412D01*
X355981Y249593D01*
X356250Y249768D01*
X356522Y249935D01*
X356798Y250096D01*
X357078Y250251D01*
X357362Y250398D01*
X357649Y250538D01*
X357940Y250671D01*
X358234Y250797D01*
X358531Y250916D01*
X358831Y251027D01*
X359133Y251131D01*
X359438Y251228D01*
X359745Y251317D01*
X360054Y251399D01*
X360365Y251472D01*
X360678Y251539D01*
X360993Y251597D01*
X361308Y251648D01*
X361625Y251691D01*
X361943Y251726D01*
X362262Y251754D01*
X362581Y251773D01*
X362900Y251785D01*
X363220Y251789D01*
X363540Y251785D01*
X363859Y251773D01*
X364178Y251754D01*
X364497Y251726D01*
X364815Y251691D01*
X365132Y251648D01*
X365447Y251597D01*
X365762Y251539D01*
X366075Y251472D01*
X366386Y251399D01*
X366695Y251317D01*
X367002Y251228D01*
X367307Y251131D01*
X367609Y251027D01*
X367909Y250916D01*
X368206Y250797D01*
X368500Y250671D01*
X368791Y250538D01*
X369078Y250398D01*
X369362Y250251D01*
X369642Y250096D01*
X369918Y249935D01*
X370190Y249768D01*
X370459Y249593D01*
X370722Y249412D01*
X370981Y249225D01*
X371236Y249031D01*
X371486Y248832D01*
X371730Y248626D01*
X371970Y248414D01*
X372204Y248196D01*
X372433Y247973D01*
X372656Y247744D01*
X372874Y247510D01*
X373086Y247270D01*
X373292Y247026D01*
X373491Y246776D01*
X373685Y246521D01*
X373872Y246262D01*
X374053Y245999D01*
X374228Y245730D01*
X374395Y245458D01*
X374556Y245182D01*
X374711Y244902D01*
X374858Y244618D01*
X374998Y244331D01*
X375131Y244040D01*
X375257Y243746D01*
X375376Y243449D01*
X375487Y243149D01*
X375591Y242847D01*
X375688Y242542D01*
X375777Y242235D01*
X375859Y241926D01*
X375932Y241615D01*
X375999Y241302D01*
X376057Y240987D01*
X376108Y240672D01*
X376151Y240355D01*
X376186Y240037D01*
X376214Y239718D01*
X376233Y239399D01*
X376245Y239080D01*
X376249Y238760D01*
X376245Y238440D01*
X376233Y238121D01*
X376214Y237802D01*
X376186Y237483D01*
X376151Y237165D01*
X376108Y236848D01*
X376057Y236533D01*
X375999Y236218D01*
X375932Y235905D01*
X375859Y235594D01*
X375777Y235285D01*
X375688Y234978D01*
X375591Y234673D01*
X375487Y234371D01*
X375376Y234071D01*
X375257Y233774D01*
X375131Y233480D01*
X374998Y233189D01*
X374858Y232902D01*
X374711Y232618D01*
X374556Y232338D01*
X374395Y232062D01*
X374228Y231790D01*
X374053Y231521D01*
X373872Y231258D01*
X373685Y230999D01*
X373491Y230744D01*
X373292Y230494D01*
X373086Y230250D01*
X372874Y230010D01*
X372656Y229776D01*
X372433Y229547D01*
X372204Y229324D01*
X371970Y229106D01*
X371730Y228894D01*
X371486Y228688D01*
X371236Y228489D01*
X370981Y228295D01*
X370722Y228108D01*
X370459Y227927D01*
X370190Y227752D01*
X369918Y227585D01*
X369642Y227424D01*
X369362Y227269D01*
X369078Y227122D01*
X368791Y226982D01*
X368500Y226849D01*
X368206Y226723D01*
X367909Y226604D01*
X367609Y226493D01*
X367307Y226389D01*
X367002Y226292D01*
X366695Y226203D01*
X366386Y226121D01*
X366075Y226048D01*
X365762Y225981D01*
X365447Y225923D01*
X365132Y225872D01*
X364815Y225829D01*
X364497Y225794D01*
X364178Y225766D01*
X363859Y225747D01*
X363540Y225735D01*
X363220Y225731D01*
X362900Y225735D01*
X362581Y225747D01*
X362262Y225766D01*
X361943Y225794D01*
X361625Y225829D01*
X361308Y225872D01*
X360993Y225923D01*
X360678Y225981D01*
X360365Y226048D01*
X360054Y226121D01*
X359745Y226203D01*
X359438Y226292D01*
X359133Y226389D01*
X358831Y226493D01*
X358531Y226604D01*
X358234Y226723D01*
X357940Y226849D01*
X357649Y226982D01*
X357362Y227122D01*
X357078Y227269D01*
X356798Y227424D01*
X356522Y227585D01*
X356250Y227752D01*
X355981Y227927D01*
X355718Y228108D01*
X355459Y228295D01*
X355204Y228489D01*
X354954Y228688D01*
X354710Y228894D01*
X354470Y229106D01*
X354236Y229324D01*
X354007Y229547D01*
X353784Y229776D01*
X353566Y230010D01*
X353354Y230250D01*
X353148Y230494D01*
X352949Y230744D01*
X352755Y230999D01*
X352568Y231258D01*
X352387Y231521D01*
X352212Y231790D01*
X352045Y232062D01*
X351884Y232338D01*
X351729Y232618D01*
X351582Y232902D01*
X351442Y233189D01*
X351309Y233480D01*
X351183Y233774D01*
X351064Y234071D01*
X350953Y234371D01*
X350849Y234673D01*
X350752Y234978D01*
X350663Y235285D01*
X350581Y235594D01*
X350508Y235905D01*
X350441Y236218D01*
X350383Y236533D01*
X350332Y236848D01*
X350289Y237165D01*
X350254Y237483D01*
X350226Y237802D01*
X350207Y238121D01*
X350195Y238440D01*
X350191Y238760D01*
D11*
X365252Y258235D02*
X371862Y258235D01*
X371862Y256032D02*
X371862Y260438D01*
X371862Y263516D02*
X365252Y263516D01*
X371862Y263516D02*
X371862Y266821D01*
X370760Y267923D01*
X368557Y267923D01*
X367455Y266821D01*
X367455Y263516D01*
X370760Y271000D02*
X371862Y272102D01*
X371862Y274305D01*
X370760Y275407D01*
X369658Y275407D01*
X368557Y274305D01*
X368557Y273204D01*
X368557Y274305D02*
X367455Y275407D01*
X366354Y275407D01*
X365252Y274305D01*
X365252Y272102D01*
X366354Y271000D01*
D10*
X350191Y213360D02*
X350195Y213680D01*
X350207Y213999D01*
X350226Y214318D01*
X350254Y214637D01*
X350289Y214955D01*
X350332Y215272D01*
X350383Y215587D01*
X350441Y215902D01*
X350508Y216215D01*
X350581Y216526D01*
X350663Y216835D01*
X350752Y217142D01*
X350849Y217447D01*
X350953Y217749D01*
X351064Y218049D01*
X351183Y218346D01*
X351309Y218640D01*
X351442Y218931D01*
X351582Y219218D01*
X351729Y219502D01*
X351884Y219782D01*
X352045Y220058D01*
X352212Y220330D01*
X352387Y220599D01*
X352568Y220862D01*
X352755Y221121D01*
X352949Y221376D01*
X353148Y221626D01*
X353354Y221870D01*
X353566Y222110D01*
X353784Y222344D01*
X354007Y222573D01*
X354236Y222796D01*
X354470Y223014D01*
X354710Y223226D01*
X354954Y223432D01*
X355204Y223631D01*
X355459Y223825D01*
X355718Y224012D01*
X355981Y224193D01*
X356250Y224368D01*
X356522Y224535D01*
X356798Y224696D01*
X357078Y224851D01*
X357362Y224998D01*
X357649Y225138D01*
X357940Y225271D01*
X358234Y225397D01*
X358531Y225516D01*
X358831Y225627D01*
X359133Y225731D01*
X359438Y225828D01*
X359745Y225917D01*
X360054Y225999D01*
X360365Y226072D01*
X360678Y226139D01*
X360993Y226197D01*
X361308Y226248D01*
X361625Y226291D01*
X361943Y226326D01*
X362262Y226354D01*
X362581Y226373D01*
X362900Y226385D01*
X363220Y226389D01*
X363540Y226385D01*
X363859Y226373D01*
X364178Y226354D01*
X364497Y226326D01*
X364815Y226291D01*
X365132Y226248D01*
X365447Y226197D01*
X365762Y226139D01*
X366075Y226072D01*
X366386Y225999D01*
X366695Y225917D01*
X367002Y225828D01*
X367307Y225731D01*
X367609Y225627D01*
X367909Y225516D01*
X368206Y225397D01*
X368500Y225271D01*
X368791Y225138D01*
X369078Y224998D01*
X369362Y224851D01*
X369642Y224696D01*
X369918Y224535D01*
X370190Y224368D01*
X370459Y224193D01*
X370722Y224012D01*
X370981Y223825D01*
X371236Y223631D01*
X371486Y223432D01*
X371730Y223226D01*
X371970Y223014D01*
X372204Y222796D01*
X372433Y222573D01*
X372656Y222344D01*
X372874Y222110D01*
X373086Y221870D01*
X373292Y221626D01*
X373491Y221376D01*
X373685Y221121D01*
X373872Y220862D01*
X374053Y220599D01*
X374228Y220330D01*
X374395Y220058D01*
X374556Y219782D01*
X374711Y219502D01*
X374858Y219218D01*
X374998Y218931D01*
X375131Y218640D01*
X375257Y218346D01*
X375376Y218049D01*
X375487Y217749D01*
X375591Y217447D01*
X375688Y217142D01*
X375777Y216835D01*
X375859Y216526D01*
X375932Y216215D01*
X375999Y215902D01*
X376057Y215587D01*
X376108Y215272D01*
X376151Y214955D01*
X376186Y214637D01*
X376214Y214318D01*
X376233Y213999D01*
X376245Y213680D01*
X376249Y213360D01*
X376245Y213040D01*
X376233Y212721D01*
X376214Y212402D01*
X376186Y212083D01*
X376151Y211765D01*
X376108Y211448D01*
X376057Y211133D01*
X375999Y210818D01*
X375932Y210505D01*
X375859Y210194D01*
X375777Y209885D01*
X375688Y209578D01*
X375591Y209273D01*
X375487Y208971D01*
X375376Y208671D01*
X375257Y208374D01*
X375131Y208080D01*
X374998Y207789D01*
X374858Y207502D01*
X374711Y207218D01*
X374556Y206938D01*
X374395Y206662D01*
X374228Y206390D01*
X374053Y206121D01*
X373872Y205858D01*
X373685Y205599D01*
X373491Y205344D01*
X373292Y205094D01*
X373086Y204850D01*
X372874Y204610D01*
X372656Y204376D01*
X372433Y204147D01*
X372204Y203924D01*
X371970Y203706D01*
X371730Y203494D01*
X371486Y203288D01*
X371236Y203089D01*
X370981Y202895D01*
X370722Y202708D01*
X370459Y202527D01*
X370190Y202352D01*
X369918Y202185D01*
X369642Y202024D01*
X369362Y201869D01*
X369078Y201722D01*
X368791Y201582D01*
X368500Y201449D01*
X368206Y201323D01*
X367909Y201204D01*
X367609Y201093D01*
X367307Y200989D01*
X367002Y200892D01*
X366695Y200803D01*
X366386Y200721D01*
X366075Y200648D01*
X365762Y200581D01*
X365447Y200523D01*
X365132Y200472D01*
X364815Y200429D01*
X364497Y200394D01*
X364178Y200366D01*
X363859Y200347D01*
X363540Y200335D01*
X363220Y200331D01*
X362900Y200335D01*
X362581Y200347D01*
X362262Y200366D01*
X361943Y200394D01*
X361625Y200429D01*
X361308Y200472D01*
X360993Y200523D01*
X360678Y200581D01*
X360365Y200648D01*
X360054Y200721D01*
X359745Y200803D01*
X359438Y200892D01*
X359133Y200989D01*
X358831Y201093D01*
X358531Y201204D01*
X358234Y201323D01*
X357940Y201449D01*
X357649Y201582D01*
X357362Y201722D01*
X357078Y201869D01*
X356798Y202024D01*
X356522Y202185D01*
X356250Y202352D01*
X355981Y202527D01*
X355718Y202708D01*
X355459Y202895D01*
X355204Y203089D01*
X354954Y203288D01*
X354710Y203494D01*
X354470Y203706D01*
X354236Y203924D01*
X354007Y204147D01*
X353784Y204376D01*
X353566Y204610D01*
X353354Y204850D01*
X353148Y205094D01*
X352949Y205344D01*
X352755Y205599D01*
X352568Y205858D01*
X352387Y206121D01*
X352212Y206390D01*
X352045Y206662D01*
X351884Y206938D01*
X351729Y207218D01*
X351582Y207502D01*
X351442Y207789D01*
X351309Y208080D01*
X351183Y208374D01*
X351064Y208671D01*
X350953Y208971D01*
X350849Y209273D01*
X350752Y209578D01*
X350663Y209885D01*
X350581Y210194D01*
X350508Y210505D01*
X350441Y210818D01*
X350383Y211133D01*
X350332Y211448D01*
X350289Y211765D01*
X350254Y212083D01*
X350226Y212402D01*
X350207Y212721D01*
X350195Y213040D01*
X350191Y213360D01*
D11*
X365252Y232835D02*
X371862Y232835D01*
X371862Y230632D02*
X371862Y235038D01*
X371862Y238116D02*
X365252Y238116D01*
X371862Y238116D02*
X371862Y241421D01*
X370760Y242523D01*
X368557Y242523D01*
X367455Y241421D01*
X367455Y238116D01*
X365252Y248905D02*
X371862Y248905D01*
X368557Y245600D01*
X368557Y250007D01*
D10*
X350191Y187960D02*
X350195Y188280D01*
X350207Y188599D01*
X350226Y188918D01*
X350254Y189237D01*
X350289Y189555D01*
X350332Y189872D01*
X350383Y190187D01*
X350441Y190502D01*
X350508Y190815D01*
X350581Y191126D01*
X350663Y191435D01*
X350752Y191742D01*
X350849Y192047D01*
X350953Y192349D01*
X351064Y192649D01*
X351183Y192946D01*
X351309Y193240D01*
X351442Y193531D01*
X351582Y193818D01*
X351729Y194102D01*
X351884Y194382D01*
X352045Y194658D01*
X352212Y194930D01*
X352387Y195199D01*
X352568Y195462D01*
X352755Y195721D01*
X352949Y195976D01*
X353148Y196226D01*
X353354Y196470D01*
X353566Y196710D01*
X353784Y196944D01*
X354007Y197173D01*
X354236Y197396D01*
X354470Y197614D01*
X354710Y197826D01*
X354954Y198032D01*
X355204Y198231D01*
X355459Y198425D01*
X355718Y198612D01*
X355981Y198793D01*
X356250Y198968D01*
X356522Y199135D01*
X356798Y199296D01*
X357078Y199451D01*
X357362Y199598D01*
X357649Y199738D01*
X357940Y199871D01*
X358234Y199997D01*
X358531Y200116D01*
X358831Y200227D01*
X359133Y200331D01*
X359438Y200428D01*
X359745Y200517D01*
X360054Y200599D01*
X360365Y200672D01*
X360678Y200739D01*
X360993Y200797D01*
X361308Y200848D01*
X361625Y200891D01*
X361943Y200926D01*
X362262Y200954D01*
X362581Y200973D01*
X362900Y200985D01*
X363220Y200989D01*
X363540Y200985D01*
X363859Y200973D01*
X364178Y200954D01*
X364497Y200926D01*
X364815Y200891D01*
X365132Y200848D01*
X365447Y200797D01*
X365762Y200739D01*
X366075Y200672D01*
X366386Y200599D01*
X366695Y200517D01*
X367002Y200428D01*
X367307Y200331D01*
X367609Y200227D01*
X367909Y200116D01*
X368206Y199997D01*
X368500Y199871D01*
X368791Y199738D01*
X369078Y199598D01*
X369362Y199451D01*
X369642Y199296D01*
X369918Y199135D01*
X370190Y198968D01*
X370459Y198793D01*
X370722Y198612D01*
X370981Y198425D01*
X371236Y198231D01*
X371486Y198032D01*
X371730Y197826D01*
X371970Y197614D01*
X372204Y197396D01*
X372433Y197173D01*
X372656Y196944D01*
X372874Y196710D01*
X373086Y196470D01*
X373292Y196226D01*
X373491Y195976D01*
X373685Y195721D01*
X373872Y195462D01*
X374053Y195199D01*
X374228Y194930D01*
X374395Y194658D01*
X374556Y194382D01*
X374711Y194102D01*
X374858Y193818D01*
X374998Y193531D01*
X375131Y193240D01*
X375257Y192946D01*
X375376Y192649D01*
X375487Y192349D01*
X375591Y192047D01*
X375688Y191742D01*
X375777Y191435D01*
X375859Y191126D01*
X375932Y190815D01*
X375999Y190502D01*
X376057Y190187D01*
X376108Y189872D01*
X376151Y189555D01*
X376186Y189237D01*
X376214Y188918D01*
X376233Y188599D01*
X376245Y188280D01*
X376249Y187960D01*
X376245Y187640D01*
X376233Y187321D01*
X376214Y187002D01*
X376186Y186683D01*
X376151Y186365D01*
X376108Y186048D01*
X376057Y185733D01*
X375999Y185418D01*
X375932Y185105D01*
X375859Y184794D01*
X375777Y184485D01*
X375688Y184178D01*
X375591Y183873D01*
X375487Y183571D01*
X375376Y183271D01*
X375257Y182974D01*
X375131Y182680D01*
X374998Y182389D01*
X374858Y182102D01*
X374711Y181818D01*
X374556Y181538D01*
X374395Y181262D01*
X374228Y180990D01*
X374053Y180721D01*
X373872Y180458D01*
X373685Y180199D01*
X373491Y179944D01*
X373292Y179694D01*
X373086Y179450D01*
X372874Y179210D01*
X372656Y178976D01*
X372433Y178747D01*
X372204Y178524D01*
X371970Y178306D01*
X371730Y178094D01*
X371486Y177888D01*
X371236Y177689D01*
X370981Y177495D01*
X370722Y177308D01*
X370459Y177127D01*
X370190Y176952D01*
X369918Y176785D01*
X369642Y176624D01*
X369362Y176469D01*
X369078Y176322D01*
X368791Y176182D01*
X368500Y176049D01*
X368206Y175923D01*
X367909Y175804D01*
X367609Y175693D01*
X367307Y175589D01*
X367002Y175492D01*
X366695Y175403D01*
X366386Y175321D01*
X366075Y175248D01*
X365762Y175181D01*
X365447Y175123D01*
X365132Y175072D01*
X364815Y175029D01*
X364497Y174994D01*
X364178Y174966D01*
X363859Y174947D01*
X363540Y174935D01*
X363220Y174931D01*
X362900Y174935D01*
X362581Y174947D01*
X362262Y174966D01*
X361943Y174994D01*
X361625Y175029D01*
X361308Y175072D01*
X360993Y175123D01*
X360678Y175181D01*
X360365Y175248D01*
X360054Y175321D01*
X359745Y175403D01*
X359438Y175492D01*
X359133Y175589D01*
X358831Y175693D01*
X358531Y175804D01*
X358234Y175923D01*
X357940Y176049D01*
X357649Y176182D01*
X357362Y176322D01*
X357078Y176469D01*
X356798Y176624D01*
X356522Y176785D01*
X356250Y176952D01*
X355981Y177127D01*
X355718Y177308D01*
X355459Y177495D01*
X355204Y177689D01*
X354954Y177888D01*
X354710Y178094D01*
X354470Y178306D01*
X354236Y178524D01*
X354007Y178747D01*
X353784Y178976D01*
X353566Y179210D01*
X353354Y179450D01*
X353148Y179694D01*
X352949Y179944D01*
X352755Y180199D01*
X352568Y180458D01*
X352387Y180721D01*
X352212Y180990D01*
X352045Y181262D01*
X351884Y181538D01*
X351729Y181818D01*
X351582Y182102D01*
X351442Y182389D01*
X351309Y182680D01*
X351183Y182974D01*
X351064Y183271D01*
X350953Y183571D01*
X350849Y183873D01*
X350752Y184178D01*
X350663Y184485D01*
X350581Y184794D01*
X350508Y185105D01*
X350441Y185418D01*
X350383Y185733D01*
X350332Y186048D01*
X350289Y186365D01*
X350254Y186683D01*
X350226Y187002D01*
X350207Y187321D01*
X350195Y187640D01*
X350191Y187960D01*
D11*
X365252Y207435D02*
X371862Y207435D01*
X371862Y205232D02*
X371862Y209638D01*
X371862Y212716D02*
X365252Y212716D01*
X371862Y212716D02*
X371862Y216021D01*
X370760Y217123D01*
X368557Y217123D01*
X367455Y216021D01*
X367455Y212716D01*
X371862Y220200D02*
X371862Y224607D01*
X371862Y220200D02*
X368557Y220200D01*
X369658Y222404D01*
X369658Y223505D01*
X368557Y224607D01*
X366354Y224607D01*
X365252Y223505D01*
X365252Y221302D01*
X366354Y220200D01*
M02*
