G04 EAGLE Gerber RS-274X export*
G75*
%MOMM*%
%FSLAX34Y34*%
%LPD*%
%INSoldermask Top*%
%IPPOS*%
%AMOC8*
5,1,8,0,0,1.08239X$1,22.5*%
G01*
%ADD10R,0.803200X1.203200*%
%ADD11R,1.203200X0.803200*%
%ADD12R,1.203200X1.603200*%
%ADD13R,0.753200X1.403200*%
%ADD14R,1.303200X1.203200*%
%ADD15R,1.003200X1.403200*%
%ADD16R,1.603200X1.803200*%
%ADD17R,1.003200X1.003200*%
%ADD18R,1.203200X1.303200*%
%ADD19C,2.082800*%
%ADD20R,1.603200X1.203200*%
%ADD21R,1.473200X1.673200*%


D10*
X6800Y94980D03*
X14800Y94980D03*
X22800Y94980D03*
X30800Y94980D03*
X38800Y94980D03*
X46800Y94980D03*
X54800Y94980D03*
X62800Y94980D03*
X70800Y94980D03*
X78800Y94980D03*
X86800Y94980D03*
X94800Y94980D03*
X102800Y94980D03*
X110800Y94980D03*
X118800Y94980D03*
X126800Y94980D03*
X134800Y94980D03*
X142800Y94980D03*
X150800Y94980D03*
X158800Y94980D03*
X166800Y94980D03*
D11*
X176800Y104980D03*
X176800Y112980D03*
X176800Y120980D03*
X176800Y128980D03*
X176800Y136980D03*
X176800Y144980D03*
X176800Y152980D03*
X176800Y160980D03*
X176800Y168980D03*
X176800Y176980D03*
X176800Y184980D03*
X176800Y192980D03*
X176800Y200980D03*
D10*
X166800Y210980D03*
X158800Y210980D03*
X150800Y210980D03*
X142800Y210980D03*
X134800Y210980D03*
X126800Y210980D03*
X118800Y210980D03*
X110800Y210980D03*
X102800Y210980D03*
X94800Y210980D03*
X86800Y210980D03*
X78800Y210980D03*
X70800Y210980D03*
X62800Y210980D03*
X54800Y210980D03*
X46800Y210980D03*
X38800Y210980D03*
D12*
X393700Y77900D03*
X384200Y99900D03*
X403200Y99900D03*
D13*
X536600Y139399D03*
X546100Y139399D03*
X555600Y139399D03*
X555600Y165401D03*
X536600Y165401D03*
D14*
X385200Y114300D03*
X402200Y114300D03*
X33900Y-1270D03*
X16900Y-1270D03*
D15*
X560180Y190500D03*
X542180Y190500D03*
D16*
X560100Y114300D03*
X532100Y114300D03*
D17*
X62110Y-1270D03*
X47110Y-1270D03*
X62110Y25400D03*
X47110Y25400D03*
X62110Y12700D03*
X47110Y12700D03*
D14*
X33900Y12700D03*
X16900Y12700D03*
X33900Y25400D03*
X16900Y25400D03*
D18*
X419100Y80400D03*
X419100Y97400D03*
D12*
X330200Y77900D03*
X320700Y99900D03*
X339700Y99900D03*
D14*
X321700Y114300D03*
X338700Y114300D03*
D18*
X355600Y80400D03*
X355600Y97400D03*
D16*
X532100Y215900D03*
X560100Y215900D03*
D14*
X423300Y198120D03*
X440300Y198120D03*
X423300Y210820D03*
X440300Y210820D03*
D19*
X622300Y88900D03*
X622300Y114300D03*
X622300Y139700D03*
X622300Y165100D03*
X622300Y190500D03*
X622300Y215900D03*
X88900Y0D03*
X114300Y0D03*
X139700Y0D03*
X165100Y0D03*
X190500Y0D03*
X215900Y0D03*
X241300Y0D03*
X266700Y0D03*
X292100Y0D03*
X317500Y0D03*
X342900Y0D03*
X368300Y0D03*
X393700Y0D03*
X419100Y0D03*
X444500Y0D03*
X469900Y0D03*
D18*
X12700Y249800D03*
X12700Y232800D03*
D20*
X217600Y177800D03*
X239600Y187300D03*
X239600Y168300D03*
D15*
X265540Y152400D03*
X247540Y152400D03*
X296020Y152400D03*
X278020Y152400D03*
D14*
X309000Y152400D03*
X326000Y152400D03*
D18*
X25400Y249800D03*
X25400Y232800D03*
D21*
X461100Y152400D03*
X504100Y152400D03*
D19*
X63500Y279400D03*
X88900Y279400D03*
X114300Y279400D03*
X139700Y279400D03*
X165100Y279400D03*
X190500Y279400D03*
X215900Y279400D03*
X241300Y279400D03*
X266700Y279400D03*
X292100Y279400D03*
X317500Y279400D03*
X342900Y279400D03*
X368300Y279400D03*
X393700Y279400D03*
X419100Y279400D03*
X444500Y279400D03*
X469900Y279400D03*
X495300Y279400D03*
X520700Y279400D03*
X546100Y279400D03*
X571500Y279400D03*
X622300Y0D03*
X596900Y0D03*
X571500Y0D03*
X546100Y0D03*
X520700Y0D03*
X495300Y0D03*
D21*
X461100Y120650D03*
X504100Y120650D03*
X461100Y184150D03*
X504100Y184150D03*
D19*
X596900Y279400D03*
X622300Y279400D03*
M02*
