G04 EAGLE Gerber RS-274X export*
G75*
%MOMM*%
%FSLAX34Y34*%
%LPD*%
%INSolderpaste Top*%
%IPPOS*%
%AMOC8*
5,1,8,0,0,1.08239X$1,22.5*%
G01*
%ADD10R,1.500000X1.240000*%
%ADD11R,1.200000X0.550000*%
%ADD12R,1.075000X1.000000*%
%ADD13R,0.900000X0.450000*%
%ADD14R,0.500000X0.500000*%
%ADD15R,0.400000X0.500000*%
%ADD16R,0.600000X1.550000*%
%ADD17R,1.200000X1.800000*%
%ADD18R,0.800000X0.800000*%
%ADD19R,0.250000X0.500000*%
%ADD20R,0.500000X0.250000*%
%ADD21R,0.800000X1.350000*%


D10*
X123190Y65430D03*
X123190Y84430D03*
D11*
X106981Y69240D03*
X106981Y78740D03*
X106981Y88240D03*
X80979Y88240D03*
X80979Y69240D03*
D10*
X125095Y119355D03*
X125095Y100355D03*
D12*
X62475Y55245D03*
X45475Y55245D03*
D13*
X74540Y184450D03*
X57540Y184450D03*
X74540Y175450D03*
X74540Y167450D03*
X74540Y158450D03*
X57540Y158450D03*
X57540Y175450D03*
X57540Y167450D03*
D14*
X107830Y177910D03*
D15*
X100330Y177910D03*
D14*
X92830Y177910D03*
X92830Y159910D03*
D15*
X100330Y159910D03*
D14*
X107830Y159910D03*
D16*
X93900Y203460D03*
X83900Y203460D03*
X103900Y203460D03*
X73900Y203460D03*
D17*
X116900Y242460D03*
X60900Y242460D03*
D16*
X83900Y50540D03*
X93900Y50540D03*
X73900Y50540D03*
X103900Y50540D03*
D17*
X60900Y11540D03*
X116900Y11540D03*
D18*
X52070Y28060D03*
X52070Y43060D03*
D19*
X98900Y140500D03*
X93900Y140500D03*
X88900Y140500D03*
X83900Y140500D03*
X78900Y140500D03*
D20*
X75400Y132000D03*
X75400Y127000D03*
X75400Y122000D03*
D19*
X78900Y113500D03*
X83900Y113500D03*
X88900Y113500D03*
X93900Y113500D03*
X98900Y113500D03*
D20*
X102400Y122000D03*
X102400Y127000D03*
X102400Y132000D03*
D21*
X60325Y142240D03*
X60325Y116840D03*
D13*
X66920Y95550D03*
X49920Y95550D03*
X66920Y86550D03*
X66920Y78550D03*
X66920Y69550D03*
X49920Y69550D03*
X49920Y86550D03*
X49920Y78550D03*
M02*
