M48
;GenerationSoftware,Autodesk,EAGLE,9.6.2*%
;CreationDate,2022-08-05T19:21:06Z*%
FMAT,2
ICI,OFF
METRIC,TZ,000.000
T4C0.813
T3C1.000
T2C1.016
T1C2.800
%
G90
M71
T1
X5045Y16250
X5045Y47250
X80045Y47250
X80045Y16250
T2
X68123Y5690
X68123Y1168
X74625Y5690
X74625Y1168
X48565Y9500
X48565Y4978
X55067Y9500
X55067Y4978
X68123Y12294
X68123Y7772
X74625Y12294
X74625Y7772
X63983Y10236
X59461Y10236
X63983Y3734
X59461Y3734
X78257Y3480
X82779Y3480
X78257Y9982
X82779Y9982
T3
X44918Y4485
X39918Y4485
X2413Y51435
X2413Y53975
X4953Y51435
X4953Y53975
X7493Y51435
X7493Y53975
X10033Y51435
X28325Y47250
X10033Y53975
X12573Y51435
X12573Y53975
X15113Y51435
X15113Y53975
X17653Y53975
X20193Y51435
X20193Y53975
X22733Y51435
X22733Y53975
X25273Y51435
X25273Y53975
X27813Y51435
X27813Y53975
X30353Y51435
X30353Y53975
X32893Y51435
X32893Y53975
X17653Y51435
X10545Y47250
X13085Y47250
X15625Y47250
X18165Y47250
X20705Y47250
X23245Y47250
X25785Y47250
X30865Y47250
X33405Y47250
X35945Y47250
X38485Y47250
X41025Y47250
X43565Y47250
X46105Y47250
X48645Y47250
X51185Y47250
X53725Y47250
X42418Y9485
T4
X35433Y10541
X32893Y10541
X30353Y10541
X27813Y10541
X25273Y10541
X22733Y10541
X20193Y10541
X17653Y10541
X15113Y10541
X10033Y10541
X7493Y10541
X4953Y10541
X2413Y10541
X2413Y2921
X4953Y2921
X7493Y2921
X10033Y2921
X12573Y2921
X15113Y2921
X17653Y2921
X20193Y2921
X22733Y2921
X25273Y2921
X27813Y2921
X30353Y2921
X32893Y2921
X35433Y2921
X12573Y10541
X71374Y51435
X81534Y51435
X56134Y51435
X68834Y51435
X45974Y51435
X58674Y51435
M30