G04 EAGLE Gerber RS-274X export*
G75*
%MOMM*%
%FSLAX34Y34*%
%LPD*%
%IN*%
%IPPOS*%
%AMOC8*
5,1,8,0,0,1.08239X$1,22.5*%
G01*
%ADD10C,0.254000*%


D10*
X-8Y40010D02*
X144Y36524D01*
X600Y33064D01*
X1355Y29657D01*
X2404Y26329D01*
X3740Y23105D01*
X5351Y20010D01*
X7226Y17067D01*
X9350Y14299D01*
X11708Y11726D01*
X14281Y9368D01*
X17049Y7244D01*
X19992Y5369D01*
X23087Y3758D01*
X26311Y2422D01*
X29639Y1373D01*
X33046Y618D01*
X36506Y162D01*
X39992Y10D01*
X43478Y162D01*
X46938Y618D01*
X50345Y1373D01*
X53673Y2422D01*
X56897Y3758D01*
X59992Y5369D01*
X62935Y7244D01*
X65704Y9368D01*
X68276Y11726D01*
X70634Y14299D01*
X72758Y17067D01*
X74633Y20010D01*
X76244Y23105D01*
X77580Y26329D01*
X78629Y29657D01*
X79384Y33064D01*
X79840Y36524D01*
X79992Y40010D01*
X79992Y80010D01*
X1570992Y80010D01*
X1570992Y40010D01*
X1571144Y36524D01*
X1571600Y33064D01*
X1572355Y29657D01*
X1573404Y26329D01*
X1574740Y23105D01*
X1576351Y20010D01*
X1578226Y17067D01*
X1580350Y14299D01*
X1582708Y11726D01*
X1585281Y9368D01*
X1588049Y7244D01*
X1590992Y5369D01*
X1594087Y3758D01*
X1597311Y2422D01*
X1600639Y1373D01*
X1604046Y618D01*
X1607506Y162D01*
X1610992Y10D01*
X1614478Y162D01*
X1617938Y618D01*
X1621345Y1373D01*
X1624673Y2422D01*
X1627897Y3758D01*
X1630992Y5369D01*
X1633935Y7244D01*
X1636704Y9368D01*
X1639276Y11726D01*
X1641634Y14299D01*
X1643758Y17067D01*
X1645633Y20010D01*
X1647244Y23105D01*
X1648580Y26329D01*
X1649629Y29657D01*
X1650384Y33064D01*
X1650840Y36524D01*
X1650992Y40010D01*
X1650992Y1122010D01*
X1650840Y1125496D01*
X1650384Y1128956D01*
X1649629Y1132363D01*
X1648580Y1135691D01*
X1647244Y1138915D01*
X1645633Y1142010D01*
X1643758Y1144953D01*
X1641634Y1147722D01*
X1639276Y1150294D01*
X1636704Y1152652D01*
X1633935Y1154776D01*
X1630992Y1156651D01*
X1627897Y1158262D01*
X1624673Y1159598D01*
X1621345Y1160647D01*
X1617938Y1161402D01*
X1614478Y1161858D01*
X1610992Y1162010D01*
X1607547Y1161903D01*
X1604125Y1161497D01*
X1600752Y1160793D01*
X1597452Y1159799D01*
X1594252Y1158520D01*
X1591175Y1156968D01*
X1588245Y1155153D01*
X1585485Y1153090D01*
X1582915Y1150794D01*
X1580555Y1148283D01*
X1578422Y1145576D01*
X1576534Y1142693D01*
X1574904Y1139657D01*
X1573545Y1136490D01*
X1572467Y1133216D01*
X1571679Y1129862D01*
X1571186Y1126451D01*
X1570992Y1123010D01*
X1570992Y1082010D01*
X79992Y1082010D01*
X79992Y1122010D01*
X79840Y1125496D01*
X79384Y1128956D01*
X78629Y1132363D01*
X77580Y1135691D01*
X76244Y1138915D01*
X74633Y1142010D01*
X72758Y1144953D01*
X70634Y1147722D01*
X68276Y1150294D01*
X65704Y1152652D01*
X62935Y1154776D01*
X59992Y1156651D01*
X56897Y1158262D01*
X53673Y1159598D01*
X50345Y1160647D01*
X46938Y1161402D01*
X43478Y1161858D01*
X39992Y1162010D01*
X36506Y1161858D01*
X33046Y1161402D01*
X29639Y1160647D01*
X26311Y1159598D01*
X23087Y1158262D01*
X19992Y1156651D01*
X17049Y1154776D01*
X14281Y1152652D01*
X11708Y1150294D01*
X9350Y1147722D01*
X7226Y1144953D01*
X5351Y1142010D01*
X3740Y1138915D01*
X2404Y1135691D01*
X1355Y1132363D01*
X600Y1128956D01*
X144Y1125496D01*
X-8Y1122010D01*
X-8Y40010D01*
X12992Y340010D02*
X12981Y339769D01*
X12990Y339529D01*
X13021Y339290D01*
X13072Y339054D01*
X13144Y338824D01*
X13235Y338602D01*
X13346Y338387D01*
X13475Y338184D01*
X13621Y337992D01*
X13783Y337814D01*
X13960Y337651D01*
X14151Y337503D01*
X14353Y337373D01*
X14567Y337261D01*
X14789Y337168D01*
X15018Y337095D01*
X15253Y337042D01*
X15492Y337010D01*
X21492Y337010D01*
X21731Y337042D01*
X21966Y337095D01*
X22195Y337168D01*
X22417Y337261D01*
X22631Y337373D01*
X22834Y337503D01*
X23024Y337651D01*
X23201Y337814D01*
X23363Y337992D01*
X23509Y338184D01*
X23638Y338387D01*
X23749Y338602D01*
X23840Y338824D01*
X23912Y339054D01*
X23963Y339290D01*
X23994Y339529D01*
X24003Y339769D01*
X23992Y340010D01*
X24003Y340251D01*
X23994Y340491D01*
X23963Y340730D01*
X23912Y340966D01*
X23840Y341196D01*
X23749Y341419D01*
X23638Y341633D01*
X23509Y341836D01*
X23363Y342028D01*
X23201Y342206D01*
X23024Y342369D01*
X22834Y342517D01*
X22631Y342647D01*
X22417Y342759D01*
X22195Y342852D01*
X21966Y342925D01*
X21731Y342978D01*
X21492Y343010D01*
X15492Y343010D01*
X15253Y342978D01*
X15018Y342925D01*
X14789Y342852D01*
X14567Y342759D01*
X14353Y342647D01*
X14151Y342517D01*
X13960Y342369D01*
X13783Y342206D01*
X13621Y342028D01*
X13475Y341836D01*
X13346Y341633D01*
X13235Y341419D01*
X13144Y341196D01*
X13072Y340966D01*
X13021Y340730D01*
X12990Y340491D01*
X12981Y340251D01*
X12992Y340010D01*
X12992Y412010D02*
X12981Y411769D01*
X12990Y411529D01*
X13021Y411290D01*
X13072Y411054D01*
X13144Y410824D01*
X13235Y410602D01*
X13346Y410387D01*
X13475Y410184D01*
X13621Y409992D01*
X13783Y409814D01*
X13960Y409651D01*
X14151Y409503D01*
X14353Y409373D01*
X14567Y409261D01*
X14789Y409168D01*
X15018Y409095D01*
X15253Y409042D01*
X15492Y409010D01*
X21492Y409010D01*
X21731Y409042D01*
X21966Y409095D01*
X22195Y409168D01*
X22417Y409261D01*
X22631Y409373D01*
X22834Y409503D01*
X23024Y409651D01*
X23201Y409814D01*
X23363Y409992D01*
X23509Y410184D01*
X23638Y410387D01*
X23749Y410602D01*
X23840Y410824D01*
X23912Y411054D01*
X23963Y411290D01*
X23994Y411529D01*
X24003Y411769D01*
X23992Y412010D01*
X24003Y412251D01*
X23994Y412491D01*
X23963Y412730D01*
X23912Y412966D01*
X23840Y413196D01*
X23749Y413419D01*
X23638Y413633D01*
X23509Y413836D01*
X23363Y414028D01*
X23201Y414206D01*
X23024Y414369D01*
X22834Y414517D01*
X22631Y414647D01*
X22417Y414759D01*
X22195Y414852D01*
X21966Y414925D01*
X21731Y414978D01*
X21492Y415010D01*
X15492Y415010D01*
X15253Y414978D01*
X15018Y414925D01*
X14789Y414852D01*
X14567Y414759D01*
X14353Y414647D01*
X14151Y414517D01*
X13960Y414369D01*
X13783Y414206D01*
X13621Y414028D01*
X13475Y413836D01*
X13346Y413633D01*
X13235Y413419D01*
X13144Y413196D01*
X13072Y412966D01*
X13021Y412730D01*
X12990Y412491D01*
X12981Y412251D01*
X12992Y412010D01*
X16792Y517510D02*
X16809Y517118D01*
X16860Y516729D01*
X16945Y516345D01*
X17063Y515971D01*
X17214Y515608D01*
X17395Y515260D01*
X17606Y514929D01*
X17845Y514617D01*
X18110Y514328D01*
X18399Y514063D01*
X18711Y513824D01*
X19042Y513613D01*
X19390Y513432D01*
X19753Y513281D01*
X20127Y513163D01*
X20511Y513078D01*
X20900Y513027D01*
X21292Y513010D01*
X29292Y513010D01*
X29684Y513027D01*
X30073Y513078D01*
X30457Y513163D01*
X30831Y513281D01*
X31194Y513432D01*
X31542Y513613D01*
X31873Y513824D01*
X32185Y514063D01*
X32474Y514328D01*
X32739Y514617D01*
X32978Y514929D01*
X33189Y515260D01*
X33370Y515608D01*
X33521Y515971D01*
X33639Y516345D01*
X33724Y516729D01*
X33775Y517118D01*
X33792Y517510D01*
X33775Y517902D01*
X33724Y518291D01*
X33639Y518675D01*
X33521Y519049D01*
X33370Y519412D01*
X33189Y519760D01*
X32978Y520091D01*
X32739Y520403D01*
X32474Y520692D01*
X32185Y520957D01*
X31873Y521196D01*
X31542Y521407D01*
X31194Y521588D01*
X30831Y521739D01*
X30457Y521857D01*
X30073Y521942D01*
X29684Y521993D01*
X29292Y522010D01*
X21292Y522010D01*
X20900Y521993D01*
X20511Y521942D01*
X20127Y521857D01*
X19753Y521739D01*
X19390Y521588D01*
X19042Y521407D01*
X18711Y521196D01*
X18399Y520957D01*
X18110Y520692D01*
X17845Y520403D01*
X17606Y520091D01*
X17395Y519760D01*
X17214Y519412D01*
X17063Y519049D01*
X16945Y518675D01*
X16860Y518291D01*
X16809Y517902D01*
X16792Y517510D01*
X71492Y517510D02*
X71509Y517118D01*
X71560Y516729D01*
X71645Y516345D01*
X71763Y515971D01*
X71914Y515608D01*
X72095Y515260D01*
X72306Y514929D01*
X72545Y514617D01*
X72810Y514328D01*
X73099Y514063D01*
X73411Y513824D01*
X73742Y513613D01*
X74090Y513432D01*
X74453Y513281D01*
X74827Y513163D01*
X75211Y513078D01*
X75600Y513027D01*
X75992Y513010D01*
X93992Y513010D01*
X94384Y513027D01*
X94773Y513078D01*
X95157Y513163D01*
X95531Y513281D01*
X95894Y513432D01*
X96242Y513613D01*
X96573Y513824D01*
X96885Y514063D01*
X97174Y514328D01*
X97439Y514617D01*
X97678Y514929D01*
X97889Y515260D01*
X98070Y515608D01*
X98221Y515971D01*
X98339Y516345D01*
X98424Y516729D01*
X98475Y517118D01*
X98492Y517510D01*
X98475Y517902D01*
X98424Y518291D01*
X98339Y518675D01*
X98221Y519049D01*
X98070Y519412D01*
X97889Y519760D01*
X97678Y520091D01*
X97439Y520403D01*
X97174Y520692D01*
X96885Y520957D01*
X96573Y521196D01*
X96242Y521407D01*
X95894Y521588D01*
X95531Y521739D01*
X95157Y521857D01*
X94773Y521942D01*
X94384Y521993D01*
X93992Y522010D01*
X75992Y522010D01*
X75600Y521993D01*
X75211Y521942D01*
X74827Y521857D01*
X74453Y521739D01*
X74090Y521588D01*
X73742Y521407D01*
X73411Y521196D01*
X73099Y520957D01*
X72810Y520692D01*
X72545Y520403D01*
X72306Y520091D01*
X72095Y519760D01*
X71914Y519412D01*
X71763Y519049D01*
X71645Y518675D01*
X71560Y518291D01*
X71509Y517902D01*
X71492Y517510D01*
X16792Y662510D02*
X16809Y662118D01*
X16860Y661729D01*
X16945Y661345D01*
X17063Y660971D01*
X17214Y660608D01*
X17395Y660260D01*
X17606Y659929D01*
X17845Y659617D01*
X18110Y659328D01*
X18399Y659063D01*
X18711Y658824D01*
X19042Y658613D01*
X19390Y658432D01*
X19753Y658281D01*
X20127Y658163D01*
X20511Y658078D01*
X20900Y658027D01*
X21292Y658010D01*
X29292Y658010D01*
X29684Y658027D01*
X30073Y658078D01*
X30457Y658163D01*
X30831Y658281D01*
X31194Y658432D01*
X31542Y658613D01*
X31873Y658824D01*
X32185Y659063D01*
X32474Y659328D01*
X32739Y659617D01*
X32978Y659929D01*
X33189Y660260D01*
X33370Y660608D01*
X33521Y660971D01*
X33639Y661345D01*
X33724Y661729D01*
X33775Y662118D01*
X33792Y662510D01*
X33775Y662902D01*
X33724Y663291D01*
X33639Y663675D01*
X33521Y664049D01*
X33370Y664412D01*
X33189Y664760D01*
X32978Y665091D01*
X32739Y665403D01*
X32474Y665692D01*
X32185Y665957D01*
X31873Y666196D01*
X31542Y666407D01*
X31194Y666588D01*
X30831Y666739D01*
X30457Y666857D01*
X30073Y666942D01*
X29684Y666993D01*
X29292Y667010D01*
X21292Y667010D01*
X20900Y666993D01*
X20511Y666942D01*
X20127Y666857D01*
X19753Y666739D01*
X19390Y666588D01*
X19042Y666407D01*
X18711Y666196D01*
X18399Y665957D01*
X18110Y665692D01*
X17845Y665403D01*
X17606Y665091D01*
X17395Y664760D01*
X17214Y664412D01*
X17063Y664049D01*
X16945Y663675D01*
X16860Y663291D01*
X16809Y662902D01*
X16792Y662510D01*
X71492Y662510D02*
X71509Y662118D01*
X71560Y661729D01*
X71645Y661345D01*
X71763Y660971D01*
X71914Y660608D01*
X72095Y660260D01*
X72306Y659929D01*
X72545Y659617D01*
X72810Y659328D01*
X73099Y659063D01*
X73411Y658824D01*
X73742Y658613D01*
X74090Y658432D01*
X74453Y658281D01*
X74827Y658163D01*
X75211Y658078D01*
X75600Y658027D01*
X75992Y658010D01*
X93992Y658010D01*
X94384Y658027D01*
X94773Y658078D01*
X95157Y658163D01*
X95531Y658281D01*
X95894Y658432D01*
X96242Y658613D01*
X96573Y658824D01*
X96885Y659063D01*
X97174Y659328D01*
X97439Y659617D01*
X97678Y659929D01*
X97889Y660260D01*
X98070Y660608D01*
X98221Y660971D01*
X98339Y661345D01*
X98424Y661729D01*
X98475Y662118D01*
X98492Y662510D01*
X98475Y662902D01*
X98424Y663291D01*
X98339Y663675D01*
X98221Y664049D01*
X98070Y664412D01*
X97889Y664760D01*
X97678Y665091D01*
X97439Y665403D01*
X97174Y665692D01*
X96885Y665957D01*
X96573Y666196D01*
X96242Y666407D01*
X95894Y666588D01*
X95531Y666739D01*
X95157Y666857D01*
X94773Y666942D01*
X94384Y666993D01*
X93992Y667010D01*
X75992Y667010D01*
X75600Y666993D01*
X75211Y666942D01*
X74827Y666857D01*
X74453Y666739D01*
X74090Y666588D01*
X73742Y666407D01*
X73411Y666196D01*
X73099Y665957D01*
X72810Y665692D01*
X72545Y665403D01*
X72306Y665091D01*
X72095Y664760D01*
X71914Y664412D01*
X71763Y664049D01*
X71645Y663675D01*
X71560Y663291D01*
X71509Y662902D01*
X71492Y662510D01*
X1060522Y542450D02*
X1357702Y542450D01*
X1357702Y615530D01*
X1060522Y615530D01*
X1060522Y542450D01*
X37263Y392010D02*
X36808Y392070D01*
X36365Y392189D01*
X35941Y392364D01*
X35543Y392594D01*
X35179Y392873D01*
X34855Y393197D01*
X34576Y393561D01*
X34346Y393959D01*
X34171Y394383D01*
X34052Y394826D01*
X33992Y395281D01*
X33992Y395739D01*
X34052Y396194D01*
X34171Y396637D01*
X34346Y397061D01*
X34576Y397459D01*
X34855Y397823D01*
X35179Y398147D01*
X35543Y398426D01*
X35941Y398656D01*
X36365Y398831D01*
X36808Y398950D01*
X37263Y399010D01*
X37721Y399010D01*
X38176Y398950D01*
X38619Y398831D01*
X39043Y398656D01*
X39441Y398426D01*
X39805Y398147D01*
X40129Y397823D01*
X40408Y397459D01*
X40638Y397061D01*
X40813Y396637D01*
X40932Y396194D01*
X40992Y395739D01*
X40992Y395281D01*
X40932Y394826D01*
X40813Y394383D01*
X40638Y393959D01*
X40408Y393561D01*
X40129Y393197D01*
X39805Y392873D01*
X39441Y392594D01*
X39043Y392364D01*
X38619Y392189D01*
X38176Y392070D01*
X37721Y392010D01*
X37263Y392010D01*
X37263Y353010D02*
X36808Y353070D01*
X36365Y353189D01*
X35941Y353364D01*
X35543Y353594D01*
X35179Y353873D01*
X34855Y354197D01*
X34576Y354561D01*
X34346Y354959D01*
X34171Y355383D01*
X34052Y355826D01*
X33992Y356281D01*
X33992Y356739D01*
X34052Y357194D01*
X34171Y357637D01*
X34346Y358061D01*
X34576Y358459D01*
X34855Y358823D01*
X35179Y359147D01*
X35543Y359426D01*
X35941Y359656D01*
X36365Y359831D01*
X36808Y359950D01*
X37263Y360010D01*
X37721Y360010D01*
X38176Y359950D01*
X38619Y359831D01*
X39043Y359656D01*
X39441Y359426D01*
X39805Y359147D01*
X40129Y358823D01*
X40408Y358459D01*
X40638Y358061D01*
X40813Y357637D01*
X40932Y357194D01*
X40992Y356739D01*
X40992Y356281D01*
X40932Y355826D01*
X40813Y355383D01*
X40638Y354959D01*
X40408Y354561D01*
X40129Y354197D01*
X39805Y353873D01*
X39441Y353594D01*
X39043Y353364D01*
X38619Y353189D01*
X38176Y353070D01*
X37721Y353010D01*
X37263Y353010D01*
M02*
