M48
;GenerationSoftware,Autodesk,EAGLE,9.6.2*%
;CreationDate,2022-08-08T08:30:47Z*%
FMAT,2
ICI,OFF
METRIC,TZ,000.000
T6C0.500
T5C1.000
T4C1.100
T3C1.200
T2C2.500
T1C2.540
%
G90
M71
T1
X48260Y20320
X48260Y2540
T2
X2540Y20320
X2540Y2540
T3
X13970Y6350
X13970Y8890
X13970Y11430
X13970Y13970
X13970Y16510
X26670Y8890
X26670Y11430
X11430Y6350
X11430Y8890
X11430Y11430
X11430Y13970
X11430Y16510
X19050Y8890
X3810Y16510
X1270Y16510
X1270Y13970
X3810Y13970
X19050Y11430
X19050Y13970
X3810Y11430
X1270Y11430
X1270Y8890
X3810Y8890
X21590Y13970
X21590Y11430
X3810Y6350
X1270Y6350
X21590Y8890
X26670Y13970
X29210Y11430
X24130Y8890
X29210Y8890
X24130Y13970
X24130Y11430
X29210Y13970
X16510Y13970
X16510Y11430
X16510Y8890
T4
X29210Y16510
X29210Y6350
X6350Y16510
X6350Y13970
X6350Y11430
X6350Y8890
X6350Y6350
X8890Y6350
X8890Y8890
X8890Y11430
X8890Y13970
X8890Y16510
X16510Y16510
X19050Y16510
X21590Y16510
X16510Y6350
X19050Y6350
X21590Y6350
X24130Y6350
X24130Y16510
X26670Y6350
X26670Y16510
T5
X21590Y21590
X41910Y19050
X44450Y19050
X46990Y13230
X46990Y9730
X44450Y6350
X16510Y21590
X19050Y21590
X41910Y21590
X24130Y21590
X26670Y21590
X29210Y21590
X31750Y21590
X34290Y21590
X36830Y21590
X39370Y21590
X46990Y6350
X44450Y21590
X16510Y1270
X19050Y1270
X21590Y1270
X24130Y1270
X26670Y1270
X29210Y1270
X31750Y1270
X34290Y1270
X36830Y1270
X39370Y1270
X41910Y1270
X44450Y1270
X13970Y1270
X11430Y1270
X8890Y1270
X6350Y1270
X44450Y3810
X41910Y3810
X39370Y3810
X36830Y3810
X34290Y3810
X31750Y3810
X29210Y3810
X26670Y3810
X24130Y3810
X21590Y3810
X19050Y3810
X16510Y3810
X13970Y3810
X11430Y3810
X8890Y3810
X6350Y3810
X16510Y19050
X19050Y19050
X21590Y19050
X24130Y19050
X26670Y19050
X29210Y19050
X31750Y19050
X34290Y19050
X36830Y19050
X39370Y19050
T6
X44196Y16383
X35560Y9525
X38354Y13335
X37719Y11811
X39370Y16510
X40386Y12065
M30