G04 EAGLE Gerber RS-274X export*
G75*
%MOMM*%
%FSLAX34Y34*%
%LPD*%
%INBottom Copper*%
%IPPOS*%
%AMOC8*
5,1,8,0,0,1.08239X$1,22.5*%
G01*
%ADD10C,3.516000*%
%ADD11C,1.778000*%
%ADD12C,0.906400*%
%ADD13C,0.254000*%
%ADD14C,0.889000*%
%ADD15C,0.406400*%

G36*
X228622Y2543D02*
X228622Y2543D01*
X228700Y2545D01*
X232077Y2810D01*
X232145Y2824D01*
X232214Y2829D01*
X232370Y2869D01*
X238794Y4956D01*
X238901Y5006D01*
X239012Y5050D01*
X239063Y5083D01*
X239082Y5091D01*
X239097Y5104D01*
X239148Y5136D01*
X244612Y9107D01*
X244699Y9188D01*
X244746Y9227D01*
X244752Y9231D01*
X244753Y9233D01*
X244791Y9264D01*
X244829Y9310D01*
X244844Y9324D01*
X244855Y9342D01*
X244893Y9388D01*
X246586Y11717D01*
X246599Y11741D01*
X246616Y11761D01*
X246675Y11880D01*
X246739Y11996D01*
X246746Y12022D01*
X246758Y12046D01*
X246785Y12174D01*
X246799Y12185D01*
X246823Y12196D01*
X246925Y12281D01*
X247031Y12361D01*
X247048Y12381D01*
X247068Y12398D01*
X247171Y12522D01*
X248864Y14852D01*
X248921Y14956D01*
X248985Y15056D01*
X249007Y15113D01*
X249017Y15131D01*
X249022Y15151D01*
X249044Y15206D01*
X251131Y21630D01*
X251144Y21698D01*
X251167Y21764D01*
X251190Y21923D01*
X251455Y25300D01*
X251455Y25304D01*
X251456Y25307D01*
X251455Y25326D01*
X251459Y25400D01*
X251459Y152400D01*
X251457Y152422D01*
X251455Y152500D01*
X251190Y155877D01*
X251176Y155945D01*
X251171Y156014D01*
X251131Y156170D01*
X249044Y162594D01*
X248993Y162701D01*
X248950Y162812D01*
X248917Y162863D01*
X248909Y162882D01*
X248896Y162897D01*
X248864Y162948D01*
X247171Y165278D01*
X247153Y165297D01*
X247139Y165320D01*
X247044Y165413D01*
X246953Y165509D01*
X246931Y165524D01*
X246912Y165542D01*
X246798Y165608D01*
X246792Y165624D01*
X246789Y165651D01*
X246740Y165775D01*
X246697Y165900D01*
X246682Y165922D01*
X246672Y165947D01*
X246586Y166083D01*
X244893Y168412D01*
X244812Y168499D01*
X244736Y168591D01*
X244690Y168629D01*
X244676Y168644D01*
X244658Y168655D01*
X244612Y168693D01*
X239148Y172664D01*
X239044Y172721D01*
X238944Y172785D01*
X238887Y172807D01*
X238869Y172817D01*
X238849Y172822D01*
X238794Y172844D01*
X232370Y174931D01*
X232302Y174944D01*
X232236Y174967D01*
X232077Y174990D01*
X228700Y175255D01*
X228678Y175254D01*
X228600Y175259D01*
X25400Y175259D01*
X25378Y175257D01*
X25300Y175255D01*
X21923Y174990D01*
X21855Y174976D01*
X21786Y174971D01*
X21630Y174931D01*
X18892Y174041D01*
X18867Y174030D01*
X18842Y174024D01*
X18724Y173963D01*
X18604Y173906D01*
X18583Y173889D01*
X18560Y173877D01*
X18462Y173789D01*
X18445Y173788D01*
X18418Y173793D01*
X18286Y173785D01*
X18153Y173783D01*
X18127Y173775D01*
X18101Y173774D01*
X17945Y173734D01*
X15206Y172844D01*
X15099Y172794D01*
X14988Y172750D01*
X14937Y172717D01*
X14918Y172709D01*
X14903Y172696D01*
X14852Y172664D01*
X9388Y168693D01*
X9301Y168612D01*
X9209Y168536D01*
X9171Y168490D01*
X9156Y168476D01*
X9145Y168458D01*
X9107Y168412D01*
X5136Y162948D01*
X5079Y162844D01*
X5015Y162744D01*
X4993Y162687D01*
X4983Y162669D01*
X4978Y162649D01*
X4956Y162594D01*
X2869Y156170D01*
X2856Y156102D01*
X2833Y156036D01*
X2810Y155877D01*
X2545Y152500D01*
X2546Y152478D01*
X2541Y152400D01*
X2541Y25400D01*
X2543Y25378D01*
X2545Y25300D01*
X2810Y21923D01*
X2824Y21855D01*
X2829Y21786D01*
X2869Y21630D01*
X4956Y15206D01*
X5006Y15099D01*
X5050Y14988D01*
X5083Y14937D01*
X5091Y14918D01*
X5104Y14903D01*
X5136Y14852D01*
X9107Y9388D01*
X9127Y9366D01*
X9138Y9348D01*
X9184Y9305D01*
X9188Y9301D01*
X9264Y9209D01*
X9310Y9171D01*
X9324Y9156D01*
X9342Y9145D01*
X9388Y9107D01*
X14852Y5136D01*
X14956Y5079D01*
X15056Y5015D01*
X15113Y4993D01*
X15131Y4983D01*
X15151Y4978D01*
X15206Y4956D01*
X17945Y4066D01*
X17971Y4061D01*
X17996Y4051D01*
X18127Y4031D01*
X18257Y4006D01*
X18284Y4008D01*
X18310Y4004D01*
X18441Y4018D01*
X18455Y4008D01*
X18474Y3989D01*
X18585Y3917D01*
X18694Y3842D01*
X18719Y3832D01*
X18742Y3818D01*
X18891Y3759D01*
X21630Y2869D01*
X21698Y2856D01*
X21764Y2833D01*
X21923Y2810D01*
X25300Y2545D01*
X25322Y2546D01*
X25400Y2541D01*
X228600Y2541D01*
X228622Y2543D01*
G37*
%LPC*%
G36*
X175627Y14477D02*
X175627Y14477D01*
X171613Y16140D01*
X168540Y19213D01*
X166877Y23227D01*
X166877Y27573D01*
X168540Y31587D01*
X171613Y34660D01*
X172465Y35013D01*
X172508Y35037D01*
X172555Y35054D01*
X172646Y35116D01*
X172741Y35170D01*
X172777Y35205D01*
X172818Y35233D01*
X172891Y35315D01*
X172969Y35392D01*
X172995Y35434D01*
X173028Y35471D01*
X173078Y35569D01*
X173136Y35663D01*
X173150Y35710D01*
X173173Y35754D01*
X173197Y35862D01*
X173229Y35967D01*
X173232Y36016D01*
X173242Y36065D01*
X173239Y36175D01*
X173244Y36284D01*
X173234Y36333D01*
X173233Y36383D01*
X173202Y36488D01*
X173180Y36596D01*
X173158Y36640D01*
X173144Y36688D01*
X173089Y36782D01*
X173040Y36881D01*
X173008Y36919D01*
X172983Y36962D01*
X172876Y37083D01*
X165374Y44586D01*
X165295Y44646D01*
X165223Y44714D01*
X165170Y44743D01*
X165122Y44780D01*
X165031Y44820D01*
X164945Y44868D01*
X164886Y44883D01*
X164831Y44907D01*
X164733Y44922D01*
X164637Y44947D01*
X164537Y44953D01*
X164516Y44957D01*
X164504Y44955D01*
X164476Y44957D01*
X76453Y44957D01*
X60823Y60588D01*
X60744Y60648D01*
X60672Y60716D01*
X60619Y60745D01*
X60571Y60782D01*
X60480Y60822D01*
X60394Y60870D01*
X60335Y60885D01*
X60280Y60909D01*
X60182Y60924D01*
X60086Y60949D01*
X59986Y60955D01*
X59965Y60959D01*
X59953Y60957D01*
X59925Y60959D01*
X28350Y60959D01*
X23367Y65942D01*
X23367Y80108D01*
X25674Y82414D01*
X29474Y86215D01*
X29480Y86222D01*
X29487Y86228D01*
X29577Y86348D01*
X29669Y86466D01*
X29673Y86475D01*
X29679Y86482D01*
X29749Y86627D01*
X30221Y87765D01*
X32067Y89611D01*
X32278Y89699D01*
X32399Y89767D01*
X32522Y89832D01*
X32537Y89846D01*
X32554Y89856D01*
X32654Y89953D01*
X32757Y90046D01*
X32768Y90063D01*
X32783Y90077D01*
X32855Y90196D01*
X32932Y90312D01*
X32938Y90331D01*
X32949Y90348D01*
X32990Y90482D01*
X33035Y90613D01*
X33037Y90633D01*
X33043Y90652D01*
X33049Y90791D01*
X33060Y90930D01*
X33057Y90950D01*
X33058Y90970D01*
X33030Y91106D01*
X33006Y91243D01*
X32997Y91262D01*
X32993Y91282D01*
X32932Y91407D01*
X32875Y91533D01*
X32863Y91549D01*
X32854Y91567D01*
X32763Y91673D01*
X32677Y91782D01*
X32660Y91794D01*
X32647Y91809D01*
X32534Y91889D01*
X32423Y91973D01*
X32397Y91985D01*
X32387Y91992D01*
X32368Y92000D01*
X32278Y92044D01*
X31841Y92225D01*
X29995Y94071D01*
X28995Y96484D01*
X28995Y99096D01*
X29995Y101509D01*
X31841Y103355D01*
X34254Y104355D01*
X36866Y104355D01*
X39366Y103319D01*
X39389Y103302D01*
X39480Y103262D01*
X39566Y103214D01*
X39625Y103199D01*
X39681Y103175D01*
X39779Y103160D01*
X39874Y103135D01*
X39974Y103129D01*
X39995Y103125D01*
X40007Y103127D01*
X40035Y103125D01*
X42241Y103125D01*
X42339Y103137D01*
X42438Y103140D01*
X42496Y103157D01*
X42556Y103165D01*
X42648Y103201D01*
X42743Y103229D01*
X42795Y103259D01*
X42852Y103282D01*
X42932Y103340D01*
X43017Y103390D01*
X43093Y103456D01*
X43109Y103468D01*
X43117Y103478D01*
X43138Y103496D01*
X62874Y123232D01*
X62934Y123310D01*
X63002Y123382D01*
X63031Y123435D01*
X63068Y123483D01*
X63108Y123574D01*
X63156Y123661D01*
X63171Y123719D01*
X63195Y123775D01*
X63210Y123873D01*
X63235Y123969D01*
X63241Y124069D01*
X63245Y124089D01*
X63243Y124101D01*
X63245Y124129D01*
X63245Y134332D01*
X63233Y134430D01*
X63230Y134529D01*
X63213Y134588D01*
X63205Y134648D01*
X63169Y134740D01*
X63141Y134835D01*
X63111Y134887D01*
X63088Y134943D01*
X63030Y135023D01*
X62980Y135109D01*
X62914Y135184D01*
X62902Y135201D01*
X62892Y135208D01*
X62874Y135230D01*
X61818Y136285D01*
X60832Y138665D01*
X60832Y141243D01*
X61818Y143623D01*
X63641Y145446D01*
X66021Y146432D01*
X68599Y146432D01*
X70979Y145446D01*
X72802Y143623D01*
X73788Y141243D01*
X73788Y138665D01*
X72802Y136285D01*
X71746Y135230D01*
X71686Y135151D01*
X71618Y135079D01*
X71589Y135026D01*
X71552Y134978D01*
X71512Y134887D01*
X71464Y134801D01*
X71449Y134742D01*
X71425Y134686D01*
X71410Y134588D01*
X71385Y134493D01*
X71379Y134393D01*
X71375Y134372D01*
X71377Y134360D01*
X71375Y134332D01*
X71375Y120236D01*
X46134Y94995D01*
X42356Y94995D01*
X42327Y94992D01*
X42297Y94994D01*
X42169Y94972D01*
X42041Y94955D01*
X42013Y94945D01*
X41984Y94940D01*
X41865Y94886D01*
X41745Y94838D01*
X41721Y94821D01*
X41694Y94809D01*
X41593Y94728D01*
X41488Y94652D01*
X41469Y94629D01*
X41446Y94610D01*
X41368Y94507D01*
X41285Y94407D01*
X41272Y94380D01*
X41254Y94356D01*
X41183Y94212D01*
X41125Y94071D01*
X39279Y92225D01*
X39068Y92138D01*
X38947Y92069D01*
X38824Y92004D01*
X38809Y91990D01*
X38792Y91980D01*
X38692Y91883D01*
X38589Y91790D01*
X38578Y91773D01*
X38563Y91759D01*
X38491Y91640D01*
X38414Y91524D01*
X38408Y91505D01*
X38397Y91488D01*
X38356Y91355D01*
X38311Y91223D01*
X38310Y91203D01*
X38304Y91184D01*
X38297Y91045D01*
X38286Y90906D01*
X38289Y90886D01*
X38288Y90866D01*
X38316Y90730D01*
X38340Y90593D01*
X38349Y90574D01*
X38353Y90555D01*
X38414Y90429D01*
X38471Y90303D01*
X38483Y90287D01*
X38492Y90269D01*
X38583Y90163D01*
X38669Y90054D01*
X38686Y90042D01*
X38699Y90027D01*
X38812Y89947D01*
X38924Y89863D01*
X38949Y89851D01*
X38959Y89844D01*
X38978Y89837D01*
X39068Y89792D01*
X39505Y89611D01*
X41351Y87765D01*
X42351Y85352D01*
X42351Y82740D01*
X41351Y80327D01*
X40026Y79003D01*
X39953Y78908D01*
X39875Y78819D01*
X39856Y78783D01*
X39832Y78751D01*
X39784Y78642D01*
X39730Y78536D01*
X39721Y78497D01*
X39705Y78459D01*
X39686Y78342D01*
X39660Y78226D01*
X39662Y78185D01*
X39655Y78145D01*
X39666Y78027D01*
X39670Y77908D01*
X39681Y77869D01*
X39685Y77829D01*
X39725Y77716D01*
X39758Y77602D01*
X39779Y77568D01*
X39793Y77529D01*
X39860Y77431D01*
X39920Y77328D01*
X39960Y77283D01*
X39971Y77266D01*
X39987Y77253D01*
X40026Y77208D01*
X41169Y76064D01*
X41248Y76004D01*
X41320Y75936D01*
X41373Y75907D01*
X41421Y75870D01*
X41512Y75830D01*
X41598Y75782D01*
X41657Y75767D01*
X41713Y75743D01*
X41811Y75728D01*
X41906Y75703D01*
X42006Y75697D01*
X42027Y75693D01*
X42039Y75695D01*
X42067Y75693D01*
X47320Y75693D01*
X49488Y73524D01*
X49566Y73464D01*
X49638Y73396D01*
X49691Y73367D01*
X49739Y73330D01*
X49830Y73290D01*
X49917Y73242D01*
X49975Y73227D01*
X50031Y73203D01*
X50129Y73188D01*
X50225Y73163D01*
X50325Y73157D01*
X50345Y73153D01*
X50357Y73155D01*
X50385Y73153D01*
X66138Y73153D01*
X77196Y62094D01*
X77275Y62034D01*
X77347Y61966D01*
X77400Y61937D01*
X77448Y61900D01*
X77539Y61860D01*
X77625Y61812D01*
X77684Y61797D01*
X77739Y61773D01*
X77837Y61758D01*
X77933Y61733D01*
X78033Y61727D01*
X78054Y61723D01*
X78066Y61725D01*
X78094Y61723D01*
X145893Y61723D01*
X145991Y61735D01*
X146090Y61738D01*
X146148Y61755D01*
X146209Y61763D01*
X146301Y61799D01*
X146396Y61827D01*
X146448Y61857D01*
X146504Y61880D01*
X146584Y61938D01*
X146670Y61988D01*
X146745Y62054D01*
X146762Y62066D01*
X146769Y62076D01*
X146791Y62094D01*
X148681Y63985D01*
X151094Y64985D01*
X153706Y64985D01*
X156119Y63985D01*
X157965Y62139D01*
X158965Y59726D01*
X158965Y57114D01*
X157965Y54701D01*
X156993Y53729D01*
X156909Y53620D01*
X156820Y53513D01*
X156811Y53494D01*
X156798Y53478D01*
X156743Y53351D01*
X156684Y53225D01*
X156680Y53205D01*
X156672Y53186D01*
X156650Y53048D01*
X156624Y52912D01*
X156625Y52892D01*
X156622Y52872D01*
X156635Y52733D01*
X156644Y52595D01*
X156650Y52576D01*
X156652Y52556D01*
X156699Y52424D01*
X156742Y52293D01*
X156753Y52275D01*
X156760Y52256D01*
X156838Y52141D01*
X156912Y52024D01*
X156927Y52010D01*
X156938Y51993D01*
X157042Y51901D01*
X157144Y51806D01*
X157162Y51796D01*
X157177Y51783D01*
X157300Y51720D01*
X157422Y51652D01*
X157442Y51647D01*
X157460Y51638D01*
X157596Y51608D01*
X157730Y51573D01*
X157758Y51571D01*
X157770Y51568D01*
X157791Y51569D01*
X157891Y51563D01*
X164476Y51563D01*
X164574Y51575D01*
X164673Y51578D01*
X164732Y51595D01*
X164792Y51603D01*
X164884Y51639D01*
X164979Y51667D01*
X165031Y51697D01*
X165087Y51720D01*
X165167Y51778D01*
X165253Y51828D01*
X165328Y51894D01*
X165345Y51906D01*
X165353Y51916D01*
X165374Y51934D01*
X170126Y56686D01*
X170186Y56765D01*
X170254Y56837D01*
X170283Y56890D01*
X170320Y56938D01*
X170360Y57029D01*
X170408Y57115D01*
X170423Y57174D01*
X170447Y57229D01*
X170462Y57327D01*
X170487Y57423D01*
X170493Y57523D01*
X170497Y57544D01*
X170495Y57556D01*
X170497Y57584D01*
X170497Y86203D01*
X170485Y86301D01*
X170482Y86400D01*
X170465Y86458D01*
X170457Y86519D01*
X170421Y86611D01*
X170393Y86706D01*
X170363Y86758D01*
X170340Y86814D01*
X170282Y86894D01*
X170232Y86980D01*
X170166Y87055D01*
X170154Y87072D01*
X170144Y87079D01*
X170126Y87101D01*
X168235Y88991D01*
X167235Y91404D01*
X167235Y94016D01*
X168235Y96429D01*
X170081Y98275D01*
X172494Y99275D01*
X175106Y99275D01*
X177519Y98275D01*
X179409Y96384D01*
X179488Y96324D01*
X179560Y96256D01*
X179613Y96227D01*
X179661Y96190D01*
X179752Y96150D01*
X179838Y96102D01*
X179897Y96087D01*
X179953Y96063D01*
X180051Y96048D01*
X180146Y96023D01*
X180246Y96017D01*
X180267Y96013D01*
X180279Y96015D01*
X180307Y96013D01*
X211933Y96013D01*
X212031Y96025D01*
X212130Y96028D01*
X212188Y96045D01*
X212249Y96053D01*
X212341Y96089D01*
X212436Y96117D01*
X212488Y96147D01*
X212544Y96170D01*
X212624Y96228D01*
X212710Y96278D01*
X212785Y96344D01*
X212802Y96356D01*
X212809Y96366D01*
X212831Y96384D01*
X214721Y98275D01*
X217134Y99275D01*
X219746Y99275D01*
X222159Y98275D01*
X224005Y96429D01*
X225005Y94016D01*
X225005Y91404D01*
X224005Y88991D01*
X222159Y87145D01*
X219746Y86145D01*
X217134Y86145D01*
X214721Y87145D01*
X212831Y89036D01*
X212752Y89096D01*
X212680Y89164D01*
X212627Y89193D01*
X212579Y89230D01*
X212488Y89270D01*
X212402Y89318D01*
X212343Y89333D01*
X212287Y89357D01*
X212189Y89372D01*
X212094Y89397D01*
X211994Y89403D01*
X211973Y89407D01*
X211961Y89405D01*
X211933Y89407D01*
X180307Y89407D01*
X180209Y89395D01*
X180110Y89392D01*
X180052Y89375D01*
X179991Y89367D01*
X179899Y89331D01*
X179804Y89303D01*
X179752Y89273D01*
X179696Y89250D01*
X179616Y89192D01*
X179530Y89142D01*
X179455Y89076D01*
X179438Y89064D01*
X179431Y89054D01*
X179409Y89036D01*
X177474Y87101D01*
X177414Y87022D01*
X177346Y86950D01*
X177317Y86897D01*
X177280Y86849D01*
X177240Y86758D01*
X177192Y86672D01*
X177177Y86613D01*
X177153Y86557D01*
X177138Y86459D01*
X177113Y86364D01*
X177107Y86264D01*
X177103Y86243D01*
X177105Y86231D01*
X177103Y86203D01*
X177103Y54322D01*
X171938Y49158D01*
X171865Y49063D01*
X171787Y48974D01*
X171768Y48938D01*
X171743Y48906D01*
X171696Y48797D01*
X171642Y48691D01*
X171633Y48652D01*
X171617Y48614D01*
X171598Y48497D01*
X171572Y48381D01*
X171573Y48340D01*
X171567Y48300D01*
X171578Y48182D01*
X171582Y48063D01*
X171593Y48024D01*
X171597Y47984D01*
X171637Y47871D01*
X171670Y47757D01*
X171691Y47723D01*
X171705Y47684D01*
X171771Y47586D01*
X171832Y47483D01*
X171872Y47438D01*
X171883Y47421D01*
X171898Y47408D01*
X171938Y47363D01*
X181103Y38198D01*
X181103Y36703D01*
X181106Y36673D01*
X181104Y36644D01*
X181126Y36516D01*
X181143Y36387D01*
X181153Y36360D01*
X181158Y36331D01*
X181212Y36212D01*
X181260Y36091D01*
X181277Y36068D01*
X181289Y36041D01*
X181370Y35939D01*
X181446Y35834D01*
X181469Y35815D01*
X181488Y35792D01*
X181591Y35714D01*
X181691Y35631D01*
X181718Y35619D01*
X181742Y35601D01*
X181886Y35530D01*
X183987Y34660D01*
X187060Y31587D01*
X188723Y27573D01*
X188723Y23227D01*
X187060Y19213D01*
X183987Y16140D01*
X179973Y14477D01*
X175627Y14477D01*
G37*
%LPD*%
%LPC*%
G36*
X23676Y132780D02*
X23676Y132780D01*
X23658Y132780D01*
X23543Y132787D01*
X21499Y132787D01*
X20951Y133014D01*
X20853Y133041D01*
X20757Y133077D01*
X20665Y133092D01*
X20644Y133098D01*
X20631Y133098D01*
X20598Y133104D01*
X19179Y133253D01*
X16215Y134964D01*
X16212Y134965D01*
X16210Y134967D01*
X16066Y135038D01*
X14290Y135773D01*
X13693Y136370D01*
X13626Y136422D01*
X13565Y136483D01*
X13451Y136558D01*
X13442Y136565D01*
X13438Y136567D01*
X13431Y136572D01*
X11929Y137439D01*
X10139Y139903D01*
X10126Y139917D01*
X10116Y139933D01*
X10009Y140054D01*
X8773Y141290D01*
X8357Y142296D01*
X8322Y142356D01*
X8297Y142420D01*
X8211Y142556D01*
X7008Y144211D01*
X6447Y146850D01*
X6436Y146883D01*
X6431Y146919D01*
X6379Y147071D01*
X5787Y148499D01*
X5787Y149822D01*
X5781Y149874D01*
X5783Y149926D01*
X5760Y150086D01*
X5268Y152400D01*
X5760Y154714D01*
X5764Y154767D01*
X5777Y154818D01*
X5787Y154978D01*
X5787Y156301D01*
X6379Y157729D01*
X6388Y157763D01*
X6404Y157795D01*
X6447Y157950D01*
X7008Y160589D01*
X8211Y162244D01*
X8244Y162305D01*
X8286Y162360D01*
X8357Y162504D01*
X8773Y163510D01*
X10009Y164746D01*
X10021Y164761D01*
X10036Y164773D01*
X10139Y164897D01*
X11929Y167361D01*
X13431Y168228D01*
X13499Y168280D01*
X13573Y168324D01*
X13675Y168414D01*
X13684Y168421D01*
X13687Y168424D01*
X13693Y168430D01*
X14290Y169027D01*
X16066Y169762D01*
X16068Y169764D01*
X16070Y169764D01*
X16215Y169836D01*
X18972Y171428D01*
X18993Y171444D01*
X19017Y171455D01*
X19119Y171540D01*
X19166Y171575D01*
X19203Y171568D01*
X19229Y171569D01*
X19256Y171565D01*
X19416Y171572D01*
X20598Y171696D01*
X20698Y171720D01*
X20799Y171734D01*
X20887Y171764D01*
X20908Y171769D01*
X20920Y171775D01*
X20951Y171786D01*
X21499Y172013D01*
X23543Y172013D01*
X23560Y172015D01*
X23676Y172020D01*
X27504Y172422D01*
X28573Y172075D01*
X28690Y172053D01*
X28805Y172023D01*
X28865Y172019D01*
X28885Y172015D01*
X28906Y172017D01*
X28965Y172013D01*
X29301Y172013D01*
X31209Y171223D01*
X31230Y171217D01*
X31302Y171188D01*
X35466Y169835D01*
X36078Y169285D01*
X36188Y169208D01*
X36297Y169126D01*
X36327Y169111D01*
X36339Y169103D01*
X36359Y169096D01*
X36441Y169055D01*
X36510Y169027D01*
X37805Y167732D01*
X37819Y167721D01*
X37853Y167686D01*
X41687Y164234D01*
X41900Y163756D01*
X41979Y163626D01*
X42250Y162972D01*
X42255Y162963D01*
X42263Y162941D01*
X45092Y156586D01*
X45092Y148214D01*
X42263Y141859D01*
X42260Y141849D01*
X42250Y141828D01*
X41994Y141211D01*
X41975Y141187D01*
X41970Y141179D01*
X41968Y141175D01*
X41963Y141165D01*
X41900Y141044D01*
X41687Y140566D01*
X37853Y137114D01*
X37841Y137100D01*
X37804Y137068D01*
X36510Y135773D01*
X36441Y135745D01*
X36324Y135678D01*
X36204Y135615D01*
X36177Y135594D01*
X36165Y135587D01*
X36149Y135572D01*
X36078Y135515D01*
X35466Y134965D01*
X31302Y133612D01*
X31283Y133603D01*
X31209Y133577D01*
X29301Y132787D01*
X28965Y132787D01*
X28848Y132772D01*
X28729Y132765D01*
X28670Y132750D01*
X28650Y132747D01*
X28631Y132740D01*
X28573Y132725D01*
X27504Y132378D01*
X23676Y132780D01*
G37*
%LPD*%
%LPC*%
G36*
X226876Y132780D02*
X226876Y132780D01*
X226858Y132780D01*
X226743Y132787D01*
X224699Y132787D01*
X224151Y133014D01*
X224052Y133041D01*
X223957Y133077D01*
X223865Y133092D01*
X223844Y133098D01*
X223831Y133098D01*
X223798Y133104D01*
X222379Y133253D01*
X219415Y134964D01*
X219413Y134965D01*
X219410Y134967D01*
X219266Y135038D01*
X217490Y135773D01*
X216893Y136370D01*
X216826Y136422D01*
X216765Y136483D01*
X216651Y136558D01*
X216642Y136565D01*
X216638Y136567D01*
X216631Y136572D01*
X215129Y137439D01*
X213339Y139903D01*
X213326Y139917D01*
X213316Y139933D01*
X213209Y140054D01*
X211973Y141290D01*
X211557Y142296D01*
X211522Y142356D01*
X211497Y142420D01*
X211411Y142556D01*
X210208Y144211D01*
X209647Y146849D01*
X209636Y146883D01*
X209631Y146919D01*
X209579Y147071D01*
X208987Y148499D01*
X208987Y149822D01*
X208981Y149874D01*
X208983Y149926D01*
X208960Y150086D01*
X208468Y152400D01*
X208960Y154714D01*
X208964Y154767D01*
X208977Y154817D01*
X208987Y154978D01*
X208987Y156301D01*
X209579Y157729D01*
X209588Y157763D01*
X209604Y157795D01*
X209647Y157951D01*
X210208Y160589D01*
X211411Y162244D01*
X211444Y162305D01*
X211486Y162360D01*
X211557Y162504D01*
X211973Y163510D01*
X213209Y164746D01*
X213221Y164761D01*
X213236Y164773D01*
X213339Y164897D01*
X215129Y167361D01*
X216631Y168228D01*
X216699Y168280D01*
X216773Y168324D01*
X216875Y168414D01*
X216884Y168421D01*
X216887Y168424D01*
X216893Y168430D01*
X217490Y169027D01*
X219266Y169762D01*
X219268Y169764D01*
X219271Y169764D01*
X219415Y169836D01*
X222379Y171547D01*
X223798Y171696D01*
X223898Y171720D01*
X223999Y171734D01*
X224087Y171764D01*
X224108Y171769D01*
X224120Y171775D01*
X224151Y171786D01*
X224699Y172013D01*
X226743Y172013D01*
X226760Y172015D01*
X226876Y172020D01*
X230704Y172422D01*
X231773Y172075D01*
X231890Y172053D01*
X232005Y172023D01*
X232065Y172019D01*
X232085Y172015D01*
X232106Y172017D01*
X232165Y172013D01*
X232501Y172013D01*
X234409Y171222D01*
X234430Y171217D01*
X234503Y171188D01*
X238666Y169835D01*
X239278Y169285D01*
X239389Y169207D01*
X239497Y169126D01*
X239527Y169111D01*
X239539Y169103D01*
X239559Y169096D01*
X239641Y169055D01*
X239710Y169027D01*
X241005Y167732D01*
X241019Y167721D01*
X241053Y167686D01*
X244710Y164393D01*
X244732Y164378D01*
X244750Y164359D01*
X244862Y164288D01*
X244910Y164254D01*
X244914Y164217D01*
X244924Y164192D01*
X244929Y164166D01*
X244985Y164015D01*
X245100Y163756D01*
X245179Y163626D01*
X245450Y162971D01*
X245455Y162962D01*
X245463Y162941D01*
X248292Y156586D01*
X248292Y148214D01*
X245463Y141859D01*
X245460Y141849D01*
X245450Y141829D01*
X245194Y141211D01*
X245175Y141187D01*
X245170Y141179D01*
X245168Y141175D01*
X245163Y141164D01*
X245100Y141044D01*
X244887Y140566D01*
X241053Y137114D01*
X241041Y137100D01*
X241005Y137068D01*
X239710Y135773D01*
X239641Y135745D01*
X239524Y135678D01*
X239404Y135615D01*
X239377Y135594D01*
X239365Y135587D01*
X239350Y135572D01*
X239278Y135515D01*
X238666Y134965D01*
X234502Y133612D01*
X234483Y133603D01*
X234409Y133577D01*
X232501Y132787D01*
X232165Y132787D01*
X232047Y132772D01*
X231929Y132765D01*
X231870Y132750D01*
X231850Y132747D01*
X231831Y132740D01*
X231773Y132725D01*
X230704Y132378D01*
X226876Y132780D01*
G37*
%LPD*%
%LPC*%
G36*
X226876Y5780D02*
X226876Y5780D01*
X226858Y5780D01*
X226743Y5787D01*
X224699Y5787D01*
X224151Y6014D01*
X224052Y6041D01*
X223957Y6077D01*
X223865Y6092D01*
X223844Y6098D01*
X223831Y6098D01*
X223798Y6104D01*
X222379Y6253D01*
X219415Y7964D01*
X219413Y7965D01*
X219410Y7967D01*
X219266Y8038D01*
X217490Y8773D01*
X216893Y9370D01*
X216826Y9422D01*
X216765Y9483D01*
X216651Y9558D01*
X216642Y9565D01*
X216638Y9567D01*
X216631Y9572D01*
X215129Y10439D01*
X213339Y12903D01*
X213326Y12917D01*
X213316Y12933D01*
X213209Y13054D01*
X211973Y14290D01*
X211557Y15296D01*
X211522Y15356D01*
X211497Y15420D01*
X211411Y15556D01*
X210208Y17211D01*
X209647Y19849D01*
X209636Y19883D01*
X209631Y19919D01*
X209579Y20071D01*
X208987Y21499D01*
X208987Y22822D01*
X208981Y22874D01*
X208983Y22926D01*
X208960Y23086D01*
X208468Y25400D01*
X208960Y27714D01*
X208964Y27767D01*
X208977Y27817D01*
X208987Y27978D01*
X208987Y29301D01*
X209579Y30729D01*
X209588Y30763D01*
X209604Y30795D01*
X209647Y30951D01*
X210208Y33589D01*
X211411Y35244D01*
X211444Y35305D01*
X211486Y35360D01*
X211557Y35504D01*
X211973Y36510D01*
X213209Y37746D01*
X213221Y37761D01*
X213236Y37773D01*
X213339Y37897D01*
X215129Y40361D01*
X216631Y41228D01*
X216699Y41280D01*
X216773Y41324D01*
X216875Y41414D01*
X216884Y41421D01*
X216887Y41424D01*
X216893Y41430D01*
X217490Y42027D01*
X219266Y42762D01*
X219268Y42764D01*
X219271Y42764D01*
X219415Y42836D01*
X222379Y44547D01*
X223798Y44696D01*
X223898Y44720D01*
X223999Y44734D01*
X224087Y44764D01*
X224108Y44769D01*
X224120Y44775D01*
X224151Y44786D01*
X224699Y45013D01*
X226743Y45013D01*
X226760Y45015D01*
X226876Y45020D01*
X230704Y45422D01*
X231773Y45075D01*
X231890Y45053D01*
X232005Y45023D01*
X232065Y45019D01*
X232085Y45015D01*
X232106Y45017D01*
X232165Y45013D01*
X232501Y45013D01*
X234409Y44222D01*
X234430Y44217D01*
X234503Y44188D01*
X238666Y42835D01*
X239278Y42285D01*
X239389Y42207D01*
X239497Y42126D01*
X239527Y42111D01*
X239539Y42103D01*
X239559Y42096D01*
X239641Y42055D01*
X239710Y42027D01*
X241005Y40732D01*
X241019Y40721D01*
X241053Y40686D01*
X244887Y37234D01*
X245100Y36756D01*
X245179Y36626D01*
X245450Y35971D01*
X245455Y35962D01*
X245463Y35941D01*
X248292Y29586D01*
X248292Y21214D01*
X245463Y14859D01*
X245460Y14849D01*
X245450Y14829D01*
X245194Y14211D01*
X245175Y14187D01*
X245170Y14178D01*
X245168Y14175D01*
X245163Y14165D01*
X245100Y14044D01*
X244985Y13785D01*
X244977Y13759D01*
X244964Y13736D01*
X244931Y13607D01*
X244914Y13552D01*
X244880Y13536D01*
X244860Y13519D01*
X244836Y13507D01*
X244710Y13407D01*
X241053Y10114D01*
X241041Y10100D01*
X241005Y10068D01*
X239710Y8773D01*
X239641Y8745D01*
X239524Y8678D01*
X239404Y8615D01*
X239377Y8594D01*
X239365Y8587D01*
X239350Y8572D01*
X239278Y8515D01*
X238666Y7965D01*
X234502Y6612D01*
X234483Y6603D01*
X234409Y6577D01*
X232501Y5787D01*
X232165Y5787D01*
X232047Y5772D01*
X231929Y5765D01*
X231870Y5750D01*
X231850Y5747D01*
X231831Y5740D01*
X231773Y5725D01*
X230704Y5378D01*
X226876Y5780D01*
G37*
%LPD*%
%LPC*%
G36*
X23676Y5780D02*
X23676Y5780D01*
X23658Y5780D01*
X23543Y5787D01*
X21499Y5787D01*
X20951Y6014D01*
X20852Y6041D01*
X20757Y6077D01*
X20665Y6092D01*
X20644Y6098D01*
X20631Y6098D01*
X20598Y6104D01*
X19416Y6228D01*
X19390Y6227D01*
X19364Y6232D01*
X19231Y6224D01*
X19173Y6223D01*
X19147Y6250D01*
X19125Y6265D01*
X19106Y6283D01*
X18972Y6372D01*
X16215Y7964D01*
X16213Y7965D01*
X16210Y7967D01*
X16066Y8038D01*
X14290Y8773D01*
X13693Y9370D01*
X13626Y9422D01*
X13565Y9483D01*
X13451Y9558D01*
X13442Y9565D01*
X13438Y9567D01*
X13431Y9572D01*
X11929Y10439D01*
X10139Y12903D01*
X10126Y12917D01*
X10116Y12933D01*
X10009Y13054D01*
X8773Y14290D01*
X8357Y15296D01*
X8322Y15356D01*
X8297Y15420D01*
X8211Y15556D01*
X7008Y17211D01*
X6447Y19849D01*
X6436Y19883D01*
X6431Y19919D01*
X6379Y20071D01*
X5787Y21499D01*
X5787Y22822D01*
X5781Y22874D01*
X5783Y22926D01*
X5760Y23086D01*
X5268Y25400D01*
X5760Y27714D01*
X5764Y27767D01*
X5777Y27817D01*
X5787Y27978D01*
X5787Y29301D01*
X6379Y30729D01*
X6388Y30763D01*
X6404Y30795D01*
X6447Y30951D01*
X7008Y33589D01*
X8211Y35244D01*
X8244Y35305D01*
X8286Y35360D01*
X8357Y35504D01*
X8773Y36510D01*
X10009Y37746D01*
X10021Y37761D01*
X10036Y37773D01*
X10139Y37897D01*
X11929Y40361D01*
X13431Y41228D01*
X13499Y41280D01*
X13573Y41324D01*
X13675Y41414D01*
X13684Y41421D01*
X13687Y41424D01*
X13693Y41430D01*
X14290Y42027D01*
X16066Y42762D01*
X16068Y42764D01*
X16071Y42764D01*
X16215Y42836D01*
X19179Y44547D01*
X20598Y44696D01*
X20698Y44720D01*
X20799Y44734D01*
X20887Y44764D01*
X20908Y44769D01*
X20920Y44775D01*
X20951Y44786D01*
X21499Y45013D01*
X23543Y45013D01*
X23560Y45015D01*
X23676Y45020D01*
X27504Y45422D01*
X28573Y45075D01*
X28690Y45053D01*
X28805Y45023D01*
X28865Y45019D01*
X28885Y45015D01*
X28906Y45017D01*
X28965Y45013D01*
X29301Y45013D01*
X31209Y44222D01*
X31230Y44217D01*
X31303Y44188D01*
X35466Y42835D01*
X36078Y42285D01*
X36189Y42207D01*
X36297Y42126D01*
X36327Y42111D01*
X36339Y42103D01*
X36359Y42096D01*
X36441Y42055D01*
X36510Y42027D01*
X37805Y40732D01*
X37819Y40721D01*
X37853Y40686D01*
X41687Y37234D01*
X41900Y36756D01*
X41979Y36626D01*
X42250Y35971D01*
X42255Y35962D01*
X42263Y35941D01*
X45092Y29586D01*
X45092Y21214D01*
X42263Y14859D01*
X42260Y14849D01*
X42250Y14829D01*
X41994Y14211D01*
X41975Y14187D01*
X41970Y14179D01*
X41968Y14175D01*
X41963Y14164D01*
X41900Y14044D01*
X41687Y13566D01*
X37853Y10114D01*
X37841Y10100D01*
X37805Y10068D01*
X36510Y8773D01*
X36441Y8745D01*
X36324Y8678D01*
X36204Y8615D01*
X36177Y8594D01*
X36165Y8587D01*
X36150Y8572D01*
X36078Y8515D01*
X35466Y7965D01*
X31302Y6612D01*
X31283Y6603D01*
X31209Y6577D01*
X29301Y5787D01*
X28965Y5787D01*
X28847Y5772D01*
X28729Y5765D01*
X28670Y5750D01*
X28650Y5747D01*
X28631Y5740D01*
X28573Y5725D01*
X27504Y5378D01*
X23676Y5780D01*
G37*
%LPD*%
%LPC*%
G36*
X142221Y100202D02*
X142221Y100202D01*
X139841Y101188D01*
X138018Y103011D01*
X137032Y105391D01*
X137032Y107969D01*
X138018Y110349D01*
X139841Y112172D01*
X142221Y113158D01*
X144799Y113158D01*
X147179Y112172D01*
X148996Y110354D01*
X149075Y110294D01*
X149147Y110226D01*
X149200Y110197D01*
X149248Y110160D01*
X149339Y110120D01*
X149425Y110072D01*
X149484Y110057D01*
X149540Y110033D01*
X149638Y110018D01*
X149733Y109993D01*
X149833Y109987D01*
X149854Y109983D01*
X149866Y109985D01*
X149894Y109983D01*
X187336Y109983D01*
X187434Y109995D01*
X187533Y109998D01*
X187592Y110015D01*
X187652Y110023D01*
X187744Y110059D01*
X187839Y110087D01*
X187891Y110117D01*
X187947Y110140D01*
X188027Y110198D01*
X188113Y110248D01*
X188188Y110314D01*
X188205Y110326D01*
X188213Y110336D01*
X188234Y110354D01*
X189914Y112034D01*
X189974Y112113D01*
X190042Y112185D01*
X190071Y112238D01*
X190108Y112286D01*
X190148Y112377D01*
X190196Y112463D01*
X190211Y112522D01*
X190235Y112577D01*
X190250Y112675D01*
X190275Y112771D01*
X190281Y112871D01*
X190285Y112892D01*
X190283Y112904D01*
X190285Y112932D01*
X190285Y115606D01*
X191285Y118019D01*
X193131Y119865D01*
X195544Y120865D01*
X198156Y120865D01*
X200569Y119865D01*
X202415Y118019D01*
X203415Y115606D01*
X203415Y112994D01*
X202415Y110581D01*
X200569Y108735D01*
X198156Y107735D01*
X195482Y107735D01*
X195384Y107723D01*
X195285Y107720D01*
X195226Y107703D01*
X195166Y107695D01*
X195074Y107659D01*
X194979Y107631D01*
X194927Y107601D01*
X194871Y107578D01*
X194791Y107520D01*
X194705Y107470D01*
X194630Y107404D01*
X194613Y107392D01*
X194605Y107382D01*
X194584Y107364D01*
X190598Y103377D01*
X149894Y103377D01*
X149796Y103365D01*
X149697Y103362D01*
X149638Y103345D01*
X149578Y103337D01*
X149486Y103301D01*
X149391Y103273D01*
X149339Y103243D01*
X149283Y103220D01*
X149203Y103162D01*
X149117Y103112D01*
X149042Y103046D01*
X149025Y103034D01*
X149018Y103024D01*
X148996Y103006D01*
X147179Y101188D01*
X144799Y100202D01*
X142221Y100202D01*
G37*
%LPD*%
%LPC*%
G36*
X150227Y14477D02*
X150227Y14477D01*
X146213Y16140D01*
X143140Y19213D01*
X141477Y23227D01*
X141477Y27573D01*
X143140Y31587D01*
X146213Y34660D01*
X150227Y36323D01*
X154573Y36323D01*
X158587Y34660D01*
X161660Y31587D01*
X163323Y27573D01*
X163323Y23227D01*
X161660Y19213D01*
X158587Y16140D01*
X154573Y14477D01*
X150227Y14477D01*
G37*
%LPD*%
%LPC*%
G36*
X99427Y14477D02*
X99427Y14477D01*
X95413Y16140D01*
X92340Y19213D01*
X90677Y23227D01*
X90677Y27573D01*
X92340Y31587D01*
X95413Y34660D01*
X99427Y36323D01*
X103773Y36323D01*
X107787Y34660D01*
X110860Y31587D01*
X112523Y27573D01*
X112523Y23227D01*
X110860Y19213D01*
X107787Y16140D01*
X103773Y14477D01*
X99427Y14477D01*
G37*
%LPD*%
%LPC*%
G36*
X74027Y14477D02*
X74027Y14477D01*
X70013Y16140D01*
X66940Y19213D01*
X65277Y23227D01*
X65277Y27573D01*
X66940Y31587D01*
X70013Y34660D01*
X74027Y36323D01*
X78373Y36323D01*
X82387Y34660D01*
X85460Y31587D01*
X87123Y27573D01*
X87123Y23227D01*
X85460Y19213D01*
X82387Y16140D01*
X78373Y14477D01*
X74027Y14477D01*
G37*
%LPD*%
%LPC*%
G36*
X129499Y27899D02*
X129499Y27899D01*
X129499Y36577D01*
X129677Y36549D01*
X131388Y35993D01*
X132991Y35177D01*
X134447Y34119D01*
X135719Y32847D01*
X136777Y31391D01*
X137593Y29788D01*
X138149Y28077D01*
X138177Y27899D01*
X129499Y27899D01*
G37*
%LPD*%
%LPC*%
G36*
X115823Y27899D02*
X115823Y27899D01*
X115851Y28077D01*
X116407Y29788D01*
X117223Y31391D01*
X118281Y32847D01*
X119553Y34119D01*
X121009Y35177D01*
X122612Y35993D01*
X124323Y36549D01*
X124501Y36577D01*
X124501Y27899D01*
X115823Y27899D01*
G37*
%LPD*%
%LPC*%
G36*
X129499Y22901D02*
X129499Y22901D01*
X138177Y22901D01*
X138149Y22723D01*
X137593Y21012D01*
X136777Y19409D01*
X135719Y17953D01*
X134447Y16681D01*
X132991Y15623D01*
X131388Y14807D01*
X129677Y14251D01*
X129499Y14223D01*
X129499Y22901D01*
G37*
%LPD*%
%LPC*%
G36*
X124323Y14251D02*
X124323Y14251D01*
X122612Y14807D01*
X121009Y15623D01*
X119553Y16681D01*
X118281Y17953D01*
X117223Y19409D01*
X116407Y21012D01*
X115851Y22723D01*
X115823Y22901D01*
X124501Y22901D01*
X124501Y14223D01*
X124323Y14251D01*
G37*
%LPD*%
D10*
X25400Y152400D03*
X228600Y152400D03*
X25400Y25400D03*
X228600Y25400D03*
D11*
X76200Y25400D03*
X101600Y25400D03*
X127000Y25400D03*
X152400Y25400D03*
X177800Y25400D03*
D12*
X35560Y114300D03*
X220980Y72390D03*
X110490Y67310D03*
X81280Y97155D03*
X147320Y121920D03*
X35786Y84046D03*
D13*
X31976Y84046D01*
D12*
X218440Y92710D03*
D13*
X31976Y84046D02*
X26670Y78740D01*
X26670Y67310D01*
X29718Y64262D01*
X61819Y64262D01*
D12*
X173800Y92710D03*
D13*
X218440Y92710D01*
X173800Y92710D02*
X173800Y55690D01*
X166370Y48260D01*
X77821Y48260D01*
X61819Y64262D01*
X177800Y36830D02*
X177800Y25400D01*
X177800Y36830D02*
X166370Y48260D01*
D12*
X35560Y72390D03*
X152400Y58420D03*
D13*
X76200Y58420D01*
X64770Y69850D01*
X48492Y69850D01*
X45952Y72390D02*
X35560Y72390D01*
X45952Y72390D02*
X48492Y69850D01*
D12*
X196850Y114300D03*
D14*
X143510Y106680D03*
D13*
X189230Y106680D01*
X196850Y114300D01*
D15*
X35560Y99060D02*
X35560Y97790D01*
D12*
X35560Y97790D03*
D14*
X67310Y139954D03*
D15*
X67310Y121920D01*
X44450Y99060D02*
X35560Y99060D01*
X44450Y99060D02*
X67310Y121920D01*
M02*
