<?xml version="1.0" standalone="no"?>
 <!DOCTYPE svg PUBLIC "-//W3C//DTD SVG 1.1//EN" 
 "http://www.w3.org/Graphics/SVG/1.1/DTD/svg11.dtd"> 
<svg
  xmlns:svg="http://www.w3.org/2000/svg"
  xmlns="http://www.w3.org/2000/svg"
  xmlns:xlink="http://www.w3.org/1999/xlink"
  version="1.1"
  width="29.700220cm" height="21.000720cm" viewBox="0 0 297002200 210007200">
<title>SVG Picture created as boardKicad-F_Courtyard.svg date 2022/08/16 05:44:49 </title>
  <desc>Picture generated by PCBNEW </desc>
<g style="fill:#000000; fill-opacity:1.000000;stroke:#000000; stroke-opacity:1.000000;
stroke-linecap:round; stroke-linejoin:round;"
 transform="translate(0 0) scale(1 1)">
</g>
<g style="fill:#000000; fill-opacity:0.0; 
stroke:#000000; stroke-width:0.000000; stroke-opacity:1; 
stroke-linecap:round; stroke-linejoin:round;">
</g>
<g style="fill:#000000; fill-opacity:0.0; 
stroke:#000000; stroke-width:21200.000000; stroke-opacity:1; 
stroke-linecap:round; stroke-linejoin:round;">
</g>
<g style="fill:#000000; fill-opacity:0.0; 
stroke:#000000; stroke-width:150000.000000; stroke-opacity:1; 
stroke-linecap:round; stroke-linejoin:round;">
<rect x="177002200.000000" y="166007200.000000" width="108000000.000000" height="32000000.000000" rx="0.000000" />
</g>
<g style="fill:#000000; fill-opacity:0.0; 
stroke:#000000; stroke-width:21200.000000; stroke-opacity:1; 
stroke-linecap:round; stroke-linejoin:round;">
</g>
<g style="fill:#000000; fill-opacity:0.0; 
stroke:#000000; stroke-width:150000.000000; stroke-opacity:1; 
stroke-linecap:round; stroke-linejoin:round;">
<rect x="10000000.000000" y="10000000.000000" width="277002200.000000" height="190007200.000000" rx="0.000000" />
</g>
<g style="fill:#000000; fill-opacity:0.0; 
stroke:#000000; stroke-width:21200.000000; stroke-opacity:1; 
stroke-linecap:round; stroke-linejoin:round;">
</g>
<g style="fill:#000000; fill-opacity:0.0; 
stroke:#000000; stroke-width:150000.000000; stroke-opacity:1; 
stroke-linecap:round; stroke-linejoin:round;">
<rect x="12000000.000000" y="12000000.000000" width="273002200.000000" height="186007200.000000" rx="0.000000" />
</g>
<g style="fill:#000000; fill-opacity:0.0; 
stroke:#000000; stroke-width:21200.000000; stroke-opacity:1; 
stroke-linecap:round; stroke-linejoin:round;">
</g>
<g style="fill:#000000; fill-opacity:0.0; 
stroke:#000000; stroke-width:150000.000000; stroke-opacity:1; 
stroke-linecap:round; stroke-linejoin:round;">
<path d="M60000000 12000000
L60000000 10000000
" />
</g>
<g style="fill:#000000; fill-opacity:0.0; 
stroke:#000000; stroke-width:21200.000000; stroke-opacity:1; 
stroke-linecap:round; stroke-linejoin:round;">
</g>
<g style="fill:#000000; fill-opacity:0.0; 
stroke:#000000; stroke-width:150000.000000; stroke-opacity:1; 
stroke-linecap:round; stroke-linejoin:round;">
<path d="M110000000 12000000
L110000000 10000000
" />
</g>
<g style="fill:#000000; fill-opacity:0.0; 
stroke:#000000; stroke-width:21200.000000; stroke-opacity:1; 
stroke-linecap:round; stroke-linejoin:round;">
</g>
<g style="fill:#000000; fill-opacity:0.0; 
stroke:#000000; stroke-width:150000.000000; stroke-opacity:1; 
stroke-linecap:round; stroke-linejoin:round;">
<path d="M160000000 12000000
L160000000 10000000
" />
</g>
<g style="fill:#000000; fill-opacity:0.0; 
stroke:#000000; stroke-width:21200.000000; stroke-opacity:1; 
stroke-linecap:round; stroke-linejoin:round;">
</g>
<g style="fill:#000000; fill-opacity:0.0; 
stroke:#000000; stroke-width:150000.000000; stroke-opacity:1; 
stroke-linecap:round; stroke-linejoin:round;">
<path d="M210000000 12000000
L210000000 10000000
" />
</g>
<g style="fill:#000000; fill-opacity:0.0; 
stroke:#000000; stroke-width:21200.000000; stroke-opacity:1; 
stroke-linecap:round; stroke-linejoin:round;">
</g>
<g style="fill:#000000; fill-opacity:0.0; 
stroke:#000000; stroke-width:150000.000000; stroke-opacity:1; 
stroke-linecap:round; stroke-linejoin:round;">
<path d="M260000000 12000000
L260000000 10000000
" />
</g>
<g style="fill:#000000; fill-opacity:0.0; 
stroke:#000000; stroke-width:21200.000000; stroke-opacity:1; 
stroke-linecap:round; stroke-linejoin:round;">
</g>
<g style="fill:#000000; fill-opacity:0.0; 
stroke:#000000; stroke-width:150000.000000; stroke-opacity:1; 
stroke-linecap:round; stroke-linejoin:round;">
<text x="35000000.000000" y="11650000.000000"
textLength="1388095.000000" font-size="1733333.000000" lengthAdjust="spacingAndGlyphs"
text-anchor="start" opacity="0">1</text>
<g class="stroked-text"><desc>1</desc>
<path d="M36065476 11588095
L35322619 11588095
" />
<path d="M35694047 11588095
L35694047 10288095
L35570238 10473809
L35446428 10597619
L35322619 10659523
" />
</g></g>
<g style="fill:#000000; fill-opacity:0.0; 
stroke:#000000; stroke-width:21200.000000; stroke-opacity:1; 
stroke-linecap:round; stroke-linejoin:round;">
</g>
<g style="fill:#000000; fill-opacity:0.0; 
stroke:#000000; stroke-width:150000.000000; stroke-opacity:1; 
stroke-linecap:round; stroke-linejoin:round;">
<text x="85000000.000000" y="11650000.000000"
textLength="1388095.000000" font-size="1733333.000000" lengthAdjust="spacingAndGlyphs"
text-anchor="start" opacity="0">2</text>
<g class="stroked-text"><desc>2</desc>
<path d="M85322619 10411904
L85384523 10350000
L85508333 10288095
L85817857 10288095
L85941666 10350000
L86003571 10411904
L86065476 10535714
L86065476 10659523
L86003571 10845238
L85260714 11588095
L86065476 11588095
" />
</g></g>
<g style="fill:#000000; fill-opacity:0.0; 
stroke:#000000; stroke-width:21200.000000; stroke-opacity:1; 
stroke-linecap:round; stroke-linejoin:round;">
</g>
<g style="fill:#000000; fill-opacity:0.0; 
stroke:#000000; stroke-width:150000.000000; stroke-opacity:1; 
stroke-linecap:round; stroke-linejoin:round;">
<text x="135000000.000000" y="11650000.000000"
textLength="1388095.000000" font-size="1733333.000000" lengthAdjust="spacingAndGlyphs"
text-anchor="start" opacity="0">3</text>
<g class="stroked-text"><desc>3</desc>
<path d="M135260714 10288095
L136065476 10288095
L135632142 10783333
L135817857 10783333
L135941666 10845238
L136003571 10907142
L136065476 11030952
L136065476 11340476
L136003571 11464285
L135941666 11526190
L135817857 11588095
L135446428 11588095
L135322619 11526190
L135260714 11464285
" />
</g></g>
<g style="fill:#000000; fill-opacity:0.0; 
stroke:#000000; stroke-width:21200.000000; stroke-opacity:1; 
stroke-linecap:round; stroke-linejoin:round;">
</g>
<g style="fill:#000000; fill-opacity:0.0; 
stroke:#000000; stroke-width:150000.000000; stroke-opacity:1; 
stroke-linecap:round; stroke-linejoin:round;">
<text x="185000000.000000" y="11650000.000000"
textLength="1388095.000000" font-size="1733333.000000" lengthAdjust="spacingAndGlyphs"
text-anchor="start" opacity="0">4</text>
<g class="stroked-text"><desc>4</desc>
<path d="M185941666 10721428
L185941666 11588095
" />
<path d="M185632142 10226190
L185322619 11154761
L186127380 11154761
" />
</g></g>
<g style="fill:#000000; fill-opacity:0.0; 
stroke:#000000; stroke-width:21200.000000; stroke-opacity:1; 
stroke-linecap:round; stroke-linejoin:round;">
</g>
<g style="fill:#000000; fill-opacity:0.0; 
stroke:#000000; stroke-width:150000.000000; stroke-opacity:1; 
stroke-linecap:round; stroke-linejoin:round;">
<text x="235000000.000000" y="11650000.000000"
textLength="1388095.000000" font-size="1733333.000000" lengthAdjust="spacingAndGlyphs"
text-anchor="start" opacity="0">5</text>
<g class="stroked-text"><desc>5</desc>
<path d="M236003571 10288095
L235384523 10288095
L235322619 10907142
L235384523 10845238
L235508333 10783333
L235817857 10783333
L235941666 10845238
L236003571 10907142
L236065476 11030952
L236065476 11340476
L236003571 11464285
L235941666 11526190
L235817857 11588095
L235508333 11588095
L235384523 11526190
L235322619 11464285
" />
</g></g>
<g style="fill:#000000; fill-opacity:0.0; 
stroke:#000000; stroke-width:21200.000000; stroke-opacity:1; 
stroke-linecap:round; stroke-linejoin:round;">
</g>
<g style="fill:#000000; fill-opacity:0.0; 
stroke:#000000; stroke-width:150000.000000; stroke-opacity:1; 
stroke-linecap:round; stroke-linejoin:round;">
<text x="285000000.000000" y="11650000.000000"
textLength="1388095.000000" font-size="1733333.000000" lengthAdjust="spacingAndGlyphs"
text-anchor="start" opacity="0">6</text>
<g class="stroked-text"><desc>6</desc>
<path d="M285941666 10288095
L285694047 10288095
L285570238 10350000
L285508333 10411904
L285384523 10597619
L285322619 10845238
L285322619 11340476
L285384523 11464285
L285446428 11526190
L285570238 11588095
L285817857 11588095
L285941666 11526190
L286003571 11464285
L286065476 11340476
L286065476 11030952
L286003571 10907142
L285941666 10845238
L285817857 10783333
L285570238 10783333
L285446428 10845238
L285384523 10907142
L285322619 11030952
" />
</g></g>
<g style="fill:#000000; fill-opacity:0.0; 
stroke:#000000; stroke-width:21200.000000; stroke-opacity:1; 
stroke-linecap:round; stroke-linejoin:round;">
</g>
<g style="fill:#000000; fill-opacity:0.0; 
stroke:#000000; stroke-width:150000.000000; stroke-opacity:1; 
stroke-linecap:round; stroke-linejoin:round;">
<path d="M60000000 198007200
L60000000 200007200
" />
</g>
<g style="fill:#000000; fill-opacity:0.0; 
stroke:#000000; stroke-width:21200.000000; stroke-opacity:1; 
stroke-linecap:round; stroke-linejoin:round;">
</g>
<g style="fill:#000000; fill-opacity:0.0; 
stroke:#000000; stroke-width:150000.000000; stroke-opacity:1; 
stroke-linecap:round; stroke-linejoin:round;">
<path d="M110000000 198007200
L110000000 200007200
" />
</g>
<g style="fill:#000000; fill-opacity:0.0; 
stroke:#000000; stroke-width:21200.000000; stroke-opacity:1; 
stroke-linecap:round; stroke-linejoin:round;">
</g>
<g style="fill:#000000; fill-opacity:0.0; 
stroke:#000000; stroke-width:150000.000000; stroke-opacity:1; 
stroke-linecap:round; stroke-linejoin:round;">
<path d="M160000000 198007200
L160000000 200007200
" />
</g>
<g style="fill:#000000; fill-opacity:0.0; 
stroke:#000000; stroke-width:21200.000000; stroke-opacity:1; 
stroke-linecap:round; stroke-linejoin:round;">
</g>
<g style="fill:#000000; fill-opacity:0.0; 
stroke:#000000; stroke-width:150000.000000; stroke-opacity:1; 
stroke-linecap:round; stroke-linejoin:round;">
<path d="M210000000 198007200
L210000000 200007200
" />
</g>
<g style="fill:#000000; fill-opacity:0.0; 
stroke:#000000; stroke-width:21200.000000; stroke-opacity:1; 
stroke-linecap:round; stroke-linejoin:round;">
</g>
<g style="fill:#000000; fill-opacity:0.0; 
stroke:#000000; stroke-width:150000.000000; stroke-opacity:1; 
stroke-linecap:round; stroke-linejoin:round;">
<path d="M260000000 198007200
L260000000 200007200
" />
</g>
<g style="fill:#000000; fill-opacity:0.0; 
stroke:#000000; stroke-width:21200.000000; stroke-opacity:1; 
stroke-linecap:round; stroke-linejoin:round;">
</g>
<g style="fill:#000000; fill-opacity:0.0; 
stroke:#000000; stroke-width:150000.000000; stroke-opacity:1; 
stroke-linecap:round; stroke-linejoin:round;">
<text x="35000000.000000" y="199657200.000000"
textLength="1388095.000000" font-size="1733333.000000" lengthAdjust="spacingAndGlyphs"
text-anchor="start" opacity="0">1</text>
<g class="stroked-text"><desc>1</desc>
<path d="M36065476 199595295
L35322619 199595295
" />
<path d="M35694047 199595295
L35694047 198295295
L35570238 198481009
L35446428 198604819
L35322619 198666723
" />
</g></g>
<g style="fill:#000000; fill-opacity:0.0; 
stroke:#000000; stroke-width:21200.000000; stroke-opacity:1; 
stroke-linecap:round; stroke-linejoin:round;">
</g>
<g style="fill:#000000; fill-opacity:0.0; 
stroke:#000000; stroke-width:150000.000000; stroke-opacity:1; 
stroke-linecap:round; stroke-linejoin:round;">
<text x="85000000.000000" y="199657200.000000"
textLength="1388095.000000" font-size="1733333.000000" lengthAdjust="spacingAndGlyphs"
text-anchor="start" opacity="0">2</text>
<g class="stroked-text"><desc>2</desc>
<path d="M85322619 198419104
L85384523 198357200
L85508333 198295295
L85817857 198295295
L85941666 198357200
L86003571 198419104
L86065476 198542914
L86065476 198666723
L86003571 198852438
L85260714 199595295
L86065476 199595295
" />
</g></g>
<g style="fill:#000000; fill-opacity:0.0; 
stroke:#000000; stroke-width:21200.000000; stroke-opacity:1; 
stroke-linecap:round; stroke-linejoin:round;">
</g>
<g style="fill:#000000; fill-opacity:0.0; 
stroke:#000000; stroke-width:150000.000000; stroke-opacity:1; 
stroke-linecap:round; stroke-linejoin:round;">
<text x="135000000.000000" y="199657200.000000"
textLength="1388095.000000" font-size="1733333.000000" lengthAdjust="spacingAndGlyphs"
text-anchor="start" opacity="0">3</text>
<g class="stroked-text"><desc>3</desc>
<path d="M135260714 198295295
L136065476 198295295
L135632142 198790533
L135817857 198790533
L135941666 198852438
L136003571 198914342
L136065476 199038152
L136065476 199347676
L136003571 199471485
L135941666 199533390
L135817857 199595295
L135446428 199595295
L135322619 199533390
L135260714 199471485
" />
</g></g>
<g style="fill:#000000; fill-opacity:0.0; 
stroke:#000000; stroke-width:21200.000000; stroke-opacity:1; 
stroke-linecap:round; stroke-linejoin:round;">
</g>
<g style="fill:#000000; fill-opacity:0.0; 
stroke:#000000; stroke-width:150000.000000; stroke-opacity:1; 
stroke-linecap:round; stroke-linejoin:round;">
<text x="185000000.000000" y="199657200.000000"
textLength="1388095.000000" font-size="1733333.000000" lengthAdjust="spacingAndGlyphs"
text-anchor="start" opacity="0">4</text>
<g class="stroked-text"><desc>4</desc>
<path d="M185941666 198728628
L185941666 199595295
" />
<path d="M185632142 198233390
L185322619 199161961
L186127380 199161961
" />
</g></g>
<g style="fill:#000000; fill-opacity:0.0; 
stroke:#000000; stroke-width:21200.000000; stroke-opacity:1; 
stroke-linecap:round; stroke-linejoin:round;">
</g>
<g style="fill:#000000; fill-opacity:0.0; 
stroke:#000000; stroke-width:150000.000000; stroke-opacity:1; 
stroke-linecap:round; stroke-linejoin:round;">
<text x="235000000.000000" y="199657200.000000"
textLength="1388095.000000" font-size="1733333.000000" lengthAdjust="spacingAndGlyphs"
text-anchor="start" opacity="0">5</text>
<g class="stroked-text"><desc>5</desc>
<path d="M236003571 198295295
L235384523 198295295
L235322619 198914342
L235384523 198852438
L235508333 198790533
L235817857 198790533
L235941666 198852438
L236003571 198914342
L236065476 199038152
L236065476 199347676
L236003571 199471485
L235941666 199533390
L235817857 199595295
L235508333 199595295
L235384523 199533390
L235322619 199471485
" />
</g></g>
<g style="fill:#000000; fill-opacity:0.0; 
stroke:#000000; stroke-width:21200.000000; stroke-opacity:1; 
stroke-linecap:round; stroke-linejoin:round;">
</g>
<g style="fill:#000000; fill-opacity:0.0; 
stroke:#000000; stroke-width:150000.000000; stroke-opacity:1; 
stroke-linecap:round; stroke-linejoin:round;">
<text x="285000000.000000" y="199657200.000000"
textLength="1388095.000000" font-size="1733333.000000" lengthAdjust="spacingAndGlyphs"
text-anchor="start" opacity="0">6</text>
<g class="stroked-text"><desc>6</desc>
<path d="M285941666 198295295
L285694047 198295295
L285570238 198357200
L285508333 198419104
L285384523 198604819
L285322619 198852438
L285322619 199347676
L285384523 199471485
L285446428 199533390
L285570238 199595295
L285817857 199595295
L285941666 199533390
L286003571 199471485
L286065476 199347676
L286065476 199038152
L286003571 198914342
L285941666 198852438
L285817857 198790533
L285570238 198790533
L285446428 198852438
L285384523 198914342
L285322619 199038152
" />
</g></g>
<g style="fill:#000000; fill-opacity:0.0; 
stroke:#000000; stroke-width:21200.000000; stroke-opacity:1; 
stroke-linecap:round; stroke-linejoin:round;">
</g>
<g style="fill:#000000; fill-opacity:0.0; 
stroke:#000000; stroke-width:150000.000000; stroke-opacity:1; 
stroke-linecap:round; stroke-linejoin:round;">
<path d="M10000000 60000000
L12000000 60000000
" />
</g>
<g style="fill:#000000; fill-opacity:0.0; 
stroke:#000000; stroke-width:21200.000000; stroke-opacity:1; 
stroke-linecap:round; stroke-linejoin:round;">
</g>
<g style="fill:#000000; fill-opacity:0.0; 
stroke:#000000; stroke-width:150000.000000; stroke-opacity:1; 
stroke-linecap:round; stroke-linejoin:round;">
<path d="M10000000 110000000
L12000000 110000000
" />
</g>
<g style="fill:#000000; fill-opacity:0.0; 
stroke:#000000; stroke-width:21200.000000; stroke-opacity:1; 
stroke-linecap:round; stroke-linejoin:round;">
</g>
<g style="fill:#000000; fill-opacity:0.0; 
stroke:#000000; stroke-width:150000.000000; stroke-opacity:1; 
stroke-linecap:round; stroke-linejoin:round;">
<path d="M10000000 160000000
L12000000 160000000
" />
</g>
<g style="fill:#000000; fill-opacity:0.0; 
stroke:#000000; stroke-width:21200.000000; stroke-opacity:1; 
stroke-linecap:round; stroke-linejoin:round;">
</g>
<g style="fill:#000000; fill-opacity:0.0; 
stroke:#000000; stroke-width:150000.000000; stroke-opacity:1; 
stroke-linecap:round; stroke-linejoin:round;">
<text x="11000000.000000" y="35650000.000000"
textLength="1264286.000000" font-size="1733333.000000" lengthAdjust="spacingAndGlyphs"
text-anchor="middle" opacity="0">A</text>
<g class="stroked-text"><desc>A</desc>
<path d="M10690476 35216666
L11309523 35216666
" />
<path d="M10566666 35588095
L11000000 34288095
L11433333 35588095
" />
</g></g>
<g style="fill:#000000; fill-opacity:0.0; 
stroke:#000000; stroke-width:21200.000000; stroke-opacity:1; 
stroke-linecap:round; stroke-linejoin:round;">
</g>
<g style="fill:#000000; fill-opacity:0.0; 
stroke:#000000; stroke-width:150000.000000; stroke-opacity:1; 
stroke-linecap:round; stroke-linejoin:round;">
<text x="11000000.000000" y="85650000.000000"
textLength="1450000.000000" font-size="1733333.000000" lengthAdjust="spacingAndGlyphs"
text-anchor="middle" opacity="0">B</text>
<g class="stroked-text"><desc>B</desc>
<path d="M11092857 84907142
L11278571 84969047
L11340476 85030952
L11402380 85154761
L11402380 85340476
L11340476 85464285
L11278571 85526190
L11154761 85588095
L10659523 85588095
L10659523 84288095
L11092857 84288095
L11216666 84350000
L11278571 84411904
L11340476 84535714
L11340476 84659523
L11278571 84783333
L11216666 84845238
L11092857 84907142
L10659523 84907142
" />
</g></g>
<g style="fill:#000000; fill-opacity:0.0; 
stroke:#000000; stroke-width:21200.000000; stroke-opacity:1; 
stroke-linecap:round; stroke-linejoin:round;">
</g>
<g style="fill:#000000; fill-opacity:0.0; 
stroke:#000000; stroke-width:150000.000000; stroke-opacity:1; 
stroke-linecap:round; stroke-linejoin:round;">
<text x="11000000.000000" y="135650000.000000"
textLength="1450000.000000" font-size="1733333.000000" lengthAdjust="spacingAndGlyphs"
text-anchor="middle" opacity="0">C</text>
<g class="stroked-text"><desc>C</desc>
<path d="M11402380 135464285
L11340476 135526190
L11154761 135588095
L11030952 135588095
L10845238 135526190
L10721428 135402380
L10659523 135278571
L10597619 135030952
L10597619 134845238
L10659523 134597619
L10721428 134473809
L10845238 134350000
L11030952 134288095
L11154761 134288095
L11340476 134350000
L11402380 134411904
" />
</g></g>
<g style="fill:#000000; fill-opacity:0.0; 
stroke:#000000; stroke-width:21200.000000; stroke-opacity:1; 
stroke-linecap:round; stroke-linejoin:round;">
</g>
<g style="fill:#000000; fill-opacity:0.0; 
stroke:#000000; stroke-width:150000.000000; stroke-opacity:1; 
stroke-linecap:round; stroke-linejoin:round;">
<text x="11000000.000000" y="185650000.000000"
textLength="1450000.000000" font-size="1733333.000000" lengthAdjust="spacingAndGlyphs"
text-anchor="middle" opacity="0">D</text>
<g class="stroked-text"><desc>D</desc>
<path d="M10659523 185588095
L10659523 184288095
L10969047 184288095
L11154761 184350000
L11278571 184473809
L11340476 184597619
L11402380 184845238
L11402380 185030952
L11340476 185278571
L11278571 185402380
L11154761 185526190
L10969047 185588095
L10659523 185588095
" />
</g></g>
<g style="fill:#000000; fill-opacity:0.0; 
stroke:#000000; stroke-width:21200.000000; stroke-opacity:1; 
stroke-linecap:round; stroke-linejoin:round;">
</g>
<g style="fill:#000000; fill-opacity:0.0; 
stroke:#000000; stroke-width:150000.000000; stroke-opacity:1; 
stroke-linecap:round; stroke-linejoin:round;">
<path d="M287002200 60000000
L285002200 60000000
" />
</g>
<g style="fill:#000000; fill-opacity:0.0; 
stroke:#000000; stroke-width:21200.000000; stroke-opacity:1; 
stroke-linecap:round; stroke-linejoin:round;">
</g>
<g style="fill:#000000; fill-opacity:0.0; 
stroke:#000000; stroke-width:150000.000000; stroke-opacity:1; 
stroke-linecap:round; stroke-linejoin:round;">
<path d="M287002200 110000000
L285002200 110000000
" />
</g>
<g style="fill:#000000; fill-opacity:0.0; 
stroke:#000000; stroke-width:21200.000000; stroke-opacity:1; 
stroke-linecap:round; stroke-linejoin:round;">
</g>
<g style="fill:#000000; fill-opacity:0.0; 
stroke:#000000; stroke-width:150000.000000; stroke-opacity:1; 
stroke-linecap:round; stroke-linejoin:round;">
<path d="M287002200 160000000
L285002200 160000000
" />
</g>
<g style="fill:#000000; fill-opacity:0.0; 
stroke:#000000; stroke-width:21200.000000; stroke-opacity:1; 
stroke-linecap:round; stroke-linejoin:round;">
</g>
<g style="fill:#000000; fill-opacity:0.0; 
stroke:#000000; stroke-width:150000.000000; stroke-opacity:1; 
stroke-linecap:round; stroke-linejoin:round;">
<text x="286002200.000000" y="35650000.000000"
textLength="1264286.000000" font-size="1733333.000000" lengthAdjust="spacingAndGlyphs"
text-anchor="middle" opacity="0">A</text>
<g class="stroked-text"><desc>A</desc>
<path d="M285692676 35216666
L286311723 35216666
" />
<path d="M285568866 35588095
L286002200 34288095
L286435533 35588095
" />
</g></g>
<g style="fill:#000000; fill-opacity:0.0; 
stroke:#000000; stroke-width:21200.000000; stroke-opacity:1; 
stroke-linecap:round; stroke-linejoin:round;">
</g>
<g style="fill:#000000; fill-opacity:0.0; 
stroke:#000000; stroke-width:150000.000000; stroke-opacity:1; 
stroke-linecap:round; stroke-linejoin:round;">
<text x="286002200.000000" y="85650000.000000"
textLength="1450000.000000" font-size="1733333.000000" lengthAdjust="spacingAndGlyphs"
text-anchor="middle" opacity="0">B</text>
<g class="stroked-text"><desc>B</desc>
<path d="M286095057 84907142
L286280771 84969047
L286342676 85030952
L286404580 85154761
L286404580 85340476
L286342676 85464285
L286280771 85526190
L286156961 85588095
L285661723 85588095
L285661723 84288095
L286095057 84288095
L286218866 84350000
L286280771 84411904
L286342676 84535714
L286342676 84659523
L286280771 84783333
L286218866 84845238
L286095057 84907142
L285661723 84907142
" />
</g></g>
<g style="fill:#000000; fill-opacity:0.0; 
stroke:#000000; stroke-width:21200.000000; stroke-opacity:1; 
stroke-linecap:round; stroke-linejoin:round;">
</g>
<g style="fill:#000000; fill-opacity:0.0; 
stroke:#000000; stroke-width:150000.000000; stroke-opacity:1; 
stroke-linecap:round; stroke-linejoin:round;">
<text x="286002200.000000" y="135650000.000000"
textLength="1450000.000000" font-size="1733333.000000" lengthAdjust="spacingAndGlyphs"
text-anchor="middle" opacity="0">C</text>
<g class="stroked-text"><desc>C</desc>
<path d="M286404580 135464285
L286342676 135526190
L286156961 135588095
L286033152 135588095
L285847438 135526190
L285723628 135402380
L285661723 135278571
L285599819 135030952
L285599819 134845238
L285661723 134597619
L285723628 134473809
L285847438 134350000
L286033152 134288095
L286156961 134288095
L286342676 134350000
L286404580 134411904
" />
</g></g>
<g style="fill:#000000; fill-opacity:0.0; 
stroke:#000000; stroke-width:21200.000000; stroke-opacity:1; 
stroke-linecap:round; stroke-linejoin:round;">
</g>
<g style="fill:#000000; fill-opacity:0.0; 
stroke:#000000; stroke-width:150000.000000; stroke-opacity:1; 
stroke-linecap:round; stroke-linejoin:round;">
<text x="286002200.000000" y="185650000.000000"
textLength="1450000.000000" font-size="1733333.000000" lengthAdjust="spacingAndGlyphs"
text-anchor="middle" opacity="0">D</text>
<g class="stroked-text"><desc>D</desc>
<path d="M285661723 185588095
L285661723 184288095
L285971247 184288095
L286156961 184350000
L286280771 184473809
L286342676 184597619
L286404580 184845238
L286404580 185030952
L286342676 185278571
L286280771 185402380
L286156961 185526190
L285971247 185588095
L285661723 185588095
" />
</g></g>
<g style="fill:#000000; fill-opacity:0.0; 
stroke:#000000; stroke-width:21200.000000; stroke-opacity:1; 
stroke-linecap:round; stroke-linejoin:round;">
</g>
<g style="fill:#000000; fill-opacity:0.0; 
stroke:#000000; stroke-width:150000.000000; stroke-opacity:1; 
stroke-linecap:round; stroke-linejoin:round;">
<text x="200002200.000000" y="193857200.000000"
textLength="7007143.000000" font-size="2000000.000000" lengthAdjust="spacingAndGlyphs"
text-anchor="start" opacity="0">Date: </text>
<g class="stroked-text"><desc>Date: </desc>
<path d="M200434342 193785771
L200434342 192285771
L200791485 192285771
L201005771 192357200
L201148628 192500057
L201220057 192642914
L201291485 192928628
L201291485 193142914
L201220057 193428628
L201148628 193571485
L201005771 193714342
L200791485 193785771
L200434342 193785771
" />
<path d="M202577200 193785771
L202577200 193000057
L202505771 192857200
L202362914 192785771
L202077200 192785771
L201934342 192857200
" />
<path d="M202577200 193714342
L202434342 193785771
L202077200 193785771
L201934342 193714342
L201862914 193571485
L201862914 193428628
L201934342 193285771
L202077200 193214342
L202434342 193214342
L202577200 193142914
" />
<path d="M203077200 192785771
L203648628 192785771
" />
<path d="M203291485 192285771
L203291485 193571485
L203362914 193714342
L203505771 193785771
L203648628 193785771
" />
<path d="M204720057 193714342
L204577200 193785771
L204291485 193785771
L204148628 193714342
L204077200 193571485
L204077200 193000057
L204148628 192857200
L204291485 192785771
L204577200 192785771
L204720057 192857200
L204791485 193000057
L204791485 193142914
L204077200 193285771
" />
<path d="M205434342 193642914
L205505771 193714342
L205434342 193785771
L205362914 193714342
L205434342 193642914
L205434342 193785771
" />
<path d="M205434342 192857200
L205505771 192928628
L205434342 193000057
L205362914 192928628
L205434342 192857200
L205434342 193000057
" />
</g></g>
<g style="fill:#000000; fill-opacity:0.0; 
stroke:#000000; stroke-width:21200.000000; stroke-opacity:1; 
stroke-linecap:round; stroke-linejoin:round;">
</g>
<g style="fill:#000000; fill-opacity:0.0; 
stroke:#000000; stroke-width:150000.000000; stroke-opacity:1; 
stroke-linecap:round; stroke-linejoin:round;">
<path d="M177002200 194507200
L285002200 194507200
" />
</g>
<g style="fill:#000000; fill-opacity:0.0; 
stroke:#000000; stroke-width:21200.000000; stroke-opacity:1; 
stroke-linecap:round; stroke-linejoin:round;">
</g>
<g style="fill:#000000; fill-opacity:0.0; 
stroke:#000000; stroke-width:150000.000000; stroke-opacity:1; 
stroke-linecap:round; stroke-linejoin:round;">
<text x="178002200.000000" y="196657200.000000"
textLength="33364286.000000" font-size="2000000.000000" lengthAdjust="spacingAndGlyphs"
text-anchor="start" opacity="0">KiCad E.D.A.  pcbnew (6.0.6)</text>
<g class="stroked-text"><desc>KiCad E.D.A.  pcbnew (6.0.6)</desc>
<path d="M178434342 196585771
L178434342 195085771
" />
<path d="M179291485 196585771
L178648628 195728628
" />
<path d="M179291485 195085771
L178434342 195942914
" />
<path d="M179934342 196585771
L179934342 195585771
" />
<path d="M179934342 195085771
L179862914 195157200
L179934342 195228628
L180005771 195157200
L179934342 195085771
L179934342 195228628
" />
<path d="M181505771 196442914
L181434342 196514342
L181220057 196585771
L181077200 196585771
L180862914 196514342
L180720057 196371485
L180648628 196228628
L180577200 195942914
L180577200 195728628
L180648628 195442914
L180720057 195300057
L180862914 195157200
L181077200 195085771
L181220057 195085771
L181434342 195157200
L181505771 195228628
" />
<path d="M182791485 196585771
L182791485 195800057
L182720057 195657200
L182577200 195585771
L182291485 195585771
L182148628 195657200
" />
<path d="M182791485 196514342
L182648628 196585771
L182291485 196585771
L182148628 196514342
L182077200 196371485
L182077200 196228628
L182148628 196085771
L182291485 196014342
L182648628 196014342
L182791485 195942914
" />
<path d="M184148628 196585771
L184148628 195085771
" />
<path d="M184148628 196514342
L184005771 196585771
L183720057 196585771
L183577200 196514342
L183505771 196442914
L183434342 196300057
L183434342 195871485
L183505771 195728628
L183577200 195657200
L183720057 195585771
L184005771 195585771
L184148628 195657200
" />
<path d="M186005771 195800057
L186505771 195800057
" />
<path d="M186720057 196585771
L186005771 196585771
L186005771 195085771
L186720057 195085771
" />
<path d="M187362914 196442914
L187434342 196514342
L187362914 196585771
L187291485 196514342
L187362914 196442914
L187362914 196585771
" />
<path d="M188077200 196585771
L188077200 195085771
L188434342 195085771
L188648628 195157200
L188791485 195300057
L188862914 195442914
L188934342 195728628
L188934342 195942914
L188862914 196228628
L188791485 196371485
L188648628 196514342
L188434342 196585771
L188077200 196585771
" />
<path d="M189577200 196442914
L189648628 196514342
L189577200 196585771
L189505771 196514342
L189577200 196442914
L189577200 196585771
" />
<path d="M190220057 196157200
L190934342 196157200
" />
<path d="M190077200 196585771
L190577200 195085771
L191077200 196585771
" />
<path d="M191577200 196442914
L191648628 196514342
L191577200 196585771
L191505771 196514342
L191577200 196442914
L191577200 196585771
" />
<path d="M194577200 195585771
L194577200 197085771
" />
<path d="M194577200 195657200
L194720057 195585771
L195005771 195585771
L195148628 195657200
L195220057 195728628
L195291485 195871485
L195291485 196300057
L195220057 196442914
L195148628 196514342
L195005771 196585771
L194720057 196585771
L194577200 196514342
" />
<path d="M196577200 196514342
L196434342 196585771
L196148628 196585771
L196005771 196514342
L195934342 196442914
L195862914 196300057
L195862914 195871485
L195934342 195728628
L196005771 195657200
L196148628 195585771
L196434342 195585771
L196577200 195657200
" />
<path d="M197220057 196585771
L197220057 195085771
" />
<path d="M197220057 195657200
L197362914 195585771
L197648628 195585771
L197791485 195657200
L197862914 195728628
L197934342 195871485
L197934342 196300057
L197862914 196442914
L197791485 196514342
L197648628 196585771
L197362914 196585771
L197220057 196514342
" />
<path d="M198577200 195585771
L198577200 196585771
" />
<path d="M198577200 195728628
L198648628 195657200
L198791485 195585771
L199005771 195585771
L199148628 195657200
L199220057 195800057
L199220057 196585771
" />
<path d="M200505771 196514342
L200362914 196585771
L200077200 196585771
L199934342 196514342
L199862914 196371485
L199862914 195800057
L199934342 195657200
L200077200 195585771
L200362914 195585771
L200505771 195657200
L200577200 195800057
L200577200 195942914
L199862914 196085771
" />
<path d="M201077200 195585771
L201362914 196585771
L201648628 195871485
L201934342 196585771
L202220057 195585771
" />
<path d="M204362914 197157200
L204291485 197085771
L204148628 196871485
L204077200 196728628
L204005771 196514342
L203934342 196157200
L203934342 195871485
L204005771 195514342
L204077200 195300057
L204148628 195157200
L204291485 194942914
L204362914 194871485
" />
<path d="M205577200 195085771
L205291485 195085771
L205148628 195157200
L205077200 195228628
L204934342 195442914
L204862914 195728628
L204862914 196300057
L204934342 196442914
L205005771 196514342
L205148628 196585771
L205434342 196585771
L205577200 196514342
L205648628 196442914
L205720057 196300057
L205720057 195942914
L205648628 195800057
L205577200 195728628
L205434342 195657200
L205148628 195657200
L205005771 195728628
L204934342 195800057
L204862914 195942914
" />
<path d="M206362914 196442914
L206434342 196514342
L206362914 196585771
L206291485 196514342
L206362914 196442914
L206362914 196585771
" />
<path d="M207362914 195085771
L207505771 195085771
L207648628 195157200
L207720057 195228628
L207791485 195371485
L207862914 195657200
L207862914 196014342
L207791485 196300057
L207720057 196442914
L207648628 196514342
L207505771 196585771
L207362914 196585771
L207220057 196514342
L207148628 196442914
L207077200 196300057
L207005771 196014342
L207005771 195657200
L207077200 195371485
L207148628 195228628
L207220057 195157200
L207362914 195085771
" />
<path d="M208505771 196442914
L208577200 196514342
L208505771 196585771
L208434342 196514342
L208505771 196442914
L208505771 196585771
" />
<path d="M209862914 195085771
L209577200 195085771
L209434342 195157200
L209362914 195228628
L209220057 195442914
L209148628 195728628
L209148628 196300057
L209220057 196442914
L209291485 196514342
L209434342 196585771
L209720057 196585771
L209862914 196514342
L209934342 196442914
L210005771 196300057
L210005771 195942914
L209934342 195800057
L209862914 195728628
L209720057 195657200
L209434342 195657200
L209291485 195728628
L209220057 195800057
L209148628 195942914
" />
<path d="M210505771 197157200
L210577200 197085771
L210720057 196871485
L210791485 196728628
L210862914 196514342
L210934342 196157200
L210934342 195871485
L210862914 195514342
L210791485 195300057
L210720057 195157200
L210577200 194942914
L210505771 194871485
" />
</g></g>
<g style="fill:#000000; fill-opacity:0.0; 
stroke:#000000; stroke-width:21200.000000; stroke-opacity:1; 
stroke-linecap:round; stroke-linejoin:round;">
</g>
<g style="fill:#000000; fill-opacity:0.0; 
stroke:#000000; stroke-width:150000.000000; stroke-opacity:1; 
stroke-linecap:round; stroke-linejoin:round;">
<path d="M177002200 191507200
L285002200 191507200
" />
</g>
<g style="fill:#000000; fill-opacity:0.0; 
stroke:#000000; stroke-width:21200.000000; stroke-opacity:1; 
stroke-linecap:round; stroke-linejoin:round;">
</g>
<g style="fill:#000000; fill-opacity:0.0; 
stroke:#000000; stroke-width:300000.000000; stroke-opacity:1; 
stroke-linecap:round; stroke-linejoin:round;">
<text x="263002200.000000" y="193857200.000000"
textLength="5935714.000000" font-size="2000000.000000" lengthAdjust="spacingAndGlyphs"
text-anchor="start" opacity="0">Rev: </text>
<g class="stroked-text"><desc>Rev: </desc>
<path d="M264411485 193785771
L263911485 193071485
" />
<path d="M263554342 193785771
L263554342 192285771
L264125771 192285771
L264268628 192357200
L264340057 192428628
L264411485 192571485
L264411485 192785771
L264340057 192928628
L264268628 193000057
L264125771 193071485
L263554342 193071485
" />
<path d="M265625771 193714342
L265482914 193785771
L265197200 193785771
L265054342 193714342
L264982914 193571485
L264982914 193000057
L265054342 192857200
L265197200 192785771
L265482914 192785771
L265625771 192857200
L265697200 193000057
L265697200 193142914
L264982914 193285771
" />
<path d="M266197200 192785771
L266554342 193785771
L266911485 192785771
" />
<path d="M267482914 193642914
L267554342 193714342
L267482914 193785771
L267411485 193714342
L267482914 193642914
L267482914 193785771
" />
<path d="M267482914 192857200
L267554342 192928628
L267482914 193000057
L267411485 192928628
L267482914 192857200
L267482914 193000057
" />
</g></g>
<g style="fill:#000000; fill-opacity:0.0; 
stroke:#000000; stroke-width:21200.000000; stroke-opacity:1; 
stroke-linecap:round; stroke-linejoin:round;">
</g>
<g style="fill:#000000; fill-opacity:0.0; 
stroke:#000000; stroke-width:150000.000000; stroke-opacity:1; 
stroke-linecap:round; stroke-linejoin:round;">
<text x="178002200.000000" y="193857200.000000"
textLength="9604286.000000" font-size="2000000.000000" lengthAdjust="spacingAndGlyphs"
text-anchor="start" opacity="0">Size: A4</text>
<g class="stroked-text"><desc>Size: A4</desc>
<path d="M178362914 193714342
L178577200 193785771
L178934342 193785771
L179077200 193714342
L179148628 193642914
L179220057 193500057
L179220057 193357200
L179148628 193214342
L179077200 193142914
L178934342 193071485
L178648628 193000057
L178505771 192928628
L178434342 192857200
L178362914 192714342
L178362914 192571485
L178434342 192428628
L178505771 192357200
L178648628 192285771
L179005771 192285771
L179220057 192357200
" />
<path d="M179862914 193785771
L179862914 192785771
" />
<path d="M179862914 192285771
L179791485 192357200
L179862914 192428628
L179934342 192357200
L179862914 192285771
L179862914 192428628
" />
<path d="M180434342 192785771
L181220057 192785771
L180434342 193785771
L181220057 193785771
" />
<path d="M182362914 193714342
L182220057 193785771
L181934342 193785771
L181791485 193714342
L181720057 193571485
L181720057 193000057
L181791485 192857200
L181934342 192785771
L182220057 192785771
L182362914 192857200
L182434342 193000057
L182434342 193142914
L181720057 193285771
" />
<path d="M183077200 193642914
L183148628 193714342
L183077200 193785771
L183005771 193714342
L183077200 193642914
L183077200 193785771
" />
<path d="M183077200 192857200
L183148628 192928628
L183077200 193000057
L183005771 192928628
L183077200 192857200
L183077200 193000057
" />
<path d="M184862914 193357200
L185577200 193357200
" />
<path d="M184720057 193785771
L185220057 192285771
L185720057 193785771
" />
<path d="M186862914 192785771
L186862914 193785771
" />
<path d="M186505771 192214342
L186148628 193285771
L187077200 193285771
" />
</g></g>
<g style="fill:#000000; fill-opacity:0.0; 
stroke:#000000; stroke-width:21200.000000; stroke-opacity:1; 
stroke-linecap:round; stroke-linejoin:round;">
</g>
<g style="fill:#000000; fill-opacity:0.0; 
stroke:#000000; stroke-width:150000.000000; stroke-opacity:1; 
stroke-linecap:round; stroke-linejoin:round;">
<text x="263002200.000000" y="196657200.000000"
textLength="8507143.000000" font-size="2000000.000000" lengthAdjust="spacingAndGlyphs"
text-anchor="start" opacity="0">Id: 1/1</text>
<g class="stroked-text"><desc>Id: 1/1</desc>
<path d="M263434342 196585771
L263434342 195085771
" />
<path d="M264791485 196585771
L264791485 195085771
" />
<path d="M264791485 196514342
L264648628 196585771
L264362914 196585771
L264220057 196514342
L264148628 196442914
L264077200 196300057
L264077200 195871485
L264148628 195728628
L264220057 195657200
L264362914 195585771
L264648628 195585771
L264791485 195657200
" />
<path d="M265505771 196442914
L265577200 196514342
L265505771 196585771
L265434342 196514342
L265505771 196442914
L265505771 196585771
" />
<path d="M265505771 195657200
L265577200 195728628
L265505771 195800057
L265434342 195728628
L265505771 195657200
L265505771 195800057
" />
<path d="M268148628 196585771
L267291485 196585771
" />
<path d="M267720057 196585771
L267720057 195085771
L267577200 195300057
L267434342 195442914
L267291485 195514342
" />
<path d="M269862914 195014342
L268577200 196942914
" />
<path d="M271148628 196585771
L270291485 196585771
" />
<path d="M270720057 196585771
L270720057 195085771
L270577200 195300057
L270434342 195442914
L270291485 195514342
" />
</g></g>
<g style="fill:#000000; fill-opacity:0.0; 
stroke:#000000; stroke-width:21200.000000; stroke-opacity:1; 
stroke-linecap:round; stroke-linejoin:round;">
</g>
<g style="fill:#000000; fill-opacity:0.0; 
stroke:#000000; stroke-width:150000.000000; stroke-opacity:1; 
stroke-linecap:round; stroke-linejoin:round;">
<path d="M177002200 187507200
L285002200 187507200
" />
</g>
<g style="fill:#000000; fill-opacity:0.0; 
stroke:#000000; stroke-width:21200.000000; stroke-opacity:1; 
stroke-linecap:round; stroke-linejoin:round;">
</g>
<g style="fill:#000000; fill-opacity:0.0; 
stroke:#000000; stroke-width:400000.000000; stroke-opacity:1; 
stroke-linecap:round; stroke-linejoin:round;">
<text x="178002200.000000" y="190307200.000000"
textLength="9409643.000000" font-size="2666666.000000" lengthAdjust="spacingAndGlyphs"
text-anchor="start" opacity="0">Title: </text>
<g class="stroked-text"><desc>Title: </desc>
<path d="M178714580 188211961
L179857438 188211961
" />
<path d="M179036009 190211961
L179286009 188211961
" />
<path d="M180274104 190211961
L180440771 188878628
" />
<path d="M180524104 188211961
L180416961 188307200
L180500295 188402438
L180607438 188307200
L180524104 188211961
L180500295 188402438
" />
<path d="M181107438 188878628
L181869342 188878628
" />
<path d="M181476485 188211961
L181262200 189926247
L181333628 190116723
L181512200 190211961
L181702676 190211961
" />
<path d="M182655057 190211961
L182476485 190116723
L182405057 189926247
L182619342 188211961
" />
<path d="M184190771 190116723
L183988390 190211961
L183607438 190211961
L183428866 190116723
L183357438 189926247
L183452676 189164342
L183571723 188973866
L183774104 188878628
L184155057 188878628
L184333628 188973866
L184405057 189164342
L184381247 189354819
L183405057 189545295
" />
<path d="M185155057 190021485
L185238390 190116723
L185131247 190211961
L185047914 190116723
L185155057 190021485
L185131247 190211961
" />
<path d="M185286009 188973866
L185369342 189069104
L185262200 189164342
L185178866 189069104
L185286009 188973866
L185262200 189164342
" />
</g></g>
<g style="fill:#000000; fill-opacity:0.0; 
stroke:#000000; stroke-width:21200.000000; stroke-opacity:1; 
stroke-linecap:round; stroke-linejoin:round;">
</g>
<g style="fill:#000000; fill-opacity:0.0; 
stroke:#000000; stroke-width:150000.000000; stroke-opacity:1; 
stroke-linecap:round; stroke-linejoin:round;">
<text x="178002200.000000" y="186457200.000000"
textLength="30805714.000000" font-size="2000000.000000" lengthAdjust="spacingAndGlyphs"
text-anchor="start" opacity="0">File: boardKicad.kicad_pcb</text>
<g class="stroked-text"><desc>File: boardKicad.kicad_pcb</desc>
<path d="M178934342 185600057
L178434342 185600057
" />
<path d="M178434342 186385771
L178434342 184885771
L179148628 184885771
" />
<path d="M179720057 186385771
L179720057 185385771
" />
<path d="M179720057 184885771
L179648628 184957200
L179720057 185028628
L179791485 184957200
L179720057 184885771
L179720057 185028628
" />
<path d="M180648628 186385771
L180505771 186314342
L180434342 186171485
L180434342 184885771
" />
<path d="M181791485 186314342
L181648628 186385771
L181362914 186385771
L181220057 186314342
L181148628 186171485
L181148628 185600057
L181220057 185457200
L181362914 185385771
L181648628 185385771
L181791485 185457200
L181862914 185600057
L181862914 185742914
L181148628 185885771
" />
<path d="M182505771 186242914
L182577200 186314342
L182505771 186385771
L182434342 186314342
L182505771 186242914
L182505771 186385771
" />
<path d="M182505771 185457200
L182577200 185528628
L182505771 185600057
L182434342 185528628
L182505771 185457200
L182505771 185600057
" />
<path d="M184362914 186385771
L184362914 184885771
" />
<path d="M184362914 185457200
L184505771 185385771
L184791485 185385771
L184934342 185457200
L185005771 185528628
L185077200 185671485
L185077200 186100057
L185005771 186242914
L184934342 186314342
L184791485 186385771
L184505771 186385771
L184362914 186314342
" />
<path d="M185934342 186385771
L185791485 186314342
L185720057 186242914
L185648628 186100057
L185648628 185671485
L185720057 185528628
L185791485 185457200
L185934342 185385771
L186148628 185385771
L186291485 185457200
L186362914 185528628
L186434342 185671485
L186434342 186100057
L186362914 186242914
L186291485 186314342
L186148628 186385771
L185934342 186385771
" />
<path d="M187720057 186385771
L187720057 185600057
L187648628 185457200
L187505771 185385771
L187220057 185385771
L187077200 185457200
" />
<path d="M187720057 186314342
L187577200 186385771
L187220057 186385771
L187077200 186314342
L187005771 186171485
L187005771 186028628
L187077200 185885771
L187220057 185814342
L187577200 185814342
L187720057 185742914
" />
<path d="M188434342 186385771
L188434342 185385771
" />
<path d="M188434342 185671485
L188505771 185528628
L188577200 185457200
L188720057 185385771
L188862914 185385771
" />
<path d="M190005771 186385771
L190005771 184885771
" />
<path d="M190005771 186314342
L189862914 186385771
L189577200 186385771
L189434342 186314342
L189362914 186242914
L189291485 186100057
L189291485 185671485
L189362914 185528628
L189434342 185457200
L189577200 185385771
L189862914 185385771
L190005771 185457200
" />
<path d="M190720057 186385771
L190720057 184885771
" />
<path d="M191577200 186385771
L190934342 185528628
" />
<path d="M191577200 184885771
L190720057 185742914
" />
<path d="M192220057 186385771
L192220057 185385771
" />
<path d="M192220057 184885771
L192148628 184957200
L192220057 185028628
L192291485 184957200
L192220057 184885771
L192220057 185028628
" />
<path d="M193577200 186314342
L193434342 186385771
L193148628 186385771
L193005771 186314342
L192934342 186242914
L192862914 186100057
L192862914 185671485
L192934342 185528628
L193005771 185457200
L193148628 185385771
L193434342 185385771
L193577200 185457200
" />
<path d="M194862914 186385771
L194862914 185600057
L194791485 185457200
L194648628 185385771
L194362914 185385771
L194220057 185457200
" />
<path d="M194862914 186314342
L194720057 186385771
L194362914 186385771
L194220057 186314342
L194148628 186171485
L194148628 186028628
L194220057 185885771
L194362914 185814342
L194720057 185814342
L194862914 185742914
" />
<path d="M196220057 186385771
L196220057 184885771
" />
<path d="M196220057 186314342
L196077200 186385771
L195791485 186385771
L195648628 186314342
L195577200 186242914
L195505771 186100057
L195505771 185671485
L195577200 185528628
L195648628 185457200
L195791485 185385771
L196077200 185385771
L196220057 185457200
" />
<path d="M196934342 186242914
L197005771 186314342
L196934342 186385771
L196862914 186314342
L196934342 186242914
L196934342 186385771
" />
<path d="M197648628 186385771
L197648628 184885771
" />
<path d="M197791485 185814342
L198220057 186385771
" />
<path d="M198220057 185385771
L197648628 185957200
" />
<path d="M198862914 186385771
L198862914 185385771
" />
<path d="M198862914 184885771
L198791485 184957200
L198862914 185028628
L198934342 184957200
L198862914 184885771
L198862914 185028628
" />
<path d="M200220057 186314342
L200077200 186385771
L199791485 186385771
L199648628 186314342
L199577200 186242914
L199505771 186100057
L199505771 185671485
L199577200 185528628
L199648628 185457200
L199791485 185385771
L200077200 185385771
L200220057 185457200
" />
<path d="M201505771 186385771
L201505771 185600057
L201434342 185457200
L201291485 185385771
L201005771 185385771
L200862914 185457200
" />
<path d="M201505771 186314342
L201362914 186385771
L201005771 186385771
L200862914 186314342
L200791485 186171485
L200791485 186028628
L200862914 185885771
L201005771 185814342
L201362914 185814342
L201505771 185742914
" />
<path d="M202862914 186385771
L202862914 184885771
" />
<path d="M202862914 186314342
L202720057 186385771
L202434342 186385771
L202291485 186314342
L202220057 186242914
L202148628 186100057
L202148628 185671485
L202220057 185528628
L202291485 185457200
L202434342 185385771
L202720057 185385771
L202862914 185457200
" />
<path d="M203220057 186528628
L204362914 186528628
" />
<path d="M204720057 185385771
L204720057 186885771
" />
<path d="M204720057 185457200
L204862914 185385771
L205148628 185385771
L205291485 185457200
L205362914 185528628
L205434342 185671485
L205434342 186100057
L205362914 186242914
L205291485 186314342
L205148628 186385771
L204862914 186385771
L204720057 186314342
" />
<path d="M206720057 186314342
L206577200 186385771
L206291485 186385771
L206148628 186314342
L206077200 186242914
L206005771 186100057
L206005771 185671485
L206077200 185528628
L206148628 185457200
L206291485 185385771
L206577200 185385771
L206720057 185457200
" />
<path d="M207362914 186385771
L207362914 184885771
" />
<path d="M207362914 185457200
L207505771 185385771
L207791485 185385771
L207934342 185457200
L208005771 185528628
L208077200 185671485
L208077200 186100057
L208005771 186242914
L207934342 186314342
L207791485 186385771
L207505771 186385771
L207362914 186314342
" />
</g></g>
<g style="fill:#000000; fill-opacity:0.0; 
stroke:#000000; stroke-width:21200.000000; stroke-opacity:1; 
stroke-linecap:round; stroke-linejoin:round;">
</g>
<g style="fill:#000000; fill-opacity:0.0; 
stroke:#000000; stroke-width:150000.000000; stroke-opacity:1; 
stroke-linecap:round; stroke-linejoin:round;">
<path d="M177002200 181507200
L285002200 181507200
" />
</g>
<g style="fill:#000000; fill-opacity:0.0; 
stroke:#000000; stroke-width:21200.000000; stroke-opacity:1; 
stroke-linecap:round; stroke-linejoin:round;">
</g>
<g style="fill:#000000; fill-opacity:0.0; 
stroke:#000000; stroke-width:150000.000000; stroke-opacity:1; 
stroke-linecap:round; stroke-linejoin:round;">
<text x="178002200.000000" y="183757200.000000"
textLength="8221429.000000" font-size="2000000.000000" lengthAdjust="spacingAndGlyphs"
text-anchor="start" opacity="0">Sheet: </text>
<g class="stroked-text"><desc>Sheet: </desc>
<path d="M178362914 183614342
L178577200 183685771
L178934342 183685771
L179077200 183614342
L179148628 183542914
L179220057 183400057
L179220057 183257200
L179148628 183114342
L179077200 183042914
L178934342 182971485
L178648628 182900057
L178505771 182828628
L178434342 182757200
L178362914 182614342
L178362914 182471485
L178434342 182328628
L178505771 182257200
L178648628 182185771
L179005771 182185771
L179220057 182257200
" />
<path d="M179862914 183685771
L179862914 182185771
" />
<path d="M180505771 183685771
L180505771 182900057
L180434342 182757200
L180291485 182685771
L180077200 182685771
L179934342 182757200
L179862914 182828628
" />
<path d="M181791485 183614342
L181648628 183685771
L181362914 183685771
L181220057 183614342
L181148628 183471485
L181148628 182900057
L181220057 182757200
L181362914 182685771
L181648628 182685771
L181791485 182757200
L181862914 182900057
L181862914 183042914
L181148628 183185771
" />
<path d="M183077200 183614342
L182934342 183685771
L182648628 183685771
L182505771 183614342
L182434342 183471485
L182434342 182900057
L182505771 182757200
L182648628 182685771
L182934342 182685771
L183077200 182757200
L183148628 182900057
L183148628 183042914
L182434342 183185771
" />
<path d="M183577200 182685771
L184148628 182685771
" />
<path d="M183791485 182185771
L183791485 183471485
L183862914 183614342
L184005771 183685771
L184148628 183685771
" />
<path d="M184648628 183542914
L184720057 183614342
L184648628 183685771
L184577200 183614342
L184648628 183542914
L184648628 183685771
" />
<path d="M184648628 182757200
L184720057 182828628
L184648628 182900057
L184577200 182828628
L184648628 182757200
L184648628 182900057
" />
</g></g>
<g style="fill:#000000; fill-opacity:0.0; 
stroke:#000000; stroke-width:21200.000000; stroke-opacity:1; 
stroke-linecap:round; stroke-linejoin:round;">
</g>
<g style="fill:#000000; fill-opacity:0.0; 
stroke:#000000; stroke-width:300000.000000; stroke-opacity:1; 
stroke-linecap:round; stroke-linejoin:round;">
<text x="178002200.000000" y="180757200.000000"
textLength="150000.000000" font-size="2000000.000000" lengthAdjust="spacingAndGlyphs"
text-anchor="start" opacity="0"></text>
<g class="stroked-text"><desc></desc>
</g></g>
<g style="fill:#000000; fill-opacity:0.0; 
stroke:#000000; stroke-width:21200.000000; stroke-opacity:1; 
stroke-linecap:round; stroke-linejoin:round;">
</g>
<g style="fill:#000000; fill-opacity:0.0; 
stroke:#000000; stroke-width:150000.000000; stroke-opacity:1; 
stroke-linecap:round; stroke-linejoin:round;">
<text x="178002200.000000" y="177757200.000000"
textLength="300000.000000" font-size="2000000.000000" lengthAdjust="spacingAndGlyphs"
text-anchor="start" opacity="0"></text>
<g class="stroked-text"><desc></desc>
</g></g>
<g style="fill:#000000; fill-opacity:0.0; 
stroke:#000000; stroke-width:21200.000000; stroke-opacity:1; 
stroke-linecap:round; stroke-linejoin:round;">
</g>
<g style="fill:#000000; fill-opacity:0.0; 
stroke:#000000; stroke-width:150000.000000; stroke-opacity:1; 
stroke-linecap:round; stroke-linejoin:round;">
<text x="178002200.000000" y="174757200.000000"
textLength="150000.000000" font-size="2000000.000000" lengthAdjust="spacingAndGlyphs"
text-anchor="start" opacity="0"></text>
<g class="stroked-text"><desc></desc>
</g></g>
<g style="fill:#000000; fill-opacity:0.0; 
stroke:#000000; stroke-width:21200.000000; stroke-opacity:1; 
stroke-linecap:round; stroke-linejoin:round;">
</g>
<g style="fill:#000000; fill-opacity:0.0; 
stroke:#000000; stroke-width:150000.000000; stroke-opacity:1; 
stroke-linecap:round; stroke-linejoin:round;">
<text x="178002200.000000" y="171757200.000000"
textLength="150000.000000" font-size="2000000.000000" lengthAdjust="spacingAndGlyphs"
text-anchor="start" opacity="0"></text>
<g class="stroked-text"><desc></desc>
</g></g>
<g style="fill:#000000; fill-opacity:0.0; 
stroke:#000000; stroke-width:21200.000000; stroke-opacity:1; 
stroke-linecap:round; stroke-linejoin:round;">
</g>
<g style="fill:#000000; fill-opacity:0.0; 
stroke:#000000; stroke-width:150000.000000; stroke-opacity:1; 
stroke-linecap:round; stroke-linejoin:round;">
<text x="178002200.000000" y="168757200.000000"
textLength="150000.000000" font-size="2000000.000000" lengthAdjust="spacingAndGlyphs"
text-anchor="start" opacity="0"></text>
<g class="stroked-text"><desc></desc>
</g></g>
<g style="fill:#000000; fill-opacity:0.0; 
stroke:#000000; stroke-width:21200.000000; stroke-opacity:1; 
stroke-linecap:round; stroke-linejoin:round;">
</g>
<g style="fill:#000000; fill-opacity:0.0; 
stroke:#000000; stroke-width:150000.000000; stroke-opacity:1; 
stroke-linecap:round; stroke-linejoin:round;">
<path d="M197002200 191507200
L197002200 194507200
" />
</g>
<g style="fill:#000000; fill-opacity:0.0; 
stroke:#000000; stroke-width:21200.000000; stroke-opacity:1; 
stroke-linecap:round; stroke-linejoin:round;">
</g>
<g style="fill:#000000; fill-opacity:0.0; 
stroke:#000000; stroke-width:150000.000000; stroke-opacity:1; 
stroke-linecap:round; stroke-linejoin:round;">
<path d="M261002200 191507200
L261002200 198007200
" />
</g>
<g style="fill:#FF26E2; fill-opacity:0.0; 
stroke:#FF26E2; stroke-width:150000.000000; stroke-opacity:1; 
stroke-linecap:round; stroke-linejoin:round;">
</g>
<g style="fill:#FF26E2; fill-opacity:0.0; 
stroke:#FF26E2; stroke-width:50800.000000; stroke-opacity:1; 
stroke-linecap:round; stroke-linejoin:round;">
<path d="M142599900 120693200
L142599900 123543200
" />
<path d="M142599900 123543200
L137739900 123543200
" />
<path d="M137739900 123543200
L137739900 120693200
" />
<path d="M137739900 120693200
L142599900 120693200
" />
<path d="M105702300 117507000
L107378300 117507000
" />
<path d="M107378300 117507000
L107378300 118533000
" />
<path d="M105702300 118533000
L105702300 117507000
" />
<path d="M107378300 118533000
L105702300 118533000
" />
<path d="M118117700 108524000
L118117700 106868000
" />
<path d="M118117700 106868000
L119143700 106868000
" />
<path d="M119143700 106868000
L119143700 108524000
" />
<path d="M119143700 108524000
L118117700 108524000
" />
<path d="M96812100 89890600
L97796350 89890600
" />
<path d="M100495100 89846150
L103289100 89846150
" />
<path d="M97796350 97199450
L96812100 97199450
" />
<path d="M97796350 89890600
L97796350 88309450
" />
<path d="M97796350 98850450
L97796350 97199450
" />
<path d="M103289100 89846150
L103289100 97307400
" />
<path d="M103289100 97307400
L100495100 97307400
" />
<path d="M97796350 88309450
L100495100 88309450
" />
<path d="M100495100 98850450
L97796350 98850450
" />
<path d="M96812100 97199450
L96812100 89890600
" />
<path d="M100495100 88309450
L100495100 89846150
" />
<path d="M100495100 97307400
L100495100 98850450
" />
<path d="M182105500 104193600
L185051500 104193600
" />
<path d="M185051500 104193600
L185051500 105559600
" />
<path d="M185051500 105559600
L182105500 105559600
" />
<path d="M182105500 105559600
L182105500 104193600
" />
<path d="M103670100 108623100
L103670100 105346500
" />
<path d="M104940100 108623100
L103670100 108623100
" />
<path d="M103670100 105346500
L104940100 105346500
" />
<path d="M104940100 105346500
L104940100 108623100
" />
<path d="M153281300 118542000
L153281300 120218000
" />
<path d="M153281300 120218000
L152255300 120218000
" />
<path d="M152255300 118542000
L153281300 118542000
" />
<path d="M152255300 120218000
L152255300 118542000
" />
<path d="M137839450 88563450
L134175500 88563450
" />
<path d="M134175500 87204550
L137839450 87204550
" />
<path d="M137839450 87204550
L137839450 88563450
" />
<path d="M134175500 88563450
L134175500 87204550
" />
<path d="M182105500 102314000
L185051500 102314000
" />
<path d="M182105500 103680000
L182105500 102314000
" />
<path d="M185051500 102314000
L185051500 103680000
" />
<path d="M185051500 103680000
L182105500 103680000
" />
<path d="M131508700 106786600
L131508700 105760600
" />
<path d="M133184700 105760600
L133184700 106786600
" />
<path d="M133184700 106786600
L131508700 106786600
" />
<path d="M131508700 105760600
L133184700 105760600
" />
<path d="M112426750 103784400
L113449100 103784400
" />
<path d="M111372650 102673150
L112426750 102673150
" />
<path d="M110343950 103784400
L111372650 103784400
" />
<path d="M113449100 103784400
L113449100 105867200
" />
<path d="M113449100 105867200
L110343950 105867200
" />
<path d="M112426750 102673150
L112426750 103784400
" />
<path d="M110343950 105867200
L110343950 103784400
" />
<path d="M111372650 103784400
L111372650 102673150
" />
<path d="M181919681 110101122
L178973681 110101122
" />
<path d="M181919681 108735122
L181919681 110101122
" />
<path d="M178973681 110101122
L178973681 108735122
" />
<path d="M178973681 108735122
L181919681 108735122
" />
</g>
<g style="fill:#FF26E2; fill-opacity:0.0; 
stroke:#FF26E2; stroke-width:50000.000000; stroke-opacity:1; 
stroke-linecap:round; stroke-linejoin:round;">
<path d="M125139900 120871600
L119829900 120871600
" />
<path d="M125139900 113011600
L125139900 120871600
" />
<path d="M119829900 113011600
L125139900 113011600
" />
<path d="M119829900 120871600
L119829900 113011600
" />
</g>
<g style="fill:#FF26E2; fill-opacity:0.0; 
stroke:#FF26E2; stroke-width:50800.000000; stroke-opacity:1; 
stroke-linecap:round; stroke-linejoin:round;">
<path d="M100183950 115544600
L100183950 114065050
" />
<path d="M103752650 114065050
L103752650 115544600
" />
<path d="M100183950 114065050
L103752650 114065050
" />
<path d="M103752650 115544600
L100183950 115544600
" />
<path d="M111401900 108107400
L111401900 107081400
" />
<path d="M113057900 108107400
L111401900 108107400
" />
<path d="M113057900 107081400
L113057900 108107400
" />
<path d="M111401900 107081400
L113057900 107081400
" />
<path d="M120149700 89220000
L120149700 87564000
" />
<path d="M120149700 87564000
L121175700 87564000
" />
<path d="M121175700 89220000
L120149700 89220000
" />
<path d="M121175700 87564000
L121175700 89220000
" />
<path d="M126560500 114670800
L125534500 114670800
" />
<path d="M125534500 114670800
L125534500 113014800
" />
<path d="M126560500 113014800
L126560500 114670800
" />
<path d="M125534500 113014800
L126560500 113014800
" />
<path d="M114351100 93696200
L114351100 96956200
" />
<path d="M114351100 96956200
L116611100 96956200
" />
<path d="M116611100 96956200
L116611100 93696200
" />
<path d="M116611100 93696200
L114351100 93696200
" />
<path d="M106457750 100971350
L106457750 99491800
" />
<path d="M106457750 99491800
L110026450 99491800
" />
<path d="M110026450 100971350
L106457750 100971350
" />
<path d="M110026450 99491800
L110026450 100971350
" />
<path d="M106260900 93662500
L106260900 96939100
" />
<path d="M104990900 93662500
L106260900 93662500
" />
<path d="M106260900 96939100
L104990900 96939100
" />
<path d="M104990900 96939100
L104990900 93662500
" />
<path d="M168813500 95715600
L171663500 95715600
" />
<path d="M171663500 100575600
L168813500 100575600
" />
<path d="M168813500 100575600
L168813500 95715600
" />
<path d="M171663500 95715600
L171663500 100575600
" />
<path d="M128206300 111450200
L128206300 112476200
" />
<path d="M126530300 111450200
L128206300 111450200
" />
<path d="M126530300 112476200
L126530300 111450200
" />
<path d="M128206300 112476200
L126530300 112476200
" />
<path d="M119936300 108361400
L119936300 107335400
" />
<path d="M121592300 108361400
L119936300 108361400
" />
<path d="M121592300 107335400
L121592300 108361400
" />
<path d="M119936300 107335400
L121592300 107335400
" />
<path d="M176026300 104396400
L176026300 107246400
" />
<path d="M171166300 107246400
L171166300 104396400
" />
<path d="M176026300 107246400
L171166300 107246400
" />
<path d="M171166300 104396400
L176026300 104396400
" />
<path d="M136503900 120693200
L136503900 123543200
" />
<path d="M131643900 123543200
L131643900 120693200
" />
<path d="M131643900 120693200
L136503900 120693200
" />
<path d="M136503900 123543200
L131643900 123543200
" />
<path d="M131427300 111683600
L131427300 110007600
" />
<path d="M132453300 110007600
L132453300 111683600
" />
<path d="M132453300 111683600
L131427300 111683600
" />
<path d="M131427300 110007600
L132453300 110007600
" />
<path d="M127596700 103322200
L127596700 104348200
" />
<path d="M125920700 103322200
L127596700 103322200
" />
<path d="M125920700 104348200
L125920700 103322200
" />
<path d="M127596700 104348200
L125920700 104348200
" />
<path d="M124698500 93523000
L124698500 96469000
" />
<path d="M124698500 96469000
L123332500 96469000
" />
<path d="M123332500 96469000
L123332500 93523000
" />
<path d="M123332500 93523000
L124698500 93523000
" />
<path d="M113057900 106989800
L111401900 106989800
" />
<path d="M111401900 106989800
L111401900 105963800
" />
<path d="M113057900 105963800
L113057900 106989800
" />
<path d="M111401900 105963800
L113057900 105963800
" />
<path d="M107683300 108026200
L109766100 108026200
" />
<path d="M109766100 111131350
L107683300 111131350
" />
<path d="M107683300 109048550
L107683300 108026200
" />
<path d="M109766100 108026200
L109766100 111131350
" />
<path d="M106572050 109048550
L107683300 109048550
" />
<path d="M107683300 110102650
L106572050 110102650
" />
<path d="M107683300 111131350
L107683300 110102650
" />
<path d="M106572050 110102650
L106572050 109048550
" />
<path d="M159783700 107467600
L159783700 109143600
" />
<path d="M158757700 109143600
L158757700 107467600
" />
<path d="M159783700 109143600
L158757700 109143600
" />
<path d="M158757700 107467600
L159783700 107467600
" />
<path d="M100279200 114014250
L97917000 114014250
" />
<path d="M96647000 113163350
L96647000 105727500
" />
<path d="M97929700 104882950
L100279200 104882950
" />
<path d="M97923350 113163350
L96647000 113163350
" />
<path d="M100279200 104882950
L100272850 105727500
" />
<path d="M97917000 114014250
L97923350 113163350
" />
<path d="M96647000 105727500
L97923350 105727500
" />
<path d="M100279200 113176050
L100279200 114014250
" />
<path d="M102863650 105727500
L102863650 113176050
" />
<path d="M102863650 113176050
L100279200 113176050
" />
<path d="M97923350 105727500
L97929700 104882950
" />
<path d="M100272850 105727500
L102863650 105727500
" />
<path d="M126327300 113263000
L125361300 113263000
" />
<path d="M126327300 109017000
L126327300 113263000
" />
<path d="M125361300 113263000
L125361300 109017000
" />
<path d="M125361300 109017000
L126327300 109017000
" />
<path d="M140906300 91648200
L139230300 91648200
" />
<path d="M139230300 91648200
L139230300 90622200
" />
<path d="M140906300 90622200
L140906300 91648200
" />
<path d="M139230300 90622200
L140906300 90622200
" />
<path d="M114371300 119388800
L114371300 121044800
" />
<path d="M113345300 121044800
L113345300 119388800
" />
<path d="M114371300 121044800
L113345300 121044800
" />
<path d="M113345300 119388800
L114371300 119388800
" />
<path d="M139057300 118542000
L139057300 120218000
" />
<path d="M139057300 120218000
L138031300 120218000
" />
<path d="M138031300 118542000
L139057300 118542000
" />
<path d="M138031300 120218000
L138031300 118542000
" />
<path d="M109987100 88993200
L109987100 84133200
" />
<path d="M112837100 84133200
L112837100 88993200
" />
<path d="M109987100 84133200
L112837100 84133200
" />
<path d="M112837100 88993200
L109987100 88993200
" />
<path d="M133489500 108199000
L133489500 109225000
" />
<path d="M131813500 109225000
L131813500 108199000
" />
<path d="M133489500 109225000
L131813500 109225000
" />
<path d="M131813500 108199000
L133489500 108199000
" />
</g>
<g style="fill:#FF26E2; fill-opacity:0.0; 
stroke:#FF26E2; stroke-width:50000.000000; stroke-opacity:1; 
stroke-linecap:round; stroke-linejoin:round;">
<path d="M167661100 130733600
L147121100 130703600
" />
<path d="M147121100 130703600
L147121100 127503600
" />
<path d="M147121100 127503600
L167661100 127533600
" />
<path d="M167661100 127533600
L167661100 130733600
" />
</g>
<g style="fill:#FF26E2; fill-opacity:0.0; 
stroke:#FF26E2; stroke-width:50800.000000; stroke-opacity:1; 
stroke-linecap:round; stroke-linejoin:round;">
<path d="M119834700 111043800
L121490700 111043800
" />
<path d="M121490700 111043800
L121490700 112069800
" />
<path d="M121490700 112069800
L119834700 112069800
" />
<path d="M119834700 112069800
L119834700 111043800
" />
</g>
<g style="fill:#FF26E2; fill-opacity:0.0; 
stroke:#FF26E2; stroke-width:50000.000000; stroke-opacity:1; 
stroke-linecap:round; stroke-linejoin:round;">
<path d="M115127100 82473600
L115127100 79273600
" />
<path d="M140727100 79273600
L140727100 82473600
" />
<path d="M115127100 79273600
L140727100 79273600
" />
<path d="M140727100 82473600
L115127100 82473600
" />
</g>
<g style="fill:#FF26E2; fill-opacity:0.0; 
stroke:#FF26E2; stroke-width:50800.000000; stroke-opacity:1; 
stroke-linecap:round; stroke-linejoin:round;">
<path d="M131997450 118903750
L131997450 120262650
" />
<path d="M131997450 120262650
L128333500 120262650
" />
<path d="M128333500 120262650
L128333500 118903750
" />
<path d="M128333500 118903750
L131997450 118903750
" />
<path d="M110026450 102850950
L106457750 102850950
" />
<path d="M106457750 101371400
L110026450 101371400
" />
<path d="M110026450 101371400
L110026450 102850950
" />
<path d="M106457750 102850950
L106457750 101371400
" />
<path d="M115399900 107492600
L115399900 105816600
" />
<path d="M116425900 107492600
L115399900 107492600
" />
<path d="M115399900 105816600
L116425900 105816600
" />
<path d="M116425900 105816600
L116425900 107492600
" />
<path d="M127596700 100680600
L127596700 101706600
" />
<path d="M125920700 100680600
L127596700 100680600
" />
<path d="M127596700 101706600
L125920700 101706600
" />
<path d="M125920700 101706600
L125920700 100680600
" />
<path d="M178071100 94094000
L178071100 91834000
" />
<path d="M174811100 91834000
L174811100 94094000
" />
<path d="M178071100 91834000
L174811100 91834000
" />
<path d="M174811100 94094000
L178071100 94094000
" />
<path d="M134170500 94574400
L135196500 94574400
" />
<path d="M134170500 96230400
L134170500 94574400
" />
<path d="M135196500 96230400
L134170500 96230400
" />
<path d="M135196500 94574400
L135196500 96230400
" />
<path d="M133184700 100680600
L133184700 101706600
" />
<path d="M131508700 100680600
L133184700 100680600
" />
<path d="M131508700 101706600
L131508700 100680600
" />
<path d="M133184700 101706600
L131508700 101706600
" />
<path d="M112724900 99106400
L110464900 99106400
" />
<path d="M112724900 102366400
L112724900 99106400
" />
<path d="M110464900 99106400
L110464900 102366400
" />
<path d="M110464900 102366400
L112724900 102366400
" />
<path d="M126357300 110932000
L126357300 112588000
" />
<path d="M125331300 110932000
L126357300 110932000
" />
<path d="M126357300 112588000
L125331300 112588000
" />
<path d="M125331300 112588000
L125331300 110932000
" />
</g>
<g style="fill:#FF26E2; fill-opacity:0.0; 
stroke:#FF26E2; stroke-width:127000.000000; stroke-opacity:1; 
stroke-linecap:round; stroke-linejoin:round;">
<path d="M109104100 84265600
L107074100 84265600
" />
<path d="M109114100 79755600
L98724100 79755600
" />
<path d="M109114100 81525600
L109114100 79755600
" />
<path d="M98724100 86045600
L109104100 86045600
" />
<path d="M98724100 79755600
L98724100 86045600
" />
<path d="M107074100 84265600
L107074100 81525600
" />
<path d="M109104100 86045600
L109104100 84265600
" />
<path d="M107074100 81525600
L109114100 81525600
" />
</g>
<g style="fill:#FF26E2; fill-opacity:0.0; 
stroke:#FF26E2; stroke-width:50800.000000; stroke-opacity:1; 
stroke-linecap:round; stroke-linejoin:round;">
<path d="M104228900 112585500
L102958900 112585500
" />
<path d="M102958900 109308900
L104228900 109308900
" />
<path d="M104228900 109308900
L104228900 112585500
" />
<path d="M102958900 112585500
L102958900 109308900
" />
<path d="M172224900 104213400
L172224900 102847400
" />
<path d="M172224900 102847400
L175170900 102847400
" />
<path d="M175170900 104213400
L172224900 104213400
" />
<path d="M175170900 102847400
L175170900 104213400
" />
<path d="M182130900 107343200
L185076900 107343200
" />
<path d="M182130900 108709200
L182130900 107343200
" />
<path d="M185076900 108709200
L182130900 108709200
" />
<path d="M185076900 107343200
L185076900 108709200
" />
<path d="M117378100 129739200
L117378100 121639200
" />
<path d="M124090500 121639200
L124090500 129739200
" />
<path d="M117378100 121639200
L124090500 121639200
" />
<path d="M124090500 129739200
L117378100 129739200
" />
<path d="M113057100 124955600
L113047100 122135600
" />
<path d="M117407100 124955600
L113057100 124955600
" />
<path d="M113047100 122135600
L117397100 122135600
" />
<path d="M117397100 122135600
L117407100 124955600
" />
<path d="M128384300 118332250
L128384300 116973350
" />
<path d="M128384300 116973350
L132048250 116973350
" />
<path d="M132048250 118332250
L128384300 118332250
" />
<path d="M132048250 116973350
L132048250 118332250
" />
</g>
<g style="fill:#FF26E2; fill-opacity:0.0; 
stroke:#FF26E2; stroke-width:50000.000000; stroke-opacity:1; 
stroke-linecap:round; stroke-linejoin:round;">
<path d="M162581100 79303600
L162581100 82503600
" />
<path d="M142041100 82473600
L142041100 79273600
" />
<path d="M162581100 82503600
L142041100 82473600
" />
<path d="M142041100 79273600
L162581100 79303600
" />
</g>
<g style="fill:#FF26E2; fill-opacity:0.0; 
stroke:#FF26E2; stroke-width:50800.000000; stroke-opacity:1; 
stroke-linecap:round; stroke-linejoin:round;">
<path d="M104711700 110467400
L107657700 110467400
" />
<path d="M107657700 110467400
L107657700 111833400
" />
<path d="M104711700 111833400
L104711700 110467400
" />
<path d="M107657700 111833400
L104711700 111833400
" />
<path d="M176026300 110167400
L171166300 110167400
" />
<path d="M176026300 107317400
L176026300 110167400
" />
<path d="M171166300 110167400
L171166300 107317400
" />
<path d="M171166300 107317400
L176026300 107317400
" />
<path d="M107213400 92722700
L107213400 89039700
" />
<path d="M113296700 92722700
L107213400 92722700
" />
<path d="M107213400 89039700
L113296700 89039700
" />
<path d="M113296700 89039700
L113296700 92722700
" />
<path d="M100533200 87452200
L103809800 87452200
" />
<path d="M103809800 87452200
L103809800 88722200
" />
<path d="M103809800 88722200
L100533200 88722200
" />
<path d="M100533200 88722200
L100533200 87452200
" />
<path d="M100246100 115707200
L100246100 117363200
" />
<path d="M99220100 117363200
L99220100 115707200
" />
<path d="M99220100 115707200
L100246100 115707200
" />
<path d="M100246100 117363200
L99220100 117363200
" />
</g>
<g style="fill:#FF26E2; fill-opacity:0.0; 
stroke:#FF26E2; stroke-width:50000.000000; stroke-opacity:1; 
stroke-linecap:round; stroke-linejoin:round;">
<path d="M132746100 89788800
L122356100 89788800
" />
<path d="M132746100 86588800
L132746100 89788800
" />
<path d="M122356100 86588800
L132746100 86588800
" />
<path d="M122356100 89788800
L122356100 86588800
" />
</g>
<g style="fill:#FF26E2; fill-opacity:0.0; 
stroke:#FF26E2; stroke-width:50800.000000; stroke-opacity:1; 
stroke-linecap:round; stroke-linejoin:round;">
<path d="M158656100 106502000
L158656100 104826000
" />
<path d="M159682100 106502000
L158656100 106502000
" />
<path d="M159682100 104826000
L159682100 106502000
" />
<path d="M158656100 104826000
L159682100 104826000
" />
<path d="M122880900 92666800
L122880900 89816800
" />
<path d="M127740900 89816800
L127740900 92666800
" />
<path d="M127740900 92666800
L122880900 92666800
" />
<path d="M122880900 89816800
L127740900 89816800
" />
<path d="M125717500 94950200
L125717500 93924200
" />
<path d="M125717500 93924200
L127393500 93924200
" />
<path d="M127393500 94950200
L125717500 94950200
" />
<path d="M127393500 93924200
L127393500 94950200
" />
<path d="M107429500 88193800
L107429500 87167800
" />
<path d="M109105500 88193800
L107429500 88193800
" />
<path d="M109105500 87167800
L109105500 88193800
" />
<path d="M107429500 87167800
L109105500 87167800
" />
<path d="M151340900 91770000
L151340900 90094000
" />
<path d="M151340900 90094000
L152366900 90094000
" />
<path d="M152366900 90094000
L152366900 91770000
" />
<path d="M152366900 91770000
L151340900 91770000
" />
<path d="M103854250 118999000
L100285550 118999000
" />
<path d="M100285550 118999000
L100285550 117519450
" />
<path d="M103854250 117519450
L103854250 118999000
" />
<path d="M100285550 117519450
L103854250 117519450
" />
<path d="M130023900 104802800
L127953900 104802800
" />
<path d="M127953900 100022800
L130023900 100022800
" />
<path d="M127953900 104802800
L127953900 100022800
" />
<path d="M130023900 100022800
L130023900 104802800
" />
<path d="M125930700 106786600
L125930700 105760600
" />
<path d="M127586700 105760600
L127586700 106786600
" />
<path d="M127586700 106786600
L125930700 106786600
" />
<path d="M125930700 105760600
L127586700 105760600
" />
<path d="M134505500 111765000
L132829500 111765000
" />
<path d="M132829500 111765000
L132829500 110739000
" />
<path d="M132829500 110739000
L134505500 110739000
" />
<path d="M134505500 110739000
L134505500 111765000
" />
<path d="M132656500 97500400
L131630500 97500400
" />
<path d="M131630500 97500400
L131630500 95844400
" />
<path d="M131630500 95844400
L132656500 95844400
" />
<path d="M132656500 95844400
L132656500 97500400
" />
<path d="M108343900 112821800
L110019900 112821800
" />
<path d="M108343900 113847800
L108343900 112821800
" />
<path d="M110019900 112821800
L110019900 113847800
" />
<path d="M110019900 113847800
L108343900 113847800
" />
</g>
<g style="fill:#FF26E2; fill-opacity:0.0; 
stroke:#FF26E2; stroke-width:50000.000000; stroke-opacity:1; 
stroke-linecap:round; stroke-linejoin:round;">
<path d="M164901100 82443600
L164901100 79243600
" />
<path d="M185441100 82473600
L164901100 82443600
" />
<path d="M185441100 79273600
L185441100 82473600
" />
<path d="M164901100 79243600
L185441100 79273600
" />
<path d="M169981100 127503600
L190521100 127533600
" />
<path d="M169981100 130703600
L169981100 127503600
" />
<path d="M190521100 130733600
L169981100 130703600
" />
<path d="M190521100 127533600
L190521100 130733600
" />
</g>
<g style="fill:#FF26E2; fill-opacity:0.0; 
stroke:#FF26E2; stroke-width:50800.000000; stroke-opacity:1; 
stroke-linecap:round; stroke-linejoin:round;">
<path d="M131737100 91573350
L131737100 92932250
" />
<path d="M128073150 91573350
L131737100 91573350
" />
<path d="M131737100 92932250
L128073150 92932250
" />
<path d="M128073150 92932250
L128073150 91573350
" />
<path d="M121856500 112166400
L121856500 107086400
" />
<path d="M123939300 107086400
L123939300 112166400
" />
<path d="M123939300 112166400
L121856500 112166400
" />
<path d="M121856500 107086400
L123939300 107086400
" />
<path d="M117424200 126479300
L113830100 126479300
" />
<path d="M113830100 126479300
L113830100 125082300
" />
<path d="M117424200 125082300
L117424200 126479300
" />
<path d="M113830100 125082300
L117424200 125082300
" />
<path d="M117576300 90114800
L115316300 90114800
" />
<path d="M115316300 90114800
L115316300 93374800
" />
<path d="M115316300 93374800
L117576300 93374800
" />
<path d="M117576300 93374800
L117576300 90114800
" />
</g>
<g style="fill:#FF26E2; fill-opacity:0.0; 
stroke:#FF26E2; stroke-width:50000.000000; stroke-opacity:1; 
stroke-linecap:round; stroke-linejoin:round;">
<path d="M190311100 79473600
L195601100 79473600
" />
<path d="M195601100 79473600
L195601100 125453600
" />
<path d="M195601100 125453600
L190301100 125453600
" />
<path d="M190301100 125453600
L190311100 79473600
" />
</g>
<g style="fill:#FF26E2; fill-opacity:0.0; 
stroke:#FF26E2; stroke-width:50800.000000; stroke-opacity:1; 
stroke-linecap:round; stroke-linejoin:round;">
<path d="M104645500 113847800
L104645500 112821800
" />
<path d="M104645500 112821800
L106301500 112821800
" />
<path d="M106301500 113847800
L104645500 113847800
" />
<path d="M106301500 112821800
L106301500 113847800
" />
<path d="M111005700 113309200
L111005700 111633200
" />
<path d="M111005700 111633200
L112031700 111633200
" />
<path d="M112031700 113309200
L111005700 113309200
" />
<path d="M112031700 111633200
L112031700 113309200
" />
</g>
<g style="fill:#FF26E2; fill-opacity:0.0; 
stroke:#FF26E2; stroke-width:127000.000000; stroke-opacity:1; 
stroke-linecap:round; stroke-linejoin:round;">
<path d="M168257100 94364000
L172507100 94364000
" />
<path d="M173057100 94124000
L173057100 91794000
" />
<path d="M168257100 91804000
L167697100 91804000
" />
<path d="M167697100 94134000
L168257100 94134000
" />
<path d="M173057100 91794000
L172507100 91794000
" />
<path d="M167697100 91804000
L167697100 94134000
" />
<path d="M172507100 91564000
L168257100 91564000
" />
<path d="M168257100 91564000
L168257100 91804000
" />
<path d="M168257100 94134000
L168257100 94364000
" />
<path d="M172507100 91794000
L172507100 91564000
" />
<path d="M172507100 94364000
L172507100 94124000
" />
<path d="M172507100 94124000
L173057100 94124000
" />
</g>
<g style="fill:#FF26E2; fill-opacity:0.0; 
stroke:#FF26E2; stroke-width:50000.000000; stroke-opacity:1; 
stroke-linecap:round; stroke-linejoin:round;">
<path d="M124261100 127503600
L144801100 127533600
" />
<path d="M144801100 127533600
L144801100 130733600
" />
<path d="M124261100 130703600
L124261100 127503600
" />
<path d="M144801100 130733600
L124261100 130703600
" />
<path d="M119656700 116526800
L119656700 121826800
" />
<path d="M119656700 121826800
L114356700 121826800
" />
<path d="M114356700 121826800
L114356700 116526800
" />
<path d="M114356700 116526800
L119656700 116526800
" />
</g>
<g style="fill:#FF26E2; fill-opacity:0.0; 
stroke:#FF26E2; stroke-width:50800.000000; stroke-opacity:1; 
stroke-linecap:round; stroke-linejoin:round;">
<path d="M98915300 101015600
L98915300 99339600
" />
<path d="M99941300 99339600
L99941300 101015600
" />
<path d="M98915300 99339600
L99941300 99339600
" />
<path d="M99941300 101015600
L98915300 101015600
" />
<path d="M113010950 125628400
L111652050 125628400
" />
<path d="M111652050 125628400
L111652050 121964450
" />
<path d="M111652050 121964450
L113010950 121964450
" />
<path d="M113010950 121964450
L113010950 125628400
" />
<path d="M106457750 97612200
L110026450 97612200
" />
<path d="M110026450 97612200
L110026450 99091750
" />
<path d="M106457750 99091750
L106457750 97612200
" />
<path d="M110026450 99091750
L106457750 99091750
" />
<path d="M103809800 104838500
L100126800 104838500
" />
<path d="M103809800 98755200
L103809800 104838500
" />
<path d="M100126800 98755200
L103809800 98755200
" />
<path d="M100126800 104838500
L100126800 98755200
" />
</g>
<g style="fill:#FF26E2; fill-opacity:0.0; 
stroke:#FF26E2; stroke-width:50000.000000; stroke-opacity:1; 
stroke-linecap:round; stroke-linejoin:round;">
<path d="M159948100 99803600
L165258100 99803600
" />
<path d="M165258100 99803600
L165258100 107663600
" />
<path d="M165258100 107663600
L159948100 107663600
" />
<path d="M159948100 107663600
L159948100 99803600
" />
</g>
<g style="fill:#FF26E2; fill-opacity:0.0; 
stroke:#FF26E2; stroke-width:50800.000000; stroke-opacity:1; 
stroke-linecap:round; stroke-linejoin:round;">
<path d="M133489500 99573000
L131813500 99573000
" />
<path d="M131813500 98547000
L133489500 98547000
" />
<path d="M133489500 98547000
L133489500 99573000
" />
<path d="M131813500 99573000
L131813500 98547000
" />
<path d="M122339100 103314500
L122339100 104267000
" />
<path d="M125037850 106483150
L125037850 103314500
" />
<path d="M125037850 103314500
L122339100 103314500
" />
<path d="M121164350 104267000
L121164350 105537000
" />
<path d="M122339100 105537000
L122339100 106483150
" />
<path d="M121164350 105537000
L122339100 105537000
" />
<path d="M122339100 104267000
L121164350 104267000
" />
<path d="M122339100 106483150
L125037850 106483150
" />
<path d="M185026100 105844600
L185026100 107210600
" />
<path d="M182080100 107210600
L182080100 105844600
" />
<path d="M185026100 107210600
L182080100 107210600
" />
<path d="M182080100 105844600
L185026100 105844600
" />
<path d="M107551900 117507000
L109227900 117507000
" />
<path d="M109227900 117507000
L109227900 118533000
" />
<path d="M109227900 118533000
L107551900 118533000
" />
<path d="M107551900 118533000
L107551900 117507000
" />
<path d="M150334900 90094000
L150334900 91770000
" />
<path d="M149308900 90094000
L150334900 90094000
" />
<path d="M149308900 91770000
L149308900 90094000
" />
<path d="M150334900 91770000
L149308900 91770000
" />
<path d="M117106500 101681200
L115430500 101681200
" />
<path d="M115430500 100655200
L117106500 100655200
" />
<path d="M115430500 101681200
L115430500 100655200
" />
<path d="M117106500 100655200
L117106500 101681200
" />
<path d="M104990900 93281500
L104990900 90004900
" />
<path d="M104990900 90004900
L106260900 90004900
" />
<path d="M106260900 90004900
L106260900 93281500
" />
<path d="M106260900 93281500
L104990900 93281500
" />
<path d="M138447700 91262000
L137421700 91262000
" />
<path d="M137421700 91262000
L137421700 89586000
" />
<path d="M138447700 89586000
L138447700 91262000
" />
<path d="M137421700 89586000
L138447700 89586000
" />
<path d="M136796900 93100600
L133636900 93100600
" />
<path d="M133636900 89220600
L136796900 89220600
" />
<path d="M136796900 89220600
L136796900 93100600
" />
<path d="M133636900 93100600
L133636900 89220600
" />
<path d="M126538500 108384200
L131398500 108384200
" />
<path d="M131398500 108384200
L131398500 111234200
" />
<path d="M126538500 111234200
L126538500 108384200
" />
<path d="M131398500 111234200
L126538500 111234200
" />
<path d="M123519900 102823600
L123519900 99563600
" />
<path d="M121259900 102823600
L123519900 102823600
" />
<path d="M123519900 99563600
L121259900 99563600
" />
<path d="M121259900 99563600
L121259900 102823600
" />
<path d="M138959100 87368400
L143819100 87368400
" />
<path d="M143819100 90218400
L138959100 90218400
" />
<path d="M138959100 90218400
L138959100 87368400
" />
<path d="M143819100 87368400
L143819100 90218400
" />
<path d="M99098300 86151800
L100774300 86151800
" />
<path d="M99098300 87177800
L99098300 86151800
" />
<path d="M100774300 87177800
L99098300 87177800
" />
<path d="M100774300 86151800
L100774300 87177800
" />
<path d="M109191500 117302400
L105311500 117302400
" />
<path d="M109191500 114142400
L109191500 117302400
" />
<path d="M105311500 117302400
L105311500 114142400
" />
<path d="M105311500 114142400
L109191500 114142400
" />
</g>
<g style="fill:#FF26E2; fill-opacity:0.0; 
stroke:#FF26E2; stroke-width:50000.000000; stroke-opacity:1; 
stroke-linecap:round; stroke-linejoin:round;">
<path d="M110275100 121191600
L111555100 122471600
" />
<path d="M108555100 129291600
L107285100 130561600
" />
<path d="M109535100 125541600
L109535100 128491600
" />
<path d="M105475100 130561600
L104205100 129281600
" />
<path d="M109535100 128491600
L108555100 128491600
" />
<path d="M95755100 128521600
L95755100 119291600
" />
<path d="M95755100 119291600
L109535100 119291600
" />
<path d="M111555100 124281600
L110295100 125541600
" />
<path d="M107285100 130561600
L105475100 130561600
" />
<path d="M109535100 119291600
L109535100 121191600
" />
<path d="M109535100 121191600
L110275100 121191600
" />
<path d="M110295100 125541600
L109535100 125541600
" />
<path d="M111555100 122471600
L111555100 124281600
" />
<path d="M108555100 128491600
L108555100 129291600
" />
<path d="M104205100 129281600
L104205100 128521600
" />
<path d="M104205100 128521600
L95755100 128521600
" />
</g>
<g style="fill:#FF26E2; fill-opacity:0.0; 
stroke:#FF26E2; stroke-width:50800.000000; stroke-opacity:1; 
stroke-linecap:round; stroke-linejoin:round;">
<path d="M118137900 89311400
L116481900 89311400
" />
<path d="M116481900 89311400
L116481900 88285400
" />
<path d="M116481900 88285400
L118137900 88285400
" />
<path d="M118137900 88285400
L118137900 89311400
" />
<path d="M108079500 112821800
L108079500 113847800
" />
<path d="M106423500 113847800
L106423500 112821800
" />
<path d="M106423500 112821800
L108079500 112821800
" />
<path d="M108079500 113847800
L106423500 113847800
" />
<path d="M155110100 118542000
L155110100 120218000
" />
<path d="M154084100 120218000
L154084100 118542000
" />
<path d="M154084100 118542000
L155110100 118542000
" />
<path d="M155110100 120218000
L154084100 120218000
" />
<path d="M106457750 103251000
L110026450 103251000
" />
<path d="M110026450 103251000
L110026450 104730550
" />
<path d="M110026450 104730550
L106457750 104730550
" />
<path d="M106457750 104730550
L106457750 103251000
" />
<path d="M131518700 103941800
L131518700 102915800
" />
<path d="M131518700 102915800
L133174700 102915800
" />
<path d="M133174700 103941800
L131518700 103941800
" />
<path d="M133174700 102915800
L133174700 103941800
" />
<path d="M113238300 84133200
L116088300 84133200
" />
<path d="M116088300 88993200
L113238300 88993200
" />
<path d="M113238300 88993200
L113238300 84133200
" />
<path d="M116088300 84133200
L116088300 88993200
" />
<path d="M134731962 120393382
L134731962 119367382
" />
<path d="M134731962 119367382
L136407962 119367382
" />
<path d="M136407962 119367382
L136407962 120393382
" />
<path d="M136407962 120393382
L134731962 120393382
" />
<path d="M101566900 117363200
L100540900 117363200
" />
<path d="M100540900 117363200
L100540900 115707200
" />
<path d="M100540900 115707200
L101566900 115707200
" />
<path d="M101566900 115707200
L101566900 117363200
" />
<path d="M128308100 115525550
L129419350 115525550
" />
<path d="M128308100 117602000
L126225300 117602000
" />
<path d="M126225300 117602000
L126225300 114496850
" />
<path d="M126225300 114496850
L128308100 114496850
" />
<path d="M128308100 114496850
L128308100 115525550
" />
<path d="M128308100 116579650
L128308100 117602000
" />
<path d="M129419350 115525550
L129419350 116579650
" />
<path d="M129419350 116579650
L128308100 116579650
" />
<path d="M116796900 107518000
L116796900 105842000
" />
<path d="M117822900 107518000
L116796900 107518000
" />
<path d="M116796900 105842000
L117822900 105842000
" />
<path d="M117822900 105842000
L117822900 107518000
" />
<path d="M134678500 117576400
L134678500 115900400
" />
<path d="M135704500 115900400
L135704500 117576400
" />
<path d="M135704500 117576400
L134678500 117576400
" />
<path d="M134678500 115900400
L135704500 115900400
" />
<path d="M129486700 105760600
L131142700 105760600
" />
<path d="M129486700 106786600
L129486700 105760600
" />
<path d="M131142700 105760600
L131142700 106786600
" />
<path d="M131142700 106786600
L129486700 106786600
" />
</g>
<g style="fill:#FF26E2; fill-opacity:0.0; 
stroke:#FF26E2; stroke-width:50000.000000; stroke-opacity:1; 
stroke-linecap:round; stroke-linejoin:round;">
<path d="M118693100 96427200
L118703100 89907200
" />
<path d="M118703100 89907200
L121413100 89907200
" />
<path d="M121403100 95627200
L121653100 95627200
" />
<path d="M121653100 96667200
L120603100 96667200
" />
<path d="M121653100 95627200
L121653100 96667200
" />
<path d="M121413100 89907200
L121403100 95627200
" />
<path d="M120603100 96667200
L120603100 96427200
" />
<path d="M120603100 96427200
L118693100 96427200
" />
</g>
<g style="fill:#FF26E2; fill-opacity:0.0; 
stroke:#FF26E2; stroke-width:50800.000000; stroke-opacity:1; 
stroke-linecap:round; stroke-linejoin:round;">
<path d="M133164500 91668400
L132138500 91668400
" />
<path d="M132138500 89992400
L133164500 89992400
" />
<path d="M132138500 91668400
L132138500 89992400
" />
<path d="M133164500 89992400
L133164500 91668400
" />
<g >
</g>
<g >
</g>
<g >
</g>
<g >
</g>
<g >
</g>
<g >
</g>
<g >
</g>
<g >
</g>
<g >
</g>
<g >
</g>
<g >
</g>
<g >
</g>
<g >
</g>
<g >
</g>
<g >
</g>
<g >
</g>
<g >
</g>
<g >
</g>
<g >
</g>
<g >
</g>
<g >
</g>
<g >
</g>
<g >
</g>
<g >
</g>
<g >
</g>
<g >
</g>
<g >
</g>
<g >
</g>
<g >
</g>
<g >
</g>
<g >
</g>
<g >
</g>
<g >
</g>
<g >
</g>
<g >
</g>
<g >
</g>
<g >
</g>
<g >
</g>
<g >
</g>
<g >
</g>
<g >
</g>
<g >
</g>
<g >
</g>
<g >
</g>
<g >
</g>
<g >
</g>
<g >
</g>
<g >
</g>
<g >
</g>
<g >
</g>
<g >
</g>
<g >
</g>
<g >
</g>
<g >
</g>
<g >
</g>
<g >
</g>
<g >
</g>
<g >
</g>
<g >
</g>
<g >
</g>
<g >
</g>
<g >
</g>
<g >
</g>
<g >
</g>
<g >
</g>
<g >
</g>
<g >
</g>
<g >
</g>
<g >
</g>
<g >
</g>
<g >
</g>
<g >
</g>
<g >
</g>
<g >
</g>
<g >
</g>
<g >
</g>
<g >
</g>
<g >
</g>
<g >
</g>
<g >
</g>
<g >
</g>
<g >
</g>
<g >
</g>
<g >
</g>
<g >
</g>
<g >
</g>
<g >
</g>
<g >
</g>
<g >
</g>
<g >
</g>
<g >
</g>
<g >
</g>
<g >
</g>
<g >
</g>
<g >
</g>
<g >
</g>
<g >
</g>
<g >
</g>
<g >
</g>
<g >
</g>
<g >
</g>
<g >
</g>
<g >
</g>
<g >
</g>
<g >
</g>
<g >
</g>
<g >
</g>
<g >
</g>
<g >
</g>
<g >
</g>
<g >
</g>
<g >
</g>
<g >
</g>
<g >
</g>
<g >
</g>
<g >
</g>
<g >
</g>
<g >
</g>
<g >
</g>
<g >
</g>
<g >
</g>
<g >
</g>
<g >
</g>
<g >
</g>
<g >
</g>
<g >
</g>
<g >
</g>
<g >
</g>
<g >
</g>
<g >
</g>
<g >
</g>
<g >
</g>
<g >
</g>
<g >
</g>
<g >
</g>
<g >
</g>
<g >
</g>
<g >
</g>
<g >
</g>
<g >
</g>
<g >
</g>
<g >
</g>
<g >
</g>
<g >
</g>
<g >
</g>
<g >
</g>
<g >
</g>
<g >
</g>
<g >
</g>
<g >
</g>
</g>
<g style="fill:#000000; fill-opacity:0.0; 
stroke:#000000; stroke-width:50800.000000; stroke-opacity:1; 
stroke-linecap:round; stroke-linejoin:round;">
</g>
<g style="fill:#D0D2CD; fill-opacity:0.0; 
stroke:#D0D2CD; stroke-width:50800.000000; stroke-opacity:1; 
stroke-linecap:round; stroke-linejoin:round;">
</g>
<g style="fill:#D0D2CD; fill-opacity:0.0; 
stroke:#D0D2CD; stroke-width:254000.000000; stroke-opacity:1; 
stroke-linecap:round; stroke-linejoin:round;">
<path d="M98701100.000000 78333600.000000 A1000000.000000 1000000.000000 0.0 0 0 97701100.000000 79333600.000000" />
<path d="M97701100 130673600
L97701100 79333600
" />
<path d="M98701100 78333600
L195237100 78333600
" />
<path d="M195761100 131673600
L98701100 131673600
" />
<path d="M195237100 78333600
L196761100 79857600
" />
<path d="M196761100 129133600
L196761100 130673600
" />
<path d="M199301100 126593600
L196761100 129133600
" />
<path d="M199301100 93827600
L199301100 126593600
" />
<path d="M196761100 91287600
L199301100 93827600
" />
<path d="M195761100.000000 131673600.000000 A1000000.000000 1000000.000000 0.0 0 0 196761100.000000 130673600.000000" />
<path d="M97701100.000000 130673600.000000 A1000000.000000 1000000.000000 0.0 0 0 98701100.000000 131673600.000000" />
<path d="M196761100 79857600
L196761100 91287600
" />
<g >
</g>
<g >
</g>
<g >
</g>
<g >
</g>
<g >
</g>
<g >
</g>
<g >
</g>
<g >
</g>
<g >
</g>
<g >
</g>
<g >
</g>
<g >
</g>
<g >
</g>
<g >
</g>
<g >
</g>
<g >
</g>
<g >
</g>
<g >
</g>
<g >
</g>
<g >
</g>
<g >
</g>
<g >
</g>
<g >
</g>
<g >
</g>
<g >
</g>
<g >
</g>
<g >
</g>
<g >
</g>
<g >
</g>
<g >
</g>
<g >
</g>
<g >
</g>
<g >
</g>
<g >
</g>
<g >
</g>
<g >
</g>
<g >
</g>
<g >
</g>
<g >
</g>
<g >
</g>
<g >
</g>
<g >
</g>
<g >
</g>
<g >
</g>
<g >
</g>
<g >
</g>
<g >
</g>
<g >
</g>
<g >
</g>
<g >
</g>
<g >
</g>
<g >
</g>
<g >
</g>
<g >
</g>
<g >
</g>
<g >
</g>
<g >
</g>
<g >
</g>
<g >
</g>
<g >
</g>
<g >
</g>
<g >
</g>
<g >
</g>
<g >
</g>
<g >
</g>
<g >
</g>
<g >
</g>
<g >
</g>
<g >
</g>
<g >
</g>
<g >
</g>
<g >
</g>
<g >
</g>
<g >
</g>
<g >
</g>
<g >
</g>
<g >
</g>
<g >
</g>
<g >
</g>
<g >
</g>
<g >
</g>
<g >
</g>
<g >
</g>
<g >
</g>
<g >
</g>
<g >
</g>
<g >
</g>
<g >
</g>
<g >
</g>
<g >
</g>
<g >
</g>
<g >
</g>
<g >
</g>
<g >
</g>
<g >
</g>
<g >
</g>
<g >
</g>
<g >
</g>
<g >
</g>
<g >
</g>
<g >
</g>
<g >
</g>
<g >
</g>
<g >
</g>
<g >
</g>
<g >
</g>
<g >
</g>
<g >
</g>
<g >
</g>
<g >
</g>
<g >
</g>
<g >
</g>
<g >
</g>
<g >
</g>
<g >
</g>
<g >
</g>
<g >
</g>
<g >
</g>
<g >
</g>
<g >
</g>
<g >
</g>
<g >
</g>
<g >
</g>
<g >
</g>
<g >
</g>
<g >
</g>
<g >
</g>
<g >
</g>
<g >
</g>
<g >
</g>
<g >
</g>
<g >
</g>
<g >
</g>
<g >
</g>
<g >
</g>
<g >
</g>
<g >
</g>
<g >
</g>
<g >
</g>
<g >
</g>
<g >
</g>
<g >
</g>
<g >
</g>
<g >
</g>
<g >
</g>
<g >
</g>
<g >
</g>
<g >
</g>
<g >
</g>
<g >
</g>
</g> 
</svg>
