G04 EAGLE Gerber RS-274X export*
G75*
%MOMM*%
%FSLAX34Y34*%
%LPD*%
%INSilkscreen Top*%
%IPPOS*%
%AMOC8*
5,1,8,0,0,1.08239X$1,22.5*%
G01*
%ADD10C,0.152400*%
%ADD11C,0.203200*%
%ADD12C,0.050800*%
%ADD13C,0.127000*%

G36*
X208944Y143841D02*
X208944Y143841D01*
X208953Y143845D01*
X208965Y143843D01*
X210004Y144050D01*
X210012Y144055D01*
X210023Y144055D01*
X211020Y144413D01*
X211027Y144419D01*
X211038Y144420D01*
X211972Y144922D01*
X211979Y144931D01*
X211991Y144934D01*
X213128Y145841D01*
X213134Y145852D01*
X213147Y145859D01*
X214068Y146985D01*
X214080Y147028D01*
X214096Y147069D01*
X214094Y147074D01*
X214095Y147080D01*
X214074Y147118D01*
X214055Y147158D01*
X214049Y147161D01*
X214047Y147165D01*
X214018Y147173D01*
X213970Y147191D01*
X213090Y147191D01*
X212970Y147207D01*
X212867Y147251D01*
X212527Y147525D01*
X212279Y147886D01*
X212214Y148060D01*
X212156Y148599D01*
X212254Y149128D01*
X212503Y149616D01*
X213154Y150518D01*
X213508Y150930D01*
X213918Y151281D01*
X214376Y151564D01*
X214870Y151770D01*
X215170Y151829D01*
X215473Y151817D01*
X215992Y151660D01*
X216452Y151374D01*
X216822Y150979D01*
X217077Y150498D01*
X217216Y150008D01*
X217273Y149497D01*
X217273Y148894D01*
X217273Y148893D01*
X217282Y148872D01*
X217311Y148803D01*
X217403Y148768D01*
X217413Y148772D01*
X217488Y148806D01*
X217491Y148808D01*
X217492Y148809D01*
X217493Y148810D01*
X217513Y148831D01*
X217516Y148838D01*
X217524Y148842D01*
X217862Y149277D01*
X217866Y149292D01*
X217878Y149304D01*
X218099Y149808D01*
X218099Y149809D01*
X218251Y150165D01*
X218352Y150393D01*
X218353Y150404D01*
X218359Y150413D01*
X218579Y151291D01*
X218578Y151300D01*
X218582Y151310D01*
X218668Y152210D01*
X218664Y152220D01*
X218668Y152232D01*
X218602Y153100D01*
X218596Y153111D01*
X218597Y153124D01*
X218366Y153964D01*
X218358Y153974D01*
X218357Y153987D01*
X217969Y154767D01*
X217961Y154774D01*
X217958Y154785D01*
X217398Y155562D01*
X217391Y155566D01*
X217387Y155575D01*
X216729Y156271D01*
X216718Y156276D01*
X216710Y156287D01*
X216107Y156718D01*
X216092Y156721D01*
X216079Y156733D01*
X215387Y157000D01*
X215371Y157000D01*
X215356Y157008D01*
X214619Y157095D01*
X214604Y157090D01*
X214587Y157094D01*
X213852Y156995D01*
X213839Y156987D01*
X213822Y156987D01*
X213134Y156707D01*
X213125Y156698D01*
X213111Y156695D01*
X211353Y155508D01*
X211348Y155500D01*
X211337Y155496D01*
X209796Y154043D01*
X209361Y153673D01*
X208858Y153433D01*
X208310Y153331D01*
X207754Y153374D01*
X207229Y153560D01*
X206769Y153875D01*
X206404Y154300D01*
X206111Y154843D01*
X205913Y155429D01*
X205816Y156039D01*
X205851Y156750D01*
X206058Y157428D01*
X206423Y158034D01*
X206751Y158347D01*
X207155Y158553D01*
X207571Y158646D01*
X207999Y158646D01*
X208414Y158553D01*
X208552Y158481D01*
X208666Y158363D01*
X209265Y157539D01*
X209336Y157406D01*
X209364Y157268D01*
X209348Y157110D01*
X209362Y157067D01*
X209373Y157022D01*
X209377Y157020D01*
X209378Y157016D01*
X209419Y156996D01*
X209458Y156973D01*
X209462Y156974D01*
X209466Y156972D01*
X209509Y156987D01*
X209553Y157000D01*
X209555Y157003D01*
X209559Y157005D01*
X209578Y157042D01*
X209599Y157078D01*
X209675Y157561D01*
X209674Y157566D01*
X209676Y157571D01*
X209749Y158511D01*
X209746Y158520D01*
X209749Y158531D01*
X209676Y159471D01*
X209671Y159481D01*
X209672Y159493D01*
X209488Y160192D01*
X209480Y160202D01*
X209479Y160216D01*
X209158Y160864D01*
X209149Y160872D01*
X209145Y160886D01*
X208700Y161456D01*
X208689Y161462D01*
X208683Y161474D01*
X208133Y161944D01*
X208121Y161948D01*
X208112Y161959D01*
X207380Y162360D01*
X207367Y162361D01*
X207356Y162370D01*
X206557Y162610D01*
X206544Y162609D01*
X206531Y162615D01*
X205700Y162685D01*
X205694Y162683D01*
X205689Y162685D01*
X190525Y162685D01*
X190520Y162683D01*
X190516Y162685D01*
X190476Y162664D01*
X190434Y162647D01*
X190433Y162642D01*
X190428Y162640D01*
X190415Y162597D01*
X190399Y162555D01*
X190401Y162550D01*
X190399Y162546D01*
X190435Y162476D01*
X190440Y162466D01*
X190441Y162465D01*
X195923Y157593D01*
X196705Y156739D01*
X197294Y155749D01*
X197421Y155398D01*
X197486Y155030D01*
X197486Y152755D01*
X197488Y152750D01*
X197486Y152744D01*
X197610Y151380D01*
X197616Y151370D01*
X197614Y151358D01*
X197982Y150039D01*
X197990Y150031D01*
X197991Y150018D01*
X198591Y148788D01*
X198598Y148781D01*
X198601Y148770D01*
X199418Y147613D01*
X199426Y147608D01*
X199429Y147599D01*
X200401Y146568D01*
X200409Y146564D01*
X200414Y146556D01*
X201521Y145671D01*
X201531Y145669D01*
X201538Y145660D01*
X203219Y144713D01*
X203230Y144712D01*
X203240Y144704D01*
X205064Y144076D01*
X205075Y144077D01*
X205086Y144070D01*
X206993Y143782D01*
X207004Y143785D01*
X207016Y143781D01*
X208944Y143841D01*
G37*
D10*
X67825Y57658D02*
X62063Y57658D01*
X59182Y54777D01*
X62063Y51896D01*
X67825Y51896D01*
X67825Y43981D02*
X66385Y42541D01*
X67825Y43981D02*
X67825Y46862D01*
X66385Y48303D01*
X60623Y48303D01*
X59182Y46862D01*
X59182Y43981D01*
X60623Y42541D01*
X67825Y34626D02*
X66385Y33185D01*
X67825Y34626D02*
X67825Y37507D01*
X66385Y38948D01*
X60623Y38948D01*
X59182Y37507D01*
X59182Y34626D01*
X60623Y33185D01*
X62063Y272288D02*
X67825Y272288D01*
X62063Y272288D02*
X59182Y269407D01*
X62063Y266526D01*
X67825Y266526D01*
X67825Y258611D02*
X66385Y257171D01*
X67825Y258611D02*
X67825Y261492D01*
X66385Y262933D01*
X60623Y262933D01*
X59182Y261492D01*
X59182Y258611D01*
X60623Y257171D01*
X67825Y249256D02*
X66385Y247815D01*
X67825Y249256D02*
X67825Y252137D01*
X66385Y253578D01*
X60623Y253578D01*
X59182Y252137D01*
X59182Y249256D01*
X60623Y247815D01*
X93225Y53336D02*
X91785Y51896D01*
X93225Y53336D02*
X93225Y56217D01*
X91785Y57658D01*
X86023Y57658D01*
X84582Y56217D01*
X84582Y53336D01*
X86023Y51896D01*
X88904Y51896D01*
X88904Y54777D01*
X93225Y48303D02*
X84582Y48303D01*
X84582Y42541D02*
X93225Y48303D01*
X93225Y42541D02*
X84582Y42541D01*
X84582Y38948D02*
X93225Y38948D01*
X84582Y38948D02*
X84582Y34626D01*
X86023Y33185D01*
X91785Y33185D01*
X93225Y34626D01*
X93225Y38948D01*
X91785Y266526D02*
X93225Y267966D01*
X93225Y270847D01*
X91785Y272288D01*
X86023Y272288D01*
X84582Y270847D01*
X84582Y267966D01*
X86023Y266526D01*
X88904Y266526D01*
X88904Y269407D01*
X93225Y262933D02*
X84582Y262933D01*
X84582Y257171D02*
X93225Y262933D01*
X93225Y257171D02*
X84582Y257171D01*
X84582Y253578D02*
X93225Y253578D01*
X84582Y253578D02*
X84582Y249256D01*
X86023Y247815D01*
X91785Y247815D01*
X93225Y249256D01*
X93225Y253578D01*
X109982Y83058D02*
X118625Y77296D01*
X118625Y73703D02*
X109982Y73703D01*
X118625Y73703D02*
X118625Y69381D01*
X117185Y67941D01*
X114304Y67941D01*
X112863Y69381D01*
X112863Y73703D01*
X112863Y70822D02*
X109982Y67941D01*
X109982Y62907D02*
X109982Y60026D01*
X109982Y62907D02*
X111423Y64348D01*
X114304Y64348D01*
X115744Y62907D01*
X115744Y60026D01*
X114304Y58585D01*
X112863Y58585D01*
X112863Y64348D01*
X109982Y54992D02*
X109982Y50671D01*
X111423Y49230D01*
X112863Y50671D01*
X112863Y53552D01*
X114304Y54992D01*
X115744Y53552D01*
X115744Y49230D01*
X109982Y44197D02*
X109982Y41316D01*
X109982Y44197D02*
X111423Y45637D01*
X114304Y45637D01*
X115744Y44197D01*
X115744Y41316D01*
X114304Y39875D01*
X112863Y39875D01*
X112863Y45637D01*
X111423Y34842D02*
X117185Y34842D01*
X111423Y34842D02*
X109982Y33401D01*
X115744Y33401D02*
X115744Y36282D01*
X118625Y266526D02*
X109982Y272288D01*
X109982Y262933D02*
X118625Y262933D01*
X118625Y258611D01*
X117185Y257171D01*
X114304Y257171D01*
X112863Y258611D01*
X112863Y262933D01*
X112863Y260052D02*
X109982Y257171D01*
X109982Y252137D02*
X109982Y249256D01*
X109982Y252137D02*
X111423Y253578D01*
X114304Y253578D01*
X115744Y252137D01*
X115744Y249256D01*
X114304Y247815D01*
X112863Y247815D01*
X112863Y253578D01*
X109982Y244222D02*
X109982Y239901D01*
X111423Y238460D01*
X112863Y239901D01*
X112863Y242782D01*
X114304Y244222D01*
X115744Y242782D01*
X115744Y238460D01*
X109982Y233427D02*
X109982Y230546D01*
X109982Y233427D02*
X111423Y234867D01*
X114304Y234867D01*
X115744Y233427D01*
X115744Y230546D01*
X114304Y229105D01*
X112863Y229105D01*
X112863Y234867D01*
X111423Y224072D02*
X117185Y224072D01*
X111423Y224072D02*
X109982Y222631D01*
X115744Y222631D02*
X115744Y225512D01*
X135382Y57658D02*
X144025Y51896D01*
X144025Y46862D02*
X144025Y43981D01*
X144025Y46862D02*
X142585Y48303D01*
X136823Y48303D01*
X135382Y46862D01*
X135382Y43981D01*
X136823Y42541D01*
X142585Y42541D01*
X144025Y43981D01*
X144025Y38948D02*
X144025Y33185D01*
X144025Y38948D02*
X135382Y38948D01*
X135382Y33185D01*
X139704Y36067D02*
X139704Y38948D01*
X144025Y266526D02*
X135382Y272288D01*
X144025Y261492D02*
X144025Y258611D01*
X144025Y261492D02*
X142585Y262933D01*
X136823Y262933D01*
X135382Y261492D01*
X135382Y258611D01*
X136823Y257171D01*
X142585Y257171D01*
X144025Y258611D01*
X144025Y253578D02*
X144025Y247815D01*
X144025Y253578D02*
X135382Y253578D01*
X135382Y247815D01*
X139704Y250697D02*
X139704Y253578D01*
X169425Y67306D02*
X167985Y65866D01*
X169425Y67306D02*
X169425Y70187D01*
X167985Y71628D01*
X162223Y71628D01*
X160782Y70187D01*
X160782Y67306D01*
X162223Y65866D01*
X169425Y62273D02*
X169425Y60832D01*
X160782Y60832D01*
X160782Y59392D02*
X160782Y62273D01*
X160782Y54595D02*
X160782Y51714D01*
X162223Y50274D01*
X165104Y50274D01*
X166544Y51714D01*
X166544Y54595D01*
X165104Y56036D01*
X162223Y56036D01*
X160782Y54595D01*
X166544Y45240D02*
X166544Y40919D01*
X166544Y45240D02*
X165104Y46681D01*
X162223Y46681D01*
X160782Y45240D01*
X160782Y40919D01*
X160782Y37326D02*
X169425Y37326D01*
X163663Y37326D02*
X160782Y33004D01*
X163663Y37326D02*
X166544Y33004D01*
X167985Y266526D02*
X169425Y267966D01*
X169425Y270847D01*
X167985Y272288D01*
X162223Y272288D01*
X160782Y270847D01*
X160782Y267966D01*
X162223Y266526D01*
X169425Y262933D02*
X169425Y261492D01*
X160782Y261492D01*
X160782Y260052D02*
X160782Y262933D01*
X160782Y255255D02*
X160782Y252374D01*
X162223Y250934D01*
X165104Y250934D01*
X166544Y252374D01*
X166544Y255255D01*
X165104Y256696D01*
X162223Y256696D01*
X160782Y255255D01*
X166544Y245900D02*
X166544Y241579D01*
X166544Y245900D02*
X165104Y247341D01*
X162223Y247341D01*
X160782Y245900D01*
X160782Y241579D01*
X160782Y237986D02*
X169425Y237986D01*
X163663Y237986D02*
X160782Y233664D01*
X163663Y237986D02*
X166544Y233664D01*
X186182Y272288D02*
X194825Y272288D01*
X186182Y272288D02*
X186182Y266526D01*
X184741Y262933D02*
X184741Y257171D01*
X193385Y247815D02*
X194825Y249256D01*
X194825Y252137D01*
X193385Y253578D01*
X187623Y253578D01*
X186182Y252137D01*
X186182Y249256D01*
X187623Y247815D01*
X194825Y244222D02*
X194825Y242782D01*
X186182Y242782D01*
X186182Y244222D02*
X186182Y241341D01*
X186182Y236545D02*
X186182Y233664D01*
X187623Y232223D01*
X190504Y232223D01*
X191944Y233664D01*
X191944Y236545D01*
X190504Y237986D01*
X187623Y237986D01*
X186182Y236545D01*
X191944Y227190D02*
X191944Y222868D01*
X191944Y227190D02*
X190504Y228630D01*
X187623Y228630D01*
X186182Y227190D01*
X186182Y222868D01*
X186182Y219275D02*
X194825Y219275D01*
X189063Y219275D02*
X186182Y214954D01*
X189063Y219275D02*
X191944Y214954D01*
X194825Y90678D02*
X186182Y90678D01*
X186182Y84916D01*
X184741Y81323D02*
X184741Y75561D01*
X193385Y66205D02*
X194825Y67646D01*
X194825Y70527D01*
X193385Y71968D01*
X187623Y71968D01*
X186182Y70527D01*
X186182Y67646D01*
X187623Y66205D01*
X194825Y62612D02*
X194825Y61172D01*
X186182Y61172D01*
X186182Y62612D02*
X186182Y59731D01*
X186182Y54935D02*
X186182Y52054D01*
X187623Y50613D01*
X190504Y50613D01*
X191944Y52054D01*
X191944Y54935D01*
X190504Y56376D01*
X187623Y56376D01*
X186182Y54935D01*
X191944Y45580D02*
X191944Y41258D01*
X191944Y45580D02*
X190504Y47020D01*
X187623Y47020D01*
X186182Y45580D01*
X186182Y41258D01*
X186182Y37665D02*
X194825Y37665D01*
X189063Y37665D02*
X186182Y33344D01*
X189063Y37665D02*
X191944Y33344D01*
X218785Y266526D02*
X220225Y267966D01*
X220225Y270847D01*
X218785Y272288D01*
X217344Y272288D01*
X215904Y270847D01*
X215904Y267966D01*
X214463Y266526D01*
X213023Y266526D01*
X211582Y267966D01*
X211582Y270847D01*
X213023Y272288D01*
X220225Y262933D02*
X220225Y257171D01*
X220225Y262933D02*
X211582Y262933D01*
X211582Y257171D01*
X215904Y260052D02*
X215904Y262933D01*
X220225Y253578D02*
X211582Y253578D01*
X220225Y253578D02*
X220225Y249256D01*
X218785Y247815D01*
X215904Y247815D01*
X214463Y249256D01*
X214463Y253578D01*
X214463Y250697D02*
X211582Y247815D01*
X210141Y244222D02*
X210141Y238460D01*
X211582Y234867D02*
X211582Y231986D01*
X211582Y233427D02*
X220225Y233427D01*
X220225Y234867D02*
X220225Y231986D01*
X220225Y228630D02*
X211582Y228630D01*
X211582Y222868D02*
X220225Y228630D01*
X220225Y222868D02*
X211582Y222868D01*
X220225Y90166D02*
X218785Y88726D01*
X220225Y90166D02*
X220225Y93047D01*
X218785Y94488D01*
X217344Y94488D01*
X215904Y93047D01*
X215904Y90166D01*
X214463Y88726D01*
X213023Y88726D01*
X211582Y90166D01*
X211582Y93047D01*
X213023Y94488D01*
X220225Y85133D02*
X220225Y79371D01*
X220225Y85133D02*
X211582Y85133D01*
X211582Y79371D01*
X215904Y82252D02*
X215904Y85133D01*
X220225Y75778D02*
X211582Y75778D01*
X220225Y75778D02*
X220225Y71456D01*
X218785Y70015D01*
X215904Y70015D01*
X214463Y71456D01*
X214463Y75778D01*
X214463Y72897D02*
X211582Y70015D01*
X210141Y66422D02*
X210141Y60660D01*
X220225Y55627D02*
X220225Y52746D01*
X220225Y55627D02*
X218785Y57067D01*
X213023Y57067D01*
X211582Y55627D01*
X211582Y52746D01*
X213023Y51305D01*
X218785Y51305D01*
X220225Y52746D01*
X220225Y47712D02*
X213023Y47712D01*
X211582Y46272D01*
X211582Y43390D01*
X213023Y41950D01*
X220225Y41950D01*
X220225Y35476D02*
X211582Y35476D01*
X220225Y38357D02*
X220225Y32595D01*
X32512Y236982D02*
X32512Y242744D01*
X35393Y245625D01*
X38274Y242744D01*
X38274Y236982D01*
X38274Y241304D02*
X32512Y241304D01*
X32512Y220225D02*
X32512Y211582D01*
X32512Y220225D02*
X36834Y220225D01*
X38274Y218785D01*
X38274Y217344D01*
X36834Y215904D01*
X38274Y214463D01*
X38274Y213023D01*
X36834Y211582D01*
X32512Y211582D01*
X32512Y215904D02*
X36834Y215904D01*
X36834Y194825D02*
X38274Y193385D01*
X36834Y194825D02*
X33953Y194825D01*
X32512Y193385D01*
X32512Y187623D01*
X33953Y186182D01*
X36834Y186182D01*
X38274Y187623D01*
X32512Y169425D02*
X32512Y160782D01*
X36834Y160782D01*
X38274Y162223D01*
X38274Y167985D01*
X36834Y169425D01*
X32512Y169425D01*
X32512Y144025D02*
X38274Y144025D01*
X32512Y144025D02*
X32512Y135382D01*
X38274Y135382D01*
X35393Y139704D02*
X32512Y139704D01*
X32512Y118625D02*
X32512Y109982D01*
X32512Y118625D02*
X38274Y118625D01*
X35393Y114304D02*
X32512Y114304D01*
X36834Y93225D02*
X38274Y91785D01*
X36834Y93225D02*
X33953Y93225D01*
X32512Y91785D01*
X32512Y86023D01*
X33953Y84582D01*
X36834Y84582D01*
X38274Y86023D01*
X38274Y88904D01*
X35393Y88904D01*
X32512Y67825D02*
X32512Y59182D01*
X32512Y63504D02*
X38274Y63504D01*
X38274Y67825D02*
X38274Y59182D01*
D11*
X71383Y183636D02*
X71383Y190754D01*
X71383Y183636D02*
X69604Y183636D01*
X62486Y190754D01*
X60706Y190754D01*
X60706Y173721D02*
X71383Y173721D01*
X66045Y179060D01*
X66045Y171942D01*
X71383Y167366D02*
X60706Y167366D01*
X66045Y167366D02*
X66045Y160248D01*
X71383Y160248D02*
X60706Y160248D01*
X71383Y150334D02*
X69604Y148554D01*
X71383Y150334D02*
X71383Y153893D01*
X69604Y155672D01*
X62486Y155672D01*
X60706Y153893D01*
X60706Y150334D01*
X62486Y148554D01*
X71383Y143978D02*
X71383Y136860D01*
X71383Y143978D02*
X66045Y143978D01*
X67824Y140419D01*
X67824Y138640D01*
X66045Y136860D01*
X62486Y136860D01*
X60706Y138640D01*
X60706Y142199D01*
X62486Y143978D01*
X62486Y132284D02*
X60706Y130505D01*
X60706Y126946D01*
X62486Y125166D01*
X69604Y125166D01*
X71383Y126946D01*
X71383Y130505D01*
X69604Y132284D01*
X67824Y132284D01*
X66045Y130505D01*
X66045Y125166D01*
X71383Y120590D02*
X71383Y113472D01*
X71383Y120590D02*
X66045Y120590D01*
X67824Y117031D01*
X67824Y115252D01*
X66045Y113472D01*
X62486Y113472D01*
X60706Y115252D01*
X60706Y118811D01*
X62486Y120590D01*
D10*
X146558Y105410D02*
X146558Y199390D01*
X107442Y105410D02*
X107444Y105288D01*
X107450Y105166D01*
X107460Y105044D01*
X107473Y104923D01*
X107491Y104802D01*
X107512Y104682D01*
X107538Y104562D01*
X107567Y104444D01*
X107599Y104326D01*
X107636Y104209D01*
X107676Y104094D01*
X107720Y103980D01*
X107768Y103868D01*
X107819Y103757D01*
X107874Y103648D01*
X107932Y103540D01*
X107994Y103435D01*
X108059Y103332D01*
X108127Y103230D01*
X108199Y103131D01*
X108273Y103035D01*
X108351Y102940D01*
X108432Y102849D01*
X108515Y102759D01*
X108601Y102673D01*
X108691Y102590D01*
X108782Y102509D01*
X108877Y102431D01*
X108973Y102357D01*
X109072Y102285D01*
X109174Y102217D01*
X109277Y102152D01*
X109382Y102090D01*
X109490Y102032D01*
X109599Y101977D01*
X109710Y101926D01*
X109822Y101878D01*
X109936Y101834D01*
X110051Y101794D01*
X110168Y101757D01*
X110286Y101725D01*
X110404Y101696D01*
X110524Y101670D01*
X110644Y101649D01*
X110765Y101631D01*
X110886Y101618D01*
X111008Y101608D01*
X111130Y101602D01*
X111252Y101600D01*
X146558Y199390D02*
X146556Y199512D01*
X146550Y199634D01*
X146540Y199756D01*
X146527Y199877D01*
X146509Y199998D01*
X146488Y200118D01*
X146462Y200238D01*
X146433Y200356D01*
X146401Y200474D01*
X146364Y200591D01*
X146324Y200706D01*
X146280Y200820D01*
X146232Y200932D01*
X146181Y201043D01*
X146126Y201152D01*
X146068Y201260D01*
X146006Y201365D01*
X145941Y201468D01*
X145873Y201570D01*
X145801Y201669D01*
X145727Y201765D01*
X145649Y201860D01*
X145568Y201951D01*
X145485Y202041D01*
X145399Y202127D01*
X145309Y202210D01*
X145218Y202291D01*
X145123Y202369D01*
X145027Y202443D01*
X144928Y202515D01*
X144826Y202583D01*
X144723Y202648D01*
X144618Y202710D01*
X144510Y202768D01*
X144401Y202823D01*
X144290Y202874D01*
X144178Y202922D01*
X144064Y202966D01*
X143949Y203006D01*
X143832Y203043D01*
X143714Y203075D01*
X143596Y203104D01*
X143476Y203130D01*
X143356Y203151D01*
X143235Y203169D01*
X143114Y203182D01*
X142992Y203192D01*
X142870Y203198D01*
X142748Y203200D01*
X146558Y105410D02*
X146556Y105288D01*
X146550Y105166D01*
X146540Y105044D01*
X146527Y104923D01*
X146509Y104802D01*
X146488Y104682D01*
X146462Y104562D01*
X146433Y104444D01*
X146401Y104326D01*
X146364Y104209D01*
X146324Y104094D01*
X146280Y103980D01*
X146232Y103868D01*
X146181Y103757D01*
X146126Y103648D01*
X146068Y103540D01*
X146006Y103435D01*
X145941Y103332D01*
X145873Y103230D01*
X145801Y103131D01*
X145727Y103035D01*
X145649Y102940D01*
X145568Y102849D01*
X145485Y102759D01*
X145399Y102673D01*
X145309Y102590D01*
X145218Y102509D01*
X145123Y102431D01*
X145027Y102357D01*
X144928Y102285D01*
X144826Y102217D01*
X144723Y102152D01*
X144618Y102090D01*
X144510Y102032D01*
X144401Y101977D01*
X144290Y101926D01*
X144178Y101878D01*
X144064Y101834D01*
X143949Y101794D01*
X143832Y101757D01*
X143714Y101725D01*
X143596Y101696D01*
X143476Y101670D01*
X143356Y101649D01*
X143235Y101631D01*
X143114Y101618D01*
X142992Y101608D01*
X142870Y101602D01*
X142748Y101600D01*
X107442Y199390D02*
X107444Y199512D01*
X107450Y199634D01*
X107460Y199756D01*
X107473Y199877D01*
X107491Y199998D01*
X107512Y200118D01*
X107538Y200238D01*
X107567Y200356D01*
X107599Y200474D01*
X107636Y200591D01*
X107676Y200706D01*
X107720Y200820D01*
X107768Y200932D01*
X107819Y201043D01*
X107874Y201152D01*
X107932Y201260D01*
X107994Y201365D01*
X108059Y201468D01*
X108127Y201570D01*
X108199Y201669D01*
X108273Y201765D01*
X108351Y201860D01*
X108432Y201951D01*
X108515Y202041D01*
X108601Y202127D01*
X108691Y202210D01*
X108782Y202291D01*
X108877Y202369D01*
X108973Y202443D01*
X109072Y202515D01*
X109174Y202583D01*
X109277Y202648D01*
X109382Y202710D01*
X109490Y202768D01*
X109599Y202823D01*
X109710Y202874D01*
X109822Y202922D01*
X109936Y202966D01*
X110051Y203006D01*
X110168Y203043D01*
X110286Y203075D01*
X110404Y203104D01*
X110524Y203130D01*
X110644Y203151D01*
X110765Y203169D01*
X110886Y203182D01*
X111008Y203192D01*
X111130Y203198D01*
X111252Y203200D01*
X107442Y199390D02*
X107442Y105410D01*
X111252Y101600D02*
X142748Y101600D01*
X142748Y203200D02*
X132080Y203200D01*
X121920Y203200D01*
X111252Y203200D01*
X121920Y203200D02*
X121922Y203059D01*
X121928Y202918D01*
X121938Y202777D01*
X121951Y202636D01*
X121969Y202496D01*
X121991Y202357D01*
X122016Y202218D01*
X122045Y202079D01*
X122078Y201942D01*
X122115Y201806D01*
X122156Y201671D01*
X122200Y201536D01*
X122248Y201404D01*
X122300Y201272D01*
X122355Y201142D01*
X122414Y201014D01*
X122477Y200887D01*
X122543Y200763D01*
X122612Y200640D01*
X122685Y200519D01*
X122761Y200400D01*
X122841Y200283D01*
X122924Y200169D01*
X123009Y200056D01*
X123098Y199947D01*
X123190Y199839D01*
X123285Y199735D01*
X123383Y199633D01*
X123484Y199534D01*
X123587Y199437D01*
X123693Y199344D01*
X123801Y199254D01*
X123912Y199166D01*
X124025Y199082D01*
X124141Y199001D01*
X124259Y198923D01*
X124379Y198848D01*
X124501Y198777D01*
X124625Y198709D01*
X124751Y198645D01*
X124878Y198584D01*
X125007Y198527D01*
X125138Y198474D01*
X125270Y198424D01*
X125403Y198377D01*
X125538Y198335D01*
X125674Y198296D01*
X125811Y198261D01*
X125948Y198230D01*
X126087Y198203D01*
X126226Y198179D01*
X126366Y198160D01*
X126506Y198144D01*
X126647Y198132D01*
X126788Y198124D01*
X126929Y198120D01*
X127071Y198120D01*
X127212Y198124D01*
X127353Y198132D01*
X127494Y198144D01*
X127634Y198160D01*
X127774Y198179D01*
X127913Y198203D01*
X128052Y198230D01*
X128189Y198261D01*
X128326Y198296D01*
X128462Y198335D01*
X128597Y198377D01*
X128730Y198424D01*
X128862Y198474D01*
X128993Y198527D01*
X129122Y198584D01*
X129249Y198645D01*
X129375Y198709D01*
X129499Y198777D01*
X129621Y198848D01*
X129741Y198923D01*
X129859Y199001D01*
X129975Y199082D01*
X130088Y199166D01*
X130199Y199254D01*
X130307Y199344D01*
X130413Y199437D01*
X130516Y199534D01*
X130617Y199633D01*
X130715Y199735D01*
X130810Y199839D01*
X130902Y199947D01*
X130991Y200056D01*
X131076Y200169D01*
X131159Y200283D01*
X131239Y200400D01*
X131315Y200519D01*
X131388Y200640D01*
X131457Y200763D01*
X131523Y200887D01*
X131586Y201014D01*
X131645Y201142D01*
X131700Y201272D01*
X131752Y201404D01*
X131800Y201536D01*
X131844Y201671D01*
X131885Y201806D01*
X131922Y201942D01*
X131955Y202079D01*
X131984Y202218D01*
X132009Y202357D01*
X132031Y202496D01*
X132049Y202636D01*
X132062Y202777D01*
X132072Y202918D01*
X132078Y203059D01*
X132080Y203200D01*
D12*
X110998Y203200D02*
X110998Y101600D01*
D13*
X109855Y209552D02*
X109855Y219085D01*
X109855Y209552D02*
X111762Y207645D01*
X115575Y207645D01*
X117482Y209552D01*
X117482Y219085D01*
X121549Y215272D02*
X125362Y219085D01*
X125362Y207645D01*
X121549Y207645D02*
X129175Y207645D01*
D11*
X25400Y95250D02*
X25400Y82550D01*
X19050Y76200D01*
X6350Y76200D02*
X0Y82550D01*
X25400Y120650D02*
X19050Y127000D01*
X25400Y120650D02*
X25400Y107950D01*
X19050Y101600D01*
X6350Y101600D02*
X0Y107950D01*
X0Y120650D01*
X6350Y127000D01*
X19050Y101600D02*
X25400Y95250D01*
X6350Y101600D02*
X0Y95250D01*
X0Y82550D01*
X25400Y158750D02*
X25400Y171450D01*
X25400Y158750D02*
X19050Y152400D01*
X6350Y152400D02*
X0Y158750D01*
X19050Y152400D02*
X25400Y146050D01*
X25400Y133350D01*
X19050Y127000D01*
X6350Y127000D02*
X0Y133350D01*
X0Y146050D01*
X6350Y152400D01*
X25400Y196850D02*
X19050Y203200D01*
X25400Y196850D02*
X25400Y184150D01*
X19050Y177800D01*
X6350Y177800D02*
X0Y184150D01*
X0Y196850D01*
X6350Y203200D01*
X19050Y177800D02*
X25400Y171450D01*
X6350Y177800D02*
X0Y171450D01*
X0Y158750D01*
X25400Y234950D02*
X25400Y247650D01*
X25400Y234950D02*
X19050Y228600D01*
X6350Y228600D02*
X0Y234950D01*
X19050Y228600D02*
X25400Y222250D01*
X25400Y209550D01*
X19050Y203200D01*
X6350Y203200D02*
X0Y209550D01*
X0Y222250D01*
X6350Y228600D01*
X6350Y254000D02*
X19050Y254000D01*
X25400Y247650D01*
X6350Y254000D02*
X0Y247650D01*
X0Y234950D01*
X25400Y69850D02*
X25400Y57150D01*
X19050Y50800D01*
X6350Y50800D01*
X0Y57150D01*
X19050Y76200D02*
X25400Y69850D01*
X6350Y76200D02*
X0Y69850D01*
X0Y57150D01*
D13*
X41146Y220315D02*
X43053Y222222D01*
X43053Y224128D01*
X41146Y226035D01*
X31613Y226035D01*
X31613Y224128D02*
X31613Y227942D01*
X31613Y232009D02*
X43053Y232009D01*
X31613Y232009D02*
X31613Y237729D01*
X33520Y239636D01*
X37333Y239636D01*
X39240Y237729D01*
X39240Y232009D01*
X35427Y243703D02*
X31613Y247516D01*
X43053Y247516D01*
X43053Y243703D02*
X43053Y251329D01*
D11*
X209550Y304800D02*
X222250Y304800D01*
X228600Y298450D01*
X228600Y285750D02*
X222250Y279400D01*
X184150Y304800D02*
X177800Y298450D01*
X184150Y304800D02*
X196850Y304800D01*
X203200Y298450D01*
X203200Y285750D02*
X196850Y279400D01*
X184150Y279400D01*
X177800Y285750D01*
X203200Y298450D02*
X209550Y304800D01*
X203200Y285750D02*
X209550Y279400D01*
X222250Y279400D01*
X146050Y304800D02*
X133350Y304800D01*
X146050Y304800D02*
X152400Y298450D01*
X152400Y285750D02*
X146050Y279400D01*
X152400Y298450D02*
X158750Y304800D01*
X171450Y304800D01*
X177800Y298450D01*
X177800Y285750D02*
X171450Y279400D01*
X158750Y279400D01*
X152400Y285750D01*
X107950Y304800D02*
X101600Y298450D01*
X107950Y304800D02*
X120650Y304800D01*
X127000Y298450D01*
X127000Y285750D02*
X120650Y279400D01*
X107950Y279400D01*
X101600Y285750D01*
X127000Y298450D02*
X133350Y304800D01*
X127000Y285750D02*
X133350Y279400D01*
X146050Y279400D01*
X69850Y304800D02*
X57150Y304800D01*
X69850Y304800D02*
X76200Y298450D01*
X76200Y285750D02*
X69850Y279400D01*
X76200Y298450D02*
X82550Y304800D01*
X95250Y304800D01*
X101600Y298450D01*
X101600Y285750D02*
X95250Y279400D01*
X82550Y279400D01*
X76200Y285750D01*
X50800Y285750D02*
X50800Y298450D01*
X57150Y304800D01*
X50800Y285750D02*
X57150Y279400D01*
X69850Y279400D01*
X228600Y285750D02*
X228600Y298450D01*
D13*
X52580Y311023D02*
X50673Y312930D01*
X52580Y311023D02*
X54486Y311023D01*
X56393Y312930D01*
X56393Y322463D01*
X54486Y322463D02*
X58300Y322463D01*
X62367Y322463D02*
X62367Y311023D01*
X62367Y322463D02*
X68087Y322463D01*
X69993Y320556D01*
X69993Y316743D01*
X68087Y314836D01*
X62367Y314836D01*
X74061Y311023D02*
X81687Y311023D01*
X74061Y311023D02*
X81687Y318650D01*
X81687Y320556D01*
X79781Y322463D01*
X75968Y322463D01*
X74061Y320556D01*
D11*
X209550Y25400D02*
X222250Y25400D01*
X228600Y19050D01*
X228600Y6350D02*
X222250Y0D01*
X184150Y25400D02*
X177800Y19050D01*
X184150Y25400D02*
X196850Y25400D01*
X203200Y19050D01*
X203200Y6350D02*
X196850Y0D01*
X184150Y0D01*
X177800Y6350D01*
X203200Y19050D02*
X209550Y25400D01*
X203200Y6350D02*
X209550Y0D01*
X222250Y0D01*
X146050Y25400D02*
X133350Y25400D01*
X146050Y25400D02*
X152400Y19050D01*
X152400Y6350D02*
X146050Y0D01*
X152400Y19050D02*
X158750Y25400D01*
X171450Y25400D01*
X177800Y19050D01*
X177800Y6350D02*
X171450Y0D01*
X158750Y0D01*
X152400Y6350D01*
X107950Y25400D02*
X101600Y19050D01*
X107950Y25400D02*
X120650Y25400D01*
X127000Y19050D01*
X127000Y6350D02*
X120650Y0D01*
X107950Y0D01*
X101600Y6350D01*
X127000Y19050D02*
X133350Y25400D01*
X127000Y6350D02*
X133350Y0D01*
X146050Y0D01*
X69850Y25400D02*
X57150Y25400D01*
X69850Y25400D02*
X76200Y19050D01*
X76200Y6350D02*
X69850Y0D01*
X76200Y19050D02*
X82550Y25400D01*
X95250Y25400D01*
X101600Y19050D01*
X101600Y6350D02*
X95250Y0D01*
X82550Y0D01*
X76200Y6350D01*
X50800Y6350D02*
X50800Y19050D01*
X57150Y25400D01*
X50800Y6350D02*
X57150Y0D01*
X69850Y0D01*
X228600Y6350D02*
X228600Y19050D01*
D13*
X52580Y31623D02*
X50673Y33530D01*
X52580Y31623D02*
X54486Y31623D01*
X56393Y33530D01*
X56393Y43063D01*
X54486Y43063D02*
X58300Y43063D01*
X62367Y43063D02*
X62367Y31623D01*
X62367Y43063D02*
X68087Y43063D01*
X69993Y41156D01*
X69993Y37343D01*
X68087Y35436D01*
X62367Y35436D01*
X74061Y41156D02*
X75968Y43063D01*
X79781Y43063D01*
X81687Y41156D01*
X81687Y39250D01*
X79781Y37343D01*
X77874Y37343D01*
X79781Y37343D02*
X81687Y35436D01*
X81687Y33530D01*
X79781Y31623D01*
X75968Y31623D01*
X74061Y33530D01*
M02*
