G04 EAGLE Gerber RS-274X export*
G75*
%MOMM*%
%FSLAX34Y34*%
%LPD*%
%INTop Copper*%
%IPPOS*%
%AMOC8*
5,1,8,0,0,1.08239X$1,22.5*%
G01*
%ADD10R,1.240000X1.500000*%
%ADD11R,0.550000X1.200000*%
%ADD12R,1.000000X1.075000*%
%ADD13R,0.450000X0.900000*%
%ADD14R,0.500000X0.500000*%
%ADD15R,0.500000X0.400000*%
%ADD16C,1.778000*%
%ADD17C,3.516000*%
%ADD18R,1.550000X0.600000*%
%ADD19R,1.800000X1.200000*%
%ADD20C,1.000000*%
%ADD21R,0.800000X0.800000*%
%ADD22R,0.550000X0.250000*%
%ADD23R,1.075000X1.000000*%
%ADD24C,0.406400*%
%ADD25C,0.906400*%
%ADD26C,0.254000*%
%ADD27C,0.889000*%
%ADD28C,0.304800*%

G36*
X228622Y2543D02*
X228622Y2543D01*
X228700Y2545D01*
X232077Y2810D01*
X232145Y2824D01*
X232214Y2829D01*
X232370Y2869D01*
X238794Y4956D01*
X238901Y5006D01*
X239012Y5050D01*
X239063Y5083D01*
X239082Y5091D01*
X239097Y5104D01*
X239148Y5136D01*
X244612Y9107D01*
X244699Y9188D01*
X244746Y9227D01*
X244752Y9231D01*
X244753Y9233D01*
X244791Y9264D01*
X244829Y9310D01*
X244844Y9324D01*
X244855Y9341D01*
X244893Y9387D01*
X246586Y11717D01*
X246599Y11741D01*
X246616Y11761D01*
X246675Y11879D01*
X246739Y11996D01*
X246746Y12022D01*
X246758Y12046D01*
X246785Y12174D01*
X246799Y12185D01*
X246823Y12196D01*
X246925Y12281D01*
X247031Y12361D01*
X247048Y12382D01*
X247068Y12398D01*
X247171Y12522D01*
X248864Y14852D01*
X248921Y14956D01*
X248985Y15056D01*
X249007Y15113D01*
X249017Y15131D01*
X249022Y15151D01*
X249044Y15206D01*
X251131Y21630D01*
X251144Y21698D01*
X251167Y21764D01*
X251190Y21923D01*
X251455Y25300D01*
X251455Y25304D01*
X251456Y25307D01*
X251455Y25326D01*
X251459Y25400D01*
X251459Y51598D01*
X251444Y51716D01*
X251437Y51835D01*
X251424Y51873D01*
X251419Y51914D01*
X251376Y52024D01*
X251339Y52137D01*
X251317Y52172D01*
X251302Y52209D01*
X251233Y52305D01*
X251169Y52406D01*
X251139Y52434D01*
X251116Y52467D01*
X251024Y52543D01*
X250937Y52624D01*
X250902Y52644D01*
X250871Y52669D01*
X250763Y52720D01*
X250659Y52778D01*
X250619Y52788D01*
X250583Y52805D01*
X250466Y52827D01*
X250351Y52857D01*
X250291Y52861D01*
X250271Y52865D01*
X250250Y52863D01*
X250190Y52867D01*
X232618Y52867D01*
X231427Y54058D01*
X231427Y67742D01*
X232618Y68933D01*
X250190Y68933D01*
X250308Y68948D01*
X250427Y68955D01*
X250465Y68968D01*
X250506Y68973D01*
X250616Y69016D01*
X250729Y69053D01*
X250764Y69075D01*
X250801Y69090D01*
X250897Y69159D01*
X250998Y69223D01*
X251026Y69253D01*
X251059Y69276D01*
X251135Y69368D01*
X251216Y69455D01*
X251236Y69490D01*
X251261Y69521D01*
X251312Y69629D01*
X251370Y69733D01*
X251380Y69773D01*
X251397Y69809D01*
X251419Y69926D01*
X251449Y70041D01*
X251453Y70101D01*
X251457Y70121D01*
X251455Y70142D01*
X251459Y70202D01*
X251459Y107598D01*
X251444Y107716D01*
X251437Y107835D01*
X251424Y107873D01*
X251419Y107914D01*
X251376Y108024D01*
X251339Y108137D01*
X251317Y108172D01*
X251302Y108209D01*
X251233Y108305D01*
X251169Y108406D01*
X251139Y108434D01*
X251116Y108467D01*
X251024Y108543D01*
X250937Y108624D01*
X250902Y108644D01*
X250871Y108669D01*
X250763Y108720D01*
X250659Y108778D01*
X250619Y108788D01*
X250583Y108805D01*
X250466Y108827D01*
X250351Y108857D01*
X250291Y108861D01*
X250271Y108865D01*
X250250Y108863D01*
X250190Y108867D01*
X236474Y108867D01*
X236356Y108852D01*
X236237Y108845D01*
X236199Y108832D01*
X236158Y108827D01*
X236048Y108784D01*
X235935Y108747D01*
X235900Y108725D01*
X235863Y108710D01*
X235767Y108641D01*
X235666Y108577D01*
X235638Y108547D01*
X235605Y108524D01*
X235529Y108432D01*
X235448Y108345D01*
X235428Y108310D01*
X235403Y108279D01*
X235352Y108171D01*
X235294Y108067D01*
X235284Y108027D01*
X235267Y107991D01*
X235245Y107874D01*
X235215Y107759D01*
X235211Y107699D01*
X235207Y107679D01*
X235209Y107658D01*
X235205Y107598D01*
X235205Y88486D01*
X226554Y79835D01*
X214647Y79835D01*
X214516Y79819D01*
X214384Y79808D01*
X214359Y79799D01*
X214332Y79795D01*
X214209Y79747D01*
X214084Y79703D01*
X214061Y79688D01*
X214036Y79678D01*
X213929Y79601D01*
X213819Y79527D01*
X213801Y79507D01*
X213779Y79492D01*
X213694Y79389D01*
X213606Y79291D01*
X213593Y79267D01*
X213576Y79247D01*
X213520Y79127D01*
X213458Y79009D01*
X213452Y78983D01*
X213441Y78959D01*
X213416Y78829D01*
X213385Y78700D01*
X213386Y78673D01*
X213381Y78647D01*
X213389Y78515D01*
X213392Y78382D01*
X213399Y78356D01*
X213401Y78329D01*
X213441Y78203D01*
X213477Y78076D01*
X213494Y78041D01*
X213499Y78027D01*
X213510Y78008D01*
X213548Y77931D01*
X213578Y77881D01*
X213751Y77234D01*
X213751Y75399D01*
X203690Y75399D01*
X203572Y75384D01*
X203453Y75377D01*
X203415Y75364D01*
X203375Y75359D01*
X203264Y75316D01*
X203151Y75279D01*
X203117Y75257D01*
X203079Y75242D01*
X202983Y75173D01*
X202882Y75109D01*
X202854Y75079D01*
X202822Y75056D01*
X202746Y74964D01*
X202664Y74877D01*
X202645Y74842D01*
X202619Y74811D01*
X202599Y74768D01*
X202522Y74712D01*
X202422Y74649D01*
X202394Y74619D01*
X202361Y74595D01*
X202285Y74504D01*
X202204Y74417D01*
X202184Y74382D01*
X202159Y74350D01*
X202108Y74243D01*
X202050Y74138D01*
X202040Y74099D01*
X202023Y74063D01*
X202001Y73946D01*
X201971Y73830D01*
X201967Y73770D01*
X201963Y73750D01*
X201965Y73730D01*
X201961Y73670D01*
X201961Y68359D01*
X195376Y68359D01*
X194722Y68534D01*
X194615Y68580D01*
X194495Y68636D01*
X194468Y68641D01*
X194444Y68651D01*
X194312Y68671D01*
X194182Y68696D01*
X194156Y68694D01*
X194129Y68698D01*
X193997Y68684D01*
X193865Y68676D01*
X193839Y68668D01*
X193813Y68665D01*
X193688Y68619D01*
X193563Y68578D01*
X193540Y68564D01*
X193514Y68554D01*
X193406Y68479D01*
X193294Y68408D01*
X193275Y68388D01*
X193253Y68373D01*
X193167Y68273D01*
X193076Y68176D01*
X193063Y68152D01*
X193045Y68132D01*
X192986Y68014D01*
X192922Y67898D01*
X192916Y67872D01*
X192904Y67847D01*
X192876Y67718D01*
X192843Y67590D01*
X192841Y67552D01*
X192837Y67536D01*
X192838Y67515D01*
X192833Y67429D01*
X192833Y66242D01*
X184248Y57657D01*
X161192Y57657D01*
X158898Y59952D01*
X158803Y60025D01*
X158714Y60103D01*
X158678Y60122D01*
X158646Y60147D01*
X158537Y60194D01*
X158431Y60248D01*
X158392Y60257D01*
X158354Y60273D01*
X158237Y60292D01*
X158121Y60318D01*
X158080Y60317D01*
X158040Y60323D01*
X157922Y60312D01*
X157803Y60308D01*
X157764Y60297D01*
X157724Y60293D01*
X157611Y60253D01*
X157497Y60220D01*
X157463Y60199D01*
X157424Y60185D01*
X157326Y60119D01*
X157223Y60058D01*
X157178Y60018D01*
X157161Y60007D01*
X157148Y59992D01*
X157103Y59952D01*
X156078Y58927D01*
X152557Y58927D01*
X152459Y58915D01*
X152360Y58912D01*
X152302Y58895D01*
X152241Y58887D01*
X152149Y58851D01*
X152054Y58823D01*
X152002Y58793D01*
X151946Y58770D01*
X151866Y58712D01*
X151780Y58662D01*
X151705Y58596D01*
X151688Y58584D01*
X151681Y58574D01*
X151659Y58556D01*
X149724Y56621D01*
X149664Y56542D01*
X149596Y56470D01*
X149567Y56417D01*
X149530Y56369D01*
X149490Y56278D01*
X149442Y56192D01*
X149427Y56133D01*
X149403Y56077D01*
X149388Y55979D01*
X149363Y55884D01*
X149357Y55784D01*
X149353Y55763D01*
X149355Y55751D01*
X149353Y55723D01*
X149353Y30891D01*
X149354Y30882D01*
X149353Y30873D01*
X149374Y30724D01*
X149393Y30576D01*
X149396Y30567D01*
X149397Y30558D01*
X149449Y30405D01*
X150623Y27573D01*
X150623Y23227D01*
X148960Y19213D01*
X145887Y16140D01*
X145319Y15905D01*
X145258Y15870D01*
X145193Y15844D01*
X145120Y15792D01*
X145042Y15747D01*
X144992Y15699D01*
X144936Y15658D01*
X144878Y15588D01*
X144814Y15526D01*
X144777Y15466D01*
X144733Y15413D01*
X144695Y15331D01*
X144648Y15255D01*
X144627Y15188D01*
X144597Y15125D01*
X144580Y15037D01*
X144554Y14951D01*
X144551Y14881D01*
X144538Y14812D01*
X144543Y14723D01*
X144539Y14633D01*
X144553Y14565D01*
X144557Y14495D01*
X144585Y14410D01*
X144603Y14322D01*
X144634Y14259D01*
X144655Y14193D01*
X144703Y14117D01*
X144743Y14036D01*
X144788Y13983D01*
X144826Y13924D01*
X144891Y13862D01*
X144949Y13794D01*
X145006Y13754D01*
X145057Y13706D01*
X145136Y13663D01*
X145209Y13611D01*
X145275Y13586D01*
X145336Y13552D01*
X145422Y13530D01*
X145507Y13498D01*
X145576Y13490D01*
X145644Y13473D01*
X145804Y13463D01*
X158996Y13463D01*
X159065Y13471D01*
X159135Y13470D01*
X159222Y13491D01*
X159311Y13503D01*
X159376Y13528D01*
X159444Y13545D01*
X159523Y13587D01*
X159607Y13620D01*
X159663Y13661D01*
X159725Y13693D01*
X159792Y13754D01*
X159864Y13806D01*
X159909Y13860D01*
X159960Y13907D01*
X160010Y13982D01*
X160067Y14051D01*
X160097Y14115D01*
X160135Y14173D01*
X160164Y14258D01*
X160203Y14339D01*
X160216Y14408D01*
X160238Y14474D01*
X160246Y14563D01*
X160262Y14651D01*
X160258Y14721D01*
X160264Y14791D01*
X160248Y14879D01*
X160243Y14969D01*
X160221Y15035D01*
X160209Y15104D01*
X160172Y15186D01*
X160145Y15271D01*
X160107Y15330D01*
X160079Y15394D01*
X160023Y15464D01*
X159974Y15540D01*
X159924Y15588D01*
X159880Y15642D01*
X159808Y15697D01*
X159743Y15758D01*
X159682Y15792D01*
X159626Y15834D01*
X159481Y15905D01*
X158913Y16140D01*
X155840Y19213D01*
X154177Y23227D01*
X154177Y27573D01*
X155840Y31587D01*
X158913Y34660D01*
X162927Y36323D01*
X167273Y36323D01*
X171287Y34660D01*
X174360Y31587D01*
X176023Y27573D01*
X176023Y23227D01*
X174360Y19213D01*
X171287Y16140D01*
X170719Y15905D01*
X170658Y15870D01*
X170593Y15844D01*
X170520Y15792D01*
X170442Y15747D01*
X170392Y15699D01*
X170336Y15658D01*
X170278Y15588D01*
X170214Y15526D01*
X170177Y15466D01*
X170133Y15413D01*
X170095Y15331D01*
X170048Y15255D01*
X170027Y15188D01*
X169997Y15125D01*
X169980Y15037D01*
X169954Y14951D01*
X169951Y14881D01*
X169938Y14812D01*
X169943Y14723D01*
X169939Y14633D01*
X169953Y14565D01*
X169957Y14495D01*
X169985Y14410D01*
X170003Y14322D01*
X170034Y14259D01*
X170055Y14193D01*
X170103Y14117D01*
X170143Y14036D01*
X170188Y13983D01*
X170226Y13924D01*
X170291Y13862D01*
X170349Y13794D01*
X170406Y13754D01*
X170457Y13706D01*
X170536Y13663D01*
X170609Y13611D01*
X170675Y13586D01*
X170736Y13552D01*
X170822Y13530D01*
X170907Y13498D01*
X170976Y13490D01*
X171044Y13473D01*
X171204Y13463D01*
X178446Y13463D01*
X178544Y13475D01*
X178643Y13478D01*
X178702Y13495D01*
X178762Y13503D01*
X178854Y13539D01*
X178949Y13567D01*
X179001Y13597D01*
X179057Y13620D01*
X179137Y13678D01*
X179223Y13728D01*
X179298Y13794D01*
X179315Y13806D01*
X179323Y13816D01*
X179344Y13834D01*
X182084Y16574D01*
X182157Y16669D01*
X182235Y16758D01*
X182254Y16794D01*
X182279Y16826D01*
X182326Y16935D01*
X182380Y17041D01*
X182389Y17080D01*
X182405Y17117D01*
X182424Y17235D01*
X182450Y17351D01*
X182448Y17392D01*
X182455Y17432D01*
X182444Y17550D01*
X182440Y17669D01*
X182429Y17708D01*
X182425Y17748D01*
X182385Y17860D01*
X182352Y17975D01*
X182331Y18009D01*
X182317Y18047D01*
X182250Y18146D01*
X182190Y18249D01*
X182150Y18294D01*
X182139Y18311D01*
X182123Y18324D01*
X182084Y18369D01*
X181240Y19213D01*
X179577Y23227D01*
X179577Y27573D01*
X181240Y31587D01*
X184313Y34660D01*
X188327Y36323D01*
X192673Y36323D01*
X196687Y34660D01*
X199760Y31587D01*
X201423Y27573D01*
X201423Y23227D01*
X199760Y19213D01*
X196687Y16140D01*
X192673Y14477D01*
X189854Y14477D01*
X189756Y14465D01*
X189657Y14462D01*
X189598Y14445D01*
X189538Y14437D01*
X189446Y14401D01*
X189351Y14373D01*
X189299Y14343D01*
X189243Y14320D01*
X189163Y14262D01*
X189077Y14212D01*
X189002Y14146D01*
X188985Y14134D01*
X188977Y14124D01*
X188956Y14106D01*
X181708Y6857D01*
X131982Y6857D01*
X123697Y15142D01*
X123697Y15607D01*
X123692Y15647D01*
X123695Y15687D01*
X123672Y15804D01*
X123657Y15923D01*
X123643Y15960D01*
X123635Y15999D01*
X123584Y16107D01*
X123540Y16219D01*
X123517Y16251D01*
X123500Y16287D01*
X123424Y16379D01*
X123354Y16476D01*
X123323Y16501D01*
X123298Y16532D01*
X123201Y16602D01*
X123109Y16679D01*
X123073Y16696D01*
X123040Y16719D01*
X122929Y16763D01*
X122821Y16814D01*
X122782Y16822D01*
X122745Y16836D01*
X122626Y16852D01*
X122509Y16874D01*
X122469Y16872D01*
X122429Y16877D01*
X122311Y16862D01*
X122191Y16854D01*
X122153Y16842D01*
X122114Y16837D01*
X122002Y16793D01*
X121889Y16756D01*
X121855Y16735D01*
X121818Y16720D01*
X121682Y16634D01*
X120291Y15624D01*
X118688Y14807D01*
X116977Y14251D01*
X116799Y14223D01*
X116799Y24170D01*
X116784Y24288D01*
X116777Y24407D01*
X116764Y24445D01*
X116759Y24485D01*
X116716Y24596D01*
X116679Y24709D01*
X116657Y24743D01*
X116642Y24781D01*
X116573Y24877D01*
X116509Y24978D01*
X116479Y25006D01*
X116456Y25038D01*
X116364Y25114D01*
X116277Y25196D01*
X116242Y25215D01*
X116211Y25241D01*
X116103Y25292D01*
X115999Y25349D01*
X115959Y25359D01*
X115923Y25377D01*
X115816Y25397D01*
X115846Y25401D01*
X115956Y25445D01*
X116069Y25481D01*
X116104Y25503D01*
X116141Y25518D01*
X116237Y25588D01*
X116338Y25651D01*
X116366Y25681D01*
X116399Y25705D01*
X116475Y25796D01*
X116556Y25883D01*
X116576Y25918D01*
X116601Y25950D01*
X116652Y26057D01*
X116710Y26162D01*
X116720Y26201D01*
X116737Y26237D01*
X116759Y26354D01*
X116789Y26470D01*
X116793Y26530D01*
X116797Y26550D01*
X116795Y26570D01*
X116797Y26576D01*
X116796Y26583D01*
X116799Y26630D01*
X116799Y36754D01*
X116787Y36852D01*
X116784Y36951D01*
X116767Y37010D01*
X116759Y37070D01*
X116723Y37162D01*
X116695Y37257D01*
X116665Y37309D01*
X116642Y37365D01*
X116584Y37446D01*
X116534Y37531D01*
X116468Y37606D01*
X116456Y37623D01*
X116446Y37631D01*
X116428Y37652D01*
X108614Y45466D01*
X106286Y47793D01*
X106285Y47815D01*
X106272Y47853D01*
X106267Y47894D01*
X106224Y48004D01*
X106187Y48117D01*
X106165Y48152D01*
X106150Y48189D01*
X106081Y48285D01*
X106017Y48386D01*
X105987Y48414D01*
X105964Y48447D01*
X105872Y48523D01*
X105785Y48604D01*
X105750Y48624D01*
X105719Y48649D01*
X105611Y48700D01*
X105507Y48758D01*
X105467Y48768D01*
X105431Y48785D01*
X105314Y48807D01*
X105199Y48837D01*
X105139Y48841D01*
X105119Y48845D01*
X105098Y48843D01*
X105038Y48847D01*
X103886Y48847D01*
X103768Y48832D01*
X103649Y48825D01*
X103611Y48812D01*
X103570Y48807D01*
X103460Y48764D01*
X103347Y48727D01*
X103312Y48705D01*
X103275Y48690D01*
X103179Y48621D01*
X103078Y48557D01*
X103050Y48527D01*
X103017Y48504D01*
X102941Y48412D01*
X102860Y48325D01*
X102840Y48290D01*
X102815Y48259D01*
X102764Y48151D01*
X102706Y48047D01*
X102696Y48007D01*
X102679Y47971D01*
X102657Y47854D01*
X102627Y47739D01*
X102623Y47679D01*
X102619Y47659D01*
X102621Y47638D01*
X102617Y47578D01*
X102617Y34087D01*
X100161Y31632D01*
X100161Y31631D01*
X99333Y30803D01*
X99315Y30780D01*
X99292Y30760D01*
X99217Y30654D01*
X99138Y30552D01*
X99126Y30524D01*
X99109Y30500D01*
X99063Y30379D01*
X99012Y30260D01*
X99007Y30231D01*
X98996Y30203D01*
X98982Y30074D01*
X98962Y29946D01*
X98964Y29916D01*
X98961Y29887D01*
X98979Y29758D01*
X98991Y29629D01*
X99001Y29601D01*
X99006Y29572D01*
X99058Y29420D01*
X99823Y27573D01*
X99823Y23227D01*
X98160Y19213D01*
X95087Y16140D01*
X91073Y14477D01*
X86727Y14477D01*
X82713Y16140D01*
X79640Y19213D01*
X77977Y23227D01*
X77977Y27573D01*
X79640Y31587D01*
X82713Y34660D01*
X86727Y36323D01*
X91073Y36323D01*
X92920Y35558D01*
X92948Y35550D01*
X92974Y35536D01*
X93101Y35508D01*
X93226Y35474D01*
X93256Y35473D01*
X93285Y35467D01*
X93415Y35471D01*
X93544Y35469D01*
X93573Y35476D01*
X93603Y35476D01*
X93727Y35513D01*
X93854Y35543D01*
X93880Y35557D01*
X93908Y35565D01*
X94020Y35631D01*
X94135Y35692D01*
X94157Y35711D01*
X94182Y35726D01*
X94303Y35833D01*
X95132Y36662D01*
X95192Y36740D01*
X95260Y36812D01*
X95289Y36865D01*
X95326Y36913D01*
X95366Y37004D01*
X95414Y37090D01*
X95429Y37149D01*
X95453Y37205D01*
X95468Y37303D01*
X95493Y37398D01*
X95499Y37498D01*
X95503Y37519D01*
X95501Y37531D01*
X95503Y37559D01*
X95503Y45840D01*
X95488Y45958D01*
X95481Y46077D01*
X95468Y46115D01*
X95463Y46156D01*
X95420Y46266D01*
X95383Y46379D01*
X95361Y46414D01*
X95346Y46451D01*
X95277Y46547D01*
X95213Y46648D01*
X95183Y46676D01*
X95160Y46709D01*
X95068Y46785D01*
X94981Y46866D01*
X94946Y46886D01*
X94915Y46911D01*
X94807Y46962D01*
X94703Y47020D01*
X94663Y47030D01*
X94627Y47047D01*
X94510Y47069D01*
X94395Y47099D01*
X94335Y47103D01*
X94315Y47107D01*
X94294Y47105D01*
X94234Y47109D01*
X90779Y47109D01*
X90779Y55880D01*
X90764Y55998D01*
X90757Y56117D01*
X90744Y56155D01*
X90739Y56195D01*
X90695Y56306D01*
X90659Y56419D01*
X90637Y56454D01*
X90622Y56491D01*
X90552Y56587D01*
X90489Y56688D01*
X90459Y56716D01*
X90435Y56748D01*
X90344Y56824D01*
X90257Y56906D01*
X90222Y56925D01*
X90190Y56951D01*
X90083Y57002D01*
X89979Y57059D01*
X89939Y57070D01*
X89903Y57087D01*
X89786Y57109D01*
X89671Y57139D01*
X89610Y57143D01*
X89590Y57147D01*
X89570Y57145D01*
X89510Y57149D01*
X86970Y57149D01*
X86852Y57134D01*
X86733Y57127D01*
X86695Y57114D01*
X86655Y57109D01*
X86544Y57065D01*
X86431Y57029D01*
X86396Y57007D01*
X86359Y56992D01*
X86263Y56922D01*
X86162Y56859D01*
X86134Y56829D01*
X86101Y56805D01*
X86026Y56714D01*
X85944Y56627D01*
X85924Y56592D01*
X85899Y56560D01*
X85848Y56453D01*
X85790Y56349D01*
X85780Y56309D01*
X85763Y56273D01*
X85741Y56156D01*
X85711Y56041D01*
X85707Y55980D01*
X85703Y55960D01*
X85705Y55940D01*
X85704Y55934D01*
X85703Y55930D01*
X85704Y55925D01*
X85701Y55880D01*
X85701Y47109D01*
X81706Y47109D01*
X81059Y47282D01*
X80480Y47617D01*
X80007Y48090D01*
X79644Y48719D01*
X79568Y48819D01*
X79497Y48923D01*
X79472Y48946D01*
X79451Y48973D01*
X79353Y49051D01*
X79259Y49134D01*
X79229Y49149D01*
X79202Y49170D01*
X79087Y49221D01*
X78975Y49279D01*
X78942Y49286D01*
X78912Y49300D01*
X78788Y49321D01*
X78665Y49348D01*
X78631Y49347D01*
X78598Y49353D01*
X78473Y49342D01*
X78347Y49339D01*
X78315Y49329D01*
X78281Y49326D01*
X78163Y49285D01*
X78042Y49250D01*
X78013Y49233D01*
X77981Y49222D01*
X77876Y49152D01*
X77768Y49089D01*
X77731Y49056D01*
X77716Y49046D01*
X77701Y49030D01*
X77647Y48982D01*
X76282Y47617D01*
X74574Y47617D01*
X74456Y47602D01*
X74337Y47595D01*
X74299Y47582D01*
X74258Y47577D01*
X74148Y47534D01*
X74035Y47497D01*
X74000Y47475D01*
X73963Y47460D01*
X73867Y47391D01*
X73766Y47327D01*
X73738Y47297D01*
X73705Y47274D01*
X73629Y47182D01*
X73548Y47095D01*
X73528Y47060D01*
X73503Y47029D01*
X73452Y46921D01*
X73394Y46817D01*
X73384Y46777D01*
X73367Y46741D01*
X73345Y46624D01*
X73315Y46509D01*
X73311Y46449D01*
X73307Y46429D01*
X73309Y46408D01*
X73305Y46348D01*
X73305Y30524D01*
X73306Y30515D01*
X73305Y30506D01*
X73326Y30357D01*
X73345Y30209D01*
X73348Y30200D01*
X73349Y30191D01*
X73401Y30038D01*
X74423Y27573D01*
X74423Y23227D01*
X72760Y19213D01*
X69687Y16140D01*
X65673Y14477D01*
X61327Y14477D01*
X57313Y16140D01*
X54240Y19213D01*
X52577Y23227D01*
X52577Y27573D01*
X54240Y31587D01*
X57313Y34660D01*
X61327Y36323D01*
X63906Y36323D01*
X64024Y36338D01*
X64143Y36345D01*
X64181Y36358D01*
X64222Y36363D01*
X64332Y36406D01*
X64445Y36443D01*
X64480Y36465D01*
X64517Y36480D01*
X64613Y36549D01*
X64714Y36613D01*
X64742Y36643D01*
X64775Y36666D01*
X64851Y36758D01*
X64932Y36845D01*
X64952Y36880D01*
X64977Y36911D01*
X65028Y37019D01*
X65086Y37123D01*
X65096Y37163D01*
X65113Y37199D01*
X65135Y37316D01*
X65165Y37431D01*
X65169Y37491D01*
X65173Y37511D01*
X65171Y37532D01*
X65175Y37592D01*
X65175Y46348D01*
X65160Y46466D01*
X65153Y46585D01*
X65140Y46623D01*
X65135Y46664D01*
X65092Y46774D01*
X65055Y46887D01*
X65033Y46922D01*
X65018Y46959D01*
X64949Y47055D01*
X64885Y47156D01*
X64855Y47184D01*
X64832Y47217D01*
X64740Y47293D01*
X64653Y47374D01*
X64618Y47394D01*
X64587Y47419D01*
X64479Y47470D01*
X64375Y47528D01*
X64335Y47538D01*
X64299Y47555D01*
X64182Y47577D01*
X64067Y47607D01*
X64007Y47611D01*
X63987Y47615D01*
X63966Y47613D01*
X63906Y47617D01*
X62070Y47617D01*
X61952Y47602D01*
X61833Y47595D01*
X61795Y47582D01*
X61754Y47577D01*
X61644Y47534D01*
X61531Y47497D01*
X61496Y47475D01*
X61459Y47460D01*
X61363Y47391D01*
X61262Y47327D01*
X61234Y47297D01*
X61201Y47274D01*
X61125Y47182D01*
X61044Y47095D01*
X61024Y47060D01*
X60999Y47029D01*
X60948Y46921D01*
X60890Y46817D01*
X60880Y46777D01*
X60863Y46741D01*
X60841Y46624D01*
X60811Y46509D01*
X60807Y46449D01*
X60803Y46429D01*
X60805Y46408D01*
X60801Y46348D01*
X60801Y43040D01*
X58121Y38399D01*
X53480Y35719D01*
X48120Y35719D01*
X43780Y38225D01*
X43722Y38250D01*
X43668Y38283D01*
X43576Y38311D01*
X43487Y38348D01*
X43424Y38358D01*
X43364Y38376D01*
X43268Y38381D01*
X43172Y38395D01*
X43109Y38388D01*
X43047Y38391D01*
X42952Y38372D01*
X42856Y38362D01*
X42843Y38357D01*
X42848Y38368D01*
X42903Y38474D01*
X42912Y38513D01*
X42929Y38550D01*
X42949Y38668D01*
X42976Y38784D01*
X42975Y38824D01*
X42982Y38863D01*
X42972Y38982D01*
X42970Y39102D01*
X42959Y39140D01*
X42956Y39180D01*
X42917Y39293D01*
X42885Y39408D01*
X42858Y39461D01*
X42851Y39481D01*
X42840Y39498D01*
X42813Y39552D01*
X40799Y43040D01*
X40799Y48400D01*
X43479Y53041D01*
X48120Y55721D01*
X53480Y55721D01*
X58121Y53041D01*
X58639Y52144D01*
X58727Y52028D01*
X58812Y51910D01*
X58823Y51902D01*
X58831Y51891D01*
X58945Y51801D01*
X59057Y51707D01*
X59070Y51702D01*
X59080Y51693D01*
X59214Y51634D01*
X59345Y51572D01*
X59358Y51569D01*
X59371Y51564D01*
X59515Y51539D01*
X59658Y51512D01*
X59671Y51513D01*
X59684Y51511D01*
X59830Y51523D01*
X59975Y51532D01*
X59988Y51536D01*
X60001Y51537D01*
X60139Y51585D01*
X60277Y51630D01*
X60289Y51637D01*
X60302Y51642D01*
X60423Y51722D01*
X60546Y51800D01*
X60555Y51810D01*
X60567Y51817D01*
X60664Y51925D01*
X60764Y52032D01*
X60771Y52044D01*
X60780Y52054D01*
X60847Y52183D01*
X60918Y52310D01*
X60921Y52323D01*
X60927Y52335D01*
X60961Y52477D01*
X60997Y52618D01*
X60998Y52636D01*
X61000Y52645D01*
X61000Y52662D01*
X61007Y52779D01*
X61007Y65492D01*
X62198Y66683D01*
X63906Y66683D01*
X64024Y66698D01*
X64143Y66705D01*
X64181Y66718D01*
X64222Y66723D01*
X64332Y66766D01*
X64445Y66803D01*
X64480Y66825D01*
X64517Y66840D01*
X64613Y66909D01*
X64714Y66973D01*
X64742Y67003D01*
X64775Y67026D01*
X64851Y67118D01*
X64932Y67205D01*
X64952Y67240D01*
X64977Y67271D01*
X65028Y67379D01*
X65086Y67483D01*
X65096Y67523D01*
X65113Y67559D01*
X65135Y67676D01*
X65165Y67791D01*
X65169Y67851D01*
X65173Y67871D01*
X65171Y67892D01*
X65175Y67952D01*
X65175Y73773D01*
X66626Y75223D01*
X66686Y75301D01*
X66754Y75373D01*
X66783Y75426D01*
X66820Y75474D01*
X66860Y75565D01*
X66908Y75652D01*
X66923Y75710D01*
X66947Y75766D01*
X66962Y75864D01*
X66987Y75960D01*
X66993Y76060D01*
X66997Y76080D01*
X66995Y76092D01*
X66997Y76120D01*
X66997Y81471D01*
X67121Y81595D01*
X67194Y81689D01*
X67273Y81778D01*
X67292Y81815D01*
X67316Y81846D01*
X67364Y81956D01*
X67418Y82062D01*
X67427Y82101D01*
X67443Y82138D01*
X67461Y82256D01*
X67487Y82372D01*
X67486Y82412D01*
X67493Y82452D01*
X67481Y82571D01*
X67478Y82690D01*
X67467Y82729D01*
X67463Y82769D01*
X67422Y82881D01*
X67389Y82995D01*
X67369Y83030D01*
X67355Y83068D01*
X67288Y83167D01*
X67228Y83269D01*
X67195Y83307D01*
X67192Y83312D01*
X67187Y83316D01*
X67177Y83331D01*
X67161Y83345D01*
X67121Y83390D01*
X62489Y88022D01*
X62380Y88107D01*
X62273Y88196D01*
X62254Y88205D01*
X62238Y88217D01*
X62110Y88273D01*
X61985Y88332D01*
X61965Y88335D01*
X61946Y88343D01*
X61808Y88365D01*
X61672Y88391D01*
X61652Y88390D01*
X61632Y88393D01*
X61493Y88380D01*
X61355Y88372D01*
X61336Y88365D01*
X61316Y88363D01*
X61184Y88316D01*
X61053Y88274D01*
X61035Y88263D01*
X61016Y88256D01*
X60901Y88178D01*
X60784Y88103D01*
X60770Y88089D01*
X60753Y88077D01*
X60661Y87973D01*
X60566Y87872D01*
X60556Y87854D01*
X60543Y87839D01*
X60479Y87715D01*
X60412Y87593D01*
X60407Y87574D01*
X60398Y87556D01*
X60368Y87420D01*
X60333Y87285D01*
X60331Y87257D01*
X60328Y87245D01*
X60329Y87225D01*
X60323Y87125D01*
X60323Y80058D01*
X60062Y79798D01*
X59989Y79703D01*
X59910Y79614D01*
X59892Y79578D01*
X59867Y79546D01*
X59820Y79437D01*
X59766Y79331D01*
X59757Y79292D01*
X59741Y79254D01*
X59722Y79136D01*
X59696Y79021D01*
X59697Y78980D01*
X59691Y78940D01*
X59702Y78822D01*
X59706Y78703D01*
X59717Y78664D01*
X59721Y78624D01*
X59761Y78512D01*
X59794Y78397D01*
X59815Y78362D01*
X59828Y78324D01*
X59895Y78226D01*
X59956Y78123D01*
X59996Y78078D01*
X60007Y78061D01*
X60022Y78048D01*
X60062Y78003D01*
X60323Y77742D01*
X60323Y70058D01*
X59132Y68867D01*
X43107Y68867D01*
X43077Y68864D01*
X43048Y68866D01*
X42920Y68844D01*
X42791Y68827D01*
X42764Y68817D01*
X42735Y68812D01*
X42616Y68758D01*
X42495Y68710D01*
X42472Y68693D01*
X42445Y68681D01*
X42343Y68600D01*
X42238Y68524D01*
X42219Y68501D01*
X42196Y68482D01*
X42118Y68379D01*
X42035Y68279D01*
X42023Y68252D01*
X42005Y68228D01*
X41934Y68084D01*
X41125Y66131D01*
X39279Y64285D01*
X36866Y63285D01*
X34254Y63285D01*
X31841Y64285D01*
X29995Y66131D01*
X28995Y68544D01*
X28995Y71156D01*
X29995Y73569D01*
X31320Y74894D01*
X31393Y74988D01*
X31471Y75077D01*
X31490Y75113D01*
X31515Y75145D01*
X31562Y75254D01*
X31616Y75360D01*
X31625Y75400D01*
X31641Y75437D01*
X31660Y75555D01*
X31686Y75670D01*
X31684Y75711D01*
X31691Y75751D01*
X31680Y75869D01*
X31676Y75988D01*
X31665Y76027D01*
X31661Y76067D01*
X31621Y76179D01*
X31588Y76294D01*
X31567Y76329D01*
X31553Y76367D01*
X31486Y76465D01*
X31426Y76568D01*
X31386Y76613D01*
X31375Y76630D01*
X31359Y76643D01*
X31320Y76689D01*
X30221Y77787D01*
X29221Y80200D01*
X29221Y82812D01*
X30221Y85225D01*
X32067Y87071D01*
X34480Y88071D01*
X37092Y88071D01*
X37528Y87890D01*
X37595Y87872D01*
X37660Y87844D01*
X37748Y87830D01*
X37835Y87806D01*
X37905Y87805D01*
X37974Y87794D01*
X38063Y87803D01*
X38153Y87801D01*
X38221Y87817D01*
X38290Y87824D01*
X38375Y87854D01*
X38462Y87875D01*
X38524Y87908D01*
X38590Y87931D01*
X38664Y87982D01*
X38743Y88024D01*
X38795Y88071D01*
X38853Y88110D01*
X38912Y88177D01*
X38979Y88238D01*
X39017Y88296D01*
X39063Y88349D01*
X39104Y88428D01*
X39153Y88504D01*
X39176Y88570D01*
X39208Y88632D01*
X39227Y88719D01*
X39257Y88804D01*
X39262Y88874D01*
X39277Y88942D01*
X39275Y89032D01*
X39282Y89121D01*
X39270Y89190D01*
X39268Y89260D01*
X39243Y89346D01*
X39227Y89435D01*
X39199Y89498D01*
X39179Y89565D01*
X39134Y89643D01*
X39097Y89725D01*
X39053Y89779D01*
X39018Y89839D01*
X38911Y89960D01*
X36748Y92124D01*
X36670Y92184D01*
X36598Y92252D01*
X36545Y92281D01*
X36497Y92318D01*
X36406Y92358D01*
X36319Y92406D01*
X36261Y92421D01*
X36205Y92445D01*
X36107Y92460D01*
X36011Y92485D01*
X35911Y92491D01*
X35891Y92495D01*
X35879Y92493D01*
X35851Y92495D01*
X34254Y92495D01*
X31841Y93495D01*
X29995Y95341D01*
X28995Y97754D01*
X28995Y100366D01*
X29995Y102779D01*
X31841Y104625D01*
X34254Y105625D01*
X36866Y105625D01*
X38494Y104950D01*
X38542Y104937D01*
X38587Y104916D01*
X38695Y104895D01*
X38801Y104866D01*
X38851Y104865D01*
X38900Y104856D01*
X39009Y104863D01*
X39119Y104861D01*
X39167Y104873D01*
X39217Y104876D01*
X39321Y104910D01*
X39428Y104935D01*
X39472Y104959D01*
X39519Y104974D01*
X39612Y105033D01*
X39709Y105084D01*
X39746Y105117D01*
X39788Y105144D01*
X39863Y105224D01*
X39945Y105298D01*
X39972Y105340D01*
X40006Y105376D01*
X40059Y105472D01*
X40119Y105564D01*
X40136Y105611D01*
X40160Y105654D01*
X40187Y105760D01*
X40223Y105865D01*
X40227Y105914D01*
X40239Y105962D01*
X40249Y106123D01*
X40249Y107234D01*
X40422Y107881D01*
X40757Y108460D01*
X41230Y108933D01*
X41809Y109268D01*
X42456Y109441D01*
X47578Y109441D01*
X47696Y109456D01*
X47815Y109463D01*
X47853Y109476D01*
X47894Y109481D01*
X48004Y109524D01*
X48117Y109561D01*
X48152Y109583D01*
X48189Y109598D01*
X48285Y109667D01*
X48386Y109731D01*
X48414Y109761D01*
X48447Y109784D01*
X48523Y109876D01*
X48604Y109963D01*
X48624Y109998D01*
X48649Y110029D01*
X48700Y110137D01*
X48758Y110241D01*
X48768Y110281D01*
X48785Y110317D01*
X48807Y110434D01*
X48837Y110549D01*
X48841Y110609D01*
X48845Y110629D01*
X48843Y110650D01*
X48847Y110710D01*
X48847Y114746D01*
X48835Y114844D01*
X48832Y114943D01*
X48815Y115002D01*
X48807Y115062D01*
X48771Y115154D01*
X48743Y115249D01*
X48713Y115301D01*
X48690Y115357D01*
X48632Y115437D01*
X48582Y115523D01*
X48516Y115598D01*
X48504Y115615D01*
X48494Y115623D01*
X48476Y115644D01*
X44794Y119326D01*
X44715Y119386D01*
X44643Y119454D01*
X44590Y119483D01*
X44542Y119520D01*
X44451Y119560D01*
X44365Y119608D01*
X44306Y119623D01*
X44251Y119647D01*
X44153Y119662D01*
X44057Y119687D01*
X43957Y119693D01*
X43936Y119697D01*
X43924Y119695D01*
X43896Y119697D01*
X38218Y119697D01*
X37016Y120899D01*
X37008Y120962D01*
X36991Y121113D01*
X36988Y121119D01*
X36987Y121126D01*
X36931Y121268D01*
X36877Y121410D01*
X36873Y121416D01*
X36870Y121422D01*
X36781Y121545D01*
X36693Y121669D01*
X36688Y121674D01*
X36684Y121679D01*
X36565Y121777D01*
X36450Y121875D01*
X36444Y121878D01*
X36439Y121882D01*
X36302Y121946D01*
X36164Y122013D01*
X36157Y122015D01*
X36151Y122018D01*
X36003Y122046D01*
X35852Y122076D01*
X35845Y122076D01*
X35839Y122077D01*
X35687Y122068D01*
X35534Y122060D01*
X35528Y122058D01*
X35521Y122058D01*
X35376Y122011D01*
X35231Y121965D01*
X35225Y121962D01*
X35219Y121960D01*
X35090Y121878D01*
X34960Y121798D01*
X34956Y121793D01*
X34950Y121789D01*
X34845Y121678D01*
X34740Y121569D01*
X34737Y121563D01*
X34732Y121558D01*
X34658Y121424D01*
X34583Y121292D01*
X34581Y121283D01*
X34578Y121279D01*
X34576Y121269D01*
X34532Y121139D01*
X34428Y120749D01*
X34093Y120170D01*
X33620Y119697D01*
X33041Y119362D01*
X32394Y119189D01*
X30059Y119189D01*
X30059Y125000D01*
X30044Y125118D01*
X30037Y125237D01*
X30024Y125275D01*
X30019Y125315D01*
X29976Y125426D01*
X29939Y125539D01*
X29917Y125573D01*
X29902Y125611D01*
X29833Y125707D01*
X29769Y125808D01*
X29739Y125836D01*
X29716Y125868D01*
X29624Y125944D01*
X29537Y126026D01*
X29502Y126045D01*
X29471Y126071D01*
X29363Y126122D01*
X29259Y126179D01*
X29219Y126189D01*
X29183Y126207D01*
X29066Y126229D01*
X28951Y126259D01*
X28891Y126263D01*
X28871Y126266D01*
X28850Y126265D01*
X28790Y126269D01*
X28599Y126269D01*
X28599Y126460D01*
X28584Y126578D01*
X28577Y126697D01*
X28564Y126735D01*
X28559Y126776D01*
X28515Y126886D01*
X28479Y126999D01*
X28457Y127034D01*
X28442Y127071D01*
X28372Y127167D01*
X28309Y127268D01*
X28279Y127296D01*
X28255Y127329D01*
X28164Y127405D01*
X28077Y127486D01*
X28042Y127506D01*
X28010Y127531D01*
X27903Y127582D01*
X27798Y127640D01*
X27759Y127650D01*
X27723Y127667D01*
X27606Y127689D01*
X27490Y127719D01*
X27430Y127723D01*
X27410Y127727D01*
X27390Y127725D01*
X27330Y127729D01*
X21519Y127729D01*
X21519Y130064D01*
X21692Y130711D01*
X21899Y131068D01*
X21916Y131108D01*
X21939Y131144D01*
X21977Y131254D01*
X22022Y131362D01*
X22028Y131404D01*
X22042Y131445D01*
X22052Y131561D01*
X22069Y131676D01*
X22064Y131719D01*
X22068Y131762D01*
X22048Y131877D01*
X22036Y131992D01*
X22021Y132033D01*
X22013Y132075D01*
X21965Y132181D01*
X21925Y132291D01*
X21900Y132326D01*
X21883Y132365D01*
X21810Y132456D01*
X21743Y132552D01*
X21711Y132580D01*
X21684Y132613D01*
X21591Y132684D01*
X21503Y132760D01*
X21464Y132779D01*
X21430Y132805D01*
X21285Y132876D01*
X20951Y133014D01*
X20852Y133041D01*
X20757Y133077D01*
X20665Y133092D01*
X20644Y133098D01*
X20631Y133098D01*
X20598Y133104D01*
X19179Y133253D01*
X16215Y134964D01*
X16213Y134965D01*
X16210Y134967D01*
X16066Y135038D01*
X14290Y135773D01*
X13693Y136370D01*
X13626Y136422D01*
X13565Y136483D01*
X13451Y136558D01*
X13442Y136565D01*
X13438Y136567D01*
X13431Y136572D01*
X11929Y137439D01*
X10139Y139903D01*
X10126Y139917D01*
X10116Y139933D01*
X10009Y140054D01*
X8773Y141290D01*
X8357Y142296D01*
X8322Y142356D01*
X8297Y142420D01*
X8211Y142556D01*
X7008Y144211D01*
X6447Y146849D01*
X6436Y146883D01*
X6431Y146919D01*
X6379Y147071D01*
X5787Y148499D01*
X5787Y149822D01*
X5781Y149874D01*
X5783Y149926D01*
X5760Y150086D01*
X5268Y152400D01*
X5760Y154714D01*
X5764Y154767D01*
X5777Y154817D01*
X5787Y154978D01*
X5787Y156301D01*
X6379Y157729D01*
X6388Y157763D01*
X6404Y157795D01*
X6447Y157951D01*
X7008Y160589D01*
X8211Y162244D01*
X8244Y162305D01*
X8286Y162360D01*
X8357Y162504D01*
X8773Y163510D01*
X10009Y164746D01*
X10021Y164761D01*
X10036Y164773D01*
X10139Y164897D01*
X11929Y167361D01*
X13431Y168228D01*
X13499Y168280D01*
X13573Y168324D01*
X13675Y168414D01*
X13684Y168421D01*
X13687Y168424D01*
X13693Y168430D01*
X14290Y169027D01*
X16066Y169762D01*
X16068Y169764D01*
X16071Y169764D01*
X16215Y169836D01*
X18972Y171428D01*
X18993Y171444D01*
X19017Y171455D01*
X19119Y171540D01*
X19166Y171575D01*
X19203Y171568D01*
X19229Y171569D01*
X19256Y171565D01*
X19416Y171572D01*
X20598Y171696D01*
X20698Y171720D01*
X20799Y171734D01*
X20887Y171764D01*
X20908Y171769D01*
X20920Y171775D01*
X20951Y171786D01*
X21499Y172013D01*
X23543Y172013D01*
X23560Y172015D01*
X23676Y172020D01*
X27504Y172422D01*
X28573Y172075D01*
X28690Y172053D01*
X28805Y172023D01*
X28865Y172019D01*
X28885Y172015D01*
X28906Y172017D01*
X28965Y172013D01*
X29301Y172013D01*
X31209Y171223D01*
X31230Y171217D01*
X31303Y171188D01*
X35466Y169835D01*
X36078Y169285D01*
X36189Y169207D01*
X36297Y169126D01*
X36327Y169111D01*
X36339Y169103D01*
X36359Y169096D01*
X36441Y169055D01*
X36510Y169027D01*
X37805Y167732D01*
X37819Y167721D01*
X37853Y167686D01*
X41687Y164234D01*
X41900Y163756D01*
X41979Y163626D01*
X42250Y162971D01*
X42255Y162963D01*
X42263Y162941D01*
X45092Y156586D01*
X45092Y148214D01*
X42263Y141859D01*
X42260Y141849D01*
X42250Y141829D01*
X41994Y141211D01*
X41975Y141187D01*
X41970Y141179D01*
X41968Y141175D01*
X41963Y141164D01*
X41900Y141044D01*
X41687Y140566D01*
X37853Y137114D01*
X37841Y137100D01*
X37805Y137068D01*
X36510Y135773D01*
X36441Y135745D01*
X36324Y135678D01*
X36204Y135615D01*
X36177Y135594D01*
X36165Y135587D01*
X36150Y135572D01*
X36078Y135515D01*
X35466Y134965D01*
X33448Y134309D01*
X33352Y134264D01*
X33252Y134227D01*
X33208Y134196D01*
X33160Y134174D01*
X33078Y134106D01*
X32991Y134046D01*
X32956Y134005D01*
X32915Y133971D01*
X32852Y133885D01*
X32783Y133805D01*
X32759Y133757D01*
X32728Y133714D01*
X32689Y133615D01*
X32641Y133520D01*
X32630Y133468D01*
X32611Y133418D01*
X32597Y133313D01*
X32575Y133209D01*
X32577Y133156D01*
X32571Y133103D01*
X32584Y132998D01*
X32588Y132891D01*
X32604Y132840D01*
X32610Y132787D01*
X32649Y132689D01*
X32680Y132587D01*
X32707Y132541D01*
X32727Y132491D01*
X32789Y132405D01*
X32844Y132315D01*
X32882Y132277D01*
X32914Y132234D01*
X32995Y132166D01*
X33071Y132092D01*
X33142Y132045D01*
X33159Y132031D01*
X33173Y132024D01*
X33205Y132003D01*
X33620Y131763D01*
X34093Y131290D01*
X34428Y130711D01*
X34532Y130321D01*
X34590Y130180D01*
X34646Y130038D01*
X34650Y130033D01*
X34652Y130026D01*
X34744Y129903D01*
X34832Y129781D01*
X34838Y129776D01*
X34842Y129771D01*
X34960Y129676D01*
X35077Y129578D01*
X35084Y129575D01*
X35089Y129571D01*
X35228Y129507D01*
X35365Y129442D01*
X35372Y129441D01*
X35378Y129438D01*
X35529Y129411D01*
X35678Y129383D01*
X35684Y129383D01*
X35691Y129382D01*
X35843Y129393D01*
X35995Y129402D01*
X36001Y129405D01*
X36008Y129405D01*
X36154Y129454D01*
X36297Y129500D01*
X36303Y129504D01*
X36310Y129506D01*
X36438Y129589D01*
X36566Y129671D01*
X36571Y129676D01*
X36576Y129679D01*
X36679Y129790D01*
X36784Y129902D01*
X36787Y129908D01*
X36792Y129913D01*
X36864Y130047D01*
X36938Y130181D01*
X36939Y130187D01*
X36942Y130193D01*
X36979Y130342D01*
X37017Y130489D01*
X37018Y130498D01*
X37019Y130502D01*
X37019Y130513D01*
X37022Y130567D01*
X38218Y131763D01*
X47578Y131763D01*
X47696Y131778D01*
X47815Y131785D01*
X47853Y131798D01*
X47894Y131803D01*
X48004Y131846D01*
X48117Y131883D01*
X48152Y131905D01*
X48189Y131920D01*
X48285Y131989D01*
X48386Y132053D01*
X48414Y132083D01*
X48447Y132106D01*
X48523Y132198D01*
X48604Y132285D01*
X48624Y132320D01*
X48649Y132351D01*
X48700Y132459D01*
X48758Y132563D01*
X48768Y132603D01*
X48785Y132639D01*
X48807Y132756D01*
X48837Y132871D01*
X48841Y132931D01*
X48845Y132951D01*
X48843Y132972D01*
X48847Y133032D01*
X48847Y139177D01*
X50038Y140368D01*
X61722Y140368D01*
X62913Y139177D01*
X62913Y132692D01*
X62930Y132553D01*
X62943Y132415D01*
X62950Y132396D01*
X62953Y132376D01*
X63004Y132247D01*
X63051Y132115D01*
X63062Y132099D01*
X63070Y132080D01*
X63151Y131968D01*
X63230Y131852D01*
X63245Y131839D01*
X63256Y131823D01*
X63364Y131734D01*
X63468Y131642D01*
X63486Y131633D01*
X63501Y131620D01*
X63627Y131561D01*
X63752Y131498D01*
X63771Y131493D01*
X63789Y131485D01*
X63926Y131459D01*
X64062Y131428D01*
X64082Y131429D01*
X64101Y131425D01*
X64241Y131434D01*
X64380Y131438D01*
X64399Y131443D01*
X64419Y131445D01*
X64444Y131453D01*
X78822Y131453D01*
X80187Y130088D01*
X80286Y130011D01*
X80381Y129929D01*
X80411Y129914D01*
X80438Y129893D01*
X80553Y129843D01*
X80666Y129787D01*
X80699Y129780D01*
X80730Y129767D01*
X80854Y129747D01*
X80977Y129721D01*
X81011Y129722D01*
X81044Y129717D01*
X81169Y129728D01*
X81295Y129734D01*
X81327Y129743D01*
X81361Y129747D01*
X81479Y129789D01*
X81599Y129825D01*
X81628Y129843D01*
X81660Y129854D01*
X81764Y129925D01*
X81872Y129990D01*
X81895Y130014D01*
X81923Y130033D01*
X82006Y130127D01*
X82094Y130217D01*
X82121Y130257D01*
X82134Y130271D01*
X82144Y130291D01*
X82184Y130351D01*
X82547Y130980D01*
X83020Y131453D01*
X83599Y131788D01*
X84246Y131961D01*
X88241Y131961D01*
X88241Y123190D01*
X88256Y123072D01*
X88263Y122953D01*
X88276Y122915D01*
X88281Y122875D01*
X88324Y122764D01*
X88361Y122651D01*
X88383Y122616D01*
X88398Y122579D01*
X88468Y122483D01*
X88531Y122382D01*
X88561Y122354D01*
X88585Y122322D01*
X88676Y122246D01*
X88763Y122164D01*
X88798Y122145D01*
X88829Y122119D01*
X88937Y122068D01*
X89041Y122011D01*
X89081Y122000D01*
X89117Y121983D01*
X89234Y121961D01*
X89349Y121931D01*
X89410Y121927D01*
X89430Y121923D01*
X89450Y121925D01*
X89510Y121921D01*
X90781Y121921D01*
X90781Y121919D01*
X89510Y121919D01*
X89392Y121904D01*
X89273Y121897D01*
X89235Y121884D01*
X89195Y121879D01*
X89084Y121835D01*
X88971Y121799D01*
X88936Y121777D01*
X88899Y121762D01*
X88803Y121692D01*
X88702Y121629D01*
X88674Y121599D01*
X88641Y121575D01*
X88566Y121484D01*
X88484Y121397D01*
X88464Y121362D01*
X88439Y121330D01*
X88388Y121223D01*
X88330Y121119D01*
X88320Y121079D01*
X88303Y121043D01*
X88281Y120926D01*
X88251Y120811D01*
X88247Y120750D01*
X88243Y120730D01*
X88245Y120710D01*
X88241Y120650D01*
X88241Y111879D01*
X84246Y111879D01*
X83599Y112052D01*
X83020Y112387D01*
X82547Y112860D01*
X82184Y113489D01*
X82108Y113589D01*
X82037Y113693D01*
X82012Y113716D01*
X81991Y113743D01*
X81893Y113821D01*
X81799Y113904D01*
X81769Y113919D01*
X81742Y113940D01*
X81627Y113991D01*
X81515Y114049D01*
X81482Y114056D01*
X81452Y114070D01*
X81327Y114091D01*
X81205Y114118D01*
X81171Y114117D01*
X81138Y114123D01*
X81013Y114112D01*
X80887Y114109D01*
X80855Y114099D01*
X80821Y114096D01*
X80702Y114055D01*
X80582Y114020D01*
X80553Y114003D01*
X80521Y113992D01*
X80416Y113922D01*
X80308Y113859D01*
X80271Y113826D01*
X80256Y113816D01*
X80241Y113800D01*
X80187Y113752D01*
X78822Y112387D01*
X76606Y112387D01*
X76488Y112372D01*
X76369Y112365D01*
X76331Y112352D01*
X76290Y112347D01*
X76180Y112304D01*
X76067Y112267D01*
X76032Y112245D01*
X75995Y112230D01*
X75899Y112161D01*
X75798Y112097D01*
X75770Y112067D01*
X75737Y112044D01*
X75661Y111952D01*
X75580Y111865D01*
X75560Y111830D01*
X75535Y111799D01*
X75484Y111691D01*
X75426Y111587D01*
X75416Y111547D01*
X75399Y111511D01*
X75377Y111394D01*
X75347Y111279D01*
X75343Y111219D01*
X75339Y111199D01*
X75341Y111178D01*
X75337Y111118D01*
X75337Y109225D01*
X75349Y109127D01*
X75352Y109028D01*
X75369Y108969D01*
X75377Y108909D01*
X75413Y108817D01*
X75441Y108722D01*
X75471Y108670D01*
X75494Y108614D01*
X75552Y108533D01*
X75602Y108448D01*
X75668Y108373D01*
X75680Y108356D01*
X75690Y108348D01*
X75708Y108327D01*
X76563Y107473D01*
X76563Y101404D01*
X76575Y101306D01*
X76578Y101207D01*
X76595Y101149D01*
X76603Y101088D01*
X76639Y100996D01*
X76667Y100901D01*
X76697Y100849D01*
X76720Y100793D01*
X76778Y100713D01*
X76828Y100627D01*
X76894Y100552D01*
X76906Y100535D01*
X76916Y100528D01*
X76934Y100506D01*
X82437Y95003D01*
X82516Y94943D01*
X82588Y94875D01*
X82641Y94846D01*
X82689Y94809D01*
X82780Y94769D01*
X82866Y94721D01*
X82925Y94706D01*
X82981Y94682D01*
X83079Y94667D01*
X83174Y94642D01*
X83274Y94636D01*
X83295Y94632D01*
X83307Y94634D01*
X83335Y94632D01*
X84728Y94632D01*
X84846Y94647D01*
X84965Y94654D01*
X85003Y94667D01*
X85044Y94672D01*
X85154Y94715D01*
X85267Y94752D01*
X85302Y94774D01*
X85339Y94789D01*
X85435Y94858D01*
X85536Y94922D01*
X85564Y94952D01*
X85597Y94975D01*
X85673Y95067D01*
X85754Y95154D01*
X85774Y95189D01*
X85799Y95220D01*
X85850Y95328D01*
X85908Y95432D01*
X85918Y95472D01*
X85935Y95508D01*
X85957Y95625D01*
X85987Y95740D01*
X85991Y95800D01*
X85995Y95820D01*
X85993Y95841D01*
X85997Y95901D01*
X85997Y107473D01*
X87188Y108664D01*
X94372Y108664D01*
X95563Y107473D01*
X95563Y97307D01*
X95580Y97169D01*
X95593Y97031D01*
X95600Y97011D01*
X95603Y96991D01*
X95654Y96862D01*
X95701Y96731D01*
X95712Y96714D01*
X95720Y96696D01*
X95801Y96583D01*
X95879Y96468D01*
X95895Y96455D01*
X95906Y96438D01*
X96014Y96350D01*
X96118Y96258D01*
X96136Y96248D01*
X96151Y96236D01*
X96277Y96176D01*
X96401Y96113D01*
X96421Y96109D01*
X96439Y96100D01*
X96575Y96074D01*
X96711Y96043D01*
X96732Y96044D01*
X96751Y96040D01*
X96890Y96049D01*
X97029Y96053D01*
X97049Y96059D01*
X97069Y96060D01*
X97201Y96103D01*
X97335Y96141D01*
X97352Y96152D01*
X97371Y96158D01*
X97489Y96233D01*
X97609Y96303D01*
X97630Y96322D01*
X97640Y96328D01*
X97654Y96343D01*
X97729Y96409D01*
X102888Y101568D01*
X102895Y101573D01*
X102996Y101637D01*
X103024Y101667D01*
X103057Y101690D01*
X103133Y101782D01*
X103214Y101869D01*
X103234Y101904D01*
X103259Y101935D01*
X103310Y102043D01*
X103368Y102147D01*
X103378Y102187D01*
X103395Y102223D01*
X103417Y102340D01*
X103447Y102455D01*
X103451Y102515D01*
X103455Y102535D01*
X103453Y102556D01*
X103457Y102616D01*
X103457Y114557D01*
X104600Y115700D01*
X104677Y115799D01*
X104760Y115894D01*
X104775Y115925D01*
X104795Y115951D01*
X104845Y116067D01*
X104901Y116179D01*
X104908Y116212D01*
X104922Y116243D01*
X104941Y116367D01*
X104968Y116490D01*
X104966Y116524D01*
X104971Y116557D01*
X104960Y116683D01*
X104954Y116808D01*
X104945Y116840D01*
X104942Y116874D01*
X104899Y116992D01*
X104863Y117113D01*
X104845Y117141D01*
X104834Y117173D01*
X104763Y117277D01*
X104698Y117385D01*
X104674Y117408D01*
X104655Y117436D01*
X104561Y117520D01*
X104471Y117608D01*
X104431Y117634D01*
X104417Y117647D01*
X104398Y117657D01*
X104337Y117697D01*
X103930Y117932D01*
X103457Y118405D01*
X103122Y118984D01*
X102949Y119631D01*
X102949Y122841D01*
X109260Y122841D01*
X109378Y122856D01*
X109497Y122863D01*
X109535Y122875D01*
X109575Y122881D01*
X109686Y122924D01*
X109799Y122961D01*
X109833Y122983D01*
X109871Y122998D01*
X109967Y123067D01*
X110068Y123131D01*
X110096Y123161D01*
X110128Y123184D01*
X110204Y123276D01*
X110286Y123363D01*
X110305Y123398D01*
X110331Y123429D01*
X110382Y123537D01*
X110439Y123641D01*
X110449Y123681D01*
X110467Y123717D01*
X110489Y123834D01*
X110519Y123949D01*
X110523Y124009D01*
X110526Y124029D01*
X110525Y124050D01*
X110529Y124110D01*
X110529Y125301D01*
X111720Y125301D01*
X111838Y125316D01*
X111957Y125323D01*
X111995Y125336D01*
X112036Y125341D01*
X112146Y125385D01*
X112259Y125421D01*
X112294Y125443D01*
X112331Y125458D01*
X112427Y125528D01*
X112528Y125591D01*
X112556Y125621D01*
X112589Y125645D01*
X112665Y125736D01*
X112746Y125823D01*
X112766Y125858D01*
X112791Y125890D01*
X112842Y125997D01*
X112900Y126102D01*
X112910Y126141D01*
X112927Y126177D01*
X112949Y126294D01*
X112979Y126410D01*
X112983Y126470D01*
X112987Y126490D01*
X112985Y126510D01*
X112989Y126570D01*
X112989Y133256D01*
X115824Y133256D01*
X116471Y133083D01*
X117050Y132748D01*
X117572Y132226D01*
X117666Y132153D01*
X117755Y132075D01*
X117791Y132056D01*
X117823Y132031D01*
X117932Y131984D01*
X118038Y131930D01*
X118078Y131921D01*
X118115Y131905D01*
X118233Y131886D01*
X118349Y131860D01*
X118389Y131862D01*
X118429Y131855D01*
X118547Y131866D01*
X118666Y131870D01*
X118705Y131881D01*
X118746Y131885D01*
X118857Y131925D01*
X118972Y131958D01*
X119007Y131979D01*
X119045Y131993D01*
X119143Y132059D01*
X119246Y132120D01*
X119291Y132160D01*
X119308Y132171D01*
X119321Y132187D01*
X119367Y132226D01*
X119888Y132748D01*
X120396Y132748D01*
X120514Y132763D01*
X120633Y132770D01*
X120671Y132783D01*
X120712Y132788D01*
X120822Y132831D01*
X120935Y132868D01*
X120970Y132890D01*
X121007Y132905D01*
X121103Y132974D01*
X121204Y133038D01*
X121232Y133068D01*
X121265Y133091D01*
X121341Y133183D01*
X121422Y133270D01*
X121442Y133305D01*
X121467Y133336D01*
X121518Y133444D01*
X121576Y133548D01*
X121586Y133588D01*
X121603Y133624D01*
X121625Y133741D01*
X121655Y133856D01*
X121659Y133916D01*
X121663Y133936D01*
X121661Y133957D01*
X121665Y134017D01*
X121665Y140114D01*
X132936Y151385D01*
X150274Y151385D01*
X162515Y139144D01*
X162515Y134497D01*
X162532Y134360D01*
X162537Y134310D01*
X162537Y134306D01*
X162537Y134305D01*
X162545Y134221D01*
X162552Y134202D01*
X162555Y134182D01*
X162606Y134053D01*
X162653Y133922D01*
X162664Y133905D01*
X162672Y133886D01*
X162753Y133774D01*
X162831Y133659D01*
X162847Y133645D01*
X162858Y133629D01*
X162966Y133540D01*
X163070Y133448D01*
X163088Y133439D01*
X163103Y133426D01*
X163229Y133367D01*
X163353Y133304D01*
X163373Y133299D01*
X163391Y133290D01*
X163527Y133264D01*
X163663Y133234D01*
X163684Y133234D01*
X163703Y133231D01*
X163842Y133239D01*
X163981Y133244D01*
X164001Y133249D01*
X164021Y133250D01*
X164153Y133293D01*
X164287Y133332D01*
X164304Y133342D01*
X164323Y133348D01*
X164441Y133423D01*
X164561Y133493D01*
X164582Y133512D01*
X164592Y133519D01*
X164606Y133534D01*
X164681Y133600D01*
X168496Y137415D01*
X185834Y137415D01*
X188215Y135034D01*
X188215Y129404D01*
X188230Y129286D01*
X188237Y129167D01*
X188250Y129129D01*
X188255Y129088D01*
X188298Y128978D01*
X188335Y128865D01*
X188357Y128830D01*
X188372Y128793D01*
X188441Y128697D01*
X188505Y128596D01*
X188535Y128568D01*
X188558Y128535D01*
X188650Y128459D01*
X188737Y128378D01*
X188772Y128358D01*
X188803Y128333D01*
X188911Y128282D01*
X189015Y128224D01*
X189055Y128214D01*
X189091Y128197D01*
X189208Y128175D01*
X189323Y128145D01*
X189383Y128141D01*
X189403Y128137D01*
X189424Y128139D01*
X189484Y128135D01*
X208005Y128135D01*
X208103Y128147D01*
X208202Y128150D01*
X208260Y128167D01*
X208321Y128175D01*
X208413Y128211D01*
X208508Y128239D01*
X208560Y128269D01*
X208616Y128292D01*
X208660Y128323D01*
X211174Y129365D01*
X213786Y129365D01*
X216199Y128365D01*
X218045Y126519D01*
X219045Y124106D01*
X219045Y123779D01*
X219057Y123681D01*
X219060Y123582D01*
X219077Y123524D01*
X219085Y123464D01*
X219121Y123372D01*
X219149Y123277D01*
X219179Y123225D01*
X219202Y123168D01*
X219260Y123088D01*
X219310Y123003D01*
X219376Y122927D01*
X219388Y122911D01*
X219398Y122903D01*
X219416Y122882D01*
X229261Y113038D01*
X229370Y112953D01*
X229477Y112864D01*
X229496Y112855D01*
X229512Y112843D01*
X229640Y112787D01*
X229765Y112728D01*
X229785Y112725D01*
X229804Y112717D01*
X229942Y112695D01*
X230078Y112669D01*
X230098Y112670D01*
X230118Y112667D01*
X230257Y112680D01*
X230395Y112688D01*
X230414Y112695D01*
X230434Y112697D01*
X230566Y112744D01*
X230697Y112786D01*
X230715Y112797D01*
X230734Y112804D01*
X230849Y112882D01*
X230966Y112957D01*
X230980Y112971D01*
X230997Y112983D01*
X231089Y113087D01*
X231184Y113188D01*
X231194Y113206D01*
X231207Y113221D01*
X231271Y113345D01*
X231338Y113467D01*
X231343Y113486D01*
X231352Y113504D01*
X231382Y113640D01*
X231417Y113775D01*
X231419Y113803D01*
X231422Y113815D01*
X231421Y113835D01*
X231427Y113935D01*
X231427Y123742D01*
X232618Y124933D01*
X250190Y124933D01*
X250308Y124948D01*
X250427Y124955D01*
X250465Y124968D01*
X250506Y124973D01*
X250616Y125016D01*
X250729Y125053D01*
X250764Y125075D01*
X250801Y125090D01*
X250897Y125159D01*
X250998Y125223D01*
X251026Y125253D01*
X251059Y125276D01*
X251135Y125368D01*
X251216Y125455D01*
X251236Y125490D01*
X251261Y125521D01*
X251312Y125629D01*
X251370Y125733D01*
X251380Y125773D01*
X251397Y125809D01*
X251419Y125926D01*
X251449Y126041D01*
X251453Y126101D01*
X251457Y126121D01*
X251455Y126142D01*
X251459Y126202D01*
X251459Y152400D01*
X251457Y152422D01*
X251455Y152500D01*
X251190Y155877D01*
X251176Y155945D01*
X251171Y156014D01*
X251131Y156170D01*
X249044Y162594D01*
X248993Y162701D01*
X248950Y162812D01*
X248917Y162863D01*
X248909Y162882D01*
X248896Y162897D01*
X248864Y162948D01*
X247171Y165278D01*
X247153Y165297D01*
X247139Y165320D01*
X247044Y165413D01*
X246953Y165509D01*
X246931Y165524D01*
X246912Y165542D01*
X246798Y165608D01*
X246792Y165624D01*
X246789Y165651D01*
X246740Y165775D01*
X246697Y165900D01*
X246682Y165922D01*
X246672Y165947D01*
X246586Y166083D01*
X244893Y168412D01*
X244812Y168499D01*
X244736Y168591D01*
X244690Y168629D01*
X244676Y168644D01*
X244658Y168655D01*
X244612Y168693D01*
X239148Y172664D01*
X239044Y172721D01*
X238944Y172785D01*
X238887Y172807D01*
X238869Y172817D01*
X238849Y172822D01*
X238794Y172844D01*
X232370Y174931D01*
X232302Y174944D01*
X232236Y174967D01*
X232077Y174990D01*
X228700Y175255D01*
X228678Y175254D01*
X228600Y175259D01*
X202722Y175259D01*
X202578Y175241D01*
X202432Y175226D01*
X202420Y175221D01*
X202406Y175219D01*
X202272Y175166D01*
X202134Y175115D01*
X202123Y175107D01*
X202111Y175102D01*
X201993Y175017D01*
X201873Y174934D01*
X201864Y174924D01*
X201853Y174916D01*
X201760Y174803D01*
X201665Y174693D01*
X201659Y174681D01*
X201651Y174671D01*
X201588Y174539D01*
X201524Y174408D01*
X201521Y174395D01*
X201515Y174383D01*
X201488Y174240D01*
X201457Y174097D01*
X201458Y174084D01*
X201455Y174071D01*
X201464Y173925D01*
X201470Y173780D01*
X201474Y173767D01*
X201475Y173753D01*
X201520Y173615D01*
X201562Y173475D01*
X201569Y173463D01*
X201573Y173451D01*
X201651Y173328D01*
X201726Y173203D01*
X201736Y173193D01*
X201743Y173182D01*
X201850Y173082D01*
X201953Y172980D01*
X201969Y172970D01*
X201975Y172964D01*
X201990Y172956D01*
X202087Y172891D01*
X202901Y172421D01*
X205581Y167780D01*
X205581Y162420D01*
X202901Y157779D01*
X198260Y155099D01*
X192900Y155099D01*
X188259Y157779D01*
X185579Y162420D01*
X185579Y167780D01*
X188259Y172421D01*
X189073Y172891D01*
X189188Y172979D01*
X189307Y173064D01*
X189315Y173075D01*
X189326Y173083D01*
X189416Y173197D01*
X189509Y173309D01*
X189515Y173322D01*
X189524Y173332D01*
X189583Y173466D01*
X189645Y173597D01*
X189647Y173610D01*
X189653Y173623D01*
X189678Y173767D01*
X189705Y173910D01*
X189704Y173923D01*
X189706Y173936D01*
X189694Y174082D01*
X189685Y174227D01*
X189681Y174240D01*
X189680Y174253D01*
X189632Y174391D01*
X189587Y174529D01*
X189580Y174541D01*
X189575Y174554D01*
X189495Y174675D01*
X189417Y174798D01*
X189407Y174807D01*
X189399Y174819D01*
X189291Y174916D01*
X189185Y175016D01*
X189173Y175023D01*
X189163Y175032D01*
X189034Y175099D01*
X188907Y175170D01*
X188894Y175173D01*
X188882Y175179D01*
X188740Y175213D01*
X188599Y175249D01*
X188580Y175250D01*
X188572Y175252D01*
X188555Y175252D01*
X188438Y175259D01*
X25400Y175259D01*
X25378Y175257D01*
X25300Y175255D01*
X21923Y174990D01*
X21855Y174976D01*
X21786Y174971D01*
X21630Y174931D01*
X18892Y174041D01*
X18867Y174030D01*
X18841Y174024D01*
X18724Y173962D01*
X18604Y173906D01*
X18583Y173889D01*
X18560Y173877D01*
X18462Y173789D01*
X18445Y173788D01*
X18418Y173793D01*
X18286Y173785D01*
X18153Y173783D01*
X18128Y173775D01*
X18101Y173774D01*
X17945Y173734D01*
X15206Y172844D01*
X15099Y172794D01*
X14988Y172750D01*
X14937Y172717D01*
X14918Y172709D01*
X14903Y172696D01*
X14852Y172664D01*
X9388Y168693D01*
X9301Y168612D01*
X9209Y168536D01*
X9171Y168490D01*
X9156Y168476D01*
X9145Y168458D01*
X9107Y168412D01*
X5136Y162948D01*
X5079Y162844D01*
X5015Y162744D01*
X4993Y162687D01*
X4983Y162669D01*
X4978Y162649D01*
X4956Y162594D01*
X2869Y156170D01*
X2856Y156102D01*
X2833Y156036D01*
X2810Y155877D01*
X2545Y152500D01*
X2546Y152478D01*
X2541Y152400D01*
X2541Y126202D01*
X2556Y126084D01*
X2563Y125965D01*
X2576Y125927D01*
X2581Y125886D01*
X2624Y125776D01*
X2661Y125663D01*
X2683Y125628D01*
X2698Y125591D01*
X2767Y125495D01*
X2831Y125394D01*
X2861Y125366D01*
X2884Y125333D01*
X2976Y125257D01*
X3063Y125176D01*
X3098Y125156D01*
X3129Y125131D01*
X3237Y125080D01*
X3341Y125022D01*
X3381Y125012D01*
X3417Y124995D01*
X3534Y124973D01*
X3649Y124943D01*
X3709Y124939D01*
X3729Y124935D01*
X3750Y124937D01*
X3810Y124933D01*
X21382Y124933D01*
X22212Y124102D01*
X22290Y124042D01*
X22363Y123974D01*
X22416Y123945D01*
X22464Y123908D01*
X22554Y123868D01*
X22641Y123820D01*
X22700Y123805D01*
X22755Y123781D01*
X22853Y123766D01*
X22949Y123741D01*
X23049Y123735D01*
X23069Y123731D01*
X23082Y123732D01*
X23110Y123731D01*
X26061Y123731D01*
X26061Y119189D01*
X23842Y119189D01*
X23724Y119174D01*
X23605Y119167D01*
X23567Y119154D01*
X23526Y119149D01*
X23416Y119106D01*
X23303Y119069D01*
X23268Y119047D01*
X23231Y119032D01*
X23135Y118963D01*
X23034Y118899D01*
X23006Y118869D01*
X22973Y118846D01*
X22897Y118754D01*
X22816Y118667D01*
X22796Y118632D01*
X22771Y118601D01*
X22720Y118493D01*
X22662Y118389D01*
X22652Y118349D01*
X22635Y118313D01*
X22613Y118196D01*
X22583Y118081D01*
X22579Y118021D01*
X22575Y118001D01*
X22577Y117980D01*
X22573Y117920D01*
X22573Y110058D01*
X21382Y108867D01*
X3810Y108867D01*
X3692Y108852D01*
X3573Y108845D01*
X3535Y108832D01*
X3494Y108827D01*
X3384Y108784D01*
X3271Y108747D01*
X3236Y108725D01*
X3199Y108710D01*
X3103Y108641D01*
X3002Y108577D01*
X2974Y108547D01*
X2941Y108524D01*
X2865Y108432D01*
X2784Y108345D01*
X2764Y108310D01*
X2739Y108279D01*
X2688Y108171D01*
X2630Y108067D01*
X2620Y108027D01*
X2603Y107991D01*
X2581Y107874D01*
X2551Y107759D01*
X2547Y107699D01*
X2543Y107679D01*
X2545Y107658D01*
X2541Y107598D01*
X2541Y70202D01*
X2556Y70084D01*
X2563Y69965D01*
X2576Y69927D01*
X2581Y69886D01*
X2624Y69776D01*
X2661Y69663D01*
X2683Y69628D01*
X2698Y69591D01*
X2767Y69495D01*
X2831Y69394D01*
X2861Y69366D01*
X2884Y69333D01*
X2976Y69257D01*
X3063Y69176D01*
X3098Y69156D01*
X3129Y69131D01*
X3237Y69080D01*
X3341Y69022D01*
X3381Y69012D01*
X3417Y68995D01*
X3534Y68973D01*
X3649Y68943D01*
X3709Y68939D01*
X3729Y68935D01*
X3750Y68937D01*
X3810Y68933D01*
X21382Y68933D01*
X22573Y67742D01*
X22573Y54058D01*
X21382Y52867D01*
X3810Y52867D01*
X3692Y52852D01*
X3573Y52845D01*
X3535Y52832D01*
X3494Y52827D01*
X3384Y52784D01*
X3271Y52747D01*
X3236Y52725D01*
X3199Y52710D01*
X3103Y52641D01*
X3002Y52577D01*
X2974Y52547D01*
X2941Y52524D01*
X2865Y52432D01*
X2784Y52345D01*
X2764Y52310D01*
X2739Y52279D01*
X2688Y52171D01*
X2630Y52067D01*
X2620Y52027D01*
X2603Y51991D01*
X2581Y51874D01*
X2551Y51759D01*
X2547Y51699D01*
X2543Y51679D01*
X2545Y51658D01*
X2541Y51598D01*
X2541Y25400D01*
X2543Y25378D01*
X2545Y25300D01*
X2810Y21923D01*
X2824Y21855D01*
X2829Y21786D01*
X2869Y21630D01*
X4956Y15206D01*
X5006Y15099D01*
X5050Y14988D01*
X5083Y14937D01*
X5091Y14918D01*
X5104Y14903D01*
X5136Y14852D01*
X9107Y9388D01*
X9127Y9366D01*
X9138Y9348D01*
X9184Y9305D01*
X9188Y9301D01*
X9264Y9209D01*
X9310Y9171D01*
X9324Y9156D01*
X9342Y9145D01*
X9388Y9107D01*
X14852Y5136D01*
X14956Y5079D01*
X15056Y5015D01*
X15113Y4993D01*
X15131Y4983D01*
X15151Y4978D01*
X15206Y4956D01*
X17945Y4066D01*
X17971Y4061D01*
X17996Y4051D01*
X18127Y4031D01*
X18257Y4006D01*
X18284Y4008D01*
X18310Y4004D01*
X18441Y4018D01*
X18455Y4008D01*
X18474Y3989D01*
X18585Y3917D01*
X18694Y3842D01*
X18719Y3832D01*
X18742Y3818D01*
X18892Y3759D01*
X21630Y2869D01*
X21698Y2856D01*
X21764Y2833D01*
X21923Y2810D01*
X25300Y2545D01*
X25322Y2546D01*
X25400Y2541D01*
X228600Y2541D01*
X228622Y2543D01*
G37*
%LPC*%
G36*
X23676Y5780D02*
X23676Y5780D01*
X23658Y5780D01*
X23543Y5787D01*
X21499Y5787D01*
X20951Y6014D01*
X20852Y6041D01*
X20757Y6077D01*
X20665Y6092D01*
X20644Y6098D01*
X20631Y6098D01*
X20598Y6104D01*
X19416Y6228D01*
X19390Y6227D01*
X19364Y6232D01*
X19231Y6224D01*
X19173Y6223D01*
X19147Y6250D01*
X19125Y6265D01*
X19106Y6283D01*
X18972Y6372D01*
X16215Y7964D01*
X16213Y7965D01*
X16210Y7967D01*
X16066Y8038D01*
X14290Y8773D01*
X13693Y9370D01*
X13626Y9422D01*
X13565Y9483D01*
X13451Y9558D01*
X13442Y9565D01*
X13438Y9567D01*
X13431Y9572D01*
X11929Y10439D01*
X10139Y12903D01*
X10126Y12917D01*
X10116Y12933D01*
X10009Y13054D01*
X8773Y14290D01*
X8357Y15296D01*
X8322Y15356D01*
X8297Y15420D01*
X8211Y15556D01*
X7008Y17211D01*
X6447Y19849D01*
X6436Y19883D01*
X6431Y19919D01*
X6379Y20071D01*
X5787Y21499D01*
X5787Y22822D01*
X5781Y22874D01*
X5783Y22926D01*
X5760Y23086D01*
X5268Y25400D01*
X5760Y27714D01*
X5764Y27767D01*
X5777Y27817D01*
X5787Y27978D01*
X5787Y29301D01*
X6379Y30729D01*
X6388Y30763D01*
X6404Y30795D01*
X6447Y30951D01*
X7008Y33589D01*
X8211Y35244D01*
X8244Y35305D01*
X8286Y35360D01*
X8357Y35504D01*
X8773Y36510D01*
X10009Y37746D01*
X10021Y37761D01*
X10036Y37773D01*
X10139Y37897D01*
X11929Y40361D01*
X13431Y41228D01*
X13499Y41280D01*
X13573Y41324D01*
X13675Y41414D01*
X13684Y41421D01*
X13687Y41424D01*
X13693Y41430D01*
X14290Y42027D01*
X16066Y42762D01*
X16068Y42764D01*
X16071Y42764D01*
X16215Y42836D01*
X19179Y44547D01*
X20598Y44696D01*
X20698Y44720D01*
X20799Y44734D01*
X20887Y44764D01*
X20908Y44769D01*
X20920Y44775D01*
X20951Y44786D01*
X21499Y45013D01*
X23543Y45013D01*
X23560Y45015D01*
X23676Y45020D01*
X27504Y45422D01*
X28573Y45075D01*
X28690Y45053D01*
X28805Y45023D01*
X28865Y45019D01*
X28885Y45015D01*
X28906Y45017D01*
X28965Y45013D01*
X29301Y45013D01*
X31209Y44223D01*
X31230Y44217D01*
X31303Y44188D01*
X35466Y42835D01*
X36078Y42285D01*
X36189Y42207D01*
X36297Y42126D01*
X36327Y42111D01*
X36339Y42103D01*
X36359Y42096D01*
X36441Y42055D01*
X36510Y42027D01*
X37805Y40732D01*
X37819Y40721D01*
X37853Y40686D01*
X40865Y37974D01*
X40963Y37906D01*
X41056Y37832D01*
X41093Y37816D01*
X41126Y37793D01*
X41238Y37751D01*
X41347Y37703D01*
X41386Y37696D01*
X41424Y37682D01*
X41542Y37669D01*
X41660Y37649D01*
X41700Y37653D01*
X41740Y37649D01*
X41858Y37666D01*
X41977Y37676D01*
X42012Y37688D01*
X41990Y37631D01*
X41947Y37544D01*
X41934Y37482D01*
X41912Y37424D01*
X41901Y37328D01*
X41881Y37233D01*
X41883Y37170D01*
X41876Y37107D01*
X41890Y37012D01*
X41894Y36915D01*
X41912Y36855D01*
X41921Y36793D01*
X41973Y36640D01*
X42250Y35971D01*
X42255Y35962D01*
X42263Y35941D01*
X45092Y29586D01*
X45092Y21214D01*
X42263Y14859D01*
X42260Y14849D01*
X42250Y14829D01*
X41994Y14211D01*
X41975Y14187D01*
X41970Y14179D01*
X41968Y14175D01*
X41963Y14164D01*
X41900Y14044D01*
X41687Y13566D01*
X37853Y10114D01*
X37841Y10100D01*
X37805Y10068D01*
X36510Y8773D01*
X36441Y8745D01*
X36324Y8678D01*
X36204Y8615D01*
X36177Y8594D01*
X36165Y8587D01*
X36149Y8572D01*
X36078Y8515D01*
X35466Y7965D01*
X31302Y6612D01*
X31283Y6603D01*
X31209Y6577D01*
X29301Y5787D01*
X28965Y5787D01*
X28847Y5772D01*
X28729Y5765D01*
X28670Y5750D01*
X28650Y5747D01*
X28631Y5740D01*
X28573Y5725D01*
X27504Y5378D01*
X23676Y5780D01*
G37*
%LPD*%
%LPC*%
G36*
X226876Y5780D02*
X226876Y5780D01*
X226858Y5780D01*
X226743Y5787D01*
X224699Y5787D01*
X224151Y6014D01*
X224053Y6041D01*
X223957Y6077D01*
X223865Y6092D01*
X223844Y6098D01*
X223830Y6098D01*
X223798Y6104D01*
X222379Y6253D01*
X219415Y7964D01*
X219413Y7965D01*
X219410Y7967D01*
X219266Y8038D01*
X217490Y8773D01*
X216893Y9370D01*
X216826Y9422D01*
X216765Y9483D01*
X216651Y9558D01*
X216642Y9565D01*
X216638Y9567D01*
X216631Y9572D01*
X215129Y10439D01*
X213339Y12903D01*
X213326Y12917D01*
X213316Y12933D01*
X213209Y13054D01*
X211973Y14290D01*
X211557Y15296D01*
X211522Y15356D01*
X211497Y15420D01*
X211411Y15556D01*
X210208Y17211D01*
X209647Y19849D01*
X209636Y19883D01*
X209631Y19919D01*
X209579Y20071D01*
X208987Y21499D01*
X208987Y22822D01*
X208981Y22874D01*
X208983Y22926D01*
X208960Y23086D01*
X208468Y25400D01*
X208960Y27714D01*
X208964Y27767D01*
X208977Y27817D01*
X208987Y27978D01*
X208987Y29301D01*
X209579Y30729D01*
X209588Y30763D01*
X209604Y30795D01*
X209647Y30951D01*
X210208Y33589D01*
X211411Y35244D01*
X211444Y35305D01*
X211486Y35360D01*
X211557Y35504D01*
X211973Y36510D01*
X213209Y37746D01*
X213221Y37761D01*
X213236Y37773D01*
X213339Y37897D01*
X215129Y40361D01*
X216631Y41228D01*
X216699Y41280D01*
X216773Y41324D01*
X216875Y41414D01*
X216884Y41421D01*
X216887Y41424D01*
X216893Y41430D01*
X217490Y42027D01*
X219266Y42762D01*
X219268Y42764D01*
X219271Y42764D01*
X219415Y42836D01*
X222379Y44547D01*
X223798Y44696D01*
X223897Y44720D01*
X223999Y44734D01*
X224087Y44764D01*
X224108Y44769D01*
X224120Y44775D01*
X224151Y44786D01*
X224699Y45013D01*
X226743Y45013D01*
X226760Y45015D01*
X226876Y45020D01*
X230704Y45422D01*
X231773Y45075D01*
X231890Y45053D01*
X232005Y45023D01*
X232065Y45019D01*
X232085Y45015D01*
X232106Y45017D01*
X232165Y45013D01*
X232501Y45013D01*
X234409Y44223D01*
X234430Y44217D01*
X234503Y44188D01*
X238666Y42835D01*
X239278Y42285D01*
X239389Y42207D01*
X239497Y42126D01*
X239527Y42111D01*
X239539Y42103D01*
X239559Y42096D01*
X239641Y42055D01*
X239710Y42027D01*
X241005Y40732D01*
X241019Y40721D01*
X241053Y40686D01*
X244887Y37234D01*
X245100Y36756D01*
X245179Y36626D01*
X245450Y35971D01*
X245455Y35963D01*
X245463Y35941D01*
X248292Y29586D01*
X248292Y21214D01*
X245463Y14859D01*
X245460Y14849D01*
X245450Y14829D01*
X245194Y14211D01*
X245175Y14187D01*
X245170Y14178D01*
X245168Y14175D01*
X245163Y14165D01*
X245100Y14044D01*
X244985Y13785D01*
X244977Y13759D01*
X244964Y13736D01*
X244931Y13607D01*
X244914Y13552D01*
X244880Y13536D01*
X244860Y13519D01*
X244836Y13507D01*
X244710Y13407D01*
X241053Y10114D01*
X241041Y10100D01*
X241005Y10068D01*
X239710Y8773D01*
X239641Y8745D01*
X239524Y8678D01*
X239404Y8615D01*
X239377Y8594D01*
X239365Y8587D01*
X239349Y8572D01*
X239278Y8515D01*
X238666Y7965D01*
X234502Y6612D01*
X234483Y6603D01*
X234409Y6577D01*
X232501Y5787D01*
X232165Y5787D01*
X232047Y5772D01*
X231929Y5765D01*
X231870Y5750D01*
X231850Y5747D01*
X231831Y5740D01*
X231773Y5725D01*
X230704Y5378D01*
X226876Y5780D01*
G37*
%LPD*%
%LPC*%
G36*
X226876Y132780D02*
X226876Y132780D01*
X226858Y132780D01*
X226743Y132787D01*
X224699Y132787D01*
X224151Y133014D01*
X224052Y133041D01*
X223957Y133077D01*
X223865Y133092D01*
X223844Y133098D01*
X223831Y133098D01*
X223798Y133104D01*
X222379Y133253D01*
X219415Y134964D01*
X219413Y134965D01*
X219410Y134967D01*
X219266Y135038D01*
X217490Y135773D01*
X216893Y136370D01*
X216826Y136422D01*
X216765Y136483D01*
X216651Y136558D01*
X216642Y136565D01*
X216638Y136567D01*
X216631Y136572D01*
X215129Y137439D01*
X213339Y139903D01*
X213326Y139917D01*
X213316Y139933D01*
X213209Y140054D01*
X211973Y141290D01*
X211557Y142296D01*
X211522Y142356D01*
X211497Y142420D01*
X211411Y142556D01*
X210208Y144211D01*
X209647Y146849D01*
X209636Y146883D01*
X209631Y146919D01*
X209579Y147071D01*
X208987Y148499D01*
X208987Y149822D01*
X208981Y149874D01*
X208983Y149926D01*
X208960Y150086D01*
X208468Y152400D01*
X208960Y154714D01*
X208964Y154767D01*
X208977Y154817D01*
X208987Y154978D01*
X208987Y156301D01*
X209579Y157729D01*
X209588Y157763D01*
X209604Y157795D01*
X209647Y157951D01*
X210208Y160589D01*
X211411Y162244D01*
X211444Y162305D01*
X211486Y162360D01*
X211557Y162504D01*
X211973Y163510D01*
X213209Y164746D01*
X213221Y164761D01*
X213236Y164773D01*
X213339Y164897D01*
X215129Y167361D01*
X216631Y168228D01*
X216699Y168280D01*
X216773Y168324D01*
X216875Y168414D01*
X216884Y168421D01*
X216887Y168424D01*
X216893Y168430D01*
X217490Y169027D01*
X219266Y169762D01*
X219268Y169764D01*
X219271Y169764D01*
X219415Y169836D01*
X222379Y171547D01*
X223798Y171696D01*
X223898Y171720D01*
X223999Y171734D01*
X224087Y171764D01*
X224108Y171769D01*
X224120Y171775D01*
X224151Y171786D01*
X224699Y172013D01*
X226743Y172013D01*
X226760Y172015D01*
X226876Y172020D01*
X230704Y172422D01*
X231773Y172075D01*
X231890Y172053D01*
X232005Y172023D01*
X232065Y172019D01*
X232085Y172015D01*
X232106Y172017D01*
X232165Y172013D01*
X232501Y172013D01*
X234409Y171223D01*
X234430Y171217D01*
X234503Y171188D01*
X238666Y169835D01*
X239278Y169285D01*
X239389Y169207D01*
X239497Y169126D01*
X239527Y169111D01*
X239539Y169103D01*
X239559Y169096D01*
X239641Y169055D01*
X239710Y169027D01*
X241005Y167732D01*
X241019Y167721D01*
X241053Y167686D01*
X244710Y164393D01*
X244732Y164378D01*
X244750Y164359D01*
X244862Y164288D01*
X244910Y164254D01*
X244914Y164217D01*
X244924Y164192D01*
X244929Y164166D01*
X244985Y164015D01*
X245100Y163756D01*
X245179Y163626D01*
X245450Y162971D01*
X245455Y162963D01*
X245463Y162941D01*
X248292Y156586D01*
X248292Y148214D01*
X245463Y141859D01*
X245460Y141849D01*
X245450Y141829D01*
X245194Y141211D01*
X245175Y141187D01*
X245170Y141179D01*
X245168Y141175D01*
X245163Y141164D01*
X245100Y141044D01*
X244887Y140566D01*
X241053Y137114D01*
X241041Y137100D01*
X241005Y137068D01*
X239710Y135773D01*
X239641Y135745D01*
X239524Y135678D01*
X239404Y135615D01*
X239377Y135594D01*
X239365Y135587D01*
X239349Y135572D01*
X239278Y135515D01*
X238666Y134965D01*
X234502Y133612D01*
X234483Y133603D01*
X234409Y133577D01*
X232501Y132787D01*
X232165Y132787D01*
X232047Y132772D01*
X231929Y132765D01*
X231870Y132750D01*
X231850Y132747D01*
X231831Y132740D01*
X231773Y132725D01*
X230704Y132378D01*
X226876Y132780D01*
G37*
%LPD*%
G36*
X131215Y32821D02*
X131215Y32821D01*
X131334Y32825D01*
X131373Y32836D01*
X131413Y32840D01*
X131525Y32880D01*
X131640Y32913D01*
X131674Y32934D01*
X131712Y32948D01*
X131811Y33015D01*
X131914Y33075D01*
X131959Y33115D01*
X131976Y33126D01*
X131989Y33142D01*
X132034Y33181D01*
X133513Y34660D01*
X137527Y36323D01*
X141478Y36323D01*
X141596Y36338D01*
X141715Y36345D01*
X141753Y36358D01*
X141794Y36363D01*
X141904Y36406D01*
X142017Y36443D01*
X142052Y36465D01*
X142089Y36480D01*
X142185Y36549D01*
X142286Y36613D01*
X142314Y36643D01*
X142347Y36666D01*
X142423Y36758D01*
X142504Y36845D01*
X142524Y36880D01*
X142549Y36911D01*
X142600Y37019D01*
X142658Y37123D01*
X142668Y37163D01*
X142685Y37199D01*
X142707Y37316D01*
X142737Y37431D01*
X142741Y37491D01*
X142745Y37511D01*
X142743Y37532D01*
X142747Y37592D01*
X142747Y55723D01*
X142735Y55821D01*
X142732Y55920D01*
X142715Y55979D01*
X142707Y56039D01*
X142671Y56131D01*
X142643Y56226D01*
X142613Y56278D01*
X142590Y56334D01*
X142532Y56414D01*
X142482Y56500D01*
X142416Y56575D01*
X142404Y56592D01*
X142394Y56599D01*
X142376Y56621D01*
X140485Y58511D01*
X139485Y60924D01*
X139485Y63536D01*
X140485Y65949D01*
X142331Y67795D01*
X143848Y68423D01*
X143909Y68458D01*
X143973Y68484D01*
X144046Y68536D01*
X144124Y68581D01*
X144174Y68629D01*
X144231Y68670D01*
X144288Y68740D01*
X144352Y68802D01*
X144389Y68862D01*
X144433Y68915D01*
X144472Y68997D01*
X144519Y69073D01*
X144539Y69140D01*
X144569Y69203D01*
X144586Y69291D01*
X144612Y69377D01*
X144616Y69447D01*
X144629Y69516D01*
X144623Y69605D01*
X144627Y69695D01*
X144613Y69763D01*
X144609Y69833D01*
X144581Y69918D01*
X144563Y70006D01*
X144532Y70069D01*
X144511Y70135D01*
X144463Y70211D01*
X144423Y70292D01*
X144378Y70345D01*
X144341Y70404D01*
X144275Y70466D01*
X144217Y70534D01*
X144160Y70574D01*
X144109Y70622D01*
X144030Y70665D01*
X143957Y70717D01*
X143892Y70742D01*
X143831Y70776D01*
X143744Y70798D01*
X143660Y70830D01*
X143590Y70838D01*
X143523Y70855D01*
X143362Y70865D01*
X136746Y70865D01*
X120578Y87034D01*
X120462Y87124D01*
X120349Y87215D01*
X120337Y87221D01*
X120326Y87229D01*
X120192Y87287D01*
X120060Y87348D01*
X120047Y87350D01*
X120034Y87355D01*
X119890Y87378D01*
X119747Y87404D01*
X119734Y87403D01*
X119720Y87405D01*
X119575Y87392D01*
X119430Y87381D01*
X119417Y87377D01*
X119404Y87375D01*
X119267Y87326D01*
X119128Y87280D01*
X119117Y87272D01*
X119104Y87268D01*
X118984Y87186D01*
X118862Y87107D01*
X118852Y87097D01*
X118841Y87089D01*
X118745Y86980D01*
X118646Y86873D01*
X118640Y86861D01*
X118631Y86851D01*
X118564Y86721D01*
X118496Y86593D01*
X118492Y86580D01*
X118486Y86568D01*
X118454Y86425D01*
X118419Y86284D01*
X118419Y86270D01*
X118417Y86257D01*
X118421Y86111D01*
X118422Y85966D01*
X118426Y85948D01*
X118426Y85939D01*
X118431Y85923D01*
X118454Y85808D01*
X118541Y85484D01*
X118541Y85169D01*
X113250Y85169D01*
X113132Y85154D01*
X113013Y85147D01*
X112975Y85135D01*
X112935Y85130D01*
X112824Y85086D01*
X112711Y85049D01*
X112677Y85027D01*
X112639Y85013D01*
X112543Y84943D01*
X112442Y84879D01*
X112442Y84878D01*
X112414Y84849D01*
X112382Y84826D01*
X112382Y84825D01*
X112381Y84825D01*
X112305Y84733D01*
X112224Y84647D01*
X112204Y84611D01*
X112178Y84580D01*
X112128Y84473D01*
X112070Y84368D01*
X112060Y84329D01*
X112043Y84293D01*
X112021Y84176D01*
X111991Y84060D01*
X111987Y84000D01*
X111983Y83980D01*
X111984Y83960D01*
X111981Y83900D01*
X111981Y80109D01*
X110072Y80109D01*
X110062Y80111D01*
X110033Y80109D01*
X110027Y80109D01*
X109996Y80114D01*
X109871Y80099D01*
X109745Y80091D01*
X109713Y80081D01*
X109680Y80077D01*
X109562Y80032D01*
X109443Y79993D01*
X109414Y79975D01*
X109383Y79964D01*
X109280Y79891D01*
X109174Y79823D01*
X109151Y79799D01*
X109124Y79780D01*
X109042Y79683D01*
X108956Y79592D01*
X108940Y79562D01*
X108918Y79537D01*
X108863Y79423D01*
X108802Y79313D01*
X108794Y79281D01*
X108780Y79251D01*
X108754Y79127D01*
X108723Y79005D01*
X108720Y78957D01*
X108716Y78939D01*
X108717Y78917D01*
X108713Y78844D01*
X108713Y64182D01*
X108728Y64064D01*
X108735Y63945D01*
X108748Y63907D01*
X108753Y63866D01*
X108796Y63756D01*
X108833Y63643D01*
X108855Y63608D01*
X108870Y63571D01*
X108939Y63475D01*
X109003Y63374D01*
X109033Y63346D01*
X109056Y63313D01*
X109148Y63237D01*
X109235Y63156D01*
X109270Y63136D01*
X109301Y63111D01*
X109409Y63060D01*
X109513Y63002D01*
X109553Y62992D01*
X109589Y62975D01*
X109706Y62953D01*
X109821Y62923D01*
X109881Y62919D01*
X109901Y62915D01*
X109922Y62917D01*
X109982Y62913D01*
X115827Y62913D01*
X116970Y61770D01*
X117069Y61693D01*
X117164Y61610D01*
X117195Y61595D01*
X117221Y61575D01*
X117337Y61525D01*
X117449Y61469D01*
X117482Y61462D01*
X117513Y61448D01*
X117637Y61429D01*
X117760Y61402D01*
X117794Y61404D01*
X117827Y61399D01*
X117953Y61410D01*
X118078Y61416D01*
X118110Y61425D01*
X118144Y61428D01*
X118262Y61471D01*
X118383Y61507D01*
X118411Y61525D01*
X118443Y61536D01*
X118547Y61607D01*
X118655Y61672D01*
X118678Y61696D01*
X118706Y61715D01*
X118790Y61809D01*
X118878Y61899D01*
X118904Y61939D01*
X118917Y61953D01*
X118927Y61972D01*
X118967Y62033D01*
X119202Y62440D01*
X119675Y62913D01*
X120254Y63248D01*
X120901Y63421D01*
X124111Y63421D01*
X124111Y57110D01*
X124126Y56992D01*
X124133Y56873D01*
X124145Y56835D01*
X124151Y56795D01*
X124194Y56684D01*
X124231Y56571D01*
X124253Y56537D01*
X124268Y56499D01*
X124337Y56403D01*
X124401Y56302D01*
X124431Y56274D01*
X124454Y56242D01*
X124546Y56166D01*
X124633Y56084D01*
X124668Y56065D01*
X124699Y56039D01*
X124807Y55988D01*
X124911Y55931D01*
X124951Y55921D01*
X124987Y55903D01*
X125094Y55883D01*
X125064Y55879D01*
X124954Y55835D01*
X124841Y55799D01*
X124806Y55777D01*
X124769Y55762D01*
X124672Y55692D01*
X124572Y55629D01*
X124544Y55599D01*
X124511Y55575D01*
X124435Y55484D01*
X124354Y55397D01*
X124334Y55362D01*
X124309Y55330D01*
X124258Y55223D01*
X124200Y55118D01*
X124190Y55079D01*
X124173Y55043D01*
X124151Y54926D01*
X124121Y54810D01*
X124117Y54750D01*
X124113Y54730D01*
X124115Y54710D01*
X124111Y54650D01*
X124111Y48339D01*
X120901Y48339D01*
X120254Y48512D01*
X119675Y48847D01*
X119202Y49320D01*
X118967Y49727D01*
X118891Y49827D01*
X118820Y49932D01*
X118795Y49954D01*
X118774Y49981D01*
X118676Y50059D01*
X118582Y50142D01*
X118552Y50157D01*
X118525Y50178D01*
X118411Y50229D01*
X118298Y50287D01*
X118266Y50294D01*
X118235Y50308D01*
X118111Y50329D01*
X117988Y50356D01*
X117954Y50355D01*
X117921Y50361D01*
X117796Y50350D01*
X117670Y50347D01*
X117638Y50337D01*
X117604Y50334D01*
X117486Y50293D01*
X117365Y50258D01*
X117336Y50241D01*
X117304Y50230D01*
X117199Y50161D01*
X117091Y50097D01*
X117054Y50064D01*
X117039Y50054D01*
X117024Y50038D01*
X116970Y49990D01*
X116098Y49118D01*
X116025Y49024D01*
X115946Y48935D01*
X115928Y48899D01*
X115903Y48867D01*
X115855Y48758D01*
X115801Y48652D01*
X115793Y48612D01*
X115776Y48575D01*
X115758Y48457D01*
X115732Y48341D01*
X115733Y48301D01*
X115727Y48261D01*
X115738Y48142D01*
X115741Y48023D01*
X115753Y47984D01*
X115756Y47944D01*
X115797Y47832D01*
X115830Y47718D01*
X115850Y47683D01*
X115864Y47645D01*
X115931Y47546D01*
X115991Y47444D01*
X116031Y47399D01*
X116043Y47382D01*
X116058Y47368D01*
X116098Y47323D01*
X127996Y35424D01*
X130239Y33181D01*
X130334Y33108D01*
X130423Y33030D01*
X130459Y33011D01*
X130491Y32986D01*
X130600Y32939D01*
X130706Y32885D01*
X130745Y32876D01*
X130782Y32860D01*
X130900Y32841D01*
X131016Y32815D01*
X131057Y32817D01*
X131097Y32810D01*
X131215Y32821D01*
G37*
G36*
X134816Y92218D02*
X134816Y92218D01*
X134935Y92225D01*
X134973Y92238D01*
X135014Y92243D01*
X135124Y92286D01*
X135237Y92323D01*
X135272Y92345D01*
X135309Y92360D01*
X135405Y92429D01*
X135506Y92493D01*
X135534Y92523D01*
X135567Y92546D01*
X135643Y92638D01*
X135724Y92725D01*
X135744Y92760D01*
X135769Y92791D01*
X135820Y92899D01*
X135878Y93003D01*
X135888Y93043D01*
X135905Y93079D01*
X135927Y93196D01*
X135957Y93311D01*
X135961Y93371D01*
X135965Y93391D01*
X135963Y93412D01*
X135967Y93472D01*
X135967Y95992D01*
X137158Y97183D01*
X138836Y97183D01*
X138935Y97195D01*
X139034Y97198D01*
X139050Y97203D01*
X147206Y97203D01*
X147304Y97215D01*
X147403Y97218D01*
X147462Y97235D01*
X147522Y97243D01*
X147614Y97279D01*
X147709Y97307D01*
X147761Y97337D01*
X147817Y97360D01*
X147897Y97418D01*
X147983Y97468D01*
X148058Y97534D01*
X148075Y97546D01*
X148082Y97556D01*
X148104Y97574D01*
X148731Y98202D01*
X151111Y99188D01*
X152898Y99188D01*
X153016Y99203D01*
X153135Y99210D01*
X153173Y99223D01*
X153214Y99228D01*
X153324Y99271D01*
X153437Y99308D01*
X153472Y99330D01*
X153509Y99345D01*
X153605Y99414D01*
X153706Y99478D01*
X153734Y99508D01*
X153767Y99531D01*
X153843Y99623D01*
X153924Y99710D01*
X153944Y99745D01*
X153969Y99776D01*
X154020Y99884D01*
X154078Y99988D01*
X154088Y100028D01*
X154105Y100064D01*
X154127Y100181D01*
X154157Y100296D01*
X154161Y100356D01*
X154165Y100376D01*
X154163Y100397D01*
X154167Y100457D01*
X154167Y111142D01*
X155383Y112358D01*
X155439Y112363D01*
X155458Y112370D01*
X155479Y112373D01*
X155608Y112424D01*
X155739Y112471D01*
X155756Y112482D01*
X155774Y112490D01*
X155887Y112571D01*
X156002Y112649D01*
X156015Y112665D01*
X156032Y112676D01*
X156120Y112784D01*
X156212Y112888D01*
X156222Y112906D01*
X156234Y112921D01*
X156294Y113047D01*
X156357Y113171D01*
X156361Y113191D01*
X156370Y113209D01*
X156396Y113346D01*
X156427Y113481D01*
X156426Y113502D01*
X156430Y113521D01*
X156421Y113660D01*
X156417Y113799D01*
X156411Y113819D01*
X156410Y113839D01*
X156367Y113971D01*
X156329Y114105D01*
X156318Y114122D01*
X156312Y114141D01*
X156238Y114259D01*
X156167Y114379D01*
X156148Y114400D01*
X156142Y114410D01*
X156127Y114424D01*
X156061Y114499D01*
X154893Y115667D01*
X154893Y116206D01*
X154881Y116304D01*
X154878Y116403D01*
X154861Y116462D01*
X154853Y116522D01*
X154817Y116614D01*
X154789Y116709D01*
X154759Y116761D01*
X154736Y116817D01*
X154678Y116898D01*
X154628Y116983D01*
X154562Y117058D01*
X154550Y117075D01*
X154540Y117083D01*
X154522Y117104D01*
X154167Y117458D01*
X154167Y128184D01*
X154171Y128192D01*
X154208Y128240D01*
X154248Y128330D01*
X154296Y128417D01*
X154311Y128476D01*
X154335Y128531D01*
X154350Y128629D01*
X154375Y128725D01*
X154381Y128825D01*
X154385Y128845D01*
X154383Y128858D01*
X154385Y128886D01*
X154385Y135251D01*
X154373Y135349D01*
X154370Y135448D01*
X154353Y135506D01*
X154345Y135566D01*
X154309Y135658D01*
X154281Y135753D01*
X154251Y135805D01*
X154228Y135862D01*
X154170Y135942D01*
X154120Y136027D01*
X154054Y136103D01*
X154042Y136119D01*
X154032Y136127D01*
X154014Y136148D01*
X147278Y142884D01*
X147200Y142944D01*
X147128Y143012D01*
X147075Y143041D01*
X147027Y143078D01*
X146936Y143118D01*
X146849Y143166D01*
X146791Y143181D01*
X146735Y143205D01*
X146637Y143220D01*
X146541Y143245D01*
X146441Y143251D01*
X146421Y143255D01*
X146409Y143253D01*
X146381Y143255D01*
X136829Y143255D01*
X136731Y143243D01*
X136632Y143240D01*
X136574Y143223D01*
X136514Y143215D01*
X136422Y143179D01*
X136327Y143151D01*
X136275Y143121D01*
X136218Y143098D01*
X136138Y143040D01*
X136053Y142990D01*
X135977Y142924D01*
X135961Y142912D01*
X135953Y142902D01*
X135932Y142884D01*
X130166Y137118D01*
X130106Y137040D01*
X130038Y136968D01*
X130009Y136915D01*
X129972Y136867D01*
X129932Y136776D01*
X129884Y136689D01*
X129869Y136631D01*
X129845Y136575D01*
X129830Y136477D01*
X129805Y136381D01*
X129799Y136281D01*
X129795Y136261D01*
X129797Y136249D01*
X129795Y136221D01*
X129795Y134017D01*
X129810Y133899D01*
X129817Y133780D01*
X129830Y133742D01*
X129835Y133701D01*
X129878Y133591D01*
X129915Y133478D01*
X129937Y133443D01*
X129952Y133406D01*
X130021Y133310D01*
X130085Y133209D01*
X130115Y133181D01*
X130138Y133148D01*
X130230Y133072D01*
X130317Y132991D01*
X130352Y132971D01*
X130383Y132946D01*
X130491Y132895D01*
X130595Y132837D01*
X130635Y132827D01*
X130671Y132810D01*
X130788Y132788D01*
X130903Y132758D01*
X130963Y132754D01*
X130983Y132750D01*
X131004Y132752D01*
X131064Y132748D01*
X131572Y132748D01*
X132093Y132226D01*
X132187Y132154D01*
X132277Y132075D01*
X132313Y132056D01*
X132345Y132031D01*
X132454Y131984D01*
X132560Y131930D01*
X132599Y131921D01*
X132636Y131905D01*
X132754Y131886D01*
X132870Y131860D01*
X132910Y131862D01*
X132951Y131855D01*
X133069Y131866D01*
X133188Y131870D01*
X133227Y131881D01*
X133267Y131885D01*
X133379Y131925D01*
X133494Y131958D01*
X133528Y131979D01*
X133566Y131993D01*
X133665Y132059D01*
X133767Y132120D01*
X133813Y132160D01*
X133830Y132171D01*
X133843Y132187D01*
X133888Y132226D01*
X134410Y132748D01*
X134989Y133083D01*
X135636Y133256D01*
X138471Y133256D01*
X138471Y126570D01*
X138486Y126452D01*
X138493Y126333D01*
X138505Y126295D01*
X138511Y126255D01*
X138554Y126144D01*
X138591Y126031D01*
X138613Y125997D01*
X138628Y125959D01*
X138697Y125863D01*
X138761Y125762D01*
X138791Y125734D01*
X138814Y125702D01*
X138906Y125626D01*
X138993Y125544D01*
X139028Y125525D01*
X139059Y125499D01*
X139167Y125448D01*
X139271Y125391D01*
X139311Y125381D01*
X139347Y125363D01*
X139464Y125341D01*
X139579Y125311D01*
X139639Y125307D01*
X139659Y125304D01*
X139680Y125305D01*
X139740Y125301D01*
X140931Y125301D01*
X140931Y124110D01*
X140946Y123992D01*
X140953Y123873D01*
X140966Y123835D01*
X140971Y123794D01*
X141015Y123684D01*
X141051Y123571D01*
X141073Y123536D01*
X141088Y123499D01*
X141158Y123402D01*
X141221Y123302D01*
X141251Y123274D01*
X141275Y123241D01*
X141366Y123165D01*
X141453Y123084D01*
X141488Y123064D01*
X141520Y123039D01*
X141627Y122988D01*
X141732Y122930D01*
X141771Y122920D01*
X141807Y122903D01*
X141924Y122881D01*
X142040Y122851D01*
X142100Y122847D01*
X142120Y122843D01*
X142140Y122845D01*
X142200Y122841D01*
X148511Y122841D01*
X148511Y119631D01*
X148338Y118984D01*
X148003Y118405D01*
X147530Y117932D01*
X147123Y117697D01*
X147023Y117621D01*
X146918Y117550D01*
X146896Y117525D01*
X146869Y117504D01*
X146791Y117406D01*
X146708Y117312D01*
X146693Y117282D01*
X146672Y117255D01*
X146621Y117140D01*
X146563Y117028D01*
X146556Y116996D01*
X146542Y116965D01*
X146521Y116841D01*
X146494Y116718D01*
X146495Y116684D01*
X146489Y116651D01*
X146500Y116526D01*
X146503Y116400D01*
X146513Y116368D01*
X146516Y116334D01*
X146557Y116216D01*
X146592Y116095D01*
X146609Y116066D01*
X146620Y116034D01*
X146690Y115929D01*
X146753Y115821D01*
X146786Y115784D01*
X146796Y115769D01*
X146812Y115754D01*
X146860Y115700D01*
X148003Y114557D01*
X148003Y102123D01*
X146812Y100932D01*
X135128Y100932D01*
X134248Y101813D01*
X134154Y101886D01*
X134064Y101965D01*
X134028Y101983D01*
X133996Y102008D01*
X133887Y102055D01*
X133781Y102109D01*
X133742Y102118D01*
X133704Y102134D01*
X133587Y102153D01*
X133471Y102179D01*
X133430Y102178D01*
X133390Y102184D01*
X133272Y102173D01*
X133153Y102169D01*
X133114Y102158D01*
X133074Y102154D01*
X132961Y102114D01*
X132847Y102081D01*
X132813Y102060D01*
X132774Y102047D01*
X132676Y101980D01*
X132573Y101919D01*
X132528Y101879D01*
X132511Y101868D01*
X132498Y101853D01*
X132453Y101813D01*
X131572Y100932D01*
X130302Y100932D01*
X130184Y100917D01*
X130065Y100910D01*
X130027Y100897D01*
X129986Y100892D01*
X129876Y100849D01*
X129763Y100812D01*
X129728Y100790D01*
X129691Y100775D01*
X129595Y100706D01*
X129494Y100642D01*
X129466Y100612D01*
X129433Y100589D01*
X129357Y100497D01*
X129276Y100410D01*
X129256Y100375D01*
X129231Y100344D01*
X129180Y100236D01*
X129122Y100132D01*
X129112Y100092D01*
X129095Y100056D01*
X129073Y99939D01*
X129043Y99824D01*
X129039Y99764D01*
X129035Y99744D01*
X129037Y99723D01*
X129033Y99663D01*
X129033Y97144D01*
X129045Y97046D01*
X129048Y96947D01*
X129065Y96888D01*
X129073Y96828D01*
X129109Y96736D01*
X129137Y96641D01*
X129167Y96589D01*
X129190Y96533D01*
X129248Y96453D01*
X129298Y96367D01*
X129364Y96292D01*
X129376Y96275D01*
X129386Y96267D01*
X129404Y96246D01*
X133076Y92574D01*
X133155Y92514D01*
X133227Y92446D01*
X133280Y92417D01*
X133328Y92380D01*
X133419Y92340D01*
X133505Y92292D01*
X133564Y92277D01*
X133619Y92253D01*
X133717Y92238D01*
X133813Y92213D01*
X133913Y92207D01*
X133934Y92203D01*
X133946Y92205D01*
X133974Y92203D01*
X134698Y92203D01*
X134816Y92218D01*
G37*
G36*
X65827Y96820D02*
X65827Y96820D01*
X65965Y96828D01*
X65984Y96835D01*
X66004Y96837D01*
X66136Y96884D01*
X66267Y96926D01*
X66285Y96937D01*
X66304Y96944D01*
X66419Y97022D01*
X66536Y97097D01*
X66550Y97111D01*
X66567Y97123D01*
X66659Y97227D01*
X66754Y97328D01*
X66764Y97346D01*
X66777Y97361D01*
X66840Y97485D01*
X66908Y97607D01*
X66913Y97626D01*
X66922Y97644D01*
X66952Y97780D01*
X66987Y97915D01*
X66989Y97943D01*
X66992Y97955D01*
X66991Y97975D01*
X66997Y98075D01*
X66997Y107473D01*
X67852Y108327D01*
X67912Y108406D01*
X67980Y108478D01*
X68009Y108531D01*
X68046Y108579D01*
X68086Y108669D01*
X68134Y108756D01*
X68149Y108815D01*
X68173Y108870D01*
X68188Y108968D01*
X68213Y109064D01*
X68219Y109164D01*
X68223Y109184D01*
X68221Y109197D01*
X68223Y109225D01*
X68223Y111118D01*
X68208Y111236D01*
X68201Y111355D01*
X68188Y111393D01*
X68183Y111434D01*
X68140Y111544D01*
X68103Y111657D01*
X68081Y111692D01*
X68066Y111729D01*
X67997Y111825D01*
X67933Y111926D01*
X67903Y111954D01*
X67880Y111987D01*
X67788Y112063D01*
X67701Y112144D01*
X67666Y112164D01*
X67635Y112189D01*
X67527Y112240D01*
X67423Y112298D01*
X67383Y112308D01*
X67347Y112325D01*
X67230Y112347D01*
X67115Y112377D01*
X67055Y112381D01*
X67035Y112385D01*
X67014Y112383D01*
X66954Y112387D01*
X64409Y112387D01*
X64399Y112389D01*
X64262Y112415D01*
X64243Y112414D01*
X64223Y112417D01*
X64084Y112404D01*
X63945Y112395D01*
X63926Y112389D01*
X63906Y112387D01*
X63775Y112340D01*
X63643Y112297D01*
X63626Y112287D01*
X63607Y112280D01*
X63492Y112202D01*
X63374Y112127D01*
X63360Y112113D01*
X63344Y112101D01*
X63252Y111997D01*
X63156Y111895D01*
X63146Y111878D01*
X63133Y111863D01*
X63070Y111739D01*
X63002Y111617D01*
X62997Y111598D01*
X62988Y111580D01*
X62958Y111444D01*
X62923Y111309D01*
X62921Y111281D01*
X62919Y111270D01*
X62919Y111249D01*
X62913Y111148D01*
X62913Y109743D01*
X61621Y108452D01*
X61561Y108432D01*
X61526Y108410D01*
X61489Y108395D01*
X61393Y108326D01*
X61292Y108262D01*
X61264Y108232D01*
X61231Y108209D01*
X61155Y108117D01*
X61074Y108030D01*
X61054Y107995D01*
X61029Y107964D01*
X60978Y107856D01*
X60920Y107752D01*
X60910Y107712D01*
X60893Y107676D01*
X60871Y107559D01*
X60841Y107444D01*
X60837Y107384D01*
X60833Y107364D01*
X60835Y107343D01*
X60831Y107283D01*
X60831Y105399D01*
X50770Y105399D01*
X50652Y105384D01*
X50533Y105377D01*
X50526Y105375D01*
X50470Y105389D01*
X50410Y105393D01*
X50390Y105397D01*
X50370Y105395D01*
X50310Y105399D01*
X41569Y105399D01*
X41431Y105382D01*
X41292Y105369D01*
X41273Y105362D01*
X41253Y105359D01*
X41124Y105308D01*
X40993Y105261D01*
X40976Y105250D01*
X40958Y105242D01*
X40845Y105161D01*
X40730Y105083D01*
X40717Y105067D01*
X40700Y105056D01*
X40612Y104949D01*
X40520Y104844D01*
X40510Y104826D01*
X40498Y104811D01*
X40438Y104685D01*
X40375Y104561D01*
X40371Y104541D01*
X40362Y104523D01*
X40336Y104387D01*
X40305Y104251D01*
X40306Y104230D01*
X40302Y104211D01*
X40311Y104072D01*
X40315Y103933D01*
X40321Y103913D01*
X40322Y103893D01*
X40365Y103761D01*
X40403Y103627D01*
X40414Y103610D01*
X40420Y103591D01*
X40494Y103473D01*
X40565Y103353D01*
X40584Y103332D01*
X40590Y103322D01*
X40605Y103308D01*
X40671Y103232D01*
X41132Y102772D01*
X41210Y102712D01*
X41282Y102644D01*
X41335Y102615D01*
X41383Y102578D01*
X41474Y102538D01*
X41560Y102490D01*
X41619Y102475D01*
X41675Y102451D01*
X41772Y102436D01*
X41868Y102411D01*
X41968Y102405D01*
X41989Y102401D01*
X42001Y102402D01*
X42029Y102401D01*
X50310Y102401D01*
X50428Y102416D01*
X50547Y102423D01*
X50554Y102425D01*
X50610Y102411D01*
X50670Y102407D01*
X50690Y102403D01*
X50710Y102405D01*
X50770Y102401D01*
X60831Y102401D01*
X60831Y100566D01*
X60658Y99919D01*
X60628Y99869D01*
X60577Y99747D01*
X60521Y99627D01*
X60516Y99600D01*
X60505Y99576D01*
X60486Y99444D01*
X60461Y99314D01*
X60462Y99288D01*
X60459Y99261D01*
X60472Y99129D01*
X60481Y98997D01*
X60489Y98972D01*
X60492Y98945D01*
X60538Y98820D01*
X60579Y98695D01*
X60593Y98672D01*
X60602Y98647D01*
X60678Y98538D01*
X60749Y98426D01*
X60768Y98407D01*
X60784Y98385D01*
X60884Y98299D01*
X60980Y98208D01*
X61004Y98195D01*
X61024Y98177D01*
X61143Y98118D01*
X61259Y98054D01*
X61285Y98048D01*
X61309Y98036D01*
X61439Y98008D01*
X61567Y97975D01*
X61605Y97973D01*
X61620Y97969D01*
X61642Y97970D01*
X61727Y97965D01*
X64044Y97965D01*
X64831Y97178D01*
X64940Y97093D01*
X65047Y97004D01*
X65066Y96995D01*
X65082Y96983D01*
X65209Y96928D01*
X65335Y96868D01*
X65355Y96865D01*
X65374Y96857D01*
X65512Y96835D01*
X65648Y96809D01*
X65668Y96810D01*
X65688Y96807D01*
X65827Y96820D01*
G37*
%LPC*%
G36*
X103123Y27899D02*
X103123Y27899D01*
X103151Y28077D01*
X103707Y29788D01*
X104523Y31391D01*
X105581Y32847D01*
X106853Y34119D01*
X108309Y35177D01*
X109912Y35993D01*
X111623Y36549D01*
X111801Y36577D01*
X111801Y27899D01*
X103123Y27899D01*
G37*
%LPD*%
%LPC*%
G36*
X111623Y14251D02*
X111623Y14251D01*
X109912Y14807D01*
X108309Y15623D01*
X106853Y16681D01*
X105581Y17953D01*
X104523Y19409D01*
X103707Y21012D01*
X103151Y22723D01*
X103123Y22901D01*
X111801Y22901D01*
X111801Y14223D01*
X111623Y14251D01*
G37*
%LPD*%
%LPC*%
G36*
X93319Y124459D02*
X93319Y124459D01*
X93319Y131961D01*
X97314Y131961D01*
X97961Y131788D01*
X98540Y131453D01*
X99013Y130980D01*
X99348Y130401D01*
X99521Y129754D01*
X99521Y124459D01*
X93319Y124459D01*
G37*
%LPD*%
%LPC*%
G36*
X93319Y111879D02*
X93319Y111879D01*
X93319Y119381D01*
X99521Y119381D01*
X99521Y114086D01*
X99348Y113439D01*
X99013Y112860D01*
X98540Y112387D01*
X97961Y112052D01*
X97314Y111879D01*
X93319Y111879D01*
G37*
%LPD*%
%LPC*%
G36*
X204959Y68359D02*
X204959Y68359D01*
X204959Y72401D01*
X213751Y72401D01*
X213751Y70566D01*
X213578Y69919D01*
X213243Y69340D01*
X212770Y68867D01*
X212191Y68532D01*
X211544Y68359D01*
X204959Y68359D01*
G37*
%LPD*%
%LPC*%
G36*
X143469Y127839D02*
X143469Y127839D01*
X143469Y133256D01*
X146304Y133256D01*
X146951Y133083D01*
X147530Y132748D01*
X148003Y132275D01*
X148338Y131696D01*
X148511Y131049D01*
X148511Y127839D01*
X143469Y127839D01*
G37*
%LPD*%
%LPC*%
G36*
X129109Y58379D02*
X129109Y58379D01*
X129109Y63421D01*
X132319Y63421D01*
X132966Y63248D01*
X133545Y62913D01*
X134018Y62440D01*
X134353Y61861D01*
X134526Y61214D01*
X134526Y58379D01*
X129109Y58379D01*
G37*
%LPD*%
%LPC*%
G36*
X102949Y127839D02*
X102949Y127839D01*
X102949Y131049D01*
X103122Y131696D01*
X103457Y132275D01*
X103930Y132748D01*
X104509Y133083D01*
X105156Y133256D01*
X107991Y133256D01*
X107991Y127839D01*
X102949Y127839D01*
G37*
%LPD*%
%LPC*%
G36*
X129109Y48339D02*
X129109Y48339D01*
X129109Y53381D01*
X134526Y53381D01*
X134526Y50546D01*
X134353Y49899D01*
X134018Y49320D01*
X133545Y48847D01*
X132966Y48512D01*
X132319Y48339D01*
X129109Y48339D01*
G37*
%LPD*%
%LPC*%
G36*
X114519Y80109D02*
X114519Y80109D01*
X114519Y82631D01*
X118541Y82631D01*
X118541Y82316D01*
X118368Y81669D01*
X118033Y81090D01*
X117560Y80617D01*
X116981Y80282D01*
X116334Y80109D01*
X114519Y80109D01*
G37*
%LPD*%
D10*
X69240Y57150D03*
X88240Y57150D03*
D11*
X71780Y74629D03*
X81280Y74629D03*
X90780Y74629D03*
X90780Y100631D03*
X71780Y100631D03*
D10*
X71780Y121920D03*
X90780Y121920D03*
D12*
X110490Y108340D03*
X110490Y125340D03*
D13*
X184450Y105800D03*
X184450Y122800D03*
X175450Y105800D03*
X167450Y105800D03*
X158450Y105800D03*
X158450Y122800D03*
X175450Y122800D03*
X167450Y122800D03*
D14*
X177910Y67430D03*
D15*
X177910Y74930D03*
D14*
X177910Y82430D03*
X159910Y82430D03*
D15*
X159910Y74930D03*
D14*
X159910Y67430D03*
D16*
X63500Y25400D03*
X88900Y25400D03*
X114300Y25400D03*
X139700Y25400D03*
X165100Y25400D03*
X190500Y25400D03*
D17*
X25400Y152400D03*
X228600Y152400D03*
D18*
X203460Y83900D03*
X203460Y93900D03*
X203460Y73900D03*
X203460Y103900D03*
D19*
X242460Y60900D03*
X242460Y116900D03*
D18*
X50540Y93900D03*
X50540Y83900D03*
X50540Y103900D03*
X50540Y73900D03*
D19*
X11540Y116900D03*
X11540Y60900D03*
D20*
X50800Y45720D03*
X195580Y165100D03*
D17*
X25400Y25400D03*
X228600Y25400D03*
D21*
X28060Y125730D03*
X43060Y125730D03*
D12*
X55880Y132960D03*
X55880Y115960D03*
D22*
X113250Y93900D03*
X113250Y88900D03*
X113250Y83900D03*
X140750Y93900D03*
X140750Y88900D03*
X140750Y83900D03*
D23*
X109610Y55880D03*
X126610Y55880D03*
D12*
X140970Y108340D03*
X140970Y125340D03*
X125730Y125340D03*
X125730Y108340D03*
D24*
X81280Y74629D02*
X81280Y64110D01*
X88240Y57150D01*
D25*
X35560Y114300D03*
X220980Y72390D03*
D24*
X50540Y103900D02*
X45960Y103900D01*
X35560Y114300D01*
D25*
X140970Y138430D03*
X115570Y71120D03*
X81280Y137160D03*
X166370Y49530D03*
D26*
X171650Y92710D02*
X167450Y96910D01*
X167450Y105800D01*
X171650Y92710D02*
X173800Y92710D01*
X173800Y91320D01*
X177910Y91320D02*
X177910Y82430D01*
X177910Y91320D02*
X173800Y91320D01*
X50540Y83900D02*
X35786Y83900D01*
X35786Y81506D01*
D25*
X35786Y81506D03*
D26*
X203460Y93900D02*
X217250Y93900D01*
X218440Y92710D01*
D25*
X218440Y92710D03*
X173800Y92710D03*
D26*
X186350Y103900D02*
X203460Y103900D01*
X186350Y103900D02*
X184450Y105800D01*
X50540Y73900D02*
X39610Y73900D01*
X35560Y69850D01*
D25*
X35560Y69850D03*
D26*
X159905Y67425D02*
X159910Y67430D01*
X154710Y62230D01*
X146050Y62230D01*
D25*
X146050Y62230D03*
D26*
X146050Y31750D01*
X139700Y25400D01*
X189530Y100720D02*
X184450Y105800D01*
X189530Y100720D02*
X189530Y67610D01*
X182880Y60960D01*
X162560Y60960D01*
X159905Y63615D02*
X159905Y67425D01*
X159905Y63615D02*
X162560Y60960D01*
X175450Y105800D02*
X175450Y109410D01*
X180340Y114300D02*
X196850Y114300D01*
D25*
X196850Y114300D03*
D26*
X180340Y114300D02*
X175450Y109410D01*
X175450Y105800D02*
X175450Y102680D01*
X184958Y93172D02*
X184958Y71120D01*
X184958Y93172D02*
X175450Y102680D01*
X184958Y71120D02*
X181268Y67430D01*
X177910Y67430D01*
X152400Y92710D02*
X151210Y93900D01*
X140750Y93900D01*
D27*
X152400Y92710D03*
D26*
X161180Y97670D02*
X161180Y83700D01*
X159910Y82430D01*
X161180Y97670D02*
X158450Y100400D01*
X158450Y105800D01*
X153590Y83900D02*
X140750Y83900D01*
X155060Y82430D02*
X159910Y82430D01*
X155060Y82430D02*
X153590Y83900D01*
D24*
X169037Y71755D02*
X172212Y74930D01*
X169037Y71755D02*
X165862Y74930D01*
X159910Y74930D01*
D28*
X175450Y117030D02*
X175450Y122800D01*
X175450Y117030D02*
X172720Y114300D01*
X161290Y114300D01*
X158450Y117140D01*
X158450Y122800D01*
X71780Y121920D02*
X71780Y100631D01*
X66920Y121920D02*
X55880Y132960D01*
X66920Y121920D02*
X71780Y121920D01*
X113030Y94120D02*
X113250Y93900D01*
X113030Y94120D02*
X113030Y97790D01*
X113030Y105410D01*
X110490Y107950D02*
X110490Y108340D01*
X110490Y107950D02*
X113030Y105410D01*
X81336Y91075D02*
X71780Y100631D01*
X104140Y97790D02*
X113030Y97790D01*
X97425Y91075D02*
X81336Y91075D01*
X97425Y91075D02*
X104140Y97790D01*
X99060Y35560D02*
X88900Y25400D01*
X99060Y89440D02*
X97425Y91075D01*
X99060Y89440D02*
X99060Y35560D01*
X124460Y125340D02*
X125730Y125340D01*
X124460Y125340D02*
X119046Y119926D01*
X119046Y117222D01*
X110490Y108666D01*
X110490Y108340D01*
D24*
X138430Y74930D02*
X159910Y74930D01*
X115570Y97790D02*
X113030Y97790D01*
X115570Y97790D02*
X138430Y74930D01*
X158450Y122800D02*
X158450Y137460D01*
X148590Y147320D02*
X134620Y147320D01*
X125730Y138430D01*
X125730Y125340D01*
X148590Y147320D02*
X158450Y137460D01*
D28*
X172212Y74930D02*
X177910Y74930D01*
D27*
X169037Y71755D03*
D26*
X127000Y16510D02*
X133350Y10160D01*
X180340Y10160D01*
X190500Y20320D01*
X190500Y25400D01*
X127000Y31750D02*
X127000Y16510D01*
X113250Y88900D02*
X106680Y88900D01*
X105410Y87630D01*
X108050Y55880D02*
X109610Y55880D01*
X109610Y49140D02*
X127000Y31750D01*
X109610Y49140D02*
X109610Y55880D01*
X105410Y58520D02*
X105410Y87630D01*
X105410Y58520D02*
X108050Y55880D01*
D24*
X167450Y122800D02*
X167450Y130620D01*
X170180Y133350D02*
X184150Y133350D01*
X170180Y133350D02*
X167450Y130620D01*
X71780Y74629D02*
X69240Y72089D01*
X69240Y57150D01*
X90780Y74629D02*
X90780Y83210D01*
X88900Y85090D01*
X72390Y85090D01*
X71780Y84480D01*
X71780Y74629D01*
X62360Y93900D02*
X50540Y93900D01*
X62360Y93900D02*
X71780Y84480D01*
X69240Y57150D02*
X69240Y31140D01*
X63500Y25400D01*
X184150Y123100D02*
X184150Y133350D01*
X184150Y123100D02*
X184450Y122800D01*
X203460Y83900D02*
X224870Y83900D01*
X231140Y90170D01*
X231140Y105410D01*
X213750Y122800D01*
X212480Y122800D01*
D25*
X212480Y122800D03*
D24*
X211210Y124070D01*
X185720Y124070D01*
X184450Y122800D01*
D25*
X35560Y99060D03*
D24*
X40720Y93900D02*
X50540Y93900D01*
X40720Y93900D02*
X35560Y99060D01*
D26*
X52830Y115960D02*
X43060Y125730D01*
X52830Y115960D02*
X55880Y115960D01*
X125730Y108340D02*
X140970Y108340D01*
X140750Y88900D02*
X132080Y88900D01*
X125730Y95250D02*
X125730Y108340D01*
X125730Y95250D02*
X132080Y88900D01*
M02*
