G04 EAGLE Gerber RS-274X export*
G75*
%MOMM*%
%FSLAX34Y34*%
%LPD*%
%INSoldermask Bottom*%
%IPPOS*%
%AMOC8*
5,1,8,0,0,1.08239X$1,22.5*%
G01*
%ADD10R,1.803400X1.371600*%
%ADD11R,0.406400X0.838200*%
%ADD12R,1.203200X1.203200*%
%ADD13C,3.719200*%
%ADD14P,2.144431X8X292.500000*%
%ADD15C,1.981200*%
%ADD16R,1.879600X1.879600*%
%ADD17C,1.879600*%

G36*
X97738Y191046D02*
X97738Y191046D01*
X97857Y191053D01*
X97895Y191066D01*
X97936Y191071D01*
X98046Y191114D01*
X98159Y191151D01*
X98194Y191173D01*
X98231Y191188D01*
X98327Y191258D01*
X98428Y191321D01*
X98456Y191351D01*
X98489Y191374D01*
X98565Y191466D01*
X98646Y191553D01*
X98666Y191588D01*
X98691Y191619D01*
X98742Y191727D01*
X98800Y191831D01*
X98810Y191871D01*
X98827Y191907D01*
X98849Y192024D01*
X98879Y192139D01*
X98883Y192200D01*
X98887Y192220D01*
X98885Y192240D01*
X98889Y192300D01*
X98889Y217700D01*
X98874Y217818D01*
X98867Y217937D01*
X98854Y217975D01*
X98849Y218016D01*
X98806Y218126D01*
X98769Y218239D01*
X98747Y218274D01*
X98732Y218311D01*
X98663Y218407D01*
X98599Y218508D01*
X98569Y218536D01*
X98546Y218569D01*
X98454Y218645D01*
X98367Y218726D01*
X98332Y218746D01*
X98301Y218771D01*
X98193Y218822D01*
X98089Y218880D01*
X98049Y218890D01*
X98013Y218907D01*
X97896Y218929D01*
X97781Y218959D01*
X97721Y218963D01*
X97701Y218967D01*
X97680Y218965D01*
X97620Y218969D01*
X82380Y218969D01*
X82262Y218954D01*
X82143Y218947D01*
X82105Y218934D01*
X82064Y218929D01*
X81954Y218886D01*
X81841Y218849D01*
X81806Y218827D01*
X81769Y218812D01*
X81673Y218743D01*
X81572Y218679D01*
X81544Y218649D01*
X81511Y218626D01*
X81436Y218534D01*
X81354Y218447D01*
X81334Y218412D01*
X81309Y218381D01*
X81258Y218273D01*
X81200Y218169D01*
X81190Y218129D01*
X81173Y218093D01*
X81151Y217976D01*
X81121Y217861D01*
X81117Y217801D01*
X81113Y217781D01*
X81114Y217769D01*
X81113Y217766D01*
X81114Y217753D01*
X81111Y217700D01*
X81111Y192300D01*
X81126Y192182D01*
X81133Y192063D01*
X81146Y192025D01*
X81151Y191984D01*
X81194Y191874D01*
X81231Y191761D01*
X81253Y191726D01*
X81268Y191689D01*
X81338Y191593D01*
X81401Y191492D01*
X81431Y191464D01*
X81454Y191431D01*
X81546Y191356D01*
X81633Y191274D01*
X81668Y191254D01*
X81699Y191229D01*
X81807Y191178D01*
X81911Y191120D01*
X81951Y191110D01*
X81987Y191093D01*
X82104Y191071D01*
X82219Y191041D01*
X82280Y191037D01*
X82300Y191033D01*
X82320Y191035D01*
X82380Y191031D01*
X97620Y191031D01*
X97738Y191046D01*
G37*
D10*
X90000Y197380D03*
X90000Y212620D03*
D11*
X90000Y205000D03*
D12*
X165000Y240000D03*
X165000Y215000D03*
D13*
X25000Y265000D03*
X235000Y265000D03*
D14*
X231600Y20000D03*
D15*
X206200Y20000D03*
X180800Y20000D03*
X155400Y20000D03*
X130000Y20000D03*
X104600Y20000D03*
X79200Y20000D03*
X53800Y20000D03*
X28400Y20000D03*
D16*
X22860Y229870D03*
D17*
X22860Y204470D03*
X22860Y179070D03*
M02*
