G04 EAGLE Gerber RS-274X export*
G75*
%MOMM*%
%FSLAX34Y34*%
%LPD*%
%INSilkscreen Bottom*%
%IPPOS*%
%AMOC8*
5,1,8,0,0,1.08239X$1,22.5*%
G01*
%ADD10C,0.101600*%
%ADD11R,0.034300X0.003800*%
%ADD12R,0.057200X0.003800*%
%ADD13R,0.076200X0.003800*%
%ADD14R,0.091400X0.003800*%
%ADD15R,0.102900X0.003800*%
%ADD16R,0.114300X0.003900*%
%ADD17R,0.129500X0.003800*%
%ADD18R,0.137200X0.003800*%
%ADD19R,0.144800X0.003800*%
%ADD20R,0.152400X0.003800*%
%ADD21R,0.160000X0.003800*%
%ADD22R,0.171500X0.003800*%
%ADD23R,0.175300X0.003800*%
%ADD24R,0.182900X0.003800*%
%ADD25R,0.190500X0.003800*%
%ADD26R,0.194300X0.003900*%
%ADD27R,0.201900X0.003800*%
%ADD28R,0.209500X0.003800*%
%ADD29R,0.213400X0.003800*%
%ADD30R,0.221000X0.003800*%
%ADD31R,0.224800X0.003800*%
%ADD32R,0.232400X0.003800*%
%ADD33R,0.240000X0.003800*%
%ADD34R,0.243800X0.003800*%
%ADD35R,0.247600X0.003800*%
%ADD36R,0.255300X0.003900*%
%ADD37R,0.259100X0.003800*%
%ADD38R,0.262900X0.003800*%
%ADD39R,0.270500X0.003800*%
%ADD40R,0.274300X0.003800*%
%ADD41R,0.281900X0.003800*%
%ADD42R,0.285700X0.003800*%
%ADD43R,0.289500X0.003800*%
%ADD44R,0.297200X0.003800*%
%ADD45R,0.301000X0.003800*%
%ADD46R,0.304800X0.003900*%
%ADD47R,0.312400X0.003800*%
%ADD48R,0.316200X0.003800*%
%ADD49R,0.320000X0.003800*%
%ADD50R,0.327600X0.003800*%
%ADD51R,0.331500X0.003800*%
%ADD52R,0.339100X0.003800*%
%ADD53R,0.342900X0.003800*%
%ADD54R,0.346700X0.003800*%
%ADD55R,0.354300X0.003800*%
%ADD56R,0.358100X0.003900*%
%ADD57R,0.361900X0.003800*%
%ADD58R,0.369600X0.003800*%
%ADD59R,0.373400X0.003800*%
%ADD60R,0.377200X0.003800*%
%ADD61R,0.384800X0.003800*%
%ADD62R,0.388600X0.003800*%
%ADD63R,0.396200X0.003800*%
%ADD64R,0.400000X0.003800*%
%ADD65R,0.403800X0.003800*%
%ADD66R,0.411500X0.003900*%
%ADD67R,0.415300X0.003800*%
%ADD68R,0.419100X0.003800*%
%ADD69R,0.045700X0.003800*%
%ADD70R,0.426700X0.003800*%
%ADD71R,0.072400X0.003800*%
%ADD72R,0.430500X0.003800*%
%ADD73R,0.095300X0.003800*%
%ADD74R,0.438100X0.003800*%
%ADD75R,0.110500X0.003800*%
%ADD76R,0.441900X0.003800*%
%ADD77R,0.445800X0.003800*%
%ADD78R,0.144700X0.003800*%
%ADD79R,0.453400X0.003800*%
%ADD80R,0.457200X0.003800*%
%ADD81R,0.175300X0.003900*%
%ADD82R,0.461000X0.003900*%
%ADD83R,0.468600X0.003800*%
%ADD84R,0.205800X0.003800*%
%ADD85R,0.472400X0.003800*%
%ADD86R,0.217200X0.003800*%
%ADD87R,0.476200X0.003800*%
%ADD88R,0.483900X0.003800*%
%ADD89R,0.247700X0.003800*%
%ADD90R,0.487700X0.003800*%
%ADD91R,0.495300X0.003800*%
%ADD92R,0.499100X0.003800*%
%ADD93R,0.502900X0.003800*%
%ADD94R,0.510500X0.003800*%
%ADD95R,0.308600X0.003900*%
%ADD96R,0.514300X0.003900*%
%ADD97R,0.323800X0.003800*%
%ADD98R,0.518100X0.003800*%
%ADD99R,0.335300X0.003800*%
%ADD100R,0.525800X0.003800*%
%ADD101R,0.529600X0.003800*%
%ADD102R,0.358100X0.003800*%
%ADD103R,0.533400X0.003800*%
%ADD104R,0.537200X0.003800*%
%ADD105R,0.381000X0.003800*%
%ADD106R,0.544800X0.003800*%
%ADD107R,0.392400X0.003800*%
%ADD108R,0.548600X0.003800*%
%ADD109R,0.552400X0.003800*%
%ADD110R,0.556200X0.003800*%
%ADD111R,0.422900X0.003900*%
%ADD112R,0.560100X0.003900*%
%ADD113R,0.434300X0.003800*%
%ADD114R,0.563900X0.003800*%
%ADD115R,0.567700X0.003800*%
%ADD116R,0.461000X0.003800*%
%ADD117R,0.571500X0.003800*%
%ADD118R,0.575300X0.003800*%
%ADD119R,0.480100X0.003800*%
%ADD120R,0.579100X0.003800*%
%ADD121R,0.491500X0.003800*%
%ADD122R,0.582900X0.003800*%
%ADD123R,0.586700X0.003800*%
%ADD124R,0.510600X0.003800*%
%ADD125R,0.590500X0.003800*%
%ADD126R,0.522000X0.003800*%
%ADD127R,0.594300X0.003800*%
%ADD128R,0.533400X0.003900*%
%ADD129R,0.598200X0.003900*%
%ADD130R,0.541000X0.003800*%
%ADD131R,0.602000X0.003800*%
%ADD132R,0.552500X0.003800*%
%ADD133R,0.605800X0.003800*%
%ADD134R,0.560100X0.003800*%
%ADD135R,0.609600X0.003800*%
%ADD136R,0.613400X0.003800*%
%ADD137R,0.583000X0.003800*%
%ADD138R,0.617200X0.003800*%
%ADD139R,0.594400X0.003800*%
%ADD140R,0.621000X0.003800*%
%ADD141R,0.598200X0.003800*%
%ADD142R,0.624800X0.003800*%
%ADD143R,0.613500X0.003900*%
%ADD144R,0.628600X0.003900*%
%ADD145R,0.632400X0.003800*%
%ADD146R,0.628600X0.003800*%
%ADD147R,0.636300X0.003800*%
%ADD148R,0.640100X0.003800*%
%ADD149R,0.636200X0.003800*%
%ADD150R,0.643900X0.003800*%
%ADD151R,0.647700X0.003800*%
%ADD152R,0.651500X0.003800*%
%ADD153R,0.659100X0.003800*%
%ADD154R,0.659100X0.003900*%
%ADD155R,0.655300X0.003900*%
%ADD156R,0.662900X0.003800*%
%ADD157R,0.655300X0.003800*%
%ADD158R,0.670500X0.003800*%
%ADD159R,0.670600X0.003800*%
%ADD160R,0.674400X0.003800*%
%ADD161R,0.682000X0.003800*%
%ADD162R,0.666700X0.003800*%
%ADD163R,0.685800X0.003800*%
%ADD164R,0.689600X0.003800*%
%ADD165R,0.693400X0.003900*%
%ADD166R,0.674400X0.003900*%
%ADD167R,0.697200X0.003800*%
%ADD168R,0.678200X0.003800*%
%ADD169R,0.697300X0.003800*%
%ADD170R,0.701100X0.003800*%
%ADD171R,0.704900X0.003800*%
%ADD172R,0.708700X0.003800*%
%ADD173R,0.712500X0.003800*%
%ADD174R,0.716300X0.003800*%
%ADD175R,0.720100X0.003900*%
%ADD176R,0.689600X0.003900*%
%ADD177R,0.720000X0.003800*%
%ADD178R,0.693400X0.003800*%
%ADD179R,0.723900X0.003800*%
%ADD180R,0.727700X0.003800*%
%ADD181R,0.731500X0.003800*%
%ADD182R,0.701000X0.003800*%
%ADD183R,0.735300X0.003800*%
%ADD184R,0.731500X0.003900*%
%ADD185R,0.701000X0.003900*%
%ADD186R,0.704800X0.003800*%
%ADD187R,0.739100X0.003800*%
%ADD188R,0.743000X0.003800*%
%ADD189R,0.739200X0.003800*%
%ADD190R,0.743000X0.003900*%
%ADD191R,0.704800X0.003900*%
%ADD192R,0.746800X0.003800*%
%ADD193R,0.746800X0.003900*%
%ADD194R,0.742900X0.003800*%
%ADD195R,0.746700X0.003800*%
%ADD196R,0.746700X0.003900*%
%ADD197R,1.428800X0.003800*%
%ADD198R,1.424900X0.003800*%
%ADD199R,1.421100X0.003900*%
%ADD200R,1.421100X0.003800*%
%ADD201R,1.417300X0.003800*%
%ADD202R,1.413500X0.003800*%
%ADD203R,1.409700X0.003800*%
%ADD204R,1.405900X0.003800*%
%ADD205R,1.402100X0.003800*%
%ADD206R,1.398300X0.003800*%
%ADD207R,0.983000X0.003900*%
%ADD208R,0.384800X0.003900*%
%ADD209R,0.971600X0.003800*%
%ADD210R,0.963900X0.003800*%
%ADD211R,0.956300X0.003800*%
%ADD212R,0.365800X0.003800*%
%ADD213R,0.952500X0.003800*%
%ADD214R,0.941000X0.003800*%
%ADD215R,0.358200X0.003800*%
%ADD216R,0.937200X0.003800*%
%ADD217R,0.933400X0.003800*%
%ADD218R,0.354400X0.003800*%
%ADD219R,0.925800X0.003800*%
%ADD220R,0.350500X0.003800*%
%ADD221R,0.922000X0.003800*%
%ADD222R,0.918200X0.003900*%
%ADD223R,0.346700X0.003900*%
%ADD224R,0.910600X0.003800*%
%ADD225R,0.906800X0.003800*%
%ADD226R,0.903000X0.003800*%
%ADD227R,0.339000X0.003800*%
%ADD228R,0.895300X0.003800*%
%ADD229R,0.335200X0.003800*%
%ADD230R,0.887700X0.003800*%
%ADD231R,0.883900X0.003800*%
%ADD232R,0.331400X0.003800*%
%ADD233R,0.880100X0.003800*%
%ADD234R,0.876300X0.003800*%
%ADD235R,0.468600X0.003900*%
%ADD236R,0.396200X0.003900*%
%ADD237R,0.323800X0.003900*%
%ADD238R,0.449600X0.003800*%
%ADD239R,0.323900X0.003800*%
%ADD240R,0.442000X0.003800*%
%ADD241R,0.434400X0.003800*%
%ADD242R,0.320100X0.003800*%
%ADD243R,0.316300X0.003800*%
%ADD244R,0.426800X0.003800*%
%ADD245R,0.327700X0.003800*%
%ADD246R,0.312500X0.003800*%
%ADD247R,0.422900X0.003800*%
%ADD248R,0.308600X0.003800*%
%ADD249R,0.293400X0.003800*%
%ADD250R,0.304800X0.003800*%
%ADD251R,0.419100X0.003900*%
%ADD252R,0.285700X0.003900*%
%ADD253R,0.301000X0.003900*%
%ADD254R,0.411500X0.003800*%
%ADD255R,0.407700X0.003800*%
%ADD256R,0.289600X0.003800*%
%ADD257R,0.285800X0.003800*%
%ADD258R,0.403900X0.003800*%
%ADD259R,0.228600X0.003800*%
%ADD260R,0.403900X0.003900*%
%ADD261R,0.221000X0.003900*%
%ADD262R,0.278100X0.003900*%
%ADD263R,0.400100X0.003800*%
%ADD264R,0.209600X0.003800*%
%ADD265R,0.266700X0.003800*%
%ADD266R,0.038100X0.003800*%
%ADD267R,0.194300X0.003800*%
%ADD268R,0.148600X0.003800*%
%ADD269R,0.259000X0.003800*%
%ADD270R,0.182800X0.003800*%
%ADD271R,0.186700X0.003800*%
%ADD272R,0.251400X0.003800*%
%ADD273R,0.179100X0.003800*%
%ADD274R,0.236200X0.003800*%
%ADD275R,0.243900X0.003900*%
%ADD276R,0.282000X0.003900*%
%ADD277R,0.167700X0.003800*%
%ADD278R,0.236300X0.003800*%
%ADD279R,0.396300X0.003800*%
%ADD280R,0.163900X0.003800*%
%ADD281R,0.392500X0.003800*%
%ADD282R,0.160100X0.003800*%
%ADD283R,0.586800X0.003800*%
%ADD284R,0.148500X0.003800*%
%ADD285R,0.140900X0.003800*%
%ADD286R,0.392400X0.003900*%
%ADD287R,0.140900X0.003900*%
%ADD288R,0.647700X0.003900*%
%ADD289R,0.133300X0.003800*%
%ADD290R,0.674300X0.003800*%
%ADD291R,0.388700X0.003800*%
%ADD292R,0.125700X0.003800*%
%ADD293R,0.121900X0.003800*%
%ADD294R,0.720100X0.003800*%
%ADD295R,0.118100X0.003800*%
%ADD296R,0.118100X0.003900*%
%ADD297R,0.739100X0.003900*%
%ADD298R,0.114300X0.003800*%
%ADD299R,0.754400X0.003800*%
%ADD300R,0.765800X0.003800*%
%ADD301R,0.773400X0.003800*%
%ADD302R,0.784800X0.003800*%
%ADD303R,0.118200X0.003800*%
%ADD304R,0.792500X0.003800*%
%ADD305R,0.803900X0.003800*%
%ADD306R,0.122000X0.003800*%
%ADD307R,0.815400X0.003800*%
%ADD308R,0.125800X0.003800*%
%ADD309R,0.826800X0.003800*%
%ADD310R,0.369500X0.003900*%
%ADD311R,0.133400X0.003900*%
%ADD312R,0.842000X0.003900*%
%ADD313R,0.365700X0.003800*%
%ADD314R,1.009700X0.003800*%
%ADD315R,1.013500X0.003800*%
%ADD316R,0.362000X0.003800*%
%ADD317R,1.024900X0.003800*%
%ADD318R,1.028700X0.003800*%
%ADD319R,1.036300X0.003800*%
%ADD320R,1.047800X0.003800*%
%ADD321R,1.055400X0.003800*%
%ADD322R,1.070600X0.003800*%
%ADD323R,0.030500X0.003800*%
%ADD324R,1.436400X0.003800*%
%ADD325R,1.562100X0.003900*%
%ADD326R,1.588700X0.003800*%
%ADD327R,1.607800X0.003800*%
%ADD328R,1.626900X0.003800*%
%ADD329R,1.642100X0.003800*%
%ADD330R,1.657400X0.003800*%
%ADD331R,1.676400X0.003800*%
%ADD332R,1.687800X0.003800*%
%ADD333R,1.703000X0.003800*%
%ADD334R,1.714500X0.003800*%
%ADD335R,1.726000X0.003900*%
%ADD336R,1.741200X0.003800*%
%ADD337R,0.914400X0.003800*%
%ADD338R,0.769600X0.003800*%
%ADD339R,0.884000X0.003800*%
%ADD340R,0.712400X0.003800*%
%ADD341R,0.880100X0.003900*%
%ADD342R,0.887800X0.003800*%
%ADD343R,0.891600X0.003800*%
%ADD344R,0.895400X0.003800*%
%ADD345R,0.251500X0.003800*%
%ADD346R,0.579200X0.003900*%
%ADD347R,0.243900X0.003800*%
%ADD348R,0.556300X0.003800*%
%ADD349R,0.255200X0.003800*%
%ADD350R,0.529500X0.003800*%
%ADD351R,0.731600X0.003800*%
%ADD352R,0.525800X0.003900*%
%ADD353R,0.281900X0.003900*%
%ADD354R,0.735400X0.003900*%
%ADD355R,0.300900X0.003800*%
%ADD356R,0.762000X0.003800*%
%ADD357R,0.518200X0.003800*%
%ADD358R,0.350600X0.003800*%
%ADD359R,0.796300X0.003800*%
%ADD360R,0.807800X0.003800*%
%ADD361R,0.506700X0.003800*%
%ADD362R,0.849600X0.003800*%
%ADD363R,0.506700X0.003900*%
%ADD364R,1.371600X0.003900*%
%ADD365R,1.207800X0.003800*%
%ADD366R,0.503000X0.003800*%
%ADD367R,0.141000X0.003800*%
%ADD368R,1.203900X0.003800*%
%ADD369R,1.204000X0.003800*%
%ADD370R,1.200200X0.003800*%
%ADD371R,0.499100X0.003900*%
%ADD372R,0.156200X0.003900*%
%ADD373R,1.196400X0.003900*%
%ADD374R,1.196400X0.003800*%
%ADD375R,0.163800X0.003800*%
%ADD376R,0.167600X0.003800*%
%ADD377R,1.192500X0.003800*%
%ADD378R,0.499200X0.003800*%
%ADD379R,1.188700X0.003800*%
%ADD380R,0.506800X0.003800*%
%ADD381R,1.184900X0.003800*%
%ADD382R,0.510600X0.003900*%
%ADD383R,0.209600X0.003900*%
%ADD384R,1.181100X0.003900*%
%ADD385R,0.514400X0.003800*%
%ADD386R,1.181100X0.003800*%
%ADD387R,1.177300X0.003800*%
%ADD388R,0.240100X0.003800*%
%ADD389R,1.173500X0.003800*%
%ADD390R,1.169700X0.003800*%
%ADD391R,1.165900X0.003800*%
%ADD392R,1.162100X0.003800*%
%ADD393R,0.929700X0.003900*%
%ADD394R,1.162100X0.003900*%
%ADD395R,0.929700X0.003800*%
%ADD396R,1.154500X0.003800*%
%ADD397R,0.933500X0.003800*%
%ADD398R,1.150600X0.003800*%
%ADD399R,0.937300X0.003800*%
%ADD400R,1.146800X0.003800*%
%ADD401R,0.941100X0.003800*%
%ADD402R,1.139200X0.003800*%
%ADD403R,0.944900X0.003800*%
%ADD404R,1.135400X0.003800*%
%ADD405R,0.948700X0.003800*%
%ADD406R,1.127800X0.003800*%
%ADD407R,1.124000X0.003800*%
%ADD408R,1.116400X0.003800*%
%ADD409R,0.956300X0.003900*%
%ADD410R,1.104900X0.003900*%
%ADD411R,0.960100X0.003800*%
%ADD412R,1.093500X0.003800*%
%ADD413R,1.085900X0.003800*%
%ADD414R,0.967800X0.003800*%
%ADD415R,1.074500X0.003800*%
%ADD416R,1.063000X0.003800*%
%ADD417R,0.975400X0.003800*%
%ADD418R,1.036400X0.003800*%
%ADD419R,0.979200X0.003800*%
%ADD420R,1.021000X0.003800*%
%ADD421R,0.983000X0.003800*%
%ADD422R,1.009600X0.003800*%
%ADD423R,0.986800X0.003800*%
%ADD424R,0.998200X0.003800*%
%ADD425R,0.990600X0.003900*%
%ADD426R,0.986700X0.003900*%
%ADD427R,0.994400X0.003800*%
%ADD428R,0.975300X0.003800*%
%ADD429R,0.948600X0.003800*%
%ADD430R,1.002000X0.003800*%
%ADD431R,0.213300X0.003800*%
%ADD432R,0.217100X0.003800*%
%ADD433R,1.017300X0.003800*%
%ADD434R,0.666800X0.003800*%
%ADD435R,0.220900X0.003800*%
%ADD436R,1.028700X0.003900*%
%ADD437R,0.224700X0.003900*%
%ADD438R,1.032500X0.003800*%
%ADD439R,1.040100X0.003800*%
%ADD440R,1.043900X0.003800*%
%ADD441R,0.548700X0.003800*%
%ADD442R,1.051500X0.003800*%
%ADD443R,1.055300X0.003800*%
%ADD444R,1.059100X0.003800*%
%ADD445R,1.062900X0.003800*%
%ADD446R,0.255300X0.003800*%
%ADD447R,1.066800X0.003900*%
%ADD448R,0.259100X0.003900*%
%ADD449R,0.457200X0.003900*%
%ADD450R,0.423000X0.003800*%
%ADD451R,1.082100X0.003800*%
%ADD452R,0.274400X0.003800*%
%ADD453R,0.278200X0.003800*%
%ADD454R,1.101100X0.003800*%
%ADD455R,0.278100X0.003800*%
%ADD456R,0.876300X0.003900*%
%ADD457R,0.236200X0.003900*%
%ADD458R,0.289600X0.003900*%
%ADD459R,0.247700X0.003900*%
%ADD460R,0.049500X0.003800*%
%ADD461R,0.640100X0.003900*%
%ADD462R,0.659200X0.003800*%
%ADD463R,0.663000X0.003800*%
%ADD464R,0.872500X0.003900*%
%ADD465R,0.666800X0.003900*%
%ADD466R,0.872500X0.003800*%
%ADD467R,0.868700X0.003800*%
%ADD468R,0.864900X0.003800*%
%ADD469R,0.861100X0.003800*%
%ADD470R,0.857300X0.003800*%
%ADD471R,0.853400X0.003800*%
%ADD472R,0.845800X0.003800*%
%ADD473R,0.682000X0.003900*%
%ADD474R,0.842000X0.003800*%
%ADD475R,0.834400X0.003800*%
%ADD476R,0.823000X0.003800*%
%ADD477R,0.815300X0.003800*%
%ADD478R,0.811500X0.003800*%
%ADD479R,0.788700X0.003800*%
%ADD480R,0.777300X0.003900*%
%ADD481R,0.750600X0.003800*%
%ADD482R,0.735400X0.003800*%
%ADD483R,0.727800X0.003800*%
%ADD484R,0.628700X0.003800*%
%ADD485R,0.575400X0.003800*%
%ADD486R,0.670600X0.003900*%
%ADD487R,0.655400X0.003800*%
%ADD488R,0.651500X0.003900*%
%ADD489R,0.624800X0.003900*%
%ADD490R,0.594400X0.003900*%
%ADD491R,0.563900X0.003900*%
%ADD492R,0.541100X0.003800*%
%ADD493R,0.537300X0.003800*%
%ADD494R,0.525700X0.003800*%
%ADD495R,0.525700X0.003900*%
%ADD496R,0.514300X0.003800*%
%ADD497R,0.480100X0.003900*%
%ADD498R,0.464800X0.003800*%
%ADD499R,0.442000X0.003900*%
%ADD500R,0.438200X0.003800*%
%ADD501R,0.430600X0.003800*%
%ADD502R,0.407600X0.003800*%
%ADD503R,0.403800X0.003900*%
%ADD504R,0.365700X0.003900*%
%ADD505R,0.327700X0.003900*%
%ADD506R,0.243800X0.003900*%
%ADD507R,0.205800X0.003900*%
%ADD508R,0.198100X0.003800*%
%ADD509R,0.163800X0.003900*%
%ADD510R,0.137100X0.003800*%
%ADD511R,0.091500X0.003900*%
%ADD512R,0.060900X0.003800*%


D10*
X196342Y142748D02*
X196342Y154442D01*
X190495Y154442D01*
X188546Y152493D01*
X188546Y150544D01*
X190495Y148595D01*
X188546Y146646D01*
X188546Y144697D01*
X190495Y142748D01*
X196342Y142748D01*
X196342Y148595D02*
X190495Y148595D01*
X184648Y142748D02*
X184648Y154442D01*
X180750Y150544D01*
X176852Y154442D01*
X176852Y142748D01*
X172954Y142748D02*
X172954Y154442D01*
X167107Y154442D01*
X165158Y152493D01*
X165158Y148595D01*
X167107Y146646D01*
X172954Y146646D01*
X161260Y144697D02*
X161260Y152493D01*
X159311Y154442D01*
X155413Y154442D01*
X153464Y152493D01*
X153464Y144697D01*
X155413Y142748D01*
X159311Y142748D01*
X161260Y144697D01*
X153464Y152493D01*
X149566Y152493D02*
X147617Y154442D01*
X143719Y154442D01*
X141770Y152493D01*
X141770Y150544D01*
X143719Y148595D01*
X141770Y146646D01*
X141770Y144697D01*
X143719Y142748D01*
X147617Y142748D01*
X149566Y144697D01*
X149566Y146646D01*
X147617Y148595D01*
X149566Y150544D01*
X149566Y152493D01*
X147617Y148595D02*
X143719Y148595D01*
X137872Y154442D02*
X130076Y154442D01*
X137872Y154442D02*
X137872Y148595D01*
X133974Y150544D01*
X132025Y150544D01*
X130076Y148595D01*
X130076Y144697D01*
X132025Y142748D01*
X135923Y142748D01*
X137872Y144697D01*
X114484Y142748D02*
X114484Y154442D01*
X108637Y154442D01*
X106688Y152493D01*
X106688Y150544D01*
X108637Y148595D01*
X106688Y146646D01*
X106688Y144697D01*
X108637Y142748D01*
X114484Y142748D01*
X114484Y148595D02*
X108637Y148595D01*
X100841Y150544D02*
X96943Y150544D01*
X94994Y148595D01*
X94994Y142748D01*
X100841Y142748D01*
X102790Y144697D01*
X100841Y146646D01*
X94994Y146646D01*
X91096Y142748D02*
X91096Y150544D01*
X91096Y146646D02*
X87198Y150544D01*
X85249Y150544D01*
X79402Y142748D02*
X75504Y142748D01*
X73555Y144697D01*
X73555Y148595D01*
X75504Y150544D01*
X79402Y150544D01*
X81351Y148595D01*
X81351Y144697D01*
X79402Y142748D01*
X69657Y142748D02*
X69657Y150544D01*
X67708Y150544D01*
X65759Y148595D01*
X65759Y142748D01*
X65759Y148595D02*
X63810Y150544D01*
X61861Y148595D01*
X61861Y142748D01*
X56014Y142748D02*
X52116Y142748D01*
X56014Y142748D02*
X57963Y144697D01*
X57963Y148595D01*
X56014Y150544D01*
X52116Y150544D01*
X50167Y148595D01*
X50167Y146646D01*
X57963Y146646D01*
X44320Y144697D02*
X44320Y152493D01*
X44320Y144697D02*
X42371Y142748D01*
X42371Y150544D02*
X46269Y150544D01*
X38473Y150544D02*
X36524Y150544D01*
X36524Y142748D01*
X38473Y142748D02*
X34575Y142748D01*
X36524Y154442D02*
X36524Y156391D01*
X28729Y150544D02*
X22882Y150544D01*
X28729Y150544D02*
X30677Y148595D01*
X30677Y144697D01*
X28729Y142748D01*
X22882Y142748D01*
X196342Y136662D02*
X196342Y124968D01*
X196342Y136662D02*
X190495Y136662D01*
X188546Y134713D01*
X188546Y130815D01*
X190495Y128866D01*
X196342Y128866D01*
X184648Y124968D02*
X184648Y132764D01*
X184648Y128866D02*
X180750Y132764D01*
X178801Y132764D01*
X172954Y124968D02*
X169056Y124968D01*
X172954Y124968D02*
X174903Y126917D01*
X174903Y130815D01*
X172954Y132764D01*
X169056Y132764D01*
X167107Y130815D01*
X167107Y128866D01*
X174903Y128866D01*
X163209Y124968D02*
X157362Y124968D01*
X155413Y126917D01*
X157362Y128866D01*
X161260Y128866D01*
X163209Y130815D01*
X161260Y132764D01*
X155413Y132764D01*
X151515Y124968D02*
X145668Y124968D01*
X143719Y126917D01*
X145668Y128866D01*
X149566Y128866D01*
X151515Y130815D01*
X149566Y132764D01*
X143719Y132764D01*
X139821Y132764D02*
X139821Y126917D01*
X137872Y124968D01*
X132025Y124968D01*
X132025Y132764D01*
X128127Y132764D02*
X128127Y124968D01*
X128127Y128866D02*
X124229Y132764D01*
X122280Y132764D01*
X116433Y124968D02*
X112535Y124968D01*
X116433Y124968D02*
X118382Y126917D01*
X118382Y130815D01*
X116433Y132764D01*
X112535Y132764D01*
X110586Y130815D01*
X110586Y128866D01*
X118382Y128866D01*
X89147Y136662D02*
X87198Y134713D01*
X89147Y136662D02*
X93045Y136662D01*
X94994Y134713D01*
X94994Y132764D01*
X93045Y130815D01*
X89147Y130815D01*
X87198Y128866D01*
X87198Y126917D01*
X89147Y124968D01*
X93045Y124968D01*
X94994Y126917D01*
X81351Y124968D02*
X77453Y124968D01*
X81351Y124968D02*
X83300Y126917D01*
X83300Y130815D01*
X81351Y132764D01*
X77453Y132764D01*
X75504Y130815D01*
X75504Y128866D01*
X83300Y128866D01*
X71606Y124968D02*
X71606Y132764D01*
X65759Y132764D01*
X63810Y130815D01*
X63810Y124968D01*
X59912Y124968D02*
X54065Y124968D01*
X52116Y126917D01*
X54065Y128866D01*
X57963Y128866D01*
X59912Y130815D01*
X57963Y132764D01*
X52116Y132764D01*
X46269Y124968D02*
X42371Y124968D01*
X40422Y126917D01*
X40422Y130815D01*
X42371Y132764D01*
X46269Y132764D01*
X48218Y130815D01*
X48218Y126917D01*
X46269Y124968D01*
X36524Y124968D02*
X36524Y132764D01*
X36524Y128866D02*
X32626Y132764D01*
X30677Y132764D01*
X196342Y111262D02*
X196342Y103466D01*
X192444Y99568D01*
X188546Y103466D01*
X188546Y111262D01*
X184648Y107364D02*
X182699Y107364D01*
X182699Y99568D01*
X184648Y99568D02*
X180750Y99568D01*
X182699Y111262D02*
X182699Y113211D01*
X176852Y107364D02*
X176852Y99568D01*
X176852Y107364D02*
X171005Y107364D01*
X169056Y105415D01*
X169056Y99568D01*
X165158Y107364D02*
X163209Y107364D01*
X163209Y105415D01*
X165158Y105415D01*
X165158Y107364D01*
X165158Y101517D02*
X163209Y101517D01*
X163209Y99568D01*
X165158Y99568D01*
X165158Y101517D01*
X147617Y109313D02*
X145668Y111262D01*
X141770Y111262D01*
X139821Y109313D01*
X139821Y107364D01*
X141770Y105415D01*
X143719Y105415D01*
X141770Y105415D02*
X139821Y103466D01*
X139821Y101517D01*
X141770Y99568D01*
X145668Y99568D01*
X147617Y101517D01*
X122280Y101517D02*
X122280Y109313D01*
X122280Y101517D02*
X120331Y99568D01*
X120331Y107364D02*
X124229Y107364D01*
X114484Y99568D02*
X110586Y99568D01*
X108637Y101517D01*
X108637Y105415D01*
X110586Y107364D01*
X114484Y107364D01*
X116433Y105415D01*
X116433Y101517D01*
X114484Y99568D01*
X93045Y111262D02*
X85249Y111262D01*
X93045Y111262D02*
X93045Y105415D01*
X89147Y107364D01*
X87198Y107364D01*
X85249Y105415D01*
X85249Y101517D01*
X87198Y99568D01*
X91096Y99568D01*
X93045Y101517D01*
X81351Y103466D02*
X81351Y111262D01*
X81351Y103466D02*
X77453Y99568D01*
X73555Y103466D01*
X73555Y111262D01*
X57963Y107364D02*
X56014Y107364D01*
X56014Y99568D01*
X57963Y99568D02*
X54065Y99568D01*
X56014Y111262D02*
X56014Y113211D01*
X50167Y107364D02*
X50167Y99568D01*
X50167Y107364D02*
X44320Y107364D01*
X42371Y105415D01*
X42371Y99568D01*
X38473Y95670D02*
X38473Y107364D01*
X32627Y107364D01*
X30678Y105415D01*
X30678Y101517D01*
X32627Y99568D01*
X38473Y99568D01*
X26780Y101517D02*
X26780Y107364D01*
X26780Y101517D02*
X24831Y99568D01*
X18984Y99568D01*
X18984Y107364D01*
X13137Y109313D02*
X13137Y101517D01*
X11188Y99568D01*
X11188Y107364D02*
X15086Y107364D01*
X197612Y69352D02*
X197612Y57658D01*
X189816Y57658D01*
X183969Y57658D02*
X180071Y57658D01*
X178122Y59607D01*
X178122Y63505D01*
X180071Y65454D01*
X183969Y65454D01*
X185918Y63505D01*
X185918Y59607D01*
X183969Y57658D01*
X170326Y53760D02*
X168377Y53760D01*
X166428Y55709D01*
X166428Y65454D01*
X172275Y65454D01*
X174224Y63505D01*
X174224Y59607D01*
X172275Y57658D01*
X166428Y57658D01*
X162530Y65454D02*
X160581Y65454D01*
X160581Y57658D01*
X162530Y57658D02*
X158632Y57658D01*
X160581Y69352D02*
X160581Y71301D01*
X152785Y65454D02*
X146938Y65454D01*
X152785Y65454D02*
X154734Y63505D01*
X154734Y59607D01*
X152785Y57658D01*
X146938Y57658D01*
X143040Y65454D02*
X141091Y65454D01*
X141091Y63505D01*
X143040Y63505D01*
X143040Y65454D01*
X143040Y59607D02*
X141091Y59607D01*
X141091Y57658D01*
X143040Y57658D01*
X143040Y59607D01*
X125499Y67403D02*
X123550Y69352D01*
X119652Y69352D01*
X117703Y67403D01*
X117703Y65454D01*
X119652Y63505D01*
X121601Y63505D01*
X119652Y63505D02*
X117703Y61556D01*
X117703Y59607D01*
X119652Y57658D01*
X123550Y57658D01*
X125499Y59607D01*
X113805Y63505D02*
X106009Y63505D01*
X102111Y69352D02*
X94315Y69352D01*
X102111Y69352D02*
X102111Y63505D01*
X98213Y65454D01*
X96264Y65454D01*
X94315Y63505D01*
X94315Y59607D01*
X96264Y57658D01*
X100162Y57658D01*
X102111Y59607D01*
X90417Y61556D02*
X90417Y69352D01*
X90417Y61556D02*
X86519Y57658D01*
X82621Y61556D01*
X82621Y69352D01*
X65080Y65454D02*
X59233Y65454D01*
X65080Y65454D02*
X67029Y63505D01*
X67029Y59607D01*
X65080Y57658D01*
X59233Y57658D01*
X53386Y57658D02*
X49488Y57658D01*
X47539Y59607D01*
X47539Y63505D01*
X49488Y65454D01*
X53386Y65454D01*
X55335Y63505D01*
X55335Y59607D01*
X53386Y57658D01*
X43641Y57658D02*
X43641Y65454D01*
X41692Y65454D01*
X39743Y63505D01*
X39743Y57658D01*
X39743Y63505D02*
X37794Y65454D01*
X35845Y63505D01*
X35845Y57658D01*
X31947Y53760D02*
X31947Y65454D01*
X26101Y65454D01*
X24152Y63505D01*
X24152Y59607D01*
X26101Y57658D01*
X31947Y57658D01*
X18305Y65454D02*
X14407Y65454D01*
X12458Y63505D01*
X12458Y57658D01*
X18305Y57658D01*
X20254Y59607D01*
X18305Y61556D01*
X12458Y61556D01*
X6611Y59607D02*
X6611Y67403D01*
X6611Y59607D02*
X4662Y57658D01*
X4662Y65454D02*
X8560Y65454D01*
X194393Y88402D02*
X196342Y86453D01*
X194393Y88402D02*
X190495Y88402D01*
X188546Y86453D01*
X188546Y84504D01*
X190495Y82555D01*
X192444Y82555D01*
X190495Y82555D02*
X188546Y80606D01*
X188546Y78657D01*
X190495Y76708D01*
X194393Y76708D01*
X196342Y78657D01*
X184648Y80606D02*
X184648Y88402D01*
X184648Y80606D02*
X180750Y76708D01*
X176852Y80606D01*
X176852Y88402D01*
X171005Y76708D02*
X167107Y76708D01*
X165158Y78657D01*
X165158Y82555D01*
X167107Y84504D01*
X171005Y84504D01*
X172954Y82555D01*
X172954Y78657D01*
X171005Y76708D01*
X161260Y78657D02*
X161260Y84504D01*
X161260Y78657D02*
X159311Y76708D01*
X153464Y76708D01*
X153464Y84504D01*
X147617Y86453D02*
X147617Y78657D01*
X145668Y76708D01*
X145668Y84504D02*
X149566Y84504D01*
X141770Y84504D02*
X139821Y84504D01*
X139821Y82555D01*
X141770Y82555D01*
X141770Y84504D01*
X141770Y78657D02*
X139821Y78657D01*
X139821Y76708D01*
X141770Y76708D01*
X141770Y78657D01*
X124229Y86453D02*
X122280Y88402D01*
X118382Y88402D01*
X116433Y86453D01*
X116433Y84504D01*
X118382Y82555D01*
X120331Y82555D01*
X118382Y82555D02*
X116433Y80606D01*
X116433Y78657D01*
X118382Y76708D01*
X122280Y76708D01*
X124229Y78657D01*
X112535Y80606D02*
X112535Y88402D01*
X112535Y80606D02*
X108637Y76708D01*
X104739Y80606D01*
X104739Y88402D01*
X83300Y76708D02*
X81351Y78657D01*
X83300Y76708D02*
X87198Y76708D01*
X89147Y78657D01*
X89147Y86453D01*
X87198Y88402D01*
X83300Y88402D01*
X81351Y86453D01*
X81351Y82555D01*
X83300Y80606D01*
X87198Y80606D01*
X87198Y84504D01*
X83300Y84504D01*
X83300Y80606D01*
X65759Y84504D02*
X61861Y88402D01*
X61861Y76708D01*
X65759Y76708D02*
X57963Y76708D01*
X54065Y78657D02*
X54065Y86453D01*
X52116Y88402D01*
X48218Y88402D01*
X46269Y86453D01*
X46269Y78657D01*
X48218Y76708D01*
X52116Y76708D01*
X54065Y78657D01*
X46269Y86453D01*
X42371Y86453D02*
X42371Y78657D01*
X42371Y86453D02*
X40422Y88402D01*
X36524Y88402D01*
X34575Y86453D01*
X34575Y78657D01*
X36524Y76708D01*
X40422Y76708D01*
X42371Y78657D01*
X34575Y86453D01*
X30677Y84504D02*
X30677Y76708D01*
X30677Y84504D02*
X28729Y84504D01*
X26780Y82555D01*
X26780Y76708D01*
X26780Y82555D02*
X24831Y84504D01*
X22882Y82555D01*
X22882Y76708D01*
X18984Y76708D02*
X18984Y84504D01*
X15086Y88402D01*
X11188Y84504D01*
X11188Y76708D01*
X11188Y82555D02*
X18984Y82555D01*
X135885Y191184D02*
X139783Y191184D01*
X135885Y191184D02*
X133936Y189235D01*
X133936Y183388D01*
X139783Y183388D01*
X141732Y185337D01*
X139783Y187286D01*
X133936Y187286D01*
X122242Y183388D02*
X122242Y195082D01*
X122242Y183388D02*
X128089Y183388D01*
X130038Y185337D01*
X130038Y189235D01*
X128089Y191184D01*
X122242Y191184D01*
X116395Y191184D02*
X112497Y191184D01*
X110548Y189235D01*
X110548Y183388D01*
X116395Y183388D01*
X118344Y185337D01*
X116395Y187286D01*
X110548Y187286D01*
X104701Y183388D02*
X104701Y193133D01*
X102752Y195082D01*
X102752Y189235D02*
X106650Y189235D01*
X98854Y191184D02*
X98854Y183388D01*
X98854Y187286D02*
X94956Y191184D01*
X93007Y191184D01*
X89109Y191184D02*
X89109Y185337D01*
X87160Y183388D01*
X81313Y183388D01*
X81313Y191184D01*
X77415Y191184D02*
X75466Y191184D01*
X75466Y183388D01*
X77415Y183388D02*
X73517Y183388D01*
X75466Y195082D02*
X75466Y197031D01*
X67670Y193133D02*
X67670Y185337D01*
X65721Y183388D01*
X65721Y191184D02*
X69619Y191184D01*
X61823Y185337D02*
X61823Y183388D01*
X61823Y189235D02*
X61823Y197031D01*
D11*
X98502Y154940D03*
D12*
X98501Y154978D03*
D13*
X98520Y155016D03*
D14*
X98520Y155054D03*
D15*
X98502Y155092D03*
D16*
X98521Y155131D03*
D17*
X98521Y155169D03*
D18*
X98520Y155207D03*
D19*
X98520Y155245D03*
D20*
X98558Y155283D03*
D21*
X98558Y155321D03*
D22*
X98578Y155359D03*
D23*
X98597Y155397D03*
D24*
X98597Y155435D03*
D25*
X98635Y155473D03*
D26*
X98654Y155512D03*
D27*
X98654Y155550D03*
D28*
X98692Y155588D03*
D29*
X98711Y155626D03*
D30*
X98749Y155664D03*
D31*
X98768Y155702D03*
D32*
X98768Y155740D03*
D33*
X98806Y155778D03*
D34*
X98825Y155816D03*
D35*
X98844Y155854D03*
D36*
X98883Y155893D03*
D37*
X98902Y155931D03*
D38*
X98921Y155969D03*
D39*
X98959Y156007D03*
D40*
X98978Y156045D03*
D41*
X99016Y156083D03*
D42*
X99035Y156121D03*
D43*
X99054Y156159D03*
D44*
X99092Y156197D03*
D45*
X99111Y156235D03*
D46*
X99130Y156274D03*
D47*
X99168Y156312D03*
D48*
X99187Y156350D03*
D49*
X99206Y156388D03*
D50*
X99244Y156426D03*
D51*
X99264Y156464D03*
D52*
X99302Y156502D03*
D53*
X99321Y156540D03*
D54*
X99340Y156578D03*
D55*
X99378Y156616D03*
D56*
X99397Y156655D03*
D57*
X99416Y156693D03*
D58*
X99454Y156731D03*
D59*
X99473Y156769D03*
D60*
X99492Y156807D03*
D61*
X99530Y156845D03*
D62*
X99549Y156883D03*
D63*
X99587Y156921D03*
D64*
X99606Y156959D03*
D65*
X99625Y156997D03*
D66*
X99664Y157036D03*
D67*
X99683Y157074D03*
D68*
X99702Y157112D03*
D69*
X112465Y157150D03*
D70*
X99740Y157150D03*
D71*
X112446Y157188D03*
D72*
X99759Y157188D03*
D73*
X112408Y157226D03*
D74*
X99797Y157226D03*
D75*
X112370Y157264D03*
D76*
X99816Y157264D03*
D17*
X112351Y157302D03*
D77*
X99835Y157302D03*
D78*
X112313Y157340D03*
D79*
X99873Y157340D03*
D21*
X112274Y157378D03*
D80*
X99892Y157378D03*
D81*
X112237Y157417D03*
D82*
X99911Y157417D03*
D25*
X112199Y157455D03*
D83*
X99949Y157455D03*
D84*
X112160Y157493D03*
D85*
X99968Y157493D03*
D86*
X112103Y157531D03*
D87*
X99987Y157531D03*
D32*
X112065Y157569D03*
D88*
X100026Y157569D03*
D89*
X112027Y157607D03*
D90*
X100045Y157607D03*
D37*
X111970Y157645D03*
D91*
X100083Y157645D03*
D40*
X111932Y157683D03*
D92*
X100102Y157683D03*
D42*
X111875Y157721D03*
D93*
X100121Y157721D03*
D44*
X111817Y157759D03*
D94*
X100159Y157759D03*
D95*
X111760Y157798D03*
D96*
X100178Y157798D03*
D97*
X111722Y157836D03*
D98*
X100197Y157836D03*
D99*
X111665Y157874D03*
D100*
X100235Y157874D03*
D54*
X111608Y157912D03*
D101*
X100254Y157912D03*
D102*
X111551Y157950D03*
D103*
X100273Y157950D03*
D58*
X111493Y157988D03*
D104*
X100292Y157988D03*
D105*
X111436Y158026D03*
D106*
X100330Y158026D03*
D107*
X111379Y158064D03*
D108*
X100349Y158064D03*
D65*
X111322Y158102D03*
D109*
X100368Y158102D03*
D67*
X111265Y158140D03*
D110*
X100387Y158140D03*
D111*
X111189Y158179D03*
D112*
X100407Y158179D03*
D113*
X111132Y158217D03*
D114*
X100426Y158217D03*
D77*
X111074Y158255D03*
D115*
X100445Y158255D03*
D116*
X110998Y158293D03*
D117*
X100464Y158293D03*
D85*
X110941Y158331D03*
D118*
X100483Y158331D03*
D119*
X110865Y158369D03*
D120*
X100502Y158369D03*
D121*
X110808Y158407D03*
D122*
X100521Y158407D03*
D93*
X110751Y158445D03*
D123*
X100540Y158445D03*
D124*
X110674Y158483D03*
D125*
X100559Y158483D03*
D126*
X110617Y158521D03*
D127*
X100578Y158521D03*
D128*
X110560Y158560D03*
D129*
X100597Y158560D03*
D130*
X110484Y158598D03*
D131*
X100616Y158598D03*
D132*
X110427Y158636D03*
D133*
X100635Y158636D03*
D134*
X110389Y158674D03*
D133*
X100635Y158674D03*
D117*
X110332Y158712D03*
D135*
X100654Y158712D03*
D118*
X110275Y158750D03*
D136*
X100673Y158750D03*
D137*
X110236Y158788D03*
D138*
X100692Y158788D03*
D139*
X110179Y158826D03*
D140*
X100711Y158826D03*
D141*
X110122Y158864D03*
D140*
X100711Y158864D03*
D133*
X110084Y158902D03*
D142*
X100730Y158902D03*
D143*
X110046Y158941D03*
D144*
X100749Y158941D03*
D136*
X110007Y158979D03*
D145*
X100768Y158979D03*
D140*
X109969Y159017D03*
D145*
X100768Y159017D03*
D146*
X109931Y159055D03*
D147*
X100788Y159055D03*
D145*
X109874Y159093D03*
D148*
X100807Y159093D03*
D149*
X109855Y159131D03*
D150*
X100826Y159131D03*
X109817Y159169D03*
X100826Y159169D03*
D151*
X109760Y159207D03*
X100845Y159207D03*
D152*
X109741Y159245D03*
X100864Y159245D03*
D153*
X109703Y159283D03*
D152*
X100864Y159283D03*
D154*
X109665Y159322D03*
D155*
X100883Y159322D03*
D156*
X109646Y159360D03*
D157*
X100883Y159360D03*
D158*
X109608Y159398D03*
D153*
X100902Y159398D03*
D159*
X109569Y159436D03*
D156*
X100921Y159436D03*
D160*
X109550Y159474D03*
D156*
X100921Y159474D03*
D161*
X109512Y159512D03*
D162*
X100940Y159512D03*
D161*
X109474Y159550D03*
D162*
X100940Y159550D03*
D163*
X109455Y159588D03*
D158*
X100959Y159588D03*
D164*
X109436Y159626D03*
D158*
X100959Y159626D03*
D164*
X109398Y159664D03*
D160*
X100978Y159664D03*
D165*
X109379Y159703D03*
D166*
X100978Y159703D03*
D167*
X109360Y159741D03*
D168*
X100997Y159741D03*
D169*
X109322Y159779D03*
D168*
X100997Y159779D03*
D170*
X109303Y159817D03*
D168*
X100997Y159817D03*
D171*
X109284Y159855D03*
D161*
X101016Y159855D03*
D171*
X109246Y159893D03*
D161*
X101016Y159893D03*
D172*
X109227Y159931D03*
D163*
X101035Y159931D03*
D173*
X109208Y159969D03*
D163*
X101035Y159969D03*
D173*
X109170Y160007D03*
D163*
X101035Y160007D03*
D174*
X109151Y160045D03*
D164*
X101054Y160045D03*
D175*
X109132Y160084D03*
D176*
X101054Y160084D03*
D177*
X109093Y160122D03*
D178*
X101073Y160122D03*
D179*
X109074Y160160D03*
D178*
X101073Y160160D03*
D179*
X109074Y160198D03*
D178*
X101073Y160198D03*
D179*
X109036Y160236D03*
D178*
X101073Y160236D03*
D180*
X109017Y160274D03*
D167*
X101092Y160274D03*
D181*
X108998Y160312D03*
D167*
X101092Y160312D03*
D180*
X108979Y160350D03*
D167*
X101092Y160350D03*
D181*
X108960Y160388D03*
D182*
X101111Y160388D03*
D183*
X108941Y160426D03*
D182*
X101111Y160426D03*
D184*
X108922Y160465D03*
D185*
X101111Y160465D03*
D183*
X108903Y160503D03*
D182*
X101111Y160503D03*
D183*
X108903Y160541D03*
D186*
X101130Y160541D03*
D183*
X108865Y160579D03*
D182*
X101149Y160579D03*
D187*
X108846Y160617D03*
D182*
X101149Y160617D03*
D187*
X108846Y160655D03*
D182*
X101149Y160655D03*
D187*
X108808Y160693D03*
D182*
X101149Y160693D03*
D187*
X108808Y160731D03*
D182*
X101149Y160731D03*
D188*
X108788Y160769D03*
D186*
X101168Y160769D03*
D189*
X108769Y160807D03*
D186*
X101168Y160807D03*
D190*
X108750Y160846D03*
D191*
X101168Y160846D03*
D188*
X108750Y160884D03*
D186*
X101168Y160884D03*
D188*
X108712Y160922D03*
D186*
X101168Y160922D03*
D188*
X108712Y160960D03*
D186*
X101168Y160960D03*
D188*
X108712Y160998D03*
D186*
X101168Y160998D03*
D188*
X108674Y161036D03*
D182*
X101187Y161036D03*
D188*
X108674Y161074D03*
D182*
X101187Y161074D03*
D192*
X108655Y161112D03*
D182*
X101187Y161112D03*
D188*
X108636Y161150D03*
D182*
X101187Y161150D03*
D188*
X108636Y161188D03*
D182*
X101187Y161188D03*
D193*
X108617Y161227D03*
D185*
X101187Y161227D03*
D194*
X108598Y161265D03*
D182*
X101187Y161265D03*
D194*
X108598Y161303D03*
D167*
X101206Y161303D03*
D195*
X108579Y161341D03*
D167*
X101206Y161341D03*
D194*
X108560Y161379D03*
D167*
X101206Y161379D03*
D194*
X108560Y161417D03*
D167*
X101206Y161417D03*
D194*
X108560Y161455D03*
D167*
X101206Y161455D03*
D195*
X108541Y161493D03*
D178*
X101225Y161493D03*
D194*
X108522Y161531D03*
D178*
X101225Y161531D03*
D194*
X108522Y161569D03*
D178*
X101225Y161569D03*
D196*
X108503Y161608D03*
D165*
X101225Y161608D03*
D194*
X108484Y161646D03*
D164*
X101244Y161646D03*
D194*
X108484Y161684D03*
D164*
X101244Y161684D03*
D195*
X108465Y161722D03*
D164*
X101244Y161722D03*
D194*
X108446Y161760D03*
D164*
X101244Y161760D03*
D194*
X108446Y161798D03*
D163*
X101263Y161798D03*
D194*
X108446Y161836D03*
D163*
X101263Y161836D03*
D197*
X104978Y161874D03*
X104978Y161912D03*
D198*
X104998Y161950D03*
D199*
X104979Y161989D03*
D200*
X104979Y162027D03*
D201*
X104998Y162065D03*
D202*
X104979Y162103D03*
X104979Y162141D03*
D203*
X104998Y162179D03*
D204*
X104979Y162217D03*
X104979Y162255D03*
D205*
X104998Y162293D03*
D206*
X104979Y162331D03*
D207*
X107055Y162370D03*
D208*
X99949Y162370D03*
D209*
X107112Y162408D03*
D60*
X99911Y162408D03*
D210*
X107112Y162446D03*
D59*
X99892Y162446D03*
D211*
X107150Y162484D03*
D212*
X99892Y162484D03*
D213*
X107169Y162522D03*
D212*
X99892Y162522D03*
D214*
X107188Y162560D03*
D215*
X99892Y162560D03*
D216*
X107207Y162598D03*
D215*
X99892Y162598D03*
D217*
X107226Y162636D03*
D218*
X99911Y162636D03*
D219*
X107226Y162674D03*
D220*
X99892Y162674D03*
D221*
X107245Y162712D03*
D54*
X99911Y162712D03*
D222*
X107264Y162751D03*
D223*
X99911Y162751D03*
D224*
X107264Y162789D03*
D53*
X99930Y162789D03*
D225*
X107283Y162827D03*
D53*
X99930Y162827D03*
D226*
X107302Y162865D03*
D227*
X99949Y162865D03*
D228*
X107303Y162903D03*
D227*
X99949Y162903D03*
D228*
X107303Y162941D03*
D229*
X99968Y162941D03*
D230*
X107303Y162979D03*
D229*
X99968Y162979D03*
D231*
X107322Y163017D03*
D232*
X99987Y163017D03*
D233*
X107341Y163055D03*
D50*
X100006Y163055D03*
D234*
X107322Y163093D03*
D50*
X100006Y163093D03*
D235*
X109360Y163132D03*
D236*
X104959Y163132D03*
D237*
X100025Y163132D03*
D238*
X109417Y163170D03*
D58*
X104864Y163170D03*
D239*
X100064Y163170D03*
D240*
X109455Y163208D03*
D102*
X104807Y163208D03*
D239*
X100064Y163208D03*
D241*
X109455Y163246D03*
D54*
X104788Y163246D03*
D242*
X100083Y163246D03*
D241*
X109455Y163284D03*
D99*
X104769Y163284D03*
D243*
X100102Y163284D03*
D244*
X109455Y163322D03*
D245*
X104731Y163322D03*
D246*
X100121Y163322D03*
D244*
X109455Y163360D03*
D243*
X104712Y163360D03*
D246*
X100121Y163360D03*
D247*
X109436Y163398D03*
D248*
X104673Y163398D03*
D246*
X100159Y163398D03*
D247*
X109436Y163436D03*
D45*
X104673Y163436D03*
D248*
X100178Y163436D03*
D68*
X109417Y163474D03*
D249*
X104635Y163474D03*
D250*
X100197Y163474D03*
D251*
X109417Y163513D03*
D252*
X104636Y163513D03*
D253*
X100216Y163513D03*
D67*
X109398Y163551D03*
D40*
X104617Y163551D03*
D45*
X100254Y163551D03*
D67*
X109398Y163589D03*
D39*
X104598Y163589D03*
D44*
X100273Y163589D03*
D254*
X109379Y163627D03*
D38*
X104598Y163627D03*
D249*
X100292Y163627D03*
D254*
X109379Y163665D03*
D37*
X104579Y163665D03*
D249*
X100330Y163665D03*
D255*
X109360Y163703D03*
D35*
X104559Y163703D03*
D256*
X100349Y163703D03*
D255*
X109322Y163741D03*
D34*
X104540Y163741D03*
D257*
X100368Y163741D03*
D255*
X109322Y163779D03*
D33*
X104521Y163779D03*
D257*
X100406Y163779D03*
D258*
X109303Y163817D03*
D32*
X104521Y163817D03*
D41*
X100426Y163817D03*
D255*
X109284Y163855D03*
D259*
X104502Y163855D03*
D41*
X100464Y163855D03*
D260*
X109265Y163894D03*
D261*
X104502Y163894D03*
D262*
X100483Y163894D03*
D263*
X109246Y163932D03*
D86*
X104483Y163932D03*
D39*
X100521Y163932D03*
D258*
X109227Y163970D03*
D264*
X104483Y163970D03*
D39*
X100559Y163970D03*
D263*
X109208Y164008D03*
D84*
X104464Y164008D03*
D265*
X100578Y164008D03*
D266*
X98102Y164008D03*
D64*
X109169Y164046D03*
D27*
X104445Y164046D03*
D38*
X100635Y164046D03*
D75*
X98083Y164046D03*
D64*
X109169Y164084D03*
D267*
X104445Y164084D03*
D37*
X100654Y164084D03*
D268*
X98082Y164084D03*
D64*
X109131Y164122D03*
D25*
X104426Y164122D03*
D269*
X100692Y164122D03*
D270*
X98063Y164122D03*
D63*
X109112Y164160D03*
D271*
X104407Y164160D03*
D272*
X100730Y164160D03*
D29*
X98063Y164160D03*
D63*
X109074Y164198D03*
D273*
X104407Y164198D03*
D272*
X100768Y164198D03*
D274*
X98063Y164198D03*
D64*
X109055Y164236D03*
D273*
X104407Y164236D03*
D34*
X100806Y164236D03*
D269*
X98063Y164236D03*
D236*
X109036Y164275D03*
D81*
X104388Y164275D03*
D275*
X100845Y164275D03*
D276*
X98063Y164275D03*
D63*
X108998Y164313D03*
D277*
X104388Y164313D03*
D278*
X100883Y164313D03*
D45*
X98044Y164313D03*
D279*
X108960Y164351D03*
D280*
X104369Y164351D03*
D278*
X100921Y164351D03*
D49*
X98063Y164351D03*
D281*
X108941Y164389D03*
D282*
X104350Y164389D03*
D259*
X100959Y164389D03*
D53*
X98064Y164389D03*
D279*
X108922Y164427D03*
D282*
X104350Y164427D03*
D283*
X99206Y164427D03*
D279*
X108884Y164465D03*
D20*
X104350Y164465D03*
D141*
X99187Y164465D03*
D281*
X108865Y164503D03*
D284*
X104331Y164503D03*
D133*
X99149Y164503D03*
D107*
X108826Y164541D03*
D284*
X104331Y164541D03*
D140*
X99111Y164541D03*
D107*
X108788Y164579D03*
D78*
X104312Y164579D03*
D142*
X99092Y164579D03*
D107*
X108750Y164617D03*
D285*
X104293Y164617D03*
D147*
X99073Y164617D03*
D286*
X108712Y164656D03*
D287*
X104293Y164656D03*
D288*
X99054Y164656D03*
D62*
X108693Y164694D03*
D289*
X104293Y164694D03*
D157*
X99016Y164694D03*
D62*
X108655Y164732D03*
D289*
X104293Y164732D03*
D162*
X98997Y164732D03*
D62*
X108617Y164770D03*
D17*
X104274Y164770D03*
D290*
X98997Y164770D03*
D62*
X108579Y164808D03*
D17*
X104274Y164808D03*
D163*
X98977Y164808D03*
D291*
X108541Y164846D03*
D292*
X104255Y164846D03*
D178*
X98939Y164846D03*
D291*
X108503Y164884D03*
D292*
X104255Y164884D03*
D170*
X98940Y164884D03*
D62*
X108464Y164922D03*
D293*
X104236Y164922D03*
D173*
X98921Y164922D03*
D61*
X108407Y164960D03*
D293*
X104236Y164960D03*
D294*
X98921Y164960D03*
D61*
X108369Y164998D03*
D295*
X104217Y164998D03*
D180*
X98921Y164998D03*
D208*
X108331Y165037D03*
D296*
X104217Y165037D03*
D297*
X98902Y165037D03*
D61*
X108293Y165075D03*
D298*
X104198Y165075D03*
D192*
X98901Y165075D03*
D105*
X108236Y165113D03*
D295*
X104179Y165113D03*
D299*
X98901Y165113D03*
D105*
X108198Y165151D03*
D295*
X104179Y165151D03*
D300*
X98882Y165151D03*
D105*
X108121Y165189D03*
D295*
X104179Y165189D03*
D301*
X98882Y165189D03*
D105*
X108083Y165227D03*
D298*
X104160Y165227D03*
D302*
X98863Y165227D03*
D60*
X108026Y165265D03*
D303*
X104140Y165265D03*
D304*
X98864Y165265D03*
D59*
X107969Y165303D03*
D303*
X104140Y165303D03*
D305*
X98883Y165303D03*
D59*
X107893Y165341D03*
D306*
X104121Y165341D03*
D307*
X98863Y165341D03*
D59*
X107855Y165379D03*
D308*
X104102Y165379D03*
D309*
X98882Y165379D03*
D310*
X107760Y165418D03*
D311*
X104064Y165418D03*
D312*
X98882Y165418D03*
D313*
X107703Y165456D03*
D314*
X99683Y165456D03*
D212*
X107626Y165494D03*
D315*
X99664Y165494D03*
D316*
X107531Y165532D03*
D317*
X99645Y165532D03*
D102*
X107436Y165570D03*
D318*
X99626Y165570D03*
D55*
X107341Y165608D03*
D319*
X99626Y165608D03*
D220*
X107246Y165646D03*
D320*
X99606Y165646D03*
D54*
X107112Y165684D03*
D321*
X99606Y165684D03*
D54*
X106998Y165722D03*
D322*
X99606Y165722D03*
D323*
X109227Y165760D03*
D324*
X101397Y165760D03*
D325*
X101988Y165799D03*
D326*
X102045Y165837D03*
D327*
X102102Y165875D03*
D328*
X102121Y165913D03*
D329*
X102159Y165951D03*
D330*
X102197Y165989D03*
D331*
X102216Y166027D03*
D332*
X102235Y166065D03*
D333*
X102235Y166103D03*
D334*
X102255Y166141D03*
D335*
X102273Y166180D03*
D336*
X102273Y166218D03*
D337*
X106483Y166256D03*
D338*
X97377Y166256D03*
D228*
X106655Y166294D03*
D188*
X97206Y166294D03*
D231*
X106750Y166332D03*
D181*
X97073Y166332D03*
D339*
X106826Y166370D03*
D294*
X96978Y166370D03*
D231*
X106903Y166408D03*
D340*
X96863Y166408D03*
D233*
X106960Y166446D03*
D171*
X96787Y166446D03*
D233*
X107036Y166484D03*
D169*
X96711Y166484D03*
D233*
X107074Y166522D03*
D167*
X96634Y166522D03*
D341*
X107112Y166561D03*
D165*
X96577Y166561D03*
D342*
X107150Y166599D03*
D164*
X96482Y166599D03*
D342*
X107188Y166637D03*
D164*
X96444Y166637D03*
D343*
X107207Y166675D03*
D163*
X96387Y166675D03*
D344*
X107226Y166713D03*
D163*
X96310Y166713D03*
D226*
X107264Y166751D03*
D163*
X96272Y166751D03*
D225*
X107283Y166789D03*
D161*
X96215Y166789D03*
D224*
X107302Y166827D03*
D163*
X96158Y166827D03*
D135*
X108845Y166865D03*
D38*
X104064Y166865D03*
D163*
X96120Y166865D03*
D125*
X108979Y166903D03*
D345*
X103969Y166903D03*
D164*
X96063Y166903D03*
D346*
X109074Y166942D03*
D275*
X103931Y166942D03*
D176*
X96025Y166942D03*
D115*
X109170Y166980D03*
D347*
X103893Y166980D03*
D178*
X96006Y166980D03*
D114*
X109227Y167018D03*
D34*
X103854Y167018D03*
D169*
X95949Y167018D03*
D134*
X109322Y167056D03*
D35*
X103835Y167056D03*
D169*
X95911Y167056D03*
D348*
X109379Y167094D03*
D35*
X103797Y167094D03*
D171*
X95873Y167094D03*
D108*
X109455Y167132D03*
D272*
X103778Y167132D03*
D172*
X95854Y167132D03*
D130*
X109493Y167170D03*
D349*
X103759Y167170D03*
D173*
X95835Y167170D03*
D104*
X109550Y167208D03*
D38*
X103721Y167208D03*
D294*
X95797Y167208D03*
D103*
X109607Y167246D03*
D265*
X103702Y167246D03*
D179*
X95778Y167246D03*
D350*
X109665Y167284D03*
D40*
X103664Y167284D03*
D351*
X95739Y167284D03*
D352*
X109722Y167323D03*
D353*
X103626Y167323D03*
D354*
X95720Y167323D03*
D100*
X109760Y167361D03*
D43*
X103588Y167361D03*
D188*
X95720Y167361D03*
D126*
X109817Y167399D03*
D355*
X103569Y167399D03*
D299*
X95701Y167399D03*
D126*
X109855Y167437D03*
D248*
X103530Y167437D03*
D356*
X95701Y167437D03*
D357*
X109912Y167475D03*
D239*
X103493Y167475D03*
D338*
X95701Y167475D03*
D357*
X109950Y167513D03*
D99*
X103436Y167513D03*
D302*
X95701Y167513D03*
D94*
X109989Y167551D03*
D358*
X103397Y167551D03*
D359*
X95720Y167551D03*
D94*
X110027Y167589D03*
D58*
X103340Y167589D03*
D360*
X95739Y167589D03*
D361*
X110084Y167627D03*
D62*
X103245Y167627D03*
D309*
X95758Y167627D03*
D361*
X110122Y167665D03*
D67*
X103150Y167665D03*
D362*
X95834Y167665D03*
D363*
X110160Y167704D03*
D364*
X98406Y167704D03*
D93*
X110179Y167742D03*
D19*
X104578Y167742D03*
D365*
X97549Y167742D03*
D366*
X110217Y167780D03*
D367*
X104635Y167780D03*
D368*
X97492Y167780D03*
D366*
X110255Y167818D03*
D285*
X104674Y167818D03*
D368*
X97454Y167818D03*
D92*
X110275Y167856D03*
D285*
X104712Y167856D03*
D368*
X97416Y167856D03*
D92*
X110313Y167894D03*
D78*
X104731Y167894D03*
D369*
X97377Y167894D03*
D92*
X110351Y167932D03*
D19*
X104769Y167932D03*
D370*
X97358Y167932D03*
D92*
X110389Y167970D03*
D19*
X104807Y167970D03*
D370*
X97320Y167970D03*
D91*
X110408Y168008D03*
D268*
X104826Y168008D03*
D370*
X97282Y168008D03*
D91*
X110446Y168046D03*
D20*
X104883Y168046D03*
D370*
X97282Y168046D03*
D371*
X110465Y168085D03*
D372*
X104902Y168085D03*
D373*
X97263Y168085D03*
D92*
X110503Y168123D03*
D21*
X104921Y168123D03*
D374*
X97225Y168123D03*
D91*
X110522Y168161D03*
D375*
X104978Y168161D03*
D374*
X97225Y168161D03*
D92*
X110541Y168199D03*
D376*
X104997Y168199D03*
D377*
X97206Y168199D03*
D92*
X110579Y168237D03*
D23*
X105036Y168237D03*
D377*
X97206Y168237D03*
D366*
X110598Y168275D03*
D273*
X105055Y168275D03*
D377*
X97168Y168275D03*
D378*
X110617Y168313D03*
D24*
X105112Y168313D03*
D377*
X97168Y168313D03*
D366*
X110636Y168351D03*
D25*
X105150Y168351D03*
D379*
X97149Y168351D03*
D380*
X110655Y168389D03*
D267*
X105169Y168389D03*
D379*
X97149Y168389D03*
D380*
X110655Y168427D03*
D27*
X105207Y168427D03*
D381*
X97130Y168427D03*
D382*
X110674Y168466D03*
D383*
X105245Y168466D03*
D384*
X97149Y168466D03*
D385*
X110693Y168504D03*
D29*
X105302Y168504D03*
D386*
X97149Y168504D03*
D357*
X110712Y168542D03*
D30*
X105340Y168542D03*
D387*
X97130Y168542D03*
D357*
X110712Y168580D03*
D32*
X105397Y168580D03*
D387*
X97130Y168580D03*
D100*
X110712Y168618D03*
D388*
X105436Y168618D03*
D389*
X97111Y168618D03*
D101*
X110731Y168656D03*
D345*
X105493Y168656D03*
D389*
X97111Y168656D03*
D104*
X110731Y168694D03*
D38*
X105550Y168694D03*
D390*
X97130Y168694D03*
D130*
X110712Y168732D03*
D40*
X105607Y168732D03*
D391*
X97111Y168732D03*
D109*
X110693Y168770D03*
D256*
X105683Y168770D03*
D391*
X97111Y168770D03*
D117*
X110637Y168808D03*
D47*
X105797Y168808D03*
D392*
X97130Y168808D03*
D393*
X108884Y168847D03*
D394*
X97130Y168847D03*
D395*
X108884Y168885D03*
D396*
X97130Y168885D03*
D397*
X108903Y168923D03*
D398*
X97149Y168923D03*
D399*
X108922Y168961D03*
D398*
X97149Y168961D03*
D399*
X108922Y168999D03*
D400*
X97168Y168999D03*
D401*
X108941Y169037D03*
D402*
X97168Y169037D03*
D403*
X108960Y169075D03*
D404*
X97187Y169075D03*
D405*
X108979Y169113D03*
D406*
X97225Y169113D03*
D405*
X108979Y169151D03*
D407*
X97244Y169151D03*
D213*
X108998Y169189D03*
D408*
X97282Y169189D03*
D409*
X109017Y169228D03*
D410*
X97302Y169228D03*
D411*
X109036Y169266D03*
D412*
X97359Y169266D03*
D411*
X109036Y169304D03*
D413*
X97397Y169304D03*
D414*
X109036Y169342D03*
D415*
X97454Y169342D03*
D209*
X109055Y169380D03*
D416*
X97511Y169380D03*
D417*
X109074Y169418D03*
D320*
X97587Y169418D03*
D417*
X109074Y169456D03*
D418*
X97644Y169456D03*
D419*
X109093Y169494D03*
D420*
X97682Y169494D03*
D421*
X109112Y169532D03*
D422*
X97739Y169532D03*
D423*
X109131Y169570D03*
D424*
X97796Y169570D03*
D425*
X109112Y169609D03*
D426*
X97854Y169609D03*
D427*
X109131Y169647D03*
D428*
X97911Y169647D03*
D424*
X109150Y169685D03*
D210*
X97968Y169685D03*
D424*
X109150Y169723D03*
D429*
X98044Y169723D03*
D430*
X109169Y169761D03*
D216*
X98101Y169761D03*
D422*
X109169Y169799D03*
D28*
X101740Y169799D03*
D173*
X97092Y169799D03*
D315*
X109189Y169837D03*
D431*
X101721Y169837D03*
D169*
X97130Y169837D03*
D315*
X109189Y169875D03*
D432*
X101702Y169875D03*
D161*
X97168Y169875D03*
D433*
X109208Y169913D03*
D432*
X101702Y169913D03*
D434*
X97206Y169913D03*
D317*
X109208Y169951D03*
D435*
X101683Y169951D03*
D151*
X97225Y169951D03*
D436*
X109227Y169990D03*
D437*
X101664Y169990D03*
D144*
X97282Y169990D03*
D318*
X109227Y170028D03*
D259*
X101644Y170028D03*
D136*
X97320Y170028D03*
D438*
X109246Y170066D03*
D32*
X101625Y170066D03*
D141*
X97358Y170066D03*
D439*
X109246Y170104D03*
D32*
X101625Y170104D03*
D120*
X97378Y170104D03*
D440*
X109265Y170142D03*
D274*
X101606Y170142D03*
D114*
X97416Y170142D03*
D440*
X109265Y170180D03*
D33*
X101587Y170180D03*
D441*
X97454Y170180D03*
D442*
X109265Y170218D03*
D34*
X101568Y170218D03*
D350*
X97473Y170218D03*
D443*
X109284Y170256D03*
D34*
X101568Y170256D03*
D94*
X97530Y170256D03*
D444*
X109265Y170294D03*
D35*
X101549Y170294D03*
D121*
X97549Y170294D03*
D445*
X109284Y170332D03*
D446*
X101550Y170332D03*
D87*
X97587Y170332D03*
D447*
X109303Y170371D03*
D448*
X101531Y170371D03*
D449*
X97606Y170371D03*
D415*
X109303Y170409D03*
D37*
X101531Y170409D03*
D240*
X97644Y170409D03*
D415*
X109303Y170447D03*
D38*
X101512Y170447D03*
D450*
X97663Y170447D03*
D451*
X109303Y170485D03*
D265*
X101493Y170485D03*
D65*
X97682Y170485D03*
D413*
X109322Y170523D03*
D265*
X101493Y170523D03*
D61*
X97701Y170523D03*
D412*
X109322Y170561D03*
D452*
X101492Y170561D03*
D316*
X97739Y170561D03*
D412*
X109322Y170599D03*
D453*
X101473Y170599D03*
D53*
X97759Y170599D03*
D454*
X109322Y170637D03*
D453*
X101473Y170637D03*
D49*
X97758Y170637D03*
D234*
X110484Y170675D03*
D31*
X104940Y170675D03*
D257*
X101473Y170675D03*
D45*
X97777Y170675D03*
D234*
X110522Y170713D03*
D32*
X104940Y170713D03*
D257*
X101473Y170713D03*
D455*
X97778Y170713D03*
D456*
X110522Y170752D03*
D457*
X104921Y170752D03*
D458*
X101454Y170752D03*
D459*
X97778Y170752D03*
D234*
X110560Y170790D03*
D33*
X104940Y170790D03*
D249*
X101473Y170790D03*
D432*
X97816Y170790D03*
D234*
X110598Y170828D03*
D34*
X104921Y170828D03*
D44*
X101454Y170828D03*
D273*
X97816Y170828D03*
D234*
X110598Y170866D03*
D35*
X104902Y170866D03*
D45*
X101473Y170866D03*
D17*
X97835Y170866D03*
D234*
X110637Y170904D03*
D349*
X104902Y170904D03*
D250*
X101454Y170904D03*
D460*
X97854Y170904D03*
D234*
X110675Y170942D03*
D269*
X104883Y170942D03*
D248*
X101473Y170942D03*
D233*
X110694Y170980D03*
D38*
X104864Y170980D03*
D48*
X101473Y170980D03*
D234*
X110713Y171018D03*
D39*
X104864Y171018D03*
D49*
X101492Y171018D03*
D234*
X110751Y171056D03*
D455*
X104826Y171056D03*
D50*
X101492Y171056D03*
D233*
X110770Y171094D03*
D148*
X103055Y171094D03*
D341*
X110808Y171133D03*
D461*
X103055Y171133D03*
D234*
X110827Y171171D03*
D150*
X103036Y171171D03*
D234*
X110865Y171209D03*
D151*
X103055Y171209D03*
D233*
X110884Y171247D03*
D152*
X103036Y171247D03*
D234*
X110903Y171285D03*
D152*
X103036Y171285D03*
D234*
X110941Y171323D03*
D157*
X103055Y171323D03*
D234*
X110979Y171361D03*
D462*
X103035Y171361D03*
D234*
X110979Y171399D03*
D462*
X103035Y171399D03*
D234*
X111018Y171437D03*
D462*
X103035Y171437D03*
D234*
X111056Y171475D03*
D463*
X103054Y171475D03*
D464*
X111075Y171514D03*
D465*
X103035Y171514D03*
D466*
X111113Y171552D03*
D434*
X103035Y171552D03*
D467*
X111132Y171590D03*
D159*
X103054Y171590D03*
D467*
X111170Y171628D03*
D159*
X103054Y171628D03*
D468*
X111189Y171666D03*
D160*
X103035Y171666D03*
D469*
X111208Y171704D03*
D160*
X103035Y171704D03*
D469*
X111246Y171742D03*
D160*
X103035Y171742D03*
D470*
X111265Y171780D03*
D168*
X103054Y171780D03*
D471*
X111284Y171818D03*
D168*
X103054Y171818D03*
D472*
X111322Y171856D03*
D161*
X103035Y171856D03*
D312*
X111341Y171895D03*
D473*
X103035Y171895D03*
D474*
X111379Y171933D03*
D161*
X103035Y171933D03*
D475*
X111379Y171971D03*
D161*
X103035Y171971D03*
D309*
X111417Y172009D03*
D161*
X103035Y172009D03*
D476*
X111436Y172047D03*
D163*
X103054Y172047D03*
D477*
X111475Y172085D03*
D164*
X103035Y172085D03*
D478*
X111494Y172123D03*
D164*
X103035Y172123D03*
D305*
X111532Y172161D03*
D164*
X103035Y172161D03*
D304*
X111551Y172199D03*
D164*
X103035Y172199D03*
D479*
X111570Y172237D03*
D164*
X103035Y172237D03*
D480*
X111589Y172276D03*
D176*
X103035Y172276D03*
D338*
X111627Y172314D03*
D164*
X103035Y172314D03*
D356*
X111665Y172352D03*
D164*
X103035Y172352D03*
D481*
X111684Y172390D03*
D164*
X103035Y172390D03*
D482*
X111722Y172428D03*
D164*
X103035Y172428D03*
D483*
X111760Y172466D03*
D164*
X103035Y172466D03*
D340*
X111798Y172504D03*
D164*
X103035Y172504D03*
D167*
X111836Y172542D03*
D164*
X103035Y172542D03*
D163*
X111893Y172580D03*
D164*
X103035Y172580D03*
D158*
X111932Y172618D03*
D164*
X103035Y172618D03*
D288*
X111970Y172657D03*
D176*
X103035Y172657D03*
D484*
X112027Y172695D03*
D164*
X103035Y172695D03*
D133*
X112065Y172733D03*
D164*
X103035Y172733D03*
D485*
X112141Y172771D03*
D163*
X103016Y172771D03*
D104*
X112217Y172809D03*
D163*
X103016Y172809D03*
D355*
X113094Y172847D03*
D163*
X103016Y172847D03*
X103016Y172885D03*
X103016Y172923D03*
X103016Y172961D03*
X103016Y172999D03*
D473*
X102997Y173038D03*
D161*
X102997Y173076D03*
X102997Y173114D03*
X102997Y173152D03*
D168*
X103016Y173190D03*
D160*
X102997Y173228D03*
X102997Y173266D03*
X102997Y173304D03*
X102997Y173342D03*
D159*
X102978Y173380D03*
D486*
X102978Y173419D03*
D159*
X102978Y173457D03*
D434*
X102997Y173495D03*
D463*
X102978Y173533D03*
X102978Y173571D03*
X102978Y173609D03*
D462*
X102959Y173647D03*
D487*
X102978Y173685D03*
X102978Y173723D03*
D152*
X102959Y173761D03*
D488*
X102959Y173800D03*
D152*
X102959Y173838D03*
D150*
X102959Y173876D03*
X102959Y173914D03*
X102959Y173952D03*
D148*
X102940Y173990D03*
D149*
X102959Y174028D03*
D145*
X102940Y174066D03*
X102940Y174104D03*
X102940Y174142D03*
D489*
X102940Y174181D03*
D142*
X102940Y174219D03*
D140*
X102921Y174257D03*
D138*
X102940Y174295D03*
D136*
X102921Y174333D03*
X102921Y174371D03*
D133*
X102921Y174409D03*
X102921Y174447D03*
D131*
X102902Y174485D03*
D141*
X102921Y174523D03*
D490*
X102902Y174562D03*
D139*
X102902Y174600D03*
D123*
X102902Y174638D03*
X102902Y174676D03*
D122*
X102883Y174714D03*
X102883Y174752D03*
D118*
X102883Y174790D03*
D117*
X102864Y174828D03*
X102864Y174866D03*
D114*
X102864Y174904D03*
D491*
X102864Y174943D03*
D134*
X102845Y174981D03*
D132*
X102845Y175019D03*
X102845Y175057D03*
D441*
X102826Y175095D03*
D492*
X102826Y175133D03*
X102826Y175171D03*
D493*
X102807Y175209D03*
D350*
X102807Y175247D03*
D494*
X102788Y175285D03*
D495*
X102788Y175324D03*
D98*
X102788Y175362D03*
D496*
X102769Y175400D03*
D94*
X102750Y175438D03*
D361*
X102769Y175476D03*
D93*
X102750Y175514D03*
D92*
X102731Y175552D03*
D91*
X102750Y175590D03*
D121*
X102731Y175628D03*
D90*
X102712Y175666D03*
D497*
X102712Y175705D03*
D119*
X102712Y175743D03*
D87*
X102692Y175781D03*
D85*
X102673Y175819D03*
D83*
X102692Y175857D03*
D498*
X102673Y175895D03*
D116*
X102654Y175933D03*
D79*
X102654Y175971D03*
X102654Y176009D03*
D238*
X102635Y176047D03*
D499*
X102635Y176086D03*
D240*
X102635Y176124D03*
D500*
X102616Y176162D03*
D501*
X102616Y176200D03*
D244*
X102597Y176238D03*
X102597Y176276D03*
D68*
X102597Y176314D03*
D67*
X102578Y176352D03*
X102578Y176390D03*
D502*
X102578Y176428D03*
D503*
X102559Y176467D03*
D64*
X102540Y176505D03*
D63*
X102559Y176543D03*
D107*
X102540Y176581D03*
D62*
X102521Y176619D03*
D105*
X102521Y176657D03*
X102521Y176695D03*
D60*
X102502Y176733D03*
D59*
X102483Y176771D03*
D58*
X102502Y176809D03*
D504*
X102483Y176848D03*
D57*
X102464Y176886D03*
D55*
X102464Y176924D03*
X102464Y176962D03*
D220*
X102445Y177000D03*
D53*
X102445Y177038D03*
X102445Y177076D03*
D52*
X102426Y177114D03*
D51*
X102426Y177152D03*
D245*
X102407Y177190D03*
D505*
X102407Y177229D03*
D242*
X102407Y177267D03*
D243*
X102388Y177305D03*
X102388Y177343D03*
D248*
X102387Y177381D03*
D250*
X102368Y177419D03*
D45*
X102349Y177457D03*
D44*
X102368Y177495D03*
D249*
X102349Y177533D03*
D256*
X102330Y177571D03*
D252*
X102350Y177610D03*
D41*
X102331Y177648D03*
D455*
X102312Y177686D03*
D39*
X102312Y177724D03*
X102312Y177762D03*
D265*
X102293Y177800D03*
D38*
X102274Y177838D03*
D37*
X102293Y177876D03*
D349*
X102273Y177914D03*
D272*
X102254Y177952D03*
D506*
X102254Y177991D03*
D34*
X102254Y178029D03*
D33*
X102235Y178067D03*
D32*
X102235Y178105D03*
D259*
X102216Y178143D03*
X102216Y178181D03*
D30*
X102216Y178219D03*
D86*
X102197Y178257D03*
X102197Y178295D03*
D264*
X102197Y178333D03*
D507*
X102178Y178372D03*
D27*
X102159Y178410D03*
D508*
X102178Y178448D03*
D267*
X102159Y178486D03*
D25*
X102140Y178524D03*
D271*
X102159Y178562D03*
D24*
X102140Y178600D03*
D23*
X102140Y178638D03*
D22*
X102121Y178676D03*
X102121Y178714D03*
D509*
X102121Y178753D03*
D21*
X102102Y178791D03*
D20*
X102102Y178829D03*
D19*
X102102Y178867D03*
X102102Y178905D03*
D510*
X102102Y178943D03*
D17*
X102102Y178981D03*
D293*
X102102Y179019D03*
D298*
X102102Y179057D03*
D15*
X102083Y179095D03*
D511*
X102102Y179134D03*
D13*
X102102Y179172D03*
D512*
X102102Y179210D03*
D323*
X102140Y179248D03*
M02*
