M48
;GenerationSoftware,Autodesk,EAGLE,9.6.2*%
;CreationDate,2022-08-07T16:30:31Z*%
FMAT,2
ICI,OFF
METRIC,TZ,000.000
T7C0.394
T6C0.500
T5C0.600
T4C0.900
T3C1.000
T2C1.200
T1C2.800
%
G90
M71
T1
X3500Y2230
X61500Y2230
X61500Y51230
X3500Y51230
T2
X58420Y27940
X58420Y30480
X58420Y25400
X58420Y22860
X58420Y20320
X58420Y17780
X58420Y15240
X58420Y12700
X58420Y10160
X63500Y33020
X63500Y35560
X63500Y38100
X63500Y40640
X60960Y10160
X60960Y12700
X60960Y15240
X60960Y17780
X60960Y20320
X60960Y22860
X60960Y25400
X60960Y27940
X60960Y30480
X60960Y33020
X60960Y35560
X60960Y38100
X60960Y40640
X58420Y40640
X58420Y38100
X58420Y35560
X58420Y33020
X63500Y10160
X63500Y12700
X63500Y15240
X63500Y17780
X63500Y20320
X63500Y22860
X63500Y25400
X63500Y27940
X63500Y30480
T3
X27940Y45720
X2540Y45720
X5080Y45720
X7620Y45720
X30480Y36195
X10160Y45720
X12700Y45720
X15240Y45720
X17780Y45720
X20320Y45720
X22860Y45720
X25400Y45720
X30480Y45720
X33020Y45720
X35560Y45720
X38100Y45720
X40640Y45720
X43180Y45720
X45720Y45720
X48260Y45720
X50800Y45720
X53340Y45720
X55880Y45720
X58420Y45720
X60960Y45720
X63500Y45720
X16002Y2413
X12502Y2413
X19502Y2413
X23002Y2413
X9002Y2413
X54505Y2413
X51005Y2413
X30480Y30480
X27940Y30480
X25400Y30480
X22860Y30480
X34671Y2413
X31171Y2413
X38171Y2413
X41671Y2413
X53340Y41275
X53340Y38735
X53340Y36195
X53340Y33655
X50800Y41275
X50800Y38735
X50800Y36195
X50800Y33655
X48260Y33655
X48260Y36195
X48260Y38735
X48260Y41275
X45720Y41275
X45720Y38735
X45720Y36195
X45720Y33655
X43180Y33655
X43180Y36195
X43180Y38735
X43180Y41275
X40640Y41275
X40640Y38735
X40640Y36195
X40640Y33655
X38100Y33655
X38100Y36195
X38100Y38735
X38100Y41275
X35560Y41275
X35560Y38735
X35560Y36195
X35560Y33655
X33020Y33655
X33020Y36195
X33020Y38735
X33020Y41275
X30480Y41275
X30480Y38735
X27671Y2413
X30480Y33655
X27940Y33655
X27940Y36195
X27940Y38735
X27940Y41275
X25400Y41275
X25400Y38735
X25400Y36195
X25400Y33655
X22860Y33655
X22860Y36195
X22860Y38735
X22860Y41275
X20320Y41275
X20320Y38735
X20320Y36195
X20320Y33655
X17780Y33655
X17780Y36195
X17780Y38735
X17780Y41275
X15240Y41275
X15240Y38735
X15240Y36195
X15240Y33655
X12700Y33655
X12700Y36195
X12700Y38735
X12700Y41275
X10160Y41275
X10160Y38735
X10160Y36195
X10160Y33655
X7620Y33655
X7620Y36195
X7620Y38735
X7620Y41275
T4
X54090Y49960
X54090Y52500
X41390Y49960
X56630Y52500
X8370Y49960
X8370Y52500
X10910Y49960
X10910Y52500
X13450Y49960
X15990Y49960
X13450Y52500
X15990Y52500
X18530Y49960
X18530Y52500
X21070Y49960
X21070Y52500
X23610Y49960
X23610Y52500
X26150Y49960
X26150Y52500
X28690Y49960
X28690Y52500
X31230Y49960
X31230Y52500
X33770Y52500
X36310Y49960
X36310Y52500
X38850Y49960
X38850Y52500
X41390Y52500
X43930Y49960
X43930Y52500
X56630Y49960
X46470Y49960
X46470Y52500
X49010Y49960
X49010Y52500
X51550Y49960
X51550Y52500
X33770Y49960
T5
X53467Y7493
T6
X48006Y28321
X46736Y25781
T7
X3683Y44196
X21336Y16891
X29972Y17907
X39116Y44323
X51562Y5842
X29718Y11049
X33782Y11430
X32131Y14859
X32004Y27432
X30734Y23241
X50546Y21336
X13081Y10795
X16891Y10795
X22733Y8763
X39497Y8636
X14732Y21590
X15367Y14732
X19558Y17272
X23633Y20712
X19558Y15240
X23622Y19431
X10541Y18542
X20828Y20447
X41529Y15748
X47371Y19939
X27178Y15621
X24257Y13589
X27051Y21971
X25654Y28067
X27305Y18161
X38354Y18796
X26924Y19177
X38354Y21336
X29591Y19939
X38354Y23876
X29464Y21590
X38354Y26416
X29591Y24384
X42926Y25019
X38354Y29210
X26797Y20701
X14097Y14732
M30