G04 EAGLE Gerber RS-274X export*
G75*
%MOMM*%
%FSLAX34Y34*%
%LPD*%
%INSilkscreen Top*%
%IPPOS*%
%AMOC8*
5,1,8,0,0,1.08239X$1,22.5*%
G01*
%ADD10C,0.127000*%
%ADD11C,0.152400*%
%ADD12C,0.254000*%
%ADD13C,0.304800*%
%ADD14C,0.076200*%
%ADD15C,0.101600*%
%ADD16R,6.839700X0.016800*%
%ADD17R,0.268300X0.016800*%
%ADD18R,0.268200X0.016800*%
%ADD19R,0.251500X0.016800*%
%ADD20R,0.301800X0.016800*%
%ADD21R,0.251400X0.016800*%
%ADD22R,0.285000X0.016800*%
%ADD23R,0.301700X0.016800*%
%ADD24R,0.419100X0.016800*%
%ADD25R,0.318500X0.016800*%
%ADD26R,0.586700X0.016800*%
%ADD27R,0.586800X0.016800*%
%ADD28R,6.839700X0.016700*%
%ADD29R,0.268300X0.016700*%
%ADD30R,0.251400X0.016700*%
%ADD31R,0.251500X0.016700*%
%ADD32R,0.301800X0.016700*%
%ADD33R,0.285000X0.016700*%
%ADD34R,0.301700X0.016700*%
%ADD35R,0.419100X0.016700*%
%ADD36R,0.318500X0.016700*%
%ADD37R,0.586700X0.016700*%
%ADD38R,0.586800X0.016700*%
%ADD39R,0.318600X0.016800*%
%ADD40R,0.569900X0.016800*%
%ADD41R,0.335300X0.016800*%
%ADD42R,0.234700X0.016800*%
%ADD43R,0.234700X0.016700*%
%ADD44R,0.016700X0.016700*%
%ADD45R,0.318600X0.016700*%
%ADD46R,0.569900X0.016700*%
%ADD47R,0.335300X0.016700*%
%ADD48R,0.217900X0.016800*%
%ADD49R,0.033500X0.016800*%
%ADD50R,0.570000X0.016800*%
%ADD51R,0.201100X0.016700*%
%ADD52R,0.050300X0.016700*%
%ADD53R,0.670500X0.016700*%
%ADD54R,1.005800X0.016700*%
%ADD55R,0.570000X0.016700*%
%ADD56R,0.201100X0.016800*%
%ADD57R,0.067000X0.016800*%
%ADD58R,0.670500X0.016800*%
%ADD59R,1.005800X0.016800*%
%ADD60R,0.184400X0.016800*%
%ADD61R,0.989000X0.016800*%
%ADD62R,0.184400X0.016700*%
%ADD63R,0.067000X0.016700*%
%ADD64R,0.989000X0.016700*%
%ADD65R,0.167600X0.016800*%
%ADD66R,0.083800X0.016800*%
%ADD67R,0.637000X0.016800*%
%ADD68R,0.955500X0.016800*%
%ADD69R,0.150800X0.016800*%
%ADD70R,0.100600X0.016800*%
%ADD71R,0.536400X0.016800*%
%ADD72R,0.854900X0.016800*%
%ADD73R,0.150800X0.016700*%
%ADD74R,0.100600X0.016700*%
%ADD75R,0.352000X0.016700*%
%ADD76R,0.435900X0.016700*%
%ADD77R,0.402400X0.016700*%
%ADD78R,0.368800X0.016700*%
%ADD79R,0.134100X0.016800*%
%ADD80R,0.117300X0.016800*%
%ADD81R,0.435900X0.016800*%
%ADD82R,0.368900X0.016800*%
%ADD83R,0.603500X0.016800*%
%ADD84R,0.134100X0.016700*%
%ADD85R,0.117300X0.016700*%
%ADD86R,0.452600X0.016700*%
%ADD87R,0.620300X0.016700*%
%ADD88R,0.284900X0.016800*%
%ADD89R,0.486200X0.016800*%
%ADD90R,0.653800X0.016800*%
%ADD91R,0.804700X0.016800*%
%ADD92R,0.150900X0.016700*%
%ADD93R,0.268200X0.016700*%
%ADD94R,0.737600X0.016700*%
%ADD95R,0.603500X0.016700*%
%ADD96R,0.922000X0.016700*%
%ADD97R,0.150900X0.016800*%
%ADD98R,0.821400X0.016800*%
%ADD99R,0.972300X0.016800*%
%ADD100R,0.989100X0.016800*%
%ADD101R,0.083800X0.016700*%
%ADD102R,0.167600X0.016700*%
%ADD103R,0.821400X0.016700*%
%ADD104R,0.989100X0.016700*%
%ADD105R,0.201200X0.016700*%
%ADD106R,0.050300X0.016800*%
%ADD107R,0.201200X0.016800*%
%ADD108R,0.217900X0.016700*%
%ADD109R,0.284900X0.016700*%
%ADD110R,0.352100X0.016800*%
%ADD111R,0.620300X0.016800*%
%ADD112R,0.385600X0.016800*%
%ADD113R,0.335200X0.016800*%
%ADD114R,0.385600X0.016700*%
%ADD115R,0.687400X0.016700*%
%ADD116R,13.998000X0.016800*%
%ADD117R,13.998000X0.016700*%
%ADD118R,0.637000X0.016700*%
%ADD119R,0.486100X0.016700*%
%ADD120R,0.637100X0.016700*%
%ADD121R,0.519700X0.016700*%
%ADD122R,0.536500X0.016700*%
%ADD123R,0.787900X0.016800*%
%ADD124R,0.687400X0.016800*%
%ADD125R,0.771200X0.016800*%
%ADD126R,0.637100X0.016800*%
%ADD127R,0.720800X0.016800*%
%ADD128R,0.704100X0.016800*%
%ADD129R,0.754400X0.016800*%
%ADD130R,0.838200X0.016700*%
%ADD131R,0.871800X0.016700*%
%ADD132R,0.871700X0.016700*%
%ADD133R,0.402400X0.016800*%
%ADD134R,0.922100X0.016800*%
%ADD135R,0.938800X0.016800*%
%ADD136R,0.938800X0.016700*%
%ADD137R,1.022600X0.016700*%
%ADD138R,0.972400X0.016700*%
%ADD139R,0.972300X0.016700*%
%ADD140R,0.469400X0.016800*%
%ADD141R,1.072900X0.016800*%
%ADD142R,1.022600X0.016800*%
%ADD143R,1.005900X0.016800*%
%ADD144R,0.502900X0.016800*%
%ADD145R,1.123200X0.016800*%
%ADD146R,1.056200X0.016800*%
%ADD147R,1.123100X0.016800*%
%ADD148R,1.139900X0.016700*%
%ADD149R,1.089600X0.016700*%
%ADD150R,0.553200X0.016800*%
%ADD151R,1.190200X0.016800*%
%ADD152R,1.190300X0.016800*%
%ADD153R,1.039400X0.016800*%
%ADD154R,1.223700X0.016800*%
%ADD155R,1.173500X0.016800*%
%ADD156R,1.223800X0.016800*%
%ADD157R,1.240500X0.016700*%
%ADD158R,1.173500X0.016700*%
%ADD159R,1.240600X0.016700*%
%ADD160R,1.190300X0.016700*%
%ADD161R,1.056200X0.016700*%
%ADD162R,1.274100X0.016800*%
%ADD163R,1.274000X0.016800*%
%ADD164R,1.307600X0.016800*%
%ADD165R,1.257300X0.016800*%
%ADD166R,1.324400X0.016800*%
%ADD167R,0.687300X0.016700*%
%ADD168R,1.324400X0.016700*%
%ADD169R,1.307500X0.016700*%
%ADD170R,1.274100X0.016700*%
%ADD171R,1.072900X0.016700*%
%ADD172R,2.011600X0.016800*%
%ADD173R,1.324300X0.016800*%
%ADD174R,1.978100X0.016800*%
%ADD175R,2.011600X0.016700*%
%ADD176R,1.357900X0.016700*%
%ADD177R,1.994900X0.016700*%
%ADD178R,1.341200X0.016700*%
%ADD179R,1.089700X0.016700*%
%ADD180R,0.754300X0.016800*%
%ADD181R,1.994900X0.016800*%
%ADD182R,1.995000X0.016800*%
%ADD183R,1.089700X0.016800*%
%ADD184R,0.787900X0.016700*%
%ADD185R,1.995000X0.016700*%
%ADD186R,2.028400X0.016800*%
%ADD187R,2.011700X0.016800*%
%ADD188R,1.106500X0.016800*%
%ADD189R,2.028400X0.016700*%
%ADD190R,2.011700X0.016700*%
%ADD191R,1.106500X0.016700*%
%ADD192R,0.888400X0.016800*%
%ADD193R,0.922000X0.016800*%
%ADD194R,0.938700X0.016700*%
%ADD195R,2.045200X0.016800*%
%ADD196R,0.938700X0.016800*%
%ADD197R,0.670600X0.016700*%
%ADD198R,0.888500X0.016700*%
%ADD199R,2.045200X0.016700*%
%ADD200R,0.888400X0.016700*%
%ADD201R,0.804600X0.016800*%
%ADD202R,2.028500X0.016800*%
%ADD203R,1.056100X0.016700*%
%ADD204R,0.771100X0.016700*%
%ADD205R,0.754300X0.016700*%
%ADD206R,2.028500X0.016700*%
%ADD207R,0.737700X0.016700*%
%ADD208R,1.072800X0.016800*%
%ADD209R,0.871700X0.016800*%
%ADD210R,0.737600X0.016800*%
%ADD211R,0.871800X0.016800*%
%ADD212R,1.089600X0.016800*%
%ADD213R,0.704000X0.016800*%
%ADD214R,0.687300X0.016800*%
%ADD215R,0.670600X0.016800*%
%ADD216R,1.123100X0.016700*%
%ADD217R,0.720800X0.016700*%
%ADD218R,0.653700X0.016700*%
%ADD219R,0.653800X0.016700*%
%ADD220R,1.139900X0.016800*%
%ADD221R,1.173400X0.016800*%
%ADD222R,1.190200X0.016700*%
%ADD223R,1.207000X0.016800*%
%ADD224R,1.240500X0.016800*%
%ADD225R,0.469400X0.016700*%
%ADD226R,1.274000X0.016700*%
%ADD227R,0.519600X0.016800*%
%ADD228R,1.341100X0.016800*%
%ADD229R,0.771200X0.016700*%
%ADD230R,1.374600X0.016700*%
%ADD231R,0.838200X0.016800*%
%ADD232R,1.391400X0.016800*%
%ADD233R,1.424900X0.016800*%
%ADD234R,1.441700X0.016700*%
%ADD235R,1.475200X0.016800*%
%ADD236R,1.491900X0.016700*%
%ADD237R,1.525500X0.016800*%
%ADD238R,1.559000X0.016700*%
%ADD239R,1.575800X0.016800*%
%ADD240R,1.307600X0.016700*%
%ADD241R,1.592500X0.016700*%
%ADD242R,1.374700X0.016800*%
%ADD243R,1.609300X0.016800*%
%ADD244R,1.408200X0.016800*%
%ADD245R,1.626100X0.016800*%
%ADD246R,1.626100X0.016700*%
%ADD247R,1.508800X0.016800*%
%ADD248R,1.659600X0.016800*%
%ADD249R,1.559000X0.016800*%
%ADD250R,1.676400X0.016800*%
%ADD251R,1.575800X0.016700*%
%ADD252R,1.676400X0.016700*%
%ADD253R,1.978100X0.016700*%
%ADD254R,1.693100X0.016800*%
%ADD255R,1.642800X0.016800*%
%ADD256R,1.709900X0.016800*%
%ADD257R,1.961300X0.016800*%
%ADD258R,1.726600X0.016700*%
%ADD259R,1.961300X0.016700*%
%ADD260R,1.693200X0.016800*%
%ADD261R,1.726600X0.016800*%
%ADD262R,1.944600X0.016800*%
%ADD263R,1.726700X0.016700*%
%ADD264R,1.743400X0.016700*%
%ADD265R,1.944600X0.016700*%
%ADD266R,1.726700X0.016800*%
%ADD267R,1.760200X0.016800*%
%ADD268R,1.927800X0.016800*%
%ADD269R,1.911000X0.016800*%
%ADD270R,1.793700X0.016700*%
%ADD271R,1.776900X0.016700*%
%ADD272R,1.911100X0.016700*%
%ADD273R,1.894300X0.016700*%
%ADD274R,1.793800X0.016800*%
%ADD275R,1.776900X0.016800*%
%ADD276R,1.911100X0.016800*%
%ADD277R,1.894300X0.016800*%
%ADD278R,1.827300X0.016800*%
%ADD279R,1.810500X0.016800*%
%ADD280R,1.877500X0.016800*%
%ADD281R,1.844100X0.016700*%
%ADD282R,1.810500X0.016700*%
%ADD283R,1.860800X0.016700*%
%ADD284R,1.844000X0.016700*%
%ADD285R,1.860900X0.016800*%
%ADD286R,1.844000X0.016800*%
%ADD287R,1.827200X0.016800*%
%ADD288R,1.860800X0.016800*%
%ADD289R,1.793700X0.016800*%
%ADD290R,1.877600X0.016700*%
%ADD291R,1.827200X0.016700*%
%ADD292R,1.927800X0.016700*%
%ADD293R,1.927900X0.016800*%
%ADD294R,1.944700X0.016700*%
%ADD295R,1.877500X0.016700*%
%ADD296R,1.961400X0.016800*%
%ADD297R,1.961400X0.016700*%
%ADD298R,1.978200X0.016800*%
%ADD299R,1.911000X0.016700*%
%ADD300R,0.620200X0.016800*%
%ADD301R,1.425000X0.016800*%
%ADD302R,0.620200X0.016700*%
%ADD303R,1.425000X0.016700*%
%ADD304R,0.653700X0.016800*%
%ADD305R,0.704100X0.016700*%
%ADD306R,0.804700X0.016700*%
%ADD307R,0.905200X0.016800*%
%ADD308R,1.894400X0.016800*%
%ADD309R,1.927900X0.016700*%
%ADD310R,1.877600X0.016800*%
%ADD311R,3.889300X0.016800*%
%ADD312R,3.872500X0.016700*%
%ADD313R,3.872500X0.016800*%
%ADD314R,3.855700X0.016700*%
%ADD315R,0.754400X0.016700*%
%ADD316R,3.855700X0.016800*%
%ADD317R,3.839000X0.016800*%
%ADD318R,0.720900X0.016800*%
%ADD319R,3.822200X0.016700*%
%ADD320R,2.715700X0.016800*%
%ADD321R,2.632000X0.016800*%
%ADD322R,1.290800X0.016800*%
%ADD323R,2.615200X0.016700*%
%ADD324R,1.257300X0.016700*%
%ADD325R,2.581700X0.016800*%
%ADD326R,1.240600X0.016800*%
%ADD327R,2.564900X0.016800*%
%ADD328R,1.760300X0.016800*%
%ADD329R,2.531400X0.016700*%
%ADD330R,1.156700X0.016700*%
%ADD331R,2.514600X0.016800*%
%ADD332R,0.955600X0.016800*%
%ADD333R,2.497800X0.016800*%
%ADD334R,1.659700X0.016800*%
%ADD335R,2.464300X0.016700*%
%ADD336R,1.039300X0.016700*%
%ADD337R,2.447500X0.016800*%
%ADD338R,1.592500X0.016800*%
%ADD339R,0.536500X0.016800*%
%ADD340R,2.430800X0.016700*%
%ADD341R,1.559100X0.016700*%
%ADD342R,1.542300X0.016700*%
%ADD343R,0.502900X0.016700*%
%ADD344R,2.414000X0.016800*%
%ADD345R,0.905300X0.016800*%
%ADD346R,1.508700X0.016800*%
%ADD347R,0.888500X0.016800*%
%ADD348R,2.397300X0.016800*%
%ADD349R,1.441700X0.016800*%
%ADD350R,0.452700X0.016800*%
%ADD351R,1.290900X0.016700*%
%ADD352R,1.156700X0.016800*%
%ADD353R,0.855000X0.016800*%
%ADD354R,1.123200X0.016700*%
%ADD355R,0.720900X0.016700*%
%ADD356R,1.106400X0.016800*%
%ADD357R,1.106400X0.016700*%
%ADD358R,0.771100X0.016800*%
%ADD359R,0.435800X0.016700*%
%ADD360R,1.592600X0.016700*%
%ADD361R,0.435800X0.016800*%
%ADD362R,1.642900X0.016800*%
%ADD363R,0.402300X0.016800*%
%ADD364R,1.793800X0.016700*%
%ADD365R,0.368800X0.016800*%
%ADD366R,1.056100X0.016800*%
%ADD367R,1.039400X0.016700*%
%ADD368R,2.078800X0.016800*%
%ADD369R,0.335200X0.016700*%
%ADD370R,2.145800X0.016700*%
%ADD371R,2.162600X0.016800*%
%ADD372R,0.352000X0.016800*%
%ADD373R,2.212800X0.016800*%
%ADD374R,2.279900X0.016700*%
%ADD375R,2.330200X0.016800*%
%ADD376R,2.799500X0.016800*%
%ADD377R,2.816300X0.016700*%
%ADD378R,0.955500X0.016700*%
%ADD379R,2.849900X0.016800*%
%ADD380R,2.916900X0.016800*%
%ADD381R,4.224500X0.016700*%
%ADD382R,4.291600X0.016800*%
%ADD383R,4.409000X0.016800*%
%ADD384R,4.509500X0.016700*%
%ADD385R,4.526300X0.016800*%
%ADD386R,4.626800X0.016700*%
%ADD387R,4.693900X0.016800*%
%ADD388R,4.727400X0.016800*%
%ADD389R,2.548200X0.016700*%
%ADD390R,2.179300X0.016700*%
%ADD391R,2.430800X0.016800*%
%ADD392R,2.414000X0.016700*%
%ADD393R,2.414100X0.016800*%
%ADD394R,2.430700X0.016700*%
%ADD395R,2.447600X0.016700*%
%ADD396R,1.559100X0.016800*%
%ADD397R,1.525500X0.016700*%
%ADD398R,1.492000X0.016800*%
%ADD399R,1.491900X0.016800*%
%ADD400R,1.458500X0.016700*%
%ADD401R,2.061900X0.016800*%
%ADD402R,1.408100X0.016700*%
%ADD403R,0.905200X0.016700*%
%ADD404R,2.112300X0.016700*%
%ADD405R,2.179300X0.016800*%
%ADD406R,1.408200X0.016700*%
%ADD407R,2.212900X0.016700*%
%ADD408R,1.140000X0.016800*%
%ADD409R,3.319300X0.016800*%
%ADD410R,1.374700X0.016700*%
%ADD411R,0.402300X0.016700*%
%ADD412R,3.302500X0.016700*%
%ADD413R,3.285700X0.016800*%
%ADD414R,1.357900X0.016800*%
%ADD415R,3.269000X0.016800*%
%ADD416R,3.285800X0.016700*%
%ADD417R,3.268900X0.016800*%
%ADD418R,0.452700X0.016700*%
%ADD419R,3.268900X0.016700*%
%ADD420R,1.391400X0.016700*%
%ADD421R,3.269000X0.016700*%
%ADD422R,1.374600X0.016800*%
%ADD423R,0.519700X0.016800*%
%ADD424R,3.252200X0.016800*%
%ADD425R,3.235400X0.016800*%
%ADD426R,3.235400X0.016700*%
%ADD427R,3.218600X0.016800*%
%ADD428R,3.201900X0.016800*%
%ADD429R,3.201900X0.016700*%
%ADD430R,1.458500X0.016800*%
%ADD431R,1.525600X0.016800*%
%ADD432R,3.185100X0.016800*%
%ADD433R,2.531300X0.016700*%
%ADD434R,3.168400X0.016700*%
%ADD435R,2.531300X0.016800*%
%ADD436R,3.151600X0.016800*%
%ADD437R,2.548100X0.016800*%
%ADD438R,3.134900X0.016800*%
%ADD439R,2.564900X0.016700*%
%ADD440R,3.118100X0.016700*%
%ADD441R,2.581600X0.016800*%
%ADD442R,3.101400X0.016800*%
%ADD443R,2.598400X0.016700*%
%ADD444R,3.067900X0.016700*%
%ADD445R,2.598400X0.016800*%
%ADD446R,3.034300X0.016800*%
%ADD447R,2.615100X0.016800*%
%ADD448R,3.000800X0.016800*%
%ADD449R,2.631900X0.016700*%
%ADD450R,2.950500X0.016700*%
%ADD451R,2.648700X0.016800*%
%ADD452R,2.900200X0.016800*%
%ADD453R,2.665500X0.016800*%
%ADD454R,2.682200X0.016700*%
%ADD455R,2.799600X0.016700*%
%ADD456R,2.699000X0.016800*%
%ADD457R,2.732500X0.016800*%
%ADD458R,2.749300X0.016700*%
%ADD459R,2.632000X0.016700*%
%ADD460R,2.749300X0.016800*%
%ADD461R,2.766100X0.016700*%
%ADD462R,2.766100X0.016800*%
%ADD463R,2.481100X0.016800*%
%ADD464R,2.782900X0.016800*%
%ADD465R,2.380500X0.016700*%
%ADD466R,2.833100X0.016800*%
%ADD467R,1.592600X0.016800*%
%ADD468R,2.849900X0.016700*%
%ADD469R,2.883400X0.016800*%
%ADD470R,2.917000X0.016700*%
%ADD471R,2.933700X0.016800*%
%ADD472R,2.967200X0.016800*%
%ADD473R,2.967200X0.016700*%
%ADD474R,3.017500X0.016700*%
%ADD475R,3.051000X0.016800*%
%ADD476R,0.788000X0.016800*%
%ADD477R,3.084600X0.016800*%
%ADD478R,2.397300X0.016700*%
%ADD479R,2.397200X0.016800*%
%ADD480R,1.760200X0.016700*%
%ADD481R,2.397200X0.016700*%
%ADD482R,1.827300X0.016700*%
%ADD483R,2.380500X0.016800*%
%ADD484R,2.363700X0.016800*%
%ADD485R,2.363700X0.016700*%
%ADD486R,2.346900X0.016800*%
%ADD487R,2.296600X0.016700*%
%ADD488R,2.279900X0.016800*%
%ADD489R,2.246300X0.016800*%
%ADD490R,2.229600X0.016700*%
%ADD491R,2.129100X0.016800*%
%ADD492R,2.112300X0.016800*%
%ADD493R,1.609300X0.016700*%
%ADD494R,1.743400X0.016800*%
%ADD495R,1.693100X0.016700*%
%ADD496R,1.659700X0.016700*%
%ADD497R,1.575900X0.016800*%
%ADD498R,1.575900X0.016700*%
%ADD499R,1.475200X0.016700*%
%ADD500R,1.324300X0.016700*%
%ADD501R,1.290800X0.016700*%
%ADD502R,1.207000X0.016700*%
%ADD503R,0.854900X0.016700*%
%ADD504R,0.821500X0.016700*%
%ADD505R,0.821500X0.016800*%
%ADD506R,0.218000X0.016800*%
%ADD507C,0.203200*%
%ADD508C,0.279400*%
%ADD509R,1.000000X0.200000*%

G36*
X476366Y318035D02*
X476366Y318035D01*
X476393Y318035D01*
X476504Y318067D01*
X476617Y318093D01*
X476640Y318106D01*
X476666Y318114D01*
X476764Y318176D01*
X476865Y318232D01*
X476881Y318250D01*
X476906Y318265D01*
X477091Y318473D01*
X477095Y318477D01*
X479095Y321477D01*
X479126Y321541D01*
X479166Y321601D01*
X479187Y321669D01*
X479218Y321733D01*
X479230Y321804D01*
X479251Y321872D01*
X479253Y321943D01*
X479265Y322014D01*
X479257Y322085D01*
X479259Y322156D01*
X479241Y322225D01*
X479232Y322296D01*
X479205Y322362D01*
X479187Y322431D01*
X479150Y322492D01*
X479123Y322558D01*
X479078Y322614D01*
X479042Y322676D01*
X478990Y322725D01*
X478945Y322780D01*
X478887Y322821D01*
X478834Y322870D01*
X478771Y322903D01*
X478713Y322944D01*
X478645Y322967D01*
X478581Y323000D01*
X478522Y323010D01*
X478444Y323037D01*
X478325Y323043D01*
X478250Y323055D01*
X474250Y323055D01*
X474179Y323045D01*
X474107Y323045D01*
X474039Y323025D01*
X473969Y323015D01*
X473903Y322986D01*
X473834Y322966D01*
X473774Y322928D01*
X473709Y322899D01*
X473654Y322853D01*
X473594Y322815D01*
X473546Y322762D01*
X473492Y322716D01*
X473452Y322656D01*
X473405Y322602D01*
X473374Y322538D01*
X473335Y322479D01*
X473313Y322411D01*
X473282Y322346D01*
X473270Y322276D01*
X473249Y322208D01*
X473247Y322136D01*
X473235Y322066D01*
X473243Y321995D01*
X473241Y321924D01*
X473260Y321854D01*
X473268Y321783D01*
X473293Y321728D01*
X473313Y321649D01*
X473374Y321546D01*
X473405Y321477D01*
X475405Y318477D01*
X475482Y318390D01*
X475555Y318300D01*
X475577Y318285D01*
X475595Y318265D01*
X475692Y318203D01*
X475787Y318136D01*
X475813Y318128D01*
X475835Y318113D01*
X475946Y318081D01*
X476056Y318043D01*
X476083Y318042D01*
X476108Y318035D01*
X476224Y318035D01*
X476340Y318029D01*
X476366Y318035D01*
G37*
D10*
X129323Y400685D02*
X126357Y403651D01*
X135255Y403651D01*
X135255Y400685D02*
X135255Y406617D01*
D11*
X200152Y117602D02*
X207609Y117602D01*
X200152Y117602D02*
X207609Y125059D01*
X207609Y126923D01*
X205745Y128788D01*
X202016Y128788D01*
X200152Y126923D01*
X211846Y119466D02*
X211846Y117602D01*
X211846Y119466D02*
X213710Y119466D01*
X213710Y117602D01*
X211846Y117602D01*
X223286Y117602D02*
X223286Y128788D01*
X217693Y123195D01*
X225150Y123195D01*
X231251Y126923D02*
X231251Y130652D01*
X231251Y126923D02*
X229387Y125059D01*
X234980Y126923D02*
X234980Y130652D01*
X234980Y126923D02*
X233115Y125059D01*
X250826Y126923D02*
X252690Y128788D01*
X256419Y128788D01*
X258283Y126923D01*
X258283Y125059D01*
X256419Y123195D01*
X254554Y123195D01*
X256419Y123195D02*
X258283Y121331D01*
X258283Y119466D01*
X256419Y117602D01*
X252690Y117602D01*
X250826Y119466D01*
X262520Y117602D02*
X269977Y117602D01*
X262520Y117602D02*
X269977Y125059D01*
X269977Y126923D01*
X268113Y128788D01*
X264384Y128788D01*
X262520Y126923D01*
X274214Y126923D02*
X274214Y119466D01*
X274214Y126923D02*
X276078Y128788D01*
X279807Y128788D01*
X281671Y126923D01*
X281671Y119466D01*
X279807Y117602D01*
X276078Y117602D01*
X274214Y119466D01*
X281671Y126923D01*
X285908Y125059D02*
X293365Y117602D01*
X285908Y117602D02*
X293365Y125059D01*
X297602Y117602D02*
X305059Y117602D01*
X297602Y117602D02*
X305059Y125059D01*
X305059Y126923D01*
X303194Y128788D01*
X299466Y128788D01*
X297602Y126923D01*
X314888Y128788D02*
X314888Y117602D01*
X309296Y123195D02*
X314888Y128788D01*
X316753Y123195D02*
X309296Y123195D01*
X320990Y126923D02*
X320990Y119466D01*
X320990Y126923D02*
X322854Y128788D01*
X326582Y128788D01*
X328447Y126923D01*
X328447Y119466D01*
X326582Y117602D01*
X322854Y117602D01*
X320990Y119466D01*
X328447Y126923D01*
X348106Y128788D02*
X348106Y117602D01*
X344378Y128788D02*
X351835Y128788D01*
X356072Y128788D02*
X356072Y117602D01*
X356072Y128788D02*
X363529Y128788D01*
X359800Y123195D02*
X356072Y123195D01*
X371494Y117602D02*
X371494Y128788D01*
X367766Y128788D02*
X375223Y128788D01*
X200152Y106009D02*
X200152Y100416D01*
X202016Y98552D01*
X203881Y100416D01*
X205745Y98552D01*
X207609Y100416D01*
X207609Y106009D01*
X211846Y98552D02*
X219303Y109738D01*
X227268Y109738D02*
X227268Y98552D01*
X223540Y109738D02*
X230997Y109738D01*
X237098Y98552D02*
X240827Y98552D01*
X242691Y100416D01*
X242691Y104145D01*
X240827Y106009D01*
X237098Y106009D01*
X235234Y104145D01*
X235234Y100416D01*
X237098Y98552D01*
X246928Y100416D02*
X246928Y106009D01*
X246928Y100416D02*
X248792Y98552D01*
X254385Y98552D01*
X254385Y106009D01*
X260486Y106009D02*
X266079Y106009D01*
X260486Y106009D02*
X258622Y104145D01*
X258622Y100416D01*
X260486Y98552D01*
X266079Y98552D01*
X270316Y98552D02*
X270316Y109738D01*
X272180Y106009D02*
X270316Y104145D01*
X272180Y106009D02*
X275909Y106009D01*
X277773Y104145D01*
X277773Y98552D01*
X299297Y109738D02*
X301161Y107873D01*
X299297Y109738D02*
X295568Y109738D01*
X293704Y107873D01*
X293704Y106009D01*
X295568Y104145D01*
X299297Y104145D01*
X301161Y102281D01*
X301161Y100416D01*
X299297Y98552D01*
X295568Y98552D01*
X293704Y100416D01*
X307262Y106009D02*
X312855Y106009D01*
X307262Y106009D02*
X305398Y104145D01*
X305398Y100416D01*
X307262Y98552D01*
X312855Y98552D01*
X317092Y98552D02*
X317092Y106009D01*
X317092Y102281D02*
X320820Y106009D01*
X322684Y106009D01*
X328701Y98552D02*
X332429Y98552D01*
X328701Y98552D02*
X326837Y100416D01*
X326837Y104145D01*
X328701Y106009D01*
X332429Y106009D01*
X334294Y104145D01*
X334294Y102281D01*
X326837Y102281D01*
X340395Y98552D02*
X344123Y98552D01*
X340395Y98552D02*
X338531Y100416D01*
X338531Y104145D01*
X340395Y106009D01*
X344123Y106009D01*
X345988Y104145D01*
X345988Y102281D01*
X338531Y102281D01*
X350225Y106009D02*
X350225Y98552D01*
X350225Y106009D02*
X355817Y106009D01*
X357682Y104145D01*
X357682Y98552D01*
X202016Y88823D02*
X202016Y79502D01*
X202016Y88823D02*
X203881Y90688D01*
X203881Y85095D02*
X200152Y85095D01*
X209812Y79502D02*
X213541Y79502D01*
X215405Y81366D01*
X215405Y85095D01*
X213541Y86959D01*
X209812Y86959D01*
X207948Y85095D01*
X207948Y81366D01*
X209812Y79502D01*
X219642Y79502D02*
X219642Y86959D01*
X219642Y83231D02*
X223370Y86959D01*
X225235Y86959D01*
X241081Y90688D02*
X241081Y79502D01*
X241081Y90688D02*
X246674Y90688D01*
X248538Y88823D01*
X248538Y85095D01*
X246674Y83231D01*
X241081Y83231D01*
X244809Y83231D02*
X248538Y79502D01*
X254639Y86959D02*
X258368Y86959D01*
X260232Y85095D01*
X260232Y79502D01*
X254639Y79502D01*
X252775Y81366D01*
X254639Y83231D01*
X260232Y83231D01*
X264469Y79502D02*
X270062Y79502D01*
X271926Y81366D01*
X270062Y83231D01*
X266333Y83231D01*
X264469Y85095D01*
X266333Y86959D01*
X271926Y86959D01*
X276163Y86959D02*
X276163Y75774D01*
X276163Y86959D02*
X281756Y86959D01*
X283620Y85095D01*
X283620Y81366D01*
X281756Y79502D01*
X276163Y79502D01*
X287857Y79502D02*
X287857Y90688D01*
X287857Y79502D02*
X293450Y79502D01*
X295314Y81366D01*
X295314Y85095D01*
X293450Y86959D01*
X287857Y86959D01*
X301415Y79502D02*
X305143Y79502D01*
X301415Y79502D02*
X299551Y81366D01*
X299551Y85095D01*
X301415Y86959D01*
X305143Y86959D01*
X307008Y85095D01*
X307008Y83231D01*
X299551Y83231D01*
X311245Y86959D02*
X311245Y79502D01*
X311245Y83231D02*
X314973Y86959D01*
X316837Y86959D01*
X320990Y86959D02*
X320990Y79502D01*
X320990Y83231D02*
X324718Y86959D01*
X326582Y86959D01*
X330735Y86959D02*
X330735Y81366D01*
X332599Y79502D01*
X338192Y79502D01*
X338192Y77638D02*
X338192Y86959D01*
X338192Y77638D02*
X336327Y75774D01*
X334463Y75774D01*
X354123Y79502D02*
X354123Y90688D01*
X359715Y90688D01*
X361580Y88823D01*
X361580Y85095D01*
X359715Y83231D01*
X354123Y83231D01*
X365817Y86959D02*
X367681Y86959D01*
X367681Y79502D01*
X365817Y79502D02*
X369545Y79502D01*
X367681Y90688D02*
X367681Y92552D01*
X373613Y81366D02*
X373613Y79502D01*
X373613Y85095D02*
X373613Y92552D01*
D10*
X239178Y66470D02*
X237695Y67953D01*
X234730Y67953D01*
X233247Y66470D01*
X233247Y64987D01*
X234730Y63504D01*
X237695Y63504D01*
X239178Y62021D01*
X239178Y60538D01*
X237695Y59055D01*
X234730Y59055D01*
X233247Y60538D01*
X245568Y59055D02*
X245568Y67953D01*
X242602Y67953D02*
X248534Y67953D01*
X251957Y67953D02*
X251957Y59055D01*
X254923Y64987D02*
X251957Y67953D01*
X254923Y64987D02*
X257889Y67953D01*
X257889Y59055D01*
X261312Y59055D02*
X261312Y67953D01*
X265761Y67953D01*
X267244Y66470D01*
X267244Y63504D01*
X265761Y62021D01*
X261312Y62021D01*
X270667Y67953D02*
X276599Y67953D01*
X270667Y67953D02*
X270667Y59055D01*
X276599Y59055D01*
X273633Y63504D02*
X270667Y63504D01*
X282988Y66470D02*
X285954Y67953D01*
X282988Y66470D02*
X280023Y63504D01*
X280023Y60538D01*
X281506Y59055D01*
X284471Y59055D01*
X285954Y60538D01*
X285954Y62021D01*
X284471Y63504D01*
X280023Y63504D01*
X289378Y64987D02*
X292344Y67953D01*
X292344Y59055D01*
X289378Y59055D02*
X295310Y59055D01*
X298733Y60538D02*
X298733Y66470D01*
X300216Y67953D01*
X303182Y67953D01*
X304665Y66470D01*
X304665Y60538D01*
X303182Y59055D01*
X300216Y59055D01*
X298733Y60538D01*
X304665Y66470D01*
X317443Y63504D02*
X323375Y63504D01*
X320409Y66470D02*
X320409Y60538D01*
X336154Y59055D02*
X339120Y59055D01*
X337637Y59055D02*
X337637Y67953D01*
X336154Y67953D02*
X339120Y67953D01*
X342391Y67953D02*
X342391Y59055D01*
X348322Y59055D01*
X351746Y59055D02*
X354712Y59055D01*
X353229Y59055D02*
X353229Y67953D01*
X351746Y67953D02*
X354712Y67953D01*
X357982Y60538D02*
X359465Y59055D01*
X362431Y59055D01*
X363914Y60538D01*
X363914Y66470D01*
X362431Y67953D01*
X359465Y67953D01*
X357982Y66470D01*
X357982Y64987D01*
X359465Y63504D01*
X363914Y63504D01*
X367338Y66470D02*
X368821Y67953D01*
X371786Y67953D01*
X373269Y66470D01*
X373269Y64987D01*
X371786Y63504D01*
X370304Y63504D01*
X371786Y63504D02*
X373269Y62021D01*
X373269Y60538D01*
X371786Y59055D01*
X368821Y59055D01*
X367338Y60538D01*
X381142Y59055D02*
X381142Y67953D01*
X376693Y63504D01*
X382625Y63504D01*
X386048Y64987D02*
X389014Y67953D01*
X389014Y59055D01*
X386048Y59055D02*
X391980Y59055D01*
X80180Y62873D02*
X80180Y53975D01*
X83146Y56941D01*
X86112Y53975D01*
X86112Y62873D01*
X89535Y62873D02*
X89535Y53975D01*
X89535Y62873D02*
X93984Y62873D01*
X95467Y61390D01*
X95467Y58424D01*
X93984Y56941D01*
X89535Y56941D01*
X462907Y212875D02*
X471805Y212875D01*
X471805Y215841D02*
X462907Y215841D01*
X465873Y215841D02*
X465873Y211392D01*
X465873Y215841D02*
X465873Y217324D01*
X468839Y217324D02*
X468839Y211392D01*
X465873Y220747D02*
X462907Y223713D01*
X471805Y223713D01*
X471805Y220747D02*
X471805Y226679D01*
X464390Y230103D02*
X462907Y231586D01*
X462907Y234551D01*
X464390Y236034D01*
X465873Y236034D01*
X467356Y234551D01*
X468839Y236034D01*
X470322Y236034D01*
X471805Y234551D01*
X471805Y231586D01*
X470322Y230103D01*
X468839Y230103D01*
X467356Y231586D01*
X465873Y230103D01*
X464390Y230103D01*
X467356Y231586D02*
X467356Y234551D01*
X478147Y209833D02*
X487045Y209833D01*
X487045Y215765D01*
X481113Y219188D02*
X481113Y220671D01*
X487045Y220671D01*
X487045Y219188D02*
X487045Y222154D01*
X478147Y220671D02*
X476664Y220671D01*
X479630Y226908D02*
X485562Y226908D01*
X487045Y228391D01*
X481113Y228391D02*
X481113Y225425D01*
X487045Y233145D02*
X487045Y236111D01*
X487045Y233145D02*
X485562Y231662D01*
X482596Y231662D01*
X481113Y233145D01*
X481113Y236111D01*
X482596Y237594D01*
X484079Y237594D01*
X484079Y231662D01*
D12*
X130810Y416560D02*
X116840Y396240D01*
X146050Y396240D01*
X130810Y416560D01*
D13*
X140970Y351790D02*
X151130Y351790D01*
D14*
X153289Y296631D02*
X143883Y296631D01*
X143883Y301334D01*
X145451Y302901D01*
X148586Y302901D01*
X150154Y301334D01*
X150154Y296631D01*
X150154Y299766D02*
X153289Y302901D01*
X147018Y305986D02*
X143883Y309121D01*
X153289Y309121D01*
X153289Y305986D02*
X153289Y312257D01*
D13*
X161290Y351790D02*
X171450Y351790D01*
D14*
X171069Y296631D02*
X161663Y296631D01*
X161663Y301334D01*
X163231Y302901D01*
X166366Y302901D01*
X167934Y301334D01*
X167934Y296631D01*
X167934Y299766D02*
X171069Y302901D01*
X171069Y305986D02*
X171069Y312257D01*
X171069Y305986D02*
X164798Y312257D01*
X163231Y312257D01*
X161663Y310689D01*
X161663Y307553D01*
X163231Y305986D01*
D13*
X181610Y351790D02*
X191770Y351790D01*
D14*
X193929Y296631D02*
X184523Y296631D01*
X184523Y301334D01*
X186091Y302901D01*
X189226Y302901D01*
X190794Y301334D01*
X190794Y296631D01*
X190794Y299766D02*
X193929Y302901D01*
X186091Y305986D02*
X184523Y307553D01*
X184523Y310689D01*
X186091Y312257D01*
X187658Y312257D01*
X189226Y310689D01*
X189226Y309121D01*
X189226Y310689D02*
X190794Y312257D01*
X192361Y312257D01*
X193929Y310689D01*
X193929Y307553D01*
X192361Y305986D01*
D13*
X201930Y351790D02*
X212090Y351790D01*
D14*
X214249Y296631D02*
X204843Y296631D01*
X204843Y301334D01*
X206411Y302901D01*
X209546Y302901D01*
X211114Y301334D01*
X211114Y296631D01*
X211114Y299766D02*
X214249Y302901D01*
X214249Y310689D02*
X204843Y310689D01*
X209546Y305986D01*
X209546Y312257D01*
D13*
X444500Y396240D02*
X454660Y396240D01*
D14*
X443743Y424344D02*
X445311Y425912D01*
X443743Y424344D02*
X443743Y421209D01*
X445311Y419641D01*
X451581Y419641D01*
X453149Y421209D01*
X453149Y424344D01*
X451581Y425912D01*
X453149Y428996D02*
X453149Y435267D01*
X453149Y428996D02*
X446878Y435267D01*
X445311Y435267D01*
X443743Y433699D01*
X443743Y430564D01*
X445311Y428996D01*
D13*
X256540Y370840D02*
X256540Y360680D01*
D14*
X284644Y371597D02*
X286212Y370029D01*
X284644Y371597D02*
X281509Y371597D01*
X279941Y370029D01*
X279941Y363759D01*
X281509Y362191D01*
X284644Y362191D01*
X286212Y363759D01*
X289296Y370029D02*
X290864Y371597D01*
X293999Y371597D01*
X295567Y370029D01*
X295567Y368462D01*
X293999Y366894D01*
X292432Y366894D01*
X293999Y366894D02*
X295567Y365326D01*
X295567Y363759D01*
X293999Y362191D01*
X290864Y362191D01*
X289296Y363759D01*
D13*
X426720Y396240D02*
X436880Y396240D01*
D14*
X425963Y421804D02*
X427531Y423372D01*
X425963Y421804D02*
X425963Y418669D01*
X427531Y417101D01*
X433801Y417101D01*
X435369Y418669D01*
X435369Y421804D01*
X433801Y423372D01*
X429098Y426456D02*
X425963Y429592D01*
X435369Y429592D01*
X435369Y432727D02*
X435369Y426456D01*
D13*
X303530Y337820D02*
X293370Y337820D01*
D14*
X293534Y315717D02*
X295102Y314149D01*
X293534Y315717D02*
X290399Y315717D01*
X288831Y314149D01*
X288831Y307879D01*
X290399Y306311D01*
X293534Y306311D01*
X295102Y307879D01*
X298186Y315717D02*
X304457Y315717D01*
X298186Y315717D02*
X298186Y311014D01*
X301322Y312582D01*
X302889Y312582D01*
X304457Y311014D01*
X304457Y307879D01*
X302889Y306311D01*
X299754Y306311D01*
X298186Y307879D01*
X249896Y357251D02*
X246761Y357251D01*
X248329Y357251D02*
X248329Y366657D01*
X249896Y366657D02*
X246761Y366657D01*
X257701Y366657D02*
X259268Y365089D01*
X257701Y366657D02*
X254565Y366657D01*
X252998Y365089D01*
X252998Y358819D01*
X254565Y357251D01*
X257701Y357251D01*
X259268Y358819D01*
X262353Y366657D02*
X268624Y366657D01*
X262353Y366657D02*
X262353Y361954D01*
X265488Y363522D01*
X267056Y363522D01*
X268624Y361954D01*
X268624Y358819D01*
X267056Y357251D01*
X263921Y357251D01*
X262353Y358819D01*
D10*
X157210Y311910D02*
X135210Y311910D01*
X135210Y298910D01*
X410210Y311910D02*
X431210Y311910D01*
X431210Y298910D01*
X135210Y268910D02*
X135210Y259910D01*
X431210Y259910D01*
X431210Y268910D01*
D11*
X136712Y-62358D02*
X136712Y-67866D01*
X137814Y-68968D01*
X140017Y-68968D01*
X141118Y-67866D01*
X141118Y-62358D01*
X144196Y-67866D02*
X145298Y-68968D01*
X147501Y-68968D01*
X148603Y-67866D01*
X148603Y-66765D01*
X147501Y-65663D01*
X145298Y-65663D01*
X144196Y-64562D01*
X144196Y-63460D01*
X145298Y-62358D01*
X147501Y-62358D01*
X148603Y-63460D01*
X146399Y-61257D02*
X146399Y-70070D01*
X151680Y-68968D02*
X156087Y-68968D01*
X156087Y-64562D02*
X151680Y-68968D01*
X156087Y-64562D02*
X156087Y-63460D01*
X154985Y-62358D01*
X152782Y-62358D01*
X151680Y-63460D01*
D13*
X222250Y353060D02*
X232410Y353060D01*
D15*
X214122Y347218D02*
X202428Y347218D01*
X202428Y353065D01*
X204377Y355014D01*
X208275Y355014D01*
X210224Y353065D01*
X210224Y347218D01*
X210224Y351116D02*
X214122Y355014D01*
X204377Y362810D02*
X202428Y366708D01*
X204377Y362810D02*
X208275Y358912D01*
X212173Y358912D01*
X214122Y360861D01*
X214122Y364759D01*
X212173Y366708D01*
X210224Y366708D01*
X208275Y364759D01*
X208275Y358912D01*
D10*
X393820Y354340D02*
X398770Y354340D01*
X398770Y359290D01*
X370720Y354340D02*
X365770Y354340D01*
X365770Y359290D01*
X398770Y382390D02*
X398770Y387340D01*
X393820Y387340D01*
X365770Y387340D02*
X365770Y382390D01*
X365770Y387340D02*
X370720Y387340D01*
D13*
X401856Y356840D02*
X401858Y356915D01*
X401864Y356989D01*
X401874Y357063D01*
X401887Y357136D01*
X401905Y357209D01*
X401926Y357280D01*
X401951Y357351D01*
X401980Y357420D01*
X402013Y357487D01*
X402049Y357552D01*
X402088Y357616D01*
X402130Y357677D01*
X402176Y357736D01*
X402225Y357793D01*
X402277Y357846D01*
X402331Y357897D01*
X402388Y357946D01*
X402448Y357990D01*
X402510Y358032D01*
X402574Y358071D01*
X402640Y358106D01*
X402707Y358137D01*
X402777Y358165D01*
X402847Y358189D01*
X402919Y358210D01*
X402992Y358226D01*
X403065Y358239D01*
X403140Y358248D01*
X403214Y358253D01*
X403289Y358254D01*
X403363Y358251D01*
X403438Y358244D01*
X403511Y358233D01*
X403585Y358219D01*
X403657Y358200D01*
X403728Y358178D01*
X403798Y358152D01*
X403867Y358122D01*
X403933Y358089D01*
X403998Y358052D01*
X404061Y358012D01*
X404122Y357968D01*
X404180Y357922D01*
X404236Y357872D01*
X404289Y357820D01*
X404340Y357765D01*
X404387Y357707D01*
X404431Y357647D01*
X404472Y357584D01*
X404510Y357520D01*
X404544Y357454D01*
X404575Y357385D01*
X404602Y357316D01*
X404625Y357245D01*
X404644Y357173D01*
X404660Y357100D01*
X404672Y357026D01*
X404680Y356952D01*
X404684Y356877D01*
X404684Y356803D01*
X404680Y356728D01*
X404672Y356654D01*
X404660Y356580D01*
X404644Y356507D01*
X404625Y356435D01*
X404602Y356364D01*
X404575Y356295D01*
X404544Y356226D01*
X404510Y356160D01*
X404472Y356096D01*
X404431Y356033D01*
X404387Y355973D01*
X404340Y355915D01*
X404289Y355860D01*
X404236Y355808D01*
X404180Y355758D01*
X404122Y355712D01*
X404061Y355668D01*
X403998Y355628D01*
X403933Y355591D01*
X403867Y355558D01*
X403798Y355528D01*
X403728Y355502D01*
X403657Y355480D01*
X403585Y355461D01*
X403511Y355447D01*
X403438Y355436D01*
X403363Y355429D01*
X403289Y355426D01*
X403214Y355427D01*
X403140Y355432D01*
X403065Y355441D01*
X402992Y355454D01*
X402919Y355470D01*
X402847Y355491D01*
X402777Y355515D01*
X402707Y355543D01*
X402640Y355574D01*
X402574Y355609D01*
X402510Y355648D01*
X402448Y355690D01*
X402388Y355734D01*
X402331Y355783D01*
X402277Y355834D01*
X402225Y355887D01*
X402176Y355944D01*
X402130Y356003D01*
X402088Y356064D01*
X402049Y356128D01*
X402013Y356193D01*
X401980Y356260D01*
X401951Y356329D01*
X401926Y356400D01*
X401905Y356471D01*
X401887Y356544D01*
X401874Y356617D01*
X401864Y356691D01*
X401858Y356765D01*
X401856Y356840D01*
D11*
X383304Y349764D02*
X383304Y344256D01*
X384405Y343154D01*
X386609Y343154D01*
X387710Y344256D01*
X387710Y349764D01*
X390788Y343154D02*
X395194Y343154D01*
X390788Y343154D02*
X395194Y347560D01*
X395194Y348662D01*
X394093Y349764D01*
X391889Y349764D01*
X390788Y348662D01*
D13*
X476250Y382270D02*
X476250Y392430D01*
D15*
X459720Y374152D02*
X459720Y362458D01*
X459720Y374152D02*
X465567Y374152D01*
X467516Y372203D01*
X467516Y368305D01*
X465567Y366356D01*
X459720Y366356D01*
X463618Y366356D02*
X467516Y362458D01*
X471414Y374152D02*
X479210Y374152D01*
X479210Y372203D01*
X471414Y364407D01*
X471414Y362458D01*
D13*
X429260Y337820D02*
X419100Y337820D01*
D15*
X410972Y331978D02*
X399278Y331978D01*
X399278Y337825D01*
X401227Y339774D01*
X405125Y339774D01*
X407074Y337825D01*
X407074Y331978D01*
X407074Y335876D02*
X410972Y339774D01*
X401227Y343672D02*
X399278Y345621D01*
X399278Y349519D01*
X401227Y351468D01*
X403176Y351468D01*
X405125Y349519D01*
X407074Y351468D01*
X409023Y351468D01*
X410972Y349519D01*
X410972Y345621D01*
X409023Y343672D01*
X407074Y343672D01*
X405125Y345621D01*
X403176Y343672D01*
X401227Y343672D01*
X405125Y345621D02*
X405125Y349519D01*
D13*
X100330Y233680D02*
X100330Y223520D01*
D15*
X94488Y241808D02*
X94488Y253502D01*
X100335Y253502D01*
X102284Y251553D01*
X102284Y247655D01*
X100335Y245706D01*
X94488Y245706D01*
X98386Y245706D02*
X102284Y241808D01*
X106182Y249604D02*
X110080Y253502D01*
X110080Y241808D01*
X106182Y241808D02*
X113978Y241808D01*
X117876Y243757D02*
X117876Y251553D01*
X119825Y253502D01*
X123723Y253502D01*
X125672Y251553D01*
X125672Y243757D01*
X123723Y241808D01*
X119825Y241808D01*
X117876Y243757D01*
X125672Y251553D01*
D13*
X101600Y254000D02*
X101600Y243840D01*
D15*
X95758Y262128D02*
X95758Y273822D01*
X101605Y273822D01*
X103554Y271873D01*
X103554Y267975D01*
X101605Y266026D01*
X95758Y266026D01*
X99656Y266026D02*
X103554Y262128D01*
X107452Y269924D02*
X111350Y273822D01*
X111350Y262128D01*
X107452Y262128D02*
X115248Y262128D01*
X119146Y269924D02*
X123044Y273822D01*
X123044Y262128D01*
X119146Y262128D02*
X126942Y262128D01*
D16*
X230909Y10160D03*
D17*
X267455Y10160D03*
D18*
X270975Y10160D03*
D19*
X275418Y10160D03*
D17*
X279022Y10160D03*
D20*
X283045Y10160D03*
D21*
X287152Y10160D03*
D22*
X291008Y10160D03*
D23*
X294948Y10160D03*
D24*
X299558Y10160D03*
X304755Y10160D03*
D25*
X309449Y10160D03*
D22*
X313472Y10160D03*
X317327Y10160D03*
D26*
X322860Y10160D03*
D23*
X328308Y10160D03*
D27*
X333756Y10160D03*
D28*
X230909Y10328D03*
D29*
X267455Y10328D03*
D30*
X270891Y10328D03*
D31*
X275418Y10328D03*
D32*
X279189Y10328D03*
D33*
X283129Y10328D03*
D34*
X287069Y10328D03*
D33*
X291008Y10328D03*
D34*
X294948Y10328D03*
D35*
X299558Y10328D03*
X304755Y10328D03*
D36*
X309449Y10328D03*
D33*
X313472Y10328D03*
X317327Y10328D03*
D37*
X322860Y10328D03*
D36*
X328224Y10328D03*
D38*
X333756Y10328D03*
D16*
X230909Y10495D03*
D17*
X267455Y10495D03*
D21*
X270891Y10495D03*
D19*
X275418Y10495D03*
D39*
X279273Y10495D03*
D17*
X283213Y10495D03*
D25*
X287153Y10495D03*
D22*
X291008Y10495D03*
D25*
X294864Y10495D03*
D24*
X299558Y10495D03*
X304755Y10495D03*
D25*
X309449Y10495D03*
D22*
X313472Y10495D03*
X317327Y10495D03*
D40*
X322776Y10495D03*
D41*
X328308Y10495D03*
D27*
X333756Y10495D03*
D16*
X230909Y10663D03*
D17*
X267455Y10663D03*
D42*
X270808Y10663D03*
D19*
X275418Y10663D03*
D39*
X279273Y10663D03*
D17*
X283213Y10663D03*
D25*
X287153Y10663D03*
D21*
X291008Y10663D03*
D25*
X294864Y10663D03*
D24*
X299558Y10663D03*
X304755Y10663D03*
D25*
X309449Y10663D03*
D22*
X313472Y10663D03*
X317327Y10663D03*
D40*
X322776Y10663D03*
D41*
X328308Y10663D03*
D27*
X333756Y10663D03*
D28*
X230909Y10831D03*
D29*
X267455Y10831D03*
D43*
X270808Y10831D03*
D44*
X273071Y10831D03*
D31*
X275418Y10831D03*
D45*
X279273Y10831D03*
D29*
X283213Y10831D03*
D36*
X287153Y10831D03*
D30*
X291008Y10831D03*
D36*
X294864Y10831D03*
D35*
X299558Y10831D03*
X304755Y10831D03*
D36*
X309449Y10831D03*
D33*
X313472Y10831D03*
X317327Y10831D03*
D46*
X322776Y10831D03*
D47*
X328308Y10831D03*
D38*
X333756Y10831D03*
D16*
X230909Y10998D03*
D17*
X267455Y10998D03*
D48*
X270724Y10998D03*
D49*
X272987Y10998D03*
D19*
X275418Y10998D03*
D39*
X279273Y10998D03*
D17*
X283213Y10998D03*
D25*
X287153Y10998D03*
D21*
X291008Y10998D03*
D25*
X294864Y10998D03*
D24*
X299558Y10998D03*
X304755Y10998D03*
D23*
X309365Y10998D03*
D22*
X313472Y10998D03*
X317327Y10998D03*
D40*
X322776Y10998D03*
D41*
X328308Y10998D03*
D50*
X333840Y10998D03*
D16*
X230909Y11166D03*
D17*
X267455Y11166D03*
D48*
X270724Y11166D03*
D49*
X272987Y11166D03*
D19*
X275418Y11166D03*
D39*
X279273Y11166D03*
D17*
X283213Y11166D03*
D25*
X287153Y11166D03*
D21*
X291008Y11166D03*
D25*
X294864Y11166D03*
D24*
X299558Y11166D03*
X304755Y11166D03*
D23*
X309365Y11166D03*
D22*
X313472Y11166D03*
X317327Y11166D03*
D40*
X322776Y11166D03*
D41*
X328308Y11166D03*
D50*
X333840Y11166D03*
D28*
X230909Y11334D03*
D29*
X267455Y11334D03*
D51*
X270640Y11334D03*
D52*
X272903Y11334D03*
D31*
X275418Y11334D03*
D45*
X279273Y11334D03*
D29*
X283213Y11334D03*
D36*
X287153Y11334D03*
D53*
X293104Y11334D03*
D35*
X299558Y11334D03*
X304755Y11334D03*
D34*
X309365Y11334D03*
D32*
X313388Y11334D03*
D33*
X317327Y11334D03*
D54*
X324955Y11334D03*
D55*
X333840Y11334D03*
D16*
X230909Y11501D03*
D17*
X267455Y11501D03*
D56*
X270640Y11501D03*
D57*
X272819Y11501D03*
D19*
X275418Y11501D03*
D39*
X279273Y11501D03*
D19*
X283297Y11501D03*
D25*
X287153Y11501D03*
D58*
X293104Y11501D03*
D24*
X299558Y11501D03*
X304755Y11501D03*
D23*
X309365Y11501D03*
D20*
X313388Y11501D03*
D22*
X317327Y11501D03*
D59*
X324955Y11501D03*
D27*
X333756Y11501D03*
D16*
X230909Y11669D03*
D17*
X267455Y11669D03*
D60*
X270556Y11669D03*
D57*
X272819Y11669D03*
D19*
X275418Y11669D03*
D41*
X279357Y11669D03*
D19*
X283297Y11669D03*
D25*
X287153Y11669D03*
D58*
X293104Y11669D03*
D24*
X299558Y11669D03*
X304755Y11669D03*
D23*
X309365Y11669D03*
D20*
X313388Y11669D03*
D22*
X317327Y11669D03*
D61*
X324871Y11669D03*
D27*
X333756Y11669D03*
D28*
X230909Y11837D03*
D29*
X267455Y11837D03*
D62*
X270556Y11837D03*
D63*
X272819Y11837D03*
D31*
X275418Y11837D03*
D47*
X279357Y11837D03*
D31*
X283297Y11837D03*
D36*
X287153Y11837D03*
D53*
X293104Y11837D03*
D35*
X299558Y11837D03*
X304755Y11837D03*
D33*
X309281Y11837D03*
D45*
X313304Y11837D03*
D33*
X317327Y11837D03*
D64*
X324871Y11837D03*
D38*
X333756Y11837D03*
D16*
X230909Y12004D03*
D17*
X267455Y12004D03*
D65*
X270472Y12004D03*
D66*
X272735Y12004D03*
D19*
X275418Y12004D03*
D41*
X279357Y12004D03*
D19*
X283297Y12004D03*
D25*
X287153Y12004D03*
D67*
X292936Y12004D03*
D24*
X299558Y12004D03*
X304755Y12004D03*
D39*
X313304Y12004D03*
D22*
X317327Y12004D03*
D68*
X324704Y12004D03*
D27*
X333756Y12004D03*
D16*
X230909Y12172D03*
D17*
X267455Y12172D03*
D69*
X270388Y12172D03*
D70*
X272651Y12172D03*
D19*
X275418Y12172D03*
D41*
X279357Y12172D03*
D19*
X283297Y12172D03*
D25*
X287153Y12172D03*
D71*
X292433Y12172D03*
D24*
X299558Y12172D03*
X304755Y12172D03*
D41*
X313221Y12172D03*
D22*
X317327Y12172D03*
D72*
X324201Y12172D03*
D27*
X333756Y12172D03*
D28*
X230909Y12340D03*
D29*
X267455Y12340D03*
D73*
X270388Y12340D03*
D74*
X272651Y12340D03*
D31*
X275418Y12340D03*
D47*
X279357Y12340D03*
D31*
X283297Y12340D03*
D36*
X287153Y12340D03*
D75*
X291511Y12340D03*
D76*
X299474Y12340D03*
D35*
X304755Y12340D03*
D77*
X312885Y12340D03*
D33*
X317327Y12340D03*
D78*
X324787Y12340D03*
D38*
X333756Y12340D03*
D16*
X230909Y12507D03*
D17*
X267455Y12507D03*
D79*
X270305Y12507D03*
D80*
X272568Y12507D03*
D19*
X275418Y12507D03*
D41*
X279357Y12507D03*
D19*
X283297Y12507D03*
D25*
X287153Y12507D03*
D23*
X291260Y12507D03*
D81*
X299474Y12507D03*
D24*
X304755Y12507D03*
D82*
X313053Y12507D03*
D22*
X317327Y12507D03*
D25*
X324536Y12507D03*
D83*
X333673Y12507D03*
D28*
X230909Y12675D03*
D29*
X267455Y12675D03*
D84*
X270305Y12675D03*
D85*
X272568Y12675D03*
D31*
X275418Y12675D03*
D47*
X279357Y12675D03*
D31*
X283297Y12675D03*
D36*
X287153Y12675D03*
D34*
X291260Y12675D03*
D86*
X299390Y12675D03*
D35*
X304755Y12675D03*
D47*
X313221Y12675D03*
D33*
X317327Y12675D03*
D36*
X324536Y12675D03*
D87*
X333589Y12675D03*
D16*
X230909Y12842D03*
D17*
X267455Y12842D03*
D80*
X270221Y12842D03*
X272568Y12842D03*
D19*
X275418Y12842D03*
D41*
X279357Y12842D03*
D19*
X283297Y12842D03*
D25*
X287153Y12842D03*
D88*
X291176Y12842D03*
D89*
X299222Y12842D03*
D24*
X304755Y12842D03*
D18*
X309197Y12842D03*
D39*
X313304Y12842D03*
D22*
X317327Y12842D03*
D20*
X324452Y12842D03*
D90*
X333421Y12842D03*
D16*
X230909Y13010D03*
D17*
X267455Y13010D03*
D80*
X270221Y13010D03*
D79*
X272484Y13010D03*
D19*
X275418Y13010D03*
D41*
X279357Y13010D03*
D19*
X283297Y13010D03*
D25*
X287153Y13010D03*
D18*
X291092Y13010D03*
D67*
X298468Y13010D03*
D24*
X304755Y13010D03*
D23*
X309365Y13010D03*
D20*
X313388Y13010D03*
D22*
X317327Y13010D03*
D20*
X324452Y13010D03*
D91*
X332667Y13010D03*
D28*
X230909Y13178D03*
D29*
X267455Y13178D03*
D74*
X270137Y13178D03*
D92*
X272400Y13178D03*
D31*
X275418Y13178D03*
D47*
X279357Y13178D03*
D31*
X283297Y13178D03*
D36*
X287153Y13178D03*
D93*
X291092Y13178D03*
D94*
X297965Y13178D03*
D35*
X304755Y13178D03*
D34*
X309365Y13178D03*
D32*
X313388Y13178D03*
D33*
X317327Y13178D03*
D95*
X322944Y13178D03*
D96*
X332080Y13178D03*
D16*
X230909Y13345D03*
D17*
X267455Y13345D03*
D70*
X270137Y13345D03*
D97*
X272400Y13345D03*
D19*
X275418Y13345D03*
D41*
X279357Y13345D03*
D19*
X283297Y13345D03*
D25*
X287153Y13345D03*
D18*
X291092Y13345D03*
D98*
X297546Y13345D03*
D24*
X304755Y13345D03*
D25*
X309449Y13345D03*
D22*
X313472Y13345D03*
X317327Y13345D03*
D26*
X322860Y13345D03*
D99*
X331829Y13345D03*
D16*
X230909Y13513D03*
D17*
X267455Y13513D03*
D66*
X270053Y13513D03*
D65*
X272316Y13513D03*
D19*
X275418Y13513D03*
D39*
X279273Y13513D03*
D19*
X283297Y13513D03*
D25*
X287153Y13513D03*
D18*
X291092Y13513D03*
D98*
X297546Y13513D03*
D24*
X304755Y13513D03*
D25*
X309449Y13513D03*
D22*
X313472Y13513D03*
X317327Y13513D03*
D26*
X322860Y13513D03*
D100*
X331745Y13513D03*
D28*
X230909Y13681D03*
D29*
X267455Y13681D03*
D101*
X270053Y13681D03*
D102*
X272316Y13681D03*
D31*
X275418Y13681D03*
D45*
X279273Y13681D03*
D31*
X283297Y13681D03*
D36*
X287153Y13681D03*
D93*
X291092Y13681D03*
D103*
X297546Y13681D03*
D35*
X304755Y13681D03*
D36*
X309449Y13681D03*
D33*
X313472Y13681D03*
X317327Y13681D03*
D37*
X322860Y13681D03*
D104*
X331745Y13681D03*
D16*
X230909Y13848D03*
D17*
X267455Y13848D03*
D57*
X269969Y13848D03*
D60*
X272232Y13848D03*
D19*
X275418Y13848D03*
D39*
X279273Y13848D03*
D17*
X283213Y13848D03*
D25*
X287153Y13848D03*
D18*
X291092Y13848D03*
D98*
X297546Y13848D03*
D24*
X304755Y13848D03*
D25*
X309449Y13848D03*
D22*
X313472Y13848D03*
X317327Y13848D03*
D26*
X322860Y13848D03*
D100*
X331745Y13848D03*
D16*
X230909Y14016D03*
D17*
X267455Y14016D03*
D57*
X269969Y14016D03*
D60*
X272232Y14016D03*
D19*
X275418Y14016D03*
D39*
X279273Y14016D03*
D17*
X283213Y14016D03*
D25*
X287153Y14016D03*
D18*
X291092Y14016D03*
D98*
X297546Y14016D03*
D24*
X304755Y14016D03*
D25*
X309449Y14016D03*
D22*
X313472Y14016D03*
X317327Y14016D03*
D26*
X322860Y14016D03*
D100*
X331745Y14016D03*
D28*
X230909Y14184D03*
D29*
X267455Y14184D03*
D52*
X269886Y14184D03*
D105*
X272148Y14184D03*
D31*
X275418Y14184D03*
D45*
X279273Y14184D03*
D29*
X283213Y14184D03*
D36*
X287153Y14184D03*
D93*
X291092Y14184D03*
D34*
X294948Y14184D03*
D76*
X299474Y14184D03*
D35*
X304755Y14184D03*
D36*
X309449Y14184D03*
D33*
X313472Y14184D03*
X317327Y14184D03*
D37*
X322860Y14184D03*
D34*
X328308Y14184D03*
D38*
X333756Y14184D03*
D16*
X230909Y14351D03*
D17*
X267455Y14351D03*
D106*
X269886Y14351D03*
D107*
X272148Y14351D03*
D19*
X275418Y14351D03*
D39*
X279273Y14351D03*
D17*
X283213Y14351D03*
D25*
X287153Y14351D03*
D18*
X291092Y14351D03*
D88*
X294864Y14351D03*
D81*
X299474Y14351D03*
D24*
X304755Y14351D03*
D25*
X309449Y14351D03*
D22*
X313472Y14351D03*
X317327Y14351D03*
D26*
X322860Y14351D03*
D23*
X328308Y14351D03*
D27*
X333756Y14351D03*
D28*
X230909Y14519D03*
D29*
X267455Y14519D03*
D52*
X269886Y14519D03*
D108*
X272065Y14519D03*
D31*
X275418Y14519D03*
D45*
X279273Y14519D03*
D29*
X283213Y14519D03*
D36*
X287153Y14519D03*
D93*
X291092Y14519D03*
D109*
X294864Y14519D03*
D76*
X299474Y14519D03*
D35*
X304755Y14519D03*
D36*
X309449Y14519D03*
D33*
X313472Y14519D03*
X317327Y14519D03*
D37*
X322860Y14519D03*
D34*
X328308Y14519D03*
D38*
X333756Y14519D03*
D16*
X230909Y14686D03*
D17*
X267455Y14686D03*
D42*
X271981Y14686D03*
D19*
X275418Y14686D03*
D39*
X279273Y14686D03*
D17*
X283213Y14686D03*
D25*
X287153Y14686D03*
D18*
X291092Y14686D03*
D88*
X294864Y14686D03*
D81*
X299474Y14686D03*
D24*
X304755Y14686D03*
D25*
X309449Y14686D03*
D22*
X313472Y14686D03*
X317327Y14686D03*
D26*
X322860Y14686D03*
D23*
X328308Y14686D03*
D27*
X333756Y14686D03*
D16*
X230909Y14854D03*
D17*
X267455Y14854D03*
D42*
X271981Y14854D03*
D19*
X275418Y14854D03*
D20*
X279189Y14854D03*
D22*
X283129Y14854D03*
D25*
X287153Y14854D03*
D18*
X291092Y14854D03*
D88*
X294864Y14854D03*
D81*
X299474Y14854D03*
D24*
X304755Y14854D03*
D23*
X309365Y14854D03*
D22*
X313472Y14854D03*
X317327Y14854D03*
D26*
X322860Y14854D03*
D23*
X328308Y14854D03*
D27*
X333756Y14854D03*
D28*
X230909Y15022D03*
D29*
X267455Y15022D03*
D43*
X271981Y15022D03*
D31*
X275418Y15022D03*
D33*
X279105Y15022D03*
X283129Y15022D03*
D36*
X287153Y15022D03*
D93*
X291092Y15022D03*
D109*
X294864Y15022D03*
D76*
X299474Y15022D03*
D35*
X304755Y15022D03*
D34*
X309365Y15022D03*
D33*
X313472Y15022D03*
X317327Y15022D03*
D95*
X322944Y15022D03*
D34*
X328308Y15022D03*
D38*
X333756Y15022D03*
D16*
X230909Y15189D03*
D17*
X267455Y15189D03*
D21*
X271897Y15189D03*
D19*
X275418Y15189D03*
D20*
X283045Y15189D03*
D25*
X287153Y15189D03*
D18*
X291092Y15189D03*
D107*
X298300Y15189D03*
X305844Y15189D03*
D20*
X313388Y15189D03*
D22*
X317327Y15189D03*
D19*
X324704Y15189D03*
D83*
X333673Y15189D03*
D16*
X230909Y15357D03*
D17*
X267455Y15357D03*
D18*
X271813Y15357D03*
D19*
X275418Y15357D03*
D20*
X283045Y15357D03*
D25*
X287153Y15357D03*
D88*
X291176Y15357D03*
D107*
X298300Y15357D03*
X305844Y15357D03*
D39*
X313304Y15357D03*
D22*
X317327Y15357D03*
D19*
X324704Y15357D03*
D83*
X333673Y15357D03*
D28*
X230909Y15525D03*
D29*
X267455Y15525D03*
D93*
X271813Y15525D03*
D31*
X275418Y15525D03*
D36*
X282962Y15525D03*
X287153Y15525D03*
D109*
X291176Y15525D03*
D108*
X298217Y15525D03*
D105*
X305844Y15525D03*
D45*
X313304Y15525D03*
D33*
X317327Y15525D03*
D31*
X324704Y15525D03*
D87*
X333589Y15525D03*
D16*
X230909Y15692D03*
D17*
X267455Y15692D03*
D22*
X271729Y15692D03*
D19*
X275418Y15692D03*
D110*
X282794Y15692D03*
D25*
X287153Y15692D03*
D23*
X291260Y15692D03*
D42*
X298133Y15692D03*
D107*
X305844Y15692D03*
D41*
X313221Y15692D03*
D22*
X317327Y15692D03*
D18*
X324787Y15692D03*
D111*
X333589Y15692D03*
D16*
X230909Y15860D03*
D17*
X267455Y15860D03*
D22*
X271729Y15860D03*
D19*
X275418Y15860D03*
D112*
X282626Y15860D03*
D25*
X287153Y15860D03*
D113*
X291427Y15860D03*
D19*
X298049Y15860D03*
D107*
X305844Y15860D03*
D110*
X313137Y15860D03*
D22*
X317327Y15860D03*
D20*
X324955Y15860D03*
D90*
X333421Y15860D03*
D28*
X230909Y16028D03*
D29*
X267455Y16028D03*
D34*
X271646Y16028D03*
D31*
X275418Y16028D03*
D76*
X282375Y16028D03*
D36*
X287153Y16028D03*
D78*
X291595Y16028D03*
D33*
X297881Y16028D03*
D105*
X305844Y16028D03*
D114*
X312969Y16028D03*
D33*
X317327Y16028D03*
D47*
X325123Y16028D03*
D115*
X333253Y16028D03*
D116*
X266700Y16195D03*
X266700Y16363D03*
D117*
X266700Y16531D03*
D116*
X266700Y16698D03*
D117*
X266700Y16866D03*
D116*
X266700Y17033D03*
D106*
X188916Y20051D03*
D107*
X330822Y20051D03*
D105*
X188999Y20219D03*
D38*
X203332Y20219D03*
D118*
X213977Y20219D03*
D119*
X226802Y20219D03*
D87*
X237028Y20219D03*
D38*
X249098Y20219D03*
D118*
X259575Y20219D03*
D120*
X268293Y20219D03*
X281369Y20219D03*
D121*
X301234Y20219D03*
D120*
X311712Y20219D03*
D118*
X320261Y20219D03*
D122*
X331158Y20219D03*
D18*
X188999Y20386D03*
D123*
X203333Y20386D03*
D67*
X213977Y20386D03*
D124*
X226634Y20386D03*
D111*
X237028Y20386D03*
D125*
X249014Y20386D03*
D67*
X259575Y20386D03*
D126*
X268293Y20386D03*
X281369Y20386D03*
D127*
X301234Y20386D03*
D126*
X311712Y20386D03*
D67*
X320261Y20386D03*
D128*
X331493Y20386D03*
D20*
X188999Y20554D03*
D98*
X203332Y20554D03*
D67*
X213977Y20554D03*
D129*
X226634Y20554D03*
D111*
X237028Y20554D03*
D98*
X249098Y20554D03*
D67*
X259575Y20554D03*
D126*
X268293Y20554D03*
X281369Y20554D03*
D125*
X301150Y20554D03*
D126*
X311712Y20554D03*
D67*
X320261Y20554D03*
D125*
X331493Y20554D03*
D75*
X188915Y20722D03*
D96*
X203332Y20722D03*
D118*
X213977Y20722D03*
D130*
X226550Y20722D03*
D87*
X237028Y20722D03*
D96*
X249098Y20722D03*
D118*
X259575Y20722D03*
D120*
X268293Y20722D03*
X281369Y20722D03*
D131*
X301150Y20722D03*
D120*
X311712Y20722D03*
D118*
X320261Y20722D03*
D132*
X331661Y20722D03*
D133*
X188999Y20889D03*
D61*
X203332Y20889D03*
D67*
X213977Y20889D03*
D134*
X226467Y20889D03*
D111*
X237028Y20889D03*
D100*
X249098Y20889D03*
D67*
X259575Y20889D03*
D126*
X268293Y20889D03*
X281369Y20889D03*
D135*
X301150Y20889D03*
D126*
X311712Y20889D03*
D67*
X320261Y20889D03*
D99*
X331829Y20889D03*
D76*
X188832Y21057D03*
D54*
X203416Y21057D03*
D118*
X213977Y21057D03*
D136*
X226550Y21057D03*
D87*
X237028Y21057D03*
D137*
X249098Y21057D03*
D118*
X259575Y21057D03*
D120*
X268293Y21057D03*
X281369Y21057D03*
D138*
X301150Y21057D03*
D120*
X311712Y21057D03*
D118*
X320261Y21057D03*
D139*
X331829Y21057D03*
D140*
X188831Y21224D03*
D141*
X203416Y21224D03*
D67*
X213977Y21224D03*
D59*
X226550Y21224D03*
D111*
X237028Y21224D03*
D141*
X249182Y21224D03*
D67*
X259575Y21224D03*
D126*
X268293Y21224D03*
X281369Y21224D03*
D142*
X301234Y21224D03*
D126*
X311712Y21224D03*
D67*
X320261Y21224D03*
D143*
X331661Y21224D03*
D144*
X188664Y21392D03*
D145*
X203500Y21392D03*
D67*
X213977Y21392D03*
D146*
X226634Y21392D03*
D111*
X237028Y21392D03*
D147*
X249266Y21392D03*
D67*
X259575Y21392D03*
D126*
X268293Y21392D03*
X281369Y21392D03*
D146*
X301234Y21392D03*
D126*
X311712Y21392D03*
D67*
X320261Y21392D03*
D142*
X331577Y21392D03*
D122*
X188664Y21560D03*
D148*
X203584Y21560D03*
D118*
X213977Y21560D03*
D149*
X226634Y21560D03*
D87*
X237028Y21560D03*
D148*
X249182Y21560D03*
D118*
X259575Y21560D03*
D120*
X268293Y21560D03*
X281369Y21560D03*
D149*
X301234Y21560D03*
D120*
X311712Y21560D03*
D118*
X320261Y21560D03*
D137*
X331577Y21560D03*
D150*
X188580Y21727D03*
D151*
X203500Y21727D03*
D67*
X213977Y21727D03*
D145*
X226634Y21727D03*
D111*
X237028Y21727D03*
D152*
X249266Y21727D03*
D67*
X259575Y21727D03*
D126*
X268293Y21727D03*
X281369Y21727D03*
D145*
X301234Y21727D03*
D126*
X311712Y21727D03*
D67*
X320261Y21727D03*
D153*
X331493Y21727D03*
D83*
X188496Y21895D03*
D154*
X203668Y21895D03*
D67*
X213977Y21895D03*
D155*
X226718Y21895D03*
D111*
X237028Y21895D03*
D156*
X249433Y21895D03*
D67*
X259575Y21895D03*
D126*
X268293Y21895D03*
X281369Y21895D03*
D155*
X301318Y21895D03*
D126*
X311712Y21895D03*
D67*
X320261Y21895D03*
D146*
X331409Y21895D03*
D95*
X188496Y22063D03*
D157*
X203752Y22063D03*
D118*
X213977Y22063D03*
D158*
X226718Y22063D03*
D87*
X237028Y22063D03*
D159*
X249517Y22063D03*
D118*
X259575Y22063D03*
D120*
X268293Y22063D03*
X281369Y22063D03*
D160*
X301402Y22063D03*
D120*
X311712Y22063D03*
D118*
X320261Y22063D03*
D161*
X331409Y22063D03*
D67*
X188328Y22230D03*
D162*
X203752Y22230D03*
D67*
X213977Y22230D03*
D156*
X226802Y22230D03*
D111*
X237028Y22230D03*
D163*
X249517Y22230D03*
D67*
X259575Y22230D03*
D126*
X268293Y22230D03*
X281369Y22230D03*
D154*
X301402Y22230D03*
D126*
X311712Y22230D03*
D67*
X320261Y22230D03*
D141*
X331326Y22230D03*
D58*
X188161Y22398D03*
D164*
X203919Y22398D03*
D67*
X213977Y22398D03*
D165*
X226802Y22398D03*
D111*
X237028Y22398D03*
D166*
X249601Y22398D03*
D67*
X259575Y22398D03*
D126*
X268293Y22398D03*
X281369Y22398D03*
D165*
X301570Y22398D03*
D126*
X311712Y22398D03*
D67*
X320261Y22398D03*
D141*
X331326Y22398D03*
D167*
X188077Y22566D03*
D168*
X203835Y22566D03*
D118*
X213977Y22566D03*
D169*
X226886Y22566D03*
D87*
X237028Y22566D03*
D168*
X249601Y22566D03*
D118*
X259575Y22566D03*
D120*
X268293Y22566D03*
X281369Y22566D03*
D170*
X301486Y22566D03*
D120*
X311712Y22566D03*
D118*
X320261Y22566D03*
D171*
X331326Y22566D03*
D127*
X187909Y22733D03*
D172*
X207104Y22733D03*
D173*
X226970Y22733D03*
D111*
X237028Y22733D03*
D174*
X252870Y22733D03*
D126*
X268293Y22733D03*
X281369Y22733D03*
D164*
X301653Y22733D03*
D126*
X311712Y22733D03*
D67*
X320261Y22733D03*
D141*
X331326Y22733D03*
D94*
X187825Y22901D03*
D175*
X207104Y22901D03*
D176*
X226970Y22901D03*
D87*
X237028Y22901D03*
D177*
X252786Y22901D03*
D120*
X268293Y22901D03*
X281369Y22901D03*
D178*
X301653Y22901D03*
D120*
X311712Y22901D03*
D118*
X320261Y22901D03*
D179*
X331242Y22901D03*
D180*
X187742Y23068D03*
D172*
X207104Y23068D03*
D181*
X230155Y23068D03*
X252786Y23068D03*
D126*
X268293Y23068D03*
X281369Y23068D03*
D182*
X304922Y23068D03*
D67*
X320261Y23068D03*
D183*
X331242Y23068D03*
D123*
X187574Y23236D03*
D172*
X207104Y23236D03*
D181*
X230155Y23236D03*
X252786Y23236D03*
D126*
X268293Y23236D03*
X281369Y23236D03*
D182*
X304922Y23236D03*
D67*
X320261Y23236D03*
D183*
X331242Y23236D03*
D184*
X187574Y23404D03*
D175*
X207104Y23404D03*
D177*
X230155Y23404D03*
X252786Y23404D03*
D120*
X268293Y23404D03*
X281369Y23404D03*
D185*
X304922Y23404D03*
D118*
X320261Y23404D03*
D179*
X331242Y23404D03*
D98*
X187406Y23571D03*
D186*
X207020Y23571D03*
D187*
X230071Y23571D03*
D172*
X252702Y23571D03*
D126*
X268293Y23571D03*
X281369Y23571D03*
D187*
X304839Y23571D03*
D67*
X320261Y23571D03*
D183*
X331242Y23571D03*
D72*
X187239Y23739D03*
D186*
X207020Y23739D03*
X229987Y23739D03*
D172*
X252702Y23739D03*
D126*
X268293Y23739D03*
X281369Y23739D03*
D187*
X304839Y23739D03*
D67*
X320261Y23739D03*
D188*
X331158Y23739D03*
D132*
X187155Y23907D03*
D189*
X207020Y23907D03*
X229987Y23907D03*
D175*
X252702Y23907D03*
D120*
X268293Y23907D03*
X281369Y23907D03*
D190*
X304839Y23907D03*
D118*
X320261Y23907D03*
D191*
X331158Y23907D03*
D192*
X187071Y24074D03*
D186*
X207020Y24074D03*
X229987Y24074D03*
D172*
X252702Y24074D03*
D126*
X268293Y24074D03*
X281369Y24074D03*
D187*
X304839Y24074D03*
D67*
X320261Y24074D03*
D188*
X331158Y24074D03*
D193*
X186903Y24242D03*
D186*
X207020Y24242D03*
X229987Y24242D03*
X252618Y24242D03*
D126*
X268293Y24242D03*
X281369Y24242D03*
D187*
X304839Y24242D03*
D67*
X320261Y24242D03*
D188*
X331158Y24242D03*
D194*
X186820Y24410D03*
D189*
X207020Y24410D03*
X229987Y24410D03*
X252618Y24410D03*
D120*
X268293Y24410D03*
X281369Y24410D03*
D190*
X304839Y24410D03*
D118*
X320261Y24410D03*
D191*
X331158Y24410D03*
D68*
X186736Y24577D03*
D186*
X207020Y24577D03*
D195*
X229903Y24577D03*
D186*
X252618Y24577D03*
D126*
X268293Y24577D03*
X281369Y24577D03*
D187*
X304839Y24577D03*
D67*
X320261Y24577D03*
D188*
X331158Y24577D03*
D61*
X186568Y24745D03*
D128*
X200399Y24745D03*
D68*
X212385Y24745D03*
D195*
X229903Y24745D03*
D128*
X245997Y24745D03*
D196*
X258067Y24745D03*
D126*
X268293Y24745D03*
X281369Y24745D03*
D187*
X304839Y24745D03*
D67*
X320261Y24745D03*
D188*
X331158Y24745D03*
D54*
X186484Y24913D03*
D197*
X200231Y24913D03*
D198*
X212720Y24913D03*
D199*
X229903Y24913D03*
D167*
X245913Y24913D03*
D200*
X258318Y24913D03*
D120*
X268293Y24913D03*
X281369Y24913D03*
D190*
X304839Y24913D03*
D118*
X320261Y24913D03*
D191*
X331158Y24913D03*
D142*
X186400Y25080D03*
D90*
X199979Y25080D03*
D98*
X213055Y25080D03*
D195*
X229903Y25080D03*
D90*
X245745Y25080D03*
D201*
X258737Y25080D03*
D126*
X268293Y25080D03*
X281369Y25080D03*
D202*
X304755Y25080D03*
D67*
X320261Y25080D03*
D188*
X331158Y25080D03*
D203*
X186233Y25248D03*
D120*
X199896Y25248D03*
D204*
X213307Y25248D03*
D199*
X229903Y25248D03*
D118*
X245661Y25248D03*
D205*
X258989Y25248D03*
D120*
X268293Y25248D03*
X281369Y25248D03*
D206*
X304755Y25248D03*
D118*
X320261Y25248D03*
D207*
X329314Y25248D03*
D208*
X186149Y25415D03*
D126*
X199896Y25415D03*
D180*
X213391Y25415D03*
D129*
X223449Y25415D03*
D209*
X235771Y25415D03*
D67*
X245661Y25415D03*
D210*
X259072Y25415D03*
D126*
X268293Y25415D03*
X281369Y25415D03*
D129*
X298384Y25415D03*
D211*
X310538Y25415D03*
D67*
X320261Y25415D03*
D124*
X329062Y25415D03*
D212*
X186065Y25583D03*
D111*
X199812Y25583D03*
D213*
X213642Y25583D03*
D214*
X223114Y25583D03*
D123*
X236190Y25583D03*
D111*
X245578Y25583D03*
D214*
X259324Y25583D03*
D126*
X268293Y25583D03*
X281369Y25583D03*
D128*
X298133Y25583D03*
D91*
X310874Y25583D03*
D67*
X320261Y25583D03*
D215*
X328978Y25583D03*
D216*
X185898Y25751D03*
D87*
X199812Y25751D03*
D53*
X213810Y25751D03*
D197*
X223030Y25751D03*
D217*
X236525Y25751D03*
D87*
X245578Y25751D03*
D218*
X259492Y25751D03*
D120*
X268293Y25751D03*
X281369Y25751D03*
D167*
X298049Y25751D03*
D207*
X311209Y25751D03*
D118*
X320261Y25751D03*
D219*
X328894Y25751D03*
D220*
X185814Y25918D03*
D111*
X199812Y25918D03*
D67*
X213977Y25918D03*
D215*
X222862Y25918D03*
D128*
X236609Y25918D03*
D111*
X245578Y25918D03*
D67*
X259575Y25918D03*
D126*
X268293Y25918D03*
X281369Y25918D03*
D215*
X297965Y25918D03*
D128*
X311377Y25918D03*
D67*
X320261Y25918D03*
D90*
X328894Y25918D03*
D80*
X151029Y26086D03*
D221*
X185646Y26086D03*
D111*
X199812Y26086D03*
D67*
X213977Y26086D03*
D215*
X222862Y26086D03*
D90*
X236860Y26086D03*
D83*
X245494Y26086D03*
D67*
X259575Y26086D03*
D126*
X268293Y26086D03*
X281369Y26086D03*
D215*
X297965Y26086D03*
D90*
X311628Y26086D03*
D67*
X320261Y26086D03*
D90*
X328894Y26086D03*
D30*
X151196Y26254D03*
D222*
X185562Y26254D03*
D87*
X199812Y26254D03*
D118*
X213977Y26254D03*
D219*
X222778Y26254D03*
D87*
X237028Y26254D03*
D95*
X245494Y26254D03*
D118*
X259575Y26254D03*
D120*
X268293Y26254D03*
X281369Y26254D03*
D219*
X297881Y26254D03*
D120*
X311712Y26254D03*
D118*
X320261Y26254D03*
D120*
X328811Y26254D03*
D20*
X151112Y26421D03*
D223*
X185478Y26421D03*
D111*
X199812Y26421D03*
D67*
X213977Y26421D03*
D90*
X222778Y26421D03*
D111*
X237028Y26421D03*
D83*
X245494Y26421D03*
D67*
X259575Y26421D03*
D126*
X268293Y26421D03*
X281369Y26421D03*
D90*
X297881Y26421D03*
D126*
X311712Y26421D03*
D67*
X320261Y26421D03*
D126*
X328811Y26421D03*
D112*
X151364Y26589D03*
D224*
X185311Y26589D03*
D111*
X199812Y26589D03*
D67*
X213977Y26589D03*
D90*
X222778Y26589D03*
D111*
X237028Y26589D03*
D83*
X245494Y26589D03*
D67*
X259575Y26589D03*
D126*
X268293Y26589D03*
X281369Y26589D03*
D90*
X297881Y26589D03*
D126*
X311712Y26589D03*
D67*
X320261Y26589D03*
D126*
X328811Y26589D03*
D225*
X151615Y26757D03*
D226*
X185143Y26757D03*
D87*
X199812Y26757D03*
D118*
X213977Y26757D03*
D120*
X222695Y26757D03*
D87*
X237028Y26757D03*
D95*
X245494Y26757D03*
D118*
X259575Y26757D03*
D120*
X268293Y26757D03*
X281369Y26757D03*
D219*
X297881Y26757D03*
D120*
X311712Y26757D03*
D118*
X320261Y26757D03*
D120*
X328811Y26757D03*
D227*
X151699Y26924D03*
D163*
X185143Y26924D03*
D111*
X199812Y26924D03*
D67*
X213977Y26924D03*
D126*
X222695Y26924D03*
D111*
X237028Y26924D03*
D83*
X245494Y26924D03*
D67*
X259575Y26924D03*
D126*
X268293Y26924D03*
X281369Y26924D03*
D90*
X297881Y26924D03*
D126*
X311712Y26924D03*
D67*
X320261Y26924D03*
D126*
X328811Y26924D03*
D95*
X151951Y27092D03*
D169*
X184976Y27092D03*
D87*
X199812Y27092D03*
D118*
X213977Y27092D03*
X222527Y27092D03*
D87*
X237028Y27092D03*
D95*
X245494Y27092D03*
D118*
X259575Y27092D03*
D120*
X268293Y27092D03*
X281369Y27092D03*
D118*
X297797Y27092D03*
D120*
X311712Y27092D03*
D118*
X320261Y27092D03*
D120*
X328811Y27092D03*
D90*
X152202Y27259D03*
D173*
X184892Y27259D03*
D111*
X199812Y27259D03*
D67*
X213977Y27259D03*
X222527Y27259D03*
D111*
X237028Y27259D03*
D83*
X245494Y27259D03*
D67*
X259575Y27259D03*
D126*
X268293Y27259D03*
X281369Y27259D03*
D67*
X297797Y27259D03*
D126*
X311712Y27259D03*
D67*
X320261Y27259D03*
D126*
X328811Y27259D03*
D128*
X152286Y27427D03*
D228*
X184808Y27427D03*
D111*
X199812Y27427D03*
D67*
X213977Y27427D03*
X222527Y27427D03*
D111*
X237028Y27427D03*
D83*
X245494Y27427D03*
D67*
X259575Y27427D03*
D126*
X268293Y27427D03*
X281369Y27427D03*
D67*
X297797Y27427D03*
D126*
X311712Y27427D03*
D67*
X320261Y27427D03*
D126*
X328811Y27427D03*
D229*
X152621Y27595D03*
D230*
X184640Y27595D03*
D87*
X199812Y27595D03*
D118*
X213977Y27595D03*
X222527Y27595D03*
D87*
X237028Y27595D03*
D95*
X245494Y27595D03*
D118*
X259575Y27595D03*
D120*
X268293Y27595D03*
X281369Y27595D03*
D118*
X297797Y27595D03*
D120*
X311712Y27595D03*
D118*
X320261Y27595D03*
D120*
X328811Y27595D03*
D231*
X152789Y27762D03*
D232*
X184556Y27762D03*
D83*
X199896Y27762D03*
D67*
X213977Y27762D03*
X222527Y27762D03*
D111*
X237028Y27762D03*
D83*
X245494Y27762D03*
D67*
X259575Y27762D03*
D126*
X268293Y27762D03*
X281369Y27762D03*
D67*
X297797Y27762D03*
D126*
X311712Y27762D03*
D67*
X320261Y27762D03*
D126*
X328811Y27762D03*
D209*
X152957Y27930D03*
D233*
X184389Y27930D03*
D83*
X199896Y27930D03*
D67*
X213977Y27930D03*
X222527Y27930D03*
D111*
X237028Y27930D03*
D83*
X245494Y27930D03*
D67*
X259575Y27930D03*
D126*
X268293Y27930D03*
X281369Y27930D03*
D67*
X297797Y27930D03*
D126*
X311712Y27930D03*
D67*
X320261Y27930D03*
D126*
X328811Y27930D03*
D194*
X153292Y28098D03*
D234*
X184305Y28098D03*
D95*
X199896Y28098D03*
D118*
X213977Y28098D03*
X222527Y28098D03*
D87*
X237028Y28098D03*
X245578Y28098D03*
D118*
X259575Y28098D03*
D120*
X268293Y28098D03*
X281369Y28098D03*
D118*
X297797Y28098D03*
D120*
X311712Y28098D03*
D118*
X320261Y28098D03*
D120*
X328811Y28098D03*
D61*
X153543Y28265D03*
D235*
X184137Y28265D03*
D83*
X199896Y28265D03*
D67*
X213977Y28265D03*
X222527Y28265D03*
D111*
X237028Y28265D03*
X245578Y28265D03*
D67*
X259575Y28265D03*
D126*
X268293Y28265D03*
X281369Y28265D03*
D67*
X297797Y28265D03*
D126*
X311712Y28265D03*
D67*
X320261Y28265D03*
D126*
X328811Y28265D03*
D142*
X153711Y28433D03*
D235*
X184137Y28433D03*
D83*
X199896Y28433D03*
D67*
X213977Y28433D03*
X222527Y28433D03*
D111*
X237028Y28433D03*
X245578Y28433D03*
D67*
X259575Y28433D03*
D126*
X268293Y28433D03*
X281369Y28433D03*
D67*
X297797Y28433D03*
D126*
X311712Y28433D03*
D67*
X320261Y28433D03*
D126*
X328811Y28433D03*
D149*
X154046Y28601D03*
D236*
X184054Y28601D03*
D87*
X199980Y28601D03*
D118*
X213977Y28601D03*
X222527Y28601D03*
D87*
X237028Y28601D03*
D118*
X245661Y28601D03*
X259575Y28601D03*
D120*
X268293Y28601D03*
X281369Y28601D03*
D118*
X297797Y28601D03*
D120*
X311712Y28601D03*
D118*
X320261Y28601D03*
D120*
X328811Y28601D03*
D220*
X154298Y28768D03*
D237*
X183886Y28768D03*
D111*
X199980Y28768D03*
D67*
X213977Y28768D03*
X222527Y28768D03*
D111*
X237028Y28768D03*
D67*
X245661Y28768D03*
X259575Y28768D03*
D126*
X268293Y28768D03*
X281369Y28768D03*
D67*
X297797Y28768D03*
D126*
X311712Y28768D03*
D67*
X320261Y28768D03*
D126*
X328811Y28768D03*
D221*
X154465Y28936D03*
D237*
X183886Y28936D03*
D67*
X200063Y28936D03*
X213977Y28936D03*
X222527Y28936D03*
D111*
X237028Y28936D03*
D67*
X245829Y28936D03*
X259575Y28936D03*
D126*
X268293Y28936D03*
X281369Y28936D03*
D67*
X297797Y28936D03*
D126*
X311712Y28936D03*
D67*
X320261Y28936D03*
D126*
X328811Y28936D03*
D157*
X154801Y29104D03*
D238*
X183718Y29104D03*
D219*
X200147Y29104D03*
D118*
X213977Y29104D03*
X222527Y29104D03*
D87*
X237028Y29104D03*
D219*
X245913Y29104D03*
D118*
X259575Y29104D03*
D120*
X268293Y29104D03*
X281369Y29104D03*
D118*
X297797Y29104D03*
D120*
X311712Y29104D03*
D118*
X320261Y29104D03*
D120*
X328811Y29104D03*
D162*
X155136Y29271D03*
D239*
X183634Y29271D03*
D128*
X200399Y29271D03*
D67*
X213977Y29271D03*
X222527Y29271D03*
D111*
X237028Y29271D03*
D214*
X246081Y29271D03*
D67*
X259575Y29271D03*
D126*
X268293Y29271D03*
X281369Y29271D03*
D67*
X297797Y29271D03*
D126*
X311712Y29271D03*
D67*
X320261Y29271D03*
D126*
X328811Y29271D03*
D240*
X155303Y29439D03*
D241*
X183551Y29439D03*
D94*
X200566Y29439D03*
D118*
X213977Y29439D03*
X222527Y29439D03*
D87*
X237028Y29439D03*
D94*
X246332Y29439D03*
D118*
X259575Y29439D03*
D120*
X268293Y29439D03*
X281369Y29439D03*
D118*
X297797Y29439D03*
D120*
X311712Y29439D03*
D118*
X320261Y29439D03*
D120*
X328811Y29439D03*
D242*
X155639Y29606D03*
D243*
X183467Y29606D03*
D172*
X207104Y29606D03*
D67*
X222527Y29606D03*
D111*
X237028Y29606D03*
D181*
X252786Y29606D03*
D126*
X268293Y29606D03*
X281369Y29606D03*
D67*
X297797Y29606D03*
D126*
X311712Y29606D03*
D67*
X320261Y29606D03*
D126*
X328811Y29606D03*
D244*
X155974Y29774D03*
D245*
X183383Y29774D03*
D172*
X207104Y29774D03*
D67*
X222527Y29774D03*
D111*
X237028Y29774D03*
D181*
X252786Y29774D03*
D126*
X268293Y29774D03*
X281369Y29774D03*
D67*
X297797Y29774D03*
D126*
X311712Y29774D03*
D67*
X320261Y29774D03*
D126*
X328811Y29774D03*
D234*
X156142Y29942D03*
D246*
X183383Y29942D03*
D175*
X207104Y29942D03*
D118*
X222527Y29942D03*
D87*
X237028Y29942D03*
D177*
X252786Y29942D03*
D120*
X268293Y29942D03*
X281369Y29942D03*
D118*
X297797Y29942D03*
D120*
X311712Y29942D03*
D118*
X320261Y29942D03*
D120*
X328811Y29942D03*
D247*
X156477Y30109D03*
D248*
X183215Y30109D03*
D172*
X207104Y30109D03*
D67*
X222527Y30109D03*
D111*
X237028Y30109D03*
D181*
X252786Y30109D03*
D126*
X268293Y30109D03*
X281369Y30109D03*
D67*
X297797Y30109D03*
D126*
X311712Y30109D03*
D67*
X320261Y30109D03*
D126*
X328811Y30109D03*
D249*
X156728Y30277D03*
D250*
X183131Y30277D03*
D181*
X207188Y30277D03*
D67*
X222527Y30277D03*
D111*
X237028Y30277D03*
D174*
X252870Y30277D03*
D126*
X268293Y30277D03*
X281369Y30277D03*
D67*
X297797Y30277D03*
D126*
X311712Y30277D03*
D67*
X320261Y30277D03*
D126*
X328811Y30277D03*
D251*
X156980Y30445D03*
D252*
X183131Y30445D03*
D177*
X207188Y30445D03*
D118*
X222527Y30445D03*
D87*
X237028Y30445D03*
D253*
X252870Y30445D03*
D120*
X268293Y30445D03*
X281369Y30445D03*
D118*
X297797Y30445D03*
D120*
X311712Y30445D03*
D118*
X320261Y30445D03*
D120*
X328811Y30445D03*
D243*
X157148Y30612D03*
D254*
X183048Y30612D03*
D174*
X207272Y30612D03*
D67*
X222527Y30612D03*
D111*
X237028Y30612D03*
D174*
X252870Y30612D03*
D126*
X268293Y30612D03*
X281369Y30612D03*
D67*
X297797Y30612D03*
D126*
X311712Y30612D03*
D67*
X320261Y30612D03*
D126*
X328811Y30612D03*
D255*
X157315Y30780D03*
D256*
X182964Y30780D03*
D174*
X207272Y30780D03*
D67*
X222527Y30780D03*
D111*
X237028Y30780D03*
D257*
X252954Y30780D03*
D126*
X268293Y30780D03*
X281369Y30780D03*
D67*
X297797Y30780D03*
D126*
X311712Y30780D03*
D67*
X320261Y30780D03*
D126*
X328811Y30780D03*
D252*
X157483Y30948D03*
D258*
X182880Y30948D03*
D253*
X207272Y30948D03*
D118*
X222527Y30948D03*
D87*
X237028Y30948D03*
D259*
X252954Y30948D03*
D120*
X268293Y30948D03*
X281369Y30948D03*
D118*
X297797Y30948D03*
D120*
X311712Y30948D03*
D118*
X320261Y30948D03*
D120*
X328811Y30948D03*
D260*
X157734Y31115D03*
D261*
X182880Y31115D03*
D257*
X207356Y31115D03*
D67*
X222527Y31115D03*
D111*
X237028Y31115D03*
D262*
X253037Y31115D03*
D126*
X268293Y31115D03*
X281369Y31115D03*
D67*
X297797Y31115D03*
D126*
X311712Y31115D03*
D67*
X320261Y31115D03*
D126*
X328811Y31115D03*
D263*
X158070Y31283D03*
D264*
X182796Y31283D03*
D259*
X207356Y31283D03*
D118*
X222527Y31283D03*
D87*
X237028Y31283D03*
D265*
X253037Y31283D03*
D120*
X268293Y31283D03*
X281369Y31283D03*
D118*
X297797Y31283D03*
D120*
X311712Y31283D03*
D118*
X320261Y31283D03*
D120*
X328811Y31283D03*
D266*
X158070Y31450D03*
D267*
X182712Y31450D03*
D262*
X207439Y31450D03*
D67*
X222527Y31450D03*
D111*
X237028Y31450D03*
D268*
X253121Y31450D03*
D126*
X268293Y31450D03*
X281369Y31450D03*
D67*
X297797Y31450D03*
D126*
X311712Y31450D03*
D67*
X320261Y31450D03*
D126*
X328811Y31450D03*
D267*
X158237Y31618D03*
X182712Y31618D03*
D268*
X207523Y31618D03*
D67*
X222527Y31618D03*
D111*
X237028Y31618D03*
D269*
X253205Y31618D03*
D126*
X268293Y31618D03*
X281369Y31618D03*
D67*
X297797Y31618D03*
D126*
X311712Y31618D03*
D67*
X320261Y31618D03*
D126*
X328811Y31618D03*
D270*
X158405Y31786D03*
D271*
X182629Y31786D03*
D272*
X207607Y31786D03*
D118*
X222527Y31786D03*
D87*
X237028Y31786D03*
D273*
X253289Y31786D03*
D120*
X268293Y31786D03*
X281369Y31786D03*
D118*
X297797Y31786D03*
D120*
X311712Y31786D03*
D118*
X320261Y31786D03*
D120*
X328811Y31786D03*
D274*
X158572Y31953D03*
D275*
X182629Y31953D03*
D276*
X207607Y31953D03*
D67*
X222527Y31953D03*
D111*
X237028Y31953D03*
D277*
X253289Y31953D03*
D126*
X268293Y31953D03*
X281369Y31953D03*
D67*
X297797Y31953D03*
D126*
X311712Y31953D03*
D67*
X320261Y31953D03*
D126*
X328811Y31953D03*
D278*
X158740Y32121D03*
D279*
X182461Y32121D03*
D280*
X207775Y32121D03*
D67*
X222527Y32121D03*
D111*
X237028Y32121D03*
D280*
X253373Y32121D03*
D126*
X268293Y32121D03*
X281369Y32121D03*
D67*
X297797Y32121D03*
D126*
X311712Y32121D03*
D67*
X320261Y32121D03*
D126*
X328811Y32121D03*
D281*
X158824Y32289D03*
D282*
X182461Y32289D03*
D283*
X207858Y32289D03*
D118*
X222527Y32289D03*
D87*
X237028Y32289D03*
D284*
X253540Y32289D03*
D120*
X268293Y32289D03*
X281369Y32289D03*
D118*
X297797Y32289D03*
D120*
X311712Y32289D03*
D118*
X320261Y32289D03*
D120*
X328811Y32289D03*
D285*
X158908Y32456D03*
D279*
X182461Y32456D03*
D286*
X207942Y32456D03*
D67*
X222527Y32456D03*
D111*
X237028Y32456D03*
D287*
X253624Y32456D03*
D126*
X268293Y32456D03*
X281369Y32456D03*
D67*
X297797Y32456D03*
D126*
X311712Y32456D03*
D67*
X320261Y32456D03*
D126*
X328811Y32456D03*
D288*
X159075Y32624D03*
D287*
X182377Y32624D03*
D279*
X208110Y32624D03*
D67*
X222527Y32624D03*
D111*
X237028Y32624D03*
D289*
X253792Y32624D03*
D126*
X268293Y32624D03*
X281369Y32624D03*
D67*
X297797Y32624D03*
D126*
X311712Y32624D03*
D67*
X320261Y32624D03*
D126*
X328811Y32624D03*
D290*
X159159Y32792D03*
D291*
X182377Y32792D03*
D271*
X208278Y32792D03*
D118*
X222527Y32792D03*
D87*
X237028Y32792D03*
D271*
X253876Y32792D03*
D120*
X268293Y32792D03*
X281369Y32792D03*
D118*
X297797Y32792D03*
D120*
X311712Y32792D03*
D118*
X320261Y32792D03*
D120*
X328811Y32792D03*
D277*
X159411Y32959D03*
D286*
X182293Y32959D03*
D143*
X204925Y32959D03*
D67*
X213977Y32959D03*
X222527Y32959D03*
D111*
X237028Y32959D03*
D142*
X250607Y32959D03*
D67*
X259575Y32959D03*
D126*
X268293Y32959D03*
X281369Y32959D03*
D67*
X297797Y32959D03*
D126*
X311712Y32959D03*
D67*
X320261Y32959D03*
D126*
X328811Y32959D03*
D276*
X159495Y33127D03*
D288*
X182209Y33127D03*
D91*
X204590Y33127D03*
D67*
X213977Y33127D03*
X222527Y33127D03*
D111*
X237028Y33127D03*
D201*
X250355Y33127D03*
D67*
X259575Y33127D03*
D126*
X268293Y33127D03*
X281369Y33127D03*
D67*
X297797Y33127D03*
D126*
X311712Y33127D03*
D67*
X320261Y33127D03*
D126*
X328811Y33127D03*
D292*
X159578Y33295D03*
D283*
X182209Y33295D03*
D219*
X204506Y33295D03*
D118*
X213977Y33295D03*
X222527Y33295D03*
D87*
X237028Y33295D03*
D120*
X250188Y33295D03*
D118*
X259575Y33295D03*
D120*
X268293Y33295D03*
X281369Y33295D03*
D118*
X297797Y33295D03*
D120*
X311712Y33295D03*
D118*
X320261Y33295D03*
D120*
X328811Y33295D03*
D293*
X159746Y33462D03*
D288*
X182209Y33462D03*
D67*
X213977Y33462D03*
X222527Y33462D03*
D111*
X237028Y33462D03*
D67*
X259575Y33462D03*
D126*
X268293Y33462D03*
X281369Y33462D03*
D67*
X297797Y33462D03*
D126*
X311712Y33462D03*
D67*
X320261Y33462D03*
D126*
X328811Y33462D03*
D294*
X159830Y33630D03*
D295*
X182126Y33630D03*
D118*
X213977Y33630D03*
X222527Y33630D03*
D87*
X237028Y33630D03*
D118*
X259575Y33630D03*
D120*
X268293Y33630D03*
X281369Y33630D03*
D118*
X297797Y33630D03*
D120*
X311712Y33630D03*
D118*
X320261Y33630D03*
D120*
X328811Y33630D03*
D296*
X159913Y33797D03*
D280*
X182126Y33797D03*
D67*
X213977Y33797D03*
X222527Y33797D03*
D111*
X237028Y33797D03*
D67*
X259575Y33797D03*
D126*
X268293Y33797D03*
X281369Y33797D03*
D67*
X297797Y33797D03*
D126*
X311712Y33797D03*
D67*
X320261Y33797D03*
D126*
X328811Y33797D03*
D296*
X159913Y33965D03*
D280*
X182126Y33965D03*
D67*
X213977Y33965D03*
X222527Y33965D03*
D111*
X237028Y33965D03*
D67*
X259575Y33965D03*
D126*
X268293Y33965D03*
X281369Y33965D03*
D67*
X297797Y33965D03*
D126*
X311712Y33965D03*
D67*
X320261Y33965D03*
D126*
X328811Y33965D03*
D297*
X160081Y34133D03*
D273*
X182042Y34133D03*
D118*
X213977Y34133D03*
X222527Y34133D03*
D87*
X237028Y34133D03*
D118*
X259575Y34133D03*
D120*
X268293Y34133D03*
X281369Y34133D03*
D118*
X297797Y34133D03*
D120*
X311712Y34133D03*
D118*
X320261Y34133D03*
D120*
X328811Y34133D03*
D298*
X160165Y34300D03*
D277*
X182042Y34300D03*
D67*
X213977Y34300D03*
X222527Y34300D03*
D111*
X237028Y34300D03*
D67*
X259575Y34300D03*
D126*
X268293Y34300D03*
X281369Y34300D03*
D67*
X297797Y34300D03*
D126*
X311712Y34300D03*
D67*
X320261Y34300D03*
D126*
X328811Y34300D03*
D174*
X160333Y34468D03*
D269*
X181958Y34468D03*
D67*
X213977Y34468D03*
X222527Y34468D03*
D111*
X237028Y34468D03*
D67*
X259575Y34468D03*
D126*
X268293Y34468D03*
X281369Y34468D03*
D67*
X297797Y34468D03*
D126*
X311712Y34468D03*
D67*
X320261Y34468D03*
D126*
X328811Y34468D03*
D177*
X160417Y34636D03*
D299*
X181958Y34636D03*
D118*
X213977Y34636D03*
X222527Y34636D03*
D87*
X237028Y34636D03*
D118*
X259575Y34636D03*
D120*
X268293Y34636D03*
X281369Y34636D03*
D118*
X297797Y34636D03*
D120*
X311712Y34636D03*
D118*
X320261Y34636D03*
D120*
X328811Y34636D03*
D181*
X160417Y34803D03*
D269*
X181958Y34803D03*
D67*
X213977Y34803D03*
X222527Y34803D03*
D111*
X237028Y34803D03*
D67*
X259575Y34803D03*
D126*
X268293Y34803D03*
X281369Y34803D03*
D67*
X297797Y34803D03*
D126*
X311712Y34803D03*
D67*
X320261Y34803D03*
D126*
X328811Y34803D03*
D181*
X160584Y34971D03*
D269*
X181958Y34971D03*
D67*
X213977Y34971D03*
X222527Y34971D03*
D111*
X237028Y34971D03*
D67*
X259575Y34971D03*
D126*
X268293Y34971D03*
X281369Y34971D03*
D67*
X297797Y34971D03*
D126*
X311712Y34971D03*
D67*
X320261Y34971D03*
D126*
X328811Y34971D03*
D190*
X160668Y35139D03*
D292*
X181874Y35139D03*
D118*
X213977Y35139D03*
X222527Y35139D03*
D87*
X237028Y35139D03*
D118*
X259575Y35139D03*
D120*
X268293Y35139D03*
X281369Y35139D03*
D118*
X297797Y35139D03*
D120*
X311712Y35139D03*
D118*
X320261Y35139D03*
D120*
X328811Y35139D03*
D187*
X160668Y35306D03*
D268*
X181874Y35306D03*
D67*
X213977Y35306D03*
X222527Y35306D03*
D111*
X237028Y35306D03*
D67*
X259575Y35306D03*
D126*
X268293Y35306D03*
X281369Y35306D03*
D67*
X297797Y35306D03*
D126*
X311712Y35306D03*
D67*
X320261Y35306D03*
D126*
X328811Y35306D03*
D206*
X160752Y35474D03*
D292*
X181874Y35474D03*
D118*
X213977Y35474D03*
X222527Y35474D03*
D87*
X237028Y35474D03*
D118*
X259575Y35474D03*
D120*
X268293Y35474D03*
X281369Y35474D03*
D118*
X297797Y35474D03*
D120*
X311712Y35474D03*
D118*
X320261Y35474D03*
D120*
X328811Y35474D03*
D187*
X160836Y35641D03*
D268*
X181874Y35641D03*
D83*
X200567Y35641D03*
D67*
X213977Y35641D03*
X222527Y35641D03*
D111*
X237028Y35641D03*
D83*
X246332Y35641D03*
D67*
X259575Y35641D03*
D126*
X268293Y35641D03*
D90*
X281452Y35641D03*
D67*
X297797Y35641D03*
D126*
X311712Y35641D03*
D67*
X320261Y35641D03*
D126*
X328811Y35641D03*
D186*
X160919Y35809D03*
D268*
X181874Y35809D03*
D83*
X200567Y35809D03*
D67*
X213977Y35809D03*
X222527Y35809D03*
D111*
X237028Y35809D03*
D83*
X246332Y35809D03*
D67*
X259575Y35809D03*
D126*
X268293Y35809D03*
D215*
X281536Y35809D03*
D67*
X297797Y35809D03*
D126*
X311712Y35809D03*
D67*
X320261Y35809D03*
D126*
X328811Y35809D03*
D189*
X161087Y35977D03*
D292*
X181874Y35977D03*
D95*
X200567Y35977D03*
D118*
X213977Y35977D03*
D120*
X222695Y35977D03*
D87*
X237028Y35977D03*
D95*
X246332Y35977D03*
D118*
X259575Y35977D03*
D120*
X268293Y35977D03*
D207*
X281872Y35977D03*
D118*
X297797Y35977D03*
D120*
X311712Y35977D03*
D118*
X320261Y35977D03*
D120*
X328811Y35977D03*
D186*
X161087Y36144D03*
D276*
X181791Y36144D03*
D83*
X200567Y36144D03*
D67*
X213977Y36144D03*
D126*
X222695Y36144D03*
D111*
X237028Y36144D03*
D83*
X246332Y36144D03*
D67*
X259575Y36144D03*
D126*
X268293Y36144D03*
D91*
X282207Y36144D03*
D67*
X297797Y36144D03*
D126*
X311712Y36144D03*
D67*
X320261Y36144D03*
D126*
X328811Y36144D03*
D186*
X161087Y36312D03*
D276*
X181791Y36312D03*
D83*
X200567Y36312D03*
D67*
X213977Y36312D03*
D126*
X222695Y36312D03*
D111*
X237028Y36312D03*
D83*
X246332Y36312D03*
D67*
X259575Y36312D03*
D126*
X268293Y36312D03*
D231*
X282374Y36312D03*
D67*
X297797Y36312D03*
D126*
X311712Y36312D03*
D67*
X320261Y36312D03*
D126*
X328811Y36312D03*
D206*
X161255Y36480D03*
D272*
X181791Y36480D03*
D95*
X200567Y36480D03*
D219*
X213893Y36480D03*
X222778Y36480D03*
D87*
X237028Y36480D03*
D95*
X246332Y36480D03*
D118*
X259575Y36480D03*
D120*
X268293Y36480D03*
D139*
X283045Y36480D03*
D118*
X297797Y36480D03*
D120*
X311712Y36480D03*
D118*
X320261Y36480D03*
D120*
X328811Y36480D03*
D202*
X161255Y36647D03*
D293*
X181707Y36647D03*
D300*
X200650Y36647D03*
D90*
X213893Y36647D03*
X222778Y36647D03*
D111*
X237028Y36647D03*
X246416Y36647D03*
D67*
X259575Y36647D03*
D126*
X268293Y36647D03*
D301*
X285308Y36647D03*
D67*
X297797Y36647D03*
D126*
X311712Y36647D03*
D67*
X320261Y36647D03*
D126*
X328811Y36647D03*
D202*
X161255Y36815D03*
D293*
X181707Y36815D03*
D300*
X200650Y36815D03*
D90*
X213893Y36815D03*
X222778Y36815D03*
D111*
X237028Y36815D03*
X246416Y36815D03*
D67*
X259575Y36815D03*
D126*
X268293Y36815D03*
D301*
X285308Y36815D03*
D67*
X297797Y36815D03*
D126*
X311712Y36815D03*
D67*
X320261Y36815D03*
D126*
X328811Y36815D03*
D199*
X161338Y36983D03*
D272*
X181623Y36983D03*
D302*
X200650Y36983D03*
D219*
X213893Y36983D03*
X222946Y36983D03*
D197*
X236776Y36983D03*
D87*
X246416Y36983D03*
D118*
X259575Y36983D03*
D120*
X268293Y36983D03*
D303*
X285308Y36983D03*
D118*
X297797Y36983D03*
D120*
X311712Y36983D03*
D118*
X320261Y36983D03*
D120*
X328811Y36983D03*
D195*
X161506Y37150D03*
D276*
X181623Y37150D03*
D67*
X200734Y37150D03*
D58*
X213810Y37150D03*
D215*
X223030Y37150D03*
D128*
X236609Y37150D03*
D111*
X246416Y37150D03*
D304*
X259492Y37150D03*
D126*
X268293Y37150D03*
D301*
X285308Y37150D03*
D67*
X297797Y37150D03*
D126*
X311712Y37150D03*
D67*
X320261Y37150D03*
D126*
X328811Y37150D03*
D195*
X161506Y37318D03*
D276*
X181623Y37318D03*
D111*
X200818Y37318D03*
D58*
X213810Y37318D03*
D214*
X223114Y37318D03*
D210*
X236441Y37318D03*
D83*
X246500Y37318D03*
D304*
X259492Y37318D03*
D126*
X268293Y37318D03*
D301*
X285308Y37318D03*
D67*
X297797Y37318D03*
D126*
X311712Y37318D03*
D67*
X320261Y37318D03*
D126*
X328811Y37318D03*
D189*
X161590Y37486D03*
D272*
X181623Y37486D03*
D87*
X200818Y37486D03*
D219*
X213726Y37486D03*
D305*
X223198Y37486D03*
D306*
X236106Y37486D03*
D87*
X246584Y37486D03*
D218*
X259492Y37486D03*
D120*
X268293Y37486D03*
D303*
X285308Y37486D03*
D118*
X297797Y37486D03*
D120*
X311712Y37486D03*
D118*
X320261Y37486D03*
D120*
X328811Y37486D03*
D186*
X161590Y37653D03*
D276*
X181623Y37653D03*
D90*
X200985Y37653D03*
D215*
X213642Y37653D03*
D91*
X223701Y37653D03*
D307*
X235603Y37653D03*
D67*
X246667Y37653D03*
D214*
X259324Y37653D03*
D126*
X268293Y37653D03*
D301*
X285308Y37653D03*
D67*
X297797Y37653D03*
D126*
X311712Y37653D03*
D67*
X320261Y37653D03*
D126*
X328811Y37653D03*
D199*
X161674Y37821D03*
D272*
X181623Y37821D03*
D219*
X200985Y37821D03*
D167*
X213559Y37821D03*
D199*
X229903Y37821D03*
D219*
X246751Y37821D03*
D167*
X259324Y37821D03*
D179*
X270556Y37821D03*
D303*
X285308Y37821D03*
D118*
X297797Y37821D03*
D120*
X311712Y37821D03*
D118*
X320261Y37821D03*
D191*
X331158Y37821D03*
D195*
X161674Y37988D03*
D276*
X181623Y37988D03*
D293*
X207356Y37988D03*
D195*
X229903Y37988D03*
D268*
X253121Y37988D03*
D183*
X270556Y37988D03*
D301*
X285308Y37988D03*
D67*
X297797Y37988D03*
D126*
X311712Y37988D03*
D67*
X320261Y37988D03*
D188*
X331158Y37988D03*
D202*
X161758Y38156D03*
D308*
X181539Y38156D03*
D293*
X207356Y38156D03*
D186*
X229987Y38156D03*
D268*
X253121Y38156D03*
D183*
X270556Y38156D03*
D301*
X285308Y38156D03*
D67*
X297797Y38156D03*
D126*
X311712Y38156D03*
D67*
X320261Y38156D03*
D188*
X331158Y38156D03*
D206*
X161758Y38324D03*
D290*
X181623Y38324D03*
D309*
X207356Y38324D03*
D189*
X229987Y38324D03*
D292*
X253121Y38324D03*
D179*
X270556Y38324D03*
D303*
X285308Y38324D03*
D118*
X297797Y38324D03*
D120*
X311712Y38324D03*
D118*
X320261Y38324D03*
D191*
X331158Y38324D03*
D195*
X161841Y38491D03*
D310*
X181623Y38491D03*
D293*
X207356Y38491D03*
D186*
X229987Y38491D03*
D268*
X253121Y38491D03*
D183*
X270556Y38491D03*
D301*
X285308Y38491D03*
D67*
X297797Y38491D03*
D126*
X311712Y38491D03*
D67*
X320261Y38491D03*
D188*
X331158Y38491D03*
D186*
X161925Y38659D03*
D310*
X181623Y38659D03*
D277*
X207356Y38659D03*
D186*
X229987Y38659D03*
D276*
X253038Y38659D03*
D183*
X270556Y38659D03*
D301*
X285308Y38659D03*
D67*
X297797Y38659D03*
D126*
X311712Y38659D03*
D67*
X320261Y38659D03*
D188*
X331158Y38659D03*
D189*
X161925Y38827D03*
D290*
X181623Y38827D03*
D273*
X207356Y38827D03*
D189*
X229987Y38827D03*
D272*
X253038Y38827D03*
D179*
X270556Y38827D03*
D303*
X285308Y38827D03*
D118*
X297797Y38827D03*
D120*
X311712Y38827D03*
D118*
X320261Y38827D03*
D191*
X331158Y38827D03*
D311*
X171397Y38994D03*
D277*
X207356Y38994D03*
D187*
X230071Y38994D03*
D276*
X253038Y38994D03*
D183*
X270556Y38994D03*
D301*
X285308Y38994D03*
D67*
X297797Y38994D03*
D126*
X311712Y38994D03*
D67*
X320261Y38994D03*
D188*
X331158Y38994D03*
D311*
X171397Y39162D03*
D277*
X207356Y39162D03*
D187*
X230071Y39162D03*
D277*
X253122Y39162D03*
D183*
X270556Y39162D03*
D301*
X285308Y39162D03*
D67*
X297797Y39162D03*
D126*
X311712Y39162D03*
D67*
X320261Y39162D03*
D188*
X331158Y39162D03*
D312*
X171313Y39330D03*
D273*
X207356Y39330D03*
D177*
X230155Y39330D03*
D273*
X253122Y39330D03*
D179*
X270556Y39330D03*
D303*
X285308Y39330D03*
D118*
X297797Y39330D03*
D120*
X311712Y39330D03*
D118*
X320261Y39330D03*
D191*
X331158Y39330D03*
D313*
X171313Y39497D03*
D277*
X207356Y39497D03*
D181*
X230155Y39497D03*
D277*
X253122Y39497D03*
D183*
X270556Y39497D03*
D126*
X281369Y39497D03*
D125*
X288577Y39497D03*
D67*
X297797Y39497D03*
D126*
X311712Y39497D03*
D67*
X320261Y39497D03*
D188*
X331158Y39497D03*
D314*
X171397Y39665D03*
D290*
X207439Y39665D03*
D177*
X230155Y39665D03*
D290*
X253205Y39665D03*
D179*
X270556Y39665D03*
D120*
X281369Y39665D03*
D315*
X288661Y39665D03*
D118*
X297797Y39665D03*
D120*
X311712Y39665D03*
D118*
X320261Y39665D03*
D191*
X331158Y39665D03*
D316*
X171397Y39832D03*
D288*
X207355Y39832D03*
D181*
X230155Y39832D03*
D288*
X253121Y39832D03*
D183*
X270556Y39832D03*
D126*
X281369Y39832D03*
D210*
X288745Y39832D03*
D67*
X297797Y39832D03*
D126*
X311712Y39832D03*
D67*
X320261Y39832D03*
D188*
X331158Y39832D03*
D317*
X171313Y40000D03*
D288*
X207355Y40000D03*
D174*
X230239Y40000D03*
D288*
X253121Y40000D03*
D183*
X270556Y40000D03*
D126*
X281369Y40000D03*
D318*
X288829Y40000D03*
D67*
X297797Y40000D03*
D126*
X311712Y40000D03*
D67*
X320261Y40000D03*
D188*
X331158Y40000D03*
D319*
X171397Y40168D03*
D283*
X207355Y40168D03*
D253*
X230239Y40168D03*
D281*
X253038Y40168D03*
D179*
X270556Y40168D03*
D120*
X281369Y40168D03*
D305*
X288913Y40168D03*
D118*
X297797Y40168D03*
D120*
X311712Y40168D03*
D118*
X320261Y40168D03*
D191*
X331158Y40168D03*
D320*
X165865Y40335D03*
D183*
X185060Y40335D03*
D288*
X207355Y40335D03*
D296*
X230322Y40335D03*
D278*
X253122Y40335D03*
D183*
X270556Y40335D03*
D126*
X281369Y40335D03*
D214*
X288997Y40335D03*
D67*
X297797Y40335D03*
D126*
X311712Y40335D03*
D67*
X320261Y40335D03*
D188*
X331158Y40335D03*
D321*
X165613Y40503D03*
D142*
X185227Y40503D03*
D278*
X207356Y40503D03*
D322*
X227137Y40503D03*
D111*
X237028Y40503D03*
D278*
X253122Y40503D03*
D183*
X270556Y40503D03*
D126*
X281369Y40503D03*
D215*
X289080Y40503D03*
D67*
X297797Y40503D03*
D126*
X311712Y40503D03*
D67*
X320261Y40503D03*
D188*
X331158Y40503D03*
D323*
X165529Y40671D03*
D54*
X185143Y40671D03*
D270*
X207356Y40671D03*
D324*
X227137Y40671D03*
D87*
X237028Y40671D03*
D282*
X253038Y40671D03*
D179*
X270556Y40671D03*
D120*
X281369Y40671D03*
D219*
X289164Y40671D03*
D118*
X297797Y40671D03*
D120*
X311712Y40671D03*
D118*
X320261Y40671D03*
D191*
X331158Y40671D03*
D325*
X165362Y40838D03*
D61*
X185227Y40838D03*
D289*
X207356Y40838D03*
D326*
X227053Y40838D03*
D111*
X237028Y40838D03*
D274*
X253121Y40838D03*
D183*
X270556Y40838D03*
D126*
X281369Y40838D03*
X289248Y40838D03*
D67*
X297797Y40838D03*
D126*
X311712Y40838D03*
D67*
X320261Y40838D03*
D188*
X331158Y40838D03*
D327*
X165278Y41006D03*
D61*
X185227Y41006D03*
D328*
X207356Y41006D03*
D152*
X226970Y41006D03*
D111*
X237028Y41006D03*
D267*
X253121Y41006D03*
D183*
X270556Y41006D03*
D126*
X281369Y41006D03*
D111*
X289332Y41006D03*
D67*
X297797Y41006D03*
D126*
X311712Y41006D03*
D67*
X320261Y41006D03*
D188*
X331158Y41006D03*
D329*
X165278Y41174D03*
D139*
X185144Y41174D03*
D263*
X207356Y41174D03*
D330*
X226970Y41174D03*
D87*
X237028Y41174D03*
D263*
X253122Y41174D03*
D179*
X270556Y41174D03*
D120*
X281369Y41174D03*
D95*
X289416Y41174D03*
D118*
X297797Y41174D03*
D120*
X311712Y41174D03*
D118*
X320261Y41174D03*
D191*
X331158Y41174D03*
D331*
X165194Y41341D03*
D332*
X185227Y41341D03*
D254*
X207356Y41341D03*
D220*
X226886Y41341D03*
D111*
X237028Y41341D03*
D256*
X253038Y41341D03*
D183*
X270556Y41341D03*
D126*
X281369Y41341D03*
D27*
X289499Y41341D03*
D67*
X297797Y41341D03*
D126*
X311712Y41341D03*
D67*
X320261Y41341D03*
D188*
X331158Y41341D03*
D333*
X165110Y41509D03*
D135*
X185143Y41509D03*
D334*
X207356Y41509D03*
D141*
X226886Y41509D03*
D111*
X237028Y41509D03*
D248*
X253121Y41509D03*
D183*
X270556Y41509D03*
D126*
X281369Y41509D03*
D150*
X289667Y41509D03*
D67*
X297797Y41509D03*
D126*
X311712Y41509D03*
D67*
X320261Y41509D03*
D188*
X331158Y41509D03*
D335*
X165111Y41677D03*
D96*
X185059Y41677D03*
D246*
X207356Y41677D03*
D336*
X226886Y41677D03*
D87*
X237028Y41677D03*
D246*
X253122Y41677D03*
D179*
X270556Y41677D03*
D120*
X281369Y41677D03*
D122*
X289751Y41677D03*
D118*
X297797Y41677D03*
D120*
X311712Y41677D03*
D118*
X320261Y41677D03*
D191*
X331158Y41677D03*
D337*
X165027Y41844D03*
D193*
X185059Y41844D03*
D338*
X207356Y41844D03*
D100*
X226802Y41844D03*
D111*
X237028Y41844D03*
D243*
X253038Y41844D03*
D183*
X270556Y41844D03*
D126*
X281369Y41844D03*
D339*
X289751Y41844D03*
D67*
X297797Y41844D03*
D126*
X311712Y41844D03*
D67*
X320261Y41844D03*
D188*
X331158Y41844D03*
D340*
X165110Y42012D03*
D96*
X185059Y42012D03*
D341*
X207356Y42012D03*
D194*
X226886Y42012D03*
D87*
X237028Y42012D03*
D342*
X253038Y42012D03*
D179*
X270556Y42012D03*
D120*
X281369Y42012D03*
D343*
X289919Y42012D03*
D118*
X297797Y42012D03*
D120*
X311712Y42012D03*
D118*
X320261Y42012D03*
D191*
X331158Y42012D03*
D344*
X165026Y42179D03*
D345*
X184976Y42179D03*
D346*
X207272Y42179D03*
D347*
X226802Y42179D03*
D111*
X237028Y42179D03*
D346*
X253038Y42179D03*
D183*
X270556Y42179D03*
D126*
X281369Y42179D03*
D89*
X290002Y42179D03*
D67*
X297797Y42179D03*
D126*
X311712Y42179D03*
D67*
X320261Y42179D03*
D188*
X331158Y42179D03*
D348*
X164943Y42347D03*
D345*
X184976Y42347D03*
D349*
X207272Y42347D03*
D98*
X226802Y42347D03*
D111*
X237028Y42347D03*
D349*
X253038Y42347D03*
D183*
X270556Y42347D03*
D126*
X281369Y42347D03*
D350*
X290170Y42347D03*
D67*
X297797Y42347D03*
D126*
X311712Y42347D03*
D67*
X320261Y42347D03*
D188*
X331158Y42347D03*
D157*
X159327Y42515D03*
D137*
X171648Y42515D03*
D198*
X184725Y42515D03*
D240*
X207272Y42515D03*
D305*
X226886Y42515D03*
D87*
X237028Y42515D03*
D351*
X252954Y42515D03*
D179*
X270556Y42515D03*
D120*
X281369Y42515D03*
D77*
X290421Y42515D03*
D118*
X297797Y42515D03*
D120*
X311712Y42515D03*
D118*
X320261Y42515D03*
D191*
X331158Y42515D03*
D156*
X159243Y42682D03*
D100*
X171816Y42682D03*
D347*
X184725Y42682D03*
D223*
X207272Y42682D03*
D126*
X226886Y42682D03*
D111*
X237028Y42682D03*
D152*
X252954Y42682D03*
D183*
X270556Y42682D03*
D126*
X281369Y42682D03*
D112*
X290505Y42682D03*
D67*
X297797Y42682D03*
D126*
X311712Y42682D03*
D67*
X320261Y42682D03*
D188*
X331158Y42682D03*
D221*
X159159Y42850D03*
D134*
X171984Y42850D03*
D209*
X184641Y42850D03*
D111*
X237028Y42850D03*
D126*
X268293Y42850D03*
X328811Y42850D03*
D330*
X159243Y43018D03*
D198*
X172152Y43018D03*
D132*
X184641Y43018D03*
D87*
X237028Y43018D03*
D120*
X268293Y43018D03*
X328811Y43018D03*
D352*
X159243Y43185D03*
D353*
X172151Y43185D03*
D72*
X184557Y43185D03*
D111*
X237028Y43185D03*
D126*
X268293Y43185D03*
X328811Y43185D03*
D352*
X159243Y43353D03*
D201*
X172235Y43353D03*
D353*
X184389Y43353D03*
D111*
X237028Y43353D03*
D126*
X268293Y43353D03*
X328811Y43353D03*
D148*
X159327Y43521D03*
D184*
X172319Y43521D03*
D130*
X184305Y43521D03*
D87*
X237028Y43521D03*
D120*
X268293Y43521D03*
X328811Y43521D03*
D220*
X159327Y43688D03*
D129*
X172486Y43688D03*
D231*
X184305Y43688D03*
D111*
X237028Y43688D03*
D126*
X268293Y43688D03*
X328811Y43688D03*
D354*
X159410Y43856D03*
D355*
X172487Y43856D03*
D306*
X184138Y43856D03*
D87*
X237028Y43856D03*
D120*
X268293Y43856D03*
X328811Y43856D03*
D356*
X159494Y44023D03*
D124*
X172654Y44023D03*
D91*
X183970Y44023D03*
D111*
X237028Y44023D03*
D126*
X268293Y44023D03*
X328811Y44023D03*
D356*
X159494Y44191D03*
D215*
X172570Y44191D03*
D91*
X183970Y44191D03*
D111*
X237028Y44191D03*
D126*
X268293Y44191D03*
X328811Y44191D03*
D357*
X159662Y44359D03*
D118*
X172570Y44359D03*
D184*
X183719Y44359D03*
D87*
X237028Y44359D03*
D120*
X268293Y44359D03*
X328811Y44359D03*
D145*
X159746Y44526D03*
D83*
X172738Y44526D03*
D358*
X183635Y44526D03*
D111*
X237028Y44526D03*
D126*
X268293Y44526D03*
X328811Y44526D03*
D188*
X159830Y44694D03*
D83*
X172738Y44694D03*
D180*
X183551Y44694D03*
D111*
X237028Y44694D03*
D126*
X268293Y44694D03*
X328811Y44694D03*
D179*
X159914Y44862D03*
D55*
X172738Y44862D03*
D94*
X183299Y44862D03*
D109*
X190089Y44862D03*
D87*
X237028Y44862D03*
D120*
X268293Y44862D03*
X328811Y44862D03*
D356*
X159997Y45029D03*
D339*
X172906Y45029D03*
D128*
X183132Y45029D03*
D144*
X190173Y45029D03*
D111*
X237028Y45029D03*
D90*
X268376Y45029D03*
D126*
X328811Y45029D03*
D212*
X160081Y45197D03*
D339*
X172906Y45197D03*
D128*
X183132Y45197D03*
D150*
X190256Y45197D03*
D111*
X237028Y45197D03*
D90*
X268376Y45197D03*
D126*
X328811Y45197D03*
D179*
X160249Y45365D03*
D343*
X172906Y45365D03*
D115*
X182880Y45365D03*
D167*
X190257Y45365D03*
D87*
X237028Y45365D03*
D219*
X268376Y45365D03*
D120*
X328811Y45365D03*
D183*
X160417Y45532D03*
D89*
X172989Y45532D03*
D58*
X182629Y45532D03*
D91*
X190173Y45532D03*
D111*
X237028Y45532D03*
D128*
X268628Y45532D03*
D126*
X328811Y45532D03*
D183*
X160417Y45700D03*
D140*
X173073Y45700D03*
D90*
X182545Y45700D03*
D353*
X190256Y45700D03*
D111*
X237028Y45700D03*
D183*
X270556Y45700D03*
D126*
X328811Y45700D03*
D149*
X160584Y45868D03*
D359*
X173073Y45868D03*
D360*
X187071Y45868D03*
D87*
X237028Y45868D03*
D179*
X270556Y45868D03*
D118*
X320261Y45868D03*
D120*
X328811Y45868D03*
D183*
X160752Y46035D03*
D361*
X173073Y46035D03*
D362*
X187323Y46035D03*
D111*
X237028Y46035D03*
D183*
X270556Y46035D03*
D67*
X320261Y46035D03*
D171*
X160836Y46203D03*
D35*
X173157Y46203D03*
D252*
X187322Y46203D03*
D87*
X237028Y46203D03*
D179*
X270556Y46203D03*
D118*
X320261Y46203D03*
D208*
X161003Y46370D03*
D363*
X173241Y46370D03*
D266*
X187407Y46370D03*
D111*
X237028Y46370D03*
D141*
X270640Y46370D03*
D67*
X320261Y46370D03*
D183*
X161255Y46538D03*
D363*
X173241Y46538D03*
D274*
X187574Y46538D03*
D111*
X237028Y46538D03*
D141*
X270640Y46538D03*
D67*
X320261Y46538D03*
D171*
X161339Y46706D03*
D78*
X173241Y46706D03*
D364*
X187574Y46706D03*
D87*
X237028Y46706D03*
D171*
X270640Y46706D03*
D118*
X320261Y46706D03*
D141*
X161506Y46873D03*
D365*
X173241Y46873D03*
D288*
X187742Y46873D03*
D111*
X237028Y46873D03*
D141*
X270640Y46873D03*
D67*
X320261Y46873D03*
D141*
X161674Y47041D03*
D110*
X173325Y47041D03*
D276*
X187826Y47041D03*
D111*
X237028Y47041D03*
D141*
X270640Y47041D03*
D67*
X320261Y47041D03*
D171*
X161842Y47209D03*
D47*
X173409Y47209D03*
D272*
X187826Y47209D03*
D87*
X237028Y47209D03*
D171*
X270640Y47209D03*
D118*
X320261Y47209D03*
D141*
X162009Y47376D03*
D41*
X173409Y47376D03*
D296*
X187909Y47376D03*
D111*
X237028Y47376D03*
D366*
X270724Y47376D03*
D67*
X320261Y47376D03*
D366*
X162261Y47544D03*
D41*
X173409Y47544D03*
D186*
X187909Y47544D03*
D111*
X237028Y47544D03*
D366*
X270724Y47544D03*
D67*
X320261Y47544D03*
D171*
X162345Y47712D03*
D36*
X173493Y47712D03*
D189*
X187909Y47712D03*
D87*
X237028Y47712D03*
D367*
X270807Y47712D03*
D118*
X320261Y47712D03*
D366*
X162596Y47879D03*
D113*
X173576Y47879D03*
D368*
X187993Y47879D03*
D111*
X237028Y47879D03*
D153*
X270807Y47879D03*
D67*
X320261Y47879D03*
D161*
X162931Y48047D03*
D369*
X173576Y48047D03*
D370*
X187993Y48047D03*
D87*
X237028Y48047D03*
D367*
X270807Y48047D03*
D118*
X320261Y48047D03*
D153*
X163015Y48214D03*
D113*
X173576Y48214D03*
D371*
X188077Y48214D03*
D111*
X237028Y48214D03*
D142*
X270891Y48214D03*
D67*
X320261Y48214D03*
D153*
X163350Y48382D03*
D372*
X173660Y48382D03*
D373*
X187993Y48382D03*
D111*
X237028Y48382D03*
D142*
X270891Y48382D03*
D67*
X320261Y48382D03*
D367*
X163685Y48550D03*
D78*
X173744Y48550D03*
D374*
X187994Y48550D03*
D87*
X237028Y48550D03*
D54*
X270975Y48550D03*
D118*
X320261Y48550D03*
D59*
X163853Y48717D03*
D363*
X173912Y48717D03*
D375*
X187909Y48717D03*
D111*
X237028Y48717D03*
D100*
X271059Y48717D03*
D67*
X320261Y48717D03*
D142*
X164272Y48885D03*
D376*
X185898Y48885D03*
D111*
X237028Y48885D03*
D99*
X271143Y48885D03*
D67*
X320261Y48885D03*
D64*
X164775Y49053D03*
D377*
X185982Y49053D03*
D87*
X237028Y49053D03*
D378*
X271227Y49053D03*
D118*
X320261Y49053D03*
D100*
X164943Y49220D03*
D379*
X185982Y49220D03*
D111*
X237028Y49220D03*
D135*
X271310Y49220D03*
D67*
X320261Y49220D03*
D332*
X165613Y49388D03*
D380*
X185982Y49388D03*
D111*
X237028Y49388D03*
D193*
X271394Y49388D03*
D67*
X320261Y49388D03*
D381*
X179779Y49556D03*
D87*
X237028Y49556D03*
D198*
X271562Y49556D03*
D118*
X320261Y49556D03*
D382*
X179443Y49723D03*
D111*
X237028Y49723D03*
D347*
X271562Y49723D03*
D67*
X320261Y49723D03*
D383*
X179192Y49891D03*
D111*
X237028Y49891D03*
D231*
X271813Y49891D03*
D67*
X320261Y49891D03*
D384*
X179025Y50059D03*
D87*
X237028Y50059D03*
D184*
X272065Y50059D03*
D118*
X320261Y50059D03*
D385*
X178941Y50226D03*
D111*
X237028Y50226D03*
D358*
X272149Y50226D03*
D67*
X320261Y50226D03*
D386*
X178773Y50394D03*
D87*
X237028Y50394D03*
D118*
X272819Y50394D03*
X320261Y50394D03*
D387*
X178773Y50561D03*
D388*
X178773Y50729D03*
D389*
X167541Y50897D03*
D390*
X191682Y50897D03*
D391*
X166619Y51064D03*
D186*
X192771Y51064D03*
D391*
X166451Y51232D03*
D182*
X193106Y51232D03*
D392*
X166032Y51400D03*
D297*
X193609Y51400D03*
D393*
X165865Y51567D03*
D293*
X193777Y51567D03*
D391*
X165613Y51735D03*
D276*
X194196Y51735D03*
D394*
X165446Y51903D03*
D273*
X194615Y51903D03*
D337*
X165362Y52070D03*
D277*
X194783Y52070D03*
D395*
X165194Y52238D03*
D290*
X195034Y52238D03*
D333*
X165110Y52405D03*
D310*
X195369Y52405D03*
D331*
X165026Y52573D03*
D308*
X195453Y52573D03*
D246*
X160417Y52741D03*
D167*
X174163Y52741D03*
D272*
X195705Y52741D03*
D239*
X159997Y52908D03*
D214*
X174331Y52908D03*
D308*
X195956Y52908D03*
D396*
X159746Y53076D03*
D215*
X174414Y53076D03*
D276*
X196040Y53076D03*
D397*
X159411Y53244D03*
D167*
X174666Y53244D03*
D294*
X196208Y53244D03*
D398*
X159075Y53411D03*
D128*
X174750Y53411D03*
D262*
X196375Y53411D03*
D399*
X158908Y53579D03*
D318*
X174834Y53579D03*
D296*
X196459Y53579D03*
D400*
X158573Y53747D03*
D315*
X175001Y53747D03*
D190*
X196543Y53747D03*
D349*
X158321Y53914D03*
D91*
X175253Y53914D03*
D202*
X196627Y53914D03*
D301*
X158237Y54082D03*
D231*
X175252Y54082D03*
D401*
X196627Y54082D03*
D402*
X157986Y54250D03*
D403*
X175420Y54250D03*
D404*
X196711Y54250D03*
D301*
X157734Y54417D03*
D99*
X175756Y54417D03*
D405*
X196543Y54417D03*
D406*
X157650Y54585D03*
D367*
X175923Y54585D03*
D407*
X196543Y54585D03*
D232*
X157399Y54752D03*
D408*
X176426Y54752D03*
D375*
X196291Y54752D03*
D232*
X157231Y54920D03*
D24*
X172487Y54920D03*
D409*
X191514Y54920D03*
D410*
X157148Y55088D03*
D411*
X172403Y55088D03*
D412*
X191765Y55088D03*
D242*
X156980Y55255D03*
D133*
X172235Y55255D03*
D413*
X192017Y55255D03*
D414*
X156729Y55423D03*
D363*
X171900Y55423D03*
D415*
X192100Y55423D03*
D176*
X156729Y55591D03*
D411*
X171900Y55591D03*
D416*
X192184Y55591D03*
D414*
X156561Y55758D03*
D24*
X171816Y55758D03*
D413*
X192352Y55758D03*
D414*
X156393Y55926D03*
D81*
X171565Y55926D03*
D417*
X192436Y55926D03*
D230*
X156309Y56094D03*
D418*
X171481Y56094D03*
D419*
X192436Y56094D03*
D414*
X156226Y56261D03*
D89*
X171313Y56261D03*
D415*
X192603Y56261D03*
D420*
X156058Y56429D03*
D343*
X171062Y56429D03*
D421*
X192603Y56429D03*
D422*
X155974Y56596D03*
D423*
X170978Y56596D03*
D424*
X192687Y56596D03*
D232*
X155890Y56764D03*
D150*
X170810Y56764D03*
D425*
X192771Y56764D03*
D420*
X155890Y56932D03*
D46*
X170559Y56932D03*
D426*
X192771Y56932D03*
D244*
X155806Y57099D03*
D83*
X170391Y57099D03*
D427*
X192687Y57099D03*
D233*
X155723Y57267D03*
D90*
X170139Y57267D03*
D428*
X192771Y57267D03*
D400*
X155723Y57435D03*
D305*
X169888Y57435D03*
D429*
X192771Y57435D03*
D430*
X155723Y57602D03*
D127*
X169804Y57602D03*
D428*
X192771Y57602D03*
D431*
X155890Y57770D03*
D201*
X169385Y57770D03*
D432*
X192855Y57770D03*
D433*
X160752Y57938D03*
D434*
X192771Y57938D03*
D435*
X160752Y58105D03*
D436*
X192687Y58105D03*
D437*
X160668Y58273D03*
D438*
X192771Y58273D03*
D439*
X160584Y58441D03*
D440*
X192687Y58441D03*
D441*
X160500Y58608D03*
D442*
X192603Y58608D03*
D443*
X160416Y58776D03*
D444*
X192436Y58776D03*
D445*
X160416Y58943D03*
D446*
X192268Y58943D03*
D447*
X160333Y59111D03*
D448*
X192268Y59111D03*
D449*
X160249Y59279D03*
D450*
X192017Y59279D03*
D451*
X160165Y59446D03*
D452*
X191765Y59446D03*
D453*
X160249Y59614D03*
D379*
X191514Y59614D03*
D454*
X160165Y59782D03*
D455*
X191262Y59782D03*
D456*
X160081Y59949D03*
D457*
X190927Y59949D03*
D456*
X160081Y60117D03*
X190759Y60117D03*
D458*
X159998Y60285D03*
D459*
X190424Y60285D03*
D460*
X159998Y60452D03*
D327*
X190089Y60452D03*
D461*
X159914Y60620D03*
D329*
X189921Y60620D03*
D462*
X159914Y60787D03*
D463*
X189670Y60787D03*
D464*
X159830Y60955D03*
D83*
X180282Y60955D03*
D278*
X192604Y60955D03*
D377*
X159830Y61123D03*
D465*
X189167Y61123D03*
D466*
X159746Y61290D03*
D67*
X180449Y61290D03*
D255*
X192184Y61290D03*
D466*
X159746Y61458D03*
D90*
X180533Y61458D03*
D467*
X192100Y61458D03*
D468*
X159662Y61626D03*
D197*
X180617Y61626D03*
D397*
X191933Y61626D03*
D469*
X159662Y61793D03*
D214*
X180701Y61793D03*
D301*
X191765Y61793D03*
D469*
X159662Y61961D03*
D214*
X180701Y61961D03*
D422*
X191681Y61961D03*
D470*
X159662Y62129D03*
D305*
X180785Y62129D03*
D170*
X191514Y62129D03*
D471*
X159579Y62296D03*
D318*
X180869Y62296D03*
D152*
X191430Y62296D03*
D472*
X159578Y62464D03*
D318*
X180869Y62464D03*
D408*
X191346Y62464D03*
D473*
X159578Y62632D03*
D315*
X180868Y62632D03*
D367*
X191178Y62632D03*
D448*
X159578Y62799D03*
D125*
X180952Y62799D03*
D193*
X191094Y62799D03*
D474*
X159495Y62967D03*
D229*
X180952Y62967D03*
D132*
X191011Y62967D03*
D475*
X159494Y63134D03*
D476*
X181036Y63134D03*
D129*
X190927Y63134D03*
D477*
X159494Y63302D03*
D98*
X181036Y63302D03*
D50*
X190843Y63302D03*
D478*
X156058Y63470D03*
D53*
X171565Y63470D03*
D130*
X180952Y63470D03*
D225*
X190843Y63470D03*
D479*
X155890Y63637D03*
D127*
X171648Y63637D03*
D231*
X180952Y63637D03*
D344*
X155806Y63805D03*
D210*
X171732Y63805D03*
D209*
X180953Y63805D03*
D478*
X155723Y63973D03*
D229*
X171732Y63973D03*
D198*
X180869Y63973D03*
D393*
X155639Y64140D03*
D267*
X176677Y64140D03*
D479*
X155387Y64308D03*
D267*
X176677Y64308D03*
D392*
X155303Y64476D03*
D480*
X176677Y64476D03*
D348*
X155220Y64643D03*
D289*
X176678Y64643D03*
D481*
X155052Y64811D03*
D270*
X176678Y64811D03*
D479*
X155052Y64978D03*
D289*
X176678Y64978D03*
D479*
X154884Y65146D03*
D279*
X176594Y65146D03*
D478*
X154717Y65314D03*
D482*
X176678Y65314D03*
D483*
X154633Y65481D03*
D278*
X176678Y65481D03*
D484*
X154549Y65649D03*
D288*
X176677Y65649D03*
D485*
X154382Y65817D03*
D283*
X176677Y65817D03*
D486*
X154298Y65984D03*
D288*
X176677Y65984D03*
D375*
X154214Y66152D03*
D288*
X176677Y66152D03*
D487*
X154046Y66320D03*
D283*
X176677Y66320D03*
D488*
X153963Y66487D03*
D288*
X176677Y66487D03*
D489*
X153795Y66655D03*
D288*
X176677Y66655D03*
D490*
X153711Y66823D03*
D290*
X176761Y66823D03*
D373*
X153627Y66990D03*
D310*
X176761Y66990D03*
D390*
X153460Y67158D03*
D273*
X176678Y67158D03*
D491*
X153376Y67325D03*
D277*
X176678Y67325D03*
D492*
X153292Y67493D03*
D277*
X176678Y67493D03*
D199*
X153124Y67661D03*
D273*
X176678Y67661D03*
D174*
X152957Y67828D03*
D277*
X176678Y67828D03*
D262*
X152789Y67996D03*
D277*
X176678Y67996D03*
D290*
X152621Y68164D03*
X176761Y68164D03*
D289*
X152370Y68331D03*
D310*
X176761Y68331D03*
D266*
X152202Y68499D03*
D310*
X176761Y68499D03*
D493*
X151951Y68667D03*
D290*
X176761Y68667D03*
D173*
X151364Y68834D03*
D310*
X176761Y68834D03*
D290*
X176761Y69002D03*
D310*
X176761Y69169D03*
X176761Y69337D03*
D290*
X176761Y69505D03*
D310*
X176761Y69672D03*
D286*
X176761Y69840D03*
D284*
X176761Y70008D03*
D286*
X176761Y70175D03*
D287*
X176845Y70343D03*
D291*
X176845Y70511D03*
D287*
X176845Y70678D03*
X176845Y70846D03*
D282*
X176929Y71014D03*
D274*
X176845Y71181D03*
D364*
X176845Y71349D03*
D274*
X176845Y71516D03*
D267*
X176845Y71684D03*
D480*
X176845Y71852D03*
D494*
X176929Y72019D03*
X176929Y72187D03*
D264*
X176929Y72355D03*
D256*
X176929Y72522D03*
X176929Y72690D03*
D495*
X177013Y72858D03*
D250*
X177096Y73025D03*
D496*
X177013Y73193D03*
D334*
X177013Y73360D03*
D245*
X177013Y73528D03*
D246*
X177013Y73696D03*
D243*
X177097Y73863D03*
D497*
X177097Y74031D03*
D498*
X177097Y74199D03*
D396*
X177181Y74366D03*
X177181Y74534D03*
D397*
X177181Y74702D03*
D247*
X177264Y74869D03*
D398*
X177180Y75037D03*
D499*
X177264Y75205D03*
D235*
X177264Y75372D03*
D234*
X177432Y75540D03*
D301*
X177348Y75707D03*
D244*
X177432Y75875D03*
D420*
X177348Y76043D03*
D414*
X177516Y76210D03*
X177516Y76378D03*
D500*
X177516Y76546D03*
D173*
X177516Y76713D03*
D164*
X177599Y76881D03*
D501*
X177683Y77049D03*
D165*
X177684Y77216D03*
D324*
X177684Y77384D03*
D156*
X177683Y77551D03*
D223*
X177767Y77719D03*
D502*
X177767Y77887D03*
D151*
X177851Y78054D03*
D352*
X177851Y78222D03*
D148*
X177935Y78390D03*
D220*
X177935Y78557D03*
D356*
X177935Y78725D03*
D357*
X177935Y78893D03*
D366*
X178019Y79060D03*
X178019Y79228D03*
D367*
X178102Y79396D03*
D153*
X178102Y79563D03*
D137*
X178186Y79731D03*
D61*
X178186Y79898D03*
D99*
X178270Y80066D03*
D139*
X178270Y80234D03*
D135*
X178270Y80401D03*
D193*
X178354Y80569D03*
D403*
X178270Y80737D03*
D347*
X178354Y80904D03*
D209*
X178438Y81072D03*
D503*
X178522Y81240D03*
D231*
X178438Y81407D03*
D504*
X178522Y81575D03*
D505*
X178522Y81742D03*
D125*
X178605Y81910D03*
D229*
X178605Y82078D03*
D129*
X178689Y82245D03*
D210*
X178605Y82413D03*
D305*
X178773Y82581D03*
D128*
X178773Y82748D03*
D215*
X178773Y82916D03*
D219*
X178857Y83084D03*
D90*
X178857Y83251D03*
D126*
X178941Y83419D03*
D95*
X178941Y83587D03*
D26*
X179025Y83754D03*
D46*
X178941Y83922D03*
D150*
X179024Y84089D03*
X179024Y84257D03*
D343*
X179109Y84425D03*
D144*
X179109Y84592D03*
D89*
X179192Y84760D03*
D225*
X179108Y84928D03*
D24*
X179192Y85095D03*
X179192Y85263D03*
D114*
X179192Y85431D03*
D365*
X179276Y85598D03*
D47*
X179276Y85766D03*
D20*
X179276Y85933D03*
D506*
X179192Y86101D03*
D62*
X179192Y86269D03*
D507*
X118110Y417830D02*
X118110Y455930D01*
X118110Y494030D01*
X448310Y494030D01*
X448310Y417830D02*
X143510Y417830D01*
X118110Y417830D01*
X448310Y417830D02*
X448310Y494030D01*
X143510Y455930D02*
X118110Y455930D01*
X143510Y455930D02*
X143510Y417830D01*
X127214Y307514D02*
X127214Y294386D01*
X117626Y294386D01*
X93766Y294386D02*
X93766Y307514D01*
X93766Y294386D02*
X103354Y294386D01*
X108266Y307594D02*
X112854Y307594D01*
D11*
X77234Y299132D02*
X77234Y294726D01*
X77234Y299132D02*
X78335Y300234D01*
X80539Y300234D01*
X81640Y299132D01*
X81640Y294726D01*
X80539Y293624D01*
X78335Y293624D01*
X77234Y294726D01*
X79437Y295827D02*
X81640Y293624D01*
X88023Y293624D02*
X88023Y300234D01*
X84718Y296929D01*
X89124Y296929D01*
D13*
X121920Y344170D02*
X132080Y344170D01*
D11*
X127508Y365252D02*
X120898Y365252D01*
X120898Y368557D01*
X122000Y369658D01*
X124203Y369658D01*
X125305Y368557D01*
X125305Y365252D01*
X125305Y367455D02*
X127508Y369658D01*
X123102Y372736D02*
X120898Y374939D01*
X127508Y374939D01*
X127508Y372736D02*
X127508Y377143D01*
X127508Y380220D02*
X127508Y384627D01*
X123102Y384627D02*
X127508Y380220D01*
X123102Y384627D02*
X122000Y384627D01*
X120898Y383525D01*
X120898Y381322D01*
X122000Y380220D01*
D507*
X73790Y148540D02*
X73790Y110540D01*
X121790Y110540D02*
X121790Y148540D01*
X75946Y120650D02*
X75948Y120750D01*
X75954Y120851D01*
X75964Y120950D01*
X75978Y121050D01*
X75995Y121149D01*
X76017Y121247D01*
X76043Y121344D01*
X76072Y121440D01*
X76105Y121534D01*
X76142Y121628D01*
X76182Y121720D01*
X76226Y121810D01*
X76274Y121898D01*
X76325Y121985D01*
X76379Y122069D01*
X76437Y122151D01*
X76498Y122231D01*
X76562Y122308D01*
X76629Y122383D01*
X76699Y122455D01*
X76772Y122524D01*
X76847Y122590D01*
X76925Y122654D01*
X77005Y122714D01*
X77088Y122771D01*
X77173Y122824D01*
X77260Y122874D01*
X77349Y122921D01*
X77439Y122964D01*
X77531Y123004D01*
X77625Y123040D01*
X77720Y123072D01*
X77816Y123100D01*
X77914Y123125D01*
X78012Y123145D01*
X78111Y123162D01*
X78211Y123175D01*
X78310Y123184D01*
X78411Y123189D01*
X78511Y123190D01*
X78611Y123187D01*
X78712Y123180D01*
X78811Y123169D01*
X78911Y123154D01*
X79009Y123136D01*
X79107Y123113D01*
X79204Y123086D01*
X79299Y123056D01*
X79394Y123022D01*
X79487Y122984D01*
X79578Y122943D01*
X79668Y122898D01*
X79756Y122850D01*
X79842Y122798D01*
X79926Y122743D01*
X80007Y122684D01*
X80086Y122622D01*
X80163Y122558D01*
X80237Y122490D01*
X80308Y122419D01*
X80377Y122346D01*
X80442Y122270D01*
X80505Y122191D01*
X80564Y122110D01*
X80620Y122027D01*
X80673Y121942D01*
X80722Y121854D01*
X80768Y121765D01*
X80810Y121674D01*
X80849Y121581D01*
X80884Y121487D01*
X80915Y121392D01*
X80943Y121295D01*
X80966Y121198D01*
X80986Y121099D01*
X81002Y121000D01*
X81014Y120901D01*
X81022Y120800D01*
X81026Y120700D01*
X81026Y120600D01*
X81022Y120500D01*
X81014Y120399D01*
X81002Y120300D01*
X80986Y120201D01*
X80966Y120102D01*
X80943Y120005D01*
X80915Y119908D01*
X80884Y119813D01*
X80849Y119719D01*
X80810Y119626D01*
X80768Y119535D01*
X80722Y119446D01*
X80673Y119358D01*
X80620Y119273D01*
X80564Y119190D01*
X80505Y119109D01*
X80442Y119030D01*
X80377Y118954D01*
X80308Y118881D01*
X80237Y118810D01*
X80163Y118742D01*
X80086Y118678D01*
X80007Y118616D01*
X79926Y118557D01*
X79842Y118502D01*
X79756Y118450D01*
X79668Y118402D01*
X79578Y118357D01*
X79487Y118316D01*
X79394Y118278D01*
X79299Y118244D01*
X79204Y118214D01*
X79107Y118187D01*
X79009Y118164D01*
X78911Y118146D01*
X78811Y118131D01*
X78712Y118120D01*
X78611Y118113D01*
X78511Y118110D01*
X78411Y118111D01*
X78310Y118116D01*
X78211Y118125D01*
X78111Y118138D01*
X78012Y118155D01*
X77914Y118175D01*
X77816Y118200D01*
X77720Y118228D01*
X77625Y118260D01*
X77531Y118296D01*
X77439Y118336D01*
X77349Y118379D01*
X77260Y118426D01*
X77173Y118476D01*
X77088Y118529D01*
X77005Y118586D01*
X76925Y118646D01*
X76847Y118710D01*
X76772Y118776D01*
X76699Y118845D01*
X76629Y118917D01*
X76562Y118992D01*
X76498Y119069D01*
X76437Y119149D01*
X76379Y119231D01*
X76325Y119315D01*
X76274Y119402D01*
X76226Y119490D01*
X76182Y119580D01*
X76142Y119672D01*
X76105Y119766D01*
X76072Y119860D01*
X76043Y119956D01*
X76017Y120053D01*
X75995Y120151D01*
X75978Y120250D01*
X75964Y120350D01*
X75954Y120449D01*
X75948Y120550D01*
X75946Y120650D01*
D11*
X79502Y135214D02*
X79502Y140722D01*
X79502Y135214D02*
X80604Y134112D01*
X82807Y134112D01*
X83908Y135214D01*
X83908Y140722D01*
X86986Y138518D02*
X89189Y140722D01*
X89189Y134112D01*
X86986Y134112D02*
X91393Y134112D01*
D13*
X118110Y195580D02*
X128270Y195580D01*
D11*
X123698Y216662D02*
X117088Y216662D01*
X117088Y219967D01*
X118190Y221068D01*
X120393Y221068D01*
X121495Y219967D01*
X121495Y216662D01*
X121495Y218865D02*
X123698Y221068D01*
X117088Y224146D02*
X117088Y228553D01*
X117088Y224146D02*
X120393Y224146D01*
X119292Y226349D01*
X119292Y227451D01*
X120393Y228553D01*
X122596Y228553D01*
X123698Y227451D01*
X123698Y225248D01*
X122596Y224146D01*
D13*
X107950Y193040D02*
X97790Y193040D01*
D11*
X96768Y214122D02*
X103378Y214122D01*
X96768Y214122D02*
X96768Y217427D01*
X97870Y218528D01*
X100073Y218528D01*
X101175Y217427D01*
X101175Y214122D01*
X101175Y216325D02*
X103378Y218528D01*
X102276Y221606D02*
X103378Y222708D01*
X103378Y224911D01*
X102276Y226013D01*
X97870Y226013D01*
X96768Y224911D01*
X96768Y222708D01*
X97870Y221606D01*
X98972Y221606D01*
X100073Y222708D01*
X100073Y226013D01*
D13*
X87630Y193040D02*
X77470Y193040D01*
D11*
X76448Y214122D02*
X83058Y214122D01*
X76448Y214122D02*
X76448Y217427D01*
X77550Y218528D01*
X79753Y218528D01*
X80855Y217427D01*
X80855Y214122D01*
X80855Y216325D02*
X83058Y218528D01*
X78652Y221606D02*
X76448Y223809D01*
X83058Y223809D01*
X83058Y221606D02*
X83058Y226013D01*
X77550Y229090D02*
X76448Y230192D01*
X76448Y232395D01*
X77550Y233497D01*
X78652Y233497D01*
X79753Y232395D01*
X79753Y231294D01*
X79753Y232395D02*
X80855Y233497D01*
X81956Y233497D01*
X83058Y232395D01*
X83058Y230192D01*
X81956Y229090D01*
D507*
X73660Y88900D02*
X101600Y88900D01*
X73660Y68580D02*
X73560Y68582D01*
X73461Y68588D01*
X73361Y68598D01*
X73263Y68611D01*
X73164Y68629D01*
X73067Y68650D01*
X72971Y68675D01*
X72875Y68704D01*
X72781Y68737D01*
X72688Y68773D01*
X72597Y68813D01*
X72507Y68857D01*
X72419Y68904D01*
X72333Y68954D01*
X72249Y69008D01*
X72167Y69065D01*
X72088Y69125D01*
X72010Y69189D01*
X71936Y69255D01*
X71864Y69324D01*
X71795Y69396D01*
X71729Y69470D01*
X71665Y69548D01*
X71605Y69627D01*
X71548Y69709D01*
X71494Y69793D01*
X71444Y69879D01*
X71397Y69967D01*
X71353Y70057D01*
X71313Y70148D01*
X71277Y70241D01*
X71244Y70335D01*
X71215Y70431D01*
X71190Y70527D01*
X71169Y70624D01*
X71151Y70723D01*
X71138Y70821D01*
X71128Y70921D01*
X71122Y71020D01*
X71120Y71120D01*
X101600Y68580D02*
X101700Y68582D01*
X101799Y68588D01*
X101899Y68598D01*
X101997Y68611D01*
X102096Y68629D01*
X102193Y68650D01*
X102289Y68675D01*
X102385Y68704D01*
X102479Y68737D01*
X102572Y68773D01*
X102663Y68813D01*
X102753Y68857D01*
X102841Y68904D01*
X102927Y68954D01*
X103011Y69008D01*
X103093Y69065D01*
X103172Y69125D01*
X103250Y69189D01*
X103324Y69255D01*
X103396Y69324D01*
X103465Y69396D01*
X103531Y69470D01*
X103595Y69548D01*
X103655Y69627D01*
X103712Y69709D01*
X103766Y69793D01*
X103816Y69879D01*
X103863Y69967D01*
X103907Y70057D01*
X103947Y70148D01*
X103983Y70241D01*
X104016Y70335D01*
X104045Y70431D01*
X104070Y70527D01*
X104091Y70624D01*
X104109Y70723D01*
X104122Y70821D01*
X104132Y70921D01*
X104138Y71020D01*
X104140Y71120D01*
X104140Y86360D02*
X104138Y86460D01*
X104132Y86559D01*
X104122Y86659D01*
X104109Y86757D01*
X104091Y86856D01*
X104070Y86953D01*
X104045Y87049D01*
X104016Y87145D01*
X103983Y87239D01*
X103947Y87332D01*
X103907Y87423D01*
X103863Y87513D01*
X103816Y87601D01*
X103766Y87687D01*
X103712Y87771D01*
X103655Y87853D01*
X103595Y87932D01*
X103531Y88010D01*
X103465Y88084D01*
X103396Y88156D01*
X103324Y88225D01*
X103250Y88291D01*
X103172Y88355D01*
X103093Y88415D01*
X103011Y88472D01*
X102927Y88526D01*
X102841Y88576D01*
X102753Y88623D01*
X102663Y88667D01*
X102572Y88707D01*
X102479Y88743D01*
X102385Y88776D01*
X102289Y88805D01*
X102193Y88830D01*
X102096Y88851D01*
X101997Y88869D01*
X101899Y88882D01*
X101799Y88892D01*
X101700Y88898D01*
X101600Y88900D01*
X73660Y88900D02*
X73560Y88898D01*
X73461Y88892D01*
X73361Y88882D01*
X73263Y88869D01*
X73164Y88851D01*
X73067Y88830D01*
X72971Y88805D01*
X72875Y88776D01*
X72781Y88743D01*
X72688Y88707D01*
X72597Y88667D01*
X72507Y88623D01*
X72419Y88576D01*
X72333Y88526D01*
X72249Y88472D01*
X72167Y88415D01*
X72088Y88355D01*
X72010Y88291D01*
X71936Y88225D01*
X71864Y88156D01*
X71795Y88084D01*
X71729Y88010D01*
X71665Y87932D01*
X71605Y87853D01*
X71548Y87771D01*
X71494Y87687D01*
X71444Y87601D01*
X71397Y87513D01*
X71353Y87423D01*
X71313Y87332D01*
X71277Y87239D01*
X71244Y87145D01*
X71215Y87049D01*
X71190Y86953D01*
X71169Y86856D01*
X71151Y86757D01*
X71138Y86659D01*
X71128Y86559D01*
X71122Y86460D01*
X71120Y86360D01*
X71120Y71120D01*
X104140Y71120D02*
X104140Y86360D01*
X101600Y68580D02*
X73660Y68580D01*
D11*
X85754Y65284D02*
X86856Y64182D01*
X85754Y65284D02*
X83551Y65284D01*
X82450Y64182D01*
X82450Y63080D01*
X83551Y61979D01*
X85754Y61979D01*
X86856Y60877D01*
X86856Y59776D01*
X85754Y58674D01*
X83551Y58674D01*
X82450Y59776D01*
X89934Y59776D02*
X91035Y58674D01*
X92137Y58674D01*
X93239Y59776D01*
X93239Y65284D01*
X94340Y65284D02*
X92137Y65284D01*
X97418Y63080D02*
X99621Y65284D01*
X99621Y58674D01*
X97418Y58674D02*
X101824Y58674D01*
D13*
X385316Y99060D02*
X385319Y99328D01*
X385329Y99596D01*
X385346Y99864D01*
X385369Y100131D01*
X385398Y100397D01*
X385434Y100663D01*
X385477Y100928D01*
X385526Y101191D01*
X385581Y101453D01*
X385643Y101714D01*
X385712Y101974D01*
X385786Y102231D01*
X385867Y102487D01*
X385955Y102740D01*
X386048Y102991D01*
X386148Y103240D01*
X386253Y103487D01*
X386365Y103731D01*
X386482Y103972D01*
X386606Y104210D01*
X386735Y104444D01*
X386870Y104676D01*
X387011Y104904D01*
X387157Y105129D01*
X387309Y105350D01*
X387466Y105567D01*
X387628Y105781D01*
X387796Y105990D01*
X387968Y106195D01*
X388146Y106396D01*
X388328Y106593D01*
X388516Y106784D01*
X388707Y106972D01*
X388904Y107154D01*
X389105Y107332D01*
X389310Y107504D01*
X389519Y107672D01*
X389733Y107834D01*
X389950Y107991D01*
X390171Y108143D01*
X390396Y108289D01*
X390624Y108430D01*
X390856Y108565D01*
X391090Y108694D01*
X391328Y108818D01*
X391569Y108935D01*
X391813Y109047D01*
X392060Y109152D01*
X392309Y109252D01*
X392560Y109345D01*
X392813Y109433D01*
X393069Y109514D01*
X393326Y109588D01*
X393586Y109657D01*
X393847Y109719D01*
X394109Y109774D01*
X394372Y109823D01*
X394637Y109866D01*
X394903Y109902D01*
X395169Y109931D01*
X395436Y109954D01*
X395704Y109971D01*
X395972Y109981D01*
X396240Y109984D01*
X396508Y109981D01*
X396776Y109971D01*
X397044Y109954D01*
X397311Y109931D01*
X397577Y109902D01*
X397843Y109866D01*
X398108Y109823D01*
X398371Y109774D01*
X398633Y109719D01*
X398894Y109657D01*
X399154Y109588D01*
X399411Y109514D01*
X399667Y109433D01*
X399920Y109345D01*
X400171Y109252D01*
X400420Y109152D01*
X400667Y109047D01*
X400911Y108935D01*
X401152Y108818D01*
X401390Y108694D01*
X401624Y108565D01*
X401856Y108430D01*
X402084Y108289D01*
X402309Y108143D01*
X402530Y107991D01*
X402747Y107834D01*
X402961Y107672D01*
X403170Y107504D01*
X403375Y107332D01*
X403576Y107154D01*
X403773Y106972D01*
X403964Y106784D01*
X404152Y106593D01*
X404334Y106396D01*
X404512Y106195D01*
X404684Y105990D01*
X404852Y105781D01*
X405014Y105567D01*
X405171Y105350D01*
X405323Y105129D01*
X405469Y104904D01*
X405610Y104676D01*
X405745Y104444D01*
X405874Y104210D01*
X405998Y103972D01*
X406115Y103731D01*
X406227Y103487D01*
X406332Y103240D01*
X406432Y102991D01*
X406525Y102740D01*
X406613Y102487D01*
X406694Y102231D01*
X406768Y101974D01*
X406837Y101714D01*
X406899Y101453D01*
X406954Y101191D01*
X407003Y100928D01*
X407046Y100663D01*
X407082Y100397D01*
X407111Y100131D01*
X407134Y99864D01*
X407151Y99596D01*
X407161Y99328D01*
X407164Y99060D01*
X407161Y98792D01*
X407151Y98524D01*
X407134Y98256D01*
X407111Y97989D01*
X407082Y97723D01*
X407046Y97457D01*
X407003Y97192D01*
X406954Y96929D01*
X406899Y96667D01*
X406837Y96406D01*
X406768Y96146D01*
X406694Y95889D01*
X406613Y95633D01*
X406525Y95380D01*
X406432Y95129D01*
X406332Y94880D01*
X406227Y94633D01*
X406115Y94389D01*
X405998Y94148D01*
X405874Y93910D01*
X405745Y93676D01*
X405610Y93444D01*
X405469Y93216D01*
X405323Y92991D01*
X405171Y92770D01*
X405014Y92553D01*
X404852Y92339D01*
X404684Y92130D01*
X404512Y91925D01*
X404334Y91724D01*
X404152Y91527D01*
X403964Y91336D01*
X403773Y91148D01*
X403576Y90966D01*
X403375Y90788D01*
X403170Y90616D01*
X402961Y90448D01*
X402747Y90286D01*
X402530Y90129D01*
X402309Y89977D01*
X402084Y89831D01*
X401856Y89690D01*
X401624Y89555D01*
X401390Y89426D01*
X401152Y89302D01*
X400911Y89185D01*
X400667Y89073D01*
X400420Y88968D01*
X400171Y88868D01*
X399920Y88775D01*
X399667Y88687D01*
X399411Y88606D01*
X399154Y88532D01*
X398894Y88463D01*
X398633Y88401D01*
X398371Y88346D01*
X398108Y88297D01*
X397843Y88254D01*
X397577Y88218D01*
X397311Y88189D01*
X397044Y88166D01*
X396776Y88149D01*
X396508Y88139D01*
X396240Y88136D01*
X395972Y88139D01*
X395704Y88149D01*
X395436Y88166D01*
X395169Y88189D01*
X394903Y88218D01*
X394637Y88254D01*
X394372Y88297D01*
X394109Y88346D01*
X393847Y88401D01*
X393586Y88463D01*
X393326Y88532D01*
X393069Y88606D01*
X392813Y88687D01*
X392560Y88775D01*
X392309Y88868D01*
X392060Y88968D01*
X391813Y89073D01*
X391569Y89185D01*
X391328Y89302D01*
X391090Y89426D01*
X390856Y89555D01*
X390624Y89690D01*
X390396Y89831D01*
X390171Y89977D01*
X389950Y90129D01*
X389733Y90286D01*
X389519Y90448D01*
X389310Y90616D01*
X389105Y90788D01*
X388904Y90966D01*
X388707Y91148D01*
X388516Y91336D01*
X388328Y91527D01*
X388146Y91724D01*
X387968Y91925D01*
X387796Y92130D01*
X387628Y92339D01*
X387466Y92553D01*
X387309Y92770D01*
X387157Y92991D01*
X387011Y93216D01*
X386870Y93444D01*
X386735Y93676D01*
X386606Y93910D01*
X386482Y94148D01*
X386365Y94389D01*
X386253Y94633D01*
X386148Y94880D01*
X386048Y95129D01*
X385955Y95380D01*
X385867Y95633D01*
X385786Y95889D01*
X385712Y96146D01*
X385643Y96406D01*
X385581Y96667D01*
X385526Y96929D01*
X385477Y97192D01*
X385434Y97457D01*
X385398Y97723D01*
X385369Y97989D01*
X385346Y98256D01*
X385329Y98524D01*
X385319Y98792D01*
X385316Y99060D01*
D508*
X398302Y104752D02*
X400209Y102845D01*
X398302Y104752D02*
X394489Y104752D01*
X392582Y102845D01*
X392582Y95219D01*
X394489Y93312D01*
X398302Y93312D01*
X400209Y95219D01*
D507*
X486410Y245110D02*
X486410Y273050D01*
X468630Y275590D02*
X468530Y275588D01*
X468431Y275582D01*
X468331Y275572D01*
X468233Y275559D01*
X468134Y275541D01*
X468037Y275520D01*
X467941Y275495D01*
X467845Y275466D01*
X467751Y275433D01*
X467658Y275397D01*
X467567Y275357D01*
X467477Y275313D01*
X467389Y275266D01*
X467303Y275216D01*
X467219Y275162D01*
X467137Y275105D01*
X467058Y275045D01*
X466980Y274981D01*
X466906Y274915D01*
X466834Y274846D01*
X466765Y274774D01*
X466699Y274700D01*
X466635Y274622D01*
X466575Y274543D01*
X466518Y274461D01*
X466464Y274377D01*
X466414Y274291D01*
X466367Y274203D01*
X466323Y274113D01*
X466283Y274022D01*
X466247Y273929D01*
X466214Y273835D01*
X466185Y273739D01*
X466160Y273643D01*
X466139Y273546D01*
X466121Y273447D01*
X466108Y273349D01*
X466098Y273249D01*
X466092Y273150D01*
X466090Y273050D01*
X466090Y245110D02*
X466092Y245010D01*
X466098Y244911D01*
X466108Y244811D01*
X466121Y244713D01*
X466139Y244614D01*
X466160Y244517D01*
X466185Y244421D01*
X466214Y244325D01*
X466247Y244231D01*
X466283Y244138D01*
X466323Y244047D01*
X466367Y243957D01*
X466414Y243869D01*
X466464Y243783D01*
X466518Y243699D01*
X466575Y243617D01*
X466635Y243538D01*
X466699Y243460D01*
X466765Y243386D01*
X466834Y243314D01*
X466906Y243245D01*
X466980Y243179D01*
X467058Y243115D01*
X467137Y243055D01*
X467219Y242998D01*
X467303Y242944D01*
X467389Y242894D01*
X467477Y242847D01*
X467567Y242803D01*
X467658Y242763D01*
X467751Y242727D01*
X467845Y242694D01*
X467941Y242665D01*
X468037Y242640D01*
X468134Y242619D01*
X468233Y242601D01*
X468331Y242588D01*
X468431Y242578D01*
X468530Y242572D01*
X468630Y242570D01*
X483870Y242570D02*
X483970Y242572D01*
X484069Y242578D01*
X484169Y242588D01*
X484267Y242601D01*
X484366Y242619D01*
X484463Y242640D01*
X484559Y242665D01*
X484655Y242694D01*
X484749Y242727D01*
X484842Y242763D01*
X484933Y242803D01*
X485023Y242847D01*
X485111Y242894D01*
X485197Y242944D01*
X485281Y242998D01*
X485363Y243055D01*
X485442Y243115D01*
X485520Y243179D01*
X485594Y243245D01*
X485666Y243314D01*
X485735Y243386D01*
X485801Y243460D01*
X485865Y243538D01*
X485925Y243617D01*
X485982Y243699D01*
X486036Y243783D01*
X486086Y243869D01*
X486133Y243957D01*
X486177Y244047D01*
X486217Y244138D01*
X486253Y244231D01*
X486286Y244325D01*
X486315Y244421D01*
X486340Y244517D01*
X486361Y244614D01*
X486379Y244713D01*
X486392Y244811D01*
X486402Y244911D01*
X486408Y245010D01*
X486410Y245110D01*
X486410Y273050D02*
X486408Y273150D01*
X486402Y273249D01*
X486392Y273349D01*
X486379Y273447D01*
X486361Y273546D01*
X486340Y273643D01*
X486315Y273739D01*
X486286Y273835D01*
X486253Y273929D01*
X486217Y274022D01*
X486177Y274113D01*
X486133Y274203D01*
X486086Y274291D01*
X486036Y274377D01*
X485982Y274461D01*
X485925Y274543D01*
X485865Y274622D01*
X485801Y274700D01*
X485735Y274774D01*
X485666Y274846D01*
X485594Y274915D01*
X485520Y274981D01*
X485442Y275045D01*
X485363Y275105D01*
X485281Y275162D01*
X485197Y275216D01*
X485111Y275266D01*
X485023Y275313D01*
X484933Y275357D01*
X484842Y275397D01*
X484749Y275433D01*
X484655Y275466D01*
X484559Y275495D01*
X484463Y275520D01*
X484366Y275541D01*
X484267Y275559D01*
X484169Y275572D01*
X484069Y275582D01*
X483970Y275588D01*
X483870Y275590D01*
X468630Y275590D01*
X468630Y242570D02*
X483870Y242570D01*
X466090Y245110D02*
X466090Y273050D01*
D11*
X457280Y247738D02*
X456178Y246637D01*
X456178Y244434D01*
X457280Y243332D01*
X458382Y243332D01*
X459483Y244434D01*
X459483Y246637D01*
X460585Y247738D01*
X461686Y247738D01*
X462788Y246637D01*
X462788Y244434D01*
X461686Y243332D01*
X461686Y250816D02*
X462788Y251918D01*
X462788Y253019D01*
X461686Y254121D01*
X456178Y254121D01*
X456178Y253019D02*
X456178Y255223D01*
X462788Y258300D02*
X462788Y262707D01*
X458382Y262707D02*
X462788Y258300D01*
X458382Y262707D02*
X457280Y262707D01*
X456178Y261605D01*
X456178Y259402D01*
X457280Y258300D01*
D507*
X469250Y310040D02*
X469250Y330040D01*
X483250Y330040D02*
X483250Y310040D01*
X476250Y317540D02*
X472250Y323540D01*
X480250Y323540D01*
X476250Y317540D01*
D509*
X476250Y316540D03*
D11*
X465488Y309802D02*
X458878Y309802D01*
X465488Y309802D02*
X465488Y313107D01*
X464386Y314208D01*
X459980Y314208D01*
X458878Y313107D01*
X458878Y309802D01*
X461082Y317286D02*
X458878Y319489D01*
X465488Y319489D01*
X465488Y317286D02*
X465488Y321693D01*
M02*
