M48
;GenerationSoftware,Autodesk,EAGLE,9.6.2*%
;CreationDate,2022-08-08T03:51:37Z*%
FMAT,2
ICI,OFF
METRIC,TZ,000.000
T7C0.500
T6C0.800
T5C0.900
T4C1.000
T3C1.100
T2C2.500
T1C2.540
%
G90
M71
T1
X48260Y20320
X48260Y2540
T2
X2540Y20320
X2540Y2540
T3
X45720Y13970
X45720Y8890
T4
X19050Y21590
X16510Y3810
X13970Y3810
X11430Y3810
X8890Y3810
X6350Y3810
X26670Y3810
X16510Y21590
X21590Y1270
X21590Y21590
X24130Y21590
X26670Y21590
X29210Y21590
X31750Y21590
X34290Y21590
X36830Y21590
X39370Y21590
X41910Y21590
X44450Y21590
X16510Y1270
X19050Y1270
X24130Y1270
X26670Y1270
X29210Y1270
X31750Y1270
X34290Y1270
X36830Y1270
X39370Y1270
X41910Y1270
X44450Y1270
X13970Y1270
X11430Y1270
X8890Y1270
X6350Y1270
X35560Y12700
X35560Y10160
X33020Y12700
X33020Y10160
X30480Y12700
X30480Y10160
X27940Y12700
X27940Y10160
X25400Y12700
X25400Y10160
X22860Y12700
X22860Y10160
X20320Y12700
X20320Y10160
X17780Y12700
X17780Y10160
X17780Y16764
X20320Y16764
X22860Y16764
X25400Y16764
X27940Y16764
X30480Y16764
X33020Y16764
X35560Y16764
X35560Y6096
X33020Y6096
X30480Y6096
X27940Y6096
X25400Y6096
X22860Y6096
X20320Y6096
X17780Y6096
X16510Y19050
X19050Y19050
X21590Y19050
X24130Y19050
X26670Y19050
X29210Y19050
X34290Y19050
X36830Y19050
X39370Y19050
X41910Y19050
X44450Y19050
X44450Y3810
X41910Y3810
X39370Y3810
X36830Y3810
X34290Y3810
X31750Y3810
X29210Y3810
X31750Y19050
X24130Y3810
X21590Y3810
X19050Y3810
T5
X10425Y11430
X4175Y11430
X7575Y6630
T6
X15240Y12700
X15240Y10160
X38100Y12700
X38100Y10160
T7
X12783Y21844
X41021Y11430
X11430Y21209
X7747Y21844
M30