G04 EAGLE Gerber RS-274X export*
G75*
%MOMM*%
%FSLAX34Y34*%
%LPD*%
%INSilkscreen Top*%
%IPPOS*%
%AMOC8*
5,1,8,0,0,1.08239X$1,22.5*%
G01*
%ADD10C,0.152400*%
%ADD11C,0.127000*%
%ADD12C,0.203200*%
%ADD13C,0.177800*%
%ADD14C,0.254000*%
%ADD15C,0.304800*%
%ADD16R,0.127000X0.762000*%
%ADD17R,0.200000X1.000000*%
%ADD18C,0.406400*%
%ADD19R,0.034300X0.003800*%
%ADD20R,0.057200X0.003800*%
%ADD21R,0.076200X0.003800*%
%ADD22R,0.091400X0.003800*%
%ADD23R,0.102900X0.003800*%
%ADD24R,0.114300X0.003900*%
%ADD25R,0.129500X0.003800*%
%ADD26R,0.137200X0.003800*%
%ADD27R,0.144800X0.003800*%
%ADD28R,0.152400X0.003800*%
%ADD29R,0.160000X0.003800*%
%ADD30R,0.171500X0.003800*%
%ADD31R,0.175300X0.003800*%
%ADD32R,0.182900X0.003800*%
%ADD33R,0.190500X0.003800*%
%ADD34R,0.194300X0.003900*%
%ADD35R,0.201900X0.003800*%
%ADD36R,0.209500X0.003800*%
%ADD37R,0.213400X0.003800*%
%ADD38R,0.221000X0.003800*%
%ADD39R,0.224800X0.003800*%
%ADD40R,0.232400X0.003800*%
%ADD41R,0.240000X0.003800*%
%ADD42R,0.243800X0.003800*%
%ADD43R,0.247600X0.003800*%
%ADD44R,0.255300X0.003900*%
%ADD45R,0.259100X0.003800*%
%ADD46R,0.262900X0.003800*%
%ADD47R,0.270500X0.003800*%
%ADD48R,0.274300X0.003800*%
%ADD49R,0.281900X0.003800*%
%ADD50R,0.285700X0.003800*%
%ADD51R,0.289500X0.003800*%
%ADD52R,0.297200X0.003800*%
%ADD53R,0.301000X0.003800*%
%ADD54R,0.304800X0.003900*%
%ADD55R,0.312400X0.003800*%
%ADD56R,0.316200X0.003800*%
%ADD57R,0.320000X0.003800*%
%ADD58R,0.327600X0.003800*%
%ADD59R,0.331500X0.003800*%
%ADD60R,0.339100X0.003800*%
%ADD61R,0.342900X0.003800*%
%ADD62R,0.346700X0.003800*%
%ADD63R,0.354300X0.003800*%
%ADD64R,0.358100X0.003900*%
%ADD65R,0.361900X0.003800*%
%ADD66R,0.369600X0.003800*%
%ADD67R,0.373400X0.003800*%
%ADD68R,0.377200X0.003800*%
%ADD69R,0.384800X0.003800*%
%ADD70R,0.388600X0.003800*%
%ADD71R,0.396200X0.003800*%
%ADD72R,0.400000X0.003800*%
%ADD73R,0.403800X0.003800*%
%ADD74R,0.411500X0.003900*%
%ADD75R,0.415300X0.003800*%
%ADD76R,0.419100X0.003800*%
%ADD77R,0.045700X0.003800*%
%ADD78R,0.426700X0.003800*%
%ADD79R,0.072400X0.003800*%
%ADD80R,0.430500X0.003800*%
%ADD81R,0.095300X0.003800*%
%ADD82R,0.438100X0.003800*%
%ADD83R,0.110500X0.003800*%
%ADD84R,0.441900X0.003800*%
%ADD85R,0.445800X0.003800*%
%ADD86R,0.144700X0.003800*%
%ADD87R,0.453400X0.003800*%
%ADD88R,0.457200X0.003800*%
%ADD89R,0.175300X0.003900*%
%ADD90R,0.461000X0.003900*%
%ADD91R,0.468600X0.003800*%
%ADD92R,0.205800X0.003800*%
%ADD93R,0.472400X0.003800*%
%ADD94R,0.217200X0.003800*%
%ADD95R,0.476200X0.003800*%
%ADD96R,0.483900X0.003800*%
%ADD97R,0.247700X0.003800*%
%ADD98R,0.487700X0.003800*%
%ADD99R,0.495300X0.003800*%
%ADD100R,0.499100X0.003800*%
%ADD101R,0.502900X0.003800*%
%ADD102R,0.510500X0.003800*%
%ADD103R,0.308600X0.003900*%
%ADD104R,0.514300X0.003900*%
%ADD105R,0.323800X0.003800*%
%ADD106R,0.518100X0.003800*%
%ADD107R,0.335300X0.003800*%
%ADD108R,0.525800X0.003800*%
%ADD109R,0.529600X0.003800*%
%ADD110R,0.358100X0.003800*%
%ADD111R,0.533400X0.003800*%
%ADD112R,0.537200X0.003800*%
%ADD113R,0.381000X0.003800*%
%ADD114R,0.544800X0.003800*%
%ADD115R,0.392400X0.003800*%
%ADD116R,0.548600X0.003800*%
%ADD117R,0.552400X0.003800*%
%ADD118R,0.556200X0.003800*%
%ADD119R,0.422900X0.003900*%
%ADD120R,0.560100X0.003900*%
%ADD121R,0.434300X0.003800*%
%ADD122R,0.563900X0.003800*%
%ADD123R,0.567700X0.003800*%
%ADD124R,0.461000X0.003800*%
%ADD125R,0.571500X0.003800*%
%ADD126R,0.575300X0.003800*%
%ADD127R,0.480100X0.003800*%
%ADD128R,0.579100X0.003800*%
%ADD129R,0.491500X0.003800*%
%ADD130R,0.582900X0.003800*%
%ADD131R,0.586700X0.003800*%
%ADD132R,0.510600X0.003800*%
%ADD133R,0.590500X0.003800*%
%ADD134R,0.522000X0.003800*%
%ADD135R,0.594300X0.003800*%
%ADD136R,0.533400X0.003900*%
%ADD137R,0.598200X0.003900*%
%ADD138R,0.541000X0.003800*%
%ADD139R,0.602000X0.003800*%
%ADD140R,0.552500X0.003800*%
%ADD141R,0.605800X0.003800*%
%ADD142R,0.560100X0.003800*%
%ADD143R,0.609600X0.003800*%
%ADD144R,0.613400X0.003800*%
%ADD145R,0.583000X0.003800*%
%ADD146R,0.617200X0.003800*%
%ADD147R,0.594400X0.003800*%
%ADD148R,0.621000X0.003800*%
%ADD149R,0.598200X0.003800*%
%ADD150R,0.624800X0.003800*%
%ADD151R,0.613500X0.003900*%
%ADD152R,0.628600X0.003900*%
%ADD153R,0.632400X0.003800*%
%ADD154R,0.628600X0.003800*%
%ADD155R,0.636300X0.003800*%
%ADD156R,0.640100X0.003800*%
%ADD157R,0.636200X0.003800*%
%ADD158R,0.643900X0.003800*%
%ADD159R,0.647700X0.003800*%
%ADD160R,0.651500X0.003800*%
%ADD161R,0.659100X0.003800*%
%ADD162R,0.659100X0.003900*%
%ADD163R,0.655300X0.003900*%
%ADD164R,0.662900X0.003800*%
%ADD165R,0.655300X0.003800*%
%ADD166R,0.670500X0.003800*%
%ADD167R,0.670600X0.003800*%
%ADD168R,0.674400X0.003800*%
%ADD169R,0.682000X0.003800*%
%ADD170R,0.666700X0.003800*%
%ADD171R,0.685800X0.003800*%
%ADD172R,0.689600X0.003800*%
%ADD173R,0.693400X0.003900*%
%ADD174R,0.674400X0.003900*%
%ADD175R,0.697200X0.003800*%
%ADD176R,0.678200X0.003800*%
%ADD177R,0.697300X0.003800*%
%ADD178R,0.701100X0.003800*%
%ADD179R,0.704900X0.003800*%
%ADD180R,0.708700X0.003800*%
%ADD181R,0.712500X0.003800*%
%ADD182R,0.716300X0.003800*%
%ADD183R,0.720100X0.003900*%
%ADD184R,0.689600X0.003900*%
%ADD185R,0.720000X0.003800*%
%ADD186R,0.693400X0.003800*%
%ADD187R,0.723900X0.003800*%
%ADD188R,0.727700X0.003800*%
%ADD189R,0.731500X0.003800*%
%ADD190R,0.701000X0.003800*%
%ADD191R,0.735300X0.003800*%
%ADD192R,0.731500X0.003900*%
%ADD193R,0.701000X0.003900*%
%ADD194R,0.704800X0.003800*%
%ADD195R,0.739100X0.003800*%
%ADD196R,0.743000X0.003800*%
%ADD197R,0.739200X0.003800*%
%ADD198R,0.743000X0.003900*%
%ADD199R,0.704800X0.003900*%
%ADD200R,0.746800X0.003800*%
%ADD201R,0.746800X0.003900*%
%ADD202R,0.742900X0.003800*%
%ADD203R,0.746700X0.003800*%
%ADD204R,0.746700X0.003900*%
%ADD205R,1.428800X0.003800*%
%ADD206R,1.424900X0.003800*%
%ADD207R,1.421100X0.003900*%
%ADD208R,1.421100X0.003800*%
%ADD209R,1.417300X0.003800*%
%ADD210R,1.413500X0.003800*%
%ADD211R,1.409700X0.003800*%
%ADD212R,1.405900X0.003800*%
%ADD213R,1.402100X0.003800*%
%ADD214R,1.398300X0.003800*%
%ADD215R,0.983000X0.003900*%
%ADD216R,0.384800X0.003900*%
%ADD217R,0.971600X0.003800*%
%ADD218R,0.963900X0.003800*%
%ADD219R,0.956300X0.003800*%
%ADD220R,0.365800X0.003800*%
%ADD221R,0.952500X0.003800*%
%ADD222R,0.941000X0.003800*%
%ADD223R,0.358200X0.003800*%
%ADD224R,0.937200X0.003800*%
%ADD225R,0.933400X0.003800*%
%ADD226R,0.354400X0.003800*%
%ADD227R,0.925800X0.003800*%
%ADD228R,0.350500X0.003800*%
%ADD229R,0.922000X0.003800*%
%ADD230R,0.918200X0.003900*%
%ADD231R,0.346700X0.003900*%
%ADD232R,0.910600X0.003800*%
%ADD233R,0.906800X0.003800*%
%ADD234R,0.903000X0.003800*%
%ADD235R,0.339000X0.003800*%
%ADD236R,0.895300X0.003800*%
%ADD237R,0.335200X0.003800*%
%ADD238R,0.887700X0.003800*%
%ADD239R,0.883900X0.003800*%
%ADD240R,0.331400X0.003800*%
%ADD241R,0.880100X0.003800*%
%ADD242R,0.876300X0.003800*%
%ADD243R,0.468600X0.003900*%
%ADD244R,0.396200X0.003900*%
%ADD245R,0.323800X0.003900*%
%ADD246R,0.449600X0.003800*%
%ADD247R,0.323900X0.003800*%
%ADD248R,0.442000X0.003800*%
%ADD249R,0.434400X0.003800*%
%ADD250R,0.320100X0.003800*%
%ADD251R,0.316300X0.003800*%
%ADD252R,0.426800X0.003800*%
%ADD253R,0.327700X0.003800*%
%ADD254R,0.312500X0.003800*%
%ADD255R,0.422900X0.003800*%
%ADD256R,0.308600X0.003800*%
%ADD257R,0.293400X0.003800*%
%ADD258R,0.304800X0.003800*%
%ADD259R,0.419100X0.003900*%
%ADD260R,0.285700X0.003900*%
%ADD261R,0.301000X0.003900*%
%ADD262R,0.411500X0.003800*%
%ADD263R,0.407700X0.003800*%
%ADD264R,0.289600X0.003800*%
%ADD265R,0.285800X0.003800*%
%ADD266R,0.403900X0.003800*%
%ADD267R,0.228600X0.003800*%
%ADD268R,0.403900X0.003900*%
%ADD269R,0.221000X0.003900*%
%ADD270R,0.278100X0.003900*%
%ADD271R,0.400100X0.003800*%
%ADD272R,0.209600X0.003800*%
%ADD273R,0.266700X0.003800*%
%ADD274R,0.038100X0.003800*%
%ADD275R,0.194300X0.003800*%
%ADD276R,0.148600X0.003800*%
%ADD277R,0.259000X0.003800*%
%ADD278R,0.182800X0.003800*%
%ADD279R,0.186700X0.003800*%
%ADD280R,0.251400X0.003800*%
%ADD281R,0.179100X0.003800*%
%ADD282R,0.236200X0.003800*%
%ADD283R,0.243900X0.003900*%
%ADD284R,0.282000X0.003900*%
%ADD285R,0.167700X0.003800*%
%ADD286R,0.236300X0.003800*%
%ADD287R,0.396300X0.003800*%
%ADD288R,0.163900X0.003800*%
%ADD289R,0.392500X0.003800*%
%ADD290R,0.160100X0.003800*%
%ADD291R,0.586800X0.003800*%
%ADD292R,0.148500X0.003800*%
%ADD293R,0.140900X0.003800*%
%ADD294R,0.392400X0.003900*%
%ADD295R,0.140900X0.003900*%
%ADD296R,0.647700X0.003900*%
%ADD297R,0.133300X0.003800*%
%ADD298R,0.674300X0.003800*%
%ADD299R,0.388700X0.003800*%
%ADD300R,0.125700X0.003800*%
%ADD301R,0.121900X0.003800*%
%ADD302R,0.720100X0.003800*%
%ADD303R,0.118100X0.003800*%
%ADD304R,0.118100X0.003900*%
%ADD305R,0.739100X0.003900*%
%ADD306R,0.114300X0.003800*%
%ADD307R,0.754400X0.003800*%
%ADD308R,0.765800X0.003800*%
%ADD309R,0.773400X0.003800*%
%ADD310R,0.784800X0.003800*%
%ADD311R,0.118200X0.003800*%
%ADD312R,0.792500X0.003800*%
%ADD313R,0.803900X0.003800*%
%ADD314R,0.122000X0.003800*%
%ADD315R,0.815400X0.003800*%
%ADD316R,0.125800X0.003800*%
%ADD317R,0.826800X0.003800*%
%ADD318R,0.369500X0.003900*%
%ADD319R,0.133400X0.003900*%
%ADD320R,0.842000X0.003900*%
%ADD321R,0.365700X0.003800*%
%ADD322R,1.009700X0.003800*%
%ADD323R,1.013500X0.003800*%
%ADD324R,0.362000X0.003800*%
%ADD325R,1.024900X0.003800*%
%ADD326R,1.028700X0.003800*%
%ADD327R,1.036300X0.003800*%
%ADD328R,1.047800X0.003800*%
%ADD329R,1.055400X0.003800*%
%ADD330R,1.070600X0.003800*%
%ADD331R,0.030500X0.003800*%
%ADD332R,1.436400X0.003800*%
%ADD333R,1.562100X0.003900*%
%ADD334R,1.588700X0.003800*%
%ADD335R,1.607800X0.003800*%
%ADD336R,1.626900X0.003800*%
%ADD337R,1.642100X0.003800*%
%ADD338R,1.657400X0.003800*%
%ADD339R,1.676400X0.003800*%
%ADD340R,1.687800X0.003800*%
%ADD341R,1.703000X0.003800*%
%ADD342R,1.714500X0.003800*%
%ADD343R,1.726000X0.003900*%
%ADD344R,1.741200X0.003800*%
%ADD345R,0.914400X0.003800*%
%ADD346R,0.769600X0.003800*%
%ADD347R,0.884000X0.003800*%
%ADD348R,0.712400X0.003800*%
%ADD349R,0.880100X0.003900*%
%ADD350R,0.887800X0.003800*%
%ADD351R,0.891600X0.003800*%
%ADD352R,0.895400X0.003800*%
%ADD353R,0.251500X0.003800*%
%ADD354R,0.579200X0.003900*%
%ADD355R,0.243900X0.003800*%
%ADD356R,0.556300X0.003800*%
%ADD357R,0.255200X0.003800*%
%ADD358R,0.529500X0.003800*%
%ADD359R,0.731600X0.003800*%
%ADD360R,0.525800X0.003900*%
%ADD361R,0.281900X0.003900*%
%ADD362R,0.735400X0.003900*%
%ADD363R,0.300900X0.003800*%
%ADD364R,0.762000X0.003800*%
%ADD365R,0.518200X0.003800*%
%ADD366R,0.350600X0.003800*%
%ADD367R,0.796300X0.003800*%
%ADD368R,0.807800X0.003800*%
%ADD369R,0.506700X0.003800*%
%ADD370R,0.849600X0.003800*%
%ADD371R,0.506700X0.003900*%
%ADD372R,1.371600X0.003900*%
%ADD373R,1.207800X0.003800*%
%ADD374R,0.503000X0.003800*%
%ADD375R,0.141000X0.003800*%
%ADD376R,1.203900X0.003800*%
%ADD377R,1.204000X0.003800*%
%ADD378R,1.200200X0.003800*%
%ADD379R,0.499100X0.003900*%
%ADD380R,0.156200X0.003900*%
%ADD381R,1.196400X0.003900*%
%ADD382R,1.196400X0.003800*%
%ADD383R,0.163800X0.003800*%
%ADD384R,0.167600X0.003800*%
%ADD385R,1.192500X0.003800*%
%ADD386R,0.499200X0.003800*%
%ADD387R,1.188700X0.003800*%
%ADD388R,0.506800X0.003800*%
%ADD389R,1.184900X0.003800*%
%ADD390R,0.510600X0.003900*%
%ADD391R,0.209600X0.003900*%
%ADD392R,1.181100X0.003900*%
%ADD393R,0.514400X0.003800*%
%ADD394R,1.181100X0.003800*%
%ADD395R,1.177300X0.003800*%
%ADD396R,0.240100X0.003800*%
%ADD397R,1.173500X0.003800*%
%ADD398R,1.169700X0.003800*%
%ADD399R,1.165900X0.003800*%
%ADD400R,1.162100X0.003800*%
%ADD401R,0.929700X0.003900*%
%ADD402R,1.162100X0.003900*%
%ADD403R,0.929700X0.003800*%
%ADD404R,1.154500X0.003800*%
%ADD405R,0.933500X0.003800*%
%ADD406R,1.150600X0.003800*%
%ADD407R,0.937300X0.003800*%
%ADD408R,1.146800X0.003800*%
%ADD409R,0.941100X0.003800*%
%ADD410R,1.139200X0.003800*%
%ADD411R,0.944900X0.003800*%
%ADD412R,1.135400X0.003800*%
%ADD413R,0.948700X0.003800*%
%ADD414R,1.127800X0.003800*%
%ADD415R,1.124000X0.003800*%
%ADD416R,1.116400X0.003800*%
%ADD417R,0.956300X0.003900*%
%ADD418R,1.104900X0.003900*%
%ADD419R,0.960100X0.003800*%
%ADD420R,1.093500X0.003800*%
%ADD421R,1.085900X0.003800*%
%ADD422R,0.967800X0.003800*%
%ADD423R,1.074500X0.003800*%
%ADD424R,1.063000X0.003800*%
%ADD425R,0.975400X0.003800*%
%ADD426R,1.036400X0.003800*%
%ADD427R,0.979200X0.003800*%
%ADD428R,1.021000X0.003800*%
%ADD429R,0.983000X0.003800*%
%ADD430R,1.009600X0.003800*%
%ADD431R,0.986800X0.003800*%
%ADD432R,0.998200X0.003800*%
%ADD433R,0.990600X0.003900*%
%ADD434R,0.986700X0.003900*%
%ADD435R,0.994400X0.003800*%
%ADD436R,0.975300X0.003800*%
%ADD437R,0.948600X0.003800*%
%ADD438R,1.002000X0.003800*%
%ADD439R,0.213300X0.003800*%
%ADD440R,0.217100X0.003800*%
%ADD441R,1.017300X0.003800*%
%ADD442R,0.666800X0.003800*%
%ADD443R,0.220900X0.003800*%
%ADD444R,1.028700X0.003900*%
%ADD445R,0.224700X0.003900*%
%ADD446R,1.032500X0.003800*%
%ADD447R,1.040100X0.003800*%
%ADD448R,1.043900X0.003800*%
%ADD449R,0.548700X0.003800*%
%ADD450R,1.051500X0.003800*%
%ADD451R,1.055300X0.003800*%
%ADD452R,1.059100X0.003800*%
%ADD453R,1.062900X0.003800*%
%ADD454R,0.255300X0.003800*%
%ADD455R,1.066800X0.003900*%
%ADD456R,0.259100X0.003900*%
%ADD457R,0.457200X0.003900*%
%ADD458R,0.423000X0.003800*%
%ADD459R,1.082100X0.003800*%
%ADD460R,0.274400X0.003800*%
%ADD461R,0.278200X0.003800*%
%ADD462R,1.101100X0.003800*%
%ADD463R,0.278100X0.003800*%
%ADD464R,0.876300X0.003900*%
%ADD465R,0.236200X0.003900*%
%ADD466R,0.289600X0.003900*%
%ADD467R,0.247700X0.003900*%
%ADD468R,0.049500X0.003800*%
%ADD469R,0.640100X0.003900*%
%ADD470R,0.659200X0.003800*%
%ADD471R,0.663000X0.003800*%
%ADD472R,0.872500X0.003900*%
%ADD473R,0.666800X0.003900*%
%ADD474R,0.872500X0.003800*%
%ADD475R,0.868700X0.003800*%
%ADD476R,0.864900X0.003800*%
%ADD477R,0.861100X0.003800*%
%ADD478R,0.857300X0.003800*%
%ADD479R,0.853400X0.003800*%
%ADD480R,0.845800X0.003800*%
%ADD481R,0.682000X0.003900*%
%ADD482R,0.842000X0.003800*%
%ADD483R,0.834400X0.003800*%
%ADD484R,0.823000X0.003800*%
%ADD485R,0.815300X0.003800*%
%ADD486R,0.811500X0.003800*%
%ADD487R,0.788700X0.003800*%
%ADD488R,0.777300X0.003900*%
%ADD489R,0.750600X0.003800*%
%ADD490R,0.735400X0.003800*%
%ADD491R,0.727800X0.003800*%
%ADD492R,0.628700X0.003800*%
%ADD493R,0.575400X0.003800*%
%ADD494R,0.670600X0.003900*%
%ADD495R,0.655400X0.003800*%
%ADD496R,0.651500X0.003900*%
%ADD497R,0.624800X0.003900*%
%ADD498R,0.594400X0.003900*%
%ADD499R,0.563900X0.003900*%
%ADD500R,0.541100X0.003800*%
%ADD501R,0.537300X0.003800*%
%ADD502R,0.525700X0.003800*%
%ADD503R,0.525700X0.003900*%
%ADD504R,0.514300X0.003800*%
%ADD505R,0.480100X0.003900*%
%ADD506R,0.464800X0.003800*%
%ADD507R,0.442000X0.003900*%
%ADD508R,0.438200X0.003800*%
%ADD509R,0.430600X0.003800*%
%ADD510R,0.407600X0.003800*%
%ADD511R,0.403800X0.003900*%
%ADD512R,0.365700X0.003900*%
%ADD513R,0.327700X0.003900*%
%ADD514R,0.243800X0.003900*%
%ADD515R,0.205800X0.003900*%
%ADD516R,0.198100X0.003800*%
%ADD517R,0.163800X0.003900*%
%ADD518R,0.137100X0.003800*%
%ADD519R,0.091500X0.003900*%
%ADD520R,0.060900X0.003800*%

G36*
X137814Y51405D02*
X137814Y51405D01*
X137925Y51403D01*
X137973Y51415D01*
X138022Y51418D01*
X138126Y51452D01*
X138234Y51478D01*
X138278Y51501D01*
X138324Y51516D01*
X138417Y51575D01*
X138515Y51627D01*
X138551Y51660D01*
X138593Y51686D01*
X138669Y51767D01*
X138750Y51841D01*
X138777Y51882D01*
X138811Y51918D01*
X138864Y52014D01*
X138925Y52106D01*
X138941Y52153D01*
X138965Y52196D01*
X138992Y52303D01*
X139028Y52407D01*
X139032Y52456D01*
X139044Y52504D01*
X139054Y52665D01*
X139054Y53936D01*
X144135Y53936D01*
X144253Y53951D01*
X144372Y53958D01*
X144410Y53971D01*
X144451Y53976D01*
X144561Y54019D01*
X144674Y54056D01*
X144709Y54078D01*
X144746Y54093D01*
X144842Y54163D01*
X144943Y54226D01*
X144971Y54256D01*
X145004Y54279D01*
X145080Y54371D01*
X145161Y54458D01*
X145181Y54493D01*
X145206Y54524D01*
X145257Y54632D01*
X145315Y54736D01*
X145325Y54776D01*
X145342Y54812D01*
X145364Y54929D01*
X145394Y55044D01*
X145398Y55105D01*
X145402Y55125D01*
X145400Y55145D01*
X145404Y55205D01*
X145404Y57745D01*
X145389Y57863D01*
X145382Y57982D01*
X145369Y58020D01*
X145364Y58061D01*
X145321Y58171D01*
X145284Y58284D01*
X145262Y58319D01*
X145247Y58356D01*
X145178Y58452D01*
X145114Y58553D01*
X145084Y58581D01*
X145061Y58614D01*
X144969Y58690D01*
X144882Y58771D01*
X144847Y58791D01*
X144816Y58816D01*
X144708Y58867D01*
X144604Y58925D01*
X144564Y58935D01*
X144528Y58952D01*
X144411Y58974D01*
X144296Y59004D01*
X144236Y59008D01*
X144216Y59012D01*
X144195Y59010D01*
X144135Y59014D01*
X139054Y59014D01*
X139054Y60285D01*
X139048Y60334D01*
X139050Y60383D01*
X139036Y60454D01*
X139032Y60517D01*
X139020Y60553D01*
X139014Y60601D01*
X138996Y60646D01*
X138986Y60695D01*
X138951Y60767D01*
X138934Y60820D01*
X138917Y60847D01*
X138897Y60896D01*
X138868Y60936D01*
X138847Y60981D01*
X138790Y61047D01*
X138764Y61089D01*
X138745Y61107D01*
X138711Y61154D01*
X138672Y61185D01*
X138640Y61223D01*
X138564Y61276D01*
X138532Y61307D01*
X138513Y61317D01*
X138466Y61356D01*
X138421Y61377D01*
X138380Y61406D01*
X138289Y61441D01*
X138254Y61460D01*
X138236Y61465D01*
X138178Y61492D01*
X138129Y61501D01*
X138083Y61519D01*
X137983Y61530D01*
X137946Y61540D01*
X137921Y61541D01*
X137866Y61552D01*
X137816Y61549D01*
X137767Y61554D01*
X137658Y61539D01*
X137548Y61532D01*
X137501Y61517D01*
X137452Y61510D01*
X137350Y61468D01*
X137246Y61434D01*
X137204Y61407D01*
X137184Y61399D01*
X137168Y61393D01*
X137167Y61392D01*
X137158Y61389D01*
X137023Y61300D01*
X131943Y57490D01*
X131875Y57424D01*
X131839Y57398D01*
X131811Y57364D01*
X131740Y57299D01*
X131729Y57283D01*
X131715Y57269D01*
X131664Y57187D01*
X131637Y57153D01*
X131618Y57114D01*
X131565Y57034D01*
X131559Y57015D01*
X131549Y56998D01*
X131520Y56906D01*
X131501Y56866D01*
X131493Y56822D01*
X131462Y56733D01*
X131461Y56713D01*
X131455Y56694D01*
X131450Y56600D01*
X131441Y56553D01*
X131444Y56506D01*
X131437Y56416D01*
X131441Y56396D01*
X131440Y56377D01*
X131458Y56288D01*
X131461Y56236D01*
X131477Y56187D01*
X131492Y56102D01*
X131500Y56084D01*
X131504Y56065D01*
X131541Y55988D01*
X131559Y55933D01*
X131590Y55885D01*
X131622Y55813D01*
X131635Y55797D01*
X131643Y55779D01*
X131695Y55719D01*
X131729Y55665D01*
X131775Y55621D01*
X131821Y55564D01*
X131842Y55546D01*
X131850Y55537D01*
X131866Y55526D01*
X131943Y55460D01*
X137023Y51650D01*
X137066Y51625D01*
X137104Y51594D01*
X137204Y51547D01*
X137300Y51492D01*
X137348Y51479D01*
X137392Y51458D01*
X137500Y51437D01*
X137607Y51408D01*
X137656Y51408D01*
X137705Y51398D01*
X137814Y51405D01*
G37*
G36*
X158243Y68001D02*
X158243Y68001D01*
X158362Y68008D01*
X158400Y68021D01*
X158441Y68026D01*
X158551Y68069D01*
X158664Y68106D01*
X158699Y68128D01*
X158736Y68143D01*
X158832Y68213D01*
X158933Y68276D01*
X158961Y68306D01*
X158994Y68329D01*
X159070Y68421D01*
X159151Y68508D01*
X159171Y68543D01*
X159196Y68574D01*
X159247Y68682D01*
X159305Y68786D01*
X159315Y68826D01*
X159332Y68862D01*
X159354Y68979D01*
X159384Y69094D01*
X159388Y69155D01*
X159392Y69175D01*
X159390Y69195D01*
X159394Y69255D01*
X159394Y74336D01*
X160665Y74336D01*
X160714Y74342D01*
X160763Y74340D01*
X160871Y74362D01*
X160981Y74376D01*
X161026Y74394D01*
X161075Y74404D01*
X161174Y74452D01*
X161276Y74493D01*
X161316Y74522D01*
X161361Y74543D01*
X161444Y74615D01*
X161534Y74679D01*
X161565Y74718D01*
X161603Y74750D01*
X161666Y74840D01*
X161736Y74924D01*
X161757Y74969D01*
X161786Y75010D01*
X161825Y75113D01*
X161872Y75212D01*
X161881Y75261D01*
X161899Y75307D01*
X161911Y75417D01*
X161932Y75525D01*
X161929Y75574D01*
X161934Y75623D01*
X161919Y75732D01*
X161912Y75842D01*
X161897Y75889D01*
X161890Y75938D01*
X161848Y76040D01*
X161814Y76144D01*
X161787Y76186D01*
X161769Y76232D01*
X161680Y76367D01*
X157870Y81447D01*
X157852Y81466D01*
X157839Y81486D01*
X157766Y81555D01*
X157679Y81650D01*
X157663Y81661D01*
X157649Y81675D01*
X157618Y81694D01*
X157607Y81704D01*
X157552Y81735D01*
X157530Y81748D01*
X157414Y81825D01*
X157395Y81831D01*
X157378Y81841D01*
X157333Y81855D01*
X157329Y81858D01*
X157306Y81864D01*
X157245Y81883D01*
X157113Y81928D01*
X157093Y81929D01*
X157074Y81935D01*
X156992Y81939D01*
X156878Y81946D01*
X156796Y81953D01*
X156776Y81950D01*
X156757Y81950D01*
X156620Y81922D01*
X156540Y81908D01*
X156534Y81908D01*
X156533Y81907D01*
X156482Y81898D01*
X156464Y81890D01*
X156445Y81886D01*
X156320Y81825D01*
X156278Y81806D01*
X156239Y81791D01*
X156231Y81785D01*
X156193Y81768D01*
X156177Y81755D01*
X156159Y81747D01*
X156053Y81656D01*
X156050Y81653D01*
X155981Y81604D01*
X155969Y81589D01*
X155944Y81569D01*
X155926Y81548D01*
X155917Y81540D01*
X155906Y81524D01*
X155840Y81447D01*
X152030Y76367D01*
X152005Y76324D01*
X151974Y76286D01*
X151927Y76186D01*
X151872Y76090D01*
X151859Y76042D01*
X151838Y75998D01*
X151817Y75890D01*
X151788Y75783D01*
X151788Y75734D01*
X151778Y75686D01*
X151785Y75576D01*
X151783Y75465D01*
X151795Y75417D01*
X151798Y75368D01*
X151832Y75264D01*
X151858Y75156D01*
X151881Y75112D01*
X151896Y75066D01*
X151955Y74973D01*
X152007Y74875D01*
X152040Y74839D01*
X152066Y74797D01*
X152147Y74721D01*
X152221Y74640D01*
X152262Y74613D01*
X152298Y74579D01*
X152394Y74526D01*
X152486Y74465D01*
X152533Y74449D01*
X152576Y74425D01*
X152683Y74398D01*
X152787Y74362D01*
X152836Y74358D01*
X152884Y74346D01*
X153045Y74336D01*
X154316Y74336D01*
X154316Y69255D01*
X154331Y69137D01*
X154338Y69018D01*
X154351Y68980D01*
X154356Y68939D01*
X154399Y68829D01*
X154436Y68716D01*
X154458Y68681D01*
X154473Y68644D01*
X154543Y68548D01*
X154606Y68447D01*
X154636Y68419D01*
X154659Y68386D01*
X154751Y68311D01*
X154838Y68229D01*
X154873Y68209D01*
X154904Y68184D01*
X155012Y68133D01*
X155116Y68075D01*
X155156Y68065D01*
X155192Y68048D01*
X155309Y68026D01*
X155424Y67996D01*
X155485Y67992D01*
X155505Y67988D01*
X155525Y67990D01*
X155585Y67986D01*
X158125Y67986D01*
X158243Y68001D01*
G37*
G36*
X131585Y115738D02*
X131585Y115738D01*
X131656Y115736D01*
X131725Y115754D01*
X131796Y115763D01*
X131862Y115790D01*
X131931Y115808D01*
X131992Y115845D01*
X132058Y115872D01*
X132114Y115917D01*
X132176Y115954D01*
X132225Y116005D01*
X132280Y116050D01*
X132321Y116109D01*
X132370Y116161D01*
X132403Y116224D01*
X132444Y116282D01*
X132467Y116350D01*
X132500Y116414D01*
X132510Y116473D01*
X132537Y116551D01*
X132543Y116670D01*
X132555Y116745D01*
X132555Y120745D01*
X132545Y120816D01*
X132545Y120888D01*
X132525Y120956D01*
X132515Y121027D01*
X132486Y121092D01*
X132466Y121161D01*
X132428Y121221D01*
X132399Y121286D01*
X132353Y121341D01*
X132315Y121401D01*
X132262Y121449D01*
X132216Y121503D01*
X132156Y121543D01*
X132102Y121590D01*
X132038Y121621D01*
X131979Y121661D01*
X131911Y121682D01*
X131846Y121713D01*
X131776Y121725D01*
X131708Y121746D01*
X131636Y121748D01*
X131566Y121760D01*
X131495Y121752D01*
X131424Y121754D01*
X131354Y121735D01*
X131283Y121727D01*
X131228Y121702D01*
X131149Y121682D01*
X131046Y121621D01*
X130977Y121590D01*
X127977Y119590D01*
X127890Y119513D01*
X127800Y119440D01*
X127785Y119418D01*
X127765Y119400D01*
X127703Y119303D01*
X127636Y119208D01*
X127628Y119182D01*
X127613Y119160D01*
X127581Y119049D01*
X127543Y118939D01*
X127542Y118912D01*
X127535Y118887D01*
X127535Y118771D01*
X127529Y118655D01*
X127535Y118629D01*
X127535Y118602D01*
X127567Y118491D01*
X127593Y118378D01*
X127606Y118355D01*
X127614Y118329D01*
X127676Y118231D01*
X127732Y118130D01*
X127750Y118114D01*
X127765Y118089D01*
X127973Y117904D01*
X127977Y117900D01*
X130977Y115900D01*
X131041Y115869D01*
X131101Y115830D01*
X131169Y115808D01*
X131233Y115777D01*
X131304Y115765D01*
X131372Y115744D01*
X131443Y115742D01*
X131514Y115730D01*
X131585Y115738D01*
G37*
G36*
X37348Y122433D02*
X37348Y122433D01*
X37377Y122430D01*
X37469Y122450D01*
X37562Y122463D01*
X37589Y122476D01*
X37618Y122482D01*
X37698Y122530D01*
X37782Y122572D01*
X37803Y122593D01*
X37829Y122608D01*
X37890Y122680D01*
X37956Y122746D01*
X37969Y122772D01*
X37989Y122795D01*
X38024Y122882D01*
X38066Y122966D01*
X38070Y122996D01*
X38081Y123023D01*
X38099Y123190D01*
X38099Y128270D01*
X38094Y128299D01*
X38097Y128329D01*
X38075Y128420D01*
X38060Y128513D01*
X38046Y128539D01*
X38039Y128568D01*
X37988Y128647D01*
X37944Y128730D01*
X37923Y128751D01*
X37907Y128776D01*
X37834Y128835D01*
X37766Y128900D01*
X37739Y128912D01*
X37716Y128931D01*
X37628Y128964D01*
X37543Y129003D01*
X37513Y129006D01*
X37486Y129017D01*
X37392Y129020D01*
X37299Y129030D01*
X37269Y129024D01*
X37240Y129025D01*
X37150Y128998D01*
X37058Y128978D01*
X37033Y128963D01*
X37004Y128954D01*
X36862Y128864D01*
X33687Y126324D01*
X33618Y126247D01*
X33545Y126174D01*
X33536Y126157D01*
X33523Y126142D01*
X33481Y126046D01*
X33435Y125954D01*
X33433Y125934D01*
X33425Y125916D01*
X33416Y125813D01*
X33402Y125710D01*
X33406Y125691D01*
X33404Y125671D01*
X33429Y125570D01*
X33448Y125468D01*
X33458Y125451D01*
X33462Y125432D01*
X33518Y125345D01*
X33569Y125254D01*
X33586Y125237D01*
X33594Y125224D01*
X33619Y125204D01*
X33687Y125136D01*
X36862Y122596D01*
X36888Y122581D01*
X36910Y122561D01*
X36995Y122521D01*
X37077Y122475D01*
X37106Y122469D01*
X37133Y122457D01*
X37226Y122447D01*
X37318Y122429D01*
X37348Y122433D01*
G37*
D10*
X51788Y13215D02*
X51788Y7453D01*
X54670Y4572D01*
X57551Y7453D01*
X57551Y13215D01*
X61144Y4572D02*
X64025Y4572D01*
X62584Y4572D02*
X62584Y13215D01*
X61144Y13215D02*
X64025Y13215D01*
X67380Y13215D02*
X67380Y4572D01*
X73143Y4572D02*
X67380Y13215D01*
X73143Y13215D02*
X73143Y4572D01*
X82847Y44160D02*
X84287Y45600D01*
X87169Y45600D01*
X88609Y44160D01*
X88609Y42719D01*
X87169Y41279D01*
X85728Y41279D01*
X87169Y41279D02*
X88609Y39838D01*
X88609Y38398D01*
X87169Y36957D01*
X84287Y36957D01*
X82847Y38398D01*
X92202Y39838D02*
X92202Y45600D01*
X92202Y39838D02*
X95083Y36957D01*
X97964Y39838D01*
X97964Y45600D01*
X105351Y13215D02*
X106791Y11775D01*
X105351Y13215D02*
X102470Y13215D01*
X101029Y11775D01*
X101029Y6013D01*
X102470Y4572D01*
X105351Y4572D01*
X106791Y6013D01*
X106791Y8894D01*
X103910Y8894D01*
X110384Y13215D02*
X110384Y4572D01*
X116147Y4572D02*
X110384Y13215D01*
X116147Y13215D02*
X116147Y4572D01*
X119740Y4572D02*
X119740Y13215D01*
X119740Y4572D02*
X124061Y4572D01*
X125502Y6013D01*
X125502Y11775D01*
X124061Y13215D01*
X119740Y13215D01*
X132191Y44795D02*
X130751Y46235D01*
X127870Y46235D01*
X126429Y44795D01*
X126429Y43354D01*
X127870Y41914D01*
X130751Y41914D01*
X132191Y40473D01*
X132191Y39033D01*
X130751Y37592D01*
X127870Y37592D01*
X126429Y39033D01*
X140106Y46235D02*
X141547Y44795D01*
X140106Y46235D02*
X137225Y46235D01*
X135784Y44795D01*
X135784Y39033D01*
X137225Y37592D01*
X140106Y37592D01*
X141547Y39033D01*
X145140Y37592D02*
X145140Y46235D01*
X145140Y37592D02*
X150902Y37592D01*
X174111Y36322D02*
X176992Y36322D01*
X175551Y36322D02*
X175551Y44965D01*
X174111Y44965D02*
X176992Y44965D01*
X180348Y44965D02*
X180348Y36322D01*
X186110Y36322D02*
X180348Y44965D01*
X186110Y44965D02*
X186110Y36322D01*
X192584Y36322D02*
X192584Y44965D01*
X189703Y44965D02*
X195465Y44965D01*
X199058Y42084D02*
X201939Y44965D01*
X201939Y36322D01*
X199058Y36322D02*
X204820Y36322D01*
X156321Y11775D02*
X154881Y13215D01*
X152000Y13215D01*
X150559Y11775D01*
X150559Y10334D01*
X152000Y8894D01*
X154881Y8894D01*
X156321Y7453D01*
X156321Y6013D01*
X154881Y4572D01*
X152000Y4572D01*
X150559Y6013D01*
X159914Y4572D02*
X159914Y13215D01*
X159914Y4572D02*
X164236Y4572D01*
X165677Y6013D01*
X165677Y11775D01*
X164236Y13215D01*
X159914Y13215D01*
X169270Y10334D02*
X169270Y4572D01*
X169270Y10334D02*
X172151Y13215D01*
X175032Y10334D01*
X175032Y4572D01*
X175032Y8894D02*
X169270Y8894D01*
X74589Y142120D02*
X71708Y140680D01*
X68827Y137799D01*
X68827Y134918D01*
X70267Y133477D01*
X73149Y133477D01*
X74589Y134918D01*
X74589Y136358D01*
X73149Y137799D01*
X68827Y137799D01*
X78182Y142120D02*
X78182Y133477D01*
X82504Y133477D01*
X83944Y134918D01*
X83944Y140680D01*
X82504Y142120D01*
X78182Y142120D01*
X88978Y133477D02*
X91859Y133477D01*
X93299Y134918D01*
X93299Y137799D01*
X91859Y139239D01*
X88978Y139239D01*
X87537Y137799D01*
X87537Y134918D01*
X88978Y133477D01*
X96892Y133477D02*
X96892Y142120D01*
X102655Y142120D01*
X99774Y137799D02*
X96892Y137799D01*
X115603Y139239D02*
X115603Y133477D01*
X115603Y139239D02*
X118484Y142120D01*
X121365Y139239D01*
X121365Y133477D01*
X121365Y137799D02*
X115603Y137799D01*
X126399Y139239D02*
X130720Y139239D01*
X126399Y139239D02*
X124958Y137799D01*
X124958Y134918D01*
X126399Y133477D01*
X130720Y133477D01*
X135754Y139239D02*
X140075Y139239D01*
X135754Y139239D02*
X134313Y137799D01*
X134313Y134918D01*
X135754Y133477D01*
X140075Y133477D01*
X145109Y133477D02*
X147990Y133477D01*
X145109Y133477D02*
X143668Y134918D01*
X143668Y137799D01*
X145109Y139239D01*
X147990Y139239D01*
X149431Y137799D01*
X149431Y136358D01*
X143668Y136358D01*
X153024Y142120D02*
X154464Y142120D01*
X154464Y133477D01*
X153024Y133477D02*
X155905Y133477D01*
X159260Y133477D02*
X165023Y142120D01*
X172937Y142120D02*
X174378Y140680D01*
X172937Y142120D02*
X170056Y142120D01*
X168616Y140680D01*
X168616Y134918D01*
X170056Y133477D01*
X172937Y133477D01*
X174378Y134918D01*
X174378Y137799D01*
X171497Y137799D01*
X177971Y139239D02*
X177971Y134918D01*
X179411Y133477D01*
X183733Y133477D01*
X183733Y132036D02*
X183733Y139239D01*
X183733Y132036D02*
X182292Y130596D01*
X180852Y130596D01*
X187326Y133477D02*
X187326Y139239D01*
X187326Y136358D02*
X190207Y139239D01*
X191648Y139239D01*
X196562Y133477D02*
X199444Y133477D01*
X200884Y134918D01*
X200884Y137799D01*
X199444Y139239D01*
X196562Y139239D01*
X195122Y137799D01*
X195122Y134918D01*
X196562Y133477D01*
D11*
X10164Y125095D02*
X7198Y125095D01*
X10164Y125095D02*
X11647Y126578D01*
X11647Y129544D01*
X10164Y131027D01*
X7198Y131027D01*
X5715Y129544D01*
X5715Y126578D01*
X7198Y125095D01*
X15070Y125095D02*
X15070Y131027D01*
X19519Y131027D01*
X21002Y129544D01*
X21002Y125095D01*
D12*
X81240Y163576D02*
X81240Y174253D01*
X81240Y163576D02*
X88358Y163576D01*
X98273Y174253D02*
X100052Y172474D01*
X98273Y174253D02*
X94714Y174253D01*
X92934Y172474D01*
X92934Y170694D01*
X94714Y168915D01*
X98273Y168915D01*
X100052Y167135D01*
X100052Y165356D01*
X98273Y163576D01*
X94714Y163576D01*
X92934Y165356D01*
X104628Y163576D02*
X104628Y174253D01*
X108187Y170694D01*
X111746Y174253D01*
X111746Y163576D01*
X119881Y172474D02*
X123440Y174253D01*
X119881Y172474D02*
X116322Y168915D01*
X116322Y165356D01*
X118101Y163576D01*
X121661Y163576D01*
X123440Y165356D01*
X123440Y167135D01*
X121661Y168915D01*
X116322Y168915D01*
X128016Y174253D02*
X128016Y163576D01*
X133354Y163576D01*
X135134Y165356D01*
X135134Y172474D01*
X133354Y174253D01*
X128016Y174253D01*
X145048Y174253D02*
X146828Y172474D01*
X145048Y174253D02*
X141489Y174253D01*
X139710Y172474D01*
X139710Y170694D01*
X141489Y168915D01*
X145048Y168915D01*
X146828Y167135D01*
X146828Y165356D01*
X145048Y163576D01*
X141489Y163576D01*
X139710Y165356D01*
X151404Y172474D02*
X153183Y174253D01*
X156742Y174253D01*
X158522Y172474D01*
X158522Y170694D01*
X156742Y168915D01*
X154963Y168915D01*
X156742Y168915D02*
X158522Y167135D01*
X158522Y165356D01*
X156742Y163576D01*
X153183Y163576D01*
X151404Y165356D01*
X163098Y172474D02*
X164877Y174253D01*
X168436Y174253D01*
X170216Y172474D01*
X170216Y170694D01*
X168436Y168915D01*
X166657Y168915D01*
X168436Y168915D02*
X170216Y167135D01*
X170216Y165356D01*
X168436Y163576D01*
X164877Y163576D01*
X163098Y165356D01*
D13*
X122769Y63265D02*
X122769Y61443D01*
X126413Y57800D01*
X130057Y61443D01*
X130057Y63265D01*
X126413Y57800D02*
X126413Y52334D01*
X160537Y82814D02*
X153249Y93745D01*
X160537Y93745D02*
X153249Y82814D01*
D14*
X154265Y62249D02*
X161044Y62249D01*
X161044Y60554D01*
X154265Y53775D01*
X154265Y52080D01*
X161044Y52080D01*
X168285Y56555D02*
X168282Y56831D01*
X168272Y57107D01*
X168255Y57383D01*
X168232Y57658D01*
X168202Y57933D01*
X168165Y58207D01*
X168122Y58479D01*
X168072Y58751D01*
X168016Y59021D01*
X167953Y59290D01*
X167884Y59558D01*
X167808Y59823D01*
X167726Y60087D01*
X167637Y60349D01*
X167542Y60608D01*
X167441Y60865D01*
X167334Y61120D01*
X167221Y61372D01*
X167101Y61621D01*
X166976Y61867D01*
X166844Y62110D01*
X166707Y62350D01*
X166564Y62586D01*
X166416Y62819D01*
X166262Y63048D01*
X166102Y63273D01*
X165937Y63495D01*
X165767Y63712D01*
X165591Y63926D01*
X165410Y64134D01*
X165225Y64339D01*
X165034Y64539D01*
X164839Y64734D01*
X164639Y64925D01*
X164434Y65110D01*
X164226Y65291D01*
X164012Y65467D01*
X163795Y65637D01*
X163573Y65802D01*
X163348Y65962D01*
X163119Y66116D01*
X162886Y66264D01*
X162650Y66407D01*
X162410Y66544D01*
X162167Y66676D01*
X161921Y66801D01*
X161672Y66921D01*
X161420Y67034D01*
X161165Y67141D01*
X160908Y67242D01*
X160649Y67337D01*
X160387Y67426D01*
X160123Y67508D01*
X159858Y67584D01*
X159590Y67653D01*
X159321Y67716D01*
X159051Y67772D01*
X158779Y67822D01*
X158507Y67865D01*
X158233Y67902D01*
X157958Y67932D01*
X157683Y67955D01*
X157407Y67972D01*
X157131Y67982D01*
X156855Y67985D01*
X168285Y56555D02*
X168282Y56279D01*
X168272Y56003D01*
X168255Y55727D01*
X168232Y55452D01*
X168202Y55177D01*
X168165Y54903D01*
X168122Y54631D01*
X168072Y54359D01*
X168016Y54089D01*
X167953Y53820D01*
X167884Y53552D01*
X167808Y53287D01*
X167726Y53023D01*
X167637Y52761D01*
X167542Y52502D01*
X167441Y52245D01*
X167334Y51990D01*
X167221Y51738D01*
X167101Y51489D01*
X166976Y51243D01*
X166844Y51000D01*
X166707Y50760D01*
X166564Y50524D01*
X166416Y50291D01*
X166262Y50062D01*
X166102Y49837D01*
X165937Y49615D01*
X165767Y49398D01*
X165591Y49184D01*
X165410Y48976D01*
X165225Y48771D01*
X165034Y48571D01*
X164839Y48376D01*
X164639Y48185D01*
X164434Y48000D01*
X164226Y47819D01*
X164012Y47643D01*
X163795Y47473D01*
X163573Y47308D01*
X163348Y47148D01*
X163119Y46994D01*
X162886Y46846D01*
X162650Y46703D01*
X162410Y46566D01*
X162167Y46434D01*
X161921Y46309D01*
X161672Y46189D01*
X161420Y46076D01*
X161165Y45969D01*
X160908Y45868D01*
X160649Y45773D01*
X160387Y45684D01*
X160123Y45602D01*
X159858Y45526D01*
X159590Y45457D01*
X159321Y45394D01*
X159051Y45338D01*
X158779Y45288D01*
X158507Y45245D01*
X158233Y45208D01*
X157958Y45178D01*
X157683Y45155D01*
X157407Y45138D01*
X157131Y45128D01*
X156855Y45125D01*
X156579Y45128D01*
X156303Y45138D01*
X156027Y45155D01*
X155752Y45178D01*
X155477Y45208D01*
X155203Y45245D01*
X154931Y45288D01*
X154659Y45338D01*
X154389Y45394D01*
X154120Y45457D01*
X153852Y45526D01*
X153587Y45602D01*
X153323Y45684D01*
X153061Y45773D01*
X152802Y45868D01*
X152545Y45969D01*
X152290Y46076D01*
X152038Y46189D01*
X151789Y46309D01*
X151543Y46434D01*
X151300Y46566D01*
X151060Y46703D01*
X150824Y46846D01*
X150591Y46994D01*
X150362Y47148D01*
X150137Y47308D01*
X149915Y47473D01*
X149698Y47643D01*
X149484Y47819D01*
X149276Y48000D01*
X149071Y48185D01*
X148871Y48376D01*
X148676Y48571D01*
X148485Y48771D01*
X148300Y48976D01*
X148119Y49184D01*
X147943Y49398D01*
X147773Y49615D01*
X147608Y49837D01*
X147448Y50062D01*
X147294Y50291D01*
X147146Y50524D01*
X147003Y50760D01*
X146866Y51000D01*
X146734Y51243D01*
X146609Y51489D01*
X146489Y51738D01*
X146376Y51990D01*
X146269Y52245D01*
X146168Y52502D01*
X146073Y52761D01*
X145984Y53023D01*
X145902Y53287D01*
X145826Y53552D01*
X145757Y53820D01*
X145694Y54089D01*
X145638Y54359D01*
X145588Y54631D01*
X145545Y54903D01*
X145508Y55177D01*
X145478Y55452D01*
X145455Y55727D01*
X145438Y56003D01*
X145428Y56279D01*
X145425Y56555D01*
X145423Y56828D01*
X145428Y57102D01*
X145440Y57375D01*
X145459Y57647D01*
X145484Y57920D01*
X145516Y58191D01*
X145554Y58462D01*
X145599Y58731D01*
X145650Y59000D01*
X145708Y59267D01*
X145773Y59533D01*
X145844Y59797D01*
X145921Y60059D01*
X146005Y60319D01*
X146095Y60577D01*
X146191Y60833D01*
X146293Y61086D01*
X146402Y61337D01*
X146516Y61586D01*
X146637Y61831D01*
X146763Y62073D01*
X146896Y62312D01*
X147034Y62548D01*
X147178Y62781D01*
X147327Y63009D01*
X147482Y63235D01*
X147643Y63456D01*
X147809Y63673D01*
X147980Y63887D01*
X148156Y64096D01*
X148337Y64300D01*
X148523Y64500D01*
X148714Y64696D01*
X148910Y64887D01*
X149110Y65073D01*
X149314Y65254D01*
X149523Y65430D01*
X149737Y65601D01*
X149954Y65767D01*
X150175Y65928D01*
X150401Y66083D01*
X150629Y66232D01*
X150862Y66376D01*
X151098Y66514D01*
X151337Y66647D01*
X151579Y66773D01*
X151824Y66894D01*
X152073Y67008D01*
X152324Y67117D01*
X152577Y67219D01*
X152833Y67315D01*
X153091Y67405D01*
X153351Y67489D01*
X153613Y67566D01*
X153877Y67637D01*
X154143Y67702D01*
X154410Y67760D01*
X154679Y67811D01*
X154948Y67856D01*
X155219Y67894D01*
X155490Y67926D01*
X155763Y67951D01*
X156035Y67970D01*
X156308Y67982D01*
X156582Y67987D01*
X156855Y67985D01*
D15*
X65278Y54991D02*
X65278Y44831D01*
D10*
X65112Y51863D02*
X64011Y52965D01*
X61808Y52965D01*
X60706Y51863D01*
X60706Y47457D01*
X61808Y46355D01*
X64011Y46355D01*
X65112Y47457D01*
X68190Y46355D02*
X72597Y46355D01*
X72597Y50761D02*
X68190Y46355D01*
X72597Y50761D02*
X72597Y51863D01*
X71495Y52965D01*
X69292Y52965D01*
X68190Y51863D01*
D12*
X60208Y73280D02*
X60208Y89280D01*
X93208Y89280D02*
X93208Y73280D01*
X80708Y91780D02*
X72708Y91780D01*
D10*
X71424Y85096D02*
X71424Y79588D01*
X72525Y78486D01*
X74729Y78486D01*
X75830Y79588D01*
X75830Y85096D01*
X78908Y78486D02*
X83314Y78486D01*
X78908Y78486D02*
X83314Y82892D01*
X83314Y83994D01*
X82213Y85096D01*
X80009Y85096D01*
X78908Y83994D01*
D15*
X63500Y125730D02*
X53340Y125730D01*
D10*
X54690Y123278D02*
X53588Y122177D01*
X53588Y119974D01*
X54690Y118872D01*
X59096Y118872D01*
X60198Y119974D01*
X60198Y122177D01*
X59096Y123278D01*
X54690Y126356D02*
X53588Y127458D01*
X53588Y129661D01*
X54690Y130763D01*
X55792Y130763D01*
X56893Y129661D01*
X56893Y128559D01*
X56893Y129661D02*
X57995Y130763D01*
X59096Y130763D01*
X60198Y129661D01*
X60198Y127458D01*
X59096Y126356D01*
D15*
X96330Y83820D02*
X104330Y83820D01*
D10*
X98378Y82910D02*
X97276Y81809D01*
X97276Y79605D01*
X98378Y78504D01*
X102784Y78504D01*
X103886Y79605D01*
X103886Y81809D01*
X102784Y82910D01*
X99480Y85988D02*
X97276Y88191D01*
X103886Y88191D01*
X103886Y85988D02*
X103886Y90394D01*
D12*
X154990Y96490D02*
X154990Y124490D01*
X192990Y124490D02*
X192990Y96490D01*
D10*
X168164Y107444D02*
X168164Y114054D01*
X171469Y114054D01*
X172570Y112952D01*
X172570Y110749D01*
X171469Y109647D01*
X168164Y109647D01*
X170367Y109647D02*
X172570Y107444D01*
X175648Y112952D02*
X176749Y114054D01*
X178953Y114054D01*
X180054Y112952D01*
X180054Y111850D01*
X178953Y110749D01*
X177851Y110749D01*
X178953Y110749D02*
X180054Y109647D01*
X180054Y108546D01*
X178953Y107444D01*
X176749Y107444D01*
X175648Y108546D01*
D12*
X177872Y47928D02*
X186872Y47928D01*
X186872Y69928D02*
X177872Y69928D01*
X184872Y43928D02*
X184874Y43991D01*
X184880Y44053D01*
X184890Y44115D01*
X184903Y44177D01*
X184921Y44237D01*
X184942Y44296D01*
X184967Y44354D01*
X184996Y44410D01*
X185028Y44464D01*
X185063Y44516D01*
X185101Y44565D01*
X185143Y44613D01*
X185187Y44657D01*
X185235Y44699D01*
X185284Y44737D01*
X185336Y44772D01*
X185390Y44804D01*
X185446Y44833D01*
X185504Y44858D01*
X185563Y44879D01*
X185623Y44897D01*
X185685Y44910D01*
X185747Y44920D01*
X185809Y44926D01*
X185872Y44928D01*
X185935Y44926D01*
X185997Y44920D01*
X186059Y44910D01*
X186121Y44897D01*
X186181Y44879D01*
X186240Y44858D01*
X186298Y44833D01*
X186354Y44804D01*
X186408Y44772D01*
X186460Y44737D01*
X186509Y44699D01*
X186557Y44657D01*
X186601Y44613D01*
X186643Y44565D01*
X186681Y44516D01*
X186716Y44464D01*
X186748Y44410D01*
X186777Y44354D01*
X186802Y44296D01*
X186823Y44237D01*
X186841Y44177D01*
X186854Y44115D01*
X186864Y44053D01*
X186870Y43991D01*
X186872Y43928D01*
X186870Y43865D01*
X186864Y43803D01*
X186854Y43741D01*
X186841Y43679D01*
X186823Y43619D01*
X186802Y43560D01*
X186777Y43502D01*
X186748Y43446D01*
X186716Y43392D01*
X186681Y43340D01*
X186643Y43291D01*
X186601Y43243D01*
X186557Y43199D01*
X186509Y43157D01*
X186460Y43119D01*
X186408Y43084D01*
X186354Y43052D01*
X186298Y43023D01*
X186240Y42998D01*
X186181Y42977D01*
X186121Y42959D01*
X186059Y42946D01*
X185997Y42936D01*
X185935Y42930D01*
X185872Y42928D01*
X185809Y42930D01*
X185747Y42936D01*
X185685Y42946D01*
X185623Y42959D01*
X185563Y42977D01*
X185504Y42998D01*
X185446Y43023D01*
X185390Y43052D01*
X185336Y43084D01*
X185284Y43119D01*
X185235Y43157D01*
X185187Y43199D01*
X185143Y43243D01*
X185101Y43291D01*
X185063Y43340D01*
X185028Y43392D01*
X184996Y43446D01*
X184967Y43502D01*
X184942Y43560D01*
X184921Y43619D01*
X184903Y43679D01*
X184890Y43741D01*
X184880Y43803D01*
X184874Y43865D01*
X184872Y43928D01*
D10*
X185588Y53340D02*
X181182Y53340D01*
X180080Y54442D01*
X180080Y56645D01*
X181182Y57746D01*
X185588Y57746D01*
X186690Y56645D01*
X186690Y54442D01*
X185588Y53340D01*
X184487Y55543D02*
X186690Y57746D01*
X186690Y60824D02*
X186690Y65231D01*
X182284Y65231D02*
X186690Y60824D01*
X182284Y65231D02*
X181182Y65231D01*
X180080Y64129D01*
X180080Y61926D01*
X181182Y60824D01*
D12*
X5400Y152400D02*
X5406Y152891D01*
X5424Y153381D01*
X5454Y153871D01*
X5496Y154360D01*
X5550Y154848D01*
X5616Y155335D01*
X5694Y155819D01*
X5784Y156302D01*
X5886Y156782D01*
X5999Y157260D01*
X6124Y157734D01*
X6261Y158206D01*
X6409Y158674D01*
X6569Y159138D01*
X6740Y159598D01*
X6922Y160054D01*
X7116Y160505D01*
X7320Y160951D01*
X7536Y161392D01*
X7762Y161828D01*
X7998Y162258D01*
X8245Y162682D01*
X8503Y163100D01*
X8771Y163511D01*
X9048Y163916D01*
X9336Y164314D01*
X9633Y164705D01*
X9940Y165088D01*
X10256Y165463D01*
X10581Y165831D01*
X10915Y166191D01*
X11258Y166542D01*
X11609Y166885D01*
X11969Y167219D01*
X12337Y167544D01*
X12712Y167860D01*
X13095Y168167D01*
X13486Y168464D01*
X13884Y168752D01*
X14289Y169029D01*
X14700Y169297D01*
X15118Y169555D01*
X15542Y169802D01*
X15972Y170038D01*
X16408Y170264D01*
X16849Y170480D01*
X17295Y170684D01*
X17746Y170878D01*
X18202Y171060D01*
X18662Y171231D01*
X19126Y171391D01*
X19594Y171539D01*
X20066Y171676D01*
X20540Y171801D01*
X21018Y171914D01*
X21498Y172016D01*
X21981Y172106D01*
X22465Y172184D01*
X22952Y172250D01*
X23440Y172304D01*
X23929Y172346D01*
X24419Y172376D01*
X24909Y172394D01*
X25400Y172400D01*
X25891Y172394D01*
X26381Y172376D01*
X26871Y172346D01*
X27360Y172304D01*
X27848Y172250D01*
X28335Y172184D01*
X28819Y172106D01*
X29302Y172016D01*
X29782Y171914D01*
X30260Y171801D01*
X30734Y171676D01*
X31206Y171539D01*
X31674Y171391D01*
X32138Y171231D01*
X32598Y171060D01*
X33054Y170878D01*
X33505Y170684D01*
X33951Y170480D01*
X34392Y170264D01*
X34828Y170038D01*
X35258Y169802D01*
X35682Y169555D01*
X36100Y169297D01*
X36511Y169029D01*
X36916Y168752D01*
X37314Y168464D01*
X37705Y168167D01*
X38088Y167860D01*
X38463Y167544D01*
X38831Y167219D01*
X39191Y166885D01*
X39542Y166542D01*
X39885Y166191D01*
X40219Y165831D01*
X40544Y165463D01*
X40860Y165088D01*
X41167Y164705D01*
X41464Y164314D01*
X41752Y163916D01*
X42029Y163511D01*
X42297Y163100D01*
X42555Y162682D01*
X42802Y162258D01*
X43038Y161828D01*
X43264Y161392D01*
X43480Y160951D01*
X43684Y160505D01*
X43878Y160054D01*
X44060Y159598D01*
X44231Y159138D01*
X44391Y158674D01*
X44539Y158206D01*
X44676Y157734D01*
X44801Y157260D01*
X44914Y156782D01*
X45016Y156302D01*
X45106Y155819D01*
X45184Y155335D01*
X45250Y154848D01*
X45304Y154360D01*
X45346Y153871D01*
X45376Y153381D01*
X45394Y152891D01*
X45400Y152400D01*
X45394Y151909D01*
X45376Y151419D01*
X45346Y150929D01*
X45304Y150440D01*
X45250Y149952D01*
X45184Y149465D01*
X45106Y148981D01*
X45016Y148498D01*
X44914Y148018D01*
X44801Y147540D01*
X44676Y147066D01*
X44539Y146594D01*
X44391Y146126D01*
X44231Y145662D01*
X44060Y145202D01*
X43878Y144746D01*
X43684Y144295D01*
X43480Y143849D01*
X43264Y143408D01*
X43038Y142972D01*
X42802Y142542D01*
X42555Y142118D01*
X42297Y141700D01*
X42029Y141289D01*
X41752Y140884D01*
X41464Y140486D01*
X41167Y140095D01*
X40860Y139712D01*
X40544Y139337D01*
X40219Y138969D01*
X39885Y138609D01*
X39542Y138258D01*
X39191Y137915D01*
X38831Y137581D01*
X38463Y137256D01*
X38088Y136940D01*
X37705Y136633D01*
X37314Y136336D01*
X36916Y136048D01*
X36511Y135771D01*
X36100Y135503D01*
X35682Y135245D01*
X35258Y134998D01*
X34828Y134762D01*
X34392Y134536D01*
X33951Y134320D01*
X33505Y134116D01*
X33054Y133922D01*
X32598Y133740D01*
X32138Y133569D01*
X31674Y133409D01*
X31206Y133261D01*
X30734Y133124D01*
X30260Y132999D01*
X29782Y132886D01*
X29302Y132784D01*
X28819Y132694D01*
X28335Y132616D01*
X27848Y132550D01*
X27360Y132496D01*
X26871Y132454D01*
X26381Y132424D01*
X25891Y132406D01*
X25400Y132400D01*
X24909Y132406D01*
X24419Y132424D01*
X23929Y132454D01*
X23440Y132496D01*
X22952Y132550D01*
X22465Y132616D01*
X21981Y132694D01*
X21498Y132784D01*
X21018Y132886D01*
X20540Y132999D01*
X20066Y133124D01*
X19594Y133261D01*
X19126Y133409D01*
X18662Y133569D01*
X18202Y133740D01*
X17746Y133922D01*
X17295Y134116D01*
X16849Y134320D01*
X16408Y134536D01*
X15972Y134762D01*
X15542Y134998D01*
X15118Y135245D01*
X14700Y135503D01*
X14289Y135771D01*
X13884Y136048D01*
X13486Y136336D01*
X13095Y136633D01*
X12712Y136940D01*
X12337Y137256D01*
X11969Y137581D01*
X11609Y137915D01*
X11258Y138258D01*
X10915Y138609D01*
X10581Y138969D01*
X10256Y139337D01*
X9940Y139712D01*
X9633Y140095D01*
X9336Y140486D01*
X9048Y140884D01*
X8771Y141289D01*
X8503Y141700D01*
X8245Y142118D01*
X7998Y142542D01*
X7762Y142972D01*
X7536Y143408D01*
X7320Y143849D01*
X7116Y144295D01*
X6922Y144746D01*
X6740Y145202D01*
X6569Y145662D01*
X6409Y146126D01*
X6261Y146594D01*
X6124Y147066D01*
X5999Y147540D01*
X5886Y148018D01*
X5784Y148498D01*
X5694Y148981D01*
X5616Y149465D01*
X5550Y149952D01*
X5496Y150440D01*
X5454Y150929D01*
X5424Y151419D01*
X5406Y151909D01*
X5400Y152400D01*
X208600Y152400D02*
X208606Y152891D01*
X208624Y153381D01*
X208654Y153871D01*
X208696Y154360D01*
X208750Y154848D01*
X208816Y155335D01*
X208894Y155819D01*
X208984Y156302D01*
X209086Y156782D01*
X209199Y157260D01*
X209324Y157734D01*
X209461Y158206D01*
X209609Y158674D01*
X209769Y159138D01*
X209940Y159598D01*
X210122Y160054D01*
X210316Y160505D01*
X210520Y160951D01*
X210736Y161392D01*
X210962Y161828D01*
X211198Y162258D01*
X211445Y162682D01*
X211703Y163100D01*
X211971Y163511D01*
X212248Y163916D01*
X212536Y164314D01*
X212833Y164705D01*
X213140Y165088D01*
X213456Y165463D01*
X213781Y165831D01*
X214115Y166191D01*
X214458Y166542D01*
X214809Y166885D01*
X215169Y167219D01*
X215537Y167544D01*
X215912Y167860D01*
X216295Y168167D01*
X216686Y168464D01*
X217084Y168752D01*
X217489Y169029D01*
X217900Y169297D01*
X218318Y169555D01*
X218742Y169802D01*
X219172Y170038D01*
X219608Y170264D01*
X220049Y170480D01*
X220495Y170684D01*
X220946Y170878D01*
X221402Y171060D01*
X221862Y171231D01*
X222326Y171391D01*
X222794Y171539D01*
X223266Y171676D01*
X223740Y171801D01*
X224218Y171914D01*
X224698Y172016D01*
X225181Y172106D01*
X225665Y172184D01*
X226152Y172250D01*
X226640Y172304D01*
X227129Y172346D01*
X227619Y172376D01*
X228109Y172394D01*
X228600Y172400D01*
X229091Y172394D01*
X229581Y172376D01*
X230071Y172346D01*
X230560Y172304D01*
X231048Y172250D01*
X231535Y172184D01*
X232019Y172106D01*
X232502Y172016D01*
X232982Y171914D01*
X233460Y171801D01*
X233934Y171676D01*
X234406Y171539D01*
X234874Y171391D01*
X235338Y171231D01*
X235798Y171060D01*
X236254Y170878D01*
X236705Y170684D01*
X237151Y170480D01*
X237592Y170264D01*
X238028Y170038D01*
X238458Y169802D01*
X238882Y169555D01*
X239300Y169297D01*
X239711Y169029D01*
X240116Y168752D01*
X240514Y168464D01*
X240905Y168167D01*
X241288Y167860D01*
X241663Y167544D01*
X242031Y167219D01*
X242391Y166885D01*
X242742Y166542D01*
X243085Y166191D01*
X243419Y165831D01*
X243744Y165463D01*
X244060Y165088D01*
X244367Y164705D01*
X244664Y164314D01*
X244952Y163916D01*
X245229Y163511D01*
X245497Y163100D01*
X245755Y162682D01*
X246002Y162258D01*
X246238Y161828D01*
X246464Y161392D01*
X246680Y160951D01*
X246884Y160505D01*
X247078Y160054D01*
X247260Y159598D01*
X247431Y159138D01*
X247591Y158674D01*
X247739Y158206D01*
X247876Y157734D01*
X248001Y157260D01*
X248114Y156782D01*
X248216Y156302D01*
X248306Y155819D01*
X248384Y155335D01*
X248450Y154848D01*
X248504Y154360D01*
X248546Y153871D01*
X248576Y153381D01*
X248594Y152891D01*
X248600Y152400D01*
X248594Y151909D01*
X248576Y151419D01*
X248546Y150929D01*
X248504Y150440D01*
X248450Y149952D01*
X248384Y149465D01*
X248306Y148981D01*
X248216Y148498D01*
X248114Y148018D01*
X248001Y147540D01*
X247876Y147066D01*
X247739Y146594D01*
X247591Y146126D01*
X247431Y145662D01*
X247260Y145202D01*
X247078Y144746D01*
X246884Y144295D01*
X246680Y143849D01*
X246464Y143408D01*
X246238Y142972D01*
X246002Y142542D01*
X245755Y142118D01*
X245497Y141700D01*
X245229Y141289D01*
X244952Y140884D01*
X244664Y140486D01*
X244367Y140095D01*
X244060Y139712D01*
X243744Y139337D01*
X243419Y138969D01*
X243085Y138609D01*
X242742Y138258D01*
X242391Y137915D01*
X242031Y137581D01*
X241663Y137256D01*
X241288Y136940D01*
X240905Y136633D01*
X240514Y136336D01*
X240116Y136048D01*
X239711Y135771D01*
X239300Y135503D01*
X238882Y135245D01*
X238458Y134998D01*
X238028Y134762D01*
X237592Y134536D01*
X237151Y134320D01*
X236705Y134116D01*
X236254Y133922D01*
X235798Y133740D01*
X235338Y133569D01*
X234874Y133409D01*
X234406Y133261D01*
X233934Y133124D01*
X233460Y132999D01*
X232982Y132886D01*
X232502Y132784D01*
X232019Y132694D01*
X231535Y132616D01*
X231048Y132550D01*
X230560Y132496D01*
X230071Y132454D01*
X229581Y132424D01*
X229091Y132406D01*
X228600Y132400D01*
X228109Y132406D01*
X227619Y132424D01*
X227129Y132454D01*
X226640Y132496D01*
X226152Y132550D01*
X225665Y132616D01*
X225181Y132694D01*
X224698Y132784D01*
X224218Y132886D01*
X223740Y132999D01*
X223266Y133124D01*
X222794Y133261D01*
X222326Y133409D01*
X221862Y133569D01*
X221402Y133740D01*
X220946Y133922D01*
X220495Y134116D01*
X220049Y134320D01*
X219608Y134536D01*
X219172Y134762D01*
X218742Y134998D01*
X218318Y135245D01*
X217900Y135503D01*
X217489Y135771D01*
X217084Y136048D01*
X216686Y136336D01*
X216295Y136633D01*
X215912Y136940D01*
X215537Y137256D01*
X215169Y137581D01*
X214809Y137915D01*
X214458Y138258D01*
X214115Y138609D01*
X213781Y138969D01*
X213456Y139337D01*
X213140Y139712D01*
X212833Y140095D01*
X212536Y140486D01*
X212248Y140884D01*
X211971Y141289D01*
X211703Y141700D01*
X211445Y142118D01*
X211198Y142542D01*
X210962Y142972D01*
X210736Y143408D01*
X210520Y143849D01*
X210316Y144295D01*
X210122Y144746D01*
X209940Y145202D01*
X209769Y145662D01*
X209609Y146126D01*
X209461Y146594D01*
X209324Y147066D01*
X209199Y147540D01*
X209086Y148018D01*
X208984Y148498D01*
X208894Y148981D01*
X208816Y149465D01*
X208750Y149952D01*
X208696Y150440D01*
X208654Y150929D01*
X208624Y151419D01*
X208606Y151909D01*
X208600Y152400D01*
D10*
X206460Y58900D02*
X232460Y58900D01*
X206460Y58900D02*
X206460Y69900D01*
X206460Y107900D02*
X206460Y119900D01*
X232460Y119900D01*
X249460Y109900D02*
X249460Y67900D01*
X222590Y62129D02*
X219878Y59417D01*
X219878Y53994D01*
X222590Y51282D01*
X233436Y51282D01*
X236148Y53994D01*
X236148Y59417D01*
X233436Y62129D01*
X219878Y70365D02*
X219878Y75789D01*
X219878Y70365D02*
X222590Y67654D01*
X233436Y67654D01*
X236148Y70365D01*
X236148Y75789D01*
X233436Y78500D01*
X222590Y78500D01*
X219878Y75789D01*
X219878Y84025D02*
X236148Y84025D01*
X236148Y94872D02*
X219878Y84025D01*
X219878Y94872D02*
X236148Y94872D01*
X236148Y100397D02*
X219878Y100397D01*
X236148Y111243D01*
X219878Y111243D01*
X222590Y116768D02*
X219878Y119480D01*
X219878Y124903D01*
X222590Y127615D01*
X225301Y127615D01*
X228013Y124903D01*
X228013Y122192D01*
X228013Y124903D02*
X230725Y127615D01*
X233436Y127615D01*
X236148Y124903D01*
X236148Y119480D01*
X233436Y116768D01*
X47540Y118900D02*
X21540Y118900D01*
X47540Y118900D02*
X47540Y107900D01*
X47540Y69900D02*
X47540Y57900D01*
X21540Y57900D01*
X4540Y67900D02*
X4540Y109900D01*
X18010Y58301D02*
X15298Y55589D01*
X15298Y50166D01*
X18010Y47454D01*
X28856Y47454D01*
X31568Y50166D01*
X31568Y55589D01*
X28856Y58301D01*
X15298Y66537D02*
X15298Y71961D01*
X15298Y66537D02*
X18010Y63826D01*
X28856Y63826D01*
X31568Y66537D01*
X31568Y71961D01*
X28856Y74672D01*
X18010Y74672D01*
X15298Y71961D01*
X15298Y80197D02*
X31568Y80197D01*
X31568Y91044D02*
X15298Y80197D01*
X15298Y91044D02*
X31568Y91044D01*
X31568Y96569D02*
X15298Y96569D01*
X31568Y107415D01*
X15298Y107415D01*
X15298Y121075D02*
X31568Y121075D01*
X23433Y112940D02*
X15298Y121075D01*
X23433Y123787D02*
X23433Y112940D01*
D12*
X5400Y25400D02*
X5406Y25891D01*
X5424Y26381D01*
X5454Y26871D01*
X5496Y27360D01*
X5550Y27848D01*
X5616Y28335D01*
X5694Y28819D01*
X5784Y29302D01*
X5886Y29782D01*
X5999Y30260D01*
X6124Y30734D01*
X6261Y31206D01*
X6409Y31674D01*
X6569Y32138D01*
X6740Y32598D01*
X6922Y33054D01*
X7116Y33505D01*
X7320Y33951D01*
X7536Y34392D01*
X7762Y34828D01*
X7998Y35258D01*
X8245Y35682D01*
X8503Y36100D01*
X8771Y36511D01*
X9048Y36916D01*
X9336Y37314D01*
X9633Y37705D01*
X9940Y38088D01*
X10256Y38463D01*
X10581Y38831D01*
X10915Y39191D01*
X11258Y39542D01*
X11609Y39885D01*
X11969Y40219D01*
X12337Y40544D01*
X12712Y40860D01*
X13095Y41167D01*
X13486Y41464D01*
X13884Y41752D01*
X14289Y42029D01*
X14700Y42297D01*
X15118Y42555D01*
X15542Y42802D01*
X15972Y43038D01*
X16408Y43264D01*
X16849Y43480D01*
X17295Y43684D01*
X17746Y43878D01*
X18202Y44060D01*
X18662Y44231D01*
X19126Y44391D01*
X19594Y44539D01*
X20066Y44676D01*
X20540Y44801D01*
X21018Y44914D01*
X21498Y45016D01*
X21981Y45106D01*
X22465Y45184D01*
X22952Y45250D01*
X23440Y45304D01*
X23929Y45346D01*
X24419Y45376D01*
X24909Y45394D01*
X25400Y45400D01*
X25891Y45394D01*
X26381Y45376D01*
X26871Y45346D01*
X27360Y45304D01*
X27848Y45250D01*
X28335Y45184D01*
X28819Y45106D01*
X29302Y45016D01*
X29782Y44914D01*
X30260Y44801D01*
X30734Y44676D01*
X31206Y44539D01*
X31674Y44391D01*
X32138Y44231D01*
X32598Y44060D01*
X33054Y43878D01*
X33505Y43684D01*
X33951Y43480D01*
X34392Y43264D01*
X34828Y43038D01*
X35258Y42802D01*
X35682Y42555D01*
X36100Y42297D01*
X36511Y42029D01*
X36916Y41752D01*
X37314Y41464D01*
X37705Y41167D01*
X38088Y40860D01*
X38463Y40544D01*
X38831Y40219D01*
X39191Y39885D01*
X39542Y39542D01*
X39885Y39191D01*
X40219Y38831D01*
X40544Y38463D01*
X40860Y38088D01*
X41167Y37705D01*
X41464Y37314D01*
X41752Y36916D01*
X42029Y36511D01*
X42297Y36100D01*
X42555Y35682D01*
X42802Y35258D01*
X43038Y34828D01*
X43264Y34392D01*
X43480Y33951D01*
X43684Y33505D01*
X43878Y33054D01*
X44060Y32598D01*
X44231Y32138D01*
X44391Y31674D01*
X44539Y31206D01*
X44676Y30734D01*
X44801Y30260D01*
X44914Y29782D01*
X45016Y29302D01*
X45106Y28819D01*
X45184Y28335D01*
X45250Y27848D01*
X45304Y27360D01*
X45346Y26871D01*
X45376Y26381D01*
X45394Y25891D01*
X45400Y25400D01*
X45394Y24909D01*
X45376Y24419D01*
X45346Y23929D01*
X45304Y23440D01*
X45250Y22952D01*
X45184Y22465D01*
X45106Y21981D01*
X45016Y21498D01*
X44914Y21018D01*
X44801Y20540D01*
X44676Y20066D01*
X44539Y19594D01*
X44391Y19126D01*
X44231Y18662D01*
X44060Y18202D01*
X43878Y17746D01*
X43684Y17295D01*
X43480Y16849D01*
X43264Y16408D01*
X43038Y15972D01*
X42802Y15542D01*
X42555Y15118D01*
X42297Y14700D01*
X42029Y14289D01*
X41752Y13884D01*
X41464Y13486D01*
X41167Y13095D01*
X40860Y12712D01*
X40544Y12337D01*
X40219Y11969D01*
X39885Y11609D01*
X39542Y11258D01*
X39191Y10915D01*
X38831Y10581D01*
X38463Y10256D01*
X38088Y9940D01*
X37705Y9633D01*
X37314Y9336D01*
X36916Y9048D01*
X36511Y8771D01*
X36100Y8503D01*
X35682Y8245D01*
X35258Y7998D01*
X34828Y7762D01*
X34392Y7536D01*
X33951Y7320D01*
X33505Y7116D01*
X33054Y6922D01*
X32598Y6740D01*
X32138Y6569D01*
X31674Y6409D01*
X31206Y6261D01*
X30734Y6124D01*
X30260Y5999D01*
X29782Y5886D01*
X29302Y5784D01*
X28819Y5694D01*
X28335Y5616D01*
X27848Y5550D01*
X27360Y5496D01*
X26871Y5454D01*
X26381Y5424D01*
X25891Y5406D01*
X25400Y5400D01*
X24909Y5406D01*
X24419Y5424D01*
X23929Y5454D01*
X23440Y5496D01*
X22952Y5550D01*
X22465Y5616D01*
X21981Y5694D01*
X21498Y5784D01*
X21018Y5886D01*
X20540Y5999D01*
X20066Y6124D01*
X19594Y6261D01*
X19126Y6409D01*
X18662Y6569D01*
X18202Y6740D01*
X17746Y6922D01*
X17295Y7116D01*
X16849Y7320D01*
X16408Y7536D01*
X15972Y7762D01*
X15542Y7998D01*
X15118Y8245D01*
X14700Y8503D01*
X14289Y8771D01*
X13884Y9048D01*
X13486Y9336D01*
X13095Y9633D01*
X12712Y9940D01*
X12337Y10256D01*
X11969Y10581D01*
X11609Y10915D01*
X11258Y11258D01*
X10915Y11609D01*
X10581Y11969D01*
X10256Y12337D01*
X9940Y12712D01*
X9633Y13095D01*
X9336Y13486D01*
X9048Y13884D01*
X8771Y14289D01*
X8503Y14700D01*
X8245Y15118D01*
X7998Y15542D01*
X7762Y15972D01*
X7536Y16408D01*
X7320Y16849D01*
X7116Y17295D01*
X6922Y17746D01*
X6740Y18202D01*
X6569Y18662D01*
X6409Y19126D01*
X6261Y19594D01*
X6124Y20066D01*
X5999Y20540D01*
X5886Y21018D01*
X5784Y21498D01*
X5694Y21981D01*
X5616Y22465D01*
X5550Y22952D01*
X5496Y23440D01*
X5454Y23929D01*
X5424Y24419D01*
X5406Y24909D01*
X5400Y25400D01*
X208600Y25400D02*
X208606Y25891D01*
X208624Y26381D01*
X208654Y26871D01*
X208696Y27360D01*
X208750Y27848D01*
X208816Y28335D01*
X208894Y28819D01*
X208984Y29302D01*
X209086Y29782D01*
X209199Y30260D01*
X209324Y30734D01*
X209461Y31206D01*
X209609Y31674D01*
X209769Y32138D01*
X209940Y32598D01*
X210122Y33054D01*
X210316Y33505D01*
X210520Y33951D01*
X210736Y34392D01*
X210962Y34828D01*
X211198Y35258D01*
X211445Y35682D01*
X211703Y36100D01*
X211971Y36511D01*
X212248Y36916D01*
X212536Y37314D01*
X212833Y37705D01*
X213140Y38088D01*
X213456Y38463D01*
X213781Y38831D01*
X214115Y39191D01*
X214458Y39542D01*
X214809Y39885D01*
X215169Y40219D01*
X215537Y40544D01*
X215912Y40860D01*
X216295Y41167D01*
X216686Y41464D01*
X217084Y41752D01*
X217489Y42029D01*
X217900Y42297D01*
X218318Y42555D01*
X218742Y42802D01*
X219172Y43038D01*
X219608Y43264D01*
X220049Y43480D01*
X220495Y43684D01*
X220946Y43878D01*
X221402Y44060D01*
X221862Y44231D01*
X222326Y44391D01*
X222794Y44539D01*
X223266Y44676D01*
X223740Y44801D01*
X224218Y44914D01*
X224698Y45016D01*
X225181Y45106D01*
X225665Y45184D01*
X226152Y45250D01*
X226640Y45304D01*
X227129Y45346D01*
X227619Y45376D01*
X228109Y45394D01*
X228600Y45400D01*
X229091Y45394D01*
X229581Y45376D01*
X230071Y45346D01*
X230560Y45304D01*
X231048Y45250D01*
X231535Y45184D01*
X232019Y45106D01*
X232502Y45016D01*
X232982Y44914D01*
X233460Y44801D01*
X233934Y44676D01*
X234406Y44539D01*
X234874Y44391D01*
X235338Y44231D01*
X235798Y44060D01*
X236254Y43878D01*
X236705Y43684D01*
X237151Y43480D01*
X237592Y43264D01*
X238028Y43038D01*
X238458Y42802D01*
X238882Y42555D01*
X239300Y42297D01*
X239711Y42029D01*
X240116Y41752D01*
X240514Y41464D01*
X240905Y41167D01*
X241288Y40860D01*
X241663Y40544D01*
X242031Y40219D01*
X242391Y39885D01*
X242742Y39542D01*
X243085Y39191D01*
X243419Y38831D01*
X243744Y38463D01*
X244060Y38088D01*
X244367Y37705D01*
X244664Y37314D01*
X244952Y36916D01*
X245229Y36511D01*
X245497Y36100D01*
X245755Y35682D01*
X246002Y35258D01*
X246238Y34828D01*
X246464Y34392D01*
X246680Y33951D01*
X246884Y33505D01*
X247078Y33054D01*
X247260Y32598D01*
X247431Y32138D01*
X247591Y31674D01*
X247739Y31206D01*
X247876Y30734D01*
X248001Y30260D01*
X248114Y29782D01*
X248216Y29302D01*
X248306Y28819D01*
X248384Y28335D01*
X248450Y27848D01*
X248504Y27360D01*
X248546Y26871D01*
X248576Y26381D01*
X248594Y25891D01*
X248600Y25400D01*
X248594Y24909D01*
X248576Y24419D01*
X248546Y23929D01*
X248504Y23440D01*
X248450Y22952D01*
X248384Y22465D01*
X248306Y21981D01*
X248216Y21498D01*
X248114Y21018D01*
X248001Y20540D01*
X247876Y20066D01*
X247739Y19594D01*
X247591Y19126D01*
X247431Y18662D01*
X247260Y18202D01*
X247078Y17746D01*
X246884Y17295D01*
X246680Y16849D01*
X246464Y16408D01*
X246238Y15972D01*
X246002Y15542D01*
X245755Y15118D01*
X245497Y14700D01*
X245229Y14289D01*
X244952Y13884D01*
X244664Y13486D01*
X244367Y13095D01*
X244060Y12712D01*
X243744Y12337D01*
X243419Y11969D01*
X243085Y11609D01*
X242742Y11258D01*
X242391Y10915D01*
X242031Y10581D01*
X241663Y10256D01*
X241288Y9940D01*
X240905Y9633D01*
X240514Y9336D01*
X240116Y9048D01*
X239711Y8771D01*
X239300Y8503D01*
X238882Y8245D01*
X238458Y7998D01*
X238028Y7762D01*
X237592Y7536D01*
X237151Y7320D01*
X236705Y7116D01*
X236254Y6922D01*
X235798Y6740D01*
X235338Y6569D01*
X234874Y6409D01*
X234406Y6261D01*
X233934Y6124D01*
X233460Y5999D01*
X232982Y5886D01*
X232502Y5784D01*
X232019Y5694D01*
X231535Y5616D01*
X231048Y5550D01*
X230560Y5496D01*
X230071Y5454D01*
X229581Y5424D01*
X229091Y5406D01*
X228600Y5400D01*
X228109Y5406D01*
X227619Y5424D01*
X227129Y5454D01*
X226640Y5496D01*
X226152Y5550D01*
X225665Y5616D01*
X225181Y5694D01*
X224698Y5784D01*
X224218Y5886D01*
X223740Y5999D01*
X223266Y6124D01*
X222794Y6261D01*
X222326Y6409D01*
X221862Y6569D01*
X221402Y6740D01*
X220946Y6922D01*
X220495Y7116D01*
X220049Y7320D01*
X219608Y7536D01*
X219172Y7762D01*
X218742Y7998D01*
X218318Y8245D01*
X217900Y8503D01*
X217489Y8771D01*
X217084Y9048D01*
X216686Y9336D01*
X216295Y9633D01*
X215912Y9940D01*
X215537Y10256D01*
X215169Y10581D01*
X214809Y10915D01*
X214458Y11258D01*
X214115Y11609D01*
X213781Y11969D01*
X213456Y12337D01*
X213140Y12712D01*
X212833Y13095D01*
X212536Y13486D01*
X212248Y13884D01*
X211971Y14289D01*
X211703Y14700D01*
X211445Y15118D01*
X211198Y15542D01*
X210962Y15972D01*
X210736Y16408D01*
X210520Y16849D01*
X210316Y17295D01*
X210122Y17746D01*
X209940Y18202D01*
X209769Y18662D01*
X209609Y19126D01*
X209461Y19594D01*
X209324Y20066D01*
X209199Y20540D01*
X209086Y21018D01*
X208984Y21498D01*
X208894Y21981D01*
X208816Y22465D01*
X208750Y22952D01*
X208696Y23440D01*
X208654Y23929D01*
X208624Y24419D01*
X208606Y24909D01*
X208600Y25400D01*
D16*
X33528Y125730D03*
D10*
X30244Y123444D02*
X30244Y130054D01*
X30244Y123444D02*
X33549Y123444D01*
X34650Y124546D01*
X34650Y128952D01*
X33549Y130054D01*
X30244Y130054D01*
X37728Y127850D02*
X39931Y130054D01*
X39931Y123444D01*
X37728Y123444D02*
X42134Y123444D01*
D12*
X119540Y125745D02*
X139540Y125745D01*
X139540Y111745D02*
X119540Y111745D01*
X127040Y118745D02*
X133040Y122745D01*
X133040Y114745D01*
X127040Y118745D01*
D17*
X126040Y118745D03*
D10*
X121842Y115537D02*
X121842Y122147D01*
X121842Y115537D02*
X125147Y115537D01*
X126248Y116639D01*
X126248Y121045D01*
X125147Y122147D01*
X121842Y122147D01*
X129326Y115537D02*
X133733Y115537D01*
X133733Y119943D02*
X129326Y115537D01*
X133733Y119943D02*
X133733Y121045D01*
X132631Y122147D01*
X130428Y122147D01*
X129326Y121045D01*
X51902Y44450D02*
X50800Y45552D01*
X51902Y44450D02*
X53003Y44450D01*
X54105Y45552D01*
X54105Y51060D01*
X55206Y51060D02*
X53003Y51060D01*
X58284Y51060D02*
X58284Y44450D01*
X58284Y51060D02*
X61589Y51060D01*
X62691Y49958D01*
X62691Y47755D01*
X61589Y46653D01*
X58284Y46653D01*
X69073Y44450D02*
X69073Y51060D01*
X65768Y47755D01*
X70175Y47755D01*
X77302Y171450D02*
X76200Y172552D01*
X77302Y171450D02*
X78403Y171450D01*
X79505Y172552D01*
X79505Y178060D01*
X80606Y178060D02*
X78403Y178060D01*
X83684Y178060D02*
X83684Y171450D01*
X83684Y178060D02*
X86989Y178060D01*
X88091Y176958D01*
X88091Y174755D01*
X86989Y173653D01*
X83684Y173653D01*
X91168Y175856D02*
X93372Y178060D01*
X93372Y171450D01*
X95575Y171450D02*
X91168Y171450D01*
D12*
X136000Y71900D02*
X144000Y71900D01*
X144000Y75400D01*
X144000Y105900D02*
X136000Y105900D01*
X144000Y105900D02*
X144000Y102400D01*
X110000Y102400D02*
X110000Y105900D01*
X118000Y105900D01*
X118000Y71900D02*
X110000Y71900D01*
X110000Y75400D01*
D18*
X148500Y73400D02*
X148502Y73463D01*
X148508Y73525D01*
X148518Y73587D01*
X148531Y73649D01*
X148549Y73709D01*
X148570Y73768D01*
X148595Y73826D01*
X148624Y73882D01*
X148656Y73936D01*
X148691Y73988D01*
X148729Y74037D01*
X148771Y74085D01*
X148815Y74129D01*
X148863Y74171D01*
X148912Y74209D01*
X148964Y74244D01*
X149018Y74276D01*
X149074Y74305D01*
X149132Y74330D01*
X149191Y74351D01*
X149251Y74369D01*
X149313Y74382D01*
X149375Y74392D01*
X149437Y74398D01*
X149500Y74400D01*
X149563Y74398D01*
X149625Y74392D01*
X149687Y74382D01*
X149749Y74369D01*
X149809Y74351D01*
X149868Y74330D01*
X149926Y74305D01*
X149982Y74276D01*
X150036Y74244D01*
X150088Y74209D01*
X150137Y74171D01*
X150185Y74129D01*
X150229Y74085D01*
X150271Y74037D01*
X150309Y73988D01*
X150344Y73936D01*
X150376Y73882D01*
X150405Y73826D01*
X150430Y73768D01*
X150451Y73709D01*
X150469Y73649D01*
X150482Y73587D01*
X150492Y73525D01*
X150498Y73463D01*
X150500Y73400D01*
X150498Y73337D01*
X150492Y73275D01*
X150482Y73213D01*
X150469Y73151D01*
X150451Y73091D01*
X150430Y73032D01*
X150405Y72974D01*
X150376Y72918D01*
X150344Y72864D01*
X150309Y72812D01*
X150271Y72763D01*
X150229Y72715D01*
X150185Y72671D01*
X150137Y72629D01*
X150088Y72591D01*
X150036Y72556D01*
X149982Y72524D01*
X149926Y72495D01*
X149868Y72470D01*
X149809Y72449D01*
X149749Y72431D01*
X149687Y72418D01*
X149625Y72408D01*
X149563Y72402D01*
X149500Y72400D01*
X149437Y72402D01*
X149375Y72408D01*
X149313Y72418D01*
X149251Y72431D01*
X149191Y72449D01*
X149132Y72470D01*
X149074Y72495D01*
X149018Y72524D01*
X148964Y72556D01*
X148912Y72591D01*
X148863Y72629D01*
X148815Y72671D01*
X148771Y72715D01*
X148729Y72763D01*
X148691Y72812D01*
X148656Y72864D01*
X148624Y72918D01*
X148595Y72974D01*
X148570Y73032D01*
X148549Y73091D01*
X148531Y73151D01*
X148518Y73213D01*
X148508Y73275D01*
X148502Y73337D01*
X148500Y73400D01*
D10*
X127007Y60534D02*
X124804Y60534D01*
X125906Y60534D02*
X125906Y67144D01*
X127007Y67144D02*
X124804Y67144D01*
X133099Y67144D02*
X134200Y66042D01*
X133099Y67144D02*
X130895Y67144D01*
X129794Y66042D01*
X129794Y61636D01*
X130895Y60534D01*
X133099Y60534D01*
X134200Y61636D01*
X137278Y60534D02*
X141684Y60534D01*
X137278Y60534D02*
X141684Y64940D01*
X141684Y66042D01*
X140583Y67144D01*
X138379Y67144D01*
X137278Y66042D01*
D12*
X106630Y102840D02*
X106630Y130840D01*
X68630Y130840D02*
X68630Y102840D01*
D10*
X72392Y133602D02*
X72392Y140212D01*
X75697Y140212D01*
X76798Y139110D01*
X76798Y136907D01*
X75697Y135805D01*
X72392Y135805D01*
X74595Y135805D02*
X76798Y133602D01*
X79876Y133602D02*
X84283Y133602D01*
X84283Y138008D02*
X79876Y133602D01*
X84283Y138008D02*
X84283Y139110D01*
X83181Y140212D01*
X80978Y140212D01*
X79876Y139110D01*
D19*
X69139Y150495D03*
D20*
X69139Y150533D03*
D21*
X69120Y150571D03*
D22*
X69120Y150609D03*
D23*
X69139Y150647D03*
D24*
X69120Y150686D03*
D25*
X69120Y150724D03*
D26*
X69120Y150762D03*
D27*
X69120Y150800D03*
D28*
X69082Y150838D03*
D29*
X69082Y150876D03*
D30*
X69063Y150914D03*
D31*
X69044Y150952D03*
D32*
X69044Y150990D03*
D33*
X69006Y151028D03*
D34*
X68987Y151067D03*
D35*
X68987Y151105D03*
D36*
X68949Y151143D03*
D37*
X68929Y151181D03*
D38*
X68891Y151219D03*
D39*
X68872Y151257D03*
D40*
X68872Y151295D03*
D41*
X68834Y151333D03*
D42*
X68815Y151371D03*
D43*
X68796Y151409D03*
D44*
X68758Y151448D03*
D45*
X68739Y151486D03*
D46*
X68720Y151524D03*
D47*
X68682Y151562D03*
D48*
X68663Y151600D03*
D49*
X68625Y151638D03*
D50*
X68606Y151676D03*
D51*
X68587Y151714D03*
D52*
X68548Y151752D03*
D53*
X68529Y151790D03*
D54*
X68510Y151829D03*
D55*
X68472Y151867D03*
D56*
X68453Y151905D03*
D57*
X68434Y151943D03*
D58*
X68396Y151981D03*
D59*
X68377Y152019D03*
D60*
X68339Y152057D03*
D61*
X68320Y152095D03*
D62*
X68301Y152133D03*
D63*
X68263Y152171D03*
D64*
X68244Y152210D03*
D65*
X68225Y152248D03*
D66*
X68186Y152286D03*
D67*
X68167Y152324D03*
D68*
X68148Y152362D03*
D69*
X68110Y152400D03*
D70*
X68091Y152438D03*
D71*
X68053Y152476D03*
D72*
X68034Y152514D03*
D73*
X68015Y152552D03*
D74*
X67977Y152591D03*
D75*
X67958Y152629D03*
D76*
X67939Y152667D03*
D77*
X55176Y152705D03*
D78*
X67901Y152705D03*
D79*
X55194Y152743D03*
D80*
X67882Y152743D03*
D81*
X55233Y152781D03*
D82*
X67844Y152781D03*
D83*
X55271Y152819D03*
D84*
X67825Y152819D03*
D25*
X55290Y152857D03*
D85*
X67805Y152857D03*
D86*
X55328Y152895D03*
D87*
X67767Y152895D03*
D29*
X55366Y152933D03*
D88*
X67748Y152933D03*
D89*
X55404Y152972D03*
D90*
X67729Y152972D03*
D33*
X55442Y153010D03*
D91*
X67691Y153010D03*
D92*
X55480Y153048D03*
D93*
X67672Y153048D03*
D94*
X55537Y153086D03*
D95*
X67653Y153086D03*
D40*
X55575Y153124D03*
D96*
X67615Y153124D03*
D97*
X55614Y153162D03*
D98*
X67596Y153162D03*
D45*
X55671Y153200D03*
D99*
X67558Y153200D03*
D48*
X55709Y153238D03*
D100*
X67539Y153238D03*
D50*
X55766Y153276D03*
D101*
X67520Y153276D03*
D52*
X55823Y153314D03*
D102*
X67482Y153314D03*
D103*
X55880Y153353D03*
D104*
X67463Y153353D03*
D105*
X55918Y153391D03*
D106*
X67444Y153391D03*
D107*
X55976Y153429D03*
D108*
X67405Y153429D03*
D62*
X56033Y153467D03*
D109*
X67386Y153467D03*
D110*
X56090Y153505D03*
D111*
X67367Y153505D03*
D66*
X56147Y153543D03*
D112*
X67348Y153543D03*
D113*
X56204Y153581D03*
D114*
X67310Y153581D03*
D115*
X56261Y153619D03*
D116*
X67291Y153619D03*
D73*
X56318Y153657D03*
D117*
X67272Y153657D03*
D75*
X56376Y153695D03*
D118*
X67253Y153695D03*
D119*
X56452Y153734D03*
D120*
X67234Y153734D03*
D121*
X56509Y153772D03*
D122*
X67215Y153772D03*
D85*
X56566Y153810D03*
D123*
X67196Y153810D03*
D124*
X56642Y153848D03*
D125*
X67177Y153848D03*
D93*
X56699Y153886D03*
D126*
X67158Y153886D03*
D127*
X56776Y153924D03*
D128*
X67139Y153924D03*
D129*
X56833Y153962D03*
D130*
X67120Y153962D03*
D101*
X56890Y154000D03*
D131*
X67101Y154000D03*
D132*
X56966Y154038D03*
D133*
X67082Y154038D03*
D134*
X57023Y154076D03*
D135*
X67063Y154076D03*
D136*
X57080Y154115D03*
D137*
X67043Y154115D03*
D138*
X57156Y154153D03*
D139*
X67024Y154153D03*
D140*
X57214Y154191D03*
D141*
X67005Y154191D03*
D142*
X57252Y154229D03*
D141*
X67005Y154229D03*
D125*
X57309Y154267D03*
D143*
X66986Y154267D03*
D126*
X57366Y154305D03*
D144*
X66967Y154305D03*
D145*
X57404Y154343D03*
D146*
X66948Y154343D03*
D147*
X57461Y154381D03*
D148*
X66929Y154381D03*
D149*
X57518Y154419D03*
D148*
X66929Y154419D03*
D141*
X57556Y154457D03*
D150*
X66910Y154457D03*
D151*
X57595Y154496D03*
D152*
X66891Y154496D03*
D144*
X57633Y154534D03*
D153*
X66872Y154534D03*
D148*
X57671Y154572D03*
D153*
X66872Y154572D03*
D154*
X57709Y154610D03*
D155*
X66853Y154610D03*
D153*
X57766Y154648D03*
D156*
X66834Y154648D03*
D157*
X57785Y154686D03*
D158*
X66815Y154686D03*
X57824Y154724D03*
X66815Y154724D03*
D159*
X57881Y154762D03*
X66796Y154762D03*
D160*
X57900Y154800D03*
X66777Y154800D03*
D161*
X57938Y154838D03*
D160*
X66777Y154838D03*
D162*
X57976Y154877D03*
D163*
X66758Y154877D03*
D164*
X57995Y154915D03*
D165*
X66758Y154915D03*
D166*
X58033Y154953D03*
D161*
X66739Y154953D03*
D167*
X58071Y154991D03*
D164*
X66720Y154991D03*
D168*
X58090Y155029D03*
D164*
X66720Y155029D03*
D169*
X58128Y155067D03*
D170*
X66701Y155067D03*
D169*
X58166Y155105D03*
D170*
X66701Y155105D03*
D171*
X58185Y155143D03*
D166*
X66682Y155143D03*
D172*
X58204Y155181D03*
D166*
X66682Y155181D03*
D172*
X58242Y155219D03*
D168*
X66662Y155219D03*
D173*
X58261Y155258D03*
D174*
X66662Y155258D03*
D175*
X58280Y155296D03*
D176*
X66643Y155296D03*
D177*
X58319Y155334D03*
D176*
X66643Y155334D03*
D178*
X58338Y155372D03*
D176*
X66643Y155372D03*
D179*
X58357Y155410D03*
D169*
X66624Y155410D03*
D179*
X58395Y155448D03*
D169*
X66624Y155448D03*
D180*
X58414Y155486D03*
D171*
X66605Y155486D03*
D181*
X58433Y155524D03*
D171*
X66605Y155524D03*
D181*
X58471Y155562D03*
D171*
X66605Y155562D03*
D182*
X58490Y155600D03*
D172*
X66586Y155600D03*
D183*
X58509Y155639D03*
D184*
X66586Y155639D03*
D185*
X58547Y155677D03*
D186*
X66567Y155677D03*
D187*
X58567Y155715D03*
D186*
X66567Y155715D03*
D187*
X58567Y155753D03*
D186*
X66567Y155753D03*
D187*
X58605Y155791D03*
D186*
X66567Y155791D03*
D188*
X58624Y155829D03*
D175*
X66548Y155829D03*
D189*
X58643Y155867D03*
D175*
X66548Y155867D03*
D188*
X58662Y155905D03*
D175*
X66548Y155905D03*
D189*
X58681Y155943D03*
D190*
X66529Y155943D03*
D191*
X58700Y155981D03*
D190*
X66529Y155981D03*
D192*
X58719Y156020D03*
D193*
X66529Y156020D03*
D191*
X58738Y156058D03*
D190*
X66529Y156058D03*
D191*
X58738Y156096D03*
D194*
X66510Y156096D03*
D191*
X58776Y156134D03*
D190*
X66491Y156134D03*
D195*
X58795Y156172D03*
D190*
X66491Y156172D03*
D195*
X58795Y156210D03*
D190*
X66491Y156210D03*
D195*
X58833Y156248D03*
D190*
X66491Y156248D03*
D195*
X58833Y156286D03*
D190*
X66491Y156286D03*
D196*
X58852Y156324D03*
D194*
X66472Y156324D03*
D197*
X58871Y156362D03*
D194*
X66472Y156362D03*
D198*
X58890Y156401D03*
D199*
X66472Y156401D03*
D196*
X58890Y156439D03*
D194*
X66472Y156439D03*
D196*
X58928Y156477D03*
D194*
X66472Y156477D03*
D196*
X58928Y156515D03*
D194*
X66472Y156515D03*
D196*
X58928Y156553D03*
D194*
X66472Y156553D03*
D196*
X58966Y156591D03*
D190*
X66453Y156591D03*
D196*
X58966Y156629D03*
D190*
X66453Y156629D03*
D200*
X58985Y156667D03*
D190*
X66453Y156667D03*
D196*
X59004Y156705D03*
D190*
X66453Y156705D03*
D196*
X59004Y156743D03*
D190*
X66453Y156743D03*
D201*
X59023Y156782D03*
D193*
X66453Y156782D03*
D202*
X59043Y156820D03*
D190*
X66453Y156820D03*
D202*
X59043Y156858D03*
D175*
X66434Y156858D03*
D203*
X59062Y156896D03*
D175*
X66434Y156896D03*
D202*
X59081Y156934D03*
D175*
X66434Y156934D03*
D202*
X59081Y156972D03*
D175*
X66434Y156972D03*
D202*
X59081Y157010D03*
D175*
X66434Y157010D03*
D203*
X59100Y157048D03*
D186*
X66415Y157048D03*
D202*
X59119Y157086D03*
D186*
X66415Y157086D03*
D202*
X59119Y157124D03*
D186*
X66415Y157124D03*
D204*
X59138Y157163D03*
D173*
X66415Y157163D03*
D202*
X59157Y157201D03*
D172*
X66396Y157201D03*
D202*
X59157Y157239D03*
D172*
X66396Y157239D03*
D203*
X59176Y157277D03*
D172*
X66396Y157277D03*
D202*
X59195Y157315D03*
D172*
X66396Y157315D03*
D202*
X59195Y157353D03*
D171*
X66377Y157353D03*
D202*
X59195Y157391D03*
D171*
X66377Y157391D03*
D205*
X62662Y157429D03*
X62662Y157467D03*
D206*
X62643Y157505D03*
D207*
X62662Y157544D03*
D208*
X62662Y157582D03*
D209*
X62643Y157620D03*
D210*
X62662Y157658D03*
X62662Y157696D03*
D211*
X62643Y157734D03*
D212*
X62662Y157772D03*
X62662Y157810D03*
D213*
X62643Y157848D03*
D214*
X62662Y157886D03*
D215*
X60585Y157925D03*
D216*
X67691Y157925D03*
D217*
X60528Y157963D03*
D68*
X67729Y157963D03*
D218*
X60529Y158001D03*
D67*
X67748Y158001D03*
D219*
X60491Y158039D03*
D220*
X67748Y158039D03*
D221*
X60472Y158077D03*
D220*
X67748Y158077D03*
D222*
X60452Y158115D03*
D223*
X67748Y158115D03*
D224*
X60433Y158153D03*
D223*
X67748Y158153D03*
D225*
X60414Y158191D03*
D226*
X67729Y158191D03*
D227*
X60414Y158229D03*
D228*
X67749Y158229D03*
D229*
X60395Y158267D03*
D62*
X67730Y158267D03*
D230*
X60376Y158306D03*
D231*
X67730Y158306D03*
D232*
X60376Y158344D03*
D61*
X67711Y158344D03*
D233*
X60357Y158382D03*
D61*
X67711Y158382D03*
D234*
X60338Y158420D03*
D235*
X67691Y158420D03*
D236*
X60338Y158458D03*
D235*
X67691Y158458D03*
D236*
X60338Y158496D03*
D237*
X67672Y158496D03*
D238*
X60338Y158534D03*
D237*
X67672Y158534D03*
D239*
X60319Y158572D03*
D240*
X67653Y158572D03*
D241*
X60300Y158610D03*
D58*
X67634Y158610D03*
D242*
X60319Y158648D03*
D58*
X67634Y158648D03*
D243*
X58280Y158687D03*
D244*
X62681Y158687D03*
D245*
X67615Y158687D03*
D246*
X58223Y158725D03*
D66*
X62776Y158725D03*
D247*
X67577Y158725D03*
D248*
X58185Y158763D03*
D110*
X62834Y158763D03*
D247*
X67577Y158763D03*
D249*
X58185Y158801D03*
D62*
X62853Y158801D03*
D250*
X67558Y158801D03*
D249*
X58185Y158839D03*
D107*
X62872Y158839D03*
D251*
X67539Y158839D03*
D252*
X58185Y158877D03*
D253*
X62910Y158877D03*
D254*
X67520Y158877D03*
D252*
X58185Y158915D03*
D251*
X62929Y158915D03*
D254*
X67520Y158915D03*
D255*
X58205Y158953D03*
D256*
X62967Y158953D03*
D254*
X67482Y158953D03*
D255*
X58205Y158991D03*
D53*
X62967Y158991D03*
D256*
X67462Y158991D03*
D76*
X58224Y159029D03*
D257*
X63005Y159029D03*
D258*
X67443Y159029D03*
D259*
X58224Y159068D03*
D260*
X63005Y159068D03*
D261*
X67424Y159068D03*
D75*
X58243Y159106D03*
D48*
X63024Y159106D03*
D53*
X67386Y159106D03*
D75*
X58243Y159144D03*
D47*
X63043Y159144D03*
D52*
X67367Y159144D03*
D262*
X58262Y159182D03*
D46*
X63043Y159182D03*
D257*
X67348Y159182D03*
D262*
X58262Y159220D03*
D45*
X63062Y159220D03*
D257*
X67310Y159220D03*
D263*
X58281Y159258D03*
D43*
X63081Y159258D03*
D264*
X67291Y159258D03*
D263*
X58319Y159296D03*
D42*
X63100Y159296D03*
D265*
X67272Y159296D03*
D263*
X58319Y159334D03*
D41*
X63119Y159334D03*
D265*
X67234Y159334D03*
D266*
X58338Y159372D03*
D40*
X63119Y159372D03*
D49*
X67215Y159372D03*
D263*
X58357Y159410D03*
D267*
X63138Y159410D03*
D49*
X67177Y159410D03*
D268*
X58376Y159449D03*
D269*
X63138Y159449D03*
D270*
X67158Y159449D03*
D271*
X58395Y159487D03*
D94*
X63157Y159487D03*
D47*
X67120Y159487D03*
D266*
X58414Y159525D03*
D272*
X63157Y159525D03*
D47*
X67082Y159525D03*
D271*
X58433Y159563D03*
D92*
X63176Y159563D03*
D273*
X67063Y159563D03*
D274*
X69539Y159563D03*
D72*
X58471Y159601D03*
D35*
X63196Y159601D03*
D46*
X67006Y159601D03*
D83*
X69558Y159601D03*
D72*
X58471Y159639D03*
D275*
X63196Y159639D03*
D45*
X66987Y159639D03*
D276*
X69558Y159639D03*
D72*
X58509Y159677D03*
D33*
X63215Y159677D03*
D277*
X66948Y159677D03*
D278*
X69577Y159677D03*
D71*
X58528Y159715D03*
D279*
X63234Y159715D03*
D280*
X66910Y159715D03*
D37*
X69577Y159715D03*
D71*
X58566Y159753D03*
D281*
X63234Y159753D03*
D280*
X66872Y159753D03*
D282*
X69577Y159753D03*
D72*
X58585Y159791D03*
D281*
X63234Y159791D03*
D42*
X66834Y159791D03*
D277*
X69577Y159791D03*
D244*
X58604Y159830D03*
D89*
X63253Y159830D03*
D283*
X66796Y159830D03*
D284*
X69577Y159830D03*
D71*
X58642Y159868D03*
D285*
X63253Y159868D03*
D286*
X66758Y159868D03*
D53*
X69596Y159868D03*
D287*
X58681Y159906D03*
D288*
X63272Y159906D03*
D286*
X66720Y159906D03*
D57*
X69577Y159906D03*
D289*
X58700Y159944D03*
D290*
X63291Y159944D03*
D267*
X66681Y159944D03*
D61*
X69577Y159944D03*
D287*
X58719Y159982D03*
D290*
X63291Y159982D03*
D291*
X68434Y159982D03*
D287*
X58757Y160020D03*
D28*
X63290Y160020D03*
D149*
X68453Y160020D03*
D289*
X58776Y160058D03*
D292*
X63310Y160058D03*
D141*
X68491Y160058D03*
D115*
X58814Y160096D03*
D292*
X63310Y160096D03*
D148*
X68529Y160096D03*
D115*
X58852Y160134D03*
D86*
X63329Y160134D03*
D150*
X68548Y160134D03*
D115*
X58890Y160172D03*
D293*
X63348Y160172D03*
D155*
X68568Y160172D03*
D294*
X58928Y160211D03*
D295*
X63348Y160211D03*
D296*
X68587Y160211D03*
D70*
X58947Y160249D03*
D297*
X63348Y160249D03*
D165*
X68625Y160249D03*
D70*
X58985Y160287D03*
D297*
X63348Y160287D03*
D170*
X68644Y160287D03*
D70*
X59023Y160325D03*
D25*
X63367Y160325D03*
D298*
X68644Y160325D03*
D70*
X59061Y160363D03*
D25*
X63367Y160363D03*
D171*
X68663Y160363D03*
D299*
X59100Y160401D03*
D300*
X63386Y160401D03*
D186*
X68701Y160401D03*
D299*
X59138Y160439D03*
D300*
X63386Y160439D03*
D178*
X68701Y160439D03*
D70*
X59176Y160477D03*
D301*
X63405Y160477D03*
D181*
X68720Y160477D03*
D69*
X59233Y160515D03*
D301*
X63405Y160515D03*
D302*
X68720Y160515D03*
D69*
X59271Y160553D03*
D303*
X63424Y160553D03*
D188*
X68720Y160553D03*
D216*
X59309Y160592D03*
D304*
X63424Y160592D03*
D305*
X68739Y160592D03*
D69*
X59347Y160630D03*
D306*
X63443Y160630D03*
D200*
X68739Y160630D03*
D113*
X59404Y160668D03*
D303*
X63462Y160668D03*
D307*
X68739Y160668D03*
D113*
X59442Y160706D03*
D303*
X63462Y160706D03*
D308*
X68758Y160706D03*
D113*
X59519Y160744D03*
D303*
X63462Y160744D03*
D309*
X68758Y160744D03*
D113*
X59557Y160782D03*
D306*
X63481Y160782D03*
D310*
X68777Y160782D03*
D68*
X59614Y160820D03*
D311*
X63500Y160820D03*
D312*
X68777Y160820D03*
D67*
X59671Y160858D03*
D311*
X63500Y160858D03*
D313*
X68758Y160858D03*
D67*
X59747Y160896D03*
D314*
X63519Y160896D03*
D315*
X68777Y160896D03*
D67*
X59785Y160934D03*
D316*
X63538Y160934D03*
D317*
X68758Y160934D03*
D318*
X59881Y160973D03*
D319*
X63576Y160973D03*
D320*
X68758Y160973D03*
D321*
X59938Y161011D03*
D322*
X67958Y161011D03*
D220*
X60014Y161049D03*
D323*
X67977Y161049D03*
D324*
X60109Y161087D03*
D325*
X67996Y161087D03*
D110*
X60205Y161125D03*
D326*
X68015Y161125D03*
D63*
X60300Y161163D03*
D327*
X68015Y161163D03*
D228*
X60395Y161201D03*
D328*
X68034Y161201D03*
D62*
X60529Y161239D03*
D329*
X68034Y161239D03*
D62*
X60643Y161277D03*
D330*
X68034Y161277D03*
D331*
X58414Y161315D03*
D332*
X66243Y161315D03*
D333*
X65653Y161354D03*
D334*
X65596Y161392D03*
D335*
X65538Y161430D03*
D336*
X65520Y161468D03*
D337*
X65482Y161506D03*
D338*
X65443Y161544D03*
D339*
X65424Y161582D03*
D340*
X65405Y161620D03*
D341*
X65405Y161658D03*
D342*
X65386Y161696D03*
D343*
X65367Y161735D03*
D344*
X65367Y161773D03*
D345*
X61157Y161811D03*
D346*
X70263Y161811D03*
D236*
X60986Y161849D03*
D196*
X70434Y161849D03*
D239*
X60891Y161887D03*
D189*
X70568Y161887D03*
D347*
X60814Y161925D03*
D302*
X70663Y161925D03*
D239*
X60738Y161963D03*
D348*
X70777Y161963D03*
D241*
X60681Y162001D03*
D179*
X70854Y162001D03*
D241*
X60605Y162039D03*
D177*
X70930Y162039D03*
D241*
X60567Y162077D03*
D175*
X71006Y162077D03*
D349*
X60529Y162116D03*
D173*
X71063Y162116D03*
D350*
X60490Y162154D03*
D172*
X71158Y162154D03*
D350*
X60452Y162192D03*
D172*
X71196Y162192D03*
D351*
X60433Y162230D03*
D171*
X71253Y162230D03*
D352*
X60414Y162268D03*
D171*
X71330Y162268D03*
D234*
X60376Y162306D03*
D171*
X71368Y162306D03*
D233*
X60357Y162344D03*
D169*
X71425Y162344D03*
D232*
X60338Y162382D03*
D171*
X71482Y162382D03*
D143*
X58795Y162420D03*
D46*
X63577Y162420D03*
D171*
X71520Y162420D03*
D133*
X58662Y162458D03*
D353*
X63672Y162458D03*
D172*
X71577Y162458D03*
D354*
X58566Y162497D03*
D283*
X63710Y162497D03*
D184*
X71615Y162497D03*
D123*
X58471Y162535D03*
D355*
X63748Y162535D03*
D186*
X71634Y162535D03*
D122*
X58414Y162573D03*
D42*
X63786Y162573D03*
D177*
X71692Y162573D03*
D142*
X58319Y162611D03*
D43*
X63805Y162611D03*
D177*
X71730Y162611D03*
D356*
X58262Y162649D03*
D43*
X63843Y162649D03*
D179*
X71768Y162649D03*
D116*
X58185Y162687D03*
D280*
X63862Y162687D03*
D180*
X71787Y162687D03*
D138*
X58147Y162725D03*
D357*
X63881Y162725D03*
D181*
X71806Y162725D03*
D112*
X58090Y162763D03*
D46*
X63920Y162763D03*
D302*
X71844Y162763D03*
D111*
X58033Y162801D03*
D273*
X63939Y162801D03*
D187*
X71863Y162801D03*
D358*
X57976Y162839D03*
D48*
X63977Y162839D03*
D359*
X71901Y162839D03*
D360*
X57918Y162878D03*
D361*
X64015Y162878D03*
D362*
X71920Y162878D03*
D108*
X57880Y162916D03*
D51*
X64053Y162916D03*
D196*
X71920Y162916D03*
D134*
X57823Y162954D03*
D363*
X64072Y162954D03*
D307*
X71939Y162954D03*
D134*
X57785Y162992D03*
D256*
X64110Y162992D03*
D364*
X71939Y162992D03*
D365*
X57728Y163030D03*
D247*
X64148Y163030D03*
D346*
X71939Y163030D03*
D365*
X57690Y163068D03*
D107*
X64205Y163068D03*
D310*
X71939Y163068D03*
D102*
X57652Y163106D03*
D366*
X64243Y163106D03*
D367*
X71921Y163106D03*
D102*
X57614Y163144D03*
D66*
X64300Y163144D03*
D368*
X71901Y163144D03*
D369*
X57557Y163182D03*
D70*
X64395Y163182D03*
D317*
X71882Y163182D03*
D369*
X57519Y163220D03*
D75*
X64491Y163220D03*
D370*
X71806Y163220D03*
D371*
X57481Y163259D03*
D372*
X69234Y163259D03*
D101*
X57462Y163297D03*
D27*
X63062Y163297D03*
D373*
X70091Y163297D03*
D374*
X57423Y163335D03*
D375*
X63005Y163335D03*
D376*
X70149Y163335D03*
D374*
X57385Y163373D03*
D293*
X62967Y163373D03*
D376*
X70187Y163373D03*
D100*
X57366Y163411D03*
D293*
X62929Y163411D03*
D376*
X70225Y163411D03*
D100*
X57328Y163449D03*
D86*
X62910Y163449D03*
D377*
X70263Y163449D03*
D100*
X57290Y163487D03*
D27*
X62871Y163487D03*
D378*
X70282Y163487D03*
D100*
X57252Y163525D03*
D27*
X62833Y163525D03*
D378*
X70320Y163525D03*
D99*
X57233Y163563D03*
D276*
X62814Y163563D03*
D378*
X70358Y163563D03*
D99*
X57195Y163601D03*
D28*
X62757Y163601D03*
D378*
X70358Y163601D03*
D379*
X57176Y163640D03*
D380*
X62738Y163640D03*
D381*
X70377Y163640D03*
D100*
X57138Y163678D03*
D29*
X62719Y163678D03*
D382*
X70415Y163678D03*
D99*
X57119Y163716D03*
D383*
X62662Y163716D03*
D382*
X70415Y163716D03*
D100*
X57100Y163754D03*
D384*
X62643Y163754D03*
D385*
X70435Y163754D03*
D100*
X57062Y163792D03*
D31*
X62605Y163792D03*
D385*
X70435Y163792D03*
D374*
X57042Y163830D03*
D281*
X62586Y163830D03*
D385*
X70473Y163830D03*
D386*
X57023Y163868D03*
D32*
X62529Y163868D03*
D385*
X70473Y163868D03*
D374*
X57004Y163906D03*
D33*
X62491Y163906D03*
D387*
X70492Y163906D03*
D388*
X56985Y163944D03*
D275*
X62472Y163944D03*
D387*
X70492Y163944D03*
D388*
X56985Y163982D03*
D35*
X62434Y163982D03*
D389*
X70511Y163982D03*
D390*
X56966Y164021D03*
D391*
X62395Y164021D03*
D392*
X70492Y164021D03*
D393*
X56947Y164059D03*
D37*
X62338Y164059D03*
D394*
X70492Y164059D03*
D365*
X56928Y164097D03*
D38*
X62300Y164097D03*
D395*
X70511Y164097D03*
D365*
X56928Y164135D03*
D40*
X62243Y164135D03*
D395*
X70511Y164135D03*
D108*
X56928Y164173D03*
D396*
X62205Y164173D03*
D397*
X70530Y164173D03*
D109*
X56909Y164211D03*
D353*
X62148Y164211D03*
D397*
X70530Y164211D03*
D112*
X56909Y164249D03*
D46*
X62091Y164249D03*
D398*
X70511Y164249D03*
D138*
X56928Y164287D03*
D48*
X62034Y164287D03*
D399*
X70530Y164287D03*
D117*
X56947Y164325D03*
D264*
X61957Y164325D03*
D399*
X70530Y164325D03*
D125*
X57004Y164363D03*
D55*
X61843Y164363D03*
D400*
X70511Y164363D03*
D401*
X58757Y164402D03*
D402*
X70511Y164402D03*
D403*
X58757Y164440D03*
D404*
X70511Y164440D03*
D405*
X58738Y164478D03*
D406*
X70491Y164478D03*
D407*
X58719Y164516D03*
D406*
X70491Y164516D03*
D407*
X58719Y164554D03*
D408*
X70472Y164554D03*
D409*
X58700Y164592D03*
D410*
X70472Y164592D03*
D411*
X58681Y164630D03*
D412*
X70453Y164630D03*
D413*
X58662Y164668D03*
D414*
X70415Y164668D03*
D413*
X58662Y164706D03*
D415*
X70396Y164706D03*
D221*
X58643Y164744D03*
D416*
X70358Y164744D03*
D417*
X58624Y164783D03*
D418*
X70339Y164783D03*
D419*
X58605Y164821D03*
D420*
X70282Y164821D03*
D419*
X58605Y164859D03*
D421*
X70244Y164859D03*
D422*
X58604Y164897D03*
D423*
X70187Y164897D03*
D217*
X58585Y164935D03*
D424*
X70129Y164935D03*
D425*
X58566Y164973D03*
D328*
X70053Y164973D03*
D425*
X58566Y165011D03*
D426*
X69996Y165011D03*
D427*
X58547Y165049D03*
D428*
X69958Y165049D03*
D429*
X58528Y165087D03*
D430*
X69901Y165087D03*
D431*
X58509Y165125D03*
D432*
X69844Y165125D03*
D433*
X58528Y165164D03*
D434*
X69787Y165164D03*
D435*
X58509Y165202D03*
D436*
X69730Y165202D03*
D432*
X58490Y165240D03*
D218*
X69673Y165240D03*
D432*
X58490Y165278D03*
D437*
X69596Y165278D03*
D438*
X58471Y165316D03*
D224*
X69539Y165316D03*
D430*
X58471Y165354D03*
D36*
X65901Y165354D03*
D181*
X70549Y165354D03*
D323*
X58452Y165392D03*
D439*
X65920Y165392D03*
D177*
X70511Y165392D03*
D323*
X58452Y165430D03*
D440*
X65939Y165430D03*
D169*
X70472Y165430D03*
D441*
X58433Y165468D03*
D440*
X65939Y165468D03*
D442*
X70434Y165468D03*
D325*
X58433Y165506D03*
D443*
X65958Y165506D03*
D159*
X70416Y165506D03*
D444*
X58414Y165545D03*
D445*
X65977Y165545D03*
D152*
X70358Y165545D03*
D326*
X58414Y165583D03*
D267*
X65996Y165583D03*
D144*
X70320Y165583D03*
D446*
X58395Y165621D03*
D40*
X66015Y165621D03*
D149*
X70282Y165621D03*
D447*
X58395Y165659D03*
D40*
X66015Y165659D03*
D128*
X70263Y165659D03*
D448*
X58376Y165697D03*
D282*
X66034Y165697D03*
D122*
X70225Y165697D03*
D448*
X58376Y165735D03*
D41*
X66053Y165735D03*
D449*
X70187Y165735D03*
D450*
X58376Y165773D03*
D42*
X66072Y165773D03*
D358*
X70168Y165773D03*
D451*
X58357Y165811D03*
D42*
X66072Y165811D03*
D102*
X70111Y165811D03*
D452*
X58376Y165849D03*
D43*
X66091Y165849D03*
D129*
X70092Y165849D03*
D453*
X58357Y165887D03*
D454*
X66091Y165887D03*
D95*
X70053Y165887D03*
D455*
X58337Y165926D03*
D456*
X66110Y165926D03*
D457*
X70034Y165926D03*
D423*
X58338Y165964D03*
D45*
X66110Y165964D03*
D248*
X69996Y165964D03*
D423*
X58338Y166002D03*
D46*
X66129Y166002D03*
D458*
X69977Y166002D03*
D459*
X58338Y166040D03*
D273*
X66148Y166040D03*
D73*
X69958Y166040D03*
D421*
X58319Y166078D03*
D273*
X66148Y166078D03*
D69*
X69939Y166078D03*
D420*
X58319Y166116D03*
D460*
X66148Y166116D03*
D324*
X69901Y166116D03*
D420*
X58319Y166154D03*
D461*
X66167Y166154D03*
D61*
X69882Y166154D03*
D462*
X58319Y166192D03*
D461*
X66167Y166192D03*
D57*
X69882Y166192D03*
D242*
X57157Y166230D03*
D39*
X62700Y166230D03*
D265*
X66167Y166230D03*
D53*
X69863Y166230D03*
D242*
X57119Y166268D03*
D40*
X62700Y166268D03*
D265*
X66167Y166268D03*
D463*
X69863Y166268D03*
D464*
X57119Y166307D03*
D465*
X62719Y166307D03*
D466*
X66186Y166307D03*
D467*
X69863Y166307D03*
D242*
X57081Y166345D03*
D41*
X62700Y166345D03*
D257*
X66167Y166345D03*
D440*
X69825Y166345D03*
D242*
X57043Y166383D03*
D42*
X62719Y166383D03*
D52*
X66186Y166383D03*
D281*
X69825Y166383D03*
D242*
X57043Y166421D03*
D43*
X62738Y166421D03*
D53*
X66167Y166421D03*
D25*
X69806Y166421D03*
D242*
X57004Y166459D03*
D357*
X62738Y166459D03*
D258*
X66186Y166459D03*
D468*
X69787Y166459D03*
D242*
X56966Y166497D03*
D277*
X62757Y166497D03*
D256*
X66167Y166497D03*
D241*
X56947Y166535D03*
D46*
X62777Y166535D03*
D56*
X66167Y166535D03*
D242*
X56928Y166573D03*
D47*
X62777Y166573D03*
D57*
X66148Y166573D03*
D242*
X56890Y166611D03*
D463*
X62815Y166611D03*
D58*
X66148Y166611D03*
D241*
X56871Y166649D03*
D156*
X64586Y166649D03*
D349*
X56833Y166688D03*
D469*
X64586Y166688D03*
D242*
X56814Y166726D03*
D158*
X64605Y166726D03*
D242*
X56776Y166764D03*
D159*
X64586Y166764D03*
D241*
X56757Y166802D03*
D160*
X64605Y166802D03*
D242*
X56738Y166840D03*
D160*
X64605Y166840D03*
D242*
X56700Y166878D03*
D165*
X64586Y166878D03*
D242*
X56662Y166916D03*
D470*
X64605Y166916D03*
D242*
X56662Y166954D03*
D470*
X64605Y166954D03*
D242*
X56623Y166992D03*
D470*
X64605Y166992D03*
D242*
X56585Y167030D03*
D471*
X64586Y167030D03*
D472*
X56566Y167069D03*
D473*
X64605Y167069D03*
D474*
X56528Y167107D03*
D442*
X64605Y167107D03*
D475*
X56509Y167145D03*
D167*
X64586Y167145D03*
D475*
X56471Y167183D03*
D167*
X64586Y167183D03*
D476*
X56452Y167221D03*
D168*
X64605Y167221D03*
D477*
X56433Y167259D03*
D168*
X64605Y167259D03*
D477*
X56395Y167297D03*
D168*
X64605Y167297D03*
D478*
X56376Y167335D03*
D176*
X64586Y167335D03*
D479*
X56356Y167373D03*
D176*
X64586Y167373D03*
D480*
X56318Y167411D03*
D169*
X64605Y167411D03*
D320*
X56299Y167450D03*
D481*
X64605Y167450D03*
D482*
X56261Y167488D03*
D169*
X64605Y167488D03*
D483*
X56261Y167526D03*
D169*
X64605Y167526D03*
D317*
X56223Y167564D03*
D169*
X64605Y167564D03*
D484*
X56204Y167602D03*
D171*
X64586Y167602D03*
D485*
X56166Y167640D03*
D172*
X64605Y167640D03*
D486*
X56147Y167678D03*
D172*
X64605Y167678D03*
D313*
X56109Y167716D03*
D172*
X64605Y167716D03*
D312*
X56090Y167754D03*
D172*
X64605Y167754D03*
D487*
X56071Y167792D03*
D172*
X64605Y167792D03*
D488*
X56052Y167831D03*
D184*
X64605Y167831D03*
D346*
X56013Y167869D03*
D172*
X64605Y167869D03*
D364*
X55975Y167907D03*
D172*
X64605Y167907D03*
D489*
X55956Y167945D03*
D172*
X64605Y167945D03*
D490*
X55918Y167983D03*
D172*
X64605Y167983D03*
D491*
X55880Y168021D03*
D172*
X64605Y168021D03*
D348*
X55842Y168059D03*
D172*
X64605Y168059D03*
D175*
X55804Y168097D03*
D172*
X64605Y168097D03*
D171*
X55747Y168135D03*
D172*
X64605Y168135D03*
D166*
X55709Y168173D03*
D172*
X64605Y168173D03*
D296*
X55671Y168212D03*
D184*
X64605Y168212D03*
D492*
X55614Y168250D03*
D172*
X64605Y168250D03*
D141*
X55575Y168288D03*
D172*
X64605Y168288D03*
D493*
X55499Y168326D03*
D171*
X64624Y168326D03*
D112*
X55423Y168364D03*
D171*
X64624Y168364D03*
D363*
X54547Y168402D03*
D171*
X64624Y168402D03*
X64624Y168440D03*
X64624Y168478D03*
X64624Y168516D03*
X64624Y168554D03*
D481*
X64643Y168593D03*
D169*
X64643Y168631D03*
X64643Y168669D03*
X64643Y168707D03*
D176*
X64624Y168745D03*
D168*
X64643Y168783D03*
X64643Y168821D03*
X64643Y168859D03*
X64643Y168897D03*
D167*
X64662Y168935D03*
D494*
X64662Y168974D03*
D167*
X64662Y169012D03*
D442*
X64643Y169050D03*
D471*
X64662Y169088D03*
X64662Y169126D03*
X64662Y169164D03*
D470*
X64681Y169202D03*
D495*
X64662Y169240D03*
X64662Y169278D03*
D160*
X64682Y169316D03*
D496*
X64682Y169355D03*
D160*
X64682Y169393D03*
D158*
X64682Y169431D03*
X64682Y169469D03*
X64682Y169507D03*
D156*
X64701Y169545D03*
D157*
X64681Y169583D03*
D153*
X64700Y169621D03*
X64700Y169659D03*
X64700Y169697D03*
D497*
X64700Y169736D03*
D150*
X64700Y169774D03*
D148*
X64719Y169812D03*
D146*
X64700Y169850D03*
D144*
X64719Y169888D03*
X64719Y169926D03*
D141*
X64719Y169964D03*
X64719Y170002D03*
D139*
X64738Y170040D03*
D149*
X64719Y170078D03*
D498*
X64738Y170117D03*
D147*
X64738Y170155D03*
D131*
X64739Y170193D03*
X64739Y170231D03*
D130*
X64758Y170269D03*
X64758Y170307D03*
D126*
X64758Y170345D03*
D125*
X64777Y170383D03*
X64777Y170421D03*
D122*
X64777Y170459D03*
D499*
X64777Y170498D03*
D142*
X64796Y170536D03*
D140*
X64796Y170574D03*
X64796Y170612D03*
D449*
X64815Y170650D03*
D500*
X64815Y170688D03*
X64815Y170726D03*
D501*
X64834Y170764D03*
D358*
X64834Y170802D03*
D502*
X64853Y170840D03*
D503*
X64853Y170879D03*
D106*
X64853Y170917D03*
D504*
X64872Y170955D03*
D102*
X64891Y170993D03*
D369*
X64872Y171031D03*
D101*
X64891Y171069D03*
D100*
X64910Y171107D03*
D99*
X64891Y171145D03*
D129*
X64910Y171183D03*
D98*
X64929Y171221D03*
D505*
X64929Y171260D03*
D127*
X64929Y171298D03*
D95*
X64948Y171336D03*
D93*
X64967Y171374D03*
D91*
X64948Y171412D03*
D506*
X64967Y171450D03*
D124*
X64986Y171488D03*
D87*
X64986Y171526D03*
X64986Y171564D03*
D246*
X65005Y171602D03*
D507*
X65005Y171641D03*
D248*
X65005Y171679D03*
D508*
X65024Y171717D03*
D509*
X65024Y171755D03*
D252*
X65043Y171793D03*
X65043Y171831D03*
D76*
X65044Y171869D03*
D75*
X65063Y171907D03*
X65063Y171945D03*
D510*
X65062Y171983D03*
D511*
X65081Y172022D03*
D72*
X65100Y172060D03*
D71*
X65081Y172098D03*
D115*
X65100Y172136D03*
D70*
X65119Y172174D03*
D113*
X65119Y172212D03*
X65119Y172250D03*
D68*
X65138Y172288D03*
D67*
X65157Y172326D03*
D66*
X65138Y172364D03*
D512*
X65158Y172403D03*
D65*
X65177Y172441D03*
D63*
X65177Y172479D03*
X65177Y172517D03*
D228*
X65196Y172555D03*
D61*
X65196Y172593D03*
X65196Y172631D03*
D60*
X65215Y172669D03*
D59*
X65215Y172707D03*
D253*
X65234Y172745D03*
D513*
X65234Y172784D03*
D250*
X65234Y172822D03*
D251*
X65253Y172860D03*
X65253Y172898D03*
D256*
X65253Y172936D03*
D258*
X65272Y172974D03*
D53*
X65291Y173012D03*
D52*
X65272Y173050D03*
D257*
X65291Y173088D03*
D264*
X65310Y173126D03*
D260*
X65291Y173165D03*
D49*
X65310Y173203D03*
D463*
X65329Y173241D03*
D47*
X65329Y173279D03*
X65329Y173317D03*
D273*
X65348Y173355D03*
D46*
X65367Y173393D03*
D45*
X65348Y173431D03*
D357*
X65367Y173469D03*
D280*
X65386Y173507D03*
D514*
X65386Y173546D03*
D42*
X65386Y173584D03*
D41*
X65405Y173622D03*
D40*
X65405Y173660D03*
D267*
X65424Y173698D03*
X65424Y173736D03*
D38*
X65424Y173774D03*
D94*
X65443Y173812D03*
X65443Y173850D03*
D272*
X65443Y173888D03*
D515*
X65462Y173927D03*
D35*
X65482Y173965D03*
D516*
X65463Y174003D03*
D275*
X65482Y174041D03*
D33*
X65501Y174079D03*
D279*
X65482Y174117D03*
D32*
X65501Y174155D03*
D31*
X65501Y174193D03*
D30*
X65520Y174231D03*
X65520Y174269D03*
D517*
X65519Y174308D03*
D29*
X65538Y174346D03*
D28*
X65538Y174384D03*
D27*
X65538Y174422D03*
X65538Y174460D03*
D518*
X65539Y174498D03*
D25*
X65539Y174536D03*
D301*
X65539Y174574D03*
D306*
X65539Y174612D03*
D23*
X65558Y174650D03*
D519*
X65539Y174689D03*
D21*
X65538Y174727D03*
D520*
X65539Y174765D03*
D331*
X65501Y174803D03*
M02*
