G04 EAGLE Gerber RS-274X export*
G75*
%MOMM*%
%FSLAX34Y34*%
%LPD*%
%IN*%
%IPPOS*%
%AMOC8*
5,1,8,0,0,1.08239X$1,22.5*%
G01*
%ADD10C,0.254000*%


D10*
X0Y25400D02*
X97Y23186D01*
X386Y20989D01*
X865Y18826D01*
X1532Y16713D01*
X2380Y14666D01*
X3403Y12700D01*
X4594Y10831D01*
X5942Y9073D01*
X7440Y7440D01*
X9073Y5942D01*
X10831Y4594D01*
X12700Y3403D01*
X14666Y2380D01*
X16713Y1532D01*
X18826Y865D01*
X20989Y386D01*
X23186Y97D01*
X25400Y0D01*
X152400Y0D01*
X154614Y97D01*
X156811Y386D01*
X158974Y865D01*
X161087Y1532D01*
X163135Y2380D01*
X165100Y3403D01*
X166969Y4594D01*
X168727Y5942D01*
X170361Y7440D01*
X171858Y9073D01*
X173206Y10831D01*
X174397Y12700D01*
X175420Y14666D01*
X176268Y16713D01*
X176935Y18826D01*
X177414Y20989D01*
X177703Y23186D01*
X177800Y25400D01*
X177800Y127000D01*
X177703Y129214D01*
X177414Y131411D01*
X176935Y133574D01*
X176268Y135687D01*
X175420Y137735D01*
X174397Y139700D01*
X173206Y141569D01*
X171858Y143327D01*
X170361Y144961D01*
X168727Y146458D01*
X166969Y147806D01*
X165100Y148997D01*
X163135Y150020D01*
X161087Y150868D01*
X158974Y151535D01*
X156811Y152014D01*
X154614Y152303D01*
X152400Y152400D01*
X25400Y152400D01*
X23186Y152303D01*
X20989Y152014D01*
X18826Y151535D01*
X16713Y150868D01*
X14666Y150020D01*
X12700Y148997D01*
X10831Y147806D01*
X9073Y146458D01*
X7440Y144961D01*
X5942Y143327D01*
X4594Y141569D01*
X3403Y139700D01*
X2380Y137735D01*
X1532Y135687D01*
X865Y133574D01*
X386Y131411D01*
X97Y129214D01*
X0Y127000D01*
X0Y25400D01*
M02*
