  0
SECTION
  2
HEADER
  9
$ACADVER
  1
AC1009
  9
$FILLMODE
 70
1
  9
$EXTMIN
 10
-20.9127
 20
-7.3660
 30
0.0000
  9
$EXTMAX
 10
64.6668
 20
20.4216
 30
0.0000
  0
ENDSEC
  0
SECTION
  2
TABLES
  0
TABLE
  2
LTYPE
 70
1
  0
LTYPE
  2
CONTINUOUS
 70
64
  3
Solid line
 72
65
 73
0
 40
0
  0
ENDTAB
  0
TABLE
  2
LAYER
 70
255
  0
LAYER
  2
1
 70
64
 62
12
  6
CONTINUOUS
  0
LAYER
  2
16
 70
64
 62
132
  6
CONTINUOUS
  0
LAYER
  2
17
 70
64
 62
110
  6
CONTINUOUS
  0
LAYER
  2
18
 70
64
 62
110
  6
CONTINUOUS
  0
LAYER
  2
19
 70
64
 62
53
  6
CONTINUOUS
  0
LAYER
  2
20
 70
64
 62
53
  6
CONTINUOUS
  0
LAYER
  2
21
 70
64
 62
41
  6
CONTINUOUS
  0
LAYER
  2
22
 70
64
 62
40
  6
CONTINUOUS
  0
LAYER
  2
23
 70
64
 62
53
  6
CONTINUOUS
  0
LAYER
  2
24
 70
64
 62
53
  6
CONTINUOUS
  0
LAYER
  2
45
 70
64
 62
253
  6
CONTINUOUS
  0
LAYER
  2
49
 70
64
 62
253
  6
CONTINUOUS
  0
LAYER
  2
51
 70
64
 62
53
  6
CONTINUOUS
  0
ENDTAB
  0
ENDSEC
  0
SECTION
  2
BLOCKS
  0
BLOCK
  8
0
  2
RECT
 70
64
 10
0.0000
 20
0.0000
 30
0.0000
  3
RECT
  0
SOLID
  8
0
 10
-0.5000
 20
-0.5000
 30
0.0000
 11
0.5000
 21
-0.5000
 31
0.0000
 12
-0.5000
 22
0.5000
 32
0.0000
 13
0.5000
 23
0.5000
 33
0.0000
  0
ENDBLK
  8
0
  0
BLOCK
  8
0
  2
PIE
 70
64
 10
0.0000
 20
0.0000
 30
0.0000
  3
PIE
  0
POLYLINE
  8
0
 66
1
 10
0.0000
 20
0.0000
 30
0.0000
 40
0.5000
 41
0.5000
 70
0
  0
VERTEX
  8
0
 10
0.0000
 20
-0.2500
 30
0.0000
 42
1.0000
  0
VERTEX
  8
0
 10
0.0000
 20
0.2500
 30
0.0000
 42
1.0000
  0
VERTEX
  8
0
 10
0.0000
 20
-0.2500
 30
0.0000
  0
SEQEND
  8
0
  0
ENDBLK
  8
0
  0
BLOCK
  8
0
  2
OCTAGONP
 70
64
 10
0.0000
 20
0.0000
 30
0.0000
  3
OCTAGONP
  0
POLYLINE
  8
0
 66
1
 10
0.0000
 20
0.0000
 30
0.0000
 40
0.5000
 41
0.5000
 70
0
  0
VERTEX
  8
0
 10
-0.2500
 20
-0.1036
 30
0.0000
  0
VERTEX
  8
0
 10
-0.2500
 20
0.1036
 30
0.0000
  0
VERTEX
  8
0
 10
-0.1036
 20
0.2500
 30
0.0000
  0
VERTEX
  8
0
 10
0.1036
 20
0.2500
 30
0.0000
  0
VERTEX
  8
0
 10
0.2500
 20
0.1036
 30
0.0000
  0
VERTEX
  8
0
 10
0.2500
 20
-0.1036
 30
0.0000
  0
VERTEX
  8
0
 10
0.1036
 20
-0.2500
 30
0.0000
  0
VERTEX
  8
0
 10
-0.1036
 20
-0.2500
 30
0.0000
  0
VERTEX
  8
0
 10
-0.2500
 20
-0.1036
 30
0.0000
  0
VERTEX
  8
0
 10
-0.2500
 20
0.1036
 30
0.0000
  0
SEQEND
  8
0
  0
ENDBLK
  8
0
  0
BLOCK
  8
0
  2
SQUAREP
 70
64
 10
0.0000
 20
0.0000
 30
0.0000
  3
SQUAREP
  0
SOLID
  8
0
 10
-0.5000
 20
-0.5000
 30
0.0000
 11
0.5000
 21
-0.5000
 31
0.0000
 12
-0.5000
 22
0.5000
 32
0.0000
 13
0.5000
 23
0.5000
 33
0.0000
  0
ENDBLK
  8
0
  0
BLOCK
  8
0
  2
ROUNDP
 70
64
 10
0.0000
 20
0.0000
 30
0.0000
  3
ROUNDP
  0
POLYLINE
  8
0
 66
1
 10
0.0000
 20
0.0000
 30
0.0000
 40
0.5000
 41
0.5000
 70
0
  0
VERTEX
  8
0
 10
0.0000
 20
-0.2500
 30
0.0000
 42
1.0000
  0
VERTEX
  8
0
 10
0.0000
 20
0.2500
 30
0.0000
 42
1.0000
  0
VERTEX
  8
0
 10
0.0000
 20
-0.2500
 30
0.0000
  0
SEQEND
  8
0
  0
ENDBLK
  8
0
  0
BLOCK
  8
0
  2
ANNULUSP
 70
64
 10
0.0000
 20
0.0000
 30
0.0000
  3
ANNULUSP
  0
POLYLINE
  8
0
 66
1
 10
0.0000
 20
0.0000
 30
0.0000
 40
0.5000
 41
0.5000
 70
0
  0
VERTEX
  8
0
 10
0.0000
 20
-0.2500
 30
0.0000
 42
1.0000
  0
VERTEX
  8
0
 10
0.0000
 20
0.2500
 30
0.0000
 42
1.0000
  0
VERTEX
  8
0
 10
0.0000
 20
-0.2500
 30
0.0000
  0
SEQEND
  8
0
  0
ENDBLK
  8
0
  0
BLOCK
  8
0
  2
THERMALP
 70
64
 10
0.0000
 20
0.0000
 30
0.0000
  3
THERMALP
  0
POLYLINE
  8
0
 66
1
 10
0.0000
 20
0.0000
 30
0.0000
 40
0.1000
 41
0.1000
 70
0
  0
VERTEX
  8
0
 10
-0.2379
 20
0.4500
 30
0.0000
  0
VERTEX
  8
0
 10
0.2379
 20
0.4500
 30
0.0000
  0
SEQEND
  8
0
  0
POLYLINE
  8
0
 66
1
 10
0.0000
 20
0.0000
 30
0.0000
 40
0.0500
 41
0.0500
 70
0
  0
VERTEX
  8
0
 10
0.2379
 20
0.4250
 30
0.0000
 42
1.0000
  0
VERTEX
  8
0
 10
0.2379
 20
0.4750
 30
0.0000
  0
SEQEND
  8
0
  0
POLYLINE
  8
0
 66
1
 10
0.0000
 20
0.0000
 30
0.0000
 40
0.0500
 41
0.0500
 70
0
  0
VERTEX
  8
0
 10
-0.2379
 20
0.4750
 30
0.0000
 42
1.0000
  0
VERTEX
  8
0
 10
-0.2379
 20
0.4250
 30
0.0000
  0
SEQEND
  8
0
  0
POLYLINE
  8
0
 66
1
 10
0.0000
 20
0.0000
 30
0.0000
 40
0.1000
 41
0.1000
 70
0
  0
VERTEX
  8
0
 10
0.4500
 20
0.2379
 30
0.0000
  0
VERTEX
  8
0
 10
0.4500
 20
-0.2379
 30
0.0000
  0
SEQEND
  8
0
  0
POLYLINE
  8
0
 66
1
 10
0.0000
 20
0.0000
 30
0.0000
 40
0.0500
 41
0.0500
 70
0
  0
VERTEX
  8
0
 10
0.4250
 20
-0.2379
 30
0.0000
 42
1.0000
  0
VERTEX
  8
0
 10
0.4750
 20
-0.2379
 30
0.0000
  0
SEQEND
  8
0
  0
POLYLINE
  8
0
 66
1
 10
0.0000
 20
0.0000
 30
0.0000
 40
0.0500
 41
0.0500
 70
0
  0
VERTEX
  8
0
 10
0.4750
 20
0.2379
 30
0.0000
 42
1.0000
  0
VERTEX
  8
0
 10
0.4250
 20
0.2379
 30
0.0000
  0
SEQEND
  8
0
  0
POLYLINE
  8
0
 66
1
 10
0.0000
 20
0.0000
 30
0.0000
 40
0.1000
 41
0.1000
 70
0
  0
VERTEX
  8
0
 10
0.2379
 20
-0.4500
 30
0.0000
  0
VERTEX
  8
0
 10
-0.2379
 20
-0.4500
 30
0.0000
  0
SEQEND
  8
0
  0
POLYLINE
  8
0
 66
1
 10
0.0000
 20
0.0000
 30
0.0000
 40
0.0500
 41
0.0500
 70
0
  0
VERTEX
  8
0
 10
-0.2379
 20
-0.4250
 30
0.0000
 42
1.0000
  0
VERTEX
  8
0
 10
-0.2379
 20
-0.4750
 30
0.0000
  0
SEQEND
  8
0
  0
POLYLINE
  8
0
 66
1
 10
0.0000
 20
0.0000
 30
0.0000
 40
0.0500
 41
0.0500
 70
0
  0
VERTEX
  8
0
 10
0.2379
 20
-0.4750
 30
0.0000
 42
1.0000
  0
VERTEX
  8
0
 10
0.2379
 20
-0.4250
 30
0.0000
  0
SEQEND
  8
0
  0
POLYLINE
  8
0
 66
1
 10
0.0000
 20
0.0000
 30
0.0000
 40
0.1000
 41
0.1000
 70
0
  0
VERTEX
  8
0
 10
-0.4500
 20
-0.2379
 30
0.0000
  0
VERTEX
  8
0
 10
-0.4500
 20
0.2379
 30
0.0000
  0
SEQEND
  8
0
  0
POLYLINE
  8
0
 66
1
 10
0.0000
 20
0.0000
 30
0.0000
 40
0.0500
 41
0.0500
 70
0
  0
VERTEX
  8
0
 10
-0.4250
 20
0.2379
 30
0.0000
 42
1.0000
  0
VERTEX
  8
0
 10
-0.4750
 20
0.2379
 30
0.0000
  0
SEQEND
  8
0
  0
POLYLINE
  8
0
 66
1
 10
0.0000
 20
0.0000
 30
0.0000
 40
0.0500
 41
0.0500
 70
0
  0
VERTEX
  8
0
 10
-0.4750
 20
-0.2379
 30
0.0000
 42
1.0000
  0
VERTEX
  8
0
 10
-0.4250
 20
-0.2379
 30
0.0000
  0
SEQEND
  8
0
  0
ENDBLK
  8
0
  0
BLOCK
  8
0
  2
OCTAGONV
 70
64
 10
0.0000
 20
0.0000
 30
0.0000
  3
OCTAGONV
  0
POLYLINE
  8
0
 66
1
 10
0.0000
 20
0.0000
 30
0.0000
 40
0.5000
 41
0.5000
 70
0
  0
VERTEX
  8
0
 10
-0.2500
 20
-0.1036
 30
0.0000
  0
VERTEX
  8
0
 10
-0.2500
 20
0.1036
 30
0.0000
  0
VERTEX
  8
0
 10
-0.1036
 20
0.2500
 30
0.0000
  0
VERTEX
  8
0
 10
0.1036
 20
0.2500
 30
0.0000
  0
VERTEX
  8
0
 10
0.2500
 20
0.1036
 30
0.0000
  0
VERTEX
  8
0
 10
0.2500
 20
-0.1036
 30
0.0000
  0
VERTEX
  8
0
 10
0.1036
 20
-0.2500
 30
0.0000
  0
VERTEX
  8
0
 10
-0.1036
 20
-0.2500
 30
0.0000
  0
VERTEX
  8
0
 10
-0.2500
 20
-0.1036
 30
0.0000
  0
VERTEX
  8
0
 10
-0.2500
 20
0.1036
 30
0.0000
  0
SEQEND
  8
0
  0
ENDBLK
  8
0
  0
BLOCK
  8
0
  2
SQUAREV
 70
64
 10
0.0000
 20
0.0000
 30
0.0000
  3
SQUAREV
  0
SOLID
  8
0
 10
-0.5000
 20
-0.5000
 30
0.0000
 11
0.5000
 21
-0.5000
 31
0.0000
 12
-0.5000
 22
0.5000
 32
0.0000
 13
0.5000
 23
0.5000
 33
0.0000
  0
ENDBLK
  8
0
  0
BLOCK
  8
0
  2
ROUNDV
 70
64
 10
0.0000
 20
0.0000
 30
0.0000
  3
ROUNDV
  0
POLYLINE
  8
0
 66
1
 10
0.0000
 20
0.0000
 30
0.0000
 40
0.5000
 41
0.5000
 70
0
  0
VERTEX
  8
0
 10
0.0000
 20
-0.2500
 30
0.0000
 42
1.0000
  0
VERTEX
  8
0
 10
0.0000
 20
0.2500
 30
0.0000
 42
1.0000
  0
VERTEX
  8
0
 10
0.0000
 20
-0.2500
 30
0.0000
  0
SEQEND
  8
0
  0
ENDBLK
  8
0
  0
BLOCK
  8
0
  2
ANNULUSV
 70
64
 10
0.0000
 20
0.0000
 30
0.0000
  3
ANNULUSV
  0
POLYLINE
  8
0
 66
1
 10
0.0000
 20
0.0000
 30
0.0000
 40
0.5000
 41
0.5000
 70
0
  0
VERTEX
  8
0
 10
0.0000
 20
-0.2500
 30
0.0000
 42
1.0000
  0
VERTEX
  8
0
 10
0.0000
 20
0.2500
 30
0.0000
 42
1.0000
  0
VERTEX
  8
0
 10
0.0000
 20
-0.2500
 30
0.0000
  0
SEQEND
  8
0
  0
ENDBLK
  8
0
  0
BLOCK
  8
0
  2
THERMALV
 70
64
 10
0.0000
 20
0.0000
 30
0.0000
  3
THERMALV
  0
POLYLINE
  8
0
 66
1
 10
0.0000
 20
0.0000
 30
0.0000
 40
0.1000
 41
0.1000
 70
0
  0
VERTEX
  8
0
 10
-0.2379
 20
0.4500
 30
0.0000
  0
VERTEX
  8
0
 10
0.2379
 20
0.4500
 30
0.0000
  0
SEQEND
  8
0
  0
POLYLINE
  8
0
 66
1
 10
0.0000
 20
0.0000
 30
0.0000
 40
0.0500
 41
0.0500
 70
0
  0
VERTEX
  8
0
 10
0.2379
 20
0.4250
 30
0.0000
 42
1.0000
  0
VERTEX
  8
0
 10
0.2379
 20
0.4750
 30
0.0000
  0
SEQEND
  8
0
  0
POLYLINE
  8
0
 66
1
 10
0.0000
 20
0.0000
 30
0.0000
 40
0.0500
 41
0.0500
 70
0
  0
VERTEX
  8
0
 10
-0.2379
 20
0.4750
 30
0.0000
 42
1.0000
  0
VERTEX
  8
0
 10
-0.2379
 20
0.4250
 30
0.0000
  0
SEQEND
  8
0
  0
POLYLINE
  8
0
 66
1
 10
0.0000
 20
0.0000
 30
0.0000
 40
0.1000
 41
0.1000
 70
0
  0
VERTEX
  8
0
 10
0.4500
 20
0.2379
 30
0.0000
  0
VERTEX
  8
0
 10
0.4500
 20
-0.2379
 30
0.0000
  0
SEQEND
  8
0
  0
POLYLINE
  8
0
 66
1
 10
0.0000
 20
0.0000
 30
0.0000
 40
0.0500
 41
0.0500
 70
0
  0
VERTEX
  8
0
 10
0.4250
 20
-0.2379
 30
0.0000
 42
1.0000
  0
VERTEX
  8
0
 10
0.4750
 20
-0.2379
 30
0.0000
  0
SEQEND
  8
0
  0
POLYLINE
  8
0
 66
1
 10
0.0000
 20
0.0000
 30
0.0000
 40
0.0500
 41
0.0500
 70
0
  0
VERTEX
  8
0
 10
0.4750
 20
0.2379
 30
0.0000
 42
1.0000
  0
VERTEX
  8
0
 10
0.4250
 20
0.2379
 30
0.0000
  0
SEQEND
  8
0
  0
POLYLINE
  8
0
 66
1
 10
0.0000
 20
0.0000
 30
0.0000
 40
0.1000
 41
0.1000
 70
0
  0
VERTEX
  8
0
 10
0.2379
 20
-0.4500
 30
0.0000
  0
VERTEX
  8
0
 10
-0.2379
 20
-0.4500
 30
0.0000
  0
SEQEND
  8
0
  0
POLYLINE
  8
0
 66
1
 10
0.0000
 20
0.0000
 30
0.0000
 40
0.0500
 41
0.0500
 70
0
  0
VERTEX
  8
0
 10
-0.2379
 20
-0.4250
 30
0.0000
 42
1.0000
  0
VERTEX
  8
0
 10
-0.2379
 20
-0.4750
 30
0.0000
  0
SEQEND
  8
0
  0
POLYLINE
  8
0
 66
1
 10
0.0000
 20
0.0000
 30
0.0000
 40
0.0500
 41
0.0500
 70
0
  0
VERTEX
  8
0
 10
0.2379
 20
-0.4750
 30
0.0000
 42
1.0000
  0
VERTEX
  8
0
 10
0.2379
 20
-0.4250
 30
0.0000
  0
SEQEND
  8
0
  0
POLYLINE
  8
0
 66
1
 10
0.0000
 20
0.0000
 30
0.0000
 40
0.1000
 41
0.1000
 70
0
  0
VERTEX
  8
0
 10
-0.4500
 20
-0.2379
 30
0.0000
  0
VERTEX
  8
0
 10
-0.4500
 20
0.2379
 30
0.0000
  0
SEQEND
  8
0
  0
POLYLINE
  8
0
 66
1
 10
0.0000
 20
0.0000
 30
0.0000
 40
0.0500
 41
0.0500
 70
0
  0
VERTEX
  8
0
 10
-0.4250
 20
0.2379
 30
0.0000
 42
1.0000
  0
VERTEX
  8
0
 10
-0.4750
 20
0.2379
 30
0.0000
  0
SEQEND
  8
0
  0
POLYLINE
  8
0
 66
1
 10
0.0000
 20
0.0000
 30
0.0000
 40
0.0500
 41
0.0500
 70
0
  0
VERTEX
  8
0
 10
-0.4750
 20
-0.2379
 30
0.0000
 42
1.0000
  0
VERTEX
  8
0
 10
-0.4250
 20
-0.2379
 30
0.0000
  0
SEQEND
  8
0
  0
ENDBLK
  8
0
  0
ENDSEC
  0
SECTION
  2
ENTITIES
  0
POLYLINE
  8
20
 66
1
 10
0.0000
 20
0.0000
 30
0.0000
 40
0.2032
 41
0.2032
 70
0
  0
VERTEX
  8
20
 10
6.3500
 20
20.3200
 30
0.0000
  0
VERTEX
  8
20
 10
13.9700
 20
20.3200
 30
0.0000
  0
SEQEND
  8
0
  0
POLYLINE
  8
20
 66
1
 10
0.0000
 20
0.0000
 30
0.0000
 40
0.1016
 41
0.1016
 70
0
  0
VERTEX
  8
20
 10
13.9700
 20
20.2692
 30
0.0000
 42
1.0000
  0
VERTEX
  8
20
 10
13.9700
 20
20.3708
 30
0.0000
  0
SEQEND
  8
0
  0
POLYLINE
  8
20
 66
1
 10
0.0000
 20
0.0000
 30
0.0000
 40
0.1016
 41
0.1016
 70
0
  0
VERTEX
  8
20
 10
6.3500
 20
20.3708
 30
0.0000
 42
1.0000
  0
VERTEX
  8
20
 10
6.3500
 20
20.2692
 30
0.0000
  0
SEQEND
  8
0
  0
POLYLINE
  8
20
 66
1
 10
0.0000
 20
0.0000
 30
0.0000
 40
0.2032
 41
0.2032
 70
0
  0
VERTEX
  8
20
 10
20.3200
 20
6.3500
 30
0.0000
  0
VERTEX
  8
20
 10
15.7480
 20
6.3500
 30
0.0000
  0
SEQEND
  8
0
  0
POLYLINE
  8
20
 66
1
 10
0.0000
 20
0.0000
 30
0.0000
 40
0.1016
 41
0.1016
 70
0
  0
VERTEX
  8
20
 10
15.7480
 20
6.4008
 30
0.0000
 42
1.0000
  0
VERTEX
  8
20
 10
15.7480
 20
6.2992
 30
0.0000
  0
SEQEND
  8
0
  0
POLYLINE
  8
20
 66
1
 10
0.0000
 20
0.0000
 30
0.0000
 40
0.1016
 41
0.1016
 70
0
  0
VERTEX
  8
20
 10
20.3200
 20
6.2992
 30
0.0000
 42
1.0000
  0
VERTEX
  8
20
 10
20.3200
 20
6.4008
 30
0.0000
  0
SEQEND
  8
0
  0
POLYLINE
  8
20
 66
1
 10
0.0000
 20
0.0000
 30
0.0000
 40
0.2032
 41
0.2032
 70
0
  0
VERTEX
  8
20
 10
20.3200
 20
13.9700
 30
0.0000
  0
VERTEX
  8
20
 10
20.3200
 20
6.3500
 30
0.0000
  0
SEQEND
  8
0
  0
POLYLINE
  8
20
 66
1
 10
0.0000
 20
0.0000
 30
0.0000
 40
0.1016
 41
0.1016
 70
0
  0
VERTEX
  8
20
 10
20.2692
 20
6.3500
 30
0.0000
 42
1.0000
  0
VERTEX
  8
20
 10
20.3708
 20
6.3500
 30
0.0000
  0
SEQEND
  8
0
  0
POLYLINE
  8
20
 66
1
 10
0.0000
 20
0.0000
 30
0.0000
 40
0.1016
 41
0.1016
 70
0
  0
VERTEX
  8
20
 10
20.3708
 20
13.9700
 30
0.0000
 42
1.0000
  0
VERTEX
  8
20
 10
20.2692
 20
13.9700
 30
0.0000
  0
SEQEND
  8
0
  0
POLYLINE
  8
20
 66
1
 10
0.0000
 20
0.0000
 30
0.0000
 40
0.2032
 41
0.2032
 70
0
  0
VERTEX
  8
20
 10
13.9700
 20
4.5720
 30
0.0000
  0
VERTEX
  8
20
 10
13.9700
 20
0.0000
 30
0.0000
  0
SEQEND
  8
0
  0
POLYLINE
  8
20
 66
1
 10
0.0000
 20
0.0000
 30
0.0000
 40
0.1016
 41
0.1016
 70
0
  0
VERTEX
  8
20
 10
13.9192
 20
0.0000
 30
0.0000
 42
1.0000
  0
VERTEX
  8
20
 10
14.0208
 20
0.0000
 30
0.0000
  0
SEQEND
  8
0
  0
POLYLINE
  8
20
 66
1
 10
0.0000
 20
0.0000
 30
0.0000
 40
0.1016
 41
0.1016
 70
0
  0
VERTEX
  8
20
 10
14.0208
 20
4.5720
 30
0.0000
 42
1.0000
  0
VERTEX
  8
20
 10
13.9192
 20
4.5720
 30
0.0000
  0
SEQEND
  8
0
  0
POLYLINE
  8
20
 66
1
 10
0.0000
 20
0.0000
 30
0.0000
 40
0.2032
 41
0.2032
 70
0
  0
VERTEX
  8
20
 10
13.9700
 20
0.0000
 30
0.0000
  0
VERTEX
  8
20
 10
6.3500
 20
0.0000
 30
0.0000
  0
SEQEND
  8
0
  0
POLYLINE
  8
20
 66
1
 10
0.0000
 20
0.0000
 30
0.0000
 40
0.1016
 41
0.1016
 70
0
  0
VERTEX
  8
20
 10
6.3500
 20
0.0508
 30
0.0000
 42
1.0000
  0
VERTEX
  8
20
 10
6.3500
 20
-0.0508
 30
0.0000
  0
SEQEND
  8
0
  0
POLYLINE
  8
20
 66
1
 10
0.0000
 20
0.0000
 30
0.0000
 40
0.1016
 41
0.1016
 70
0
  0
VERTEX
  8
20
 10
13.9700
 20
-0.0508
 30
0.0000
 42
1.0000
  0
VERTEX
  8
20
 10
13.9700
 20
0.0508
 30
0.0000
  0
SEQEND
  8
0
  0
POLYLINE
  8
20
 66
1
 10
0.0000
 20
0.0000
 30
0.0000
 40
0.2032
 41
0.2032
 70
0
  0
VERTEX
  8
20
 10
6.3500
 20
0.0000
 30
0.0000
  0
VERTEX
  8
20
 10
6.3500
 20
4.5720
 30
0.0000
  0
SEQEND
  8
0
  0
POLYLINE
  8
20
 66
1
 10
0.0000
 20
0.0000
 30
0.0000
 40
0.1016
 41
0.1016
 70
0
  0
VERTEX
  8
20
 10
6.4008
 20
4.5720
 30
0.0000
 42
1.0000
  0
VERTEX
  8
20
 10
6.2992
 20
4.5720
 30
0.0000
  0
SEQEND
  8
0
  0
POLYLINE
  8
20
 66
1
 10
0.0000
 20
0.0000
 30
0.0000
 40
0.1016
 41
0.1016
 70
0
  0
VERTEX
  8
20
 10
6.2992
 20
0.0000
 30
0.0000
 42
1.0000
  0
VERTEX
  8
20
 10
6.4008
 20
0.0000
 30
0.0000
  0
SEQEND
  8
0
  0
POLYLINE
  8
20
 66
1
 10
0.0000
 20
0.0000
 30
0.0000
 40
0.2032
 41
0.2032
 70
0
  0
VERTEX
  8
20
 10
4.5720
 20
6.3500
 30
0.0000
  0
VERTEX
  8
20
 10
0.0000
 20
6.3500
 30
0.0000
  0
SEQEND
  8
0
  0
POLYLINE
  8
20
 66
1
 10
0.0000
 20
0.0000
 30
0.0000
 40
0.1016
 41
0.1016
 70
0
  0
VERTEX
  8
20
 10
0.0000
 20
6.4008
 30
0.0000
 42
1.0000
  0
VERTEX
  8
20
 10
0.0000
 20
6.2992
 30
0.0000
  0
SEQEND
  8
0
  0
POLYLINE
  8
20
 66
1
 10
0.0000
 20
0.0000
 30
0.0000
 40
0.1016
 41
0.1016
 70
0
  0
VERTEX
  8
20
 10
4.5720
 20
6.2992
 30
0.0000
 42
1.0000
  0
VERTEX
  8
20
 10
4.5720
 20
6.4008
 30
0.0000
  0
SEQEND
  8
0
  0
POLYLINE
  8
20
 66
1
 10
0.0000
 20
0.0000
 30
0.0000
 40
0.2032
 41
0.2032
 70
0
  0
VERTEX
  8
20
 10
0.0000
 20
6.3500
 30
0.0000
  0
VERTEX
  8
20
 10
0.0000
 20
13.9700
 30
0.0000
  0
SEQEND
  8
0
  0
POLYLINE
  8
20
 66
1
 10
0.0000
 20
0.0000
 30
0.0000
 40
0.1016
 41
0.1016
 70
0
  0
VERTEX
  8
20
 10
0.0508
 20
13.9700
 30
0.0000
 42
1.0000
  0
VERTEX
  8
20
 10
-0.0508
 20
13.9700
 30
0.0000
  0
SEQEND
  8
0
  0
POLYLINE
  8
20
 66
1
 10
0.0000
 20
0.0000
 30
0.0000
 40
0.1016
 41
0.1016
 70
0
  0
VERTEX
  8
20
 10
-0.0508
 20
6.3500
 30
0.0000
 42
1.0000
  0
VERTEX
  8
20
 10
0.0508
 20
6.3500
 30
0.0000
  0
SEQEND
  8
0
  0
POLYLINE
  8
20
 66
1
 10
0.0000
 20
0.0000
 30
0.0000
 40
0.2032
 41
0.2032
 70
0
  0
VERTEX
  8
20
 10
0.0000
 20
13.9700
 30
0.0000
  0
VERTEX
  8
20
 10
4.5720
 20
13.9700
 30
0.0000
  0
SEQEND
  8
0
  0
POLYLINE
  8
20
 66
1
 10
0.0000
 20
0.0000
 30
0.0000
 40
0.1016
 41
0.1016
 70
0
  0
VERTEX
  8
20
 10
4.5720
 20
13.9192
 30
0.0000
 42
1.0000
  0
VERTEX
  8
20
 10
4.5720
 20
14.0208
 30
0.0000
  0
SEQEND
  8
0
  0
POLYLINE
  8
20
 66
1
 10
0.0000
 20
0.0000
 30
0.0000
 40
0.1016
 41
0.1016
 70
0
  0
VERTEX
  8
20
 10
0.0000
 20
14.0208
 30
0.0000
 42
1.0000
  0
VERTEX
  8
20
 10
0.0000
 20
13.9192
 30
0.0000
  0
SEQEND
  8
0
  0
POLYLINE
  8
20
 66
1
 10
0.0000
 20
0.0000
 30
0.0000
 40
0.2032
 41
0.2032
 70
0
  0
VERTEX
  8
20
 10
6.3500
 20
15.7480
 30
0.0000
  0
VERTEX
  8
20
 10
6.3500
 20
20.3200
 30
0.0000
  0
SEQEND
  8
0
  0
POLYLINE
  8
20
 66
1
 10
0.0000
 20
0.0000
 30
0.0000
 40
0.1016
 41
0.1016
 70
0
  0
VERTEX
  8
20
 10
6.4008
 20
20.3200
 30
0.0000
 42
1.0000
  0
VERTEX
  8
20
 10
6.2992
 20
20.3200
 30
0.0000
  0
SEQEND
  8
0
  0
POLYLINE
  8
20
 66
1
 10
0.0000
 20
0.0000
 30
0.0000
 40
0.1016
 41
0.1016
 70
0
  0
VERTEX
  8
20
 10
6.2992
 20
15.7480
 30
0.0000
 42
1.0000
  0
VERTEX
  8
20
 10
6.4008
 20
15.7480
 30
0.0000
  0
SEQEND
  8
0
  0
POLYLINE
  8
20
 66
1
 10
0.0000
 20
0.0000
 30
0.0000
 40
0.2032
 41
0.2032
 70
0
  0
VERTEX
  8
20
 10
13.9700
 20
20.3200
 30
0.0000
  0
VERTEX
  8
20
 10
13.9700
 20
15.7480
 30
0.0000
  0
SEQEND
  8
0
  0
POLYLINE
  8
20
 66
1
 10
0.0000
 20
0.0000
 30
0.0000
 40
0.1016
 41
0.1016
 70
0
  0
VERTEX
  8
20
 10
13.9192
 20
15.7480
 30
0.0000
 42
1.0000
  0
VERTEX
  8
20
 10
14.0208
 20
15.7480
 30
0.0000
  0
SEQEND
  8
0
  0
POLYLINE
  8
20
 66
1
 10
0.0000
 20
0.0000
 30
0.0000
 40
0.1016
 41
0.1016
 70
0
  0
VERTEX
  8
20
 10
14.0208
 20
20.3200
 30
0.0000
 42
1.0000
  0
VERTEX
  8
20
 10
13.9192
 20
20.3200
 30
0.0000
  0
SEQEND
  8
0
  0
POLYLINE
  8
20
 66
1
 10
0.0000
 20
0.0000
 30
0.0000
 40
0.2032
 41
0.2032
 70
0
  0
VERTEX
  8
20
 10
4.5720
 20
13.9700
 30
0.0000
 42
0.4142
  0
VERTEX
  8
20
 10
6.3500
 20
15.7480
 30
0.0000
  0
SEQEND
  8
0
  0
POLYLINE
  8
20
 66
1
 10
0.0000
 20
0.0000
 30
0.0000
 40
0.1016
 41
0.1016
 70
0
  0
VERTEX
  8
20
 10
4.5720
 20
14.0208
 30
0.0000
 42
1.0000
  0
VERTEX
  8
20
 10
4.5720
 20
13.9192
 30
0.0000
  0
SEQEND
  8
0
  0
POLYLINE
  8
20
 66
1
 10
0.0000
 20
0.0000
 30
0.0000
 40
0.1016
 41
0.1016
 70
0
  0
VERTEX
  8
20
 10
6.4008
 20
15.7480
 30
0.0000
 42
1.0000
  0
VERTEX
  8
20
 10
6.2992
 20
15.7480
 30
0.0000
  0
SEQEND
  8
0
  0
POLYLINE
  8
20
 66
1
 10
0.0000
 20
0.0000
 30
0.0000
 40
0.2032
 41
0.2032
 70
0
  0
VERTEX
  8
20
 10
6.3500
 20
4.5720
 30
0.0000
 42
0.4142
  0
VERTEX
  8
20
 10
4.5720
 20
6.3500
 30
0.0000
  0
SEQEND
  8
0
  0
POLYLINE
  8
20
 66
1
 10
0.0000
 20
0.0000
 30
0.0000
 40
0.1016
 41
0.1016
 70
0
  0
VERTEX
  8
20
 10
6.2992
 20
4.5720
 30
0.0000
 42
1.0000
  0
VERTEX
  8
20
 10
6.4008
 20
4.5720
 30
0.0000
  0
SEQEND
  8
0
  0
POLYLINE
  8
20
 66
1
 10
0.0000
 20
0.0000
 30
0.0000
 40
0.1016
 41
0.1016
 70
0
  0
VERTEX
  8
20
 10
4.5720
 20
6.4008
 30
0.0000
 42
1.0000
  0
VERTEX
  8
20
 10
4.5720
 20
6.2992
 30
0.0000
  0
SEQEND
  8
0
  0
POLYLINE
  8
20
 66
1
 10
0.0000
 20
0.0000
 30
0.0000
 40
0.2032
 41
0.2032
 70
0
  0
VERTEX
  8
20
 10
15.7480
 20
6.3500
 30
0.0000
 42
0.4142
  0
VERTEX
  8
20
 10
13.9700
 20
4.5720
 30
0.0000
  0
SEQEND
  8
0
  0
POLYLINE
  8
20
 66
1
 10
0.0000
 20
0.0000
 30
0.0000
 40
0.1016
 41
0.1016
 70
0
  0
VERTEX
  8
20
 10
15.7480
 20
6.2992
 30
0.0000
 42
1.0000
  0
VERTEX
  8
20
 10
15.7480
 20
6.4008
 30
0.0000
  0
SEQEND
  8
0
  0
POLYLINE
  8
20
 66
1
 10
0.0000
 20
0.0000
 30
0.0000
 40
0.1016
 41
0.1016
 70
0
  0
VERTEX
  8
20
 10
13.9192
 20
4.5720
 30
0.0000
 42
1.0000
  0
VERTEX
  8
20
 10
14.0208
 20
4.5720
 30
0.0000
  0
SEQEND
  8
0
  0
POLYLINE
  8
20
 66
1
 10
0.0000
 20
0.0000
 30
0.0000
 40
0.2032
 41
0.2032
 70
0
  0
VERTEX
  8
20
 10
13.9700
 20
15.7480
 30
0.0000
 42
0.4142
  0
VERTEX
  8
20
 10
15.7480
 20
13.9700
 30
0.0000
  0
SEQEND
  8
0
  0
POLYLINE
  8
20
 66
1
 10
0.0000
 20
0.0000
 30
0.0000
 40
0.1016
 41
0.1016
 70
0
  0
VERTEX
  8
20
 10
14.0208
 20
15.7480
 30
0.0000
 42
1.0000
  0
VERTEX
  8
20
 10
13.9192
 20
15.7480
 30
0.0000
  0
SEQEND
  8
0
  0
POLYLINE
  8
20
 66
1
 10
0.0000
 20
0.0000
 30
0.0000
 40
0.1016
 41
0.1016
 70
0
  0
VERTEX
  8
20
 10
15.7480
 20
13.9192
 30
0.0000
 42
1.0000
  0
VERTEX
  8
20
 10
15.7480
 20
14.0208
 30
0.0000
  0
SEQEND
  8
0
  0
POLYLINE
  8
20
 66
1
 10
0.0000
 20
0.0000
 30
0.0000
 40
0.2032
 41
0.2032
 70
0
  0
VERTEX
  8
20
 10
15.7480
 20
13.9700
 30
0.0000
  0
VERTEX
  8
20
 10
20.3200
 20
13.9700
 30
0.0000
  0
SEQEND
  8
0
  0
POLYLINE
  8
20
 66
1
 10
0.0000
 20
0.0000
 30
0.0000
 40
0.1016
 41
0.1016
 70
0
  0
VERTEX
  8
20
 10
20.3200
 20
13.9192
 30
0.0000
 42
1.0000
  0
VERTEX
  8
20
 10
20.3200
 20
14.0208
 30
0.0000
  0
SEQEND
  8
0
  0
POLYLINE
  8
20
 66
1
 10
0.0000
 20
0.0000
 30
0.0000
 40
0.1016
 41
0.1016
 70
0
  0
VERTEX
  8
20
 10
15.7480
 20
14.0208
 30
0.0000
 42
1.0000
  0
VERTEX
  8
20
 10
15.7480
 20
13.9192
 30
0.0000
  0
SEQEND
  8
0
  0
POLYLINE
  8
21
 66
1
 10
0.0000
 20
0.0000
 30
0.0000
 40
0.1524
 41
0.1524
 70
0
  0
VERTEX
  8
21
 10
9.1403
 20
8.5889
 30
0.0000
  0
VERTEX
  8
21
 10
9.9072
 20
9.3559
 30
0.0000
  0
SEQEND
  8
0
  0
POLYLINE
  8
21
 66
1
 10
0.0000
 20
0.0000
 30
0.0000
 40
0.0762
 41
0.0762
 70
0
  0
VERTEX
  8
21
 10
9.9342
 20
9.3289
 30
0.0000
 42
1.0000
  0
VERTEX
  8
21
 10
9.8803
 20
9.3828
 30
0.0000
  0
SEQEND
  8
0
  0
POLYLINE
  8
21
 66
1
 10
0.0000
 20
0.0000
 30
0.0000
 40
0.0762
 41
0.0762
 70
0
  0
VERTEX
  8
21
 10
9.1133
 20
8.6158
 30
0.0000
 42
1.0000
  0
VERTEX
  8
21
 10
9.1672
 20
8.5619
 30
0.0000
  0
SEQEND
  8
0
  0
POLYLINE
  8
21
 66
1
 10
0.0000
 20
0.0000
 30
0.0000
 40
0.1524
 41
0.1524
 70
0
  0
VERTEX
  8
21
 10
9.1403
 20
9.3559
 30
0.0000
  0
VERTEX
  8
21
 10
9.9072
 20
8.5889
 30
0.0000
  0
SEQEND
  8
0
  0
POLYLINE
  8
21
 66
1
 10
0.0000
 20
0.0000
 30
0.0000
 40
0.0762
 41
0.0762
 70
0
  0
VERTEX
  8
21
 10
9.8803
 20
8.5619
 30
0.0000
 42
1.0000
  0
VERTEX
  8
21
 10
9.9342
 20
8.6158
 30
0.0000
  0
SEQEND
  8
0
  0
POLYLINE
  8
21
 66
1
 10
0.0000
 20
0.0000
 30
0.0000
 40
0.0762
 41
0.0762
 70
0
  0
VERTEX
  8
21
 10
9.1672
 20
9.3828
 30
0.0000
 42
1.0000
  0
VERTEX
  8
21
 10
9.1133
 20
9.3289
 30
0.0000
  0
SEQEND
  8
0
  0
POLYLINE
  8
21
 66
1
 10
0.0000
 20
0.0000
 30
0.0000
 40
0.1524
 41
0.1524
 70
0
  0
VERTEX
  8
21
 10
11.0136
 20
10.4621
 30
0.0000
  0
VERTEX
  8
21
 10
11.7805
 20
11.2291
 30
0.0000
  0
SEQEND
  8
0
  0
POLYLINE
  8
21
 66
1
 10
0.0000
 20
0.0000
 30
0.0000
 40
0.0762
 41
0.0762
 70
0
  0
VERTEX
  8
21
 10
11.8075
 20
11.2021
 30
0.0000
 42
1.0000
  0
VERTEX
  8
21
 10
11.7536
 20
11.2560
 30
0.0000
  0
SEQEND
  8
0
  0
POLYLINE
  8
21
 66
1
 10
0.0000
 20
0.0000
 30
0.0000
 40
0.0762
 41
0.0762
 70
0
  0
VERTEX
  8
21
 10
10.9866
 20
10.4890
 30
0.0000
 42
1.0000
  0
VERTEX
  8
21
 10
11.0405
 20
10.4351
 30
0.0000
  0
SEQEND
  8
0
  0
POLYLINE
  8
22
 66
1
 10
0.0000
 20
0.0000
 30
0.0000
 40
0.1778
 41
0.1778
 70
0
  0
VERTEX
  8
22
 10
12.3621
 20
10.4992
 30
0.0000
  0
VERTEX
  8
22
 10
12.2632
 20
10.4003
 30
0.0000
  0
SEQEND
  8
0
  0
POLYLINE
  8
22
 66
1
 10
0.0000
 20
0.0000
 30
0.0000
 40
0.0889
 41
0.0889
 70
0
  0
VERTEX
  8
22
 10
12.2318
 20
10.4318
 30
0.0000
 42
1.0000
  0
VERTEX
  8
22
 10
12.2946
 20
10.3689
 30
0.0000
  0
SEQEND
  8
0
  0
POLYLINE
  8
22
 66
1
 10
0.0000
 20
0.0000
 30
0.0000
 40
0.0889
 41
0.0889
 70
0
  0
VERTEX
  8
22
 10
12.3935
 20
10.4678
 30
0.0000
 42
1.0000
  0
VERTEX
  8
22
 10
12.3307
 20
10.5306
 30
0.0000
  0
SEQEND
  8
0
  0
POLYLINE
  8
22
 66
1
 10
0.0000
 20
0.0000
 30
0.0000
 40
0.1778
 41
0.1778
 70
0
  0
VERTEX
  8
22
 10
12.2632
 20
10.4003
 30
0.0000
  0
VERTEX
  8
22
 10
12.8564
 20
9.8071
 30
0.0000
  0
SEQEND
  8
0
  0
POLYLINE
  8
22
 66
1
 10
0.0000
 20
0.0000
 30
0.0000
 40
0.0889
 41
0.0889
 70
0
  0
VERTEX
  8
22
 10
12.8250
 20
9.7757
 30
0.0000
 42
1.0000
  0
VERTEX
  8
22
 10
12.8878
 20
9.8386
 30
0.0000
  0
SEQEND
  8
0
  0
POLYLINE
  8
22
 66
1
 10
0.0000
 20
0.0000
 30
0.0000
 40
0.0889
 41
0.0889
 70
0
  0
VERTEX
  8
22
 10
12.2946
 20
10.4318
 30
0.0000
 42
1.0000
  0
VERTEX
  8
22
 10
12.2318
 20
10.3689
 30
0.0000
  0
SEQEND
  8
0
  0
POLYLINE
  8
22
 66
1
 10
0.0000
 20
0.0000
 30
0.0000
 40
0.1778
 41
0.1778
 70
0
  0
VERTEX
  8
22
 10
12.9553
 20
9.9060
 30
0.0000
  0
VERTEX
  8
22
 10
12.7576
 20
9.7083
 30
0.0000
  0
SEQEND
  8
0
  0
POLYLINE
  8
22
 66
1
 10
0.0000
 20
0.0000
 30
0.0000
 40
0.0889
 41
0.0889
 70
0
  0
VERTEX
  8
22
 10
12.7261
 20
9.7397
 30
0.0000
 42
1.0000
  0
VERTEX
  8
22
 10
12.7890
 20
9.6768
 30
0.0000
  0
SEQEND
  8
0
  0
POLYLINE
  8
22
 66
1
 10
0.0000
 20
0.0000
 30
0.0000
 40
0.0889
 41
0.0889
 70
0
  0
VERTEX
  8
22
 10
12.9867
 20
9.8746
 30
0.0000
 42
1.0000
  0
VERTEX
  8
22
 10
12.9239
 20
9.9374
 30
0.0000
  0
SEQEND
  8
0
  0
POLYLINE
  8
22
 66
1
 10
0.0000
 20
0.0000
 30
0.0000
 40
0.1778
 41
0.1778
 70
0
  0
VERTEX
  8
22
 10
12.2177
 20
9.1684
 30
0.0000
  0
VERTEX
  8
22
 10
12.4154
 20
9.3661
 30
0.0000
  0
SEQEND
  8
0
  0
POLYLINE
  8
22
 66
1
 10
0.0000
 20
0.0000
 30
0.0000
 40
0.0889
 41
0.0889
 70
0
  0
VERTEX
  8
22
 10
12.4468
 20
9.3347
 30
0.0000
 42
1.0000
  0
VERTEX
  8
22
 10
12.3840
 20
9.3975
 30
0.0000
  0
SEQEND
  8
0
  0
POLYLINE
  8
22
 66
1
 10
0.0000
 20
0.0000
 30
0.0000
 40
0.0889
 41
0.0889
 70
0
  0
VERTEX
  8
22
 10
12.1862
 20
9.1998
 30
0.0000
 42
1.0000
  0
VERTEX
  8
22
 10
12.2491
 20
9.1370
 30
0.0000
  0
SEQEND
  8
0
  0
POLYLINE
  8
22
 66
1
 10
0.0000
 20
0.0000
 30
0.0000
 40
0.1778
 41
0.1778
 70
0
  0
VERTEX
  8
22
 10
12.4154
 20
9.3661
 30
0.0000
  0
VERTEX
  8
22
 10
12.4154
 20
9.5639
 30
0.0000
  0
SEQEND
  8
0
  0
POLYLINE
  8
22
 66
1
 10
0.0000
 20
0.0000
 30
0.0000
 40
0.0889
 41
0.0889
 70
0
  0
VERTEX
  8
22
 10
12.4599
 20
9.5639
 30
0.0000
 42
1.0000
  0
VERTEX
  8
22
 10
12.3710
 20
9.5639
 30
0.0000
  0
SEQEND
  8
0
  0
POLYLINE
  8
22
 66
1
 10
0.0000
 20
0.0000
 30
0.0000
 40
0.0889
 41
0.0889
 70
0
  0
VERTEX
  8
22
 10
12.3710
 20
9.3661
 30
0.0000
 42
1.0000
  0
VERTEX
  8
22
 10
12.4599
 20
9.3661
 30
0.0000
  0
SEQEND
  8
0
  0
POLYLINE
  8
22
 66
1
 10
0.0000
 20
0.0000
 30
0.0000
 40
0.1778
 41
0.1778
 70
0
  0
VERTEX
  8
22
 10
12.4154
 20
9.5639
 30
0.0000
  0
VERTEX
  8
22
 10
12.2177
 20
9.7616
 30
0.0000
  0
SEQEND
  8
0
  0
POLYLINE
  8
22
 66
1
 10
0.0000
 20
0.0000
 30
0.0000
 40
0.0889
 41
0.0889
 70
0
  0
VERTEX
  8
22
 10
12.2491
 20
9.7930
 30
0.0000
 42
1.0000
  0
VERTEX
  8
22
 10
12.1862
 20
9.7302
 30
0.0000
  0
SEQEND
  8
0
  0
POLYLINE
  8
22
 66
1
 10
0.0000
 20
0.0000
 30
0.0000
 40
0.0889
 41
0.0889
 70
0
  0
VERTEX
  8
22
 10
12.3840
 20
9.5324
 30
0.0000
 42
1.0000
  0
VERTEX
  8
22
 10
12.4468
 20
9.5953
 30
0.0000
  0
SEQEND
  8
0
  0
POLYLINE
  8
22
 66
1
 10
0.0000
 20
0.0000
 30
0.0000
 40
0.1778
 41
0.1778
 70
0
  0
VERTEX
  8
22
 10
12.2177
 20
9.7616
 30
0.0000
  0
VERTEX
  8
22
 10
12.0199
 20
9.7616
 30
0.0000
  0
SEQEND
  8
0
  0
POLYLINE
  8
22
 66
1
 10
0.0000
 20
0.0000
 30
0.0000
 40
0.0889
 41
0.0889
 70
0
  0
VERTEX
  8
22
 10
12.0199
 20
9.8060
 30
0.0000
 42
1.0000
  0
VERTEX
  8
22
 10
12.0199
 20
9.7171
 30
0.0000
  0
SEQEND
  8
0
  0
POLYLINE
  8
22
 66
1
 10
0.0000
 20
0.0000
 30
0.0000
 40
0.0889
 41
0.0889
 70
0
  0
VERTEX
  8
22
 10
12.2177
 20
9.7171
 30
0.0000
 42
1.0000
  0
VERTEX
  8
22
 10
12.2177
 20
9.8060
 30
0.0000
  0
SEQEND
  8
0
  0
POLYLINE
  8
22
 66
1
 10
0.0000
 20
0.0000
 30
0.0000
 40
0.1778
 41
0.1778
 70
0
  0
VERTEX
  8
22
 10
12.0199
 20
9.7616
 30
0.0000
  0
VERTEX
  8
22
 10
11.8222
 20
9.5639
 30
0.0000
  0
SEQEND
  8
0
  0
POLYLINE
  8
22
 66
1
 10
0.0000
 20
0.0000
 30
0.0000
 40
0.0889
 41
0.0889
 70
0
  0
VERTEX
  8
22
 10
11.7908
 20
9.5953
 30
0.0000
 42
1.0000
  0
VERTEX
  8
22
 10
11.8536
 20
9.5324
 30
0.0000
  0
SEQEND
  8
0
  0
POLYLINE
  8
22
 66
1
 10
0.0000
 20
0.0000
 30
0.0000
 40
0.0889
 41
0.0889
 70
0
  0
VERTEX
  8
22
 10
12.0514
 20
9.7302
 30
0.0000
 42
1.0000
  0
VERTEX
  8
22
 10
11.9885
 20
9.7930
 30
0.0000
  0
SEQEND
  8
0
  0
POLYLINE
  8
22
 66
1
 10
0.0000
 20
0.0000
 30
0.0000
 40
0.1778
 41
0.1778
 70
0
  0
VERTEX
  8
22
 10
11.8222
 20
9.5639
 30
0.0000
  0
VERTEX
  8
22
 10
11.8222
 20
9.3661
 30
0.0000
  0
SEQEND
  8
0
  0
POLYLINE
  8
22
 66
1
 10
0.0000
 20
0.0000
 30
0.0000
 40
0.0889
 41
0.0889
 70
0
  0
VERTEX
  8
22
 10
11.7778
 20
9.3661
 30
0.0000
 42
1.0000
  0
VERTEX
  8
22
 10
11.8667
 20
9.3661
 30
0.0000
  0
SEQEND
  8
0
  0
POLYLINE
  8
22
 66
1
 10
0.0000
 20
0.0000
 30
0.0000
 40
0.0889
 41
0.0889
 70
0
  0
VERTEX
  8
22
 10
11.8667
 20
9.5639
 30
0.0000
 42
1.0000
  0
VERTEX
  8
22
 10
11.7778
 20
9.5639
 30
0.0000
  0
SEQEND
  8
0
  0
POLYLINE
  8
22
 66
1
 10
0.0000
 20
0.0000
 30
0.0000
 40
0.1778
 41
0.1778
 70
0
  0
VERTEX
  8
22
 10
11.8222
 20
9.3661
 30
0.0000
  0
VERTEX
  8
22
 10
11.9211
 20
9.2673
 30
0.0000
  0
SEQEND
  8
0
  0
POLYLINE
  8
22
 66
1
 10
0.0000
 20
0.0000
 30
0.0000
 40
0.0889
 41
0.0889
 70
0
  0
VERTEX
  8
22
 10
11.8896
 20
9.2358
 30
0.0000
 42
1.0000
  0
VERTEX
  8
22
 10
11.9525
 20
9.2987
 30
0.0000
  0
SEQEND
  8
0
  0
POLYLINE
  8
22
 66
1
 10
0.0000
 20
0.0000
 30
0.0000
 40
0.0889
 41
0.0889
 70
0
  0
VERTEX
  8
22
 10
11.8536
 20
9.3975
 30
0.0000
 42
1.0000
  0
VERTEX
  8
22
 10
11.7908
 20
9.3347
 30
0.0000
  0
SEQEND
  8
0
  0
POLYLINE
  8
22
 66
1
 10
0.0000
 20
0.0000
 30
0.0000
 40
0.1778
 41
0.1778
 70
0
  0
VERTEX
  8
22
 10
11.9211
 20
9.2673
 30
0.0000
  0
VERTEX
  8
22
 10
12.3165
 20
9.6627
 30
0.0000
  0
SEQEND
  8
0
  0
POLYLINE
  8
22
 66
1
 10
0.0000
 20
0.0000
 30
0.0000
 40
0.0889
 41
0.0889
 70
0
  0
VERTEX
  8
22
 10
12.3480
 20
9.6313
 30
0.0000
 42
1.0000
  0
VERTEX
  8
22
 10
12.2851
 20
9.6941
 30
0.0000
  0
SEQEND
  8
0
  0
POLYLINE
  8
22
 66
1
 10
0.0000
 20
0.0000
 30
0.0000
 40
0.0889
 41
0.0889
 70
0
  0
VERTEX
  8
22
 10
11.8896
 20
9.2987
 30
0.0000
 42
1.0000
  0
VERTEX
  8
22
 10
11.9525
 20
9.2358
 30
0.0000
  0
SEQEND
  8
0
  0
POLYLINE
  8
22
 66
1
 10
0.0000
 20
0.0000
 30
0.0000
 40
0.1778
 41
0.1778
 70
0
  0
VERTEX
  8
22
 10
10.8641
 20
9.0012
 30
0.0000
  0
VERTEX
  8
22
 10
11.4573
 20
8.4080
 30
0.0000
  0
SEQEND
  8
0
  0
POLYLINE
  8
22
 66
1
 10
0.0000
 20
0.0000
 30
0.0000
 40
0.0889
 41
0.0889
 70
0
  0
VERTEX
  8
22
 10
11.4259
 20
8.3766
 30
0.0000
 42
1.0000
  0
VERTEX
  8
22
 10
11.4887
 20
8.4394
 30
0.0000
  0
SEQEND
  8
0
  0
POLYLINE
  8
22
 66
1
 10
0.0000
 20
0.0000
 30
0.0000
 40
0.0889
 41
0.0889
 70
0
  0
VERTEX
  8
22
 10
10.8955
 20
9.0326
 30
0.0000
 42
1.0000
  0
VERTEX
  8
22
 10
10.8327
 20
8.9698
 30
0.0000
  0
SEQEND
  8
0
  0
POLYLINE
  8
22
 66
1
 10
0.0000
 20
0.0000
 30
0.0000
 40
0.1778
 41
0.1778
 70
0
  0
VERTEX
  8
22
 10
11.4573
 20
8.4080
 30
0.0000
  0
VERTEX
  8
22
 10
11.7539
 20
8.7046
 30
0.0000
  0
SEQEND
  8
0
  0
POLYLINE
  8
22
 66
1
 10
0.0000
 20
0.0000
 30
0.0000
 40
0.0889
 41
0.0889
 70
0
  0
VERTEX
  8
22
 10
11.7853
 20
8.6732
 30
0.0000
 42
1.0000
  0
VERTEX
  8
22
 10
11.7225
 20
8.7360
 30
0.0000
  0
SEQEND
  8
0
  0
POLYLINE
  8
22
 66
1
 10
0.0000
 20
0.0000
 30
0.0000
 40
0.0889
 41
0.0889
 70
0
  0
VERTEX
  8
22
 10
11.4259
 20
8.4394
 30
0.0000
 42
1.0000
  0
VERTEX
  8
22
 10
11.4887
 20
8.3766
 30
0.0000
  0
SEQEND
  8
0
  0
POLYLINE
  8
22
 66
1
 10
0.0000
 20
0.0000
 30
0.0000
 40
0.1778
 41
0.1778
 70
0
  0
VERTEX
  8
22
 10
11.7539
 20
8.7046
 30
0.0000
  0
VERTEX
  8
22
 10
11.7539
 20
8.9023
 30
0.0000
  0
SEQEND
  8
0
  0
POLYLINE
  8
22
 66
1
 10
0.0000
 20
0.0000
 30
0.0000
 40
0.0889
 41
0.0889
 70
0
  0
VERTEX
  8
22
 10
11.7983
 20
8.9023
 30
0.0000
 42
1.0000
  0
VERTEX
  8
22
 10
11.7095
 20
8.9023
 30
0.0000
  0
SEQEND
  8
0
  0
POLYLINE
  8
22
 66
1
 10
0.0000
 20
0.0000
 30
0.0000
 40
0.0889
 41
0.0889
 70
0
  0
VERTEX
  8
22
 10
11.7095
 20
8.7046
 30
0.0000
 42
1.0000
  0
VERTEX
  8
22
 10
11.7983
 20
8.7046
 30
0.0000
  0
SEQEND
  8
0
  0
POLYLINE
  8
22
 66
1
 10
0.0000
 20
0.0000
 30
0.0000
 40
0.1778
 41
0.1778
 70
0
  0
VERTEX
  8
22
 10
11.7539
 20
8.9023
 30
0.0000
  0
VERTEX
  8
22
 10
11.5562
 20
9.1001
 30
0.0000
  0
SEQEND
  8
0
  0
POLYLINE
  8
22
 66
1
 10
0.0000
 20
0.0000
 30
0.0000
 40
0.0889
 41
0.0889
 70
0
  0
VERTEX
  8
22
 10
11.5876
 20
9.1315
 30
0.0000
 42
1.0000
  0
VERTEX
  8
22
 10
11.5247
 20
9.0686
 30
0.0000
  0
SEQEND
  8
0
  0
POLYLINE
  8
22
 66
1
 10
0.0000
 20
0.0000
 30
0.0000
 40
0.0889
 41
0.0889
 70
0
  0
VERTEX
  8
22
 10
11.7225
 20
8.8709
 30
0.0000
 42
1.0000
  0
VERTEX
  8
22
 10
11.7853
 20
8.9338
 30
0.0000
  0
SEQEND
  8
0
  0
POLYLINE
  8
22
 66
1
 10
0.0000
 20
0.0000
 30
0.0000
 40
0.1778
 41
0.1778
 70
0
  0
VERTEX
  8
22
 10
11.5562
 20
9.1001
 30
0.0000
  0
VERTEX
  8
22
 10
11.3584
 20
9.1001
 30
0.0000
  0
SEQEND
  8
0
  0
POLYLINE
  8
22
 66
1
 10
0.0000
 20
0.0000
 30
0.0000
 40
0.0889
 41
0.0889
 70
0
  0
VERTEX
  8
22
 10
11.3584
 20
9.1445
 30
0.0000
 42
1.0000
  0
VERTEX
  8
22
 10
11.3584
 20
9.0556
 30
0.0000
  0
SEQEND
  8
0
  0
POLYLINE
  8
22
 66
1
 10
0.0000
 20
0.0000
 30
0.0000
 40
0.0889
 41
0.0889
 70
0
  0
VERTEX
  8
22
 10
11.5562
 20
9.0556
 30
0.0000
 42
1.0000
  0
VERTEX
  8
22
 10
11.5562
 20
9.1445
 30
0.0000
  0
SEQEND
  8
0
  0
POLYLINE
  8
22
 66
1
 10
0.0000
 20
0.0000
 30
0.0000
 40
0.1778
 41
0.1778
 70
0
  0
VERTEX
  8
22
 10
11.3584
 20
9.1001
 30
0.0000
  0
VERTEX
  8
22
 10
11.0618
 20
8.8035
 30
0.0000
  0
SEQEND
  8
0
  0
POLYLINE
  8
22
 66
1
 10
0.0000
 20
0.0000
 30
0.0000
 40
0.0889
 41
0.0889
 70
0
  0
VERTEX
  8
22
 10
11.0304
 20
8.8349
 30
0.0000
 42
1.0000
  0
VERTEX
  8
22
 10
11.0933
 20
8.7720
 30
0.0000
  0
SEQEND
  8
0
  0
POLYLINE
  8
22
 66
1
 10
0.0000
 20
0.0000
 30
0.0000
 40
0.0889
 41
0.0889
 70
0
  0
VERTEX
  8
22
 10
11.3899
 20
9.0686
 30
0.0000
 42
1.0000
  0
VERTEX
  8
22
 10
11.3270
 20
9.1315
 30
0.0000
  0
SEQEND
  8
0
  0
POLYLINE
  8
22
 66
1
 10
0.0000
 20
0.0000
 30
0.0000
 40
0.1778
 41
0.1778
 70
0
  0
VERTEX
  8
22
 10
10.8947
 20
8.4386
 30
0.0000
  0
VERTEX
  8
22
 10
10.4992
 20
8.0431
 30
0.0000
  0
SEQEND
  8
0
  0
POLYLINE
  8
22
 66
1
 10
0.0000
 20
0.0000
 30
0.0000
 40
0.0889
 41
0.0889
 70
0
  0
VERTEX
  8
22
 10
10.4678
 20
8.0745
 30
0.0000
 42
1.0000
  0
VERTEX
  8
22
 10
10.5306
 20
8.0117
 30
0.0000
  0
SEQEND
  8
0
  0
POLYLINE
  8
22
 66
1
 10
0.0000
 20
0.0000
 30
0.0000
 40
0.0889
 41
0.0889
 70
0
  0
VERTEX
  8
22
 10
10.9261
 20
8.4071
 30
0.0000
 42
1.0000
  0
VERTEX
  8
22
 10
10.8632
 20
8.4700
 30
0.0000
  0
SEQEND
  8
0
  0
POLYLINE
  8
22
 66
1
 10
0.0000
 20
0.0000
 30
0.0000
 40
0.1778
 41
0.1778
 70
0
  0
VERTEX
  8
22
 10
10.1343
 20
7.8759
 30
0.0000
  0
VERTEX
  8
22
 10
10.1343
 20
7.0850
 30
0.0000
  0
SEQEND
  8
0
  0
POLYLINE
  8
22
 66
1
 10
0.0000
 20
0.0000
 30
0.0000
 40
0.0889
 41
0.0889
 70
0
  0
VERTEX
  8
22
 10
10.0898
 20
7.0850
 30
0.0000
 42
1.0000
  0
VERTEX
  8
22
 10
10.1787
 20
7.0850
 30
0.0000
  0
SEQEND
  8
0
  0
POLYLINE
  8
22
 66
1
 10
0.0000
 20
0.0000
 30
0.0000
 40
0.0889
 41
0.0889
 70
0
  0
VERTEX
  8
22
 10
10.1787
 20
7.8759
 30
0.0000
 42
1.0000
  0
VERTEX
  8
22
 10
10.0898
 20
7.8759
 30
0.0000
  0
SEQEND
  8
0
  0
POLYLINE
  8
22
 66
1
 10
0.0000
 20
0.0000
 30
0.0000
 40
0.1778
 41
0.1778
 70
0
  0
VERTEX
  8
22
 10
10.5297
 20
7.4805
 30
0.0000
  0
VERTEX
  8
22
 10
9.7388
 20
7.4805
 30
0.0000
  0
SEQEND
  8
0
  0
POLYLINE
  8
22
 66
1
 10
0.0000
 20
0.0000
 30
0.0000
 40
0.0889
 41
0.0889
 70
0
  0
VERTEX
  8
22
 10
9.7388
 20
7.5249
 30
0.0000
 42
1.0000
  0
VERTEX
  8
22
 10
9.7388
 20
7.4360
 30
0.0000
  0
SEQEND
  8
0
  0
POLYLINE
  8
22
 66
1
 10
0.0000
 20
0.0000
 30
0.0000
 40
0.0889
 41
0.0889
 70
0
  0
VERTEX
  8
22
 10
10.5297
 20
7.4360
 30
0.0000
 42
1.0000
  0
VERTEX
  8
22
 10
10.5297
 20
7.5249
 30
0.0000
  0
SEQEND
  8
0
  0
POLYLINE
  8
22
 66
1
 10
0.0000
 20
0.0000
 30
0.0000
 40
0.6096
 41
0.6096
 70
0
  0
VERTEX
  8
22
 10
12.3825
 20
7.6200
 30
0.0000
 42
1.0000
  0
VERTEX
  8
22
 10
12.3825
 20
8.2550
 30
0.0000
 42
1.0000
  0
VERTEX
  8
22
 10
12.3825
 20
7.6200
 30
0.0000
  0
SEQEND
  8
0
  0
POLYLINE
  8
22
 66
1
 10
0.0000
 20
0.0000
 30
0.0000
 40
0.6096
 41
0.6096
 70
0
  0
VERTEX
  8
22
 10
7.9375
 20
12.0650
 30
0.0000
 42
1.0000
  0
VERTEX
  8
22
 10
7.9375
 20
12.7000
 30
0.0000
 42
1.0000
  0
VERTEX
  8
22
 10
7.9375
 20
12.0650
 30
0.0000
  0
SEQEND
  8
0
  0
POLYLINE
  8
21
 66
1
 10
0.0000
 20
0.0000
 30
0.0000
 40
0.6096
 41
0.6096
 70
0
  0
VERTEX
  8
21
 10
12.3825
 20
7.6200
 30
0.0000
 42
1.0000
  0
VERTEX
  8
21
 10
12.3825
 20
8.2550
 30
0.0000
 42
1.0000
  0
VERTEX
  8
21
 10
12.3825
 20
7.6200
 30
0.0000
  0
SEQEND
  8
0
  0
POLYLINE
  8
21
 66
1
 10
0.0000
 20
0.0000
 30
0.0000
 40
0.6096
 41
0.6096
 70
0
  0
VERTEX
  8
21
 10
7.9375
 20
12.0650
 30
0.0000
 42
1.0000
  0
VERTEX
  8
21
 10
7.9375
 20
12.7000
 30
0.0000
 42
1.0000
  0
VERTEX
  8
21
 10
7.9375
 20
12.0650
 30
0.0000
  0
SEQEND
  8
0
  0
CIRCLE
  8
20
 10
13.3350
 20
13.3350
 30
0.0000
 40
0.5500
  0
CIRCLE
  8
20
 10
6.9850
 20
6.9850
 30
0.0000
 40
0.5500
  0
POINT
  8
23
 10
3.3020
 20
10.1600
 30
0.0000
  0
POLYLINE
  8
1
 66
1
 10
0.0000
 20
0.0000
 30
0.0000
 40
1.4016
 41
1.4016
 70
0
  0
VERTEX
  8
1
 10
5.8020
 20
12.1600
 30
0.0000
  0
VERTEX
  8
1
 10
6.1020
 20
12.1600
 30
0.0000
  0
SEQEND
  8
0
  0
POLYLINE
  8
1
 66
1
 10
0.0000
 20
0.0000
 30
0.0000
 40
0.7008
 41
0.7008
 70
0
  0
VERTEX
  8
1
 10
6.1020
 20
11.8096
 30
0.0000
 42
1.0000
  0
VERTEX
  8
1
 10
6.1020
 20
12.5104
 30
0.0000
  0
SEQEND
  8
0
  0
POLYLINE
  8
1
 66
1
 10
0.0000
 20
0.0000
 30
0.0000
 40
0.7008
 41
0.7008
 70
0
  0
VERTEX
  8
1
 10
5.8020
 20
12.5104
 30
0.0000
 42
1.0000
  0
VERTEX
  8
1
 10
5.8020
 20
11.8096
 30
0.0000
  0
SEQEND
  8
0
  0
POLYLINE
  8
16
 66
1
 10
0.0000
 20
0.0000
 30
0.0000
 40
1.4016
 41
1.4016
 70
0
  0
VERTEX
  8
16
 10
5.8020
 20
12.1600
 30
0.0000
  0
VERTEX
  8
16
 10
6.1020
 20
12.1600
 30
0.0000
  0
SEQEND
  8
0
  0
POLYLINE
  8
16
 66
1
 10
0.0000
 20
0.0000
 30
0.0000
 40
0.7008
 41
0.7008
 70
0
  0
VERTEX
  8
16
 10
6.1020
 20
11.8096
 30
0.0000
 42
1.0000
  0
VERTEX
  8
16
 10
6.1020
 20
12.5104
 30
0.0000
  0
SEQEND
  8
0
  0
POLYLINE
  8
16
 66
1
 10
0.0000
 20
0.0000
 30
0.0000
 40
0.7008
 41
0.7008
 70
0
  0
VERTEX
  8
16
 10
5.8020
 20
12.5104
 30
0.0000
 42
1.0000
  0
VERTEX
  8
16
 10
5.8020
 20
11.8096
 30
0.0000
  0
SEQEND
  8
0
  0
INSERT
  8
16
  2
RECT
 10
3.3020
 20
12.1600
 30
0.0000
 41
1.4016
 42
5.0000
 43
1.0000
 50
270.0000
  0
INSERT
  8
16
  2
RECT
 10
3.3020
 20
10.1600
 30
0.0000
 41
1.4016
 42
5.0000
 43
1.0000
 50
270.0000
  0
INSERT
  8
16
  2
RECT
 10
3.3020
 20
8.1600
 30
0.0000
 41
1.4016
 42
5.0000
 43
1.0000
 50
270.0000
  0
INSERT
  8
1
  2
RECT
 10
3.3020
 20
12.1600
 30
0.0000
 41
1.4016
 42
5.0000
 43
1.0000
 50
270.0000
  0
INSERT
  8
1
  2
RECT
 10
3.3020
 20
10.1600
 30
0.0000
 41
1.4016
 42
5.0000
 43
1.0000
 50
270.0000
  0
INSERT
  8
1
  2
RECT
 10
3.3020
 20
8.1600
 30
0.0000
 41
1.4016
 42
5.0000
 43
1.0000
 50
270.0000
  0
INSERT
  8
17
  2
SQUAREP
 10
5.3020
 20
12.1600
 30
0.0000
 41
1.4064
 42
1.4064
 43
1.0000
 50
270.0000
  0
INSERT
  8
17
  2
SQUAREP
 10
5.3020
 20
12.1600
 30
0.0000
 41
1.4064
 42
1.4064
 43
1.0000
 50
270.0000
  0
INSERT
  8
17
  2
SQUAREP
 10
3.3020
 20
12.1600
 30
0.0000
 41
1.4064
 42
1.4064
 43
1.0000
 50
270.0000
  0
INSERT
  8
17
  2
SQUAREP
 10
3.3020
 20
12.1600
 30
0.0000
 41
1.4064
 42
1.4064
 43
1.0000
 50
270.0000
  0
INSERT
  8
17
  2
SQUAREP
 10
1.3020
 20
12.1600
 30
0.0000
 41
1.4064
 42
1.4064
 43
1.0000
 50
270.0000
  0
INSERT
  8
17
  2
SQUAREP
 10
1.3020
 20
12.1600
 30
0.0000
 41
1.4064
 42
1.4064
 43
1.0000
 50
270.0000
  0
INSERT
  8
17
  2
SQUAREP
 10
5.3020
 20
10.1600
 30
0.0000
 41
1.4064
 42
1.4064
 43
1.0000
 50
270.0000
  0
INSERT
  8
17
  2
SQUAREP
 10
5.3020
 20
10.1600
 30
0.0000
 41
1.4064
 42
1.4064
 43
1.0000
 50
270.0000
  0
INSERT
  8
17
  2
SQUAREP
 10
3.3020
 20
10.1600
 30
0.0000
 41
1.4064
 42
1.4064
 43
1.0000
 50
270.0000
  0
INSERT
  8
17
  2
SQUAREP
 10
3.3020
 20
10.1600
 30
0.0000
 41
1.4064
 42
1.4064
 43
1.0000
 50
270.0000
  0
INSERT
  8
17
  2
SQUAREP
 10
1.3020
 20
10.1600
 30
0.0000
 41
1.4064
 42
1.4064
 43
1.0000
 50
270.0000
  0
INSERT
  8
17
  2
SQUAREP
 10
1.3020
 20
10.1600
 30
0.0000
 41
1.4064
 42
1.4064
 43
1.0000
 50
270.0000
  0
INSERT
  8
17
  2
SQUAREP
 10
5.3020
 20
8.1600
 30
0.0000
 41
1.4064
 42
1.4064
 43
1.0000
 50
270.0000
  0
INSERT
  8
17
  2
SQUAREP
 10
5.3020
 20
8.1600
 30
0.0000
 41
1.4064
 42
1.4064
 43
1.0000
 50
270.0000
  0
INSERT
  8
17
  2
SQUAREP
 10
3.3020
 20
8.1600
 30
0.0000
 41
1.4064
 42
1.4064
 43
1.0000
 50
270.0000
  0
INSERT
  8
17
  2
SQUAREP
 10
3.3020
 20
8.1600
 30
0.0000
 41
1.4064
 42
1.4064
 43
1.0000
 50
270.0000
  0
INSERT
  8
17
  2
SQUAREP
 10
1.3020
 20
8.1600
 30
0.0000
 41
1.4064
 42
1.4064
 43
1.0000
 50
270.0000
  0
INSERT
  8
17
  2
SQUAREP
 10
1.3020
 20
8.1600
 30
0.0000
 41
1.4064
 42
1.4064
 43
1.0000
 50
270.0000
  0
POINT
  8
23
 10
17.0180
 20
10.1600
 30
0.0000
  0
POLYLINE
  8
1
 66
1
 10
0.0000
 20
0.0000
 30
0.0000
 40
1.4016
 41
1.4016
 70
0
  0
VERTEX
  8
1
 10
14.5180
 20
8.1600
 30
0.0000
  0
VERTEX
  8
1
 10
14.2180
 20
8.1600
 30
0.0000
  0
SEQEND
  8
0
  0
POLYLINE
  8
1
 66
1
 10
0.0000
 20
0.0000
 30
0.0000
 40
0.7008
 41
0.7008
 70
0
  0
VERTEX
  8
1
 10
14.2180
 20
8.5104
 30
0.0000
 42
1.0000
  0
VERTEX
  8
1
 10
14.2180
 20
7.8096
 30
0.0000
  0
SEQEND
  8
0
  0
POLYLINE
  8
1
 66
1
 10
0.0000
 20
0.0000
 30
0.0000
 40
0.7008
 41
0.7008
 70
0
  0
VERTEX
  8
1
 10
14.5180
 20
7.8096
 30
0.0000
 42
1.0000
  0
VERTEX
  8
1
 10
14.5180
 20
8.5104
 30
0.0000
  0
SEQEND
  8
0
  0
POLYLINE
  8
16
 66
1
 10
0.0000
 20
0.0000
 30
0.0000
 40
1.4016
 41
1.4016
 70
0
  0
VERTEX
  8
16
 10
14.5180
 20
8.1600
 30
0.0000
  0
VERTEX
  8
16
 10
14.2180
 20
8.1600
 30
0.0000
  0
SEQEND
  8
0
  0
POLYLINE
  8
16
 66
1
 10
0.0000
 20
0.0000
 30
0.0000
 40
0.7008
 41
0.7008
 70
0
  0
VERTEX
  8
16
 10
14.2180
 20
8.5104
 30
0.0000
 42
1.0000
  0
VERTEX
  8
16
 10
14.2180
 20
7.8096
 30
0.0000
  0
SEQEND
  8
0
  0
POLYLINE
  8
16
 66
1
 10
0.0000
 20
0.0000
 30
0.0000
 40
0.7008
 41
0.7008
 70
0
  0
VERTEX
  8
16
 10
14.5180
 20
7.8096
 30
0.0000
 42
1.0000
  0
VERTEX
  8
16
 10
14.5180
 20
8.5104
 30
0.0000
  0
SEQEND
  8
0
  0
INSERT
  8
16
  2
RECT
 10
17.0180
 20
8.1600
 30
0.0000
 41
1.4016
 42
5.0000
 43
1.0000
 50
90.0000
  0
INSERT
  8
16
  2
RECT
 10
17.0180
 20
10.1600
 30
0.0000
 41
1.4016
 42
5.0000
 43
1.0000
 50
90.0000
  0
INSERT
  8
16
  2
RECT
 10
17.0180
 20
12.1600
 30
0.0000
 41
1.4016
 42
5.0000
 43
1.0000
 50
90.0000
  0
INSERT
  8
1
  2
RECT
 10
17.0180
 20
8.1600
 30
0.0000
 41
1.4016
 42
5.0000
 43
1.0000
 50
90.0000
  0
INSERT
  8
1
  2
RECT
 10
17.0180
 20
10.1600
 30
0.0000
 41
1.4016
 42
5.0000
 43
1.0000
 50
90.0000
  0
INSERT
  8
1
  2
RECT
 10
17.0180
 20
12.1600
 30
0.0000
 41
1.4016
 42
5.0000
 43
1.0000
 50
90.0000
  0
INSERT
  8
17
  2
SQUAREP
 10
15.0180
 20
8.1600
 30
0.0000
 41
1.4064
 42
1.4064
 43
1.0000
 50
90.0000
  0
INSERT
  8
17
  2
SQUAREP
 10
15.0180
 20
8.1600
 30
0.0000
 41
1.4064
 42
1.4064
 43
1.0000
 50
90.0000
  0
INSERT
  8
17
  2
SQUAREP
 10
17.0180
 20
8.1600
 30
0.0000
 41
1.4064
 42
1.4064
 43
1.0000
 50
90.0000
  0
INSERT
  8
17
  2
SQUAREP
 10
17.0180
 20
8.1600
 30
0.0000
 41
1.4064
 42
1.4064
 43
1.0000
 50
90.0000
  0
INSERT
  8
17
  2
SQUAREP
 10
19.0180
 20
8.1600
 30
0.0000
 41
1.4064
 42
1.4064
 43
1.0000
 50
90.0000
  0
INSERT
  8
17
  2
SQUAREP
 10
19.0180
 20
8.1600
 30
0.0000
 41
1.4064
 42
1.4064
 43
1.0000
 50
90.0000
  0
INSERT
  8
17
  2
SQUAREP
 10
15.0180
 20
10.1600
 30
0.0000
 41
1.4064
 42
1.4064
 43
1.0000
 50
90.0000
  0
INSERT
  8
17
  2
SQUAREP
 10
15.0180
 20
10.1600
 30
0.0000
 41
1.4064
 42
1.4064
 43
1.0000
 50
90.0000
  0
INSERT
  8
17
  2
SQUAREP
 10
17.0180
 20
10.1600
 30
0.0000
 41
1.4064
 42
1.4064
 43
1.0000
 50
90.0000
  0
INSERT
  8
17
  2
SQUAREP
 10
17.0180
 20
10.1600
 30
0.0000
 41
1.4064
 42
1.4064
 43
1.0000
 50
90.0000
  0
INSERT
  8
17
  2
SQUAREP
 10
19.0180
 20
10.1600
 30
0.0000
 41
1.4064
 42
1.4064
 43
1.0000
 50
90.0000
  0
INSERT
  8
17
  2
SQUAREP
 10
19.0180
 20
10.1600
 30
0.0000
 41
1.4064
 42
1.4064
 43
1.0000
 50
90.0000
  0
INSERT
  8
17
  2
SQUAREP
 10
15.0180
 20
12.1600
 30
0.0000
 41
1.4064
 42
1.4064
 43
1.0000
 50
90.0000
  0
INSERT
  8
17
  2
SQUAREP
 10
15.0180
 20
12.1600
 30
0.0000
 41
1.4064
 42
1.4064
 43
1.0000
 50
90.0000
  0
INSERT
  8
17
  2
SQUAREP
 10
17.0180
 20
12.1600
 30
0.0000
 41
1.4064
 42
1.4064
 43
1.0000
 50
90.0000
  0
INSERT
  8
17
  2
SQUAREP
 10
17.0180
 20
12.1600
 30
0.0000
 41
1.4064
 42
1.4064
 43
1.0000
 50
90.0000
  0
INSERT
  8
17
  2
SQUAREP
 10
19.0180
 20
12.1600
 30
0.0000
 41
1.4064
 42
1.4064
 43
1.0000
 50
90.0000
  0
INSERT
  8
17
  2
SQUAREP
 10
19.0180
 20
12.1600
 30
0.0000
 41
1.4064
 42
1.4064
 43
1.0000
 50
90.0000
  0
POINT
  8
23
 10
10.1600
 20
3.3020
 30
0.0000
  0
POLYLINE
  8
1
 66
1
 10
0.0000
 20
0.0000
 30
0.0000
 40
1.4016
 41
1.4016
 70
0
  0
VERTEX
  8
1
 10
12.1600
 20
5.8020
 30
0.0000
  0
VERTEX
  8
1
 10
12.1600
 20
6.1020
 30
0.0000
  0
SEQEND
  8
0
  0
POLYLINE
  8
1
 66
1
 10
0.0000
 20
0.0000
 30
0.0000
 40
0.7008
 41
0.7008
 70
0
  0
VERTEX
  8
1
 10
12.5104
 20
6.1020
 30
0.0000
 42
1.0000
  0
VERTEX
  8
1
 10
11.8096
 20
6.1020
 30
0.0000
  0
SEQEND
  8
0
  0
POLYLINE
  8
1
 66
1
 10
0.0000
 20
0.0000
 30
0.0000
 40
0.7008
 41
0.7008
 70
0
  0
VERTEX
  8
1
 10
11.8096
 20
5.8020
 30
0.0000
 42
1.0000
  0
VERTEX
  8
1
 10
12.5104
 20
5.8020
 30
0.0000
  0
SEQEND
  8
0
  0
POLYLINE
  8
16
 66
1
 10
0.0000
 20
0.0000
 30
0.0000
 40
1.4016
 41
1.4016
 70
0
  0
VERTEX
  8
16
 10
12.1600
 20
5.8020
 30
0.0000
  0
VERTEX
  8
16
 10
12.1600
 20
6.1020
 30
0.0000
  0
SEQEND
  8
0
  0
POLYLINE
  8
16
 66
1
 10
0.0000
 20
0.0000
 30
0.0000
 40
0.7008
 41
0.7008
 70
0
  0
VERTEX
  8
16
 10
12.5104
 20
6.1020
 30
0.0000
 42
1.0000
  0
VERTEX
  8
16
 10
11.8096
 20
6.1020
 30
0.0000
  0
SEQEND
  8
0
  0
POLYLINE
  8
16
 66
1
 10
0.0000
 20
0.0000
 30
0.0000
 40
0.7008
 41
0.7008
 70
0
  0
VERTEX
  8
16
 10
11.8096
 20
5.8020
 30
0.0000
 42
1.0000
  0
VERTEX
  8
16
 10
12.5104
 20
5.8020
 30
0.0000
  0
SEQEND
  8
0
  0
INSERT
  8
16
  2
RECT
 10
8.1600
 20
3.3020
 30
0.0000
 41
1.4016
 42
5.0000
 43
1.0000
 50
0.0000
  0
INSERT
  8
16
  2
RECT
 10
10.1600
 20
3.3020
 30
0.0000
 41
1.4016
 42
5.0000
 43
1.0000
 50
0.0000
  0
INSERT
  8
16
  2
RECT
 10
12.1600
 20
3.3020
 30
0.0000
 41
1.4016
 42
5.0000
 43
1.0000
 50
0.0000
  0
INSERT
  8
1
  2
RECT
 10
8.1600
 20
3.3020
 30
0.0000
 41
1.4016
 42
5.0000
 43
1.0000
 50
0.0000
  0
INSERT
  8
1
  2
RECT
 10
10.1600
 20
3.3020
 30
0.0000
 41
1.4016
 42
5.0000
 43
1.0000
 50
0.0000
  0
INSERT
  8
1
  2
RECT
 10
12.1600
 20
3.3020
 30
0.0000
 41
1.4016
 42
5.0000
 43
1.0000
 50
0.0000
  0
INSERT
  8
17
  2
SQUAREP
 10
12.1600
 20
5.3020
 30
0.0000
 41
1.4064
 42
1.4064
 43
1.0000
 50
0.0000
  0
INSERT
  8
17
  2
SQUAREP
 10
12.1600
 20
5.3020
 30
0.0000
 41
1.4064
 42
1.4064
 43
1.0000
 50
0.0000
  0
INSERT
  8
17
  2
SQUAREP
 10
12.1600
 20
3.3020
 30
0.0000
 41
1.4064
 42
1.4064
 43
1.0000
 50
0.0000
  0
INSERT
  8
17
  2
SQUAREP
 10
12.1600
 20
3.3020
 30
0.0000
 41
1.4064
 42
1.4064
 43
1.0000
 50
0.0000
  0
INSERT
  8
17
  2
SQUAREP
 10
12.1600
 20
1.3020
 30
0.0000
 41
1.4064
 42
1.4064
 43
1.0000
 50
0.0000
  0
INSERT
  8
17
  2
SQUAREP
 10
12.1600
 20
1.3020
 30
0.0000
 41
1.4064
 42
1.4064
 43
1.0000
 50
0.0000
  0
INSERT
  8
17
  2
SQUAREP
 10
10.1600
 20
5.3020
 30
0.0000
 41
1.4064
 42
1.4064
 43
1.0000
 50
0.0000
  0
INSERT
  8
17
  2
SQUAREP
 10
10.1600
 20
5.3020
 30
0.0000
 41
1.4064
 42
1.4064
 43
1.0000
 50
0.0000
  0
INSERT
  8
17
  2
SQUAREP
 10
10.1600
 20
3.3020
 30
0.0000
 41
1.4064
 42
1.4064
 43
1.0000
 50
0.0000
  0
INSERT
  8
17
  2
SQUAREP
 10
10.1600
 20
3.3020
 30
0.0000
 41
1.4064
 42
1.4064
 43
1.0000
 50
0.0000
  0
INSERT
  8
17
  2
SQUAREP
 10
10.1600
 20
1.3020
 30
0.0000
 41
1.4064
 42
1.4064
 43
1.0000
 50
0.0000
  0
INSERT
  8
17
  2
SQUAREP
 10
10.1600
 20
1.3020
 30
0.0000
 41
1.4064
 42
1.4064
 43
1.0000
 50
0.0000
  0
INSERT
  8
17
  2
SQUAREP
 10
8.1600
 20
5.3020
 30
0.0000
 41
1.4064
 42
1.4064
 43
1.0000
 50
0.0000
  0
INSERT
  8
17
  2
SQUAREP
 10
8.1600
 20
5.3020
 30
0.0000
 41
1.4064
 42
1.4064
 43
1.0000
 50
0.0000
  0
INSERT
  8
17
  2
SQUAREP
 10
8.1600
 20
3.3020
 30
0.0000
 41
1.4064
 42
1.4064
 43
1.0000
 50
0.0000
  0
INSERT
  8
17
  2
SQUAREP
 10
8.1600
 20
3.3020
 30
0.0000
 41
1.4064
 42
1.4064
 43
1.0000
 50
0.0000
  0
INSERT
  8
17
  2
SQUAREP
 10
8.1600
 20
1.3020
 30
0.0000
 41
1.4064
 42
1.4064
 43
1.0000
 50
0.0000
  0
INSERT
  8
17
  2
SQUAREP
 10
8.1600
 20
1.3020
 30
0.0000
 41
1.4064
 42
1.4064
 43
1.0000
 50
0.0000
  0
POINT
  8
23
 10
10.1600
 20
17.0180
 30
0.0000
  0
POLYLINE
  8
1
 66
1
 10
0.0000
 20
0.0000
 30
0.0000
 40
1.4016
 41
1.4016
 70
0
  0
VERTEX
  8
1
 10
8.1600
 20
14.5180
 30
0.0000
  0
VERTEX
  8
1
 10
8.1600
 20
14.2180
 30
0.0000
  0
SEQEND
  8
0
  0
POLYLINE
  8
1
 66
1
 10
0.0000
 20
0.0000
 30
0.0000
 40
0.7008
 41
0.7008
 70
0
  0
VERTEX
  8
1
 10
7.8096
 20
14.2180
 30
0.0000
 42
1.0000
  0
VERTEX
  8
1
 10
8.5104
 20
14.2180
 30
0.0000
  0
SEQEND
  8
0
  0
POLYLINE
  8
1
 66
1
 10
0.0000
 20
0.0000
 30
0.0000
 40
0.7008
 41
0.7008
 70
0
  0
VERTEX
  8
1
 10
8.5104
 20
14.5180
 30
0.0000
 42
1.0000
  0
VERTEX
  8
1
 10
7.8096
 20
14.5180
 30
0.0000
  0
SEQEND
  8
0
  0
POLYLINE
  8
16
 66
1
 10
0.0000
 20
0.0000
 30
0.0000
 40
1.4016
 41
1.4016
 70
0
  0
VERTEX
  8
16
 10
8.1600
 20
14.5180
 30
0.0000
  0
VERTEX
  8
16
 10
8.1600
 20
14.2180
 30
0.0000
  0
SEQEND
  8
0
  0
POLYLINE
  8
16
 66
1
 10
0.0000
 20
0.0000
 30
0.0000
 40
0.7008
 41
0.7008
 70
0
  0
VERTEX
  8
16
 10
7.8096
 20
14.2180
 30
0.0000
 42
1.0000
  0
VERTEX
  8
16
 10
8.5104
 20
14.2180
 30
0.0000
  0
SEQEND
  8
0
  0
POLYLINE
  8
16
 66
1
 10
0.0000
 20
0.0000
 30
0.0000
 40
0.7008
 41
0.7008
 70
0
  0
VERTEX
  8
16
 10
8.5104
 20
14.5180
 30
0.0000
 42
1.0000
  0
VERTEX
  8
16
 10
7.8096
 20
14.5180
 30
0.0000
  0
SEQEND
  8
0
  0
INSERT
  8
16
  2
RECT
 10
12.1600
 20
17.0180
 30
0.0000
 41
1.4016
 42
5.0000
 43
1.0000
 50
180.0000
  0
INSERT
  8
16
  2
RECT
 10
10.1600
 20
17.0180
 30
0.0000
 41
1.4016
 42
5.0000
 43
1.0000
 50
180.0000
  0
INSERT
  8
16
  2
RECT
 10
8.1600
 20
17.0180
 30
0.0000
 41
1.4016
 42
5.0000
 43
1.0000
 50
180.0000
  0
INSERT
  8
1
  2
RECT
 10
12.1600
 20
17.0180
 30
0.0000
 41
1.4016
 42
5.0000
 43
1.0000
 50
180.0000
  0
INSERT
  8
1
  2
RECT
 10
10.1600
 20
17.0180
 30
0.0000
 41
1.4016
 42
5.0000
 43
1.0000
 50
180.0000
  0
INSERT
  8
1
  2
RECT
 10
8.1600
 20
17.0180
 30
0.0000
 41
1.4016
 42
5.0000
 43
1.0000
 50
180.0000
  0
INSERT
  8
17
  2
SQUAREP
 10
8.1600
 20
15.0180
 30
0.0000
 41
1.4064
 42
1.4064
 43
1.0000
 50
180.0000
  0
INSERT
  8
17
  2
SQUAREP
 10
8.1600
 20
15.0180
 30
0.0000
 41
1.4064
 42
1.4064
 43
1.0000
 50
180.0000
  0
INSERT
  8
17
  2
SQUAREP
 10
8.1600
 20
17.0180
 30
0.0000
 41
1.4064
 42
1.4064
 43
1.0000
 50
180.0000
  0
INSERT
  8
17
  2
SQUAREP
 10
8.1600
 20
17.0180
 30
0.0000
 41
1.4064
 42
1.4064
 43
1.0000
 50
180.0000
  0
INSERT
  8
17
  2
SQUAREP
 10
8.1600
 20
19.0180
 30
0.0000
 41
1.4064
 42
1.4064
 43
1.0000
 50
180.0000
  0
INSERT
  8
17
  2
SQUAREP
 10
8.1600
 20
19.0180
 30
0.0000
 41
1.4064
 42
1.4064
 43
1.0000
 50
180.0000
  0
INSERT
  8
17
  2
SQUAREP
 10
10.1600
 20
15.0180
 30
0.0000
 41
1.4064
 42
1.4064
 43
1.0000
 50
180.0000
  0
INSERT
  8
17
  2
SQUAREP
 10
10.1600
 20
15.0180
 30
0.0000
 41
1.4064
 42
1.4064
 43
1.0000
 50
180.0000
  0
INSERT
  8
17
  2
SQUAREP
 10
10.1600
 20
17.0180
 30
0.0000
 41
1.4064
 42
1.4064
 43
1.0000
 50
180.0000
  0
INSERT
  8
17
  2
SQUAREP
 10
10.1600
 20
17.0180
 30
0.0000
 41
1.4064
 42
1.4064
 43
1.0000
 50
180.0000
  0
INSERT
  8
17
  2
SQUAREP
 10
10.1600
 20
19.0180
 30
0.0000
 41
1.4064
 42
1.4064
 43
1.0000
 50
180.0000
  0
INSERT
  8
17
  2
SQUAREP
 10
10.1600
 20
19.0180
 30
0.0000
 41
1.4064
 42
1.4064
 43
1.0000
 50
180.0000
  0
INSERT
  8
17
  2
SQUAREP
 10
12.1600
 20
15.0180
 30
0.0000
 41
1.4064
 42
1.4064
 43
1.0000
 50
180.0000
  0
INSERT
  8
17
  2
SQUAREP
 10
12.1600
 20
15.0180
 30
0.0000
 41
1.4064
 42
1.4064
 43
1.0000
 50
180.0000
  0
INSERT
  8
17
  2
SQUAREP
 10
12.1600
 20
17.0180
 30
0.0000
 41
1.4064
 42
1.4064
 43
1.0000
 50
180.0000
  0
INSERT
  8
17
  2
SQUAREP
 10
12.1600
 20
17.0180
 30
0.0000
 41
1.4064
 42
1.4064
 43
1.0000
 50
180.0000
  0
INSERT
  8
17
  2
SQUAREP
 10
12.1600
 20
19.0180
 30
0.0000
 41
1.4064
 42
1.4064
 43
1.0000
 50
180.0000
  0
INSERT
  8
17
  2
SQUAREP
 10
12.1600
 20
19.0180
 30
0.0000
 41
1.4064
 42
1.4064
 43
1.0000
 50
180.0000
  0
POINT
  8
23
 10
9.1440
 20
11.1760
 30
0.0000
  0
POLYLINE
  8
51
 66
1
 10
0.0000
 20
0.0000
 30
0.0000
 40
0.1016
 41
0.1016
 70
0
  0
VERTEX
  8
51
 10
10.7703
 20
11.7417
 30
0.0000
  0
VERTEX
  8
51
 10
8.5783
 20
9.5497
 30
0.0000
  0
SEQEND
  8
0
  0
POLYLINE
  8
51
 66
1
 10
0.0000
 20
0.0000
 30
0.0000
 40
0.0508
 41
0.0508
 70
0
  0
VERTEX
  8
51
 10
8.5604
 20
9.5676
 30
0.0000
 42
1.0000
  0
VERTEX
  8
51
 10
8.5963
 20
9.5317
 30
0.0000
  0
SEQEND
  8
0
  0
POLYLINE
  8
51
 66
1
 10
0.0000
 20
0.0000
 30
0.0000
 40
0.0508
 41
0.0508
 70
0
  0
VERTEX
  8
51
 10
10.7883
 20
11.7237
 30
0.0000
 42
1.0000
  0
VERTEX
  8
51
 10
10.7524
 20
11.7596
 30
0.0000
  0
SEQEND
  8
0
  0
POLYLINE
  8
51
 66
1
 10
0.0000
 20
0.0000
 30
0.0000
 40
0.1016
 41
0.1016
 70
0
  0
VERTEX
  8
51
 10
8.5783
 20
9.5497
 30
0.0000
  0
VERTEX
  8
51
 10
7.5177
 20
10.6103
 30
0.0000
  0
SEQEND
  8
0
  0
POLYLINE
  8
51
 66
1
 10
0.0000
 20
0.0000
 30
0.0000
 40
0.0508
 41
0.0508
 70
0
  0
VERTEX
  8
51
 10
7.5356
 20
10.6283
 30
0.0000
 42
1.0000
  0
VERTEX
  8
51
 10
7.4997
 20
10.5924
 30
0.0000
  0
SEQEND
  8
0
  0
POLYLINE
  8
51
 66
1
 10
0.0000
 20
0.0000
 30
0.0000
 40
0.0508
 41
0.0508
 70
0
  0
VERTEX
  8
51
 10
8.5604
 20
9.5317
 30
0.0000
 42
1.0000
  0
VERTEX
  8
51
 10
8.5963
 20
9.5676
 30
0.0000
  0
SEQEND
  8
0
  0
POLYLINE
  8
51
 66
1
 10
0.0000
 20
0.0000
 30
0.0000
 40
0.1016
 41
0.1016
 70
0
  0
VERTEX
  8
51
 10
7.5177
 20
10.6103
 30
0.0000
  0
VERTEX
  8
51
 10
9.7097
 20
12.8023
 30
0.0000
  0
SEQEND
  8
0
  0
POLYLINE
  8
51
 66
1
 10
0.0000
 20
0.0000
 30
0.0000
 40
0.0508
 41
0.0508
 70
0
  0
VERTEX
  8
51
 10
9.7276
 20
12.7844
 30
0.0000
 42
1.0000
  0
VERTEX
  8
51
 10
9.6917
 20
12.8203
 30
0.0000
  0
SEQEND
  8
0
  0
POLYLINE
  8
51
 66
1
 10
0.0000
 20
0.0000
 30
0.0000
 40
0.0508
 41
0.0508
 70
0
  0
VERTEX
  8
51
 10
7.4997
 20
10.6283
 30
0.0000
 42
1.0000
  0
VERTEX
  8
51
 10
7.5356
 20
10.5924
 30
0.0000
  0
SEQEND
  8
0
  0
POLYLINE
  8
51
 66
1
 10
0.0000
 20
0.0000
 30
0.0000
 40
0.1016
 41
0.1016
 70
0
  0
VERTEX
  8
51
 10
9.7097
 20
12.8023
 30
0.0000
  0
VERTEX
  8
51
 10
10.7703
 20
11.7417
 30
0.0000
  0
SEQEND
  8
0
  0
POLYLINE
  8
51
 66
1
 10
0.0000
 20
0.0000
 30
0.0000
 40
0.0508
 41
0.0508
 70
0
  0
VERTEX
  8
51
 10
10.7524
 20
11.7237
 30
0.0000
 42
1.0000
  0
VERTEX
  8
51
 10
10.7883
 20
11.7596
 30
0.0000
  0
SEQEND
  8
0
  0
POLYLINE
  8
51
 66
1
 10
0.0000
 20
0.0000
 30
0.0000
 40
0.0508
 41
0.0508
 70
0
  0
VERTEX
  8
51
 10
9.7276
 20
12.8203
 30
0.0000
 42
1.0000
  0
VERTEX
  8
51
 10
9.6917
 20
12.7844
 30
0.0000
  0
SEQEND
  8
0
  0
POLYLINE
  8
21
 66
1
 10
0.0000
 20
0.0000
 30
0.0000
 40
0.1016
 41
0.1016
 70
0
  0
VERTEX
  8
21
 10
9.1086
 20
10.4335
 30
0.0000
 42
0.4424
  0
VERTEX
  8
21
 10
9.8865
 20
11.2114
 30
0.0000
  0
SEQEND
  8
0
  0
POLYLINE
  8
21
 66
1
 10
0.0000
 20
0.0000
 30
0.0000
 40
0.0508
 41
0.0508
 70
0
  0
VERTEX
  8
21
 10
9.1099
 20
10.4589
 30
0.0000
 42
1.0000
  0
VERTEX
  8
21
 10
9.1074
 20
10.4082
 30
0.0000
  0
SEQEND
  8
0
  0
POLYLINE
  8
21
 66
1
 10
0.0000
 20
0.0000
 30
0.0000
 40
0.0508
 41
0.0508
 70
0
  0
VERTEX
  8
21
 10
9.9118
 20
11.2126
 30
0.0000
 42
1.0000
  0
VERTEX
  8
21
 10
9.8611
 20
11.2101
 30
0.0000
  0
SEQEND
  8
0
  0
POLYLINE
  8
51
 66
1
 10
0.0000
 20
0.0000
 30
0.0000
 40
0.1016
 41
0.1016
 70
0
  0
VERTEX
  8
51
 10
8.4015
 20
11.1406
 30
0.0000
 42
0.3866
  0
VERTEX
  8
51
 10
9.1086
 20
10.4335
 30
0.0000
  0
SEQEND
  8
0
  0
POLYLINE
  8
51
 66
1
 10
0.0000
 20
0.0000
 30
0.0000
 40
0.0508
 41
0.0508
 70
0
  0
VERTEX
  8
51
 10
8.4269
 20
11.1419
 30
0.0000
 42
1.0000
  0
VERTEX
  8
51
 10
8.3762
 20
11.1394
 30
0.0000
  0
SEQEND
  8
0
  0
POLYLINE
  8
51
 66
1
 10
0.0000
 20
0.0000
 30
0.0000
 40
0.0508
 41
0.0508
 70
0
  0
VERTEX
  8
51
 10
9.1074
 20
10.4082
 30
0.0000
 42
1.0000
  0
VERTEX
  8
51
 10
9.1099
 20
10.4589
 30
0.0000
  0
SEQEND
  8
0
  0
POLYLINE
  8
21
 66
1
 10
0.0000
 20
0.0000
 30
0.0000
 40
0.1016
 41
0.1016
 70
0
  0
VERTEX
  8
21
 10
9.1794
 20
11.9185
 30
0.0000
 42
0.4424
  0
VERTEX
  8
21
 10
8.4015
 20
11.1406
 30
0.0000
  0
SEQEND
  8
0
  0
POLYLINE
  8
21
 66
1
 10
0.0000
 20
0.0000
 30
0.0000
 40
0.0508
 41
0.0508
 70
0
  0
VERTEX
  8
21
 10
9.1781
 20
11.8931
 30
0.0000
 42
1.0000
  0
VERTEX
  8
21
 10
9.1806
 20
11.9438
 30
0.0000
  0
SEQEND
  8
0
  0
POLYLINE
  8
21
 66
1
 10
0.0000
 20
0.0000
 30
0.0000
 40
0.0508
 41
0.0508
 70
0
  0
VERTEX
  8
21
 10
8.3762
 20
11.1394
 30
0.0000
 42
1.0000
  0
VERTEX
  8
21
 10
8.4269
 20
11.1419
 30
0.0000
  0
SEQEND
  8
0
  0
POLYLINE
  8
51
 66
1
 10
0.0000
 20
0.0000
 30
0.0000
 40
0.1016
 41
0.1016
 70
0
  0
VERTEX
  8
51
 10
9.8865
 20
11.2114
 30
0.0000
 42
0.3866
  0
VERTEX
  8
51
 10
9.1794
 20
11.9185
 30
0.0000
  0
SEQEND
  8
0
  0
POLYLINE
  8
51
 66
1
 10
0.0000
 20
0.0000
 30
0.0000
 40
0.0508
 41
0.0508
 70
0
  0
VERTEX
  8
51
 10
9.8611
 20
11.2101
 30
0.0000
 42
1.0000
  0
VERTEX
  8
51
 10
9.9118
 20
11.2126
 30
0.0000
  0
SEQEND
  8
0
  0
POLYLINE
  8
51
 66
1
 10
0.0000
 20
0.0000
 30
0.0000
 40
0.0508
 41
0.0508
 70
0
  0
VERTEX
  8
51
 10
9.1806
 20
11.9438
 30
0.0000
 42
1.0000
  0
VERTEX
  8
51
 10
9.1781
 20
11.8931
 30
0.0000
  0
SEQEND
  8
0
  0
INSERT
  8
21
  2
RECT
 10
9.1440
 20
11.1760
 30
0.0000
 41
0.2000
 42
0.2000
 43
1.0000
 50
45.0000
  0
INSERT
  8
51
  2
RECT
 10
9.9925
 20
11.2114
 30
0.0000
 41
0.3500
 42
0.2500
 43
1.0000
 50
45.0000
  0
INSERT
  8
51
  2
RECT
 10
9.8158
 20
11.7063
 30
0.0000
 41
0.1000
 42
1.2000
 43
1.0000
 50
45.0000
  0
INSERT
  8
51
  2
RECT
 10
9.3031
 20
12.2190
 30
0.0000
 41
0.1000
 42
0.1500
 43
1.0000
 50
45.0000
  0
INSERT
  8
51
  2
RECT
 10
8.6137
 20
10.5042
 30
0.0000
 41
0.1000
 42
1.2000
 43
1.0000
 50
45.0000
  0
INSERT
  8
51
  2
RECT
 10
8.1010
 20
11.0169
 30
0.0000
 41
0.1000
 42
0.1500
 43
1.0000
 50
45.0000
  0
INSERT
  8
21
  2
RECT
 10
9.9218
 20
11.1406
 30
0.0000
 41
0.1500
 42
0.2500
 43
1.0000
 50
45.0000
  0
INSERT
  8
1
  2
RECT
 10
8.1385
 20
10.1705
 30
0.0000
 41
1.6000
 42
1.8030
 43
1.0000
 50
45.0000
  0
INSERT
  8
1
  2
RECT
 10
10.1495
 20
12.1815
 30
0.0000
 41
1.6000
 42
1.8030
 43
1.0000
 50
45.0000
  0
POINT
  8
23
 10
9.1440
 20
11.1760
 30
0.0000
  0
POLYLINE
  8
51
 66
1
 10
0.0000
 20
0.0000
 30
0.0000
 40
0.2540
 41
0.2540
 70
0
  0
VERTEX
  8
51
 10
11.1556
 20
11.3915
 30
0.0000
  0
VERTEX
  8
51
 10
9.3595
 20
13.1876
 30
0.0000
  0
SEQEND
  8
0
  0
POLYLINE
  8
51
 66
1
 10
0.0000
 20
0.0000
 30
0.0000
 40
0.1270
 41
0.1270
 70
0
  0
VERTEX
  8
51
 10
9.4044
 20
13.2325
 30
0.0000
 42
1.0000
  0
VERTEX
  8
51
 10
9.3146
 20
13.1427
 30
0.0000
  0
SEQEND
  8
0
  0
POLYLINE
  8
51
 66
1
 10
0.0000
 20
0.0000
 30
0.0000
 40
0.1270
 41
0.1270
 70
0
  0
VERTEX
  8
51
 10
11.1107
 20
11.3466
 30
0.0000
 42
1.0000
  0
VERTEX
  8
51
 10
11.2005
 20
11.4364
 30
0.0000
  0
SEQEND
  8
0
  0
POLYLINE
  8
51
 66
1
 10
0.0000
 20
0.0000
 30
0.0000
 40
0.2540
 41
0.2540
 70
0
  0
VERTEX
  8
51
 10
9.3279
 20
13.1997
 30
0.0000
 42
0.2226
  0
VERTEX
  8
51
 10
7.7072
 20
12.6128
 30
0.0000
  0
SEQEND
  8
0
  0
POLYLINE
  8
51
 66
1
 10
0.0000
 20
0.0000
 30
0.0000
 40
0.2540
 41
0.2540
 70
0
  0
VERTEX
  8
51
 10
7.7072
 20
12.6128
 30
0.0000
 42
0.2770
  0
VERTEX
  8
51
 10
7.2001
 20
10.5844
 30
0.0000
  0
SEQEND
  8
0
  0
POLYLINE
  8
51
 66
1
 10
0.0000
 20
0.0000
 30
0.0000
 40
0.2540
 41
0.2540
 70
0
  0
VERTEX
  8
51
 10
10.5808
 20
9.7392
 30
0.0000
 42
0.2206
  0
VERTEX
  8
51
 10
11.1690
 20
11.3447
 30
0.0000
  0
SEQEND
  8
0
  0
POLYLINE
  8
51
 66
1
 10
0.0000
 20
0.0000
 30
0.0000
 40
0.2540
 41
0.2540
 70
0
  0
VERTEX
  8
51
 10
8.6094
 20
9.2155
 30
0.0000
 42
0.2691
  0
VERTEX
  8
51
 10
10.5808
 20
9.7392
 30
0.0000
  0
SEQEND
  8
0
  0
POLYLINE
  8
51
 66
1
 10
0.0000
 20
0.0000
 30
0.0000
 40
0.2540
 41
0.2540
 70
0
  0
VERTEX
  8
51
 10
7.1977
 20
10.5921
 30
0.0000
 42
0.1241
  0
VERTEX
  8
51
 10
7.7072
 20
9.7392
 30
0.0000
  0
SEQEND
  8
0
  0
POLYLINE
  8
51
 66
1
 10
0.0000
 20
0.0000
 30
0.0000
 40
0.2540
 41
0.2540
 70
0
  0
VERTEX
  8
51
 10
7.7072
 20
9.7392
 30
0.0000
 42
0.1388
  0
VERTEX
  8
51
 10
8.6733
 20
9.1992
 30
0.0000
  0
SEQEND
  8
0
  0
POLYLINE
  8
51
 66
1
 10
0.0000
 20
0.0000
 30
0.0000
 40
0.2540
 41
0.2540
 70
0
  0
VERTEX
  8
51
 10
9.3416
 20
13.2055
 30
0.0000
  0
VERTEX
  8
51
 10
9.7008
 20
12.8463
 30
0.0000
  0
SEQEND
  8
0
  0
POLYLINE
  8
51
 66
1
 10
0.0000
 20
0.0000
 30
0.0000
 40
0.1270
 41
0.1270
 70
0
  0
VERTEX
  8
51
 10
9.6559
 20
12.8014
 30
0.0000
 42
1.0000
  0
VERTEX
  8
51
 10
9.7457
 20
12.8912
 30
0.0000
  0
SEQEND
  8
0
  0
POLYLINE
  8
51
 66
1
 10
0.0000
 20
0.0000
 30
0.0000
 40
0.1270
 41
0.1270
 70
0
  0
VERTEX
  8
51
 10
9.3865
 20
13.2504
 30
0.0000
 42
1.0000
  0
VERTEX
  8
51
 10
9.2967
 20
13.1606
 30
0.0000
  0
SEQEND
  8
0
  0
POLYLINE
  8
51
 66
1
 10
0.0000
 20
0.0000
 30
0.0000
 40
0.2540
 41
0.2540
 70
0
  0
VERTEX
  8
51
 10
11.1735
 20
11.3736
 30
0.0000
  0
VERTEX
  8
51
 10
10.8502
 20
11.6969
 30
0.0000
  0
SEQEND
  8
0
  0
POLYLINE
  8
51
 66
1
 10
0.0000
 20
0.0000
 30
0.0000
 40
0.1270
 41
0.1270
 70
0
  0
VERTEX
  8
51
 10
10.8951
 20
11.7418
 30
0.0000
 42
1.0000
  0
VERTEX
  8
51
 10
10.8053
 20
11.6520
 30
0.0000
  0
SEQEND
  8
0
  0
POLYLINE
  8
51
 66
1
 10
0.0000
 20
0.0000
 30
0.0000
 40
0.1270
 41
0.1270
 70
0
  0
VERTEX
  8
51
 10
11.1286
 20
11.3287
 30
0.0000
 42
1.0000
  0
VERTEX
  8
51
 10
11.2184
 20
11.4185
 30
0.0000
  0
SEQEND
  8
0
  0
INSERT
  8
17
  2
ROUNDP
 10
8.2460
 20
10.2780
 30
0.0000
 41
1.2192
 42
1.2192
 43
1.0000
 50
45.0000
  0
INSERT
  8
17
  2
ROUNDP
 10
8.2460
 20
10.2780
 30
0.0000
 41
1.2192
 42
1.2192
 43
1.0000
 50
45.0000
  0
INSERT
  8
17
  2
ROUNDP
 10
10.0420
 20
12.0740
 30
0.0000
 41
1.2192
 42
1.2192
 43
1.0000
 50
45.0000
  0
INSERT
  8
17
  2
ROUNDP
 10
10.0420
 20
12.0740
 30
0.0000
 41
1.2192
 42
1.2192
 43
1.0000
 50
45.0000
  0
POINT
  8
23
 10
11.4300
 20
8.8900
 30
0.0000
  0
POLYLINE
  8
51
 66
1
 10
0.0000
 20
0.0000
 30
0.0000
 40
0.1016
 41
0.1016
 70
0
  0
VERTEX
  8
51
 10
11.9872
 20
8.8363
 30
0.0000
  0
VERTEX
  8
51
 10
11.4837
 20
8.3328
 30
0.0000
  0
SEQEND
  8
0
  0
POLYLINE
  8
51
 66
1
 10
0.0000
 20
0.0000
 30
0.0000
 40
0.0508
 41
0.0508
 70
0
  0
VERTEX
  8
51
 10
11.4658
 20
8.3508
 30
0.0000
 42
1.0000
  0
VERTEX
  8
51
 10
11.5017
 20
8.3148
 30
0.0000
  0
SEQEND
  8
0
  0
POLYLINE
  8
51
 66
1
 10
0.0000
 20
0.0000
 30
0.0000
 40
0.0508
 41
0.0508
 70
0
  0
VERTEX
  8
51
 10
12.0052
 20
8.8183
 30
0.0000
 42
1.0000
  0
VERTEX
  8
51
 10
11.9692
 20
8.8542
 30
0.0000
  0
SEQEND
  8
0
  0
POLYLINE
  8
51
 66
1
 10
0.0000
 20
0.0000
 30
0.0000
 40
0.1016
 41
0.1016
 70
0
  0
VERTEX
  8
51
 10
11.3855
 20
9.4380
 30
0.0000
  0
VERTEX
  8
51
 10
10.8820
 20
8.9345
 30
0.0000
  0
SEQEND
  8
0
  0
POLYLINE
  8
51
 66
1
 10
0.0000
 20
0.0000
 30
0.0000
 40
0.0508
 41
0.0508
 70
0
  0
VERTEX
  8
51
 10
10.8640
 20
8.9525
 30
0.0000
 42
1.0000
  0
VERTEX
  8
51
 10
10.9000
 20
8.9166
 30
0.0000
  0
SEQEND
  8
0
  0
POLYLINE
  8
51
 66
1
 10
0.0000
 20
0.0000
 30
0.0000
 40
0.0508
 41
0.0508
 70
0
  0
VERTEX
  8
51
 10
11.4034
 20
9.4200
 30
0.0000
 42
1.0000
  0
VERTEX
  8
51
 10
11.3675
 20
9.4560
 30
0.0000
  0
SEQEND
  8
0
  0
INSERT
  8
51
  2
RECT
 10
11.8495
 20
9.3023
 30
0.0000
 41
0.5001
 42
0.9500
 43
1.0000
 50
225.0000
  0
INSERT
  8
51
  2
RECT
 10
11.0233
 20
8.4761
 30
0.0000
 41
0.5001
 42
0.9500
 43
1.0000
 50
225.0000
  0
INSERT
  8
21
  2
RECT
 10
11.4300
 20
8.8900
 30
0.0000
 41
0.4572
 42
0.7620
 43
1.0000
 50
225.0000
  0
INSERT
  8
1
  2
RECT
 10
12.0310
 20
9.4910
 30
0.0000
 41
1.1000
 42
1.0000
 43
1.0000
 50
225.0000
  0
INSERT
  8
1
  2
RECT
 10
10.8290
 20
8.2890
 30
0.0000
 41
1.1000
 42
1.0000
 43
1.0000
 50
225.0000
  0
POINT
  8
23
 10
0.0000
 20
-6.3500
 30
0.0000
  0
POLYLINE
  8
1
 66
1
 10
0.0000
 20
0.0000
 30
0.0000
 40
0.4064
 41
0.4064
 70
0
  0
VERTEX
  8
1
 10
8.1600
 20
12.1600
 30
0.0000
  0
VERTEX
  8
1
 10
8.1600
 20
15.0180
 30
0.0000
  0
SEQEND
  8
0
  0
POLYLINE
  8
1
 66
1
 10
0.0000
 20
0.0000
 30
0.0000
 40
0.2032
 41
0.2032
 70
0
  0
VERTEX
  8
1
 10
8.2616
 20
15.0180
 30
0.0000
 42
1.0000
  0
VERTEX
  8
1
 10
8.0584
 20
15.0180
 30
0.0000
  0
SEQEND
  8
0
  0
POLYLINE
  8
1
 66
1
 10
0.0000
 20
0.0000
 30
0.0000
 40
0.2032
 41
0.2032
 70
0
  0
VERTEX
  8
1
 10
8.0584
 20
12.1600
 30
0.0000
 42
1.0000
  0
VERTEX
  8
1
 10
8.2616
 20
12.1600
 30
0.0000
  0
SEQEND
  8
0
  0
POLYLINE
  8
1
 66
1
 10
0.0000
 20
0.0000
 30
0.0000
 40
0.4064
 41
0.4064
 70
0
  0
VERTEX
  8
1
 10
10.2870
 20
10.0330
 30
0.0000
  0
VERTEX
  8
1
 10
8.1600
 20
12.1600
 30
0.0000
  0
SEQEND
  8
0
  0
POLYLINE
  8
1
 66
1
 10
0.0000
 20
0.0000
 30
0.0000
 40
0.2032
 41
0.2032
 70
0
  0
VERTEX
  8
1
 10
8.2318
 20
12.2318
 30
0.0000
 42
1.0000
  0
VERTEX
  8
1
 10
8.0882
 20
12.0882
 30
0.0000
  0
SEQEND
  8
0
  0
POLYLINE
  8
1
 66
1
 10
0.0000
 20
0.0000
 30
0.0000
 40
0.2032
 41
0.2032
 70
0
  0
VERTEX
  8
1
 10
10.2152
 20
9.9612
 30
0.0000
 42
1.0000
  0
VERTEX
  8
1
 10
10.3588
 20
10.1048
 30
0.0000
  0
SEQEND
  8
0
  0
POLYLINE
  8
1
 66
1
 10
0.0000
 20
0.0000
 30
0.0000
 40
0.4064
 41
0.4064
 70
0
  0
VERTEX
  8
1
 10
8.1600
 20
12.1600
 30
0.0000
  0
VERTEX
  8
1
 10
5.3020
 20
12.1600
 30
0.0000
  0
SEQEND
  8
0
  0
POLYLINE
  8
1
 66
1
 10
0.0000
 20
0.0000
 30
0.0000
 40
0.2032
 41
0.2032
 70
0
  0
VERTEX
  8
1
 10
5.3020
 20
12.2616
 30
0.0000
 42
1.0000
  0
VERTEX
  8
1
 10
5.3020
 20
12.0584
 30
0.0000
  0
SEQEND
  8
0
  0
POLYLINE
  8
1
 66
1
 10
0.0000
 20
0.0000
 30
0.0000
 40
0.2032
 41
0.2032
 70
0
  0
VERTEX
  8
1
 10
8.1600
 20
12.0584
 30
0.0000
 42
1.0000
  0
VERTEX
  8
1
 10
8.1600
 20
12.2616
 30
0.0000
  0
SEQEND
  8
0
  0
POLYLINE
  8
1
 66
1
 10
0.0000
 20
0.0000
 30
0.0000
 40
0.4064
 41
0.4064
 70
0
  0
VERTEX
  8
1
 10
11.8896
 20
9.3194
 30
0.0000
  0
VERTEX
  8
1
 10
12.0310
 20
9.4910
 30
0.0000
  0
SEQEND
  8
0
  0
POLYLINE
  8
1
 66
1
 10
0.0000
 20
0.0000
 30
0.0000
 40
0.2032
 41
0.2032
 70
0
  0
VERTEX
  8
1
 10
12.1094
 20
9.4264
 30
0.0000
 42
1.0000
  0
VERTEX
  8
1
 10
11.9526
 20
9.5557
 30
0.0000
  0
SEQEND
  8
0
  0
POLYLINE
  8
1
 66
1
 10
0.0000
 20
0.0000
 30
0.0000
 40
0.2032
 41
0.2032
 70
0
  0
VERTEX
  8
1
 10
11.8112
 20
9.3840
 30
0.0000
 42
1.0000
  0
VERTEX
  8
1
 10
11.9680
 20
9.2548
 30
0.0000
  0
SEQEND
  8
0
  0
POLYLINE
  8
1
 66
1
 10
0.0000
 20
0.0000
 30
0.0000
 40
0.4064
 41
0.4064
 70
0
  0
VERTEX
  8
1
 10
11.8896
 20
9.3194
 30
0.0000
  0
VERTEX
  8
1
 10
11.8896
 20
9.5734
 30
0.0000
  0
SEQEND
  8
0
  0
POLYLINE
  8
1
 66
1
 10
0.0000
 20
0.0000
 30
0.0000
 40
0.2032
 41
0.2032
 70
0
  0
VERTEX
  8
1
 10
11.9912
 20
9.5734
 30
0.0000
 42
1.0000
  0
VERTEX
  8
1
 10
11.7880
 20
9.5734
 30
0.0000
  0
SEQEND
  8
0
  0
POLYLINE
  8
1
 66
1
 10
0.0000
 20
0.0000
 30
0.0000
 40
0.2032
 41
0.2032
 70
0
  0
VERTEX
  8
1
 10
11.7880
 20
9.3194
 30
0.0000
 42
1.0000
  0
VERTEX
  8
1
 10
11.9912
 20
9.3194
 30
0.0000
  0
SEQEND
  8
0
  0
POLYLINE
  8
1
 66
1
 10
0.0000
 20
0.0000
 30
0.0000
 40
0.4064
 41
0.4064
 70
0
  0
VERTEX
  8
1
 10
11.8896
 20
9.5734
 30
0.0000
  0
VERTEX
  8
1
 10
11.4300
 20
10.0330
 30
0.0000
  0
SEQEND
  8
0
  0
POLYLINE
  8
1
 66
1
 10
0.0000
 20
0.0000
 30
0.0000
 40
0.2032
 41
0.2032
 70
0
  0
VERTEX
  8
1
 10
11.5018
 20
10.1048
 30
0.0000
 42
1.0000
  0
VERTEX
  8
1
 10
11.3582
 20
9.9612
 30
0.0000
  0
SEQEND
  8
0
  0
POLYLINE
  8
1
 66
1
 10
0.0000
 20
0.0000
 30
0.0000
 40
0.2032
 41
0.2032
 70
0
  0
VERTEX
  8
1
 10
11.8178
 20
9.5016
 30
0.0000
 42
1.0000
  0
VERTEX
  8
1
 10
11.9614
 20
9.6452
 30
0.0000
  0
SEQEND
  8
0
  0
POLYLINE
  8
1
 66
1
 10
0.0000
 20
0.0000
 30
0.0000
 40
0.4064
 41
0.4064
 70
0
  0
VERTEX
  8
1
 10
11.4300
 20
10.0330
 30
0.0000
  0
VERTEX
  8
1
 10
10.2870
 20
10.0330
 30
0.0000
  0
SEQEND
  8
0
  0
POLYLINE
  8
1
 66
1
 10
0.0000
 20
0.0000
 30
0.0000
 40
0.2032
 41
0.2032
 70
0
  0
VERTEX
  8
1
 10
10.2870
 20
10.1346
 30
0.0000
 42
1.0000
  0
VERTEX
  8
1
 10
10.2870
 20
9.9314
 30
0.0000
  0
SEQEND
  8
0
  0
POLYLINE
  8
1
 66
1
 10
0.0000
 20
0.0000
 30
0.0000
 40
0.2032
 41
0.2032
 70
0
  0
VERTEX
  8
1
 10
11.4300
 20
9.9314
 30
0.0000
 42
1.0000
  0
VERTEX
  8
1
 10
11.4300
 20
10.1346
 30
0.0000
  0
SEQEND
  8
0
  0
POLYLINE
  8
1
 66
1
 10
0.0000
 20
0.0000
 30
0.0000
 40
0.4064
 41
0.4064
 70
0
  0
VERTEX
  8
1
 10
11.8896
 20
9.3194
 30
0.0000
  0
VERTEX
  8
1
 10
12.2706
 20
9.3194
 30
0.0000
  0
SEQEND
  8
0
  0
POLYLINE
  8
1
 66
1
 10
0.0000
 20
0.0000
 30
0.0000
 40
0.2032
 41
0.2032
 70
0
  0
VERTEX
  8
1
 10
12.2706
 20
9.2178
 30
0.0000
 42
1.0000
  0
VERTEX
  8
1
 10
12.2706
 20
9.4210
 30
0.0000
  0
SEQEND
  8
0
  0
POLYLINE
  8
1
 66
1
 10
0.0000
 20
0.0000
 30
0.0000
 40
0.2032
 41
0.2032
 70
0
  0
VERTEX
  8
1
 10
11.8896
 20
9.4210
 30
0.0000
 42
1.0000
  0
VERTEX
  8
1
 10
11.8896
 20
9.2178
 30
0.0000
  0
SEQEND
  8
0
  0
POLYLINE
  8
1
 66
1
 10
0.0000
 20
0.0000
 30
0.0000
 40
0.4064
 41
0.4064
 70
0
  0
VERTEX
  8
1
 10
15.0180
 20
8.1600
 30
0.0000
  0
VERTEX
  8
1
 10
13.4300
 20
8.1600
 30
0.0000
  0
SEQEND
  8
0
  0
POLYLINE
  8
1
 66
1
 10
0.0000
 20
0.0000
 30
0.0000
 40
0.2032
 41
0.2032
 70
0
  0
VERTEX
  8
1
 10
13.4300
 20
8.2616
 30
0.0000
 42
1.0000
  0
VERTEX
  8
1
 10
13.4300
 20
8.0584
 30
0.0000
  0
SEQEND
  8
0
  0
POLYLINE
  8
1
 66
1
 10
0.0000
 20
0.0000
 30
0.0000
 40
0.2032
 41
0.2032
 70
0
  0
VERTEX
  8
1
 10
15.0180
 20
8.0584
 30
0.0000
 42
1.0000
  0
VERTEX
  8
1
 10
15.0180
 20
8.2616
 30
0.0000
  0
SEQEND
  8
0
  0
POLYLINE
  8
1
 66
1
 10
0.0000
 20
0.0000
 30
0.0000
 40
0.4064
 41
0.4064
 70
0
  0
VERTEX
  8
1
 10
13.4300
 20
8.1600
 30
0.0000
  0
VERTEX
  8
1
 10
13.0810
 20
8.5090
 30
0.0000
  0
SEQEND
  8
0
  0
POLYLINE
  8
1
 66
1
 10
0.0000
 20
0.0000
 30
0.0000
 40
0.2032
 41
0.2032
 70
0
  0
VERTEX
  8
1
 10
13.1528
 20
8.5808
 30
0.0000
 42
1.0000
  0
VERTEX
  8
1
 10
13.0092
 20
8.4372
 30
0.0000
  0
SEQEND
  8
0
  0
POLYLINE
  8
1
 66
1
 10
0.0000
 20
0.0000
 30
0.0000
 40
0.2032
 41
0.2032
 70
0
  0
VERTEX
  8
1
 10
13.3582
 20
8.0882
 30
0.0000
 42
1.0000
  0
VERTEX
  8
1
 10
13.5018
 20
8.2318
 30
0.0000
  0
SEQEND
  8
0
  0
POLYLINE
  8
1
 66
1
 10
0.0000
 20
0.0000
 30
0.0000
 40
0.4064
 41
0.4064
 70
0
  0
VERTEX
  8
1
 10
13.0810
 20
8.5090
 30
0.0000
  0
VERTEX
  8
1
 10
12.2706
 20
9.3194
 30
0.0000
  0
SEQEND
  8
0
  0
POLYLINE
  8
1
 66
1
 10
0.0000
 20
0.0000
 30
0.0000
 40
0.2032
 41
0.2032
 70
0
  0
VERTEX
  8
1
 10
12.3424
 20
9.3912
 30
0.0000
 42
1.0000
  0
VERTEX
  8
1
 10
12.1988
 20
9.2476
 30
0.0000
  0
SEQEND
  8
0
  0
POLYLINE
  8
1
 66
1
 10
0.0000
 20
0.0000
 30
0.0000
 40
0.2032
 41
0.2032
 70
0
  0
VERTEX
  8
1
 10
13.0092
 20
8.4372
 30
0.0000
 42
1.0000
  0
VERTEX
  8
1
 10
13.1528
 20
8.5808
 30
0.0000
  0
SEQEND
  8
0
  0
POLYLINE
  8
1
 66
1
 10
0.0000
 20
0.0000
 30
0.0000
 40
0.4064
 41
0.4064
 70
0
  0
VERTEX
  8
1
 10
12.1600
 20
5.3020
 30
0.0000
  0
VERTEX
  8
1
 10
12.1600
 20
7.5880
 30
0.0000
  0
SEQEND
  8
0
  0
POLYLINE
  8
1
 66
1
 10
0.0000
 20
0.0000
 30
0.0000
 40
0.2032
 41
0.2032
 70
0
  0
VERTEX
  8
1
 10
12.2616
 20
7.5880
 30
0.0000
 42
1.0000
  0
VERTEX
  8
1
 10
12.0584
 20
7.5880
 30
0.0000
  0
SEQEND
  8
0
  0
POLYLINE
  8
1
 66
1
 10
0.0000
 20
0.0000
 30
0.0000
 40
0.2032
 41
0.2032
 70
0
  0
VERTEX
  8
1
 10
12.0584
 20
5.3020
 30
0.0000
 42
1.0000
  0
VERTEX
  8
1
 10
12.2616
 20
5.3020
 30
0.0000
  0
SEQEND
  8
0
  0
POLYLINE
  8
1
 66
1
 10
0.0000
 20
0.0000
 30
0.0000
 40
0.4064
 41
0.4064
 70
0
  0
VERTEX
  8
1
 10
12.1600
 20
7.5880
 30
0.0000
  0
VERTEX
  8
1
 10
13.0810
 20
8.5090
 30
0.0000
  0
SEQEND
  8
0
  0
POLYLINE
  8
1
 66
1
 10
0.0000
 20
0.0000
 30
0.0000
 40
0.2032
 41
0.2032
 70
0
  0
VERTEX
  8
1
 10
13.1528
 20
8.4372
 30
0.0000
 42
1.0000
  0
VERTEX
  8
1
 10
13.0092
 20
8.5808
 30
0.0000
  0
SEQEND
  8
0
  0
POLYLINE
  8
1
 66
1
 10
0.0000
 20
0.0000
 30
0.0000
 40
0.2032
 41
0.2032
 70
0
  0
VERTEX
  8
1
 10
12.0882
 20
7.6598
 30
0.0000
 42
1.0000
  0
VERTEX
  8
1
 10
12.2318
 20
7.5162
 30
0.0000
  0
SEQEND
  8
0
  0
POLYLINE
  8
1
 66
1
 10
0.0000
 20
0.0000
 30
0.0000
 40
0.4064
 41
0.4064
 70
0
  0
VERTEX
  8
1
 10
12.1600
 20
14.0020
 30
0.0000
  0
VERTEX
  8
1
 10
12.1600
 20
15.0180
 30
0.0000
  0
SEQEND
  8
0
  0
POLYLINE
  8
1
 66
1
 10
0.0000
 20
0.0000
 30
0.0000
 40
0.2032
 41
0.2032
 70
0
  0
VERTEX
  8
1
 10
12.2616
 20
15.0180
 30
0.0000
 42
1.0000
  0
VERTEX
  8
1
 10
12.0584
 20
15.0180
 30
0.0000
  0
SEQEND
  8
0
  0
POLYLINE
  8
1
 66
1
 10
0.0000
 20
0.0000
 30
0.0000
 40
0.2032
 41
0.2032
 70
0
  0
VERTEX
  8
1
 10
12.0584
 20
14.0020
 30
0.0000
 42
1.0000
  0
VERTEX
  8
1
 10
12.2616
 20
14.0020
 30
0.0000
  0
SEQEND
  8
0
  0
POLYLINE
  8
1
 66
1
 10
0.0000
 20
0.0000
 30
0.0000
 40
0.4064
 41
0.4064
 70
0
  0
VERTEX
  8
1
 10
10.1495
 20
12.1815
 30
0.0000
  0
VERTEX
  8
1
 10
10.3395
 20
12.1815
 30
0.0000
  0
SEQEND
  8
0
  0
POLYLINE
  8
1
 66
1
 10
0.0000
 20
0.0000
 30
0.0000
 40
0.2032
 41
0.2032
 70
0
  0
VERTEX
  8
1
 10
10.3395
 20
12.0799
 30
0.0000
 42
1.0000
  0
VERTEX
  8
1
 10
10.3395
 20
12.2831
 30
0.0000
  0
SEQEND
  8
0
  0
POLYLINE
  8
1
 66
1
 10
0.0000
 20
0.0000
 30
0.0000
 40
0.2032
 41
0.2032
 70
0
  0
VERTEX
  8
1
 10
10.1495
 20
12.2831
 30
0.0000
 42
1.0000
  0
VERTEX
  8
1
 10
10.1495
 20
12.0799
 30
0.0000
  0
SEQEND
  8
0
  0
POLYLINE
  8
1
 66
1
 10
0.0000
 20
0.0000
 30
0.0000
 40
0.4064
 41
0.4064
 70
0
  0
VERTEX
  8
1
 10
10.3395
 20
12.1815
 30
0.0000
  0
VERTEX
  8
1
 10
11.3028
 20
13.1448
 30
0.0000
  0
SEQEND
  8
0
  0
POLYLINE
  8
1
 66
1
 10
0.0000
 20
0.0000
 30
0.0000
 40
0.2032
 41
0.2032
 70
0
  0
VERTEX
  8
1
 10
11.3746
 20
13.0730
 30
0.0000
 42
1.0000
  0
VERTEX
  8
1
 10
11.2310
 20
13.2166
 30
0.0000
  0
SEQEND
  8
0
  0
POLYLINE
  8
1
 66
1
 10
0.0000
 20
0.0000
 30
0.0000
 40
0.2032
 41
0.2032
 70
0
  0
VERTEX
  8
1
 10
10.2677
 20
12.2533
 30
0.0000
 42
1.0000
  0
VERTEX
  8
1
 10
10.4113
 20
12.1097
 30
0.0000
  0
SEQEND
  8
0
  0
POLYLINE
  8
1
 66
1
 10
0.0000
 20
0.0000
 30
0.0000
 40
0.4064
 41
0.4064
 70
0
  0
VERTEX
  8
1
 10
11.3028
 20
13.1448
 30
0.0000
  0
VERTEX
  8
1
 10
12.1600
 20
14.0020
 30
0.0000
  0
SEQEND
  8
0
  0
POLYLINE
  8
1
 66
1
 10
0.0000
 20
0.0000
 30
0.0000
 40
0.2032
 41
0.2032
 70
0
  0
VERTEX
  8
1
 10
12.2318
 20
13.9302
 30
0.0000
 42
1.0000
  0
VERTEX
  8
1
 10
12.0882
 20
14.0738
 30
0.0000
  0
SEQEND
  8
0
  0
POLYLINE
  8
1
 66
1
 10
0.0000
 20
0.0000
 30
0.0000
 40
0.2032
 41
0.2032
 70
0
  0
VERTEX
  8
1
 10
11.2310
 20
13.2166
 30
0.0000
 42
1.0000
  0
VERTEX
  8
1
 10
11.3746
 20
13.0730
 30
0.0000
  0
SEQEND
  8
0
  0
POLYLINE
  8
1
 66
1
 10
0.0000
 20
0.0000
 30
0.0000
 40
0.4064
 41
0.4064
 70
0
  0
VERTEX
  8
1
 10
10.0420
 20
12.0740
 30
0.0000
  0
VERTEX
  8
1
 10
10.1495
 20
12.1815
 30
0.0000
  0
SEQEND
  8
0
  0
POLYLINE
  8
1
 66
1
 10
0.0000
 20
0.0000
 30
0.0000
 40
0.2032
 41
0.2032
 70
0
  0
VERTEX
  8
1
 10
10.2213
 20
12.1097
 30
0.0000
 42
1.0000
  0
VERTEX
  8
1
 10
10.0777
 20
12.2533
 30
0.0000
  0
SEQEND
  8
0
  0
POLYLINE
  8
1
 66
1
 10
0.0000
 20
0.0000
 30
0.0000
 40
0.2032
 41
0.2032
 70
0
  0
VERTEX
  8
1
 10
9.9702
 20
12.1459
 30
0.0000
 42
1.0000
  0
VERTEX
  8
1
 10
10.1139
 20
12.0022
 30
0.0000
  0
SEQEND
  8
0
  0
POLYLINE
  8
1
 66
1
 10
0.0000
 20
0.0000
 30
0.0000
 40
0.4064
 41
0.4064
 70
0
  0
VERTEX
  8
1
 10
15.0175
 20
12.1600
 30
0.0000
  0
VERTEX
  8
1
 10
15.0180
 20
12.1600
 30
0.0000
  0
SEQEND
  8
0
  0
POLYLINE
  8
1
 66
1
 10
0.0000
 20
0.0000
 30
0.0000
 40
0.2032
 41
0.2032
 70
0
  0
VERTEX
  8
1
 10
15.0180
 20
12.0584
 30
0.0000
 42
1.0000
  0
VERTEX
  8
1
 10
15.0180
 20
12.2616
 30
0.0000
  0
SEQEND
  8
0
  0
POLYLINE
  8
1
 66
1
 10
0.0000
 20
0.0000
 30
0.0000
 40
0.2032
 41
0.2032
 70
0
  0
VERTEX
  8
1
 10
15.0175
 20
12.2616
 30
0.0000
 42
1.0000
  0
VERTEX
  8
1
 10
15.0175
 20
12.0584
 30
0.0000
  0
SEQEND
  8
0
  0
POLYLINE
  8
1
 66
1
 10
0.0000
 20
0.0000
 30
0.0000
 40
0.4064
 41
0.4064
 70
0
  0
VERTEX
  8
1
 10
14.6050
 20
11.7475
 30
0.0000
  0
VERTEX
  8
1
 10
15.0175
 20
12.1600
 30
0.0000
  0
SEQEND
  8
0
  0
POLYLINE
  8
1
 66
1
 10
0.0000
 20
0.0000
 30
0.0000
 40
0.2032
 41
0.2032
 70
0
  0
VERTEX
  8
1
 10
15.0893
 20
12.0882
 30
0.0000
 42
1.0000
  0
VERTEX
  8
1
 10
14.9457
 20
12.2318
 30
0.0000
  0
SEQEND
  8
0
  0
POLYLINE
  8
1
 66
1
 10
0.0000
 20
0.0000
 30
0.0000
 40
0.2032
 41
0.2032
 70
0
  0
VERTEX
  8
1
 10
14.5332
 20
11.8193
 30
0.0000
 42
1.0000
  0
VERTEX
  8
1
 10
14.6768
 20
11.6757
 30
0.0000
  0
SEQEND
  8
0
  0
POLYLINE
  8
1
 66
1
 10
0.0000
 20
0.0000
 30
0.0000
 40
0.4064
 41
0.4064
 70
0
  0
VERTEX
  8
1
 10
12.7001
 20
11.7475
 30
0.0000
  0
VERTEX
  8
1
 10
14.6050
 20
11.7475
 30
0.0000
  0
SEQEND
  8
0
  0
POLYLINE
  8
1
 66
1
 10
0.0000
 20
0.0000
 30
0.0000
 40
0.2032
 41
0.2032
 70
0
  0
VERTEX
  8
1
 10
14.6050
 20
11.6459
 30
0.0000
 42
1.0000
  0
VERTEX
  8
1
 10
14.6050
 20
11.8491
 30
0.0000
  0
SEQEND
  8
0
  0
POLYLINE
  8
1
 66
1
 10
0.0000
 20
0.0000
 30
0.0000
 40
0.2032
 41
0.2032
 70
0
  0
VERTEX
  8
1
 10
12.7001
 20
11.8491
 30
0.0000
 42
1.0000
  0
VERTEX
  8
1
 10
12.7001
 20
11.6459
 30
0.0000
  0
SEQEND
  8
0
  0
POLYLINE
  8
1
 66
1
 10
0.0000
 20
0.0000
 30
0.0000
 40
0.4064
 41
0.4064
 70
0
  0
VERTEX
  8
1
 10
11.3028
 20
13.1448
 30
0.0000
  0
VERTEX
  8
1
 10
12.7001
 20
11.7475
 30
0.0000
  0
SEQEND
  8
0
  0
POLYLINE
  8
1
 66
1
 10
0.0000
 20
0.0000
 30
0.0000
 40
0.2032
 41
0.2032
 70
0
  0
VERTEX
  8
1
 10
12.6283
 20
11.6757
 30
0.0000
 42
1.0000
  0
VERTEX
  8
1
 10
12.7719
 20
11.8193
 30
0.0000
  0
SEQEND
  8
0
  0
POLYLINE
  8
1
 66
1
 10
0.0000
 20
0.0000
 30
0.0000
 40
0.2032
 41
0.2032
 70
0
  0
VERTEX
  8
1
 10
11.3746
 20
13.2166
 30
0.0000
 42
1.0000
  0
VERTEX
  8
1
 10
11.2310
 20
13.0730
 30
0.0000
  0
SEQEND
  8
0
  0
POLYLINE
  8
1
 66
1
 10
0.0000
 20
0.0000
 30
0.0000
 40
0.4064
 41
0.4064
 70
0
  0
VERTEX
  8
1
 10
5.3025
 20
8.1600
 30
0.0000
  0
VERTEX
  8
1
 10
5.3020
 20
8.1600
 30
0.0000
  0
SEQEND
  8
0
  0
POLYLINE
  8
1
 66
1
 10
0.0000
 20
0.0000
 30
0.0000
 40
0.2032
 41
0.2032
 70
0
  0
VERTEX
  8
1
 10
5.3020
 20
8.2616
 30
0.0000
 42
1.0000
  0
VERTEX
  8
1
 10
5.3020
 20
8.0584
 30
0.0000
  0
SEQEND
  8
0
  0
POLYLINE
  8
1
 66
1
 10
0.0000
 20
0.0000
 30
0.0000
 40
0.2032
 41
0.2032
 70
0
  0
VERTEX
  8
1
 10
5.3025
 20
8.0584
 30
0.0000
 42
1.0000
  0
VERTEX
  8
1
 10
5.3025
 20
8.2616
 30
0.0000
  0
SEQEND
  8
0
  0
POLYLINE
  8
1
 66
1
 10
0.0000
 20
0.0000
 30
0.0000
 40
0.4064
 41
0.4064
 70
0
  0
VERTEX
  8
1
 10
5.7150
 20
8.5725
 30
0.0000
  0
VERTEX
  8
1
 10
5.3025
 20
8.1600
 30
0.0000
  0
SEQEND
  8
0
  0
POLYLINE
  8
1
 66
1
 10
0.0000
 20
0.0000
 30
0.0000
 40
0.2032
 41
0.2032
 70
0
  0
VERTEX
  8
1
 10
5.2307
 20
8.2318
 30
0.0000
 42
1.0000
  0
VERTEX
  8
1
 10
5.3743
 20
8.0882
 30
0.0000
  0
SEQEND
  8
0
  0
POLYLINE
  8
1
 66
1
 10
0.0000
 20
0.0000
 30
0.0000
 40
0.2032
 41
0.2032
 70
0
  0
VERTEX
  8
1
 10
5.7868
 20
8.5007
 30
0.0000
 42
1.0000
  0
VERTEX
  8
1
 10
5.6432
 20
8.6443
 30
0.0000
  0
SEQEND
  8
0
  0
POLYLINE
  8
1
 66
1
 10
0.0000
 20
0.0000
 30
0.0000
 40
0.4064
 41
0.4064
 70
0
  0
VERTEX
  8
1
 10
7.9375
 20
8.5725
 30
0.0000
  0
VERTEX
  8
1
 10
5.7150
 20
8.5725
 30
0.0000
  0
SEQEND
  8
0
  0
POLYLINE
  8
1
 66
1
 10
0.0000
 20
0.0000
 30
0.0000
 40
0.2032
 41
0.2032
 70
0
  0
VERTEX
  8
1
 10
5.7150
 20
8.6741
 30
0.0000
 42
1.0000
  0
VERTEX
  8
1
 10
5.7150
 20
8.4709
 30
0.0000
  0
SEQEND
  8
0
  0
POLYLINE
  8
1
 66
1
 10
0.0000
 20
0.0000
 30
0.0000
 40
0.2032
 41
0.2032
 70
0
  0
VERTEX
  8
1
 10
7.9375
 20
8.4709
 30
0.0000
 42
1.0000
  0
VERTEX
  8
1
 10
7.9375
 20
8.6741
 30
0.0000
  0
SEQEND
  8
0
  0
POLYLINE
  8
1
 66
1
 10
0.0000
 20
0.0000
 30
0.0000
 40
0.4064
 41
0.4064
 70
0
  0
VERTEX
  8
1
 10
8.5725
 20
7.9375
 30
0.0000
  0
VERTEX
  8
1
 10
7.9375
 20
8.5725
 30
0.0000
  0
SEQEND
  8
0
  0
POLYLINE
  8
1
 66
1
 10
0.0000
 20
0.0000
 30
0.0000
 40
0.2032
 41
0.2032
 70
0
  0
VERTEX
  8
1
 10
8.0093
 20
8.6443
 30
0.0000
 42
1.0000
  0
VERTEX
  8
1
 10
7.8657
 20
8.5007
 30
0.0000
  0
SEQEND
  8
0
  0
POLYLINE
  8
1
 66
1
 10
0.0000
 20
0.0000
 30
0.0000
 40
0.2032
 41
0.2032
 70
0
  0
VERTEX
  8
1
 10
8.5007
 20
7.8657
 30
0.0000
 42
1.0000
  0
VERTEX
  8
1
 10
8.6443
 20
8.0093
 30
0.0000
  0
SEQEND
  8
0
  0
POLYLINE
  8
1
 66
1
 10
0.0000
 20
0.0000
 30
0.0000
 40
0.4064
 41
0.4064
 70
0
  0
VERTEX
  8
1
 10
8.5725
 20
5.7145
 30
0.0000
  0
VERTEX
  8
1
 10
8.5725
 20
7.9375
 30
0.0000
  0
SEQEND
  8
0
  0
POLYLINE
  8
1
 66
1
 10
0.0000
 20
0.0000
 30
0.0000
 40
0.2032
 41
0.2032
 70
0
  0
VERTEX
  8
1
 10
8.6741
 20
7.9375
 30
0.0000
 42
1.0000
  0
VERTEX
  8
1
 10
8.4709
 20
7.9375
 30
0.0000
  0
SEQEND
  8
0
  0
POLYLINE
  8
1
 66
1
 10
0.0000
 20
0.0000
 30
0.0000
 40
0.2032
 41
0.2032
 70
0
  0
VERTEX
  8
1
 10
8.4709
 20
5.7145
 30
0.0000
 42
1.0000
  0
VERTEX
  8
1
 10
8.6741
 20
5.7145
 30
0.0000
  0
SEQEND
  8
0
  0
POLYLINE
  8
1
 66
1
 10
0.0000
 20
0.0000
 30
0.0000
 40
0.4064
 41
0.4064
 70
0
  0
VERTEX
  8
1
 10
8.1600
 20
5.3020
 30
0.0000
  0
VERTEX
  8
1
 10
8.5725
 20
5.7145
 30
0.0000
  0
SEQEND
  8
0
  0
POLYLINE
  8
1
 66
1
 10
0.0000
 20
0.0000
 30
0.0000
 40
0.2032
 41
0.2032
 70
0
  0
VERTEX
  8
1
 10
8.6443
 20
5.6427
 30
0.0000
 42
1.0000
  0
VERTEX
  8
1
 10
8.5007
 20
5.7863
 30
0.0000
  0
SEQEND
  8
0
  0
POLYLINE
  8
1
 66
1
 10
0.0000
 20
0.0000
 30
0.0000
 40
0.2032
 41
0.2032
 70
0
  0
VERTEX
  8
1
 10
8.0882
 20
5.3738
 30
0.0000
 42
1.0000
  0
VERTEX
  8
1
 10
8.2318
 20
5.2302
 30
0.0000
  0
SEQEND
  8
0
  0
POLYLINE
  8
16
 66
1
 10
0.0000
 20
0.0000
 30
0.0000
 40
0.4064
 41
0.4064
 70
0
  0
VERTEX
  8
16
 10
10.0420
 20
9.7245
 30
0.0000
  0
VERTEX
  8
16
 10
10.0420
 20
12.0740
 30
0.0000
  0
SEQEND
  8
0
  0
POLYLINE
  8
16
 66
1
 10
0.0000
 20
0.0000
 30
0.0000
 40
0.2032
 41
0.2032
 70
0
  0
VERTEX
  8
16
 10
10.1436
 20
12.0740
 30
0.0000
 42
1.0000
  0
VERTEX
  8
16
 10
9.9404
 20
12.0740
 30
0.0000
  0
SEQEND
  8
0
  0
POLYLINE
  8
16
 66
1
 10
0.0000
 20
0.0000
 30
0.0000
 40
0.2032
 41
0.2032
 70
0
  0
VERTEX
  8
16
 10
9.9404
 20
9.7245
 30
0.0000
 42
1.0000
  0
VERTEX
  8
16
 10
10.1436
 20
9.7245
 30
0.0000
  0
SEQEND
  8
0
  0
POLYLINE
  8
16
 66
1
 10
0.0000
 20
0.0000
 30
0.0000
 40
0.4064
 41
0.4064
 70
0
  0
VERTEX
  8
16
 10
8.8900
 20
8.5725
 30
0.0000
  0
VERTEX
  8
16
 10
10.0420
 20
9.7245
 30
0.0000
  0
SEQEND
  8
0
  0
POLYLINE
  8
16
 66
1
 10
0.0000
 20
0.0000
 30
0.0000
 40
0.2032
 41
0.2032
 70
0
  0
VERTEX
  8
16
 10
10.1138
 20
9.6527
 30
0.0000
 42
1.0000
  0
VERTEX
  8
16
 10
9.9702
 20
9.7963
 30
0.0000
  0
SEQEND
  8
0
  0
POLYLINE
  8
16
 66
1
 10
0.0000
 20
0.0000
 30
0.0000
 40
0.2032
 41
0.2032
 70
0
  0
VERTEX
  8
16
 10
8.8182
 20
8.6443
 30
0.0000
 42
1.0000
  0
VERTEX
  8
16
 10
8.9618
 20
8.5007
 30
0.0000
  0
SEQEND
  8
0
  0
POLYLINE
  8
16
 66
1
 10
0.0000
 20
0.0000
 30
0.0000
 40
0.4064
 41
0.4064
 70
0
  0
VERTEX
  8
16
 10
5.7145
 20
8.5725
 30
0.0000
  0
VERTEX
  8
16
 10
8.8900
 20
8.5725
 30
0.0000
  0
SEQEND
  8
0
  0
POLYLINE
  8
16
 66
1
 10
0.0000
 20
0.0000
 30
0.0000
 40
0.2032
 41
0.2032
 70
0
  0
VERTEX
  8
16
 10
8.8900
 20
8.4709
 30
0.0000
 42
1.0000
  0
VERTEX
  8
16
 10
8.8900
 20
8.6741
 30
0.0000
  0
SEQEND
  8
0
  0
POLYLINE
  8
16
 66
1
 10
0.0000
 20
0.0000
 30
0.0000
 40
0.2032
 41
0.2032
 70
0
  0
VERTEX
  8
16
 10
5.7145
 20
8.6741
 30
0.0000
 42
1.0000
  0
VERTEX
  8
16
 10
5.7145
 20
8.4709
 30
0.0000
  0
SEQEND
  8
0
  0
POLYLINE
  8
16
 66
1
 10
0.0000
 20
0.0000
 30
0.0000
 40
0.4064
 41
0.4064
 70
0
  0
VERTEX
  8
16
 10
5.3020
 20
8.1600
 30
0.0000
  0
VERTEX
  8
16
 10
5.7145
 20
8.5725
 30
0.0000
  0
SEQEND
  8
0
  0
POLYLINE
  8
16
 66
1
 10
0.0000
 20
0.0000
 30
0.0000
 40
0.2032
 41
0.2032
 70
0
  0
VERTEX
  8
16
 10
5.7863
 20
8.5007
 30
0.0000
 42
1.0000
  0
VERTEX
  8
16
 10
5.6427
 20
8.6443
 30
0.0000
  0
SEQEND
  8
0
  0
POLYLINE
  8
16
 66
1
 10
0.0000
 20
0.0000
 30
0.0000
 40
0.2032
 41
0.2032
 70
0
  0
VERTEX
  8
16
 10
5.2302
 20
8.2318
 30
0.0000
 42
1.0000
  0
VERTEX
  8
16
 10
5.3738
 20
8.0882
 30
0.0000
  0
SEQEND
  8
0
  0
POLYLINE
  8
16
 66
1
 10
0.0000
 20
0.0000
 30
0.0000
 40
0.4064
 41
0.4064
 70
0
  0
VERTEX
  8
16
 10
10.1600
 20
5.3020
 30
0.0000
  0
VERTEX
  8
16
 10
10.1600
 20
6.3500
 30
0.0000
  0
SEQEND
  8
0
  0
POLYLINE
  8
16
 66
1
 10
0.0000
 20
0.0000
 30
0.0000
 40
0.2032
 41
0.2032
 70
0
  0
VERTEX
  8
16
 10
10.2616
 20
6.3500
 30
0.0000
 42
1.0000
  0
VERTEX
  8
16
 10
10.0584
 20
6.3500
 30
0.0000
  0
SEQEND
  8
0
  0
POLYLINE
  8
16
 66
1
 10
0.0000
 20
0.0000
 30
0.0000
 40
0.2032
 41
0.2032
 70
0
  0
VERTEX
  8
16
 10
10.0584
 20
5.3020
 30
0.0000
 42
1.0000
  0
VERTEX
  8
16
 10
10.2616
 20
5.3020
 30
0.0000
  0
SEQEND
  8
0
  0
POLYLINE
  8
16
 66
1
 10
0.0000
 20
0.0000
 30
0.0000
 40
0.4064
 41
0.4064
 70
0
  0
VERTEX
  8
16
 10
10.1600
 20
6.3500
 30
0.0000
  0
VERTEX
  8
16
 10
13.9700
 20
10.1600
 30
0.0000
  0
SEQEND
  8
0
  0
POLYLINE
  8
16
 66
1
 10
0.0000
 20
0.0000
 30
0.0000
 40
0.2032
 41
0.2032
 70
0
  0
VERTEX
  8
16
 10
14.0418
 20
10.0882
 30
0.0000
 42
1.0000
  0
VERTEX
  8
16
 10
13.8982
 20
10.2318
 30
0.0000
  0
SEQEND
  8
0
  0
POLYLINE
  8
16
 66
1
 10
0.0000
 20
0.0000
 30
0.0000
 40
0.2032
 41
0.2032
 70
0
  0
VERTEX
  8
16
 10
10.0882
 20
6.4218
 30
0.0000
 42
1.0000
  0
VERTEX
  8
16
 10
10.2318
 20
6.2782
 30
0.0000
  0
SEQEND
  8
0
  0
POLYLINE
  8
16
 66
1
 10
0.0000
 20
0.0000
 30
0.0000
 40
0.4064
 41
0.4064
 70
0
  0
VERTEX
  8
16
 10
13.9700
 20
10.1600
 30
0.0000
  0
VERTEX
  8
16
 10
15.0180
 20
10.1600
 30
0.0000
  0
SEQEND
  8
0
  0
POLYLINE
  8
16
 66
1
 10
0.0000
 20
0.0000
 30
0.0000
 40
0.2032
 41
0.2032
 70
0
  0
VERTEX
  8
16
 10
15.0180
 20
10.0584
 30
0.0000
 42
1.0000
  0
VERTEX
  8
16
 10
15.0180
 20
10.2616
 30
0.0000
  0
SEQEND
  8
0
  0
POLYLINE
  8
16
 66
1
 10
0.0000
 20
0.0000
 30
0.0000
 40
0.2032
 41
0.2032
 70
0
  0
VERTEX
  8
16
 10
13.9700
 20
10.2616
 30
0.0000
 42
1.0000
  0
VERTEX
  8
16
 10
13.9700
 20
10.0584
 30
0.0000
  0
SEQEND
  8
0
  0
POLYLINE
  8
16
 66
1
 10
0.0000
 20
0.0000
 30
0.0000
 40
0.4064
 41
0.4064
 70
0
  0
VERTEX
  8
16
 10
13.9700
 20
10.1600
 30
0.0000
  0
VERTEX
  8
16
 10
10.1600
 20
13.9700
 30
0.0000
  0
SEQEND
  8
0
  0
POLYLINE
  8
16
 66
1
 10
0.0000
 20
0.0000
 30
0.0000
 40
0.2032
 41
0.2032
 70
0
  0
VERTEX
  8
16
 10
10.2318
 20
14.0418
 30
0.0000
 42
1.0000
  0
VERTEX
  8
16
 10
10.0882
 20
13.8982
 30
0.0000
  0
SEQEND
  8
0
  0
POLYLINE
  8
16
 66
1
 10
0.0000
 20
0.0000
 30
0.0000
 40
0.2032
 41
0.2032
 70
0
  0
VERTEX
  8
16
 10
13.8982
 20
10.0882
 30
0.0000
 42
1.0000
  0
VERTEX
  8
16
 10
14.0418
 20
10.2318
 30
0.0000
  0
SEQEND
  8
0
  0
POLYLINE
  8
16
 66
1
 10
0.0000
 20
0.0000
 30
0.0000
 40
0.4064
 41
0.4064
 70
0
  0
VERTEX
  8
16
 10
10.1600
 20
13.9700
 30
0.0000
  0
VERTEX
  8
16
 10
10.1600
 20
15.0180
 30
0.0000
  0
SEQEND
  8
0
  0
POLYLINE
  8
16
 66
1
 10
0.0000
 20
0.0000
 30
0.0000
 40
0.2032
 41
0.2032
 70
0
  0
VERTEX
  8
16
 10
10.2616
 20
15.0180
 30
0.0000
 42
1.0000
  0
VERTEX
  8
16
 10
10.0584
 20
15.0180
 30
0.0000
  0
SEQEND
  8
0
  0
POLYLINE
  8
16
 66
1
 10
0.0000
 20
0.0000
 30
0.0000
 40
0.2032
 41
0.2032
 70
0
  0
VERTEX
  8
16
 10
10.0584
 20
13.9700
 30
0.0000
 42
1.0000
  0
VERTEX
  8
16
 10
10.2616
 20
13.9700
 30
0.0000
  0
SEQEND
  8
0
  0
POLYLINE
  8
16
 66
1
 10
0.0000
 20
0.0000
 30
0.0000
 40
0.4064
 41
0.4064
 70
0
  0
VERTEX
  8
16
 10
6.3500
 20
10.1600
 30
0.0000
  0
VERTEX
  8
16
 10
5.3020
 20
10.1600
 30
0.0000
  0
SEQEND
  8
0
  0
POLYLINE
  8
16
 66
1
 10
0.0000
 20
0.0000
 30
0.0000
 40
0.2032
 41
0.2032
 70
0
  0
VERTEX
  8
16
 10
5.3020
 20
10.2616
 30
0.0000
 42
1.0000
  0
VERTEX
  8
16
 10
5.3020
 20
10.0584
 30
0.0000
  0
SEQEND
  8
0
  0
POLYLINE
  8
16
 66
1
 10
0.0000
 20
0.0000
 30
0.0000
 40
0.2032
 41
0.2032
 70
0
  0
VERTEX
  8
16
 10
6.3500
 20
10.0584
 30
0.0000
 42
1.0000
  0
VERTEX
  8
16
 10
6.3500
 20
10.2616
 30
0.0000
  0
SEQEND
  8
0
  0
POLYLINE
  8
16
 66
1
 10
0.0000
 20
0.0000
 30
0.0000
 40
0.4064
 41
0.4064
 70
0
  0
VERTEX
  8
16
 10
10.1600
 20
13.9700
 30
0.0000
  0
VERTEX
  8
16
 10
6.3500
 20
10.1600
 30
0.0000
  0
SEQEND
  8
0
  0
POLYLINE
  8
16
 66
1
 10
0.0000
 20
0.0000
 30
0.0000
 40
0.2032
 41
0.2032
 70
0
  0
VERTEX
  8
16
 10
6.2782
 20
10.2318
 30
0.0000
 42
1.0000
  0
VERTEX
  8
16
 10
6.4218
 20
10.0882
 30
0.0000
  0
SEQEND
  8
0
  0
POLYLINE
  8
16
 66
1
 10
0.0000
 20
0.0000
 30
0.0000
 40
0.2032
 41
0.2032
 70
0
  0
VERTEX
  8
16
 10
10.2318
 20
13.8982
 30
0.0000
 42
1.0000
  0
VERTEX
  8
16
 10
10.0882
 20
14.0418
 30
0.0000
  0
SEQEND
  8
0
  0
POLYLINE
  8
1
 66
1
 10
0.0000
 20
0.0000
 30
0.0000
 40
0.4064
 41
0.4064
 70
0
  0
VERTEX
  8
1
 10
9.2528
 20
9.2710
 30
0.0000
  0
VERTEX
  8
1
 10
8.2460
 20
10.2780
 30
0.0000
  0
SEQEND
  8
0
  0
POLYLINE
  8
1
 66
1
 10
0.0000
 20
0.0000
 30
0.0000
 40
0.2032
 41
0.2032
 70
0
  0
VERTEX
  8
1
 10
8.3178
 20
10.3498
 30
0.0000
 42
1.0000
  0
VERTEX
  8
1
 10
8.1741
 20
10.2061
 30
0.0000
  0
SEQEND
  8
0
  0
POLYLINE
  8
1
 66
1
 10
0.0000
 20
0.0000
 30
0.0000
 40
0.2032
 41
0.2032
 70
0
  0
VERTEX
  8
1
 10
9.1810
 20
9.1992
 30
0.0000
 42
1.0000
  0
VERTEX
  8
1
 10
9.3246
 20
9.3428
 30
0.0000
  0
SEQEND
  8
0
  0
POLYLINE
  8
1
 66
1
 10
0.0000
 20
0.0000
 30
0.0000
 40
0.4064
 41
0.4064
 70
0
  0
VERTEX
  8
1
 10
8.2460
 20
10.2780
 30
0.0000
  0
VERTEX
  8
1
 10
8.1385
 20
10.1705
 30
0.0000
  0
SEQEND
  8
0
  0
POLYLINE
  8
1
 66
1
 10
0.0000
 20
0.0000
 30
0.0000
 40
0.2032
 41
0.2032
 70
0
  0
VERTEX
  8
1
 10
8.0667
 20
10.2423
 30
0.0000
 42
1.0000
  0
VERTEX
  8
1
 10
8.2103
 20
10.0987
 30
0.0000
  0
SEQEND
  8
0
  0
POLYLINE
  8
1
 66
1
 10
0.0000
 20
0.0000
 30
0.0000
 40
0.2032
 41
0.2032
 70
0
  0
VERTEX
  8
1
 10
8.3178
 20
10.2061
 30
0.0000
 42
1.0000
  0
VERTEX
  8
1
 10
8.1741
 20
10.3498
 30
0.0000
  0
SEQEND
  8
0
  0
POLYLINE
  8
1
 66
1
 10
0.0000
 20
0.0000
 30
0.0000
 40
0.4064
 41
0.4064
 70
0
  0
VERTEX
  8
1
 10
10.8290
 20
8.2890
 30
0.0000
  0
VERTEX
  8
1
 10
10.7610
 20
8.2890
 30
0.0000
  0
SEQEND
  8
0
  0
POLYLINE
  8
1
 66
1
 10
0.0000
 20
0.0000
 30
0.0000
 40
0.2032
 41
0.2032
 70
0
  0
VERTEX
  8
1
 10
10.7610
 20
8.3906
 30
0.0000
 42
1.0000
  0
VERTEX
  8
1
 10
10.7610
 20
8.1874
 30
0.0000
  0
SEQEND
  8
0
  0
POLYLINE
  8
1
 66
1
 10
0.0000
 20
0.0000
 30
0.0000
 40
0.2032
 41
0.2032
 70
0
  0
VERTEX
  8
1
 10
10.8290
 20
8.1874
 30
0.0000
 42
1.0000
  0
VERTEX
  8
1
 10
10.8290
 20
8.3906
 30
0.0000
  0
SEQEND
  8
0
  0
POLYLINE
  8
1
 66
1
 10
0.0000
 20
0.0000
 30
0.0000
 40
0.4064
 41
0.4064
 70
0
  0
VERTEX
  8
1
 10
10.7610
 20
8.2890
 30
0.0000
  0
VERTEX
  8
1
 10
10.1600
 20
8.8900
 30
0.0000
  0
SEQEND
  8
0
  0
POLYLINE
  8
1
 66
1
 10
0.0000
 20
0.0000
 30
0.0000
 40
0.2032
 41
0.2032
 70
0
  0
VERTEX
  8
1
 10
10.2318
 20
8.9618
 30
0.0000
 42
1.0000
  0
VERTEX
  8
1
 10
10.0882
 20
8.8182
 30
0.0000
  0
SEQEND
  8
0
  0
POLYLINE
  8
1
 66
1
 10
0.0000
 20
0.0000
 30
0.0000
 40
0.2032
 41
0.2032
 70
0
  0
VERTEX
  8
1
 10
10.6892
 20
8.2171
 30
0.0000
 42
1.0000
  0
VERTEX
  8
1
 10
10.8329
 20
8.3608
 30
0.0000
  0
SEQEND
  8
0
  0
POLYLINE
  8
1
 66
1
 10
0.0000
 20
0.0000
 30
0.0000
 40
0.4064
 41
0.4064
 70
0
  0
VERTEX
  8
1
 10
10.1600
 20
8.8900
 30
0.0000
  0
VERTEX
  8
1
 10
9.6338
 20
8.8900
 30
0.0000
  0
SEQEND
  8
0
  0
POLYLINE
  8
1
 66
1
 10
0.0000
 20
0.0000
 30
0.0000
 40
0.2032
 41
0.2032
 70
0
  0
VERTEX
  8
1
 10
9.6338
 20
8.9916
 30
0.0000
 42
1.0000
  0
VERTEX
  8
1
 10
9.6338
 20
8.7884
 30
0.0000
  0
SEQEND
  8
0
  0
POLYLINE
  8
1
 66
1
 10
0.0000
 20
0.0000
 30
0.0000
 40
0.2032
 41
0.2032
 70
0
  0
VERTEX
  8
1
 10
10.1600
 20
8.7884
 30
0.0000
 42
1.0000
  0
VERTEX
  8
1
 10
10.1600
 20
8.9916
 30
0.0000
  0
SEQEND
  8
0
  0
POLYLINE
  8
1
 66
1
 10
0.0000
 20
0.0000
 30
0.0000
 40
0.4064
 41
0.4064
 70
0
  0
VERTEX
  8
1
 10
9.6338
 20
8.8900
 30
0.0000
  0
VERTEX
  8
1
 10
9.2528
 20
9.2710
 30
0.0000
  0
SEQEND
  8
0
  0
POLYLINE
  8
1
 66
1
 10
0.0000
 20
0.0000
 30
0.0000
 40
0.2032
 41
0.2032
 70
0
  0
VERTEX
  8
1
 10
9.3246
 20
9.3428
 30
0.0000
 42
1.0000
  0
VERTEX
  8
1
 10
9.1810
 20
9.1992
 30
0.0000
  0
SEQEND
  8
0
  0
POLYLINE
  8
1
 66
1
 10
0.0000
 20
0.0000
 30
0.0000
 40
0.2032
 41
0.2032
 70
0
  0
VERTEX
  8
1
 10
9.5620
 20
8.8182
 30
0.0000
 42
1.0000
  0
VERTEX
  8
1
 10
9.7056
 20
8.9618
 30
0.0000
  0
SEQEND
  8
0
  0
ENDSEC
  0
EOF
