G04 EAGLE Gerber RS-274X export*
G75*
%MOMM*%
%FSLAX34Y34*%
%LPD*%
%INBottom Copper*%
%IPPOS*%
%AMOC8*
5,1,8,0,0,1.08239X$1,22.5*%
G01*
%ADD10C,3.516000*%
%ADD11C,1.778000*%
%ADD12C,0.906400*%

G36*
X110608Y2556D02*
X110608Y2556D01*
X110727Y2563D01*
X110765Y2576D01*
X110806Y2581D01*
X110916Y2624D01*
X111029Y2661D01*
X111064Y2683D01*
X111101Y2698D01*
X111197Y2767D01*
X111298Y2831D01*
X111326Y2861D01*
X111359Y2884D01*
X111435Y2976D01*
X111516Y3063D01*
X111536Y3098D01*
X111561Y3129D01*
X111612Y3237D01*
X111670Y3341D01*
X111680Y3381D01*
X111697Y3417D01*
X111719Y3534D01*
X111749Y3649D01*
X111753Y3709D01*
X111757Y3729D01*
X111755Y3750D01*
X111759Y3810D01*
X111759Y152400D01*
X111757Y152422D01*
X111755Y152500D01*
X111490Y155877D01*
X111476Y155945D01*
X111471Y156014D01*
X111431Y156170D01*
X109344Y162594D01*
X109294Y162701D01*
X109250Y162812D01*
X109217Y162863D01*
X109209Y162882D01*
X109196Y162897D01*
X109164Y162948D01*
X105193Y168412D01*
X105112Y168499D01*
X105036Y168591D01*
X104990Y168629D01*
X104976Y168644D01*
X104958Y168655D01*
X104912Y168693D01*
X99448Y172664D01*
X99344Y172721D01*
X99244Y172785D01*
X99187Y172807D01*
X99169Y172817D01*
X99149Y172822D01*
X99094Y172844D01*
X92670Y174931D01*
X92602Y174944D01*
X92536Y174967D01*
X92377Y174990D01*
X89000Y175255D01*
X88978Y175254D01*
X88900Y175259D01*
X35404Y175259D01*
X35300Y175246D01*
X35196Y175242D01*
X35143Y175226D01*
X35089Y175219D01*
X34992Y175181D01*
X34891Y175151D01*
X34844Y175123D01*
X34793Y175102D01*
X34708Y175041D01*
X34619Y174987D01*
X34580Y174948D01*
X34535Y174916D01*
X34469Y174835D01*
X34396Y174761D01*
X34368Y174713D01*
X34333Y174671D01*
X34288Y174576D01*
X34236Y174486D01*
X34221Y174433D01*
X34197Y174383D01*
X34178Y174280D01*
X34149Y174180D01*
X34148Y174125D01*
X34137Y174071D01*
X34144Y173966D01*
X34141Y173862D01*
X34154Y173808D01*
X34157Y173753D01*
X34189Y173654D01*
X34213Y173552D01*
X34238Y173503D01*
X34255Y173451D01*
X34311Y173362D01*
X34359Y173270D01*
X34396Y173228D01*
X34425Y173182D01*
X34501Y173110D01*
X34571Y173032D01*
X34641Y172979D01*
X34657Y172964D01*
X34670Y172957D01*
X34699Y172935D01*
X41434Y168434D01*
X46350Y161078D01*
X48076Y152400D01*
X46350Y143722D01*
X41434Y136366D01*
X34078Y131450D01*
X25400Y129724D01*
X16722Y131450D01*
X9366Y136366D01*
X4865Y143101D01*
X4797Y143180D01*
X4736Y143265D01*
X4693Y143300D01*
X4657Y143341D01*
X4571Y143401D01*
X4491Y143467D01*
X4441Y143491D01*
X4395Y143522D01*
X4297Y143558D01*
X4203Y143603D01*
X4149Y143613D01*
X4097Y143632D01*
X3993Y143643D01*
X3890Y143663D01*
X3835Y143659D01*
X3781Y143665D01*
X3677Y143649D01*
X3573Y143643D01*
X3521Y143626D01*
X3466Y143618D01*
X3370Y143577D01*
X3271Y143545D01*
X3224Y143515D01*
X3173Y143494D01*
X3090Y143431D01*
X3002Y143375D01*
X2964Y143335D01*
X2920Y143301D01*
X2855Y143219D01*
X2784Y143143D01*
X2757Y143095D01*
X2723Y143052D01*
X2681Y142956D01*
X2630Y142865D01*
X2617Y142811D01*
X2594Y142761D01*
X2577Y142658D01*
X2551Y142557D01*
X2545Y142469D01*
X2542Y142447D01*
X2543Y142432D01*
X2541Y142396D01*
X2541Y3810D01*
X2556Y3692D01*
X2563Y3573D01*
X2576Y3535D01*
X2581Y3494D01*
X2624Y3384D01*
X2661Y3271D01*
X2683Y3236D01*
X2698Y3199D01*
X2767Y3103D01*
X2831Y3002D01*
X2861Y2974D01*
X2884Y2941D01*
X2976Y2865D01*
X3063Y2784D01*
X3098Y2764D01*
X3129Y2739D01*
X3237Y2688D01*
X3341Y2630D01*
X3381Y2620D01*
X3417Y2603D01*
X3534Y2581D01*
X3649Y2551D01*
X3709Y2547D01*
X3729Y2543D01*
X3750Y2545D01*
X3810Y2541D01*
X110490Y2541D01*
X110608Y2556D01*
G37*
%LPC*%
G36*
X92976Y13969D02*
X92976Y13969D01*
X88775Y15709D01*
X85559Y18925D01*
X83819Y23126D01*
X83819Y27674D01*
X85559Y31875D01*
X88775Y35091D01*
X92976Y36831D01*
X97524Y36831D01*
X101725Y35091D01*
X104941Y31875D01*
X106681Y27674D01*
X106681Y23126D01*
X104941Y18925D01*
X101725Y15709D01*
X97524Y13969D01*
X92976Y13969D01*
G37*
%LPD*%
%LPC*%
G36*
X67576Y13969D02*
X67576Y13969D01*
X63375Y15709D01*
X60159Y18925D01*
X58419Y23126D01*
X58419Y27674D01*
X60159Y31875D01*
X63375Y35091D01*
X67576Y36831D01*
X72124Y36831D01*
X76325Y35091D01*
X79541Y31875D01*
X81281Y27674D01*
X81281Y23126D01*
X79541Y18925D01*
X76325Y15709D01*
X72124Y13969D01*
X67576Y13969D01*
G37*
%LPD*%
%LPC*%
G36*
X16776Y13969D02*
X16776Y13969D01*
X12575Y15709D01*
X9359Y18925D01*
X7619Y23126D01*
X7619Y27674D01*
X9359Y31875D01*
X12575Y35091D01*
X16776Y36831D01*
X21324Y36831D01*
X25525Y35091D01*
X28741Y31875D01*
X30481Y27674D01*
X30481Y23126D01*
X28741Y18925D01*
X25525Y15709D01*
X21324Y13969D01*
X16776Y13969D01*
G37*
%LPD*%
%LPC*%
G36*
X46949Y27899D02*
X46949Y27899D01*
X46949Y36577D01*
X47127Y36549D01*
X48838Y35993D01*
X50441Y35177D01*
X51897Y34119D01*
X53169Y32847D01*
X54227Y31391D01*
X55043Y29788D01*
X55599Y28077D01*
X55627Y27899D01*
X46949Y27899D01*
G37*
%LPD*%
%LPC*%
G36*
X33273Y27899D02*
X33273Y27899D01*
X33301Y28077D01*
X33857Y29788D01*
X34673Y31391D01*
X35731Y32847D01*
X37003Y34119D01*
X38459Y35177D01*
X40062Y35993D01*
X41773Y36549D01*
X41951Y36577D01*
X41951Y27899D01*
X33273Y27899D01*
G37*
%LPD*%
%LPC*%
G36*
X46949Y22901D02*
X46949Y22901D01*
X55627Y22901D01*
X55599Y22723D01*
X55043Y21012D01*
X54227Y19409D01*
X53169Y17953D01*
X51897Y16681D01*
X50441Y15623D01*
X48838Y14807D01*
X47127Y14251D01*
X46949Y14223D01*
X46949Y22901D01*
G37*
%LPD*%
%LPC*%
G36*
X41773Y14251D02*
X41773Y14251D01*
X40062Y14807D01*
X38459Y15623D01*
X37003Y16681D01*
X35731Y17953D01*
X34673Y19409D01*
X33857Y21012D01*
X33301Y22723D01*
X33273Y22901D01*
X41951Y22901D01*
X41951Y14223D01*
X41773Y14251D01*
G37*
%LPD*%
D10*
X25400Y152400D03*
D11*
X95250Y25400D03*
X69850Y25400D03*
X44450Y25400D03*
X19050Y25400D03*
D12*
X59690Y53340D03*
X106680Y142240D03*
X54610Y125730D03*
X36830Y125730D03*
X10160Y125730D03*
X55880Y40640D03*
M02*
