G04 EAGLE Gerber RS-274X export*
G75*
%MOMM*%
%FSLAX34Y34*%
%LPD*%
%INSilkscreen Bottom*%
%IPPOS*%
%AMOC8*
5,1,8,0,0,1.08239X$1,22.5*%
G01*
%ADD10C,0.254000*%
%ADD11C,0.076200*%
%ADD12C,0.101600*%
%ADD13R,0.050800X0.006300*%
%ADD14R,0.082600X0.006400*%
%ADD15R,0.120600X0.006300*%
%ADD16R,0.139700X0.006400*%
%ADD17R,0.158800X0.006300*%
%ADD18R,0.177800X0.006400*%
%ADD19R,0.196800X0.006300*%
%ADD20R,0.215900X0.006400*%
%ADD21R,0.228600X0.006300*%
%ADD22R,0.241300X0.006400*%
%ADD23R,0.254000X0.006300*%
%ADD24R,0.266700X0.006400*%
%ADD25R,0.279400X0.006300*%
%ADD26R,0.285700X0.006400*%
%ADD27R,0.298400X0.006300*%
%ADD28R,0.311200X0.006400*%
%ADD29R,0.317500X0.006300*%
%ADD30R,0.330200X0.006400*%
%ADD31R,0.336600X0.006300*%
%ADD32R,0.349200X0.006400*%
%ADD33R,0.361900X0.006300*%
%ADD34R,0.368300X0.006400*%
%ADD35R,0.381000X0.006300*%
%ADD36R,0.387300X0.006400*%
%ADD37R,0.393700X0.006300*%
%ADD38R,0.406400X0.006400*%
%ADD39R,0.412700X0.006300*%
%ADD40R,0.419100X0.006400*%
%ADD41R,0.431800X0.006300*%
%ADD42R,0.438100X0.006400*%
%ADD43R,0.450800X0.006300*%
%ADD44R,0.457200X0.006400*%
%ADD45R,0.463500X0.006300*%
%ADD46R,0.476200X0.006400*%
%ADD47R,0.482600X0.006300*%
%ADD48R,0.488900X0.006400*%
%ADD49R,0.501600X0.006300*%
%ADD50R,0.508000X0.006400*%
%ADD51R,0.514300X0.006300*%
%ADD52R,0.527000X0.006400*%
%ADD53R,0.533400X0.006300*%
%ADD54R,0.546100X0.006400*%
%ADD55R,0.552400X0.006300*%
%ADD56R,0.558800X0.006400*%
%ADD57R,0.571500X0.006300*%
%ADD58R,0.577800X0.006400*%
%ADD59R,0.584200X0.006300*%
%ADD60R,0.596900X0.006400*%
%ADD61R,0.603200X0.006300*%
%ADD62R,0.609600X0.006400*%
%ADD63R,0.622300X0.006300*%
%ADD64R,0.628600X0.006400*%
%ADD65R,0.641300X0.006300*%
%ADD66R,0.647700X0.006400*%
%ADD67R,0.063500X0.006300*%
%ADD68R,0.654000X0.006300*%
%ADD69R,0.101600X0.006400*%
%ADD70R,0.666700X0.006400*%
%ADD71R,0.139700X0.006300*%
%ADD72R,0.673100X0.006300*%
%ADD73R,0.165100X0.006400*%
%ADD74R,0.679400X0.006400*%
%ADD75R,0.196900X0.006300*%
%ADD76R,0.692100X0.006300*%
%ADD77R,0.222200X0.006400*%
%ADD78R,0.698500X0.006400*%
%ADD79R,0.247700X0.006300*%
%ADD80R,0.704800X0.006300*%
%ADD81R,0.279400X0.006400*%
%ADD82R,0.717500X0.006400*%
%ADD83R,0.298500X0.006300*%
%ADD84R,0.723900X0.006300*%
%ADD85R,0.736600X0.006400*%
%ADD86R,0.342900X0.006300*%
%ADD87R,0.742900X0.006300*%
%ADD88R,0.374700X0.006400*%
%ADD89R,0.749300X0.006400*%
%ADD90R,0.762000X0.006300*%
%ADD91R,0.412700X0.006400*%
%ADD92R,0.768300X0.006400*%
%ADD93R,0.438100X0.006300*%
%ADD94R,0.774700X0.006300*%
%ADD95R,0.463600X0.006400*%
%ADD96R,0.787400X0.006400*%
%ADD97R,0.793700X0.006300*%
%ADD98R,0.495300X0.006400*%
%ADD99R,0.800100X0.006400*%
%ADD100R,0.520700X0.006300*%
%ADD101R,0.812800X0.006300*%
%ADD102R,0.533400X0.006400*%
%ADD103R,0.819100X0.006400*%
%ADD104R,0.558800X0.006300*%
%ADD105R,0.825500X0.006300*%
%ADD106R,0.577900X0.006400*%
%ADD107R,0.831800X0.006400*%
%ADD108R,0.596900X0.006300*%
%ADD109R,0.844500X0.006300*%
%ADD110R,0.616000X0.006400*%
%ADD111R,0.850900X0.006400*%
%ADD112R,0.635000X0.006300*%
%ADD113R,0.857200X0.006300*%
%ADD114R,0.654100X0.006400*%
%ADD115R,0.863600X0.006400*%
%ADD116R,0.666700X0.006300*%
%ADD117R,0.869900X0.006300*%
%ADD118R,0.685800X0.006400*%
%ADD119R,0.876300X0.006400*%
%ADD120R,0.882600X0.006300*%
%ADD121R,0.723900X0.006400*%
%ADD122R,0.889000X0.006400*%
%ADD123R,0.895300X0.006300*%
%ADD124R,0.755700X0.006400*%
%ADD125R,0.901700X0.006400*%
%ADD126R,0.908000X0.006300*%
%ADD127R,0.793800X0.006400*%
%ADD128R,0.914400X0.006400*%
%ADD129R,0.806400X0.006300*%
%ADD130R,0.920700X0.006300*%
%ADD131R,0.825500X0.006400*%
%ADD132R,0.927100X0.006400*%
%ADD133R,0.933400X0.006300*%
%ADD134R,0.857300X0.006400*%
%ADD135R,0.939800X0.006400*%
%ADD136R,0.870000X0.006300*%
%ADD137R,0.939800X0.006300*%
%ADD138R,0.946100X0.006400*%
%ADD139R,0.952500X0.006300*%
%ADD140R,0.908000X0.006400*%
%ADD141R,0.958800X0.006400*%
%ADD142R,0.965200X0.006300*%
%ADD143R,0.965200X0.006400*%
%ADD144R,0.971500X0.006300*%
%ADD145R,0.952500X0.006400*%
%ADD146R,0.977900X0.006400*%
%ADD147R,0.958800X0.006300*%
%ADD148R,0.984200X0.006300*%
%ADD149R,0.971500X0.006400*%
%ADD150R,0.984200X0.006400*%
%ADD151R,0.990600X0.006300*%
%ADD152R,0.984300X0.006400*%
%ADD153R,0.996900X0.006400*%
%ADD154R,0.997000X0.006300*%
%ADD155R,0.996900X0.006300*%
%ADD156R,1.003300X0.006400*%
%ADD157R,1.016000X0.006300*%
%ADD158R,1.009600X0.006300*%
%ADD159R,1.016000X0.006400*%
%ADD160R,1.009600X0.006400*%
%ADD161R,1.022300X0.006300*%
%ADD162R,1.028700X0.006400*%
%ADD163R,1.035100X0.006300*%
%ADD164R,1.047800X0.006400*%
%ADD165R,1.054100X0.006300*%
%ADD166R,1.028700X0.006300*%
%ADD167R,1.054100X0.006400*%
%ADD168R,1.035000X0.006400*%
%ADD169R,1.060400X0.006300*%
%ADD170R,1.035000X0.006300*%
%ADD171R,1.060500X0.006400*%
%ADD172R,1.041400X0.006400*%
%ADD173R,1.066800X0.006300*%
%ADD174R,1.041400X0.006300*%
%ADD175R,1.079500X0.006400*%
%ADD176R,1.047700X0.006400*%
%ADD177R,1.085900X0.006300*%
%ADD178R,1.047700X0.006300*%
%ADD179R,1.085800X0.006400*%
%ADD180R,1.092200X0.006300*%
%ADD181R,1.085900X0.006400*%
%ADD182R,1.098600X0.006300*%
%ADD183R,1.098600X0.006400*%
%ADD184R,1.060400X0.006400*%
%ADD185R,1.104900X0.006300*%
%ADD186R,1.104900X0.006400*%
%ADD187R,1.066800X0.006400*%
%ADD188R,1.111200X0.006300*%
%ADD189R,1.117600X0.006400*%
%ADD190R,1.117600X0.006300*%
%ADD191R,1.073100X0.006300*%
%ADD192R,1.073100X0.006400*%
%ADD193R,1.124000X0.006300*%
%ADD194R,1.079500X0.006300*%
%ADD195R,1.123900X0.006400*%
%ADD196R,1.130300X0.006300*%
%ADD197R,1.130300X0.006400*%
%ADD198R,1.136700X0.006400*%
%ADD199R,1.136700X0.006300*%
%ADD200R,1.085800X0.006300*%
%ADD201R,1.136600X0.006400*%
%ADD202R,1.136600X0.006300*%
%ADD203R,1.143000X0.006400*%
%ADD204R,1.143000X0.006300*%
%ADD205R,1.149400X0.006300*%
%ADD206R,1.149300X0.006300*%
%ADD207R,1.149300X0.006400*%
%ADD208R,1.149400X0.006400*%
%ADD209R,1.155700X0.006400*%
%ADD210R,1.155700X0.006300*%
%ADD211R,1.060500X0.006300*%
%ADD212R,2.197100X0.006400*%
%ADD213R,2.197100X0.006300*%
%ADD214R,2.184400X0.006300*%
%ADD215R,2.184400X0.006400*%
%ADD216R,2.171700X0.006400*%
%ADD217R,2.171700X0.006300*%
%ADD218R,1.530300X0.006400*%
%ADD219R,1.505000X0.006300*%
%ADD220R,1.492300X0.006400*%
%ADD221R,1.485900X0.006300*%
%ADD222R,0.565200X0.006300*%
%ADD223R,1.473200X0.006400*%
%ADD224R,0.565200X0.006400*%
%ADD225R,1.460500X0.006300*%
%ADD226R,1.454100X0.006400*%
%ADD227R,0.552400X0.006400*%
%ADD228R,1.441500X0.006300*%
%ADD229R,0.546100X0.006300*%
%ADD230R,1.435100X0.006400*%
%ADD231R,0.539800X0.006400*%
%ADD232R,1.428800X0.006300*%
%ADD233R,1.422400X0.006400*%
%ADD234R,1.409700X0.006300*%
%ADD235R,0.527100X0.006300*%
%ADD236R,1.403300X0.006400*%
%ADD237R,0.527100X0.006400*%
%ADD238R,1.390700X0.006300*%
%ADD239R,1.384300X0.006400*%
%ADD240R,0.520700X0.006400*%
%ADD241R,1.384300X0.006300*%
%ADD242R,0.514400X0.006300*%
%ADD243R,1.371600X0.006400*%
%ADD244R,1.365200X0.006300*%
%ADD245R,0.508000X0.006300*%
%ADD246R,1.352600X0.006400*%
%ADD247R,0.501700X0.006400*%
%ADD248R,0.711200X0.006300*%
%ADD249R,0.603300X0.006300*%
%ADD250R,0.501700X0.006300*%
%ADD251R,0.692100X0.006400*%
%ADD252R,0.571500X0.006400*%
%ADD253R,0.679400X0.006300*%
%ADD254R,0.495300X0.006300*%
%ADD255R,0.673100X0.006400*%
%ADD256R,0.666800X0.006300*%
%ADD257R,0.488900X0.006300*%
%ADD258R,0.660400X0.006400*%
%ADD259R,0.482600X0.006400*%
%ADD260R,0.476200X0.006300*%
%ADD261R,0.654000X0.006400*%
%ADD262R,0.469900X0.006400*%
%ADD263R,0.476300X0.006400*%
%ADD264R,0.647700X0.006300*%
%ADD265R,0.457200X0.006300*%
%ADD266R,0.469900X0.006300*%
%ADD267R,0.641300X0.006400*%
%ADD268R,0.444500X0.006400*%
%ADD269R,0.463600X0.006300*%
%ADD270R,0.635000X0.006400*%
%ADD271R,0.463500X0.006400*%
%ADD272R,0.393700X0.006400*%
%ADD273R,0.450800X0.006400*%
%ADD274R,0.628600X0.006300*%
%ADD275R,0.387400X0.006300*%
%ADD276R,0.450900X0.006300*%
%ADD277R,0.628700X0.006400*%
%ADD278R,0.374600X0.006400*%
%ADD279R,0.368300X0.006300*%
%ADD280R,0.438200X0.006300*%
%ADD281R,0.622300X0.006400*%
%ADD282R,0.355600X0.006400*%
%ADD283R,0.431800X0.006400*%
%ADD284R,0.349300X0.006300*%
%ADD285R,0.425400X0.006300*%
%ADD286R,0.615900X0.006300*%
%ADD287R,0.330200X0.006300*%
%ADD288R,0.419100X0.006300*%
%ADD289R,0.616000X0.006300*%
%ADD290R,0.311200X0.006300*%
%ADD291R,0.406400X0.006300*%
%ADD292R,0.615900X0.006400*%
%ADD293R,0.304800X0.006400*%
%ADD294R,0.158800X0.006400*%
%ADD295R,0.609600X0.006300*%
%ADD296R,0.292100X0.006300*%
%ADD297R,0.235000X0.006300*%
%ADD298R,0.387400X0.006400*%
%ADD299R,0.292100X0.006400*%
%ADD300R,0.336500X0.006300*%
%ADD301R,0.260400X0.006300*%
%ADD302R,0.603300X0.006400*%
%ADD303R,0.260400X0.006400*%
%ADD304R,0.362000X0.006400*%
%ADD305R,0.450900X0.006400*%
%ADD306R,0.355600X0.006300*%
%ADD307R,0.342900X0.006400*%
%ADD308R,0.514300X0.006400*%
%ADD309R,0.234900X0.006300*%
%ADD310R,0.539700X0.006300*%
%ADD311R,0.603200X0.006400*%
%ADD312R,0.234900X0.006400*%
%ADD313R,0.920700X0.006400*%
%ADD314R,0.958900X0.006400*%
%ADD315R,0.215900X0.006300*%
%ADD316R,0.209600X0.006400*%
%ADD317R,0.203200X0.006300*%
%ADD318R,1.003300X0.006300*%
%ADD319R,0.203200X0.006400*%
%ADD320R,0.196900X0.006400*%
%ADD321R,0.190500X0.006300*%
%ADD322R,0.190500X0.006400*%
%ADD323R,0.184200X0.006300*%
%ADD324R,0.590500X0.006400*%
%ADD325R,0.184200X0.006400*%
%ADD326R,0.590500X0.006300*%
%ADD327R,0.177800X0.006300*%
%ADD328R,0.584200X0.006400*%
%ADD329R,1.168400X0.006400*%
%ADD330R,0.171500X0.006300*%
%ADD331R,1.187500X0.006300*%
%ADD332R,1.200100X0.006400*%
%ADD333R,0.577800X0.006300*%
%ADD334R,1.212900X0.006300*%
%ADD335R,1.231900X0.006400*%
%ADD336R,1.250900X0.006300*%
%ADD337R,0.565100X0.006400*%
%ADD338R,0.184100X0.006400*%
%ADD339R,1.263700X0.006400*%
%ADD340R,0.565100X0.006300*%
%ADD341R,1.289100X0.006300*%
%ADD342R,1.314400X0.006400*%
%ADD343R,0.552500X0.006300*%
%ADD344R,1.568500X0.006300*%
%ADD345R,0.552500X0.006400*%
%ADD346R,1.581200X0.006400*%
%ADD347R,1.593800X0.006300*%
%ADD348R,1.606500X0.006400*%
%ADD349R,1.619300X0.006300*%
%ADD350R,0.514400X0.006400*%
%ADD351R,1.638300X0.006400*%
%ADD352R,1.657300X0.006300*%
%ADD353R,2.209800X0.006400*%
%ADD354R,2.425700X0.006300*%
%ADD355R,2.470100X0.006400*%
%ADD356R,2.501900X0.006300*%
%ADD357R,2.533700X0.006400*%
%ADD358R,2.559000X0.006300*%
%ADD359R,2.584500X0.006400*%
%ADD360R,2.609900X0.006300*%
%ADD361R,2.628900X0.006400*%
%ADD362R,2.660600X0.006300*%
%ADD363R,2.673400X0.006400*%
%ADD364R,1.422400X0.006300*%
%ADD365R,1.200200X0.006300*%
%ADD366R,1.365300X0.006300*%
%ADD367R,1.365300X0.006400*%
%ADD368R,1.352500X0.006300*%
%ADD369R,1.098500X0.006300*%
%ADD370R,1.358900X0.006400*%
%ADD371R,1.352600X0.006300*%
%ADD372R,1.358900X0.006300*%
%ADD373R,1.371600X0.006300*%
%ADD374R,1.377900X0.006400*%
%ADD375R,1.397000X0.006400*%
%ADD376R,1.403300X0.006300*%
%ADD377R,0.914400X0.006300*%
%ADD378R,0.876300X0.006300*%
%ADD379R,0.374600X0.006300*%
%ADD380R,1.073200X0.006400*%
%ADD381R,0.374700X0.006300*%
%ADD382R,0.844600X0.006400*%
%ADD383R,0.844600X0.006300*%
%ADD384R,0.831900X0.006400*%
%ADD385R,1.092200X0.006400*%
%ADD386R,0.400000X0.006300*%
%ADD387R,0.819200X0.006400*%
%ADD388R,1.111300X0.006400*%
%ADD389R,0.812800X0.006400*%
%ADD390R,0.800100X0.006300*%
%ADD391R,0.476300X0.006300*%
%ADD392R,1.181100X0.006300*%
%ADD393R,0.501600X0.006400*%
%ADD394R,1.193800X0.006400*%
%ADD395R,0.781000X0.006400*%
%ADD396R,1.238200X0.006400*%
%ADD397R,0.781100X0.006300*%
%ADD398R,1.257300X0.006300*%
%ADD399R,1.295400X0.006400*%
%ADD400R,1.333500X0.006300*%
%ADD401R,0.774700X0.006400*%
%ADD402R,1.866900X0.006400*%
%ADD403R,0.209600X0.006300*%
%ADD404R,1.866900X0.006300*%
%ADD405R,0.768400X0.006400*%
%ADD406R,0.209500X0.006400*%
%ADD407R,1.860600X0.006400*%
%ADD408R,0.762000X0.006400*%
%ADD409R,0.768400X0.006300*%
%ADD410R,1.860600X0.006300*%
%ADD411R,1.860500X0.006400*%
%ADD412R,0.222300X0.006300*%
%ADD413R,1.854200X0.006300*%
%ADD414R,0.235000X0.006400*%
%ADD415R,1.854200X0.006400*%
%ADD416R,0.768300X0.006300*%
%ADD417R,0.260300X0.006400*%
%ADD418R,1.847800X0.006400*%
%ADD419R,0.266700X0.006300*%
%ADD420R,1.847800X0.006300*%
%ADD421R,0.273100X0.006400*%
%ADD422R,1.841500X0.006400*%
%ADD423R,0.285800X0.006300*%
%ADD424R,1.841500X0.006300*%
%ADD425R,0.298500X0.006400*%
%ADD426R,1.835100X0.006400*%
%ADD427R,0.781000X0.006300*%
%ADD428R,0.304800X0.006300*%
%ADD429R,1.835100X0.006300*%
%ADD430R,0.317500X0.006400*%
%ADD431R,1.828800X0.006400*%
%ADD432R,0.787400X0.006300*%
%ADD433R,0.323800X0.006300*%
%ADD434R,1.828800X0.006300*%
%ADD435R,0.793700X0.006400*%
%ADD436R,1.822400X0.006400*%
%ADD437R,0.806500X0.006300*%
%ADD438R,1.822400X0.006300*%
%ADD439R,1.816100X0.006400*%
%ADD440R,0.819100X0.006300*%
%ADD441R,0.387300X0.006300*%
%ADD442R,1.816100X0.006300*%
%ADD443R,1.809800X0.006400*%
%ADD444R,1.803400X0.006300*%
%ADD445R,1.797000X0.006400*%
%ADD446R,0.901700X0.006300*%
%ADD447R,1.797000X0.006300*%
%ADD448R,1.441400X0.006400*%
%ADD449R,1.790700X0.006400*%
%ADD450R,1.447800X0.006300*%
%ADD451R,1.784300X0.006300*%
%ADD452R,1.447800X0.006400*%
%ADD453R,1.784300X0.006400*%
%ADD454R,1.454100X0.006300*%
%ADD455R,1.771700X0.006300*%
%ADD456R,1.460500X0.006400*%
%ADD457R,1.759000X0.006400*%
%ADD458R,1.466800X0.006300*%
%ADD459R,1.752600X0.006300*%
%ADD460R,1.466800X0.006400*%
%ADD461R,1.739900X0.006400*%
%ADD462R,1.473200X0.006300*%
%ADD463R,1.727200X0.006300*%
%ADD464R,1.479500X0.006400*%
%ADD465R,1.714500X0.006400*%
%ADD466R,1.695400X0.006300*%
%ADD467R,1.485900X0.006400*%
%ADD468R,1.682700X0.006400*%
%ADD469R,1.492200X0.006300*%
%ADD470R,1.663700X0.006300*%
%ADD471R,1.498600X0.006400*%
%ADD472R,1.644600X0.006400*%
%ADD473R,1.498600X0.006300*%
%ADD474R,1.619200X0.006300*%
%ADD475R,1.511300X0.006400*%
%ADD476R,1.600200X0.006400*%
%ADD477R,1.517700X0.006300*%
%ADD478R,1.574800X0.006300*%
%ADD479R,1.524000X0.006400*%
%ADD480R,1.555800X0.006400*%
%ADD481R,1.524000X0.006300*%
%ADD482R,1.536700X0.006300*%
%ADD483R,1.530400X0.006400*%
%ADD484R,1.517700X0.006400*%
%ADD485R,1.492300X0.006300*%
%ADD486R,1.549400X0.006400*%
%ADD487R,1.479600X0.006400*%
%ADD488R,1.549400X0.006300*%
%ADD489R,1.555700X0.006400*%
%ADD490R,1.562100X0.006300*%
%ADD491R,0.323900X0.006300*%
%ADD492R,1.568400X0.006400*%
%ADD493R,0.336600X0.006400*%
%ADD494R,1.587500X0.006300*%
%ADD495R,0.971600X0.006300*%
%ADD496R,0.349300X0.006400*%
%ADD497R,1.600200X0.006300*%
%ADD498R,0.920800X0.006300*%
%ADD499R,0.882700X0.006400*%
%ADD500R,1.612900X0.006300*%
%ADD501R,0.362000X0.006300*%
%ADD502R,1.625600X0.006400*%
%ADD503R,1.625600X0.006300*%
%ADD504R,1.644600X0.006300*%
%ADD505R,0.736600X0.006300*%
%ADD506R,0.717600X0.006400*%
%ADD507R,1.657400X0.006300*%
%ADD508R,0.679500X0.006300*%
%ADD509R,1.663700X0.006400*%
%ADD510R,0.400000X0.006400*%
%ADD511R,1.676400X0.006300*%
%ADD512R,1.676400X0.006400*%
%ADD513R,0.425500X0.006400*%
%ADD514R,1.352500X0.006400*%
%ADD515R,0.444500X0.006300*%
%ADD516R,0.361900X0.006400*%
%ADD517R,0.088900X0.006300*%
%ADD518R,1.009700X0.006300*%
%ADD519R,1.009700X0.006400*%
%ADD520R,1.022300X0.006400*%
%ADD521R,1.346200X0.006400*%
%ADD522R,1.346200X0.006300*%
%ADD523R,1.339900X0.006400*%
%ADD524R,1.035100X0.006400*%
%ADD525R,1.339800X0.006300*%
%ADD526R,1.333500X0.006400*%
%ADD527R,1.327200X0.006400*%
%ADD528R,1.320800X0.006300*%
%ADD529R,1.314500X0.006400*%
%ADD530R,1.314400X0.006300*%
%ADD531R,1.301700X0.006400*%
%ADD532R,1.295400X0.006300*%
%ADD533R,1.289000X0.006400*%
%ADD534R,1.276300X0.006300*%
%ADD535R,1.251000X0.006300*%
%ADD536R,1.244600X0.006400*%
%ADD537R,1.231900X0.006300*%
%ADD538R,1.212800X0.006400*%
%ADD539R,1.200100X0.006300*%
%ADD540R,1.187400X0.006400*%
%ADD541R,1.168400X0.006300*%
%ADD542R,1.047800X0.006300*%
%ADD543R,0.977900X0.006300*%
%ADD544R,0.946200X0.006400*%
%ADD545R,0.933400X0.006400*%
%ADD546R,0.895300X0.006400*%
%ADD547R,0.882700X0.006300*%
%ADD548R,0.863600X0.006300*%
%ADD549R,0.857200X0.006400*%
%ADD550R,0.850900X0.006300*%
%ADD551R,0.838200X0.006300*%
%ADD552R,0.806500X0.006400*%
%ADD553R,0.717600X0.006300*%
%ADD554R,0.711200X0.006400*%
%ADD555R,0.641400X0.006400*%
%ADD556R,0.641400X0.006300*%
%ADD557R,0.628700X0.006300*%
%ADD558R,0.590600X0.006300*%
%ADD559R,0.539700X0.006400*%
%ADD560R,0.285700X0.006300*%
%ADD561R,0.222200X0.006300*%
%ADD562R,0.171400X0.006300*%
%ADD563R,0.152400X0.006400*%
%ADD564R,0.133400X0.006300*%


D10*
X76200Y106680D02*
X66040Y106680D01*
X73660Y111760D01*
X66040Y106680D02*
X73660Y101600D01*
D11*
X111756Y186992D02*
X114891Y186992D01*
X111756Y186992D02*
X110188Y185424D01*
X110188Y180721D01*
X114891Y180721D01*
X116459Y182289D01*
X114891Y183856D01*
X110188Y183856D01*
X100833Y180721D02*
X100833Y190127D01*
X100833Y180721D02*
X105536Y180721D01*
X107104Y182289D01*
X107104Y185424D01*
X105536Y186992D01*
X100833Y186992D01*
X96181Y186992D02*
X93046Y186992D01*
X91478Y185424D01*
X91478Y180721D01*
X96181Y180721D01*
X97749Y182289D01*
X96181Y183856D01*
X91478Y183856D01*
X86826Y180721D02*
X86826Y188559D01*
X85258Y190127D01*
X85258Y185424D02*
X88393Y185424D01*
X82157Y186992D02*
X82157Y180721D01*
X82157Y183856D02*
X79021Y186992D01*
X77454Y186992D01*
X74361Y186992D02*
X74361Y182289D01*
X72793Y180721D01*
X68090Y180721D01*
X68090Y186992D01*
X65006Y186992D02*
X63438Y186992D01*
X63438Y180721D01*
X65006Y180721D02*
X61870Y180721D01*
X63438Y190127D02*
X63438Y191695D01*
X57201Y188559D02*
X57201Y182289D01*
X55633Y180721D01*
X55633Y186992D02*
X58769Y186992D01*
X52532Y182289D02*
X52532Y180721D01*
X52532Y185424D02*
X52532Y191695D01*
D12*
X193714Y151902D02*
X193714Y140208D01*
X197612Y151902D02*
X189816Y151902D01*
X185918Y151902D02*
X185918Y140208D01*
X185918Y146055D02*
X183969Y148004D01*
X180071Y148004D01*
X178122Y146055D01*
X178122Y140208D01*
X172275Y140208D02*
X168377Y140208D01*
X172275Y140208D02*
X174224Y142157D01*
X174224Y146055D01*
X172275Y148004D01*
X168377Y148004D01*
X166428Y146055D01*
X166428Y144106D01*
X174224Y144106D01*
X162530Y140208D02*
X162530Y148004D01*
X162530Y144106D02*
X158632Y148004D01*
X156683Y148004D01*
X152785Y148004D02*
X152785Y140208D01*
X152785Y148004D02*
X150836Y148004D01*
X148887Y146055D01*
X148887Y140208D01*
X148887Y146055D02*
X146938Y148004D01*
X144989Y146055D01*
X144989Y140208D01*
X139142Y140208D02*
X135244Y140208D01*
X133295Y142157D01*
X133295Y146055D01*
X135244Y148004D01*
X139142Y148004D01*
X141091Y146055D01*
X141091Y142157D01*
X139142Y140208D01*
X127448Y148004D02*
X121601Y148004D01*
X127448Y148004D02*
X129397Y146055D01*
X129397Y142157D01*
X127448Y140208D01*
X121601Y140208D01*
X115754Y140208D02*
X111856Y140208D01*
X109907Y142157D01*
X109907Y146055D01*
X111856Y148004D01*
X115754Y148004D01*
X117703Y146055D01*
X117703Y142157D01*
X115754Y140208D01*
X106009Y142157D02*
X106009Y148004D01*
X106009Y142157D02*
X104060Y140208D01*
X98213Y140208D01*
X98213Y148004D01*
X94315Y148004D02*
X94315Y136310D01*
X94315Y148004D02*
X88468Y148004D01*
X86519Y146055D01*
X86519Y142157D01*
X88468Y140208D01*
X94315Y140208D01*
X82621Y151902D02*
X80672Y151902D01*
X80672Y140208D01*
X82621Y140208D02*
X78723Y140208D01*
X72876Y140208D02*
X68978Y140208D01*
X72876Y140208D02*
X74825Y142157D01*
X74825Y146055D01*
X72876Y148004D01*
X68978Y148004D01*
X67029Y146055D01*
X67029Y144106D01*
X74825Y144106D01*
X51437Y140208D02*
X51437Y148004D01*
X47539Y151902D01*
X43641Y148004D01*
X43641Y140208D01*
X43641Y146055D02*
X51437Y146055D01*
X39743Y148004D02*
X39743Y140208D01*
X39743Y148004D02*
X37794Y148004D01*
X35845Y146055D01*
X35845Y140208D01*
X35845Y146055D02*
X33896Y148004D01*
X31947Y146055D01*
X31947Y140208D01*
X28049Y136310D02*
X28049Y148004D01*
X22203Y148004D01*
X20254Y146055D01*
X20254Y142157D01*
X22203Y140208D01*
X28049Y140208D01*
X16356Y140208D02*
X16356Y142157D01*
X14407Y142157D01*
X14407Y140208D01*
X16356Y140208D01*
X197612Y131582D02*
X197612Y119888D01*
X197612Y123786D02*
X189816Y131582D01*
X195663Y125735D02*
X189816Y119888D01*
X185918Y125735D02*
X178122Y125735D01*
X170326Y119888D02*
X170326Y131582D01*
X174224Y131582D02*
X166428Y131582D01*
X162530Y127684D02*
X162530Y121837D01*
X160581Y119888D01*
X154734Y119888D01*
X154734Y117939D02*
X154734Y127684D01*
X154734Y117939D02*
X156683Y115990D01*
X158632Y115990D01*
X150836Y115990D02*
X150836Y127684D01*
X144989Y127684D01*
X143040Y125735D01*
X143040Y121837D01*
X144989Y119888D01*
X150836Y119888D01*
X137193Y119888D02*
X133295Y119888D01*
X137193Y119888D02*
X139142Y121837D01*
X139142Y125735D01*
X137193Y127684D01*
X133295Y127684D01*
X131346Y125735D01*
X131346Y123786D01*
X139142Y123786D01*
X115754Y121837D02*
X115754Y127684D01*
X115754Y121837D02*
X113805Y119888D01*
X111856Y121837D01*
X109907Y119888D01*
X107958Y121837D01*
X107958Y127684D01*
X104060Y127684D02*
X102111Y127684D01*
X102111Y119888D01*
X104060Y119888D02*
X100162Y119888D01*
X102111Y131582D02*
X102111Y133531D01*
X96264Y127684D02*
X96264Y119888D01*
X96264Y123786D02*
X92366Y127684D01*
X90417Y127684D01*
X84570Y119888D02*
X80672Y119888D01*
X84570Y119888D02*
X86519Y121837D01*
X86519Y125735D01*
X84570Y127684D01*
X80672Y127684D01*
X78723Y125735D01*
X78723Y123786D01*
X86519Y123786D01*
X61182Y119888D02*
X57284Y119888D01*
X55335Y121837D01*
X55335Y125735D01*
X57284Y127684D01*
X61182Y127684D01*
X63131Y125735D01*
X63131Y121837D01*
X61182Y119888D01*
X51437Y119888D02*
X51437Y127684D01*
X45590Y127684D01*
X43641Y125735D01*
X43641Y119888D01*
X39743Y131582D02*
X37794Y131582D01*
X37794Y119888D01*
X39743Y119888D02*
X35845Y119888D01*
X31947Y121837D02*
X31947Y127684D01*
X31947Y121837D02*
X29999Y119888D01*
X24152Y119888D01*
X24152Y117939D02*
X24152Y127684D01*
X24152Y117939D02*
X26101Y115990D01*
X28050Y115990D01*
X20254Y119888D02*
X20254Y121837D01*
X20254Y125735D02*
X20254Y133531D01*
X197612Y111262D02*
X197612Y99568D01*
X197612Y111262D02*
X191765Y111262D01*
X189816Y109313D01*
X189816Y105415D01*
X191765Y103466D01*
X197612Y103466D01*
X193714Y103466D02*
X189816Y99568D01*
X183969Y107364D02*
X180071Y107364D01*
X178122Y105415D01*
X178122Y99568D01*
X183969Y99568D01*
X185918Y101517D01*
X183969Y103466D01*
X178122Y103466D01*
X174224Y99568D02*
X174224Y107364D01*
X168377Y107364D01*
X166428Y105415D01*
X166428Y99568D01*
X158632Y95670D02*
X156683Y95670D01*
X154734Y97619D01*
X154734Y107364D01*
X160581Y107364D01*
X162530Y105415D01*
X162530Y101517D01*
X160581Y99568D01*
X154734Y99568D01*
X148887Y99568D02*
X144989Y99568D01*
X148887Y99568D02*
X150836Y101517D01*
X150836Y105415D01*
X148887Y107364D01*
X144989Y107364D01*
X143040Y105415D01*
X143040Y103466D01*
X150836Y103466D01*
X139142Y107364D02*
X137193Y107364D01*
X137193Y105415D01*
X139142Y105415D01*
X139142Y107364D01*
X139142Y101517D02*
X137193Y101517D01*
X137193Y99568D01*
X139142Y99568D01*
X139142Y101517D01*
X133295Y105415D02*
X125499Y105415D01*
X121601Y99568D02*
X113805Y99568D01*
X121601Y99568D02*
X113805Y107364D01*
X113805Y109313D01*
X115754Y111262D01*
X119652Y111262D01*
X121601Y109313D01*
X109907Y109313D02*
X109907Y101517D01*
X109907Y109313D02*
X107958Y111262D01*
X104060Y111262D01*
X102111Y109313D01*
X102111Y101517D01*
X104060Y99568D01*
X107958Y99568D01*
X109907Y101517D01*
X102111Y109313D01*
X98213Y109313D02*
X98213Y101517D01*
X98213Y109313D02*
X96264Y111262D01*
X92366Y111262D01*
X90417Y109313D01*
X90417Y101517D01*
X92366Y99568D01*
X96264Y99568D01*
X98213Y101517D01*
X90417Y109313D01*
X80672Y111262D02*
X78723Y109313D01*
X80672Y111262D02*
X84570Y111262D01*
X86519Y109313D01*
X86519Y101517D01*
X84570Y99568D01*
X80672Y99568D01*
X78723Y101517D01*
X63131Y107364D02*
X59233Y111262D01*
X59233Y99568D01*
X63131Y99568D02*
X55335Y99568D01*
X51437Y109313D02*
X49488Y111262D01*
X45590Y111262D01*
X43641Y109313D01*
X43641Y107364D01*
X45590Y105415D01*
X47539Y105415D01*
X45590Y105415D02*
X43641Y103466D01*
X43641Y101517D01*
X45590Y99568D01*
X49488Y99568D01*
X51437Y101517D01*
X39743Y111262D02*
X31947Y111262D01*
X39743Y111262D02*
X39743Y105415D01*
X35845Y107364D01*
X33896Y107364D01*
X31947Y105415D01*
X31947Y101517D01*
X33896Y99568D01*
X37794Y99568D01*
X39743Y101517D01*
X28049Y101517D02*
X28049Y109313D01*
X26101Y111262D01*
X22203Y111262D01*
X20254Y109313D01*
X20254Y101517D01*
X22203Y99568D01*
X26101Y99568D01*
X28049Y101517D01*
X20254Y109313D01*
X10509Y111262D02*
X8560Y109313D01*
X10509Y111262D02*
X14407Y111262D01*
X16356Y109313D01*
X16356Y101517D01*
X14407Y99568D01*
X10509Y99568D01*
X8560Y101517D01*
X197612Y93482D02*
X197612Y85686D01*
X193714Y81788D01*
X189816Y85686D01*
X189816Y93482D01*
X185918Y89584D02*
X183969Y89584D01*
X183969Y81788D01*
X185918Y81788D02*
X182020Y81788D01*
X183969Y93482D02*
X183969Y95431D01*
X178122Y89584D02*
X178122Y81788D01*
X178122Y89584D02*
X172275Y89584D01*
X170326Y87635D01*
X170326Y81788D01*
X166428Y89584D02*
X164479Y89584D01*
X164479Y87635D01*
X166428Y87635D01*
X166428Y89584D01*
X166428Y83737D02*
X164479Y83737D01*
X164479Y81788D01*
X166428Y81788D01*
X166428Y83737D01*
X160581Y91533D02*
X158632Y93482D01*
X154734Y93482D01*
X152785Y91533D01*
X152785Y89584D01*
X154734Y87635D01*
X156683Y87635D01*
X154734Y87635D02*
X152785Y85686D01*
X152785Y83737D01*
X154734Y81788D01*
X158632Y81788D01*
X160581Y83737D01*
X148887Y87635D02*
X141091Y87635D01*
X137193Y93482D02*
X129397Y93482D01*
X137193Y93482D02*
X137193Y87635D01*
X133295Y89584D01*
X131346Y89584D01*
X129397Y87635D01*
X129397Y83737D01*
X131346Y81788D01*
X135244Y81788D01*
X137193Y83737D01*
X125499Y85686D02*
X125499Y93482D01*
X125499Y85686D02*
X121601Y81788D01*
X117703Y85686D01*
X117703Y93482D01*
X113805Y93482D02*
X113805Y81788D01*
X107958Y81788D01*
X106009Y83737D01*
X106009Y91533D01*
X107958Y93482D01*
X113805Y93482D01*
X96264Y93482D02*
X94315Y91533D01*
X96264Y93482D02*
X100162Y93482D01*
X102111Y91533D01*
X102111Y83737D01*
X100162Y81788D01*
X96264Y81788D01*
X94315Y83737D01*
X195663Y73162D02*
X197612Y71213D01*
X195663Y73162D02*
X191765Y73162D01*
X189816Y71213D01*
X189816Y69264D01*
X191765Y67315D01*
X193714Y67315D01*
X191765Y67315D02*
X189816Y65366D01*
X189816Y63417D01*
X191765Y61468D01*
X195663Y61468D01*
X197612Y63417D01*
X185918Y65366D02*
X185918Y73162D01*
X185918Y65366D02*
X182020Y61468D01*
X178122Y65366D01*
X178122Y73162D01*
X172275Y61468D02*
X168377Y61468D01*
X166428Y63417D01*
X166428Y67315D01*
X168377Y69264D01*
X172275Y69264D01*
X174224Y67315D01*
X174224Y63417D01*
X172275Y61468D01*
X162530Y69264D02*
X160581Y69264D01*
X160581Y67315D01*
X162530Y67315D01*
X162530Y69264D01*
X162530Y63417D02*
X160581Y63417D01*
X160581Y61468D01*
X162530Y61468D01*
X162530Y63417D01*
X156683Y71213D02*
X154734Y73162D01*
X150836Y73162D01*
X148887Y71213D01*
X148887Y69264D01*
X150836Y67315D01*
X152785Y67315D01*
X150836Y67315D02*
X148887Y65366D01*
X148887Y63417D01*
X150836Y61468D01*
X154734Y61468D01*
X156683Y63417D01*
X144989Y63417D02*
X144989Y61468D01*
X144989Y63417D02*
X143040Y63417D01*
X143040Y61468D01*
X144989Y61468D01*
X139142Y71213D02*
X137193Y73162D01*
X133295Y73162D01*
X131346Y71213D01*
X131346Y69264D01*
X133295Y67315D01*
X135244Y67315D01*
X133295Y67315D02*
X131346Y65366D01*
X131346Y63417D01*
X133295Y61468D01*
X137193Y61468D01*
X139142Y63417D01*
X127448Y65366D02*
X127448Y73162D01*
X127448Y65366D02*
X123550Y61468D01*
X119652Y65366D01*
X119652Y73162D01*
X113805Y61468D02*
X109907Y61468D01*
X107958Y63417D01*
X107958Y67315D01*
X109907Y69264D01*
X113805Y69264D01*
X115754Y67315D01*
X115754Y63417D01*
X113805Y61468D01*
X104060Y63417D02*
X104060Y69264D01*
X104060Y63417D02*
X102111Y61468D01*
X96264Y61468D01*
X96264Y69264D01*
X90417Y71213D02*
X90417Y63417D01*
X88468Y61468D01*
X88468Y69264D02*
X92366Y69264D01*
X67029Y61468D02*
X65080Y63417D01*
X67029Y61468D02*
X70927Y61468D01*
X72876Y63417D01*
X72876Y71213D01*
X70927Y73162D01*
X67029Y73162D01*
X65080Y71213D01*
X65080Y67315D01*
X67029Y65366D01*
X70927Y65366D01*
X70927Y69264D01*
X67029Y69264D01*
X67029Y65366D01*
X61182Y69264D02*
X57284Y73162D01*
X57284Y61468D01*
X61182Y61468D02*
X53386Y61468D01*
X49488Y63417D02*
X49488Y71213D01*
X47539Y73162D01*
X43641Y73162D01*
X41692Y71213D01*
X41692Y63417D01*
X43641Y61468D01*
X47539Y61468D01*
X49488Y63417D01*
X41692Y71213D01*
X37794Y71213D02*
X37794Y63417D01*
X37794Y71213D02*
X35846Y73162D01*
X31948Y73162D01*
X29999Y71213D01*
X29999Y63417D01*
X31948Y61468D01*
X35846Y61468D01*
X37794Y63417D01*
X29999Y71213D01*
X26101Y69264D02*
X26101Y61468D01*
X26101Y69264D02*
X24152Y69264D01*
X22203Y67315D01*
X22203Y61468D01*
X22203Y67315D02*
X20254Y69264D01*
X18305Y67315D01*
X18305Y61468D01*
X14407Y61468D02*
X14407Y69264D01*
X10509Y73162D01*
X6611Y69264D01*
X6611Y61468D01*
X6611Y67315D02*
X14407Y67315D01*
X197612Y52842D02*
X197612Y41148D01*
X189816Y41148D01*
X183969Y41148D02*
X180071Y41148D01*
X178122Y43097D01*
X178122Y46995D01*
X180071Y48944D01*
X183969Y48944D01*
X185918Y46995D01*
X185918Y43097D01*
X183969Y41148D01*
X170326Y37250D02*
X168377Y37250D01*
X166428Y39199D01*
X166428Y48944D01*
X172275Y48944D01*
X174224Y46995D01*
X174224Y43097D01*
X172275Y41148D01*
X166428Y41148D01*
X162530Y48944D02*
X160581Y48944D01*
X160581Y41148D01*
X162530Y41148D02*
X158632Y41148D01*
X160581Y52842D02*
X160581Y54791D01*
X152785Y48944D02*
X146938Y48944D01*
X152785Y48944D02*
X154734Y46995D01*
X154734Y43097D01*
X152785Y41148D01*
X146938Y41148D01*
X143040Y48944D02*
X141091Y48944D01*
X141091Y46995D01*
X143040Y46995D01*
X143040Y48944D01*
X143040Y43097D02*
X141091Y43097D01*
X141091Y41148D01*
X143040Y41148D01*
X143040Y43097D01*
X137193Y50893D02*
X135244Y52842D01*
X131346Y52842D01*
X129397Y50893D01*
X129397Y48944D01*
X131346Y46995D01*
X133295Y46995D01*
X131346Y46995D02*
X129397Y45046D01*
X129397Y43097D01*
X131346Y41148D01*
X135244Y41148D01*
X137193Y43097D01*
X125499Y46995D02*
X117703Y46995D01*
X113805Y52842D02*
X106009Y52842D01*
X113805Y52842D02*
X113805Y46995D01*
X109907Y48944D01*
X107958Y48944D01*
X106009Y46995D01*
X106009Y43097D01*
X107958Y41148D01*
X111856Y41148D01*
X113805Y43097D01*
X102111Y45046D02*
X102111Y52842D01*
X102111Y45046D02*
X98213Y41148D01*
X94315Y45046D01*
X94315Y52842D01*
X76774Y48944D02*
X70927Y48944D01*
X76774Y48944D02*
X78723Y46995D01*
X78723Y43097D01*
X76774Y41148D01*
X70927Y41148D01*
X65080Y41148D02*
X61182Y41148D01*
X59233Y43097D01*
X59233Y46995D01*
X61182Y48944D01*
X65080Y48944D01*
X67029Y46995D01*
X67029Y43097D01*
X65080Y41148D01*
X55335Y41148D02*
X55335Y48944D01*
X53386Y48944D01*
X51437Y46995D01*
X51437Y41148D01*
X51437Y46995D02*
X49488Y48944D01*
X47539Y46995D01*
X47539Y41148D01*
X43641Y37250D02*
X43641Y48944D01*
X37794Y48944D01*
X35845Y46995D01*
X35845Y43097D01*
X37794Y41148D01*
X43641Y41148D01*
X29999Y48944D02*
X26101Y48944D01*
X24152Y46995D01*
X24152Y41148D01*
X29999Y41148D01*
X31947Y43097D01*
X29999Y45046D01*
X24152Y45046D01*
X18305Y43097D02*
X18305Y50893D01*
X18305Y43097D02*
X16356Y41148D01*
X16356Y48944D02*
X20254Y48944D01*
X12458Y43097D02*
X12458Y41148D01*
X12458Y43097D02*
X10509Y43097D01*
X10509Y41148D01*
X12458Y41148D01*
D13*
X135922Y162751D03*
D14*
X135890Y162814D03*
D15*
X135890Y162878D03*
D16*
X135922Y162941D03*
D17*
X135890Y163005D03*
D18*
X135922Y163068D03*
D19*
X135890Y163132D03*
D20*
X135922Y163195D03*
D21*
X135922Y163259D03*
D22*
X135986Y163322D03*
D23*
X135985Y163386D03*
D24*
X136049Y163449D03*
D25*
X136049Y163513D03*
D26*
X136081Y163576D03*
D27*
X136144Y163640D03*
D28*
X136144Y163703D03*
D29*
X136176Y163767D03*
D30*
X136239Y163830D03*
D31*
X136271Y163894D03*
D32*
X136271Y163957D03*
D33*
X136335Y164021D03*
D34*
X136367Y164084D03*
D35*
X136430Y164148D03*
D36*
X136462Y164211D03*
D37*
X136494Y164275D03*
D38*
X136557Y164338D03*
D39*
X136589Y164402D03*
D40*
X136621Y164465D03*
D41*
X136684Y164529D03*
D42*
X136716Y164592D03*
D43*
X136779Y164656D03*
D44*
X136811Y164719D03*
D45*
X136843Y164783D03*
D46*
X136906Y164846D03*
D47*
X136938Y164910D03*
D48*
X136970Y164973D03*
D49*
X137033Y165037D03*
D50*
X137065Y165100D03*
D51*
X137097Y165164D03*
D52*
X137160Y165227D03*
D53*
X137192Y165291D03*
D54*
X137256Y165354D03*
D55*
X137287Y165418D03*
D56*
X137319Y165481D03*
D57*
X137383Y165545D03*
D58*
X137414Y165608D03*
D59*
X137446Y165672D03*
D60*
X137510Y165735D03*
D61*
X137541Y165799D03*
D62*
X137573Y165862D03*
D63*
X137637Y165926D03*
D64*
X137668Y165989D03*
D65*
X137732Y166053D03*
D66*
X137764Y166116D03*
D67*
X157576Y166180D03*
D68*
X137795Y166180D03*
D69*
X157575Y166243D03*
D70*
X137859Y166243D03*
D71*
X157512Y166307D03*
D72*
X137891Y166307D03*
D73*
X157449Y166370D03*
D74*
X137922Y166370D03*
D75*
X157417Y166434D03*
D76*
X137986Y166434D03*
D77*
X157353Y166497D03*
D78*
X138018Y166497D03*
D79*
X157290Y166561D03*
D80*
X138049Y166561D03*
D81*
X157194Y166624D03*
D82*
X138113Y166624D03*
D83*
X157163Y166688D03*
D84*
X138145Y166688D03*
D30*
X157067Y166751D03*
D85*
X138208Y166751D03*
D86*
X157004Y166815D03*
D87*
X138240Y166815D03*
D88*
X156909Y166878D03*
D89*
X138272Y166878D03*
D37*
X156814Y166942D03*
D90*
X138335Y166942D03*
D91*
X156782Y167005D03*
D92*
X138367Y167005D03*
D93*
X156655Y167069D03*
D94*
X138399Y167069D03*
D95*
X156591Y167132D03*
D96*
X138462Y167132D03*
D47*
X156496Y167196D03*
D97*
X138494Y167196D03*
D98*
X156433Y167259D03*
D99*
X138526Y167259D03*
D100*
X156306Y167323D03*
D101*
X138589Y167323D03*
D102*
X156242Y167386D03*
D103*
X138621Y167386D03*
D104*
X156115Y167450D03*
D105*
X138653Y167450D03*
D106*
X156020Y167513D03*
D107*
X138684Y167513D03*
D108*
X155925Y167577D03*
D109*
X138748Y167577D03*
D110*
X155829Y167640D03*
D111*
X138780Y167640D03*
D112*
X155734Y167704D03*
D113*
X138811Y167704D03*
D114*
X155639Y167767D03*
D115*
X138843Y167767D03*
D116*
X155512Y167831D03*
D117*
X138875Y167831D03*
D118*
X155416Y167894D03*
D119*
X138907Y167894D03*
D80*
X155321Y167958D03*
D120*
X138938Y167958D03*
D121*
X155226Y168021D03*
D122*
X138970Y168021D03*
D87*
X155131Y168085D03*
D123*
X139002Y168085D03*
D124*
X155004Y168148D03*
D125*
X139034Y168148D03*
D94*
X154909Y168212D03*
D126*
X139065Y168212D03*
D127*
X154813Y168275D03*
D128*
X139097Y168275D03*
D129*
X154686Y168339D03*
D130*
X139129Y168339D03*
D131*
X154591Y168402D03*
D132*
X139161Y168402D03*
D109*
X154496Y168466D03*
D133*
X139192Y168466D03*
D134*
X154369Y168529D03*
D135*
X139224Y168529D03*
D136*
X154305Y168593D03*
D137*
X139224Y168593D03*
D122*
X154210Y168656D03*
D138*
X139256Y168656D03*
D123*
X154115Y168720D03*
D139*
X139288Y168720D03*
D140*
X154051Y168783D03*
D141*
X139319Y168783D03*
D130*
X153988Y168847D03*
D142*
X139351Y168847D03*
D132*
X153893Y168910D03*
D143*
X139351Y168910D03*
D137*
X153829Y168974D03*
D144*
X139383Y168974D03*
D145*
X153766Y169037D03*
D146*
X139415Y169037D03*
D147*
X153670Y169101D03*
D148*
X139446Y169101D03*
D149*
X153607Y169164D03*
D150*
X139446Y169164D03*
D148*
X153543Y169228D03*
D151*
X139478Y169228D03*
D152*
X153480Y169291D03*
D153*
X139510Y169291D03*
D154*
X153416Y169355D03*
D155*
X139510Y169355D03*
D156*
X153385Y169418D03*
X139542Y169418D03*
D157*
X153321Y169482D03*
D158*
X139573Y169482D03*
D159*
X153257Y169545D03*
D160*
X139573Y169545D03*
D161*
X153226Y169609D03*
D157*
X139605Y169609D03*
D162*
X153131Y169672D03*
D159*
X139605Y169672D03*
D163*
X153099Y169736D03*
D161*
X139637Y169736D03*
D164*
X153035Y169799D03*
D162*
X139669Y169799D03*
D165*
X153004Y169863D03*
D166*
X139669Y169863D03*
D167*
X152940Y169926D03*
D168*
X139700Y169926D03*
D169*
X152908Y169990D03*
D170*
X139700Y169990D03*
D171*
X152845Y170053D03*
D172*
X139732Y170053D03*
D173*
X152813Y170117D03*
D174*
X139732Y170117D03*
D175*
X152750Y170180D03*
D176*
X139764Y170180D03*
D177*
X152718Y170244D03*
D178*
X139764Y170244D03*
D179*
X152654Y170307D03*
D167*
X139796Y170307D03*
D180*
X152622Y170371D03*
D165*
X139796Y170371D03*
D181*
X152591Y170434D03*
D167*
X139796Y170434D03*
D182*
X152527Y170498D03*
D169*
X139827Y170498D03*
D183*
X152527Y170561D03*
D184*
X139827Y170561D03*
D185*
X152496Y170625D03*
D173*
X139859Y170625D03*
D186*
X152432Y170688D03*
D187*
X139859Y170688D03*
D188*
X152400Y170752D03*
D173*
X139859Y170752D03*
D189*
X152368Y170815D03*
D187*
X139859Y170815D03*
D190*
X152305Y170879D03*
D191*
X139891Y170879D03*
D189*
X152305Y170942D03*
D192*
X139891Y170942D03*
D193*
X152273Y171006D03*
D194*
X139923Y171006D03*
D195*
X152210Y171069D03*
D175*
X139923Y171069D03*
D196*
X152178Y171133D03*
D194*
X139923Y171133D03*
D197*
X152178Y171196D03*
D175*
X139923Y171196D03*
D196*
X152115Y171260D03*
D194*
X139923Y171260D03*
D198*
X152083Y171323D03*
D179*
X139954Y171323D03*
D199*
X152083Y171387D03*
D200*
X139954Y171387D03*
D201*
X152019Y171450D03*
D175*
X139986Y171450D03*
D202*
X152019Y171514D03*
D194*
X139986Y171514D03*
D203*
X151987Y171577D03*
D181*
X140018Y171577D03*
D204*
X151924Y171641D03*
D177*
X140018Y171641D03*
D203*
X151924Y171704D03*
D181*
X140018Y171704D03*
D205*
X151892Y171768D03*
D177*
X140018Y171768D03*
D203*
X151860Y171831D03*
D181*
X140018Y171831D03*
D206*
X151829Y171895D03*
D177*
X140018Y171895D03*
D207*
X151829Y171958D03*
D181*
X140018Y171958D03*
D205*
X151765Y172022D03*
D177*
X140018Y172022D03*
D208*
X151765Y172085D03*
D181*
X140018Y172085D03*
D205*
X151765Y172149D03*
D200*
X140081Y172149D03*
D207*
X151702Y172212D03*
D179*
X140081Y172212D03*
D206*
X151702Y172276D03*
D200*
X140081Y172276D03*
D209*
X151670Y172339D03*
D179*
X140081Y172339D03*
D205*
X151638Y172403D03*
D200*
X140081Y172403D03*
D208*
X151638Y172466D03*
D179*
X140081Y172466D03*
D210*
X151607Y172530D03*
D200*
X140081Y172530D03*
D207*
X151575Y172593D03*
D179*
X140081Y172593D03*
D206*
X151575Y172657D03*
D194*
X140113Y172657D03*
D209*
X151543Y172720D03*
D175*
X140113Y172720D03*
D205*
X151511Y172784D03*
D194*
X140113Y172784D03*
D208*
X151511Y172847D03*
D175*
X140113Y172847D03*
D205*
X151511Y172911D03*
D194*
X140113Y172911D03*
D207*
X151448Y172974D03*
D192*
X140145Y172974D03*
D206*
X151448Y173038D03*
D191*
X140145Y173038D03*
D207*
X151448Y173101D03*
D187*
X140113Y173101D03*
D205*
X151384Y173165D03*
D173*
X140113Y173165D03*
D208*
X151384Y173228D03*
D187*
X140113Y173228D03*
D205*
X151384Y173292D03*
D211*
X140145Y173292D03*
D203*
X151352Y173355D03*
D171*
X140145Y173355D03*
D206*
X151321Y173419D03*
D211*
X140145Y173419D03*
D207*
X151321Y173482D03*
D167*
X140177Y173482D03*
D204*
X151289Y173546D03*
D165*
X140177Y173546D03*
D208*
X151257Y173609D03*
D167*
X140177Y173609D03*
D205*
X151257Y173673D03*
D165*
X140177Y173673D03*
D212*
X145955Y173736D03*
D213*
X145955Y173800D03*
D212*
X145955Y173863D03*
D214*
X145955Y173927D03*
D215*
X145955Y173990D03*
D214*
X145955Y174054D03*
D216*
X145955Y174117D03*
D217*
X145955Y174181D03*
D218*
X149162Y174244D03*
D60*
X138145Y174244D03*
D219*
X149225Y174308D03*
D59*
X138081Y174308D03*
D220*
X149289Y174371D03*
D58*
X138049Y174371D03*
D221*
X149321Y174435D03*
D222*
X138049Y174435D03*
D223*
X149384Y174498D03*
D224*
X138049Y174498D03*
D225*
X149384Y174562D03*
D55*
X138049Y174562D03*
D226*
X149416Y174625D03*
D227*
X138049Y174625D03*
D228*
X149416Y174689D03*
D229*
X138081Y174689D03*
D230*
X149448Y174752D03*
D231*
X138049Y174752D03*
D232*
X149479Y174816D03*
D53*
X138081Y174816D03*
D233*
X149511Y174879D03*
D102*
X138081Y174879D03*
D234*
X149511Y174943D03*
D235*
X138113Y174943D03*
D236*
X149543Y175006D03*
D237*
X138113Y175006D03*
D238*
X149543Y175070D03*
D100*
X138145Y175070D03*
D239*
X149575Y175133D03*
D240*
X138145Y175133D03*
D241*
X149575Y175197D03*
D242*
X138176Y175197D03*
D243*
X149574Y175260D03*
D50*
X138208Y175260D03*
D244*
X149606Y175324D03*
D245*
X138208Y175324D03*
D246*
X149606Y175387D03*
D247*
X138240Y175387D03*
D248*
X152813Y175451D03*
D249*
X145860Y175451D03*
D250*
X138240Y175451D03*
D251*
X152845Y175514D03*
D252*
X145765Y175514D03*
D98*
X138272Y175514D03*
D253*
X152908Y175578D03*
D229*
X145701Y175578D03*
D254*
X138335Y175578D03*
D255*
X152877Y175641D03*
D102*
X145637Y175641D03*
D48*
X138367Y175641D03*
D256*
X152908Y175705D03*
D51*
X145606Y175705D03*
D257*
X138367Y175705D03*
D258*
X152940Y175768D03*
D98*
X145574Y175768D03*
D259*
X138398Y175768D03*
D68*
X152908Y175832D03*
D47*
X145510Y175832D03*
D260*
X138430Y175832D03*
D261*
X152908Y175895D03*
D262*
X145511Y175895D03*
D263*
X138494Y175895D03*
D264*
X152877Y175959D03*
D265*
X145447Y175959D03*
D266*
X138526Y175959D03*
D267*
X152845Y176022D03*
D268*
X145447Y176022D03*
D262*
X138526Y176022D03*
D65*
X152845Y176086D03*
D41*
X145383Y176086D03*
D269*
X138557Y176086D03*
D270*
X152813Y176149D03*
D40*
X145384Y176149D03*
D271*
X138621Y176149D03*
D112*
X152813Y176213D03*
D39*
X145352Y176213D03*
D265*
X138652Y176213D03*
D64*
X152781Y176276D03*
D272*
X145320Y176276D03*
D273*
X138684Y176276D03*
D274*
X152781Y176340D03*
D275*
X145288Y176340D03*
D276*
X138748Y176340D03*
D277*
X152718Y176403D03*
D278*
X145288Y176403D03*
D268*
X138780Y176403D03*
D63*
X152686Y176467D03*
D279*
X145257Y176467D03*
D280*
X138811Y176467D03*
D281*
X152686Y176530D03*
D282*
X145256Y176530D03*
D283*
X138906Y176530D03*
D63*
X152623Y176594D03*
D284*
X145225Y176594D03*
D285*
X138938Y176594D03*
D281*
X152623Y176657D03*
D30*
X145193Y176657D03*
D40*
X138970Y176657D03*
D286*
X152591Y176721D03*
D287*
X145193Y176721D03*
D288*
X139034Y176721D03*
D110*
X152527Y176784D03*
D28*
X145161Y176784D03*
D38*
X139097Y176784D03*
D289*
X152527Y176848D03*
D290*
X145161Y176848D03*
D291*
X139160Y176848D03*
D292*
X152464Y176911D03*
D293*
X145129Y176911D03*
D272*
X139224Y176911D03*
D294*
X135255Y176911D03*
D295*
X152432Y176975D03*
D296*
X145130Y176975D03*
D37*
X139288Y176975D03*
D297*
X135255Y176975D03*
D110*
X152400Y177038D03*
D26*
X145098Y177038D03*
D298*
X139319Y177038D03*
D299*
X135224Y177038D03*
D286*
X152337Y177102D03*
D25*
X145066Y177102D03*
D35*
X139414Y177102D03*
D300*
X135192Y177102D03*
D62*
X152305Y177165D03*
D24*
X145066Y177165D03*
D278*
X139446Y177165D03*
D88*
X135192Y177165D03*
D295*
X152241Y177229D03*
D301*
X145034Y177229D03*
D279*
X139542Y177229D03*
D39*
X135192Y177229D03*
D302*
X152210Y177292D03*
D303*
X145034Y177292D03*
D304*
X139573Y177292D03*
D305*
X135192Y177292D03*
D295*
X152178Y177356D03*
D23*
X145002Y177356D03*
D306*
X139668Y177356D03*
D47*
X135223Y177356D03*
D62*
X152114Y177419D03*
D22*
X145003Y177419D03*
D307*
X139732Y177419D03*
D308*
X135192Y177419D03*
D249*
X152083Y177483D03*
D309*
X144971Y177483D03*
D86*
X139796Y177483D03*
D310*
X135192Y177483D03*
D311*
X152019Y177546D03*
D312*
X144971Y177546D03*
D313*
X136970Y177546D03*
D249*
X151956Y177610D03*
D21*
X144939Y177610D03*
D133*
X136906Y177610D03*
D311*
X151892Y177673D03*
D20*
X144939Y177673D03*
D314*
X136843Y177673D03*
D108*
X151861Y177737D03*
D315*
X144939Y177737D03*
D142*
X136811Y177737D03*
D60*
X151797Y177800D03*
D316*
X144907Y177800D03*
D150*
X136779Y177800D03*
D108*
X151734Y177864D03*
D317*
X144875Y177864D03*
D318*
X136748Y177864D03*
D60*
X151670Y177927D03*
D319*
X144875Y177927D03*
D159*
X136684Y177927D03*
D108*
X151607Y177991D03*
D75*
X144844Y177991D03*
D170*
X136652Y177991D03*
D60*
X151543Y178054D03*
D320*
X144844Y178054D03*
D164*
X136652Y178054D03*
D108*
X151480Y178118D03*
D321*
X144812Y178118D03*
D173*
X136620Y178118D03*
D60*
X151416Y178181D03*
D322*
X144812Y178181D03*
D192*
X136589Y178181D03*
D108*
X151353Y178245D03*
D323*
X144780Y178245D03*
D180*
X136557Y178245D03*
D324*
X151321Y178308D03*
D325*
X144780Y178308D03*
D186*
X136557Y178308D03*
D326*
X151194Y178372D03*
D327*
X144748Y178372D03*
D193*
X136525Y178372D03*
D328*
X151162Y178435D03*
D18*
X144748Y178435D03*
D201*
X136525Y178435D03*
D326*
X151067Y178499D03*
D327*
X144748Y178499D03*
D210*
X136494Y178499D03*
D328*
X150971Y178562D03*
D18*
X144748Y178562D03*
D329*
X136493Y178562D03*
D59*
X150908Y178626D03*
D330*
X144717Y178626D03*
D331*
X136462Y178626D03*
D106*
X150813Y178689D03*
D18*
X144685Y178689D03*
D332*
X136462Y178689D03*
D333*
X150749Y178753D03*
D327*
X144685Y178753D03*
D334*
X136462Y178753D03*
D58*
X150622Y178816D03*
D325*
X144653Y178816D03*
D335*
X136430Y178816D03*
D57*
X150527Y178880D03*
D323*
X144653Y178880D03*
D336*
X136462Y178880D03*
D337*
X150432Y178943D03*
D338*
X144590Y178943D03*
D339*
X136462Y178943D03*
D340*
X150305Y179007D03*
D75*
X144590Y179007D03*
D341*
X136462Y179007D03*
D56*
X150209Y179070D03*
D316*
X144526Y179070D03*
D342*
X136525Y179070D03*
D343*
X150051Y179134D03*
D344*
X137732Y179134D03*
D345*
X149924Y179197D03*
D346*
X137668Y179197D03*
D53*
X149765Y179261D03*
D347*
X137668Y179261D03*
D102*
X149574Y179324D03*
D348*
X137605Y179324D03*
D100*
X149448Y179388D03*
D349*
X137605Y179388D03*
D350*
X149225Y179451D03*
D351*
X137573Y179451D03*
D100*
X149003Y179515D03*
D352*
X137605Y179515D03*
D353*
X140303Y179578D03*
D354*
X141256Y179642D03*
D355*
X141415Y179705D03*
D356*
X141510Y179769D03*
D357*
X141542Y179832D03*
D358*
X141605Y179896D03*
D359*
X141669Y179959D03*
D360*
X141669Y180023D03*
D361*
X141701Y180086D03*
D362*
X141732Y180150D03*
D363*
X141732Y180213D03*
D364*
X148177Y180277D03*
D365*
X134239Y180277D03*
D239*
X148432Y180340D03*
D209*
X133954Y180340D03*
D366*
X148654Y180404D03*
D193*
X133731Y180404D03*
D367*
X148781Y180467D03*
D189*
X133572Y180467D03*
D368*
X148908Y180531D03*
D369*
X133414Y180531D03*
D370*
X149003Y180594D03*
D181*
X133287Y180594D03*
D371*
X149098Y180658D03*
D194*
X133128Y180658D03*
D370*
X149194Y180721D03*
D187*
X133001Y180721D03*
D372*
X149257Y180785D03*
D211*
X132906Y180785D03*
D243*
X149320Y180848D03*
D171*
X132779Y180848D03*
D373*
X149384Y180912D03*
D165*
X132684Y180912D03*
D374*
X149416Y180975D03*
D184*
X132588Y180975D03*
D241*
X149448Y181039D03*
D165*
X132493Y181039D03*
D375*
X149511Y181102D03*
D171*
X132398Y181102D03*
D376*
X149543Y181166D03*
D165*
X132303Y181166D03*
D135*
X151924Y181229D03*
D38*
X144558Y181229D03*
D167*
X132239Y181229D03*
D377*
X152114Y181293D03*
D37*
X144431Y181293D03*
D211*
X132144Y181293D03*
D122*
X152305Y181356D03*
D88*
X144336Y181356D03*
D184*
X132080Y181356D03*
D378*
X152432Y181420D03*
D379*
X144272Y181420D03*
D191*
X132017Y181420D03*
D115*
X152559Y181483D03*
D34*
X144241Y181483D03*
D380*
X131953Y181483D03*
D113*
X152654Y181547D03*
D381*
X144209Y181547D03*
D191*
X131890Y181547D03*
D382*
X152781Y181610D03*
D278*
X144145Y181610D03*
D179*
X131826Y181610D03*
D383*
X152908Y181674D03*
D35*
X144113Y181674D03*
D180*
X131794Y181674D03*
D384*
X152972Y181737D03*
D36*
X144082Y181737D03*
D385*
X131731Y181737D03*
D105*
X153067Y181801D03*
D386*
X144018Y181801D03*
D185*
X131668Y181801D03*
D387*
X153162Y181864D03*
D38*
X143986Y181864D03*
D388*
X131636Y181864D03*
D101*
X153257Y181928D03*
D288*
X143923Y181928D03*
D196*
X131604Y181928D03*
D389*
X153321Y181991D03*
D283*
X143859Y181991D03*
D201*
X131572Y181991D03*
D129*
X153416Y182055D03*
D93*
X143828Y182055D03*
D205*
X131572Y182055D03*
D99*
X153512Y182118D03*
D95*
X143764Y182118D03*
D329*
X131540Y182118D03*
D390*
X153575Y182182D03*
D391*
X143701Y182182D03*
D392*
X131541Y182182D03*
D127*
X153670Y182245D03*
D393*
X143637Y182245D03*
D394*
X131540Y182245D03*
D97*
X153734Y182309D03*
D51*
X143574Y182309D03*
D334*
X131509Y182309D03*
D395*
X153797Y182372D03*
D54*
X143479Y182372D03*
D396*
X131572Y182372D03*
D397*
X153861Y182436D03*
D333*
X143383Y182436D03*
D398*
X131604Y182436D03*
D395*
X153924Y182499D03*
D110*
X143256Y182499D03*
D399*
X131667Y182499D03*
D397*
X153988Y182563D03*
D21*
X145193Y182563D03*
D285*
X141859Y182563D03*
D400*
X131795Y182563D03*
D401*
X154020Y182626D03*
D20*
X145320Y182626D03*
D402*
X134398Y182626D03*
D94*
X154083Y182690D03*
D403*
X145415Y182690D03*
D404*
X134335Y182690D03*
D405*
X154178Y182753D03*
D406*
X145479Y182753D03*
D407*
X134239Y182753D03*
D94*
X154210Y182817D03*
D403*
X145542Y182817D03*
D404*
X134208Y182817D03*
D408*
X154273Y182880D03*
D20*
X145574Y182880D03*
D407*
X134112Y182880D03*
D409*
X154305Y182944D03*
D315*
X145638Y182944D03*
D410*
X134112Y182944D03*
D92*
X154369Y183007D03*
D77*
X145669Y183007D03*
D411*
X134049Y183007D03*
D409*
X154432Y183071D03*
D412*
X145733Y183071D03*
D413*
X134017Y183071D03*
D408*
X154464Y183134D03*
D414*
X145796Y183134D03*
D415*
X133953Y183134D03*
D416*
X154496Y183198D03*
D309*
X145860Y183198D03*
D413*
X133953Y183198D03*
D405*
X154559Y183261D03*
D22*
X145892Y183261D03*
D415*
X133890Y183261D03*
D90*
X154591Y183325D03*
D23*
X145955Y183325D03*
D413*
X133890Y183325D03*
D92*
X154623Y183388D03*
D417*
X145987Y183388D03*
D418*
X133858Y183388D03*
D409*
X154686Y183452D03*
D419*
X146082Y183452D03*
D420*
X133858Y183452D03*
D401*
X154718Y183515D03*
D421*
X146114Y183515D03*
D422*
X133827Y183515D03*
D94*
X154718Y183579D03*
D423*
X146177Y183579D03*
D424*
X133827Y183579D03*
D401*
X154782Y183642D03*
D425*
X146241Y183642D03*
D426*
X133795Y183642D03*
D427*
X154813Y183706D03*
D428*
X146336Y183706D03*
D429*
X133795Y183706D03*
D96*
X154845Y183769D03*
D430*
X146400Y183769D03*
D431*
X133763Y183769D03*
D432*
X154845Y183833D03*
D433*
X146431Y183833D03*
D434*
X133763Y183833D03*
D435*
X154877Y183896D03*
D307*
X146527Y183896D03*
D436*
X133731Y183896D03*
D437*
X154877Y183960D03*
D306*
X146590Y183960D03*
D438*
X133731Y183960D03*
D389*
X154908Y184023D03*
D278*
X146685Y184023D03*
D439*
X133763Y184023D03*
D440*
X154877Y184087D03*
D441*
X146749Y184087D03*
D442*
X133763Y184087D03*
D384*
X154877Y184150D03*
D38*
X146844Y184150D03*
D443*
X133731Y184150D03*
D109*
X154877Y184214D03*
D285*
X146939Y184214D03*
D444*
X133763Y184214D03*
D115*
X154781Y184277D03*
D44*
X147098Y184277D03*
D445*
X133731Y184277D03*
D446*
X154655Y184341D03*
D49*
X147320Y184341D03*
D447*
X133731Y184341D03*
D448*
X152019Y184404D03*
D449*
X133763Y184404D03*
D450*
X152051Y184468D03*
D451*
X133795Y184468D03*
D452*
X152051Y184531D03*
D453*
X133795Y184531D03*
D454*
X152083Y184595D03*
D455*
X133795Y184595D03*
D456*
X152115Y184658D03*
D457*
X133858Y184658D03*
D458*
X152146Y184722D03*
D459*
X133890Y184722D03*
D460*
X152146Y184785D03*
D461*
X133954Y184785D03*
D462*
X152178Y184849D03*
D463*
X133953Y184849D03*
D464*
X152210Y184912D03*
D465*
X134017Y184912D03*
D221*
X152242Y184976D03*
D466*
X134112Y184976D03*
D467*
X152242Y185039D03*
D468*
X134176Y185039D03*
D469*
X152273Y185103D03*
D470*
X134271Y185103D03*
D471*
X152305Y185166D03*
D472*
X134366Y185166D03*
D473*
X152305Y185230D03*
D474*
X134493Y185230D03*
D475*
X152305Y185293D03*
D476*
X134525Y185293D03*
D477*
X152337Y185357D03*
D478*
X134652Y185357D03*
D479*
X152368Y185420D03*
D480*
X134747Y185420D03*
D481*
X152368Y185484D03*
D482*
X134843Y185484D03*
D483*
X152400Y185547D03*
D484*
X134938Y185547D03*
D482*
X152432Y185611D03*
D485*
X135065Y185611D03*
D486*
X152432Y185674D03*
D487*
X135128Y185674D03*
D488*
X152432Y185738D03*
D290*
X140970Y185738D03*
D204*
X133636Y185738D03*
D489*
X152464Y185801D03*
D430*
X140939Y185801D03*
D186*
X133700Y185801D03*
D490*
X152496Y185865D03*
D491*
X140907Y185865D03*
D200*
X133731Y185865D03*
D492*
X152527Y185928D03*
D30*
X140875Y185928D03*
D167*
X133827Y185928D03*
D478*
X152495Y185992D03*
D287*
X140875Y185992D03*
D166*
X133890Y185992D03*
D346*
X152527Y186055D03*
D493*
X140843Y186055D03*
D153*
X133922Y186055D03*
D494*
X152559Y186119D03*
D86*
X140812Y186119D03*
D495*
X133985Y186119D03*
D476*
X152559Y186182D03*
D496*
X140780Y186182D03*
D135*
X134080Y186182D03*
D497*
X152559Y186246D03*
D306*
X140748Y186246D03*
D498*
X134112Y186246D03*
D348*
X152591Y186309D03*
D282*
X140748Y186309D03*
D499*
X134176Y186309D03*
D500*
X152623Y186373D03*
D501*
X140716Y186373D03*
D113*
X134239Y186373D03*
D502*
X152622Y186436D03*
D34*
X140685Y186436D03*
D384*
X134303Y186436D03*
D503*
X152622Y186500D03*
D381*
X140653Y186500D03*
D390*
X134335Y186500D03*
D351*
X152623Y186563D03*
D88*
X140653Y186563D03*
D401*
X134398Y186563D03*
D504*
X152654Y186627D03*
D35*
X140621Y186627D03*
D505*
X134461Y186627D03*
D472*
X152654Y186690D03*
D298*
X140589Y186690D03*
D506*
X134493Y186690D03*
D507*
X152654Y186754D03*
D386*
X140589Y186754D03*
D508*
X134557Y186754D03*
D509*
X152686Y186817D03*
D510*
X140589Y186817D03*
D66*
X134589Y186817D03*
D511*
X152686Y186881D03*
D291*
X140557Y186881D03*
D289*
X134620Y186881D03*
D512*
X152686Y186944D03*
D91*
X140526Y186944D03*
D324*
X134684Y186944D03*
D368*
X154369Y187008D03*
D287*
X145891Y187008D03*
D39*
X140526Y187008D03*
D229*
X134716Y187008D03*
D246*
X154432Y187071D03*
D493*
X145923Y187071D03*
D513*
X140526Y187071D03*
D240*
X134716Y187071D03*
D368*
X154496Y187135D03*
D86*
X145892Y187135D03*
D41*
X140494Y187135D03*
D260*
X134747Y187135D03*
D514*
X154496Y187198D03*
D32*
X145923Y187198D03*
D283*
X140494Y187198D03*
D268*
X134779Y187198D03*
D371*
X154559Y187262D03*
D306*
X145891Y187262D03*
D515*
X140494Y187262D03*
D291*
X134779Y187262D03*
D514*
X154623Y187325D03*
D516*
X145860Y187325D03*
D268*
X140494Y187325D03*
D496*
X134811Y187325D03*
D372*
X154655Y187389D03*
D279*
X145892Y187389D03*
D43*
X140462Y187389D03*
D296*
X134843Y187389D03*
D246*
X154686Y187452D03*
D88*
X145860Y187452D03*
D44*
X140494Y187452D03*
D316*
X134874Y187452D03*
D368*
X154750Y187516D03*
D35*
X145828Y187516D03*
D266*
X140494Y187516D03*
D517*
X134906Y187516D03*
D370*
X154782Y187579D03*
D272*
X145828Y187579D03*
D262*
X140494Y187579D03*
D371*
X154813Y187643D03*
D386*
X145796Y187643D03*
D47*
X140494Y187643D03*
D514*
X154877Y187706D03*
D38*
X145764Y187706D03*
D48*
X140526Y187706D03*
D372*
X154909Y187770D03*
D288*
X145765Y187770D03*
D254*
X140558Y187770D03*
D370*
X154972Y187833D03*
D283*
X145701Y187833D03*
D50*
X140557Y187833D03*
D368*
X155004Y187897D03*
D151*
X142970Y187897D03*
D370*
X155036Y187960D03*
D153*
X142939Y187960D03*
D372*
X155099Y188024D03*
D155*
X142939Y188024D03*
D514*
X155131Y188087D03*
D156*
X142971Y188087D03*
D371*
X155194Y188151D03*
D518*
X142939Y188151D03*
D370*
X155226Y188214D03*
D519*
X142939Y188214D03*
D372*
X155290Y188278D03*
D157*
X142970Y188278D03*
D246*
X155321Y188341D03*
D520*
X142939Y188341D03*
D368*
X155385Y188405D03*
D161*
X142939Y188405D03*
D521*
X155416Y188468D03*
D520*
X142939Y188468D03*
D522*
X155480Y188532D03*
D166*
X142971Y188532D03*
D523*
X155512Y188595D03*
D524*
X142939Y188595D03*
D525*
X155575Y188659D03*
D163*
X142939Y188659D03*
D526*
X155607Y188722D03*
D524*
X142939Y188722D03*
D400*
X155671Y188786D03*
D174*
X142970Y188786D03*
D527*
X155702Y188849D03*
D176*
X142939Y188849D03*
D528*
X155734Y188913D03*
D178*
X142939Y188913D03*
D529*
X155766Y188976D03*
D176*
X142939Y188976D03*
D530*
X155829Y189040D03*
D178*
X142939Y189040D03*
D531*
X155893Y189103D03*
D167*
X142971Y189103D03*
D532*
X155924Y189167D03*
D211*
X142939Y189167D03*
D533*
X155956Y189230D03*
D171*
X142939Y189230D03*
D534*
X156020Y189294D03*
D211*
X142939Y189294D03*
D339*
X156020Y189357D03*
D171*
X142939Y189357D03*
D535*
X156083Y189421D03*
D211*
X142939Y189421D03*
D536*
X156115Y189484D03*
D171*
X142939Y189484D03*
D537*
X156179Y189548D03*
D211*
X142939Y189548D03*
D538*
X156210Y189611D03*
D171*
X142939Y189611D03*
D539*
X156274Y189675D03*
D211*
X142939Y189675D03*
D540*
X156337Y189738D03*
D171*
X142939Y189738D03*
D541*
X156369Y189802D03*
D173*
X142907Y189802D03*
D207*
X156401Y189865D03*
D187*
X142907Y189865D03*
D196*
X156496Y189929D03*
D173*
X142907Y189929D03*
D388*
X156528Y189992D03*
D187*
X142907Y189992D03*
D200*
X156591Y190056D03*
D173*
X142907Y190056D03*
D187*
X156686Y190119D03*
X142907Y190119D03*
D174*
X156750Y190183D03*
D173*
X142907Y190183D03*
D160*
X156845Y190246D03*
D187*
X142907Y190246D03*
D144*
X156909Y190310D03*
D173*
X142907Y190310D03*
D132*
X157004Y190373D03*
D187*
X142907Y190373D03*
D378*
X157131Y190437D03*
D173*
X142907Y190437D03*
D435*
X157290Y190500D03*
D187*
X142907Y190500D03*
D173*
X142907Y190564D03*
D187*
X142907Y190627D03*
D165*
X142907Y190691D03*
D167*
X142907Y190754D03*
D165*
X142907Y190818D03*
D167*
X142907Y190881D03*
D165*
X142907Y190945D03*
D164*
X142875Y191008D03*
D542*
X142875Y191072D03*
D164*
X142875Y191135D03*
D542*
X142875Y191199D03*
D164*
X142875Y191262D03*
D174*
X142843Y191326D03*
D168*
X142875Y191389D03*
D170*
X142875Y191453D03*
D168*
X142875Y191516D03*
D166*
X142844Y191580D03*
D162*
X142844Y191643D03*
D166*
X142844Y191707D03*
D159*
X142843Y191770D03*
D157*
X142843Y191834D03*
D159*
X142843Y191897D03*
D518*
X142812Y191961D03*
D519*
X142812Y192024D03*
D318*
X142844Y192088D03*
D153*
X142812Y192151D03*
D155*
X142812Y192215D03*
D153*
X142812Y192278D03*
D151*
X142780Y192342D03*
D152*
X142812Y192405D03*
D543*
X142780Y192469D03*
D146*
X142780Y192532D03*
D144*
X142812Y192596D03*
D143*
X142780Y192659D03*
D142*
X142780Y192723D03*
D141*
X142748Y192786D03*
D139*
X142780Y192850D03*
D544*
X142748Y192913D03*
D137*
X142780Y192977D03*
D545*
X142748Y193040D03*
D133*
X142748Y193104D03*
D132*
X142717Y193167D03*
D498*
X142748Y193231D03*
D128*
X142716Y193294D03*
D377*
X142716Y193358D03*
D125*
X142717Y193421D03*
D446*
X142717Y193485D03*
D546*
X142685Y193548D03*
D547*
X142685Y193612D03*
D499*
X142685Y193675D03*
D378*
X142653Y193739D03*
D115*
X142653Y193802D03*
D548*
X142653Y193866D03*
D549*
X142621Y193929D03*
D550*
X142653Y193993D03*
D382*
X142621Y194056D03*
D551*
X142589Y194120D03*
D107*
X142621Y194183D03*
D105*
X142590Y194247D03*
D103*
X142558Y194310D03*
D437*
X142558Y194374D03*
D552*
X142558Y194437D03*
D390*
X142526Y194501D03*
D127*
X142494Y194564D03*
D427*
X142494Y194628D03*
D395*
X142494Y194691D03*
D409*
X142494Y194755D03*
D408*
X142462Y194818D03*
D90*
X142462Y194882D03*
D124*
X142431Y194945D03*
D87*
X142431Y195009D03*
D85*
X142399Y195072D03*
D505*
X142399Y195136D03*
D121*
X142399Y195199D03*
D553*
X142367Y195263D03*
D554*
X142335Y195326D03*
D80*
X142367Y195390D03*
D78*
X142336Y195453D03*
D76*
X142304Y195517D03*
D118*
X142335Y195580D03*
D508*
X142304Y195644D03*
D255*
X142272Y195707D03*
D116*
X142304Y195771D03*
D258*
X142272Y195834D03*
D68*
X142240Y195898D03*
D555*
X142240Y195961D03*
D556*
X142240Y196025D03*
D270*
X142208Y196088D03*
D557*
X142177Y196152D03*
D281*
X142209Y196215D03*
D286*
X142177Y196279D03*
D62*
X142145Y196342D03*
D108*
X142145Y196406D03*
D60*
X142145Y196469D03*
D558*
X142113Y196533D03*
D58*
X142113Y196596D03*
D57*
X142082Y196660D03*
D252*
X142082Y196723D03*
D104*
X142081Y196787D03*
D345*
X142050Y196850D03*
D343*
X142050Y196914D03*
D559*
X142050Y196977D03*
D53*
X142018Y197041D03*
D52*
X141986Y197104D03*
D100*
X142018Y197168D03*
D350*
X141986Y197231D03*
D245*
X141954Y197295D03*
D393*
X141986Y197358D03*
D254*
X141955Y197422D03*
D48*
X141923Y197485D03*
D391*
X141923Y197549D03*
D263*
X141923Y197612D03*
D266*
X141891Y197676D03*
D44*
X141891Y197739D03*
D43*
X141859Y197803D03*
D273*
X141859Y197866D03*
D515*
X141828Y197930D03*
D283*
X141827Y197993D03*
D41*
X141827Y198057D03*
D40*
X141828Y198120D03*
D39*
X141796Y198184D03*
D91*
X141796Y198247D03*
D291*
X141764Y198311D03*
D272*
X141764Y198374D03*
D275*
X141732Y198438D03*
D298*
X141732Y198501D03*
D379*
X141732Y198565D03*
D34*
X141701Y198628D03*
D279*
X141701Y198692D03*
D282*
X141700Y198755D03*
D284*
X141669Y198819D03*
D307*
X141637Y198882D03*
D300*
X141669Y198946D03*
D30*
X141637Y199009D03*
D433*
X141605Y199073D03*
D28*
X141605Y199136D03*
D290*
X141605Y199200D03*
D293*
X141573Y199263D03*
D296*
X141574Y199327D03*
D299*
X141574Y199390D03*
D560*
X141542Y199454D03*
D421*
X141542Y199517D03*
D419*
X141510Y199581D03*
D417*
X141542Y199644D03*
D23*
X141510Y199708D03*
D22*
X141510Y199771D03*
D297*
X141478Y199835D03*
D77*
X141478Y199898D03*
D561*
X141478Y199962D03*
D316*
X141478Y200025D03*
D19*
X141478Y200089D03*
D325*
X141478Y200152D03*
D562*
X141478Y200216D03*
D563*
X141446Y200279D03*
D564*
X141478Y200343D03*
D69*
X141510Y200406D03*
D67*
X141510Y200470D03*
M02*
