G04 EAGLE Gerber RS-274X export*
G75*
%MOMM*%
%FSLAX34Y34*%
%LPD*%
%INBottom Copper*%
%IPPOS*%
%AMOC8*
5,1,8,0,0,1.08239X$1,22.5*%
G01*
%ADD10C,3.516000*%
%ADD11R,2.500000X2.500000*%
%ADD12C,1.208000*%
%ADD13R,1.500000X2.000000*%
%ADD14C,1.676400*%
%ADD15R,4.600000X1.000000*%
%ADD16R,3.400000X1.600000*%
%ADD17C,0.889000*%
%ADD18C,0.406400*%
%ADD19C,0.254000*%
%ADD20C,0.906400*%
%ADD21C,0.304800*%

G36*
X131486Y2558D02*
X131486Y2558D01*
X131624Y2571D01*
X131643Y2578D01*
X131664Y2581D01*
X131793Y2632D01*
X131924Y2679D01*
X131940Y2690D01*
X131959Y2698D01*
X132071Y2779D01*
X132187Y2857D01*
X132200Y2873D01*
X132217Y2884D01*
X132305Y2992D01*
X132397Y3096D01*
X132406Y3114D01*
X132419Y3129D01*
X132479Y3255D01*
X132542Y3379D01*
X132546Y3399D01*
X132555Y3417D01*
X132581Y3554D01*
X132611Y3689D01*
X132611Y3710D01*
X132615Y3729D01*
X132606Y3868D01*
X132602Y4007D01*
X132596Y4027D01*
X132595Y4047D01*
X132552Y4179D01*
X132513Y4313D01*
X132503Y4330D01*
X132497Y4349D01*
X132423Y4467D01*
X132352Y4587D01*
X132333Y4608D01*
X132327Y4618D01*
X132312Y4632D01*
X132245Y4707D01*
X131369Y5584D01*
X130358Y6975D01*
X129577Y8507D01*
X129046Y10142D01*
X129037Y10201D01*
X138470Y10201D01*
X138588Y10216D01*
X138707Y10223D01*
X138745Y10235D01*
X138785Y10241D01*
X138896Y10284D01*
X139009Y10321D01*
X139043Y10343D01*
X139081Y10358D01*
X139177Y10427D01*
X139278Y10491D01*
X139306Y10521D01*
X139338Y10544D01*
X139414Y10636D01*
X139496Y10723D01*
X139515Y10758D01*
X139541Y10789D01*
X139592Y10897D01*
X139649Y11001D01*
X139659Y11041D01*
X139677Y11077D01*
X139697Y11184D01*
X139701Y11154D01*
X139745Y11044D01*
X139781Y10931D01*
X139803Y10896D01*
X139818Y10859D01*
X139888Y10762D01*
X139951Y10662D01*
X139981Y10634D01*
X140005Y10601D01*
X140096Y10525D01*
X140183Y10444D01*
X140219Y10424D01*
X140250Y10399D01*
X140357Y10348D01*
X140462Y10290D01*
X140501Y10280D01*
X140537Y10263D01*
X140654Y10241D01*
X140770Y10211D01*
X140830Y10207D01*
X140850Y10203D01*
X140870Y10205D01*
X140930Y10201D01*
X150363Y10201D01*
X150354Y10142D01*
X149823Y8507D01*
X149042Y6975D01*
X148031Y5584D01*
X147155Y4707D01*
X147070Y4598D01*
X146981Y4491D01*
X146972Y4472D01*
X146960Y4456D01*
X146904Y4328D01*
X146845Y4203D01*
X146841Y4183D01*
X146833Y4164D01*
X146811Y4026D01*
X146785Y3890D01*
X146787Y3870D01*
X146783Y3850D01*
X146796Y3711D01*
X146805Y3573D01*
X146811Y3554D01*
X146813Y3534D01*
X146860Y3402D01*
X146903Y3271D01*
X146914Y3253D01*
X146921Y3234D01*
X146999Y3119D01*
X147073Y3002D01*
X147088Y2988D01*
X147099Y2971D01*
X147203Y2879D01*
X147305Y2784D01*
X147323Y2774D01*
X147338Y2761D01*
X147462Y2698D01*
X147583Y2630D01*
X147603Y2625D01*
X147621Y2616D01*
X147757Y2586D01*
X147891Y2551D01*
X147919Y2549D01*
X147931Y2546D01*
X147952Y2547D01*
X148052Y2541D01*
X157466Y2541D01*
X157604Y2558D01*
X157743Y2571D01*
X157762Y2578D01*
X157782Y2581D01*
X157911Y2632D01*
X158042Y2679D01*
X158059Y2690D01*
X158078Y2698D01*
X158190Y2779D01*
X158305Y2857D01*
X158319Y2873D01*
X158335Y2884D01*
X158424Y2992D01*
X158516Y3096D01*
X158525Y3114D01*
X158538Y3129D01*
X158597Y3255D01*
X158660Y3379D01*
X158665Y3399D01*
X158673Y3417D01*
X158699Y3553D01*
X158730Y3689D01*
X158729Y3710D01*
X158733Y3729D01*
X158724Y3868D01*
X158720Y4007D01*
X158715Y4027D01*
X158713Y4047D01*
X158671Y4179D01*
X158632Y4313D01*
X158622Y4330D01*
X158615Y4349D01*
X158541Y4467D01*
X158470Y4587D01*
X158452Y4608D01*
X158445Y4618D01*
X158430Y4632D01*
X158364Y4707D01*
X156271Y6801D01*
X154685Y10628D01*
X154685Y14772D01*
X156271Y18599D01*
X159201Y21529D01*
X161014Y22280D01*
X161039Y22295D01*
X161067Y22304D01*
X161177Y22373D01*
X161290Y22438D01*
X161311Y22458D01*
X161336Y22474D01*
X161425Y22569D01*
X161518Y22659D01*
X161534Y22684D01*
X161554Y22706D01*
X161617Y22820D01*
X161685Y22930D01*
X161693Y22958D01*
X161708Y22984D01*
X161740Y23110D01*
X161778Y23234D01*
X161780Y23264D01*
X161787Y23292D01*
X161797Y23453D01*
X161797Y102968D01*
X207781Y148951D01*
X207841Y149030D01*
X207909Y149102D01*
X207938Y149155D01*
X207975Y149203D01*
X208015Y149294D01*
X208063Y149380D01*
X208078Y149439D01*
X208102Y149494D01*
X208117Y149592D01*
X208142Y149688D01*
X208148Y149788D01*
X208152Y149809D01*
X208150Y149821D01*
X208152Y149849D01*
X208152Y149879D01*
X209138Y152259D01*
X210961Y154082D01*
X213341Y155068D01*
X215919Y155068D01*
X218299Y154082D01*
X220122Y152259D01*
X221108Y149879D01*
X221108Y147301D01*
X220122Y144921D01*
X219544Y144344D01*
X219514Y144304D01*
X219477Y144271D01*
X219417Y144179D01*
X219350Y144092D01*
X219330Y144047D01*
X219302Y144005D01*
X219267Y143901D01*
X219223Y143800D01*
X219215Y143751D01*
X219199Y143704D01*
X219191Y143595D01*
X219173Y143486D01*
X219178Y143437D01*
X219174Y143387D01*
X219193Y143279D01*
X219203Y143170D01*
X219220Y143123D01*
X219228Y143074D01*
X219274Y142974D01*
X219311Y142870D01*
X219339Y142829D01*
X219359Y142784D01*
X219428Y142698D01*
X219489Y142607D01*
X219527Y142574D01*
X219558Y142536D01*
X219645Y142469D01*
X219728Y142397D01*
X219772Y142374D01*
X219812Y142344D01*
X219956Y142273D01*
X222109Y141382D01*
X223932Y139559D01*
X224918Y137179D01*
X224918Y134601D01*
X223932Y132221D01*
X222109Y130398D01*
X221752Y130251D01*
X221709Y130226D01*
X221662Y130209D01*
X221571Y130147D01*
X221476Y130093D01*
X221440Y130058D01*
X221399Y130030D01*
X221326Y129948D01*
X221248Y129872D01*
X221222Y129829D01*
X221189Y129792D01*
X221139Y129694D01*
X221081Y129601D01*
X221067Y129553D01*
X221044Y129509D01*
X221020Y129402D01*
X220988Y129297D01*
X220985Y129247D01*
X220974Y129198D01*
X220978Y129089D01*
X220973Y128979D01*
X220983Y128930D01*
X220984Y128881D01*
X221015Y128775D01*
X221037Y128668D01*
X221059Y128623D01*
X221073Y128575D01*
X221128Y128481D01*
X221177Y128382D01*
X221209Y128344D01*
X221234Y128301D01*
X221341Y128180D01*
X221392Y128129D01*
X222378Y125749D01*
X222378Y123171D01*
X221392Y120791D01*
X220878Y120277D01*
X220805Y120183D01*
X220727Y120094D01*
X220708Y120058D01*
X220683Y120026D01*
X220636Y119917D01*
X220582Y119811D01*
X220573Y119772D01*
X220557Y119734D01*
X220538Y119617D01*
X220512Y119501D01*
X220514Y119460D01*
X220507Y119420D01*
X220518Y119302D01*
X220522Y119183D01*
X220533Y119144D01*
X220537Y119104D01*
X220577Y118992D01*
X220610Y118877D01*
X220631Y118842D01*
X220645Y118804D01*
X220712Y118706D01*
X220772Y118603D01*
X220812Y118558D01*
X220823Y118541D01*
X220839Y118528D01*
X220878Y118482D01*
X222662Y116699D01*
X223648Y114319D01*
X223648Y111741D01*
X222636Y109299D01*
X222605Y109184D01*
X222566Y109072D01*
X222563Y109032D01*
X222552Y108993D01*
X222550Y108873D01*
X222541Y108755D01*
X222548Y108715D01*
X222547Y108675D01*
X222575Y108559D01*
X222595Y108441D01*
X222612Y108405D01*
X222621Y108365D01*
X222677Y108260D01*
X222726Y108151D01*
X222751Y108120D01*
X222770Y108084D01*
X222850Y107996D01*
X222924Y107903D01*
X222957Y107879D01*
X222984Y107849D01*
X223083Y107783D01*
X223179Y107712D01*
X223233Y107685D01*
X223250Y107674D01*
X223269Y107667D01*
X223323Y107641D01*
X224649Y107092D01*
X226472Y105269D01*
X227458Y102889D01*
X227458Y100311D01*
X226472Y97931D01*
X224649Y96108D01*
X224292Y95961D01*
X224249Y95936D01*
X224202Y95919D01*
X224112Y95858D01*
X224016Y95803D01*
X223980Y95768D01*
X223939Y95741D01*
X223867Y95658D01*
X223788Y95582D01*
X223762Y95539D01*
X223729Y95502D01*
X223679Y95404D01*
X223621Y95311D01*
X223607Y95263D01*
X223584Y95219D01*
X223560Y95112D01*
X223528Y95007D01*
X223525Y94957D01*
X223514Y94909D01*
X223518Y94799D01*
X223513Y94689D01*
X223523Y94640D01*
X223524Y94591D01*
X223555Y94485D01*
X223577Y94378D01*
X223599Y94333D01*
X223613Y94285D01*
X223668Y94191D01*
X223717Y94092D01*
X223749Y94054D01*
X223774Y94011D01*
X223880Y93890D01*
X225202Y92569D01*
X226188Y90189D01*
X226188Y87611D01*
X225245Y85334D01*
X225237Y85306D01*
X225223Y85280D01*
X225195Y85153D01*
X225161Y85028D01*
X225160Y84998D01*
X225154Y84969D01*
X225158Y84840D01*
X225156Y84710D01*
X225162Y84681D01*
X225163Y84651D01*
X225199Y84527D01*
X225230Y84400D01*
X225244Y84374D01*
X225252Y84346D01*
X225318Y84234D01*
X225378Y84119D01*
X225398Y84097D01*
X225413Y84072D01*
X225520Y83951D01*
X260382Y49088D01*
X260477Y49015D01*
X260566Y48937D01*
X260602Y48918D01*
X260634Y48893D01*
X260743Y48846D01*
X260849Y48792D01*
X260888Y48783D01*
X260926Y48767D01*
X261043Y48748D01*
X261159Y48722D01*
X261200Y48724D01*
X261240Y48717D01*
X261358Y48728D01*
X261477Y48732D01*
X261516Y48743D01*
X261556Y48747D01*
X261668Y48787D01*
X261783Y48820D01*
X261817Y48841D01*
X261856Y48855D01*
X261875Y48868D01*
X264395Y49912D01*
X266973Y49912D01*
X269353Y48926D01*
X271176Y47103D01*
X272162Y44723D01*
X272162Y42146D01*
X271529Y40618D01*
X271516Y40570D01*
X271495Y40525D01*
X271474Y40417D01*
X271445Y40311D01*
X271444Y40261D01*
X271435Y40212D01*
X271442Y40103D01*
X271440Y39993D01*
X271451Y39945D01*
X271455Y39895D01*
X271488Y39791D01*
X271514Y39684D01*
X271537Y39640D01*
X271553Y39593D01*
X271611Y39500D01*
X271663Y39403D01*
X271696Y39366D01*
X271723Y39324D01*
X271803Y39249D01*
X271877Y39167D01*
X271918Y39140D01*
X271954Y39106D01*
X272051Y39053D01*
X272142Y38993D01*
X272189Y38976D01*
X272233Y38952D01*
X272339Y38925D01*
X272443Y38889D01*
X272493Y38885D01*
X272541Y38873D01*
X272702Y38863D01*
X281178Y38863D01*
X281296Y38878D01*
X281415Y38885D01*
X281453Y38898D01*
X281494Y38903D01*
X281604Y38946D01*
X281717Y38983D01*
X281752Y39005D01*
X281789Y39020D01*
X281885Y39089D01*
X281986Y39153D01*
X282014Y39183D01*
X282047Y39206D01*
X282123Y39298D01*
X282204Y39385D01*
X282224Y39420D01*
X282249Y39451D01*
X282300Y39559D01*
X282358Y39663D01*
X282368Y39703D01*
X282385Y39739D01*
X282407Y39856D01*
X282437Y39971D01*
X282441Y40031D01*
X282445Y40051D01*
X282443Y40072D01*
X282447Y40132D01*
X282447Y53438D01*
X332642Y103633D01*
X353706Y103633D01*
X353804Y103645D01*
X353903Y103648D01*
X353962Y103665D01*
X354022Y103673D01*
X354114Y103709D01*
X354209Y103737D01*
X354261Y103767D01*
X354317Y103790D01*
X354397Y103848D01*
X354483Y103898D01*
X354558Y103964D01*
X354575Y103976D01*
X354583Y103986D01*
X354604Y104004D01*
X365780Y115181D01*
X365865Y115290D01*
X365954Y115397D01*
X365962Y115416D01*
X365975Y115432D01*
X366030Y115560D01*
X366089Y115685D01*
X366093Y115705D01*
X366101Y115724D01*
X366123Y115862D01*
X366149Y115998D01*
X366148Y116018D01*
X366151Y116038D01*
X366138Y116177D01*
X366129Y116315D01*
X366123Y116334D01*
X366121Y116354D01*
X366074Y116486D01*
X366031Y116617D01*
X366020Y116635D01*
X366013Y116654D01*
X365935Y116769D01*
X365861Y116886D01*
X365846Y116900D01*
X365835Y116917D01*
X365731Y117009D01*
X365629Y117104D01*
X365612Y117114D01*
X365596Y117127D01*
X365472Y117191D01*
X365351Y117258D01*
X365331Y117263D01*
X365313Y117272D01*
X365177Y117302D01*
X365043Y117337D01*
X365015Y117339D01*
X365003Y117342D01*
X364982Y117341D01*
X364882Y117347D01*
X280024Y117347D01*
X279926Y117335D01*
X279827Y117332D01*
X279768Y117315D01*
X279708Y117307D01*
X279616Y117271D01*
X279521Y117243D01*
X279469Y117213D01*
X279413Y117190D01*
X279333Y117132D01*
X279247Y117082D01*
X279172Y117016D01*
X279155Y117004D01*
X279147Y116994D01*
X279126Y116976D01*
X275148Y112998D01*
X275075Y112903D01*
X274997Y112814D01*
X274978Y112778D01*
X274953Y112746D01*
X274906Y112637D01*
X274852Y112531D01*
X274843Y112492D01*
X274827Y112454D01*
X274808Y112337D01*
X274782Y112221D01*
X274784Y112180D01*
X274777Y112140D01*
X274788Y112022D01*
X274792Y111903D01*
X274803Y111864D01*
X274807Y111824D01*
X274847Y111712D01*
X274880Y111597D01*
X274901Y111563D01*
X274915Y111524D01*
X274981Y111426D01*
X275042Y111323D01*
X275082Y111278D01*
X275093Y111261D01*
X275108Y111248D01*
X275148Y111203D01*
X276002Y110349D01*
X276988Y107969D01*
X276988Y105391D01*
X276002Y103011D01*
X274179Y101188D01*
X271799Y100202D01*
X269367Y100202D01*
X269249Y100187D01*
X269130Y100180D01*
X269092Y100167D01*
X269051Y100162D01*
X268941Y100119D01*
X268828Y100082D01*
X268793Y100060D01*
X268756Y100045D01*
X268660Y99976D01*
X268559Y99912D01*
X268531Y99882D01*
X268498Y99859D01*
X268422Y99767D01*
X268341Y99680D01*
X268321Y99645D01*
X268296Y99614D01*
X268245Y99506D01*
X268187Y99402D01*
X268177Y99362D01*
X268160Y99326D01*
X268138Y99209D01*
X268108Y99094D01*
X268104Y99034D01*
X268100Y99014D01*
X268102Y98993D01*
X268098Y98933D01*
X268098Y96501D01*
X267112Y94121D01*
X265289Y92298D01*
X262909Y91312D01*
X260331Y91312D01*
X257951Y92298D01*
X256128Y94121D01*
X255142Y96501D01*
X255142Y99079D01*
X255681Y100378D01*
X255683Y100387D01*
X255688Y100395D01*
X255725Y100541D01*
X255765Y100685D01*
X255765Y100694D01*
X255767Y100703D01*
X255777Y100864D01*
X255777Y114398D01*
X271682Y130303D01*
X365136Y130303D01*
X365234Y130315D01*
X365333Y130318D01*
X365392Y130335D01*
X365452Y130343D01*
X365544Y130379D01*
X365639Y130407D01*
X365691Y130437D01*
X365747Y130460D01*
X365827Y130518D01*
X365913Y130568D01*
X365988Y130634D01*
X366005Y130646D01*
X366013Y130656D01*
X366034Y130674D01*
X390026Y154666D01*
X390086Y154745D01*
X390154Y154817D01*
X390183Y154870D01*
X390220Y154918D01*
X390260Y155009D01*
X390308Y155095D01*
X390323Y155154D01*
X390347Y155209D01*
X390362Y155307D01*
X390387Y155403D01*
X390393Y155503D01*
X390397Y155524D01*
X390395Y155536D01*
X390397Y155564D01*
X390397Y205147D01*
X390394Y205176D01*
X390396Y205206D01*
X390374Y205334D01*
X390357Y205463D01*
X390347Y205490D01*
X390342Y205519D01*
X390288Y205638D01*
X390240Y205758D01*
X390223Y205782D01*
X390211Y205809D01*
X390130Y205911D01*
X390054Y206016D01*
X390031Y206035D01*
X390012Y206058D01*
X389909Y206136D01*
X389809Y206219D01*
X389782Y206231D01*
X389758Y206249D01*
X389614Y206320D01*
X387801Y207071D01*
X384871Y210001D01*
X383285Y213828D01*
X383285Y217972D01*
X384871Y221799D01*
X386964Y223893D01*
X387049Y224002D01*
X387138Y224109D01*
X387146Y224128D01*
X387159Y224144D01*
X387214Y224272D01*
X387273Y224397D01*
X387277Y224417D01*
X387285Y224436D01*
X387307Y224574D01*
X387333Y224710D01*
X387332Y224730D01*
X387335Y224750D01*
X387322Y224889D01*
X387313Y225027D01*
X387307Y225046D01*
X387305Y225066D01*
X387258Y225198D01*
X387215Y225329D01*
X387204Y225347D01*
X387198Y225366D01*
X387120Y225481D01*
X387045Y225598D01*
X387030Y225612D01*
X387019Y225629D01*
X386915Y225721D01*
X386814Y225816D01*
X386796Y225826D01*
X386781Y225839D01*
X386656Y225903D01*
X386535Y225970D01*
X386515Y225975D01*
X386497Y225984D01*
X386362Y226014D01*
X386227Y226049D01*
X386199Y226051D01*
X386187Y226054D01*
X386167Y226053D01*
X386066Y226059D01*
X375934Y226059D01*
X375796Y226042D01*
X375657Y226029D01*
X375638Y226022D01*
X375618Y226019D01*
X375489Y225968D01*
X375358Y225921D01*
X375341Y225910D01*
X375322Y225902D01*
X375210Y225821D01*
X375095Y225743D01*
X375081Y225727D01*
X375065Y225716D01*
X374976Y225608D01*
X374884Y225504D01*
X374875Y225486D01*
X374862Y225471D01*
X374803Y225344D01*
X374740Y225221D01*
X374735Y225201D01*
X374727Y225183D01*
X374701Y225047D01*
X374670Y224911D01*
X374671Y224890D01*
X374667Y224871D01*
X374676Y224732D01*
X374680Y224593D01*
X374685Y224573D01*
X374687Y224553D01*
X374729Y224421D01*
X374768Y224287D01*
X374778Y224270D01*
X374785Y224251D01*
X374859Y224133D01*
X374930Y224013D01*
X374948Y223992D01*
X374955Y223982D01*
X374970Y223968D01*
X375036Y223893D01*
X377129Y221799D01*
X378715Y217972D01*
X378715Y213828D01*
X377129Y210001D01*
X374199Y207071D01*
X370372Y205485D01*
X366228Y205485D01*
X362401Y207071D01*
X359471Y210001D01*
X357885Y213828D01*
X357885Y217972D01*
X359471Y221799D01*
X361564Y223893D01*
X361649Y224002D01*
X361738Y224109D01*
X361746Y224128D01*
X361759Y224144D01*
X361814Y224272D01*
X361873Y224397D01*
X361877Y224417D01*
X361885Y224436D01*
X361907Y224574D01*
X361933Y224710D01*
X361932Y224730D01*
X361935Y224750D01*
X361922Y224889D01*
X361913Y225027D01*
X361907Y225046D01*
X361905Y225066D01*
X361858Y225198D01*
X361815Y225329D01*
X361804Y225347D01*
X361798Y225366D01*
X361720Y225481D01*
X361645Y225598D01*
X361630Y225612D01*
X361619Y225629D01*
X361515Y225721D01*
X361414Y225816D01*
X361396Y225826D01*
X361381Y225839D01*
X361256Y225903D01*
X361135Y225970D01*
X361115Y225975D01*
X361097Y225984D01*
X360962Y226014D01*
X360827Y226049D01*
X360799Y226051D01*
X360787Y226054D01*
X360767Y226053D01*
X360666Y226059D01*
X350534Y226059D01*
X350396Y226042D01*
X350257Y226029D01*
X350238Y226022D01*
X350218Y226019D01*
X350089Y225968D01*
X349958Y225921D01*
X349941Y225910D01*
X349922Y225902D01*
X349810Y225821D01*
X349695Y225743D01*
X349681Y225727D01*
X349665Y225716D01*
X349576Y225608D01*
X349484Y225504D01*
X349475Y225486D01*
X349462Y225471D01*
X349403Y225344D01*
X349340Y225221D01*
X349335Y225201D01*
X349327Y225183D01*
X349301Y225047D01*
X349270Y224911D01*
X349271Y224890D01*
X349267Y224871D01*
X349276Y224732D01*
X349280Y224593D01*
X349285Y224573D01*
X349287Y224553D01*
X349329Y224421D01*
X349368Y224287D01*
X349378Y224270D01*
X349385Y224251D01*
X349459Y224133D01*
X349530Y224013D01*
X349548Y223992D01*
X349555Y223982D01*
X349570Y223968D01*
X349636Y223893D01*
X351729Y221799D01*
X353315Y217972D01*
X353315Y213828D01*
X351729Y210001D01*
X348799Y207071D01*
X344972Y205485D01*
X340828Y205485D01*
X339015Y206236D01*
X338987Y206244D01*
X338960Y206258D01*
X338834Y206286D01*
X338708Y206320D01*
X338679Y206321D01*
X338650Y206327D01*
X338520Y206323D01*
X338390Y206325D01*
X338362Y206318D01*
X338332Y206318D01*
X338208Y206281D01*
X338081Y206251D01*
X338055Y206237D01*
X338027Y206229D01*
X337915Y206163D01*
X337800Y206102D01*
X337778Y206083D01*
X337753Y206068D01*
X337632Y205961D01*
X317598Y185927D01*
X270544Y185927D01*
X270446Y185915D01*
X270347Y185912D01*
X270288Y185895D01*
X270228Y185887D01*
X270136Y185851D01*
X270041Y185823D01*
X269989Y185793D01*
X269933Y185770D01*
X269853Y185712D01*
X269767Y185662D01*
X269692Y185596D01*
X269675Y185584D01*
X269668Y185574D01*
X269646Y185556D01*
X267829Y183738D01*
X265449Y182752D01*
X264403Y182752D01*
X264265Y182735D01*
X264126Y182722D01*
X264107Y182715D01*
X264087Y182712D01*
X263958Y182661D01*
X263827Y182614D01*
X263810Y182603D01*
X263792Y182595D01*
X263679Y182514D01*
X263564Y182436D01*
X263551Y182420D01*
X263534Y182409D01*
X263445Y182301D01*
X263353Y182197D01*
X263344Y182179D01*
X263331Y182164D01*
X263272Y182038D01*
X263209Y181914D01*
X263204Y181894D01*
X263196Y181876D01*
X263170Y181740D01*
X263139Y181604D01*
X263140Y181583D01*
X263136Y181564D01*
X263145Y181425D01*
X263149Y181286D01*
X263155Y181266D01*
X263156Y181246D01*
X263199Y181114D01*
X263237Y180980D01*
X263248Y180963D01*
X263254Y180944D01*
X263328Y180826D01*
X263399Y180706D01*
X263417Y180685D01*
X263424Y180675D01*
X263439Y180661D01*
X263505Y180586D01*
X267696Y176394D01*
X270003Y174088D01*
X270003Y148082D01*
X270018Y147964D01*
X270025Y147845D01*
X270038Y147807D01*
X270043Y147766D01*
X270086Y147656D01*
X270123Y147543D01*
X270145Y147508D01*
X270160Y147471D01*
X270229Y147375D01*
X270293Y147274D01*
X270323Y147246D01*
X270346Y147213D01*
X270438Y147137D01*
X270525Y147056D01*
X270560Y147036D01*
X270591Y147011D01*
X270699Y146960D01*
X270803Y146902D01*
X270843Y146892D01*
X270879Y146875D01*
X270996Y146853D01*
X271111Y146823D01*
X271171Y146819D01*
X271191Y146815D01*
X271212Y146817D01*
X271272Y146813D01*
X291222Y146813D01*
X291360Y146830D01*
X291499Y146843D01*
X291518Y146850D01*
X291538Y146853D01*
X291667Y146904D01*
X291798Y146951D01*
X291815Y146962D01*
X291833Y146970D01*
X291946Y147051D01*
X292061Y147129D01*
X292074Y147145D01*
X292091Y147156D01*
X292180Y147264D01*
X292272Y147368D01*
X292281Y147386D01*
X292294Y147401D01*
X292353Y147527D01*
X292416Y147651D01*
X292421Y147671D01*
X292429Y147689D01*
X292455Y147825D01*
X292486Y147961D01*
X292485Y147982D01*
X292489Y148001D01*
X292480Y148140D01*
X292476Y148279D01*
X292470Y148299D01*
X292469Y148319D01*
X292426Y148451D01*
X292388Y148585D01*
X292377Y148602D01*
X292371Y148621D01*
X292297Y148739D01*
X292226Y148859D01*
X292208Y148880D01*
X292201Y148890D01*
X292186Y148904D01*
X292120Y148979D01*
X289696Y151404D01*
X278637Y162462D01*
X278637Y170146D01*
X278625Y170244D01*
X278622Y170343D01*
X278605Y170402D01*
X278597Y170462D01*
X278561Y170554D01*
X278533Y170649D01*
X278503Y170701D01*
X278480Y170757D01*
X278422Y170837D01*
X278372Y170923D01*
X278306Y170998D01*
X278294Y171015D01*
X278284Y171022D01*
X278266Y171044D01*
X276448Y172861D01*
X275462Y175241D01*
X275462Y177819D01*
X276448Y180199D01*
X278271Y182022D01*
X280651Y183008D01*
X283229Y183008D01*
X285609Y182022D01*
X287432Y180199D01*
X288418Y177819D01*
X288418Y175241D01*
X287432Y172861D01*
X285614Y171044D01*
X285554Y170965D01*
X285486Y170893D01*
X285457Y170840D01*
X285420Y170792D01*
X285380Y170701D01*
X285332Y170615D01*
X285317Y170556D01*
X285293Y170500D01*
X285278Y170402D01*
X285253Y170307D01*
X285247Y170207D01*
X285243Y170186D01*
X285245Y170174D01*
X285243Y170146D01*
X285243Y165724D01*
X285255Y165626D01*
X285258Y165527D01*
X285275Y165468D01*
X285283Y165408D01*
X285319Y165316D01*
X285347Y165221D01*
X285377Y165169D01*
X285400Y165113D01*
X285458Y165033D01*
X285508Y164947D01*
X285574Y164872D01*
X285586Y164855D01*
X285596Y164847D01*
X285614Y164826D01*
X294366Y156074D01*
X294445Y156014D01*
X294517Y155946D01*
X294570Y155917D01*
X294618Y155880D01*
X294709Y155840D01*
X294795Y155792D01*
X294854Y155777D01*
X294909Y155753D01*
X295007Y155738D01*
X295103Y155713D01*
X295203Y155707D01*
X295224Y155703D01*
X295236Y155705D01*
X295264Y155703D01*
X358238Y155703D01*
X363983Y149958D01*
X363983Y146084D01*
X363995Y145986D01*
X363998Y145887D01*
X364015Y145828D01*
X364023Y145768D01*
X364059Y145676D01*
X364087Y145581D01*
X364117Y145529D01*
X364140Y145473D01*
X364198Y145393D01*
X364248Y145307D01*
X364314Y145232D01*
X364326Y145215D01*
X364336Y145208D01*
X364354Y145186D01*
X366172Y143369D01*
X367158Y140989D01*
X367158Y138411D01*
X366172Y136031D01*
X364349Y134208D01*
X361969Y133222D01*
X359391Y133222D01*
X357011Y134208D01*
X355188Y136031D01*
X354297Y138184D01*
X354272Y138227D01*
X354255Y138274D01*
X354194Y138365D01*
X354139Y138460D01*
X354104Y138496D01*
X354077Y138537D01*
X353994Y138610D01*
X353918Y138688D01*
X353875Y138714D01*
X353838Y138747D01*
X353740Y138797D01*
X353647Y138855D01*
X353599Y138869D01*
X353555Y138892D01*
X353448Y138916D01*
X353343Y138948D01*
X353293Y138951D01*
X353245Y138962D01*
X353135Y138958D01*
X353025Y138963D01*
X352977Y138953D01*
X352927Y138952D01*
X352821Y138921D01*
X352714Y138899D01*
X352669Y138877D01*
X352621Y138864D01*
X352527Y138808D01*
X352428Y138759D01*
X352390Y138727D01*
X352347Y138702D01*
X352226Y138596D01*
X351649Y138018D01*
X349269Y137032D01*
X346691Y137032D01*
X344311Y138018D01*
X342494Y139836D01*
X342415Y139896D01*
X342343Y139964D01*
X342290Y139993D01*
X342242Y140030D01*
X342151Y140070D01*
X342065Y140118D01*
X342006Y140133D01*
X341950Y140157D01*
X341852Y140172D01*
X341757Y140197D01*
X341657Y140203D01*
X341636Y140207D01*
X341624Y140205D01*
X341596Y140207D01*
X268594Y140207D01*
X268496Y140195D01*
X268397Y140192D01*
X268338Y140175D01*
X268278Y140167D01*
X268186Y140131D01*
X268091Y140103D01*
X268039Y140073D01*
X267983Y140050D01*
X267903Y139992D01*
X267817Y139942D01*
X267742Y139876D01*
X267725Y139864D01*
X267717Y139854D01*
X267696Y139836D01*
X251959Y124099D01*
X251899Y124020D01*
X251831Y123948D01*
X251802Y123895D01*
X251765Y123847D01*
X251725Y123756D01*
X251677Y123670D01*
X251662Y123611D01*
X251638Y123556D01*
X251623Y123458D01*
X251598Y123362D01*
X251592Y123262D01*
X251588Y123241D01*
X251590Y123229D01*
X251588Y123201D01*
X251588Y121901D01*
X250602Y119521D01*
X248779Y117698D01*
X246399Y116712D01*
X243821Y116712D01*
X241278Y117766D01*
X241230Y117779D01*
X241185Y117800D01*
X241077Y117821D01*
X240971Y117850D01*
X240921Y117851D01*
X240872Y117860D01*
X240763Y117853D01*
X240653Y117855D01*
X240605Y117843D01*
X240555Y117840D01*
X240451Y117806D01*
X240344Y117781D01*
X240300Y117758D01*
X240253Y117742D01*
X240160Y117683D01*
X240063Y117632D01*
X240026Y117599D01*
X239984Y117572D01*
X239909Y117492D01*
X239827Y117418D01*
X239800Y117377D01*
X239766Y117340D01*
X239713Y117244D01*
X239653Y117152D01*
X239636Y117105D01*
X239612Y117062D01*
X239585Y116956D01*
X239549Y116852D01*
X239545Y116802D01*
X239533Y116754D01*
X239523Y116593D01*
X239523Y110617D01*
X239538Y110499D01*
X239545Y110380D01*
X239558Y110342D01*
X239563Y110301D01*
X239606Y110191D01*
X239643Y110078D01*
X239665Y110043D01*
X239680Y110006D01*
X239749Y109910D01*
X239813Y109809D01*
X239843Y109781D01*
X239866Y109748D01*
X239958Y109672D01*
X240045Y109591D01*
X240080Y109571D01*
X240111Y109546D01*
X240219Y109495D01*
X240323Y109437D01*
X240363Y109427D01*
X240399Y109410D01*
X240516Y109388D01*
X240631Y109358D01*
X240691Y109354D01*
X240711Y109350D01*
X240732Y109352D01*
X240792Y109348D01*
X242589Y109348D01*
X244969Y108362D01*
X246792Y106539D01*
X247778Y104159D01*
X247778Y101581D01*
X246792Y99201D01*
X244969Y97378D01*
X242589Y96392D01*
X240011Y96392D01*
X237631Y97378D01*
X235808Y99201D01*
X234822Y101581D01*
X234822Y104151D01*
X234810Y104249D01*
X234807Y104348D01*
X234790Y104407D01*
X234782Y104467D01*
X234746Y104559D01*
X234718Y104654D01*
X234688Y104706D01*
X234665Y104762D01*
X234607Y104842D01*
X234557Y104928D01*
X234491Y105003D01*
X234479Y105020D01*
X234469Y105028D01*
X234451Y105049D01*
X232917Y106582D01*
X232917Y139798D01*
X236875Y143756D01*
X236960Y143865D01*
X237049Y143972D01*
X237057Y143991D01*
X237070Y144007D01*
X237125Y144135D01*
X237184Y144260D01*
X237188Y144280D01*
X237196Y144299D01*
X237218Y144437D01*
X237244Y144573D01*
X237243Y144593D01*
X237246Y144613D01*
X237233Y144752D01*
X237224Y144890D01*
X237218Y144909D01*
X237216Y144929D01*
X237169Y145061D01*
X237126Y145192D01*
X237115Y145210D01*
X237108Y145229D01*
X237030Y145344D01*
X236956Y145461D01*
X236941Y145475D01*
X236930Y145492D01*
X236826Y145584D01*
X236724Y145679D01*
X236707Y145689D01*
X236691Y145702D01*
X236567Y145766D01*
X236446Y145833D01*
X236426Y145838D01*
X236408Y145847D01*
X236354Y145859D01*
X233821Y146908D01*
X231998Y148731D01*
X231012Y151111D01*
X231012Y153689D01*
X231998Y156069D01*
X233782Y157853D01*
X233855Y157947D01*
X233933Y158036D01*
X233952Y158072D01*
X233977Y158104D01*
X234024Y158213D01*
X234078Y158319D01*
X234087Y158358D01*
X234103Y158396D01*
X234122Y158513D01*
X234148Y158629D01*
X234146Y158670D01*
X234153Y158710D01*
X234142Y158828D01*
X234138Y158947D01*
X234127Y158986D01*
X234123Y159026D01*
X234083Y159138D01*
X234050Y159253D01*
X234029Y159288D01*
X234015Y159326D01*
X233948Y159424D01*
X233888Y159527D01*
X233848Y159572D01*
X233837Y159589D01*
X233821Y159602D01*
X233782Y159648D01*
X232004Y161426D01*
X231925Y161486D01*
X231853Y161554D01*
X231800Y161583D01*
X231752Y161620D01*
X231661Y161660D01*
X231575Y161708D01*
X231516Y161723D01*
X231460Y161747D01*
X231363Y161762D01*
X231267Y161787D01*
X231167Y161793D01*
X231146Y161797D01*
X231134Y161795D01*
X231106Y161797D01*
X215254Y161797D01*
X215156Y161785D01*
X215057Y161782D01*
X214998Y161765D01*
X214938Y161757D01*
X214846Y161721D01*
X214751Y161693D01*
X214699Y161663D01*
X214643Y161640D01*
X214563Y161582D01*
X214477Y161532D01*
X214402Y161466D01*
X214385Y161454D01*
X214377Y161444D01*
X214356Y161426D01*
X203298Y150367D01*
X200562Y150367D01*
X198256Y152674D01*
X144968Y205961D01*
X144945Y205979D01*
X144926Y206002D01*
X144820Y206076D01*
X144717Y206156D01*
X144690Y206168D01*
X144666Y206185D01*
X144544Y206231D01*
X144425Y206282D01*
X144396Y206287D01*
X144368Y206298D01*
X144239Y206312D01*
X144111Y206332D01*
X144081Y206330D01*
X144052Y206333D01*
X143924Y206315D01*
X143794Y206303D01*
X143766Y206293D01*
X143737Y206288D01*
X143585Y206236D01*
X141772Y205485D01*
X137628Y205485D01*
X133801Y207071D01*
X130871Y210001D01*
X129285Y213828D01*
X129285Y217972D01*
X130871Y221799D01*
X132964Y223893D01*
X133049Y224002D01*
X133138Y224109D01*
X133146Y224128D01*
X133159Y224144D01*
X133214Y224272D01*
X133273Y224397D01*
X133277Y224417D01*
X133285Y224436D01*
X133307Y224574D01*
X133333Y224710D01*
X133332Y224730D01*
X133335Y224750D01*
X133322Y224889D01*
X133313Y225027D01*
X133307Y225046D01*
X133305Y225066D01*
X133258Y225198D01*
X133215Y225329D01*
X133204Y225347D01*
X133198Y225366D01*
X133120Y225481D01*
X133045Y225598D01*
X133030Y225612D01*
X133019Y225629D01*
X132915Y225721D01*
X132814Y225816D01*
X132796Y225826D01*
X132781Y225839D01*
X132656Y225903D01*
X132535Y225970D01*
X132515Y225975D01*
X132497Y225984D01*
X132362Y226014D01*
X132227Y226049D01*
X132199Y226051D01*
X132187Y226054D01*
X132167Y226053D01*
X132066Y226059D01*
X121934Y226059D01*
X121796Y226042D01*
X121657Y226029D01*
X121638Y226022D01*
X121618Y226019D01*
X121489Y225968D01*
X121358Y225921D01*
X121341Y225910D01*
X121322Y225902D01*
X121210Y225821D01*
X121095Y225743D01*
X121081Y225727D01*
X121065Y225716D01*
X120976Y225608D01*
X120884Y225504D01*
X120875Y225486D01*
X120862Y225471D01*
X120803Y225344D01*
X120740Y225221D01*
X120735Y225201D01*
X120727Y225183D01*
X120701Y225047D01*
X120670Y224911D01*
X120671Y224890D01*
X120667Y224871D01*
X120676Y224732D01*
X120680Y224593D01*
X120685Y224573D01*
X120687Y224553D01*
X120729Y224421D01*
X120768Y224287D01*
X120778Y224270D01*
X120785Y224251D01*
X120859Y224133D01*
X120930Y224013D01*
X120948Y223992D01*
X120955Y223982D01*
X120970Y223968D01*
X121036Y223893D01*
X123129Y221799D01*
X124715Y217972D01*
X124715Y213828D01*
X123129Y210001D01*
X120199Y207071D01*
X116372Y205485D01*
X112228Y205485D01*
X111177Y205921D01*
X111149Y205928D01*
X111122Y205942D01*
X110996Y205970D01*
X110870Y206005D01*
X110841Y206005D01*
X110812Y206012D01*
X110682Y206008D01*
X110552Y206010D01*
X110524Y206003D01*
X110494Y206002D01*
X110370Y205966D01*
X110243Y205936D01*
X110217Y205922D01*
X110189Y205914D01*
X110077Y205848D01*
X109962Y205787D01*
X109940Y205767D01*
X109915Y205752D01*
X109794Y205646D01*
X78096Y173948D01*
X78036Y173870D01*
X77968Y173798D01*
X77939Y173745D01*
X77902Y173697D01*
X77862Y173606D01*
X77814Y173519D01*
X77799Y173461D01*
X77775Y173405D01*
X77760Y173307D01*
X77735Y173211D01*
X77729Y173111D01*
X77725Y173091D01*
X77727Y173079D01*
X77725Y173051D01*
X77725Y151672D01*
X77737Y151574D01*
X77740Y151475D01*
X77757Y151416D01*
X77765Y151356D01*
X77801Y151264D01*
X77829Y151169D01*
X77859Y151117D01*
X77882Y151061D01*
X77940Y150981D01*
X77990Y150895D01*
X78056Y150820D01*
X78068Y150803D01*
X78078Y150796D01*
X78096Y150774D01*
X79152Y149719D01*
X80138Y147339D01*
X80138Y144761D01*
X79152Y142381D01*
X77622Y140851D01*
X77537Y140742D01*
X77448Y140635D01*
X77440Y140616D01*
X77427Y140600D01*
X77372Y140472D01*
X77313Y140347D01*
X77309Y140327D01*
X77301Y140308D01*
X77279Y140170D01*
X77253Y140034D01*
X77254Y140014D01*
X77251Y139994D01*
X77264Y139855D01*
X77273Y139717D01*
X77279Y139698D01*
X77281Y139678D01*
X77328Y139546D01*
X77371Y139415D01*
X77382Y139397D01*
X77389Y139378D01*
X77467Y139263D01*
X77541Y139146D01*
X77556Y139132D01*
X77567Y139115D01*
X77672Y139023D01*
X77773Y138928D01*
X77790Y138918D01*
X77806Y138905D01*
X77930Y138841D01*
X78051Y138774D01*
X78071Y138769D01*
X78089Y138760D01*
X78225Y138730D01*
X78359Y138695D01*
X78387Y138693D01*
X78399Y138690D01*
X78420Y138691D01*
X78520Y138685D01*
X96934Y138685D01*
X99686Y135932D01*
X99940Y135678D01*
X100050Y135593D01*
X100157Y135504D01*
X100176Y135495D01*
X100192Y135483D01*
X100319Y135428D01*
X100445Y135368D01*
X100465Y135365D01*
X100484Y135357D01*
X100621Y135335D01*
X100758Y135309D01*
X100778Y135310D01*
X100798Y135307D01*
X100936Y135320D01*
X101075Y135328D01*
X101094Y135335D01*
X101114Y135337D01*
X101245Y135384D01*
X101377Y135426D01*
X101395Y135437D01*
X101414Y135444D01*
X101529Y135522D01*
X101646Y135597D01*
X101660Y135611D01*
X101677Y135623D01*
X101769Y135727D01*
X101864Y135828D01*
X101874Y135846D01*
X101887Y135861D01*
X101950Y135985D01*
X102018Y136107D01*
X102023Y136126D01*
X102032Y136144D01*
X102062Y136280D01*
X102097Y136415D01*
X102099Y136443D01*
X102102Y136455D01*
X102101Y136475D01*
X102107Y136575D01*
X102107Y148688D01*
X111662Y158243D01*
X129638Y158243D01*
X150623Y137258D01*
X150623Y38227D01*
X150638Y38109D01*
X150645Y37990D01*
X150658Y37952D01*
X150663Y37911D01*
X150706Y37801D01*
X150743Y37688D01*
X150765Y37653D01*
X150780Y37616D01*
X150849Y37520D01*
X150913Y37419D01*
X150943Y37391D01*
X150966Y37358D01*
X151058Y37282D01*
X151145Y37201D01*
X151180Y37181D01*
X151211Y37156D01*
X151319Y37105D01*
X151423Y37047D01*
X151463Y37037D01*
X151499Y37020D01*
X151616Y36998D01*
X151731Y36968D01*
X151791Y36964D01*
X151811Y36960D01*
X151832Y36962D01*
X151892Y36958D01*
X153689Y36958D01*
X156069Y35972D01*
X157892Y34149D01*
X158878Y31769D01*
X158878Y29191D01*
X157892Y26811D01*
X156069Y24988D01*
X153689Y24002D01*
X151111Y24002D01*
X148731Y24988D01*
X146908Y26811D01*
X145922Y29191D01*
X145922Y31761D01*
X145910Y31859D01*
X145907Y31958D01*
X145890Y32017D01*
X145882Y32077D01*
X145846Y32169D01*
X145818Y32264D01*
X145788Y32316D01*
X145765Y32372D01*
X145707Y32452D01*
X145657Y32538D01*
X145591Y32613D01*
X145579Y32630D01*
X145569Y32638D01*
X145551Y32659D01*
X144017Y34192D01*
X144017Y133996D01*
X144005Y134094D01*
X144002Y134193D01*
X143985Y134252D01*
X143977Y134312D01*
X143941Y134404D01*
X143913Y134499D01*
X143883Y134551D01*
X143860Y134607D01*
X143802Y134687D01*
X143752Y134773D01*
X143686Y134848D01*
X143674Y134865D01*
X143664Y134873D01*
X143646Y134894D01*
X127274Y151266D01*
X127195Y151326D01*
X127123Y151394D01*
X127070Y151423D01*
X127022Y151460D01*
X126931Y151500D01*
X126845Y151548D01*
X126786Y151563D01*
X126731Y151587D01*
X126633Y151602D01*
X126537Y151627D01*
X126437Y151633D01*
X126416Y151637D01*
X126404Y151635D01*
X126376Y151637D01*
X114924Y151637D01*
X114826Y151625D01*
X114727Y151622D01*
X114668Y151605D01*
X114608Y151597D01*
X114516Y151561D01*
X114421Y151533D01*
X114369Y151503D01*
X114313Y151480D01*
X114233Y151422D01*
X114147Y151372D01*
X114072Y151306D01*
X114055Y151294D01*
X114047Y151284D01*
X114026Y151266D01*
X109084Y146324D01*
X109024Y146245D01*
X108956Y146173D01*
X108927Y146120D01*
X108890Y146072D01*
X108850Y145981D01*
X108802Y145895D01*
X108787Y145836D01*
X108763Y145781D01*
X108748Y145683D01*
X108723Y145587D01*
X108717Y145487D01*
X108713Y145466D01*
X108715Y145454D01*
X108713Y145426D01*
X108713Y84992D01*
X101464Y77744D01*
X101404Y77665D01*
X101336Y77593D01*
X101307Y77540D01*
X101270Y77492D01*
X101230Y77401D01*
X101182Y77315D01*
X101167Y77256D01*
X101143Y77201D01*
X101128Y77103D01*
X101103Y77007D01*
X101097Y76907D01*
X101093Y76886D01*
X101095Y76874D01*
X101093Y76846D01*
X101093Y54857D01*
X101099Y54807D01*
X101097Y54758D01*
X101119Y54650D01*
X101133Y54541D01*
X101151Y54495D01*
X101161Y54446D01*
X101209Y54348D01*
X101250Y54245D01*
X101279Y54205D01*
X101301Y54161D01*
X101372Y54077D01*
X101436Y53988D01*
X101475Y53956D01*
X101507Y53919D01*
X101597Y53855D01*
X101681Y53785D01*
X101726Y53764D01*
X101767Y53736D01*
X101870Y53697D01*
X101969Y53650D01*
X102018Y53640D01*
X102064Y53623D01*
X102174Y53611D01*
X102281Y53590D01*
X102331Y53593D01*
X102380Y53588D01*
X102489Y53603D01*
X102599Y53610D01*
X102646Y53625D01*
X102695Y53632D01*
X102848Y53684D01*
X105391Y54738D01*
X107969Y54738D01*
X110349Y53752D01*
X110608Y53492D01*
X110718Y53407D01*
X110825Y53318D01*
X110844Y53310D01*
X110860Y53297D01*
X110987Y53242D01*
X111113Y53183D01*
X111133Y53179D01*
X111152Y53171D01*
X111289Y53149D01*
X111426Y53123D01*
X111446Y53124D01*
X111466Y53121D01*
X111605Y53134D01*
X111743Y53143D01*
X111762Y53149D01*
X111782Y53151D01*
X111914Y53198D01*
X112045Y53241D01*
X112062Y53252D01*
X112082Y53259D01*
X112197Y53337D01*
X112314Y53411D01*
X112328Y53426D01*
X112345Y53437D01*
X112437Y53541D01*
X112532Y53643D01*
X112542Y53660D01*
X112555Y53676D01*
X112619Y53800D01*
X112686Y53921D01*
X112691Y53941D01*
X112700Y53959D01*
X112730Y54095D01*
X112765Y54229D01*
X112767Y54257D01*
X112770Y54269D01*
X112769Y54290D01*
X112775Y54390D01*
X112775Y72721D01*
X112763Y72819D01*
X112760Y72918D01*
X112743Y72976D01*
X112735Y73036D01*
X112699Y73128D01*
X112671Y73223D01*
X112641Y73275D01*
X112618Y73332D01*
X112560Y73412D01*
X112510Y73497D01*
X112444Y73573D01*
X112432Y73589D01*
X112422Y73597D01*
X112404Y73618D01*
X111505Y74516D01*
X111505Y132494D01*
X116341Y137329D01*
X116401Y137407D01*
X116469Y137479D01*
X116498Y137532D01*
X116535Y137580D01*
X116575Y137671D01*
X116623Y137758D01*
X116638Y137816D01*
X116662Y137872D01*
X116677Y137970D01*
X116702Y138066D01*
X116708Y138166D01*
X116712Y138186D01*
X116710Y138198D01*
X116712Y138226D01*
X116712Y139719D01*
X117698Y142099D01*
X119521Y143922D01*
X121901Y144908D01*
X124479Y144908D01*
X126859Y143922D01*
X128682Y142099D01*
X129668Y139719D01*
X129668Y137141D01*
X128682Y134761D01*
X126859Y132938D01*
X124479Y131952D01*
X122986Y131952D01*
X122888Y131940D01*
X122789Y131937D01*
X122731Y131920D01*
X122671Y131912D01*
X122579Y131876D01*
X122484Y131848D01*
X122432Y131818D01*
X122375Y131795D01*
X122295Y131737D01*
X122210Y131687D01*
X122134Y131621D01*
X122118Y131609D01*
X122110Y131599D01*
X122089Y131581D01*
X120006Y129498D01*
X119946Y129420D01*
X119878Y129348D01*
X119849Y129295D01*
X119812Y129247D01*
X119772Y129156D01*
X119724Y129069D01*
X119709Y129011D01*
X119685Y128955D01*
X119670Y128857D01*
X119645Y128761D01*
X119639Y128661D01*
X119635Y128641D01*
X119637Y128629D01*
X119635Y128601D01*
X119635Y109000D01*
X119652Y108862D01*
X119665Y108723D01*
X119672Y108704D01*
X119675Y108684D01*
X119726Y108555D01*
X119773Y108424D01*
X119784Y108407D01*
X119792Y108389D01*
X119873Y108276D01*
X119951Y108161D01*
X119967Y108148D01*
X119978Y108131D01*
X120086Y108042D01*
X120190Y107951D01*
X120208Y107941D01*
X120223Y107928D01*
X120349Y107869D01*
X120473Y107806D01*
X120493Y107802D01*
X120511Y107793D01*
X120648Y107767D01*
X120783Y107736D01*
X120804Y107737D01*
X120823Y107733D01*
X120962Y107742D01*
X121101Y107746D01*
X121121Y107752D01*
X121141Y107753D01*
X121273Y107796D01*
X121407Y107834D01*
X121424Y107845D01*
X121443Y107851D01*
X121561Y107926D01*
X121681Y107996D01*
X121702Y108015D01*
X121712Y108021D01*
X121726Y108036D01*
X121801Y108102D01*
X123331Y109632D01*
X125711Y110618D01*
X128289Y110618D01*
X130669Y109632D01*
X132492Y107809D01*
X133478Y105429D01*
X133478Y105399D01*
X133490Y105301D01*
X133493Y105202D01*
X133510Y105143D01*
X133518Y105083D01*
X133554Y104991D01*
X133582Y104896D01*
X133612Y104844D01*
X133635Y104788D01*
X133693Y104708D01*
X133743Y104622D01*
X133809Y104547D01*
X133821Y104530D01*
X133831Y104522D01*
X133849Y104501D01*
X134113Y104238D01*
X134113Y43082D01*
X117974Y26944D01*
X117914Y26865D01*
X117846Y26793D01*
X117817Y26740D01*
X117780Y26692D01*
X117740Y26601D01*
X117692Y26515D01*
X117677Y26456D01*
X117653Y26401D01*
X117638Y26303D01*
X117613Y26207D01*
X117607Y26107D01*
X117603Y26086D01*
X117605Y26074D01*
X117603Y26046D01*
X117603Y23453D01*
X117606Y23424D01*
X117604Y23394D01*
X117626Y23266D01*
X117643Y23137D01*
X117653Y23110D01*
X117658Y23081D01*
X117712Y22962D01*
X117760Y22842D01*
X117777Y22818D01*
X117789Y22791D01*
X117870Y22689D01*
X117946Y22584D01*
X117969Y22565D01*
X117988Y22542D01*
X118091Y22464D01*
X118191Y22381D01*
X118218Y22369D01*
X118242Y22351D01*
X118386Y22280D01*
X120199Y21529D01*
X123129Y18599D01*
X124715Y14772D01*
X124715Y10628D01*
X123129Y6801D01*
X121036Y4707D01*
X120951Y4598D01*
X120862Y4491D01*
X120854Y4472D01*
X120841Y4456D01*
X120786Y4328D01*
X120727Y4203D01*
X120723Y4183D01*
X120715Y4164D01*
X120693Y4026D01*
X120667Y3890D01*
X120668Y3870D01*
X120665Y3850D01*
X120678Y3711D01*
X120687Y3573D01*
X120693Y3554D01*
X120695Y3534D01*
X120742Y3402D01*
X120785Y3271D01*
X120796Y3253D01*
X120802Y3234D01*
X120880Y3119D01*
X120955Y3002D01*
X120970Y2988D01*
X120981Y2971D01*
X121085Y2879D01*
X121186Y2784D01*
X121204Y2774D01*
X121219Y2761D01*
X121344Y2697D01*
X121465Y2630D01*
X121485Y2625D01*
X121503Y2616D01*
X121638Y2586D01*
X121773Y2551D01*
X121801Y2549D01*
X121813Y2546D01*
X121833Y2547D01*
X121934Y2541D01*
X131348Y2541D01*
X131486Y2558D01*
G37*
G36*
X386204Y2558D02*
X386204Y2558D01*
X386343Y2571D01*
X386362Y2578D01*
X386382Y2581D01*
X386511Y2632D01*
X386642Y2679D01*
X386659Y2690D01*
X386678Y2698D01*
X386790Y2779D01*
X386905Y2857D01*
X386919Y2873D01*
X386935Y2884D01*
X387024Y2992D01*
X387116Y3096D01*
X387125Y3114D01*
X387138Y3129D01*
X387197Y3255D01*
X387260Y3379D01*
X387265Y3399D01*
X387273Y3417D01*
X387299Y3553D01*
X387330Y3689D01*
X387329Y3710D01*
X387333Y3729D01*
X387324Y3868D01*
X387320Y4007D01*
X387315Y4027D01*
X387313Y4047D01*
X387271Y4179D01*
X387232Y4313D01*
X387222Y4330D01*
X387215Y4349D01*
X387141Y4467D01*
X387070Y4587D01*
X387052Y4608D01*
X387045Y4618D01*
X387030Y4632D01*
X386964Y4707D01*
X384871Y6801D01*
X383285Y10628D01*
X383285Y14772D01*
X384871Y18599D01*
X387801Y21529D01*
X391628Y23115D01*
X395772Y23115D01*
X399599Y21529D01*
X402529Y18599D01*
X404115Y14772D01*
X404115Y10628D01*
X402529Y6801D01*
X400436Y4707D01*
X400351Y4598D01*
X400262Y4491D01*
X400254Y4472D01*
X400241Y4456D01*
X400186Y4328D01*
X400127Y4203D01*
X400123Y4183D01*
X400115Y4164D01*
X400093Y4026D01*
X400067Y3890D01*
X400068Y3870D01*
X400065Y3850D01*
X400078Y3711D01*
X400087Y3573D01*
X400093Y3554D01*
X400095Y3534D01*
X400142Y3402D01*
X400185Y3271D01*
X400196Y3253D01*
X400202Y3234D01*
X400280Y3119D01*
X400355Y3002D01*
X400370Y2988D01*
X400381Y2971D01*
X400485Y2879D01*
X400586Y2784D01*
X400604Y2774D01*
X400619Y2761D01*
X400744Y2697D01*
X400865Y2630D01*
X400885Y2625D01*
X400903Y2616D01*
X401038Y2586D01*
X401173Y2551D01*
X401201Y2549D01*
X401213Y2546D01*
X401233Y2547D01*
X401334Y2541D01*
X411466Y2541D01*
X411604Y2558D01*
X411743Y2571D01*
X411762Y2578D01*
X411782Y2581D01*
X411911Y2632D01*
X412042Y2679D01*
X412059Y2690D01*
X412078Y2698D01*
X412190Y2779D01*
X412305Y2857D01*
X412319Y2873D01*
X412335Y2884D01*
X412424Y2992D01*
X412516Y3096D01*
X412525Y3114D01*
X412538Y3129D01*
X412597Y3255D01*
X412660Y3379D01*
X412665Y3399D01*
X412673Y3417D01*
X412699Y3553D01*
X412730Y3689D01*
X412729Y3710D01*
X412733Y3729D01*
X412724Y3868D01*
X412720Y4007D01*
X412715Y4027D01*
X412713Y4047D01*
X412671Y4179D01*
X412632Y4313D01*
X412622Y4330D01*
X412615Y4349D01*
X412541Y4467D01*
X412470Y4587D01*
X412452Y4608D01*
X412445Y4618D01*
X412430Y4632D01*
X412364Y4707D01*
X410271Y6801D01*
X408685Y10628D01*
X408685Y14772D01*
X410271Y18599D01*
X413201Y21529D01*
X417028Y23115D01*
X421172Y23115D01*
X424999Y21529D01*
X427929Y18599D01*
X429515Y14772D01*
X429515Y10628D01*
X427929Y6801D01*
X425836Y4707D01*
X425751Y4598D01*
X425662Y4491D01*
X425654Y4472D01*
X425641Y4456D01*
X425586Y4328D01*
X425527Y4203D01*
X425523Y4183D01*
X425515Y4164D01*
X425493Y4026D01*
X425467Y3890D01*
X425468Y3870D01*
X425465Y3850D01*
X425478Y3711D01*
X425487Y3573D01*
X425493Y3554D01*
X425495Y3534D01*
X425542Y3402D01*
X425585Y3271D01*
X425596Y3253D01*
X425602Y3234D01*
X425680Y3119D01*
X425755Y3002D01*
X425770Y2988D01*
X425781Y2971D01*
X425885Y2879D01*
X425986Y2784D01*
X426004Y2774D01*
X426019Y2761D01*
X426144Y2697D01*
X426265Y2630D01*
X426285Y2625D01*
X426303Y2616D01*
X426438Y2586D01*
X426573Y2551D01*
X426601Y2549D01*
X426613Y2546D01*
X426633Y2547D01*
X426734Y2541D01*
X436866Y2541D01*
X437004Y2558D01*
X437143Y2571D01*
X437162Y2578D01*
X437182Y2581D01*
X437311Y2632D01*
X437442Y2679D01*
X437459Y2690D01*
X437478Y2698D01*
X437590Y2779D01*
X437705Y2857D01*
X437719Y2873D01*
X437735Y2884D01*
X437824Y2992D01*
X437916Y3096D01*
X437925Y3114D01*
X437938Y3129D01*
X437997Y3255D01*
X438060Y3379D01*
X438065Y3399D01*
X438073Y3417D01*
X438099Y3553D01*
X438130Y3689D01*
X438129Y3710D01*
X438133Y3729D01*
X438124Y3868D01*
X438120Y4007D01*
X438115Y4027D01*
X438113Y4047D01*
X438071Y4179D01*
X438032Y4313D01*
X438022Y4330D01*
X438015Y4349D01*
X437941Y4467D01*
X437870Y4587D01*
X437852Y4608D01*
X437845Y4618D01*
X437830Y4632D01*
X437764Y4707D01*
X435671Y6801D01*
X434085Y10628D01*
X434085Y14772D01*
X435671Y18599D01*
X438601Y21529D01*
X442428Y23115D01*
X446572Y23115D01*
X450399Y21529D01*
X453329Y18599D01*
X454915Y14772D01*
X454915Y10628D01*
X453329Y6801D01*
X451236Y4707D01*
X451151Y4598D01*
X451062Y4491D01*
X451054Y4472D01*
X451041Y4456D01*
X450986Y4328D01*
X450927Y4203D01*
X450923Y4183D01*
X450915Y4164D01*
X450893Y4026D01*
X450867Y3890D01*
X450868Y3870D01*
X450865Y3850D01*
X450878Y3711D01*
X450887Y3573D01*
X450893Y3554D01*
X450895Y3534D01*
X450942Y3402D01*
X450985Y3271D01*
X450996Y3253D01*
X451002Y3234D01*
X451080Y3119D01*
X451155Y3002D01*
X451170Y2988D01*
X451181Y2971D01*
X451285Y2879D01*
X451386Y2784D01*
X451404Y2774D01*
X451419Y2761D01*
X451544Y2697D01*
X451665Y2630D01*
X451685Y2625D01*
X451703Y2616D01*
X451838Y2586D01*
X451973Y2551D01*
X452001Y2549D01*
X452013Y2546D01*
X452033Y2547D01*
X452134Y2541D01*
X463550Y2541D01*
X463668Y2556D01*
X463787Y2563D01*
X463825Y2576D01*
X463866Y2581D01*
X463976Y2624D01*
X464089Y2661D01*
X464124Y2683D01*
X464161Y2698D01*
X464257Y2767D01*
X464358Y2831D01*
X464386Y2861D01*
X464419Y2884D01*
X464495Y2976D01*
X464576Y3063D01*
X464596Y3098D01*
X464621Y3129D01*
X464672Y3237D01*
X464730Y3341D01*
X464740Y3381D01*
X464757Y3417D01*
X464779Y3534D01*
X464809Y3649D01*
X464813Y3709D01*
X464817Y3729D01*
X464815Y3750D01*
X464819Y3810D01*
X464819Y84337D01*
X464813Y84386D01*
X464815Y84436D01*
X464793Y84543D01*
X464779Y84652D01*
X464761Y84699D01*
X464751Y84747D01*
X464703Y84846D01*
X464662Y84948D01*
X464633Y84988D01*
X464611Y85033D01*
X464540Y85116D01*
X464476Y85205D01*
X464437Y85237D01*
X464405Y85275D01*
X464315Y85338D01*
X464231Y85408D01*
X464186Y85429D01*
X464145Y85458D01*
X464042Y85497D01*
X463943Y85544D01*
X463894Y85553D01*
X463848Y85571D01*
X463738Y85583D01*
X463631Y85603D01*
X463581Y85600D01*
X463532Y85606D01*
X463423Y85590D01*
X463313Y85584D01*
X463266Y85568D01*
X463217Y85561D01*
X463064Y85509D01*
X462461Y85259D01*
X459659Y85259D01*
X457072Y86331D01*
X455091Y88312D01*
X454019Y90899D01*
X454019Y93701D01*
X455091Y96288D01*
X457072Y98269D01*
X459659Y99341D01*
X462461Y99341D01*
X463064Y99091D01*
X463112Y99078D01*
X463157Y99056D01*
X463265Y99036D01*
X463371Y99007D01*
X463421Y99006D01*
X463470Y98997D01*
X463579Y99003D01*
X463689Y99002D01*
X463737Y99013D01*
X463787Y99016D01*
X463891Y99050D01*
X463998Y99076D01*
X464042Y99099D01*
X464089Y99114D01*
X464182Y99173D01*
X464279Y99225D01*
X464316Y99258D01*
X464358Y99285D01*
X464415Y99345D01*
X464419Y99347D01*
X464428Y99358D01*
X464433Y99365D01*
X464515Y99438D01*
X464542Y99480D01*
X464576Y99516D01*
X464612Y99581D01*
X464621Y99592D01*
X464635Y99621D01*
X464689Y99704D01*
X464706Y99751D01*
X464730Y99795D01*
X464745Y99855D01*
X464757Y99880D01*
X464766Y99927D01*
X464793Y100005D01*
X464797Y100055D01*
X464809Y100103D01*
X464814Y100177D01*
X464817Y100192D01*
X464816Y100208D01*
X464819Y100263D01*
X464819Y193758D01*
X464799Y193922D01*
X464780Y194072D01*
X464780Y194073D01*
X464779Y194073D01*
X464722Y194220D01*
X464663Y194368D01*
X464663Y194369D01*
X464662Y194369D01*
X464662Y194370D01*
X464577Y194504D01*
X464208Y195011D01*
X463647Y197649D01*
X463636Y197683D01*
X463631Y197719D01*
X463579Y197871D01*
X462987Y199299D01*
X462987Y200622D01*
X462981Y200674D01*
X462983Y200726D01*
X462960Y200886D01*
X462468Y203200D01*
X462960Y205514D01*
X462964Y205567D01*
X462977Y205617D01*
X462987Y205778D01*
X462987Y207101D01*
X463579Y208529D01*
X463588Y208563D01*
X463604Y208595D01*
X463647Y208751D01*
X464208Y211389D01*
X464577Y211896D01*
X464647Y212024D01*
X464730Y212173D01*
X464730Y212174D01*
X464730Y212175D01*
X464769Y212327D01*
X464809Y212481D01*
X464809Y212482D01*
X464809Y212483D01*
X464809Y212484D01*
X464819Y212642D01*
X464819Y224790D01*
X464804Y224908D01*
X464797Y225027D01*
X464784Y225065D01*
X464779Y225106D01*
X464736Y225216D01*
X464699Y225329D01*
X464677Y225364D01*
X464662Y225401D01*
X464593Y225497D01*
X464529Y225598D01*
X464499Y225626D01*
X464476Y225659D01*
X464384Y225735D01*
X464297Y225816D01*
X464262Y225836D01*
X464231Y225861D01*
X464123Y225912D01*
X464019Y225970D01*
X463979Y225980D01*
X463943Y225997D01*
X463826Y226019D01*
X463711Y226049D01*
X463651Y226053D01*
X463631Y226057D01*
X463610Y226055D01*
X463550Y226059D01*
X452852Y226059D01*
X452714Y226042D01*
X452576Y226029D01*
X452557Y226022D01*
X452536Y226019D01*
X452407Y225968D01*
X452276Y225921D01*
X452260Y225910D01*
X452241Y225902D01*
X452129Y225821D01*
X452013Y225743D01*
X452000Y225727D01*
X451983Y225716D01*
X451895Y225608D01*
X451803Y225504D01*
X451794Y225486D01*
X451781Y225471D01*
X451721Y225344D01*
X451658Y225221D01*
X451654Y225201D01*
X451645Y225183D01*
X451619Y225046D01*
X451589Y224911D01*
X451589Y224890D01*
X451585Y224871D01*
X451594Y224732D01*
X451598Y224593D01*
X451604Y224573D01*
X451605Y224553D01*
X451648Y224421D01*
X451687Y224287D01*
X451697Y224270D01*
X451703Y224251D01*
X451777Y224133D01*
X451848Y224013D01*
X451867Y223992D01*
X451873Y223982D01*
X451888Y223968D01*
X451955Y223893D01*
X452831Y223016D01*
X453842Y221625D01*
X454623Y220093D01*
X455154Y218458D01*
X455163Y218399D01*
X445730Y218399D01*
X445612Y218384D01*
X445493Y218377D01*
X445455Y218364D01*
X445415Y218359D01*
X445304Y218316D01*
X445191Y218279D01*
X445157Y218257D01*
X445119Y218242D01*
X445023Y218173D01*
X444922Y218109D01*
X444894Y218079D01*
X444862Y218056D01*
X444786Y217964D01*
X444704Y217877D01*
X444685Y217842D01*
X444659Y217811D01*
X444608Y217703D01*
X444551Y217599D01*
X444541Y217559D01*
X444523Y217523D01*
X444503Y217416D01*
X444499Y217446D01*
X444455Y217556D01*
X444419Y217669D01*
X444397Y217704D01*
X444382Y217741D01*
X444312Y217837D01*
X444249Y217938D01*
X444219Y217966D01*
X444195Y217999D01*
X444104Y218075D01*
X444017Y218156D01*
X443982Y218176D01*
X443950Y218201D01*
X443843Y218252D01*
X443738Y218310D01*
X443699Y218320D01*
X443663Y218337D01*
X443546Y218359D01*
X443430Y218389D01*
X443370Y218393D01*
X443350Y218397D01*
X443330Y218395D01*
X443270Y218399D01*
X433837Y218399D01*
X433846Y218458D01*
X434377Y220093D01*
X435158Y221625D01*
X436169Y223016D01*
X437045Y223893D01*
X437130Y224001D01*
X437219Y224109D01*
X437228Y224128D01*
X437240Y224144D01*
X437296Y224272D01*
X437355Y224397D01*
X437359Y224417D01*
X437367Y224436D01*
X437389Y224574D01*
X437415Y224710D01*
X437413Y224730D01*
X437417Y224750D01*
X437404Y224889D01*
X437395Y225027D01*
X437389Y225046D01*
X437387Y225066D01*
X437340Y225198D01*
X437297Y225329D01*
X437286Y225347D01*
X437279Y225366D01*
X437201Y225481D01*
X437127Y225598D01*
X437112Y225612D01*
X437101Y225629D01*
X436997Y225721D01*
X436895Y225816D01*
X436877Y225826D01*
X436862Y225839D01*
X436738Y225902D01*
X436617Y225970D01*
X436597Y225975D01*
X436579Y225984D01*
X436443Y226014D01*
X436309Y226049D01*
X436281Y226051D01*
X436269Y226054D01*
X436248Y226053D01*
X436148Y226059D01*
X426734Y226059D01*
X426596Y226042D01*
X426457Y226029D01*
X426438Y226022D01*
X426418Y226019D01*
X426289Y225968D01*
X426158Y225921D01*
X426141Y225910D01*
X426122Y225902D01*
X426010Y225821D01*
X425895Y225743D01*
X425881Y225727D01*
X425865Y225716D01*
X425776Y225608D01*
X425684Y225504D01*
X425675Y225486D01*
X425662Y225471D01*
X425603Y225344D01*
X425540Y225221D01*
X425535Y225201D01*
X425527Y225183D01*
X425501Y225047D01*
X425470Y224911D01*
X425471Y224890D01*
X425467Y224871D01*
X425476Y224732D01*
X425480Y224593D01*
X425485Y224573D01*
X425487Y224553D01*
X425529Y224421D01*
X425568Y224287D01*
X425578Y224270D01*
X425585Y224251D01*
X425659Y224133D01*
X425730Y224013D01*
X425748Y223992D01*
X425755Y223982D01*
X425770Y223968D01*
X425836Y223893D01*
X427929Y221799D01*
X429515Y217972D01*
X429515Y213828D01*
X427929Y210001D01*
X424999Y207071D01*
X423186Y206320D01*
X423161Y206305D01*
X423133Y206296D01*
X423023Y206226D01*
X422910Y206162D01*
X422889Y206142D01*
X422864Y206126D01*
X422775Y206031D01*
X422682Y205941D01*
X422666Y205916D01*
X422646Y205894D01*
X422583Y205780D01*
X422515Y205670D01*
X422507Y205642D01*
X422492Y205616D01*
X422460Y205490D01*
X422422Y205366D01*
X422420Y205336D01*
X422413Y205308D01*
X422403Y205147D01*
X422403Y170082D01*
X372090Y119769D01*
X372005Y119660D01*
X371916Y119553D01*
X371908Y119534D01*
X371895Y119518D01*
X371840Y119390D01*
X371781Y119265D01*
X371777Y119245D01*
X371769Y119226D01*
X371747Y119088D01*
X371721Y118952D01*
X371722Y118932D01*
X371719Y118912D01*
X371732Y118773D01*
X371741Y118635D01*
X371747Y118616D01*
X371749Y118596D01*
X371796Y118464D01*
X371839Y118333D01*
X371850Y118315D01*
X371857Y118296D01*
X371935Y118181D01*
X372009Y118064D01*
X372024Y118050D01*
X372035Y118033D01*
X372139Y117941D01*
X372241Y117846D01*
X372258Y117836D01*
X372274Y117823D01*
X372397Y117759D01*
X372519Y117692D01*
X372539Y117687D01*
X372557Y117678D01*
X372693Y117648D01*
X372827Y117613D01*
X372855Y117611D01*
X372867Y117608D01*
X372888Y117609D01*
X372988Y117603D01*
X379106Y117603D01*
X379204Y117615D01*
X379303Y117618D01*
X379362Y117635D01*
X379422Y117643D01*
X379514Y117679D01*
X379609Y117707D01*
X379661Y117737D01*
X379717Y117760D01*
X379797Y117818D01*
X379883Y117868D01*
X379958Y117934D01*
X379975Y117946D01*
X379983Y117956D01*
X380004Y117974D01*
X384311Y122281D01*
X384371Y122360D01*
X384439Y122432D01*
X384468Y122485D01*
X384505Y122533D01*
X384545Y122624D01*
X384593Y122710D01*
X384608Y122769D01*
X384632Y122824D01*
X384647Y122922D01*
X384672Y123018D01*
X384678Y123118D01*
X384682Y123139D01*
X384680Y123151D01*
X384682Y123179D01*
X384682Y125749D01*
X385668Y128129D01*
X387491Y129952D01*
X389871Y130938D01*
X392449Y130938D01*
X394829Y129952D01*
X396652Y128129D01*
X397638Y125749D01*
X397638Y123171D01*
X396652Y120791D01*
X394829Y118968D01*
X392449Y117982D01*
X390774Y117982D01*
X390705Y117974D01*
X390635Y117975D01*
X390548Y117954D01*
X390459Y117942D01*
X390394Y117917D01*
X390326Y117900D01*
X390246Y117858D01*
X390163Y117825D01*
X390106Y117784D01*
X390045Y117752D01*
X389978Y117691D01*
X389905Y117639D01*
X389861Y117585D01*
X389809Y117538D01*
X389760Y117463D01*
X389703Y117394D01*
X389673Y117330D01*
X389635Y117272D01*
X389605Y117187D01*
X389567Y117106D01*
X389554Y117037D01*
X389531Y116971D01*
X389524Y116882D01*
X389507Y116794D01*
X389512Y116724D01*
X389506Y116654D01*
X389522Y116566D01*
X389527Y116476D01*
X389549Y116410D01*
X389561Y116341D01*
X389597Y116259D01*
X389625Y116174D01*
X389662Y116115D01*
X389691Y116051D01*
X389747Y115981D01*
X389795Y115905D01*
X389846Y115857D01*
X389890Y115803D01*
X389962Y115748D01*
X390027Y115687D01*
X390088Y115653D01*
X390144Y115611D01*
X390288Y115540D01*
X392289Y114712D01*
X394112Y112889D01*
X395098Y110509D01*
X395098Y107931D01*
X394112Y105551D01*
X392289Y103728D01*
X389983Y102773D01*
X389940Y102749D01*
X389893Y102732D01*
X389802Y102670D01*
X389707Y102616D01*
X389671Y102581D01*
X389630Y102553D01*
X389558Y102471D01*
X389479Y102394D01*
X389453Y102352D01*
X389420Y102315D01*
X389370Y102217D01*
X389312Y102123D01*
X389298Y102076D01*
X389275Y102032D01*
X389251Y101924D01*
X389219Y101819D01*
X389216Y101770D01*
X389206Y101721D01*
X389209Y101611D01*
X389204Y101502D01*
X389214Y101453D01*
X389215Y101403D01*
X389246Y101298D01*
X389268Y101190D01*
X389290Y101146D01*
X389304Y101098D01*
X389359Y101003D01*
X389408Y100905D01*
X389440Y100867D01*
X389465Y100824D01*
X389572Y100703D01*
X390533Y99742D01*
X390533Y96493D01*
X390536Y96464D01*
X390534Y96435D01*
X390556Y96306D01*
X390573Y96178D01*
X390583Y96150D01*
X390588Y96121D01*
X390642Y96003D01*
X390690Y95882D01*
X390707Y95858D01*
X390719Y95831D01*
X390800Y95730D01*
X390876Y95625D01*
X390899Y95606D01*
X390918Y95583D01*
X391021Y95505D01*
X391121Y95422D01*
X391148Y95409D01*
X391172Y95392D01*
X391316Y95321D01*
X393559Y94392D01*
X394701Y93250D01*
X394810Y93165D01*
X394917Y93076D01*
X394936Y93068D01*
X394952Y93055D01*
X395079Y93000D01*
X395205Y92941D01*
X395225Y92937D01*
X395244Y92929D01*
X395382Y92907D01*
X395518Y92881D01*
X395538Y92882D01*
X395558Y92879D01*
X395697Y92892D01*
X395835Y92901D01*
X395854Y92907D01*
X395874Y92909D01*
X396006Y92956D01*
X396137Y92999D01*
X396155Y93010D01*
X396174Y93017D01*
X396289Y93095D01*
X396406Y93169D01*
X396420Y93184D01*
X396437Y93195D01*
X396529Y93300D01*
X396624Y93401D01*
X396634Y93418D01*
X396647Y93434D01*
X396711Y93558D01*
X396778Y93679D01*
X396783Y93699D01*
X396792Y93717D01*
X396822Y93853D01*
X396857Y93987D01*
X396859Y94015D01*
X396862Y94027D01*
X396861Y94048D01*
X396867Y94148D01*
X396867Y99742D01*
X398058Y100933D01*
X414742Y100933D01*
X415933Y99742D01*
X415933Y92297D01*
X415941Y92228D01*
X415940Y92158D01*
X415961Y92071D01*
X415973Y91982D01*
X415998Y91917D01*
X416015Y91849D01*
X416057Y91770D01*
X416090Y91686D01*
X416131Y91630D01*
X416163Y91568D01*
X416224Y91502D01*
X416276Y91429D01*
X416330Y91384D01*
X416377Y91333D01*
X416452Y91283D01*
X416521Y91226D01*
X416585Y91196D01*
X416643Y91158D01*
X416728Y91129D01*
X416809Y91090D01*
X416878Y91077D01*
X416944Y91055D01*
X417033Y91048D01*
X417121Y91031D01*
X417191Y91035D01*
X417261Y91030D01*
X417349Y91045D01*
X417439Y91050D01*
X417505Y91072D01*
X417574Y91084D01*
X417656Y91121D01*
X417741Y91148D01*
X417800Y91186D01*
X417864Y91214D01*
X417934Y91271D01*
X418010Y91319D01*
X418058Y91369D01*
X418112Y91413D01*
X418167Y91485D01*
X418228Y91550D01*
X418262Y91611D01*
X418304Y91667D01*
X418375Y91812D01*
X418688Y92569D01*
X420511Y94392D01*
X421484Y94795D01*
X421509Y94809D01*
X421537Y94818D01*
X421647Y94888D01*
X421760Y94952D01*
X421781Y94973D01*
X421806Y94989D01*
X421895Y95083D01*
X421988Y95173D01*
X422004Y95199D01*
X422024Y95220D01*
X422087Y95334D01*
X422155Y95445D01*
X422163Y95473D01*
X422178Y95499D01*
X422210Y95624D01*
X422248Y95749D01*
X422250Y95778D01*
X422257Y95807D01*
X422267Y95967D01*
X422267Y99742D01*
X423458Y100933D01*
X440142Y100933D01*
X441333Y99742D01*
X441333Y78058D01*
X440142Y76867D01*
X423458Y76867D01*
X422267Y78058D01*
X422267Y81833D01*
X422264Y81862D01*
X422266Y81891D01*
X422244Y82020D01*
X422227Y82148D01*
X422217Y82176D01*
X422212Y82205D01*
X422158Y82323D01*
X422110Y82444D01*
X422093Y82468D01*
X422081Y82495D01*
X422000Y82596D01*
X421924Y82701D01*
X421901Y82720D01*
X421882Y82743D01*
X421779Y82821D01*
X421679Y82904D01*
X421652Y82917D01*
X421628Y82934D01*
X421484Y83005D01*
X420511Y83408D01*
X418688Y85231D01*
X418375Y85988D01*
X418340Y86049D01*
X418314Y86114D01*
X418262Y86186D01*
X418217Y86265D01*
X418169Y86315D01*
X418128Y86371D01*
X418058Y86429D01*
X417996Y86493D01*
X417936Y86529D01*
X417883Y86574D01*
X417801Y86612D01*
X417725Y86659D01*
X417658Y86680D01*
X417595Y86710D01*
X417507Y86726D01*
X417421Y86753D01*
X417351Y86756D01*
X417282Y86769D01*
X417193Y86764D01*
X417103Y86768D01*
X417035Y86754D01*
X416965Y86750D01*
X416880Y86722D01*
X416792Y86704D01*
X416729Y86673D01*
X416663Y86652D01*
X416587Y86603D01*
X416506Y86564D01*
X416453Y86519D01*
X416394Y86481D01*
X416332Y86416D01*
X416264Y86358D01*
X416224Y86301D01*
X416176Y86250D01*
X416133Y86171D01*
X416081Y86098D01*
X416056Y86032D01*
X416022Y85971D01*
X416000Y85884D01*
X415968Y85800D01*
X415960Y85731D01*
X415943Y85663D01*
X415933Y85503D01*
X415933Y78058D01*
X414742Y76867D01*
X398058Y76867D01*
X396867Y78058D01*
X396867Y83652D01*
X396850Y83790D01*
X396837Y83929D01*
X396830Y83948D01*
X396827Y83968D01*
X396776Y84097D01*
X396729Y84228D01*
X396718Y84245D01*
X396710Y84263D01*
X396629Y84376D01*
X396551Y84491D01*
X396535Y84504D01*
X396524Y84521D01*
X396416Y84610D01*
X396312Y84701D01*
X396294Y84711D01*
X396279Y84724D01*
X396153Y84783D01*
X396029Y84846D01*
X396009Y84850D01*
X395991Y84859D01*
X395854Y84885D01*
X395719Y84916D01*
X395698Y84915D01*
X395679Y84919D01*
X395540Y84910D01*
X395401Y84906D01*
X395381Y84900D01*
X395361Y84899D01*
X395229Y84856D01*
X395095Y84818D01*
X395078Y84807D01*
X395059Y84801D01*
X394941Y84727D01*
X394821Y84656D01*
X394800Y84637D01*
X394790Y84631D01*
X394776Y84616D01*
X394701Y84550D01*
X393559Y83408D01*
X391316Y82479D01*
X391291Y82465D01*
X391263Y82456D01*
X391153Y82386D01*
X391040Y82322D01*
X391019Y82301D01*
X390994Y82285D01*
X390905Y82191D01*
X390812Y82101D01*
X390796Y82075D01*
X390776Y82054D01*
X390713Y81940D01*
X390645Y81829D01*
X390637Y81801D01*
X390622Y81775D01*
X390590Y81650D01*
X390552Y81525D01*
X390550Y81496D01*
X390543Y81467D01*
X390533Y81307D01*
X390533Y78058D01*
X389342Y76867D01*
X372658Y76867D01*
X371467Y78058D01*
X371467Y81112D01*
X371450Y81250D01*
X371437Y81389D01*
X371430Y81408D01*
X371427Y81428D01*
X371376Y81557D01*
X371329Y81688D01*
X371318Y81705D01*
X371310Y81723D01*
X371229Y81836D01*
X371151Y81951D01*
X371135Y81964D01*
X371124Y81981D01*
X371016Y82070D01*
X370912Y82161D01*
X370894Y82171D01*
X370879Y82184D01*
X370753Y82243D01*
X370629Y82306D01*
X370609Y82310D01*
X370591Y82319D01*
X370454Y82345D01*
X370319Y82376D01*
X370298Y82375D01*
X370279Y82379D01*
X370140Y82370D01*
X370001Y82366D01*
X369981Y82360D01*
X369961Y82359D01*
X369829Y82316D01*
X369695Y82278D01*
X369678Y82267D01*
X369659Y82261D01*
X369541Y82187D01*
X369421Y82116D01*
X369400Y82097D01*
X369390Y82091D01*
X369376Y82076D01*
X369301Y82010D01*
X368164Y80874D01*
X368104Y80795D01*
X368036Y80723D01*
X368007Y80670D01*
X367970Y80622D01*
X367930Y80531D01*
X367882Y80445D01*
X367867Y80386D01*
X367843Y80330D01*
X367828Y80233D01*
X367803Y80137D01*
X367798Y80060D01*
X367795Y80045D01*
X367796Y80033D01*
X367793Y80016D01*
X367795Y80004D01*
X367793Y79976D01*
X367793Y40542D01*
X362449Y35199D01*
X362389Y35120D01*
X362321Y35048D01*
X362292Y34995D01*
X362255Y34947D01*
X362215Y34856D01*
X362167Y34770D01*
X362152Y34711D01*
X362128Y34656D01*
X362113Y34558D01*
X362088Y34462D01*
X362082Y34362D01*
X362078Y34341D01*
X362080Y34329D01*
X362078Y34301D01*
X362078Y31731D01*
X361092Y29351D01*
X359269Y27528D01*
X356889Y26542D01*
X355843Y26542D01*
X355705Y26525D01*
X355566Y26512D01*
X355547Y26505D01*
X355527Y26502D01*
X355398Y26451D01*
X355267Y26404D01*
X355250Y26393D01*
X355232Y26385D01*
X355119Y26304D01*
X355004Y26226D01*
X354991Y26210D01*
X354974Y26199D01*
X354885Y26091D01*
X354793Y25987D01*
X354784Y25969D01*
X354771Y25954D01*
X354712Y25828D01*
X354649Y25704D01*
X354644Y25684D01*
X354636Y25666D01*
X354610Y25530D01*
X354579Y25394D01*
X354580Y25373D01*
X354576Y25354D01*
X354585Y25215D01*
X354589Y25076D01*
X354595Y25056D01*
X354596Y25036D01*
X354639Y24904D01*
X354677Y24770D01*
X354688Y24753D01*
X354694Y24734D01*
X354768Y24616D01*
X354839Y24496D01*
X354857Y24475D01*
X354864Y24465D01*
X354879Y24451D01*
X354945Y24376D01*
X359199Y20122D01*
X359293Y20049D01*
X359382Y19970D01*
X359418Y19952D01*
X359450Y19927D01*
X359559Y19880D01*
X359665Y19826D01*
X359705Y19817D01*
X359742Y19801D01*
X359860Y19782D01*
X359975Y19756D01*
X360016Y19757D01*
X360056Y19751D01*
X360174Y19762D01*
X360293Y19766D01*
X360332Y19777D01*
X360372Y19781D01*
X360484Y19821D01*
X360599Y19854D01*
X360634Y19875D01*
X360672Y19888D01*
X360770Y19955D01*
X360873Y20016D01*
X360918Y20056D01*
X360935Y20067D01*
X360948Y20082D01*
X360994Y20122D01*
X362401Y21529D01*
X366228Y23115D01*
X370372Y23115D01*
X374199Y21529D01*
X377129Y18599D01*
X378715Y14772D01*
X378715Y10628D01*
X377129Y6801D01*
X375036Y4707D01*
X374951Y4598D01*
X374862Y4491D01*
X374854Y4472D01*
X374841Y4456D01*
X374786Y4328D01*
X374727Y4203D01*
X374723Y4183D01*
X374715Y4164D01*
X374693Y4026D01*
X374667Y3890D01*
X374668Y3870D01*
X374665Y3850D01*
X374678Y3711D01*
X374687Y3573D01*
X374693Y3554D01*
X374695Y3534D01*
X374742Y3402D01*
X374785Y3271D01*
X374796Y3253D01*
X374802Y3234D01*
X374880Y3119D01*
X374955Y3002D01*
X374970Y2988D01*
X374981Y2971D01*
X375085Y2879D01*
X375186Y2784D01*
X375204Y2774D01*
X375219Y2761D01*
X375344Y2697D01*
X375465Y2630D01*
X375485Y2625D01*
X375503Y2616D01*
X375638Y2586D01*
X375773Y2551D01*
X375801Y2549D01*
X375813Y2546D01*
X375833Y2547D01*
X375934Y2541D01*
X386066Y2541D01*
X386204Y2558D01*
G37*
G36*
X56004Y2558D02*
X56004Y2558D01*
X56143Y2571D01*
X56162Y2578D01*
X56182Y2581D01*
X56311Y2632D01*
X56442Y2679D01*
X56459Y2690D01*
X56478Y2698D01*
X56590Y2779D01*
X56705Y2857D01*
X56719Y2873D01*
X56735Y2884D01*
X56824Y2992D01*
X56916Y3096D01*
X56925Y3114D01*
X56938Y3129D01*
X56997Y3255D01*
X57060Y3379D01*
X57065Y3399D01*
X57073Y3417D01*
X57099Y3553D01*
X57130Y3689D01*
X57129Y3710D01*
X57133Y3729D01*
X57124Y3868D01*
X57120Y4007D01*
X57115Y4027D01*
X57113Y4047D01*
X57071Y4179D01*
X57032Y4313D01*
X57022Y4330D01*
X57015Y4349D01*
X56941Y4467D01*
X56870Y4587D01*
X56852Y4608D01*
X56845Y4618D01*
X56830Y4632D01*
X56764Y4707D01*
X54671Y6801D01*
X53085Y10628D01*
X53085Y14772D01*
X54671Y18599D01*
X57601Y21529D01*
X61428Y23115D01*
X65572Y23115D01*
X67385Y22364D01*
X67413Y22356D01*
X67440Y22342D01*
X67566Y22314D01*
X67692Y22280D01*
X67721Y22279D01*
X67750Y22273D01*
X67880Y22277D01*
X68010Y22275D01*
X68038Y22282D01*
X68068Y22282D01*
X68192Y22319D01*
X68319Y22349D01*
X68345Y22363D01*
X68373Y22371D01*
X68485Y22437D01*
X68600Y22498D01*
X68622Y22517D01*
X68647Y22532D01*
X68768Y22639D01*
X94116Y47986D01*
X94176Y48065D01*
X94244Y48137D01*
X94273Y48190D01*
X94310Y48238D01*
X94350Y48329D01*
X94398Y48415D01*
X94413Y48474D01*
X94437Y48529D01*
X94452Y48627D01*
X94477Y48723D01*
X94483Y48823D01*
X94487Y48843D01*
X94485Y48856D01*
X94487Y48884D01*
X94487Y80108D01*
X101736Y87356D01*
X101796Y87435D01*
X101864Y87507D01*
X101893Y87560D01*
X101930Y87608D01*
X101970Y87699D01*
X102018Y87785D01*
X102033Y87844D01*
X102057Y87899D01*
X102072Y87997D01*
X102097Y88093D01*
X102103Y88193D01*
X102107Y88214D01*
X102105Y88226D01*
X102107Y88254D01*
X102107Y108535D01*
X102090Y108672D01*
X102077Y108811D01*
X102070Y108830D01*
X102067Y108850D01*
X102016Y108979D01*
X101969Y109110D01*
X101958Y109127D01*
X101950Y109146D01*
X101869Y109258D01*
X101791Y109373D01*
X101775Y109387D01*
X101764Y109403D01*
X101656Y109492D01*
X101552Y109584D01*
X101534Y109593D01*
X101519Y109606D01*
X101393Y109665D01*
X101269Y109728D01*
X101249Y109733D01*
X101231Y109742D01*
X101095Y109768D01*
X100959Y109798D01*
X100938Y109798D01*
X100919Y109801D01*
X100780Y109793D01*
X100641Y109788D01*
X100621Y109783D01*
X100601Y109782D01*
X100469Y109739D01*
X100335Y109700D01*
X100318Y109690D01*
X100299Y109684D01*
X100181Y109609D01*
X100061Y109539D01*
X100040Y109520D01*
X100030Y109513D01*
X100016Y109498D01*
X99941Y109432D01*
X96694Y106186D01*
X96634Y106108D01*
X96566Y106036D01*
X96537Y105983D01*
X96500Y105935D01*
X96460Y105844D01*
X96412Y105757D01*
X96397Y105699D01*
X96373Y105643D01*
X96358Y105545D01*
X96333Y105449D01*
X96327Y105349D01*
X96323Y105329D01*
X96325Y105317D01*
X96323Y105289D01*
X96323Y98458D01*
X95132Y97267D01*
X51760Y97267D01*
X51642Y97252D01*
X51523Y97245D01*
X51485Y97232D01*
X51444Y97227D01*
X51334Y97184D01*
X51221Y97147D01*
X51186Y97125D01*
X51149Y97110D01*
X51053Y97041D01*
X50952Y96977D01*
X50924Y96947D01*
X50891Y96924D01*
X50815Y96832D01*
X50734Y96745D01*
X50714Y96710D01*
X50689Y96679D01*
X50638Y96571D01*
X50580Y96467D01*
X50570Y96427D01*
X50553Y96391D01*
X50531Y96274D01*
X50501Y96159D01*
X50497Y96099D01*
X50493Y96079D01*
X50495Y96058D01*
X50491Y95998D01*
X50491Y93598D01*
X49531Y91282D01*
X49528Y91268D01*
X49520Y91255D01*
X49486Y91115D01*
X49447Y90976D01*
X49447Y90961D01*
X49444Y90947D01*
X49445Y90802D01*
X49442Y90658D01*
X49446Y90643D01*
X49446Y90629D01*
X49483Y90489D01*
X49517Y90348D01*
X49524Y90335D01*
X49527Y90321D01*
X49598Y90195D01*
X49665Y90067D01*
X49675Y90056D01*
X49682Y90044D01*
X49782Y89939D01*
X49879Y89832D01*
X49892Y89824D01*
X49902Y89813D01*
X50024Y89737D01*
X50145Y89657D01*
X50159Y89652D01*
X50171Y89645D01*
X50309Y89601D01*
X50446Y89554D01*
X50460Y89553D01*
X50475Y89548D01*
X50619Y89540D01*
X50763Y89529D01*
X50777Y89531D01*
X50792Y89531D01*
X50952Y89552D01*
X51701Y89701D01*
X51701Y83049D01*
X45049Y83049D01*
X45199Y83803D01*
X45846Y85364D01*
X46795Y86785D01*
X46802Y86798D01*
X46811Y86809D01*
X46872Y86940D01*
X46937Y87069D01*
X46940Y87084D01*
X46946Y87097D01*
X46974Y87238D01*
X47004Y87380D01*
X47003Y87395D01*
X47006Y87410D01*
X46997Y87553D01*
X46992Y87698D01*
X46987Y87712D01*
X46987Y87727D01*
X46942Y87864D01*
X46901Y88003D01*
X46893Y88015D01*
X46888Y88029D01*
X46811Y88152D01*
X46737Y88275D01*
X46726Y88286D01*
X46718Y88298D01*
X46613Y88397D01*
X46510Y88498D01*
X46498Y88506D01*
X46487Y88516D01*
X46360Y88586D01*
X46235Y88658D01*
X46221Y88662D01*
X46208Y88670D01*
X46068Y88706D01*
X45929Y88745D01*
X45915Y88745D01*
X45900Y88749D01*
X45740Y88759D01*
X43248Y88759D01*
X42246Y89175D01*
X42198Y89188D01*
X42153Y89209D01*
X42045Y89230D01*
X41939Y89259D01*
X41889Y89259D01*
X41840Y89269D01*
X41731Y89262D01*
X41621Y89264D01*
X41573Y89252D01*
X41523Y89249D01*
X41419Y89215D01*
X41312Y89189D01*
X41268Y89166D01*
X41221Y89151D01*
X41128Y89092D01*
X41031Y89041D01*
X40994Y89007D01*
X40952Y88981D01*
X40877Y88901D01*
X40795Y88827D01*
X40768Y88785D01*
X40734Y88749D01*
X40681Y88653D01*
X40621Y88561D01*
X40604Y88514D01*
X40580Y88471D01*
X40553Y88364D01*
X40517Y88260D01*
X40513Y88211D01*
X40501Y88163D01*
X40491Y88002D01*
X40491Y79799D01*
X39592Y79799D01*
X39474Y79784D01*
X39355Y79777D01*
X39317Y79764D01*
X39276Y79759D01*
X39166Y79716D01*
X39053Y79679D01*
X39018Y79657D01*
X38981Y79642D01*
X38885Y79573D01*
X38784Y79509D01*
X38756Y79479D01*
X38723Y79456D01*
X38647Y79364D01*
X38566Y79277D01*
X38546Y79242D01*
X38521Y79211D01*
X38470Y79103D01*
X38412Y78999D01*
X38402Y78959D01*
X38385Y78923D01*
X38363Y78806D01*
X38333Y78691D01*
X38329Y78631D01*
X38325Y78611D01*
X38327Y78590D01*
X38323Y78530D01*
X38323Y78070D01*
X38338Y77952D01*
X38345Y77833D01*
X38358Y77795D01*
X38363Y77754D01*
X38406Y77644D01*
X38443Y77531D01*
X38465Y77496D01*
X38480Y77459D01*
X38549Y77362D01*
X38613Y77262D01*
X38643Y77234D01*
X38666Y77201D01*
X38758Y77125D01*
X38845Y77044D01*
X38880Y77024D01*
X38911Y76999D01*
X39019Y76948D01*
X39123Y76890D01*
X39163Y76880D01*
X39199Y76863D01*
X39316Y76841D01*
X39431Y76811D01*
X39491Y76807D01*
X39511Y76803D01*
X39532Y76805D01*
X39592Y76801D01*
X40491Y76801D01*
X40491Y65466D01*
X40318Y64819D01*
X39983Y64240D01*
X39510Y63767D01*
X38931Y63432D01*
X38284Y63259D01*
X26949Y63259D01*
X26949Y68998D01*
X26934Y69116D01*
X26927Y69235D01*
X26914Y69273D01*
X26909Y69314D01*
X26866Y69424D01*
X26829Y69537D01*
X26807Y69572D01*
X26792Y69609D01*
X26723Y69705D01*
X26659Y69806D01*
X26629Y69834D01*
X26606Y69867D01*
X26514Y69943D01*
X26427Y70024D01*
X26392Y70044D01*
X26361Y70069D01*
X26253Y70120D01*
X26149Y70178D01*
X26109Y70188D01*
X26073Y70205D01*
X25956Y70227D01*
X25841Y70257D01*
X25781Y70261D01*
X25761Y70265D01*
X25740Y70263D01*
X25680Y70267D01*
X25220Y70267D01*
X25102Y70252D01*
X24983Y70245D01*
X24945Y70232D01*
X24904Y70227D01*
X24794Y70184D01*
X24681Y70147D01*
X24646Y70125D01*
X24609Y70110D01*
X24512Y70041D01*
X24412Y69977D01*
X24384Y69947D01*
X24351Y69924D01*
X24275Y69832D01*
X24194Y69745D01*
X24174Y69710D01*
X24149Y69679D01*
X24098Y69571D01*
X24040Y69467D01*
X24030Y69427D01*
X24013Y69391D01*
X23991Y69274D01*
X23961Y69159D01*
X23957Y69099D01*
X23953Y69079D01*
X23955Y69058D01*
X23951Y68998D01*
X23951Y63259D01*
X12616Y63259D01*
X11969Y63432D01*
X11390Y63767D01*
X10917Y64240D01*
X10582Y64819D01*
X10409Y65466D01*
X10409Y68998D01*
X10394Y69116D01*
X10387Y69235D01*
X10374Y69273D01*
X10369Y69314D01*
X10326Y69424D01*
X10289Y69537D01*
X10267Y69572D01*
X10252Y69609D01*
X10183Y69705D01*
X10119Y69806D01*
X10089Y69834D01*
X10066Y69867D01*
X9974Y69943D01*
X9887Y70024D01*
X9852Y70044D01*
X9821Y70069D01*
X9713Y70120D01*
X9609Y70178D01*
X9569Y70188D01*
X9533Y70205D01*
X9416Y70227D01*
X9301Y70257D01*
X9241Y70261D01*
X9221Y70265D01*
X9200Y70263D01*
X9140Y70267D01*
X3810Y70267D01*
X3692Y70252D01*
X3573Y70245D01*
X3535Y70232D01*
X3494Y70227D01*
X3384Y70184D01*
X3271Y70147D01*
X3236Y70125D01*
X3199Y70110D01*
X3103Y70041D01*
X3002Y69977D01*
X2974Y69947D01*
X2941Y69924D01*
X2865Y69832D01*
X2784Y69745D01*
X2764Y69710D01*
X2739Y69679D01*
X2688Y69571D01*
X2630Y69467D01*
X2620Y69427D01*
X2603Y69391D01*
X2581Y69274D01*
X2551Y69159D01*
X2547Y69099D01*
X2543Y69079D01*
X2545Y69058D01*
X2541Y68998D01*
X2541Y25400D01*
X2543Y25378D01*
X2545Y25300D01*
X2810Y21923D01*
X2824Y21855D01*
X2829Y21786D01*
X2869Y21630D01*
X4956Y15206D01*
X5006Y15099D01*
X5050Y14988D01*
X5083Y14937D01*
X5091Y14918D01*
X5104Y14903D01*
X5136Y14852D01*
X9107Y9388D01*
X9127Y9366D01*
X9138Y9348D01*
X9184Y9305D01*
X9188Y9301D01*
X9264Y9209D01*
X9310Y9171D01*
X9324Y9156D01*
X9342Y9145D01*
X9388Y9107D01*
X14596Y5322D01*
X14852Y5136D01*
X14887Y5117D01*
X14918Y5092D01*
X14990Y5058D01*
X15056Y5015D01*
X15113Y4993D01*
X15131Y4983D01*
X15150Y4978D01*
X15205Y4956D01*
X15206Y4956D01*
X17945Y4066D01*
X17971Y4061D01*
X17996Y4051D01*
X18127Y4031D01*
X18257Y4006D01*
X18284Y4008D01*
X18310Y4004D01*
X18441Y4018D01*
X18455Y4008D01*
X18474Y3989D01*
X18585Y3917D01*
X18694Y3842D01*
X18719Y3832D01*
X18742Y3818D01*
X18891Y3759D01*
X21630Y2869D01*
X21698Y2856D01*
X21764Y2833D01*
X21923Y2810D01*
X25300Y2545D01*
X25322Y2546D01*
X25400Y2541D01*
X55866Y2541D01*
X56004Y2558D01*
G37*
G36*
X65224Y131858D02*
X65224Y131858D01*
X65363Y131871D01*
X65382Y131878D01*
X65402Y131881D01*
X65531Y131932D01*
X65662Y131979D01*
X65679Y131990D01*
X65698Y131998D01*
X65810Y132079D01*
X65925Y132157D01*
X65939Y132173D01*
X65955Y132184D01*
X66044Y132292D01*
X66136Y132396D01*
X66145Y132414D01*
X66158Y132429D01*
X66217Y132555D01*
X66280Y132679D01*
X66285Y132699D01*
X66294Y132717D01*
X66320Y132853D01*
X66350Y132989D01*
X66350Y133010D01*
X66353Y133029D01*
X66345Y133168D01*
X66340Y133307D01*
X66335Y133327D01*
X66334Y133347D01*
X66291Y133479D01*
X66252Y133613D01*
X66242Y133630D01*
X66236Y133649D01*
X66161Y133767D01*
X66091Y133887D01*
X66072Y133908D01*
X66065Y133918D01*
X66050Y133932D01*
X65984Y134007D01*
X63458Y136534D01*
X60705Y139286D01*
X60705Y139453D01*
X60703Y139468D01*
X60705Y139483D01*
X60684Y139626D01*
X60665Y139769D01*
X60660Y139783D01*
X60658Y139797D01*
X60601Y139930D01*
X60548Y140064D01*
X60540Y140076D01*
X60534Y140090D01*
X60446Y140205D01*
X60362Y140322D01*
X60350Y140331D01*
X60341Y140343D01*
X60228Y140432D01*
X60117Y140525D01*
X60103Y140531D01*
X60092Y140540D01*
X59959Y140599D01*
X59829Y140660D01*
X59814Y140663D01*
X59801Y140669D01*
X59658Y140693D01*
X59517Y140720D01*
X59502Y140719D01*
X59487Y140721D01*
X59343Y140709D01*
X59199Y140700D01*
X59185Y140696D01*
X59170Y140694D01*
X59033Y140647D01*
X58897Y140602D01*
X58884Y140594D01*
X58870Y140589D01*
X58731Y140509D01*
X57514Y139696D01*
X55953Y139049D01*
X55199Y138899D01*
X55199Y146820D01*
X55184Y146938D01*
X55177Y147057D01*
X55164Y147095D01*
X55159Y147135D01*
X55116Y147246D01*
X55100Y147294D01*
X55110Y147312D01*
X55120Y147351D01*
X55137Y147387D01*
X55159Y147504D01*
X55189Y147620D01*
X55193Y147680D01*
X55197Y147700D01*
X55195Y147720D01*
X55199Y147780D01*
X55199Y167781D01*
X55829Y167656D01*
X55844Y167655D01*
X55858Y167650D01*
X56001Y167643D01*
X56146Y167633D01*
X56161Y167636D01*
X56176Y167635D01*
X56317Y167664D01*
X56459Y167690D01*
X56473Y167696D01*
X56487Y167699D01*
X56616Y167763D01*
X56748Y167823D01*
X56759Y167833D01*
X56773Y167839D01*
X56882Y167932D01*
X56995Y168024D01*
X57003Y168036D01*
X57015Y168045D01*
X57097Y168163D01*
X57184Y168280D01*
X57189Y168293D01*
X57198Y168306D01*
X57249Y168440D01*
X57303Y168574D01*
X57305Y168589D01*
X57310Y168603D01*
X57327Y168747D01*
X57346Y168890D01*
X57344Y168904D01*
X57346Y168919D01*
X57325Y169063D01*
X57309Y169205D01*
X57303Y169219D01*
X57301Y169234D01*
X57249Y169386D01*
X56935Y170144D01*
X56935Y172756D01*
X57935Y175169D01*
X59781Y177015D01*
X59922Y177073D01*
X59947Y177088D01*
X59975Y177097D01*
X60085Y177167D01*
X60198Y177231D01*
X60219Y177251D01*
X60244Y177267D01*
X60333Y177362D01*
X60426Y177452D01*
X60442Y177477D01*
X60462Y177499D01*
X60525Y177613D01*
X60593Y177723D01*
X60601Y177752D01*
X60616Y177777D01*
X60648Y177903D01*
X60686Y178027D01*
X60688Y178057D01*
X60695Y178085D01*
X60705Y178246D01*
X60705Y204937D01*
X60702Y204966D01*
X60704Y204995D01*
X60682Y205124D01*
X60665Y205252D01*
X60655Y205280D01*
X60650Y205309D01*
X60596Y205427D01*
X60548Y205548D01*
X60531Y205572D01*
X60519Y205599D01*
X60438Y205700D01*
X60362Y205805D01*
X60339Y205824D01*
X60320Y205847D01*
X60217Y205925D01*
X60117Y206008D01*
X60090Y206021D01*
X60066Y206038D01*
X59922Y206109D01*
X57601Y207071D01*
X54671Y210001D01*
X53085Y213828D01*
X53085Y217972D01*
X54671Y221799D01*
X56764Y223893D01*
X56849Y224002D01*
X56938Y224109D01*
X56946Y224128D01*
X56959Y224144D01*
X57014Y224272D01*
X57073Y224397D01*
X57077Y224417D01*
X57085Y224436D01*
X57107Y224574D01*
X57133Y224710D01*
X57132Y224730D01*
X57135Y224750D01*
X57122Y224889D01*
X57113Y225027D01*
X57107Y225046D01*
X57105Y225066D01*
X57058Y225198D01*
X57015Y225329D01*
X57004Y225347D01*
X56998Y225366D01*
X56920Y225481D01*
X56845Y225598D01*
X56830Y225612D01*
X56819Y225629D01*
X56715Y225721D01*
X56614Y225816D01*
X56596Y225826D01*
X56581Y225839D01*
X56456Y225903D01*
X56335Y225970D01*
X56315Y225975D01*
X56297Y225984D01*
X56162Y226014D01*
X56027Y226049D01*
X55999Y226051D01*
X55987Y226054D01*
X55967Y226053D01*
X55866Y226059D01*
X25400Y226059D01*
X25378Y226057D01*
X25300Y226055D01*
X21923Y225790D01*
X21855Y225776D01*
X21786Y225771D01*
X21630Y225731D01*
X18892Y224841D01*
X18867Y224830D01*
X18841Y224824D01*
X18724Y224763D01*
X18604Y224706D01*
X18583Y224689D01*
X18560Y224677D01*
X18462Y224589D01*
X18445Y224588D01*
X18418Y224593D01*
X18286Y224585D01*
X18153Y224583D01*
X18128Y224575D01*
X18101Y224574D01*
X17945Y224534D01*
X15206Y223644D01*
X15099Y223594D01*
X14988Y223550D01*
X14937Y223517D01*
X14918Y223509D01*
X14903Y223496D01*
X14852Y223464D01*
X9388Y219493D01*
X9301Y219412D01*
X9209Y219336D01*
X9171Y219290D01*
X9156Y219276D01*
X9145Y219258D01*
X9107Y219212D01*
X5136Y213748D01*
X5079Y213644D01*
X5015Y213544D01*
X4993Y213487D01*
X4983Y213469D01*
X4978Y213449D01*
X4956Y213394D01*
X2869Y206970D01*
X2856Y206902D01*
X2833Y206836D01*
X2810Y206677D01*
X2545Y203300D01*
X2546Y203278D01*
X2541Y203200D01*
X2541Y159602D01*
X2556Y159484D01*
X2563Y159365D01*
X2576Y159327D01*
X2581Y159286D01*
X2624Y159176D01*
X2661Y159063D01*
X2683Y159028D01*
X2698Y158991D01*
X2767Y158895D01*
X2831Y158794D01*
X2861Y158766D01*
X2884Y158733D01*
X2976Y158657D01*
X3063Y158576D01*
X3098Y158556D01*
X3129Y158531D01*
X3237Y158480D01*
X3341Y158422D01*
X3381Y158412D01*
X3417Y158395D01*
X3534Y158373D01*
X3649Y158343D01*
X3709Y158339D01*
X3729Y158335D01*
X3750Y158337D01*
X3810Y158333D01*
X9140Y158333D01*
X9258Y158348D01*
X9377Y158355D01*
X9415Y158368D01*
X9456Y158373D01*
X9566Y158416D01*
X9679Y158453D01*
X9714Y158475D01*
X9751Y158490D01*
X9847Y158559D01*
X9948Y158623D01*
X9976Y158653D01*
X10009Y158676D01*
X10085Y158768D01*
X10166Y158855D01*
X10186Y158890D01*
X10211Y158921D01*
X10262Y159029D01*
X10320Y159133D01*
X10330Y159173D01*
X10347Y159209D01*
X10369Y159326D01*
X10399Y159441D01*
X10403Y159501D01*
X10407Y159521D01*
X10405Y159542D01*
X10409Y159602D01*
X10409Y163134D01*
X10582Y163781D01*
X10917Y164360D01*
X11390Y164833D01*
X11969Y165168D01*
X12616Y165341D01*
X23951Y165341D01*
X23951Y159602D01*
X23966Y159484D01*
X23973Y159365D01*
X23985Y159327D01*
X23991Y159286D01*
X24034Y159176D01*
X24071Y159063D01*
X24093Y159028D01*
X24108Y158991D01*
X24177Y158895D01*
X24241Y158794D01*
X24271Y158766D01*
X24294Y158733D01*
X24386Y158657D01*
X24473Y158576D01*
X24508Y158556D01*
X24539Y158531D01*
X24647Y158480D01*
X24751Y158422D01*
X24791Y158412D01*
X24827Y158395D01*
X24944Y158373D01*
X25059Y158343D01*
X25119Y158339D01*
X25139Y158335D01*
X25160Y158337D01*
X25220Y158333D01*
X25680Y158333D01*
X25798Y158348D01*
X25917Y158355D01*
X25955Y158368D01*
X25996Y158373D01*
X26106Y158416D01*
X26219Y158453D01*
X26254Y158475D01*
X26291Y158490D01*
X26387Y158559D01*
X26488Y158623D01*
X26516Y158653D01*
X26549Y158676D01*
X26625Y158768D01*
X26706Y158855D01*
X26726Y158890D01*
X26751Y158921D01*
X26802Y159029D01*
X26860Y159133D01*
X26870Y159173D01*
X26887Y159209D01*
X26909Y159326D01*
X26939Y159441D01*
X26943Y159501D01*
X26947Y159521D01*
X26945Y159542D01*
X26949Y159602D01*
X26949Y165341D01*
X38284Y165341D01*
X38931Y165168D01*
X39510Y164833D01*
X39983Y164360D01*
X40318Y163781D01*
X40491Y163134D01*
X40491Y151799D01*
X39592Y151799D01*
X39474Y151784D01*
X39355Y151777D01*
X39317Y151764D01*
X39276Y151759D01*
X39166Y151716D01*
X39053Y151679D01*
X39018Y151657D01*
X38981Y151642D01*
X38885Y151573D01*
X38784Y151509D01*
X38756Y151479D01*
X38723Y151456D01*
X38647Y151364D01*
X38566Y151277D01*
X38546Y151242D01*
X38521Y151211D01*
X38470Y151103D01*
X38412Y150999D01*
X38402Y150959D01*
X38385Y150923D01*
X38363Y150806D01*
X38333Y150691D01*
X38329Y150631D01*
X38325Y150611D01*
X38327Y150590D01*
X38323Y150530D01*
X38323Y150070D01*
X38338Y149952D01*
X38345Y149833D01*
X38358Y149795D01*
X38363Y149754D01*
X38406Y149644D01*
X38443Y149531D01*
X38465Y149496D01*
X38480Y149459D01*
X38549Y149362D01*
X38613Y149262D01*
X38643Y149234D01*
X38666Y149201D01*
X38758Y149125D01*
X38845Y149044D01*
X38880Y149024D01*
X38911Y148999D01*
X39019Y148948D01*
X39123Y148890D01*
X39163Y148880D01*
X39199Y148863D01*
X39316Y148841D01*
X39431Y148811D01*
X39491Y148807D01*
X39511Y148803D01*
X39532Y148805D01*
X39592Y148801D01*
X40491Y148801D01*
X40491Y140598D01*
X40497Y140549D01*
X40495Y140499D01*
X40517Y140392D01*
X40531Y140282D01*
X40549Y140236D01*
X40559Y140188D01*
X40607Y140089D01*
X40648Y139987D01*
X40677Y139947D01*
X40699Y139902D01*
X40770Y139818D01*
X40834Y139729D01*
X40873Y139698D01*
X40905Y139660D01*
X40995Y139597D01*
X41079Y139527D01*
X41124Y139505D01*
X41165Y139477D01*
X41268Y139438D01*
X41367Y139391D01*
X41416Y139382D01*
X41462Y139364D01*
X41572Y139352D01*
X41679Y139331D01*
X41729Y139334D01*
X41778Y139329D01*
X41887Y139344D01*
X41997Y139351D01*
X42044Y139366D01*
X42093Y139373D01*
X42246Y139425D01*
X43248Y139841D01*
X45740Y139841D01*
X45754Y139843D01*
X45769Y139841D01*
X45912Y139862D01*
X46055Y139881D01*
X46069Y139886D01*
X46083Y139888D01*
X46217Y139945D01*
X46351Y139998D01*
X46363Y140006D01*
X46376Y140012D01*
X46491Y140100D01*
X46608Y140184D01*
X46618Y140196D01*
X46629Y140205D01*
X46718Y140318D01*
X46811Y140429D01*
X46817Y140443D01*
X46826Y140454D01*
X46885Y140587D01*
X46946Y140717D01*
X46949Y140732D01*
X46955Y140745D01*
X46979Y140888D01*
X47006Y141029D01*
X47005Y141044D01*
X47008Y141059D01*
X46995Y141203D01*
X46987Y141347D01*
X46982Y141361D01*
X46981Y141376D01*
X46933Y141513D01*
X46888Y141649D01*
X46881Y141662D01*
X46876Y141676D01*
X46795Y141815D01*
X45846Y143236D01*
X45199Y144797D01*
X45049Y145551D01*
X51701Y145551D01*
X51701Y138899D01*
X50952Y139048D01*
X50937Y139049D01*
X50923Y139054D01*
X50779Y139060D01*
X50634Y139071D01*
X50620Y139068D01*
X50605Y139069D01*
X50464Y139040D01*
X50322Y139014D01*
X50308Y139007D01*
X50294Y139004D01*
X50164Y138941D01*
X50033Y138880D01*
X50021Y138871D01*
X50008Y138865D01*
X49898Y138771D01*
X49786Y138680D01*
X49777Y138668D01*
X49766Y138658D01*
X49683Y138540D01*
X49597Y138424D01*
X49591Y138410D01*
X49583Y138398D01*
X49532Y138264D01*
X49477Y138129D01*
X49475Y138115D01*
X49470Y138101D01*
X49454Y137957D01*
X49435Y137814D01*
X49437Y137800D01*
X49435Y137785D01*
X49455Y137641D01*
X49472Y137498D01*
X49477Y137485D01*
X49479Y137470D01*
X49531Y137318D01*
X50491Y135002D01*
X50491Y133110D01*
X50506Y132992D01*
X50513Y132873D01*
X50526Y132835D01*
X50531Y132794D01*
X50574Y132684D01*
X50611Y132571D01*
X50633Y132536D01*
X50648Y132499D01*
X50717Y132403D01*
X50781Y132302D01*
X50811Y132274D01*
X50834Y132241D01*
X50926Y132165D01*
X51013Y132084D01*
X51048Y132064D01*
X51079Y132039D01*
X51187Y131988D01*
X51291Y131930D01*
X51331Y131920D01*
X51367Y131903D01*
X51484Y131881D01*
X51599Y131851D01*
X51659Y131847D01*
X51679Y131843D01*
X51700Y131845D01*
X51760Y131841D01*
X65087Y131841D01*
X65224Y131858D01*
G37*
G36*
X348527Y28709D02*
X348527Y28709D01*
X348576Y28707D01*
X348684Y28729D01*
X348793Y28743D01*
X348839Y28761D01*
X348888Y28771D01*
X348986Y28819D01*
X349088Y28860D01*
X349129Y28889D01*
X349173Y28911D01*
X349257Y28982D01*
X349346Y29046D01*
X349378Y29085D01*
X349415Y29117D01*
X349479Y29207D01*
X349549Y29291D01*
X349570Y29336D01*
X349598Y29377D01*
X349637Y29480D01*
X349684Y29579D01*
X349693Y29628D01*
X349711Y29674D01*
X349723Y29784D01*
X349744Y29891D01*
X349741Y29941D01*
X349746Y29990D01*
X349731Y30099D01*
X349724Y30209D01*
X349709Y30256D01*
X349702Y30305D01*
X349650Y30458D01*
X349122Y31731D01*
X349122Y34309D01*
X350108Y36689D01*
X351931Y38512D01*
X354311Y39498D01*
X356881Y39498D01*
X356979Y39510D01*
X357078Y39513D01*
X357137Y39530D01*
X357197Y39538D01*
X357289Y39574D01*
X357384Y39602D01*
X357436Y39632D01*
X357492Y39655D01*
X357572Y39713D01*
X357658Y39763D01*
X357733Y39829D01*
X357750Y39841D01*
X357758Y39851D01*
X357779Y39869D01*
X360816Y42906D01*
X360876Y42985D01*
X360944Y43057D01*
X360973Y43110D01*
X361010Y43158D01*
X361050Y43249D01*
X361098Y43335D01*
X361113Y43394D01*
X361137Y43449D01*
X361152Y43547D01*
X361177Y43643D01*
X361183Y43743D01*
X361187Y43764D01*
X361185Y43776D01*
X361187Y43804D01*
X361187Y79976D01*
X361175Y80074D01*
X361172Y80173D01*
X361165Y80196D01*
X361165Y80202D01*
X361155Y80233D01*
X361147Y80292D01*
X361111Y80384D01*
X361083Y80479D01*
X361053Y80531D01*
X361030Y80587D01*
X360972Y80667D01*
X360922Y80753D01*
X360856Y80828D01*
X360844Y80845D01*
X360834Y80852D01*
X360816Y80874D01*
X358998Y82691D01*
X358012Y85071D01*
X358012Y87649D01*
X359066Y90192D01*
X359079Y90240D01*
X359100Y90285D01*
X359121Y90393D01*
X359150Y90499D01*
X359151Y90549D01*
X359160Y90598D01*
X359153Y90707D01*
X359155Y90817D01*
X359143Y90865D01*
X359140Y90915D01*
X359106Y91019D01*
X359081Y91126D01*
X359058Y91170D01*
X359042Y91217D01*
X358983Y91310D01*
X358932Y91407D01*
X358899Y91444D01*
X358872Y91486D01*
X358792Y91561D01*
X358718Y91643D01*
X358677Y91670D01*
X358640Y91704D01*
X358544Y91757D01*
X358452Y91817D01*
X358405Y91834D01*
X358362Y91858D01*
X358256Y91885D01*
X358152Y91921D01*
X358102Y91925D01*
X358054Y91937D01*
X357893Y91947D01*
X340984Y91947D01*
X340886Y91935D01*
X340787Y91932D01*
X340728Y91915D01*
X340668Y91907D01*
X340576Y91871D01*
X340481Y91843D01*
X340429Y91813D01*
X340373Y91790D01*
X340293Y91732D01*
X340207Y91682D01*
X340132Y91616D01*
X340115Y91604D01*
X340107Y91594D01*
X340086Y91576D01*
X311014Y62504D01*
X310954Y62425D01*
X310886Y62353D01*
X310857Y62300D01*
X310820Y62252D01*
X310780Y62161D01*
X310732Y62075D01*
X310717Y62016D01*
X310693Y61961D01*
X310678Y61863D01*
X310653Y61767D01*
X310647Y61667D01*
X310643Y61646D01*
X310645Y61634D01*
X310643Y61606D01*
X310643Y54644D01*
X310655Y54546D01*
X310658Y54447D01*
X310675Y54388D01*
X310683Y54328D01*
X310719Y54236D01*
X310747Y54141D01*
X310777Y54089D01*
X310800Y54033D01*
X310858Y53953D01*
X310908Y53867D01*
X310974Y53792D01*
X310986Y53775D01*
X310996Y53768D01*
X311014Y53746D01*
X312832Y51929D01*
X313818Y49549D01*
X313818Y46971D01*
X312832Y44591D01*
X311009Y42768D01*
X308629Y41782D01*
X306051Y41782D01*
X303671Y42768D01*
X301848Y44591D01*
X300862Y46971D01*
X300862Y49549D01*
X301848Y51929D01*
X303666Y53746D01*
X303726Y53825D01*
X303794Y53897D01*
X303823Y53950D01*
X303860Y53998D01*
X303900Y54089D01*
X303948Y54175D01*
X303963Y54234D01*
X303987Y54290D01*
X304002Y54388D01*
X304027Y54483D01*
X304033Y54583D01*
X304037Y54604D01*
X304035Y54616D01*
X304037Y54644D01*
X304037Y62622D01*
X304020Y62760D01*
X304007Y62899D01*
X304000Y62918D01*
X303997Y62938D01*
X303946Y63067D01*
X303899Y63198D01*
X303888Y63215D01*
X303880Y63233D01*
X303799Y63346D01*
X303721Y63461D01*
X303705Y63474D01*
X303694Y63491D01*
X303586Y63579D01*
X303482Y63672D01*
X303464Y63681D01*
X303449Y63694D01*
X303323Y63753D01*
X303199Y63816D01*
X303179Y63821D01*
X303161Y63829D01*
X303025Y63855D01*
X302889Y63886D01*
X302868Y63885D01*
X302849Y63889D01*
X302710Y63880D01*
X302571Y63876D01*
X302551Y63870D01*
X302531Y63869D01*
X302399Y63826D01*
X302265Y63788D01*
X302248Y63777D01*
X302229Y63771D01*
X302111Y63697D01*
X301991Y63626D01*
X301970Y63608D01*
X301960Y63601D01*
X301946Y63586D01*
X301871Y63520D01*
X289424Y51074D01*
X289364Y50995D01*
X289296Y50923D01*
X289267Y50870D01*
X289230Y50822D01*
X289190Y50731D01*
X289142Y50645D01*
X289127Y50586D01*
X289103Y50531D01*
X289088Y50433D01*
X289063Y50337D01*
X289057Y50237D01*
X289053Y50216D01*
X289055Y50204D01*
X289053Y50176D01*
X289053Y40132D01*
X289068Y40014D01*
X289075Y39895D01*
X289088Y39857D01*
X289093Y39816D01*
X289136Y39706D01*
X289173Y39593D01*
X289195Y39558D01*
X289210Y39521D01*
X289279Y39425D01*
X289343Y39324D01*
X289373Y39296D01*
X289396Y39263D01*
X289488Y39187D01*
X289575Y39106D01*
X289610Y39086D01*
X289641Y39061D01*
X289749Y39010D01*
X289853Y38952D01*
X289893Y38942D01*
X289929Y38925D01*
X290046Y38903D01*
X290161Y38873D01*
X290221Y38869D01*
X290241Y38865D01*
X290262Y38867D01*
X290322Y38863D01*
X307438Y38863D01*
X312146Y34154D01*
X312225Y34094D01*
X312297Y34026D01*
X312350Y33997D01*
X312398Y33960D01*
X312489Y33920D01*
X312575Y33872D01*
X312634Y33857D01*
X312689Y33833D01*
X312787Y33818D01*
X312883Y33793D01*
X312983Y33787D01*
X313004Y33783D01*
X313016Y33785D01*
X313044Y33783D01*
X327758Y33783D01*
X332466Y29074D01*
X332545Y29014D01*
X332617Y28946D01*
X332670Y28917D01*
X332718Y28880D01*
X332809Y28840D01*
X332895Y28792D01*
X332954Y28777D01*
X333009Y28753D01*
X333107Y28738D01*
X333203Y28713D01*
X333303Y28707D01*
X333324Y28703D01*
X333336Y28705D01*
X333364Y28703D01*
X348477Y28703D01*
X348527Y28709D01*
G37*
G36*
X9332Y90347D02*
X9332Y90347D01*
X9444Y90353D01*
X9489Y90367D01*
X9536Y90373D01*
X9640Y90414D01*
X9748Y90447D01*
X9788Y90472D01*
X9832Y90490D01*
X9922Y90555D01*
X10018Y90615D01*
X10051Y90649D01*
X10089Y90676D01*
X10161Y90763D01*
X10239Y90844D01*
X10262Y90885D01*
X10292Y90921D01*
X10340Y91023D01*
X10395Y91121D01*
X10418Y91190D01*
X10427Y91209D01*
X10431Y91227D01*
X10447Y91273D01*
X10582Y91781D01*
X10917Y92360D01*
X11390Y92833D01*
X11969Y93168D01*
X12616Y93341D01*
X23951Y93341D01*
X23951Y91602D01*
X23966Y91484D01*
X23973Y91365D01*
X23985Y91327D01*
X23991Y91286D01*
X24034Y91176D01*
X24071Y91063D01*
X24093Y91028D01*
X24108Y90991D01*
X24177Y90895D01*
X24241Y90794D01*
X24271Y90766D01*
X24294Y90733D01*
X24386Y90657D01*
X24473Y90576D01*
X24508Y90556D01*
X24539Y90531D01*
X24647Y90480D01*
X24751Y90422D01*
X24791Y90412D01*
X24827Y90395D01*
X24944Y90373D01*
X25059Y90343D01*
X25119Y90339D01*
X25139Y90335D01*
X25160Y90337D01*
X25220Y90333D01*
X25680Y90333D01*
X25798Y90348D01*
X25917Y90355D01*
X25955Y90368D01*
X25996Y90373D01*
X26106Y90416D01*
X26219Y90453D01*
X26254Y90475D01*
X26291Y90490D01*
X26387Y90559D01*
X26488Y90623D01*
X26516Y90653D01*
X26549Y90676D01*
X26625Y90768D01*
X26706Y90855D01*
X26726Y90890D01*
X26751Y90921D01*
X26802Y91029D01*
X26860Y91133D01*
X26870Y91173D01*
X26887Y91209D01*
X26909Y91326D01*
X26939Y91441D01*
X26943Y91501D01*
X26947Y91521D01*
X26945Y91542D01*
X26949Y91602D01*
X26949Y93341D01*
X37140Y93341D01*
X37258Y93356D01*
X37377Y93363D01*
X37415Y93376D01*
X37456Y93381D01*
X37566Y93424D01*
X37679Y93461D01*
X37714Y93483D01*
X37751Y93498D01*
X37847Y93567D01*
X37948Y93631D01*
X37976Y93661D01*
X38009Y93684D01*
X38085Y93776D01*
X38166Y93863D01*
X38186Y93898D01*
X38211Y93929D01*
X38262Y94037D01*
X38320Y94141D01*
X38330Y94181D01*
X38347Y94217D01*
X38369Y94334D01*
X38399Y94449D01*
X38403Y94509D01*
X38407Y94529D01*
X38405Y94550D01*
X38409Y94610D01*
X38409Y96002D01*
X39329Y98222D01*
X41028Y99921D01*
X43248Y100841D01*
X44988Y100841D01*
X45106Y100856D01*
X45225Y100863D01*
X45263Y100876D01*
X45304Y100881D01*
X45414Y100924D01*
X45527Y100961D01*
X45562Y100983D01*
X45599Y100998D01*
X45695Y101067D01*
X45796Y101131D01*
X45824Y101161D01*
X45857Y101184D01*
X45933Y101276D01*
X46014Y101363D01*
X46034Y101398D01*
X46059Y101429D01*
X46110Y101537D01*
X46168Y101641D01*
X46178Y101681D01*
X46195Y101717D01*
X46217Y101834D01*
X46247Y101949D01*
X46251Y102009D01*
X46255Y102029D01*
X46253Y102050D01*
X46257Y102110D01*
X46257Y110142D01*
X47448Y111333D01*
X89819Y111333D01*
X89917Y111345D01*
X90016Y111348D01*
X90074Y111365D01*
X90134Y111373D01*
X90226Y111409D01*
X90321Y111437D01*
X90373Y111467D01*
X90430Y111490D01*
X90510Y111548D01*
X90595Y111598D01*
X90671Y111664D01*
X90687Y111676D01*
X90695Y111686D01*
X90716Y111704D01*
X93604Y114593D01*
X93689Y114702D01*
X93778Y114809D01*
X93787Y114828D01*
X93799Y114844D01*
X93855Y114972D01*
X93914Y115097D01*
X93917Y115117D01*
X93925Y115136D01*
X93947Y115274D01*
X93973Y115410D01*
X93972Y115430D01*
X93975Y115450D01*
X93962Y115589D01*
X93954Y115727D01*
X93947Y115746D01*
X93945Y115766D01*
X93898Y115898D01*
X93856Y116029D01*
X93845Y116047D01*
X93838Y116066D01*
X93760Y116181D01*
X93685Y116298D01*
X93671Y116312D01*
X93659Y116329D01*
X93555Y116421D01*
X93454Y116516D01*
X93436Y116526D01*
X93421Y116539D01*
X93297Y116603D01*
X93175Y116670D01*
X93156Y116675D01*
X93138Y116684D01*
X93002Y116714D01*
X92867Y116749D01*
X92839Y116751D01*
X92827Y116754D01*
X92807Y116753D01*
X92707Y116759D01*
X73789Y116759D01*
X73789Y123070D01*
X73774Y123188D01*
X73767Y123307D01*
X73754Y123345D01*
X73749Y123385D01*
X73706Y123496D01*
X73669Y123609D01*
X73647Y123643D01*
X73632Y123681D01*
X73563Y123777D01*
X73499Y123878D01*
X73469Y123906D01*
X73446Y123938D01*
X73354Y124014D01*
X73267Y124096D01*
X73232Y124115D01*
X73201Y124141D01*
X73093Y124192D01*
X72989Y124249D01*
X72949Y124259D01*
X72913Y124277D01*
X72796Y124299D01*
X72681Y124329D01*
X72621Y124333D01*
X72601Y124336D01*
X72580Y124335D01*
X72520Y124339D01*
X71329Y124339D01*
X71329Y125530D01*
X71314Y125648D01*
X71307Y125767D01*
X71294Y125805D01*
X71289Y125846D01*
X71245Y125956D01*
X71209Y126069D01*
X71187Y126104D01*
X71172Y126141D01*
X71102Y126237D01*
X71039Y126338D01*
X71009Y126366D01*
X70985Y126399D01*
X70894Y126475D01*
X70807Y126556D01*
X70772Y126576D01*
X70740Y126601D01*
X70633Y126652D01*
X70528Y126710D01*
X70489Y126720D01*
X70453Y126737D01*
X70336Y126759D01*
X70220Y126789D01*
X70160Y126793D01*
X70140Y126797D01*
X70120Y126795D01*
X70060Y126799D01*
X45710Y126799D01*
X45709Y126806D01*
X45666Y126916D01*
X45629Y127029D01*
X45607Y127064D01*
X45592Y127101D01*
X45523Y127197D01*
X45459Y127298D01*
X45429Y127326D01*
X45406Y127359D01*
X45314Y127435D01*
X45227Y127516D01*
X45192Y127536D01*
X45161Y127561D01*
X45053Y127612D01*
X44949Y127670D01*
X44909Y127680D01*
X44873Y127697D01*
X44756Y127719D01*
X44641Y127749D01*
X44581Y127753D01*
X44561Y127757D01*
X44540Y127755D01*
X44480Y127759D01*
X43248Y127759D01*
X41028Y128679D01*
X39329Y130378D01*
X38409Y132598D01*
X38409Y133990D01*
X38394Y134108D01*
X38387Y134227D01*
X38374Y134265D01*
X38369Y134306D01*
X38326Y134416D01*
X38289Y134529D01*
X38267Y134564D01*
X38252Y134601D01*
X38183Y134697D01*
X38119Y134798D01*
X38089Y134826D01*
X38066Y134859D01*
X37974Y134935D01*
X37887Y135016D01*
X37852Y135036D01*
X37821Y135061D01*
X37713Y135112D01*
X37609Y135170D01*
X37569Y135180D01*
X37533Y135197D01*
X37416Y135219D01*
X37301Y135249D01*
X37241Y135253D01*
X37221Y135257D01*
X37200Y135255D01*
X37140Y135259D01*
X26949Y135259D01*
X26949Y136998D01*
X26934Y137116D01*
X26927Y137235D01*
X26914Y137273D01*
X26909Y137314D01*
X26866Y137424D01*
X26829Y137537D01*
X26807Y137572D01*
X26792Y137609D01*
X26723Y137705D01*
X26659Y137806D01*
X26629Y137834D01*
X26606Y137867D01*
X26514Y137943D01*
X26427Y138024D01*
X26392Y138044D01*
X26361Y138069D01*
X26253Y138120D01*
X26149Y138178D01*
X26109Y138188D01*
X26073Y138205D01*
X25956Y138227D01*
X25841Y138257D01*
X25781Y138261D01*
X25761Y138265D01*
X25740Y138263D01*
X25680Y138267D01*
X25220Y138267D01*
X25102Y138252D01*
X24983Y138245D01*
X24945Y138232D01*
X24904Y138227D01*
X24794Y138184D01*
X24681Y138147D01*
X24646Y138125D01*
X24609Y138110D01*
X24512Y138041D01*
X24412Y137977D01*
X24384Y137947D01*
X24351Y137924D01*
X24275Y137832D01*
X24194Y137745D01*
X24174Y137710D01*
X24149Y137679D01*
X24098Y137571D01*
X24040Y137467D01*
X24030Y137427D01*
X24013Y137391D01*
X23991Y137274D01*
X23961Y137159D01*
X23957Y137099D01*
X23953Y137079D01*
X23955Y137058D01*
X23951Y136998D01*
X23951Y135259D01*
X12616Y135259D01*
X11969Y135432D01*
X11390Y135767D01*
X10917Y136240D01*
X10582Y136819D01*
X10447Y137327D01*
X10404Y137431D01*
X10369Y137537D01*
X10344Y137577D01*
X10326Y137621D01*
X10259Y137711D01*
X10199Y137806D01*
X10165Y137838D01*
X10137Y137876D01*
X10050Y137947D01*
X9968Y138024D01*
X9926Y138047D01*
X9890Y138077D01*
X9788Y138123D01*
X9689Y138178D01*
X9643Y138189D01*
X9601Y138209D01*
X9490Y138229D01*
X9381Y138257D01*
X9309Y138262D01*
X9288Y138265D01*
X9269Y138264D01*
X9221Y138267D01*
X6820Y138267D01*
X6683Y138250D01*
X6544Y138237D01*
X6525Y138230D01*
X6505Y138227D01*
X6376Y138176D01*
X6244Y138129D01*
X6228Y138118D01*
X6209Y138110D01*
X6096Y138029D01*
X5981Y137951D01*
X5968Y137935D01*
X5952Y137924D01*
X5863Y137816D01*
X5771Y137712D01*
X5762Y137694D01*
X5749Y137679D01*
X5689Y137553D01*
X5626Y137429D01*
X5622Y137409D01*
X5613Y137391D01*
X5587Y137255D01*
X5557Y137119D01*
X5557Y137098D01*
X5553Y137079D01*
X5562Y136940D01*
X5566Y136801D01*
X5572Y136781D01*
X5573Y136761D01*
X5616Y136629D01*
X5655Y136495D01*
X5665Y136478D01*
X5671Y136459D01*
X5746Y136341D01*
X5816Y136221D01*
X5835Y136200D01*
X5841Y136190D01*
X5856Y136176D01*
X5923Y136101D01*
X7621Y134402D01*
X7621Y94198D01*
X5923Y92499D01*
X5837Y92390D01*
X5749Y92283D01*
X5740Y92264D01*
X5728Y92248D01*
X5672Y92120D01*
X5613Y91995D01*
X5609Y91975D01*
X5601Y91956D01*
X5579Y91818D01*
X5553Y91682D01*
X5555Y91662D01*
X5551Y91642D01*
X5565Y91503D01*
X5573Y91365D01*
X5579Y91346D01*
X5581Y91326D01*
X5628Y91194D01*
X5671Y91063D01*
X5682Y91045D01*
X5689Y91026D01*
X5767Y90911D01*
X5841Y90794D01*
X5856Y90780D01*
X5867Y90763D01*
X5972Y90671D01*
X6073Y90576D01*
X6091Y90566D01*
X6106Y90553D01*
X6230Y90489D01*
X6351Y90422D01*
X6371Y90417D01*
X6389Y90408D01*
X6525Y90378D01*
X6659Y90343D01*
X6687Y90341D01*
X6699Y90338D01*
X6720Y90339D01*
X6820Y90333D01*
X9221Y90333D01*
X9332Y90347D01*
G37*
%LPC*%
G36*
X23676Y5780D02*
X23676Y5780D01*
X23658Y5780D01*
X23543Y5787D01*
X21499Y5787D01*
X20951Y6014D01*
X20852Y6041D01*
X20757Y6077D01*
X20665Y6092D01*
X20644Y6098D01*
X20631Y6098D01*
X20598Y6104D01*
X19416Y6228D01*
X19390Y6227D01*
X19364Y6232D01*
X19231Y6224D01*
X19173Y6223D01*
X19147Y6250D01*
X19125Y6265D01*
X19106Y6283D01*
X18972Y6372D01*
X16215Y7964D01*
X16213Y7965D01*
X16210Y7967D01*
X16066Y8038D01*
X14290Y8773D01*
X13693Y9370D01*
X13626Y9422D01*
X13565Y9483D01*
X13451Y9558D01*
X13442Y9565D01*
X13438Y9567D01*
X13431Y9572D01*
X11929Y10439D01*
X10139Y12903D01*
X10126Y12917D01*
X10116Y12933D01*
X10009Y13054D01*
X8773Y14290D01*
X8357Y15296D01*
X8322Y15356D01*
X8297Y15420D01*
X8211Y15556D01*
X7008Y17211D01*
X6447Y19849D01*
X6436Y19883D01*
X6431Y19919D01*
X6379Y20071D01*
X5787Y21499D01*
X5787Y22822D01*
X5781Y22874D01*
X5783Y22926D01*
X5760Y23086D01*
X5268Y25400D01*
X5760Y27714D01*
X5764Y27767D01*
X5777Y27817D01*
X5787Y27978D01*
X5787Y29301D01*
X6379Y30729D01*
X6388Y30763D01*
X6404Y30795D01*
X6447Y30951D01*
X7008Y33589D01*
X8211Y35244D01*
X8244Y35305D01*
X8286Y35360D01*
X8357Y35504D01*
X8773Y36510D01*
X10009Y37746D01*
X10021Y37761D01*
X10036Y37773D01*
X10139Y37897D01*
X11929Y40361D01*
X13431Y41228D01*
X13499Y41280D01*
X13573Y41324D01*
X13675Y41414D01*
X13684Y41421D01*
X13687Y41424D01*
X13693Y41430D01*
X14290Y42027D01*
X16066Y42762D01*
X16068Y42764D01*
X16071Y42764D01*
X16215Y42836D01*
X19179Y44547D01*
X20598Y44696D01*
X20698Y44720D01*
X20799Y44734D01*
X20887Y44764D01*
X20908Y44769D01*
X20920Y44775D01*
X20951Y44786D01*
X21499Y45013D01*
X23543Y45013D01*
X23560Y45015D01*
X23676Y45020D01*
X27504Y45422D01*
X28573Y45075D01*
X28690Y45053D01*
X28805Y45023D01*
X28865Y45019D01*
X28885Y45015D01*
X28906Y45017D01*
X28965Y45013D01*
X29301Y45013D01*
X31209Y44222D01*
X31230Y44217D01*
X31303Y44188D01*
X35466Y42835D01*
X36078Y42285D01*
X36189Y42207D01*
X36297Y42126D01*
X36327Y42111D01*
X36339Y42103D01*
X36359Y42096D01*
X36441Y42055D01*
X36510Y42027D01*
X37805Y40732D01*
X37819Y40721D01*
X37853Y40686D01*
X41687Y37234D01*
X41900Y36756D01*
X41979Y36626D01*
X42250Y35971D01*
X42255Y35962D01*
X42263Y35941D01*
X45092Y29586D01*
X45092Y21214D01*
X42263Y14859D01*
X42260Y14849D01*
X42250Y14829D01*
X41994Y14211D01*
X41975Y14187D01*
X41970Y14179D01*
X41968Y14175D01*
X41963Y14164D01*
X41900Y14044D01*
X41687Y13566D01*
X37853Y10114D01*
X37841Y10100D01*
X37805Y10068D01*
X36510Y8773D01*
X36441Y8745D01*
X36324Y8678D01*
X36204Y8615D01*
X36177Y8594D01*
X36165Y8587D01*
X36150Y8572D01*
X36078Y8515D01*
X35466Y7965D01*
X31302Y6612D01*
X31283Y6603D01*
X31209Y6577D01*
X29301Y5787D01*
X28965Y5787D01*
X28847Y5772D01*
X28729Y5765D01*
X28670Y5750D01*
X28650Y5747D01*
X28631Y5740D01*
X28573Y5725D01*
X27504Y5378D01*
X23676Y5780D01*
G37*
%LPD*%
%LPC*%
G36*
X23676Y183580D02*
X23676Y183580D01*
X23658Y183580D01*
X23543Y183587D01*
X21499Y183587D01*
X20951Y183814D01*
X20852Y183841D01*
X20757Y183877D01*
X20665Y183892D01*
X20644Y183898D01*
X20631Y183898D01*
X20598Y183904D01*
X19179Y184053D01*
X16215Y185764D01*
X16213Y185765D01*
X16210Y185767D01*
X16066Y185838D01*
X14290Y186573D01*
X13693Y187170D01*
X13626Y187222D01*
X13565Y187283D01*
X13451Y187358D01*
X13442Y187365D01*
X13438Y187367D01*
X13431Y187372D01*
X11929Y188239D01*
X10139Y190703D01*
X10126Y190717D01*
X10116Y190733D01*
X10009Y190854D01*
X8773Y192090D01*
X8357Y193096D01*
X8322Y193156D01*
X8297Y193220D01*
X8211Y193356D01*
X7008Y195011D01*
X6447Y197649D01*
X6436Y197683D01*
X6431Y197719D01*
X6379Y197871D01*
X5787Y199299D01*
X5787Y200622D01*
X5781Y200674D01*
X5783Y200726D01*
X5760Y200886D01*
X5268Y203200D01*
X5760Y205514D01*
X5764Y205567D01*
X5777Y205617D01*
X5787Y205778D01*
X5787Y207101D01*
X6379Y208529D01*
X6388Y208563D01*
X6404Y208595D01*
X6447Y208751D01*
X7008Y211389D01*
X8211Y213044D01*
X8244Y213105D01*
X8286Y213160D01*
X8357Y213304D01*
X8773Y214310D01*
X10009Y215546D01*
X10021Y215561D01*
X10036Y215573D01*
X10139Y215697D01*
X11929Y218161D01*
X13431Y219028D01*
X13499Y219080D01*
X13573Y219124D01*
X13675Y219214D01*
X13684Y219221D01*
X13687Y219224D01*
X13693Y219230D01*
X14290Y219827D01*
X16066Y220562D01*
X16068Y220564D01*
X16071Y220564D01*
X16215Y220636D01*
X18972Y222228D01*
X18993Y222244D01*
X19017Y222255D01*
X19119Y222339D01*
X19166Y222375D01*
X19203Y222368D01*
X19229Y222369D01*
X19256Y222365D01*
X19416Y222372D01*
X20598Y222496D01*
X20698Y222520D01*
X20799Y222534D01*
X20887Y222564D01*
X20908Y222569D01*
X20920Y222575D01*
X20951Y222586D01*
X21499Y222813D01*
X23543Y222813D01*
X23560Y222815D01*
X23676Y222820D01*
X27504Y223222D01*
X28573Y222875D01*
X28690Y222853D01*
X28805Y222823D01*
X28865Y222819D01*
X28885Y222815D01*
X28906Y222817D01*
X28965Y222813D01*
X29301Y222813D01*
X31209Y222022D01*
X31230Y222017D01*
X31303Y221988D01*
X35466Y220635D01*
X36078Y220085D01*
X36189Y220007D01*
X36297Y219926D01*
X36327Y219911D01*
X36339Y219903D01*
X36359Y219896D01*
X36441Y219855D01*
X36510Y219827D01*
X37805Y218532D01*
X37819Y218521D01*
X37853Y218486D01*
X41687Y215034D01*
X41900Y214556D01*
X41979Y214426D01*
X42250Y213771D01*
X42255Y213762D01*
X42263Y213741D01*
X45092Y207386D01*
X45092Y199014D01*
X42263Y192659D01*
X42260Y192649D01*
X42250Y192629D01*
X41994Y192011D01*
X41975Y191987D01*
X41970Y191979D01*
X41968Y191975D01*
X41963Y191964D01*
X41900Y191844D01*
X41687Y191366D01*
X37853Y187914D01*
X37841Y187900D01*
X37805Y187868D01*
X36510Y186573D01*
X36441Y186545D01*
X36324Y186478D01*
X36204Y186415D01*
X36177Y186394D01*
X36165Y186387D01*
X36150Y186372D01*
X36078Y186315D01*
X35466Y185765D01*
X31302Y184412D01*
X31283Y184403D01*
X31209Y184377D01*
X29301Y183587D01*
X28965Y183587D01*
X28847Y183572D01*
X28729Y183565D01*
X28670Y183550D01*
X28650Y183547D01*
X28631Y183540D01*
X28573Y183525D01*
X27504Y183178D01*
X23676Y183580D01*
G37*
%LPD*%
G36*
X205818Y170308D02*
X205818Y170308D01*
X205937Y170312D01*
X205976Y170323D01*
X206016Y170327D01*
X206129Y170367D01*
X206243Y170400D01*
X206277Y170421D01*
X206316Y170435D01*
X206414Y170501D01*
X206517Y170562D01*
X206562Y170602D01*
X206579Y170613D01*
X206592Y170628D01*
X206637Y170668D01*
X213262Y177293D01*
X221372Y177293D01*
X221510Y177310D01*
X221649Y177323D01*
X221668Y177330D01*
X221688Y177333D01*
X221817Y177384D01*
X221948Y177431D01*
X221965Y177442D01*
X221983Y177450D01*
X222096Y177531D01*
X222211Y177609D01*
X222224Y177625D01*
X222241Y177636D01*
X222330Y177744D01*
X222422Y177848D01*
X222431Y177866D01*
X222444Y177881D01*
X222503Y178007D01*
X222566Y178131D01*
X222571Y178151D01*
X222579Y178169D01*
X222605Y178305D01*
X222636Y178441D01*
X222635Y178462D01*
X222639Y178481D01*
X222630Y178620D01*
X222626Y178759D01*
X222620Y178779D01*
X222619Y178799D01*
X222576Y178931D01*
X222538Y179065D01*
X222527Y179082D01*
X222521Y179101D01*
X222447Y179219D01*
X222376Y179339D01*
X222358Y179360D01*
X222351Y179370D01*
X222336Y179384D01*
X222270Y179459D01*
X219846Y181884D01*
X195768Y205961D01*
X195745Y205979D01*
X195726Y206002D01*
X195620Y206076D01*
X195517Y206156D01*
X195490Y206168D01*
X195466Y206185D01*
X195344Y206231D01*
X195225Y206282D01*
X195196Y206287D01*
X195168Y206298D01*
X195039Y206312D01*
X194911Y206332D01*
X194881Y206330D01*
X194852Y206333D01*
X194724Y206315D01*
X194594Y206303D01*
X194566Y206293D01*
X194537Y206288D01*
X194385Y206236D01*
X192572Y205485D01*
X188428Y205485D01*
X184601Y207071D01*
X181671Y210001D01*
X180085Y213828D01*
X180085Y217972D01*
X181671Y221799D01*
X183764Y223893D01*
X183849Y224002D01*
X183938Y224109D01*
X183946Y224128D01*
X183959Y224144D01*
X184014Y224272D01*
X184073Y224397D01*
X184077Y224417D01*
X184085Y224436D01*
X184107Y224574D01*
X184133Y224710D01*
X184132Y224730D01*
X184135Y224750D01*
X184122Y224889D01*
X184113Y225027D01*
X184107Y225046D01*
X184105Y225066D01*
X184058Y225198D01*
X184015Y225329D01*
X184004Y225347D01*
X183998Y225366D01*
X183920Y225481D01*
X183845Y225598D01*
X183830Y225612D01*
X183819Y225629D01*
X183715Y225721D01*
X183614Y225816D01*
X183596Y225826D01*
X183581Y225839D01*
X183456Y225903D01*
X183335Y225970D01*
X183315Y225975D01*
X183297Y225984D01*
X183162Y226014D01*
X183027Y226049D01*
X182999Y226051D01*
X182987Y226054D01*
X182967Y226053D01*
X182866Y226059D01*
X172734Y226059D01*
X172596Y226042D01*
X172457Y226029D01*
X172438Y226022D01*
X172418Y226019D01*
X172289Y225968D01*
X172158Y225921D01*
X172141Y225910D01*
X172122Y225902D01*
X172010Y225821D01*
X171895Y225743D01*
X171881Y225727D01*
X171865Y225716D01*
X171776Y225608D01*
X171684Y225504D01*
X171675Y225486D01*
X171662Y225471D01*
X171603Y225344D01*
X171540Y225221D01*
X171535Y225201D01*
X171527Y225183D01*
X171501Y225047D01*
X171470Y224911D01*
X171471Y224890D01*
X171467Y224871D01*
X171476Y224732D01*
X171480Y224593D01*
X171485Y224573D01*
X171487Y224553D01*
X171529Y224421D01*
X171568Y224287D01*
X171578Y224270D01*
X171585Y224251D01*
X171659Y224133D01*
X171730Y224013D01*
X171748Y223992D01*
X171755Y223982D01*
X171770Y223968D01*
X171836Y223893D01*
X173929Y221799D01*
X175515Y217972D01*
X175515Y213828D01*
X173929Y210001D01*
X170999Y207071D01*
X170945Y207048D01*
X170901Y207023D01*
X170855Y207007D01*
X170764Y206945D01*
X170668Y206891D01*
X170633Y206856D01*
X170592Y206828D01*
X170519Y206746D01*
X170440Y206669D01*
X170414Y206627D01*
X170381Y206590D01*
X170331Y206492D01*
X170274Y206398D01*
X170259Y206351D01*
X170236Y206306D01*
X170212Y206199D01*
X170180Y206094D01*
X170178Y206045D01*
X170167Y205996D01*
X170170Y205886D01*
X170165Y205777D01*
X170175Y205728D01*
X170176Y205678D01*
X170207Y205573D01*
X170229Y205465D01*
X170251Y205420D01*
X170265Y205373D01*
X170321Y205278D01*
X170369Y205179D01*
X170401Y205142D01*
X170426Y205099D01*
X170533Y204978D01*
X204842Y170668D01*
X204937Y170595D01*
X205026Y170517D01*
X205062Y170498D01*
X205094Y170473D01*
X205203Y170426D01*
X205309Y170372D01*
X205348Y170363D01*
X205386Y170347D01*
X205503Y170328D01*
X205619Y170302D01*
X205660Y170303D01*
X205700Y170297D01*
X205818Y170308D01*
G37*
G36*
X70162Y177989D02*
X70162Y177989D01*
X70301Y177994D01*
X70321Y177999D01*
X70341Y178000D01*
X70473Y178043D01*
X70607Y178082D01*
X70624Y178092D01*
X70643Y178098D01*
X70761Y178173D01*
X70881Y178243D01*
X70902Y178262D01*
X70912Y178269D01*
X70926Y178283D01*
X71001Y178350D01*
X104046Y211394D01*
X104064Y211417D01*
X104086Y211436D01*
X104161Y211542D01*
X104241Y211645D01*
X104252Y211672D01*
X104269Y211696D01*
X104315Y211818D01*
X104367Y211937D01*
X104371Y211966D01*
X104382Y211994D01*
X104396Y212123D01*
X104417Y212251D01*
X104414Y212281D01*
X104417Y212310D01*
X104399Y212438D01*
X104387Y212568D01*
X104377Y212596D01*
X104373Y212625D01*
X104321Y212777D01*
X103885Y213828D01*
X103885Y217972D01*
X105471Y221799D01*
X107564Y223893D01*
X107649Y224002D01*
X107738Y224109D01*
X107746Y224128D01*
X107759Y224144D01*
X107814Y224272D01*
X107873Y224397D01*
X107877Y224417D01*
X107885Y224436D01*
X107907Y224574D01*
X107933Y224710D01*
X107932Y224730D01*
X107935Y224750D01*
X107922Y224889D01*
X107913Y225027D01*
X107907Y225046D01*
X107905Y225066D01*
X107858Y225198D01*
X107815Y225329D01*
X107804Y225347D01*
X107798Y225366D01*
X107720Y225481D01*
X107645Y225598D01*
X107630Y225612D01*
X107619Y225629D01*
X107515Y225721D01*
X107414Y225816D01*
X107396Y225826D01*
X107381Y225839D01*
X107256Y225903D01*
X107135Y225970D01*
X107115Y225975D01*
X107097Y225984D01*
X106962Y226014D01*
X106827Y226049D01*
X106799Y226051D01*
X106787Y226054D01*
X106767Y226053D01*
X106666Y226059D01*
X97252Y226059D01*
X97114Y226042D01*
X96976Y226029D01*
X96957Y226022D01*
X96936Y226019D01*
X96807Y225968D01*
X96676Y225921D01*
X96660Y225910D01*
X96641Y225902D01*
X96529Y225821D01*
X96413Y225743D01*
X96400Y225727D01*
X96383Y225716D01*
X96295Y225608D01*
X96203Y225504D01*
X96194Y225486D01*
X96181Y225471D01*
X96121Y225344D01*
X96058Y225221D01*
X96054Y225201D01*
X96045Y225183D01*
X96019Y225046D01*
X95989Y224911D01*
X95989Y224890D01*
X95985Y224871D01*
X95994Y224732D01*
X95998Y224593D01*
X96004Y224573D01*
X96005Y224553D01*
X96048Y224421D01*
X96087Y224287D01*
X96097Y224270D01*
X96103Y224251D01*
X96177Y224133D01*
X96248Y224013D01*
X96267Y223992D01*
X96273Y223982D01*
X96288Y223968D01*
X96355Y223893D01*
X97231Y223016D01*
X98242Y221625D01*
X99023Y220093D01*
X99554Y218458D01*
X99563Y218399D01*
X90130Y218399D01*
X90012Y218384D01*
X89893Y218377D01*
X89855Y218364D01*
X89815Y218359D01*
X89704Y218316D01*
X89591Y218279D01*
X89557Y218257D01*
X89519Y218242D01*
X89423Y218173D01*
X89322Y218109D01*
X89294Y218079D01*
X89262Y218056D01*
X89186Y217964D01*
X89104Y217877D01*
X89085Y217842D01*
X89059Y217811D01*
X89008Y217703D01*
X88951Y217599D01*
X88941Y217559D01*
X88923Y217523D01*
X88903Y217416D01*
X88899Y217446D01*
X88855Y217556D01*
X88819Y217669D01*
X88797Y217704D01*
X88782Y217741D01*
X88712Y217837D01*
X88649Y217938D01*
X88619Y217966D01*
X88595Y217999D01*
X88504Y218075D01*
X88417Y218156D01*
X88382Y218176D01*
X88350Y218201D01*
X88243Y218252D01*
X88138Y218310D01*
X88099Y218320D01*
X88063Y218337D01*
X87946Y218359D01*
X87830Y218389D01*
X87770Y218393D01*
X87750Y218397D01*
X87730Y218395D01*
X87670Y218399D01*
X78237Y218399D01*
X78246Y218458D01*
X78777Y220093D01*
X79558Y221625D01*
X80569Y223016D01*
X81445Y223893D01*
X81530Y224001D01*
X81619Y224109D01*
X81628Y224128D01*
X81640Y224144D01*
X81696Y224272D01*
X81755Y224397D01*
X81759Y224417D01*
X81767Y224436D01*
X81789Y224574D01*
X81815Y224710D01*
X81813Y224730D01*
X81817Y224750D01*
X81804Y224889D01*
X81795Y225027D01*
X81789Y225046D01*
X81787Y225066D01*
X81740Y225198D01*
X81697Y225329D01*
X81686Y225347D01*
X81679Y225366D01*
X81601Y225481D01*
X81527Y225598D01*
X81512Y225612D01*
X81501Y225629D01*
X81397Y225721D01*
X81295Y225816D01*
X81277Y225826D01*
X81262Y225839D01*
X81138Y225902D01*
X81017Y225970D01*
X80997Y225975D01*
X80979Y225984D01*
X80843Y226014D01*
X80709Y226049D01*
X80681Y226051D01*
X80669Y226054D01*
X80648Y226053D01*
X80548Y226059D01*
X71134Y226059D01*
X70996Y226042D01*
X70857Y226029D01*
X70838Y226022D01*
X70818Y226019D01*
X70689Y225968D01*
X70558Y225921D01*
X70541Y225910D01*
X70522Y225902D01*
X70410Y225821D01*
X70295Y225743D01*
X70281Y225727D01*
X70265Y225716D01*
X70176Y225608D01*
X70084Y225504D01*
X70075Y225486D01*
X70062Y225471D01*
X70003Y225344D01*
X69940Y225221D01*
X69935Y225201D01*
X69927Y225183D01*
X69901Y225047D01*
X69870Y224911D01*
X69871Y224890D01*
X69867Y224871D01*
X69876Y224732D01*
X69880Y224593D01*
X69885Y224573D01*
X69887Y224553D01*
X69929Y224421D01*
X69968Y224287D01*
X69978Y224270D01*
X69985Y224251D01*
X70059Y224133D01*
X70130Y224013D01*
X70148Y223992D01*
X70155Y223982D01*
X70170Y223968D01*
X70236Y223893D01*
X72329Y221799D01*
X73915Y217972D01*
X73915Y213828D01*
X72329Y210001D01*
X69297Y206968D01*
X69296Y206968D01*
X69290Y206961D01*
X69221Y206892D01*
X69203Y206870D01*
X69115Y206784D01*
X69099Y206758D01*
X69078Y206736D01*
X69016Y206623D01*
X68948Y206513D01*
X68939Y206484D01*
X68924Y206457D01*
X68892Y206333D01*
X68854Y206209D01*
X68853Y206179D01*
X68845Y206150D01*
X68835Y205989D01*
X68835Y179247D01*
X68852Y179110D01*
X68865Y178971D01*
X68872Y178952D01*
X68875Y178932D01*
X68926Y178803D01*
X68973Y178672D01*
X68984Y178655D01*
X68992Y178636D01*
X69073Y178524D01*
X69151Y178409D01*
X69167Y178395D01*
X69178Y178379D01*
X69286Y178290D01*
X69390Y178198D01*
X69408Y178189D01*
X69423Y178176D01*
X69549Y178117D01*
X69673Y178054D01*
X69693Y178049D01*
X69711Y178040D01*
X69847Y178014D01*
X69983Y177984D01*
X70004Y177984D01*
X70023Y177981D01*
X70162Y177989D01*
G37*
%LPC*%
G36*
X47956Y116759D02*
X47956Y116759D01*
X47309Y116932D01*
X46730Y117267D01*
X46257Y117740D01*
X45922Y118319D01*
X45749Y118966D01*
X45749Y121801D01*
X68791Y121801D01*
X68791Y116759D01*
X47956Y116759D01*
G37*
%LPD*%
%LPC*%
G36*
X55199Y79551D02*
X55199Y79551D01*
X62031Y79551D01*
X62031Y68375D01*
X61701Y66717D01*
X61054Y65156D01*
X60115Y63750D01*
X58920Y62555D01*
X57514Y61616D01*
X55953Y60969D01*
X55199Y60819D01*
X55199Y79551D01*
G37*
%LPD*%
%LPC*%
G36*
X44869Y149049D02*
X44869Y149049D01*
X44869Y160225D01*
X45199Y161883D01*
X45846Y163444D01*
X46785Y164850D01*
X47980Y166045D01*
X49386Y166984D01*
X50947Y167631D01*
X51701Y167781D01*
X51701Y149049D01*
X44869Y149049D01*
G37*
%LPD*%
%LPC*%
G36*
X50947Y60969D02*
X50947Y60969D01*
X49386Y61616D01*
X47980Y62555D01*
X46785Y63750D01*
X45846Y65156D01*
X45199Y66717D01*
X44869Y68375D01*
X44869Y79551D01*
X51701Y79551D01*
X51701Y60819D01*
X50947Y60969D01*
G37*
%LPD*%
%LPC*%
G36*
X142199Y15199D02*
X142199Y15199D01*
X142199Y23363D01*
X142258Y23354D01*
X143893Y22823D01*
X145425Y22042D01*
X146816Y21031D01*
X148031Y19816D01*
X149042Y18425D01*
X149823Y16893D01*
X150354Y15258D01*
X150363Y15199D01*
X142199Y15199D01*
G37*
%LPD*%
%LPC*%
G36*
X446999Y213401D02*
X446999Y213401D01*
X455163Y213401D01*
X455154Y213342D01*
X454623Y211707D01*
X453842Y210175D01*
X452831Y208784D01*
X451616Y207569D01*
X450225Y206558D01*
X448693Y205777D01*
X447058Y205246D01*
X446999Y205237D01*
X446999Y213401D01*
G37*
%LPD*%
%LPC*%
G36*
X91399Y213401D02*
X91399Y213401D01*
X99563Y213401D01*
X99554Y213342D01*
X99023Y211707D01*
X98242Y210175D01*
X97231Y208784D01*
X96016Y207569D01*
X94625Y206558D01*
X93093Y205777D01*
X91458Y205246D01*
X91399Y205237D01*
X91399Y213401D01*
G37*
%LPD*%
%LPC*%
G36*
X129037Y15199D02*
X129037Y15199D01*
X129046Y15258D01*
X129577Y16893D01*
X130358Y18425D01*
X131369Y19816D01*
X132584Y21031D01*
X133975Y22042D01*
X135507Y22823D01*
X137142Y23354D01*
X137201Y23363D01*
X137201Y15199D01*
X129037Y15199D01*
G37*
%LPD*%
%LPC*%
G36*
X86342Y205246D02*
X86342Y205246D01*
X84707Y205777D01*
X83175Y206558D01*
X81784Y207569D01*
X80569Y208784D01*
X79558Y210175D01*
X78777Y211707D01*
X78246Y213342D01*
X78237Y213401D01*
X86401Y213401D01*
X86401Y205237D01*
X86342Y205246D01*
G37*
%LPD*%
%LPC*%
G36*
X441942Y205246D02*
X441942Y205246D01*
X440307Y205777D01*
X438775Y206558D01*
X437384Y207569D01*
X436169Y208784D01*
X435158Y210175D01*
X434377Y211707D01*
X433846Y213342D01*
X433837Y213401D01*
X442001Y213401D01*
X442001Y205237D01*
X441942Y205246D01*
G37*
%LPD*%
%LPC*%
G36*
X55199Y83049D02*
X55199Y83049D01*
X55199Y89701D01*
X55953Y89551D01*
X57514Y88904D01*
X58920Y87965D01*
X60115Y86770D01*
X61054Y85364D01*
X61701Y83803D01*
X61851Y83049D01*
X55199Y83049D01*
G37*
%LPD*%
D10*
X25400Y203200D03*
X25400Y25400D03*
X485140Y22860D03*
D11*
X25450Y78300D03*
X25450Y150300D03*
D12*
X53450Y147300D02*
X53450Y159380D01*
X53450Y81300D02*
X53450Y69220D01*
D13*
X431800Y88900D03*
X406400Y88900D03*
D14*
X63500Y215900D03*
X88900Y215900D03*
X114300Y215900D03*
X139700Y215900D03*
X165100Y215900D03*
X190500Y215900D03*
X215900Y215900D03*
X241300Y215900D03*
X266700Y215900D03*
X292100Y215900D03*
X317500Y215900D03*
X342900Y215900D03*
X368300Y215900D03*
X393700Y215900D03*
X419100Y215900D03*
X444500Y215900D03*
X444500Y12700D03*
X419100Y12700D03*
X393700Y12700D03*
X368300Y12700D03*
X342900Y12700D03*
X317500Y12700D03*
X292100Y12700D03*
X266700Y12700D03*
X241300Y12700D03*
X215900Y12700D03*
X190500Y12700D03*
X165100Y12700D03*
X139700Y12700D03*
X114300Y12700D03*
X88900Y12700D03*
X63500Y12700D03*
D10*
X482600Y203200D03*
D13*
X381000Y88900D03*
D15*
X71290Y124300D03*
X71290Y104300D03*
D16*
X19290Y148300D03*
X19290Y80300D03*
D17*
X194310Y189230D03*
X162560Y158750D03*
X227330Y128270D03*
X106680Y67310D03*
X141224Y181356D03*
X177800Y204470D03*
X125730Y119380D03*
X448310Y83820D03*
X345440Y184150D03*
X252730Y86360D03*
X294640Y44450D03*
X334010Y62230D03*
X346710Y83820D03*
X445770Y123190D03*
X283210Y111760D03*
X347980Y110490D03*
X425450Y156210D03*
X105410Y187960D03*
X403860Y111760D03*
D18*
X71290Y124300D02*
X62390Y124300D01*
X55880Y130810D01*
X55880Y144870D01*
X53450Y147300D01*
D17*
X45720Y219710D03*
X85090Y143510D03*
X219710Y69850D03*
D19*
X219710Y67310D01*
X215900Y63500D01*
X215900Y48260D01*
X223520Y40640D01*
X237490Y40640D01*
X242570Y35560D01*
X251460Y35560D01*
X256540Y30480D01*
D17*
X364490Y86360D03*
D19*
X364490Y41910D01*
X355600Y33020D01*
D17*
X355600Y33020D03*
D19*
X303530Y30480D02*
X256540Y30480D01*
X303530Y30480D02*
X308610Y25400D01*
X322580Y25400D01*
X335280Y12700D01*
X342900Y12700D01*
D17*
X226060Y58420D03*
D19*
X243840Y41910D02*
X252730Y41910D01*
X259080Y35560D01*
X284480Y35560D01*
D17*
X391160Y124460D03*
D19*
X381000Y114300D01*
X369570Y114300D01*
X355600Y100330D01*
X334010Y100330D01*
X285750Y52070D01*
X285750Y36830D01*
X284480Y35560D01*
X306070Y35560D01*
X311150Y30480D01*
X326390Y30480D01*
X331470Y25400D01*
X349250Y25400D01*
X361950Y12700D01*
X368300Y12700D01*
X243840Y41910D02*
X227330Y58420D01*
X226060Y58420D01*
D17*
X195580Y45720D03*
D19*
X200660Y40640D02*
X212090Y40640D01*
X217170Y35560D01*
X234950Y35560D01*
X240030Y30480D01*
X248920Y30480D01*
X254000Y25400D01*
X300990Y25400D01*
X313690Y12700D01*
X317500Y12700D01*
D17*
X388620Y109220D03*
X307340Y48260D03*
D19*
X307340Y63500D01*
X339090Y95250D01*
X358140Y95250D01*
X372110Y109220D01*
X388620Y109220D01*
X200660Y40640D02*
X195580Y45720D01*
X97790Y46990D02*
X63500Y12700D01*
X97790Y46990D02*
X99060Y48260D01*
X106680Y48260D01*
D17*
X106680Y48260D03*
X152400Y30480D03*
D19*
X147320Y35560D01*
X147320Y135890D01*
X128270Y154940D01*
X113030Y154940D01*
X105410Y147320D01*
X105410Y86360D01*
X97790Y78740D01*
X97790Y46990D01*
D17*
X219710Y88900D03*
D19*
X219710Y85090D02*
X260350Y44450D01*
D17*
X265684Y43434D03*
D19*
X219710Y85090D02*
X219710Y88900D01*
X260350Y44450D02*
X264668Y44450D01*
X265684Y43434D01*
D17*
X220980Y101600D03*
D19*
X218440Y101600D01*
X185420Y68580D01*
X185420Y40640D01*
X190500Y35560D01*
X209550Y35560D01*
X214630Y30480D01*
X232410Y30480D01*
X237490Y25400D01*
X246380Y25400D01*
X259080Y12700D01*
X266700Y12700D01*
D17*
X217170Y113030D03*
D19*
X180340Y76200D01*
X180340Y38100D01*
X187960Y30480D01*
X207010Y30480D01*
X212090Y25400D01*
X229870Y25400D01*
X241300Y13970D01*
X241300Y12700D01*
D17*
X215900Y124460D03*
D19*
X212090Y124460D02*
X175260Y87630D01*
X175260Y35560D01*
X185420Y25400D01*
X203200Y25400D01*
X215900Y12700D01*
X215900Y124460D02*
X212090Y124460D01*
D17*
X218440Y135890D03*
D19*
X213360Y135890D01*
X170180Y93980D02*
X170180Y33020D01*
X190500Y12700D01*
X170180Y93980D02*
X212090Y135890D01*
X218440Y135890D01*
D17*
X264160Y189230D03*
D19*
X316230Y189230D01*
X342900Y215900D01*
X223520Y182880D02*
X190500Y215900D01*
X223520Y182880D02*
X238760Y182880D01*
X251460Y170180D01*
X251460Y153670D01*
X236220Y138430D02*
X236220Y107950D01*
X241300Y102870D01*
D17*
X241300Y102870D03*
D19*
X236220Y138430D02*
X251460Y153670D01*
X257810Y147320D02*
X257810Y172720D01*
D17*
X257810Y147320D03*
D19*
X257810Y172720D02*
X215900Y214630D01*
X215900Y215900D01*
D17*
X281940Y176530D03*
D19*
X281940Y163830D01*
X293370Y152400D01*
X356870Y152400D01*
X360680Y148590D01*
X360680Y139700D01*
D17*
X360680Y139700D03*
X237490Y152400D03*
D19*
X205740Y165100D02*
X163830Y207010D01*
X163830Y214630D01*
X165100Y215900D01*
X214630Y173990D02*
X205740Y165100D01*
X214630Y173990D02*
X240030Y173990D01*
X246380Y167640D01*
X246380Y158750D01*
X240030Y152400D01*
X237490Y152400D01*
X270510Y113030D02*
X270510Y106680D01*
D17*
X270510Y106680D03*
D19*
X270510Y113030D02*
X278130Y120650D01*
X368300Y120650D01*
X419100Y171450D01*
X419100Y215900D01*
X292100Y215900D02*
X292100Y207010D01*
X283210Y198120D01*
X259080Y198120D01*
X255270Y194310D01*
X255270Y184150D01*
X266700Y172720D01*
X266700Y143510D01*
D17*
X245110Y123190D03*
D19*
X266700Y143510D02*
X347980Y143510D01*
D17*
X347980Y143510D03*
D19*
X266700Y143510D02*
X246380Y123190D01*
X245110Y123190D01*
D17*
X123190Y138430D03*
D18*
X115570Y130810D01*
X115570Y76200D01*
X116840Y74930D01*
X116840Y44450D01*
X88900Y16510D01*
X88900Y12700D01*
D17*
X73660Y146050D03*
D18*
X73660Y175260D01*
X114300Y215900D01*
X89060Y104300D02*
X71290Y104300D01*
X89060Y104300D02*
X99060Y114300D01*
X99060Y130810D01*
X95250Y134620D01*
X71120Y134620D01*
X64770Y140970D01*
X64770Y171450D01*
X64770Y214630D01*
X63500Y215900D01*
D20*
X63500Y171450D03*
D21*
X64770Y171450D01*
D17*
X424180Y88900D03*
D19*
X431800Y88900D01*
D17*
X407670Y88900D03*
D19*
X407670Y90170D01*
X406400Y88900D01*
D17*
X389890Y88900D03*
D19*
X381000Y88900D01*
X114300Y27940D02*
X114300Y12700D01*
X114300Y27940D02*
X130810Y44450D01*
X130810Y102870D01*
D17*
X127000Y104140D03*
D19*
X129540Y104140D02*
X130810Y102870D01*
X129540Y104140D02*
X127000Y104140D01*
D17*
X237490Y165100D03*
D19*
X201930Y153670D02*
X139700Y215900D01*
X201930Y153670D02*
X213360Y165100D01*
X237490Y165100D01*
D17*
X214630Y148590D03*
D19*
X165100Y101600D02*
X165100Y12700D01*
X165100Y101600D02*
X212090Y148590D01*
X214630Y148590D01*
D17*
X261620Y97790D03*
D19*
X259080Y100330D01*
X259080Y113030D01*
X273050Y127000D02*
X367030Y127000D01*
X393700Y153670D01*
X393700Y215900D01*
X273050Y127000D02*
X259080Y113030D01*
M02*
