G04 EAGLE Gerber RS-274X export*
G75*
%MOMM*%
%FSLAX34Y34*%
%LPD*%
%IN*%
%IPPOS*%
%AMOC8*
5,1,8,0,0,1.08239X$1,22.5*%
G01*
%ADD10C,0.254000*%


D10*
X0Y25400D02*
X97Y23186D01*
X386Y20989D01*
X865Y18826D01*
X1532Y16713D01*
X2380Y14666D01*
X3403Y12700D01*
X4594Y10831D01*
X5942Y9073D01*
X7440Y7440D01*
X9073Y5942D01*
X10831Y4594D01*
X12700Y3403D01*
X14666Y2380D01*
X16713Y1532D01*
X18826Y865D01*
X20989Y386D01*
X23186Y97D01*
X25400Y0D01*
X228600Y0D01*
X230814Y97D01*
X233011Y386D01*
X235174Y865D01*
X237287Y1532D01*
X239335Y2380D01*
X241300Y3403D01*
X243169Y4594D01*
X244927Y5942D01*
X246561Y7440D01*
X248058Y9073D01*
X249406Y10831D01*
X250597Y12700D01*
X251620Y14666D01*
X252468Y16713D01*
X253135Y18826D01*
X253614Y20989D01*
X253903Y23186D01*
X254000Y25400D01*
X254000Y152400D01*
X253903Y154614D01*
X253614Y156811D01*
X253135Y158974D01*
X252468Y161087D01*
X251620Y163135D01*
X250597Y165100D01*
X249406Y166969D01*
X248058Y168727D01*
X246561Y170361D01*
X244927Y171858D01*
X243169Y173206D01*
X241300Y174397D01*
X239335Y175420D01*
X237287Y176268D01*
X235174Y176935D01*
X233011Y177414D01*
X230814Y177703D01*
X228600Y177800D01*
X25400Y177800D01*
X23186Y177703D01*
X20989Y177414D01*
X18826Y176935D01*
X16713Y176268D01*
X14666Y175420D01*
X12700Y174397D01*
X10831Y173206D01*
X9073Y171858D01*
X7440Y170361D01*
X5942Y168727D01*
X4594Y166969D01*
X3403Y165100D01*
X2380Y163135D01*
X1532Y161087D01*
X865Y158974D01*
X386Y156811D01*
X97Y154614D01*
X0Y152400D01*
X0Y25400D01*
X47870Y132100D02*
X47881Y131839D01*
X47916Y131579D01*
X47972Y131324D01*
X48051Y131074D01*
X48151Y130832D01*
X48272Y130600D01*
X48413Y130379D01*
X48572Y130172D01*
X48749Y129979D01*
X48942Y129802D01*
X49149Y129643D01*
X49370Y129502D01*
X49602Y129381D01*
X49844Y129281D01*
X50094Y129202D01*
X50349Y129146D01*
X50609Y129111D01*
X50870Y129100D01*
X61870Y129100D01*
X62131Y129111D01*
X62391Y129146D01*
X62646Y129202D01*
X62896Y129281D01*
X63138Y129381D01*
X63370Y129502D01*
X63591Y129643D01*
X63798Y129802D01*
X63991Y129979D01*
X64168Y130172D01*
X64327Y130379D01*
X64468Y130600D01*
X64589Y130832D01*
X64689Y131074D01*
X64768Y131324D01*
X64824Y131579D01*
X64859Y131839D01*
X64870Y132100D01*
X64859Y132361D01*
X64824Y132621D01*
X64768Y132876D01*
X64689Y133126D01*
X64589Y133368D01*
X64468Y133600D01*
X64327Y133821D01*
X64168Y134028D01*
X63991Y134221D01*
X63798Y134398D01*
X63591Y134557D01*
X63370Y134698D01*
X63138Y134819D01*
X62896Y134919D01*
X62646Y134998D01*
X62391Y135054D01*
X62131Y135089D01*
X61870Y135100D01*
X50870Y135100D01*
X50609Y135089D01*
X50349Y135054D01*
X50094Y134998D01*
X49844Y134919D01*
X49602Y134819D01*
X49370Y134698D01*
X49149Y134557D01*
X48942Y134398D01*
X48749Y134221D01*
X48572Y134028D01*
X48413Y133821D01*
X48272Y133600D01*
X48151Y133368D01*
X48051Y133126D01*
X47972Y132876D01*
X47916Y132621D01*
X47881Y132361D01*
X47870Y132100D01*
X47870Y45700D02*
X47881Y45439D01*
X47916Y45179D01*
X47972Y44924D01*
X48051Y44674D01*
X48151Y44432D01*
X48272Y44200D01*
X48413Y43979D01*
X48572Y43772D01*
X48749Y43579D01*
X48942Y43402D01*
X49149Y43243D01*
X49370Y43102D01*
X49602Y42981D01*
X49844Y42881D01*
X50094Y42802D01*
X50349Y42746D01*
X50609Y42711D01*
X50870Y42700D01*
X61870Y42700D01*
X62131Y42711D01*
X62391Y42746D01*
X62646Y42802D01*
X62896Y42881D01*
X63138Y42981D01*
X63370Y43102D01*
X63591Y43243D01*
X63798Y43402D01*
X63991Y43579D01*
X64168Y43772D01*
X64327Y43979D01*
X64468Y44200D01*
X64589Y44432D01*
X64689Y44674D01*
X64768Y44924D01*
X64824Y45179D01*
X64859Y45439D01*
X64870Y45700D01*
X64859Y45961D01*
X64824Y46221D01*
X64768Y46476D01*
X64689Y46726D01*
X64589Y46968D01*
X64468Y47200D01*
X64327Y47421D01*
X64168Y47628D01*
X63991Y47821D01*
X63798Y47998D01*
X63591Y48157D01*
X63370Y48298D01*
X63138Y48419D01*
X62896Y48519D01*
X62646Y48598D01*
X62391Y48654D01*
X62131Y48689D01*
X61870Y48700D01*
X50870Y48700D01*
X50609Y48689D01*
X50349Y48654D01*
X50094Y48598D01*
X49844Y48519D01*
X49602Y48419D01*
X49370Y48298D01*
X49149Y48157D01*
X48942Y47998D01*
X48749Y47821D01*
X48572Y47628D01*
X48413Y47421D01*
X48272Y47200D01*
X48151Y46968D01*
X48051Y46726D01*
X47972Y46476D01*
X47916Y46221D01*
X47881Y45961D01*
X47870Y45700D01*
X8570Y45700D02*
X8581Y45439D01*
X8616Y45179D01*
X8672Y44924D01*
X8751Y44674D01*
X8851Y44432D01*
X8972Y44200D01*
X9113Y43979D01*
X9272Y43772D01*
X9449Y43579D01*
X9642Y43402D01*
X9849Y43243D01*
X10070Y43102D01*
X10302Y42981D01*
X10544Y42881D01*
X10794Y42802D01*
X11049Y42746D01*
X11309Y42711D01*
X11570Y42700D01*
X17570Y42700D01*
X17831Y42711D01*
X18091Y42746D01*
X18346Y42802D01*
X18596Y42881D01*
X18838Y42981D01*
X19070Y43102D01*
X19291Y43243D01*
X19498Y43402D01*
X19691Y43579D01*
X19868Y43772D01*
X20027Y43979D01*
X20168Y44200D01*
X20289Y44432D01*
X20389Y44674D01*
X20468Y44924D01*
X20524Y45179D01*
X20559Y45439D01*
X20570Y45700D01*
X20559Y45961D01*
X20524Y46221D01*
X20468Y46476D01*
X20389Y46726D01*
X20289Y46968D01*
X20168Y47200D01*
X20027Y47421D01*
X19868Y47628D01*
X19691Y47821D01*
X19498Y47998D01*
X19291Y48157D01*
X19070Y48298D01*
X18838Y48419D01*
X18596Y48519D01*
X18346Y48598D01*
X18091Y48654D01*
X17831Y48689D01*
X17570Y48700D01*
X11570Y48700D01*
X11309Y48689D01*
X11049Y48654D01*
X10794Y48598D01*
X10544Y48519D01*
X10302Y48419D01*
X10070Y48298D01*
X9849Y48157D01*
X9642Y47998D01*
X9449Y47821D01*
X9272Y47628D01*
X9113Y47421D01*
X8972Y47200D01*
X8851Y46968D01*
X8751Y46726D01*
X8672Y46476D01*
X8616Y46221D01*
X8581Y45961D01*
X8570Y45700D01*
X8570Y132100D02*
X8581Y131839D01*
X8616Y131579D01*
X8672Y131324D01*
X8751Y131074D01*
X8851Y130832D01*
X8972Y130600D01*
X9113Y130379D01*
X9272Y130172D01*
X9449Y129979D01*
X9642Y129802D01*
X9849Y129643D01*
X10070Y129502D01*
X10302Y129381D01*
X10544Y129281D01*
X10794Y129202D01*
X11049Y129146D01*
X11309Y129111D01*
X11570Y129100D01*
X17570Y129100D01*
X17831Y129111D01*
X18091Y129146D01*
X18346Y129202D01*
X18596Y129281D01*
X18838Y129381D01*
X19070Y129502D01*
X19291Y129643D01*
X19498Y129802D01*
X19691Y129979D01*
X19868Y130172D01*
X20027Y130379D01*
X20168Y130600D01*
X20289Y130832D01*
X20389Y131074D01*
X20468Y131324D01*
X20524Y131579D01*
X20559Y131839D01*
X20570Y132100D01*
X20559Y132361D01*
X20524Y132621D01*
X20468Y132876D01*
X20389Y133126D01*
X20289Y133368D01*
X20168Y133600D01*
X20027Y133821D01*
X19868Y134028D01*
X19691Y134221D01*
X19498Y134398D01*
X19291Y134557D01*
X19070Y134698D01*
X18838Y134819D01*
X18596Y134919D01*
X18346Y134998D01*
X18091Y135054D01*
X17831Y135089D01*
X17570Y135100D01*
X11570Y135100D01*
X11309Y135089D01*
X11049Y135054D01*
X10794Y134998D01*
X10544Y134919D01*
X10302Y134819D01*
X10070Y134698D01*
X9849Y134557D01*
X9642Y134398D01*
X9449Y134221D01*
X9272Y134028D01*
X9113Y133821D01*
X8972Y133600D01*
X8851Y133368D01*
X8751Y133126D01*
X8672Y132876D01*
X8616Y132621D01*
X8581Y132361D01*
X8570Y132100D01*
X38100Y151901D02*
X38022Y150906D01*
X37866Y149920D01*
X37633Y148950D01*
X37324Y148001D01*
X36942Y147079D01*
X36489Y146190D01*
X35968Y145339D01*
X35381Y144531D01*
X34733Y143773D01*
X34027Y143067D01*
X33269Y142419D01*
X32461Y141832D01*
X31610Y141311D01*
X30721Y140858D01*
X29799Y140476D01*
X28850Y140167D01*
X27880Y139934D01*
X26894Y139778D01*
X25899Y139700D01*
X24901Y139700D01*
X23906Y139778D01*
X22920Y139934D01*
X21950Y140167D01*
X21001Y140476D01*
X20079Y140858D01*
X19190Y141311D01*
X18339Y141832D01*
X17531Y142419D01*
X16773Y143067D01*
X16067Y143773D01*
X15419Y144531D01*
X14832Y145339D01*
X14311Y146190D01*
X13858Y147079D01*
X13476Y148001D01*
X13167Y148950D01*
X12934Y149920D01*
X12778Y150906D01*
X12700Y151901D01*
X12700Y152899D01*
X12778Y153894D01*
X12934Y154880D01*
X13167Y155850D01*
X13476Y156799D01*
X13858Y157721D01*
X14311Y158610D01*
X14832Y159461D01*
X15419Y160269D01*
X16067Y161027D01*
X16773Y161733D01*
X17531Y162381D01*
X18339Y162968D01*
X19190Y163489D01*
X20079Y163942D01*
X21001Y164324D01*
X21950Y164633D01*
X22920Y164866D01*
X23906Y165022D01*
X24901Y165100D01*
X25899Y165100D01*
X26894Y165022D01*
X27880Y164866D01*
X28850Y164633D01*
X29799Y164324D01*
X30721Y163942D01*
X31610Y163489D01*
X32461Y162968D01*
X33269Y162381D01*
X34027Y161733D01*
X34733Y161027D01*
X35381Y160269D01*
X35968Y159461D01*
X36489Y158610D01*
X36942Y157721D01*
X37324Y156799D01*
X37633Y155850D01*
X37866Y154880D01*
X38022Y153894D01*
X38100Y152899D01*
X38100Y151901D01*
X38100Y24901D02*
X38022Y23906D01*
X37866Y22920D01*
X37633Y21950D01*
X37324Y21001D01*
X36942Y20079D01*
X36489Y19190D01*
X35968Y18339D01*
X35381Y17531D01*
X34733Y16773D01*
X34027Y16067D01*
X33269Y15419D01*
X32461Y14832D01*
X31610Y14311D01*
X30721Y13858D01*
X29799Y13476D01*
X28850Y13167D01*
X27880Y12934D01*
X26894Y12778D01*
X25899Y12700D01*
X24901Y12700D01*
X23906Y12778D01*
X22920Y12934D01*
X21950Y13167D01*
X21001Y13476D01*
X20079Y13858D01*
X19190Y14311D01*
X18339Y14832D01*
X17531Y15419D01*
X16773Y16067D01*
X16067Y16773D01*
X15419Y17531D01*
X14832Y18339D01*
X14311Y19190D01*
X13858Y20079D01*
X13476Y21001D01*
X13167Y21950D01*
X12934Y22920D01*
X12778Y23906D01*
X12700Y24901D01*
X12700Y25899D01*
X12778Y26894D01*
X12934Y27880D01*
X13167Y28850D01*
X13476Y29799D01*
X13858Y30721D01*
X14311Y31610D01*
X14832Y32461D01*
X15419Y33269D01*
X16067Y34027D01*
X16773Y34733D01*
X17531Y35381D01*
X18339Y35968D01*
X19190Y36489D01*
X20079Y36942D01*
X21001Y37324D01*
X21950Y37633D01*
X22920Y37866D01*
X23906Y38022D01*
X24901Y38100D01*
X25899Y38100D01*
X26894Y38022D01*
X27880Y37866D01*
X28850Y37633D01*
X29799Y37324D01*
X30721Y36942D01*
X31610Y36489D01*
X32461Y35968D01*
X33269Y35381D01*
X34027Y34733D01*
X34733Y34027D01*
X35381Y33269D01*
X35968Y32461D01*
X36489Y31610D01*
X36942Y30721D01*
X37324Y29799D01*
X37633Y28850D01*
X37866Y27880D01*
X38022Y26894D01*
X38100Y25899D01*
X38100Y24901D01*
X51157Y56750D02*
X50735Y56806D01*
X50323Y56916D01*
X49929Y57079D01*
X49561Y57292D01*
X49223Y57551D01*
X48921Y57853D01*
X48662Y58191D01*
X48449Y58559D01*
X48286Y58953D01*
X48176Y59365D01*
X48120Y59787D01*
X48120Y60213D01*
X48176Y60635D01*
X48286Y61047D01*
X48449Y61441D01*
X48662Y61809D01*
X48921Y62147D01*
X49223Y62449D01*
X49561Y62708D01*
X49929Y62921D01*
X50323Y63084D01*
X50735Y63194D01*
X51157Y63250D01*
X51583Y63250D01*
X52005Y63194D01*
X52417Y63084D01*
X52811Y62921D01*
X53179Y62708D01*
X53517Y62449D01*
X53819Y62147D01*
X54078Y61809D01*
X54291Y61441D01*
X54454Y61047D01*
X54564Y60635D01*
X54620Y60213D01*
X54620Y59787D01*
X54564Y59365D01*
X54454Y58953D01*
X54291Y58559D01*
X54078Y58191D01*
X53819Y57853D01*
X53517Y57551D01*
X53179Y57292D01*
X52811Y57079D01*
X52417Y56916D01*
X52005Y56806D01*
X51583Y56750D01*
X51157Y56750D01*
X51157Y114550D02*
X50735Y114606D01*
X50323Y114716D01*
X49929Y114879D01*
X49561Y115092D01*
X49223Y115351D01*
X48921Y115653D01*
X48662Y115991D01*
X48449Y116359D01*
X48286Y116753D01*
X48176Y117165D01*
X48120Y117587D01*
X48120Y118013D01*
X48176Y118435D01*
X48286Y118847D01*
X48449Y119241D01*
X48662Y119609D01*
X48921Y119947D01*
X49223Y120249D01*
X49561Y120508D01*
X49929Y120721D01*
X50323Y120884D01*
X50735Y120994D01*
X51157Y121050D01*
X51583Y121050D01*
X52005Y120994D01*
X52417Y120884D01*
X52811Y120721D01*
X53179Y120508D01*
X53517Y120249D01*
X53819Y119947D01*
X54078Y119609D01*
X54291Y119241D01*
X54454Y118847D01*
X54564Y118435D01*
X54620Y118013D01*
X54620Y117587D01*
X54564Y117165D01*
X54454Y116753D01*
X54291Y116359D01*
X54078Y115991D01*
X53819Y115653D01*
X53517Y115351D01*
X53179Y115092D01*
X52811Y114879D01*
X52417Y114716D01*
X52005Y114606D01*
X51583Y114550D01*
X51157Y114550D01*
M02*
