G04 EAGLE Gerber RS-274X export*
G75*
%MOMM*%
%FSLAX34Y34*%
%LPD*%
%INSilkscreen Top*%
%IPPOS*%
%AMOC8*
5,1,8,0,0,1.08239X$1,22.5*%
G01*
%ADD10C,0.152400*%
%ADD11C,0.304800*%
%ADD12C,0.177800*%
%ADD13C,0.254000*%
%ADD14C,0.203200*%
%ADD15C,0.406400*%
%ADD16C,0.101600*%
%ADD17R,0.050800X0.006300*%
%ADD18R,0.082600X0.006400*%
%ADD19R,0.120600X0.006300*%
%ADD20R,0.139700X0.006400*%
%ADD21R,0.158800X0.006300*%
%ADD22R,0.177800X0.006400*%
%ADD23R,0.196800X0.006300*%
%ADD24R,0.215900X0.006400*%
%ADD25R,0.228600X0.006300*%
%ADD26R,0.241300X0.006400*%
%ADD27R,0.254000X0.006300*%
%ADD28R,0.266700X0.006400*%
%ADD29R,0.279400X0.006300*%
%ADD30R,0.285700X0.006400*%
%ADD31R,0.298400X0.006300*%
%ADD32R,0.311200X0.006400*%
%ADD33R,0.317500X0.006300*%
%ADD34R,0.330200X0.006400*%
%ADD35R,0.336600X0.006300*%
%ADD36R,0.349200X0.006400*%
%ADD37R,0.361900X0.006300*%
%ADD38R,0.368300X0.006400*%
%ADD39R,0.381000X0.006300*%
%ADD40R,0.387300X0.006400*%
%ADD41R,0.393700X0.006300*%
%ADD42R,0.406400X0.006400*%
%ADD43R,0.412700X0.006300*%
%ADD44R,0.419100X0.006400*%
%ADD45R,0.431800X0.006300*%
%ADD46R,0.438100X0.006400*%
%ADD47R,0.450800X0.006300*%
%ADD48R,0.457200X0.006400*%
%ADD49R,0.463500X0.006300*%
%ADD50R,0.476200X0.006400*%
%ADD51R,0.482600X0.006300*%
%ADD52R,0.488900X0.006400*%
%ADD53R,0.501600X0.006300*%
%ADD54R,0.508000X0.006400*%
%ADD55R,0.514300X0.006300*%
%ADD56R,0.527000X0.006400*%
%ADD57R,0.533400X0.006300*%
%ADD58R,0.546100X0.006400*%
%ADD59R,0.552400X0.006300*%
%ADD60R,0.558800X0.006400*%
%ADD61R,0.571500X0.006300*%
%ADD62R,0.577800X0.006400*%
%ADD63R,0.584200X0.006300*%
%ADD64R,0.596900X0.006400*%
%ADD65R,0.603200X0.006300*%
%ADD66R,0.609600X0.006400*%
%ADD67R,0.622300X0.006300*%
%ADD68R,0.628600X0.006400*%
%ADD69R,0.641300X0.006300*%
%ADD70R,0.647700X0.006400*%
%ADD71R,0.063500X0.006300*%
%ADD72R,0.654000X0.006300*%
%ADD73R,0.101600X0.006400*%
%ADD74R,0.666700X0.006400*%
%ADD75R,0.139700X0.006300*%
%ADD76R,0.673100X0.006300*%
%ADD77R,0.165100X0.006400*%
%ADD78R,0.679400X0.006400*%
%ADD79R,0.196900X0.006300*%
%ADD80R,0.692100X0.006300*%
%ADD81R,0.222200X0.006400*%
%ADD82R,0.698500X0.006400*%
%ADD83R,0.247700X0.006300*%
%ADD84R,0.704800X0.006300*%
%ADD85R,0.279400X0.006400*%
%ADD86R,0.717500X0.006400*%
%ADD87R,0.298500X0.006300*%
%ADD88R,0.723900X0.006300*%
%ADD89R,0.736600X0.006400*%
%ADD90R,0.342900X0.006300*%
%ADD91R,0.742900X0.006300*%
%ADD92R,0.374700X0.006400*%
%ADD93R,0.749300X0.006400*%
%ADD94R,0.762000X0.006300*%
%ADD95R,0.412700X0.006400*%
%ADD96R,0.768300X0.006400*%
%ADD97R,0.438100X0.006300*%
%ADD98R,0.774700X0.006300*%
%ADD99R,0.463600X0.006400*%
%ADD100R,0.787400X0.006400*%
%ADD101R,0.793700X0.006300*%
%ADD102R,0.495300X0.006400*%
%ADD103R,0.800100X0.006400*%
%ADD104R,0.520700X0.006300*%
%ADD105R,0.812800X0.006300*%
%ADD106R,0.533400X0.006400*%
%ADD107R,0.819100X0.006400*%
%ADD108R,0.558800X0.006300*%
%ADD109R,0.825500X0.006300*%
%ADD110R,0.577900X0.006400*%
%ADD111R,0.831800X0.006400*%
%ADD112R,0.596900X0.006300*%
%ADD113R,0.844500X0.006300*%
%ADD114R,0.616000X0.006400*%
%ADD115R,0.850900X0.006400*%
%ADD116R,0.635000X0.006300*%
%ADD117R,0.857200X0.006300*%
%ADD118R,0.654100X0.006400*%
%ADD119R,0.863600X0.006400*%
%ADD120R,0.666700X0.006300*%
%ADD121R,0.869900X0.006300*%
%ADD122R,0.685800X0.006400*%
%ADD123R,0.876300X0.006400*%
%ADD124R,0.882600X0.006300*%
%ADD125R,0.723900X0.006400*%
%ADD126R,0.889000X0.006400*%
%ADD127R,0.895300X0.006300*%
%ADD128R,0.755700X0.006400*%
%ADD129R,0.901700X0.006400*%
%ADD130R,0.908000X0.006300*%
%ADD131R,0.793800X0.006400*%
%ADD132R,0.914400X0.006400*%
%ADD133R,0.806400X0.006300*%
%ADD134R,0.920700X0.006300*%
%ADD135R,0.825500X0.006400*%
%ADD136R,0.927100X0.006400*%
%ADD137R,0.933400X0.006300*%
%ADD138R,0.857300X0.006400*%
%ADD139R,0.939800X0.006400*%
%ADD140R,0.870000X0.006300*%
%ADD141R,0.939800X0.006300*%
%ADD142R,0.946100X0.006400*%
%ADD143R,0.952500X0.006300*%
%ADD144R,0.908000X0.006400*%
%ADD145R,0.958800X0.006400*%
%ADD146R,0.965200X0.006300*%
%ADD147R,0.965200X0.006400*%
%ADD148R,0.971500X0.006300*%
%ADD149R,0.952500X0.006400*%
%ADD150R,0.977900X0.006400*%
%ADD151R,0.958800X0.006300*%
%ADD152R,0.984200X0.006300*%
%ADD153R,0.971500X0.006400*%
%ADD154R,0.984200X0.006400*%
%ADD155R,0.990600X0.006300*%
%ADD156R,0.984300X0.006400*%
%ADD157R,0.996900X0.006400*%
%ADD158R,0.997000X0.006300*%
%ADD159R,0.996900X0.006300*%
%ADD160R,1.003300X0.006400*%
%ADD161R,1.016000X0.006300*%
%ADD162R,1.009600X0.006300*%
%ADD163R,1.016000X0.006400*%
%ADD164R,1.009600X0.006400*%
%ADD165R,1.022300X0.006300*%
%ADD166R,1.028700X0.006400*%
%ADD167R,1.035100X0.006300*%
%ADD168R,1.047800X0.006400*%
%ADD169R,1.054100X0.006300*%
%ADD170R,1.028700X0.006300*%
%ADD171R,1.054100X0.006400*%
%ADD172R,1.035000X0.006400*%
%ADD173R,1.060400X0.006300*%
%ADD174R,1.035000X0.006300*%
%ADD175R,1.060500X0.006400*%
%ADD176R,1.041400X0.006400*%
%ADD177R,1.066800X0.006300*%
%ADD178R,1.041400X0.006300*%
%ADD179R,1.079500X0.006400*%
%ADD180R,1.047700X0.006400*%
%ADD181R,1.085900X0.006300*%
%ADD182R,1.047700X0.006300*%
%ADD183R,1.085800X0.006400*%
%ADD184R,1.092200X0.006300*%
%ADD185R,1.085900X0.006400*%
%ADD186R,1.098600X0.006300*%
%ADD187R,1.098600X0.006400*%
%ADD188R,1.060400X0.006400*%
%ADD189R,1.104900X0.006300*%
%ADD190R,1.104900X0.006400*%
%ADD191R,1.066800X0.006400*%
%ADD192R,1.111200X0.006300*%
%ADD193R,1.117600X0.006400*%
%ADD194R,1.117600X0.006300*%
%ADD195R,1.073100X0.006300*%
%ADD196R,1.073100X0.006400*%
%ADD197R,1.124000X0.006300*%
%ADD198R,1.079500X0.006300*%
%ADD199R,1.123900X0.006400*%
%ADD200R,1.130300X0.006300*%
%ADD201R,1.130300X0.006400*%
%ADD202R,1.136700X0.006400*%
%ADD203R,1.136700X0.006300*%
%ADD204R,1.085800X0.006300*%
%ADD205R,1.136600X0.006400*%
%ADD206R,1.136600X0.006300*%
%ADD207R,1.143000X0.006400*%
%ADD208R,1.143000X0.006300*%
%ADD209R,1.149400X0.006300*%
%ADD210R,1.149300X0.006300*%
%ADD211R,1.149300X0.006400*%
%ADD212R,1.149400X0.006400*%
%ADD213R,1.155700X0.006400*%
%ADD214R,1.155700X0.006300*%
%ADD215R,1.060500X0.006300*%
%ADD216R,2.197100X0.006400*%
%ADD217R,2.197100X0.006300*%
%ADD218R,2.184400X0.006300*%
%ADD219R,2.184400X0.006400*%
%ADD220R,2.171700X0.006400*%
%ADD221R,2.171700X0.006300*%
%ADD222R,1.530300X0.006400*%
%ADD223R,1.505000X0.006300*%
%ADD224R,1.492300X0.006400*%
%ADD225R,1.485900X0.006300*%
%ADD226R,0.565200X0.006300*%
%ADD227R,1.473200X0.006400*%
%ADD228R,0.565200X0.006400*%
%ADD229R,1.460500X0.006300*%
%ADD230R,1.454100X0.006400*%
%ADD231R,0.552400X0.006400*%
%ADD232R,1.441500X0.006300*%
%ADD233R,0.546100X0.006300*%
%ADD234R,1.435100X0.006400*%
%ADD235R,0.539800X0.006400*%
%ADD236R,1.428800X0.006300*%
%ADD237R,1.422400X0.006400*%
%ADD238R,1.409700X0.006300*%
%ADD239R,0.527100X0.006300*%
%ADD240R,1.403300X0.006400*%
%ADD241R,0.527100X0.006400*%
%ADD242R,1.390700X0.006300*%
%ADD243R,1.384300X0.006400*%
%ADD244R,0.520700X0.006400*%
%ADD245R,1.384300X0.006300*%
%ADD246R,0.514400X0.006300*%
%ADD247R,1.371600X0.006400*%
%ADD248R,1.365200X0.006300*%
%ADD249R,0.508000X0.006300*%
%ADD250R,1.352600X0.006400*%
%ADD251R,0.501700X0.006400*%
%ADD252R,0.711200X0.006300*%
%ADD253R,0.603300X0.006300*%
%ADD254R,0.501700X0.006300*%
%ADD255R,0.692100X0.006400*%
%ADD256R,0.571500X0.006400*%
%ADD257R,0.679400X0.006300*%
%ADD258R,0.495300X0.006300*%
%ADD259R,0.673100X0.006400*%
%ADD260R,0.666800X0.006300*%
%ADD261R,0.488900X0.006300*%
%ADD262R,0.660400X0.006400*%
%ADD263R,0.482600X0.006400*%
%ADD264R,0.476200X0.006300*%
%ADD265R,0.654000X0.006400*%
%ADD266R,0.469900X0.006400*%
%ADD267R,0.476300X0.006400*%
%ADD268R,0.647700X0.006300*%
%ADD269R,0.457200X0.006300*%
%ADD270R,0.469900X0.006300*%
%ADD271R,0.641300X0.006400*%
%ADD272R,0.444500X0.006400*%
%ADD273R,0.463600X0.006300*%
%ADD274R,0.635000X0.006400*%
%ADD275R,0.463500X0.006400*%
%ADD276R,0.393700X0.006400*%
%ADD277R,0.450800X0.006400*%
%ADD278R,0.628600X0.006300*%
%ADD279R,0.387400X0.006300*%
%ADD280R,0.450900X0.006300*%
%ADD281R,0.628700X0.006400*%
%ADD282R,0.374600X0.006400*%
%ADD283R,0.368300X0.006300*%
%ADD284R,0.438200X0.006300*%
%ADD285R,0.622300X0.006400*%
%ADD286R,0.355600X0.006400*%
%ADD287R,0.431800X0.006400*%
%ADD288R,0.349300X0.006300*%
%ADD289R,0.425400X0.006300*%
%ADD290R,0.615900X0.006300*%
%ADD291R,0.330200X0.006300*%
%ADD292R,0.419100X0.006300*%
%ADD293R,0.616000X0.006300*%
%ADD294R,0.311200X0.006300*%
%ADD295R,0.406400X0.006300*%
%ADD296R,0.615900X0.006400*%
%ADD297R,0.304800X0.006400*%
%ADD298R,0.158800X0.006400*%
%ADD299R,0.609600X0.006300*%
%ADD300R,0.292100X0.006300*%
%ADD301R,0.235000X0.006300*%
%ADD302R,0.387400X0.006400*%
%ADD303R,0.292100X0.006400*%
%ADD304R,0.336500X0.006300*%
%ADD305R,0.260400X0.006300*%
%ADD306R,0.603300X0.006400*%
%ADD307R,0.260400X0.006400*%
%ADD308R,0.362000X0.006400*%
%ADD309R,0.450900X0.006400*%
%ADD310R,0.355600X0.006300*%
%ADD311R,0.342900X0.006400*%
%ADD312R,0.514300X0.006400*%
%ADD313R,0.234900X0.006300*%
%ADD314R,0.539700X0.006300*%
%ADD315R,0.603200X0.006400*%
%ADD316R,0.234900X0.006400*%
%ADD317R,0.920700X0.006400*%
%ADD318R,0.958900X0.006400*%
%ADD319R,0.215900X0.006300*%
%ADD320R,0.209600X0.006400*%
%ADD321R,0.203200X0.006300*%
%ADD322R,1.003300X0.006300*%
%ADD323R,0.203200X0.006400*%
%ADD324R,0.196900X0.006400*%
%ADD325R,0.190500X0.006300*%
%ADD326R,0.190500X0.006400*%
%ADD327R,0.184200X0.006300*%
%ADD328R,0.590500X0.006400*%
%ADD329R,0.184200X0.006400*%
%ADD330R,0.590500X0.006300*%
%ADD331R,0.177800X0.006300*%
%ADD332R,0.584200X0.006400*%
%ADD333R,1.168400X0.006400*%
%ADD334R,0.171500X0.006300*%
%ADD335R,1.187500X0.006300*%
%ADD336R,1.200100X0.006400*%
%ADD337R,0.577800X0.006300*%
%ADD338R,1.212900X0.006300*%
%ADD339R,1.231900X0.006400*%
%ADD340R,1.250900X0.006300*%
%ADD341R,0.565100X0.006400*%
%ADD342R,0.184100X0.006400*%
%ADD343R,1.263700X0.006400*%
%ADD344R,0.565100X0.006300*%
%ADD345R,1.289100X0.006300*%
%ADD346R,1.314400X0.006400*%
%ADD347R,0.552500X0.006300*%
%ADD348R,1.568500X0.006300*%
%ADD349R,0.552500X0.006400*%
%ADD350R,1.581200X0.006400*%
%ADD351R,1.593800X0.006300*%
%ADD352R,1.606500X0.006400*%
%ADD353R,1.619300X0.006300*%
%ADD354R,0.514400X0.006400*%
%ADD355R,1.638300X0.006400*%
%ADD356R,1.657300X0.006300*%
%ADD357R,2.209800X0.006400*%
%ADD358R,2.425700X0.006300*%
%ADD359R,2.470100X0.006400*%
%ADD360R,2.501900X0.006300*%
%ADD361R,2.533700X0.006400*%
%ADD362R,2.559000X0.006300*%
%ADD363R,2.584500X0.006400*%
%ADD364R,2.609900X0.006300*%
%ADD365R,2.628900X0.006400*%
%ADD366R,2.660600X0.006300*%
%ADD367R,2.673400X0.006400*%
%ADD368R,1.422400X0.006300*%
%ADD369R,1.200200X0.006300*%
%ADD370R,1.365300X0.006300*%
%ADD371R,1.365300X0.006400*%
%ADD372R,1.352500X0.006300*%
%ADD373R,1.098500X0.006300*%
%ADD374R,1.358900X0.006400*%
%ADD375R,1.352600X0.006300*%
%ADD376R,1.358900X0.006300*%
%ADD377R,1.371600X0.006300*%
%ADD378R,1.377900X0.006400*%
%ADD379R,1.397000X0.006400*%
%ADD380R,1.403300X0.006300*%
%ADD381R,0.914400X0.006300*%
%ADD382R,0.876300X0.006300*%
%ADD383R,0.374600X0.006300*%
%ADD384R,1.073200X0.006400*%
%ADD385R,0.374700X0.006300*%
%ADD386R,0.844600X0.006400*%
%ADD387R,0.844600X0.006300*%
%ADD388R,0.831900X0.006400*%
%ADD389R,1.092200X0.006400*%
%ADD390R,0.400000X0.006300*%
%ADD391R,0.819200X0.006400*%
%ADD392R,1.111300X0.006400*%
%ADD393R,0.812800X0.006400*%
%ADD394R,0.800100X0.006300*%
%ADD395R,0.476300X0.006300*%
%ADD396R,1.181100X0.006300*%
%ADD397R,0.501600X0.006400*%
%ADD398R,1.193800X0.006400*%
%ADD399R,0.781000X0.006400*%
%ADD400R,1.238200X0.006400*%
%ADD401R,0.781100X0.006300*%
%ADD402R,1.257300X0.006300*%
%ADD403R,1.295400X0.006400*%
%ADD404R,1.333500X0.006300*%
%ADD405R,0.774700X0.006400*%
%ADD406R,1.866900X0.006400*%
%ADD407R,0.209600X0.006300*%
%ADD408R,1.866900X0.006300*%
%ADD409R,0.768400X0.006400*%
%ADD410R,0.209500X0.006400*%
%ADD411R,1.860600X0.006400*%
%ADD412R,0.762000X0.006400*%
%ADD413R,0.768400X0.006300*%
%ADD414R,1.860600X0.006300*%
%ADD415R,1.860500X0.006400*%
%ADD416R,0.222300X0.006300*%
%ADD417R,1.854200X0.006300*%
%ADD418R,0.235000X0.006400*%
%ADD419R,1.854200X0.006400*%
%ADD420R,0.768300X0.006300*%
%ADD421R,0.260300X0.006400*%
%ADD422R,1.847800X0.006400*%
%ADD423R,0.266700X0.006300*%
%ADD424R,1.847800X0.006300*%
%ADD425R,0.273100X0.006400*%
%ADD426R,1.841500X0.006400*%
%ADD427R,0.285800X0.006300*%
%ADD428R,1.841500X0.006300*%
%ADD429R,0.298500X0.006400*%
%ADD430R,1.835100X0.006400*%
%ADD431R,0.781000X0.006300*%
%ADD432R,0.304800X0.006300*%
%ADD433R,1.835100X0.006300*%
%ADD434R,0.317500X0.006400*%
%ADD435R,1.828800X0.006400*%
%ADD436R,0.787400X0.006300*%
%ADD437R,0.323800X0.006300*%
%ADD438R,1.828800X0.006300*%
%ADD439R,0.793700X0.006400*%
%ADD440R,1.822400X0.006400*%
%ADD441R,0.806500X0.006300*%
%ADD442R,1.822400X0.006300*%
%ADD443R,1.816100X0.006400*%
%ADD444R,0.819100X0.006300*%
%ADD445R,0.387300X0.006300*%
%ADD446R,1.816100X0.006300*%
%ADD447R,1.809800X0.006400*%
%ADD448R,1.803400X0.006300*%
%ADD449R,1.797000X0.006400*%
%ADD450R,0.901700X0.006300*%
%ADD451R,1.797000X0.006300*%
%ADD452R,1.441400X0.006400*%
%ADD453R,1.790700X0.006400*%
%ADD454R,1.447800X0.006300*%
%ADD455R,1.784300X0.006300*%
%ADD456R,1.447800X0.006400*%
%ADD457R,1.784300X0.006400*%
%ADD458R,1.454100X0.006300*%
%ADD459R,1.771700X0.006300*%
%ADD460R,1.460500X0.006400*%
%ADD461R,1.759000X0.006400*%
%ADD462R,1.466800X0.006300*%
%ADD463R,1.752600X0.006300*%
%ADD464R,1.466800X0.006400*%
%ADD465R,1.739900X0.006400*%
%ADD466R,1.473200X0.006300*%
%ADD467R,1.727200X0.006300*%
%ADD468R,1.479500X0.006400*%
%ADD469R,1.714500X0.006400*%
%ADD470R,1.695400X0.006300*%
%ADD471R,1.485900X0.006400*%
%ADD472R,1.682700X0.006400*%
%ADD473R,1.492200X0.006300*%
%ADD474R,1.663700X0.006300*%
%ADD475R,1.498600X0.006400*%
%ADD476R,1.644600X0.006400*%
%ADD477R,1.498600X0.006300*%
%ADD478R,1.619200X0.006300*%
%ADD479R,1.511300X0.006400*%
%ADD480R,1.600200X0.006400*%
%ADD481R,1.517700X0.006300*%
%ADD482R,1.574800X0.006300*%
%ADD483R,1.524000X0.006400*%
%ADD484R,1.555800X0.006400*%
%ADD485R,1.524000X0.006300*%
%ADD486R,1.536700X0.006300*%
%ADD487R,1.530400X0.006400*%
%ADD488R,1.517700X0.006400*%
%ADD489R,1.492300X0.006300*%
%ADD490R,1.549400X0.006400*%
%ADD491R,1.479600X0.006400*%
%ADD492R,1.549400X0.006300*%
%ADD493R,1.555700X0.006400*%
%ADD494R,1.562100X0.006300*%
%ADD495R,0.323900X0.006300*%
%ADD496R,1.568400X0.006400*%
%ADD497R,0.336600X0.006400*%
%ADD498R,1.587500X0.006300*%
%ADD499R,0.971600X0.006300*%
%ADD500R,0.349300X0.006400*%
%ADD501R,1.600200X0.006300*%
%ADD502R,0.920800X0.006300*%
%ADD503R,0.882700X0.006400*%
%ADD504R,1.612900X0.006300*%
%ADD505R,0.362000X0.006300*%
%ADD506R,1.625600X0.006400*%
%ADD507R,1.625600X0.006300*%
%ADD508R,1.644600X0.006300*%
%ADD509R,0.736600X0.006300*%
%ADD510R,0.717600X0.006400*%
%ADD511R,1.657400X0.006300*%
%ADD512R,0.679500X0.006300*%
%ADD513R,1.663700X0.006400*%
%ADD514R,0.400000X0.006400*%
%ADD515R,1.676400X0.006300*%
%ADD516R,1.676400X0.006400*%
%ADD517R,0.425500X0.006400*%
%ADD518R,1.352500X0.006400*%
%ADD519R,0.444500X0.006300*%
%ADD520R,0.361900X0.006400*%
%ADD521R,0.088900X0.006300*%
%ADD522R,1.009700X0.006300*%
%ADD523R,1.009700X0.006400*%
%ADD524R,1.022300X0.006400*%
%ADD525R,1.346200X0.006400*%
%ADD526R,1.346200X0.006300*%
%ADD527R,1.339900X0.006400*%
%ADD528R,1.035100X0.006400*%
%ADD529R,1.339800X0.006300*%
%ADD530R,1.333500X0.006400*%
%ADD531R,1.327200X0.006400*%
%ADD532R,1.320800X0.006300*%
%ADD533R,1.314500X0.006400*%
%ADD534R,1.314400X0.006300*%
%ADD535R,1.301700X0.006400*%
%ADD536R,1.295400X0.006300*%
%ADD537R,1.289000X0.006400*%
%ADD538R,1.276300X0.006300*%
%ADD539R,1.251000X0.006300*%
%ADD540R,1.244600X0.006400*%
%ADD541R,1.231900X0.006300*%
%ADD542R,1.212800X0.006400*%
%ADD543R,1.200100X0.006300*%
%ADD544R,1.187400X0.006400*%
%ADD545R,1.168400X0.006300*%
%ADD546R,1.047800X0.006300*%
%ADD547R,0.977900X0.006300*%
%ADD548R,0.946200X0.006400*%
%ADD549R,0.933400X0.006400*%
%ADD550R,0.895300X0.006400*%
%ADD551R,0.882700X0.006300*%
%ADD552R,0.863600X0.006300*%
%ADD553R,0.857200X0.006400*%
%ADD554R,0.850900X0.006300*%
%ADD555R,0.838200X0.006300*%
%ADD556R,0.806500X0.006400*%
%ADD557R,0.717600X0.006300*%
%ADD558R,0.711200X0.006400*%
%ADD559R,0.641400X0.006400*%
%ADD560R,0.641400X0.006300*%
%ADD561R,0.628700X0.006300*%
%ADD562R,0.590600X0.006300*%
%ADD563R,0.539700X0.006400*%
%ADD564R,0.285700X0.006300*%
%ADD565R,0.222200X0.006300*%
%ADD566R,0.171400X0.006300*%
%ADD567R,0.152400X0.006400*%
%ADD568R,0.133400X0.006300*%


D10*
X13208Y76962D02*
X4565Y76962D01*
X4565Y81284D01*
X6005Y82724D01*
X8886Y82724D01*
X10327Y81284D01*
X10327Y76962D01*
X10327Y79843D02*
X13208Y82724D01*
X4565Y90639D02*
X6005Y92079D01*
X4565Y90639D02*
X4565Y87758D01*
X6005Y86317D01*
X7446Y86317D01*
X8886Y87758D01*
X8886Y90639D01*
X10327Y92079D01*
X11767Y92079D01*
X13208Y90639D01*
X13208Y87758D01*
X11767Y86317D01*
X13208Y98554D02*
X4565Y98554D01*
X4565Y101435D02*
X4565Y95672D01*
X46228Y104902D02*
X46228Y107783D01*
X46228Y106343D02*
X37585Y106343D01*
X37585Y107783D02*
X37585Y104902D01*
X37585Y111139D02*
X46228Y111139D01*
X37585Y111139D02*
X37585Y115460D01*
X39025Y116901D01*
X41906Y116901D01*
X43347Y115460D01*
X43347Y111139D01*
X43347Y114020D02*
X46228Y116901D01*
X44787Y120494D02*
X39025Y120494D01*
X37585Y121935D01*
X37585Y124816D01*
X39025Y126256D01*
X44787Y126256D01*
X46228Y124816D01*
X46228Y121935D01*
X44787Y120494D01*
X43347Y123375D02*
X46228Y126256D01*
X7275Y137334D02*
X5835Y135894D01*
X5835Y133013D01*
X7275Y131572D01*
X13037Y131572D01*
X14478Y133013D01*
X14478Y135894D01*
X13037Y137334D01*
X5835Y145249D02*
X7275Y146689D01*
X5835Y145249D02*
X5835Y142368D01*
X7275Y140927D01*
X8716Y140927D01*
X10156Y142368D01*
X10156Y145249D01*
X11597Y146689D01*
X13037Y146689D01*
X14478Y145249D01*
X14478Y142368D01*
X13037Y140927D01*
D11*
X313690Y48260D02*
X313692Y48383D01*
X313698Y48507D01*
X313708Y48630D01*
X313722Y48752D01*
X313740Y48874D01*
X313762Y48996D01*
X313787Y49116D01*
X313817Y49236D01*
X313851Y49355D01*
X313888Y49473D01*
X313929Y49589D01*
X313974Y49704D01*
X314023Y49817D01*
X314075Y49929D01*
X314131Y50039D01*
X314190Y50147D01*
X314253Y50253D01*
X314319Y50357D01*
X314389Y50459D01*
X314462Y50559D01*
X314538Y50656D01*
X314617Y50751D01*
X314699Y50843D01*
X314784Y50932D01*
X314872Y51019D01*
X314963Y51102D01*
X315056Y51183D01*
X315152Y51261D01*
X315251Y51335D01*
X315351Y51406D01*
X315454Y51474D01*
X315559Y51539D01*
X315667Y51600D01*
X315776Y51658D01*
X315887Y51712D01*
X315999Y51762D01*
X316114Y51809D01*
X316229Y51852D01*
X316346Y51891D01*
X316464Y51927D01*
X316584Y51958D01*
X316704Y51986D01*
X316825Y52010D01*
X316947Y52030D01*
X317069Y52046D01*
X317192Y52058D01*
X317315Y52066D01*
X317438Y52070D01*
X317562Y52070D01*
X317685Y52066D01*
X317808Y52058D01*
X317931Y52046D01*
X318053Y52030D01*
X318175Y52010D01*
X318296Y51986D01*
X318416Y51958D01*
X318536Y51927D01*
X318654Y51891D01*
X318771Y51852D01*
X318886Y51809D01*
X319001Y51762D01*
X319113Y51712D01*
X319224Y51658D01*
X319333Y51600D01*
X319441Y51539D01*
X319546Y51474D01*
X319649Y51406D01*
X319749Y51335D01*
X319848Y51261D01*
X319944Y51183D01*
X320037Y51102D01*
X320128Y51019D01*
X320216Y50932D01*
X320301Y50843D01*
X320383Y50751D01*
X320462Y50656D01*
X320538Y50559D01*
X320611Y50459D01*
X320681Y50357D01*
X320747Y50253D01*
X320810Y50147D01*
X320869Y50039D01*
X320925Y49929D01*
X320977Y49817D01*
X321026Y49704D01*
X321071Y49589D01*
X321112Y49473D01*
X321149Y49355D01*
X321183Y49236D01*
X321213Y49116D01*
X321238Y48996D01*
X321260Y48874D01*
X321278Y48752D01*
X321292Y48630D01*
X321302Y48507D01*
X321308Y48383D01*
X321310Y48260D01*
X321308Y48137D01*
X321302Y48013D01*
X321292Y47890D01*
X321278Y47768D01*
X321260Y47646D01*
X321238Y47524D01*
X321213Y47404D01*
X321183Y47284D01*
X321149Y47165D01*
X321112Y47047D01*
X321071Y46931D01*
X321026Y46816D01*
X320977Y46703D01*
X320925Y46591D01*
X320869Y46481D01*
X320810Y46373D01*
X320747Y46267D01*
X320681Y46163D01*
X320611Y46061D01*
X320538Y45961D01*
X320462Y45864D01*
X320383Y45769D01*
X320301Y45677D01*
X320216Y45588D01*
X320128Y45501D01*
X320037Y45418D01*
X319944Y45337D01*
X319848Y45259D01*
X319749Y45185D01*
X319649Y45114D01*
X319546Y45046D01*
X319441Y44981D01*
X319333Y44920D01*
X319224Y44862D01*
X319113Y44808D01*
X319001Y44758D01*
X318886Y44711D01*
X318771Y44668D01*
X318654Y44629D01*
X318536Y44593D01*
X318416Y44562D01*
X318296Y44534D01*
X318175Y44510D01*
X318053Y44490D01*
X317931Y44474D01*
X317808Y44462D01*
X317685Y44454D01*
X317562Y44450D01*
X317438Y44450D01*
X317315Y44454D01*
X317192Y44462D01*
X317069Y44474D01*
X316947Y44490D01*
X316825Y44510D01*
X316704Y44534D01*
X316584Y44562D01*
X316464Y44593D01*
X316346Y44629D01*
X316229Y44668D01*
X316114Y44711D01*
X315999Y44758D01*
X315887Y44808D01*
X315776Y44862D01*
X315667Y44920D01*
X315559Y44981D01*
X315454Y45046D01*
X315351Y45114D01*
X315251Y45185D01*
X315152Y45259D01*
X315056Y45337D01*
X314963Y45418D01*
X314872Y45501D01*
X314784Y45588D01*
X314699Y45677D01*
X314617Y45769D01*
X314538Y45864D01*
X314462Y45961D01*
X314389Y46061D01*
X314319Y46163D01*
X314253Y46267D01*
X314190Y46373D01*
X314131Y46481D01*
X314075Y46591D01*
X314023Y46703D01*
X313974Y46816D01*
X313929Y46931D01*
X313888Y47047D01*
X313851Y47165D01*
X313817Y47284D01*
X313787Y47404D01*
X313762Y47524D01*
X313740Y47646D01*
X313722Y47768D01*
X313708Y47890D01*
X313698Y48013D01*
X313692Y48137D01*
X313690Y48260D01*
X339090Y48260D02*
X339092Y48383D01*
X339098Y48507D01*
X339108Y48630D01*
X339122Y48752D01*
X339140Y48874D01*
X339162Y48996D01*
X339187Y49116D01*
X339217Y49236D01*
X339251Y49355D01*
X339288Y49473D01*
X339329Y49589D01*
X339374Y49704D01*
X339423Y49817D01*
X339475Y49929D01*
X339531Y50039D01*
X339590Y50147D01*
X339653Y50253D01*
X339719Y50357D01*
X339789Y50459D01*
X339862Y50559D01*
X339938Y50656D01*
X340017Y50751D01*
X340099Y50843D01*
X340184Y50932D01*
X340272Y51019D01*
X340363Y51102D01*
X340456Y51183D01*
X340552Y51261D01*
X340651Y51335D01*
X340751Y51406D01*
X340854Y51474D01*
X340959Y51539D01*
X341067Y51600D01*
X341176Y51658D01*
X341287Y51712D01*
X341399Y51762D01*
X341514Y51809D01*
X341629Y51852D01*
X341746Y51891D01*
X341864Y51927D01*
X341984Y51958D01*
X342104Y51986D01*
X342225Y52010D01*
X342347Y52030D01*
X342469Y52046D01*
X342592Y52058D01*
X342715Y52066D01*
X342838Y52070D01*
X342962Y52070D01*
X343085Y52066D01*
X343208Y52058D01*
X343331Y52046D01*
X343453Y52030D01*
X343575Y52010D01*
X343696Y51986D01*
X343816Y51958D01*
X343936Y51927D01*
X344054Y51891D01*
X344171Y51852D01*
X344286Y51809D01*
X344401Y51762D01*
X344513Y51712D01*
X344624Y51658D01*
X344733Y51600D01*
X344841Y51539D01*
X344946Y51474D01*
X345049Y51406D01*
X345149Y51335D01*
X345248Y51261D01*
X345344Y51183D01*
X345437Y51102D01*
X345528Y51019D01*
X345616Y50932D01*
X345701Y50843D01*
X345783Y50751D01*
X345862Y50656D01*
X345938Y50559D01*
X346011Y50459D01*
X346081Y50357D01*
X346147Y50253D01*
X346210Y50147D01*
X346269Y50039D01*
X346325Y49929D01*
X346377Y49817D01*
X346426Y49704D01*
X346471Y49589D01*
X346512Y49473D01*
X346549Y49355D01*
X346583Y49236D01*
X346613Y49116D01*
X346638Y48996D01*
X346660Y48874D01*
X346678Y48752D01*
X346692Y48630D01*
X346702Y48507D01*
X346708Y48383D01*
X346710Y48260D01*
X346708Y48137D01*
X346702Y48013D01*
X346692Y47890D01*
X346678Y47768D01*
X346660Y47646D01*
X346638Y47524D01*
X346613Y47404D01*
X346583Y47284D01*
X346549Y47165D01*
X346512Y47047D01*
X346471Y46931D01*
X346426Y46816D01*
X346377Y46703D01*
X346325Y46591D01*
X346269Y46481D01*
X346210Y46373D01*
X346147Y46267D01*
X346081Y46163D01*
X346011Y46061D01*
X345938Y45961D01*
X345862Y45864D01*
X345783Y45769D01*
X345701Y45677D01*
X345616Y45588D01*
X345528Y45501D01*
X345437Y45418D01*
X345344Y45337D01*
X345248Y45259D01*
X345149Y45185D01*
X345049Y45114D01*
X344946Y45046D01*
X344841Y44981D01*
X344733Y44920D01*
X344624Y44862D01*
X344513Y44808D01*
X344401Y44758D01*
X344286Y44711D01*
X344171Y44668D01*
X344054Y44629D01*
X343936Y44593D01*
X343816Y44562D01*
X343696Y44534D01*
X343575Y44510D01*
X343453Y44490D01*
X343331Y44474D01*
X343208Y44462D01*
X343085Y44454D01*
X342962Y44450D01*
X342838Y44450D01*
X342715Y44454D01*
X342592Y44462D01*
X342469Y44474D01*
X342347Y44490D01*
X342225Y44510D01*
X342104Y44534D01*
X341984Y44562D01*
X341864Y44593D01*
X341746Y44629D01*
X341629Y44668D01*
X341514Y44711D01*
X341399Y44758D01*
X341287Y44808D01*
X341176Y44862D01*
X341067Y44920D01*
X340959Y44981D01*
X340854Y45046D01*
X340751Y45114D01*
X340651Y45185D01*
X340552Y45259D01*
X340456Y45337D01*
X340363Y45418D01*
X340272Y45501D01*
X340184Y45588D01*
X340099Y45677D01*
X340017Y45769D01*
X339938Y45864D01*
X339862Y45961D01*
X339789Y46061D01*
X339719Y46163D01*
X339653Y46267D01*
X339590Y46373D01*
X339531Y46481D01*
X339475Y46591D01*
X339423Y46703D01*
X339374Y46816D01*
X339329Y46931D01*
X339288Y47047D01*
X339251Y47165D01*
X339217Y47284D01*
X339187Y47404D01*
X339162Y47524D01*
X339140Y47646D01*
X339122Y47768D01*
X339108Y47890D01*
X339098Y48013D01*
X339092Y48137D01*
X339090Y48260D01*
X364490Y48260D02*
X364492Y48383D01*
X364498Y48507D01*
X364508Y48630D01*
X364522Y48752D01*
X364540Y48874D01*
X364562Y48996D01*
X364587Y49116D01*
X364617Y49236D01*
X364651Y49355D01*
X364688Y49473D01*
X364729Y49589D01*
X364774Y49704D01*
X364823Y49817D01*
X364875Y49929D01*
X364931Y50039D01*
X364990Y50147D01*
X365053Y50253D01*
X365119Y50357D01*
X365189Y50459D01*
X365262Y50559D01*
X365338Y50656D01*
X365417Y50751D01*
X365499Y50843D01*
X365584Y50932D01*
X365672Y51019D01*
X365763Y51102D01*
X365856Y51183D01*
X365952Y51261D01*
X366051Y51335D01*
X366151Y51406D01*
X366254Y51474D01*
X366359Y51539D01*
X366467Y51600D01*
X366576Y51658D01*
X366687Y51712D01*
X366799Y51762D01*
X366914Y51809D01*
X367029Y51852D01*
X367146Y51891D01*
X367264Y51927D01*
X367384Y51958D01*
X367504Y51986D01*
X367625Y52010D01*
X367747Y52030D01*
X367869Y52046D01*
X367992Y52058D01*
X368115Y52066D01*
X368238Y52070D01*
X368362Y52070D01*
X368485Y52066D01*
X368608Y52058D01*
X368731Y52046D01*
X368853Y52030D01*
X368975Y52010D01*
X369096Y51986D01*
X369216Y51958D01*
X369336Y51927D01*
X369454Y51891D01*
X369571Y51852D01*
X369686Y51809D01*
X369801Y51762D01*
X369913Y51712D01*
X370024Y51658D01*
X370133Y51600D01*
X370241Y51539D01*
X370346Y51474D01*
X370449Y51406D01*
X370549Y51335D01*
X370648Y51261D01*
X370744Y51183D01*
X370837Y51102D01*
X370928Y51019D01*
X371016Y50932D01*
X371101Y50843D01*
X371183Y50751D01*
X371262Y50656D01*
X371338Y50559D01*
X371411Y50459D01*
X371481Y50357D01*
X371547Y50253D01*
X371610Y50147D01*
X371669Y50039D01*
X371725Y49929D01*
X371777Y49817D01*
X371826Y49704D01*
X371871Y49589D01*
X371912Y49473D01*
X371949Y49355D01*
X371983Y49236D01*
X372013Y49116D01*
X372038Y48996D01*
X372060Y48874D01*
X372078Y48752D01*
X372092Y48630D01*
X372102Y48507D01*
X372108Y48383D01*
X372110Y48260D01*
X372108Y48137D01*
X372102Y48013D01*
X372092Y47890D01*
X372078Y47768D01*
X372060Y47646D01*
X372038Y47524D01*
X372013Y47404D01*
X371983Y47284D01*
X371949Y47165D01*
X371912Y47047D01*
X371871Y46931D01*
X371826Y46816D01*
X371777Y46703D01*
X371725Y46591D01*
X371669Y46481D01*
X371610Y46373D01*
X371547Y46267D01*
X371481Y46163D01*
X371411Y46061D01*
X371338Y45961D01*
X371262Y45864D01*
X371183Y45769D01*
X371101Y45677D01*
X371016Y45588D01*
X370928Y45501D01*
X370837Y45418D01*
X370744Y45337D01*
X370648Y45259D01*
X370549Y45185D01*
X370449Y45114D01*
X370346Y45046D01*
X370241Y44981D01*
X370133Y44920D01*
X370024Y44862D01*
X369913Y44808D01*
X369801Y44758D01*
X369686Y44711D01*
X369571Y44668D01*
X369454Y44629D01*
X369336Y44593D01*
X369216Y44562D01*
X369096Y44534D01*
X368975Y44510D01*
X368853Y44490D01*
X368731Y44474D01*
X368608Y44462D01*
X368485Y44454D01*
X368362Y44450D01*
X368238Y44450D01*
X368115Y44454D01*
X367992Y44462D01*
X367869Y44474D01*
X367747Y44490D01*
X367625Y44510D01*
X367504Y44534D01*
X367384Y44562D01*
X367264Y44593D01*
X367146Y44629D01*
X367029Y44668D01*
X366914Y44711D01*
X366799Y44758D01*
X366687Y44808D01*
X366576Y44862D01*
X366467Y44920D01*
X366359Y44981D01*
X366254Y45046D01*
X366151Y45114D01*
X366051Y45185D01*
X365952Y45259D01*
X365856Y45337D01*
X365763Y45418D01*
X365672Y45501D01*
X365584Y45588D01*
X365499Y45677D01*
X365417Y45769D01*
X365338Y45864D01*
X365262Y45961D01*
X365189Y46061D01*
X365119Y46163D01*
X365053Y46267D01*
X364990Y46373D01*
X364931Y46481D01*
X364875Y46591D01*
X364823Y46703D01*
X364774Y46816D01*
X364729Y46931D01*
X364688Y47047D01*
X364651Y47165D01*
X364617Y47284D01*
X364587Y47404D01*
X364562Y47524D01*
X364540Y47646D01*
X364522Y47768D01*
X364508Y47890D01*
X364498Y48013D01*
X364492Y48137D01*
X364490Y48260D01*
X313690Y177800D02*
X313692Y177923D01*
X313698Y178047D01*
X313708Y178170D01*
X313722Y178292D01*
X313740Y178414D01*
X313762Y178536D01*
X313787Y178656D01*
X313817Y178776D01*
X313851Y178895D01*
X313888Y179013D01*
X313929Y179129D01*
X313974Y179244D01*
X314023Y179357D01*
X314075Y179469D01*
X314131Y179579D01*
X314190Y179687D01*
X314253Y179793D01*
X314319Y179897D01*
X314389Y179999D01*
X314462Y180099D01*
X314538Y180196D01*
X314617Y180291D01*
X314699Y180383D01*
X314784Y180472D01*
X314872Y180559D01*
X314963Y180642D01*
X315056Y180723D01*
X315152Y180801D01*
X315251Y180875D01*
X315351Y180946D01*
X315454Y181014D01*
X315559Y181079D01*
X315667Y181140D01*
X315776Y181198D01*
X315887Y181252D01*
X315999Y181302D01*
X316114Y181349D01*
X316229Y181392D01*
X316346Y181431D01*
X316464Y181467D01*
X316584Y181498D01*
X316704Y181526D01*
X316825Y181550D01*
X316947Y181570D01*
X317069Y181586D01*
X317192Y181598D01*
X317315Y181606D01*
X317438Y181610D01*
X317562Y181610D01*
X317685Y181606D01*
X317808Y181598D01*
X317931Y181586D01*
X318053Y181570D01*
X318175Y181550D01*
X318296Y181526D01*
X318416Y181498D01*
X318536Y181467D01*
X318654Y181431D01*
X318771Y181392D01*
X318886Y181349D01*
X319001Y181302D01*
X319113Y181252D01*
X319224Y181198D01*
X319333Y181140D01*
X319441Y181079D01*
X319546Y181014D01*
X319649Y180946D01*
X319749Y180875D01*
X319848Y180801D01*
X319944Y180723D01*
X320037Y180642D01*
X320128Y180559D01*
X320216Y180472D01*
X320301Y180383D01*
X320383Y180291D01*
X320462Y180196D01*
X320538Y180099D01*
X320611Y179999D01*
X320681Y179897D01*
X320747Y179793D01*
X320810Y179687D01*
X320869Y179579D01*
X320925Y179469D01*
X320977Y179357D01*
X321026Y179244D01*
X321071Y179129D01*
X321112Y179013D01*
X321149Y178895D01*
X321183Y178776D01*
X321213Y178656D01*
X321238Y178536D01*
X321260Y178414D01*
X321278Y178292D01*
X321292Y178170D01*
X321302Y178047D01*
X321308Y177923D01*
X321310Y177800D01*
X321308Y177677D01*
X321302Y177553D01*
X321292Y177430D01*
X321278Y177308D01*
X321260Y177186D01*
X321238Y177064D01*
X321213Y176944D01*
X321183Y176824D01*
X321149Y176705D01*
X321112Y176587D01*
X321071Y176471D01*
X321026Y176356D01*
X320977Y176243D01*
X320925Y176131D01*
X320869Y176021D01*
X320810Y175913D01*
X320747Y175807D01*
X320681Y175703D01*
X320611Y175601D01*
X320538Y175501D01*
X320462Y175404D01*
X320383Y175309D01*
X320301Y175217D01*
X320216Y175128D01*
X320128Y175041D01*
X320037Y174958D01*
X319944Y174877D01*
X319848Y174799D01*
X319749Y174725D01*
X319649Y174654D01*
X319546Y174586D01*
X319441Y174521D01*
X319333Y174460D01*
X319224Y174402D01*
X319113Y174348D01*
X319001Y174298D01*
X318886Y174251D01*
X318771Y174208D01*
X318654Y174169D01*
X318536Y174133D01*
X318416Y174102D01*
X318296Y174074D01*
X318175Y174050D01*
X318053Y174030D01*
X317931Y174014D01*
X317808Y174002D01*
X317685Y173994D01*
X317562Y173990D01*
X317438Y173990D01*
X317315Y173994D01*
X317192Y174002D01*
X317069Y174014D01*
X316947Y174030D01*
X316825Y174050D01*
X316704Y174074D01*
X316584Y174102D01*
X316464Y174133D01*
X316346Y174169D01*
X316229Y174208D01*
X316114Y174251D01*
X315999Y174298D01*
X315887Y174348D01*
X315776Y174402D01*
X315667Y174460D01*
X315559Y174521D01*
X315454Y174586D01*
X315351Y174654D01*
X315251Y174725D01*
X315152Y174799D01*
X315056Y174877D01*
X314963Y174958D01*
X314872Y175041D01*
X314784Y175128D01*
X314699Y175217D01*
X314617Y175309D01*
X314538Y175404D01*
X314462Y175501D01*
X314389Y175601D01*
X314319Y175703D01*
X314253Y175807D01*
X314190Y175913D01*
X314131Y176021D01*
X314075Y176131D01*
X314023Y176243D01*
X313974Y176356D01*
X313929Y176471D01*
X313888Y176587D01*
X313851Y176705D01*
X313817Y176824D01*
X313787Y176944D01*
X313762Y177064D01*
X313740Y177186D01*
X313722Y177308D01*
X313708Y177430D01*
X313698Y177553D01*
X313692Y177677D01*
X313690Y177800D01*
D10*
X236394Y114815D02*
X230632Y114815D01*
X230632Y106172D01*
X236394Y106172D01*
X233513Y110494D02*
X230632Y110494D01*
X241428Y113375D02*
X241428Y107613D01*
X242868Y106172D01*
X242868Y111934D02*
X239987Y111934D01*
X246224Y114815D02*
X246224Y106172D01*
X246224Y110494D02*
X247665Y111934D01*
X250546Y111934D01*
X251986Y110494D01*
X251986Y106172D01*
X257020Y106172D02*
X259901Y106172D01*
X257020Y106172D02*
X255579Y107613D01*
X255579Y110494D01*
X257020Y111934D01*
X259901Y111934D01*
X261341Y110494D01*
X261341Y109053D01*
X255579Y109053D01*
X264934Y106172D02*
X264934Y111934D01*
X264934Y109053D02*
X267815Y111934D01*
X269256Y111934D01*
X272730Y111934D02*
X272730Y106172D01*
X272730Y111934D02*
X277052Y111934D01*
X278493Y110494D01*
X278493Y106172D01*
X283526Y106172D02*
X286407Y106172D01*
X283526Y106172D02*
X282086Y107613D01*
X282086Y110494D01*
X283526Y111934D01*
X286407Y111934D01*
X287848Y110494D01*
X287848Y109053D01*
X282086Y109053D01*
X292881Y107613D02*
X292881Y113375D01*
X292881Y107613D02*
X294322Y106172D01*
X294322Y111934D02*
X291441Y111934D01*
X230632Y99575D02*
X230632Y90932D01*
X230632Y99575D02*
X236394Y99575D01*
X233513Y95254D02*
X230632Y95254D01*
X241428Y90932D02*
X244309Y90932D01*
X241428Y90932D02*
X239987Y92373D01*
X239987Y95254D01*
X241428Y96694D01*
X244309Y96694D01*
X245749Y95254D01*
X245749Y93813D01*
X239987Y93813D01*
X250783Y96694D02*
X253664Y96694D01*
X255105Y95254D01*
X255105Y90932D01*
X250783Y90932D01*
X249342Y92373D01*
X250783Y93813D01*
X255105Y93813D01*
X260138Y92373D02*
X260138Y98135D01*
X260138Y92373D02*
X261579Y90932D01*
X261579Y96694D02*
X258698Y96694D01*
X264934Y99575D02*
X264934Y90932D01*
X264934Y95254D02*
X266375Y96694D01*
X269256Y96694D01*
X270697Y95254D01*
X270697Y90932D01*
X275730Y90932D02*
X278611Y90932D01*
X275730Y90932D02*
X274290Y92373D01*
X274290Y95254D01*
X275730Y96694D01*
X278611Y96694D01*
X280052Y95254D01*
X280052Y93813D01*
X274290Y93813D01*
X283645Y90932D02*
X283645Y96694D01*
X283645Y93813D02*
X286526Y96694D01*
X287966Y96694D01*
X291441Y99575D02*
X291441Y90932D01*
X294322Y93813D01*
X297203Y90932D01*
X297203Y99575D01*
X300796Y96694D02*
X302236Y96694D01*
X302236Y90932D01*
X300796Y90932D02*
X303677Y90932D01*
X302236Y99575D02*
X302236Y101016D01*
X307033Y96694D02*
X307033Y90932D01*
X307033Y96694D02*
X311354Y96694D01*
X312795Y95254D01*
X312795Y90932D01*
X319269Y88051D02*
X320710Y88051D01*
X322150Y89491D01*
X322150Y96694D01*
X317828Y96694D01*
X316388Y95254D01*
X316388Y92373D01*
X317828Y90932D01*
X322150Y90932D01*
X49022Y181102D02*
X49022Y189745D01*
X53344Y189745D01*
X54784Y188305D01*
X54784Y185424D01*
X53344Y183983D01*
X49022Y183983D01*
X51903Y183983D02*
X54784Y181102D01*
X59818Y181102D02*
X62699Y181102D01*
X59818Y181102D02*
X58377Y182543D01*
X58377Y185424D01*
X59818Y186864D01*
X62699Y186864D01*
X64139Y185424D01*
X64139Y183983D01*
X58377Y183983D01*
X67732Y181102D02*
X72054Y181102D01*
X73495Y182543D01*
X72054Y183983D01*
X69173Y183983D01*
X67732Y185424D01*
X69173Y186864D01*
X73495Y186864D01*
X78528Y181102D02*
X81409Y181102D01*
X78528Y181102D02*
X77088Y182543D01*
X77088Y185424D01*
X78528Y186864D01*
X81409Y186864D01*
X82850Y185424D01*
X82850Y183983D01*
X77088Y183983D01*
X87883Y182543D02*
X87883Y188305D01*
X87883Y182543D02*
X89324Y181102D01*
X89324Y186864D02*
X86443Y186864D01*
X513842Y13215D02*
X513842Y4572D01*
X519604Y4572D01*
X523197Y10334D02*
X524638Y10334D01*
X524638Y4572D01*
X526078Y4572D02*
X523197Y4572D01*
X524638Y13215D02*
X524638Y14656D01*
X529434Y10334D02*
X529434Y4572D01*
X529434Y10334D02*
X533756Y10334D01*
X535196Y8894D01*
X535196Y4572D01*
X538789Y4572D02*
X538789Y13215D01*
X538789Y7453D02*
X543111Y4572D01*
X538789Y7453D02*
X543111Y10334D01*
X518922Y216662D02*
X518922Y222424D01*
X521803Y225305D01*
X524684Y222424D01*
X524684Y216662D01*
X524684Y220984D02*
X518922Y220984D01*
X529718Y222424D02*
X534039Y222424D01*
X529718Y222424D02*
X528277Y220984D01*
X528277Y218103D01*
X529718Y216662D01*
X534039Y216662D01*
X539073Y218103D02*
X539073Y223865D01*
X539073Y218103D02*
X540514Y216662D01*
X540514Y222424D02*
X537632Y222424D01*
D12*
X391165Y263779D02*
X391165Y274710D01*
X385699Y269245D01*
X392987Y269245D01*
X409087Y271067D02*
X416374Y263779D01*
X409087Y263779D02*
X416374Y271067D01*
X432475Y274710D02*
X432475Y263779D01*
X439762Y263779D02*
X432475Y274710D01*
X439762Y274710D02*
X439762Y263779D01*
X445991Y263779D02*
X449635Y263779D01*
X451456Y265601D01*
X451456Y269245D01*
X449635Y271067D01*
X445991Y271067D01*
X444169Y269245D01*
X444169Y265601D01*
X445991Y263779D01*
X457685Y265601D02*
X457685Y272888D01*
X457685Y265601D02*
X459507Y263779D01*
X459507Y271067D02*
X455863Y271067D01*
X475353Y274710D02*
X475353Y263779D01*
X475353Y274710D02*
X480818Y274710D01*
X482640Y272888D01*
X482640Y269245D01*
X480818Y267423D01*
X475353Y267423D01*
X487047Y274710D02*
X488869Y274710D01*
X488869Y263779D01*
X490690Y263779D02*
X487047Y263779D01*
X496665Y271067D02*
X500308Y271067D01*
X502130Y269245D01*
X502130Y263779D01*
X496665Y263779D01*
X494843Y265601D01*
X496665Y267423D01*
X502130Y267423D01*
X508359Y265601D02*
X508359Y272888D01*
X508359Y265601D02*
X510180Y263779D01*
X510180Y271067D02*
X506537Y271067D01*
X516155Y263779D02*
X519798Y263779D01*
X516155Y263779D02*
X514333Y265601D01*
X514333Y269245D01*
X516155Y271067D01*
X519798Y271067D01*
X521620Y269245D01*
X521620Y267423D01*
X514333Y267423D01*
X533314Y263779D02*
X533314Y274710D01*
X533314Y263779D02*
X527848Y263779D01*
X526027Y265601D01*
X526027Y269245D01*
X527848Y271067D01*
X533314Y271067D01*
X549415Y274710D02*
X549415Y263779D01*
X549415Y269245D02*
X556702Y269245D01*
X556702Y274710D02*
X556702Y263779D01*
X562930Y263779D02*
X566574Y263779D01*
X568396Y265601D01*
X568396Y269245D01*
X566574Y271067D01*
X562930Y271067D01*
X561109Y269245D01*
X561109Y265601D01*
X562930Y263779D01*
X572802Y274710D02*
X574624Y274710D01*
X574624Y263779D01*
X572802Y263779D02*
X576446Y263779D01*
X582420Y263779D02*
X586064Y263779D01*
X582420Y263779D02*
X580598Y265601D01*
X580598Y269245D01*
X582420Y271067D01*
X586064Y271067D01*
X587886Y269245D01*
X587886Y267423D01*
X580598Y267423D01*
X592292Y263779D02*
X597758Y263779D01*
X599580Y265601D01*
X597758Y267423D01*
X594114Y267423D01*
X592292Y269245D01*
X594114Y271067D01*
X599580Y271067D01*
D13*
X486410Y256540D02*
X486410Y234950D01*
X486410Y233680D02*
X477520Y245110D01*
X486410Y233680D02*
X496570Y245110D01*
D14*
X207800Y147300D02*
X147800Y147300D01*
X144800Y144300D02*
X144800Y84300D01*
X147800Y81300D02*
X207800Y81300D01*
X210800Y84300D01*
X210800Y144300D01*
X207800Y147300D01*
X147800Y147300D02*
X144800Y144300D01*
X144800Y84300D02*
X147800Y81300D01*
D15*
X219300Y77260D02*
X219302Y77337D01*
X219308Y77414D01*
X219318Y77491D01*
X219332Y77567D01*
X219349Y77642D01*
X219371Y77716D01*
X219396Y77789D01*
X219426Y77861D01*
X219458Y77931D01*
X219495Y77999D01*
X219534Y78065D01*
X219577Y78129D01*
X219624Y78191D01*
X219673Y78250D01*
X219726Y78307D01*
X219781Y78361D01*
X219839Y78412D01*
X219900Y78460D01*
X219963Y78505D01*
X220028Y78546D01*
X220095Y78584D01*
X220164Y78619D01*
X220235Y78649D01*
X220307Y78677D01*
X220381Y78700D01*
X220455Y78720D01*
X220531Y78736D01*
X220607Y78748D01*
X220684Y78756D01*
X220761Y78760D01*
X220839Y78760D01*
X220916Y78756D01*
X220993Y78748D01*
X221069Y78736D01*
X221145Y78720D01*
X221219Y78700D01*
X221293Y78677D01*
X221365Y78649D01*
X221436Y78619D01*
X221505Y78584D01*
X221572Y78546D01*
X221637Y78505D01*
X221700Y78460D01*
X221761Y78412D01*
X221819Y78361D01*
X221874Y78307D01*
X221927Y78250D01*
X221976Y78191D01*
X222023Y78129D01*
X222066Y78065D01*
X222105Y77999D01*
X222142Y77931D01*
X222174Y77861D01*
X222204Y77789D01*
X222229Y77716D01*
X222251Y77642D01*
X222268Y77567D01*
X222282Y77491D01*
X222292Y77414D01*
X222298Y77337D01*
X222300Y77260D01*
X222298Y77183D01*
X222292Y77106D01*
X222282Y77029D01*
X222268Y76953D01*
X222251Y76878D01*
X222229Y76804D01*
X222204Y76731D01*
X222174Y76659D01*
X222142Y76589D01*
X222105Y76521D01*
X222066Y76455D01*
X222023Y76391D01*
X221976Y76329D01*
X221927Y76270D01*
X221874Y76213D01*
X221819Y76159D01*
X221761Y76108D01*
X221700Y76060D01*
X221637Y76015D01*
X221572Y75974D01*
X221505Y75936D01*
X221436Y75901D01*
X221365Y75871D01*
X221293Y75843D01*
X221219Y75820D01*
X221145Y75800D01*
X221069Y75784D01*
X220993Y75772D01*
X220916Y75764D01*
X220839Y75760D01*
X220761Y75760D01*
X220684Y75764D01*
X220607Y75772D01*
X220531Y75784D01*
X220455Y75800D01*
X220381Y75820D01*
X220307Y75843D01*
X220235Y75871D01*
X220164Y75901D01*
X220095Y75936D01*
X220028Y75974D01*
X219963Y76015D01*
X219900Y76060D01*
X219839Y76108D01*
X219781Y76159D01*
X219726Y76213D01*
X219673Y76270D01*
X219624Y76329D01*
X219577Y76391D01*
X219534Y76455D01*
X219495Y76521D01*
X219458Y76589D01*
X219426Y76659D01*
X219396Y76731D01*
X219371Y76804D01*
X219349Y76878D01*
X219332Y76953D01*
X219318Y77029D01*
X219308Y77106D01*
X219302Y77183D01*
X219300Y77260D01*
D10*
X185850Y60543D02*
X185850Y55035D01*
X186951Y53933D01*
X189154Y53933D01*
X190256Y55035D01*
X190256Y60543D01*
X193334Y55035D02*
X194435Y53933D01*
X196639Y53933D01*
X197740Y55035D01*
X197740Y56136D01*
X196639Y57238D01*
X194435Y57238D01*
X193334Y58339D01*
X193334Y59441D01*
X194435Y60543D01*
X196639Y60543D01*
X197740Y59441D01*
X195537Y61644D02*
X195537Y52831D01*
X200818Y58339D02*
X203021Y60543D01*
X203021Y53933D01*
X200818Y53933D02*
X205224Y53933D01*
D14*
X595580Y32300D02*
X595580Y195600D01*
X379680Y195600D02*
X379680Y32300D01*
X481280Y195600D02*
X566380Y195600D01*
X439380Y195600D02*
X379680Y195600D01*
X481280Y32300D02*
X566380Y32300D01*
X439380Y32300D02*
X379680Y32300D01*
X566380Y195600D02*
X595580Y195600D01*
X595580Y32300D02*
X566380Y32300D01*
D10*
X602736Y176294D02*
X609346Y180700D01*
X609346Y176294D02*
X602736Y180700D01*
X604940Y183778D02*
X602736Y185981D01*
X609346Y185981D01*
X609346Y183778D02*
X609346Y188184D01*
D14*
X59700Y134800D02*
X59700Y93800D01*
X92700Y93800D02*
X92700Y134800D01*
X92700Y93800D02*
X59700Y93800D01*
X59700Y134800D02*
X92700Y134800D01*
D10*
X52150Y94742D02*
X51048Y94742D01*
X52150Y94742D02*
X54353Y96945D01*
X52150Y99148D01*
X51048Y99148D01*
X54353Y96945D02*
X57658Y96945D01*
X53252Y102226D02*
X51048Y104429D01*
X57658Y104429D01*
X57658Y102226D02*
X57658Y106633D01*
X263652Y135382D02*
X263652Y141992D01*
X266957Y141992D01*
X268058Y140890D01*
X268058Y138687D01*
X266957Y137585D01*
X263652Y137585D01*
X265855Y137585D02*
X268058Y135382D01*
X271136Y139788D02*
X273339Y141992D01*
X273339Y135382D01*
X271136Y135382D02*
X275543Y135382D01*
X48620Y85772D02*
X47519Y86874D01*
X45315Y86874D01*
X44214Y85772D01*
X44214Y81366D01*
X45315Y80264D01*
X47519Y80264D01*
X48620Y81366D01*
X51698Y84670D02*
X53901Y86874D01*
X53901Y80264D01*
X51698Y80264D02*
X56104Y80264D01*
X44810Y144192D02*
X43709Y145294D01*
X41505Y145294D01*
X40404Y144192D01*
X40404Y139786D01*
X41505Y138684D01*
X43709Y138684D01*
X44810Y139786D01*
X47888Y138684D02*
X52294Y138684D01*
X47888Y138684D02*
X52294Y143090D01*
X52294Y144192D01*
X51193Y145294D01*
X48989Y145294D01*
X47888Y144192D01*
X95498Y130302D02*
X102108Y130302D01*
X95498Y130302D02*
X95498Y133607D01*
X96600Y134708D01*
X98803Y134708D01*
X99905Y133607D01*
X99905Y130302D01*
X99905Y132505D02*
X102108Y134708D01*
X102108Y137786D02*
X102108Y142193D01*
X97702Y142193D02*
X102108Y137786D01*
X97702Y142193D02*
X96600Y142193D01*
X95498Y141091D01*
X95498Y138888D01*
X96600Y137786D01*
X57912Y170942D02*
X57912Y177552D01*
X61217Y177552D01*
X62318Y176450D01*
X62318Y174247D01*
X61217Y173145D01*
X57912Y173145D01*
X60115Y173145D02*
X62318Y170942D01*
X65396Y176450D02*
X66498Y177552D01*
X68701Y177552D01*
X69803Y176450D01*
X69803Y175348D01*
X68701Y174247D01*
X67599Y174247D01*
X68701Y174247D02*
X69803Y173145D01*
X69803Y172044D01*
X68701Y170942D01*
X66498Y170942D01*
X65396Y172044D01*
X224554Y81794D02*
X224554Y75184D01*
X224554Y81794D02*
X227859Y81794D01*
X228960Y80692D01*
X228960Y78489D01*
X227859Y77387D01*
X224554Y77387D01*
X226757Y77387D02*
X228960Y75184D01*
X232038Y81794D02*
X236444Y81794D01*
X232038Y81794D02*
X232038Y78489D01*
X234241Y79590D01*
X235343Y79590D01*
X236444Y78489D01*
X236444Y76286D01*
X235343Y75184D01*
X233139Y75184D01*
X232038Y76286D01*
X224554Y67824D02*
X224554Y61214D01*
X224554Y67824D02*
X227859Y67824D01*
X228960Y66722D01*
X228960Y64519D01*
X227859Y63417D01*
X224554Y63417D01*
X226757Y63417D02*
X228960Y61214D01*
X234241Y66722D02*
X236444Y67824D01*
X234241Y66722D02*
X232038Y64519D01*
X232038Y62316D01*
X233139Y61214D01*
X235343Y61214D01*
X236444Y62316D01*
X236444Y63417D01*
X235343Y64519D01*
X232038Y64519D01*
X224554Y54489D02*
X224554Y47879D01*
X224554Y54489D02*
X227859Y54489D01*
X228960Y53387D01*
X228960Y51184D01*
X227859Y50082D01*
X224554Y50082D01*
X226757Y50082D02*
X228960Y47879D01*
X232038Y54489D02*
X236444Y54489D01*
X236444Y53387D01*
X232038Y48981D01*
X232038Y47879D01*
X51054Y132573D02*
X49952Y131472D01*
X51054Y132573D02*
X51054Y133675D01*
X49952Y134776D01*
X44444Y134776D01*
X44444Y133675D02*
X44444Y135878D01*
X44444Y138956D02*
X51054Y138956D01*
X44444Y138956D02*
X44444Y142261D01*
X45546Y143362D01*
X47749Y143362D01*
X48851Y142261D01*
X48851Y138956D01*
X46648Y146440D02*
X44444Y148643D01*
X51054Y148643D01*
X51054Y146440D02*
X51054Y150846D01*
X131312Y83312D02*
X137922Y83312D01*
X131312Y83312D02*
X131312Y86617D01*
X132414Y87718D01*
X134617Y87718D01*
X135719Y86617D01*
X135719Y83312D01*
X135719Y85515D02*
X137922Y87718D01*
X132414Y90796D02*
X131312Y91898D01*
X131312Y94101D01*
X132414Y95203D01*
X133516Y95203D01*
X134617Y94101D01*
X135719Y95203D01*
X136820Y95203D01*
X137922Y94101D01*
X137922Y91898D01*
X136820Y90796D01*
X135719Y90796D01*
X134617Y91898D01*
X133516Y90796D01*
X132414Y90796D01*
X134617Y91898D02*
X134617Y94101D01*
X323614Y75444D02*
X323614Y68834D01*
X323614Y75444D02*
X326919Y75444D01*
X328020Y74342D01*
X328020Y72139D01*
X326919Y71037D01*
X323614Y71037D01*
X325817Y71037D02*
X328020Y68834D01*
X334403Y68834D02*
X334403Y75444D01*
X331098Y72139D01*
X335504Y72139D01*
X323614Y61474D02*
X323614Y54864D01*
X323614Y61474D02*
X326919Y61474D01*
X328020Y60372D01*
X328020Y58169D01*
X326919Y57067D01*
X323614Y57067D01*
X325817Y57067D02*
X328020Y54864D01*
X331098Y55966D02*
X332199Y54864D01*
X334403Y54864D01*
X335504Y55966D01*
X335504Y60372D01*
X334403Y61474D01*
X332199Y61474D01*
X331098Y60372D01*
X331098Y59270D01*
X332199Y58169D01*
X335504Y58169D01*
X328020Y158162D02*
X326919Y159264D01*
X324715Y159264D01*
X323614Y158162D01*
X323614Y153756D01*
X324715Y152654D01*
X326919Y152654D01*
X328020Y153756D01*
X331098Y158162D02*
X332199Y159264D01*
X334403Y159264D01*
X335504Y158162D01*
X335504Y157060D01*
X334403Y155959D01*
X333301Y155959D01*
X334403Y155959D02*
X335504Y154857D01*
X335504Y153756D01*
X334403Y152654D01*
X332199Y152654D01*
X331098Y153756D01*
X328020Y172132D02*
X326919Y173234D01*
X324715Y173234D01*
X323614Y172132D01*
X323614Y167726D01*
X324715Y166624D01*
X326919Y166624D01*
X328020Y167726D01*
X334403Y166624D02*
X334403Y173234D01*
X331098Y169929D01*
X335504Y169929D01*
X326919Y131324D02*
X328020Y130222D01*
X326919Y131324D02*
X324715Y131324D01*
X323614Y130222D01*
X323614Y125816D01*
X324715Y124714D01*
X326919Y124714D01*
X328020Y125816D01*
X331098Y131324D02*
X335504Y131324D01*
X331098Y131324D02*
X331098Y128019D01*
X333301Y129120D01*
X334403Y129120D01*
X335504Y128019D01*
X335504Y125816D01*
X334403Y124714D01*
X332199Y124714D01*
X331098Y125816D01*
X316130Y138684D02*
X316130Y145294D01*
X319434Y145294D01*
X320536Y144192D01*
X320536Y141989D01*
X319434Y140887D01*
X316130Y140887D01*
X318333Y140887D02*
X320536Y138684D01*
X323614Y143090D02*
X325817Y145294D01*
X325817Y138684D01*
X323614Y138684D02*
X328020Y138684D01*
X331098Y139786D02*
X331098Y144192D01*
X332199Y145294D01*
X334403Y145294D01*
X335504Y144192D01*
X335504Y139786D01*
X334403Y138684D01*
X332199Y138684D01*
X331098Y139786D01*
X335504Y144192D01*
X316130Y117354D02*
X316130Y110744D01*
X316130Y117354D02*
X319434Y117354D01*
X320536Y116252D01*
X320536Y114049D01*
X319434Y112947D01*
X316130Y112947D01*
X318333Y112947D02*
X320536Y110744D01*
X323614Y115150D02*
X325817Y117354D01*
X325817Y110744D01*
X323614Y110744D02*
X328020Y110744D01*
X331098Y115150D02*
X333301Y117354D01*
X333301Y110744D01*
X331098Y110744D02*
X335504Y110744D01*
X328020Y102282D02*
X326919Y103384D01*
X324715Y103384D01*
X323614Y102282D01*
X323614Y97876D01*
X324715Y96774D01*
X326919Y96774D01*
X328020Y97876D01*
X333301Y102282D02*
X335504Y103384D01*
X333301Y102282D02*
X331098Y100079D01*
X331098Y97876D01*
X332199Y96774D01*
X334403Y96774D01*
X335504Y97876D01*
X335504Y98977D01*
X334403Y100079D01*
X331098Y100079D01*
X316130Y89414D02*
X316130Y82804D01*
X316130Y89414D02*
X319434Y89414D01*
X320536Y88312D01*
X320536Y86109D01*
X319434Y85007D01*
X316130Y85007D01*
X318333Y85007D02*
X320536Y82804D01*
X323614Y87210D02*
X325817Y89414D01*
X325817Y82804D01*
X323614Y82804D02*
X328020Y82804D01*
X331098Y82804D02*
X335504Y82804D01*
X331098Y82804D02*
X335504Y87210D01*
X335504Y88312D01*
X334403Y89414D01*
X332199Y89414D01*
X331098Y88312D01*
X227918Y133710D02*
X226816Y132609D01*
X226816Y130405D01*
X227918Y129304D01*
X232324Y129304D01*
X233426Y130405D01*
X233426Y132609D01*
X232324Y133710D01*
X226816Y136788D02*
X226816Y141194D01*
X227918Y141194D01*
X232324Y136788D01*
X233426Y136788D01*
X240786Y132609D02*
X241888Y133710D01*
X240786Y132609D02*
X240786Y130405D01*
X241888Y129304D01*
X246294Y129304D01*
X247396Y130405D01*
X247396Y132609D01*
X246294Y133710D01*
X241888Y136788D02*
X240786Y137889D01*
X240786Y140093D01*
X241888Y141194D01*
X242990Y141194D01*
X244091Y140093D01*
X245193Y141194D01*
X246294Y141194D01*
X247396Y140093D01*
X247396Y137889D01*
X246294Y136788D01*
X245193Y136788D01*
X244091Y137889D01*
X242990Y136788D01*
X241888Y136788D01*
X244091Y137889D02*
X244091Y140093D01*
X254756Y132609D02*
X255858Y133710D01*
X254756Y132609D02*
X254756Y130405D01*
X255858Y129304D01*
X260264Y129304D01*
X261366Y130405D01*
X261366Y132609D01*
X260264Y133710D01*
X260264Y136788D02*
X261366Y137889D01*
X261366Y140093D01*
X260264Y141194D01*
X255858Y141194D01*
X254756Y140093D01*
X254756Y137889D01*
X255858Y136788D01*
X256960Y136788D01*
X258061Y137889D01*
X258061Y141194D01*
X269828Y126226D02*
X268726Y125124D01*
X268726Y122921D01*
X269828Y121820D01*
X274234Y121820D01*
X275336Y122921D01*
X275336Y125124D01*
X274234Y126226D01*
X270930Y129304D02*
X268726Y131507D01*
X275336Y131507D01*
X275336Y129304D02*
X275336Y133710D01*
X274234Y136788D02*
X269828Y136788D01*
X268726Y137889D01*
X268726Y140093D01*
X269828Y141194D01*
X274234Y141194D01*
X275336Y140093D01*
X275336Y137889D01*
X274234Y136788D01*
X269828Y141194D01*
D11*
X280670Y161290D02*
X290830Y161290D01*
D10*
X286338Y126226D02*
X285236Y125124D01*
X285236Y122921D01*
X286338Y121820D01*
X290744Y121820D01*
X291846Y122921D01*
X291846Y125124D01*
X290744Y126226D01*
X287440Y129304D02*
X285236Y131507D01*
X291846Y131507D01*
X291846Y129304D02*
X291846Y133710D01*
X287440Y136788D02*
X285236Y138991D01*
X291846Y138991D01*
X291846Y136788D02*
X291846Y141194D01*
D11*
X144780Y200660D02*
X134620Y200660D01*
D10*
X133598Y225047D02*
X134700Y226148D01*
X133598Y225047D02*
X133598Y222844D01*
X134700Y221742D01*
X139106Y221742D01*
X140208Y222844D01*
X140208Y225047D01*
X139106Y226148D01*
X135802Y229226D02*
X133598Y231429D01*
X140208Y231429D01*
X140208Y229226D02*
X140208Y233633D01*
X140208Y236710D02*
X140208Y241117D01*
X135802Y241117D02*
X140208Y236710D01*
X135802Y241117D02*
X134700Y241117D01*
X133598Y240015D01*
X133598Y237812D01*
X134700Y236710D01*
X92104Y168154D02*
X93206Y167052D01*
X92104Y168154D02*
X89901Y168154D01*
X88800Y167052D01*
X88800Y162646D01*
X89901Y161544D01*
X92104Y161544D01*
X93206Y162646D01*
X96284Y165950D02*
X98487Y168154D01*
X98487Y161544D01*
X96284Y161544D02*
X100690Y161544D01*
X103768Y167052D02*
X104869Y168154D01*
X107073Y168154D01*
X108174Y167052D01*
X108174Y165950D01*
X107073Y164849D01*
X105971Y164849D01*
X107073Y164849D02*
X108174Y163747D01*
X108174Y162646D01*
X107073Y161544D01*
X104869Y161544D01*
X103768Y162646D01*
D11*
X71120Y62230D02*
X60960Y62230D01*
D10*
X59938Y84077D02*
X61040Y85178D01*
X59938Y84077D02*
X59938Y81874D01*
X61040Y80772D01*
X65446Y80772D01*
X66548Y81874D01*
X66548Y84077D01*
X65446Y85178D01*
X62142Y88256D02*
X59938Y90459D01*
X66548Y90459D01*
X66548Y88256D02*
X66548Y92663D01*
X66548Y99045D02*
X59938Y99045D01*
X63243Y95740D01*
X63243Y100147D01*
X77718Y85347D02*
X78820Y86448D01*
X77718Y85347D02*
X77718Y83144D01*
X78820Y82042D01*
X83226Y82042D01*
X84328Y83144D01*
X84328Y85347D01*
X83226Y86448D01*
X79922Y89526D02*
X77718Y91729D01*
X84328Y91729D01*
X84328Y89526D02*
X84328Y93933D01*
X77718Y97010D02*
X77718Y101417D01*
X77718Y97010D02*
X81023Y97010D01*
X79922Y99214D01*
X79922Y100315D01*
X81023Y101417D01*
X83226Y101417D01*
X84328Y100315D01*
X84328Y98112D01*
X83226Y97010D01*
X96270Y81760D02*
X96270Y65560D01*
X124710Y65560D02*
X124710Y81760D01*
X115710Y65560D02*
X105270Y65560D01*
X114770Y81760D02*
X115710Y81760D01*
X106210Y81760D02*
X105270Y81760D01*
X123770Y81760D02*
X124710Y81760D01*
X97210Y81760D02*
X96270Y81760D01*
X96270Y65560D02*
X97210Y65560D01*
X123770Y65560D02*
X124710Y65560D01*
D16*
X102762Y42418D02*
X98864Y42418D01*
X100813Y42418D02*
X100813Y54112D01*
X98864Y54112D02*
X102762Y54112D01*
X112507Y54112D02*
X114456Y52163D01*
X112507Y54112D02*
X108609Y54112D01*
X106660Y52163D01*
X106660Y44367D01*
X108609Y42418D01*
X112507Y42418D01*
X114456Y44367D01*
X118354Y50214D02*
X122252Y54112D01*
X122252Y42418D01*
X118354Y42418D02*
X126150Y42418D01*
D11*
X107950Y177800D02*
X107950Y187960D01*
D10*
X129032Y188982D02*
X129032Y182372D01*
X129032Y188982D02*
X133438Y188982D01*
X131235Y185677D02*
X129032Y185677D01*
X136516Y182372D02*
X136516Y188982D01*
X139821Y188982D01*
X140923Y187880D01*
X140923Y186778D01*
X139821Y185677D01*
X140923Y184575D01*
X140923Y183474D01*
X139821Y182372D01*
X136516Y182372D01*
X136516Y185677D02*
X139821Y185677D01*
X144000Y186778D02*
X146204Y188982D01*
X146204Y182372D01*
X148407Y182372D02*
X144000Y182372D01*
D11*
X290830Y83820D02*
X290830Y73660D01*
D10*
X311912Y78232D02*
X311912Y84842D01*
X316318Y84842D01*
X314115Y81537D02*
X311912Y81537D01*
X319396Y78232D02*
X319396Y84842D01*
X322701Y84842D01*
X323803Y83740D01*
X323803Y82638D01*
X322701Y81537D01*
X323803Y80435D01*
X323803Y79334D01*
X322701Y78232D01*
X319396Y78232D01*
X319396Y81537D02*
X322701Y81537D01*
X326880Y78232D02*
X331287Y78232D01*
X331287Y82638D02*
X326880Y78232D01*
X331287Y82638D02*
X331287Y83740D01*
X330185Y84842D01*
X327982Y84842D01*
X326880Y83740D01*
X492660Y202184D02*
X492660Y208794D01*
X495964Y208794D01*
X497066Y207692D01*
X497066Y205489D01*
X495964Y204387D01*
X492660Y204387D01*
X494863Y204387D02*
X497066Y202184D01*
X500144Y206590D02*
X502347Y208794D01*
X502347Y202184D01*
X500144Y202184D02*
X504550Y202184D01*
X507628Y207692D02*
X508729Y208794D01*
X510933Y208794D01*
X512034Y207692D01*
X512034Y206590D01*
X510933Y205489D01*
X509831Y205489D01*
X510933Y205489D02*
X512034Y204387D01*
X512034Y203286D01*
X510933Y202184D01*
X508729Y202184D01*
X507628Y203286D01*
X492660Y22104D02*
X492660Y15494D01*
X492660Y22104D02*
X495964Y22104D01*
X497066Y21002D01*
X497066Y18799D01*
X495964Y17697D01*
X492660Y17697D01*
X494863Y17697D02*
X497066Y15494D01*
X500144Y19900D02*
X502347Y22104D01*
X502347Y15494D01*
X500144Y15494D02*
X504550Y15494D01*
X510933Y15494D02*
X510933Y22104D01*
X507628Y18799D01*
X512034Y18799D01*
X153502Y213360D02*
X152400Y214462D01*
X153502Y213360D02*
X154603Y213360D01*
X155705Y214462D01*
X155705Y219970D01*
X156806Y219970D02*
X154603Y219970D01*
X159884Y219970D02*
X159884Y213360D01*
X159884Y219970D02*
X163189Y219970D01*
X164291Y218868D01*
X164291Y216665D01*
X163189Y215563D01*
X159884Y215563D01*
X170673Y213360D02*
X170673Y219970D01*
X167368Y216665D01*
X171775Y216665D01*
X360072Y8468D02*
X361173Y7366D01*
X362275Y7366D01*
X363376Y8468D01*
X363376Y13976D01*
X362275Y13976D02*
X364478Y13976D01*
X367556Y13976D02*
X367556Y7366D01*
X367556Y13976D02*
X370861Y13976D01*
X371962Y12874D01*
X371962Y10671D01*
X370861Y9569D01*
X367556Y9569D01*
X375040Y7366D02*
X379446Y7366D01*
X375040Y7366D02*
X379446Y11772D01*
X379446Y12874D01*
X378345Y13976D01*
X376141Y13976D01*
X375040Y12874D01*
D11*
X267880Y127000D02*
X267883Y127220D01*
X267891Y127441D01*
X267904Y127661D01*
X267923Y127880D01*
X267948Y128099D01*
X267977Y128318D01*
X268012Y128535D01*
X268053Y128752D01*
X268098Y128968D01*
X268149Y129182D01*
X268205Y129395D01*
X268267Y129607D01*
X268333Y129817D01*
X268405Y130025D01*
X268482Y130232D01*
X268564Y130436D01*
X268650Y130639D01*
X268742Y130839D01*
X268839Y131038D01*
X268940Y131233D01*
X269047Y131426D01*
X269158Y131617D01*
X269273Y131804D01*
X269393Y131989D01*
X269518Y132171D01*
X269647Y132349D01*
X269781Y132525D01*
X269918Y132697D01*
X270060Y132865D01*
X270206Y133031D01*
X270356Y133192D01*
X270510Y133350D01*
X270668Y133504D01*
X270829Y133654D01*
X270995Y133800D01*
X271163Y133942D01*
X271335Y134079D01*
X271511Y134213D01*
X271689Y134342D01*
X271871Y134467D01*
X272056Y134587D01*
X272243Y134702D01*
X272434Y134813D01*
X272627Y134920D01*
X272822Y135021D01*
X273021Y135118D01*
X273221Y135210D01*
X273424Y135296D01*
X273628Y135378D01*
X273835Y135455D01*
X274043Y135527D01*
X274253Y135593D01*
X274465Y135655D01*
X274678Y135711D01*
X274892Y135762D01*
X275108Y135807D01*
X275325Y135848D01*
X275542Y135883D01*
X275761Y135912D01*
X275980Y135937D01*
X276199Y135956D01*
X276419Y135969D01*
X276640Y135977D01*
X276860Y135980D01*
X277080Y135977D01*
X277301Y135969D01*
X277521Y135956D01*
X277740Y135937D01*
X277959Y135912D01*
X278178Y135883D01*
X278395Y135848D01*
X278612Y135807D01*
X278828Y135762D01*
X279042Y135711D01*
X279255Y135655D01*
X279467Y135593D01*
X279677Y135527D01*
X279885Y135455D01*
X280092Y135378D01*
X280296Y135296D01*
X280499Y135210D01*
X280699Y135118D01*
X280898Y135021D01*
X281093Y134920D01*
X281286Y134813D01*
X281477Y134702D01*
X281664Y134587D01*
X281849Y134467D01*
X282031Y134342D01*
X282209Y134213D01*
X282385Y134079D01*
X282557Y133942D01*
X282725Y133800D01*
X282891Y133654D01*
X283052Y133504D01*
X283210Y133350D01*
X283364Y133192D01*
X283514Y133031D01*
X283660Y132865D01*
X283802Y132697D01*
X283939Y132525D01*
X284073Y132349D01*
X284202Y132171D01*
X284327Y131989D01*
X284447Y131804D01*
X284562Y131617D01*
X284673Y131426D01*
X284780Y131233D01*
X284881Y131038D01*
X284978Y130839D01*
X285070Y130639D01*
X285156Y130436D01*
X285238Y130232D01*
X285315Y130025D01*
X285387Y129817D01*
X285453Y129607D01*
X285515Y129395D01*
X285571Y129182D01*
X285622Y128968D01*
X285667Y128752D01*
X285708Y128535D01*
X285743Y128318D01*
X285772Y128099D01*
X285797Y127880D01*
X285816Y127661D01*
X285829Y127441D01*
X285837Y127220D01*
X285840Y127000D01*
X285837Y126780D01*
X285829Y126559D01*
X285816Y126339D01*
X285797Y126120D01*
X285772Y125901D01*
X285743Y125682D01*
X285708Y125465D01*
X285667Y125248D01*
X285622Y125032D01*
X285571Y124818D01*
X285515Y124605D01*
X285453Y124393D01*
X285387Y124183D01*
X285315Y123975D01*
X285238Y123768D01*
X285156Y123564D01*
X285070Y123361D01*
X284978Y123161D01*
X284881Y122962D01*
X284780Y122767D01*
X284673Y122574D01*
X284562Y122383D01*
X284447Y122196D01*
X284327Y122011D01*
X284202Y121829D01*
X284073Y121651D01*
X283939Y121475D01*
X283802Y121303D01*
X283660Y121135D01*
X283514Y120969D01*
X283364Y120808D01*
X283210Y120650D01*
X283052Y120496D01*
X282891Y120346D01*
X282725Y120200D01*
X282557Y120058D01*
X282385Y119921D01*
X282209Y119787D01*
X282031Y119658D01*
X281849Y119533D01*
X281664Y119413D01*
X281477Y119298D01*
X281286Y119187D01*
X281093Y119080D01*
X280898Y118979D01*
X280699Y118882D01*
X280499Y118790D01*
X280296Y118704D01*
X280092Y118622D01*
X279885Y118545D01*
X279677Y118473D01*
X279467Y118407D01*
X279255Y118345D01*
X279042Y118289D01*
X278828Y118238D01*
X278612Y118193D01*
X278395Y118152D01*
X278178Y118117D01*
X277959Y118088D01*
X277740Y118063D01*
X277521Y118044D01*
X277301Y118031D01*
X277080Y118023D01*
X276860Y118020D01*
X276640Y118023D01*
X276419Y118031D01*
X276199Y118044D01*
X275980Y118063D01*
X275761Y118088D01*
X275542Y118117D01*
X275325Y118152D01*
X275108Y118193D01*
X274892Y118238D01*
X274678Y118289D01*
X274465Y118345D01*
X274253Y118407D01*
X274043Y118473D01*
X273835Y118545D01*
X273628Y118622D01*
X273424Y118704D01*
X273221Y118790D01*
X273021Y118882D01*
X272822Y118979D01*
X272627Y119080D01*
X272434Y119187D01*
X272243Y119298D01*
X272056Y119413D01*
X271871Y119533D01*
X271689Y119658D01*
X271511Y119787D01*
X271335Y119921D01*
X271163Y120058D01*
X270995Y120200D01*
X270829Y120346D01*
X270668Y120496D01*
X270510Y120650D01*
X270356Y120808D01*
X270206Y120969D01*
X270060Y121135D01*
X269918Y121303D01*
X269781Y121475D01*
X269647Y121651D01*
X269518Y121829D01*
X269393Y122011D01*
X269273Y122196D01*
X269158Y122383D01*
X269047Y122574D01*
X268940Y122767D01*
X268839Y122962D01*
X268742Y123161D01*
X268650Y123361D01*
X268564Y123564D01*
X268482Y123768D01*
X268405Y123975D01*
X268333Y124183D01*
X268267Y124393D01*
X268205Y124605D01*
X268149Y124818D01*
X268098Y125032D01*
X268053Y125248D01*
X268012Y125465D01*
X267977Y125682D01*
X267948Y125901D01*
X267923Y126120D01*
X267904Y126339D01*
X267891Y126559D01*
X267883Y126780D01*
X267880Y127000D01*
D14*
X274320Y122936D02*
X274320Y131071D01*
X278387Y131071D01*
X279743Y129715D01*
X279743Y128359D01*
X278387Y127003D01*
X279743Y125648D01*
X279743Y124292D01*
X278387Y122936D01*
X274320Y122936D01*
X274320Y127003D02*
X278387Y127003D01*
D10*
X57912Y156972D02*
X57912Y163582D01*
X61217Y163582D01*
X62318Y162480D01*
X62318Y160277D01*
X61217Y159175D01*
X57912Y159175D01*
X60115Y159175D02*
X62318Y156972D01*
X65396Y161378D02*
X67599Y163582D01*
X67599Y156972D01*
X65396Y156972D02*
X69803Y156972D01*
X72880Y163582D02*
X77287Y163582D01*
X72880Y163582D02*
X72880Y160277D01*
X75084Y161378D01*
X76185Y161378D01*
X77287Y160277D01*
X77287Y158074D01*
X76185Y156972D01*
X73982Y156972D01*
X72880Y158074D01*
D14*
X56470Y194296D02*
X98470Y194296D01*
X98470Y224804D02*
X56470Y224804D01*
D10*
X79404Y191014D02*
X80506Y189912D01*
X79404Y191014D02*
X77201Y191014D01*
X76100Y189912D01*
X76100Y188810D01*
X77201Y187709D01*
X79404Y187709D01*
X80506Y186607D01*
X80506Y185506D01*
X79404Y184404D01*
X77201Y184404D01*
X76100Y185506D01*
X83584Y184404D02*
X83584Y191014D01*
X85787Y186607D02*
X83584Y184404D01*
X85787Y186607D02*
X87990Y184404D01*
X87990Y191014D01*
X91068Y188810D02*
X93271Y191014D01*
X93271Y184404D01*
X91068Y184404D02*
X95474Y184404D01*
D17*
X327628Y132271D03*
D18*
X327660Y132334D03*
D19*
X327660Y132398D03*
D20*
X327629Y132461D03*
D21*
X327660Y132525D03*
D22*
X327628Y132588D03*
D23*
X327660Y132652D03*
D24*
X327629Y132715D03*
D25*
X327628Y132779D03*
D26*
X327565Y132842D03*
D27*
X327565Y132906D03*
D28*
X327502Y132969D03*
D29*
X327501Y133033D03*
D30*
X327470Y133096D03*
D31*
X327406Y133160D03*
D32*
X327406Y133223D03*
D33*
X327375Y133287D03*
D34*
X327311Y133350D03*
D35*
X327279Y133414D03*
D36*
X327279Y133477D03*
D37*
X327216Y133541D03*
D38*
X327184Y133604D03*
D39*
X327120Y133668D03*
D40*
X327089Y133731D03*
D41*
X327057Y133795D03*
D42*
X326993Y133858D03*
D43*
X326962Y133922D03*
D44*
X326930Y133985D03*
D45*
X326866Y134049D03*
D46*
X326835Y134112D03*
D47*
X326771Y134176D03*
D48*
X326739Y134239D03*
D49*
X326708Y134303D03*
D50*
X326644Y134366D03*
D51*
X326612Y134430D03*
D52*
X326581Y134493D03*
D53*
X326517Y134557D03*
D54*
X326485Y134620D03*
D55*
X326454Y134684D03*
D56*
X326390Y134747D03*
D57*
X326358Y134811D03*
D58*
X326295Y134874D03*
D59*
X326263Y134938D03*
D60*
X326231Y135001D03*
D61*
X326168Y135065D03*
D62*
X326136Y135128D03*
D63*
X326104Y135192D03*
D64*
X326041Y135255D03*
D65*
X326009Y135319D03*
D66*
X325977Y135382D03*
D67*
X325914Y135446D03*
D68*
X325882Y135509D03*
D69*
X325819Y135573D03*
D70*
X325787Y135636D03*
D71*
X305975Y135700D03*
D72*
X325755Y135700D03*
D73*
X305975Y135763D03*
D74*
X325692Y135763D03*
D75*
X306039Y135827D03*
D76*
X325660Y135827D03*
D77*
X306102Y135890D03*
D78*
X325628Y135890D03*
D79*
X306134Y135954D03*
D80*
X325565Y135954D03*
D81*
X306197Y136017D03*
D82*
X325533Y136017D03*
D83*
X306261Y136081D03*
D84*
X325501Y136081D03*
D85*
X306356Y136144D03*
D86*
X325438Y136144D03*
D87*
X306388Y136208D03*
D88*
X325406Y136208D03*
D34*
X306483Y136271D03*
D89*
X325342Y136271D03*
D90*
X306547Y136335D03*
D91*
X325311Y136335D03*
D92*
X306642Y136398D03*
D93*
X325279Y136398D03*
D41*
X306737Y136462D03*
D94*
X325215Y136462D03*
D95*
X306769Y136525D03*
D96*
X325184Y136525D03*
D97*
X306896Y136589D03*
D98*
X325152Y136589D03*
D99*
X306959Y136652D03*
D100*
X325088Y136652D03*
D51*
X307054Y136716D03*
D101*
X325057Y136716D03*
D102*
X307118Y136779D03*
D103*
X325025Y136779D03*
D104*
X307245Y136843D03*
D105*
X324961Y136843D03*
D106*
X307308Y136906D03*
D107*
X324930Y136906D03*
D108*
X307435Y136970D03*
D109*
X324898Y136970D03*
D110*
X307531Y137033D03*
D111*
X324866Y137033D03*
D112*
X307626Y137097D03*
D113*
X324803Y137097D03*
D114*
X307721Y137160D03*
D115*
X324771Y137160D03*
D116*
X307816Y137224D03*
D117*
X324739Y137224D03*
D118*
X307912Y137287D03*
D119*
X324707Y137287D03*
D120*
X308039Y137351D03*
D121*
X324676Y137351D03*
D122*
X308134Y137414D03*
D123*
X324644Y137414D03*
D84*
X308229Y137478D03*
D124*
X324612Y137478D03*
D125*
X308325Y137541D03*
D126*
X324580Y137541D03*
D91*
X308420Y137605D03*
D127*
X324549Y137605D03*
D128*
X308547Y137668D03*
D129*
X324517Y137668D03*
D98*
X308642Y137732D03*
D130*
X324485Y137732D03*
D131*
X308737Y137795D03*
D132*
X324453Y137795D03*
D133*
X308864Y137859D03*
D134*
X324422Y137859D03*
D135*
X308960Y137922D03*
D136*
X324390Y137922D03*
D113*
X309055Y137986D03*
D137*
X324358Y137986D03*
D138*
X309182Y138049D03*
D139*
X324326Y138049D03*
D140*
X309245Y138113D03*
D141*
X324326Y138113D03*
D126*
X309340Y138176D03*
D142*
X324295Y138176D03*
D127*
X309436Y138240D03*
D143*
X324263Y138240D03*
D144*
X309499Y138303D03*
D145*
X324231Y138303D03*
D134*
X309563Y138367D03*
D146*
X324199Y138367D03*
D136*
X309658Y138430D03*
D147*
X324199Y138430D03*
D141*
X309721Y138494D03*
D148*
X324168Y138494D03*
D149*
X309785Y138557D03*
D150*
X324136Y138557D03*
D151*
X309880Y138621D03*
D152*
X324104Y138621D03*
D153*
X309944Y138684D03*
D154*
X324104Y138684D03*
D152*
X310007Y138748D03*
D155*
X324072Y138748D03*
D156*
X310071Y138811D03*
D157*
X324041Y138811D03*
D158*
X310134Y138875D03*
D159*
X324041Y138875D03*
D160*
X310166Y138938D03*
X324009Y138938D03*
D161*
X310229Y139002D03*
D162*
X323977Y139002D03*
D163*
X310293Y139065D03*
D164*
X323977Y139065D03*
D165*
X310325Y139129D03*
D161*
X323945Y139129D03*
D166*
X310420Y139192D03*
D163*
X323945Y139192D03*
D167*
X310452Y139256D03*
D165*
X323914Y139256D03*
D168*
X310515Y139319D03*
D166*
X323882Y139319D03*
D169*
X310547Y139383D03*
D170*
X323882Y139383D03*
D171*
X310611Y139446D03*
D172*
X323850Y139446D03*
D173*
X310642Y139510D03*
D174*
X323850Y139510D03*
D175*
X310706Y139573D03*
D176*
X323818Y139573D03*
D177*
X310737Y139637D03*
D178*
X323818Y139637D03*
D179*
X310801Y139700D03*
D180*
X323787Y139700D03*
D181*
X310833Y139764D03*
D182*
X323787Y139764D03*
D183*
X310896Y139827D03*
D171*
X323755Y139827D03*
D184*
X310928Y139891D03*
D169*
X323755Y139891D03*
D185*
X310960Y139954D03*
D171*
X323755Y139954D03*
D186*
X311023Y140018D03*
D173*
X323723Y140018D03*
D187*
X311023Y140081D03*
D188*
X323723Y140081D03*
D189*
X311055Y140145D03*
D177*
X323691Y140145D03*
D190*
X311119Y140208D03*
D191*
X323691Y140208D03*
D192*
X311150Y140272D03*
D177*
X323691Y140272D03*
D193*
X311182Y140335D03*
D191*
X323691Y140335D03*
D194*
X311245Y140399D03*
D195*
X323660Y140399D03*
D193*
X311245Y140462D03*
D196*
X323660Y140462D03*
D197*
X311277Y140526D03*
D198*
X323628Y140526D03*
D199*
X311341Y140589D03*
D179*
X323628Y140589D03*
D200*
X311373Y140653D03*
D198*
X323628Y140653D03*
D201*
X311373Y140716D03*
D179*
X323628Y140716D03*
D200*
X311436Y140780D03*
D198*
X323628Y140780D03*
D202*
X311468Y140843D03*
D183*
X323596Y140843D03*
D203*
X311468Y140907D03*
D204*
X323596Y140907D03*
D205*
X311531Y140970D03*
D179*
X323565Y140970D03*
D206*
X311531Y141034D03*
D198*
X323565Y141034D03*
D207*
X311563Y141097D03*
D185*
X323533Y141097D03*
D208*
X311626Y141161D03*
D181*
X323533Y141161D03*
D207*
X311626Y141224D03*
D185*
X323533Y141224D03*
D209*
X311658Y141288D03*
D181*
X323533Y141288D03*
D207*
X311690Y141351D03*
D185*
X323533Y141351D03*
D210*
X311722Y141415D03*
D181*
X323533Y141415D03*
D211*
X311722Y141478D03*
D185*
X323533Y141478D03*
D209*
X311785Y141542D03*
D181*
X323533Y141542D03*
D212*
X311785Y141605D03*
D185*
X323533Y141605D03*
D209*
X311785Y141669D03*
D204*
X323469Y141669D03*
D211*
X311849Y141732D03*
D183*
X323469Y141732D03*
D210*
X311849Y141796D03*
D204*
X323469Y141796D03*
D213*
X311881Y141859D03*
D183*
X323469Y141859D03*
D209*
X311912Y141923D03*
D204*
X323469Y141923D03*
D212*
X311912Y141986D03*
D183*
X323469Y141986D03*
D214*
X311944Y142050D03*
D204*
X323469Y142050D03*
D211*
X311976Y142113D03*
D183*
X323469Y142113D03*
D210*
X311976Y142177D03*
D198*
X323438Y142177D03*
D213*
X312008Y142240D03*
D179*
X323438Y142240D03*
D209*
X312039Y142304D03*
D198*
X323438Y142304D03*
D212*
X312039Y142367D03*
D179*
X323438Y142367D03*
D209*
X312039Y142431D03*
D198*
X323438Y142431D03*
D211*
X312103Y142494D03*
D196*
X323406Y142494D03*
D210*
X312103Y142558D03*
D195*
X323406Y142558D03*
D211*
X312103Y142621D03*
D191*
X323437Y142621D03*
D209*
X312166Y142685D03*
D177*
X323437Y142685D03*
D212*
X312166Y142748D03*
D191*
X323437Y142748D03*
D209*
X312166Y142812D03*
D215*
X323406Y142812D03*
D207*
X312198Y142875D03*
D175*
X323406Y142875D03*
D210*
X312230Y142939D03*
D215*
X323406Y142939D03*
D211*
X312230Y143002D03*
D171*
X323374Y143002D03*
D208*
X312261Y143066D03*
D169*
X323374Y143066D03*
D212*
X312293Y143129D03*
D171*
X323374Y143129D03*
D209*
X312293Y143193D03*
D169*
X323374Y143193D03*
D216*
X317596Y143256D03*
D217*
X317596Y143320D03*
D216*
X317596Y143383D03*
D218*
X317595Y143447D03*
D219*
X317595Y143510D03*
D218*
X317595Y143574D03*
D220*
X317596Y143637D03*
D221*
X317596Y143701D03*
D222*
X314389Y143764D03*
D64*
X325406Y143764D03*
D223*
X314325Y143828D03*
D63*
X325469Y143828D03*
D224*
X314262Y143891D03*
D62*
X325501Y143891D03*
D225*
X314230Y143955D03*
D226*
X325501Y143955D03*
D227*
X314166Y144018D03*
D228*
X325501Y144018D03*
D229*
X314167Y144082D03*
D59*
X325501Y144082D03*
D230*
X314135Y144145D03*
D231*
X325501Y144145D03*
D232*
X314135Y144209D03*
D233*
X325470Y144209D03*
D234*
X314103Y144272D03*
D235*
X325501Y144272D03*
D236*
X314071Y144336D03*
D57*
X325469Y144336D03*
D237*
X314039Y144399D03*
D106*
X325469Y144399D03*
D238*
X314040Y144463D03*
D239*
X325438Y144463D03*
D240*
X314008Y144526D03*
D241*
X325438Y144526D03*
D242*
X314008Y144590D03*
D104*
X325406Y144590D03*
D243*
X313976Y144653D03*
D244*
X325406Y144653D03*
D245*
X313976Y144717D03*
D246*
X325374Y144717D03*
D247*
X313976Y144780D03*
D54*
X325342Y144780D03*
D248*
X313944Y144844D03*
D249*
X325342Y144844D03*
D250*
X313944Y144907D03*
D251*
X325311Y144907D03*
D252*
X310737Y144971D03*
D253*
X317691Y144971D03*
D254*
X325311Y144971D03*
D255*
X310706Y145034D03*
D256*
X317786Y145034D03*
D102*
X325279Y145034D03*
D257*
X310642Y145098D03*
D233*
X317850Y145098D03*
D258*
X325216Y145098D03*
D259*
X310674Y145161D03*
D106*
X317913Y145161D03*
D52*
X325184Y145161D03*
D260*
X310642Y145225D03*
D55*
X317945Y145225D03*
D261*
X325184Y145225D03*
D262*
X310610Y145288D03*
D102*
X317977Y145288D03*
D263*
X325152Y145288D03*
D72*
X310642Y145352D03*
D51*
X318040Y145352D03*
D264*
X325120Y145352D03*
D265*
X310642Y145415D03*
D266*
X318040Y145415D03*
D267*
X325057Y145415D03*
D268*
X310674Y145479D03*
D269*
X318103Y145479D03*
D270*
X325025Y145479D03*
D271*
X310706Y145542D03*
D272*
X318104Y145542D03*
D266*
X325025Y145542D03*
D69*
X310706Y145606D03*
D45*
X318167Y145606D03*
D273*
X324993Y145606D03*
D274*
X310737Y145669D03*
D44*
X318167Y145669D03*
D275*
X324930Y145669D03*
D116*
X310737Y145733D03*
D43*
X318199Y145733D03*
D269*
X324898Y145733D03*
D68*
X310769Y145796D03*
D276*
X318231Y145796D03*
D277*
X324866Y145796D03*
D278*
X310769Y145860D03*
D279*
X318262Y145860D03*
D280*
X324803Y145860D03*
D281*
X310833Y145923D03*
D282*
X318262Y145923D03*
D272*
X324771Y145923D03*
D67*
X310865Y145987D03*
D283*
X318294Y145987D03*
D284*
X324739Y145987D03*
D285*
X310865Y146050D03*
D286*
X318294Y146050D03*
D287*
X324644Y146050D03*
D67*
X310928Y146114D03*
D288*
X318326Y146114D03*
D289*
X324612Y146114D03*
D285*
X310928Y146177D03*
D34*
X318357Y146177D03*
D44*
X324581Y146177D03*
D290*
X310960Y146241D03*
D291*
X318357Y146241D03*
D292*
X324517Y146241D03*
D114*
X311023Y146304D03*
D32*
X318389Y146304D03*
D42*
X324453Y146304D03*
D293*
X311023Y146368D03*
D294*
X318389Y146368D03*
D295*
X324390Y146368D03*
D296*
X311087Y146431D03*
D297*
X318421Y146431D03*
D276*
X324327Y146431D03*
D298*
X328295Y146431D03*
D299*
X311118Y146495D03*
D300*
X318421Y146495D03*
D41*
X324263Y146495D03*
D301*
X328295Y146495D03*
D114*
X311150Y146558D03*
D30*
X318453Y146558D03*
D302*
X324231Y146558D03*
D303*
X328327Y146558D03*
D290*
X311214Y146622D03*
D29*
X318484Y146622D03*
D39*
X324136Y146622D03*
D304*
X328359Y146622D03*
D66*
X311245Y146685D03*
D28*
X318485Y146685D03*
D282*
X324104Y146685D03*
D92*
X328359Y146685D03*
D299*
X311309Y146749D03*
D305*
X318516Y146749D03*
D283*
X324009Y146749D03*
D43*
X328359Y146749D03*
D306*
X311341Y146812D03*
D307*
X318516Y146812D03*
D308*
X323977Y146812D03*
D309*
X328359Y146812D03*
D299*
X311372Y146876D03*
D27*
X318548Y146876D03*
D310*
X323882Y146876D03*
D51*
X328327Y146876D03*
D66*
X311436Y146939D03*
D26*
X318548Y146939D03*
D311*
X323819Y146939D03*
D312*
X328359Y146939D03*
D253*
X311468Y147003D03*
D313*
X318580Y147003D03*
D90*
X323755Y147003D03*
D314*
X328359Y147003D03*
D315*
X311531Y147066D03*
D316*
X318580Y147066D03*
D317*
X326581Y147066D03*
D253*
X311595Y147130D03*
D25*
X318611Y147130D03*
D137*
X326644Y147130D03*
D315*
X311658Y147193D03*
D24*
X318612Y147193D03*
D318*
X326708Y147193D03*
D112*
X311690Y147257D03*
D319*
X318612Y147257D03*
D146*
X326739Y147257D03*
D64*
X311754Y147320D03*
D320*
X318643Y147320D03*
D154*
X326771Y147320D03*
D112*
X311817Y147384D03*
D321*
X318675Y147384D03*
D322*
X326803Y147384D03*
D64*
X311881Y147447D03*
D323*
X318675Y147447D03*
D163*
X326866Y147447D03*
D112*
X311944Y147511D03*
D79*
X318707Y147511D03*
D174*
X326898Y147511D03*
D64*
X312008Y147574D03*
D324*
X318707Y147574D03*
D168*
X326898Y147574D03*
D112*
X312071Y147638D03*
D325*
X318739Y147638D03*
D177*
X326930Y147638D03*
D64*
X312135Y147701D03*
D326*
X318739Y147701D03*
D196*
X326962Y147701D03*
D112*
X312198Y147765D03*
D327*
X318770Y147765D03*
D184*
X326993Y147765D03*
D328*
X312230Y147828D03*
D329*
X318770Y147828D03*
D190*
X326994Y147828D03*
D330*
X312357Y147892D03*
D331*
X318802Y147892D03*
D197*
X327025Y147892D03*
D332*
X312388Y147955D03*
D22*
X318802Y147955D03*
D205*
X327025Y147955D03*
D330*
X312484Y148019D03*
D331*
X318802Y148019D03*
D214*
X327057Y148019D03*
D332*
X312579Y148082D03*
D22*
X318802Y148082D03*
D333*
X327057Y148082D03*
D63*
X312642Y148146D03*
D334*
X318834Y148146D03*
D335*
X327089Y148146D03*
D110*
X312738Y148209D03*
D22*
X318865Y148209D03*
D336*
X327089Y148209D03*
D337*
X312801Y148273D03*
D331*
X318865Y148273D03*
D338*
X327089Y148273D03*
D62*
X312928Y148336D03*
D329*
X318897Y148336D03*
D339*
X327121Y148336D03*
D61*
X313024Y148400D03*
D327*
X318897Y148400D03*
D340*
X327089Y148400D03*
D341*
X313119Y148463D03*
D342*
X318961Y148463D03*
D343*
X327089Y148463D03*
D344*
X313246Y148527D03*
D79*
X318961Y148527D03*
D345*
X327089Y148527D03*
D60*
X313341Y148590D03*
D320*
X319024Y148590D03*
D346*
X327025Y148590D03*
D347*
X313500Y148654D03*
D348*
X325819Y148654D03*
D349*
X313627Y148717D03*
D350*
X325882Y148717D03*
D57*
X313785Y148781D03*
D351*
X325882Y148781D03*
D106*
X313976Y148844D03*
D352*
X325946Y148844D03*
D104*
X314103Y148908D03*
D353*
X325946Y148908D03*
D354*
X314325Y148971D03*
D355*
X325978Y148971D03*
D104*
X314548Y149035D03*
D356*
X325946Y149035D03*
D357*
X323247Y149098D03*
D358*
X322295Y149162D03*
D359*
X322136Y149225D03*
D360*
X322041Y149289D03*
D361*
X322009Y149352D03*
D362*
X321945Y149416D03*
D363*
X321882Y149479D03*
D364*
X321882Y149543D03*
D365*
X321850Y149606D03*
D366*
X321818Y149670D03*
D367*
X321818Y149733D03*
D368*
X315373Y149797D03*
D369*
X329311Y149797D03*
D243*
X315119Y149860D03*
D213*
X329597Y149860D03*
D370*
X314897Y149924D03*
D197*
X329819Y149924D03*
D371*
X314770Y149987D03*
D193*
X329978Y149987D03*
D372*
X314643Y150051D03*
D373*
X330137Y150051D03*
D374*
X314548Y150114D03*
D185*
X330264Y150114D03*
D375*
X314452Y150178D03*
D198*
X330423Y150178D03*
D374*
X314357Y150241D03*
D191*
X330549Y150241D03*
D376*
X314294Y150305D03*
D215*
X330645Y150305D03*
D247*
X314230Y150368D03*
D175*
X330772Y150368D03*
D377*
X314166Y150432D03*
D169*
X330867Y150432D03*
D378*
X314135Y150495D03*
D188*
X330962Y150495D03*
D245*
X314103Y150559D03*
D169*
X331058Y150559D03*
D379*
X314039Y150622D03*
D175*
X331153Y150622D03*
D380*
X314008Y150686D03*
D169*
X331248Y150686D03*
D139*
X311626Y150749D03*
D42*
X318992Y150749D03*
D171*
X331312Y150749D03*
D381*
X311436Y150813D03*
D41*
X319120Y150813D03*
D215*
X331407Y150813D03*
D126*
X311245Y150876D03*
D92*
X319215Y150876D03*
D188*
X331470Y150876D03*
D382*
X311119Y150940D03*
D383*
X319278Y150940D03*
D195*
X331534Y150940D03*
D119*
X310991Y151003D03*
D38*
X319310Y151003D03*
D384*
X331597Y151003D03*
D117*
X310896Y151067D03*
D385*
X319342Y151067D03*
D195*
X331661Y151067D03*
D386*
X310769Y151130D03*
D282*
X319405Y151130D03*
D183*
X331724Y151130D03*
D387*
X310642Y151194D03*
D39*
X319437Y151194D03*
D184*
X331756Y151194D03*
D388*
X310579Y151257D03*
D40*
X319469Y151257D03*
D389*
X331819Y151257D03*
D109*
X310484Y151321D03*
D390*
X319532Y151321D03*
D189*
X331883Y151321D03*
D391*
X310388Y151384D03*
D42*
X319564Y151384D03*
D392*
X331915Y151384D03*
D105*
X310293Y151448D03*
D292*
X319628Y151448D03*
D200*
X331947Y151448D03*
D393*
X310229Y151511D03*
D287*
X319691Y151511D03*
D205*
X331978Y151511D03*
D133*
X310134Y151575D03*
D97*
X319723Y151575D03*
D209*
X331978Y151575D03*
D103*
X310039Y151638D03*
D99*
X319786Y151638D03*
D333*
X332010Y151638D03*
D394*
X309976Y151702D03*
D395*
X319850Y151702D03*
D396*
X332010Y151702D03*
D131*
X309880Y151765D03*
D397*
X319913Y151765D03*
D398*
X332010Y151765D03*
D101*
X309817Y151829D03*
D55*
X319977Y151829D03*
D338*
X332042Y151829D03*
D399*
X309753Y151892D03*
D58*
X320072Y151892D03*
D400*
X331978Y151892D03*
D401*
X309690Y151956D03*
D337*
X320167Y151956D03*
D402*
X331947Y151956D03*
D399*
X309626Y152019D03*
D114*
X320294Y152019D03*
D403*
X331883Y152019D03*
D401*
X309563Y152083D03*
D25*
X318357Y152083D03*
D289*
X321691Y152083D03*
D404*
X331756Y152083D03*
D405*
X309531Y152146D03*
D24*
X318231Y152146D03*
D406*
X329153Y152146D03*
D98*
X309468Y152210D03*
D407*
X318135Y152210D03*
D408*
X329216Y152210D03*
D409*
X309372Y152273D03*
D410*
X318072Y152273D03*
D411*
X329311Y152273D03*
D98*
X309341Y152337D03*
D407*
X318008Y152337D03*
D408*
X329343Y152337D03*
D412*
X309277Y152400D03*
D24*
X317977Y152400D03*
D411*
X329438Y152400D03*
D413*
X309245Y152464D03*
D319*
X317913Y152464D03*
D414*
X329438Y152464D03*
D96*
X309182Y152527D03*
D81*
X317881Y152527D03*
D415*
X329502Y152527D03*
D413*
X309118Y152591D03*
D416*
X317818Y152591D03*
D417*
X329533Y152591D03*
D412*
X309086Y152654D03*
D418*
X317754Y152654D03*
D419*
X329597Y152654D03*
D420*
X309055Y152718D03*
D313*
X317691Y152718D03*
D417*
X329597Y152718D03*
D409*
X308991Y152781D03*
D26*
X317659Y152781D03*
D419*
X329660Y152781D03*
D94*
X308959Y152845D03*
D27*
X317595Y152845D03*
D417*
X329660Y152845D03*
D96*
X308928Y152908D03*
D421*
X317564Y152908D03*
D422*
X329692Y152908D03*
D413*
X308864Y152972D03*
D423*
X317469Y152972D03*
D424*
X329692Y152972D03*
D405*
X308833Y153035D03*
D425*
X317437Y153035D03*
D426*
X329724Y153035D03*
D98*
X308833Y153099D03*
D427*
X317373Y153099D03*
D428*
X329724Y153099D03*
D405*
X308769Y153162D03*
D429*
X317310Y153162D03*
D430*
X329756Y153162D03*
D431*
X308737Y153226D03*
D432*
X317214Y153226D03*
D433*
X329756Y153226D03*
D100*
X308705Y153289D03*
D434*
X317151Y153289D03*
D435*
X329787Y153289D03*
D436*
X308705Y153353D03*
D437*
X317119Y153353D03*
D438*
X329787Y153353D03*
D439*
X308674Y153416D03*
D311*
X317024Y153416D03*
D440*
X329819Y153416D03*
D441*
X308674Y153480D03*
D310*
X316960Y153480D03*
D442*
X329819Y153480D03*
D393*
X308642Y153543D03*
D282*
X316865Y153543D03*
D443*
X329788Y153543D03*
D444*
X308674Y153607D03*
D445*
X316802Y153607D03*
D446*
X329788Y153607D03*
D388*
X308674Y153670D03*
D42*
X316706Y153670D03*
D447*
X329819Y153670D03*
D113*
X308674Y153734D03*
D289*
X316611Y153734D03*
D448*
X329787Y153734D03*
D119*
X308769Y153797D03*
D48*
X316452Y153797D03*
D449*
X329819Y153797D03*
D450*
X308896Y153861D03*
D53*
X316230Y153861D03*
D451*
X329819Y153861D03*
D452*
X311531Y153924D03*
D453*
X329788Y153924D03*
D454*
X311499Y153988D03*
D455*
X329756Y153988D03*
D456*
X311499Y154051D03*
D457*
X329756Y154051D03*
D458*
X311468Y154115D03*
D459*
X329756Y154115D03*
D460*
X311436Y154178D03*
D461*
X329692Y154178D03*
D462*
X311404Y154242D03*
D463*
X329660Y154242D03*
D464*
X311404Y154305D03*
D465*
X329597Y154305D03*
D466*
X311372Y154369D03*
D467*
X329597Y154369D03*
D468*
X311341Y154432D03*
D469*
X329534Y154432D03*
D225*
X311309Y154496D03*
D470*
X329438Y154496D03*
D471*
X311309Y154559D03*
D472*
X329375Y154559D03*
D473*
X311277Y154623D03*
D474*
X329280Y154623D03*
D475*
X311245Y154686D03*
D476*
X329184Y154686D03*
D477*
X311245Y154750D03*
D478*
X329057Y154750D03*
D479*
X311246Y154813D03*
D480*
X329025Y154813D03*
D481*
X311214Y154877D03*
D482*
X328898Y154877D03*
D483*
X311182Y154940D03*
D484*
X328803Y154940D03*
D485*
X311182Y155004D03*
D486*
X328708Y155004D03*
D487*
X311150Y155067D03*
D488*
X328613Y155067D03*
D486*
X311119Y155131D03*
D489*
X328486Y155131D03*
D490*
X311118Y155194D03*
D491*
X328422Y155194D03*
D492*
X311118Y155258D03*
D294*
X322580Y155258D03*
D208*
X329914Y155258D03*
D493*
X311087Y155321D03*
D434*
X322612Y155321D03*
D190*
X329851Y155321D03*
D494*
X311055Y155385D03*
D495*
X322644Y155385D03*
D204*
X329819Y155385D03*
D496*
X311023Y155448D03*
D34*
X322675Y155448D03*
D171*
X329724Y155448D03*
D482*
X311055Y155512D03*
D291*
X322675Y155512D03*
D170*
X329661Y155512D03*
D350*
X311023Y155575D03*
D497*
X322707Y155575D03*
D157*
X329629Y155575D03*
D498*
X310992Y155639D03*
D90*
X322739Y155639D03*
D499*
X329565Y155639D03*
D480*
X310991Y155702D03*
D500*
X322771Y155702D03*
D139*
X329470Y155702D03*
D501*
X310991Y155766D03*
D310*
X322802Y155766D03*
D502*
X329438Y155766D03*
D352*
X310960Y155829D03*
D286*
X322802Y155829D03*
D503*
X329375Y155829D03*
D504*
X310928Y155893D03*
D505*
X322834Y155893D03*
D117*
X329311Y155893D03*
D506*
X310928Y155956D03*
D38*
X322866Y155956D03*
D388*
X329248Y155956D03*
D507*
X310928Y156020D03*
D385*
X322898Y156020D03*
D394*
X329216Y156020D03*
D355*
X310928Y156083D03*
D92*
X322898Y156083D03*
D405*
X329153Y156083D03*
D508*
X310896Y156147D03*
D39*
X322929Y156147D03*
D509*
X329089Y156147D03*
D476*
X310896Y156210D03*
D302*
X322961Y156210D03*
D510*
X329057Y156210D03*
D511*
X310896Y156274D03*
D390*
X322961Y156274D03*
D512*
X328994Y156274D03*
D513*
X310865Y156337D03*
D514*
X322961Y156337D03*
D70*
X328962Y156337D03*
D515*
X310864Y156401D03*
D295*
X322993Y156401D03*
D293*
X328930Y156401D03*
D516*
X310864Y156464D03*
D95*
X323025Y156464D03*
D328*
X328867Y156464D03*
D372*
X309182Y156528D03*
D291*
X317659Y156528D03*
D43*
X323025Y156528D03*
D233*
X328835Y156528D03*
D250*
X309118Y156591D03*
D497*
X317627Y156591D03*
D517*
X323025Y156591D03*
D244*
X328835Y156591D03*
D372*
X309055Y156655D03*
D90*
X317659Y156655D03*
D45*
X323056Y156655D03*
D264*
X328803Y156655D03*
D518*
X309055Y156718D03*
D36*
X317627Y156718D03*
D287*
X323056Y156718D03*
D272*
X328772Y156718D03*
D375*
X308991Y156782D03*
D310*
X317659Y156782D03*
D519*
X323057Y156782D03*
D295*
X328771Y156782D03*
D518*
X308928Y156845D03*
D520*
X317691Y156845D03*
D272*
X323057Y156845D03*
D500*
X328740Y156845D03*
D376*
X308896Y156909D03*
D283*
X317659Y156909D03*
D47*
X323088Y156909D03*
D300*
X328708Y156909D03*
D250*
X308864Y156972D03*
D92*
X317691Y156972D03*
D48*
X323056Y156972D03*
D320*
X328676Y156972D03*
D372*
X308801Y157036D03*
D39*
X317722Y157036D03*
D270*
X323057Y157036D03*
D521*
X328645Y157036D03*
D374*
X308769Y157099D03*
D276*
X317723Y157099D03*
D266*
X323057Y157099D03*
D375*
X308737Y157163D03*
D390*
X317754Y157163D03*
D51*
X323056Y157163D03*
D518*
X308674Y157226D03*
D42*
X317786Y157226D03*
D52*
X323025Y157226D03*
D376*
X308642Y157290D03*
D292*
X317786Y157290D03*
D258*
X322993Y157290D03*
D374*
X308579Y157353D03*
D287*
X317849Y157353D03*
D54*
X322993Y157353D03*
D372*
X308547Y157417D03*
D155*
X320580Y157417D03*
D374*
X308515Y157480D03*
D157*
X320612Y157480D03*
D376*
X308452Y157544D03*
D159*
X320612Y157544D03*
D518*
X308420Y157607D03*
D160*
X320580Y157607D03*
D375*
X308356Y157671D03*
D522*
X320612Y157671D03*
D374*
X308325Y157734D03*
D523*
X320612Y157734D03*
D376*
X308261Y157798D03*
D161*
X320580Y157798D03*
D250*
X308229Y157861D03*
D524*
X320612Y157861D03*
D372*
X308166Y157925D03*
D165*
X320612Y157925D03*
D525*
X308134Y157988D03*
D524*
X320612Y157988D03*
D526*
X308070Y158052D03*
D170*
X320580Y158052D03*
D527*
X308039Y158115D03*
D528*
X320612Y158115D03*
D529*
X307975Y158179D03*
D167*
X320612Y158179D03*
D530*
X307944Y158242D03*
D528*
X320612Y158242D03*
D404*
X307880Y158306D03*
D178*
X320580Y158306D03*
D531*
X307848Y158369D03*
D180*
X320612Y158369D03*
D532*
X307816Y158433D03*
D182*
X320612Y158433D03*
D533*
X307785Y158496D03*
D180*
X320612Y158496D03*
D534*
X307721Y158560D03*
D182*
X320612Y158560D03*
D535*
X307658Y158623D03*
D171*
X320580Y158623D03*
D536*
X307626Y158687D03*
D215*
X320612Y158687D03*
D537*
X307594Y158750D03*
D175*
X320612Y158750D03*
D538*
X307531Y158814D03*
D215*
X320612Y158814D03*
D343*
X307531Y158877D03*
D175*
X320612Y158877D03*
D539*
X307467Y158941D03*
D215*
X320612Y158941D03*
D540*
X307435Y159004D03*
D175*
X320612Y159004D03*
D541*
X307372Y159068D03*
D215*
X320612Y159068D03*
D542*
X307340Y159131D03*
D175*
X320612Y159131D03*
D543*
X307277Y159195D03*
D215*
X320612Y159195D03*
D544*
X307213Y159258D03*
D175*
X320612Y159258D03*
D545*
X307181Y159322D03*
D177*
X320643Y159322D03*
D211*
X307150Y159385D03*
D191*
X320643Y159385D03*
D200*
X307055Y159449D03*
D177*
X320643Y159449D03*
D392*
X307023Y159512D03*
D191*
X320643Y159512D03*
D204*
X306959Y159576D03*
D177*
X320643Y159576D03*
D191*
X306864Y159639D03*
X320643Y159639D03*
D178*
X306800Y159703D03*
D177*
X320643Y159703D03*
D164*
X306705Y159766D03*
D191*
X320643Y159766D03*
D148*
X306642Y159830D03*
D177*
X320643Y159830D03*
D136*
X306547Y159893D03*
D191*
X320643Y159893D03*
D382*
X306420Y159957D03*
D177*
X320643Y159957D03*
D439*
X306261Y160020D03*
D191*
X320643Y160020D03*
D177*
X320643Y160084D03*
D191*
X320643Y160147D03*
D169*
X320644Y160211D03*
D171*
X320644Y160274D03*
D169*
X320644Y160338D03*
D171*
X320644Y160401D03*
D169*
X320644Y160465D03*
D168*
X320675Y160528D03*
D546*
X320675Y160592D03*
D168*
X320675Y160655D03*
D546*
X320675Y160719D03*
D168*
X320675Y160782D03*
D178*
X320707Y160846D03*
D172*
X320675Y160909D03*
D174*
X320675Y160973D03*
D172*
X320675Y161036D03*
D170*
X320707Y161100D03*
D166*
X320707Y161163D03*
D170*
X320707Y161227D03*
D163*
X320707Y161290D03*
D161*
X320707Y161354D03*
D163*
X320707Y161417D03*
D522*
X320739Y161481D03*
D523*
X320739Y161544D03*
D322*
X320707Y161608D03*
D157*
X320739Y161671D03*
D159*
X320739Y161735D03*
D157*
X320739Y161798D03*
D155*
X320770Y161862D03*
D156*
X320739Y161925D03*
D547*
X320771Y161989D03*
D150*
X320771Y162052D03*
D148*
X320739Y162116D03*
D147*
X320770Y162179D03*
D146*
X320770Y162243D03*
D145*
X320802Y162306D03*
D143*
X320771Y162370D03*
D548*
X320802Y162433D03*
D141*
X320770Y162497D03*
D549*
X320802Y162560D03*
D137*
X320802Y162624D03*
D136*
X320834Y162687D03*
D502*
X320802Y162751D03*
D132*
X320834Y162814D03*
D381*
X320834Y162878D03*
D129*
X320834Y162941D03*
D450*
X320834Y163005D03*
D550*
X320866Y163068D03*
D551*
X320866Y163132D03*
D503*
X320866Y163195D03*
D382*
X320898Y163259D03*
D119*
X320897Y163322D03*
D552*
X320897Y163386D03*
D553*
X320929Y163449D03*
D554*
X320898Y163513D03*
D386*
X320929Y163576D03*
D555*
X320961Y163640D03*
D111*
X320929Y163703D03*
D109*
X320961Y163767D03*
D107*
X320993Y163830D03*
D441*
X320993Y163894D03*
D556*
X320993Y163957D03*
D394*
X321025Y164021D03*
D131*
X321056Y164084D03*
D431*
X321056Y164148D03*
D399*
X321056Y164211D03*
D413*
X321056Y164275D03*
D412*
X321088Y164338D03*
D94*
X321088Y164402D03*
D128*
X321120Y164465D03*
D91*
X321120Y164529D03*
D89*
X321151Y164592D03*
D509*
X321151Y164656D03*
D125*
X321152Y164719D03*
D557*
X321183Y164783D03*
D558*
X321215Y164846D03*
D84*
X321183Y164910D03*
D82*
X321215Y164973D03*
D80*
X321247Y165037D03*
D122*
X321215Y165100D03*
D512*
X321247Y165164D03*
D259*
X321279Y165227D03*
D120*
X321247Y165291D03*
D262*
X321278Y165354D03*
D72*
X321310Y165418D03*
D559*
X321310Y165481D03*
D560*
X321310Y165545D03*
D274*
X321342Y165608D03*
D561*
X321374Y165672D03*
D285*
X321342Y165735D03*
D290*
X321374Y165799D03*
D66*
X321405Y165862D03*
D112*
X321406Y165926D03*
D64*
X321406Y165989D03*
D562*
X321437Y166053D03*
D62*
X321437Y166116D03*
D61*
X321469Y166180D03*
D256*
X321469Y166243D03*
D108*
X321469Y166307D03*
D349*
X321501Y166370D03*
D347*
X321501Y166434D03*
D563*
X321501Y166497D03*
D57*
X321532Y166561D03*
D56*
X321564Y166624D03*
D104*
X321533Y166688D03*
D354*
X321564Y166751D03*
D249*
X321596Y166815D03*
D397*
X321564Y166878D03*
D258*
X321596Y166942D03*
D52*
X321628Y167005D03*
D395*
X321628Y167069D03*
D267*
X321628Y167132D03*
D270*
X321660Y167196D03*
D48*
X321659Y167259D03*
D47*
X321691Y167323D03*
D277*
X321691Y167386D03*
D519*
X321723Y167450D03*
D287*
X321723Y167513D03*
D45*
X321723Y167577D03*
D44*
X321723Y167640D03*
D43*
X321755Y167704D03*
D95*
X321755Y167767D03*
D295*
X321786Y167831D03*
D276*
X321787Y167894D03*
D279*
X321818Y167958D03*
D302*
X321818Y168021D03*
D383*
X321818Y168085D03*
D38*
X321850Y168148D03*
D283*
X321850Y168212D03*
D286*
X321850Y168275D03*
D288*
X321882Y168339D03*
D311*
X321914Y168402D03*
D304*
X321882Y168466D03*
D34*
X321913Y168529D03*
D437*
X321945Y168593D03*
D32*
X321945Y168656D03*
D294*
X321945Y168720D03*
D297*
X321977Y168783D03*
D300*
X321977Y168847D03*
D303*
X321977Y168910D03*
D564*
X322009Y168974D03*
D425*
X322009Y169037D03*
D423*
X322041Y169101D03*
D421*
X322009Y169164D03*
D27*
X322040Y169228D03*
D26*
X322041Y169291D03*
D301*
X322072Y169355D03*
D81*
X322072Y169418D03*
D565*
X322072Y169482D03*
D320*
X322072Y169545D03*
D23*
X322072Y169609D03*
D329*
X322072Y169672D03*
D566*
X322072Y169736D03*
D567*
X322104Y169799D03*
D568*
X322072Y169863D03*
D73*
X322040Y169926D03*
D71*
X322041Y169990D03*
M02*
