G04 EAGLE Gerber RS-274X export*
G75*
%MOMM*%
%FSLAX34Y34*%
%LPD*%
%INBottom Copper*%
%IPPOS*%
%AMOC8*
5,1,8,0,0,1.08239X$1,22.5*%
G01*
%ADD10C,3.200000*%
%ADD11C,1.930400*%
%ADD12C,0.908000*%
%ADD13C,0.254000*%

G36*
X203222Y5083D02*
X203222Y5083D01*
X203300Y5085D01*
X206280Y5319D01*
X206347Y5333D01*
X206416Y5337D01*
X206572Y5377D01*
X212241Y7219D01*
X212348Y7270D01*
X212459Y7313D01*
X212510Y7346D01*
X212529Y7355D01*
X212544Y7368D01*
X212595Y7399D01*
X217416Y10903D01*
X217503Y10984D01*
X217595Y11060D01*
X217633Y11106D01*
X217648Y11120D01*
X217659Y11138D01*
X217697Y11184D01*
X221201Y16005D01*
X221258Y16110D01*
X221321Y16210D01*
X221344Y16266D01*
X221354Y16284D01*
X221359Y16304D01*
X221381Y16359D01*
X223223Y22028D01*
X223236Y22096D01*
X223258Y22161D01*
X223281Y22320D01*
X223515Y25300D01*
X223515Y25305D01*
X223516Y25308D01*
X223515Y25327D01*
X223519Y25400D01*
X223519Y163995D01*
X223506Y164098D01*
X223502Y164203D01*
X223486Y164255D01*
X223479Y164310D01*
X223441Y164407D01*
X223411Y164507D01*
X223383Y164555D01*
X223362Y164606D01*
X223301Y164690D01*
X223247Y164780D01*
X223208Y164819D01*
X223176Y164863D01*
X223095Y164930D01*
X223021Y165003D01*
X222973Y165031D01*
X222931Y165066D01*
X222836Y165111D01*
X222746Y165163D01*
X222693Y165178D01*
X222643Y165202D01*
X222540Y165221D01*
X222440Y165250D01*
X222385Y165251D01*
X222331Y165261D01*
X222226Y165255D01*
X222122Y165257D01*
X222068Y165245D01*
X222013Y165242D01*
X221914Y165209D01*
X221812Y165186D01*
X221763Y165161D01*
X221711Y165144D01*
X221622Y165088D01*
X221530Y165040D01*
X221488Y165003D01*
X221442Y164973D01*
X221370Y164897D01*
X221292Y164828D01*
X221239Y164757D01*
X221224Y164742D01*
X221217Y164729D01*
X221195Y164700D01*
X219234Y161766D01*
X211878Y156850D01*
X203200Y155124D01*
X194522Y156850D01*
X187166Y161766D01*
X182250Y169122D01*
X180524Y177800D01*
X182250Y186478D01*
X187166Y193834D01*
X190100Y195795D01*
X190179Y195863D01*
X190263Y195924D01*
X190298Y195967D01*
X190340Y196003D01*
X190399Y196089D01*
X190466Y196169D01*
X190489Y196219D01*
X190521Y196265D01*
X190557Y196363D01*
X190602Y196457D01*
X190612Y196511D01*
X190631Y196563D01*
X190642Y196667D01*
X190661Y196770D01*
X190658Y196825D01*
X190664Y196879D01*
X190648Y196983D01*
X190642Y197087D01*
X190625Y197139D01*
X190616Y197194D01*
X190576Y197290D01*
X190544Y197389D01*
X190514Y197436D01*
X190493Y197487D01*
X190429Y197570D01*
X190373Y197658D01*
X190333Y197696D01*
X190300Y197740D01*
X190218Y197805D01*
X190142Y197876D01*
X190094Y197903D01*
X190050Y197937D01*
X189955Y197979D01*
X189863Y198030D01*
X189810Y198043D01*
X189759Y198066D01*
X189656Y198083D01*
X189555Y198109D01*
X189467Y198115D01*
X189446Y198118D01*
X189431Y198117D01*
X189395Y198119D01*
X39205Y198119D01*
X39102Y198106D01*
X38997Y198102D01*
X38945Y198086D01*
X38890Y198079D01*
X38793Y198041D01*
X38693Y198011D01*
X38645Y197983D01*
X38594Y197962D01*
X38510Y197901D01*
X38420Y197847D01*
X38381Y197808D01*
X38337Y197776D01*
X38270Y197695D01*
X38197Y197621D01*
X38169Y197573D01*
X38134Y197531D01*
X38089Y197436D01*
X38037Y197346D01*
X38022Y197293D01*
X37998Y197243D01*
X37979Y197140D01*
X37950Y197040D01*
X37949Y196985D01*
X37939Y196931D01*
X37945Y196826D01*
X37943Y196722D01*
X37955Y196668D01*
X37958Y196613D01*
X37991Y196514D01*
X38014Y196412D01*
X38039Y196363D01*
X38056Y196311D01*
X38112Y196222D01*
X38160Y196130D01*
X38197Y196088D01*
X38227Y196042D01*
X38303Y195970D01*
X38372Y195892D01*
X38443Y195839D01*
X38458Y195824D01*
X38471Y195817D01*
X38500Y195795D01*
X41434Y193834D01*
X46350Y186478D01*
X48076Y177800D01*
X46350Y169122D01*
X41434Y161766D01*
X34078Y156850D01*
X25400Y155124D01*
X16722Y156850D01*
X9366Y161766D01*
X7405Y164700D01*
X7337Y164779D01*
X7276Y164863D01*
X7233Y164898D01*
X7197Y164940D01*
X7111Y164999D01*
X7031Y165066D01*
X6981Y165089D01*
X6935Y165121D01*
X6837Y165157D01*
X6743Y165202D01*
X6689Y165212D01*
X6637Y165231D01*
X6533Y165242D01*
X6430Y165261D01*
X6375Y165258D01*
X6321Y165264D01*
X6217Y165248D01*
X6113Y165242D01*
X6061Y165225D01*
X6006Y165216D01*
X5910Y165176D01*
X5811Y165144D01*
X5764Y165114D01*
X5713Y165093D01*
X5630Y165029D01*
X5542Y164973D01*
X5504Y164933D01*
X5460Y164900D01*
X5395Y164818D01*
X5324Y164742D01*
X5297Y164694D01*
X5263Y164650D01*
X5221Y164555D01*
X5170Y164463D01*
X5157Y164410D01*
X5134Y164359D01*
X5117Y164256D01*
X5091Y164155D01*
X5085Y164067D01*
X5082Y164046D01*
X5083Y164031D01*
X5081Y163995D01*
X5081Y25400D01*
X5083Y25378D01*
X5085Y25300D01*
X5319Y22320D01*
X5333Y22253D01*
X5337Y22184D01*
X5377Y22028D01*
X7219Y16359D01*
X7270Y16252D01*
X7313Y16141D01*
X7346Y16090D01*
X7355Y16071D01*
X7368Y16056D01*
X7399Y16005D01*
X10903Y11184D01*
X10984Y11097D01*
X11060Y11005D01*
X11106Y10967D01*
X11120Y10952D01*
X11138Y10941D01*
X11184Y10903D01*
X16005Y7399D01*
X16110Y7342D01*
X16210Y7279D01*
X16266Y7256D01*
X16284Y7246D01*
X16304Y7241D01*
X16359Y7219D01*
X22028Y5377D01*
X22096Y5364D01*
X22161Y5342D01*
X22320Y5319D01*
X25300Y5085D01*
X25322Y5086D01*
X25400Y5081D01*
X203200Y5081D01*
X203222Y5083D01*
G37*
%LPC*%
G36*
X22975Y13207D02*
X22975Y13207D01*
X18493Y15063D01*
X15063Y18493D01*
X13207Y22975D01*
X13207Y27825D01*
X15063Y32307D01*
X18493Y35737D01*
X22975Y37593D01*
X27825Y37593D01*
X32307Y35737D01*
X35737Y32307D01*
X36927Y29432D01*
X36996Y29311D01*
X37061Y29188D01*
X37075Y29173D01*
X37085Y29155D01*
X37182Y29055D01*
X37275Y28953D01*
X37292Y28941D01*
X37306Y28927D01*
X37424Y28854D01*
X37541Y28778D01*
X37560Y28771D01*
X37577Y28761D01*
X37710Y28720D01*
X37842Y28675D01*
X37862Y28673D01*
X37881Y28667D01*
X38020Y28660D01*
X38159Y28649D01*
X38179Y28653D01*
X38199Y28652D01*
X38335Y28680D01*
X38472Y28704D01*
X38491Y28712D01*
X38510Y28716D01*
X38635Y28777D01*
X38762Y28834D01*
X38778Y28847D01*
X38796Y28856D01*
X38902Y28946D01*
X39010Y29033D01*
X39023Y29049D01*
X39038Y29062D01*
X39118Y29176D01*
X39202Y29287D01*
X39214Y29312D01*
X39221Y29322D01*
X39228Y29342D01*
X39273Y29432D01*
X40463Y32307D01*
X43893Y35737D01*
X48375Y37593D01*
X53225Y37593D01*
X57707Y35737D01*
X61137Y32307D01*
X62327Y29432D01*
X62396Y29311D01*
X62461Y29188D01*
X62475Y29173D01*
X62485Y29155D01*
X62582Y29055D01*
X62675Y28953D01*
X62692Y28941D01*
X62706Y28927D01*
X62824Y28854D01*
X62941Y28778D01*
X62960Y28771D01*
X62977Y28761D01*
X63110Y28720D01*
X63242Y28675D01*
X63262Y28673D01*
X63281Y28667D01*
X63420Y28660D01*
X63559Y28649D01*
X63579Y28653D01*
X63599Y28652D01*
X63735Y28680D01*
X63872Y28704D01*
X63891Y28712D01*
X63910Y28716D01*
X64035Y28777D01*
X64162Y28834D01*
X64178Y28847D01*
X64196Y28856D01*
X64302Y28946D01*
X64410Y29033D01*
X64423Y29049D01*
X64438Y29062D01*
X64518Y29176D01*
X64602Y29287D01*
X64614Y29312D01*
X64621Y29322D01*
X64628Y29342D01*
X64673Y29432D01*
X65863Y32307D01*
X69293Y35737D01*
X73775Y37593D01*
X78625Y37593D01*
X83107Y35737D01*
X86537Y32307D01*
X87727Y29432D01*
X87796Y29311D01*
X87861Y29188D01*
X87875Y29173D01*
X87885Y29155D01*
X87982Y29055D01*
X88075Y28953D01*
X88092Y28941D01*
X88106Y28927D01*
X88224Y28854D01*
X88341Y28778D01*
X88360Y28771D01*
X88377Y28761D01*
X88510Y28720D01*
X88642Y28675D01*
X88662Y28673D01*
X88681Y28667D01*
X88820Y28660D01*
X88959Y28649D01*
X88979Y28653D01*
X88999Y28652D01*
X89135Y28680D01*
X89272Y28704D01*
X89291Y28712D01*
X89310Y28716D01*
X89435Y28777D01*
X89562Y28834D01*
X89578Y28847D01*
X89596Y28856D01*
X89702Y28946D01*
X89810Y29033D01*
X89823Y29049D01*
X89838Y29062D01*
X89918Y29176D01*
X90002Y29287D01*
X90014Y29312D01*
X90021Y29322D01*
X90028Y29342D01*
X90073Y29432D01*
X91263Y32307D01*
X94693Y35737D01*
X99175Y37593D01*
X104025Y37593D01*
X108507Y35737D01*
X111937Y32307D01*
X113127Y29432D01*
X113196Y29311D01*
X113261Y29188D01*
X113275Y29173D01*
X113285Y29155D01*
X113382Y29055D01*
X113475Y28953D01*
X113492Y28941D01*
X113506Y28927D01*
X113624Y28854D01*
X113741Y28778D01*
X113760Y28771D01*
X113777Y28761D01*
X113910Y28720D01*
X114042Y28675D01*
X114062Y28673D01*
X114081Y28667D01*
X114220Y28660D01*
X114359Y28649D01*
X114379Y28653D01*
X114399Y28652D01*
X114535Y28680D01*
X114672Y28704D01*
X114691Y28712D01*
X114710Y28716D01*
X114835Y28777D01*
X114962Y28834D01*
X114978Y28847D01*
X114996Y28856D01*
X115102Y28946D01*
X115210Y29033D01*
X115223Y29049D01*
X115238Y29062D01*
X115318Y29176D01*
X115402Y29287D01*
X115414Y29312D01*
X115421Y29322D01*
X115428Y29342D01*
X115473Y29432D01*
X116663Y32307D01*
X120093Y35737D01*
X124575Y37593D01*
X129425Y37593D01*
X133907Y35737D01*
X137337Y32307D01*
X138834Y28691D01*
X138845Y28673D01*
X138850Y28657D01*
X138853Y28651D01*
X138858Y28637D01*
X138927Y28528D01*
X138992Y28415D01*
X139012Y28394D01*
X139028Y28368D01*
X139123Y28280D01*
X139213Y28187D01*
X139238Y28171D01*
X139260Y28151D01*
X139374Y28088D01*
X139484Y28020D01*
X139512Y28012D01*
X139539Y27997D01*
X139664Y27965D01*
X139788Y27927D01*
X139818Y27925D01*
X139847Y27918D01*
X139976Y27918D01*
X140106Y27912D01*
X140135Y27918D01*
X140165Y27918D01*
X140290Y27950D01*
X140417Y27976D01*
X140444Y27989D01*
X140473Y27996D01*
X140586Y28059D01*
X140703Y28116D01*
X140725Y28135D01*
X140752Y28149D01*
X140846Y28238D01*
X140945Y28322D01*
X140962Y28347D01*
X140984Y28367D01*
X141053Y28476D01*
X141063Y28491D01*
X141084Y28516D01*
X141091Y28529D01*
X141128Y28582D01*
X141138Y28610D01*
X141154Y28635D01*
X141214Y28785D01*
X141220Y28803D01*
X141220Y28804D01*
X141571Y29885D01*
X142406Y31524D01*
X143487Y33012D01*
X144788Y34313D01*
X146276Y35394D01*
X147915Y36229D01*
X149664Y36797D01*
X149901Y36835D01*
X149901Y26630D01*
X149916Y26512D01*
X149923Y26393D01*
X149935Y26355D01*
X149941Y26315D01*
X149984Y26204D01*
X150021Y26091D01*
X150043Y26057D01*
X150058Y26019D01*
X150127Y25923D01*
X150191Y25822D01*
X150221Y25794D01*
X150244Y25762D01*
X150336Y25686D01*
X150423Y25604D01*
X150458Y25585D01*
X150489Y25559D01*
X150597Y25508D01*
X150701Y25451D01*
X150741Y25441D01*
X150777Y25423D01*
X150884Y25403D01*
X150854Y25399D01*
X150744Y25355D01*
X150631Y25319D01*
X150596Y25297D01*
X150559Y25282D01*
X150462Y25212D01*
X150362Y25149D01*
X150334Y25119D01*
X150301Y25095D01*
X150225Y25004D01*
X150144Y24917D01*
X150124Y24882D01*
X150099Y24850D01*
X150048Y24743D01*
X149990Y24638D01*
X149980Y24599D01*
X149963Y24563D01*
X149941Y24446D01*
X149911Y24330D01*
X149907Y24270D01*
X149903Y24250D01*
X149905Y24230D01*
X149901Y24170D01*
X149901Y13965D01*
X149664Y14003D01*
X147915Y14571D01*
X146276Y15406D01*
X144788Y16487D01*
X143487Y17788D01*
X142406Y19276D01*
X141571Y20915D01*
X141214Y22015D01*
X141201Y22042D01*
X141194Y22071D01*
X141171Y22115D01*
X141169Y22120D01*
X141163Y22131D01*
X141133Y22186D01*
X141078Y22303D01*
X141059Y22326D01*
X141045Y22352D01*
X140958Y22448D01*
X140876Y22548D01*
X140852Y22566D01*
X140831Y22588D01*
X140723Y22659D01*
X140618Y22735D01*
X140591Y22746D01*
X140566Y22762D01*
X140443Y22804D01*
X140323Y22852D01*
X140293Y22856D01*
X140265Y22866D01*
X140136Y22876D01*
X140007Y22892D01*
X139978Y22888D01*
X139948Y22891D01*
X139820Y22869D01*
X139692Y22853D01*
X139664Y22842D01*
X139635Y22836D01*
X139517Y22783D01*
X139396Y22736D01*
X139372Y22718D01*
X139345Y22706D01*
X139244Y22625D01*
X139139Y22549D01*
X139120Y22526D01*
X139096Y22507D01*
X139018Y22404D01*
X138936Y22304D01*
X138923Y22277D01*
X138905Y22253D01*
X138834Y22109D01*
X137337Y18493D01*
X133907Y15063D01*
X129425Y13207D01*
X124575Y13207D01*
X120093Y15063D01*
X116663Y18493D01*
X115473Y21368D01*
X115404Y21489D01*
X115339Y21612D01*
X115325Y21627D01*
X115315Y21645D01*
X115218Y21745D01*
X115125Y21847D01*
X115108Y21859D01*
X115094Y21873D01*
X114975Y21946D01*
X114859Y22022D01*
X114840Y22029D01*
X114823Y22039D01*
X114690Y22080D01*
X114558Y22125D01*
X114538Y22127D01*
X114519Y22133D01*
X114380Y22140D01*
X114241Y22151D01*
X114221Y22147D01*
X114201Y22148D01*
X114065Y22120D01*
X113928Y22096D01*
X113909Y22088D01*
X113890Y22084D01*
X113764Y22023D01*
X113638Y21966D01*
X113622Y21953D01*
X113604Y21944D01*
X113498Y21854D01*
X113390Y21767D01*
X113377Y21751D01*
X113362Y21738D01*
X113282Y21624D01*
X113198Y21513D01*
X113186Y21488D01*
X113179Y21478D01*
X113172Y21458D01*
X113127Y21368D01*
X111937Y18493D01*
X108507Y15063D01*
X104025Y13207D01*
X99175Y13207D01*
X94693Y15063D01*
X91263Y18493D01*
X90073Y21368D01*
X90004Y21489D01*
X89939Y21612D01*
X89925Y21627D01*
X89915Y21645D01*
X89818Y21745D01*
X89725Y21847D01*
X89708Y21859D01*
X89694Y21873D01*
X89575Y21946D01*
X89459Y22022D01*
X89440Y22029D01*
X89423Y22039D01*
X89290Y22080D01*
X89158Y22125D01*
X89138Y22127D01*
X89119Y22133D01*
X88980Y22140D01*
X88841Y22151D01*
X88821Y22147D01*
X88801Y22148D01*
X88665Y22120D01*
X88528Y22096D01*
X88509Y22088D01*
X88490Y22084D01*
X88364Y22023D01*
X88238Y21966D01*
X88222Y21953D01*
X88204Y21944D01*
X88098Y21854D01*
X87990Y21767D01*
X87977Y21751D01*
X87962Y21738D01*
X87882Y21624D01*
X87798Y21513D01*
X87786Y21488D01*
X87779Y21478D01*
X87772Y21458D01*
X87727Y21368D01*
X86537Y18493D01*
X83107Y15063D01*
X78625Y13207D01*
X73775Y13207D01*
X69293Y15063D01*
X65863Y18493D01*
X64673Y21368D01*
X64604Y21489D01*
X64539Y21612D01*
X64525Y21627D01*
X64515Y21645D01*
X64418Y21745D01*
X64325Y21847D01*
X64308Y21859D01*
X64294Y21873D01*
X64175Y21946D01*
X64059Y22022D01*
X64040Y22029D01*
X64023Y22039D01*
X63890Y22080D01*
X63758Y22125D01*
X63738Y22127D01*
X63719Y22133D01*
X63580Y22140D01*
X63441Y22151D01*
X63421Y22147D01*
X63401Y22148D01*
X63265Y22120D01*
X63128Y22096D01*
X63109Y22088D01*
X63090Y22084D01*
X62964Y22023D01*
X62838Y21966D01*
X62822Y21953D01*
X62804Y21944D01*
X62698Y21854D01*
X62590Y21767D01*
X62577Y21751D01*
X62562Y21738D01*
X62482Y21624D01*
X62398Y21513D01*
X62386Y21488D01*
X62379Y21478D01*
X62372Y21458D01*
X62327Y21368D01*
X61137Y18493D01*
X57707Y15063D01*
X53225Y13207D01*
X48375Y13207D01*
X43893Y15063D01*
X40463Y18493D01*
X39273Y21368D01*
X39204Y21489D01*
X39139Y21612D01*
X39125Y21627D01*
X39115Y21645D01*
X39018Y21745D01*
X38925Y21847D01*
X38908Y21859D01*
X38894Y21873D01*
X38775Y21946D01*
X38659Y22022D01*
X38640Y22029D01*
X38623Y22039D01*
X38490Y22080D01*
X38358Y22125D01*
X38338Y22127D01*
X38319Y22133D01*
X38180Y22140D01*
X38041Y22151D01*
X38021Y22147D01*
X38001Y22148D01*
X37865Y22120D01*
X37728Y22096D01*
X37709Y22088D01*
X37690Y22084D01*
X37564Y22023D01*
X37438Y21966D01*
X37422Y21953D01*
X37404Y21944D01*
X37298Y21854D01*
X37190Y21767D01*
X37177Y21751D01*
X37162Y21738D01*
X37082Y21624D01*
X36998Y21513D01*
X36986Y21488D01*
X36979Y21478D01*
X36972Y21458D01*
X36927Y21368D01*
X35737Y18493D01*
X32307Y15063D01*
X27825Y13207D01*
X22975Y13207D01*
G37*
%LPD*%
%LPC*%
G36*
X98008Y71119D02*
X98008Y71119D01*
X96519Y72608D01*
X96519Y128052D01*
X98008Y129541D01*
X135672Y129541D01*
X137161Y128052D01*
X137161Y72608D01*
X135672Y71119D01*
X98008Y71119D01*
G37*
%LPD*%
%LPC*%
G36*
X175375Y13207D02*
X175375Y13207D01*
X170893Y15063D01*
X167463Y18493D01*
X165966Y22109D01*
X165960Y22119D01*
X165960Y22120D01*
X165956Y22126D01*
X165951Y22135D01*
X165942Y22163D01*
X165873Y22272D01*
X165808Y22385D01*
X165788Y22406D01*
X165772Y22432D01*
X165677Y22520D01*
X165587Y22613D01*
X165562Y22629D01*
X165540Y22649D01*
X165426Y22712D01*
X165316Y22780D01*
X165288Y22788D01*
X165261Y22803D01*
X165136Y22835D01*
X165012Y22873D01*
X164982Y22875D01*
X164953Y22882D01*
X164824Y22882D01*
X164694Y22888D01*
X164665Y22882D01*
X164635Y22882D01*
X164510Y22850D01*
X164383Y22824D01*
X164356Y22811D01*
X164327Y22804D01*
X164214Y22741D01*
X164097Y22684D01*
X164075Y22665D01*
X164048Y22651D01*
X163954Y22562D01*
X163855Y22478D01*
X163838Y22453D01*
X163816Y22433D01*
X163747Y22324D01*
X163672Y22218D01*
X163662Y22190D01*
X163646Y22165D01*
X163586Y22015D01*
X163229Y20915D01*
X162394Y19276D01*
X161313Y17788D01*
X160012Y16487D01*
X158524Y15406D01*
X156885Y14571D01*
X155136Y14003D01*
X154899Y13965D01*
X154899Y24170D01*
X154884Y24288D01*
X154877Y24407D01*
X154864Y24445D01*
X154859Y24485D01*
X154816Y24596D01*
X154779Y24709D01*
X154757Y24743D01*
X154742Y24781D01*
X154673Y24877D01*
X154609Y24978D01*
X154579Y25006D01*
X154556Y25038D01*
X154464Y25114D01*
X154377Y25196D01*
X154342Y25215D01*
X154311Y25241D01*
X154203Y25292D01*
X154099Y25349D01*
X154059Y25359D01*
X154023Y25377D01*
X153916Y25397D01*
X153946Y25401D01*
X154056Y25445D01*
X154169Y25481D01*
X154204Y25503D01*
X154241Y25518D01*
X154337Y25588D01*
X154438Y25651D01*
X154466Y25681D01*
X154499Y25705D01*
X154575Y25796D01*
X154656Y25883D01*
X154676Y25918D01*
X154701Y25950D01*
X154752Y26057D01*
X154810Y26162D01*
X154820Y26201D01*
X154837Y26237D01*
X154859Y26354D01*
X154889Y26470D01*
X154893Y26530D01*
X154897Y26550D01*
X154895Y26570D01*
X154896Y26571D01*
X154897Y26577D01*
X154896Y26584D01*
X154899Y26630D01*
X154899Y36835D01*
X155136Y36797D01*
X156885Y36229D01*
X158524Y35394D01*
X160012Y34313D01*
X161313Y33012D01*
X162394Y31524D01*
X163229Y29885D01*
X163586Y28785D01*
X163599Y28758D01*
X163606Y28729D01*
X163629Y28685D01*
X163638Y28657D01*
X163670Y28607D01*
X163722Y28497D01*
X163741Y28474D01*
X163755Y28448D01*
X163808Y28389D01*
X163808Y28388D01*
X163810Y28387D01*
X163842Y28352D01*
X163924Y28252D01*
X163948Y28234D01*
X163969Y28212D01*
X164077Y28141D01*
X164182Y28065D01*
X164209Y28054D01*
X164234Y28038D01*
X164357Y27996D01*
X164477Y27948D01*
X164507Y27944D01*
X164535Y27934D01*
X164664Y27924D01*
X164793Y27908D01*
X164822Y27912D01*
X164852Y27909D01*
X164980Y27931D01*
X165108Y27947D01*
X165136Y27958D01*
X165165Y27964D01*
X165283Y28017D01*
X165404Y28064D01*
X165428Y28082D01*
X165455Y28094D01*
X165556Y28175D01*
X165661Y28251D01*
X165680Y28274D01*
X165704Y28293D01*
X165782Y28396D01*
X165864Y28496D01*
X165877Y28523D01*
X165895Y28547D01*
X165966Y28691D01*
X167463Y32307D01*
X170893Y35737D01*
X175375Y37593D01*
X180225Y37593D01*
X184707Y35737D01*
X188137Y32307D01*
X189327Y29432D01*
X189396Y29311D01*
X189461Y29188D01*
X189475Y29173D01*
X189485Y29155D01*
X189582Y29055D01*
X189675Y28953D01*
X189692Y28941D01*
X189706Y28927D01*
X189824Y28854D01*
X189941Y28778D01*
X189960Y28771D01*
X189977Y28761D01*
X190110Y28720D01*
X190242Y28675D01*
X190262Y28673D01*
X190281Y28667D01*
X190420Y28660D01*
X190559Y28649D01*
X190579Y28653D01*
X190599Y28652D01*
X190735Y28680D01*
X190872Y28704D01*
X190890Y28712D01*
X190910Y28716D01*
X191036Y28778D01*
X191162Y28834D01*
X191178Y28847D01*
X191196Y28856D01*
X191302Y28947D01*
X191410Y29033D01*
X191423Y29049D01*
X191438Y29062D01*
X191518Y29176D01*
X191602Y29287D01*
X191614Y29312D01*
X191621Y29322D01*
X191628Y29342D01*
X191673Y29432D01*
X192863Y32307D01*
X196293Y35737D01*
X200775Y37593D01*
X205625Y37593D01*
X210107Y35737D01*
X213537Y32307D01*
X215393Y27825D01*
X215393Y22975D01*
X213537Y18493D01*
X210107Y15063D01*
X205625Y13207D01*
X200775Y13207D01*
X196293Y15063D01*
X192863Y18493D01*
X191673Y21368D01*
X191604Y21489D01*
X191539Y21612D01*
X191525Y21627D01*
X191515Y21645D01*
X191418Y21744D01*
X191325Y21847D01*
X191308Y21859D01*
X191294Y21873D01*
X191175Y21946D01*
X191059Y22022D01*
X191040Y22029D01*
X191023Y22039D01*
X190890Y22080D01*
X190758Y22125D01*
X190738Y22127D01*
X190719Y22133D01*
X190580Y22140D01*
X190441Y22151D01*
X190421Y22147D01*
X190401Y22148D01*
X190265Y22120D01*
X190128Y22096D01*
X190109Y22088D01*
X190090Y22084D01*
X189964Y22022D01*
X189838Y21966D01*
X189822Y21953D01*
X189804Y21944D01*
X189698Y21854D01*
X189590Y21767D01*
X189577Y21751D01*
X189562Y21738D01*
X189482Y21624D01*
X189398Y21513D01*
X189386Y21488D01*
X189379Y21478D01*
X189372Y21458D01*
X189327Y21368D01*
X188137Y18493D01*
X184707Y15063D01*
X180225Y13207D01*
X175375Y13207D01*
G37*
%LPD*%
D10*
X25400Y177800D03*
X203200Y177800D03*
D11*
X25400Y25400D03*
X50800Y25400D03*
X76200Y25400D03*
X101600Y25400D03*
X127000Y25400D03*
X152400Y25400D03*
X177800Y25400D03*
X203200Y25400D03*
D12*
X129540Y59690D03*
X167640Y68580D03*
X172720Y93980D03*
X129540Y135890D03*
X144780Y93980D03*
D13*
X147320Y93980D01*
M02*
