G04 EAGLE Gerber RS-274X export*
G75*
%MOMM*%
%FSLAX34Y34*%
%LPD*%
%INSilkscreen Bottom*%
%IPPOS*%
%AMOC8*
5,1,8,0,0,1.08239X$1,22.5*%
G01*
%ADD10C,0.203200*%
%ADD11C,0.152400*%
%ADD12R,0.200000X1.000000*%
%ADD13C,0.127000*%
%ADD14C,0.076200*%
%ADD15C,0.304800*%
%ADD16C,0.101600*%
%ADD17C,0.010000*%
%ADD18C,0.075000*%

G36*
X88850Y104308D02*
X88850Y104308D01*
X88921Y104306D01*
X88991Y104325D01*
X89062Y104333D01*
X89117Y104358D01*
X89196Y104378D01*
X89299Y104439D01*
X89368Y104470D01*
X92368Y106470D01*
X92455Y106547D01*
X92545Y106620D01*
X92560Y106642D01*
X92580Y106660D01*
X92642Y106757D01*
X92709Y106852D01*
X92717Y106878D01*
X92732Y106900D01*
X92764Y107011D01*
X92802Y107121D01*
X92803Y107148D01*
X92810Y107173D01*
X92810Y107289D01*
X92816Y107405D01*
X92810Y107431D01*
X92810Y107458D01*
X92778Y107569D01*
X92752Y107682D01*
X92739Y107705D01*
X92731Y107731D01*
X92669Y107829D01*
X92613Y107930D01*
X92595Y107946D01*
X92580Y107971D01*
X92372Y108156D01*
X92368Y108160D01*
X89368Y110160D01*
X89304Y110191D01*
X89244Y110231D01*
X89176Y110252D01*
X89112Y110283D01*
X89041Y110295D01*
X88973Y110316D01*
X88902Y110318D01*
X88832Y110330D01*
X88760Y110322D01*
X88689Y110324D01*
X88620Y110306D01*
X88549Y110297D01*
X88483Y110270D01*
X88414Y110252D01*
X88353Y110215D01*
X88287Y110188D01*
X88231Y110143D01*
X88169Y110107D01*
X88120Y110055D01*
X88065Y110010D01*
X88024Y109952D01*
X87975Y109899D01*
X87942Y109836D01*
X87901Y109778D01*
X87878Y109710D01*
X87845Y109646D01*
X87835Y109587D01*
X87808Y109509D01*
X87802Y109390D01*
X87790Y109315D01*
X87790Y105315D01*
X87800Y105244D01*
X87800Y105172D01*
X87820Y105104D01*
X87830Y105034D01*
X87859Y104968D01*
X87879Y104899D01*
X87917Y104839D01*
X87946Y104774D01*
X87992Y104719D01*
X88030Y104659D01*
X88084Y104611D01*
X88130Y104557D01*
X88189Y104517D01*
X88243Y104470D01*
X88307Y104439D01*
X88366Y104400D01*
X88435Y104378D01*
X88499Y104347D01*
X88569Y104335D01*
X88637Y104314D01*
X88709Y104312D01*
X88780Y104300D01*
X88850Y104308D01*
G37*
G36*
X95454Y85766D02*
X95454Y85766D01*
X95525Y85764D01*
X95595Y85783D01*
X95666Y85791D01*
X95721Y85816D01*
X95800Y85836D01*
X95903Y85897D01*
X95972Y85928D01*
X98972Y87928D01*
X99059Y88005D01*
X99149Y88078D01*
X99164Y88100D01*
X99184Y88118D01*
X99246Y88215D01*
X99313Y88310D01*
X99321Y88336D01*
X99336Y88358D01*
X99368Y88469D01*
X99406Y88579D01*
X99407Y88606D01*
X99414Y88631D01*
X99414Y88747D01*
X99420Y88863D01*
X99414Y88889D01*
X99414Y88916D01*
X99382Y89027D01*
X99356Y89140D01*
X99343Y89163D01*
X99335Y89189D01*
X99273Y89287D01*
X99217Y89388D01*
X99199Y89404D01*
X99184Y89429D01*
X98976Y89614D01*
X98972Y89618D01*
X95972Y91618D01*
X95908Y91649D01*
X95848Y91689D01*
X95780Y91710D01*
X95716Y91741D01*
X95645Y91753D01*
X95577Y91774D01*
X95506Y91776D01*
X95436Y91788D01*
X95364Y91780D01*
X95293Y91782D01*
X95224Y91764D01*
X95153Y91755D01*
X95087Y91728D01*
X95018Y91710D01*
X94957Y91673D01*
X94891Y91646D01*
X94835Y91601D01*
X94773Y91565D01*
X94724Y91513D01*
X94669Y91468D01*
X94628Y91410D01*
X94579Y91357D01*
X94546Y91294D01*
X94505Y91236D01*
X94482Y91168D01*
X94449Y91104D01*
X94439Y91045D01*
X94412Y90967D01*
X94406Y90848D01*
X94394Y90773D01*
X94394Y86773D01*
X94404Y86702D01*
X94404Y86630D01*
X94424Y86562D01*
X94434Y86492D01*
X94463Y86426D01*
X94483Y86357D01*
X94521Y86297D01*
X94550Y86232D01*
X94596Y86177D01*
X94634Y86117D01*
X94688Y86069D01*
X94734Y86015D01*
X94793Y85975D01*
X94847Y85928D01*
X94911Y85897D01*
X94970Y85858D01*
X95039Y85836D01*
X95103Y85805D01*
X95173Y85793D01*
X95241Y85772D01*
X95313Y85770D01*
X95384Y85758D01*
X95454Y85766D01*
G37*
D10*
X119252Y46238D02*
X103252Y46238D01*
X103252Y79238D02*
X119252Y79238D01*
X121752Y66738D02*
X121752Y58738D01*
D11*
X118618Y83280D02*
X113848Y83280D01*
X113763Y83282D01*
X113679Y83288D01*
X113595Y83298D01*
X113511Y83311D01*
X113428Y83329D01*
X113346Y83350D01*
X113265Y83375D01*
X113185Y83404D01*
X113107Y83436D01*
X113031Y83472D01*
X112956Y83512D01*
X112883Y83555D01*
X112812Y83601D01*
X112743Y83650D01*
X112676Y83703D01*
X112612Y83759D01*
X112551Y83817D01*
X112493Y83878D01*
X112437Y83942D01*
X112384Y84009D01*
X112335Y84078D01*
X112289Y84149D01*
X112246Y84222D01*
X112206Y84297D01*
X112170Y84373D01*
X112138Y84451D01*
X112109Y84531D01*
X112084Y84612D01*
X112063Y84694D01*
X112045Y84777D01*
X112032Y84861D01*
X112022Y84945D01*
X112016Y85029D01*
X112014Y85114D01*
X112016Y85199D01*
X112022Y85283D01*
X112032Y85367D01*
X112045Y85451D01*
X112063Y85534D01*
X112084Y85616D01*
X112109Y85697D01*
X112138Y85777D01*
X112170Y85855D01*
X112206Y85931D01*
X112246Y86006D01*
X112289Y86079D01*
X112335Y86150D01*
X112384Y86219D01*
X112437Y86286D01*
X112493Y86350D01*
X112551Y86411D01*
X112612Y86469D01*
X112676Y86525D01*
X112743Y86578D01*
X112812Y86627D01*
X112883Y86673D01*
X112956Y86716D01*
X113031Y86756D01*
X113107Y86792D01*
X113185Y86824D01*
X113265Y86853D01*
X113346Y86878D01*
X113428Y86899D01*
X113511Y86917D01*
X113595Y86930D01*
X113679Y86940D01*
X113763Y86946D01*
X113848Y86948D01*
X113848Y86949D02*
X118618Y86949D01*
X118618Y92857D02*
X118616Y92936D01*
X118611Y93014D01*
X118601Y93092D01*
X118588Y93169D01*
X118571Y93246D01*
X118551Y93322D01*
X118527Y93397D01*
X118500Y93471D01*
X118469Y93543D01*
X118434Y93614D01*
X118397Y93683D01*
X118356Y93750D01*
X118312Y93815D01*
X118265Y93878D01*
X118215Y93938D01*
X118162Y93996D01*
X118106Y94052D01*
X118048Y94105D01*
X117988Y94155D01*
X117925Y94202D01*
X117860Y94246D01*
X117793Y94287D01*
X117724Y94324D01*
X117653Y94359D01*
X117581Y94390D01*
X117507Y94417D01*
X117432Y94441D01*
X117356Y94461D01*
X117279Y94478D01*
X117202Y94491D01*
X117124Y94501D01*
X117046Y94506D01*
X116967Y94508D01*
X118618Y92857D02*
X118616Y92768D01*
X118611Y92679D01*
X118601Y92591D01*
X118588Y92503D01*
X118572Y92416D01*
X118551Y92329D01*
X118527Y92244D01*
X118500Y92159D01*
X118469Y92076D01*
X118434Y91994D01*
X118396Y91913D01*
X118355Y91834D01*
X118311Y91758D01*
X118263Y91682D01*
X118212Y91609D01*
X118159Y91539D01*
X118102Y91470D01*
X118042Y91404D01*
X117980Y91341D01*
X117915Y91280D01*
X117848Y91222D01*
X117778Y91167D01*
X117706Y91114D01*
X117632Y91065D01*
X117556Y91019D01*
X117478Y90977D01*
X117398Y90937D01*
X117317Y90901D01*
X117234Y90868D01*
X117150Y90839D01*
X115683Y93958D02*
X115739Y94014D01*
X115798Y94068D01*
X115859Y94119D01*
X115923Y94168D01*
X115988Y94213D01*
X116056Y94256D01*
X116125Y94295D01*
X116196Y94332D01*
X116269Y94365D01*
X116343Y94394D01*
X116418Y94421D01*
X116494Y94444D01*
X116572Y94463D01*
X116650Y94479D01*
X116728Y94492D01*
X116808Y94501D01*
X116887Y94506D01*
X116967Y94508D01*
X115683Y93958D02*
X112014Y90839D01*
X112014Y94508D01*
X113848Y83280D02*
X118618Y83280D01*
X113848Y83280D02*
X113763Y83282D01*
X113679Y83288D01*
X113595Y83298D01*
X113511Y83311D01*
X113428Y83329D01*
X113346Y83350D01*
X113265Y83375D01*
X113185Y83404D01*
X113107Y83436D01*
X113031Y83472D01*
X112956Y83512D01*
X112883Y83555D01*
X112812Y83601D01*
X112743Y83650D01*
X112676Y83703D01*
X112612Y83759D01*
X112551Y83817D01*
X112493Y83878D01*
X112437Y83942D01*
X112384Y84009D01*
X112335Y84078D01*
X112289Y84149D01*
X112246Y84222D01*
X112206Y84297D01*
X112170Y84373D01*
X112138Y84451D01*
X112109Y84531D01*
X112084Y84612D01*
X112063Y84694D01*
X112045Y84777D01*
X112032Y84861D01*
X112022Y84945D01*
X112016Y85029D01*
X112014Y85114D01*
X112016Y85199D01*
X112022Y85283D01*
X112032Y85367D01*
X112045Y85451D01*
X112063Y85534D01*
X112084Y85616D01*
X112109Y85697D01*
X112138Y85777D01*
X112170Y85855D01*
X112206Y85931D01*
X112246Y86006D01*
X112289Y86079D01*
X112335Y86150D01*
X112384Y86219D01*
X112437Y86286D01*
X112493Y86350D01*
X112551Y86411D01*
X112612Y86469D01*
X112676Y86525D01*
X112743Y86578D01*
X112812Y86627D01*
X112883Y86673D01*
X112956Y86716D01*
X113031Y86756D01*
X113107Y86792D01*
X113185Y86824D01*
X113265Y86853D01*
X113346Y86878D01*
X113428Y86899D01*
X113511Y86917D01*
X113595Y86930D01*
X113679Y86940D01*
X113763Y86946D01*
X113848Y86948D01*
X113848Y86949D02*
X118618Y86949D01*
X118618Y92857D02*
X118616Y92936D01*
X118611Y93014D01*
X118601Y93092D01*
X118588Y93169D01*
X118571Y93246D01*
X118551Y93322D01*
X118527Y93397D01*
X118500Y93471D01*
X118469Y93543D01*
X118434Y93614D01*
X118397Y93683D01*
X118356Y93750D01*
X118312Y93815D01*
X118265Y93878D01*
X118215Y93938D01*
X118162Y93996D01*
X118106Y94052D01*
X118048Y94105D01*
X117988Y94155D01*
X117925Y94202D01*
X117860Y94246D01*
X117793Y94287D01*
X117724Y94324D01*
X117653Y94359D01*
X117581Y94390D01*
X117507Y94417D01*
X117432Y94441D01*
X117356Y94461D01*
X117279Y94478D01*
X117202Y94491D01*
X117124Y94501D01*
X117046Y94506D01*
X116967Y94508D01*
X118618Y92857D02*
X118616Y92768D01*
X118611Y92679D01*
X118601Y92591D01*
X118588Y92503D01*
X118572Y92416D01*
X118551Y92329D01*
X118527Y92244D01*
X118500Y92159D01*
X118469Y92076D01*
X118434Y91994D01*
X118396Y91913D01*
X118355Y91834D01*
X118311Y91758D01*
X118263Y91682D01*
X118212Y91609D01*
X118159Y91539D01*
X118102Y91470D01*
X118042Y91404D01*
X117980Y91341D01*
X117915Y91280D01*
X117848Y91222D01*
X117778Y91167D01*
X117706Y91114D01*
X117632Y91065D01*
X117556Y91019D01*
X117478Y90977D01*
X117398Y90937D01*
X117317Y90901D01*
X117234Y90868D01*
X117150Y90839D01*
X115683Y93958D02*
X115739Y94014D01*
X115798Y94068D01*
X115859Y94119D01*
X115923Y94168D01*
X115988Y94213D01*
X116056Y94256D01*
X116125Y94295D01*
X116196Y94332D01*
X116269Y94365D01*
X116343Y94394D01*
X116418Y94421D01*
X116494Y94444D01*
X116572Y94463D01*
X116650Y94479D01*
X116728Y94492D01*
X116808Y94501D01*
X116887Y94506D01*
X116967Y94508D01*
X115683Y93958D02*
X112014Y90839D01*
X112014Y94508D01*
D10*
X106139Y95773D02*
X88679Y95773D01*
X88679Y81773D02*
X106139Y81773D01*
X100409Y88773D02*
X94409Y92773D01*
X94409Y84773D01*
X100409Y88773D01*
D12*
X101409Y88773D03*
D11*
X109347Y99695D02*
X109347Y106299D01*
X107513Y106299D01*
X107428Y106297D01*
X107344Y106291D01*
X107260Y106281D01*
X107176Y106268D01*
X107093Y106250D01*
X107011Y106229D01*
X106930Y106204D01*
X106850Y106175D01*
X106772Y106143D01*
X106696Y106107D01*
X106621Y106067D01*
X106548Y106024D01*
X106477Y105978D01*
X106408Y105929D01*
X106341Y105876D01*
X106277Y105820D01*
X106216Y105762D01*
X106158Y105701D01*
X106102Y105637D01*
X106049Y105570D01*
X106000Y105501D01*
X105954Y105430D01*
X105911Y105357D01*
X105871Y105282D01*
X105835Y105206D01*
X105803Y105128D01*
X105774Y105048D01*
X105749Y104967D01*
X105728Y104885D01*
X105710Y104802D01*
X105697Y104718D01*
X105687Y104634D01*
X105681Y104550D01*
X105679Y104465D01*
X105678Y104465D02*
X105678Y101529D01*
X105679Y101529D02*
X105681Y101444D01*
X105687Y101360D01*
X105697Y101276D01*
X105710Y101192D01*
X105728Y101109D01*
X105749Y101027D01*
X105774Y100946D01*
X105803Y100866D01*
X105835Y100788D01*
X105871Y100712D01*
X105911Y100637D01*
X105954Y100564D01*
X106000Y100493D01*
X106049Y100424D01*
X106102Y100357D01*
X106158Y100293D01*
X106216Y100232D01*
X106277Y100174D01*
X106341Y100118D01*
X106408Y100065D01*
X106477Y100016D01*
X106548Y99970D01*
X106621Y99927D01*
X106696Y99887D01*
X106772Y99851D01*
X106850Y99819D01*
X106930Y99790D01*
X107011Y99765D01*
X107093Y99744D01*
X107176Y99726D01*
X107260Y99713D01*
X107344Y99703D01*
X107428Y99697D01*
X107513Y99695D01*
X109347Y99695D01*
X101788Y104831D02*
X99954Y106299D01*
X99954Y99695D01*
X101788Y99695D02*
X98119Y99695D01*
X109347Y99695D02*
X109347Y106299D01*
X107513Y106299D01*
X107428Y106297D01*
X107344Y106291D01*
X107260Y106281D01*
X107176Y106268D01*
X107093Y106250D01*
X107011Y106229D01*
X106930Y106204D01*
X106850Y106175D01*
X106772Y106143D01*
X106696Y106107D01*
X106621Y106067D01*
X106548Y106024D01*
X106477Y105978D01*
X106408Y105929D01*
X106341Y105876D01*
X106277Y105820D01*
X106216Y105762D01*
X106158Y105701D01*
X106102Y105637D01*
X106049Y105570D01*
X106000Y105501D01*
X105954Y105430D01*
X105911Y105357D01*
X105871Y105282D01*
X105835Y105206D01*
X105803Y105128D01*
X105774Y105048D01*
X105749Y104967D01*
X105728Y104885D01*
X105710Y104802D01*
X105697Y104718D01*
X105687Y104634D01*
X105681Y104550D01*
X105679Y104465D01*
X105678Y104465D02*
X105678Y101529D01*
X105679Y101529D02*
X105681Y101444D01*
X105687Y101360D01*
X105697Y101276D01*
X105710Y101192D01*
X105728Y101109D01*
X105749Y101027D01*
X105774Y100946D01*
X105803Y100866D01*
X105835Y100788D01*
X105871Y100712D01*
X105911Y100637D01*
X105954Y100564D01*
X106000Y100493D01*
X106049Y100424D01*
X106102Y100357D01*
X106158Y100293D01*
X106216Y100232D01*
X106277Y100174D01*
X106341Y100118D01*
X106408Y100065D01*
X106477Y100016D01*
X106548Y99970D01*
X106621Y99927D01*
X106696Y99887D01*
X106772Y99851D01*
X106850Y99819D01*
X106930Y99790D01*
X107011Y99765D01*
X107093Y99744D01*
X107176Y99726D01*
X107260Y99713D01*
X107344Y99703D01*
X107428Y99697D01*
X107513Y99695D01*
X109347Y99695D01*
X101788Y104831D02*
X99954Y106299D01*
X99954Y99695D01*
X101788Y99695D02*
X98119Y99695D01*
D13*
X260352Y98900D02*
X292352Y98900D01*
X260352Y98900D02*
X260352Y78900D01*
X292352Y78900D01*
X292352Y98900D01*
X293434Y96614D02*
X293436Y96708D01*
X293442Y96802D01*
X293452Y96896D01*
X293466Y96989D01*
X293484Y97082D01*
X293505Y97174D01*
X293531Y97264D01*
X293560Y97354D01*
X293593Y97442D01*
X293630Y97529D01*
X293670Y97614D01*
X293714Y97698D01*
X293762Y97779D01*
X293812Y97859D01*
X293867Y97936D01*
X293924Y98011D01*
X293984Y98083D01*
X294048Y98153D01*
X294114Y98220D01*
X294183Y98284D01*
X294255Y98345D01*
X294329Y98403D01*
X294406Y98458D01*
X294485Y98510D01*
X294566Y98558D01*
X294649Y98603D01*
X294733Y98644D01*
X294820Y98682D01*
X294908Y98716D01*
X294997Y98746D01*
X295087Y98773D01*
X295179Y98795D01*
X295271Y98814D01*
X295365Y98829D01*
X295458Y98840D01*
X295552Y98847D01*
X295646Y98850D01*
X295741Y98849D01*
X295835Y98844D01*
X295929Y98835D01*
X296022Y98822D01*
X296115Y98805D01*
X296207Y98785D01*
X296298Y98760D01*
X296388Y98732D01*
X296476Y98700D01*
X296564Y98664D01*
X296649Y98624D01*
X296733Y98581D01*
X296815Y98535D01*
X296895Y98485D01*
X296973Y98431D01*
X297048Y98375D01*
X297121Y98315D01*
X297192Y98252D01*
X297259Y98187D01*
X297324Y98118D01*
X297386Y98047D01*
X297445Y97974D01*
X297501Y97898D01*
X297553Y97819D01*
X297602Y97739D01*
X297648Y97656D01*
X297690Y97572D01*
X297729Y97486D01*
X297764Y97398D01*
X297795Y97309D01*
X297823Y97219D01*
X297846Y97128D01*
X297866Y97036D01*
X297882Y96943D01*
X297894Y96849D01*
X297902Y96755D01*
X297906Y96661D01*
X297906Y96567D01*
X297902Y96473D01*
X297894Y96379D01*
X297882Y96285D01*
X297866Y96192D01*
X297846Y96100D01*
X297823Y96009D01*
X297795Y95919D01*
X297764Y95830D01*
X297729Y95742D01*
X297690Y95656D01*
X297648Y95572D01*
X297602Y95489D01*
X297553Y95409D01*
X297501Y95330D01*
X297445Y95254D01*
X297386Y95181D01*
X297324Y95110D01*
X297259Y95041D01*
X297192Y94976D01*
X297121Y94913D01*
X297048Y94853D01*
X296973Y94797D01*
X296895Y94743D01*
X296815Y94693D01*
X296733Y94647D01*
X296649Y94604D01*
X296564Y94564D01*
X296476Y94528D01*
X296388Y94496D01*
X296298Y94468D01*
X296207Y94443D01*
X296115Y94423D01*
X296022Y94406D01*
X295929Y94393D01*
X295835Y94384D01*
X295741Y94379D01*
X295646Y94378D01*
X295552Y94381D01*
X295458Y94388D01*
X295365Y94399D01*
X295271Y94414D01*
X295179Y94433D01*
X295087Y94455D01*
X294997Y94482D01*
X294908Y94512D01*
X294820Y94546D01*
X294733Y94584D01*
X294649Y94625D01*
X294566Y94670D01*
X294485Y94718D01*
X294406Y94770D01*
X294329Y94825D01*
X294255Y94883D01*
X294183Y94944D01*
X294114Y95008D01*
X294048Y95075D01*
X293984Y95145D01*
X293924Y95217D01*
X293867Y95292D01*
X293812Y95369D01*
X293762Y95449D01*
X293714Y95530D01*
X293670Y95614D01*
X293630Y95699D01*
X293593Y95786D01*
X293560Y95874D01*
X293531Y95964D01*
X293505Y96054D01*
X293484Y96146D01*
X293466Y96239D01*
X293452Y96332D01*
X293442Y96426D01*
X293436Y96520D01*
X293434Y96614D01*
D14*
X287627Y73279D02*
X287627Y63881D01*
X288671Y63881D02*
X286583Y63881D01*
X286583Y73279D02*
X288671Y73279D01*
X280859Y63881D02*
X278771Y63881D01*
X280859Y63881D02*
X280948Y63883D01*
X281036Y63889D01*
X281124Y63898D01*
X281212Y63911D01*
X281299Y63928D01*
X281385Y63948D01*
X281470Y63973D01*
X281555Y64000D01*
X281638Y64032D01*
X281719Y64066D01*
X281799Y64105D01*
X281877Y64146D01*
X281954Y64191D01*
X282028Y64239D01*
X282101Y64290D01*
X282171Y64344D01*
X282238Y64402D01*
X282304Y64462D01*
X282366Y64524D01*
X282426Y64590D01*
X282484Y64657D01*
X282538Y64727D01*
X282589Y64800D01*
X282637Y64874D01*
X282682Y64951D01*
X282723Y65029D01*
X282762Y65109D01*
X282796Y65190D01*
X282828Y65273D01*
X282855Y65358D01*
X282880Y65443D01*
X282900Y65529D01*
X282917Y65616D01*
X282930Y65704D01*
X282939Y65792D01*
X282945Y65880D01*
X282947Y65969D01*
X282948Y65969D02*
X282948Y71191D01*
X282947Y71191D02*
X282945Y71280D01*
X282939Y71368D01*
X282930Y71456D01*
X282917Y71544D01*
X282900Y71631D01*
X282880Y71717D01*
X282855Y71802D01*
X282828Y71887D01*
X282796Y71970D01*
X282762Y72051D01*
X282723Y72131D01*
X282682Y72209D01*
X282637Y72286D01*
X282589Y72360D01*
X282538Y72433D01*
X282484Y72503D01*
X282426Y72570D01*
X282366Y72636D01*
X282304Y72698D01*
X282238Y72758D01*
X282171Y72816D01*
X282101Y72870D01*
X282028Y72921D01*
X281954Y72969D01*
X281877Y73014D01*
X281799Y73055D01*
X281719Y73094D01*
X281638Y73128D01*
X281555Y73160D01*
X281470Y73187D01*
X281385Y73212D01*
X281299Y73232D01*
X281212Y73249D01*
X281124Y73262D01*
X281036Y73271D01*
X280948Y73277D01*
X280859Y73279D01*
X278771Y73279D01*
X272431Y73280D02*
X272336Y73278D01*
X272242Y73272D01*
X272148Y73263D01*
X272054Y73250D01*
X271961Y73233D01*
X271869Y73212D01*
X271777Y73187D01*
X271687Y73159D01*
X271598Y73127D01*
X271510Y73092D01*
X271424Y73053D01*
X271339Y73011D01*
X271256Y72965D01*
X271175Y72916D01*
X271096Y72864D01*
X271019Y72809D01*
X270945Y72750D01*
X270873Y72689D01*
X270803Y72625D01*
X270736Y72558D01*
X270672Y72488D01*
X270611Y72416D01*
X270552Y72342D01*
X270497Y72265D01*
X270445Y72186D01*
X270396Y72105D01*
X270350Y72022D01*
X270308Y71937D01*
X270269Y71851D01*
X270234Y71763D01*
X270202Y71674D01*
X270174Y71584D01*
X270149Y71492D01*
X270128Y71400D01*
X270111Y71307D01*
X270098Y71213D01*
X270089Y71119D01*
X270083Y71025D01*
X270081Y70930D01*
X272431Y73279D02*
X272539Y73277D01*
X272648Y73271D01*
X272756Y73261D01*
X272863Y73248D01*
X272970Y73230D01*
X273077Y73209D01*
X273182Y73184D01*
X273287Y73155D01*
X273390Y73123D01*
X273492Y73086D01*
X273593Y73046D01*
X273692Y73003D01*
X273790Y72956D01*
X273886Y72905D01*
X273980Y72851D01*
X274072Y72794D01*
X274162Y72733D01*
X274250Y72669D01*
X274335Y72603D01*
X274418Y72533D01*
X274498Y72460D01*
X274576Y72384D01*
X274651Y72306D01*
X274723Y72225D01*
X274792Y72141D01*
X274858Y72055D01*
X274921Y71967D01*
X274980Y71876D01*
X275037Y71784D01*
X275090Y71689D01*
X275139Y71592D01*
X275185Y71494D01*
X275228Y71395D01*
X275267Y71293D01*
X275302Y71191D01*
X270864Y69102D02*
X270795Y69171D01*
X270729Y69242D01*
X270665Y69315D01*
X270604Y69391D01*
X270546Y69470D01*
X270492Y69550D01*
X270440Y69633D01*
X270392Y69717D01*
X270346Y69803D01*
X270305Y69891D01*
X270266Y69981D01*
X270231Y70072D01*
X270200Y70164D01*
X270172Y70257D01*
X270148Y70351D01*
X270128Y70446D01*
X270111Y70542D01*
X270098Y70639D01*
X270089Y70736D01*
X270083Y70833D01*
X270081Y70930D01*
X270864Y69102D02*
X275302Y63881D01*
X270081Y63881D01*
D15*
X275336Y102426D02*
X275336Y110426D01*
D11*
X255326Y105918D02*
X253859Y105918D01*
X255326Y105918D02*
X255400Y105920D01*
X255475Y105926D01*
X255548Y105935D01*
X255622Y105948D01*
X255694Y105965D01*
X255765Y105985D01*
X255836Y106009D01*
X255905Y106037D01*
X255973Y106068D01*
X256038Y106102D01*
X256103Y106140D01*
X256165Y106181D01*
X256225Y106225D01*
X256282Y106272D01*
X256337Y106322D01*
X256390Y106375D01*
X256440Y106430D01*
X256487Y106487D01*
X256531Y106547D01*
X256572Y106609D01*
X256610Y106674D01*
X256644Y106740D01*
X256675Y106807D01*
X256703Y106876D01*
X256727Y106947D01*
X256747Y107018D01*
X256764Y107091D01*
X256777Y107164D01*
X256786Y107238D01*
X256792Y107312D01*
X256794Y107386D01*
X256794Y111054D01*
X256792Y111128D01*
X256786Y111203D01*
X256777Y111276D01*
X256764Y111349D01*
X256747Y111422D01*
X256727Y111493D01*
X256703Y111564D01*
X256675Y111633D01*
X256644Y111700D01*
X256610Y111766D01*
X256572Y111831D01*
X256531Y111893D01*
X256487Y111953D01*
X256440Y112010D01*
X256390Y112065D01*
X256337Y112118D01*
X256282Y112168D01*
X256225Y112215D01*
X256165Y112259D01*
X256103Y112300D01*
X256038Y112338D01*
X255973Y112372D01*
X255905Y112403D01*
X255836Y112431D01*
X255766Y112455D01*
X255694Y112475D01*
X255622Y112492D01*
X255548Y112505D01*
X255475Y112514D01*
X255400Y112520D01*
X255326Y112522D01*
X253859Y112522D01*
X250663Y105918D02*
X248828Y105918D01*
X248743Y105920D01*
X248659Y105926D01*
X248575Y105936D01*
X248491Y105949D01*
X248408Y105967D01*
X248326Y105988D01*
X248245Y106013D01*
X248165Y106042D01*
X248087Y106074D01*
X248011Y106110D01*
X247936Y106150D01*
X247863Y106193D01*
X247792Y106239D01*
X247723Y106288D01*
X247656Y106341D01*
X247592Y106397D01*
X247531Y106455D01*
X247473Y106516D01*
X247417Y106580D01*
X247364Y106647D01*
X247315Y106716D01*
X247269Y106787D01*
X247226Y106860D01*
X247186Y106935D01*
X247150Y107011D01*
X247118Y107089D01*
X247089Y107169D01*
X247064Y107250D01*
X247043Y107332D01*
X247025Y107415D01*
X247012Y107499D01*
X247002Y107583D01*
X246996Y107667D01*
X246994Y107752D01*
X246996Y107837D01*
X247002Y107921D01*
X247012Y108005D01*
X247025Y108089D01*
X247043Y108172D01*
X247064Y108254D01*
X247089Y108335D01*
X247118Y108415D01*
X247150Y108493D01*
X247186Y108569D01*
X247226Y108644D01*
X247269Y108717D01*
X247315Y108788D01*
X247364Y108857D01*
X247417Y108924D01*
X247473Y108988D01*
X247531Y109049D01*
X247592Y109107D01*
X247656Y109163D01*
X247723Y109216D01*
X247792Y109265D01*
X247863Y109311D01*
X247936Y109354D01*
X248011Y109394D01*
X248087Y109430D01*
X248165Y109462D01*
X248245Y109491D01*
X248326Y109516D01*
X248408Y109537D01*
X248491Y109555D01*
X248575Y109568D01*
X248659Y109578D01*
X248743Y109584D01*
X248828Y109586D01*
X248461Y112522D02*
X250663Y112522D01*
X248461Y112522D02*
X248385Y112520D01*
X248310Y112514D01*
X248235Y112505D01*
X248161Y112491D01*
X248087Y112474D01*
X248015Y112452D01*
X247943Y112428D01*
X247873Y112399D01*
X247805Y112367D01*
X247738Y112332D01*
X247673Y112293D01*
X247610Y112250D01*
X247550Y112205D01*
X247492Y112157D01*
X247436Y112105D01*
X247384Y112051D01*
X247334Y111994D01*
X247287Y111935D01*
X247243Y111874D01*
X247202Y111810D01*
X247165Y111744D01*
X247131Y111676D01*
X247101Y111607D01*
X247074Y111536D01*
X247051Y111464D01*
X247032Y111391D01*
X247017Y111317D01*
X247005Y111242D01*
X246997Y111167D01*
X246993Y111092D01*
X246993Y111016D01*
X246997Y110941D01*
X247005Y110866D01*
X247017Y110791D01*
X247032Y110717D01*
X247051Y110644D01*
X247074Y110572D01*
X247101Y110501D01*
X247131Y110432D01*
X247165Y110364D01*
X247202Y110298D01*
X247243Y110234D01*
X247287Y110173D01*
X247334Y110114D01*
X247384Y110057D01*
X247436Y110003D01*
X247492Y109951D01*
X247550Y109903D01*
X247610Y109858D01*
X247673Y109815D01*
X247738Y109776D01*
X247805Y109741D01*
X247873Y109709D01*
X247943Y109680D01*
X248015Y109656D01*
X248087Y109634D01*
X248161Y109617D01*
X248235Y109603D01*
X248310Y109594D01*
X248385Y109588D01*
X248461Y109586D01*
X248461Y109587D02*
X249929Y109587D01*
X253859Y105918D02*
X255326Y105918D01*
X255400Y105920D01*
X255475Y105926D01*
X255548Y105935D01*
X255622Y105948D01*
X255694Y105965D01*
X255765Y105985D01*
X255836Y106009D01*
X255905Y106037D01*
X255973Y106068D01*
X256038Y106102D01*
X256103Y106140D01*
X256165Y106181D01*
X256225Y106225D01*
X256282Y106272D01*
X256337Y106322D01*
X256390Y106375D01*
X256440Y106430D01*
X256487Y106487D01*
X256531Y106547D01*
X256572Y106609D01*
X256610Y106674D01*
X256644Y106740D01*
X256675Y106807D01*
X256703Y106876D01*
X256727Y106947D01*
X256747Y107018D01*
X256764Y107091D01*
X256777Y107164D01*
X256786Y107238D01*
X256792Y107312D01*
X256794Y107386D01*
X256794Y111054D01*
X256792Y111128D01*
X256786Y111203D01*
X256777Y111276D01*
X256764Y111349D01*
X256747Y111422D01*
X256727Y111493D01*
X256703Y111564D01*
X256675Y111633D01*
X256644Y111700D01*
X256610Y111766D01*
X256572Y111831D01*
X256531Y111893D01*
X256487Y111953D01*
X256440Y112010D01*
X256390Y112065D01*
X256337Y112118D01*
X256282Y112168D01*
X256225Y112215D01*
X256165Y112259D01*
X256103Y112300D01*
X256038Y112338D01*
X255973Y112372D01*
X255905Y112403D01*
X255836Y112431D01*
X255766Y112455D01*
X255694Y112475D01*
X255622Y112492D01*
X255548Y112505D01*
X255475Y112514D01*
X255400Y112520D01*
X255326Y112522D01*
X253859Y112522D01*
X250663Y105918D02*
X248828Y105918D01*
X248743Y105920D01*
X248659Y105926D01*
X248575Y105936D01*
X248491Y105949D01*
X248408Y105967D01*
X248326Y105988D01*
X248245Y106013D01*
X248165Y106042D01*
X248087Y106074D01*
X248011Y106110D01*
X247936Y106150D01*
X247863Y106193D01*
X247792Y106239D01*
X247723Y106288D01*
X247656Y106341D01*
X247592Y106397D01*
X247531Y106455D01*
X247473Y106516D01*
X247417Y106580D01*
X247364Y106647D01*
X247315Y106716D01*
X247269Y106787D01*
X247226Y106860D01*
X247186Y106935D01*
X247150Y107011D01*
X247118Y107089D01*
X247089Y107169D01*
X247064Y107250D01*
X247043Y107332D01*
X247025Y107415D01*
X247012Y107499D01*
X247002Y107583D01*
X246996Y107667D01*
X246994Y107752D01*
X246996Y107837D01*
X247002Y107921D01*
X247012Y108005D01*
X247025Y108089D01*
X247043Y108172D01*
X247064Y108254D01*
X247089Y108335D01*
X247118Y108415D01*
X247150Y108493D01*
X247186Y108569D01*
X247226Y108644D01*
X247269Y108717D01*
X247315Y108788D01*
X247364Y108857D01*
X247417Y108924D01*
X247473Y108988D01*
X247531Y109049D01*
X247592Y109107D01*
X247656Y109163D01*
X247723Y109216D01*
X247792Y109265D01*
X247863Y109311D01*
X247936Y109354D01*
X248011Y109394D01*
X248087Y109430D01*
X248165Y109462D01*
X248245Y109491D01*
X248326Y109516D01*
X248408Y109537D01*
X248491Y109555D01*
X248575Y109568D01*
X248659Y109578D01*
X248743Y109584D01*
X248828Y109586D01*
X248461Y112522D02*
X250663Y112522D01*
X248461Y112522D02*
X248385Y112520D01*
X248310Y112514D01*
X248235Y112505D01*
X248161Y112491D01*
X248087Y112474D01*
X248015Y112452D01*
X247943Y112428D01*
X247873Y112399D01*
X247805Y112367D01*
X247738Y112332D01*
X247673Y112293D01*
X247610Y112250D01*
X247550Y112205D01*
X247492Y112157D01*
X247436Y112105D01*
X247384Y112051D01*
X247334Y111994D01*
X247287Y111935D01*
X247243Y111874D01*
X247202Y111810D01*
X247165Y111744D01*
X247131Y111676D01*
X247101Y111607D01*
X247074Y111536D01*
X247051Y111464D01*
X247032Y111391D01*
X247017Y111317D01*
X247005Y111242D01*
X246997Y111167D01*
X246993Y111092D01*
X246993Y111016D01*
X246997Y110941D01*
X247005Y110866D01*
X247017Y110791D01*
X247032Y110717D01*
X247051Y110644D01*
X247074Y110572D01*
X247101Y110501D01*
X247131Y110432D01*
X247165Y110364D01*
X247202Y110298D01*
X247243Y110234D01*
X247287Y110173D01*
X247334Y110114D01*
X247384Y110057D01*
X247436Y110003D01*
X247492Y109951D01*
X247550Y109903D01*
X247610Y109858D01*
X247673Y109815D01*
X247738Y109776D01*
X247805Y109741D01*
X247873Y109709D01*
X247943Y109680D01*
X248015Y109656D01*
X248087Y109634D01*
X248161Y109617D01*
X248235Y109603D01*
X248310Y109594D01*
X248385Y109588D01*
X248461Y109586D01*
X248461Y109587D02*
X249929Y109587D01*
D15*
X164719Y60960D02*
X154559Y60960D01*
D11*
X159131Y83510D02*
X159131Y84977D01*
X159131Y83510D02*
X159133Y83436D01*
X159139Y83361D01*
X159148Y83288D01*
X159161Y83214D01*
X159178Y83142D01*
X159198Y83071D01*
X159222Y83000D01*
X159250Y82931D01*
X159281Y82864D01*
X159315Y82798D01*
X159353Y82733D01*
X159394Y82671D01*
X159438Y82611D01*
X159485Y82554D01*
X159535Y82499D01*
X159588Y82446D01*
X159643Y82396D01*
X159700Y82349D01*
X159760Y82305D01*
X159822Y82264D01*
X159887Y82226D01*
X159953Y82192D01*
X160020Y82161D01*
X160089Y82133D01*
X160160Y82109D01*
X160231Y82089D01*
X160303Y82072D01*
X160377Y82059D01*
X160450Y82050D01*
X160525Y82044D01*
X160599Y82042D01*
X164267Y82042D01*
X164341Y82044D01*
X164416Y82050D01*
X164489Y82059D01*
X164563Y82072D01*
X164635Y82089D01*
X164706Y82109D01*
X164777Y82133D01*
X164846Y82161D01*
X164913Y82192D01*
X164979Y82226D01*
X165044Y82264D01*
X165106Y82305D01*
X165166Y82349D01*
X165223Y82396D01*
X165278Y82446D01*
X165331Y82499D01*
X165381Y82554D01*
X165428Y82611D01*
X165472Y82671D01*
X165513Y82733D01*
X165551Y82798D01*
X165585Y82863D01*
X165616Y82931D01*
X165644Y83000D01*
X165668Y83071D01*
X165688Y83142D01*
X165705Y83214D01*
X165718Y83288D01*
X165727Y83361D01*
X165733Y83436D01*
X165735Y83510D01*
X165735Y84977D01*
X159131Y88174D02*
X159131Y90375D01*
X159133Y90449D01*
X159139Y90524D01*
X159148Y90597D01*
X159161Y90671D01*
X159178Y90743D01*
X159198Y90814D01*
X159222Y90885D01*
X159250Y90954D01*
X159281Y91021D01*
X159315Y91087D01*
X159353Y91152D01*
X159394Y91214D01*
X159438Y91274D01*
X159485Y91331D01*
X159535Y91386D01*
X159588Y91439D01*
X159643Y91489D01*
X159700Y91536D01*
X159760Y91580D01*
X159822Y91621D01*
X159887Y91659D01*
X159952Y91693D01*
X160020Y91724D01*
X160089Y91752D01*
X160160Y91776D01*
X160231Y91796D01*
X160303Y91813D01*
X160377Y91826D01*
X160450Y91835D01*
X160525Y91841D01*
X160599Y91843D01*
X160599Y91842D02*
X161332Y91842D01*
X161332Y91843D02*
X161406Y91841D01*
X161481Y91835D01*
X161554Y91826D01*
X161628Y91813D01*
X161700Y91796D01*
X161771Y91776D01*
X161842Y91752D01*
X161911Y91724D01*
X161978Y91693D01*
X162044Y91659D01*
X162109Y91621D01*
X162171Y91580D01*
X162231Y91536D01*
X162288Y91489D01*
X162343Y91439D01*
X162396Y91386D01*
X162446Y91331D01*
X162493Y91274D01*
X162537Y91214D01*
X162578Y91152D01*
X162616Y91087D01*
X162650Y91021D01*
X162681Y90954D01*
X162709Y90885D01*
X162733Y90814D01*
X162753Y90743D01*
X162770Y90671D01*
X162783Y90597D01*
X162792Y90524D01*
X162798Y90449D01*
X162800Y90375D01*
X162800Y88174D01*
X165735Y88174D01*
X165735Y91842D01*
X159131Y84977D02*
X159131Y83510D01*
X159133Y83436D01*
X159139Y83361D01*
X159148Y83288D01*
X159161Y83214D01*
X159178Y83142D01*
X159198Y83071D01*
X159222Y83000D01*
X159250Y82931D01*
X159281Y82864D01*
X159315Y82798D01*
X159353Y82733D01*
X159394Y82671D01*
X159438Y82611D01*
X159485Y82554D01*
X159535Y82499D01*
X159588Y82446D01*
X159643Y82396D01*
X159700Y82349D01*
X159760Y82305D01*
X159822Y82264D01*
X159887Y82226D01*
X159953Y82192D01*
X160020Y82161D01*
X160089Y82133D01*
X160160Y82109D01*
X160231Y82089D01*
X160303Y82072D01*
X160377Y82059D01*
X160450Y82050D01*
X160525Y82044D01*
X160599Y82042D01*
X164267Y82042D01*
X164341Y82044D01*
X164416Y82050D01*
X164489Y82059D01*
X164563Y82072D01*
X164635Y82089D01*
X164706Y82109D01*
X164777Y82133D01*
X164846Y82161D01*
X164913Y82192D01*
X164979Y82226D01*
X165044Y82264D01*
X165106Y82305D01*
X165166Y82349D01*
X165223Y82396D01*
X165278Y82446D01*
X165331Y82499D01*
X165381Y82554D01*
X165428Y82611D01*
X165472Y82671D01*
X165513Y82733D01*
X165551Y82798D01*
X165585Y82863D01*
X165616Y82931D01*
X165644Y83000D01*
X165668Y83071D01*
X165688Y83142D01*
X165705Y83214D01*
X165718Y83288D01*
X165727Y83361D01*
X165733Y83436D01*
X165735Y83510D01*
X165735Y84977D01*
X159131Y88174D02*
X159131Y90375D01*
X159133Y90449D01*
X159139Y90524D01*
X159148Y90597D01*
X159161Y90671D01*
X159178Y90743D01*
X159198Y90814D01*
X159222Y90885D01*
X159250Y90954D01*
X159281Y91021D01*
X159315Y91087D01*
X159353Y91152D01*
X159394Y91214D01*
X159438Y91274D01*
X159485Y91331D01*
X159535Y91386D01*
X159588Y91439D01*
X159643Y91489D01*
X159700Y91536D01*
X159760Y91580D01*
X159822Y91621D01*
X159887Y91659D01*
X159952Y91693D01*
X160020Y91724D01*
X160089Y91752D01*
X160160Y91776D01*
X160231Y91796D01*
X160303Y91813D01*
X160377Y91826D01*
X160450Y91835D01*
X160525Y91841D01*
X160599Y91843D01*
X160599Y91842D02*
X161332Y91842D01*
X161332Y91843D02*
X161406Y91841D01*
X161481Y91835D01*
X161554Y91826D01*
X161628Y91813D01*
X161700Y91796D01*
X161771Y91776D01*
X161842Y91752D01*
X161911Y91724D01*
X161978Y91693D01*
X162044Y91659D01*
X162109Y91621D01*
X162171Y91580D01*
X162231Y91536D01*
X162288Y91489D01*
X162343Y91439D01*
X162396Y91386D01*
X162446Y91331D01*
X162493Y91274D01*
X162537Y91214D01*
X162578Y91152D01*
X162616Y91087D01*
X162650Y91021D01*
X162681Y90954D01*
X162709Y90885D01*
X162733Y90814D01*
X162753Y90743D01*
X162770Y90671D01*
X162783Y90597D01*
X162792Y90524D01*
X162798Y90449D01*
X162800Y90375D01*
X162800Y88174D01*
X165735Y88174D01*
X165735Y91842D01*
D15*
X131826Y115697D02*
X121666Y115697D01*
D11*
X120650Y87750D02*
X120650Y86282D01*
X120652Y86208D01*
X120658Y86133D01*
X120667Y86060D01*
X120680Y85986D01*
X120697Y85914D01*
X120717Y85843D01*
X120741Y85772D01*
X120769Y85703D01*
X120800Y85636D01*
X120834Y85570D01*
X120872Y85505D01*
X120913Y85443D01*
X120957Y85383D01*
X121004Y85326D01*
X121054Y85271D01*
X121107Y85218D01*
X121162Y85168D01*
X121219Y85121D01*
X121279Y85077D01*
X121341Y85036D01*
X121406Y84998D01*
X121472Y84964D01*
X121539Y84933D01*
X121608Y84905D01*
X121679Y84881D01*
X121750Y84861D01*
X121822Y84844D01*
X121896Y84831D01*
X121969Y84822D01*
X122044Y84816D01*
X122118Y84814D01*
X122118Y84815D02*
X125786Y84815D01*
X125786Y84814D02*
X125860Y84816D01*
X125935Y84822D01*
X126008Y84831D01*
X126082Y84844D01*
X126154Y84861D01*
X126225Y84881D01*
X126296Y84905D01*
X126365Y84933D01*
X126432Y84964D01*
X126498Y84998D01*
X126563Y85036D01*
X126625Y85077D01*
X126685Y85121D01*
X126742Y85168D01*
X126797Y85218D01*
X126850Y85271D01*
X126900Y85326D01*
X126947Y85383D01*
X126991Y85443D01*
X127032Y85505D01*
X127070Y85570D01*
X127104Y85635D01*
X127135Y85703D01*
X127163Y85772D01*
X127187Y85843D01*
X127207Y85914D01*
X127224Y85986D01*
X127237Y86060D01*
X127246Y86133D01*
X127252Y86208D01*
X127254Y86282D01*
X127254Y87750D01*
X127254Y90946D02*
X126520Y90946D01*
X127254Y90946D02*
X127254Y94615D01*
X120650Y92781D01*
X120650Y87750D02*
X120650Y86282D01*
X120652Y86208D01*
X120658Y86133D01*
X120667Y86060D01*
X120680Y85986D01*
X120697Y85914D01*
X120717Y85843D01*
X120741Y85772D01*
X120769Y85703D01*
X120800Y85636D01*
X120834Y85570D01*
X120872Y85505D01*
X120913Y85443D01*
X120957Y85383D01*
X121004Y85326D01*
X121054Y85271D01*
X121107Y85218D01*
X121162Y85168D01*
X121219Y85121D01*
X121279Y85077D01*
X121341Y85036D01*
X121406Y84998D01*
X121472Y84964D01*
X121539Y84933D01*
X121608Y84905D01*
X121679Y84881D01*
X121750Y84861D01*
X121822Y84844D01*
X121896Y84831D01*
X121969Y84822D01*
X122044Y84816D01*
X122118Y84814D01*
X122118Y84815D02*
X125786Y84815D01*
X125786Y84814D02*
X125860Y84816D01*
X125935Y84822D01*
X126008Y84831D01*
X126082Y84844D01*
X126154Y84861D01*
X126225Y84881D01*
X126296Y84905D01*
X126365Y84933D01*
X126432Y84964D01*
X126498Y84998D01*
X126563Y85036D01*
X126625Y85077D01*
X126685Y85121D01*
X126742Y85168D01*
X126797Y85218D01*
X126850Y85271D01*
X126900Y85326D01*
X126947Y85383D01*
X126991Y85443D01*
X127032Y85505D01*
X127070Y85570D01*
X127104Y85635D01*
X127135Y85703D01*
X127163Y85772D01*
X127187Y85843D01*
X127207Y85914D01*
X127224Y85986D01*
X127237Y86060D01*
X127246Y86133D01*
X127252Y86208D01*
X127254Y86282D01*
X127254Y87750D01*
X127254Y90946D02*
X126520Y90946D01*
X127254Y90946D02*
X127254Y94615D01*
X120650Y92781D01*
D15*
X135763Y61214D02*
X145923Y61214D01*
D11*
X140335Y83764D02*
X140335Y85231D01*
X140335Y83764D02*
X140337Y83690D01*
X140343Y83615D01*
X140352Y83542D01*
X140365Y83468D01*
X140382Y83396D01*
X140402Y83325D01*
X140426Y83254D01*
X140454Y83185D01*
X140485Y83118D01*
X140519Y83052D01*
X140557Y82987D01*
X140598Y82925D01*
X140642Y82865D01*
X140689Y82808D01*
X140739Y82753D01*
X140792Y82700D01*
X140847Y82650D01*
X140904Y82603D01*
X140964Y82559D01*
X141026Y82518D01*
X141091Y82480D01*
X141157Y82446D01*
X141224Y82415D01*
X141293Y82387D01*
X141364Y82363D01*
X141435Y82343D01*
X141507Y82326D01*
X141581Y82313D01*
X141654Y82304D01*
X141729Y82298D01*
X141803Y82296D01*
X145471Y82296D01*
X145545Y82298D01*
X145620Y82304D01*
X145693Y82313D01*
X145767Y82326D01*
X145839Y82343D01*
X145910Y82363D01*
X145981Y82387D01*
X146050Y82415D01*
X146117Y82446D01*
X146183Y82480D01*
X146248Y82518D01*
X146310Y82559D01*
X146370Y82603D01*
X146427Y82650D01*
X146482Y82700D01*
X146535Y82753D01*
X146585Y82808D01*
X146632Y82865D01*
X146676Y82925D01*
X146717Y82987D01*
X146755Y83052D01*
X146789Y83117D01*
X146820Y83185D01*
X146848Y83254D01*
X146872Y83325D01*
X146892Y83396D01*
X146909Y83468D01*
X146922Y83542D01*
X146931Y83615D01*
X146937Y83690D01*
X146939Y83764D01*
X146939Y85231D01*
X142169Y88428D02*
X142254Y88430D01*
X142338Y88436D01*
X142422Y88446D01*
X142506Y88459D01*
X142589Y88477D01*
X142671Y88498D01*
X142752Y88523D01*
X142832Y88552D01*
X142910Y88584D01*
X142986Y88620D01*
X143061Y88660D01*
X143134Y88703D01*
X143205Y88749D01*
X143274Y88798D01*
X143341Y88851D01*
X143405Y88907D01*
X143466Y88965D01*
X143524Y89026D01*
X143580Y89090D01*
X143633Y89157D01*
X143682Y89226D01*
X143728Y89297D01*
X143771Y89370D01*
X143811Y89445D01*
X143847Y89521D01*
X143879Y89599D01*
X143908Y89679D01*
X143933Y89760D01*
X143954Y89842D01*
X143972Y89925D01*
X143985Y90009D01*
X143995Y90093D01*
X144001Y90177D01*
X144003Y90262D01*
X144001Y90347D01*
X143995Y90431D01*
X143985Y90515D01*
X143972Y90599D01*
X143954Y90682D01*
X143933Y90764D01*
X143908Y90845D01*
X143879Y90925D01*
X143847Y91003D01*
X143811Y91079D01*
X143771Y91154D01*
X143728Y91227D01*
X143682Y91298D01*
X143633Y91367D01*
X143580Y91434D01*
X143524Y91498D01*
X143466Y91559D01*
X143405Y91617D01*
X143341Y91673D01*
X143274Y91726D01*
X143205Y91775D01*
X143134Y91821D01*
X143061Y91864D01*
X142986Y91904D01*
X142910Y91940D01*
X142832Y91972D01*
X142752Y92001D01*
X142671Y92026D01*
X142589Y92047D01*
X142506Y92065D01*
X142422Y92078D01*
X142338Y92088D01*
X142254Y92094D01*
X142169Y92096D01*
X142084Y92094D01*
X142000Y92088D01*
X141916Y92078D01*
X141832Y92065D01*
X141749Y92047D01*
X141667Y92026D01*
X141586Y92001D01*
X141506Y91972D01*
X141428Y91940D01*
X141352Y91904D01*
X141277Y91864D01*
X141204Y91821D01*
X141133Y91775D01*
X141064Y91726D01*
X140997Y91673D01*
X140933Y91617D01*
X140872Y91559D01*
X140814Y91498D01*
X140758Y91434D01*
X140705Y91367D01*
X140656Y91298D01*
X140610Y91227D01*
X140567Y91154D01*
X140527Y91079D01*
X140491Y91003D01*
X140459Y90925D01*
X140430Y90845D01*
X140405Y90764D01*
X140384Y90682D01*
X140366Y90599D01*
X140353Y90515D01*
X140343Y90431D01*
X140337Y90347D01*
X140335Y90262D01*
X140337Y90177D01*
X140343Y90093D01*
X140353Y90009D01*
X140366Y89925D01*
X140384Y89842D01*
X140405Y89760D01*
X140430Y89679D01*
X140459Y89599D01*
X140491Y89521D01*
X140527Y89445D01*
X140567Y89370D01*
X140610Y89297D01*
X140656Y89226D01*
X140705Y89157D01*
X140758Y89090D01*
X140814Y89026D01*
X140872Y88965D01*
X140933Y88907D01*
X140997Y88851D01*
X141064Y88798D01*
X141133Y88749D01*
X141204Y88703D01*
X141277Y88660D01*
X141352Y88620D01*
X141428Y88584D01*
X141506Y88552D01*
X141586Y88523D01*
X141667Y88498D01*
X141749Y88477D01*
X141832Y88459D01*
X141916Y88446D01*
X142000Y88436D01*
X142084Y88430D01*
X142169Y88428D01*
X145471Y88794D02*
X145547Y88796D01*
X145622Y88802D01*
X145697Y88811D01*
X145771Y88825D01*
X145845Y88842D01*
X145917Y88864D01*
X145989Y88888D01*
X146059Y88917D01*
X146127Y88949D01*
X146194Y88984D01*
X146259Y89023D01*
X146322Y89066D01*
X146382Y89111D01*
X146440Y89159D01*
X146496Y89211D01*
X146548Y89265D01*
X146598Y89322D01*
X146645Y89381D01*
X146689Y89442D01*
X146730Y89506D01*
X146767Y89572D01*
X146801Y89640D01*
X146831Y89709D01*
X146858Y89780D01*
X146881Y89852D01*
X146900Y89925D01*
X146915Y89999D01*
X146927Y90074D01*
X146935Y90149D01*
X146939Y90224D01*
X146939Y90300D01*
X146935Y90375D01*
X146927Y90450D01*
X146915Y90525D01*
X146900Y90599D01*
X146881Y90672D01*
X146858Y90744D01*
X146831Y90815D01*
X146801Y90884D01*
X146767Y90952D01*
X146730Y91018D01*
X146689Y91082D01*
X146645Y91143D01*
X146598Y91202D01*
X146548Y91259D01*
X146496Y91313D01*
X146440Y91365D01*
X146382Y91413D01*
X146322Y91458D01*
X146259Y91501D01*
X146194Y91540D01*
X146127Y91575D01*
X146059Y91607D01*
X145989Y91636D01*
X145917Y91660D01*
X145845Y91682D01*
X145771Y91699D01*
X145697Y91713D01*
X145622Y91722D01*
X145547Y91728D01*
X145471Y91730D01*
X145395Y91728D01*
X145320Y91722D01*
X145245Y91713D01*
X145171Y91699D01*
X145097Y91682D01*
X145025Y91660D01*
X144953Y91636D01*
X144883Y91607D01*
X144815Y91575D01*
X144748Y91540D01*
X144683Y91501D01*
X144620Y91458D01*
X144560Y91413D01*
X144502Y91365D01*
X144446Y91313D01*
X144394Y91259D01*
X144344Y91202D01*
X144297Y91143D01*
X144253Y91082D01*
X144212Y91018D01*
X144175Y90952D01*
X144141Y90884D01*
X144111Y90815D01*
X144084Y90744D01*
X144061Y90672D01*
X144042Y90599D01*
X144027Y90525D01*
X144015Y90450D01*
X144007Y90375D01*
X144003Y90300D01*
X144003Y90224D01*
X144007Y90149D01*
X144015Y90074D01*
X144027Y89999D01*
X144042Y89925D01*
X144061Y89852D01*
X144084Y89780D01*
X144111Y89709D01*
X144141Y89640D01*
X144175Y89572D01*
X144212Y89506D01*
X144253Y89442D01*
X144297Y89381D01*
X144344Y89322D01*
X144394Y89265D01*
X144446Y89211D01*
X144502Y89159D01*
X144560Y89111D01*
X144620Y89066D01*
X144683Y89023D01*
X144748Y88984D01*
X144815Y88949D01*
X144883Y88917D01*
X144953Y88888D01*
X145025Y88864D01*
X145097Y88842D01*
X145171Y88825D01*
X145245Y88811D01*
X145320Y88802D01*
X145395Y88796D01*
X145471Y88794D01*
X140335Y85231D02*
X140335Y83764D01*
X140337Y83690D01*
X140343Y83615D01*
X140352Y83542D01*
X140365Y83468D01*
X140382Y83396D01*
X140402Y83325D01*
X140426Y83254D01*
X140454Y83185D01*
X140485Y83118D01*
X140519Y83052D01*
X140557Y82987D01*
X140598Y82925D01*
X140642Y82865D01*
X140689Y82808D01*
X140739Y82753D01*
X140792Y82700D01*
X140847Y82650D01*
X140904Y82603D01*
X140964Y82559D01*
X141026Y82518D01*
X141091Y82480D01*
X141157Y82446D01*
X141224Y82415D01*
X141293Y82387D01*
X141364Y82363D01*
X141435Y82343D01*
X141507Y82326D01*
X141581Y82313D01*
X141654Y82304D01*
X141729Y82298D01*
X141803Y82296D01*
X145471Y82296D01*
X145545Y82298D01*
X145620Y82304D01*
X145693Y82313D01*
X145767Y82326D01*
X145839Y82343D01*
X145910Y82363D01*
X145981Y82387D01*
X146050Y82415D01*
X146117Y82446D01*
X146183Y82480D01*
X146248Y82518D01*
X146310Y82559D01*
X146370Y82603D01*
X146427Y82650D01*
X146482Y82700D01*
X146535Y82753D01*
X146585Y82808D01*
X146632Y82865D01*
X146676Y82925D01*
X146717Y82987D01*
X146755Y83052D01*
X146789Y83117D01*
X146820Y83185D01*
X146848Y83254D01*
X146872Y83325D01*
X146892Y83396D01*
X146909Y83468D01*
X146922Y83542D01*
X146931Y83615D01*
X146937Y83690D01*
X146939Y83764D01*
X146939Y85231D01*
X142169Y88428D02*
X142254Y88430D01*
X142338Y88436D01*
X142422Y88446D01*
X142506Y88459D01*
X142589Y88477D01*
X142671Y88498D01*
X142752Y88523D01*
X142832Y88552D01*
X142910Y88584D01*
X142986Y88620D01*
X143061Y88660D01*
X143134Y88703D01*
X143205Y88749D01*
X143274Y88798D01*
X143341Y88851D01*
X143405Y88907D01*
X143466Y88965D01*
X143524Y89026D01*
X143580Y89090D01*
X143633Y89157D01*
X143682Y89226D01*
X143728Y89297D01*
X143771Y89370D01*
X143811Y89445D01*
X143847Y89521D01*
X143879Y89599D01*
X143908Y89679D01*
X143933Y89760D01*
X143954Y89842D01*
X143972Y89925D01*
X143985Y90009D01*
X143995Y90093D01*
X144001Y90177D01*
X144003Y90262D01*
X144001Y90347D01*
X143995Y90431D01*
X143985Y90515D01*
X143972Y90599D01*
X143954Y90682D01*
X143933Y90764D01*
X143908Y90845D01*
X143879Y90925D01*
X143847Y91003D01*
X143811Y91079D01*
X143771Y91154D01*
X143728Y91227D01*
X143682Y91298D01*
X143633Y91367D01*
X143580Y91434D01*
X143524Y91498D01*
X143466Y91559D01*
X143405Y91617D01*
X143341Y91673D01*
X143274Y91726D01*
X143205Y91775D01*
X143134Y91821D01*
X143061Y91864D01*
X142986Y91904D01*
X142910Y91940D01*
X142832Y91972D01*
X142752Y92001D01*
X142671Y92026D01*
X142589Y92047D01*
X142506Y92065D01*
X142422Y92078D01*
X142338Y92088D01*
X142254Y92094D01*
X142169Y92096D01*
X142084Y92094D01*
X142000Y92088D01*
X141916Y92078D01*
X141832Y92065D01*
X141749Y92047D01*
X141667Y92026D01*
X141586Y92001D01*
X141506Y91972D01*
X141428Y91940D01*
X141352Y91904D01*
X141277Y91864D01*
X141204Y91821D01*
X141133Y91775D01*
X141064Y91726D01*
X140997Y91673D01*
X140933Y91617D01*
X140872Y91559D01*
X140814Y91498D01*
X140758Y91434D01*
X140705Y91367D01*
X140656Y91298D01*
X140610Y91227D01*
X140567Y91154D01*
X140527Y91079D01*
X140491Y91003D01*
X140459Y90925D01*
X140430Y90845D01*
X140405Y90764D01*
X140384Y90682D01*
X140366Y90599D01*
X140353Y90515D01*
X140343Y90431D01*
X140337Y90347D01*
X140335Y90262D01*
X140337Y90177D01*
X140343Y90093D01*
X140353Y90009D01*
X140366Y89925D01*
X140384Y89842D01*
X140405Y89760D01*
X140430Y89679D01*
X140459Y89599D01*
X140491Y89521D01*
X140527Y89445D01*
X140567Y89370D01*
X140610Y89297D01*
X140656Y89226D01*
X140705Y89157D01*
X140758Y89090D01*
X140814Y89026D01*
X140872Y88965D01*
X140933Y88907D01*
X140997Y88851D01*
X141064Y88798D01*
X141133Y88749D01*
X141204Y88703D01*
X141277Y88660D01*
X141352Y88620D01*
X141428Y88584D01*
X141506Y88552D01*
X141586Y88523D01*
X141667Y88498D01*
X141749Y88477D01*
X141832Y88459D01*
X141916Y88446D01*
X142000Y88436D01*
X142084Y88430D01*
X142169Y88428D01*
X145471Y88794D02*
X145547Y88796D01*
X145622Y88802D01*
X145697Y88811D01*
X145771Y88825D01*
X145845Y88842D01*
X145917Y88864D01*
X145989Y88888D01*
X146059Y88917D01*
X146127Y88949D01*
X146194Y88984D01*
X146259Y89023D01*
X146322Y89066D01*
X146382Y89111D01*
X146440Y89159D01*
X146496Y89211D01*
X146548Y89265D01*
X146598Y89322D01*
X146645Y89381D01*
X146689Y89442D01*
X146730Y89506D01*
X146767Y89572D01*
X146801Y89640D01*
X146831Y89709D01*
X146858Y89780D01*
X146881Y89852D01*
X146900Y89925D01*
X146915Y89999D01*
X146927Y90074D01*
X146935Y90149D01*
X146939Y90224D01*
X146939Y90300D01*
X146935Y90375D01*
X146927Y90450D01*
X146915Y90525D01*
X146900Y90599D01*
X146881Y90672D01*
X146858Y90744D01*
X146831Y90815D01*
X146801Y90884D01*
X146767Y90952D01*
X146730Y91018D01*
X146689Y91082D01*
X146645Y91143D01*
X146598Y91202D01*
X146548Y91259D01*
X146496Y91313D01*
X146440Y91365D01*
X146382Y91413D01*
X146322Y91458D01*
X146259Y91501D01*
X146194Y91540D01*
X146127Y91575D01*
X146059Y91607D01*
X145989Y91636D01*
X145917Y91660D01*
X145845Y91682D01*
X145771Y91699D01*
X145697Y91713D01*
X145622Y91722D01*
X145547Y91728D01*
X145471Y91730D01*
X145395Y91728D01*
X145320Y91722D01*
X145245Y91713D01*
X145171Y91699D01*
X145097Y91682D01*
X145025Y91660D01*
X144953Y91636D01*
X144883Y91607D01*
X144815Y91575D01*
X144748Y91540D01*
X144683Y91501D01*
X144620Y91458D01*
X144560Y91413D01*
X144502Y91365D01*
X144446Y91313D01*
X144394Y91259D01*
X144344Y91202D01*
X144297Y91143D01*
X144253Y91082D01*
X144212Y91018D01*
X144175Y90952D01*
X144141Y90884D01*
X144111Y90815D01*
X144084Y90744D01*
X144061Y90672D01*
X144042Y90599D01*
X144027Y90525D01*
X144015Y90450D01*
X144007Y90375D01*
X144003Y90300D01*
X144003Y90224D01*
X144007Y90149D01*
X144015Y90074D01*
X144027Y89999D01*
X144042Y89925D01*
X144061Y89852D01*
X144084Y89780D01*
X144111Y89709D01*
X144141Y89640D01*
X144175Y89572D01*
X144212Y89506D01*
X144253Y89442D01*
X144297Y89381D01*
X144344Y89322D01*
X144394Y89265D01*
X144446Y89211D01*
X144502Y89159D01*
X144560Y89111D01*
X144620Y89066D01*
X144683Y89023D01*
X144748Y88984D01*
X144815Y88949D01*
X144883Y88917D01*
X144953Y88888D01*
X145025Y88864D01*
X145097Y88842D01*
X145171Y88825D01*
X145245Y88811D01*
X145320Y88802D01*
X145395Y88796D01*
X145471Y88794D01*
D16*
X291100Y55324D02*
X291102Y55225D01*
X291108Y55125D01*
X291117Y55026D01*
X291130Y54928D01*
X291147Y54830D01*
X291168Y54732D01*
X291193Y54636D01*
X291221Y54541D01*
X291253Y54447D01*
X291288Y54354D01*
X291327Y54262D01*
X291370Y54172D01*
X291415Y54084D01*
X291465Y53997D01*
X291517Y53913D01*
X291573Y53830D01*
X291631Y53750D01*
X291693Y53672D01*
X291758Y53597D01*
X291826Y53524D01*
X291896Y53454D01*
X291969Y53386D01*
X292044Y53321D01*
X292122Y53259D01*
X292202Y53201D01*
X292285Y53145D01*
X292369Y53093D01*
X292456Y53043D01*
X292544Y52998D01*
X292634Y52955D01*
X292726Y52916D01*
X292819Y52881D01*
X292913Y52849D01*
X293008Y52821D01*
X293104Y52796D01*
X293202Y52775D01*
X293300Y52758D01*
X293398Y52745D01*
X293497Y52736D01*
X293597Y52730D01*
X293696Y52728D01*
X293840Y52730D01*
X293985Y52736D01*
X294129Y52745D01*
X294272Y52758D01*
X294416Y52775D01*
X294559Y52796D01*
X294701Y52821D01*
X294842Y52849D01*
X294983Y52881D01*
X295123Y52917D01*
X295262Y52956D01*
X295400Y52999D01*
X295536Y53046D01*
X295672Y53096D01*
X295806Y53150D01*
X295938Y53207D01*
X296069Y53268D01*
X296198Y53332D01*
X296326Y53400D01*
X296452Y53471D01*
X296576Y53545D01*
X296697Y53622D01*
X296817Y53703D01*
X296935Y53786D01*
X297050Y53873D01*
X297163Y53963D01*
X297274Y54056D01*
X297382Y54151D01*
X297488Y54250D01*
X297591Y54351D01*
X297266Y61816D02*
X297264Y61915D01*
X297258Y62015D01*
X297249Y62114D01*
X297236Y62212D01*
X297219Y62310D01*
X297198Y62408D01*
X297173Y62504D01*
X297145Y62599D01*
X297113Y62693D01*
X297078Y62786D01*
X297039Y62878D01*
X296996Y62968D01*
X296951Y63056D01*
X296901Y63143D01*
X296849Y63227D01*
X296793Y63310D01*
X296735Y63390D01*
X296673Y63468D01*
X296608Y63543D01*
X296540Y63616D01*
X296470Y63686D01*
X296397Y63754D01*
X296322Y63819D01*
X296244Y63881D01*
X296164Y63939D01*
X296081Y63995D01*
X295997Y64047D01*
X295910Y64097D01*
X295822Y64142D01*
X295732Y64185D01*
X295640Y64224D01*
X295547Y64259D01*
X295453Y64291D01*
X295358Y64319D01*
X295262Y64344D01*
X295164Y64365D01*
X295066Y64382D01*
X294968Y64395D01*
X294869Y64404D01*
X294769Y64410D01*
X294670Y64412D01*
X294534Y64410D01*
X294398Y64404D01*
X294262Y64395D01*
X294126Y64382D01*
X293991Y64364D01*
X293857Y64344D01*
X293723Y64319D01*
X293589Y64291D01*
X293457Y64258D01*
X293326Y64223D01*
X293195Y64183D01*
X293066Y64140D01*
X292938Y64094D01*
X292812Y64043D01*
X292686Y63990D01*
X292563Y63932D01*
X292441Y63872D01*
X292321Y63808D01*
X292202Y63740D01*
X292086Y63670D01*
X291972Y63596D01*
X291859Y63519D01*
X291749Y63438D01*
X295968Y59544D02*
X296054Y59597D01*
X296138Y59654D01*
X296220Y59713D01*
X296300Y59776D01*
X296377Y59842D01*
X296452Y59910D01*
X296524Y59982D01*
X296593Y60056D01*
X296659Y60133D01*
X296722Y60212D01*
X296782Y60294D01*
X296839Y60378D01*
X296893Y60464D01*
X296943Y60552D01*
X296990Y60642D01*
X297034Y60733D01*
X297073Y60827D01*
X297110Y60921D01*
X297142Y61017D01*
X297171Y61115D01*
X297196Y61213D01*
X297217Y61312D01*
X297235Y61412D01*
X297248Y61512D01*
X297258Y61613D01*
X297264Y61715D01*
X297266Y61816D01*
X292398Y57596D02*
X292312Y57543D01*
X292228Y57486D01*
X292146Y57427D01*
X292066Y57364D01*
X291989Y57298D01*
X291914Y57230D01*
X291842Y57158D01*
X291773Y57084D01*
X291707Y57007D01*
X291644Y56928D01*
X291584Y56846D01*
X291527Y56762D01*
X291473Y56676D01*
X291423Y56588D01*
X291376Y56498D01*
X291332Y56407D01*
X291293Y56313D01*
X291256Y56219D01*
X291224Y56123D01*
X291195Y56025D01*
X291170Y55927D01*
X291149Y55828D01*
X291131Y55728D01*
X291118Y55628D01*
X291108Y55527D01*
X291102Y55425D01*
X291100Y55324D01*
X292398Y57596D02*
X295968Y59544D01*
X286965Y64412D02*
X284369Y52728D01*
X281772Y60517D01*
X279176Y52728D01*
X276580Y64412D01*
X271683Y64412D02*
X271683Y52728D01*
X271683Y64412D02*
X268438Y64412D01*
X268325Y64410D01*
X268212Y64404D01*
X268099Y64394D01*
X267986Y64380D01*
X267874Y64363D01*
X267763Y64341D01*
X267653Y64316D01*
X267543Y64286D01*
X267435Y64253D01*
X267328Y64216D01*
X267222Y64176D01*
X267118Y64131D01*
X267015Y64083D01*
X266914Y64032D01*
X266815Y63977D01*
X266718Y63919D01*
X266623Y63857D01*
X266530Y63792D01*
X266440Y63724D01*
X266352Y63653D01*
X266266Y63578D01*
X266183Y63501D01*
X266103Y63421D01*
X266026Y63338D01*
X265951Y63252D01*
X265880Y63164D01*
X265812Y63074D01*
X265747Y62981D01*
X265685Y62886D01*
X265627Y62789D01*
X265572Y62690D01*
X265521Y62589D01*
X265473Y62486D01*
X265428Y62382D01*
X265388Y62276D01*
X265351Y62169D01*
X265318Y62061D01*
X265288Y61951D01*
X265263Y61841D01*
X265241Y61730D01*
X265224Y61618D01*
X265210Y61505D01*
X265200Y61392D01*
X265194Y61279D01*
X265192Y61166D01*
X265192Y55974D01*
X265194Y55861D01*
X265200Y55748D01*
X265210Y55635D01*
X265224Y55522D01*
X265241Y55410D01*
X265263Y55299D01*
X265288Y55189D01*
X265318Y55079D01*
X265351Y54971D01*
X265388Y54864D01*
X265428Y54758D01*
X265473Y54654D01*
X265521Y54551D01*
X265572Y54450D01*
X265627Y54351D01*
X265685Y54254D01*
X265747Y54159D01*
X265812Y54066D01*
X265880Y53976D01*
X265951Y53888D01*
X266026Y53802D01*
X266103Y53719D01*
X266183Y53639D01*
X266266Y53562D01*
X266352Y53487D01*
X266440Y53416D01*
X266530Y53348D01*
X266623Y53283D01*
X266718Y53221D01*
X266815Y53163D01*
X266914Y53108D01*
X267015Y53057D01*
X267118Y53009D01*
X267222Y52964D01*
X267328Y52924D01*
X267435Y52887D01*
X267543Y52854D01*
X267653Y52824D01*
X267763Y52799D01*
X267874Y52777D01*
X267986Y52760D01*
X268099Y52746D01*
X268212Y52736D01*
X268325Y52730D01*
X268438Y52728D01*
X271683Y52728D01*
X296324Y27015D02*
X296225Y27013D01*
X296125Y27007D01*
X296026Y26998D01*
X295928Y26985D01*
X295830Y26968D01*
X295732Y26947D01*
X295636Y26922D01*
X295541Y26894D01*
X295447Y26862D01*
X295354Y26827D01*
X295262Y26788D01*
X295172Y26745D01*
X295084Y26700D01*
X294997Y26650D01*
X294913Y26598D01*
X294830Y26542D01*
X294750Y26484D01*
X294672Y26422D01*
X294597Y26357D01*
X294524Y26289D01*
X294454Y26219D01*
X294386Y26146D01*
X294321Y26071D01*
X294259Y25993D01*
X294201Y25913D01*
X294145Y25830D01*
X294093Y25746D01*
X294043Y25659D01*
X293998Y25571D01*
X293955Y25481D01*
X293916Y25389D01*
X293881Y25296D01*
X293849Y25202D01*
X293821Y25107D01*
X293796Y25011D01*
X293775Y24913D01*
X293758Y24815D01*
X293745Y24717D01*
X293736Y24618D01*
X293730Y24518D01*
X293728Y24419D01*
X293730Y24275D01*
X293736Y24130D01*
X293745Y23986D01*
X293758Y23843D01*
X293775Y23699D01*
X293796Y23556D01*
X293821Y23414D01*
X293849Y23273D01*
X293881Y23132D01*
X293917Y22992D01*
X293956Y22853D01*
X293999Y22715D01*
X294046Y22579D01*
X294096Y22443D01*
X294150Y22309D01*
X294207Y22177D01*
X294268Y22046D01*
X294332Y21917D01*
X294400Y21789D01*
X294470Y21663D01*
X294545Y21539D01*
X294622Y21418D01*
X294703Y21298D01*
X294786Y21180D01*
X294873Y21065D01*
X294963Y20952D01*
X295056Y20841D01*
X295151Y20733D01*
X295250Y20627D01*
X295351Y20524D01*
X302816Y20849D02*
X302915Y20851D01*
X303015Y20857D01*
X303114Y20866D01*
X303212Y20879D01*
X303310Y20896D01*
X303408Y20917D01*
X303504Y20942D01*
X303599Y20970D01*
X303693Y21002D01*
X303786Y21037D01*
X303878Y21076D01*
X303968Y21119D01*
X304056Y21164D01*
X304143Y21214D01*
X304227Y21266D01*
X304310Y21322D01*
X304390Y21380D01*
X304468Y21442D01*
X304543Y21507D01*
X304616Y21575D01*
X304686Y21645D01*
X304754Y21718D01*
X304819Y21793D01*
X304881Y21871D01*
X304939Y21951D01*
X304995Y22034D01*
X305047Y22118D01*
X305097Y22205D01*
X305142Y22293D01*
X305185Y22383D01*
X305224Y22475D01*
X305259Y22568D01*
X305291Y22662D01*
X305319Y22757D01*
X305344Y22854D01*
X305365Y22951D01*
X305382Y23049D01*
X305395Y23147D01*
X305404Y23246D01*
X305410Y23346D01*
X305412Y23445D01*
X305410Y23581D01*
X305404Y23717D01*
X305395Y23853D01*
X305382Y23989D01*
X305364Y24124D01*
X305344Y24258D01*
X305319Y24392D01*
X305291Y24526D01*
X305258Y24658D01*
X305223Y24789D01*
X305183Y24920D01*
X305140Y25049D01*
X305094Y25177D01*
X305043Y25303D01*
X304990Y25429D01*
X304932Y25552D01*
X304872Y25674D01*
X304808Y25794D01*
X304740Y25913D01*
X304670Y26029D01*
X304596Y26143D01*
X304519Y26256D01*
X304438Y26366D01*
X300544Y22147D02*
X300597Y22061D01*
X300654Y21977D01*
X300713Y21895D01*
X300776Y21815D01*
X300842Y21738D01*
X300910Y21663D01*
X300982Y21591D01*
X301056Y21522D01*
X301133Y21456D01*
X301212Y21393D01*
X301294Y21333D01*
X301378Y21276D01*
X301464Y21222D01*
X301552Y21172D01*
X301642Y21125D01*
X301733Y21081D01*
X301827Y21042D01*
X301921Y21005D01*
X302017Y20973D01*
X302115Y20944D01*
X302213Y20919D01*
X302312Y20898D01*
X302412Y20880D01*
X302512Y20867D01*
X302613Y20857D01*
X302715Y20851D01*
X302816Y20849D01*
X298596Y25717D02*
X298543Y25803D01*
X298486Y25887D01*
X298427Y25969D01*
X298364Y26049D01*
X298298Y26126D01*
X298230Y26201D01*
X298158Y26273D01*
X298084Y26342D01*
X298007Y26408D01*
X297928Y26471D01*
X297846Y26531D01*
X297762Y26588D01*
X297676Y26642D01*
X297588Y26692D01*
X297498Y26739D01*
X297407Y26783D01*
X297313Y26822D01*
X297219Y26859D01*
X297123Y26891D01*
X297025Y26920D01*
X296927Y26945D01*
X296828Y26966D01*
X296728Y26984D01*
X296628Y26997D01*
X296527Y27007D01*
X296425Y27013D01*
X296324Y27015D01*
X298596Y25717D02*
X300544Y22147D01*
X305412Y31150D02*
X293728Y33746D01*
X301517Y36343D01*
X293728Y38939D01*
X305412Y41536D01*
X293728Y48615D02*
X293728Y51211D01*
X293728Y48615D02*
X293730Y48516D01*
X293736Y48416D01*
X293745Y48317D01*
X293758Y48219D01*
X293775Y48121D01*
X293796Y48023D01*
X293821Y47927D01*
X293849Y47832D01*
X293881Y47738D01*
X293916Y47645D01*
X293955Y47553D01*
X293998Y47463D01*
X294043Y47375D01*
X294093Y47288D01*
X294145Y47204D01*
X294201Y47121D01*
X294259Y47041D01*
X294321Y46963D01*
X294386Y46888D01*
X294454Y46815D01*
X294524Y46745D01*
X294597Y46677D01*
X294672Y46612D01*
X294750Y46550D01*
X294830Y46492D01*
X294913Y46436D01*
X294997Y46384D01*
X295084Y46334D01*
X295172Y46289D01*
X295262Y46246D01*
X295354Y46207D01*
X295447Y46172D01*
X295541Y46140D01*
X295636Y46112D01*
X295732Y46087D01*
X295830Y46066D01*
X295928Y46049D01*
X296026Y46036D01*
X296125Y46027D01*
X296225Y46021D01*
X296324Y46019D01*
X296324Y46018D02*
X302816Y46018D01*
X302816Y46019D02*
X302915Y46021D01*
X303015Y46027D01*
X303114Y46036D01*
X303212Y46049D01*
X303310Y46066D01*
X303408Y46087D01*
X303504Y46112D01*
X303599Y46140D01*
X303693Y46172D01*
X303786Y46207D01*
X303878Y46246D01*
X303968Y46289D01*
X304056Y46334D01*
X304143Y46384D01*
X304227Y46436D01*
X304310Y46492D01*
X304390Y46550D01*
X304468Y46612D01*
X304543Y46677D01*
X304616Y46745D01*
X304686Y46815D01*
X304754Y46888D01*
X304819Y46963D01*
X304881Y47041D01*
X304939Y47121D01*
X304995Y47204D01*
X305047Y47288D01*
X305097Y47375D01*
X305142Y47463D01*
X305185Y47553D01*
X305224Y47645D01*
X305259Y47737D01*
X305291Y47832D01*
X305319Y47927D01*
X305344Y48023D01*
X305365Y48121D01*
X305382Y48219D01*
X305395Y48317D01*
X305404Y48416D01*
X305410Y48516D01*
X305412Y48615D01*
X305412Y51211D01*
X54023Y88557D02*
X54023Y100241D01*
X50777Y100241D01*
X50664Y100239D01*
X50551Y100233D01*
X50438Y100223D01*
X50325Y100209D01*
X50213Y100192D01*
X50102Y100170D01*
X49992Y100145D01*
X49882Y100115D01*
X49774Y100082D01*
X49667Y100045D01*
X49561Y100005D01*
X49457Y99960D01*
X49354Y99912D01*
X49253Y99861D01*
X49154Y99806D01*
X49057Y99748D01*
X48962Y99686D01*
X48869Y99621D01*
X48779Y99553D01*
X48691Y99482D01*
X48605Y99407D01*
X48522Y99330D01*
X48442Y99250D01*
X48365Y99167D01*
X48290Y99081D01*
X48219Y98993D01*
X48151Y98903D01*
X48086Y98810D01*
X48024Y98715D01*
X47966Y98618D01*
X47911Y98519D01*
X47860Y98418D01*
X47812Y98315D01*
X47767Y98211D01*
X47727Y98105D01*
X47690Y97998D01*
X47657Y97890D01*
X47627Y97780D01*
X47602Y97670D01*
X47580Y97559D01*
X47563Y97447D01*
X47549Y97334D01*
X47539Y97221D01*
X47533Y97108D01*
X47531Y96995D01*
X47532Y96995D02*
X47532Y91803D01*
X47531Y91803D02*
X47533Y91690D01*
X47539Y91577D01*
X47549Y91464D01*
X47563Y91351D01*
X47580Y91239D01*
X47602Y91128D01*
X47627Y91018D01*
X47657Y90908D01*
X47690Y90800D01*
X47727Y90693D01*
X47767Y90587D01*
X47812Y90483D01*
X47860Y90380D01*
X47911Y90279D01*
X47966Y90180D01*
X48024Y90083D01*
X48086Y89988D01*
X48151Y89895D01*
X48219Y89805D01*
X48290Y89717D01*
X48365Y89631D01*
X48442Y89548D01*
X48522Y89468D01*
X48605Y89391D01*
X48691Y89316D01*
X48779Y89245D01*
X48869Y89177D01*
X48962Y89112D01*
X49057Y89050D01*
X49154Y88992D01*
X49253Y88937D01*
X49354Y88886D01*
X49457Y88838D01*
X49561Y88793D01*
X49667Y88753D01*
X49774Y88716D01*
X49882Y88683D01*
X49992Y88653D01*
X50102Y88628D01*
X50213Y88606D01*
X50325Y88589D01*
X50438Y88575D01*
X50551Y88565D01*
X50664Y88559D01*
X50777Y88557D01*
X54023Y88557D01*
X42099Y93101D02*
X34310Y93101D01*
X38204Y96995D02*
X38204Y89206D01*
X54023Y100622D02*
X54023Y112306D01*
X50777Y112306D01*
X50664Y112304D01*
X50551Y112298D01*
X50438Y112288D01*
X50325Y112274D01*
X50213Y112257D01*
X50102Y112235D01*
X49992Y112210D01*
X49882Y112180D01*
X49774Y112147D01*
X49667Y112110D01*
X49561Y112070D01*
X49457Y112025D01*
X49354Y111977D01*
X49253Y111926D01*
X49154Y111871D01*
X49057Y111813D01*
X48962Y111751D01*
X48869Y111686D01*
X48779Y111618D01*
X48691Y111547D01*
X48605Y111472D01*
X48522Y111395D01*
X48442Y111315D01*
X48365Y111232D01*
X48290Y111146D01*
X48219Y111058D01*
X48151Y110968D01*
X48086Y110875D01*
X48024Y110780D01*
X47966Y110683D01*
X47911Y110584D01*
X47860Y110483D01*
X47812Y110380D01*
X47767Y110276D01*
X47727Y110170D01*
X47690Y110063D01*
X47657Y109955D01*
X47627Y109845D01*
X47602Y109735D01*
X47580Y109624D01*
X47563Y109512D01*
X47549Y109399D01*
X47539Y109286D01*
X47533Y109173D01*
X47531Y109060D01*
X47532Y109060D02*
X47532Y103868D01*
X47531Y103868D02*
X47533Y103755D01*
X47539Y103642D01*
X47549Y103529D01*
X47563Y103416D01*
X47580Y103304D01*
X47602Y103193D01*
X47627Y103083D01*
X47657Y102973D01*
X47690Y102865D01*
X47727Y102758D01*
X47767Y102652D01*
X47812Y102548D01*
X47860Y102445D01*
X47911Y102344D01*
X47966Y102245D01*
X48024Y102148D01*
X48086Y102053D01*
X48151Y101960D01*
X48219Y101870D01*
X48290Y101782D01*
X48365Y101696D01*
X48442Y101613D01*
X48522Y101533D01*
X48605Y101456D01*
X48691Y101381D01*
X48779Y101310D01*
X48869Y101242D01*
X48962Y101177D01*
X49057Y101115D01*
X49154Y101057D01*
X49253Y101002D01*
X49354Y100951D01*
X49457Y100903D01*
X49561Y100858D01*
X49667Y100818D01*
X49774Y100781D01*
X49882Y100748D01*
X49992Y100718D01*
X50102Y100693D01*
X50213Y100671D01*
X50325Y100654D01*
X50438Y100640D01*
X50551Y100630D01*
X50664Y100624D01*
X50777Y100622D01*
X54023Y100622D01*
X42099Y105166D02*
X34310Y105166D01*
D10*
X82075Y114315D02*
X99535Y114315D01*
X99535Y100315D02*
X82075Y100315D01*
X87805Y111315D02*
X93805Y107315D01*
X87805Y111315D02*
X87805Y103315D01*
X93805Y107315D01*
D12*
X94805Y107315D03*
D11*
X102743Y118237D02*
X102743Y124841D01*
X100909Y124841D01*
X100824Y124839D01*
X100740Y124833D01*
X100656Y124823D01*
X100572Y124810D01*
X100489Y124792D01*
X100407Y124771D01*
X100326Y124746D01*
X100246Y124717D01*
X100168Y124685D01*
X100092Y124649D01*
X100017Y124609D01*
X99944Y124566D01*
X99873Y124520D01*
X99804Y124471D01*
X99737Y124418D01*
X99673Y124362D01*
X99612Y124304D01*
X99554Y124243D01*
X99498Y124179D01*
X99445Y124112D01*
X99396Y124043D01*
X99350Y123972D01*
X99307Y123899D01*
X99267Y123824D01*
X99231Y123748D01*
X99199Y123670D01*
X99170Y123590D01*
X99145Y123509D01*
X99124Y123427D01*
X99106Y123344D01*
X99093Y123260D01*
X99083Y123176D01*
X99077Y123092D01*
X99075Y123007D01*
X99074Y123007D02*
X99074Y120071D01*
X99075Y120071D02*
X99077Y119986D01*
X99083Y119902D01*
X99093Y119818D01*
X99106Y119734D01*
X99124Y119651D01*
X99145Y119569D01*
X99170Y119488D01*
X99199Y119408D01*
X99231Y119330D01*
X99267Y119254D01*
X99307Y119179D01*
X99350Y119106D01*
X99396Y119035D01*
X99445Y118966D01*
X99498Y118899D01*
X99554Y118835D01*
X99612Y118774D01*
X99673Y118716D01*
X99737Y118660D01*
X99804Y118607D01*
X99873Y118558D01*
X99944Y118512D01*
X100017Y118469D01*
X100092Y118429D01*
X100168Y118393D01*
X100246Y118361D01*
X100326Y118332D01*
X100407Y118307D01*
X100489Y118286D01*
X100572Y118268D01*
X100656Y118255D01*
X100740Y118245D01*
X100824Y118239D01*
X100909Y118237D01*
X102743Y118237D01*
X95184Y118237D02*
X93350Y118237D01*
X93265Y118239D01*
X93181Y118245D01*
X93097Y118255D01*
X93013Y118268D01*
X92930Y118286D01*
X92848Y118307D01*
X92767Y118332D01*
X92687Y118361D01*
X92609Y118393D01*
X92533Y118429D01*
X92458Y118469D01*
X92385Y118512D01*
X92314Y118558D01*
X92245Y118607D01*
X92178Y118660D01*
X92114Y118716D01*
X92053Y118774D01*
X91995Y118835D01*
X91939Y118899D01*
X91886Y118966D01*
X91837Y119035D01*
X91791Y119106D01*
X91748Y119179D01*
X91708Y119254D01*
X91672Y119330D01*
X91640Y119408D01*
X91611Y119488D01*
X91586Y119569D01*
X91565Y119651D01*
X91547Y119734D01*
X91534Y119818D01*
X91524Y119902D01*
X91518Y119986D01*
X91516Y120071D01*
X91518Y120156D01*
X91524Y120240D01*
X91534Y120324D01*
X91547Y120408D01*
X91565Y120491D01*
X91586Y120573D01*
X91611Y120654D01*
X91640Y120734D01*
X91672Y120812D01*
X91708Y120888D01*
X91748Y120963D01*
X91791Y121036D01*
X91837Y121107D01*
X91886Y121176D01*
X91939Y121243D01*
X91995Y121307D01*
X92053Y121368D01*
X92114Y121426D01*
X92178Y121482D01*
X92245Y121535D01*
X92314Y121584D01*
X92385Y121630D01*
X92458Y121673D01*
X92533Y121713D01*
X92609Y121749D01*
X92687Y121781D01*
X92767Y121810D01*
X92848Y121835D01*
X92930Y121856D01*
X93013Y121874D01*
X93097Y121887D01*
X93181Y121897D01*
X93265Y121903D01*
X93350Y121905D01*
X92983Y124841D02*
X95184Y124841D01*
X92983Y124841D02*
X92907Y124839D01*
X92832Y124833D01*
X92757Y124824D01*
X92683Y124810D01*
X92609Y124793D01*
X92537Y124771D01*
X92465Y124747D01*
X92395Y124718D01*
X92327Y124686D01*
X92260Y124651D01*
X92195Y124612D01*
X92132Y124569D01*
X92072Y124524D01*
X92014Y124476D01*
X91958Y124424D01*
X91906Y124370D01*
X91856Y124313D01*
X91809Y124254D01*
X91765Y124193D01*
X91724Y124129D01*
X91687Y124063D01*
X91653Y123995D01*
X91623Y123926D01*
X91596Y123855D01*
X91573Y123783D01*
X91554Y123710D01*
X91539Y123636D01*
X91527Y123561D01*
X91519Y123486D01*
X91515Y123411D01*
X91515Y123335D01*
X91519Y123260D01*
X91527Y123185D01*
X91539Y123110D01*
X91554Y123036D01*
X91573Y122963D01*
X91596Y122891D01*
X91623Y122820D01*
X91653Y122751D01*
X91687Y122683D01*
X91724Y122617D01*
X91765Y122553D01*
X91809Y122492D01*
X91856Y122433D01*
X91906Y122376D01*
X91958Y122322D01*
X92014Y122270D01*
X92072Y122222D01*
X92132Y122177D01*
X92195Y122134D01*
X92260Y122095D01*
X92327Y122060D01*
X92395Y122028D01*
X92465Y121999D01*
X92537Y121975D01*
X92609Y121953D01*
X92683Y121936D01*
X92757Y121922D01*
X92832Y121913D01*
X92907Y121907D01*
X92983Y121905D01*
X92983Y121906D02*
X94450Y121906D01*
D15*
X78930Y64770D02*
X70930Y64770D01*
D11*
X68834Y35323D02*
X75438Y35323D01*
X75438Y37157D01*
X75436Y37242D01*
X75430Y37326D01*
X75420Y37410D01*
X75407Y37494D01*
X75389Y37577D01*
X75368Y37659D01*
X75343Y37740D01*
X75314Y37820D01*
X75282Y37898D01*
X75246Y37974D01*
X75206Y38049D01*
X75163Y38122D01*
X75117Y38193D01*
X75068Y38262D01*
X75015Y38329D01*
X74959Y38393D01*
X74901Y38454D01*
X74840Y38512D01*
X74776Y38568D01*
X74709Y38621D01*
X74640Y38670D01*
X74569Y38716D01*
X74496Y38759D01*
X74421Y38799D01*
X74345Y38835D01*
X74267Y38867D01*
X74187Y38896D01*
X74106Y38921D01*
X74024Y38942D01*
X73941Y38960D01*
X73857Y38973D01*
X73773Y38983D01*
X73689Y38989D01*
X73604Y38991D01*
X73519Y38989D01*
X73435Y38983D01*
X73351Y38973D01*
X73267Y38960D01*
X73184Y38942D01*
X73102Y38921D01*
X73021Y38896D01*
X72941Y38867D01*
X72863Y38835D01*
X72787Y38799D01*
X72712Y38759D01*
X72639Y38716D01*
X72568Y38670D01*
X72499Y38621D01*
X72432Y38568D01*
X72368Y38512D01*
X72307Y38454D01*
X72249Y38393D01*
X72193Y38329D01*
X72140Y38262D01*
X72091Y38193D01*
X72045Y38122D01*
X72002Y38049D01*
X71962Y37974D01*
X71926Y37898D01*
X71894Y37820D01*
X71865Y37740D01*
X71840Y37659D01*
X71819Y37577D01*
X71801Y37494D01*
X71788Y37410D01*
X71778Y37326D01*
X71772Y37242D01*
X71770Y37157D01*
X71769Y37157D02*
X71769Y35323D01*
X71769Y37524D02*
X68834Y38992D01*
X73970Y42559D02*
X75438Y44394D01*
X68834Y44394D01*
X68834Y46228D02*
X68834Y42559D01*
D17*
X185120Y133350D02*
X185220Y133350D01*
D13*
X190120Y147550D02*
X206120Y147550D01*
X206120Y119150D02*
X190120Y119150D01*
D18*
X204620Y120650D02*
X204620Y146150D01*
X191520Y146150D01*
X191520Y120650D01*
X204620Y120650D01*
D16*
X311658Y30381D02*
X323342Y30381D01*
X311658Y29083D02*
X311658Y31679D01*
X323342Y31679D02*
X323342Y29083D01*
X311658Y38843D02*
X311658Y41439D01*
X311658Y38843D02*
X311660Y38744D01*
X311666Y38644D01*
X311675Y38545D01*
X311688Y38447D01*
X311705Y38349D01*
X311726Y38251D01*
X311751Y38155D01*
X311779Y38060D01*
X311811Y37966D01*
X311846Y37873D01*
X311885Y37781D01*
X311928Y37691D01*
X311973Y37603D01*
X312023Y37516D01*
X312075Y37432D01*
X312131Y37349D01*
X312189Y37269D01*
X312251Y37191D01*
X312316Y37116D01*
X312384Y37043D01*
X312454Y36973D01*
X312527Y36905D01*
X312602Y36840D01*
X312680Y36778D01*
X312760Y36720D01*
X312843Y36664D01*
X312927Y36612D01*
X313014Y36562D01*
X313102Y36517D01*
X313192Y36474D01*
X313284Y36435D01*
X313377Y36400D01*
X313471Y36368D01*
X313566Y36340D01*
X313662Y36315D01*
X313760Y36294D01*
X313858Y36277D01*
X313956Y36264D01*
X314055Y36255D01*
X314155Y36249D01*
X314254Y36247D01*
X314254Y36246D02*
X320746Y36246D01*
X320746Y36247D02*
X320845Y36249D01*
X320945Y36255D01*
X321044Y36264D01*
X321142Y36277D01*
X321240Y36294D01*
X321338Y36315D01*
X321434Y36340D01*
X321529Y36368D01*
X321623Y36400D01*
X321716Y36435D01*
X321808Y36474D01*
X321898Y36517D01*
X321986Y36562D01*
X322073Y36612D01*
X322157Y36664D01*
X322240Y36720D01*
X322320Y36778D01*
X322398Y36840D01*
X322473Y36905D01*
X322546Y36973D01*
X322616Y37043D01*
X322684Y37116D01*
X322749Y37191D01*
X322811Y37269D01*
X322869Y37349D01*
X322925Y37432D01*
X322977Y37516D01*
X323027Y37603D01*
X323072Y37691D01*
X323115Y37781D01*
X323154Y37873D01*
X323189Y37965D01*
X323221Y38060D01*
X323249Y38155D01*
X323274Y38251D01*
X323295Y38349D01*
X323312Y38447D01*
X323325Y38545D01*
X323334Y38644D01*
X323340Y38744D01*
X323342Y38843D01*
X323342Y41439D01*
X320746Y45805D02*
X323342Y49050D01*
X311658Y49050D01*
X311658Y45805D02*
X311658Y52296D01*
M02*
