G04 EAGLE Gerber RS-274X export*
G75*
%MOMM*%
%FSLAX34Y34*%
%LPD*%
%INSilkscreen Bottom*%
%IPPOS*%
%AMOC8*
5,1,8,0,0,1.08239X$1,22.5*%
G01*
%ADD10C,0.228600*%
%ADD11C,0.152400*%
%ADD12C,0.203200*%
%ADD13C,0.304800*%
%ADD14R,0.022863X0.462278*%
%ADD15R,0.022863X0.462281*%
%ADD16R,0.022863X0.436881*%
%ADD17R,0.023113X0.462278*%
%ADD18R,0.023113X0.462281*%
%ADD19R,0.023113X0.436881*%
%ADD20R,0.023116X0.462278*%
%ADD21R,0.023116X0.462281*%
%ADD22R,0.023116X0.436881*%
%ADD23R,0.023113X0.022863*%
%ADD24R,0.023116X0.091441*%
%ADD25R,0.023113X0.139700*%
%ADD26R,0.023116X0.185419*%
%ADD27R,0.023113X0.254000*%
%ADD28R,0.023113X0.299719*%
%ADD29R,0.023116X0.345438*%
%ADD30R,0.023113X0.391159*%
%ADD31R,0.023116X0.393700*%
%ADD32R,0.022863X0.325119*%
%ADD33R,0.022863X0.599438*%
%ADD34R,0.022863X0.622300*%
%ADD35R,0.022863X0.530859*%
%ADD36R,0.022863X0.439422*%
%ADD37R,0.022863X0.231138*%
%ADD38R,0.022863X0.071119*%
%ADD39R,0.022863X0.533400*%
%ADD40R,0.022863X0.208281*%
%ADD41R,0.023113X0.345441*%
%ADD42R,0.023113X0.576578*%
%ADD43R,0.023113X0.599438*%
%ADD44R,0.023113X0.508000*%
%ADD45R,0.023113X0.416563*%
%ADD46R,0.023113X0.208278*%
%ADD47R,0.023113X0.553722*%
%ADD48R,0.023113X0.208281*%
%ADD49R,0.023116X0.345441*%
%ADD50R,0.023116X0.530859*%
%ADD51R,0.023116X0.370841*%
%ADD52R,0.023116X0.162559*%
%ADD53R,0.023116X0.576581*%
%ADD54R,0.023116X0.208281*%
%ADD55R,0.023113X0.322578*%
%ADD56R,0.023113X0.485137*%
%ADD57R,0.023113X0.416559*%
%ADD58R,0.023113X0.347981*%
%ADD59R,0.023113X0.116838*%
%ADD60R,0.023113X0.647700*%
%ADD61R,0.023116X0.322581*%
%ADD62R,0.023116X0.485137*%
%ADD63R,0.023116X0.093978*%
%ADD64R,0.023116X0.231141*%
%ADD65R,0.023116X0.693419*%
%ADD66R,0.023113X0.322581*%
%ADD67R,0.023113X0.439419*%
%ADD68R,0.023113X0.370841*%
%ADD69R,0.023113X0.299722*%
%ADD70R,0.023113X0.045719*%
%ADD71R,0.023113X0.739138*%
%ADD72R,0.023113X0.414019*%
%ADD73R,0.023113X0.347978*%
%ADD74R,0.023113X0.762000*%
%ADD75R,0.023116X0.414019*%
%ADD76R,0.023116X0.182881*%
%ADD77R,0.023116X0.347978*%
%ADD78R,0.023116X0.276863*%
%ADD79R,0.023116X0.116841*%
%ADD80R,0.023116X0.276859*%
%ADD81R,0.023116X0.784863*%
%ADD82R,0.023113X0.325119*%
%ADD83R,0.023113X0.276863*%
%ADD84R,0.023113X0.276859*%
%ADD85R,0.023116X0.325119*%
%ADD86R,0.023116X0.391159*%
%ADD87R,0.023116X0.302259*%
%ADD88R,0.023116X0.254000*%
%ADD89R,0.023113X0.302259*%
%ADD90R,0.023113X0.393700*%
%ADD91R,0.023113X0.231141*%
%ADD92R,0.022863X0.302259*%
%ADD93R,0.022863X0.439419*%
%ADD94R,0.022863X0.368300*%
%ADD95R,0.022863X0.391159*%
%ADD96R,0.022863X0.416559*%
%ADD97R,0.022863X0.276863*%
%ADD98R,0.022863X0.205741*%
%ADD99R,0.023113X0.368300*%
%ADD100R,0.023113X0.205741*%
%ADD101R,0.023116X0.368300*%
%ADD102R,0.023116X0.205741*%
%ADD103R,0.023113X0.182881*%
%ADD104R,0.022863X0.276859*%
%ADD105R,0.022863X0.182881*%
%ADD106R,0.023113X0.924559*%
%ADD107R,0.023116X0.924559*%
%ADD108R,0.023113X0.901700*%
%ADD109R,0.023116X0.901700*%
%ADD110R,0.023113X0.878841*%
%ADD111R,0.023116X0.855981*%
%ADD112R,0.023113X0.833119*%
%ADD113R,0.022863X0.787400*%
%ADD114R,0.022863X0.414019*%
%ADD115R,0.022863X0.924559*%
%ADD116R,0.023113X0.739141*%
%ADD117R,0.023116X0.716281*%
%ADD118R,0.023116X0.299722*%
%ADD119R,0.023113X0.670559*%
%ADD120R,0.023116X0.647700*%
%ADD121R,0.023116X0.508000*%
%ADD122R,0.023116X0.299719*%
%ADD123R,0.023113X0.601981*%
%ADD124R,0.023113X0.530859*%
%ADD125R,0.023113X0.231138*%
%ADD126R,0.023113X0.556259*%
%ADD127R,0.023113X0.185419*%
%ADD128R,0.023116X0.533400*%
%ADD129R,0.023116X0.599438*%
%ADD130R,0.023116X0.416563*%
%ADD131R,0.023116X0.116838*%
%ADD132R,0.023113X0.485141*%
%ADD133R,0.023113X0.645159*%
%ADD134R,0.023113X0.716278*%
%ADD135R,0.022863X0.393700*%
%ADD136R,0.022863X0.762000*%
%ADD137R,0.022863X0.624841*%
%ADD138R,0.023113X0.784859*%
%ADD139R,0.023113X0.693422*%
%ADD140R,0.023116X0.830578*%
%ADD141R,0.023116X0.739141*%
%ADD142R,0.023113X0.876300*%
%ADD143R,0.023113X0.807722*%
%ADD144R,0.023116X0.899159*%
%ADD145R,0.023116X0.878841*%
%ADD146R,0.023113X0.922019*%
%ADD147R,0.023113X0.947419*%
%ADD148R,0.023116X0.970278*%
%ADD149R,0.023113X0.970278*%
%ADD150R,0.023116X0.439419*%
%ADD151R,0.022863X0.299722*%
%ADD152R,0.023116X0.416559*%
%ADD153R,0.023116X0.347981*%
%ADD154R,0.023113X0.137159*%
%ADD155R,0.023113X0.093978*%
%ADD156R,0.023113X0.091441*%
%ADD157R,0.023113X0.093981*%
%ADD158R,0.023113X0.114300*%
%ADD159R,0.023116X0.045719*%
%ADD160R,0.023116X0.045722*%
%ADD161R,0.023113X0.071119*%
%ADD162R,0.023113X0.116841*%
%ADD163R,0.023116X0.139700*%
%ADD164R,0.022863X0.322581*%
%ADD165R,0.022863X0.345441*%
%ADD166R,0.022863X0.162559*%
%ADD167R,0.022863X0.576581*%
%ADD168R,0.023113X0.668019*%
%ADD169R,0.023113X0.533400*%
%ADD170R,0.023116X1.455419*%
%ADD171R,0.023116X5.519419*%
%ADD172R,0.023113X1.455419*%
%ADD173R,0.023113X5.519419*%
%ADD174R,0.023116X5.494019*%
%ADD175R,0.023113X1.430019*%
%ADD176R,0.023113X5.494019*%
%ADD177R,0.023116X1.430019*%
%ADD178R,0.023116X5.471159*%
%ADD179R,0.023116X0.762000*%
%ADD180R,0.023113X1.407159*%
%ADD181R,0.023113X5.471159*%
%ADD182R,0.022863X1.384300*%
%ADD183R,0.022863X5.448300*%
%ADD184R,0.022863X0.716278*%
%ADD185R,0.022863X0.878841*%
%ADD186R,0.023113X1.361438*%
%ADD187R,0.023113X5.425438*%
%ADD188R,0.023116X1.338578*%
%ADD189R,0.023116X5.402578*%
%ADD190R,0.023116X0.624841*%
%ADD191R,0.023113X1.292859*%
%ADD192R,0.023113X5.356859*%
%ADD193R,0.023116X1.224278*%
%ADD194R,0.023116X5.288278*%


D10*
X164592Y124333D02*
X164592Y137287D01*
X160993Y137287D01*
X160875Y137285D01*
X160758Y137279D01*
X160640Y137270D01*
X160523Y137256D01*
X160407Y137239D01*
X160291Y137218D01*
X160176Y137193D01*
X160062Y137164D01*
X159949Y137132D01*
X159836Y137096D01*
X159726Y137056D01*
X159616Y137013D01*
X159508Y136966D01*
X159402Y136916D01*
X159297Y136862D01*
X159194Y136805D01*
X159093Y136744D01*
X158994Y136681D01*
X158897Y136614D01*
X158803Y136543D01*
X158710Y136470D01*
X158621Y136394D01*
X158533Y136315D01*
X158449Y136233D01*
X158367Y136149D01*
X158288Y136061D01*
X158212Y135972D01*
X158139Y135879D01*
X158068Y135785D01*
X158001Y135688D01*
X157938Y135589D01*
X157877Y135488D01*
X157820Y135385D01*
X157766Y135280D01*
X157716Y135174D01*
X157669Y135066D01*
X157626Y134956D01*
X157586Y134846D01*
X157550Y134733D01*
X157518Y134620D01*
X157489Y134506D01*
X157464Y134391D01*
X157443Y134275D01*
X157426Y134159D01*
X157412Y134042D01*
X157403Y133924D01*
X157397Y133807D01*
X157395Y133689D01*
X157395Y127931D01*
X157397Y127813D01*
X157403Y127696D01*
X157412Y127578D01*
X157426Y127461D01*
X157443Y127345D01*
X157464Y127229D01*
X157489Y127114D01*
X157518Y127000D01*
X157550Y126887D01*
X157586Y126774D01*
X157626Y126664D01*
X157669Y126554D01*
X157716Y126446D01*
X157766Y126340D01*
X157820Y126235D01*
X157877Y126132D01*
X157938Y126031D01*
X158001Y125932D01*
X158068Y125835D01*
X158139Y125741D01*
X158212Y125648D01*
X158288Y125559D01*
X158367Y125471D01*
X158449Y125387D01*
X158533Y125305D01*
X158621Y125226D01*
X158710Y125150D01*
X158803Y125077D01*
X158897Y125006D01*
X158994Y124939D01*
X159093Y124876D01*
X159194Y124815D01*
X159297Y124758D01*
X159402Y124704D01*
X159508Y124654D01*
X159616Y124607D01*
X159726Y124564D01*
X159836Y124524D01*
X159949Y124488D01*
X160062Y124456D01*
X160176Y124427D01*
X160291Y124402D01*
X160407Y124381D01*
X160523Y124364D01*
X160640Y124350D01*
X160758Y124341D01*
X160875Y124335D01*
X160993Y124333D01*
X164592Y124333D01*
X146585Y124333D02*
X146480Y124335D01*
X146375Y124341D01*
X146270Y124350D01*
X146166Y124364D01*
X146062Y124381D01*
X145959Y124402D01*
X145857Y124427D01*
X145756Y124455D01*
X145655Y124487D01*
X145557Y124523D01*
X145459Y124562D01*
X145363Y124605D01*
X145269Y124652D01*
X145176Y124701D01*
X145085Y124755D01*
X144996Y124811D01*
X144910Y124871D01*
X144825Y124933D01*
X144743Y124999D01*
X144664Y125068D01*
X144587Y125139D01*
X144512Y125214D01*
X144441Y125291D01*
X144372Y125370D01*
X144306Y125452D01*
X144244Y125537D01*
X144184Y125623D01*
X144128Y125712D01*
X144074Y125803D01*
X144025Y125896D01*
X143978Y125990D01*
X143935Y126086D01*
X143896Y126184D01*
X143860Y126282D01*
X143828Y126383D01*
X143800Y126484D01*
X143775Y126586D01*
X143754Y126689D01*
X143737Y126793D01*
X143723Y126897D01*
X143714Y127002D01*
X143708Y127107D01*
X143706Y127212D01*
X146585Y124333D02*
X146740Y124335D01*
X146895Y124341D01*
X147049Y124351D01*
X147203Y124365D01*
X147357Y124382D01*
X147511Y124404D01*
X147663Y124429D01*
X147816Y124459D01*
X147967Y124492D01*
X148117Y124529D01*
X148267Y124570D01*
X148415Y124615D01*
X148562Y124663D01*
X148708Y124716D01*
X148852Y124771D01*
X148995Y124831D01*
X149137Y124894D01*
X149276Y124961D01*
X149414Y125031D01*
X149550Y125105D01*
X149685Y125182D01*
X149817Y125263D01*
X149947Y125347D01*
X150075Y125434D01*
X150201Y125525D01*
X150324Y125618D01*
X150445Y125715D01*
X150563Y125815D01*
X150679Y125918D01*
X150792Y126024D01*
X150903Y126132D01*
X150543Y134408D02*
X150541Y134513D01*
X150535Y134618D01*
X150526Y134723D01*
X150512Y134827D01*
X150495Y134931D01*
X150474Y135034D01*
X150449Y135136D01*
X150421Y135237D01*
X150389Y135338D01*
X150353Y135436D01*
X150314Y135534D01*
X150271Y135630D01*
X150224Y135724D01*
X150175Y135817D01*
X150121Y135908D01*
X150065Y135997D01*
X150005Y136083D01*
X149943Y136168D01*
X149877Y136250D01*
X149808Y136329D01*
X149737Y136406D01*
X149662Y136481D01*
X149585Y136552D01*
X149506Y136621D01*
X149424Y136687D01*
X149339Y136749D01*
X149253Y136809D01*
X149164Y136865D01*
X149073Y136919D01*
X148980Y136968D01*
X148886Y137015D01*
X148790Y137058D01*
X148692Y137097D01*
X148594Y137133D01*
X148493Y137165D01*
X148392Y137193D01*
X148290Y137218D01*
X148187Y137239D01*
X148083Y137256D01*
X147979Y137270D01*
X147874Y137279D01*
X147769Y137285D01*
X147664Y137287D01*
X147664Y137288D02*
X147519Y137286D01*
X147375Y137280D01*
X147230Y137271D01*
X147086Y137257D01*
X146942Y137240D01*
X146799Y137218D01*
X146657Y137193D01*
X146515Y137164D01*
X146374Y137132D01*
X146234Y137095D01*
X146095Y137055D01*
X145957Y137011D01*
X145820Y136963D01*
X145685Y136912D01*
X145551Y136857D01*
X145419Y136799D01*
X145288Y136737D01*
X145159Y136671D01*
X145031Y136603D01*
X144906Y136530D01*
X144783Y136455D01*
X144661Y136376D01*
X144542Y136294D01*
X144425Y136208D01*
X149104Y131889D02*
X149194Y131944D01*
X149281Y132002D01*
X149366Y132063D01*
X149449Y132127D01*
X149529Y132193D01*
X149607Y132263D01*
X149683Y132336D01*
X149756Y132411D01*
X149826Y132489D01*
X149893Y132569D01*
X149958Y132651D01*
X150019Y132736D01*
X150077Y132823D01*
X150132Y132912D01*
X150184Y133003D01*
X150233Y133096D01*
X150278Y133190D01*
X150320Y133286D01*
X150359Y133383D01*
X150394Y133482D01*
X150425Y133582D01*
X150453Y133683D01*
X150477Y133785D01*
X150497Y133887D01*
X150514Y133991D01*
X150527Y134095D01*
X150537Y134199D01*
X150542Y134303D01*
X150544Y134408D01*
X145146Y129731D02*
X145056Y129676D01*
X144969Y129618D01*
X144884Y129557D01*
X144801Y129493D01*
X144721Y129427D01*
X144643Y129357D01*
X144567Y129284D01*
X144494Y129209D01*
X144424Y129131D01*
X144357Y129051D01*
X144292Y128969D01*
X144231Y128884D01*
X144173Y128797D01*
X144118Y128708D01*
X144066Y128617D01*
X144017Y128524D01*
X143972Y128430D01*
X143930Y128334D01*
X143891Y128237D01*
X143856Y128138D01*
X143825Y128038D01*
X143797Y127937D01*
X143773Y127835D01*
X143753Y127733D01*
X143736Y127629D01*
X143723Y127525D01*
X143713Y127421D01*
X143708Y127317D01*
X143706Y127212D01*
X145146Y129731D02*
X149104Y131890D01*
X137671Y134408D02*
X134072Y137287D01*
X134072Y124333D01*
X130474Y124333D02*
X137671Y124333D01*
X123982Y127931D02*
X123980Y128050D01*
X123974Y128169D01*
X123964Y128287D01*
X123951Y128406D01*
X123933Y128523D01*
X123911Y128640D01*
X123886Y128756D01*
X123857Y128872D01*
X123824Y128986D01*
X123787Y129099D01*
X123747Y129211D01*
X123702Y129322D01*
X123655Y129431D01*
X123603Y129538D01*
X123548Y129643D01*
X123490Y129747D01*
X123428Y129849D01*
X123363Y129948D01*
X123295Y130046D01*
X123223Y130141D01*
X123149Y130234D01*
X123071Y130324D01*
X122990Y130411D01*
X122907Y130496D01*
X122821Y130578D01*
X122732Y130657D01*
X122641Y130733D01*
X122547Y130806D01*
X122450Y130876D01*
X122352Y130943D01*
X122251Y131007D01*
X122149Y131067D01*
X122044Y131123D01*
X121937Y131176D01*
X121829Y131226D01*
X121720Y131272D01*
X121608Y131314D01*
X121496Y131353D01*
X121382Y131388D01*
X121267Y131419D01*
X121151Y131446D01*
X121035Y131470D01*
X120917Y131489D01*
X120800Y131505D01*
X120681Y131517D01*
X120562Y131525D01*
X120443Y131529D01*
X120325Y131529D01*
X120206Y131525D01*
X120087Y131517D01*
X119968Y131505D01*
X119851Y131489D01*
X119733Y131470D01*
X119617Y131446D01*
X119501Y131419D01*
X119386Y131388D01*
X119272Y131353D01*
X119160Y131314D01*
X119048Y131272D01*
X118939Y131226D01*
X118831Y131176D01*
X118724Y131123D01*
X118619Y131067D01*
X118517Y131007D01*
X118416Y130943D01*
X118318Y130876D01*
X118221Y130806D01*
X118127Y130733D01*
X118036Y130657D01*
X117947Y130578D01*
X117861Y130496D01*
X117778Y130411D01*
X117697Y130324D01*
X117619Y130234D01*
X117545Y130141D01*
X117473Y130046D01*
X117405Y129948D01*
X117340Y129849D01*
X117278Y129747D01*
X117220Y129643D01*
X117165Y129538D01*
X117113Y129431D01*
X117066Y129322D01*
X117021Y129211D01*
X116981Y129099D01*
X116944Y128986D01*
X116911Y128872D01*
X116882Y128756D01*
X116857Y128640D01*
X116835Y128523D01*
X116817Y128406D01*
X116804Y128287D01*
X116794Y128169D01*
X116788Y128050D01*
X116786Y127931D01*
X116788Y127812D01*
X116794Y127693D01*
X116804Y127575D01*
X116817Y127456D01*
X116835Y127339D01*
X116857Y127222D01*
X116882Y127106D01*
X116911Y126990D01*
X116944Y126876D01*
X116981Y126763D01*
X117021Y126651D01*
X117066Y126540D01*
X117113Y126431D01*
X117165Y126324D01*
X117220Y126219D01*
X117278Y126115D01*
X117340Y126013D01*
X117405Y125914D01*
X117473Y125816D01*
X117545Y125721D01*
X117619Y125628D01*
X117697Y125538D01*
X117778Y125451D01*
X117861Y125366D01*
X117947Y125284D01*
X118036Y125205D01*
X118127Y125129D01*
X118221Y125056D01*
X118318Y124986D01*
X118416Y124919D01*
X118517Y124855D01*
X118619Y124795D01*
X118724Y124739D01*
X118831Y124686D01*
X118939Y124636D01*
X119048Y124590D01*
X119160Y124548D01*
X119272Y124509D01*
X119386Y124474D01*
X119501Y124443D01*
X119617Y124416D01*
X119733Y124392D01*
X119851Y124373D01*
X119968Y124357D01*
X120087Y124345D01*
X120206Y124337D01*
X120325Y124333D01*
X120443Y124333D01*
X120562Y124337D01*
X120681Y124345D01*
X120800Y124357D01*
X120917Y124373D01*
X121035Y124392D01*
X121151Y124416D01*
X121267Y124443D01*
X121382Y124474D01*
X121496Y124509D01*
X121608Y124548D01*
X121720Y124590D01*
X121829Y124636D01*
X121937Y124686D01*
X122044Y124739D01*
X122149Y124795D01*
X122251Y124855D01*
X122352Y124919D01*
X122450Y124986D01*
X122547Y125056D01*
X122641Y125129D01*
X122732Y125205D01*
X122821Y125284D01*
X122907Y125366D01*
X122990Y125451D01*
X123071Y125538D01*
X123149Y125628D01*
X123223Y125721D01*
X123295Y125816D01*
X123363Y125914D01*
X123428Y126013D01*
X123490Y126115D01*
X123548Y126219D01*
X123603Y126324D01*
X123655Y126431D01*
X123702Y126540D01*
X123747Y126651D01*
X123787Y126763D01*
X123824Y126876D01*
X123857Y126990D01*
X123886Y127106D01*
X123911Y127222D01*
X123933Y127339D01*
X123951Y127456D01*
X123964Y127575D01*
X123974Y127693D01*
X123980Y127812D01*
X123982Y127931D01*
X123263Y134408D02*
X123261Y134514D01*
X123255Y134621D01*
X123245Y134727D01*
X123232Y134832D01*
X123214Y134937D01*
X123192Y135041D01*
X123167Y135145D01*
X123138Y135247D01*
X123105Y135348D01*
X123069Y135448D01*
X123028Y135547D01*
X122984Y135643D01*
X122937Y135739D01*
X122886Y135832D01*
X122832Y135924D01*
X122774Y136013D01*
X122713Y136100D01*
X122649Y136185D01*
X122582Y136268D01*
X122512Y136348D01*
X122438Y136425D01*
X122363Y136499D01*
X122284Y136571D01*
X122203Y136640D01*
X122119Y136705D01*
X122033Y136768D01*
X121945Y136827D01*
X121854Y136883D01*
X121762Y136936D01*
X121667Y136985D01*
X121571Y137031D01*
X121473Y137073D01*
X121374Y137111D01*
X121274Y137146D01*
X121172Y137177D01*
X121069Y137204D01*
X120965Y137228D01*
X120861Y137247D01*
X120755Y137263D01*
X120650Y137275D01*
X120544Y137283D01*
X120437Y137287D01*
X120331Y137287D01*
X120224Y137283D01*
X120118Y137275D01*
X120013Y137263D01*
X119907Y137247D01*
X119803Y137228D01*
X119699Y137204D01*
X119596Y137177D01*
X119494Y137146D01*
X119394Y137111D01*
X119295Y137073D01*
X119197Y137031D01*
X119101Y136985D01*
X119006Y136936D01*
X118914Y136883D01*
X118823Y136827D01*
X118735Y136768D01*
X118649Y136705D01*
X118565Y136640D01*
X118484Y136571D01*
X118405Y136499D01*
X118330Y136425D01*
X118256Y136348D01*
X118186Y136268D01*
X118119Y136185D01*
X118055Y136100D01*
X117994Y136013D01*
X117936Y135924D01*
X117882Y135832D01*
X117831Y135739D01*
X117784Y135643D01*
X117740Y135547D01*
X117699Y135448D01*
X117663Y135348D01*
X117630Y135247D01*
X117601Y135145D01*
X117576Y135041D01*
X117554Y134937D01*
X117536Y134832D01*
X117523Y134727D01*
X117513Y134621D01*
X117507Y134514D01*
X117505Y134408D01*
X117507Y134302D01*
X117513Y134195D01*
X117523Y134089D01*
X117536Y133984D01*
X117554Y133879D01*
X117576Y133775D01*
X117601Y133671D01*
X117630Y133569D01*
X117663Y133468D01*
X117699Y133368D01*
X117740Y133269D01*
X117784Y133173D01*
X117831Y133077D01*
X117882Y132984D01*
X117936Y132892D01*
X117994Y132803D01*
X118055Y132716D01*
X118119Y132631D01*
X118186Y132548D01*
X118256Y132468D01*
X118330Y132391D01*
X118405Y132317D01*
X118484Y132245D01*
X118565Y132176D01*
X118649Y132111D01*
X118735Y132048D01*
X118823Y131989D01*
X118914Y131933D01*
X119006Y131880D01*
X119101Y131831D01*
X119197Y131785D01*
X119295Y131743D01*
X119394Y131705D01*
X119494Y131670D01*
X119596Y131639D01*
X119699Y131612D01*
X119803Y131588D01*
X119907Y131569D01*
X120013Y131553D01*
X120118Y131541D01*
X120224Y131533D01*
X120331Y131529D01*
X120437Y131529D01*
X120544Y131533D01*
X120650Y131541D01*
X120755Y131553D01*
X120861Y131569D01*
X120965Y131588D01*
X121069Y131612D01*
X121172Y131639D01*
X121274Y131670D01*
X121374Y131705D01*
X121473Y131743D01*
X121571Y131785D01*
X121667Y131831D01*
X121762Y131880D01*
X121854Y131933D01*
X121945Y131989D01*
X122033Y132048D01*
X122119Y132111D01*
X122203Y132176D01*
X122284Y132245D01*
X122363Y132317D01*
X122438Y132391D01*
X122512Y132468D01*
X122582Y132548D01*
X122649Y132631D01*
X122713Y132716D01*
X122774Y132803D01*
X122832Y132892D01*
X122886Y132984D01*
X122937Y133077D01*
X122984Y133173D01*
X123028Y133269D01*
X123069Y133368D01*
X123105Y133468D01*
X123138Y133569D01*
X123167Y133671D01*
X123192Y133775D01*
X123214Y133879D01*
X123232Y133984D01*
X123245Y134089D01*
X123255Y134195D01*
X123261Y134302D01*
X123263Y134408D01*
X110294Y127212D02*
X107415Y137287D01*
X110294Y127212D02*
X103097Y127212D01*
X105256Y130090D02*
X105256Y124333D01*
X96605Y134408D02*
X93007Y137287D01*
X93007Y124333D01*
X96605Y124333D02*
X89408Y124333D01*
D11*
X202323Y118618D02*
X202323Y109982D01*
X201364Y109982D02*
X203283Y109982D01*
X203283Y118618D02*
X201364Y118618D01*
X194768Y118618D02*
X194676Y118616D01*
X194585Y118610D01*
X194494Y118601D01*
X194403Y118587D01*
X194313Y118570D01*
X194224Y118548D01*
X194136Y118523D01*
X194049Y118495D01*
X193963Y118462D01*
X193879Y118426D01*
X193796Y118387D01*
X193715Y118344D01*
X193636Y118297D01*
X193559Y118248D01*
X193484Y118195D01*
X193412Y118139D01*
X193342Y118080D01*
X193274Y118018D01*
X193209Y117953D01*
X193147Y117885D01*
X193088Y117815D01*
X193032Y117743D01*
X192979Y117668D01*
X192930Y117591D01*
X192883Y117512D01*
X192840Y117431D01*
X192801Y117348D01*
X192765Y117264D01*
X192732Y117178D01*
X192704Y117091D01*
X192679Y117003D01*
X192657Y116914D01*
X192640Y116824D01*
X192626Y116733D01*
X192617Y116642D01*
X192611Y116551D01*
X192609Y116459D01*
X194768Y118618D02*
X194871Y118616D01*
X194973Y118610D01*
X195075Y118601D01*
X195177Y118588D01*
X195278Y118571D01*
X195379Y118550D01*
X195478Y118526D01*
X195577Y118497D01*
X195674Y118466D01*
X195771Y118430D01*
X195866Y118392D01*
X195959Y118349D01*
X196051Y118303D01*
X196141Y118254D01*
X196229Y118202D01*
X196316Y118146D01*
X196400Y118087D01*
X196481Y118026D01*
X196561Y117961D01*
X196638Y117893D01*
X196713Y117822D01*
X196784Y117749D01*
X196853Y117673D01*
X196920Y117595D01*
X196983Y117514D01*
X197043Y117431D01*
X197100Y117346D01*
X197154Y117259D01*
X197205Y117169D01*
X197252Y117078D01*
X197296Y116986D01*
X197337Y116891D01*
X197374Y116796D01*
X197407Y116699D01*
X193329Y114780D02*
X193262Y114846D01*
X193198Y114915D01*
X193137Y114986D01*
X193079Y115060D01*
X193024Y115136D01*
X192972Y115214D01*
X192923Y115294D01*
X192877Y115376D01*
X192835Y115460D01*
X192796Y115546D01*
X192761Y115633D01*
X192730Y115721D01*
X192702Y115811D01*
X192677Y115901D01*
X192656Y115993D01*
X192639Y116085D01*
X192626Y116178D01*
X192617Y116271D01*
X192611Y116365D01*
X192609Y116459D01*
X193329Y114780D02*
X197407Y109982D01*
X192609Y109982D01*
X186382Y109982D02*
X184463Y109982D01*
X186382Y109982D02*
X186468Y109984D01*
X186554Y109990D01*
X186640Y109999D01*
X186725Y110013D01*
X186809Y110030D01*
X186893Y110051D01*
X186975Y110076D01*
X187056Y110104D01*
X187136Y110136D01*
X187215Y110172D01*
X187291Y110211D01*
X187366Y110254D01*
X187439Y110299D01*
X187510Y110349D01*
X187578Y110401D01*
X187645Y110456D01*
X187708Y110514D01*
X187769Y110575D01*
X187827Y110638D01*
X187882Y110705D01*
X187935Y110773D01*
X187984Y110844D01*
X188029Y110917D01*
X188072Y110992D01*
X188111Y111068D01*
X188147Y111147D01*
X188179Y111227D01*
X188207Y111308D01*
X188232Y111391D01*
X188253Y111474D01*
X188270Y111558D01*
X188284Y111643D01*
X188293Y111729D01*
X188299Y111815D01*
X188301Y111901D01*
X188301Y116699D01*
X188299Y116785D01*
X188293Y116871D01*
X188284Y116957D01*
X188270Y117042D01*
X188253Y117126D01*
X188232Y117210D01*
X188207Y117292D01*
X188179Y117373D01*
X188147Y117453D01*
X188111Y117532D01*
X188072Y117608D01*
X188029Y117683D01*
X187984Y117756D01*
X187935Y117827D01*
X187882Y117895D01*
X187827Y117962D01*
X187769Y118025D01*
X187708Y118086D01*
X187645Y118144D01*
X187579Y118199D01*
X187510Y118251D01*
X187439Y118301D01*
X187366Y118346D01*
X187291Y118389D01*
X187215Y118428D01*
X187136Y118464D01*
X187056Y118496D01*
X186975Y118524D01*
X186893Y118549D01*
X186809Y118570D01*
X186725Y118587D01*
X186640Y118601D01*
X186554Y118610D01*
X186468Y118616D01*
X186382Y118618D01*
X184463Y118618D01*
X175436Y118618D02*
X175436Y109982D01*
X171597Y109982D01*
X167972Y111901D02*
X167972Y113820D01*
X167971Y113820D02*
X167969Y113906D01*
X167963Y113992D01*
X167954Y114078D01*
X167940Y114163D01*
X167923Y114247D01*
X167902Y114331D01*
X167877Y114413D01*
X167849Y114494D01*
X167817Y114574D01*
X167781Y114653D01*
X167742Y114729D01*
X167699Y114804D01*
X167654Y114877D01*
X167605Y114948D01*
X167552Y115016D01*
X167497Y115083D01*
X167439Y115146D01*
X167378Y115207D01*
X167315Y115265D01*
X167248Y115320D01*
X167180Y115373D01*
X167109Y115422D01*
X167036Y115467D01*
X166961Y115510D01*
X166885Y115549D01*
X166806Y115585D01*
X166726Y115617D01*
X166645Y115645D01*
X166563Y115670D01*
X166479Y115691D01*
X166395Y115708D01*
X166310Y115722D01*
X166224Y115731D01*
X166138Y115737D01*
X166052Y115739D01*
X165966Y115737D01*
X165880Y115731D01*
X165794Y115722D01*
X165709Y115708D01*
X165625Y115691D01*
X165541Y115670D01*
X165459Y115645D01*
X165378Y115617D01*
X165298Y115585D01*
X165219Y115549D01*
X165143Y115510D01*
X165068Y115467D01*
X164995Y115422D01*
X164924Y115373D01*
X164856Y115320D01*
X164789Y115265D01*
X164726Y115207D01*
X164665Y115146D01*
X164607Y115083D01*
X164552Y115016D01*
X164499Y114948D01*
X164450Y114877D01*
X164405Y114804D01*
X164362Y114729D01*
X164323Y114653D01*
X164287Y114574D01*
X164255Y114494D01*
X164227Y114413D01*
X164202Y114331D01*
X164181Y114247D01*
X164164Y114163D01*
X164150Y114078D01*
X164141Y113992D01*
X164135Y113906D01*
X164133Y113820D01*
X164133Y111901D01*
X164135Y111815D01*
X164141Y111729D01*
X164150Y111643D01*
X164164Y111558D01*
X164181Y111474D01*
X164202Y111390D01*
X164227Y111308D01*
X164255Y111227D01*
X164287Y111147D01*
X164323Y111068D01*
X164362Y110992D01*
X164405Y110917D01*
X164450Y110844D01*
X164499Y110773D01*
X164552Y110705D01*
X164607Y110638D01*
X164665Y110575D01*
X164726Y110514D01*
X164789Y110456D01*
X164856Y110401D01*
X164924Y110348D01*
X164995Y110299D01*
X165068Y110254D01*
X165143Y110211D01*
X165219Y110172D01*
X165298Y110136D01*
X165378Y110104D01*
X165459Y110076D01*
X165541Y110051D01*
X165625Y110030D01*
X165709Y110013D01*
X165794Y109999D01*
X165880Y109990D01*
X165966Y109984D01*
X166052Y109982D01*
X166138Y109984D01*
X166224Y109990D01*
X166310Y109999D01*
X166395Y110013D01*
X166479Y110030D01*
X166563Y110051D01*
X166645Y110076D01*
X166726Y110104D01*
X166806Y110136D01*
X166885Y110172D01*
X166961Y110211D01*
X167036Y110254D01*
X167109Y110299D01*
X167180Y110348D01*
X167248Y110401D01*
X167315Y110456D01*
X167378Y110514D01*
X167439Y110575D01*
X167497Y110638D01*
X167552Y110705D01*
X167605Y110773D01*
X167654Y110844D01*
X167699Y110917D01*
X167742Y110992D01*
X167781Y111068D01*
X167817Y111147D01*
X167849Y111227D01*
X167877Y111308D01*
X167902Y111390D01*
X167923Y111474D01*
X167940Y111558D01*
X167954Y111643D01*
X167963Y111729D01*
X167969Y111815D01*
X167971Y111901D01*
X158675Y109982D02*
X156276Y109982D01*
X158675Y109982D02*
X158750Y109984D01*
X158825Y109990D01*
X158900Y110000D01*
X158974Y110013D01*
X159047Y110031D01*
X159120Y110052D01*
X159191Y110078D01*
X159260Y110106D01*
X159328Y110139D01*
X159395Y110175D01*
X159459Y110214D01*
X159521Y110257D01*
X159581Y110303D01*
X159638Y110352D01*
X159693Y110403D01*
X159744Y110458D01*
X159793Y110515D01*
X159839Y110575D01*
X159882Y110637D01*
X159921Y110702D01*
X159957Y110768D01*
X159990Y110836D01*
X160018Y110905D01*
X160044Y110976D01*
X160065Y111049D01*
X160083Y111122D01*
X160096Y111196D01*
X160106Y111271D01*
X160112Y111346D01*
X160114Y111421D01*
X160114Y114300D01*
X160112Y114375D01*
X160106Y114450D01*
X160096Y114525D01*
X160083Y114599D01*
X160065Y114672D01*
X160044Y114745D01*
X160018Y114816D01*
X159990Y114885D01*
X159957Y114953D01*
X159921Y115020D01*
X159882Y115084D01*
X159839Y115146D01*
X159793Y115206D01*
X159744Y115263D01*
X159693Y115318D01*
X159638Y115369D01*
X159581Y115418D01*
X159521Y115464D01*
X159459Y115507D01*
X159395Y115546D01*
X159328Y115582D01*
X159260Y115615D01*
X159191Y115643D01*
X159120Y115669D01*
X159047Y115690D01*
X158974Y115708D01*
X158900Y115721D01*
X158825Y115731D01*
X158750Y115737D01*
X158675Y115739D01*
X156276Y115739D01*
X156276Y108543D01*
X156277Y108543D02*
X156279Y108468D01*
X156285Y108393D01*
X156295Y108318D01*
X156308Y108244D01*
X156326Y108171D01*
X156347Y108098D01*
X156373Y108027D01*
X156401Y107958D01*
X156434Y107890D01*
X156470Y107824D01*
X156509Y107759D01*
X156552Y107697D01*
X156598Y107637D01*
X156647Y107580D01*
X156698Y107525D01*
X156753Y107474D01*
X156810Y107425D01*
X156870Y107379D01*
X156932Y107336D01*
X156997Y107297D01*
X157063Y107261D01*
X157131Y107228D01*
X157200Y107200D01*
X157271Y107174D01*
X157344Y107153D01*
X157417Y107135D01*
X157491Y107122D01*
X157566Y107112D01*
X157641Y107106D01*
X157716Y107104D01*
X157716Y107103D02*
X159635Y107103D01*
X152272Y109982D02*
X152272Y110462D01*
X151792Y110462D01*
X151792Y109982D01*
X152272Y109982D01*
X142653Y109982D02*
X142653Y118618D01*
X140255Y118618D01*
X140158Y118616D01*
X140062Y118610D01*
X139966Y118601D01*
X139870Y118587D01*
X139775Y118570D01*
X139681Y118548D01*
X139588Y118523D01*
X139495Y118495D01*
X139404Y118462D01*
X139315Y118426D01*
X139227Y118386D01*
X139140Y118343D01*
X139056Y118297D01*
X138973Y118247D01*
X138892Y118193D01*
X138814Y118137D01*
X138738Y118077D01*
X138664Y118015D01*
X138593Y117949D01*
X138525Y117881D01*
X138459Y117810D01*
X138397Y117736D01*
X138337Y117660D01*
X138281Y117582D01*
X138227Y117501D01*
X138177Y117419D01*
X138131Y117334D01*
X138088Y117247D01*
X138048Y117159D01*
X138012Y117070D01*
X137979Y116979D01*
X137951Y116886D01*
X137926Y116793D01*
X137904Y116699D01*
X137887Y116604D01*
X137873Y116508D01*
X137864Y116412D01*
X137858Y116316D01*
X137856Y116219D01*
X137858Y116122D01*
X137864Y116026D01*
X137873Y115930D01*
X137887Y115834D01*
X137904Y115739D01*
X137926Y115645D01*
X137951Y115552D01*
X137979Y115459D01*
X138012Y115368D01*
X138048Y115279D01*
X138088Y115191D01*
X138131Y115104D01*
X138177Y115020D01*
X138227Y114937D01*
X138281Y114856D01*
X138337Y114778D01*
X138397Y114702D01*
X138459Y114628D01*
X138525Y114557D01*
X138593Y114489D01*
X138664Y114423D01*
X138738Y114361D01*
X138814Y114301D01*
X138892Y114245D01*
X138973Y114191D01*
X139055Y114141D01*
X139140Y114095D01*
X139227Y114052D01*
X139315Y114012D01*
X139404Y113976D01*
X139495Y113943D01*
X139588Y113915D01*
X139681Y113890D01*
X139775Y113868D01*
X139870Y113851D01*
X139966Y113837D01*
X140062Y113828D01*
X140158Y113822D01*
X140255Y113820D01*
X142653Y113820D01*
X134139Y113820D02*
X134139Y111901D01*
X134139Y113820D02*
X134137Y113906D01*
X134131Y113992D01*
X134122Y114078D01*
X134108Y114163D01*
X134091Y114247D01*
X134070Y114331D01*
X134045Y114413D01*
X134017Y114494D01*
X133985Y114574D01*
X133949Y114653D01*
X133910Y114729D01*
X133867Y114804D01*
X133822Y114877D01*
X133773Y114948D01*
X133720Y115016D01*
X133665Y115083D01*
X133607Y115146D01*
X133546Y115207D01*
X133483Y115265D01*
X133416Y115320D01*
X133348Y115373D01*
X133277Y115422D01*
X133204Y115467D01*
X133129Y115510D01*
X133053Y115549D01*
X132974Y115585D01*
X132894Y115617D01*
X132813Y115645D01*
X132731Y115670D01*
X132647Y115691D01*
X132563Y115708D01*
X132478Y115722D01*
X132392Y115731D01*
X132306Y115737D01*
X132220Y115739D01*
X132134Y115737D01*
X132048Y115731D01*
X131962Y115722D01*
X131877Y115708D01*
X131793Y115691D01*
X131709Y115670D01*
X131627Y115645D01*
X131546Y115617D01*
X131466Y115585D01*
X131387Y115549D01*
X131311Y115510D01*
X131236Y115467D01*
X131163Y115422D01*
X131092Y115373D01*
X131024Y115320D01*
X130957Y115265D01*
X130894Y115207D01*
X130833Y115146D01*
X130775Y115083D01*
X130720Y115016D01*
X130667Y114948D01*
X130618Y114877D01*
X130573Y114804D01*
X130530Y114729D01*
X130491Y114653D01*
X130455Y114574D01*
X130423Y114494D01*
X130395Y114413D01*
X130370Y114331D01*
X130349Y114247D01*
X130332Y114163D01*
X130318Y114078D01*
X130309Y113992D01*
X130303Y113906D01*
X130301Y113820D01*
X130301Y111901D01*
X130303Y111815D01*
X130309Y111729D01*
X130318Y111643D01*
X130332Y111558D01*
X130349Y111474D01*
X130370Y111390D01*
X130395Y111308D01*
X130423Y111227D01*
X130455Y111147D01*
X130491Y111068D01*
X130530Y110992D01*
X130573Y110917D01*
X130618Y110844D01*
X130667Y110773D01*
X130720Y110705D01*
X130775Y110638D01*
X130833Y110575D01*
X130894Y110514D01*
X130957Y110456D01*
X131024Y110401D01*
X131092Y110348D01*
X131163Y110299D01*
X131236Y110254D01*
X131311Y110211D01*
X131387Y110172D01*
X131466Y110136D01*
X131546Y110104D01*
X131627Y110076D01*
X131709Y110051D01*
X131793Y110030D01*
X131877Y110013D01*
X131962Y109999D01*
X132048Y109990D01*
X132134Y109984D01*
X132220Y109982D01*
X132306Y109984D01*
X132392Y109990D01*
X132478Y109999D01*
X132563Y110013D01*
X132647Y110030D01*
X132731Y110051D01*
X132813Y110076D01*
X132894Y110104D01*
X132974Y110136D01*
X133053Y110172D01*
X133129Y110211D01*
X133204Y110254D01*
X133277Y110299D01*
X133348Y110348D01*
X133416Y110401D01*
X133483Y110456D01*
X133546Y110514D01*
X133607Y110575D01*
X133665Y110638D01*
X133720Y110705D01*
X133773Y110773D01*
X133822Y110844D01*
X133867Y110917D01*
X133910Y110992D01*
X133949Y111068D01*
X133985Y111147D01*
X134017Y111227D01*
X134045Y111308D01*
X134070Y111390D01*
X134091Y111474D01*
X134108Y111558D01*
X134122Y111643D01*
X134131Y111729D01*
X134137Y111815D01*
X134139Y111901D01*
X127060Y115739D02*
X124181Y115739D01*
X126100Y118618D02*
X126100Y111421D01*
X126098Y111346D01*
X126092Y111271D01*
X126082Y111196D01*
X126069Y111122D01*
X126051Y111049D01*
X126030Y110976D01*
X126004Y110905D01*
X125976Y110836D01*
X125943Y110768D01*
X125907Y110702D01*
X125868Y110637D01*
X125825Y110575D01*
X125779Y110515D01*
X125730Y110458D01*
X125679Y110403D01*
X125624Y110352D01*
X125567Y110303D01*
X125507Y110257D01*
X125445Y110214D01*
X125381Y110175D01*
X125314Y110139D01*
X125246Y110106D01*
X125177Y110078D01*
X125106Y110052D01*
X125033Y110031D01*
X124960Y110013D01*
X124886Y110000D01*
X124811Y109990D01*
X124736Y109984D01*
X124661Y109982D01*
X124181Y109982D01*
X118984Y109982D02*
X116585Y109982D01*
X118984Y109982D02*
X119059Y109984D01*
X119134Y109990D01*
X119209Y110000D01*
X119283Y110013D01*
X119356Y110031D01*
X119429Y110052D01*
X119500Y110078D01*
X119569Y110106D01*
X119637Y110139D01*
X119704Y110175D01*
X119768Y110214D01*
X119830Y110257D01*
X119890Y110303D01*
X119947Y110352D01*
X120002Y110403D01*
X120053Y110458D01*
X120102Y110515D01*
X120148Y110575D01*
X120191Y110637D01*
X120230Y110702D01*
X120266Y110768D01*
X120299Y110836D01*
X120327Y110905D01*
X120353Y110976D01*
X120374Y111049D01*
X120392Y111122D01*
X120405Y111196D01*
X120415Y111271D01*
X120421Y111346D01*
X120423Y111421D01*
X120423Y113820D01*
X120421Y113906D01*
X120415Y113992D01*
X120406Y114078D01*
X120392Y114163D01*
X120375Y114247D01*
X120354Y114331D01*
X120329Y114413D01*
X120301Y114494D01*
X120269Y114574D01*
X120233Y114653D01*
X120194Y114729D01*
X120151Y114804D01*
X120106Y114877D01*
X120057Y114948D01*
X120004Y115016D01*
X119949Y115083D01*
X119891Y115146D01*
X119830Y115207D01*
X119767Y115265D01*
X119700Y115320D01*
X119632Y115373D01*
X119561Y115422D01*
X119488Y115467D01*
X119413Y115510D01*
X119337Y115549D01*
X119258Y115585D01*
X119178Y115617D01*
X119097Y115645D01*
X119015Y115670D01*
X118931Y115691D01*
X118847Y115708D01*
X118762Y115722D01*
X118676Y115731D01*
X118590Y115737D01*
X118504Y115739D01*
X118418Y115737D01*
X118332Y115731D01*
X118246Y115722D01*
X118161Y115708D01*
X118077Y115691D01*
X117993Y115670D01*
X117911Y115645D01*
X117830Y115617D01*
X117750Y115585D01*
X117671Y115549D01*
X117595Y115510D01*
X117520Y115467D01*
X117447Y115422D01*
X117376Y115373D01*
X117308Y115320D01*
X117241Y115265D01*
X117178Y115207D01*
X117117Y115146D01*
X117059Y115083D01*
X117004Y115016D01*
X116951Y114948D01*
X116902Y114877D01*
X116857Y114804D01*
X116814Y114729D01*
X116775Y114653D01*
X116739Y114574D01*
X116707Y114494D01*
X116679Y114413D01*
X116654Y114331D01*
X116633Y114247D01*
X116616Y114163D01*
X116602Y114078D01*
X116593Y113992D01*
X116587Y113906D01*
X116585Y113820D01*
X116585Y112861D01*
X120423Y112861D01*
X112193Y115739D02*
X112193Y109982D01*
X112193Y115739D02*
X109795Y115739D01*
X109720Y115737D01*
X109645Y115731D01*
X109570Y115721D01*
X109496Y115708D01*
X109423Y115690D01*
X109350Y115669D01*
X109279Y115643D01*
X109210Y115615D01*
X109142Y115582D01*
X109076Y115546D01*
X109011Y115507D01*
X108949Y115464D01*
X108889Y115418D01*
X108832Y115369D01*
X108777Y115318D01*
X108726Y115263D01*
X108677Y115206D01*
X108631Y115146D01*
X108588Y115084D01*
X108549Y115020D01*
X108513Y114953D01*
X108480Y114885D01*
X108452Y114816D01*
X108426Y114745D01*
X108405Y114672D01*
X108387Y114599D01*
X108374Y114525D01*
X108364Y114450D01*
X108358Y114375D01*
X108356Y114300D01*
X108355Y114300D02*
X108355Y109982D01*
X104809Y115739D02*
X101931Y115739D01*
X103850Y118618D02*
X103850Y111421D01*
X103848Y111346D01*
X103842Y111271D01*
X103832Y111196D01*
X103819Y111122D01*
X103801Y111049D01*
X103780Y110976D01*
X103754Y110905D01*
X103726Y110836D01*
X103693Y110768D01*
X103657Y110702D01*
X103618Y110637D01*
X103575Y110575D01*
X103529Y110515D01*
X103480Y110458D01*
X103429Y110403D01*
X103374Y110352D01*
X103317Y110303D01*
X103257Y110257D01*
X103195Y110214D01*
X103131Y110175D01*
X103064Y110139D01*
X102996Y110106D01*
X102927Y110078D01*
X102856Y110052D01*
X102783Y110031D01*
X102710Y110013D01*
X102636Y110000D01*
X102561Y109990D01*
X102486Y109984D01*
X102411Y109982D01*
X101931Y109982D01*
X98387Y109982D02*
X98387Y115739D01*
X98627Y118138D02*
X98627Y118618D01*
X98147Y118618D01*
X98147Y118138D01*
X98627Y118138D01*
X94515Y113820D02*
X94515Y111901D01*
X94515Y113820D02*
X94513Y113906D01*
X94507Y113992D01*
X94498Y114078D01*
X94484Y114163D01*
X94467Y114247D01*
X94446Y114331D01*
X94421Y114413D01*
X94393Y114494D01*
X94361Y114574D01*
X94325Y114653D01*
X94286Y114729D01*
X94243Y114804D01*
X94198Y114877D01*
X94149Y114948D01*
X94096Y115016D01*
X94041Y115083D01*
X93983Y115146D01*
X93922Y115207D01*
X93859Y115265D01*
X93792Y115320D01*
X93724Y115373D01*
X93653Y115422D01*
X93580Y115467D01*
X93505Y115510D01*
X93429Y115549D01*
X93350Y115585D01*
X93270Y115617D01*
X93189Y115645D01*
X93107Y115670D01*
X93023Y115691D01*
X92939Y115708D01*
X92854Y115722D01*
X92768Y115731D01*
X92682Y115737D01*
X92596Y115739D01*
X92510Y115737D01*
X92424Y115731D01*
X92338Y115722D01*
X92253Y115708D01*
X92169Y115691D01*
X92085Y115670D01*
X92003Y115645D01*
X91922Y115617D01*
X91842Y115585D01*
X91763Y115549D01*
X91687Y115510D01*
X91612Y115467D01*
X91539Y115422D01*
X91468Y115373D01*
X91400Y115320D01*
X91333Y115265D01*
X91270Y115207D01*
X91209Y115146D01*
X91151Y115083D01*
X91096Y115016D01*
X91043Y114948D01*
X90994Y114877D01*
X90949Y114804D01*
X90906Y114729D01*
X90867Y114653D01*
X90831Y114574D01*
X90799Y114494D01*
X90771Y114413D01*
X90746Y114331D01*
X90725Y114247D01*
X90708Y114163D01*
X90694Y114078D01*
X90685Y113992D01*
X90679Y113906D01*
X90677Y113820D01*
X90677Y111901D01*
X90679Y111815D01*
X90685Y111729D01*
X90694Y111643D01*
X90708Y111558D01*
X90725Y111474D01*
X90746Y111390D01*
X90771Y111308D01*
X90799Y111227D01*
X90831Y111147D01*
X90867Y111068D01*
X90906Y110992D01*
X90949Y110917D01*
X90994Y110844D01*
X91043Y110773D01*
X91096Y110705D01*
X91151Y110638D01*
X91209Y110575D01*
X91270Y110514D01*
X91333Y110456D01*
X91400Y110401D01*
X91468Y110348D01*
X91539Y110299D01*
X91612Y110254D01*
X91687Y110211D01*
X91763Y110172D01*
X91842Y110136D01*
X91922Y110104D01*
X92003Y110076D01*
X92085Y110051D01*
X92169Y110030D01*
X92253Y110013D01*
X92338Y109999D01*
X92424Y109990D01*
X92510Y109984D01*
X92596Y109982D01*
X92682Y109984D01*
X92768Y109990D01*
X92854Y109999D01*
X92939Y110013D01*
X93023Y110030D01*
X93107Y110051D01*
X93189Y110076D01*
X93270Y110104D01*
X93350Y110136D01*
X93429Y110172D01*
X93505Y110211D01*
X93580Y110254D01*
X93653Y110299D01*
X93724Y110348D01*
X93792Y110401D01*
X93859Y110456D01*
X93922Y110514D01*
X93983Y110575D01*
X94041Y110638D01*
X94096Y110705D01*
X94149Y110773D01*
X94198Y110844D01*
X94243Y110917D01*
X94286Y110992D01*
X94325Y111068D01*
X94361Y111147D01*
X94393Y111227D01*
X94421Y111308D01*
X94446Y111390D01*
X94467Y111474D01*
X94484Y111558D01*
X94498Y111643D01*
X94507Y111729D01*
X94513Y111815D01*
X94515Y111901D01*
X86026Y109982D02*
X86026Y115739D01*
X81708Y115739D01*
X81633Y115737D01*
X81558Y115731D01*
X81483Y115721D01*
X81409Y115708D01*
X81336Y115690D01*
X81263Y115669D01*
X81192Y115643D01*
X81123Y115615D01*
X81055Y115582D01*
X80989Y115546D01*
X80924Y115507D01*
X80862Y115464D01*
X80802Y115418D01*
X80745Y115369D01*
X80690Y115318D01*
X80639Y115263D01*
X80590Y115206D01*
X80544Y115146D01*
X80501Y115084D01*
X80462Y115020D01*
X80426Y114953D01*
X80393Y114885D01*
X80365Y114816D01*
X80339Y114745D01*
X80318Y114672D01*
X80300Y114599D01*
X80287Y114525D01*
X80277Y114450D01*
X80271Y114375D01*
X80269Y114300D01*
X80269Y109982D01*
X83147Y109982D02*
X83147Y115739D01*
X74178Y109982D02*
X71779Y109982D01*
X74178Y109982D02*
X74253Y109984D01*
X74328Y109990D01*
X74403Y110000D01*
X74477Y110013D01*
X74550Y110031D01*
X74623Y110052D01*
X74694Y110078D01*
X74763Y110106D01*
X74831Y110139D01*
X74898Y110175D01*
X74962Y110214D01*
X75024Y110257D01*
X75084Y110303D01*
X75141Y110352D01*
X75196Y110403D01*
X75247Y110458D01*
X75296Y110515D01*
X75342Y110575D01*
X75385Y110637D01*
X75424Y110702D01*
X75460Y110768D01*
X75493Y110836D01*
X75521Y110905D01*
X75547Y110976D01*
X75568Y111049D01*
X75586Y111122D01*
X75599Y111196D01*
X75609Y111271D01*
X75615Y111346D01*
X75617Y111421D01*
X75618Y111421D02*
X75618Y113820D01*
X75617Y113820D02*
X75615Y113906D01*
X75609Y113992D01*
X75600Y114078D01*
X75586Y114163D01*
X75569Y114247D01*
X75548Y114331D01*
X75523Y114413D01*
X75495Y114494D01*
X75463Y114574D01*
X75427Y114653D01*
X75388Y114729D01*
X75345Y114804D01*
X75300Y114877D01*
X75251Y114948D01*
X75198Y115016D01*
X75143Y115083D01*
X75085Y115146D01*
X75024Y115207D01*
X74961Y115265D01*
X74894Y115320D01*
X74826Y115373D01*
X74755Y115422D01*
X74682Y115467D01*
X74607Y115510D01*
X74531Y115549D01*
X74452Y115585D01*
X74372Y115617D01*
X74291Y115645D01*
X74209Y115670D01*
X74125Y115691D01*
X74041Y115708D01*
X73956Y115722D01*
X73870Y115731D01*
X73784Y115737D01*
X73698Y115739D01*
X73612Y115737D01*
X73526Y115731D01*
X73440Y115722D01*
X73355Y115708D01*
X73271Y115691D01*
X73187Y115670D01*
X73105Y115645D01*
X73024Y115617D01*
X72944Y115585D01*
X72865Y115549D01*
X72789Y115510D01*
X72714Y115467D01*
X72641Y115422D01*
X72570Y115373D01*
X72502Y115320D01*
X72435Y115265D01*
X72372Y115207D01*
X72311Y115146D01*
X72253Y115083D01*
X72198Y115016D01*
X72145Y114948D01*
X72096Y114877D01*
X72051Y114804D01*
X72008Y114729D01*
X71969Y114653D01*
X71933Y114574D01*
X71901Y114494D01*
X71873Y114413D01*
X71848Y114331D01*
X71827Y114247D01*
X71810Y114163D01*
X71796Y114078D01*
X71787Y113992D01*
X71781Y113906D01*
X71779Y113820D01*
X71779Y112861D01*
X75618Y112861D01*
X68538Y115739D02*
X65660Y115739D01*
X67579Y118618D02*
X67579Y111421D01*
X67577Y111346D01*
X67571Y111271D01*
X67561Y111196D01*
X67548Y111122D01*
X67530Y111049D01*
X67509Y110976D01*
X67483Y110905D01*
X67455Y110836D01*
X67422Y110768D01*
X67386Y110702D01*
X67347Y110637D01*
X67304Y110575D01*
X67258Y110515D01*
X67209Y110458D01*
X67158Y110403D01*
X67103Y110352D01*
X67046Y110303D01*
X66986Y110257D01*
X66924Y110214D01*
X66860Y110175D01*
X66793Y110139D01*
X66725Y110106D01*
X66656Y110078D01*
X66585Y110052D01*
X66512Y110031D01*
X66439Y110013D01*
X66365Y110000D01*
X66290Y109990D01*
X66215Y109984D01*
X66140Y109982D01*
X65660Y109982D01*
X60462Y109982D02*
X58063Y109982D01*
X60462Y109982D02*
X60537Y109984D01*
X60612Y109990D01*
X60687Y110000D01*
X60761Y110013D01*
X60834Y110031D01*
X60907Y110052D01*
X60978Y110078D01*
X61047Y110106D01*
X61115Y110139D01*
X61182Y110175D01*
X61246Y110214D01*
X61308Y110257D01*
X61368Y110303D01*
X61425Y110352D01*
X61480Y110403D01*
X61531Y110458D01*
X61580Y110515D01*
X61626Y110575D01*
X61669Y110637D01*
X61708Y110702D01*
X61744Y110768D01*
X61777Y110836D01*
X61805Y110905D01*
X61831Y110976D01*
X61852Y111049D01*
X61870Y111122D01*
X61883Y111196D01*
X61893Y111271D01*
X61899Y111346D01*
X61901Y111421D01*
X61902Y111421D02*
X61902Y113820D01*
X61900Y113906D01*
X61894Y113992D01*
X61885Y114078D01*
X61871Y114163D01*
X61854Y114247D01*
X61833Y114331D01*
X61808Y114413D01*
X61780Y114494D01*
X61748Y114574D01*
X61712Y114653D01*
X61673Y114729D01*
X61630Y114804D01*
X61585Y114877D01*
X61536Y114948D01*
X61483Y115016D01*
X61428Y115083D01*
X61370Y115146D01*
X61309Y115207D01*
X61246Y115265D01*
X61179Y115320D01*
X61111Y115373D01*
X61040Y115422D01*
X60967Y115467D01*
X60892Y115510D01*
X60816Y115549D01*
X60737Y115585D01*
X60657Y115617D01*
X60576Y115645D01*
X60494Y115670D01*
X60410Y115691D01*
X60326Y115708D01*
X60241Y115722D01*
X60155Y115731D01*
X60069Y115737D01*
X59983Y115739D01*
X59897Y115737D01*
X59811Y115731D01*
X59725Y115722D01*
X59640Y115708D01*
X59556Y115691D01*
X59472Y115670D01*
X59390Y115645D01*
X59309Y115617D01*
X59229Y115585D01*
X59150Y115549D01*
X59074Y115510D01*
X58999Y115467D01*
X58926Y115422D01*
X58855Y115373D01*
X58787Y115320D01*
X58720Y115265D01*
X58657Y115207D01*
X58596Y115146D01*
X58538Y115083D01*
X58483Y115016D01*
X58430Y114948D01*
X58381Y114877D01*
X58336Y114804D01*
X58293Y114729D01*
X58254Y114653D01*
X58218Y114574D01*
X58186Y114494D01*
X58158Y114413D01*
X58133Y114331D01*
X58112Y114247D01*
X58095Y114163D01*
X58081Y114078D01*
X58072Y113992D01*
X58066Y113906D01*
X58064Y113820D01*
X58063Y113820D02*
X58063Y112861D01*
X61902Y112861D01*
X53596Y109982D02*
X53596Y115739D01*
X50717Y115739D01*
X50717Y114780D01*
X202184Y13970D02*
X199305Y5334D01*
X196427Y13970D01*
X191236Y5334D02*
X189316Y5334D01*
X191236Y5334D02*
X191311Y5336D01*
X191386Y5342D01*
X191461Y5352D01*
X191535Y5365D01*
X191608Y5383D01*
X191681Y5404D01*
X191752Y5430D01*
X191821Y5458D01*
X191889Y5491D01*
X191956Y5527D01*
X192020Y5566D01*
X192082Y5609D01*
X192142Y5655D01*
X192199Y5704D01*
X192254Y5755D01*
X192305Y5810D01*
X192354Y5867D01*
X192400Y5927D01*
X192443Y5989D01*
X192482Y6054D01*
X192518Y6120D01*
X192551Y6188D01*
X192579Y6257D01*
X192605Y6328D01*
X192626Y6401D01*
X192644Y6474D01*
X192657Y6548D01*
X192667Y6623D01*
X192673Y6698D01*
X192675Y6773D01*
X192675Y9652D01*
X192673Y9727D01*
X192667Y9802D01*
X192657Y9877D01*
X192644Y9951D01*
X192626Y10024D01*
X192605Y10097D01*
X192579Y10168D01*
X192551Y10237D01*
X192518Y10305D01*
X192482Y10372D01*
X192443Y10436D01*
X192400Y10498D01*
X192354Y10558D01*
X192305Y10615D01*
X192254Y10670D01*
X192199Y10721D01*
X192142Y10770D01*
X192082Y10816D01*
X192020Y10859D01*
X191956Y10898D01*
X191889Y10934D01*
X191821Y10967D01*
X191752Y10995D01*
X191681Y11021D01*
X191608Y11042D01*
X191535Y11060D01*
X191461Y11073D01*
X191386Y11083D01*
X191311Y11089D01*
X191236Y11091D01*
X189316Y11091D01*
X184225Y5334D02*
X182306Y5334D01*
X184225Y5334D02*
X184300Y5336D01*
X184375Y5342D01*
X184450Y5352D01*
X184524Y5365D01*
X184597Y5383D01*
X184670Y5404D01*
X184741Y5430D01*
X184810Y5458D01*
X184878Y5491D01*
X184945Y5527D01*
X185009Y5566D01*
X185071Y5609D01*
X185131Y5655D01*
X185188Y5704D01*
X185243Y5755D01*
X185294Y5810D01*
X185343Y5867D01*
X185389Y5927D01*
X185432Y5989D01*
X185471Y6054D01*
X185507Y6120D01*
X185540Y6188D01*
X185568Y6257D01*
X185594Y6328D01*
X185615Y6401D01*
X185633Y6474D01*
X185646Y6548D01*
X185656Y6623D01*
X185662Y6698D01*
X185664Y6773D01*
X185664Y9652D01*
X185662Y9727D01*
X185656Y9802D01*
X185646Y9877D01*
X185633Y9951D01*
X185615Y10024D01*
X185594Y10097D01*
X185568Y10168D01*
X185540Y10237D01*
X185507Y10305D01*
X185471Y10372D01*
X185432Y10436D01*
X185389Y10498D01*
X185343Y10558D01*
X185294Y10615D01*
X185243Y10670D01*
X185188Y10721D01*
X185131Y10770D01*
X185071Y10816D01*
X185009Y10859D01*
X184945Y10898D01*
X184878Y10934D01*
X184810Y10967D01*
X184741Y10995D01*
X184670Y11021D01*
X184597Y11042D01*
X184524Y11060D01*
X184450Y11073D01*
X184375Y11083D01*
X184300Y11089D01*
X184225Y11091D01*
X182306Y11091D01*
X178974Y4374D02*
X175136Y14930D01*
X171704Y13970D02*
X168826Y5334D01*
X165947Y13970D01*
X162172Y13970D02*
X162172Y6773D01*
X162171Y6773D02*
X162169Y6698D01*
X162163Y6623D01*
X162153Y6548D01*
X162140Y6474D01*
X162122Y6401D01*
X162101Y6328D01*
X162075Y6257D01*
X162047Y6188D01*
X162014Y6120D01*
X161978Y6054D01*
X161939Y5989D01*
X161896Y5927D01*
X161850Y5867D01*
X161801Y5810D01*
X161750Y5755D01*
X161695Y5704D01*
X161638Y5655D01*
X161578Y5609D01*
X161516Y5566D01*
X161452Y5527D01*
X161385Y5491D01*
X161317Y5458D01*
X161248Y5430D01*
X161177Y5404D01*
X161104Y5383D01*
X161031Y5365D01*
X160957Y5352D01*
X160882Y5342D01*
X160807Y5336D01*
X160732Y5334D01*
X157334Y7253D02*
X157334Y9172D01*
X157333Y9172D02*
X157331Y9258D01*
X157325Y9344D01*
X157316Y9430D01*
X157302Y9515D01*
X157285Y9599D01*
X157264Y9683D01*
X157239Y9765D01*
X157211Y9846D01*
X157179Y9926D01*
X157143Y10005D01*
X157104Y10081D01*
X157061Y10156D01*
X157016Y10229D01*
X156967Y10300D01*
X156914Y10368D01*
X156859Y10435D01*
X156801Y10498D01*
X156740Y10559D01*
X156677Y10617D01*
X156610Y10672D01*
X156542Y10725D01*
X156471Y10774D01*
X156398Y10819D01*
X156323Y10862D01*
X156247Y10901D01*
X156168Y10937D01*
X156088Y10969D01*
X156007Y10997D01*
X155925Y11022D01*
X155841Y11043D01*
X155757Y11060D01*
X155672Y11074D01*
X155586Y11083D01*
X155500Y11089D01*
X155414Y11091D01*
X155328Y11089D01*
X155242Y11083D01*
X155156Y11074D01*
X155071Y11060D01*
X154987Y11043D01*
X154903Y11022D01*
X154821Y10997D01*
X154740Y10969D01*
X154660Y10937D01*
X154581Y10901D01*
X154505Y10862D01*
X154430Y10819D01*
X154357Y10774D01*
X154286Y10725D01*
X154218Y10672D01*
X154151Y10617D01*
X154088Y10559D01*
X154027Y10498D01*
X153969Y10435D01*
X153914Y10368D01*
X153861Y10300D01*
X153812Y10229D01*
X153767Y10156D01*
X153724Y10081D01*
X153685Y10005D01*
X153649Y9926D01*
X153617Y9846D01*
X153589Y9765D01*
X153564Y9683D01*
X153543Y9599D01*
X153526Y9515D01*
X153512Y9430D01*
X153503Y9344D01*
X153497Y9258D01*
X153495Y9172D01*
X153495Y7253D01*
X153497Y7167D01*
X153503Y7081D01*
X153512Y6995D01*
X153526Y6910D01*
X153543Y6826D01*
X153564Y6742D01*
X153589Y6660D01*
X153617Y6579D01*
X153649Y6499D01*
X153685Y6420D01*
X153724Y6344D01*
X153767Y6269D01*
X153812Y6196D01*
X153861Y6125D01*
X153914Y6057D01*
X153969Y5990D01*
X154027Y5927D01*
X154088Y5866D01*
X154151Y5808D01*
X154218Y5753D01*
X154286Y5700D01*
X154357Y5651D01*
X154430Y5606D01*
X154505Y5563D01*
X154581Y5524D01*
X154660Y5488D01*
X154740Y5456D01*
X154821Y5428D01*
X154903Y5403D01*
X154987Y5382D01*
X155071Y5365D01*
X155156Y5351D01*
X155242Y5342D01*
X155328Y5336D01*
X155414Y5334D01*
X155500Y5336D01*
X155586Y5342D01*
X155672Y5351D01*
X155757Y5365D01*
X155841Y5382D01*
X155925Y5403D01*
X156007Y5428D01*
X156088Y5456D01*
X156168Y5488D01*
X156247Y5524D01*
X156323Y5563D01*
X156398Y5606D01*
X156471Y5651D01*
X156542Y5700D01*
X156610Y5753D01*
X156677Y5808D01*
X156740Y5866D01*
X156801Y5927D01*
X156859Y5990D01*
X156914Y6057D01*
X156967Y6125D01*
X157016Y6196D01*
X157061Y6269D01*
X157104Y6344D01*
X157143Y6420D01*
X157179Y6499D01*
X157211Y6579D01*
X157239Y6660D01*
X157264Y6742D01*
X157285Y6826D01*
X157302Y6910D01*
X157316Y6995D01*
X157325Y7081D01*
X157331Y7167D01*
X157333Y7253D01*
X148037Y5334D02*
X145638Y5334D01*
X148037Y5334D02*
X148112Y5336D01*
X148187Y5342D01*
X148262Y5352D01*
X148336Y5365D01*
X148409Y5383D01*
X148482Y5404D01*
X148553Y5430D01*
X148622Y5458D01*
X148690Y5491D01*
X148757Y5527D01*
X148821Y5566D01*
X148883Y5609D01*
X148943Y5655D01*
X149000Y5704D01*
X149055Y5755D01*
X149106Y5810D01*
X149155Y5867D01*
X149201Y5927D01*
X149244Y5989D01*
X149283Y6054D01*
X149319Y6120D01*
X149352Y6188D01*
X149380Y6257D01*
X149406Y6328D01*
X149427Y6401D01*
X149445Y6474D01*
X149458Y6548D01*
X149468Y6623D01*
X149474Y6698D01*
X149476Y6773D01*
X149476Y9652D01*
X149474Y9727D01*
X149468Y9802D01*
X149458Y9877D01*
X149445Y9951D01*
X149427Y10024D01*
X149406Y10097D01*
X149380Y10168D01*
X149352Y10237D01*
X149319Y10305D01*
X149283Y10372D01*
X149244Y10436D01*
X149201Y10498D01*
X149155Y10558D01*
X149106Y10615D01*
X149055Y10670D01*
X149000Y10721D01*
X148943Y10770D01*
X148883Y10816D01*
X148821Y10859D01*
X148757Y10898D01*
X148690Y10934D01*
X148622Y10967D01*
X148553Y10995D01*
X148482Y11021D01*
X148409Y11042D01*
X148336Y11060D01*
X148262Y11073D01*
X148187Y11083D01*
X148112Y11089D01*
X148037Y11091D01*
X145638Y11091D01*
X145638Y3895D01*
X145639Y3895D02*
X145641Y3820D01*
X145647Y3745D01*
X145657Y3670D01*
X145670Y3596D01*
X145688Y3523D01*
X145709Y3450D01*
X145735Y3379D01*
X145763Y3310D01*
X145796Y3242D01*
X145832Y3176D01*
X145871Y3111D01*
X145914Y3049D01*
X145960Y2989D01*
X146009Y2932D01*
X146060Y2877D01*
X146115Y2826D01*
X146172Y2777D01*
X146232Y2731D01*
X146294Y2688D01*
X146359Y2649D01*
X146425Y2613D01*
X146493Y2580D01*
X146562Y2552D01*
X146633Y2526D01*
X146706Y2505D01*
X146779Y2487D01*
X146853Y2474D01*
X146928Y2464D01*
X147003Y2458D01*
X147078Y2456D01*
X147078Y2455D02*
X148997Y2455D01*
X141394Y5334D02*
X141394Y11091D01*
X141634Y13490D02*
X141634Y13970D01*
X141154Y13970D01*
X141154Y13490D01*
X141634Y13490D01*
X136067Y5334D02*
X134148Y5334D01*
X136067Y5334D02*
X136142Y5336D01*
X136217Y5342D01*
X136292Y5352D01*
X136366Y5365D01*
X136439Y5383D01*
X136512Y5404D01*
X136583Y5430D01*
X136652Y5458D01*
X136720Y5491D01*
X136787Y5527D01*
X136851Y5566D01*
X136913Y5609D01*
X136973Y5655D01*
X137030Y5704D01*
X137085Y5755D01*
X137136Y5810D01*
X137185Y5867D01*
X137231Y5927D01*
X137274Y5989D01*
X137313Y6054D01*
X137349Y6120D01*
X137382Y6188D01*
X137410Y6257D01*
X137436Y6328D01*
X137457Y6401D01*
X137475Y6474D01*
X137488Y6548D01*
X137498Y6623D01*
X137504Y6698D01*
X137506Y6773D01*
X137506Y9652D01*
X137504Y9727D01*
X137498Y9802D01*
X137488Y9877D01*
X137475Y9951D01*
X137457Y10024D01*
X137436Y10097D01*
X137410Y10168D01*
X137382Y10237D01*
X137349Y10305D01*
X137313Y10372D01*
X137274Y10436D01*
X137231Y10498D01*
X137185Y10558D01*
X137136Y10615D01*
X137085Y10670D01*
X137030Y10721D01*
X136973Y10770D01*
X136913Y10816D01*
X136851Y10859D01*
X136787Y10898D01*
X136720Y10934D01*
X136652Y10967D01*
X136583Y10995D01*
X136512Y11021D01*
X136439Y11042D01*
X136366Y11060D01*
X136292Y11073D01*
X136217Y11083D01*
X136142Y11089D01*
X136067Y11091D01*
X134148Y11091D01*
X130661Y6533D02*
X130661Y6054D01*
X130661Y6533D02*
X130181Y6533D01*
X130181Y6054D01*
X130661Y6054D01*
X130661Y9892D02*
X130661Y10372D01*
X130181Y10372D01*
X130181Y9892D01*
X130661Y9892D01*
X118599Y13970D02*
X118507Y13968D01*
X118416Y13962D01*
X118325Y13953D01*
X118234Y13939D01*
X118144Y13922D01*
X118055Y13900D01*
X117967Y13875D01*
X117880Y13847D01*
X117794Y13814D01*
X117710Y13778D01*
X117627Y13739D01*
X117546Y13696D01*
X117467Y13649D01*
X117390Y13600D01*
X117315Y13547D01*
X117243Y13491D01*
X117173Y13432D01*
X117105Y13370D01*
X117040Y13305D01*
X116978Y13237D01*
X116919Y13167D01*
X116863Y13095D01*
X116810Y13020D01*
X116761Y12943D01*
X116714Y12864D01*
X116671Y12783D01*
X116632Y12700D01*
X116596Y12616D01*
X116563Y12530D01*
X116535Y12443D01*
X116510Y12355D01*
X116488Y12266D01*
X116471Y12176D01*
X116457Y12085D01*
X116448Y11994D01*
X116442Y11903D01*
X116440Y11811D01*
X118599Y13970D02*
X118702Y13968D01*
X118804Y13962D01*
X118906Y13953D01*
X119008Y13940D01*
X119109Y13923D01*
X119210Y13902D01*
X119309Y13878D01*
X119408Y13849D01*
X119505Y13818D01*
X119602Y13782D01*
X119697Y13744D01*
X119790Y13701D01*
X119882Y13655D01*
X119972Y13606D01*
X120060Y13554D01*
X120147Y13498D01*
X120231Y13439D01*
X120312Y13378D01*
X120392Y13313D01*
X120469Y13245D01*
X120544Y13174D01*
X120615Y13101D01*
X120684Y13025D01*
X120751Y12947D01*
X120814Y12866D01*
X120874Y12783D01*
X120931Y12698D01*
X120985Y12611D01*
X121036Y12521D01*
X121083Y12430D01*
X121127Y12338D01*
X121168Y12243D01*
X121205Y12148D01*
X121238Y12051D01*
X117160Y10132D02*
X117093Y10198D01*
X117029Y10267D01*
X116968Y10338D01*
X116910Y10412D01*
X116855Y10488D01*
X116803Y10566D01*
X116754Y10646D01*
X116708Y10728D01*
X116666Y10812D01*
X116627Y10898D01*
X116592Y10985D01*
X116561Y11073D01*
X116533Y11163D01*
X116508Y11253D01*
X116487Y11345D01*
X116470Y11437D01*
X116457Y11530D01*
X116448Y11623D01*
X116442Y11717D01*
X116440Y11811D01*
X117159Y10132D02*
X121237Y5334D01*
X116440Y5334D01*
X112678Y5334D02*
X112678Y5814D01*
X112198Y5814D01*
X112198Y5334D01*
X112678Y5334D01*
X108436Y13010D02*
X108436Y13970D01*
X103638Y13970D01*
X106037Y5334D01*
X96893Y5334D02*
X99772Y13970D01*
X94014Y13970D02*
X96893Y5334D01*
X90018Y8692D02*
X84261Y8692D01*
X79785Y5334D02*
X76906Y5334D01*
X76820Y5336D01*
X76734Y5342D01*
X76648Y5351D01*
X76563Y5365D01*
X76479Y5382D01*
X76395Y5403D01*
X76313Y5428D01*
X76232Y5456D01*
X76152Y5488D01*
X76073Y5524D01*
X75997Y5563D01*
X75922Y5606D01*
X75849Y5651D01*
X75778Y5700D01*
X75710Y5753D01*
X75643Y5808D01*
X75580Y5866D01*
X75519Y5927D01*
X75461Y5990D01*
X75406Y6057D01*
X75353Y6125D01*
X75304Y6196D01*
X75259Y6269D01*
X75216Y6344D01*
X75177Y6420D01*
X75141Y6499D01*
X75109Y6579D01*
X75081Y6660D01*
X75056Y6742D01*
X75035Y6826D01*
X75018Y6910D01*
X75004Y6995D01*
X74995Y7081D01*
X74989Y7167D01*
X74987Y7253D01*
X74987Y8213D01*
X74989Y8299D01*
X74995Y8385D01*
X75004Y8471D01*
X75018Y8556D01*
X75035Y8640D01*
X75056Y8724D01*
X75081Y8806D01*
X75109Y8887D01*
X75141Y8967D01*
X75177Y9046D01*
X75216Y9122D01*
X75259Y9197D01*
X75304Y9270D01*
X75354Y9341D01*
X75406Y9409D01*
X75461Y9476D01*
X75519Y9539D01*
X75580Y9600D01*
X75643Y9658D01*
X75710Y9713D01*
X75778Y9766D01*
X75849Y9815D01*
X75922Y9860D01*
X75997Y9903D01*
X76073Y9942D01*
X76152Y9978D01*
X76232Y10010D01*
X76313Y10038D01*
X76396Y10063D01*
X76479Y10084D01*
X76563Y10101D01*
X76648Y10115D01*
X76734Y10124D01*
X76820Y10130D01*
X76906Y10132D01*
X79785Y10132D01*
X79785Y13970D01*
X74987Y13970D01*
X71225Y5814D02*
X71225Y5334D01*
X71225Y5814D02*
X70745Y5814D01*
X70745Y5334D01*
X71225Y5334D01*
X66983Y5334D02*
X64105Y5334D01*
X64019Y5336D01*
X63933Y5342D01*
X63847Y5351D01*
X63762Y5365D01*
X63678Y5382D01*
X63594Y5403D01*
X63512Y5428D01*
X63431Y5456D01*
X63351Y5488D01*
X63272Y5524D01*
X63196Y5563D01*
X63121Y5606D01*
X63048Y5651D01*
X62977Y5700D01*
X62909Y5753D01*
X62842Y5808D01*
X62779Y5866D01*
X62718Y5927D01*
X62660Y5990D01*
X62605Y6057D01*
X62552Y6125D01*
X62503Y6196D01*
X62458Y6269D01*
X62415Y6344D01*
X62376Y6420D01*
X62340Y6499D01*
X62308Y6579D01*
X62280Y6660D01*
X62255Y6742D01*
X62234Y6826D01*
X62217Y6910D01*
X62203Y6995D01*
X62194Y7081D01*
X62188Y7167D01*
X62186Y7253D01*
X62185Y7253D02*
X62185Y8213D01*
X62186Y8213D02*
X62188Y8299D01*
X62194Y8385D01*
X62203Y8471D01*
X62217Y8556D01*
X62234Y8640D01*
X62255Y8724D01*
X62280Y8806D01*
X62308Y8887D01*
X62340Y8967D01*
X62376Y9046D01*
X62415Y9122D01*
X62458Y9197D01*
X62503Y9270D01*
X62553Y9341D01*
X62605Y9409D01*
X62660Y9476D01*
X62718Y9539D01*
X62779Y9600D01*
X62842Y9658D01*
X62909Y9713D01*
X62977Y9766D01*
X63048Y9815D01*
X63121Y9860D01*
X63196Y9903D01*
X63272Y9942D01*
X63351Y9978D01*
X63431Y10010D01*
X63512Y10038D01*
X63595Y10063D01*
X63678Y10084D01*
X63762Y10101D01*
X63847Y10115D01*
X63933Y10124D01*
X64019Y10130D01*
X64105Y10132D01*
X66983Y10132D01*
X66983Y13970D01*
X62185Y13970D01*
X58319Y13970D02*
X55440Y5334D01*
X52562Y13970D01*
X172311Y50292D02*
X169432Y58928D01*
X166553Y50292D01*
X167273Y52451D02*
X171591Y52451D01*
X162687Y54610D02*
X162685Y54780D01*
X162679Y54950D01*
X162669Y55119D01*
X162655Y55289D01*
X162636Y55458D01*
X162614Y55626D01*
X162588Y55794D01*
X162558Y55961D01*
X162523Y56127D01*
X162485Y56293D01*
X162443Y56458D01*
X162397Y56621D01*
X162347Y56784D01*
X162293Y56945D01*
X162236Y57105D01*
X162174Y57263D01*
X162109Y57420D01*
X162040Y57575D01*
X161967Y57729D01*
X161939Y57805D01*
X161907Y57880D01*
X161872Y57954D01*
X161834Y58026D01*
X161792Y58096D01*
X161747Y58164D01*
X161699Y58230D01*
X161648Y58294D01*
X161594Y58355D01*
X161538Y58414D01*
X161478Y58470D01*
X161417Y58523D01*
X161353Y58573D01*
X161286Y58621D01*
X161218Y58665D01*
X161147Y58706D01*
X161075Y58744D01*
X161001Y58778D01*
X160926Y58809D01*
X160849Y58837D01*
X160771Y58861D01*
X160692Y58881D01*
X160612Y58898D01*
X160532Y58911D01*
X160451Y58921D01*
X160370Y58926D01*
X160288Y58928D01*
X160206Y58926D01*
X160125Y58921D01*
X160044Y58911D01*
X159964Y58898D01*
X159884Y58881D01*
X159805Y58861D01*
X159727Y58837D01*
X159650Y58809D01*
X159575Y58778D01*
X159501Y58744D01*
X159429Y58706D01*
X159358Y58665D01*
X159290Y58621D01*
X159223Y58573D01*
X159159Y58523D01*
X159098Y58470D01*
X159038Y58414D01*
X158982Y58355D01*
X158928Y58294D01*
X158877Y58230D01*
X158829Y58164D01*
X158784Y58096D01*
X158742Y58026D01*
X158704Y57954D01*
X158669Y57880D01*
X158637Y57805D01*
X158609Y57729D01*
X158536Y57575D01*
X158467Y57420D01*
X158402Y57263D01*
X158340Y57105D01*
X158283Y56945D01*
X158229Y56784D01*
X158179Y56621D01*
X158133Y56458D01*
X158091Y56293D01*
X158053Y56127D01*
X158018Y55961D01*
X157988Y55794D01*
X157962Y55626D01*
X157940Y55458D01*
X157921Y55289D01*
X157907Y55119D01*
X157897Y54950D01*
X157891Y54780D01*
X157889Y54610D01*
X162687Y54610D02*
X162685Y54440D01*
X162679Y54270D01*
X162669Y54101D01*
X162655Y53931D01*
X162636Y53762D01*
X162614Y53594D01*
X162588Y53426D01*
X162558Y53259D01*
X162523Y53093D01*
X162485Y52927D01*
X162443Y52762D01*
X162397Y52599D01*
X162347Y52437D01*
X162293Y52275D01*
X162236Y52116D01*
X162174Y51957D01*
X162109Y51800D01*
X162040Y51645D01*
X161967Y51491D01*
X161939Y51415D01*
X161907Y51340D01*
X161872Y51266D01*
X161834Y51194D01*
X161792Y51124D01*
X161747Y51056D01*
X161699Y50990D01*
X161648Y50926D01*
X161594Y50865D01*
X161538Y50806D01*
X161478Y50750D01*
X161417Y50697D01*
X161353Y50647D01*
X161286Y50599D01*
X161218Y50555D01*
X161147Y50514D01*
X161075Y50476D01*
X161001Y50442D01*
X160926Y50411D01*
X160849Y50383D01*
X160771Y50359D01*
X160692Y50339D01*
X160612Y50322D01*
X160532Y50309D01*
X160451Y50299D01*
X160370Y50294D01*
X160288Y50292D01*
X158609Y51491D02*
X158536Y51645D01*
X158467Y51800D01*
X158402Y51957D01*
X158340Y52116D01*
X158283Y52275D01*
X158229Y52437D01*
X158179Y52599D01*
X158133Y52762D01*
X158091Y52927D01*
X158053Y53093D01*
X158018Y53259D01*
X157988Y53426D01*
X157962Y53594D01*
X157940Y53762D01*
X157921Y53931D01*
X157907Y54101D01*
X157897Y54270D01*
X157891Y54440D01*
X157889Y54610D01*
X158609Y51491D02*
X158637Y51415D01*
X158669Y51340D01*
X158704Y51266D01*
X158742Y51194D01*
X158784Y51124D01*
X158829Y51056D01*
X158877Y50990D01*
X158928Y50926D01*
X158982Y50865D01*
X159038Y50806D01*
X159098Y50750D01*
X159159Y50697D01*
X159223Y50647D01*
X159290Y50599D01*
X159358Y50555D01*
X159429Y50514D01*
X159501Y50476D01*
X159575Y50442D01*
X159650Y50411D01*
X159727Y50383D01*
X159805Y50359D01*
X159884Y50339D01*
X159964Y50322D01*
X160044Y50309D01*
X160125Y50299D01*
X160206Y50294D01*
X160288Y50292D01*
X162207Y52211D02*
X158369Y57009D01*
X194832Y58928D02*
X197711Y50292D01*
X191953Y50292D02*
X194832Y58928D01*
X192673Y52451D02*
X196991Y52451D01*
X188087Y57009D02*
X185688Y58928D01*
X185688Y50292D01*
X188087Y50292D02*
X183289Y50292D01*
D12*
X154940Y65278D02*
X154940Y93218D01*
X172720Y95758D02*
X172820Y95756D01*
X172919Y95750D01*
X173019Y95740D01*
X173117Y95727D01*
X173216Y95709D01*
X173313Y95688D01*
X173409Y95663D01*
X173505Y95634D01*
X173599Y95601D01*
X173692Y95565D01*
X173783Y95525D01*
X173873Y95481D01*
X173961Y95434D01*
X174047Y95384D01*
X174131Y95330D01*
X174213Y95273D01*
X174292Y95213D01*
X174370Y95149D01*
X174444Y95083D01*
X174516Y95014D01*
X174585Y94942D01*
X174651Y94868D01*
X174715Y94790D01*
X174775Y94711D01*
X174832Y94629D01*
X174886Y94545D01*
X174936Y94459D01*
X174983Y94371D01*
X175027Y94281D01*
X175067Y94190D01*
X175103Y94097D01*
X175136Y94003D01*
X175165Y93907D01*
X175190Y93811D01*
X175211Y93714D01*
X175229Y93615D01*
X175242Y93517D01*
X175252Y93417D01*
X175258Y93318D01*
X175260Y93218D01*
X175260Y65278D02*
X175258Y65178D01*
X175252Y65079D01*
X175242Y64979D01*
X175229Y64881D01*
X175211Y64782D01*
X175190Y64685D01*
X175165Y64589D01*
X175136Y64493D01*
X175103Y64399D01*
X175067Y64306D01*
X175027Y64215D01*
X174983Y64125D01*
X174936Y64037D01*
X174886Y63951D01*
X174832Y63867D01*
X174775Y63785D01*
X174715Y63706D01*
X174651Y63628D01*
X174585Y63554D01*
X174516Y63482D01*
X174444Y63413D01*
X174370Y63347D01*
X174292Y63283D01*
X174213Y63223D01*
X174131Y63166D01*
X174047Y63112D01*
X173961Y63062D01*
X173873Y63015D01*
X173783Y62971D01*
X173692Y62931D01*
X173599Y62895D01*
X173505Y62862D01*
X173409Y62833D01*
X173313Y62808D01*
X173216Y62787D01*
X173117Y62769D01*
X173019Y62756D01*
X172919Y62746D01*
X172820Y62740D01*
X172720Y62738D01*
X157480Y62738D02*
X157380Y62740D01*
X157281Y62746D01*
X157181Y62756D01*
X157083Y62769D01*
X156984Y62787D01*
X156887Y62808D01*
X156791Y62833D01*
X156695Y62862D01*
X156601Y62895D01*
X156508Y62931D01*
X156417Y62971D01*
X156327Y63015D01*
X156239Y63062D01*
X156153Y63112D01*
X156069Y63166D01*
X155987Y63223D01*
X155908Y63283D01*
X155830Y63347D01*
X155756Y63413D01*
X155684Y63482D01*
X155615Y63554D01*
X155549Y63628D01*
X155485Y63706D01*
X155425Y63785D01*
X155368Y63867D01*
X155314Y63951D01*
X155264Y64037D01*
X155217Y64125D01*
X155173Y64215D01*
X155133Y64306D01*
X155097Y64399D01*
X155064Y64493D01*
X155035Y64589D01*
X155010Y64685D01*
X154989Y64782D01*
X154971Y64881D01*
X154958Y64979D01*
X154948Y65079D01*
X154942Y65178D01*
X154940Y65278D01*
X154940Y93218D02*
X154942Y93318D01*
X154948Y93417D01*
X154958Y93517D01*
X154971Y93615D01*
X154989Y93714D01*
X155010Y93811D01*
X155035Y93907D01*
X155064Y94003D01*
X155097Y94097D01*
X155133Y94190D01*
X155173Y94281D01*
X155217Y94371D01*
X155264Y94459D01*
X155314Y94545D01*
X155368Y94629D01*
X155425Y94711D01*
X155485Y94790D01*
X155549Y94868D01*
X155615Y94942D01*
X155684Y95014D01*
X155756Y95083D01*
X155830Y95149D01*
X155908Y95213D01*
X155987Y95273D01*
X156069Y95330D01*
X156153Y95384D01*
X156239Y95434D01*
X156327Y95481D01*
X156417Y95525D01*
X156508Y95565D01*
X156601Y95601D01*
X156695Y95634D01*
X156791Y95663D01*
X156887Y95688D01*
X156984Y95709D01*
X157083Y95727D01*
X157181Y95740D01*
X157281Y95750D01*
X157380Y95756D01*
X157480Y95758D01*
X172720Y95758D01*
X172720Y62738D02*
X157480Y62738D01*
X175260Y65278D02*
X175260Y93218D01*
D11*
X143200Y69709D02*
X143126Y69707D01*
X143051Y69701D01*
X142978Y69692D01*
X142904Y69679D01*
X142832Y69662D01*
X142761Y69642D01*
X142690Y69618D01*
X142621Y69590D01*
X142554Y69559D01*
X142488Y69525D01*
X142423Y69487D01*
X142361Y69446D01*
X142301Y69402D01*
X142244Y69355D01*
X142189Y69305D01*
X142136Y69252D01*
X142086Y69197D01*
X142039Y69140D01*
X141995Y69080D01*
X141954Y69018D01*
X141916Y68953D01*
X141882Y68887D01*
X141851Y68820D01*
X141823Y68751D01*
X141799Y68680D01*
X141779Y68609D01*
X141762Y68537D01*
X141749Y68463D01*
X141740Y68390D01*
X141734Y68315D01*
X141732Y68241D01*
X141734Y68130D01*
X141740Y68019D01*
X141750Y67908D01*
X141764Y67797D01*
X141782Y67688D01*
X141804Y67579D01*
X141829Y67470D01*
X141859Y67363D01*
X141892Y67257D01*
X141930Y67152D01*
X141970Y67049D01*
X142015Y66947D01*
X142063Y66847D01*
X142115Y66748D01*
X142170Y66652D01*
X142229Y66557D01*
X142291Y66465D01*
X142357Y66375D01*
X142425Y66287D01*
X142497Y66202D01*
X142572Y66120D01*
X142649Y66040D01*
X146868Y66223D02*
X146942Y66225D01*
X147017Y66231D01*
X147090Y66240D01*
X147164Y66253D01*
X147236Y66270D01*
X147307Y66290D01*
X147378Y66314D01*
X147447Y66342D01*
X147514Y66373D01*
X147580Y66407D01*
X147645Y66445D01*
X147707Y66486D01*
X147767Y66530D01*
X147824Y66577D01*
X147879Y66627D01*
X147932Y66680D01*
X147982Y66735D01*
X148029Y66792D01*
X148073Y66852D01*
X148114Y66914D01*
X148152Y66979D01*
X148186Y67045D01*
X148217Y67112D01*
X148245Y67181D01*
X148269Y67252D01*
X148289Y67323D01*
X148306Y67395D01*
X148319Y67469D01*
X148328Y67542D01*
X148334Y67617D01*
X148336Y67691D01*
X148334Y67795D01*
X148328Y67899D01*
X148318Y68003D01*
X148305Y68106D01*
X148287Y68209D01*
X148265Y68311D01*
X148240Y68412D01*
X148211Y68512D01*
X148178Y68611D01*
X148141Y68708D01*
X148101Y68804D01*
X148057Y68899D01*
X148009Y68991D01*
X147959Y69082D01*
X147904Y69171D01*
X147847Y69258D01*
X147786Y69342D01*
X145583Y66957D02*
X145622Y66894D01*
X145664Y66834D01*
X145709Y66776D01*
X145757Y66719D01*
X145808Y66666D01*
X145861Y66615D01*
X145916Y66566D01*
X145974Y66521D01*
X146034Y66478D01*
X146096Y66438D01*
X146160Y66402D01*
X146226Y66368D01*
X146294Y66338D01*
X146362Y66311D01*
X146432Y66288D01*
X146503Y66268D01*
X146575Y66252D01*
X146648Y66239D01*
X146721Y66230D01*
X146794Y66225D01*
X146868Y66223D01*
X144485Y68975D02*
X144446Y69038D01*
X144404Y69098D01*
X144359Y69157D01*
X144311Y69213D01*
X144260Y69266D01*
X144207Y69317D01*
X144152Y69366D01*
X144094Y69411D01*
X144034Y69454D01*
X143972Y69494D01*
X143908Y69530D01*
X143842Y69564D01*
X143774Y69594D01*
X143706Y69621D01*
X143636Y69644D01*
X143565Y69664D01*
X143493Y69680D01*
X143420Y69693D01*
X143347Y69702D01*
X143274Y69707D01*
X143200Y69709D01*
X144484Y68975D02*
X145584Y66957D01*
X143200Y74392D02*
X148336Y74392D01*
X143200Y74392D02*
X143126Y74390D01*
X143051Y74384D01*
X142978Y74375D01*
X142904Y74362D01*
X142832Y74345D01*
X142761Y74325D01*
X142690Y74301D01*
X142621Y74273D01*
X142554Y74242D01*
X142488Y74208D01*
X142423Y74170D01*
X142361Y74129D01*
X142301Y74085D01*
X142244Y74038D01*
X142189Y73988D01*
X142136Y73935D01*
X142086Y73880D01*
X142039Y73823D01*
X141995Y73763D01*
X141954Y73701D01*
X141916Y73636D01*
X141882Y73570D01*
X141851Y73503D01*
X141823Y73434D01*
X141799Y73363D01*
X141779Y73292D01*
X141762Y73220D01*
X141749Y73146D01*
X141740Y73073D01*
X141734Y72998D01*
X141732Y72924D01*
X141732Y72190D01*
X146868Y78232D02*
X148336Y80066D01*
X141732Y80066D01*
X141732Y78232D02*
X141732Y81901D01*
D12*
X180086Y93218D02*
X180086Y65278D01*
X200406Y93218D02*
X200404Y93318D01*
X200398Y93417D01*
X200388Y93517D01*
X200375Y93615D01*
X200357Y93714D01*
X200336Y93811D01*
X200311Y93907D01*
X200282Y94003D01*
X200249Y94097D01*
X200213Y94190D01*
X200173Y94281D01*
X200129Y94371D01*
X200082Y94459D01*
X200032Y94545D01*
X199978Y94629D01*
X199921Y94711D01*
X199861Y94790D01*
X199797Y94868D01*
X199731Y94942D01*
X199662Y95014D01*
X199590Y95083D01*
X199516Y95149D01*
X199438Y95213D01*
X199359Y95273D01*
X199277Y95330D01*
X199193Y95384D01*
X199107Y95434D01*
X199019Y95481D01*
X198929Y95525D01*
X198838Y95565D01*
X198745Y95601D01*
X198651Y95634D01*
X198555Y95663D01*
X198459Y95688D01*
X198362Y95709D01*
X198263Y95727D01*
X198165Y95740D01*
X198065Y95750D01*
X197966Y95756D01*
X197866Y95758D01*
X200406Y65278D02*
X200404Y65178D01*
X200398Y65079D01*
X200388Y64979D01*
X200375Y64881D01*
X200357Y64782D01*
X200336Y64685D01*
X200311Y64589D01*
X200282Y64493D01*
X200249Y64399D01*
X200213Y64306D01*
X200173Y64215D01*
X200129Y64125D01*
X200082Y64037D01*
X200032Y63951D01*
X199978Y63867D01*
X199921Y63785D01*
X199861Y63706D01*
X199797Y63628D01*
X199731Y63554D01*
X199662Y63482D01*
X199590Y63413D01*
X199516Y63347D01*
X199438Y63283D01*
X199359Y63223D01*
X199277Y63166D01*
X199193Y63112D01*
X199107Y63062D01*
X199019Y63015D01*
X198929Y62971D01*
X198838Y62931D01*
X198745Y62895D01*
X198651Y62862D01*
X198555Y62833D01*
X198459Y62808D01*
X198362Y62787D01*
X198263Y62769D01*
X198165Y62756D01*
X198065Y62746D01*
X197966Y62740D01*
X197866Y62738D01*
X182626Y62738D02*
X182526Y62740D01*
X182427Y62746D01*
X182327Y62756D01*
X182229Y62769D01*
X182130Y62787D01*
X182033Y62808D01*
X181937Y62833D01*
X181841Y62862D01*
X181747Y62895D01*
X181654Y62931D01*
X181563Y62971D01*
X181473Y63015D01*
X181385Y63062D01*
X181299Y63112D01*
X181215Y63166D01*
X181133Y63223D01*
X181054Y63283D01*
X180976Y63347D01*
X180902Y63413D01*
X180830Y63482D01*
X180761Y63554D01*
X180695Y63628D01*
X180631Y63706D01*
X180571Y63785D01*
X180514Y63867D01*
X180460Y63951D01*
X180410Y64037D01*
X180363Y64125D01*
X180319Y64215D01*
X180279Y64306D01*
X180243Y64399D01*
X180210Y64493D01*
X180181Y64589D01*
X180156Y64685D01*
X180135Y64782D01*
X180117Y64881D01*
X180104Y64979D01*
X180094Y65079D01*
X180088Y65178D01*
X180086Y65278D01*
X180086Y93218D02*
X180088Y93318D01*
X180094Y93417D01*
X180104Y93517D01*
X180117Y93615D01*
X180135Y93714D01*
X180156Y93811D01*
X180181Y93907D01*
X180210Y94003D01*
X180243Y94097D01*
X180279Y94190D01*
X180319Y94281D01*
X180363Y94371D01*
X180410Y94459D01*
X180460Y94545D01*
X180514Y94629D01*
X180571Y94711D01*
X180631Y94790D01*
X180695Y94868D01*
X180761Y94942D01*
X180830Y95014D01*
X180902Y95083D01*
X180976Y95149D01*
X181054Y95213D01*
X181133Y95273D01*
X181215Y95330D01*
X181299Y95384D01*
X181385Y95434D01*
X181473Y95481D01*
X181563Y95525D01*
X181654Y95565D01*
X181747Y95601D01*
X181841Y95634D01*
X181937Y95663D01*
X182033Y95688D01*
X182130Y95709D01*
X182229Y95727D01*
X182327Y95740D01*
X182427Y95750D01*
X182526Y95756D01*
X182626Y95758D01*
X197866Y95758D01*
X197866Y62738D02*
X182626Y62738D01*
X200406Y65278D02*
X200406Y93218D01*
D11*
X205176Y65899D02*
X205102Y65897D01*
X205027Y65891D01*
X204954Y65882D01*
X204880Y65869D01*
X204808Y65852D01*
X204737Y65832D01*
X204666Y65808D01*
X204597Y65780D01*
X204530Y65749D01*
X204464Y65715D01*
X204399Y65677D01*
X204337Y65636D01*
X204277Y65592D01*
X204220Y65545D01*
X204165Y65495D01*
X204112Y65442D01*
X204062Y65387D01*
X204015Y65330D01*
X203971Y65270D01*
X203930Y65208D01*
X203892Y65143D01*
X203858Y65077D01*
X203827Y65010D01*
X203799Y64941D01*
X203775Y64870D01*
X203755Y64799D01*
X203738Y64727D01*
X203725Y64653D01*
X203716Y64580D01*
X203710Y64505D01*
X203708Y64431D01*
X203710Y64320D01*
X203716Y64209D01*
X203726Y64098D01*
X203740Y63987D01*
X203758Y63878D01*
X203780Y63769D01*
X203805Y63660D01*
X203835Y63553D01*
X203868Y63447D01*
X203906Y63342D01*
X203946Y63239D01*
X203991Y63137D01*
X204039Y63037D01*
X204091Y62938D01*
X204146Y62842D01*
X204205Y62747D01*
X204267Y62655D01*
X204333Y62565D01*
X204401Y62477D01*
X204473Y62392D01*
X204548Y62310D01*
X204625Y62230D01*
X208844Y62413D02*
X208918Y62415D01*
X208993Y62421D01*
X209066Y62430D01*
X209140Y62443D01*
X209212Y62460D01*
X209283Y62480D01*
X209354Y62504D01*
X209423Y62532D01*
X209490Y62563D01*
X209556Y62597D01*
X209621Y62635D01*
X209683Y62676D01*
X209743Y62720D01*
X209800Y62767D01*
X209855Y62817D01*
X209908Y62870D01*
X209958Y62925D01*
X210005Y62982D01*
X210049Y63042D01*
X210090Y63104D01*
X210128Y63169D01*
X210162Y63235D01*
X210193Y63302D01*
X210221Y63371D01*
X210245Y63442D01*
X210265Y63513D01*
X210282Y63585D01*
X210295Y63659D01*
X210304Y63732D01*
X210310Y63807D01*
X210312Y63881D01*
X210310Y63985D01*
X210304Y64089D01*
X210294Y64193D01*
X210281Y64296D01*
X210263Y64399D01*
X210241Y64501D01*
X210216Y64602D01*
X210187Y64702D01*
X210154Y64801D01*
X210117Y64898D01*
X210077Y64994D01*
X210033Y65089D01*
X209985Y65181D01*
X209935Y65272D01*
X209880Y65361D01*
X209823Y65448D01*
X209762Y65532D01*
X207559Y63147D02*
X207598Y63084D01*
X207640Y63024D01*
X207685Y62966D01*
X207733Y62909D01*
X207784Y62856D01*
X207837Y62805D01*
X207892Y62756D01*
X207950Y62711D01*
X208010Y62668D01*
X208072Y62628D01*
X208136Y62592D01*
X208202Y62558D01*
X208270Y62528D01*
X208338Y62501D01*
X208408Y62478D01*
X208479Y62458D01*
X208551Y62442D01*
X208624Y62429D01*
X208697Y62420D01*
X208770Y62415D01*
X208844Y62413D01*
X206461Y65165D02*
X206422Y65228D01*
X206380Y65288D01*
X206335Y65347D01*
X206287Y65403D01*
X206236Y65456D01*
X206183Y65507D01*
X206128Y65556D01*
X206070Y65601D01*
X206010Y65644D01*
X205948Y65684D01*
X205884Y65720D01*
X205818Y65754D01*
X205750Y65784D01*
X205682Y65811D01*
X205612Y65834D01*
X205541Y65854D01*
X205469Y65870D01*
X205396Y65883D01*
X205323Y65892D01*
X205250Y65897D01*
X205176Y65899D01*
X206460Y65165D02*
X207560Y63147D01*
X205176Y70582D02*
X210312Y70582D01*
X205176Y70582D02*
X205102Y70580D01*
X205027Y70574D01*
X204954Y70565D01*
X204880Y70552D01*
X204808Y70535D01*
X204737Y70515D01*
X204666Y70491D01*
X204597Y70463D01*
X204530Y70432D01*
X204464Y70398D01*
X204399Y70360D01*
X204337Y70319D01*
X204277Y70275D01*
X204220Y70228D01*
X204165Y70178D01*
X204112Y70125D01*
X204062Y70070D01*
X204015Y70013D01*
X203971Y69953D01*
X203930Y69891D01*
X203892Y69826D01*
X203858Y69760D01*
X203827Y69693D01*
X203799Y69624D01*
X203775Y69553D01*
X203755Y69482D01*
X203738Y69410D01*
X203725Y69336D01*
X203716Y69263D01*
X203710Y69188D01*
X203708Y69114D01*
X203708Y68380D01*
X210312Y76440D02*
X210310Y76519D01*
X210305Y76597D01*
X210295Y76675D01*
X210282Y76752D01*
X210265Y76829D01*
X210245Y76905D01*
X210221Y76980D01*
X210194Y77054D01*
X210163Y77126D01*
X210128Y77197D01*
X210091Y77266D01*
X210050Y77333D01*
X210006Y77398D01*
X209959Y77461D01*
X209909Y77521D01*
X209856Y77579D01*
X209800Y77635D01*
X209742Y77688D01*
X209682Y77738D01*
X209619Y77785D01*
X209554Y77829D01*
X209487Y77870D01*
X209418Y77907D01*
X209347Y77942D01*
X209275Y77973D01*
X209201Y78000D01*
X209126Y78024D01*
X209050Y78044D01*
X208973Y78061D01*
X208896Y78074D01*
X208818Y78084D01*
X208740Y78089D01*
X208661Y78091D01*
X210312Y76440D02*
X210310Y76351D01*
X210305Y76262D01*
X210295Y76174D01*
X210282Y76086D01*
X210266Y75999D01*
X210245Y75912D01*
X210221Y75827D01*
X210194Y75742D01*
X210163Y75659D01*
X210128Y75577D01*
X210090Y75496D01*
X210049Y75417D01*
X210005Y75341D01*
X209957Y75265D01*
X209906Y75192D01*
X209853Y75122D01*
X209796Y75053D01*
X209736Y74987D01*
X209674Y74924D01*
X209609Y74863D01*
X209542Y74805D01*
X209472Y74750D01*
X209400Y74697D01*
X209326Y74648D01*
X209250Y74602D01*
X209172Y74560D01*
X209092Y74520D01*
X209011Y74484D01*
X208928Y74451D01*
X208844Y74422D01*
X207377Y77541D02*
X207433Y77597D01*
X207492Y77651D01*
X207553Y77702D01*
X207617Y77751D01*
X207682Y77796D01*
X207750Y77839D01*
X207819Y77878D01*
X207890Y77915D01*
X207963Y77948D01*
X208037Y77977D01*
X208112Y78004D01*
X208188Y78027D01*
X208266Y78046D01*
X208344Y78062D01*
X208422Y78075D01*
X208502Y78084D01*
X208581Y78089D01*
X208661Y78091D01*
X207377Y77540D02*
X203708Y74422D01*
X203708Y78091D01*
D13*
X185330Y162560D02*
X185333Y162780D01*
X185341Y163001D01*
X185354Y163221D01*
X185373Y163440D01*
X185398Y163659D01*
X185427Y163878D01*
X185462Y164095D01*
X185503Y164312D01*
X185548Y164528D01*
X185599Y164742D01*
X185655Y164955D01*
X185717Y165167D01*
X185783Y165377D01*
X185855Y165585D01*
X185932Y165792D01*
X186014Y165996D01*
X186100Y166199D01*
X186192Y166399D01*
X186289Y166598D01*
X186390Y166793D01*
X186497Y166986D01*
X186608Y167177D01*
X186723Y167364D01*
X186843Y167549D01*
X186968Y167731D01*
X187097Y167909D01*
X187231Y168085D01*
X187368Y168257D01*
X187510Y168425D01*
X187656Y168591D01*
X187806Y168752D01*
X187960Y168910D01*
X188118Y169064D01*
X188279Y169214D01*
X188445Y169360D01*
X188613Y169502D01*
X188785Y169639D01*
X188961Y169773D01*
X189139Y169902D01*
X189321Y170027D01*
X189506Y170147D01*
X189693Y170262D01*
X189884Y170373D01*
X190077Y170480D01*
X190272Y170581D01*
X190471Y170678D01*
X190671Y170770D01*
X190874Y170856D01*
X191078Y170938D01*
X191285Y171015D01*
X191493Y171087D01*
X191703Y171153D01*
X191915Y171215D01*
X192128Y171271D01*
X192342Y171322D01*
X192558Y171367D01*
X192775Y171408D01*
X192992Y171443D01*
X193211Y171472D01*
X193430Y171497D01*
X193649Y171516D01*
X193869Y171529D01*
X194090Y171537D01*
X194310Y171540D01*
X194530Y171537D01*
X194751Y171529D01*
X194971Y171516D01*
X195190Y171497D01*
X195409Y171472D01*
X195628Y171443D01*
X195845Y171408D01*
X196062Y171367D01*
X196278Y171322D01*
X196492Y171271D01*
X196705Y171215D01*
X196917Y171153D01*
X197127Y171087D01*
X197335Y171015D01*
X197542Y170938D01*
X197746Y170856D01*
X197949Y170770D01*
X198149Y170678D01*
X198348Y170581D01*
X198543Y170480D01*
X198736Y170373D01*
X198927Y170262D01*
X199114Y170147D01*
X199299Y170027D01*
X199481Y169902D01*
X199659Y169773D01*
X199835Y169639D01*
X200007Y169502D01*
X200175Y169360D01*
X200341Y169214D01*
X200502Y169064D01*
X200660Y168910D01*
X200814Y168752D01*
X200964Y168591D01*
X201110Y168425D01*
X201252Y168257D01*
X201389Y168085D01*
X201523Y167909D01*
X201652Y167731D01*
X201777Y167549D01*
X201897Y167364D01*
X202012Y167177D01*
X202123Y166986D01*
X202230Y166793D01*
X202331Y166598D01*
X202428Y166399D01*
X202520Y166199D01*
X202606Y165996D01*
X202688Y165792D01*
X202765Y165585D01*
X202837Y165377D01*
X202903Y165167D01*
X202965Y164955D01*
X203021Y164742D01*
X203072Y164528D01*
X203117Y164312D01*
X203158Y164095D01*
X203193Y163878D01*
X203222Y163659D01*
X203247Y163440D01*
X203266Y163221D01*
X203279Y163001D01*
X203287Y162780D01*
X203290Y162560D01*
X203287Y162340D01*
X203279Y162119D01*
X203266Y161899D01*
X203247Y161680D01*
X203222Y161461D01*
X203193Y161242D01*
X203158Y161025D01*
X203117Y160808D01*
X203072Y160592D01*
X203021Y160378D01*
X202965Y160165D01*
X202903Y159953D01*
X202837Y159743D01*
X202765Y159535D01*
X202688Y159328D01*
X202606Y159124D01*
X202520Y158921D01*
X202428Y158721D01*
X202331Y158522D01*
X202230Y158327D01*
X202123Y158134D01*
X202012Y157943D01*
X201897Y157756D01*
X201777Y157571D01*
X201652Y157389D01*
X201523Y157211D01*
X201389Y157035D01*
X201252Y156863D01*
X201110Y156695D01*
X200964Y156529D01*
X200814Y156368D01*
X200660Y156210D01*
X200502Y156056D01*
X200341Y155906D01*
X200175Y155760D01*
X200007Y155618D01*
X199835Y155481D01*
X199659Y155347D01*
X199481Y155218D01*
X199299Y155093D01*
X199114Y154973D01*
X198927Y154858D01*
X198736Y154747D01*
X198543Y154640D01*
X198348Y154539D01*
X198149Y154442D01*
X197949Y154350D01*
X197746Y154264D01*
X197542Y154182D01*
X197335Y154105D01*
X197127Y154033D01*
X196917Y153967D01*
X196705Y153905D01*
X196492Y153849D01*
X196278Y153798D01*
X196062Y153753D01*
X195845Y153712D01*
X195628Y153677D01*
X195409Y153648D01*
X195190Y153623D01*
X194971Y153604D01*
X194751Y153591D01*
X194530Y153583D01*
X194310Y153580D01*
X194090Y153583D01*
X193869Y153591D01*
X193649Y153604D01*
X193430Y153623D01*
X193211Y153648D01*
X192992Y153677D01*
X192775Y153712D01*
X192558Y153753D01*
X192342Y153798D01*
X192128Y153849D01*
X191915Y153905D01*
X191703Y153967D01*
X191493Y154033D01*
X191285Y154105D01*
X191078Y154182D01*
X190874Y154264D01*
X190671Y154350D01*
X190471Y154442D01*
X190272Y154539D01*
X190077Y154640D01*
X189884Y154747D01*
X189693Y154858D01*
X189506Y154973D01*
X189321Y155093D01*
X189139Y155218D01*
X188961Y155347D01*
X188785Y155481D01*
X188613Y155618D01*
X188445Y155760D01*
X188279Y155906D01*
X188118Y156056D01*
X187960Y156210D01*
X187806Y156368D01*
X187656Y156529D01*
X187510Y156695D01*
X187368Y156863D01*
X187231Y157035D01*
X187097Y157211D01*
X186968Y157389D01*
X186843Y157571D01*
X186723Y157756D01*
X186608Y157943D01*
X186497Y158134D01*
X186390Y158327D01*
X186289Y158522D01*
X186192Y158721D01*
X186100Y158921D01*
X186014Y159124D01*
X185932Y159328D01*
X185855Y159535D01*
X185783Y159743D01*
X185717Y159953D01*
X185655Y160165D01*
X185599Y160378D01*
X185548Y160592D01*
X185503Y160808D01*
X185462Y161025D01*
X185427Y161242D01*
X185398Y161461D01*
X185373Y161680D01*
X185354Y161899D01*
X185341Y162119D01*
X185333Y162340D01*
X185330Y162560D01*
D12*
X194141Y166624D02*
X196850Y158496D01*
X191431Y158496D02*
X194141Y166624D01*
X192109Y160528D02*
X196173Y160528D01*
D14*
X224790Y79197D03*
D15*
X224790Y85446D03*
X224790Y91669D03*
D16*
X224790Y98019D03*
D17*
X225020Y79197D03*
D18*
X225020Y85446D03*
X225020Y91669D03*
D19*
X225020Y98019D03*
D20*
X225251Y79197D03*
D21*
X225251Y85446D03*
X225251Y91669D03*
D22*
X225251Y98019D03*
D17*
X225482Y79197D03*
D18*
X225482Y85446D03*
X225482Y91669D03*
D19*
X225482Y98019D03*
D20*
X225713Y79197D03*
D21*
X225713Y85446D03*
X225713Y91669D03*
D22*
X225713Y98019D03*
D17*
X225944Y79197D03*
D18*
X225944Y85446D03*
X225944Y91669D03*
D19*
X225944Y98019D03*
D17*
X226176Y79197D03*
D18*
X226176Y85446D03*
X226176Y91669D03*
D19*
X226176Y98019D03*
D20*
X226407Y79197D03*
D21*
X226407Y85446D03*
X226407Y91669D03*
D22*
X226407Y98019D03*
D17*
X226638Y79197D03*
D18*
X226638Y85446D03*
X226638Y91669D03*
D19*
X226638Y98019D03*
D20*
X226869Y79197D03*
D21*
X226869Y85446D03*
X226869Y91669D03*
D22*
X226869Y98019D03*
D17*
X227100Y79197D03*
D18*
X227100Y85446D03*
X227100Y91669D03*
D19*
X227100Y98019D03*
D14*
X227330Y79197D03*
D15*
X227330Y85446D03*
X227330Y91669D03*
D16*
X227330Y98019D03*
D17*
X227560Y79197D03*
D18*
X227560Y85446D03*
X227560Y91669D03*
D19*
X227560Y98019D03*
D23*
X227560Y126429D03*
D20*
X227791Y79197D03*
D21*
X227791Y85446D03*
X227791Y91669D03*
D22*
X227791Y98019D03*
D24*
X227791Y126314D03*
D17*
X228022Y79197D03*
D18*
X228022Y85446D03*
X228022Y91669D03*
D19*
X228022Y98019D03*
D25*
X228022Y126073D03*
D20*
X228253Y79197D03*
D21*
X228253Y85446D03*
X228253Y91669D03*
D22*
X228253Y98019D03*
D26*
X228253Y126073D03*
D17*
X228484Y79197D03*
D18*
X228484Y85446D03*
X228484Y91669D03*
D19*
X228484Y98019D03*
D27*
X228484Y125959D03*
D17*
X228716Y79197D03*
D18*
X228716Y85446D03*
X228716Y91669D03*
D19*
X228716Y98019D03*
D28*
X228716Y125730D03*
D20*
X228947Y79197D03*
D21*
X228947Y85446D03*
X228947Y91669D03*
D22*
X228947Y98019D03*
D29*
X228947Y125730D03*
D30*
X229178Y125501D03*
D31*
X229409Y125032D03*
D17*
X229640Y124003D03*
D32*
X229870Y48031D03*
D33*
X229870Y55880D03*
D34*
X229870Y63614D03*
D35*
X229870Y72631D03*
D14*
X229870Y79197D03*
D15*
X229870Y85446D03*
X229870Y91669D03*
D16*
X229870Y98019D03*
D36*
X229870Y104254D03*
D37*
X229870Y109919D03*
D38*
X229870Y113030D03*
D39*
X229870Y123190D03*
D40*
X229870Y132436D03*
D41*
X230100Y47676D03*
D42*
X230100Y55994D03*
D43*
X230100Y63500D03*
D44*
X230100Y72746D03*
D17*
X230100Y79197D03*
D18*
X230100Y85446D03*
X230100Y91669D03*
D19*
X230100Y98019D03*
D45*
X230100Y104140D03*
D46*
X230100Y110033D03*
D25*
X230100Y113373D03*
D47*
X230100Y122606D03*
D48*
X230100Y132436D03*
D49*
X230331Y47219D03*
D50*
X230331Y56223D03*
X230331Y63157D03*
D20*
X230331Y72974D03*
X230331Y79197D03*
D21*
X230331Y85446D03*
X230331Y91669D03*
D22*
X230331Y98019D03*
D51*
X230331Y103911D03*
D52*
X230331Y110261D03*
D26*
X230331Y113602D03*
D53*
X230331Y122492D03*
D54*
X230331Y132436D03*
D55*
X230562Y46876D03*
D56*
X230562Y56452D03*
D44*
X230562Y63043D03*
D57*
X230562Y73203D03*
D17*
X230562Y79197D03*
D18*
X230562Y85446D03*
X230562Y91669D03*
D19*
X230562Y98019D03*
D58*
X230562Y103797D03*
D59*
X230562Y110490D03*
D46*
X230562Y113716D03*
D60*
X230562Y122619D03*
D48*
X230562Y132436D03*
D61*
X230793Y46647D03*
D20*
X230793Y56566D03*
D62*
X230793Y62929D03*
D31*
X230793Y73317D03*
D20*
X230793Y79197D03*
D21*
X230793Y85446D03*
X230793Y91669D03*
D22*
X230793Y98019D03*
D61*
X230793Y103670D03*
D63*
X230793Y110604D03*
D64*
X230793Y113830D03*
D65*
X230793Y122619D03*
D54*
X230793Y132436D03*
D66*
X231024Y46419D03*
D67*
X231024Y56680D03*
D17*
X231024Y62814D03*
D68*
X231024Y73431D03*
D17*
X231024Y79197D03*
D18*
X231024Y85446D03*
X231024Y91669D03*
D19*
X231024Y98019D03*
D69*
X231024Y103556D03*
D70*
X231024Y110846D03*
D27*
X231024Y113944D03*
D71*
X231024Y122619D03*
D48*
X231024Y132436D03*
D66*
X231256Y46190D03*
D72*
X231256Y56807D03*
D67*
X231256Y62700D03*
D73*
X231256Y73546D03*
D17*
X231256Y79197D03*
D18*
X231256Y85446D03*
X231256Y91669D03*
D19*
X231256Y98019D03*
D69*
X231256Y103556D03*
D27*
X231256Y113944D03*
D74*
X231256Y122504D03*
D48*
X231256Y132436D03*
D61*
X231487Y46190D03*
D64*
X231487Y51270D03*
D75*
X231487Y56807D03*
X231487Y62573D03*
D76*
X231487Y68351D03*
D77*
X231487Y73546D03*
D20*
X231487Y79197D03*
D21*
X231487Y85446D03*
X231487Y91669D03*
D22*
X231487Y98019D03*
D78*
X231487Y103442D03*
D79*
X231487Y108179D03*
D80*
X231487Y114059D03*
D81*
X231487Y122619D03*
D54*
X231487Y132436D03*
D82*
X231718Y45949D03*
D66*
X231718Y51270D03*
D30*
X231718Y56921D03*
D72*
X231718Y62573D03*
D82*
X231718Y68351D03*
X231718Y73660D03*
D17*
X231718Y79197D03*
D18*
X231718Y85446D03*
X231718Y91669D03*
D19*
X231718Y98019D03*
D83*
X231718Y103442D03*
D84*
X231718Y108293D03*
X231718Y114059D03*
D83*
X231718Y120079D03*
D84*
X231718Y125387D03*
D48*
X231718Y132436D03*
D85*
X231949Y45949D03*
D51*
X231949Y51257D03*
D86*
X231949Y56921D03*
D75*
X231949Y62573D03*
D51*
X231949Y68351D03*
D85*
X231949Y73660D03*
D20*
X231949Y79197D03*
D21*
X231949Y85446D03*
X231949Y91669D03*
D22*
X231949Y98019D03*
D78*
X231949Y103442D03*
D49*
X231949Y108407D03*
D87*
X231949Y114186D03*
D88*
X231949Y119736D03*
D64*
X231949Y125616D03*
D54*
X231949Y132436D03*
D82*
X232180Y45949D03*
D57*
X232180Y51257D03*
D30*
X232180Y56921D03*
X232180Y62459D03*
D57*
X232180Y68351D03*
D89*
X232180Y73774D03*
D17*
X232180Y79197D03*
D18*
X232180Y85446D03*
X232180Y91669D03*
D19*
X232180Y98019D03*
D83*
X232180Y103442D03*
D90*
X232180Y108649D03*
D89*
X232180Y114186D03*
D91*
X232180Y119621D03*
D48*
X232180Y125730D03*
X232180Y132436D03*
D92*
X232410Y45834D03*
D93*
X232410Y51143D03*
D94*
X232410Y57036D03*
D95*
X232410Y62459D03*
D96*
X232410Y68351D03*
D92*
X232410Y73774D03*
D14*
X232410Y79197D03*
D15*
X232410Y85446D03*
X232410Y91669D03*
D16*
X232410Y98019D03*
D97*
X232410Y103442D03*
D93*
X232410Y108649D03*
D92*
X232410Y114186D03*
D98*
X232410Y119494D03*
D40*
X232410Y125730D03*
X232410Y132436D03*
D89*
X232640Y45834D03*
D17*
X232640Y51257D03*
D99*
X232640Y57036D03*
D30*
X232640Y62459D03*
D18*
X232640Y68351D03*
D89*
X232640Y73774D03*
D17*
X232640Y79197D03*
D18*
X232640Y85446D03*
X232640Y91669D03*
D19*
X232640Y98019D03*
D83*
X232640Y103442D03*
D17*
X232640Y108763D03*
D89*
X232640Y114186D03*
D100*
X232640Y119494D03*
D48*
X232640Y125959D03*
X232640Y132436D03*
D87*
X232871Y45834D03*
D20*
X232871Y51257D03*
D101*
X232871Y57036D03*
D86*
X232871Y62459D03*
D21*
X232871Y68351D03*
D87*
X232871Y73774D03*
D20*
X232871Y79197D03*
D21*
X232871Y85446D03*
X232871Y91669D03*
D22*
X232871Y98019D03*
D78*
X232871Y103442D03*
D20*
X232871Y108763D03*
D87*
X232871Y114186D03*
D102*
X232871Y119494D03*
D54*
X232871Y125959D03*
X232871Y132436D03*
D89*
X233102Y45834D03*
D17*
X233102Y51257D03*
D99*
X233102Y57036D03*
X233102Y62344D03*
D18*
X233102Y68351D03*
D89*
X233102Y73774D03*
D17*
X233102Y79197D03*
D18*
X233102Y85446D03*
X233102Y91669D03*
D19*
X233102Y98019D03*
D83*
X233102Y103442D03*
D17*
X233102Y108763D03*
D89*
X233102Y114186D03*
D100*
X233102Y119494D03*
D48*
X233102Y125959D03*
X233102Y132436D03*
D87*
X233333Y45834D03*
D20*
X233333Y51257D03*
D101*
X233333Y57036D03*
X233333Y62344D03*
D21*
X233333Y68351D03*
D87*
X233333Y73774D03*
D20*
X233333Y79197D03*
D21*
X233333Y85446D03*
X233333Y91669D03*
D22*
X233333Y98019D03*
D78*
X233333Y103442D03*
D20*
X233333Y108763D03*
D87*
X233333Y114186D03*
D76*
X233333Y119380D03*
D54*
X233333Y125959D03*
X233333Y132436D03*
D89*
X233564Y45834D03*
D17*
X233564Y51257D03*
D99*
X233564Y57036D03*
X233564Y62344D03*
D18*
X233564Y68351D03*
D89*
X233564Y73774D03*
D17*
X233564Y79197D03*
D18*
X233564Y85446D03*
X233564Y91669D03*
D19*
X233564Y98019D03*
D83*
X233564Y103442D03*
D17*
X233564Y108763D03*
D89*
X233564Y114186D03*
D103*
X233564Y119380D03*
D48*
X233564Y125959D03*
X233564Y132436D03*
D89*
X233796Y45834D03*
D17*
X233796Y51257D03*
D99*
X233796Y57036D03*
X233796Y62344D03*
D18*
X233796Y68351D03*
D84*
X233796Y73901D03*
D17*
X233796Y79197D03*
D18*
X233796Y85446D03*
X233796Y91669D03*
D19*
X233796Y98019D03*
D83*
X233796Y103442D03*
D17*
X233796Y108763D03*
D89*
X233796Y114186D03*
D103*
X233796Y119380D03*
D48*
X233796Y125959D03*
X233796Y132436D03*
D87*
X234027Y45834D03*
D20*
X234027Y51257D03*
D101*
X234027Y57036D03*
X234027Y62344D03*
D21*
X234027Y68351D03*
D80*
X234027Y73901D03*
D20*
X234027Y79197D03*
D21*
X234027Y85446D03*
X234027Y91669D03*
D22*
X234027Y98019D03*
D78*
X234027Y103442D03*
D20*
X234027Y108763D03*
D87*
X234027Y114186D03*
D76*
X234027Y119380D03*
D54*
X234027Y125959D03*
X234027Y132436D03*
D89*
X234258Y45834D03*
D17*
X234258Y51257D03*
D99*
X234258Y57036D03*
X234258Y62344D03*
D18*
X234258Y68351D03*
D84*
X234258Y73901D03*
D17*
X234258Y79197D03*
D18*
X234258Y85446D03*
X234258Y91669D03*
D19*
X234258Y98019D03*
D83*
X234258Y103442D03*
D17*
X234258Y108763D03*
D89*
X234258Y114186D03*
D103*
X234258Y119380D03*
D48*
X234258Y125959D03*
X234258Y132436D03*
D87*
X234489Y45834D03*
D20*
X234489Y51257D03*
D101*
X234489Y57036D03*
X234489Y62344D03*
D21*
X234489Y68351D03*
D80*
X234489Y73901D03*
D20*
X234489Y79197D03*
D21*
X234489Y85446D03*
X234489Y91669D03*
D22*
X234489Y98019D03*
D78*
X234489Y103442D03*
D20*
X234489Y108763D03*
D87*
X234489Y114186D03*
D76*
X234489Y119380D03*
D54*
X234489Y125959D03*
X234489Y132436D03*
D89*
X234720Y45834D03*
D17*
X234720Y51257D03*
D99*
X234720Y57036D03*
X234720Y62344D03*
D18*
X234720Y68351D03*
D84*
X234720Y73901D03*
D17*
X234720Y79197D03*
D18*
X234720Y85446D03*
X234720Y91669D03*
D19*
X234720Y98019D03*
D83*
X234720Y103442D03*
D17*
X234720Y108763D03*
D89*
X234720Y114186D03*
D103*
X234720Y119380D03*
D48*
X234720Y125959D03*
X234720Y132436D03*
D92*
X234950Y45834D03*
D14*
X234950Y51257D03*
D94*
X234950Y57036D03*
X234950Y62344D03*
D15*
X234950Y68351D03*
D104*
X234950Y73901D03*
D14*
X234950Y79197D03*
D15*
X234950Y85446D03*
X234950Y91669D03*
D16*
X234950Y98019D03*
D97*
X234950Y103442D03*
D14*
X234950Y108763D03*
D92*
X234950Y114186D03*
D105*
X234950Y119380D03*
D40*
X234950Y125959D03*
X234950Y132436D03*
D89*
X235180Y45834D03*
D17*
X235180Y51257D03*
D99*
X235180Y57036D03*
X235180Y62344D03*
D18*
X235180Y68351D03*
D84*
X235180Y73901D03*
D17*
X235180Y79197D03*
D18*
X235180Y85446D03*
X235180Y91669D03*
D19*
X235180Y98019D03*
D83*
X235180Y103442D03*
D17*
X235180Y108763D03*
D89*
X235180Y114186D03*
D103*
X235180Y119380D03*
D48*
X235180Y125959D03*
X235180Y132436D03*
D87*
X235411Y45834D03*
D20*
X235411Y51257D03*
D101*
X235411Y57036D03*
X235411Y62344D03*
D21*
X235411Y68351D03*
D80*
X235411Y73901D03*
D20*
X235411Y79197D03*
D21*
X235411Y85446D03*
X235411Y91669D03*
D22*
X235411Y98019D03*
D78*
X235411Y103442D03*
D20*
X235411Y108763D03*
D87*
X235411Y114186D03*
D76*
X235411Y119380D03*
D54*
X235411Y125959D03*
X235411Y132436D03*
D89*
X235642Y45834D03*
D17*
X235642Y51257D03*
D99*
X235642Y57036D03*
X235642Y62344D03*
D106*
X235642Y70663D03*
D17*
X235642Y79197D03*
D18*
X235642Y85446D03*
X235642Y91669D03*
D19*
X235642Y98019D03*
D83*
X235642Y103442D03*
D17*
X235642Y108763D03*
D89*
X235642Y114186D03*
D103*
X235642Y119380D03*
D48*
X235642Y125959D03*
X235642Y132436D03*
D87*
X235873Y45834D03*
D20*
X235873Y51257D03*
D101*
X235873Y57036D03*
X235873Y62344D03*
D107*
X235873Y70663D03*
D20*
X235873Y79197D03*
D21*
X235873Y85446D03*
X235873Y91669D03*
D22*
X235873Y98019D03*
D78*
X235873Y103442D03*
D20*
X235873Y108763D03*
D87*
X235873Y114186D03*
D76*
X235873Y119380D03*
D54*
X235873Y125959D03*
X235873Y132436D03*
D89*
X236104Y45834D03*
D67*
X236104Y51143D03*
D99*
X236104Y57036D03*
X236104Y62344D03*
D106*
X236104Y70663D03*
D17*
X236104Y79197D03*
D18*
X236104Y85446D03*
X236104Y91669D03*
D19*
X236104Y98019D03*
D83*
X236104Y103442D03*
D17*
X236104Y108763D03*
D89*
X236104Y114186D03*
D103*
X236104Y119380D03*
D48*
X236104Y125959D03*
X236104Y132436D03*
D108*
X236336Y48832D03*
D99*
X236336Y57036D03*
X236336Y62344D03*
D106*
X236336Y70663D03*
D17*
X236336Y79197D03*
D18*
X236336Y85446D03*
X236336Y91669D03*
D19*
X236336Y98019D03*
D83*
X236336Y103442D03*
D17*
X236336Y108763D03*
D89*
X236336Y114186D03*
D103*
X236336Y119380D03*
D48*
X236336Y125959D03*
X236336Y132436D03*
D109*
X236567Y48832D03*
D101*
X236567Y57036D03*
X236567Y62344D03*
D107*
X236567Y70663D03*
D20*
X236567Y79197D03*
D21*
X236567Y85446D03*
X236567Y91669D03*
D22*
X236567Y98019D03*
D78*
X236567Y103442D03*
D20*
X236567Y108763D03*
D87*
X236567Y114186D03*
D76*
X236567Y119380D03*
D54*
X236567Y125959D03*
X236567Y132436D03*
D110*
X236798Y48717D03*
D30*
X236798Y56921D03*
D99*
X236798Y62344D03*
D106*
X236798Y70663D03*
D17*
X236798Y79197D03*
D18*
X236798Y85446D03*
X236798Y91669D03*
D19*
X236798Y98019D03*
D83*
X236798Y103442D03*
D17*
X236798Y108763D03*
D89*
X236798Y114186D03*
D103*
X236798Y119380D03*
D48*
X236798Y125959D03*
X236798Y132436D03*
D111*
X237029Y48603D03*
D86*
X237029Y56921D03*
D101*
X237029Y62344D03*
D107*
X237029Y70663D03*
D20*
X237029Y79197D03*
D21*
X237029Y85446D03*
X237029Y91669D03*
D22*
X237029Y98019D03*
D78*
X237029Y103442D03*
D20*
X237029Y108763D03*
D87*
X237029Y114186D03*
D76*
X237029Y119380D03*
D54*
X237029Y125959D03*
X237029Y132436D03*
D112*
X237260Y48489D03*
D72*
X237260Y56807D03*
D99*
X237260Y62344D03*
D106*
X237260Y70663D03*
D17*
X237260Y79197D03*
D18*
X237260Y85446D03*
X237260Y91669D03*
D19*
X237260Y98019D03*
D83*
X237260Y103442D03*
D67*
X237260Y108877D03*
D89*
X237260Y114186D03*
D103*
X237260Y119380D03*
D48*
X237260Y125959D03*
X237260Y132436D03*
D113*
X237490Y48260D03*
D114*
X237490Y56807D03*
D94*
X237490Y62344D03*
D115*
X237490Y70663D03*
D14*
X237490Y79197D03*
D15*
X237490Y85446D03*
X237490Y91669D03*
D16*
X237490Y98019D03*
D97*
X237490Y103442D03*
D93*
X237490Y108877D03*
D92*
X237490Y114186D03*
D105*
X237490Y119380D03*
D40*
X237490Y125959D03*
X237490Y132436D03*
D116*
X237720Y48019D03*
D67*
X237720Y56680D03*
D99*
X237720Y62344D03*
D106*
X237720Y70663D03*
D17*
X237720Y79197D03*
D18*
X237720Y85446D03*
X237720Y91669D03*
D19*
X237720Y98019D03*
D69*
X237720Y103556D03*
D57*
X237720Y108991D03*
D89*
X237720Y114186D03*
D103*
X237720Y119380D03*
D48*
X237720Y125959D03*
X237720Y132436D03*
D117*
X237951Y47904D03*
D20*
X237951Y56566D03*
D101*
X237951Y62344D03*
D107*
X237951Y70663D03*
D20*
X237951Y79197D03*
D21*
X237951Y85446D03*
X237951Y91669D03*
D22*
X237951Y98019D03*
D118*
X237951Y103556D03*
D31*
X237951Y109106D03*
D87*
X237951Y114186D03*
D76*
X237951Y119380D03*
D54*
X237951Y125959D03*
X237951Y132436D03*
D119*
X238182Y47676D03*
D56*
X238182Y56452D03*
D99*
X238182Y62344D03*
D106*
X238182Y70663D03*
D17*
X238182Y79197D03*
D18*
X238182Y85446D03*
X238182Y91669D03*
D19*
X238182Y98019D03*
D66*
X238182Y103670D03*
D73*
X238182Y109334D03*
D89*
X238182Y114186D03*
D103*
X238182Y119380D03*
D48*
X238182Y125959D03*
X238182Y132436D03*
D120*
X238413Y47562D03*
D121*
X238413Y56337D03*
D101*
X238413Y62344D03*
D80*
X238413Y73901D03*
D20*
X238413Y79197D03*
D21*
X238413Y85446D03*
X238413Y91669D03*
D22*
X238413Y98019D03*
D61*
X238413Y103670D03*
D122*
X238413Y109576D03*
D87*
X238413Y114186D03*
D76*
X238413Y119380D03*
D54*
X238413Y125959D03*
X238413Y132436D03*
D123*
X238644Y47333D03*
D124*
X238644Y56223D03*
D99*
X238644Y62344D03*
D84*
X238644Y73901D03*
D17*
X238644Y79197D03*
D18*
X238644Y85446D03*
X238644Y91669D03*
D19*
X238644Y98019D03*
D58*
X238644Y103797D03*
D125*
X238644Y109919D03*
D89*
X238644Y114186D03*
D103*
X238644Y119380D03*
D48*
X238644Y125959D03*
X238644Y132436D03*
D126*
X238876Y47104D03*
D42*
X238876Y55994D03*
D99*
X238876Y62344D03*
D84*
X238876Y73901D03*
D17*
X238876Y79197D03*
D18*
X238876Y85446D03*
X238876Y91669D03*
D19*
X238876Y98019D03*
D68*
X238876Y103911D03*
D127*
X238876Y110147D03*
D89*
X238876Y114186D03*
D103*
X238876Y119380D03*
D48*
X238876Y125959D03*
X238876Y132436D03*
D128*
X239107Y46990D03*
D129*
X239107Y55880D03*
D101*
X239107Y62344D03*
D80*
X239107Y73901D03*
D20*
X239107Y79197D03*
D21*
X239107Y85446D03*
X239107Y91669D03*
D22*
X239107Y98019D03*
D130*
X239107Y104140D03*
D131*
X239107Y110490D03*
D87*
X239107Y114186D03*
D76*
X239107Y119380D03*
D54*
X239107Y125959D03*
X239107Y132436D03*
D132*
X239338Y46749D03*
D133*
X239338Y55651D03*
D99*
X239338Y62344D03*
D84*
X239338Y73901D03*
D17*
X239338Y79197D03*
D18*
X239338Y85446D03*
X239338Y91669D03*
D19*
X239338Y98019D03*
D18*
X239338Y104369D03*
D70*
X239338Y110846D03*
D89*
X239338Y114186D03*
D103*
X239338Y119380D03*
D48*
X239338Y125959D03*
X239338Y132436D03*
D21*
X239569Y46634D03*
D65*
X239569Y55410D03*
D101*
X239569Y62344D03*
D80*
X239569Y73901D03*
D20*
X239569Y79197D03*
D21*
X239569Y85446D03*
X239569Y91669D03*
D22*
X239569Y98019D03*
D121*
X239569Y104597D03*
D87*
X239569Y114186D03*
D76*
X239569Y119380D03*
D54*
X239569Y125959D03*
X239569Y132436D03*
D57*
X239800Y46406D03*
D134*
X239800Y55296D03*
D99*
X239800Y62344D03*
D84*
X239800Y73901D03*
D17*
X239800Y79197D03*
D18*
X239800Y85446D03*
X239800Y91669D03*
D19*
X239800Y98019D03*
D47*
X239800Y104826D03*
D89*
X239800Y114186D03*
D103*
X239800Y119380D03*
D48*
X239800Y125959D03*
X239800Y132436D03*
D135*
X240030Y46292D03*
D136*
X240030Y55067D03*
D94*
X240030Y62344D03*
D15*
X240030Y68351D03*
D104*
X240030Y73901D03*
D14*
X240030Y79197D03*
D15*
X240030Y85446D03*
X240030Y91669D03*
D16*
X240030Y98019D03*
D137*
X240030Y105181D03*
D92*
X240030Y114186D03*
D105*
X240030Y119380D03*
D40*
X240030Y125959D03*
X240030Y132436D03*
D68*
X240260Y46177D03*
D138*
X240260Y54953D03*
D99*
X240260Y62344D03*
D18*
X240260Y68351D03*
D84*
X240260Y73901D03*
D17*
X240260Y79197D03*
D18*
X240260Y85446D03*
X240260Y91669D03*
D19*
X240260Y98019D03*
D139*
X240260Y105524D03*
D89*
X240260Y114186D03*
D103*
X240260Y119380D03*
D48*
X240260Y125959D03*
X240260Y132436D03*
D51*
X240491Y46177D03*
D140*
X240491Y54724D03*
D101*
X240491Y62344D03*
D21*
X240491Y68351D03*
D80*
X240491Y73901D03*
D20*
X240491Y79197D03*
D21*
X240491Y85446D03*
X240491Y91669D03*
D22*
X240491Y98019D03*
D141*
X240491Y105753D03*
D87*
X240491Y114186D03*
D76*
X240491Y119380D03*
D54*
X240491Y125959D03*
X240491Y132436D03*
D58*
X240722Y46063D03*
D142*
X240722Y54496D03*
D99*
X240722Y62344D03*
D18*
X240722Y68351D03*
D84*
X240722Y73901D03*
D17*
X240722Y79197D03*
D18*
X240722Y85446D03*
X240722Y91669D03*
D19*
X240722Y98019D03*
D143*
X240722Y106096D03*
D89*
X240722Y114186D03*
D103*
X240722Y119380D03*
D48*
X240722Y125959D03*
X240722Y132436D03*
D85*
X240953Y45949D03*
D144*
X240953Y54381D03*
D101*
X240953Y62344D03*
D21*
X240953Y68351D03*
D80*
X240953Y73901D03*
D20*
X240953Y79197D03*
D21*
X240953Y85446D03*
X240953Y91669D03*
D22*
X240953Y98019D03*
D145*
X240953Y106451D03*
D87*
X240953Y114186D03*
D76*
X240953Y119380D03*
D54*
X240953Y125959D03*
X240953Y132436D03*
D82*
X241184Y45949D03*
D146*
X241184Y54267D03*
D99*
X241184Y62344D03*
D18*
X241184Y68351D03*
D84*
X241184Y73901D03*
D17*
X241184Y79197D03*
D18*
X241184Y85446D03*
X241184Y91669D03*
D19*
X241184Y98019D03*
D108*
X241184Y106566D03*
D89*
X241184Y114186D03*
D103*
X241184Y119380D03*
D48*
X241184Y125959D03*
X241184Y132436D03*
D82*
X241416Y45949D03*
D147*
X241416Y54140D03*
D99*
X241416Y62344D03*
D18*
X241416Y68351D03*
D84*
X241416Y73901D03*
D17*
X241416Y79197D03*
D18*
X241416Y85446D03*
X241416Y91669D03*
D19*
X241416Y98019D03*
D108*
X241416Y106566D03*
D89*
X241416Y114186D03*
D103*
X241416Y119380D03*
D48*
X241416Y125959D03*
X241416Y132436D03*
D87*
X241647Y45834D03*
D148*
X241647Y54026D03*
D101*
X241647Y62344D03*
D21*
X241647Y68351D03*
D80*
X241647Y73901D03*
D20*
X241647Y79197D03*
D21*
X241647Y85446D03*
X241647Y91669D03*
D22*
X241647Y98019D03*
D109*
X241647Y106566D03*
D87*
X241647Y114186D03*
D76*
X241647Y119380D03*
D54*
X241647Y125959D03*
X241647Y132436D03*
D89*
X241878Y45834D03*
D149*
X241878Y54026D03*
D99*
X241878Y62344D03*
D18*
X241878Y68351D03*
D84*
X241878Y73901D03*
D17*
X241878Y79197D03*
D18*
X241878Y85446D03*
X241878Y91669D03*
D19*
X241878Y98019D03*
D108*
X241878Y106566D03*
D89*
X241878Y114186D03*
D103*
X241878Y119380D03*
D48*
X241878Y125959D03*
X241878Y132436D03*
D87*
X242109Y45834D03*
D20*
X242109Y51257D03*
D101*
X242109Y57036D03*
X242109Y62344D03*
D21*
X242109Y68351D03*
D80*
X242109Y73901D03*
D20*
X242109Y79197D03*
D21*
X242109Y85446D03*
X242109Y91669D03*
D22*
X242109Y98019D03*
D109*
X242109Y106566D03*
D87*
X242109Y114186D03*
D76*
X242109Y119380D03*
D54*
X242109Y125959D03*
X242109Y132436D03*
D89*
X242340Y45834D03*
D17*
X242340Y51257D03*
D99*
X242340Y57036D03*
X242340Y62344D03*
D18*
X242340Y68351D03*
D84*
X242340Y73901D03*
D17*
X242340Y79197D03*
D18*
X242340Y85446D03*
X242340Y91669D03*
D19*
X242340Y98019D03*
D83*
X242340Y103442D03*
D67*
X242340Y108877D03*
D89*
X242340Y114186D03*
D103*
X242340Y119380D03*
D48*
X242340Y125959D03*
X242340Y132436D03*
D92*
X242570Y45834D03*
D14*
X242570Y51257D03*
D94*
X242570Y57036D03*
X242570Y62344D03*
D15*
X242570Y68351D03*
D104*
X242570Y73901D03*
D14*
X242570Y79197D03*
D15*
X242570Y85446D03*
X242570Y91669D03*
D16*
X242570Y98019D03*
D97*
X242570Y103442D03*
D93*
X242570Y108877D03*
D92*
X242570Y114186D03*
D105*
X242570Y119380D03*
D40*
X242570Y125959D03*
X242570Y132436D03*
D89*
X242800Y45834D03*
D17*
X242800Y51257D03*
D99*
X242800Y57036D03*
X242800Y62344D03*
D18*
X242800Y68351D03*
D84*
X242800Y73901D03*
D17*
X242800Y79197D03*
D18*
X242800Y85446D03*
X242800Y91669D03*
D19*
X242800Y98019D03*
D83*
X242800Y103442D03*
D67*
X242800Y108877D03*
D89*
X242800Y114186D03*
D103*
X242800Y119380D03*
D48*
X242800Y125959D03*
X242800Y132436D03*
D87*
X243031Y45834D03*
D20*
X243031Y51257D03*
D101*
X243031Y57036D03*
X243031Y62344D03*
D21*
X243031Y68351D03*
D80*
X243031Y73901D03*
D20*
X243031Y79197D03*
D21*
X243031Y85446D03*
X243031Y91669D03*
D22*
X243031Y98019D03*
D78*
X243031Y103442D03*
D150*
X243031Y108877D03*
D87*
X243031Y114186D03*
D76*
X243031Y119380D03*
D54*
X243031Y125959D03*
X243031Y132436D03*
D89*
X243262Y45834D03*
D17*
X243262Y51257D03*
D99*
X243262Y57036D03*
X243262Y62344D03*
D18*
X243262Y68351D03*
D84*
X243262Y73901D03*
D17*
X243262Y79197D03*
D18*
X243262Y85446D03*
X243262Y91669D03*
D19*
X243262Y98019D03*
D83*
X243262Y103442D03*
D67*
X243262Y108877D03*
D89*
X243262Y114186D03*
D103*
X243262Y119380D03*
D48*
X243262Y125959D03*
X243262Y132436D03*
D87*
X243493Y45834D03*
D20*
X243493Y51257D03*
D101*
X243493Y57036D03*
X243493Y62344D03*
D21*
X243493Y68351D03*
D80*
X243493Y73901D03*
D20*
X243493Y79197D03*
D21*
X243493Y85446D03*
X243493Y91669D03*
D22*
X243493Y98019D03*
D78*
X243493Y103442D03*
D150*
X243493Y108877D03*
D87*
X243493Y114186D03*
D76*
X243493Y119380D03*
D54*
X243493Y125959D03*
X243493Y132436D03*
D89*
X243724Y45834D03*
D17*
X243724Y51257D03*
D99*
X243724Y57036D03*
X243724Y62344D03*
D18*
X243724Y68351D03*
D84*
X243724Y73901D03*
D17*
X243724Y79197D03*
D18*
X243724Y85446D03*
X243724Y91669D03*
D19*
X243724Y98019D03*
D83*
X243724Y103442D03*
D67*
X243724Y108877D03*
D89*
X243724Y114186D03*
D103*
X243724Y119380D03*
D48*
X243724Y125959D03*
X243724Y132436D03*
D89*
X243956Y45834D03*
D17*
X243956Y51257D03*
D99*
X243956Y57036D03*
X243956Y62344D03*
D18*
X243956Y68351D03*
D84*
X243956Y73901D03*
D17*
X243956Y79197D03*
D18*
X243956Y85446D03*
X243956Y91669D03*
D19*
X243956Y98019D03*
D83*
X243956Y103442D03*
D67*
X243956Y108877D03*
D89*
X243956Y114186D03*
D103*
X243956Y119380D03*
D48*
X243956Y125959D03*
X243956Y132436D03*
D87*
X244187Y45834D03*
D20*
X244187Y51257D03*
D101*
X244187Y57036D03*
X244187Y62344D03*
D21*
X244187Y68351D03*
D80*
X244187Y73901D03*
D20*
X244187Y79197D03*
D21*
X244187Y85446D03*
X244187Y91669D03*
D22*
X244187Y98019D03*
D78*
X244187Y103442D03*
D150*
X244187Y108877D03*
D87*
X244187Y114186D03*
D76*
X244187Y119380D03*
D54*
X244187Y125959D03*
X244187Y132436D03*
D89*
X244418Y45834D03*
D17*
X244418Y51257D03*
D99*
X244418Y57036D03*
X244418Y62344D03*
D18*
X244418Y68351D03*
D89*
X244418Y73774D03*
D17*
X244418Y79197D03*
D18*
X244418Y85446D03*
X244418Y91669D03*
D19*
X244418Y98019D03*
D83*
X244418Y103442D03*
D67*
X244418Y108877D03*
D89*
X244418Y114186D03*
D103*
X244418Y119380D03*
D48*
X244418Y125959D03*
X244418Y132436D03*
D87*
X244649Y45834D03*
D20*
X244649Y51257D03*
D101*
X244649Y57036D03*
X244649Y62344D03*
D21*
X244649Y68351D03*
D87*
X244649Y73774D03*
D20*
X244649Y79197D03*
D21*
X244649Y85446D03*
X244649Y91669D03*
D22*
X244649Y98019D03*
D78*
X244649Y103442D03*
D150*
X244649Y108877D03*
D87*
X244649Y114186D03*
D76*
X244649Y119380D03*
D54*
X244649Y125959D03*
X244649Y132436D03*
D89*
X244880Y45834D03*
D17*
X244880Y51257D03*
D99*
X244880Y57036D03*
X244880Y62344D03*
D18*
X244880Y68351D03*
D89*
X244880Y73774D03*
D17*
X244880Y79197D03*
D18*
X244880Y85446D03*
X244880Y91669D03*
D19*
X244880Y98019D03*
D69*
X244880Y103556D03*
D67*
X244880Y108877D03*
D89*
X244880Y114186D03*
D103*
X244880Y119380D03*
D48*
X244880Y125959D03*
X244880Y132436D03*
D92*
X245110Y45834D03*
D14*
X245110Y51257D03*
D94*
X245110Y57036D03*
D95*
X245110Y62459D03*
D15*
X245110Y68351D03*
D92*
X245110Y73774D03*
D14*
X245110Y79197D03*
D15*
X245110Y85446D03*
X245110Y91669D03*
D16*
X245110Y98019D03*
D151*
X245110Y103556D03*
D93*
X245110Y108877D03*
D92*
X245110Y114186D03*
D105*
X245110Y119380D03*
D40*
X245110Y125959D03*
X245110Y132436D03*
D89*
X245340Y45834D03*
D67*
X245340Y51143D03*
D99*
X245340Y57036D03*
D30*
X245340Y62459D03*
D67*
X245340Y68237D03*
D89*
X245340Y73774D03*
D17*
X245340Y79197D03*
D18*
X245340Y85446D03*
X245340Y91669D03*
D19*
X245340Y98019D03*
D69*
X245340Y103556D03*
D57*
X245340Y108763D03*
D89*
X245340Y114186D03*
D103*
X245340Y119380D03*
D48*
X245340Y125959D03*
X245340Y132436D03*
D87*
X245571Y45834D03*
D152*
X245571Y51257D03*
D86*
X245571Y56921D03*
X245571Y62459D03*
D152*
X245571Y68351D03*
D87*
X245571Y73774D03*
D150*
X245571Y79312D03*
X245571Y85560D03*
X245571Y91783D03*
D75*
X245571Y98133D03*
D118*
X245571Y103556D03*
D152*
X245571Y108763D03*
D85*
X245571Y114071D03*
D76*
X245571Y119380D03*
D54*
X245571Y125959D03*
X245571Y132436D03*
D82*
X245802Y45949D03*
D57*
X245802Y51257D03*
D30*
X245802Y56921D03*
X245802Y62459D03*
D57*
X245802Y68351D03*
D89*
X245802Y73774D03*
D99*
X245802Y79439D03*
X245802Y85662D03*
D68*
X245802Y91897D03*
D30*
X245802Y98247D03*
D66*
X245802Y103442D03*
D68*
X245802Y108763D03*
D82*
X245802Y114071D03*
D103*
X245802Y119380D03*
D48*
X245802Y125959D03*
X245802Y132436D03*
D85*
X246033Y45949D03*
D51*
X246033Y51257D03*
D86*
X246033Y56921D03*
D75*
X246033Y62573D03*
D51*
X246033Y68351D03*
D85*
X246033Y73660D03*
D61*
X246033Y79667D03*
D49*
X246033Y85776D03*
D61*
X246033Y92139D03*
X246033Y98362D03*
D49*
X246033Y103556D03*
D153*
X246033Y108877D03*
D85*
X246033Y114071D03*
D76*
X246033Y119380D03*
D54*
X246033Y125959D03*
X246033Y132436D03*
D82*
X246264Y45949D03*
D66*
X246264Y51270D03*
D72*
X246264Y56807D03*
X246264Y62573D03*
D84*
X246264Y68339D03*
D82*
X246264Y73660D03*
D91*
X246264Y79667D03*
X246264Y85890D03*
D27*
X246264Y92253D03*
X246264Y98476D03*
D41*
X246264Y103556D03*
D84*
X246264Y108750D03*
D58*
X246264Y113957D03*
D103*
X246264Y119380D03*
D48*
X246264Y125959D03*
X246264Y132436D03*
D58*
X246496Y46063D03*
D127*
X246496Y51270D03*
D100*
X246496Y55766D03*
D91*
X246496Y63741D03*
D154*
X246496Y68351D03*
D73*
X246496Y73546D03*
D155*
X246496Y79896D03*
D156*
X246496Y85903D03*
D157*
X246496Y92367D03*
D156*
X246496Y98603D03*
D68*
X246496Y103683D03*
D158*
X246496Y108877D03*
D58*
X246496Y113957D03*
D103*
X246496Y119380D03*
D48*
X246496Y125959D03*
X246496Y132436D03*
D51*
X246727Y46177D03*
D64*
X246727Y55639D03*
X246727Y63741D03*
D77*
X246727Y73546D03*
D159*
X246727Y77114D03*
D160*
X246727Y83134D03*
X246727Y89357D03*
D159*
X246727Y95606D03*
D31*
X246727Y103569D03*
D51*
X246727Y113843D03*
D76*
X246727Y119380D03*
D54*
X246727Y125959D03*
X246727Y132436D03*
D68*
X246958Y46177D03*
D91*
X246958Y55639D03*
D27*
X246958Y63856D03*
D68*
X246958Y73431D03*
D161*
X246958Y77241D03*
D156*
X246958Y83134D03*
X246958Y89357D03*
D162*
X246958Y95707D03*
D57*
X246958Y103683D03*
D68*
X246958Y113843D03*
D103*
X246958Y119380D03*
D48*
X246958Y125959D03*
X246958Y132436D03*
D31*
X247189Y46292D03*
D88*
X247189Y55524D03*
D80*
X247189Y63970D03*
D31*
X247189Y73317D03*
D63*
X247189Y77356D03*
D52*
X247189Y83236D03*
D163*
X247189Y89599D03*
X247189Y95822D03*
D20*
X247189Y103683D03*
D31*
X247189Y113729D03*
D76*
X247189Y119380D03*
D54*
X247189Y125959D03*
X247189Y132436D03*
D57*
X247420Y46406D03*
D84*
X247420Y55410D03*
D69*
X247420Y64084D03*
D57*
X247420Y73203D03*
D25*
X247420Y77584D03*
D46*
X247420Y83236D03*
D127*
X247420Y89599D03*
X247420Y95822D03*
D44*
X247420Y103683D03*
D67*
X247420Y113500D03*
D103*
X247420Y119380D03*
D48*
X247420Y125959D03*
X247420Y132436D03*
D15*
X247650Y46634D03*
D164*
X247650Y55182D03*
D165*
X247650Y64313D03*
D14*
X247650Y72974D03*
D166*
X247650Y77699D03*
D104*
X247650Y83350D03*
D97*
X247650Y89599D03*
X247650Y95822D03*
D167*
X247650Y103797D03*
D15*
X247650Y113386D03*
D98*
X247650Y119494D03*
D40*
X247650Y125959D03*
X247650Y132436D03*
D44*
X247880Y46863D03*
D99*
X247880Y54953D03*
D30*
X247880Y64541D03*
D124*
X247880Y72631D03*
D125*
X247880Y78042D03*
D68*
X247880Y83363D03*
D99*
X247880Y89599D03*
D90*
X247880Y95949D03*
D168*
X247880Y103797D03*
D169*
X247880Y113030D03*
D100*
X247880Y119494D03*
D48*
X247880Y125959D03*
X247880Y132436D03*
D170*
X248111Y51600D03*
D171*
X248111Y88100D03*
D102*
X248111Y119494D03*
D54*
X248111Y125959D03*
X248111Y132436D03*
D172*
X248342Y51600D03*
D173*
X248342Y88100D03*
D100*
X248342Y119494D03*
D48*
X248342Y125959D03*
X248342Y132436D03*
D170*
X248573Y51600D03*
D171*
X248573Y88100D03*
D102*
X248573Y119494D03*
D64*
X248573Y125844D03*
D54*
X248573Y132436D03*
D172*
X248804Y51600D03*
D173*
X248804Y88100D03*
D91*
X248804Y119621D03*
X248804Y125844D03*
D48*
X248804Y132436D03*
D172*
X249036Y51600D03*
D173*
X249036Y88100D03*
D27*
X249036Y119736D03*
D91*
X249036Y125616D03*
D48*
X249036Y132436D03*
D170*
X249267Y51600D03*
D174*
X249267Y87973D03*
D78*
X249267Y120079D03*
D80*
X249267Y125387D03*
D145*
X249267Y132537D03*
D175*
X249498Y51727D03*
D176*
X249498Y87973D03*
D143*
X249498Y122733D03*
D110*
X249498Y132537D03*
D177*
X249729Y51727D03*
D178*
X249729Y87859D03*
D179*
X249729Y122733D03*
D145*
X249729Y132537D03*
D180*
X249960Y51841D03*
D181*
X249960Y87859D03*
D74*
X249960Y122733D03*
D110*
X249960Y132537D03*
D182*
X250190Y51956D03*
D183*
X250190Y87744D03*
D184*
X250190Y122733D03*
D185*
X250190Y132537D03*
D186*
X250420Y52070D03*
D187*
X250420Y87630D03*
D119*
X250420Y122733D03*
D110*
X250420Y132537D03*
D188*
X250651Y52184D03*
D189*
X250651Y87516D03*
D190*
X250651Y122733D03*
D145*
X250651Y132537D03*
D191*
X250882Y52413D03*
D192*
X250882Y87287D03*
D47*
X250882Y122606D03*
D110*
X250882Y132537D03*
D193*
X251113Y52756D03*
D194*
X251113Y86944D03*
D150*
X251113Y122720D03*
D145*
X251113Y132537D03*
D14*
X29210Y98603D03*
D15*
X29210Y92354D03*
X29210Y86131D03*
D16*
X29210Y79781D03*
D17*
X28980Y98603D03*
D18*
X28980Y92354D03*
X28980Y86131D03*
D19*
X28980Y79781D03*
D20*
X28749Y98603D03*
D21*
X28749Y92354D03*
X28749Y86131D03*
D22*
X28749Y79781D03*
D17*
X28518Y98603D03*
D18*
X28518Y92354D03*
X28518Y86131D03*
D19*
X28518Y79781D03*
D20*
X28287Y98603D03*
D21*
X28287Y92354D03*
X28287Y86131D03*
D22*
X28287Y79781D03*
D17*
X28056Y98603D03*
D18*
X28056Y92354D03*
X28056Y86131D03*
D19*
X28056Y79781D03*
D17*
X27824Y98603D03*
D18*
X27824Y92354D03*
X27824Y86131D03*
D19*
X27824Y79781D03*
D20*
X27593Y98603D03*
D21*
X27593Y92354D03*
X27593Y86131D03*
D22*
X27593Y79781D03*
D17*
X27362Y98603D03*
D18*
X27362Y92354D03*
X27362Y86131D03*
D19*
X27362Y79781D03*
D20*
X27131Y98603D03*
D21*
X27131Y92354D03*
X27131Y86131D03*
D22*
X27131Y79781D03*
D17*
X26900Y98603D03*
D18*
X26900Y92354D03*
X26900Y86131D03*
D19*
X26900Y79781D03*
D14*
X26670Y98603D03*
D15*
X26670Y92354D03*
X26670Y86131D03*
D16*
X26670Y79781D03*
D17*
X26440Y98603D03*
D18*
X26440Y92354D03*
X26440Y86131D03*
D19*
X26440Y79781D03*
D23*
X26440Y51372D03*
D20*
X26209Y98603D03*
D21*
X26209Y92354D03*
X26209Y86131D03*
D22*
X26209Y79781D03*
D24*
X26209Y51486D03*
D17*
X25978Y98603D03*
D18*
X25978Y92354D03*
X25978Y86131D03*
D19*
X25978Y79781D03*
D25*
X25978Y51727D03*
D20*
X25747Y98603D03*
D21*
X25747Y92354D03*
X25747Y86131D03*
D22*
X25747Y79781D03*
D26*
X25747Y51727D03*
D17*
X25516Y98603D03*
D18*
X25516Y92354D03*
X25516Y86131D03*
D19*
X25516Y79781D03*
D27*
X25516Y51841D03*
D17*
X25284Y98603D03*
D18*
X25284Y92354D03*
X25284Y86131D03*
D19*
X25284Y79781D03*
D28*
X25284Y52070D03*
D20*
X25053Y98603D03*
D21*
X25053Y92354D03*
X25053Y86131D03*
D22*
X25053Y79781D03*
D29*
X25053Y52070D03*
D30*
X24822Y52299D03*
D31*
X24591Y52769D03*
D17*
X24360Y53797D03*
D32*
X24130Y129769D03*
D33*
X24130Y121920D03*
D34*
X24130Y114186D03*
D35*
X24130Y105169D03*
D14*
X24130Y98603D03*
D15*
X24130Y92354D03*
X24130Y86131D03*
D16*
X24130Y79781D03*
D36*
X24130Y73546D03*
D37*
X24130Y67882D03*
D38*
X24130Y64770D03*
D39*
X24130Y54610D03*
D40*
X24130Y45364D03*
D41*
X23900Y130124D03*
D42*
X23900Y121806D03*
D43*
X23900Y114300D03*
D44*
X23900Y105054D03*
D17*
X23900Y98603D03*
D18*
X23900Y92354D03*
X23900Y86131D03*
D19*
X23900Y79781D03*
D45*
X23900Y73660D03*
D46*
X23900Y67767D03*
D25*
X23900Y64427D03*
D47*
X23900Y55194D03*
D48*
X23900Y45364D03*
D49*
X23669Y130581D03*
D50*
X23669Y121577D03*
X23669Y114643D03*
D20*
X23669Y104826D03*
X23669Y98603D03*
D21*
X23669Y92354D03*
X23669Y86131D03*
D22*
X23669Y79781D03*
D51*
X23669Y73889D03*
D52*
X23669Y67539D03*
D26*
X23669Y64199D03*
D53*
X23669Y55309D03*
D54*
X23669Y45364D03*
D55*
X23438Y130924D03*
D56*
X23438Y121349D03*
D44*
X23438Y114757D03*
D57*
X23438Y104597D03*
D17*
X23438Y98603D03*
D18*
X23438Y92354D03*
X23438Y86131D03*
D19*
X23438Y79781D03*
D58*
X23438Y74003D03*
D59*
X23438Y67310D03*
D46*
X23438Y64084D03*
D60*
X23438Y55182D03*
D48*
X23438Y45364D03*
D61*
X23207Y131153D03*
D20*
X23207Y121234D03*
D62*
X23207Y114872D03*
D31*
X23207Y104483D03*
D20*
X23207Y98603D03*
D21*
X23207Y92354D03*
X23207Y86131D03*
D22*
X23207Y79781D03*
D61*
X23207Y74130D03*
D63*
X23207Y67196D03*
D64*
X23207Y63970D03*
D65*
X23207Y55182D03*
D54*
X23207Y45364D03*
D66*
X22976Y131382D03*
D67*
X22976Y121120D03*
D17*
X22976Y114986D03*
D68*
X22976Y104369D03*
D17*
X22976Y98603D03*
D18*
X22976Y92354D03*
X22976Y86131D03*
D19*
X22976Y79781D03*
D69*
X22976Y74244D03*
D70*
X22976Y66954D03*
D27*
X22976Y63856D03*
D71*
X22976Y55182D03*
D48*
X22976Y45364D03*
D66*
X22744Y131610D03*
D72*
X22744Y120993D03*
D67*
X22744Y115100D03*
D73*
X22744Y104254D03*
D17*
X22744Y98603D03*
D18*
X22744Y92354D03*
X22744Y86131D03*
D19*
X22744Y79781D03*
D69*
X22744Y74244D03*
D27*
X22744Y63856D03*
D74*
X22744Y55296D03*
D48*
X22744Y45364D03*
D61*
X22513Y131610D03*
D64*
X22513Y126530D03*
D75*
X22513Y120993D03*
X22513Y115227D03*
D76*
X22513Y109449D03*
D77*
X22513Y104254D03*
D20*
X22513Y98603D03*
D21*
X22513Y92354D03*
X22513Y86131D03*
D22*
X22513Y79781D03*
D78*
X22513Y74359D03*
D79*
X22513Y69621D03*
D80*
X22513Y63741D03*
D81*
X22513Y55182D03*
D54*
X22513Y45364D03*
D82*
X22282Y131851D03*
D66*
X22282Y126530D03*
D30*
X22282Y120879D03*
D72*
X22282Y115227D03*
D82*
X22282Y109449D03*
X22282Y104140D03*
D17*
X22282Y98603D03*
D18*
X22282Y92354D03*
X22282Y86131D03*
D19*
X22282Y79781D03*
D83*
X22282Y74359D03*
D84*
X22282Y69507D03*
X22282Y63741D03*
D83*
X22282Y57722D03*
D84*
X22282Y52413D03*
D48*
X22282Y45364D03*
D85*
X22051Y131851D03*
D51*
X22051Y126543D03*
D86*
X22051Y120879D03*
D75*
X22051Y115227D03*
D51*
X22051Y109449D03*
D85*
X22051Y104140D03*
D20*
X22051Y98603D03*
D21*
X22051Y92354D03*
X22051Y86131D03*
D22*
X22051Y79781D03*
D78*
X22051Y74359D03*
D49*
X22051Y69393D03*
D87*
X22051Y63614D03*
D88*
X22051Y58064D03*
D64*
X22051Y52184D03*
D54*
X22051Y45364D03*
D82*
X21820Y131851D03*
D57*
X21820Y126543D03*
D30*
X21820Y120879D03*
X21820Y115341D03*
D57*
X21820Y109449D03*
D89*
X21820Y104026D03*
D17*
X21820Y98603D03*
D18*
X21820Y92354D03*
X21820Y86131D03*
D19*
X21820Y79781D03*
D83*
X21820Y74359D03*
D90*
X21820Y69152D03*
D89*
X21820Y63614D03*
D91*
X21820Y58179D03*
D48*
X21820Y52070D03*
X21820Y45364D03*
D92*
X21590Y131966D03*
D93*
X21590Y126657D03*
D94*
X21590Y120764D03*
D95*
X21590Y115341D03*
D96*
X21590Y109449D03*
D92*
X21590Y104026D03*
D14*
X21590Y98603D03*
D15*
X21590Y92354D03*
X21590Y86131D03*
D16*
X21590Y79781D03*
D97*
X21590Y74359D03*
D93*
X21590Y69152D03*
D92*
X21590Y63614D03*
D98*
X21590Y58306D03*
D40*
X21590Y52070D03*
X21590Y45364D03*
D89*
X21360Y131966D03*
D17*
X21360Y126543D03*
D99*
X21360Y120764D03*
D30*
X21360Y115341D03*
D18*
X21360Y109449D03*
D89*
X21360Y104026D03*
D17*
X21360Y98603D03*
D18*
X21360Y92354D03*
X21360Y86131D03*
D19*
X21360Y79781D03*
D83*
X21360Y74359D03*
D17*
X21360Y69037D03*
D89*
X21360Y63614D03*
D100*
X21360Y58306D03*
D48*
X21360Y51841D03*
X21360Y45364D03*
D87*
X21129Y131966D03*
D20*
X21129Y126543D03*
D101*
X21129Y120764D03*
D86*
X21129Y115341D03*
D21*
X21129Y109449D03*
D87*
X21129Y104026D03*
D20*
X21129Y98603D03*
D21*
X21129Y92354D03*
X21129Y86131D03*
D22*
X21129Y79781D03*
D78*
X21129Y74359D03*
D20*
X21129Y69037D03*
D87*
X21129Y63614D03*
D102*
X21129Y58306D03*
D54*
X21129Y51841D03*
X21129Y45364D03*
D89*
X20898Y131966D03*
D17*
X20898Y126543D03*
D99*
X20898Y120764D03*
X20898Y115456D03*
D18*
X20898Y109449D03*
D89*
X20898Y104026D03*
D17*
X20898Y98603D03*
D18*
X20898Y92354D03*
X20898Y86131D03*
D19*
X20898Y79781D03*
D83*
X20898Y74359D03*
D17*
X20898Y69037D03*
D89*
X20898Y63614D03*
D100*
X20898Y58306D03*
D48*
X20898Y51841D03*
X20898Y45364D03*
D87*
X20667Y131966D03*
D20*
X20667Y126543D03*
D101*
X20667Y120764D03*
X20667Y115456D03*
D21*
X20667Y109449D03*
D87*
X20667Y104026D03*
D20*
X20667Y98603D03*
D21*
X20667Y92354D03*
X20667Y86131D03*
D22*
X20667Y79781D03*
D78*
X20667Y74359D03*
D20*
X20667Y69037D03*
D87*
X20667Y63614D03*
D76*
X20667Y58420D03*
D54*
X20667Y51841D03*
X20667Y45364D03*
D89*
X20436Y131966D03*
D17*
X20436Y126543D03*
D99*
X20436Y120764D03*
X20436Y115456D03*
D18*
X20436Y109449D03*
D89*
X20436Y104026D03*
D17*
X20436Y98603D03*
D18*
X20436Y92354D03*
X20436Y86131D03*
D19*
X20436Y79781D03*
D83*
X20436Y74359D03*
D17*
X20436Y69037D03*
D89*
X20436Y63614D03*
D103*
X20436Y58420D03*
D48*
X20436Y51841D03*
X20436Y45364D03*
D89*
X20204Y131966D03*
D17*
X20204Y126543D03*
D99*
X20204Y120764D03*
X20204Y115456D03*
D18*
X20204Y109449D03*
D84*
X20204Y103899D03*
D17*
X20204Y98603D03*
D18*
X20204Y92354D03*
X20204Y86131D03*
D19*
X20204Y79781D03*
D83*
X20204Y74359D03*
D17*
X20204Y69037D03*
D89*
X20204Y63614D03*
D103*
X20204Y58420D03*
D48*
X20204Y51841D03*
X20204Y45364D03*
D87*
X19973Y131966D03*
D20*
X19973Y126543D03*
D101*
X19973Y120764D03*
X19973Y115456D03*
D21*
X19973Y109449D03*
D80*
X19973Y103899D03*
D20*
X19973Y98603D03*
D21*
X19973Y92354D03*
X19973Y86131D03*
D22*
X19973Y79781D03*
D78*
X19973Y74359D03*
D20*
X19973Y69037D03*
D87*
X19973Y63614D03*
D76*
X19973Y58420D03*
D54*
X19973Y51841D03*
X19973Y45364D03*
D89*
X19742Y131966D03*
D17*
X19742Y126543D03*
D99*
X19742Y120764D03*
X19742Y115456D03*
D18*
X19742Y109449D03*
D84*
X19742Y103899D03*
D17*
X19742Y98603D03*
D18*
X19742Y92354D03*
X19742Y86131D03*
D19*
X19742Y79781D03*
D83*
X19742Y74359D03*
D17*
X19742Y69037D03*
D89*
X19742Y63614D03*
D103*
X19742Y58420D03*
D48*
X19742Y51841D03*
X19742Y45364D03*
D87*
X19511Y131966D03*
D20*
X19511Y126543D03*
D101*
X19511Y120764D03*
X19511Y115456D03*
D21*
X19511Y109449D03*
D80*
X19511Y103899D03*
D20*
X19511Y98603D03*
D21*
X19511Y92354D03*
X19511Y86131D03*
D22*
X19511Y79781D03*
D78*
X19511Y74359D03*
D20*
X19511Y69037D03*
D87*
X19511Y63614D03*
D76*
X19511Y58420D03*
D54*
X19511Y51841D03*
X19511Y45364D03*
D89*
X19280Y131966D03*
D17*
X19280Y126543D03*
D99*
X19280Y120764D03*
X19280Y115456D03*
D18*
X19280Y109449D03*
D84*
X19280Y103899D03*
D17*
X19280Y98603D03*
D18*
X19280Y92354D03*
X19280Y86131D03*
D19*
X19280Y79781D03*
D83*
X19280Y74359D03*
D17*
X19280Y69037D03*
D89*
X19280Y63614D03*
D103*
X19280Y58420D03*
D48*
X19280Y51841D03*
X19280Y45364D03*
D92*
X19050Y131966D03*
D14*
X19050Y126543D03*
D94*
X19050Y120764D03*
X19050Y115456D03*
D15*
X19050Y109449D03*
D104*
X19050Y103899D03*
D14*
X19050Y98603D03*
D15*
X19050Y92354D03*
X19050Y86131D03*
D16*
X19050Y79781D03*
D97*
X19050Y74359D03*
D14*
X19050Y69037D03*
D92*
X19050Y63614D03*
D105*
X19050Y58420D03*
D40*
X19050Y51841D03*
X19050Y45364D03*
D89*
X18820Y131966D03*
D17*
X18820Y126543D03*
D99*
X18820Y120764D03*
X18820Y115456D03*
D18*
X18820Y109449D03*
D84*
X18820Y103899D03*
D17*
X18820Y98603D03*
D18*
X18820Y92354D03*
X18820Y86131D03*
D19*
X18820Y79781D03*
D83*
X18820Y74359D03*
D17*
X18820Y69037D03*
D89*
X18820Y63614D03*
D103*
X18820Y58420D03*
D48*
X18820Y51841D03*
X18820Y45364D03*
D87*
X18589Y131966D03*
D20*
X18589Y126543D03*
D101*
X18589Y120764D03*
X18589Y115456D03*
D21*
X18589Y109449D03*
D80*
X18589Y103899D03*
D20*
X18589Y98603D03*
D21*
X18589Y92354D03*
X18589Y86131D03*
D22*
X18589Y79781D03*
D78*
X18589Y74359D03*
D20*
X18589Y69037D03*
D87*
X18589Y63614D03*
D76*
X18589Y58420D03*
D54*
X18589Y51841D03*
X18589Y45364D03*
D89*
X18358Y131966D03*
D17*
X18358Y126543D03*
D99*
X18358Y120764D03*
X18358Y115456D03*
D106*
X18358Y107137D03*
D17*
X18358Y98603D03*
D18*
X18358Y92354D03*
X18358Y86131D03*
D19*
X18358Y79781D03*
D83*
X18358Y74359D03*
D17*
X18358Y69037D03*
D89*
X18358Y63614D03*
D103*
X18358Y58420D03*
D48*
X18358Y51841D03*
X18358Y45364D03*
D87*
X18127Y131966D03*
D20*
X18127Y126543D03*
D101*
X18127Y120764D03*
X18127Y115456D03*
D107*
X18127Y107137D03*
D20*
X18127Y98603D03*
D21*
X18127Y92354D03*
X18127Y86131D03*
D22*
X18127Y79781D03*
D78*
X18127Y74359D03*
D20*
X18127Y69037D03*
D87*
X18127Y63614D03*
D76*
X18127Y58420D03*
D54*
X18127Y51841D03*
X18127Y45364D03*
D89*
X17896Y131966D03*
D67*
X17896Y126657D03*
D99*
X17896Y120764D03*
X17896Y115456D03*
D106*
X17896Y107137D03*
D17*
X17896Y98603D03*
D18*
X17896Y92354D03*
X17896Y86131D03*
D19*
X17896Y79781D03*
D83*
X17896Y74359D03*
D17*
X17896Y69037D03*
D89*
X17896Y63614D03*
D103*
X17896Y58420D03*
D48*
X17896Y51841D03*
X17896Y45364D03*
D108*
X17664Y128969D03*
D99*
X17664Y120764D03*
X17664Y115456D03*
D106*
X17664Y107137D03*
D17*
X17664Y98603D03*
D18*
X17664Y92354D03*
X17664Y86131D03*
D19*
X17664Y79781D03*
D83*
X17664Y74359D03*
D17*
X17664Y69037D03*
D89*
X17664Y63614D03*
D103*
X17664Y58420D03*
D48*
X17664Y51841D03*
X17664Y45364D03*
D109*
X17433Y128969D03*
D101*
X17433Y120764D03*
X17433Y115456D03*
D107*
X17433Y107137D03*
D20*
X17433Y98603D03*
D21*
X17433Y92354D03*
X17433Y86131D03*
D22*
X17433Y79781D03*
D78*
X17433Y74359D03*
D20*
X17433Y69037D03*
D87*
X17433Y63614D03*
D76*
X17433Y58420D03*
D54*
X17433Y51841D03*
X17433Y45364D03*
D110*
X17202Y129083D03*
D30*
X17202Y120879D03*
D99*
X17202Y115456D03*
D106*
X17202Y107137D03*
D17*
X17202Y98603D03*
D18*
X17202Y92354D03*
X17202Y86131D03*
D19*
X17202Y79781D03*
D83*
X17202Y74359D03*
D17*
X17202Y69037D03*
D89*
X17202Y63614D03*
D103*
X17202Y58420D03*
D48*
X17202Y51841D03*
X17202Y45364D03*
D111*
X16971Y129197D03*
D86*
X16971Y120879D03*
D101*
X16971Y115456D03*
D107*
X16971Y107137D03*
D20*
X16971Y98603D03*
D21*
X16971Y92354D03*
X16971Y86131D03*
D22*
X16971Y79781D03*
D78*
X16971Y74359D03*
D20*
X16971Y69037D03*
D87*
X16971Y63614D03*
D76*
X16971Y58420D03*
D54*
X16971Y51841D03*
X16971Y45364D03*
D112*
X16740Y129311D03*
D72*
X16740Y120993D03*
D99*
X16740Y115456D03*
D106*
X16740Y107137D03*
D17*
X16740Y98603D03*
D18*
X16740Y92354D03*
X16740Y86131D03*
D19*
X16740Y79781D03*
D83*
X16740Y74359D03*
D67*
X16740Y68923D03*
D89*
X16740Y63614D03*
D103*
X16740Y58420D03*
D48*
X16740Y51841D03*
X16740Y45364D03*
D113*
X16510Y129540D03*
D114*
X16510Y120993D03*
D94*
X16510Y115456D03*
D115*
X16510Y107137D03*
D14*
X16510Y98603D03*
D15*
X16510Y92354D03*
X16510Y86131D03*
D16*
X16510Y79781D03*
D97*
X16510Y74359D03*
D93*
X16510Y68923D03*
D92*
X16510Y63614D03*
D105*
X16510Y58420D03*
D40*
X16510Y51841D03*
X16510Y45364D03*
D116*
X16280Y129781D03*
D67*
X16280Y121120D03*
D99*
X16280Y115456D03*
D106*
X16280Y107137D03*
D17*
X16280Y98603D03*
D18*
X16280Y92354D03*
X16280Y86131D03*
D19*
X16280Y79781D03*
D69*
X16280Y74244D03*
D57*
X16280Y68809D03*
D89*
X16280Y63614D03*
D103*
X16280Y58420D03*
D48*
X16280Y51841D03*
X16280Y45364D03*
D117*
X16049Y129896D03*
D20*
X16049Y121234D03*
D101*
X16049Y115456D03*
D107*
X16049Y107137D03*
D20*
X16049Y98603D03*
D21*
X16049Y92354D03*
X16049Y86131D03*
D22*
X16049Y79781D03*
D118*
X16049Y74244D03*
D31*
X16049Y68694D03*
D87*
X16049Y63614D03*
D76*
X16049Y58420D03*
D54*
X16049Y51841D03*
X16049Y45364D03*
D119*
X15818Y130124D03*
D56*
X15818Y121349D03*
D99*
X15818Y115456D03*
D106*
X15818Y107137D03*
D17*
X15818Y98603D03*
D18*
X15818Y92354D03*
X15818Y86131D03*
D19*
X15818Y79781D03*
D66*
X15818Y74130D03*
D73*
X15818Y68466D03*
D89*
X15818Y63614D03*
D103*
X15818Y58420D03*
D48*
X15818Y51841D03*
X15818Y45364D03*
D120*
X15587Y130239D03*
D121*
X15587Y121463D03*
D101*
X15587Y115456D03*
D80*
X15587Y103899D03*
D20*
X15587Y98603D03*
D21*
X15587Y92354D03*
X15587Y86131D03*
D22*
X15587Y79781D03*
D61*
X15587Y74130D03*
D122*
X15587Y68224D03*
D87*
X15587Y63614D03*
D76*
X15587Y58420D03*
D54*
X15587Y51841D03*
X15587Y45364D03*
D123*
X15356Y130467D03*
D124*
X15356Y121577D03*
D99*
X15356Y115456D03*
D84*
X15356Y103899D03*
D17*
X15356Y98603D03*
D18*
X15356Y92354D03*
X15356Y86131D03*
D19*
X15356Y79781D03*
D58*
X15356Y74003D03*
D125*
X15356Y67882D03*
D89*
X15356Y63614D03*
D103*
X15356Y58420D03*
D48*
X15356Y51841D03*
X15356Y45364D03*
D126*
X15124Y130696D03*
D42*
X15124Y121806D03*
D99*
X15124Y115456D03*
D84*
X15124Y103899D03*
D17*
X15124Y98603D03*
D18*
X15124Y92354D03*
X15124Y86131D03*
D19*
X15124Y79781D03*
D68*
X15124Y73889D03*
D127*
X15124Y67653D03*
D89*
X15124Y63614D03*
D103*
X15124Y58420D03*
D48*
X15124Y51841D03*
X15124Y45364D03*
D128*
X14893Y130810D03*
D129*
X14893Y121920D03*
D101*
X14893Y115456D03*
D80*
X14893Y103899D03*
D20*
X14893Y98603D03*
D21*
X14893Y92354D03*
X14893Y86131D03*
D22*
X14893Y79781D03*
D130*
X14893Y73660D03*
D131*
X14893Y67310D03*
D87*
X14893Y63614D03*
D76*
X14893Y58420D03*
D54*
X14893Y51841D03*
X14893Y45364D03*
D132*
X14662Y131051D03*
D133*
X14662Y122149D03*
D99*
X14662Y115456D03*
D84*
X14662Y103899D03*
D17*
X14662Y98603D03*
D18*
X14662Y92354D03*
X14662Y86131D03*
D19*
X14662Y79781D03*
D18*
X14662Y73431D03*
D70*
X14662Y66954D03*
D89*
X14662Y63614D03*
D103*
X14662Y58420D03*
D48*
X14662Y51841D03*
X14662Y45364D03*
D21*
X14431Y131166D03*
D65*
X14431Y122390D03*
D101*
X14431Y115456D03*
D80*
X14431Y103899D03*
D20*
X14431Y98603D03*
D21*
X14431Y92354D03*
X14431Y86131D03*
D22*
X14431Y79781D03*
D121*
X14431Y73203D03*
D87*
X14431Y63614D03*
D76*
X14431Y58420D03*
D54*
X14431Y51841D03*
X14431Y45364D03*
D57*
X14200Y131394D03*
D134*
X14200Y122504D03*
D99*
X14200Y115456D03*
D84*
X14200Y103899D03*
D17*
X14200Y98603D03*
D18*
X14200Y92354D03*
X14200Y86131D03*
D19*
X14200Y79781D03*
D47*
X14200Y72974D03*
D89*
X14200Y63614D03*
D103*
X14200Y58420D03*
D48*
X14200Y51841D03*
X14200Y45364D03*
D135*
X13970Y131509D03*
D136*
X13970Y122733D03*
D94*
X13970Y115456D03*
D15*
X13970Y109449D03*
D104*
X13970Y103899D03*
D14*
X13970Y98603D03*
D15*
X13970Y92354D03*
X13970Y86131D03*
D16*
X13970Y79781D03*
D137*
X13970Y72619D03*
D92*
X13970Y63614D03*
D105*
X13970Y58420D03*
D40*
X13970Y51841D03*
X13970Y45364D03*
D68*
X13740Y131623D03*
D138*
X13740Y122847D03*
D99*
X13740Y115456D03*
D18*
X13740Y109449D03*
D84*
X13740Y103899D03*
D17*
X13740Y98603D03*
D18*
X13740Y92354D03*
X13740Y86131D03*
D19*
X13740Y79781D03*
D139*
X13740Y72276D03*
D89*
X13740Y63614D03*
D103*
X13740Y58420D03*
D48*
X13740Y51841D03*
X13740Y45364D03*
D51*
X13509Y131623D03*
D140*
X13509Y123076D03*
D101*
X13509Y115456D03*
D21*
X13509Y109449D03*
D80*
X13509Y103899D03*
D20*
X13509Y98603D03*
D21*
X13509Y92354D03*
X13509Y86131D03*
D22*
X13509Y79781D03*
D141*
X13509Y72047D03*
D87*
X13509Y63614D03*
D76*
X13509Y58420D03*
D54*
X13509Y51841D03*
X13509Y45364D03*
D58*
X13278Y131737D03*
D142*
X13278Y123304D03*
D99*
X13278Y115456D03*
D18*
X13278Y109449D03*
D84*
X13278Y103899D03*
D17*
X13278Y98603D03*
D18*
X13278Y92354D03*
X13278Y86131D03*
D19*
X13278Y79781D03*
D143*
X13278Y71704D03*
D89*
X13278Y63614D03*
D103*
X13278Y58420D03*
D48*
X13278Y51841D03*
X13278Y45364D03*
D85*
X13047Y131851D03*
D144*
X13047Y123419D03*
D101*
X13047Y115456D03*
D21*
X13047Y109449D03*
D80*
X13047Y103899D03*
D20*
X13047Y98603D03*
D21*
X13047Y92354D03*
X13047Y86131D03*
D22*
X13047Y79781D03*
D145*
X13047Y71349D03*
D87*
X13047Y63614D03*
D76*
X13047Y58420D03*
D54*
X13047Y51841D03*
X13047Y45364D03*
D82*
X12816Y131851D03*
D146*
X12816Y123533D03*
D99*
X12816Y115456D03*
D18*
X12816Y109449D03*
D84*
X12816Y103899D03*
D17*
X12816Y98603D03*
D18*
X12816Y92354D03*
X12816Y86131D03*
D19*
X12816Y79781D03*
D108*
X12816Y71234D03*
D89*
X12816Y63614D03*
D103*
X12816Y58420D03*
D48*
X12816Y51841D03*
X12816Y45364D03*
D82*
X12584Y131851D03*
D147*
X12584Y123660D03*
D99*
X12584Y115456D03*
D18*
X12584Y109449D03*
D84*
X12584Y103899D03*
D17*
X12584Y98603D03*
D18*
X12584Y92354D03*
X12584Y86131D03*
D19*
X12584Y79781D03*
D108*
X12584Y71234D03*
D89*
X12584Y63614D03*
D103*
X12584Y58420D03*
D48*
X12584Y51841D03*
X12584Y45364D03*
D87*
X12353Y131966D03*
D148*
X12353Y123774D03*
D101*
X12353Y115456D03*
D21*
X12353Y109449D03*
D80*
X12353Y103899D03*
D20*
X12353Y98603D03*
D21*
X12353Y92354D03*
X12353Y86131D03*
D22*
X12353Y79781D03*
D109*
X12353Y71234D03*
D87*
X12353Y63614D03*
D76*
X12353Y58420D03*
D54*
X12353Y51841D03*
X12353Y45364D03*
D89*
X12122Y131966D03*
D149*
X12122Y123774D03*
D99*
X12122Y115456D03*
D18*
X12122Y109449D03*
D84*
X12122Y103899D03*
D17*
X12122Y98603D03*
D18*
X12122Y92354D03*
X12122Y86131D03*
D19*
X12122Y79781D03*
D108*
X12122Y71234D03*
D89*
X12122Y63614D03*
D103*
X12122Y58420D03*
D48*
X12122Y51841D03*
X12122Y45364D03*
D87*
X11891Y131966D03*
D20*
X11891Y126543D03*
D101*
X11891Y120764D03*
X11891Y115456D03*
D21*
X11891Y109449D03*
D80*
X11891Y103899D03*
D20*
X11891Y98603D03*
D21*
X11891Y92354D03*
X11891Y86131D03*
D22*
X11891Y79781D03*
D109*
X11891Y71234D03*
D87*
X11891Y63614D03*
D76*
X11891Y58420D03*
D54*
X11891Y51841D03*
X11891Y45364D03*
D89*
X11660Y131966D03*
D17*
X11660Y126543D03*
D99*
X11660Y120764D03*
X11660Y115456D03*
D18*
X11660Y109449D03*
D84*
X11660Y103899D03*
D17*
X11660Y98603D03*
D18*
X11660Y92354D03*
X11660Y86131D03*
D19*
X11660Y79781D03*
D83*
X11660Y74359D03*
D67*
X11660Y68923D03*
D89*
X11660Y63614D03*
D103*
X11660Y58420D03*
D48*
X11660Y51841D03*
X11660Y45364D03*
D92*
X11430Y131966D03*
D14*
X11430Y126543D03*
D94*
X11430Y120764D03*
X11430Y115456D03*
D15*
X11430Y109449D03*
D104*
X11430Y103899D03*
D14*
X11430Y98603D03*
D15*
X11430Y92354D03*
X11430Y86131D03*
D16*
X11430Y79781D03*
D97*
X11430Y74359D03*
D93*
X11430Y68923D03*
D92*
X11430Y63614D03*
D105*
X11430Y58420D03*
D40*
X11430Y51841D03*
X11430Y45364D03*
D89*
X11200Y131966D03*
D17*
X11200Y126543D03*
D99*
X11200Y120764D03*
X11200Y115456D03*
D18*
X11200Y109449D03*
D84*
X11200Y103899D03*
D17*
X11200Y98603D03*
D18*
X11200Y92354D03*
X11200Y86131D03*
D19*
X11200Y79781D03*
D83*
X11200Y74359D03*
D67*
X11200Y68923D03*
D89*
X11200Y63614D03*
D103*
X11200Y58420D03*
D48*
X11200Y51841D03*
X11200Y45364D03*
D87*
X10969Y131966D03*
D20*
X10969Y126543D03*
D101*
X10969Y120764D03*
X10969Y115456D03*
D21*
X10969Y109449D03*
D80*
X10969Y103899D03*
D20*
X10969Y98603D03*
D21*
X10969Y92354D03*
X10969Y86131D03*
D22*
X10969Y79781D03*
D78*
X10969Y74359D03*
D150*
X10969Y68923D03*
D87*
X10969Y63614D03*
D76*
X10969Y58420D03*
D54*
X10969Y51841D03*
X10969Y45364D03*
D89*
X10738Y131966D03*
D17*
X10738Y126543D03*
D99*
X10738Y120764D03*
X10738Y115456D03*
D18*
X10738Y109449D03*
D84*
X10738Y103899D03*
D17*
X10738Y98603D03*
D18*
X10738Y92354D03*
X10738Y86131D03*
D19*
X10738Y79781D03*
D83*
X10738Y74359D03*
D67*
X10738Y68923D03*
D89*
X10738Y63614D03*
D103*
X10738Y58420D03*
D48*
X10738Y51841D03*
X10738Y45364D03*
D87*
X10507Y131966D03*
D20*
X10507Y126543D03*
D101*
X10507Y120764D03*
X10507Y115456D03*
D21*
X10507Y109449D03*
D80*
X10507Y103899D03*
D20*
X10507Y98603D03*
D21*
X10507Y92354D03*
X10507Y86131D03*
D22*
X10507Y79781D03*
D78*
X10507Y74359D03*
D150*
X10507Y68923D03*
D87*
X10507Y63614D03*
D76*
X10507Y58420D03*
D54*
X10507Y51841D03*
X10507Y45364D03*
D89*
X10276Y131966D03*
D17*
X10276Y126543D03*
D99*
X10276Y120764D03*
X10276Y115456D03*
D18*
X10276Y109449D03*
D84*
X10276Y103899D03*
D17*
X10276Y98603D03*
D18*
X10276Y92354D03*
X10276Y86131D03*
D19*
X10276Y79781D03*
D83*
X10276Y74359D03*
D67*
X10276Y68923D03*
D89*
X10276Y63614D03*
D103*
X10276Y58420D03*
D48*
X10276Y51841D03*
X10276Y45364D03*
D89*
X10044Y131966D03*
D17*
X10044Y126543D03*
D99*
X10044Y120764D03*
X10044Y115456D03*
D18*
X10044Y109449D03*
D84*
X10044Y103899D03*
D17*
X10044Y98603D03*
D18*
X10044Y92354D03*
X10044Y86131D03*
D19*
X10044Y79781D03*
D83*
X10044Y74359D03*
D67*
X10044Y68923D03*
D89*
X10044Y63614D03*
D103*
X10044Y58420D03*
D48*
X10044Y51841D03*
X10044Y45364D03*
D87*
X9813Y131966D03*
D20*
X9813Y126543D03*
D101*
X9813Y120764D03*
X9813Y115456D03*
D21*
X9813Y109449D03*
D80*
X9813Y103899D03*
D20*
X9813Y98603D03*
D21*
X9813Y92354D03*
X9813Y86131D03*
D22*
X9813Y79781D03*
D78*
X9813Y74359D03*
D150*
X9813Y68923D03*
D87*
X9813Y63614D03*
D76*
X9813Y58420D03*
D54*
X9813Y51841D03*
X9813Y45364D03*
D89*
X9582Y131966D03*
D17*
X9582Y126543D03*
D99*
X9582Y120764D03*
X9582Y115456D03*
D18*
X9582Y109449D03*
D89*
X9582Y104026D03*
D17*
X9582Y98603D03*
D18*
X9582Y92354D03*
X9582Y86131D03*
D19*
X9582Y79781D03*
D83*
X9582Y74359D03*
D67*
X9582Y68923D03*
D89*
X9582Y63614D03*
D103*
X9582Y58420D03*
D48*
X9582Y51841D03*
X9582Y45364D03*
D87*
X9351Y131966D03*
D20*
X9351Y126543D03*
D101*
X9351Y120764D03*
X9351Y115456D03*
D21*
X9351Y109449D03*
D87*
X9351Y104026D03*
D20*
X9351Y98603D03*
D21*
X9351Y92354D03*
X9351Y86131D03*
D22*
X9351Y79781D03*
D78*
X9351Y74359D03*
D150*
X9351Y68923D03*
D87*
X9351Y63614D03*
D76*
X9351Y58420D03*
D54*
X9351Y51841D03*
X9351Y45364D03*
D89*
X9120Y131966D03*
D17*
X9120Y126543D03*
D99*
X9120Y120764D03*
X9120Y115456D03*
D18*
X9120Y109449D03*
D89*
X9120Y104026D03*
D17*
X9120Y98603D03*
D18*
X9120Y92354D03*
X9120Y86131D03*
D19*
X9120Y79781D03*
D69*
X9120Y74244D03*
D67*
X9120Y68923D03*
D89*
X9120Y63614D03*
D103*
X9120Y58420D03*
D48*
X9120Y51841D03*
X9120Y45364D03*
D92*
X8890Y131966D03*
D14*
X8890Y126543D03*
D94*
X8890Y120764D03*
D95*
X8890Y115341D03*
D15*
X8890Y109449D03*
D92*
X8890Y104026D03*
D14*
X8890Y98603D03*
D15*
X8890Y92354D03*
X8890Y86131D03*
D16*
X8890Y79781D03*
D151*
X8890Y74244D03*
D93*
X8890Y68923D03*
D92*
X8890Y63614D03*
D105*
X8890Y58420D03*
D40*
X8890Y51841D03*
X8890Y45364D03*
D89*
X8660Y131966D03*
D67*
X8660Y126657D03*
D99*
X8660Y120764D03*
D30*
X8660Y115341D03*
D67*
X8660Y109563D03*
D89*
X8660Y104026D03*
D17*
X8660Y98603D03*
D18*
X8660Y92354D03*
X8660Y86131D03*
D19*
X8660Y79781D03*
D69*
X8660Y74244D03*
D57*
X8660Y69037D03*
D89*
X8660Y63614D03*
D103*
X8660Y58420D03*
D48*
X8660Y51841D03*
X8660Y45364D03*
D87*
X8429Y131966D03*
D152*
X8429Y126543D03*
D86*
X8429Y120879D03*
X8429Y115341D03*
D152*
X8429Y109449D03*
D87*
X8429Y104026D03*
D150*
X8429Y98489D03*
X8429Y92240D03*
X8429Y86017D03*
D75*
X8429Y79667D03*
D118*
X8429Y74244D03*
D152*
X8429Y69037D03*
D85*
X8429Y63729D03*
D76*
X8429Y58420D03*
D54*
X8429Y51841D03*
X8429Y45364D03*
D82*
X8198Y131851D03*
D57*
X8198Y126543D03*
D30*
X8198Y120879D03*
X8198Y115341D03*
D57*
X8198Y109449D03*
D89*
X8198Y104026D03*
D99*
X8198Y98362D03*
X8198Y92139D03*
D68*
X8198Y85903D03*
D30*
X8198Y79553D03*
D66*
X8198Y74359D03*
D68*
X8198Y69037D03*
D82*
X8198Y63729D03*
D103*
X8198Y58420D03*
D48*
X8198Y51841D03*
X8198Y45364D03*
D85*
X7967Y131851D03*
D51*
X7967Y126543D03*
D86*
X7967Y120879D03*
D75*
X7967Y115227D03*
D51*
X7967Y109449D03*
D85*
X7967Y104140D03*
D61*
X7967Y98133D03*
D49*
X7967Y92024D03*
D61*
X7967Y85662D03*
X7967Y79439D03*
D49*
X7967Y74244D03*
D153*
X7967Y68923D03*
D85*
X7967Y63729D03*
D76*
X7967Y58420D03*
D54*
X7967Y51841D03*
X7967Y45364D03*
D82*
X7736Y131851D03*
D66*
X7736Y126530D03*
D72*
X7736Y120993D03*
X7736Y115227D03*
D84*
X7736Y109461D03*
D82*
X7736Y104140D03*
D91*
X7736Y98133D03*
X7736Y91910D03*
D27*
X7736Y85547D03*
X7736Y79324D03*
D41*
X7736Y74244D03*
D84*
X7736Y69050D03*
D58*
X7736Y63843D03*
D103*
X7736Y58420D03*
D48*
X7736Y51841D03*
X7736Y45364D03*
D58*
X7504Y131737D03*
D127*
X7504Y126530D03*
D100*
X7504Y122034D03*
D91*
X7504Y114059D03*
D154*
X7504Y109449D03*
D73*
X7504Y104254D03*
D155*
X7504Y97904D03*
D156*
X7504Y91897D03*
D157*
X7504Y85433D03*
D156*
X7504Y79197D03*
D68*
X7504Y74117D03*
D158*
X7504Y68923D03*
D58*
X7504Y63843D03*
D103*
X7504Y58420D03*
D48*
X7504Y51841D03*
X7504Y45364D03*
D51*
X7273Y131623D03*
D64*
X7273Y122161D03*
X7273Y114059D03*
D77*
X7273Y104254D03*
D159*
X7273Y100686D03*
D160*
X7273Y94666D03*
X7273Y88443D03*
D159*
X7273Y82194D03*
D31*
X7273Y74232D03*
D51*
X7273Y63957D03*
D76*
X7273Y58420D03*
D54*
X7273Y51841D03*
X7273Y45364D03*
D68*
X7042Y131623D03*
D91*
X7042Y122161D03*
D27*
X7042Y113944D03*
D68*
X7042Y104369D03*
D161*
X7042Y100559D03*
D156*
X7042Y94666D03*
X7042Y88443D03*
D162*
X7042Y82093D03*
D57*
X7042Y74117D03*
D68*
X7042Y63957D03*
D103*
X7042Y58420D03*
D48*
X7042Y51841D03*
X7042Y45364D03*
D31*
X6811Y131509D03*
D88*
X6811Y122276D03*
D80*
X6811Y113830D03*
D31*
X6811Y104483D03*
D63*
X6811Y100444D03*
D52*
X6811Y94564D03*
D163*
X6811Y88202D03*
X6811Y81979D03*
D20*
X6811Y74117D03*
D31*
X6811Y64072D03*
D76*
X6811Y58420D03*
D54*
X6811Y51841D03*
X6811Y45364D03*
D57*
X6580Y131394D03*
D84*
X6580Y122390D03*
D69*
X6580Y113716D03*
D57*
X6580Y104597D03*
D25*
X6580Y100216D03*
D46*
X6580Y94564D03*
D127*
X6580Y88202D03*
X6580Y81979D03*
D44*
X6580Y74117D03*
D67*
X6580Y64300D03*
D103*
X6580Y58420D03*
D48*
X6580Y51841D03*
X6580Y45364D03*
D15*
X6350Y131166D03*
D164*
X6350Y122619D03*
D165*
X6350Y113487D03*
D14*
X6350Y104826D03*
D166*
X6350Y100101D03*
D104*
X6350Y94450D03*
D97*
X6350Y88202D03*
X6350Y81979D03*
D167*
X6350Y74003D03*
D15*
X6350Y64414D03*
D98*
X6350Y58306D03*
D40*
X6350Y51841D03*
X6350Y45364D03*
D44*
X6120Y130937D03*
D99*
X6120Y122847D03*
D30*
X6120Y113259D03*
D124*
X6120Y105169D03*
D125*
X6120Y99759D03*
D68*
X6120Y94437D03*
D99*
X6120Y88202D03*
D90*
X6120Y81852D03*
D168*
X6120Y74003D03*
D169*
X6120Y64770D03*
D100*
X6120Y58306D03*
D48*
X6120Y51841D03*
X6120Y45364D03*
D170*
X5889Y126200D03*
D171*
X5889Y89700D03*
D102*
X5889Y58306D03*
D54*
X5889Y51841D03*
X5889Y45364D03*
D172*
X5658Y126200D03*
D173*
X5658Y89700D03*
D100*
X5658Y58306D03*
D48*
X5658Y51841D03*
X5658Y45364D03*
D170*
X5427Y126200D03*
D171*
X5427Y89700D03*
D102*
X5427Y58306D03*
D64*
X5427Y51956D03*
D54*
X5427Y45364D03*
D172*
X5196Y126200D03*
D173*
X5196Y89700D03*
D91*
X5196Y58179D03*
X5196Y51956D03*
D48*
X5196Y45364D03*
D172*
X4964Y126200D03*
D173*
X4964Y89700D03*
D27*
X4964Y58064D03*
D91*
X4964Y52184D03*
D48*
X4964Y45364D03*
D170*
X4733Y126200D03*
D174*
X4733Y89827D03*
D78*
X4733Y57722D03*
D80*
X4733Y52413D03*
D145*
X4733Y45263D03*
D175*
X4502Y126073D03*
D176*
X4502Y89827D03*
D143*
X4502Y55067D03*
D110*
X4502Y45263D03*
D177*
X4271Y126073D03*
D178*
X4271Y89941D03*
D179*
X4271Y55067D03*
D145*
X4271Y45263D03*
D180*
X4040Y125959D03*
D181*
X4040Y89941D03*
D74*
X4040Y55067D03*
D110*
X4040Y45263D03*
D182*
X3810Y125844D03*
D183*
X3810Y90056D03*
D184*
X3810Y55067D03*
D185*
X3810Y45263D03*
D186*
X3580Y125730D03*
D187*
X3580Y90170D03*
D119*
X3580Y55067D03*
D110*
X3580Y45263D03*
D188*
X3349Y125616D03*
D189*
X3349Y90284D03*
D190*
X3349Y55067D03*
D145*
X3349Y45263D03*
D191*
X3118Y125387D03*
D192*
X3118Y90513D03*
D47*
X3118Y55194D03*
D110*
X3118Y45263D03*
D193*
X2887Y125044D03*
D194*
X2887Y90856D03*
D150*
X2887Y55080D03*
D145*
X2887Y45263D03*
M02*
