G04 EAGLE Gerber RS-274X export*
G75*
%MOMM*%
%FSLAX34Y34*%
%LPD*%
%INSoldermask Bottom*%
%IPPOS*%
%AMOC8*
5,1,8,0,0,1.08239X$1,22.5*%
G01*
%ADD10C,3.352400*%
%ADD11C,2.336800*%
%ADD12P,1.896997X8X22.500000*%
%ADD13C,1.752600*%
%ADD14R,1.930400X1.930400*%
%ADD15C,1.930400*%
%ADD16P,1.979475X8X22.500000*%
%ADD17P,2.089446X8X22.500000*%
%ADD18P,2.089446X8X292.500000*%
%ADD19P,2.089446X8X112.500000*%
%ADD20C,2.152400*%
%ADD21C,2.082800*%


D10*
X152400Y508000D03*
X660400Y355600D03*
X660400Y76200D03*
X139700Y25400D03*
D11*
X36830Y239810D03*
X36830Y274810D03*
D12*
X194310Y267970D03*
D13*
X158750Y267970D03*
D14*
X317500Y153670D03*
D15*
X317500Y128270D03*
X292100Y153670D03*
X292100Y128270D03*
X266700Y153670D03*
X266700Y128270D03*
X241300Y153670D03*
X241300Y128270D03*
X317500Y102870D03*
X292100Y102870D03*
X266700Y102870D03*
X241300Y102870D03*
D14*
X190500Y153670D03*
D15*
X190500Y128270D03*
X165100Y153670D03*
X165100Y128270D03*
X139700Y153670D03*
X139700Y128270D03*
X114300Y153670D03*
X114300Y128270D03*
X190500Y102870D03*
X165100Y102870D03*
X139700Y102870D03*
X114300Y102870D03*
D14*
X596900Y153670D03*
D15*
X596900Y128270D03*
X571500Y153670D03*
X571500Y128270D03*
X546100Y153670D03*
X546100Y128270D03*
X520700Y153670D03*
X520700Y128270D03*
X596900Y102870D03*
X571500Y102870D03*
X546100Y102870D03*
X520700Y102870D03*
D14*
X469900Y153670D03*
D15*
X469900Y128270D03*
X444500Y153670D03*
X444500Y128270D03*
X419100Y153670D03*
X419100Y128270D03*
X393700Y153670D03*
X393700Y128270D03*
X469900Y102870D03*
X444500Y102870D03*
X419100Y102870D03*
X393700Y102870D03*
D16*
X533400Y508000D03*
X508000Y25400D03*
X558800Y508000D03*
X584200Y508000D03*
X609600Y508000D03*
X635000Y508000D03*
X508000Y508000D03*
X482600Y508000D03*
X457200Y508000D03*
X416560Y508000D03*
X391160Y508000D03*
X365760Y508000D03*
X340360Y508000D03*
X314960Y508000D03*
X289560Y508000D03*
X264160Y508000D03*
X238760Y508000D03*
X533400Y25400D03*
X558800Y25400D03*
X584200Y25400D03*
X609600Y25400D03*
X635000Y25400D03*
X457200Y25400D03*
X431800Y25400D03*
X406400Y25400D03*
X381000Y25400D03*
X355600Y25400D03*
X330200Y25400D03*
X213360Y508000D03*
X187960Y508000D03*
X304800Y25400D03*
X279400Y25400D03*
D17*
X661670Y279400D03*
X636270Y279400D03*
D14*
X636270Y304800D03*
D17*
X661670Y304800D03*
X661670Y254000D03*
X636270Y254000D03*
D18*
X457200Y60960D03*
X431800Y60960D03*
X406400Y60960D03*
X381000Y60960D03*
X355600Y60960D03*
X330200Y60960D03*
X304800Y60960D03*
X279400Y60960D03*
D19*
X457200Y472440D03*
X482600Y472440D03*
X508000Y472440D03*
X533400Y472440D03*
X558800Y472440D03*
X584200Y472440D03*
X609600Y472440D03*
X635000Y472440D03*
D14*
X187960Y472440D03*
D15*
X213360Y472440D03*
X238760Y472440D03*
X264160Y472440D03*
X289560Y472440D03*
X314960Y472440D03*
X340360Y472440D03*
X365760Y472440D03*
X391160Y472440D03*
X416560Y472440D03*
D18*
X635000Y60960D03*
X609600Y60960D03*
X584200Y60960D03*
X558800Y60960D03*
X533400Y60960D03*
X508000Y60960D03*
D20*
X551180Y295910D03*
X525780Y295910D03*
X500380Y295910D03*
X474980Y295910D03*
X449580Y295910D03*
X424180Y295910D03*
D21*
X152400Y360680D03*
X152400Y335280D03*
X177800Y335280D03*
X177800Y360680D03*
X177800Y386080D03*
X152400Y386080D03*
X152400Y411480D03*
X177800Y411480D03*
X177800Y436880D03*
X152400Y436880D03*
X203200Y436880D03*
X203200Y411480D03*
X203200Y386080D03*
X203200Y360680D03*
X203200Y335280D03*
X228600Y335280D03*
X228600Y360680D03*
X228600Y386080D03*
X228600Y411480D03*
X228600Y436880D03*
X254000Y436880D03*
X254000Y411480D03*
X254000Y386080D03*
X254000Y360680D03*
X254000Y335280D03*
X279400Y335280D03*
X279400Y360680D03*
X279400Y386080D03*
X279400Y411480D03*
X279400Y436880D03*
X304800Y436880D03*
X304800Y411480D03*
X304800Y386080D03*
X304800Y360680D03*
X304800Y335280D03*
X330200Y335280D03*
X330200Y360680D03*
X330200Y386080D03*
X330200Y411480D03*
X330200Y436880D03*
X355600Y436880D03*
X381000Y436880D03*
X406400Y436880D03*
X431800Y436880D03*
X457200Y436880D03*
X482600Y436880D03*
X508000Y436880D03*
X533400Y411480D03*
X558800Y411480D03*
X584200Y411480D03*
X609600Y411480D03*
X609600Y335280D03*
X609600Y360680D03*
X609600Y386080D03*
X584200Y386080D03*
X584200Y360680D03*
X584200Y335280D03*
X558800Y335280D03*
X558800Y360680D03*
X558800Y386080D03*
X533400Y386080D03*
X533400Y360680D03*
X533400Y335280D03*
X508000Y335280D03*
X508000Y360680D03*
X508000Y386080D03*
X508000Y411480D03*
X482600Y411480D03*
X482600Y386080D03*
X482600Y360680D03*
X482600Y335280D03*
X457200Y335280D03*
X457200Y360680D03*
X457200Y386080D03*
X457200Y411480D03*
X431800Y411480D03*
X431800Y386080D03*
X431800Y360680D03*
X431800Y335280D03*
X406400Y335280D03*
X406400Y360680D03*
X406400Y386080D03*
X406400Y411480D03*
X381000Y411480D03*
X381000Y386080D03*
X381000Y360680D03*
X381000Y335280D03*
X355600Y335280D03*
X355600Y360680D03*
X355600Y386080D03*
X355600Y411480D03*
X533400Y436880D03*
X558800Y436880D03*
X584200Y436880D03*
X609600Y436880D03*
X127000Y335280D03*
X127000Y360680D03*
X127000Y386080D03*
X127000Y411480D03*
X127000Y436880D03*
M02*
