M48
;GenerationSoftware,Autodesk,EAGLE,9.6.2*%
;CreationDate,2022-08-08T02:01:10Z*%
FMAT,2
ICI,OFF
METRIC,TZ,000.000
T7C0.400
T6C0.483
T5C0.500
T4C1.000
T3C1.500
T2C2.500
T1C3.000
%
G90
M71
T1
X12700Y12962
T2
X22860Y22860
X2540Y22860
X2540Y2540
X22860Y2540
T3
X16200Y12700
X8750Y12700
T4
X6350Y2540
X8890Y2540
X11430Y2540
X13970Y2540
X16510Y2540
X19050Y2540
X6350Y22860
X8890Y22860
X11430Y22860
X13970Y22860
X16510Y22860
X19050Y22860
T5
X16002Y6731
X13462Y7874
X11303Y8128
X9398Y14732
X2794Y8763
X9525Y18542
X2794Y15494
X889Y20828
X10668Y19939
X20828Y24384
X21971Y15621
X21109Y18758
X3429Y10922
X4318Y10160
X20434Y15494
X16637Y5080
X10414Y12954
X19304Y10033
X19304Y8255
X19304Y21171
X17145Y19558
X23050Y20320
X19304Y19939
X3302Y14478
X16023Y21188
X8031Y18512
X17162Y4061
X16002Y16510
X12700Y16510
X9779Y16510
X12065Y18161
X14605Y17780
X14351Y15621
X15113Y14097
X11303Y15113
X15748Y10795
X13335Y10795
X20574Y16891
X10922Y11049
X9525Y9525
X12446Y9271
X14605Y9017
X17780Y8255
X20701Y9652
X21209Y6477
X18923Y6604
T6
X4572Y20701
X6390Y20026
X5715Y16129
X13335Y20828
T7
X6731Y10033
M30