G04 EAGLE Gerber RS-274X export*
G75*
%MOMM*%
%FSLAX34Y34*%
%LPD*%
%INBottom Copper*%
%IPPOS*%
%AMOC8*
5,1,8,0,0,1.08239X$1,22.5*%
G01*
%ADD10C,0.254000*%
%ADD11C,1.879600*%
%ADD12C,1.108000*%
%ADD13C,0.304800*%

G36*
X16464Y3053D02*
X16464Y3053D01*
X16493Y3050D01*
X16604Y3073D01*
X16716Y3089D01*
X16743Y3101D01*
X16772Y3106D01*
X16872Y3159D01*
X16976Y3205D01*
X16998Y3224D01*
X17024Y3237D01*
X17106Y3315D01*
X17193Y3388D01*
X17209Y3413D01*
X17230Y3433D01*
X17287Y3531D01*
X17350Y3625D01*
X17359Y3653D01*
X17374Y3678D01*
X17402Y3788D01*
X17436Y3896D01*
X17437Y3926D01*
X17444Y3954D01*
X17440Y4067D01*
X17443Y4180D01*
X17436Y4209D01*
X17435Y4238D01*
X17400Y4346D01*
X17372Y4455D01*
X17357Y4481D01*
X17348Y4509D01*
X17302Y4573D01*
X17226Y4700D01*
X17181Y4743D01*
X17153Y4782D01*
X15709Y6225D01*
X13969Y10426D01*
X13969Y14974D01*
X15710Y19175D01*
X18925Y22390D01*
X21217Y23340D01*
X21218Y23341D01*
X21219Y23341D01*
X21334Y23409D01*
X21461Y23484D01*
X21462Y23485D01*
X21464Y23486D01*
X21561Y23590D01*
X21657Y23691D01*
X21657Y23692D01*
X21658Y23693D01*
X21723Y23819D01*
X21787Y23944D01*
X21787Y23945D01*
X21788Y23947D01*
X21790Y23962D01*
X21842Y24223D01*
X21839Y24253D01*
X21843Y24278D01*
X21843Y112775D01*
X52325Y143257D01*
X84023Y143257D01*
X102056Y125224D01*
X102057Y125223D01*
X102058Y125222D01*
X102172Y125137D01*
X102283Y125053D01*
X102285Y125052D01*
X102286Y125051D01*
X102416Y125002D01*
X102549Y124952D01*
X102551Y124952D01*
X102552Y124951D01*
X102691Y124940D01*
X102832Y124928D01*
X102834Y124928D01*
X102835Y124928D01*
X102850Y124932D01*
X103111Y124984D01*
X103138Y124998D01*
X103163Y125004D01*
X103269Y125048D01*
X106281Y125048D01*
X109065Y123895D01*
X111195Y121765D01*
X112348Y118981D01*
X112348Y115969D01*
X111195Y113185D01*
X109065Y111055D01*
X107665Y110475D01*
X107640Y110461D01*
X107612Y110452D01*
X107518Y110389D01*
X107420Y110331D01*
X107400Y110310D01*
X107376Y110293D01*
X107303Y110207D01*
X107225Y110124D01*
X107212Y110098D01*
X107193Y110076D01*
X107147Y109972D01*
X107095Y109872D01*
X107089Y109843D01*
X107077Y109816D01*
X107062Y109704D01*
X107040Y109593D01*
X107042Y109563D01*
X107038Y109534D01*
X107055Y109422D01*
X107064Y109309D01*
X107075Y109282D01*
X107079Y109253D01*
X107126Y109150D01*
X107166Y109044D01*
X107184Y109021D01*
X107196Y108994D01*
X107270Y108908D01*
X107338Y108817D01*
X107361Y108800D01*
X107380Y108777D01*
X107447Y108736D01*
X107566Y108647D01*
X107624Y108625D01*
X107665Y108600D01*
X109065Y108020D01*
X111195Y105890D01*
X112348Y103106D01*
X112348Y100094D01*
X111195Y97310D01*
X109065Y95180D01*
X106281Y94027D01*
X103269Y94027D01*
X100485Y95180D01*
X98355Y97310D01*
X98311Y97416D01*
X98310Y97418D01*
X98310Y97419D01*
X98240Y97537D01*
X98167Y97661D01*
X98166Y97662D01*
X98165Y97664D01*
X98063Y97759D01*
X97960Y97856D01*
X97959Y97857D01*
X97957Y97858D01*
X97832Y97922D01*
X97707Y97987D01*
X97706Y97987D01*
X97704Y97988D01*
X97689Y97990D01*
X97428Y98042D01*
X97398Y98039D01*
X97373Y98043D01*
X80772Y98043D01*
X80714Y98035D01*
X80656Y98037D01*
X80574Y98015D01*
X80490Y98003D01*
X80437Y97980D01*
X80381Y97965D01*
X80308Y97922D01*
X80231Y97887D01*
X80186Y97849D01*
X80136Y97820D01*
X80078Y97758D01*
X80014Y97704D01*
X79982Y97655D01*
X79942Y97612D01*
X79903Y97537D01*
X79856Y97467D01*
X79839Y97411D01*
X79812Y97359D01*
X79801Y97291D01*
X79771Y97196D01*
X79768Y97096D01*
X79757Y97028D01*
X79757Y36627D01*
X77376Y34246D01*
X61502Y18372D01*
X61501Y18370D01*
X61499Y18369D01*
X61415Y18256D01*
X61331Y18144D01*
X61330Y18143D01*
X61329Y18142D01*
X61279Y18010D01*
X61230Y17879D01*
X61229Y17877D01*
X61229Y17876D01*
X61217Y17731D01*
X61206Y17595D01*
X61206Y17594D01*
X61206Y17592D01*
X61210Y17577D01*
X61262Y17317D01*
X61276Y17290D01*
X61282Y17265D01*
X62231Y14974D01*
X62231Y10426D01*
X60491Y6225D01*
X59047Y4782D01*
X59030Y4758D01*
X59007Y4739D01*
X58945Y4645D01*
X58876Y4555D01*
X58866Y4527D01*
X58850Y4503D01*
X58816Y4395D01*
X58775Y4289D01*
X58773Y4260D01*
X58764Y4232D01*
X58761Y4118D01*
X58752Y4006D01*
X58757Y3977D01*
X58757Y3948D01*
X58785Y3838D01*
X58808Y3727D01*
X58821Y3701D01*
X58828Y3673D01*
X58886Y3575D01*
X58939Y3475D01*
X58959Y3453D01*
X58974Y3428D01*
X59056Y3351D01*
X59134Y3269D01*
X59160Y3254D01*
X59181Y3234D01*
X59282Y3182D01*
X59380Y3125D01*
X59408Y3118D01*
X59434Y3104D01*
X59512Y3091D01*
X59655Y3055D01*
X59718Y3057D01*
X59765Y3049D01*
X66516Y3049D01*
X66545Y3053D01*
X66575Y3050D01*
X66686Y3073D01*
X66798Y3089D01*
X66825Y3101D01*
X66853Y3106D01*
X66954Y3159D01*
X67057Y3205D01*
X67080Y3224D01*
X67106Y3237D01*
X67188Y3315D01*
X67274Y3388D01*
X67291Y3413D01*
X67312Y3433D01*
X67369Y3531D01*
X67432Y3625D01*
X67441Y3653D01*
X67456Y3678D01*
X67483Y3788D01*
X67518Y3896D01*
X67518Y3925D01*
X67526Y3954D01*
X67522Y4067D01*
X67525Y4180D01*
X67518Y4209D01*
X67517Y4238D01*
X67482Y4346D01*
X67453Y4455D01*
X67438Y4481D01*
X67429Y4509D01*
X67383Y4573D01*
X67308Y4700D01*
X67262Y4743D01*
X67234Y4782D01*
X67094Y4923D01*
X65989Y6443D01*
X65136Y8117D01*
X64555Y9904D01*
X64434Y10669D01*
X75184Y10669D01*
X75242Y10677D01*
X75300Y10675D01*
X75382Y10697D01*
X75465Y10709D01*
X75519Y10733D01*
X75575Y10747D01*
X75648Y10790D01*
X75725Y10825D01*
X75769Y10863D01*
X75820Y10893D01*
X75877Y10954D01*
X75942Y11009D01*
X75974Y11057D01*
X76014Y11100D01*
X76053Y11175D01*
X76099Y11245D01*
X76117Y11301D01*
X76144Y11353D01*
X76155Y11421D01*
X76185Y11516D01*
X76188Y11616D01*
X76199Y11684D01*
X76199Y12701D01*
X76201Y12701D01*
X76201Y11684D01*
X76209Y11626D01*
X76208Y11568D01*
X76229Y11486D01*
X76241Y11403D01*
X76265Y11349D01*
X76279Y11293D01*
X76322Y11220D01*
X76357Y11143D01*
X76395Y11098D01*
X76425Y11048D01*
X76486Y10990D01*
X76541Y10926D01*
X76589Y10894D01*
X76632Y10854D01*
X76707Y10815D01*
X76777Y10769D01*
X76833Y10751D01*
X76885Y10724D01*
X76953Y10713D01*
X77048Y10683D01*
X77148Y10680D01*
X77216Y10669D01*
X87966Y10669D01*
X87845Y9904D01*
X87264Y8117D01*
X86411Y6443D01*
X85306Y4923D01*
X85166Y4782D01*
X85148Y4758D01*
X85126Y4739D01*
X85063Y4645D01*
X84995Y4555D01*
X84984Y4527D01*
X84968Y4503D01*
X84934Y4395D01*
X84894Y4289D01*
X84891Y4260D01*
X84882Y4232D01*
X84879Y4119D01*
X84870Y4006D01*
X84876Y3977D01*
X84875Y3948D01*
X84904Y3838D01*
X84926Y3727D01*
X84939Y3701D01*
X84947Y3673D01*
X85005Y3575D01*
X85057Y3475D01*
X85077Y3453D01*
X85092Y3428D01*
X85175Y3351D01*
X85253Y3269D01*
X85278Y3254D01*
X85299Y3234D01*
X85400Y3182D01*
X85498Y3125D01*
X85526Y3118D01*
X85553Y3104D01*
X85630Y3091D01*
X85773Y3055D01*
X85836Y3057D01*
X85884Y3049D01*
X92635Y3049D01*
X92664Y3053D01*
X92693Y3050D01*
X92804Y3073D01*
X92916Y3089D01*
X92943Y3101D01*
X92972Y3106D01*
X93072Y3159D01*
X93176Y3205D01*
X93198Y3224D01*
X93224Y3237D01*
X93306Y3315D01*
X93393Y3388D01*
X93409Y3413D01*
X93430Y3433D01*
X93487Y3531D01*
X93550Y3625D01*
X93559Y3653D01*
X93574Y3678D01*
X93602Y3788D01*
X93636Y3896D01*
X93637Y3926D01*
X93644Y3954D01*
X93640Y4067D01*
X93643Y4180D01*
X93636Y4209D01*
X93635Y4238D01*
X93600Y4346D01*
X93572Y4455D01*
X93557Y4481D01*
X93548Y4509D01*
X93502Y4573D01*
X93426Y4700D01*
X93381Y4743D01*
X93353Y4782D01*
X91909Y6225D01*
X90169Y10426D01*
X90169Y14974D01*
X91910Y19175D01*
X95125Y22390D01*
X99326Y24131D01*
X103874Y24131D01*
X108075Y22390D01*
X111290Y19175D01*
X113031Y14974D01*
X113031Y10426D01*
X111291Y6225D01*
X109847Y4782D01*
X109830Y4758D01*
X109807Y4739D01*
X109745Y4645D01*
X109676Y4555D01*
X109666Y4527D01*
X109650Y4503D01*
X109616Y4395D01*
X109575Y4289D01*
X109573Y4260D01*
X109564Y4232D01*
X109561Y4118D01*
X109552Y4006D01*
X109557Y3977D01*
X109557Y3948D01*
X109585Y3838D01*
X109608Y3727D01*
X109621Y3701D01*
X109628Y3673D01*
X109686Y3575D01*
X109739Y3475D01*
X109759Y3453D01*
X109774Y3428D01*
X109856Y3351D01*
X109934Y3269D01*
X109960Y3254D01*
X109981Y3234D01*
X110082Y3182D01*
X110180Y3125D01*
X110208Y3118D01*
X110234Y3104D01*
X110312Y3091D01*
X110455Y3055D01*
X110518Y3057D01*
X110565Y3049D01*
X118035Y3049D01*
X118064Y3053D01*
X118093Y3050D01*
X118204Y3073D01*
X118316Y3089D01*
X118343Y3101D01*
X118372Y3106D01*
X118472Y3159D01*
X118576Y3205D01*
X118598Y3224D01*
X118624Y3237D01*
X118706Y3315D01*
X118793Y3388D01*
X118809Y3413D01*
X118830Y3433D01*
X118887Y3531D01*
X118950Y3625D01*
X118959Y3653D01*
X118974Y3678D01*
X119002Y3788D01*
X119036Y3896D01*
X119037Y3926D01*
X119044Y3954D01*
X119040Y4067D01*
X119043Y4180D01*
X119036Y4209D01*
X119035Y4238D01*
X119000Y4346D01*
X118972Y4455D01*
X118957Y4481D01*
X118948Y4509D01*
X118902Y4573D01*
X118826Y4700D01*
X118781Y4743D01*
X118753Y4782D01*
X117309Y6225D01*
X115569Y10426D01*
X115569Y14974D01*
X117310Y19175D01*
X120525Y22390D01*
X124726Y24131D01*
X129274Y24131D01*
X133475Y22390D01*
X136690Y19175D01*
X138431Y14974D01*
X138431Y10426D01*
X136691Y6225D01*
X135247Y4782D01*
X135230Y4758D01*
X135207Y4739D01*
X135145Y4645D01*
X135076Y4555D01*
X135066Y4527D01*
X135050Y4503D01*
X135016Y4395D01*
X134975Y4289D01*
X134973Y4260D01*
X134964Y4232D01*
X134961Y4118D01*
X134952Y4006D01*
X134957Y3977D01*
X134957Y3948D01*
X134985Y3838D01*
X135008Y3727D01*
X135021Y3701D01*
X135028Y3673D01*
X135086Y3575D01*
X135139Y3475D01*
X135159Y3453D01*
X135174Y3428D01*
X135256Y3351D01*
X135334Y3269D01*
X135360Y3254D01*
X135381Y3234D01*
X135482Y3182D01*
X135580Y3125D01*
X135608Y3118D01*
X135634Y3104D01*
X135712Y3091D01*
X135855Y3055D01*
X135918Y3057D01*
X135965Y3049D01*
X148140Y3049D01*
X148198Y3057D01*
X148256Y3055D01*
X148338Y3077D01*
X148422Y3089D01*
X148475Y3112D01*
X148531Y3127D01*
X148604Y3170D01*
X148681Y3205D01*
X148725Y3242D01*
X148775Y3272D01*
X148833Y3334D01*
X148898Y3388D01*
X148930Y3437D01*
X148970Y3479D01*
X149009Y3554D01*
X149056Y3625D01*
X149073Y3680D01*
X149100Y3732D01*
X149111Y3800D01*
X149142Y3896D01*
X149144Y3995D01*
X149156Y4063D01*
X149347Y186435D01*
X149339Y186493D01*
X149340Y186552D01*
X149319Y186633D01*
X149308Y186716D01*
X149283Y186770D01*
X149269Y186827D01*
X149226Y186899D01*
X149191Y186976D01*
X149153Y187021D01*
X149123Y187072D01*
X149062Y187129D01*
X149008Y187193D01*
X148959Y187226D01*
X148916Y187266D01*
X148841Y187305D01*
X148772Y187351D01*
X148715Y187369D01*
X148663Y187396D01*
X148595Y187407D01*
X148501Y187437D01*
X148400Y187440D01*
X148332Y187451D01*
X4064Y187451D01*
X4006Y187443D01*
X3948Y187445D01*
X3866Y187423D01*
X3782Y187411D01*
X3729Y187388D01*
X3673Y187373D01*
X3600Y187330D01*
X3523Y187295D01*
X3478Y187257D01*
X3428Y187228D01*
X3370Y187166D01*
X3306Y187112D01*
X3274Y187063D01*
X3234Y187020D01*
X3195Y186945D01*
X3148Y186875D01*
X3131Y186819D01*
X3104Y186767D01*
X3093Y186699D01*
X3063Y186604D01*
X3060Y186504D01*
X3049Y186436D01*
X3049Y60998D01*
X3057Y60940D01*
X3055Y60882D01*
X3077Y60800D01*
X3089Y60717D01*
X3112Y60663D01*
X3127Y60607D01*
X3170Y60534D01*
X3205Y60457D01*
X3243Y60413D01*
X3272Y60362D01*
X3334Y60305D01*
X3388Y60240D01*
X3437Y60208D01*
X3480Y60168D01*
X3555Y60129D01*
X3625Y60083D01*
X3681Y60065D01*
X3733Y60038D01*
X3801Y60027D01*
X3896Y59997D01*
X3996Y59994D01*
X4064Y59983D01*
X12699Y59983D01*
X16329Y56353D01*
X16329Y50228D01*
X14097Y47996D01*
X12734Y46632D01*
X12716Y46609D01*
X12694Y46590D01*
X12631Y46496D01*
X12563Y46405D01*
X12552Y46378D01*
X12536Y46353D01*
X12502Y46245D01*
X12462Y46140D01*
X12459Y46110D01*
X12450Y46082D01*
X12447Y45969D01*
X12438Y45856D01*
X12444Y45828D01*
X12443Y45798D01*
X12472Y45689D01*
X12494Y45578D01*
X12507Y45551D01*
X12515Y45523D01*
X12572Y45426D01*
X12625Y45325D01*
X12645Y45304D01*
X12660Y45279D01*
X12742Y45201D01*
X12821Y45119D01*
X12846Y45104D01*
X12867Y45084D01*
X12968Y45033D01*
X13066Y44975D01*
X13094Y44968D01*
X13120Y44955D01*
X13198Y44942D01*
X13341Y44905D01*
X13404Y44907D01*
X13452Y44899D01*
X14394Y44899D01*
X16329Y42965D01*
X16329Y40229D01*
X14263Y38162D01*
X14227Y38116D01*
X14185Y38075D01*
X14142Y38003D01*
X14092Y37935D01*
X14071Y37880D01*
X14041Y37830D01*
X14021Y37748D01*
X13991Y37669D01*
X13986Y37611D01*
X13971Y37554D01*
X13974Y37470D01*
X13967Y37386D01*
X13978Y37329D01*
X13980Y37270D01*
X14006Y37190D01*
X14023Y37107D01*
X14050Y37055D01*
X14068Y37000D01*
X14108Y36944D01*
X14154Y36855D01*
X14223Y36783D01*
X14263Y36726D01*
X16329Y34660D01*
X16329Y31924D01*
X15025Y30620D01*
X14990Y30574D01*
X14948Y30533D01*
X14905Y30461D01*
X14854Y30393D01*
X14834Y30339D01*
X14804Y30288D01*
X14783Y30207D01*
X14753Y30128D01*
X14748Y30069D01*
X14734Y30013D01*
X14737Y29928D01*
X14730Y29844D01*
X14741Y29787D01*
X14743Y29729D01*
X14769Y29648D01*
X14785Y29566D01*
X14812Y29514D01*
X14830Y29458D01*
X14871Y29402D01*
X14916Y29313D01*
X14985Y29241D01*
X15025Y29185D01*
X16329Y27881D01*
X16329Y25145D01*
X14394Y23210D01*
X4879Y23210D01*
X4782Y23307D01*
X4758Y23325D01*
X4739Y23347D01*
X4645Y23410D01*
X4555Y23478D01*
X4527Y23489D01*
X4503Y23505D01*
X4395Y23539D01*
X4289Y23580D01*
X4260Y23582D01*
X4232Y23591D01*
X4119Y23594D01*
X4006Y23603D01*
X3977Y23597D01*
X3948Y23598D01*
X3838Y23570D01*
X3727Y23547D01*
X3701Y23534D01*
X3673Y23526D01*
X3575Y23469D01*
X3475Y23416D01*
X3453Y23396D01*
X3428Y23381D01*
X3351Y23299D01*
X3269Y23221D01*
X3254Y23195D01*
X3234Y23174D01*
X3182Y23073D01*
X3125Y22975D01*
X3118Y22947D01*
X3104Y22921D01*
X3091Y22843D01*
X3055Y22700D01*
X3057Y22637D01*
X3049Y22590D01*
X3049Y4064D01*
X3057Y4006D01*
X3055Y3948D01*
X3077Y3866D01*
X3089Y3782D01*
X3112Y3729D01*
X3127Y3673D01*
X3170Y3600D01*
X3205Y3523D01*
X3243Y3478D01*
X3272Y3428D01*
X3334Y3370D01*
X3388Y3306D01*
X3437Y3274D01*
X3480Y3234D01*
X3555Y3195D01*
X3625Y3148D01*
X3681Y3131D01*
X3733Y3104D01*
X3801Y3093D01*
X3896Y3063D01*
X3996Y3060D01*
X4064Y3049D01*
X16435Y3049D01*
X16464Y3053D01*
G37*
G36*
X41864Y3053D02*
X41864Y3053D01*
X41893Y3050D01*
X42004Y3073D01*
X42116Y3089D01*
X42143Y3101D01*
X42172Y3106D01*
X42272Y3159D01*
X42376Y3205D01*
X42398Y3224D01*
X42424Y3237D01*
X42506Y3315D01*
X42593Y3388D01*
X42609Y3413D01*
X42630Y3433D01*
X42687Y3531D01*
X42750Y3625D01*
X42759Y3653D01*
X42774Y3678D01*
X42802Y3788D01*
X42836Y3896D01*
X42837Y3926D01*
X42844Y3954D01*
X42840Y4067D01*
X42843Y4180D01*
X42836Y4209D01*
X42835Y4238D01*
X42800Y4346D01*
X42772Y4455D01*
X42757Y4481D01*
X42748Y4509D01*
X42702Y4573D01*
X42626Y4700D01*
X42581Y4743D01*
X42553Y4782D01*
X41109Y6225D01*
X39369Y10426D01*
X39369Y14974D01*
X41110Y19175D01*
X44325Y22390D01*
X48526Y24131D01*
X53074Y24131D01*
X55365Y23182D01*
X55367Y23181D01*
X55368Y23180D01*
X55502Y23146D01*
X55641Y23111D01*
X55642Y23111D01*
X55644Y23110D01*
X55784Y23115D01*
X55925Y23119D01*
X55926Y23119D01*
X55928Y23119D01*
X56061Y23162D01*
X56195Y23205D01*
X56197Y23206D01*
X56198Y23207D01*
X56210Y23215D01*
X56432Y23364D01*
X56451Y23387D01*
X56472Y23402D01*
X72346Y39276D01*
X72398Y39346D01*
X72458Y39410D01*
X72484Y39459D01*
X72517Y39503D01*
X72548Y39585D01*
X72588Y39663D01*
X72596Y39710D01*
X72618Y39769D01*
X72630Y39916D01*
X72643Y39994D01*
X72643Y119598D01*
X72643Y119600D01*
X72643Y119601D01*
X72623Y119745D01*
X72603Y119880D01*
X72603Y119881D01*
X72603Y119883D01*
X72543Y120014D01*
X72487Y120139D01*
X72486Y120140D01*
X72485Y120142D01*
X72393Y120250D01*
X72304Y120356D01*
X72302Y120357D01*
X72301Y120358D01*
X72288Y120367D01*
X72067Y120514D01*
X72038Y120523D01*
X72016Y120536D01*
X71910Y120580D01*
X69780Y122710D01*
X68627Y125494D01*
X68627Y128506D01*
X69780Y131290D01*
X71910Y133420D01*
X73770Y134190D01*
X73844Y134234D01*
X73922Y134269D01*
X73966Y134306D01*
X74015Y134335D01*
X74074Y134397D01*
X74139Y134453D01*
X74171Y134500D01*
X74210Y134541D01*
X74249Y134618D01*
X74297Y134689D01*
X74314Y134743D01*
X74340Y134794D01*
X74357Y134878D01*
X74383Y134960D01*
X74384Y135017D01*
X74395Y135073D01*
X74388Y135158D01*
X74390Y135244D01*
X74376Y135299D01*
X74371Y135356D01*
X74340Y135437D01*
X74318Y135519D01*
X74289Y135568D01*
X74269Y135621D01*
X74217Y135690D01*
X74173Y135764D01*
X74131Y135803D01*
X74097Y135848D01*
X74028Y135900D01*
X73966Y135958D01*
X73915Y135984D01*
X73869Y136018D01*
X73789Y136049D01*
X73712Y136088D01*
X73664Y136096D01*
X73603Y136119D01*
X73459Y136130D01*
X73381Y136143D01*
X55692Y136143D01*
X55605Y136131D01*
X55518Y136128D01*
X55465Y136111D01*
X55410Y136103D01*
X55331Y136068D01*
X55247Y136041D01*
X55208Y136013D01*
X55151Y135987D01*
X55038Y135891D01*
X54974Y135846D01*
X29254Y110126D01*
X29202Y110056D01*
X29142Y109992D01*
X29116Y109943D01*
X29083Y109899D01*
X29052Y109817D01*
X29012Y109739D01*
X29004Y109692D01*
X28982Y109633D01*
X28970Y109485D01*
X28957Y109408D01*
X28957Y24278D01*
X28957Y24276D01*
X28957Y24275D01*
X28978Y24131D01*
X28997Y23996D01*
X28997Y23995D01*
X28997Y23993D01*
X29054Y23867D01*
X29113Y23737D01*
X29114Y23736D01*
X29115Y23734D01*
X29206Y23627D01*
X29296Y23520D01*
X29298Y23519D01*
X29299Y23518D01*
X29312Y23509D01*
X29533Y23362D01*
X29562Y23353D01*
X29583Y23340D01*
X31875Y22390D01*
X35090Y19175D01*
X36831Y14974D01*
X36831Y10426D01*
X35091Y6225D01*
X33647Y4782D01*
X33630Y4758D01*
X33607Y4739D01*
X33545Y4645D01*
X33476Y4555D01*
X33466Y4527D01*
X33450Y4503D01*
X33416Y4395D01*
X33375Y4289D01*
X33373Y4260D01*
X33364Y4232D01*
X33361Y4118D01*
X33352Y4006D01*
X33357Y3977D01*
X33357Y3948D01*
X33385Y3838D01*
X33408Y3727D01*
X33421Y3701D01*
X33428Y3673D01*
X33486Y3575D01*
X33539Y3475D01*
X33559Y3453D01*
X33574Y3428D01*
X33656Y3351D01*
X33734Y3269D01*
X33760Y3254D01*
X33781Y3234D01*
X33882Y3182D01*
X33980Y3125D01*
X34008Y3118D01*
X34034Y3104D01*
X34112Y3091D01*
X34255Y3055D01*
X34318Y3057D01*
X34365Y3049D01*
X41835Y3049D01*
X41864Y3053D01*
G37*
%LPC*%
G36*
X123110Y145541D02*
X123110Y145541D01*
X115921Y148519D01*
X110419Y154021D01*
X107441Y161210D01*
X107441Y168990D01*
X110419Y176179D01*
X115921Y181681D01*
X123110Y184659D01*
X130890Y184659D01*
X138079Y181681D01*
X143581Y176179D01*
X146559Y168990D01*
X146559Y161210D01*
X143581Y154021D01*
X138079Y148519D01*
X130890Y145541D01*
X123110Y145541D01*
G37*
%LPD*%
%LPC*%
G36*
X21510Y145541D02*
X21510Y145541D01*
X14321Y148519D01*
X8819Y154021D01*
X5841Y161210D01*
X5841Y168990D01*
X8819Y176179D01*
X14321Y181681D01*
X21510Y184659D01*
X29290Y184659D01*
X36479Y181681D01*
X41981Y176179D01*
X44959Y168990D01*
X44959Y161210D01*
X41981Y154021D01*
X36479Y148519D01*
X29290Y145541D01*
X21510Y145541D01*
G37*
%LPD*%
%LPC*%
G36*
X78231Y14731D02*
X78231Y14731D01*
X78231Y24466D01*
X78996Y24345D01*
X80783Y23764D01*
X82457Y22911D01*
X83978Y21806D01*
X85306Y20478D01*
X86411Y18957D01*
X87264Y17283D01*
X87845Y15496D01*
X87966Y14731D01*
X78231Y14731D01*
G37*
%LPD*%
%LPC*%
G36*
X64434Y14731D02*
X64434Y14731D01*
X64555Y15496D01*
X65136Y17283D01*
X65989Y18957D01*
X67094Y20478D01*
X68422Y21806D01*
X69943Y22911D01*
X71617Y23764D01*
X73404Y24345D01*
X74169Y24466D01*
X74169Y14731D01*
X64434Y14731D01*
G37*
%LPD*%
D10*
X13026Y26513D02*
X6247Y26513D01*
X2858Y29903D01*
X6247Y33292D01*
X13026Y33292D01*
X9637Y38207D02*
X13026Y41597D01*
X2858Y41597D01*
X2858Y44986D02*
X2858Y38207D01*
X4552Y49901D02*
X11331Y49901D01*
X13026Y51596D01*
X13026Y54985D01*
X11331Y56680D01*
X4552Y56680D01*
X2858Y54985D01*
X2858Y51596D01*
X4552Y49901D01*
X11331Y56680D01*
D11*
X127000Y12700D03*
X101600Y12700D03*
X76200Y12700D03*
X50800Y12700D03*
X25400Y12700D03*
D12*
X104775Y139700D03*
X50800Y98425D03*
X114300Y50800D03*
X104775Y101600D03*
X76200Y127000D03*
D13*
X76200Y101600D02*
X104775Y101600D01*
X76200Y101600D02*
X76200Y114300D01*
X76200Y127000D01*
X76200Y38100D02*
X50800Y12700D01*
X76200Y38100D02*
X76200Y101600D01*
D12*
X104775Y117475D03*
D13*
X25400Y111302D02*
X25400Y12700D01*
X25400Y111302D02*
X53798Y139700D01*
X82550Y139700D01*
X104775Y117475D01*
M02*
