G04 EAGLE Gerber RS-274X export*
G75*
%MOMM*%
%FSLAX34Y34*%
%LPD*%
%INBottom Copper*%
%IPPOS*%
%AMOC8*
5,1,8,0,0,1.08239X$1,22.5*%
G01*
%ADD10C,0.203200*%
%ADD11C,0.195000*%
%ADD12R,1.000000X1.100000*%
%ADD13C,1.879600*%
%ADD14C,1.000000*%
%ADD15R,1.270000X0.635000*%
%ADD16R,1.100000X1.000000*%
%ADD17C,1.016000*%

G36*
X131136Y4073D02*
X131136Y4073D01*
X131195Y4071D01*
X131276Y4093D01*
X131360Y4105D01*
X131413Y4128D01*
X131470Y4143D01*
X131542Y4186D01*
X131619Y4221D01*
X131664Y4259D01*
X131714Y4288D01*
X131772Y4350D01*
X131836Y4404D01*
X131869Y4453D01*
X131909Y4496D01*
X131947Y4571D01*
X131994Y4641D01*
X132011Y4697D01*
X132038Y4749D01*
X132049Y4817D01*
X132080Y4912D01*
X132082Y5012D01*
X132093Y5080D01*
X132093Y7091D01*
X132093Y9076D01*
X132093Y9217D01*
X132093Y11137D01*
X132093Y12864D01*
X133778Y14549D01*
X134772Y15542D01*
X134805Y15575D01*
X134805Y15576D01*
X135491Y16262D01*
X137197Y16262D01*
X140893Y16262D01*
X141725Y15430D01*
X141771Y15395D01*
X141812Y15352D01*
X141884Y15310D01*
X141952Y15259D01*
X142007Y15238D01*
X142057Y15209D01*
X142138Y15188D01*
X142217Y15158D01*
X142276Y15153D01*
X142332Y15138D01*
X142417Y15141D01*
X142501Y15134D01*
X142558Y15146D01*
X142617Y15147D01*
X142697Y15173D01*
X142779Y15190D01*
X142831Y15217D01*
X142887Y15235D01*
X142943Y15275D01*
X143032Y15321D01*
X143104Y15390D01*
X143160Y15430D01*
X143992Y16262D01*
X147360Y16262D01*
X149134Y14488D01*
X149164Y14465D01*
X149189Y14437D01*
X149237Y14406D01*
X149241Y14402D01*
X149250Y14397D01*
X149277Y14380D01*
X149361Y14317D01*
X149396Y14303D01*
X149428Y14283D01*
X149529Y14253D01*
X149627Y14216D01*
X149664Y14213D01*
X149701Y14202D01*
X149806Y14201D01*
X149910Y14192D01*
X149947Y14200D01*
X149985Y14199D01*
X150059Y14222D01*
X150189Y14248D01*
X150253Y14282D01*
X150306Y14298D01*
X150815Y14552D01*
X152839Y13877D01*
X152854Y13874D01*
X152869Y13868D01*
X152994Y13849D01*
X153119Y13826D01*
X153134Y13827D01*
X153150Y13825D01*
X153218Y13836D01*
X153402Y13854D01*
X153445Y13871D01*
X153481Y13877D01*
X155506Y14552D01*
X158518Y13046D01*
X159583Y9852D01*
X157424Y5534D01*
X157421Y5526D01*
X157416Y5519D01*
X157376Y5391D01*
X157334Y5264D01*
X157333Y5256D01*
X157331Y5248D01*
X157327Y5113D01*
X157322Y4980D01*
X157324Y4972D01*
X157323Y4964D01*
X157357Y4834D01*
X157389Y4704D01*
X157393Y4697D01*
X157395Y4689D01*
X157463Y4574D01*
X157530Y4457D01*
X157536Y4451D01*
X157540Y4444D01*
X157638Y4352D01*
X157734Y4259D01*
X157741Y4256D01*
X157748Y4250D01*
X157867Y4189D01*
X157985Y4126D01*
X157993Y4124D01*
X158001Y4120D01*
X158053Y4112D01*
X158263Y4067D01*
X158301Y4070D01*
X158332Y4065D01*
X180024Y4065D01*
X180115Y4078D01*
X180207Y4081D01*
X180256Y4097D01*
X180306Y4105D01*
X180390Y4142D01*
X180477Y4171D01*
X180519Y4200D01*
X180565Y4221D01*
X180635Y4280D01*
X180711Y4332D01*
X180743Y4372D01*
X180782Y4404D01*
X180833Y4481D01*
X180892Y4552D01*
X180912Y4599D01*
X180940Y4641D01*
X180968Y4729D01*
X181004Y4813D01*
X181010Y4864D01*
X181026Y4912D01*
X181028Y5004D01*
X181039Y5095D01*
X181032Y5146D01*
X181033Y5196D01*
X181010Y5285D01*
X180995Y5376D01*
X180975Y5416D01*
X180961Y5471D01*
X180880Y5608D01*
X180846Y5677D01*
X180289Y6443D01*
X179436Y8117D01*
X178855Y9904D01*
X178734Y10669D01*
X189484Y10669D01*
X189542Y10677D01*
X189600Y10675D01*
X189682Y10697D01*
X189765Y10709D01*
X189819Y10733D01*
X189875Y10747D01*
X189948Y10790D01*
X190025Y10825D01*
X190069Y10863D01*
X190120Y10893D01*
X190177Y10954D01*
X190242Y11009D01*
X190274Y11057D01*
X190314Y11100D01*
X190353Y11175D01*
X190399Y11245D01*
X190417Y11301D01*
X190444Y11353D01*
X190455Y11421D01*
X190485Y11516D01*
X190488Y11616D01*
X190499Y11684D01*
X190499Y12701D01*
X191516Y12701D01*
X191574Y12709D01*
X191632Y12708D01*
X191714Y12729D01*
X191797Y12741D01*
X191851Y12765D01*
X191907Y12779D01*
X191980Y12822D01*
X192057Y12857D01*
X192102Y12895D01*
X192152Y12925D01*
X192210Y12986D01*
X192274Y13041D01*
X192306Y13089D01*
X192346Y13132D01*
X192385Y13207D01*
X192431Y13277D01*
X192449Y13333D01*
X192476Y13385D01*
X192487Y13453D01*
X192517Y13548D01*
X192520Y13648D01*
X192531Y13716D01*
X192531Y24466D01*
X193296Y24345D01*
X195083Y23764D01*
X196757Y22911D01*
X198278Y21806D01*
X199606Y20478D01*
X200711Y18957D01*
X201564Y17283D01*
X201928Y16163D01*
X201958Y16101D01*
X201979Y16035D01*
X202020Y15974D01*
X202053Y15908D01*
X202099Y15857D01*
X202138Y15799D01*
X202194Y15752D01*
X202243Y15697D01*
X202302Y15661D01*
X202355Y15616D01*
X202422Y15586D01*
X202485Y15547D01*
X202552Y15529D01*
X202615Y15501D01*
X202688Y15491D01*
X202759Y15471D01*
X202828Y15471D01*
X202897Y15462D01*
X202969Y15472D01*
X203043Y15473D01*
X203110Y15493D01*
X203178Y15502D01*
X203245Y15533D01*
X203316Y15554D01*
X203374Y15591D01*
X203437Y15620D01*
X203493Y15667D01*
X203555Y15707D01*
X203601Y15759D01*
X203653Y15804D01*
X203686Y15857D01*
X203743Y15921D01*
X203792Y16025D01*
X203831Y16089D01*
X205348Y19751D01*
X208849Y23252D01*
X213424Y25147D01*
X218376Y25147D01*
X220735Y24170D01*
X220736Y24169D01*
X220738Y24168D01*
X220872Y24134D01*
X221010Y24099D01*
X221012Y24099D01*
X221013Y24098D01*
X221154Y24103D01*
X221294Y24107D01*
X221296Y24107D01*
X221297Y24107D01*
X221430Y24150D01*
X221565Y24193D01*
X221566Y24194D01*
X221568Y24195D01*
X221580Y24203D01*
X221801Y24352D01*
X221821Y24375D01*
X221841Y24390D01*
X236938Y39486D01*
X236990Y39556D01*
X237050Y39620D01*
X237076Y39669D01*
X237109Y39714D01*
X237140Y39795D01*
X237180Y39873D01*
X237188Y39921D01*
X237210Y39979D01*
X237222Y40127D01*
X237235Y40204D01*
X237235Y45488D01*
X237231Y45518D01*
X237234Y45547D01*
X237211Y45658D01*
X237195Y45770D01*
X237183Y45797D01*
X237178Y45825D01*
X237125Y45926D01*
X237079Y46029D01*
X237060Y46052D01*
X237047Y46078D01*
X236969Y46160D01*
X236896Y46246D01*
X236871Y46263D01*
X236851Y46284D01*
X236753Y46341D01*
X236659Y46404D01*
X236631Y46413D01*
X236606Y46428D01*
X236496Y46456D01*
X236388Y46490D01*
X236358Y46491D01*
X236330Y46498D01*
X236217Y46494D01*
X236104Y46497D01*
X236075Y46490D01*
X236046Y46489D01*
X235938Y46454D01*
X235829Y46425D01*
X235803Y46410D01*
X235775Y46401D01*
X235712Y46356D01*
X235584Y46280D01*
X235541Y46234D01*
X235502Y46206D01*
X233205Y43909D01*
X230217Y42671D01*
X226983Y42671D01*
X223995Y43909D01*
X221709Y46195D01*
X220471Y49183D01*
X220471Y52417D01*
X221709Y55405D01*
X224033Y57728D01*
X224153Y57800D01*
X224154Y57801D01*
X224156Y57802D01*
X224251Y57904D01*
X224348Y58006D01*
X224349Y58008D01*
X224350Y58009D01*
X224414Y58134D01*
X224479Y58259D01*
X224479Y58261D01*
X224480Y58262D01*
X224482Y58277D01*
X224534Y58538D01*
X224531Y58569D01*
X224535Y58593D01*
X224535Y61396D01*
X224523Y61482D01*
X224520Y61570D01*
X224503Y61622D01*
X224495Y61677D01*
X224460Y61757D01*
X224433Y61840D01*
X224405Y61880D01*
X224379Y61937D01*
X224283Y62050D01*
X224238Y62114D01*
X221982Y64370D01*
X221958Y64387D01*
X221939Y64410D01*
X221845Y64473D01*
X221755Y64541D01*
X221727Y64551D01*
X221703Y64567D01*
X221595Y64602D01*
X221489Y64642D01*
X221460Y64644D01*
X221432Y64653D01*
X221318Y64656D01*
X221206Y64665D01*
X221177Y64660D01*
X221148Y64660D01*
X221038Y64632D01*
X220927Y64610D01*
X220901Y64596D01*
X220873Y64589D01*
X220775Y64531D01*
X220675Y64479D01*
X220653Y64458D01*
X220628Y64443D01*
X220551Y64361D01*
X220469Y64283D01*
X220454Y64257D01*
X220434Y64236D01*
X220382Y64135D01*
X220325Y64037D01*
X220318Y64009D01*
X220304Y63983D01*
X220291Y63906D01*
X220255Y63762D01*
X220257Y63699D01*
X220249Y63652D01*
X220249Y63587D01*
X218463Y61801D01*
X204937Y61801D01*
X203918Y62821D01*
X203871Y62856D01*
X203831Y62898D01*
X203758Y62941D01*
X203691Y62991D01*
X203636Y63012D01*
X203586Y63042D01*
X203504Y63063D01*
X203425Y63093D01*
X203367Y63098D01*
X203310Y63112D01*
X203226Y63109D01*
X203142Y63116D01*
X203084Y63105D01*
X203026Y63103D01*
X202946Y63077D01*
X202863Y63060D01*
X202811Y63033D01*
X202755Y63015D01*
X202699Y62975D01*
X202611Y62929D01*
X202538Y62861D01*
X202482Y62821D01*
X201463Y61801D01*
X192820Y61801D01*
X192734Y61789D01*
X192646Y61786D01*
X192593Y61769D01*
X192539Y61761D01*
X192459Y61726D01*
X192376Y61699D01*
X192336Y61671D01*
X192279Y61645D01*
X192166Y61549D01*
X192102Y61504D01*
X188256Y57657D01*
X175292Y57657D01*
X175206Y57645D01*
X175118Y57642D01*
X175066Y57625D01*
X175011Y57617D01*
X174931Y57582D01*
X174848Y57555D01*
X174809Y57527D01*
X174751Y57501D01*
X174638Y57405D01*
X174574Y57360D01*
X172713Y55498D01*
X157487Y55498D01*
X155701Y57284D01*
X155701Y74288D01*
X155912Y74498D01*
X155964Y74568D01*
X156024Y74632D01*
X156050Y74682D01*
X156083Y74726D01*
X156114Y74807D01*
X156154Y74885D01*
X156162Y74933D01*
X156184Y74991D01*
X156196Y75139D01*
X156209Y75216D01*
X156209Y76391D01*
X164528Y76391D01*
X164586Y76399D01*
X164645Y76398D01*
X164726Y76419D01*
X164810Y76431D01*
X164863Y76455D01*
X164920Y76470D01*
X164992Y76513D01*
X165069Y76547D01*
X165097Y76571D01*
X165163Y76538D01*
X165233Y76491D01*
X165289Y76473D01*
X165341Y76447D01*
X165409Y76435D01*
X165504Y76405D01*
X165604Y76403D01*
X165672Y76391D01*
X173991Y76391D01*
X173991Y75216D01*
X174003Y75130D01*
X174006Y75042D01*
X174023Y74990D01*
X174031Y74935D01*
X174066Y74855D01*
X174093Y74772D01*
X174121Y74733D01*
X174147Y74675D01*
X174243Y74562D01*
X174288Y74498D01*
X174574Y74212D01*
X174644Y74160D01*
X174708Y74100D01*
X174758Y74074D01*
X174802Y74041D01*
X174883Y74010D01*
X174961Y73970D01*
X175009Y73962D01*
X175067Y73940D01*
X175215Y73928D01*
X175292Y73915D01*
X175696Y73915D01*
X175782Y73927D01*
X175870Y73930D01*
X175922Y73947D01*
X175977Y73955D01*
X176057Y73990D01*
X176140Y74017D01*
X176180Y74045D01*
X176237Y74071D01*
X176350Y74167D01*
X176414Y74212D01*
X185304Y83102D01*
X185321Y83126D01*
X185344Y83145D01*
X185407Y83239D01*
X185475Y83329D01*
X185485Y83357D01*
X185501Y83381D01*
X185536Y83489D01*
X185576Y83595D01*
X185578Y83624D01*
X185587Y83652D01*
X185590Y83766D01*
X185599Y83878D01*
X185594Y83907D01*
X185594Y83936D01*
X185566Y84046D01*
X185544Y84157D01*
X185530Y84183D01*
X185523Y84211D01*
X185465Y84309D01*
X185413Y84409D01*
X185392Y84431D01*
X185377Y84456D01*
X185295Y84533D01*
X185217Y84615D01*
X185191Y84630D01*
X185170Y84650D01*
X185069Y84702D01*
X184971Y84759D01*
X184943Y84766D01*
X184917Y84780D01*
X184840Y84793D01*
X184696Y84829D01*
X184633Y84827D01*
X184586Y84835D01*
X173812Y84835D01*
X173783Y84831D01*
X173754Y84834D01*
X173642Y84811D01*
X173530Y84795D01*
X173504Y84783D01*
X173475Y84778D01*
X173374Y84725D01*
X173271Y84679D01*
X173249Y84660D01*
X173223Y84647D01*
X173140Y84569D01*
X173054Y84496D01*
X173038Y84471D01*
X173016Y84451D01*
X172959Y84353D01*
X172896Y84259D01*
X172888Y84231D01*
X172873Y84206D01*
X172845Y84096D01*
X172811Y83988D01*
X172810Y83958D01*
X172803Y83930D01*
X172806Y83817D01*
X172803Y83704D01*
X172811Y83675D01*
X172812Y83646D01*
X172847Y83538D01*
X172875Y83429D01*
X172890Y83403D01*
X172899Y83375D01*
X172945Y83311D01*
X173020Y83184D01*
X173066Y83141D01*
X173094Y83102D01*
X173483Y82713D01*
X173818Y82134D01*
X173991Y81487D01*
X173991Y79565D01*
X165672Y79565D01*
X165614Y79557D01*
X165555Y79558D01*
X165474Y79537D01*
X165390Y79525D01*
X165337Y79501D01*
X165280Y79486D01*
X165208Y79443D01*
X165131Y79409D01*
X165103Y79385D01*
X165037Y79418D01*
X164967Y79465D01*
X164911Y79483D01*
X164859Y79509D01*
X164791Y79521D01*
X164696Y79551D01*
X164596Y79553D01*
X164528Y79565D01*
X156209Y79565D01*
X156209Y81487D01*
X156382Y82134D01*
X156717Y82713D01*
X157106Y83102D01*
X157124Y83126D01*
X157146Y83145D01*
X157209Y83239D01*
X157277Y83329D01*
X157287Y83357D01*
X157304Y83381D01*
X157338Y83489D01*
X157378Y83595D01*
X157381Y83624D01*
X157389Y83652D01*
X157392Y83765D01*
X157402Y83878D01*
X157396Y83907D01*
X157397Y83936D01*
X157368Y84046D01*
X157346Y84157D01*
X157332Y84183D01*
X157325Y84211D01*
X157267Y84309D01*
X157215Y84409D01*
X157195Y84431D01*
X157180Y84456D01*
X157097Y84533D01*
X157019Y84615D01*
X156994Y84630D01*
X156972Y84650D01*
X156871Y84702D01*
X156774Y84759D01*
X156745Y84766D01*
X156719Y84780D01*
X156642Y84793D01*
X156498Y84829D01*
X156436Y84827D01*
X156388Y84835D01*
X148764Y84835D01*
X148706Y84827D01*
X148648Y84829D01*
X148566Y84807D01*
X148482Y84795D01*
X148429Y84772D01*
X148373Y84757D01*
X148300Y84714D01*
X148223Y84679D01*
X148178Y84641D01*
X148128Y84612D01*
X148070Y84550D01*
X148006Y84496D01*
X147974Y84447D01*
X147934Y84404D01*
X147895Y84329D01*
X147848Y84259D01*
X147831Y84203D01*
X147804Y84151D01*
X147793Y84083D01*
X147763Y83988D01*
X147760Y83888D01*
X147749Y83820D01*
X147749Y71587D01*
X146370Y70209D01*
X146335Y70162D01*
X146293Y70122D01*
X146250Y70049D01*
X146199Y69982D01*
X146178Y69927D01*
X146149Y69876D01*
X146128Y69795D01*
X146098Y69716D01*
X146093Y69657D01*
X146079Y69601D01*
X146082Y69517D01*
X146075Y69433D01*
X146086Y69375D01*
X146088Y69317D01*
X146114Y69237D01*
X146130Y69154D01*
X146157Y69102D01*
X146175Y69046D01*
X146215Y68990D01*
X146261Y68901D01*
X146330Y68829D01*
X146370Y68773D01*
X146733Y68410D01*
X147068Y67831D01*
X147241Y67184D01*
X147241Y63381D01*
X140716Y63381D01*
X140658Y63373D01*
X140600Y63374D01*
X140518Y63353D01*
X140435Y63341D01*
X140381Y63317D01*
X140325Y63303D01*
X140252Y63260D01*
X140175Y63225D01*
X140131Y63187D01*
X140080Y63157D01*
X140023Y63096D01*
X139958Y63041D01*
X139926Y62993D01*
X139886Y62950D01*
X139847Y62875D01*
X139801Y62805D01*
X139783Y62749D01*
X139756Y62697D01*
X139745Y62629D01*
X139715Y62534D01*
X139712Y62434D01*
X139701Y62366D01*
X139701Y61349D01*
X139699Y61349D01*
X139699Y62366D01*
X139691Y62424D01*
X139692Y62482D01*
X139671Y62564D01*
X139659Y62647D01*
X139635Y62701D01*
X139621Y62757D01*
X139578Y62830D01*
X139543Y62907D01*
X139505Y62951D01*
X139475Y63002D01*
X139414Y63059D01*
X139359Y63124D01*
X139311Y63156D01*
X139268Y63196D01*
X139193Y63235D01*
X139123Y63281D01*
X139067Y63299D01*
X139015Y63326D01*
X138947Y63337D01*
X138852Y63367D01*
X138752Y63370D01*
X138684Y63381D01*
X132159Y63381D01*
X132159Y67184D01*
X132332Y67831D01*
X132667Y68410D01*
X133030Y68773D01*
X133065Y68820D01*
X133107Y68860D01*
X133150Y68933D01*
X133201Y69000D01*
X133222Y69055D01*
X133251Y69105D01*
X133272Y69187D01*
X133302Y69266D01*
X133307Y69324D01*
X133321Y69381D01*
X133318Y69465D01*
X133325Y69549D01*
X133314Y69606D01*
X133312Y69665D01*
X133286Y69745D01*
X133270Y69828D01*
X133243Y69880D01*
X133225Y69935D01*
X133184Y69992D01*
X133139Y70080D01*
X133070Y70152D01*
X133030Y70209D01*
X131651Y71587D01*
X131651Y85113D01*
X133437Y86899D01*
X137880Y86899D01*
X137966Y86911D01*
X138054Y86914D01*
X138106Y86931D01*
X138161Y86939D01*
X138241Y86974D01*
X138324Y87001D01*
X138364Y87029D01*
X138421Y87055D01*
X138534Y87151D01*
X138598Y87196D01*
X143255Y91853D01*
X143272Y91876D01*
X143295Y91895D01*
X143357Y91990D01*
X143425Y92080D01*
X143436Y92108D01*
X143452Y92132D01*
X143486Y92240D01*
X143527Y92346D01*
X143529Y92375D01*
X143538Y92403D01*
X143541Y92516D01*
X143550Y92629D01*
X143544Y92658D01*
X143545Y92687D01*
X143517Y92797D01*
X143494Y92908D01*
X143481Y92934D01*
X143473Y92962D01*
X143416Y93060D01*
X143363Y93160D01*
X143343Y93181D01*
X143328Y93207D01*
X143246Y93284D01*
X143168Y93366D01*
X143142Y93381D01*
X143121Y93401D01*
X143020Y93453D01*
X142922Y93510D01*
X142894Y93517D01*
X142868Y93531D01*
X142790Y93544D01*
X142647Y93580D01*
X142584Y93578D01*
X142537Y93586D01*
X119380Y93586D01*
X119322Y93578D01*
X119264Y93579D01*
X119182Y93558D01*
X119098Y93546D01*
X119045Y93522D01*
X118989Y93508D01*
X118916Y93465D01*
X118839Y93430D01*
X118794Y93392D01*
X118744Y93362D01*
X118686Y93301D01*
X118622Y93246D01*
X118590Y93198D01*
X118550Y93155D01*
X118511Y93080D01*
X118464Y93010D01*
X118447Y92954D01*
X118420Y92902D01*
X118409Y92834D01*
X118379Y92739D01*
X118376Y92639D01*
X118365Y92571D01*
X118365Y87914D01*
X118373Y87856D01*
X118371Y87798D01*
X118393Y87716D01*
X118405Y87632D01*
X118428Y87579D01*
X118443Y87523D01*
X118486Y87450D01*
X118521Y87373D01*
X118559Y87328D01*
X118588Y87278D01*
X118650Y87220D01*
X118704Y87156D01*
X118753Y87124D01*
X118796Y87084D01*
X118871Y87045D01*
X118941Y86998D01*
X118997Y86981D01*
X119049Y86954D01*
X119117Y86943D01*
X119212Y86913D01*
X119312Y86910D01*
X119380Y86899D01*
X120563Y86899D01*
X122349Y85113D01*
X122349Y71587D01*
X120970Y70209D01*
X120935Y70162D01*
X120893Y70122D01*
X120850Y70049D01*
X120799Y69981D01*
X120779Y69927D01*
X120749Y69876D01*
X120728Y69795D01*
X120698Y69716D01*
X120693Y69658D01*
X120679Y69601D01*
X120682Y69516D01*
X120675Y69432D01*
X120686Y69375D01*
X120688Y69317D01*
X120714Y69236D01*
X120730Y69154D01*
X120757Y69102D01*
X120775Y69046D01*
X120816Y68990D01*
X120861Y68901D01*
X120930Y68829D01*
X120970Y68773D01*
X121333Y68410D01*
X121668Y67831D01*
X121841Y67184D01*
X121841Y63381D01*
X115316Y63381D01*
X115258Y63373D01*
X115200Y63374D01*
X115118Y63353D01*
X115035Y63341D01*
X114981Y63317D01*
X114925Y63303D01*
X114852Y63260D01*
X114775Y63225D01*
X114731Y63187D01*
X114680Y63157D01*
X114623Y63096D01*
X114558Y63041D01*
X114526Y62993D01*
X114486Y62950D01*
X114447Y62875D01*
X114401Y62805D01*
X114383Y62749D01*
X114356Y62697D01*
X114345Y62629D01*
X114315Y62534D01*
X114312Y62434D01*
X114301Y62366D01*
X114301Y61349D01*
X114299Y61349D01*
X114299Y62366D01*
X114291Y62424D01*
X114292Y62482D01*
X114271Y62564D01*
X114259Y62647D01*
X114235Y62701D01*
X114221Y62757D01*
X114178Y62830D01*
X114143Y62907D01*
X114105Y62951D01*
X114075Y63002D01*
X114014Y63059D01*
X113959Y63124D01*
X113911Y63156D01*
X113868Y63196D01*
X113793Y63235D01*
X113723Y63281D01*
X113667Y63299D01*
X113615Y63326D01*
X113547Y63337D01*
X113452Y63367D01*
X113352Y63370D01*
X113284Y63381D01*
X106759Y63381D01*
X106759Y67184D01*
X106932Y67831D01*
X107267Y68410D01*
X107630Y68773D01*
X107665Y68820D01*
X107707Y68860D01*
X107750Y68933D01*
X107801Y69000D01*
X107822Y69055D01*
X107851Y69105D01*
X107872Y69187D01*
X107902Y69266D01*
X107907Y69324D01*
X107921Y69381D01*
X107918Y69465D01*
X107925Y69549D01*
X107914Y69606D01*
X107912Y69665D01*
X107886Y69745D01*
X107870Y69828D01*
X107843Y69880D01*
X107825Y69935D01*
X107785Y69992D01*
X107739Y70080D01*
X107670Y70152D01*
X107630Y70209D01*
X106251Y71587D01*
X106251Y85113D01*
X108037Y86899D01*
X109220Y86899D01*
X109278Y86907D01*
X109336Y86905D01*
X109418Y86927D01*
X109502Y86939D01*
X109555Y86962D01*
X109611Y86977D01*
X109684Y87020D01*
X109761Y87055D01*
X109806Y87093D01*
X109856Y87122D01*
X109914Y87184D01*
X109978Y87238D01*
X110010Y87287D01*
X110050Y87330D01*
X110089Y87405D01*
X110136Y87475D01*
X110153Y87531D01*
X110180Y87583D01*
X110191Y87651D01*
X110221Y87746D01*
X110224Y87846D01*
X110235Y87914D01*
X110235Y92710D01*
X110227Y92768D01*
X110229Y92826D01*
X110207Y92908D01*
X110195Y92992D01*
X110172Y93045D01*
X110157Y93101D01*
X110114Y93174D01*
X110079Y93251D01*
X110041Y93296D01*
X110012Y93346D01*
X109950Y93404D01*
X109896Y93468D01*
X109847Y93500D01*
X109804Y93540D01*
X109729Y93579D01*
X109659Y93626D01*
X109603Y93643D01*
X109551Y93670D01*
X109483Y93681D01*
X109388Y93711D01*
X109288Y93714D01*
X109220Y93725D01*
X5080Y93725D01*
X5022Y93717D01*
X4964Y93719D01*
X4882Y93697D01*
X4798Y93685D01*
X4745Y93661D01*
X4689Y93647D01*
X4616Y93604D01*
X4539Y93569D01*
X4494Y93531D01*
X4444Y93501D01*
X4386Y93440D01*
X4322Y93385D01*
X4290Y93337D01*
X4250Y93294D01*
X4211Y93219D01*
X4164Y93149D01*
X4147Y93093D01*
X4120Y93041D01*
X4109Y92973D01*
X4079Y92878D01*
X4076Y92778D01*
X4065Y92710D01*
X4065Y5080D01*
X4073Y5022D01*
X4071Y4964D01*
X4093Y4882D01*
X4105Y4798D01*
X4128Y4745D01*
X4143Y4689D01*
X4186Y4616D01*
X4221Y4539D01*
X4259Y4494D01*
X4288Y4444D01*
X4350Y4386D01*
X4404Y4322D01*
X4453Y4290D01*
X4496Y4250D01*
X4571Y4211D01*
X4641Y4164D01*
X4697Y4147D01*
X4749Y4120D01*
X4817Y4109D01*
X4912Y4079D01*
X5012Y4076D01*
X5080Y4065D01*
X131078Y4065D01*
X131136Y4073D01*
G37*
G36*
X413931Y4069D02*
X413931Y4069D01*
X413960Y4066D01*
X414071Y4089D01*
X414183Y4105D01*
X414210Y4117D01*
X414239Y4122D01*
X414339Y4175D01*
X414443Y4221D01*
X414465Y4240D01*
X414491Y4253D01*
X414573Y4331D01*
X414660Y4404D01*
X414676Y4429D01*
X414697Y4449D01*
X414754Y4547D01*
X414817Y4641D01*
X414826Y4669D01*
X414841Y4694D01*
X414869Y4804D01*
X414903Y4912D01*
X414904Y4942D01*
X414911Y4970D01*
X414907Y5083D01*
X414910Y5196D01*
X414903Y5225D01*
X414902Y5254D01*
X414867Y5362D01*
X414838Y5471D01*
X414823Y5497D01*
X414814Y5525D01*
X414769Y5588D01*
X414693Y5716D01*
X414648Y5759D01*
X414620Y5798D01*
X412277Y8141D01*
X411051Y11099D01*
X411051Y14301D01*
X412277Y17259D01*
X414541Y19523D01*
X417499Y20749D01*
X420701Y20749D01*
X423659Y19523D01*
X425923Y17259D01*
X427149Y14301D01*
X427149Y11099D01*
X425923Y8141D01*
X423580Y5798D01*
X423563Y5774D01*
X423540Y5755D01*
X423478Y5661D01*
X423410Y5571D01*
X423399Y5543D01*
X423383Y5519D01*
X423349Y5411D01*
X423308Y5305D01*
X423306Y5276D01*
X423297Y5248D01*
X423294Y5134D01*
X423285Y5022D01*
X423291Y4993D01*
X423290Y4964D01*
X423318Y4854D01*
X423341Y4743D01*
X423354Y4717D01*
X423362Y4689D01*
X423419Y4591D01*
X423472Y4491D01*
X423492Y4469D01*
X423507Y4444D01*
X423589Y4367D01*
X423667Y4285D01*
X423693Y4270D01*
X423714Y4250D01*
X423815Y4198D01*
X423913Y4141D01*
X423941Y4134D01*
X423967Y4120D01*
X424045Y4107D01*
X424188Y4071D01*
X424251Y4073D01*
X424298Y4065D01*
X477520Y4065D01*
X477578Y4073D01*
X477636Y4071D01*
X477718Y4093D01*
X477802Y4105D01*
X477855Y4128D01*
X477911Y4143D01*
X477984Y4186D01*
X478061Y4221D01*
X478106Y4259D01*
X478156Y4288D01*
X478214Y4350D01*
X478278Y4404D01*
X478310Y4453D01*
X478350Y4496D01*
X478389Y4571D01*
X478436Y4641D01*
X478453Y4697D01*
X478480Y4749D01*
X478491Y4817D01*
X478521Y4912D01*
X478524Y5012D01*
X478535Y5080D01*
X478535Y92710D01*
X478527Y92768D01*
X478529Y92826D01*
X478507Y92908D01*
X478495Y92992D01*
X478472Y93045D01*
X478457Y93101D01*
X478414Y93174D01*
X478379Y93251D01*
X478341Y93296D01*
X478312Y93346D01*
X478250Y93404D01*
X478196Y93468D01*
X478147Y93500D01*
X478104Y93540D01*
X478029Y93579D01*
X477959Y93626D01*
X477903Y93643D01*
X477851Y93670D01*
X477783Y93681D01*
X477688Y93711D01*
X477588Y93714D01*
X477520Y93725D01*
X455494Y93725D01*
X455407Y93713D01*
X455320Y93710D01*
X455267Y93693D01*
X455213Y93685D01*
X455133Y93650D01*
X455093Y93637D01*
X282863Y93637D01*
X282833Y93633D01*
X282804Y93635D01*
X282693Y93613D01*
X282581Y93597D01*
X282554Y93585D01*
X282526Y93579D01*
X282425Y93527D01*
X282322Y93481D01*
X282299Y93462D01*
X282273Y93448D01*
X282191Y93370D01*
X282105Y93297D01*
X282088Y93273D01*
X282067Y93252D01*
X282010Y93155D01*
X281947Y93060D01*
X281938Y93032D01*
X281923Y93007D01*
X281896Y92898D01*
X281861Y92789D01*
X281861Y92760D01*
X281853Y92732D01*
X281857Y92619D01*
X281854Y92505D01*
X281861Y92477D01*
X281862Y92448D01*
X281897Y92340D01*
X281926Y92230D01*
X281941Y92205D01*
X281950Y92177D01*
X281995Y92113D01*
X282071Y91986D01*
X282117Y91943D01*
X282145Y91904D01*
X293486Y80562D01*
X296165Y77884D01*
X296165Y66430D01*
X296173Y66372D01*
X296171Y66314D01*
X296193Y66232D01*
X296205Y66148D01*
X296228Y66095D01*
X296243Y66039D01*
X296286Y65966D01*
X296321Y65889D01*
X296359Y65844D01*
X296388Y65794D01*
X296450Y65736D01*
X296504Y65672D01*
X296553Y65640D01*
X296596Y65600D01*
X296671Y65561D01*
X296741Y65514D01*
X296797Y65497D01*
X296849Y65470D01*
X296917Y65459D01*
X297012Y65429D01*
X297112Y65426D01*
X297180Y65415D01*
X308436Y65415D01*
X308494Y65423D01*
X308552Y65421D01*
X308634Y65443D01*
X308718Y65455D01*
X308771Y65478D01*
X308827Y65493D01*
X308900Y65536D01*
X308977Y65571D01*
X309022Y65609D01*
X309072Y65638D01*
X309130Y65700D01*
X309194Y65754D01*
X309226Y65803D01*
X309266Y65846D01*
X309305Y65921D01*
X309352Y65991D01*
X309369Y66047D01*
X309396Y66099D01*
X309407Y66167D01*
X309437Y66262D01*
X309440Y66362D01*
X309451Y66430D01*
X309451Y68113D01*
X310830Y69491D01*
X310865Y69538D01*
X310907Y69578D01*
X310950Y69651D01*
X311001Y69718D01*
X311022Y69773D01*
X311051Y69824D01*
X311072Y69905D01*
X311102Y69984D01*
X311107Y70043D01*
X311121Y70099D01*
X311118Y70183D01*
X311125Y70267D01*
X311114Y70325D01*
X311112Y70383D01*
X311086Y70463D01*
X311070Y70546D01*
X311043Y70598D01*
X311025Y70654D01*
X310985Y70710D01*
X310939Y70799D01*
X310870Y70871D01*
X310830Y70927D01*
X310467Y71290D01*
X310132Y71869D01*
X309959Y72516D01*
X309959Y76319D01*
X316484Y76319D01*
X316542Y76327D01*
X316600Y76325D01*
X316682Y76347D01*
X316765Y76359D01*
X316819Y76383D01*
X316875Y76397D01*
X316948Y76440D01*
X317025Y76475D01*
X317069Y76513D01*
X317120Y76543D01*
X317177Y76604D01*
X317242Y76659D01*
X317274Y76707D01*
X317314Y76750D01*
X317353Y76825D01*
X317399Y76895D01*
X317417Y76951D01*
X317444Y77003D01*
X317455Y77071D01*
X317485Y77166D01*
X317488Y77266D01*
X317499Y77334D01*
X317499Y78351D01*
X317501Y78351D01*
X317501Y77334D01*
X317509Y77276D01*
X317508Y77218D01*
X317529Y77136D01*
X317541Y77053D01*
X317565Y76999D01*
X317579Y76943D01*
X317622Y76870D01*
X317657Y76793D01*
X317695Y76748D01*
X317725Y76698D01*
X317786Y76640D01*
X317841Y76576D01*
X317889Y76544D01*
X317932Y76504D01*
X318007Y76465D01*
X318077Y76419D01*
X318133Y76401D01*
X318185Y76374D01*
X318253Y76363D01*
X318348Y76333D01*
X318448Y76330D01*
X318516Y76319D01*
X325041Y76319D01*
X325041Y72516D01*
X324868Y71869D01*
X324533Y71290D01*
X324170Y70927D01*
X324135Y70880D01*
X324093Y70840D01*
X324050Y70767D01*
X323999Y70700D01*
X323978Y70645D01*
X323949Y70595D01*
X323928Y70513D01*
X323898Y70434D01*
X323893Y70376D01*
X323879Y70319D01*
X323882Y70235D01*
X323875Y70151D01*
X323886Y70094D01*
X323888Y70035D01*
X323914Y69955D01*
X323930Y69872D01*
X323957Y69820D01*
X323975Y69765D01*
X324016Y69708D01*
X324061Y69620D01*
X324130Y69548D01*
X324170Y69491D01*
X325549Y68113D01*
X325549Y54587D01*
X323763Y52801D01*
X311237Y52801D01*
X309451Y54587D01*
X309451Y56270D01*
X309443Y56328D01*
X309445Y56386D01*
X309423Y56468D01*
X309411Y56552D01*
X309388Y56605D01*
X309373Y56661D01*
X309330Y56734D01*
X309295Y56811D01*
X309257Y56856D01*
X309228Y56906D01*
X309166Y56964D01*
X309112Y57028D01*
X309063Y57060D01*
X309020Y57100D01*
X308945Y57139D01*
X308875Y57186D01*
X308819Y57203D01*
X308767Y57230D01*
X308699Y57241D01*
X308604Y57271D01*
X308504Y57274D01*
X308436Y57285D01*
X297180Y57285D01*
X297122Y57277D01*
X297064Y57279D01*
X296982Y57257D01*
X296898Y57245D01*
X296845Y57222D01*
X296789Y57207D01*
X296716Y57164D01*
X296639Y57129D01*
X296594Y57091D01*
X296544Y57062D01*
X296486Y57000D01*
X296422Y56946D01*
X296390Y56897D01*
X296350Y56854D01*
X296311Y56779D01*
X296264Y56709D01*
X296247Y56653D01*
X296220Y56601D01*
X296209Y56533D01*
X296179Y56438D01*
X296176Y56338D01*
X296165Y56270D01*
X296165Y25167D01*
X296165Y25165D01*
X296165Y25164D01*
X296185Y25025D01*
X296205Y24885D01*
X296205Y24884D01*
X296205Y24882D01*
X296265Y24750D01*
X296321Y24626D01*
X296322Y24625D01*
X296323Y24623D01*
X296414Y24516D01*
X296504Y24409D01*
X296506Y24408D01*
X296507Y24407D01*
X296520Y24399D01*
X296741Y24251D01*
X296770Y24242D01*
X296791Y24229D01*
X299151Y23252D01*
X302652Y19751D01*
X304547Y15176D01*
X304547Y10224D01*
X302577Y5469D01*
X302548Y5357D01*
X302514Y5248D01*
X302513Y5220D01*
X302506Y5193D01*
X302509Y5079D01*
X302506Y4964D01*
X302513Y4937D01*
X302514Y4909D01*
X302549Y4800D01*
X302578Y4689D01*
X302592Y4665D01*
X302601Y4638D01*
X302665Y4543D01*
X302723Y4444D01*
X302744Y4425D01*
X302759Y4402D01*
X302847Y4328D01*
X302931Y4250D01*
X302955Y4237D01*
X302977Y4219D01*
X303081Y4173D01*
X303184Y4120D01*
X303208Y4116D01*
X303236Y4104D01*
X303500Y4067D01*
X303515Y4065D01*
X413902Y4065D01*
X413931Y4069D01*
G37*
%LPC*%
G36*
X440514Y15493D02*
X440514Y15493D01*
X433022Y18220D01*
X426915Y23344D01*
X422929Y30249D01*
X421545Y38100D01*
X422929Y45951D01*
X426915Y52855D01*
X433022Y57980D01*
X440514Y60707D01*
X448486Y60707D01*
X455978Y57980D01*
X462085Y52856D01*
X466071Y45951D01*
X467455Y38100D01*
X466071Y30249D01*
X462085Y23345D01*
X455978Y18220D01*
X448486Y15493D01*
X440514Y15493D01*
G37*
%LPD*%
%LPC*%
G36*
X34114Y15493D02*
X34114Y15493D01*
X26622Y18220D01*
X20515Y23344D01*
X16529Y30249D01*
X15145Y38100D01*
X16529Y45951D01*
X20515Y52855D01*
X26622Y57980D01*
X34114Y60707D01*
X42086Y60707D01*
X49578Y57980D01*
X55685Y52856D01*
X59671Y45951D01*
X61055Y38100D01*
X59671Y30249D01*
X55685Y23345D01*
X49578Y18220D01*
X42086Y15493D01*
X34114Y15493D01*
G37*
%LPD*%
%LPC*%
G36*
X178734Y14731D02*
X178734Y14731D01*
X178855Y15496D01*
X179436Y17283D01*
X180289Y18957D01*
X181394Y20478D01*
X182722Y21806D01*
X184243Y22911D01*
X185917Y23764D01*
X187704Y24345D01*
X188469Y24466D01*
X188469Y14731D01*
X178734Y14731D01*
G37*
%LPD*%
%LPC*%
G36*
X319531Y80381D02*
X319531Y80381D01*
X319531Y86391D01*
X322834Y86391D01*
X323481Y86218D01*
X324060Y85883D01*
X324533Y85410D01*
X324868Y84831D01*
X325041Y84184D01*
X325041Y80381D01*
X319531Y80381D01*
G37*
%LPD*%
%LPC*%
G36*
X116331Y53309D02*
X116331Y53309D01*
X116331Y59319D01*
X121841Y59319D01*
X121841Y55516D01*
X121668Y54869D01*
X121333Y54290D01*
X120860Y53817D01*
X120281Y53482D01*
X119634Y53309D01*
X116331Y53309D01*
G37*
%LPD*%
%LPC*%
G36*
X141731Y53309D02*
X141731Y53309D01*
X141731Y59319D01*
X147241Y59319D01*
X147241Y55516D01*
X147068Y54869D01*
X146733Y54290D01*
X146260Y53817D01*
X145681Y53482D01*
X145034Y53309D01*
X141731Y53309D01*
G37*
%LPD*%
%LPC*%
G36*
X309959Y80381D02*
X309959Y80381D01*
X309959Y84184D01*
X310132Y84831D01*
X310467Y85410D01*
X310940Y85883D01*
X311519Y86218D01*
X312166Y86391D01*
X315469Y86391D01*
X315469Y80381D01*
X309959Y80381D01*
G37*
%LPD*%
%LPC*%
G36*
X108966Y53309D02*
X108966Y53309D01*
X108319Y53482D01*
X107740Y53817D01*
X107267Y54290D01*
X106932Y54869D01*
X106759Y55516D01*
X106759Y59319D01*
X112269Y59319D01*
X112269Y53309D01*
X108966Y53309D01*
G37*
%LPD*%
%LPC*%
G36*
X134366Y53309D02*
X134366Y53309D01*
X133719Y53482D01*
X133140Y53817D01*
X132667Y54290D01*
X132332Y54869D01*
X132159Y55516D01*
X132159Y59319D01*
X137669Y59319D01*
X137669Y53309D01*
X134366Y53309D01*
G37*
%LPD*%
D10*
X155194Y10163D02*
X153160Y6096D01*
X151127Y10163D01*
X147710Y10163D02*
X145676Y12197D01*
X145676Y6096D01*
X147710Y6096D02*
X143642Y6096D01*
X140226Y11180D02*
X139209Y12197D01*
X137175Y12197D01*
X136158Y11180D01*
X136158Y10163D01*
X137175Y9147D01*
X138192Y9147D01*
X137175Y9147D02*
X136158Y8130D01*
X136158Y7113D01*
X137175Y6096D01*
X139209Y6096D01*
X140226Y7113D01*
D11*
X252246Y101702D02*
X257796Y101702D01*
X257796Y93702D02*
X252246Y93702D01*
X252246Y109702D02*
X257796Y109702D01*
X257796Y97702D02*
X252246Y97702D01*
X252246Y105702D02*
X257796Y105702D01*
X241300Y90705D02*
X241300Y85155D01*
X233300Y85155D02*
X233300Y90705D01*
X249300Y90705D02*
X249300Y85155D01*
X237300Y85155D02*
X237300Y90705D01*
X245300Y90705D02*
X245300Y85155D01*
X241300Y112571D02*
X241300Y118121D01*
X249300Y118121D02*
X249300Y112571D01*
X233300Y112571D02*
X233300Y118121D01*
X245300Y118121D02*
X245300Y112571D01*
X237300Y112571D02*
X237300Y118121D01*
X230354Y101651D02*
X224804Y101651D01*
X224804Y109651D02*
X230354Y109651D01*
X230354Y93651D02*
X224804Y93651D01*
X224804Y105651D02*
X230354Y105651D01*
X230354Y97651D02*
X224804Y97651D01*
D12*
X139700Y78350D03*
X139700Y61350D03*
X114300Y61350D03*
X114300Y78350D03*
X317500Y61350D03*
X317500Y78350D03*
D13*
X190500Y12700D03*
X215900Y12700D03*
X241300Y12700D03*
X266700Y12700D03*
X292100Y12700D03*
D14*
X76200Y774700D03*
X419100Y12700D03*
D15*
X165100Y77978D03*
X165100Y69850D03*
X165100Y61722D03*
D16*
X194700Y69850D03*
X211700Y69850D03*
D10*
X233300Y83440D02*
X233300Y87930D01*
X233300Y83440D02*
X231140Y81280D01*
X139700Y78350D02*
X139700Y76200D01*
X223520Y81280D02*
X231140Y81280D01*
X223520Y81280D02*
X215900Y88900D01*
X146050Y88900D01*
X139700Y82550D01*
X139700Y78350D01*
X249300Y80900D02*
X249300Y87930D01*
X249300Y80900D02*
X266700Y63500D01*
X266700Y12700D01*
X245300Y29400D02*
X245300Y87930D01*
X245300Y29400D02*
X241300Y25400D01*
X241300Y12700D01*
X241300Y38100D02*
X241300Y87930D01*
X241300Y38100D02*
X215900Y12700D01*
X116701Y97651D02*
X114300Y95250D01*
X114300Y78350D01*
X116701Y97651D02*
X227579Y97651D01*
D17*
X342900Y50800D03*
D10*
X153670Y55880D02*
X140970Y55880D01*
X131751Y93651D02*
X227579Y93651D01*
X131751Y93651D02*
X127000Y88900D01*
D17*
X228600Y50800D03*
D10*
X255021Y93702D02*
X274598Y93702D01*
X292100Y76200D01*
X292100Y60960D01*
X292100Y12700D01*
X222250Y69850D02*
X211700Y69850D01*
X222250Y69850D02*
X228600Y63500D01*
X228600Y50800D01*
X292490Y61350D02*
X317500Y61350D01*
X292490Y61350D02*
X292100Y60960D01*
X474980Y579120D02*
X444500Y609600D01*
X474980Y579120D02*
X474980Y119380D01*
D17*
X444500Y609600D03*
D10*
X453302Y97702D02*
X255021Y97702D01*
X453302Y97702D02*
X474980Y119380D01*
X468630Y433070D02*
X444500Y457200D01*
X468630Y433070D02*
X468630Y125730D01*
D17*
X444500Y457200D03*
D10*
X444398Y101702D02*
X255021Y101702D01*
X468427Y125730D02*
X468630Y125730D01*
X468427Y125730D02*
X444398Y101702D01*
X461010Y288290D02*
X444500Y304800D01*
X461010Y288290D02*
X461010Y130810D01*
D17*
X444500Y304800D03*
D10*
X435698Y105702D02*
X255021Y105702D01*
X460807Y130810D02*
X461010Y130810D01*
X460807Y130810D02*
X435698Y105702D01*
X393700Y127000D02*
X393700Y152400D01*
D17*
X393700Y152400D03*
D10*
X376198Y109702D02*
X255021Y109702D01*
X393497Y127000D02*
X393700Y127000D01*
X393497Y127000D02*
X376198Y109702D01*
X323850Y133350D02*
X323850Y577850D01*
X292100Y609600D01*
D17*
X292100Y609600D03*
D10*
X251460Y121920D02*
X249300Y119760D01*
X251460Y121920D02*
X312420Y121920D01*
X323850Y133350D01*
X249300Y119760D02*
X249300Y115346D01*
X245300Y123380D02*
X248920Y127000D01*
X306070Y127000D01*
X317500Y138430D01*
X317500Y431800D01*
X292100Y457200D01*
D17*
X292100Y457200D03*
D10*
X245300Y123380D02*
X245300Y115346D01*
X311150Y140970D02*
X311150Y285750D01*
X292100Y304800D01*
X247650Y133350D02*
X241300Y127000D01*
X247650Y133350D02*
X303530Y133350D01*
X311150Y140970D01*
D17*
X292100Y304800D03*
D10*
X241300Y127000D02*
X241300Y115346D01*
X237300Y135700D02*
X241300Y139700D01*
X241300Y152400D01*
D17*
X241300Y152400D03*
D10*
X237300Y135700D02*
X237300Y115346D01*
X171450Y139700D02*
X171450Y577850D01*
X139700Y609600D01*
D17*
X139700Y609600D03*
D10*
X228600Y127000D02*
X233300Y122300D01*
X228600Y127000D02*
X184150Y127000D01*
X171450Y139700D01*
X233300Y122300D02*
X233300Y115346D01*
X165100Y431800D02*
X139700Y457200D01*
X165100Y431800D02*
X165100Y133350D01*
D17*
X139700Y457200D03*
D10*
X188901Y109651D02*
X227579Y109651D01*
X165202Y133350D02*
X165100Y133350D01*
X165202Y133350D02*
X188901Y109651D01*
X158750Y133350D02*
X158750Y285750D01*
X139700Y304800D01*
D17*
X139700Y304800D03*
D10*
X186551Y105651D02*
X227579Y105651D01*
X158852Y133350D02*
X158750Y133350D01*
X158852Y133350D02*
X186551Y105651D01*
X88900Y114300D02*
X88900Y152400D01*
D17*
X88900Y152400D03*
D10*
X101651Y101651D02*
X227579Y101651D01*
X89002Y114300D02*
X88900Y114300D01*
X89002Y114300D02*
X101651Y101651D01*
X237300Y87930D02*
X237300Y78550D01*
X234950Y76200D01*
X222250Y76200D01*
X215900Y82550D01*
X190500Y82550D01*
X177800Y69850D01*
X165100Y69850D01*
X165100Y61722D02*
X186572Y61722D01*
X194700Y69850D01*
M02*
