M48
;GenerationSoftware,Autodesk,EAGLE,9.6.2*%
;CreationDate,2022-08-07T20:14:27Z*%
FMAT,2
ICI,OFF
METRIC,TZ,000.000
T5C0.900
T4C1.000
T3C1.100
T2C1.200
T1C2.800
%
G90
M71
T1
X3500Y3508
X3500Y26508
X61500Y26508
X61500Y3508
T2
X52832Y3734
X52832Y1194
X50292Y6274
X50292Y3734
X50292Y1194
X47752Y6274
X47752Y3734
X47752Y1194
X45212Y6274
X45212Y3734
X45212Y1194
X42672Y6274
X42672Y3734
X42672Y1194
X37592Y6274
X37592Y3734
X37592Y1194
X40132Y6274
X40132Y3734
X40132Y1194
X35052Y6274
X35052Y3734
X35052Y1194
X32512Y6274
X32512Y3734
X32512Y1194
X27432Y6274
X27432Y3734
X27432Y1194
X29972Y6274
X29972Y3734
X29972Y1194
X24892Y6274
X24892Y3734
X24892Y1194
X22352Y6274
X22352Y3734
X22352Y1194
X19812Y6274
X19812Y3734
X19812Y1194
X17272Y6274
X17272Y3734
X17272Y1194
X12192Y6274
X12192Y3734
X12192Y1194
X14732Y6274
X14732Y3734
X14732Y1194
X9652Y6274
X9652Y3734
X9652Y1194
X7112Y11354
X9652Y11354
X12192Y11354
X14732Y11354
X17272Y11354
X19812Y11354
X22352Y11354
X24892Y11354
X27432Y11354
X29972Y11354
X32512Y11354
X35052Y11354
X37592Y11354
X40132Y11354
X42672Y11354
X45212Y11354
X47752Y11354
X50292Y11354
X52832Y11354
X55372Y11354
X57912Y11354
X57912Y8814
X55372Y8814
X52832Y8814
X50292Y8814
X47752Y8814
X45212Y8814
X42672Y8814
X40132Y8814
X37592Y8814
X35052Y8814
X32512Y8814
X29972Y8814
X24892Y8814
X27432Y8814
X22352Y8814
X19812Y8814
X17272Y8814
X14732Y8814
X12192Y8814
X9652Y8814
X7112Y8814
X55372Y18974
X55372Y16434
X55372Y13894
X52832Y18974
X52832Y16434
X52832Y13894
X50292Y18974
X50292Y16434
X50292Y13894
X47752Y18974
X47752Y16434
X47752Y13894
X45212Y18974
X45212Y16434
X45212Y13894
X42672Y18974
X42672Y16434
X42672Y13894
X37592Y18974
X37592Y16434
X37592Y13894
X40132Y18974
X40132Y16434
X40132Y13894
X35052Y18974
X35052Y16434
X35052Y13894
X32512Y18974
X32512Y16434
X32512Y13894
X27432Y18974
X27432Y16434
X27432Y13894
X29972Y18974
X29972Y16434
X29972Y13894
X24892Y18974
X24892Y13894
X24892Y16434
X22352Y18974
X22352Y16434
X22352Y13894
X19812Y18974
X19812Y16434
X19812Y13894
X17272Y18974
X17272Y16434
X17272Y13894
X12192Y18974
X12192Y16434
X12192Y13894
X14732Y18974
X14732Y16434
X14732Y13894
X9652Y18974
X9652Y16434
X9652Y13894
X55372Y6274
X55372Y3734
X55372Y1194
X52832Y6274
T3
X4572Y13894
X2032Y13894
X2032Y11354
X4572Y11354
X4572Y8814
X2032Y8814
X62992Y18974
X60452Y18974
X60452Y16434
X62992Y16434
X62992Y13894
X60452Y13894
X60452Y11354
X62992Y11354
X62992Y8814
X60452Y8814
X4572Y18974
X2032Y18974
X2032Y16434
X4572Y16434
T4
X7112Y22149
X9652Y22149
X12192Y22149
X14732Y22149
X62992Y22149
X17272Y22149
X19812Y22149
X22352Y22149
X24892Y22149
X27432Y22149
X29972Y22149
X32512Y22149
X35052Y22149
X40132Y22149
X42672Y22149
X45212Y22149
X47752Y22149
X50292Y22149
X52832Y22149
X55372Y22149
X57912Y22149
X60452Y22149
X37592Y22149
X2032Y22149
X4572Y22149
T5
X8370Y25238
X8370Y27778
X10910Y25238
X10910Y27778
X13450Y27778
X15990Y25238
X15990Y27778
X18530Y25238
X18530Y27778
X21070Y25238
X21070Y27778
X23610Y25238
X23610Y27778
X26150Y25238
X26150Y27778
X28690Y25238
X28690Y27778
X31230Y25238
X31230Y27778
X33770Y25238
X33770Y27778
X43930Y27778
X46470Y25238
X46470Y27778
X49010Y25238
X49010Y27778
X13450Y25238
X51550Y27778
X54090Y25238
X36310Y25238
X54090Y27778
X56630Y25238
X56630Y27778
X36310Y27778
X38850Y25238
X38850Y27778
X41390Y25238
X41390Y27778
X43930Y25238
X51550Y25238
M30