G04 EAGLE Gerber RS-274X export*
G75*
%MOMM*%
%FSLAX34Y34*%
%LPD*%
%IN*%
%IPPOS*%
%AMOC8*
5,1,8,0,0,1.08239X$1,22.5*%
G01*
%ADD10C,0.254000*%


D10*
X-53975Y-57150D02*
X-54071Y-58125D01*
X-54082Y-59104D01*
X-54007Y-60080D01*
X-53848Y-61046D01*
X-53605Y-61995D01*
X-53280Y-62919D01*
X-52876Y-63811D01*
X-52396Y-64664D01*
X-51843Y-65473D01*
X-51222Y-66230D01*
X-50537Y-66930D01*
X-49794Y-67567D01*
X-48998Y-68138D01*
X-48155Y-68637D01*
X-47272Y-69060D01*
X-46356Y-69406D01*
X-45412Y-69669D01*
X-44450Y-69850D01*
X41275Y-69850D01*
X42382Y-69802D01*
X43480Y-69657D01*
X44562Y-69417D01*
X45619Y-69084D01*
X46642Y-68660D01*
X47625Y-68149D01*
X48559Y-67553D01*
X49438Y-66879D01*
X50255Y-66130D01*
X51004Y-65313D01*
X51678Y-64434D01*
X52274Y-63500D01*
X52785Y-62517D01*
X53209Y-61494D01*
X53542Y-60437D01*
X53782Y-59355D01*
X53927Y-58257D01*
X53975Y-57150D01*
X53975Y57150D01*
X53927Y58257D01*
X53782Y59355D01*
X53542Y60437D01*
X53209Y61494D01*
X52785Y62517D01*
X52274Y63500D01*
X51678Y64434D01*
X51004Y65313D01*
X50255Y66130D01*
X49438Y66879D01*
X48559Y67553D01*
X47625Y68149D01*
X46642Y68660D01*
X45619Y69084D01*
X44562Y69417D01*
X43480Y69657D01*
X42382Y69802D01*
X41275Y69850D01*
X-44450Y69850D01*
X-45412Y69669D01*
X-46356Y69406D01*
X-47272Y69060D01*
X-48155Y68637D01*
X-48998Y68138D01*
X-49794Y67567D01*
X-50537Y66930D01*
X-51222Y66230D01*
X-51843Y65473D01*
X-52396Y64664D01*
X-52876Y63811D01*
X-53280Y62919D01*
X-53605Y61995D01*
X-53848Y61046D01*
X-54007Y60080D01*
X-54082Y59104D01*
X-54071Y58125D01*
X-53975Y57150D01*
X-53975Y-57150D01*
M02*
