G04 EAGLE Gerber RS-274X export*
G75*
%MOMM*%
%FSLAX34Y34*%
%LPD*%
%INSolderpaste Top*%
%IPPOS*%
%AMOC8*
5,1,8,0,0,1.08239X$1,22.5*%
G01*
%ADD10R,1.140000X0.200000*%
%ADD11R,1.000000X1.100000*%
%ADD12R,1.600000X1.400000*%
%ADD13R,1.100000X1.000000*%
%ADD14C,0.300000*%
%ADD15R,1.200000X0.550000*%
%ADD16R,0.558800X1.270000*%
%ADD17R,1.270000X0.558800*%
%ADD18C,0.450000*%
%ADD19R,1.200000X0.600000*%
%ADD20R,2.000000X1.100000*%


D10*
X259600Y229798D03*
X233200Y229798D03*
X259600Y225798D03*
X233200Y225798D03*
X259600Y221798D03*
X233200Y221798D03*
X259600Y217798D03*
X233200Y217798D03*
X259600Y213798D03*
X233200Y213798D03*
X259600Y209798D03*
X233200Y209798D03*
X259600Y205798D03*
X233200Y205798D03*
X259600Y201798D03*
X233200Y201798D03*
X259600Y197798D03*
X233200Y197798D03*
X259600Y193798D03*
X233200Y193798D03*
X259600Y189798D03*
X233200Y189798D03*
X259600Y185798D03*
X233200Y185798D03*
X259600Y181798D03*
X233200Y181798D03*
X259600Y177798D03*
X233200Y177798D03*
X259600Y173798D03*
X233200Y173798D03*
X259600Y169798D03*
X233200Y169798D03*
X259600Y165798D03*
X233200Y165798D03*
X259600Y161798D03*
X233200Y161798D03*
X259600Y157798D03*
X233200Y157798D03*
X259600Y153798D03*
X233200Y153798D03*
X259600Y149798D03*
X233200Y149798D03*
X259600Y145798D03*
X233200Y145798D03*
X259600Y141798D03*
X233200Y141798D03*
X259600Y137798D03*
X233200Y137798D03*
X259600Y133798D03*
X233200Y133798D03*
X259600Y129798D03*
X233200Y129798D03*
X259600Y125798D03*
X233200Y125798D03*
X259600Y121798D03*
X233200Y121798D03*
X259600Y117798D03*
X233200Y117798D03*
X259600Y113798D03*
X233200Y113798D03*
X259600Y109798D03*
X233200Y109798D03*
X259600Y105798D03*
X233200Y105798D03*
X259600Y101798D03*
X233200Y101798D03*
X259600Y97798D03*
X233200Y97798D03*
X259600Y93798D03*
X233200Y93798D03*
X259600Y89798D03*
X233200Y89798D03*
X259600Y233798D03*
X233200Y233798D03*
D11*
X63500Y55000D03*
X63500Y72000D03*
D12*
X88900Y77500D03*
X88900Y49500D03*
D13*
X36440Y77470D03*
X19440Y77470D03*
D14*
X22670Y67000D02*
X22670Y60000D01*
X15670Y60000D01*
X15670Y67000D01*
X22670Y67000D01*
X22670Y62850D02*
X15670Y62850D01*
X15670Y65700D02*
X22670Y65700D01*
X40210Y67000D02*
X40210Y60000D01*
X33210Y60000D01*
X33210Y67000D01*
X40210Y67000D01*
X40210Y62850D02*
X33210Y62850D01*
X33210Y65700D02*
X40210Y65700D01*
D11*
X44450Y313300D03*
X44450Y296300D03*
D13*
X105800Y254000D03*
X122800Y254000D03*
D11*
X133350Y402200D03*
X133350Y385200D03*
D13*
X37710Y114300D03*
X20710Y114300D03*
D14*
X34480Y105100D02*
X34480Y98100D01*
X34480Y105100D02*
X41480Y105100D01*
X41480Y98100D01*
X34480Y98100D01*
X34480Y100950D02*
X41480Y100950D01*
X41480Y103800D02*
X34480Y103800D01*
X16940Y105100D02*
X16940Y98100D01*
X16940Y105100D02*
X23940Y105100D01*
X23940Y98100D01*
X16940Y98100D01*
X16940Y100950D02*
X23940Y100950D01*
X23940Y103800D02*
X16940Y103800D01*
D15*
X140001Y54000D03*
X140001Y63500D03*
X140001Y73000D03*
X113999Y73000D03*
X113999Y54000D03*
D12*
X165100Y77500D03*
X165100Y49500D03*
D16*
X99000Y274574D03*
X107000Y274574D03*
X115000Y274574D03*
X123000Y274574D03*
X131000Y274574D03*
X139000Y274574D03*
X147000Y274574D03*
X155000Y274574D03*
D17*
X169926Y289500D03*
X169926Y297500D03*
X169926Y305500D03*
X169926Y313500D03*
X169926Y321500D03*
X169926Y329500D03*
X169926Y337500D03*
X169926Y345500D03*
D16*
X155000Y360426D03*
X147000Y360426D03*
X139000Y360426D03*
X131000Y360426D03*
X123000Y360426D03*
X115000Y360426D03*
X107000Y360426D03*
X99000Y360426D03*
D17*
X84074Y345500D03*
X84074Y337500D03*
X84074Y329500D03*
X84074Y321500D03*
X84074Y313500D03*
X84074Y305500D03*
X84074Y297500D03*
X84074Y289500D03*
D11*
X57150Y313300D03*
X57150Y296300D03*
D18*
X140400Y248575D02*
X140400Y234025D01*
X152400Y234025D02*
X152400Y248575D01*
X164400Y248575D02*
X164400Y234025D01*
D19*
X142300Y127000D03*
X142300Y139700D03*
X142300Y152400D03*
X142300Y165100D03*
X142300Y177800D03*
X142300Y190500D03*
X142300Y203200D03*
X86300Y203200D03*
X86300Y190500D03*
X86300Y177800D03*
X86300Y165100D03*
X86300Y152400D03*
X86300Y139700D03*
X86300Y127000D03*
D13*
X97400Y107950D03*
X80400Y107950D03*
X131200Y107950D03*
X148200Y107950D03*
D20*
X17780Y397960D03*
X17780Y358960D03*
M02*
