M48
;GenerationSoftware,Autodesk,EAGLE,9.6.2*%
;CreationDate,2022-08-06T19:27:00Z*%
FMAT,2
ICI,OFF
METRIC,TZ,000.000
T3C0.500
T2C1.000
T1C2.500
%
G90
M71
T1
X-5080Y-19050
X5080Y-19050
X5080Y19050
X-5080Y19050
T2
X-15240Y25400
X-5080Y-10160
X-5080Y-12700
X-5080Y-15240
X-5080Y-5080
X-5080Y25400
X-15240Y27940
X-12700Y25400
X-12700Y27940
X-10160Y25400
X-10160Y27940
X-7620Y25400
X-7620Y27940
X-5080Y27940
X-2540Y25400
X-2540Y27940
X0Y25400
X0Y27940
X2540Y25400
X2540Y27940
X5080Y25400
X5080Y27940
X7620Y25400
X7620Y27940
X10160Y25400
X10160Y27940
X12700Y25400
X12700Y27940
X15240Y25400
X15240Y27940
X5080Y15240
X5080Y12700
X5080Y10160
X5080Y7620
X5080Y5080
X5080Y2540
X5080Y0
X5080Y-2540
X5080Y-5080
X5080Y-7620
X5080Y-10160
X5080Y-12700
X5080Y-15240
X-5080Y12700
X-5080Y10160
X-5080Y7620
X-5080Y5080
X-5080Y2540
X-5080Y0
X-5080Y-2540
X-5080Y15240
X-5080Y-7620
T3
X-1016Y-4572
X-1778Y-6604
X-1778Y-8890
X-508Y-8890
X762Y-13716
X508Y-11176
X1016Y-8382
X-2286Y-1524
M30