G04 EAGLE Gerber RS-274X export*
G75*
%MOMM*%
%FSLAX34Y34*%
%LPD*%
%INBottom Copper*%
%IPPOS*%
%AMOC8*
5,1,8,0,0,1.08239X$1,22.5*%
G01*
%ADD10C,3.516000*%
%ADD11R,1.930400X1.930400*%
%ADD12C,1.930400*%
%ADD13C,0.906400*%
%ADD14C,0.800100*%
%ADD15C,0.254000*%

G36*
X152422Y2543D02*
X152422Y2543D01*
X152500Y2545D01*
X155877Y2810D01*
X155945Y2824D01*
X156014Y2829D01*
X156170Y2869D01*
X162594Y4956D01*
X162701Y5006D01*
X162812Y5050D01*
X162863Y5083D01*
X162882Y5091D01*
X162897Y5104D01*
X162948Y5136D01*
X168412Y9107D01*
X168499Y9188D01*
X168546Y9227D01*
X168552Y9231D01*
X168553Y9232D01*
X168591Y9264D01*
X168629Y9310D01*
X168644Y9324D01*
X168655Y9342D01*
X168693Y9388D01*
X172664Y14852D01*
X172721Y14956D01*
X172785Y15056D01*
X172807Y15113D01*
X172817Y15131D01*
X172822Y15151D01*
X172844Y15206D01*
X174931Y21630D01*
X174944Y21698D01*
X174967Y21764D01*
X174990Y21923D01*
X175255Y25300D01*
X175255Y25304D01*
X175256Y25307D01*
X175255Y25326D01*
X175259Y25400D01*
X175259Y38536D01*
X175242Y38673D01*
X175229Y38812D01*
X175222Y38831D01*
X175219Y38851D01*
X175168Y38980D01*
X175121Y39111D01*
X175110Y39128D01*
X175102Y39147D01*
X175021Y39259D01*
X174943Y39375D01*
X174927Y39388D01*
X174916Y39404D01*
X174808Y39493D01*
X174704Y39585D01*
X174686Y39594D01*
X174671Y39607D01*
X174545Y39666D01*
X174421Y39730D01*
X174401Y39734D01*
X174383Y39743D01*
X174247Y39769D01*
X174111Y39799D01*
X174090Y39799D01*
X174071Y39803D01*
X173932Y39794D01*
X173793Y39790D01*
X173773Y39784D01*
X173753Y39783D01*
X173621Y39740D01*
X173487Y39701D01*
X173470Y39691D01*
X173451Y39685D01*
X173333Y39610D01*
X173213Y39540D01*
X173192Y39521D01*
X173182Y39515D01*
X173168Y39500D01*
X173093Y39433D01*
X164964Y31305D01*
X164904Y31227D01*
X164836Y31155D01*
X164807Y31102D01*
X164770Y31054D01*
X164730Y30963D01*
X164682Y30876D01*
X164667Y30818D01*
X164643Y30762D01*
X164628Y30664D01*
X164603Y30568D01*
X164597Y30468D01*
X164593Y30448D01*
X164595Y30436D01*
X164593Y30408D01*
X164593Y13426D01*
X163104Y11937D01*
X141696Y11937D01*
X140207Y13426D01*
X140207Y17907D01*
X140205Y17927D01*
X140207Y17947D01*
X140185Y18084D01*
X140167Y18223D01*
X140160Y18241D01*
X140157Y18261D01*
X140102Y18389D01*
X140050Y18518D01*
X140039Y18534D01*
X140031Y18553D01*
X139945Y18663D01*
X139864Y18776D01*
X139848Y18788D01*
X139836Y18804D01*
X139726Y18890D01*
X139619Y18979D01*
X139601Y18987D01*
X139585Y18999D01*
X139457Y19055D01*
X139331Y19114D01*
X139311Y19118D01*
X139293Y19126D01*
X139155Y19148D01*
X139019Y19174D01*
X138999Y19173D01*
X138979Y19176D01*
X138840Y19163D01*
X138701Y19154D01*
X138682Y19148D01*
X138662Y19146D01*
X138531Y19099D01*
X138399Y19056D01*
X138382Y19045D01*
X138363Y19039D01*
X138248Y18960D01*
X138130Y18886D01*
X138116Y18871D01*
X138100Y18860D01*
X138007Y18756D01*
X137912Y18654D01*
X137902Y18637D01*
X137889Y18622D01*
X137807Y18483D01*
X137428Y17740D01*
X136300Y16187D01*
X134943Y14830D01*
X133390Y13702D01*
X131680Y12831D01*
X129855Y12237D01*
X129499Y12181D01*
X129499Y22900D01*
X129484Y23018D01*
X129477Y23137D01*
X129464Y23175D01*
X129459Y23215D01*
X129416Y23326D01*
X129379Y23439D01*
X129357Y23473D01*
X129342Y23511D01*
X129273Y23607D01*
X129209Y23708D01*
X129179Y23736D01*
X129156Y23768D01*
X129064Y23844D01*
X128977Y23926D01*
X128942Y23945D01*
X128911Y23971D01*
X128803Y24022D01*
X128699Y24079D01*
X128659Y24089D01*
X128623Y24107D01*
X128516Y24127D01*
X128546Y24131D01*
X128656Y24175D01*
X128769Y24211D01*
X128804Y24233D01*
X128841Y24248D01*
X128937Y24318D01*
X129038Y24381D01*
X129066Y24411D01*
X129099Y24435D01*
X129175Y24526D01*
X129256Y24613D01*
X129276Y24648D01*
X129301Y24680D01*
X129352Y24787D01*
X129410Y24892D01*
X129420Y24931D01*
X129437Y24967D01*
X129459Y25084D01*
X129489Y25200D01*
X129493Y25260D01*
X129497Y25280D01*
X129495Y25300D01*
X129497Y25307D01*
X129496Y25313D01*
X129499Y25360D01*
X129499Y36079D01*
X129855Y36023D01*
X131680Y35429D01*
X133390Y34558D01*
X134943Y33430D01*
X136300Y32073D01*
X137428Y30520D01*
X137807Y29777D01*
X137818Y29760D01*
X137826Y29742D01*
X137908Y29629D01*
X137986Y29514D01*
X138001Y29501D01*
X138012Y29484D01*
X138120Y29395D01*
X138224Y29303D01*
X138242Y29294D01*
X138257Y29281D01*
X138383Y29222D01*
X138508Y29159D01*
X138527Y29154D01*
X138545Y29146D01*
X138682Y29120D01*
X138818Y29089D01*
X138838Y29090D01*
X138858Y29086D01*
X138996Y29095D01*
X139136Y29099D01*
X139155Y29105D01*
X139175Y29106D01*
X139307Y29149D01*
X139441Y29188D01*
X139458Y29198D01*
X139477Y29204D01*
X139595Y29279D01*
X139715Y29349D01*
X139729Y29363D01*
X139746Y29374D01*
X139842Y29476D01*
X139940Y29574D01*
X139950Y29591D01*
X139964Y29606D01*
X140031Y29728D01*
X140102Y29848D01*
X140108Y29867D01*
X140118Y29884D01*
X140152Y30019D01*
X140191Y30153D01*
X140192Y30173D01*
X140197Y30192D01*
X140207Y30353D01*
X140207Y34834D01*
X141696Y36323D01*
X158678Y36323D01*
X158776Y36335D01*
X158875Y36338D01*
X158933Y36355D01*
X158993Y36363D01*
X159085Y36399D01*
X159181Y36427D01*
X159233Y36457D01*
X159289Y36480D01*
X159369Y36538D01*
X159454Y36588D01*
X159530Y36654D01*
X159546Y36666D01*
X159554Y36676D01*
X159575Y36694D01*
X167268Y44387D01*
X167328Y44465D01*
X167396Y44537D01*
X167425Y44590D01*
X167462Y44638D01*
X167502Y44729D01*
X167550Y44816D01*
X167565Y44874D01*
X167589Y44930D01*
X167604Y45028D01*
X167629Y45124D01*
X167635Y45224D01*
X167639Y45244D01*
X167637Y45256D01*
X167639Y45284D01*
X167639Y119816D01*
X167627Y119914D01*
X167624Y120013D01*
X167607Y120071D01*
X167599Y120131D01*
X167563Y120223D01*
X167535Y120319D01*
X167505Y120371D01*
X167482Y120427D01*
X167424Y120507D01*
X167374Y120592D01*
X167308Y120668D01*
X167296Y120684D01*
X167286Y120692D01*
X167268Y120713D01*
X151193Y136788D01*
X151115Y136848D01*
X151043Y136916D01*
X150990Y136945D01*
X150942Y136982D01*
X150851Y137022D01*
X150764Y137070D01*
X150706Y137085D01*
X150650Y137109D01*
X150552Y137124D01*
X150456Y137149D01*
X150356Y137155D01*
X150336Y137159D01*
X150324Y137157D01*
X150296Y137159D01*
X145742Y137159D01*
X120649Y162252D01*
X120649Y165484D01*
X120637Y165582D01*
X120634Y165681D01*
X120617Y165740D01*
X120609Y165800D01*
X120573Y165892D01*
X120545Y165987D01*
X120515Y166039D01*
X120492Y166095D01*
X120434Y166176D01*
X120384Y166261D01*
X120318Y166336D01*
X120306Y166353D01*
X120296Y166361D01*
X120278Y166382D01*
X118915Y167745D01*
X117919Y170149D01*
X117919Y172751D01*
X118915Y175155D01*
X120755Y176995D01*
X123159Y177991D01*
X125761Y177991D01*
X128165Y176995D01*
X130005Y175155D01*
X130940Y172899D01*
X130992Y172808D01*
X131035Y172713D01*
X131070Y172670D01*
X131098Y172623D01*
X131170Y172548D01*
X131236Y172467D01*
X131281Y172434D01*
X131319Y172394D01*
X131408Y172340D01*
X131492Y172277D01*
X131543Y172257D01*
X131590Y172228D01*
X131690Y172197D01*
X131787Y172158D01*
X131841Y172151D01*
X131894Y172134D01*
X131998Y172129D01*
X132102Y172115D01*
X132157Y172122D01*
X132212Y172119D01*
X132314Y172140D01*
X132418Y172152D01*
X132469Y172172D01*
X132523Y172183D01*
X132617Y172229D01*
X132714Y172267D01*
X132759Y172299D01*
X132809Y172323D01*
X132888Y172391D01*
X132973Y172452D01*
X133009Y172494D01*
X133051Y172530D01*
X133111Y172615D01*
X133178Y172695D01*
X133202Y172744D01*
X133234Y172790D01*
X133271Y172887D01*
X133316Y172981D01*
X133339Y173067D01*
X133347Y173087D01*
X133348Y173102D01*
X133358Y173137D01*
X133990Y176318D01*
X138906Y183674D01*
X141840Y185635D01*
X141919Y185703D01*
X142003Y185764D01*
X142038Y185807D01*
X142080Y185843D01*
X142139Y185929D01*
X142206Y186009D01*
X142229Y186059D01*
X142261Y186105D01*
X142297Y186203D01*
X142342Y186297D01*
X142352Y186351D01*
X142371Y186403D01*
X142382Y186507D01*
X142401Y186610D01*
X142398Y186665D01*
X142404Y186719D01*
X142388Y186823D01*
X142382Y186927D01*
X142365Y186979D01*
X142356Y187034D01*
X142316Y187130D01*
X142284Y187229D01*
X142254Y187276D01*
X142233Y187327D01*
X142169Y187410D01*
X142113Y187498D01*
X142073Y187536D01*
X142040Y187580D01*
X141958Y187645D01*
X141882Y187716D01*
X141834Y187743D01*
X141790Y187777D01*
X141695Y187819D01*
X141603Y187870D01*
X141550Y187883D01*
X141499Y187906D01*
X141396Y187923D01*
X141295Y187949D01*
X141207Y187955D01*
X141186Y187958D01*
X141171Y187957D01*
X141135Y187959D01*
X36665Y187959D01*
X36562Y187946D01*
X36457Y187942D01*
X36405Y187926D01*
X36350Y187919D01*
X36253Y187881D01*
X36153Y187851D01*
X36105Y187823D01*
X36054Y187802D01*
X35970Y187741D01*
X35880Y187687D01*
X35841Y187648D01*
X35797Y187616D01*
X35730Y187535D01*
X35657Y187461D01*
X35629Y187413D01*
X35594Y187371D01*
X35549Y187276D01*
X35497Y187186D01*
X35482Y187133D01*
X35458Y187083D01*
X35439Y186980D01*
X35410Y186880D01*
X35409Y186825D01*
X35399Y186771D01*
X35405Y186666D01*
X35403Y186562D01*
X35415Y186508D01*
X35418Y186453D01*
X35451Y186354D01*
X35474Y186252D01*
X35499Y186203D01*
X35516Y186151D01*
X35572Y186062D01*
X35620Y185970D01*
X35657Y185928D01*
X35687Y185882D01*
X35763Y185810D01*
X35832Y185732D01*
X35903Y185679D01*
X35918Y185664D01*
X35931Y185657D01*
X35960Y185635D01*
X38894Y183674D01*
X43810Y176318D01*
X45536Y167640D01*
X44575Y162808D01*
X44569Y162723D01*
X44553Y162640D01*
X44557Y162566D01*
X44552Y162490D01*
X44567Y162407D01*
X44573Y162323D01*
X44596Y162252D01*
X44609Y162178D01*
X44645Y162101D01*
X44671Y162021D01*
X44711Y161957D01*
X44742Y161889D01*
X44796Y161823D01*
X44841Y161752D01*
X44895Y161700D01*
X44943Y161642D01*
X45011Y161592D01*
X45072Y161534D01*
X45138Y161498D01*
X45199Y161453D01*
X45277Y161421D01*
X45351Y161380D01*
X45424Y161362D01*
X45493Y161333D01*
X45577Y161322D01*
X45659Y161301D01*
X45800Y161292D01*
X45809Y161291D01*
X45812Y161291D01*
X45819Y161291D01*
X89208Y161291D01*
X91186Y159313D01*
X91264Y159252D01*
X91337Y159184D01*
X91390Y159155D01*
X91437Y159118D01*
X91528Y159079D01*
X91615Y159031D01*
X91674Y159016D01*
X91729Y158992D01*
X91827Y158976D01*
X91923Y158951D01*
X92023Y158945D01*
X92043Y158942D01*
X92056Y158943D01*
X92084Y158941D01*
X94011Y158941D01*
X96415Y157945D01*
X98255Y156105D01*
X99251Y153701D01*
X99251Y151099D01*
X98255Y148695D01*
X96415Y146855D01*
X94011Y145859D01*
X91409Y145859D01*
X89005Y146855D01*
X87165Y148695D01*
X86169Y151099D01*
X86169Y152400D01*
X86154Y152518D01*
X86146Y152637D01*
X86134Y152675D01*
X86129Y152716D01*
X86085Y152826D01*
X86048Y152939D01*
X86027Y152974D01*
X86012Y153011D01*
X85942Y153107D01*
X85878Y153208D01*
X85849Y153236D01*
X85825Y153269D01*
X85733Y153345D01*
X85647Y153426D01*
X85611Y153446D01*
X85580Y153471D01*
X85472Y153522D01*
X85368Y153580D01*
X85329Y153590D01*
X85292Y153607D01*
X85176Y153629D01*
X85060Y153659D01*
X85000Y153663D01*
X84980Y153667D01*
X84960Y153665D01*
X84900Y153669D01*
X46554Y153669D01*
X46456Y153657D01*
X46357Y153654D01*
X46299Y153637D01*
X46239Y153629D01*
X46147Y153593D01*
X46051Y153565D01*
X45999Y153535D01*
X45943Y153512D01*
X45863Y153454D01*
X45778Y153404D01*
X45702Y153338D01*
X45686Y153326D01*
X45678Y153316D01*
X45657Y153298D01*
X30788Y138429D01*
X13534Y138429D01*
X13436Y138417D01*
X13337Y138414D01*
X13279Y138397D01*
X13219Y138389D01*
X13127Y138353D01*
X13031Y138325D01*
X12979Y138295D01*
X12923Y138272D01*
X12843Y138214D01*
X12758Y138164D01*
X12682Y138098D01*
X12666Y138086D01*
X12658Y138076D01*
X12637Y138058D01*
X9262Y134683D01*
X9202Y134605D01*
X9134Y134533D01*
X9105Y134480D01*
X9068Y134432D01*
X9028Y134341D01*
X8980Y134254D01*
X8965Y134196D01*
X8941Y134140D01*
X8926Y134042D01*
X8901Y133946D01*
X8895Y133846D01*
X8891Y133826D01*
X8893Y133814D01*
X8891Y133786D01*
X8891Y27504D01*
X8903Y27406D01*
X8906Y27307D01*
X8923Y27249D01*
X8931Y27189D01*
X8967Y27097D01*
X8995Y27001D01*
X9025Y26949D01*
X9048Y26893D01*
X9106Y26813D01*
X9156Y26728D01*
X9222Y26652D01*
X9234Y26636D01*
X9244Y26628D01*
X9262Y26607D01*
X11041Y24829D01*
X11150Y24743D01*
X11257Y24655D01*
X11276Y24646D01*
X11292Y24634D01*
X11420Y24578D01*
X11545Y24519D01*
X11565Y24515D01*
X11584Y24507D01*
X11722Y24485D01*
X11858Y24459D01*
X11878Y24461D01*
X11898Y24458D01*
X12037Y24471D01*
X12175Y24479D01*
X12194Y24485D01*
X12214Y24487D01*
X12346Y24535D01*
X12477Y24577D01*
X12495Y24588D01*
X12514Y24595D01*
X12629Y24673D01*
X12746Y24747D01*
X12760Y24762D01*
X12777Y24774D01*
X12869Y24878D01*
X12964Y24979D01*
X12974Y24997D01*
X12987Y25012D01*
X13051Y25136D01*
X13118Y25258D01*
X13123Y25277D01*
X13132Y25295D01*
X13162Y25431D01*
X13197Y25565D01*
X13199Y25594D01*
X13202Y25605D01*
X13201Y25626D01*
X13207Y25726D01*
X13207Y26555D01*
X15063Y31037D01*
X18493Y34467D01*
X22975Y36323D01*
X27825Y36323D01*
X32307Y34467D01*
X35737Y31037D01*
X36927Y28162D01*
X36996Y28041D01*
X37061Y27918D01*
X37075Y27903D01*
X37085Y27885D01*
X37182Y27786D01*
X37275Y27683D01*
X37292Y27671D01*
X37306Y27657D01*
X37425Y27584D01*
X37541Y27508D01*
X37560Y27501D01*
X37577Y27491D01*
X37710Y27450D01*
X37842Y27405D01*
X37862Y27403D01*
X37881Y27397D01*
X38020Y27390D01*
X38159Y27379D01*
X38179Y27383D01*
X38199Y27382D01*
X38335Y27410D01*
X38472Y27434D01*
X38491Y27442D01*
X38510Y27446D01*
X38636Y27508D01*
X38762Y27564D01*
X38778Y27577D01*
X38796Y27586D01*
X38902Y27676D01*
X39010Y27763D01*
X39023Y27779D01*
X39038Y27792D01*
X39118Y27906D01*
X39202Y28017D01*
X39214Y28042D01*
X39221Y28052D01*
X39228Y28072D01*
X39273Y28162D01*
X40463Y31037D01*
X43666Y34239D01*
X43739Y34334D01*
X43818Y34423D01*
X43836Y34459D01*
X43861Y34491D01*
X43909Y34600D01*
X43963Y34706D01*
X43972Y34745D01*
X43988Y34783D01*
X44006Y34900D01*
X44032Y35016D01*
X44031Y35057D01*
X44037Y35097D01*
X44026Y35215D01*
X44023Y35334D01*
X44011Y35373D01*
X44008Y35413D01*
X43967Y35526D01*
X43934Y35640D01*
X43914Y35674D01*
X43900Y35713D01*
X43833Y35811D01*
X43773Y35914D01*
X43733Y35959D01*
X43721Y35976D01*
X43706Y35989D01*
X43666Y36034D01*
X40639Y39062D01*
X40639Y115878D01*
X41347Y116586D01*
X41408Y116664D01*
X41476Y116737D01*
X41505Y116790D01*
X41542Y116837D01*
X41581Y116928D01*
X41629Y117015D01*
X41644Y117074D01*
X41668Y117129D01*
X41684Y117227D01*
X41709Y117323D01*
X41715Y117423D01*
X41718Y117443D01*
X41717Y117456D01*
X41719Y117484D01*
X41719Y118141D01*
X42715Y120545D01*
X44555Y122385D01*
X46959Y123381D01*
X49561Y123381D01*
X51965Y122385D01*
X53805Y120545D01*
X54801Y118141D01*
X54801Y115539D01*
X53805Y113135D01*
X51965Y111295D01*
X49561Y110299D01*
X49530Y110299D01*
X49412Y110284D01*
X49293Y110276D01*
X49255Y110264D01*
X49214Y110259D01*
X49104Y110215D01*
X48991Y110178D01*
X48956Y110157D01*
X48919Y110142D01*
X48823Y110072D01*
X48722Y110008D01*
X48694Y109979D01*
X48661Y109955D01*
X48585Y109863D01*
X48504Y109777D01*
X48484Y109741D01*
X48459Y109710D01*
X48408Y109602D01*
X48350Y109498D01*
X48340Y109459D01*
X48323Y109422D01*
X48301Y109306D01*
X48271Y109190D01*
X48267Y109130D01*
X48263Y109110D01*
X48265Y109090D01*
X48261Y109030D01*
X48261Y58036D01*
X48278Y57898D01*
X48291Y57759D01*
X48298Y57740D01*
X48301Y57720D01*
X48352Y57591D01*
X48399Y57460D01*
X48410Y57443D01*
X48418Y57424D01*
X48499Y57312D01*
X48577Y57197D01*
X48593Y57184D01*
X48604Y57167D01*
X48712Y57078D01*
X48816Y56986D01*
X48834Y56977D01*
X48849Y56964D01*
X48975Y56905D01*
X49099Y56842D01*
X49119Y56837D01*
X49137Y56829D01*
X49274Y56803D01*
X49409Y56772D01*
X49430Y56773D01*
X49449Y56769D01*
X49588Y56778D01*
X49727Y56782D01*
X49747Y56787D01*
X49767Y56789D01*
X49899Y56831D01*
X50033Y56870D01*
X50050Y56881D01*
X50069Y56887D01*
X50187Y56961D01*
X50307Y57032D01*
X50328Y57050D01*
X50338Y57057D01*
X50352Y57072D01*
X50428Y57138D01*
X50905Y57615D01*
X53309Y58611D01*
X55911Y58611D01*
X58315Y57615D01*
X59678Y56252D01*
X59757Y56192D01*
X59829Y56124D01*
X59882Y56095D01*
X59930Y56058D01*
X60020Y56018D01*
X60107Y55970D01*
X60166Y55955D01*
X60221Y55931D01*
X60319Y55916D01*
X60415Y55891D01*
X60515Y55885D01*
X60535Y55881D01*
X60548Y55883D01*
X60576Y55881D01*
X75238Y55881D01*
X95479Y35640D01*
X95503Y35622D01*
X95522Y35599D01*
X95628Y35525D01*
X95730Y35445D01*
X95758Y35433D01*
X95782Y35416D01*
X95903Y35370D01*
X96022Y35319D01*
X96051Y35314D01*
X96079Y35304D01*
X96208Y35289D01*
X96336Y35269D01*
X96366Y35272D01*
X96395Y35268D01*
X96524Y35287D01*
X96653Y35299D01*
X96681Y35309D01*
X96710Y35313D01*
X96862Y35365D01*
X99175Y36323D01*
X104025Y36323D01*
X108507Y34467D01*
X111937Y31037D01*
X113135Y28144D01*
X113149Y28118D01*
X113159Y28090D01*
X113228Y27980D01*
X113292Y27868D01*
X113313Y27846D01*
X113329Y27821D01*
X113423Y27732D01*
X113513Y27639D01*
X113539Y27624D01*
X113561Y27603D01*
X113674Y27541D01*
X113785Y27473D01*
X113813Y27464D01*
X113839Y27450D01*
X113965Y27417D01*
X114089Y27379D01*
X114118Y27378D01*
X114147Y27371D01*
X114277Y27370D01*
X114406Y27364D01*
X114435Y27370D01*
X114465Y27370D01*
X114591Y27402D01*
X114718Y27429D01*
X114745Y27442D01*
X114773Y27449D01*
X114887Y27511D01*
X115003Y27568D01*
X115026Y27588D01*
X115052Y27602D01*
X115147Y27690D01*
X115245Y27775D01*
X115263Y27799D01*
X115284Y27820D01*
X115354Y27929D01*
X115428Y28035D01*
X115439Y28063D01*
X115455Y28088D01*
X115514Y28238D01*
X115698Y28802D01*
X115701Y28810D01*
X116572Y30520D01*
X117700Y32073D01*
X119057Y33430D01*
X120610Y34558D01*
X122320Y35429D01*
X124145Y36023D01*
X124501Y36079D01*
X124501Y25360D01*
X124516Y25242D01*
X124523Y25123D01*
X124535Y25085D01*
X124541Y25045D01*
X124584Y24934D01*
X124621Y24821D01*
X124643Y24787D01*
X124658Y24749D01*
X124727Y24653D01*
X124791Y24552D01*
X124821Y24524D01*
X124844Y24492D01*
X124936Y24416D01*
X125023Y24334D01*
X125058Y24315D01*
X125089Y24289D01*
X125197Y24238D01*
X125301Y24181D01*
X125341Y24171D01*
X125377Y24153D01*
X125484Y24133D01*
X125454Y24129D01*
X125344Y24085D01*
X125231Y24049D01*
X125196Y24027D01*
X125159Y24012D01*
X125062Y23942D01*
X124962Y23879D01*
X124934Y23849D01*
X124901Y23825D01*
X124825Y23734D01*
X124744Y23647D01*
X124724Y23612D01*
X124699Y23580D01*
X124648Y23473D01*
X124590Y23368D01*
X124580Y23329D01*
X124563Y23293D01*
X124541Y23176D01*
X124511Y23060D01*
X124507Y23000D01*
X124503Y22980D01*
X124505Y22960D01*
X124501Y22900D01*
X124501Y12181D01*
X124145Y12237D01*
X122320Y12831D01*
X120610Y13702D01*
X119057Y14830D01*
X117700Y16187D01*
X116572Y17740D01*
X115701Y19450D01*
X115514Y20022D01*
X115502Y20049D01*
X115495Y20079D01*
X115434Y20193D01*
X115379Y20310D01*
X115360Y20333D01*
X115346Y20360D01*
X115259Y20456D01*
X115176Y20555D01*
X115152Y20573D01*
X115132Y20595D01*
X115024Y20666D01*
X114919Y20742D01*
X114891Y20753D01*
X114866Y20770D01*
X114744Y20812D01*
X114623Y20860D01*
X114594Y20863D01*
X114566Y20873D01*
X114436Y20883D01*
X114308Y20900D01*
X114278Y20896D01*
X114249Y20898D01*
X114121Y20876D01*
X113992Y20860D01*
X113965Y20849D01*
X113935Y20844D01*
X113817Y20791D01*
X113697Y20743D01*
X113672Y20725D01*
X113645Y20713D01*
X113544Y20632D01*
X113439Y20556D01*
X113420Y20533D01*
X113397Y20515D01*
X113319Y20411D01*
X113236Y20311D01*
X113224Y20284D01*
X113206Y20261D01*
X113135Y20116D01*
X111937Y17223D01*
X108507Y13793D01*
X104025Y11937D01*
X99175Y11937D01*
X94693Y13793D01*
X91263Y17223D01*
X90073Y20098D01*
X90004Y20219D01*
X89939Y20342D01*
X89925Y20357D01*
X89915Y20375D01*
X89818Y20475D01*
X89725Y20577D01*
X89708Y20589D01*
X89694Y20603D01*
X89576Y20676D01*
X89459Y20752D01*
X89440Y20759D01*
X89423Y20769D01*
X89290Y20810D01*
X89158Y20855D01*
X89138Y20857D01*
X89119Y20863D01*
X88980Y20870D01*
X88841Y20881D01*
X88821Y20877D01*
X88801Y20878D01*
X88665Y20850D01*
X88528Y20826D01*
X88509Y20818D01*
X88490Y20814D01*
X88365Y20753D01*
X88238Y20696D01*
X88222Y20683D01*
X88204Y20674D01*
X88098Y20584D01*
X87990Y20497D01*
X87977Y20481D01*
X87962Y20468D01*
X87882Y20354D01*
X87798Y20243D01*
X87786Y20218D01*
X87779Y20208D01*
X87772Y20188D01*
X87727Y20098D01*
X86537Y17223D01*
X83107Y13793D01*
X78625Y11937D01*
X73732Y11937D01*
X73634Y11925D01*
X73535Y11922D01*
X73477Y11905D01*
X73417Y11897D01*
X73325Y11861D01*
X73229Y11833D01*
X73177Y11803D01*
X73121Y11780D01*
X73041Y11722D01*
X72956Y11672D01*
X72880Y11606D01*
X72864Y11594D01*
X72856Y11584D01*
X72835Y11566D01*
X67618Y6349D01*
X18932Y6349D01*
X18813Y6334D01*
X18694Y6327D01*
X18656Y6314D01*
X18616Y6309D01*
X18505Y6266D01*
X18392Y6229D01*
X18358Y6207D01*
X18321Y6192D01*
X18224Y6122D01*
X18123Y6058D01*
X18096Y6029D01*
X18063Y6006D01*
X17987Y5913D01*
X17905Y5827D01*
X17886Y5792D01*
X17861Y5761D01*
X17810Y5653D01*
X17752Y5548D01*
X17742Y5509D01*
X17725Y5473D01*
X17703Y5356D01*
X17673Y5240D01*
X17673Y5200D01*
X17665Y5161D01*
X17673Y5041D01*
X17673Y4922D01*
X17682Y4883D01*
X17685Y4843D01*
X17722Y4730D01*
X17751Y4614D01*
X17771Y4579D01*
X17783Y4541D01*
X17847Y4440D01*
X17904Y4335D01*
X17932Y4306D01*
X17953Y4272D01*
X18040Y4190D01*
X18122Y4103D01*
X18156Y4081D01*
X18185Y4054D01*
X18289Y3996D01*
X18390Y3932D01*
X18445Y3910D01*
X18463Y3900D01*
X18465Y3900D01*
X18466Y3900D01*
X18484Y3895D01*
X18540Y3873D01*
X21630Y2869D01*
X21698Y2856D01*
X21764Y2833D01*
X21923Y2810D01*
X25300Y2545D01*
X25322Y2546D01*
X25400Y2541D01*
X152400Y2541D01*
X152422Y2543D01*
G37*
%LPC*%
G36*
X102839Y49339D02*
X102839Y49339D01*
X100435Y50335D01*
X98595Y52175D01*
X97599Y54579D01*
X97599Y57181D01*
X98595Y59585D01*
X100342Y61333D01*
X100427Y61442D01*
X100516Y61549D01*
X100524Y61568D01*
X100537Y61584D01*
X100592Y61712D01*
X100651Y61837D01*
X100655Y61857D01*
X100663Y61876D01*
X100685Y62014D01*
X100711Y62150D01*
X100710Y62170D01*
X100713Y62190D01*
X100700Y62329D01*
X100691Y62467D01*
X100685Y62486D01*
X100683Y62506D01*
X100636Y62638D01*
X100593Y62769D01*
X100582Y62787D01*
X100576Y62806D01*
X100497Y62921D01*
X100423Y63038D01*
X100408Y63052D01*
X100397Y63069D01*
X100293Y63161D01*
X100191Y63256D01*
X100174Y63266D01*
X100159Y63279D01*
X100034Y63343D01*
X99913Y63410D01*
X99893Y63415D01*
X99875Y63424D01*
X99739Y63454D01*
X99605Y63489D01*
X99577Y63491D01*
X99565Y63494D01*
X99545Y63493D01*
X99444Y63499D01*
X64988Y63499D01*
X63499Y64988D01*
X63499Y112812D01*
X64988Y114301D01*
X112812Y114301D01*
X114301Y112812D01*
X114301Y84346D01*
X114307Y84296D01*
X114305Y84247D01*
X114327Y84139D01*
X114341Y84030D01*
X114359Y83984D01*
X114369Y83935D01*
X114417Y83837D01*
X114458Y83735D01*
X114487Y83695D01*
X114509Y83650D01*
X114580Y83566D01*
X114644Y83477D01*
X114683Y83446D01*
X114715Y83408D01*
X114805Y83344D01*
X114889Y83274D01*
X114934Y83253D01*
X114975Y83225D01*
X115078Y83186D01*
X115177Y83139D01*
X115226Y83130D01*
X115272Y83112D01*
X115382Y83100D01*
X115489Y83079D01*
X115539Y83082D01*
X115588Y83077D01*
X115697Y83092D01*
X115807Y83099D01*
X115854Y83114D01*
X115903Y83121D01*
X116056Y83173D01*
X118079Y84011D01*
X118110Y84011D01*
X118228Y84026D01*
X118347Y84034D01*
X118385Y84046D01*
X118426Y84051D01*
X118536Y84095D01*
X118649Y84132D01*
X118684Y84153D01*
X118721Y84168D01*
X118817Y84238D01*
X118918Y84302D01*
X118946Y84331D01*
X118979Y84355D01*
X119055Y84447D01*
X119136Y84533D01*
X119156Y84569D01*
X119181Y84600D01*
X119232Y84708D01*
X119290Y84812D01*
X119300Y84851D01*
X119317Y84888D01*
X119339Y85004D01*
X119369Y85120D01*
X119373Y85180D01*
X119377Y85200D01*
X119375Y85220D01*
X119379Y85280D01*
X119379Y128706D01*
X119367Y128804D01*
X119364Y128903D01*
X119347Y128961D01*
X119339Y129021D01*
X119303Y129113D01*
X119275Y129209D01*
X119245Y129261D01*
X119222Y129317D01*
X119164Y129397D01*
X119114Y129482D01*
X119048Y129558D01*
X119036Y129574D01*
X119026Y129582D01*
X119008Y129603D01*
X114363Y134248D01*
X114285Y134308D01*
X114213Y134376D01*
X114160Y134405D01*
X114112Y134442D01*
X114021Y134482D01*
X113934Y134530D01*
X113876Y134545D01*
X113820Y134569D01*
X113722Y134584D01*
X113626Y134609D01*
X113526Y134615D01*
X113506Y134619D01*
X113494Y134617D01*
X113466Y134619D01*
X53032Y134619D01*
X51054Y136597D01*
X50976Y136658D01*
X50903Y136726D01*
X50850Y136755D01*
X50803Y136792D01*
X50712Y136831D01*
X50625Y136879D01*
X50566Y136894D01*
X50511Y136918D01*
X50413Y136934D01*
X50317Y136959D01*
X50217Y136965D01*
X50197Y136968D01*
X50184Y136967D01*
X50156Y136969D01*
X49499Y136969D01*
X47095Y137965D01*
X45255Y139805D01*
X44259Y142209D01*
X44259Y144811D01*
X45255Y147215D01*
X47095Y149055D01*
X49499Y150051D01*
X52101Y150051D01*
X54505Y149055D01*
X56345Y147215D01*
X57341Y144811D01*
X57341Y143510D01*
X57356Y143392D01*
X57364Y143273D01*
X57376Y143235D01*
X57381Y143194D01*
X57425Y143084D01*
X57462Y142971D01*
X57483Y142936D01*
X57498Y142899D01*
X57568Y142803D01*
X57632Y142702D01*
X57661Y142674D01*
X57685Y142641D01*
X57777Y142565D01*
X57863Y142484D01*
X57899Y142464D01*
X57930Y142439D01*
X58038Y142388D01*
X58142Y142330D01*
X58181Y142320D01*
X58218Y142303D01*
X58334Y142281D01*
X58450Y142251D01*
X58510Y142247D01*
X58530Y142243D01*
X58550Y142245D01*
X58610Y142241D01*
X117148Y142241D01*
X119562Y139827D01*
X119672Y139742D01*
X119779Y139653D01*
X119797Y139645D01*
X119813Y139632D01*
X119941Y139577D01*
X120067Y139518D01*
X120086Y139514D01*
X120105Y139506D01*
X120243Y139484D01*
X120379Y139458D01*
X120399Y139459D01*
X120419Y139456D01*
X120558Y139469D01*
X120696Y139478D01*
X120716Y139484D01*
X120736Y139486D01*
X120867Y139533D01*
X120999Y139576D01*
X121016Y139587D01*
X121035Y139593D01*
X121150Y139672D01*
X121268Y139746D01*
X121282Y139761D01*
X121298Y139772D01*
X121390Y139876D01*
X121486Y139978D01*
X121495Y139995D01*
X121509Y140010D01*
X121572Y140135D01*
X121639Y140256D01*
X121644Y140276D01*
X121653Y140294D01*
X121684Y140430D01*
X121719Y140564D01*
X121720Y140592D01*
X121723Y140604D01*
X121722Y140624D01*
X121729Y140725D01*
X121729Y141001D01*
X122725Y143405D01*
X124565Y145245D01*
X126969Y146241D01*
X129571Y146241D01*
X131975Y145245D01*
X133815Y143405D01*
X134811Y141001D01*
X134811Y138399D01*
X133815Y135995D01*
X132452Y134632D01*
X132392Y134553D01*
X132324Y134481D01*
X132295Y134428D01*
X132258Y134380D01*
X132218Y134290D01*
X132170Y134203D01*
X132155Y134144D01*
X132131Y134089D01*
X132116Y133991D01*
X132091Y133895D01*
X132085Y133795D01*
X132081Y133775D01*
X132083Y133762D01*
X132081Y133734D01*
X132081Y65732D01*
X118418Y52069D01*
X110106Y52069D01*
X110008Y52057D01*
X109909Y52054D01*
X109850Y52037D01*
X109790Y52029D01*
X109698Y51993D01*
X109603Y51965D01*
X109551Y51935D01*
X109495Y51912D01*
X109414Y51854D01*
X109329Y51804D01*
X109254Y51738D01*
X109237Y51726D01*
X109229Y51716D01*
X109208Y51698D01*
X107845Y50335D01*
X105441Y49339D01*
X102839Y49339D01*
G37*
%LPD*%
D10*
X22860Y167640D03*
X154940Y167640D03*
D11*
X152400Y24130D03*
D12*
X127000Y24130D03*
X101600Y24130D03*
X76200Y24130D03*
X50800Y24130D03*
X25400Y24130D03*
D13*
X57150Y99695D03*
X57150Y82550D03*
D14*
X162560Y97790D03*
D15*
X165100Y97790D01*
X166370Y99060D01*
D14*
X24130Y63500D03*
D15*
X24130Y64770D01*
X20320Y64770D01*
D14*
X104140Y55880D03*
D15*
X128270Y67310D02*
X128270Y139700D01*
D14*
X128270Y139700D03*
D15*
X128270Y67310D02*
X116840Y55880D01*
X104140Y55880D01*
D14*
X50800Y143510D03*
D15*
X54610Y138430D02*
X115570Y138430D01*
X123190Y130810D01*
X123190Y81280D01*
X119380Y77470D01*
D14*
X119380Y77470D03*
D15*
X54610Y138430D02*
X50800Y142240D01*
X50800Y143510D01*
D14*
X54610Y52070D03*
D15*
X73660Y52070D01*
X101600Y24130D01*
X76200Y24130D02*
X76200Y20320D01*
X66040Y10160D01*
X20320Y10160D01*
X5080Y25400D01*
X5080Y135890D01*
X11430Y142240D01*
X29210Y142240D01*
X44450Y157480D01*
X87630Y157480D01*
X92710Y152400D01*
D14*
X92710Y152400D03*
X48260Y116840D03*
D15*
X44450Y114300D02*
X44450Y40640D01*
X50800Y34290D01*
X50800Y24130D01*
X44450Y114300D02*
X46990Y116840D01*
X48260Y116840D01*
D14*
X124460Y171450D03*
D15*
X124460Y163830D01*
X147320Y140970D01*
X152400Y140970D01*
X171450Y121920D01*
X171450Y43180D01*
X152400Y24130D01*
M02*
