G04 EAGLE Gerber RS-274X export*
G75*
%MOMM*%
%FSLAX34Y34*%
%LPD*%
%INBottom Copper*%
%IPPOS*%
%AMOC8*
5,1,8,0,0,1.08239X$1,22.5*%
G01*
%ADD10C,1.676400*%
%ADD11C,0.800100*%
%ADD12C,0.254000*%


D10*
X62230Y266700D03*
X87630Y266700D03*
X113030Y266700D03*
X138430Y266700D03*
X163830Y266700D03*
X189230Y266700D03*
X214630Y266700D03*
X240030Y266700D03*
X265430Y266700D03*
X290830Y266700D03*
X316230Y266700D03*
X341630Y266700D03*
X367030Y266700D03*
X63500Y12700D03*
X88900Y12700D03*
X114300Y12700D03*
X139700Y12700D03*
X165100Y12700D03*
X190500Y12700D03*
X215900Y12700D03*
X241300Y12700D03*
X266700Y12700D03*
X292100Y12700D03*
X317500Y12700D03*
X342900Y12700D03*
X368300Y12700D03*
D11*
X36830Y49530D03*
D12*
X36830Y74930D01*
D11*
X36830Y74930D03*
X36830Y100330D03*
D12*
X36830Y74930D01*
D11*
X36830Y125730D03*
D12*
X36830Y100330D01*
D11*
X36830Y151130D03*
D12*
X36830Y125730D01*
D11*
X36830Y201930D03*
D12*
X36830Y176530D01*
X36830Y151130D01*
D11*
X36830Y176530D03*
X36830Y227330D03*
D12*
X36830Y201930D01*
X36830Y227330D02*
X38100Y254000D01*
X62230Y266700D01*
D11*
X62230Y176530D03*
D12*
X62230Y201930D01*
D11*
X62230Y201930D03*
X62230Y151130D03*
D12*
X62230Y176530D01*
D11*
X62230Y125730D03*
D12*
X62230Y151130D01*
D11*
X62230Y100330D03*
D12*
X62230Y125730D01*
D11*
X62230Y74930D03*
D12*
X62230Y100330D01*
D11*
X62230Y49530D03*
D12*
X62230Y74930D01*
X49530Y209327D02*
X49530Y242570D01*
X49530Y209327D02*
X56927Y201930D01*
X62230Y201930D01*
X49530Y242570D02*
X57059Y253623D01*
X71755Y255905D01*
X87630Y266700D01*
D11*
X67310Y247650D03*
D12*
X62230Y227330D01*
D11*
X62230Y227330D03*
X87630Y49530D03*
D12*
X87630Y74930D01*
D11*
X87630Y74930D03*
X87630Y100330D03*
D12*
X87630Y74930D01*
D11*
X87630Y125730D03*
D12*
X87630Y100330D01*
D11*
X87630Y151130D03*
D12*
X87630Y125730D01*
D11*
X87630Y176530D03*
D12*
X87630Y151130D01*
X72390Y217170D02*
X62230Y227330D01*
X72390Y217170D02*
X72390Y194310D01*
X87630Y179070D01*
X87630Y176530D01*
D11*
X113030Y49530D03*
D12*
X113030Y74930D01*
D11*
X113030Y74930D03*
X113030Y100330D03*
D12*
X113030Y74930D01*
D11*
X113030Y125730D03*
D12*
X113030Y100330D01*
D11*
X113030Y151130D03*
D12*
X113030Y125730D01*
D11*
X92710Y247650D03*
D12*
X87630Y227330D01*
D11*
X87630Y227330D03*
X87630Y201930D03*
D12*
X87630Y227330D01*
X87630Y201930D02*
X97790Y191770D01*
X97790Y171450D01*
X113030Y156210D01*
X113030Y151130D01*
D11*
X113030Y176530D03*
D12*
X113030Y201930D01*
D11*
X113030Y201930D03*
X113030Y227330D03*
D12*
X113030Y201930D01*
D11*
X118110Y246380D03*
D12*
X113030Y227330D01*
D11*
X138430Y49530D03*
D12*
X138430Y74930D01*
D11*
X138430Y74930D03*
X138430Y100330D03*
D12*
X138430Y74930D01*
D11*
X138430Y125730D03*
D12*
X138430Y100330D01*
X125730Y163830D02*
X113030Y176530D01*
X125730Y163830D02*
X125730Y143510D01*
X138430Y130810D01*
X138430Y125730D01*
D11*
X138430Y151130D03*
D12*
X138430Y176530D01*
D11*
X138430Y176530D03*
X138430Y201930D03*
D12*
X138430Y176530D01*
D11*
X138430Y227330D03*
D12*
X138430Y201930D01*
D11*
X143510Y247650D03*
D12*
X138430Y227330D01*
D11*
X163830Y100330D03*
D12*
X163830Y74930D01*
D11*
X163830Y74930D03*
X163830Y49530D03*
D12*
X163830Y74930D01*
X148590Y140970D02*
X138430Y151130D01*
X148590Y140970D02*
X148590Y125730D01*
X163830Y110490D01*
X163830Y100330D01*
D11*
X168910Y247650D03*
D12*
X163830Y227330D01*
D11*
X163830Y227330D03*
X163830Y201930D03*
D12*
X163830Y227330D01*
D11*
X163830Y176530D03*
D12*
X163830Y201930D01*
D11*
X163830Y151130D03*
D12*
X163830Y176530D01*
D11*
X163830Y125730D03*
D12*
X163830Y151130D01*
D11*
X189230Y49530D03*
D12*
X189230Y74930D01*
D11*
X189230Y74930D03*
D12*
X173990Y115570D02*
X163830Y125730D01*
X173990Y115570D02*
X173990Y102870D01*
X189230Y87630D01*
X189230Y74930D01*
D11*
X189230Y100330D03*
D12*
X189230Y102870D01*
D11*
X189230Y125730D03*
D12*
X189230Y102870D01*
D11*
X189230Y151130D03*
D12*
X189230Y125730D01*
D11*
X189230Y176530D03*
D12*
X189230Y151130D01*
D11*
X189230Y201930D03*
D12*
X189230Y176530D01*
D11*
X189230Y227330D03*
D12*
X189230Y201930D01*
D11*
X194310Y247650D03*
D12*
X189230Y227330D01*
X189230Y102870D02*
X202977Y89123D01*
D11*
X214630Y49530D03*
D12*
X202977Y61183D01*
X202977Y89123D01*
X214630Y74930D02*
X217170Y74930D01*
D11*
X214630Y74930D03*
D12*
X217170Y74930D02*
X222250Y69850D01*
X222250Y44450D01*
D11*
X158750Y26670D03*
D12*
X215900Y38100D02*
X222250Y44450D01*
X215900Y38100D02*
X207010Y38100D01*
X200437Y31527D01*
X171227Y31527D01*
X166370Y26670D01*
X158750Y26670D01*
D11*
X265430Y49530D03*
D12*
X265430Y74930D01*
D11*
X265430Y74930D03*
X265430Y100330D03*
D12*
X265430Y74930D01*
D11*
X265430Y125730D03*
D12*
X265430Y100330D01*
D11*
X265430Y151130D03*
D12*
X265430Y125730D01*
D11*
X265430Y176530D03*
D12*
X265430Y151130D01*
D11*
X265430Y201930D03*
D12*
X265430Y176530D01*
D11*
X245110Y247650D03*
D12*
X224790Y227330D01*
X214630Y227330D01*
D11*
X214630Y227330D03*
D12*
X236443Y42133D02*
X258033Y42133D01*
X265430Y49530D01*
X236443Y42133D02*
X220980Y26670D01*
X212090Y26670D01*
X198120Y12700D01*
X190500Y12700D01*
D11*
X290830Y49530D03*
D12*
X290830Y74930D01*
D11*
X290830Y74930D03*
X290830Y100330D03*
D12*
X290830Y74930D01*
D11*
X290830Y125730D03*
D12*
X290830Y100330D01*
D11*
X290830Y151130D03*
D12*
X290830Y125730D01*
D11*
X290830Y176530D03*
D12*
X290830Y151130D01*
D11*
X265430Y227330D03*
X270510Y248920D03*
D12*
X265430Y227330D01*
X270510Y36830D02*
X240030Y36830D01*
X270510Y36830D02*
X283210Y49530D01*
X290830Y49530D01*
X265430Y217170D02*
X265430Y227330D01*
X265430Y217170D02*
X278130Y204470D01*
X278130Y189230D01*
X290830Y176530D01*
X240030Y36830D02*
X215900Y12700D01*
D11*
X295910Y248920D03*
D12*
X290830Y227330D01*
D11*
X290830Y227330D03*
X290830Y201930D03*
D12*
X290830Y227330D01*
D11*
X316230Y49530D03*
D12*
X316230Y74930D01*
D11*
X316230Y74930D03*
X316230Y100330D03*
D12*
X316230Y74930D01*
D11*
X316230Y125730D03*
D12*
X316230Y100330D01*
D11*
X316230Y151130D03*
D12*
X316230Y125730D01*
X290830Y196850D02*
X290830Y201930D01*
X290830Y196850D02*
X300990Y186690D01*
X300990Y166370D01*
X316230Y151130D01*
X285973Y42133D02*
X275590Y31750D01*
X285973Y42133D02*
X308833Y42133D01*
X316230Y49530D01*
X275590Y31750D02*
X260350Y31750D01*
X241300Y12700D01*
D11*
X316230Y176530D03*
D12*
X316230Y201930D01*
D11*
X321310Y248920D03*
D12*
X316230Y227330D02*
X316230Y201930D01*
X316230Y227330D02*
X321310Y248920D01*
D11*
X316230Y227330D03*
X316230Y201930D03*
X341630Y49530D03*
D12*
X341630Y74930D01*
D11*
X341630Y125730D03*
D12*
X341630Y100330D02*
X341630Y74930D01*
X341630Y100330D02*
X341630Y125730D01*
D11*
X341630Y100330D03*
X341630Y74930D03*
D12*
X341630Y125730D02*
X326390Y140970D01*
X326390Y166370D01*
X316230Y176530D01*
X316230Y36830D02*
X295910Y36830D01*
X316230Y36830D02*
X328930Y49530D01*
X341630Y49530D01*
X295910Y36830D02*
X271780Y12700D01*
X266700Y12700D01*
D11*
X347980Y248920D03*
D12*
X341630Y227330D01*
D11*
X341630Y227330D03*
X341630Y201930D03*
D12*
X341630Y227330D01*
D11*
X341630Y176530D03*
D12*
X341630Y201930D01*
D11*
X367030Y100330D03*
D12*
X367030Y74930D01*
D11*
X367030Y74930D03*
X367030Y49530D03*
D12*
X367030Y74930D01*
D11*
X341630Y151130D03*
D12*
X341630Y176530D01*
X341630Y151130D02*
X341630Y140970D01*
X356870Y125730D01*
X356870Y110490D01*
X367030Y100330D01*
X354330Y41910D02*
X331470Y41910D01*
X354330Y41910D02*
X361950Y49530D01*
X367030Y49530D01*
X331470Y41910D02*
X318770Y29210D01*
X309880Y29210D01*
X293370Y12700D01*
X292100Y12700D01*
D11*
X367030Y176530D03*
D12*
X367030Y201930D01*
D11*
X368300Y251460D03*
D12*
X367030Y227330D02*
X367030Y201930D01*
X367030Y227330D02*
X368300Y251460D01*
D11*
X367030Y227330D03*
X367030Y201930D03*
X392430Y49530D03*
D12*
X392430Y74930D01*
D11*
X392430Y74930D03*
X367030Y125730D03*
D12*
X367030Y151130D01*
D11*
X367030Y151130D03*
D12*
X367030Y176530D01*
X367030Y125730D02*
X367030Y115570D01*
X377190Y105410D01*
X377190Y90170D01*
X392430Y74930D01*
X367030Y36830D02*
X347980Y36830D01*
X367030Y36830D02*
X379730Y49530D01*
X392430Y49530D01*
X347980Y36830D02*
X323850Y12700D01*
X317500Y12700D01*
D11*
X392430Y176530D03*
D12*
X392430Y201930D01*
D11*
X393700Y252730D03*
D12*
X392430Y227330D02*
X392430Y201930D01*
X392430Y227330D02*
X393700Y252730D01*
D11*
X392430Y201930D03*
X392430Y227330D03*
X392430Y100330D03*
X392430Y125730D03*
D12*
X392430Y151130D01*
X392430Y176530D01*
D11*
X392430Y151130D03*
D12*
X392430Y125730D02*
X392430Y100330D01*
X392430Y92710D01*
X402590Y82550D01*
X402590Y64770D01*
X412750Y54610D01*
D11*
X412750Y54610D03*
D12*
X383540Y41910D02*
X382270Y41910D01*
X388620Y41910D02*
X400050Y41910D01*
X412750Y54610D01*
X356870Y26670D02*
X342900Y12700D01*
X356870Y26670D02*
X368300Y26670D01*
X383540Y41910D01*
X388620Y41910D01*
X410210Y44450D02*
X417830Y44450D01*
X420370Y46990D01*
X420370Y59690D01*
X415290Y64770D01*
X415290Y80010D01*
D11*
X415290Y80010D03*
D12*
X410210Y44450D02*
X378460Y12700D01*
X368300Y12700D01*
D11*
X240030Y227330D03*
D12*
X240030Y201930D01*
D11*
X240030Y201930D03*
X240030Y176530D03*
D12*
X240030Y201930D01*
D11*
X240030Y151130D03*
D12*
X240030Y176530D01*
D11*
X240030Y125730D03*
D12*
X240030Y151130D01*
D11*
X240030Y100330D03*
D12*
X240030Y125730D01*
D11*
X240030Y74930D03*
D12*
X240030Y100330D01*
D11*
X240030Y49530D03*
D12*
X240030Y74930D01*
X177800Y25400D02*
X165100Y12700D01*
X177800Y25400D02*
X201930Y25400D01*
X208280Y31750D01*
X218440Y31750D01*
X236220Y49530D01*
X240030Y49530D01*
M02*
