G04 EAGLE Gerber RS-274X export*
G75*
%MOMM*%
%FSLAX34Y34*%
%LPD*%
%INSoldermask Top*%
%IPPOS*%
%AMOC8*
5,1,8,0,0,1.08239X$1,22.5*%
G01*
%ADD10R,1.341600X1.601600*%
%ADD11C,3.617600*%
%ADD12C,1.101600*%
%ADD13C,0.469900*%
%ADD14C,2.032000*%
%ADD15C,0.624191*%
%ADD16R,0.801600X0.301600*%
%ADD17R,1.001600X0.551600*%
%ADD18R,1.176600X1.101600*%
%ADD19R,0.601600X0.851600*%
%ADD20R,0.551600X1.001600*%
%ADD21R,1.101600X1.176600*%
%ADD22R,0.701600X1.651600*%
%ADD23R,1.301600X1.901600*%


D10*
X58380Y381910D03*
X77380Y381910D03*
D11*
X25000Y360000D03*
X365000Y360000D03*
D12*
X17010Y439860D03*
D13*
X17010Y447360D02*
X16829Y447358D01*
X16648Y447351D01*
X16467Y447340D01*
X16286Y447325D01*
X16106Y447305D01*
X15926Y447281D01*
X15747Y447253D01*
X15569Y447220D01*
X15392Y447183D01*
X15215Y447142D01*
X15040Y447097D01*
X14865Y447047D01*
X14692Y446993D01*
X14521Y446935D01*
X14350Y446873D01*
X14182Y446806D01*
X14015Y446736D01*
X13849Y446662D01*
X13686Y446583D01*
X13525Y446501D01*
X13365Y446415D01*
X13208Y446325D01*
X13053Y446231D01*
X12900Y446134D01*
X12750Y446032D01*
X12602Y445928D01*
X12456Y445819D01*
X12314Y445708D01*
X12174Y445592D01*
X12037Y445474D01*
X11902Y445352D01*
X11771Y445227D01*
X11643Y445099D01*
X11518Y444968D01*
X11396Y444833D01*
X11278Y444696D01*
X11162Y444556D01*
X11051Y444414D01*
X10942Y444268D01*
X10838Y444120D01*
X10736Y443970D01*
X10639Y443817D01*
X10545Y443662D01*
X10455Y443505D01*
X10369Y443345D01*
X10287Y443184D01*
X10208Y443021D01*
X10134Y442855D01*
X10064Y442688D01*
X9997Y442520D01*
X9935Y442349D01*
X9877Y442178D01*
X9823Y442005D01*
X9773Y441830D01*
X9728Y441655D01*
X9687Y441478D01*
X9650Y441301D01*
X9617Y441123D01*
X9589Y440944D01*
X9565Y440764D01*
X9545Y440584D01*
X9530Y440403D01*
X9519Y440222D01*
X9512Y440041D01*
X9510Y439860D01*
X17010Y447360D02*
X17191Y447358D01*
X17372Y447351D01*
X17553Y447340D01*
X17734Y447325D01*
X17914Y447305D01*
X18094Y447281D01*
X18273Y447253D01*
X18451Y447220D01*
X18628Y447183D01*
X18805Y447142D01*
X18980Y447097D01*
X19155Y447047D01*
X19328Y446993D01*
X19499Y446935D01*
X19670Y446873D01*
X19838Y446806D01*
X20005Y446736D01*
X20171Y446662D01*
X20334Y446583D01*
X20495Y446501D01*
X20655Y446415D01*
X20812Y446325D01*
X20967Y446231D01*
X21120Y446134D01*
X21270Y446032D01*
X21418Y445928D01*
X21564Y445819D01*
X21706Y445708D01*
X21846Y445592D01*
X21983Y445474D01*
X22118Y445352D01*
X22249Y445227D01*
X22377Y445099D01*
X22502Y444968D01*
X22624Y444833D01*
X22742Y444696D01*
X22858Y444556D01*
X22969Y444414D01*
X23078Y444268D01*
X23182Y444120D01*
X23284Y443970D01*
X23381Y443817D01*
X23475Y443662D01*
X23565Y443505D01*
X23651Y443345D01*
X23733Y443184D01*
X23812Y443021D01*
X23886Y442855D01*
X23956Y442688D01*
X24023Y442520D01*
X24085Y442349D01*
X24143Y442178D01*
X24197Y442005D01*
X24247Y441830D01*
X24292Y441655D01*
X24333Y441478D01*
X24370Y441301D01*
X24403Y441123D01*
X24431Y440944D01*
X24455Y440764D01*
X24475Y440584D01*
X24490Y440403D01*
X24501Y440222D01*
X24508Y440041D01*
X24510Y439860D01*
X24508Y439679D01*
X24501Y439498D01*
X24490Y439317D01*
X24475Y439136D01*
X24455Y438956D01*
X24431Y438776D01*
X24403Y438597D01*
X24370Y438419D01*
X24333Y438242D01*
X24292Y438065D01*
X24247Y437890D01*
X24197Y437715D01*
X24143Y437542D01*
X24085Y437371D01*
X24023Y437200D01*
X23956Y437032D01*
X23886Y436865D01*
X23812Y436699D01*
X23733Y436536D01*
X23651Y436375D01*
X23565Y436215D01*
X23475Y436058D01*
X23381Y435903D01*
X23284Y435750D01*
X23182Y435600D01*
X23078Y435452D01*
X22969Y435306D01*
X22858Y435164D01*
X22742Y435024D01*
X22624Y434887D01*
X22502Y434752D01*
X22377Y434621D01*
X22249Y434493D01*
X22118Y434368D01*
X21983Y434246D01*
X21846Y434128D01*
X21706Y434012D01*
X21564Y433901D01*
X21418Y433792D01*
X21270Y433688D01*
X21120Y433586D01*
X20967Y433489D01*
X20812Y433395D01*
X20655Y433305D01*
X20495Y433219D01*
X20334Y433137D01*
X20171Y433058D01*
X20005Y432984D01*
X19838Y432914D01*
X19670Y432847D01*
X19499Y432785D01*
X19328Y432727D01*
X19155Y432673D01*
X18980Y432623D01*
X18805Y432578D01*
X18628Y432537D01*
X18451Y432500D01*
X18273Y432467D01*
X18094Y432439D01*
X17914Y432415D01*
X17734Y432395D01*
X17553Y432380D01*
X17372Y432369D01*
X17191Y432362D01*
X17010Y432360D01*
X16829Y432362D01*
X16648Y432369D01*
X16467Y432380D01*
X16286Y432395D01*
X16106Y432415D01*
X15926Y432439D01*
X15747Y432467D01*
X15569Y432500D01*
X15392Y432537D01*
X15215Y432578D01*
X15040Y432623D01*
X14865Y432673D01*
X14692Y432727D01*
X14521Y432785D01*
X14350Y432847D01*
X14182Y432914D01*
X14015Y432984D01*
X13849Y433058D01*
X13686Y433137D01*
X13525Y433219D01*
X13365Y433305D01*
X13208Y433395D01*
X13053Y433489D01*
X12900Y433586D01*
X12750Y433688D01*
X12602Y433792D01*
X12456Y433901D01*
X12314Y434012D01*
X12174Y434128D01*
X12037Y434246D01*
X11902Y434368D01*
X11771Y434493D01*
X11643Y434621D01*
X11518Y434752D01*
X11396Y434887D01*
X11278Y435024D01*
X11162Y435164D01*
X11051Y435306D01*
X10942Y435452D01*
X10838Y435600D01*
X10736Y435750D01*
X10639Y435903D01*
X10545Y436058D01*
X10455Y436215D01*
X10369Y436375D01*
X10287Y436536D01*
X10208Y436699D01*
X10134Y436865D01*
X10064Y437032D01*
X9997Y437200D01*
X9935Y437371D01*
X9877Y437542D01*
X9823Y437715D01*
X9773Y437890D01*
X9728Y438065D01*
X9687Y438242D01*
X9650Y438419D01*
X9617Y438597D01*
X9589Y438776D01*
X9565Y438956D01*
X9545Y439136D01*
X9530Y439317D01*
X9519Y439498D01*
X9512Y439679D01*
X9510Y439860D01*
D12*
X338043Y-42151D03*
D13*
X338043Y-34651D02*
X337862Y-34653D01*
X337681Y-34660D01*
X337500Y-34671D01*
X337319Y-34686D01*
X337139Y-34706D01*
X336959Y-34730D01*
X336780Y-34758D01*
X336602Y-34791D01*
X336425Y-34828D01*
X336248Y-34869D01*
X336073Y-34914D01*
X335898Y-34964D01*
X335725Y-35018D01*
X335554Y-35076D01*
X335383Y-35138D01*
X335215Y-35205D01*
X335048Y-35275D01*
X334882Y-35349D01*
X334719Y-35428D01*
X334558Y-35510D01*
X334398Y-35596D01*
X334241Y-35686D01*
X334086Y-35780D01*
X333933Y-35877D01*
X333783Y-35979D01*
X333635Y-36083D01*
X333489Y-36192D01*
X333347Y-36303D01*
X333207Y-36419D01*
X333070Y-36537D01*
X332935Y-36659D01*
X332804Y-36784D01*
X332676Y-36912D01*
X332551Y-37043D01*
X332429Y-37178D01*
X332311Y-37315D01*
X332195Y-37455D01*
X332084Y-37597D01*
X331975Y-37743D01*
X331871Y-37891D01*
X331769Y-38041D01*
X331672Y-38194D01*
X331578Y-38349D01*
X331488Y-38506D01*
X331402Y-38666D01*
X331320Y-38827D01*
X331241Y-38990D01*
X331167Y-39156D01*
X331097Y-39323D01*
X331030Y-39491D01*
X330968Y-39662D01*
X330910Y-39833D01*
X330856Y-40006D01*
X330806Y-40181D01*
X330761Y-40356D01*
X330720Y-40533D01*
X330683Y-40710D01*
X330650Y-40888D01*
X330622Y-41067D01*
X330598Y-41247D01*
X330578Y-41427D01*
X330563Y-41608D01*
X330552Y-41789D01*
X330545Y-41970D01*
X330543Y-42151D01*
X338043Y-34651D02*
X338224Y-34653D01*
X338405Y-34660D01*
X338586Y-34671D01*
X338767Y-34686D01*
X338947Y-34706D01*
X339127Y-34730D01*
X339306Y-34758D01*
X339484Y-34791D01*
X339661Y-34828D01*
X339838Y-34869D01*
X340013Y-34914D01*
X340188Y-34964D01*
X340361Y-35018D01*
X340532Y-35076D01*
X340703Y-35138D01*
X340871Y-35205D01*
X341038Y-35275D01*
X341204Y-35349D01*
X341367Y-35428D01*
X341528Y-35510D01*
X341688Y-35596D01*
X341845Y-35686D01*
X342000Y-35780D01*
X342153Y-35877D01*
X342303Y-35979D01*
X342451Y-36083D01*
X342597Y-36192D01*
X342739Y-36303D01*
X342879Y-36419D01*
X343016Y-36537D01*
X343151Y-36659D01*
X343282Y-36784D01*
X343410Y-36912D01*
X343535Y-37043D01*
X343657Y-37178D01*
X343775Y-37315D01*
X343891Y-37455D01*
X344002Y-37597D01*
X344111Y-37743D01*
X344215Y-37891D01*
X344317Y-38041D01*
X344414Y-38194D01*
X344508Y-38349D01*
X344598Y-38506D01*
X344684Y-38666D01*
X344766Y-38827D01*
X344845Y-38990D01*
X344919Y-39156D01*
X344989Y-39323D01*
X345056Y-39491D01*
X345118Y-39662D01*
X345176Y-39833D01*
X345230Y-40006D01*
X345280Y-40181D01*
X345325Y-40356D01*
X345366Y-40533D01*
X345403Y-40710D01*
X345436Y-40888D01*
X345464Y-41067D01*
X345488Y-41247D01*
X345508Y-41427D01*
X345523Y-41608D01*
X345534Y-41789D01*
X345541Y-41970D01*
X345543Y-42151D01*
X345541Y-42332D01*
X345534Y-42513D01*
X345523Y-42694D01*
X345508Y-42875D01*
X345488Y-43055D01*
X345464Y-43235D01*
X345436Y-43414D01*
X345403Y-43592D01*
X345366Y-43769D01*
X345325Y-43946D01*
X345280Y-44121D01*
X345230Y-44296D01*
X345176Y-44469D01*
X345118Y-44640D01*
X345056Y-44811D01*
X344989Y-44979D01*
X344919Y-45146D01*
X344845Y-45312D01*
X344766Y-45475D01*
X344684Y-45636D01*
X344598Y-45796D01*
X344508Y-45953D01*
X344414Y-46108D01*
X344317Y-46261D01*
X344215Y-46411D01*
X344111Y-46559D01*
X344002Y-46705D01*
X343891Y-46847D01*
X343775Y-46987D01*
X343657Y-47124D01*
X343535Y-47259D01*
X343410Y-47390D01*
X343282Y-47518D01*
X343151Y-47643D01*
X343016Y-47765D01*
X342879Y-47883D01*
X342739Y-47999D01*
X342597Y-48110D01*
X342451Y-48219D01*
X342303Y-48323D01*
X342153Y-48425D01*
X342000Y-48522D01*
X341845Y-48616D01*
X341688Y-48706D01*
X341528Y-48792D01*
X341367Y-48874D01*
X341204Y-48953D01*
X341038Y-49027D01*
X340871Y-49097D01*
X340703Y-49164D01*
X340532Y-49226D01*
X340361Y-49284D01*
X340188Y-49338D01*
X340013Y-49388D01*
X339838Y-49433D01*
X339661Y-49474D01*
X339484Y-49511D01*
X339306Y-49544D01*
X339127Y-49572D01*
X338947Y-49596D01*
X338767Y-49616D01*
X338586Y-49631D01*
X338405Y-49642D01*
X338224Y-49649D01*
X338043Y-49651D01*
X337862Y-49649D01*
X337681Y-49642D01*
X337500Y-49631D01*
X337319Y-49616D01*
X337139Y-49596D01*
X336959Y-49572D01*
X336780Y-49544D01*
X336602Y-49511D01*
X336425Y-49474D01*
X336248Y-49433D01*
X336073Y-49388D01*
X335898Y-49338D01*
X335725Y-49284D01*
X335554Y-49226D01*
X335383Y-49164D01*
X335215Y-49097D01*
X335048Y-49027D01*
X334882Y-48953D01*
X334719Y-48874D01*
X334558Y-48792D01*
X334398Y-48706D01*
X334241Y-48616D01*
X334086Y-48522D01*
X333933Y-48425D01*
X333783Y-48323D01*
X333635Y-48219D01*
X333489Y-48110D01*
X333347Y-47999D01*
X333207Y-47883D01*
X333070Y-47765D01*
X332935Y-47643D01*
X332804Y-47518D01*
X332676Y-47390D01*
X332551Y-47259D01*
X332429Y-47124D01*
X332311Y-46987D01*
X332195Y-46847D01*
X332084Y-46705D01*
X331975Y-46559D01*
X331871Y-46411D01*
X331769Y-46261D01*
X331672Y-46108D01*
X331578Y-45953D01*
X331488Y-45796D01*
X331402Y-45636D01*
X331320Y-45475D01*
X331241Y-45312D01*
X331167Y-45146D01*
X331097Y-44979D01*
X331030Y-44811D01*
X330968Y-44640D01*
X330910Y-44469D01*
X330856Y-44296D01*
X330806Y-44121D01*
X330761Y-43946D01*
X330720Y-43769D01*
X330683Y-43592D01*
X330650Y-43414D01*
X330622Y-43235D01*
X330598Y-43055D01*
X330578Y-42875D01*
X330563Y-42694D01*
X330552Y-42513D01*
X330545Y-42332D01*
X330543Y-42151D01*
D14*
X118800Y435000D03*
X144200Y435000D03*
X169600Y435000D03*
X195000Y435000D03*
X220400Y435000D03*
X245800Y435000D03*
X271200Y435000D03*
D10*
X313290Y383350D03*
X332290Y383350D03*
X30570Y395040D03*
X11570Y395040D03*
D15*
X146758Y357320D02*
X179125Y389687D01*
X211492Y357320D01*
X179125Y324953D01*
X146758Y357320D01*
X173195Y330883D02*
X185055Y330883D01*
X190985Y336813D02*
X167265Y336813D01*
X161335Y342743D02*
X196915Y342743D01*
X202845Y348673D02*
X155405Y348673D01*
X149475Y354603D02*
X208775Y354603D01*
X208279Y360533D02*
X149971Y360533D01*
X155901Y366463D02*
X202349Y366463D01*
X196419Y372393D02*
X161831Y372393D01*
X167761Y378323D02*
X190489Y378323D01*
X184559Y384253D02*
X173691Y384253D01*
D16*
G36*
X226866Y363330D02*
X221199Y357663D01*
X219066Y359796D01*
X224733Y365463D01*
X226866Y363330D01*
G37*
G36*
X224037Y366158D02*
X218370Y360491D01*
X216237Y362624D01*
X221904Y368291D01*
X224037Y366158D01*
G37*
G36*
X221209Y368986D02*
X215542Y363319D01*
X213409Y365452D01*
X219076Y371119D01*
X221209Y368986D01*
G37*
G36*
X218380Y371815D02*
X212713Y366148D01*
X210580Y368281D01*
X216247Y373948D01*
X218380Y371815D01*
G37*
G36*
X215552Y374643D02*
X209885Y368976D01*
X207752Y371109D01*
X213419Y376776D01*
X215552Y374643D01*
G37*
G36*
X212723Y377472D02*
X207056Y371805D01*
X204923Y373938D01*
X210590Y379605D01*
X212723Y377472D01*
G37*
G36*
X209895Y380300D02*
X204228Y374633D01*
X202095Y376766D01*
X207762Y382433D01*
X209895Y380300D01*
G37*
G36*
X207067Y383129D02*
X201400Y377462D01*
X199267Y379595D01*
X204934Y385262D01*
X207067Y383129D01*
G37*
G36*
X204238Y385957D02*
X198571Y380290D01*
X196438Y382423D01*
X202105Y388090D01*
X204238Y385957D01*
G37*
G36*
X201410Y388785D02*
X195743Y383118D01*
X193610Y385251D01*
X199277Y390918D01*
X201410Y388785D01*
G37*
G36*
X198581Y391614D02*
X192914Y385947D01*
X190781Y388080D01*
X196448Y393747D01*
X198581Y391614D01*
G37*
G36*
X195753Y394442D02*
X190086Y388775D01*
X187953Y390908D01*
X193620Y396575D01*
X195753Y394442D01*
G37*
G36*
X192924Y397271D02*
X187257Y391604D01*
X185124Y393737D01*
X190791Y399404D01*
X192924Y397271D01*
G37*
G36*
X190096Y400099D02*
X184429Y394432D01*
X182296Y396565D01*
X187963Y402232D01*
X190096Y400099D01*
G37*
G36*
X187268Y402928D02*
X181601Y397261D01*
X179468Y399394D01*
X185135Y405061D01*
X187268Y402928D01*
G37*
G36*
X173115Y405061D02*
X178782Y399394D01*
X176649Y397261D01*
X170982Y402928D01*
X173115Y405061D01*
G37*
G36*
X170287Y402232D02*
X175954Y396565D01*
X173821Y394432D01*
X168154Y400099D01*
X170287Y402232D01*
G37*
G36*
X167459Y399404D02*
X173126Y393737D01*
X170993Y391604D01*
X165326Y397271D01*
X167459Y399404D01*
G37*
G36*
X164630Y396575D02*
X170297Y390908D01*
X168164Y388775D01*
X162497Y394442D01*
X164630Y396575D01*
G37*
G36*
X161802Y393747D02*
X167469Y388080D01*
X165336Y385947D01*
X159669Y391614D01*
X161802Y393747D01*
G37*
G36*
X158973Y390918D02*
X164640Y385251D01*
X162507Y383118D01*
X156840Y388785D01*
X158973Y390918D01*
G37*
G36*
X156145Y388090D02*
X161812Y382423D01*
X159679Y380290D01*
X154012Y385957D01*
X156145Y388090D01*
G37*
G36*
X153316Y385262D02*
X158983Y379595D01*
X156850Y377462D01*
X151183Y383129D01*
X153316Y385262D01*
G37*
G36*
X150488Y382433D02*
X156155Y376766D01*
X154022Y374633D01*
X148355Y380300D01*
X150488Y382433D01*
G37*
G36*
X147660Y379605D02*
X153327Y373938D01*
X151194Y371805D01*
X145527Y377472D01*
X147660Y379605D01*
G37*
G36*
X144831Y376776D02*
X150498Y371109D01*
X148365Y368976D01*
X142698Y374643D01*
X144831Y376776D01*
G37*
G36*
X142003Y373948D02*
X147670Y368281D01*
X145537Y366148D01*
X139870Y371815D01*
X142003Y373948D01*
G37*
G36*
X139174Y371119D02*
X144841Y365452D01*
X142708Y363319D01*
X137041Y368986D01*
X139174Y371119D01*
G37*
G36*
X136346Y368291D02*
X142013Y362624D01*
X139880Y360491D01*
X134213Y366158D01*
X136346Y368291D01*
G37*
G36*
X133517Y365463D02*
X139184Y359796D01*
X137051Y357663D01*
X131384Y363330D01*
X133517Y365463D01*
G37*
G36*
X131384Y351310D02*
X137051Y356977D01*
X139184Y354844D01*
X133517Y349177D01*
X131384Y351310D01*
G37*
G36*
X134213Y348482D02*
X139880Y354149D01*
X142013Y352016D01*
X136346Y346349D01*
X134213Y348482D01*
G37*
G36*
X137041Y345654D02*
X142708Y351321D01*
X144841Y349188D01*
X139174Y343521D01*
X137041Y345654D01*
G37*
G36*
X139870Y342825D02*
X145537Y348492D01*
X147670Y346359D01*
X142003Y340692D01*
X139870Y342825D01*
G37*
G36*
X142698Y339997D02*
X148365Y345664D01*
X150498Y343531D01*
X144831Y337864D01*
X142698Y339997D01*
G37*
G36*
X145527Y337168D02*
X151194Y342835D01*
X153327Y340702D01*
X147660Y335035D01*
X145527Y337168D01*
G37*
G36*
X148355Y334340D02*
X154022Y340007D01*
X156155Y337874D01*
X150488Y332207D01*
X148355Y334340D01*
G37*
G36*
X151183Y331511D02*
X156850Y337178D01*
X158983Y335045D01*
X153316Y329378D01*
X151183Y331511D01*
G37*
G36*
X154012Y328683D02*
X159679Y334350D01*
X161812Y332217D01*
X156145Y326550D01*
X154012Y328683D01*
G37*
G36*
X156840Y325855D02*
X162507Y331522D01*
X164640Y329389D01*
X158973Y323722D01*
X156840Y325855D01*
G37*
G36*
X159669Y323026D02*
X165336Y328693D01*
X167469Y326560D01*
X161802Y320893D01*
X159669Y323026D01*
G37*
G36*
X162497Y320198D02*
X168164Y325865D01*
X170297Y323732D01*
X164630Y318065D01*
X162497Y320198D01*
G37*
G36*
X165326Y317369D02*
X170993Y323036D01*
X173126Y320903D01*
X167459Y315236D01*
X165326Y317369D01*
G37*
G36*
X168154Y314541D02*
X173821Y320208D01*
X175954Y318075D01*
X170287Y312408D01*
X168154Y314541D01*
G37*
G36*
X170982Y311712D02*
X176649Y317379D01*
X178782Y315246D01*
X173115Y309579D01*
X170982Y311712D01*
G37*
G36*
X185135Y309579D02*
X179468Y315246D01*
X181601Y317379D01*
X187268Y311712D01*
X185135Y309579D01*
G37*
G36*
X187963Y312408D02*
X182296Y318075D01*
X184429Y320208D01*
X190096Y314541D01*
X187963Y312408D01*
G37*
G36*
X190791Y315236D02*
X185124Y320903D01*
X187257Y323036D01*
X192924Y317369D01*
X190791Y315236D01*
G37*
G36*
X193620Y318065D02*
X187953Y323732D01*
X190086Y325865D01*
X195753Y320198D01*
X193620Y318065D01*
G37*
G36*
X196448Y320893D02*
X190781Y326560D01*
X192914Y328693D01*
X198581Y323026D01*
X196448Y320893D01*
G37*
G36*
X199277Y323722D02*
X193610Y329389D01*
X195743Y331522D01*
X201410Y325855D01*
X199277Y323722D01*
G37*
G36*
X202105Y326550D02*
X196438Y332217D01*
X198571Y334350D01*
X204238Y328683D01*
X202105Y326550D01*
G37*
G36*
X204934Y329378D02*
X199267Y335045D01*
X201400Y337178D01*
X207067Y331511D01*
X204934Y329378D01*
G37*
G36*
X207762Y332207D02*
X202095Y337874D01*
X204228Y340007D01*
X209895Y334340D01*
X207762Y332207D01*
G37*
G36*
X210590Y335035D02*
X204923Y340702D01*
X207056Y342835D01*
X212723Y337168D01*
X210590Y335035D01*
G37*
G36*
X213419Y337864D02*
X207752Y343531D01*
X209885Y345664D01*
X215552Y339997D01*
X213419Y337864D01*
G37*
G36*
X216247Y340692D02*
X210580Y346359D01*
X212713Y348492D01*
X218380Y342825D01*
X216247Y340692D01*
G37*
G36*
X219076Y343521D02*
X213409Y349188D01*
X215542Y351321D01*
X221209Y345654D01*
X219076Y343521D01*
G37*
G36*
X221904Y346349D02*
X216237Y352016D01*
X218370Y354149D01*
X224037Y348482D01*
X221904Y346349D01*
G37*
G36*
X224733Y349177D02*
X219066Y354844D01*
X221199Y356977D01*
X226866Y351310D01*
X224733Y349177D01*
G37*
D17*
X278540Y399840D03*
X261540Y399840D03*
X278540Y390840D03*
X278540Y382840D03*
X278540Y373840D03*
X261540Y373840D03*
X261540Y390840D03*
X261540Y382840D03*
D18*
X209180Y413935D03*
X192180Y413935D03*
D19*
X9750Y246500D03*
X20250Y246500D03*
X20250Y266500D03*
X9750Y266500D03*
X39750Y246500D03*
X50250Y246500D03*
X50250Y266500D03*
X39750Y266500D03*
X69750Y246500D03*
X80250Y246500D03*
X80250Y266500D03*
X69750Y266500D03*
X99750Y246500D03*
X110250Y246500D03*
X110250Y266500D03*
X99750Y266500D03*
X129750Y246500D03*
X140250Y246500D03*
X140250Y266500D03*
X129750Y266500D03*
X159750Y246500D03*
X170250Y246500D03*
X170250Y266500D03*
X159750Y266500D03*
X189750Y246500D03*
X200250Y246500D03*
X200250Y266500D03*
X189750Y266500D03*
X219750Y246500D03*
X230250Y246500D03*
X230250Y266500D03*
X219750Y266500D03*
X249750Y246500D03*
X260250Y246500D03*
X260250Y266500D03*
X249750Y266500D03*
X279750Y246500D03*
X290250Y246500D03*
X290250Y266500D03*
X279750Y266500D03*
X309750Y246500D03*
X320250Y246500D03*
X320250Y266500D03*
X309750Y266500D03*
X339750Y246500D03*
X350250Y246500D03*
X350250Y266500D03*
X339750Y266500D03*
X369750Y246500D03*
X380250Y246500D03*
X380250Y266500D03*
X369750Y266500D03*
X9750Y216500D03*
X20250Y216500D03*
X20250Y236500D03*
X9750Y236500D03*
X39750Y216500D03*
X50250Y216500D03*
X50250Y236500D03*
X39750Y236500D03*
X69750Y216500D03*
X80250Y216500D03*
X80250Y236500D03*
X69750Y236500D03*
X99750Y216500D03*
X110250Y216500D03*
X110250Y236500D03*
X99750Y236500D03*
X129750Y216500D03*
X140250Y216500D03*
X140250Y236500D03*
X129750Y236500D03*
X159750Y216500D03*
X170250Y216500D03*
X170250Y236500D03*
X159750Y236500D03*
X189750Y216500D03*
X200250Y216500D03*
X200250Y236500D03*
X189750Y236500D03*
X219750Y216500D03*
X230250Y216500D03*
X230250Y236500D03*
X219750Y236500D03*
X249750Y216500D03*
X260250Y216500D03*
X260250Y236500D03*
X249750Y236500D03*
X279750Y216500D03*
X290250Y216500D03*
X290250Y236500D03*
X279750Y236500D03*
X309750Y216500D03*
X320250Y216500D03*
X320250Y236500D03*
X309750Y236500D03*
X339750Y216500D03*
X350250Y216500D03*
X350250Y236500D03*
X339750Y236500D03*
X369750Y216500D03*
X380250Y216500D03*
X380250Y236500D03*
X369750Y236500D03*
X9750Y186500D03*
X20250Y186500D03*
X20250Y206500D03*
X9750Y206500D03*
X39750Y186500D03*
X50250Y186500D03*
X50250Y206500D03*
X39750Y206500D03*
X69750Y186500D03*
X80250Y186500D03*
X80250Y206500D03*
X69750Y206500D03*
X99750Y186500D03*
X110250Y186500D03*
X110250Y206500D03*
X99750Y206500D03*
X129750Y186500D03*
X140250Y186500D03*
X140250Y206500D03*
X129750Y206500D03*
X159750Y186500D03*
X170250Y186500D03*
X170250Y206500D03*
X159750Y206500D03*
X189750Y186500D03*
X200250Y186500D03*
X200250Y206500D03*
X189750Y206500D03*
X219750Y186500D03*
X230250Y186500D03*
X230250Y206500D03*
X219750Y206500D03*
X249750Y186500D03*
X260250Y186500D03*
X260250Y206500D03*
X249750Y206500D03*
X279750Y186500D03*
X290250Y186500D03*
X290250Y206500D03*
X279750Y206500D03*
X309750Y186500D03*
X320250Y186500D03*
X320250Y206500D03*
X309750Y206500D03*
X339750Y186500D03*
X350250Y186500D03*
X350250Y206500D03*
X339750Y206500D03*
X369750Y186500D03*
X380250Y186500D03*
X380250Y206500D03*
X369750Y206500D03*
X9750Y156500D03*
X20250Y156500D03*
X20250Y176500D03*
X9750Y176500D03*
X39750Y156500D03*
X50250Y156500D03*
X50250Y176500D03*
X39750Y176500D03*
X69750Y156500D03*
X80250Y156500D03*
X80250Y176500D03*
X69750Y176500D03*
X99750Y156500D03*
X110250Y156500D03*
X110250Y176500D03*
X99750Y176500D03*
X129750Y156500D03*
X140250Y156500D03*
X140250Y176500D03*
X129750Y176500D03*
X159750Y156500D03*
X170250Y156500D03*
X170250Y176500D03*
X159750Y176500D03*
X189750Y156500D03*
X200250Y156500D03*
X200250Y176500D03*
X189750Y176500D03*
X219750Y156500D03*
X230250Y156500D03*
X230250Y176500D03*
X219750Y176500D03*
X249750Y156500D03*
X260250Y156500D03*
X260250Y176500D03*
X249750Y176500D03*
X279750Y156500D03*
X290250Y156500D03*
X290250Y176500D03*
X279750Y176500D03*
X309750Y156500D03*
X320250Y156500D03*
X320250Y176500D03*
X309750Y176500D03*
X339750Y156500D03*
X350250Y156500D03*
X350250Y176500D03*
X339750Y176500D03*
X369750Y156500D03*
X380250Y156500D03*
X380250Y176500D03*
X369750Y176500D03*
X9750Y126500D03*
X20250Y126500D03*
X20250Y146500D03*
X9750Y146500D03*
X39750Y126500D03*
X50250Y126500D03*
X50250Y146500D03*
X39750Y146500D03*
X69750Y126500D03*
X80250Y126500D03*
X80250Y146500D03*
X69750Y146500D03*
X99750Y126500D03*
X110250Y126500D03*
X110250Y146500D03*
X99750Y146500D03*
X129750Y126500D03*
X140250Y126500D03*
X140250Y146500D03*
X129750Y146500D03*
X159750Y126500D03*
X170250Y126500D03*
X170250Y146500D03*
X159750Y146500D03*
X189750Y126500D03*
X200250Y126500D03*
X200250Y146500D03*
X189750Y146500D03*
X219750Y126500D03*
X230250Y126500D03*
X230250Y146500D03*
X219750Y146500D03*
X249750Y126500D03*
X260250Y126500D03*
X260250Y146500D03*
X249750Y146500D03*
X279750Y126500D03*
X290250Y126500D03*
X290250Y146500D03*
X279750Y146500D03*
X309750Y126500D03*
X320250Y126500D03*
X320250Y146500D03*
X309750Y146500D03*
X339750Y126500D03*
X350250Y126500D03*
X350250Y146500D03*
X339750Y146500D03*
X369750Y126500D03*
X380250Y126500D03*
X380250Y146500D03*
X369750Y146500D03*
X9750Y96500D03*
X20250Y96500D03*
X20250Y116500D03*
X9750Y116500D03*
X39750Y96500D03*
X50250Y96500D03*
X50250Y116500D03*
X39750Y116500D03*
X69750Y96500D03*
X80250Y96500D03*
X80250Y116500D03*
X69750Y116500D03*
X99750Y96500D03*
X110250Y96500D03*
X110250Y116500D03*
X99750Y116500D03*
X129750Y96500D03*
X140250Y96500D03*
X140250Y116500D03*
X129750Y116500D03*
X159750Y96500D03*
X170250Y96500D03*
X170250Y116500D03*
X159750Y116500D03*
X189750Y96500D03*
X200250Y96500D03*
X200250Y116500D03*
X189750Y116500D03*
X219750Y96500D03*
X230250Y96500D03*
X230250Y116500D03*
X219750Y116500D03*
X249750Y96500D03*
X260250Y96500D03*
X260250Y116500D03*
X249750Y116500D03*
X279750Y96500D03*
X290250Y96500D03*
X290250Y116500D03*
X279750Y116500D03*
X309750Y96500D03*
X320250Y96500D03*
X320250Y116500D03*
X309750Y116500D03*
X339750Y96500D03*
X350250Y96500D03*
X350250Y116500D03*
X339750Y116500D03*
X369750Y96500D03*
X380250Y96500D03*
X380250Y116500D03*
X369750Y116500D03*
X9750Y66500D03*
X20250Y66500D03*
X20250Y86500D03*
X9750Y86500D03*
X39750Y66500D03*
X50250Y66500D03*
X50250Y86500D03*
X39750Y86500D03*
X69750Y66500D03*
X80250Y66500D03*
X80250Y86500D03*
X69750Y86500D03*
X99750Y66500D03*
X110250Y66500D03*
X110250Y86500D03*
X99750Y86500D03*
X129750Y66500D03*
X140250Y66500D03*
X140250Y86500D03*
X129750Y86500D03*
X159750Y66500D03*
X170250Y66500D03*
X170250Y86500D03*
X159750Y86500D03*
X189750Y66500D03*
X200250Y66500D03*
X200250Y86500D03*
X189750Y86500D03*
X219750Y66500D03*
X230250Y66500D03*
X230250Y86500D03*
X219750Y86500D03*
X249750Y66500D03*
X260250Y66500D03*
X260250Y86500D03*
X249750Y86500D03*
X279750Y66500D03*
X290250Y66500D03*
X290250Y86500D03*
X279750Y86500D03*
X309750Y66500D03*
X320250Y66500D03*
X320250Y86500D03*
X309750Y86500D03*
X339750Y66500D03*
X350250Y66500D03*
X350250Y86500D03*
X339750Y86500D03*
X369750Y66500D03*
X380250Y66500D03*
X380250Y86500D03*
X369750Y86500D03*
X9750Y36500D03*
X20250Y36500D03*
X20250Y56500D03*
X9750Y56500D03*
X39750Y36500D03*
X50250Y36500D03*
X50250Y56500D03*
X39750Y56500D03*
X69750Y36500D03*
X80250Y36500D03*
X80250Y56500D03*
X69750Y56500D03*
X99750Y36500D03*
X110250Y36500D03*
X110250Y56500D03*
X99750Y56500D03*
X129750Y36500D03*
X140250Y36500D03*
X140250Y56500D03*
X129750Y56500D03*
X159750Y36500D03*
X170250Y36500D03*
X170250Y56500D03*
X159750Y56500D03*
X189750Y36500D03*
X200250Y36500D03*
X200250Y56500D03*
X189750Y56500D03*
X219750Y36500D03*
X230250Y36500D03*
X230250Y56500D03*
X219750Y56500D03*
X249750Y36500D03*
X260250Y36500D03*
X260250Y56500D03*
X249750Y56500D03*
X279750Y36500D03*
X290250Y36500D03*
X290250Y56500D03*
X279750Y56500D03*
X309750Y36500D03*
X320250Y36500D03*
X320250Y56500D03*
X309750Y56500D03*
X339750Y36500D03*
X350250Y36500D03*
X350250Y56500D03*
X339750Y56500D03*
X369750Y36500D03*
X380250Y36500D03*
X380250Y56500D03*
X369750Y56500D03*
X9750Y6500D03*
X20250Y6500D03*
X20250Y26500D03*
X9750Y26500D03*
X39750Y6500D03*
X50250Y6500D03*
X50250Y26500D03*
X39750Y26500D03*
X69750Y6500D03*
X80250Y6500D03*
X80250Y26500D03*
X69750Y26500D03*
X99750Y6500D03*
X110250Y6500D03*
X110250Y26500D03*
X99750Y26500D03*
X129750Y6500D03*
X140250Y6500D03*
X140250Y26500D03*
X129750Y26500D03*
X159750Y6500D03*
X170250Y6500D03*
X170250Y26500D03*
X159750Y26500D03*
X189750Y6500D03*
X200250Y6500D03*
X200250Y26500D03*
X189750Y26500D03*
X219750Y6500D03*
X230250Y6500D03*
X230250Y26500D03*
X219750Y26500D03*
X249750Y6500D03*
X260250Y6500D03*
X260250Y26500D03*
X249750Y26500D03*
X279750Y6500D03*
X290250Y6500D03*
X290250Y26500D03*
X279750Y26500D03*
X309750Y6500D03*
X320250Y6500D03*
X320250Y26500D03*
X309750Y26500D03*
X339750Y6500D03*
X350250Y6500D03*
X350250Y26500D03*
X339750Y26500D03*
X369750Y6500D03*
X380250Y6500D03*
X380250Y26500D03*
X369750Y26500D03*
D20*
X45070Y279490D03*
X45070Y296490D03*
X36070Y279490D03*
X28070Y279490D03*
X19070Y279490D03*
X19070Y296490D03*
X36070Y296490D03*
X28070Y296490D03*
X96425Y278220D03*
X96425Y295220D03*
X87425Y278220D03*
X79425Y278220D03*
X70425Y278220D03*
X70425Y295220D03*
X87425Y295220D03*
X79425Y295220D03*
X161195Y278220D03*
X161195Y295220D03*
X152195Y278220D03*
X144195Y278220D03*
X135195Y278220D03*
X135195Y295220D03*
X152195Y295220D03*
X144195Y295220D03*
X231045Y276950D03*
X231045Y293950D03*
X222045Y276950D03*
X214045Y276950D03*
X205045Y276950D03*
X205045Y293950D03*
X222045Y293950D03*
X214045Y293950D03*
X295180Y279490D03*
X295180Y296490D03*
X286180Y279490D03*
X278180Y279490D03*
X269180Y279490D03*
X269180Y296490D03*
X286180Y296490D03*
X278180Y296490D03*
X360585Y281395D03*
X360585Y298395D03*
X351585Y281395D03*
X343585Y281395D03*
X334585Y281395D03*
X334585Y298395D03*
X351585Y298395D03*
X343585Y298395D03*
D18*
G36*
X53826Y337535D02*
X62145Y345854D01*
X69934Y338065D01*
X61615Y329746D01*
X53826Y337535D01*
G37*
G36*
X41806Y325515D02*
X50125Y333834D01*
X57914Y326045D01*
X49595Y317726D01*
X41806Y325515D01*
G37*
D21*
X58025Y295220D03*
X58025Y278220D03*
D18*
G36*
X90971Y329476D02*
X99290Y337795D01*
X107079Y330006D01*
X98760Y321687D01*
X90971Y329476D01*
G37*
G36*
X78950Y317455D02*
X87269Y325774D01*
X95058Y317985D01*
X86739Y309666D01*
X78950Y317455D01*
G37*
D21*
X109460Y299030D03*
X109460Y282030D03*
X122160Y302840D03*
X122160Y285840D03*
X173595Y295220D03*
X173595Y278220D03*
X243445Y296490D03*
X243445Y279490D03*
X187883Y295165D03*
X187883Y278165D03*
X256780Y308555D03*
X256780Y291555D03*
X308215Y296490D03*
X308215Y279490D03*
X321550Y307920D03*
X321550Y290920D03*
D18*
X307522Y334250D03*
X324522Y334250D03*
X293365Y365460D03*
X310365Y365460D03*
D21*
X378065Y297760D03*
X378065Y280760D03*
D18*
X299140Y349490D03*
X316140Y349490D03*
D22*
X327500Y404860D03*
X317500Y404860D03*
X337500Y404860D03*
X307500Y404860D03*
D23*
X350500Y443860D03*
X294500Y443860D03*
D22*
X72500Y404860D03*
X62500Y404860D03*
X82500Y404860D03*
X52500Y404860D03*
D23*
X95500Y443860D03*
X39500Y443860D03*
D18*
X28100Y414685D03*
X11100Y414685D03*
D10*
X354900Y394820D03*
X373900Y394820D03*
D18*
X361900Y414325D03*
X378900Y414325D03*
D11*
X25000Y-25000D03*
X365000Y-25000D03*
D12*
X379000Y324000D03*
D13*
X379000Y331500D02*
X378819Y331498D01*
X378638Y331491D01*
X378457Y331480D01*
X378276Y331465D01*
X378096Y331445D01*
X377916Y331421D01*
X377737Y331393D01*
X377559Y331360D01*
X377382Y331323D01*
X377205Y331282D01*
X377030Y331237D01*
X376855Y331187D01*
X376682Y331133D01*
X376511Y331075D01*
X376340Y331013D01*
X376172Y330946D01*
X376005Y330876D01*
X375839Y330802D01*
X375676Y330723D01*
X375515Y330641D01*
X375355Y330555D01*
X375198Y330465D01*
X375043Y330371D01*
X374890Y330274D01*
X374740Y330172D01*
X374592Y330068D01*
X374446Y329959D01*
X374304Y329848D01*
X374164Y329732D01*
X374027Y329614D01*
X373892Y329492D01*
X373761Y329367D01*
X373633Y329239D01*
X373508Y329108D01*
X373386Y328973D01*
X373268Y328836D01*
X373152Y328696D01*
X373041Y328554D01*
X372932Y328408D01*
X372828Y328260D01*
X372726Y328110D01*
X372629Y327957D01*
X372535Y327802D01*
X372445Y327645D01*
X372359Y327485D01*
X372277Y327324D01*
X372198Y327161D01*
X372124Y326995D01*
X372054Y326828D01*
X371987Y326660D01*
X371925Y326489D01*
X371867Y326318D01*
X371813Y326145D01*
X371763Y325970D01*
X371718Y325795D01*
X371677Y325618D01*
X371640Y325441D01*
X371607Y325263D01*
X371579Y325084D01*
X371555Y324904D01*
X371535Y324724D01*
X371520Y324543D01*
X371509Y324362D01*
X371502Y324181D01*
X371500Y324000D01*
X379000Y331500D02*
X379181Y331498D01*
X379362Y331491D01*
X379543Y331480D01*
X379724Y331465D01*
X379904Y331445D01*
X380084Y331421D01*
X380263Y331393D01*
X380441Y331360D01*
X380618Y331323D01*
X380795Y331282D01*
X380970Y331237D01*
X381145Y331187D01*
X381318Y331133D01*
X381489Y331075D01*
X381660Y331013D01*
X381828Y330946D01*
X381995Y330876D01*
X382161Y330802D01*
X382324Y330723D01*
X382485Y330641D01*
X382645Y330555D01*
X382802Y330465D01*
X382957Y330371D01*
X383110Y330274D01*
X383260Y330172D01*
X383408Y330068D01*
X383554Y329959D01*
X383696Y329848D01*
X383836Y329732D01*
X383973Y329614D01*
X384108Y329492D01*
X384239Y329367D01*
X384367Y329239D01*
X384492Y329108D01*
X384614Y328973D01*
X384732Y328836D01*
X384848Y328696D01*
X384959Y328554D01*
X385068Y328408D01*
X385172Y328260D01*
X385274Y328110D01*
X385371Y327957D01*
X385465Y327802D01*
X385555Y327645D01*
X385641Y327485D01*
X385723Y327324D01*
X385802Y327161D01*
X385876Y326995D01*
X385946Y326828D01*
X386013Y326660D01*
X386075Y326489D01*
X386133Y326318D01*
X386187Y326145D01*
X386237Y325970D01*
X386282Y325795D01*
X386323Y325618D01*
X386360Y325441D01*
X386393Y325263D01*
X386421Y325084D01*
X386445Y324904D01*
X386465Y324724D01*
X386480Y324543D01*
X386491Y324362D01*
X386498Y324181D01*
X386500Y324000D01*
X386498Y323819D01*
X386491Y323638D01*
X386480Y323457D01*
X386465Y323276D01*
X386445Y323096D01*
X386421Y322916D01*
X386393Y322737D01*
X386360Y322559D01*
X386323Y322382D01*
X386282Y322205D01*
X386237Y322030D01*
X386187Y321855D01*
X386133Y321682D01*
X386075Y321511D01*
X386013Y321340D01*
X385946Y321172D01*
X385876Y321005D01*
X385802Y320839D01*
X385723Y320676D01*
X385641Y320515D01*
X385555Y320355D01*
X385465Y320198D01*
X385371Y320043D01*
X385274Y319890D01*
X385172Y319740D01*
X385068Y319592D01*
X384959Y319446D01*
X384848Y319304D01*
X384732Y319164D01*
X384614Y319027D01*
X384492Y318892D01*
X384367Y318761D01*
X384239Y318633D01*
X384108Y318508D01*
X383973Y318386D01*
X383836Y318268D01*
X383696Y318152D01*
X383554Y318041D01*
X383408Y317932D01*
X383260Y317828D01*
X383110Y317726D01*
X382957Y317629D01*
X382802Y317535D01*
X382645Y317445D01*
X382485Y317359D01*
X382324Y317277D01*
X382161Y317198D01*
X381995Y317124D01*
X381828Y317054D01*
X381660Y316987D01*
X381489Y316925D01*
X381318Y316867D01*
X381145Y316813D01*
X380970Y316763D01*
X380795Y316718D01*
X380618Y316677D01*
X380441Y316640D01*
X380263Y316607D01*
X380084Y316579D01*
X379904Y316555D01*
X379724Y316535D01*
X379543Y316520D01*
X379362Y316509D01*
X379181Y316502D01*
X379000Y316500D01*
X378819Y316502D01*
X378638Y316509D01*
X378457Y316520D01*
X378276Y316535D01*
X378096Y316555D01*
X377916Y316579D01*
X377737Y316607D01*
X377559Y316640D01*
X377382Y316677D01*
X377205Y316718D01*
X377030Y316763D01*
X376855Y316813D01*
X376682Y316867D01*
X376511Y316925D01*
X376340Y316987D01*
X376172Y317054D01*
X376005Y317124D01*
X375839Y317198D01*
X375676Y317277D01*
X375515Y317359D01*
X375355Y317445D01*
X375198Y317535D01*
X375043Y317629D01*
X374890Y317726D01*
X374740Y317828D01*
X374592Y317932D01*
X374446Y318041D01*
X374304Y318152D01*
X374164Y318268D01*
X374027Y318386D01*
X373892Y318508D01*
X373761Y318633D01*
X373633Y318761D01*
X373508Y318892D01*
X373386Y319027D01*
X373268Y319164D01*
X373152Y319304D01*
X373041Y319446D01*
X372932Y319592D01*
X372828Y319740D01*
X372726Y319890D01*
X372629Y320043D01*
X372535Y320198D01*
X372445Y320355D01*
X372359Y320515D01*
X372277Y320676D01*
X372198Y320839D01*
X372124Y321005D01*
X372054Y321172D01*
X371987Y321340D01*
X371925Y321511D01*
X371867Y321682D01*
X371813Y321855D01*
X371763Y322030D01*
X371718Y322205D01*
X371677Y322382D01*
X371640Y322559D01*
X371607Y322737D01*
X371579Y322916D01*
X371555Y323096D01*
X371535Y323276D01*
X371520Y323457D01*
X371509Y323638D01*
X371502Y323819D01*
X371500Y324000D01*
M02*
