<?xml version="1.0" standalone="no"?>
 <!DOCTYPE svg PUBLIC "-//W3C//DTD SVG 1.1//EN" 
 "http://www.w3.org/Graphics/SVG/1.1/DTD/svg11.dtd"> 
<svg
  xmlns:svg="http://www.w3.org/2000/svg"
  xmlns="http://www.w3.org/2000/svg"
  xmlns:xlink="http://www.w3.org/1999/xlink"
  version="1.1"
  width="29.700220cm" height="21.000720cm" viewBox="0 0 297002200 210007200">
<title>SVG Picture created as boardKicad-User_Comments.svg date 2022/08/21 17:08:58 </title>
  <desc>Picture generated by PCBNEW </desc>
<g style="fill:#000000; fill-opacity:1.000000;stroke:#000000; stroke-opacity:1.000000;
stroke-linecap:round; stroke-linejoin:round;"
 transform="translate(0 0) scale(1 1)">
</g>
<g style="fill:#000000; fill-opacity:0.0; 
stroke:#000000; stroke-width:0.000000; stroke-opacity:1; 
stroke-linecap:round; stroke-linejoin:round;">
</g>
<g style="fill:#000000; fill-opacity:0.0; 
stroke:#000000; stroke-width:21200.000000; stroke-opacity:1; 
stroke-linecap:round; stroke-linejoin:round;">
</g>
<g style="fill:#000000; fill-opacity:0.0; 
stroke:#000000; stroke-width:150000.000000; stroke-opacity:1; 
stroke-linecap:round; stroke-linejoin:round;">
<rect x="177002200.000000" y="166007200.000000" width="108000000.000000" height="32000000.000000" rx="0.000000" />
</g>
<g style="fill:#000000; fill-opacity:0.0; 
stroke:#000000; stroke-width:21200.000000; stroke-opacity:1; 
stroke-linecap:round; stroke-linejoin:round;">
</g>
<g style="fill:#000000; fill-opacity:0.0; 
stroke:#000000; stroke-width:150000.000000; stroke-opacity:1; 
stroke-linecap:round; stroke-linejoin:round;">
<rect x="10000000.000000" y="10000000.000000" width="277002200.000000" height="190007200.000000" rx="0.000000" />
</g>
<g style="fill:#000000; fill-opacity:0.0; 
stroke:#000000; stroke-width:21200.000000; stroke-opacity:1; 
stroke-linecap:round; stroke-linejoin:round;">
</g>
<g style="fill:#000000; fill-opacity:0.0; 
stroke:#000000; stroke-width:150000.000000; stroke-opacity:1; 
stroke-linecap:round; stroke-linejoin:round;">
<rect x="12000000.000000" y="12000000.000000" width="273002200.000000" height="186007200.000000" rx="0.000000" />
</g>
<g style="fill:#000000; fill-opacity:0.0; 
stroke:#000000; stroke-width:21200.000000; stroke-opacity:1; 
stroke-linecap:round; stroke-linejoin:round;">
</g>
<g style="fill:#000000; fill-opacity:0.0; 
stroke:#000000; stroke-width:150000.000000; stroke-opacity:1; 
stroke-linecap:round; stroke-linejoin:round;">
<path d="M60000000 12000000
L60000000 10000000
" />
</g>
<g style="fill:#000000; fill-opacity:0.0; 
stroke:#000000; stroke-width:21200.000000; stroke-opacity:1; 
stroke-linecap:round; stroke-linejoin:round;">
</g>
<g style="fill:#000000; fill-opacity:0.0; 
stroke:#000000; stroke-width:150000.000000; stroke-opacity:1; 
stroke-linecap:round; stroke-linejoin:round;">
<path d="M110000000 12000000
L110000000 10000000
" />
</g>
<g style="fill:#000000; fill-opacity:0.0; 
stroke:#000000; stroke-width:21200.000000; stroke-opacity:1; 
stroke-linecap:round; stroke-linejoin:round;">
</g>
<g style="fill:#000000; fill-opacity:0.0; 
stroke:#000000; stroke-width:150000.000000; stroke-opacity:1; 
stroke-linecap:round; stroke-linejoin:round;">
<path d="M160000000 12000000
L160000000 10000000
" />
</g>
<g style="fill:#000000; fill-opacity:0.0; 
stroke:#000000; stroke-width:21200.000000; stroke-opacity:1; 
stroke-linecap:round; stroke-linejoin:round;">
</g>
<g style="fill:#000000; fill-opacity:0.0; 
stroke:#000000; stroke-width:150000.000000; stroke-opacity:1; 
stroke-linecap:round; stroke-linejoin:round;">
<path d="M210000000 12000000
L210000000 10000000
" />
</g>
<g style="fill:#000000; fill-opacity:0.0; 
stroke:#000000; stroke-width:21200.000000; stroke-opacity:1; 
stroke-linecap:round; stroke-linejoin:round;">
</g>
<g style="fill:#000000; fill-opacity:0.0; 
stroke:#000000; stroke-width:150000.000000; stroke-opacity:1; 
stroke-linecap:round; stroke-linejoin:round;">
<path d="M260000000 12000000
L260000000 10000000
" />
</g>
<g style="fill:#000000; fill-opacity:0.0; 
stroke:#000000; stroke-width:21200.000000; stroke-opacity:1; 
stroke-linecap:round; stroke-linejoin:round;">
</g>
<g style="fill:#000000; fill-opacity:0.0; 
stroke:#000000; stroke-width:150000.000000; stroke-opacity:1; 
stroke-linecap:round; stroke-linejoin:round;">
<text x="35000000.000000" y="11650000.000000"
textLength="1388095.000000" font-size="1733333.000000" lengthAdjust="spacingAndGlyphs"
text-anchor="start" opacity="0">1</text>
<g class="stroked-text"><desc>1</desc>
<path d="M36065476 11588095
L35322619 11588095
" />
<path d="M35694047 11588095
L35694047 10288095
L35570238 10473809
L35446428 10597619
L35322619 10659523
" />
</g></g>
<g style="fill:#000000; fill-opacity:0.0; 
stroke:#000000; stroke-width:21200.000000; stroke-opacity:1; 
stroke-linecap:round; stroke-linejoin:round;">
</g>
<g style="fill:#000000; fill-opacity:0.0; 
stroke:#000000; stroke-width:150000.000000; stroke-opacity:1; 
stroke-linecap:round; stroke-linejoin:round;">
<text x="85000000.000000" y="11650000.000000"
textLength="1388095.000000" font-size="1733333.000000" lengthAdjust="spacingAndGlyphs"
text-anchor="start" opacity="0">2</text>
<g class="stroked-text"><desc>2</desc>
<path d="M85322619 10411904
L85384523 10350000
L85508333 10288095
L85817857 10288095
L85941666 10350000
L86003571 10411904
L86065476 10535714
L86065476 10659523
L86003571 10845238
L85260714 11588095
L86065476 11588095
" />
</g></g>
<g style="fill:#000000; fill-opacity:0.0; 
stroke:#000000; stroke-width:21200.000000; stroke-opacity:1; 
stroke-linecap:round; stroke-linejoin:round;">
</g>
<g style="fill:#000000; fill-opacity:0.0; 
stroke:#000000; stroke-width:150000.000000; stroke-opacity:1; 
stroke-linecap:round; stroke-linejoin:round;">
<text x="135000000.000000" y="11650000.000000"
textLength="1388095.000000" font-size="1733333.000000" lengthAdjust="spacingAndGlyphs"
text-anchor="start" opacity="0">3</text>
<g class="stroked-text"><desc>3</desc>
<path d="M135260714 10288095
L136065476 10288095
L135632142 10783333
L135817857 10783333
L135941666 10845238
L136003571 10907142
L136065476 11030952
L136065476 11340476
L136003571 11464285
L135941666 11526190
L135817857 11588095
L135446428 11588095
L135322619 11526190
L135260714 11464285
" />
</g></g>
<g style="fill:#000000; fill-opacity:0.0; 
stroke:#000000; stroke-width:21200.000000; stroke-opacity:1; 
stroke-linecap:round; stroke-linejoin:round;">
</g>
<g style="fill:#000000; fill-opacity:0.0; 
stroke:#000000; stroke-width:150000.000000; stroke-opacity:1; 
stroke-linecap:round; stroke-linejoin:round;">
<text x="185000000.000000" y="11650000.000000"
textLength="1388095.000000" font-size="1733333.000000" lengthAdjust="spacingAndGlyphs"
text-anchor="start" opacity="0">4</text>
<g class="stroked-text"><desc>4</desc>
<path d="M185941666 10721428
L185941666 11588095
" />
<path d="M185632142 10226190
L185322619 11154761
L186127380 11154761
" />
</g></g>
<g style="fill:#000000; fill-opacity:0.0; 
stroke:#000000; stroke-width:21200.000000; stroke-opacity:1; 
stroke-linecap:round; stroke-linejoin:round;">
</g>
<g style="fill:#000000; fill-opacity:0.0; 
stroke:#000000; stroke-width:150000.000000; stroke-opacity:1; 
stroke-linecap:round; stroke-linejoin:round;">
<text x="235000000.000000" y="11650000.000000"
textLength="1388095.000000" font-size="1733333.000000" lengthAdjust="spacingAndGlyphs"
text-anchor="start" opacity="0">5</text>
<g class="stroked-text"><desc>5</desc>
<path d="M236003571 10288095
L235384523 10288095
L235322619 10907142
L235384523 10845238
L235508333 10783333
L235817857 10783333
L235941666 10845238
L236003571 10907142
L236065476 11030952
L236065476 11340476
L236003571 11464285
L235941666 11526190
L235817857 11588095
L235508333 11588095
L235384523 11526190
L235322619 11464285
" />
</g></g>
<g style="fill:#000000; fill-opacity:0.0; 
stroke:#000000; stroke-width:21200.000000; stroke-opacity:1; 
stroke-linecap:round; stroke-linejoin:round;">
</g>
<g style="fill:#000000; fill-opacity:0.0; 
stroke:#000000; stroke-width:150000.000000; stroke-opacity:1; 
stroke-linecap:round; stroke-linejoin:round;">
<text x="285000000.000000" y="11650000.000000"
textLength="1388095.000000" font-size="1733333.000000" lengthAdjust="spacingAndGlyphs"
text-anchor="start" opacity="0">6</text>
<g class="stroked-text"><desc>6</desc>
<path d="M285941666 10288095
L285694047 10288095
L285570238 10350000
L285508333 10411904
L285384523 10597619
L285322619 10845238
L285322619 11340476
L285384523 11464285
L285446428 11526190
L285570238 11588095
L285817857 11588095
L285941666 11526190
L286003571 11464285
L286065476 11340476
L286065476 11030952
L286003571 10907142
L285941666 10845238
L285817857 10783333
L285570238 10783333
L285446428 10845238
L285384523 10907142
L285322619 11030952
" />
</g></g>
<g style="fill:#000000; fill-opacity:0.0; 
stroke:#000000; stroke-width:21200.000000; stroke-opacity:1; 
stroke-linecap:round; stroke-linejoin:round;">
</g>
<g style="fill:#000000; fill-opacity:0.0; 
stroke:#000000; stroke-width:150000.000000; stroke-opacity:1; 
stroke-linecap:round; stroke-linejoin:round;">
<path d="M60000000 198007200
L60000000 200007200
" />
</g>
<g style="fill:#000000; fill-opacity:0.0; 
stroke:#000000; stroke-width:21200.000000; stroke-opacity:1; 
stroke-linecap:round; stroke-linejoin:round;">
</g>
<g style="fill:#000000; fill-opacity:0.0; 
stroke:#000000; stroke-width:150000.000000; stroke-opacity:1; 
stroke-linecap:round; stroke-linejoin:round;">
<path d="M110000000 198007200
L110000000 200007200
" />
</g>
<g style="fill:#000000; fill-opacity:0.0; 
stroke:#000000; stroke-width:21200.000000; stroke-opacity:1; 
stroke-linecap:round; stroke-linejoin:round;">
</g>
<g style="fill:#000000; fill-opacity:0.0; 
stroke:#000000; stroke-width:150000.000000; stroke-opacity:1; 
stroke-linecap:round; stroke-linejoin:round;">
<path d="M160000000 198007200
L160000000 200007200
" />
</g>
<g style="fill:#000000; fill-opacity:0.0; 
stroke:#000000; stroke-width:21200.000000; stroke-opacity:1; 
stroke-linecap:round; stroke-linejoin:round;">
</g>
<g style="fill:#000000; fill-opacity:0.0; 
stroke:#000000; stroke-width:150000.000000; stroke-opacity:1; 
stroke-linecap:round; stroke-linejoin:round;">
<path d="M210000000 198007200
L210000000 200007200
" />
</g>
<g style="fill:#000000; fill-opacity:0.0; 
stroke:#000000; stroke-width:21200.000000; stroke-opacity:1; 
stroke-linecap:round; stroke-linejoin:round;">
</g>
<g style="fill:#000000; fill-opacity:0.0; 
stroke:#000000; stroke-width:150000.000000; stroke-opacity:1; 
stroke-linecap:round; stroke-linejoin:round;">
<path d="M260000000 198007200
L260000000 200007200
" />
</g>
<g style="fill:#000000; fill-opacity:0.0; 
stroke:#000000; stroke-width:21200.000000; stroke-opacity:1; 
stroke-linecap:round; stroke-linejoin:round;">
</g>
<g style="fill:#000000; fill-opacity:0.0; 
stroke:#000000; stroke-width:150000.000000; stroke-opacity:1; 
stroke-linecap:round; stroke-linejoin:round;">
<text x="35000000.000000" y="199657200.000000"
textLength="1388095.000000" font-size="1733333.000000" lengthAdjust="spacingAndGlyphs"
text-anchor="start" opacity="0">1</text>
<g class="stroked-text"><desc>1</desc>
<path d="M36065476 199595295
L35322619 199595295
" />
<path d="M35694047 199595295
L35694047 198295295
L35570238 198481009
L35446428 198604819
L35322619 198666723
" />
</g></g>
<g style="fill:#000000; fill-opacity:0.0; 
stroke:#000000; stroke-width:21200.000000; stroke-opacity:1; 
stroke-linecap:round; stroke-linejoin:round;">
</g>
<g style="fill:#000000; fill-opacity:0.0; 
stroke:#000000; stroke-width:150000.000000; stroke-opacity:1; 
stroke-linecap:round; stroke-linejoin:round;">
<text x="85000000.000000" y="199657200.000000"
textLength="1388095.000000" font-size="1733333.000000" lengthAdjust="spacingAndGlyphs"
text-anchor="start" opacity="0">2</text>
<g class="stroked-text"><desc>2</desc>
<path d="M85322619 198419104
L85384523 198357200
L85508333 198295295
L85817857 198295295
L85941666 198357200
L86003571 198419104
L86065476 198542914
L86065476 198666723
L86003571 198852438
L85260714 199595295
L86065476 199595295
" />
</g></g>
<g style="fill:#000000; fill-opacity:0.0; 
stroke:#000000; stroke-width:21200.000000; stroke-opacity:1; 
stroke-linecap:round; stroke-linejoin:round;">
</g>
<g style="fill:#000000; fill-opacity:0.0; 
stroke:#000000; stroke-width:150000.000000; stroke-opacity:1; 
stroke-linecap:round; stroke-linejoin:round;">
<text x="135000000.000000" y="199657200.000000"
textLength="1388095.000000" font-size="1733333.000000" lengthAdjust="spacingAndGlyphs"
text-anchor="start" opacity="0">3</text>
<g class="stroked-text"><desc>3</desc>
<path d="M135260714 198295295
L136065476 198295295
L135632142 198790533
L135817857 198790533
L135941666 198852438
L136003571 198914342
L136065476 199038152
L136065476 199347676
L136003571 199471485
L135941666 199533390
L135817857 199595295
L135446428 199595295
L135322619 199533390
L135260714 199471485
" />
</g></g>
<g style="fill:#000000; fill-opacity:0.0; 
stroke:#000000; stroke-width:21200.000000; stroke-opacity:1; 
stroke-linecap:round; stroke-linejoin:round;">
</g>
<g style="fill:#000000; fill-opacity:0.0; 
stroke:#000000; stroke-width:150000.000000; stroke-opacity:1; 
stroke-linecap:round; stroke-linejoin:round;">
<text x="185000000.000000" y="199657200.000000"
textLength="1388095.000000" font-size="1733333.000000" lengthAdjust="spacingAndGlyphs"
text-anchor="start" opacity="0">4</text>
<g class="stroked-text"><desc>4</desc>
<path d="M185941666 198728628
L185941666 199595295
" />
<path d="M185632142 198233390
L185322619 199161961
L186127380 199161961
" />
</g></g>
<g style="fill:#000000; fill-opacity:0.0; 
stroke:#000000; stroke-width:21200.000000; stroke-opacity:1; 
stroke-linecap:round; stroke-linejoin:round;">
</g>
<g style="fill:#000000; fill-opacity:0.0; 
stroke:#000000; stroke-width:150000.000000; stroke-opacity:1; 
stroke-linecap:round; stroke-linejoin:round;">
<text x="235000000.000000" y="199657200.000000"
textLength="1388095.000000" font-size="1733333.000000" lengthAdjust="spacingAndGlyphs"
text-anchor="start" opacity="0">5</text>
<g class="stroked-text"><desc>5</desc>
<path d="M236003571 198295295
L235384523 198295295
L235322619 198914342
L235384523 198852438
L235508333 198790533
L235817857 198790533
L235941666 198852438
L236003571 198914342
L236065476 199038152
L236065476 199347676
L236003571 199471485
L235941666 199533390
L235817857 199595295
L235508333 199595295
L235384523 199533390
L235322619 199471485
" />
</g></g>
<g style="fill:#000000; fill-opacity:0.0; 
stroke:#000000; stroke-width:21200.000000; stroke-opacity:1; 
stroke-linecap:round; stroke-linejoin:round;">
</g>
<g style="fill:#000000; fill-opacity:0.0; 
stroke:#000000; stroke-width:150000.000000; stroke-opacity:1; 
stroke-linecap:round; stroke-linejoin:round;">
<text x="285000000.000000" y="199657200.000000"
textLength="1388095.000000" font-size="1733333.000000" lengthAdjust="spacingAndGlyphs"
text-anchor="start" opacity="0">6</text>
<g class="stroked-text"><desc>6</desc>
<path d="M285941666 198295295
L285694047 198295295
L285570238 198357200
L285508333 198419104
L285384523 198604819
L285322619 198852438
L285322619 199347676
L285384523 199471485
L285446428 199533390
L285570238 199595295
L285817857 199595295
L285941666 199533390
L286003571 199471485
L286065476 199347676
L286065476 199038152
L286003571 198914342
L285941666 198852438
L285817857 198790533
L285570238 198790533
L285446428 198852438
L285384523 198914342
L285322619 199038152
" />
</g></g>
<g style="fill:#000000; fill-opacity:0.0; 
stroke:#000000; stroke-width:21200.000000; stroke-opacity:1; 
stroke-linecap:round; stroke-linejoin:round;">
</g>
<g style="fill:#000000; fill-opacity:0.0; 
stroke:#000000; stroke-width:150000.000000; stroke-opacity:1; 
stroke-linecap:round; stroke-linejoin:round;">
<path d="M10000000 60000000
L12000000 60000000
" />
</g>
<g style="fill:#000000; fill-opacity:0.0; 
stroke:#000000; stroke-width:21200.000000; stroke-opacity:1; 
stroke-linecap:round; stroke-linejoin:round;">
</g>
<g style="fill:#000000; fill-opacity:0.0; 
stroke:#000000; stroke-width:150000.000000; stroke-opacity:1; 
stroke-linecap:round; stroke-linejoin:round;">
<path d="M10000000 110000000
L12000000 110000000
" />
</g>
<g style="fill:#000000; fill-opacity:0.0; 
stroke:#000000; stroke-width:21200.000000; stroke-opacity:1; 
stroke-linecap:round; stroke-linejoin:round;">
</g>
<g style="fill:#000000; fill-opacity:0.0; 
stroke:#000000; stroke-width:150000.000000; stroke-opacity:1; 
stroke-linecap:round; stroke-linejoin:round;">
<path d="M10000000 160000000
L12000000 160000000
" />
</g>
<g style="fill:#000000; fill-opacity:0.0; 
stroke:#000000; stroke-width:21200.000000; stroke-opacity:1; 
stroke-linecap:round; stroke-linejoin:round;">
</g>
<g style="fill:#000000; fill-opacity:0.0; 
stroke:#000000; stroke-width:150000.000000; stroke-opacity:1; 
stroke-linecap:round; stroke-linejoin:round;">
<text x="11000000.000000" y="35650000.000000"
textLength="1264286.000000" font-size="1733333.000000" lengthAdjust="spacingAndGlyphs"
text-anchor="middle" opacity="0">A</text>
<g class="stroked-text"><desc>A</desc>
<path d="M10690476 35216666
L11309523 35216666
" />
<path d="M10566666 35588095
L11000000 34288095
L11433333 35588095
" />
</g></g>
<g style="fill:#000000; fill-opacity:0.0; 
stroke:#000000; stroke-width:21200.000000; stroke-opacity:1; 
stroke-linecap:round; stroke-linejoin:round;">
</g>
<g style="fill:#000000; fill-opacity:0.0; 
stroke:#000000; stroke-width:150000.000000; stroke-opacity:1; 
stroke-linecap:round; stroke-linejoin:round;">
<text x="11000000.000000" y="85650000.000000"
textLength="1450000.000000" font-size="1733333.000000" lengthAdjust="spacingAndGlyphs"
text-anchor="middle" opacity="0">B</text>
<g class="stroked-text"><desc>B</desc>
<path d="M11092857 84907142
L11278571 84969047
L11340476 85030952
L11402380 85154761
L11402380 85340476
L11340476 85464285
L11278571 85526190
L11154761 85588095
L10659523 85588095
L10659523 84288095
L11092857 84288095
L11216666 84350000
L11278571 84411904
L11340476 84535714
L11340476 84659523
L11278571 84783333
L11216666 84845238
L11092857 84907142
L10659523 84907142
" />
</g></g>
<g style="fill:#000000; fill-opacity:0.0; 
stroke:#000000; stroke-width:21200.000000; stroke-opacity:1; 
stroke-linecap:round; stroke-linejoin:round;">
</g>
<g style="fill:#000000; fill-opacity:0.0; 
stroke:#000000; stroke-width:150000.000000; stroke-opacity:1; 
stroke-linecap:round; stroke-linejoin:round;">
<text x="11000000.000000" y="135650000.000000"
textLength="1450000.000000" font-size="1733333.000000" lengthAdjust="spacingAndGlyphs"
text-anchor="middle" opacity="0">C</text>
<g class="stroked-text"><desc>C</desc>
<path d="M11402380 135464285
L11340476 135526190
L11154761 135588095
L11030952 135588095
L10845238 135526190
L10721428 135402380
L10659523 135278571
L10597619 135030952
L10597619 134845238
L10659523 134597619
L10721428 134473809
L10845238 134350000
L11030952 134288095
L11154761 134288095
L11340476 134350000
L11402380 134411904
" />
</g></g>
<g style="fill:#000000; fill-opacity:0.0; 
stroke:#000000; stroke-width:21200.000000; stroke-opacity:1; 
stroke-linecap:round; stroke-linejoin:round;">
</g>
<g style="fill:#000000; fill-opacity:0.0; 
stroke:#000000; stroke-width:150000.000000; stroke-opacity:1; 
stroke-linecap:round; stroke-linejoin:round;">
<text x="11000000.000000" y="185650000.000000"
textLength="1450000.000000" font-size="1733333.000000" lengthAdjust="spacingAndGlyphs"
text-anchor="middle" opacity="0">D</text>
<g class="stroked-text"><desc>D</desc>
<path d="M10659523 185588095
L10659523 184288095
L10969047 184288095
L11154761 184350000
L11278571 184473809
L11340476 184597619
L11402380 184845238
L11402380 185030952
L11340476 185278571
L11278571 185402380
L11154761 185526190
L10969047 185588095
L10659523 185588095
" />
</g></g>
<g style="fill:#000000; fill-opacity:0.0; 
stroke:#000000; stroke-width:21200.000000; stroke-opacity:1; 
stroke-linecap:round; stroke-linejoin:round;">
</g>
<g style="fill:#000000; fill-opacity:0.0; 
stroke:#000000; stroke-width:150000.000000; stroke-opacity:1; 
stroke-linecap:round; stroke-linejoin:round;">
<path d="M287002200 60000000
L285002200 60000000
" />
</g>
<g style="fill:#000000; fill-opacity:0.0; 
stroke:#000000; stroke-width:21200.000000; stroke-opacity:1; 
stroke-linecap:round; stroke-linejoin:round;">
</g>
<g style="fill:#000000; fill-opacity:0.0; 
stroke:#000000; stroke-width:150000.000000; stroke-opacity:1; 
stroke-linecap:round; stroke-linejoin:round;">
<path d="M287002200 110000000
L285002200 110000000
" />
</g>
<g style="fill:#000000; fill-opacity:0.0; 
stroke:#000000; stroke-width:21200.000000; stroke-opacity:1; 
stroke-linecap:round; stroke-linejoin:round;">
</g>
<g style="fill:#000000; fill-opacity:0.0; 
stroke:#000000; stroke-width:150000.000000; stroke-opacity:1; 
stroke-linecap:round; stroke-linejoin:round;">
<path d="M287002200 160000000
L285002200 160000000
" />
</g>
<g style="fill:#000000; fill-opacity:0.0; 
stroke:#000000; stroke-width:21200.000000; stroke-opacity:1; 
stroke-linecap:round; stroke-linejoin:round;">
</g>
<g style="fill:#000000; fill-opacity:0.0; 
stroke:#000000; stroke-width:150000.000000; stroke-opacity:1; 
stroke-linecap:round; stroke-linejoin:round;">
<text x="286002200.000000" y="35650000.000000"
textLength="1264286.000000" font-size="1733333.000000" lengthAdjust="spacingAndGlyphs"
text-anchor="middle" opacity="0">A</text>
<g class="stroked-text"><desc>A</desc>
<path d="M285692676 35216666
L286311723 35216666
" />
<path d="M285568866 35588095
L286002200 34288095
L286435533 35588095
" />
</g></g>
<g style="fill:#000000; fill-opacity:0.0; 
stroke:#000000; stroke-width:21200.000000; stroke-opacity:1; 
stroke-linecap:round; stroke-linejoin:round;">
</g>
<g style="fill:#000000; fill-opacity:0.0; 
stroke:#000000; stroke-width:150000.000000; stroke-opacity:1; 
stroke-linecap:round; stroke-linejoin:round;">
<text x="286002200.000000" y="85650000.000000"
textLength="1450000.000000" font-size="1733333.000000" lengthAdjust="spacingAndGlyphs"
text-anchor="middle" opacity="0">B</text>
<g class="stroked-text"><desc>B</desc>
<path d="M286095057 84907142
L286280771 84969047
L286342676 85030952
L286404580 85154761
L286404580 85340476
L286342676 85464285
L286280771 85526190
L286156961 85588095
L285661723 85588095
L285661723 84288095
L286095057 84288095
L286218866 84350000
L286280771 84411904
L286342676 84535714
L286342676 84659523
L286280771 84783333
L286218866 84845238
L286095057 84907142
L285661723 84907142
" />
</g></g>
<g style="fill:#000000; fill-opacity:0.0; 
stroke:#000000; stroke-width:21200.000000; stroke-opacity:1; 
stroke-linecap:round; stroke-linejoin:round;">
</g>
<g style="fill:#000000; fill-opacity:0.0; 
stroke:#000000; stroke-width:150000.000000; stroke-opacity:1; 
stroke-linecap:round; stroke-linejoin:round;">
<text x="286002200.000000" y="135650000.000000"
textLength="1450000.000000" font-size="1733333.000000" lengthAdjust="spacingAndGlyphs"
text-anchor="middle" opacity="0">C</text>
<g class="stroked-text"><desc>C</desc>
<path d="M286404580 135464285
L286342676 135526190
L286156961 135588095
L286033152 135588095
L285847438 135526190
L285723628 135402380
L285661723 135278571
L285599819 135030952
L285599819 134845238
L285661723 134597619
L285723628 134473809
L285847438 134350000
L286033152 134288095
L286156961 134288095
L286342676 134350000
L286404580 134411904
" />
</g></g>
<g style="fill:#000000; fill-opacity:0.0; 
stroke:#000000; stroke-width:21200.000000; stroke-opacity:1; 
stroke-linecap:round; stroke-linejoin:round;">
</g>
<g style="fill:#000000; fill-opacity:0.0; 
stroke:#000000; stroke-width:150000.000000; stroke-opacity:1; 
stroke-linecap:round; stroke-linejoin:round;">
<text x="286002200.000000" y="185650000.000000"
textLength="1450000.000000" font-size="1733333.000000" lengthAdjust="spacingAndGlyphs"
text-anchor="middle" opacity="0">D</text>
<g class="stroked-text"><desc>D</desc>
<path d="M285661723 185588095
L285661723 184288095
L285971247 184288095
L286156961 184350000
L286280771 184473809
L286342676 184597619
L286404580 184845238
L286404580 185030952
L286342676 185278571
L286280771 185402380
L286156961 185526190
L285971247 185588095
L285661723 185588095
" />
</g></g>
<g style="fill:#000000; fill-opacity:0.0; 
stroke:#000000; stroke-width:21200.000000; stroke-opacity:1; 
stroke-linecap:round; stroke-linejoin:round;">
</g>
<g style="fill:#000000; fill-opacity:0.0; 
stroke:#000000; stroke-width:150000.000000; stroke-opacity:1; 
stroke-linecap:round; stroke-linejoin:round;">
<text x="200002200.000000" y="193857200.000000"
textLength="7007143.000000" font-size="2000000.000000" lengthAdjust="spacingAndGlyphs"
text-anchor="start" opacity="0">Date: </text>
<g class="stroked-text"><desc>Date: </desc>
<path d="M200434342 193785771
L200434342 192285771
L200791485 192285771
L201005771 192357200
L201148628 192500057
L201220057 192642914
L201291485 192928628
L201291485 193142914
L201220057 193428628
L201148628 193571485
L201005771 193714342
L200791485 193785771
L200434342 193785771
" />
<path d="M202577200 193785771
L202577200 193000057
L202505771 192857200
L202362914 192785771
L202077200 192785771
L201934342 192857200
" />
<path d="M202577200 193714342
L202434342 193785771
L202077200 193785771
L201934342 193714342
L201862914 193571485
L201862914 193428628
L201934342 193285771
L202077200 193214342
L202434342 193214342
L202577200 193142914
" />
<path d="M203077200 192785771
L203648628 192785771
" />
<path d="M203291485 192285771
L203291485 193571485
L203362914 193714342
L203505771 193785771
L203648628 193785771
" />
<path d="M204720057 193714342
L204577200 193785771
L204291485 193785771
L204148628 193714342
L204077200 193571485
L204077200 193000057
L204148628 192857200
L204291485 192785771
L204577200 192785771
L204720057 192857200
L204791485 193000057
L204791485 193142914
L204077200 193285771
" />
<path d="M205434342 193642914
L205505771 193714342
L205434342 193785771
L205362914 193714342
L205434342 193642914
L205434342 193785771
" />
<path d="M205434342 192857200
L205505771 192928628
L205434342 193000057
L205362914 192928628
L205434342 192857200
L205434342 193000057
" />
</g></g>
<g style="fill:#000000; fill-opacity:0.0; 
stroke:#000000; stroke-width:21200.000000; stroke-opacity:1; 
stroke-linecap:round; stroke-linejoin:round;">
</g>
<g style="fill:#000000; fill-opacity:0.0; 
stroke:#000000; stroke-width:150000.000000; stroke-opacity:1; 
stroke-linecap:round; stroke-linejoin:round;">
<path d="M177002200 194507200
L285002200 194507200
" />
</g>
<g style="fill:#000000; fill-opacity:0.0; 
stroke:#000000; stroke-width:21200.000000; stroke-opacity:1; 
stroke-linecap:round; stroke-linejoin:round;">
</g>
<g style="fill:#000000; fill-opacity:0.0; 
stroke:#000000; stroke-width:150000.000000; stroke-opacity:1; 
stroke-linecap:round; stroke-linejoin:round;">
<text x="178002200.000000" y="196657200.000000"
textLength="33364286.000000" font-size="2000000.000000" lengthAdjust="spacingAndGlyphs"
text-anchor="start" opacity="0">KiCad E.D.A.  pcbnew (6.0.6)</text>
<g class="stroked-text"><desc>KiCad E.D.A.  pcbnew (6.0.6)</desc>
<path d="M178434342 196585771
L178434342 195085771
" />
<path d="M179291485 196585771
L178648628 195728628
" />
<path d="M179291485 195085771
L178434342 195942914
" />
<path d="M179934342 196585771
L179934342 195585771
" />
<path d="M179934342 195085771
L179862914 195157200
L179934342 195228628
L180005771 195157200
L179934342 195085771
L179934342 195228628
" />
<path d="M181505771 196442914
L181434342 196514342
L181220057 196585771
L181077200 196585771
L180862914 196514342
L180720057 196371485
L180648628 196228628
L180577200 195942914
L180577200 195728628
L180648628 195442914
L180720057 195300057
L180862914 195157200
L181077200 195085771
L181220057 195085771
L181434342 195157200
L181505771 195228628
" />
<path d="M182791485 196585771
L182791485 195800057
L182720057 195657200
L182577200 195585771
L182291485 195585771
L182148628 195657200
" />
<path d="M182791485 196514342
L182648628 196585771
L182291485 196585771
L182148628 196514342
L182077200 196371485
L182077200 196228628
L182148628 196085771
L182291485 196014342
L182648628 196014342
L182791485 195942914
" />
<path d="M184148628 196585771
L184148628 195085771
" />
<path d="M184148628 196514342
L184005771 196585771
L183720057 196585771
L183577200 196514342
L183505771 196442914
L183434342 196300057
L183434342 195871485
L183505771 195728628
L183577200 195657200
L183720057 195585771
L184005771 195585771
L184148628 195657200
" />
<path d="M186005771 195800057
L186505771 195800057
" />
<path d="M186720057 196585771
L186005771 196585771
L186005771 195085771
L186720057 195085771
" />
<path d="M187362914 196442914
L187434342 196514342
L187362914 196585771
L187291485 196514342
L187362914 196442914
L187362914 196585771
" />
<path d="M188077200 196585771
L188077200 195085771
L188434342 195085771
L188648628 195157200
L188791485 195300057
L188862914 195442914
L188934342 195728628
L188934342 195942914
L188862914 196228628
L188791485 196371485
L188648628 196514342
L188434342 196585771
L188077200 196585771
" />
<path d="M189577200 196442914
L189648628 196514342
L189577200 196585771
L189505771 196514342
L189577200 196442914
L189577200 196585771
" />
<path d="M190220057 196157200
L190934342 196157200
" />
<path d="M190077200 196585771
L190577200 195085771
L191077200 196585771
" />
<path d="M191577200 196442914
L191648628 196514342
L191577200 196585771
L191505771 196514342
L191577200 196442914
L191577200 196585771
" />
<path d="M194577200 195585771
L194577200 197085771
" />
<path d="M194577200 195657200
L194720057 195585771
L195005771 195585771
L195148628 195657200
L195220057 195728628
L195291485 195871485
L195291485 196300057
L195220057 196442914
L195148628 196514342
L195005771 196585771
L194720057 196585771
L194577200 196514342
" />
<path d="M196577200 196514342
L196434342 196585771
L196148628 196585771
L196005771 196514342
L195934342 196442914
L195862914 196300057
L195862914 195871485
L195934342 195728628
L196005771 195657200
L196148628 195585771
L196434342 195585771
L196577200 195657200
" />
<path d="M197220057 196585771
L197220057 195085771
" />
<path d="M197220057 195657200
L197362914 195585771
L197648628 195585771
L197791485 195657200
L197862914 195728628
L197934342 195871485
L197934342 196300057
L197862914 196442914
L197791485 196514342
L197648628 196585771
L197362914 196585771
L197220057 196514342
" />
<path d="M198577200 195585771
L198577200 196585771
" />
<path d="M198577200 195728628
L198648628 195657200
L198791485 195585771
L199005771 195585771
L199148628 195657200
L199220057 195800057
L199220057 196585771
" />
<path d="M200505771 196514342
L200362914 196585771
L200077200 196585771
L199934342 196514342
L199862914 196371485
L199862914 195800057
L199934342 195657200
L200077200 195585771
L200362914 195585771
L200505771 195657200
L200577200 195800057
L200577200 195942914
L199862914 196085771
" />
<path d="M201077200 195585771
L201362914 196585771
L201648628 195871485
L201934342 196585771
L202220057 195585771
" />
<path d="M204362914 197157200
L204291485 197085771
L204148628 196871485
L204077200 196728628
L204005771 196514342
L203934342 196157200
L203934342 195871485
L204005771 195514342
L204077200 195300057
L204148628 195157200
L204291485 194942914
L204362914 194871485
" />
<path d="M205577200 195085771
L205291485 195085771
L205148628 195157200
L205077200 195228628
L204934342 195442914
L204862914 195728628
L204862914 196300057
L204934342 196442914
L205005771 196514342
L205148628 196585771
L205434342 196585771
L205577200 196514342
L205648628 196442914
L205720057 196300057
L205720057 195942914
L205648628 195800057
L205577200 195728628
L205434342 195657200
L205148628 195657200
L205005771 195728628
L204934342 195800057
L204862914 195942914
" />
<path d="M206362914 196442914
L206434342 196514342
L206362914 196585771
L206291485 196514342
L206362914 196442914
L206362914 196585771
" />
<path d="M207362914 195085771
L207505771 195085771
L207648628 195157200
L207720057 195228628
L207791485 195371485
L207862914 195657200
L207862914 196014342
L207791485 196300057
L207720057 196442914
L207648628 196514342
L207505771 196585771
L207362914 196585771
L207220057 196514342
L207148628 196442914
L207077200 196300057
L207005771 196014342
L207005771 195657200
L207077200 195371485
L207148628 195228628
L207220057 195157200
L207362914 195085771
" />
<path d="M208505771 196442914
L208577200 196514342
L208505771 196585771
L208434342 196514342
L208505771 196442914
L208505771 196585771
" />
<path d="M209862914 195085771
L209577200 195085771
L209434342 195157200
L209362914 195228628
L209220057 195442914
L209148628 195728628
L209148628 196300057
L209220057 196442914
L209291485 196514342
L209434342 196585771
L209720057 196585771
L209862914 196514342
L209934342 196442914
L210005771 196300057
L210005771 195942914
L209934342 195800057
L209862914 195728628
L209720057 195657200
L209434342 195657200
L209291485 195728628
L209220057 195800057
L209148628 195942914
" />
<path d="M210505771 197157200
L210577200 197085771
L210720057 196871485
L210791485 196728628
L210862914 196514342
L210934342 196157200
L210934342 195871485
L210862914 195514342
L210791485 195300057
L210720057 195157200
L210577200 194942914
L210505771 194871485
" />
</g></g>
<g style="fill:#000000; fill-opacity:0.0; 
stroke:#000000; stroke-width:21200.000000; stroke-opacity:1; 
stroke-linecap:round; stroke-linejoin:round;">
</g>
<g style="fill:#000000; fill-opacity:0.0; 
stroke:#000000; stroke-width:150000.000000; stroke-opacity:1; 
stroke-linecap:round; stroke-linejoin:round;">
<path d="M177002200 191507200
L285002200 191507200
" />
</g>
<g style="fill:#000000; fill-opacity:0.0; 
stroke:#000000; stroke-width:21200.000000; stroke-opacity:1; 
stroke-linecap:round; stroke-linejoin:round;">
</g>
<g style="fill:#000000; fill-opacity:0.0; 
stroke:#000000; stroke-width:300000.000000; stroke-opacity:1; 
stroke-linecap:round; stroke-linejoin:round;">
<text x="263002200.000000" y="193857200.000000"
textLength="5935714.000000" font-size="2000000.000000" lengthAdjust="spacingAndGlyphs"
text-anchor="start" opacity="0">Rev: </text>
<g class="stroked-text"><desc>Rev: </desc>
<path d="M264411485 193785771
L263911485 193071485
" />
<path d="M263554342 193785771
L263554342 192285771
L264125771 192285771
L264268628 192357200
L264340057 192428628
L264411485 192571485
L264411485 192785771
L264340057 192928628
L264268628 193000057
L264125771 193071485
L263554342 193071485
" />
<path d="M265625771 193714342
L265482914 193785771
L265197200 193785771
L265054342 193714342
L264982914 193571485
L264982914 193000057
L265054342 192857200
L265197200 192785771
L265482914 192785771
L265625771 192857200
L265697200 193000057
L265697200 193142914
L264982914 193285771
" />
<path d="M266197200 192785771
L266554342 193785771
L266911485 192785771
" />
<path d="M267482914 193642914
L267554342 193714342
L267482914 193785771
L267411485 193714342
L267482914 193642914
L267482914 193785771
" />
<path d="M267482914 192857200
L267554342 192928628
L267482914 193000057
L267411485 192928628
L267482914 192857200
L267482914 193000057
" />
</g></g>
<g style="fill:#000000; fill-opacity:0.0; 
stroke:#000000; stroke-width:21200.000000; stroke-opacity:1; 
stroke-linecap:round; stroke-linejoin:round;">
</g>
<g style="fill:#000000; fill-opacity:0.0; 
stroke:#000000; stroke-width:150000.000000; stroke-opacity:1; 
stroke-linecap:round; stroke-linejoin:round;">
<text x="178002200.000000" y="193857200.000000"
textLength="9604286.000000" font-size="2000000.000000" lengthAdjust="spacingAndGlyphs"
text-anchor="start" opacity="0">Size: A4</text>
<g class="stroked-text"><desc>Size: A4</desc>
<path d="M178362914 193714342
L178577200 193785771
L178934342 193785771
L179077200 193714342
L179148628 193642914
L179220057 193500057
L179220057 193357200
L179148628 193214342
L179077200 193142914
L178934342 193071485
L178648628 193000057
L178505771 192928628
L178434342 192857200
L178362914 192714342
L178362914 192571485
L178434342 192428628
L178505771 192357200
L178648628 192285771
L179005771 192285771
L179220057 192357200
" />
<path d="M179862914 193785771
L179862914 192785771
" />
<path d="M179862914 192285771
L179791485 192357200
L179862914 192428628
L179934342 192357200
L179862914 192285771
L179862914 192428628
" />
<path d="M180434342 192785771
L181220057 192785771
L180434342 193785771
L181220057 193785771
" />
<path d="M182362914 193714342
L182220057 193785771
L181934342 193785771
L181791485 193714342
L181720057 193571485
L181720057 193000057
L181791485 192857200
L181934342 192785771
L182220057 192785771
L182362914 192857200
L182434342 193000057
L182434342 193142914
L181720057 193285771
" />
<path d="M183077200 193642914
L183148628 193714342
L183077200 193785771
L183005771 193714342
L183077200 193642914
L183077200 193785771
" />
<path d="M183077200 192857200
L183148628 192928628
L183077200 193000057
L183005771 192928628
L183077200 192857200
L183077200 193000057
" />
<path d="M184862914 193357200
L185577200 193357200
" />
<path d="M184720057 193785771
L185220057 192285771
L185720057 193785771
" />
<path d="M186862914 192785771
L186862914 193785771
" />
<path d="M186505771 192214342
L186148628 193285771
L187077200 193285771
" />
</g></g>
<g style="fill:#000000; fill-opacity:0.0; 
stroke:#000000; stroke-width:21200.000000; stroke-opacity:1; 
stroke-linecap:round; stroke-linejoin:round;">
</g>
<g style="fill:#000000; fill-opacity:0.0; 
stroke:#000000; stroke-width:150000.000000; stroke-opacity:1; 
stroke-linecap:round; stroke-linejoin:round;">
<text x="263002200.000000" y="196657200.000000"
textLength="8507143.000000" font-size="2000000.000000" lengthAdjust="spacingAndGlyphs"
text-anchor="start" opacity="0">Id: 1/1</text>
<g class="stroked-text"><desc>Id: 1/1</desc>
<path d="M263434342 196585771
L263434342 195085771
" />
<path d="M264791485 196585771
L264791485 195085771
" />
<path d="M264791485 196514342
L264648628 196585771
L264362914 196585771
L264220057 196514342
L264148628 196442914
L264077200 196300057
L264077200 195871485
L264148628 195728628
L264220057 195657200
L264362914 195585771
L264648628 195585771
L264791485 195657200
" />
<path d="M265505771 196442914
L265577200 196514342
L265505771 196585771
L265434342 196514342
L265505771 196442914
L265505771 196585771
" />
<path d="M265505771 195657200
L265577200 195728628
L265505771 195800057
L265434342 195728628
L265505771 195657200
L265505771 195800057
" />
<path d="M268148628 196585771
L267291485 196585771
" />
<path d="M267720057 196585771
L267720057 195085771
L267577200 195300057
L267434342 195442914
L267291485 195514342
" />
<path d="M269862914 195014342
L268577200 196942914
" />
<path d="M271148628 196585771
L270291485 196585771
" />
<path d="M270720057 196585771
L270720057 195085771
L270577200 195300057
L270434342 195442914
L270291485 195514342
" />
</g></g>
<g style="fill:#000000; fill-opacity:0.0; 
stroke:#000000; stroke-width:21200.000000; stroke-opacity:1; 
stroke-linecap:round; stroke-linejoin:round;">
</g>
<g style="fill:#000000; fill-opacity:0.0; 
stroke:#000000; stroke-width:150000.000000; stroke-opacity:1; 
stroke-linecap:round; stroke-linejoin:round;">
<path d="M177002200 187507200
L285002200 187507200
" />
</g>
<g style="fill:#000000; fill-opacity:0.0; 
stroke:#000000; stroke-width:21200.000000; stroke-opacity:1; 
stroke-linecap:round; stroke-linejoin:round;">
</g>
<g style="fill:#000000; fill-opacity:0.0; 
stroke:#000000; stroke-width:400000.000000; stroke-opacity:1; 
stroke-linecap:round; stroke-linejoin:round;">
<text x="178002200.000000" y="190307200.000000"
textLength="9409643.000000" font-size="2666666.000000" lengthAdjust="spacingAndGlyphs"
text-anchor="start" opacity="0">Title: </text>
<g class="stroked-text"><desc>Title: </desc>
<path d="M178714580 188211961
L179857438 188211961
" />
<path d="M179036009 190211961
L179286009 188211961
" />
<path d="M180274104 190211961
L180440771 188878628
" />
<path d="M180524104 188211961
L180416961 188307200
L180500295 188402438
L180607438 188307200
L180524104 188211961
L180500295 188402438
" />
<path d="M181107438 188878628
L181869342 188878628
" />
<path d="M181476485 188211961
L181262200 189926247
L181333628 190116723
L181512200 190211961
L181702676 190211961
" />
<path d="M182655057 190211961
L182476485 190116723
L182405057 189926247
L182619342 188211961
" />
<path d="M184190771 190116723
L183988390 190211961
L183607438 190211961
L183428866 190116723
L183357438 189926247
L183452676 189164342
L183571723 188973866
L183774104 188878628
L184155057 188878628
L184333628 188973866
L184405057 189164342
L184381247 189354819
L183405057 189545295
" />
<path d="M185155057 190021485
L185238390 190116723
L185131247 190211961
L185047914 190116723
L185155057 190021485
L185131247 190211961
" />
<path d="M185286009 188973866
L185369342 189069104
L185262200 189164342
L185178866 189069104
L185286009 188973866
L185262200 189164342
" />
</g></g>
<g style="fill:#000000; fill-opacity:0.0; 
stroke:#000000; stroke-width:21200.000000; stroke-opacity:1; 
stroke-linecap:round; stroke-linejoin:round;">
</g>
<g style="fill:#000000; fill-opacity:0.0; 
stroke:#000000; stroke-width:150000.000000; stroke-opacity:1; 
stroke-linecap:round; stroke-linejoin:round;">
<text x="178002200.000000" y="186457200.000000"
textLength="30805714.000000" font-size="2000000.000000" lengthAdjust="spacingAndGlyphs"
text-anchor="start" opacity="0">File: boardKicad.kicad_pcb</text>
<g class="stroked-text"><desc>File: boardKicad.kicad_pcb</desc>
<path d="M178934342 185600057
L178434342 185600057
" />
<path d="M178434342 186385771
L178434342 184885771
L179148628 184885771
" />
<path d="M179720057 186385771
L179720057 185385771
" />
<path d="M179720057 184885771
L179648628 184957200
L179720057 185028628
L179791485 184957200
L179720057 184885771
L179720057 185028628
" />
<path d="M180648628 186385771
L180505771 186314342
L180434342 186171485
L180434342 184885771
" />
<path d="M181791485 186314342
L181648628 186385771
L181362914 186385771
L181220057 186314342
L181148628 186171485
L181148628 185600057
L181220057 185457200
L181362914 185385771
L181648628 185385771
L181791485 185457200
L181862914 185600057
L181862914 185742914
L181148628 185885771
" />
<path d="M182505771 186242914
L182577200 186314342
L182505771 186385771
L182434342 186314342
L182505771 186242914
L182505771 186385771
" />
<path d="M182505771 185457200
L182577200 185528628
L182505771 185600057
L182434342 185528628
L182505771 185457200
L182505771 185600057
" />
<path d="M184362914 186385771
L184362914 184885771
" />
<path d="M184362914 185457200
L184505771 185385771
L184791485 185385771
L184934342 185457200
L185005771 185528628
L185077200 185671485
L185077200 186100057
L185005771 186242914
L184934342 186314342
L184791485 186385771
L184505771 186385771
L184362914 186314342
" />
<path d="M185934342 186385771
L185791485 186314342
L185720057 186242914
L185648628 186100057
L185648628 185671485
L185720057 185528628
L185791485 185457200
L185934342 185385771
L186148628 185385771
L186291485 185457200
L186362914 185528628
L186434342 185671485
L186434342 186100057
L186362914 186242914
L186291485 186314342
L186148628 186385771
L185934342 186385771
" />
<path d="M187720057 186385771
L187720057 185600057
L187648628 185457200
L187505771 185385771
L187220057 185385771
L187077200 185457200
" />
<path d="M187720057 186314342
L187577200 186385771
L187220057 186385771
L187077200 186314342
L187005771 186171485
L187005771 186028628
L187077200 185885771
L187220057 185814342
L187577200 185814342
L187720057 185742914
" />
<path d="M188434342 186385771
L188434342 185385771
" />
<path d="M188434342 185671485
L188505771 185528628
L188577200 185457200
L188720057 185385771
L188862914 185385771
" />
<path d="M190005771 186385771
L190005771 184885771
" />
<path d="M190005771 186314342
L189862914 186385771
L189577200 186385771
L189434342 186314342
L189362914 186242914
L189291485 186100057
L189291485 185671485
L189362914 185528628
L189434342 185457200
L189577200 185385771
L189862914 185385771
L190005771 185457200
" />
<path d="M190720057 186385771
L190720057 184885771
" />
<path d="M191577200 186385771
L190934342 185528628
" />
<path d="M191577200 184885771
L190720057 185742914
" />
<path d="M192220057 186385771
L192220057 185385771
" />
<path d="M192220057 184885771
L192148628 184957200
L192220057 185028628
L192291485 184957200
L192220057 184885771
L192220057 185028628
" />
<path d="M193577200 186314342
L193434342 186385771
L193148628 186385771
L193005771 186314342
L192934342 186242914
L192862914 186100057
L192862914 185671485
L192934342 185528628
L193005771 185457200
L193148628 185385771
L193434342 185385771
L193577200 185457200
" />
<path d="M194862914 186385771
L194862914 185600057
L194791485 185457200
L194648628 185385771
L194362914 185385771
L194220057 185457200
" />
<path d="M194862914 186314342
L194720057 186385771
L194362914 186385771
L194220057 186314342
L194148628 186171485
L194148628 186028628
L194220057 185885771
L194362914 185814342
L194720057 185814342
L194862914 185742914
" />
<path d="M196220057 186385771
L196220057 184885771
" />
<path d="M196220057 186314342
L196077200 186385771
L195791485 186385771
L195648628 186314342
L195577200 186242914
L195505771 186100057
L195505771 185671485
L195577200 185528628
L195648628 185457200
L195791485 185385771
L196077200 185385771
L196220057 185457200
" />
<path d="M196934342 186242914
L197005771 186314342
L196934342 186385771
L196862914 186314342
L196934342 186242914
L196934342 186385771
" />
<path d="M197648628 186385771
L197648628 184885771
" />
<path d="M197791485 185814342
L198220057 186385771
" />
<path d="M198220057 185385771
L197648628 185957200
" />
<path d="M198862914 186385771
L198862914 185385771
" />
<path d="M198862914 184885771
L198791485 184957200
L198862914 185028628
L198934342 184957200
L198862914 184885771
L198862914 185028628
" />
<path d="M200220057 186314342
L200077200 186385771
L199791485 186385771
L199648628 186314342
L199577200 186242914
L199505771 186100057
L199505771 185671485
L199577200 185528628
L199648628 185457200
L199791485 185385771
L200077200 185385771
L200220057 185457200
" />
<path d="M201505771 186385771
L201505771 185600057
L201434342 185457200
L201291485 185385771
L201005771 185385771
L200862914 185457200
" />
<path d="M201505771 186314342
L201362914 186385771
L201005771 186385771
L200862914 186314342
L200791485 186171485
L200791485 186028628
L200862914 185885771
L201005771 185814342
L201362914 185814342
L201505771 185742914
" />
<path d="M202862914 186385771
L202862914 184885771
" />
<path d="M202862914 186314342
L202720057 186385771
L202434342 186385771
L202291485 186314342
L202220057 186242914
L202148628 186100057
L202148628 185671485
L202220057 185528628
L202291485 185457200
L202434342 185385771
L202720057 185385771
L202862914 185457200
" />
<path d="M203220057 186528628
L204362914 186528628
" />
<path d="M204720057 185385771
L204720057 186885771
" />
<path d="M204720057 185457200
L204862914 185385771
L205148628 185385771
L205291485 185457200
L205362914 185528628
L205434342 185671485
L205434342 186100057
L205362914 186242914
L205291485 186314342
L205148628 186385771
L204862914 186385771
L204720057 186314342
" />
<path d="M206720057 186314342
L206577200 186385771
L206291485 186385771
L206148628 186314342
L206077200 186242914
L206005771 186100057
L206005771 185671485
L206077200 185528628
L206148628 185457200
L206291485 185385771
L206577200 185385771
L206720057 185457200
" />
<path d="M207362914 186385771
L207362914 184885771
" />
<path d="M207362914 185457200
L207505771 185385771
L207791485 185385771
L207934342 185457200
L208005771 185528628
L208077200 185671485
L208077200 186100057
L208005771 186242914
L207934342 186314342
L207791485 186385771
L207505771 186385771
L207362914 186314342
" />
</g></g>
<g style="fill:#000000; fill-opacity:0.0; 
stroke:#000000; stroke-width:21200.000000; stroke-opacity:1; 
stroke-linecap:round; stroke-linejoin:round;">
</g>
<g style="fill:#000000; fill-opacity:0.0; 
stroke:#000000; stroke-width:150000.000000; stroke-opacity:1; 
stroke-linecap:round; stroke-linejoin:round;">
<path d="M177002200 181507200
L285002200 181507200
" />
</g>
<g style="fill:#000000; fill-opacity:0.0; 
stroke:#000000; stroke-width:21200.000000; stroke-opacity:1; 
stroke-linecap:round; stroke-linejoin:round;">
</g>
<g style="fill:#000000; fill-opacity:0.0; 
stroke:#000000; stroke-width:150000.000000; stroke-opacity:1; 
stroke-linecap:round; stroke-linejoin:round;">
<text x="178002200.000000" y="183757200.000000"
textLength="8221429.000000" font-size="2000000.000000" lengthAdjust="spacingAndGlyphs"
text-anchor="start" opacity="0">Sheet: </text>
<g class="stroked-text"><desc>Sheet: </desc>
<path d="M178362914 183614342
L178577200 183685771
L178934342 183685771
L179077200 183614342
L179148628 183542914
L179220057 183400057
L179220057 183257200
L179148628 183114342
L179077200 183042914
L178934342 182971485
L178648628 182900057
L178505771 182828628
L178434342 182757200
L178362914 182614342
L178362914 182471485
L178434342 182328628
L178505771 182257200
L178648628 182185771
L179005771 182185771
L179220057 182257200
" />
<path d="M179862914 183685771
L179862914 182185771
" />
<path d="M180505771 183685771
L180505771 182900057
L180434342 182757200
L180291485 182685771
L180077200 182685771
L179934342 182757200
L179862914 182828628
" />
<path d="M181791485 183614342
L181648628 183685771
L181362914 183685771
L181220057 183614342
L181148628 183471485
L181148628 182900057
L181220057 182757200
L181362914 182685771
L181648628 182685771
L181791485 182757200
L181862914 182900057
L181862914 183042914
L181148628 183185771
" />
<path d="M183077200 183614342
L182934342 183685771
L182648628 183685771
L182505771 183614342
L182434342 183471485
L182434342 182900057
L182505771 182757200
L182648628 182685771
L182934342 182685771
L183077200 182757200
L183148628 182900057
L183148628 183042914
L182434342 183185771
" />
<path d="M183577200 182685771
L184148628 182685771
" />
<path d="M183791485 182185771
L183791485 183471485
L183862914 183614342
L184005771 183685771
L184148628 183685771
" />
<path d="M184648628 183542914
L184720057 183614342
L184648628 183685771
L184577200 183614342
L184648628 183542914
L184648628 183685771
" />
<path d="M184648628 182757200
L184720057 182828628
L184648628 182900057
L184577200 182828628
L184648628 182757200
L184648628 182900057
" />
</g></g>
<g style="fill:#000000; fill-opacity:0.0; 
stroke:#000000; stroke-width:21200.000000; stroke-opacity:1; 
stroke-linecap:round; stroke-linejoin:round;">
</g>
<g style="fill:#000000; fill-opacity:0.0; 
stroke:#000000; stroke-width:300000.000000; stroke-opacity:1; 
stroke-linecap:round; stroke-linejoin:round;">
<text x="178002200.000000" y="180757200.000000"
textLength="150000.000000" font-size="2000000.000000" lengthAdjust="spacingAndGlyphs"
text-anchor="start" opacity="0"></text>
<g class="stroked-text"><desc></desc>
</g></g>
<g style="fill:#000000; fill-opacity:0.0; 
stroke:#000000; stroke-width:21200.000000; stroke-opacity:1; 
stroke-linecap:round; stroke-linejoin:round;">
</g>
<g style="fill:#000000; fill-opacity:0.0; 
stroke:#000000; stroke-width:150000.000000; stroke-opacity:1; 
stroke-linecap:round; stroke-linejoin:round;">
<text x="178002200.000000" y="177757200.000000"
textLength="300000.000000" font-size="2000000.000000" lengthAdjust="spacingAndGlyphs"
text-anchor="start" opacity="0"></text>
<g class="stroked-text"><desc></desc>
</g></g>
<g style="fill:#000000; fill-opacity:0.0; 
stroke:#000000; stroke-width:21200.000000; stroke-opacity:1; 
stroke-linecap:round; stroke-linejoin:round;">
</g>
<g style="fill:#000000; fill-opacity:0.0; 
stroke:#000000; stroke-width:150000.000000; stroke-opacity:1; 
stroke-linecap:round; stroke-linejoin:round;">
<text x="178002200.000000" y="174757200.000000"
textLength="150000.000000" font-size="2000000.000000" lengthAdjust="spacingAndGlyphs"
text-anchor="start" opacity="0"></text>
<g class="stroked-text"><desc></desc>
</g></g>
<g style="fill:#000000; fill-opacity:0.0; 
stroke:#000000; stroke-width:21200.000000; stroke-opacity:1; 
stroke-linecap:round; stroke-linejoin:round;">
</g>
<g style="fill:#000000; fill-opacity:0.0; 
stroke:#000000; stroke-width:150000.000000; stroke-opacity:1; 
stroke-linecap:round; stroke-linejoin:round;">
<text x="178002200.000000" y="171757200.000000"
textLength="150000.000000" font-size="2000000.000000" lengthAdjust="spacingAndGlyphs"
text-anchor="start" opacity="0"></text>
<g class="stroked-text"><desc></desc>
</g></g>
<g style="fill:#000000; fill-opacity:0.0; 
stroke:#000000; stroke-width:21200.000000; stroke-opacity:1; 
stroke-linecap:round; stroke-linejoin:round;">
</g>
<g style="fill:#000000; fill-opacity:0.0; 
stroke:#000000; stroke-width:150000.000000; stroke-opacity:1; 
stroke-linecap:round; stroke-linejoin:round;">
<text x="178002200.000000" y="168757200.000000"
textLength="150000.000000" font-size="2000000.000000" lengthAdjust="spacingAndGlyphs"
text-anchor="start" opacity="0"></text>
<g class="stroked-text"><desc></desc>
</g></g>
<g style="fill:#000000; fill-opacity:0.0; 
stroke:#000000; stroke-width:21200.000000; stroke-opacity:1; 
stroke-linecap:round; stroke-linejoin:round;">
</g>
<g style="fill:#000000; fill-opacity:0.0; 
stroke:#000000; stroke-width:150000.000000; stroke-opacity:1; 
stroke-linecap:round; stroke-linejoin:round;">
<path d="M197002200 191507200
L197002200 194507200
" />
</g>
<g style="fill:#000000; fill-opacity:0.0; 
stroke:#000000; stroke-width:21200.000000; stroke-opacity:1; 
stroke-linecap:round; stroke-linejoin:round;">
</g>
<g style="fill:#000000; fill-opacity:0.0; 
stroke:#000000; stroke-width:150000.000000; stroke-opacity:1; 
stroke-linecap:round; stroke-linejoin:round;">
<path d="M261002200 191507200
L261002200 198007200
" />
</g>
<g style="fill:#5994DC; fill-opacity:0.0; 
stroke:#5994DC; stroke-width:150000.000000; stroke-opacity:1; 
stroke-linecap:round; stroke-linejoin:round;">
</g>
<g style="fill:#5994DC; fill-opacity:0.0; 
stroke:#5994DC; stroke-width:24384.000000; stroke-opacity:1; 
stroke-linecap:round; stroke-linejoin:round;">
<text x="170091100.000000" y="84823808.000000"
textLength="3301342.000000" font-size="373888.000000" lengthAdjust="spacingAndGlyphs"
text-anchor="middle" opacity="0">SUGGESTED
CUTOUT POLYGON
FOR ANY INTERNAL
POWER LAYERS</text>
<g class="stroked-text"><desc>SUGGESTED
CUTOUT POLYGON
FOR ANY INTERNAL
POWER LAYERS</desc>
<path d="M168949406 84119896
L168989465 84133249
L169056231 84133249
L169082937 84119896
L169096290 84106543
L169109644 84079837
L169109644 84053131
L169096290 84026424
L169082937 84013071
L169056231 83999718
L169002818 83986365
L168976112 83973012
L168962759 83959659
L168949406 83932952
L168949406 83906246
L168962759 83879540
L168976112 83866187
L169002818 83852833
L169069584 83852833
L169109644 83866187
" />
<path d="M169229822 83852833
L169229822 84079837
L169243175 84106543
L169256528 84119896
L169283234 84133249
L169336647 84133249
L169363353 84119896
L169376706 84106543
L169390060 84079837
L169390060 83852833
" />
<path d="M169670476 83866187
L169643769 83852833
L169603710 83852833
L169563650 83866187
L169536944 83892893
L169523591 83919599
L169510238 83973012
L169510238 84013071
L169523591 84066484
L169536944 84093190
L169563650 84119896
L169603710 84133249
L169630416 84133249
L169670476 84119896
L169683829 84106543
L169683829 84013071
L169630416 84013071
" />
<path d="M169950892 83866187
L169924185 83852833
L169884126 83852833
L169844066 83866187
L169817360 83892893
L169804007 83919599
L169790654 83973012
L169790654 84013071
L169804007 84066484
L169817360 84093190
L169844066 84119896
L169884126 84133249
L169910832 84133249
L169950892 84119896
L169964245 84106543
L169964245 84013071
L169910832 84013071
" />
<path d="M170084423 83986365
L170177895 83986365
" />
<path d="M170217954 84133249
L170084423 84133249
L170084423 83852833
L170217954 83852833
" />
<path d="M170324780 84119896
L170364839 84133249
L170431605 84133249
L170458311 84119896
L170471664 84106543
L170485017 84079837
L170485017 84053131
L170471664 84026424
L170458311 84013071
L170431605 83999718
L170378192 83986365
L170351486 83973012
L170338133 83959659
L170324780 83932952
L170324780 83906246
L170338133 83879540
L170351486 83866187
L170378192 83852833
L170444958 83852833
L170485017 83866187
" />
<path d="M170565136 83852833
L170725374 83852833
" />
<path d="M170645255 84133249
L170645255 83852833
" />
<path d="M170818846 83986365
L170912318 83986365
" />
<path d="M170952377 84133249
L170818846 84133249
L170818846 83852833
L170952377 83852833
" />
<path d="M171072556 84133249
L171072556 83852833
L171139321 83852833
L171179381 83866187
L171206087 83892893
L171219440 83919599
L171232793 83973012
L171232793 84013071
L171219440 84066484
L171206087 84093190
L171179381 84119896
L171139321 84133249
L171072556 84133249
" />
<path d="M168462016 84558013
L168448663 84571366
L168408604 84584719
L168381897 84584719
L168341838 84571366
L168315132 84544660
L168301778 84517954
L168288425 84464541
L168288425 84424482
L168301778 84371069
L168315132 84344363
L168341838 84317657
L168381897 84304303
L168408604 84304303
L168448663 84317657
L168462016 84331010
" />
<path d="M168582194 84304303
L168582194 84531307
L168595548 84558013
L168608901 84571366
L168635607 84584719
L168689020 84584719
L168715726 84571366
L168729079 84558013
L168742432 84531307
L168742432 84304303
" />
<path d="M168835904 84304303
L168996142 84304303
" />
<path d="M168916023 84584719
L168916023 84304303
" />
<path d="M169143026 84304303
L169196439 84304303
L169223145 84317657
L169249852 84344363
L169263205 84397775
L169263205 84491247
L169249852 84544660
L169223145 84571366
L169196439 84584719
L169143026 84584719
L169116320 84571366
L169089614 84544660
L169076261 84491247
L169076261 84397775
L169089614 84344363
L169116320 84317657
L169143026 84304303
" />
<path d="M169383383 84304303
L169383383 84531307
L169396736 84558013
L169410089 84571366
L169436796 84584719
L169490208 84584719
L169516914 84571366
L169530268 84558013
L169543621 84531307
L169543621 84304303
" />
<path d="M169637093 84304303
L169797330 84304303
" />
<path d="M169717212 84584719
L169717212 84304303
" />
<path d="M170104453 84584719
L170104453 84304303
L170211278 84304303
L170237984 84317657
L170251337 84331010
L170264690 84357716
L170264690 84397775
L170251337 84424482
L170237984 84437835
L170211278 84451188
L170104453 84451188
" />
<path d="M170438281 84304303
L170491694 84304303
L170518400 84317657
L170545106 84344363
L170558460 84397775
L170558460 84491247
L170545106 84544660
L170518400 84571366
L170491694 84584719
L170438281 84584719
L170411575 84571366
L170384869 84544660
L170371516 84491247
L170371516 84397775
L170384869 84344363
L170411575 84317657
L170438281 84304303
" />
<path d="M170812169 84584719
L170678638 84584719
L170678638 84304303
" />
<path d="M170959054 84451188
L170959054 84584719
" />
<path d="M170865582 84304303
L170959054 84451188
L171052526 84304303
" />
<path d="M171292882 84317657
L171266176 84304303
L171226117 84304303
L171186057 84317657
L171159351 84344363
L171145998 84371069
L171132645 84424482
L171132645 84464541
L171145998 84517954
L171159351 84544660
L171186057 84571366
L171226117 84584719
L171252823 84584719
L171292882 84571366
L171306236 84558013
L171306236 84464541
L171252823 84464541
" />
<path d="M171479826 84304303
L171533239 84304303
L171559945 84317657
L171586652 84344363
L171600005 84397775
L171600005 84491247
L171586652 84544660
L171559945 84571366
L171533239 84584719
L171479826 84584719
L171453120 84571366
L171426414 84544660
L171413061 84491247
L171413061 84397775
L171426414 84344363
L171453120 84317657
L171479826 84304303
" />
<path d="M171720183 84584719
L171720183 84304303
L171880421 84584719
L171880421 84304303
" />
<path d="M168275072 84889305
L168181600 84889305
" />
<path d="M168181600 85036189
L168181600 84755773
L168315132 84755773
" />
<path d="M168475369 84755773
L168528782 84755773
L168555488 84769127
L168582194 84795833
L168595548 84849245
L168595548 84942717
L168582194 84996130
L168555488 85022836
L168528782 85036189
L168475369 85036189
L168448663 85022836
L168421957 84996130
L168408604 84942717
L168408604 84849245
L168421957 84795833
L168448663 84769127
L168475369 84755773
" />
<path d="M168875964 85036189
L168782492 84902658
" />
<path d="M168715726 85036189
L168715726 84755773
L168822551 84755773
L168849257 84769127
L168862610 84782480
L168875964 84809186
L168875964 84849245
L168862610 84875952
L168849257 84889305
L168822551 84902658
L168715726 84902658
" />
<path d="M169196439 84956071
L169329970 84956071
" />
<path d="M169169733 85036189
L169263205 84755773
L169356677 85036189
" />
<path d="M169450149 85036189
L169450149 84755773
L169610386 85036189
L169610386 84755773
" />
<path d="M169797330 84902658
L169797330 85036189
" />
<path d="M169703858 84755773
L169797330 84902658
L169890802 84755773
" />
<path d="M170197925 85036189
L170197925 84755773
" />
<path d="M170331456 85036189
L170331456 84755773
L170491694 85036189
L170491694 84755773
" />
<path d="M170585166 84755773
L170745404 84755773
" />
<path d="M170665285 85036189
L170665285 84755773
" />
<path d="M170838876 84889305
L170932348 84889305
" />
<path d="M170972407 85036189
L170838876 85036189
L170838876 84755773
L170972407 84755773
" />
<path d="M171252823 85036189
L171159351 84902658
" />
<path d="M171092585 85036189
L171092585 84755773
L171199410 84755773
L171226117 84769127
L171239470 84782480
L171252823 84809186
L171252823 84849245
L171239470 84875952
L171226117 84889305
L171199410 84902658
L171092585 84902658
" />
<path d="M171373001 85036189
L171373001 84755773
L171533239 85036189
L171533239 84755773
" />
<path d="M171653417 84956071
L171786949 84956071
" />
<path d="M171626711 85036189
L171720183 84755773
L171813655 85036189
" />
<path d="M172040658 85036189
L171907127 85036189
L171907127 84755773
" />
<path d="M168582194 85487659
L168582194 85207243
L168689020 85207243
L168715726 85220597
L168729079 85233950
L168742432 85260656
L168742432 85300715
L168729079 85327422
L168715726 85340775
L168689020 85354128
L168582194 85354128
" />
<path d="M168916023 85207243
L168969436 85207243
L168996142 85220597
L169022848 85247303
L169036201 85300715
L169036201 85394187
L169022848 85447600
L168996142 85474306
L168969436 85487659
L168916023 85487659
L168889317 85474306
L168862610 85447600
L168849257 85394187
L168849257 85300715
L168862610 85247303
L168889317 85220597
L168916023 85207243
" />
<path d="M169129673 85207243
L169196439 85487659
L169249852 85287362
L169303264 85487659
L169370030 85207243
" />
<path d="M169476855 85340775
L169570327 85340775
" />
<path d="M169610386 85487659
L169476855 85487659
L169476855 85207243
L169610386 85207243
" />
<path d="M169890802 85487659
L169797330 85354128
" />
<path d="M169730565 85487659
L169730565 85207243
L169837390 85207243
L169864096 85220597
L169877449 85233950
L169890802 85260656
L169890802 85300715
L169877449 85327422
L169864096 85340775
L169837390 85354128
L169730565 85354128
" />
<path d="M170358162 85487659
L170224631 85487659
L170224631 85207243
" />
<path d="M170438281 85407541
L170571813 85407541
" />
<path d="M170411575 85487659
L170505047 85207243
L170598519 85487659
" />
<path d="M170745404 85354128
L170745404 85487659
" />
<path d="M170651932 85207243
L170745404 85354128
L170838876 85207243
" />
<path d="M170932348 85340775
L171025820 85340775
" />
<path d="M171065879 85487659
L170932348 85487659
L170932348 85207243
L171065879 85207243
" />
<path d="M171346295 85487659
L171252823 85354128
" />
<path d="M171186057 85487659
L171186057 85207243
L171292882 85207243
L171319589 85220597
L171332942 85233950
L171346295 85260656
L171346295 85300715
L171332942 85327422
L171319589 85340775
L171292882 85354128
L171186057 85354128
" />
<path d="M171453120 85474306
L171493180 85487659
L171559945 85487659
L171586652 85474306
L171600005 85460953
L171613358 85434247
L171613358 85407541
L171600005 85380834
L171586652 85367481
L171559945 85354128
L171506533 85340775
L171479826 85327422
L171466473 85314069
L171453120 85287362
L171453120 85260656
L171466473 85233950
L171479826 85220597
L171506533 85207243
L171573298 85207243
L171613358 85220597
" />
</g><text x="126911100.000000" y="84823808.000000"
textLength="3183041.000000" font-size="373888.000000" lengthAdjust="spacingAndGlyphs"
text-anchor="middle" opacity="0">SUGGESTED
CUTOUT POLYGON
FOR ANY INTERNAL
POWER LAYERS</text>
<g class="stroked-text"><desc>SUGGESTED
CUTOUT POLYGON
FOR ANY INTERNAL
POWER LAYERS</desc>
<path d="M125769406 84119896
L125809465 84133249
L125876231 84133249
L125902937 84119896
L125916290 84106543
L125929644 84079837
L125929644 84053131
L125916290 84026424
L125902937 84013071
L125876231 83999718
L125822818 83986365
L125796112 83973012
L125782759 83959659
L125769406 83932952
L125769406 83906246
L125782759 83879540
L125796112 83866187
L125822818 83852833
L125889584 83852833
L125929644 83866187
" />
<path d="M126049822 83852833
L126049822 84079837
L126063175 84106543
L126076528 84119896
L126103234 84133249
L126156647 84133249
L126183353 84119896
L126196706 84106543
L126210060 84079837
L126210060 83852833
" />
<path d="M126490476 83866187
L126463769 83852833
L126423710 83852833
L126383650 83866187
L126356944 83892893
L126343591 83919599
L126330238 83973012
L126330238 84013071
L126343591 84066484
L126356944 84093190
L126383650 84119896
L126423710 84133249
L126450416 84133249
L126490476 84119896
L126503829 84106543
L126503829 84013071
L126450416 84013071
" />
<path d="M126770892 83866187
L126744185 83852833
L126704126 83852833
L126664066 83866187
L126637360 83892893
L126624007 83919599
L126610654 83973012
L126610654 84013071
L126624007 84066484
L126637360 84093190
L126664066 84119896
L126704126 84133249
L126730832 84133249
L126770892 84119896
L126784245 84106543
L126784245 84013071
L126730832 84013071
" />
<path d="M126904423 83986365
L126997895 83986365
" />
<path d="M127037954 84133249
L126904423 84133249
L126904423 83852833
L127037954 83852833
" />
<path d="M127144780 84119896
L127184839 84133249
L127251605 84133249
L127278311 84119896
L127291664 84106543
L127305017 84079837
L127305017 84053131
L127291664 84026424
L127278311 84013071
L127251605 83999718
L127198192 83986365
L127171486 83973012
L127158133 83959659
L127144780 83932952
L127144780 83906246
L127158133 83879540
L127171486 83866187
L127198192 83852833
L127264958 83852833
L127305017 83866187
" />
<path d="M127385136 83852833
L127545374 83852833
" />
<path d="M127465255 84133249
L127465255 83852833
" />
<path d="M127638846 83986365
L127732318 83986365
" />
<path d="M127772377 84133249
L127638846 84133249
L127638846 83852833
L127772377 83852833
" />
<path d="M127892556 84133249
L127892556 83852833
L127959321 83852833
L127999381 83866187
L128026087 83892893
L128039440 83919599
L128052793 83973012
L128052793 84013071
L128039440 84066484
L128026087 84093190
L127999381 84119896
L127959321 84133249
L127892556 84133249
" />
<path d="M125282016 84558013
L125268663 84571366
L125228604 84584719
L125201897 84584719
L125161838 84571366
L125135132 84544660
L125121778 84517954
L125108425 84464541
L125108425 84424482
L125121778 84371069
L125135132 84344363
L125161838 84317657
L125201897 84304303
L125228604 84304303
L125268663 84317657
L125282016 84331010
" />
<path d="M125402194 84304303
L125402194 84531307
L125415548 84558013
L125428901 84571366
L125455607 84584719
L125509020 84584719
L125535726 84571366
L125549079 84558013
L125562432 84531307
L125562432 84304303
" />
<path d="M125655904 84304303
L125816142 84304303
" />
<path d="M125736023 84584719
L125736023 84304303
" />
<path d="M125963026 84304303
L126016439 84304303
L126043145 84317657
L126069852 84344363
L126083205 84397775
L126083205 84491247
L126069852 84544660
L126043145 84571366
L126016439 84584719
L125963026 84584719
L125936320 84571366
L125909614 84544660
L125896261 84491247
L125896261 84397775
L125909614 84344363
L125936320 84317657
L125963026 84304303
" />
<path d="M126203383 84304303
L126203383 84531307
L126216736 84558013
L126230089 84571366
L126256796 84584719
L126310208 84584719
L126336914 84571366
L126350268 84558013
L126363621 84531307
L126363621 84304303
" />
<path d="M126457093 84304303
L126617330 84304303
" />
<path d="M126537212 84584719
L126537212 84304303
" />
<path d="M126924453 84584719
L126924453 84304303
L127031278 84304303
L127057984 84317657
L127071337 84331010
L127084690 84357716
L127084690 84397775
L127071337 84424482
L127057984 84437835
L127031278 84451188
L126924453 84451188
" />
<path d="M127258281 84304303
L127311694 84304303
L127338400 84317657
L127365106 84344363
L127378460 84397775
L127378460 84491247
L127365106 84544660
L127338400 84571366
L127311694 84584719
L127258281 84584719
L127231575 84571366
L127204869 84544660
L127191516 84491247
L127191516 84397775
L127204869 84344363
L127231575 84317657
L127258281 84304303
" />
<path d="M127632169 84584719
L127498638 84584719
L127498638 84304303
" />
<path d="M127779054 84451188
L127779054 84584719
" />
<path d="M127685582 84304303
L127779054 84451188
L127872526 84304303
" />
<path d="M128112882 84317657
L128086176 84304303
L128046117 84304303
L128006057 84317657
L127979351 84344363
L127965998 84371069
L127952645 84424482
L127952645 84464541
L127965998 84517954
L127979351 84544660
L128006057 84571366
L128046117 84584719
L128072823 84584719
L128112882 84571366
L128126236 84558013
L128126236 84464541
L128072823 84464541
" />
<path d="M128299826 84304303
L128353239 84304303
L128379945 84317657
L128406652 84344363
L128420005 84397775
L128420005 84491247
L128406652 84544660
L128379945 84571366
L128353239 84584719
L128299826 84584719
L128273120 84571366
L128246414 84544660
L128233061 84491247
L128233061 84397775
L128246414 84344363
L128273120 84317657
L128299826 84304303
" />
<path d="M128540183 84584719
L128540183 84304303
L128700421 84584719
L128700421 84304303
" />
<path d="M125095072 84889305
L125001600 84889305
" />
<path d="M125001600 85036189
L125001600 84755773
L125135132 84755773
" />
<path d="M125295369 84755773
L125348782 84755773
L125375488 84769127
L125402194 84795833
L125415548 84849245
L125415548 84942717
L125402194 84996130
L125375488 85022836
L125348782 85036189
L125295369 85036189
L125268663 85022836
L125241957 84996130
L125228604 84942717
L125228604 84849245
L125241957 84795833
L125268663 84769127
L125295369 84755773
" />
<path d="M125695964 85036189
L125602492 84902658
" />
<path d="M125535726 85036189
L125535726 84755773
L125642551 84755773
L125669257 84769127
L125682610 84782480
L125695964 84809186
L125695964 84849245
L125682610 84875952
L125669257 84889305
L125642551 84902658
L125535726 84902658
" />
<path d="M126016439 84956071
L126149970 84956071
" />
<path d="M125989733 85036189
L126083205 84755773
L126176677 85036189
" />
<path d="M126270149 85036189
L126270149 84755773
L126430386 85036189
L126430386 84755773
" />
<path d="M126617330 84902658
L126617330 85036189
" />
<path d="M126523858 84755773
L126617330 84902658
L126710802 84755773
" />
<path d="M127017925 85036189
L127017925 84755773
" />
<path d="M127151456 85036189
L127151456 84755773
L127311694 85036189
L127311694 84755773
" />
<path d="M127405166 84755773
L127565404 84755773
" />
<path d="M127485285 85036189
L127485285 84755773
" />
<path d="M127658876 84889305
L127752348 84889305
" />
<path d="M127792407 85036189
L127658876 85036189
L127658876 84755773
L127792407 84755773
" />
<path d="M128072823 85036189
L127979351 84902658
" />
<path d="M127912585 85036189
L127912585 84755773
L128019410 84755773
L128046117 84769127
L128059470 84782480
L128072823 84809186
L128072823 84849245
L128059470 84875952
L128046117 84889305
L128019410 84902658
L127912585 84902658
" />
<path d="M128193001 85036189
L128193001 84755773
L128353239 85036189
L128353239 84755773
" />
<path d="M128473417 84956071
L128606949 84956071
" />
<path d="M128446711 85036189
L128540183 84755773
L128633655 85036189
" />
<path d="M128860658 85036189
L128727127 85036189
L128727127 84755773
" />
<path d="M125402194 85487659
L125402194 85207243
L125509020 85207243
L125535726 85220597
L125549079 85233950
L125562432 85260656
L125562432 85300715
L125549079 85327422
L125535726 85340775
L125509020 85354128
L125402194 85354128
" />
<path d="M125736023 85207243
L125789436 85207243
L125816142 85220597
L125842848 85247303
L125856201 85300715
L125856201 85394187
L125842848 85447600
L125816142 85474306
L125789436 85487659
L125736023 85487659
L125709317 85474306
L125682610 85447600
L125669257 85394187
L125669257 85300715
L125682610 85247303
L125709317 85220597
L125736023 85207243
" />
<path d="M125949673 85207243
L126016439 85487659
L126069852 85287362
L126123264 85487659
L126190030 85207243
" />
<path d="M126296855 85340775
L126390327 85340775
" />
<path d="M126430386 85487659
L126296855 85487659
L126296855 85207243
L126430386 85207243
" />
<path d="M126710802 85487659
L126617330 85354128
" />
<path d="M126550565 85487659
L126550565 85207243
L126657390 85207243
L126684096 85220597
L126697449 85233950
L126710802 85260656
L126710802 85300715
L126697449 85327422
L126684096 85340775
L126657390 85354128
L126550565 85354128
" />
<path d="M127178162 85487659
L127044631 85487659
L127044631 85207243
" />
<path d="M127258281 85407541
L127391813 85407541
" />
<path d="M127231575 85487659
L127325047 85207243
L127418519 85487659
" />
<path d="M127565404 85354128
L127565404 85487659
" />
<path d="M127471932 85207243
L127565404 85354128
L127658876 85207243
" />
<path d="M127752348 85340775
L127845820 85340775
" />
<path d="M127885879 85487659
L127752348 85487659
L127752348 85207243
L127885879 85207243
" />
<path d="M128166295 85487659
L128072823 85354128
" />
<path d="M128006057 85487659
L128006057 85207243
L128112882 85207243
L128139589 85220597
L128152942 85233950
L128166295 85260656
L128166295 85300715
L128152942 85327422
L128139589 85340775
L128112882 85354128
L128006057 85354128
" />
<path d="M128273120 85474306
L128313180 85487659
L128379945 85487659
L128406652 85474306
L128420005 85460953
L128433358 85434247
L128433358 85407541
L128420005 85380834
L128406652 85367481
L128379945 85354128
L128326533 85340775
L128299826 85327422
L128286473 85314069
L128273120 85287362
L128273120 85260656
L128286473 85233950
L128299826 85220597
L128326533 85207243
L128393298 85207243
L128433358 85220597
" />
</g></g>
<g style="fill:#5994DC; fill-opacity:0.0; 
stroke:#5994DC; stroke-width:152400.000000; stroke-opacity:1; 
stroke-linecap:round; stroke-linejoin:round;">
<path d="M170091100 85953600
L167551100 88493600
" />
<path d="M175171100 79603600
L173901100 79603600
" />
<path d="M167551100 83413600
L167551100 84683600
" />
<path d="M165011100 80873600
L167551100 83413600
" />
<path d="M166281100 79603600
L165011100 80873600
" />
<path d="M170091100 79603600
L168821100 79603600
" />
<path d="M168821100 85953600
L171361100 88493600
" />
<path d="M165011100 87223600
L166281100 88493600
" />
<path d="M175171100 84683600
L171361100 88493600
" />
<path d="M172631100 88493600
L173901100 88493600
" />
<path d="M165011100 88493600
L166281100 88493600
" />
<path d="M167551100 79603600
L168821100 80873600
" />
<path d="M165011100 80873600
L165011100 82143600
" />
<path d="M165011100 84683600
L168821100 88493600
" />
<path d="M170091100 79603600
L171361100 80873600
" />
<path d="M167551100 85953600
L165011100 88493600
" />
<path d="M171361100 79603600
L170091100 80873600
" />
<path d="M175171100 83413600
L175171100 82143600
" />
<path d="M171361100 79603600
L170091100 79603600
" />
<path d="M165011100 79603600
L168821100 83413600
" />
<path d="M165011100 79603600
L165011100 80873600
" />
<path d="M172631100 84683600
L172631100 83413600
" />
<path d="M175171100 85953600
L172631100 88493600
" />
<path d="M171361100 82143600
L172631100 83413600
" />
<path d="M172631100 79603600
L175171100 82143600
" />
<path d="M167551100 83413600
L165011100 85953600
" />
<path d="M172631100 85953600
L172631100 84683600
" />
<path d="M172631100 83413600
L171361100 83413600
" />
<path d="M175171100 87223600
L175171100 85953600
" />
<path d="M166281100 88493600
L167551100 88493600
" />
<path d="M168821100 85953600
L170091100 85953600
" />
<path d="M165011100 82143600
L167551100 84683600
" />
<path d="M173901100 79603600
L172631100 79603600
" />
<path d="M167551100 79603600
L166281100 79603600
" />
<path d="M167551100 79603600
L165011100 82143600
" />
<path d="M165011100 87223600
L165011100 88493600
" />
<path d="M168821100 83413600
L167551100 83413600
" />
<path d="M171361100 85953600
L168821100 88493600
" />
<path d="M171361100 88493600
L172631100 88493600
" />
<path d="M165011100 85953600
L165011100 87223600
" />
<path d="M175171100 84683600
L175171100 83413600
" />
<path d="M168821100 80873600
L165011100 84683600
" />
<path d="M165011100 85953600
L167551100 88493600
" />
<path d="M172631100 85953600
L175171100 88493600
" />
<path d="M175171100 88493600
L175171100 87223600
" />
<path d="M175171100 79603600
L171361100 83413600
" />
<path d="M172631100 84683600
L175171100 87223600
" />
<path d="M171361100 85953600
L173901100 88493600
" />
<path d="M165011100 82143600
L165011100 83413600
" />
<path d="M175171100 85953600
L175171100 84683600
" />
<path d="M171361100 85953600
L172631100 85953600
" />
<path d="M172631100 85953600
L170091100 88493600
" />
<path d="M175171100 87223600
L173901100 88493600
" />
<path d="M168821100 85953600
L166281100 88493600
" />
<path d="M170091100 88493600
L171361100 88493600
" />
<path d="M171361100 80873600
L175171100 84683600
" />
<path d="M167551100 85953600
L170091100 88493600
" />
<path d="M165011100 84683600
L165011100 85953600
" />
<path d="M175171100 83413600
L172631100 85953600
" />
<path d="M173901100 79603600
L171361100 82143600
" />
<path d="M168821100 79603600
L167551100 79603600
" />
<path d="M172631100 79603600
L171361100 79603600
" />
<path d="M170091100 85953600
L171361100 85953600
" />
<path d="M168821100 88493600
L170091100 88493600
" />
<path d="M167551100 84683600
L165011100 87223600
" />
<path d="M170091100 79603600
L168821100 80873600
" />
<path d="M172631100 79603600
L171361100 80873600
" />
<path d="M172631100 83413600
L175171100 85953600
" />
<path d="M175171100 82143600
L172631100 84683600
" />
<path d="M167551100 85953600
L168821100 85953600
" />
<path d="M175171100 80873600
L175171100 79603600
" />
<path d="M166281100 79603600
L165011100 79603600
" />
<path d="M170091100 85953600
L172631100 88493600
" />
<path d="M166281100 79603600
L168821100 82143600
" />
<path d="M175171100 80873600
L172631100 83413600
" />
<path d="M173901100 88493600
L175171100 88493600
" />
<path d="M168821100 82143600
L167551100 83413600
" />
<path d="M171361100 83413600
L168821100 83413600
" />
<path d="M165011100 83413600
L167551100 85953600
" />
<path d="M167551100 84683600
L167551100 85953600
" />
<path d="M167551100 88493600
L168821100 88493600
" />
<path d="M175171100 82143600
L175171100 80873600
" />
<path d="M168821100 79603600
L165011100 83413600
" />
<path d="M165011100 83413600
L165011100 84683600
" />
<path d="M171361100 79603600
L175171100 83413600
" />
<path d="M168821100 79603600
L170091100 80873600
" />
<path d="M175171100 80873600
L173901100 79603600
" />
<path d="M121831100 84683600
L121831100 85953600
" />
<path d="M123101100 88493600
L124371100 88493600
" />
<path d="M131991100 79603600
L128181100 83413600
" />
<path d="M128181100 79603600
L131991100 83413600
" />
<path d="M131991100 85953600
L131991100 84683600
" />
<path d="M131991100 84683600
L128181100 88493600
" />
<path d="M124371100 85953600
L121831100 88493600
" />
<path d="M125641100 80873600
L121831100 84683600
" />
<path d="M126911100 85953600
L129451100 88493600
" />
<path d="M125641100 85953600
L126911100 85953600
" />
<path d="M129451100 85953600
L129451100 84683600
" />
<path d="M124371100 85953600
L126911100 88493600
" />
<path d="M125641100 79603600
L126911100 80873600
" />
<path d="M126911100 79603600
L125641100 79603600
" />
<path d="M128181100 79603600
L126911100 79603600
" />
<path d="M121831100 79603600
L125641100 83413600
" />
<path d="M124371100 84683600
L121831100 87223600
" />
<path d="M130721100 88493600
L131991100 88493600
" />
<path d="M121831100 83413600
L124371100 85953600
" />
<path d="M126911100 79603600
L125641100 80873600
" />
<path d="M126911100 88493600
L128181100 88493600
" />
<path d="M128181100 88493600
L129451100 88493600
" />
<path d="M131991100 88493600
L131991100 87223600
" />
<path d="M124371100 85953600
L125641100 85953600
" />
<path d="M121831100 87223600
L123101100 88493600
" />
<path d="M131991100 82143600
L129451100 84683600
" />
<path d="M129451100 83413600
L128181100 83413600
" />
<path d="M131991100 80873600
L131991100 79603600
" />
<path d="M125641100 88493600
L126911100 88493600
" />
<path d="M121831100 82143600
L124371100 84683600
" />
<path d="M131991100 87223600
L131991100 85953600
" />
<path d="M121831100 85953600
L124371100 88493600
" />
<path d="M121831100 83413600
L121831100 84683600
" />
<path d="M126911100 85953600
L124371100 88493600
" />
<path d="M129451100 85953600
L131991100 88493600
" />
<path d="M124371100 79603600
L125641100 80873600
" />
<path d="M125641100 79603600
L121831100 83413600
" />
<path d="M131991100 87223600
L130721100 88493600
" />
<path d="M125641100 83413600
L124371100 83413600
" />
<path d="M126911100 85953600
L128181100 85953600
" />
<path d="M131991100 84683600
L131991100 83413600
" />
<path d="M125641100 85953600
L123101100 88493600
" />
<path d="M129451100 84683600
L129451100 83413600
" />
<path d="M129451100 79603600
L128181100 79603600
" />
<path d="M124371100 84683600
L124371100 85953600
" />
<path d="M125641100 85953600
L128181100 88493600
" />
<path d="M125641100 79603600
L124371100 79603600
" />
<path d="M128181100 85953600
L125641100 88493600
" />
<path d="M121831100 80873600
L121831100 82143600
" />
<path d="M129451100 83413600
L131991100 85953600
" />
<path d="M128181100 85953600
L129451100 85953600
" />
<path d="M130721100 79603600
L128181100 82143600
" />
<path d="M123101100 79603600
L125641100 82143600
" />
<path d="M128181100 85953600
L130721100 88493600
" />
<path d="M129451100 79603600
L128181100 80873600
" />
<path d="M121831100 80873600
L124371100 83413600
" />
<path d="M131991100 80873600
L129451100 83413600
" />
<path d="M131991100 83413600
L129451100 85953600
" />
<path d="M124371100 79603600
L121831100 82143600
" />
<path d="M131991100 79603600
L130721100 79603600
" />
<path d="M121831100 84683600
L125641100 88493600
" />
<path d="M128181100 83413600
L125641100 83413600
" />
<path d="M130721100 79603600
L129451100 79603600
" />
<path d="M129451100 79603600
L131991100 82143600
" />
<path d="M124371100 83413600
L121831100 85953600
" />
<path d="M126911100 79603600
L128181100 80873600
" />
<path d="M128181100 79603600
L126911100 80873600
" />
<path d="M121831100 87223600
L121831100 88493600
" />
<path d="M125641100 82143600
L124371100 83413600
" />
<path d="M128181100 80873600
L131991100 84683600
" />
<path d="M131991100 83413600
L131991100 82143600
" />
<path d="M123101100 79603600
L121831100 80873600
" />
<path d="M124371100 79603600
L123101100 79603600
" />
<path d="M129451100 84683600
L131991100 87223600
" />
<path d="M121831100 82143600
L121831100 83413600
" />
<path d="M129451100 88493600
L130721100 88493600
" />
<path d="M121831100 85953600
L121831100 87223600
" />
<path d="M121831100 88493600
L123101100 88493600
" />
<path d="M124371100 83413600
L124371100 84683600
" />
<path d="M128181100 82143600
L129451100 83413600
" />
<path d="M121831100 79603600
L121831100 80873600
" />
<path d="M129451100 85953600
L126911100 88493600
" />
<path d="M131991100 80873600
L130721100 79603600
" />
<path d="M131991100 82143600
L131991100 80873600
" />
<path d="M123101100 79603600
L121831100 79603600
" />
<path d="M124371100 88493600
L125641100 88493600
" />
<path d="M131991100 85953600
L129451100 88493600
" />
<g >
</g>
<g >
</g>
<g >
</g>
<g >
</g>
<g >
</g>
<g >
</g>
<g >
</g>
<g >
</g>
<g >
</g>
<g >
</g>
<g >
</g>
<g >
</g>
<g >
</g>
<g >
</g>
<g >
</g>
<g >
</g>
<g >
</g>
<g >
</g>
<g >
</g>
<g >
</g>
<g >
</g>
<g >
</g>
<g >
</g>
<g >
</g>
<g >
</g>
<g >
</g>
<g >
</g>
<g >
</g>
<g >
</g>
<g >
</g>
<g >
</g>
<g >
</g>
<g >
</g>
<g >
</g>
<g >
</g>
<g >
</g>
<g >
</g>
<g >
</g>
<g >
</g>
<g >
</g>
<g >
</g>
<g >
</g>
<g >
</g>
<g >
</g>
<g >
</g>
<g >
</g>
<g >
</g>
<g >
</g>
<g >
</g>
<g >
</g>
<g >
</g>
<g >
</g>
<g >
</g>
<g >
</g>
<g >
</g>
<g >
</g>
<g >
</g>
<g >
</g>
<g >
</g>
<g >
</g>
<g >
</g>
<g >
</g>
<g >
</g>
<g >
</g>
<g >
</g>
<g >
</g>
<g >
</g>
<g >
</g>
<g >
</g>
<g >
</g>
<g >
</g>
<g >
</g>
<g >
</g>
<g >
</g>
<g >
</g>
<g >
</g>
<g >
</g>
<g >
</g>
<g >
</g>
<g >
</g>
<g >
</g>
<g >
</g>
<g >
</g>
<g >
</g>
<g >
</g>
<g >
</g>
<g >
</g>
<g >
</g>
<g >
</g>
<g >
</g>
<g >
</g>
<g >
</g>
<g >
</g>
<g >
</g>
<g >
</g>
<g >
</g>
<g >
</g>
<g >
</g>
<g >
</g>
<g >
</g>
<g >
</g>
<g >
</g>
<g >
</g>
<g >
</g>
<g >
</g>
<g >
</g>
<g >
</g>
<g >
</g>
<g >
</g>
<g >
</g>
<g >
</g>
<g >
</g>
<g >
</g>
<g >
</g>
<g >
</g>
<g >
</g>
<g >
</g>
<g >
</g>
<g >
</g>
<g >
</g>
<g >
</g>
<g >
</g>
<g >
</g>
<g >
</g>
<g >
</g>
<g >
</g>
<g >
</g>
<g >
</g>
<g >
</g>
<g >
</g>
<g >
</g>
<g >
</g>
<g >
</g>
<g >
</g>
<g >
</g>
<g >
</g>
<g >
</g>
<g >
</g>
<g >
</g>
<g >
</g>
<g >
</g>
<g >
</g>
<g >
</g>
<g >
</g>
<g >
</g>
<g >
</g>
<g >
</g>
<g >
</g>
<g >
</g>
<g >
</g>
<g >
</g>
<g >
</g>
<g >
</g>
<g >
</g>
<g >
</g>
<g >
</g>
<g >
</g>
<g >
</g>
<g >
</g>
<g >
</g>
<g >
</g>
<g >
</g>
<g >
</g>
<g >
</g>
<g >
</g>
<g >
</g>
<g >
</g>
<g >
</g>
<g >
</g>
<g >
</g>
<g >
</g>
<g >
</g>
<g >
</g>
<g >
</g>
<g >
</g>
<g >
</g>
<g >
</g>
<g >
</g>
<g >
</g>
<g >
</g>
<g >
</g>
<g >
</g>
<g >
</g>
<g >
</g>
<g >
</g>
<g >
</g>
<g >
</g>
<g >
</g>
<g >
</g>
<g >
</g>
<g >
</g>
<g >
</g>
<g >
</g>
<g >
</g>
<g >
</g>
<g >
</g>
<g >
</g>
<g >
</g>
<g >
</g>
<g >
</g>
<g >
</g>
<g >
</g>
<g >
</g>
<g >
</g>
<g >
</g>
<g >
</g>
<g >
</g>
<g >
</g>
<g >
</g>
<g >
</g>
<g >
</g>
<g >
</g>
<g >
</g>
<g >
</g>
<g >
</g>
<g >
</g>
<g >
</g>
<g >
</g>
<g >
</g>
<g >
</g>
<g >
</g>
<g >
</g>
<g >
</g>
<g >
</g>
<g >
</g>
<g >
</g>
<g >
</g>
<g >
</g>
<g >
</g>
<g >
</g>
<g >
</g>
<g >
</g>
<g >
</g>
<g >
</g>
<g >
</g>
<g >
</g>
<g >
</g>
<g >
</g>
<g >
</g>
<g >
</g>
<g >
</g>
<g >
</g>
<g >
</g>
<g >
</g>
<g >
</g>
<g >
</g>
<g >
</g>
<g >
</g>
<g >
</g>
<g >
</g>
<g >
</g>
<g >
</g>
<g >
</g>
<g >
</g>
<g >
</g>
<g >
</g>
<g >
</g>
<g >
</g>
<g >
</g>
</g>
<g style="fill:#000000; fill-opacity:0.0; 
stroke:#000000; stroke-width:152400.000000; stroke-opacity:1; 
stroke-linecap:round; stroke-linejoin:round;">
</g>
<g style="fill:#D0D2CD; fill-opacity:0.0; 
stroke:#D0D2CD; stroke-width:152400.000000; stroke-opacity:1; 
stroke-linecap:round; stroke-linejoin:round;">
</g>
<g style="fill:#D0D2CD; fill-opacity:0.0; 
stroke:#D0D2CD; stroke-width:203200.000000; stroke-opacity:1; 
stroke-linecap:round; stroke-linejoin:round;">
<path d="M110401100 79603600
L186601100 79603600
" />
<path d="M186601100 130403600
L110401100 130403600
" />
<path d="M110401100 130403600
L110401100 79603600
" />
<path d="M186601100 79603600
L186601100 130403600
" />
<g >
</g>
<g >
</g>
<g >
</g>
<g >
</g>
<g >
</g>
<g >
</g>
<g >
</g>
<g >
</g>
<g >
</g>
<g >
</g>
<g >
</g>
<g >
</g>
<g >
</g>
<g >
</g>
<g >
</g>
<g >
</g>
<g >
</g>
<g >
</g>
<g >
</g>
<g >
</g>
<g >
</g>
<g >
</g>
<g >
</g>
<g >
</g>
<g >
</g>
<g >
</g>
<g >
</g>
<g >
</g>
<g >
</g>
<g >
</g>
<g >
</g>
<g >
</g>
<g >
</g>
<g >
</g>
<g >
</g>
<g >
</g>
<g >
</g>
<g >
</g>
<g >
</g>
<g >
</g>
<g >
</g>
<g >
</g>
<g >
</g>
<g >
</g>
<g >
</g>
<g >
</g>
<g >
</g>
<g >
</g>
<g >
</g>
<g >
</g>
<g >
</g>
<g >
</g>
<g >
</g>
<g >
</g>
<g >
</g>
<g >
</g>
<g >
</g>
<g >
</g>
<g >
</g>
<g >
</g>
<g >
</g>
<g >
</g>
<g >
</g>
<g >
</g>
<g >
</g>
<g >
</g>
<g >
</g>
<g >
</g>
<g >
</g>
<g >
</g>
<g >
</g>
<g >
</g>
<g >
</g>
<g >
</g>
<g >
</g>
<g >
</g>
<g >
</g>
<g >
</g>
<g >
</g>
<g >
</g>
<g >
</g>
<g >
</g>
<g >
</g>
<g >
</g>
<g >
</g>
<g >
</g>
<g >
</g>
<g >
</g>
<g >
</g>
<g >
</g>
<g >
</g>
<g >
</g>
<g >
</g>
<g >
</g>
<g >
</g>
<g >
</g>
<g >
</g>
<g >
</g>
<g >
</g>
<g >
</g>
<g >
</g>
<g >
</g>
<g >
</g>
<g >
</g>
<g >
</g>
<g >
</g>
<g >
</g>
<g >
</g>
<g >
</g>
<g >
</g>
<g >
</g>
<g >
</g>
<g >
</g>
<g >
</g>
<g >
</g>
<g >
</g>
<g >
</g>
<g >
</g>
<g >
</g>
<g >
</g>
<g >
</g>
<g >
</g>
<g >
</g>
<g >
</g>
<g >
</g>
<g >
</g>
<g >
</g>
<g >
</g>
<g >
</g>
<g >
</g>
<g >
</g>
<g >
</g>
<g >
</g>
<g >
</g>
<g >
</g>
<g >
</g>
<g >
</g>
<g >
</g>
<g >
</g>
<g >
</g>
<g >
</g>
<g >
</g>
<g >
</g>
<g >
</g>
<g >
</g>
<g >
</g>
<g >
</g>
<g >
</g>
<g >
</g>
<g >
</g>
<g >
</g>
<g >
</g>
<g >
</g>
<g >
</g>
<g >
</g>
<g >
</g>
<g >
</g>
<g >
</g>
<g >
</g>
<g >
</g>
<g >
</g>
<g >
</g>
<g >
</g>
<g >
</g>
<g >
</g>
<g >
</g>
<g >
</g>
<g >
</g>
<g >
</g>
<g >
</g>
<g >
</g>
<g >
</g>
<g >
</g>
<g >
</g>
<g >
</g>
<g >
</g>
<g >
</g>
<g >
</g>
<g >
</g>
<g >
</g>
<g >
</g>
<g >
</g>
<g >
</g>
<g >
</g>
<g >
</g>
<g >
</g>
<g >
</g>
<g >
</g>
<g >
</g>
<g >
</g>
<g >
</g>
<g >
</g>
<g >
</g>
<g >
</g>
<g >
</g>
<g >
</g>
<g >
</g>
<g >
</g>
<g >
</g>
<g >
</g>
<g >
</g>
<g >
</g>
<g >
</g>
<g >
</g>
<g >
</g>
<g >
</g>
<g >
</g>
<g >
</g>
<g >
</g>
<g >
</g>
<g >
</g>
<g >
</g>
<g >
</g>
<g >
</g>
<g >
</g>
<g >
</g>
<g >
</g>
<g >
</g>
<g >
</g>
<g >
</g>
<g >
</g>
<g >
</g>
<g >
</g>
<g >
</g>
<g >
</g>
<g >
</g>
<g >
</g>
<g >
</g>
<g >
</g>
<g >
</g>
<g >
</g>
<g >
</g>
<g >
</g>
<g >
</g>
<g >
</g>
<g >
</g>
<g >
</g>
<g >
</g>
<g >
</g>
<g >
</g>
<g >
</g>
<g >
</g>
<g >
</g>
<g >
</g>
<g >
</g>
<g >
</g>
<g >
</g>
<g >
</g>
<g >
</g>
<g >
</g>
<g >
</g>
<g >
</g>
<g >
</g>
<g >
</g>
<g >
</g>
<g >
</g>
<g >
</g>
<g >
</g>
<g >
</g>
</g> 
</svg>
