M48
;GenerationSoftware,Autodesk,EAGLE,9.6.2*%
;CreationDate,2022-08-08T05:05:15Z*%
FMAT,2
ICI,OFF
METRIC,TZ,000.000
T5C0.394
T4C0.700
T3C0.800
T2C0.900
T1C1.000
%
G90
M71
T1
X13970Y1270
X1270Y16510
X1270Y1270
X34290Y3810
X34290Y6350
X34290Y8890
X34290Y11430
X34290Y13970
X3810Y16510
X6350Y16510
X8890Y16510
X11430Y16510
X13970Y16510
X16510Y16510
X19050Y16510
X21590Y16510
X24130Y16510
X26670Y16510
X29210Y16510
X31750Y16510
X34290Y16510
X34290Y1270
X31750Y1270
X29210Y1270
X26670Y1270
X24130Y1270
X21590Y1270
X19050Y1270
X16510Y1270
X11430Y1270
X8890Y1270
X6350Y1270
X3810Y1270
T2
X2545Y5290
X2545Y12490
T3
X5345Y12190
X5345Y5590
T4
X4445Y10840
X4445Y6940
T5
X16279Y4651
X23207Y13864
X16447Y3461
X29559Y11958
X25349Y6642
X16935Y12636
X31115Y5334
X15519Y13506
X2413Y9652
X2413Y8191
X19431Y10224
X21654Y8255
X14719Y10554
X7620Y15748
X15855Y11456
X9081Y5461
X10097Y2159
X15088Y3518
X11290Y6045
X28511Y8700
X33338Y10160
X29185Y12865
X29807Y4763
X15456Y12370
X30226Y14643
X12535Y13094
X10097Y9754
X17632Y4679
X18673Y4630
X17219Y5588
X21069Y14160
X12376Y3220
X23119Y3893
X20142Y14478
X24976Y8525
X6667Y4888
X15288Y7979
X25375Y7623
X6841Y7810
X14665Y6083
X4000Y3429
X30611Y3080
X15060Y7026
X8573Y7112
X10033Y7302
X13957Y13195
X7723Y14238
M30