G04 EAGLE Gerber RS-274X export*
G75*
%MOMM*%
%FSLAX34Y34*%
%LPD*%
%INSoldermask Top*%
%IPPOS*%
%AMOC8*
5,1,8,0,0,1.08239X$1,22.5*%
G01*
%ADD10C,2.403200*%
%ADD11C,0.803200*%
%ADD12R,2.235200X0.863600*%
%ADD13R,2.103200X1.603200*%
%ADD14R,1.603200X2.003200*%
%ADD15R,1.703200X0.903200*%
%ADD16R,1.403200X0.753200*%
%ADD17R,1.303200X1.603200*%
%ADD18R,1.203200X1.603200*%
%ADD19R,1.803200X1.503200*%
%ADD20R,1.503200X1.803200*%
%ADD21P,2.144431X8X22.500000*%

G36*
X210072Y141920D02*
X210072Y141920D01*
X210115Y141932D01*
X210181Y141939D01*
X211864Y142390D01*
X211905Y142409D01*
X211968Y142428D01*
X213548Y143165D01*
X213585Y143191D01*
X213644Y143220D01*
X215072Y144220D01*
X215103Y144252D01*
X215156Y144291D01*
X216389Y145524D01*
X216414Y145560D01*
X216460Y145608D01*
X217460Y147036D01*
X217478Y147077D01*
X217515Y147132D01*
X218252Y148712D01*
X218263Y148755D01*
X218290Y148816D01*
X218741Y150499D01*
X218743Y150531D01*
X218750Y150552D01*
X218750Y150567D01*
X218760Y150608D01*
X218912Y152345D01*
X218908Y152389D01*
X218912Y152455D01*
X218760Y154192D01*
X218748Y154235D01*
X218741Y154301D01*
X218290Y155984D01*
X218271Y156025D01*
X218252Y156088D01*
X217515Y157668D01*
X217489Y157705D01*
X217460Y157764D01*
X216460Y159192D01*
X216428Y159223D01*
X216389Y159276D01*
X215156Y160509D01*
X215120Y160534D01*
X215072Y160580D01*
X213644Y161580D01*
X213603Y161598D01*
X213548Y161635D01*
X211968Y162372D01*
X211925Y162383D01*
X211864Y162410D01*
X210181Y162861D01*
X210136Y162864D01*
X210072Y162880D01*
X208335Y163032D01*
X208291Y163028D01*
X208225Y163032D01*
X206488Y162880D01*
X206445Y162868D01*
X206379Y162861D01*
X204696Y162410D01*
X204655Y162391D01*
X204592Y162372D01*
X203012Y161635D01*
X202975Y161609D01*
X202916Y161580D01*
X201488Y160580D01*
X201457Y160548D01*
X201404Y160509D01*
X200171Y159276D01*
X200146Y159240D01*
X200100Y159192D01*
X199100Y157764D01*
X199082Y157723D01*
X199045Y157668D01*
X198308Y156088D01*
X198297Y156045D01*
X198270Y155984D01*
X197819Y154301D01*
X197816Y154256D01*
X197800Y154192D01*
X197648Y152455D01*
X197652Y152411D01*
X197648Y152345D01*
X197800Y150608D01*
X197812Y150565D01*
X197816Y150531D01*
X197816Y150515D01*
X197818Y150510D01*
X197819Y150499D01*
X198270Y148816D01*
X198289Y148775D01*
X198308Y148712D01*
X199045Y147132D01*
X199071Y147095D01*
X199100Y147036D01*
X200100Y145608D01*
X200132Y145577D01*
X200171Y145524D01*
X201404Y144291D01*
X201440Y144266D01*
X201488Y144220D01*
X202916Y143220D01*
X202957Y143202D01*
X203012Y143165D01*
X204592Y142428D01*
X204635Y142417D01*
X204696Y142390D01*
X206379Y141939D01*
X206424Y141936D01*
X206488Y141920D01*
X208225Y141768D01*
X208269Y141772D01*
X208335Y141768D01*
X210072Y141920D01*
G37*
G36*
X-219188Y141920D02*
X-219188Y141920D01*
X-219145Y141932D01*
X-219079Y141939D01*
X-217396Y142390D01*
X-217355Y142409D01*
X-217292Y142428D01*
X-215712Y143165D01*
X-215675Y143191D01*
X-215616Y143220D01*
X-214188Y144220D01*
X-214157Y144252D01*
X-214104Y144291D01*
X-212871Y145524D01*
X-212846Y145560D01*
X-212800Y145608D01*
X-211800Y147036D01*
X-211782Y147077D01*
X-211745Y147132D01*
X-211008Y148712D01*
X-210997Y148755D01*
X-210970Y148816D01*
X-210519Y150499D01*
X-210517Y150531D01*
X-210510Y150552D01*
X-210510Y150567D01*
X-210500Y150608D01*
X-210348Y152345D01*
X-210352Y152389D01*
X-210348Y152455D01*
X-210500Y154192D01*
X-210512Y154235D01*
X-210519Y154301D01*
X-210970Y155984D01*
X-210989Y156025D01*
X-211008Y156088D01*
X-211745Y157668D01*
X-211771Y157705D01*
X-211800Y157764D01*
X-212800Y159192D01*
X-212832Y159223D01*
X-212871Y159276D01*
X-214104Y160509D01*
X-214140Y160534D01*
X-214188Y160580D01*
X-215616Y161580D01*
X-215657Y161598D01*
X-215712Y161635D01*
X-217292Y162372D01*
X-217335Y162383D01*
X-217396Y162410D01*
X-219079Y162861D01*
X-219124Y162864D01*
X-219188Y162880D01*
X-220925Y163032D01*
X-220969Y163028D01*
X-221035Y163032D01*
X-222772Y162880D01*
X-222815Y162868D01*
X-222881Y162861D01*
X-224564Y162410D01*
X-224605Y162391D01*
X-224668Y162372D01*
X-226248Y161635D01*
X-226285Y161609D01*
X-226344Y161580D01*
X-227772Y160580D01*
X-227803Y160548D01*
X-227856Y160509D01*
X-229089Y159276D01*
X-229114Y159240D01*
X-229160Y159192D01*
X-230160Y157764D01*
X-230178Y157723D01*
X-230215Y157668D01*
X-230952Y156088D01*
X-230963Y156045D01*
X-230990Y155984D01*
X-231441Y154301D01*
X-231444Y154256D01*
X-231460Y154192D01*
X-231612Y152455D01*
X-231608Y152411D01*
X-231612Y152345D01*
X-231460Y150608D01*
X-231448Y150565D01*
X-231444Y150531D01*
X-231444Y150515D01*
X-231442Y150510D01*
X-231441Y150499D01*
X-230990Y148816D01*
X-230971Y148775D01*
X-230952Y148712D01*
X-230215Y147132D01*
X-230189Y147095D01*
X-230160Y147036D01*
X-229160Y145608D01*
X-229128Y145577D01*
X-229089Y145524D01*
X-227856Y144291D01*
X-227820Y144266D01*
X-227772Y144220D01*
X-226344Y143220D01*
X-226303Y143202D01*
X-226248Y143165D01*
X-224668Y142428D01*
X-224625Y142417D01*
X-224564Y142390D01*
X-222881Y141939D01*
X-222836Y141936D01*
X-222772Y141920D01*
X-221035Y141768D01*
X-220991Y141772D01*
X-220925Y141768D01*
X-219188Y141920D01*
G37*
G36*
X204992Y-157800D02*
X204992Y-157800D01*
X205035Y-157788D01*
X205101Y-157781D01*
X206784Y-157330D01*
X206825Y-157311D01*
X206888Y-157292D01*
X208468Y-156555D01*
X208505Y-156529D01*
X208564Y-156500D01*
X209992Y-155500D01*
X210023Y-155468D01*
X210076Y-155429D01*
X211309Y-154196D01*
X211334Y-154160D01*
X211380Y-154112D01*
X212380Y-152684D01*
X212398Y-152643D01*
X212435Y-152588D01*
X213172Y-151008D01*
X213183Y-150965D01*
X213210Y-150904D01*
X213661Y-149221D01*
X213663Y-149189D01*
X213670Y-149168D01*
X213670Y-149153D01*
X213680Y-149112D01*
X213832Y-147375D01*
X213828Y-147331D01*
X213832Y-147265D01*
X213680Y-145528D01*
X213668Y-145485D01*
X213661Y-145419D01*
X213210Y-143736D01*
X213191Y-143695D01*
X213172Y-143632D01*
X212435Y-142052D01*
X212409Y-142015D01*
X212380Y-141956D01*
X211380Y-140528D01*
X211348Y-140497D01*
X211309Y-140444D01*
X210076Y-139211D01*
X210040Y-139186D01*
X209992Y-139140D01*
X208564Y-138140D01*
X208523Y-138122D01*
X208468Y-138085D01*
X206888Y-137348D01*
X206845Y-137337D01*
X206784Y-137310D01*
X205101Y-136859D01*
X205056Y-136856D01*
X204992Y-136840D01*
X203255Y-136688D01*
X203211Y-136692D01*
X203145Y-136688D01*
X201408Y-136840D01*
X201365Y-136852D01*
X201299Y-136859D01*
X199616Y-137310D01*
X199575Y-137329D01*
X199512Y-137348D01*
X197932Y-138085D01*
X197895Y-138111D01*
X197836Y-138140D01*
X196408Y-139140D01*
X196377Y-139172D01*
X196324Y-139211D01*
X195091Y-140444D01*
X195066Y-140480D01*
X195020Y-140528D01*
X194020Y-141956D01*
X194002Y-141997D01*
X193965Y-142052D01*
X193228Y-143632D01*
X193217Y-143675D01*
X193190Y-143736D01*
X192739Y-145419D01*
X192736Y-145464D01*
X192720Y-145528D01*
X192568Y-147265D01*
X192572Y-147309D01*
X192568Y-147375D01*
X192720Y-149112D01*
X192732Y-149155D01*
X192736Y-149189D01*
X192736Y-149205D01*
X192738Y-149210D01*
X192739Y-149221D01*
X193190Y-150904D01*
X193209Y-150945D01*
X193228Y-151008D01*
X193965Y-152588D01*
X193991Y-152625D01*
X194020Y-152684D01*
X195020Y-154112D01*
X195052Y-154143D01*
X195091Y-154196D01*
X196324Y-155429D01*
X196360Y-155454D01*
X196408Y-155500D01*
X197836Y-156500D01*
X197877Y-156518D01*
X197932Y-156555D01*
X199512Y-157292D01*
X199555Y-157303D01*
X199616Y-157330D01*
X201299Y-157781D01*
X201344Y-157784D01*
X201408Y-157800D01*
X203145Y-157952D01*
X203189Y-157948D01*
X203255Y-157952D01*
X204992Y-157800D01*
G37*
D10*
X-254000Y146050D03*
X-254000Y-146050D03*
X254000Y-146050D03*
X254000Y146050D03*
D11*
X-169000Y-128000D03*
X-169000Y76500D03*
D12*
X-94234Y43180D03*
X-32766Y43180D03*
X-94234Y30480D03*
X-94234Y17780D03*
X-32766Y30480D03*
X-32766Y17780D03*
X-94234Y5080D03*
X-32766Y5080D03*
X-94234Y-7620D03*
X-32766Y-7620D03*
X-94234Y-20320D03*
X-94234Y-33020D03*
X-32766Y-20320D03*
X-32766Y-33020D03*
X-94234Y-45720D03*
X-32766Y-45720D03*
D13*
X250970Y-55690D03*
X259970Y76310D03*
D14*
X119970Y-39690D03*
X119970Y20310D03*
D15*
X221970Y-46690D03*
X221970Y-35690D03*
X225970Y-24690D03*
X221970Y-13690D03*
X225970Y-2690D03*
X221970Y8310D03*
X217970Y19310D03*
X221970Y30310D03*
D16*
X-169210Y-97180D03*
X-169210Y-106680D03*
X-169210Y-116180D03*
X-143210Y-116180D03*
X-143210Y-97180D03*
D17*
X-64930Y101600D03*
X-84930Y101600D03*
D18*
X-127000Y121490D03*
X-117500Y99490D03*
X-136500Y99490D03*
D17*
X-162720Y101600D03*
X-182720Y101600D03*
D19*
X-195580Y-106840D03*
X-195580Y-126840D03*
X-118110Y-97950D03*
X-118110Y-117950D03*
D20*
X218280Y-83820D03*
X198280Y-83820D03*
X-74770Y66040D03*
X-54770Y66040D03*
D21*
X-254000Y114300D03*
X-254000Y88900D03*
X-254000Y63500D03*
X-254000Y38100D03*
X-254000Y12700D03*
X-254000Y-12700D03*
X-254000Y-38100D03*
X-254000Y-63500D03*
X-254000Y-88900D03*
X-254000Y-114300D03*
M02*
