M48
;GenerationSoftware,Autodesk,EAGLE,9.6.2*%
;CreationDate,2022-08-18T03:24:22Z*%
FMAT,2
ICI,OFF
METRIC,TZ,000.000
T2C1.016
T1C3.200
%
G90
M71
T1
X3810Y59690
X90170Y59690
X3810Y3810
X90170Y3810
T2
X22860Y17780
X22860Y20320
X22860Y22860
X22860Y25400
X22860Y27940
X10160Y17780
X10160Y20320
X10160Y22860
X10160Y25400
X10160Y27940
X12700Y17780
X12700Y20320
X12700Y22860
X12700Y25400
X12700Y27940
X15240Y17780
X15240Y20320
X15240Y22860
X15240Y25400
X15240Y27940
X17780Y17780
X17780Y20320
X17780Y22860
X17780Y25400
X17780Y27940
X20320Y17780
X20320Y20320
X20320Y22860
X20320Y25400
X20320Y27940
X25400Y17780
X25400Y20320
X25400Y22860
X25400Y25400
X25400Y27940
X27940Y17780
X27940Y20320
X27940Y22860
X27940Y25400
X27940Y27940
X30480Y17780
X30480Y20320
X30480Y22860
X30480Y25400
X30480Y27940
X33020Y17780
X33020Y20320
X33020Y22860
X33020Y25400
X33020Y27940
X35560Y17780
X35560Y20320
X35560Y22860
X35560Y25400
X35560Y27940
X38100Y17780
X38100Y20320
X38100Y22860
X38100Y25400
X38100Y27940
X40640Y17780
X40640Y20320
X40640Y22860
X40640Y25400
X40640Y27940
X43180Y17780
X43180Y20320
X43180Y22860
X43180Y25400
X43180Y27940
X45720Y17780
X45720Y20320
X45720Y22860
X45720Y25400
X45720Y27940
X48260Y17780
X48260Y20320
X48260Y22860
X48260Y25400
X48260Y27940
X50800Y17780
X50800Y20320
X50800Y22860
X50800Y25400
X50800Y27940
X53340Y17780
X53340Y20320
X53340Y22860
X53340Y25400
X53340Y27940
X55880Y17780
X55880Y20320
X55880Y22860
X55880Y25400
X55880Y27940
X58420Y17780
X58420Y20320
X58420Y22860
X58420Y25400
X58420Y27940
X60960Y17780
X60960Y20320
X60960Y22860
X60960Y25400
X60960Y27940
X63500Y17780
X63500Y20320
X63500Y22860
X63500Y25400
X63500Y27940
X66040Y17780
X66040Y20320
X66040Y22860
X66040Y25400
X66040Y27940
X68580Y17780
X68580Y20320
X68580Y22860
X68580Y25400
X68580Y27940
X71120Y17780
X71120Y20320
X71120Y22860
X71120Y25400
X71120Y27940
X73660Y17780
X73660Y20320
X73660Y22860
X73660Y25400
X73660Y27940
X76200Y17780
X76200Y20320
X76200Y22860
X76200Y25400
X76200Y27940
X78740Y17780
X78740Y20320
X78740Y22860
X78740Y25400
X78740Y27940
X81280Y17780
X81280Y20320
X81280Y22860
X81280Y25400
X81280Y27940
X83820Y17780
X83820Y20320
X83820Y22860
X83820Y25400
X83820Y27940
X10160Y35560
X10160Y38100
X10160Y40640
X10160Y43180
X10160Y45720
X12700Y35560
X12700Y38100
X12700Y40640
X12700Y43180
X12700Y45720
X15240Y35560
X15240Y38100
X15240Y40640
X15240Y43180
X15240Y45720
X17780Y35560
X17780Y38100
X17780Y40640
X17780Y43180
X17780Y45720
X20320Y35560
X20320Y38100
X20320Y40640
X20320Y43180
X20320Y45720
X22860Y35560
X22860Y38100
X22860Y40640
X22860Y43180
X22860Y45720
X25400Y35560
X25400Y38100
X25400Y40640
X25400Y43180
X25400Y45720
X27940Y35560
X27940Y38100
X27940Y40640
X27940Y43180
X27940Y45720
X30480Y35560
X30480Y38100
X30480Y40640
X30480Y43180
X30480Y45720
X33020Y35560
X33020Y38100
X33020Y40640
X33020Y43180
X33020Y45720
X35560Y35560
X35560Y38100
X35560Y40640
X35560Y43180
X35560Y45720
X40640Y35560
X40640Y38100
X40640Y40640
X40640Y43180
X40640Y45720
X38100Y35560
X38100Y38100
X38100Y40640
X38100Y43180
X38100Y45720
X43180Y35560
X43180Y38100
X43180Y40640
X43180Y43180
X43180Y45720
X45720Y35560
X45720Y38100
X45720Y40640
X45720Y43180
X45720Y45720
X48260Y35560
X48260Y38100
X48260Y40640
X48260Y43180
X48260Y45720
X50800Y35560
X50800Y38100
X50800Y40640
X50800Y43180
X50800Y45720
X53340Y35560
X53340Y38100
X53340Y40640
X53340Y43180
X53340Y45720
X55880Y35560
X55880Y38100
X55880Y40640
X55880Y43180
X55880Y45720
X58420Y35560
X58420Y38100
X58420Y40640
X58420Y43180
X58420Y45720
X60960Y35560
X60960Y38100
X60960Y40640
X60960Y43180
X60960Y45720
X63500Y35560
X63500Y38100
X63500Y40640
X63500Y43180
X63500Y45720
X66040Y35560
X66040Y38100
X66040Y40640
X66040Y43180
X66040Y45720
X68580Y35560
X68580Y38100
X68580Y40640
X68580Y43180
X68580Y45720
X71120Y35560
X71120Y38100
X71120Y40640
X71120Y43180
X71120Y45720
X73660Y35560
X73660Y38100
X73660Y40640
X73660Y43180
X73660Y45720
X76200Y35560
X76200Y38100
X76200Y40640
X76200Y43180
X76200Y45720
X78740Y35560
X78740Y38100
X78740Y40640
X78740Y43180
X78740Y45720
X81280Y35560
X81280Y38100
X81280Y40640
X81280Y43180
X81280Y45720
X83820Y35560
X83820Y38100
X83820Y40640
X83820Y43180
X83820Y45720
X11430Y55880
X13970Y55880
X16510Y55880
X19050Y55880
X21590Y55880
X24130Y55880
X26670Y55880
X29210Y55880
X31750Y55880
X34290Y55880
X36830Y55880
X39370Y55880
X41910Y55880
X44450Y55880
X46990Y55880
X49530Y55880
X52070Y55880
X54610Y55880
X57150Y55880
X59690Y55880
X62230Y55880
X64770Y55880
X67310Y55880
X69850Y55880
X72390Y55880
X74930Y55880
X77470Y55880
X80010Y55880
X82550Y55880
X11430Y53340
X13970Y53340
X16510Y53340
X19050Y53340
X21590Y53340
X24130Y53340
X26670Y53340
X29210Y53340
X31750Y53340
X34290Y53340
X36830Y53340
X39370Y53340
X41910Y53340
X44450Y53340
X46990Y53340
X49530Y53340
X52070Y53340
X54610Y53340
X57150Y53340
X59690Y53340
X62230Y53340
X64770Y53340
X67310Y53340
X69850Y53340
X72390Y53340
X74930Y53340
X77470Y53340
X80010Y53340
X82550Y53340
X11430Y10160
X13970Y10160
X16510Y10160
X19050Y10160
X21590Y10160
X24130Y10160
X26670Y10160
X29210Y10160
X31750Y10160
X34290Y10160
X36830Y10160
X39370Y10160
X41910Y10160
X44450Y10160
X46990Y10160
X49530Y10160
X52070Y10160
X54610Y10160
X57150Y10160
X59690Y10160
X62230Y10160
X64770Y10160
X67310Y10160
X69850Y10160
X72390Y10160
X74930Y10160
X77470Y10160
X80010Y10160
X82550Y10160
X11430Y7620
X13970Y7620
X16510Y7620
X19050Y7620
X21590Y7620
X24130Y7620
X26670Y7620
X29210Y7620
X31750Y7620
X34290Y7620
X36830Y7620
X39370Y7620
X41910Y7620
X44450Y7620
X46990Y7620
X49530Y7620
X52070Y7620
X54610Y7620
X57150Y7620
X59690Y7620
X62230Y7620
X64770Y7620
X67310Y7620
X69850Y7620
X72390Y7620
X74930Y7620
X77470Y7620
X80010Y7620
X82550Y7620
X82550Y59690
X11430Y59690
X11430Y3810
X82550Y3810
M30