<?xml version="1.0" standalone="no"?>
 <!DOCTYPE svg PUBLIC "-//W3C//DTD SVG 1.1//EN" 
 "http://www.w3.org/Graphics/SVG/1.1/DTD/svg11.dtd"> 
<svg
  xmlns:svg="http://www.w3.org/2000/svg"
  xmlns="http://www.w3.org/2000/svg"
  xmlns:xlink="http://www.w3.org/1999/xlink"
  version="1.1"
  width="29.700220cm" height="21.000720cm" viewBox="0 0 297002200 210007200">
<title>SVG Picture created as boardKicad-User_Comments.svg date 2022/08/16 12:55:40 </title>
  <desc>Picture generated by PCBNEW </desc>
<g style="fill:#000000; fill-opacity:1.000000;stroke:#000000; stroke-opacity:1.000000;
stroke-linecap:round; stroke-linejoin:round;"
 transform="translate(0 0) scale(1 1)">
</g>
<g style="fill:#000000; fill-opacity:0.0; 
stroke:#000000; stroke-width:0.000000; stroke-opacity:1; 
stroke-linecap:round; stroke-linejoin:round;">
</g>
<g style="fill:#000000; fill-opacity:0.0; 
stroke:#000000; stroke-width:21200.000000; stroke-opacity:1; 
stroke-linecap:round; stroke-linejoin:round;">
</g>
<g style="fill:#000000; fill-opacity:0.0; 
stroke:#000000; stroke-width:150000.000000; stroke-opacity:1; 
stroke-linecap:round; stroke-linejoin:round;">
<rect x="177002200.000000" y="166007200.000000" width="108000000.000000" height="32000000.000000" rx="0.000000" />
</g>
<g style="fill:#000000; fill-opacity:0.0; 
stroke:#000000; stroke-width:21200.000000; stroke-opacity:1; 
stroke-linecap:round; stroke-linejoin:round;">
</g>
<g style="fill:#000000; fill-opacity:0.0; 
stroke:#000000; stroke-width:150000.000000; stroke-opacity:1; 
stroke-linecap:round; stroke-linejoin:round;">
<rect x="10000000.000000" y="10000000.000000" width="277002200.000000" height="190007200.000000" rx="0.000000" />
</g>
<g style="fill:#000000; fill-opacity:0.0; 
stroke:#000000; stroke-width:21200.000000; stroke-opacity:1; 
stroke-linecap:round; stroke-linejoin:round;">
</g>
<g style="fill:#000000; fill-opacity:0.0; 
stroke:#000000; stroke-width:150000.000000; stroke-opacity:1; 
stroke-linecap:round; stroke-linejoin:round;">
<rect x="12000000.000000" y="12000000.000000" width="273002200.000000" height="186007200.000000" rx="0.000000" />
</g>
<g style="fill:#000000; fill-opacity:0.0; 
stroke:#000000; stroke-width:21200.000000; stroke-opacity:1; 
stroke-linecap:round; stroke-linejoin:round;">
</g>
<g style="fill:#000000; fill-opacity:0.0; 
stroke:#000000; stroke-width:150000.000000; stroke-opacity:1; 
stroke-linecap:round; stroke-linejoin:round;">
<path d="M60000000 12000000
L60000000 10000000
" />
</g>
<g style="fill:#000000; fill-opacity:0.0; 
stroke:#000000; stroke-width:21200.000000; stroke-opacity:1; 
stroke-linecap:round; stroke-linejoin:round;">
</g>
<g style="fill:#000000; fill-opacity:0.0; 
stroke:#000000; stroke-width:150000.000000; stroke-opacity:1; 
stroke-linecap:round; stroke-linejoin:round;">
<path d="M110000000 12000000
L110000000 10000000
" />
</g>
<g style="fill:#000000; fill-opacity:0.0; 
stroke:#000000; stroke-width:21200.000000; stroke-opacity:1; 
stroke-linecap:round; stroke-linejoin:round;">
</g>
<g style="fill:#000000; fill-opacity:0.0; 
stroke:#000000; stroke-width:150000.000000; stroke-opacity:1; 
stroke-linecap:round; stroke-linejoin:round;">
<path d="M160000000 12000000
L160000000 10000000
" />
</g>
<g style="fill:#000000; fill-opacity:0.0; 
stroke:#000000; stroke-width:21200.000000; stroke-opacity:1; 
stroke-linecap:round; stroke-linejoin:round;">
</g>
<g style="fill:#000000; fill-opacity:0.0; 
stroke:#000000; stroke-width:150000.000000; stroke-opacity:1; 
stroke-linecap:round; stroke-linejoin:round;">
<path d="M210000000 12000000
L210000000 10000000
" />
</g>
<g style="fill:#000000; fill-opacity:0.0; 
stroke:#000000; stroke-width:21200.000000; stroke-opacity:1; 
stroke-linecap:round; stroke-linejoin:round;">
</g>
<g style="fill:#000000; fill-opacity:0.0; 
stroke:#000000; stroke-width:150000.000000; stroke-opacity:1; 
stroke-linecap:round; stroke-linejoin:round;">
<path d="M260000000 12000000
L260000000 10000000
" />
</g>
<g style="fill:#000000; fill-opacity:0.0; 
stroke:#000000; stroke-width:21200.000000; stroke-opacity:1; 
stroke-linecap:round; stroke-linejoin:round;">
</g>
<g style="fill:#000000; fill-opacity:0.0; 
stroke:#000000; stroke-width:150000.000000; stroke-opacity:1; 
stroke-linecap:round; stroke-linejoin:round;">
<text x="35000000.000000" y="11650000.000000"
textLength="1388095.000000" font-size="1733333.000000" lengthAdjust="spacingAndGlyphs"
text-anchor="start" opacity="0">1</text>
<g class="stroked-text"><desc>1</desc>
<path d="M36065476 11588095
L35322619 11588095
" />
<path d="M35694047 11588095
L35694047 10288095
L35570238 10473809
L35446428 10597619
L35322619 10659523
" />
</g></g>
<g style="fill:#000000; fill-opacity:0.0; 
stroke:#000000; stroke-width:21200.000000; stroke-opacity:1; 
stroke-linecap:round; stroke-linejoin:round;">
</g>
<g style="fill:#000000; fill-opacity:0.0; 
stroke:#000000; stroke-width:150000.000000; stroke-opacity:1; 
stroke-linecap:round; stroke-linejoin:round;">
<text x="85000000.000000" y="11650000.000000"
textLength="1388095.000000" font-size="1733333.000000" lengthAdjust="spacingAndGlyphs"
text-anchor="start" opacity="0">2</text>
<g class="stroked-text"><desc>2</desc>
<path d="M85322619 10411904
L85384523 10350000
L85508333 10288095
L85817857 10288095
L85941666 10350000
L86003571 10411904
L86065476 10535714
L86065476 10659523
L86003571 10845238
L85260714 11588095
L86065476 11588095
" />
</g></g>
<g style="fill:#000000; fill-opacity:0.0; 
stroke:#000000; stroke-width:21200.000000; stroke-opacity:1; 
stroke-linecap:round; stroke-linejoin:round;">
</g>
<g style="fill:#000000; fill-opacity:0.0; 
stroke:#000000; stroke-width:150000.000000; stroke-opacity:1; 
stroke-linecap:round; stroke-linejoin:round;">
<text x="135000000.000000" y="11650000.000000"
textLength="1388095.000000" font-size="1733333.000000" lengthAdjust="spacingAndGlyphs"
text-anchor="start" opacity="0">3</text>
<g class="stroked-text"><desc>3</desc>
<path d="M135260714 10288095
L136065476 10288095
L135632142 10783333
L135817857 10783333
L135941666 10845238
L136003571 10907142
L136065476 11030952
L136065476 11340476
L136003571 11464285
L135941666 11526190
L135817857 11588095
L135446428 11588095
L135322619 11526190
L135260714 11464285
" />
</g></g>
<g style="fill:#000000; fill-opacity:0.0; 
stroke:#000000; stroke-width:21200.000000; stroke-opacity:1; 
stroke-linecap:round; stroke-linejoin:round;">
</g>
<g style="fill:#000000; fill-opacity:0.0; 
stroke:#000000; stroke-width:150000.000000; stroke-opacity:1; 
stroke-linecap:round; stroke-linejoin:round;">
<text x="185000000.000000" y="11650000.000000"
textLength="1388095.000000" font-size="1733333.000000" lengthAdjust="spacingAndGlyphs"
text-anchor="start" opacity="0">4</text>
<g class="stroked-text"><desc>4</desc>
<path d="M185941666 10721428
L185941666 11588095
" />
<path d="M185632142 10226190
L185322619 11154761
L186127380 11154761
" />
</g></g>
<g style="fill:#000000; fill-opacity:0.0; 
stroke:#000000; stroke-width:21200.000000; stroke-opacity:1; 
stroke-linecap:round; stroke-linejoin:round;">
</g>
<g style="fill:#000000; fill-opacity:0.0; 
stroke:#000000; stroke-width:150000.000000; stroke-opacity:1; 
stroke-linecap:round; stroke-linejoin:round;">
<text x="235000000.000000" y="11650000.000000"
textLength="1388095.000000" font-size="1733333.000000" lengthAdjust="spacingAndGlyphs"
text-anchor="start" opacity="0">5</text>
<g class="stroked-text"><desc>5</desc>
<path d="M236003571 10288095
L235384523 10288095
L235322619 10907142
L235384523 10845238
L235508333 10783333
L235817857 10783333
L235941666 10845238
L236003571 10907142
L236065476 11030952
L236065476 11340476
L236003571 11464285
L235941666 11526190
L235817857 11588095
L235508333 11588095
L235384523 11526190
L235322619 11464285
" />
</g></g>
<g style="fill:#000000; fill-opacity:0.0; 
stroke:#000000; stroke-width:21200.000000; stroke-opacity:1; 
stroke-linecap:round; stroke-linejoin:round;">
</g>
<g style="fill:#000000; fill-opacity:0.0; 
stroke:#000000; stroke-width:150000.000000; stroke-opacity:1; 
stroke-linecap:round; stroke-linejoin:round;">
<text x="285000000.000000" y="11650000.000000"
textLength="1388095.000000" font-size="1733333.000000" lengthAdjust="spacingAndGlyphs"
text-anchor="start" opacity="0">6</text>
<g class="stroked-text"><desc>6</desc>
<path d="M285941666 10288095
L285694047 10288095
L285570238 10350000
L285508333 10411904
L285384523 10597619
L285322619 10845238
L285322619 11340476
L285384523 11464285
L285446428 11526190
L285570238 11588095
L285817857 11588095
L285941666 11526190
L286003571 11464285
L286065476 11340476
L286065476 11030952
L286003571 10907142
L285941666 10845238
L285817857 10783333
L285570238 10783333
L285446428 10845238
L285384523 10907142
L285322619 11030952
" />
</g></g>
<g style="fill:#000000; fill-opacity:0.0; 
stroke:#000000; stroke-width:21200.000000; stroke-opacity:1; 
stroke-linecap:round; stroke-linejoin:round;">
</g>
<g style="fill:#000000; fill-opacity:0.0; 
stroke:#000000; stroke-width:150000.000000; stroke-opacity:1; 
stroke-linecap:round; stroke-linejoin:round;">
<path d="M60000000 198007200
L60000000 200007200
" />
</g>
<g style="fill:#000000; fill-opacity:0.0; 
stroke:#000000; stroke-width:21200.000000; stroke-opacity:1; 
stroke-linecap:round; stroke-linejoin:round;">
</g>
<g style="fill:#000000; fill-opacity:0.0; 
stroke:#000000; stroke-width:150000.000000; stroke-opacity:1; 
stroke-linecap:round; stroke-linejoin:round;">
<path d="M110000000 198007200
L110000000 200007200
" />
</g>
<g style="fill:#000000; fill-opacity:0.0; 
stroke:#000000; stroke-width:21200.000000; stroke-opacity:1; 
stroke-linecap:round; stroke-linejoin:round;">
</g>
<g style="fill:#000000; fill-opacity:0.0; 
stroke:#000000; stroke-width:150000.000000; stroke-opacity:1; 
stroke-linecap:round; stroke-linejoin:round;">
<path d="M160000000 198007200
L160000000 200007200
" />
</g>
<g style="fill:#000000; fill-opacity:0.0; 
stroke:#000000; stroke-width:21200.000000; stroke-opacity:1; 
stroke-linecap:round; stroke-linejoin:round;">
</g>
<g style="fill:#000000; fill-opacity:0.0; 
stroke:#000000; stroke-width:150000.000000; stroke-opacity:1; 
stroke-linecap:round; stroke-linejoin:round;">
<path d="M210000000 198007200
L210000000 200007200
" />
</g>
<g style="fill:#000000; fill-opacity:0.0; 
stroke:#000000; stroke-width:21200.000000; stroke-opacity:1; 
stroke-linecap:round; stroke-linejoin:round;">
</g>
<g style="fill:#000000; fill-opacity:0.0; 
stroke:#000000; stroke-width:150000.000000; stroke-opacity:1; 
stroke-linecap:round; stroke-linejoin:round;">
<path d="M260000000 198007200
L260000000 200007200
" />
</g>
<g style="fill:#000000; fill-opacity:0.0; 
stroke:#000000; stroke-width:21200.000000; stroke-opacity:1; 
stroke-linecap:round; stroke-linejoin:round;">
</g>
<g style="fill:#000000; fill-opacity:0.0; 
stroke:#000000; stroke-width:150000.000000; stroke-opacity:1; 
stroke-linecap:round; stroke-linejoin:round;">
<text x="35000000.000000" y="199657200.000000"
textLength="1388095.000000" font-size="1733333.000000" lengthAdjust="spacingAndGlyphs"
text-anchor="start" opacity="0">1</text>
<g class="stroked-text"><desc>1</desc>
<path d="M36065476 199595295
L35322619 199595295
" />
<path d="M35694047 199595295
L35694047 198295295
L35570238 198481009
L35446428 198604819
L35322619 198666723
" />
</g></g>
<g style="fill:#000000; fill-opacity:0.0; 
stroke:#000000; stroke-width:21200.000000; stroke-opacity:1; 
stroke-linecap:round; stroke-linejoin:round;">
</g>
<g style="fill:#000000; fill-opacity:0.0; 
stroke:#000000; stroke-width:150000.000000; stroke-opacity:1; 
stroke-linecap:round; stroke-linejoin:round;">
<text x="85000000.000000" y="199657200.000000"
textLength="1388095.000000" font-size="1733333.000000" lengthAdjust="spacingAndGlyphs"
text-anchor="start" opacity="0">2</text>
<g class="stroked-text"><desc>2</desc>
<path d="M85322619 198419104
L85384523 198357200
L85508333 198295295
L85817857 198295295
L85941666 198357200
L86003571 198419104
L86065476 198542914
L86065476 198666723
L86003571 198852438
L85260714 199595295
L86065476 199595295
" />
</g></g>
<g style="fill:#000000; fill-opacity:0.0; 
stroke:#000000; stroke-width:21200.000000; stroke-opacity:1; 
stroke-linecap:round; stroke-linejoin:round;">
</g>
<g style="fill:#000000; fill-opacity:0.0; 
stroke:#000000; stroke-width:150000.000000; stroke-opacity:1; 
stroke-linecap:round; stroke-linejoin:round;">
<text x="135000000.000000" y="199657200.000000"
textLength="1388095.000000" font-size="1733333.000000" lengthAdjust="spacingAndGlyphs"
text-anchor="start" opacity="0">3</text>
<g class="stroked-text"><desc>3</desc>
<path d="M135260714 198295295
L136065476 198295295
L135632142 198790533
L135817857 198790533
L135941666 198852438
L136003571 198914342
L136065476 199038152
L136065476 199347676
L136003571 199471485
L135941666 199533390
L135817857 199595295
L135446428 199595295
L135322619 199533390
L135260714 199471485
" />
</g></g>
<g style="fill:#000000; fill-opacity:0.0; 
stroke:#000000; stroke-width:21200.000000; stroke-opacity:1; 
stroke-linecap:round; stroke-linejoin:round;">
</g>
<g style="fill:#000000; fill-opacity:0.0; 
stroke:#000000; stroke-width:150000.000000; stroke-opacity:1; 
stroke-linecap:round; stroke-linejoin:round;">
<text x="185000000.000000" y="199657200.000000"
textLength="1388095.000000" font-size="1733333.000000" lengthAdjust="spacingAndGlyphs"
text-anchor="start" opacity="0">4</text>
<g class="stroked-text"><desc>4</desc>
<path d="M185941666 198728628
L185941666 199595295
" />
<path d="M185632142 198233390
L185322619 199161961
L186127380 199161961
" />
</g></g>
<g style="fill:#000000; fill-opacity:0.0; 
stroke:#000000; stroke-width:21200.000000; stroke-opacity:1; 
stroke-linecap:round; stroke-linejoin:round;">
</g>
<g style="fill:#000000; fill-opacity:0.0; 
stroke:#000000; stroke-width:150000.000000; stroke-opacity:1; 
stroke-linecap:round; stroke-linejoin:round;">
<text x="235000000.000000" y="199657200.000000"
textLength="1388095.000000" font-size="1733333.000000" lengthAdjust="spacingAndGlyphs"
text-anchor="start" opacity="0">5</text>
<g class="stroked-text"><desc>5</desc>
<path d="M236003571 198295295
L235384523 198295295
L235322619 198914342
L235384523 198852438
L235508333 198790533
L235817857 198790533
L235941666 198852438
L236003571 198914342
L236065476 199038152
L236065476 199347676
L236003571 199471485
L235941666 199533390
L235817857 199595295
L235508333 199595295
L235384523 199533390
L235322619 199471485
" />
</g></g>
<g style="fill:#000000; fill-opacity:0.0; 
stroke:#000000; stroke-width:21200.000000; stroke-opacity:1; 
stroke-linecap:round; stroke-linejoin:round;">
</g>
<g style="fill:#000000; fill-opacity:0.0; 
stroke:#000000; stroke-width:150000.000000; stroke-opacity:1; 
stroke-linecap:round; stroke-linejoin:round;">
<text x="285000000.000000" y="199657200.000000"
textLength="1388095.000000" font-size="1733333.000000" lengthAdjust="spacingAndGlyphs"
text-anchor="start" opacity="0">6</text>
<g class="stroked-text"><desc>6</desc>
<path d="M285941666 198295295
L285694047 198295295
L285570238 198357200
L285508333 198419104
L285384523 198604819
L285322619 198852438
L285322619 199347676
L285384523 199471485
L285446428 199533390
L285570238 199595295
L285817857 199595295
L285941666 199533390
L286003571 199471485
L286065476 199347676
L286065476 199038152
L286003571 198914342
L285941666 198852438
L285817857 198790533
L285570238 198790533
L285446428 198852438
L285384523 198914342
L285322619 199038152
" />
</g></g>
<g style="fill:#000000; fill-opacity:0.0; 
stroke:#000000; stroke-width:21200.000000; stroke-opacity:1; 
stroke-linecap:round; stroke-linejoin:round;">
</g>
<g style="fill:#000000; fill-opacity:0.0; 
stroke:#000000; stroke-width:150000.000000; stroke-opacity:1; 
stroke-linecap:round; stroke-linejoin:round;">
<path d="M10000000 60000000
L12000000 60000000
" />
</g>
<g style="fill:#000000; fill-opacity:0.0; 
stroke:#000000; stroke-width:21200.000000; stroke-opacity:1; 
stroke-linecap:round; stroke-linejoin:round;">
</g>
<g style="fill:#000000; fill-opacity:0.0; 
stroke:#000000; stroke-width:150000.000000; stroke-opacity:1; 
stroke-linecap:round; stroke-linejoin:round;">
<path d="M10000000 110000000
L12000000 110000000
" />
</g>
<g style="fill:#000000; fill-opacity:0.0; 
stroke:#000000; stroke-width:21200.000000; stroke-opacity:1; 
stroke-linecap:round; stroke-linejoin:round;">
</g>
<g style="fill:#000000; fill-opacity:0.0; 
stroke:#000000; stroke-width:150000.000000; stroke-opacity:1; 
stroke-linecap:round; stroke-linejoin:round;">
<path d="M10000000 160000000
L12000000 160000000
" />
</g>
<g style="fill:#000000; fill-opacity:0.0; 
stroke:#000000; stroke-width:21200.000000; stroke-opacity:1; 
stroke-linecap:round; stroke-linejoin:round;">
</g>
<g style="fill:#000000; fill-opacity:0.0; 
stroke:#000000; stroke-width:150000.000000; stroke-opacity:1; 
stroke-linecap:round; stroke-linejoin:round;">
<text x="11000000.000000" y="35650000.000000"
textLength="1264286.000000" font-size="1733333.000000" lengthAdjust="spacingAndGlyphs"
text-anchor="middle" opacity="0">A</text>
<g class="stroked-text"><desc>A</desc>
<path d="M10690476 35216666
L11309523 35216666
" />
<path d="M10566666 35588095
L11000000 34288095
L11433333 35588095
" />
</g></g>
<g style="fill:#000000; fill-opacity:0.0; 
stroke:#000000; stroke-width:21200.000000; stroke-opacity:1; 
stroke-linecap:round; stroke-linejoin:round;">
</g>
<g style="fill:#000000; fill-opacity:0.0; 
stroke:#000000; stroke-width:150000.000000; stroke-opacity:1; 
stroke-linecap:round; stroke-linejoin:round;">
<text x="11000000.000000" y="85650000.000000"
textLength="1450000.000000" font-size="1733333.000000" lengthAdjust="spacingAndGlyphs"
text-anchor="middle" opacity="0">B</text>
<g class="stroked-text"><desc>B</desc>
<path d="M11092857 84907142
L11278571 84969047
L11340476 85030952
L11402380 85154761
L11402380 85340476
L11340476 85464285
L11278571 85526190
L11154761 85588095
L10659523 85588095
L10659523 84288095
L11092857 84288095
L11216666 84350000
L11278571 84411904
L11340476 84535714
L11340476 84659523
L11278571 84783333
L11216666 84845238
L11092857 84907142
L10659523 84907142
" />
</g></g>
<g style="fill:#000000; fill-opacity:0.0; 
stroke:#000000; stroke-width:21200.000000; stroke-opacity:1; 
stroke-linecap:round; stroke-linejoin:round;">
</g>
<g style="fill:#000000; fill-opacity:0.0; 
stroke:#000000; stroke-width:150000.000000; stroke-opacity:1; 
stroke-linecap:round; stroke-linejoin:round;">
<text x="11000000.000000" y="135650000.000000"
textLength="1450000.000000" font-size="1733333.000000" lengthAdjust="spacingAndGlyphs"
text-anchor="middle" opacity="0">C</text>
<g class="stroked-text"><desc>C</desc>
<path d="M11402380 135464285
L11340476 135526190
L11154761 135588095
L11030952 135588095
L10845238 135526190
L10721428 135402380
L10659523 135278571
L10597619 135030952
L10597619 134845238
L10659523 134597619
L10721428 134473809
L10845238 134350000
L11030952 134288095
L11154761 134288095
L11340476 134350000
L11402380 134411904
" />
</g></g>
<g style="fill:#000000; fill-opacity:0.0; 
stroke:#000000; stroke-width:21200.000000; stroke-opacity:1; 
stroke-linecap:round; stroke-linejoin:round;">
</g>
<g style="fill:#000000; fill-opacity:0.0; 
stroke:#000000; stroke-width:150000.000000; stroke-opacity:1; 
stroke-linecap:round; stroke-linejoin:round;">
<text x="11000000.000000" y="185650000.000000"
textLength="1450000.000000" font-size="1733333.000000" lengthAdjust="spacingAndGlyphs"
text-anchor="middle" opacity="0">D</text>
<g class="stroked-text"><desc>D</desc>
<path d="M10659523 185588095
L10659523 184288095
L10969047 184288095
L11154761 184350000
L11278571 184473809
L11340476 184597619
L11402380 184845238
L11402380 185030952
L11340476 185278571
L11278571 185402380
L11154761 185526190
L10969047 185588095
L10659523 185588095
" />
</g></g>
<g style="fill:#000000; fill-opacity:0.0; 
stroke:#000000; stroke-width:21200.000000; stroke-opacity:1; 
stroke-linecap:round; stroke-linejoin:round;">
</g>
<g style="fill:#000000; fill-opacity:0.0; 
stroke:#000000; stroke-width:150000.000000; stroke-opacity:1; 
stroke-linecap:round; stroke-linejoin:round;">
<path d="M287002200 60000000
L285002200 60000000
" />
</g>
<g style="fill:#000000; fill-opacity:0.0; 
stroke:#000000; stroke-width:21200.000000; stroke-opacity:1; 
stroke-linecap:round; stroke-linejoin:round;">
</g>
<g style="fill:#000000; fill-opacity:0.0; 
stroke:#000000; stroke-width:150000.000000; stroke-opacity:1; 
stroke-linecap:round; stroke-linejoin:round;">
<path d="M287002200 110000000
L285002200 110000000
" />
</g>
<g style="fill:#000000; fill-opacity:0.0; 
stroke:#000000; stroke-width:21200.000000; stroke-opacity:1; 
stroke-linecap:round; stroke-linejoin:round;">
</g>
<g style="fill:#000000; fill-opacity:0.0; 
stroke:#000000; stroke-width:150000.000000; stroke-opacity:1; 
stroke-linecap:round; stroke-linejoin:round;">
<path d="M287002200 160000000
L285002200 160000000
" />
</g>
<g style="fill:#000000; fill-opacity:0.0; 
stroke:#000000; stroke-width:21200.000000; stroke-opacity:1; 
stroke-linecap:round; stroke-linejoin:round;">
</g>
<g style="fill:#000000; fill-opacity:0.0; 
stroke:#000000; stroke-width:150000.000000; stroke-opacity:1; 
stroke-linecap:round; stroke-linejoin:round;">
<text x="286002200.000000" y="35650000.000000"
textLength="1264286.000000" font-size="1733333.000000" lengthAdjust="spacingAndGlyphs"
text-anchor="middle" opacity="0">A</text>
<g class="stroked-text"><desc>A</desc>
<path d="M285692676 35216666
L286311723 35216666
" />
<path d="M285568866 35588095
L286002200 34288095
L286435533 35588095
" />
</g></g>
<g style="fill:#000000; fill-opacity:0.0; 
stroke:#000000; stroke-width:21200.000000; stroke-opacity:1; 
stroke-linecap:round; stroke-linejoin:round;">
</g>
<g style="fill:#000000; fill-opacity:0.0; 
stroke:#000000; stroke-width:150000.000000; stroke-opacity:1; 
stroke-linecap:round; stroke-linejoin:round;">
<text x="286002200.000000" y="85650000.000000"
textLength="1450000.000000" font-size="1733333.000000" lengthAdjust="spacingAndGlyphs"
text-anchor="middle" opacity="0">B</text>
<g class="stroked-text"><desc>B</desc>
<path d="M286095057 84907142
L286280771 84969047
L286342676 85030952
L286404580 85154761
L286404580 85340476
L286342676 85464285
L286280771 85526190
L286156961 85588095
L285661723 85588095
L285661723 84288095
L286095057 84288095
L286218866 84350000
L286280771 84411904
L286342676 84535714
L286342676 84659523
L286280771 84783333
L286218866 84845238
L286095057 84907142
L285661723 84907142
" />
</g></g>
<g style="fill:#000000; fill-opacity:0.0; 
stroke:#000000; stroke-width:21200.000000; stroke-opacity:1; 
stroke-linecap:round; stroke-linejoin:round;">
</g>
<g style="fill:#000000; fill-opacity:0.0; 
stroke:#000000; stroke-width:150000.000000; stroke-opacity:1; 
stroke-linecap:round; stroke-linejoin:round;">
<text x="286002200.000000" y="135650000.000000"
textLength="1450000.000000" font-size="1733333.000000" lengthAdjust="spacingAndGlyphs"
text-anchor="middle" opacity="0">C</text>
<g class="stroked-text"><desc>C</desc>
<path d="M286404580 135464285
L286342676 135526190
L286156961 135588095
L286033152 135588095
L285847438 135526190
L285723628 135402380
L285661723 135278571
L285599819 135030952
L285599819 134845238
L285661723 134597619
L285723628 134473809
L285847438 134350000
L286033152 134288095
L286156961 134288095
L286342676 134350000
L286404580 134411904
" />
</g></g>
<g style="fill:#000000; fill-opacity:0.0; 
stroke:#000000; stroke-width:21200.000000; stroke-opacity:1; 
stroke-linecap:round; stroke-linejoin:round;">
</g>
<g style="fill:#000000; fill-opacity:0.0; 
stroke:#000000; stroke-width:150000.000000; stroke-opacity:1; 
stroke-linecap:round; stroke-linejoin:round;">
<text x="286002200.000000" y="185650000.000000"
textLength="1450000.000000" font-size="1733333.000000" lengthAdjust="spacingAndGlyphs"
text-anchor="middle" opacity="0">D</text>
<g class="stroked-text"><desc>D</desc>
<path d="M285661723 185588095
L285661723 184288095
L285971247 184288095
L286156961 184350000
L286280771 184473809
L286342676 184597619
L286404580 184845238
L286404580 185030952
L286342676 185278571
L286280771 185402380
L286156961 185526190
L285971247 185588095
L285661723 185588095
" />
</g></g>
<g style="fill:#000000; fill-opacity:0.0; 
stroke:#000000; stroke-width:21200.000000; stroke-opacity:1; 
stroke-linecap:round; stroke-linejoin:round;">
</g>
<g style="fill:#000000; fill-opacity:0.0; 
stroke:#000000; stroke-width:150000.000000; stroke-opacity:1; 
stroke-linecap:round; stroke-linejoin:round;">
<text x="200002200.000000" y="193857200.000000"
textLength="7007143.000000" font-size="2000000.000000" lengthAdjust="spacingAndGlyphs"
text-anchor="start" opacity="0">Date: </text>
<g class="stroked-text"><desc>Date: </desc>
<path d="M200434342 193785771
L200434342 192285771
L200791485 192285771
L201005771 192357200
L201148628 192500057
L201220057 192642914
L201291485 192928628
L201291485 193142914
L201220057 193428628
L201148628 193571485
L201005771 193714342
L200791485 193785771
L200434342 193785771
" />
<path d="M202577200 193785771
L202577200 193000057
L202505771 192857200
L202362914 192785771
L202077200 192785771
L201934342 192857200
" />
<path d="M202577200 193714342
L202434342 193785771
L202077200 193785771
L201934342 193714342
L201862914 193571485
L201862914 193428628
L201934342 193285771
L202077200 193214342
L202434342 193214342
L202577200 193142914
" />
<path d="M203077200 192785771
L203648628 192785771
" />
<path d="M203291485 192285771
L203291485 193571485
L203362914 193714342
L203505771 193785771
L203648628 193785771
" />
<path d="M204720057 193714342
L204577200 193785771
L204291485 193785771
L204148628 193714342
L204077200 193571485
L204077200 193000057
L204148628 192857200
L204291485 192785771
L204577200 192785771
L204720057 192857200
L204791485 193000057
L204791485 193142914
L204077200 193285771
" />
<path d="M205434342 193642914
L205505771 193714342
L205434342 193785771
L205362914 193714342
L205434342 193642914
L205434342 193785771
" />
<path d="M205434342 192857200
L205505771 192928628
L205434342 193000057
L205362914 192928628
L205434342 192857200
L205434342 193000057
" />
</g></g>
<g style="fill:#000000; fill-opacity:0.0; 
stroke:#000000; stroke-width:21200.000000; stroke-opacity:1; 
stroke-linecap:round; stroke-linejoin:round;">
</g>
<g style="fill:#000000; fill-opacity:0.0; 
stroke:#000000; stroke-width:150000.000000; stroke-opacity:1; 
stroke-linecap:round; stroke-linejoin:round;">
<path d="M177002200 194507200
L285002200 194507200
" />
</g>
<g style="fill:#000000; fill-opacity:0.0; 
stroke:#000000; stroke-width:21200.000000; stroke-opacity:1; 
stroke-linecap:round; stroke-linejoin:round;">
</g>
<g style="fill:#000000; fill-opacity:0.0; 
stroke:#000000; stroke-width:150000.000000; stroke-opacity:1; 
stroke-linecap:round; stroke-linejoin:round;">
<text x="178002200.000000" y="196657200.000000"
textLength="33364286.000000" font-size="2000000.000000" lengthAdjust="spacingAndGlyphs"
text-anchor="start" opacity="0">KiCad E.D.A.  pcbnew (6.0.6)</text>
<g class="stroked-text"><desc>KiCad E.D.A.  pcbnew (6.0.6)</desc>
<path d="M178434342 196585771
L178434342 195085771
" />
<path d="M179291485 196585771
L178648628 195728628
" />
<path d="M179291485 195085771
L178434342 195942914
" />
<path d="M179934342 196585771
L179934342 195585771
" />
<path d="M179934342 195085771
L179862914 195157200
L179934342 195228628
L180005771 195157200
L179934342 195085771
L179934342 195228628
" />
<path d="M181505771 196442914
L181434342 196514342
L181220057 196585771
L181077200 196585771
L180862914 196514342
L180720057 196371485
L180648628 196228628
L180577200 195942914
L180577200 195728628
L180648628 195442914
L180720057 195300057
L180862914 195157200
L181077200 195085771
L181220057 195085771
L181434342 195157200
L181505771 195228628
" />
<path d="M182791485 196585771
L182791485 195800057
L182720057 195657200
L182577200 195585771
L182291485 195585771
L182148628 195657200
" />
<path d="M182791485 196514342
L182648628 196585771
L182291485 196585771
L182148628 196514342
L182077200 196371485
L182077200 196228628
L182148628 196085771
L182291485 196014342
L182648628 196014342
L182791485 195942914
" />
<path d="M184148628 196585771
L184148628 195085771
" />
<path d="M184148628 196514342
L184005771 196585771
L183720057 196585771
L183577200 196514342
L183505771 196442914
L183434342 196300057
L183434342 195871485
L183505771 195728628
L183577200 195657200
L183720057 195585771
L184005771 195585771
L184148628 195657200
" />
<path d="M186005771 195800057
L186505771 195800057
" />
<path d="M186720057 196585771
L186005771 196585771
L186005771 195085771
L186720057 195085771
" />
<path d="M187362914 196442914
L187434342 196514342
L187362914 196585771
L187291485 196514342
L187362914 196442914
L187362914 196585771
" />
<path d="M188077200 196585771
L188077200 195085771
L188434342 195085771
L188648628 195157200
L188791485 195300057
L188862914 195442914
L188934342 195728628
L188934342 195942914
L188862914 196228628
L188791485 196371485
L188648628 196514342
L188434342 196585771
L188077200 196585771
" />
<path d="M189577200 196442914
L189648628 196514342
L189577200 196585771
L189505771 196514342
L189577200 196442914
L189577200 196585771
" />
<path d="M190220057 196157200
L190934342 196157200
" />
<path d="M190077200 196585771
L190577200 195085771
L191077200 196585771
" />
<path d="M191577200 196442914
L191648628 196514342
L191577200 196585771
L191505771 196514342
L191577200 196442914
L191577200 196585771
" />
<path d="M194577200 195585771
L194577200 197085771
" />
<path d="M194577200 195657200
L194720057 195585771
L195005771 195585771
L195148628 195657200
L195220057 195728628
L195291485 195871485
L195291485 196300057
L195220057 196442914
L195148628 196514342
L195005771 196585771
L194720057 196585771
L194577200 196514342
" />
<path d="M196577200 196514342
L196434342 196585771
L196148628 196585771
L196005771 196514342
L195934342 196442914
L195862914 196300057
L195862914 195871485
L195934342 195728628
L196005771 195657200
L196148628 195585771
L196434342 195585771
L196577200 195657200
" />
<path d="M197220057 196585771
L197220057 195085771
" />
<path d="M197220057 195657200
L197362914 195585771
L197648628 195585771
L197791485 195657200
L197862914 195728628
L197934342 195871485
L197934342 196300057
L197862914 196442914
L197791485 196514342
L197648628 196585771
L197362914 196585771
L197220057 196514342
" />
<path d="M198577200 195585771
L198577200 196585771
" />
<path d="M198577200 195728628
L198648628 195657200
L198791485 195585771
L199005771 195585771
L199148628 195657200
L199220057 195800057
L199220057 196585771
" />
<path d="M200505771 196514342
L200362914 196585771
L200077200 196585771
L199934342 196514342
L199862914 196371485
L199862914 195800057
L199934342 195657200
L200077200 195585771
L200362914 195585771
L200505771 195657200
L200577200 195800057
L200577200 195942914
L199862914 196085771
" />
<path d="M201077200 195585771
L201362914 196585771
L201648628 195871485
L201934342 196585771
L202220057 195585771
" />
<path d="M204362914 197157200
L204291485 197085771
L204148628 196871485
L204077200 196728628
L204005771 196514342
L203934342 196157200
L203934342 195871485
L204005771 195514342
L204077200 195300057
L204148628 195157200
L204291485 194942914
L204362914 194871485
" />
<path d="M205577200 195085771
L205291485 195085771
L205148628 195157200
L205077200 195228628
L204934342 195442914
L204862914 195728628
L204862914 196300057
L204934342 196442914
L205005771 196514342
L205148628 196585771
L205434342 196585771
L205577200 196514342
L205648628 196442914
L205720057 196300057
L205720057 195942914
L205648628 195800057
L205577200 195728628
L205434342 195657200
L205148628 195657200
L205005771 195728628
L204934342 195800057
L204862914 195942914
" />
<path d="M206362914 196442914
L206434342 196514342
L206362914 196585771
L206291485 196514342
L206362914 196442914
L206362914 196585771
" />
<path d="M207362914 195085771
L207505771 195085771
L207648628 195157200
L207720057 195228628
L207791485 195371485
L207862914 195657200
L207862914 196014342
L207791485 196300057
L207720057 196442914
L207648628 196514342
L207505771 196585771
L207362914 196585771
L207220057 196514342
L207148628 196442914
L207077200 196300057
L207005771 196014342
L207005771 195657200
L207077200 195371485
L207148628 195228628
L207220057 195157200
L207362914 195085771
" />
<path d="M208505771 196442914
L208577200 196514342
L208505771 196585771
L208434342 196514342
L208505771 196442914
L208505771 196585771
" />
<path d="M209862914 195085771
L209577200 195085771
L209434342 195157200
L209362914 195228628
L209220057 195442914
L209148628 195728628
L209148628 196300057
L209220057 196442914
L209291485 196514342
L209434342 196585771
L209720057 196585771
L209862914 196514342
L209934342 196442914
L210005771 196300057
L210005771 195942914
L209934342 195800057
L209862914 195728628
L209720057 195657200
L209434342 195657200
L209291485 195728628
L209220057 195800057
L209148628 195942914
" />
<path d="M210505771 197157200
L210577200 197085771
L210720057 196871485
L210791485 196728628
L210862914 196514342
L210934342 196157200
L210934342 195871485
L210862914 195514342
L210791485 195300057
L210720057 195157200
L210577200 194942914
L210505771 194871485
" />
</g></g>
<g style="fill:#000000; fill-opacity:0.0; 
stroke:#000000; stroke-width:21200.000000; stroke-opacity:1; 
stroke-linecap:round; stroke-linejoin:round;">
</g>
<g style="fill:#000000; fill-opacity:0.0; 
stroke:#000000; stroke-width:150000.000000; stroke-opacity:1; 
stroke-linecap:round; stroke-linejoin:round;">
<path d="M177002200 191507200
L285002200 191507200
" />
</g>
<g style="fill:#000000; fill-opacity:0.0; 
stroke:#000000; stroke-width:21200.000000; stroke-opacity:1; 
stroke-linecap:round; stroke-linejoin:round;">
</g>
<g style="fill:#000000; fill-opacity:0.0; 
stroke:#000000; stroke-width:300000.000000; stroke-opacity:1; 
stroke-linecap:round; stroke-linejoin:round;">
<text x="263002200.000000" y="193857200.000000"
textLength="5935714.000000" font-size="2000000.000000" lengthAdjust="spacingAndGlyphs"
text-anchor="start" opacity="0">Rev: </text>
<g class="stroked-text"><desc>Rev: </desc>
<path d="M264411485 193785771
L263911485 193071485
" />
<path d="M263554342 193785771
L263554342 192285771
L264125771 192285771
L264268628 192357200
L264340057 192428628
L264411485 192571485
L264411485 192785771
L264340057 192928628
L264268628 193000057
L264125771 193071485
L263554342 193071485
" />
<path d="M265625771 193714342
L265482914 193785771
L265197200 193785771
L265054342 193714342
L264982914 193571485
L264982914 193000057
L265054342 192857200
L265197200 192785771
L265482914 192785771
L265625771 192857200
L265697200 193000057
L265697200 193142914
L264982914 193285771
" />
<path d="M266197200 192785771
L266554342 193785771
L266911485 192785771
" />
<path d="M267482914 193642914
L267554342 193714342
L267482914 193785771
L267411485 193714342
L267482914 193642914
L267482914 193785771
" />
<path d="M267482914 192857200
L267554342 192928628
L267482914 193000057
L267411485 192928628
L267482914 192857200
L267482914 193000057
" />
</g></g>
<g style="fill:#000000; fill-opacity:0.0; 
stroke:#000000; stroke-width:21200.000000; stroke-opacity:1; 
stroke-linecap:round; stroke-linejoin:round;">
</g>
<g style="fill:#000000; fill-opacity:0.0; 
stroke:#000000; stroke-width:150000.000000; stroke-opacity:1; 
stroke-linecap:round; stroke-linejoin:round;">
<text x="178002200.000000" y="193857200.000000"
textLength="9604286.000000" font-size="2000000.000000" lengthAdjust="spacingAndGlyphs"
text-anchor="start" opacity="0">Size: A4</text>
<g class="stroked-text"><desc>Size: A4</desc>
<path d="M178362914 193714342
L178577200 193785771
L178934342 193785771
L179077200 193714342
L179148628 193642914
L179220057 193500057
L179220057 193357200
L179148628 193214342
L179077200 193142914
L178934342 193071485
L178648628 193000057
L178505771 192928628
L178434342 192857200
L178362914 192714342
L178362914 192571485
L178434342 192428628
L178505771 192357200
L178648628 192285771
L179005771 192285771
L179220057 192357200
" />
<path d="M179862914 193785771
L179862914 192785771
" />
<path d="M179862914 192285771
L179791485 192357200
L179862914 192428628
L179934342 192357200
L179862914 192285771
L179862914 192428628
" />
<path d="M180434342 192785771
L181220057 192785771
L180434342 193785771
L181220057 193785771
" />
<path d="M182362914 193714342
L182220057 193785771
L181934342 193785771
L181791485 193714342
L181720057 193571485
L181720057 193000057
L181791485 192857200
L181934342 192785771
L182220057 192785771
L182362914 192857200
L182434342 193000057
L182434342 193142914
L181720057 193285771
" />
<path d="M183077200 193642914
L183148628 193714342
L183077200 193785771
L183005771 193714342
L183077200 193642914
L183077200 193785771
" />
<path d="M183077200 192857200
L183148628 192928628
L183077200 193000057
L183005771 192928628
L183077200 192857200
L183077200 193000057
" />
<path d="M184862914 193357200
L185577200 193357200
" />
<path d="M184720057 193785771
L185220057 192285771
L185720057 193785771
" />
<path d="M186862914 192785771
L186862914 193785771
" />
<path d="M186505771 192214342
L186148628 193285771
L187077200 193285771
" />
</g></g>
<g style="fill:#000000; fill-opacity:0.0; 
stroke:#000000; stroke-width:21200.000000; stroke-opacity:1; 
stroke-linecap:round; stroke-linejoin:round;">
</g>
<g style="fill:#000000; fill-opacity:0.0; 
stroke:#000000; stroke-width:150000.000000; stroke-opacity:1; 
stroke-linecap:round; stroke-linejoin:round;">
<text x="263002200.000000" y="196657200.000000"
textLength="8507143.000000" font-size="2000000.000000" lengthAdjust="spacingAndGlyphs"
text-anchor="start" opacity="0">Id: 1/1</text>
<g class="stroked-text"><desc>Id: 1/1</desc>
<path d="M263434342 196585771
L263434342 195085771
" />
<path d="M264791485 196585771
L264791485 195085771
" />
<path d="M264791485 196514342
L264648628 196585771
L264362914 196585771
L264220057 196514342
L264148628 196442914
L264077200 196300057
L264077200 195871485
L264148628 195728628
L264220057 195657200
L264362914 195585771
L264648628 195585771
L264791485 195657200
" />
<path d="M265505771 196442914
L265577200 196514342
L265505771 196585771
L265434342 196514342
L265505771 196442914
L265505771 196585771
" />
<path d="M265505771 195657200
L265577200 195728628
L265505771 195800057
L265434342 195728628
L265505771 195657200
L265505771 195800057
" />
<path d="M268148628 196585771
L267291485 196585771
" />
<path d="M267720057 196585771
L267720057 195085771
L267577200 195300057
L267434342 195442914
L267291485 195514342
" />
<path d="M269862914 195014342
L268577200 196942914
" />
<path d="M271148628 196585771
L270291485 196585771
" />
<path d="M270720057 196585771
L270720057 195085771
L270577200 195300057
L270434342 195442914
L270291485 195514342
" />
</g></g>
<g style="fill:#000000; fill-opacity:0.0; 
stroke:#000000; stroke-width:21200.000000; stroke-opacity:1; 
stroke-linecap:round; stroke-linejoin:round;">
</g>
<g style="fill:#000000; fill-opacity:0.0; 
stroke:#000000; stroke-width:150000.000000; stroke-opacity:1; 
stroke-linecap:round; stroke-linejoin:round;">
<path d="M177002200 187507200
L285002200 187507200
" />
</g>
<g style="fill:#000000; fill-opacity:0.0; 
stroke:#000000; stroke-width:21200.000000; stroke-opacity:1; 
stroke-linecap:round; stroke-linejoin:round;">
</g>
<g style="fill:#000000; fill-opacity:0.0; 
stroke:#000000; stroke-width:400000.000000; stroke-opacity:1; 
stroke-linecap:round; stroke-linejoin:round;">
<text x="178002200.000000" y="190307200.000000"
textLength="9409643.000000" font-size="2666666.000000" lengthAdjust="spacingAndGlyphs"
text-anchor="start" opacity="0">Title: </text>
<g class="stroked-text"><desc>Title: </desc>
<path d="M178714580 188211961
L179857438 188211961
" />
<path d="M179036009 190211961
L179286009 188211961
" />
<path d="M180274104 190211961
L180440771 188878628
" />
<path d="M180524104 188211961
L180416961 188307200
L180500295 188402438
L180607438 188307200
L180524104 188211961
L180500295 188402438
" />
<path d="M181107438 188878628
L181869342 188878628
" />
<path d="M181476485 188211961
L181262200 189926247
L181333628 190116723
L181512200 190211961
L181702676 190211961
" />
<path d="M182655057 190211961
L182476485 190116723
L182405057 189926247
L182619342 188211961
" />
<path d="M184190771 190116723
L183988390 190211961
L183607438 190211961
L183428866 190116723
L183357438 189926247
L183452676 189164342
L183571723 188973866
L183774104 188878628
L184155057 188878628
L184333628 188973866
L184405057 189164342
L184381247 189354819
L183405057 189545295
" />
<path d="M185155057 190021485
L185238390 190116723
L185131247 190211961
L185047914 190116723
L185155057 190021485
L185131247 190211961
" />
<path d="M185286009 188973866
L185369342 189069104
L185262200 189164342
L185178866 189069104
L185286009 188973866
L185262200 189164342
" />
</g></g>
<g style="fill:#000000; fill-opacity:0.0; 
stroke:#000000; stroke-width:21200.000000; stroke-opacity:1; 
stroke-linecap:round; stroke-linejoin:round;">
</g>
<g style="fill:#000000; fill-opacity:0.0; 
stroke:#000000; stroke-width:150000.000000; stroke-opacity:1; 
stroke-linecap:round; stroke-linejoin:round;">
<text x="178002200.000000" y="186457200.000000"
textLength="30805714.000000" font-size="2000000.000000" lengthAdjust="spacingAndGlyphs"
text-anchor="start" opacity="0">File: boardKicad.kicad_pcb</text>
<g class="stroked-text"><desc>File: boardKicad.kicad_pcb</desc>
<path d="M178934342 185600057
L178434342 185600057
" />
<path d="M178434342 186385771
L178434342 184885771
L179148628 184885771
" />
<path d="M179720057 186385771
L179720057 185385771
" />
<path d="M179720057 184885771
L179648628 184957200
L179720057 185028628
L179791485 184957200
L179720057 184885771
L179720057 185028628
" />
<path d="M180648628 186385771
L180505771 186314342
L180434342 186171485
L180434342 184885771
" />
<path d="M181791485 186314342
L181648628 186385771
L181362914 186385771
L181220057 186314342
L181148628 186171485
L181148628 185600057
L181220057 185457200
L181362914 185385771
L181648628 185385771
L181791485 185457200
L181862914 185600057
L181862914 185742914
L181148628 185885771
" />
<path d="M182505771 186242914
L182577200 186314342
L182505771 186385771
L182434342 186314342
L182505771 186242914
L182505771 186385771
" />
<path d="M182505771 185457200
L182577200 185528628
L182505771 185600057
L182434342 185528628
L182505771 185457200
L182505771 185600057
" />
<path d="M184362914 186385771
L184362914 184885771
" />
<path d="M184362914 185457200
L184505771 185385771
L184791485 185385771
L184934342 185457200
L185005771 185528628
L185077200 185671485
L185077200 186100057
L185005771 186242914
L184934342 186314342
L184791485 186385771
L184505771 186385771
L184362914 186314342
" />
<path d="M185934342 186385771
L185791485 186314342
L185720057 186242914
L185648628 186100057
L185648628 185671485
L185720057 185528628
L185791485 185457200
L185934342 185385771
L186148628 185385771
L186291485 185457200
L186362914 185528628
L186434342 185671485
L186434342 186100057
L186362914 186242914
L186291485 186314342
L186148628 186385771
L185934342 186385771
" />
<path d="M187720057 186385771
L187720057 185600057
L187648628 185457200
L187505771 185385771
L187220057 185385771
L187077200 185457200
" />
<path d="M187720057 186314342
L187577200 186385771
L187220057 186385771
L187077200 186314342
L187005771 186171485
L187005771 186028628
L187077200 185885771
L187220057 185814342
L187577200 185814342
L187720057 185742914
" />
<path d="M188434342 186385771
L188434342 185385771
" />
<path d="M188434342 185671485
L188505771 185528628
L188577200 185457200
L188720057 185385771
L188862914 185385771
" />
<path d="M190005771 186385771
L190005771 184885771
" />
<path d="M190005771 186314342
L189862914 186385771
L189577200 186385771
L189434342 186314342
L189362914 186242914
L189291485 186100057
L189291485 185671485
L189362914 185528628
L189434342 185457200
L189577200 185385771
L189862914 185385771
L190005771 185457200
" />
<path d="M190720057 186385771
L190720057 184885771
" />
<path d="M191577200 186385771
L190934342 185528628
" />
<path d="M191577200 184885771
L190720057 185742914
" />
<path d="M192220057 186385771
L192220057 185385771
" />
<path d="M192220057 184885771
L192148628 184957200
L192220057 185028628
L192291485 184957200
L192220057 184885771
L192220057 185028628
" />
<path d="M193577200 186314342
L193434342 186385771
L193148628 186385771
L193005771 186314342
L192934342 186242914
L192862914 186100057
L192862914 185671485
L192934342 185528628
L193005771 185457200
L193148628 185385771
L193434342 185385771
L193577200 185457200
" />
<path d="M194862914 186385771
L194862914 185600057
L194791485 185457200
L194648628 185385771
L194362914 185385771
L194220057 185457200
" />
<path d="M194862914 186314342
L194720057 186385771
L194362914 186385771
L194220057 186314342
L194148628 186171485
L194148628 186028628
L194220057 185885771
L194362914 185814342
L194720057 185814342
L194862914 185742914
" />
<path d="M196220057 186385771
L196220057 184885771
" />
<path d="M196220057 186314342
L196077200 186385771
L195791485 186385771
L195648628 186314342
L195577200 186242914
L195505771 186100057
L195505771 185671485
L195577200 185528628
L195648628 185457200
L195791485 185385771
L196077200 185385771
L196220057 185457200
" />
<path d="M196934342 186242914
L197005771 186314342
L196934342 186385771
L196862914 186314342
L196934342 186242914
L196934342 186385771
" />
<path d="M197648628 186385771
L197648628 184885771
" />
<path d="M197791485 185814342
L198220057 186385771
" />
<path d="M198220057 185385771
L197648628 185957200
" />
<path d="M198862914 186385771
L198862914 185385771
" />
<path d="M198862914 184885771
L198791485 184957200
L198862914 185028628
L198934342 184957200
L198862914 184885771
L198862914 185028628
" />
<path d="M200220057 186314342
L200077200 186385771
L199791485 186385771
L199648628 186314342
L199577200 186242914
L199505771 186100057
L199505771 185671485
L199577200 185528628
L199648628 185457200
L199791485 185385771
L200077200 185385771
L200220057 185457200
" />
<path d="M201505771 186385771
L201505771 185600057
L201434342 185457200
L201291485 185385771
L201005771 185385771
L200862914 185457200
" />
<path d="M201505771 186314342
L201362914 186385771
L201005771 186385771
L200862914 186314342
L200791485 186171485
L200791485 186028628
L200862914 185885771
L201005771 185814342
L201362914 185814342
L201505771 185742914
" />
<path d="M202862914 186385771
L202862914 184885771
" />
<path d="M202862914 186314342
L202720057 186385771
L202434342 186385771
L202291485 186314342
L202220057 186242914
L202148628 186100057
L202148628 185671485
L202220057 185528628
L202291485 185457200
L202434342 185385771
L202720057 185385771
L202862914 185457200
" />
<path d="M203220057 186528628
L204362914 186528628
" />
<path d="M204720057 185385771
L204720057 186885771
" />
<path d="M204720057 185457200
L204862914 185385771
L205148628 185385771
L205291485 185457200
L205362914 185528628
L205434342 185671485
L205434342 186100057
L205362914 186242914
L205291485 186314342
L205148628 186385771
L204862914 186385771
L204720057 186314342
" />
<path d="M206720057 186314342
L206577200 186385771
L206291485 186385771
L206148628 186314342
L206077200 186242914
L206005771 186100057
L206005771 185671485
L206077200 185528628
L206148628 185457200
L206291485 185385771
L206577200 185385771
L206720057 185457200
" />
<path d="M207362914 186385771
L207362914 184885771
" />
<path d="M207362914 185457200
L207505771 185385771
L207791485 185385771
L207934342 185457200
L208005771 185528628
L208077200 185671485
L208077200 186100057
L208005771 186242914
L207934342 186314342
L207791485 186385771
L207505771 186385771
L207362914 186314342
" />
</g></g>
<g style="fill:#000000; fill-opacity:0.0; 
stroke:#000000; stroke-width:21200.000000; stroke-opacity:1; 
stroke-linecap:round; stroke-linejoin:round;">
</g>
<g style="fill:#000000; fill-opacity:0.0; 
stroke:#000000; stroke-width:150000.000000; stroke-opacity:1; 
stroke-linecap:round; stroke-linejoin:round;">
<path d="M177002200 181507200
L285002200 181507200
" />
</g>
<g style="fill:#000000; fill-opacity:0.0; 
stroke:#000000; stroke-width:21200.000000; stroke-opacity:1; 
stroke-linecap:round; stroke-linejoin:round;">
</g>
<g style="fill:#000000; fill-opacity:0.0; 
stroke:#000000; stroke-width:150000.000000; stroke-opacity:1; 
stroke-linecap:round; stroke-linejoin:round;">
<text x="178002200.000000" y="183757200.000000"
textLength="8221429.000000" font-size="2000000.000000" lengthAdjust="spacingAndGlyphs"
text-anchor="start" opacity="0">Sheet: </text>
<g class="stroked-text"><desc>Sheet: </desc>
<path d="M178362914 183614342
L178577200 183685771
L178934342 183685771
L179077200 183614342
L179148628 183542914
L179220057 183400057
L179220057 183257200
L179148628 183114342
L179077200 183042914
L178934342 182971485
L178648628 182900057
L178505771 182828628
L178434342 182757200
L178362914 182614342
L178362914 182471485
L178434342 182328628
L178505771 182257200
L178648628 182185771
L179005771 182185771
L179220057 182257200
" />
<path d="M179862914 183685771
L179862914 182185771
" />
<path d="M180505771 183685771
L180505771 182900057
L180434342 182757200
L180291485 182685771
L180077200 182685771
L179934342 182757200
L179862914 182828628
" />
<path d="M181791485 183614342
L181648628 183685771
L181362914 183685771
L181220057 183614342
L181148628 183471485
L181148628 182900057
L181220057 182757200
L181362914 182685771
L181648628 182685771
L181791485 182757200
L181862914 182900057
L181862914 183042914
L181148628 183185771
" />
<path d="M183077200 183614342
L182934342 183685771
L182648628 183685771
L182505771 183614342
L182434342 183471485
L182434342 182900057
L182505771 182757200
L182648628 182685771
L182934342 182685771
L183077200 182757200
L183148628 182900057
L183148628 183042914
L182434342 183185771
" />
<path d="M183577200 182685771
L184148628 182685771
" />
<path d="M183791485 182185771
L183791485 183471485
L183862914 183614342
L184005771 183685771
L184148628 183685771
" />
<path d="M184648628 183542914
L184720057 183614342
L184648628 183685771
L184577200 183614342
L184648628 183542914
L184648628 183685771
" />
<path d="M184648628 182757200
L184720057 182828628
L184648628 182900057
L184577200 182828628
L184648628 182757200
L184648628 182900057
" />
</g></g>
<g style="fill:#000000; fill-opacity:0.0; 
stroke:#000000; stroke-width:21200.000000; stroke-opacity:1; 
stroke-linecap:round; stroke-linejoin:round;">
</g>
<g style="fill:#000000; fill-opacity:0.0; 
stroke:#000000; stroke-width:300000.000000; stroke-opacity:1; 
stroke-linecap:round; stroke-linejoin:round;">
<text x="178002200.000000" y="180757200.000000"
textLength="150000.000000" font-size="2000000.000000" lengthAdjust="spacingAndGlyphs"
text-anchor="start" opacity="0"></text>
<g class="stroked-text"><desc></desc>
</g></g>
<g style="fill:#000000; fill-opacity:0.0; 
stroke:#000000; stroke-width:21200.000000; stroke-opacity:1; 
stroke-linecap:round; stroke-linejoin:round;">
</g>
<g style="fill:#000000; fill-opacity:0.0; 
stroke:#000000; stroke-width:150000.000000; stroke-opacity:1; 
stroke-linecap:round; stroke-linejoin:round;">
<text x="178002200.000000" y="177757200.000000"
textLength="300000.000000" font-size="2000000.000000" lengthAdjust="spacingAndGlyphs"
text-anchor="start" opacity="0"></text>
<g class="stroked-text"><desc></desc>
</g></g>
<g style="fill:#000000; fill-opacity:0.0; 
stroke:#000000; stroke-width:21200.000000; stroke-opacity:1; 
stroke-linecap:round; stroke-linejoin:round;">
</g>
<g style="fill:#000000; fill-opacity:0.0; 
stroke:#000000; stroke-width:150000.000000; stroke-opacity:1; 
stroke-linecap:round; stroke-linejoin:round;">
<text x="178002200.000000" y="174757200.000000"
textLength="150000.000000" font-size="2000000.000000" lengthAdjust="spacingAndGlyphs"
text-anchor="start" opacity="0"></text>
<g class="stroked-text"><desc></desc>
</g></g>
<g style="fill:#000000; fill-opacity:0.0; 
stroke:#000000; stroke-width:21200.000000; stroke-opacity:1; 
stroke-linecap:round; stroke-linejoin:round;">
</g>
<g style="fill:#000000; fill-opacity:0.0; 
stroke:#000000; stroke-width:150000.000000; stroke-opacity:1; 
stroke-linecap:round; stroke-linejoin:round;">
<text x="178002200.000000" y="171757200.000000"
textLength="150000.000000" font-size="2000000.000000" lengthAdjust="spacingAndGlyphs"
text-anchor="start" opacity="0"></text>
<g class="stroked-text"><desc></desc>
</g></g>
<g style="fill:#000000; fill-opacity:0.0; 
stroke:#000000; stroke-width:21200.000000; stroke-opacity:1; 
stroke-linecap:round; stroke-linejoin:round;">
</g>
<g style="fill:#000000; fill-opacity:0.0; 
stroke:#000000; stroke-width:150000.000000; stroke-opacity:1; 
stroke-linecap:round; stroke-linejoin:round;">
<text x="178002200.000000" y="168757200.000000"
textLength="150000.000000" font-size="2000000.000000" lengthAdjust="spacingAndGlyphs"
text-anchor="start" opacity="0"></text>
<g class="stroked-text"><desc></desc>
</g></g>
<g style="fill:#000000; fill-opacity:0.0; 
stroke:#000000; stroke-width:21200.000000; stroke-opacity:1; 
stroke-linecap:round; stroke-linejoin:round;">
</g>
<g style="fill:#000000; fill-opacity:0.0; 
stroke:#000000; stroke-width:150000.000000; stroke-opacity:1; 
stroke-linecap:round; stroke-linejoin:round;">
<path d="M197002200 191507200
L197002200 194507200
" />
</g>
<g style="fill:#000000; fill-opacity:0.0; 
stroke:#000000; stroke-width:21200.000000; stroke-opacity:1; 
stroke-linecap:round; stroke-linejoin:round;">
</g>
<g style="fill:#000000; fill-opacity:0.0; 
stroke:#000000; stroke-width:150000.000000; stroke-opacity:1; 
stroke-linecap:round; stroke-linejoin:round;">
<path d="M261002200 191507200
L261002200 198007200
" />
</g>
<g style="fill:#5994DC; fill-opacity:0.0; 
stroke:#5994DC; stroke-width:150000.000000; stroke-opacity:1; 
stroke-linecap:round; stroke-linejoin:round;">
</g>
<g style="fill:#5994DC; fill-opacity:0.0; 
stroke:#5994DC; stroke-width:152400.000000; stroke-opacity:1; 
stroke-linecap:round; stroke-linejoin:round;">
<g transform="rotate(-90.000000 161328100.000000 82397600.000000)">
<text x="161328100.000000" y="83261200.000000"
textLength="972476.000000" font-size="1151466.000000" lengthAdjust="spacingAndGlyphs"
text-anchor="end" opacity="0">4</text>
</g>
<g class="stroked-text"><desc>4</desc>
<path d="M161574842 82743402
L162150576 82743402
" />
<path d="M161245852 82949021
L161862709 83154640
L161862709 82620031
" />
</g><g transform="rotate(-90.000000 156248100.000000 82397600.000000)">
<text x="156248100.000000" y="83261200.000000"
textLength="1020596.000000" font-size="1151466.000000" lengthAdjust="spacingAndGlyphs"
text-anchor="end" opacity="0">6</text>
</g>
<g class="stroked-text"><desc>6</desc>
<path d="M156206976 82743402
L156206976 82907898
L156248100 82990145
L156289223 83031269
L156412595 83113517
L156577090 83154640
L156906080 83154640
L156988328 83113517
L157029452 83072393
L157070576 82990145
L157070576 82825650
L157029452 82743402
L156988328 82702279
L156906080 82661155
L156700461 82661155
L156618214 82702279
L156577090 82743402
L156535966 82825650
L156535966 82990145
L156577090 83072393
L156618214 83113517
L156700461 83154640
" />
</g><g transform="rotate(-90.000000 172504100.000000 127749300.000000)">
<text x="172504100.000000" y="127749300.000000"
textLength="1020596.000000" font-size="1151466.000000" lengthAdjust="spacingAndGlyphs"
text-anchor="start" opacity="0">5</text>
</g>
<g class="stroked-text"><desc>5</desc>
<path d="M171599376 127033382
L171599376 127444620
L172010614 127485744
L171969490 127444620
L171928366 127362373
L171928366 127156754
L171969490 127074506
L172010614 127033382
L172092861 126992259
L172298480 126992259
L172380728 127033382
L172421852 127074506
L172462976 127156754
L172462976 127362373
L172421852 127444620
L172380728 127485744
" />
</g><g transform="rotate(-90.000000 134404100.000000 82397600.000000)">
<text x="134404100.000000" y="83261200.000000"
textLength="2830044.000000" font-size="1151466.000000" lengthAdjust="spacingAndGlyphs"
text-anchor="end" opacity="0">GND</text>
</g>
<g class="stroked-text"><desc>GND</desc>
<path d="M134404100 84470602
L134362976 84552850
L134362976 84676221
L134404100 84799593
L134486347 84881840
L134568595 84922964
L134733090 84964088
L134856461 84964088
L135020957 84922964
L135103204 84881840
L135185452 84799593
L135226576 84676221
L135226576 84593974
L135185452 84470602
L135144328 84429479
L134856461 84429479
L134856461 84593974
" />
<path d="M135226576 84059364
L134362976 84059364
L135226576 83565879
L134362976 83565879
" />
<path d="M135226576 83154640
L134362976 83154640
L134362976 82949021
L134404100 82825650
L134486347 82743402
L134568595 82702279
L134733090 82661155
L134856461 82661155
L135020957 82702279
L135103204 82743402
L135185452 82825650
L135226576 82949021
L135226576 83154640
" />
</g><g transform="rotate(-90.000000 152184100.000000 127749300.000000)">
<text x="152184100.000000" y="127749300.000000"
textLength="2830044.000000" font-size="1151466.000000" lengthAdjust="spacingAndGlyphs"
text-anchor="start" opacity="0">GND</text>
</g>
<g class="stroked-text"><desc>GND</desc>
<path d="M151320500 126992259
L151279376 127074506
L151279376 127197878
L151320500 127321249
L151402747 127403497
L151484995 127444620
L151649490 127485744
L151772861 127485744
L151937357 127444620
L152019604 127403497
L152101852 127321249
L152142976 127197878
L152142976 127115630
L152101852 126992259
L152060728 126951135
L151772861 126951135
L151772861 127115630
" />
<path d="M152142976 126581020
L151279376 126581020
L152142976 126087535
L151279376 126087535
" />
<path d="M152142976 125676297
L151279376 125676297
L151279376 125470678
L151320500 125347306
L151402747 125265059
L151484995 125223935
L151649490 125182811
L151772861 125182811
L151937357 125223935
L152019604 125265059
L152101852 125347306
L152142976 125470678
L152142976 125676297
" />
</g><g transform="rotate(-90.000000 144564100.000000 82397600.000000)">
<text x="144564100.000000" y="83261200.000000"
textLength="1843072.000000" font-size="1151466.000000" lengthAdjust="spacingAndGlyphs"
text-anchor="end" opacity="0">10</text>
</g>
<g class="stroked-text"><desc>10</desc>
<path d="M145386576 83483631
L145386576 83977117
" />
<path d="M145386576 83730374
L144522976 83730374
L144646347 83812621
L144728595 83894869
L144769719 83977117
" />
<path d="M144522976 82949021
L144522976 82866774
L144564100 82784526
L144605223 82743402
L144687471 82702279
L144851966 82661155
L145057585 82661155
L145222080 82702279
L145304328 82743402
L145345452 82784526
L145386576 82866774
L145386576 82949021
L145345452 83031269
L145304328 83072393
L145222080 83113517
L145057585 83154640
L144851966 83154640
L144687471 83113517
L144605223 83072393
L144564100 83031269
L144522976 82949021
" />
</g><g transform="rotate(-90.000000 169964100.000000 127749300.000000)">
<text x="169964100.000000" y="127749300.000000"
textLength="1020596.000000" font-size="1151466.000000" lengthAdjust="spacingAndGlyphs"
text-anchor="start" opacity="0">4</text>
</g>
<g class="stroked-text"><desc>4</desc>
<path d="M169347242 127074506
L169922976 127074506
" />
<path d="M169018252 127280125
L169635109 127485744
L169635109 126951135
" />
</g><g transform="rotate(-90.000000 149644100.000000 82397600.000000)">
<text x="149644100.000000" y="83261200.000000"
textLength="1020596.000000" font-size="1151466.000000" lengthAdjust="spacingAndGlyphs"
text-anchor="end" opacity="0">8</text>
</g>
<g class="stroked-text"><desc>8</desc>
<path d="M149973090 82990145
L149931966 83072393
L149890842 83113517
L149808595 83154640
L149767471 83154640
L149685223 83113517
L149644100 83072393
L149602976 82990145
L149602976 82825650
L149644100 82743402
L149685223 82702279
L149767471 82661155
L149808595 82661155
L149890842 82702279
L149931966 82743402
L149973090 82825650
L149973090 82990145
L150014214 83072393
L150055338 83113517
L150137585 83154640
L150302080 83154640
L150384328 83113517
L150425452 83072393
L150466576 82990145
L150466576 82825650
L150425452 82743402
L150384328 82702279
L150302080 82661155
L150137585 82661155
L150055338 82702279
L150014214 82743402
L149973090 82825650
" />
</g><g transform="rotate(-90.000000 158788100.000000 82397600.000000)">
<text x="158788100.000000" y="83261200.000000"
textLength="1020596.000000" font-size="1151466.000000" lengthAdjust="spacingAndGlyphs"
text-anchor="end" opacity="0">5</text>
</g>
<g class="stroked-text"><desc>5</desc>
<path d="M158746976 82702279
L158746976 83113517
L159158214 83154640
L159117090 83113517
L159075966 83031269
L159075966 82825650
L159117090 82743402
L159158214 82702279
L159240461 82661155
L159446080 82661155
L159528328 82702279
L159569452 82743402
L159610576 82825650
L159610576 83031269
L159569452 83113517
L159528328 83154640
" />
</g><g transform="rotate(-90.000000 131864100.000000 82397600.000000)">
<text x="131864100.000000" y="83261200.000000"
textLength="3323530.000000" font-size="1151466.000000" lengthAdjust="spacingAndGlyphs"
text-anchor="end" opacity="0">AREF</text>
</g>
<g class="stroked-text"><desc>AREF</desc>
<path d="M132439833 85457574
L132439833 85046336
" />
<path d="M132686576 85539821
L131822976 85251955
L132686576 84964088
" />
<path d="M132686576 84182736
L132275338 84470602
" />
<path d="M132686576 84676221
L131822976 84676221
L131822976 84347231
L131864100 84264983
L131905223 84223860
L131987471 84182736
L132110842 84182736
L132193090 84223860
L132234214 84264983
L132275338 84347231
L132275338 84676221
" />
<path d="M132234214 83812621
L132234214 83524755
" />
<path d="M132686576 83401383
L132686576 83812621
L131822976 83812621
L131822976 83401383
" />
<path d="M132234214 82743402
L132234214 83031269
" />
<path d="M132686576 83031269
L131822976 83031269
L131822976 82620031
" />
</g><text x="169583100.000000" y="126072900.000000"
textLength="7024672.000000" font-size="1151466.000000" lengthAdjust="spacingAndGlyphs"
text-anchor="end" opacity="0">ANALOG IN</text>
<g class="stroked-text"><desc>ANALOG IN</desc>
<path d="M162821982 125785033
L163233220 125785033
" />
<path d="M162739735 126031776
L163027601 125168176
L163315468 126031776
" />
<path d="M163603335 126031776
L163603335 125168176
L164096820 126031776
L164096820 125168176
" />
<path d="M164466935 125785033
L164878173 125785033
" />
<path d="M164384687 126031776
L164672554 125168176
L164960420 126031776
" />
<path d="M165659525 126031776
L165248287 126031776
L165248287 125168176
" />
<path d="M166111887 125168176
L166276382 125168176
L166358630 125209300
L166440878 125291547
L166482001 125456042
L166482001 125743909
L166440878 125908404
L166358630 125990652
L166276382 126031776
L166111887 126031776
L166029640 125990652
L165947392 125908404
L165906268 125743909
L165906268 125456042
L165947392 125291547
L166029640 125209300
L166111887 125168176
" />
<path d="M167304478 125209300
L167222230 125168176
L167098859 125168176
L166975487 125209300
L166893240 125291547
L166852116 125373795
L166810992 125538290
L166810992 125661661
L166852116 125826157
L166893240 125908404
L166975487 125990652
L167098859 126031776
L167181106 126031776
L167304478 125990652
L167345601 125949528
L167345601 125661661
L167181106 125661661
" />
<path d="M168373697 126031776
L168373697 125168176
" />
<path d="M168784935 126031776
L168784935 125168176
L169278420 126031776
L169278420 125168176
" />
</g><g transform="rotate(-90.000000 166408100.000000 82397600.000000)">
<text x="166408100.000000" y="83261200.000000"
textLength="1020596.000000" font-size="1151466.000000" lengthAdjust="spacingAndGlyphs"
text-anchor="end" opacity="0">2</text>
</g>
<g class="stroked-text"><desc>2</desc>
<path d="M166449223 83154640
L166408100 83113517
L166366976 83031269
L166366976 82825650
L166408100 82743402
L166449223 82702279
L166531471 82661155
L166613719 82661155
L166737090 82702279
L167230576 83195764
L167230576 82661155
" />
</g><g transform="rotate(-90.000000 168948100.000000 82397600.000000)">
<text x="168948100.000000" y="83261200.000000"
textLength="1678577.000000" font-size="1151466.000000" lengthAdjust="spacingAndGlyphs"
text-anchor="end" opacity="0">TX</text>
</g>
<g class="stroked-text"><desc>TX</desc>
<path d="M168906976 83894869
L168906976 83401383
" />
<path d="M169770576 83648126
L168906976 83648126
" />
<path d="M168906976 83195764
L169770576 82620031
" />
<path d="M168906976 82620031
L169770576 83195764
" />
</g><g transform="rotate(-90.000000 147104100.000000 127749300.000000)">
<text x="147104100.000000" y="127749300.000000"
textLength="2830044.000000" font-size="1151466.000000" lengthAdjust="spacingAndGlyphs"
text-anchor="start" opacity="0">+5V</text>
</g>
<g class="stroked-text"><desc>+5V</desc>
<path d="M146733985 127444620
L146733985 126786640
" />
<path d="M147062976 127115630
L146404995 127115630
" />
<path d="M146199376 125964163
L146199376 126375401
L146610614 126416525
L146569490 126375401
L146528366 126293154
L146528366 126087535
L146569490 126005287
L146610614 125964163
L146692861 125923040
L146898480 125923040
L146980728 125964163
L147021852 126005287
L147062976 126087535
L147062976 126293154
L147021852 126375401
L146980728 126416525
" />
<path d="M146199376 125676297
L147062976 125388430
L146199376 125100563
" />
</g><g transform="rotate(-90.000000 129324100.000000 82397600.000000)">
<text x="129324100.000000" y="83261200.000000"
textLength="2624425.000000" font-size="1151466.000000" lengthAdjust="spacingAndGlyphs"
text-anchor="end" opacity="0">SDA</text>
</g>
<g class="stroked-text"><desc>SDA</desc>
<path d="M130105452 84758469
L130146576 84635098
L130146576 84429479
L130105452 84347231
L130064328 84306107
L129982080 84264983
L129899833 84264983
L129817585 84306107
L129776461 84347231
L129735338 84429479
L129694214 84593974
L129653090 84676221
L129611966 84717345
L129529719 84758469
L129447471 84758469
L129365223 84717345
L129324100 84676221
L129282976 84593974
L129282976 84388355
L129324100 84264983
" />
<path d="M130146576 83894869
L129282976 83894869
L129282976 83689250
L129324100 83565879
L129406347 83483631
L129488595 83442507
L129653090 83401383
L129776461 83401383
L129940957 83442507
L130023204 83483631
L130105452 83565879
L130146576 83689250
L130146576 83894869
" />
<path d="M129899833 83072393
L129899833 82661155
" />
<path d="M130146576 83154640
L129282976 82866774
L130146576 82578907
" />
</g><g transform="rotate(-90.000000 139484100.000000 127749300.000000)">
<text x="139484100.000000" y="127749300.000000"
textLength="3899263.000000" font-size="1151466.000000" lengthAdjust="spacingAndGlyphs"
text-anchor="start" opacity="0">IOREF</text>
</g>
<g class="stroked-text"><desc>IOREF</desc>
<path d="M139442976 127444620
L138579376 127444620
" />
<path d="M138579376 126868887
L138579376 126704392
L138620500 126622144
L138702747 126539897
L138867242 126498773
L139155109 126498773
L139319604 126539897
L139401852 126622144
L139442976 126704392
L139442976 126868887
L139401852 126951135
L139319604 127033382
L139155109 127074506
L138867242 127074506
L138702747 127033382
L138620500 126951135
L138579376 126868887
" />
<path d="M139442976 125635173
L139031738 125923040
" />
<path d="M139442976 126128659
L138579376 126128659
L138579376 125799668
L138620500 125717420
L138661623 125676297
L138743871 125635173
L138867242 125635173
L138949490 125676297
L138990614 125717420
L139031738 125799668
L139031738 126128659
" />
<path d="M138990614 125265059
L138990614 124977192
" />
<path d="M139442976 124853820
L139442976 125265059
L138579376 125265059
L138579376 124853820
" />
<path d="M138990614 124195840
L138990614 124483706
" />
<path d="M139442976 124483706
L138579376 124483706
L138579376 124072468
" />
</g><g transform="rotate(-90.000000 171488100.000000 82397600.000000)">
<text x="171488100.000000" y="83261200.000000"
textLength="1884196.000000" font-size="1151466.000000" lengthAdjust="spacingAndGlyphs"
text-anchor="end" opacity="0">RX</text>
</g>
<g class="stroked-text"><desc>RX</desc>
<path d="M172310576 83483631
L171899338 83771498
" />
<path d="M172310576 83977117
L171446976 83977117
L171446976 83648126
L171488100 83565879
L171529223 83524755
L171611471 83483631
L171734842 83483631
L171817090 83524755
L171858214 83565879
L171899338 83648126
L171899338 83977117
" />
<path d="M171446976 83195764
L172310576 82620031
" />
<path d="M171446976 82620031
L172310576 83195764
" />
</g><g transform="rotate(-90.000000 159804100.000000 127749300.000000)">
<text x="159804100.000000" y="127749300.000000"
textLength="1020596.000000" font-size="1151466.000000" lengthAdjust="spacingAndGlyphs"
text-anchor="start" opacity="0">0</text>
</g>
<g class="stroked-text"><desc>0</desc>
<path d="M158899376 127280125
L158899376 127197878
L158940500 127115630
L158981623 127074506
L159063871 127033382
L159228366 126992259
L159433985 126992259
L159598480 127033382
L159680728 127074506
L159721852 127115630
L159762976 127197878
L159762976 127280125
L159721852 127362373
L159680728 127403497
L159598480 127444620
L159433985 127485744
L159228366 127485744
L159063871 127444620
L158981623 127403497
L158940500 127362373
L158899376 127280125
" />
</g><g transform="rotate(-90.000000 149644100.000000 127749300.000000)">
<text x="149644100.000000" y="127749300.000000"
textLength="2830044.000000" font-size="1151466.000000" lengthAdjust="spacingAndGlyphs"
text-anchor="start" opacity="0">GND</text>
</g>
<g class="stroked-text"><desc>GND</desc>
<path d="M148780500 126992259
L148739376 127074506
L148739376 127197878
L148780500 127321249
L148862747 127403497
L148944995 127444620
L149109490 127485744
L149232861 127485744
L149397357 127444620
L149479604 127403497
L149561852 127321249
L149602976 127197878
L149602976 127115630
L149561852 126992259
L149520728 126951135
L149232861 126951135
L149232861 127115630
" />
<path d="M149602976 126581020
L148739376 126581020
L149602976 126087535
L148739376 126087535
" />
<path d="M149602976 125676297
L148739376 125676297
L148739376 125470678
L148780500 125347306
L148862747 125265059
L148944995 125223935
L149109490 125182811
L149232861 125182811
L149397357 125223935
L149479604 125265059
L149561852 125347306
L149602976 125470678
L149602976 125676297
" />
</g><g transform="rotate(-90.000000 126784100.000000 82397600.000000)">
<text x="126784100.000000" y="83261200.000000"
textLength="2583301.000000" font-size="1151466.000000" lengthAdjust="spacingAndGlyphs"
text-anchor="end" opacity="0">SCL</text>
</g>
<g class="stroked-text"><desc>SCL</desc>
<path d="M127565452 84717345
L127606576 84593974
L127606576 84388355
L127565452 84306107
L127524328 84264983
L127442080 84223860
L127359833 84223860
L127277585 84264983
L127236461 84306107
L127195338 84388355
L127154214 84552850
L127113090 84635098
L127071966 84676221
L126989719 84717345
L126907471 84717345
L126825223 84676221
L126784100 84635098
L126742976 84552850
L126742976 84347231
L126784100 84223860
" />
<path d="M127524328 83360260
L127565452 83401383
L127606576 83524755
L127606576 83607002
L127565452 83730374
L127483204 83812621
L127400957 83853745
L127236461 83894869
L127113090 83894869
L126948595 83853745
L126866347 83812621
L126784100 83730374
L126742976 83607002
L126742976 83524755
L126784100 83401383
L126825223 83360260
" />
<path d="M127606576 82578907
L127606576 82990145
L126742976 82990145
" />
</g><g transform="rotate(-90.000000 153708100.000000 82397600.000000)">
<text x="153708100.000000" y="83261200.000000"
textLength="1020596.000000" font-size="1151466.000000" lengthAdjust="spacingAndGlyphs"
text-anchor="end" opacity="0">7</text>
</g>
<g class="stroked-text"><desc>7</desc>
<path d="M153666976 83195764
L153666976 82620031
L154530576 82990145
" />
</g><g transform="rotate(-90.000000 144564100.000000 127749300.000000)">
<text x="144564100.000000" y="127749300.000000"
textLength="4063758.000000" font-size="1151466.000000" lengthAdjust="spacingAndGlyphs"
text-anchor="start" opacity="0">+3.3V</text>
</g>
<g class="stroked-text"><desc>+3.3V</desc>
<path d="M144193985 127444620
L144193985 126786640
" />
<path d="M144522976 127115630
L143864995 127115630
" />
<path d="M143659376 126457649
L143659376 125923040
L143988366 126210906
L143988366 126087535
L144029490 126005287
L144070614 125964163
L144152861 125923040
L144358480 125923040
L144440728 125964163
L144481852 126005287
L144522976 126087535
L144522976 126334278
L144481852 126416525
L144440728 126457649
" />
<path d="M144440728 125552925
L144481852 125511801
L144522976 125552925
L144481852 125594049
L144440728 125552925
L144522976 125552925
" />
<path d="M143659376 125223935
L143659376 124689325
L143988366 124977192
L143988366 124853820
L144029490 124771573
L144070614 124730449
L144152861 124689325
L144358480 124689325
L144440728 124730449
L144481852 124771573
L144522976 124853820
L144522976 125100563
L144481852 125182811
L144440728 125223935
" />
<path d="M143659376 124442582
L144522976 124154716
L143659376 123866849
" />
</g><g transform="rotate(-90.000000 142024100.000000 127749300.000000)">
<text x="142024100.000000" y="127749300.000000"
textLength="2542177.000000" font-size="1151466.000000" lengthAdjust="spacingAndGlyphs"
text-anchor="start" opacity="0">RST</text>
</g>
<g class="stroked-text"><desc>RST</desc>
<path d="M141982976 126951135
L141571738 127239001
" />
<path d="M141982976 127444620
L141119376 127444620
L141119376 127115630
L141160500 127033382
L141201623 126992259
L141283871 126951135
L141407242 126951135
L141489490 126992259
L141530614 127033382
L141571738 127115630
L141571738 127444620
" />
<path d="M141941852 126622144
L141982976 126498773
L141982976 126293154
L141941852 126210906
L141900728 126169782
L141818480 126128659
L141736233 126128659
L141653985 126169782
L141612861 126210906
L141571738 126293154
L141530614 126457649
L141489490 126539897
L141448366 126581020
L141366119 126622144
L141283871 126622144
L141201623 126581020
L141160500 126539897
L141119376 126457649
L141119376 126252030
L141160500 126128659
" />
<path d="M141119376 125881916
L141119376 125388430
" />
<path d="M141982976 125635173
L141119376 125635173
" />
</g><g transform="rotate(-90.000000 164884100.000000 127749300.000000)">
<text x="164884100.000000" y="127749300.000000"
textLength="1020596.000000" font-size="1151466.000000" lengthAdjust="spacingAndGlyphs"
text-anchor="start" opacity="0">2</text>
</g>
<g class="stroked-text"><desc>2</desc>
<path d="M164061623 127485744
L164020500 127444620
L163979376 127362373
L163979376 127156754
L164020500 127074506
L164061623 127033382
L164143871 126992259
L164226119 126992259
L164349490 127033382
L164842976 127526868
L164842976 126992259
" />
</g><g transform="rotate(-90.000000 154724100.000000 127749300.000000)">
<text x="154724100.000000" y="127749300.000000"
textLength="2254310.000000" font-size="1151466.000000" lengthAdjust="spacingAndGlyphs"
text-anchor="start" opacity="0">VIN</text>
</g>
<g class="stroked-text"><desc>VIN</desc>
<path d="M153819376 127567992
L154682976 127280125
L153819376 126992259
" />
<path d="M154682976 126704392
L153819376 126704392
" />
<path d="M154682976 126293154
L153819376 126293154
L154682976 125799668
L153819376 125799668
" />
</g><g transform="rotate(-90.000000 147104100.000000 82397600.000000)">
<text x="147104100.000000" y="83261200.000000"
textLength="1020596.000000" font-size="1151466.000000" lengthAdjust="spacingAndGlyphs"
text-anchor="end" opacity="0">9</text>
</g>
<g class="stroked-text"><desc>9</desc>
<path d="M147926576 83072393
L147926576 82907898
L147885452 82825650
L147844328 82784526
L147720957 82702279
L147556461 82661155
L147227471 82661155
L147145223 82702279
L147104100 82743402
L147062976 82825650
L147062976 82990145
L147104100 83072393
L147145223 83113517
L147227471 83154640
L147433090 83154640
L147515338 83113517
L147556461 83072393
L147597585 82990145
L147597585 82825650
L147556461 82743402
L147515338 82702279
L147433090 82661155
" />
</g><g transform="rotate(-90.000000 139484100.000000 82397600.000000)">
<text x="139484100.000000" y="83261200.000000"
textLength="1843072.000000" font-size="1151466.000000" lengthAdjust="spacingAndGlyphs"
text-anchor="end" opacity="0">12</text>
</g>
<g class="stroked-text"><desc>12</desc>
<path d="M140306576 83483631
L140306576 83977117
" />
<path d="M140306576 83730374
L139442976 83730374
L139566347 83812621
L139648595 83894869
L139689719 83977117
" />
<path d="M139525223 83154640
L139484100 83113517
L139442976 83031269
L139442976 82825650
L139484100 82743402
L139525223 82702279
L139607471 82661155
L139689719 82661155
L139813090 82702279
L140306576 83195764
L140306576 82661155
" />
</g><g transform="rotate(-90.000000 167424100.000000 127749300.000000)">
<text x="167424100.000000" y="127749300.000000"
textLength="1020596.000000" font-size="1151466.000000" lengthAdjust="spacingAndGlyphs"
text-anchor="start" opacity="0">3</text>
</g>
<g class="stroked-text"><desc>3</desc>
<path d="M166519376 127526868
L166519376 126992259
L166848366 127280125
L166848366 127156754
L166889490 127074506
L166930614 127033382
L167012861 126992259
L167218480 126992259
L167300728 127033382
L167341852 127074506
L167382976 127156754
L167382976 127403497
L167341852 127485744
L167300728 127526868
" />
</g><g transform="rotate(-90.000000 162344100.000000 127749300.000000)">
<text x="162344100.000000" y="127749300.000000"
textLength="1020596.000000" font-size="1151466.000000" lengthAdjust="spacingAndGlyphs"
text-anchor="start" opacity="0">1</text>
</g>
<g class="stroked-text"><desc>1</desc>
<path d="M162302976 126992259
L162302976 127485744
" />
<path d="M162302976 127239001
L161439376 127239001
L161562747 127321249
L161644995 127403497
L161686119 127485744
" />
</g><g transform="rotate(-90.000000 163868100.000000 82397600.000000)">
<text x="163868100.000000" y="83261200.000000"
textLength="1020596.000000" font-size="1151466.000000" lengthAdjust="spacingAndGlyphs"
text-anchor="end" opacity="0">3</text>
</g>
<g class="stroked-text"><desc>3</desc>
<path d="M163826976 83195764
L163826976 82661155
L164155966 82949021
L164155966 82825650
L164197090 82743402
L164238214 82702279
L164320461 82661155
L164526080 82661155
L164608328 82702279
L164649452 82743402
L164690576 82825650
L164690576 83072393
L164649452 83154640
L164608328 83195764
" />
</g><g transform="rotate(-90.000000 136944100.000000 82397600.000000)">
<text x="136944100.000000" y="83261200.000000"
textLength="1843072.000000" font-size="1151466.000000" lengthAdjust="spacingAndGlyphs"
text-anchor="end" opacity="0">13</text>
</g>
<g class="stroked-text"><desc>13</desc>
<path d="M137766576 83483631
L137766576 83977117
" />
<path d="M137766576 83730374
L136902976 83730374
L137026347 83812621
L137108595 83894869
L137149719 83977117
" />
<path d="M136902976 83195764
L136902976 82661155
L137231966 82949021
L137231966 82825650
L137273090 82743402
L137314214 82702279
L137396461 82661155
L137602080 82661155
L137684328 82702279
L137725452 82743402
L137766576 82825650
L137766576 83072393
L137725452 83154640
L137684328 83195764
" />
</g><g transform="rotate(-90.000000 142024100.000000 82397600.000000)">
<text x="142024100.000000" y="83261200.000000"
textLength="1843072.000000" font-size="1151466.000000" lengthAdjust="spacingAndGlyphs"
text-anchor="end" opacity="0">11</text>
</g>
<g class="stroked-text"><desc>11</desc>
<path d="M142846576 83483631
L142846576 83977117
" />
<path d="M142846576 83730374
L141982976 83730374
L142106347 83812621
L142188595 83894869
L142229719 83977117
" />
<path d="M142846576 82661155
L142846576 83154640
" />
<path d="M142846576 82907898
L141982976 82907898
L142106347 82990145
L142188595 83072393
L142229719 83154640
" />
</g></g>
<g style="fill:#5994DC; fill-opacity:0.0; 
stroke:#5994DC; stroke-width:127000.000000; stroke-opacity:1; 
stroke-linecap:round; stroke-linejoin:round;">
<path d="M173266100 130403600
L158026100 130403600
" />
<path d="M155486100 127863600
L135166100 127863600
" />
<path d="M173266100 127863600
L173266100 130403600
" />
<path d="M151422100 82143600
L126022100 82143600
" />
<path d="M173266100 82143600
L152946100 82143600
" />
<path d="M158026100 127863600
L173266100 127863600
" />
<path d="M155486100 130403600
L155486100 127863600
" />
<path d="M173266100 79603600
L173266100 82143600
" />
<path d="M158026100 130403600
L158026100 127863600
" />
<path d="M152946100 79603600
L173266100 79603600
" />
<path d="M126022100 82143600
L126022100 79603600
" />
<path d="M151422100 79603600
L151422100 82143600
" />
<path d="M135166100 127863600
L135166100 130403600
" />
<path d="M152946100 82143600
L152946100 79603600
" />
<path d="M135166100 130403600
L155486100 130403600
" />
<path d="M126022100 79603600
L151422100 79603600
" />
<g >
</g>
<g >
</g>
<g >
</g>
<g >
</g>
<g >
</g>
<g >
</g>
<g >
</g>
<g >
</g>
<g >
</g>
<g >
</g>
<g >
</g>
<g >
</g>
<g >
</g>
<g >
</g>
<g >
</g>
<g >
</g>
<g >
</g>
<g >
</g>
<g >
</g>
<g >
</g>
<g >
</g>
<g >
</g>
<g >
</g>
<g >
</g>
<g >
</g>
<g >
</g>
<g >
</g>
<g >
</g>
<g >
</g>
<g >
</g>
<g >
</g>
<g >
</g>
<g >
</g>
<g >
</g>
<g >
</g>
<g >
</g>
<g >
</g>
<g >
</g>
<g >
</g>
<g >
</g>
<g >
</g>
<g >
</g>
<g >
</g>
<g >
</g>
<g >
</g>
<g >
</g>
<g >
</g>
<g >
</g>
<g >
</g>
<g >
</g>
<g >
</g>
<g >
</g>
<g >
</g>
<g >
</g>
<g >
</g>
</g>
<g style="fill:#000000; fill-opacity:0.0; 
stroke:#000000; stroke-width:127000.000000; stroke-opacity:1; 
stroke-linecap:round; stroke-linejoin:round;">
</g>
<g style="fill:#D0D2CD; fill-opacity:0.0; 
stroke:#D0D2CD; stroke-width:127000.000000; stroke-opacity:1; 
stroke-linecap:round; stroke-linejoin:round;">
</g>
<g style="fill:#D0D2CD; fill-opacity:0.0; 
stroke:#D0D2CD; stroke-width:203200.000000; stroke-opacity:1; 
stroke-linecap:round; stroke-linejoin:round;">
<path d="M174536100 131673600
L177076100 129133600
" />
<path d="M174536100 79857600
L173012100 78333600
" />
<path d="M174536100 91287600
L174536100 79857600
" />
<path d="M177076100 93827600
L174536100 91287600
" />
<path d="M174536100 131673600
L119926100 131673600
" />
<path d="M177076100 129133600
L177076100 93827600
" />
<path d="M173012100 78333600
L119926100 78333600
" />
<path d="M119926100 78333600
L119926100 131673600
" />
<g >
</g>
<g >
</g>
<g >
</g>
<g >
</g>
<g >
</g>
<g >
</g>
<g >
</g>
<g >
</g>
<g >
</g>
<g >
</g>
<g >
</g>
<g >
</g>
<g >
</g>
<g >
</g>
<g >
</g>
<g >
</g>
<g >
</g>
<g >
</g>
<g >
</g>
<g >
</g>
<g >
</g>
<g >
</g>
<g >
</g>
<g >
</g>
<g >
</g>
<g >
</g>
<g >
</g>
<g >
</g>
<g >
</g>
<g >
</g>
<g >
</g>
<g >
</g>
<g >
</g>
<g >
</g>
<g >
</g>
<g >
</g>
<g >
</g>
<g >
</g>
<g >
</g>
<g >
</g>
<g >
</g>
<g >
</g>
<g >
</g>
<g >
</g>
<g >
</g>
<g >
</g>
<g >
</g>
<g >
</g>
<g >
</g>
<g >
</g>
<g >
</g>
<g >
</g>
<g >
</g>
<g >
</g>
<g >
</g>
</g> 
</svg>
