G04 EAGLE Gerber RS-274X export*
G75*
%MOMM*%
%FSLAX34Y34*%
%LPD*%
%INSilkscreen Bottom*%
%IPPOS*%
%AMOC8*
5,1,8,0,0,1.08239X$1,22.5*%
G01*
%ADD10C,0.279400*%

G36*
X282177Y81166D02*
X282177Y81166D01*
X282285Y81176D01*
X282298Y81182D01*
X282312Y81184D01*
X282409Y81232D01*
X282508Y81277D01*
X282521Y81288D01*
X282530Y81292D01*
X282545Y81307D01*
X282622Y81370D01*
X286930Y85678D01*
X286993Y85766D01*
X287059Y85852D01*
X287064Y85865D01*
X287072Y85877D01*
X287103Y85980D01*
X287139Y86083D01*
X287139Y86097D01*
X287143Y86110D01*
X287139Y86218D01*
X287140Y86327D01*
X287135Y86340D01*
X287135Y86354D01*
X287097Y86455D01*
X287062Y86558D01*
X287053Y86573D01*
X287049Y86582D01*
X287035Y86599D01*
X286981Y86682D01*
X282167Y92585D01*
X283245Y94680D01*
X283252Y94699D01*
X283293Y94794D01*
X284011Y97038D01*
X291590Y97808D01*
X291694Y97836D01*
X291800Y97861D01*
X291812Y97868D01*
X291825Y97871D01*
X291915Y97932D01*
X292008Y97989D01*
X292016Y98000D01*
X292028Y98008D01*
X292094Y98094D01*
X292163Y98178D01*
X292167Y98191D01*
X292176Y98202D01*
X292210Y98305D01*
X292249Y98406D01*
X292250Y98424D01*
X292254Y98433D01*
X292253Y98454D01*
X292263Y98553D01*
X292263Y104647D01*
X292246Y104755D01*
X292232Y104862D01*
X292226Y104874D01*
X292224Y104888D01*
X292172Y104984D01*
X292125Y105081D01*
X292115Y105091D01*
X292109Y105103D01*
X292029Y105177D01*
X291953Y105254D01*
X291941Y105260D01*
X291931Y105270D01*
X291832Y105315D01*
X291734Y105363D01*
X291717Y105367D01*
X291708Y105371D01*
X291687Y105373D01*
X291590Y105392D01*
X284011Y106162D01*
X283293Y108406D01*
X283284Y108424D01*
X283245Y108520D01*
X282167Y110615D01*
X286981Y116519D01*
X287035Y116613D01*
X287092Y116705D01*
X287095Y116718D01*
X287102Y116730D01*
X287123Y116837D01*
X287148Y116942D01*
X287146Y116956D01*
X287149Y116970D01*
X287134Y117077D01*
X287124Y117185D01*
X287118Y117198D01*
X287116Y117212D01*
X287068Y117309D01*
X287023Y117408D01*
X287012Y117421D01*
X287008Y117430D01*
X286993Y117445D01*
X286930Y117522D01*
X282622Y121830D01*
X282534Y121893D01*
X282448Y121959D01*
X282435Y121964D01*
X282423Y121972D01*
X282320Y122003D01*
X282217Y122039D01*
X282203Y122039D01*
X282190Y122043D01*
X282082Y122039D01*
X281973Y122040D01*
X281960Y122035D01*
X281946Y122035D01*
X281845Y121997D01*
X281742Y121962D01*
X281727Y121953D01*
X281718Y121949D01*
X281701Y121935D01*
X281619Y121881D01*
X275715Y117067D01*
X273620Y118145D01*
X273601Y118152D01*
X273506Y118193D01*
X271262Y118911D01*
X270492Y126490D01*
X270464Y126594D01*
X270439Y126700D01*
X270432Y126712D01*
X270429Y126725D01*
X270368Y126815D01*
X270311Y126908D01*
X270300Y126916D01*
X270292Y126928D01*
X270206Y126994D01*
X270122Y127063D01*
X270109Y127067D01*
X270098Y127076D01*
X269995Y127110D01*
X269894Y127149D01*
X269876Y127150D01*
X269867Y127154D01*
X269846Y127153D01*
X269747Y127163D01*
X263653Y127163D01*
X263545Y127146D01*
X263438Y127132D01*
X263426Y127126D01*
X263412Y127124D01*
X263316Y127072D01*
X263219Y127025D01*
X263209Y127015D01*
X263197Y127009D01*
X263123Y126929D01*
X263046Y126853D01*
X263040Y126841D01*
X263030Y126831D01*
X262985Y126732D01*
X262937Y126634D01*
X262933Y126617D01*
X262929Y126608D01*
X262927Y126587D01*
X262908Y126490D01*
X262138Y118911D01*
X259894Y118193D01*
X259876Y118184D01*
X259780Y118145D01*
X257685Y117067D01*
X251782Y121881D01*
X251687Y121935D01*
X251595Y121992D01*
X251582Y121995D01*
X251570Y122002D01*
X251463Y122023D01*
X251358Y122048D01*
X251344Y122046D01*
X251330Y122049D01*
X251223Y122034D01*
X251115Y122024D01*
X251102Y122018D01*
X251089Y122016D01*
X250991Y121968D01*
X250892Y121923D01*
X250879Y121912D01*
X250870Y121908D01*
X250855Y121893D01*
X250778Y121830D01*
X246470Y117522D01*
X246407Y117434D01*
X246341Y117348D01*
X246336Y117335D01*
X246328Y117323D01*
X246297Y117220D01*
X246261Y117117D01*
X246261Y117103D01*
X246257Y117090D01*
X246261Y116982D01*
X246260Y116873D01*
X246265Y116860D01*
X246265Y116846D01*
X246303Y116745D01*
X246338Y116642D01*
X246347Y116627D01*
X246351Y116618D01*
X246365Y116601D01*
X246419Y116519D01*
X251233Y110615D01*
X250155Y108520D01*
X250148Y108501D01*
X250107Y108406D01*
X249389Y106162D01*
X241810Y105392D01*
X241706Y105364D01*
X241600Y105339D01*
X241588Y105332D01*
X241575Y105329D01*
X241485Y105268D01*
X241392Y105211D01*
X241384Y105200D01*
X241372Y105192D01*
X241306Y105106D01*
X241238Y105022D01*
X241233Y105009D01*
X241224Y104998D01*
X241190Y104895D01*
X241151Y104794D01*
X241150Y104776D01*
X241146Y104767D01*
X241147Y104746D01*
X241137Y104647D01*
X241137Y98553D01*
X241155Y98445D01*
X241168Y98338D01*
X241174Y98326D01*
X241176Y98312D01*
X241228Y98216D01*
X241275Y98119D01*
X241285Y98109D01*
X241291Y98097D01*
X241371Y98023D01*
X241447Y97946D01*
X241459Y97940D01*
X241470Y97930D01*
X241568Y97885D01*
X241666Y97837D01*
X241683Y97833D01*
X241692Y97829D01*
X241713Y97827D01*
X241810Y97808D01*
X249389Y97038D01*
X250107Y94794D01*
X250116Y94776D01*
X250155Y94680D01*
X251233Y92585D01*
X246419Y86682D01*
X246365Y86587D01*
X246308Y86495D01*
X246305Y86482D01*
X246298Y86470D01*
X246277Y86363D01*
X246252Y86258D01*
X246254Y86244D01*
X246251Y86230D01*
X246266Y86123D01*
X246276Y86015D01*
X246282Y86002D01*
X246284Y85989D01*
X246332Y85891D01*
X246377Y85792D01*
X246388Y85779D01*
X246392Y85770D01*
X246407Y85755D01*
X246470Y85678D01*
X250778Y81370D01*
X250866Y81307D01*
X250952Y81241D01*
X250965Y81236D01*
X250977Y81228D01*
X251080Y81197D01*
X251183Y81161D01*
X251197Y81161D01*
X251210Y81157D01*
X251318Y81161D01*
X251427Y81160D01*
X251440Y81165D01*
X251454Y81165D01*
X251555Y81203D01*
X251658Y81238D01*
X251673Y81247D01*
X251682Y81251D01*
X251699Y81265D01*
X251782Y81319D01*
X257685Y86133D01*
X259779Y85054D01*
X259832Y85037D01*
X259881Y85011D01*
X259947Y85000D01*
X260011Y84979D01*
X260067Y84980D01*
X260121Y84971D01*
X260188Y84982D01*
X260255Y84983D01*
X260307Y85001D01*
X260362Y85010D01*
X260421Y85042D01*
X260485Y85064D01*
X260529Y85099D01*
X260578Y85125D01*
X260623Y85174D01*
X260676Y85216D01*
X260707Y85263D01*
X260745Y85303D01*
X260801Y85408D01*
X260809Y85421D01*
X260810Y85426D01*
X260814Y85433D01*
X264402Y94095D01*
X264427Y94200D01*
X264455Y94305D01*
X264454Y94319D01*
X264458Y94333D01*
X264447Y94440D01*
X264441Y94548D01*
X264435Y94561D01*
X264434Y94576D01*
X264389Y94674D01*
X264349Y94774D01*
X264339Y94785D01*
X264333Y94798D01*
X264260Y94877D01*
X264189Y94958D01*
X264173Y94969D01*
X264166Y94976D01*
X264147Y94987D01*
X264066Y95041D01*
X262723Y95767D01*
X261616Y96702D01*
X260723Y97844D01*
X260081Y99145D01*
X259719Y100548D01*
X259652Y101996D01*
X259881Y103427D01*
X260398Y104782D01*
X261181Y106002D01*
X262196Y107036D01*
X263402Y107842D01*
X264746Y108384D01*
X266173Y108640D01*
X267622Y108599D01*
X269032Y108263D01*
X270344Y107647D01*
X271502Y106775D01*
X272458Y105685D01*
X273171Y104423D01*
X273611Y103042D01*
X273760Y101598D01*
X273625Y100223D01*
X273223Y98898D01*
X272570Y97678D01*
X271692Y96608D01*
X270623Y95730D01*
X269337Y95043D01*
X269250Y94976D01*
X269161Y94912D01*
X269153Y94902D01*
X269143Y94894D01*
X269082Y94803D01*
X269018Y94714D01*
X269015Y94702D01*
X269008Y94691D01*
X268979Y94585D01*
X268947Y94481D01*
X268948Y94468D01*
X268944Y94456D01*
X268952Y94346D01*
X268955Y94237D01*
X268960Y94221D01*
X268960Y94212D01*
X268968Y94193D01*
X268998Y94095D01*
X272586Y85433D01*
X272615Y85386D01*
X272636Y85334D01*
X272679Y85283D01*
X272715Y85226D01*
X272758Y85191D01*
X272794Y85148D01*
X272851Y85114D01*
X272903Y85071D01*
X272955Y85052D01*
X273003Y85023D01*
X273069Y85009D01*
X273132Y84985D01*
X273187Y84983D01*
X273242Y84972D01*
X273308Y84979D01*
X273375Y84977D01*
X273429Y84993D01*
X273484Y85000D01*
X273595Y85044D01*
X273609Y85048D01*
X273613Y85051D01*
X273621Y85054D01*
X275715Y86133D01*
X281619Y81319D01*
X281713Y81265D01*
X281805Y81208D01*
X281818Y81205D01*
X281830Y81198D01*
X281937Y81177D01*
X282042Y81152D01*
X282056Y81154D01*
X282070Y81151D01*
X282177Y81166D01*
G37*
G36*
X306601Y43096D02*
X306601Y43096D01*
X306603Y43096D01*
X307103Y43496D01*
X307103Y43497D01*
X307104Y43496D01*
X307603Y43996D01*
X308603Y44796D01*
X308603Y44797D01*
X308604Y44796D01*
X309503Y45696D01*
X310003Y46096D01*
X310003Y46097D01*
X310004Y46096D01*
X310504Y46596D01*
X310504Y46599D01*
X310505Y46600D01*
X310505Y65000D01*
X310502Y65004D01*
X310501Y65005D01*
X310001Y65105D01*
X309601Y65205D01*
X309101Y65305D01*
X309100Y65305D01*
X308700Y65305D01*
X308201Y65405D01*
X307701Y65505D01*
X307301Y65605D01*
X306801Y65705D01*
X306800Y65704D01*
X306795Y65702D01*
X306796Y65701D01*
X306795Y65700D01*
X306795Y63914D01*
X306004Y64903D01*
X306003Y64903D01*
X306003Y64904D01*
X305003Y65504D01*
X305002Y65504D01*
X304402Y65804D01*
X304401Y65804D01*
X304401Y65805D01*
X302601Y66105D01*
X302600Y66104D01*
X302599Y66105D01*
X300999Y65905D01*
X300999Y65904D01*
X300998Y65905D01*
X299698Y65405D01*
X299698Y65404D01*
X299697Y65404D01*
X298597Y64704D01*
X298596Y64704D01*
X297696Y63804D01*
X297696Y63803D01*
X296996Y62603D01*
X296996Y62602D01*
X296995Y62602D01*
X296495Y61302D01*
X296496Y61301D01*
X296495Y61301D01*
X296195Y59901D01*
X296195Y59900D01*
X296195Y58500D01*
X296295Y57100D01*
X296295Y57099D01*
X296495Y55699D01*
X296496Y55699D01*
X296495Y55698D01*
X296995Y54498D01*
X296996Y54498D01*
X296996Y54497D01*
X297696Y53397D01*
X297697Y53397D01*
X297696Y53396D01*
X298596Y52496D01*
X298597Y52496D01*
X299597Y51796D01*
X299598Y51796D01*
X299598Y51795D01*
X300898Y51295D01*
X300899Y51296D01*
X300900Y51295D01*
X302400Y51195D01*
X303000Y51195D01*
X303001Y51195D01*
X303601Y51295D01*
X303601Y51296D01*
X303602Y51295D01*
X304802Y51695D01*
X304802Y51696D01*
X304803Y51696D01*
X305303Y51996D01*
X305803Y52396D01*
X305803Y52397D01*
X305804Y52396D01*
X306204Y52796D01*
X306204Y52797D01*
X306595Y53286D01*
X306595Y43100D01*
X306596Y43099D01*
X306596Y43097D01*
X306598Y43097D01*
X306599Y43095D01*
X306601Y43096D01*
G37*
G36*
X290701Y51095D02*
X290701Y51095D01*
X291201Y51195D01*
X291700Y51195D01*
X291701Y51196D01*
X291702Y51196D01*
X292102Y51395D01*
X292501Y51495D01*
X292502Y51496D01*
X293302Y51896D01*
X293303Y51896D01*
X293603Y52096D01*
X293603Y52097D01*
X293604Y52096D01*
X294204Y52696D01*
X294204Y52697D01*
X294504Y53097D01*
X294504Y53098D01*
X294704Y53498D01*
X294704Y53499D01*
X294705Y53499D01*
X294905Y54299D01*
X295005Y54799D01*
X295005Y54800D01*
X295005Y55300D01*
X294905Y56400D01*
X294904Y56401D01*
X294905Y56402D01*
X294605Y57302D01*
X294604Y57302D01*
X294604Y57303D01*
X294104Y58003D01*
X294104Y58004D01*
X293504Y58604D01*
X293503Y58604D01*
X293502Y58604D01*
X292802Y59004D01*
X292802Y59005D01*
X292002Y59305D01*
X292001Y59305D01*
X291101Y59505D01*
X290301Y59605D01*
X289401Y59805D01*
X288501Y59905D01*
X287701Y60005D01*
X287001Y60105D01*
X286402Y60304D01*
X286004Y60604D01*
X285705Y61002D01*
X285605Y61500D01*
X285605Y61799D01*
X285705Y62098D01*
X285704Y62099D01*
X285705Y62100D01*
X285705Y62299D01*
X285904Y62697D01*
X286203Y62996D01*
X286801Y63295D01*
X287000Y63295D01*
X287001Y63296D01*
X287002Y63296D01*
X287201Y63395D01*
X287900Y63395D01*
X287901Y63396D01*
X287902Y63396D01*
X288100Y63495D01*
X288398Y63395D01*
X288399Y63396D01*
X288400Y63395D01*
X288899Y63395D01*
X289198Y63295D01*
X289199Y63296D01*
X289200Y63295D01*
X289399Y63295D01*
X289797Y63096D01*
X290396Y62497D01*
X290595Y62099D01*
X290595Y61800D01*
X290596Y61799D01*
X290596Y61798D01*
X290695Y61599D01*
X290695Y61300D01*
X290699Y61295D01*
X290700Y61295D01*
X294600Y61295D01*
X294605Y61299D01*
X294605Y61300D01*
X294605Y61301D01*
X294505Y62001D01*
X294405Y62501D01*
X294405Y62502D01*
X294205Y63102D01*
X294204Y63102D01*
X294204Y63103D01*
X293904Y63603D01*
X293604Y64003D01*
X293604Y64004D01*
X293204Y64404D01*
X293203Y64404D01*
X292403Y65004D01*
X291903Y65304D01*
X291902Y65304D01*
X291902Y65305D01*
X290902Y65705D01*
X290901Y65704D01*
X290901Y65705D01*
X289101Y66005D01*
X289100Y66005D01*
X286900Y66005D01*
X286899Y66005D01*
X286300Y65905D01*
X285800Y65905D01*
X285799Y65905D01*
X285299Y65805D01*
X285298Y65805D01*
X284699Y65605D01*
X284299Y65505D01*
X284299Y65504D01*
X284298Y65505D01*
X283798Y65305D01*
X283798Y65304D01*
X283398Y65104D01*
X283397Y65104D01*
X282997Y64804D01*
X282996Y64804D01*
X282296Y64104D01*
X282296Y64102D01*
X282295Y64102D01*
X282096Y63602D01*
X281896Y63202D01*
X281896Y63201D01*
X281895Y63201D01*
X281695Y62001D01*
X281695Y62000D01*
X281695Y53001D01*
X281596Y52802D01*
X281596Y52801D01*
X281595Y52800D01*
X281595Y52401D01*
X281496Y52202D01*
X281496Y52201D01*
X281495Y52200D01*
X281495Y52101D01*
X281396Y51902D01*
X281396Y51901D01*
X281395Y51901D01*
X281395Y51900D01*
X281395Y51801D01*
X281296Y51602D01*
X281296Y51601D01*
X281295Y51600D01*
X281295Y51500D01*
X281299Y51495D01*
X281300Y51495D01*
X285200Y51495D01*
X285205Y51499D01*
X285205Y51500D01*
X285205Y51698D01*
X285304Y51796D01*
X285304Y51799D01*
X285305Y51800D01*
X285305Y51898D01*
X285404Y51996D01*
X285404Y51998D01*
X285404Y51999D01*
X285405Y52000D01*
X285405Y52598D01*
X285504Y52696D01*
X285504Y52698D01*
X285505Y52699D01*
X285505Y52700D01*
X285505Y52888D01*
X285696Y52697D01*
X285896Y52397D01*
X285897Y52397D01*
X285897Y52396D01*
X286197Y52196D01*
X286198Y52196D01*
X286198Y52195D01*
X286498Y52096D01*
X286797Y51896D01*
X286798Y51896D01*
X286998Y51796D01*
X287297Y51596D01*
X287298Y51596D01*
X287298Y51595D01*
X287598Y51495D01*
X287599Y51495D01*
X287999Y51395D01*
X288298Y51295D01*
X288299Y51296D01*
X288300Y51295D01*
X288599Y51295D01*
X288898Y51195D01*
X288899Y51196D01*
X288900Y51195D01*
X289599Y51195D01*
X289898Y51095D01*
X289899Y51096D01*
X289900Y51095D01*
X290700Y51095D01*
X290701Y51095D01*
G37*
G36*
X259702Y51497D02*
X259702Y51497D01*
X259704Y51497D01*
X263601Y57892D01*
X265095Y56398D01*
X265095Y51500D01*
X265099Y51495D01*
X265100Y51495D01*
X268900Y51495D01*
X268905Y51499D01*
X268905Y51500D01*
X268905Y68900D01*
X268903Y68902D01*
X268903Y68904D01*
X265103Y71104D01*
X265101Y71104D01*
X265101Y71105D01*
X265099Y71104D01*
X265096Y71103D01*
X265096Y71101D01*
X265095Y71100D01*
X265095Y60612D01*
X260204Y65703D01*
X260201Y65704D01*
X260200Y65705D01*
X255600Y65705D01*
X255599Y65704D01*
X255597Y65704D01*
X255597Y65702D01*
X255595Y65701D01*
X255597Y65699D01*
X255597Y65696D01*
X260894Y60499D01*
X254996Y51503D01*
X254996Y51501D01*
X254995Y51501D01*
X254996Y51499D01*
X254997Y51496D01*
X254999Y51497D01*
X255000Y51495D01*
X259700Y51495D01*
X259702Y51497D01*
G37*
G36*
X220205Y51499D02*
X220205Y51499D01*
X220205Y51500D01*
X220205Y60300D01*
X220305Y60999D01*
X220505Y61598D01*
X220804Y62097D01*
X221104Y62496D01*
X221502Y62795D01*
X222101Y62895D01*
X222700Y62995D01*
X223399Y62895D01*
X224098Y62795D01*
X224597Y62496D01*
X224996Y61997D01*
X225295Y61498D01*
X225495Y60799D01*
X225695Y59899D01*
X225695Y51500D01*
X225699Y51495D01*
X225700Y51495D01*
X229600Y51495D01*
X229605Y51499D01*
X229605Y51500D01*
X229605Y63900D01*
X229505Y65700D01*
X229500Y65705D01*
X225900Y65705D01*
X225895Y65701D01*
X225895Y65700D01*
X225895Y63705D01*
X225803Y63705D01*
X225404Y64303D01*
X225004Y64803D01*
X225003Y64803D01*
X225003Y64804D01*
X224403Y65204D01*
X223903Y65504D01*
X223902Y65504D01*
X223902Y65505D01*
X222702Y65905D01*
X222701Y65905D01*
X221501Y66105D01*
X221500Y66104D01*
X221499Y66105D01*
X220099Y65905D01*
X218899Y65605D01*
X218898Y65604D01*
X217998Y65104D01*
X217997Y65103D01*
X217996Y65104D01*
X217396Y64504D01*
X217396Y64503D01*
X217396Y64502D01*
X216896Y63602D01*
X216895Y63602D01*
X216495Y62602D01*
X216496Y62601D01*
X216495Y62601D01*
X216495Y62600D01*
X216395Y61500D01*
X216295Y60200D01*
X216295Y51500D01*
X216299Y51495D01*
X216300Y51495D01*
X220200Y51495D01*
X220205Y51499D01*
G37*
G36*
X241201Y51295D02*
X241201Y51295D01*
X242301Y51595D01*
X242302Y51596D01*
X243202Y52096D01*
X243203Y52096D01*
X243903Y52696D01*
X243903Y52697D01*
X243904Y52698D01*
X244404Y53598D01*
X244405Y53599D01*
X244705Y54599D01*
X244905Y55699D01*
X244905Y55700D01*
X244905Y65700D01*
X244901Y65705D01*
X244900Y65705D01*
X241000Y65705D01*
X240995Y65701D01*
X240995Y65700D01*
X240995Y56901D01*
X240895Y56201D01*
X240695Y55602D01*
X240496Y55103D01*
X240097Y54704D01*
X239698Y54405D01*
X239199Y54305D01*
X238500Y54205D01*
X237801Y54305D01*
X237202Y54405D01*
X236703Y54704D01*
X236204Y55203D01*
X235905Y55702D01*
X235705Y56401D01*
X235605Y57301D01*
X235505Y58300D01*
X235505Y65700D01*
X235501Y65705D01*
X235500Y65705D01*
X231700Y65705D01*
X231695Y65701D01*
X231695Y65700D01*
X231695Y51500D01*
X231699Y51495D01*
X231700Y51495D01*
X235400Y51495D01*
X235405Y51499D01*
X235405Y51500D01*
X235405Y53484D01*
X235796Y52897D01*
X235797Y52897D01*
X235797Y52896D01*
X236297Y52496D01*
X236796Y51996D01*
X236797Y51996D01*
X237297Y51696D01*
X237298Y51696D01*
X237298Y51695D01*
X238498Y51295D01*
X238499Y51296D01*
X238499Y51295D01*
X239099Y51195D01*
X239799Y51095D01*
X239800Y51096D01*
X239801Y51095D01*
X241201Y51295D01*
G37*
G36*
X319800Y51195D02*
X319800Y51195D01*
X319801Y51195D01*
X321001Y51395D01*
X321001Y51396D01*
X321002Y51395D01*
X322102Y51795D01*
X322102Y51796D01*
X323102Y52296D01*
X323103Y52296D01*
X323903Y52896D01*
X323903Y52897D01*
X323904Y52897D01*
X324604Y53797D01*
X324604Y53798D01*
X324605Y53798D01*
X325005Y54898D01*
X325004Y54899D01*
X325005Y54899D01*
X325205Y56099D01*
X325204Y56100D01*
X325201Y56105D01*
X325201Y56104D01*
X325200Y56105D01*
X321500Y56105D01*
X321496Y56101D01*
X321495Y56101D01*
X321395Y55502D01*
X321196Y55102D01*
X321195Y55102D01*
X320996Y54603D01*
X320597Y54304D01*
X320098Y54105D01*
X319599Y53905D01*
X319099Y53805D01*
X318500Y53705D01*
X318101Y53805D01*
X318100Y53804D01*
X318100Y53805D01*
X317701Y53805D01*
X317202Y54005D01*
X317201Y54004D01*
X317201Y54005D01*
X316803Y54105D01*
X316204Y54703D01*
X316005Y55101D01*
X316005Y55599D01*
X316105Y55998D01*
X316304Y56297D01*
X316603Y56596D01*
X317102Y56895D01*
X317801Y57095D01*
X318501Y57295D01*
X319401Y57495D01*
X320401Y57695D01*
X320401Y57696D01*
X320402Y57695D01*
X321201Y57995D01*
X322001Y58195D01*
X322001Y58196D01*
X322002Y58195D01*
X322802Y58495D01*
X322802Y58496D01*
X323502Y58896D01*
X323503Y58897D01*
X323504Y58896D01*
X324504Y59896D01*
X324504Y59898D01*
X324505Y59898D01*
X324805Y60698D01*
X324804Y60699D01*
X324805Y60699D01*
X324905Y61499D01*
X324905Y61500D01*
X324904Y61500D01*
X324905Y61501D01*
X324705Y62801D01*
X324704Y62801D01*
X324705Y62802D01*
X324305Y63802D01*
X324304Y63802D01*
X324304Y63803D01*
X323704Y64503D01*
X323703Y64503D01*
X323703Y64504D01*
X322903Y65104D01*
X322902Y65104D01*
X322002Y65604D01*
X322001Y65605D01*
X321001Y65905D01*
X321000Y65905D01*
X319900Y66005D01*
X318700Y66105D01*
X316500Y65905D01*
X316499Y65904D01*
X316499Y65905D01*
X315499Y65605D01*
X315498Y65604D01*
X314598Y65104D01*
X314597Y65104D01*
X313797Y64504D01*
X313797Y64503D01*
X313796Y64503D01*
X313096Y63703D01*
X313096Y63702D01*
X313095Y63702D01*
X312695Y62702D01*
X312696Y62701D01*
X312695Y62701D01*
X312495Y61601D01*
X312496Y61600D01*
X312499Y61595D01*
X312499Y61596D01*
X312500Y61595D01*
X316200Y61595D01*
X316204Y61598D01*
X316205Y61599D01*
X316305Y62099D01*
X316405Y62497D01*
X317003Y63096D01*
X317402Y63295D01*
X317801Y63395D01*
X318301Y63495D01*
X319199Y63495D01*
X319498Y63395D01*
X319499Y63396D01*
X319500Y63395D01*
X319899Y63395D01*
X320198Y63296D01*
X320497Y63096D01*
X320796Y62897D01*
X320895Y62599D01*
X320995Y62200D01*
X320895Y61702D01*
X320596Y61304D01*
X320198Y61004D01*
X319599Y60805D01*
X318899Y60605D01*
X318199Y60405D01*
X317399Y60305D01*
X316599Y60105D01*
X315699Y59905D01*
X315699Y59904D01*
X315698Y59905D01*
X314898Y59605D01*
X314198Y59305D01*
X314198Y59304D01*
X313498Y58904D01*
X313497Y58904D01*
X312897Y58404D01*
X312897Y58403D01*
X312896Y58403D01*
X312496Y57803D01*
X312496Y57802D01*
X312495Y57802D01*
X312195Y57002D01*
X312196Y57001D01*
X312195Y57001D01*
X312095Y56101D01*
X312095Y56100D01*
X312195Y54800D01*
X312196Y54799D01*
X312196Y54798D01*
X312696Y53798D01*
X312696Y53797D01*
X313296Y52897D01*
X313297Y52897D01*
X313297Y52896D01*
X314097Y52296D01*
X314098Y52296D01*
X315098Y51796D01*
X315098Y51795D01*
X316198Y51395D01*
X316199Y51396D01*
X316199Y51395D01*
X317399Y51195D01*
X317400Y51195D01*
X319800Y51195D01*
X319800Y51195D01*
G37*
G36*
X252605Y51499D02*
X252605Y51499D01*
X252605Y51500D01*
X252605Y63095D01*
X256400Y63095D01*
X256401Y63096D01*
X256403Y63096D01*
X256403Y63098D01*
X256405Y63099D01*
X256403Y63101D01*
X256404Y63104D01*
X255804Y63704D01*
X255803Y63704D01*
X255404Y64004D01*
X255104Y64403D01*
X255104Y64404D01*
X254504Y65004D01*
X254503Y65004D01*
X254104Y65304D01*
X253804Y65703D01*
X253801Y65704D01*
X253800Y65705D01*
X252605Y65705D01*
X252605Y66800D01*
X252605Y66801D01*
X252505Y67701D01*
X252305Y68501D01*
X252304Y68502D01*
X251904Y69202D01*
X251904Y69203D01*
X251404Y69803D01*
X251404Y69804D01*
X250804Y70404D01*
X250802Y70404D01*
X250802Y70405D01*
X250002Y70705D01*
X250001Y70705D01*
X249001Y71005D01*
X249000Y71005D01*
X247900Y71105D01*
X247100Y71105D01*
X247099Y71104D01*
X247098Y71105D01*
X246799Y71005D01*
X245800Y71005D01*
X245795Y71001D01*
X245795Y71000D01*
X245795Y68100D01*
X245799Y68095D01*
X245800Y68095D01*
X247599Y68095D01*
X248198Y67895D01*
X248396Y67796D01*
X248495Y67498D01*
X248496Y67498D01*
X248595Y67298D01*
X248695Y66899D01*
X248695Y65705D01*
X246000Y65705D01*
X245995Y65701D01*
X245995Y65700D01*
X245995Y63100D01*
X245999Y63095D01*
X246000Y63095D01*
X248695Y63095D01*
X248695Y51500D01*
X248699Y51495D01*
X248700Y51495D01*
X252600Y51495D01*
X252605Y51499D01*
G37*
G36*
X279605Y51499D02*
X279605Y51499D01*
X279605Y51500D01*
X279605Y65000D01*
X279602Y65004D01*
X279601Y65005D01*
X279101Y65105D01*
X278601Y65205D01*
X278201Y65305D01*
X278200Y65304D01*
X278200Y65305D01*
X277700Y65305D01*
X277201Y65405D01*
X276801Y65505D01*
X276301Y65605D01*
X275901Y65705D01*
X275900Y65704D01*
X275895Y65702D01*
X275896Y65701D01*
X275895Y65700D01*
X275895Y63005D01*
X275803Y63005D01*
X275505Y63702D01*
X275504Y63702D01*
X275504Y63703D01*
X275104Y64303D01*
X275104Y64304D01*
X274604Y64804D01*
X274603Y64804D01*
X273403Y65604D01*
X273402Y65604D01*
X273401Y65605D01*
X272001Y66005D01*
X272001Y66004D01*
X272000Y66005D01*
X270600Y66005D01*
X270598Y66003D01*
X270596Y66004D01*
X270496Y65904D01*
X270496Y65901D01*
X270495Y65900D01*
X270495Y62300D01*
X270499Y62295D01*
X270500Y62295D01*
X270600Y62295D01*
X270601Y62296D01*
X270602Y62296D01*
X270801Y62395D01*
X271900Y62395D01*
X272899Y62295D01*
X273698Y62095D01*
X274297Y61696D01*
X274896Y61097D01*
X275195Y60398D01*
X275495Y59698D01*
X275695Y58799D01*
X275695Y51500D01*
X275699Y51495D01*
X275700Y51495D01*
X279600Y51495D01*
X279605Y51499D01*
G37*
%LPC*%
G36*
X302501Y54205D02*
X302501Y54205D01*
X301802Y54504D01*
X301204Y54904D01*
X300405Y56102D01*
X300205Y56901D01*
X300105Y57701D01*
X300005Y58600D01*
X300105Y59399D01*
X300205Y60199D01*
X300505Y60998D01*
X300804Y61697D01*
X301303Y62296D01*
X301902Y62696D01*
X302601Y62995D01*
X303400Y63095D01*
X304299Y62995D01*
X304998Y62696D01*
X305597Y62296D01*
X306096Y61697D01*
X306395Y60998D01*
X306595Y60199D01*
X306795Y59399D01*
X306795Y57701D01*
X306595Y56901D01*
X306395Y56102D01*
X305996Y55503D01*
X305596Y54904D01*
X304998Y54504D01*
X304299Y54205D01*
X303400Y54105D01*
X302501Y54205D01*
G37*
%LPD*%
%LPC*%
G36*
X288201Y53805D02*
X288201Y53805D01*
X287401Y54005D01*
X287002Y54105D01*
X286703Y54304D01*
X286204Y54803D01*
X286105Y55102D01*
X286103Y55102D01*
X286104Y55104D01*
X285904Y55303D01*
X285805Y55601D01*
X285805Y55900D01*
X285804Y55901D01*
X285804Y55902D01*
X285705Y56101D01*
X285705Y56400D01*
X285704Y56401D01*
X285704Y56402D01*
X285605Y56601D01*
X285605Y58492D01*
X285797Y58396D01*
X285896Y58296D01*
X285898Y58296D01*
X286097Y58196D01*
X286196Y58096D01*
X286199Y58096D01*
X286200Y58095D01*
X286399Y58095D01*
X286798Y57896D01*
X286799Y57896D01*
X286800Y57895D01*
X287299Y57895D01*
X287498Y57796D01*
X287499Y57796D01*
X287500Y57795D01*
X287899Y57795D01*
X288198Y57695D01*
X288199Y57696D01*
X288200Y57695D01*
X288599Y57695D01*
X288898Y57595D01*
X288899Y57596D01*
X288900Y57595D01*
X289099Y57595D01*
X289298Y57496D01*
X289299Y57496D01*
X289300Y57495D01*
X289499Y57495D01*
X290497Y56996D01*
X290896Y56597D01*
X291095Y56199D01*
X291095Y55800D01*
X291096Y55799D01*
X291095Y55798D01*
X291195Y55500D01*
X291096Y55302D01*
X291096Y55301D01*
X291095Y55300D01*
X291095Y55101D01*
X290995Y54802D01*
X290996Y54801D01*
X290995Y54800D01*
X290995Y54701D01*
X290896Y54503D01*
X290597Y54204D01*
X290398Y54104D01*
X290397Y54103D01*
X290396Y54104D01*
X290297Y54004D01*
X290099Y53905D01*
X289900Y53905D01*
X289899Y53904D01*
X289898Y53904D01*
X289699Y53805D01*
X288201Y53805D01*
G37*
%LPD*%
D10*
X374868Y167767D02*
X374868Y182766D01*
X367369Y182766D01*
X364869Y180266D01*
X364869Y175266D01*
X367369Y172767D01*
X374868Y172767D01*
X369869Y172767D02*
X364869Y167767D01*
X355997Y167767D02*
X350997Y167767D01*
X348498Y170267D01*
X348498Y175266D01*
X350997Y177766D01*
X355997Y177766D01*
X358497Y175266D01*
X358497Y170267D01*
X355997Y167767D01*
X339625Y170267D02*
X339625Y180266D01*
X339625Y170267D02*
X337126Y167767D01*
X337126Y177766D02*
X342125Y177766D01*
X328711Y177766D02*
X323711Y177766D01*
X321212Y175266D01*
X321212Y167767D01*
X328711Y167767D01*
X331211Y170267D01*
X328711Y172767D01*
X321212Y172767D01*
X314839Y177766D02*
X314839Y167767D01*
X314839Y172767D02*
X309840Y177766D01*
X307340Y177766D01*
X301196Y177766D02*
X301196Y170267D01*
X298696Y167767D01*
X291197Y167767D01*
X291197Y165267D02*
X291197Y177766D01*
X291197Y165267D02*
X293697Y162767D01*
X296197Y162767D01*
X260954Y182766D02*
X258454Y180266D01*
X260954Y182766D02*
X265953Y182766D01*
X268453Y180266D01*
X268453Y177766D01*
X265953Y175266D01*
X260954Y175266D01*
X258454Y172767D01*
X258454Y170267D01*
X260954Y167767D01*
X265953Y167767D01*
X268453Y170267D01*
X252082Y170267D02*
X252082Y177766D01*
X252082Y170267D02*
X249582Y167767D01*
X247082Y170267D01*
X244582Y167767D01*
X242082Y170267D01*
X242082Y177766D01*
X235710Y177766D02*
X233210Y177766D01*
X233210Y167767D01*
X235710Y167767D02*
X230710Y167767D01*
X233210Y182766D02*
X233210Y185266D01*
X222296Y180266D02*
X222296Y170267D01*
X219796Y167767D01*
X219796Y177766D02*
X224796Y177766D01*
X211381Y177766D02*
X203882Y177766D01*
X211381Y177766D02*
X213881Y175266D01*
X213881Y170267D01*
X211381Y167767D01*
X203882Y167767D01*
X197510Y167767D02*
X197510Y182766D01*
X195010Y177766D02*
X197510Y175266D01*
X195010Y177766D02*
X190010Y177766D01*
X187510Y175266D01*
X187510Y167767D01*
X372140Y156096D02*
X372140Y141097D01*
X372140Y156096D02*
X364640Y156096D01*
X362140Y153596D01*
X362140Y148596D01*
X364640Y146097D01*
X372140Y146097D01*
X353268Y141097D02*
X348269Y141097D01*
X345769Y143597D01*
X345769Y148596D01*
X348269Y151096D01*
X353268Y151096D01*
X355768Y148596D01*
X355768Y143597D01*
X353268Y141097D01*
X336897Y143597D02*
X336897Y153596D01*
X336897Y143597D02*
X334397Y141097D01*
X334397Y151096D02*
X339397Y151096D01*
X325982Y141097D02*
X320983Y141097D01*
X325982Y141097D02*
X328482Y143597D01*
X328482Y148596D01*
X325982Y151096D01*
X320983Y151096D01*
X318483Y148596D01*
X318483Y146097D01*
X328482Y146097D01*
X312111Y141097D02*
X312111Y151096D01*
X304611Y151096D01*
X302111Y148596D01*
X302111Y141097D01*
X293239Y143597D02*
X293239Y153596D01*
X293239Y143597D02*
X290739Y141097D01*
X290739Y151096D02*
X295739Y151096D01*
X284825Y151096D02*
X282325Y151096D01*
X282325Y141097D01*
X284825Y141097D02*
X279825Y141097D01*
X282325Y156096D02*
X282325Y158596D01*
X271411Y141097D02*
X266411Y141097D01*
X263911Y143597D01*
X263911Y148596D01*
X266411Y151096D01*
X271411Y151096D01*
X273910Y148596D01*
X273910Y143597D01*
X271411Y141097D01*
X257539Y141097D02*
X257539Y151096D01*
X255039Y151096D01*
X252539Y148596D01*
X252539Y141097D01*
X252539Y148596D02*
X250039Y151096D01*
X247540Y148596D01*
X247540Y141097D01*
X238667Y141097D02*
X233668Y141097D01*
X238667Y141097D02*
X241167Y143597D01*
X241167Y148596D01*
X238667Y151096D01*
X233668Y151096D01*
X231168Y148596D01*
X231168Y146097D01*
X241167Y146097D01*
X222296Y143597D02*
X222296Y153596D01*
X222296Y143597D02*
X219796Y141097D01*
X219796Y151096D02*
X224796Y151096D01*
X211381Y141097D02*
X206382Y141097D01*
X211381Y141097D02*
X213881Y143597D01*
X213881Y148596D01*
X211381Y151096D01*
X206382Y151096D01*
X203882Y148596D01*
X203882Y146097D01*
X213881Y146097D01*
X197510Y141097D02*
X197510Y151096D01*
X197510Y146097D02*
X192510Y151096D01*
X190010Y151096D01*
X17653Y27906D02*
X12653Y32906D01*
X12653Y17907D01*
X7654Y17907D02*
X17653Y17907D01*
X17653Y43307D02*
X7654Y43307D01*
X17653Y43307D02*
X7654Y53306D01*
X7654Y55806D01*
X10154Y58306D01*
X15153Y58306D01*
X17653Y55806D01*
X17653Y81206D02*
X15153Y83706D01*
X10154Y83706D01*
X7654Y81206D01*
X7654Y78706D01*
X10154Y76206D01*
X12653Y76206D01*
X10154Y76206D02*
X7654Y73707D01*
X7654Y71207D01*
X10154Y68707D01*
X15153Y68707D01*
X17653Y71207D01*
X10154Y94107D02*
X10154Y109106D01*
X17653Y101606D01*
X7654Y101606D01*
X7654Y134506D02*
X17653Y134506D01*
X17653Y127006D01*
X12653Y129506D01*
X10154Y129506D01*
X7654Y127006D01*
X7654Y122007D01*
X10154Y119507D01*
X15153Y119507D01*
X17653Y122007D01*
X12653Y157406D02*
X7654Y159906D01*
X12653Y157406D02*
X17653Y152406D01*
X17653Y147407D01*
X15153Y144907D01*
X10154Y144907D01*
X7654Y147407D01*
X7654Y149907D01*
X10154Y152406D01*
X17653Y152406D01*
X17653Y185306D02*
X7654Y185306D01*
X7654Y182806D01*
X17653Y172807D01*
X17653Y170307D01*
X17653Y208206D02*
X15153Y210706D01*
X10154Y210706D01*
X7654Y208206D01*
X7654Y205706D01*
X10154Y203206D01*
X7654Y200707D01*
X7654Y198207D01*
X10154Y195707D01*
X15153Y195707D01*
X17653Y198207D01*
X17653Y200707D01*
X15153Y203206D01*
X17653Y205706D01*
X17653Y208206D01*
X15153Y203206D02*
X10154Y203206D01*
X15153Y221107D02*
X17653Y223607D01*
X15153Y221107D02*
X10154Y221107D01*
X7654Y223607D01*
X7654Y233606D01*
X10154Y236106D01*
X15153Y236106D01*
X17653Y233606D01*
X17653Y231106D01*
X15153Y228606D01*
X7654Y228606D01*
X462206Y175226D02*
X464706Y172726D01*
X464706Y167727D01*
X462206Y165227D01*
X452207Y165227D01*
X449707Y167727D01*
X449707Y172726D01*
X452207Y175226D01*
X449707Y181599D02*
X464706Y181599D01*
X454707Y186598D02*
X449707Y181599D01*
X454707Y186598D02*
X449707Y191598D01*
X464706Y191598D01*
X443116Y120211D02*
X428117Y120211D01*
X433117Y125211D01*
X428117Y130210D01*
X443116Y130210D01*
X462206Y51181D02*
X464706Y48682D01*
X464706Y43682D01*
X462206Y41182D01*
X452207Y41182D01*
X449707Y43682D01*
X449707Y48682D01*
X452207Y51181D01*
X464706Y65053D02*
X462206Y67553D01*
X464706Y65053D02*
X464706Y60054D01*
X462206Y57554D01*
X452207Y57554D01*
X449707Y60054D01*
X449707Y65053D01*
X452207Y67553D01*
X449707Y73925D02*
X464706Y73925D01*
X454707Y78925D02*
X449707Y73925D01*
X454707Y78925D02*
X449707Y83925D01*
X464706Y83925D01*
M02*
