G04 EAGLE Gerber RS-274X export*
G75*
%MOMM*%
%FSLAX34Y34*%
%LPD*%
%INSolderpaste Top*%
%IPPOS*%
%AMOC8*
5,1,8,0,0,1.08239X$1,22.5*%
G01*
%ADD10R,1.400000X1.400000*%
%ADD11R,1.000000X0.850000*%
%ADD12R,0.900000X0.900000*%
%ADD13R,1.500000X1.240000*%
%ADD14R,1.240000X1.500000*%
%ADD15R,0.690000X0.990000*%


D10*
X39370Y126280D03*
X39370Y163280D03*
X19050Y126280D03*
X19050Y163280D03*
D11*
X63780Y189090D03*
X98780Y189090D03*
X63780Y171590D03*
X98780Y171590D03*
X112040Y189090D03*
X147040Y189090D03*
X112040Y171590D03*
X147040Y171590D03*
X160300Y189090D03*
X195300Y189090D03*
X160300Y171590D03*
X195300Y171590D03*
X208560Y189090D03*
X243560Y189090D03*
X208560Y171590D03*
X243560Y171590D03*
X256820Y189090D03*
X291820Y189090D03*
X256820Y171590D03*
X291820Y171590D03*
X305080Y189090D03*
X340080Y189090D03*
X305080Y171590D03*
X340080Y171590D03*
X63780Y144640D03*
X98780Y144640D03*
X63780Y127140D03*
X98780Y127140D03*
X112040Y144640D03*
X147040Y144640D03*
X112040Y127140D03*
X147040Y127140D03*
X160300Y144640D03*
X195300Y144640D03*
X160300Y127140D03*
X195300Y127140D03*
X208560Y144640D03*
X243560Y144640D03*
X208560Y127140D03*
X243560Y127140D03*
X256820Y144640D03*
X291820Y144640D03*
X256820Y127140D03*
X291820Y127140D03*
X305080Y144640D03*
X340080Y144640D03*
X305080Y127140D03*
X340080Y127140D03*
X63780Y100190D03*
X98780Y100190D03*
X63780Y82690D03*
X98780Y82690D03*
X112040Y100190D03*
X147040Y100190D03*
X112040Y82690D03*
X147040Y82690D03*
X160300Y100190D03*
X195300Y100190D03*
X160300Y82690D03*
X195300Y82690D03*
X208560Y100190D03*
X243560Y100190D03*
X208560Y82690D03*
X243560Y82690D03*
X256820Y100190D03*
X291820Y100190D03*
X256820Y82690D03*
X291820Y82690D03*
X305080Y100190D03*
X340080Y100190D03*
X305080Y82690D03*
X340080Y82690D03*
D12*
X495680Y93800D03*
X479680Y93800D03*
X479680Y134800D03*
X495680Y134800D03*
D13*
X454660Y173380D03*
X454660Y192380D03*
D14*
X454050Y62230D03*
X473050Y62230D03*
D13*
X457200Y127660D03*
X457200Y146660D03*
D15*
X10820Y82350D03*
X20320Y82350D03*
X29820Y82350D03*
X29820Y108250D03*
X10820Y108250D03*
D11*
X63780Y55740D03*
X98780Y55740D03*
X63780Y38240D03*
X98780Y38240D03*
X112040Y55740D03*
X147040Y55740D03*
X112040Y38240D03*
X147040Y38240D03*
X160300Y55740D03*
X195300Y55740D03*
X160300Y38240D03*
X195300Y38240D03*
X208560Y55740D03*
X243560Y55740D03*
X208560Y38240D03*
X243560Y38240D03*
X256820Y55740D03*
X291820Y55740D03*
X256820Y38240D03*
X291820Y38240D03*
X305080Y55740D03*
X340080Y55740D03*
X305080Y38240D03*
X340080Y38240D03*
X353340Y189090D03*
X388340Y189090D03*
X353340Y171590D03*
X388340Y171590D03*
X401600Y189090D03*
X436600Y189090D03*
X401600Y171590D03*
X436600Y171590D03*
X353340Y144640D03*
X388340Y144640D03*
X353340Y127140D03*
X388340Y127140D03*
X401600Y144640D03*
X436600Y144640D03*
X401600Y127140D03*
X436600Y127140D03*
X353340Y100190D03*
X388340Y100190D03*
X353340Y82690D03*
X388340Y82690D03*
X401600Y100190D03*
X436600Y100190D03*
X401600Y82690D03*
X436600Y82690D03*
X353340Y55740D03*
X388340Y55740D03*
X353340Y38240D03*
X388340Y38240D03*
X401600Y55740D03*
X436600Y55740D03*
X401600Y38240D03*
X436600Y38240D03*
D13*
X454660Y81940D03*
X454660Y100940D03*
X46990Y81890D03*
X46990Y62890D03*
M02*
