<?xml version="1.0" standalone="no"?>
 <!DOCTYPE svg PUBLIC "-//W3C//DTD SVG 1.1//EN" 
 "http://www.w3.org/Graphics/SVG/1.1/DTD/svg11.dtd"> 
<svg
  xmlns:svg="http://www.w3.org/2000/svg"
  xmlns="http://www.w3.org/2000/svg"
  xmlns:xlink="http://www.w3.org/1999/xlink"
  version="1.1"
  width="29.700220cm" height="21.000720cm" viewBox="0 0 297002200 210007200">
<title>SVG Picture created as boardKicad-User_Comments.svg date 2022/08/12 09:44:39 </title>
  <desc>Picture generated by PCBNEW </desc>
<g style="fill:#000000; fill-opacity:1.000000;stroke:#000000; stroke-opacity:1.000000;
stroke-linecap:round; stroke-linejoin:round;"
 transform="translate(0 0) scale(1 1)">
</g>
<g style="fill:#000000; fill-opacity:0.0; 
stroke:#000000; stroke-width:0.000000; stroke-opacity:1; 
stroke-linecap:round; stroke-linejoin:round;">
</g>
<g style="fill:#000000; fill-opacity:0.0; 
stroke:#000000; stroke-width:21200.000000; stroke-opacity:1; 
stroke-linecap:round; stroke-linejoin:round;">
</g>
<g style="fill:#000000; fill-opacity:0.0; 
stroke:#000000; stroke-width:150000.000000; stroke-opacity:1; 
stroke-linecap:round; stroke-linejoin:round;">
<rect x="177002200.000000" y="166007200.000000" width="108000000.000000" height="32000000.000000" rx="0.000000" />
</g>
<g style="fill:#000000; fill-opacity:0.0; 
stroke:#000000; stroke-width:21200.000000; stroke-opacity:1; 
stroke-linecap:round; stroke-linejoin:round;">
</g>
<g style="fill:#000000; fill-opacity:0.0; 
stroke:#000000; stroke-width:150000.000000; stroke-opacity:1; 
stroke-linecap:round; stroke-linejoin:round;">
<rect x="10000000.000000" y="10000000.000000" width="277002200.000000" height="190007200.000000" rx="0.000000" />
</g>
<g style="fill:#000000; fill-opacity:0.0; 
stroke:#000000; stroke-width:21200.000000; stroke-opacity:1; 
stroke-linecap:round; stroke-linejoin:round;">
</g>
<g style="fill:#000000; fill-opacity:0.0; 
stroke:#000000; stroke-width:150000.000000; stroke-opacity:1; 
stroke-linecap:round; stroke-linejoin:round;">
<rect x="12000000.000000" y="12000000.000000" width="273002200.000000" height="186007200.000000" rx="0.000000" />
</g>
<g style="fill:#000000; fill-opacity:0.0; 
stroke:#000000; stroke-width:21200.000000; stroke-opacity:1; 
stroke-linecap:round; stroke-linejoin:round;">
</g>
<g style="fill:#000000; fill-opacity:0.0; 
stroke:#000000; stroke-width:150000.000000; stroke-opacity:1; 
stroke-linecap:round; stroke-linejoin:round;">
<path d="M60000000 12000000
L60000000 10000000
" />
</g>
<g style="fill:#000000; fill-opacity:0.0; 
stroke:#000000; stroke-width:21200.000000; stroke-opacity:1; 
stroke-linecap:round; stroke-linejoin:round;">
</g>
<g style="fill:#000000; fill-opacity:0.0; 
stroke:#000000; stroke-width:150000.000000; stroke-opacity:1; 
stroke-linecap:round; stroke-linejoin:round;">
<path d="M110000000 12000000
L110000000 10000000
" />
</g>
<g style="fill:#000000; fill-opacity:0.0; 
stroke:#000000; stroke-width:21200.000000; stroke-opacity:1; 
stroke-linecap:round; stroke-linejoin:round;">
</g>
<g style="fill:#000000; fill-opacity:0.0; 
stroke:#000000; stroke-width:150000.000000; stroke-opacity:1; 
stroke-linecap:round; stroke-linejoin:round;">
<path d="M160000000 12000000
L160000000 10000000
" />
</g>
<g style="fill:#000000; fill-opacity:0.0; 
stroke:#000000; stroke-width:21200.000000; stroke-opacity:1; 
stroke-linecap:round; stroke-linejoin:round;">
</g>
<g style="fill:#000000; fill-opacity:0.0; 
stroke:#000000; stroke-width:150000.000000; stroke-opacity:1; 
stroke-linecap:round; stroke-linejoin:round;">
<path d="M210000000 12000000
L210000000 10000000
" />
</g>
<g style="fill:#000000; fill-opacity:0.0; 
stroke:#000000; stroke-width:21200.000000; stroke-opacity:1; 
stroke-linecap:round; stroke-linejoin:round;">
</g>
<g style="fill:#000000; fill-opacity:0.0; 
stroke:#000000; stroke-width:150000.000000; stroke-opacity:1; 
stroke-linecap:round; stroke-linejoin:round;">
<path d="M260000000 12000000
L260000000 10000000
" />
</g>
<g style="fill:#000000; fill-opacity:0.0; 
stroke:#000000; stroke-width:21200.000000; stroke-opacity:1; 
stroke-linecap:round; stroke-linejoin:round;">
</g>
<g style="fill:#000000; fill-opacity:0.0; 
stroke:#000000; stroke-width:150000.000000; stroke-opacity:1; 
stroke-linecap:round; stroke-linejoin:round;">
<text x="35000000.000000" y="11650000.000000"
textLength="1388095.000000" font-size="1733333.000000" lengthAdjust="spacingAndGlyphs"
text-anchor="start" opacity="0">1</text>
<g class="stroked-text"><desc>1</desc>
<path d="M36065476 11588095
L35322619 11588095
" />
<path d="M35694047 11588095
L35694047 10288095
L35570238 10473809
L35446428 10597619
L35322619 10659523
" />
</g></g>
<g style="fill:#000000; fill-opacity:0.0; 
stroke:#000000; stroke-width:21200.000000; stroke-opacity:1; 
stroke-linecap:round; stroke-linejoin:round;">
</g>
<g style="fill:#000000; fill-opacity:0.0; 
stroke:#000000; stroke-width:150000.000000; stroke-opacity:1; 
stroke-linecap:round; stroke-linejoin:round;">
<text x="85000000.000000" y="11650000.000000"
textLength="1388095.000000" font-size="1733333.000000" lengthAdjust="spacingAndGlyphs"
text-anchor="start" opacity="0">2</text>
<g class="stroked-text"><desc>2</desc>
<path d="M85322619 10411904
L85384523 10350000
L85508333 10288095
L85817857 10288095
L85941666 10350000
L86003571 10411904
L86065476 10535714
L86065476 10659523
L86003571 10845238
L85260714 11588095
L86065476 11588095
" />
</g></g>
<g style="fill:#000000; fill-opacity:0.0; 
stroke:#000000; stroke-width:21200.000000; stroke-opacity:1; 
stroke-linecap:round; stroke-linejoin:round;">
</g>
<g style="fill:#000000; fill-opacity:0.0; 
stroke:#000000; stroke-width:150000.000000; stroke-opacity:1; 
stroke-linecap:round; stroke-linejoin:round;">
<text x="135000000.000000" y="11650000.000000"
textLength="1388095.000000" font-size="1733333.000000" lengthAdjust="spacingAndGlyphs"
text-anchor="start" opacity="0">3</text>
<g class="stroked-text"><desc>3</desc>
<path d="M135260714 10288095
L136065476 10288095
L135632142 10783333
L135817857 10783333
L135941666 10845238
L136003571 10907142
L136065476 11030952
L136065476 11340476
L136003571 11464285
L135941666 11526190
L135817857 11588095
L135446428 11588095
L135322619 11526190
L135260714 11464285
" />
</g></g>
<g style="fill:#000000; fill-opacity:0.0; 
stroke:#000000; stroke-width:21200.000000; stroke-opacity:1; 
stroke-linecap:round; stroke-linejoin:round;">
</g>
<g style="fill:#000000; fill-opacity:0.0; 
stroke:#000000; stroke-width:150000.000000; stroke-opacity:1; 
stroke-linecap:round; stroke-linejoin:round;">
<text x="185000000.000000" y="11650000.000000"
textLength="1388095.000000" font-size="1733333.000000" lengthAdjust="spacingAndGlyphs"
text-anchor="start" opacity="0">4</text>
<g class="stroked-text"><desc>4</desc>
<path d="M185941666 10721428
L185941666 11588095
" />
<path d="M185632142 10226190
L185322619 11154761
L186127380 11154761
" />
</g></g>
<g style="fill:#000000; fill-opacity:0.0; 
stroke:#000000; stroke-width:21200.000000; stroke-opacity:1; 
stroke-linecap:round; stroke-linejoin:round;">
</g>
<g style="fill:#000000; fill-opacity:0.0; 
stroke:#000000; stroke-width:150000.000000; stroke-opacity:1; 
stroke-linecap:round; stroke-linejoin:round;">
<text x="235000000.000000" y="11650000.000000"
textLength="1388095.000000" font-size="1733333.000000" lengthAdjust="spacingAndGlyphs"
text-anchor="start" opacity="0">5</text>
<g class="stroked-text"><desc>5</desc>
<path d="M236003571 10288095
L235384523 10288095
L235322619 10907142
L235384523 10845238
L235508333 10783333
L235817857 10783333
L235941666 10845238
L236003571 10907142
L236065476 11030952
L236065476 11340476
L236003571 11464285
L235941666 11526190
L235817857 11588095
L235508333 11588095
L235384523 11526190
L235322619 11464285
" />
</g></g>
<g style="fill:#000000; fill-opacity:0.0; 
stroke:#000000; stroke-width:21200.000000; stroke-opacity:1; 
stroke-linecap:round; stroke-linejoin:round;">
</g>
<g style="fill:#000000; fill-opacity:0.0; 
stroke:#000000; stroke-width:150000.000000; stroke-opacity:1; 
stroke-linecap:round; stroke-linejoin:round;">
<text x="285000000.000000" y="11650000.000000"
textLength="1388095.000000" font-size="1733333.000000" lengthAdjust="spacingAndGlyphs"
text-anchor="start" opacity="0">6</text>
<g class="stroked-text"><desc>6</desc>
<path d="M285941666 10288095
L285694047 10288095
L285570238 10350000
L285508333 10411904
L285384523 10597619
L285322619 10845238
L285322619 11340476
L285384523 11464285
L285446428 11526190
L285570238 11588095
L285817857 11588095
L285941666 11526190
L286003571 11464285
L286065476 11340476
L286065476 11030952
L286003571 10907142
L285941666 10845238
L285817857 10783333
L285570238 10783333
L285446428 10845238
L285384523 10907142
L285322619 11030952
" />
</g></g>
<g style="fill:#000000; fill-opacity:0.0; 
stroke:#000000; stroke-width:21200.000000; stroke-opacity:1; 
stroke-linecap:round; stroke-linejoin:round;">
</g>
<g style="fill:#000000; fill-opacity:0.0; 
stroke:#000000; stroke-width:150000.000000; stroke-opacity:1; 
stroke-linecap:round; stroke-linejoin:round;">
<path d="M60000000 198007200
L60000000 200007200
" />
</g>
<g style="fill:#000000; fill-opacity:0.0; 
stroke:#000000; stroke-width:21200.000000; stroke-opacity:1; 
stroke-linecap:round; stroke-linejoin:round;">
</g>
<g style="fill:#000000; fill-opacity:0.0; 
stroke:#000000; stroke-width:150000.000000; stroke-opacity:1; 
stroke-linecap:round; stroke-linejoin:round;">
<path d="M110000000 198007200
L110000000 200007200
" />
</g>
<g style="fill:#000000; fill-opacity:0.0; 
stroke:#000000; stroke-width:21200.000000; stroke-opacity:1; 
stroke-linecap:round; stroke-linejoin:round;">
</g>
<g style="fill:#000000; fill-opacity:0.0; 
stroke:#000000; stroke-width:150000.000000; stroke-opacity:1; 
stroke-linecap:round; stroke-linejoin:round;">
<path d="M160000000 198007200
L160000000 200007200
" />
</g>
<g style="fill:#000000; fill-opacity:0.0; 
stroke:#000000; stroke-width:21200.000000; stroke-opacity:1; 
stroke-linecap:round; stroke-linejoin:round;">
</g>
<g style="fill:#000000; fill-opacity:0.0; 
stroke:#000000; stroke-width:150000.000000; stroke-opacity:1; 
stroke-linecap:round; stroke-linejoin:round;">
<path d="M210000000 198007200
L210000000 200007200
" />
</g>
<g style="fill:#000000; fill-opacity:0.0; 
stroke:#000000; stroke-width:21200.000000; stroke-opacity:1; 
stroke-linecap:round; stroke-linejoin:round;">
</g>
<g style="fill:#000000; fill-opacity:0.0; 
stroke:#000000; stroke-width:150000.000000; stroke-opacity:1; 
stroke-linecap:round; stroke-linejoin:round;">
<path d="M260000000 198007200
L260000000 200007200
" />
</g>
<g style="fill:#000000; fill-opacity:0.0; 
stroke:#000000; stroke-width:21200.000000; stroke-opacity:1; 
stroke-linecap:round; stroke-linejoin:round;">
</g>
<g style="fill:#000000; fill-opacity:0.0; 
stroke:#000000; stroke-width:150000.000000; stroke-opacity:1; 
stroke-linecap:round; stroke-linejoin:round;">
<text x="35000000.000000" y="199657200.000000"
textLength="1388095.000000" font-size="1733333.000000" lengthAdjust="spacingAndGlyphs"
text-anchor="start" opacity="0">1</text>
<g class="stroked-text"><desc>1</desc>
<path d="M36065476 199595295
L35322619 199595295
" />
<path d="M35694047 199595295
L35694047 198295295
L35570238 198481009
L35446428 198604819
L35322619 198666723
" />
</g></g>
<g style="fill:#000000; fill-opacity:0.0; 
stroke:#000000; stroke-width:21200.000000; stroke-opacity:1; 
stroke-linecap:round; stroke-linejoin:round;">
</g>
<g style="fill:#000000; fill-opacity:0.0; 
stroke:#000000; stroke-width:150000.000000; stroke-opacity:1; 
stroke-linecap:round; stroke-linejoin:round;">
<text x="85000000.000000" y="199657200.000000"
textLength="1388095.000000" font-size="1733333.000000" lengthAdjust="spacingAndGlyphs"
text-anchor="start" opacity="0">2</text>
<g class="stroked-text"><desc>2</desc>
<path d="M85322619 198419104
L85384523 198357200
L85508333 198295295
L85817857 198295295
L85941666 198357200
L86003571 198419104
L86065476 198542914
L86065476 198666723
L86003571 198852438
L85260714 199595295
L86065476 199595295
" />
</g></g>
<g style="fill:#000000; fill-opacity:0.0; 
stroke:#000000; stroke-width:21200.000000; stroke-opacity:1; 
stroke-linecap:round; stroke-linejoin:round;">
</g>
<g style="fill:#000000; fill-opacity:0.0; 
stroke:#000000; stroke-width:150000.000000; stroke-opacity:1; 
stroke-linecap:round; stroke-linejoin:round;">
<text x="135000000.000000" y="199657200.000000"
textLength="1388095.000000" font-size="1733333.000000" lengthAdjust="spacingAndGlyphs"
text-anchor="start" opacity="0">3</text>
<g class="stroked-text"><desc>3</desc>
<path d="M135260714 198295295
L136065476 198295295
L135632142 198790533
L135817857 198790533
L135941666 198852438
L136003571 198914342
L136065476 199038152
L136065476 199347676
L136003571 199471485
L135941666 199533390
L135817857 199595295
L135446428 199595295
L135322619 199533390
L135260714 199471485
" />
</g></g>
<g style="fill:#000000; fill-opacity:0.0; 
stroke:#000000; stroke-width:21200.000000; stroke-opacity:1; 
stroke-linecap:round; stroke-linejoin:round;">
</g>
<g style="fill:#000000; fill-opacity:0.0; 
stroke:#000000; stroke-width:150000.000000; stroke-opacity:1; 
stroke-linecap:round; stroke-linejoin:round;">
<text x="185000000.000000" y="199657200.000000"
textLength="1388095.000000" font-size="1733333.000000" lengthAdjust="spacingAndGlyphs"
text-anchor="start" opacity="0">4</text>
<g class="stroked-text"><desc>4</desc>
<path d="M185941666 198728628
L185941666 199595295
" />
<path d="M185632142 198233390
L185322619 199161961
L186127380 199161961
" />
</g></g>
<g style="fill:#000000; fill-opacity:0.0; 
stroke:#000000; stroke-width:21200.000000; stroke-opacity:1; 
stroke-linecap:round; stroke-linejoin:round;">
</g>
<g style="fill:#000000; fill-opacity:0.0; 
stroke:#000000; stroke-width:150000.000000; stroke-opacity:1; 
stroke-linecap:round; stroke-linejoin:round;">
<text x="235000000.000000" y="199657200.000000"
textLength="1388095.000000" font-size="1733333.000000" lengthAdjust="spacingAndGlyphs"
text-anchor="start" opacity="0">5</text>
<g class="stroked-text"><desc>5</desc>
<path d="M236003571 198295295
L235384523 198295295
L235322619 198914342
L235384523 198852438
L235508333 198790533
L235817857 198790533
L235941666 198852438
L236003571 198914342
L236065476 199038152
L236065476 199347676
L236003571 199471485
L235941666 199533390
L235817857 199595295
L235508333 199595295
L235384523 199533390
L235322619 199471485
" />
</g></g>
<g style="fill:#000000; fill-opacity:0.0; 
stroke:#000000; stroke-width:21200.000000; stroke-opacity:1; 
stroke-linecap:round; stroke-linejoin:round;">
</g>
<g style="fill:#000000; fill-opacity:0.0; 
stroke:#000000; stroke-width:150000.000000; stroke-opacity:1; 
stroke-linecap:round; stroke-linejoin:round;">
<text x="285000000.000000" y="199657200.000000"
textLength="1388095.000000" font-size="1733333.000000" lengthAdjust="spacingAndGlyphs"
text-anchor="start" opacity="0">6</text>
<g class="stroked-text"><desc>6</desc>
<path d="M285941666 198295295
L285694047 198295295
L285570238 198357200
L285508333 198419104
L285384523 198604819
L285322619 198852438
L285322619 199347676
L285384523 199471485
L285446428 199533390
L285570238 199595295
L285817857 199595295
L285941666 199533390
L286003571 199471485
L286065476 199347676
L286065476 199038152
L286003571 198914342
L285941666 198852438
L285817857 198790533
L285570238 198790533
L285446428 198852438
L285384523 198914342
L285322619 199038152
" />
</g></g>
<g style="fill:#000000; fill-opacity:0.0; 
stroke:#000000; stroke-width:21200.000000; stroke-opacity:1; 
stroke-linecap:round; stroke-linejoin:round;">
</g>
<g style="fill:#000000; fill-opacity:0.0; 
stroke:#000000; stroke-width:150000.000000; stroke-opacity:1; 
stroke-linecap:round; stroke-linejoin:round;">
<path d="M10000000 60000000
L12000000 60000000
" />
</g>
<g style="fill:#000000; fill-opacity:0.0; 
stroke:#000000; stroke-width:21200.000000; stroke-opacity:1; 
stroke-linecap:round; stroke-linejoin:round;">
</g>
<g style="fill:#000000; fill-opacity:0.0; 
stroke:#000000; stroke-width:150000.000000; stroke-opacity:1; 
stroke-linecap:round; stroke-linejoin:round;">
<path d="M10000000 110000000
L12000000 110000000
" />
</g>
<g style="fill:#000000; fill-opacity:0.0; 
stroke:#000000; stroke-width:21200.000000; stroke-opacity:1; 
stroke-linecap:round; stroke-linejoin:round;">
</g>
<g style="fill:#000000; fill-opacity:0.0; 
stroke:#000000; stroke-width:150000.000000; stroke-opacity:1; 
stroke-linecap:round; stroke-linejoin:round;">
<path d="M10000000 160000000
L12000000 160000000
" />
</g>
<g style="fill:#000000; fill-opacity:0.0; 
stroke:#000000; stroke-width:21200.000000; stroke-opacity:1; 
stroke-linecap:round; stroke-linejoin:round;">
</g>
<g style="fill:#000000; fill-opacity:0.0; 
stroke:#000000; stroke-width:150000.000000; stroke-opacity:1; 
stroke-linecap:round; stroke-linejoin:round;">
<text x="11000000.000000" y="35650000.000000"
textLength="1264286.000000" font-size="1733333.000000" lengthAdjust="spacingAndGlyphs"
text-anchor="middle" opacity="0">A</text>
<g class="stroked-text"><desc>A</desc>
<path d="M10690476 35216666
L11309523 35216666
" />
<path d="M10566666 35588095
L11000000 34288095
L11433333 35588095
" />
</g></g>
<g style="fill:#000000; fill-opacity:0.0; 
stroke:#000000; stroke-width:21200.000000; stroke-opacity:1; 
stroke-linecap:round; stroke-linejoin:round;">
</g>
<g style="fill:#000000; fill-opacity:0.0; 
stroke:#000000; stroke-width:150000.000000; stroke-opacity:1; 
stroke-linecap:round; stroke-linejoin:round;">
<text x="11000000.000000" y="85650000.000000"
textLength="1450000.000000" font-size="1733333.000000" lengthAdjust="spacingAndGlyphs"
text-anchor="middle" opacity="0">B</text>
<g class="stroked-text"><desc>B</desc>
<path d="M11092857 84907142
L11278571 84969047
L11340476 85030952
L11402380 85154761
L11402380 85340476
L11340476 85464285
L11278571 85526190
L11154761 85588095
L10659523 85588095
L10659523 84288095
L11092857 84288095
L11216666 84350000
L11278571 84411904
L11340476 84535714
L11340476 84659523
L11278571 84783333
L11216666 84845238
L11092857 84907142
L10659523 84907142
" />
</g></g>
<g style="fill:#000000; fill-opacity:0.0; 
stroke:#000000; stroke-width:21200.000000; stroke-opacity:1; 
stroke-linecap:round; stroke-linejoin:round;">
</g>
<g style="fill:#000000; fill-opacity:0.0; 
stroke:#000000; stroke-width:150000.000000; stroke-opacity:1; 
stroke-linecap:round; stroke-linejoin:round;">
<text x="11000000.000000" y="135650000.000000"
textLength="1450000.000000" font-size="1733333.000000" lengthAdjust="spacingAndGlyphs"
text-anchor="middle" opacity="0">C</text>
<g class="stroked-text"><desc>C</desc>
<path d="M11402380 135464285
L11340476 135526190
L11154761 135588095
L11030952 135588095
L10845238 135526190
L10721428 135402380
L10659523 135278571
L10597619 135030952
L10597619 134845238
L10659523 134597619
L10721428 134473809
L10845238 134350000
L11030952 134288095
L11154761 134288095
L11340476 134350000
L11402380 134411904
" />
</g></g>
<g style="fill:#000000; fill-opacity:0.0; 
stroke:#000000; stroke-width:21200.000000; stroke-opacity:1; 
stroke-linecap:round; stroke-linejoin:round;">
</g>
<g style="fill:#000000; fill-opacity:0.0; 
stroke:#000000; stroke-width:150000.000000; stroke-opacity:1; 
stroke-linecap:round; stroke-linejoin:round;">
<text x="11000000.000000" y="185650000.000000"
textLength="1450000.000000" font-size="1733333.000000" lengthAdjust="spacingAndGlyphs"
text-anchor="middle" opacity="0">D</text>
<g class="stroked-text"><desc>D</desc>
<path d="M10659523 185588095
L10659523 184288095
L10969047 184288095
L11154761 184350000
L11278571 184473809
L11340476 184597619
L11402380 184845238
L11402380 185030952
L11340476 185278571
L11278571 185402380
L11154761 185526190
L10969047 185588095
L10659523 185588095
" />
</g></g>
<g style="fill:#000000; fill-opacity:0.0; 
stroke:#000000; stroke-width:21200.000000; stroke-opacity:1; 
stroke-linecap:round; stroke-linejoin:round;">
</g>
<g style="fill:#000000; fill-opacity:0.0; 
stroke:#000000; stroke-width:150000.000000; stroke-opacity:1; 
stroke-linecap:round; stroke-linejoin:round;">
<path d="M287002200 60000000
L285002200 60000000
" />
</g>
<g style="fill:#000000; fill-opacity:0.0; 
stroke:#000000; stroke-width:21200.000000; stroke-opacity:1; 
stroke-linecap:round; stroke-linejoin:round;">
</g>
<g style="fill:#000000; fill-opacity:0.0; 
stroke:#000000; stroke-width:150000.000000; stroke-opacity:1; 
stroke-linecap:round; stroke-linejoin:round;">
<path d="M287002200 110000000
L285002200 110000000
" />
</g>
<g style="fill:#000000; fill-opacity:0.0; 
stroke:#000000; stroke-width:21200.000000; stroke-opacity:1; 
stroke-linecap:round; stroke-linejoin:round;">
</g>
<g style="fill:#000000; fill-opacity:0.0; 
stroke:#000000; stroke-width:150000.000000; stroke-opacity:1; 
stroke-linecap:round; stroke-linejoin:round;">
<path d="M287002200 160000000
L285002200 160000000
" />
</g>
<g style="fill:#000000; fill-opacity:0.0; 
stroke:#000000; stroke-width:21200.000000; stroke-opacity:1; 
stroke-linecap:round; stroke-linejoin:round;">
</g>
<g style="fill:#000000; fill-opacity:0.0; 
stroke:#000000; stroke-width:150000.000000; stroke-opacity:1; 
stroke-linecap:round; stroke-linejoin:round;">
<text x="286002200.000000" y="35650000.000000"
textLength="1264286.000000" font-size="1733333.000000" lengthAdjust="spacingAndGlyphs"
text-anchor="middle" opacity="0">A</text>
<g class="stroked-text"><desc>A</desc>
<path d="M285692676 35216666
L286311723 35216666
" />
<path d="M285568866 35588095
L286002200 34288095
L286435533 35588095
" />
</g></g>
<g style="fill:#000000; fill-opacity:0.0; 
stroke:#000000; stroke-width:21200.000000; stroke-opacity:1; 
stroke-linecap:round; stroke-linejoin:round;">
</g>
<g style="fill:#000000; fill-opacity:0.0; 
stroke:#000000; stroke-width:150000.000000; stroke-opacity:1; 
stroke-linecap:round; stroke-linejoin:round;">
<text x="286002200.000000" y="85650000.000000"
textLength="1450000.000000" font-size="1733333.000000" lengthAdjust="spacingAndGlyphs"
text-anchor="middle" opacity="0">B</text>
<g class="stroked-text"><desc>B</desc>
<path d="M286095057 84907142
L286280771 84969047
L286342676 85030952
L286404580 85154761
L286404580 85340476
L286342676 85464285
L286280771 85526190
L286156961 85588095
L285661723 85588095
L285661723 84288095
L286095057 84288095
L286218866 84350000
L286280771 84411904
L286342676 84535714
L286342676 84659523
L286280771 84783333
L286218866 84845238
L286095057 84907142
L285661723 84907142
" />
</g></g>
<g style="fill:#000000; fill-opacity:0.0; 
stroke:#000000; stroke-width:21200.000000; stroke-opacity:1; 
stroke-linecap:round; stroke-linejoin:round;">
</g>
<g style="fill:#000000; fill-opacity:0.0; 
stroke:#000000; stroke-width:150000.000000; stroke-opacity:1; 
stroke-linecap:round; stroke-linejoin:round;">
<text x="286002200.000000" y="135650000.000000"
textLength="1450000.000000" font-size="1733333.000000" lengthAdjust="spacingAndGlyphs"
text-anchor="middle" opacity="0">C</text>
<g class="stroked-text"><desc>C</desc>
<path d="M286404580 135464285
L286342676 135526190
L286156961 135588095
L286033152 135588095
L285847438 135526190
L285723628 135402380
L285661723 135278571
L285599819 135030952
L285599819 134845238
L285661723 134597619
L285723628 134473809
L285847438 134350000
L286033152 134288095
L286156961 134288095
L286342676 134350000
L286404580 134411904
" />
</g></g>
<g style="fill:#000000; fill-opacity:0.0; 
stroke:#000000; stroke-width:21200.000000; stroke-opacity:1; 
stroke-linecap:round; stroke-linejoin:round;">
</g>
<g style="fill:#000000; fill-opacity:0.0; 
stroke:#000000; stroke-width:150000.000000; stroke-opacity:1; 
stroke-linecap:round; stroke-linejoin:round;">
<text x="286002200.000000" y="185650000.000000"
textLength="1450000.000000" font-size="1733333.000000" lengthAdjust="spacingAndGlyphs"
text-anchor="middle" opacity="0">D</text>
<g class="stroked-text"><desc>D</desc>
<path d="M285661723 185588095
L285661723 184288095
L285971247 184288095
L286156961 184350000
L286280771 184473809
L286342676 184597619
L286404580 184845238
L286404580 185030952
L286342676 185278571
L286280771 185402380
L286156961 185526190
L285971247 185588095
L285661723 185588095
" />
</g></g>
<g style="fill:#000000; fill-opacity:0.0; 
stroke:#000000; stroke-width:21200.000000; stroke-opacity:1; 
stroke-linecap:round; stroke-linejoin:round;">
</g>
<g style="fill:#000000; fill-opacity:0.0; 
stroke:#000000; stroke-width:150000.000000; stroke-opacity:1; 
stroke-linecap:round; stroke-linejoin:round;">
<text x="200002200.000000" y="193857200.000000"
textLength="7007143.000000" font-size="2000000.000000" lengthAdjust="spacingAndGlyphs"
text-anchor="start" opacity="0">Date: </text>
<g class="stroked-text"><desc>Date: </desc>
<path d="M200434342 193785771
L200434342 192285771
L200791485 192285771
L201005771 192357200
L201148628 192500057
L201220057 192642914
L201291485 192928628
L201291485 193142914
L201220057 193428628
L201148628 193571485
L201005771 193714342
L200791485 193785771
L200434342 193785771
" />
<path d="M202577200 193785771
L202577200 193000057
L202505771 192857200
L202362914 192785771
L202077200 192785771
L201934342 192857200
" />
<path d="M202577200 193714342
L202434342 193785771
L202077200 193785771
L201934342 193714342
L201862914 193571485
L201862914 193428628
L201934342 193285771
L202077200 193214342
L202434342 193214342
L202577200 193142914
" />
<path d="M203077200 192785771
L203648628 192785771
" />
<path d="M203291485 192285771
L203291485 193571485
L203362914 193714342
L203505771 193785771
L203648628 193785771
" />
<path d="M204720057 193714342
L204577200 193785771
L204291485 193785771
L204148628 193714342
L204077200 193571485
L204077200 193000057
L204148628 192857200
L204291485 192785771
L204577200 192785771
L204720057 192857200
L204791485 193000057
L204791485 193142914
L204077200 193285771
" />
<path d="M205434342 193642914
L205505771 193714342
L205434342 193785771
L205362914 193714342
L205434342 193642914
L205434342 193785771
" />
<path d="M205434342 192857200
L205505771 192928628
L205434342 193000057
L205362914 192928628
L205434342 192857200
L205434342 193000057
" />
</g></g>
<g style="fill:#000000; fill-opacity:0.0; 
stroke:#000000; stroke-width:21200.000000; stroke-opacity:1; 
stroke-linecap:round; stroke-linejoin:round;">
</g>
<g style="fill:#000000; fill-opacity:0.0; 
stroke:#000000; stroke-width:150000.000000; stroke-opacity:1; 
stroke-linecap:round; stroke-linejoin:round;">
<path d="M177002200 194507200
L285002200 194507200
" />
</g>
<g style="fill:#000000; fill-opacity:0.0; 
stroke:#000000; stroke-width:21200.000000; stroke-opacity:1; 
stroke-linecap:round; stroke-linejoin:round;">
</g>
<g style="fill:#000000; fill-opacity:0.0; 
stroke:#000000; stroke-width:150000.000000; stroke-opacity:1; 
stroke-linecap:round; stroke-linejoin:round;">
<text x="178002200.000000" y="196657200.000000"
textLength="33364286.000000" font-size="2000000.000000" lengthAdjust="spacingAndGlyphs"
text-anchor="start" opacity="0">KiCad E.D.A.  pcbnew (6.0.6)</text>
<g class="stroked-text"><desc>KiCad E.D.A.  pcbnew (6.0.6)</desc>
<path d="M178434342 196585771
L178434342 195085771
" />
<path d="M179291485 196585771
L178648628 195728628
" />
<path d="M179291485 195085771
L178434342 195942914
" />
<path d="M179934342 196585771
L179934342 195585771
" />
<path d="M179934342 195085771
L179862914 195157200
L179934342 195228628
L180005771 195157200
L179934342 195085771
L179934342 195228628
" />
<path d="M181505771 196442914
L181434342 196514342
L181220057 196585771
L181077200 196585771
L180862914 196514342
L180720057 196371485
L180648628 196228628
L180577200 195942914
L180577200 195728628
L180648628 195442914
L180720057 195300057
L180862914 195157200
L181077200 195085771
L181220057 195085771
L181434342 195157200
L181505771 195228628
" />
<path d="M182791485 196585771
L182791485 195800057
L182720057 195657200
L182577200 195585771
L182291485 195585771
L182148628 195657200
" />
<path d="M182791485 196514342
L182648628 196585771
L182291485 196585771
L182148628 196514342
L182077200 196371485
L182077200 196228628
L182148628 196085771
L182291485 196014342
L182648628 196014342
L182791485 195942914
" />
<path d="M184148628 196585771
L184148628 195085771
" />
<path d="M184148628 196514342
L184005771 196585771
L183720057 196585771
L183577200 196514342
L183505771 196442914
L183434342 196300057
L183434342 195871485
L183505771 195728628
L183577200 195657200
L183720057 195585771
L184005771 195585771
L184148628 195657200
" />
<path d="M186005771 195800057
L186505771 195800057
" />
<path d="M186720057 196585771
L186005771 196585771
L186005771 195085771
L186720057 195085771
" />
<path d="M187362914 196442914
L187434342 196514342
L187362914 196585771
L187291485 196514342
L187362914 196442914
L187362914 196585771
" />
<path d="M188077200 196585771
L188077200 195085771
L188434342 195085771
L188648628 195157200
L188791485 195300057
L188862914 195442914
L188934342 195728628
L188934342 195942914
L188862914 196228628
L188791485 196371485
L188648628 196514342
L188434342 196585771
L188077200 196585771
" />
<path d="M189577200 196442914
L189648628 196514342
L189577200 196585771
L189505771 196514342
L189577200 196442914
L189577200 196585771
" />
<path d="M190220057 196157200
L190934342 196157200
" />
<path d="M190077200 196585771
L190577200 195085771
L191077200 196585771
" />
<path d="M191577200 196442914
L191648628 196514342
L191577200 196585771
L191505771 196514342
L191577200 196442914
L191577200 196585771
" />
<path d="M194577200 195585771
L194577200 197085771
" />
<path d="M194577200 195657200
L194720057 195585771
L195005771 195585771
L195148628 195657200
L195220057 195728628
L195291485 195871485
L195291485 196300057
L195220057 196442914
L195148628 196514342
L195005771 196585771
L194720057 196585771
L194577200 196514342
" />
<path d="M196577200 196514342
L196434342 196585771
L196148628 196585771
L196005771 196514342
L195934342 196442914
L195862914 196300057
L195862914 195871485
L195934342 195728628
L196005771 195657200
L196148628 195585771
L196434342 195585771
L196577200 195657200
" />
<path d="M197220057 196585771
L197220057 195085771
" />
<path d="M197220057 195657200
L197362914 195585771
L197648628 195585771
L197791485 195657200
L197862914 195728628
L197934342 195871485
L197934342 196300057
L197862914 196442914
L197791485 196514342
L197648628 196585771
L197362914 196585771
L197220057 196514342
" />
<path d="M198577200 195585771
L198577200 196585771
" />
<path d="M198577200 195728628
L198648628 195657200
L198791485 195585771
L199005771 195585771
L199148628 195657200
L199220057 195800057
L199220057 196585771
" />
<path d="M200505771 196514342
L200362914 196585771
L200077200 196585771
L199934342 196514342
L199862914 196371485
L199862914 195800057
L199934342 195657200
L200077200 195585771
L200362914 195585771
L200505771 195657200
L200577200 195800057
L200577200 195942914
L199862914 196085771
" />
<path d="M201077200 195585771
L201362914 196585771
L201648628 195871485
L201934342 196585771
L202220057 195585771
" />
<path d="M204362914 197157200
L204291485 197085771
L204148628 196871485
L204077200 196728628
L204005771 196514342
L203934342 196157200
L203934342 195871485
L204005771 195514342
L204077200 195300057
L204148628 195157200
L204291485 194942914
L204362914 194871485
" />
<path d="M205577200 195085771
L205291485 195085771
L205148628 195157200
L205077200 195228628
L204934342 195442914
L204862914 195728628
L204862914 196300057
L204934342 196442914
L205005771 196514342
L205148628 196585771
L205434342 196585771
L205577200 196514342
L205648628 196442914
L205720057 196300057
L205720057 195942914
L205648628 195800057
L205577200 195728628
L205434342 195657200
L205148628 195657200
L205005771 195728628
L204934342 195800057
L204862914 195942914
" />
<path d="M206362914 196442914
L206434342 196514342
L206362914 196585771
L206291485 196514342
L206362914 196442914
L206362914 196585771
" />
<path d="M207362914 195085771
L207505771 195085771
L207648628 195157200
L207720057 195228628
L207791485 195371485
L207862914 195657200
L207862914 196014342
L207791485 196300057
L207720057 196442914
L207648628 196514342
L207505771 196585771
L207362914 196585771
L207220057 196514342
L207148628 196442914
L207077200 196300057
L207005771 196014342
L207005771 195657200
L207077200 195371485
L207148628 195228628
L207220057 195157200
L207362914 195085771
" />
<path d="M208505771 196442914
L208577200 196514342
L208505771 196585771
L208434342 196514342
L208505771 196442914
L208505771 196585771
" />
<path d="M209862914 195085771
L209577200 195085771
L209434342 195157200
L209362914 195228628
L209220057 195442914
L209148628 195728628
L209148628 196300057
L209220057 196442914
L209291485 196514342
L209434342 196585771
L209720057 196585771
L209862914 196514342
L209934342 196442914
L210005771 196300057
L210005771 195942914
L209934342 195800057
L209862914 195728628
L209720057 195657200
L209434342 195657200
L209291485 195728628
L209220057 195800057
L209148628 195942914
" />
<path d="M210505771 197157200
L210577200 197085771
L210720057 196871485
L210791485 196728628
L210862914 196514342
L210934342 196157200
L210934342 195871485
L210862914 195514342
L210791485 195300057
L210720057 195157200
L210577200 194942914
L210505771 194871485
" />
</g></g>
<g style="fill:#000000; fill-opacity:0.0; 
stroke:#000000; stroke-width:21200.000000; stroke-opacity:1; 
stroke-linecap:round; stroke-linejoin:round;">
</g>
<g style="fill:#000000; fill-opacity:0.0; 
stroke:#000000; stroke-width:150000.000000; stroke-opacity:1; 
stroke-linecap:round; stroke-linejoin:round;">
<path d="M177002200 191507200
L285002200 191507200
" />
</g>
<g style="fill:#000000; fill-opacity:0.0; 
stroke:#000000; stroke-width:21200.000000; stroke-opacity:1; 
stroke-linecap:round; stroke-linejoin:round;">
</g>
<g style="fill:#000000; fill-opacity:0.0; 
stroke:#000000; stroke-width:300000.000000; stroke-opacity:1; 
stroke-linecap:round; stroke-linejoin:round;">
<text x="263002200.000000" y="193857200.000000"
textLength="5935714.000000" font-size="2000000.000000" lengthAdjust="spacingAndGlyphs"
text-anchor="start" opacity="0">Rev: </text>
<g class="stroked-text"><desc>Rev: </desc>
<path d="M264411485 193785771
L263911485 193071485
" />
<path d="M263554342 193785771
L263554342 192285771
L264125771 192285771
L264268628 192357200
L264340057 192428628
L264411485 192571485
L264411485 192785771
L264340057 192928628
L264268628 193000057
L264125771 193071485
L263554342 193071485
" />
<path d="M265625771 193714342
L265482914 193785771
L265197200 193785771
L265054342 193714342
L264982914 193571485
L264982914 193000057
L265054342 192857200
L265197200 192785771
L265482914 192785771
L265625771 192857200
L265697200 193000057
L265697200 193142914
L264982914 193285771
" />
<path d="M266197200 192785771
L266554342 193785771
L266911485 192785771
" />
<path d="M267482914 193642914
L267554342 193714342
L267482914 193785771
L267411485 193714342
L267482914 193642914
L267482914 193785771
" />
<path d="M267482914 192857200
L267554342 192928628
L267482914 193000057
L267411485 192928628
L267482914 192857200
L267482914 193000057
" />
</g></g>
<g style="fill:#000000; fill-opacity:0.0; 
stroke:#000000; stroke-width:21200.000000; stroke-opacity:1; 
stroke-linecap:round; stroke-linejoin:round;">
</g>
<g style="fill:#000000; fill-opacity:0.0; 
stroke:#000000; stroke-width:150000.000000; stroke-opacity:1; 
stroke-linecap:round; stroke-linejoin:round;">
<text x="178002200.000000" y="193857200.000000"
textLength="9604286.000000" font-size="2000000.000000" lengthAdjust="spacingAndGlyphs"
text-anchor="start" opacity="0">Size: A4</text>
<g class="stroked-text"><desc>Size: A4</desc>
<path d="M178362914 193714342
L178577200 193785771
L178934342 193785771
L179077200 193714342
L179148628 193642914
L179220057 193500057
L179220057 193357200
L179148628 193214342
L179077200 193142914
L178934342 193071485
L178648628 193000057
L178505771 192928628
L178434342 192857200
L178362914 192714342
L178362914 192571485
L178434342 192428628
L178505771 192357200
L178648628 192285771
L179005771 192285771
L179220057 192357200
" />
<path d="M179862914 193785771
L179862914 192785771
" />
<path d="M179862914 192285771
L179791485 192357200
L179862914 192428628
L179934342 192357200
L179862914 192285771
L179862914 192428628
" />
<path d="M180434342 192785771
L181220057 192785771
L180434342 193785771
L181220057 193785771
" />
<path d="M182362914 193714342
L182220057 193785771
L181934342 193785771
L181791485 193714342
L181720057 193571485
L181720057 193000057
L181791485 192857200
L181934342 192785771
L182220057 192785771
L182362914 192857200
L182434342 193000057
L182434342 193142914
L181720057 193285771
" />
<path d="M183077200 193642914
L183148628 193714342
L183077200 193785771
L183005771 193714342
L183077200 193642914
L183077200 193785771
" />
<path d="M183077200 192857200
L183148628 192928628
L183077200 193000057
L183005771 192928628
L183077200 192857200
L183077200 193000057
" />
<path d="M184862914 193357200
L185577200 193357200
" />
<path d="M184720057 193785771
L185220057 192285771
L185720057 193785771
" />
<path d="M186862914 192785771
L186862914 193785771
" />
<path d="M186505771 192214342
L186148628 193285771
L187077200 193285771
" />
</g></g>
<g style="fill:#000000; fill-opacity:0.0; 
stroke:#000000; stroke-width:21200.000000; stroke-opacity:1; 
stroke-linecap:round; stroke-linejoin:round;">
</g>
<g style="fill:#000000; fill-opacity:0.0; 
stroke:#000000; stroke-width:150000.000000; stroke-opacity:1; 
stroke-linecap:round; stroke-linejoin:round;">
<text x="263002200.000000" y="196657200.000000"
textLength="8507143.000000" font-size="2000000.000000" lengthAdjust="spacingAndGlyphs"
text-anchor="start" opacity="0">Id: 1/1</text>
<g class="stroked-text"><desc>Id: 1/1</desc>
<path d="M263434342 196585771
L263434342 195085771
" />
<path d="M264791485 196585771
L264791485 195085771
" />
<path d="M264791485 196514342
L264648628 196585771
L264362914 196585771
L264220057 196514342
L264148628 196442914
L264077200 196300057
L264077200 195871485
L264148628 195728628
L264220057 195657200
L264362914 195585771
L264648628 195585771
L264791485 195657200
" />
<path d="M265505771 196442914
L265577200 196514342
L265505771 196585771
L265434342 196514342
L265505771 196442914
L265505771 196585771
" />
<path d="M265505771 195657200
L265577200 195728628
L265505771 195800057
L265434342 195728628
L265505771 195657200
L265505771 195800057
" />
<path d="M268148628 196585771
L267291485 196585771
" />
<path d="M267720057 196585771
L267720057 195085771
L267577200 195300057
L267434342 195442914
L267291485 195514342
" />
<path d="M269862914 195014342
L268577200 196942914
" />
<path d="M271148628 196585771
L270291485 196585771
" />
<path d="M270720057 196585771
L270720057 195085771
L270577200 195300057
L270434342 195442914
L270291485 195514342
" />
</g></g>
<g style="fill:#000000; fill-opacity:0.0; 
stroke:#000000; stroke-width:21200.000000; stroke-opacity:1; 
stroke-linecap:round; stroke-linejoin:round;">
</g>
<g style="fill:#000000; fill-opacity:0.0; 
stroke:#000000; stroke-width:150000.000000; stroke-opacity:1; 
stroke-linecap:round; stroke-linejoin:round;">
<path d="M177002200 187507200
L285002200 187507200
" />
</g>
<g style="fill:#000000; fill-opacity:0.0; 
stroke:#000000; stroke-width:21200.000000; stroke-opacity:1; 
stroke-linecap:round; stroke-linejoin:round;">
</g>
<g style="fill:#000000; fill-opacity:0.0; 
stroke:#000000; stroke-width:400000.000000; stroke-opacity:1; 
stroke-linecap:round; stroke-linejoin:round;">
<text x="178002200.000000" y="190307200.000000"
textLength="9409643.000000" font-size="2666666.000000" lengthAdjust="spacingAndGlyphs"
text-anchor="start" opacity="0">Title: </text>
<g class="stroked-text"><desc>Title: </desc>
<path d="M178714580 188211961
L179857438 188211961
" />
<path d="M179036009 190211961
L179286009 188211961
" />
<path d="M180274104 190211961
L180440771 188878628
" />
<path d="M180524104 188211961
L180416961 188307200
L180500295 188402438
L180607438 188307200
L180524104 188211961
L180500295 188402438
" />
<path d="M181107438 188878628
L181869342 188878628
" />
<path d="M181476485 188211961
L181262200 189926247
L181333628 190116723
L181512200 190211961
L181702676 190211961
" />
<path d="M182655057 190211961
L182476485 190116723
L182405057 189926247
L182619342 188211961
" />
<path d="M184190771 190116723
L183988390 190211961
L183607438 190211961
L183428866 190116723
L183357438 189926247
L183452676 189164342
L183571723 188973866
L183774104 188878628
L184155057 188878628
L184333628 188973866
L184405057 189164342
L184381247 189354819
L183405057 189545295
" />
<path d="M185155057 190021485
L185238390 190116723
L185131247 190211961
L185047914 190116723
L185155057 190021485
L185131247 190211961
" />
<path d="M185286009 188973866
L185369342 189069104
L185262200 189164342
L185178866 189069104
L185286009 188973866
L185262200 189164342
" />
</g></g>
<g style="fill:#000000; fill-opacity:0.0; 
stroke:#000000; stroke-width:21200.000000; stroke-opacity:1; 
stroke-linecap:round; stroke-linejoin:round;">
</g>
<g style="fill:#000000; fill-opacity:0.0; 
stroke:#000000; stroke-width:150000.000000; stroke-opacity:1; 
stroke-linecap:round; stroke-linejoin:round;">
<text x="178002200.000000" y="186457200.000000"
textLength="30805714.000000" font-size="2000000.000000" lengthAdjust="spacingAndGlyphs"
text-anchor="start" opacity="0">File: boardKicad.kicad_pcb</text>
<g class="stroked-text"><desc>File: boardKicad.kicad_pcb</desc>
<path d="M178934342 185600057
L178434342 185600057
" />
<path d="M178434342 186385771
L178434342 184885771
L179148628 184885771
" />
<path d="M179720057 186385771
L179720057 185385771
" />
<path d="M179720057 184885771
L179648628 184957200
L179720057 185028628
L179791485 184957200
L179720057 184885771
L179720057 185028628
" />
<path d="M180648628 186385771
L180505771 186314342
L180434342 186171485
L180434342 184885771
" />
<path d="M181791485 186314342
L181648628 186385771
L181362914 186385771
L181220057 186314342
L181148628 186171485
L181148628 185600057
L181220057 185457200
L181362914 185385771
L181648628 185385771
L181791485 185457200
L181862914 185600057
L181862914 185742914
L181148628 185885771
" />
<path d="M182505771 186242914
L182577200 186314342
L182505771 186385771
L182434342 186314342
L182505771 186242914
L182505771 186385771
" />
<path d="M182505771 185457200
L182577200 185528628
L182505771 185600057
L182434342 185528628
L182505771 185457200
L182505771 185600057
" />
<path d="M184362914 186385771
L184362914 184885771
" />
<path d="M184362914 185457200
L184505771 185385771
L184791485 185385771
L184934342 185457200
L185005771 185528628
L185077200 185671485
L185077200 186100057
L185005771 186242914
L184934342 186314342
L184791485 186385771
L184505771 186385771
L184362914 186314342
" />
<path d="M185934342 186385771
L185791485 186314342
L185720057 186242914
L185648628 186100057
L185648628 185671485
L185720057 185528628
L185791485 185457200
L185934342 185385771
L186148628 185385771
L186291485 185457200
L186362914 185528628
L186434342 185671485
L186434342 186100057
L186362914 186242914
L186291485 186314342
L186148628 186385771
L185934342 186385771
" />
<path d="M187720057 186385771
L187720057 185600057
L187648628 185457200
L187505771 185385771
L187220057 185385771
L187077200 185457200
" />
<path d="M187720057 186314342
L187577200 186385771
L187220057 186385771
L187077200 186314342
L187005771 186171485
L187005771 186028628
L187077200 185885771
L187220057 185814342
L187577200 185814342
L187720057 185742914
" />
<path d="M188434342 186385771
L188434342 185385771
" />
<path d="M188434342 185671485
L188505771 185528628
L188577200 185457200
L188720057 185385771
L188862914 185385771
" />
<path d="M190005771 186385771
L190005771 184885771
" />
<path d="M190005771 186314342
L189862914 186385771
L189577200 186385771
L189434342 186314342
L189362914 186242914
L189291485 186100057
L189291485 185671485
L189362914 185528628
L189434342 185457200
L189577200 185385771
L189862914 185385771
L190005771 185457200
" />
<path d="M190720057 186385771
L190720057 184885771
" />
<path d="M191577200 186385771
L190934342 185528628
" />
<path d="M191577200 184885771
L190720057 185742914
" />
<path d="M192220057 186385771
L192220057 185385771
" />
<path d="M192220057 184885771
L192148628 184957200
L192220057 185028628
L192291485 184957200
L192220057 184885771
L192220057 185028628
" />
<path d="M193577200 186314342
L193434342 186385771
L193148628 186385771
L193005771 186314342
L192934342 186242914
L192862914 186100057
L192862914 185671485
L192934342 185528628
L193005771 185457200
L193148628 185385771
L193434342 185385771
L193577200 185457200
" />
<path d="M194862914 186385771
L194862914 185600057
L194791485 185457200
L194648628 185385771
L194362914 185385771
L194220057 185457200
" />
<path d="M194862914 186314342
L194720057 186385771
L194362914 186385771
L194220057 186314342
L194148628 186171485
L194148628 186028628
L194220057 185885771
L194362914 185814342
L194720057 185814342
L194862914 185742914
" />
<path d="M196220057 186385771
L196220057 184885771
" />
<path d="M196220057 186314342
L196077200 186385771
L195791485 186385771
L195648628 186314342
L195577200 186242914
L195505771 186100057
L195505771 185671485
L195577200 185528628
L195648628 185457200
L195791485 185385771
L196077200 185385771
L196220057 185457200
" />
<path d="M196934342 186242914
L197005771 186314342
L196934342 186385771
L196862914 186314342
L196934342 186242914
L196934342 186385771
" />
<path d="M197648628 186385771
L197648628 184885771
" />
<path d="M197791485 185814342
L198220057 186385771
" />
<path d="M198220057 185385771
L197648628 185957200
" />
<path d="M198862914 186385771
L198862914 185385771
" />
<path d="M198862914 184885771
L198791485 184957200
L198862914 185028628
L198934342 184957200
L198862914 184885771
L198862914 185028628
" />
<path d="M200220057 186314342
L200077200 186385771
L199791485 186385771
L199648628 186314342
L199577200 186242914
L199505771 186100057
L199505771 185671485
L199577200 185528628
L199648628 185457200
L199791485 185385771
L200077200 185385771
L200220057 185457200
" />
<path d="M201505771 186385771
L201505771 185600057
L201434342 185457200
L201291485 185385771
L201005771 185385771
L200862914 185457200
" />
<path d="M201505771 186314342
L201362914 186385771
L201005771 186385771
L200862914 186314342
L200791485 186171485
L200791485 186028628
L200862914 185885771
L201005771 185814342
L201362914 185814342
L201505771 185742914
" />
<path d="M202862914 186385771
L202862914 184885771
" />
<path d="M202862914 186314342
L202720057 186385771
L202434342 186385771
L202291485 186314342
L202220057 186242914
L202148628 186100057
L202148628 185671485
L202220057 185528628
L202291485 185457200
L202434342 185385771
L202720057 185385771
L202862914 185457200
" />
<path d="M203220057 186528628
L204362914 186528628
" />
<path d="M204720057 185385771
L204720057 186885771
" />
<path d="M204720057 185457200
L204862914 185385771
L205148628 185385771
L205291485 185457200
L205362914 185528628
L205434342 185671485
L205434342 186100057
L205362914 186242914
L205291485 186314342
L205148628 186385771
L204862914 186385771
L204720057 186314342
" />
<path d="M206720057 186314342
L206577200 186385771
L206291485 186385771
L206148628 186314342
L206077200 186242914
L206005771 186100057
L206005771 185671485
L206077200 185528628
L206148628 185457200
L206291485 185385771
L206577200 185385771
L206720057 185457200
" />
<path d="M207362914 186385771
L207362914 184885771
" />
<path d="M207362914 185457200
L207505771 185385771
L207791485 185385771
L207934342 185457200
L208005771 185528628
L208077200 185671485
L208077200 186100057
L208005771 186242914
L207934342 186314342
L207791485 186385771
L207505771 186385771
L207362914 186314342
" />
</g></g>
<g style="fill:#000000; fill-opacity:0.0; 
stroke:#000000; stroke-width:21200.000000; stroke-opacity:1; 
stroke-linecap:round; stroke-linejoin:round;">
</g>
<g style="fill:#000000; fill-opacity:0.0; 
stroke:#000000; stroke-width:150000.000000; stroke-opacity:1; 
stroke-linecap:round; stroke-linejoin:round;">
<path d="M177002200 181507200
L285002200 181507200
" />
</g>
<g style="fill:#000000; fill-opacity:0.0; 
stroke:#000000; stroke-width:21200.000000; stroke-opacity:1; 
stroke-linecap:round; stroke-linejoin:round;">
</g>
<g style="fill:#000000; fill-opacity:0.0; 
stroke:#000000; stroke-width:150000.000000; stroke-opacity:1; 
stroke-linecap:round; stroke-linejoin:round;">
<text x="178002200.000000" y="183757200.000000"
textLength="8221429.000000" font-size="2000000.000000" lengthAdjust="spacingAndGlyphs"
text-anchor="start" opacity="0">Sheet: </text>
<g class="stroked-text"><desc>Sheet: </desc>
<path d="M178362914 183614342
L178577200 183685771
L178934342 183685771
L179077200 183614342
L179148628 183542914
L179220057 183400057
L179220057 183257200
L179148628 183114342
L179077200 183042914
L178934342 182971485
L178648628 182900057
L178505771 182828628
L178434342 182757200
L178362914 182614342
L178362914 182471485
L178434342 182328628
L178505771 182257200
L178648628 182185771
L179005771 182185771
L179220057 182257200
" />
<path d="M179862914 183685771
L179862914 182185771
" />
<path d="M180505771 183685771
L180505771 182900057
L180434342 182757200
L180291485 182685771
L180077200 182685771
L179934342 182757200
L179862914 182828628
" />
<path d="M181791485 183614342
L181648628 183685771
L181362914 183685771
L181220057 183614342
L181148628 183471485
L181148628 182900057
L181220057 182757200
L181362914 182685771
L181648628 182685771
L181791485 182757200
L181862914 182900057
L181862914 183042914
L181148628 183185771
" />
<path d="M183077200 183614342
L182934342 183685771
L182648628 183685771
L182505771 183614342
L182434342 183471485
L182434342 182900057
L182505771 182757200
L182648628 182685771
L182934342 182685771
L183077200 182757200
L183148628 182900057
L183148628 183042914
L182434342 183185771
" />
<path d="M183577200 182685771
L184148628 182685771
" />
<path d="M183791485 182185771
L183791485 183471485
L183862914 183614342
L184005771 183685771
L184148628 183685771
" />
<path d="M184648628 183542914
L184720057 183614342
L184648628 183685771
L184577200 183614342
L184648628 183542914
L184648628 183685771
" />
<path d="M184648628 182757200
L184720057 182828628
L184648628 182900057
L184577200 182828628
L184648628 182757200
L184648628 182900057
" />
</g></g>
<g style="fill:#000000; fill-opacity:0.0; 
stroke:#000000; stroke-width:21200.000000; stroke-opacity:1; 
stroke-linecap:round; stroke-linejoin:round;">
</g>
<g style="fill:#000000; fill-opacity:0.0; 
stroke:#000000; stroke-width:300000.000000; stroke-opacity:1; 
stroke-linecap:round; stroke-linejoin:round;">
<text x="178002200.000000" y="180757200.000000"
textLength="150000.000000" font-size="2000000.000000" lengthAdjust="spacingAndGlyphs"
text-anchor="start" opacity="0"></text>
<g class="stroked-text"><desc></desc>
</g></g>
<g style="fill:#000000; fill-opacity:0.0; 
stroke:#000000; stroke-width:21200.000000; stroke-opacity:1; 
stroke-linecap:round; stroke-linejoin:round;">
</g>
<g style="fill:#000000; fill-opacity:0.0; 
stroke:#000000; stroke-width:150000.000000; stroke-opacity:1; 
stroke-linecap:round; stroke-linejoin:round;">
<text x="178002200.000000" y="177757200.000000"
textLength="300000.000000" font-size="2000000.000000" lengthAdjust="spacingAndGlyphs"
text-anchor="start" opacity="0"></text>
<g class="stroked-text"><desc></desc>
</g></g>
<g style="fill:#000000; fill-opacity:0.0; 
stroke:#000000; stroke-width:21200.000000; stroke-opacity:1; 
stroke-linecap:round; stroke-linejoin:round;">
</g>
<g style="fill:#000000; fill-opacity:0.0; 
stroke:#000000; stroke-width:150000.000000; stroke-opacity:1; 
stroke-linecap:round; stroke-linejoin:round;">
<text x="178002200.000000" y="174757200.000000"
textLength="150000.000000" font-size="2000000.000000" lengthAdjust="spacingAndGlyphs"
text-anchor="start" opacity="0"></text>
<g class="stroked-text"><desc></desc>
</g></g>
<g style="fill:#000000; fill-opacity:0.0; 
stroke:#000000; stroke-width:21200.000000; stroke-opacity:1; 
stroke-linecap:round; stroke-linejoin:round;">
</g>
<g style="fill:#000000; fill-opacity:0.0; 
stroke:#000000; stroke-width:150000.000000; stroke-opacity:1; 
stroke-linecap:round; stroke-linejoin:round;">
<text x="178002200.000000" y="171757200.000000"
textLength="150000.000000" font-size="2000000.000000" lengthAdjust="spacingAndGlyphs"
text-anchor="start" opacity="0"></text>
<g class="stroked-text"><desc></desc>
</g></g>
<g style="fill:#000000; fill-opacity:0.0; 
stroke:#000000; stroke-width:21200.000000; stroke-opacity:1; 
stroke-linecap:round; stroke-linejoin:round;">
</g>
<g style="fill:#000000; fill-opacity:0.0; 
stroke:#000000; stroke-width:150000.000000; stroke-opacity:1; 
stroke-linecap:round; stroke-linejoin:round;">
<text x="178002200.000000" y="168757200.000000"
textLength="150000.000000" font-size="2000000.000000" lengthAdjust="spacingAndGlyphs"
text-anchor="start" opacity="0"></text>
<g class="stroked-text"><desc></desc>
</g></g>
<g style="fill:#000000; fill-opacity:0.0; 
stroke:#000000; stroke-width:21200.000000; stroke-opacity:1; 
stroke-linecap:round; stroke-linejoin:round;">
</g>
<g style="fill:#000000; fill-opacity:0.0; 
stroke:#000000; stroke-width:150000.000000; stroke-opacity:1; 
stroke-linecap:round; stroke-linejoin:round;">
<path d="M197002200 191507200
L197002200 194507200
" />
</g>
<g style="fill:#000000; fill-opacity:0.0; 
stroke:#000000; stroke-width:21200.000000; stroke-opacity:1; 
stroke-linecap:round; stroke-linejoin:round;">
</g>
<g style="fill:#000000; fill-opacity:0.0; 
stroke:#000000; stroke-width:150000.000000; stroke-opacity:1; 
stroke-linecap:round; stroke-linejoin:round;">
<path d="M261002200 191507200
L261002200 198007200
" />
</g>
<g style="fill:#5994DC; fill-opacity:0.0; 
stroke:#5994DC; stroke-width:150000.000000; stroke-opacity:1; 
stroke-linecap:round; stroke-linejoin:round;">
</g>
<g style="fill:#5994DC; fill-opacity:0.0; 
stroke:#5994DC; stroke-width:280000.000000; stroke-opacity:1; 
stroke-linecap:round; stroke-linejoin:round;">
<text x="148564600.000000" y="57393600.000000"
textLength="21923333.000000" font-size="4293333.000000" lengthAdjust="spacingAndGlyphs"
text-anchor="middle" opacity="0">50.7 mm</text>
<g class="stroked-text"><desc>50.7 mm</desc>
<path d="M139977933 54020266
L138444600 54020266
L138291266 55553600
L138444600 55400266
L138751266 55246933
L139517933 55246933
L139824600 55400266
L139977933 55553600
L140131266 55860266
L140131266 56626933
L139977933 56933600
L139824600 57086933
L139517933 57240266
L138751266 57240266
L138444600 57086933
L138291266 56933600
" />
<path d="M142124600 54020266
L142431266 54020266
L142737933 54173600
L142891266 54326933
L143044600 54633600
L143197933 55246933
L143197933 56013600
L143044600 56626933
L142891266 56933600
L142737933 57086933
L142431266 57240266
L142124600 57240266
L141817933 57086933
L141664600 56933600
L141511266 56626933
L141357933 56013600
L141357933 55246933
L141511266 54633600
L141664600 54326933
L141817933 54173600
L142124600 54020266
" />
<path d="M144577933 56933600
L144731266 57086933
L144577933 57240266
L144424600 57086933
L144577933 56933600
L144577933 57240266
" />
<path d="M145804600 54020266
L147951266 54020266
L146571266 57240266
" />
<path d="M151631266 57240266
L151631266 55093600
" />
<path d="M151631266 55400266
L151784600 55246933
L152091266 55093600
L152551266 55093600
L152857933 55246933
L153011266 55553600
L153011266 57240266
" />
<path d="M153011266 55553600
L153164600 55246933
L153471266 55093600
L153931266 55093600
L154237933 55246933
L154391266 55553600
L154391266 57240266
" />
<path d="M155924600 57240266
L155924600 55093600
" />
<path d="M155924600 55400266
L156077933 55246933
L156384600 55093600
L156844600 55093600
L157151266 55246933
L157304600 55553600
L157304600 57240266
" />
<path d="M157304600 55553600
L157457933 55246933
L157764600 55093600
L158224600 55093600
L158531266 55246933
L158684600 55553600
L158684600 57240266
" />
</g></g>
<g style="fill:#5994DC; fill-opacity:0.0; 
stroke:#5994DC; stroke-width:100000.000000; stroke-opacity:1; 
stroke-linecap:round; stroke-linejoin:round;">
<path d="M123228100 75539600
L123228100 58697180
" />
<path d="M173901100 75539600
L173901100 58697180
" />
<path d="M123228100 59283600
L173901100 59283600
" />
<path d="M123228100 59283600
L173901100 59283600
" />
<path d="M123228100 59283600
L124354604 59870021
" />
<path d="M123228100 59283600
L124354604 58697179
" />
<path d="M173901100 59283600
L172774596 58697179
" />
<path d="M173901100 59283600
L172774596 59870021
" />
</g>
<g style="fill:#5994DC; fill-opacity:0.0; 
stroke:#5994DC; stroke-width:280000.000000; stroke-opacity:1; 
stroke-linecap:round; stroke-linejoin:round;">
<g transform="rotate(-270.122427 160515689.000000 107342488.000000)">
<text x="160515689.000000" y="108952488.000000"
textLength="22137333.000000" font-size="4293333.000000" lengthAdjust="spacingAndGlyphs"
text-anchor="middle" opacity="0">59.4 mm</text>
</g>
<g class="stroked-text"><desc>59.4 mm</desc>
<path d="M162260670 98752073
L162257394 97218743
L160723736 97068686
L160877397 97221692
L161031385 97528030
L161033024 98294695
L160880346 98601688
L160727340 98755349
L160421002 98909337
L159654337 98910975
L159347344 98758298
L159193683 98605292
L159039695 98298954
L159038057 97532289
L159190734 97225295
L159343740 97071635
" />
<path d="M159044282 100445616
L159045592 101058948
L159199580 101365286
L159353241 101518291
L159813895 101823974
L160427555 101975997
L161654219 101973376
L161960557 101819388
L162113562 101665727
L162266240 101358733
L162264930 100745401
L162110941 100439063
L161957281 100286058
L161650287 100133380
L160883622 100135018
L160577284 100289006
L160424278 100442667
L160271601 100749661
L160272911 101362993
L160426900 101669331
L160580560 101822336
L160887554 101975014
" />
<path d="M159357173 103358287
L159204167 103511948
L159050507 103358942
L159203512 103205282
L159357173 103358287
L159050507 103358942
" />
<path d="M161203393 106267682
L159056732 106272269
" />
<path d="M162428419 105498396
L160126786 104736646
L160131046 106729975
" />
<path d="M159065578 110412260
L161212240 110407673
" />
<path d="M160905574 110408328
L161059234 110561333
L161213223 110867672
L161214205 111327671
L161061528 111634664
L160755189 111788653
L159068527 111792257
" />
<path d="M160755189 111788653
L161062183 111941330
L161216171 112247669
L161217154 112707668
L161064476 113014661
L160758138 113168649
L159071475 113172253
" />
<path d="M159074752 114705583
L161221413 114700996
" />
<path d="M160914747 114701652
L161068408 114854657
L161222396 115160995
L161223379 115620994
L161070701 115927988
L160764363 116081976
L159077700 116085580
" />
<path d="M160764363 116081976
L161071357 116234654
L161225345 116540992
L161226328 117000991
L161073650 117307985
L160767312 117461973
L159080649 117465577
" />
</g></g>
<g style="fill:#5994DC; fill-opacity:0.0; 
stroke:#5994DC; stroke-width:100000.000000; stroke-opacity:1; 
stroke-linecap:round; stroke-linejoin:round;">
<path d="M125768100 77698600
L157538615 77630714
" />
<path d="M125895100 137134600
L157665615 137066714
" />
<path d="M156952197 77631967
L157079197 137067967
" />
<path d="M156952197 77631967
L157079197 137067967
" />
<path d="M156952197 77631967
L156368185 78759721
" />
<path d="M156952197 77631967
L157541023 78757215
" />
<path d="M157079197 137067967
L157663209 135940213
" />
<path d="M157079197 137067967
L156490371 135942719
" />
</g>
<g style="fill:#5994DC; fill-opacity:0.0; 
stroke:#5994DC; stroke-width:280000.000000; stroke-opacity:1; 
stroke-linecap:round; stroke-linejoin:round;">
<g transform="rotate(-270.104745 212291089.000000 110203801.000000)">
<text x="212291089.000000" y="111813801.000000"
textLength="22137333.000000" font-size="4293333.000000" lengthAdjust="spacingAndGlyphs"
text-anchor="middle" opacity="0">69.5 mm</text>
</g>
<g class="stroked-text"><desc>69.5 mm</desc>
<path d="M214038441 101460591
L214037320 100847259
L213883426 100540873
L213729812 100387821
L213269253 100081995
L212655640 99929784
L211428975 99932026
L211122590 100085920
L210969537 100239533
L210816764 100546480
L210817886 101159812
L210971779 101466198
L211125393 101619251
L211432339 101772023
L212199005 101770621
L212505390 101616728
L212658443 101463114
L212811216 101156168
L212810094 100542836
L212656201 100236450
L212502587 100083397
L212195641 99930624
" />
<path d="M210821810 103306475
L210822931 103919807
L210976825 104226193
L211130438 104379246
L211590998 104685071
L212204611 104837283
L213431276 104835040
L213737661 104681147
L213890714 104527533
L214043487 104220587
L214042365 103607255
L213888472 103300869
L213734858 103147816
L213427912 102995044
L212661246 102996445
L212354860 103150339
L212201808 103303952
L212049035 103610899
L212050157 104224231
L212204050 104530617
L212357664 104683670
L212664610 104836442
" />
<path d="M211133802 106219243
L210980749 106372856
L210827136 106219804
L210980189 106066190
L211133802 106219243
L210827136 106219804
" />
<path d="M214052737 109280578
L214049934 107747248
L212516323 107596718
L212669936 107749770
L212823830 108056156
L212825231 108822822
L212672459 109129768
L212519406 109283382
L212213020 109437275
L211446355 109438677
L211139409 109285904
L210985795 109132852
L210831901 108826466
L210830500 108059800
L210983272 107752854
L211136325 107599241
" />
<path d="M210840031 113273125
L212986694 113269201
" />
<path d="M212680028 113269761
L212833641 113422814
L212987535 113729200
L212988376 114189199
L212835603 114496146
L212529217 114650039
L210842553 114653123
" />
<path d="M212529217 114650039
L212836164 114802812
L212990057 115109198
L212990898 115569197
L212838126 115876143
L212531740 116030037
L210845076 116033120
" />
<path d="M210847879 117566451
L212994543 117562527
" />
<path d="M212687876 117563087
L212841490 117716140
L212995383 118022526
L212996224 118482525
L212843452 118789472
L212537066 118943365
L210850402 118946449
" />
<path d="M212537066 118943365
L212844013 119096138
L212997906 119402524
L212998747 119862523
L212845975 120169469
L212539589 120323363
L210852925 120326447
" />
</g></g>
<g style="fill:#5994DC; fill-opacity:0.0; 
stroke:#5994DC; stroke-width:100000.000000; stroke-opacity:1; 
stroke-linecap:round; stroke-linejoin:round;">
<path d="M173774100 75539600
L209314014 75474628
" />
<path d="M173901100 145008600
L209441014 144943628
" />
<path d="M208727595 75475700
L208854595 144944700
" />
<path d="M208727595 75475700
L208854595 144944700
" />
<path d="M208727595 75475700
L208143235 76603274
" />
<path d="M208727595 75475700
L209316074 76601130
" />
<path d="M208854595 144944700
L209438955 143817126
" />
<path d="M208854595 144944700
L208266116 143819270
" />
</g>
<g style="fill:#5994DC; fill-opacity:0.0; 
stroke:#5994DC; stroke-width:280000.000000; stroke-opacity:1; 
stroke-linecap:round; stroke-linejoin:round;">
<text x="148437600.000000" y="65394600.000000"
textLength="22137333.000000" font-size="4293333.000000" lengthAdjust="spacingAndGlyphs"
text-anchor="middle" opacity="0">45.1 mm</text>
<g class="stroked-text"><desc>45.1 mm</desc>
<path d="M139697600 63094600
L139697600 65241266
" />
<path d="M138930933 61867933
L138164266 64167933
L140157600 64167933
" />
<path d="M142917600 62021266
L141384266 62021266
L141230933 63554600
L141384266 63401266
L141690933 63247933
L142457600 63247933
L142764266 63401266
L142917600 63554600
L143070933 63861266
L143070933 64627933
L142917600 64934600
L142764266 65087933
L142457600 65241266
L141690933 65241266
L141384266 65087933
L141230933 64934600
" />
<path d="M144450933 64934600
L144604266 65087933
L144450933 65241266
L144297600 65087933
L144450933 64934600
L144450933 65241266
" />
<path d="M147670933 65241266
L145830933 65241266
" />
<path d="M146750933 65241266
L146750933 62021266
L146444266 62481266
L146137600 62787933
L145830933 62941266
" />
<path d="M151504266 65241266
L151504266 63094600
" />
<path d="M151504266 63401266
L151657600 63247933
L151964266 63094600
L152424266 63094600
L152730933 63247933
L152884266 63554600
L152884266 65241266
" />
<path d="M152884266 63554600
L153037600 63247933
L153344266 63094600
L153804266 63094600
L154110933 63247933
L154264266 63554600
L154264266 65241266
" />
<path d="M155797600 65241266
L155797600 63094600
" />
<path d="M155797600 63401266
L155950933 63247933
L156257600 63094600
L156717600 63094600
L157024266 63247933
L157177600 63554600
L157177600 65241266
" />
<path d="M157177600 63554600
L157330933 63247933
L157637600 63094600
L158097600 63094600
L158404266 63247933
L158557600 63554600
L158557600 65241266
" />
</g></g>
<g style="fill:#5994DC; fill-opacity:0.0; 
stroke:#5994DC; stroke-width:100000.000000; stroke-opacity:1; 
stroke-linecap:round; stroke-linejoin:round;">
<path d="M125895100 77698600
L125895100 66698180
" />
<path d="M170980100 77698600
L170980100 66698180
" />
<path d="M125895100 67284600
L170980100 67284600
" />
<path d="M125895100 67284600
L170980100 67284600
" />
<path d="M125895100 67284600
L127021604 67871021
" />
<path d="M125895100 67284600
L127021604 66698179
" />
<path d="M170980100 67284600
L169853596 66698179
" />
<path d="M170980100 67284600
L169853596 67871021
" />
</g>
<g style="fill:#5994DC; fill-opacity:0.0; 
stroke:#5994DC; stroke-width:280000.000000; stroke-opacity:1; 
stroke-linecap:round; stroke-linejoin:round;">
<g transform="rotate(-90.000000 112870100.000000 73634600.000000)">
<text x="112870100.000000" y="75244600.000000"
textLength="19070667.000000" font-size="4293333.000000" lengthAdjust="spacingAndGlyphs"
text-anchor="middle" opacity="0">8.4 mm</text>
</g>
<g class="stroked-text"><desc>8.4 mm</desc>
<path d="M112486766 81761266
L112333433 82067933
L112180100 82221266
L111873433 82374600
L111720100 82374600
L111413433 82221266
L111260100 82067933
L111106766 81761266
L111106766 81147933
L111260100 80841266
L111413433 80687933
L111720100 80534600
L111873433 80534600
L112180100 80687933
L112333433 80841266
L112486766 81147933
L112486766 81761266
L112640100 82067933
L112793433 82221266
L113100100 82374600
L113713433 82374600
L114020100 82221266
L114173433 82067933
L114326766 81761266
L114326766 81147933
L114173433 80841266
L114020100 80687933
L113713433 80534600
L113100100 80534600
L112793433 80687933
L112640100 80841266
L112486766 81147933
" />
<path d="M114020100 79154600
L114173433 79001266
L114326766 79154600
L114173433 79307933
L114020100 79154600
L114326766 79154600
" />
<path d="M112180100 76241266
L114326766 76241266
" />
<path d="M110953433 77007933
L113253433 77774600
L113253433 75781266
" />
<path d="M114326766 72101266
L112180100 72101266
" />
<path d="M112486766 72101266
L112333433 71947933
L112180100 71641266
L112180100 71181266
L112333433 70874600
L112640100 70721266
L114326766 70721266
" />
<path d="M112640100 70721266
L112333433 70567933
L112180100 70261266
L112180100 69801266
L112333433 69494600
L112640100 69341266
L114326766 69341266
" />
<path d="M114326766 67807933
L112180100 67807933
" />
<path d="M112486766 67807933
L112333433 67654600
L112180100 67347933
L112180100 66887933
L112333433 66581266
L112640100 66427933
L114326766 66427933
" />
<path d="M112640100 66427933
L112333433 66274600
L112180100 65967933
L112180100 65507933
L112333433 65201266
L112640100 65047933
L114326766 65047933
" />
</g></g>
<g style="fill:#5994DC; fill-opacity:0.0; 
stroke:#5994DC; stroke-width:100000.000000; stroke-opacity:1; 
stroke-linecap:round; stroke-linejoin:round;">
<path d="M125895100 69443600
L115783680 69443600
" />
<path d="M125895100 77825600
L115783680 77825600
" />
<path d="M116370100 69443600
L116370100 77825600
" />
<path d="M116370100 69443600
L116370100 77825600
" />
<path d="M116370100 69443600
L115783679 70570104
" />
<path d="M116370100 69443600
L116956521 70570104
" />
<path d="M116370100 77825600
L116956521 76699096
" />
<path d="M116370100 77825600
L115783679 76699096
" />
</g>
<g style="fill:#5994DC; fill-opacity:0.0; 
stroke:#5994DC; stroke-width:280000.000000; stroke-opacity:1; 
stroke-linecap:round; stroke-linejoin:round;">
<text x="124561600.000000" y="154548600.000000"
textLength="19070667.000000" font-size="4293333.000000" lengthAdjust="spacingAndGlyphs"
text-anchor="middle" opacity="0">2.9 mm</text>
<g class="stroked-text"><desc>2.9 mm</desc>
<path d="M115821600 151481933
L115974933 151328600
L116281600 151175266
L117048266 151175266
L117354933 151328600
L117508266 151481933
L117661600 151788600
L117661600 152095266
L117508266 152555266
L115668266 154395266
L117661600 154395266
" />
<path d="M119041600 154088600
L119194933 154241933
L119041600 154395266
L118888266 154241933
L119041600 154088600
L119041600 154395266
" />
<path d="M120728266 154395266
L121341600 154395266
L121648266 154241933
L121801600 154088600
L122108266 153628600
L122261600 153015266
L122261600 151788600
L122108266 151481933
L121954933 151328600
L121648266 151175266
L121034933 151175266
L120728266 151328600
L120574933 151481933
L120421600 151788600
L120421600 152555266
L120574933 152861933
L120728266 153015266
L121034933 153168600
L121648266 153168600
L121954933 153015266
L122108266 152861933
L122261600 152555266
" />
<path d="M126094933 154395266
L126094933 152248600
" />
<path d="M126094933 152555266
L126248266 152401933
L126554933 152248600
L127014933 152248600
L127321600 152401933
L127474933 152708600
L127474933 154395266
" />
<path d="M127474933 152708600
L127628266 152401933
L127934933 152248600
L128394933 152248600
L128701600 152401933
L128854933 152708600
L128854933 154395266
" />
<path d="M130388266 154395266
L130388266 152248600
" />
<path d="M130388266 152555266
L130541600 152401933
L130848266 152248600
L131308266 152248600
L131614933 152401933
L131768266 152708600
L131768266 154395266
" />
<path d="M131768266 152708600
L131921600 152401933
L132228266 152248600
L132688266 152248600
L132994933 152401933
L133148266 152708600
L133148266 154395266
" />
</g></g>
<g style="fill:#5994DC; fill-opacity:0.0; 
stroke:#5994DC; stroke-width:100000.000000; stroke-opacity:1; 
stroke-linecap:round; stroke-linejoin:round;">
<path d="M123101100 136118600
L123101100 157025020
" />
<path d="M126022100 136118600
L126022100 157025020
" />
<path d="M123101100 156438600
L126022100 156438600
" />
<path d="M123101100 156438600
L126022100 156438600
" />
<path d="M123101100 156438600
L124227604 157025021
" />
<path d="M123101100 156438600
L124227604 155852179
" />
<path d="M126022100 156438600
L124895596 155852179
" />
<path d="M126022100 156438600
L124895596 157025021
" />
</g>
<g style="fill:#5994DC; fill-opacity:0.0; 
stroke:#5994DC; stroke-width:280000.000000; stroke-opacity:1; 
stroke-linecap:round; stroke-linejoin:round;">
<g transform="rotate(-90.000000 111600100.000000 143992600.000000)">
<text x="111600100.000000" y="145602600.000000"
textLength="22137333.000000" font-size="4293333.000000" lengthAdjust="spacingAndGlyphs"
text-anchor="middle" opacity="0">13.7 mm</text>
</g>
<g class="stroked-text"><desc>13.7 mm</desc>
<path d="M113056766 152425933
L113056766 154265933
" />
<path d="M113056766 153345933
L109836766 153345933
L110296766 153652600
L110603433 153959266
L110756766 154265933
" />
<path d="M109836766 151352600
L109836766 149359266
L111063433 150432600
L111063433 149972600
L111216766 149665933
L111370100 149512600
L111676766 149359266
L112443433 149359266
L112750100 149512600
L112903433 149665933
L113056766 149972600
L113056766 150892600
L112903433 151199266
L112750100 151352600
" />
<path d="M112750100 147979266
L112903433 147825933
L113056766 147979266
L112903433 148132600
L112750100 147979266
L113056766 147979266
" />
<path d="M109836766 146752600
L109836766 144605933
L113056766 145985933
" />
<path d="M113056766 140925933
L110910100 140925933
" />
<path d="M111216766 140925933
L111063433 140772600
L110910100 140465933
L110910100 140005933
L111063433 139699266
L111370100 139545933
L113056766 139545933
" />
<path d="M111370100 139545933
L111063433 139392600
L110910100 139085933
L110910100 138625933
L111063433 138319266
L111370100 138165933
L113056766 138165933
" />
<path d="M113056766 136632600
L110910100 136632600
" />
<path d="M111216766 136632600
L111063433 136479266
L110910100 136172600
L110910100 135712600
L111063433 135405933
L111370100 135252600
L113056766 135252600
" />
<path d="M111370100 135252600
L111063433 135099266
L110910100 134792600
L110910100 134332600
L111063433 134025933
L111370100 133872600
L113056766 133872600
" />
</g></g>
<g style="fill:#5994DC; fill-opacity:0.0; 
stroke:#5994DC; stroke-width:100000.000000; stroke-opacity:1; 
stroke-linecap:round; stroke-linejoin:round;">
<path d="M126657100 150850600
L114513680 150850600
" />
<path d="M126657100 137134600
L114513680 137134600
" />
<path d="M115100100 150850600
L115100100 137134600
" />
<path d="M115100100 150850600
L115100100 137134600
" />
<path d="M115100100 150850600
L115686521 149724096
" />
<path d="M115100100 150850600
L114513679 149724096
" />
<path d="M115100100 137134600
L114513679 138261104
" />
<path d="M115100100 137134600
L115686521 138261104
" />
<g >
</g>
<g >
</g>
<g >
</g>
<g >
</g>
<g >
</g>
<g >
</g>
<g >
</g>
<g >
</g>
<g >
</g>
<g >
</g>
<g >
</g>
<g >
</g>
<g >
</g>
<g >
</g>
<g >
</g>
<g >
</g>
<g >
</g>
<g >
</g>
<g >
</g>
<g >
</g>
<g >
</g>
<g >
</g>
<g >
</g>
<g >
</g>
<g >
</g>
<g >
</g>
<g >
</g>
<g >
</g>
<g >
</g>
<g >
</g>
<g >
</g>
<g >
</g>
<g >
</g>
<g >
</g>
<g >
</g>
<g >
</g>
<g >
</g>
<g >
</g>
<g >
</g>
<g >
</g>
<g >
</g>
<g >
</g>
<g >
</g>
<g >
</g>
<g >
</g>
<g >
</g>
<g >
</g>
<g >
</g>
<g >
</g>
<g >
</g>
<g >
</g>
<g >
</g>
<g >
</g>
<g >
</g>
<g >
</g>
<g >
</g>
<g >
</g>
<g >
</g>
<g >
</g>
<g >
</g>
<g >
</g>
<g >
</g>
<g >
</g>
<g >
</g>
<g >
</g>
<g >
</g>
<g >
</g>
<g >
</g>
<g >
</g>
</g>
<g style="fill:#000000; fill-opacity:0.0; 
stroke:#000000; stroke-width:100000.000000; stroke-opacity:1; 
stroke-linecap:round; stroke-linejoin:round;">
</g>
<g style="fill:#D0D2CD; fill-opacity:0.0; 
stroke:#D0D2CD; stroke-width:100000.000000; stroke-opacity:1; 
stroke-linecap:round; stroke-linejoin:round;">
</g>
<g style="fill:#D0D2CD; fill-opacity:0.0; 
stroke:#D0D2CD; stroke-width:50000.000000; stroke-opacity:1; 
stroke-linecap:round; stroke-linejoin:round;">
<path d="M163487100 125831600
L133515100 125831600
" />
<path d="M178981100 67411600
L176441100 67411600
" />
<path d="M133515100 131165600
L163487100 131165600
" />
<path d="M118021100 67411600
L120561100 67411600
" />
<path d="M181521100.000000 145135600.000000 A2540000.000000 2540000.000000 0.0 0 0 178981100.000000 142595600.000000" />
<path d="M178981100.000000 67411600.000000 A2540000.000000 2540000.000000 0.0 0 0 181521100.000000 64871600.000000" />
<path d="M181521100.000000 64871600.000000 A2540000.000000 2540000.000000 0.0 0 0 178981100.000000 62331600.000000" />
<path d="M176441100 142595600
L176441100 67411600
" />
<path d="M118021100 62331600
L178981100 62331600
" />
<path d="M118021100 147675600
L178981100 147675600
" />
<path d="M178981100 142595600
L176441100 142595600
" />
<path d="M120561100 67411600
L120561100 142595600
" />
<path d="M133515100 125831600
L133515100 131165600
" />
<path d="M115481100.000000 145135600.000000 A2540000.000000 2540000.000000 0.0 0 0 118021100.000000 147675600.000000" />
<path d="M120561100 142595600
L118021100 142595600
" />
<path d="M163487100 131165600
L163487100 125831600
" />
<path d="M178981100.000000 147675600.000000 A2540000.000000 2540000.000000 0.0 0 0 181521100.000000 145135600.000000" />
<path d="M115481100.000000 64871600.000000 A2540000.000000 2540000.000000 0.0 0 0 118021100.000000 67411600.000000" />
<path d="M118021100.000000 62331600.000000 A2540000.000000 2540000.000000 0.0 0 0 115481100.000000 64871600.000000" />
<path d="M118021100.000000 142595600.000000 A2540000.000000 2540000.000000 0.0 0 0 115481100.000000 145135600.000000" />
<g >
</g>
<g >
</g>
<g >
</g>
<g >
</g>
<g >
</g>
<g >
</g>
<g >
</g>
<g >
</g>
<g >
</g>
<g >
</g>
<g >
</g>
<g >
</g>
<g >
</g>
<g >
</g>
<g >
</g>
<g >
</g>
<g >
</g>
<g >
</g>
<g >
</g>
<g >
</g>
<g >
</g>
<g >
</g>
<g >
</g>
<g >
</g>
<g >
</g>
<g >
</g>
<g >
</g>
<g >
</g>
<g >
</g>
<g >
</g>
<g >
</g>
<g >
</g>
<g >
</g>
<g >
</g>
<g >
</g>
<g >
</g>
<g >
</g>
<g >
</g>
<g >
</g>
<g >
</g>
<g >
</g>
<g >
</g>
<g >
</g>
<g >
</g>
<g >
</g>
<g >
</g>
<g >
</g>
<g >
</g>
<g >
</g>
<g >
</g>
<g >
</g>
<g >
</g>
<g >
</g>
<g >
</g>
<g >
</g>
<g >
</g>
<g >
</g>
<g >
</g>
<g >
</g>
<g >
</g>
<g >
</g>
<g >
</g>
<g >
</g>
<g >
</g>
<g >
</g>
<g >
</g>
<g >
</g>
<g >
</g>
<g >
</g>
</g> 
</svg>
