G04 EAGLE Gerber RS-274X export*
G75*
%MOMM*%
%FSLAX34Y34*%
%LPD*%
%IN*%
%IPPOS*%
%AMOC8*
5,1,8,0,0,1.08239X$1,22.5*%
G01*
%ADD10C,0.254000*%


D10*
X0Y-25400D02*
X97Y-27614D01*
X386Y-29811D01*
X865Y-31974D01*
X1532Y-34087D01*
X2380Y-36135D01*
X3403Y-38100D01*
X4594Y-39969D01*
X5942Y-41727D01*
X7440Y-43361D01*
X9073Y-44858D01*
X10831Y-46206D01*
X12700Y-47397D01*
X14666Y-48420D01*
X16713Y-49268D01*
X18826Y-49935D01*
X20989Y-50414D01*
X23186Y-50703D01*
X25400Y-50800D01*
X27614Y-50703D01*
X29811Y-50414D01*
X31974Y-49935D01*
X34087Y-49268D01*
X36135Y-48420D01*
X38100Y-47397D01*
X39969Y-46206D01*
X41727Y-44858D01*
X43361Y-43361D01*
X44858Y-41727D01*
X46206Y-39969D01*
X47397Y-38100D01*
X48420Y-36135D01*
X49268Y-34087D01*
X49935Y-31974D01*
X50414Y-29811D01*
X50703Y-27614D01*
X50800Y-25400D01*
X50800Y0D01*
X304800Y0D01*
X304800Y-25400D01*
X304897Y-27614D01*
X305186Y-29811D01*
X305665Y-31974D01*
X306332Y-34087D01*
X307180Y-36135D01*
X308203Y-38100D01*
X309394Y-39969D01*
X310742Y-41727D01*
X312240Y-43361D01*
X313873Y-44858D01*
X315631Y-46206D01*
X317500Y-47397D01*
X319466Y-48420D01*
X321513Y-49268D01*
X323626Y-49935D01*
X325789Y-50414D01*
X327986Y-50703D01*
X330200Y-50800D01*
X332414Y-50703D01*
X334611Y-50414D01*
X336774Y-49935D01*
X338887Y-49268D01*
X340935Y-48420D01*
X342900Y-47397D01*
X344769Y-46206D01*
X346527Y-44858D01*
X348161Y-43361D01*
X349658Y-41727D01*
X351006Y-39969D01*
X352197Y-38100D01*
X353220Y-36135D01*
X354068Y-34087D01*
X354735Y-31974D01*
X355214Y-29811D01*
X355503Y-27614D01*
X355600Y-25400D01*
X355600Y393700D01*
X355503Y395914D01*
X355214Y398111D01*
X354735Y400274D01*
X354068Y402387D01*
X353220Y404435D01*
X352197Y406400D01*
X351006Y408269D01*
X349658Y410027D01*
X348161Y411661D01*
X346527Y413158D01*
X344769Y414506D01*
X342900Y415697D01*
X340935Y416720D01*
X338887Y417568D01*
X336774Y418235D01*
X334611Y418714D01*
X332414Y419003D01*
X330200Y419100D01*
X25400Y419100D01*
X23186Y419003D01*
X20989Y418714D01*
X18826Y418235D01*
X16713Y417568D01*
X14666Y416720D01*
X12700Y415697D01*
X10831Y414506D01*
X9073Y413158D01*
X7440Y411661D01*
X5942Y410027D01*
X4594Y408269D01*
X3403Y406400D01*
X2380Y404435D01*
X1532Y402387D01*
X865Y400274D01*
X386Y398111D01*
X97Y395914D01*
X0Y393700D01*
X0Y-25400D01*
M02*
