  0
SECTION
  2
HEADER
  9
$ACADVER
  1
AC1009
  9
$FILLMODE
 70
1
  9
$EXTMIN
 10
-16.4068
 20
-11.4503
 30
0.0000
  9
$EXTMAX
 10
69.1727
 20
35.8516
 30
0.0000
  0
ENDSEC
  0
SECTION
  2
TABLES
  0
TABLE
  2
LTYPE
 70
1
  0
LTYPE
  2
CONTINUOUS
 70
64
  3
Solid line
 72
65
 73
0
 40
0
  0
ENDTAB
  0
TABLE
  2
LAYER
 70
255
  0
LAYER
  2
1
 70
64
 62
12
  6
CONTINUOUS
  0
LAYER
  2
16
 70
64
 62
132
  6
CONTINUOUS
  0
LAYER
  2
17
 70
64
 62
110
  6
CONTINUOUS
  0
LAYER
  2
18
 70
64
 62
110
  6
CONTINUOUS
  0
LAYER
  2
19
 70
64
 62
53
  6
CONTINUOUS
  0
LAYER
  2
20
 70
64
 62
53
  6
CONTINUOUS
  0
LAYER
  2
21
 70
64
 62
41
  6
CONTINUOUS
  0
LAYER
  2
22
 70
64
 62
40
  6
CONTINUOUS
  0
LAYER
  2
23
 70
64
 62
53
  6
CONTINUOUS
  0
LAYER
  2
24
 70
64
 62
53
  6
CONTINUOUS
  0
LAYER
  2
45
 70
64
 62
253
  6
CONTINUOUS
  0
LAYER
  2
51
 70
64
 62
53
  6
CONTINUOUS
  0
ENDTAB
  0
ENDSEC
  0
SECTION
  2
BLOCKS
  0
BLOCK
  8
0
  2
RECT
 70
64
 10
0.0000
 20
0.0000
 30
0.0000
  3
RECT
  0
SOLID
  8
0
 10
-0.5000
 20
-0.5000
 30
0.0000
 11
0.5000
 21
-0.5000
 31
0.0000
 12
-0.5000
 22
0.5000
 32
0.0000
 13
0.5000
 23
0.5000
 33
0.0000
  0
ENDBLK
  8
0
  0
BLOCK
  8
0
  2
PIE
 70
64
 10
0.0000
 20
0.0000
 30
0.0000
  3
PIE
  0
POLYLINE
  8
0
 66
1
 10
0.0000
 20
0.0000
 30
0.0000
 40
0.5000
 41
0.5000
 70
0
  0
VERTEX
  8
0
 10
0.0000
 20
-0.2500
 30
0.0000
 42
1.0000
  0
VERTEX
  8
0
 10
0.0000
 20
0.2500
 30
0.0000
 42
1.0000
  0
VERTEX
  8
0
 10
0.0000
 20
-0.2500
 30
0.0000
  0
SEQEND
  8
0
  0
ENDBLK
  8
0
  0
BLOCK
  8
0
  2
OCTAGONP
 70
64
 10
0.0000
 20
0.0000
 30
0.0000
  3
OCTAGONP
  0
POLYLINE
  8
0
 66
1
 10
0.0000
 20
0.0000
 30
0.0000
 40
0.5000
 41
0.5000
 70
0
  0
VERTEX
  8
0
 10
-0.2500
 20
-0.1036
 30
0.0000
  0
VERTEX
  8
0
 10
-0.2500
 20
0.1036
 30
0.0000
  0
VERTEX
  8
0
 10
-0.1036
 20
0.2500
 30
0.0000
  0
VERTEX
  8
0
 10
0.1036
 20
0.2500
 30
0.0000
  0
VERTEX
  8
0
 10
0.2500
 20
0.1036
 30
0.0000
  0
VERTEX
  8
0
 10
0.2500
 20
-0.1036
 30
0.0000
  0
VERTEX
  8
0
 10
0.1036
 20
-0.2500
 30
0.0000
  0
VERTEX
  8
0
 10
-0.1036
 20
-0.2500
 30
0.0000
  0
VERTEX
  8
0
 10
-0.2500
 20
-0.1036
 30
0.0000
  0
VERTEX
  8
0
 10
-0.2500
 20
0.1036
 30
0.0000
  0
SEQEND
  8
0
  0
ENDBLK
  8
0
  0
BLOCK
  8
0
  2
SQUAREP
 70
64
 10
0.0000
 20
0.0000
 30
0.0000
  3
SQUAREP
  0
SOLID
  8
0
 10
-0.5000
 20
-0.5000
 30
0.0000
 11
0.5000
 21
-0.5000
 31
0.0000
 12
-0.5000
 22
0.5000
 32
0.0000
 13
0.5000
 23
0.5000
 33
0.0000
  0
ENDBLK
  8
0
  0
BLOCK
  8
0
  2
ROUNDP
 70
64
 10
0.0000
 20
0.0000
 30
0.0000
  3
ROUNDP
  0
POLYLINE
  8
0
 66
1
 10
0.0000
 20
0.0000
 30
0.0000
 40
0.5000
 41
0.5000
 70
0
  0
VERTEX
  8
0
 10
0.0000
 20
-0.2500
 30
0.0000
 42
1.0000
  0
VERTEX
  8
0
 10
0.0000
 20
0.2500
 30
0.0000
 42
1.0000
  0
VERTEX
  8
0
 10
0.0000
 20
-0.2500
 30
0.0000
  0
SEQEND
  8
0
  0
ENDBLK
  8
0
  0
BLOCK
  8
0
  2
ANNULUSP
 70
64
 10
0.0000
 20
0.0000
 30
0.0000
  3
ANNULUSP
  0
POLYLINE
  8
0
 66
1
 10
0.0000
 20
0.0000
 30
0.0000
 40
0.5000
 41
0.5000
 70
0
  0
VERTEX
  8
0
 10
0.0000
 20
-0.2500
 30
0.0000
 42
1.0000
  0
VERTEX
  8
0
 10
0.0000
 20
0.2500
 30
0.0000
 42
1.0000
  0
VERTEX
  8
0
 10
0.0000
 20
-0.2500
 30
0.0000
  0
SEQEND
  8
0
  0
ENDBLK
  8
0
  0
BLOCK
  8
0
  2
THERMALP
 70
64
 10
0.0000
 20
0.0000
 30
0.0000
  3
THERMALP
  0
POLYLINE
  8
0
 66
1
 10
0.0000
 20
0.0000
 30
0.0000
 40
0.1000
 41
0.1000
 70
0
  0
VERTEX
  8
0
 10
-0.2379
 20
0.4500
 30
0.0000
  0
VERTEX
  8
0
 10
0.2379
 20
0.4500
 30
0.0000
  0
SEQEND
  8
0
  0
POLYLINE
  8
0
 66
1
 10
0.0000
 20
0.0000
 30
0.0000
 40
0.0500
 41
0.0500
 70
0
  0
VERTEX
  8
0
 10
0.2379
 20
0.4250
 30
0.0000
 42
1.0000
  0
VERTEX
  8
0
 10
0.2379
 20
0.4750
 30
0.0000
  0
SEQEND
  8
0
  0
POLYLINE
  8
0
 66
1
 10
0.0000
 20
0.0000
 30
0.0000
 40
0.0500
 41
0.0500
 70
0
  0
VERTEX
  8
0
 10
-0.2379
 20
0.4750
 30
0.0000
 42
1.0000
  0
VERTEX
  8
0
 10
-0.2379
 20
0.4250
 30
0.0000
  0
SEQEND
  8
0
  0
POLYLINE
  8
0
 66
1
 10
0.0000
 20
0.0000
 30
0.0000
 40
0.1000
 41
0.1000
 70
0
  0
VERTEX
  8
0
 10
0.4500
 20
0.2379
 30
0.0000
  0
VERTEX
  8
0
 10
0.4500
 20
-0.2379
 30
0.0000
  0
SEQEND
  8
0
  0
POLYLINE
  8
0
 66
1
 10
0.0000
 20
0.0000
 30
0.0000
 40
0.0500
 41
0.0500
 70
0
  0
VERTEX
  8
0
 10
0.4250
 20
-0.2379
 30
0.0000
 42
1.0000
  0
VERTEX
  8
0
 10
0.4750
 20
-0.2379
 30
0.0000
  0
SEQEND
  8
0
  0
POLYLINE
  8
0
 66
1
 10
0.0000
 20
0.0000
 30
0.0000
 40
0.0500
 41
0.0500
 70
0
  0
VERTEX
  8
0
 10
0.4750
 20
0.2379
 30
0.0000
 42
1.0000
  0
VERTEX
  8
0
 10
0.4250
 20
0.2379
 30
0.0000
  0
SEQEND
  8
0
  0
POLYLINE
  8
0
 66
1
 10
0.0000
 20
0.0000
 30
0.0000
 40
0.1000
 41
0.1000
 70
0
  0
VERTEX
  8
0
 10
0.2379
 20
-0.4500
 30
0.0000
  0
VERTEX
  8
0
 10
-0.2379
 20
-0.4500
 30
0.0000
  0
SEQEND
  8
0
  0
POLYLINE
  8
0
 66
1
 10
0.0000
 20
0.0000
 30
0.0000
 40
0.0500
 41
0.0500
 70
0
  0
VERTEX
  8
0
 10
-0.2379
 20
-0.4250
 30
0.0000
 42
1.0000
  0
VERTEX
  8
0
 10
-0.2379
 20
-0.4750
 30
0.0000
  0
SEQEND
  8
0
  0
POLYLINE
  8
0
 66
1
 10
0.0000
 20
0.0000
 30
0.0000
 40
0.0500
 41
0.0500
 70
0
  0
VERTEX
  8
0
 10
0.2379
 20
-0.4750
 30
0.0000
 42
1.0000
  0
VERTEX
  8
0
 10
0.2379
 20
-0.4250
 30
0.0000
  0
SEQEND
  8
0
  0
POLYLINE
  8
0
 66
1
 10
0.0000
 20
0.0000
 30
0.0000
 40
0.1000
 41
0.1000
 70
0
  0
VERTEX
  8
0
 10
-0.4500
 20
-0.2379
 30
0.0000
  0
VERTEX
  8
0
 10
-0.4500
 20
0.2379
 30
0.0000
  0
SEQEND
  8
0
  0
POLYLINE
  8
0
 66
1
 10
0.0000
 20
0.0000
 30
0.0000
 40
0.0500
 41
0.0500
 70
0
  0
VERTEX
  8
0
 10
-0.4250
 20
0.2379
 30
0.0000
 42
1.0000
  0
VERTEX
  8
0
 10
-0.4750
 20
0.2379
 30
0.0000
  0
SEQEND
  8
0
  0
POLYLINE
  8
0
 66
1
 10
0.0000
 20
0.0000
 30
0.0000
 40
0.0500
 41
0.0500
 70
0
  0
VERTEX
  8
0
 10
-0.4750
 20
-0.2379
 30
0.0000
 42
1.0000
  0
VERTEX
  8
0
 10
-0.4250
 20
-0.2379
 30
0.0000
  0
SEQEND
  8
0
  0
ENDBLK
  8
0
  0
BLOCK
  8
0
  2
OCTAGONV
 70
64
 10
0.0000
 20
0.0000
 30
0.0000
  3
OCTAGONV
  0
POLYLINE
  8
0
 66
1
 10
0.0000
 20
0.0000
 30
0.0000
 40
0.5000
 41
0.5000
 70
0
  0
VERTEX
  8
0
 10
-0.2500
 20
-0.1036
 30
0.0000
  0
VERTEX
  8
0
 10
-0.2500
 20
0.1036
 30
0.0000
  0
VERTEX
  8
0
 10
-0.1036
 20
0.2500
 30
0.0000
  0
VERTEX
  8
0
 10
0.1036
 20
0.2500
 30
0.0000
  0
VERTEX
  8
0
 10
0.2500
 20
0.1036
 30
0.0000
  0
VERTEX
  8
0
 10
0.2500
 20
-0.1036
 30
0.0000
  0
VERTEX
  8
0
 10
0.1036
 20
-0.2500
 30
0.0000
  0
VERTEX
  8
0
 10
-0.1036
 20
-0.2500
 30
0.0000
  0
VERTEX
  8
0
 10
-0.2500
 20
-0.1036
 30
0.0000
  0
VERTEX
  8
0
 10
-0.2500
 20
0.1036
 30
0.0000
  0
SEQEND
  8
0
  0
ENDBLK
  8
0
  0
BLOCK
  8
0
  2
SQUAREV
 70
64
 10
0.0000
 20
0.0000
 30
0.0000
  3
SQUAREV
  0
SOLID
  8
0
 10
-0.5000
 20
-0.5000
 30
0.0000
 11
0.5000
 21
-0.5000
 31
0.0000
 12
-0.5000
 22
0.5000
 32
0.0000
 13
0.5000
 23
0.5000
 33
0.0000
  0
ENDBLK
  8
0
  0
BLOCK
  8
0
  2
ROUNDV
 70
64
 10
0.0000
 20
0.0000
 30
0.0000
  3
ROUNDV
  0
POLYLINE
  8
0
 66
1
 10
0.0000
 20
0.0000
 30
0.0000
 40
0.5000
 41
0.5000
 70
0
  0
VERTEX
  8
0
 10
0.0000
 20
-0.2500
 30
0.0000
 42
1.0000
  0
VERTEX
  8
0
 10
0.0000
 20
0.2500
 30
0.0000
 42
1.0000
  0
VERTEX
  8
0
 10
0.0000
 20
-0.2500
 30
0.0000
  0
SEQEND
  8
0
  0
ENDBLK
  8
0
  0
BLOCK
  8
0
  2
ANNULUSV
 70
64
 10
0.0000
 20
0.0000
 30
0.0000
  3
ANNULUSV
  0
POLYLINE
  8
0
 66
1
 10
0.0000
 20
0.0000
 30
0.0000
 40
0.5000
 41
0.5000
 70
0
  0
VERTEX
  8
0
 10
0.0000
 20
-0.2500
 30
0.0000
 42
1.0000
  0
VERTEX
  8
0
 10
0.0000
 20
0.2500
 30
0.0000
 42
1.0000
  0
VERTEX
  8
0
 10
0.0000
 20
-0.2500
 30
0.0000
  0
SEQEND
  8
0
  0
ENDBLK
  8
0
  0
BLOCK
  8
0
  2
THERMALV
 70
64
 10
0.0000
 20
0.0000
 30
0.0000
  3
THERMALV
  0
POLYLINE
  8
0
 66
1
 10
0.0000
 20
0.0000
 30
0.0000
 40
0.1000
 41
0.1000
 70
0
  0
VERTEX
  8
0
 10
-0.2379
 20
0.4500
 30
0.0000
  0
VERTEX
  8
0
 10
0.2379
 20
0.4500
 30
0.0000
  0
SEQEND
  8
0
  0
POLYLINE
  8
0
 66
1
 10
0.0000
 20
0.0000
 30
0.0000
 40
0.0500
 41
0.0500
 70
0
  0
VERTEX
  8
0
 10
0.2379
 20
0.4250
 30
0.0000
 42
1.0000
  0
VERTEX
  8
0
 10
0.2379
 20
0.4750
 30
0.0000
  0
SEQEND
  8
0
  0
POLYLINE
  8
0
 66
1
 10
0.0000
 20
0.0000
 30
0.0000
 40
0.0500
 41
0.0500
 70
0
  0
VERTEX
  8
0
 10
-0.2379
 20
0.4750
 30
0.0000
 42
1.0000
  0
VERTEX
  8
0
 10
-0.2379
 20
0.4250
 30
0.0000
  0
SEQEND
  8
0
  0
POLYLINE
  8
0
 66
1
 10
0.0000
 20
0.0000
 30
0.0000
 40
0.1000
 41
0.1000
 70
0
  0
VERTEX
  8
0
 10
0.4500
 20
0.2379
 30
0.0000
  0
VERTEX
  8
0
 10
0.4500
 20
-0.2379
 30
0.0000
  0
SEQEND
  8
0
  0
POLYLINE
  8
0
 66
1
 10
0.0000
 20
0.0000
 30
0.0000
 40
0.0500
 41
0.0500
 70
0
  0
VERTEX
  8
0
 10
0.4250
 20
-0.2379
 30
0.0000
 42
1.0000
  0
VERTEX
  8
0
 10
0.4750
 20
-0.2379
 30
0.0000
  0
SEQEND
  8
0
  0
POLYLINE
  8
0
 66
1
 10
0.0000
 20
0.0000
 30
0.0000
 40
0.0500
 41
0.0500
 70
0
  0
VERTEX
  8
0
 10
0.4750
 20
0.2379
 30
0.0000
 42
1.0000
  0
VERTEX
  8
0
 10
0.4250
 20
0.2379
 30
0.0000
  0
SEQEND
  8
0
  0
POLYLINE
  8
0
 66
1
 10
0.0000
 20
0.0000
 30
0.0000
 40
0.1000
 41
0.1000
 70
0
  0
VERTEX
  8
0
 10
0.2379
 20
-0.4500
 30
0.0000
  0
VERTEX
  8
0
 10
-0.2379
 20
-0.4500
 30
0.0000
  0
SEQEND
  8
0
  0
POLYLINE
  8
0
 66
1
 10
0.0000
 20
0.0000
 30
0.0000
 40
0.0500
 41
0.0500
 70
0
  0
VERTEX
  8
0
 10
-0.2379
 20
-0.4250
 30
0.0000
 42
1.0000
  0
VERTEX
  8
0
 10
-0.2379
 20
-0.4750
 30
0.0000
  0
SEQEND
  8
0
  0
POLYLINE
  8
0
 66
1
 10
0.0000
 20
0.0000
 30
0.0000
 40
0.0500
 41
0.0500
 70
0
  0
VERTEX
  8
0
 10
0.2379
 20
-0.4750
 30
0.0000
 42
1.0000
  0
VERTEX
  8
0
 10
0.2379
 20
-0.4250
 30
0.0000
  0
SEQEND
  8
0
  0
POLYLINE
  8
0
 66
1
 10
0.0000
 20
0.0000
 30
0.0000
 40
0.1000
 41
0.1000
 70
0
  0
VERTEX
  8
0
 10
-0.4500
 20
-0.2379
 30
0.0000
  0
VERTEX
  8
0
 10
-0.4500
 20
0.2379
 30
0.0000
  0
SEQEND
  8
0
  0
POLYLINE
  8
0
 66
1
 10
0.0000
 20
0.0000
 30
0.0000
 40
0.0500
 41
0.0500
 70
0
  0
VERTEX
  8
0
 10
-0.4250
 20
0.2379
 30
0.0000
 42
1.0000
  0
VERTEX
  8
0
 10
-0.4750
 20
0.2379
 30
0.0000
  0
SEQEND
  8
0
  0
POLYLINE
  8
0
 66
1
 10
0.0000
 20
0.0000
 30
0.0000
 40
0.0500
 41
0.0500
 70
0
  0
VERTEX
  8
0
 10
-0.4750
 20
-0.2379
 30
0.0000
 42
1.0000
  0
VERTEX
  8
0
 10
-0.4250
 20
-0.2379
 30
0.0000
  0
SEQEND
  8
0
  0
ENDBLK
  8
0
  0
ENDSEC
  0
SECTION
  2
ENTITIES
  0
POLYLINE
  8
20
 66
1
 10
0.0000
 20
0.0000
 30
0.0000
 40
0.2032
 41
0.2032
 70
0
  0
VERTEX
  8
20
 10
0.0000
 20
31.3500
 30
0.0000
  0
VERTEX
  8
20
 10
6.4200
 20
31.3500
 30
0.0000
  0
SEQEND
  8
0
  0
POLYLINE
  8
20
 66
1
 10
0.0000
 20
0.0000
 30
0.0000
 40
0.1016
 41
0.1016
 70
0
  0
VERTEX
  8
20
 10
6.4200
 20
31.2992
 30
0.0000
 42
1.0000
  0
VERTEX
  8
20
 10
6.4200
 20
31.4008
 30
0.0000
  0
SEQEND
  8
0
  0
POLYLINE
  8
20
 66
1
 10
0.0000
 20
0.0000
 30
0.0000
 40
0.1016
 41
0.1016
 70
0
  0
VERTEX
  8
20
 10
0.0000
 20
31.4008
 30
0.0000
 42
1.0000
  0
VERTEX
  8
20
 10
0.0000
 20
31.2992
 30
0.0000
  0
SEQEND
  8
0
  0
POLYLINE
  8
20
 66
1
 10
0.0000
 20
0.0000
 30
0.0000
 40
0.2032
 41
0.2032
 70
0
  0
VERTEX
  8
20
 10
6.4200
 20
31.3500
 30
0.0000
  0
VERTEX
  8
20
 10
6.4200
 20
28.8500
 30
0.0000
  0
SEQEND
  8
0
  0
POLYLINE
  8
20
 66
1
 10
0.0000
 20
0.0000
 30
0.0000
 40
0.1016
 41
0.1016
 70
0
  0
VERTEX
  8
20
 10
6.3692
 20
28.8500
 30
0.0000
 42
1.0000
  0
VERTEX
  8
20
 10
6.4708
 20
28.8500
 30
0.0000
  0
SEQEND
  8
0
  0
POLYLINE
  8
20
 66
1
 10
0.0000
 20
0.0000
 30
0.0000
 40
0.1016
 41
0.1016
 70
0
  0
VERTEX
  8
20
 10
6.4708
 20
31.3500
 30
0.0000
 42
1.0000
  0
VERTEX
  8
20
 10
6.3692
 20
31.3500
 30
0.0000
  0
SEQEND
  8
0
  0
POLYLINE
  8
20
 66
1
 10
0.0000
 20
0.0000
 30
0.0000
 40
0.2032
 41
0.2032
 70
0
  0
VERTEX
  8
20
 10
6.4200
 20
28.8500
 30
0.0000
 42
0.4142
  0
VERTEX
  8
20
 10
6.9200
 20
28.3500
 30
0.0000
  0
SEQEND
  8
0
  0
POLYLINE
  8
20
 66
1
 10
0.0000
 20
0.0000
 30
0.0000
 40
0.1016
 41
0.1016
 70
0
  0
VERTEX
  8
20
 10
6.4708
 20
28.8500
 30
0.0000
 42
1.0000
  0
VERTEX
  8
20
 10
6.3692
 20
28.8500
 30
0.0000
  0
SEQEND
  8
0
  0
POLYLINE
  8
20
 66
1
 10
0.0000
 20
0.0000
 30
0.0000
 40
0.1016
 41
0.1016
 70
0
  0
VERTEX
  8
20
 10
6.9200
 20
28.2992
 30
0.0000
 42
1.0000
  0
VERTEX
  8
20
 10
6.9200
 20
28.4008
 30
0.0000
  0
SEQEND
  8
0
  0
POLYLINE
  8
20
 66
1
 10
0.0000
 20
0.0000
 30
0.0000
 40
0.2032
 41
0.2032
 70
0
  0
VERTEX
  8
20
 10
6.9200
 20
28.3500
 30
0.0000
  0
VERTEX
  8
20
 10
8.3200
 20
28.3500
 30
0.0000
  0
SEQEND
  8
0
  0
POLYLINE
  8
20
 66
1
 10
0.0000
 20
0.0000
 30
0.0000
 40
0.1016
 41
0.1016
 70
0
  0
VERTEX
  8
20
 10
8.3200
 20
28.2992
 30
0.0000
 42
1.0000
  0
VERTEX
  8
20
 10
8.3200
 20
28.4008
 30
0.0000
  0
SEQEND
  8
0
  0
POLYLINE
  8
20
 66
1
 10
0.0000
 20
0.0000
 30
0.0000
 40
0.1016
 41
0.1016
 70
0
  0
VERTEX
  8
20
 10
6.9200
 20
28.4008
 30
0.0000
 42
1.0000
  0
VERTEX
  8
20
 10
6.9200
 20
28.2992
 30
0.0000
  0
SEQEND
  8
0
  0
POLYLINE
  8
20
 66
1
 10
0.0000
 20
0.0000
 30
0.0000
 40
0.2032
 41
0.2032
 70
0
  0
VERTEX
  8
20
 10
8.3200
 20
28.3500
 30
0.0000
 42
0.4142
  0
VERTEX
  8
20
 10
8.8200
 20
28.8500
 30
0.0000
  0
SEQEND
  8
0
  0
POLYLINE
  8
20
 66
1
 10
0.0000
 20
0.0000
 30
0.0000
 40
0.1016
 41
0.1016
 70
0
  0
VERTEX
  8
20
 10
8.3200
 20
28.4008
 30
0.0000
 42
1.0000
  0
VERTEX
  8
20
 10
8.3200
 20
28.2992
 30
0.0000
  0
SEQEND
  8
0
  0
POLYLINE
  8
20
 66
1
 10
0.0000
 20
0.0000
 30
0.0000
 40
0.1016
 41
0.1016
 70
0
  0
VERTEX
  8
20
 10
8.8708
 20
28.8500
 30
0.0000
 42
1.0000
  0
VERTEX
  8
20
 10
8.7692
 20
28.8500
 30
0.0000
  0
SEQEND
  8
0
  0
POLYLINE
  8
20
 66
1
 10
0.0000
 20
0.0000
 30
0.0000
 40
0.2032
 41
0.2032
 70
0
  0
VERTEX
  8
20
 10
8.8200
 20
28.8500
 30
0.0000
  0
VERTEX
  8
20
 10
8.8200
 20
31.3500
 30
0.0000
  0
SEQEND
  8
0
  0
POLYLINE
  8
20
 66
1
 10
0.0000
 20
0.0000
 30
0.0000
 40
0.1016
 41
0.1016
 70
0
  0
VERTEX
  8
20
 10
8.8708
 20
31.3500
 30
0.0000
 42
1.0000
  0
VERTEX
  8
20
 10
8.7692
 20
31.3500
 30
0.0000
  0
SEQEND
  8
0
  0
POLYLINE
  8
20
 66
1
 10
0.0000
 20
0.0000
 30
0.0000
 40
0.1016
 41
0.1016
 70
0
  0
VERTEX
  8
20
 10
8.7692
 20
28.8500
 30
0.0000
 42
1.0000
  0
VERTEX
  8
20
 10
8.8708
 20
28.8500
 30
0.0000
  0
SEQEND
  8
0
  0
POLYLINE
  8
20
 66
1
 10
0.0000
 20
0.0000
 30
0.0000
 40
0.2032
 41
0.2032
 70
0
  0
VERTEX
  8
20
 10
8.8200
 20
31.3500
 30
0.0000
  0
VERTEX
  8
20
 10
15.2400
 20
31.3500
 30
0.0000
  0
SEQEND
  8
0
  0
POLYLINE
  8
20
 66
1
 10
0.0000
 20
0.0000
 30
0.0000
 40
0.1016
 41
0.1016
 70
0
  0
VERTEX
  8
20
 10
15.2400
 20
31.2992
 30
0.0000
 42
1.0000
  0
VERTEX
  8
20
 10
15.2400
 20
31.4008
 30
0.0000
  0
SEQEND
  8
0
  0
POLYLINE
  8
20
 66
1
 10
0.0000
 20
0.0000
 30
0.0000
 40
0.1016
 41
0.1016
 70
0
  0
VERTEX
  8
20
 10
8.8200
 20
31.4008
 30
0.0000
 42
1.0000
  0
VERTEX
  8
20
 10
8.8200
 20
31.2992
 30
0.0000
  0
SEQEND
  8
0
  0
POLYLINE
  8
20
 66
1
 10
0.0000
 20
0.0000
 30
0.0000
 40
0.2032
 41
0.2032
 70
0
  0
VERTEX
  8
20
 10
0.0000
 20
31.3500
 30
0.0000
  0
VERTEX
  8
20
 10
0.0000
 20
0.0000
 30
0.0000
  0
SEQEND
  8
0
  0
POLYLINE
  8
20
 66
1
 10
0.0000
 20
0.0000
 30
0.0000
 40
0.1016
 41
0.1016
 70
0
  0
VERTEX
  8
20
 10
-0.0508
 20
0.0000
 30
0.0000
 42
1.0000
  0
VERTEX
  8
20
 10
0.0508
 20
0.0000
 30
0.0000
  0
SEQEND
  8
0
  0
POLYLINE
  8
20
 66
1
 10
0.0000
 20
0.0000
 30
0.0000
 40
0.1016
 41
0.1016
 70
0
  0
VERTEX
  8
20
 10
0.0508
 20
31.3500
 30
0.0000
 42
1.0000
  0
VERTEX
  8
20
 10
-0.0508
 20
31.3500
 30
0.0000
  0
SEQEND
  8
0
  0
POLYLINE
  8
20
 66
1
 10
0.0000
 20
0.0000
 30
0.0000
 40
0.2032
 41
0.2032
 70
0
  0
VERTEX
  8
20
 10
0.0000
 20
0.0000
 30
0.0000
  0
VERTEX
  8
20
 10
15.2400
 20
0.0000
 30
0.0000
  0
SEQEND
  8
0
  0
POLYLINE
  8
20
 66
1
 10
0.0000
 20
0.0000
 30
0.0000
 40
0.1016
 41
0.1016
 70
0
  0
VERTEX
  8
20
 10
15.2400
 20
-0.0508
 30
0.0000
 42
1.0000
  0
VERTEX
  8
20
 10
15.2400
 20
0.0508
 30
0.0000
  0
SEQEND
  8
0
  0
POLYLINE
  8
20
 66
1
 10
0.0000
 20
0.0000
 30
0.0000
 40
0.1016
 41
0.1016
 70
0
  0
VERTEX
  8
20
 10
0.0000
 20
0.0508
 30
0.0000
 42
1.0000
  0
VERTEX
  8
20
 10
0.0000
 20
-0.0508
 30
0.0000
  0
SEQEND
  8
0
  0
POLYLINE
  8
20
 66
1
 10
0.0000
 20
0.0000
 30
0.0000
 40
0.2032
 41
0.2032
 70
0
  0
VERTEX
  8
20
 10
15.2400
 20
0.0000
 30
0.0000
  0
VERTEX
  8
20
 10
15.2400
 20
31.3500
 30
0.0000
  0
SEQEND
  8
0
  0
POLYLINE
  8
20
 66
1
 10
0.0000
 20
0.0000
 30
0.0000
 40
0.1016
 41
0.1016
 70
0
  0
VERTEX
  8
20
 10
15.2908
 20
31.3500
 30
0.0000
 42
1.0000
  0
VERTEX
  8
20
 10
15.1892
 20
31.3500
 30
0.0000
  0
SEQEND
  8
0
  0
POLYLINE
  8
20
 66
1
 10
0.0000
 20
0.0000
 30
0.0000
 40
0.1016
 41
0.1016
 70
0
  0
VERTEX
  8
20
 10
15.1892
 20
0.0000
 30
0.0000
 42
1.0000
  0
VERTEX
  8
20
 10
15.2908
 20
0.0000
 30
0.0000
  0
SEQEND
  8
0
  0
POLYLINE
  8
21
 66
1
 10
0.0000
 20
0.0000
 30
0.0000
 40
0.1778
 41
0.1778
 70
0
  0
VERTEX
  8
21
 10
13.7111
 20
3.6539
 30
0.0000
  0
VERTEX
  8
21
 10
13.5501
 20
3.4929
 30
0.0000
  0
SEQEND
  8
0
  0
POLYLINE
  8
21
 66
1
 10
0.0000
 20
0.0000
 30
0.0000
 40
0.0889
 41
0.0889
 70
0
  0
VERTEX
  8
21
 10
13.5186
 20
3.5243
 30
0.0000
 42
1.0000
  0
VERTEX
  8
21
 10
13.5815
 20
3.4615
 30
0.0000
  0
SEQEND
  8
0
  0
POLYLINE
  8
21
 66
1
 10
0.0000
 20
0.0000
 30
0.0000
 40
0.0889
 41
0.0889
 70
0
  0
VERTEX
  8
21
 10
13.7425
 20
3.6225
 30
0.0000
 42
1.0000
  0
VERTEX
  8
21
 10
13.6797
 20
3.6853
 30
0.0000
  0
SEQEND
  8
0
  0
POLYLINE
  8
21
 66
1
 10
0.0000
 20
0.0000
 30
0.0000
 40
0.1778
 41
0.1778
 70
0
  0
VERTEX
  8
21
 10
13.5501
 20
3.4929
 30
0.0000
  0
VERTEX
  8
21
 10
13.5501
 20
3.1709
 30
0.0000
  0
SEQEND
  8
0
  0
POLYLINE
  8
21
 66
1
 10
0.0000
 20
0.0000
 30
0.0000
 40
0.0889
 41
0.0889
 70
0
  0
VERTEX
  8
21
 10
13.5056
 20
3.1709
 30
0.0000
 42
1.0000
  0
VERTEX
  8
21
 10
13.5945
 20
3.1709
 30
0.0000
  0
SEQEND
  8
0
  0
POLYLINE
  8
21
 66
1
 10
0.0000
 20
0.0000
 30
0.0000
 40
0.0889
 41
0.0889
 70
0
  0
VERTEX
  8
21
 10
13.5945
 20
3.4929
 30
0.0000
 42
1.0000
  0
VERTEX
  8
21
 10
13.5056
 20
3.4929
 30
0.0000
  0
SEQEND
  8
0
  0
POLYLINE
  8
21
 66
1
 10
0.0000
 20
0.0000
 30
0.0000
 40
0.1778
 41
0.1778
 70
0
  0
VERTEX
  8
21
 10
13.5501
 20
3.1709
 30
0.0000
  0
VERTEX
  8
21
 10
13.7111
 20
3.0099
 30
0.0000
  0
SEQEND
  8
0
  0
POLYLINE
  8
21
 66
1
 10
0.0000
 20
0.0000
 30
0.0000
 40
0.0889
 41
0.0889
 70
0
  0
VERTEX
  8
21
 10
13.6797
 20
2.9785
 30
0.0000
 42
1.0000
  0
VERTEX
  8
21
 10
13.7425
 20
3.0413
 30
0.0000
  0
SEQEND
  8
0
  0
POLYLINE
  8
21
 66
1
 10
0.0000
 20
0.0000
 30
0.0000
 40
0.0889
 41
0.0889
 70
0
  0
VERTEX
  8
21
 10
13.5815
 20
3.2023
 30
0.0000
 42
1.0000
  0
VERTEX
  8
21
 10
13.5186
 20
3.1395
 30
0.0000
  0
SEQEND
  8
0
  0
POLYLINE
  8
21
 66
1
 10
0.0000
 20
0.0000
 30
0.0000
 40
0.1778
 41
0.1778
 70
0
  0
VERTEX
  8
21
 10
13.7111
 20
3.0099
 30
0.0000
  0
VERTEX
  8
21
 10
14.3551
 20
3.0099
 30
0.0000
  0
SEQEND
  8
0
  0
POLYLINE
  8
21
 66
1
 10
0.0000
 20
0.0000
 30
0.0000
 40
0.0889
 41
0.0889
 70
0
  0
VERTEX
  8
21
 10
14.3551
 20
2.9655
 30
0.0000
 42
1.0000
  0
VERTEX
  8
21
 10
14.3551
 20
3.0543
 30
0.0000
  0
SEQEND
  8
0
  0
POLYLINE
  8
21
 66
1
 10
0.0000
 20
0.0000
 30
0.0000
 40
0.0889
 41
0.0889
 70
0
  0
VERTEX
  8
21
 10
13.7111
 20
3.0543
 30
0.0000
 42
1.0000
  0
VERTEX
  8
21
 10
13.7111
 20
2.9655
 30
0.0000
  0
SEQEND
  8
0
  0
POLYLINE
  8
21
 66
1
 10
0.0000
 20
0.0000
 30
0.0000
 40
0.1778
 41
0.1778
 70
0
  0
VERTEX
  8
21
 10
14.3551
 20
3.0099
 30
0.0000
  0
VERTEX
  8
21
 10
14.5161
 20
3.1709
 30
0.0000
  0
SEQEND
  8
0
  0
POLYLINE
  8
21
 66
1
 10
0.0000
 20
0.0000
 30
0.0000
 40
0.0889
 41
0.0889
 70
0
  0
VERTEX
  8
21
 10
14.5475
 20
3.1395
 30
0.0000
 42
1.0000
  0
VERTEX
  8
21
 10
14.4847
 20
3.2023
 30
0.0000
  0
SEQEND
  8
0
  0
POLYLINE
  8
21
 66
1
 10
0.0000
 20
0.0000
 30
0.0000
 40
0.0889
 41
0.0889
 70
0
  0
VERTEX
  8
21
 10
14.3237
 20
3.0413
 30
0.0000
 42
1.0000
  0
VERTEX
  8
21
 10
14.3865
 20
2.9785
 30
0.0000
  0
SEQEND
  8
0
  0
POLYLINE
  8
21
 66
1
 10
0.0000
 20
0.0000
 30
0.0000
 40
0.1778
 41
0.1778
 70
0
  0
VERTEX
  8
21
 10
14.5161
 20
3.1709
 30
0.0000
  0
VERTEX
  8
21
 10
14.5161
 20
3.4929
 30
0.0000
  0
SEQEND
  8
0
  0
POLYLINE
  8
21
 66
1
 10
0.0000
 20
0.0000
 30
0.0000
 40
0.0889
 41
0.0889
 70
0
  0
VERTEX
  8
21
 10
14.5606
 20
3.4929
 30
0.0000
 42
1.0000
  0
VERTEX
  8
21
 10
14.4717
 20
3.4929
 30
0.0000
  0
SEQEND
  8
0
  0
POLYLINE
  8
21
 66
1
 10
0.0000
 20
0.0000
 30
0.0000
 40
0.0889
 41
0.0889
 70
0
  0
VERTEX
  8
21
 10
14.4717
 20
3.1709
 30
0.0000
 42
1.0000
  0
VERTEX
  8
21
 10
14.5606
 20
3.1709
 30
0.0000
  0
SEQEND
  8
0
  0
POLYLINE
  8
21
 66
1
 10
0.0000
 20
0.0000
 30
0.0000
 40
0.1778
 41
0.1778
 70
0
  0
VERTEX
  8
21
 10
14.5161
 20
3.4929
 30
0.0000
  0
VERTEX
  8
21
 10
14.3551
 20
3.6539
 30
0.0000
  0
SEQEND
  8
0
  0
POLYLINE
  8
21
 66
1
 10
0.0000
 20
0.0000
 30
0.0000
 40
0.0889
 41
0.0889
 70
0
  0
VERTEX
  8
21
 10
14.3865
 20
3.6853
 30
0.0000
 42
1.0000
  0
VERTEX
  8
21
 10
14.3237
 20
3.6225
 30
0.0000
  0
SEQEND
  8
0
  0
POLYLINE
  8
21
 66
1
 10
0.0000
 20
0.0000
 30
0.0000
 40
0.0889
 41
0.0889
 70
0
  0
VERTEX
  8
21
 10
14.4847
 20
3.4615
 30
0.0000
 42
1.0000
  0
VERTEX
  8
21
 10
14.5475
 20
3.5243
 30
0.0000
  0
SEQEND
  8
0
  0
POLYLINE
  8
21
 66
1
 10
0.0000
 20
0.0000
 30
0.0000
 40
0.1778
 41
0.1778
 70
0
  0
VERTEX
  8
21
 10
14.3551
 20
3.6539
 30
0.0000
  0
VERTEX
  8
21
 10
14.0331
 20
3.6539
 30
0.0000
  0
SEQEND
  8
0
  0
POLYLINE
  8
21
 66
1
 10
0.0000
 20
0.0000
 30
0.0000
 40
0.0889
 41
0.0889
 70
0
  0
VERTEX
  8
21
 10
14.0331
 20
3.6984
 30
0.0000
 42
1.0000
  0
VERTEX
  8
21
 10
14.0331
 20
3.6095
 30
0.0000
  0
SEQEND
  8
0
  0
POLYLINE
  8
21
 66
1
 10
0.0000
 20
0.0000
 30
0.0000
 40
0.0889
 41
0.0889
 70
0
  0
VERTEX
  8
21
 10
14.3551
 20
3.6095
 30
0.0000
 42
1.0000
  0
VERTEX
  8
21
 10
14.3551
 20
3.6984
 30
0.0000
  0
SEQEND
  8
0
  0
POLYLINE
  8
21
 66
1
 10
0.0000
 20
0.0000
 30
0.0000
 40
0.1778
 41
0.1778
 70
0
  0
VERTEX
  8
21
 10
14.0331
 20
3.6539
 30
0.0000
  0
VERTEX
  8
21
 10
14.0331
 20
3.3319
 30
0.0000
  0
SEQEND
  8
0
  0
POLYLINE
  8
21
 66
1
 10
0.0000
 20
0.0000
 30
0.0000
 40
0.0889
 41
0.0889
 70
0
  0
VERTEX
  8
21
 10
13.9886
 20
3.3319
 30
0.0000
 42
1.0000
  0
VERTEX
  8
21
 10
14.0775
 20
3.3319
 30
0.0000
  0
SEQEND
  8
0
  0
POLYLINE
  8
21
 66
1
 10
0.0000
 20
0.0000
 30
0.0000
 40
0.0889
 41
0.0889
 70
0
  0
VERTEX
  8
21
 10
14.0775
 20
3.6539
 30
0.0000
 42
1.0000
  0
VERTEX
  8
21
 10
13.9886
 20
3.6539
 30
0.0000
  0
SEQEND
  8
0
  0
POLYLINE
  8
21
 66
1
 10
0.0000
 20
0.0000
 30
0.0000
 40
0.1778
 41
0.1778
 70
0
  0
VERTEX
  8
21
 10
14.5161
 20
4.0624
 30
0.0000
  0
VERTEX
  8
21
 10
13.5501
 20
4.0624
 30
0.0000
  0
SEQEND
  8
0
  0
POLYLINE
  8
21
 66
1
 10
0.0000
 20
0.0000
 30
0.0000
 40
0.0889
 41
0.0889
 70
0
  0
VERTEX
  8
21
 10
13.5501
 20
4.1068
 30
0.0000
 42
1.0000
  0
VERTEX
  8
21
 10
13.5501
 20
4.0179
 30
0.0000
  0
SEQEND
  8
0
  0
POLYLINE
  8
21
 66
1
 10
0.0000
 20
0.0000
 30
0.0000
 40
0.0889
 41
0.0889
 70
0
  0
VERTEX
  8
21
 10
14.5161
 20
4.0179
 30
0.0000
 42
1.0000
  0
VERTEX
  8
21
 10
14.5161
 20
4.1068
 30
0.0000
  0
SEQEND
  8
0
  0
POLYLINE
  8
21
 66
1
 10
0.0000
 20
0.0000
 30
0.0000
 40
0.1778
 41
0.1778
 70
0
  0
VERTEX
  8
21
 10
13.5501
 20
4.0624
 30
0.0000
  0
VERTEX
  8
21
 10
14.5161
 20
4.7064
 30
0.0000
  0
SEQEND
  8
0
  0
POLYLINE
  8
21
 66
1
 10
0.0000
 20
0.0000
 30
0.0000
 40
0.0889
 41
0.0889
 70
0
  0
VERTEX
  8
21
 10
14.5408
 20
4.6694
 30
0.0000
 42
1.0000
  0
VERTEX
  8
21
 10
14.4914
 20
4.7434
 30
0.0000
  0
SEQEND
  8
0
  0
POLYLINE
  8
21
 66
1
 10
0.0000
 20
0.0000
 30
0.0000
 40
0.0889
 41
0.0889
 70
0
  0
VERTEX
  8
21
 10
13.5254
 20
4.0993
 30
0.0000
 42
1.0000
  0
VERTEX
  8
21
 10
13.5747
 20
4.0254
 30
0.0000
  0
SEQEND
  8
0
  0
POLYLINE
  8
21
 66
1
 10
0.0000
 20
0.0000
 30
0.0000
 40
0.1778
 41
0.1778
 70
0
  0
VERTEX
  8
21
 10
14.5161
 20
4.7064
 30
0.0000
  0
VERTEX
  8
21
 10
13.5501
 20
4.7064
 30
0.0000
  0
SEQEND
  8
0
  0
POLYLINE
  8
21
 66
1
 10
0.0000
 20
0.0000
 30
0.0000
 40
0.0889
 41
0.0889
 70
0
  0
VERTEX
  8
21
 10
13.5501
 20
4.7508
 30
0.0000
 42
1.0000
  0
VERTEX
  8
21
 10
13.5501
 20
4.6619
 30
0.0000
  0
SEQEND
  8
0
  0
POLYLINE
  8
21
 66
1
 10
0.0000
 20
0.0000
 30
0.0000
 40
0.0889
 41
0.0889
 70
0
  0
VERTEX
  8
21
 10
14.5161
 20
4.6619
 30
0.0000
 42
1.0000
  0
VERTEX
  8
21
 10
14.5161
 20
4.7508
 30
0.0000
  0
SEQEND
  8
0
  0
POLYLINE
  8
21
 66
1
 10
0.0000
 20
0.0000
 30
0.0000
 40
0.1778
 41
0.1778
 70
0
  0
VERTEX
  8
21
 10
13.5501
 20
5.1148
 30
0.0000
  0
VERTEX
  8
21
 10
14.5161
 20
5.1148
 30
0.0000
  0
SEQEND
  8
0
  0
POLYLINE
  8
21
 66
1
 10
0.0000
 20
0.0000
 30
0.0000
 40
0.0889
 41
0.0889
 70
0
  0
VERTEX
  8
21
 10
14.5161
 20
5.0704
 30
0.0000
 42
1.0000
  0
VERTEX
  8
21
 10
14.5161
 20
5.1593
 30
0.0000
  0
SEQEND
  8
0
  0
POLYLINE
  8
21
 66
1
 10
0.0000
 20
0.0000
 30
0.0000
 40
0.0889
 41
0.0889
 70
0
  0
VERTEX
  8
21
 10
13.5501
 20
5.1593
 30
0.0000
 42
1.0000
  0
VERTEX
  8
21
 10
13.5501
 20
5.0704
 30
0.0000
  0
SEQEND
  8
0
  0
POLYLINE
  8
21
 66
1
 10
0.0000
 20
0.0000
 30
0.0000
 40
0.1778
 41
0.1778
 70
0
  0
VERTEX
  8
21
 10
14.5161
 20
5.1148
 30
0.0000
  0
VERTEX
  8
21
 10
14.5161
 20
5.5978
 30
0.0000
  0
SEQEND
  8
0
  0
POLYLINE
  8
21
 66
1
 10
0.0000
 20
0.0000
 30
0.0000
 40
0.0889
 41
0.0889
 70
0
  0
VERTEX
  8
21
 10
14.5606
 20
5.5978
 30
0.0000
 42
1.0000
  0
VERTEX
  8
21
 10
14.4717
 20
5.5978
 30
0.0000
  0
SEQEND
  8
0
  0
POLYLINE
  8
21
 66
1
 10
0.0000
 20
0.0000
 30
0.0000
 40
0.0889
 41
0.0889
 70
0
  0
VERTEX
  8
21
 10
14.4717
 20
5.1148
 30
0.0000
 42
1.0000
  0
VERTEX
  8
21
 10
14.5606
 20
5.1148
 30
0.0000
  0
SEQEND
  8
0
  0
POLYLINE
  8
21
 66
1
 10
0.0000
 20
0.0000
 30
0.0000
 40
0.1778
 41
0.1778
 70
0
  0
VERTEX
  8
21
 10
14.5161
 20
5.5978
 30
0.0000
  0
VERTEX
  8
21
 10
14.3551
 20
5.7588
 30
0.0000
  0
SEQEND
  8
0
  0
POLYLINE
  8
21
 66
1
 10
0.0000
 20
0.0000
 30
0.0000
 40
0.0889
 41
0.0889
 70
0
  0
VERTEX
  8
21
 10
14.3865
 20
5.7903
 30
0.0000
 42
1.0000
  0
VERTEX
  8
21
 10
14.3237
 20
5.7274
 30
0.0000
  0
SEQEND
  8
0
  0
POLYLINE
  8
21
 66
1
 10
0.0000
 20
0.0000
 30
0.0000
 40
0.0889
 41
0.0889
 70
0
  0
VERTEX
  8
21
 10
14.4847
 20
5.5664
 30
0.0000
 42
1.0000
  0
VERTEX
  8
21
 10
14.5475
 20
5.6293
 30
0.0000
  0
SEQEND
  8
0
  0
POLYLINE
  8
21
 66
1
 10
0.0000
 20
0.0000
 30
0.0000
 40
0.1778
 41
0.1778
 70
0
  0
VERTEX
  8
21
 10
14.3551
 20
5.7588
 30
0.0000
  0
VERTEX
  8
21
 10
13.7111
 20
5.7588
 30
0.0000
  0
SEQEND
  8
0
  0
POLYLINE
  8
21
 66
1
 10
0.0000
 20
0.0000
 30
0.0000
 40
0.0889
 41
0.0889
 70
0
  0
VERTEX
  8
21
 10
13.7111
 20
5.8033
 30
0.0000
 42
1.0000
  0
VERTEX
  8
21
 10
13.7111
 20
5.7144
 30
0.0000
  0
SEQEND
  8
0
  0
POLYLINE
  8
21
 66
1
 10
0.0000
 20
0.0000
 30
0.0000
 40
0.0889
 41
0.0889
 70
0
  0
VERTEX
  8
21
 10
14.3551
 20
5.7144
 30
0.0000
 42
1.0000
  0
VERTEX
  8
21
 10
14.3551
 20
5.8033
 30
0.0000
  0
SEQEND
  8
0
  0
POLYLINE
  8
21
 66
1
 10
0.0000
 20
0.0000
 30
0.0000
 40
0.1778
 41
0.1778
 70
0
  0
VERTEX
  8
21
 10
13.7111
 20
5.7588
 30
0.0000
  0
VERTEX
  8
21
 10
13.5501
 20
5.5978
 30
0.0000
  0
SEQEND
  8
0
  0
POLYLINE
  8
21
 66
1
 10
0.0000
 20
0.0000
 30
0.0000
 40
0.0889
 41
0.0889
 70
0
  0
VERTEX
  8
21
 10
13.5186
 20
5.6293
 30
0.0000
 42
1.0000
  0
VERTEX
  8
21
 10
13.5815
 20
5.5664
 30
0.0000
  0
SEQEND
  8
0
  0
POLYLINE
  8
21
 66
1
 10
0.0000
 20
0.0000
 30
0.0000
 40
0.0889
 41
0.0889
 70
0
  0
VERTEX
  8
21
 10
13.7425
 20
5.7274
 30
0.0000
 42
1.0000
  0
VERTEX
  8
21
 10
13.6797
 20
5.7903
 30
0.0000
  0
SEQEND
  8
0
  0
POLYLINE
  8
21
 66
1
 10
0.0000
 20
0.0000
 30
0.0000
 40
0.1778
 41
0.1778
 70
0
  0
VERTEX
  8
21
 10
13.5501
 20
5.5978
 30
0.0000
  0
VERTEX
  8
21
 10
13.5501
 20
5.1148
 30
0.0000
  0
SEQEND
  8
0
  0
POLYLINE
  8
21
 66
1
 10
0.0000
 20
0.0000
 30
0.0000
 40
0.0889
 41
0.0889
 70
0
  0
VERTEX
  8
21
 10
13.5056
 20
5.1148
 30
0.0000
 42
1.0000
  0
VERTEX
  8
21
 10
13.5945
 20
5.1148
 30
0.0000
  0
SEQEND
  8
0
  0
POLYLINE
  8
21
 66
1
 10
0.0000
 20
0.0000
 30
0.0000
 40
0.0889
 41
0.0889
 70
0
  0
VERTEX
  8
21
 10
13.5945
 20
5.5978
 30
0.0000
 42
1.0000
  0
VERTEX
  8
21
 10
13.5056
 20
5.5978
 30
0.0000
  0
SEQEND
  8
0
  0
POLYLINE
  8
21
 66
1
 10
0.0000
 20
0.0000
 30
0.0000
 40
0.1778
 41
0.1778
 70
0
  0
VERTEX
  8
21
 10
6.8961
 20
3.0099
 30
0.0000
  0
VERTEX
  8
21
 10
5.9301
 20
3.0099
 30
0.0000
  0
SEQEND
  8
0
  0
POLYLINE
  8
21
 66
1
 10
0.0000
 20
0.0000
 30
0.0000
 40
0.0889
 41
0.0889
 70
0
  0
VERTEX
  8
21
 10
5.9301
 20
3.0543
 30
0.0000
 42
1.0000
  0
VERTEX
  8
21
 10
5.9301
 20
2.9655
 30
0.0000
  0
SEQEND
  8
0
  0
POLYLINE
  8
21
 66
1
 10
0.0000
 20
0.0000
 30
0.0000
 40
0.0889
 41
0.0889
 70
0
  0
VERTEX
  8
21
 10
6.8961
 20
2.9655
 30
0.0000
 42
1.0000
  0
VERTEX
  8
21
 10
6.8961
 20
3.0543
 30
0.0000
  0
SEQEND
  8
0
  0
POLYLINE
  8
21
 66
1
 10
0.0000
 20
0.0000
 30
0.0000
 40
0.1778
 41
0.1778
 70
0
  0
VERTEX
  8
21
 10
5.9301
 20
3.0099
 30
0.0000
  0
VERTEX
  8
21
 10
5.9301
 20
3.4929
 30
0.0000
  0
SEQEND
  8
0
  0
POLYLINE
  8
21
 66
1
 10
0.0000
 20
0.0000
 30
0.0000
 40
0.0889
 41
0.0889
 70
0
  0
VERTEX
  8
21
 10
5.9745
 20
3.4929
 30
0.0000
 42
1.0000
  0
VERTEX
  8
21
 10
5.8856
 20
3.4929
 30
0.0000
  0
SEQEND
  8
0
  0
POLYLINE
  8
21
 66
1
 10
0.0000
 20
0.0000
 30
0.0000
 40
0.0889
 41
0.0889
 70
0
  0
VERTEX
  8
21
 10
5.8856
 20
3.0099
 30
0.0000
 42
1.0000
  0
VERTEX
  8
21
 10
5.9745
 20
3.0099
 30
0.0000
  0
SEQEND
  8
0
  0
POLYLINE
  8
21
 66
1
 10
0.0000
 20
0.0000
 30
0.0000
 40
0.1778
 41
0.1778
 70
0
  0
VERTEX
  8
21
 10
5.9301
 20
3.4929
 30
0.0000
  0
VERTEX
  8
21
 10
6.0911
 20
3.6539
 30
0.0000
  0
SEQEND
  8
0
  0
POLYLINE
  8
21
 66
1
 10
0.0000
 20
0.0000
 30
0.0000
 40
0.0889
 41
0.0889
 70
0
  0
VERTEX
  8
21
 10
6.1225
 20
3.6225
 30
0.0000
 42
1.0000
  0
VERTEX
  8
21
 10
6.0597
 20
3.6853
 30
0.0000
  0
SEQEND
  8
0
  0
POLYLINE
  8
21
 66
1
 10
0.0000
 20
0.0000
 30
0.0000
 40
0.0889
 41
0.0889
 70
0
  0
VERTEX
  8
21
 10
5.8986
 20
3.5243
 30
0.0000
 42
1.0000
  0
VERTEX
  8
21
 10
5.9615
 20
3.4615
 30
0.0000
  0
SEQEND
  8
0
  0
POLYLINE
  8
21
 66
1
 10
0.0000
 20
0.0000
 30
0.0000
 40
0.1778
 41
0.1778
 70
0
  0
VERTEX
  8
21
 10
6.0911
 20
3.6539
 30
0.0000
  0
VERTEX
  8
21
 10
6.4131
 20
3.6539
 30
0.0000
  0
SEQEND
  8
0
  0
POLYLINE
  8
21
 66
1
 10
0.0000
 20
0.0000
 30
0.0000
 40
0.0889
 41
0.0889
 70
0
  0
VERTEX
  8
21
 10
6.4131
 20
3.6095
 30
0.0000
 42
1.0000
  0
VERTEX
  8
21
 10
6.4131
 20
3.6984
 30
0.0000
  0
SEQEND
  8
0
  0
POLYLINE
  8
21
 66
1
 10
0.0000
 20
0.0000
 30
0.0000
 40
0.0889
 41
0.0889
 70
0
  0
VERTEX
  8
21
 10
6.0911
 20
3.6984
 30
0.0000
 42
1.0000
  0
VERTEX
  8
21
 10
6.0911
 20
3.6095
 30
0.0000
  0
SEQEND
  8
0
  0
POLYLINE
  8
21
 66
1
 10
0.0000
 20
0.0000
 30
0.0000
 40
0.1778
 41
0.1778
 70
0
  0
VERTEX
  8
21
 10
6.4131
 20
3.6539
 30
0.0000
  0
VERTEX
  8
21
 10
6.5741
 20
3.4929
 30
0.0000
  0
SEQEND
  8
0
  0
POLYLINE
  8
21
 66
1
 10
0.0000
 20
0.0000
 30
0.0000
 40
0.0889
 41
0.0889
 70
0
  0
VERTEX
  8
21
 10
6.5427
 20
3.4615
 30
0.0000
 42
1.0000
  0
VERTEX
  8
21
 10
6.6055
 20
3.5243
 30
0.0000
  0
SEQEND
  8
0
  0
POLYLINE
  8
21
 66
1
 10
0.0000
 20
0.0000
 30
0.0000
 40
0.0889
 41
0.0889
 70
0
  0
VERTEX
  8
21
 10
6.4445
 20
3.6853
 30
0.0000
 42
1.0000
  0
VERTEX
  8
21
 10
6.3817
 20
3.6225
 30
0.0000
  0
SEQEND
  8
0
  0
POLYLINE
  8
21
 66
1
 10
0.0000
 20
0.0000
 30
0.0000
 40
0.1778
 41
0.1778
 70
0
  0
VERTEX
  8
21
 10
6.5741
 20
3.4929
 30
0.0000
  0
VERTEX
  8
21
 10
6.5741
 20
3.0099
 30
0.0000
  0
SEQEND
  8
0
  0
POLYLINE
  8
21
 66
1
 10
0.0000
 20
0.0000
 30
0.0000
 40
0.0889
 41
0.0889
 70
0
  0
VERTEX
  8
21
 10
6.5296
 20
3.0099
 30
0.0000
 42
1.0000
  0
VERTEX
  8
21
 10
6.6185
 20
3.0099
 30
0.0000
  0
SEQEND
  8
0
  0
POLYLINE
  8
21
 66
1
 10
0.0000
 20
0.0000
 30
0.0000
 40
0.0889
 41
0.0889
 70
0
  0
VERTEX
  8
21
 10
6.6185
 20
3.4929
 30
0.0000
 42
1.0000
  0
VERTEX
  8
21
 10
6.5296
 20
3.4929
 30
0.0000
  0
SEQEND
  8
0
  0
POLYLINE
  8
21
 66
1
 10
0.0000
 20
0.0000
 30
0.0000
 40
0.1778
 41
0.1778
 70
0
  0
VERTEX
  8
21
 10
6.5741
 20
3.3319
 30
0.0000
  0
VERTEX
  8
21
 10
6.8961
 20
3.6539
 30
0.0000
  0
SEQEND
  8
0
  0
POLYLINE
  8
21
 66
1
 10
0.0000
 20
0.0000
 30
0.0000
 40
0.0889
 41
0.0889
 70
0
  0
VERTEX
  8
21
 10
6.9275
 20
3.6225
 30
0.0000
 42
1.0000
  0
VERTEX
  8
21
 10
6.8647
 20
3.6853
 30
0.0000
  0
SEQEND
  8
0
  0
POLYLINE
  8
21
 66
1
 10
0.0000
 20
0.0000
 30
0.0000
 40
0.0889
 41
0.0889
 70
0
  0
VERTEX
  8
21
 10
6.5427
 20
3.3633
 30
0.0000
 42
1.0000
  0
VERTEX
  8
21
 10
6.6055
 20
3.3005
 30
0.0000
  0
SEQEND
  8
0
  0
POLYLINE
  8
21
 66
1
 10
0.0000
 20
0.0000
 30
0.0000
 40
0.1778
 41
0.1778
 70
0
  0
VERTEX
  8
21
 10
5.9301
 20
4.0624
 30
0.0000
  0
VERTEX
  8
21
 10
6.8961
 20
4.7064
 30
0.0000
  0
SEQEND
  8
0
  0
POLYLINE
  8
21
 66
1
 10
0.0000
 20
0.0000
 30
0.0000
 40
0.0889
 41
0.0889
 70
0
  0
VERTEX
  8
21
 10
6.9208
 20
4.6694
 30
0.0000
 42
1.0000
  0
VERTEX
  8
21
 10
6.8714
 20
4.7434
 30
0.0000
  0
SEQEND
  8
0
  0
POLYLINE
  8
21
 66
1
 10
0.0000
 20
0.0000
 30
0.0000
 40
0.0889
 41
0.0889
 70
0
  0
VERTEX
  8
21
 10
5.9054
 20
4.0993
 30
0.0000
 42
1.0000
  0
VERTEX
  8
21
 10
5.9547
 20
4.0254
 30
0.0000
  0
SEQEND
  8
0
  0
POLYLINE
  8
21
 66
1
 10
0.0000
 20
0.0000
 30
0.0000
 40
0.1778
 41
0.1778
 70
0
  0
VERTEX
  8
21
 10
5.9301
 20
4.7064
 30
0.0000
  0
VERTEX
  8
21
 10
6.8961
 20
4.0624
 30
0.0000
  0
SEQEND
  8
0
  0
POLYLINE
  8
21
 66
1
 10
0.0000
 20
0.0000
 30
0.0000
 40
0.0889
 41
0.0889
 70
0
  0
VERTEX
  8
21
 10
6.8714
 20
4.0254
 30
0.0000
 42
1.0000
  0
VERTEX
  8
21
 10
6.9208
 20
4.0993
 30
0.0000
  0
SEQEND
  8
0
  0
POLYLINE
  8
21
 66
1
 10
0.0000
 20
0.0000
 30
0.0000
 40
0.0889
 41
0.0889
 70
0
  0
VERTEX
  8
21
 10
5.9547
 20
4.7434
 30
0.0000
 42
1.0000
  0
VERTEX
  8
21
 10
5.9054
 20
4.6694
 30
0.0000
  0
SEQEND
  8
0
  0
POLYLINE
  8
21
 66
1
 10
0.0000
 20
0.0000
 30
0.0000
 40
0.1778
 41
0.1778
 70
0
  0
VERTEX
  8
21
 10
4.3561
 20
3.3319
 30
0.0000
  0
VERTEX
  8
21
 10
3.3901
 20
3.3319
 30
0.0000
  0
SEQEND
  8
0
  0
POLYLINE
  8
21
 66
1
 10
0.0000
 20
0.0000
 30
0.0000
 40
0.0889
 41
0.0889
 70
0
  0
VERTEX
  8
21
 10
3.3901
 20
3.3764
 30
0.0000
 42
1.0000
  0
VERTEX
  8
21
 10
3.3901
 20
3.2875
 30
0.0000
  0
SEQEND
  8
0
  0
POLYLINE
  8
21
 66
1
 10
0.0000
 20
0.0000
 30
0.0000
 40
0.0889
 41
0.0889
 70
0
  0
VERTEX
  8
21
 10
4.3561
 20
3.2875
 30
0.0000
 42
1.0000
  0
VERTEX
  8
21
 10
4.3561
 20
3.3764
 30
0.0000
  0
SEQEND
  8
0
  0
POLYLINE
  8
21
 66
1
 10
0.0000
 20
0.0000
 30
0.0000
 40
0.1778
 41
0.1778
 70
0
  0
VERTEX
  8
21
 10
3.3901
 20
3.0099
 30
0.0000
  0
VERTEX
  8
21
 10
3.3901
 20
3.6539
 30
0.0000
  0
SEQEND
  8
0
  0
POLYLINE
  8
21
 66
1
 10
0.0000
 20
0.0000
 30
0.0000
 40
0.0889
 41
0.0889
 70
0
  0
VERTEX
  8
21
 10
3.4345
 20
3.6539
 30
0.0000
 42
1.0000
  0
VERTEX
  8
21
 10
3.3456
 20
3.6539
 30
0.0000
  0
SEQEND
  8
0
  0
POLYLINE
  8
21
 66
1
 10
0.0000
 20
0.0000
 30
0.0000
 40
0.0889
 41
0.0889
 70
0
  0
VERTEX
  8
21
 10
3.3456
 20
3.0099
 30
0.0000
 42
1.0000
  0
VERTEX
  8
21
 10
3.4345
 20
3.0099
 30
0.0000
  0
SEQEND
  8
0
  0
POLYLINE
  8
21
 66
1
 10
0.0000
 20
0.0000
 30
0.0000
 40
0.1778
 41
0.1778
 70
0
  0
VERTEX
  8
21
 10
3.3901
 20
4.0624
 30
0.0000
  0
VERTEX
  8
21
 10
4.3561
 20
4.7064
 30
0.0000
  0
SEQEND
  8
0
  0
POLYLINE
  8
21
 66
1
 10
0.0000
 20
0.0000
 30
0.0000
 40
0.0889
 41
0.0889
 70
0
  0
VERTEX
  8
21
 10
4.3808
 20
4.6694
 30
0.0000
 42
1.0000
  0
VERTEX
  8
21
 10
4.3314
 20
4.7434
 30
0.0000
  0
SEQEND
  8
0
  0
POLYLINE
  8
21
 66
1
 10
0.0000
 20
0.0000
 30
0.0000
 40
0.0889
 41
0.0889
 70
0
  0
VERTEX
  8
21
 10
3.3654
 20
4.0993
 30
0.0000
 42
1.0000
  0
VERTEX
  8
21
 10
3.4147
 20
4.0254
 30
0.0000
  0
SEQEND
  8
0
  0
POLYLINE
  8
21
 66
1
 10
0.0000
 20
0.0000
 30
0.0000
 40
0.1778
 41
0.1778
 70
0
  0
VERTEX
  8
21
 10
3.3901
 20
4.7064
 30
0.0000
  0
VERTEX
  8
21
 10
4.3561
 20
4.0624
 30
0.0000
  0
SEQEND
  8
0
  0
POLYLINE
  8
21
 66
1
 10
0.0000
 20
0.0000
 30
0.0000
 40
0.0889
 41
0.0889
 70
0
  0
VERTEX
  8
21
 10
4.3314
 20
4.0254
 30
0.0000
 42
1.0000
  0
VERTEX
  8
21
 10
4.3808
 20
4.0993
 30
0.0000
  0
SEQEND
  8
0
  0
POLYLINE
  8
21
 66
1
 10
0.0000
 20
0.0000
 30
0.0000
 40
0.0889
 41
0.0889
 70
0
  0
VERTEX
  8
21
 10
3.4147
 20
4.7434
 30
0.0000
 42
1.0000
  0
VERTEX
  8
21
 10
3.3654
 20
4.6694
 30
0.0000
  0
SEQEND
  8
0
  0
POLYLINE
  8
21
 66
1
 10
0.0000
 20
0.0000
 30
0.0000
 40
0.1778
 41
0.1778
 70
0
  0
VERTEX
  8
21
 10
0.8501
 20
3.0099
 30
0.0000
  0
VERTEX
  8
21
 10
1.4941
 20
3.0099
 30
0.0000
  0
SEQEND
  8
0
  0
POLYLINE
  8
21
 66
1
 10
0.0000
 20
0.0000
 30
0.0000
 40
0.0889
 41
0.0889
 70
0
  0
VERTEX
  8
21
 10
1.4941
 20
2.9655
 30
0.0000
 42
1.0000
  0
VERTEX
  8
21
 10
1.4941
 20
3.0543
 30
0.0000
  0
SEQEND
  8
0
  0
POLYLINE
  8
21
 66
1
 10
0.0000
 20
0.0000
 30
0.0000
 40
0.0889
 41
0.0889
 70
0
  0
VERTEX
  8
21
 10
0.8501
 20
3.0543
 30
0.0000
 42
1.0000
  0
VERTEX
  8
21
 10
0.8501
 20
2.9655
 30
0.0000
  0
SEQEND
  8
0
  0
POLYLINE
  8
21
 66
1
 10
0.0000
 20
0.0000
 30
0.0000
 40
0.1778
 41
0.1778
 70
0
  0
VERTEX
  8
21
 10
1.4941
 20
3.0099
 30
0.0000
  0
VERTEX
  8
21
 10
1.8161
 20
3.3319
 30
0.0000
  0
SEQEND
  8
0
  0
POLYLINE
  8
21
 66
1
 10
0.0000
 20
0.0000
 30
0.0000
 40
0.0889
 41
0.0889
 70
0
  0
VERTEX
  8
21
 10
1.8475
 20
3.3005
 30
0.0000
 42
1.0000
  0
VERTEX
  8
21
 10
1.7847
 20
3.3633
 30
0.0000
  0
SEQEND
  8
0
  0
POLYLINE
  8
21
 66
1
 10
0.0000
 20
0.0000
 30
0.0000
 40
0.0889
 41
0.0889
 70
0
  0
VERTEX
  8
21
 10
1.4627
 20
3.0413
 30
0.0000
 42
1.0000
  0
VERTEX
  8
21
 10
1.5255
 20
2.9785
 30
0.0000
  0
SEQEND
  8
0
  0
POLYLINE
  8
21
 66
1
 10
0.0000
 20
0.0000
 30
0.0000
 40
0.1778
 41
0.1778
 70
0
  0
VERTEX
  8
21
 10
1.8161
 20
3.3319
 30
0.0000
  0
VERTEX
  8
21
 10
1.4941
 20
3.6539
 30
0.0000
  0
SEQEND
  8
0
  0
POLYLINE
  8
21
 66
1
 10
0.0000
 20
0.0000
 30
0.0000
 40
0.0889
 41
0.0889
 70
0
  0
VERTEX
  8
21
 10
1.5255
 20
3.6853
 30
0.0000
 42
1.0000
  0
VERTEX
  8
21
 10
1.4627
 20
3.6225
 30
0.0000
  0
SEQEND
  8
0
  0
POLYLINE
  8
21
 66
1
 10
0.0000
 20
0.0000
 30
0.0000
 40
0.0889
 41
0.0889
 70
0
  0
VERTEX
  8
21
 10
1.7847
 20
3.3005
 30
0.0000
 42
1.0000
  0
VERTEX
  8
21
 10
1.8475
 20
3.3633
 30
0.0000
  0
SEQEND
  8
0
  0
POLYLINE
  8
21
 66
1
 10
0.0000
 20
0.0000
 30
0.0000
 40
0.1778
 41
0.1778
 70
0
  0
VERTEX
  8
21
 10
1.4941
 20
3.6539
 30
0.0000
  0
VERTEX
  8
21
 10
0.8501
 20
3.6539
 30
0.0000
  0
SEQEND
  8
0
  0
POLYLINE
  8
21
 66
1
 10
0.0000
 20
0.0000
 30
0.0000
 40
0.0889
 41
0.0889
 70
0
  0
VERTEX
  8
21
 10
0.8501
 20
3.6984
 30
0.0000
 42
1.0000
  0
VERTEX
  8
21
 10
0.8501
 20
3.6095
 30
0.0000
  0
SEQEND
  8
0
  0
POLYLINE
  8
21
 66
1
 10
0.0000
 20
0.0000
 30
0.0000
 40
0.0889
 41
0.0889
 70
0
  0
VERTEX
  8
21
 10
1.4941
 20
3.6095
 30
0.0000
 42
1.0000
  0
VERTEX
  8
21
 10
1.4941
 20
3.6984
 30
0.0000
  0
SEQEND
  8
0
  0
POLYLINE
  8
21
 66
1
 10
0.0000
 20
0.0000
 30
0.0000
 40
0.1778
 41
0.1778
 70
0
  0
VERTEX
  8
21
 10
1.0111
 20
4.7064
 30
0.0000
  0
VERTEX
  8
21
 10
0.8501
 20
4.5454
 30
0.0000
  0
SEQEND
  8
0
  0
POLYLINE
  8
21
 66
1
 10
0.0000
 20
0.0000
 30
0.0000
 40
0.0889
 41
0.0889
 70
0
  0
VERTEX
  8
21
 10
0.8186
 20
4.5768
 30
0.0000
 42
1.0000
  0
VERTEX
  8
21
 10
0.8815
 20
4.5139
 30
0.0000
  0
SEQEND
  8
0
  0
POLYLINE
  8
21
 66
1
 10
0.0000
 20
0.0000
 30
0.0000
 40
0.0889
 41
0.0889
 70
0
  0
VERTEX
  8
21
 10
1.0425
 20
4.6749
 30
0.0000
 42
1.0000
  0
VERTEX
  8
21
 10
0.9797
 20
4.7378
 30
0.0000
  0
SEQEND
  8
0
  0
POLYLINE
  8
21
 66
1
 10
0.0000
 20
0.0000
 30
0.0000
 40
0.1778
 41
0.1778
 70
0
  0
VERTEX
  8
21
 10
0.8501
 20
4.5454
 30
0.0000
  0
VERTEX
  8
21
 10
0.8501
 20
4.2234
 30
0.0000
  0
SEQEND
  8
0
  0
POLYLINE
  8
21
 66
1
 10
0.0000
 20
0.0000
 30
0.0000
 40
0.0889
 41
0.0889
 70
0
  0
VERTEX
  8
21
 10
0.8056
 20
4.2234
 30
0.0000
 42
1.0000
  0
VERTEX
  8
21
 10
0.8945
 20
4.2234
 30
0.0000
  0
SEQEND
  8
0
  0
POLYLINE
  8
21
 66
1
 10
0.0000
 20
0.0000
 30
0.0000
 40
0.0889
 41
0.0889
 70
0
  0
VERTEX
  8
21
 10
0.8945
 20
4.5454
 30
0.0000
 42
1.0000
  0
VERTEX
  8
21
 10
0.8056
 20
4.5454
 30
0.0000
  0
SEQEND
  8
0
  0
POLYLINE
  8
21
 66
1
 10
0.0000
 20
0.0000
 30
0.0000
 40
0.1778
 41
0.1778
 70
0
  0
VERTEX
  8
21
 10
0.8501
 20
4.2234
 30
0.0000
  0
VERTEX
  8
21
 10
1.0111
 20
4.0624
 30
0.0000
  0
SEQEND
  8
0
  0
POLYLINE
  8
21
 66
1
 10
0.0000
 20
0.0000
 30
0.0000
 40
0.0889
 41
0.0889
 70
0
  0
VERTEX
  8
21
 10
0.9797
 20
4.0309
 30
0.0000
 42
1.0000
  0
VERTEX
  8
21
 10
1.0425
 20
4.0938
 30
0.0000
  0
SEQEND
  8
0
  0
POLYLINE
  8
21
 66
1
 10
0.0000
 20
0.0000
 30
0.0000
 40
0.0889
 41
0.0889
 70
0
  0
VERTEX
  8
21
 10
0.8815
 20
4.2548
 30
0.0000
 42
1.0000
  0
VERTEX
  8
21
 10
0.8186
 20
4.1919
 30
0.0000
  0
SEQEND
  8
0
  0
POLYLINE
  8
21
 66
1
 10
0.0000
 20
0.0000
 30
0.0000
 40
0.1778
 41
0.1778
 70
0
  0
VERTEX
  8
21
 10
1.0111
 20
4.0624
 30
0.0000
  0
VERTEX
  8
21
 10
1.1721
 20
4.0624
 30
0.0000
  0
SEQEND
  8
0
  0
POLYLINE
  8
21
 66
1
 10
0.0000
 20
0.0000
 30
0.0000
 40
0.0889
 41
0.0889
 70
0
  0
VERTEX
  8
21
 10
1.1721
 20
4.0179
 30
0.0000
 42
1.0000
  0
VERTEX
  8
21
 10
1.1721
 20
4.1068
 30
0.0000
  0
SEQEND
  8
0
  0
POLYLINE
  8
21
 66
1
 10
0.0000
 20
0.0000
 30
0.0000
 40
0.0889
 41
0.0889
 70
0
  0
VERTEX
  8
21
 10
1.0111
 20
4.1068
 30
0.0000
 42
1.0000
  0
VERTEX
  8
21
 10
1.0111
 20
4.0179
 30
0.0000
  0
SEQEND
  8
0
  0
POLYLINE
  8
21
 66
1
 10
0.0000
 20
0.0000
 30
0.0000
 40
0.1778
 41
0.1778
 70
0
  0
VERTEX
  8
21
 10
1.1721
 20
4.0624
 30
0.0000
  0
VERTEX
  8
21
 10
1.3331
 20
4.2234
 30
0.0000
  0
SEQEND
  8
0
  0
POLYLINE
  8
21
 66
1
 10
0.0000
 20
0.0000
 30
0.0000
 40
0.0889
 41
0.0889
 70
0
  0
VERTEX
  8
21
 10
1.3645
 20
4.1919
 30
0.0000
 42
1.0000
  0
VERTEX
  8
21
 10
1.3017
 20
4.2548
 30
0.0000
  0
SEQEND
  8
0
  0
POLYLINE
  8
21
 66
1
 10
0.0000
 20
0.0000
 30
0.0000
 40
0.0889
 41
0.0889
 70
0
  0
VERTEX
  8
21
 10
1.1407
 20
4.0938
 30
0.0000
 42
1.0000
  0
VERTEX
  8
21
 10
1.2035
 20
4.0309
 30
0.0000
  0
SEQEND
  8
0
  0
POLYLINE
  8
21
 66
1
 10
0.0000
 20
0.0000
 30
0.0000
 40
0.1778
 41
0.1778
 70
0
  0
VERTEX
  8
21
 10
1.3331
 20
4.2234
 30
0.0000
  0
VERTEX
  8
21
 10
1.3331
 20
4.5454
 30
0.0000
  0
SEQEND
  8
0
  0
POLYLINE
  8
21
 66
1
 10
0.0000
 20
0.0000
 30
0.0000
 40
0.0889
 41
0.0889
 70
0
  0
VERTEX
  8
21
 10
1.3775
 20
4.5454
 30
0.0000
 42
1.0000
  0
VERTEX
  8
21
 10
1.2886
 20
4.5454
 30
0.0000
  0
SEQEND
  8
0
  0
POLYLINE
  8
21
 66
1
 10
0.0000
 20
0.0000
 30
0.0000
 40
0.0889
 41
0.0889
 70
0
  0
VERTEX
  8
21
 10
1.2886
 20
4.2234
 30
0.0000
 42
1.0000
  0
VERTEX
  8
21
 10
1.3775
 20
4.2234
 30
0.0000
  0
SEQEND
  8
0
  0
POLYLINE
  8
21
 66
1
 10
0.0000
 20
0.0000
 30
0.0000
 40
0.1778
 41
0.1778
 70
0
  0
VERTEX
  8
21
 10
1.3331
 20
4.5454
 30
0.0000
  0
VERTEX
  8
21
 10
1.4941
 20
4.7064
 30
0.0000
  0
SEQEND
  8
0
  0
POLYLINE
  8
21
 66
1
 10
0.0000
 20
0.0000
 30
0.0000
 40
0.0889
 41
0.0889
 70
0
  0
VERTEX
  8
21
 10
1.5255
 20
4.6749
 30
0.0000
 42
1.0000
  0
VERTEX
  8
21
 10
1.4627
 20
4.7378
 30
0.0000
  0
SEQEND
  8
0
  0
POLYLINE
  8
21
 66
1
 10
0.0000
 20
0.0000
 30
0.0000
 40
0.0889
 41
0.0889
 70
0
  0
VERTEX
  8
21
 10
1.3017
 20
4.5768
 30
0.0000
 42
1.0000
  0
VERTEX
  8
21
 10
1.3645
 20
4.5139
 30
0.0000
  0
SEQEND
  8
0
  0
POLYLINE
  8
21
 66
1
 10
0.0000
 20
0.0000
 30
0.0000
 40
0.1778
 41
0.1778
 70
0
  0
VERTEX
  8
21
 10
1.4941
 20
4.7064
 30
0.0000
  0
VERTEX
  8
21
 10
1.6551
 20
4.7064
 30
0.0000
  0
SEQEND
  8
0
  0
POLYLINE
  8
21
 66
1
 10
0.0000
 20
0.0000
 30
0.0000
 40
0.0889
 41
0.0889
 70
0
  0
VERTEX
  8
21
 10
1.6551
 20
4.6619
 30
0.0000
 42
1.0000
  0
VERTEX
  8
21
 10
1.6551
 20
4.7508
 30
0.0000
  0
SEQEND
  8
0
  0
POLYLINE
  8
21
 66
1
 10
0.0000
 20
0.0000
 30
0.0000
 40
0.0889
 41
0.0889
 70
0
  0
VERTEX
  8
21
 10
1.4941
 20
4.7508
 30
0.0000
 42
1.0000
  0
VERTEX
  8
21
 10
1.4941
 20
4.6619
 30
0.0000
  0
SEQEND
  8
0
  0
POLYLINE
  8
21
 66
1
 10
0.0000
 20
0.0000
 30
0.0000
 40
0.1778
 41
0.1778
 70
0
  0
VERTEX
  8
21
 10
1.6551
 20
4.7064
 30
0.0000
  0
VERTEX
  8
21
 10
1.8161
 20
4.5454
 30
0.0000
  0
SEQEND
  8
0
  0
POLYLINE
  8
21
 66
1
 10
0.0000
 20
0.0000
 30
0.0000
 40
0.0889
 41
0.0889
 70
0
  0
VERTEX
  8
21
 10
1.7847
 20
4.5139
 30
0.0000
 42
1.0000
  0
VERTEX
  8
21
 10
1.8475
 20
4.5768
 30
0.0000
  0
SEQEND
  8
0
  0
POLYLINE
  8
21
 66
1
 10
0.0000
 20
0.0000
 30
0.0000
 40
0.0889
 41
0.0889
 70
0
  0
VERTEX
  8
21
 10
1.6865
 20
4.7378
 30
0.0000
 42
1.0000
  0
VERTEX
  8
21
 10
1.6237
 20
4.6749
 30
0.0000
  0
SEQEND
  8
0
  0
POLYLINE
  8
21
 66
1
 10
0.0000
 20
0.0000
 30
0.0000
 40
0.1778
 41
0.1778
 70
0
  0
VERTEX
  8
21
 10
1.8161
 20
4.5454
 30
0.0000
  0
VERTEX
  8
21
 10
1.8161
 20
4.2234
 30
0.0000
  0
SEQEND
  8
0
  0
POLYLINE
  8
21
 66
1
 10
0.0000
 20
0.0000
 30
0.0000
 40
0.0889
 41
0.0889
 70
0
  0
VERTEX
  8
21
 10
1.7716
 20
4.2234
 30
0.0000
 42
1.0000
  0
VERTEX
  8
21
 10
1.8606
 20
4.2234
 30
0.0000
  0
SEQEND
  8
0
  0
POLYLINE
  8
21
 66
1
 10
0.0000
 20
0.0000
 30
0.0000
 40
0.0889
 41
0.0889
 70
0
  0
VERTEX
  8
21
 10
1.8606
 20
4.5454
 30
0.0000
 42
1.0000
  0
VERTEX
  8
21
 10
1.7716
 20
4.5454
 30
0.0000
  0
SEQEND
  8
0
  0
POLYLINE
  8
21
 66
1
 10
0.0000
 20
0.0000
 30
0.0000
 40
0.1778
 41
0.1778
 70
0
  0
VERTEX
  8
21
 10
1.8161
 20
4.2234
 30
0.0000
  0
VERTEX
  8
21
 10
1.6551
 20
4.0624
 30
0.0000
  0
SEQEND
  8
0
  0
POLYLINE
  8
21
 66
1
 10
0.0000
 20
0.0000
 30
0.0000
 40
0.0889
 41
0.0889
 70
0
  0
VERTEX
  8
21
 10
1.6237
 20
4.0938
 30
0.0000
 42
1.0000
  0
VERTEX
  8
21
 10
1.6865
 20
4.0309
 30
0.0000
  0
SEQEND
  8
0
  0
POLYLINE
  8
21
 66
1
 10
0.0000
 20
0.0000
 30
0.0000
 40
0.0889
 41
0.0889
 70
0
  0
VERTEX
  8
21
 10
1.8475
 20
4.1919
 30
0.0000
 42
1.0000
  0
VERTEX
  8
21
 10
1.7847
 20
4.2548
 30
0.0000
  0
SEQEND
  8
0
  0
POLYLINE
  8
21
 66
1
 10
0.0000
 20
0.0000
 30
0.0000
 40
0.1778
 41
0.1778
 70
0
  0
VERTEX
  8
21
 10
1.8161
 20
5.4368
 30
0.0000
  0
VERTEX
  8
21
 10
0.8501
 20
5.4368
 30
0.0000
  0
SEQEND
  8
0
  0
POLYLINE
  8
21
 66
1
 10
0.0000
 20
0.0000
 30
0.0000
 40
0.0889
 41
0.0889
 70
0
  0
VERTEX
  8
21
 10
0.8501
 20
5.4813
 30
0.0000
 42
1.0000
  0
VERTEX
  8
21
 10
0.8501
 20
5.3924
 30
0.0000
  0
SEQEND
  8
0
  0
POLYLINE
  8
21
 66
1
 10
0.0000
 20
0.0000
 30
0.0000
 40
0.0889
 41
0.0889
 70
0
  0
VERTEX
  8
21
 10
1.8161
 20
5.3924
 30
0.0000
 42
1.0000
  0
VERTEX
  8
21
 10
1.8161
 20
5.4813
 30
0.0000
  0
SEQEND
  8
0
  0
POLYLINE
  8
21
 66
1
 10
0.0000
 20
0.0000
 30
0.0000
 40
0.1778
 41
0.1778
 70
0
  0
VERTEX
  8
21
 10
0.8501
 20
5.1148
 30
0.0000
  0
VERTEX
  8
21
 10
0.8501
 20
5.7588
 30
0.0000
  0
SEQEND
  8
0
  0
POLYLINE
  8
21
 66
1
 10
0.0000
 20
0.0000
 30
0.0000
 40
0.0889
 41
0.0889
 70
0
  0
VERTEX
  8
21
 10
0.8945
 20
5.7588
 30
0.0000
 42
1.0000
  0
VERTEX
  8
21
 10
0.8056
 20
5.7588
 30
0.0000
  0
SEQEND
  8
0
  0
POLYLINE
  8
21
 66
1
 10
0.0000
 20
0.0000
 30
0.0000
 40
0.0889
 41
0.0889
 70
0
  0
VERTEX
  8
21
 10
0.8056
 20
5.1148
 30
0.0000
 42
1.0000
  0
VERTEX
  8
21
 10
0.8945
 20
5.1148
 30
0.0000
  0
SEQEND
  8
0
  0
POLYLINE
  8
21
 66
1
 10
0.0000
 20
0.0000
 30
0.0000
 40
0.1778
 41
0.1778
 70
0
  0
VERTEX
  8
21
 10
11.0101
 20
3.6539
 30
0.0000
  0
VERTEX
  8
21
 10
11.0101
 20
3.0099
 30
0.0000
  0
SEQEND
  8
0
  0
POLYLINE
  8
21
 66
1
 10
0.0000
 20
0.0000
 30
0.0000
 40
0.0889
 41
0.0889
 70
0
  0
VERTEX
  8
21
 10
10.9656
 20
3.0099
 30
0.0000
 42
1.0000
  0
VERTEX
  8
21
 10
11.0545
 20
3.0099
 30
0.0000
  0
SEQEND
  8
0
  0
POLYLINE
  8
21
 66
1
 10
0.0000
 20
0.0000
 30
0.0000
 40
0.0889
 41
0.0889
 70
0
  0
VERTEX
  8
21
 10
11.0545
 20
3.6539
 30
0.0000
 42
1.0000
  0
VERTEX
  8
21
 10
10.9656
 20
3.6539
 30
0.0000
  0
SEQEND
  8
0
  0
POLYLINE
  8
21
 66
1
 10
0.0000
 20
0.0000
 30
0.0000
 40
0.1778
 41
0.1778
 70
0
  0
VERTEX
  8
21
 10
11.0101
 20
3.0099
 30
0.0000
  0
VERTEX
  8
21
 10
11.9761
 20
3.0099
 30
0.0000
  0
SEQEND
  8
0
  0
POLYLINE
  8
21
 66
1
 10
0.0000
 20
0.0000
 30
0.0000
 40
0.0889
 41
0.0889
 70
0
  0
VERTEX
  8
21
 10
11.9761
 20
2.9655
 30
0.0000
 42
1.0000
  0
VERTEX
  8
21
 10
11.9761
 20
3.0543
 30
0.0000
  0
SEQEND
  8
0
  0
POLYLINE
  8
21
 66
1
 10
0.0000
 20
0.0000
 30
0.0000
 40
0.0889
 41
0.0889
 70
0
  0
VERTEX
  8
21
 10
11.0101
 20
3.0543
 30
0.0000
 42
1.0000
  0
VERTEX
  8
21
 10
11.0101
 20
2.9655
 30
0.0000
  0
SEQEND
  8
0
  0
POLYLINE
  8
21
 66
1
 10
0.0000
 20
0.0000
 30
0.0000
 40
0.1778
 41
0.1778
 70
0
  0
VERTEX
  8
21
 10
11.9761
 20
3.0099
 30
0.0000
  0
VERTEX
  8
21
 10
11.9761
 20
3.6539
 30
0.0000
  0
SEQEND
  8
0
  0
POLYLINE
  8
21
 66
1
 10
0.0000
 20
0.0000
 30
0.0000
 40
0.0889
 41
0.0889
 70
0
  0
VERTEX
  8
21
 10
12.0206
 20
3.6539
 30
0.0000
 42
1.0000
  0
VERTEX
  8
21
 10
11.9317
 20
3.6539
 30
0.0000
  0
SEQEND
  8
0
  0
POLYLINE
  8
21
 66
1
 10
0.0000
 20
0.0000
 30
0.0000
 40
0.0889
 41
0.0889
 70
0
  0
VERTEX
  8
21
 10
11.9317
 20
3.0099
 30
0.0000
 42
1.0000
  0
VERTEX
  8
21
 10
12.0206
 20
3.0099
 30
0.0000
  0
SEQEND
  8
0
  0
POLYLINE
  8
21
 66
1
 10
0.0000
 20
0.0000
 30
0.0000
 40
0.1778
 41
0.1778
 70
0
  0
VERTEX
  8
21
 10
11.4931
 20
3.0099
 30
0.0000
  0
VERTEX
  8
21
 10
11.4931
 20
3.3319
 30
0.0000
  0
SEQEND
  8
0
  0
POLYLINE
  8
21
 66
1
 10
0.0000
 20
0.0000
 30
0.0000
 40
0.0889
 41
0.0889
 70
0
  0
VERTEX
  8
21
 10
11.5375
 20
3.3319
 30
0.0000
 42
1.0000
  0
VERTEX
  8
21
 10
11.4486
 20
3.3319
 30
0.0000
  0
SEQEND
  8
0
  0
POLYLINE
  8
21
 66
1
 10
0.0000
 20
0.0000
 30
0.0000
 40
0.0889
 41
0.0889
 70
0
  0
VERTEX
  8
21
 10
11.4486
 20
3.0099
 30
0.0000
 42
1.0000
  0
VERTEX
  8
21
 10
11.5375
 20
3.0099
 30
0.0000
  0
SEQEND
  8
0
  0
POLYLINE
  8
21
 66
1
 10
0.0000
 20
0.0000
 30
0.0000
 40
0.1778
 41
0.1778
 70
0
  0
VERTEX
  8
21
 10
11.9761
 20
4.0624
 30
0.0000
  0
VERTEX
  8
21
 10
11.0101
 20
4.0624
 30
0.0000
  0
SEQEND
  8
0
  0
POLYLINE
  8
21
 66
1
 10
0.0000
 20
0.0000
 30
0.0000
 40
0.0889
 41
0.0889
 70
0
  0
VERTEX
  8
21
 10
11.0101
 20
4.1068
 30
0.0000
 42
1.0000
  0
VERTEX
  8
21
 10
11.0101
 20
4.0179
 30
0.0000
  0
SEQEND
  8
0
  0
POLYLINE
  8
21
 66
1
 10
0.0000
 20
0.0000
 30
0.0000
 40
0.0889
 41
0.0889
 70
0
  0
VERTEX
  8
21
 10
11.9761
 20
4.0179
 30
0.0000
 42
1.0000
  0
VERTEX
  8
21
 10
11.9761
 20
4.1068
 30
0.0000
  0
SEQEND
  8
0
  0
POLYLINE
  8
21
 66
1
 10
0.0000
 20
0.0000
 30
0.0000
 40
0.1778
 41
0.1778
 70
0
  0
VERTEX
  8
21
 10
11.0101
 20
4.0624
 30
0.0000
  0
VERTEX
  8
21
 10
11.9761
 20
4.7064
 30
0.0000
  0
SEQEND
  8
0
  0
POLYLINE
  8
21
 66
1
 10
0.0000
 20
0.0000
 30
0.0000
 40
0.0889
 41
0.0889
 70
0
  0
VERTEX
  8
21
 10
12.0008
 20
4.6694
 30
0.0000
 42
1.0000
  0
VERTEX
  8
21
 10
11.9514
 20
4.7434
 30
0.0000
  0
SEQEND
  8
0
  0
POLYLINE
  8
21
 66
1
 10
0.0000
 20
0.0000
 30
0.0000
 40
0.0889
 41
0.0889
 70
0
  0
VERTEX
  8
21
 10
10.9854
 20
4.0993
 30
0.0000
 42
1.0000
  0
VERTEX
  8
21
 10
11.0347
 20
4.0254
 30
0.0000
  0
SEQEND
  8
0
  0
POLYLINE
  8
21
 66
1
 10
0.0000
 20
0.0000
 30
0.0000
 40
0.1778
 41
0.1778
 70
0
  0
VERTEX
  8
21
 10
11.9761
 20
4.7064
 30
0.0000
  0
VERTEX
  8
21
 10
11.0101
 20
4.7064
 30
0.0000
  0
SEQEND
  8
0
  0
POLYLINE
  8
21
 66
1
 10
0.0000
 20
0.0000
 30
0.0000
 40
0.0889
 41
0.0889
 70
0
  0
VERTEX
  8
21
 10
11.0101
 20
4.7508
 30
0.0000
 42
1.0000
  0
VERTEX
  8
21
 10
11.0101
 20
4.6619
 30
0.0000
  0
SEQEND
  8
0
  0
POLYLINE
  8
21
 66
1
 10
0.0000
 20
0.0000
 30
0.0000
 40
0.0889
 41
0.0889
 70
0
  0
VERTEX
  8
21
 10
11.9761
 20
4.6619
 30
0.0000
 42
1.0000
  0
VERTEX
  8
21
 10
11.9761
 20
4.7508
 30
0.0000
  0
SEQEND
  8
0
  0
POLYLINE
  8
21
 66
1
 10
0.0000
 20
0.0000
 30
0.0000
 40
0.1778
 41
0.1778
 70
0
  0
VERTEX
  8
21
 10
8.4701
 20
3.0099
 30
0.0000
  0
VERTEX
  8
21
 10
9.1141
 20
3.0099
 30
0.0000
  0
SEQEND
  8
0
  0
POLYLINE
  8
21
 66
1
 10
0.0000
 20
0.0000
 30
0.0000
 40
0.0889
 41
0.0889
 70
0
  0
VERTEX
  8
21
 10
9.1141
 20
2.9655
 30
0.0000
 42
1.0000
  0
VERTEX
  8
21
 10
9.1141
 20
3.0543
 30
0.0000
  0
SEQEND
  8
0
  0
POLYLINE
  8
21
 66
1
 10
0.0000
 20
0.0000
 30
0.0000
 40
0.0889
 41
0.0889
 70
0
  0
VERTEX
  8
21
 10
8.4701
 20
3.0543
 30
0.0000
 42
1.0000
  0
VERTEX
  8
21
 10
8.4701
 20
2.9655
 30
0.0000
  0
SEQEND
  8
0
  0
POLYLINE
  8
21
 66
1
 10
0.0000
 20
0.0000
 30
0.0000
 40
0.1778
 41
0.1778
 70
0
  0
VERTEX
  8
21
 10
9.1141
 20
3.0099
 30
0.0000
  0
VERTEX
  8
21
 10
9.4361
 20
3.3319
 30
0.0000
  0
SEQEND
  8
0
  0
POLYLINE
  8
21
 66
1
 10
0.0000
 20
0.0000
 30
0.0000
 40
0.0889
 41
0.0889
 70
0
  0
VERTEX
  8
21
 10
9.4675
 20
3.3005
 30
0.0000
 42
1.0000
  0
VERTEX
  8
21
 10
9.4047
 20
3.3633
 30
0.0000
  0
SEQEND
  8
0
  0
POLYLINE
  8
21
 66
1
 10
0.0000
 20
0.0000
 30
0.0000
 40
0.0889
 41
0.0889
 70
0
  0
VERTEX
  8
21
 10
9.0827
 20
3.0413
 30
0.0000
 42
1.0000
  0
VERTEX
  8
21
 10
9.1455
 20
2.9785
 30
0.0000
  0
SEQEND
  8
0
  0
POLYLINE
  8
21
 66
1
 10
0.0000
 20
0.0000
 30
0.0000
 40
0.1778
 41
0.1778
 70
0
  0
VERTEX
  8
21
 10
9.4361
 20
3.3319
 30
0.0000
  0
VERTEX
  8
21
 10
9.1141
 20
3.6539
 30
0.0000
  0
SEQEND
  8
0
  0
POLYLINE
  8
21
 66
1
 10
0.0000
 20
0.0000
 30
0.0000
 40
0.0889
 41
0.0889
 70
0
  0
VERTEX
  8
21
 10
9.1455
 20
3.6853
 30
0.0000
 42
1.0000
  0
VERTEX
  8
21
 10
9.0827
 20
3.6225
 30
0.0000
  0
SEQEND
  8
0
  0
POLYLINE
  8
21
 66
1
 10
0.0000
 20
0.0000
 30
0.0000
 40
0.0889
 41
0.0889
 70
0
  0
VERTEX
  8
21
 10
9.4047
 20
3.3005
 30
0.0000
 42
1.0000
  0
VERTEX
  8
21
 10
9.4675
 20
3.3633
 30
0.0000
  0
SEQEND
  8
0
  0
POLYLINE
  8
21
 66
1
 10
0.0000
 20
0.0000
 30
0.0000
 40
0.1778
 41
0.1778
 70
0
  0
VERTEX
  8
21
 10
9.1141
 20
3.6539
 30
0.0000
  0
VERTEX
  8
21
 10
8.4701
 20
3.6539
 30
0.0000
  0
SEQEND
  8
0
  0
POLYLINE
  8
21
 66
1
 10
0.0000
 20
0.0000
 30
0.0000
 40
0.0889
 41
0.0889
 70
0
  0
VERTEX
  8
21
 10
8.4701
 20
3.6984
 30
0.0000
 42
1.0000
  0
VERTEX
  8
21
 10
8.4701
 20
3.6095
 30
0.0000
  0
SEQEND
  8
0
  0
POLYLINE
  8
21
 66
1
 10
0.0000
 20
0.0000
 30
0.0000
 40
0.0889
 41
0.0889
 70
0
  0
VERTEX
  8
21
 10
9.1141
 20
3.6095
 30
0.0000
 42
1.0000
  0
VERTEX
  8
21
 10
9.1141
 20
3.6984
 30
0.0000
  0
SEQEND
  8
0
  0
POLYLINE
  8
21
 66
1
 10
0.0000
 20
0.0000
 30
0.0000
 40
0.1778
 41
0.1778
 70
0
  0
VERTEX
  8
21
 10
8.6311
 20
4.7064
 30
0.0000
  0
VERTEX
  8
21
 10
8.4701
 20
4.5454
 30
0.0000
  0
SEQEND
  8
0
  0
POLYLINE
  8
21
 66
1
 10
0.0000
 20
0.0000
 30
0.0000
 40
0.0889
 41
0.0889
 70
0
  0
VERTEX
  8
21
 10
8.4386
 20
4.5768
 30
0.0000
 42
1.0000
  0
VERTEX
  8
21
 10
8.5015
 20
4.5139
 30
0.0000
  0
SEQEND
  8
0
  0
POLYLINE
  8
21
 66
1
 10
0.0000
 20
0.0000
 30
0.0000
 40
0.0889
 41
0.0889
 70
0
  0
VERTEX
  8
21
 10
8.6625
 20
4.6749
 30
0.0000
 42
1.0000
  0
VERTEX
  8
21
 10
8.5997
 20
4.7378
 30
0.0000
  0
SEQEND
  8
0
  0
POLYLINE
  8
21
 66
1
 10
0.0000
 20
0.0000
 30
0.0000
 40
0.1778
 41
0.1778
 70
0
  0
VERTEX
  8
21
 10
8.4701
 20
4.5454
 30
0.0000
  0
VERTEX
  8
21
 10
8.4701
 20
4.2234
 30
0.0000
  0
SEQEND
  8
0
  0
POLYLINE
  8
21
 66
1
 10
0.0000
 20
0.0000
 30
0.0000
 40
0.0889
 41
0.0889
 70
0
  0
VERTEX
  8
21
 10
8.4256
 20
4.2234
 30
0.0000
 42
1.0000
  0
VERTEX
  8
21
 10
8.5145
 20
4.2234
 30
0.0000
  0
SEQEND
  8
0
  0
POLYLINE
  8
21
 66
1
 10
0.0000
 20
0.0000
 30
0.0000
 40
0.0889
 41
0.0889
 70
0
  0
VERTEX
  8
21
 10
8.5145
 20
4.5454
 30
0.0000
 42
1.0000
  0
VERTEX
  8
21
 10
8.4256
 20
4.5454
 30
0.0000
  0
SEQEND
  8
0
  0
POLYLINE
  8
21
 66
1
 10
0.0000
 20
0.0000
 30
0.0000
 40
0.1778
 41
0.1778
 70
0
  0
VERTEX
  8
21
 10
8.4701
 20
4.2234
 30
0.0000
  0
VERTEX
  8
21
 10
8.6311
 20
4.0624
 30
0.0000
  0
SEQEND
  8
0
  0
POLYLINE
  8
21
 66
1
 10
0.0000
 20
0.0000
 30
0.0000
 40
0.0889
 41
0.0889
 70
0
  0
VERTEX
  8
21
 10
8.5997
 20
4.0309
 30
0.0000
 42
1.0000
  0
VERTEX
  8
21
 10
8.6625
 20
4.0938
 30
0.0000
  0
SEQEND
  8
0
  0
POLYLINE
  8
21
 66
1
 10
0.0000
 20
0.0000
 30
0.0000
 40
0.0889
 41
0.0889
 70
0
  0
VERTEX
  8
21
 10
8.5015
 20
4.2548
 30
0.0000
 42
1.0000
  0
VERTEX
  8
21
 10
8.4386
 20
4.1919
 30
0.0000
  0
SEQEND
  8
0
  0
POLYLINE
  8
21
 66
1
 10
0.0000
 20
0.0000
 30
0.0000
 40
0.1778
 41
0.1778
 70
0
  0
VERTEX
  8
21
 10
8.6311
 20
4.0624
 30
0.0000
  0
VERTEX
  8
21
 10
9.2751
 20
4.0624
 30
0.0000
  0
SEQEND
  8
0
  0
POLYLINE
  8
21
 66
1
 10
0.0000
 20
0.0000
 30
0.0000
 40
0.0889
 41
0.0889
 70
0
  0
VERTEX
  8
21
 10
9.2751
 20
4.0179
 30
0.0000
 42
1.0000
  0
VERTEX
  8
21
 10
9.2751
 20
4.1068
 30
0.0000
  0
SEQEND
  8
0
  0
POLYLINE
  8
21
 66
1
 10
0.0000
 20
0.0000
 30
0.0000
 40
0.0889
 41
0.0889
 70
0
  0
VERTEX
  8
21
 10
8.6311
 20
4.1068
 30
0.0000
 42
1.0000
  0
VERTEX
  8
21
 10
8.6311
 20
4.0179
 30
0.0000
  0
SEQEND
  8
0
  0
POLYLINE
  8
21
 66
1
 10
0.0000
 20
0.0000
 30
0.0000
 40
0.1778
 41
0.1778
 70
0
  0
VERTEX
  8
21
 10
9.2751
 20
4.0624
 30
0.0000
  0
VERTEX
  8
21
 10
9.4361
 20
4.2234
 30
0.0000
  0
SEQEND
  8
0
  0
POLYLINE
  8
21
 66
1
 10
0.0000
 20
0.0000
 30
0.0000
 40
0.0889
 41
0.0889
 70
0
  0
VERTEX
  8
21
 10
9.4675
 20
4.1919
 30
0.0000
 42
1.0000
  0
VERTEX
  8
21
 10
9.4047
 20
4.2548
 30
0.0000
  0
SEQEND
  8
0
  0
POLYLINE
  8
21
 66
1
 10
0.0000
 20
0.0000
 30
0.0000
 40
0.0889
 41
0.0889
 70
0
  0
VERTEX
  8
21
 10
9.2437
 20
4.0938
 30
0.0000
 42
1.0000
  0
VERTEX
  8
21
 10
9.3065
 20
4.0309
 30
0.0000
  0
SEQEND
  8
0
  0
POLYLINE
  8
21
 66
1
 10
0.0000
 20
0.0000
 30
0.0000
 40
0.1778
 41
0.1778
 70
0
  0
VERTEX
  8
21
 10
9.4361
 20
4.2234
 30
0.0000
  0
VERTEX
  8
21
 10
9.4361
 20
4.5454
 30
0.0000
  0
SEQEND
  8
0
  0
POLYLINE
  8
21
 66
1
 10
0.0000
 20
0.0000
 30
0.0000
 40
0.0889
 41
0.0889
 70
0
  0
VERTEX
  8
21
 10
9.4805
 20
4.5454
 30
0.0000
 42
1.0000
  0
VERTEX
  8
21
 10
9.3917
 20
4.5454
 30
0.0000
  0
SEQEND
  8
0
  0
POLYLINE
  8
21
 66
1
 10
0.0000
 20
0.0000
 30
0.0000
 40
0.0889
 41
0.0889
 70
0
  0
VERTEX
  8
21
 10
9.3917
 20
4.2234
 30
0.0000
 42
1.0000
  0
VERTEX
  8
21
 10
9.4805
 20
4.2234
 30
0.0000
  0
SEQEND
  8
0
  0
POLYLINE
  8
21
 66
1
 10
0.0000
 20
0.0000
 30
0.0000
 40
0.1778
 41
0.1778
 70
0
  0
VERTEX
  8
21
 10
9.4361
 20
4.5454
 30
0.0000
  0
VERTEX
  8
21
 10
9.2751
 20
4.7064
 30
0.0000
  0
SEQEND
  8
0
  0
POLYLINE
  8
21
 66
1
 10
0.0000
 20
0.0000
 30
0.0000
 40
0.0889
 41
0.0889
 70
0
  0
VERTEX
  8
21
 10
9.3065
 20
4.7378
 30
0.0000
 42
1.0000
  0
VERTEX
  8
21
 10
9.2437
 20
4.6749
 30
0.0000
  0
SEQEND
  8
0
  0
POLYLINE
  8
21
 66
1
 10
0.0000
 20
0.0000
 30
0.0000
 40
0.0889
 41
0.0889
 70
0
  0
VERTEX
  8
21
 10
9.4047
 20
4.5139
 30
0.0000
 42
1.0000
  0
VERTEX
  8
21
 10
9.4675
 20
4.5768
 30
0.0000
  0
SEQEND
  8
0
  0
POLYLINE
  8
21
 66
1
 10
0.0000
 20
0.0000
 30
0.0000
 40
0.1778
 41
0.1778
 70
0
  0
VERTEX
  8
21
 10
8.6311
 20
5.7588
 30
0.0000
  0
VERTEX
  8
21
 10
8.4701
 20
5.5978
 30
0.0000
  0
SEQEND
  8
0
  0
POLYLINE
  8
21
 66
1
 10
0.0000
 20
0.0000
 30
0.0000
 40
0.0889
 41
0.0889
 70
0
  0
VERTEX
  8
21
 10
8.4386
 20
5.6293
 30
0.0000
 42
1.0000
  0
VERTEX
  8
21
 10
8.5015
 20
5.5664
 30
0.0000
  0
SEQEND
  8
0
  0
POLYLINE
  8
21
 66
1
 10
0.0000
 20
0.0000
 30
0.0000
 40
0.0889
 41
0.0889
 70
0
  0
VERTEX
  8
21
 10
8.6625
 20
5.7274
 30
0.0000
 42
1.0000
  0
VERTEX
  8
21
 10
8.5997
 20
5.7903
 30
0.0000
  0
SEQEND
  8
0
  0
POLYLINE
  8
21
 66
1
 10
0.0000
 20
0.0000
 30
0.0000
 40
0.1778
 41
0.1778
 70
0
  0
VERTEX
  8
21
 10
8.4701
 20
5.5978
 30
0.0000
  0
VERTEX
  8
21
 10
8.4701
 20
5.2758
 30
0.0000
  0
SEQEND
  8
0
  0
POLYLINE
  8
21
 66
1
 10
0.0000
 20
0.0000
 30
0.0000
 40
0.0889
 41
0.0889
 70
0
  0
VERTEX
  8
21
 10
8.4256
 20
5.2758
 30
0.0000
 42
1.0000
  0
VERTEX
  8
21
 10
8.5145
 20
5.2758
 30
0.0000
  0
SEQEND
  8
0
  0
POLYLINE
  8
21
 66
1
 10
0.0000
 20
0.0000
 30
0.0000
 40
0.0889
 41
0.0889
 70
0
  0
VERTEX
  8
21
 10
8.5145
 20
5.5978
 30
0.0000
 42
1.0000
  0
VERTEX
  8
21
 10
8.4256
 20
5.5978
 30
0.0000
  0
SEQEND
  8
0
  0
POLYLINE
  8
21
 66
1
 10
0.0000
 20
0.0000
 30
0.0000
 40
0.1778
 41
0.1778
 70
0
  0
VERTEX
  8
21
 10
8.4701
 20
5.2758
 30
0.0000
  0
VERTEX
  8
21
 10
8.6311
 20
5.1148
 30
0.0000
  0
SEQEND
  8
0
  0
POLYLINE
  8
21
 66
1
 10
0.0000
 20
0.0000
 30
0.0000
 40
0.0889
 41
0.0889
 70
0
  0
VERTEX
  8
21
 10
8.5997
 20
5.0834
 30
0.0000
 42
1.0000
  0
VERTEX
  8
21
 10
8.6625
 20
5.1462
 30
0.0000
  0
SEQEND
  8
0
  0
POLYLINE
  8
21
 66
1
 10
0.0000
 20
0.0000
 30
0.0000
 40
0.0889
 41
0.0889
 70
0
  0
VERTEX
  8
21
 10
8.5015
 20
5.3073
 30
0.0000
 42
1.0000
  0
VERTEX
  8
21
 10
8.4386
 20
5.2444
 30
0.0000
  0
SEQEND
  8
0
  0
POLYLINE
  8
21
 66
1
 10
0.0000
 20
0.0000
 30
0.0000
 40
0.1778
 41
0.1778
 70
0
  0
VERTEX
  8
21
 10
8.6311
 20
5.1148
 30
0.0000
  0
VERTEX
  8
21
 10
9.2751
 20
5.1148
 30
0.0000
  0
SEQEND
  8
0
  0
POLYLINE
  8
21
 66
1
 10
0.0000
 20
0.0000
 30
0.0000
 40
0.0889
 41
0.0889
 70
0
  0
VERTEX
  8
21
 10
9.2751
 20
5.0704
 30
0.0000
 42
1.0000
  0
VERTEX
  8
21
 10
9.2751
 20
5.1593
 30
0.0000
  0
SEQEND
  8
0
  0
POLYLINE
  8
21
 66
1
 10
0.0000
 20
0.0000
 30
0.0000
 40
0.0889
 41
0.0889
 70
0
  0
VERTEX
  8
21
 10
8.6311
 20
5.1593
 30
0.0000
 42
1.0000
  0
VERTEX
  8
21
 10
8.6311
 20
5.0704
 30
0.0000
  0
SEQEND
  8
0
  0
POLYLINE
  8
21
 66
1
 10
0.0000
 20
0.0000
 30
0.0000
 40
0.1778
 41
0.1778
 70
0
  0
VERTEX
  8
21
 10
9.2751
 20
5.1148
 30
0.0000
  0
VERTEX
  8
21
 10
9.4361
 20
5.2758
 30
0.0000
  0
SEQEND
  8
0
  0
POLYLINE
  8
21
 66
1
 10
0.0000
 20
0.0000
 30
0.0000
 40
0.0889
 41
0.0889
 70
0
  0
VERTEX
  8
21
 10
9.4675
 20
5.2444
 30
0.0000
 42
1.0000
  0
VERTEX
  8
21
 10
9.4047
 20
5.3073
 30
0.0000
  0
SEQEND
  8
0
  0
POLYLINE
  8
21
 66
1
 10
0.0000
 20
0.0000
 30
0.0000
 40
0.0889
 41
0.0889
 70
0
  0
VERTEX
  8
21
 10
9.2437
 20
5.1462
 30
0.0000
 42
1.0000
  0
VERTEX
  8
21
 10
9.3065
 20
5.0834
 30
0.0000
  0
SEQEND
  8
0
  0
POLYLINE
  8
21
 66
1
 10
0.0000
 20
0.0000
 30
0.0000
 40
0.1778
 41
0.1778
 70
0
  0
VERTEX
  8
21
 10
9.4361
 20
5.2758
 30
0.0000
  0
VERTEX
  8
21
 10
9.4361
 20
5.5978
 30
0.0000
  0
SEQEND
  8
0
  0
POLYLINE
  8
21
 66
1
 10
0.0000
 20
0.0000
 30
0.0000
 40
0.0889
 41
0.0889
 70
0
  0
VERTEX
  8
21
 10
9.4805
 20
5.5978
 30
0.0000
 42
1.0000
  0
VERTEX
  8
21
 10
9.3917
 20
5.5978
 30
0.0000
  0
SEQEND
  8
0
  0
POLYLINE
  8
21
 66
1
 10
0.0000
 20
0.0000
 30
0.0000
 40
0.0889
 41
0.0889
 70
0
  0
VERTEX
  8
21
 10
9.3917
 20
5.2758
 30
0.0000
 42
1.0000
  0
VERTEX
  8
21
 10
9.4805
 20
5.2758
 30
0.0000
  0
SEQEND
  8
0
  0
POLYLINE
  8
21
 66
1
 10
0.0000
 20
0.0000
 30
0.0000
 40
0.1778
 41
0.1778
 70
0
  0
VERTEX
  8
21
 10
9.4361
 20
5.5978
 30
0.0000
  0
VERTEX
  8
21
 10
9.2751
 20
5.7588
 30
0.0000
  0
SEQEND
  8
0
  0
POLYLINE
  8
21
 66
1
 10
0.0000
 20
0.0000
 30
0.0000
 40
0.0889
 41
0.0889
 70
0
  0
VERTEX
  8
21
 10
9.3065
 20
5.7903
 30
0.0000
 42
1.0000
  0
VERTEX
  8
21
 10
9.2437
 20
5.7274
 30
0.0000
  0
SEQEND
  8
0
  0
POLYLINE
  8
21
 66
1
 10
0.0000
 20
0.0000
 30
0.0000
 40
0.0889
 41
0.0889
 70
0
  0
VERTEX
  8
21
 10
9.4047
 20
5.5664
 30
0.0000
 42
1.0000
  0
VERTEX
  8
21
 10
9.4675
 20
5.6293
 30
0.0000
  0
SEQEND
  8
0
  0
POLYLINE
  8
22
 66
1
 10
0.0000
 20
0.0000
 30
0.0000
 40
0.1778
 41
0.1778
 70
0
  0
VERTEX
  8
22
 10
14.3559
 20
3.6539
 30
0.0000
  0
VERTEX
  8
22
 10
14.5169
 20
3.4929
 30
0.0000
  0
SEQEND
  8
0
  0
POLYLINE
  8
22
 66
1
 10
0.0000
 20
0.0000
 30
0.0000
 40
0.0889
 41
0.0889
 70
0
  0
VERTEX
  8
22
 10
14.4855
 20
3.4615
 30
0.0000
 42
1.0000
  0
VERTEX
  8
22
 10
14.5484
 20
3.5243
 30
0.0000
  0
SEQEND
  8
0
  0
POLYLINE
  8
22
 66
1
 10
0.0000
 20
0.0000
 30
0.0000
 40
0.0889
 41
0.0889
 70
0
  0
VERTEX
  8
22
 10
14.3873
 20
3.6853
 30
0.0000
 42
1.0000
  0
VERTEX
  8
22
 10
14.3245
 20
3.6225
 30
0.0000
  0
SEQEND
  8
0
  0
POLYLINE
  8
22
 66
1
 10
0.0000
 20
0.0000
 30
0.0000
 40
0.1778
 41
0.1778
 70
0
  0
VERTEX
  8
22
 10
14.5169
 20
3.4929
 30
0.0000
  0
VERTEX
  8
22
 10
14.5169
 20
3.1709
 30
0.0000
  0
SEQEND
  8
0
  0
POLYLINE
  8
22
 66
1
 10
0.0000
 20
0.0000
 30
0.0000
 40
0.0889
 41
0.0889
 70
0
  0
VERTEX
  8
22
 10
14.4725
 20
3.1709
 30
0.0000
 42
1.0000
  0
VERTEX
  8
22
 10
14.5614
 20
3.1709
 30
0.0000
  0
SEQEND
  8
0
  0
POLYLINE
  8
22
 66
1
 10
0.0000
 20
0.0000
 30
0.0000
 40
0.0889
 41
0.0889
 70
0
  0
VERTEX
  8
22
 10
14.5614
 20
3.4929
 30
0.0000
 42
1.0000
  0
VERTEX
  8
22
 10
14.4725
 20
3.4929
 30
0.0000
  0
SEQEND
  8
0
  0
POLYLINE
  8
22
 66
1
 10
0.0000
 20
0.0000
 30
0.0000
 40
0.1778
 41
0.1778
 70
0
  0
VERTEX
  8
22
 10
14.5169
 20
3.1709
 30
0.0000
  0
VERTEX
  8
22
 10
14.3559
 20
3.0099
 30
0.0000
  0
SEQEND
  8
0
  0
POLYLINE
  8
22
 66
1
 10
0.0000
 20
0.0000
 30
0.0000
 40
0.0889
 41
0.0889
 70
0
  0
VERTEX
  8
22
 10
14.3245
 20
3.0413
 30
0.0000
 42
1.0000
  0
VERTEX
  8
22
 10
14.3873
 20
2.9785
 30
0.0000
  0
SEQEND
  8
0
  0
POLYLINE
  8
22
 66
1
 10
0.0000
 20
0.0000
 30
0.0000
 40
0.0889
 41
0.0889
 70
0
  0
VERTEX
  8
22
 10
14.5484
 20
3.1395
 30
0.0000
 42
1.0000
  0
VERTEX
  8
22
 10
14.4855
 20
3.2023
 30
0.0000
  0
SEQEND
  8
0
  0
POLYLINE
  8
22
 66
1
 10
0.0000
 20
0.0000
 30
0.0000
 40
0.1778
 41
0.1778
 70
0
  0
VERTEX
  8
22
 10
14.3559
 20
3.0099
 30
0.0000
  0
VERTEX
  8
22
 10
13.7119
 20
3.0099
 30
0.0000
  0
SEQEND
  8
0
  0
POLYLINE
  8
22
 66
1
 10
0.0000
 20
0.0000
 30
0.0000
 40
0.0889
 41
0.0889
 70
0
  0
VERTEX
  8
22
 10
13.7119
 20
3.0543
 30
0.0000
 42
1.0000
  0
VERTEX
  8
22
 10
13.7119
 20
2.9655
 30
0.0000
  0
SEQEND
  8
0
  0
POLYLINE
  8
22
 66
1
 10
0.0000
 20
0.0000
 30
0.0000
 40
0.0889
 41
0.0889
 70
0
  0
VERTEX
  8
22
 10
14.3559
 20
2.9655
 30
0.0000
 42
1.0000
  0
VERTEX
  8
22
 10
14.3559
 20
3.0543
 30
0.0000
  0
SEQEND
  8
0
  0
POLYLINE
  8
22
 66
1
 10
0.0000
 20
0.0000
 30
0.0000
 40
0.1778
 41
0.1778
 70
0
  0
VERTEX
  8
22
 10
13.7119
 20
3.0099
 30
0.0000
  0
VERTEX
  8
22
 10
13.5509
 20
3.1709
 30
0.0000
  0
SEQEND
  8
0
  0
POLYLINE
  8
22
 66
1
 10
0.0000
 20
0.0000
 30
0.0000
 40
0.0889
 41
0.0889
 70
0
  0
VERTEX
  8
22
 10
13.5823
 20
3.2023
 30
0.0000
 42
1.0000
  0
VERTEX
  8
22
 10
13.5195
 20
3.1395
 30
0.0000
  0
SEQEND
  8
0
  0
POLYLINE
  8
22
 66
1
 10
0.0000
 20
0.0000
 30
0.0000
 40
0.0889
 41
0.0889
 70
0
  0
VERTEX
  8
22
 10
13.6805
 20
2.9785
 30
0.0000
 42
1.0000
  0
VERTEX
  8
22
 10
13.7433
 20
3.0413
 30
0.0000
  0
SEQEND
  8
0
  0
POLYLINE
  8
22
 66
1
 10
0.0000
 20
0.0000
 30
0.0000
 40
0.1778
 41
0.1778
 70
0
  0
VERTEX
  8
22
 10
13.5509
 20
3.1709
 30
0.0000
  0
VERTEX
  8
22
 10
13.5509
 20
3.4929
 30
0.0000
  0
SEQEND
  8
0
  0
POLYLINE
  8
22
 66
1
 10
0.0000
 20
0.0000
 30
0.0000
 40
0.0889
 41
0.0889
 70
0
  0
VERTEX
  8
22
 10
13.5953
 20
3.4929
 30
0.0000
 42
1.0000
  0
VERTEX
  8
22
 10
13.5065
 20
3.4929
 30
0.0000
  0
SEQEND
  8
0
  0
POLYLINE
  8
22
 66
1
 10
0.0000
 20
0.0000
 30
0.0000
 40
0.0889
 41
0.0889
 70
0
  0
VERTEX
  8
22
 10
13.5065
 20
3.1709
 30
0.0000
 42
1.0000
  0
VERTEX
  8
22
 10
13.5953
 20
3.1709
 30
0.0000
  0
SEQEND
  8
0
  0
POLYLINE
  8
22
 66
1
 10
0.0000
 20
0.0000
 30
0.0000
 40
0.1778
 41
0.1778
 70
0
  0
VERTEX
  8
22
 10
13.5509
 20
3.4929
 30
0.0000
  0
VERTEX
  8
22
 10
13.7119
 20
3.6539
 30
0.0000
  0
SEQEND
  8
0
  0
POLYLINE
  8
22
 66
1
 10
0.0000
 20
0.0000
 30
0.0000
 40
0.0889
 41
0.0889
 70
0
  0
VERTEX
  8
22
 10
13.7433
 20
3.6225
 30
0.0000
 42
1.0000
  0
VERTEX
  8
22
 10
13.6805
 20
3.6853
 30
0.0000
  0
SEQEND
  8
0
  0
POLYLINE
  8
22
 66
1
 10
0.0000
 20
0.0000
 30
0.0000
 40
0.0889
 41
0.0889
 70
0
  0
VERTEX
  8
22
 10
13.5195
 20
3.5243
 30
0.0000
 42
1.0000
  0
VERTEX
  8
22
 10
13.5823
 20
3.4615
 30
0.0000
  0
SEQEND
  8
0
  0
POLYLINE
  8
22
 66
1
 10
0.0000
 20
0.0000
 30
0.0000
 40
0.1778
 41
0.1778
 70
0
  0
VERTEX
  8
22
 10
13.7119
 20
3.6539
 30
0.0000
  0
VERTEX
  8
22
 10
14.0339
 20
3.6539
 30
0.0000
  0
SEQEND
  8
0
  0
POLYLINE
  8
22
 66
1
 10
0.0000
 20
0.0000
 30
0.0000
 40
0.0889
 41
0.0889
 70
0
  0
VERTEX
  8
22
 10
14.0339
 20
3.6095
 30
0.0000
 42
1.0000
  0
VERTEX
  8
22
 10
14.0339
 20
3.6984
 30
0.0000
  0
SEQEND
  8
0
  0
POLYLINE
  8
22
 66
1
 10
0.0000
 20
0.0000
 30
0.0000
 40
0.0889
 41
0.0889
 70
0
  0
VERTEX
  8
22
 10
13.7119
 20
3.6984
 30
0.0000
 42
1.0000
  0
VERTEX
  8
22
 10
13.7119
 20
3.6095
 30
0.0000
  0
SEQEND
  8
0
  0
POLYLINE
  8
22
 66
1
 10
0.0000
 20
0.0000
 30
0.0000
 40
0.1778
 41
0.1778
 70
0
  0
VERTEX
  8
22
 10
14.0339
 20
3.6539
 30
0.0000
  0
VERTEX
  8
22
 10
14.0339
 20
3.3319
 30
0.0000
  0
SEQEND
  8
0
  0
POLYLINE
  8
22
 66
1
 10
0.0000
 20
0.0000
 30
0.0000
 40
0.0889
 41
0.0889
 70
0
  0
VERTEX
  8
22
 10
13.9895
 20
3.3319
 30
0.0000
 42
1.0000
  0
VERTEX
  8
22
 10
14.0784
 20
3.3319
 30
0.0000
  0
SEQEND
  8
0
  0
POLYLINE
  8
22
 66
1
 10
0.0000
 20
0.0000
 30
0.0000
 40
0.0889
 41
0.0889
 70
0
  0
VERTEX
  8
22
 10
14.0784
 20
3.6539
 30
0.0000
 42
1.0000
  0
VERTEX
  8
22
 10
13.9895
 20
3.6539
 30
0.0000
  0
SEQEND
  8
0
  0
POLYLINE
  8
22
 66
1
 10
0.0000
 20
0.0000
 30
0.0000
 40
0.1778
 41
0.1778
 70
0
  0
VERTEX
  8
22
 10
13.5509
 20
4.0624
 30
0.0000
  0
VERTEX
  8
22
 10
14.5169
 20
4.0624
 30
0.0000
  0
SEQEND
  8
0
  0
POLYLINE
  8
22
 66
1
 10
0.0000
 20
0.0000
 30
0.0000
 40
0.0889
 41
0.0889
 70
0
  0
VERTEX
  8
22
 10
14.5169
 20
4.0179
 30
0.0000
 42
1.0000
  0
VERTEX
  8
22
 10
14.5169
 20
4.1068
 30
0.0000
  0
SEQEND
  8
0
  0
POLYLINE
  8
22
 66
1
 10
0.0000
 20
0.0000
 30
0.0000
 40
0.0889
 41
0.0889
 70
0
  0
VERTEX
  8
22
 10
13.5509
 20
4.1068
 30
0.0000
 42
1.0000
  0
VERTEX
  8
22
 10
13.5509
 20
4.0179
 30
0.0000
  0
SEQEND
  8
0
  0
POLYLINE
  8
22
 66
1
 10
0.0000
 20
0.0000
 30
0.0000
 40
0.1778
 41
0.1778
 70
0
  0
VERTEX
  8
22
 10
14.5169
 20
4.0624
 30
0.0000
  0
VERTEX
  8
22
 10
13.5509
 20
4.7064
 30
0.0000
  0
SEQEND
  8
0
  0
POLYLINE
  8
22
 66
1
 10
0.0000
 20
0.0000
 30
0.0000
 40
0.0889
 41
0.0889
 70
0
  0
VERTEX
  8
22
 10
13.5756
 20
4.7434
 30
0.0000
 42
1.0000
  0
VERTEX
  8
22
 10
13.5262
 20
4.6694
 30
0.0000
  0
SEQEND
  8
0
  0
POLYLINE
  8
22
 66
1
 10
0.0000
 20
0.0000
 30
0.0000
 40
0.0889
 41
0.0889
 70
0
  0
VERTEX
  8
22
 10
14.4923
 20
4.0254
 30
0.0000
 42
1.0000
  0
VERTEX
  8
22
 10
14.5416
 20
4.0993
 30
0.0000
  0
SEQEND
  8
0
  0
POLYLINE
  8
22
 66
1
 10
0.0000
 20
0.0000
 30
0.0000
 40
0.1778
 41
0.1778
 70
0
  0
VERTEX
  8
22
 10
13.5509
 20
4.7064
 30
0.0000
  0
VERTEX
  8
22
 10
14.5169
 20
4.7064
 30
0.0000
  0
SEQEND
  8
0
  0
POLYLINE
  8
22
 66
1
 10
0.0000
 20
0.0000
 30
0.0000
 40
0.0889
 41
0.0889
 70
0
  0
VERTEX
  8
22
 10
14.5169
 20
4.6619
 30
0.0000
 42
1.0000
  0
VERTEX
  8
22
 10
14.5169
 20
4.7508
 30
0.0000
  0
SEQEND
  8
0
  0
POLYLINE
  8
22
 66
1
 10
0.0000
 20
0.0000
 30
0.0000
 40
0.0889
 41
0.0889
 70
0
  0
VERTEX
  8
22
 10
13.5509
 20
4.7508
 30
0.0000
 42
1.0000
  0
VERTEX
  8
22
 10
13.5509
 20
4.6619
 30
0.0000
  0
SEQEND
  8
0
  0
POLYLINE
  8
22
 66
1
 10
0.0000
 20
0.0000
 30
0.0000
 40
0.1778
 41
0.1778
 70
0
  0
VERTEX
  8
22
 10
14.5169
 20
5.1148
 30
0.0000
  0
VERTEX
  8
22
 10
13.5509
 20
5.1148
 30
0.0000
  0
SEQEND
  8
0
  0
POLYLINE
  8
22
 66
1
 10
0.0000
 20
0.0000
 30
0.0000
 40
0.0889
 41
0.0889
 70
0
  0
VERTEX
  8
22
 10
13.5509
 20
5.1593
 30
0.0000
 42
1.0000
  0
VERTEX
  8
22
 10
13.5509
 20
5.0704
 30
0.0000
  0
SEQEND
  8
0
  0
POLYLINE
  8
22
 66
1
 10
0.0000
 20
0.0000
 30
0.0000
 40
0.0889
 41
0.0889
 70
0
  0
VERTEX
  8
22
 10
14.5169
 20
5.0704
 30
0.0000
 42
1.0000
  0
VERTEX
  8
22
 10
14.5169
 20
5.1593
 30
0.0000
  0
SEQEND
  8
0
  0
POLYLINE
  8
22
 66
1
 10
0.0000
 20
0.0000
 30
0.0000
 40
0.1778
 41
0.1778
 70
0
  0
VERTEX
  8
22
 10
13.5509
 20
5.1148
 30
0.0000
  0
VERTEX
  8
22
 10
13.5509
 20
5.5978
 30
0.0000
  0
SEQEND
  8
0
  0
POLYLINE
  8
22
 66
1
 10
0.0000
 20
0.0000
 30
0.0000
 40
0.0889
 41
0.0889
 70
0
  0
VERTEX
  8
22
 10
13.5953
 20
5.5978
 30
0.0000
 42
1.0000
  0
VERTEX
  8
22
 10
13.5065
 20
5.5978
 30
0.0000
  0
SEQEND
  8
0
  0
POLYLINE
  8
22
 66
1
 10
0.0000
 20
0.0000
 30
0.0000
 40
0.0889
 41
0.0889
 70
0
  0
VERTEX
  8
22
 10
13.5065
 20
5.1148
 30
0.0000
 42
1.0000
  0
VERTEX
  8
22
 10
13.5953
 20
5.1148
 30
0.0000
  0
SEQEND
  8
0
  0
POLYLINE
  8
22
 66
1
 10
0.0000
 20
0.0000
 30
0.0000
 40
0.1778
 41
0.1778
 70
0
  0
VERTEX
  8
22
 10
13.5509
 20
5.5978
 30
0.0000
  0
VERTEX
  8
22
 10
13.7119
 20
5.7588
 30
0.0000
  0
SEQEND
  8
0
  0
POLYLINE
  8
22
 66
1
 10
0.0000
 20
0.0000
 30
0.0000
 40
0.0889
 41
0.0889
 70
0
  0
VERTEX
  8
22
 10
13.7433
 20
5.7274
 30
0.0000
 42
1.0000
  0
VERTEX
  8
22
 10
13.6805
 20
5.7903
 30
0.0000
  0
SEQEND
  8
0
  0
POLYLINE
  8
22
 66
1
 10
0.0000
 20
0.0000
 30
0.0000
 40
0.0889
 41
0.0889
 70
0
  0
VERTEX
  8
22
 10
13.5195
 20
5.6293
 30
0.0000
 42
1.0000
  0
VERTEX
  8
22
 10
13.5823
 20
5.5664
 30
0.0000
  0
SEQEND
  8
0
  0
POLYLINE
  8
22
 66
1
 10
0.0000
 20
0.0000
 30
0.0000
 40
0.1778
 41
0.1778
 70
0
  0
VERTEX
  8
22
 10
13.7119
 20
5.7588
 30
0.0000
  0
VERTEX
  8
22
 10
14.3559
 20
5.7588
 30
0.0000
  0
SEQEND
  8
0
  0
POLYLINE
  8
22
 66
1
 10
0.0000
 20
0.0000
 30
0.0000
 40
0.0889
 41
0.0889
 70
0
  0
VERTEX
  8
22
 10
14.3559
 20
5.7144
 30
0.0000
 42
1.0000
  0
VERTEX
  8
22
 10
14.3559
 20
5.8033
 30
0.0000
  0
SEQEND
  8
0
  0
POLYLINE
  8
22
 66
1
 10
0.0000
 20
0.0000
 30
0.0000
 40
0.0889
 41
0.0889
 70
0
  0
VERTEX
  8
22
 10
13.7119
 20
5.8033
 30
0.0000
 42
1.0000
  0
VERTEX
  8
22
 10
13.7119
 20
5.7144
 30
0.0000
  0
SEQEND
  8
0
  0
POLYLINE
  8
22
 66
1
 10
0.0000
 20
0.0000
 30
0.0000
 40
0.1778
 41
0.1778
 70
0
  0
VERTEX
  8
22
 10
14.3559
 20
5.7588
 30
0.0000
  0
VERTEX
  8
22
 10
14.5169
 20
5.5978
 30
0.0000
  0
SEQEND
  8
0
  0
POLYLINE
  8
22
 66
1
 10
0.0000
 20
0.0000
 30
0.0000
 40
0.0889
 41
0.0889
 70
0
  0
VERTEX
  8
22
 10
14.4855
 20
5.5664
 30
0.0000
 42
1.0000
  0
VERTEX
  8
22
 10
14.5484
 20
5.6293
 30
0.0000
  0
SEQEND
  8
0
  0
POLYLINE
  8
22
 66
1
 10
0.0000
 20
0.0000
 30
0.0000
 40
0.0889
 41
0.0889
 70
0
  0
VERTEX
  8
22
 10
14.3873
 20
5.7903
 30
0.0000
 42
1.0000
  0
VERTEX
  8
22
 10
14.3245
 20
5.7274
 30
0.0000
  0
SEQEND
  8
0
  0
POLYLINE
  8
22
 66
1
 10
0.0000
 20
0.0000
 30
0.0000
 40
0.1778
 41
0.1778
 70
0
  0
VERTEX
  8
22
 10
14.5169
 20
5.5978
 30
0.0000
  0
VERTEX
  8
22
 10
14.5169
 20
5.1148
 30
0.0000
  0
SEQEND
  8
0
  0
POLYLINE
  8
22
 66
1
 10
0.0000
 20
0.0000
 30
0.0000
 40
0.0889
 41
0.0889
 70
0
  0
VERTEX
  8
22
 10
14.4725
 20
5.1148
 30
0.0000
 42
1.0000
  0
VERTEX
  8
22
 10
14.5614
 20
5.1148
 30
0.0000
  0
SEQEND
  8
0
  0
POLYLINE
  8
22
 66
1
 10
0.0000
 20
0.0000
 30
0.0000
 40
0.0889
 41
0.0889
 70
0
  0
VERTEX
  8
22
 10
14.5614
 20
5.5978
 30
0.0000
 42
1.0000
  0
VERTEX
  8
22
 10
14.4725
 20
5.5978
 30
0.0000
  0
SEQEND
  8
0
  0
POLYLINE
  8
22
 66
1
 10
0.0000
 20
0.0000
 30
0.0000
 40
0.1778
 41
0.1778
 70
0
  0
VERTEX
  8
22
 10
5.9309
 20
3.0099
 30
0.0000
  0
VERTEX
  8
22
 10
6.8969
 20
3.0099
 30
0.0000
  0
SEQEND
  8
0
  0
POLYLINE
  8
22
 66
1
 10
0.0000
 20
0.0000
 30
0.0000
 40
0.0889
 41
0.0889
 70
0
  0
VERTEX
  8
22
 10
6.8969
 20
2.9655
 30
0.0000
 42
1.0000
  0
VERTEX
  8
22
 10
6.8969
 20
3.0543
 30
0.0000
  0
SEQEND
  8
0
  0
POLYLINE
  8
22
 66
1
 10
0.0000
 20
0.0000
 30
0.0000
 40
0.0889
 41
0.0889
 70
0
  0
VERTEX
  8
22
 10
5.9309
 20
3.0543
 30
0.0000
 42
1.0000
  0
VERTEX
  8
22
 10
5.9309
 20
2.9655
 30
0.0000
  0
SEQEND
  8
0
  0
POLYLINE
  8
22
 66
1
 10
0.0000
 20
0.0000
 30
0.0000
 40
0.1778
 41
0.1778
 70
0
  0
VERTEX
  8
22
 10
6.8969
 20
3.0099
 30
0.0000
  0
VERTEX
  8
22
 10
6.8969
 20
3.4929
 30
0.0000
  0
SEQEND
  8
0
  0
POLYLINE
  8
22
 66
1
 10
0.0000
 20
0.0000
 30
0.0000
 40
0.0889
 41
0.0889
 70
0
  0
VERTEX
  8
22
 10
6.9414
 20
3.4929
 30
0.0000
 42
1.0000
  0
VERTEX
  8
22
 10
6.8525
 20
3.4929
 30
0.0000
  0
SEQEND
  8
0
  0
POLYLINE
  8
22
 66
1
 10
0.0000
 20
0.0000
 30
0.0000
 40
0.0889
 41
0.0889
 70
0
  0
VERTEX
  8
22
 10
6.8525
 20
3.0099
 30
0.0000
 42
1.0000
  0
VERTEX
  8
22
 10
6.9414
 20
3.0099
 30
0.0000
  0
SEQEND
  8
0
  0
POLYLINE
  8
22
 66
1
 10
0.0000
 20
0.0000
 30
0.0000
 40
0.1778
 41
0.1778
 70
0
  0
VERTEX
  8
22
 10
6.8969
 20
3.4929
 30
0.0000
  0
VERTEX
  8
22
 10
6.7359
 20
3.6539
 30
0.0000
  0
SEQEND
  8
0
  0
POLYLINE
  8
22
 66
1
 10
0.0000
 20
0.0000
 30
0.0000
 40
0.0889
 41
0.0889
 70
0
  0
VERTEX
  8
22
 10
6.7673
 20
3.6853
 30
0.0000
 42
1.0000
  0
VERTEX
  8
22
 10
6.7045
 20
3.6225
 30
0.0000
  0
SEQEND
  8
0
  0
POLYLINE
  8
22
 66
1
 10
0.0000
 20
0.0000
 30
0.0000
 40
0.0889
 41
0.0889
 70
0
  0
VERTEX
  8
22
 10
6.8655
 20
3.4615
 30
0.0000
 42
1.0000
  0
VERTEX
  8
22
 10
6.9284
 20
3.5243
 30
0.0000
  0
SEQEND
  8
0
  0
POLYLINE
  8
22
 66
1
 10
0.0000
 20
0.0000
 30
0.0000
 40
0.1778
 41
0.1778
 70
0
  0
VERTEX
  8
22
 10
6.7359
 20
3.6539
 30
0.0000
  0
VERTEX
  8
22
 10
6.4139
 20
3.6539
 30
0.0000
  0
SEQEND
  8
0
  0
POLYLINE
  8
22
 66
1
 10
0.0000
 20
0.0000
 30
0.0000
 40
0.0889
 41
0.0889
 70
0
  0
VERTEX
  8
22
 10
6.4139
 20
3.6984
 30
0.0000
 42
1.0000
  0
VERTEX
  8
22
 10
6.4139
 20
3.6095
 30
0.0000
  0
SEQEND
  8
0
  0
POLYLINE
  8
22
 66
1
 10
0.0000
 20
0.0000
 30
0.0000
 40
0.0889
 41
0.0889
 70
0
  0
VERTEX
  8
22
 10
6.7359
 20
3.6095
 30
0.0000
 42
1.0000
  0
VERTEX
  8
22
 10
6.7359
 20
3.6984
 30
0.0000
  0
SEQEND
  8
0
  0
POLYLINE
  8
22
 66
1
 10
0.0000
 20
0.0000
 30
0.0000
 40
0.1778
 41
0.1778
 70
0
  0
VERTEX
  8
22
 10
6.4139
 20
3.6539
 30
0.0000
  0
VERTEX
  8
22
 10
6.2529
 20
3.4929
 30
0.0000
  0
SEQEND
  8
0
  0
POLYLINE
  8
22
 66
1
 10
0.0000
 20
0.0000
 30
0.0000
 40
0.0889
 41
0.0889
 70
0
  0
VERTEX
  8
22
 10
6.2215
 20
3.5243
 30
0.0000
 42
1.0000
  0
VERTEX
  8
22
 10
6.2843
 20
3.4615
 30
0.0000
  0
SEQEND
  8
0
  0
POLYLINE
  8
22
 66
1
 10
0.0000
 20
0.0000
 30
0.0000
 40
0.0889
 41
0.0889
 70
0
  0
VERTEX
  8
22
 10
6.4453
 20
3.6225
 30
0.0000
 42
1.0000
  0
VERTEX
  8
22
 10
6.3825
 20
3.6853
 30
0.0000
  0
SEQEND
  8
0
  0
POLYLINE
  8
22
 66
1
 10
0.0000
 20
0.0000
 30
0.0000
 40
0.1778
 41
0.1778
 70
0
  0
VERTEX
  8
22
 10
6.2529
 20
3.4929
 30
0.0000
  0
VERTEX
  8
22
 10
6.2529
 20
3.0099
 30
0.0000
  0
SEQEND
  8
0
  0
POLYLINE
  8
22
 66
1
 10
0.0000
 20
0.0000
 30
0.0000
 40
0.0889
 41
0.0889
 70
0
  0
VERTEX
  8
22
 10
6.2085
 20
3.0099
 30
0.0000
 42
1.0000
  0
VERTEX
  8
22
 10
6.2974
 20
3.0099
 30
0.0000
  0
SEQEND
  8
0
  0
POLYLINE
  8
22
 66
1
 10
0.0000
 20
0.0000
 30
0.0000
 40
0.0889
 41
0.0889
 70
0
  0
VERTEX
  8
22
 10
6.2974
 20
3.4929
 30
0.0000
 42
1.0000
  0
VERTEX
  8
22
 10
6.2085
 20
3.4929
 30
0.0000
  0
SEQEND
  8
0
  0
POLYLINE
  8
22
 66
1
 10
0.0000
 20
0.0000
 30
0.0000
 40
0.1778
 41
0.1778
 70
0
  0
VERTEX
  8
22
 10
6.2529
 20
3.3319
 30
0.0000
  0
VERTEX
  8
22
 10
5.9309
 20
3.6539
 30
0.0000
  0
SEQEND
  8
0
  0
POLYLINE
  8
22
 66
1
 10
0.0000
 20
0.0000
 30
0.0000
 40
0.0889
 41
0.0889
 70
0
  0
VERTEX
  8
22
 10
5.9623
 20
3.6853
 30
0.0000
 42
1.0000
  0
VERTEX
  8
22
 10
5.8995
 20
3.6225
 30
0.0000
  0
SEQEND
  8
0
  0
POLYLINE
  8
22
 66
1
 10
0.0000
 20
0.0000
 30
0.0000
 40
0.0889
 41
0.0889
 70
0
  0
VERTEX
  8
22
 10
6.2215
 20
3.3005
 30
0.0000
 42
1.0000
  0
VERTEX
  8
22
 10
6.2843
 20
3.3633
 30
0.0000
  0
SEQEND
  8
0
  0
POLYLINE
  8
22
 66
1
 10
0.0000
 20
0.0000
 30
0.0000
 40
0.1778
 41
0.1778
 70
0
  0
VERTEX
  8
22
 10
6.8969
 20
4.0624
 30
0.0000
  0
VERTEX
  8
22
 10
5.9309
 20
4.7064
 30
0.0000
  0
SEQEND
  8
0
  0
POLYLINE
  8
22
 66
1
 10
0.0000
 20
0.0000
 30
0.0000
 40
0.0889
 41
0.0889
 70
0
  0
VERTEX
  8
22
 10
5.9556
 20
4.7434
 30
0.0000
 42
1.0000
  0
VERTEX
  8
22
 10
5.9062
 20
4.6694
 30
0.0000
  0
SEQEND
  8
0
  0
POLYLINE
  8
22
 66
1
 10
0.0000
 20
0.0000
 30
0.0000
 40
0.0889
 41
0.0889
 70
0
  0
VERTEX
  8
22
 10
6.8723
 20
4.0254
 30
0.0000
 42
1.0000
  0
VERTEX
  8
22
 10
6.9216
 20
4.0993
 30
0.0000
  0
SEQEND
  8
0
  0
POLYLINE
  8
22
 66
1
 10
0.0000
 20
0.0000
 30
0.0000
 40
0.1778
 41
0.1778
 70
0
  0
VERTEX
  8
22
 10
6.8969
 20
4.7064
 30
0.0000
  0
VERTEX
  8
22
 10
5.9309
 20
4.0624
 30
0.0000
  0
SEQEND
  8
0
  0
POLYLINE
  8
22
 66
1
 10
0.0000
 20
0.0000
 30
0.0000
 40
0.0889
 41
0.0889
 70
0
  0
VERTEX
  8
22
 10
5.9062
 20
4.0993
 30
0.0000
 42
1.0000
  0
VERTEX
  8
22
 10
5.9556
 20
4.0254
 30
0.0000
  0
SEQEND
  8
0
  0
POLYLINE
  8
22
 66
1
 10
0.0000
 20
0.0000
 30
0.0000
 40
0.0889
 41
0.0889
 70
0
  0
VERTEX
  8
22
 10
6.9216
 20
4.6694
 30
0.0000
 42
1.0000
  0
VERTEX
  8
22
 10
6.8723
 20
4.7434
 30
0.0000
  0
SEQEND
  8
0
  0
POLYLINE
  8
22
 66
1
 10
0.0000
 20
0.0000
 30
0.0000
 40
0.1778
 41
0.1778
 70
0
  0
VERTEX
  8
22
 10
3.3909
 20
3.3319
 30
0.0000
  0
VERTEX
  8
22
 10
4.3569
 20
3.3319
 30
0.0000
  0
SEQEND
  8
0
  0
POLYLINE
  8
22
 66
1
 10
0.0000
 20
0.0000
 30
0.0000
 40
0.0889
 41
0.0889
 70
0
  0
VERTEX
  8
22
 10
4.3569
 20
3.2875
 30
0.0000
 42
1.0000
  0
VERTEX
  8
22
 10
4.3569
 20
3.3764
 30
0.0000
  0
SEQEND
  8
0
  0
POLYLINE
  8
22
 66
1
 10
0.0000
 20
0.0000
 30
0.0000
 40
0.0889
 41
0.0889
 70
0
  0
VERTEX
  8
22
 10
3.3909
 20
3.3764
 30
0.0000
 42
1.0000
  0
VERTEX
  8
22
 10
3.3909
 20
3.2875
 30
0.0000
  0
SEQEND
  8
0
  0
POLYLINE
  8
22
 66
1
 10
0.0000
 20
0.0000
 30
0.0000
 40
0.1778
 41
0.1778
 70
0
  0
VERTEX
  8
22
 10
4.3569
 20
3.0099
 30
0.0000
  0
VERTEX
  8
22
 10
4.3569
 20
3.6539
 30
0.0000
  0
SEQEND
  8
0
  0
POLYLINE
  8
22
 66
1
 10
0.0000
 20
0.0000
 30
0.0000
 40
0.0889
 41
0.0889
 70
0
  0
VERTEX
  8
22
 10
4.4014
 20
3.6539
 30
0.0000
 42
1.0000
  0
VERTEX
  8
22
 10
4.3125
 20
3.6539
 30
0.0000
  0
SEQEND
  8
0
  0
POLYLINE
  8
22
 66
1
 10
0.0000
 20
0.0000
 30
0.0000
 40
0.0889
 41
0.0889
 70
0
  0
VERTEX
  8
22
 10
4.3125
 20
3.0099
 30
0.0000
 42
1.0000
  0
VERTEX
  8
22
 10
4.4014
 20
3.0099
 30
0.0000
  0
SEQEND
  8
0
  0
POLYLINE
  8
22
 66
1
 10
0.0000
 20
0.0000
 30
0.0000
 40
0.1778
 41
0.1778
 70
0
  0
VERTEX
  8
22
 10
4.3569
 20
4.0624
 30
0.0000
  0
VERTEX
  8
22
 10
3.3909
 20
4.7064
 30
0.0000
  0
SEQEND
  8
0
  0
POLYLINE
  8
22
 66
1
 10
0.0000
 20
0.0000
 30
0.0000
 40
0.0889
 41
0.0889
 70
0
  0
VERTEX
  8
22
 10
3.4156
 20
4.7434
 30
0.0000
 42
1.0000
  0
VERTEX
  8
22
 10
3.3662
 20
4.6694
 30
0.0000
  0
SEQEND
  8
0
  0
POLYLINE
  8
22
 66
1
 10
0.0000
 20
0.0000
 30
0.0000
 40
0.0889
 41
0.0889
 70
0
  0
VERTEX
  8
22
 10
4.3323
 20
4.0254
 30
0.0000
 42
1.0000
  0
VERTEX
  8
22
 10
4.3816
 20
4.0993
 30
0.0000
  0
SEQEND
  8
0
  0
POLYLINE
  8
22
 66
1
 10
0.0000
 20
0.0000
 30
0.0000
 40
0.1778
 41
0.1778
 70
0
  0
VERTEX
  8
22
 10
4.3569
 20
4.7064
 30
0.0000
  0
VERTEX
  8
22
 10
3.3909
 20
4.0624
 30
0.0000
  0
SEQEND
  8
0
  0
POLYLINE
  8
22
 66
1
 10
0.0000
 20
0.0000
 30
0.0000
 40
0.0889
 41
0.0889
 70
0
  0
VERTEX
  8
22
 10
3.3662
 20
4.0993
 30
0.0000
 42
1.0000
  0
VERTEX
  8
22
 10
3.4156
 20
4.0254
 30
0.0000
  0
SEQEND
  8
0
  0
POLYLINE
  8
22
 66
1
 10
0.0000
 20
0.0000
 30
0.0000
 40
0.0889
 41
0.0889
 70
0
  0
VERTEX
  8
22
 10
4.3816
 20
4.6694
 30
0.0000
 42
1.0000
  0
VERTEX
  8
22
 10
4.3323
 20
4.7434
 30
0.0000
  0
SEQEND
  8
0
  0
POLYLINE
  8
22
 66
1
 10
0.0000
 20
0.0000
 30
0.0000
 40
0.1778
 41
0.1778
 70
0
  0
VERTEX
  8
22
 10
1.8169
 20
3.0099
 30
0.0000
  0
VERTEX
  8
22
 10
1.1729
 20
3.0099
 30
0.0000
  0
SEQEND
  8
0
  0
POLYLINE
  8
22
 66
1
 10
0.0000
 20
0.0000
 30
0.0000
 40
0.0889
 41
0.0889
 70
0
  0
VERTEX
  8
22
 10
1.1729
 20
3.0543
 30
0.0000
 42
1.0000
  0
VERTEX
  8
22
 10
1.1729
 20
2.9655
 30
0.0000
  0
SEQEND
  8
0
  0
POLYLINE
  8
22
 66
1
 10
0.0000
 20
0.0000
 30
0.0000
 40
0.0889
 41
0.0889
 70
0
  0
VERTEX
  8
22
 10
1.8169
 20
2.9655
 30
0.0000
 42
1.0000
  0
VERTEX
  8
22
 10
1.8169
 20
3.0543
 30
0.0000
  0
SEQEND
  8
0
  0
POLYLINE
  8
22
 66
1
 10
0.0000
 20
0.0000
 30
0.0000
 40
0.1778
 41
0.1778
 70
0
  0
VERTEX
  8
22
 10
1.1729
 20
3.0099
 30
0.0000
  0
VERTEX
  8
22
 10
0.8509
 20
3.3319
 30
0.0000
  0
SEQEND
  8
0
  0
POLYLINE
  8
22
 66
1
 10
0.0000
 20
0.0000
 30
0.0000
 40
0.0889
 41
0.0889
 70
0
  0
VERTEX
  8
22
 10
0.8823
 20
3.3633
 30
0.0000
 42
1.0000
  0
VERTEX
  8
22
 10
0.8195
 20
3.3005
 30
0.0000
  0
SEQEND
  8
0
  0
POLYLINE
  8
22
 66
1
 10
0.0000
 20
0.0000
 30
0.0000
 40
0.0889
 41
0.0889
 70
0
  0
VERTEX
  8
22
 10
1.1415
 20
2.9785
 30
0.0000
 42
1.0000
  0
VERTEX
  8
22
 10
1.2043
 20
3.0413
 30
0.0000
  0
SEQEND
  8
0
  0
POLYLINE
  8
22
 66
1
 10
0.0000
 20
0.0000
 30
0.0000
 40
0.1778
 41
0.1778
 70
0
  0
VERTEX
  8
22
 10
0.8509
 20
3.3319
 30
0.0000
  0
VERTEX
  8
22
 10
1.1729
 20
3.6539
 30
0.0000
  0
SEQEND
  8
0
  0
POLYLINE
  8
22
 66
1
 10
0.0000
 20
0.0000
 30
0.0000
 40
0.0889
 41
0.0889
 70
0
  0
VERTEX
  8
22
 10
1.2043
 20
3.6225
 30
0.0000
 42
1.0000
  0
VERTEX
  8
22
 10
1.1415
 20
3.6853
 30
0.0000
  0
SEQEND
  8
0
  0
POLYLINE
  8
22
 66
1
 10
0.0000
 20
0.0000
 30
0.0000
 40
0.0889
 41
0.0889
 70
0
  0
VERTEX
  8
22
 10
0.8195
 20
3.3633
 30
0.0000
 42
1.0000
  0
VERTEX
  8
22
 10
0.8823
 20
3.3005
 30
0.0000
  0
SEQEND
  8
0
  0
POLYLINE
  8
22
 66
1
 10
0.0000
 20
0.0000
 30
0.0000
 40
0.1778
 41
0.1778
 70
0
  0
VERTEX
  8
22
 10
1.1729
 20
3.6539
 30
0.0000
  0
VERTEX
  8
22
 10
1.8169
 20
3.6539
 30
0.0000
  0
SEQEND
  8
0
  0
POLYLINE
  8
22
 66
1
 10
0.0000
 20
0.0000
 30
0.0000
 40
0.0889
 41
0.0889
 70
0
  0
VERTEX
  8
22
 10
1.8169
 20
3.6095
 30
0.0000
 42
1.0000
  0
VERTEX
  8
22
 10
1.8169
 20
3.6984
 30
0.0000
  0
SEQEND
  8
0
  0
POLYLINE
  8
22
 66
1
 10
0.0000
 20
0.0000
 30
0.0000
 40
0.0889
 41
0.0889
 70
0
  0
VERTEX
  8
22
 10
1.1729
 20
3.6984
 30
0.0000
 42
1.0000
  0
VERTEX
  8
22
 10
1.1729
 20
3.6095
 30
0.0000
  0
SEQEND
  8
0
  0
POLYLINE
  8
22
 66
1
 10
0.0000
 20
0.0000
 30
0.0000
 40
0.1778
 41
0.1778
 70
0
  0
VERTEX
  8
22
 10
1.6559
 20
4.7064
 30
0.0000
  0
VERTEX
  8
22
 10
1.8169
 20
4.5454
 30
0.0000
  0
SEQEND
  8
0
  0
POLYLINE
  8
22
 66
1
 10
0.0000
 20
0.0000
 30
0.0000
 40
0.0889
 41
0.0889
 70
0
  0
VERTEX
  8
22
 10
1.7855
 20
4.5139
 30
0.0000
 42
1.0000
  0
VERTEX
  8
22
 10
1.8484
 20
4.5768
 30
0.0000
  0
SEQEND
  8
0
  0
POLYLINE
  8
22
 66
1
 10
0.0000
 20
0.0000
 30
0.0000
 40
0.0889
 41
0.0889
 70
0
  0
VERTEX
  8
22
 10
1.6873
 20
4.7378
 30
0.0000
 42
1.0000
  0
VERTEX
  8
22
 10
1.6245
 20
4.6749
 30
0.0000
  0
SEQEND
  8
0
  0
POLYLINE
  8
22
 66
1
 10
0.0000
 20
0.0000
 30
0.0000
 40
0.1778
 41
0.1778
 70
0
  0
VERTEX
  8
22
 10
1.8169
 20
4.5454
 30
0.0000
  0
VERTEX
  8
22
 10
1.8169
 20
4.2234
 30
0.0000
  0
SEQEND
  8
0
  0
POLYLINE
  8
22
 66
1
 10
0.0000
 20
0.0000
 30
0.0000
 40
0.0889
 41
0.0889
 70
0
  0
VERTEX
  8
22
 10
1.7725
 20
4.2234
 30
0.0000
 42
1.0000
  0
VERTEX
  8
22
 10
1.8614
 20
4.2234
 30
0.0000
  0
SEQEND
  8
0
  0
POLYLINE
  8
22
 66
1
 10
0.0000
 20
0.0000
 30
0.0000
 40
0.0889
 41
0.0889
 70
0
  0
VERTEX
  8
22
 10
1.8614
 20
4.5454
 30
0.0000
 42
1.0000
  0
VERTEX
  8
22
 10
1.7725
 20
4.5454
 30
0.0000
  0
SEQEND
  8
0
  0
POLYLINE
  8
22
 66
1
 10
0.0000
 20
0.0000
 30
0.0000
 40
0.1778
 41
0.1778
 70
0
  0
VERTEX
  8
22
 10
1.8169
 20
4.2234
 30
0.0000
  0
VERTEX
  8
22
 10
1.6559
 20
4.0624
 30
0.0000
  0
SEQEND
  8
0
  0
POLYLINE
  8
22
 66
1
 10
0.0000
 20
0.0000
 30
0.0000
 40
0.0889
 41
0.0889
 70
0
  0
VERTEX
  8
22
 10
1.6245
 20
4.0938
 30
0.0000
 42
1.0000
  0
VERTEX
  8
22
 10
1.6873
 20
4.0309
 30
0.0000
  0
SEQEND
  8
0
  0
POLYLINE
  8
22
 66
1
 10
0.0000
 20
0.0000
 30
0.0000
 40
0.0889
 41
0.0889
 70
0
  0
VERTEX
  8
22
 10
1.8484
 20
4.1919
 30
0.0000
 42
1.0000
  0
VERTEX
  8
22
 10
1.7855
 20
4.2548
 30
0.0000
  0
SEQEND
  8
0
  0
POLYLINE
  8
22
 66
1
 10
0.0000
 20
0.0000
 30
0.0000
 40
0.1778
 41
0.1778
 70
0
  0
VERTEX
  8
22
 10
1.6559
 20
4.0624
 30
0.0000
  0
VERTEX
  8
22
 10
1.4949
 20
4.0624
 30
0.0000
  0
SEQEND
  8
0
  0
POLYLINE
  8
22
 66
1
 10
0.0000
 20
0.0000
 30
0.0000
 40
0.0889
 41
0.0889
 70
0
  0
VERTEX
  8
22
 10
1.4949
 20
4.1068
 30
0.0000
 42
1.0000
  0
VERTEX
  8
22
 10
1.4949
 20
4.0179
 30
0.0000
  0
SEQEND
  8
0
  0
POLYLINE
  8
22
 66
1
 10
0.0000
 20
0.0000
 30
0.0000
 40
0.0889
 41
0.0889
 70
0
  0
VERTEX
  8
22
 10
1.6559
 20
4.0179
 30
0.0000
 42
1.0000
  0
VERTEX
  8
22
 10
1.6559
 20
4.1068
 30
0.0000
  0
SEQEND
  8
0
  0
POLYLINE
  8
22
 66
1
 10
0.0000
 20
0.0000
 30
0.0000
 40
0.1778
 41
0.1778
 70
0
  0
VERTEX
  8
22
 10
1.4949
 20
4.0624
 30
0.0000
  0
VERTEX
  8
22
 10
1.3339
 20
4.2234
 30
0.0000
  0
SEQEND
  8
0
  0
POLYLINE
  8
22
 66
1
 10
0.0000
 20
0.0000
 30
0.0000
 40
0.0889
 41
0.0889
 70
0
  0
VERTEX
  8
22
 10
1.3653
 20
4.2548
 30
0.0000
 42
1.0000
  0
VERTEX
  8
22
 10
1.3025
 20
4.1919
 30
0.0000
  0
SEQEND
  8
0
  0
POLYLINE
  8
22
 66
1
 10
0.0000
 20
0.0000
 30
0.0000
 40
0.0889
 41
0.0889
 70
0
  0
VERTEX
  8
22
 10
1.4635
 20
4.0309
 30
0.0000
 42
1.0000
  0
VERTEX
  8
22
 10
1.5263
 20
4.0938
 30
0.0000
  0
SEQEND
  8
0
  0
POLYLINE
  8
22
 66
1
 10
0.0000
 20
0.0000
 30
0.0000
 40
0.1778
 41
0.1778
 70
0
  0
VERTEX
  8
22
 10
1.3339
 20
4.2234
 30
0.0000
  0
VERTEX
  8
22
 10
1.3339
 20
4.5454
 30
0.0000
  0
SEQEND
  8
0
  0
POLYLINE
  8
22
 66
1
 10
0.0000
 20
0.0000
 30
0.0000
 40
0.0889
 41
0.0889
 70
0
  0
VERTEX
  8
22
 10
1.3784
 20
4.5454
 30
0.0000
 42
1.0000
  0
VERTEX
  8
22
 10
1.2895
 20
4.5454
 30
0.0000
  0
SEQEND
  8
0
  0
POLYLINE
  8
22
 66
1
 10
0.0000
 20
0.0000
 30
0.0000
 40
0.0889
 41
0.0889
 70
0
  0
VERTEX
  8
22
 10
1.2895
 20
4.2234
 30
0.0000
 42
1.0000
  0
VERTEX
  8
22
 10
1.3784
 20
4.2234
 30
0.0000
  0
SEQEND
  8
0
  0
POLYLINE
  8
22
 66
1
 10
0.0000
 20
0.0000
 30
0.0000
 40
0.1778
 41
0.1778
 70
0
  0
VERTEX
  8
22
 10
1.3339
 20
4.5454
 30
0.0000
  0
VERTEX
  8
22
 10
1.1729
 20
4.7064
 30
0.0000
  0
SEQEND
  8
0
  0
POLYLINE
  8
22
 66
1
 10
0.0000
 20
0.0000
 30
0.0000
 40
0.0889
 41
0.0889
 70
0
  0
VERTEX
  8
22
 10
1.2043
 20
4.7378
 30
0.0000
 42
1.0000
  0
VERTEX
  8
22
 10
1.1415
 20
4.6749
 30
0.0000
  0
SEQEND
  8
0
  0
POLYLINE
  8
22
 66
1
 10
0.0000
 20
0.0000
 30
0.0000
 40
0.0889
 41
0.0889
 70
0
  0
VERTEX
  8
22
 10
1.3025
 20
4.5139
 30
0.0000
 42
1.0000
  0
VERTEX
  8
22
 10
1.3653
 20
4.5768
 30
0.0000
  0
SEQEND
  8
0
  0
POLYLINE
  8
22
 66
1
 10
0.0000
 20
0.0000
 30
0.0000
 40
0.1778
 41
0.1778
 70
0
  0
VERTEX
  8
22
 10
1.1729
 20
4.7064
 30
0.0000
  0
VERTEX
  8
22
 10
1.0119
 20
4.7064
 30
0.0000
  0
SEQEND
  8
0
  0
POLYLINE
  8
22
 66
1
 10
0.0000
 20
0.0000
 30
0.0000
 40
0.0889
 41
0.0889
 70
0
  0
VERTEX
  8
22
 10
1.0119
 20
4.7508
 30
0.0000
 42
1.0000
  0
VERTEX
  8
22
 10
1.0119
 20
4.6619
 30
0.0000
  0
SEQEND
  8
0
  0
POLYLINE
  8
22
 66
1
 10
0.0000
 20
0.0000
 30
0.0000
 40
0.0889
 41
0.0889
 70
0
  0
VERTEX
  8
22
 10
1.1729
 20
4.6619
 30
0.0000
 42
1.0000
  0
VERTEX
  8
22
 10
1.1729
 20
4.7508
 30
0.0000
  0
SEQEND
  8
0
  0
POLYLINE
  8
22
 66
1
 10
0.0000
 20
0.0000
 30
0.0000
 40
0.1778
 41
0.1778
 70
0
  0
VERTEX
  8
22
 10
1.0119
 20
4.7064
 30
0.0000
  0
VERTEX
  8
22
 10
0.8509
 20
4.5454
 30
0.0000
  0
SEQEND
  8
0
  0
POLYLINE
  8
22
 66
1
 10
0.0000
 20
0.0000
 30
0.0000
 40
0.0889
 41
0.0889
 70
0
  0
VERTEX
  8
22
 10
0.8195
 20
4.5768
 30
0.0000
 42
1.0000
  0
VERTEX
  8
22
 10
0.8823
 20
4.5139
 30
0.0000
  0
SEQEND
  8
0
  0
POLYLINE
  8
22
 66
1
 10
0.0000
 20
0.0000
 30
0.0000
 40
0.0889
 41
0.0889
 70
0
  0
VERTEX
  8
22
 10
1.0433
 20
4.6749
 30
0.0000
 42
1.0000
  0
VERTEX
  8
22
 10
0.9805
 20
4.7378
 30
0.0000
  0
SEQEND
  8
0
  0
POLYLINE
  8
22
 66
1
 10
0.0000
 20
0.0000
 30
0.0000
 40
0.1778
 41
0.1778
 70
0
  0
VERTEX
  8
22
 10
0.8509
 20
4.5454
 30
0.0000
  0
VERTEX
  8
22
 10
0.8509
 20
4.2234
 30
0.0000
  0
SEQEND
  8
0
  0
POLYLINE
  8
22
 66
1
 10
0.0000
 20
0.0000
 30
0.0000
 40
0.0889
 41
0.0889
 70
0
  0
VERTEX
  8
22
 10
0.8065
 20
4.2234
 30
0.0000
 42
1.0000
  0
VERTEX
  8
22
 10
0.8953
 20
4.2234
 30
0.0000
  0
SEQEND
  8
0
  0
POLYLINE
  8
22
 66
1
 10
0.0000
 20
0.0000
 30
0.0000
 40
0.0889
 41
0.0889
 70
0
  0
VERTEX
  8
22
 10
0.8953
 20
4.5454
 30
0.0000
 42
1.0000
  0
VERTEX
  8
22
 10
0.8065
 20
4.5454
 30
0.0000
  0
SEQEND
  8
0
  0
POLYLINE
  8
22
 66
1
 10
0.0000
 20
0.0000
 30
0.0000
 40
0.1778
 41
0.1778
 70
0
  0
VERTEX
  8
22
 10
0.8509
 20
4.2234
 30
0.0000
  0
VERTEX
  8
22
 10
1.0119
 20
4.0624
 30
0.0000
  0
SEQEND
  8
0
  0
POLYLINE
  8
22
 66
1
 10
0.0000
 20
0.0000
 30
0.0000
 40
0.0889
 41
0.0889
 70
0
  0
VERTEX
  8
22
 10
0.9805
 20
4.0309
 30
0.0000
 42
1.0000
  0
VERTEX
  8
22
 10
1.0433
 20
4.0938
 30
0.0000
  0
SEQEND
  8
0
  0
POLYLINE
  8
22
 66
1
 10
0.0000
 20
0.0000
 30
0.0000
 40
0.0889
 41
0.0889
 70
0
  0
VERTEX
  8
22
 10
0.8823
 20
4.2548
 30
0.0000
 42
1.0000
  0
VERTEX
  8
22
 10
0.8195
 20
4.1919
 30
0.0000
  0
SEQEND
  8
0
  0
POLYLINE
  8
22
 66
1
 10
0.0000
 20
0.0000
 30
0.0000
 40
0.1778
 41
0.1778
 70
0
  0
VERTEX
  8
22
 10
0.8509
 20
5.4368
 30
0.0000
  0
VERTEX
  8
22
 10
1.8169
 20
5.4368
 30
0.0000
  0
SEQEND
  8
0
  0
POLYLINE
  8
22
 66
1
 10
0.0000
 20
0.0000
 30
0.0000
 40
0.0889
 41
0.0889
 70
0
  0
VERTEX
  8
22
 10
1.8169
 20
5.3924
 30
0.0000
 42
1.0000
  0
VERTEX
  8
22
 10
1.8169
 20
5.4813
 30
0.0000
  0
SEQEND
  8
0
  0
POLYLINE
  8
22
 66
1
 10
0.0000
 20
0.0000
 30
0.0000
 40
0.0889
 41
0.0889
 70
0
  0
VERTEX
  8
22
 10
0.8509
 20
5.4813
 30
0.0000
 42
1.0000
  0
VERTEX
  8
22
 10
0.8509
 20
5.3924
 30
0.0000
  0
SEQEND
  8
0
  0
POLYLINE
  8
22
 66
1
 10
0.0000
 20
0.0000
 30
0.0000
 40
0.1778
 41
0.1778
 70
0
  0
VERTEX
  8
22
 10
1.8169
 20
5.1148
 30
0.0000
  0
VERTEX
  8
22
 10
1.8169
 20
5.7588
 30
0.0000
  0
SEQEND
  8
0
  0
POLYLINE
  8
22
 66
1
 10
0.0000
 20
0.0000
 30
0.0000
 40
0.0889
 41
0.0889
 70
0
  0
VERTEX
  8
22
 10
1.8614
 20
5.7588
 30
0.0000
 42
1.0000
  0
VERTEX
  8
22
 10
1.7725
 20
5.7588
 30
0.0000
  0
SEQEND
  8
0
  0
POLYLINE
  8
22
 66
1
 10
0.0000
 20
0.0000
 30
0.0000
 40
0.0889
 41
0.0889
 70
0
  0
VERTEX
  8
22
 10
1.7725
 20
5.1148
 30
0.0000
 42
1.0000
  0
VERTEX
  8
22
 10
1.8614
 20
5.1148
 30
0.0000
  0
SEQEND
  8
0
  0
POLYLINE
  8
22
 66
1
 10
0.0000
 20
0.0000
 30
0.0000
 40
0.1778
 41
0.1778
 70
0
  0
VERTEX
  8
22
 10
11.9769
 20
3.6539
 30
0.0000
  0
VERTEX
  8
22
 10
11.9769
 20
3.0099
 30
0.0000
  0
SEQEND
  8
0
  0
POLYLINE
  8
22
 66
1
 10
0.0000
 20
0.0000
 30
0.0000
 40
0.0889
 41
0.0889
 70
0
  0
VERTEX
  8
22
 10
11.9325
 20
3.0099
 30
0.0000
 42
1.0000
  0
VERTEX
  8
22
 10
12.0214
 20
3.0099
 30
0.0000
  0
SEQEND
  8
0
  0
POLYLINE
  8
22
 66
1
 10
0.0000
 20
0.0000
 30
0.0000
 40
0.0889
 41
0.0889
 70
0
  0
VERTEX
  8
22
 10
12.0214
 20
3.6539
 30
0.0000
 42
1.0000
  0
VERTEX
  8
22
 10
11.9325
 20
3.6539
 30
0.0000
  0
SEQEND
  8
0
  0
POLYLINE
  8
22
 66
1
 10
0.0000
 20
0.0000
 30
0.0000
 40
0.1778
 41
0.1778
 70
0
  0
VERTEX
  8
22
 10
11.9769
 20
3.0099
 30
0.0000
  0
VERTEX
  8
22
 10
11.0109
 20
3.0099
 30
0.0000
  0
SEQEND
  8
0
  0
POLYLINE
  8
22
 66
1
 10
0.0000
 20
0.0000
 30
0.0000
 40
0.0889
 41
0.0889
 70
0
  0
VERTEX
  8
22
 10
11.0109
 20
3.0543
 30
0.0000
 42
1.0000
  0
VERTEX
  8
22
 10
11.0109
 20
2.9655
 30
0.0000
  0
SEQEND
  8
0
  0
POLYLINE
  8
22
 66
1
 10
0.0000
 20
0.0000
 30
0.0000
 40
0.0889
 41
0.0889
 70
0
  0
VERTEX
  8
22
 10
11.9769
 20
2.9655
 30
0.0000
 42
1.0000
  0
VERTEX
  8
22
 10
11.9769
 20
3.0543
 30
0.0000
  0
SEQEND
  8
0
  0
POLYLINE
  8
22
 66
1
 10
0.0000
 20
0.0000
 30
0.0000
 40
0.1778
 41
0.1778
 70
0
  0
VERTEX
  8
22
 10
11.0109
 20
3.0099
 30
0.0000
  0
VERTEX
  8
22
 10
11.0109
 20
3.6539
 30
0.0000
  0
SEQEND
  8
0
  0
POLYLINE
  8
22
 66
1
 10
0.0000
 20
0.0000
 30
0.0000
 40
0.0889
 41
0.0889
 70
0
  0
VERTEX
  8
22
 10
11.0554
 20
3.6539
 30
0.0000
 42
1.0000
  0
VERTEX
  8
22
 10
10.9665
 20
3.6539
 30
0.0000
  0
SEQEND
  8
0
  0
POLYLINE
  8
22
 66
1
 10
0.0000
 20
0.0000
 30
0.0000
 40
0.0889
 41
0.0889
 70
0
  0
VERTEX
  8
22
 10
10.9665
 20
3.0099
 30
0.0000
 42
1.0000
  0
VERTEX
  8
22
 10
11.0554
 20
3.0099
 30
0.0000
  0
SEQEND
  8
0
  0
POLYLINE
  8
22
 66
1
 10
0.0000
 20
0.0000
 30
0.0000
 40
0.1778
 41
0.1778
 70
0
  0
VERTEX
  8
22
 10
11.4939
 20
3.0099
 30
0.0000
  0
VERTEX
  8
22
 10
11.4939
 20
3.3319
 30
0.0000
  0
SEQEND
  8
0
  0
POLYLINE
  8
22
 66
1
 10
0.0000
 20
0.0000
 30
0.0000
 40
0.0889
 41
0.0889
 70
0
  0
VERTEX
  8
22
 10
11.5384
 20
3.3319
 30
0.0000
 42
1.0000
  0
VERTEX
  8
22
 10
11.4495
 20
3.3319
 30
0.0000
  0
SEQEND
  8
0
  0
POLYLINE
  8
22
 66
1
 10
0.0000
 20
0.0000
 30
0.0000
 40
0.0889
 41
0.0889
 70
0
  0
VERTEX
  8
22
 10
11.4495
 20
3.0099
 30
0.0000
 42
1.0000
  0
VERTEX
  8
22
 10
11.5384
 20
3.0099
 30
0.0000
  0
SEQEND
  8
0
  0
POLYLINE
  8
22
 66
1
 10
0.0000
 20
0.0000
 30
0.0000
 40
0.1778
 41
0.1778
 70
0
  0
VERTEX
  8
22
 10
11.0109
 20
4.0624
 30
0.0000
  0
VERTEX
  8
22
 10
11.9769
 20
4.0624
 30
0.0000
  0
SEQEND
  8
0
  0
POLYLINE
  8
22
 66
1
 10
0.0000
 20
0.0000
 30
0.0000
 40
0.0889
 41
0.0889
 70
0
  0
VERTEX
  8
22
 10
11.9769
 20
4.0179
 30
0.0000
 42
1.0000
  0
VERTEX
  8
22
 10
11.9769
 20
4.1068
 30
0.0000
  0
SEQEND
  8
0
  0
POLYLINE
  8
22
 66
1
 10
0.0000
 20
0.0000
 30
0.0000
 40
0.0889
 41
0.0889
 70
0
  0
VERTEX
  8
22
 10
11.0109
 20
4.1068
 30
0.0000
 42
1.0000
  0
VERTEX
  8
22
 10
11.0109
 20
4.0179
 30
0.0000
  0
SEQEND
  8
0
  0
POLYLINE
  8
22
 66
1
 10
0.0000
 20
0.0000
 30
0.0000
 40
0.1778
 41
0.1778
 70
0
  0
VERTEX
  8
22
 10
11.9769
 20
4.0624
 30
0.0000
  0
VERTEX
  8
22
 10
11.0109
 20
4.7064
 30
0.0000
  0
SEQEND
  8
0
  0
POLYLINE
  8
22
 66
1
 10
0.0000
 20
0.0000
 30
0.0000
 40
0.0889
 41
0.0889
 70
0
  0
VERTEX
  8
22
 10
11.0356
 20
4.7434
 30
0.0000
 42
1.0000
  0
VERTEX
  8
22
 10
10.9862
 20
4.6694
 30
0.0000
  0
SEQEND
  8
0
  0
POLYLINE
  8
22
 66
1
 10
0.0000
 20
0.0000
 30
0.0000
 40
0.0889
 41
0.0889
 70
0
  0
VERTEX
  8
22
 10
11.9523
 20
4.0254
 30
0.0000
 42
1.0000
  0
VERTEX
  8
22
 10
12.0016
 20
4.0993
 30
0.0000
  0
SEQEND
  8
0
  0
POLYLINE
  8
22
 66
1
 10
0.0000
 20
0.0000
 30
0.0000
 40
0.1778
 41
0.1778
 70
0
  0
VERTEX
  8
22
 10
11.0109
 20
4.7064
 30
0.0000
  0
VERTEX
  8
22
 10
11.9769
 20
4.7064
 30
0.0000
  0
SEQEND
  8
0
  0
POLYLINE
  8
22
 66
1
 10
0.0000
 20
0.0000
 30
0.0000
 40
0.0889
 41
0.0889
 70
0
  0
VERTEX
  8
22
 10
11.9769
 20
4.6619
 30
0.0000
 42
1.0000
  0
VERTEX
  8
22
 10
11.9769
 20
4.7508
 30
0.0000
  0
SEQEND
  8
0
  0
POLYLINE
  8
22
 66
1
 10
0.0000
 20
0.0000
 30
0.0000
 40
0.0889
 41
0.0889
 70
0
  0
VERTEX
  8
22
 10
11.0109
 20
4.7508
 30
0.0000
 42
1.0000
  0
VERTEX
  8
22
 10
11.0109
 20
4.6619
 30
0.0000
  0
SEQEND
  8
0
  0
POLYLINE
  8
22
 66
1
 10
0.0000
 20
0.0000
 30
0.0000
 40
0.1778
 41
0.1778
 70
0
  0
VERTEX
  8
22
 10
7.8789
 20
12.5439
 30
0.0000
  0
VERTEX
  8
22
 10
8.0399
 20
12.3829
 30
0.0000
  0
SEQEND
  8
0
  0
POLYLINE
  8
22
 66
1
 10
0.0000
 20
0.0000
 30
0.0000
 40
0.0889
 41
0.0889
 70
0
  0
VERTEX
  8
22
 10
8.0085
 20
12.3515
 30
0.0000
 42
1.0000
  0
VERTEX
  8
22
 10
8.0714
 20
12.4143
 30
0.0000
  0
SEQEND
  8
0
  0
POLYLINE
  8
22
 66
1
 10
0.0000
 20
0.0000
 30
0.0000
 40
0.0889
 41
0.0889
 70
0
  0
VERTEX
  8
22
 10
7.9103
 20
12.5753
 30
0.0000
 42
1.0000
  0
VERTEX
  8
22
 10
7.8475
 20
12.5125
 30
0.0000
  0
SEQEND
  8
0
  0
POLYLINE
  8
22
 66
1
 10
0.0000
 20
0.0000
 30
0.0000
 40
0.1778
 41
0.1778
 70
0
  0
VERTEX
  8
22
 10
8.0399
 20
12.3829
 30
0.0000
  0
VERTEX
  8
22
 10
8.0399
 20
12.0609
 30
0.0000
  0
SEQEND
  8
0
  0
POLYLINE
  8
22
 66
1
 10
0.0000
 20
0.0000
 30
0.0000
 40
0.0889
 41
0.0889
 70
0
  0
VERTEX
  8
22
 10
7.9955
 20
12.0609
 30
0.0000
 42
1.0000
  0
VERTEX
  8
22
 10
8.0844
 20
12.0609
 30
0.0000
  0
SEQEND
  8
0
  0
POLYLINE
  8
22
 66
1
 10
0.0000
 20
0.0000
 30
0.0000
 40
0.0889
 41
0.0889
 70
0
  0
VERTEX
  8
22
 10
8.0844
 20
12.3829
 30
0.0000
 42
1.0000
  0
VERTEX
  8
22
 10
7.9955
 20
12.3829
 30
0.0000
  0
SEQEND
  8
0
  0
POLYLINE
  8
22
 66
1
 10
0.0000
 20
0.0000
 30
0.0000
 40
0.1778
 41
0.1778
 70
0
  0
VERTEX
  8
22
 10
8.0399
 20
12.0609
 30
0.0000
  0
VERTEX
  8
22
 10
7.8789
 20
11.8999
 30
0.0000
  0
SEQEND
  8
0
  0
POLYLINE
  8
22
 66
1
 10
0.0000
 20
0.0000
 30
0.0000
 40
0.0889
 41
0.0889
 70
0
  0
VERTEX
  8
22
 10
7.8475
 20
11.9313
 30
0.0000
 42
1.0000
  0
VERTEX
  8
22
 10
7.9103
 20
11.8685
 30
0.0000
  0
SEQEND
  8
0
  0
POLYLINE
  8
22
 66
1
 10
0.0000
 20
0.0000
 30
0.0000
 40
0.0889
 41
0.0889
 70
0
  0
VERTEX
  8
22
 10
8.0714
 20
12.0295
 30
0.0000
 42
1.0000
  0
VERTEX
  8
22
 10
8.0085
 20
12.0923
 30
0.0000
  0
SEQEND
  8
0
  0
POLYLINE
  8
22
 66
1
 10
0.0000
 20
0.0000
 30
0.0000
 40
0.1778
 41
0.1778
 70
0
  0
VERTEX
  8
22
 10
7.8789
 20
11.8999
 30
0.0000
  0
VERTEX
  8
22
 10
7.2349
 20
11.8999
 30
0.0000
  0
SEQEND
  8
0
  0
POLYLINE
  8
22
 66
1
 10
0.0000
 20
0.0000
 30
0.0000
 40
0.0889
 41
0.0889
 70
0
  0
VERTEX
  8
22
 10
7.2349
 20
11.9444
 30
0.0000
 42
1.0000
  0
VERTEX
  8
22
 10
7.2349
 20
11.8555
 30
0.0000
  0
SEQEND
  8
0
  0
POLYLINE
  8
22
 66
1
 10
0.0000
 20
0.0000
 30
0.0000
 40
0.0889
 41
0.0889
 70
0
  0
VERTEX
  8
22
 10
7.8789
 20
11.8555
 30
0.0000
 42
1.0000
  0
VERTEX
  8
22
 10
7.8789
 20
11.9444
 30
0.0000
  0
SEQEND
  8
0
  0
POLYLINE
  8
22
 66
1
 10
0.0000
 20
0.0000
 30
0.0000
 40
0.1778
 41
0.1778
 70
0
  0
VERTEX
  8
22
 10
7.2349
 20
11.8999
 30
0.0000
  0
VERTEX
  8
22
 10
7.0739
 20
12.0609
 30
0.0000
  0
SEQEND
  8
0
  0
POLYLINE
  8
22
 66
1
 10
0.0000
 20
0.0000
 30
0.0000
 40
0.0889
 41
0.0889
 70
0
  0
VERTEX
  8
22
 10
7.1053
 20
12.0923
 30
0.0000
 42
1.0000
  0
VERTEX
  8
22
 10
7.0425
 20
12.0295
 30
0.0000
  0
SEQEND
  8
0
  0
POLYLINE
  8
22
 66
1
 10
0.0000
 20
0.0000
 30
0.0000
 40
0.0889
 41
0.0889
 70
0
  0
VERTEX
  8
22
 10
7.2035
 20
11.8685
 30
0.0000
 42
1.0000
  0
VERTEX
  8
22
 10
7.2663
 20
11.9313
 30
0.0000
  0
SEQEND
  8
0
  0
POLYLINE
  8
22
 66
1
 10
0.0000
 20
0.0000
 30
0.0000
 40
0.1778
 41
0.1778
 70
0
  0
VERTEX
  8
22
 10
7.0739
 20
12.0609
 30
0.0000
  0
VERTEX
  8
22
 10
7.0739
 20
12.3829
 30
0.0000
  0
SEQEND
  8
0
  0
POLYLINE
  8
22
 66
1
 10
0.0000
 20
0.0000
 30
0.0000
 40
0.0889
 41
0.0889
 70
0
  0
VERTEX
  8
22
 10
7.1184
 20
12.3829
 30
0.0000
 42
1.0000
  0
VERTEX
  8
22
 10
7.0294
 20
12.3829
 30
0.0000
  0
SEQEND
  8
0
  0
POLYLINE
  8
22
 66
1
 10
0.0000
 20
0.0000
 30
0.0000
 40
0.0889
 41
0.0889
 70
0
  0
VERTEX
  8
22
 10
7.0294
 20
12.0609
 30
0.0000
 42
1.0000
  0
VERTEX
  8
22
 10
7.1184
 20
12.0609
 30
0.0000
  0
SEQEND
  8
0
  0
POLYLINE
  8
22
 66
1
 10
0.0000
 20
0.0000
 30
0.0000
 40
0.1778
 41
0.1778
 70
0
  0
VERTEX
  8
22
 10
7.0739
 20
12.3829
 30
0.0000
  0
VERTEX
  8
22
 10
7.2349
 20
12.5439
 30
0.0000
  0
SEQEND
  8
0
  0
POLYLINE
  8
22
 66
1
 10
0.0000
 20
0.0000
 30
0.0000
 40
0.0889
 41
0.0889
 70
0
  0
VERTEX
  8
22
 10
7.2663
 20
12.5125
 30
0.0000
 42
1.0000
  0
VERTEX
  8
22
 10
7.2035
 20
12.5753
 30
0.0000
  0
SEQEND
  8
0
  0
POLYLINE
  8
22
 66
1
 10
0.0000
 20
0.0000
 30
0.0000
 40
0.0889
 41
0.0889
 70
0
  0
VERTEX
  8
22
 10
7.0425
 20
12.4143
 30
0.0000
 42
1.0000
  0
VERTEX
  8
22
 10
7.1053
 20
12.3515
 30
0.0000
  0
SEQEND
  8
0
  0
POLYLINE
  8
22
 66
1
 10
0.0000
 20
0.0000
 30
0.0000
 40
0.1778
 41
0.1778
 70
0
  0
VERTEX
  8
22
 10
7.2349
 20
12.5439
 30
0.0000
  0
VERTEX
  8
22
 10
7.5569
 20
12.5439
 30
0.0000
  0
SEQEND
  8
0
  0
POLYLINE
  8
22
 66
1
 10
0.0000
 20
0.0000
 30
0.0000
 40
0.0889
 41
0.0889
 70
0
  0
VERTEX
  8
22
 10
7.5569
 20
12.4995
 30
0.0000
 42
1.0000
  0
VERTEX
  8
22
 10
7.5569
 20
12.5884
 30
0.0000
  0
SEQEND
  8
0
  0
POLYLINE
  8
22
 66
1
 10
0.0000
 20
0.0000
 30
0.0000
 40
0.0889
 41
0.0889
 70
0
  0
VERTEX
  8
22
 10
7.2349
 20
12.5884
 30
0.0000
 42
1.0000
  0
VERTEX
  8
22
 10
7.2349
 20
12.4995
 30
0.0000
  0
SEQEND
  8
0
  0
POLYLINE
  8
22
 66
1
 10
0.0000
 20
0.0000
 30
0.0000
 40
0.1778
 41
0.1778
 70
0
  0
VERTEX
  8
22
 10
7.5569
 20
12.5439
 30
0.0000
  0
VERTEX
  8
22
 10
7.5569
 20
12.2219
 30
0.0000
  0
SEQEND
  8
0
  0
POLYLINE
  8
22
 66
1
 10
0.0000
 20
0.0000
 30
0.0000
 40
0.0889
 41
0.0889
 70
0
  0
VERTEX
  8
22
 10
7.5125
 20
12.2219
 30
0.0000
 42
1.0000
  0
VERTEX
  8
22
 10
7.6014
 20
12.2219
 30
0.0000
  0
SEQEND
  8
0
  0
POLYLINE
  8
22
 66
1
 10
0.0000
 20
0.0000
 30
0.0000
 40
0.0889
 41
0.0889
 70
0
  0
VERTEX
  8
22
 10
7.6014
 20
12.5439
 30
0.0000
 42
1.0000
  0
VERTEX
  8
22
 10
7.5125
 20
12.5439
 30
0.0000
  0
SEQEND
  8
0
  0
POLYLINE
  8
22
 66
1
 10
0.0000
 20
0.0000
 30
0.0000
 40
0.1778
 41
0.1778
 70
0
  0
VERTEX
  8
22
 10
7.0739
 20
12.9524
 30
0.0000
  0
VERTEX
  8
22
 10
8.0399
 20
12.9524
 30
0.0000
  0
SEQEND
  8
0
  0
POLYLINE
  8
22
 66
1
 10
0.0000
 20
0.0000
 30
0.0000
 40
0.0889
 41
0.0889
 70
0
  0
VERTEX
  8
22
 10
8.0399
 20
12.9079
 30
0.0000
 42
1.0000
  0
VERTEX
  8
22
 10
8.0399
 20
12.9968
 30
0.0000
  0
SEQEND
  8
0
  0
POLYLINE
  8
22
 66
1
 10
0.0000
 20
0.0000
 30
0.0000
 40
0.0889
 41
0.0889
 70
0
  0
VERTEX
  8
22
 10
7.0739
 20
12.9968
 30
0.0000
 42
1.0000
  0
VERTEX
  8
22
 10
7.0739
 20
12.9079
 30
0.0000
  0
SEQEND
  8
0
  0
POLYLINE
  8
22
 66
1
 10
0.0000
 20
0.0000
 30
0.0000
 40
0.1778
 41
0.1778
 70
0
  0
VERTEX
  8
22
 10
8.0399
 20
12.9524
 30
0.0000
  0
VERTEX
  8
22
 10
8.0399
 20
13.4354
 30
0.0000
  0
SEQEND
  8
0
  0
POLYLINE
  8
22
 66
1
 10
0.0000
 20
0.0000
 30
0.0000
 40
0.0889
 41
0.0889
 70
0
  0
VERTEX
  8
22
 10
8.0844
 20
13.4354
 30
0.0000
 42
1.0000
  0
VERTEX
  8
22
 10
7.9955
 20
13.4354
 30
0.0000
  0
SEQEND
  8
0
  0
POLYLINE
  8
22
 66
1
 10
0.0000
 20
0.0000
 30
0.0000
 40
0.0889
 41
0.0889
 70
0
  0
VERTEX
  8
22
 10
7.9955
 20
12.9524
 30
0.0000
 42
1.0000
  0
VERTEX
  8
22
 10
8.0844
 20
12.9524
 30
0.0000
  0
SEQEND
  8
0
  0
POLYLINE
  8
22
 66
1
 10
0.0000
 20
0.0000
 30
0.0000
 40
0.1778
 41
0.1778
 70
0
  0
VERTEX
  8
22
 10
8.0399
 20
13.4354
 30
0.0000
  0
VERTEX
  8
22
 10
7.8789
 20
13.5964
 30
0.0000
  0
SEQEND
  8
0
  0
POLYLINE
  8
22
 66
1
 10
0.0000
 20
0.0000
 30
0.0000
 40
0.0889
 41
0.0889
 70
0
  0
VERTEX
  8
22
 10
7.9103
 20
13.6278
 30
0.0000
 42
1.0000
  0
VERTEX
  8
22
 10
7.8475
 20
13.5649
 30
0.0000
  0
SEQEND
  8
0
  0
POLYLINE
  8
22
 66
1
 10
0.0000
 20
0.0000
 30
0.0000
 40
0.0889
 41
0.0889
 70
0
  0
VERTEX
  8
22
 10
8.0085
 20
13.4039
 30
0.0000
 42
1.0000
  0
VERTEX
  8
22
 10
8.0714
 20
13.4668
 30
0.0000
  0
SEQEND
  8
0
  0
POLYLINE
  8
22
 66
1
 10
0.0000
 20
0.0000
 30
0.0000
 40
0.1778
 41
0.1778
 70
0
  0
VERTEX
  8
22
 10
7.8789
 20
13.5964
 30
0.0000
  0
VERTEX
  8
22
 10
7.5569
 20
13.5964
 30
0.0000
  0
SEQEND
  8
0
  0
POLYLINE
  8
22
 66
1
 10
0.0000
 20
0.0000
 30
0.0000
 40
0.0889
 41
0.0889
 70
0
  0
VERTEX
  8
22
 10
7.5569
 20
13.6408
 30
0.0000
 42
1.0000
  0
VERTEX
  8
22
 10
7.5569
 20
13.5519
 30
0.0000
  0
SEQEND
  8
0
  0
POLYLINE
  8
22
 66
1
 10
0.0000
 20
0.0000
 30
0.0000
 40
0.0889
 41
0.0889
 70
0
  0
VERTEX
  8
22
 10
7.8789
 20
13.5519
 30
0.0000
 42
1.0000
  0
VERTEX
  8
22
 10
7.8789
 20
13.6408
 30
0.0000
  0
SEQEND
  8
0
  0
POLYLINE
  8
22
 66
1
 10
0.0000
 20
0.0000
 30
0.0000
 40
0.1778
 41
0.1778
 70
0
  0
VERTEX
  8
22
 10
7.5569
 20
13.5964
 30
0.0000
  0
VERTEX
  8
22
 10
7.3959
 20
13.4354
 30
0.0000
  0
SEQEND
  8
0
  0
POLYLINE
  8
22
 66
1
 10
0.0000
 20
0.0000
 30
0.0000
 40
0.0889
 41
0.0889
 70
0
  0
VERTEX
  8
22
 10
7.3645
 20
13.4668
 30
0.0000
 42
1.0000
  0
VERTEX
  8
22
 10
7.4273
 20
13.4039
 30
0.0000
  0
SEQEND
  8
0
  0
POLYLINE
  8
22
 66
1
 10
0.0000
 20
0.0000
 30
0.0000
 40
0.0889
 41
0.0889
 70
0
  0
VERTEX
  8
22
 10
7.5883
 20
13.5649
 30
0.0000
 42
1.0000
  0
VERTEX
  8
22
 10
7.5255
 20
13.6278
 30
0.0000
  0
SEQEND
  8
0
  0
POLYLINE
  8
22
 66
1
 10
0.0000
 20
0.0000
 30
0.0000
 40
0.1778
 41
0.1778
 70
0
  0
VERTEX
  8
22
 10
7.3959
 20
13.4354
 30
0.0000
  0
VERTEX
  8
22
 10
7.3959
 20
12.9524
 30
0.0000
  0
SEQEND
  8
0
  0
POLYLINE
  8
22
 66
1
 10
0.0000
 20
0.0000
 30
0.0000
 40
0.0889
 41
0.0889
 70
0
  0
VERTEX
  8
22
 10
7.3515
 20
12.9524
 30
0.0000
 42
1.0000
  0
VERTEX
  8
22
 10
7.4404
 20
12.9524
 30
0.0000
  0
SEQEND
  8
0
  0
POLYLINE
  8
22
 66
1
 10
0.0000
 20
0.0000
 30
0.0000
 40
0.0889
 41
0.0889
 70
0
  0
VERTEX
  8
22
 10
7.4404
 20
13.4354
 30
0.0000
 42
1.0000
  0
VERTEX
  8
22
 10
7.3515
 20
13.4354
 30
0.0000
  0
SEQEND
  8
0
  0
POLYLINE
  8
22
 66
1
 10
0.0000
 20
0.0000
 30
0.0000
 40
0.1778
 41
0.1778
 70
0
  0
VERTEX
  8
22
 10
7.0739
 20
14.0048
 30
0.0000
  0
VERTEX
  8
22
 10
7.0739
 20
14.3268
 30
0.0000
  0
SEQEND
  8
0
  0
POLYLINE
  8
22
 66
1
 10
0.0000
 20
0.0000
 30
0.0000
 40
0.0889
 41
0.0889
 70
0
  0
VERTEX
  8
22
 10
7.1184
 20
14.3268
 30
0.0000
 42
1.0000
  0
VERTEX
  8
22
 10
7.0294
 20
14.3268
 30
0.0000
  0
SEQEND
  8
0
  0
POLYLINE
  8
22
 66
1
 10
0.0000
 20
0.0000
 30
0.0000
 40
0.0889
 41
0.0889
 70
0
  0
VERTEX
  8
22
 10
7.0294
 20
14.0048
 30
0.0000
 42
1.0000
  0
VERTEX
  8
22
 10
7.1184
 20
14.0048
 30
0.0000
  0
SEQEND
  8
0
  0
POLYLINE
  8
22
 66
1
 10
0.0000
 20
0.0000
 30
0.0000
 40
0.1778
 41
0.1778
 70
0
  0
VERTEX
  8
22
 10
7.0739
 20
14.1658
 30
0.0000
  0
VERTEX
  8
22
 10
8.0399
 20
14.1658
 30
0.0000
  0
SEQEND
  8
0
  0
POLYLINE
  8
22
 66
1
 10
0.0000
 20
0.0000
 30
0.0000
 40
0.0889
 41
0.0889
 70
0
  0
VERTEX
  8
22
 10
8.0399
 20
14.1214
 30
0.0000
 42
1.0000
  0
VERTEX
  8
22
 10
8.0399
 20
14.2103
 30
0.0000
  0
SEQEND
  8
0
  0
POLYLINE
  8
22
 66
1
 10
0.0000
 20
0.0000
 30
0.0000
 40
0.0889
 41
0.0889
 70
0
  0
VERTEX
  8
22
 10
7.0739
 20
14.2103
 30
0.0000
 42
1.0000
  0
VERTEX
  8
22
 10
7.0739
 20
14.1214
 30
0.0000
  0
SEQEND
  8
0
  0
POLYLINE
  8
22
 66
1
 10
0.0000
 20
0.0000
 30
0.0000
 40
0.1778
 41
0.1778
 70
0
  0
VERTEX
  8
22
 10
8.0399
 20
14.0048
 30
0.0000
  0
VERTEX
  8
22
 10
8.0399
 20
14.3268
 30
0.0000
  0
SEQEND
  8
0
  0
POLYLINE
  8
22
 66
1
 10
0.0000
 20
0.0000
 30
0.0000
 40
0.0889
 41
0.0889
 70
0
  0
VERTEX
  8
22
 10
8.0844
 20
14.3268
 30
0.0000
 42
1.0000
  0
VERTEX
  8
22
 10
7.9955
 20
14.3268
 30
0.0000
  0
SEQEND
  8
0
  0
POLYLINE
  8
22
 66
1
 10
0.0000
 20
0.0000
 30
0.0000
 40
0.0889
 41
0.0889
 70
0
  0
VERTEX
  8
22
 10
7.9955
 20
14.0048
 30
0.0000
 42
1.0000
  0
VERTEX
  8
22
 10
8.0844
 20
14.0048
 30
0.0000
  0
SEQEND
  8
0
  0
POLYLINE
  8
22
 66
1
 10
0.0000
 20
0.0000
 30
0.0000
 40
0.1778
 41
0.1778
 70
0
  0
VERTEX
  8
22
 10
8.0399
 20
15.1895
 30
0.0000
  0
VERTEX
  8
22
 10
8.0399
 20
14.8675
 30
0.0000
  0
SEQEND
  8
0
  0
POLYLINE
  8
22
 66
1
 10
0.0000
 20
0.0000
 30
0.0000
 40
0.0889
 41
0.0889
 70
0
  0
VERTEX
  8
22
 10
7.9955
 20
14.8675
 30
0.0000
 42
1.0000
  0
VERTEX
  8
22
 10
8.0844
 20
14.8675
 30
0.0000
  0
SEQEND
  8
0
  0
POLYLINE
  8
22
 66
1
 10
0.0000
 20
0.0000
 30
0.0000
 40
0.0889
 41
0.0889
 70
0
  0
VERTEX
  8
22
 10
8.0844
 20
15.1895
 30
0.0000
 42
1.0000
  0
VERTEX
  8
22
 10
7.9955
 20
15.1895
 30
0.0000
  0
SEQEND
  8
0
  0
POLYLINE
  8
22
 66
1
 10
0.0000
 20
0.0000
 30
0.0000
 40
0.1778
 41
0.1778
 70
0
  0
VERTEX
  8
22
 10
8.0399
 20
14.8675
 30
0.0000
  0
VERTEX
  8
22
 10
7.8789
 20
14.7065
 30
0.0000
  0
SEQEND
  8
0
  0
POLYLINE
  8
22
 66
1
 10
0.0000
 20
0.0000
 30
0.0000
 40
0.0889
 41
0.0889
 70
0
  0
VERTEX
  8
22
 10
7.8475
 20
14.7379
 30
0.0000
 42
1.0000
  0
VERTEX
  8
22
 10
7.9103
 20
14.6750
 30
0.0000
  0
SEQEND
  8
0
  0
POLYLINE
  8
22
 66
1
 10
0.0000
 20
0.0000
 30
0.0000
 40
0.0889
 41
0.0889
 70
0
  0
VERTEX
  8
22
 10
8.0714
 20
14.8360
 30
0.0000
 42
1.0000
  0
VERTEX
  8
22
 10
8.0085
 20
14.8989
 30
0.0000
  0
SEQEND
  8
0
  0
POLYLINE
  8
22
 66
1
 10
0.0000
 20
0.0000
 30
0.0000
 40
0.1778
 41
0.1778
 70
0
  0
VERTEX
  8
22
 10
7.8789
 20
14.7065
 30
0.0000
  0
VERTEX
  8
22
 10
7.2349
 20
14.7065
 30
0.0000
  0
SEQEND
  8
0
  0
POLYLINE
  8
22
 66
1
 10
0.0000
 20
0.0000
 30
0.0000
 40
0.0889
 41
0.0889
 70
0
  0
VERTEX
  8
22
 10
7.2349
 20
14.7509
 30
0.0000
 42
1.0000
  0
VERTEX
  8
22
 10
7.2349
 20
14.6620
 30
0.0000
  0
SEQEND
  8
0
  0
POLYLINE
  8
22
 66
1
 10
0.0000
 20
0.0000
 30
0.0000
 40
0.0889
 41
0.0889
 70
0
  0
VERTEX
  8
22
 10
7.8789
 20
14.6620
 30
0.0000
 42
1.0000
  0
VERTEX
  8
22
 10
7.8789
 20
14.7509
 30
0.0000
  0
SEQEND
  8
0
  0
POLYLINE
  8
22
 66
1
 10
0.0000
 20
0.0000
 30
0.0000
 40
0.1778
 41
0.1778
 70
0
  0
VERTEX
  8
22
 10
7.2349
 20
14.7065
 30
0.0000
  0
VERTEX
  8
22
 10
7.0739
 20
14.8675
 30
0.0000
  0
SEQEND
  8
0
  0
POLYLINE
  8
22
 66
1
 10
0.0000
 20
0.0000
 30
0.0000
 40
0.0889
 41
0.0889
 70
0
  0
VERTEX
  8
22
 10
7.1053
 20
14.8989
 30
0.0000
 42
1.0000
  0
VERTEX
  8
22
 10
7.0425
 20
14.8360
 30
0.0000
  0
SEQEND
  8
0
  0
POLYLINE
  8
22
 66
1
 10
0.0000
 20
0.0000
 30
0.0000
 40
0.0889
 41
0.0889
 70
0
  0
VERTEX
  8
22
 10
7.2035
 20
14.6750
 30
0.0000
 42
1.0000
  0
VERTEX
  8
22
 10
7.2663
 20
14.7379
 30
0.0000
  0
SEQEND
  8
0
  0
POLYLINE
  8
22
 66
1
 10
0.0000
 20
0.0000
 30
0.0000
 40
0.1778
 41
0.1778
 70
0
  0
VERTEX
  8
22
 10
7.0739
 20
14.8675
 30
0.0000
  0
VERTEX
  8
22
 10
7.0739
 20
15.1895
 30
0.0000
  0
SEQEND
  8
0
  0
POLYLINE
  8
22
 66
1
 10
0.0000
 20
0.0000
 30
0.0000
 40
0.0889
 41
0.0889
 70
0
  0
VERTEX
  8
22
 10
7.1184
 20
15.1895
 30
0.0000
 42
1.0000
  0
VERTEX
  8
22
 10
7.0294
 20
15.1895
 30
0.0000
  0
SEQEND
  8
0
  0
POLYLINE
  8
22
 66
1
 10
0.0000
 20
0.0000
 30
0.0000
 40
0.0889
 41
0.0889
 70
0
  0
VERTEX
  8
22
 10
7.0294
 20
14.8675
 30
0.0000
 42
1.0000
  0
VERTEX
  8
22
 10
7.1184
 20
14.8675
 30
0.0000
  0
SEQEND
  8
0
  0
POLYLINE
  8
22
 66
1
 10
0.0000
 20
0.0000
 30
0.0000
 40
0.1778
 41
0.1778
 70
0
  0
VERTEX
  8
22
 10
7.0739
 20
15.1895
 30
0.0000
  0
VERTEX
  8
22
 10
7.2349
 20
15.3505
 30
0.0000
  0
SEQEND
  8
0
  0
POLYLINE
  8
22
 66
1
 10
0.0000
 20
0.0000
 30
0.0000
 40
0.0889
 41
0.0889
 70
0
  0
VERTEX
  8
22
 10
7.2663
 20
15.3190
 30
0.0000
 42
1.0000
  0
VERTEX
  8
22
 10
7.2035
 20
15.3819
 30
0.0000
  0
SEQEND
  8
0
  0
POLYLINE
  8
22
 66
1
 10
0.0000
 20
0.0000
 30
0.0000
 40
0.0889
 41
0.0889
 70
0
  0
VERTEX
  8
22
 10
7.0425
 20
15.2209
 30
0.0000
 42
1.0000
  0
VERTEX
  8
22
 10
7.1053
 20
15.1580
 30
0.0000
  0
SEQEND
  8
0
  0
POLYLINE
  8
22
 66
1
 10
0.0000
 20
0.0000
 30
0.0000
 40
0.1778
 41
0.1778
 70
0
  0
VERTEX
  8
22
 10
7.2349
 20
15.3505
 30
0.0000
  0
VERTEX
  8
22
 10
7.8789
 20
15.3505
 30
0.0000
  0
SEQEND
  8
0
  0
POLYLINE
  8
22
 66
1
 10
0.0000
 20
0.0000
 30
0.0000
 40
0.0889
 41
0.0889
 70
0
  0
VERTEX
  8
22
 10
7.8789
 20
15.3060
 30
0.0000
 42
1.0000
  0
VERTEX
  8
22
 10
7.8789
 20
15.3949
 30
0.0000
  0
SEQEND
  8
0
  0
POLYLINE
  8
22
 66
1
 10
0.0000
 20
0.0000
 30
0.0000
 40
0.0889
 41
0.0889
 70
0
  0
VERTEX
  8
22
 10
7.2349
 20
15.3949
 30
0.0000
 42
1.0000
  0
VERTEX
  8
22
 10
7.2349
 20
15.3060
 30
0.0000
  0
SEQEND
  8
0
  0
POLYLINE
  8
22
 66
1
 10
0.0000
 20
0.0000
 30
0.0000
 40
0.1778
 41
0.1778
 70
0
  0
VERTEX
  8
22
 10
7.8789
 20
15.3505
 30
0.0000
  0
VERTEX
  8
22
 10
8.0399
 20
15.1895
 30
0.0000
  0
SEQEND
  8
0
  0
POLYLINE
  8
22
 66
1
 10
0.0000
 20
0.0000
 30
0.0000
 40
0.0889
 41
0.0889
 70
0
  0
VERTEX
  8
22
 10
8.0085
 20
15.1580
 30
0.0000
 42
1.0000
  0
VERTEX
  8
22
 10
8.0714
 20
15.2209
 30
0.0000
  0
SEQEND
  8
0
  0
POLYLINE
  8
22
 66
1
 10
0.0000
 20
0.0000
 30
0.0000
 40
0.0889
 41
0.0889
 70
0
  0
VERTEX
  8
22
 10
7.9103
 20
15.3819
 30
0.0000
 42
1.0000
  0
VERTEX
  8
22
 10
7.8475
 20
15.3190
 30
0.0000
  0
SEQEND
  8
0
  0
POLYLINE
  8
22
 66
1
 10
0.0000
 20
0.0000
 30
0.0000
 40
0.1778
 41
0.1778
 70
0
  0
VERTEX
  8
22
 10
9.4369
 20
3.0099
 30
0.0000
  0
VERTEX
  8
22
 10
8.7929
 20
3.0099
 30
0.0000
  0
SEQEND
  8
0
  0
POLYLINE
  8
22
 66
1
 10
0.0000
 20
0.0000
 30
0.0000
 40
0.0889
 41
0.0889
 70
0
  0
VERTEX
  8
22
 10
8.7929
 20
3.0543
 30
0.0000
 42
1.0000
  0
VERTEX
  8
22
 10
8.7929
 20
2.9655
 30
0.0000
  0
SEQEND
  8
0
  0
POLYLINE
  8
22
 66
1
 10
0.0000
 20
0.0000
 30
0.0000
 40
0.0889
 41
0.0889
 70
0
  0
VERTEX
  8
22
 10
9.4369
 20
2.9655
 30
0.0000
 42
1.0000
  0
VERTEX
  8
22
 10
9.4369
 20
3.0543
 30
0.0000
  0
SEQEND
  8
0
  0
POLYLINE
  8
22
 66
1
 10
0.0000
 20
0.0000
 30
0.0000
 40
0.1778
 41
0.1778
 70
0
  0
VERTEX
  8
22
 10
8.7929
 20
3.0099
 30
0.0000
  0
VERTEX
  8
22
 10
8.4709
 20
3.3319
 30
0.0000
  0
SEQEND
  8
0
  0
POLYLINE
  8
22
 66
1
 10
0.0000
 20
0.0000
 30
0.0000
 40
0.0889
 41
0.0889
 70
0
  0
VERTEX
  8
22
 10
8.5023
 20
3.3633
 30
0.0000
 42
1.0000
  0
VERTEX
  8
22
 10
8.4395
 20
3.3005
 30
0.0000
  0
SEQEND
  8
0
  0
POLYLINE
  8
22
 66
1
 10
0.0000
 20
0.0000
 30
0.0000
 40
0.0889
 41
0.0889
 70
0
  0
VERTEX
  8
22
 10
8.7615
 20
2.9785
 30
0.0000
 42
1.0000
  0
VERTEX
  8
22
 10
8.8243
 20
3.0413
 30
0.0000
  0
SEQEND
  8
0
  0
POLYLINE
  8
22
 66
1
 10
0.0000
 20
0.0000
 30
0.0000
 40
0.1778
 41
0.1778
 70
0
  0
VERTEX
  8
22
 10
8.4709
 20
3.3319
 30
0.0000
  0
VERTEX
  8
22
 10
8.7929
 20
3.6539
 30
0.0000
  0
SEQEND
  8
0
  0
POLYLINE
  8
22
 66
1
 10
0.0000
 20
0.0000
 30
0.0000
 40
0.0889
 41
0.0889
 70
0
  0
VERTEX
  8
22
 10
8.8243
 20
3.6225
 30
0.0000
 42
1.0000
  0
VERTEX
  8
22
 10
8.7615
 20
3.6853
 30
0.0000
  0
SEQEND
  8
0
  0
POLYLINE
  8
22
 66
1
 10
0.0000
 20
0.0000
 30
0.0000
 40
0.0889
 41
0.0889
 70
0
  0
VERTEX
  8
22
 10
8.4395
 20
3.3633
 30
0.0000
 42
1.0000
  0
VERTEX
  8
22
 10
8.5023
 20
3.3005
 30
0.0000
  0
SEQEND
  8
0
  0
POLYLINE
  8
22
 66
1
 10
0.0000
 20
0.0000
 30
0.0000
 40
0.1778
 41
0.1778
 70
0
  0
VERTEX
  8
22
 10
8.7929
 20
3.6539
 30
0.0000
  0
VERTEX
  8
22
 10
9.4369
 20
3.6539
 30
0.0000
  0
SEQEND
  8
0
  0
POLYLINE
  8
22
 66
1
 10
0.0000
 20
0.0000
 30
0.0000
 40
0.0889
 41
0.0889
 70
0
  0
VERTEX
  8
22
 10
9.4369
 20
3.6095
 30
0.0000
 42
1.0000
  0
VERTEX
  8
22
 10
9.4369
 20
3.6984
 30
0.0000
  0
SEQEND
  8
0
  0
POLYLINE
  8
22
 66
1
 10
0.0000
 20
0.0000
 30
0.0000
 40
0.0889
 41
0.0889
 70
0
  0
VERTEX
  8
22
 10
8.7929
 20
3.6984
 30
0.0000
 42
1.0000
  0
VERTEX
  8
22
 10
8.7929
 20
3.6095
 30
0.0000
  0
SEQEND
  8
0
  0
POLYLINE
  8
22
 66
1
 10
0.0000
 20
0.0000
 30
0.0000
 40
0.1778
 41
0.1778
 70
0
  0
VERTEX
  8
22
 10
9.2759
 20
4.7064
 30
0.0000
  0
VERTEX
  8
22
 10
9.4369
 20
4.5454
 30
0.0000
  0
SEQEND
  8
0
  0
POLYLINE
  8
22
 66
1
 10
0.0000
 20
0.0000
 30
0.0000
 40
0.0889
 41
0.0889
 70
0
  0
VERTEX
  8
22
 10
9.4055
 20
4.5139
 30
0.0000
 42
1.0000
  0
VERTEX
  8
22
 10
9.4684
 20
4.5768
 30
0.0000
  0
SEQEND
  8
0
  0
POLYLINE
  8
22
 66
1
 10
0.0000
 20
0.0000
 30
0.0000
 40
0.0889
 41
0.0889
 70
0
  0
VERTEX
  8
22
 10
9.3073
 20
4.7378
 30
0.0000
 42
1.0000
  0
VERTEX
  8
22
 10
9.2445
 20
4.6749
 30
0.0000
  0
SEQEND
  8
0
  0
POLYLINE
  8
22
 66
1
 10
0.0000
 20
0.0000
 30
0.0000
 40
0.1778
 41
0.1778
 70
0
  0
VERTEX
  8
22
 10
9.4369
 20
4.5454
 30
0.0000
  0
VERTEX
  8
22
 10
9.4369
 20
4.2234
 30
0.0000
  0
SEQEND
  8
0
  0
POLYLINE
  8
22
 66
1
 10
0.0000
 20
0.0000
 30
0.0000
 40
0.0889
 41
0.0889
 70
0
  0
VERTEX
  8
22
 10
9.3925
 20
4.2234
 30
0.0000
 42
1.0000
  0
VERTEX
  8
22
 10
9.4814
 20
4.2234
 30
0.0000
  0
SEQEND
  8
0
  0
POLYLINE
  8
22
 66
1
 10
0.0000
 20
0.0000
 30
0.0000
 40
0.0889
 41
0.0889
 70
0
  0
VERTEX
  8
22
 10
9.4814
 20
4.5454
 30
0.0000
 42
1.0000
  0
VERTEX
  8
22
 10
9.3925
 20
4.5454
 30
0.0000
  0
SEQEND
  8
0
  0
POLYLINE
  8
22
 66
1
 10
0.0000
 20
0.0000
 30
0.0000
 40
0.1778
 41
0.1778
 70
0
  0
VERTEX
  8
22
 10
9.4369
 20
4.2234
 30
0.0000
  0
VERTEX
  8
22
 10
9.2759
 20
4.0624
 30
0.0000
  0
SEQEND
  8
0
  0
POLYLINE
  8
22
 66
1
 10
0.0000
 20
0.0000
 30
0.0000
 40
0.0889
 41
0.0889
 70
0
  0
VERTEX
  8
22
 10
9.2445
 20
4.0938
 30
0.0000
 42
1.0000
  0
VERTEX
  8
22
 10
9.3073
 20
4.0309
 30
0.0000
  0
SEQEND
  8
0
  0
POLYLINE
  8
22
 66
1
 10
0.0000
 20
0.0000
 30
0.0000
 40
0.0889
 41
0.0889
 70
0
  0
VERTEX
  8
22
 10
9.4684
 20
4.1919
 30
0.0000
 42
1.0000
  0
VERTEX
  8
22
 10
9.4055
 20
4.2548
 30
0.0000
  0
SEQEND
  8
0
  0
POLYLINE
  8
22
 66
1
 10
0.0000
 20
0.0000
 30
0.0000
 40
0.1778
 41
0.1778
 70
0
  0
VERTEX
  8
22
 10
9.2759
 20
4.0624
 30
0.0000
  0
VERTEX
  8
22
 10
8.6319
 20
4.0624
 30
0.0000
  0
SEQEND
  8
0
  0
POLYLINE
  8
22
 66
1
 10
0.0000
 20
0.0000
 30
0.0000
 40
0.0889
 41
0.0889
 70
0
  0
VERTEX
  8
22
 10
8.6319
 20
4.1068
 30
0.0000
 42
1.0000
  0
VERTEX
  8
22
 10
8.6319
 20
4.0179
 30
0.0000
  0
SEQEND
  8
0
  0
POLYLINE
  8
22
 66
1
 10
0.0000
 20
0.0000
 30
0.0000
 40
0.0889
 41
0.0889
 70
0
  0
VERTEX
  8
22
 10
9.2759
 20
4.0179
 30
0.0000
 42
1.0000
  0
VERTEX
  8
22
 10
9.2759
 20
4.1068
 30
0.0000
  0
SEQEND
  8
0
  0
POLYLINE
  8
22
 66
1
 10
0.0000
 20
0.0000
 30
0.0000
 40
0.1778
 41
0.1778
 70
0
  0
VERTEX
  8
22
 10
8.6319
 20
4.0624
 30
0.0000
  0
VERTEX
  8
22
 10
8.4709
 20
4.2234
 30
0.0000
  0
SEQEND
  8
0
  0
POLYLINE
  8
22
 66
1
 10
0.0000
 20
0.0000
 30
0.0000
 40
0.0889
 41
0.0889
 70
0
  0
VERTEX
  8
22
 10
8.5023
 20
4.2548
 30
0.0000
 42
1.0000
  0
VERTEX
  8
22
 10
8.4395
 20
4.1919
 30
0.0000
  0
SEQEND
  8
0
  0
POLYLINE
  8
22
 66
1
 10
0.0000
 20
0.0000
 30
0.0000
 40
0.0889
 41
0.0889
 70
0
  0
VERTEX
  8
22
 10
8.6005
 20
4.0309
 30
0.0000
 42
1.0000
  0
VERTEX
  8
22
 10
8.6633
 20
4.0938
 30
0.0000
  0
SEQEND
  8
0
  0
POLYLINE
  8
22
 66
1
 10
0.0000
 20
0.0000
 30
0.0000
 40
0.1778
 41
0.1778
 70
0
  0
VERTEX
  8
22
 10
8.4709
 20
4.2234
 30
0.0000
  0
VERTEX
  8
22
 10
8.4709
 20
4.5454
 30
0.0000
  0
SEQEND
  8
0
  0
POLYLINE
  8
22
 66
1
 10
0.0000
 20
0.0000
 30
0.0000
 40
0.0889
 41
0.0889
 70
0
  0
VERTEX
  8
22
 10
8.5153
 20
4.5454
 30
0.0000
 42
1.0000
  0
VERTEX
  8
22
 10
8.4265
 20
4.5454
 30
0.0000
  0
SEQEND
  8
0
  0
POLYLINE
  8
22
 66
1
 10
0.0000
 20
0.0000
 30
0.0000
 40
0.0889
 41
0.0889
 70
0
  0
VERTEX
  8
22
 10
8.4265
 20
4.2234
 30
0.0000
 42
1.0000
  0
VERTEX
  8
22
 10
8.5153
 20
4.2234
 30
0.0000
  0
SEQEND
  8
0
  0
POLYLINE
  8
22
 66
1
 10
0.0000
 20
0.0000
 30
0.0000
 40
0.1778
 41
0.1778
 70
0
  0
VERTEX
  8
22
 10
8.4709
 20
4.5454
 30
0.0000
  0
VERTEX
  8
22
 10
8.6319
 20
4.7064
 30
0.0000
  0
SEQEND
  8
0
  0
POLYLINE
  8
22
 66
1
 10
0.0000
 20
0.0000
 30
0.0000
 40
0.0889
 41
0.0889
 70
0
  0
VERTEX
  8
22
 10
8.6633
 20
4.6749
 30
0.0000
 42
1.0000
  0
VERTEX
  8
22
 10
8.6005
 20
4.7378
 30
0.0000
  0
SEQEND
  8
0
  0
POLYLINE
  8
22
 66
1
 10
0.0000
 20
0.0000
 30
0.0000
 40
0.0889
 41
0.0889
 70
0
  0
VERTEX
  8
22
 10
8.4395
 20
4.5768
 30
0.0000
 42
1.0000
  0
VERTEX
  8
22
 10
8.5023
 20
4.5139
 30
0.0000
  0
SEQEND
  8
0
  0
POLYLINE
  8
22
 66
1
 10
0.0000
 20
0.0000
 30
0.0000
 40
0.1778
 41
0.1778
 70
0
  0
VERTEX
  8
22
 10
9.2759
 20
5.7588
 30
0.0000
  0
VERTEX
  8
22
 10
9.4369
 20
5.5978
 30
0.0000
  0
SEQEND
  8
0
  0
POLYLINE
  8
22
 66
1
 10
0.0000
 20
0.0000
 30
0.0000
 40
0.0889
 41
0.0889
 70
0
  0
VERTEX
  8
22
 10
9.4055
 20
5.5664
 30
0.0000
 42
1.0000
  0
VERTEX
  8
22
 10
9.4684
 20
5.6293
 30
0.0000
  0
SEQEND
  8
0
  0
POLYLINE
  8
22
 66
1
 10
0.0000
 20
0.0000
 30
0.0000
 40
0.0889
 41
0.0889
 70
0
  0
VERTEX
  8
22
 10
9.3073
 20
5.7903
 30
0.0000
 42
1.0000
  0
VERTEX
  8
22
 10
9.2445
 20
5.7274
 30
0.0000
  0
SEQEND
  8
0
  0
POLYLINE
  8
22
 66
1
 10
0.0000
 20
0.0000
 30
0.0000
 40
0.1778
 41
0.1778
 70
0
  0
VERTEX
  8
22
 10
9.4369
 20
5.5978
 30
0.0000
  0
VERTEX
  8
22
 10
9.4369
 20
5.2758
 30
0.0000
  0
SEQEND
  8
0
  0
POLYLINE
  8
22
 66
1
 10
0.0000
 20
0.0000
 30
0.0000
 40
0.0889
 41
0.0889
 70
0
  0
VERTEX
  8
22
 10
9.3925
 20
5.2758
 30
0.0000
 42
1.0000
  0
VERTEX
  8
22
 10
9.4814
 20
5.2758
 30
0.0000
  0
SEQEND
  8
0
  0
POLYLINE
  8
22
 66
1
 10
0.0000
 20
0.0000
 30
0.0000
 40
0.0889
 41
0.0889
 70
0
  0
VERTEX
  8
22
 10
9.4814
 20
5.5978
 30
0.0000
 42
1.0000
  0
VERTEX
  8
22
 10
9.3925
 20
5.5978
 30
0.0000
  0
SEQEND
  8
0
  0
POLYLINE
  8
22
 66
1
 10
0.0000
 20
0.0000
 30
0.0000
 40
0.1778
 41
0.1778
 70
0
  0
VERTEX
  8
22
 10
9.4369
 20
5.2758
 30
0.0000
  0
VERTEX
  8
22
 10
9.2759
 20
5.1148
 30
0.0000
  0
SEQEND
  8
0
  0
POLYLINE
  8
22
 66
1
 10
0.0000
 20
0.0000
 30
0.0000
 40
0.0889
 41
0.0889
 70
0
  0
VERTEX
  8
22
 10
9.2445
 20
5.1462
 30
0.0000
 42
1.0000
  0
VERTEX
  8
22
 10
9.3073
 20
5.0834
 30
0.0000
  0
SEQEND
  8
0
  0
POLYLINE
  8
22
 66
1
 10
0.0000
 20
0.0000
 30
0.0000
 40
0.0889
 41
0.0889
 70
0
  0
VERTEX
  8
22
 10
9.4684
 20
5.2444
 30
0.0000
 42
1.0000
  0
VERTEX
  8
22
 10
9.4055
 20
5.3073
 30
0.0000
  0
SEQEND
  8
0
  0
POLYLINE
  8
22
 66
1
 10
0.0000
 20
0.0000
 30
0.0000
 40
0.1778
 41
0.1778
 70
0
  0
VERTEX
  8
22
 10
9.2759
 20
5.1148
 30
0.0000
  0
VERTEX
  8
22
 10
8.6319
 20
5.1148
 30
0.0000
  0
SEQEND
  8
0
  0
POLYLINE
  8
22
 66
1
 10
0.0000
 20
0.0000
 30
0.0000
 40
0.0889
 41
0.0889
 70
0
  0
VERTEX
  8
22
 10
8.6319
 20
5.1593
 30
0.0000
 42
1.0000
  0
VERTEX
  8
22
 10
8.6319
 20
5.0704
 30
0.0000
  0
SEQEND
  8
0
  0
POLYLINE
  8
22
 66
1
 10
0.0000
 20
0.0000
 30
0.0000
 40
0.0889
 41
0.0889
 70
0
  0
VERTEX
  8
22
 10
9.2759
 20
5.0704
 30
0.0000
 42
1.0000
  0
VERTEX
  8
22
 10
9.2759
 20
5.1593
 30
0.0000
  0
SEQEND
  8
0
  0
POLYLINE
  8
22
 66
1
 10
0.0000
 20
0.0000
 30
0.0000
 40
0.1778
 41
0.1778
 70
0
  0
VERTEX
  8
22
 10
8.6319
 20
5.1148
 30
0.0000
  0
VERTEX
  8
22
 10
8.4709
 20
5.2758
 30
0.0000
  0
SEQEND
  8
0
  0
POLYLINE
  8
22
 66
1
 10
0.0000
 20
0.0000
 30
0.0000
 40
0.0889
 41
0.0889
 70
0
  0
VERTEX
  8
22
 10
8.5023
 20
5.3073
 30
0.0000
 42
1.0000
  0
VERTEX
  8
22
 10
8.4395
 20
5.2444
 30
0.0000
  0
SEQEND
  8
0
  0
POLYLINE
  8
22
 66
1
 10
0.0000
 20
0.0000
 30
0.0000
 40
0.0889
 41
0.0889
 70
0
  0
VERTEX
  8
22
 10
8.6005
 20
5.0834
 30
0.0000
 42
1.0000
  0
VERTEX
  8
22
 10
8.6633
 20
5.1462
 30
0.0000
  0
SEQEND
  8
0
  0
POLYLINE
  8
22
 66
1
 10
0.0000
 20
0.0000
 30
0.0000
 40
0.1778
 41
0.1778
 70
0
  0
VERTEX
  8
22
 10
8.4709
 20
5.2758
 30
0.0000
  0
VERTEX
  8
22
 10
8.4709
 20
5.5978
 30
0.0000
  0
SEQEND
  8
0
  0
POLYLINE
  8
22
 66
1
 10
0.0000
 20
0.0000
 30
0.0000
 40
0.0889
 41
0.0889
 70
0
  0
VERTEX
  8
22
 10
8.5153
 20
5.5978
 30
0.0000
 42
1.0000
  0
VERTEX
  8
22
 10
8.4265
 20
5.5978
 30
0.0000
  0
SEQEND
  8
0
  0
POLYLINE
  8
22
 66
1
 10
0.0000
 20
0.0000
 30
0.0000
 40
0.0889
 41
0.0889
 70
0
  0
VERTEX
  8
22
 10
8.4265
 20
5.2758
 30
0.0000
 42
1.0000
  0
VERTEX
  8
22
 10
8.5153
 20
5.2758
 30
0.0000
  0
SEQEND
  8
0
  0
POLYLINE
  8
22
 66
1
 10
0.0000
 20
0.0000
 30
0.0000
 40
0.1778
 41
0.1778
 70
0
  0
VERTEX
  8
22
 10
8.4709
 20
5.5978
 30
0.0000
  0
VERTEX
  8
22
 10
8.6319
 20
5.7588
 30
0.0000
  0
SEQEND
  8
0
  0
POLYLINE
  8
22
 66
1
 10
0.0000
 20
0.0000
 30
0.0000
 40
0.0889
 41
0.0889
 70
0
  0
VERTEX
  8
22
 10
8.6633
 20
5.7274
 30
0.0000
 42
1.0000
  0
VERTEX
  8
22
 10
8.6005
 20
5.7903
 30
0.0000
  0
SEQEND
  8
0
  0
POLYLINE
  8
22
 66
1
 10
0.0000
 20
0.0000
 30
0.0000
 40
0.0889
 41
0.0889
 70
0
  0
VERTEX
  8
22
 10
8.4395
 20
5.6293
 30
0.0000
 42
1.0000
  0
VERTEX
  8
22
 10
8.5023
 20
5.5664
 30
0.0000
  0
SEQEND
  8
0
  0
POINT
  8
24
 10
7.6200
 20
10.1600
 30
0.0000
  0
POLYLINE
  8
22
 66
1
 10
0.0000
 20
0.0000
 30
0.0000
 40
0.2032
 41
0.2032
 70
0
  0
VERTEX
  8
22
 10
6.3500
 20
10.7950
 30
0.0000
  0
VERTEX
  8
22
 10
6.9850
 20
11.4300
 30
0.0000
  0
SEQEND
  8
0
  0
POLYLINE
  8
22
 66
1
 10
0.0000
 20
0.0000
 30
0.0000
 40
0.1016
 41
0.1016
 70
0
  0
VERTEX
  8
22
 10
7.0209
 20
11.3941
 30
0.0000
 42
1.0000
  0
VERTEX
  8
22
 10
6.9491
 20
11.4659
 30
0.0000
  0
SEQEND
  8
0
  0
POLYLINE
  8
22
 66
1
 10
0.0000
 20
0.0000
 30
0.0000
 40
0.1016
 41
0.1016
 70
0
  0
VERTEX
  8
22
 10
6.3141
 20
10.8309
 30
0.0000
 42
1.0000
  0
VERTEX
  8
22
 10
6.3859
 20
10.7591
 30
0.0000
  0
SEQEND
  8
0
  0
POLYLINE
  8
22
 66
1
 10
0.0000
 20
0.0000
 30
0.0000
 40
0.2032
 41
0.2032
 70
0
  0
VERTEX
  8
22
 10
6.9850
 20
11.4300
 30
0.0000
  0
VERTEX
  8
22
 10
8.2550
 20
11.4300
 30
0.0000
  0
SEQEND
  8
0
  0
POLYLINE
  8
22
 66
1
 10
0.0000
 20
0.0000
 30
0.0000
 40
0.1016
 41
0.1016
 70
0
  0
VERTEX
  8
22
 10
8.2550
 20
11.3792
 30
0.0000
 42
1.0000
  0
VERTEX
  8
22
 10
8.2550
 20
11.4808
 30
0.0000
  0
SEQEND
  8
0
  0
POLYLINE
  8
22
 66
1
 10
0.0000
 20
0.0000
 30
0.0000
 40
0.1016
 41
0.1016
 70
0
  0
VERTEX
  8
22
 10
6.9850
 20
11.4808
 30
0.0000
 42
1.0000
  0
VERTEX
  8
22
 10
6.9850
 20
11.3792
 30
0.0000
  0
SEQEND
  8
0
  0
POLYLINE
  8
22
 66
1
 10
0.0000
 20
0.0000
 30
0.0000
 40
0.2032
 41
0.2032
 70
0
  0
VERTEX
  8
22
 10
8.2550
 20
11.4300
 30
0.0000
  0
VERTEX
  8
22
 10
8.8900
 20
10.7950
 30
0.0000
  0
SEQEND
  8
0
  0
POLYLINE
  8
22
 66
1
 10
0.0000
 20
0.0000
 30
0.0000
 40
0.1016
 41
0.1016
 70
0
  0
VERTEX
  8
22
 10
8.8541
 20
10.7591
 30
0.0000
 42
1.0000
  0
VERTEX
  8
22
 10
8.9259
 20
10.8309
 30
0.0000
  0
SEQEND
  8
0
  0
POLYLINE
  8
22
 66
1
 10
0.0000
 20
0.0000
 30
0.0000
 40
0.1016
 41
0.1016
 70
0
  0
VERTEX
  8
22
 10
8.2909
 20
11.4659
 30
0.0000
 42
1.0000
  0
VERTEX
  8
22
 10
8.2191
 20
11.3941
 30
0.0000
  0
SEQEND
  8
0
  0
POLYLINE
  8
22
 66
1
 10
0.0000
 20
0.0000
 30
0.0000
 40
0.2032
 41
0.2032
 70
0
  0
VERTEX
  8
22
 10
8.8900
 20
10.7950
 30
0.0000
  0
VERTEX
  8
22
 10
8.8900
 20
9.5250
 30
0.0000
  0
SEQEND
  8
0
  0
POLYLINE
  8
22
 66
1
 10
0.0000
 20
0.0000
 30
0.0000
 40
0.1016
 41
0.1016
 70
0
  0
VERTEX
  8
22
 10
8.8392
 20
9.5250
 30
0.0000
 42
1.0000
  0
VERTEX
  8
22
 10
8.9408
 20
9.5250
 30
0.0000
  0
SEQEND
  8
0
  0
POLYLINE
  8
22
 66
1
 10
0.0000
 20
0.0000
 30
0.0000
 40
0.1016
 41
0.1016
 70
0
  0
VERTEX
  8
22
 10
8.9408
 20
10.7950
 30
0.0000
 42
1.0000
  0
VERTEX
  8
22
 10
8.8392
 20
10.7950
 30
0.0000
  0
SEQEND
  8
0
  0
POLYLINE
  8
22
 66
1
 10
0.0000
 20
0.0000
 30
0.0000
 40
0.2032
 41
0.2032
 70
0
  0
VERTEX
  8
22
 10
8.8900
 20
9.5250
 30
0.0000
  0
VERTEX
  8
22
 10
8.2550
 20
8.8900
 30
0.0000
  0
SEQEND
  8
0
  0
POLYLINE
  8
22
 66
1
 10
0.0000
 20
0.0000
 30
0.0000
 40
0.1016
 41
0.1016
 70
0
  0
VERTEX
  8
22
 10
8.2191
 20
8.9259
 30
0.0000
 42
1.0000
  0
VERTEX
  8
22
 10
8.2909
 20
8.8541
 30
0.0000
  0
SEQEND
  8
0
  0
POLYLINE
  8
22
 66
1
 10
0.0000
 20
0.0000
 30
0.0000
 40
0.1016
 41
0.1016
 70
0
  0
VERTEX
  8
22
 10
8.9259
 20
9.4891
 30
0.0000
 42
1.0000
  0
VERTEX
  8
22
 10
8.8541
 20
9.5609
 30
0.0000
  0
SEQEND
  8
0
  0
POLYLINE
  8
22
 66
1
 10
0.0000
 20
0.0000
 30
0.0000
 40
0.2032
 41
0.2032
 70
0
  0
VERTEX
  8
22
 10
8.2550
 20
8.8900
 30
0.0000
  0
VERTEX
  8
22
 10
6.9850
 20
8.8900
 30
0.0000
  0
SEQEND
  8
0
  0
POLYLINE
  8
22
 66
1
 10
0.0000
 20
0.0000
 30
0.0000
 40
0.1016
 41
0.1016
 70
0
  0
VERTEX
  8
22
 10
6.9850
 20
8.9408
 30
0.0000
 42
1.0000
  0
VERTEX
  8
22
 10
6.9850
 20
8.8392
 30
0.0000
  0
SEQEND
  8
0
  0
POLYLINE
  8
22
 66
1
 10
0.0000
 20
0.0000
 30
0.0000
 40
0.1016
 41
0.1016
 70
0
  0
VERTEX
  8
22
 10
8.2550
 20
8.8392
 30
0.0000
 42
1.0000
  0
VERTEX
  8
22
 10
8.2550
 20
8.9408
 30
0.0000
  0
SEQEND
  8
0
  0
POLYLINE
  8
22
 66
1
 10
0.0000
 20
0.0000
 30
0.0000
 40
0.2032
 41
0.2032
 70
0
  0
VERTEX
  8
22
 10
6.9850
 20
8.8900
 30
0.0000
  0
VERTEX
  8
22
 10
6.3500
 20
9.5250
 30
0.0000
  0
SEQEND
  8
0
  0
POLYLINE
  8
22
 66
1
 10
0.0000
 20
0.0000
 30
0.0000
 40
0.1016
 41
0.1016
 70
0
  0
VERTEX
  8
22
 10
6.3859
 20
9.5609
 30
0.0000
 42
1.0000
  0
VERTEX
  8
22
 10
6.3141
 20
9.4891
 30
0.0000
  0
SEQEND
  8
0
  0
POLYLINE
  8
22
 66
1
 10
0.0000
 20
0.0000
 30
0.0000
 40
0.1016
 41
0.1016
 70
0
  0
VERTEX
  8
22
 10
6.9491
 20
8.8541
 30
0.0000
 42
1.0000
  0
VERTEX
  8
22
 10
7.0209
 20
8.9259
 30
0.0000
  0
SEQEND
  8
0
  0
POLYLINE
  8
22
 66
1
 10
0.0000
 20
0.0000
 30
0.0000
 40
0.2032
 41
0.2032
 70
0
  0
VERTEX
  8
22
 10
6.3500
 20
9.5250
 30
0.0000
  0
VERTEX
  8
22
 10
6.3500
 20
10.7950
 30
0.0000
  0
SEQEND
  8
0
  0
POLYLINE
  8
22
 66
1
 10
0.0000
 20
0.0000
 30
0.0000
 40
0.1016
 41
0.1016
 70
0
  0
VERTEX
  8
22
 10
6.4008
 20
10.7950
 30
0.0000
 42
1.0000
  0
VERTEX
  8
22
 10
6.2992
 20
10.7950
 30
0.0000
  0
SEQEND
  8
0
  0
POLYLINE
  8
22
 66
1
 10
0.0000
 20
0.0000
 30
0.0000
 40
0.1016
 41
0.1016
 70
0
  0
VERTEX
  8
22
 10
6.2992
 20
9.5250
 30
0.0000
 42
1.0000
  0
VERTEX
  8
22
 10
6.4008
 20
9.5250
 30
0.0000
  0
SEQEND
  8
0
  0
INSERT
  8
17
  2
ROUNDP
 10
7.6200
 20
10.1600
 30
0.0000
 41
1.8796
 42
1.8796
 43
1.0000
 50
90.0000
  0
INSERT
  8
17
  2
ROUNDP
 10
7.6200
 20
10.1600
 30
0.0000
 41
1.8796
 42
1.8796
 43
1.0000
 50
90.0000
  0
POINT
  8
23
 10
13.9700
 20
1.2700
 30
0.0000
  0
POLYLINE
  8
21
 66
1
 10
0.0000
 20
0.0000
 30
0.0000
 40
0.2032
 41
0.2032
 70
0
  0
VERTEX
  8
21
 10
2.5400
 20
0.6350
 30
0.0000
  0
VERTEX
  8
21
 10
1.9050
 20
0.0000
 30
0.0000
  0
SEQEND
  8
0
  0
POLYLINE
  8
21
 66
1
 10
0.0000
 20
0.0000
 30
0.0000
 40
0.1016
 41
0.1016
 70
0
  0
VERTEX
  8
21
 10
1.8691
 20
0.0359
 30
0.0000
 42
1.0000
  0
VERTEX
  8
21
 10
1.9409
 20
-0.0359
 30
0.0000
  0
SEQEND
  8
0
  0
POLYLINE
  8
21
 66
1
 10
0.0000
 20
0.0000
 30
0.0000
 40
0.1016
 41
0.1016
 70
0
  0
VERTEX
  8
21
 10
2.5759
 20
0.5991
 30
0.0000
 42
1.0000
  0
VERTEX
  8
21
 10
2.5041
 20
0.6709
 30
0.0000
  0
SEQEND
  8
0
  0
POLYLINE
  8
21
 66
1
 10
0.0000
 20
0.0000
 30
0.0000
 40
0.2032
 41
0.2032
 70
0
  0
VERTEX
  8
21
 10
1.9050
 20
0.0000
 30
0.0000
  0
VERTEX
  8
21
 10
0.6350
 20
0.0000
 30
0.0000
  0
SEQEND
  8
0
  0
POLYLINE
  8
21
 66
1
 10
0.0000
 20
0.0000
 30
0.0000
 40
0.1016
 41
0.1016
 70
0
  0
VERTEX
  8
21
 10
0.6350
 20
0.0508
 30
0.0000
 42
1.0000
  0
VERTEX
  8
21
 10
0.6350
 20
-0.0508
 30
0.0000
  0
SEQEND
  8
0
  0
POLYLINE
  8
21
 66
1
 10
0.0000
 20
0.0000
 30
0.0000
 40
0.1016
 41
0.1016
 70
0
  0
VERTEX
  8
21
 10
1.9050
 20
-0.0508
 30
0.0000
 42
1.0000
  0
VERTEX
  8
21
 10
1.9050
 20
0.0508
 30
0.0000
  0
SEQEND
  8
0
  0
POLYLINE
  8
21
 66
1
 10
0.0000
 20
0.0000
 30
0.0000
 40
0.2032
 41
0.2032
 70
0
  0
VERTEX
  8
21
 10
0.6350
 20
0.0000
 30
0.0000
  0
VERTEX
  8
21
 10
0.0000
 20
0.6350
 30
0.0000
  0
SEQEND
  8
0
  0
POLYLINE
  8
21
 66
1
 10
0.0000
 20
0.0000
 30
0.0000
 40
0.1016
 41
0.1016
 70
0
  0
VERTEX
  8
21
 10
0.0359
 20
0.6709
 30
0.0000
 42
1.0000
  0
VERTEX
  8
21
 10
-0.0359
 20
0.5991
 30
0.0000
  0
SEQEND
  8
0
  0
POLYLINE
  8
21
 66
1
 10
0.0000
 20
0.0000
 30
0.0000
 40
0.1016
 41
0.1016
 70
0
  0
VERTEX
  8
21
 10
0.5991
 20
-0.0359
 30
0.0000
 42
1.0000
  0
VERTEX
  8
21
 10
0.6709
 20
0.0359
 30
0.0000
  0
SEQEND
  8
0
  0
POLYLINE
  8
21
 66
1
 10
0.0000
 20
0.0000
 30
0.0000
 40
0.2032
 41
0.2032
 70
0
  0
VERTEX
  8
21
 10
0.0000
 20
1.9050
 30
0.0000
  0
VERTEX
  8
21
 10
0.6350
 20
2.5400
 30
0.0000
  0
SEQEND
  8
0
  0
POLYLINE
  8
21
 66
1
 10
0.0000
 20
0.0000
 30
0.0000
 40
0.1016
 41
0.1016
 70
0
  0
VERTEX
  8
21
 10
0.6709
 20
2.5041
 30
0.0000
 42
1.0000
  0
VERTEX
  8
21
 10
0.5991
 20
2.5759
 30
0.0000
  0
SEQEND
  8
0
  0
POLYLINE
  8
21
 66
1
 10
0.0000
 20
0.0000
 30
0.0000
 40
0.1016
 41
0.1016
 70
0
  0
VERTEX
  8
21
 10
-0.0359
 20
1.9409
 30
0.0000
 42
1.0000
  0
VERTEX
  8
21
 10
0.0359
 20
1.8691
 30
0.0000
  0
SEQEND
  8
0
  0
POLYLINE
  8
21
 66
1
 10
0.0000
 20
0.0000
 30
0.0000
 40
0.2032
 41
0.2032
 70
0
  0
VERTEX
  8
21
 10
0.6350
 20
2.5400
 30
0.0000
  0
VERTEX
  8
21
 10
1.9050
 20
2.5400
 30
0.0000
  0
SEQEND
  8
0
  0
POLYLINE
  8
21
 66
1
 10
0.0000
 20
0.0000
 30
0.0000
 40
0.1016
 41
0.1016
 70
0
  0
VERTEX
  8
21
 10
1.9050
 20
2.4892
 30
0.0000
 42
1.0000
  0
VERTEX
  8
21
 10
1.9050
 20
2.5908
 30
0.0000
  0
SEQEND
  8
0
  0
POLYLINE
  8
21
 66
1
 10
0.0000
 20
0.0000
 30
0.0000
 40
0.1016
 41
0.1016
 70
0
  0
VERTEX
  8
21
 10
0.6350
 20
2.5908
 30
0.0000
 42
1.0000
  0
VERTEX
  8
21
 10
0.6350
 20
2.4892
 30
0.0000
  0
SEQEND
  8
0
  0
POLYLINE
  8
21
 66
1
 10
0.0000
 20
0.0000
 30
0.0000
 40
0.2032
 41
0.2032
 70
0
  0
VERTEX
  8
21
 10
1.9050
 20
2.5400
 30
0.0000
  0
VERTEX
  8
21
 10
2.5400
 20
1.9050
 30
0.0000
  0
SEQEND
  8
0
  0
POLYLINE
  8
21
 66
1
 10
0.0000
 20
0.0000
 30
0.0000
 40
0.1016
 41
0.1016
 70
0
  0
VERTEX
  8
21
 10
2.5041
 20
1.8691
 30
0.0000
 42
1.0000
  0
VERTEX
  8
21
 10
2.5759
 20
1.9409
 30
0.0000
  0
SEQEND
  8
0
  0
POLYLINE
  8
21
 66
1
 10
0.0000
 20
0.0000
 30
0.0000
 40
0.1016
 41
0.1016
 70
0
  0
VERTEX
  8
21
 10
1.9409
 20
2.5759
 30
0.0000
 42
1.0000
  0
VERTEX
  8
21
 10
1.8691
 20
2.5041
 30
0.0000
  0
SEQEND
  8
0
  0
POLYLINE
  8
21
 66
1
 10
0.0000
 20
0.0000
 30
0.0000
 40
0.2032
 41
0.2032
 70
0
  0
VERTEX
  8
21
 10
6.9850
 20
0.0000
 30
0.0000
  0
VERTEX
  8
21
 10
5.7150
 20
0.0000
 30
0.0000
  0
SEQEND
  8
0
  0
POLYLINE
  8
21
 66
1
 10
0.0000
 20
0.0000
 30
0.0000
 40
0.1016
 41
0.1016
 70
0
  0
VERTEX
  8
21
 10
5.7150
 20
0.0508
 30
0.0000
 42
1.0000
  0
VERTEX
  8
21
 10
5.7150
 20
-0.0508
 30
0.0000
  0
SEQEND
  8
0
  0
POLYLINE
  8
21
 66
1
 10
0.0000
 20
0.0000
 30
0.0000
 40
0.1016
 41
0.1016
 70
0
  0
VERTEX
  8
21
 10
6.9850
 20
-0.0508
 30
0.0000
 42
1.0000
  0
VERTEX
  8
21
 10
6.9850
 20
0.0508
 30
0.0000
  0
SEQEND
  8
0
  0
POLYLINE
  8
21
 66
1
 10
0.0000
 20
0.0000
 30
0.0000
 40
0.2032
 41
0.2032
 70
0
  0
VERTEX
  8
21
 10
5.7150
 20
0.0000
 30
0.0000
  0
VERTEX
  8
21
 10
5.0800
 20
0.6350
 30
0.0000
  0
SEQEND
  8
0
  0
POLYLINE
  8
21
 66
1
 10
0.0000
 20
0.0000
 30
0.0000
 40
0.1016
 41
0.1016
 70
0
  0
VERTEX
  8
21
 10
5.1159
 20
0.6709
 30
0.0000
 42
1.0000
  0
VERTEX
  8
21
 10
5.0441
 20
0.5991
 30
0.0000
  0
SEQEND
  8
0
  0
POLYLINE
  8
21
 66
1
 10
0.0000
 20
0.0000
 30
0.0000
 40
0.1016
 41
0.1016
 70
0
  0
VERTEX
  8
21
 10
5.6791
 20
-0.0359
 30
0.0000
 42
1.0000
  0
VERTEX
  8
21
 10
5.7509
 20
0.0359
 30
0.0000
  0
SEQEND
  8
0
  0
POLYLINE
  8
21
 66
1
 10
0.0000
 20
0.0000
 30
0.0000
 40
0.2032
 41
0.2032
 70
0
  0
VERTEX
  8
21
 10
5.0800
 20
1.9050
 30
0.0000
  0
VERTEX
  8
21
 10
5.7150
 20
2.5400
 30
0.0000
  0
SEQEND
  8
0
  0
POLYLINE
  8
21
 66
1
 10
0.0000
 20
0.0000
 30
0.0000
 40
0.1016
 41
0.1016
 70
0
  0
VERTEX
  8
21
 10
5.7509
 20
2.5041
 30
0.0000
 42
1.0000
  0
VERTEX
  8
21
 10
5.6791
 20
2.5759
 30
0.0000
  0
SEQEND
  8
0
  0
POLYLINE
  8
21
 66
1
 10
0.0000
 20
0.0000
 30
0.0000
 40
0.1016
 41
0.1016
 70
0
  0
VERTEX
  8
21
 10
5.0441
 20
1.9409
 30
0.0000
 42
1.0000
  0
VERTEX
  8
21
 10
5.1159
 20
1.8691
 30
0.0000
  0
SEQEND
  8
0
  0
POLYLINE
  8
21
 66
1
 10
0.0000
 20
0.0000
 30
0.0000
 40
0.2032
 41
0.2032
 70
0
  0
VERTEX
  8
21
 10
5.0800
 20
0.6350
 30
0.0000
  0
VERTEX
  8
21
 10
4.4450
 20
0.0000
 30
0.0000
  0
SEQEND
  8
0
  0
POLYLINE
  8
21
 66
1
 10
0.0000
 20
0.0000
 30
0.0000
 40
0.1016
 41
0.1016
 70
0
  0
VERTEX
  8
21
 10
4.4091
 20
0.0359
 30
0.0000
 42
1.0000
  0
VERTEX
  8
21
 10
4.4809
 20
-0.0359
 30
0.0000
  0
SEQEND
  8
0
  0
POLYLINE
  8
21
 66
1
 10
0.0000
 20
0.0000
 30
0.0000
 40
0.1016
 41
0.1016
 70
0
  0
VERTEX
  8
21
 10
5.1159
 20
0.5991
 30
0.0000
 42
1.0000
  0
VERTEX
  8
21
 10
5.0441
 20
0.6709
 30
0.0000
  0
SEQEND
  8
0
  0
POLYLINE
  8
21
 66
1
 10
0.0000
 20
0.0000
 30
0.0000
 40
0.2032
 41
0.2032
 70
0
  0
VERTEX
  8
21
 10
4.4450
 20
0.0000
 30
0.0000
  0
VERTEX
  8
21
 10
3.1750
 20
0.0000
 30
0.0000
  0
SEQEND
  8
0
  0
POLYLINE
  8
21
 66
1
 10
0.0000
 20
0.0000
 30
0.0000
 40
0.1016
 41
0.1016
 70
0
  0
VERTEX
  8
21
 10
3.1750
 20
0.0508
 30
0.0000
 42
1.0000
  0
VERTEX
  8
21
 10
3.1750
 20
-0.0508
 30
0.0000
  0
SEQEND
  8
0
  0
POLYLINE
  8
21
 66
1
 10
0.0000
 20
0.0000
 30
0.0000
 40
0.1016
 41
0.1016
 70
0
  0
VERTEX
  8
21
 10
4.4450
 20
-0.0508
 30
0.0000
 42
1.0000
  0
VERTEX
  8
21
 10
4.4450
 20
0.0508
 30
0.0000
  0
SEQEND
  8
0
  0
POLYLINE
  8
21
 66
1
 10
0.0000
 20
0.0000
 30
0.0000
 40
0.2032
 41
0.2032
 70
0
  0
VERTEX
  8
21
 10
3.1750
 20
0.0000
 30
0.0000
  0
VERTEX
  8
21
 10
2.5400
 20
0.6350
 30
0.0000
  0
SEQEND
  8
0
  0
POLYLINE
  8
21
 66
1
 10
0.0000
 20
0.0000
 30
0.0000
 40
0.1016
 41
0.1016
 70
0
  0
VERTEX
  8
21
 10
2.5759
 20
0.6709
 30
0.0000
 42
1.0000
  0
VERTEX
  8
21
 10
2.5041
 20
0.5991
 30
0.0000
  0
SEQEND
  8
0
  0
POLYLINE
  8
21
 66
1
 10
0.0000
 20
0.0000
 30
0.0000
 40
0.1016
 41
0.1016
 70
0
  0
VERTEX
  8
21
 10
3.1391
 20
-0.0359
 30
0.0000
 42
1.0000
  0
VERTEX
  8
21
 10
3.2109
 20
0.0359
 30
0.0000
  0
SEQEND
  8
0
  0
POLYLINE
  8
21
 66
1
 10
0.0000
 20
0.0000
 30
0.0000
 40
0.2032
 41
0.2032
 70
0
  0
VERTEX
  8
21
 10
2.5400
 20
1.9050
 30
0.0000
  0
VERTEX
  8
21
 10
3.1750
 20
2.5400
 30
0.0000
  0
SEQEND
  8
0
  0
POLYLINE
  8
21
 66
1
 10
0.0000
 20
0.0000
 30
0.0000
 40
0.1016
 41
0.1016
 70
0
  0
VERTEX
  8
21
 10
3.2109
 20
2.5041
 30
0.0000
 42
1.0000
  0
VERTEX
  8
21
 10
3.1391
 20
2.5759
 30
0.0000
  0
SEQEND
  8
0
  0
POLYLINE
  8
21
 66
1
 10
0.0000
 20
0.0000
 30
0.0000
 40
0.1016
 41
0.1016
 70
0
  0
VERTEX
  8
21
 10
2.5041
 20
1.9409
 30
0.0000
 42
1.0000
  0
VERTEX
  8
21
 10
2.5759
 20
1.8691
 30
0.0000
  0
SEQEND
  8
0
  0
POLYLINE
  8
21
 66
1
 10
0.0000
 20
0.0000
 30
0.0000
 40
0.2032
 41
0.2032
 70
0
  0
VERTEX
  8
21
 10
3.1750
 20
2.5400
 30
0.0000
  0
VERTEX
  8
21
 10
4.4450
 20
2.5400
 30
0.0000
  0
SEQEND
  8
0
  0
POLYLINE
  8
21
 66
1
 10
0.0000
 20
0.0000
 30
0.0000
 40
0.1016
 41
0.1016
 70
0
  0
VERTEX
  8
21
 10
4.4450
 20
2.4892
 30
0.0000
 42
1.0000
  0
VERTEX
  8
21
 10
4.4450
 20
2.5908
 30
0.0000
  0
SEQEND
  8
0
  0
POLYLINE
  8
21
 66
1
 10
0.0000
 20
0.0000
 30
0.0000
 40
0.1016
 41
0.1016
 70
0
  0
VERTEX
  8
21
 10
3.1750
 20
2.5908
 30
0.0000
 42
1.0000
  0
VERTEX
  8
21
 10
3.1750
 20
2.4892
 30
0.0000
  0
SEQEND
  8
0
  0
POLYLINE
  8
21
 66
1
 10
0.0000
 20
0.0000
 30
0.0000
 40
0.2032
 41
0.2032
 70
0
  0
VERTEX
  8
21
 10
4.4450
 20
2.5400
 30
0.0000
  0
VERTEX
  8
21
 10
5.0800
 20
1.9050
 30
0.0000
  0
SEQEND
  8
0
  0
POLYLINE
  8
21
 66
1
 10
0.0000
 20
0.0000
 30
0.0000
 40
0.1016
 41
0.1016
 70
0
  0
VERTEX
  8
21
 10
5.0441
 20
1.8691
 30
0.0000
 42
1.0000
  0
VERTEX
  8
21
 10
5.1159
 20
1.9409
 30
0.0000
  0
SEQEND
  8
0
  0
POLYLINE
  8
21
 66
1
 10
0.0000
 20
0.0000
 30
0.0000
 40
0.1016
 41
0.1016
 70
0
  0
VERTEX
  8
21
 10
4.4809
 20
2.5759
 30
0.0000
 42
1.0000
  0
VERTEX
  8
21
 10
4.4091
 20
2.5041
 30
0.0000
  0
SEQEND
  8
0
  0
POLYLINE
  8
21
 66
1
 10
0.0000
 20
0.0000
 30
0.0000
 40
0.2032
 41
0.2032
 70
0
  0
VERTEX
  8
21
 10
10.1600
 20
0.6350
 30
0.0000
  0
VERTEX
  8
21
 10
9.5250
 20
0.0000
 30
0.0000
  0
SEQEND
  8
0
  0
POLYLINE
  8
21
 66
1
 10
0.0000
 20
0.0000
 30
0.0000
 40
0.1016
 41
0.1016
 70
0
  0
VERTEX
  8
21
 10
9.4891
 20
0.0359
 30
0.0000
 42
1.0000
  0
VERTEX
  8
21
 10
9.5609
 20
-0.0359
 30
0.0000
  0
SEQEND
  8
0
  0
POLYLINE
  8
21
 66
1
 10
0.0000
 20
0.0000
 30
0.0000
 40
0.1016
 41
0.1016
 70
0
  0
VERTEX
  8
21
 10
10.1959
 20
0.5991
 30
0.0000
 42
1.0000
  0
VERTEX
  8
21
 10
10.1241
 20
0.6709
 30
0.0000
  0
SEQEND
  8
0
  0
POLYLINE
  8
21
 66
1
 10
0.0000
 20
0.0000
 30
0.0000
 40
0.2032
 41
0.2032
 70
0
  0
VERTEX
  8
21
 10
9.5250
 20
0.0000
 30
0.0000
  0
VERTEX
  8
21
 10
8.2550
 20
0.0000
 30
0.0000
  0
SEQEND
  8
0
  0
POLYLINE
  8
21
 66
1
 10
0.0000
 20
0.0000
 30
0.0000
 40
0.1016
 41
0.1016
 70
0
  0
VERTEX
  8
21
 10
8.2550
 20
0.0508
 30
0.0000
 42
1.0000
  0
VERTEX
  8
21
 10
8.2550
 20
-0.0508
 30
0.0000
  0
SEQEND
  8
0
  0
POLYLINE
  8
21
 66
1
 10
0.0000
 20
0.0000
 30
0.0000
 40
0.1016
 41
0.1016
 70
0
  0
VERTEX
  8
21
 10
9.5250
 20
-0.0508
 30
0.0000
 42
1.0000
  0
VERTEX
  8
21
 10
9.5250
 20
0.0508
 30
0.0000
  0
SEQEND
  8
0
  0
POLYLINE
  8
21
 66
1
 10
0.0000
 20
0.0000
 30
0.0000
 40
0.2032
 41
0.2032
 70
0
  0
VERTEX
  8
21
 10
8.2550
 20
0.0000
 30
0.0000
  0
VERTEX
  8
21
 10
7.6200
 20
0.6350
 30
0.0000
  0
SEQEND
  8
0
  0
POLYLINE
  8
21
 66
1
 10
0.0000
 20
0.0000
 30
0.0000
 40
0.1016
 41
0.1016
 70
0
  0
VERTEX
  8
21
 10
7.6559
 20
0.6709
 30
0.0000
 42
1.0000
  0
VERTEX
  8
21
 10
7.5841
 20
0.5991
 30
0.0000
  0
SEQEND
  8
0
  0
POLYLINE
  8
21
 66
1
 10
0.0000
 20
0.0000
 30
0.0000
 40
0.1016
 41
0.1016
 70
0
  0
VERTEX
  8
21
 10
8.2191
 20
-0.0359
 30
0.0000
 42
1.0000
  0
VERTEX
  8
21
 10
8.2909
 20
0.0359
 30
0.0000
  0
SEQEND
  8
0
  0
POLYLINE
  8
21
 66
1
 10
0.0000
 20
0.0000
 30
0.0000
 40
0.2032
 41
0.2032
 70
0
  0
VERTEX
  8
21
 10
7.6200
 20
1.9050
 30
0.0000
  0
VERTEX
  8
21
 10
8.2550
 20
2.5400
 30
0.0000
  0
SEQEND
  8
0
  0
POLYLINE
  8
21
 66
1
 10
0.0000
 20
0.0000
 30
0.0000
 40
0.1016
 41
0.1016
 70
0
  0
VERTEX
  8
21
 10
8.2909
 20
2.5041
 30
0.0000
 42
1.0000
  0
VERTEX
  8
21
 10
8.2191
 20
2.5759
 30
0.0000
  0
SEQEND
  8
0
  0
POLYLINE
  8
21
 66
1
 10
0.0000
 20
0.0000
 30
0.0000
 40
0.1016
 41
0.1016
 70
0
  0
VERTEX
  8
21
 10
7.5841
 20
1.9409
 30
0.0000
 42
1.0000
  0
VERTEX
  8
21
 10
7.6559
 20
1.8691
 30
0.0000
  0
SEQEND
  8
0
  0
POLYLINE
  8
21
 66
1
 10
0.0000
 20
0.0000
 30
0.0000
 40
0.2032
 41
0.2032
 70
0
  0
VERTEX
  8
21
 10
8.2550
 20
2.5400
 30
0.0000
  0
VERTEX
  8
21
 10
9.5250
 20
2.5400
 30
0.0000
  0
SEQEND
  8
0
  0
POLYLINE
  8
21
 66
1
 10
0.0000
 20
0.0000
 30
0.0000
 40
0.1016
 41
0.1016
 70
0
  0
VERTEX
  8
21
 10
9.5250
 20
2.4892
 30
0.0000
 42
1.0000
  0
VERTEX
  8
21
 10
9.5250
 20
2.5908
 30
0.0000
  0
SEQEND
  8
0
  0
POLYLINE
  8
21
 66
1
 10
0.0000
 20
0.0000
 30
0.0000
 40
0.1016
 41
0.1016
 70
0
  0
VERTEX
  8
21
 10
8.2550
 20
2.5908
 30
0.0000
 42
1.0000
  0
VERTEX
  8
21
 10
8.2550
 20
2.4892
 30
0.0000
  0
SEQEND
  8
0
  0
POLYLINE
  8
21
 66
1
 10
0.0000
 20
0.0000
 30
0.0000
 40
0.2032
 41
0.2032
 70
0
  0
VERTEX
  8
21
 10
9.5250
 20
2.5400
 30
0.0000
  0
VERTEX
  8
21
 10
10.1600
 20
1.9050
 30
0.0000
  0
SEQEND
  8
0
  0
POLYLINE
  8
21
 66
1
 10
0.0000
 20
0.0000
 30
0.0000
 40
0.1016
 41
0.1016
 70
0
  0
VERTEX
  8
21
 10
10.1241
 20
1.8691
 30
0.0000
 42
1.0000
  0
VERTEX
  8
21
 10
10.1959
 20
1.9409
 30
0.0000
  0
SEQEND
  8
0
  0
POLYLINE
  8
21
 66
1
 10
0.0000
 20
0.0000
 30
0.0000
 40
0.1016
 41
0.1016
 70
0
  0
VERTEX
  8
21
 10
9.5609
 20
2.5759
 30
0.0000
 42
1.0000
  0
VERTEX
  8
21
 10
9.4891
 20
2.5041
 30
0.0000
  0
SEQEND
  8
0
  0
POLYLINE
  8
21
 66
1
 10
0.0000
 20
0.0000
 30
0.0000
 40
0.2032
 41
0.2032
 70
0
  0
VERTEX
  8
21
 10
6.9850
 20
0.0000
 30
0.0000
  0
VERTEX
  8
21
 10
7.6200
 20
0.6350
 30
0.0000
  0
SEQEND
  8
0
  0
POLYLINE
  8
21
 66
1
 10
0.0000
 20
0.0000
 30
0.0000
 40
0.1016
 41
0.1016
 70
0
  0
VERTEX
  8
21
 10
7.6559
 20
0.5991
 30
0.0000
 42
1.0000
  0
VERTEX
  8
21
 10
7.5841
 20
0.6709
 30
0.0000
  0
SEQEND
  8
0
  0
POLYLINE
  8
21
 66
1
 10
0.0000
 20
0.0000
 30
0.0000
 40
0.1016
 41
0.1016
 70
0
  0
VERTEX
  8
21
 10
6.9491
 20
0.0359
 30
0.0000
 42
1.0000
  0
VERTEX
  8
21
 10
7.0209
 20
-0.0359
 30
0.0000
  0
SEQEND
  8
0
  0
POLYLINE
  8
21
 66
1
 10
0.0000
 20
0.0000
 30
0.0000
 40
0.2032
 41
0.2032
 70
0
  0
VERTEX
  8
21
 10
7.6200
 20
1.9050
 30
0.0000
  0
VERTEX
  8
21
 10
6.9850
 20
2.5400
 30
0.0000
  0
SEQEND
  8
0
  0
POLYLINE
  8
21
 66
1
 10
0.0000
 20
0.0000
 30
0.0000
 40
0.1016
 41
0.1016
 70
0
  0
VERTEX
  8
21
 10
7.0209
 20
2.5759
 30
0.0000
 42
1.0000
  0
VERTEX
  8
21
 10
6.9491
 20
2.5041
 30
0.0000
  0
SEQEND
  8
0
  0
POLYLINE
  8
21
 66
1
 10
0.0000
 20
0.0000
 30
0.0000
 40
0.1016
 41
0.1016
 70
0
  0
VERTEX
  8
21
 10
7.5841
 20
1.8691
 30
0.0000
 42
1.0000
  0
VERTEX
  8
21
 10
7.6559
 20
1.9409
 30
0.0000
  0
SEQEND
  8
0
  0
POLYLINE
  8
21
 66
1
 10
0.0000
 20
0.0000
 30
0.0000
 40
0.2032
 41
0.2032
 70
0
  0
VERTEX
  8
21
 10
5.7150
 20
2.5400
 30
0.0000
  0
VERTEX
  8
21
 10
6.9850
 20
2.5400
 30
0.0000
  0
SEQEND
  8
0
  0
POLYLINE
  8
21
 66
1
 10
0.0000
 20
0.0000
 30
0.0000
 40
0.1016
 41
0.1016
 70
0
  0
VERTEX
  8
21
 10
6.9850
 20
2.4892
 30
0.0000
 42
1.0000
  0
VERTEX
  8
21
 10
6.9850
 20
2.5908
 30
0.0000
  0
SEQEND
  8
0
  0
POLYLINE
  8
21
 66
1
 10
0.0000
 20
0.0000
 30
0.0000
 40
0.1016
 41
0.1016
 70
0
  0
VERTEX
  8
21
 10
5.7150
 20
2.5908
 30
0.0000
 42
1.0000
  0
VERTEX
  8
21
 10
5.7150
 20
2.4892
 30
0.0000
  0
SEQEND
  8
0
  0
POLYLINE
  8
21
 66
1
 10
0.0000
 20
0.0000
 30
0.0000
 40
0.2032
 41
0.2032
 70
0
  0
VERTEX
  8
21
 10
14.6050
 20
0.0000
 30
0.0000
  0
VERTEX
  8
21
 10
13.3350
 20
0.0000
 30
0.0000
  0
SEQEND
  8
0
  0
POLYLINE
  8
21
 66
1
 10
0.0000
 20
0.0000
 30
0.0000
 40
0.1016
 41
0.1016
 70
0
  0
VERTEX
  8
21
 10
13.3350
 20
0.0508
 30
0.0000
 42
1.0000
  0
VERTEX
  8
21
 10
13.3350
 20
-0.0508
 30
0.0000
  0
SEQEND
  8
0
  0
POLYLINE
  8
21
 66
1
 10
0.0000
 20
0.0000
 30
0.0000
 40
0.1016
 41
0.1016
 70
0
  0
VERTEX
  8
21
 10
14.6050
 20
-0.0508
 30
0.0000
 42
1.0000
  0
VERTEX
  8
21
 10
14.6050
 20
0.0508
 30
0.0000
  0
SEQEND
  8
0
  0
POLYLINE
  8
21
 66
1
 10
0.0000
 20
0.0000
 30
0.0000
 40
0.2032
 41
0.2032
 70
0
  0
VERTEX
  8
21
 10
13.3350
 20
0.0000
 30
0.0000
  0
VERTEX
  8
21
 10
12.7000
 20
0.6350
 30
0.0000
  0
SEQEND
  8
0
  0
POLYLINE
  8
21
 66
1
 10
0.0000
 20
0.0000
 30
0.0000
 40
0.1016
 41
0.1016
 70
0
  0
VERTEX
  8
21
 10
12.7359
 20
0.6709
 30
0.0000
 42
1.0000
  0
VERTEX
  8
21
 10
12.6641
 20
0.5991
 30
0.0000
  0
SEQEND
  8
0
  0
POLYLINE
  8
21
 66
1
 10
0.0000
 20
0.0000
 30
0.0000
 40
0.1016
 41
0.1016
 70
0
  0
VERTEX
  8
21
 10
13.2991
 20
-0.0359
 30
0.0000
 42
1.0000
  0
VERTEX
  8
21
 10
13.3709
 20
0.0359
 30
0.0000
  0
SEQEND
  8
0
  0
POLYLINE
  8
21
 66
1
 10
0.0000
 20
0.0000
 30
0.0000
 40
0.2032
 41
0.2032
 70
0
  0
VERTEX
  8
21
 10
12.7000
 20
1.9050
 30
0.0000
  0
VERTEX
  8
21
 10
13.3350
 20
2.5400
 30
0.0000
  0
SEQEND
  8
0
  0
POLYLINE
  8
21
 66
1
 10
0.0000
 20
0.0000
 30
0.0000
 40
0.1016
 41
0.1016
 70
0
  0
VERTEX
  8
21
 10
13.3709
 20
2.5041
 30
0.0000
 42
1.0000
  0
VERTEX
  8
21
 10
13.2991
 20
2.5759
 30
0.0000
  0
SEQEND
  8
0
  0
POLYLINE
  8
21
 66
1
 10
0.0000
 20
0.0000
 30
0.0000
 40
0.1016
 41
0.1016
 70
0
  0
VERTEX
  8
21
 10
12.6641
 20
1.9409
 30
0.0000
 42
1.0000
  0
VERTEX
  8
21
 10
12.7359
 20
1.8691
 30
0.0000
  0
SEQEND
  8
0
  0
POLYLINE
  8
21
 66
1
 10
0.0000
 20
0.0000
 30
0.0000
 40
0.2032
 41
0.2032
 70
0
  0
VERTEX
  8
21
 10
12.7000
 20
0.6350
 30
0.0000
  0
VERTEX
  8
21
 10
12.0650
 20
0.0000
 30
0.0000
  0
SEQEND
  8
0
  0
POLYLINE
  8
21
 66
1
 10
0.0000
 20
0.0000
 30
0.0000
 40
0.1016
 41
0.1016
 70
0
  0
VERTEX
  8
21
 10
12.0291
 20
0.0359
 30
0.0000
 42
1.0000
  0
VERTEX
  8
21
 10
12.1009
 20
-0.0359
 30
0.0000
  0
SEQEND
  8
0
  0
POLYLINE
  8
21
 66
1
 10
0.0000
 20
0.0000
 30
0.0000
 40
0.1016
 41
0.1016
 70
0
  0
VERTEX
  8
21
 10
12.7359
 20
0.5991
 30
0.0000
 42
1.0000
  0
VERTEX
  8
21
 10
12.6641
 20
0.6709
 30
0.0000
  0
SEQEND
  8
0
  0
POLYLINE
  8
21
 66
1
 10
0.0000
 20
0.0000
 30
0.0000
 40
0.2032
 41
0.2032
 70
0
  0
VERTEX
  8
21
 10
12.0650
 20
0.0000
 30
0.0000
  0
VERTEX
  8
21
 10
10.7950
 20
0.0000
 30
0.0000
  0
SEQEND
  8
0
  0
POLYLINE
  8
21
 66
1
 10
0.0000
 20
0.0000
 30
0.0000
 40
0.1016
 41
0.1016
 70
0
  0
VERTEX
  8
21
 10
10.7950
 20
0.0508
 30
0.0000
 42
1.0000
  0
VERTEX
  8
21
 10
10.7950
 20
-0.0508
 30
0.0000
  0
SEQEND
  8
0
  0
POLYLINE
  8
21
 66
1
 10
0.0000
 20
0.0000
 30
0.0000
 40
0.1016
 41
0.1016
 70
0
  0
VERTEX
  8
21
 10
12.0650
 20
-0.0508
 30
0.0000
 42
1.0000
  0
VERTEX
  8
21
 10
12.0650
 20
0.0508
 30
0.0000
  0
SEQEND
  8
0
  0
POLYLINE
  8
21
 66
1
 10
0.0000
 20
0.0000
 30
0.0000
 40
0.2032
 41
0.2032
 70
0
  0
VERTEX
  8
21
 10
10.7950
 20
0.0000
 30
0.0000
  0
VERTEX
  8
21
 10
10.1600
 20
0.6350
 30
0.0000
  0
SEQEND
  8
0
  0
POLYLINE
  8
21
 66
1
 10
0.0000
 20
0.0000
 30
0.0000
 40
0.1016
 41
0.1016
 70
0
  0
VERTEX
  8
21
 10
10.1959
 20
0.6709
 30
0.0000
 42
1.0000
  0
VERTEX
  8
21
 10
10.1241
 20
0.5991
 30
0.0000
  0
SEQEND
  8
0
  0
POLYLINE
  8
21
 66
1
 10
0.0000
 20
0.0000
 30
0.0000
 40
0.1016
 41
0.1016
 70
0
  0
VERTEX
  8
21
 10
10.7591
 20
-0.0359
 30
0.0000
 42
1.0000
  0
VERTEX
  8
21
 10
10.8309
 20
0.0359
 30
0.0000
  0
SEQEND
  8
0
  0
POLYLINE
  8
21
 66
1
 10
0.0000
 20
0.0000
 30
0.0000
 40
0.2032
 41
0.2032
 70
0
  0
VERTEX
  8
21
 10
10.1600
 20
1.9050
 30
0.0000
  0
VERTEX
  8
21
 10
10.7950
 20
2.5400
 30
0.0000
  0
SEQEND
  8
0
  0
POLYLINE
  8
21
 66
1
 10
0.0000
 20
0.0000
 30
0.0000
 40
0.1016
 41
0.1016
 70
0
  0
VERTEX
  8
21
 10
10.8309
 20
2.5041
 30
0.0000
 42
1.0000
  0
VERTEX
  8
21
 10
10.7591
 20
2.5759
 30
0.0000
  0
SEQEND
  8
0
  0
POLYLINE
  8
21
 66
1
 10
0.0000
 20
0.0000
 30
0.0000
 40
0.1016
 41
0.1016
 70
0
  0
VERTEX
  8
21
 10
10.1241
 20
1.9409
 30
0.0000
 42
1.0000
  0
VERTEX
  8
21
 10
10.1959
 20
1.8691
 30
0.0000
  0
SEQEND
  8
0
  0
POLYLINE
  8
21
 66
1
 10
0.0000
 20
0.0000
 30
0.0000
 40
0.2032
 41
0.2032
 70
0
  0
VERTEX
  8
21
 10
10.7950
 20
2.5400
 30
0.0000
  0
VERTEX
  8
21
 10
12.0650
 20
2.5400
 30
0.0000
  0
SEQEND
  8
0
  0
POLYLINE
  8
21
 66
1
 10
0.0000
 20
0.0000
 30
0.0000
 40
0.1016
 41
0.1016
 70
0
  0
VERTEX
  8
21
 10
12.0650
 20
2.4892
 30
0.0000
 42
1.0000
  0
VERTEX
  8
21
 10
12.0650
 20
2.5908
 30
0.0000
  0
SEQEND
  8
0
  0
POLYLINE
  8
21
 66
1
 10
0.0000
 20
0.0000
 30
0.0000
 40
0.1016
 41
0.1016
 70
0
  0
VERTEX
  8
21
 10
10.7950
 20
2.5908
 30
0.0000
 42
1.0000
  0
VERTEX
  8
21
 10
10.7950
 20
2.4892
 30
0.0000
  0
SEQEND
  8
0
  0
POLYLINE
  8
21
 66
1
 10
0.0000
 20
0.0000
 30
0.0000
 40
0.2032
 41
0.2032
 70
0
  0
VERTEX
  8
21
 10
12.0650
 20
2.5400
 30
0.0000
  0
VERTEX
  8
21
 10
12.7000
 20
1.9050
 30
0.0000
  0
SEQEND
  8
0
  0
POLYLINE
  8
21
 66
1
 10
0.0000
 20
0.0000
 30
0.0000
 40
0.1016
 41
0.1016
 70
0
  0
VERTEX
  8
21
 10
12.6641
 20
1.8691
 30
0.0000
 42
1.0000
  0
VERTEX
  8
21
 10
12.7359
 20
1.9409
 30
0.0000
  0
SEQEND
  8
0
  0
POLYLINE
  8
21
 66
1
 10
0.0000
 20
0.0000
 30
0.0000
 40
0.1016
 41
0.1016
 70
0
  0
VERTEX
  8
21
 10
12.1009
 20
2.5759
 30
0.0000
 42
1.0000
  0
VERTEX
  8
21
 10
12.0291
 20
2.5041
 30
0.0000
  0
SEQEND
  8
0
  0
POLYLINE
  8
21
 66
1
 10
0.0000
 20
0.0000
 30
0.0000
 40
0.2032
 41
0.2032
 70
0
  0
VERTEX
  8
21
 10
15.2400
 20
0.6350
 30
0.0000
  0
VERTEX
  8
21
 10
15.2400
 20
1.9050
 30
0.0000
  0
SEQEND
  8
0
  0
POLYLINE
  8
21
 66
1
 10
0.0000
 20
0.0000
 30
0.0000
 40
0.1016
 41
0.1016
 70
0
  0
VERTEX
  8
21
 10
15.2908
 20
1.9050
 30
0.0000
 42
1.0000
  0
VERTEX
  8
21
 10
15.1892
 20
1.9050
 30
0.0000
  0
SEQEND
  8
0
  0
POLYLINE
  8
21
 66
1
 10
0.0000
 20
0.0000
 30
0.0000
 40
0.1016
 41
0.1016
 70
0
  0
VERTEX
  8
21
 10
15.1892
 20
0.6350
 30
0.0000
 42
1.0000
  0
VERTEX
  8
21
 10
15.2908
 20
0.6350
 30
0.0000
  0
SEQEND
  8
0
  0
POLYLINE
  8
21
 66
1
 10
0.0000
 20
0.0000
 30
0.0000
 40
0.2032
 41
0.2032
 70
0
  0
VERTEX
  8
21
 10
14.6050
 20
0.0000
 30
0.0000
  0
VERTEX
  8
21
 10
15.2400
 20
0.6350
 30
0.0000
  0
SEQEND
  8
0
  0
POLYLINE
  8
21
 66
1
 10
0.0000
 20
0.0000
 30
0.0000
 40
0.1016
 41
0.1016
 70
0
  0
VERTEX
  8
21
 10
15.2759
 20
0.5991
 30
0.0000
 42
1.0000
  0
VERTEX
  8
21
 10
15.2041
 20
0.6709
 30
0.0000
  0
SEQEND
  8
0
  0
POLYLINE
  8
21
 66
1
 10
0.0000
 20
0.0000
 30
0.0000
 40
0.1016
 41
0.1016
 70
0
  0
VERTEX
  8
21
 10
14.5691
 20
0.0359
 30
0.0000
 42
1.0000
  0
VERTEX
  8
21
 10
14.6409
 20
-0.0359
 30
0.0000
  0
SEQEND
  8
0
  0
POLYLINE
  8
21
 66
1
 10
0.0000
 20
0.0000
 30
0.0000
 40
0.2032
 41
0.2032
 70
0
  0
VERTEX
  8
21
 10
15.2400
 20
1.9050
 30
0.0000
  0
VERTEX
  8
21
 10
14.6050
 20
2.5400
 30
0.0000
  0
SEQEND
  8
0
  0
POLYLINE
  8
21
 66
1
 10
0.0000
 20
0.0000
 30
0.0000
 40
0.1016
 41
0.1016
 70
0
  0
VERTEX
  8
21
 10
14.6409
 20
2.5759
 30
0.0000
 42
1.0000
  0
VERTEX
  8
21
 10
14.5691
 20
2.5041
 30
0.0000
  0
SEQEND
  8
0
  0
POLYLINE
  8
21
 66
1
 10
0.0000
 20
0.0000
 30
0.0000
 40
0.1016
 41
0.1016
 70
0
  0
VERTEX
  8
21
 10
15.2041
 20
1.8691
 30
0.0000
 42
1.0000
  0
VERTEX
  8
21
 10
15.2759
 20
1.9409
 30
0.0000
  0
SEQEND
  8
0
  0
POLYLINE
  8
21
 66
1
 10
0.0000
 20
0.0000
 30
0.0000
 40
0.2032
 41
0.2032
 70
0
  0
VERTEX
  8
21
 10
13.3350
 20
2.5400
 30
0.0000
  0
VERTEX
  8
21
 10
14.6050
 20
2.5400
 30
0.0000
  0
SEQEND
  8
0
  0
POLYLINE
  8
21
 66
1
 10
0.0000
 20
0.0000
 30
0.0000
 40
0.1016
 41
0.1016
 70
0
  0
VERTEX
  8
21
 10
14.6050
 20
2.4892
 30
0.0000
 42
1.0000
  0
VERTEX
  8
21
 10
14.6050
 20
2.5908
 30
0.0000
  0
SEQEND
  8
0
  0
POLYLINE
  8
21
 66
1
 10
0.0000
 20
0.0000
 30
0.0000
 40
0.1016
 41
0.1016
 70
0
  0
VERTEX
  8
21
 10
13.3350
 20
2.5908
 30
0.0000
 42
1.0000
  0
VERTEX
  8
21
 10
13.3350
 20
2.4892
 30
0.0000
  0
SEQEND
  8
0
  0
POLYLINE
  8
21
 66
1
 10
0.0000
 20
0.0000
 30
0.0000
 40
0.2032
 41
0.2032
 70
0
  0
VERTEX
  8
21
 10
0.0000
 20
0.6350
 30
0.0000
  0
VERTEX
  8
21
 10
0.0000
 20
1.9050
 30
0.0000
  0
SEQEND
  8
0
  0
POLYLINE
  8
21
 66
1
 10
0.0000
 20
0.0000
 30
0.0000
 40
0.1016
 41
0.1016
 70
0
  0
VERTEX
  8
21
 10
0.0508
 20
1.9050
 30
0.0000
 42
1.0000
  0
VERTEX
  8
21
 10
-0.0508
 20
1.9050
 30
0.0000
  0
SEQEND
  8
0
  0
POLYLINE
  8
21
 66
1
 10
0.0000
 20
0.0000
 30
0.0000
 40
0.1016
 41
0.1016
 70
0
  0
VERTEX
  8
21
 10
-0.0508
 20
0.6350
 30
0.0000
 42
1.0000
  0
VERTEX
  8
21
 10
0.0508
 20
0.6350
 30
0.0000
  0
SEQEND
  8
0
  0
INSERT
  8
51
  2
RECT
 10
1.2700
 20
1.2700
 30
0.0000
 41
0.5080
 42
0.5080
 43
1.0000
 50
180.0000
  0
INSERT
  8
51
  2
RECT
 10
3.8100
 20
1.2700
 30
0.0000
 41
0.5080
 42
0.5080
 43
1.0000
 50
180.0000
  0
INSERT
  8
51
  2
RECT
 10
6.3500
 20
1.2700
 30
0.0000
 41
0.5080
 42
0.5080
 43
1.0000
 50
180.0000
  0
INSERT
  8
51
  2
RECT
 10
8.8900
 20
1.2700
 30
0.0000
 41
0.5080
 42
0.5080
 43
1.0000
 50
180.0000
  0
INSERT
  8
51
  2
RECT
 10
11.4300
 20
1.2700
 30
0.0000
 41
0.5080
 42
0.5080
 43
1.0000
 50
180.0000
  0
INSERT
  8
51
  2
RECT
 10
13.9700
 20
1.2700
 30
0.0000
 41
0.5080
 42
0.5080
 43
1.0000
 50
180.0000
  0
INSERT
  8
17
  2
ROUNDP
 10
13.9700
 20
1.2700
 30
0.0000
 41
1.8796
 42
1.8796
 43
1.0000
 50
270.0000
  0
INSERT
  8
17
  2
ROUNDP
 10
13.9700
 20
1.2700
 30
0.0000
 41
1.8796
 42
1.8796
 43
1.0000
 50
270.0000
  0
INSERT
  8
17
  2
ROUNDP
 10
11.4300
 20
1.2700
 30
0.0000
 41
1.8796
 42
1.8796
 43
1.0000
 50
270.0000
  0
INSERT
  8
17
  2
ROUNDP
 10
11.4300
 20
1.2700
 30
0.0000
 41
1.8796
 42
1.8796
 43
1.0000
 50
270.0000
  0
INSERT
  8
17
  2
ROUNDP
 10
8.8900
 20
1.2700
 30
0.0000
 41
1.8796
 42
1.8796
 43
1.0000
 50
270.0000
  0
INSERT
  8
17
  2
ROUNDP
 10
8.8900
 20
1.2700
 30
0.0000
 41
1.8796
 42
1.8796
 43
1.0000
 50
270.0000
  0
INSERT
  8
17
  2
ROUNDP
 10
6.3500
 20
1.2700
 30
0.0000
 41
1.8796
 42
1.8796
 43
1.0000
 50
270.0000
  0
INSERT
  8
17
  2
ROUNDP
 10
6.3500
 20
1.2700
 30
0.0000
 41
1.8796
 42
1.8796
 43
1.0000
 50
270.0000
  0
INSERT
  8
17
  2
ROUNDP
 10
3.8100
 20
1.2700
 30
0.0000
 41
1.8796
 42
1.8796
 43
1.0000
 50
270.0000
  0
INSERT
  8
17
  2
ROUNDP
 10
3.8100
 20
1.2700
 30
0.0000
 41
1.8796
 42
1.8796
 43
1.0000
 50
270.0000
  0
INSERT
  8
17
  2
ROUNDP
 10
1.2700
 20
1.2700
 30
0.0000
 41
1.8796
 42
1.8796
 43
1.0000
 50
270.0000
  0
INSERT
  8
17
  2
ROUNDP
 10
1.2700
 20
1.2700
 30
0.0000
 41
1.8796
 42
1.8796
 43
1.0000
 50
270.0000
  0
POINT
  8
23
 10
48.2600
 20
-3.8100
 30
0.0000
  0
POINT
  8
23
 10
7.6200
 20
6.3500
 30
0.0000
  0
POLYLINE
  8
21
 66
1
 10
0.0000
 20
0.0000
 30
0.0000
 40
0.2032
 41
0.2032
 70
0
  0
VERTEX
  8
21
 10
1.4200
 20
6.3500
 30
0.0000
  0
VERTEX
  8
21
 10
13.8200
 20
6.3500
 30
0.0000
  0
SEQEND
  8
0
  0
POLYLINE
  8
21
 66
1
 10
0.0000
 20
0.0000
 30
0.0000
 40
0.1016
 41
0.1016
 70
0
  0
VERTEX
  8
21
 10
13.8200
 20
6.2992
 30
0.0000
 42
1.0000
  0
VERTEX
  8
21
 10
13.8200
 20
6.4008
 30
0.0000
  0
SEQEND
  8
0
  0
POLYLINE
  8
21
 66
1
 10
0.0000
 20
0.0000
 30
0.0000
 40
0.1016
 41
0.1016
 70
0
  0
VERTEX
  8
21
 10
1.4200
 20
6.4008
 30
0.0000
 42
1.0000
  0
VERTEX
  8
21
 10
1.4200
 20
6.2992
 30
0.0000
  0
SEQEND
  8
0
  0
POLYLINE
  8
51
 66
1
 10
0.0000
 20
0.0000
 30
0.0000
 40
0.2032
 41
0.2032
 70
0
  0
VERTEX
  8
51
 10
6.4200
 20
28.8500
 30
0.0000
  0
VERTEX
  8
51
 10
6.4200
 20
31.3500
 30
0.0000
  0
SEQEND
  8
0
  0
POLYLINE
  8
51
 66
1
 10
0.0000
 20
0.0000
 30
0.0000
 40
0.1016
 41
0.1016
 70
0
  0
VERTEX
  8
51
 10
6.4708
 20
31.3500
 30
0.0000
 42
1.0000
  0
VERTEX
  8
51
 10
6.3692
 20
31.3500
 30
0.0000
  0
SEQEND
  8
0
  0
POLYLINE
  8
51
 66
1
 10
0.0000
 20
0.0000
 30
0.0000
 40
0.1016
 41
0.1016
 70
0
  0
VERTEX
  8
51
 10
6.3692
 20
28.8500
 30
0.0000
 42
1.0000
  0
VERTEX
  8
51
 10
6.4708
 20
28.8500
 30
0.0000
  0
SEQEND
  8
0
  0
POLYLINE
  8
51
 66
1
 10
0.0000
 20
0.0000
 30
0.0000
 40
0.2032
 41
0.2032
 70
0
  0
VERTEX
  8
51
 10
6.4200
 20
28.8500
 30
0.0000
 42
0.4142
  0
VERTEX
  8
51
 10
6.9200
 20
28.3500
 30
0.0000
  0
SEQEND
  8
0
  0
POLYLINE
  8
51
 66
1
 10
0.0000
 20
0.0000
 30
0.0000
 40
0.1016
 41
0.1016
 70
0
  0
VERTEX
  8
51
 10
6.4708
 20
28.8500
 30
0.0000
 42
1.0000
  0
VERTEX
  8
51
 10
6.3692
 20
28.8500
 30
0.0000
  0
SEQEND
  8
0
  0
POLYLINE
  8
51
 66
1
 10
0.0000
 20
0.0000
 30
0.0000
 40
0.1016
 41
0.1016
 70
0
  0
VERTEX
  8
51
 10
6.9200
 20
28.2992
 30
0.0000
 42
1.0000
  0
VERTEX
  8
51
 10
6.9200
 20
28.4008
 30
0.0000
  0
SEQEND
  8
0
  0
POLYLINE
  8
51
 66
1
 10
0.0000
 20
0.0000
 30
0.0000
 40
0.2032
 41
0.2032
 70
0
  0
VERTEX
  8
51
 10
8.3200
 20
28.3500
 30
0.0000
  0
VERTEX
  8
51
 10
6.9200
 20
28.3500
 30
0.0000
  0
SEQEND
  8
0
  0
POLYLINE
  8
51
 66
1
 10
0.0000
 20
0.0000
 30
0.0000
 40
0.1016
 41
0.1016
 70
0
  0
VERTEX
  8
51
 10
6.9200
 20
28.4008
 30
0.0000
 42
1.0000
  0
VERTEX
  8
51
 10
6.9200
 20
28.2992
 30
0.0000
  0
SEQEND
  8
0
  0
POLYLINE
  8
51
 66
1
 10
0.0000
 20
0.0000
 30
0.0000
 40
0.1016
 41
0.1016
 70
0
  0
VERTEX
  8
51
 10
8.3200
 20
28.2992
 30
0.0000
 42
1.0000
  0
VERTEX
  8
51
 10
8.3200
 20
28.4008
 30
0.0000
  0
SEQEND
  8
0
  0
POLYLINE
  8
51
 66
1
 10
0.0000
 20
0.0000
 30
0.0000
 40
0.2032
 41
0.2032
 70
0
  0
VERTEX
  8
51
 10
8.3200
 20
28.3500
 30
0.0000
 42
0.4142
  0
VERTEX
  8
51
 10
8.8200
 20
28.8500
 30
0.0000
  0
SEQEND
  8
0
  0
POLYLINE
  8
51
 66
1
 10
0.0000
 20
0.0000
 30
0.0000
 40
0.1016
 41
0.1016
 70
0
  0
VERTEX
  8
51
 10
8.3200
 20
28.4008
 30
0.0000
 42
1.0000
  0
VERTEX
  8
51
 10
8.3200
 20
28.2992
 30
0.0000
  0
SEQEND
  8
0
  0
POLYLINE
  8
51
 66
1
 10
0.0000
 20
0.0000
 30
0.0000
 40
0.1016
 41
0.1016
 70
0
  0
VERTEX
  8
51
 10
8.8708
 20
28.8500
 30
0.0000
 42
1.0000
  0
VERTEX
  8
51
 10
8.7692
 20
28.8500
 30
0.0000
  0
SEQEND
  8
0
  0
POLYLINE
  8
51
 66
1
 10
0.0000
 20
0.0000
 30
0.0000
 40
0.2032
 41
0.2032
 70
0
  0
VERTEX
  8
51
 10
8.8200
 20
31.3500
 30
0.0000
  0
VERTEX
  8
51
 10
8.8200
 20
28.8500
 30
0.0000
  0
SEQEND
  8
0
  0
POLYLINE
  8
51
 66
1
 10
0.0000
 20
0.0000
 30
0.0000
 40
0.1016
 41
0.1016
 70
0
  0
VERTEX
  8
51
 10
8.7692
 20
28.8500
 30
0.0000
 42
1.0000
  0
VERTEX
  8
51
 10
8.8708
 20
28.8500
 30
0.0000
  0
SEQEND
  8
0
  0
POLYLINE
  8
51
 66
1
 10
0.0000
 20
0.0000
 30
0.0000
 40
0.1016
 41
0.1016
 70
0
  0
VERTEX
  8
51
 10
8.8708
 20
31.3500
 30
0.0000
 42
1.0000
  0
VERTEX
  8
51
 10
8.7692
 20
31.3500
 30
0.0000
  0
SEQEND
  8
0
  0
POLYLINE
  8
51
 66
1
 10
0.0000
 20
0.0000
 30
0.0000
 40
0.2032
 41
0.2032
 70
0
  0
VERTEX
  8
51
 10
13.8200
 20
31.3500
 30
0.0000
  0
VERTEX
  8
51
 10
12.9200
 20
31.3500
 30
0.0000
  0
SEQEND
  8
0
  0
POLYLINE
  8
51
 66
1
 10
0.0000
 20
0.0000
 30
0.0000
 40
0.1016
 41
0.1016
 70
0
  0
VERTEX
  8
51
 10
12.9200
 20
31.4008
 30
0.0000
 42
1.0000
  0
VERTEX
  8
51
 10
12.9200
 20
31.2992
 30
0.0000
  0
SEQEND
  8
0
  0
POLYLINE
  8
51
 66
1
 10
0.0000
 20
0.0000
 30
0.0000
 40
0.1016
 41
0.1016
 70
0
  0
VERTEX
  8
51
 10
13.8200
 20
31.2992
 30
0.0000
 42
1.0000
  0
VERTEX
  8
51
 10
13.8200
 20
31.4008
 30
0.0000
  0
SEQEND
  8
0
  0
POLYLINE
  8
51
 66
1
 10
0.0000
 20
0.0000
 30
0.0000
 40
0.2032
 41
0.2032
 70
0
  0
VERTEX
  8
51
 10
12.9200
 20
31.3500
 30
0.0000
  0
VERTEX
  8
51
 10
8.8200
 20
31.3500
 30
0.0000
  0
SEQEND
  8
0
  0
POLYLINE
  8
51
 66
1
 10
0.0000
 20
0.0000
 30
0.0000
 40
0.1016
 41
0.1016
 70
0
  0
VERTEX
  8
51
 10
8.8200
 20
31.4008
 30
0.0000
 42
1.0000
  0
VERTEX
  8
51
 10
8.8200
 20
31.2992
 30
0.0000
  0
SEQEND
  8
0
  0
POLYLINE
  8
51
 66
1
 10
0.0000
 20
0.0000
 30
0.0000
 40
0.1016
 41
0.1016
 70
0
  0
VERTEX
  8
51
 10
12.9200
 20
31.2992
 30
0.0000
 42
1.0000
  0
VERTEX
  8
51
 10
12.9200
 20
31.4008
 30
0.0000
  0
SEQEND
  8
0
  0
POLYLINE
  8
21
 66
1
 10
0.0000
 20
0.0000
 30
0.0000
 40
0.2032
 41
0.2032
 70
0
  0
VERTEX
  8
21
 10
1.4200
 20
28.4500
 30
0.0000
  0
VERTEX
  8
21
 10
1.4200
 20
21.0600
 30
0.0000
  0
SEQEND
  8
0
  0
POLYLINE
  8
21
 66
1
 10
0.0000
 20
0.0000
 30
0.0000
 40
0.1016
 41
0.1016
 70
0
  0
VERTEX
  8
21
 10
1.3692
 20
21.0600
 30
0.0000
 42
1.0000
  0
VERTEX
  8
21
 10
1.4708
 20
21.0600
 30
0.0000
  0
SEQEND
  8
0
  0
POLYLINE
  8
21
 66
1
 10
0.0000
 20
0.0000
 30
0.0000
 40
0.1016
 41
0.1016
 70
0
  0
VERTEX
  8
21
 10
1.4708
 20
28.4500
 30
0.0000
 42
1.0000
  0
VERTEX
  8
21
 10
1.3692
 20
28.4500
 30
0.0000
  0
SEQEND
  8
0
  0
POLYLINE
  8
21
 66
1
 10
0.0000
 20
0.0000
 30
0.0000
 40
0.2032
 41
0.2032
 70
0
  0
VERTEX
  8
21
 10
1.4200
 20
16.7500
 30
0.0000
  0
VERTEX
  8
21
 10
1.4200
 20
13.7500
 30
0.0000
  0
SEQEND
  8
0
  0
POLYLINE
  8
21
 66
1
 10
0.0000
 20
0.0000
 30
0.0000
 40
0.1016
 41
0.1016
 70
0
  0
VERTEX
  8
21
 10
1.3692
 20
13.7500
 30
0.0000
 42
1.0000
  0
VERTEX
  8
21
 10
1.4708
 20
13.7500
 30
0.0000
  0
SEQEND
  8
0
  0
POLYLINE
  8
21
 66
1
 10
0.0000
 20
0.0000
 30
0.0000
 40
0.1016
 41
0.1016
 70
0
  0
VERTEX
  8
21
 10
1.4708
 20
16.7500
 30
0.0000
 42
1.0000
  0
VERTEX
  8
21
 10
1.3692
 20
16.7500
 30
0.0000
  0
SEQEND
  8
0
  0
POLYLINE
  8
21
 66
1
 10
0.0000
 20
0.0000
 30
0.0000
 40
0.2032
 41
0.2032
 70
0
  0
VERTEX
  8
21
 10
1.4200
 20
9.4500
 30
0.0000
  0
VERTEX
  8
21
 10
1.4200
 20
6.3500
 30
0.0000
  0
SEQEND
  8
0
  0
POLYLINE
  8
21
 66
1
 10
0.0000
 20
0.0000
 30
0.0000
 40
0.1016
 41
0.1016
 70
0
  0
VERTEX
  8
21
 10
1.3692
 20
6.3500
 30
0.0000
 42
1.0000
  0
VERTEX
  8
21
 10
1.4708
 20
6.3500
 30
0.0000
  0
SEQEND
  8
0
  0
POLYLINE
  8
21
 66
1
 10
0.0000
 20
0.0000
 30
0.0000
 40
0.1016
 41
0.1016
 70
0
  0
VERTEX
  8
21
 10
1.4708
 20
9.4500
 30
0.0000
 42
1.0000
  0
VERTEX
  8
21
 10
1.3692
 20
9.4500
 30
0.0000
  0
SEQEND
  8
0
  0
POLYLINE
  8
21
 66
1
 10
0.0000
 20
0.0000
 30
0.0000
 40
0.2032
 41
0.2032
 70
0
  0
VERTEX
  8
21
 10
13.8200
 20
6.3500
 30
0.0000
  0
VERTEX
  8
21
 10
13.8200
 20
9.4500
 30
0.0000
  0
SEQEND
  8
0
  0
POLYLINE
  8
21
 66
1
 10
0.0000
 20
0.0000
 30
0.0000
 40
0.1016
 41
0.1016
 70
0
  0
VERTEX
  8
21
 10
13.8708
 20
9.4500
 30
0.0000
 42
1.0000
  0
VERTEX
  8
21
 10
13.7692
 20
9.4500
 30
0.0000
  0
SEQEND
  8
0
  0
POLYLINE
  8
21
 66
1
 10
0.0000
 20
0.0000
 30
0.0000
 40
0.1016
 41
0.1016
 70
0
  0
VERTEX
  8
21
 10
13.7692
 20
6.3500
 30
0.0000
 42
1.0000
  0
VERTEX
  8
21
 10
13.8708
 20
6.3500
 30
0.0000
  0
SEQEND
  8
0
  0
POLYLINE
  8
21
 66
1
 10
0.0000
 20
0.0000
 30
0.0000
 40
0.2032
 41
0.2032
 70
0
  0
VERTEX
  8
21
 10
13.8200
 20
13.7500
 30
0.0000
  0
VERTEX
  8
21
 10
13.8200
 20
16.7500
 30
0.0000
  0
SEQEND
  8
0
  0
POLYLINE
  8
21
 66
1
 10
0.0000
 20
0.0000
 30
0.0000
 40
0.1016
 41
0.1016
 70
0
  0
VERTEX
  8
21
 10
13.8708
 20
16.7500
 30
0.0000
 42
1.0000
  0
VERTEX
  8
21
 10
13.7692
 20
16.7500
 30
0.0000
  0
SEQEND
  8
0
  0
POLYLINE
  8
21
 66
1
 10
0.0000
 20
0.0000
 30
0.0000
 40
0.1016
 41
0.1016
 70
0
  0
VERTEX
  8
21
 10
13.7692
 20
13.7500
 30
0.0000
 42
1.0000
  0
VERTEX
  8
21
 10
13.8708
 20
13.7500
 30
0.0000
  0
SEQEND
  8
0
  0
POLYLINE
  8
21
 66
1
 10
0.0000
 20
0.0000
 30
0.0000
 40
0.2032
 41
0.2032
 70
0
  0
VERTEX
  8
21
 10
13.8200
 20
28.4500
 30
0.0000
  0
VERTEX
  8
21
 10
13.8200
 20
21.0600
 30
0.0000
  0
SEQEND
  8
0
  0
POLYLINE
  8
21
 66
1
 10
0.0000
 20
0.0000
 30
0.0000
 40
0.1016
 41
0.1016
 70
0
  0
VERTEX
  8
21
 10
13.7692
 20
21.0600
 30
0.0000
 42
1.0000
  0
VERTEX
  8
21
 10
13.8708
 20
21.0600
 30
0.0000
  0
SEQEND
  8
0
  0
POLYLINE
  8
21
 66
1
 10
0.0000
 20
0.0000
 30
0.0000
 40
0.1016
 41
0.1016
 70
0
  0
VERTEX
  8
21
 10
13.8708
 20
28.4500
 30
0.0000
 42
1.0000
  0
VERTEX
  8
21
 10
13.7692
 20
28.4500
 30
0.0000
  0
SEQEND
  8
0
  0
POLYLINE
  8
51
 66
1
 10
0.0000
 20
0.0000
 30
0.0000
 40
0.2032
 41
0.2032
 70
0
  0
VERTEX
  8
51
 10
1.4200
 20
31.3500
 30
0.0000
  0
VERTEX
  8
51
 10
2.3200
 20
31.3500
 30
0.0000
  0
SEQEND
  8
0
  0
POLYLINE
  8
51
 66
1
 10
0.0000
 20
0.0000
 30
0.0000
 40
0.1016
 41
0.1016
 70
0
  0
VERTEX
  8
51
 10
2.3200
 20
31.2992
 30
0.0000
 42
1.0000
  0
VERTEX
  8
51
 10
2.3200
 20
31.4008
 30
0.0000
  0
SEQEND
  8
0
  0
POLYLINE
  8
51
 66
1
 10
0.0000
 20
0.0000
 30
0.0000
 40
0.1016
 41
0.1016
 70
0
  0
VERTEX
  8
51
 10
1.4200
 20
31.4008
 30
0.0000
 42
1.0000
  0
VERTEX
  8
51
 10
1.4200
 20
31.2992
 30
0.0000
  0
SEQEND
  8
0
  0
POLYLINE
  8
51
 66
1
 10
0.0000
 20
0.0000
 30
0.0000
 40
0.2032
 41
0.2032
 70
0
  0
VERTEX
  8
51
 10
2.3200
 20
31.3500
 30
0.0000
  0
VERTEX
  8
51
 10
6.4200
 20
31.3500
 30
0.0000
  0
SEQEND
  8
0
  0
POLYLINE
  8
51
 66
1
 10
0.0000
 20
0.0000
 30
0.0000
 40
0.1016
 41
0.1016
 70
0
  0
VERTEX
  8
51
 10
6.4200
 20
31.2992
 30
0.0000
 42
1.0000
  0
VERTEX
  8
51
 10
6.4200
 20
31.4008
 30
0.0000
  0
SEQEND
  8
0
  0
POLYLINE
  8
51
 66
1
 10
0.0000
 20
0.0000
 30
0.0000
 40
0.1016
 41
0.1016
 70
0
  0
VERTEX
  8
51
 10
2.3200
 20
31.4008
 30
0.0000
 42
1.0000
  0
VERTEX
  8
51
 10
2.3200
 20
31.2992
 30
0.0000
  0
SEQEND
  8
0
  0
POLYLINE
  8
51
 66
1
 10
0.0000
 20
0.0000
 30
0.0000
 40
0.2032
 41
0.2032
 70
0
  0
VERTEX
  8
51
 10
1.4200
 20
31.3500
 30
0.0000
  0
VERTEX
  8
51
 10
1.4200
 20
28.3600
 30
0.0000
  0
SEQEND
  8
0
  0
POLYLINE
  8
51
 66
1
 10
0.0000
 20
0.0000
 30
0.0000
 40
0.1016
 41
0.1016
 70
0
  0
VERTEX
  8
51
 10
1.3692
 20
28.3600
 30
0.0000
 42
1.0000
  0
VERTEX
  8
51
 10
1.4708
 20
28.3600
 30
0.0000
  0
SEQEND
  8
0
  0
POLYLINE
  8
51
 66
1
 10
0.0000
 20
0.0000
 30
0.0000
 40
0.1016
 41
0.1016
 70
0
  0
VERTEX
  8
51
 10
1.4708
 20
31.3500
 30
0.0000
 42
1.0000
  0
VERTEX
  8
51
 10
1.3692
 20
31.3500
 30
0.0000
  0
SEQEND
  8
0
  0
POLYLINE
  8
51
 66
1
 10
0.0000
 20
0.0000
 30
0.0000
 40
0.2032
 41
0.2032
 70
0
  0
VERTEX
  8
51
 10
13.8200
 20
31.3500
 30
0.0000
  0
VERTEX
  8
51
 10
13.8200
 20
28.4600
 30
0.0000
  0
SEQEND
  8
0
  0
POLYLINE
  8
51
 66
1
 10
0.0000
 20
0.0000
 30
0.0000
 40
0.1016
 41
0.1016
 70
0
  0
VERTEX
  8
51
 10
13.7692
 20
28.4600
 30
0.0000
 42
1.0000
  0
VERTEX
  8
51
 10
13.8708
 20
28.4600
 30
0.0000
  0
SEQEND
  8
0
  0
POLYLINE
  8
51
 66
1
 10
0.0000
 20
0.0000
 30
0.0000
 40
0.1016
 41
0.1016
 70
0
  0
VERTEX
  8
51
 10
13.8708
 20
31.3500
 30
0.0000
 42
1.0000
  0
VERTEX
  8
51
 10
13.7692
 20
31.3500
 30
0.0000
  0
SEQEND
  8
0
  0
POLYLINE
  8
51
 66
1
 10
0.0000
 20
0.0000
 30
0.0000
 40
0.2032
 41
0.2032
 70
0
  0
VERTEX
  8
51
 10
2.3200
 20
31.3500
 30
0.0000
  0
VERTEX
  8
51
 10
2.3200
 20
32.3500
 30
0.0000
  0
SEQEND
  8
0
  0
POLYLINE
  8
51
 66
1
 10
0.0000
 20
0.0000
 30
0.0000
 40
0.1016
 41
0.1016
 70
0
  0
VERTEX
  8
51
 10
2.3708
 20
32.3500
 30
0.0000
 42
1.0000
  0
VERTEX
  8
51
 10
2.2692
 20
32.3500
 30
0.0000
  0
SEQEND
  8
0
  0
POLYLINE
  8
51
 66
1
 10
0.0000
 20
0.0000
 30
0.0000
 40
0.1016
 41
0.1016
 70
0
  0
VERTEX
  8
51
 10
2.2692
 20
31.3500
 30
0.0000
 42
1.0000
  0
VERTEX
  8
51
 10
2.3708
 20
31.3500
 30
0.0000
  0
SEQEND
  8
0
  0
POLYLINE
  8
51
 66
1
 10
0.0000
 20
0.0000
 30
0.0000
 40
0.2032
 41
0.2032
 70
0
  0
VERTEX
  8
51
 10
2.3200
 20
32.3500
 30
0.0000
  0
VERTEX
  8
51
 10
2.6200
 20
32.3500
 30
0.0000
  0
SEQEND
  8
0
  0
POLYLINE
  8
51
 66
1
 10
0.0000
 20
0.0000
 30
0.0000
 40
0.1016
 41
0.1016
 70
0
  0
VERTEX
  8
51
 10
2.6200
 20
32.2992
 30
0.0000
 42
1.0000
  0
VERTEX
  8
51
 10
2.6200
 20
32.4008
 30
0.0000
  0
SEQEND
  8
0
  0
POLYLINE
  8
51
 66
1
 10
0.0000
 20
0.0000
 30
0.0000
 40
0.1016
 41
0.1016
 70
0
  0
VERTEX
  8
51
 10
2.3200
 20
32.4008
 30
0.0000
 42
1.0000
  0
VERTEX
  8
51
 10
2.3200
 20
32.2992
 30
0.0000
  0
SEQEND
  8
0
  0
POLYLINE
  8
51
 66
1
 10
0.0000
 20
0.0000
 30
0.0000
 40
0.2032
 41
0.2032
 70
0
  0
VERTEX
  8
51
 10
2.6200
 20
32.3500
 30
0.0000
  0
VERTEX
  8
51
 10
2.6200
 20
35.7500
 30
0.0000
  0
SEQEND
  8
0
  0
POLYLINE
  8
51
 66
1
 10
0.0000
 20
0.0000
 30
0.0000
 40
0.1016
 41
0.1016
 70
0
  0
VERTEX
  8
51
 10
2.6708
 20
35.7500
 30
0.0000
 42
1.0000
  0
VERTEX
  8
51
 10
2.5692
 20
35.7500
 30
0.0000
  0
SEQEND
  8
0
  0
POLYLINE
  8
51
 66
1
 10
0.0000
 20
0.0000
 30
0.0000
 40
0.1016
 41
0.1016
 70
0
  0
VERTEX
  8
51
 10
2.5692
 20
32.3500
 30
0.0000
 42
1.0000
  0
VERTEX
  8
51
 10
2.6708
 20
32.3500
 30
0.0000
  0
SEQEND
  8
0
  0
POLYLINE
  8
51
 66
1
 10
0.0000
 20
0.0000
 30
0.0000
 40
0.2032
 41
0.2032
 70
0
  0
VERTEX
  8
51
 10
2.6200
 20
35.7500
 30
0.0000
  0
VERTEX
  8
51
 10
6.6200
 20
35.7500
 30
0.0000
  0
SEQEND
  8
0
  0
POLYLINE
  8
51
 66
1
 10
0.0000
 20
0.0000
 30
0.0000
 40
0.1016
 41
0.1016
 70
0
  0
VERTEX
  8
51
 10
6.6200
 20
35.6992
 30
0.0000
 42
1.0000
  0
VERTEX
  8
51
 10
6.6200
 20
35.8008
 30
0.0000
  0
SEQEND
  8
0
  0
POLYLINE
  8
51
 66
1
 10
0.0000
 20
0.0000
 30
0.0000
 40
0.1016
 41
0.1016
 70
0
  0
VERTEX
  8
51
 10
2.6200
 20
35.8008
 30
0.0000
 42
1.0000
  0
VERTEX
  8
51
 10
2.6200
 20
35.6992
 30
0.0000
  0
SEQEND
  8
0
  0
POLYLINE
  8
51
 66
1
 10
0.0000
 20
0.0000
 30
0.0000
 40
0.2032
 41
0.2032
 70
0
  0
VERTEX
  8
51
 10
6.6200
 20
35.7500
 30
0.0000
  0
VERTEX
  8
51
 10
8.6200
 20
35.7500
 30
0.0000
  0
SEQEND
  8
0
  0
POLYLINE
  8
51
 66
1
 10
0.0000
 20
0.0000
 30
0.0000
 40
0.1016
 41
0.1016
 70
0
  0
VERTEX
  8
51
 10
8.6200
 20
35.6992
 30
0.0000
 42
1.0000
  0
VERTEX
  8
51
 10
8.6200
 20
35.8008
 30
0.0000
  0
SEQEND
  8
0
  0
POLYLINE
  8
51
 66
1
 10
0.0000
 20
0.0000
 30
0.0000
 40
0.1016
 41
0.1016
 70
0
  0
VERTEX
  8
51
 10
6.6200
 20
35.8008
 30
0.0000
 42
1.0000
  0
VERTEX
  8
51
 10
6.6200
 20
35.6992
 30
0.0000
  0
SEQEND
  8
0
  0
POLYLINE
  8
51
 66
1
 10
0.0000
 20
0.0000
 30
0.0000
 40
0.2032
 41
0.2032
 70
0
  0
VERTEX
  8
51
 10
8.6200
 20
35.7500
 30
0.0000
  0
VERTEX
  8
51
 10
12.6200
 20
35.7500
 30
0.0000
  0
SEQEND
  8
0
  0
POLYLINE
  8
51
 66
1
 10
0.0000
 20
0.0000
 30
0.0000
 40
0.1016
 41
0.1016
 70
0
  0
VERTEX
  8
51
 10
12.6200
 20
35.6992
 30
0.0000
 42
1.0000
  0
VERTEX
  8
51
 10
12.6200
 20
35.8008
 30
0.0000
  0
SEQEND
  8
0
  0
POLYLINE
  8
51
 66
1
 10
0.0000
 20
0.0000
 30
0.0000
 40
0.1016
 41
0.1016
 70
0
  0
VERTEX
  8
51
 10
8.6200
 20
35.8008
 30
0.0000
 42
1.0000
  0
VERTEX
  8
51
 10
8.6200
 20
35.6992
 30
0.0000
  0
SEQEND
  8
0
  0
POLYLINE
  8
51
 66
1
 10
0.0000
 20
0.0000
 30
0.0000
 40
0.2032
 41
0.2032
 70
0
  0
VERTEX
  8
51
 10
12.6200
 20
35.7500
 30
0.0000
  0
VERTEX
  8
51
 10
12.6200
 20
32.3500
 30
0.0000
  0
SEQEND
  8
0
  0
POLYLINE
  8
51
 66
1
 10
0.0000
 20
0.0000
 30
0.0000
 40
0.1016
 41
0.1016
 70
0
  0
VERTEX
  8
51
 10
12.5692
 20
32.3500
 30
0.0000
 42
1.0000
  0
VERTEX
  8
51
 10
12.6708
 20
32.3500
 30
0.0000
  0
SEQEND
  8
0
  0
POLYLINE
  8
51
 66
1
 10
0.0000
 20
0.0000
 30
0.0000
 40
0.1016
 41
0.1016
 70
0
  0
VERTEX
  8
51
 10
12.6708
 20
35.7500
 30
0.0000
 42
1.0000
  0
VERTEX
  8
51
 10
12.5692
 20
35.7500
 30
0.0000
  0
SEQEND
  8
0
  0
POLYLINE
  8
51
 66
1
 10
0.0000
 20
0.0000
 30
0.0000
 40
0.2032
 41
0.2032
 70
0
  0
VERTEX
  8
51
 10
12.6200
 20
32.3500
 30
0.0000
  0
VERTEX
  8
51
 10
12.9200
 20
32.3500
 30
0.0000
  0
SEQEND
  8
0
  0
POLYLINE
  8
51
 66
1
 10
0.0000
 20
0.0000
 30
0.0000
 40
0.1016
 41
0.1016
 70
0
  0
VERTEX
  8
51
 10
12.9200
 20
32.2992
 30
0.0000
 42
1.0000
  0
VERTEX
  8
51
 10
12.9200
 20
32.4008
 30
0.0000
  0
SEQEND
  8
0
  0
POLYLINE
  8
51
 66
1
 10
0.0000
 20
0.0000
 30
0.0000
 40
0.1016
 41
0.1016
 70
0
  0
VERTEX
  8
51
 10
12.6200
 20
32.4008
 30
0.0000
 42
1.0000
  0
VERTEX
  8
51
 10
12.6200
 20
32.2992
 30
0.0000
  0
SEQEND
  8
0
  0
POLYLINE
  8
51
 66
1
 10
0.0000
 20
0.0000
 30
0.0000
 40
0.2032
 41
0.2032
 70
0
  0
VERTEX
  8
51
 10
12.9200
 20
32.3500
 30
0.0000
  0
VERTEX
  8
51
 10
12.9200
 20
31.3500
 30
0.0000
  0
SEQEND
  8
0
  0
POLYLINE
  8
51
 66
1
 10
0.0000
 20
0.0000
 30
0.0000
 40
0.1016
 41
0.1016
 70
0
  0
VERTEX
  8
51
 10
12.8692
 20
31.3500
 30
0.0000
 42
1.0000
  0
VERTEX
  8
51
 10
12.9708
 20
31.3500
 30
0.0000
  0
SEQEND
  8
0
  0
POLYLINE
  8
51
 66
1
 10
0.0000
 20
0.0000
 30
0.0000
 40
0.1016
 41
0.1016
 70
0
  0
VERTEX
  8
51
 10
12.9708
 20
32.3500
 30
0.0000
 42
1.0000
  0
VERTEX
  8
51
 10
12.8692
 20
32.3500
 30
0.0000
  0
SEQEND
  8
0
  0
INSERT
  8
1
  2
RECT
 10
1.4200
 20
20.0500
 30
0.0000
 41
1.9000
 42
1.4000
 43
1.0000
 50
0.0000
  0
INSERT
  8
1
  2
RECT
 10
1.4200
 20
17.8500
 30
0.0000
 41
1.9000
 42
1.4000
 43
1.0000
 50
0.0000
  0
INSERT
  8
1
  2
RECT
 10
1.4200
 20
12.6500
 30
0.0000
 41
1.9000
 42
1.4000
 43
1.0000
 50
0.0000
  0
INSERT
  8
1
  2
RECT
 10
1.4200
 20
10.4500
 30
0.0000
 41
1.9000
 42
1.4000
 43
1.0000
 50
0.0000
  0
INSERT
  8
1
  2
RECT
 10
13.8200
 20
10.4500
 30
0.0000
 41
1.9000
 42
1.4000
 43
1.0000
 50
0.0000
  0
INSERT
  8
1
  2
RECT
 10
13.8200
 20
12.6500
 30
0.0000
 41
1.9000
 42
1.4000
 43
1.0000
 50
0.0000
  0
INSERT
  8
1
  2
RECT
 10
13.8200
 20
17.8500
 30
0.0000
 41
1.9000
 42
1.4000
 43
1.0000
 50
0.0000
  0
INSERT
  8
1
  2
RECT
 10
13.8200
 20
20.0500
 30
0.0000
 41
1.9000
 42
1.4000
 43
1.0000
 50
0.0000
  0
INSERT
  8
17
  2
ROUNDP
 10
13.4700
 20
30.0500
 30
0.0000
 41
2.7000
 42
2.7000
 43
1.0000
 50
0.0000
  0
INSERT
  8
17
  2
ROUNDP
 10
13.4700
 20
30.0500
 30
0.0000
 41
2.7000
 42
2.7000
 43
1.0000
 50
0.0000
  0
INSERT
  8
17
  2
ROUNDP
 10
1.7700
 20
30.0500
 30
0.0000
 41
2.7000
 42
2.7000
 43
1.0000
 50
0.0000
  0
INSERT
  8
17
  2
ROUNDP
 10
1.7700
 20
30.0500
 30
0.0000
 41
2.7000
 42
2.7000
 43
1.0000
 50
0.0000
  0
POLYLINE
  8
1
 66
1
 10
0.0000
 20
0.0000
 30
0.0000
 40
0.2540
 41
0.2540
 70
0
  0
VERTEX
  8
1
 10
12.7700
 20
17.8500
 30
0.0000
  0
VERTEX
  8
1
 10
13.8200
 20
17.8500
 30
0.0000
  0
SEQEND
  8
0
  0
POLYLINE
  8
1
 66
1
 10
0.0000
 20
0.0000
 30
0.0000
 40
0.1270
 41
0.1270
 70
0
  0
VERTEX
  8
1
 10
13.8200
 20
17.7865
 30
0.0000
 42
1.0000
  0
VERTEX
  8
1
 10
13.8200
 20
17.9135
 30
0.0000
  0
SEQEND
  8
0
  0
POLYLINE
  8
1
 66
1
 10
0.0000
 20
0.0000
 30
0.0000
 40
0.1270
 41
0.1270
 70
0
  0
VERTEX
  8
1
 10
12.7700
 20
17.9135
 30
0.0000
 42
1.0000
  0
VERTEX
  8
1
 10
12.7700
 20
17.7865
 30
0.0000
  0
SEQEND
  8
0
  0
POLYLINE
  8
1
 66
1
 10
0.0000
 20
0.0000
 30
0.0000
 40
0.2540
 41
0.2540
 70
0
  0
VERTEX
  8
1
 10
11.4300
 20
16.5100
 30
0.0000
  0
VERTEX
  8
1
 10
12.7700
 20
17.8500
 30
0.0000
  0
SEQEND
  8
0
  0
POLYLINE
  8
1
 66
1
 10
0.0000
 20
0.0000
 30
0.0000
 40
0.1270
 41
0.1270
 70
0
  0
VERTEX
  8
1
 10
12.8149
 20
17.8051
 30
0.0000
 42
1.0000
  0
VERTEX
  8
1
 10
12.7251
 20
17.8949
 30
0.0000
  0
SEQEND
  8
0
  0
POLYLINE
  8
1
 66
1
 10
0.0000
 20
0.0000
 30
0.0000
 40
0.1270
 41
0.1270
 70
0
  0
VERTEX
  8
1
 10
11.3851
 20
16.5549
 30
0.0000
 42
1.0000
  0
VERTEX
  8
1
 10
11.4749
 20
16.4651
 30
0.0000
  0
SEQEND
  8
0
  0
POLYLINE
  8
16
 66
1
 10
0.0000
 20
0.0000
 30
0.0000
 40
0.2540
 41
0.2540
 70
0
  0
VERTEX
  8
16
 10
11.4300
 20
1.2700
 30
0.0000
  0
VERTEX
  8
16
 10
11.4300
 20
16.5100
 30
0.0000
  0
SEQEND
  8
0
  0
POLYLINE
  8
16
 66
1
 10
0.0000
 20
0.0000
 30
0.0000
 40
0.1270
 41
0.1270
 70
0
  0
VERTEX
  8
16
 10
11.4935
 20
16.5100
 30
0.0000
 42
1.0000
  0
VERTEX
  8
16
 10
11.3665
 20
16.5100
 30
0.0000
  0
SEQEND
  8
0
  0
POLYLINE
  8
16
 66
1
 10
0.0000
 20
0.0000
 30
0.0000
 40
0.1270
 41
0.1270
 70
0
  0
VERTEX
  8
16
 10
11.3665
 20
1.2700
 30
0.0000
 42
1.0000
  0
VERTEX
  8
16
 10
11.4935
 20
1.2700
 30
0.0000
  0
SEQEND
  8
0
  0
INSERT
  8
18
  2
ROUNDV
 10
11.4300
 20
16.5100
 30
0.0000
 41
1.0160
 42
1.0160
 43
1.0000
 50
0.0000
  0
INSERT
  8
18
  2
ROUNDV
 10
11.4300
 20
16.5100
 30
0.0000
 41
1.0160
 42
1.0160
 43
1.0000
 50
0.0000
  0
POLYLINE
  8
1
 66
1
 10
0.0000
 20
0.0000
 30
0.0000
 40
0.2540
 41
0.2540
 70
0
  0
VERTEX
  8
1
 10
0.0000
 20
31.3500
 30
0.0000
  0
VERTEX
  8
1
 10
15.2400
 20
31.3500
 30
0.0000
  0
SEQEND
  8
0
  0
POLYLINE
  8
1
 66
1
 10
0.0000
 20
0.0000
 30
0.0000
 40
0.1270
 41
0.1270
 70
0
  0
VERTEX
  8
1
 10
15.2400
 20
31.2865
 30
0.0000
 42
1.0000
  0
VERTEX
  8
1
 10
15.2400
 20
31.4135
 30
0.0000
  0
SEQEND
  8
0
  0
POLYLINE
  8
1
 66
1
 10
0.0000
 20
0.0000
 30
0.0000
 40
0.1270
 41
0.1270
 70
0
  0
VERTEX
  8
1
 10
0.0000
 20
31.4135
 30
0.0000
 42
1.0000
  0
VERTEX
  8
1
 10
0.0000
 20
31.2865
 30
0.0000
  0
SEQEND
  8
0
  0
POLYLINE
  8
1
 66
1
 10
0.0000
 20
0.0000
 30
0.0000
 40
0.2540
 41
0.2540
 70
0
  0
VERTEX
  8
1
 10
15.2400
 20
31.3500
 30
0.0000
  0
VERTEX
  8
1
 10
15.2400
 20
0.0000
 30
0.0000
  0
SEQEND
  8
0
  0
POLYLINE
  8
1
 66
1
 10
0.0000
 20
0.0000
 30
0.0000
 40
0.1270
 41
0.1270
 70
0
  0
VERTEX
  8
1
 10
15.1765
 20
0.0000
 30
0.0000
 42
1.0000
  0
VERTEX
  8
1
 10
15.3035
 20
0.0000
 30
0.0000
  0
SEQEND
  8
0
  0
POLYLINE
  8
1
 66
1
 10
0.0000
 20
0.0000
 30
0.0000
 40
0.1270
 41
0.1270
 70
0
  0
VERTEX
  8
1
 10
15.3035
 20
31.3500
 30
0.0000
 42
1.0000
  0
VERTEX
  8
1
 10
15.1765
 20
31.3500
 30
0.0000
  0
SEQEND
  8
0
  0
POLYLINE
  8
1
 66
1
 10
0.0000
 20
0.0000
 30
0.0000
 40
0.2540
 41
0.2540
 70
0
  0
VERTEX
  8
1
 10
15.2400
 20
0.0000
 30
0.0000
  0
VERTEX
  8
1
 10
0.0000
 20
0.0000
 30
0.0000
  0
SEQEND
  8
0
  0
POLYLINE
  8
1
 66
1
 10
0.0000
 20
0.0000
 30
0.0000
 40
0.1270
 41
0.1270
 70
0
  0
VERTEX
  8
1
 10
0.0000
 20
0.0635
 30
0.0000
 42
1.0000
  0
VERTEX
  8
1
 10
0.0000
 20
-0.0635
 30
0.0000
  0
SEQEND
  8
0
  0
POLYLINE
  8
1
 66
1
 10
0.0000
 20
0.0000
 30
0.0000
 40
0.1270
 41
0.1270
 70
0
  0
VERTEX
  8
1
 10
15.2400
 20
-0.0635
 30
0.0000
 42
1.0000
  0
VERTEX
  8
1
 10
15.2400
 20
0.0635
 30
0.0000
  0
SEQEND
  8
0
  0
POLYLINE
  8
1
 66
1
 10
0.0000
 20
0.0000
 30
0.0000
 40
0.2540
 41
0.2540
 70
0
  0
VERTEX
  8
1
 10
0.0000
 20
0.0000
 30
0.0000
  0
VERTEX
  8
1
 10
0.0000
 20
31.3500
 30
0.0000
  0
SEQEND
  8
0
  0
POLYLINE
  8
1
 66
1
 10
0.0000
 20
0.0000
 30
0.0000
 40
0.1270
 41
0.1270
 70
0
  0
VERTEX
  8
1
 10
0.0635
 20
31.3500
 30
0.0000
 42
1.0000
  0
VERTEX
  8
1
 10
-0.0635
 20
31.3500
 30
0.0000
  0
SEQEND
  8
0
  0
POLYLINE
  8
1
 66
1
 10
0.0000
 20
0.0000
 30
0.0000
 40
0.1270
 41
0.1270
 70
0
  0
VERTEX
  8
1
 10
-0.0635
 20
0.0000
 30
0.0000
 42
1.0000
  0
VERTEX
  8
1
 10
0.0635
 20
0.0000
 30
0.0000
  0
SEQEND
  8
0
  0
POLYLINE
  8
16
 66
1
 10
0.0000
 20
0.0000
 30
0.0000
 40
0.2540
 41
0.2540
 70
0
  0
VERTEX
  8
16
 10
0.0000
 20
31.3500
 30
0.0000
  0
VERTEX
  8
16
 10
0.0000
 20
0.0000
 30
0.0000
  0
SEQEND
  8
0
  0
POLYLINE
  8
16
 66
1
 10
0.0000
 20
0.0000
 30
0.0000
 40
0.1270
 41
0.1270
 70
0
  0
VERTEX
  8
16
 10
-0.0635
 20
0.0000
 30
0.0000
 42
1.0000
  0
VERTEX
  8
16
 10
0.0635
 20
0.0000
 30
0.0000
  0
SEQEND
  8
0
  0
POLYLINE
  8
16
 66
1
 10
0.0000
 20
0.0000
 30
0.0000
 40
0.1270
 41
0.1270
 70
0
  0
VERTEX
  8
16
 10
0.0635
 20
31.3500
 30
0.0000
 42
1.0000
  0
VERTEX
  8
16
 10
-0.0635
 20
31.3500
 30
0.0000
  0
SEQEND
  8
0
  0
POLYLINE
  8
16
 66
1
 10
0.0000
 20
0.0000
 30
0.0000
 40
0.2540
 41
0.2540
 70
0
  0
VERTEX
  8
16
 10
0.0000
 20
0.0000
 30
0.0000
  0
VERTEX
  8
16
 10
15.2400
 20
0.0000
 30
0.0000
  0
SEQEND
  8
0
  0
POLYLINE
  8
16
 66
1
 10
0.0000
 20
0.0000
 30
0.0000
 40
0.1270
 41
0.1270
 70
0
  0
VERTEX
  8
16
 10
15.2400
 20
-0.0635
 30
0.0000
 42
1.0000
  0
VERTEX
  8
16
 10
15.2400
 20
0.0635
 30
0.0000
  0
SEQEND
  8
0
  0
POLYLINE
  8
16
 66
1
 10
0.0000
 20
0.0000
 30
0.0000
 40
0.1270
 41
0.1270
 70
0
  0
VERTEX
  8
16
 10
0.0000
 20
0.0635
 30
0.0000
 42
1.0000
  0
VERTEX
  8
16
 10
0.0000
 20
-0.0635
 30
0.0000
  0
SEQEND
  8
0
  0
POLYLINE
  8
16
 66
1
 10
0.0000
 20
0.0000
 30
0.0000
 40
0.2540
 41
0.2540
 70
0
  0
VERTEX
  8
16
 10
15.2400
 20
0.0000
 30
0.0000
  0
VERTEX
  8
16
 10
15.2400
 20
31.3500
 30
0.0000
  0
SEQEND
  8
0
  0
POLYLINE
  8
16
 66
1
 10
0.0000
 20
0.0000
 30
0.0000
 40
0.1270
 41
0.1270
 70
0
  0
VERTEX
  8
16
 10
15.3035
 20
31.3500
 30
0.0000
 42
1.0000
  0
VERTEX
  8
16
 10
15.1765
 20
31.3500
 30
0.0000
  0
SEQEND
  8
0
  0
POLYLINE
  8
16
 66
1
 10
0.0000
 20
0.0000
 30
0.0000
 40
0.1270
 41
0.1270
 70
0
  0
VERTEX
  8
16
 10
15.1765
 20
0.0000
 30
0.0000
 42
1.0000
  0
VERTEX
  8
16
 10
15.3035
 20
0.0000
 30
0.0000
  0
SEQEND
  8
0
  0
POLYLINE
  8
16
 66
1
 10
0.0000
 20
0.0000
 30
0.0000
 40
0.2540
 41
0.2540
 70
0
  0
VERTEX
  8
16
 10
15.2400
 20
31.3500
 30
0.0000
  0
VERTEX
  8
16
 10
0.0000
 20
31.3500
 30
0.0000
  0
SEQEND
  8
0
  0
POLYLINE
  8
16
 66
1
 10
0.0000
 20
0.0000
 30
0.0000
 40
0.1270
 41
0.1270
 70
0
  0
VERTEX
  8
16
 10
0.0000
 20
31.4135
 30
0.0000
 42
1.0000
  0
VERTEX
  8
16
 10
0.0000
 20
31.2865
 30
0.0000
  0
SEQEND
  8
0
  0
POLYLINE
  8
16
 66
1
 10
0.0000
 20
0.0000
 30
0.0000
 40
0.1270
 41
0.1270
 70
0
  0
VERTEX
  8
16
 10
15.2400
 20
31.2865
 30
0.0000
 42
1.0000
  0
VERTEX
  8
16
 10
15.2400
 20
31.4135
 30
0.0000
  0
SEQEND
  8
0
  0
POLYLINE
  8
1
 66
1
 10
0.0000
 20
0.0000
 30
0.0000
 40
0.2540
 41
0.2540
 70
0
  0
VERTEX
  8
1
 10
10.4500
 20
10.4500
 30
0.0000
  0
VERTEX
  8
1
 10
13.8200
 20
10.4500
 30
0.0000
  0
SEQEND
  8
0
  0
POLYLINE
  8
1
 66
1
 10
0.0000
 20
0.0000
 30
0.0000
 40
0.1270
 41
0.1270
 70
0
  0
VERTEX
  8
1
 10
13.8200
 20
10.3865
 30
0.0000
 42
1.0000
  0
VERTEX
  8
1
 10
13.8200
 20
10.5135
 30
0.0000
  0
SEQEND
  8
0
  0
POLYLINE
  8
1
 66
1
 10
0.0000
 20
0.0000
 30
0.0000
 40
0.1270
 41
0.1270
 70
0
  0
VERTEX
  8
1
 10
10.4500
 20
10.5135
 30
0.0000
 42
1.0000
  0
VERTEX
  8
1
 10
10.4500
 20
10.3865
 30
0.0000
  0
SEQEND
  8
0
  0
POLYLINE
  8
1
 66
1
 10
0.0000
 20
0.0000
 30
0.0000
 40
0.2540
 41
0.2540
 70
0
  0
VERTEX
  8
1
 10
10.1600
 20
10.1600
 30
0.0000
  0
VERTEX
  8
1
 10
10.4500
 20
10.4500
 30
0.0000
  0
SEQEND
  8
0
  0
POLYLINE
  8
1
 66
1
 10
0.0000
 20
0.0000
 30
0.0000
 40
0.1270
 41
0.1270
 70
0
  0
VERTEX
  8
1
 10
10.4949
 20
10.4051
 30
0.0000
 42
1.0000
  0
VERTEX
  8
1
 10
10.4051
 20
10.4949
 30
0.0000
  0
SEQEND
  8
0
  0
POLYLINE
  8
1
 66
1
 10
0.0000
 20
0.0000
 30
0.0000
 40
0.1270
 41
0.1270
 70
0
  0
VERTEX
  8
1
 10
10.1151
 20
10.2049
 30
0.0000
 42
1.0000
  0
VERTEX
  8
1
 10
10.2049
 20
10.1151
 30
0.0000
  0
SEQEND
  8
0
  0
POLYLINE
  8
1
 66
1
 10
0.0000
 20
0.0000
 30
0.0000
 40
0.2540
 41
0.2540
 70
0
  0
VERTEX
  8
1
 10
7.6200
 20
10.1600
 30
0.0000
  0
VERTEX
  8
1
 10
10.1600
 20
10.1600
 30
0.0000
  0
SEQEND
  8
0
  0
POLYLINE
  8
1
 66
1
 10
0.0000
 20
0.0000
 30
0.0000
 40
0.1270
 41
0.1270
 70
0
  0
VERTEX
  8
1
 10
10.1600
 20
10.0965
 30
0.0000
 42
1.0000
  0
VERTEX
  8
1
 10
10.1600
 20
10.2235
 30
0.0000
  0
SEQEND
  8
0
  0
POLYLINE
  8
1
 66
1
 10
0.0000
 20
0.0000
 30
0.0000
 40
0.1270
 41
0.1270
 70
0
  0
VERTEX
  8
1
 10
7.6200
 20
10.2235
 30
0.0000
 42
1.0000
  0
VERTEX
  8
1
 10
7.6200
 20
10.0965
 30
0.0000
  0
SEQEND
  8
0
  0
POLYLINE
  8
1
 66
1
 10
0.0000
 20
0.0000
 30
0.0000
 40
0.2540
 41
0.2540
 70
0
  0
VERTEX
  8
1
 10
3.5200
 20
10.4500
 30
0.0000
  0
VERTEX
  8
1
 10
1.4200
 20
10.4500
 30
0.0000
  0
SEQEND
  8
0
  0
POLYLINE
  8
1
 66
1
 10
0.0000
 20
0.0000
 30
0.0000
 40
0.1270
 41
0.1270
 70
0
  0
VERTEX
  8
1
 10
1.4200
 20
10.5135
 30
0.0000
 42
1.0000
  0
VERTEX
  8
1
 10
1.4200
 20
10.3865
 30
0.0000
  0
SEQEND
  8
0
  0
POLYLINE
  8
1
 66
1
 10
0.0000
 20
0.0000
 30
0.0000
 40
0.1270
 41
0.1270
 70
0
  0
VERTEX
  8
1
 10
3.5200
 20
10.3865
 30
0.0000
 42
1.0000
  0
VERTEX
  8
1
 10
3.5200
 20
10.5135
 30
0.0000
  0
SEQEND
  8
0
  0
POLYLINE
  8
1
 66
1
 10
0.0000
 20
0.0000
 30
0.0000
 40
0.2540
 41
0.2540
 70
0
  0
VERTEX
  8
1
 10
6.3500
 20
7.6200
 30
0.0000
  0
VERTEX
  8
1
 10
3.5200
 20
10.4500
 30
0.0000
  0
SEQEND
  8
0
  0
POLYLINE
  8
1
 66
1
 10
0.0000
 20
0.0000
 30
0.0000
 40
0.1270
 41
0.1270
 70
0
  0
VERTEX
  8
1
 10
3.5649
 20
10.4949
 30
0.0000
 42
1.0000
  0
VERTEX
  8
1
 10
3.4751
 20
10.4051
 30
0.0000
  0
SEQEND
  8
0
  0
POLYLINE
  8
1
 66
1
 10
0.0000
 20
0.0000
 30
0.0000
 40
0.1270
 41
0.1270
 70
0
  0
VERTEX
  8
1
 10
6.3051
 20
7.5751
 30
0.0000
 42
1.0000
  0
VERTEX
  8
1
 10
6.3949
 20
7.6649
 30
0.0000
  0
SEQEND
  8
0
  0
POLYLINE
  8
1
 66
1
 10
0.0000
 20
0.0000
 30
0.0000
 40
0.2540
 41
0.2540
 70
0
  0
VERTEX
  8
1
 10
6.3500
 20
1.2700
 30
0.0000
  0
VERTEX
  8
1
 10
6.3500
 20
7.6200
 30
0.0000
  0
SEQEND
  8
0
  0
POLYLINE
  8
1
 66
1
 10
0.0000
 20
0.0000
 30
0.0000
 40
0.1270
 41
0.1270
 70
0
  0
VERTEX
  8
1
 10
6.4135
 20
7.6200
 30
0.0000
 42
1.0000
  0
VERTEX
  8
1
 10
6.2865
 20
7.6200
 30
0.0000
  0
SEQEND
  8
0
  0
POLYLINE
  8
1
 66
1
 10
0.0000
 20
0.0000
 30
0.0000
 40
0.1270
 41
0.1270
 70
0
  0
VERTEX
  8
1
 10
6.2865
 20
1.2700
 30
0.0000
 42
1.0000
  0
VERTEX
  8
1
 10
6.4135
 20
1.2700
 30
0.0000
  0
SEQEND
  8
0
  0
POLYLINE
  8
1
 66
1
 10
0.0000
 20
0.0000
 30
0.0000
 40
0.2540
 41
0.2540
 70
0
  0
VERTEX
  8
1
 10
3.8100
 20
12.6500
 30
0.0000
  0
VERTEX
  8
1
 10
1.4200
 20
12.6500
 30
0.0000
  0
SEQEND
  8
0
  0
POLYLINE
  8
1
 66
1
 10
0.0000
 20
0.0000
 30
0.0000
 40
0.1270
 41
0.1270
 70
0
  0
VERTEX
  8
1
 10
1.4200
 20
12.7135
 30
0.0000
 42
1.0000
  0
VERTEX
  8
1
 10
1.4200
 20
12.5865
 30
0.0000
  0
SEQEND
  8
0
  0
POLYLINE
  8
1
 66
1
 10
0.0000
 20
0.0000
 30
0.0000
 40
0.1270
 41
0.1270
 70
0
  0
VERTEX
  8
1
 10
3.8100
 20
12.5865
 30
0.0000
 42
1.0000
  0
VERTEX
  8
1
 10
3.8100
 20
12.7135
 30
0.0000
  0
SEQEND
  8
0
  0
POLYLINE
  8
16
 66
1
 10
0.0000
 20
0.0000
 30
0.0000
 40
0.2540
 41
0.2540
 70
0
  0
VERTEX
  8
16
 10
3.8100
 20
1.2700
 30
0.0000
  0
VERTEX
  8
16
 10
3.8100
 20
12.6500
 30
0.0000
  0
SEQEND
  8
0
  0
POLYLINE
  8
16
 66
1
 10
0.0000
 20
0.0000
 30
0.0000
 40
0.1270
 41
0.1270
 70
0
  0
VERTEX
  8
16
 10
3.8735
 20
12.6500
 30
0.0000
 42
1.0000
  0
VERTEX
  8
16
 10
3.7465
 20
12.6500
 30
0.0000
  0
SEQEND
  8
0
  0
POLYLINE
  8
16
 66
1
 10
0.0000
 20
0.0000
 30
0.0000
 40
0.1270
 41
0.1270
 70
0
  0
VERTEX
  8
16
 10
3.7465
 20
1.2700
 30
0.0000
 42
1.0000
  0
VERTEX
  8
16
 10
3.8735
 20
1.2700
 30
0.0000
  0
SEQEND
  8
0
  0
INSERT
  8
18
  2
ROUNDV
 10
3.8100
 20
12.6500
 30
0.0000
 41
1.0160
 42
1.0160
 43
1.0000
 50
0.0000
  0
INSERT
  8
18
  2
ROUNDV
 10
3.8100
 20
12.6500
 30
0.0000
 41
1.0160
 42
1.0160
 43
1.0000
 50
0.0000
  0
POLYLINE
  8
1
 66
1
 10
0.0000
 20
0.0000
 30
0.0000
 40
0.2540
 41
0.2540
 70
0
  0
VERTEX
  8
1
 10
11.1600
 20
20.0500
 30
0.0000
  0
VERTEX
  8
1
 10
13.8200
 20
20.0500
 30
0.0000
  0
SEQEND
  8
0
  0
POLYLINE
  8
1
 66
1
 10
0.0000
 20
0.0000
 30
0.0000
 40
0.1270
 41
0.1270
 70
0
  0
VERTEX
  8
1
 10
13.8200
 20
19.9865
 30
0.0000
 42
1.0000
  0
VERTEX
  8
1
 10
13.8200
 20
20.1135
 30
0.0000
  0
SEQEND
  8
0
  0
POLYLINE
  8
1
 66
1
 10
0.0000
 20
0.0000
 30
0.0000
 40
0.1270
 41
0.1270
 70
0
  0
VERTEX
  8
1
 10
11.1600
 20
20.1135
 30
0.0000
 42
1.0000
  0
VERTEX
  8
1
 10
11.1600
 20
19.9865
 30
0.0000
  0
SEQEND
  8
0
  0
POLYLINE
  8
1
 66
1
 10
0.0000
 20
0.0000
 30
0.0000
 40
0.2540
 41
0.2540
 70
0
  0
VERTEX
  8
1
 10
10.1600
 20
19.0500
 30
0.0000
  0
VERTEX
  8
1
 10
11.1600
 20
20.0500
 30
0.0000
  0
SEQEND
  8
0
  0
POLYLINE
  8
1
 66
1
 10
0.0000
 20
0.0000
 30
0.0000
 40
0.1270
 41
0.1270
 70
0
  0
VERTEX
  8
1
 10
11.2049
 20
20.0051
 30
0.0000
 42
1.0000
  0
VERTEX
  8
1
 10
11.1151
 20
20.0949
 30
0.0000
  0
SEQEND
  8
0
  0
POLYLINE
  8
1
 66
1
 10
0.0000
 20
0.0000
 30
0.0000
 40
0.1270
 41
0.1270
 70
0
  0
VERTEX
  8
1
 10
10.1151
 20
19.0949
 30
0.0000
 42
1.0000
  0
VERTEX
  8
1
 10
10.2049
 20
19.0051
 30
0.0000
  0
SEQEND
  8
0
  0
POLYLINE
  8
16
 66
1
 10
0.0000
 20
0.0000
 30
0.0000
 40
0.2540
 41
0.2540
 70
0
  0
VERTEX
  8
16
 10
10.1600
 20
8.8900
 30
0.0000
  0
VERTEX
  8
16
 10
10.1600
 20
19.0500
 30
0.0000
  0
SEQEND
  8
0
  0
POLYLINE
  8
16
 66
1
 10
0.0000
 20
0.0000
 30
0.0000
 40
0.1270
 41
0.1270
 70
0
  0
VERTEX
  8
16
 10
10.2235
 20
19.0500
 30
0.0000
 42
1.0000
  0
VERTEX
  8
16
 10
10.0965
 20
19.0500
 30
0.0000
  0
SEQEND
  8
0
  0
POLYLINE
  8
16
 66
1
 10
0.0000
 20
0.0000
 30
0.0000
 40
0.1270
 41
0.1270
 70
0
  0
VERTEX
  8
16
 10
10.0965
 20
8.8900
 30
0.0000
 42
1.0000
  0
VERTEX
  8
16
 10
10.2235
 20
8.8900
 30
0.0000
  0
SEQEND
  8
0
  0
POLYLINE
  8
16
 66
1
 10
0.0000
 20
0.0000
 30
0.0000
 40
0.2540
 41
0.2540
 70
0
  0
VERTEX
  8
16
 10
8.8900
 20
7.6200
 30
0.0000
  0
VERTEX
  8
16
 10
10.1600
 20
8.8900
 30
0.0000
  0
SEQEND
  8
0
  0
POLYLINE
  8
16
 66
1
 10
0.0000
 20
0.0000
 30
0.0000
 40
0.1270
 41
0.1270
 70
0
  0
VERTEX
  8
16
 10
10.2049
 20
8.8451
 30
0.0000
 42
1.0000
  0
VERTEX
  8
16
 10
10.1151
 20
8.9349
 30
0.0000
  0
SEQEND
  8
0
  0
POLYLINE
  8
16
 66
1
 10
0.0000
 20
0.0000
 30
0.0000
 40
0.1270
 41
0.1270
 70
0
  0
VERTEX
  8
16
 10
8.8451
 20
7.6649
 30
0.0000
 42
1.0000
  0
VERTEX
  8
16
 10
8.9349
 20
7.5751
 30
0.0000
  0
SEQEND
  8
0
  0
POLYLINE
  8
16
 66
1
 10
0.0000
 20
0.0000
 30
0.0000
 40
0.2540
 41
0.2540
 70
0
  0
VERTEX
  8
16
 10
8.8900
 20
1.2700
 30
0.0000
  0
VERTEX
  8
16
 10
8.8900
 20
7.6200
 30
0.0000
  0
SEQEND
  8
0
  0
POLYLINE
  8
16
 66
1
 10
0.0000
 20
0.0000
 30
0.0000
 40
0.1270
 41
0.1270
 70
0
  0
VERTEX
  8
16
 10
8.9535
 20
7.6200
 30
0.0000
 42
1.0000
  0
VERTEX
  8
16
 10
8.8265
 20
7.6200
 30
0.0000
  0
SEQEND
  8
0
  0
POLYLINE
  8
16
 66
1
 10
0.0000
 20
0.0000
 30
0.0000
 40
0.1270
 41
0.1270
 70
0
  0
VERTEX
  8
16
 10
8.8265
 20
1.2700
 30
0.0000
 42
1.0000
  0
VERTEX
  8
16
 10
8.9535
 20
1.2700
 30
0.0000
  0
SEQEND
  8
0
  0
INSERT
  8
18
  2
ROUNDV
 10
10.1600
 20
19.0500
 30
0.0000
 41
1.0160
 42
1.0160
 43
1.0000
 50
0.0000
  0
INSERT
  8
18
  2
ROUNDV
 10
10.1600
 20
19.0500
 30
0.0000
 41
1.0160
 42
1.0160
 43
1.0000
 50
0.0000
  0
POLYLINE
  8
1
 66
1
 10
0.0000
 20
0.0000
 30
0.0000
 40
0.2540
 41
0.2540
 70
0
  0
VERTEX
  8
1
 10
1.4200
 20
16.3600
 30
0.0000
  0
VERTEX
  8
1
 10
1.4200
 20
17.8500
 30
0.0000
  0
SEQEND
  8
0
  0
POLYLINE
  8
1
 66
1
 10
0.0000
 20
0.0000
 30
0.0000
 40
0.1270
 41
0.1270
 70
0
  0
VERTEX
  8
1
 10
1.4835
 20
17.8500
 30
0.0000
 42
1.0000
  0
VERTEX
  8
1
 10
1.3565
 20
17.8500
 30
0.0000
  0
SEQEND
  8
0
  0
POLYLINE
  8
1
 66
1
 10
0.0000
 20
0.0000
 30
0.0000
 40
0.1270
 41
0.1270
 70
0
  0
VERTEX
  8
1
 10
1.3565
 20
16.3600
 30
0.0000
 42
1.0000
  0
VERTEX
  8
1
 10
1.4835
 20
16.3600
 30
0.0000
  0
SEQEND
  8
0
  0
POLYLINE
  8
1
 66
1
 10
0.0000
 20
0.0000
 30
0.0000
 40
0.2540
 41
0.2540
 70
0
  0
VERTEX
  8
1
 10
2.5400
 20
15.2400
 30
0.0000
  0
VERTEX
  8
1
 10
1.4200
 20
16.3600
 30
0.0000
  0
SEQEND
  8
0
  0
POLYLINE
  8
1
 66
1
 10
0.0000
 20
0.0000
 30
0.0000
 40
0.1270
 41
0.1270
 70
0
  0
VERTEX
  8
1
 10
1.4649
 20
16.4049
 30
0.0000
 42
1.0000
  0
VERTEX
  8
1
 10
1.3751
 20
16.3151
 30
0.0000
  0
SEQEND
  8
0
  0
POLYLINE
  8
1
 66
1
 10
0.0000
 20
0.0000
 30
0.0000
 40
0.1270
 41
0.1270
 70
0
  0
VERTEX
  8
1
 10
2.4951
 20
15.1951
 30
0.0000
 42
1.0000
  0
VERTEX
  8
1
 10
2.5849
 20
15.2849
 30
0.0000
  0
SEQEND
  8
0
  0
POLYLINE
  8
16
 66
1
 10
0.0000
 20
0.0000
 30
0.0000
 40
0.2540
 41
0.2540
 70
0
  0
VERTEX
  8
16
 10
1.2700
 20
13.9700
 30
0.0000
  0
VERTEX
  8
16
 10
2.5400
 20
15.2400
 30
0.0000
  0
SEQEND
  8
0
  0
POLYLINE
  8
16
 66
1
 10
0.0000
 20
0.0000
 30
0.0000
 40
0.1270
 41
0.1270
 70
0
  0
VERTEX
  8
16
 10
2.5849
 20
15.1951
 30
0.0000
 42
1.0000
  0
VERTEX
  8
16
 10
2.4951
 20
15.2849
 30
0.0000
  0
SEQEND
  8
0
  0
POLYLINE
  8
16
 66
1
 10
0.0000
 20
0.0000
 30
0.0000
 40
0.1270
 41
0.1270
 70
0
  0
VERTEX
  8
16
 10
1.2251
 20
14.0149
 30
0.0000
 42
1.0000
  0
VERTEX
  8
16
 10
1.3149
 20
13.9251
 30
0.0000
  0
SEQEND
  8
0
  0
POLYLINE
  8
16
 66
1
 10
0.0000
 20
0.0000
 30
0.0000
 40
0.2540
 41
0.2540
 70
0
  0
VERTEX
  8
16
 10
1.2700
 20
1.2700
 30
0.0000
  0
VERTEX
  8
16
 10
1.2700
 20
13.9700
 30
0.0000
  0
SEQEND
  8
0
  0
POLYLINE
  8
16
 66
1
 10
0.0000
 20
0.0000
 30
0.0000
 40
0.1270
 41
0.1270
 70
0
  0
VERTEX
  8
16
 10
1.3335
 20
13.9700
 30
0.0000
 42
1.0000
  0
VERTEX
  8
16
 10
1.2065
 20
13.9700
 30
0.0000
  0
SEQEND
  8
0
  0
POLYLINE
  8
16
 66
1
 10
0.0000
 20
0.0000
 30
0.0000
 40
0.1270
 41
0.1270
 70
0
  0
VERTEX
  8
16
 10
1.2065
 20
1.2700
 30
0.0000
 42
1.0000
  0
VERTEX
  8
16
 10
1.3335
 20
1.2700
 30
0.0000
  0
SEQEND
  8
0
  0
INSERT
  8
18
  2
ROUNDV
 10
2.5400
 20
15.2400
 30
0.0000
 41
1.0160
 42
1.0160
 43
1.0000
 50
0.0000
  0
INSERT
  8
18
  2
ROUNDV
 10
2.5400
 20
15.2400
 30
0.0000
 41
1.0160
 42
1.0160
 43
1.0000
 50
0.0000
  0
ENDSEC
  0
EOF
