G04 EAGLE Gerber RS-274X export*
G75*
%MOMM*%
%FSLAX34Y34*%
%LPD*%
%INSoldermask Top*%
%IPPOS*%
%AMOC8*
5,1,8,0,0,1.08239X$1,22.5*%
G01*
%ADD10C,2.641600*%
%ADD11R,1.601600X1.341600*%
%ADD12R,1.176600X1.101600*%
%ADD13R,0.551600X1.001600*%
%ADD14C,3.617600*%
%ADD15R,1.651600X0.701600*%
%ADD16R,1.901600X1.301600*%
%ADD17C,1.101600*%
%ADD18C,0.500000*%
%ADD19R,0.901600X0.901600*%
%ADD20R,1.101600X1.801600*%
%ADD21R,0.701600X0.351600*%
%ADD22C,1.879600*%


D10*
X25400Y25400D03*
X228600Y25400D03*
D11*
X71120Y91465D03*
X71120Y110465D03*
D12*
X190110Y53975D03*
X173110Y53975D03*
D13*
X115270Y71365D03*
X115270Y54365D03*
X124270Y71365D03*
X132270Y71365D03*
X141270Y71365D03*
X141270Y54365D03*
X124270Y54365D03*
X132270Y54365D03*
D14*
X25400Y152400D03*
X228600Y152400D03*
D15*
X202825Y83900D03*
X202825Y93900D03*
X202825Y73900D03*
X202825Y103900D03*
D16*
X241825Y60900D03*
X241825Y116900D03*
D15*
X51175Y93900D03*
X51175Y83900D03*
X51175Y103900D03*
X51175Y73900D03*
D16*
X12175Y116900D03*
X12175Y60900D03*
D17*
X10795Y43180D03*
D18*
X10795Y50680D02*
X10614Y50678D01*
X10433Y50671D01*
X10252Y50660D01*
X10071Y50645D01*
X9891Y50625D01*
X9711Y50601D01*
X9532Y50573D01*
X9354Y50540D01*
X9177Y50503D01*
X9000Y50462D01*
X8825Y50417D01*
X8650Y50367D01*
X8477Y50313D01*
X8306Y50255D01*
X8135Y50193D01*
X7967Y50126D01*
X7800Y50056D01*
X7634Y49982D01*
X7471Y49903D01*
X7310Y49821D01*
X7150Y49735D01*
X6993Y49645D01*
X6838Y49551D01*
X6685Y49454D01*
X6535Y49352D01*
X6387Y49248D01*
X6241Y49139D01*
X6099Y49028D01*
X5959Y48912D01*
X5822Y48794D01*
X5687Y48672D01*
X5556Y48547D01*
X5428Y48419D01*
X5303Y48288D01*
X5181Y48153D01*
X5063Y48016D01*
X4947Y47876D01*
X4836Y47734D01*
X4727Y47588D01*
X4623Y47440D01*
X4521Y47290D01*
X4424Y47137D01*
X4330Y46982D01*
X4240Y46825D01*
X4154Y46665D01*
X4072Y46504D01*
X3993Y46341D01*
X3919Y46175D01*
X3849Y46008D01*
X3782Y45840D01*
X3720Y45669D01*
X3662Y45498D01*
X3608Y45325D01*
X3558Y45150D01*
X3513Y44975D01*
X3472Y44798D01*
X3435Y44621D01*
X3402Y44443D01*
X3374Y44264D01*
X3350Y44084D01*
X3330Y43904D01*
X3315Y43723D01*
X3304Y43542D01*
X3297Y43361D01*
X3295Y43180D01*
X10795Y50680D02*
X10976Y50678D01*
X11157Y50671D01*
X11338Y50660D01*
X11519Y50645D01*
X11699Y50625D01*
X11879Y50601D01*
X12058Y50573D01*
X12236Y50540D01*
X12413Y50503D01*
X12590Y50462D01*
X12765Y50417D01*
X12940Y50367D01*
X13113Y50313D01*
X13284Y50255D01*
X13455Y50193D01*
X13623Y50126D01*
X13790Y50056D01*
X13956Y49982D01*
X14119Y49903D01*
X14280Y49821D01*
X14440Y49735D01*
X14597Y49645D01*
X14752Y49551D01*
X14905Y49454D01*
X15055Y49352D01*
X15203Y49248D01*
X15349Y49139D01*
X15491Y49028D01*
X15631Y48912D01*
X15768Y48794D01*
X15903Y48672D01*
X16034Y48547D01*
X16162Y48419D01*
X16287Y48288D01*
X16409Y48153D01*
X16527Y48016D01*
X16643Y47876D01*
X16754Y47734D01*
X16863Y47588D01*
X16967Y47440D01*
X17069Y47290D01*
X17166Y47137D01*
X17260Y46982D01*
X17350Y46825D01*
X17436Y46665D01*
X17518Y46504D01*
X17597Y46341D01*
X17671Y46175D01*
X17741Y46008D01*
X17808Y45840D01*
X17870Y45669D01*
X17928Y45498D01*
X17982Y45325D01*
X18032Y45150D01*
X18077Y44975D01*
X18118Y44798D01*
X18155Y44621D01*
X18188Y44443D01*
X18216Y44264D01*
X18240Y44084D01*
X18260Y43904D01*
X18275Y43723D01*
X18286Y43542D01*
X18293Y43361D01*
X18295Y43180D01*
X18293Y42999D01*
X18286Y42818D01*
X18275Y42637D01*
X18260Y42456D01*
X18240Y42276D01*
X18216Y42096D01*
X18188Y41917D01*
X18155Y41739D01*
X18118Y41562D01*
X18077Y41385D01*
X18032Y41210D01*
X17982Y41035D01*
X17928Y40862D01*
X17870Y40691D01*
X17808Y40520D01*
X17741Y40352D01*
X17671Y40185D01*
X17597Y40019D01*
X17518Y39856D01*
X17436Y39695D01*
X17350Y39535D01*
X17260Y39378D01*
X17166Y39223D01*
X17069Y39070D01*
X16967Y38920D01*
X16863Y38772D01*
X16754Y38626D01*
X16643Y38484D01*
X16527Y38344D01*
X16409Y38207D01*
X16287Y38072D01*
X16162Y37941D01*
X16034Y37813D01*
X15903Y37688D01*
X15768Y37566D01*
X15631Y37448D01*
X15491Y37332D01*
X15349Y37221D01*
X15203Y37112D01*
X15055Y37008D01*
X14905Y36906D01*
X14752Y36809D01*
X14597Y36715D01*
X14440Y36625D01*
X14280Y36539D01*
X14119Y36457D01*
X13956Y36378D01*
X13790Y36304D01*
X13623Y36234D01*
X13455Y36167D01*
X13284Y36105D01*
X13113Y36047D01*
X12940Y35993D01*
X12765Y35943D01*
X12590Y35898D01*
X12413Y35857D01*
X12236Y35820D01*
X12058Y35787D01*
X11879Y35759D01*
X11699Y35735D01*
X11519Y35715D01*
X11338Y35700D01*
X11157Y35689D01*
X10976Y35682D01*
X10795Y35680D01*
X10614Y35682D01*
X10433Y35689D01*
X10252Y35700D01*
X10071Y35715D01*
X9891Y35735D01*
X9711Y35759D01*
X9532Y35787D01*
X9354Y35820D01*
X9177Y35857D01*
X9000Y35898D01*
X8825Y35943D01*
X8650Y35993D01*
X8477Y36047D01*
X8306Y36105D01*
X8135Y36167D01*
X7967Y36234D01*
X7800Y36304D01*
X7634Y36378D01*
X7471Y36457D01*
X7310Y36539D01*
X7150Y36625D01*
X6993Y36715D01*
X6838Y36809D01*
X6685Y36906D01*
X6535Y37008D01*
X6387Y37112D01*
X6241Y37221D01*
X6099Y37332D01*
X5959Y37448D01*
X5822Y37566D01*
X5687Y37688D01*
X5556Y37813D01*
X5428Y37941D01*
X5303Y38072D01*
X5181Y38207D01*
X5063Y38344D01*
X4947Y38484D01*
X4836Y38626D01*
X4727Y38772D01*
X4623Y38920D01*
X4521Y39070D01*
X4424Y39223D01*
X4330Y39378D01*
X4240Y39535D01*
X4154Y39695D01*
X4072Y39856D01*
X3993Y40019D01*
X3919Y40185D01*
X3849Y40352D01*
X3782Y40520D01*
X3720Y40691D01*
X3662Y40862D01*
X3608Y41035D01*
X3558Y41210D01*
X3513Y41385D01*
X3472Y41562D01*
X3435Y41739D01*
X3402Y41917D01*
X3374Y42096D01*
X3350Y42276D01*
X3330Y42456D01*
X3315Y42637D01*
X3304Y42818D01*
X3297Y42999D01*
X3295Y43180D01*
D17*
X195580Y165100D03*
D18*
X195580Y172600D02*
X195399Y172598D01*
X195218Y172591D01*
X195037Y172580D01*
X194856Y172565D01*
X194676Y172545D01*
X194496Y172521D01*
X194317Y172493D01*
X194139Y172460D01*
X193962Y172423D01*
X193785Y172382D01*
X193610Y172337D01*
X193435Y172287D01*
X193262Y172233D01*
X193091Y172175D01*
X192920Y172113D01*
X192752Y172046D01*
X192585Y171976D01*
X192419Y171902D01*
X192256Y171823D01*
X192095Y171741D01*
X191935Y171655D01*
X191778Y171565D01*
X191623Y171471D01*
X191470Y171374D01*
X191320Y171272D01*
X191172Y171168D01*
X191026Y171059D01*
X190884Y170948D01*
X190744Y170832D01*
X190607Y170714D01*
X190472Y170592D01*
X190341Y170467D01*
X190213Y170339D01*
X190088Y170208D01*
X189966Y170073D01*
X189848Y169936D01*
X189732Y169796D01*
X189621Y169654D01*
X189512Y169508D01*
X189408Y169360D01*
X189306Y169210D01*
X189209Y169057D01*
X189115Y168902D01*
X189025Y168745D01*
X188939Y168585D01*
X188857Y168424D01*
X188778Y168261D01*
X188704Y168095D01*
X188634Y167928D01*
X188567Y167760D01*
X188505Y167589D01*
X188447Y167418D01*
X188393Y167245D01*
X188343Y167070D01*
X188298Y166895D01*
X188257Y166718D01*
X188220Y166541D01*
X188187Y166363D01*
X188159Y166184D01*
X188135Y166004D01*
X188115Y165824D01*
X188100Y165643D01*
X188089Y165462D01*
X188082Y165281D01*
X188080Y165100D01*
X195580Y172600D02*
X195761Y172598D01*
X195942Y172591D01*
X196123Y172580D01*
X196304Y172565D01*
X196484Y172545D01*
X196664Y172521D01*
X196843Y172493D01*
X197021Y172460D01*
X197198Y172423D01*
X197375Y172382D01*
X197550Y172337D01*
X197725Y172287D01*
X197898Y172233D01*
X198069Y172175D01*
X198240Y172113D01*
X198408Y172046D01*
X198575Y171976D01*
X198741Y171902D01*
X198904Y171823D01*
X199065Y171741D01*
X199225Y171655D01*
X199382Y171565D01*
X199537Y171471D01*
X199690Y171374D01*
X199840Y171272D01*
X199988Y171168D01*
X200134Y171059D01*
X200276Y170948D01*
X200416Y170832D01*
X200553Y170714D01*
X200688Y170592D01*
X200819Y170467D01*
X200947Y170339D01*
X201072Y170208D01*
X201194Y170073D01*
X201312Y169936D01*
X201428Y169796D01*
X201539Y169654D01*
X201648Y169508D01*
X201752Y169360D01*
X201854Y169210D01*
X201951Y169057D01*
X202045Y168902D01*
X202135Y168745D01*
X202221Y168585D01*
X202303Y168424D01*
X202382Y168261D01*
X202456Y168095D01*
X202526Y167928D01*
X202593Y167760D01*
X202655Y167589D01*
X202713Y167418D01*
X202767Y167245D01*
X202817Y167070D01*
X202862Y166895D01*
X202903Y166718D01*
X202940Y166541D01*
X202973Y166363D01*
X203001Y166184D01*
X203025Y166004D01*
X203045Y165824D01*
X203060Y165643D01*
X203071Y165462D01*
X203078Y165281D01*
X203080Y165100D01*
X203078Y164919D01*
X203071Y164738D01*
X203060Y164557D01*
X203045Y164376D01*
X203025Y164196D01*
X203001Y164016D01*
X202973Y163837D01*
X202940Y163659D01*
X202903Y163482D01*
X202862Y163305D01*
X202817Y163130D01*
X202767Y162955D01*
X202713Y162782D01*
X202655Y162611D01*
X202593Y162440D01*
X202526Y162272D01*
X202456Y162105D01*
X202382Y161939D01*
X202303Y161776D01*
X202221Y161615D01*
X202135Y161455D01*
X202045Y161298D01*
X201951Y161143D01*
X201854Y160990D01*
X201752Y160840D01*
X201648Y160692D01*
X201539Y160546D01*
X201428Y160404D01*
X201312Y160264D01*
X201194Y160127D01*
X201072Y159992D01*
X200947Y159861D01*
X200819Y159733D01*
X200688Y159608D01*
X200553Y159486D01*
X200416Y159368D01*
X200276Y159252D01*
X200134Y159141D01*
X199988Y159032D01*
X199840Y158928D01*
X199690Y158826D01*
X199537Y158729D01*
X199382Y158635D01*
X199225Y158545D01*
X199065Y158459D01*
X198904Y158377D01*
X198741Y158298D01*
X198575Y158224D01*
X198408Y158154D01*
X198240Y158087D01*
X198069Y158025D01*
X197898Y157967D01*
X197725Y157913D01*
X197550Y157863D01*
X197375Y157818D01*
X197198Y157777D01*
X197021Y157740D01*
X196843Y157707D01*
X196664Y157679D01*
X196484Y157655D01*
X196304Y157635D01*
X196123Y157620D01*
X195942Y157609D01*
X195761Y157602D01*
X195580Y157600D01*
X195399Y157602D01*
X195218Y157609D01*
X195037Y157620D01*
X194856Y157635D01*
X194676Y157655D01*
X194496Y157679D01*
X194317Y157707D01*
X194139Y157740D01*
X193962Y157777D01*
X193785Y157818D01*
X193610Y157863D01*
X193435Y157913D01*
X193262Y157967D01*
X193091Y158025D01*
X192920Y158087D01*
X192752Y158154D01*
X192585Y158224D01*
X192419Y158298D01*
X192256Y158377D01*
X192095Y158459D01*
X191935Y158545D01*
X191778Y158635D01*
X191623Y158729D01*
X191470Y158826D01*
X191320Y158928D01*
X191172Y159032D01*
X191026Y159141D01*
X190884Y159252D01*
X190744Y159368D01*
X190607Y159486D01*
X190472Y159608D01*
X190341Y159733D01*
X190213Y159861D01*
X190088Y159992D01*
X189966Y160127D01*
X189848Y160264D01*
X189732Y160404D01*
X189621Y160546D01*
X189512Y160692D01*
X189408Y160840D01*
X189306Y160990D01*
X189209Y161143D01*
X189115Y161298D01*
X189025Y161455D01*
X188939Y161615D01*
X188857Y161776D01*
X188778Y161939D01*
X188704Y162105D01*
X188634Y162272D01*
X188567Y162440D01*
X188505Y162611D01*
X188447Y162782D01*
X188393Y162955D01*
X188343Y163130D01*
X188298Y163305D01*
X188257Y163482D01*
X188220Y163659D01*
X188187Y163837D01*
X188159Y164016D01*
X188135Y164196D01*
X188115Y164376D01*
X188100Y164557D01*
X188089Y164738D01*
X188082Y164919D01*
X188080Y165100D01*
D19*
X28060Y125730D03*
X43060Y125730D03*
D20*
X127635Y103505D03*
D21*
X116135Y111005D03*
X116135Y106005D03*
X116135Y101005D03*
X116135Y96005D03*
X139135Y96005D03*
X139135Y101005D03*
X139135Y106005D03*
X139135Y111005D03*
D22*
X50800Y25400D03*
X76200Y25400D03*
X101600Y25400D03*
X127000Y25400D03*
X152400Y25400D03*
X177800Y25400D03*
X203200Y25400D03*
D12*
X55635Y125730D03*
X72635Y125730D03*
M02*
