G04 EAGLE Gerber RS-274X export*
G75*
%MOMM*%
%FSLAX34Y34*%
%LPD*%
%INSoldermask Top*%
%IPPOS*%
%AMOC8*
5,1,8,0,0,1.08239X$1,22.5*%
G01*
%ADD10C,3.617600*%
%ADD11C,1.101600*%
%ADD12C,0.469900*%
%ADD13C,1.751600*%
%ADD14C,1.601600*%
%ADD15R,0.351600X2.701600*%
%ADD16R,0.651600X1.301600*%
%ADD17R,0.551600X1.001600*%
%ADD18C,1.778000*%
%ADD19R,1.101600X1.176600*%


D10*
X25400Y165100D03*
X279400Y165100D03*
D11*
X247650Y177800D03*
D12*
X255150Y177800D02*
X255148Y177981D01*
X255141Y178162D01*
X255130Y178343D01*
X255115Y178524D01*
X255095Y178704D01*
X255071Y178884D01*
X255043Y179063D01*
X255010Y179241D01*
X254973Y179418D01*
X254932Y179595D01*
X254887Y179770D01*
X254837Y179945D01*
X254783Y180118D01*
X254725Y180289D01*
X254663Y180460D01*
X254596Y180628D01*
X254526Y180795D01*
X254452Y180961D01*
X254373Y181124D01*
X254291Y181285D01*
X254205Y181445D01*
X254115Y181602D01*
X254021Y181757D01*
X253924Y181910D01*
X253822Y182060D01*
X253718Y182208D01*
X253609Y182354D01*
X253498Y182496D01*
X253382Y182636D01*
X253264Y182773D01*
X253142Y182908D01*
X253017Y183039D01*
X252889Y183167D01*
X252758Y183292D01*
X252623Y183414D01*
X252486Y183532D01*
X252346Y183648D01*
X252204Y183759D01*
X252058Y183868D01*
X251910Y183972D01*
X251760Y184074D01*
X251607Y184171D01*
X251452Y184265D01*
X251295Y184355D01*
X251135Y184441D01*
X250974Y184523D01*
X250811Y184602D01*
X250645Y184676D01*
X250478Y184746D01*
X250310Y184813D01*
X250139Y184875D01*
X249968Y184933D01*
X249795Y184987D01*
X249620Y185037D01*
X249445Y185082D01*
X249268Y185123D01*
X249091Y185160D01*
X248913Y185193D01*
X248734Y185221D01*
X248554Y185245D01*
X248374Y185265D01*
X248193Y185280D01*
X248012Y185291D01*
X247831Y185298D01*
X247650Y185300D01*
X255150Y177800D02*
X255148Y177619D01*
X255141Y177438D01*
X255130Y177257D01*
X255115Y177076D01*
X255095Y176896D01*
X255071Y176716D01*
X255043Y176537D01*
X255010Y176359D01*
X254973Y176182D01*
X254932Y176005D01*
X254887Y175830D01*
X254837Y175655D01*
X254783Y175482D01*
X254725Y175311D01*
X254663Y175140D01*
X254596Y174972D01*
X254526Y174805D01*
X254452Y174639D01*
X254373Y174476D01*
X254291Y174315D01*
X254205Y174155D01*
X254115Y173998D01*
X254021Y173843D01*
X253924Y173690D01*
X253822Y173540D01*
X253718Y173392D01*
X253609Y173246D01*
X253498Y173104D01*
X253382Y172964D01*
X253264Y172827D01*
X253142Y172692D01*
X253017Y172561D01*
X252889Y172433D01*
X252758Y172308D01*
X252623Y172186D01*
X252486Y172068D01*
X252346Y171952D01*
X252204Y171841D01*
X252058Y171732D01*
X251910Y171628D01*
X251760Y171526D01*
X251607Y171429D01*
X251452Y171335D01*
X251295Y171245D01*
X251135Y171159D01*
X250974Y171077D01*
X250811Y170998D01*
X250645Y170924D01*
X250478Y170854D01*
X250310Y170787D01*
X250139Y170725D01*
X249968Y170667D01*
X249795Y170613D01*
X249620Y170563D01*
X249445Y170518D01*
X249268Y170477D01*
X249091Y170440D01*
X248913Y170407D01*
X248734Y170379D01*
X248554Y170355D01*
X248374Y170335D01*
X248193Y170320D01*
X248012Y170309D01*
X247831Y170302D01*
X247650Y170300D01*
X247469Y170302D01*
X247288Y170309D01*
X247107Y170320D01*
X246926Y170335D01*
X246746Y170355D01*
X246566Y170379D01*
X246387Y170407D01*
X246209Y170440D01*
X246032Y170477D01*
X245855Y170518D01*
X245680Y170563D01*
X245505Y170613D01*
X245332Y170667D01*
X245161Y170725D01*
X244990Y170787D01*
X244822Y170854D01*
X244655Y170924D01*
X244489Y170998D01*
X244326Y171077D01*
X244165Y171159D01*
X244005Y171245D01*
X243848Y171335D01*
X243693Y171429D01*
X243540Y171526D01*
X243390Y171628D01*
X243242Y171732D01*
X243096Y171841D01*
X242954Y171952D01*
X242814Y172068D01*
X242677Y172186D01*
X242542Y172308D01*
X242411Y172433D01*
X242283Y172561D01*
X242158Y172692D01*
X242036Y172827D01*
X241918Y172964D01*
X241802Y173104D01*
X241691Y173246D01*
X241582Y173392D01*
X241478Y173540D01*
X241376Y173690D01*
X241279Y173843D01*
X241185Y173998D01*
X241095Y174155D01*
X241009Y174315D01*
X240927Y174476D01*
X240848Y174639D01*
X240774Y174805D01*
X240704Y174972D01*
X240637Y175140D01*
X240575Y175311D01*
X240517Y175482D01*
X240463Y175655D01*
X240413Y175830D01*
X240368Y176005D01*
X240327Y176182D01*
X240290Y176359D01*
X240257Y176537D01*
X240229Y176716D01*
X240205Y176896D01*
X240185Y177076D01*
X240170Y177257D01*
X240159Y177438D01*
X240152Y177619D01*
X240150Y177800D01*
X240152Y177981D01*
X240159Y178162D01*
X240170Y178343D01*
X240185Y178524D01*
X240205Y178704D01*
X240229Y178884D01*
X240257Y179063D01*
X240290Y179241D01*
X240327Y179418D01*
X240368Y179595D01*
X240413Y179770D01*
X240463Y179945D01*
X240517Y180118D01*
X240575Y180289D01*
X240637Y180460D01*
X240704Y180628D01*
X240774Y180795D01*
X240848Y180961D01*
X240927Y181124D01*
X241009Y181285D01*
X241095Y181445D01*
X241185Y181602D01*
X241279Y181757D01*
X241376Y181910D01*
X241478Y182060D01*
X241582Y182208D01*
X241691Y182354D01*
X241802Y182496D01*
X241918Y182636D01*
X242036Y182773D01*
X242158Y182908D01*
X242283Y183039D01*
X242411Y183167D01*
X242542Y183292D01*
X242677Y183414D01*
X242814Y183532D01*
X242954Y183648D01*
X243096Y183759D01*
X243242Y183868D01*
X243390Y183972D01*
X243540Y184074D01*
X243693Y184171D01*
X243848Y184265D01*
X244005Y184355D01*
X244165Y184441D01*
X244326Y184523D01*
X244489Y184602D01*
X244655Y184676D01*
X244822Y184746D01*
X244990Y184813D01*
X245161Y184875D01*
X245332Y184933D01*
X245505Y184987D01*
X245680Y185037D01*
X245855Y185082D01*
X246032Y185123D01*
X246209Y185160D01*
X246387Y185193D01*
X246566Y185221D01*
X246746Y185245D01*
X246926Y185265D01*
X247107Y185280D01*
X247288Y185291D01*
X247469Y185298D01*
X247650Y185300D01*
D11*
X12700Y87630D03*
D12*
X20200Y87630D02*
X20198Y87811D01*
X20191Y87992D01*
X20180Y88173D01*
X20165Y88354D01*
X20145Y88534D01*
X20121Y88714D01*
X20093Y88893D01*
X20060Y89071D01*
X20023Y89248D01*
X19982Y89425D01*
X19937Y89600D01*
X19887Y89775D01*
X19833Y89948D01*
X19775Y90119D01*
X19713Y90290D01*
X19646Y90458D01*
X19576Y90625D01*
X19502Y90791D01*
X19423Y90954D01*
X19341Y91115D01*
X19255Y91275D01*
X19165Y91432D01*
X19071Y91587D01*
X18974Y91740D01*
X18872Y91890D01*
X18768Y92038D01*
X18659Y92184D01*
X18548Y92326D01*
X18432Y92466D01*
X18314Y92603D01*
X18192Y92738D01*
X18067Y92869D01*
X17939Y92997D01*
X17808Y93122D01*
X17673Y93244D01*
X17536Y93362D01*
X17396Y93478D01*
X17254Y93589D01*
X17108Y93698D01*
X16960Y93802D01*
X16810Y93904D01*
X16657Y94001D01*
X16502Y94095D01*
X16345Y94185D01*
X16185Y94271D01*
X16024Y94353D01*
X15861Y94432D01*
X15695Y94506D01*
X15528Y94576D01*
X15360Y94643D01*
X15189Y94705D01*
X15018Y94763D01*
X14845Y94817D01*
X14670Y94867D01*
X14495Y94912D01*
X14318Y94953D01*
X14141Y94990D01*
X13963Y95023D01*
X13784Y95051D01*
X13604Y95075D01*
X13424Y95095D01*
X13243Y95110D01*
X13062Y95121D01*
X12881Y95128D01*
X12700Y95130D01*
X20200Y87630D02*
X20198Y87449D01*
X20191Y87268D01*
X20180Y87087D01*
X20165Y86906D01*
X20145Y86726D01*
X20121Y86546D01*
X20093Y86367D01*
X20060Y86189D01*
X20023Y86012D01*
X19982Y85835D01*
X19937Y85660D01*
X19887Y85485D01*
X19833Y85312D01*
X19775Y85141D01*
X19713Y84970D01*
X19646Y84802D01*
X19576Y84635D01*
X19502Y84469D01*
X19423Y84306D01*
X19341Y84145D01*
X19255Y83985D01*
X19165Y83828D01*
X19071Y83673D01*
X18974Y83520D01*
X18872Y83370D01*
X18768Y83222D01*
X18659Y83076D01*
X18548Y82934D01*
X18432Y82794D01*
X18314Y82657D01*
X18192Y82522D01*
X18067Y82391D01*
X17939Y82263D01*
X17808Y82138D01*
X17673Y82016D01*
X17536Y81898D01*
X17396Y81782D01*
X17254Y81671D01*
X17108Y81562D01*
X16960Y81458D01*
X16810Y81356D01*
X16657Y81259D01*
X16502Y81165D01*
X16345Y81075D01*
X16185Y80989D01*
X16024Y80907D01*
X15861Y80828D01*
X15695Y80754D01*
X15528Y80684D01*
X15360Y80617D01*
X15189Y80555D01*
X15018Y80497D01*
X14845Y80443D01*
X14670Y80393D01*
X14495Y80348D01*
X14318Y80307D01*
X14141Y80270D01*
X13963Y80237D01*
X13784Y80209D01*
X13604Y80185D01*
X13424Y80165D01*
X13243Y80150D01*
X13062Y80139D01*
X12881Y80132D01*
X12700Y80130D01*
X12519Y80132D01*
X12338Y80139D01*
X12157Y80150D01*
X11976Y80165D01*
X11796Y80185D01*
X11616Y80209D01*
X11437Y80237D01*
X11259Y80270D01*
X11082Y80307D01*
X10905Y80348D01*
X10730Y80393D01*
X10555Y80443D01*
X10382Y80497D01*
X10211Y80555D01*
X10040Y80617D01*
X9872Y80684D01*
X9705Y80754D01*
X9539Y80828D01*
X9376Y80907D01*
X9215Y80989D01*
X9055Y81075D01*
X8898Y81165D01*
X8743Y81259D01*
X8590Y81356D01*
X8440Y81458D01*
X8292Y81562D01*
X8146Y81671D01*
X8004Y81782D01*
X7864Y81898D01*
X7727Y82016D01*
X7592Y82138D01*
X7461Y82263D01*
X7333Y82391D01*
X7208Y82522D01*
X7086Y82657D01*
X6968Y82794D01*
X6852Y82934D01*
X6741Y83076D01*
X6632Y83222D01*
X6528Y83370D01*
X6426Y83520D01*
X6329Y83673D01*
X6235Y83828D01*
X6145Y83985D01*
X6059Y84145D01*
X5977Y84306D01*
X5898Y84469D01*
X5824Y84635D01*
X5754Y84802D01*
X5687Y84970D01*
X5625Y85141D01*
X5567Y85312D01*
X5513Y85485D01*
X5463Y85660D01*
X5418Y85835D01*
X5377Y86012D01*
X5340Y86189D01*
X5307Y86367D01*
X5279Y86546D01*
X5255Y86726D01*
X5235Y86906D01*
X5220Y87087D01*
X5209Y87268D01*
X5202Y87449D01*
X5200Y87630D01*
X5202Y87811D01*
X5209Y87992D01*
X5220Y88173D01*
X5235Y88354D01*
X5255Y88534D01*
X5279Y88714D01*
X5307Y88893D01*
X5340Y89071D01*
X5377Y89248D01*
X5418Y89425D01*
X5463Y89600D01*
X5513Y89775D01*
X5567Y89948D01*
X5625Y90119D01*
X5687Y90290D01*
X5754Y90458D01*
X5824Y90625D01*
X5898Y90791D01*
X5977Y90954D01*
X6059Y91115D01*
X6145Y91275D01*
X6235Y91432D01*
X6329Y91587D01*
X6426Y91740D01*
X6528Y91890D01*
X6632Y92038D01*
X6741Y92184D01*
X6852Y92326D01*
X6968Y92466D01*
X7086Y92603D01*
X7208Y92738D01*
X7333Y92869D01*
X7461Y92997D01*
X7592Y93122D01*
X7727Y93244D01*
X7864Y93362D01*
X8004Y93478D01*
X8146Y93589D01*
X8292Y93698D01*
X8440Y93802D01*
X8590Y93904D01*
X8743Y94001D01*
X8898Y94095D01*
X9055Y94185D01*
X9215Y94271D01*
X9376Y94353D01*
X9539Y94432D01*
X9705Y94506D01*
X9872Y94576D01*
X10040Y94643D01*
X10211Y94705D01*
X10382Y94763D01*
X10555Y94817D01*
X10730Y94867D01*
X10905Y94912D01*
X11082Y94953D01*
X11259Y94990D01*
X11437Y95023D01*
X11616Y95051D01*
X11796Y95075D01*
X11976Y95095D01*
X12157Y95110D01*
X12338Y95121D01*
X12519Y95128D01*
X12700Y95130D01*
D13*
X224900Y103490D02*
X224900Y119990D01*
X79900Y119990D02*
X79900Y103490D01*
D14*
X79900Y163840D02*
X79900Y178840D01*
X224900Y178840D02*
X224900Y163840D01*
D15*
X107400Y104140D03*
X112400Y104140D03*
X117400Y104140D03*
X122400Y104140D03*
X127400Y104140D03*
X132400Y104140D03*
X137400Y104140D03*
X142400Y104140D03*
X147400Y104140D03*
X152400Y104140D03*
X157400Y104140D03*
X162400Y104140D03*
X167400Y104140D03*
X172400Y104140D03*
X177400Y104140D03*
X182400Y104140D03*
X187400Y104140D03*
X192400Y104140D03*
X197400Y104140D03*
D16*
X262230Y118411D03*
X252730Y118411D03*
X243230Y118411D03*
X243230Y92409D03*
X262230Y92409D03*
D17*
X124760Y60080D03*
X124760Y77080D03*
X115760Y60080D03*
X107760Y60080D03*
X98760Y60080D03*
X98760Y77080D03*
X115760Y77080D03*
X107760Y77080D03*
X169210Y60080D03*
X169210Y77080D03*
X160210Y60080D03*
X152210Y60080D03*
X143210Y60080D03*
X143210Y77080D03*
X160210Y77080D03*
X152210Y77080D03*
X214930Y60080D03*
X214930Y77080D03*
X205930Y60080D03*
X197930Y60080D03*
X188930Y60080D03*
X188930Y77080D03*
X205930Y77080D03*
X197930Y77080D03*
D18*
X279400Y76200D03*
X279400Y101600D03*
X279400Y127000D03*
X279400Y25400D03*
X254000Y25400D03*
X228600Y25400D03*
X203200Y25400D03*
X177800Y25400D03*
X152400Y25400D03*
X127000Y25400D03*
X101600Y25400D03*
X76200Y25400D03*
X50800Y25400D03*
X25400Y25400D03*
D19*
X238760Y77080D03*
X238760Y60080D03*
M02*
