<?xml version="1.0" standalone="no"?>
 <!DOCTYPE svg PUBLIC "-//W3C//DTD SVG 1.1//EN" 
 "http://www.w3.org/Graphics/SVG/1.1/DTD/svg11.dtd"> 
<svg
  xmlns:svg="http://www.w3.org/2000/svg"
  xmlns="http://www.w3.org/2000/svg"
  xmlns:xlink="http://www.w3.org/1999/xlink"
  version="1.1"
  width="29.700220cm" height="21.000720cm" viewBox="0 0 297002200 210007200">
<title>SVG Picture created as boardKicad-F_Fab.svg date 2022/08/21 15:38:53 </title>
  <desc>Picture generated by PCBNEW </desc>
<g style="fill:#000000; fill-opacity:1.000000;stroke:#000000; stroke-opacity:1.000000;
stroke-linecap:round; stroke-linejoin:round;"
 transform="translate(0 0) scale(1 1)">
</g>
<g style="fill:#000000; fill-opacity:0.0; 
stroke:#000000; stroke-width:0.000000; stroke-opacity:1; 
stroke-linecap:round; stroke-linejoin:round;">
</g>
<g style="fill:#000000; fill-opacity:0.0; 
stroke:#000000; stroke-width:21200.000000; stroke-opacity:1; 
stroke-linecap:round; stroke-linejoin:round;">
</g>
<g style="fill:#000000; fill-opacity:0.0; 
stroke:#000000; stroke-width:150000.000000; stroke-opacity:1; 
stroke-linecap:round; stroke-linejoin:round;">
<rect x="177002200.000000" y="166007200.000000" width="108000000.000000" height="32000000.000000" rx="0.000000" />
</g>
<g style="fill:#000000; fill-opacity:0.0; 
stroke:#000000; stroke-width:21200.000000; stroke-opacity:1; 
stroke-linecap:round; stroke-linejoin:round;">
</g>
<g style="fill:#000000; fill-opacity:0.0; 
stroke:#000000; stroke-width:150000.000000; stroke-opacity:1; 
stroke-linecap:round; stroke-linejoin:round;">
<rect x="10000000.000000" y="10000000.000000" width="277002200.000000" height="190007200.000000" rx="0.000000" />
</g>
<g style="fill:#000000; fill-opacity:0.0; 
stroke:#000000; stroke-width:21200.000000; stroke-opacity:1; 
stroke-linecap:round; stroke-linejoin:round;">
</g>
<g style="fill:#000000; fill-opacity:0.0; 
stroke:#000000; stroke-width:150000.000000; stroke-opacity:1; 
stroke-linecap:round; stroke-linejoin:round;">
<rect x="12000000.000000" y="12000000.000000" width="273002200.000000" height="186007200.000000" rx="0.000000" />
</g>
<g style="fill:#000000; fill-opacity:0.0; 
stroke:#000000; stroke-width:21200.000000; stroke-opacity:1; 
stroke-linecap:round; stroke-linejoin:round;">
</g>
<g style="fill:#000000; fill-opacity:0.0; 
stroke:#000000; stroke-width:150000.000000; stroke-opacity:1; 
stroke-linecap:round; stroke-linejoin:round;">
<path d="M60000000 12000000
L60000000 10000000
" />
</g>
<g style="fill:#000000; fill-opacity:0.0; 
stroke:#000000; stroke-width:21200.000000; stroke-opacity:1; 
stroke-linecap:round; stroke-linejoin:round;">
</g>
<g style="fill:#000000; fill-opacity:0.0; 
stroke:#000000; stroke-width:150000.000000; stroke-opacity:1; 
stroke-linecap:round; stroke-linejoin:round;">
<path d="M110000000 12000000
L110000000 10000000
" />
</g>
<g style="fill:#000000; fill-opacity:0.0; 
stroke:#000000; stroke-width:21200.000000; stroke-opacity:1; 
stroke-linecap:round; stroke-linejoin:round;">
</g>
<g style="fill:#000000; fill-opacity:0.0; 
stroke:#000000; stroke-width:150000.000000; stroke-opacity:1; 
stroke-linecap:round; stroke-linejoin:round;">
<path d="M160000000 12000000
L160000000 10000000
" />
</g>
<g style="fill:#000000; fill-opacity:0.0; 
stroke:#000000; stroke-width:21200.000000; stroke-opacity:1; 
stroke-linecap:round; stroke-linejoin:round;">
</g>
<g style="fill:#000000; fill-opacity:0.0; 
stroke:#000000; stroke-width:150000.000000; stroke-opacity:1; 
stroke-linecap:round; stroke-linejoin:round;">
<path d="M210000000 12000000
L210000000 10000000
" />
</g>
<g style="fill:#000000; fill-opacity:0.0; 
stroke:#000000; stroke-width:21200.000000; stroke-opacity:1; 
stroke-linecap:round; stroke-linejoin:round;">
</g>
<g style="fill:#000000; fill-opacity:0.0; 
stroke:#000000; stroke-width:150000.000000; stroke-opacity:1; 
stroke-linecap:round; stroke-linejoin:round;">
<path d="M260000000 12000000
L260000000 10000000
" />
</g>
<g style="fill:#000000; fill-opacity:0.0; 
stroke:#000000; stroke-width:21200.000000; stroke-opacity:1; 
stroke-linecap:round; stroke-linejoin:round;">
</g>
<g style="fill:#000000; fill-opacity:0.0; 
stroke:#000000; stroke-width:150000.000000; stroke-opacity:1; 
stroke-linecap:round; stroke-linejoin:round;">
<text x="35000000.000000" y="11650000.000000"
textLength="1388095.000000" font-size="1733333.000000" lengthAdjust="spacingAndGlyphs"
text-anchor="start" opacity="0">1</text>
<g class="stroked-text"><desc>1</desc>
<path d="M36065476 11588095
L35322619 11588095
" />
<path d="M35694047 11588095
L35694047 10288095
L35570238 10473809
L35446428 10597619
L35322619 10659523
" />
</g></g>
<g style="fill:#000000; fill-opacity:0.0; 
stroke:#000000; stroke-width:21200.000000; stroke-opacity:1; 
stroke-linecap:round; stroke-linejoin:round;">
</g>
<g style="fill:#000000; fill-opacity:0.0; 
stroke:#000000; stroke-width:150000.000000; stroke-opacity:1; 
stroke-linecap:round; stroke-linejoin:round;">
<text x="85000000.000000" y="11650000.000000"
textLength="1388095.000000" font-size="1733333.000000" lengthAdjust="spacingAndGlyphs"
text-anchor="start" opacity="0">2</text>
<g class="stroked-text"><desc>2</desc>
<path d="M85322619 10411904
L85384523 10350000
L85508333 10288095
L85817857 10288095
L85941666 10350000
L86003571 10411904
L86065476 10535714
L86065476 10659523
L86003571 10845238
L85260714 11588095
L86065476 11588095
" />
</g></g>
<g style="fill:#000000; fill-opacity:0.0; 
stroke:#000000; stroke-width:21200.000000; stroke-opacity:1; 
stroke-linecap:round; stroke-linejoin:round;">
</g>
<g style="fill:#000000; fill-opacity:0.0; 
stroke:#000000; stroke-width:150000.000000; stroke-opacity:1; 
stroke-linecap:round; stroke-linejoin:round;">
<text x="135000000.000000" y="11650000.000000"
textLength="1388095.000000" font-size="1733333.000000" lengthAdjust="spacingAndGlyphs"
text-anchor="start" opacity="0">3</text>
<g class="stroked-text"><desc>3</desc>
<path d="M135260714 10288095
L136065476 10288095
L135632142 10783333
L135817857 10783333
L135941666 10845238
L136003571 10907142
L136065476 11030952
L136065476 11340476
L136003571 11464285
L135941666 11526190
L135817857 11588095
L135446428 11588095
L135322619 11526190
L135260714 11464285
" />
</g></g>
<g style="fill:#000000; fill-opacity:0.0; 
stroke:#000000; stroke-width:21200.000000; stroke-opacity:1; 
stroke-linecap:round; stroke-linejoin:round;">
</g>
<g style="fill:#000000; fill-opacity:0.0; 
stroke:#000000; stroke-width:150000.000000; stroke-opacity:1; 
stroke-linecap:round; stroke-linejoin:round;">
<text x="185000000.000000" y="11650000.000000"
textLength="1388095.000000" font-size="1733333.000000" lengthAdjust="spacingAndGlyphs"
text-anchor="start" opacity="0">4</text>
<g class="stroked-text"><desc>4</desc>
<path d="M185941666 10721428
L185941666 11588095
" />
<path d="M185632142 10226190
L185322619 11154761
L186127380 11154761
" />
</g></g>
<g style="fill:#000000; fill-opacity:0.0; 
stroke:#000000; stroke-width:21200.000000; stroke-opacity:1; 
stroke-linecap:round; stroke-linejoin:round;">
</g>
<g style="fill:#000000; fill-opacity:0.0; 
stroke:#000000; stroke-width:150000.000000; stroke-opacity:1; 
stroke-linecap:round; stroke-linejoin:round;">
<text x="235000000.000000" y="11650000.000000"
textLength="1388095.000000" font-size="1733333.000000" lengthAdjust="spacingAndGlyphs"
text-anchor="start" opacity="0">5</text>
<g class="stroked-text"><desc>5</desc>
<path d="M236003571 10288095
L235384523 10288095
L235322619 10907142
L235384523 10845238
L235508333 10783333
L235817857 10783333
L235941666 10845238
L236003571 10907142
L236065476 11030952
L236065476 11340476
L236003571 11464285
L235941666 11526190
L235817857 11588095
L235508333 11588095
L235384523 11526190
L235322619 11464285
" />
</g></g>
<g style="fill:#000000; fill-opacity:0.0; 
stroke:#000000; stroke-width:21200.000000; stroke-opacity:1; 
stroke-linecap:round; stroke-linejoin:round;">
</g>
<g style="fill:#000000; fill-opacity:0.0; 
stroke:#000000; stroke-width:150000.000000; stroke-opacity:1; 
stroke-linecap:round; stroke-linejoin:round;">
<text x="285000000.000000" y="11650000.000000"
textLength="1388095.000000" font-size="1733333.000000" lengthAdjust="spacingAndGlyphs"
text-anchor="start" opacity="0">6</text>
<g class="stroked-text"><desc>6</desc>
<path d="M285941666 10288095
L285694047 10288095
L285570238 10350000
L285508333 10411904
L285384523 10597619
L285322619 10845238
L285322619 11340476
L285384523 11464285
L285446428 11526190
L285570238 11588095
L285817857 11588095
L285941666 11526190
L286003571 11464285
L286065476 11340476
L286065476 11030952
L286003571 10907142
L285941666 10845238
L285817857 10783333
L285570238 10783333
L285446428 10845238
L285384523 10907142
L285322619 11030952
" />
</g></g>
<g style="fill:#000000; fill-opacity:0.0; 
stroke:#000000; stroke-width:21200.000000; stroke-opacity:1; 
stroke-linecap:round; stroke-linejoin:round;">
</g>
<g style="fill:#000000; fill-opacity:0.0; 
stroke:#000000; stroke-width:150000.000000; stroke-opacity:1; 
stroke-linecap:round; stroke-linejoin:round;">
<path d="M60000000 198007200
L60000000 200007200
" />
</g>
<g style="fill:#000000; fill-opacity:0.0; 
stroke:#000000; stroke-width:21200.000000; stroke-opacity:1; 
stroke-linecap:round; stroke-linejoin:round;">
</g>
<g style="fill:#000000; fill-opacity:0.0; 
stroke:#000000; stroke-width:150000.000000; stroke-opacity:1; 
stroke-linecap:round; stroke-linejoin:round;">
<path d="M110000000 198007200
L110000000 200007200
" />
</g>
<g style="fill:#000000; fill-opacity:0.0; 
stroke:#000000; stroke-width:21200.000000; stroke-opacity:1; 
stroke-linecap:round; stroke-linejoin:round;">
</g>
<g style="fill:#000000; fill-opacity:0.0; 
stroke:#000000; stroke-width:150000.000000; stroke-opacity:1; 
stroke-linecap:round; stroke-linejoin:round;">
<path d="M160000000 198007200
L160000000 200007200
" />
</g>
<g style="fill:#000000; fill-opacity:0.0; 
stroke:#000000; stroke-width:21200.000000; stroke-opacity:1; 
stroke-linecap:round; stroke-linejoin:round;">
</g>
<g style="fill:#000000; fill-opacity:0.0; 
stroke:#000000; stroke-width:150000.000000; stroke-opacity:1; 
stroke-linecap:round; stroke-linejoin:round;">
<path d="M210000000 198007200
L210000000 200007200
" />
</g>
<g style="fill:#000000; fill-opacity:0.0; 
stroke:#000000; stroke-width:21200.000000; stroke-opacity:1; 
stroke-linecap:round; stroke-linejoin:round;">
</g>
<g style="fill:#000000; fill-opacity:0.0; 
stroke:#000000; stroke-width:150000.000000; stroke-opacity:1; 
stroke-linecap:round; stroke-linejoin:round;">
<path d="M260000000 198007200
L260000000 200007200
" />
</g>
<g style="fill:#000000; fill-opacity:0.0; 
stroke:#000000; stroke-width:21200.000000; stroke-opacity:1; 
stroke-linecap:round; stroke-linejoin:round;">
</g>
<g style="fill:#000000; fill-opacity:0.0; 
stroke:#000000; stroke-width:150000.000000; stroke-opacity:1; 
stroke-linecap:round; stroke-linejoin:round;">
<text x="35000000.000000" y="199657200.000000"
textLength="1388095.000000" font-size="1733333.000000" lengthAdjust="spacingAndGlyphs"
text-anchor="start" opacity="0">1</text>
<g class="stroked-text"><desc>1</desc>
<path d="M36065476 199595295
L35322619 199595295
" />
<path d="M35694047 199595295
L35694047 198295295
L35570238 198481009
L35446428 198604819
L35322619 198666723
" />
</g></g>
<g style="fill:#000000; fill-opacity:0.0; 
stroke:#000000; stroke-width:21200.000000; stroke-opacity:1; 
stroke-linecap:round; stroke-linejoin:round;">
</g>
<g style="fill:#000000; fill-opacity:0.0; 
stroke:#000000; stroke-width:150000.000000; stroke-opacity:1; 
stroke-linecap:round; stroke-linejoin:round;">
<text x="85000000.000000" y="199657200.000000"
textLength="1388095.000000" font-size="1733333.000000" lengthAdjust="spacingAndGlyphs"
text-anchor="start" opacity="0">2</text>
<g class="stroked-text"><desc>2</desc>
<path d="M85322619 198419104
L85384523 198357200
L85508333 198295295
L85817857 198295295
L85941666 198357200
L86003571 198419104
L86065476 198542914
L86065476 198666723
L86003571 198852438
L85260714 199595295
L86065476 199595295
" />
</g></g>
<g style="fill:#000000; fill-opacity:0.0; 
stroke:#000000; stroke-width:21200.000000; stroke-opacity:1; 
stroke-linecap:round; stroke-linejoin:round;">
</g>
<g style="fill:#000000; fill-opacity:0.0; 
stroke:#000000; stroke-width:150000.000000; stroke-opacity:1; 
stroke-linecap:round; stroke-linejoin:round;">
<text x="135000000.000000" y="199657200.000000"
textLength="1388095.000000" font-size="1733333.000000" lengthAdjust="spacingAndGlyphs"
text-anchor="start" opacity="0">3</text>
<g class="stroked-text"><desc>3</desc>
<path d="M135260714 198295295
L136065476 198295295
L135632142 198790533
L135817857 198790533
L135941666 198852438
L136003571 198914342
L136065476 199038152
L136065476 199347676
L136003571 199471485
L135941666 199533390
L135817857 199595295
L135446428 199595295
L135322619 199533390
L135260714 199471485
" />
</g></g>
<g style="fill:#000000; fill-opacity:0.0; 
stroke:#000000; stroke-width:21200.000000; stroke-opacity:1; 
stroke-linecap:round; stroke-linejoin:round;">
</g>
<g style="fill:#000000; fill-opacity:0.0; 
stroke:#000000; stroke-width:150000.000000; stroke-opacity:1; 
stroke-linecap:round; stroke-linejoin:round;">
<text x="185000000.000000" y="199657200.000000"
textLength="1388095.000000" font-size="1733333.000000" lengthAdjust="spacingAndGlyphs"
text-anchor="start" opacity="0">4</text>
<g class="stroked-text"><desc>4</desc>
<path d="M185941666 198728628
L185941666 199595295
" />
<path d="M185632142 198233390
L185322619 199161961
L186127380 199161961
" />
</g></g>
<g style="fill:#000000; fill-opacity:0.0; 
stroke:#000000; stroke-width:21200.000000; stroke-opacity:1; 
stroke-linecap:round; stroke-linejoin:round;">
</g>
<g style="fill:#000000; fill-opacity:0.0; 
stroke:#000000; stroke-width:150000.000000; stroke-opacity:1; 
stroke-linecap:round; stroke-linejoin:round;">
<text x="235000000.000000" y="199657200.000000"
textLength="1388095.000000" font-size="1733333.000000" lengthAdjust="spacingAndGlyphs"
text-anchor="start" opacity="0">5</text>
<g class="stroked-text"><desc>5</desc>
<path d="M236003571 198295295
L235384523 198295295
L235322619 198914342
L235384523 198852438
L235508333 198790533
L235817857 198790533
L235941666 198852438
L236003571 198914342
L236065476 199038152
L236065476 199347676
L236003571 199471485
L235941666 199533390
L235817857 199595295
L235508333 199595295
L235384523 199533390
L235322619 199471485
" />
</g></g>
<g style="fill:#000000; fill-opacity:0.0; 
stroke:#000000; stroke-width:21200.000000; stroke-opacity:1; 
stroke-linecap:round; stroke-linejoin:round;">
</g>
<g style="fill:#000000; fill-opacity:0.0; 
stroke:#000000; stroke-width:150000.000000; stroke-opacity:1; 
stroke-linecap:round; stroke-linejoin:round;">
<text x="285000000.000000" y="199657200.000000"
textLength="1388095.000000" font-size="1733333.000000" lengthAdjust="spacingAndGlyphs"
text-anchor="start" opacity="0">6</text>
<g class="stroked-text"><desc>6</desc>
<path d="M285941666 198295295
L285694047 198295295
L285570238 198357200
L285508333 198419104
L285384523 198604819
L285322619 198852438
L285322619 199347676
L285384523 199471485
L285446428 199533390
L285570238 199595295
L285817857 199595295
L285941666 199533390
L286003571 199471485
L286065476 199347676
L286065476 199038152
L286003571 198914342
L285941666 198852438
L285817857 198790533
L285570238 198790533
L285446428 198852438
L285384523 198914342
L285322619 199038152
" />
</g></g>
<g style="fill:#000000; fill-opacity:0.0; 
stroke:#000000; stroke-width:21200.000000; stroke-opacity:1; 
stroke-linecap:round; stroke-linejoin:round;">
</g>
<g style="fill:#000000; fill-opacity:0.0; 
stroke:#000000; stroke-width:150000.000000; stroke-opacity:1; 
stroke-linecap:round; stroke-linejoin:round;">
<path d="M10000000 60000000
L12000000 60000000
" />
</g>
<g style="fill:#000000; fill-opacity:0.0; 
stroke:#000000; stroke-width:21200.000000; stroke-opacity:1; 
stroke-linecap:round; stroke-linejoin:round;">
</g>
<g style="fill:#000000; fill-opacity:0.0; 
stroke:#000000; stroke-width:150000.000000; stroke-opacity:1; 
stroke-linecap:round; stroke-linejoin:round;">
<path d="M10000000 110000000
L12000000 110000000
" />
</g>
<g style="fill:#000000; fill-opacity:0.0; 
stroke:#000000; stroke-width:21200.000000; stroke-opacity:1; 
stroke-linecap:round; stroke-linejoin:round;">
</g>
<g style="fill:#000000; fill-opacity:0.0; 
stroke:#000000; stroke-width:150000.000000; stroke-opacity:1; 
stroke-linecap:round; stroke-linejoin:round;">
<path d="M10000000 160000000
L12000000 160000000
" />
</g>
<g style="fill:#000000; fill-opacity:0.0; 
stroke:#000000; stroke-width:21200.000000; stroke-opacity:1; 
stroke-linecap:round; stroke-linejoin:round;">
</g>
<g style="fill:#000000; fill-opacity:0.0; 
stroke:#000000; stroke-width:150000.000000; stroke-opacity:1; 
stroke-linecap:round; stroke-linejoin:round;">
<text x="11000000.000000" y="35650000.000000"
textLength="1264286.000000" font-size="1733333.000000" lengthAdjust="spacingAndGlyphs"
text-anchor="middle" opacity="0">A</text>
<g class="stroked-text"><desc>A</desc>
<path d="M10690476 35216666
L11309523 35216666
" />
<path d="M10566666 35588095
L11000000 34288095
L11433333 35588095
" />
</g></g>
<g style="fill:#000000; fill-opacity:0.0; 
stroke:#000000; stroke-width:21200.000000; stroke-opacity:1; 
stroke-linecap:round; stroke-linejoin:round;">
</g>
<g style="fill:#000000; fill-opacity:0.0; 
stroke:#000000; stroke-width:150000.000000; stroke-opacity:1; 
stroke-linecap:round; stroke-linejoin:round;">
<text x="11000000.000000" y="85650000.000000"
textLength="1450000.000000" font-size="1733333.000000" lengthAdjust="spacingAndGlyphs"
text-anchor="middle" opacity="0">B</text>
<g class="stroked-text"><desc>B</desc>
<path d="M11092857 84907142
L11278571 84969047
L11340476 85030952
L11402380 85154761
L11402380 85340476
L11340476 85464285
L11278571 85526190
L11154761 85588095
L10659523 85588095
L10659523 84288095
L11092857 84288095
L11216666 84350000
L11278571 84411904
L11340476 84535714
L11340476 84659523
L11278571 84783333
L11216666 84845238
L11092857 84907142
L10659523 84907142
" />
</g></g>
<g style="fill:#000000; fill-opacity:0.0; 
stroke:#000000; stroke-width:21200.000000; stroke-opacity:1; 
stroke-linecap:round; stroke-linejoin:round;">
</g>
<g style="fill:#000000; fill-opacity:0.0; 
stroke:#000000; stroke-width:150000.000000; stroke-opacity:1; 
stroke-linecap:round; stroke-linejoin:round;">
<text x="11000000.000000" y="135650000.000000"
textLength="1450000.000000" font-size="1733333.000000" lengthAdjust="spacingAndGlyphs"
text-anchor="middle" opacity="0">C</text>
<g class="stroked-text"><desc>C</desc>
<path d="M11402380 135464285
L11340476 135526190
L11154761 135588095
L11030952 135588095
L10845238 135526190
L10721428 135402380
L10659523 135278571
L10597619 135030952
L10597619 134845238
L10659523 134597619
L10721428 134473809
L10845238 134350000
L11030952 134288095
L11154761 134288095
L11340476 134350000
L11402380 134411904
" />
</g></g>
<g style="fill:#000000; fill-opacity:0.0; 
stroke:#000000; stroke-width:21200.000000; stroke-opacity:1; 
stroke-linecap:round; stroke-linejoin:round;">
</g>
<g style="fill:#000000; fill-opacity:0.0; 
stroke:#000000; stroke-width:150000.000000; stroke-opacity:1; 
stroke-linecap:round; stroke-linejoin:round;">
<text x="11000000.000000" y="185650000.000000"
textLength="1450000.000000" font-size="1733333.000000" lengthAdjust="spacingAndGlyphs"
text-anchor="middle" opacity="0">D</text>
<g class="stroked-text"><desc>D</desc>
<path d="M10659523 185588095
L10659523 184288095
L10969047 184288095
L11154761 184350000
L11278571 184473809
L11340476 184597619
L11402380 184845238
L11402380 185030952
L11340476 185278571
L11278571 185402380
L11154761 185526190
L10969047 185588095
L10659523 185588095
" />
</g></g>
<g style="fill:#000000; fill-opacity:0.0; 
stroke:#000000; stroke-width:21200.000000; stroke-opacity:1; 
stroke-linecap:round; stroke-linejoin:round;">
</g>
<g style="fill:#000000; fill-opacity:0.0; 
stroke:#000000; stroke-width:150000.000000; stroke-opacity:1; 
stroke-linecap:round; stroke-linejoin:round;">
<path d="M287002200 60000000
L285002200 60000000
" />
</g>
<g style="fill:#000000; fill-opacity:0.0; 
stroke:#000000; stroke-width:21200.000000; stroke-opacity:1; 
stroke-linecap:round; stroke-linejoin:round;">
</g>
<g style="fill:#000000; fill-opacity:0.0; 
stroke:#000000; stroke-width:150000.000000; stroke-opacity:1; 
stroke-linecap:round; stroke-linejoin:round;">
<path d="M287002200 110000000
L285002200 110000000
" />
</g>
<g style="fill:#000000; fill-opacity:0.0; 
stroke:#000000; stroke-width:21200.000000; stroke-opacity:1; 
stroke-linecap:round; stroke-linejoin:round;">
</g>
<g style="fill:#000000; fill-opacity:0.0; 
stroke:#000000; stroke-width:150000.000000; stroke-opacity:1; 
stroke-linecap:round; stroke-linejoin:round;">
<path d="M287002200 160000000
L285002200 160000000
" />
</g>
<g style="fill:#000000; fill-opacity:0.0; 
stroke:#000000; stroke-width:21200.000000; stroke-opacity:1; 
stroke-linecap:round; stroke-linejoin:round;">
</g>
<g style="fill:#000000; fill-opacity:0.0; 
stroke:#000000; stroke-width:150000.000000; stroke-opacity:1; 
stroke-linecap:round; stroke-linejoin:round;">
<text x="286002200.000000" y="35650000.000000"
textLength="1264286.000000" font-size="1733333.000000" lengthAdjust="spacingAndGlyphs"
text-anchor="middle" opacity="0">A</text>
<g class="stroked-text"><desc>A</desc>
<path d="M285692676 35216666
L286311723 35216666
" />
<path d="M285568866 35588095
L286002200 34288095
L286435533 35588095
" />
</g></g>
<g style="fill:#000000; fill-opacity:0.0; 
stroke:#000000; stroke-width:21200.000000; stroke-opacity:1; 
stroke-linecap:round; stroke-linejoin:round;">
</g>
<g style="fill:#000000; fill-opacity:0.0; 
stroke:#000000; stroke-width:150000.000000; stroke-opacity:1; 
stroke-linecap:round; stroke-linejoin:round;">
<text x="286002200.000000" y="85650000.000000"
textLength="1450000.000000" font-size="1733333.000000" lengthAdjust="spacingAndGlyphs"
text-anchor="middle" opacity="0">B</text>
<g class="stroked-text"><desc>B</desc>
<path d="M286095057 84907142
L286280771 84969047
L286342676 85030952
L286404580 85154761
L286404580 85340476
L286342676 85464285
L286280771 85526190
L286156961 85588095
L285661723 85588095
L285661723 84288095
L286095057 84288095
L286218866 84350000
L286280771 84411904
L286342676 84535714
L286342676 84659523
L286280771 84783333
L286218866 84845238
L286095057 84907142
L285661723 84907142
" />
</g></g>
<g style="fill:#000000; fill-opacity:0.0; 
stroke:#000000; stroke-width:21200.000000; stroke-opacity:1; 
stroke-linecap:round; stroke-linejoin:round;">
</g>
<g style="fill:#000000; fill-opacity:0.0; 
stroke:#000000; stroke-width:150000.000000; stroke-opacity:1; 
stroke-linecap:round; stroke-linejoin:round;">
<text x="286002200.000000" y="135650000.000000"
textLength="1450000.000000" font-size="1733333.000000" lengthAdjust="spacingAndGlyphs"
text-anchor="middle" opacity="0">C</text>
<g class="stroked-text"><desc>C</desc>
<path d="M286404580 135464285
L286342676 135526190
L286156961 135588095
L286033152 135588095
L285847438 135526190
L285723628 135402380
L285661723 135278571
L285599819 135030952
L285599819 134845238
L285661723 134597619
L285723628 134473809
L285847438 134350000
L286033152 134288095
L286156961 134288095
L286342676 134350000
L286404580 134411904
" />
</g></g>
<g style="fill:#000000; fill-opacity:0.0; 
stroke:#000000; stroke-width:21200.000000; stroke-opacity:1; 
stroke-linecap:round; stroke-linejoin:round;">
</g>
<g style="fill:#000000; fill-opacity:0.0; 
stroke:#000000; stroke-width:150000.000000; stroke-opacity:1; 
stroke-linecap:round; stroke-linejoin:round;">
<text x="286002200.000000" y="185650000.000000"
textLength="1450000.000000" font-size="1733333.000000" lengthAdjust="spacingAndGlyphs"
text-anchor="middle" opacity="0">D</text>
<g class="stroked-text"><desc>D</desc>
<path d="M285661723 185588095
L285661723 184288095
L285971247 184288095
L286156961 184350000
L286280771 184473809
L286342676 184597619
L286404580 184845238
L286404580 185030952
L286342676 185278571
L286280771 185402380
L286156961 185526190
L285971247 185588095
L285661723 185588095
" />
</g></g>
<g style="fill:#000000; fill-opacity:0.0; 
stroke:#000000; stroke-width:21200.000000; stroke-opacity:1; 
stroke-linecap:round; stroke-linejoin:round;">
</g>
<g style="fill:#000000; fill-opacity:0.0; 
stroke:#000000; stroke-width:150000.000000; stroke-opacity:1; 
stroke-linecap:round; stroke-linejoin:round;">
<text x="200002200.000000" y="193857200.000000"
textLength="7007143.000000" font-size="2000000.000000" lengthAdjust="spacingAndGlyphs"
text-anchor="start" opacity="0">Date: </text>
<g class="stroked-text"><desc>Date: </desc>
<path d="M200434342 193785771
L200434342 192285771
L200791485 192285771
L201005771 192357200
L201148628 192500057
L201220057 192642914
L201291485 192928628
L201291485 193142914
L201220057 193428628
L201148628 193571485
L201005771 193714342
L200791485 193785771
L200434342 193785771
" />
<path d="M202577200 193785771
L202577200 193000057
L202505771 192857200
L202362914 192785771
L202077200 192785771
L201934342 192857200
" />
<path d="M202577200 193714342
L202434342 193785771
L202077200 193785771
L201934342 193714342
L201862914 193571485
L201862914 193428628
L201934342 193285771
L202077200 193214342
L202434342 193214342
L202577200 193142914
" />
<path d="M203077200 192785771
L203648628 192785771
" />
<path d="M203291485 192285771
L203291485 193571485
L203362914 193714342
L203505771 193785771
L203648628 193785771
" />
<path d="M204720057 193714342
L204577200 193785771
L204291485 193785771
L204148628 193714342
L204077200 193571485
L204077200 193000057
L204148628 192857200
L204291485 192785771
L204577200 192785771
L204720057 192857200
L204791485 193000057
L204791485 193142914
L204077200 193285771
" />
<path d="M205434342 193642914
L205505771 193714342
L205434342 193785771
L205362914 193714342
L205434342 193642914
L205434342 193785771
" />
<path d="M205434342 192857200
L205505771 192928628
L205434342 193000057
L205362914 192928628
L205434342 192857200
L205434342 193000057
" />
</g></g>
<g style="fill:#000000; fill-opacity:0.0; 
stroke:#000000; stroke-width:21200.000000; stroke-opacity:1; 
stroke-linecap:round; stroke-linejoin:round;">
</g>
<g style="fill:#000000; fill-opacity:0.0; 
stroke:#000000; stroke-width:150000.000000; stroke-opacity:1; 
stroke-linecap:round; stroke-linejoin:round;">
<path d="M177002200 194507200
L285002200 194507200
" />
</g>
<g style="fill:#000000; fill-opacity:0.0; 
stroke:#000000; stroke-width:21200.000000; stroke-opacity:1; 
stroke-linecap:round; stroke-linejoin:round;">
</g>
<g style="fill:#000000; fill-opacity:0.0; 
stroke:#000000; stroke-width:150000.000000; stroke-opacity:1; 
stroke-linecap:round; stroke-linejoin:round;">
<text x="178002200.000000" y="196657200.000000"
textLength="33364286.000000" font-size="2000000.000000" lengthAdjust="spacingAndGlyphs"
text-anchor="start" opacity="0">KiCad E.D.A.  pcbnew (6.0.6)</text>
<g class="stroked-text"><desc>KiCad E.D.A.  pcbnew (6.0.6)</desc>
<path d="M178434342 196585771
L178434342 195085771
" />
<path d="M179291485 196585771
L178648628 195728628
" />
<path d="M179291485 195085771
L178434342 195942914
" />
<path d="M179934342 196585771
L179934342 195585771
" />
<path d="M179934342 195085771
L179862914 195157200
L179934342 195228628
L180005771 195157200
L179934342 195085771
L179934342 195228628
" />
<path d="M181505771 196442914
L181434342 196514342
L181220057 196585771
L181077200 196585771
L180862914 196514342
L180720057 196371485
L180648628 196228628
L180577200 195942914
L180577200 195728628
L180648628 195442914
L180720057 195300057
L180862914 195157200
L181077200 195085771
L181220057 195085771
L181434342 195157200
L181505771 195228628
" />
<path d="M182791485 196585771
L182791485 195800057
L182720057 195657200
L182577200 195585771
L182291485 195585771
L182148628 195657200
" />
<path d="M182791485 196514342
L182648628 196585771
L182291485 196585771
L182148628 196514342
L182077200 196371485
L182077200 196228628
L182148628 196085771
L182291485 196014342
L182648628 196014342
L182791485 195942914
" />
<path d="M184148628 196585771
L184148628 195085771
" />
<path d="M184148628 196514342
L184005771 196585771
L183720057 196585771
L183577200 196514342
L183505771 196442914
L183434342 196300057
L183434342 195871485
L183505771 195728628
L183577200 195657200
L183720057 195585771
L184005771 195585771
L184148628 195657200
" />
<path d="M186005771 195800057
L186505771 195800057
" />
<path d="M186720057 196585771
L186005771 196585771
L186005771 195085771
L186720057 195085771
" />
<path d="M187362914 196442914
L187434342 196514342
L187362914 196585771
L187291485 196514342
L187362914 196442914
L187362914 196585771
" />
<path d="M188077200 196585771
L188077200 195085771
L188434342 195085771
L188648628 195157200
L188791485 195300057
L188862914 195442914
L188934342 195728628
L188934342 195942914
L188862914 196228628
L188791485 196371485
L188648628 196514342
L188434342 196585771
L188077200 196585771
" />
<path d="M189577200 196442914
L189648628 196514342
L189577200 196585771
L189505771 196514342
L189577200 196442914
L189577200 196585771
" />
<path d="M190220057 196157200
L190934342 196157200
" />
<path d="M190077200 196585771
L190577200 195085771
L191077200 196585771
" />
<path d="M191577200 196442914
L191648628 196514342
L191577200 196585771
L191505771 196514342
L191577200 196442914
L191577200 196585771
" />
<path d="M194577200 195585771
L194577200 197085771
" />
<path d="M194577200 195657200
L194720057 195585771
L195005771 195585771
L195148628 195657200
L195220057 195728628
L195291485 195871485
L195291485 196300057
L195220057 196442914
L195148628 196514342
L195005771 196585771
L194720057 196585771
L194577200 196514342
" />
<path d="M196577200 196514342
L196434342 196585771
L196148628 196585771
L196005771 196514342
L195934342 196442914
L195862914 196300057
L195862914 195871485
L195934342 195728628
L196005771 195657200
L196148628 195585771
L196434342 195585771
L196577200 195657200
" />
<path d="M197220057 196585771
L197220057 195085771
" />
<path d="M197220057 195657200
L197362914 195585771
L197648628 195585771
L197791485 195657200
L197862914 195728628
L197934342 195871485
L197934342 196300057
L197862914 196442914
L197791485 196514342
L197648628 196585771
L197362914 196585771
L197220057 196514342
" />
<path d="M198577200 195585771
L198577200 196585771
" />
<path d="M198577200 195728628
L198648628 195657200
L198791485 195585771
L199005771 195585771
L199148628 195657200
L199220057 195800057
L199220057 196585771
" />
<path d="M200505771 196514342
L200362914 196585771
L200077200 196585771
L199934342 196514342
L199862914 196371485
L199862914 195800057
L199934342 195657200
L200077200 195585771
L200362914 195585771
L200505771 195657200
L200577200 195800057
L200577200 195942914
L199862914 196085771
" />
<path d="M201077200 195585771
L201362914 196585771
L201648628 195871485
L201934342 196585771
L202220057 195585771
" />
<path d="M204362914 197157200
L204291485 197085771
L204148628 196871485
L204077200 196728628
L204005771 196514342
L203934342 196157200
L203934342 195871485
L204005771 195514342
L204077200 195300057
L204148628 195157200
L204291485 194942914
L204362914 194871485
" />
<path d="M205577200 195085771
L205291485 195085771
L205148628 195157200
L205077200 195228628
L204934342 195442914
L204862914 195728628
L204862914 196300057
L204934342 196442914
L205005771 196514342
L205148628 196585771
L205434342 196585771
L205577200 196514342
L205648628 196442914
L205720057 196300057
L205720057 195942914
L205648628 195800057
L205577200 195728628
L205434342 195657200
L205148628 195657200
L205005771 195728628
L204934342 195800057
L204862914 195942914
" />
<path d="M206362914 196442914
L206434342 196514342
L206362914 196585771
L206291485 196514342
L206362914 196442914
L206362914 196585771
" />
<path d="M207362914 195085771
L207505771 195085771
L207648628 195157200
L207720057 195228628
L207791485 195371485
L207862914 195657200
L207862914 196014342
L207791485 196300057
L207720057 196442914
L207648628 196514342
L207505771 196585771
L207362914 196585771
L207220057 196514342
L207148628 196442914
L207077200 196300057
L207005771 196014342
L207005771 195657200
L207077200 195371485
L207148628 195228628
L207220057 195157200
L207362914 195085771
" />
<path d="M208505771 196442914
L208577200 196514342
L208505771 196585771
L208434342 196514342
L208505771 196442914
L208505771 196585771
" />
<path d="M209862914 195085771
L209577200 195085771
L209434342 195157200
L209362914 195228628
L209220057 195442914
L209148628 195728628
L209148628 196300057
L209220057 196442914
L209291485 196514342
L209434342 196585771
L209720057 196585771
L209862914 196514342
L209934342 196442914
L210005771 196300057
L210005771 195942914
L209934342 195800057
L209862914 195728628
L209720057 195657200
L209434342 195657200
L209291485 195728628
L209220057 195800057
L209148628 195942914
" />
<path d="M210505771 197157200
L210577200 197085771
L210720057 196871485
L210791485 196728628
L210862914 196514342
L210934342 196157200
L210934342 195871485
L210862914 195514342
L210791485 195300057
L210720057 195157200
L210577200 194942914
L210505771 194871485
" />
</g></g>
<g style="fill:#000000; fill-opacity:0.0; 
stroke:#000000; stroke-width:21200.000000; stroke-opacity:1; 
stroke-linecap:round; stroke-linejoin:round;">
</g>
<g style="fill:#000000; fill-opacity:0.0; 
stroke:#000000; stroke-width:150000.000000; stroke-opacity:1; 
stroke-linecap:round; stroke-linejoin:round;">
<path d="M177002200 191507200
L285002200 191507200
" />
</g>
<g style="fill:#000000; fill-opacity:0.0; 
stroke:#000000; stroke-width:21200.000000; stroke-opacity:1; 
stroke-linecap:round; stroke-linejoin:round;">
</g>
<g style="fill:#000000; fill-opacity:0.0; 
stroke:#000000; stroke-width:300000.000000; stroke-opacity:1; 
stroke-linecap:round; stroke-linejoin:round;">
<text x="263002200.000000" y="193857200.000000"
textLength="5935714.000000" font-size="2000000.000000" lengthAdjust="spacingAndGlyphs"
text-anchor="start" opacity="0">Rev: </text>
<g class="stroked-text"><desc>Rev: </desc>
<path d="M264411485 193785771
L263911485 193071485
" />
<path d="M263554342 193785771
L263554342 192285771
L264125771 192285771
L264268628 192357200
L264340057 192428628
L264411485 192571485
L264411485 192785771
L264340057 192928628
L264268628 193000057
L264125771 193071485
L263554342 193071485
" />
<path d="M265625771 193714342
L265482914 193785771
L265197200 193785771
L265054342 193714342
L264982914 193571485
L264982914 193000057
L265054342 192857200
L265197200 192785771
L265482914 192785771
L265625771 192857200
L265697200 193000057
L265697200 193142914
L264982914 193285771
" />
<path d="M266197200 192785771
L266554342 193785771
L266911485 192785771
" />
<path d="M267482914 193642914
L267554342 193714342
L267482914 193785771
L267411485 193714342
L267482914 193642914
L267482914 193785771
" />
<path d="M267482914 192857200
L267554342 192928628
L267482914 193000057
L267411485 192928628
L267482914 192857200
L267482914 193000057
" />
</g></g>
<g style="fill:#000000; fill-opacity:0.0; 
stroke:#000000; stroke-width:21200.000000; stroke-opacity:1; 
stroke-linecap:round; stroke-linejoin:round;">
</g>
<g style="fill:#000000; fill-opacity:0.0; 
stroke:#000000; stroke-width:150000.000000; stroke-opacity:1; 
stroke-linecap:round; stroke-linejoin:round;">
<text x="178002200.000000" y="193857200.000000"
textLength="9604286.000000" font-size="2000000.000000" lengthAdjust="spacingAndGlyphs"
text-anchor="start" opacity="0">Size: A4</text>
<g class="stroked-text"><desc>Size: A4</desc>
<path d="M178362914 193714342
L178577200 193785771
L178934342 193785771
L179077200 193714342
L179148628 193642914
L179220057 193500057
L179220057 193357200
L179148628 193214342
L179077200 193142914
L178934342 193071485
L178648628 193000057
L178505771 192928628
L178434342 192857200
L178362914 192714342
L178362914 192571485
L178434342 192428628
L178505771 192357200
L178648628 192285771
L179005771 192285771
L179220057 192357200
" />
<path d="M179862914 193785771
L179862914 192785771
" />
<path d="M179862914 192285771
L179791485 192357200
L179862914 192428628
L179934342 192357200
L179862914 192285771
L179862914 192428628
" />
<path d="M180434342 192785771
L181220057 192785771
L180434342 193785771
L181220057 193785771
" />
<path d="M182362914 193714342
L182220057 193785771
L181934342 193785771
L181791485 193714342
L181720057 193571485
L181720057 193000057
L181791485 192857200
L181934342 192785771
L182220057 192785771
L182362914 192857200
L182434342 193000057
L182434342 193142914
L181720057 193285771
" />
<path d="M183077200 193642914
L183148628 193714342
L183077200 193785771
L183005771 193714342
L183077200 193642914
L183077200 193785771
" />
<path d="M183077200 192857200
L183148628 192928628
L183077200 193000057
L183005771 192928628
L183077200 192857200
L183077200 193000057
" />
<path d="M184862914 193357200
L185577200 193357200
" />
<path d="M184720057 193785771
L185220057 192285771
L185720057 193785771
" />
<path d="M186862914 192785771
L186862914 193785771
" />
<path d="M186505771 192214342
L186148628 193285771
L187077200 193285771
" />
</g></g>
<g style="fill:#000000; fill-opacity:0.0; 
stroke:#000000; stroke-width:21200.000000; stroke-opacity:1; 
stroke-linecap:round; stroke-linejoin:round;">
</g>
<g style="fill:#000000; fill-opacity:0.0; 
stroke:#000000; stroke-width:150000.000000; stroke-opacity:1; 
stroke-linecap:round; stroke-linejoin:round;">
<text x="263002200.000000" y="196657200.000000"
textLength="8507143.000000" font-size="2000000.000000" lengthAdjust="spacingAndGlyphs"
text-anchor="start" opacity="0">Id: 1/1</text>
<g class="stroked-text"><desc>Id: 1/1</desc>
<path d="M263434342 196585771
L263434342 195085771
" />
<path d="M264791485 196585771
L264791485 195085771
" />
<path d="M264791485 196514342
L264648628 196585771
L264362914 196585771
L264220057 196514342
L264148628 196442914
L264077200 196300057
L264077200 195871485
L264148628 195728628
L264220057 195657200
L264362914 195585771
L264648628 195585771
L264791485 195657200
" />
<path d="M265505771 196442914
L265577200 196514342
L265505771 196585771
L265434342 196514342
L265505771 196442914
L265505771 196585771
" />
<path d="M265505771 195657200
L265577200 195728628
L265505771 195800057
L265434342 195728628
L265505771 195657200
L265505771 195800057
" />
<path d="M268148628 196585771
L267291485 196585771
" />
<path d="M267720057 196585771
L267720057 195085771
L267577200 195300057
L267434342 195442914
L267291485 195514342
" />
<path d="M269862914 195014342
L268577200 196942914
" />
<path d="M271148628 196585771
L270291485 196585771
" />
<path d="M270720057 196585771
L270720057 195085771
L270577200 195300057
L270434342 195442914
L270291485 195514342
" />
</g></g>
<g style="fill:#000000; fill-opacity:0.0; 
stroke:#000000; stroke-width:21200.000000; stroke-opacity:1; 
stroke-linecap:round; stroke-linejoin:round;">
</g>
<g style="fill:#000000; fill-opacity:0.0; 
stroke:#000000; stroke-width:150000.000000; stroke-opacity:1; 
stroke-linecap:round; stroke-linejoin:round;">
<path d="M177002200 187507200
L285002200 187507200
" />
</g>
<g style="fill:#000000; fill-opacity:0.0; 
stroke:#000000; stroke-width:21200.000000; stroke-opacity:1; 
stroke-linecap:round; stroke-linejoin:round;">
</g>
<g style="fill:#000000; fill-opacity:0.0; 
stroke:#000000; stroke-width:400000.000000; stroke-opacity:1; 
stroke-linecap:round; stroke-linejoin:round;">
<text x="178002200.000000" y="190307200.000000"
textLength="9409643.000000" font-size="2666666.000000" lengthAdjust="spacingAndGlyphs"
text-anchor="start" opacity="0">Title: </text>
<g class="stroked-text"><desc>Title: </desc>
<path d="M178714580 188211961
L179857438 188211961
" />
<path d="M179036009 190211961
L179286009 188211961
" />
<path d="M180274104 190211961
L180440771 188878628
" />
<path d="M180524104 188211961
L180416961 188307200
L180500295 188402438
L180607438 188307200
L180524104 188211961
L180500295 188402438
" />
<path d="M181107438 188878628
L181869342 188878628
" />
<path d="M181476485 188211961
L181262200 189926247
L181333628 190116723
L181512200 190211961
L181702676 190211961
" />
<path d="M182655057 190211961
L182476485 190116723
L182405057 189926247
L182619342 188211961
" />
<path d="M184190771 190116723
L183988390 190211961
L183607438 190211961
L183428866 190116723
L183357438 189926247
L183452676 189164342
L183571723 188973866
L183774104 188878628
L184155057 188878628
L184333628 188973866
L184405057 189164342
L184381247 189354819
L183405057 189545295
" />
<path d="M185155057 190021485
L185238390 190116723
L185131247 190211961
L185047914 190116723
L185155057 190021485
L185131247 190211961
" />
<path d="M185286009 188973866
L185369342 189069104
L185262200 189164342
L185178866 189069104
L185286009 188973866
L185262200 189164342
" />
</g></g>
<g style="fill:#000000; fill-opacity:0.0; 
stroke:#000000; stroke-width:21200.000000; stroke-opacity:1; 
stroke-linecap:round; stroke-linejoin:round;">
</g>
<g style="fill:#000000; fill-opacity:0.0; 
stroke:#000000; stroke-width:150000.000000; stroke-opacity:1; 
stroke-linecap:round; stroke-linejoin:round;">
<text x="178002200.000000" y="186457200.000000"
textLength="30805714.000000" font-size="2000000.000000" lengthAdjust="spacingAndGlyphs"
text-anchor="start" opacity="0">File: boardKicad.kicad_pcb</text>
<g class="stroked-text"><desc>File: boardKicad.kicad_pcb</desc>
<path d="M178934342 185600057
L178434342 185600057
" />
<path d="M178434342 186385771
L178434342 184885771
L179148628 184885771
" />
<path d="M179720057 186385771
L179720057 185385771
" />
<path d="M179720057 184885771
L179648628 184957200
L179720057 185028628
L179791485 184957200
L179720057 184885771
L179720057 185028628
" />
<path d="M180648628 186385771
L180505771 186314342
L180434342 186171485
L180434342 184885771
" />
<path d="M181791485 186314342
L181648628 186385771
L181362914 186385771
L181220057 186314342
L181148628 186171485
L181148628 185600057
L181220057 185457200
L181362914 185385771
L181648628 185385771
L181791485 185457200
L181862914 185600057
L181862914 185742914
L181148628 185885771
" />
<path d="M182505771 186242914
L182577200 186314342
L182505771 186385771
L182434342 186314342
L182505771 186242914
L182505771 186385771
" />
<path d="M182505771 185457200
L182577200 185528628
L182505771 185600057
L182434342 185528628
L182505771 185457200
L182505771 185600057
" />
<path d="M184362914 186385771
L184362914 184885771
" />
<path d="M184362914 185457200
L184505771 185385771
L184791485 185385771
L184934342 185457200
L185005771 185528628
L185077200 185671485
L185077200 186100057
L185005771 186242914
L184934342 186314342
L184791485 186385771
L184505771 186385771
L184362914 186314342
" />
<path d="M185934342 186385771
L185791485 186314342
L185720057 186242914
L185648628 186100057
L185648628 185671485
L185720057 185528628
L185791485 185457200
L185934342 185385771
L186148628 185385771
L186291485 185457200
L186362914 185528628
L186434342 185671485
L186434342 186100057
L186362914 186242914
L186291485 186314342
L186148628 186385771
L185934342 186385771
" />
<path d="M187720057 186385771
L187720057 185600057
L187648628 185457200
L187505771 185385771
L187220057 185385771
L187077200 185457200
" />
<path d="M187720057 186314342
L187577200 186385771
L187220057 186385771
L187077200 186314342
L187005771 186171485
L187005771 186028628
L187077200 185885771
L187220057 185814342
L187577200 185814342
L187720057 185742914
" />
<path d="M188434342 186385771
L188434342 185385771
" />
<path d="M188434342 185671485
L188505771 185528628
L188577200 185457200
L188720057 185385771
L188862914 185385771
" />
<path d="M190005771 186385771
L190005771 184885771
" />
<path d="M190005771 186314342
L189862914 186385771
L189577200 186385771
L189434342 186314342
L189362914 186242914
L189291485 186100057
L189291485 185671485
L189362914 185528628
L189434342 185457200
L189577200 185385771
L189862914 185385771
L190005771 185457200
" />
<path d="M190720057 186385771
L190720057 184885771
" />
<path d="M191577200 186385771
L190934342 185528628
" />
<path d="M191577200 184885771
L190720057 185742914
" />
<path d="M192220057 186385771
L192220057 185385771
" />
<path d="M192220057 184885771
L192148628 184957200
L192220057 185028628
L192291485 184957200
L192220057 184885771
L192220057 185028628
" />
<path d="M193577200 186314342
L193434342 186385771
L193148628 186385771
L193005771 186314342
L192934342 186242914
L192862914 186100057
L192862914 185671485
L192934342 185528628
L193005771 185457200
L193148628 185385771
L193434342 185385771
L193577200 185457200
" />
<path d="M194862914 186385771
L194862914 185600057
L194791485 185457200
L194648628 185385771
L194362914 185385771
L194220057 185457200
" />
<path d="M194862914 186314342
L194720057 186385771
L194362914 186385771
L194220057 186314342
L194148628 186171485
L194148628 186028628
L194220057 185885771
L194362914 185814342
L194720057 185814342
L194862914 185742914
" />
<path d="M196220057 186385771
L196220057 184885771
" />
<path d="M196220057 186314342
L196077200 186385771
L195791485 186385771
L195648628 186314342
L195577200 186242914
L195505771 186100057
L195505771 185671485
L195577200 185528628
L195648628 185457200
L195791485 185385771
L196077200 185385771
L196220057 185457200
" />
<path d="M196934342 186242914
L197005771 186314342
L196934342 186385771
L196862914 186314342
L196934342 186242914
L196934342 186385771
" />
<path d="M197648628 186385771
L197648628 184885771
" />
<path d="M197791485 185814342
L198220057 186385771
" />
<path d="M198220057 185385771
L197648628 185957200
" />
<path d="M198862914 186385771
L198862914 185385771
" />
<path d="M198862914 184885771
L198791485 184957200
L198862914 185028628
L198934342 184957200
L198862914 184885771
L198862914 185028628
" />
<path d="M200220057 186314342
L200077200 186385771
L199791485 186385771
L199648628 186314342
L199577200 186242914
L199505771 186100057
L199505771 185671485
L199577200 185528628
L199648628 185457200
L199791485 185385771
L200077200 185385771
L200220057 185457200
" />
<path d="M201505771 186385771
L201505771 185600057
L201434342 185457200
L201291485 185385771
L201005771 185385771
L200862914 185457200
" />
<path d="M201505771 186314342
L201362914 186385771
L201005771 186385771
L200862914 186314342
L200791485 186171485
L200791485 186028628
L200862914 185885771
L201005771 185814342
L201362914 185814342
L201505771 185742914
" />
<path d="M202862914 186385771
L202862914 184885771
" />
<path d="M202862914 186314342
L202720057 186385771
L202434342 186385771
L202291485 186314342
L202220057 186242914
L202148628 186100057
L202148628 185671485
L202220057 185528628
L202291485 185457200
L202434342 185385771
L202720057 185385771
L202862914 185457200
" />
<path d="M203220057 186528628
L204362914 186528628
" />
<path d="M204720057 185385771
L204720057 186885771
" />
<path d="M204720057 185457200
L204862914 185385771
L205148628 185385771
L205291485 185457200
L205362914 185528628
L205434342 185671485
L205434342 186100057
L205362914 186242914
L205291485 186314342
L205148628 186385771
L204862914 186385771
L204720057 186314342
" />
<path d="M206720057 186314342
L206577200 186385771
L206291485 186385771
L206148628 186314342
L206077200 186242914
L206005771 186100057
L206005771 185671485
L206077200 185528628
L206148628 185457200
L206291485 185385771
L206577200 185385771
L206720057 185457200
" />
<path d="M207362914 186385771
L207362914 184885771
" />
<path d="M207362914 185457200
L207505771 185385771
L207791485 185385771
L207934342 185457200
L208005771 185528628
L208077200 185671485
L208077200 186100057
L208005771 186242914
L207934342 186314342
L207791485 186385771
L207505771 186385771
L207362914 186314342
" />
</g></g>
<g style="fill:#000000; fill-opacity:0.0; 
stroke:#000000; stroke-width:21200.000000; stroke-opacity:1; 
stroke-linecap:round; stroke-linejoin:round;">
</g>
<g style="fill:#000000; fill-opacity:0.0; 
stroke:#000000; stroke-width:150000.000000; stroke-opacity:1; 
stroke-linecap:round; stroke-linejoin:round;">
<path d="M177002200 181507200
L285002200 181507200
" />
</g>
<g style="fill:#000000; fill-opacity:0.0; 
stroke:#000000; stroke-width:21200.000000; stroke-opacity:1; 
stroke-linecap:round; stroke-linejoin:round;">
</g>
<g style="fill:#000000; fill-opacity:0.0; 
stroke:#000000; stroke-width:150000.000000; stroke-opacity:1; 
stroke-linecap:round; stroke-linejoin:round;">
<text x="178002200.000000" y="183757200.000000"
textLength="8221429.000000" font-size="2000000.000000" lengthAdjust="spacingAndGlyphs"
text-anchor="start" opacity="0">Sheet: </text>
<g class="stroked-text"><desc>Sheet: </desc>
<path d="M178362914 183614342
L178577200 183685771
L178934342 183685771
L179077200 183614342
L179148628 183542914
L179220057 183400057
L179220057 183257200
L179148628 183114342
L179077200 183042914
L178934342 182971485
L178648628 182900057
L178505771 182828628
L178434342 182757200
L178362914 182614342
L178362914 182471485
L178434342 182328628
L178505771 182257200
L178648628 182185771
L179005771 182185771
L179220057 182257200
" />
<path d="M179862914 183685771
L179862914 182185771
" />
<path d="M180505771 183685771
L180505771 182900057
L180434342 182757200
L180291485 182685771
L180077200 182685771
L179934342 182757200
L179862914 182828628
" />
<path d="M181791485 183614342
L181648628 183685771
L181362914 183685771
L181220057 183614342
L181148628 183471485
L181148628 182900057
L181220057 182757200
L181362914 182685771
L181648628 182685771
L181791485 182757200
L181862914 182900057
L181862914 183042914
L181148628 183185771
" />
<path d="M183077200 183614342
L182934342 183685771
L182648628 183685771
L182505771 183614342
L182434342 183471485
L182434342 182900057
L182505771 182757200
L182648628 182685771
L182934342 182685771
L183077200 182757200
L183148628 182900057
L183148628 183042914
L182434342 183185771
" />
<path d="M183577200 182685771
L184148628 182685771
" />
<path d="M183791485 182185771
L183791485 183471485
L183862914 183614342
L184005771 183685771
L184148628 183685771
" />
<path d="M184648628 183542914
L184720057 183614342
L184648628 183685771
L184577200 183614342
L184648628 183542914
L184648628 183685771
" />
<path d="M184648628 182757200
L184720057 182828628
L184648628 182900057
L184577200 182828628
L184648628 182757200
L184648628 182900057
" />
</g></g>
<g style="fill:#000000; fill-opacity:0.0; 
stroke:#000000; stroke-width:21200.000000; stroke-opacity:1; 
stroke-linecap:round; stroke-linejoin:round;">
</g>
<g style="fill:#000000; fill-opacity:0.0; 
stroke:#000000; stroke-width:300000.000000; stroke-opacity:1; 
stroke-linecap:round; stroke-linejoin:round;">
<text x="178002200.000000" y="180757200.000000"
textLength="150000.000000" font-size="2000000.000000" lengthAdjust="spacingAndGlyphs"
text-anchor="start" opacity="0"></text>
<g class="stroked-text"><desc></desc>
</g></g>
<g style="fill:#000000; fill-opacity:0.0; 
stroke:#000000; stroke-width:21200.000000; stroke-opacity:1; 
stroke-linecap:round; stroke-linejoin:round;">
</g>
<g style="fill:#000000; fill-opacity:0.0; 
stroke:#000000; stroke-width:150000.000000; stroke-opacity:1; 
stroke-linecap:round; stroke-linejoin:round;">
<text x="178002200.000000" y="177757200.000000"
textLength="300000.000000" font-size="2000000.000000" lengthAdjust="spacingAndGlyphs"
text-anchor="start" opacity="0"></text>
<g class="stroked-text"><desc></desc>
</g></g>
<g style="fill:#000000; fill-opacity:0.0; 
stroke:#000000; stroke-width:21200.000000; stroke-opacity:1; 
stroke-linecap:round; stroke-linejoin:round;">
</g>
<g style="fill:#000000; fill-opacity:0.0; 
stroke:#000000; stroke-width:150000.000000; stroke-opacity:1; 
stroke-linecap:round; stroke-linejoin:round;">
<text x="178002200.000000" y="174757200.000000"
textLength="150000.000000" font-size="2000000.000000" lengthAdjust="spacingAndGlyphs"
text-anchor="start" opacity="0"></text>
<g class="stroked-text"><desc></desc>
</g></g>
<g style="fill:#000000; fill-opacity:0.0; 
stroke:#000000; stroke-width:21200.000000; stroke-opacity:1; 
stroke-linecap:round; stroke-linejoin:round;">
</g>
<g style="fill:#000000; fill-opacity:0.0; 
stroke:#000000; stroke-width:150000.000000; stroke-opacity:1; 
stroke-linecap:round; stroke-linejoin:round;">
<text x="178002200.000000" y="171757200.000000"
textLength="150000.000000" font-size="2000000.000000" lengthAdjust="spacingAndGlyphs"
text-anchor="start" opacity="0"></text>
<g class="stroked-text"><desc></desc>
</g></g>
<g style="fill:#000000; fill-opacity:0.0; 
stroke:#000000; stroke-width:21200.000000; stroke-opacity:1; 
stroke-linecap:round; stroke-linejoin:round;">
</g>
<g style="fill:#000000; fill-opacity:0.0; 
stroke:#000000; stroke-width:150000.000000; stroke-opacity:1; 
stroke-linecap:round; stroke-linejoin:round;">
<text x="178002200.000000" y="168757200.000000"
textLength="150000.000000" font-size="2000000.000000" lengthAdjust="spacingAndGlyphs"
text-anchor="start" opacity="0"></text>
<g class="stroked-text"><desc></desc>
</g></g>
<g style="fill:#000000; fill-opacity:0.0; 
stroke:#000000; stroke-width:21200.000000; stroke-opacity:1; 
stroke-linecap:round; stroke-linejoin:round;">
</g>
<g style="fill:#000000; fill-opacity:0.0; 
stroke:#000000; stroke-width:150000.000000; stroke-opacity:1; 
stroke-linecap:round; stroke-linejoin:round;">
<path d="M197002200 191507200
L197002200 194507200
" />
</g>
<g style="fill:#000000; fill-opacity:0.0; 
stroke:#000000; stroke-width:21200.000000; stroke-opacity:1; 
stroke-linecap:round; stroke-linejoin:round;">
</g>
<g style="fill:#000000; fill-opacity:0.0; 
stroke:#000000; stroke-width:150000.000000; stroke-opacity:1; 
stroke-linecap:round; stroke-linejoin:round;">
<path d="M261002200 191507200
L261002200 198007200
" />
</g>
<g style="fill:#AFAFAF; fill-opacity:0.0; 
stroke:#AFAFAF; stroke-width:150000.000000; stroke-opacity:1; 
stroke-linecap:round; stroke-linejoin:round;">
</g>
<g style="fill:#AFAFAF; fill-opacity:0.0; 
stroke:#AFAFAF; stroke-width:142240.000000; stroke-opacity:1; 
stroke-linecap:round; stroke-linejoin:round;">
<text x="153581100.000000" y="124688600.000000"
textLength="16741280.000000" font-size="2181013.000000" lengthAdjust="spacingAndGlyphs"
text-anchor="start" opacity="0">Andy England</text>
<g class="stroked-text"><desc>Andy England</desc>
<path d="M153985129 124143346
L154764062 124143346
" />
<path d="M153829342 124610706
L154374596 122974946
L154919849 124610706
" />
<path d="M155465102 123520200
L155465102 124610706
" />
<path d="M155465102 123675986
L155542996 123598093
L155698782 123520200
L155932462 123520200
L156088249 123598093
L156166142 123753880
L156166142 124610706
" />
<path d="M157646116 124610706
L157646116 122974946
" />
<path d="M157646116 124532813
L157490329 124610706
L157178756 124610706
L157022969 124532813
L156945076 124454920
L156867182 124299133
L156867182 123831773
L156945076 123675986
L157022969 123598093
L157178756 123520200
L157490329 123520200
L157646116 123598093
" />
<path d="M158269262 123520200
L158658729 124610706
" />
<path d="M159048196 123520200
L158658729 124610706
L158502942 125000173
L158425049 125078066
L158269262 125155960
" />
<path d="M160917636 123753880
L161462889 123753880
" />
<path d="M161696569 124610706
L160917636 124610706
L160917636 122974946
L161696569 122974946
" />
<path d="M162397609 123520200
L162397609 124610706
" />
<path d="M162397609 123675986
L162475502 123598093
L162631289 123520200
L162864969 123520200
L163020756 123598093
L163098649 123753880
L163098649 124610706
" />
<path d="M164578622 123520200
L164578622 124844386
L164500729 125000173
L164422836 125078066
L164267049 125155960
L164033369 125155960
L163877582 125078066
" />
<path d="M164578622 124532813
L164422836 124610706
L164111262 124610706
L163955476 124532813
L163877582 124454920
L163799689 124299133
L163799689 123831773
L163877582 123675986
L163955476 123598093
L164111262 123520200
L164422836 123520200
L164578622 123598093
" />
<path d="M165591236 124610706
L165435449 124532813
L165357556 124377026
L165357556 122974946
" />
<path d="M166915422 124610706
L166915422 123753880
L166837529 123598093
L166681742 123520200
L166370169 123520200
L166214382 123598093
" />
<path d="M166915422 124532813
L166759636 124610706
L166370169 124610706
L166214382 124532813
L166136489 124377026
L166136489 124221240
L166214382 124065453
L166370169 123987560
L166759636 123987560
L166915422 123909666
" />
<path d="M167694356 123520200
L167694356 124610706
" />
<path d="M167694356 123675986
L167772249 123598093
L167928036 123520200
L168161716 123520200
L168317502 123598093
L168395396 123753880
L168395396 124610706
" />
<path d="M169875369 124610706
L169875369 122974946
" />
<path d="M169875369 124532813
L169719582 124610706
L169408009 124610706
L169252222 124532813
L169174329 124454920
L169096436 124299133
L169096436 123831773
L169174329 123675986
L169252222 123598093
L169408009 123520200
L169719582 123520200
L169875369 123598093
" />
</g><text x="102781100.000000" y="119608600.000000"
textLength="103315685.000000" font-size="2181013.000000" lengthAdjust="spacingAndGlyphs"
text-anchor="start" opacity="0">RELEASED UNDER THE CREATIVE COMMONS ATTRIBUTION SHARE-ALIKE 4.0 LICENSE</text>
<g class="stroked-text"><desc>RELEASED UNDER THE CREATIVE COMMONS ATTRIBUTION SHARE-ALIKE 4.0 LICENSE</desc>
<path d="M104197742 119530706
L103652489 118751773
" />
<path d="M103263022 119530706
L103263022 117894946
L103886169 117894946
L104041956 117972840
L104119849 118050733
L104197742 118206520
L104197742 118440200
L104119849 118595986
L104041956 118673880
L103886169 118751773
L103263022 118751773
" />
<path d="M104898782 118673880
L105444036 118673880
" />
<path d="M105677716 119530706
L104898782 119530706
L104898782 117894946
L105677716 117894946
" />
<path d="M107157689 119530706
L106378756 119530706
L106378756 117894946
" />
<path d="M107702942 118673880
L108248196 118673880
" />
<path d="M108481876 119530706
L107702942 119530706
L107702942 117894946
L108481876 117894946
" />
<path d="M109105022 119063346
L109883956 119063346
" />
<path d="M108949236 119530706
L109494489 117894946
L110039742 119530706
" />
<path d="M110507102 119452813
L110740782 119530706
L111130249 119530706
L111286036 119452813
L111363929 119374920
L111441822 119219133
L111441822 119063346
L111363929 118907560
L111286036 118829666
L111130249 118751773
L110818676 118673880
L110662889 118595986
L110584996 118518093
L110507102 118362306
L110507102 118206520
L110584996 118050733
L110662889 117972840
L110818676 117894946
L111208142 117894946
L111441822 117972840
" />
<path d="M112142862 118673880
L112688116 118673880
" />
<path d="M112921796 119530706
L112142862 119530706
L112142862 117894946
L112921796 117894946
" />
<path d="M113622836 119530706
L113622836 117894946
L114012302 117894946
L114245982 117972840
L114401769 118128626
L114479662 118284413
L114557556 118595986
L114557556 118829666
L114479662 119141240
L114401769 119297026
L114245982 119452813
L114012302 119530706
L113622836 119530706
" />
<path d="M116504889 117894946
L116504889 119219133
L116582782 119374920
L116660676 119452813
L116816462 119530706
L117128036 119530706
L117283822 119452813
L117361716 119374920
L117439609 119219133
L117439609 117894946
" />
<path d="M118218542 119530706
L118218542 117894946
L119153262 119530706
L119153262 117894946
" />
<path d="M119932196 119530706
L119932196 117894946
L120321662 117894946
L120555342 117972840
L120711129 118128626
L120789022 118284413
L120866916 118595986
L120866916 118829666
L120789022 119141240
L120711129 119297026
L120555342 119452813
L120321662 119530706
L119932196 119530706
" />
<path d="M121567956 118673880
L122113209 118673880
" />
<path d="M122346889 119530706
L121567956 119530706
L121567956 117894946
L122346889 117894946
" />
<path d="M123982649 119530706
L123437396 118751773
" />
<path d="M123047929 119530706
L123047929 117894946
L123671076 117894946
L123826862 117972840
L123904756 118050733
L123982649 118206520
L123982649 118440200
L123904756 118595986
L123826862 118673880
L123671076 118751773
L123047929 118751773
" />
<path d="M125696302 117894946
L126631022 117894946
" />
<path d="M126163662 119530706
L126163662 117894946
" />
<path d="M127176276 119530706
L127176276 117894946
" />
<path d="M127176276 118673880
L128110996 118673880
" />
<path d="M128110996 119530706
L128110996 117894946
" />
<path d="M128889929 118673880
L129435182 118673880
" />
<path d="M129668862 119530706
L128889929 119530706
L128889929 117894946
L129668862 117894946
" />
<path d="M132550916 119374920
L132473022 119452813
L132239342 119530706
L132083556 119530706
L131849876 119452813
L131694089 119297026
L131616196 119141240
L131538302 118829666
L131538302 118595986
L131616196 118284413
L131694089 118128626
L131849876 117972840
L132083556 117894946
L132239342 117894946
L132473022 117972840
L132550916 118050733
" />
<path d="M134186676 119530706
L133641422 118751773
" />
<path d="M133251956 119530706
L133251956 117894946
L133875102 117894946
L134030889 117972840
L134108782 118050733
L134186676 118206520
L134186676 118440200
L134108782 118595986
L134030889 118673880
L133875102 118751773
L133251956 118751773
" />
<path d="M134887716 118673880
L135432969 118673880
" />
<path d="M135666649 119530706
L134887716 119530706
L134887716 117894946
L135666649 117894946
" />
<path d="M136289796 119063346
L137068729 119063346
" />
<path d="M136134009 119530706
L136679262 117894946
L137224516 119530706
" />
<path d="M137536089 117894946
L138470809 117894946
" />
<path d="M138003449 119530706
L138003449 117894946
" />
<path d="M139016062 119530706
L139016062 117894946
" />
<path d="M139561316 117894946
L140106569 119530706
L140651822 117894946
" />
<path d="M141197076 118673880
L141742329 118673880
" />
<path d="M141976009 119530706
L141197076 119530706
L141197076 117894946
L141976009 117894946
" />
<path d="M144858062 119374920
L144780169 119452813
L144546489 119530706
L144390702 119530706
L144157022 119452813
L144001236 119297026
L143923342 119141240
L143845449 118829666
L143845449 118595986
L143923342 118284413
L144001236 118128626
L144157022 117972840
L144390702 117894946
L144546489 117894946
L144780169 117972840
L144858062 118050733
" />
<path d="M145870676 117894946
L146182249 117894946
L146338036 117972840
L146493822 118128626
L146571716 118440200
L146571716 118985453
L146493822 119297026
L146338036 119452813
L146182249 119530706
L145870676 119530706
L145714889 119452813
L145559102 119297026
L145481209 118985453
L145481209 118440200
L145559102 118128626
L145714889 117972840
L145870676 117894946
" />
<path d="M147272756 119530706
L147272756 117894946
L147818009 119063346
L148363262 117894946
L148363262 119530706
" />
<path d="M149142196 119530706
L149142196 117894946
L149687449 119063346
L150232702 117894946
L150232702 119530706
" />
<path d="M151323209 117894946
L151634782 117894946
L151790569 117972840
L151946356 118128626
L152024249 118440200
L152024249 118985453
L151946356 119297026
L151790569 119452813
L151634782 119530706
L151323209 119530706
L151167422 119452813
L151011636 119297026
L150933742 118985453
L150933742 118440200
L151011636 118128626
L151167422 117972840
L151323209 117894946
" />
<path d="M152725289 119530706
L152725289 117894946
L153660009 119530706
L153660009 117894946
" />
<path d="M154361049 119452813
L154594729 119530706
L154984196 119530706
L155139982 119452813
L155217876 119374920
L155295769 119219133
L155295769 119063346
L155217876 118907560
L155139982 118829666
L154984196 118751773
L154672622 118673880
L154516836 118595986
L154438942 118518093
L154361049 118362306
L154361049 118206520
L154438942 118050733
L154516836 117972840
L154672622 117894946
L155062089 117894946
L155295769 117972840
" />
<path d="M157165209 119063346
L157944142 119063346
" />
<path d="M157009422 119530706
L157554676 117894946
L158099929 119530706
" />
<path d="M158411502 117894946
L159346222 117894946
" />
<path d="M158878862 119530706
L158878862 117894946
" />
<path d="M159657796 117894946
L160592516 117894946
" />
<path d="M160125156 119530706
L160125156 117894946
" />
<path d="M162072489 119530706
L161527236 118751773
" />
<path d="M161137769 119530706
L161137769 117894946
L161760916 117894946
L161916702 117972840
L161994596 118050733
L162072489 118206520
L162072489 118440200
L161994596 118595986
L161916702 118673880
L161760916 118751773
L161137769 118751773
" />
<path d="M162773529 119530706
L162773529 117894946
" />
<path d="M164097716 118673880
L164331396 118751773
L164409289 118829666
L164487182 118985453
L164487182 119219133
L164409289 119374920
L164331396 119452813
L164175609 119530706
L163552462 119530706
L163552462 117894946
L164097716 117894946
L164253502 117972840
L164331396 118050733
L164409289 118206520
L164409289 118362306
L164331396 118518093
L164253502 118595986
L164097716 118673880
L163552462 118673880
" />
<path d="M165188222 117894946
L165188222 119219133
L165266116 119374920
L165344009 119452813
L165499796 119530706
L165811369 119530706
L165967156 119452813
L166045049 119374920
L166122942 119219133
L166122942 117894946
" />
<path d="M166668196 117894946
L167602916 117894946
" />
<path d="M167135556 119530706
L167135556 117894946
" />
<path d="M168148169 119530706
L168148169 117894946
" />
<path d="M169238676 117894946
L169550249 117894946
L169706036 117972840
L169861822 118128626
L169939716 118440200
L169939716 118985453
L169861822 119297026
L169706036 119452813
L169550249 119530706
L169238676 119530706
L169082889 119452813
L168927102 119297026
L168849209 118985453
L168849209 118440200
L168927102 118128626
L169082889 117972840
L169238676 117894946
" />
<path d="M170640756 119530706
L170640756 117894946
L171575476 119530706
L171575476 117894946
" />
<path d="M173522809 119452813
L173756489 119530706
L174145956 119530706
L174301742 119452813
L174379636 119374920
L174457529 119219133
L174457529 119063346
L174379636 118907560
L174301742 118829666
L174145956 118751773
L173834382 118673880
L173678596 118595986
L173600702 118518093
L173522809 118362306
L173522809 118206520
L173600702 118050733
L173678596 117972840
L173834382 117894946
L174223849 117894946
L174457529 117972840
" />
<path d="M175158569 119530706
L175158569 117894946
" />
<path d="M175158569 118673880
L176093289 118673880
" />
<path d="M176093289 119530706
L176093289 117894946
" />
<path d="M176794329 119063346
L177573262 119063346
" />
<path d="M176638542 119530706
L177183796 117894946
L177729049 119530706
" />
<path d="M179209022 119530706
L178663769 118751773
" />
<path d="M178274302 119530706
L178274302 117894946
L178897449 117894946
L179053236 117972840
L179131129 118050733
L179209022 118206520
L179209022 118440200
L179131129 118595986
L179053236 118673880
L178897449 118751773
L178274302 118751773
" />
<path d="M179910062 118673880
L180455316 118673880
" />
<path d="M180688996 119530706
L179910062 119530706
L179910062 117894946
L180688996 117894946
" />
<path d="M181390036 118907560
L182636329 118907560
" />
<path d="M183337369 119063346
L184116302 119063346
" />
<path d="M183181582 119530706
L183726836 117894946
L184272089 119530706
" />
<path d="M185596276 119530706
L184817342 119530706
L184817342 117894946
" />
<path d="M186141529 119530706
L186141529 117894946
" />
<path d="M186920462 119530706
L186920462 117894946
" />
<path d="M187855182 119530706
L187154142 118595986
" />
<path d="M187855182 117894946
L186920462 118829666
" />
<path d="M188556222 118673880
L189101476 118673880
" />
<path d="M189335156 119530706
L188556222 119530706
L188556222 117894946
L189335156 117894946
" />
<path d="M191983529 118440200
L191983529 119530706
" />
<path d="M191594062 117817053
L191204596 118985453
L192217209 118985453
" />
<path d="M192840356 119374920
L192918249 119452813
L192840356 119530706
L192762462 119452813
L192840356 119374920
L192840356 119530706
" />
<path d="M193930862 117894946
L194086649 117894946
L194242436 117972840
L194320329 118050733
L194398222 118206520
L194476116 118518093
L194476116 118907560
L194398222 119219133
L194320329 119374920
L194242436 119452813
L194086649 119530706
L193930862 119530706
L193775076 119452813
L193697182 119374920
L193619289 119219133
L193541396 118907560
L193541396 118518093
L193619289 118206520
L193697182 118050733
L193775076 117972840
L193930862 117894946
" />
<path d="M197202382 119530706
L196423449 119530706
L196423449 117894946
" />
<path d="M197747636 119530706
L197747636 117894946
" />
<path d="M199461289 119374920
L199383396 119452813
L199149716 119530706
L198993929 119530706
L198760249 119452813
L198604462 119297026
L198526569 119141240
L198448676 118829666
L198448676 118595986
L198526569 118284413
L198604462 118128626
L198760249 117972840
L198993929 117894946
L199149716 117894946
L199383396 117972840
L199461289 118050733
" />
<path d="M200162329 118673880
L200707582 118673880
" />
<path d="M200941262 119530706
L200162329 119530706
L200162329 117894946
L200941262 117894946
" />
<path d="M201642302 119530706
L201642302 117894946
L202577022 119530706
L202577022 117894946
" />
<path d="M203278062 119452813
L203511742 119530706
L203901209 119530706
L204056996 119452813
L204134889 119374920
L204212782 119219133
L204212782 119063346
L204134889 118907560
L204056996 118829666
L203901209 118751773
L203589636 118673880
L203433849 118595986
L203355956 118518093
L203278062 118362306
L203278062 118206520
L203355956 118050733
L203433849 117972840
L203589636 117894946
L203979102 117894946
L204212782 117972840
" />
<path d="M204913822 118673880
L205459076 118673880
" />
<path d="M205692756 119530706
L204913822 119530706
L204913822 117894946
L205692756 117894946
" />
</g><text x="134531100.000000" y="124688600.000000"
textLength="17165659.000000" font-size="2181013.000000" lengthAdjust="spacingAndGlyphs"
text-anchor="start" opacity="0">DESIGNED BY:</text>
<g class="stroked-text"><desc>DESIGNED BY:</desc>
<path d="M135013022 124610706
L135013022 122974946
L135402489 122974946
L135636169 123052840
L135791956 123208626
L135869849 123364413
L135947742 123675986
L135947742 123909666
L135869849 124221240
L135791956 124377026
L135636169 124532813
L135402489 124610706
L135013022 124610706
" />
<path d="M136648782 123753880
L137194036 123753880
" />
<path d="M137427716 124610706
L136648782 124610706
L136648782 122974946
L137427716 122974946
" />
<path d="M138050862 124532813
L138284542 124610706
L138674009 124610706
L138829796 124532813
L138907689 124454920
L138985582 124299133
L138985582 124143346
L138907689 123987560
L138829796 123909666
L138674009 123831773
L138362436 123753880
L138206649 123675986
L138128756 123598093
L138050862 123442306
L138050862 123286520
L138128756 123130733
L138206649 123052840
L138362436 122974946
L138751902 122974946
L138985582 123052840
" />
<path d="M139686622 124610706
L139686622 122974946
" />
<path d="M141322382 123052840
L141166596 122974946
L140932916 122974946
L140699236 123052840
L140543449 123208626
L140465556 123364413
L140387662 123675986
L140387662 123909666
L140465556 124221240
L140543449 124377026
L140699236 124532813
L140932916 124610706
L141088702 124610706
L141322382 124532813
L141400276 124454920
L141400276 123909666
L141088702 123909666
" />
<path d="M142101316 124610706
L142101316 122974946
L143036036 124610706
L143036036 122974946
" />
<path d="M143814969 123753880
L144360222 123753880
" />
<path d="M144593902 124610706
L143814969 124610706
L143814969 122974946
L144593902 122974946
" />
<path d="M145294942 124610706
L145294942 122974946
L145684409 122974946
L145918089 123052840
L146073876 123208626
L146151769 123364413
L146229662 123675986
L146229662 123909666
L146151769 124221240
L146073876 124377026
L145918089 124532813
L145684409 124610706
L145294942 124610706
" />
<path d="M148722249 123753880
L148955929 123831773
L149033822 123909666
L149111716 124065453
L149111716 124299133
L149033822 124454920
L148955929 124532813
L148800142 124610706
L148176996 124610706
L148176996 122974946
L148722249 122974946
L148878036 123052840
L148955929 123130733
L149033822 123286520
L149033822 123442306
L148955929 123598093
L148878036 123675986
L148722249 123753880
L148176996 123753880
" />
<path d="M150124329 123831773
L150124329 124610706
" />
<path d="M149579076 122974946
L150124329 123831773
L150669582 122974946
" />
<path d="M151214836 124454920
L151292729 124532813
L151214836 124610706
L151136942 124532813
L151214836 124454920
L151214836 124610706
" />
<path d="M151214836 123598093
L151292729 123675986
L151214836 123753880
L151136942 123675986
L151214836 123598093
L151214836 123753880
" />
</g><text x="123101100.000000" y="122148600.000000"
textLength="72236245.000000" font-size="2181013.000000" lengthAdjust="spacingAndGlyphs"
text-anchor="start" opacity="0"> HTTPS://CREATIVECOMMONS.ORG/LICENSES/BY-SA/4.0/</text>
<g class="stroked-text"><desc> HTTPS://CREATIVECOMMONS.ORG/LICENSES/BY-SA/4.0/</desc>
<path d="M124829316 122070706
L124829316 120434946
" />
<path d="M124829316 121213880
L125764036 121213880
" />
<path d="M125764036 122070706
L125764036 120434946
" />
<path d="M126309289 120434946
L127244009 120434946
" />
<path d="M126776649 122070706
L126776649 120434946
" />
<path d="M127555582 120434946
L128490302 120434946
" />
<path d="M128022942 122070706
L128022942 120434946
" />
<path d="M129035556 122070706
L129035556 120434946
L129658702 120434946
L129814489 120512840
L129892382 120590733
L129970276 120746520
L129970276 120980200
L129892382 121135986
L129814489 121213880
L129658702 121291773
L129035556 121291773
" />
<path d="M130593422 121992813
L130827102 122070706
L131216569 122070706
L131372356 121992813
L131450249 121914920
L131528142 121759133
L131528142 121603346
L131450249 121447560
L131372356 121369666
L131216569 121291773
L130904996 121213880
L130749209 121135986
L130671316 121058093
L130593422 120902306
L130593422 120746520
L130671316 120590733
L130749209 120512840
L130904996 120434946
L131294462 120434946
L131528142 120512840
" />
<path d="M132229182 121914920
L132307076 121992813
L132229182 122070706
L132151289 121992813
L132229182 121914920
L132229182 122070706
" />
<path d="M132229182 121058093
L132307076 121135986
L132229182 121213880
L132151289 121135986
L132229182 121058093
L132229182 121213880
" />
<path d="M134176516 120357053
L132774436 122460173
" />
<path d="M135890169 120357053
L134488089 122460173
" />
<path d="M137370142 121914920
L137292249 121992813
L137058569 122070706
L136902782 122070706
L136669102 121992813
L136513316 121837026
L136435422 121681240
L136357529 121369666
L136357529 121135986
L136435422 120824413
L136513316 120668626
L136669102 120512840
L136902782 120434946
L137058569 120434946
L137292249 120512840
L137370142 120590733
" />
<path d="M139005902 122070706
L138460649 121291773
" />
<path d="M138071182 122070706
L138071182 120434946
L138694329 120434946
L138850116 120512840
L138928009 120590733
L139005902 120746520
L139005902 120980200
L138928009 121135986
L138850116 121213880
L138694329 121291773
L138071182 121291773
" />
<path d="M139706942 121213880
L140252196 121213880
" />
<path d="M140485876 122070706
L139706942 122070706
L139706942 120434946
L140485876 120434946
" />
<path d="M141109022 121603346
L141887956 121603346
" />
<path d="M140953236 122070706
L141498489 120434946
L142043742 122070706
" />
<path d="M142355316 120434946
L143290036 120434946
" />
<path d="M142822676 122070706
L142822676 120434946
" />
<path d="M143835289 122070706
L143835289 120434946
" />
<path d="M144380542 120434946
L144925796 122070706
L145471049 120434946
" />
<path d="M146016302 121213880
L146561556 121213880
" />
<path d="M146795236 122070706
L146016302 122070706
L146016302 120434946
L146795236 120434946
" />
<path d="M148430996 121914920
L148353102 121992813
L148119422 122070706
L147963636 122070706
L147729956 121992813
L147574169 121837026
L147496276 121681240
L147418382 121369666
L147418382 121135986
L147496276 120824413
L147574169 120668626
L147729956 120512840
L147963636 120434946
L148119422 120434946
L148353102 120512840
L148430996 120590733
" />
<path d="M149443609 120434946
L149755182 120434946
L149910969 120512840
L150066756 120668626
L150144649 120980200
L150144649 121525453
L150066756 121837026
L149910969 121992813
L149755182 122070706
L149443609 122070706
L149287822 121992813
L149132036 121837026
L149054142 121525453
L149054142 120980200
L149132036 120668626
L149287822 120512840
L149443609 120434946
" />
<path d="M150845689 122070706
L150845689 120434946
L151390942 121603346
L151936196 120434946
L151936196 122070706
" />
<path d="M152715129 122070706
L152715129 120434946
L153260382 121603346
L153805636 120434946
L153805636 122070706
" />
<path d="M154896142 120434946
L155207716 120434946
L155363502 120512840
L155519289 120668626
L155597182 120980200
L155597182 121525453
L155519289 121837026
L155363502 121992813
L155207716 122070706
L154896142 122070706
L154740356 121992813
L154584569 121837026
L154506676 121525453
L154506676 120980200
L154584569 120668626
L154740356 120512840
L154896142 120434946
" />
<path d="M156298222 122070706
L156298222 120434946
L157232942 122070706
L157232942 120434946
" />
<path d="M157933982 121992813
L158167662 122070706
L158557129 122070706
L158712916 121992813
L158790809 121914920
L158868702 121759133
L158868702 121603346
L158790809 121447560
L158712916 121369666
L158557129 121291773
L158245556 121213880
L158089769 121135986
L158011876 121058093
L157933982 120902306
L157933982 120746520
L158011876 120590733
L158089769 120512840
L158245556 120434946
L158635022 120434946
L158868702 120512840
" />
<path d="M159569742 121914920
L159647636 121992813
L159569742 122070706
L159491849 121992813
L159569742 121914920
L159569742 122070706
" />
<path d="M160660249 120434946
L160971822 120434946
L161127609 120512840
L161283396 120668626
L161361289 120980200
L161361289 121525453
L161283396 121837026
L161127609 121992813
L160971822 122070706
L160660249 122070706
L160504462 121992813
L160348676 121837026
L160270782 121525453
L160270782 120980200
L160348676 120668626
L160504462 120512840
L160660249 120434946
" />
<path d="M162997049 122070706
L162451796 121291773
" />
<path d="M162062329 122070706
L162062329 120434946
L162685476 120434946
L162841262 120512840
L162919156 120590733
L162997049 120746520
L162997049 120980200
L162919156 121135986
L162841262 121213880
L162685476 121291773
L162062329 121291773
" />
<path d="M164554916 120512840
L164399129 120434946
L164165449 120434946
L163931769 120512840
L163775982 120668626
L163698089 120824413
L163620196 121135986
L163620196 121369666
L163698089 121681240
L163775982 121837026
L163931769 121992813
L164165449 122070706
L164321236 122070706
L164554916 121992813
L164632809 121914920
L164632809 121369666
L164321236 121369666
" />
<path d="M166502249 120357053
L165100169 122460173
" />
<path d="M167826436 122070706
L167047502 122070706
L167047502 120434946
" />
<path d="M168371689 122070706
L168371689 120434946
" />
<path d="M170085342 121914920
L170007449 121992813
L169773769 122070706
L169617982 122070706
L169384302 121992813
L169228516 121837026
L169150622 121681240
L169072729 121369666
L169072729 121135986
L169150622 120824413
L169228516 120668626
L169384302 120512840
L169617982 120434946
L169773769 120434946
L170007449 120512840
L170085342 120590733
" />
<path d="M170786382 121213880
L171331636 121213880
" />
<path d="M171565316 122070706
L170786382 122070706
L170786382 120434946
L171565316 120434946
" />
<path d="M172266356 122070706
L172266356 120434946
L173201076 122070706
L173201076 120434946
" />
<path d="M173902116 121992813
L174135796 122070706
L174525262 122070706
L174681049 121992813
L174758942 121914920
L174836836 121759133
L174836836 121603346
L174758942 121447560
L174681049 121369666
L174525262 121291773
L174213689 121213880
L174057902 121135986
L173980009 121058093
L173902116 120902306
L173902116 120746520
L173980009 120590733
L174057902 120512840
L174213689 120434946
L174603156 120434946
L174836836 120512840
" />
<path d="M175537876 121213880
L176083129 121213880
" />
<path d="M176316809 122070706
L175537876 122070706
L175537876 120434946
L176316809 120434946
" />
<path d="M176939956 121992813
L177173636 122070706
L177563102 122070706
L177718889 121992813
L177796782 121914920
L177874676 121759133
L177874676 121603346
L177796782 121447560
L177718889 121369666
L177563102 121291773
L177251529 121213880
L177095742 121135986
L177017849 121058093
L176939956 120902306
L176939956 120746520
L177017849 120590733
L177095742 120512840
L177251529 120434946
L177640996 120434946
L177874676 120512840
" />
<path d="M179744116 120357053
L178342036 122460173
" />
<path d="M180834622 121213880
L181068302 121291773
L181146196 121369666
L181224089 121525453
L181224089 121759133
L181146196 121914920
L181068302 121992813
L180912516 122070706
L180289369 122070706
L180289369 120434946
L180834622 120434946
L180990409 120512840
L181068302 120590733
L181146196 120746520
L181146196 120902306
L181068302 121058093
L180990409 121135986
L180834622 121213880
L180289369 121213880
" />
<path d="M182236702 121291773
L182236702 122070706
" />
<path d="M181691449 120434946
L182236702 121291773
L182781956 120434946
" />
<path d="M183327209 121447560
L184573502 121447560
" />
<path d="M185274542 121992813
L185508222 122070706
L185897689 122070706
L186053476 121992813
L186131369 121914920
L186209262 121759133
L186209262 121603346
L186131369 121447560
L186053476 121369666
L185897689 121291773
L185586116 121213880
L185430329 121135986
L185352436 121058093
L185274542 120902306
L185274542 120746520
L185352436 120590733
L185430329 120512840
L185586116 120434946
L185975582 120434946
L186209262 120512840
" />
<path d="M186832409 121603346
L187611342 121603346
" />
<path d="M186676622 122070706
L187221876 120434946
L187767129 122070706
" />
<path d="M189480782 120357053
L188078702 122460173
" />
<path d="M190727076 120980200
L190727076 122070706
" />
<path d="M190337609 120357053
L189948142 121525453
L190960756 121525453
" />
<path d="M191583902 121914920
L191661796 121992813
L191583902 122070706
L191506009 121992813
L191583902 121914920
L191583902 122070706
" />
<path d="M192674409 120434946
L192830196 120434946
L192985982 120512840
L193063876 120590733
L193141769 120746520
L193219662 121058093
L193219662 121447560
L193141769 121759133
L193063876 121914920
L192985982 121992813
L192830196 122070706
L192674409 122070706
L192518622 121992813
L192440729 121914920
L192362836 121759133
L192284942 121447560
L192284942 121058093
L192362836 120746520
L192440729 120590733
L192518622 120512840
L192674409 120434946
" />
<path d="M195089102 120357053
L193687022 122460173
" />
</g></g>
<g style="fill:#AFAFAF; fill-opacity:0.0; 
stroke:#AFAFAF; stroke-width:97536.000000; stroke-opacity:1; 
stroke-linecap:round; stroke-linejoin:round;">
<text x="144691100.000000" y="113514632.000000"
textLength="1574800.000000" font-size="682752.000000" lengthAdjust="spacingAndGlyphs"
text-anchor="start" opacity="0">47k</text>
<g class="stroked-text"><desc>47k</desc>
<path d="M145095874 113148872
L145095874 113490248
" />
<path d="M144973954 112953800
L144852034 113319560
L145169026 113319560
" />
<path d="M145315330 112978184
L145656706 112978184
L145437250 113490248
" />
<path d="M145851778 113490248
L145851778 112978184
" />
<path d="M145900546 113295176
L146046850 113490248
" />
<path d="M146046850 113148872
L145851778 113343944
" />
</g><text x="148501100.000000" y="99036632.000000"
textLength="4540301.000000" font-size="682752.000000" lengthAdjust="spacingAndGlyphs"
text-anchor="start" opacity="0">STAND-OFF</text>
<g class="stroked-text"><desc>STAND-OFF</desc>
<path d="M148662034 98987864
L148735186 99012248
L148857106 99012248
L148905874 98987864
L148930258 98963480
L148954642 98914712
L148954642 98865944
L148930258 98817176
L148905874 98792792
L148857106 98768408
L148759570 98744024
L148710802 98719640
L148686418 98695256
L148662034 98646488
L148662034 98597720
L148686418 98548952
L148710802 98524568
L148759570 98500184
L148881490 98500184
L148954642 98524568
" />
<path d="M149100946 98500184
L149393554 98500184
" />
<path d="M149247250 99012248
L149247250 98500184
" />
<path d="M149539858 98865944
L149783698 98865944
" />
<path d="M149491090 99012248
L149661778 98500184
L149832466 99012248
" />
<path d="M150003154 99012248
L150003154 98500184
L150295762 99012248
L150295762 98500184
" />
<path d="M150539602 99012248
L150539602 98500184
L150661522 98500184
L150734674 98524568
L150783442 98573336
L150807826 98622104
L150832210 98719640
L150832210 98792792
L150807826 98890328
L150783442 98939096
L150734674 98987864
L150661522 99012248
L150539602 99012248
" />
<path d="M151051666 98817176
L151441810 98817176
" />
<path d="M151783186 98500184
L151880722 98500184
L151929490 98524568
L151978258 98573336
L152002642 98670872
L152002642 98841560
L151978258 98939096
L151929490 98987864
L151880722 99012248
L151783186 99012248
L151734418 98987864
L151685650 98939096
L151661266 98841560
L151661266 98670872
L151685650 98573336
L151734418 98524568
L151783186 98500184
" />
<path d="M152392786 98744024
L152222098 98744024
" />
<path d="M152222098 99012248
L152222098 98500184
L152465938 98500184
" />
<path d="M152831698 98744024
L152661010 98744024
" />
<path d="M152661010 99012248
L152661010 98500184
L152904850 98500184
" />
</g><text x="144691100.000000" y="116816632.000000"
textLength="126797.000000" font-size="682752.000000" lengthAdjust="spacingAndGlyphs"
text-anchor="start" opacity="0"></text>
<g class="stroked-text"><desc></desc>
</g><text x="152311100.000000" y="111990632.000000"
textLength="1511808.000000" font-size="682752.000000" lengthAdjust="spacingAndGlyphs"
text-anchor="end" opacity="0">24V</text>
<g class="stroked-text"><desc>24V</desc>
<path d="M150930965 111502952
L150955349 111478568
L151004117 111454184
L151126037 111454184
L151174805 111478568
L151199189 111502952
L151223573 111551720
L151223573 111600488
L151199189 111673640
L150906581 111966248
L151223573 111966248
" />
<path d="M151662485 111624872
L151662485 111966248
" />
<path d="M151540565 111429800
L151418645 111795560
L151735637 111795560
" />
<path d="M151857557 111454184
L152028245 111966248
L152198933 111454184
" />
</g><text x="148501100.000000" y="111990632.000000"
textLength="2248205.000000" font-size="682752.000000" lengthAdjust="spacingAndGlyphs"
text-anchor="end" opacity="0">0.1uF</text>
<g class="stroked-text"><desc>0.1uF</desc>
<path d="M146535749 111454184
L146584517 111454184
L146633285 111478568
L146657669 111502952
L146682053 111551720
L146706437 111649256
L146706437 111771176
L146682053 111868712
L146657669 111917480
L146633285 111941864
L146584517 111966248
L146535749 111966248
L146486981 111941864
L146462597 111917480
L146438213 111868712
L146413829 111771176
L146413829 111649256
L146438213 111551720
L146462597 111502952
L146486981 111478568
L146535749 111454184
" />
<path d="M146925893 111917480
L146950277 111941864
L146925893 111966248
L146901509 111941864
L146925893 111917480
L146925893 111966248
" />
<path d="M147437957 111966248
L147145349 111966248
" />
<path d="M147291653 111966248
L147291653 111454184
L147242885 111527336
L147194117 111576104
L147145349 111600488
" />
<path d="M147876869 111624872
L147876869 111966248
" />
<path d="M147657413 111624872
L147657413 111893096
L147681797 111941864
L147730565 111966248
L147803717 111966248
L147852485 111941864
L147876869 111917480
" />
<path d="M148291397 111698024
L148120709 111698024
" />
<path d="M148120709 111966248
L148120709 111454184
L148364549 111454184
" />
</g></g>
<g style="fill:#AFAFAF; fill-opacity:0.0; 
stroke:#AFAFAF; stroke-width:101600.000000; stroke-opacity:1; 
stroke-linecap:round; stroke-linejoin:round;">
<path d="M144335100 112064600
L145047100 112064600
" />
<path d="M144335100 112915600
L145047100 112915600
" />
</g>
<g style="fill:#AFAFAF; fill-opacity:1.0; 
stroke:#AFAFAF; stroke-width:1.000000; stroke-opacity:1; 
stroke-linecap:round; stroke-linejoin:round;">
<path style="fill:#AFAFAF; fill-opacity:1.0; 
stroke:#AFAFAF; stroke-width:1.000000; stroke-opacity:1; 
stroke-linecap:round; stroke-linejoin:round;fill-rule:evenodd;"
d="M 145521400.000000,112966500.000000
145021300.000000,112966500.000000
145021300.000000,112016500.000000
145521400.000000,112016500.000000
Z" /> 
<path style="fill:#AFAFAF; fill-opacity:1.0; 
stroke:#AFAFAF; stroke-width:1.000000; stroke-opacity:1; 
stroke-linecap:round; stroke-linejoin:round;fill-rule:evenodd;"
d="M 144353000.000000,112966500.000000
143852900.000000,112966500.000000
143852900.000000,112016500.000000
144353000.000000,112016500.000000
Z" /> 
<path style="fill:#AFAFAF; fill-opacity:1.0; 
stroke:#AFAFAF; stroke-width:1.000000; stroke-opacity:1; 
stroke-linecap:round; stroke-linejoin:round;fill-rule:evenodd;"
d="M 146215100.000000,114782600.000000
145707100.000000,114782600.000000
145707100.000000,114274600.000000
146215100.000000,114274600.000000
Z" /> 
<path style="fill:#AFAFAF; fill-opacity:1.0; 
stroke:#AFAFAF; stroke-width:1.000000; stroke-opacity:1; 
stroke-linecap:round; stroke-linejoin:round;fill-rule:evenodd;"
d="M 148755100.000000,114782600.000000
148247100.000000,114782600.000000
148247100.000000,114274600.000000
148755100.000000,114274600.000000
Z" /> 
<path style="fill:#AFAFAF; fill-opacity:1.0; 
stroke:#AFAFAF; stroke-width:1.000000; stroke-opacity:1; 
stroke-linecap:round; stroke-linejoin:round;fill-rule:evenodd;"
d="M 151295100.000000,114782600.000000
150787100.000000,114782600.000000
150787100.000000,114274600.000000
151295100.000000,114274600.000000
Z" /> 
</g>
<g style="fill:#AFAFAF; fill-opacity:1.0; 
stroke:#AFAFAF; stroke-width:101600.000000; stroke-opacity:1; 
stroke-linecap:round; stroke-linejoin:round;">
</g>
<g style="fill:#AFAFAF; fill-opacity:0.0; 
stroke:#AFAFAF; stroke-width:101600.000000; stroke-opacity:1; 
stroke-linecap:round; stroke-linejoin:round;">
<path d="M152667100 112077600
L151955100 112077600
" />
<path d="M152667100 112928600
L151955100 112928600
" />
</g>
<g style="fill:#AFAFAF; fill-opacity:1.0; 
stroke:#AFAFAF; stroke-width:1.000000; stroke-opacity:1; 
stroke-linecap:round; stroke-linejoin:round;">
<path style="fill:#AFAFAF; fill-opacity:1.0; 
stroke:#AFAFAF; stroke-width:1.000000; stroke-opacity:1; 
stroke-linecap:round; stroke-linejoin:round;fill-rule:evenodd;"
d="M 151980900.000000,112976700.000000
151480800.000000,112976700.000000
151480800.000000,112026700.000000
151980900.000000,112026700.000000
Z" /> 
<path style="fill:#AFAFAF; fill-opacity:1.0; 
stroke:#AFAFAF; stroke-width:1.000000; stroke-opacity:1; 
stroke-linecap:round; stroke-linejoin:round;fill-rule:evenodd;"
d="M 153149300.000000,112976700.000000
152649200.000000,112976700.000000
152649200.000000,112026700.000000
153149300.000000,112026700.000000
Z" /> 
</g>
<g style="fill:#AFAFAF; fill-opacity:1.0; 
stroke:#AFAFAF; stroke-width:101600.000000; stroke-opacity:1; 
stroke-linecap:round; stroke-linejoin:round;">
</g>
<g style="fill:#AFAFAF; fill-opacity:0.0; 
stroke:#AFAFAF; stroke-width:101600.000000; stroke-opacity:1; 
stroke-linecap:round; stroke-linejoin:round;">
<path d="M148857100 112077600
L148145100 112077600
" />
<path d="M148857100 112928600
L148145100 112928600
" />
</g>
<g style="fill:#AFAFAF; fill-opacity:1.0; 
stroke:#AFAFAF; stroke-width:1.000000; stroke-opacity:1; 
stroke-linecap:round; stroke-linejoin:round;">
<path style="fill:#AFAFAF; fill-opacity:1.0; 
stroke:#AFAFAF; stroke-width:1.000000; stroke-opacity:1; 
stroke-linecap:round; stroke-linejoin:round;fill-rule:evenodd;"
d="M 148170900.000000,112976700.000000
147670800.000000,112976700.000000
147670800.000000,112026700.000000
148170900.000000,112026700.000000
Z" /> 
<path style="fill:#AFAFAF; fill-opacity:1.0; 
stroke:#AFAFAF; stroke-width:1.000000; stroke-opacity:1; 
stroke-linecap:round; stroke-linejoin:round;fill-rule:evenodd;"
d="M 149339300.000000,112976700.000000
148839200.000000,112976700.000000
148839200.000000,112026700.000000
149339300.000000,112026700.000000
Z" /> 
<g >
</g>
<g >
</g>
<g >
</g>
<g >
</g>
<g >
</g>
<g >
</g>
<g >
</g>
<g >
</g>
<g >
</g>
<g >
</g>
<g >
</g>
<g >
</g>
<g >
</g>
<g >
</g>
<g >
</g>
<g >
</g>
<g >
</g>
<g >
</g>
<g >
</g>
<g >
</g>
<g >
</g>
<g >
</g>
<g >
</g>
<g >
</g>
<g >
</g>
<g >
</g>
</g>
<g style="fill:#000000; fill-opacity:1.0; 
stroke:#000000; stroke-width:1.000000; stroke-opacity:1; 
stroke-linecap:round; stroke-linejoin:round;">
</g>
<g style="fill:#D0D2CD; fill-opacity:1.0; 
stroke:#D0D2CD; stroke-width:1.000000; stroke-opacity:1; 
stroke-linecap:round; stroke-linejoin:round;">
</g>
<g style="fill:#D0D2CD; fill-opacity:1.0; 
stroke:#D0D2CD; stroke-width:203200.000000; stroke-opacity:1; 
stroke-linecap:round; stroke-linejoin:round;">
</g>
<g style="fill:#D0D2CD; fill-opacity:0.0; 
stroke:#D0D2CD; stroke-width:203200.000000; stroke-opacity:1; 
stroke-linecap:round; stroke-linejoin:round;">
<path d="M142151100 94208600
L142151100 115798600
" />
<path d="M154851100 94208600
L142151100 94208600
" />
<path d="M142151100 115798600
L154851100 115798600
" />
<path d="M154851100 115798600
L154851100 94208600
" />
<g >
</g>
<g >
</g>
<g >
</g>
<g >
</g>
<g >
</g>
<g >
</g>
<g >
</g>
<g >
</g>
<g >
</g>
<g >
</g>
<g >
</g>
<g >
</g>
<g >
</g>
<g >
</g>
<g >
</g>
<g >
</g>
<g >
</g>
<g >
</g>
<g >
</g>
<g >
</g>
<g >
</g>
<g >
</g>
<g >
</g>
<g >
</g>
<g >
</g>
<g >
</g>
</g> 
</svg>
