<?xml version="1.0" standalone="no"?>
 <!DOCTYPE svg PUBLIC "-//W3C//DTD SVG 1.1//EN" 
 "http://www.w3.org/Graphics/SVG/1.1/DTD/svg11.dtd"> 
<svg
  xmlns:svg="http://www.w3.org/2000/svg"
  xmlns="http://www.w3.org/2000/svg"
  xmlns:xlink="http://www.w3.org/1999/xlink"
  version="1.1"
  width="29.700220cm" height="21.000720cm" viewBox="0 0 297002200 210007200">
<title>SVG Picture created as boardKicad-B_Silkscreen.svg date 2022/08/21 15:38:53 </title>
  <desc>Picture generated by PCBNEW </desc>
<g style="fill:#000000; fill-opacity:1.000000;stroke:#000000; stroke-opacity:1.000000;
stroke-linecap:round; stroke-linejoin:round;"
 transform="translate(0 0) scale(1 1)">
</g>
<g style="fill:#000000; fill-opacity:0.0; 
stroke:#000000; stroke-width:0.000000; stroke-opacity:1; 
stroke-linecap:round; stroke-linejoin:round;">
</g>
<g style="fill:#000000; fill-opacity:0.0; 
stroke:#000000; stroke-width:21200.000000; stroke-opacity:1; 
stroke-linecap:round; stroke-linejoin:round;">
</g>
<g style="fill:#000000; fill-opacity:0.0; 
stroke:#000000; stroke-width:150000.000000; stroke-opacity:1; 
stroke-linecap:round; stroke-linejoin:round;">
<rect x="177002200.000000" y="166007200.000000" width="108000000.000000" height="32000000.000000" rx="0.000000" />
</g>
<g style="fill:#000000; fill-opacity:0.0; 
stroke:#000000; stroke-width:21200.000000; stroke-opacity:1; 
stroke-linecap:round; stroke-linejoin:round;">
</g>
<g style="fill:#000000; fill-opacity:0.0; 
stroke:#000000; stroke-width:150000.000000; stroke-opacity:1; 
stroke-linecap:round; stroke-linejoin:round;">
<rect x="10000000.000000" y="10000000.000000" width="277002200.000000" height="190007200.000000" rx="0.000000" />
</g>
<g style="fill:#000000; fill-opacity:0.0; 
stroke:#000000; stroke-width:21200.000000; stroke-opacity:1; 
stroke-linecap:round; stroke-linejoin:round;">
</g>
<g style="fill:#000000; fill-opacity:0.0; 
stroke:#000000; stroke-width:150000.000000; stroke-opacity:1; 
stroke-linecap:round; stroke-linejoin:round;">
<rect x="12000000.000000" y="12000000.000000" width="273002200.000000" height="186007200.000000" rx="0.000000" />
</g>
<g style="fill:#000000; fill-opacity:0.0; 
stroke:#000000; stroke-width:21200.000000; stroke-opacity:1; 
stroke-linecap:round; stroke-linejoin:round;">
</g>
<g style="fill:#000000; fill-opacity:0.0; 
stroke:#000000; stroke-width:150000.000000; stroke-opacity:1; 
stroke-linecap:round; stroke-linejoin:round;">
<path d="M60000000 12000000
L60000000 10000000
" />
</g>
<g style="fill:#000000; fill-opacity:0.0; 
stroke:#000000; stroke-width:21200.000000; stroke-opacity:1; 
stroke-linecap:round; stroke-linejoin:round;">
</g>
<g style="fill:#000000; fill-opacity:0.0; 
stroke:#000000; stroke-width:150000.000000; stroke-opacity:1; 
stroke-linecap:round; stroke-linejoin:round;">
<path d="M110000000 12000000
L110000000 10000000
" />
</g>
<g style="fill:#000000; fill-opacity:0.0; 
stroke:#000000; stroke-width:21200.000000; stroke-opacity:1; 
stroke-linecap:round; stroke-linejoin:round;">
</g>
<g style="fill:#000000; fill-opacity:0.0; 
stroke:#000000; stroke-width:150000.000000; stroke-opacity:1; 
stroke-linecap:round; stroke-linejoin:round;">
<path d="M160000000 12000000
L160000000 10000000
" />
</g>
<g style="fill:#000000; fill-opacity:0.0; 
stroke:#000000; stroke-width:21200.000000; stroke-opacity:1; 
stroke-linecap:round; stroke-linejoin:round;">
</g>
<g style="fill:#000000; fill-opacity:0.0; 
stroke:#000000; stroke-width:150000.000000; stroke-opacity:1; 
stroke-linecap:round; stroke-linejoin:round;">
<path d="M210000000 12000000
L210000000 10000000
" />
</g>
<g style="fill:#000000; fill-opacity:0.0; 
stroke:#000000; stroke-width:21200.000000; stroke-opacity:1; 
stroke-linecap:round; stroke-linejoin:round;">
</g>
<g style="fill:#000000; fill-opacity:0.0; 
stroke:#000000; stroke-width:150000.000000; stroke-opacity:1; 
stroke-linecap:round; stroke-linejoin:round;">
<path d="M260000000 12000000
L260000000 10000000
" />
</g>
<g style="fill:#000000; fill-opacity:0.0; 
stroke:#000000; stroke-width:21200.000000; stroke-opacity:1; 
stroke-linecap:round; stroke-linejoin:round;">
</g>
<g style="fill:#000000; fill-opacity:0.0; 
stroke:#000000; stroke-width:150000.000000; stroke-opacity:1; 
stroke-linecap:round; stroke-linejoin:round;">
<text x="35000000.000000" y="11650000.000000"
textLength="1388095.000000" font-size="1733333.000000" lengthAdjust="spacingAndGlyphs"
text-anchor="start" opacity="0">1</text>
<g class="stroked-text"><desc>1</desc>
<path d="M36065476 11588095
L35322619 11588095
" />
<path d="M35694047 11588095
L35694047 10288095
L35570238 10473809
L35446428 10597619
L35322619 10659523
" />
</g></g>
<g style="fill:#000000; fill-opacity:0.0; 
stroke:#000000; stroke-width:21200.000000; stroke-opacity:1; 
stroke-linecap:round; stroke-linejoin:round;">
</g>
<g style="fill:#000000; fill-opacity:0.0; 
stroke:#000000; stroke-width:150000.000000; stroke-opacity:1; 
stroke-linecap:round; stroke-linejoin:round;">
<text x="85000000.000000" y="11650000.000000"
textLength="1388095.000000" font-size="1733333.000000" lengthAdjust="spacingAndGlyphs"
text-anchor="start" opacity="0">2</text>
<g class="stroked-text"><desc>2</desc>
<path d="M85322619 10411904
L85384523 10350000
L85508333 10288095
L85817857 10288095
L85941666 10350000
L86003571 10411904
L86065476 10535714
L86065476 10659523
L86003571 10845238
L85260714 11588095
L86065476 11588095
" />
</g></g>
<g style="fill:#000000; fill-opacity:0.0; 
stroke:#000000; stroke-width:21200.000000; stroke-opacity:1; 
stroke-linecap:round; stroke-linejoin:round;">
</g>
<g style="fill:#000000; fill-opacity:0.0; 
stroke:#000000; stroke-width:150000.000000; stroke-opacity:1; 
stroke-linecap:round; stroke-linejoin:round;">
<text x="135000000.000000" y="11650000.000000"
textLength="1388095.000000" font-size="1733333.000000" lengthAdjust="spacingAndGlyphs"
text-anchor="start" opacity="0">3</text>
<g class="stroked-text"><desc>3</desc>
<path d="M135260714 10288095
L136065476 10288095
L135632142 10783333
L135817857 10783333
L135941666 10845238
L136003571 10907142
L136065476 11030952
L136065476 11340476
L136003571 11464285
L135941666 11526190
L135817857 11588095
L135446428 11588095
L135322619 11526190
L135260714 11464285
" />
</g></g>
<g style="fill:#000000; fill-opacity:0.0; 
stroke:#000000; stroke-width:21200.000000; stroke-opacity:1; 
stroke-linecap:round; stroke-linejoin:round;">
</g>
<g style="fill:#000000; fill-opacity:0.0; 
stroke:#000000; stroke-width:150000.000000; stroke-opacity:1; 
stroke-linecap:round; stroke-linejoin:round;">
<text x="185000000.000000" y="11650000.000000"
textLength="1388095.000000" font-size="1733333.000000" lengthAdjust="spacingAndGlyphs"
text-anchor="start" opacity="0">4</text>
<g class="stroked-text"><desc>4</desc>
<path d="M185941666 10721428
L185941666 11588095
" />
<path d="M185632142 10226190
L185322619 11154761
L186127380 11154761
" />
</g></g>
<g style="fill:#000000; fill-opacity:0.0; 
stroke:#000000; stroke-width:21200.000000; stroke-opacity:1; 
stroke-linecap:round; stroke-linejoin:round;">
</g>
<g style="fill:#000000; fill-opacity:0.0; 
stroke:#000000; stroke-width:150000.000000; stroke-opacity:1; 
stroke-linecap:round; stroke-linejoin:round;">
<text x="235000000.000000" y="11650000.000000"
textLength="1388095.000000" font-size="1733333.000000" lengthAdjust="spacingAndGlyphs"
text-anchor="start" opacity="0">5</text>
<g class="stroked-text"><desc>5</desc>
<path d="M236003571 10288095
L235384523 10288095
L235322619 10907142
L235384523 10845238
L235508333 10783333
L235817857 10783333
L235941666 10845238
L236003571 10907142
L236065476 11030952
L236065476 11340476
L236003571 11464285
L235941666 11526190
L235817857 11588095
L235508333 11588095
L235384523 11526190
L235322619 11464285
" />
</g></g>
<g style="fill:#000000; fill-opacity:0.0; 
stroke:#000000; stroke-width:21200.000000; stroke-opacity:1; 
stroke-linecap:round; stroke-linejoin:round;">
</g>
<g style="fill:#000000; fill-opacity:0.0; 
stroke:#000000; stroke-width:150000.000000; stroke-opacity:1; 
stroke-linecap:round; stroke-linejoin:round;">
<text x="285000000.000000" y="11650000.000000"
textLength="1388095.000000" font-size="1733333.000000" lengthAdjust="spacingAndGlyphs"
text-anchor="start" opacity="0">6</text>
<g class="stroked-text"><desc>6</desc>
<path d="M285941666 10288095
L285694047 10288095
L285570238 10350000
L285508333 10411904
L285384523 10597619
L285322619 10845238
L285322619 11340476
L285384523 11464285
L285446428 11526190
L285570238 11588095
L285817857 11588095
L285941666 11526190
L286003571 11464285
L286065476 11340476
L286065476 11030952
L286003571 10907142
L285941666 10845238
L285817857 10783333
L285570238 10783333
L285446428 10845238
L285384523 10907142
L285322619 11030952
" />
</g></g>
<g style="fill:#000000; fill-opacity:0.0; 
stroke:#000000; stroke-width:21200.000000; stroke-opacity:1; 
stroke-linecap:round; stroke-linejoin:round;">
</g>
<g style="fill:#000000; fill-opacity:0.0; 
stroke:#000000; stroke-width:150000.000000; stroke-opacity:1; 
stroke-linecap:round; stroke-linejoin:round;">
<path d="M60000000 198007200
L60000000 200007200
" />
</g>
<g style="fill:#000000; fill-opacity:0.0; 
stroke:#000000; stroke-width:21200.000000; stroke-opacity:1; 
stroke-linecap:round; stroke-linejoin:round;">
</g>
<g style="fill:#000000; fill-opacity:0.0; 
stroke:#000000; stroke-width:150000.000000; stroke-opacity:1; 
stroke-linecap:round; stroke-linejoin:round;">
<path d="M110000000 198007200
L110000000 200007200
" />
</g>
<g style="fill:#000000; fill-opacity:0.0; 
stroke:#000000; stroke-width:21200.000000; stroke-opacity:1; 
stroke-linecap:round; stroke-linejoin:round;">
</g>
<g style="fill:#000000; fill-opacity:0.0; 
stroke:#000000; stroke-width:150000.000000; stroke-opacity:1; 
stroke-linecap:round; stroke-linejoin:round;">
<path d="M160000000 198007200
L160000000 200007200
" />
</g>
<g style="fill:#000000; fill-opacity:0.0; 
stroke:#000000; stroke-width:21200.000000; stroke-opacity:1; 
stroke-linecap:round; stroke-linejoin:round;">
</g>
<g style="fill:#000000; fill-opacity:0.0; 
stroke:#000000; stroke-width:150000.000000; stroke-opacity:1; 
stroke-linecap:round; stroke-linejoin:round;">
<path d="M210000000 198007200
L210000000 200007200
" />
</g>
<g style="fill:#000000; fill-opacity:0.0; 
stroke:#000000; stroke-width:21200.000000; stroke-opacity:1; 
stroke-linecap:round; stroke-linejoin:round;">
</g>
<g style="fill:#000000; fill-opacity:0.0; 
stroke:#000000; stroke-width:150000.000000; stroke-opacity:1; 
stroke-linecap:round; stroke-linejoin:round;">
<path d="M260000000 198007200
L260000000 200007200
" />
</g>
<g style="fill:#000000; fill-opacity:0.0; 
stroke:#000000; stroke-width:21200.000000; stroke-opacity:1; 
stroke-linecap:round; stroke-linejoin:round;">
</g>
<g style="fill:#000000; fill-opacity:0.0; 
stroke:#000000; stroke-width:150000.000000; stroke-opacity:1; 
stroke-linecap:round; stroke-linejoin:round;">
<text x="35000000.000000" y="199657200.000000"
textLength="1388095.000000" font-size="1733333.000000" lengthAdjust="spacingAndGlyphs"
text-anchor="start" opacity="0">1</text>
<g class="stroked-text"><desc>1</desc>
<path d="M36065476 199595295
L35322619 199595295
" />
<path d="M35694047 199595295
L35694047 198295295
L35570238 198481009
L35446428 198604819
L35322619 198666723
" />
</g></g>
<g style="fill:#000000; fill-opacity:0.0; 
stroke:#000000; stroke-width:21200.000000; stroke-opacity:1; 
stroke-linecap:round; stroke-linejoin:round;">
</g>
<g style="fill:#000000; fill-opacity:0.0; 
stroke:#000000; stroke-width:150000.000000; stroke-opacity:1; 
stroke-linecap:round; stroke-linejoin:round;">
<text x="85000000.000000" y="199657200.000000"
textLength="1388095.000000" font-size="1733333.000000" lengthAdjust="spacingAndGlyphs"
text-anchor="start" opacity="0">2</text>
<g class="stroked-text"><desc>2</desc>
<path d="M85322619 198419104
L85384523 198357200
L85508333 198295295
L85817857 198295295
L85941666 198357200
L86003571 198419104
L86065476 198542914
L86065476 198666723
L86003571 198852438
L85260714 199595295
L86065476 199595295
" />
</g></g>
<g style="fill:#000000; fill-opacity:0.0; 
stroke:#000000; stroke-width:21200.000000; stroke-opacity:1; 
stroke-linecap:round; stroke-linejoin:round;">
</g>
<g style="fill:#000000; fill-opacity:0.0; 
stroke:#000000; stroke-width:150000.000000; stroke-opacity:1; 
stroke-linecap:round; stroke-linejoin:round;">
<text x="135000000.000000" y="199657200.000000"
textLength="1388095.000000" font-size="1733333.000000" lengthAdjust="spacingAndGlyphs"
text-anchor="start" opacity="0">3</text>
<g class="stroked-text"><desc>3</desc>
<path d="M135260714 198295295
L136065476 198295295
L135632142 198790533
L135817857 198790533
L135941666 198852438
L136003571 198914342
L136065476 199038152
L136065476 199347676
L136003571 199471485
L135941666 199533390
L135817857 199595295
L135446428 199595295
L135322619 199533390
L135260714 199471485
" />
</g></g>
<g style="fill:#000000; fill-opacity:0.0; 
stroke:#000000; stroke-width:21200.000000; stroke-opacity:1; 
stroke-linecap:round; stroke-linejoin:round;">
</g>
<g style="fill:#000000; fill-opacity:0.0; 
stroke:#000000; stroke-width:150000.000000; stroke-opacity:1; 
stroke-linecap:round; stroke-linejoin:round;">
<text x="185000000.000000" y="199657200.000000"
textLength="1388095.000000" font-size="1733333.000000" lengthAdjust="spacingAndGlyphs"
text-anchor="start" opacity="0">4</text>
<g class="stroked-text"><desc>4</desc>
<path d="M185941666 198728628
L185941666 199595295
" />
<path d="M185632142 198233390
L185322619 199161961
L186127380 199161961
" />
</g></g>
<g style="fill:#000000; fill-opacity:0.0; 
stroke:#000000; stroke-width:21200.000000; stroke-opacity:1; 
stroke-linecap:round; stroke-linejoin:round;">
</g>
<g style="fill:#000000; fill-opacity:0.0; 
stroke:#000000; stroke-width:150000.000000; stroke-opacity:1; 
stroke-linecap:round; stroke-linejoin:round;">
<text x="235000000.000000" y="199657200.000000"
textLength="1388095.000000" font-size="1733333.000000" lengthAdjust="spacingAndGlyphs"
text-anchor="start" opacity="0">5</text>
<g class="stroked-text"><desc>5</desc>
<path d="M236003571 198295295
L235384523 198295295
L235322619 198914342
L235384523 198852438
L235508333 198790533
L235817857 198790533
L235941666 198852438
L236003571 198914342
L236065476 199038152
L236065476 199347676
L236003571 199471485
L235941666 199533390
L235817857 199595295
L235508333 199595295
L235384523 199533390
L235322619 199471485
" />
</g></g>
<g style="fill:#000000; fill-opacity:0.0; 
stroke:#000000; stroke-width:21200.000000; stroke-opacity:1; 
stroke-linecap:round; stroke-linejoin:round;">
</g>
<g style="fill:#000000; fill-opacity:0.0; 
stroke:#000000; stroke-width:150000.000000; stroke-opacity:1; 
stroke-linecap:round; stroke-linejoin:round;">
<text x="285000000.000000" y="199657200.000000"
textLength="1388095.000000" font-size="1733333.000000" lengthAdjust="spacingAndGlyphs"
text-anchor="start" opacity="0">6</text>
<g class="stroked-text"><desc>6</desc>
<path d="M285941666 198295295
L285694047 198295295
L285570238 198357200
L285508333 198419104
L285384523 198604819
L285322619 198852438
L285322619 199347676
L285384523 199471485
L285446428 199533390
L285570238 199595295
L285817857 199595295
L285941666 199533390
L286003571 199471485
L286065476 199347676
L286065476 199038152
L286003571 198914342
L285941666 198852438
L285817857 198790533
L285570238 198790533
L285446428 198852438
L285384523 198914342
L285322619 199038152
" />
</g></g>
<g style="fill:#000000; fill-opacity:0.0; 
stroke:#000000; stroke-width:21200.000000; stroke-opacity:1; 
stroke-linecap:round; stroke-linejoin:round;">
</g>
<g style="fill:#000000; fill-opacity:0.0; 
stroke:#000000; stroke-width:150000.000000; stroke-opacity:1; 
stroke-linecap:round; stroke-linejoin:round;">
<path d="M10000000 60000000
L12000000 60000000
" />
</g>
<g style="fill:#000000; fill-opacity:0.0; 
stroke:#000000; stroke-width:21200.000000; stroke-opacity:1; 
stroke-linecap:round; stroke-linejoin:round;">
</g>
<g style="fill:#000000; fill-opacity:0.0; 
stroke:#000000; stroke-width:150000.000000; stroke-opacity:1; 
stroke-linecap:round; stroke-linejoin:round;">
<path d="M10000000 110000000
L12000000 110000000
" />
</g>
<g style="fill:#000000; fill-opacity:0.0; 
stroke:#000000; stroke-width:21200.000000; stroke-opacity:1; 
stroke-linecap:round; stroke-linejoin:round;">
</g>
<g style="fill:#000000; fill-opacity:0.0; 
stroke:#000000; stroke-width:150000.000000; stroke-opacity:1; 
stroke-linecap:round; stroke-linejoin:round;">
<path d="M10000000 160000000
L12000000 160000000
" />
</g>
<g style="fill:#000000; fill-opacity:0.0; 
stroke:#000000; stroke-width:21200.000000; stroke-opacity:1; 
stroke-linecap:round; stroke-linejoin:round;">
</g>
<g style="fill:#000000; fill-opacity:0.0; 
stroke:#000000; stroke-width:150000.000000; stroke-opacity:1; 
stroke-linecap:round; stroke-linejoin:round;">
<text x="11000000.000000" y="35650000.000000"
textLength="1264286.000000" font-size="1733333.000000" lengthAdjust="spacingAndGlyphs"
text-anchor="middle" opacity="0">A</text>
<g class="stroked-text"><desc>A</desc>
<path d="M10690476 35216666
L11309523 35216666
" />
<path d="M10566666 35588095
L11000000 34288095
L11433333 35588095
" />
</g></g>
<g style="fill:#000000; fill-opacity:0.0; 
stroke:#000000; stroke-width:21200.000000; stroke-opacity:1; 
stroke-linecap:round; stroke-linejoin:round;">
</g>
<g style="fill:#000000; fill-opacity:0.0; 
stroke:#000000; stroke-width:150000.000000; stroke-opacity:1; 
stroke-linecap:round; stroke-linejoin:round;">
<text x="11000000.000000" y="85650000.000000"
textLength="1450000.000000" font-size="1733333.000000" lengthAdjust="spacingAndGlyphs"
text-anchor="middle" opacity="0">B</text>
<g class="stroked-text"><desc>B</desc>
<path d="M11092857 84907142
L11278571 84969047
L11340476 85030952
L11402380 85154761
L11402380 85340476
L11340476 85464285
L11278571 85526190
L11154761 85588095
L10659523 85588095
L10659523 84288095
L11092857 84288095
L11216666 84350000
L11278571 84411904
L11340476 84535714
L11340476 84659523
L11278571 84783333
L11216666 84845238
L11092857 84907142
L10659523 84907142
" />
</g></g>
<g style="fill:#000000; fill-opacity:0.0; 
stroke:#000000; stroke-width:21200.000000; stroke-opacity:1; 
stroke-linecap:round; stroke-linejoin:round;">
</g>
<g style="fill:#000000; fill-opacity:0.0; 
stroke:#000000; stroke-width:150000.000000; stroke-opacity:1; 
stroke-linecap:round; stroke-linejoin:round;">
<text x="11000000.000000" y="135650000.000000"
textLength="1450000.000000" font-size="1733333.000000" lengthAdjust="spacingAndGlyphs"
text-anchor="middle" opacity="0">C</text>
<g class="stroked-text"><desc>C</desc>
<path d="M11402380 135464285
L11340476 135526190
L11154761 135588095
L11030952 135588095
L10845238 135526190
L10721428 135402380
L10659523 135278571
L10597619 135030952
L10597619 134845238
L10659523 134597619
L10721428 134473809
L10845238 134350000
L11030952 134288095
L11154761 134288095
L11340476 134350000
L11402380 134411904
" />
</g></g>
<g style="fill:#000000; fill-opacity:0.0; 
stroke:#000000; stroke-width:21200.000000; stroke-opacity:1; 
stroke-linecap:round; stroke-linejoin:round;">
</g>
<g style="fill:#000000; fill-opacity:0.0; 
stroke:#000000; stroke-width:150000.000000; stroke-opacity:1; 
stroke-linecap:round; stroke-linejoin:round;">
<text x="11000000.000000" y="185650000.000000"
textLength="1450000.000000" font-size="1733333.000000" lengthAdjust="spacingAndGlyphs"
text-anchor="middle" opacity="0">D</text>
<g class="stroked-text"><desc>D</desc>
<path d="M10659523 185588095
L10659523 184288095
L10969047 184288095
L11154761 184350000
L11278571 184473809
L11340476 184597619
L11402380 184845238
L11402380 185030952
L11340476 185278571
L11278571 185402380
L11154761 185526190
L10969047 185588095
L10659523 185588095
" />
</g></g>
<g style="fill:#000000; fill-opacity:0.0; 
stroke:#000000; stroke-width:21200.000000; stroke-opacity:1; 
stroke-linecap:round; stroke-linejoin:round;">
</g>
<g style="fill:#000000; fill-opacity:0.0; 
stroke:#000000; stroke-width:150000.000000; stroke-opacity:1; 
stroke-linecap:round; stroke-linejoin:round;">
<path d="M287002200 60000000
L285002200 60000000
" />
</g>
<g style="fill:#000000; fill-opacity:0.0; 
stroke:#000000; stroke-width:21200.000000; stroke-opacity:1; 
stroke-linecap:round; stroke-linejoin:round;">
</g>
<g style="fill:#000000; fill-opacity:0.0; 
stroke:#000000; stroke-width:150000.000000; stroke-opacity:1; 
stroke-linecap:round; stroke-linejoin:round;">
<path d="M287002200 110000000
L285002200 110000000
" />
</g>
<g style="fill:#000000; fill-opacity:0.0; 
stroke:#000000; stroke-width:21200.000000; stroke-opacity:1; 
stroke-linecap:round; stroke-linejoin:round;">
</g>
<g style="fill:#000000; fill-opacity:0.0; 
stroke:#000000; stroke-width:150000.000000; stroke-opacity:1; 
stroke-linecap:round; stroke-linejoin:round;">
<path d="M287002200 160000000
L285002200 160000000
" />
</g>
<g style="fill:#000000; fill-opacity:0.0; 
stroke:#000000; stroke-width:21200.000000; stroke-opacity:1; 
stroke-linecap:round; stroke-linejoin:round;">
</g>
<g style="fill:#000000; fill-opacity:0.0; 
stroke:#000000; stroke-width:150000.000000; stroke-opacity:1; 
stroke-linecap:round; stroke-linejoin:round;">
<text x="286002200.000000" y="35650000.000000"
textLength="1264286.000000" font-size="1733333.000000" lengthAdjust="spacingAndGlyphs"
text-anchor="middle" opacity="0">A</text>
<g class="stroked-text"><desc>A</desc>
<path d="M285692676 35216666
L286311723 35216666
" />
<path d="M285568866 35588095
L286002200 34288095
L286435533 35588095
" />
</g></g>
<g style="fill:#000000; fill-opacity:0.0; 
stroke:#000000; stroke-width:21200.000000; stroke-opacity:1; 
stroke-linecap:round; stroke-linejoin:round;">
</g>
<g style="fill:#000000; fill-opacity:0.0; 
stroke:#000000; stroke-width:150000.000000; stroke-opacity:1; 
stroke-linecap:round; stroke-linejoin:round;">
<text x="286002200.000000" y="85650000.000000"
textLength="1450000.000000" font-size="1733333.000000" lengthAdjust="spacingAndGlyphs"
text-anchor="middle" opacity="0">B</text>
<g class="stroked-text"><desc>B</desc>
<path d="M286095057 84907142
L286280771 84969047
L286342676 85030952
L286404580 85154761
L286404580 85340476
L286342676 85464285
L286280771 85526190
L286156961 85588095
L285661723 85588095
L285661723 84288095
L286095057 84288095
L286218866 84350000
L286280771 84411904
L286342676 84535714
L286342676 84659523
L286280771 84783333
L286218866 84845238
L286095057 84907142
L285661723 84907142
" />
</g></g>
<g style="fill:#000000; fill-opacity:0.0; 
stroke:#000000; stroke-width:21200.000000; stroke-opacity:1; 
stroke-linecap:round; stroke-linejoin:round;">
</g>
<g style="fill:#000000; fill-opacity:0.0; 
stroke:#000000; stroke-width:150000.000000; stroke-opacity:1; 
stroke-linecap:round; stroke-linejoin:round;">
<text x="286002200.000000" y="135650000.000000"
textLength="1450000.000000" font-size="1733333.000000" lengthAdjust="spacingAndGlyphs"
text-anchor="middle" opacity="0">C</text>
<g class="stroked-text"><desc>C</desc>
<path d="M286404580 135464285
L286342676 135526190
L286156961 135588095
L286033152 135588095
L285847438 135526190
L285723628 135402380
L285661723 135278571
L285599819 135030952
L285599819 134845238
L285661723 134597619
L285723628 134473809
L285847438 134350000
L286033152 134288095
L286156961 134288095
L286342676 134350000
L286404580 134411904
" />
</g></g>
<g style="fill:#000000; fill-opacity:0.0; 
stroke:#000000; stroke-width:21200.000000; stroke-opacity:1; 
stroke-linecap:round; stroke-linejoin:round;">
</g>
<g style="fill:#000000; fill-opacity:0.0; 
stroke:#000000; stroke-width:150000.000000; stroke-opacity:1; 
stroke-linecap:round; stroke-linejoin:round;">
<text x="286002200.000000" y="185650000.000000"
textLength="1450000.000000" font-size="1733333.000000" lengthAdjust="spacingAndGlyphs"
text-anchor="middle" opacity="0">D</text>
<g class="stroked-text"><desc>D</desc>
<path d="M285661723 185588095
L285661723 184288095
L285971247 184288095
L286156961 184350000
L286280771 184473809
L286342676 184597619
L286404580 184845238
L286404580 185030952
L286342676 185278571
L286280771 185402380
L286156961 185526190
L285971247 185588095
L285661723 185588095
" />
</g></g>
<g style="fill:#000000; fill-opacity:0.0; 
stroke:#000000; stroke-width:21200.000000; stroke-opacity:1; 
stroke-linecap:round; stroke-linejoin:round;">
</g>
<g style="fill:#000000; fill-opacity:0.0; 
stroke:#000000; stroke-width:150000.000000; stroke-opacity:1; 
stroke-linecap:round; stroke-linejoin:round;">
<text x="200002200.000000" y="193857200.000000"
textLength="7007143.000000" font-size="2000000.000000" lengthAdjust="spacingAndGlyphs"
text-anchor="start" opacity="0">Date: </text>
<g class="stroked-text"><desc>Date: </desc>
<path d="M200434342 193785771
L200434342 192285771
L200791485 192285771
L201005771 192357200
L201148628 192500057
L201220057 192642914
L201291485 192928628
L201291485 193142914
L201220057 193428628
L201148628 193571485
L201005771 193714342
L200791485 193785771
L200434342 193785771
" />
<path d="M202577200 193785771
L202577200 193000057
L202505771 192857200
L202362914 192785771
L202077200 192785771
L201934342 192857200
" />
<path d="M202577200 193714342
L202434342 193785771
L202077200 193785771
L201934342 193714342
L201862914 193571485
L201862914 193428628
L201934342 193285771
L202077200 193214342
L202434342 193214342
L202577200 193142914
" />
<path d="M203077200 192785771
L203648628 192785771
" />
<path d="M203291485 192285771
L203291485 193571485
L203362914 193714342
L203505771 193785771
L203648628 193785771
" />
<path d="M204720057 193714342
L204577200 193785771
L204291485 193785771
L204148628 193714342
L204077200 193571485
L204077200 193000057
L204148628 192857200
L204291485 192785771
L204577200 192785771
L204720057 192857200
L204791485 193000057
L204791485 193142914
L204077200 193285771
" />
<path d="M205434342 193642914
L205505771 193714342
L205434342 193785771
L205362914 193714342
L205434342 193642914
L205434342 193785771
" />
<path d="M205434342 192857200
L205505771 192928628
L205434342 193000057
L205362914 192928628
L205434342 192857200
L205434342 193000057
" />
</g></g>
<g style="fill:#000000; fill-opacity:0.0; 
stroke:#000000; stroke-width:21200.000000; stroke-opacity:1; 
stroke-linecap:round; stroke-linejoin:round;">
</g>
<g style="fill:#000000; fill-opacity:0.0; 
stroke:#000000; stroke-width:150000.000000; stroke-opacity:1; 
stroke-linecap:round; stroke-linejoin:round;">
<path d="M177002200 194507200
L285002200 194507200
" />
</g>
<g style="fill:#000000; fill-opacity:0.0; 
stroke:#000000; stroke-width:21200.000000; stroke-opacity:1; 
stroke-linecap:round; stroke-linejoin:round;">
</g>
<g style="fill:#000000; fill-opacity:0.0; 
stroke:#000000; stroke-width:150000.000000; stroke-opacity:1; 
stroke-linecap:round; stroke-linejoin:round;">
<text x="178002200.000000" y="196657200.000000"
textLength="33364286.000000" font-size="2000000.000000" lengthAdjust="spacingAndGlyphs"
text-anchor="start" opacity="0">KiCad E.D.A.  pcbnew (6.0.6)</text>
<g class="stroked-text"><desc>KiCad E.D.A.  pcbnew (6.0.6)</desc>
<path d="M178434342 196585771
L178434342 195085771
" />
<path d="M179291485 196585771
L178648628 195728628
" />
<path d="M179291485 195085771
L178434342 195942914
" />
<path d="M179934342 196585771
L179934342 195585771
" />
<path d="M179934342 195085771
L179862914 195157200
L179934342 195228628
L180005771 195157200
L179934342 195085771
L179934342 195228628
" />
<path d="M181505771 196442914
L181434342 196514342
L181220057 196585771
L181077200 196585771
L180862914 196514342
L180720057 196371485
L180648628 196228628
L180577200 195942914
L180577200 195728628
L180648628 195442914
L180720057 195300057
L180862914 195157200
L181077200 195085771
L181220057 195085771
L181434342 195157200
L181505771 195228628
" />
<path d="M182791485 196585771
L182791485 195800057
L182720057 195657200
L182577200 195585771
L182291485 195585771
L182148628 195657200
" />
<path d="M182791485 196514342
L182648628 196585771
L182291485 196585771
L182148628 196514342
L182077200 196371485
L182077200 196228628
L182148628 196085771
L182291485 196014342
L182648628 196014342
L182791485 195942914
" />
<path d="M184148628 196585771
L184148628 195085771
" />
<path d="M184148628 196514342
L184005771 196585771
L183720057 196585771
L183577200 196514342
L183505771 196442914
L183434342 196300057
L183434342 195871485
L183505771 195728628
L183577200 195657200
L183720057 195585771
L184005771 195585771
L184148628 195657200
" />
<path d="M186005771 195800057
L186505771 195800057
" />
<path d="M186720057 196585771
L186005771 196585771
L186005771 195085771
L186720057 195085771
" />
<path d="M187362914 196442914
L187434342 196514342
L187362914 196585771
L187291485 196514342
L187362914 196442914
L187362914 196585771
" />
<path d="M188077200 196585771
L188077200 195085771
L188434342 195085771
L188648628 195157200
L188791485 195300057
L188862914 195442914
L188934342 195728628
L188934342 195942914
L188862914 196228628
L188791485 196371485
L188648628 196514342
L188434342 196585771
L188077200 196585771
" />
<path d="M189577200 196442914
L189648628 196514342
L189577200 196585771
L189505771 196514342
L189577200 196442914
L189577200 196585771
" />
<path d="M190220057 196157200
L190934342 196157200
" />
<path d="M190077200 196585771
L190577200 195085771
L191077200 196585771
" />
<path d="M191577200 196442914
L191648628 196514342
L191577200 196585771
L191505771 196514342
L191577200 196442914
L191577200 196585771
" />
<path d="M194577200 195585771
L194577200 197085771
" />
<path d="M194577200 195657200
L194720057 195585771
L195005771 195585771
L195148628 195657200
L195220057 195728628
L195291485 195871485
L195291485 196300057
L195220057 196442914
L195148628 196514342
L195005771 196585771
L194720057 196585771
L194577200 196514342
" />
<path d="M196577200 196514342
L196434342 196585771
L196148628 196585771
L196005771 196514342
L195934342 196442914
L195862914 196300057
L195862914 195871485
L195934342 195728628
L196005771 195657200
L196148628 195585771
L196434342 195585771
L196577200 195657200
" />
<path d="M197220057 196585771
L197220057 195085771
" />
<path d="M197220057 195657200
L197362914 195585771
L197648628 195585771
L197791485 195657200
L197862914 195728628
L197934342 195871485
L197934342 196300057
L197862914 196442914
L197791485 196514342
L197648628 196585771
L197362914 196585771
L197220057 196514342
" />
<path d="M198577200 195585771
L198577200 196585771
" />
<path d="M198577200 195728628
L198648628 195657200
L198791485 195585771
L199005771 195585771
L199148628 195657200
L199220057 195800057
L199220057 196585771
" />
<path d="M200505771 196514342
L200362914 196585771
L200077200 196585771
L199934342 196514342
L199862914 196371485
L199862914 195800057
L199934342 195657200
L200077200 195585771
L200362914 195585771
L200505771 195657200
L200577200 195800057
L200577200 195942914
L199862914 196085771
" />
<path d="M201077200 195585771
L201362914 196585771
L201648628 195871485
L201934342 196585771
L202220057 195585771
" />
<path d="M204362914 197157200
L204291485 197085771
L204148628 196871485
L204077200 196728628
L204005771 196514342
L203934342 196157200
L203934342 195871485
L204005771 195514342
L204077200 195300057
L204148628 195157200
L204291485 194942914
L204362914 194871485
" />
<path d="M205577200 195085771
L205291485 195085771
L205148628 195157200
L205077200 195228628
L204934342 195442914
L204862914 195728628
L204862914 196300057
L204934342 196442914
L205005771 196514342
L205148628 196585771
L205434342 196585771
L205577200 196514342
L205648628 196442914
L205720057 196300057
L205720057 195942914
L205648628 195800057
L205577200 195728628
L205434342 195657200
L205148628 195657200
L205005771 195728628
L204934342 195800057
L204862914 195942914
" />
<path d="M206362914 196442914
L206434342 196514342
L206362914 196585771
L206291485 196514342
L206362914 196442914
L206362914 196585771
" />
<path d="M207362914 195085771
L207505771 195085771
L207648628 195157200
L207720057 195228628
L207791485 195371485
L207862914 195657200
L207862914 196014342
L207791485 196300057
L207720057 196442914
L207648628 196514342
L207505771 196585771
L207362914 196585771
L207220057 196514342
L207148628 196442914
L207077200 196300057
L207005771 196014342
L207005771 195657200
L207077200 195371485
L207148628 195228628
L207220057 195157200
L207362914 195085771
" />
<path d="M208505771 196442914
L208577200 196514342
L208505771 196585771
L208434342 196514342
L208505771 196442914
L208505771 196585771
" />
<path d="M209862914 195085771
L209577200 195085771
L209434342 195157200
L209362914 195228628
L209220057 195442914
L209148628 195728628
L209148628 196300057
L209220057 196442914
L209291485 196514342
L209434342 196585771
L209720057 196585771
L209862914 196514342
L209934342 196442914
L210005771 196300057
L210005771 195942914
L209934342 195800057
L209862914 195728628
L209720057 195657200
L209434342 195657200
L209291485 195728628
L209220057 195800057
L209148628 195942914
" />
<path d="M210505771 197157200
L210577200 197085771
L210720057 196871485
L210791485 196728628
L210862914 196514342
L210934342 196157200
L210934342 195871485
L210862914 195514342
L210791485 195300057
L210720057 195157200
L210577200 194942914
L210505771 194871485
" />
</g></g>
<g style="fill:#000000; fill-opacity:0.0; 
stroke:#000000; stroke-width:21200.000000; stroke-opacity:1; 
stroke-linecap:round; stroke-linejoin:round;">
</g>
<g style="fill:#000000; fill-opacity:0.0; 
stroke:#000000; stroke-width:150000.000000; stroke-opacity:1; 
stroke-linecap:round; stroke-linejoin:round;">
<path d="M177002200 191507200
L285002200 191507200
" />
</g>
<g style="fill:#000000; fill-opacity:0.0; 
stroke:#000000; stroke-width:21200.000000; stroke-opacity:1; 
stroke-linecap:round; stroke-linejoin:round;">
</g>
<g style="fill:#000000; fill-opacity:0.0; 
stroke:#000000; stroke-width:300000.000000; stroke-opacity:1; 
stroke-linecap:round; stroke-linejoin:round;">
<text x="263002200.000000" y="193857200.000000"
textLength="5935714.000000" font-size="2000000.000000" lengthAdjust="spacingAndGlyphs"
text-anchor="start" opacity="0">Rev: </text>
<g class="stroked-text"><desc>Rev: </desc>
<path d="M264411485 193785771
L263911485 193071485
" />
<path d="M263554342 193785771
L263554342 192285771
L264125771 192285771
L264268628 192357200
L264340057 192428628
L264411485 192571485
L264411485 192785771
L264340057 192928628
L264268628 193000057
L264125771 193071485
L263554342 193071485
" />
<path d="M265625771 193714342
L265482914 193785771
L265197200 193785771
L265054342 193714342
L264982914 193571485
L264982914 193000057
L265054342 192857200
L265197200 192785771
L265482914 192785771
L265625771 192857200
L265697200 193000057
L265697200 193142914
L264982914 193285771
" />
<path d="M266197200 192785771
L266554342 193785771
L266911485 192785771
" />
<path d="M267482914 193642914
L267554342 193714342
L267482914 193785771
L267411485 193714342
L267482914 193642914
L267482914 193785771
" />
<path d="M267482914 192857200
L267554342 192928628
L267482914 193000057
L267411485 192928628
L267482914 192857200
L267482914 193000057
" />
</g></g>
<g style="fill:#000000; fill-opacity:0.0; 
stroke:#000000; stroke-width:21200.000000; stroke-opacity:1; 
stroke-linecap:round; stroke-linejoin:round;">
</g>
<g style="fill:#000000; fill-opacity:0.0; 
stroke:#000000; stroke-width:150000.000000; stroke-opacity:1; 
stroke-linecap:round; stroke-linejoin:round;">
<text x="178002200.000000" y="193857200.000000"
textLength="9604286.000000" font-size="2000000.000000" lengthAdjust="spacingAndGlyphs"
text-anchor="start" opacity="0">Size: A4</text>
<g class="stroked-text"><desc>Size: A4</desc>
<path d="M178362914 193714342
L178577200 193785771
L178934342 193785771
L179077200 193714342
L179148628 193642914
L179220057 193500057
L179220057 193357200
L179148628 193214342
L179077200 193142914
L178934342 193071485
L178648628 193000057
L178505771 192928628
L178434342 192857200
L178362914 192714342
L178362914 192571485
L178434342 192428628
L178505771 192357200
L178648628 192285771
L179005771 192285771
L179220057 192357200
" />
<path d="M179862914 193785771
L179862914 192785771
" />
<path d="M179862914 192285771
L179791485 192357200
L179862914 192428628
L179934342 192357200
L179862914 192285771
L179862914 192428628
" />
<path d="M180434342 192785771
L181220057 192785771
L180434342 193785771
L181220057 193785771
" />
<path d="M182362914 193714342
L182220057 193785771
L181934342 193785771
L181791485 193714342
L181720057 193571485
L181720057 193000057
L181791485 192857200
L181934342 192785771
L182220057 192785771
L182362914 192857200
L182434342 193000057
L182434342 193142914
L181720057 193285771
" />
<path d="M183077200 193642914
L183148628 193714342
L183077200 193785771
L183005771 193714342
L183077200 193642914
L183077200 193785771
" />
<path d="M183077200 192857200
L183148628 192928628
L183077200 193000057
L183005771 192928628
L183077200 192857200
L183077200 193000057
" />
<path d="M184862914 193357200
L185577200 193357200
" />
<path d="M184720057 193785771
L185220057 192285771
L185720057 193785771
" />
<path d="M186862914 192785771
L186862914 193785771
" />
<path d="M186505771 192214342
L186148628 193285771
L187077200 193285771
" />
</g></g>
<g style="fill:#000000; fill-opacity:0.0; 
stroke:#000000; stroke-width:21200.000000; stroke-opacity:1; 
stroke-linecap:round; stroke-linejoin:round;">
</g>
<g style="fill:#000000; fill-opacity:0.0; 
stroke:#000000; stroke-width:150000.000000; stroke-opacity:1; 
stroke-linecap:round; stroke-linejoin:round;">
<text x="263002200.000000" y="196657200.000000"
textLength="8507143.000000" font-size="2000000.000000" lengthAdjust="spacingAndGlyphs"
text-anchor="start" opacity="0">Id: 1/1</text>
<g class="stroked-text"><desc>Id: 1/1</desc>
<path d="M263434342 196585771
L263434342 195085771
" />
<path d="M264791485 196585771
L264791485 195085771
" />
<path d="M264791485 196514342
L264648628 196585771
L264362914 196585771
L264220057 196514342
L264148628 196442914
L264077200 196300057
L264077200 195871485
L264148628 195728628
L264220057 195657200
L264362914 195585771
L264648628 195585771
L264791485 195657200
" />
<path d="M265505771 196442914
L265577200 196514342
L265505771 196585771
L265434342 196514342
L265505771 196442914
L265505771 196585771
" />
<path d="M265505771 195657200
L265577200 195728628
L265505771 195800057
L265434342 195728628
L265505771 195657200
L265505771 195800057
" />
<path d="M268148628 196585771
L267291485 196585771
" />
<path d="M267720057 196585771
L267720057 195085771
L267577200 195300057
L267434342 195442914
L267291485 195514342
" />
<path d="M269862914 195014342
L268577200 196942914
" />
<path d="M271148628 196585771
L270291485 196585771
" />
<path d="M270720057 196585771
L270720057 195085771
L270577200 195300057
L270434342 195442914
L270291485 195514342
" />
</g></g>
<g style="fill:#000000; fill-opacity:0.0; 
stroke:#000000; stroke-width:21200.000000; stroke-opacity:1; 
stroke-linecap:round; stroke-linejoin:round;">
</g>
<g style="fill:#000000; fill-opacity:0.0; 
stroke:#000000; stroke-width:150000.000000; stroke-opacity:1; 
stroke-linecap:round; stroke-linejoin:round;">
<path d="M177002200 187507200
L285002200 187507200
" />
</g>
<g style="fill:#000000; fill-opacity:0.0; 
stroke:#000000; stroke-width:21200.000000; stroke-opacity:1; 
stroke-linecap:round; stroke-linejoin:round;">
</g>
<g style="fill:#000000; fill-opacity:0.0; 
stroke:#000000; stroke-width:400000.000000; stroke-opacity:1; 
stroke-linecap:round; stroke-linejoin:round;">
<text x="178002200.000000" y="190307200.000000"
textLength="9409643.000000" font-size="2666666.000000" lengthAdjust="spacingAndGlyphs"
text-anchor="start" opacity="0">Title: </text>
<g class="stroked-text"><desc>Title: </desc>
<path d="M178714580 188211961
L179857438 188211961
" />
<path d="M179036009 190211961
L179286009 188211961
" />
<path d="M180274104 190211961
L180440771 188878628
" />
<path d="M180524104 188211961
L180416961 188307200
L180500295 188402438
L180607438 188307200
L180524104 188211961
L180500295 188402438
" />
<path d="M181107438 188878628
L181869342 188878628
" />
<path d="M181476485 188211961
L181262200 189926247
L181333628 190116723
L181512200 190211961
L181702676 190211961
" />
<path d="M182655057 190211961
L182476485 190116723
L182405057 189926247
L182619342 188211961
" />
<path d="M184190771 190116723
L183988390 190211961
L183607438 190211961
L183428866 190116723
L183357438 189926247
L183452676 189164342
L183571723 188973866
L183774104 188878628
L184155057 188878628
L184333628 188973866
L184405057 189164342
L184381247 189354819
L183405057 189545295
" />
<path d="M185155057 190021485
L185238390 190116723
L185131247 190211961
L185047914 190116723
L185155057 190021485
L185131247 190211961
" />
<path d="M185286009 188973866
L185369342 189069104
L185262200 189164342
L185178866 189069104
L185286009 188973866
L185262200 189164342
" />
</g></g>
<g style="fill:#000000; fill-opacity:0.0; 
stroke:#000000; stroke-width:21200.000000; stroke-opacity:1; 
stroke-linecap:round; stroke-linejoin:round;">
</g>
<g style="fill:#000000; fill-opacity:0.0; 
stroke:#000000; stroke-width:150000.000000; stroke-opacity:1; 
stroke-linecap:round; stroke-linejoin:round;">
<text x="178002200.000000" y="186457200.000000"
textLength="30805714.000000" font-size="2000000.000000" lengthAdjust="spacingAndGlyphs"
text-anchor="start" opacity="0">File: boardKicad.kicad_pcb</text>
<g class="stroked-text"><desc>File: boardKicad.kicad_pcb</desc>
<path d="M178934342 185600057
L178434342 185600057
" />
<path d="M178434342 186385771
L178434342 184885771
L179148628 184885771
" />
<path d="M179720057 186385771
L179720057 185385771
" />
<path d="M179720057 184885771
L179648628 184957200
L179720057 185028628
L179791485 184957200
L179720057 184885771
L179720057 185028628
" />
<path d="M180648628 186385771
L180505771 186314342
L180434342 186171485
L180434342 184885771
" />
<path d="M181791485 186314342
L181648628 186385771
L181362914 186385771
L181220057 186314342
L181148628 186171485
L181148628 185600057
L181220057 185457200
L181362914 185385771
L181648628 185385771
L181791485 185457200
L181862914 185600057
L181862914 185742914
L181148628 185885771
" />
<path d="M182505771 186242914
L182577200 186314342
L182505771 186385771
L182434342 186314342
L182505771 186242914
L182505771 186385771
" />
<path d="M182505771 185457200
L182577200 185528628
L182505771 185600057
L182434342 185528628
L182505771 185457200
L182505771 185600057
" />
<path d="M184362914 186385771
L184362914 184885771
" />
<path d="M184362914 185457200
L184505771 185385771
L184791485 185385771
L184934342 185457200
L185005771 185528628
L185077200 185671485
L185077200 186100057
L185005771 186242914
L184934342 186314342
L184791485 186385771
L184505771 186385771
L184362914 186314342
" />
<path d="M185934342 186385771
L185791485 186314342
L185720057 186242914
L185648628 186100057
L185648628 185671485
L185720057 185528628
L185791485 185457200
L185934342 185385771
L186148628 185385771
L186291485 185457200
L186362914 185528628
L186434342 185671485
L186434342 186100057
L186362914 186242914
L186291485 186314342
L186148628 186385771
L185934342 186385771
" />
<path d="M187720057 186385771
L187720057 185600057
L187648628 185457200
L187505771 185385771
L187220057 185385771
L187077200 185457200
" />
<path d="M187720057 186314342
L187577200 186385771
L187220057 186385771
L187077200 186314342
L187005771 186171485
L187005771 186028628
L187077200 185885771
L187220057 185814342
L187577200 185814342
L187720057 185742914
" />
<path d="M188434342 186385771
L188434342 185385771
" />
<path d="M188434342 185671485
L188505771 185528628
L188577200 185457200
L188720057 185385771
L188862914 185385771
" />
<path d="M190005771 186385771
L190005771 184885771
" />
<path d="M190005771 186314342
L189862914 186385771
L189577200 186385771
L189434342 186314342
L189362914 186242914
L189291485 186100057
L189291485 185671485
L189362914 185528628
L189434342 185457200
L189577200 185385771
L189862914 185385771
L190005771 185457200
" />
<path d="M190720057 186385771
L190720057 184885771
" />
<path d="M191577200 186385771
L190934342 185528628
" />
<path d="M191577200 184885771
L190720057 185742914
" />
<path d="M192220057 186385771
L192220057 185385771
" />
<path d="M192220057 184885771
L192148628 184957200
L192220057 185028628
L192291485 184957200
L192220057 184885771
L192220057 185028628
" />
<path d="M193577200 186314342
L193434342 186385771
L193148628 186385771
L193005771 186314342
L192934342 186242914
L192862914 186100057
L192862914 185671485
L192934342 185528628
L193005771 185457200
L193148628 185385771
L193434342 185385771
L193577200 185457200
" />
<path d="M194862914 186385771
L194862914 185600057
L194791485 185457200
L194648628 185385771
L194362914 185385771
L194220057 185457200
" />
<path d="M194862914 186314342
L194720057 186385771
L194362914 186385771
L194220057 186314342
L194148628 186171485
L194148628 186028628
L194220057 185885771
L194362914 185814342
L194720057 185814342
L194862914 185742914
" />
<path d="M196220057 186385771
L196220057 184885771
" />
<path d="M196220057 186314342
L196077200 186385771
L195791485 186385771
L195648628 186314342
L195577200 186242914
L195505771 186100057
L195505771 185671485
L195577200 185528628
L195648628 185457200
L195791485 185385771
L196077200 185385771
L196220057 185457200
" />
<path d="M196934342 186242914
L197005771 186314342
L196934342 186385771
L196862914 186314342
L196934342 186242914
L196934342 186385771
" />
<path d="M197648628 186385771
L197648628 184885771
" />
<path d="M197791485 185814342
L198220057 186385771
" />
<path d="M198220057 185385771
L197648628 185957200
" />
<path d="M198862914 186385771
L198862914 185385771
" />
<path d="M198862914 184885771
L198791485 184957200
L198862914 185028628
L198934342 184957200
L198862914 184885771
L198862914 185028628
" />
<path d="M200220057 186314342
L200077200 186385771
L199791485 186385771
L199648628 186314342
L199577200 186242914
L199505771 186100057
L199505771 185671485
L199577200 185528628
L199648628 185457200
L199791485 185385771
L200077200 185385771
L200220057 185457200
" />
<path d="M201505771 186385771
L201505771 185600057
L201434342 185457200
L201291485 185385771
L201005771 185385771
L200862914 185457200
" />
<path d="M201505771 186314342
L201362914 186385771
L201005771 186385771
L200862914 186314342
L200791485 186171485
L200791485 186028628
L200862914 185885771
L201005771 185814342
L201362914 185814342
L201505771 185742914
" />
<path d="M202862914 186385771
L202862914 184885771
" />
<path d="M202862914 186314342
L202720057 186385771
L202434342 186385771
L202291485 186314342
L202220057 186242914
L202148628 186100057
L202148628 185671485
L202220057 185528628
L202291485 185457200
L202434342 185385771
L202720057 185385771
L202862914 185457200
" />
<path d="M203220057 186528628
L204362914 186528628
" />
<path d="M204720057 185385771
L204720057 186885771
" />
<path d="M204720057 185457200
L204862914 185385771
L205148628 185385771
L205291485 185457200
L205362914 185528628
L205434342 185671485
L205434342 186100057
L205362914 186242914
L205291485 186314342
L205148628 186385771
L204862914 186385771
L204720057 186314342
" />
<path d="M206720057 186314342
L206577200 186385771
L206291485 186385771
L206148628 186314342
L206077200 186242914
L206005771 186100057
L206005771 185671485
L206077200 185528628
L206148628 185457200
L206291485 185385771
L206577200 185385771
L206720057 185457200
" />
<path d="M207362914 186385771
L207362914 184885771
" />
<path d="M207362914 185457200
L207505771 185385771
L207791485 185385771
L207934342 185457200
L208005771 185528628
L208077200 185671485
L208077200 186100057
L208005771 186242914
L207934342 186314342
L207791485 186385771
L207505771 186385771
L207362914 186314342
" />
</g></g>
<g style="fill:#000000; fill-opacity:0.0; 
stroke:#000000; stroke-width:21200.000000; stroke-opacity:1; 
stroke-linecap:round; stroke-linejoin:round;">
</g>
<g style="fill:#000000; fill-opacity:0.0; 
stroke:#000000; stroke-width:150000.000000; stroke-opacity:1; 
stroke-linecap:round; stroke-linejoin:round;">
<path d="M177002200 181507200
L285002200 181507200
" />
</g>
<g style="fill:#000000; fill-opacity:0.0; 
stroke:#000000; stroke-width:21200.000000; stroke-opacity:1; 
stroke-linecap:round; stroke-linejoin:round;">
</g>
<g style="fill:#000000; fill-opacity:0.0; 
stroke:#000000; stroke-width:150000.000000; stroke-opacity:1; 
stroke-linecap:round; stroke-linejoin:round;">
<text x="178002200.000000" y="183757200.000000"
textLength="8221429.000000" font-size="2000000.000000" lengthAdjust="spacingAndGlyphs"
text-anchor="start" opacity="0">Sheet: </text>
<g class="stroked-text"><desc>Sheet: </desc>
<path d="M178362914 183614342
L178577200 183685771
L178934342 183685771
L179077200 183614342
L179148628 183542914
L179220057 183400057
L179220057 183257200
L179148628 183114342
L179077200 183042914
L178934342 182971485
L178648628 182900057
L178505771 182828628
L178434342 182757200
L178362914 182614342
L178362914 182471485
L178434342 182328628
L178505771 182257200
L178648628 182185771
L179005771 182185771
L179220057 182257200
" />
<path d="M179862914 183685771
L179862914 182185771
" />
<path d="M180505771 183685771
L180505771 182900057
L180434342 182757200
L180291485 182685771
L180077200 182685771
L179934342 182757200
L179862914 182828628
" />
<path d="M181791485 183614342
L181648628 183685771
L181362914 183685771
L181220057 183614342
L181148628 183471485
L181148628 182900057
L181220057 182757200
L181362914 182685771
L181648628 182685771
L181791485 182757200
L181862914 182900057
L181862914 183042914
L181148628 183185771
" />
<path d="M183077200 183614342
L182934342 183685771
L182648628 183685771
L182505771 183614342
L182434342 183471485
L182434342 182900057
L182505771 182757200
L182648628 182685771
L182934342 182685771
L183077200 182757200
L183148628 182900057
L183148628 183042914
L182434342 183185771
" />
<path d="M183577200 182685771
L184148628 182685771
" />
<path d="M183791485 182185771
L183791485 183471485
L183862914 183614342
L184005771 183685771
L184148628 183685771
" />
<path d="M184648628 183542914
L184720057 183614342
L184648628 183685771
L184577200 183614342
L184648628 183542914
L184648628 183685771
" />
<path d="M184648628 182757200
L184720057 182828628
L184648628 182900057
L184577200 182828628
L184648628 182757200
L184648628 182900057
" />
</g></g>
<g style="fill:#000000; fill-opacity:0.0; 
stroke:#000000; stroke-width:21200.000000; stroke-opacity:1; 
stroke-linecap:round; stroke-linejoin:round;">
</g>
<g style="fill:#000000; fill-opacity:0.0; 
stroke:#000000; stroke-width:300000.000000; stroke-opacity:1; 
stroke-linecap:round; stroke-linejoin:round;">
<text x="178002200.000000" y="180757200.000000"
textLength="150000.000000" font-size="2000000.000000" lengthAdjust="spacingAndGlyphs"
text-anchor="start" opacity="0"></text>
<g class="stroked-text"><desc></desc>
</g></g>
<g style="fill:#000000; fill-opacity:0.0; 
stroke:#000000; stroke-width:21200.000000; stroke-opacity:1; 
stroke-linecap:round; stroke-linejoin:round;">
</g>
<g style="fill:#000000; fill-opacity:0.0; 
stroke:#000000; stroke-width:150000.000000; stroke-opacity:1; 
stroke-linecap:round; stroke-linejoin:round;">
<text x="178002200.000000" y="177757200.000000"
textLength="300000.000000" font-size="2000000.000000" lengthAdjust="spacingAndGlyphs"
text-anchor="start" opacity="0"></text>
<g class="stroked-text"><desc></desc>
</g></g>
<g style="fill:#000000; fill-opacity:0.0; 
stroke:#000000; stroke-width:21200.000000; stroke-opacity:1; 
stroke-linecap:round; stroke-linejoin:round;">
</g>
<g style="fill:#000000; fill-opacity:0.0; 
stroke:#000000; stroke-width:150000.000000; stroke-opacity:1; 
stroke-linecap:round; stroke-linejoin:round;">
<text x="178002200.000000" y="174757200.000000"
textLength="150000.000000" font-size="2000000.000000" lengthAdjust="spacingAndGlyphs"
text-anchor="start" opacity="0"></text>
<g class="stroked-text"><desc></desc>
</g></g>
<g style="fill:#000000; fill-opacity:0.0; 
stroke:#000000; stroke-width:21200.000000; stroke-opacity:1; 
stroke-linecap:round; stroke-linejoin:round;">
</g>
<g style="fill:#000000; fill-opacity:0.0; 
stroke:#000000; stroke-width:150000.000000; stroke-opacity:1; 
stroke-linecap:round; stroke-linejoin:round;">
<text x="178002200.000000" y="171757200.000000"
textLength="150000.000000" font-size="2000000.000000" lengthAdjust="spacingAndGlyphs"
text-anchor="start" opacity="0"></text>
<g class="stroked-text"><desc></desc>
</g></g>
<g style="fill:#000000; fill-opacity:0.0; 
stroke:#000000; stroke-width:21200.000000; stroke-opacity:1; 
stroke-linecap:round; stroke-linejoin:round;">
</g>
<g style="fill:#000000; fill-opacity:0.0; 
stroke:#000000; stroke-width:150000.000000; stroke-opacity:1; 
stroke-linecap:round; stroke-linejoin:round;">
<text x="178002200.000000" y="168757200.000000"
textLength="150000.000000" font-size="2000000.000000" lengthAdjust="spacingAndGlyphs"
text-anchor="start" opacity="0"></text>
<g class="stroked-text"><desc></desc>
</g></g>
<g style="fill:#000000; fill-opacity:0.0; 
stroke:#000000; stroke-width:21200.000000; stroke-opacity:1; 
stroke-linecap:round; stroke-linejoin:round;">
</g>
<g style="fill:#000000; fill-opacity:0.0; 
stroke:#000000; stroke-width:150000.000000; stroke-opacity:1; 
stroke-linecap:round; stroke-linejoin:round;">
<path d="M197002200 191507200
L197002200 194507200
" />
</g>
<g style="fill:#000000; fill-opacity:0.0; 
stroke:#000000; stroke-width:21200.000000; stroke-opacity:1; 
stroke-linecap:round; stroke-linejoin:round;">
</g>
<g style="fill:#000000; fill-opacity:0.0; 
stroke:#000000; stroke-width:150000.000000; stroke-opacity:1; 
stroke-linecap:round; stroke-linejoin:round;">
<path d="M261002200 191507200
L261002200 198007200
" />
</g>
<g style="fill:#E8B2A7; fill-opacity:0.0; 
stroke:#E8B2A7; stroke-width:150000.000000; stroke-opacity:1; 
stroke-linecap:round; stroke-linejoin:round;">
</g>
<g style="fill:#E8B2A7; fill-opacity:0.0; 
stroke:#E8B2A7; stroke-width:254000.000000; stroke-opacity:1; 
stroke-linecap:round; stroke-linejoin:round;">
<path d="M151866600 108051600
L152184100 108369100
" />
<path d="M153136600 108051600
L151866600 108051600
" />
<path d="M154152600 105130600
L153835100 105448100
" />
<path d="M154152600 105130600
L154470100 105448100
" />
<path d="M154152600 106400600
L154152600 105130600
" />
<path d="M151866600 108051600
L152184100 107734100
" />
</g>
<g style="fill:#E8B2A7; fill-opacity:1.0; 
stroke:#E8B2A7; stroke-width:1.000000; stroke-opacity:1; 
stroke-linecap:round; stroke-linejoin:round;">
<path style="fill:#E8B2A7; fill-opacity:1.0; 
stroke:#E8B2A7; stroke-width:1.000000; stroke-opacity:1; 
stroke-linecap:round; stroke-linejoin:round;fill-rule:evenodd;"
d="M 148491467.000000,109758708.000000
148549192.000000,109739466.000000
149162828.000000,109437678.000000
149186100.000000,109472586.000000
149186100.000000,113727485.000000
149132063.000000,113749100.000000
147838010.000000,113749100.000000
147816100.000000,113705280.000000
147816100.000000,109426064.000000
Z" /> 
<path style="fill:#E8B2A7; fill-opacity:1.0; 
stroke:#E8B2A7; stroke-width:1.000000; stroke-opacity:1; 
stroke-linecap:round; stroke-linejoin:round;fill-rule:evenodd;"
d="M 146646100.000000,109960186.000000
146646100.000000,113685600.000000
145286864.000000,113685600.000000
145276100.000000,113621014.000000
145276100.000000,109895600.000000
146635336.000000,109895600.000000
Z" /> 
<path style="fill:#E8B2A7; fill-opacity:1.0; 
stroke:#E8B2A7; stroke-width:1.000000; stroke-opacity:1; 
stroke-linecap:round; stroke-linejoin:round;fill-rule:evenodd;"
d="M 145108200.000000,101840226.000000
145117239.000000,101912539.000000
145144672.000000,101976549.000000
145171413.000000,102030031.000000
145203727.000000,102062345.000000
145243497.000000,102086207.000000
145295602.000000,102094891.000000
145369314.000000,102104105.000000
145423248.000000,102095116.000000
145466158.000000,102086534.000000
145504097.000000,102063771.000000
145554045.000000,101997173.000000
145562391.000000,101947098.000000
145582000.000000,101790226.000000
145582000.000000,100954500.000000
146038200.000000,100954500.000000
146038200.000000,101996035.000000
146017205.000000,102111509.000000
145985408.000000,102217498.000000
145930085.000000,102317079.000000
145851970.000000,102384035.000000
145755961.000000,102437373.000000
145638121.000000,102480224.000000
145488300.000000,102490926.000000
145424250.000000,102480251.000000
145351311.000000,102469831.000000
145286990.000000,102448391.000000
145234479.000000,102427386.000000
145169451.000000,102394873.000000
145112993.000000,102349707.000000
145088200.000000,102318715.000000
145088200.000000,102450700.000000
144642000.000000,102450700.000000
144642000.000000,100954500.000000
145108200.000000,100954500.000000
Z" /> 
<path style="fill:#E8B2A7; fill-opacity:1.0; 
stroke:#E8B2A7; stroke-width:1.000000; stroke-opacity:1; 
stroke-linecap:round; stroke-linejoin:round;fill-rule:evenodd;"
d="M 151973499.000000,100946208.000000
152081900.000000,101011248.000000
152135549.000000,101054167.000000
152152000.000000,101070618.000000
152152000.000000,100946125.000000
152298461.000000,100975418.000000
152338457.000000,100985417.000000
152388461.000000,100995418.000000
152424789.000000,101004500.000000
152473873.000000,101004500.000000
152528461.000000,101015418.000000
152598200.000000,101032852.000000
152598200.000000,102930912.000000
152535551.000000,102981031.000000
152445549.000000,103071033.000000
152295551.000000,103191031.000000
152142000.000000,103344582.000000
152142000.000000,102328715.000000
152115574.000000,102361748.000000
152008448.000000,102426023.000000
151942015.000000,102459240.000000
151750728.000000,102491121.000000
151591481.000000,102469888.000000
151462459.000000,102426880.000000
151345273.000000,102341655.000000
151249280.000000,102245661.000000
151167289.000000,102095345.000000
151579577.000000,101901326.000000
151623081.000000,102002836.000000
151657448.000000,102045795.000000
151707796.000000,102087752.000000
151777104.000000,102105079.000000
151850364.000000,102114236.000000
151932711.000000,102105087.000000
151991893.000000,102088177.000000
152044377.000000,102044441.000000
152087972.000000,102000846.000000
152113878.000000,101940399.000000
152152000.000000,101787911.000000
152152000.000000,101624974.000000
152142850.000000,101551776.000000
152114731.000000,101476791.000000
152087272.000000,101412720.000000
152043295.000000,101359948.000000
152001039.000000,101326143.000000
151930924.000000,101299850.000000
151859836.000000,101290964.000000
151779917.000000,101299844.000000
151718325.000000,101326240.000000
151665832.000000,101361236.000000
151622928.000000,101412720.000000
151595469.000000,101476791.000000
151567350.000000,101551776.000000
151558200.000000,101624974.000000
151558200.000000,101749736.000000
151089305.000000,101761759.000000
151102268.000000,101567314.000000
151133195.000000,101422988.000000
151175197.000000,101286482.000000
151249659.000000,101169470.000000
151345259.000000,101063248.000000
151463255.000000,100988159.000000
151612277.000000,100934937.000000
151768831.000000,100924500.000000
151843253.000000,100924500.000000
Z" /> 
<path style="fill:#E8B2A7; fill-opacity:1.0; 
stroke:#E8B2A7; stroke-width:1.000000; stroke-opacity:1; 
stroke-linecap:round; stroke-linejoin:round;fill-rule:evenodd;"
d="M 150364897.000000,101544799.000000
150593226.000000,101570168.000000
150486357.000000,101850700.000000
150431106.000000,101850700.000000
150411105.000000,101840700.000000
150373917.000000,101840700.000000
150343917.000000,101830700.000000
150303917.000000,101830700.000000
150273917.000000,101820700.000000
150251106.000000,101820700.000000
150195725.000000,101793010.000000
150261472.000000,101530023.000000
Z" /> 
<path style="fill:#E8B2A7; fill-opacity:1.0; 
stroke:#E8B2A7; stroke-width:1.000000; stroke-opacity:1; 
stroke-linecap:round; stroke-linejoin:round;fill-rule:evenodd;"
d="M 148801363.000000,100946193.000000
148865727.000000,100967648.000000
148941582.000000,101010994.000000
148996906.000000,101055253.000000
149049613.000000,101118502.000000
149062000.000000,101133986.000000
149062000.000000,100943802.000000
149148457.000000,100965417.000000
149248461.000000,100985418.000000
149288457.000000,100995417.000000
149333872.000000,101004500.000000
149384790.000000,101004500.000000
149428457.000000,101015417.000000
149508200.000000,101031365.000000
149508200.000000,102450700.000000
149042000.000000,102450700.000000
149042000.000000,101686783.000000
149023152.000000,101601970.000000
149004733.000000,101537500.000000
148968683.000000,101474414.000000
148925231.000000,101422271.000000
148865759.000000,101388287.000000
148793552.000000,101370235.000000
148698199.000000,101360700.000000
148599095.000000,101360700.000000
148579094.000000,101370700.000000
148522000.000000,101370700.000000
148522000.000000,100934500.000000
148554318.000000,100934500.000000
148564318.000000,100924500.000000
148725436.000000,100924500.000000
Z" /> 
<path style="fill:#E8B2A7; fill-opacity:1.0; 
stroke:#E8B2A7; stroke-width:1.000000; stroke-opacity:1; 
stroke-linecap:round; stroke-linejoin:round;fill-rule:evenodd;"
d="M 146524198.000000,100457052.000000
146609813.000000,100499859.000000
146686232.000000,100554445.000000
146742929.000000,100622481.000000
146775466.000000,100698399.000000
146808200.000000,100785691.000000
146808200.000000,100954500.000000
146909150.000000,100954500.000000
146947314.000000,101005386.000000
146985126.000000,101033745.000000
147145128.000000,101193746.000000
147274400.000000,101290700.000000
146808200.000000,101290700.000000
146808200.000000,102450700.000000
146352000.000000,102450700.000000
146352000.000000,101290700.000000
146082000.000000,101290700.000000
146082000.000000,100954500.000000
146352000.000000,100954500.000000
146352000.000000,100917289.000000
146342000.000000,100877290.000000
146342000.000000,100841595.000000
146337081.000000,100831757.000000
146324012.000000,100812154.000000
146296799.000000,100798547.000000
146265411.000000,100790700.000000
146062000.000000,100790700.000000
146062000.000000,100449053.000000
146111106.000000,100424500.000000
146415692.000000,100424500.000000
Z" /> 
<path style="fill:#E8B2A7; fill-opacity:1.0; 
stroke:#E8B2A7; stroke-width:1.000000; stroke-opacity:1; 
stroke-linecap:round; stroke-linejoin:round;fill-rule:evenodd;"
d="M 153617244.000000,100945174.000000
153722575.000000,100966241.000000
153831334.000000,101020620.000000
153906972.000000,101085452.000000
153983058.000000,101172408.000000
154027594.000000,101283749.000000
154038376.000000,101413127.000000
154027343.000000,101512419.000000
153993741.000000,101590824.000000
153947574.000000,101660074.000000
153880142.000000,101705029.000000
153807111.000000,101746761.000000
153734301.000000,101777966.000000
153650975.000000,101809213.000000
153557969.000000,101829881.000000
153458457.000000,101849783.000000
153300765.000000,101889206.000000
153246113.000000,101907423.000000
153201392.000000,101934256.000000
153170156.000000,101957683.000000
153156047.000000,101985901.000000
153149372.000000,102012600.000000
153164502.000000,102073120.000000
153185128.000000,102093746.000000
153220210.000000,102120057.000000
153253401.000000,102136653.000000
153284789.000000,102144500.000000
153324790.000000,102144500.000000
153361651.000000,102153715.000000
153413248.000000,102145116.000000
153463230.000000,102135119.000000
153514673.000000,102126545.000000
153582886.000000,102075386.000000
153606596.000000,102043771.000000
153622000.000000,102005263.000000
153622000.000000,101914500.000000
154074510.000000,101914500.000000
154047094.000000,102092702.000000
154003477.000000,102201745.000000
153927935.000000,102298871.000000
153841511.000000,102374492.000000
153733764.000000,102428365.000000
153618265.000000,102459865.000000
153494822.000000,102480439.000000
153370100.000000,102490832.000000
153245378.000000,102480439.000000
153121935.000000,102459865.000000
153006436.000000,102428365.000000
152898689.000000,102374492.000000
152812011.000000,102298649.000000
152746227.000000,102210936.000000
152703013.000000,102092098.000000
152681676.000000,101953407.000000
152692857.000000,101852781.000000
152726459.000000,101774376.000000
152771464.000000,101706868.000000
152838285.000000,101651184.000000
152986205.000000,101566658.000000
153081367.000000,101545511.000000
153323091.000000,101485080.000000
153401631.000000,101475262.000000
153455481.000000,101457312.000000
153509990.000000,101430058.000000
153542886.000000,101405386.000000
153565004.000000,101375894.000000
153572000.000000,101347911.000000
153572000.000000,101324135.000000
153545650.000000,101284611.000000
153529435.000000,101279206.000000
153489440.000000,101269208.000000
153463917.000000,101260700.000000
153307438.000000,101260700.000000
153265725.000000,101277385.000000
153229257.000000,101295619.000000
153207574.000000,101310074.000000
153194002.000000,101330432.000000
153176774.000000,101373503.000000
153161335.000000,101450700.000000
152715124.000000,101450700.000000
152743460.000000,101280685.000000
152797559.000000,101172488.000000
152862886.000000,101085386.000000
152950688.000000,101019534.000000
153046836.000000,100976802.000000
153151191.000000,100945495.000000
153266665.000000,100924500.000000
153503535.000000,100924500.000000
Z" /> 
<path style="fill:#E8B2A7; fill-opacity:1.0; 
stroke:#E8B2A7; stroke-width:1.000000; stroke-opacity:1; 
stroke-linecap:round; stroke-linejoin:round;fill-rule:evenodd;"
d="M 150486952.000000,100935116.000000
150549312.000000,100945510.000000
150609899.000000,100965705.000000
150661002.000000,100975926.000000
150717084.000000,100998359.000000
150821388.000000,101060941.000000
150867314.000000,101095386.000000
150901759.000000,101141312.000000
150931756.000000,101191308.000000
150964290.000000,101234686.000000
150987190.000000,101303388.000000
151015076.000000,101470700.000000
150542000.000000,101470700.000000
150542000.000000,101391595.000000
150534811.000000,101377217.000000
150524812.000000,101347219.000000
150518787.000000,101335169.000000
150487531.000000,101303913.000000
150401105.000000,101260700.000000
150239095.000000,101260700.000000
150219094.000000,101270700.000000
150199095.000000,101270700.000000
150158498.000000,101290998.000000
150151413.000000,101305169.000000
150141413.000000,101315169.000000
150118200.000000,101361595.000000
150118200.000000,101449900.000000
150136103.000000,101473771.000000
150176113.000000,101497777.000000
150231365.000000,101516194.000000
150336000.000000,101546090.000000
150269848.000000,101810700.000000
150191106.000000,101810700.000000
150171105.000000,101800700.000000
150151106.000000,101800700.000000
150118200.000000,101784247.000000
150118200.000000,101946417.000000
150125388.000000,101967981.000000
150135389.000000,101987983.000000
150153401.000000,102042019.000000
150169708.000000,102058327.000000
150189707.000000,102088325.000000
150204375.000000,102102993.000000
150225743.000000,102117239.000000
150263398.000000,102126652.000000
150299095.000000,102144500.000000
150343873.000000,102144500.000000
150393872.000000,102154500.000000
150431105.000000,102154500.000000
150451106.000000,102144500.000000
150471105.000000,102144500.000000
150491106.000000,102134500.000000
150511105.000000,102134500.000000
150537531.000000,102121287.000000
150547531.000000,102111287.000000
150561702.000000,102104202.000000
150568787.000000,102090031.000000
150578787.000000,102080031.000000
150582000.000000,102073605.000000
150582000.000000,102056417.000000
150592000.000000,102026417.000000
150592000.000000,101991595.000000
150582000.000000,101971594.000000
150582000.000000,101951595.000000
150561702.000000,101910998.000000
150547531.000000,101903913.000000
150537531.000000,101893913.000000
150497531.000000,101873913.000000
150487531.000000,101863913.000000
150475481.000000,101857888.000000
150410347.000000,101836177.000000
150514995.000000,101561476.000000
150636854.000000,101575016.000000
150721446.000000,101596164.000000
150806345.000000,101628001.000000
150882146.000000,101671316.000000
150959906.000000,101737967.000000
151005052.000000,101816973.000000
151037101.000000,101913120.000000
151058886.000000,102032940.000000
151048200.000000,102086372.000000
151048200.000000,102141594.000000
151026459.000000,102185077.000000
151015982.000000,102237463.000000
150991215.000000,102274614.000000
150961213.000000,102314616.000000
150939708.000000,102346873.000000
150902669.000000,102383913.000000
150859257.000000,102405619.000000
150829260.000000,102425617.000000
150785721.000000,102447386.000000
150731849.000000,102468935.000000
150684790.000000,102480700.000000
150633872.000000,102480700.000000
150583873.000000,102490700.000000
150463917.000000,102490700.000000
150433917.000000,102480700.000000
150393917.000000,102480700.000000
150363917.000000,102470700.000000
150333917.000000,102470700.000000
150203211.000000,102427131.000000
150173212.000000,102407132.000000
150143211.000000,102397131.000000
150105827.000000,102372208.000000
150090100.000000,102356482.000000
150088200.000000,102358382.000000
150088200.000000,102388382.000000
150078200.000000,102398382.000000
150078200.000000,102408382.000000
150068200.000000,102418382.000000
150068200.000000,102450700.000000
149602000.000000,102450700.000000
149602000.000000,102386818.000000
149618787.000000,102370031.000000
149622000.000000,102363605.000000
149622000.000000,102333606.000000
149632000.000000,102313605.000000
149632000.000000,102293606.000000
149642000.000000,102273605.000000
149642000.000000,102183606.000000
149652000.000000,102163605.000000
149652000.000000,101298827.000000
149663426.000000,101241698.000000
149685314.000000,101186979.000000
149707559.000000,101142488.000000
149742886.000000,101095386.000000
149871271.000000,100999097.000000
149929198.000000,100975926.000000
149979197.000000,100965926.000000
150029198.000000,100945926.000000
150086327.000000,100934500.000000
150146328.000000,100934500.000000
150196327.000000,100924500.000000
150433873.000000,100924500.000000
Z" /> 
<path style="fill:#E8B2A7; fill-opacity:1.0; 
stroke:#E8B2A7; stroke-width:1.000000; stroke-opacity:1; 
stroke-linecap:round; stroke-linejoin:round;fill-rule:evenodd;"
d="M 151558200.000000,101790226.000000
151567350.000000,101863424.000000
151608109.000000,101972115.000000
151200260.000000,102164044.000000
151133697.000000,102004293.000000
151102308.000000,101868275.000000
151089255.000000,101685535.000000
151558200.000000,101673511.000000
Z" /> 
<path style="fill:#E8B2A7; fill-opacity:1.0; 
stroke:#E8B2A7; stroke-width:1.000000; stroke-opacity:1; 
stroke-linecap:round; stroke-linejoin:round;fill-rule:evenodd;"
d="M 146832955.000000,98146213.000000
146952162.000000,98211235.000000
147048614.000000,98296969.000000
147104433.000000,98375117.000000
147138200.000000,98476417.000000
147138200.000000,98566782.000000
147116092.000000,98666266.000000
147061439.000000,98764642.000000
146988675.000000,98847801.000000
146908696.000000,98937777.000000
146842743.000000,99013152.000000
146818200.000000,99070419.000000
146818200.000000,99126417.000000
146834096.000000,99174105.000000
146866156.000000,99214180.000000
146915743.000000,99247239.000000
146984789.000000,99264500.000000
147056328.000000,99264500.000000
147099197.000000,99255926.000000
147142267.000000,99238698.000000
147165825.000000,99222993.000000
147188787.000000,99200031.000000
147204812.000000,99167981.000000
147212000.000000,99146417.000000
147212000.000000,99128783.000000
147205568.000000,99109488.000000
147190493.000000,99086875.000000
147159519.000000,99055901.000000
147135483.000000,99047889.000000
147087531.000000,99023913.000000
147035781.000000,98972162.000000
147111106.000000,98934500.000000
147135411.000000,98934500.000000
147175410.000000,98924500.000000
147263253.000000,98924500.000000
147330426.000000,98935695.000000
147438929.000000,98979097.000000
147481392.000000,99010944.000000
147537870.000000,99044830.000000
147573523.000000,99104252.000000
147605389.000000,99167983.000000
147627521.000000,99234381.000000
147648200.000000,99420490.000000
147648200.000000,100740700.000000
147579709.000000,100740700.000000
147550493.000000,100696875.000000
147521245.000000,100667626.000000
147491246.000000,100627628.000000
147441937.000000,100578319.000000
147391941.000000,100518323.000000
147330930.000000,100457311.000000
147280932.000000,100387314.000000
147151937.000000,100258319.000000
147103295.000000,100199948.000000
147008297.000000,100123949.000000
146966703.000000,100098993.000000
146916944.000000,100090700.000000
146726947.000000,100090700.000000
146601935.000000,100069865.000000
146487973.000000,100038784.000000
146383116.000000,99996841.000000
146277576.000000,99933517.000000
146194056.000000,99860438.000000
146111482.000000,99777863.000000
146038222.000000,99683672.000000
145934600.000000,99497152.000000
145882287.000000,99308827.000000
145871803.000000,99120110.000000
145903207.000000,98952620.000000
145955409.000000,98806456.000000
146029102.000000,98680124.000000
146116498.000000,98581804.000000
146258200.000000,98510953.000000
146258200.000000,98646417.000000
146272111.000000,98688150.000000
146286988.000000,98698068.000000
146306283.000000,98704500.000000
146361105.000000,98704500.000000
146430943.000000,98669581.000000
146458084.000000,98651487.000000
146498086.000000,98621485.000000
146525825.000000,98602993.000000
146548787.000000,98580031.000000
146567083.000000,98543440.000000
146584738.000000,98516957.000000
146593492.000000,98481940.000000
146599939.000000,98462600.000000
146594812.000000,98447219.000000
146584811.000000,98427217.000000
146575568.000000,98399488.000000
146562019.000000,98379165.000000
146529990.000000,98355142.000000
146497623.000000,98338959.000000
146451739.000000,98329782.000000
146415411.000000,98320700.000000
146396283.000000,98320700.000000
146366283.000000,98330700.000000
146238118.000000,98330700.000000
146315074.000000,98253745.000000
146359988.000000,98220059.000000
146424850.000000,98187628.000000
146507383.000000,98156678.000000
146603917.000000,98124500.000000
146713535.000000,98124500.000000
Z" /> 
<path style="fill:#E8B2A7; fill-opacity:1.0; 
stroke:#E8B2A7; stroke-width:1.000000; stroke-opacity:1; 
stroke-linecap:round; stroke-linejoin:round;fill-rule:evenodd;"
d="M 143789312.000000,100935510.000000
143916989.000000,100978069.000000
143982610.000000,101021816.000000
144035549.000000,101064167.000000
144062000.000000,101090619.000000
144062000.000000,100954500.000000
144508200.000000,100954500.000000
144508200.000000,102450700.000000
144042000.000000,102450700.000000
144042000.000000,101574710.000000
144032856.000000,101492417.000000
144006100.000000,101429985.000000
143978751.000000,101384403.000000
143944625.000000,101341746.000000
143906703.000000,101318993.000000
143854598.000000,101310309.000000
143780886.000000,101301095.000000
143726952.000000,101310084.000000
143684042.000000,101318666.000000
143646103.000000,101341429.000000
143621756.000000,101373892.000000
143596493.000000,101415997.000000
143587751.000000,101468450.000000
143577867.000000,101537638.000000
143568200.000000,101614974.000000
143568200.000000,102450700.000000
143102000.000000,102450700.000000
143102000.000000,101541137.000000
143112263.000000,101407718.000000
143132995.000000,101293691.000000
143165078.000000,101186748.000000
143220091.000000,101098727.000000
143296932.000000,101021886.000000
143395627.000000,100967056.000000
143513669.000000,100934862.000000
143658741.000000,100924500.000000
143723253.000000,100924500.000000
Z" /> 
<path style="fill:#E8B2A7; fill-opacity:1.0; 
stroke:#E8B2A7; stroke-width:1.000000; stroke-opacity:1; 
stroke-linecap:round; stroke-linejoin:round;fill-rule:evenodd;"
d="M 148448200.000000,100649843.000000
148448200.000000,102450700.000000
147982000.000000,102450700.000000
147982000.000000,101939156.000000
147878052.000000,101842138.000000
147501324.000000,102450700.000000
146939566.000000,102450700.000000
147551081.000000,101517881.000000
146976865.000000,100954500.000000
147546330.000000,100954500.000000
147982000.000000,101407953.000000
147982000.000000,100398812.000000
Z" /> 
<path style="fill:#E8B2A7; fill-opacity:1.0; 
stroke:#E8B2A7; stroke-width:1.000000; stroke-opacity:1; 
stroke-linecap:round; stroke-linejoin:round;fill-rule:evenodd;"
d="M 149949645.000000,105784699.000000
150020420.000000,105804920.000000
150081310.000000,105835365.000000
150131940.000000,105875869.000000
150172486.000000,105916415.000000
150213132.000000,105977384.000000
150233486.000000,106038447.000000
150243600.000000,106109245.000000
150243600.000000,106180300.000000
150223378.000000,106251078.000000
150203132.000000,106311816.000000
150162640.000000,106372554.000000
150122019.000000,106423330.000000
150060816.000000,106464132.000000
149999753.000000,106484486.000000
149928955.000000,106494600.000000
149747900.000000,106494600.000000
149676593.000000,106474227.000000
149625500.000000,106443571.000000
149593600.000000,106411671.000000
149593600.000000,106358574.000000
149624726.000000,106285947.000000
149688216.000000,106254202.000000
149809410.000000,106294600.000000
149877898.000000,106294600.000000
149945694.000000,106275230.000000
149980833.000000,106231306.000000
149943061.000000,106212421.000000
149943085.000000,106212274.000000
149942504.000000,106214600.000000
149667420.000000,106214600.000000
149605890.000000,106183835.000000
149553600.000000,106142003.000000
149553600.000000,106059245.000000
149563714.000000,105988447.000000
149584139.000000,105927173.000000
149624869.000000,105876260.000000
149675638.000000,105825491.000000
149737090.000000,105794765.000000
149807893.000000,105784650.000000
149878600.000000,105774549.000000
Z" /> 
<path style="fill:#E8B2A7; fill-opacity:1.0; 
stroke:#E8B2A7; stroke-width:1.000000; stroke-opacity:1; 
stroke-linecap:round; stroke-linejoin:round;fill-rule:evenodd;"
d="M 148422332.000000,105495466.000000
148443600.000000,105548637.000000
148443600.000000,106430985.000000
148411635.000000,106484260.000000
148328293.000000,106494677.000000
148245665.000000,106474020.000000
148213600.000000,106431267.000000
148213600.000000,106296537.000000
148191077.000000,106304044.000000
148131981.000000,106353291.000000
148072136.000000,106413136.000000
148031785.000000,106453486.000000
147970114.000000,106494600.000000
147906529.000000,106494600.000000
147854591.000000,106442662.000000
147813330.000000,106370455.000000
147824043.000000,106316889.000000
147885365.000000,106265787.000000
148031047.000000,106139529.000000
147935330.000000,106053384.000000
147874043.000000,106002311.000000
147863361.000000,105948898.000000
147894596.000000,105886428.000000
147956790.000000,105834600.000000
148009780.000000,105834600.000000
148071310.000000,105865365.000000
148121940.000000,105905869.000000
148181888.000000,105965816.000000
148213600.000000,105989600.000000
148213600.000000,105589245.000000
148223943.000000,105516843.000000
148266662.000000,105484803.000000
148348992.000000,105474512.000000
Z" /> 
<path style="fill:#E8B2A7; fill-opacity:1.0; 
stroke:#E8B2A7; stroke-width:1.000000; stroke-opacity:1; 
stroke-linecap:round; stroke-linejoin:round;fill-rule:evenodd;"
d="M 147359753.000000,105784714.000000
147420518.000000,105804969.000000
147481355.000000,105835387.000000
147541874.000000,105885820.000000
147643600.000000,105977373.000000
147643600.000000,106130014.000000
147633543.000000,106190356.000000
147623435.000000,106261110.000000
147592813.000000,106322355.000000
147542118.000000,106383189.000000
147491723.000000,106423504.000000
147445008.000000,106460877.000000
147446003.000000,106462685.000000
147440940.000000,106464132.000000
147437083.000000,106467217.000000
147436140.000000,106465503.000000
147369701.000000,106484485.000000
147309014.000000,106494600.000000
147238245.000000,106494600.000000
147167090.000000,106484435.000000
147105890.000000,106453835.000000
147055477.000000,106413504.000000
147004870.000000,106373019.000000
146964267.000000,106312114.000000
146933765.000000,106251110.000000
146923600.000000,106179955.000000
146923600.000000,106109245.000000
146933714.000000,106038447.000000
146954068.000000,105977384.000000
146994560.000000,105916646.000000
147035181.000000,105865870.000000
147096086.000000,105825267.000000
147157036.000000,105794792.000000
147217835.000000,105784658.000000
147288600.000000,105774549.000000
Z" /> 
<path style="fill:#E8B2A7; fill-opacity:1.0; 
stroke:#E8B2A7; stroke-width:1.000000; stroke-opacity:1; 
stroke-linecap:round; stroke-linejoin:round;fill-rule:evenodd;"
d="M 148871936.000000,105825441.000000
148899593.000000,105871536.000000
148905260.000000,105865869.000000
148956173.000000,105825139.000000
149017789.000000,105804600.000000
149089411.000000,105804600.000000
149150518.000000,105824969.000000
149211562.000000,105855491.000000
149262296.000000,105906225.000000
149312813.000000,105966845.000000
149343408.000000,106028036.000000
149353542.000000,106088835.000000
149363651.000000,106159600.000000
149353486.000000,106230753.000000
149333231.000000,106291518.000000
149302709.000000,106352562.000000
149251975.000000,106403296.000000
149191504.000000,106453689.000000
149140307.000000,106484407.000000
149068955.000000,106494600.000000
148997789.000000,106494600.000000
148935899.000000,106473970.000000
148890426.000000,106428498.000000
148872381.000000,106473610.000000
148809411.000000,106494600.000000
148727215.000000,106494600.000000
148673987.000000,106462663.000000
148663600.000000,106389955.000000
148663600.000000,105909186.000000
148673983.000000,105846891.000000
148726846.000000,105804600.000000
148809411.000000,105804600.000000
Z" /> 
<path style="fill:#E8B2A7; fill-opacity:1.0; 
stroke:#E8B2A7; stroke-width:1.000000; stroke-opacity:1; 
stroke-linecap:round; stroke-linejoin:round;fill-rule:evenodd;"
d="M 151882759.000000,105566264.000000
151903600.000000,105628789.000000
151903600.000000,106379955.000000
151893257.000000,106452357.000000
151850538.000000,106484397.000000
151768911.000000,106494600.000000
151428245.000000,106494600.000000
151357447.000000,106484486.000000
151296173.000000,106464061.000000
151245260.000000,106423331.000000
151194491.000000,106372562.000000
151163920.000000,106311420.000000
151143600.000000,106240300.000000
151143600.000000,106169245.000000
151153714.000000,106098447.000000
151174139.000000,106037173.000000
151212996.000000,105988600.000000
151203970.000000,105961520.000000
151173765.000000,105901110.000000
151163549.000000,105829600.000000
151173714.000000,105758447.000000
151194068.000000,105697384.000000
151234714.000000,105636415.000000
151285500.000000,105585629.000000
151336593.000000,105554973.000000
151407900.000000,105534600.000000
151829985.000000,105534600.000000
Z" /> 
<path style="fill:#E8B2A7; fill-opacity:1.0; 
stroke:#E8B2A7; stroke-width:1.000000; stroke-opacity:1; 
stroke-linecap:round; stroke-linejoin:round;fill-rule:evenodd;"
d="M 150651114.000000,105825267.000000
150707213.000000,105862666.000000
150725063.000000,105835891.000000
150777215.000000,105804600.000000
150859411.000000,105804600.000000
150922553.000000,105825647.000000
150943600.000000,105888789.000000
150943600.000000,106430985.000000
150911700.000000,106484152.000000
150848703.000000,106494652.000000
150766933.000000,106484430.000000
150713600.000000,106452431.000000
150713600.000000,106110410.000000
150694512.000000,106053146.000000
150637762.000000,106024771.000000
150569750.000000,106034487.000000
150507861.000000,106055117.000000
150444297.000000,106012741.000000
150423715.000000,105940701.000000
150413343.000000,105878472.000000
150455641.000000,105815024.000000
150517835.000000,105804658.000000
150589439.000000,105794429.000000
Z" /> 
<path style="fill:#E8B2A7; fill-opacity:1.0; 
stroke:#E8B2A7; stroke-width:1.000000; stroke-opacity:1; 
stroke-linecap:round; stroke-linejoin:round;fill-rule:evenodd;"
d="M 146650538.000000,105814803.000000
146693203.000000,105846802.000000
146703600.000000,105909186.000000
146703600.000000,106189955.000000
146693486.000000,106260753.000000
146673132.000000,106321816.000000
146632486.000000,106382785.000000
146581700.000000,106433571.000000
146531008.000000,106463986.000000
146469780.000000,106494600.000000
146398186.000000,106494600.000000
146336719.000000,106484356.000000
146276382.000000,106444131.000000
146250824.000000,106435611.000000
146221663.000000,106484213.000000
146148955.000000,106494600.000000
146066197.000000,106494600.000000
146023882.000000,106441707.000000
146013600.000000,106380014.000000
146013600.000000,105898789.000000
146034441.000000,105836264.000000
146087215.000000,105804600.000000
146169780.000000,105804600.000000
146232536.000000,105835978.000000
146253600.000000,105888637.000000
146253600.000000,106168420.000000
146282421.000000,106226063.000000
146329984.000000,106254600.000000
146406847.000000,106254600.000000
146454324.000000,106216619.000000
146473600.000000,106158790.000000
146473600.000000,105878637.000000
146494868.000000,105825466.000000
146568208.000000,105804512.000000
Z" /> 
<path style="fill:#E8B2A7; fill-opacity:1.0; 
stroke:#E8B2A7; stroke-width:1.000000; stroke-opacity:1; 
stroke-linecap:round; stroke-linejoin:round;fill-rule:evenodd;"
d="M 145701936.000000,105585441.000000
145733600.000000,105638215.000000
145733600.000000,105777528.000000
145761303.000000,105805231.000000
145821936.000000,105825441.000000
145853600.000000,105878215.000000
145853600.000000,105960411.000000
145832610.000000,106023381.000000
145733600.000000,106062985.000000
145733600.000000,106270300.000000
145713378.000000,106341078.000000
145692970.000000,106402301.000000
145651700.000000,106443571.000000
145600702.000000,106474170.000000
145539411.000000,106494600.000000
145396846.000000,106494600.000000
145343930.000000,106452267.000000
145333499.000000,106379252.000000
145354335.000000,106306328.000000
145406893.000000,106274793.000000
145475032.000000,106265059.000000
145493600.000000,106218638.000000
145493600.000000,106090014.000000
145484471.000000,106035241.000000
145418541.000000,106044659.000000
145356575.000000,106034332.000000
145313869.000000,106002302.000000
145303560.000000,105909521.000000
145313987.000000,105836537.000000
145367215.000000,105804600.000000
145428955.000000,105804600.000000
145493600.000000,105813835.000000
145493600.000000,105679186.000000
145503983.000000,105616891.000000
145556579.000000,105574814.000000
145639105.000000,105564498.000000
Z" /> 
<path style="fill:#E8B2A7; fill-opacity:1.0; 
stroke:#E8B2A7; stroke-width:1.000000; stroke-opacity:1; 
stroke-linecap:round; stroke-linejoin:round;fill-rule:evenodd;"
d="M 148508302.000000,104338369.000000
148540332.000000,104381075.000000
148550600.000000,104442686.000000
148550600.000000,105193911.000000
148529850.000000,105256163.000000
148487267.000000,105288100.000000
148394789.000000,105288100.000000
148331819.000000,105267110.000000
148310600.000000,105214063.000000
148310600.000000,104391433.000000
148342609.000000,104348754.000000
148415173.000000,104328022.000000
Z" /> 
<path style="fill:#E8B2A7; fill-opacity:1.0; 
stroke:#E8B2A7; stroke-width:1.000000; stroke-opacity:1; 
stroke-linecap:round; stroke-linejoin:round;fill-rule:evenodd;"
d="M 148089332.000000,104338966.000000
148110600.000000,104392137.000000
148110600.000000,105214063.000000
148089332.000000,105267234.000000
148016027.000000,105288178.000000
147923305.000000,105277876.000000
147880931.000000,105235503.000000
147870600.000000,105173514.000000
147870600.000000,105036485.000000
147824638.000000,105018100.000000
147698371.000000,105018100.000000
147650035.000000,105095439.000000
147579541.000000,105256566.000000
147526650.000000,105288301.000000
147453948.000000,105277915.000000
147381605.000000,105236576.000000
147360323.000000,105183370.000000
147380822.000000,105111622.000000
147390944.000000,105081256.000000
147450813.000000,104951541.000000
147460172.000000,104904744.000000
147411230.000000,104855801.000000
147390822.000000,104794578.000000
147370600.000000,104723800.000000
147370600.000000,104581920.000000
147431619.000000,104459882.000000
147483614.000000,104418285.000000
147477906.000000,104412220.000000
147543086.000000,104368767.000000
147604036.000000,104338292.000000
147664835.000000,104328158.000000
147735245.000000,104318100.000000
148016300.000000,104318100.000000
Z" /> 
<path style="fill:#E8B2A7; fill-opacity:1.0; 
stroke:#E8B2A7; stroke-width:1.000000; stroke-opacity:1; 
stroke-linecap:round; stroke-linejoin:round;fill-rule:evenodd;"
d="M 149469381.000000,104349090.000000
149490600.000000,104402137.000000
149490600.000000,105224767.000000
149458591.000000,105267446.000000
149386300.000000,105288100.000000
149303529.000000,105288100.000000
149260931.000000,105245503.000000
149250600.000000,105183514.000000
149250600.000000,105046485.000000
149204638.000000,105028100.000000
149075245.000000,105028100.000000
149004447.000000,105017986.000000
148948133.000000,104999214.000000
148947539.000000,105000402.000000
148943382.000000,104997631.000000
148938328.000000,104995946.000000
148939006.000000,104994713.000000
148882646.000000,104957140.000000
148832043.000000,104916657.000000
148791272.000000,104865693.000000
148760922.000000,104794878.000000
148740600.000000,104733911.000000
148740600.000000,104591920.000000
148781365.000000,104510390.000000
148821869.000000,104459760.000000
148872415.000000,104409214.000000
148933086.000000,104368767.000000
148994036.000000,104338292.000000
149055186.000000,104328100.000000
149406411.000000,104328100.000000
Z" /> 
<path style="fill:#E8B2A7; fill-opacity:1.0; 
stroke:#E8B2A7; stroke-width:1.000000; stroke-opacity:1; 
stroke-linecap:round; stroke-linejoin:round;fill-rule:evenodd;"
d="M 151726100.000000,110030186.000000
151726100.000000,113663985.000000
151672063.000000,113685600.000000
150377715.000000,113685600.000000
150356100.000000,113631563.000000
150356100.000000,109976364.000000
150420686.000000,109965600.000000
151715336.000000,109965600.000000
Z" /> 
<path style="fill:#E8B2A7; fill-opacity:1.0; 
stroke:#E8B2A7; stroke-width:1.000000; stroke-opacity:1; 
stroke-linecap:round; stroke-linejoin:round;fill-rule:evenodd;"
d="M 152793151.000000,106684013.000000
152865095.000000,106725124.000000
152886512.000000,106778666.000000
152855580.000000,106850839.000000
152626100.000000,107249935.000000
152626100.000000,107327420.000000
152705665.000000,107486550.000000
152725797.000000,107536879.000000
152736498.000000,107568984.000000
152714978.000000,107612024.000000
152653492.000000,107653015.000000
152580938.000000,107684109.000000
152517373.000000,107652327.000000
152486584.000000,107590749.000000
152156393.000000,106860326.000000
152135959.000000,106788808.000000
152146543.000000,106735889.000000
152208711.000000,106684083.000000
152281812.000000,106663196.000000
152334200.000000,106694629.000000
152365470.000000,106725899.000000
152385730.000000,106786680.000000
152475665.000000,106966550.000000
152492926.000000,107009702.000000
152506992.000000,106995636.000000
152566723.000000,106876174.000000
152677474.000000,106694945.000000
152730499.000000,106663129.000000
Z" /> 
<path style="fill:#E8B2A7; fill-opacity:1.0; 
stroke:#E8B2A7; stroke-width:1.000000; stroke-opacity:1; 
stroke-linecap:round; stroke-linejoin:round;fill-rule:evenodd;"
d="M 153576200.000000,105561629.000000
153637706.000000,105623135.000000
153648409.000000,105676650.000000
153607034.000000,105738713.000000
153469704.000000,105885852.000000
153506910.000000,105932359.000000
153596880.000000,106032326.000000
153648100.000000,106093790.000000
153648100.000000,106147671.000000
153586200.000000,106209571.000000
153534094.000000,106240835.000000
153470697.000000,106230269.000000
153321028.000000,106080600.000000
153275018.000000,106080600.000000
153176555.000000,106169217.000000
153125801.000000,106219970.000000
153062499.000000,106241071.000000
153010000.000000,106209571.000000
152948100.000000,106147671.000000
152948100.000000,106094086.000000
152989166.000000,106032487.000000
153126148.000000,105885720.000000
152989214.000000,105748785.000000
152948100.000000,105687114.000000
152948100.000000,105623529.000000
153010000.000000,105561629.000000
153062499.000000,105530129.000000
153125801.000000,105551230.000000
153176636.000000,105602064.000000
153275172.000000,105700600.000000
153311182.000000,105700600.000000
153409645.000000,105611983.000000
153470290.000000,105551339.000000
153523546.000000,105530037.000000
Z" /> 
<g >
</g>
<g >
</g>
<g >
</g>
<g >
</g>
<g >
</g>
<g >
</g>
<g >
</g>
<g >
</g>
<g >
</g>
<g >
</g>
<g >
</g>
<g >
</g>
<g >
</g>
<g >
</g>
<g >
</g>
<g >
</g>
<g >
</g>
<g >
</g>
<g >
</g>
<g >
</g>
<g >
</g>
<g >
</g>
<g >
</g>
<g >
</g>
<g >
</g>
<g >
</g>
</g>
<g style="fill:#000000; fill-opacity:1.0; 
stroke:#000000; stroke-width:1.000000; stroke-opacity:1; 
stroke-linecap:round; stroke-linejoin:round;">
</g>
<g style="fill:#D0D2CD; fill-opacity:1.0; 
stroke:#D0D2CD; stroke-width:1.000000; stroke-opacity:1; 
stroke-linecap:round; stroke-linejoin:round;">
</g>
<g style="fill:#D0D2CD; fill-opacity:1.0; 
stroke:#D0D2CD; stroke-width:203200.000000; stroke-opacity:1; 
stroke-linecap:round; stroke-linejoin:round;">
</g>
<g style="fill:#D0D2CD; fill-opacity:0.0; 
stroke:#D0D2CD; stroke-width:203200.000000; stroke-opacity:1; 
stroke-linecap:round; stroke-linejoin:round;">
<path d="M142151100 94208600
L142151100 115798600
" />
<path d="M154851100 94208600
L142151100 94208600
" />
<path d="M142151100 115798600
L154851100 115798600
" />
<path d="M154851100 115798600
L154851100 94208600
" />
<g >
</g>
<g >
</g>
<g >
</g>
<g >
</g>
<g >
</g>
<g >
</g>
<g >
</g>
<g >
</g>
<g >
</g>
<g >
</g>
<g >
</g>
<g >
</g>
<g >
</g>
<g >
</g>
<g >
</g>
<g >
</g>
<g >
</g>
<g >
</g>
<g >
</g>
<g >
</g>
<g >
</g>
<g >
</g>
<g >
</g>
<g >
</g>
<g >
</g>
<g >
</g>
</g> 
</svg>
