G04 EAGLE Gerber RS-274X export*
G75*
%MOMM*%
%FSLAX34Y34*%
%LPD*%
%INSolderpaste Top*%
%IPPOS*%
%AMOC8*
5,1,8,0,0,1.08239X$1,22.5*%
G01*
%ADD10R,0.660400X2.032000*%
%ADD11R,0.550000X1.200000*%
%ADD12R,1.300000X1.500000*%
%ADD13R,1.900000X1.400000*%
%ADD14R,1.400000X1.800000*%
%ADD15R,1.500000X0.700000*%
%ADD16R,1.000000X1.400000*%
%ADD17R,1.500000X1.300000*%
%ADD18R,0.275000X1.200000*%
%ADD19C,0.600000*%
%ADD20R,1.200000X0.550000*%
%ADD21R,1.200000X1.300000*%
%ADD22R,1.800000X4.000000*%
%ADD23R,1.400000X1.400000*%
%ADD24R,2.540000X2.540000*%
%ADD25R,0.800000X1.000000*%


D10*
X59690Y235712D03*
X46990Y235712D03*
X34290Y235712D03*
X21590Y235712D03*
X8890Y235712D03*
X-3810Y235712D03*
X-16510Y235712D03*
X-29210Y235712D03*
X-29210Y135128D03*
X-16510Y135128D03*
X-3810Y135128D03*
X8890Y135128D03*
X21590Y135128D03*
X34290Y135128D03*
X46990Y135128D03*
X59690Y135128D03*
X-41910Y235712D03*
X-54610Y235712D03*
X-41910Y135128D03*
X-54610Y135128D03*
X209550Y233172D03*
X196850Y233172D03*
X184150Y233172D03*
X171450Y233172D03*
X158750Y233172D03*
X146050Y233172D03*
X133350Y233172D03*
X120650Y233172D03*
X120650Y132588D03*
X133350Y132588D03*
X146050Y132588D03*
X158750Y132588D03*
X171450Y132588D03*
X184150Y132588D03*
X196850Y132588D03*
X209550Y132588D03*
X107950Y233172D03*
X95250Y233172D03*
X107950Y132588D03*
X95250Y132588D03*
D11*
X186080Y25100D03*
X195580Y25100D03*
X205080Y25100D03*
X205080Y51100D03*
X186080Y51100D03*
D12*
X186080Y71120D03*
X205080Y71120D03*
X-46380Y-10160D03*
X-65380Y-10160D03*
X-212700Y212090D03*
X-193700Y212090D03*
X222860Y-12700D03*
X203860Y-12700D03*
D13*
X-219220Y374460D03*
X-228220Y242460D03*
D14*
X-88220Y358460D03*
X-88220Y298460D03*
D15*
X-190220Y365460D03*
X-190220Y354460D03*
X-194220Y343460D03*
X-190220Y332460D03*
X-194220Y321460D03*
X-190220Y310460D03*
X-186220Y299460D03*
X-190220Y288460D03*
D12*
X216560Y-309880D03*
X235560Y-309880D03*
D16*
X55880Y102440D03*
X65380Y80440D03*
X46380Y80440D03*
D17*
X83820Y89560D03*
X83820Y108560D03*
X-222250Y-283820D03*
X-222250Y-264820D03*
X-198120Y-290170D03*
X-198120Y-271170D03*
X-172720Y-271170D03*
X-172720Y-290170D03*
X77470Y244450D03*
X77470Y225450D03*
D18*
X-122500Y-47600D03*
X-117500Y-47600D03*
X-112500Y-47600D03*
X-107500Y-47600D03*
X-102500Y-47600D03*
X-97500Y-47600D03*
X-92500Y-47600D03*
X-87500Y-47600D03*
X-82500Y-47600D03*
X-77500Y-47600D03*
X-72500Y-47600D03*
X-67500Y-47600D03*
X-62500Y-47600D03*
X-57500Y-47600D03*
X-52500Y-47600D03*
X-47500Y-47600D03*
X-42500Y-47600D03*
X-37500Y-47600D03*
X-32500Y-47600D03*
X-27500Y-47600D03*
X-22500Y-47600D03*
X-17500Y-47600D03*
X-12500Y-47600D03*
X-7500Y-47600D03*
X-2500Y-47600D03*
X2500Y-47600D03*
X7500Y-47600D03*
X12500Y-47600D03*
X17500Y-47600D03*
X22500Y-47600D03*
X27500Y-47600D03*
X32500Y-47600D03*
X37500Y-47600D03*
X42500Y-47600D03*
X47500Y-47600D03*
X52500Y-47600D03*
X57500Y-47600D03*
X62500Y-47600D03*
X67500Y-47600D03*
X72500Y-47600D03*
X77500Y-47600D03*
X82500Y-47600D03*
X87500Y-47600D03*
X92500Y-47600D03*
X97500Y-47600D03*
X102500Y-47600D03*
X107500Y-47600D03*
X112500Y-47600D03*
X117500Y-47600D03*
X122500Y-47600D03*
D19*
X-134500Y-83600D02*
X-152500Y-83600D01*
X-152500Y-65600D01*
X-134500Y-65600D01*
X-134500Y-83600D01*
X-134500Y-77900D02*
X-152500Y-77900D01*
X-152500Y-72200D02*
X-134500Y-72200D01*
X-134500Y-66500D02*
X-152500Y-66500D01*
X134500Y-83600D02*
X152500Y-83600D01*
X134500Y-83600D02*
X134500Y-65600D01*
X152500Y-65600D01*
X152500Y-83600D01*
X152500Y-77900D02*
X134500Y-77900D01*
X134500Y-72200D02*
X152500Y-72200D01*
X152500Y-66500D02*
X134500Y-66500D01*
D20*
X-124761Y80620D03*
X-124761Y71120D03*
X-124761Y61620D03*
X-98759Y61620D03*
X-98759Y80620D03*
D21*
X-96520Y158750D03*
X-116840Y158750D03*
D22*
X-93760Y119380D03*
X-129760Y119380D03*
D23*
X-143510Y45000D03*
X-143510Y82000D03*
D21*
X-63500Y40640D03*
X-83820Y40640D03*
D12*
X-100990Y40640D03*
X-119990Y40640D03*
D17*
X-81280Y61620D03*
X-81280Y80620D03*
D24*
X-140335Y13970D03*
X-93345Y13970D03*
D12*
X-131420Y-13970D03*
X-112420Y-13970D03*
D25*
X-39370Y41750D03*
X-39370Y21750D03*
M02*
