G04 EAGLE Gerber RS-274X export*
G75*
%MOMM*%
%FSLAX34Y34*%
%LPD*%
%INSoldermask Top*%
%IPPOS*%
%AMOC8*
5,1,8,0,0,1.08239X$1,22.5*%
G01*
%ADD10C,2.641600*%
%ADD11C,3.911600*%
%ADD12C,1.879600*%
%ADD13R,1.001600X1.001600*%
%ADD14R,0.651600X1.301600*%
%ADD15R,1.301600X1.301600*%
%ADD16C,0.801600*%
%ADD17R,2.514600X2.514600*%
%ADD18C,1.409600*%
%ADD19R,2.101600X1.101600*%
%ADD20R,1.450000X0.500000*%
%ADD21R,1.501600X1.501600*%
%ADD22R,0.736600X1.117600*%
%ADD23R,0.901600X0.901600*%
%ADD24R,0.501600X0.701600*%
%ADD25R,0.701600X0.501600*%
%ADD26R,0.601600X0.376600*%
%ADD27R,1.101600X0.951600*%
%ADD28R,1.176600X1.101600*%
%ADD29R,1.341600X1.601600*%
%ADD30R,1.601600X1.341600*%
%ADD31R,1.101600X1.176600*%
%ADD32R,1.401600X1.301600*%
%ADD33R,0.551600X1.001600*%
%ADD34C,1.101600*%
%ADD35C,0.500000*%
%ADD36R,0.351600X0.601600*%
%ADD37R,0.601600X0.351600*%
%ADD38R,0.376600X0.351600*%
%ADD39R,0.351600X0.376600*%
%ADD40R,0.821600X0.701600*%
%ADD41R,1.101600X1.801600*%
%ADD42R,0.701600X0.351600*%
%ADD43R,0.551600X1.301600*%
%ADD44R,2.301600X0.551600*%
%ADD45R,1.051600X0.551600*%
%ADD46R,0.601600X0.451600*%
%ADD47R,1.101600X4.701600*%
%ADD48R,1.701600X3.501600*%


D10*
X482600Y203200D03*
X482600Y25400D03*
D11*
X25400Y203200D03*
X25400Y25400D03*
D12*
X165100Y215900D03*
X190500Y215900D03*
X215900Y215900D03*
X241300Y215900D03*
X266700Y215900D03*
X292100Y215900D03*
X317500Y215900D03*
X342900Y215900D03*
X368300Y215900D03*
X393700Y215900D03*
X419100Y215900D03*
X444500Y215900D03*
X165100Y12700D03*
X190500Y12700D03*
X215900Y12700D03*
X241300Y12700D03*
X266700Y12700D03*
X292100Y12700D03*
X317500Y12700D03*
X342900Y12700D03*
X368300Y12700D03*
X393700Y12700D03*
X419100Y12700D03*
X444500Y12700D03*
X139700Y12700D03*
X114300Y12700D03*
X88900Y12700D03*
X63500Y12700D03*
D13*
X131498Y70230D03*
X131498Y54230D03*
X90498Y54230D03*
X90498Y70230D03*
D14*
X160884Y104441D03*
X151384Y104441D03*
X141884Y104441D03*
X141884Y78439D03*
X160884Y78439D03*
D15*
X31328Y56388D03*
X10328Y56388D03*
D14*
X197333Y146859D03*
X187833Y146859D03*
X178333Y146859D03*
X178333Y120857D03*
X197333Y120857D03*
D16*
X44450Y133800D03*
X44450Y94800D03*
D17*
X25450Y78300D03*
X25450Y150300D03*
D18*
X53450Y147300D02*
X53450Y160380D01*
X53450Y81300D02*
X53450Y68220D01*
D19*
X24450Y121800D03*
X24450Y106800D03*
D20*
X52200Y127300D03*
X52200Y120800D03*
X52200Y114300D03*
X52200Y107800D03*
X52200Y101300D03*
D21*
X121116Y123952D03*
X84116Y123952D03*
D22*
X98171Y105504D03*
X107671Y85504D03*
X88671Y85504D03*
D15*
X11725Y172720D03*
X32725Y172720D03*
D23*
X453390Y172840D03*
X453390Y187840D03*
D24*
X462950Y160800D03*
X443950Y160800D03*
X427950Y160800D03*
X423950Y151800D03*
X415950Y151800D03*
X407950Y151800D03*
X403950Y160800D03*
X399950Y151800D03*
X395950Y160800D03*
X391950Y151800D03*
X387950Y160800D03*
X411950Y160800D03*
D25*
X353950Y162300D03*
D24*
X419950Y160800D03*
D25*
X353950Y154300D03*
D24*
X451950Y160800D03*
D25*
X353950Y146300D03*
X353950Y138300D03*
X353950Y130300D03*
X353950Y122300D03*
X353950Y114300D03*
X353950Y106300D03*
X353950Y98300D03*
X362950Y126300D03*
X362950Y118300D03*
X362950Y110300D03*
X362950Y102300D03*
X362950Y94300D03*
X353950Y74300D03*
X353950Y90300D03*
X353950Y82300D03*
X353950Y66300D03*
D24*
X363950Y67800D03*
X371950Y67800D03*
X379950Y67800D03*
X383950Y76800D03*
X391950Y76800D03*
X387950Y67800D03*
X375950Y76800D03*
D25*
X362950Y134300D03*
D24*
X395950Y67800D03*
X399950Y76800D03*
X407950Y76800D03*
X411950Y67800D03*
X415950Y76800D03*
X419950Y67800D03*
X423950Y76800D03*
X427950Y67800D03*
X431950Y76800D03*
X439950Y76800D03*
X443950Y67800D03*
X447950Y76800D03*
X451950Y67800D03*
X455950Y76800D03*
X462950Y67800D03*
D25*
X419950Y134300D03*
X419950Y126300D03*
X419950Y118300D03*
X419950Y110300D03*
X419950Y102300D03*
X419950Y94300D03*
D26*
X419670Y42030D03*
X419670Y47030D03*
X419670Y52030D03*
X419670Y57030D03*
X395670Y42030D03*
X395670Y47030D03*
X395670Y52030D03*
X395670Y57030D03*
D27*
X211368Y52702D03*
X176368Y52702D03*
X211368Y70202D03*
X176368Y70202D03*
D13*
X319839Y66547D03*
X319839Y50547D03*
X278839Y50547D03*
X278839Y66547D03*
D28*
X182254Y87884D03*
X199254Y87884D03*
X304555Y101981D03*
X321555Y101981D03*
D29*
X178460Y103759D03*
X197460Y103759D03*
X220320Y179070D03*
X201320Y179070D03*
D30*
X122936Y89052D03*
X122936Y108052D03*
D29*
X303555Y87122D03*
X322555Y87122D03*
X162662Y122555D03*
X143662Y122555D03*
D31*
X67564Y65287D03*
X67564Y82287D03*
D28*
X144662Y53086D03*
X161662Y53086D03*
X350275Y53975D03*
X367275Y53975D03*
X359800Y41275D03*
X376800Y41275D03*
D32*
X338201Y103886D03*
X338201Y83566D03*
D33*
X186736Y166506D03*
X186736Y183506D03*
X177736Y166506D03*
X169736Y166506D03*
X160736Y166506D03*
X160736Y183506D03*
X177736Y183506D03*
X169736Y183506D03*
D31*
X332740Y157870D03*
X332740Y174870D03*
D34*
X106680Y218440D03*
D35*
X106680Y225940D02*
X106499Y225938D01*
X106318Y225931D01*
X106137Y225920D01*
X105956Y225905D01*
X105776Y225885D01*
X105596Y225861D01*
X105417Y225833D01*
X105239Y225800D01*
X105062Y225763D01*
X104885Y225722D01*
X104710Y225677D01*
X104535Y225627D01*
X104362Y225573D01*
X104191Y225515D01*
X104020Y225453D01*
X103852Y225386D01*
X103685Y225316D01*
X103519Y225242D01*
X103356Y225163D01*
X103195Y225081D01*
X103035Y224995D01*
X102878Y224905D01*
X102723Y224811D01*
X102570Y224714D01*
X102420Y224612D01*
X102272Y224508D01*
X102126Y224399D01*
X101984Y224288D01*
X101844Y224172D01*
X101707Y224054D01*
X101572Y223932D01*
X101441Y223807D01*
X101313Y223679D01*
X101188Y223548D01*
X101066Y223413D01*
X100948Y223276D01*
X100832Y223136D01*
X100721Y222994D01*
X100612Y222848D01*
X100508Y222700D01*
X100406Y222550D01*
X100309Y222397D01*
X100215Y222242D01*
X100125Y222085D01*
X100039Y221925D01*
X99957Y221764D01*
X99878Y221601D01*
X99804Y221435D01*
X99734Y221268D01*
X99667Y221100D01*
X99605Y220929D01*
X99547Y220758D01*
X99493Y220585D01*
X99443Y220410D01*
X99398Y220235D01*
X99357Y220058D01*
X99320Y219881D01*
X99287Y219703D01*
X99259Y219524D01*
X99235Y219344D01*
X99215Y219164D01*
X99200Y218983D01*
X99189Y218802D01*
X99182Y218621D01*
X99180Y218440D01*
X106680Y225940D02*
X106861Y225938D01*
X107042Y225931D01*
X107223Y225920D01*
X107404Y225905D01*
X107584Y225885D01*
X107764Y225861D01*
X107943Y225833D01*
X108121Y225800D01*
X108298Y225763D01*
X108475Y225722D01*
X108650Y225677D01*
X108825Y225627D01*
X108998Y225573D01*
X109169Y225515D01*
X109340Y225453D01*
X109508Y225386D01*
X109675Y225316D01*
X109841Y225242D01*
X110004Y225163D01*
X110165Y225081D01*
X110325Y224995D01*
X110482Y224905D01*
X110637Y224811D01*
X110790Y224714D01*
X110940Y224612D01*
X111088Y224508D01*
X111234Y224399D01*
X111376Y224288D01*
X111516Y224172D01*
X111653Y224054D01*
X111788Y223932D01*
X111919Y223807D01*
X112047Y223679D01*
X112172Y223548D01*
X112294Y223413D01*
X112412Y223276D01*
X112528Y223136D01*
X112639Y222994D01*
X112748Y222848D01*
X112852Y222700D01*
X112954Y222550D01*
X113051Y222397D01*
X113145Y222242D01*
X113235Y222085D01*
X113321Y221925D01*
X113403Y221764D01*
X113482Y221601D01*
X113556Y221435D01*
X113626Y221268D01*
X113693Y221100D01*
X113755Y220929D01*
X113813Y220758D01*
X113867Y220585D01*
X113917Y220410D01*
X113962Y220235D01*
X114003Y220058D01*
X114040Y219881D01*
X114073Y219703D01*
X114101Y219524D01*
X114125Y219344D01*
X114145Y219164D01*
X114160Y218983D01*
X114171Y218802D01*
X114178Y218621D01*
X114180Y218440D01*
X114178Y218259D01*
X114171Y218078D01*
X114160Y217897D01*
X114145Y217716D01*
X114125Y217536D01*
X114101Y217356D01*
X114073Y217177D01*
X114040Y216999D01*
X114003Y216822D01*
X113962Y216645D01*
X113917Y216470D01*
X113867Y216295D01*
X113813Y216122D01*
X113755Y215951D01*
X113693Y215780D01*
X113626Y215612D01*
X113556Y215445D01*
X113482Y215279D01*
X113403Y215116D01*
X113321Y214955D01*
X113235Y214795D01*
X113145Y214638D01*
X113051Y214483D01*
X112954Y214330D01*
X112852Y214180D01*
X112748Y214032D01*
X112639Y213886D01*
X112528Y213744D01*
X112412Y213604D01*
X112294Y213467D01*
X112172Y213332D01*
X112047Y213201D01*
X111919Y213073D01*
X111788Y212948D01*
X111653Y212826D01*
X111516Y212708D01*
X111376Y212592D01*
X111234Y212481D01*
X111088Y212372D01*
X110940Y212268D01*
X110790Y212166D01*
X110637Y212069D01*
X110482Y211975D01*
X110325Y211885D01*
X110165Y211799D01*
X110004Y211717D01*
X109841Y211638D01*
X109675Y211564D01*
X109508Y211494D01*
X109340Y211427D01*
X109169Y211365D01*
X108998Y211307D01*
X108825Y211253D01*
X108650Y211203D01*
X108475Y211158D01*
X108298Y211117D01*
X108121Y211080D01*
X107943Y211047D01*
X107764Y211019D01*
X107584Y210995D01*
X107404Y210975D01*
X107223Y210960D01*
X107042Y210949D01*
X106861Y210942D01*
X106680Y210940D01*
X106499Y210942D01*
X106318Y210949D01*
X106137Y210960D01*
X105956Y210975D01*
X105776Y210995D01*
X105596Y211019D01*
X105417Y211047D01*
X105239Y211080D01*
X105062Y211117D01*
X104885Y211158D01*
X104710Y211203D01*
X104535Y211253D01*
X104362Y211307D01*
X104191Y211365D01*
X104020Y211427D01*
X103852Y211494D01*
X103685Y211564D01*
X103519Y211638D01*
X103356Y211717D01*
X103195Y211799D01*
X103035Y211885D01*
X102878Y211975D01*
X102723Y212069D01*
X102570Y212166D01*
X102420Y212268D01*
X102272Y212372D01*
X102126Y212481D01*
X101984Y212592D01*
X101844Y212708D01*
X101707Y212826D01*
X101572Y212948D01*
X101441Y213073D01*
X101313Y213201D01*
X101188Y213332D01*
X101066Y213467D01*
X100948Y213604D01*
X100832Y213744D01*
X100721Y213886D01*
X100612Y214032D01*
X100508Y214180D01*
X100406Y214330D01*
X100309Y214483D01*
X100215Y214638D01*
X100125Y214795D01*
X100039Y214955D01*
X99957Y215116D01*
X99878Y215279D01*
X99804Y215445D01*
X99734Y215612D01*
X99667Y215780D01*
X99605Y215951D01*
X99547Y216122D01*
X99493Y216295D01*
X99443Y216470D01*
X99398Y216645D01*
X99357Y216822D01*
X99320Y216999D01*
X99287Y217177D01*
X99259Y217356D01*
X99235Y217536D01*
X99215Y217716D01*
X99200Y217897D01*
X99189Y218078D01*
X99182Y218259D01*
X99180Y218440D01*
D34*
X497840Y45085D03*
D35*
X497840Y52585D02*
X497659Y52583D01*
X497478Y52576D01*
X497297Y52565D01*
X497116Y52550D01*
X496936Y52530D01*
X496756Y52506D01*
X496577Y52478D01*
X496399Y52445D01*
X496222Y52408D01*
X496045Y52367D01*
X495870Y52322D01*
X495695Y52272D01*
X495522Y52218D01*
X495351Y52160D01*
X495180Y52098D01*
X495012Y52031D01*
X494845Y51961D01*
X494679Y51887D01*
X494516Y51808D01*
X494355Y51726D01*
X494195Y51640D01*
X494038Y51550D01*
X493883Y51456D01*
X493730Y51359D01*
X493580Y51257D01*
X493432Y51153D01*
X493286Y51044D01*
X493144Y50933D01*
X493004Y50817D01*
X492867Y50699D01*
X492732Y50577D01*
X492601Y50452D01*
X492473Y50324D01*
X492348Y50193D01*
X492226Y50058D01*
X492108Y49921D01*
X491992Y49781D01*
X491881Y49639D01*
X491772Y49493D01*
X491668Y49345D01*
X491566Y49195D01*
X491469Y49042D01*
X491375Y48887D01*
X491285Y48730D01*
X491199Y48570D01*
X491117Y48409D01*
X491038Y48246D01*
X490964Y48080D01*
X490894Y47913D01*
X490827Y47745D01*
X490765Y47574D01*
X490707Y47403D01*
X490653Y47230D01*
X490603Y47055D01*
X490558Y46880D01*
X490517Y46703D01*
X490480Y46526D01*
X490447Y46348D01*
X490419Y46169D01*
X490395Y45989D01*
X490375Y45809D01*
X490360Y45628D01*
X490349Y45447D01*
X490342Y45266D01*
X490340Y45085D01*
X497840Y52585D02*
X498021Y52583D01*
X498202Y52576D01*
X498383Y52565D01*
X498564Y52550D01*
X498744Y52530D01*
X498924Y52506D01*
X499103Y52478D01*
X499281Y52445D01*
X499458Y52408D01*
X499635Y52367D01*
X499810Y52322D01*
X499985Y52272D01*
X500158Y52218D01*
X500329Y52160D01*
X500500Y52098D01*
X500668Y52031D01*
X500835Y51961D01*
X501001Y51887D01*
X501164Y51808D01*
X501325Y51726D01*
X501485Y51640D01*
X501642Y51550D01*
X501797Y51456D01*
X501950Y51359D01*
X502100Y51257D01*
X502248Y51153D01*
X502394Y51044D01*
X502536Y50933D01*
X502676Y50817D01*
X502813Y50699D01*
X502948Y50577D01*
X503079Y50452D01*
X503207Y50324D01*
X503332Y50193D01*
X503454Y50058D01*
X503572Y49921D01*
X503688Y49781D01*
X503799Y49639D01*
X503908Y49493D01*
X504012Y49345D01*
X504114Y49195D01*
X504211Y49042D01*
X504305Y48887D01*
X504395Y48730D01*
X504481Y48570D01*
X504563Y48409D01*
X504642Y48246D01*
X504716Y48080D01*
X504786Y47913D01*
X504853Y47745D01*
X504915Y47574D01*
X504973Y47403D01*
X505027Y47230D01*
X505077Y47055D01*
X505122Y46880D01*
X505163Y46703D01*
X505200Y46526D01*
X505233Y46348D01*
X505261Y46169D01*
X505285Y45989D01*
X505305Y45809D01*
X505320Y45628D01*
X505331Y45447D01*
X505338Y45266D01*
X505340Y45085D01*
X505338Y44904D01*
X505331Y44723D01*
X505320Y44542D01*
X505305Y44361D01*
X505285Y44181D01*
X505261Y44001D01*
X505233Y43822D01*
X505200Y43644D01*
X505163Y43467D01*
X505122Y43290D01*
X505077Y43115D01*
X505027Y42940D01*
X504973Y42767D01*
X504915Y42596D01*
X504853Y42425D01*
X504786Y42257D01*
X504716Y42090D01*
X504642Y41924D01*
X504563Y41761D01*
X504481Y41600D01*
X504395Y41440D01*
X504305Y41283D01*
X504211Y41128D01*
X504114Y40975D01*
X504012Y40825D01*
X503908Y40677D01*
X503799Y40531D01*
X503688Y40389D01*
X503572Y40249D01*
X503454Y40112D01*
X503332Y39977D01*
X503207Y39846D01*
X503079Y39718D01*
X502948Y39593D01*
X502813Y39471D01*
X502676Y39353D01*
X502536Y39237D01*
X502394Y39126D01*
X502248Y39017D01*
X502100Y38913D01*
X501950Y38811D01*
X501797Y38714D01*
X501642Y38620D01*
X501485Y38530D01*
X501325Y38444D01*
X501164Y38362D01*
X501001Y38283D01*
X500835Y38209D01*
X500668Y38139D01*
X500500Y38072D01*
X500329Y38010D01*
X500158Y37952D01*
X499985Y37898D01*
X499810Y37848D01*
X499635Y37803D01*
X499458Y37762D01*
X499281Y37725D01*
X499103Y37692D01*
X498924Y37664D01*
X498744Y37640D01*
X498564Y37620D01*
X498383Y37605D01*
X498202Y37594D01*
X498021Y37587D01*
X497840Y37585D01*
X497659Y37587D01*
X497478Y37594D01*
X497297Y37605D01*
X497116Y37620D01*
X496936Y37640D01*
X496756Y37664D01*
X496577Y37692D01*
X496399Y37725D01*
X496222Y37762D01*
X496045Y37803D01*
X495870Y37848D01*
X495695Y37898D01*
X495522Y37952D01*
X495351Y38010D01*
X495180Y38072D01*
X495012Y38139D01*
X494845Y38209D01*
X494679Y38283D01*
X494516Y38362D01*
X494355Y38444D01*
X494195Y38530D01*
X494038Y38620D01*
X493883Y38714D01*
X493730Y38811D01*
X493580Y38913D01*
X493432Y39017D01*
X493286Y39126D01*
X493144Y39237D01*
X493004Y39353D01*
X492867Y39471D01*
X492732Y39593D01*
X492601Y39718D01*
X492473Y39846D01*
X492348Y39977D01*
X492226Y40112D01*
X492108Y40249D01*
X491992Y40389D01*
X491881Y40531D01*
X491772Y40677D01*
X491668Y40825D01*
X491566Y40975D01*
X491469Y41128D01*
X491375Y41283D01*
X491285Y41440D01*
X491199Y41600D01*
X491117Y41761D01*
X491038Y41924D01*
X490964Y42090D01*
X490894Y42257D01*
X490827Y42425D01*
X490765Y42596D01*
X490707Y42767D01*
X490653Y42940D01*
X490603Y43115D01*
X490558Y43290D01*
X490517Y43467D01*
X490480Y43644D01*
X490447Y43822D01*
X490419Y44001D01*
X490395Y44181D01*
X490375Y44361D01*
X490360Y44542D01*
X490349Y44723D01*
X490342Y44904D01*
X490340Y45085D01*
D36*
X214155Y131915D03*
X219155Y131915D03*
X224155Y131915D03*
X229155Y131915D03*
X234155Y131915D03*
D37*
X237655Y140415D03*
X237655Y145415D03*
X237655Y150415D03*
D36*
X234155Y158915D03*
X229155Y158915D03*
X224155Y158915D03*
X219155Y158915D03*
X214155Y158915D03*
D37*
X210655Y150415D03*
X210655Y145415D03*
X210655Y140415D03*
D38*
X265945Y126485D03*
X265945Y131485D03*
X265945Y136485D03*
X265945Y141485D03*
D39*
X260945Y141485D03*
X255945Y141485D03*
D38*
X250945Y141485D03*
X250945Y136485D03*
X250945Y131485D03*
X250945Y126485D03*
D39*
X255945Y126485D03*
X260945Y126485D03*
D31*
X261620Y180585D03*
X261620Y163585D03*
D40*
X248475Y109235D03*
X258475Y109235D03*
X268475Y109235D03*
X278475Y109235D03*
X278475Y95235D03*
X268475Y95235D03*
X258475Y95235D03*
X248475Y95235D03*
D28*
X304555Y114935D03*
X321555Y114935D03*
D41*
X224790Y106680D03*
D42*
X213290Y114180D03*
X213290Y109180D03*
X213290Y104180D03*
X213290Y99180D03*
X236290Y99180D03*
X236290Y104180D03*
X236290Y109180D03*
X236290Y114180D03*
D43*
X322935Y172720D03*
X287935Y172720D03*
D44*
X305435Y160220D03*
X305435Y185220D03*
D45*
X299185Y168470D03*
X299185Y176970D03*
X311685Y176970D03*
X311685Y168470D03*
D46*
X224410Y60100D03*
X224410Y66600D03*
X224410Y73100D03*
X224410Y79600D03*
X240410Y79600D03*
X240410Y73100D03*
X240410Y66600D03*
X240410Y60100D03*
D33*
X439085Y173745D03*
X439085Y190745D03*
X430085Y173745D03*
X422085Y173745D03*
X413085Y173745D03*
X413085Y190745D03*
X430085Y190745D03*
X422085Y190745D03*
D31*
X248285Y180585D03*
X248285Y163585D03*
X57150Y205350D03*
X57150Y188350D03*
D47*
X97950Y156040D03*
X117950Y156040D03*
D48*
X73950Y208040D03*
X141950Y208040D03*
M02*
