M48
;GenerationSoftware,Autodesk,EAGLE,9.6.2*%
;CreationDate,2022-08-08T07:53:58Z*%
FMAT,2
ICI,OFF
METRIC,TZ,000.000
T4C0.500
T3C0.800
T2C1.000
T1C2.000
%
G90
M71
T1
X3000Y3000
X3000Y20080
X28840Y3000
X28840Y20080
T2
X7110Y2794
X9650Y2794
X12190Y2794
X14730Y2794
X17270Y2794
X19810Y2794
X22350Y2794
X24890Y2794
T3
X28080Y16055
X28080Y6805
T4
X15748Y10922
X7620Y10922
X14478Y11811
X6604Y11938
X13462Y12954
X2286Y8382
X2286Y6858
X1778Y13462
X7620Y9398
X10922Y18542
X11303Y19812
X23622Y19431
X19050Y10160
M30