<?xml version="1.0" standalone="no"?>
 <!DOCTYPE svg PUBLIC "-//W3C//DTD SVG 1.1//EN" 
 "http://www.w3.org/Graphics/SVG/1.1/DTD/svg11.dtd"> 
<svg
  xmlns:svg="http://www.w3.org/2000/svg"
  xmlns="http://www.w3.org/2000/svg"
  xmlns:xlink="http://www.w3.org/1999/xlink"
  version="1.1"
  width="29.700220cm" height="21.000720cm" viewBox="0 0 297002200 210007200">
<title>SVG Picture created as boardKicad-B_Fab.svg date 2022/08/16 06:08:29 </title>
  <desc>Picture generated by PCBNEW </desc>
<g style="fill:#000000; fill-opacity:1.000000;stroke:#000000; stroke-opacity:1.000000;
stroke-linecap:round; stroke-linejoin:round;"
 transform="translate(0 0) scale(1 1)">
</g>
<g style="fill:#000000; fill-opacity:0.0; 
stroke:#000000; stroke-width:0.000000; stroke-opacity:1; 
stroke-linecap:round; stroke-linejoin:round;">
</g>
<g style="fill:#000000; fill-opacity:0.0; 
stroke:#000000; stroke-width:21200.000000; stroke-opacity:1; 
stroke-linecap:round; stroke-linejoin:round;">
</g>
<g style="fill:#000000; fill-opacity:0.0; 
stroke:#000000; stroke-width:150000.000000; stroke-opacity:1; 
stroke-linecap:round; stroke-linejoin:round;">
<rect x="177002200.000000" y="166007200.000000" width="108000000.000000" height="32000000.000000" rx="0.000000" />
</g>
<g style="fill:#000000; fill-opacity:0.0; 
stroke:#000000; stroke-width:21200.000000; stroke-opacity:1; 
stroke-linecap:round; stroke-linejoin:round;">
</g>
<g style="fill:#000000; fill-opacity:0.0; 
stroke:#000000; stroke-width:150000.000000; stroke-opacity:1; 
stroke-linecap:round; stroke-linejoin:round;">
<rect x="10000000.000000" y="10000000.000000" width="277002200.000000" height="190007200.000000" rx="0.000000" />
</g>
<g style="fill:#000000; fill-opacity:0.0; 
stroke:#000000; stroke-width:21200.000000; stroke-opacity:1; 
stroke-linecap:round; stroke-linejoin:round;">
</g>
<g style="fill:#000000; fill-opacity:0.0; 
stroke:#000000; stroke-width:150000.000000; stroke-opacity:1; 
stroke-linecap:round; stroke-linejoin:round;">
<rect x="12000000.000000" y="12000000.000000" width="273002200.000000" height="186007200.000000" rx="0.000000" />
</g>
<g style="fill:#000000; fill-opacity:0.0; 
stroke:#000000; stroke-width:21200.000000; stroke-opacity:1; 
stroke-linecap:round; stroke-linejoin:round;">
</g>
<g style="fill:#000000; fill-opacity:0.0; 
stroke:#000000; stroke-width:150000.000000; stroke-opacity:1; 
stroke-linecap:round; stroke-linejoin:round;">
<path d="M60000000 12000000
L60000000 10000000
" />
</g>
<g style="fill:#000000; fill-opacity:0.0; 
stroke:#000000; stroke-width:21200.000000; stroke-opacity:1; 
stroke-linecap:round; stroke-linejoin:round;">
</g>
<g style="fill:#000000; fill-opacity:0.0; 
stroke:#000000; stroke-width:150000.000000; stroke-opacity:1; 
stroke-linecap:round; stroke-linejoin:round;">
<path d="M110000000 12000000
L110000000 10000000
" />
</g>
<g style="fill:#000000; fill-opacity:0.0; 
stroke:#000000; stroke-width:21200.000000; stroke-opacity:1; 
stroke-linecap:round; stroke-linejoin:round;">
</g>
<g style="fill:#000000; fill-opacity:0.0; 
stroke:#000000; stroke-width:150000.000000; stroke-opacity:1; 
stroke-linecap:round; stroke-linejoin:round;">
<path d="M160000000 12000000
L160000000 10000000
" />
</g>
<g style="fill:#000000; fill-opacity:0.0; 
stroke:#000000; stroke-width:21200.000000; stroke-opacity:1; 
stroke-linecap:round; stroke-linejoin:round;">
</g>
<g style="fill:#000000; fill-opacity:0.0; 
stroke:#000000; stroke-width:150000.000000; stroke-opacity:1; 
stroke-linecap:round; stroke-linejoin:round;">
<path d="M210000000 12000000
L210000000 10000000
" />
</g>
<g style="fill:#000000; fill-opacity:0.0; 
stroke:#000000; stroke-width:21200.000000; stroke-opacity:1; 
stroke-linecap:round; stroke-linejoin:round;">
</g>
<g style="fill:#000000; fill-opacity:0.0; 
stroke:#000000; stroke-width:150000.000000; stroke-opacity:1; 
stroke-linecap:round; stroke-linejoin:round;">
<path d="M260000000 12000000
L260000000 10000000
" />
</g>
<g style="fill:#000000; fill-opacity:0.0; 
stroke:#000000; stroke-width:21200.000000; stroke-opacity:1; 
stroke-linecap:round; stroke-linejoin:round;">
</g>
<g style="fill:#000000; fill-opacity:0.0; 
stroke:#000000; stroke-width:150000.000000; stroke-opacity:1; 
stroke-linecap:round; stroke-linejoin:round;">
<text x="35000000.000000" y="11650000.000000"
textLength="1388095.000000" font-size="1733333.000000" lengthAdjust="spacingAndGlyphs"
text-anchor="start" opacity="0">1</text>
<g class="stroked-text"><desc>1</desc>
<path d="M36065476 11588095
L35322619 11588095
" />
<path d="M35694047 11588095
L35694047 10288095
L35570238 10473809
L35446428 10597619
L35322619 10659523
" />
</g></g>
<g style="fill:#000000; fill-opacity:0.0; 
stroke:#000000; stroke-width:21200.000000; stroke-opacity:1; 
stroke-linecap:round; stroke-linejoin:round;">
</g>
<g style="fill:#000000; fill-opacity:0.0; 
stroke:#000000; stroke-width:150000.000000; stroke-opacity:1; 
stroke-linecap:round; stroke-linejoin:round;">
<text x="85000000.000000" y="11650000.000000"
textLength="1388095.000000" font-size="1733333.000000" lengthAdjust="spacingAndGlyphs"
text-anchor="start" opacity="0">2</text>
<g class="stroked-text"><desc>2</desc>
<path d="M85322619 10411904
L85384523 10350000
L85508333 10288095
L85817857 10288095
L85941666 10350000
L86003571 10411904
L86065476 10535714
L86065476 10659523
L86003571 10845238
L85260714 11588095
L86065476 11588095
" />
</g></g>
<g style="fill:#000000; fill-opacity:0.0; 
stroke:#000000; stroke-width:21200.000000; stroke-opacity:1; 
stroke-linecap:round; stroke-linejoin:round;">
</g>
<g style="fill:#000000; fill-opacity:0.0; 
stroke:#000000; stroke-width:150000.000000; stroke-opacity:1; 
stroke-linecap:round; stroke-linejoin:round;">
<text x="135000000.000000" y="11650000.000000"
textLength="1388095.000000" font-size="1733333.000000" lengthAdjust="spacingAndGlyphs"
text-anchor="start" opacity="0">3</text>
<g class="stroked-text"><desc>3</desc>
<path d="M135260714 10288095
L136065476 10288095
L135632142 10783333
L135817857 10783333
L135941666 10845238
L136003571 10907142
L136065476 11030952
L136065476 11340476
L136003571 11464285
L135941666 11526190
L135817857 11588095
L135446428 11588095
L135322619 11526190
L135260714 11464285
" />
</g></g>
<g style="fill:#000000; fill-opacity:0.0; 
stroke:#000000; stroke-width:21200.000000; stroke-opacity:1; 
stroke-linecap:round; stroke-linejoin:round;">
</g>
<g style="fill:#000000; fill-opacity:0.0; 
stroke:#000000; stroke-width:150000.000000; stroke-opacity:1; 
stroke-linecap:round; stroke-linejoin:round;">
<text x="185000000.000000" y="11650000.000000"
textLength="1388095.000000" font-size="1733333.000000" lengthAdjust="spacingAndGlyphs"
text-anchor="start" opacity="0">4</text>
<g class="stroked-text"><desc>4</desc>
<path d="M185941666 10721428
L185941666 11588095
" />
<path d="M185632142 10226190
L185322619 11154761
L186127380 11154761
" />
</g></g>
<g style="fill:#000000; fill-opacity:0.0; 
stroke:#000000; stroke-width:21200.000000; stroke-opacity:1; 
stroke-linecap:round; stroke-linejoin:round;">
</g>
<g style="fill:#000000; fill-opacity:0.0; 
stroke:#000000; stroke-width:150000.000000; stroke-opacity:1; 
stroke-linecap:round; stroke-linejoin:round;">
<text x="235000000.000000" y="11650000.000000"
textLength="1388095.000000" font-size="1733333.000000" lengthAdjust="spacingAndGlyphs"
text-anchor="start" opacity="0">5</text>
<g class="stroked-text"><desc>5</desc>
<path d="M236003571 10288095
L235384523 10288095
L235322619 10907142
L235384523 10845238
L235508333 10783333
L235817857 10783333
L235941666 10845238
L236003571 10907142
L236065476 11030952
L236065476 11340476
L236003571 11464285
L235941666 11526190
L235817857 11588095
L235508333 11588095
L235384523 11526190
L235322619 11464285
" />
</g></g>
<g style="fill:#000000; fill-opacity:0.0; 
stroke:#000000; stroke-width:21200.000000; stroke-opacity:1; 
stroke-linecap:round; stroke-linejoin:round;">
</g>
<g style="fill:#000000; fill-opacity:0.0; 
stroke:#000000; stroke-width:150000.000000; stroke-opacity:1; 
stroke-linecap:round; stroke-linejoin:round;">
<text x="285000000.000000" y="11650000.000000"
textLength="1388095.000000" font-size="1733333.000000" lengthAdjust="spacingAndGlyphs"
text-anchor="start" opacity="0">6</text>
<g class="stroked-text"><desc>6</desc>
<path d="M285941666 10288095
L285694047 10288095
L285570238 10350000
L285508333 10411904
L285384523 10597619
L285322619 10845238
L285322619 11340476
L285384523 11464285
L285446428 11526190
L285570238 11588095
L285817857 11588095
L285941666 11526190
L286003571 11464285
L286065476 11340476
L286065476 11030952
L286003571 10907142
L285941666 10845238
L285817857 10783333
L285570238 10783333
L285446428 10845238
L285384523 10907142
L285322619 11030952
" />
</g></g>
<g style="fill:#000000; fill-opacity:0.0; 
stroke:#000000; stroke-width:21200.000000; stroke-opacity:1; 
stroke-linecap:round; stroke-linejoin:round;">
</g>
<g style="fill:#000000; fill-opacity:0.0; 
stroke:#000000; stroke-width:150000.000000; stroke-opacity:1; 
stroke-linecap:round; stroke-linejoin:round;">
<path d="M60000000 198007200
L60000000 200007200
" />
</g>
<g style="fill:#000000; fill-opacity:0.0; 
stroke:#000000; stroke-width:21200.000000; stroke-opacity:1; 
stroke-linecap:round; stroke-linejoin:round;">
</g>
<g style="fill:#000000; fill-opacity:0.0; 
stroke:#000000; stroke-width:150000.000000; stroke-opacity:1; 
stroke-linecap:round; stroke-linejoin:round;">
<path d="M110000000 198007200
L110000000 200007200
" />
</g>
<g style="fill:#000000; fill-opacity:0.0; 
stroke:#000000; stroke-width:21200.000000; stroke-opacity:1; 
stroke-linecap:round; stroke-linejoin:round;">
</g>
<g style="fill:#000000; fill-opacity:0.0; 
stroke:#000000; stroke-width:150000.000000; stroke-opacity:1; 
stroke-linecap:round; stroke-linejoin:round;">
<path d="M160000000 198007200
L160000000 200007200
" />
</g>
<g style="fill:#000000; fill-opacity:0.0; 
stroke:#000000; stroke-width:21200.000000; stroke-opacity:1; 
stroke-linecap:round; stroke-linejoin:round;">
</g>
<g style="fill:#000000; fill-opacity:0.0; 
stroke:#000000; stroke-width:150000.000000; stroke-opacity:1; 
stroke-linecap:round; stroke-linejoin:round;">
<path d="M210000000 198007200
L210000000 200007200
" />
</g>
<g style="fill:#000000; fill-opacity:0.0; 
stroke:#000000; stroke-width:21200.000000; stroke-opacity:1; 
stroke-linecap:round; stroke-linejoin:round;">
</g>
<g style="fill:#000000; fill-opacity:0.0; 
stroke:#000000; stroke-width:150000.000000; stroke-opacity:1; 
stroke-linecap:round; stroke-linejoin:round;">
<path d="M260000000 198007200
L260000000 200007200
" />
</g>
<g style="fill:#000000; fill-opacity:0.0; 
stroke:#000000; stroke-width:21200.000000; stroke-opacity:1; 
stroke-linecap:round; stroke-linejoin:round;">
</g>
<g style="fill:#000000; fill-opacity:0.0; 
stroke:#000000; stroke-width:150000.000000; stroke-opacity:1; 
stroke-linecap:round; stroke-linejoin:round;">
<text x="35000000.000000" y="199657200.000000"
textLength="1388095.000000" font-size="1733333.000000" lengthAdjust="spacingAndGlyphs"
text-anchor="start" opacity="0">1</text>
<g class="stroked-text"><desc>1</desc>
<path d="M36065476 199595295
L35322619 199595295
" />
<path d="M35694047 199595295
L35694047 198295295
L35570238 198481009
L35446428 198604819
L35322619 198666723
" />
</g></g>
<g style="fill:#000000; fill-opacity:0.0; 
stroke:#000000; stroke-width:21200.000000; stroke-opacity:1; 
stroke-linecap:round; stroke-linejoin:round;">
</g>
<g style="fill:#000000; fill-opacity:0.0; 
stroke:#000000; stroke-width:150000.000000; stroke-opacity:1; 
stroke-linecap:round; stroke-linejoin:round;">
<text x="85000000.000000" y="199657200.000000"
textLength="1388095.000000" font-size="1733333.000000" lengthAdjust="spacingAndGlyphs"
text-anchor="start" opacity="0">2</text>
<g class="stroked-text"><desc>2</desc>
<path d="M85322619 198419104
L85384523 198357200
L85508333 198295295
L85817857 198295295
L85941666 198357200
L86003571 198419104
L86065476 198542914
L86065476 198666723
L86003571 198852438
L85260714 199595295
L86065476 199595295
" />
</g></g>
<g style="fill:#000000; fill-opacity:0.0; 
stroke:#000000; stroke-width:21200.000000; stroke-opacity:1; 
stroke-linecap:round; stroke-linejoin:round;">
</g>
<g style="fill:#000000; fill-opacity:0.0; 
stroke:#000000; stroke-width:150000.000000; stroke-opacity:1; 
stroke-linecap:round; stroke-linejoin:round;">
<text x="135000000.000000" y="199657200.000000"
textLength="1388095.000000" font-size="1733333.000000" lengthAdjust="spacingAndGlyphs"
text-anchor="start" opacity="0">3</text>
<g class="stroked-text"><desc>3</desc>
<path d="M135260714 198295295
L136065476 198295295
L135632142 198790533
L135817857 198790533
L135941666 198852438
L136003571 198914342
L136065476 199038152
L136065476 199347676
L136003571 199471485
L135941666 199533390
L135817857 199595295
L135446428 199595295
L135322619 199533390
L135260714 199471485
" />
</g></g>
<g style="fill:#000000; fill-opacity:0.0; 
stroke:#000000; stroke-width:21200.000000; stroke-opacity:1; 
stroke-linecap:round; stroke-linejoin:round;">
</g>
<g style="fill:#000000; fill-opacity:0.0; 
stroke:#000000; stroke-width:150000.000000; stroke-opacity:1; 
stroke-linecap:round; stroke-linejoin:round;">
<text x="185000000.000000" y="199657200.000000"
textLength="1388095.000000" font-size="1733333.000000" lengthAdjust="spacingAndGlyphs"
text-anchor="start" opacity="0">4</text>
<g class="stroked-text"><desc>4</desc>
<path d="M185941666 198728628
L185941666 199595295
" />
<path d="M185632142 198233390
L185322619 199161961
L186127380 199161961
" />
</g></g>
<g style="fill:#000000; fill-opacity:0.0; 
stroke:#000000; stroke-width:21200.000000; stroke-opacity:1; 
stroke-linecap:round; stroke-linejoin:round;">
</g>
<g style="fill:#000000; fill-opacity:0.0; 
stroke:#000000; stroke-width:150000.000000; stroke-opacity:1; 
stroke-linecap:round; stroke-linejoin:round;">
<text x="235000000.000000" y="199657200.000000"
textLength="1388095.000000" font-size="1733333.000000" lengthAdjust="spacingAndGlyphs"
text-anchor="start" opacity="0">5</text>
<g class="stroked-text"><desc>5</desc>
<path d="M236003571 198295295
L235384523 198295295
L235322619 198914342
L235384523 198852438
L235508333 198790533
L235817857 198790533
L235941666 198852438
L236003571 198914342
L236065476 199038152
L236065476 199347676
L236003571 199471485
L235941666 199533390
L235817857 199595295
L235508333 199595295
L235384523 199533390
L235322619 199471485
" />
</g></g>
<g style="fill:#000000; fill-opacity:0.0; 
stroke:#000000; stroke-width:21200.000000; stroke-opacity:1; 
stroke-linecap:round; stroke-linejoin:round;">
</g>
<g style="fill:#000000; fill-opacity:0.0; 
stroke:#000000; stroke-width:150000.000000; stroke-opacity:1; 
stroke-linecap:round; stroke-linejoin:round;">
<text x="285000000.000000" y="199657200.000000"
textLength="1388095.000000" font-size="1733333.000000" lengthAdjust="spacingAndGlyphs"
text-anchor="start" opacity="0">6</text>
<g class="stroked-text"><desc>6</desc>
<path d="M285941666 198295295
L285694047 198295295
L285570238 198357200
L285508333 198419104
L285384523 198604819
L285322619 198852438
L285322619 199347676
L285384523 199471485
L285446428 199533390
L285570238 199595295
L285817857 199595295
L285941666 199533390
L286003571 199471485
L286065476 199347676
L286065476 199038152
L286003571 198914342
L285941666 198852438
L285817857 198790533
L285570238 198790533
L285446428 198852438
L285384523 198914342
L285322619 199038152
" />
</g></g>
<g style="fill:#000000; fill-opacity:0.0; 
stroke:#000000; stroke-width:21200.000000; stroke-opacity:1; 
stroke-linecap:round; stroke-linejoin:round;">
</g>
<g style="fill:#000000; fill-opacity:0.0; 
stroke:#000000; stroke-width:150000.000000; stroke-opacity:1; 
stroke-linecap:round; stroke-linejoin:round;">
<path d="M10000000 60000000
L12000000 60000000
" />
</g>
<g style="fill:#000000; fill-opacity:0.0; 
stroke:#000000; stroke-width:21200.000000; stroke-opacity:1; 
stroke-linecap:round; stroke-linejoin:round;">
</g>
<g style="fill:#000000; fill-opacity:0.0; 
stroke:#000000; stroke-width:150000.000000; stroke-opacity:1; 
stroke-linecap:round; stroke-linejoin:round;">
<path d="M10000000 110000000
L12000000 110000000
" />
</g>
<g style="fill:#000000; fill-opacity:0.0; 
stroke:#000000; stroke-width:21200.000000; stroke-opacity:1; 
stroke-linecap:round; stroke-linejoin:round;">
</g>
<g style="fill:#000000; fill-opacity:0.0; 
stroke:#000000; stroke-width:150000.000000; stroke-opacity:1; 
stroke-linecap:round; stroke-linejoin:round;">
<path d="M10000000 160000000
L12000000 160000000
" />
</g>
<g style="fill:#000000; fill-opacity:0.0; 
stroke:#000000; stroke-width:21200.000000; stroke-opacity:1; 
stroke-linecap:round; stroke-linejoin:round;">
</g>
<g style="fill:#000000; fill-opacity:0.0; 
stroke:#000000; stroke-width:150000.000000; stroke-opacity:1; 
stroke-linecap:round; stroke-linejoin:round;">
<text x="11000000.000000" y="35650000.000000"
textLength="1264286.000000" font-size="1733333.000000" lengthAdjust="spacingAndGlyphs"
text-anchor="middle" opacity="0">A</text>
<g class="stroked-text"><desc>A</desc>
<path d="M10690476 35216666
L11309523 35216666
" />
<path d="M10566666 35588095
L11000000 34288095
L11433333 35588095
" />
</g></g>
<g style="fill:#000000; fill-opacity:0.0; 
stroke:#000000; stroke-width:21200.000000; stroke-opacity:1; 
stroke-linecap:round; stroke-linejoin:round;">
</g>
<g style="fill:#000000; fill-opacity:0.0; 
stroke:#000000; stroke-width:150000.000000; stroke-opacity:1; 
stroke-linecap:round; stroke-linejoin:round;">
<text x="11000000.000000" y="85650000.000000"
textLength="1450000.000000" font-size="1733333.000000" lengthAdjust="spacingAndGlyphs"
text-anchor="middle" opacity="0">B</text>
<g class="stroked-text"><desc>B</desc>
<path d="M11092857 84907142
L11278571 84969047
L11340476 85030952
L11402380 85154761
L11402380 85340476
L11340476 85464285
L11278571 85526190
L11154761 85588095
L10659523 85588095
L10659523 84288095
L11092857 84288095
L11216666 84350000
L11278571 84411904
L11340476 84535714
L11340476 84659523
L11278571 84783333
L11216666 84845238
L11092857 84907142
L10659523 84907142
" />
</g></g>
<g style="fill:#000000; fill-opacity:0.0; 
stroke:#000000; stroke-width:21200.000000; stroke-opacity:1; 
stroke-linecap:round; stroke-linejoin:round;">
</g>
<g style="fill:#000000; fill-opacity:0.0; 
stroke:#000000; stroke-width:150000.000000; stroke-opacity:1; 
stroke-linecap:round; stroke-linejoin:round;">
<text x="11000000.000000" y="135650000.000000"
textLength="1450000.000000" font-size="1733333.000000" lengthAdjust="spacingAndGlyphs"
text-anchor="middle" opacity="0">C</text>
<g class="stroked-text"><desc>C</desc>
<path d="M11402380 135464285
L11340476 135526190
L11154761 135588095
L11030952 135588095
L10845238 135526190
L10721428 135402380
L10659523 135278571
L10597619 135030952
L10597619 134845238
L10659523 134597619
L10721428 134473809
L10845238 134350000
L11030952 134288095
L11154761 134288095
L11340476 134350000
L11402380 134411904
" />
</g></g>
<g style="fill:#000000; fill-opacity:0.0; 
stroke:#000000; stroke-width:21200.000000; stroke-opacity:1; 
stroke-linecap:round; stroke-linejoin:round;">
</g>
<g style="fill:#000000; fill-opacity:0.0; 
stroke:#000000; stroke-width:150000.000000; stroke-opacity:1; 
stroke-linecap:round; stroke-linejoin:round;">
<text x="11000000.000000" y="185650000.000000"
textLength="1450000.000000" font-size="1733333.000000" lengthAdjust="spacingAndGlyphs"
text-anchor="middle" opacity="0">D</text>
<g class="stroked-text"><desc>D</desc>
<path d="M10659523 185588095
L10659523 184288095
L10969047 184288095
L11154761 184350000
L11278571 184473809
L11340476 184597619
L11402380 184845238
L11402380 185030952
L11340476 185278571
L11278571 185402380
L11154761 185526190
L10969047 185588095
L10659523 185588095
" />
</g></g>
<g style="fill:#000000; fill-opacity:0.0; 
stroke:#000000; stroke-width:21200.000000; stroke-opacity:1; 
stroke-linecap:round; stroke-linejoin:round;">
</g>
<g style="fill:#000000; fill-opacity:0.0; 
stroke:#000000; stroke-width:150000.000000; stroke-opacity:1; 
stroke-linecap:round; stroke-linejoin:round;">
<path d="M287002200 60000000
L285002200 60000000
" />
</g>
<g style="fill:#000000; fill-opacity:0.0; 
stroke:#000000; stroke-width:21200.000000; stroke-opacity:1; 
stroke-linecap:round; stroke-linejoin:round;">
</g>
<g style="fill:#000000; fill-opacity:0.0; 
stroke:#000000; stroke-width:150000.000000; stroke-opacity:1; 
stroke-linecap:round; stroke-linejoin:round;">
<path d="M287002200 110000000
L285002200 110000000
" />
</g>
<g style="fill:#000000; fill-opacity:0.0; 
stroke:#000000; stroke-width:21200.000000; stroke-opacity:1; 
stroke-linecap:round; stroke-linejoin:round;">
</g>
<g style="fill:#000000; fill-opacity:0.0; 
stroke:#000000; stroke-width:150000.000000; stroke-opacity:1; 
stroke-linecap:round; stroke-linejoin:round;">
<path d="M287002200 160000000
L285002200 160000000
" />
</g>
<g style="fill:#000000; fill-opacity:0.0; 
stroke:#000000; stroke-width:21200.000000; stroke-opacity:1; 
stroke-linecap:round; stroke-linejoin:round;">
</g>
<g style="fill:#000000; fill-opacity:0.0; 
stroke:#000000; stroke-width:150000.000000; stroke-opacity:1; 
stroke-linecap:round; stroke-linejoin:round;">
<text x="286002200.000000" y="35650000.000000"
textLength="1264286.000000" font-size="1733333.000000" lengthAdjust="spacingAndGlyphs"
text-anchor="middle" opacity="0">A</text>
<g class="stroked-text"><desc>A</desc>
<path d="M285692676 35216666
L286311723 35216666
" />
<path d="M285568866 35588095
L286002200 34288095
L286435533 35588095
" />
</g></g>
<g style="fill:#000000; fill-opacity:0.0; 
stroke:#000000; stroke-width:21200.000000; stroke-opacity:1; 
stroke-linecap:round; stroke-linejoin:round;">
</g>
<g style="fill:#000000; fill-opacity:0.0; 
stroke:#000000; stroke-width:150000.000000; stroke-opacity:1; 
stroke-linecap:round; stroke-linejoin:round;">
<text x="286002200.000000" y="85650000.000000"
textLength="1450000.000000" font-size="1733333.000000" lengthAdjust="spacingAndGlyphs"
text-anchor="middle" opacity="0">B</text>
<g class="stroked-text"><desc>B</desc>
<path d="M286095057 84907142
L286280771 84969047
L286342676 85030952
L286404580 85154761
L286404580 85340476
L286342676 85464285
L286280771 85526190
L286156961 85588095
L285661723 85588095
L285661723 84288095
L286095057 84288095
L286218866 84350000
L286280771 84411904
L286342676 84535714
L286342676 84659523
L286280771 84783333
L286218866 84845238
L286095057 84907142
L285661723 84907142
" />
</g></g>
<g style="fill:#000000; fill-opacity:0.0; 
stroke:#000000; stroke-width:21200.000000; stroke-opacity:1; 
stroke-linecap:round; stroke-linejoin:round;">
</g>
<g style="fill:#000000; fill-opacity:0.0; 
stroke:#000000; stroke-width:150000.000000; stroke-opacity:1; 
stroke-linecap:round; stroke-linejoin:round;">
<text x="286002200.000000" y="135650000.000000"
textLength="1450000.000000" font-size="1733333.000000" lengthAdjust="spacingAndGlyphs"
text-anchor="middle" opacity="0">C</text>
<g class="stroked-text"><desc>C</desc>
<path d="M286404580 135464285
L286342676 135526190
L286156961 135588095
L286033152 135588095
L285847438 135526190
L285723628 135402380
L285661723 135278571
L285599819 135030952
L285599819 134845238
L285661723 134597619
L285723628 134473809
L285847438 134350000
L286033152 134288095
L286156961 134288095
L286342676 134350000
L286404580 134411904
" />
</g></g>
<g style="fill:#000000; fill-opacity:0.0; 
stroke:#000000; stroke-width:21200.000000; stroke-opacity:1; 
stroke-linecap:round; stroke-linejoin:round;">
</g>
<g style="fill:#000000; fill-opacity:0.0; 
stroke:#000000; stroke-width:150000.000000; stroke-opacity:1; 
stroke-linecap:round; stroke-linejoin:round;">
<text x="286002200.000000" y="185650000.000000"
textLength="1450000.000000" font-size="1733333.000000" lengthAdjust="spacingAndGlyphs"
text-anchor="middle" opacity="0">D</text>
<g class="stroked-text"><desc>D</desc>
<path d="M285661723 185588095
L285661723 184288095
L285971247 184288095
L286156961 184350000
L286280771 184473809
L286342676 184597619
L286404580 184845238
L286404580 185030952
L286342676 185278571
L286280771 185402380
L286156961 185526190
L285971247 185588095
L285661723 185588095
" />
</g></g>
<g style="fill:#000000; fill-opacity:0.0; 
stroke:#000000; stroke-width:21200.000000; stroke-opacity:1; 
stroke-linecap:round; stroke-linejoin:round;">
</g>
<g style="fill:#000000; fill-opacity:0.0; 
stroke:#000000; stroke-width:150000.000000; stroke-opacity:1; 
stroke-linecap:round; stroke-linejoin:round;">
<text x="200002200.000000" y="193857200.000000"
textLength="7007143.000000" font-size="2000000.000000" lengthAdjust="spacingAndGlyphs"
text-anchor="start" opacity="0">Date: </text>
<g class="stroked-text"><desc>Date: </desc>
<path d="M200434342 193785771
L200434342 192285771
L200791485 192285771
L201005771 192357200
L201148628 192500057
L201220057 192642914
L201291485 192928628
L201291485 193142914
L201220057 193428628
L201148628 193571485
L201005771 193714342
L200791485 193785771
L200434342 193785771
" />
<path d="M202577200 193785771
L202577200 193000057
L202505771 192857200
L202362914 192785771
L202077200 192785771
L201934342 192857200
" />
<path d="M202577200 193714342
L202434342 193785771
L202077200 193785771
L201934342 193714342
L201862914 193571485
L201862914 193428628
L201934342 193285771
L202077200 193214342
L202434342 193214342
L202577200 193142914
" />
<path d="M203077200 192785771
L203648628 192785771
" />
<path d="M203291485 192285771
L203291485 193571485
L203362914 193714342
L203505771 193785771
L203648628 193785771
" />
<path d="M204720057 193714342
L204577200 193785771
L204291485 193785771
L204148628 193714342
L204077200 193571485
L204077200 193000057
L204148628 192857200
L204291485 192785771
L204577200 192785771
L204720057 192857200
L204791485 193000057
L204791485 193142914
L204077200 193285771
" />
<path d="M205434342 193642914
L205505771 193714342
L205434342 193785771
L205362914 193714342
L205434342 193642914
L205434342 193785771
" />
<path d="M205434342 192857200
L205505771 192928628
L205434342 193000057
L205362914 192928628
L205434342 192857200
L205434342 193000057
" />
</g></g>
<g style="fill:#000000; fill-opacity:0.0; 
stroke:#000000; stroke-width:21200.000000; stroke-opacity:1; 
stroke-linecap:round; stroke-linejoin:round;">
</g>
<g style="fill:#000000; fill-opacity:0.0; 
stroke:#000000; stroke-width:150000.000000; stroke-opacity:1; 
stroke-linecap:round; stroke-linejoin:round;">
<path d="M177002200 194507200
L285002200 194507200
" />
</g>
<g style="fill:#000000; fill-opacity:0.0; 
stroke:#000000; stroke-width:21200.000000; stroke-opacity:1; 
stroke-linecap:round; stroke-linejoin:round;">
</g>
<g style="fill:#000000; fill-opacity:0.0; 
stroke:#000000; stroke-width:150000.000000; stroke-opacity:1; 
stroke-linecap:round; stroke-linejoin:round;">
<text x="178002200.000000" y="196657200.000000"
textLength="33364286.000000" font-size="2000000.000000" lengthAdjust="spacingAndGlyphs"
text-anchor="start" opacity="0">KiCad E.D.A.  pcbnew (6.0.6)</text>
<g class="stroked-text"><desc>KiCad E.D.A.  pcbnew (6.0.6)</desc>
<path d="M178434342 196585771
L178434342 195085771
" />
<path d="M179291485 196585771
L178648628 195728628
" />
<path d="M179291485 195085771
L178434342 195942914
" />
<path d="M179934342 196585771
L179934342 195585771
" />
<path d="M179934342 195085771
L179862914 195157200
L179934342 195228628
L180005771 195157200
L179934342 195085771
L179934342 195228628
" />
<path d="M181505771 196442914
L181434342 196514342
L181220057 196585771
L181077200 196585771
L180862914 196514342
L180720057 196371485
L180648628 196228628
L180577200 195942914
L180577200 195728628
L180648628 195442914
L180720057 195300057
L180862914 195157200
L181077200 195085771
L181220057 195085771
L181434342 195157200
L181505771 195228628
" />
<path d="M182791485 196585771
L182791485 195800057
L182720057 195657200
L182577200 195585771
L182291485 195585771
L182148628 195657200
" />
<path d="M182791485 196514342
L182648628 196585771
L182291485 196585771
L182148628 196514342
L182077200 196371485
L182077200 196228628
L182148628 196085771
L182291485 196014342
L182648628 196014342
L182791485 195942914
" />
<path d="M184148628 196585771
L184148628 195085771
" />
<path d="M184148628 196514342
L184005771 196585771
L183720057 196585771
L183577200 196514342
L183505771 196442914
L183434342 196300057
L183434342 195871485
L183505771 195728628
L183577200 195657200
L183720057 195585771
L184005771 195585771
L184148628 195657200
" />
<path d="M186005771 195800057
L186505771 195800057
" />
<path d="M186720057 196585771
L186005771 196585771
L186005771 195085771
L186720057 195085771
" />
<path d="M187362914 196442914
L187434342 196514342
L187362914 196585771
L187291485 196514342
L187362914 196442914
L187362914 196585771
" />
<path d="M188077200 196585771
L188077200 195085771
L188434342 195085771
L188648628 195157200
L188791485 195300057
L188862914 195442914
L188934342 195728628
L188934342 195942914
L188862914 196228628
L188791485 196371485
L188648628 196514342
L188434342 196585771
L188077200 196585771
" />
<path d="M189577200 196442914
L189648628 196514342
L189577200 196585771
L189505771 196514342
L189577200 196442914
L189577200 196585771
" />
<path d="M190220057 196157200
L190934342 196157200
" />
<path d="M190077200 196585771
L190577200 195085771
L191077200 196585771
" />
<path d="M191577200 196442914
L191648628 196514342
L191577200 196585771
L191505771 196514342
L191577200 196442914
L191577200 196585771
" />
<path d="M194577200 195585771
L194577200 197085771
" />
<path d="M194577200 195657200
L194720057 195585771
L195005771 195585771
L195148628 195657200
L195220057 195728628
L195291485 195871485
L195291485 196300057
L195220057 196442914
L195148628 196514342
L195005771 196585771
L194720057 196585771
L194577200 196514342
" />
<path d="M196577200 196514342
L196434342 196585771
L196148628 196585771
L196005771 196514342
L195934342 196442914
L195862914 196300057
L195862914 195871485
L195934342 195728628
L196005771 195657200
L196148628 195585771
L196434342 195585771
L196577200 195657200
" />
<path d="M197220057 196585771
L197220057 195085771
" />
<path d="M197220057 195657200
L197362914 195585771
L197648628 195585771
L197791485 195657200
L197862914 195728628
L197934342 195871485
L197934342 196300057
L197862914 196442914
L197791485 196514342
L197648628 196585771
L197362914 196585771
L197220057 196514342
" />
<path d="M198577200 195585771
L198577200 196585771
" />
<path d="M198577200 195728628
L198648628 195657200
L198791485 195585771
L199005771 195585771
L199148628 195657200
L199220057 195800057
L199220057 196585771
" />
<path d="M200505771 196514342
L200362914 196585771
L200077200 196585771
L199934342 196514342
L199862914 196371485
L199862914 195800057
L199934342 195657200
L200077200 195585771
L200362914 195585771
L200505771 195657200
L200577200 195800057
L200577200 195942914
L199862914 196085771
" />
<path d="M201077200 195585771
L201362914 196585771
L201648628 195871485
L201934342 196585771
L202220057 195585771
" />
<path d="M204362914 197157200
L204291485 197085771
L204148628 196871485
L204077200 196728628
L204005771 196514342
L203934342 196157200
L203934342 195871485
L204005771 195514342
L204077200 195300057
L204148628 195157200
L204291485 194942914
L204362914 194871485
" />
<path d="M205577200 195085771
L205291485 195085771
L205148628 195157200
L205077200 195228628
L204934342 195442914
L204862914 195728628
L204862914 196300057
L204934342 196442914
L205005771 196514342
L205148628 196585771
L205434342 196585771
L205577200 196514342
L205648628 196442914
L205720057 196300057
L205720057 195942914
L205648628 195800057
L205577200 195728628
L205434342 195657200
L205148628 195657200
L205005771 195728628
L204934342 195800057
L204862914 195942914
" />
<path d="M206362914 196442914
L206434342 196514342
L206362914 196585771
L206291485 196514342
L206362914 196442914
L206362914 196585771
" />
<path d="M207362914 195085771
L207505771 195085771
L207648628 195157200
L207720057 195228628
L207791485 195371485
L207862914 195657200
L207862914 196014342
L207791485 196300057
L207720057 196442914
L207648628 196514342
L207505771 196585771
L207362914 196585771
L207220057 196514342
L207148628 196442914
L207077200 196300057
L207005771 196014342
L207005771 195657200
L207077200 195371485
L207148628 195228628
L207220057 195157200
L207362914 195085771
" />
<path d="M208505771 196442914
L208577200 196514342
L208505771 196585771
L208434342 196514342
L208505771 196442914
L208505771 196585771
" />
<path d="M209862914 195085771
L209577200 195085771
L209434342 195157200
L209362914 195228628
L209220057 195442914
L209148628 195728628
L209148628 196300057
L209220057 196442914
L209291485 196514342
L209434342 196585771
L209720057 196585771
L209862914 196514342
L209934342 196442914
L210005771 196300057
L210005771 195942914
L209934342 195800057
L209862914 195728628
L209720057 195657200
L209434342 195657200
L209291485 195728628
L209220057 195800057
L209148628 195942914
" />
<path d="M210505771 197157200
L210577200 197085771
L210720057 196871485
L210791485 196728628
L210862914 196514342
L210934342 196157200
L210934342 195871485
L210862914 195514342
L210791485 195300057
L210720057 195157200
L210577200 194942914
L210505771 194871485
" />
</g></g>
<g style="fill:#000000; fill-opacity:0.0; 
stroke:#000000; stroke-width:21200.000000; stroke-opacity:1; 
stroke-linecap:round; stroke-linejoin:round;">
</g>
<g style="fill:#000000; fill-opacity:0.0; 
stroke:#000000; stroke-width:150000.000000; stroke-opacity:1; 
stroke-linecap:round; stroke-linejoin:round;">
<path d="M177002200 191507200
L285002200 191507200
" />
</g>
<g style="fill:#000000; fill-opacity:0.0; 
stroke:#000000; stroke-width:21200.000000; stroke-opacity:1; 
stroke-linecap:round; stroke-linejoin:round;">
</g>
<g style="fill:#000000; fill-opacity:0.0; 
stroke:#000000; stroke-width:300000.000000; stroke-opacity:1; 
stroke-linecap:round; stroke-linejoin:round;">
<text x="263002200.000000" y="193857200.000000"
textLength="5935714.000000" font-size="2000000.000000" lengthAdjust="spacingAndGlyphs"
text-anchor="start" opacity="0">Rev: </text>
<g class="stroked-text"><desc>Rev: </desc>
<path d="M264411485 193785771
L263911485 193071485
" />
<path d="M263554342 193785771
L263554342 192285771
L264125771 192285771
L264268628 192357200
L264340057 192428628
L264411485 192571485
L264411485 192785771
L264340057 192928628
L264268628 193000057
L264125771 193071485
L263554342 193071485
" />
<path d="M265625771 193714342
L265482914 193785771
L265197200 193785771
L265054342 193714342
L264982914 193571485
L264982914 193000057
L265054342 192857200
L265197200 192785771
L265482914 192785771
L265625771 192857200
L265697200 193000057
L265697200 193142914
L264982914 193285771
" />
<path d="M266197200 192785771
L266554342 193785771
L266911485 192785771
" />
<path d="M267482914 193642914
L267554342 193714342
L267482914 193785771
L267411485 193714342
L267482914 193642914
L267482914 193785771
" />
<path d="M267482914 192857200
L267554342 192928628
L267482914 193000057
L267411485 192928628
L267482914 192857200
L267482914 193000057
" />
</g></g>
<g style="fill:#000000; fill-opacity:0.0; 
stroke:#000000; stroke-width:21200.000000; stroke-opacity:1; 
stroke-linecap:round; stroke-linejoin:round;">
</g>
<g style="fill:#000000; fill-opacity:0.0; 
stroke:#000000; stroke-width:150000.000000; stroke-opacity:1; 
stroke-linecap:round; stroke-linejoin:round;">
<text x="178002200.000000" y="193857200.000000"
textLength="9604286.000000" font-size="2000000.000000" lengthAdjust="spacingAndGlyphs"
text-anchor="start" opacity="0">Size: A4</text>
<g class="stroked-text"><desc>Size: A4</desc>
<path d="M178362914 193714342
L178577200 193785771
L178934342 193785771
L179077200 193714342
L179148628 193642914
L179220057 193500057
L179220057 193357200
L179148628 193214342
L179077200 193142914
L178934342 193071485
L178648628 193000057
L178505771 192928628
L178434342 192857200
L178362914 192714342
L178362914 192571485
L178434342 192428628
L178505771 192357200
L178648628 192285771
L179005771 192285771
L179220057 192357200
" />
<path d="M179862914 193785771
L179862914 192785771
" />
<path d="M179862914 192285771
L179791485 192357200
L179862914 192428628
L179934342 192357200
L179862914 192285771
L179862914 192428628
" />
<path d="M180434342 192785771
L181220057 192785771
L180434342 193785771
L181220057 193785771
" />
<path d="M182362914 193714342
L182220057 193785771
L181934342 193785771
L181791485 193714342
L181720057 193571485
L181720057 193000057
L181791485 192857200
L181934342 192785771
L182220057 192785771
L182362914 192857200
L182434342 193000057
L182434342 193142914
L181720057 193285771
" />
<path d="M183077200 193642914
L183148628 193714342
L183077200 193785771
L183005771 193714342
L183077200 193642914
L183077200 193785771
" />
<path d="M183077200 192857200
L183148628 192928628
L183077200 193000057
L183005771 192928628
L183077200 192857200
L183077200 193000057
" />
<path d="M184862914 193357200
L185577200 193357200
" />
<path d="M184720057 193785771
L185220057 192285771
L185720057 193785771
" />
<path d="M186862914 192785771
L186862914 193785771
" />
<path d="M186505771 192214342
L186148628 193285771
L187077200 193285771
" />
</g></g>
<g style="fill:#000000; fill-opacity:0.0; 
stroke:#000000; stroke-width:21200.000000; stroke-opacity:1; 
stroke-linecap:round; stroke-linejoin:round;">
</g>
<g style="fill:#000000; fill-opacity:0.0; 
stroke:#000000; stroke-width:150000.000000; stroke-opacity:1; 
stroke-linecap:round; stroke-linejoin:round;">
<text x="263002200.000000" y="196657200.000000"
textLength="8507143.000000" font-size="2000000.000000" lengthAdjust="spacingAndGlyphs"
text-anchor="start" opacity="0">Id: 1/1</text>
<g class="stroked-text"><desc>Id: 1/1</desc>
<path d="M263434342 196585771
L263434342 195085771
" />
<path d="M264791485 196585771
L264791485 195085771
" />
<path d="M264791485 196514342
L264648628 196585771
L264362914 196585771
L264220057 196514342
L264148628 196442914
L264077200 196300057
L264077200 195871485
L264148628 195728628
L264220057 195657200
L264362914 195585771
L264648628 195585771
L264791485 195657200
" />
<path d="M265505771 196442914
L265577200 196514342
L265505771 196585771
L265434342 196514342
L265505771 196442914
L265505771 196585771
" />
<path d="M265505771 195657200
L265577200 195728628
L265505771 195800057
L265434342 195728628
L265505771 195657200
L265505771 195800057
" />
<path d="M268148628 196585771
L267291485 196585771
" />
<path d="M267720057 196585771
L267720057 195085771
L267577200 195300057
L267434342 195442914
L267291485 195514342
" />
<path d="M269862914 195014342
L268577200 196942914
" />
<path d="M271148628 196585771
L270291485 196585771
" />
<path d="M270720057 196585771
L270720057 195085771
L270577200 195300057
L270434342 195442914
L270291485 195514342
" />
</g></g>
<g style="fill:#000000; fill-opacity:0.0; 
stroke:#000000; stroke-width:21200.000000; stroke-opacity:1; 
stroke-linecap:round; stroke-linejoin:round;">
</g>
<g style="fill:#000000; fill-opacity:0.0; 
stroke:#000000; stroke-width:150000.000000; stroke-opacity:1; 
stroke-linecap:round; stroke-linejoin:round;">
<path d="M177002200 187507200
L285002200 187507200
" />
</g>
<g style="fill:#000000; fill-opacity:0.0; 
stroke:#000000; stroke-width:21200.000000; stroke-opacity:1; 
stroke-linecap:round; stroke-linejoin:round;">
</g>
<g style="fill:#000000; fill-opacity:0.0; 
stroke:#000000; stroke-width:400000.000000; stroke-opacity:1; 
stroke-linecap:round; stroke-linejoin:round;">
<text x="178002200.000000" y="190307200.000000"
textLength="9409643.000000" font-size="2666666.000000" lengthAdjust="spacingAndGlyphs"
text-anchor="start" opacity="0">Title: </text>
<g class="stroked-text"><desc>Title: </desc>
<path d="M178714580 188211961
L179857438 188211961
" />
<path d="M179036009 190211961
L179286009 188211961
" />
<path d="M180274104 190211961
L180440771 188878628
" />
<path d="M180524104 188211961
L180416961 188307200
L180500295 188402438
L180607438 188307200
L180524104 188211961
L180500295 188402438
" />
<path d="M181107438 188878628
L181869342 188878628
" />
<path d="M181476485 188211961
L181262200 189926247
L181333628 190116723
L181512200 190211961
L181702676 190211961
" />
<path d="M182655057 190211961
L182476485 190116723
L182405057 189926247
L182619342 188211961
" />
<path d="M184190771 190116723
L183988390 190211961
L183607438 190211961
L183428866 190116723
L183357438 189926247
L183452676 189164342
L183571723 188973866
L183774104 188878628
L184155057 188878628
L184333628 188973866
L184405057 189164342
L184381247 189354819
L183405057 189545295
" />
<path d="M185155057 190021485
L185238390 190116723
L185131247 190211961
L185047914 190116723
L185155057 190021485
L185131247 190211961
" />
<path d="M185286009 188973866
L185369342 189069104
L185262200 189164342
L185178866 189069104
L185286009 188973866
L185262200 189164342
" />
</g></g>
<g style="fill:#000000; fill-opacity:0.0; 
stroke:#000000; stroke-width:21200.000000; stroke-opacity:1; 
stroke-linecap:round; stroke-linejoin:round;">
</g>
<g style="fill:#000000; fill-opacity:0.0; 
stroke:#000000; stroke-width:150000.000000; stroke-opacity:1; 
stroke-linecap:round; stroke-linejoin:round;">
<text x="178002200.000000" y="186457200.000000"
textLength="30805714.000000" font-size="2000000.000000" lengthAdjust="spacingAndGlyphs"
text-anchor="start" opacity="0">File: boardKicad.kicad_pcb</text>
<g class="stroked-text"><desc>File: boardKicad.kicad_pcb</desc>
<path d="M178934342 185600057
L178434342 185600057
" />
<path d="M178434342 186385771
L178434342 184885771
L179148628 184885771
" />
<path d="M179720057 186385771
L179720057 185385771
" />
<path d="M179720057 184885771
L179648628 184957200
L179720057 185028628
L179791485 184957200
L179720057 184885771
L179720057 185028628
" />
<path d="M180648628 186385771
L180505771 186314342
L180434342 186171485
L180434342 184885771
" />
<path d="M181791485 186314342
L181648628 186385771
L181362914 186385771
L181220057 186314342
L181148628 186171485
L181148628 185600057
L181220057 185457200
L181362914 185385771
L181648628 185385771
L181791485 185457200
L181862914 185600057
L181862914 185742914
L181148628 185885771
" />
<path d="M182505771 186242914
L182577200 186314342
L182505771 186385771
L182434342 186314342
L182505771 186242914
L182505771 186385771
" />
<path d="M182505771 185457200
L182577200 185528628
L182505771 185600057
L182434342 185528628
L182505771 185457200
L182505771 185600057
" />
<path d="M184362914 186385771
L184362914 184885771
" />
<path d="M184362914 185457200
L184505771 185385771
L184791485 185385771
L184934342 185457200
L185005771 185528628
L185077200 185671485
L185077200 186100057
L185005771 186242914
L184934342 186314342
L184791485 186385771
L184505771 186385771
L184362914 186314342
" />
<path d="M185934342 186385771
L185791485 186314342
L185720057 186242914
L185648628 186100057
L185648628 185671485
L185720057 185528628
L185791485 185457200
L185934342 185385771
L186148628 185385771
L186291485 185457200
L186362914 185528628
L186434342 185671485
L186434342 186100057
L186362914 186242914
L186291485 186314342
L186148628 186385771
L185934342 186385771
" />
<path d="M187720057 186385771
L187720057 185600057
L187648628 185457200
L187505771 185385771
L187220057 185385771
L187077200 185457200
" />
<path d="M187720057 186314342
L187577200 186385771
L187220057 186385771
L187077200 186314342
L187005771 186171485
L187005771 186028628
L187077200 185885771
L187220057 185814342
L187577200 185814342
L187720057 185742914
" />
<path d="M188434342 186385771
L188434342 185385771
" />
<path d="M188434342 185671485
L188505771 185528628
L188577200 185457200
L188720057 185385771
L188862914 185385771
" />
<path d="M190005771 186385771
L190005771 184885771
" />
<path d="M190005771 186314342
L189862914 186385771
L189577200 186385771
L189434342 186314342
L189362914 186242914
L189291485 186100057
L189291485 185671485
L189362914 185528628
L189434342 185457200
L189577200 185385771
L189862914 185385771
L190005771 185457200
" />
<path d="M190720057 186385771
L190720057 184885771
" />
<path d="M191577200 186385771
L190934342 185528628
" />
<path d="M191577200 184885771
L190720057 185742914
" />
<path d="M192220057 186385771
L192220057 185385771
" />
<path d="M192220057 184885771
L192148628 184957200
L192220057 185028628
L192291485 184957200
L192220057 184885771
L192220057 185028628
" />
<path d="M193577200 186314342
L193434342 186385771
L193148628 186385771
L193005771 186314342
L192934342 186242914
L192862914 186100057
L192862914 185671485
L192934342 185528628
L193005771 185457200
L193148628 185385771
L193434342 185385771
L193577200 185457200
" />
<path d="M194862914 186385771
L194862914 185600057
L194791485 185457200
L194648628 185385771
L194362914 185385771
L194220057 185457200
" />
<path d="M194862914 186314342
L194720057 186385771
L194362914 186385771
L194220057 186314342
L194148628 186171485
L194148628 186028628
L194220057 185885771
L194362914 185814342
L194720057 185814342
L194862914 185742914
" />
<path d="M196220057 186385771
L196220057 184885771
" />
<path d="M196220057 186314342
L196077200 186385771
L195791485 186385771
L195648628 186314342
L195577200 186242914
L195505771 186100057
L195505771 185671485
L195577200 185528628
L195648628 185457200
L195791485 185385771
L196077200 185385771
L196220057 185457200
" />
<path d="M196934342 186242914
L197005771 186314342
L196934342 186385771
L196862914 186314342
L196934342 186242914
L196934342 186385771
" />
<path d="M197648628 186385771
L197648628 184885771
" />
<path d="M197791485 185814342
L198220057 186385771
" />
<path d="M198220057 185385771
L197648628 185957200
" />
<path d="M198862914 186385771
L198862914 185385771
" />
<path d="M198862914 184885771
L198791485 184957200
L198862914 185028628
L198934342 184957200
L198862914 184885771
L198862914 185028628
" />
<path d="M200220057 186314342
L200077200 186385771
L199791485 186385771
L199648628 186314342
L199577200 186242914
L199505771 186100057
L199505771 185671485
L199577200 185528628
L199648628 185457200
L199791485 185385771
L200077200 185385771
L200220057 185457200
" />
<path d="M201505771 186385771
L201505771 185600057
L201434342 185457200
L201291485 185385771
L201005771 185385771
L200862914 185457200
" />
<path d="M201505771 186314342
L201362914 186385771
L201005771 186385771
L200862914 186314342
L200791485 186171485
L200791485 186028628
L200862914 185885771
L201005771 185814342
L201362914 185814342
L201505771 185742914
" />
<path d="M202862914 186385771
L202862914 184885771
" />
<path d="M202862914 186314342
L202720057 186385771
L202434342 186385771
L202291485 186314342
L202220057 186242914
L202148628 186100057
L202148628 185671485
L202220057 185528628
L202291485 185457200
L202434342 185385771
L202720057 185385771
L202862914 185457200
" />
<path d="M203220057 186528628
L204362914 186528628
" />
<path d="M204720057 185385771
L204720057 186885771
" />
<path d="M204720057 185457200
L204862914 185385771
L205148628 185385771
L205291485 185457200
L205362914 185528628
L205434342 185671485
L205434342 186100057
L205362914 186242914
L205291485 186314342
L205148628 186385771
L204862914 186385771
L204720057 186314342
" />
<path d="M206720057 186314342
L206577200 186385771
L206291485 186385771
L206148628 186314342
L206077200 186242914
L206005771 186100057
L206005771 185671485
L206077200 185528628
L206148628 185457200
L206291485 185385771
L206577200 185385771
L206720057 185457200
" />
<path d="M207362914 186385771
L207362914 184885771
" />
<path d="M207362914 185457200
L207505771 185385771
L207791485 185385771
L207934342 185457200
L208005771 185528628
L208077200 185671485
L208077200 186100057
L208005771 186242914
L207934342 186314342
L207791485 186385771
L207505771 186385771
L207362914 186314342
" />
</g></g>
<g style="fill:#000000; fill-opacity:0.0; 
stroke:#000000; stroke-width:21200.000000; stroke-opacity:1; 
stroke-linecap:round; stroke-linejoin:round;">
</g>
<g style="fill:#000000; fill-opacity:0.0; 
stroke:#000000; stroke-width:150000.000000; stroke-opacity:1; 
stroke-linecap:round; stroke-linejoin:round;">
<path d="M177002200 181507200
L285002200 181507200
" />
</g>
<g style="fill:#000000; fill-opacity:0.0; 
stroke:#000000; stroke-width:21200.000000; stroke-opacity:1; 
stroke-linecap:round; stroke-linejoin:round;">
</g>
<g style="fill:#000000; fill-opacity:0.0; 
stroke:#000000; stroke-width:150000.000000; stroke-opacity:1; 
stroke-linecap:round; stroke-linejoin:round;">
<text x="178002200.000000" y="183757200.000000"
textLength="8221429.000000" font-size="2000000.000000" lengthAdjust="spacingAndGlyphs"
text-anchor="start" opacity="0">Sheet: </text>
<g class="stroked-text"><desc>Sheet: </desc>
<path d="M178362914 183614342
L178577200 183685771
L178934342 183685771
L179077200 183614342
L179148628 183542914
L179220057 183400057
L179220057 183257200
L179148628 183114342
L179077200 183042914
L178934342 182971485
L178648628 182900057
L178505771 182828628
L178434342 182757200
L178362914 182614342
L178362914 182471485
L178434342 182328628
L178505771 182257200
L178648628 182185771
L179005771 182185771
L179220057 182257200
" />
<path d="M179862914 183685771
L179862914 182185771
" />
<path d="M180505771 183685771
L180505771 182900057
L180434342 182757200
L180291485 182685771
L180077200 182685771
L179934342 182757200
L179862914 182828628
" />
<path d="M181791485 183614342
L181648628 183685771
L181362914 183685771
L181220057 183614342
L181148628 183471485
L181148628 182900057
L181220057 182757200
L181362914 182685771
L181648628 182685771
L181791485 182757200
L181862914 182900057
L181862914 183042914
L181148628 183185771
" />
<path d="M183077200 183614342
L182934342 183685771
L182648628 183685771
L182505771 183614342
L182434342 183471485
L182434342 182900057
L182505771 182757200
L182648628 182685771
L182934342 182685771
L183077200 182757200
L183148628 182900057
L183148628 183042914
L182434342 183185771
" />
<path d="M183577200 182685771
L184148628 182685771
" />
<path d="M183791485 182185771
L183791485 183471485
L183862914 183614342
L184005771 183685771
L184148628 183685771
" />
<path d="M184648628 183542914
L184720057 183614342
L184648628 183685771
L184577200 183614342
L184648628 183542914
L184648628 183685771
" />
<path d="M184648628 182757200
L184720057 182828628
L184648628 182900057
L184577200 182828628
L184648628 182757200
L184648628 182900057
" />
</g></g>
<g style="fill:#000000; fill-opacity:0.0; 
stroke:#000000; stroke-width:21200.000000; stroke-opacity:1; 
stroke-linecap:round; stroke-linejoin:round;">
</g>
<g style="fill:#000000; fill-opacity:0.0; 
stroke:#000000; stroke-width:300000.000000; stroke-opacity:1; 
stroke-linecap:round; stroke-linejoin:round;">
<text x="178002200.000000" y="180757200.000000"
textLength="150000.000000" font-size="2000000.000000" lengthAdjust="spacingAndGlyphs"
text-anchor="start" opacity="0"></text>
<g class="stroked-text"><desc></desc>
</g></g>
<g style="fill:#000000; fill-opacity:0.0; 
stroke:#000000; stroke-width:21200.000000; stroke-opacity:1; 
stroke-linecap:round; stroke-linejoin:round;">
</g>
<g style="fill:#000000; fill-opacity:0.0; 
stroke:#000000; stroke-width:150000.000000; stroke-opacity:1; 
stroke-linecap:round; stroke-linejoin:round;">
<text x="178002200.000000" y="177757200.000000"
textLength="300000.000000" font-size="2000000.000000" lengthAdjust="spacingAndGlyphs"
text-anchor="start" opacity="0"></text>
<g class="stroked-text"><desc></desc>
</g></g>
<g style="fill:#000000; fill-opacity:0.0; 
stroke:#000000; stroke-width:21200.000000; stroke-opacity:1; 
stroke-linecap:round; stroke-linejoin:round;">
</g>
<g style="fill:#000000; fill-opacity:0.0; 
stroke:#000000; stroke-width:150000.000000; stroke-opacity:1; 
stroke-linecap:round; stroke-linejoin:round;">
<text x="178002200.000000" y="174757200.000000"
textLength="150000.000000" font-size="2000000.000000" lengthAdjust="spacingAndGlyphs"
text-anchor="start" opacity="0"></text>
<g class="stroked-text"><desc></desc>
</g></g>
<g style="fill:#000000; fill-opacity:0.0; 
stroke:#000000; stroke-width:21200.000000; stroke-opacity:1; 
stroke-linecap:round; stroke-linejoin:round;">
</g>
<g style="fill:#000000; fill-opacity:0.0; 
stroke:#000000; stroke-width:150000.000000; stroke-opacity:1; 
stroke-linecap:round; stroke-linejoin:round;">
<text x="178002200.000000" y="171757200.000000"
textLength="150000.000000" font-size="2000000.000000" lengthAdjust="spacingAndGlyphs"
text-anchor="start" opacity="0"></text>
<g class="stroked-text"><desc></desc>
</g></g>
<g style="fill:#000000; fill-opacity:0.0; 
stroke:#000000; stroke-width:21200.000000; stroke-opacity:1; 
stroke-linecap:round; stroke-linejoin:round;">
</g>
<g style="fill:#000000; fill-opacity:0.0; 
stroke:#000000; stroke-width:150000.000000; stroke-opacity:1; 
stroke-linecap:round; stroke-linejoin:round;">
<text x="178002200.000000" y="168757200.000000"
textLength="150000.000000" font-size="2000000.000000" lengthAdjust="spacingAndGlyphs"
text-anchor="start" opacity="0"></text>
<g class="stroked-text"><desc></desc>
</g></g>
<g style="fill:#000000; fill-opacity:0.0; 
stroke:#000000; stroke-width:21200.000000; stroke-opacity:1; 
stroke-linecap:round; stroke-linejoin:round;">
</g>
<g style="fill:#000000; fill-opacity:0.0; 
stroke:#000000; stroke-width:150000.000000; stroke-opacity:1; 
stroke-linecap:round; stroke-linejoin:round;">
<path d="M197002200 191507200
L197002200 194507200
" />
</g>
<g style="fill:#000000; fill-opacity:0.0; 
stroke:#000000; stroke-width:21200.000000; stroke-opacity:1; 
stroke-linecap:round; stroke-linejoin:round;">
</g>
<g style="fill:#000000; fill-opacity:0.0; 
stroke:#000000; stroke-width:150000.000000; stroke-opacity:1; 
stroke-linecap:round; stroke-linejoin:round;">
<path d="M261002200 191507200
L261002200 198007200
" />
</g>
<g style="fill:#585D84; fill-opacity:0.0; 
stroke:#585D84; stroke-width:150000.000000; stroke-opacity:1; 
stroke-linecap:round; stroke-linejoin:round;">
</g>
<g style="fill:#585D84; fill-opacity:0.0; 
stroke:#585D84; stroke-width:93472.000000; stroke-opacity:1; 
stroke-linecap:round; stroke-linejoin:round;">
<text x="155282900.000000" y="105642664.000000"
transform="scale(-1 1) translate(-310565800.000000 0)"
textLength="1250919.000000" font-size="688170.000000" lengthAdjust="spacingAndGlyphs"
text-anchor="start" opacity="0">1uF</text>
<g class="stroked-text"><desc>1uF</desc>
<path d="M154828902 105618086
L155123833 105618086
" />
<path d="M154976367 105618086
L154976367 105101958
L155025523 105175691
L155074678 105224846
L155123833 105249423
" />
<path d="M154386507 105274001
L154386507 105618086
" />
<path d="M154607705 105274001
L154607705 105544353
L154583127 105593508
L154533972 105618086
L154460239 105618086
L154411084 105593508
L154386507 105568931
" />
<path d="M153968689 105347733
L154140732 105347733
" />
<path d="M154140732 105618086
L154140732 105101958
L153894956 105101958
" />
</g></g>
<g style="fill:#585D84; fill-opacity:0.0; 
stroke:#585D84; stroke-width:44867.000000; stroke-opacity:1; 
stroke-linecap:round; stroke-linejoin:round;">
<g transform="rotate(-90.000000 127800100.000000 106934000.000000)">
<text x="127800100.000000" y="107216366.000000"
transform="scale(-1 1) translate(-255600200.000000 0)"
textLength="4208106.000000" font-size="752977.000000" lengthAdjust="spacingAndGlyphs"
text-anchor="start" opacity="0">4,7uF_16V</text>
</g>
<g class="stroked-text"><desc>4,7uF_16V</desc>
<path d="M127679085 107339652
L128055574 107339652
" />
<path d="M127463949 107205191
L127867330 107070731
L127867330 107420328
" />
<path d="M128028682 107662356
L128055574 107662356
L128109358 107635464
L128136250 107608572
" />
<path d="M127490841 107850601
L127490841 108227089
L128055574 107985061
" />
<path d="M127679085 108684254
L128055574 108684254
" />
<path d="M127679085 108442226
L127974898 108442226
L128028682 108469118
L128055574 108522902
L128055574 108603578
L128028682 108657362
L128001790 108684254
" />
<path d="M127759761 109141419
L127759761 108953175
" />
<path d="M128055574 108953175
L127490841 108953175
L127490841 109222095
" />
<path d="M128109358 109302771
L128109358 109733044
" />
<path d="M128055574 110163317
L128055574 109840612
" />
<path d="M128055574 110001964
L127490841 110001964
L127571517 109948180
L127625301 109894396
L127652193 109840612
" />
<path d="M127490841 110647374
L127490841 110539805
L127517733 110486021
L127544625 110459129
L127625301 110405345
L127732869 110378453
L127948006 110378453
L128001790 110405345
L128028682 110432237
L128055574 110486021
L128055574 110593589
L128028682 110647374
L128001790 110674266
L127948006 110701158
L127813546 110701158
L127759761 110674266
L127732869 110647374
L127705977 110593589
L127705977 110486021
L127732869 110432237
L127759761 110405345
L127813546 110378453
" />
<path d="M127490841 110862510
L128055574 111050754
L127490841 111238999
" />
</g><text x="138468100.000000" y="106454366.000000"
transform="scale(-1 1) translate(-276936200.000000 0)"
textLength="3491423.000000" font-size="752977.000000" lengthAdjust="spacingAndGlyphs"
text-anchor="start" opacity="0">FT232RL</text>
<g class="stroked-text"><desc>FT232RL</desc>
<path d="M138116231 106131661
L138304476 106131661
" />
<path d="M138304476 106427474
L138304476 105862741
L138035555 105862741
" />
<path d="M137901095 105862741
L137578390 105862741
" />
<path d="M137739743 106427474
L137739743 105862741
" />
<path d="M137417038 105916525
L137390146 105889633
L137336362 105862741
L137201902 105862741
L137148118 105889633
L137121226 105916525
L137094334 105970309
L137094334 106024093
L137121226 106104769
L137443930 106427474
L137094334 106427474
" />
<path d="M136906089 105862741
L136556493 105862741
L136744737 106077877
L136664061 106077877
L136610277 106104769
L136583385 106131661
L136556493 106185446
L136556493 106319906
L136583385 106373690
L136610277 106400582
L136664061 106427474
L136825413 106427474
L136879197 106400582
L136906089 106373690
" />
<path d="M136341356 105916525
L136314464 105889633
L136260680 105862741
L136126220 105862741
L136072436 105889633
L136045544 105916525
L136018652 105970309
L136018652 106024093
L136045544 106104769
L136368248 106427474
L136018652 106427474
" />
<path d="M135453919 106427474
L135642163 106158553
" />
<path d="M135776623 106427474
L135776623 105862741
L135561487 105862741
L135507703 105889633
L135480811 105916525
L135453919 105970309
L135453919 106050985
L135480811 106104769
L135507703 106131661
L135561487 106158553
L135776623 106158553
" />
<path d="M134942970 106427474
L135211890 106427474
L135211890 105862741
" />
</g><text x="157772100.000000" y="101374366.000000"
transform="scale(-1 1) translate(-315544200.000000 0)"
textLength="4271293.000000" font-size="752977.000000" lengthAdjust="spacingAndGlyphs"
text-anchor="end" opacity="0">4,7uF_16V</text>
<g class="stroked-text"><desc>4,7uF_16V</desc>
<path d="M161754394 100970985
L161754394 101347474
" />
<path d="M161888854 100755849
L162023315 101159230
L161673718 101159230
" />
<path d="M161431689 101320582
L161431689 101347474
L161458582 101401258
L161485474 101428150
" />
<path d="M161243445 100782741
L160866956 100782741
L161108985 101347474
" />
<path d="M160409792 100970985
L160409792 101347474
" />
<path d="M160651820 100970985
L160651820 101266798
L160624928 101320582
L160571144 101347474
L160490468 101347474
L160436684 101320582
L160409792 101293690
" />
<path d="M159952627 101051661
L160140871 101051661
" />
<path d="M160140871 101347474
L160140871 100782741
L159871951 100782741
" />
<path d="M159791275 101401258
L159361002 101401258
" />
<path d="M158930729 101347474
L159253434 101347474
" />
<path d="M159092081 101347474
L159092081 100782741
L159145865 100863417
L159199650 100917201
L159253434 100944093
" />
<path d="M158446672 100782741
L158554240 100782741
L158608024 100809633
L158634917 100836525
L158688701 100917201
L158715593 101024769
L158715593 101239906
L158688701 101293690
L158661809 101320582
L158608024 101347474
L158500456 101347474
L158446672 101320582
L158419780 101293690
L158392888 101239906
L158392888 101105446
L158419780 101051661
L158446672 101024769
L158500456 100997877
L158608024 100997877
L158661809 101024769
L158688701 101051661
L158715593 101105446
" />
<path d="M158231536 100782741
L158043291 101347474
L157855047 100782741
" />
</g></g>
<g style="fill:#585D84; fill-opacity:0.0; 
stroke:#585D84; stroke-width:93472.000000; stroke-opacity:1; 
stroke-linecap:round; stroke-linejoin:round;">
<g transform="rotate(-90.000000 134835100.000000 111379000.000000)">
<text x="134835100.000000" y="111637064.000000"
transform="scale(-1 1) translate(-269670200.000000 0)"
textLength="2325693.000000" font-size="688170.000000" lengthAdjust="spacingAndGlyphs"
text-anchor="end" opacity="0">100nF</text>
</g>
<g class="stroked-text"><desc>100nF</desc>
<path d="M135068586 109327463
L135068586 109032533
" />
<path d="M135068586 109179998
L134552458 109179998
L134626191 109130843
L134675346 109081688
L134699923 109032533
" />
<path d="M134552458 109646971
L134552458 109696126
L134577036 109745281
L134601613 109769859
L134650768 109794436
L134749078 109819014
L134871966 109819014
L134970276 109794436
L135019431 109769859
L135044008 109745281
L135068586 109696126
L135068586 109646971
L135044008 109597816
L135019431 109573239
L134970276 109548661
L134871966 109524083
L134749078 109524083
L134650768 109548661
L134601613 109573239
L134577036 109597816
L134552458 109646971
" />
<path d="M134552458 110138522
L134552458 110187677
L134577036 110236832
L134601613 110261409
L134650768 110285987
L134749078 110310564
L134871966 110310564
L134970276 110285987
L135019431 110261409
L135044008 110236832
L135068586 110187677
L135068586 110138522
L135044008 110089367
L135019431 110064789
L134970276 110040211
L134871966 110015634
L134749078 110015634
L134650768 110040211
L134601613 110064789
L134577036 110089367
L134552458 110138522
" />
<path d="M134724501 110531762
L135068586 110531762
" />
<path d="M134773656 110531762
L134749078 110556339
L134724501 110605495
L134724501 110679227
L134749078 110728382
L134798233 110752960
L135068586 110752960
" />
<path d="M134798233 111170778
L134798233 110998735
" />
<path d="M135068586 110998735
L134552458 110998735
L134552458 111244510
" />
</g><text x="145757900.000000" y="106887264.000000"
transform="scale(-1 1) translate(-291515800.000000 0)"
textLength="1279405.000000" font-size="688170.000000" lengthAdjust="spacingAndGlyphs"
text-anchor="end" opacity="0">1uF</text>
<g class="stroked-text"><desc>1uF</desc>
<path d="M146826335 106862686
L147121265 106862686
" />
<path d="M146973800 106862686
L146973800 106346558
L147022955 106420291
L147072110 106469446
L147121265 106494023
" />
<path d="M146383939 106518601
L146383939 106862686
" />
<path d="M146605137 106518601
L146605137 106788953
L146580560 106838108
L146531404 106862686
L146457672 106862686
L146408517 106838108
L146383939 106813531
" />
<path d="M145966121 106592333
L146138164 106592333
" />
<path d="M146138164 106862686
L146138164 106346558
L145892389 106346558
" />
</g><g transform="rotate(-90.000000 131610100.000000 106019600.000000)">
<text x="131610100.000000" y="106277664.000000"
transform="scale(-1 1) translate(-263220200.000000 0)"
textLength="2262506.000000" font-size="688170.000000" lengthAdjust="spacingAndGlyphs"
text-anchor="end" opacity="0">100nF</text>
</g>
<g class="stroked-text"><desc>100nF</desc>
<path d="M131843586 103968063
L131843586 103673133
" />
<path d="M131843586 103820598
L131327458 103820598
L131401191 103771443
L131450346 103722288
L131474923 103673133
" />
<path d="M131327458 104287571
L131327458 104336726
L131352036 104385881
L131376613 104410459
L131425768 104435036
L131524078 104459614
L131646966 104459614
L131745276 104435036
L131794431 104410459
L131819008 104385881
L131843586 104336726
L131843586 104287571
L131819008 104238416
L131794431 104213839
L131745276 104189261
L131646966 104164683
L131524078 104164683
L131425768 104189261
L131376613 104213839
L131352036 104238416
L131327458 104287571
" />
<path d="M131327458 104779122
L131327458 104828277
L131352036 104877432
L131376613 104902009
L131425768 104926587
L131524078 104951164
L131646966 104951164
L131745276 104926587
L131794431 104902009
L131819008 104877432
L131843586 104828277
L131843586 104779122
L131819008 104729967
L131794431 104705389
L131745276 104680811
L131646966 104656234
L131524078 104656234
L131425768 104680811
L131376613 104705389
L131352036 104729967
L131327458 104779122
" />
<path d="M131499501 105172362
L131843586 105172362
" />
<path d="M131548656 105172362
L131524078 105196939
L131499501 105246095
L131499501 105319827
L131524078 105368982
L131573233 105393560
L131843586 105393560
" />
<path d="M131573233 105811378
L131573233 105639335
" />
<path d="M131843586 105639335
L131327458 105639335
L131327458 105885110
" />
</g><text x="155994100.000000" y="112094264.000000"
transform="scale(-1 1) translate(-311988200.000000 0)"
textLength="1830948.000000" font-size="959104.000000" lengthAdjust="spacingAndGlyphs"
text-anchor="start" opacity="0">1uF</text>
<g class="stroked-text"><desc>1uF</desc>
<path d="M155385283 112060010
L155796328 112060010
" />
<path d="M155590806 112060010
L155590806 111340682
L155659313 111443443
L155727820 111511950
L155796328 111546204
" />
<path d="M154768716 111580458
L154768716 112060010
" />
<path d="M155077000 111580458
L155077000 111957249
L155042746 112025756
L154974239 112060010
L154871478 112060010
L154802970 112025756
L154768716 111991502
" />
<path d="M154186403 111683219
L154426179 111683219
" />
<path d="M154426179 112060010
L154426179 111340682
L154083642 111340682
" />
</g><text x="156552900.000000" y="99038664.000000"
transform="scale(-1 1) translate(-313105800.000000 0)"
textLength="2262506.000000" font-size="688170.000000" lengthAdjust="spacingAndGlyphs"
text-anchor="end" opacity="0">100nF</text>
<g class="stroked-text"><desc>100nF</desc>
<path d="M158604436 99014086
L158899366 99014086
" />
<path d="M158751901 99014086
L158751901 98497958
L158801056 98571691
L158850211 98620846
L158899366 98645423
" />
<path d="M158284928 98497958
L158235773 98497958
L158186618 98522536
L158162040 98547113
L158137463 98596268
L158112885 98694578
L158112885 98817466
L158137463 98915776
L158162040 98964931
L158186618 98989508
L158235773 99014086
L158284928 99014086
L158334083 98989508
L158358660 98964931
L158383238 98915776
L158407816 98817466
L158407816 98694578
L158383238 98596268
L158358660 98547113
L158334083 98522536
L158284928 98497958
" />
<path d="M157793377 98497958
L157744222 98497958
L157695067 98522536
L157670490 98547113
L157645912 98596268
L157621335 98694578
L157621335 98817466
L157645912 98915776
L157670490 98964931
L157695067 98989508
L157744222 99014086
L157793377 99014086
L157842532 98989508
L157867110 98964931
L157891688 98915776
L157916265 98817466
L157916265 98694578
L157891688 98596268
L157867110 98547113
L157842532 98522536
L157793377 98497958
" />
<path d="M157400137 98670001
L157400137 99014086
" />
<path d="M157400137 98719156
L157375560 98694578
L157326404 98670001
L157252672 98670001
L157203517 98694578
L157178939 98743733
L157178939 99014086
" />
<path d="M156761121 98743733
L156933164 98743733
" />
<path d="M156933164 99014086
L156933164 98497958
L156687389 98497958
" />
</g><text x="156248100.000000" y="99648264.000000"
transform="scale(-1 1) translate(-312496200.000000 0)"
textLength="3920425.000000" font-size="959104.000000" lengthAdjust="spacingAndGlyphs"
text-anchor="start" opacity="0">SS1P3L</text>
<g class="stroked-text"><desc>SS1P3L</desc>
<path d="M156050328 99579756
L155947567 99614010
L155776298 99614010
L155707791 99579756
L155673537 99545502
L155639283 99476995
L155639283 99408488
L155673537 99339980
L155707791 99305726
L155776298 99271473
L155913313 99237219
L155981820 99202965
L156016074 99168712
L156050328 99100204
L156050328 99031697
L156016074 98963189
L155981820 98928936
L155913313 98894682
L155742044 98894682
L155639283 98928936
" />
<path d="M155365254 99579756
L155262492 99614010
L155091224 99614010
L155022716 99579756
L154988463 99545502
L154954209 99476995
L154954209 99408488
L154988463 99339980
L155022716 99305726
L155091224 99271473
L155228239 99237219
L155296746 99202965
L155331000 99168712
L155365254 99100204
L155365254 99031697
L155331000 98963189
L155296746 98928936
L155228239 98894682
L155056970 98894682
L154954209 98928936
" />
<path d="M154269135 99614010
L154680179 99614010
" />
<path d="M154474657 99614010
L154474657 98894682
L154543164 98997443
L154611672 99065950
L154680179 99100204
" />
<path d="M153960851 99614010
L153960851 98894682
L153686822 98894682
L153618314 98928936
L153584060 98963189
L153549807 99031697
L153549807 99134458
L153584060 99202965
L153618314 99237219
L153686822 99271473
L153960851 99271473
" />
<path d="M153310031 98894682
L152864732 98894682
L153104508 99168712
L153001747 99168712
L152933240 99202965
L152898986 99237219
L152864732 99305726
L152864732 99476995
L152898986 99545502
L152933240 99579756
L153001747 99614010
L153207270 99614010
L153275777 99579756
L153310031 99545502
" />
<path d="M152213912 99614010
L152556449 99614010
L152556449 98894682
" />
</g></g>
<g style="fill:#585D84; fill-opacity:0.0; 
stroke:#585D84; stroke-width:91440.000000; stroke-opacity:1; 
stroke-linecap:round; stroke-linejoin:round;">
<text x="150914100.000000" y="100055680.000000"
transform="scale(-1 1) translate(-301828200.000000 0)"
textLength="890132.000000" font-size="690880.000000" lengthAdjust="spacingAndGlyphs"
text-anchor="start" opacity="0">1K</text>
<g class="stroked-text"><desc>1K</desc>
<path d="M150459875 100031005
L150755966 100031005
" />
<path d="M150607921 100031005
L150607921 99512845
L150657269 99586868
L150706618 99636217
L150755966 99660891
" />
<path d="M150237806 100031005
L150237806 99512845
" />
<path d="M149941715 100031005
L150163784 99734914
" />
<path d="M149941715 99512845
L150237806 99808937
" />
</g><text x="149948900.000000" y="110215680.000000"
transform="scale(-1 1) translate(-299897800.000000 0)"
textLength="892774.000000" font-size="690880.000000" lengthAdjust="spacingAndGlyphs"
text-anchor="end" opacity="0">1K</text>
<g class="stroked-text"><desc>1K</desc>
<path d="M150625193 110191005
L150921284 110191005
" />
<path d="M150773238 110191005
L150773238 109672845
L150822587 109746868
L150871936 109796217
L150921284 109820891
" />
<path d="M150403124 110191005
L150403124 109672845
" />
<path d="M150107033 110191005
L150329101 109894914
" />
<path d="M150107033 109672845
L150403124 109968937
" />
</g></g>
<g style="fill:#585D84; fill-opacity:0.0; 
stroke:#585D84; stroke-width:93472.000000; stroke-opacity:1; 
stroke-linecap:round; stroke-linejoin:round;">
<text x="157772100.000000" y="111154464.000000"
transform="scale(-1 1) translate(-315544200.000000 0)"
textLength="9198138.000000" font-size="959104.000000" lengthAdjust="spacingAndGlyphs"
text-anchor="end" opacity="0">LM1117IMPX-5.0</text>
<g class="stroked-text"><desc>LM1117IMPX-5.0</desc>
<path d="M166636061 111120210
L166978598 111120210
L166978598 110400882
" />
<path d="M166396285 111120210
L166396285 110400882
L166156509 110914688
L165916733 110400882
L165916733 111120210
" />
<path d="M165197405 111120210
L165608449 111120210
" />
<path d="M165402927 111120210
L165402927 110400882
L165471435 110503643
L165539942 110572150
L165608449 110606404
" />
<path d="M164512331 111120210
L164923375 111120210
" />
<path d="M164717853 111120210
L164717853 110400882
L164786360 110503643
L164854868 110572150
L164923375 110606404
" />
<path d="M163827256 111120210
L164238301 111120210
" />
<path d="M164032779 111120210
L164032779 110400882
L164101286 110503643
L164169793 110572150
L164238301 110606404
" />
<path d="M163587480 110400882
L163107928 110400882
L163416212 111120210
" />
<path d="M162833899 111120210
L162833899 110400882
" />
<path d="M162491361 111120210
L162491361 110400882
L162251585 110914688
L162011809 110400882
L162011809 111120210
" />
<path d="M161669272 111120210
L161669272 110400882
L161395243 110400882
L161326735 110435136
L161292481 110469389
L161258228 110537897
L161258228 110640658
L161292481 110709165
L161326735 110743419
L161395243 110777673
L161669272 110777673
" />
<path d="M161018452 110400882
L160538900 111120210
" />
<path d="M160538900 110400882
L161018452 111120210
" />
<path d="M160264870 110846180
L159716811 110846180
" />
<path d="M159031736 110400882
L159374273 110400882
L159408527 110743419
L159374273 110709165
L159305766 110674912
L159134497 110674912
L159065990 110709165
L159031736 110743419
L158997483 110811926
L158997483 110983195
L159031736 111051702
L159065990 111085956
L159134497 111120210
L159305766 111120210
L159374273 111085956
L159408527 111051702
" />
<path d="M158689199 111051702
L158654945 111085956
L158689199 111120210
L158723453 111085956
L158689199 111051702
L158689199 111120210
" />
<path d="M158209647 110400882
L158141140 110400882
L158072632 110435136
L158038379 110469389
L158004125 110537897
L157969871 110674912
L157969871 110846180
L158004125 110983195
L158038379 111051702
L158072632 111085956
L158141140 111120210
L158209647 111120210
L158278155 111085956
L158312408 111051702
L158346662 110983195
L158380916 110846180
L158380916 110674912
L158346662 110537897
L158312408 110469389
L158278155 110435136
L158209647 110400882
" />
</g><text x="145122900.000000" y="109376464.000000"
transform="scale(-1 1) translate(-290245800.000000 0)"
textLength="2262506.000000" font-size="688170.000000" lengthAdjust="spacingAndGlyphs"
text-anchor="start" opacity="0">100nF</text>
<g class="stroked-text"><desc>100nF</desc>
<path d="M144668902 109351886
L144963833 109351886
" />
<path d="M144816367 109351886
L144816367 108835758
L144865523 108909491
L144914678 108958646
L144963833 108983223
" />
<path d="M144349395 108835758
L144300239 108835758
L144251084 108860336
L144226507 108884913
L144201929 108934068
L144177352 109032378
L144177352 109155266
L144201929 109253576
L144226507 109302731
L144251084 109327308
L144300239 109351886
L144349395 109351886
L144398550 109327308
L144423127 109302731
L144447705 109253576
L144472282 109155266
L144472282 109032378
L144447705 108934068
L144423127 108884913
L144398550 108860336
L144349395 108835758
" />
<path d="M143857844 108835758
L143808689 108835758
L143759534 108860336
L143734956 108884913
L143710379 108934068
L143685801 109032378
L143685801 109155266
L143710379 109253576
L143734956 109302731
L143759534 109327308
L143808689 109351886
L143857844 109351886
L143906999 109327308
L143931577 109302731
L143956154 109253576
L143980732 109155266
L143980732 109032378
L143956154 108934068
L143931577 108884913
L143906999 108860336
L143857844 108835758
" />
<path d="M143464604 109007801
L143464604 109351886
" />
<path d="M143464604 109056956
L143440026 109032378
L143390871 109007801
L143317139 109007801
L143267983 109032378
L143243406 109081533
L143243406 109351886
" />
<path d="M142825588 109081533
L142997631 109081533
" />
<path d="M142997631 109351886
L142997631 108835758
L142751855 108835758
" />
</g></g>
<g style="fill:#585D84; fill-opacity:0.0; 
stroke:#585D84; stroke-width:101600.000000; stroke-opacity:1; 
stroke-linecap:round; stroke-linejoin:round;">
<path d="M156908900 104190600
L156196900 104190600
" />
<path d="M156908900 105041600
L156196900 105041600
" />
</g>
<g style="fill:#585D84; fill-opacity:1.0; 
stroke:#585D84; stroke-width:1.000000; stroke-opacity:1; 
stroke-linecap:round; stroke-linejoin:round;">
<path style="fill:#585D84; fill-opacity:1.0; 
stroke:#585D84; stroke-width:1.000000; stroke-opacity:1; 
stroke-linecap:round; stroke-linejoin:round;fill-rule:evenodd;"
d="M 157391100.000000,105092500.000000
156891000.000000,105092500.000000
156891000.000000,104142500.000000
157391100.000000,104142500.000000
Z" /> 
<path style="fill:#585D84; fill-opacity:1.0; 
stroke:#585D84; stroke-width:1.000000; stroke-opacity:1; 
stroke-linecap:round; stroke-linejoin:round;fill-rule:evenodd;"
d="M 156222700.000000,105092500.000000
155722600.000000,105092500.000000
155722600.000000,104142500.000000
156222700.000000,104142500.000000
Z" /> 
</g>
<g style="fill:#585D84; fill-opacity:1.0; 
stroke:#585D84; stroke-width:127000.000000; stroke-opacity:1; 
stroke-linecap:round; stroke-linejoin:round;">
</g>
<g style="fill:#585D84; fill-opacity:0.0; 
stroke:#585D84; stroke-width:127000.000000; stroke-opacity:1; 
stroke-linecap:round; stroke-linejoin:round;">
<path d="M130263900 103047800
L128638300 103047800
" />
<path d="M128638300 103047800
L128638300 106705400
" />
<path d="M128638300 106705400
L130263900 106705400
" />
<path d="M130263900 106705400
L130263900 103047800
" />
<path d="M132372100 101981000
L132372100 107950000
" />
<path d="M142278100 101981000
L132372100 101981000
" />
<path d="M142278100 107950000
L142278100 101981000
" />
<path d="M132372100 107950000
L142278100 107950000
" />
<path d="M158000700 101930200
L158000700 103555800
" />
<path d="M161658300 103555800
L161658300 101930200
" />
<path d="M161658300 101930200
L158000700 101930200
" />
<path d="M158000700 103555800
L161658300 103555800
" />
</g>
<g style="fill:#585D84; fill-opacity:0.0; 
stroke:#585D84; stroke-width:101600.000000; stroke-opacity:1; 
stroke-linecap:round; stroke-linejoin:round;">
<path d="M134302100 111290000
L133590100 111290000
" />
<path d="M134302100 110439000
L133590100 110439000
" />
</g>
<g style="fill:#585D84; fill-opacity:1.0; 
stroke:#585D84; stroke-width:1.000000; stroke-opacity:1; 
stroke-linecap:round; stroke-linejoin:round;">
<path style="fill:#585D84; fill-opacity:1.0; 
stroke:#585D84; stroke-width:1.000000; stroke-opacity:1; 
stroke-linecap:round; stroke-linejoin:round;fill-rule:evenodd;"
d="M 134784300.000000,111340900.000000
134284200.000000,111340900.000000
134284200.000000,110390900.000000
134784300.000000,110390900.000000
Z" /> 
<path style="fill:#585D84; fill-opacity:1.0; 
stroke:#585D84; stroke-width:1.000000; stroke-opacity:1; 
stroke-linecap:round; stroke-linejoin:round;fill-rule:evenodd;"
d="M 133615900.000000,111340900.000000
133115800.000000,111340900.000000
133115800.000000,110390900.000000
133615900.000000,110390900.000000
Z" /> 
</g>
<g style="fill:#585D84; fill-opacity:1.0; 
stroke:#585D84; stroke-width:101600.000000; stroke-opacity:1; 
stroke-linecap:round; stroke-linejoin:round;">
</g>
<g style="fill:#585D84; fill-opacity:0.0; 
stroke:#585D84; stroke-width:101600.000000; stroke-opacity:1; 
stroke-linecap:round; stroke-linejoin:round;">
<path d="M146417900 107353200
L147129900 107353200
" />
<path d="M146417900 108204200
L147129900 108204200
" />
</g>
<g style="fill:#585D84; fill-opacity:1.0; 
stroke:#585D84; stroke-width:1.000000; stroke-opacity:1; 
stroke-linecap:round; stroke-linejoin:round;">
<path style="fill:#585D84; fill-opacity:1.0; 
stroke:#585D84; stroke-width:1.000000; stroke-opacity:1; 
stroke-linecap:round; stroke-linejoin:round;fill-rule:evenodd;"
d="M 147604200.000000,108252300.000000
147104100.000000,108252300.000000
147104100.000000,107302300.000000
147604200.000000,107302300.000000
Z" /> 
<path style="fill:#585D84; fill-opacity:1.0; 
stroke:#585D84; stroke-width:1.000000; stroke-opacity:1; 
stroke-linecap:round; stroke-linejoin:round;fill-rule:evenodd;"
d="M 146435800.000000,108252300.000000
145935700.000000,108252300.000000
145935700.000000,107302300.000000
146435800.000000,107302300.000000
Z" /> 
</g>
<g style="fill:#585D84; fill-opacity:1.0; 
stroke:#585D84; stroke-width:101600.000000; stroke-opacity:1; 
stroke-linecap:round; stroke-linejoin:round;">
</g>
<g style="fill:#585D84; fill-opacity:0.0; 
stroke:#585D84; stroke-width:101600.000000; stroke-opacity:1; 
stroke-linecap:round; stroke-linejoin:round;">
<path d="M131051100 104520600
L131051100 105232600
" />
<path d="M131902100 104520600
L131902100 105232600
" />
</g>
<g style="fill:#585D84; fill-opacity:1.0; 
stroke:#585D84; stroke-width:1.000000; stroke-opacity:1; 
stroke-linecap:round; stroke-linejoin:round;">
<path style="fill:#585D84; fill-opacity:1.0; 
stroke:#585D84; stroke-width:1.000000; stroke-opacity:1; 
stroke-linecap:round; stroke-linejoin:round;fill-rule:evenodd;"
d="M 131953000.000000,105706900.000000
131003000.000000,105706900.000000
131003000.000000,105206800.000000
131953000.000000,105206800.000000
Z" /> 
<path style="fill:#585D84; fill-opacity:1.0; 
stroke:#585D84; stroke-width:1.000000; stroke-opacity:1; 
stroke-linecap:round; stroke-linejoin:round;fill-rule:evenodd;"
d="M 131953000.000000,104538500.000000
131003000.000000,104538500.000000
131003000.000000,104038400.000000
131953000.000000,104038400.000000
Z" /> 
</g>
<g style="fill:#585D84; fill-opacity:1.0; 
stroke:#585D84; stroke-width:101600.000000; stroke-opacity:1; 
stroke-linecap:round; stroke-linejoin:round;">
</g>
<g style="fill:#585D84; fill-opacity:0.0; 
stroke:#585D84; stroke-width:101600.000000; stroke-opacity:1; 
stroke-linecap:round; stroke-linejoin:round;">
<path d="M155842100 110756600
L155130100 110756600
" />
<path d="M155842100 109905600
L155130100 109905600
" />
</g>
<g style="fill:#585D84; fill-opacity:1.0; 
stroke:#585D84; stroke-width:1.000000; stroke-opacity:1; 
stroke-linecap:round; stroke-linejoin:round;">
<path style="fill:#585D84; fill-opacity:1.0; 
stroke:#585D84; stroke-width:1.000000; stroke-opacity:1; 
stroke-linecap:round; stroke-linejoin:round;fill-rule:evenodd;"
d="M 156324300.000000,110807500.000000
155824200.000000,110807500.000000
155824200.000000,109857500.000000
156324300.000000,109857500.000000
Z" /> 
<path style="fill:#585D84; fill-opacity:1.0; 
stroke:#585D84; stroke-width:1.000000; stroke-opacity:1; 
stroke-linecap:round; stroke-linejoin:round;fill-rule:evenodd;"
d="M 155155900.000000,110807500.000000
154655800.000000,110807500.000000
154655800.000000,109857500.000000
155155900.000000,109857500.000000
Z" /> 
</g>
<g style="fill:#585D84; fill-opacity:1.0; 
stroke:#585D84; stroke-width:101600.000000; stroke-opacity:1; 
stroke-linecap:round; stroke-linejoin:round;">
</g>
<g style="fill:#585D84; fill-opacity:0.0; 
stroke:#585D84; stroke-width:101600.000000; stroke-opacity:1; 
stroke-linecap:round; stroke-linejoin:round;">
<path d="M157847900 99631600
L158559900 99631600
" />
<path d="M157847900 100482600
L158559900 100482600
" />
</g>
<g style="fill:#585D84; fill-opacity:1.0; 
stroke:#585D84; stroke-width:1.000000; stroke-opacity:1; 
stroke-linecap:round; stroke-linejoin:round;">
<path style="fill:#585D84; fill-opacity:1.0; 
stroke:#585D84; stroke-width:1.000000; stroke-opacity:1; 
stroke-linecap:round; stroke-linejoin:round;fill-rule:evenodd;"
d="M 157865800.000000,100530700.000000
157365700.000000,100530700.000000
157365700.000000,99580700.000000
157865800.000000,99580700.000000
Z" /> 
<path style="fill:#585D84; fill-opacity:1.0; 
stroke:#585D84; stroke-width:1.000000; stroke-opacity:1; 
stroke-linecap:round; stroke-linejoin:round;fill-rule:evenodd;"
d="M 159034200.000000,100530700.000000
158534100.000000,100530700.000000
158534100.000000,99580700.000000
159034200.000000,99580700.000000
Z" /> 
</g>
<g style="fill:#585D84; fill-opacity:1.0; 
stroke:#585D84; stroke-width:101600.000000; stroke-opacity:1; 
stroke-linecap:round; stroke-linejoin:round;">
</g>
<g style="fill:#585D84; fill-opacity:0.0; 
stroke:#585D84; stroke-width:101600.000000; stroke-opacity:1; 
stroke-linecap:round; stroke-linejoin:round;">
<path d="M151283100 100701600
L151283100 100151600
" />
<path d="M149783100 103251600
L151283100 103251600
" />
<path d="M149783100 100151600
L149783100 100701600
" />
<path d="M149783100 101101600
L149783100 101501600
" />
<path d="M149783100 102701600
L149783100 103251600
" />
<path d="M151283100 102301600
L151283100 101901600
" />
<path d="M151283100 103251600
L151283100 102701600
" />
<path d="M149783100 101901600
L149783100 102301600
" />
<path d="M151283100 100151600
L149783100 100151600
" />
<path d="M151283100 101501600
L151283100 101101600
" />
<path d="M149783100.000000 101101600.000000 A200000.000000 200000.000000 0.0 0 0 149783100.000000 100701600.000000" />
<path d="M149783100.000000 101901600.000000 A200000.000000 200000.000000 0.0 0 0 149783100.000000 101501600.000000" />
<path d="M151283100.000000 100701600.000000 A200000.000000 200000.000000 0.0 0 0 151283100.000000 101101600.000000" />
<path d="M151283100.000000 102301600.000000 A200000.000000 200000.000000 0.0 0 0 151283100.000000 102701600.000000" />
<path d="M151283100.000000 101501600.000000 A200000.000000 200000.000000 0.0 0 0 151283100.000000 101901600.000000" />
<path d="M149783100.000000 102701600.000000 A200000.000000 200000.000000 0.0 0 0 149783100.000000 102301600.000000" />
</g>
<g style="fill:#585D84; fill-opacity:0.0; 
stroke:#585D84; stroke-width:25000.000000; stroke-opacity:1; 
stroke-linecap:round; stroke-linejoin:round;">
<path d="M128179900 108997800
L129779900 108997800
" />
<path d="M129779900 108997800
L129779900 109797800
" />
<path d="M129779900 109797800
L128179900 109797800
" />
<path d="M128179900 109797800
L128179900 108997800
" />
</g>
<g style="fill:#585D84; fill-opacity:0.0; 
stroke:#585D84; stroke-width:101600.000000; stroke-opacity:1; 
stroke-linecap:round; stroke-linejoin:round;">
<path d="M151283100 109652400
L151283100 109102400
" />
<path d="M151283100 107102400
L151283100 106552400
" />
<path d="M149783100 106552400
L149783100 107102400
" />
<path d="M149783100 107502400
L149783100 107902400
" />
<path d="M151283100 106552400
L149783100 106552400
" />
<path d="M149783100 109102400
L149783100 109652400
" />
<path d="M151283100 107902400
L151283100 107502400
" />
<path d="M149783100 109652400
L151283100 109652400
" />
<path d="M151283100 108702400
L151283100 108302400
" />
<path d="M149783100 108302400
L149783100 108702400
" />
<path d="M151283100.000000 107902400.000000 A200000.000000 200000.000000 0.0 0 0 151283100.000000 108302400.000000" />
<path d="M149783100.000000 107502400.000000 A200000.000000 200000.000000 0.0 0 0 149783100.000000 107102400.000000" />
<path d="M149783100.000000 108302400.000000 A200000.000000 200000.000000 0.0 0 0 149783100.000000 107902400.000000" />
<path d="M151283100.000000 107102400.000000 A200000.000000 200000.000000 0.0 0 0 151283100.000000 107502400.000000" />
<path d="M151283100.000000 108702400.000000 A200000.000000 200000.000000 0.0 0 0 151283100.000000 109102400.000000" />
<path d="M149783100.000000 109102400.000000 A200000.000000 200000.000000 0.0 0 0 149783100.000000 108702400.000000" />
</g>
<g style="fill:#585D84; fill-opacity:1.0; 
stroke:#585D84; stroke-width:1.000000; stroke-opacity:1; 
stroke-linecap:round; stroke-linejoin:round;">
<path style="fill:#585D84; fill-opacity:1.0; 
stroke:#585D84; stroke-width:1.000000; stroke-opacity:1; 
stroke-linecap:round; stroke-linejoin:round;fill-rule:evenodd;"
d="M 158254700.000000,109016800.000000
156400500.000000,109016800.000000
156400500.000000,105816400.000000
158254700.000000,105816400.000000
Z" /> 
<path style="fill:#585D84; fill-opacity:1.0; 
stroke:#585D84; stroke-width:1.000000; stroke-opacity:1; 
stroke-linecap:round; stroke-linejoin:round;fill-rule:evenodd;"
d="M 163715700.000000,105537000.000000
161861500.000000,105537000.000000
161861500.000000,104673400.000000
163715700.000000,104673400.000000
Z" /> 
<path style="fill:#585D84; fill-opacity:1.0; 
stroke:#585D84; stroke-width:1.000000; stroke-opacity:1; 
stroke-linecap:round; stroke-linejoin:round;fill-rule:evenodd;"
d="M 163715700.000000,107848400.000000
161861500.000000,107848400.000000
161861500.000000,106984800.000000
163715700.000000,106984800.000000
Z" /> 
<path style="fill:#585D84; fill-opacity:1.0; 
stroke:#585D84; stroke-width:1.000000; stroke-opacity:1; 
stroke-linecap:round; stroke-linejoin:round;fill-rule:evenodd;"
d="M 163715700.000000,110159800.000000
161861500.000000,110159800.000000
161861500.000000,109296200.000000
163715700.000000,109296200.000000
Z" /> 
<path style="fill:#585D84; fill-opacity:1.0; 
stroke:#585D84; stroke-width:1.000000; stroke-opacity:1; 
stroke-linecap:round; stroke-linejoin:round;fill-rule:evenodd;"
d="M 163715700.000000,105537000.000000
161861500.000000,105537000.000000
161861500.000000,104673400.000000
163715700.000000,104673400.000000
Z" /> 
<path style="fill:#585D84; fill-opacity:1.0; 
stroke:#585D84; stroke-width:1.000000; stroke-opacity:1; 
stroke-linecap:round; stroke-linejoin:round;fill-rule:evenodd;"
d="M 158254700.000000,109016800.000000
156400500.000000,109016800.000000
156400500.000000,105816400.000000
158254700.000000,105816400.000000
Z" /> 
<path style="fill:#585D84; fill-opacity:1.0; 
stroke:#585D84; stroke-width:1.000000; stroke-opacity:1; 
stroke-linecap:round; stroke-linejoin:round;fill-rule:evenodd;"
d="M 163715700.000000,110159800.000000
161861500.000000,110159800.000000
161861500.000000,109296200.000000
163715700.000000,109296200.000000
Z" /> 
<path style="fill:#585D84; fill-opacity:1.0; 
stroke:#585D84; stroke-width:1.000000; stroke-opacity:1; 
stroke-linecap:round; stroke-linejoin:round;fill-rule:evenodd;"
d="M 163715700.000000,107848400.000000
161861500.000000,107848400.000000
161861500.000000,106984800.000000
163715700.000000,106984800.000000
Z" /> 
</g>
<g style="fill:#585D84; fill-opacity:1.0; 
stroke:#585D84; stroke-width:101600.000000; stroke-opacity:1; 
stroke-linecap:round; stroke-linejoin:round;">
</g>
<g style="fill:#585D84; fill-opacity:0.0; 
stroke:#585D84; stroke-width:101600.000000; stroke-opacity:1; 
stroke-linecap:round; stroke-linejoin:round;">
<path d="M144081900 107416400
L143369900 107416400
" />
<path d="M144081900 108267400
L143369900 108267400
" />
</g>
<g style="fill:#585D84; fill-opacity:1.0; 
stroke:#585D84; stroke-width:1.000000; stroke-opacity:1; 
stroke-linecap:round; stroke-linejoin:round;">
<path style="fill:#585D84; fill-opacity:1.0; 
stroke:#585D84; stroke-width:1.000000; stroke-opacity:1; 
stroke-linecap:round; stroke-linejoin:round;fill-rule:evenodd;"
d="M 143395700.000000,108318300.000000
142895600.000000,108318300.000000
142895600.000000,107368300.000000
143395700.000000,107368300.000000
Z" /> 
<path style="fill:#585D84; fill-opacity:1.0; 
stroke:#585D84; stroke-width:1.000000; stroke-opacity:1; 
stroke-linecap:round; stroke-linejoin:round;fill-rule:evenodd;"
d="M 144564100.000000,108318300.000000
144064000.000000,108318300.000000
144064000.000000,107368300.000000
144564100.000000,107368300.000000
Z" /> 
<g >
</g>
<g >
</g>
<g >
</g>
<g >
</g>
<g >
</g>
<g >
</g>
<g >
</g>
<g >
</g>
<g >
</g>
<g >
</g>
<g >
</g>
<g >
</g>
<g >
</g>
<g >
</g>
<g >
</g>
<g >
</g>
<g >
</g>
<g >
</g>
<g >
</g>
<g >
</g>
<g >
</g>
<g >
</g>
<g >
</g>
<g >
</g>
<g >
</g>
<g >
</g>
<g >
</g>
<g >
</g>
<g >
</g>
<g >
</g>
<g >
</g>
<g >
</g>
<g >
</g>
<g >
</g>
<g >
</g>
<g >
</g>
<g >
</g>
<g >
</g>
<g >
</g>
<g >
</g>
</g>
<g style="fill:#000000; fill-opacity:1.0; 
stroke:#000000; stroke-width:1.000000; stroke-opacity:1; 
stroke-linecap:round; stroke-linejoin:round;">
</g>
<g style="fill:#D0D2CD; fill-opacity:1.0; 
stroke:#D0D2CD; stroke-width:1.000000; stroke-opacity:1; 
stroke-linecap:round; stroke-linejoin:round;">
</g>
<g style="fill:#D0D2CD; fill-opacity:1.0; 
stroke:#D0D2CD; stroke-width:50000.000000; stroke-opacity:1; 
stroke-linecap:round; stroke-linejoin:round;">
</g>
<g style="fill:#D0D2CD; fill-opacity:0.0; 
stroke:#D0D2CD; stroke-width:50000.000000; stroke-opacity:1; 
stroke-linecap:round; stroke-linejoin:round;">
<path d="M126911100 113893600
L170091100 113893600
" />
<path d="M170091100 113893600
L170091100 96113600
" />
<path d="M170091100 96113600
L126911100 96113600
" />
<path d="M126911100 96113600
L126911100 113893600
" />
<g >
</g>
<g >
</g>
<g >
</g>
<g >
</g>
<g >
</g>
<g >
</g>
<g >
</g>
<g >
</g>
<g >
</g>
<g >
</g>
<g >
</g>
<g >
</g>
<g >
</g>
<g >
</g>
<g >
</g>
<g >
</g>
<g >
</g>
<g >
</g>
<g >
</g>
<g >
</g>
<g >
</g>
<g >
</g>
<g >
</g>
<g >
</g>
<g >
</g>
<g >
</g>
<g >
</g>
<g >
</g>
<g >
</g>
<g >
</g>
<g >
</g>
<g >
</g>
<g >
</g>
<g >
</g>
<g >
</g>
<g >
</g>
<g >
</g>
<g >
</g>
<g >
</g>
<g >
</g>
</g> 
</svg>
