G04 EAGLE Gerber RS-274X export*
G75*
%MOMM*%
%FSLAX34Y34*%
%LPD*%
%INTop Copper*%
%IPPOS*%
%AMOC8*
5,1,8,0,0,1.08239X$1,22.5*%
G01*
%ADD10R,1.200000X0.800000*%
%ADD11R,4.600000X1.000000*%
%ADD12R,3.400000X1.600000*%
%ADD13R,0.296800X0.850000*%
%ADD14R,2.400000X1.650000*%
%ADD15R,0.700000X0.280000*%
%ADD16R,1.000000X1.100000*%
%ADD17R,1.100000X1.000000*%
%ADD18R,1.270000X0.635000*%
%ADD19C,1.879600*%
%ADD20C,1.000000*%
%ADD21R,1.800000X1.600000*%
%ADD22R,1.300000X1.300000*%
%ADD23C,1.016000*%
%ADD24C,0.254000*%
%ADD25C,1.016000*%
%ADD26C,0.609600*%

G36*
X41107Y67577D02*
X41107Y67577D01*
X41195Y67580D01*
X41247Y67597D01*
X41302Y67605D01*
X41382Y67640D01*
X41465Y67667D01*
X41504Y67695D01*
X41562Y67721D01*
X41675Y67817D01*
X41739Y67862D01*
X43393Y69517D01*
X56919Y69517D01*
X58573Y67862D01*
X58643Y67810D01*
X58707Y67750D01*
X58757Y67724D01*
X58801Y67691D01*
X58882Y67660D01*
X58960Y67620D01*
X59008Y67612D01*
X59066Y67590D01*
X59214Y67578D01*
X59291Y67565D01*
X80137Y67565D01*
X80223Y67577D01*
X80311Y67580D01*
X80363Y67597D01*
X80418Y67605D01*
X80498Y67640D01*
X80581Y67667D01*
X80620Y67695D01*
X80678Y67721D01*
X80791Y67817D01*
X80855Y67862D01*
X81233Y68241D01*
X96727Y68241D01*
X97105Y67862D01*
X97175Y67810D01*
X97239Y67750D01*
X97289Y67724D01*
X97333Y67691D01*
X97414Y67660D01*
X97492Y67620D01*
X97540Y67612D01*
X97598Y67590D01*
X97746Y67578D01*
X97823Y67565D01*
X100137Y67565D01*
X100223Y67577D01*
X100311Y67580D01*
X100363Y67597D01*
X100418Y67605D01*
X100498Y67640D01*
X100581Y67667D01*
X100620Y67695D01*
X100678Y67721D01*
X100791Y67817D01*
X100855Y67862D01*
X101233Y68241D01*
X106727Y68241D01*
X107105Y67862D01*
X107175Y67810D01*
X107239Y67750D01*
X107289Y67724D01*
X107333Y67691D01*
X107414Y67660D01*
X107492Y67620D01*
X107540Y67612D01*
X107598Y67590D01*
X107746Y67578D01*
X107823Y67565D01*
X214630Y67565D01*
X214688Y67573D01*
X214746Y67571D01*
X214828Y67593D01*
X214912Y67605D01*
X214965Y67629D01*
X215021Y67643D01*
X215094Y67686D01*
X215171Y67721D01*
X215216Y67759D01*
X215266Y67789D01*
X215324Y67850D01*
X215388Y67905D01*
X215420Y67953D01*
X215460Y67996D01*
X215499Y68071D01*
X215546Y68141D01*
X215563Y68197D01*
X215590Y68249D01*
X215601Y68317D01*
X215631Y68412D01*
X215634Y68512D01*
X215645Y68580D01*
X215645Y83058D01*
X215637Y83116D01*
X215639Y83174D01*
X215617Y83256D01*
X215605Y83340D01*
X215582Y83393D01*
X215567Y83449D01*
X215524Y83522D01*
X215489Y83599D01*
X215451Y83644D01*
X215422Y83694D01*
X215360Y83752D01*
X215306Y83816D01*
X215257Y83848D01*
X215214Y83888D01*
X215139Y83927D01*
X215069Y83974D01*
X215013Y83991D01*
X214961Y84018D01*
X214893Y84029D01*
X214798Y84059D01*
X214698Y84062D01*
X214630Y84073D01*
X108077Y84073D01*
X107991Y84061D01*
X107903Y84058D01*
X107851Y84041D01*
X107796Y84033D01*
X107716Y83998D01*
X107633Y83971D01*
X107593Y83943D01*
X107536Y83917D01*
X107423Y83821D01*
X107359Y83776D01*
X106727Y83143D01*
X91233Y83143D01*
X90601Y83776D01*
X90531Y83828D01*
X90467Y83888D01*
X90418Y83914D01*
X90373Y83947D01*
X90292Y83978D01*
X90214Y84018D01*
X90166Y84026D01*
X90108Y84048D01*
X89960Y84060D01*
X89883Y84073D01*
X88077Y84073D01*
X87991Y84061D01*
X87903Y84058D01*
X87851Y84041D01*
X87796Y84033D01*
X87716Y83998D01*
X87633Y83971D01*
X87593Y83943D01*
X87536Y83917D01*
X87423Y83821D01*
X87359Y83776D01*
X86727Y83143D01*
X81233Y83143D01*
X80601Y83776D01*
X80531Y83828D01*
X80467Y83888D01*
X80418Y83914D01*
X80373Y83947D01*
X80292Y83978D01*
X80214Y84018D01*
X80166Y84026D01*
X80108Y84048D01*
X79960Y84060D01*
X79883Y84073D01*
X63931Y84073D01*
X63845Y84061D01*
X63757Y84058D01*
X63705Y84041D01*
X63650Y84033D01*
X63570Y83998D01*
X63487Y83971D01*
X63448Y83943D01*
X63390Y83917D01*
X63277Y83821D01*
X63213Y83776D01*
X56399Y76961D01*
X31231Y76961D01*
X24417Y83776D01*
X24347Y83828D01*
X24283Y83888D01*
X24234Y83914D01*
X24189Y83947D01*
X24108Y83978D01*
X24030Y84018D01*
X23982Y84026D01*
X23924Y84048D01*
X23776Y84060D01*
X23699Y84073D01*
X5080Y84073D01*
X5022Y84065D01*
X4964Y84067D01*
X4882Y84045D01*
X4798Y84033D01*
X4745Y84010D01*
X4689Y83995D01*
X4616Y83952D01*
X4539Y83917D01*
X4494Y83879D01*
X4444Y83850D01*
X4386Y83788D01*
X4322Y83734D01*
X4290Y83685D01*
X4250Y83642D01*
X4211Y83567D01*
X4164Y83497D01*
X4147Y83441D01*
X4120Y83389D01*
X4109Y83321D01*
X4079Y83226D01*
X4076Y83126D01*
X4065Y83058D01*
X4065Y68580D01*
X4073Y68522D01*
X4071Y68464D01*
X4093Y68382D01*
X4105Y68299D01*
X4128Y68245D01*
X4143Y68189D01*
X4186Y68116D01*
X4221Y68039D01*
X4259Y67994D01*
X4288Y67944D01*
X4350Y67886D01*
X4404Y67822D01*
X4453Y67790D01*
X4496Y67750D01*
X4571Y67711D01*
X4641Y67665D01*
X4697Y67647D01*
X4749Y67620D01*
X4817Y67609D01*
X4912Y67579D01*
X5012Y67576D01*
X5080Y67565D01*
X41021Y67565D01*
X41107Y67577D01*
G37*
G36*
X88741Y36848D02*
X88741Y36848D01*
X88880Y36861D01*
X88899Y36868D01*
X88919Y36871D01*
X89048Y36922D01*
X89179Y36969D01*
X89196Y36980D01*
X89215Y36988D01*
X89327Y37069D01*
X89442Y37147D01*
X89456Y37163D01*
X89472Y37174D01*
X89561Y37282D01*
X89653Y37386D01*
X89662Y37404D01*
X89675Y37419D01*
X89734Y37545D01*
X89797Y37669D01*
X89802Y37689D01*
X89810Y37707D01*
X89836Y37843D01*
X89867Y37979D01*
X89866Y38000D01*
X89870Y38020D01*
X89861Y38158D01*
X89857Y38297D01*
X89852Y38317D01*
X89850Y38337D01*
X89808Y38469D01*
X89769Y38603D01*
X89759Y38620D01*
X89752Y38639D01*
X89678Y38757D01*
X89607Y38877D01*
X89589Y38898D01*
X89582Y38908D01*
X89567Y38922D01*
X89511Y38986D01*
X89511Y49530D01*
X89496Y49648D01*
X89489Y49767D01*
X89476Y49805D01*
X89471Y49846D01*
X89428Y49956D01*
X89391Y50069D01*
X89369Y50104D01*
X89354Y50141D01*
X89285Y50237D01*
X89221Y50338D01*
X89191Y50366D01*
X89168Y50399D01*
X89076Y50475D01*
X88989Y50556D01*
X88954Y50576D01*
X88923Y50601D01*
X88815Y50652D01*
X88711Y50710D01*
X88671Y50720D01*
X88635Y50737D01*
X88518Y50759D01*
X88403Y50789D01*
X88343Y50793D01*
X88323Y50797D01*
X88302Y50795D01*
X88242Y50799D01*
X86389Y50799D01*
X86290Y50787D01*
X86191Y50784D01*
X86133Y50767D01*
X86073Y50759D01*
X85981Y50723D01*
X85886Y50695D01*
X85834Y50665D01*
X85777Y50642D01*
X85697Y50584D01*
X85612Y50534D01*
X85537Y50468D01*
X85520Y50456D01*
X85516Y50451D01*
X85513Y50449D01*
X85508Y50442D01*
X85491Y50428D01*
X83577Y48513D01*
X77967Y48513D01*
X76053Y50428D01*
X75975Y50488D01*
X75903Y50556D01*
X75850Y50585D01*
X75802Y50622D01*
X75711Y50662D01*
X75624Y50710D01*
X75565Y50725D01*
X75510Y50749D01*
X75412Y50764D01*
X75316Y50789D01*
X75216Y50795D01*
X75196Y50799D01*
X75183Y50797D01*
X75155Y50799D01*
X25907Y50799D01*
X25907Y54922D01*
X25895Y55008D01*
X25892Y55096D01*
X25875Y55148D01*
X25867Y55203D01*
X25832Y55283D01*
X25805Y55366D01*
X25777Y55405D01*
X25751Y55462D01*
X25655Y55576D01*
X25623Y55621D01*
X25623Y60452D01*
X25615Y60507D01*
X25617Y60552D01*
X25616Y60553D01*
X25617Y60568D01*
X25595Y60650D01*
X25583Y60734D01*
X25560Y60787D01*
X25545Y60843D01*
X25502Y60916D01*
X25467Y60993D01*
X25429Y61038D01*
X25400Y61088D01*
X25338Y61146D01*
X25284Y61210D01*
X25235Y61242D01*
X25192Y61282D01*
X25117Y61321D01*
X25047Y61368D01*
X24991Y61385D01*
X24939Y61412D01*
X24871Y61423D01*
X24776Y61453D01*
X24676Y61456D01*
X24608Y61467D01*
X4064Y61467D01*
X4006Y61459D01*
X3948Y61461D01*
X3866Y61439D01*
X3782Y61427D01*
X3729Y61404D01*
X3673Y61389D01*
X3600Y61346D01*
X3523Y61311D01*
X3478Y61273D01*
X3428Y61244D01*
X3370Y61182D01*
X3306Y61128D01*
X3274Y61079D01*
X3234Y61036D01*
X3195Y60961D01*
X3148Y60891D01*
X3131Y60835D01*
X3104Y60783D01*
X3093Y60715D01*
X3063Y60620D01*
X3060Y60520D01*
X3049Y60452D01*
X3049Y38100D01*
X3057Y38042D01*
X3055Y37984D01*
X3077Y37902D01*
X3089Y37819D01*
X3112Y37765D01*
X3127Y37709D01*
X3170Y37636D01*
X3205Y37559D01*
X3243Y37514D01*
X3272Y37464D01*
X3334Y37406D01*
X3388Y37342D01*
X3437Y37310D01*
X3480Y37270D01*
X3555Y37231D01*
X3625Y37185D01*
X3681Y37167D01*
X3733Y37140D01*
X3801Y37129D01*
X3896Y37099D01*
X3996Y37096D01*
X4064Y37085D01*
X4575Y37085D01*
X4587Y37074D01*
X4622Y37054D01*
X4653Y37029D01*
X4761Y36978D01*
X4865Y36920D01*
X4905Y36910D01*
X4941Y36893D01*
X5058Y36871D01*
X5173Y36841D01*
X5233Y36837D01*
X5253Y36833D01*
X5274Y36835D01*
X5334Y36831D01*
X88603Y36831D01*
X88741Y36848D01*
G37*
G36*
X117662Y10168D02*
X117662Y10168D01*
X117722Y10166D01*
X117819Y10188D01*
X117918Y10201D01*
X117973Y10223D01*
X118032Y10236D01*
X118121Y10281D01*
X118213Y10318D01*
X118262Y10353D01*
X118315Y10380D01*
X118390Y10446D01*
X118471Y10504D01*
X118509Y10551D01*
X118554Y10590D01*
X118653Y10718D01*
X143799Y47802D01*
X143861Y47925D01*
X143928Y48045D01*
X143933Y48066D01*
X143943Y48085D01*
X143973Y48220D01*
X144007Y48353D01*
X144009Y48383D01*
X144012Y48396D01*
X144011Y48416D01*
X144017Y48514D01*
X144017Y57150D01*
X144002Y57268D01*
X143995Y57387D01*
X143982Y57425D01*
X143977Y57466D01*
X143934Y57576D01*
X143897Y57689D01*
X143875Y57724D01*
X143860Y57761D01*
X143791Y57857D01*
X143727Y57958D01*
X143697Y57986D01*
X143674Y58019D01*
X143582Y58095D01*
X143495Y58176D01*
X143460Y58196D01*
X143429Y58221D01*
X143321Y58272D01*
X143217Y58330D01*
X143177Y58340D01*
X143141Y58357D01*
X143024Y58379D01*
X142909Y58409D01*
X142849Y58413D01*
X142829Y58417D01*
X142808Y58415D01*
X142748Y58419D01*
X137595Y58419D01*
X131081Y63486D01*
X131064Y63496D01*
X131049Y63510D01*
X130927Y63577D01*
X130808Y63648D01*
X130788Y63654D01*
X130771Y63664D01*
X130636Y63698D01*
X130502Y63737D01*
X130482Y63738D01*
X130463Y63743D01*
X130302Y63753D01*
X105400Y63753D01*
X105253Y63812D01*
X105213Y63823D01*
X105175Y63841D01*
X105060Y63863D01*
X104946Y63892D01*
X104904Y63892D01*
X104862Y63900D01*
X104745Y63893D01*
X104628Y63893D01*
X104587Y63883D01*
X104545Y63881D01*
X104433Y63844D01*
X104319Y63815D01*
X104282Y63795D01*
X104243Y63783D01*
X104143Y63720D01*
X104040Y63663D01*
X104009Y63635D01*
X103974Y63612D01*
X103893Y63527D01*
X103807Y63447D01*
X103785Y63411D01*
X103756Y63381D01*
X103699Y63278D01*
X103636Y63179D01*
X103623Y63139D01*
X103602Y63102D01*
X103573Y62988D01*
X103536Y62877D01*
X103533Y62835D01*
X103523Y62794D01*
X103513Y62634D01*
X103513Y57912D01*
X103528Y57794D01*
X103535Y57675D01*
X103548Y57637D01*
X103553Y57596D01*
X103596Y57486D01*
X103633Y57373D01*
X103655Y57338D01*
X103670Y57301D01*
X103739Y57205D01*
X103803Y57104D01*
X103833Y57076D01*
X103856Y57043D01*
X103948Y56968D01*
X104035Y56886D01*
X104070Y56866D01*
X104101Y56841D01*
X104209Y56790D01*
X104313Y56732D01*
X104353Y56722D01*
X104389Y56705D01*
X104506Y56683D01*
X104621Y56653D01*
X104681Y56649D01*
X104701Y56645D01*
X104722Y56647D01*
X104782Y56643D01*
X105915Y56643D01*
X105966Y56604D01*
X106032Y56542D01*
X106092Y56509D01*
X106147Y56467D01*
X106231Y56432D01*
X106310Y56388D01*
X106377Y56371D01*
X106441Y56345D01*
X106531Y56332D01*
X106618Y56309D01*
X106739Y56301D01*
X106755Y56299D01*
X106763Y56300D01*
X106779Y56299D01*
X106823Y56299D01*
X108614Y54508D01*
X108622Y54442D01*
X108627Y54335D01*
X108642Y54285D01*
X108649Y54233D01*
X108688Y54133D01*
X108719Y54031D01*
X108746Y53986D01*
X108766Y53937D01*
X108829Y53851D01*
X108884Y53759D01*
X108940Y53698D01*
X108952Y53680D01*
X108965Y53670D01*
X108992Y53639D01*
X115063Y47725D01*
X115063Y35578D01*
X102735Y23250D01*
X102674Y23171D01*
X102606Y23099D01*
X102577Y23046D01*
X102540Y22998D01*
X102500Y22907D01*
X102452Y22821D01*
X102437Y22762D01*
X102413Y22706D01*
X102398Y22608D01*
X102373Y22513D01*
X102367Y22413D01*
X102363Y22392D01*
X102365Y22380D01*
X102363Y22352D01*
X102363Y11430D01*
X102378Y11312D01*
X102385Y11193D01*
X102398Y11155D01*
X102403Y11114D01*
X102446Y11004D01*
X102483Y10891D01*
X102505Y10856D01*
X102520Y10819D01*
X102590Y10723D01*
X102653Y10622D01*
X102683Y10594D01*
X102706Y10561D01*
X102798Y10486D01*
X102885Y10404D01*
X102920Y10384D01*
X102951Y10359D01*
X103059Y10308D01*
X103163Y10250D01*
X103203Y10240D01*
X103239Y10223D01*
X103356Y10201D01*
X103471Y10171D01*
X103532Y10167D01*
X103552Y10163D01*
X103572Y10165D01*
X103632Y10161D01*
X117602Y10161D01*
X117662Y10168D01*
G37*
D10*
X66040Y52722D03*
X66040Y70722D03*
D11*
X191600Y73500D03*
X191600Y53500D03*
D12*
X243600Y97500D03*
X243600Y29500D03*
D13*
X83980Y60942D03*
X88980Y60942D03*
X93980Y60942D03*
X98980Y60942D03*
X103980Y60942D03*
X103980Y90442D03*
X98980Y90442D03*
X93980Y90442D03*
X88980Y90442D03*
X83980Y90442D03*
D14*
X93980Y75692D03*
D15*
X78980Y78192D03*
X78980Y73192D03*
X108980Y78192D03*
X108980Y73192D03*
D16*
X159766Y99196D03*
X159766Y116196D03*
D17*
X50156Y61468D03*
X33156Y61468D03*
D16*
X175768Y116196D03*
X175768Y99196D03*
D17*
X118500Y115316D03*
X135500Y115316D03*
D16*
X9144Y97418D03*
X9144Y114418D03*
D17*
X97654Y115570D03*
X80654Y115570D03*
X45330Y109728D03*
X28330Y109728D03*
D18*
X63246Y101092D03*
X63246Y109220D03*
X63246Y117348D03*
D19*
X12700Y76200D03*
X12700Y50800D03*
D20*
X20066Y14986D03*
X241300Y114300D03*
D21*
X126238Y47722D03*
X126238Y75722D03*
D22*
X99060Y46750D03*
X99060Y16750D03*
D19*
X152400Y76200D03*
X152400Y50800D03*
D23*
X165100Y53500D02*
X129700Y53500D01*
D24*
X127000Y50800D01*
X103980Y88646D02*
X103980Y90442D01*
D23*
X166360Y53340D02*
X191600Y53500D01*
D24*
X162400Y50800D02*
X152400Y50800D01*
X162400Y50800D02*
X165100Y53500D01*
X93980Y90442D02*
X93980Y102616D01*
X228600Y79502D02*
X228600Y53340D01*
X103980Y90442D02*
X103980Y95598D01*
X105410Y97028D01*
X113538Y97028D01*
X120650Y89916D01*
X93980Y90442D02*
X93980Y104902D01*
X96012Y106934D01*
X141986Y106934D01*
D23*
X165100Y53500D02*
X228440Y53500D01*
X228600Y53340D01*
D24*
X140716Y89916D02*
X120650Y89916D01*
X140716Y89916D02*
X147320Y96520D01*
X147320Y101600D02*
X141986Y106934D01*
X159766Y99196D02*
X175768Y99196D01*
X147320Y99196D02*
X147320Y96520D01*
X147320Y99196D02*
X159766Y99196D01*
X147320Y99196D02*
X147320Y101600D01*
X208906Y99196D02*
X228600Y79502D01*
X208906Y99196D02*
X175768Y99196D01*
X166200Y53500D02*
X165100Y53500D01*
X166200Y53500D02*
X166360Y53340D01*
X93980Y51576D02*
X93980Y60942D01*
X93980Y51576D02*
X94234Y51576D01*
X99060Y46750D01*
X50682Y60942D02*
X50156Y61468D01*
X83980Y60942D02*
X83980Y55024D01*
X81788Y52832D01*
X79756Y52832D01*
X75946Y56642D01*
X75946Y59944D01*
X74422Y61468D01*
X50156Y61468D01*
D25*
X133096Y98298D03*
X209042Y114300D03*
D24*
X133096Y98298D02*
X130302Y98298D01*
X127000Y101600D01*
X100838Y101600D01*
X99060Y99822D01*
X99060Y90522D01*
X98980Y90442D01*
X159766Y116196D02*
X175768Y116196D01*
X136380Y116196D02*
X135500Y115316D01*
X136380Y116196D02*
X159766Y116196D01*
X175768Y116196D02*
X207146Y116196D01*
X209042Y114300D01*
X83980Y98900D02*
X83980Y90442D01*
X83980Y98900D02*
X80010Y102870D01*
X80010Y108458D01*
X80010Y114926D01*
X80654Y115570D01*
X63246Y109220D02*
X63246Y107950D01*
X79502Y107950D01*
X80010Y108458D01*
X98980Y73580D02*
X98980Y60942D01*
X98980Y73580D02*
X101600Y76200D01*
D25*
X87122Y75946D03*
X100076Y76200D03*
D24*
X33156Y71256D02*
X33156Y61468D01*
X33156Y71256D02*
X38100Y76200D01*
X88900Y90522D02*
X88980Y90442D01*
X88900Y80772D02*
X88980Y80692D01*
X88980Y80852D02*
X88980Y90442D01*
X88980Y80852D02*
X88900Y80772D01*
X97654Y115570D02*
X118246Y115570D01*
X118500Y115316D01*
X97654Y115570D02*
X88980Y106896D01*
X88980Y90442D01*
X9144Y97418D02*
X9144Y98044D01*
X12700Y101600D01*
X33020Y81280D02*
X54610Y81280D01*
X62230Y88900D01*
X62230Y100076D01*
X63246Y101092D01*
X33020Y81280D02*
X12700Y101600D01*
X53340Y118110D02*
X62484Y118110D01*
X63246Y117348D01*
X53340Y117738D02*
X45330Y109728D01*
X53340Y117738D02*
X53340Y118110D01*
X88980Y60942D02*
X88980Y38180D01*
X88900Y38100D01*
X71852Y38100D01*
D25*
X48768Y89662D03*
D26*
X24402Y114418D02*
X9144Y114418D01*
X28330Y109728D02*
X28330Y97400D01*
X36068Y89662D01*
X28330Y109728D02*
X24402Y113656D01*
X24402Y114418D01*
X36068Y89662D02*
X48768Y89662D01*
M02*
