G04 EAGLE Gerber RS-274X export*
G75*
%MOMM*%
%FSLAX34Y34*%
%LPD*%
%INSolderpaste Top*%
%IPPOS*%
%AMOC8*
5,1,8,0,0,1.08239X$1,22.5*%
G01*
%ADD10R,2.600000X0.250000*%
%ADD11R,0.270000X1.500000*%
%ADD12R,1.500000X0.270000*%
%ADD13R,5.200000X5.200000*%
%ADD14R,1.500000X1.300000*%
%ADD15R,1.300000X1.200000*%
%ADD16R,1.200000X1.300000*%
%ADD17R,1.300000X1.500000*%
%ADD18R,1.200000X0.550000*%
%ADD19R,1.300000X1.300000*%
%ADD20R,3.600000X1.300000*%
%ADD21R,1.350000X0.400000*%
%ADD22R,2.000000X1.000000*%
%ADD23R,2.500000X2.500000*%
%ADD24R,1.270000X0.304800*%
%ADD25R,1.700000X0.700000*%
%ADD26R,0.900000X0.450000*%
%ADD27R,0.450000X0.900000*%
%ADD28R,1.200000X1.200000*%
%ADD29R,1.800000X4.000000*%
%ADD30R,1.400000X1.400000*%
%ADD31R,2.540000X2.540000*%
%ADD32R,1.200000X1.000000*%
%ADD33R,0.250000X1.100000*%
%ADD34R,2.300000X3.100000*%
%ADD35R,1.350000X0.800000*%
%ADD36R,2.600000X1.400000*%

G36*
X46598Y322873D02*
X46598Y322873D01*
X47872Y323073D01*
X47919Y323090D01*
X48009Y323111D01*
X49205Y323589D01*
X49248Y323616D01*
X49331Y323656D01*
X50391Y324388D01*
X50427Y324424D01*
X50498Y324482D01*
X51369Y325432D01*
X51396Y325474D01*
X51453Y325547D01*
X52090Y326667D01*
X52107Y326714D01*
X52146Y326797D01*
X52519Y328031D01*
X52524Y328081D01*
X52544Y328171D01*
X52633Y329456D01*
X52631Y329476D01*
X52634Y329500D01*
X52634Y340500D01*
X52632Y340515D01*
X52633Y340535D01*
X52572Y341661D01*
X52561Y341708D01*
X52553Y341784D01*
X52272Y342877D01*
X52252Y342921D01*
X52230Y342994D01*
X51742Y344011D01*
X51714Y344050D01*
X51677Y344117D01*
X51000Y345020D01*
X50965Y345053D01*
X50916Y345111D01*
X50076Y345864D01*
X50035Y345890D01*
X49975Y345938D01*
X49004Y346512D01*
X48959Y346529D01*
X48892Y346565D01*
X47827Y346939D01*
X47780Y346947D01*
X47707Y346969D01*
X46590Y347128D01*
X46562Y347127D01*
X46410Y347128D01*
X45294Y346969D01*
X45248Y346954D01*
X45173Y346939D01*
X44108Y346565D01*
X44066Y346541D01*
X43996Y346512D01*
X43025Y345938D01*
X42988Y345906D01*
X42924Y345864D01*
X42084Y345111D01*
X42055Y345074D01*
X42000Y345020D01*
X41323Y344117D01*
X41301Y344074D01*
X41258Y344011D01*
X40770Y342994D01*
X40757Y342947D01*
X40728Y342877D01*
X40447Y341784D01*
X40444Y341736D01*
X40428Y341661D01*
X40367Y340535D01*
X40369Y340519D01*
X40366Y340500D01*
X40366Y329500D01*
X40369Y329485D01*
X40367Y329465D01*
X40428Y328339D01*
X40440Y328292D01*
X40447Y328216D01*
X40728Y327123D01*
X40748Y327079D01*
X40770Y327006D01*
X41258Y325989D01*
X41287Y325950D01*
X41323Y325883D01*
X42000Y324980D01*
X42035Y324947D01*
X42084Y324889D01*
X42924Y324136D01*
X42965Y324110D01*
X43025Y324062D01*
X43996Y323488D01*
X44041Y323471D01*
X44108Y323435D01*
X45173Y323061D01*
X45220Y323053D01*
X45294Y323031D01*
X46410Y322872D01*
X46411Y322872D01*
X46598Y322873D01*
G37*
G36*
X46598Y244873D02*
X46598Y244873D01*
X47872Y245073D01*
X47919Y245090D01*
X48009Y245111D01*
X49205Y245589D01*
X49248Y245616D01*
X49331Y245656D01*
X50391Y246388D01*
X50427Y246424D01*
X50498Y246482D01*
X51369Y247432D01*
X51396Y247474D01*
X51453Y247547D01*
X52090Y248667D01*
X52107Y248714D01*
X52146Y248797D01*
X52519Y250031D01*
X52524Y250081D01*
X52544Y250171D01*
X52633Y251456D01*
X52631Y251476D01*
X52634Y251500D01*
X52634Y262500D01*
X52632Y262515D01*
X52633Y262535D01*
X52572Y263661D01*
X52561Y263708D01*
X52553Y263784D01*
X52272Y264877D01*
X52252Y264921D01*
X52230Y264994D01*
X51742Y266011D01*
X51714Y266050D01*
X51677Y266117D01*
X51000Y267020D01*
X50965Y267053D01*
X50916Y267111D01*
X50076Y267864D01*
X50035Y267890D01*
X49975Y267938D01*
X49004Y268512D01*
X48959Y268529D01*
X48892Y268565D01*
X47827Y268939D01*
X47780Y268947D01*
X47707Y268969D01*
X46590Y269128D01*
X46562Y269127D01*
X46410Y269128D01*
X45294Y268969D01*
X45248Y268954D01*
X45173Y268939D01*
X44108Y268565D01*
X44066Y268541D01*
X43996Y268512D01*
X43025Y267938D01*
X42988Y267906D01*
X42924Y267864D01*
X42084Y267111D01*
X42055Y267074D01*
X42000Y267020D01*
X41323Y266117D01*
X41301Y266074D01*
X41258Y266011D01*
X40770Y264994D01*
X40757Y264947D01*
X40728Y264877D01*
X40447Y263784D01*
X40444Y263736D01*
X40428Y263661D01*
X40367Y262535D01*
X40369Y262519D01*
X40366Y262500D01*
X40366Y251500D01*
X40369Y251485D01*
X40367Y251465D01*
X40428Y250339D01*
X40440Y250292D01*
X40447Y250216D01*
X40728Y249123D01*
X40748Y249079D01*
X40770Y249006D01*
X41258Y247989D01*
X41287Y247950D01*
X41323Y247883D01*
X42000Y246980D01*
X42035Y246947D01*
X42084Y246889D01*
X42924Y246136D01*
X42965Y246110D01*
X43025Y246062D01*
X43996Y245488D01*
X44041Y245471D01*
X44108Y245435D01*
X45173Y245061D01*
X45220Y245053D01*
X45294Y245031D01*
X46410Y244872D01*
X46411Y244872D01*
X46598Y244873D01*
G37*
D10*
X92500Y465000D03*
X92500Y470000D03*
X92500Y475000D03*
X92500Y480000D03*
X92500Y485000D03*
X92500Y490000D03*
X92500Y495000D03*
X92500Y500000D03*
X92500Y505000D03*
X92500Y510000D03*
X92500Y515000D03*
X92500Y520000D03*
X92500Y525000D03*
X92500Y530000D03*
X92500Y535000D03*
X92500Y540000D03*
X92500Y545000D03*
X92500Y550000D03*
X92500Y555000D03*
D11*
X230000Y587500D03*
X235000Y587500D03*
X240000Y587500D03*
X245000Y587500D03*
X250000Y587500D03*
X255000Y587500D03*
X260000Y587500D03*
X265000Y587500D03*
X270000Y587500D03*
X275000Y587500D03*
X280000Y587500D03*
X285000Y587500D03*
X290000Y587500D03*
X295000Y587500D03*
X300000Y587500D03*
X305000Y587500D03*
X310000Y587500D03*
X315000Y587500D03*
X320000Y587500D03*
X325000Y587500D03*
X330000Y587500D03*
X335000Y587500D03*
X340000Y587500D03*
X345000Y587500D03*
X350000Y587500D03*
X230000Y432500D03*
X235000Y432500D03*
X240000Y432500D03*
X245000Y432500D03*
X250000Y432500D03*
X255000Y432500D03*
X260000Y432500D03*
X265000Y432500D03*
X270000Y432500D03*
X275000Y432500D03*
X280000Y432500D03*
X285000Y432500D03*
X290000Y432500D03*
X295000Y432500D03*
X300000Y432500D03*
X305000Y432500D03*
X310000Y432500D03*
X315000Y432500D03*
X320000Y432500D03*
X325000Y432500D03*
X330000Y432500D03*
X335000Y432500D03*
X340000Y432500D03*
X345000Y432500D03*
X350000Y432500D03*
D12*
X367500Y450000D03*
X367500Y455000D03*
X367500Y460000D03*
X367500Y465000D03*
X367500Y470000D03*
X367500Y475000D03*
X367500Y480000D03*
X367500Y485000D03*
X367500Y490000D03*
X367500Y495000D03*
X367500Y500000D03*
X367500Y505000D03*
X367500Y510000D03*
X367500Y515000D03*
X367500Y520000D03*
X367500Y525000D03*
X367500Y530000D03*
X367500Y535000D03*
X367500Y540000D03*
X367500Y545000D03*
X367500Y550000D03*
X367500Y555000D03*
X367500Y560000D03*
X367500Y565000D03*
X367500Y570000D03*
X212500Y570000D03*
X212500Y565000D03*
X212500Y560000D03*
X212500Y555000D03*
X212500Y550000D03*
X212500Y545000D03*
X212500Y540000D03*
X212500Y535000D03*
X212500Y530000D03*
X212500Y525000D03*
X212500Y520000D03*
X212500Y515000D03*
X212500Y510000D03*
X212500Y505000D03*
X212500Y500000D03*
X212500Y495000D03*
X212500Y490000D03*
X212500Y485000D03*
X212500Y480000D03*
X212500Y475000D03*
X212500Y470000D03*
X212500Y465000D03*
X212500Y460000D03*
X212500Y455000D03*
X212500Y450000D03*
D13*
X290000Y510000D03*
D14*
X177000Y628500D03*
X177000Y609500D03*
D15*
X158820Y335340D03*
X158820Y355660D03*
D16*
X422160Y440730D03*
X401840Y440730D03*
D15*
X125360Y335340D03*
X125360Y355660D03*
X142090Y335340D03*
X142090Y355660D03*
D14*
X263000Y399500D03*
X263000Y380500D03*
D17*
X280000Y608000D03*
X261000Y608000D03*
X402500Y458730D03*
X421500Y458730D03*
D15*
X408000Y529840D03*
X408000Y550160D03*
D17*
X327000Y608000D03*
X308000Y608000D03*
X193000Y592500D03*
X212000Y592500D03*
D14*
X105090Y337220D03*
X105090Y318220D03*
X200000Y397000D03*
X200000Y378000D03*
D15*
X199150Y354270D03*
X199150Y333950D03*
X216190Y334070D03*
X216190Y354390D03*
D14*
X145000Y472000D03*
X145000Y453000D03*
D18*
X221999Y674500D03*
X221999Y665000D03*
X221999Y655500D03*
X248001Y655500D03*
X248001Y674500D03*
D14*
X199000Y628500D03*
X199000Y609500D03*
X221000Y628500D03*
X221000Y609500D03*
D19*
X207000Y272500D03*
X184000Y272500D03*
X161000Y272500D03*
D20*
X184000Y211500D03*
D21*
X45250Y309000D03*
X45250Y302500D03*
X45250Y296000D03*
X45250Y289500D03*
X45250Y283000D03*
D22*
X17500Y303500D03*
X17500Y288500D03*
D23*
X18500Y332000D03*
X18500Y260000D03*
D14*
X86090Y337220D03*
X86090Y318220D03*
X139000Y253500D03*
X139000Y272500D03*
X229000Y253500D03*
X229000Y272500D03*
D17*
X421500Y424000D03*
X402500Y424000D03*
D24*
X497188Y224410D03*
X497188Y230910D03*
X497188Y237410D03*
X497188Y243910D03*
X497188Y250410D03*
X497188Y256910D03*
X497188Y263410D03*
X497188Y269910D03*
X497188Y276410D03*
X497188Y282910D03*
X424832Y282910D03*
X424832Y276410D03*
X424832Y269910D03*
X424832Y263410D03*
X424832Y256910D03*
X424832Y250410D03*
X424832Y243910D03*
X424832Y237410D03*
X424832Y230910D03*
X424832Y224410D03*
D25*
X521860Y212080D03*
X521860Y224080D03*
X521860Y236080D03*
D17*
X476910Y208210D03*
X495910Y208210D03*
D16*
X425450Y208210D03*
X445770Y208210D03*
D26*
X478000Y484000D03*
X461000Y484000D03*
X478000Y475000D03*
X478000Y467000D03*
X478000Y458000D03*
X461000Y458000D03*
X461000Y475000D03*
X461000Y467000D03*
X478000Y525000D03*
X461000Y525000D03*
X478000Y516000D03*
X478000Y508000D03*
X478000Y499000D03*
X461000Y499000D03*
X461000Y516000D03*
X461000Y508000D03*
D27*
X367000Y362000D03*
X367000Y379000D03*
X358000Y362000D03*
X350000Y362000D03*
X341000Y362000D03*
X341000Y379000D03*
X358000Y379000D03*
X350000Y379000D03*
X408000Y362000D03*
X408000Y379000D03*
X399000Y362000D03*
X391000Y362000D03*
X382000Y362000D03*
X382000Y379000D03*
X399000Y379000D03*
X391000Y379000D03*
X285000Y334500D03*
X285000Y351500D03*
X276000Y334500D03*
X268000Y334500D03*
X259000Y334500D03*
X259000Y351500D03*
X276000Y351500D03*
X268000Y351500D03*
X326000Y334500D03*
X326000Y351500D03*
X317000Y334500D03*
X309000Y334500D03*
X300000Y334500D03*
X300000Y351500D03*
X317000Y351500D03*
X309000Y351500D03*
D26*
X478000Y566000D03*
X461000Y566000D03*
X478000Y557000D03*
X478000Y549000D03*
X478000Y540000D03*
X461000Y540000D03*
X461000Y557000D03*
X461000Y549000D03*
D17*
X463910Y298110D03*
X444910Y298110D03*
D14*
X12230Y49320D03*
X12230Y68320D03*
D28*
X10000Y31950D03*
X10000Y10950D03*
D18*
X427001Y655500D03*
X427001Y665000D03*
X427001Y674500D03*
X400999Y674500D03*
X400999Y655500D03*
D29*
X397000Y604000D03*
X433000Y604000D03*
D30*
X491500Y592000D03*
X454500Y592000D03*
D14*
X376500Y651500D03*
X376500Y632500D03*
X540000Y605500D03*
X540000Y624500D03*
X518000Y605500D03*
X518000Y624500D03*
X450000Y670500D03*
X450000Y651500D03*
X449540Y687780D03*
X449540Y706780D03*
D31*
X488000Y617505D03*
X488000Y664495D03*
D14*
X353000Y651500D03*
X353000Y670500D03*
X243000Y628500D03*
X243000Y609500D03*
D28*
X11000Y204500D03*
X11000Y225500D03*
D14*
X11000Y186500D03*
X11000Y167500D03*
D28*
X10000Y107725D03*
X10000Y128725D03*
D17*
X27275Y106980D03*
X46275Y106980D03*
D32*
X62680Y106980D03*
X82680Y116480D03*
X82680Y97480D03*
D17*
X119070Y97710D03*
X100070Y97710D03*
D16*
X562990Y296400D03*
X583310Y296400D03*
X562990Y258300D03*
X583310Y258300D03*
D17*
X582650Y277350D03*
X563650Y277350D03*
X563650Y239250D03*
X582650Y239250D03*
D16*
X496570Y188430D03*
X476250Y188430D03*
X369570Y254930D03*
X389890Y254930D03*
D14*
X349830Y194230D03*
X349830Y175230D03*
D33*
X945200Y461000D03*
X940200Y461000D03*
X935200Y461000D03*
X930200Y461000D03*
X925200Y461000D03*
X920200Y461000D03*
X915200Y461000D03*
X910200Y461000D03*
X905200Y461000D03*
X900200Y461000D03*
X895200Y461000D03*
X890200Y461000D03*
X885200Y461000D03*
X880200Y461000D03*
X875200Y461000D03*
X870200Y461000D03*
X865200Y461000D03*
X860200Y461000D03*
X855200Y461000D03*
X850200Y461000D03*
X845200Y461000D03*
X840200Y461000D03*
X835200Y461000D03*
X830200Y461000D03*
X825200Y461000D03*
X820200Y461000D03*
X815200Y461000D03*
X810200Y461000D03*
X805200Y461000D03*
X800200Y461000D03*
X795200Y461000D03*
X790200Y461000D03*
X785200Y461000D03*
X780200Y461000D03*
X775200Y461000D03*
X770200Y461000D03*
X765200Y461000D03*
X760200Y461000D03*
X755200Y461000D03*
X750200Y461000D03*
D34*
X733700Y444000D03*
X961700Y444000D03*
D17*
X391770Y695960D03*
X372770Y695960D03*
D35*
X549910Y676910D03*
X524510Y676910D03*
D36*
X110670Y373380D03*
X69670Y373380D03*
D14*
X116840Y254660D03*
X116840Y273660D03*
M02*
