G04 EAGLE Gerber RS-274X export*
G75*
%MOMM*%
%FSLAX34Y34*%
%LPD*%
%INSolderpaste Top*%
%IPPOS*%
%AMOC8*
5,1,8,0,0,1.08239X$1,22.5*%
G01*
%ADD10R,1.500000X1.300000*%
%ADD11R,0.660400X2.032000*%
%ADD12R,0.550000X1.200000*%
%ADD13R,1.300000X1.500000*%
%ADD14R,0.275000X1.200000*%
%ADD15C,0.600000*%
%ADD16R,1.900000X1.400000*%
%ADD17R,1.400000X1.800000*%
%ADD18R,1.500000X0.700000*%
%ADD19R,1.000000X1.400000*%
%ADD20R,1.000000X1.200000*%


D10*
X-137160Y17120D03*
X-137160Y-1880D03*
X-116840Y17120D03*
X-116840Y-1880D03*
X-96520Y17120D03*
X-96520Y-1880D03*
X-76200Y17120D03*
X-76200Y-1880D03*
D11*
X59690Y235712D03*
X46990Y235712D03*
X34290Y235712D03*
X21590Y235712D03*
X8890Y235712D03*
X-3810Y235712D03*
X-16510Y235712D03*
X-29210Y235712D03*
X-29210Y135128D03*
X-16510Y135128D03*
X-3810Y135128D03*
X8890Y135128D03*
X21590Y135128D03*
X34290Y135128D03*
X46990Y135128D03*
X59690Y135128D03*
X-41910Y235712D03*
X-54610Y235712D03*
X-41910Y135128D03*
X-54610Y135128D03*
X209550Y233172D03*
X196850Y233172D03*
X184150Y233172D03*
X171450Y233172D03*
X158750Y233172D03*
X146050Y233172D03*
X133350Y233172D03*
X120650Y233172D03*
X120650Y132588D03*
X133350Y132588D03*
X146050Y132588D03*
X158750Y132588D03*
X171450Y132588D03*
X184150Y132588D03*
X196850Y132588D03*
X209550Y132588D03*
X107950Y233172D03*
X95250Y233172D03*
X107950Y132588D03*
X95250Y132588D03*
D12*
X186080Y-10460D03*
X195580Y-10460D03*
X205080Y-10460D03*
X205080Y15540D03*
X186080Y15540D03*
D13*
X186080Y48260D03*
X205080Y48260D03*
D10*
X-53340Y17120D03*
X-53340Y-1880D03*
D13*
X-178460Y86360D03*
X-197460Y86360D03*
X221640Y-22860D03*
X240640Y-22860D03*
D14*
X-122500Y-78500D03*
X-117500Y-78500D03*
X-112500Y-78500D03*
X-107500Y-78500D03*
X-102500Y-78500D03*
X-97500Y-78500D03*
X-92500Y-78500D03*
X-87500Y-78500D03*
X-82500Y-78500D03*
X-77500Y-78500D03*
X-72500Y-78500D03*
X-67500Y-78500D03*
X-62500Y-78500D03*
X-57500Y-78500D03*
X-52500Y-78500D03*
X-47500Y-78500D03*
X-42500Y-78500D03*
X-37500Y-78500D03*
X-32500Y-78500D03*
X-27500Y-78500D03*
X-22500Y-78500D03*
X-17500Y-78500D03*
X-12500Y-78500D03*
X-7500Y-78500D03*
X-2500Y-78500D03*
X2500Y-78500D03*
X7500Y-78500D03*
X12500Y-78500D03*
X17500Y-78500D03*
X22500Y-78500D03*
X27500Y-78500D03*
X32500Y-78500D03*
X37500Y-78500D03*
X42500Y-78500D03*
X47500Y-78500D03*
X52500Y-78500D03*
X57500Y-78500D03*
X62500Y-78500D03*
X67500Y-78500D03*
X72500Y-78500D03*
X77500Y-78500D03*
X82500Y-78500D03*
X87500Y-78500D03*
X92500Y-78500D03*
X97500Y-78500D03*
X102500Y-78500D03*
X107500Y-78500D03*
X112500Y-78500D03*
X117500Y-78500D03*
X122500Y-78500D03*
D15*
X-134500Y-114500D02*
X-152500Y-114500D01*
X-152500Y-96500D01*
X-134500Y-96500D01*
X-134500Y-114500D01*
X-134500Y-108800D02*
X-152500Y-108800D01*
X-152500Y-103100D02*
X-134500Y-103100D01*
X-134500Y-97400D02*
X-152500Y-97400D01*
X134500Y-114500D02*
X152500Y-114500D01*
X134500Y-114500D02*
X134500Y-96500D01*
X152500Y-96500D01*
X152500Y-114500D01*
X152500Y-108800D02*
X134500Y-108800D01*
X134500Y-103100D02*
X152500Y-103100D01*
X152500Y-97400D02*
X134500Y-97400D01*
D16*
X-219220Y252540D03*
X-228220Y120540D03*
D17*
X-88220Y236540D03*
X-88220Y176540D03*
D18*
X-190220Y243540D03*
X-190220Y232540D03*
X-194220Y221540D03*
X-190220Y210540D03*
X-194220Y199540D03*
X-190220Y188540D03*
X-186220Y177540D03*
X-190220Y166540D03*
D19*
X55880Y102440D03*
X65380Y80440D03*
X46380Y80440D03*
D10*
X83820Y89560D03*
X83820Y108560D03*
D13*
X75590Y275590D03*
X94590Y275590D03*
D10*
X-224790Y-283820D03*
X-224790Y-264820D03*
X-200660Y-290170D03*
X-200660Y-271170D03*
X-148590Y-271170D03*
X-148590Y-290170D03*
X-175260Y-271170D03*
X-175260Y-290170D03*
X77470Y244450D03*
X77470Y225450D03*
D13*
X-97130Y-327660D03*
X-78130Y-327660D03*
X-40030Y-327660D03*
X-59030Y-327660D03*
X-40030Y-269240D03*
X-59030Y-269240D03*
X-98400Y-269240D03*
X-79400Y-269240D03*
D20*
X-88900Y-309720D03*
X-98400Y-289720D03*
X-79400Y-289720D03*
X-49530Y-309720D03*
X-59030Y-289720D03*
X-40030Y-289720D03*
X-167640Y8730D03*
X-158140Y-11270D03*
X-177140Y-11270D03*
D13*
X-160680Y33020D03*
X-179680Y33020D03*
M02*
