G04 EAGLE Gerber RS-274X export*
G75*
%MOMM*%
%FSLAX34Y34*%
%LPD*%
%INSolderpaste Bottom*%
%IPPOS*%
%AMOC8*
5,1,8,0,0,1.08239X$1,22.5*%
G01*
%ADD10C,0.566959*%
%ADD11R,0.497600X0.347600*%
%ADD12C,0.228600*%
%ADD13C,0.135591*%
%ADD14C,0.183388*%
%ADD15C,0.213359*%
%ADD16C,0.511900*%
%ADD17C,0.620775*%
%ADD18C,0.079247*%


D10*
X80135Y32129D02*
X80135Y28323D01*
X78345Y28323D01*
X78345Y32129D01*
X80135Y32129D01*
X62355Y32129D02*
X62355Y28323D01*
X60565Y28323D01*
X60565Y32129D01*
X62355Y32129D01*
X188843Y59311D02*
X188843Y63117D01*
X190633Y63117D01*
X190633Y59311D01*
X188843Y59311D01*
X206623Y59311D02*
X206623Y63117D01*
X208413Y63117D01*
X208413Y59311D01*
X206623Y59311D01*
X177933Y58549D02*
X177933Y62355D01*
X177933Y58549D02*
X176143Y58549D01*
X176143Y62355D01*
X177933Y62355D01*
X160153Y62355D02*
X160153Y58549D01*
X158363Y58549D01*
X158363Y62355D01*
X160153Y62355D01*
X303143Y136527D02*
X303143Y140333D01*
X304933Y140333D01*
X304933Y136527D01*
X303143Y136527D01*
X320923Y136527D02*
X320923Y140333D01*
X322713Y140333D01*
X322713Y136527D01*
X320923Y136527D01*
D11*
X242970Y69912D03*
X242970Y61912D03*
X242970Y53912D03*
X242970Y45912D03*
X229470Y45912D03*
X229470Y53912D03*
X229470Y61912D03*
X229470Y69912D03*
X229470Y109920D03*
X229470Y117920D03*
X229470Y125920D03*
X229470Y133920D03*
X242970Y133920D03*
X242970Y125920D03*
X242970Y117920D03*
X242970Y109920D03*
D12*
X146050Y61341D02*
X146050Y44831D01*
X139548Y44831D02*
X139548Y61341D01*
X133050Y61341D02*
X133050Y44831D01*
X126550Y44831D02*
X126550Y61341D01*
X120048Y61341D02*
X120048Y44831D01*
X113551Y44831D02*
X113551Y61341D01*
X107053Y61341D02*
X107053Y44831D01*
X100551Y44831D02*
X100551Y61341D01*
X94051Y61341D02*
X94051Y44831D01*
X87549Y44831D02*
X87549Y61341D01*
X81046Y61341D02*
X81046Y44831D01*
X74549Y44831D02*
X74549Y61341D01*
X68052Y61341D02*
X68052Y44831D01*
X61549Y44831D02*
X61549Y61341D01*
X61549Y115951D02*
X61549Y132461D01*
X68052Y132461D02*
X68052Y115951D01*
X74549Y115951D02*
X74549Y132461D01*
X81046Y132461D02*
X81046Y115951D01*
X87549Y115951D02*
X87549Y132461D01*
X94051Y132461D02*
X94051Y115951D01*
X100551Y115951D02*
X100551Y132461D01*
X107053Y132461D02*
X107053Y115951D01*
X113551Y115951D02*
X113551Y132461D01*
X120048Y132461D02*
X120048Y115951D01*
X126550Y115951D02*
X126550Y132461D01*
X133050Y132461D02*
X133050Y115951D01*
X139553Y115951D02*
X139553Y132461D01*
X146050Y132461D02*
X146050Y115951D01*
D13*
X16138Y41398D02*
X9518Y41398D01*
X9518Y48518D01*
X16138Y48518D01*
X16138Y41398D01*
X16138Y42686D02*
X9518Y42686D01*
X9518Y43974D02*
X16138Y43974D01*
X16138Y45262D02*
X9518Y45262D01*
X9518Y46550D02*
X16138Y46550D01*
X16138Y47838D02*
X9518Y47838D01*
X25518Y41398D02*
X32138Y41398D01*
X25518Y41398D02*
X25518Y48518D01*
X32138Y48518D01*
X32138Y41398D01*
X32138Y42686D02*
X25518Y42686D01*
X25518Y43974D02*
X32138Y43974D01*
X32138Y45262D02*
X25518Y45262D01*
X25518Y46550D02*
X32138Y46550D01*
X32138Y47838D02*
X25518Y47838D01*
D14*
X311305Y104295D02*
X319123Y104295D01*
X311305Y104295D02*
X311305Y118717D01*
X319123Y118717D01*
X319123Y104295D01*
X319123Y106037D02*
X311305Y106037D01*
X311305Y107779D02*
X319123Y107779D01*
X319123Y109521D02*
X311305Y109521D01*
X311305Y111263D02*
X319123Y111263D01*
X319123Y113005D02*
X311305Y113005D01*
X311305Y114747D02*
X319123Y114747D01*
X319123Y116489D02*
X311305Y116489D01*
X311305Y118231D02*
X319123Y118231D01*
X339245Y104295D02*
X347063Y104295D01*
X339245Y104295D02*
X339245Y118717D01*
X347063Y118717D01*
X347063Y104295D01*
X347063Y106037D02*
X339245Y106037D01*
X339245Y107779D02*
X347063Y107779D01*
X347063Y109521D02*
X339245Y109521D01*
X339245Y111263D02*
X347063Y111263D01*
X347063Y113005D02*
X339245Y113005D01*
X339245Y114747D02*
X347063Y114747D01*
X347063Y116489D02*
X339245Y116489D01*
X339245Y118231D02*
X347063Y118231D01*
X32611Y80109D02*
X32611Y72291D01*
X18189Y72291D01*
X18189Y80109D01*
X32611Y80109D01*
X32611Y74033D02*
X18189Y74033D01*
X18189Y75775D02*
X32611Y75775D01*
X32611Y77517D02*
X18189Y77517D01*
X18189Y79259D02*
X32611Y79259D01*
X32611Y100231D02*
X32611Y108049D01*
X32611Y100231D02*
X18189Y100231D01*
X18189Y108049D01*
X32611Y108049D01*
X32611Y101973D02*
X18189Y101973D01*
X18189Y103715D02*
X32611Y103715D01*
X32611Y105457D02*
X18189Y105457D01*
X18189Y107199D02*
X32611Y107199D01*
D15*
X353111Y92151D02*
X353111Y83617D01*
X353111Y92151D02*
X371805Y92151D01*
X371805Y83617D01*
X353111Y83617D01*
X353111Y85644D02*
X371805Y85644D01*
X371805Y87671D02*
X353111Y87671D01*
X353111Y89698D02*
X371805Y89698D01*
X371805Y91725D02*
X353111Y91725D01*
X353111Y69037D02*
X353111Y60503D01*
X353111Y69037D02*
X371805Y69037D01*
X371805Y60503D01*
X353111Y60503D01*
X353111Y62530D02*
X371805Y62530D01*
X371805Y64557D02*
X353111Y64557D01*
X353111Y66584D02*
X371805Y66584D01*
X371805Y68611D02*
X353111Y68611D01*
X353111Y45923D02*
X353111Y37389D01*
X353111Y45923D02*
X371805Y45923D01*
X371805Y37389D01*
X353111Y37389D01*
X353111Y39416D02*
X371805Y39416D01*
X371805Y41443D02*
X353111Y41443D01*
X353111Y43470D02*
X371805Y43470D01*
X371805Y45497D02*
X353111Y45497D01*
D16*
X292801Y50091D02*
X292801Y79449D01*
X308159Y79449D01*
X308159Y50091D01*
X292801Y50091D01*
X292801Y54954D02*
X308159Y54954D01*
X308159Y59817D02*
X292801Y59817D01*
X292801Y64680D02*
X308159Y64680D01*
X308159Y69543D02*
X292801Y69543D01*
X292801Y74406D02*
X308159Y74406D01*
X308159Y79269D02*
X292801Y79269D01*
D10*
X47623Y99955D02*
X43817Y99955D01*
X47623Y99955D02*
X47623Y98165D01*
X43817Y98165D01*
X43817Y99955D01*
X43817Y82175D02*
X47623Y82175D01*
X47623Y80385D01*
X43817Y80385D01*
X43817Y82175D01*
D17*
X276916Y106721D02*
X294584Y106721D01*
X276916Y106721D02*
X276916Y125659D01*
X294584Y125659D01*
X294584Y106721D01*
X294584Y112619D02*
X276916Y112619D01*
X276916Y118517D02*
X294584Y118517D01*
X294584Y124415D02*
X276916Y124415D01*
D18*
X280558Y137038D02*
X280558Y142342D01*
X290942Y142342D01*
X290942Y137038D01*
X280558Y137038D01*
X280558Y137790D02*
X290942Y137790D01*
X290942Y138542D02*
X280558Y138542D01*
X280558Y139294D02*
X290942Y139294D01*
X290942Y140046D02*
X280558Y140046D01*
X280558Y140798D02*
X290942Y140798D01*
X290942Y141550D02*
X280558Y141550D01*
X280558Y142302D02*
X290942Y142302D01*
D10*
X306203Y94613D02*
X306203Y90807D01*
X304413Y90807D01*
X304413Y94613D01*
X306203Y94613D01*
X288423Y94613D02*
X288423Y90807D01*
X286633Y90807D01*
X286633Y94613D01*
X288423Y94613D01*
X295535Y37463D02*
X295535Y33657D01*
X293745Y33657D01*
X293745Y37463D01*
X295535Y37463D01*
X277755Y37463D02*
X277755Y33657D01*
X275965Y33657D01*
X275965Y37463D01*
X277755Y37463D01*
M02*
