G04 EAGLE Gerber RS-274X export*
G75*
%MOMM*%
%FSLAX34Y34*%
%LPD*%
%INBottom Copper*%
%IPPOS*%
%AMOC8*
5,1,8,0,0,1.08239X$1,22.5*%
G01*
%ADD10C,0.203200*%
%ADD11C,4.318000*%
%ADD12P,2.034460X8X292.500000*%
%ADD13C,1.879600*%
%ADD14R,1.879600X1.879600*%
%ADD15C,1.016000*%
%ADD16C,0.254000*%
%ADD17C,0.635000*%
%ADD18C,0.609600*%

G36*
X490084Y4080D02*
X490084Y4080D01*
X490203Y4087D01*
X490241Y4100D01*
X490282Y4105D01*
X490392Y4148D01*
X490505Y4185D01*
X490540Y4207D01*
X490577Y4222D01*
X490673Y4291D01*
X490774Y4355D01*
X490802Y4385D01*
X490835Y4408D01*
X490911Y4500D01*
X490992Y4587D01*
X491012Y4622D01*
X491037Y4653D01*
X491088Y4761D01*
X491146Y4865D01*
X491156Y4905D01*
X491173Y4941D01*
X491195Y5058D01*
X491225Y5173D01*
X491229Y5233D01*
X491233Y5253D01*
X491231Y5274D01*
X491235Y5334D01*
X491235Y27084D01*
X516264Y52112D01*
X516324Y52190D01*
X516392Y52262D01*
X516421Y52315D01*
X516458Y52363D01*
X516498Y52454D01*
X516546Y52541D01*
X516561Y52599D01*
X516585Y52655D01*
X516600Y52753D01*
X516625Y52849D01*
X516631Y52949D01*
X516635Y52969D01*
X516633Y52981D01*
X516635Y53009D01*
X516635Y63203D01*
X516617Y63348D01*
X516602Y63493D01*
X516597Y63506D01*
X516595Y63519D01*
X516542Y63654D01*
X516491Y63791D01*
X516483Y63802D01*
X516478Y63815D01*
X516393Y63932D01*
X516310Y64052D01*
X516299Y64061D01*
X516292Y64072D01*
X516180Y64165D01*
X516069Y64260D01*
X516057Y64266D01*
X516047Y64275D01*
X515915Y64337D01*
X515784Y64402D01*
X515771Y64405D01*
X515759Y64410D01*
X515617Y64438D01*
X515473Y64468D01*
X515460Y64468D01*
X515447Y64470D01*
X515302Y64461D01*
X515156Y64455D01*
X515142Y64451D01*
X515129Y64450D01*
X514991Y64406D01*
X514851Y64363D01*
X514839Y64356D01*
X514827Y64352D01*
X514704Y64275D01*
X514579Y64199D01*
X514569Y64189D01*
X514558Y64182D01*
X514458Y64076D01*
X514356Y63972D01*
X514346Y63957D01*
X514340Y63951D01*
X514332Y63936D01*
X514267Y63838D01*
X512885Y61445D01*
X506778Y56320D01*
X499286Y53593D01*
X491314Y53593D01*
X483822Y56320D01*
X477715Y61444D01*
X473729Y68349D01*
X472345Y76200D01*
X473729Y84051D01*
X477715Y90955D01*
X483822Y96080D01*
X491314Y98807D01*
X499286Y98807D01*
X506778Y96080D01*
X512885Y90956D01*
X514267Y88562D01*
X514355Y88446D01*
X514440Y88328D01*
X514451Y88319D01*
X514459Y88309D01*
X514573Y88218D01*
X514685Y88125D01*
X514698Y88119D01*
X514708Y88111D01*
X514842Y88051D01*
X514973Y87990D01*
X514986Y87987D01*
X514999Y87982D01*
X515143Y87957D01*
X515286Y87930D01*
X515299Y87931D01*
X515312Y87928D01*
X515458Y87941D01*
X515603Y87950D01*
X515616Y87954D01*
X515629Y87955D01*
X515767Y88003D01*
X515905Y88048D01*
X515917Y88055D01*
X515930Y88059D01*
X516051Y88140D01*
X516174Y88218D01*
X516183Y88228D01*
X516195Y88235D01*
X516292Y88343D01*
X516392Y88449D01*
X516399Y88461D01*
X516408Y88471D01*
X516475Y88601D01*
X516546Y88728D01*
X516549Y88741D01*
X516555Y88753D01*
X516589Y88895D01*
X516625Y89036D01*
X516626Y89054D01*
X516628Y89063D01*
X516628Y89080D01*
X516635Y89197D01*
X516635Y159175D01*
X516618Y159313D01*
X516605Y159452D01*
X516598Y159471D01*
X516595Y159491D01*
X516544Y159620D01*
X516497Y159751D01*
X516486Y159768D01*
X516478Y159786D01*
X516397Y159899D01*
X516319Y160014D01*
X516303Y160027D01*
X516292Y160044D01*
X516184Y160133D01*
X516080Y160225D01*
X516062Y160234D01*
X516047Y160247D01*
X515921Y160306D01*
X515797Y160369D01*
X515777Y160374D01*
X515759Y160382D01*
X515623Y160408D01*
X515487Y160439D01*
X515466Y160438D01*
X515447Y160442D01*
X515308Y160433D01*
X515169Y160429D01*
X515149Y160423D01*
X515129Y160422D01*
X514997Y160379D01*
X514863Y160341D01*
X514846Y160330D01*
X514827Y160324D01*
X514709Y160250D01*
X514589Y160179D01*
X514568Y160161D01*
X514558Y160154D01*
X514544Y160139D01*
X514469Y160073D01*
X512605Y158209D01*
X509617Y156971D01*
X506383Y156971D01*
X503395Y158209D01*
X501109Y160495D01*
X499871Y163483D01*
X499871Y166595D01*
X499859Y166694D01*
X499856Y166793D01*
X499839Y166851D01*
X499831Y166911D01*
X499795Y167003D01*
X499767Y167098D01*
X499737Y167150D01*
X499714Y167207D01*
X499656Y167287D01*
X499606Y167372D01*
X499540Y167447D01*
X499528Y167464D01*
X499518Y167472D01*
X499500Y167493D01*
X494137Y172856D01*
X494059Y172916D01*
X493986Y172984D01*
X493933Y173013D01*
X493886Y173050D01*
X493795Y173090D01*
X493708Y173138D01*
X493649Y173153D01*
X493594Y173177D01*
X493496Y173192D01*
X493400Y173217D01*
X493300Y173223D01*
X493280Y173227D01*
X493267Y173225D01*
X493239Y173227D01*
X402610Y173227D01*
X402560Y173221D01*
X402511Y173223D01*
X402403Y173201D01*
X402294Y173187D01*
X402248Y173169D01*
X402199Y173159D01*
X402101Y173111D01*
X401999Y173070D01*
X401958Y173041D01*
X401914Y173019D01*
X401830Y172948D01*
X401741Y172884D01*
X401709Y172845D01*
X401672Y172813D01*
X401609Y172723D01*
X401538Y172639D01*
X401517Y172594D01*
X401489Y172553D01*
X401450Y172450D01*
X401403Y172351D01*
X401394Y172302D01*
X401376Y172256D01*
X401364Y172146D01*
X401343Y172039D01*
X401346Y171989D01*
X401341Y171940D01*
X401356Y171831D01*
X401363Y171721D01*
X401378Y171674D01*
X401385Y171625D01*
X401437Y171472D01*
X401829Y170527D01*
X401829Y167293D01*
X400591Y164305D01*
X398390Y162105D01*
X398330Y162026D01*
X398262Y161954D01*
X398233Y161901D01*
X398196Y161853D01*
X398156Y161762D01*
X398108Y161676D01*
X398093Y161617D01*
X398069Y161562D01*
X398054Y161464D01*
X398029Y161368D01*
X398023Y161268D01*
X398019Y161247D01*
X398021Y161235D01*
X398019Y161207D01*
X398019Y112511D01*
X322190Y36683D01*
X322130Y36605D01*
X322062Y36532D01*
X322039Y36490D01*
X322027Y36477D01*
X322022Y36466D01*
X321996Y36432D01*
X321956Y36341D01*
X321908Y36254D01*
X321893Y36195D01*
X321869Y36140D01*
X321854Y36042D01*
X321829Y35946D01*
X321823Y35846D01*
X321819Y35826D01*
X321821Y35813D01*
X321819Y35785D01*
X321819Y33103D01*
X321831Y33005D01*
X321834Y32906D01*
X321851Y32847D01*
X321859Y32787D01*
X321895Y32695D01*
X321923Y32600D01*
X321953Y32548D01*
X321976Y32492D01*
X322034Y32412D01*
X322084Y32326D01*
X322150Y32251D01*
X322162Y32234D01*
X322172Y32226D01*
X322190Y32205D01*
X324391Y30005D01*
X325629Y27017D01*
X325629Y23783D01*
X324391Y20795D01*
X322105Y18509D01*
X319117Y17271D01*
X315883Y17271D01*
X312895Y18509D01*
X310609Y20795D01*
X309371Y23783D01*
X309371Y27017D01*
X310609Y30005D01*
X312810Y32205D01*
X312870Y32284D01*
X312938Y32356D01*
X312967Y32409D01*
X313004Y32457D01*
X313044Y32548D01*
X313092Y32634D01*
X313107Y32693D01*
X313131Y32748D01*
X313146Y32846D01*
X313171Y32942D01*
X313177Y33042D01*
X313181Y33063D01*
X313179Y33075D01*
X313181Y33103D01*
X313181Y39889D01*
X389010Y115717D01*
X389070Y115795D01*
X389138Y115868D01*
X389167Y115921D01*
X389204Y115968D01*
X389244Y116059D01*
X389292Y116146D01*
X389307Y116205D01*
X389331Y116260D01*
X389346Y116358D01*
X389371Y116454D01*
X389377Y116554D01*
X389381Y116574D01*
X389379Y116587D01*
X389381Y116615D01*
X389381Y159175D01*
X389364Y159313D01*
X389351Y159452D01*
X389344Y159471D01*
X389341Y159491D01*
X389290Y159620D01*
X389243Y159751D01*
X389232Y159768D01*
X389224Y159786D01*
X389143Y159899D01*
X389065Y160014D01*
X389049Y160027D01*
X389038Y160044D01*
X388930Y160133D01*
X388826Y160225D01*
X388808Y160234D01*
X388793Y160247D01*
X388667Y160306D01*
X388543Y160369D01*
X388523Y160374D01*
X388505Y160382D01*
X388369Y160408D01*
X388233Y160439D01*
X388212Y160438D01*
X388193Y160442D01*
X388054Y160433D01*
X387915Y160429D01*
X387895Y160423D01*
X387875Y160422D01*
X387743Y160379D01*
X387609Y160341D01*
X387592Y160330D01*
X387573Y160324D01*
X387455Y160250D01*
X387335Y160179D01*
X387314Y160161D01*
X387304Y160154D01*
X387290Y160139D01*
X387215Y160073D01*
X385351Y158209D01*
X383560Y157467D01*
X383517Y157443D01*
X383470Y157426D01*
X383379Y157364D01*
X383284Y157310D01*
X383248Y157275D01*
X383207Y157247D01*
X383135Y157165D01*
X383056Y157088D01*
X383030Y157046D01*
X382997Y157009D01*
X382947Y156911D01*
X382889Y156817D01*
X382875Y156770D01*
X382852Y156726D01*
X382828Y156618D01*
X382796Y156513D01*
X382793Y156464D01*
X382783Y156415D01*
X382786Y156305D01*
X382781Y156196D01*
X382791Y156147D01*
X382792Y156097D01*
X382823Y155992D01*
X382845Y155884D01*
X382867Y155840D01*
X382881Y155792D01*
X382936Y155697D01*
X382985Y155599D01*
X383017Y155561D01*
X383042Y155518D01*
X383149Y155397D01*
X384081Y154465D01*
X385319Y151477D01*
X385319Y148243D01*
X384081Y145255D01*
X381795Y142969D01*
X378807Y141731D01*
X375573Y141731D01*
X372585Y142969D01*
X370385Y145170D01*
X370306Y145230D01*
X370234Y145298D01*
X370181Y145327D01*
X370133Y145364D01*
X370042Y145404D01*
X369956Y145452D01*
X369897Y145467D01*
X369842Y145491D01*
X369744Y145506D01*
X369648Y145531D01*
X369548Y145537D01*
X369527Y145541D01*
X369515Y145539D01*
X369487Y145541D01*
X203951Y145541D01*
X176383Y173110D01*
X173490Y176002D01*
X173381Y176087D01*
X173274Y176176D01*
X173255Y176184D01*
X173239Y176197D01*
X173111Y176252D01*
X172986Y176311D01*
X172966Y176315D01*
X172947Y176323D01*
X172809Y176345D01*
X172673Y176371D01*
X172653Y176370D01*
X172633Y176373D01*
X172494Y176360D01*
X172356Y176351D01*
X172337Y176345D01*
X172317Y176343D01*
X172185Y176296D01*
X172054Y176253D01*
X172036Y176243D01*
X172017Y176236D01*
X171902Y176158D01*
X171785Y176083D01*
X171771Y176068D01*
X171754Y176057D01*
X171662Y175953D01*
X171567Y175852D01*
X171557Y175834D01*
X171544Y175819D01*
X171480Y175695D01*
X171413Y175573D01*
X171408Y175553D01*
X171399Y175535D01*
X171369Y175400D01*
X171334Y175265D01*
X171332Y175237D01*
X171329Y175225D01*
X171330Y175205D01*
X171324Y175104D01*
X171324Y113062D01*
X170376Y110775D01*
X148200Y88599D01*
X148140Y88521D01*
X148072Y88448D01*
X148043Y88395D01*
X148006Y88348D01*
X147966Y88257D01*
X147918Y88170D01*
X147903Y88111D01*
X147879Y88056D01*
X147864Y87958D01*
X147839Y87862D01*
X147833Y87762D01*
X147829Y87742D01*
X147831Y87729D01*
X147829Y87701D01*
X147829Y87283D01*
X146591Y84295D01*
X144305Y82009D01*
X141317Y80771D01*
X138083Y80771D01*
X135095Y82009D01*
X133485Y83619D01*
X133376Y83704D01*
X133269Y83793D01*
X133250Y83801D01*
X133234Y83814D01*
X133106Y83869D01*
X132981Y83928D01*
X132961Y83932D01*
X132942Y83940D01*
X132804Y83962D01*
X132668Y83988D01*
X132648Y83987D01*
X132628Y83990D01*
X132489Y83977D01*
X132351Y83968D01*
X132332Y83962D01*
X132312Y83960D01*
X132180Y83913D01*
X132049Y83870D01*
X132031Y83859D01*
X132012Y83852D01*
X131897Y83774D01*
X131780Y83700D01*
X131766Y83685D01*
X131749Y83674D01*
X131657Y83570D01*
X131562Y83468D01*
X131552Y83451D01*
X131539Y83435D01*
X131475Y83311D01*
X131408Y83190D01*
X131403Y83170D01*
X131394Y83152D01*
X131364Y83016D01*
X131329Y82882D01*
X131327Y82854D01*
X131324Y82842D01*
X131325Y82821D01*
X131319Y82721D01*
X131319Y65815D01*
X131331Y65716D01*
X131334Y65617D01*
X131351Y65559D01*
X131359Y65499D01*
X131395Y65407D01*
X131423Y65312D01*
X131453Y65260D01*
X131476Y65203D01*
X131534Y65123D01*
X131584Y65038D01*
X131650Y64963D01*
X131662Y64946D01*
X131672Y64938D01*
X131690Y64917D01*
X159293Y37315D01*
X159316Y37297D01*
X159335Y37274D01*
X159441Y37200D01*
X159544Y37120D01*
X159571Y37108D01*
X159595Y37091D01*
X159717Y37045D01*
X159836Y36994D01*
X159865Y36989D01*
X159893Y36978D01*
X160022Y36964D01*
X160150Y36944D01*
X160179Y36947D01*
X160209Y36943D01*
X160337Y36961D01*
X160467Y36974D01*
X160494Y36984D01*
X160524Y36988D01*
X160676Y37040D01*
X162624Y37847D01*
X167576Y37847D01*
X172150Y35952D01*
X175652Y32451D01*
X176627Y30095D01*
X176696Y29974D01*
X176761Y29852D01*
X176775Y29837D01*
X176785Y29819D01*
X176882Y29719D01*
X176975Y29616D01*
X176992Y29605D01*
X177006Y29591D01*
X177124Y29518D01*
X177241Y29442D01*
X177260Y29435D01*
X177277Y29424D01*
X177410Y29384D01*
X177542Y29338D01*
X177562Y29337D01*
X177581Y29331D01*
X177720Y29324D01*
X177859Y29313D01*
X177879Y29317D01*
X177899Y29316D01*
X178035Y29344D01*
X178172Y29368D01*
X178191Y29376D01*
X178210Y29380D01*
X178335Y29441D01*
X178462Y29498D01*
X178478Y29511D01*
X178496Y29520D01*
X178602Y29610D01*
X178710Y29697D01*
X178723Y29713D01*
X178738Y29726D01*
X178818Y29840D01*
X178902Y29951D01*
X178914Y29976D01*
X178921Y29986D01*
X178928Y30005D01*
X178973Y30095D01*
X179948Y32450D01*
X183450Y35952D01*
X188024Y37847D01*
X192976Y37847D01*
X197550Y35952D01*
X201052Y32451D01*
X202027Y30095D01*
X202096Y29974D01*
X202161Y29852D01*
X202175Y29837D01*
X202185Y29819D01*
X202282Y29719D01*
X202375Y29616D01*
X202392Y29605D01*
X202406Y29591D01*
X202524Y29518D01*
X202641Y29442D01*
X202660Y29435D01*
X202677Y29424D01*
X202810Y29384D01*
X202942Y29338D01*
X202962Y29337D01*
X202981Y29331D01*
X203120Y29324D01*
X203259Y29313D01*
X203279Y29317D01*
X203299Y29316D01*
X203435Y29344D01*
X203572Y29368D01*
X203591Y29376D01*
X203610Y29380D01*
X203735Y29441D01*
X203862Y29498D01*
X203878Y29511D01*
X203896Y29520D01*
X204002Y29610D01*
X204110Y29697D01*
X204123Y29713D01*
X204138Y29726D01*
X204218Y29840D01*
X204302Y29951D01*
X204314Y29976D01*
X204321Y29986D01*
X204328Y30005D01*
X204373Y30095D01*
X205348Y32450D01*
X208850Y35952D01*
X213424Y37847D01*
X218376Y37847D01*
X222950Y35952D01*
X226452Y32450D01*
X227705Y29425D01*
X227720Y29399D01*
X227729Y29370D01*
X227799Y29261D01*
X227863Y29148D01*
X227884Y29127D01*
X227900Y29102D01*
X227994Y29013D01*
X228084Y28920D01*
X228110Y28904D01*
X228131Y28884D01*
X228245Y28821D01*
X228355Y28754D01*
X228384Y28745D01*
X228410Y28731D01*
X228535Y28698D01*
X228659Y28660D01*
X228689Y28659D01*
X228718Y28651D01*
X228848Y28651D01*
X228977Y28645D01*
X229006Y28651D01*
X229036Y28651D01*
X229161Y28683D01*
X229288Y28709D01*
X229315Y28722D01*
X229344Y28730D01*
X229457Y28792D01*
X229574Y28849D01*
X229597Y28868D01*
X229623Y28883D01*
X229717Y28971D01*
X229816Y29055D01*
X229833Y29080D01*
X229855Y29100D01*
X229924Y29209D01*
X229999Y29315D01*
X230010Y29343D01*
X230026Y29369D01*
X230085Y29518D01*
X230236Y29983D01*
X231089Y31657D01*
X232194Y33178D01*
X233522Y34506D01*
X235043Y35611D01*
X236717Y36464D01*
X238504Y37045D01*
X238761Y37085D01*
X238761Y26670D01*
X238776Y26552D01*
X238783Y26433D01*
X238796Y26395D01*
X238801Y26355D01*
X238844Y26244D01*
X238881Y26131D01*
X238903Y26097D01*
X238918Y26059D01*
X238988Y25963D01*
X239051Y25862D01*
X239081Y25834D01*
X239104Y25802D01*
X239196Y25726D01*
X239283Y25644D01*
X239318Y25625D01*
X239349Y25599D01*
X239457Y25548D01*
X239561Y25491D01*
X239601Y25480D01*
X239637Y25463D01*
X239754Y25441D01*
X239869Y25411D01*
X239930Y25407D01*
X239950Y25403D01*
X239970Y25405D01*
X240030Y25401D01*
X241301Y25401D01*
X241301Y25399D01*
X240030Y25399D01*
X239912Y25384D01*
X239793Y25377D01*
X239755Y25364D01*
X239714Y25359D01*
X239604Y25315D01*
X239491Y25279D01*
X239456Y25257D01*
X239419Y25242D01*
X239323Y25172D01*
X239222Y25109D01*
X239194Y25079D01*
X239161Y25055D01*
X239086Y24964D01*
X239004Y24877D01*
X238984Y24842D01*
X238959Y24810D01*
X238908Y24703D01*
X238850Y24598D01*
X238840Y24559D01*
X238823Y24523D01*
X238801Y24406D01*
X238771Y24291D01*
X238767Y24230D01*
X238763Y24210D01*
X238765Y24190D01*
X238761Y24130D01*
X238761Y13715D01*
X238504Y13755D01*
X236717Y14336D01*
X235043Y15189D01*
X233522Y16294D01*
X232194Y17622D01*
X231089Y19143D01*
X230236Y20817D01*
X230085Y21282D01*
X230072Y21309D01*
X230065Y21338D01*
X230005Y21452D01*
X229950Y21570D01*
X229931Y21593D01*
X229917Y21619D01*
X229830Y21715D01*
X229747Y21815D01*
X229723Y21832D01*
X229703Y21854D01*
X229594Y21926D01*
X229490Y22002D01*
X229462Y22013D01*
X229437Y22029D01*
X229314Y22071D01*
X229194Y22119D01*
X229164Y22123D01*
X229136Y22132D01*
X229007Y22143D01*
X228879Y22159D01*
X228849Y22155D01*
X228819Y22158D01*
X228691Y22135D01*
X228563Y22119D01*
X228535Y22108D01*
X228506Y22103D01*
X228388Y22050D01*
X228267Y22002D01*
X228243Y21985D01*
X228216Y21973D01*
X228115Y21892D01*
X228010Y21816D01*
X227991Y21793D01*
X227967Y21774D01*
X227889Y21670D01*
X227807Y21571D01*
X227794Y21544D01*
X227776Y21520D01*
X227705Y21375D01*
X226452Y18350D01*
X222950Y14848D01*
X218376Y12953D01*
X213424Y12953D01*
X208850Y14848D01*
X205348Y18350D01*
X204373Y20705D01*
X204304Y20825D01*
X204239Y20948D01*
X204225Y20963D01*
X204215Y20981D01*
X204118Y21081D01*
X204025Y21184D01*
X204008Y21195D01*
X203994Y21209D01*
X203875Y21282D01*
X203759Y21358D01*
X203740Y21365D01*
X203723Y21376D01*
X203590Y21417D01*
X203458Y21462D01*
X203438Y21463D01*
X203419Y21469D01*
X203280Y21476D01*
X203141Y21487D01*
X203121Y21483D01*
X203101Y21484D01*
X202965Y21456D01*
X202828Y21432D01*
X202809Y21424D01*
X202790Y21420D01*
X202664Y21359D01*
X202538Y21302D01*
X202522Y21289D01*
X202504Y21280D01*
X202398Y21190D01*
X202290Y21103D01*
X202277Y21087D01*
X202262Y21074D01*
X202182Y20960D01*
X202098Y20849D01*
X202086Y20824D01*
X202079Y20814D01*
X202072Y20795D01*
X202027Y20705D01*
X201052Y18349D01*
X197550Y14848D01*
X192976Y12953D01*
X188024Y12953D01*
X183450Y14848D01*
X179948Y18350D01*
X178973Y20705D01*
X178904Y20825D01*
X178839Y20948D01*
X178825Y20963D01*
X178815Y20981D01*
X178718Y21081D01*
X178625Y21184D01*
X178608Y21195D01*
X178594Y21209D01*
X178475Y21282D01*
X178359Y21358D01*
X178340Y21365D01*
X178323Y21376D01*
X178190Y21417D01*
X178058Y21462D01*
X178038Y21463D01*
X178019Y21469D01*
X177880Y21476D01*
X177741Y21487D01*
X177721Y21483D01*
X177701Y21484D01*
X177565Y21456D01*
X177428Y21432D01*
X177409Y21424D01*
X177390Y21420D01*
X177264Y21359D01*
X177138Y21302D01*
X177122Y21289D01*
X177104Y21280D01*
X176998Y21190D01*
X176890Y21103D01*
X176877Y21087D01*
X176862Y21074D01*
X176782Y20960D01*
X176698Y20849D01*
X176686Y20824D01*
X176679Y20814D01*
X176672Y20795D01*
X176627Y20705D01*
X175652Y18349D01*
X172150Y14848D01*
X167576Y12953D01*
X162624Y12953D01*
X158050Y14848D01*
X154548Y18350D01*
X152653Y22924D01*
X152653Y27876D01*
X153460Y29824D01*
X153468Y29853D01*
X153481Y29879D01*
X153510Y30005D01*
X153544Y30131D01*
X153545Y30160D01*
X153551Y30189D01*
X153547Y30319D01*
X153549Y30449D01*
X153542Y30477D01*
X153541Y30507D01*
X153505Y30632D01*
X153475Y30758D01*
X153461Y30784D01*
X153453Y30812D01*
X153387Y30924D01*
X153326Y31039D01*
X153307Y31061D01*
X153292Y31086D01*
X153185Y31207D01*
X125583Y58810D01*
X122681Y61711D01*
X122681Y103389D01*
X135010Y115717D01*
X135070Y115795D01*
X135138Y115868D01*
X135167Y115921D01*
X135204Y115968D01*
X135244Y116059D01*
X135292Y116146D01*
X135307Y116205D01*
X135331Y116260D01*
X135346Y116358D01*
X135371Y116454D01*
X135377Y116554D01*
X135381Y116574D01*
X135379Y116587D01*
X135381Y116615D01*
X135381Y331989D01*
X143900Y340507D01*
X143960Y340585D01*
X144028Y340658D01*
X144057Y340711D01*
X144094Y340758D01*
X144134Y340849D01*
X144182Y340936D01*
X144197Y340995D01*
X144221Y341050D01*
X144236Y341148D01*
X144261Y341244D01*
X144267Y341344D01*
X144271Y341364D01*
X144269Y341377D01*
X144271Y341405D01*
X144271Y344517D01*
X145509Y347505D01*
X147795Y349791D01*
X150783Y351029D01*
X154017Y351029D01*
X157121Y349743D01*
X157169Y349730D01*
X157214Y349709D01*
X157322Y349688D01*
X157428Y349659D01*
X157478Y349658D01*
X157527Y349649D01*
X157636Y349656D01*
X157746Y349654D01*
X157794Y349665D01*
X157844Y349669D01*
X157948Y349702D01*
X158055Y349728D01*
X158099Y349751D01*
X158146Y349767D01*
X158239Y349825D01*
X158336Y349877D01*
X158373Y349910D01*
X158415Y349937D01*
X158490Y350017D01*
X158572Y350091D01*
X158599Y350132D01*
X158633Y350168D01*
X158686Y350265D01*
X158746Y350356D01*
X158763Y350403D01*
X158787Y350447D01*
X158814Y350553D01*
X158850Y350657D01*
X158854Y350707D01*
X158866Y350755D01*
X158876Y350915D01*
X158876Y377896D01*
X158864Y377994D01*
X158861Y378094D01*
X158844Y378152D01*
X158836Y378212D01*
X158800Y378304D01*
X158772Y378399D01*
X158742Y378451D01*
X158719Y378508D01*
X158661Y378588D01*
X158611Y378673D01*
X158545Y378748D01*
X158533Y378765D01*
X158523Y378773D01*
X158505Y378794D01*
X151348Y385951D01*
X151254Y386024D01*
X151165Y386102D01*
X151129Y386121D01*
X151097Y386145D01*
X150987Y386193D01*
X150881Y386247D01*
X150842Y386256D01*
X150805Y386272D01*
X150687Y386290D01*
X150571Y386317D01*
X150531Y386315D01*
X150491Y386322D01*
X150372Y386310D01*
X150253Y386307D01*
X150214Y386296D01*
X150174Y386292D01*
X150062Y386252D01*
X149948Y386218D01*
X149913Y386198D01*
X149875Y386184D01*
X149776Y386117D01*
X149674Y386057D01*
X149628Y386017D01*
X149612Y386006D01*
X149598Y385990D01*
X149553Y385951D01*
X146750Y383148D01*
X143725Y381895D01*
X143699Y381880D01*
X143670Y381871D01*
X143561Y381801D01*
X143448Y381737D01*
X143427Y381716D01*
X143402Y381700D01*
X143313Y381606D01*
X143220Y381516D01*
X143204Y381490D01*
X143184Y381469D01*
X143121Y381355D01*
X143054Y381245D01*
X143045Y381216D01*
X143031Y381190D01*
X142998Y381065D01*
X142960Y380941D01*
X142959Y380911D01*
X142951Y380882D01*
X142951Y380752D01*
X142945Y380623D01*
X142951Y380594D01*
X142951Y380564D01*
X142983Y380439D01*
X143009Y380312D01*
X143022Y380285D01*
X143030Y380256D01*
X143092Y380143D01*
X143149Y380026D01*
X143168Y380003D01*
X143183Y379977D01*
X143271Y379883D01*
X143355Y379784D01*
X143380Y379767D01*
X143400Y379745D01*
X143509Y379676D01*
X143615Y379601D01*
X143643Y379590D01*
X143669Y379574D01*
X143818Y379515D01*
X144283Y379364D01*
X145957Y378511D01*
X147478Y377406D01*
X148806Y376078D01*
X149911Y374557D01*
X150764Y372883D01*
X151345Y371096D01*
X151385Y370839D01*
X140970Y370839D01*
X140852Y370824D01*
X140733Y370817D01*
X140695Y370804D01*
X140655Y370799D01*
X140544Y370756D01*
X140431Y370719D01*
X140397Y370697D01*
X140359Y370682D01*
X140263Y370612D01*
X140162Y370549D01*
X140134Y370519D01*
X140102Y370495D01*
X140026Y370404D01*
X139944Y370317D01*
X139925Y370282D01*
X139899Y370251D01*
X139848Y370143D01*
X139791Y370039D01*
X139780Y369999D01*
X139763Y369963D01*
X139741Y369846D01*
X139711Y369731D01*
X139707Y369670D01*
X139703Y369650D01*
X139705Y369630D01*
X139701Y369570D01*
X139701Y368299D01*
X139699Y368299D01*
X139699Y369570D01*
X139684Y369688D01*
X139677Y369807D01*
X139664Y369845D01*
X139659Y369885D01*
X139615Y369996D01*
X139579Y370109D01*
X139557Y370144D01*
X139542Y370181D01*
X139472Y370277D01*
X139409Y370378D01*
X139379Y370406D01*
X139355Y370439D01*
X139264Y370514D01*
X139177Y370596D01*
X139142Y370616D01*
X139110Y370641D01*
X139003Y370692D01*
X138898Y370750D01*
X138859Y370760D01*
X138823Y370777D01*
X138706Y370799D01*
X138591Y370829D01*
X138530Y370833D01*
X138510Y370837D01*
X138490Y370835D01*
X138430Y370839D01*
X128015Y370839D01*
X128055Y371096D01*
X128636Y372883D01*
X129489Y374557D01*
X130594Y376078D01*
X131922Y377406D01*
X133443Y378511D01*
X135117Y379364D01*
X135582Y379515D01*
X135609Y379528D01*
X135638Y379535D01*
X135752Y379595D01*
X135870Y379650D01*
X135893Y379669D01*
X135919Y379683D01*
X136015Y379770D01*
X136115Y379853D01*
X136132Y379877D01*
X136154Y379897D01*
X136226Y380006D01*
X136302Y380110D01*
X136313Y380138D01*
X136329Y380163D01*
X136371Y380286D01*
X136419Y380406D01*
X136423Y380436D01*
X136432Y380464D01*
X136443Y380593D01*
X136459Y380721D01*
X136455Y380751D01*
X136458Y380781D01*
X136435Y380909D01*
X136419Y381037D01*
X136408Y381065D01*
X136403Y381094D01*
X136350Y381212D01*
X136302Y381333D01*
X136285Y381357D01*
X136273Y381384D01*
X136192Y381485D01*
X136116Y381590D01*
X136093Y381609D01*
X136074Y381633D01*
X135970Y381711D01*
X135871Y381793D01*
X135844Y381806D01*
X135820Y381824D01*
X135675Y381895D01*
X132650Y383148D01*
X129148Y386650D01*
X127253Y391224D01*
X127253Y396176D01*
X129148Y400750D01*
X132650Y404252D01*
X137224Y406147D01*
X142176Y406147D01*
X146750Y404252D01*
X150252Y400750D01*
X150270Y400707D01*
X150284Y400682D01*
X150293Y400654D01*
X150363Y400544D01*
X150427Y400431D01*
X150448Y400410D01*
X150464Y400385D01*
X150558Y400296D01*
X150649Y400203D01*
X150674Y400187D01*
X150695Y400167D01*
X150809Y400104D01*
X150920Y400036D01*
X150948Y400028D01*
X150974Y400013D01*
X151100Y399981D01*
X151224Y399943D01*
X151253Y399941D01*
X151282Y399934D01*
X151442Y399924D01*
X153638Y399924D01*
X155925Y398976D01*
X170376Y384525D01*
X171039Y382924D01*
X171074Y382864D01*
X171100Y382799D01*
X171152Y382726D01*
X171197Y382648D01*
X171245Y382598D01*
X171286Y382542D01*
X171356Y382484D01*
X171418Y382420D01*
X171478Y382383D01*
X171531Y382339D01*
X171613Y382300D01*
X171689Y382253D01*
X171756Y382233D01*
X171819Y382203D01*
X171907Y382186D01*
X171993Y382160D01*
X172063Y382157D01*
X172132Y382143D01*
X172221Y382149D01*
X172311Y382145D01*
X172379Y382159D01*
X172449Y382163D01*
X172534Y382191D01*
X172622Y382209D01*
X172685Y382240D01*
X172751Y382261D01*
X172827Y382309D01*
X172908Y382349D01*
X172961Y382394D01*
X173020Y382431D01*
X173082Y382497D01*
X173150Y382555D01*
X173190Y382612D01*
X173238Y382663D01*
X173281Y382742D01*
X173333Y382815D01*
X173358Y382880D01*
X173392Y382941D01*
X173414Y383028D01*
X173446Y383112D01*
X173454Y383182D01*
X173471Y383249D01*
X173481Y383410D01*
X173481Y404085D01*
X173469Y404184D01*
X173466Y404283D01*
X173449Y404341D01*
X173441Y404401D01*
X173405Y404493D01*
X173377Y404588D01*
X173347Y404640D01*
X173324Y404697D01*
X173266Y404777D01*
X173216Y404862D01*
X173150Y404937D01*
X173138Y404954D01*
X173128Y404962D01*
X173110Y404983D01*
X80891Y497201D01*
X80868Y497219D01*
X80849Y497242D01*
X80743Y497316D01*
X80640Y497396D01*
X80613Y497408D01*
X80589Y497425D01*
X80467Y497471D01*
X80348Y497522D01*
X80319Y497527D01*
X80291Y497537D01*
X80162Y497552D01*
X80034Y497572D01*
X80005Y497569D01*
X79975Y497573D01*
X79847Y497555D01*
X79718Y497542D01*
X79690Y497532D01*
X79660Y497528D01*
X79508Y497476D01*
X74866Y495553D01*
X69914Y495553D01*
X65340Y497448D01*
X61838Y500950D01*
X59943Y505524D01*
X59943Y510476D01*
X61838Y515050D01*
X65340Y518552D01*
X69914Y520447D01*
X74866Y520447D01*
X79440Y518552D01*
X82942Y515050D01*
X84195Y512025D01*
X84210Y511999D01*
X84219Y511970D01*
X84289Y511861D01*
X84353Y511748D01*
X84374Y511727D01*
X84389Y511702D01*
X84484Y511613D01*
X84574Y511520D01*
X84599Y511504D01*
X84621Y511484D01*
X84735Y511421D01*
X84845Y511354D01*
X84874Y511345D01*
X84900Y511331D01*
X85025Y511298D01*
X85149Y511260D01*
X85179Y511259D01*
X85208Y511251D01*
X85337Y511251D01*
X85467Y511245D01*
X85496Y511251D01*
X85526Y511251D01*
X85651Y511283D01*
X85778Y511309D01*
X85805Y511322D01*
X85834Y511330D01*
X85947Y511392D01*
X86064Y511449D01*
X86087Y511468D01*
X86113Y511483D01*
X86207Y511571D01*
X86306Y511655D01*
X86323Y511680D01*
X86345Y511700D01*
X86414Y511809D01*
X86489Y511915D01*
X86500Y511943D01*
X86516Y511968D01*
X86575Y512118D01*
X86726Y512583D01*
X87579Y514257D01*
X88684Y515778D01*
X90012Y517106D01*
X91533Y518211D01*
X93207Y519064D01*
X94994Y519645D01*
X95251Y519685D01*
X95251Y509270D01*
X95266Y509152D01*
X95273Y509033D01*
X95286Y508995D01*
X95291Y508955D01*
X95334Y508844D01*
X95371Y508731D01*
X95393Y508697D01*
X95408Y508659D01*
X95478Y508563D01*
X95541Y508462D01*
X95571Y508434D01*
X95594Y508402D01*
X95686Y508326D01*
X95773Y508244D01*
X95808Y508225D01*
X95839Y508199D01*
X95947Y508148D01*
X96051Y508091D01*
X96091Y508080D01*
X96127Y508063D01*
X96244Y508041D01*
X96359Y508011D01*
X96420Y508007D01*
X96440Y508003D01*
X96460Y508005D01*
X96520Y508001D01*
X99060Y508001D01*
X99178Y508016D01*
X99297Y508023D01*
X99335Y508036D01*
X99375Y508041D01*
X99486Y508085D01*
X99599Y508121D01*
X99634Y508143D01*
X99671Y508158D01*
X99767Y508228D01*
X99868Y508291D01*
X99896Y508321D01*
X99929Y508345D01*
X100004Y508436D01*
X100086Y508523D01*
X100106Y508558D01*
X100131Y508590D01*
X100182Y508697D01*
X100240Y508802D01*
X100250Y508841D01*
X100267Y508877D01*
X100289Y508994D01*
X100319Y509109D01*
X100323Y509170D01*
X100327Y509190D01*
X100325Y509210D01*
X100329Y509270D01*
X100329Y519685D01*
X100586Y519645D01*
X102373Y519064D01*
X104047Y518211D01*
X105568Y517106D01*
X106896Y515778D01*
X108001Y514257D01*
X108854Y512583D01*
X109005Y512118D01*
X109018Y512091D01*
X109025Y512062D01*
X109085Y511947D01*
X109140Y511830D01*
X109159Y511807D01*
X109173Y511781D01*
X109261Y511685D01*
X109343Y511585D01*
X109367Y511568D01*
X109387Y511546D01*
X109496Y511474D01*
X109600Y511398D01*
X109628Y511387D01*
X109653Y511371D01*
X109776Y511329D01*
X109896Y511281D01*
X109926Y511277D01*
X109954Y511268D01*
X110083Y511257D01*
X110211Y511241D01*
X110241Y511245D01*
X110271Y511242D01*
X110399Y511265D01*
X110527Y511281D01*
X110555Y511292D01*
X110584Y511297D01*
X110702Y511350D01*
X110823Y511398D01*
X110847Y511415D01*
X110874Y511427D01*
X110975Y511508D01*
X111080Y511584D01*
X111099Y511607D01*
X111123Y511626D01*
X111200Y511729D01*
X111283Y511829D01*
X111296Y511856D01*
X111314Y511880D01*
X111385Y512025D01*
X112638Y515050D01*
X116140Y518552D01*
X120714Y520447D01*
X125666Y520447D01*
X130240Y518552D01*
X133742Y515050D01*
X134717Y512695D01*
X134786Y512575D01*
X134851Y512452D01*
X134865Y512437D01*
X134875Y512419D01*
X134972Y512319D01*
X135065Y512216D01*
X135082Y512205D01*
X135096Y512191D01*
X135215Y512118D01*
X135331Y512042D01*
X135350Y512035D01*
X135367Y512024D01*
X135500Y511984D01*
X135632Y511938D01*
X135652Y511937D01*
X135671Y511931D01*
X135810Y511924D01*
X135949Y511913D01*
X135969Y511917D01*
X135989Y511916D01*
X136125Y511944D01*
X136262Y511968D01*
X136281Y511976D01*
X136300Y511980D01*
X136426Y512041D01*
X136552Y512098D01*
X136568Y512111D01*
X136586Y512120D01*
X136692Y512210D01*
X136800Y512297D01*
X136813Y512313D01*
X136828Y512326D01*
X136908Y512440D01*
X136992Y512551D01*
X137004Y512576D01*
X137011Y512586D01*
X137018Y512605D01*
X137063Y512695D01*
X138038Y515050D01*
X141540Y518552D01*
X146114Y520447D01*
X151066Y520447D01*
X155640Y518552D01*
X159142Y515050D01*
X160117Y512695D01*
X160186Y512575D01*
X160251Y512452D01*
X160265Y512437D01*
X160275Y512419D01*
X160372Y512319D01*
X160465Y512216D01*
X160482Y512205D01*
X160496Y512191D01*
X160615Y512118D01*
X160731Y512042D01*
X160750Y512035D01*
X160767Y512024D01*
X160900Y511984D01*
X161032Y511938D01*
X161052Y511937D01*
X161071Y511931D01*
X161210Y511924D01*
X161349Y511913D01*
X161369Y511917D01*
X161389Y511916D01*
X161525Y511944D01*
X161662Y511968D01*
X161681Y511976D01*
X161700Y511980D01*
X161826Y512041D01*
X161952Y512098D01*
X161968Y512111D01*
X161986Y512120D01*
X162092Y512210D01*
X162200Y512297D01*
X162213Y512313D01*
X162228Y512326D01*
X162308Y512440D01*
X162392Y512551D01*
X162404Y512576D01*
X162411Y512586D01*
X162418Y512605D01*
X162463Y512695D01*
X163438Y515050D01*
X166940Y518552D01*
X171514Y520447D01*
X176466Y520447D01*
X181040Y518552D01*
X184542Y515050D01*
X185517Y512695D01*
X185586Y512575D01*
X185651Y512452D01*
X185665Y512437D01*
X185675Y512419D01*
X185772Y512319D01*
X185865Y512216D01*
X185882Y512205D01*
X185896Y512191D01*
X186015Y512118D01*
X186131Y512042D01*
X186150Y512035D01*
X186167Y512024D01*
X186300Y511984D01*
X186432Y511938D01*
X186452Y511937D01*
X186471Y511931D01*
X186610Y511924D01*
X186749Y511913D01*
X186769Y511917D01*
X186789Y511916D01*
X186925Y511944D01*
X187062Y511968D01*
X187081Y511976D01*
X187100Y511980D01*
X187226Y512041D01*
X187352Y512098D01*
X187368Y512111D01*
X187386Y512120D01*
X187492Y512210D01*
X187600Y512297D01*
X187613Y512313D01*
X187628Y512326D01*
X187708Y512440D01*
X187792Y512551D01*
X187804Y512576D01*
X187811Y512586D01*
X187818Y512605D01*
X187863Y512695D01*
X188838Y515050D01*
X192340Y518552D01*
X196914Y520447D01*
X201866Y520447D01*
X206440Y518552D01*
X209942Y515050D01*
X210917Y512695D01*
X210986Y512575D01*
X211051Y512452D01*
X211065Y512437D01*
X211075Y512419D01*
X211172Y512319D01*
X211265Y512216D01*
X211282Y512205D01*
X211296Y512191D01*
X211415Y512118D01*
X211531Y512042D01*
X211550Y512035D01*
X211567Y512024D01*
X211700Y511984D01*
X211832Y511938D01*
X211852Y511937D01*
X211871Y511931D01*
X212010Y511924D01*
X212149Y511913D01*
X212169Y511917D01*
X212189Y511916D01*
X212325Y511944D01*
X212462Y511968D01*
X212481Y511976D01*
X212500Y511980D01*
X212626Y512041D01*
X212752Y512098D01*
X212768Y512111D01*
X212786Y512120D01*
X212892Y512210D01*
X213000Y512297D01*
X213013Y512313D01*
X213028Y512326D01*
X213108Y512440D01*
X213192Y512551D01*
X213204Y512576D01*
X213211Y512586D01*
X213218Y512605D01*
X213263Y512695D01*
X214238Y515050D01*
X217740Y518552D01*
X222314Y520447D01*
X227266Y520447D01*
X231840Y518552D01*
X235356Y515036D01*
X235362Y515023D01*
X235414Y514950D01*
X235459Y514872D01*
X235507Y514822D01*
X235548Y514765D01*
X235618Y514708D01*
X235680Y514644D01*
X235740Y514607D01*
X235793Y514562D01*
X235875Y514524D01*
X235951Y514477D01*
X236018Y514457D01*
X236081Y514427D01*
X236169Y514410D01*
X236255Y514384D01*
X236325Y514380D01*
X236394Y514367D01*
X236483Y514373D01*
X236573Y514368D01*
X236641Y514383D01*
X236711Y514387D01*
X236796Y514415D01*
X236884Y514433D01*
X236947Y514463D01*
X237013Y514485D01*
X237089Y514533D01*
X237170Y514572D01*
X237223Y514618D01*
X237282Y514655D01*
X237344Y514720D01*
X237412Y514779D01*
X237452Y514836D01*
X237500Y514887D01*
X237543Y514965D01*
X237595Y515039D01*
X237620Y515104D01*
X237654Y515165D01*
X237676Y515252D01*
X237708Y515336D01*
X237716Y515406D01*
X237733Y515473D01*
X237743Y515634D01*
X237743Y518661D01*
X239529Y520447D01*
X260851Y520447D01*
X262637Y518661D01*
X262637Y497339D01*
X260851Y495553D01*
X239529Y495553D01*
X237743Y497339D01*
X237743Y500366D01*
X237735Y500435D01*
X237736Y500505D01*
X237722Y500562D01*
X237721Y500578D01*
X237714Y500601D01*
X237703Y500682D01*
X237678Y500747D01*
X237661Y500815D01*
X237619Y500894D01*
X237586Y500977D01*
X237545Y501034D01*
X237513Y501096D01*
X237452Y501162D01*
X237400Y501235D01*
X237346Y501279D01*
X237299Y501331D01*
X237224Y501380D01*
X237155Y501438D01*
X237091Y501467D01*
X237033Y501506D01*
X236948Y501535D01*
X236867Y501573D01*
X236798Y501586D01*
X236732Y501609D01*
X236643Y501616D01*
X236555Y501633D01*
X236485Y501628D01*
X236415Y501634D01*
X236327Y501619D01*
X236237Y501613D01*
X236171Y501592D01*
X236102Y501580D01*
X236020Y501543D01*
X235935Y501515D01*
X235876Y501478D01*
X235812Y501449D01*
X235742Y501393D01*
X235666Y501345D01*
X235618Y501294D01*
X235563Y501250D01*
X235510Y501179D01*
X235448Y501113D01*
X235414Y501052D01*
X235372Y500996D01*
X235356Y500964D01*
X231840Y497448D01*
X227266Y495553D01*
X222314Y495553D01*
X217740Y497448D01*
X214238Y500950D01*
X213263Y503305D01*
X213194Y503425D01*
X213129Y503548D01*
X213115Y503563D01*
X213105Y503581D01*
X213008Y503681D01*
X212915Y503784D01*
X212898Y503795D01*
X212884Y503809D01*
X212766Y503882D01*
X212649Y503958D01*
X212630Y503965D01*
X212613Y503976D01*
X212480Y504016D01*
X212348Y504062D01*
X212328Y504063D01*
X212309Y504069D01*
X212170Y504076D01*
X212031Y504087D01*
X212011Y504083D01*
X211991Y504084D01*
X211855Y504056D01*
X211718Y504032D01*
X211699Y504024D01*
X211680Y504020D01*
X211555Y503959D01*
X211428Y503902D01*
X211412Y503889D01*
X211394Y503880D01*
X211288Y503790D01*
X211180Y503703D01*
X211167Y503687D01*
X211152Y503674D01*
X211072Y503560D01*
X210988Y503449D01*
X210976Y503424D01*
X210969Y503414D01*
X210962Y503395D01*
X210917Y503305D01*
X209942Y500950D01*
X206440Y497448D01*
X201866Y495553D01*
X196914Y495553D01*
X192340Y497448D01*
X188838Y500950D01*
X187863Y503305D01*
X187794Y503425D01*
X187729Y503548D01*
X187715Y503563D01*
X187705Y503581D01*
X187608Y503681D01*
X187515Y503784D01*
X187498Y503795D01*
X187484Y503809D01*
X187366Y503882D01*
X187249Y503958D01*
X187230Y503965D01*
X187213Y503976D01*
X187080Y504016D01*
X186948Y504062D01*
X186928Y504063D01*
X186909Y504069D01*
X186770Y504076D01*
X186631Y504087D01*
X186611Y504083D01*
X186591Y504084D01*
X186455Y504056D01*
X186318Y504032D01*
X186299Y504024D01*
X186280Y504020D01*
X186155Y503959D01*
X186028Y503902D01*
X186012Y503889D01*
X185994Y503880D01*
X185888Y503790D01*
X185780Y503703D01*
X185767Y503687D01*
X185752Y503674D01*
X185672Y503560D01*
X185588Y503449D01*
X185576Y503424D01*
X185569Y503414D01*
X185562Y503395D01*
X185517Y503305D01*
X184542Y500950D01*
X181040Y497448D01*
X176466Y495553D01*
X171514Y495553D01*
X166940Y497448D01*
X163438Y500950D01*
X162463Y503305D01*
X162394Y503425D01*
X162329Y503548D01*
X162315Y503563D01*
X162305Y503581D01*
X162208Y503681D01*
X162115Y503784D01*
X162098Y503795D01*
X162084Y503809D01*
X161966Y503882D01*
X161849Y503958D01*
X161830Y503965D01*
X161813Y503976D01*
X161680Y504016D01*
X161548Y504062D01*
X161528Y504063D01*
X161509Y504069D01*
X161370Y504076D01*
X161231Y504087D01*
X161211Y504083D01*
X161191Y504084D01*
X161055Y504056D01*
X160918Y504032D01*
X160899Y504024D01*
X160880Y504020D01*
X160755Y503959D01*
X160628Y503902D01*
X160612Y503889D01*
X160594Y503880D01*
X160488Y503790D01*
X160380Y503703D01*
X160367Y503687D01*
X160352Y503674D01*
X160272Y503560D01*
X160188Y503449D01*
X160176Y503424D01*
X160169Y503414D01*
X160162Y503395D01*
X160117Y503305D01*
X159142Y500950D01*
X155640Y497448D01*
X151066Y495553D01*
X146114Y495553D01*
X141540Y497448D01*
X138038Y500950D01*
X137063Y503305D01*
X136994Y503425D01*
X136929Y503548D01*
X136915Y503563D01*
X136905Y503581D01*
X136808Y503681D01*
X136715Y503784D01*
X136698Y503795D01*
X136684Y503809D01*
X136566Y503882D01*
X136449Y503958D01*
X136430Y503965D01*
X136413Y503976D01*
X136280Y504016D01*
X136148Y504062D01*
X136128Y504063D01*
X136109Y504069D01*
X135970Y504076D01*
X135831Y504087D01*
X135811Y504083D01*
X135791Y504084D01*
X135655Y504056D01*
X135518Y504032D01*
X135499Y504024D01*
X135480Y504020D01*
X135355Y503959D01*
X135228Y503902D01*
X135212Y503889D01*
X135194Y503880D01*
X135088Y503790D01*
X134980Y503703D01*
X134967Y503687D01*
X134952Y503674D01*
X134872Y503560D01*
X134788Y503449D01*
X134776Y503424D01*
X134769Y503414D01*
X134762Y503395D01*
X134717Y503305D01*
X133742Y500950D01*
X130240Y497448D01*
X125666Y495553D01*
X120714Y495553D01*
X116140Y497448D01*
X112638Y500950D01*
X111385Y503975D01*
X111370Y504001D01*
X111361Y504030D01*
X111292Y504139D01*
X111227Y504252D01*
X111206Y504273D01*
X111190Y504298D01*
X111096Y504387D01*
X111006Y504480D01*
X110980Y504496D01*
X110959Y504516D01*
X110845Y504579D01*
X110735Y504646D01*
X110706Y504655D01*
X110680Y504669D01*
X110554Y504702D01*
X110431Y504740D01*
X110401Y504741D01*
X110372Y504749D01*
X110242Y504749D01*
X110113Y504755D01*
X110084Y504749D01*
X110054Y504749D01*
X109928Y504717D01*
X109802Y504691D01*
X109775Y504678D01*
X109746Y504670D01*
X109632Y504608D01*
X109516Y504551D01*
X109493Y504532D01*
X109467Y504517D01*
X109372Y504429D01*
X109274Y504345D01*
X109257Y504320D01*
X109235Y504300D01*
X109166Y504191D01*
X109091Y504085D01*
X109080Y504057D01*
X109064Y504031D01*
X109005Y503882D01*
X108854Y503417D01*
X108001Y501743D01*
X106896Y500222D01*
X105568Y498894D01*
X104047Y497789D01*
X102373Y496936D01*
X100586Y496355D01*
X100329Y496315D01*
X100329Y506730D01*
X100314Y506848D01*
X100307Y506967D01*
X100294Y507005D01*
X100289Y507045D01*
X100246Y507156D01*
X100209Y507269D01*
X100187Y507303D01*
X100172Y507341D01*
X100102Y507437D01*
X100039Y507538D01*
X100009Y507566D01*
X99985Y507598D01*
X99894Y507674D01*
X99807Y507756D01*
X99772Y507775D01*
X99741Y507801D01*
X99633Y507852D01*
X99529Y507909D01*
X99489Y507920D01*
X99453Y507937D01*
X99336Y507959D01*
X99221Y507989D01*
X99160Y507993D01*
X99140Y507997D01*
X99120Y507995D01*
X99060Y507999D01*
X96520Y507999D01*
X96402Y507984D01*
X96283Y507977D01*
X96245Y507964D01*
X96204Y507959D01*
X96094Y507915D01*
X95981Y507879D01*
X95946Y507857D01*
X95909Y507842D01*
X95813Y507772D01*
X95712Y507709D01*
X95684Y507679D01*
X95651Y507655D01*
X95576Y507564D01*
X95494Y507477D01*
X95474Y507442D01*
X95449Y507410D01*
X95398Y507303D01*
X95340Y507198D01*
X95330Y507159D01*
X95313Y507123D01*
X95291Y507006D01*
X95261Y506891D01*
X95257Y506830D01*
X95253Y506810D01*
X95255Y506790D01*
X95251Y506730D01*
X95251Y495583D01*
X95263Y495484D01*
X95266Y495385D01*
X95283Y495327D01*
X95291Y495267D01*
X95327Y495175D01*
X95355Y495080D01*
X95385Y495028D01*
X95408Y494971D01*
X95466Y494891D01*
X95516Y494806D01*
X95582Y494731D01*
X95594Y494714D01*
X95604Y494706D01*
X95623Y494685D01*
X182119Y408189D01*
X182119Y180115D01*
X182131Y180016D01*
X182134Y179917D01*
X182151Y179859D01*
X182159Y179799D01*
X182195Y179707D01*
X182223Y179612D01*
X182253Y179560D01*
X182276Y179503D01*
X182334Y179423D01*
X182384Y179338D01*
X182450Y179263D01*
X182462Y179246D01*
X182472Y179238D01*
X182490Y179217D01*
X207157Y154550D01*
X207235Y154490D01*
X207308Y154422D01*
X207361Y154393D01*
X207408Y154356D01*
X207499Y154316D01*
X207586Y154268D01*
X207645Y154253D01*
X207700Y154229D01*
X207798Y154214D01*
X207894Y154189D01*
X207994Y154183D01*
X208014Y154179D01*
X208027Y154181D01*
X208055Y154179D01*
X369487Y154179D01*
X369585Y154191D01*
X369684Y154194D01*
X369743Y154211D01*
X369803Y154219D01*
X369895Y154255D01*
X369990Y154283D01*
X370042Y154313D01*
X370098Y154336D01*
X370178Y154394D01*
X370264Y154444D01*
X370339Y154510D01*
X370356Y154522D01*
X370364Y154532D01*
X370385Y154550D01*
X372585Y156751D01*
X374376Y157493D01*
X374419Y157517D01*
X374466Y157534D01*
X374557Y157596D01*
X374652Y157650D01*
X374688Y157685D01*
X374729Y157713D01*
X374801Y157795D01*
X374880Y157872D01*
X374906Y157914D01*
X374939Y157951D01*
X374989Y158049D01*
X375047Y158143D01*
X375061Y158190D01*
X375084Y158234D01*
X375108Y158342D01*
X375140Y158447D01*
X375143Y158496D01*
X375153Y158545D01*
X375150Y158655D01*
X375155Y158764D01*
X375145Y158813D01*
X375144Y158863D01*
X375113Y158968D01*
X375091Y159076D01*
X375069Y159120D01*
X375055Y159168D01*
X375000Y159263D01*
X374951Y159361D01*
X374919Y159399D01*
X374894Y159442D01*
X374787Y159563D01*
X373855Y160495D01*
X373156Y162183D01*
X373087Y162304D01*
X373022Y162427D01*
X373008Y162442D01*
X372998Y162460D01*
X372901Y162560D01*
X372808Y162662D01*
X372791Y162673D01*
X372777Y162688D01*
X372659Y162761D01*
X372542Y162837D01*
X372523Y162844D01*
X372506Y162854D01*
X372373Y162895D01*
X372241Y162940D01*
X372221Y162942D01*
X372202Y162948D01*
X372063Y162955D01*
X371924Y162966D01*
X371904Y162962D01*
X371884Y162963D01*
X371748Y162935D01*
X371611Y162911D01*
X371592Y162903D01*
X371573Y162899D01*
X371448Y162838D01*
X371321Y162781D01*
X371305Y162768D01*
X371287Y162759D01*
X371181Y162669D01*
X371073Y162582D01*
X371060Y162566D01*
X371045Y162553D01*
X370965Y162439D01*
X370881Y162328D01*
X370869Y162303D01*
X370862Y162293D01*
X370855Y162273D01*
X370810Y162183D01*
X370111Y160495D01*
X367825Y158209D01*
X364837Y156971D01*
X361603Y156971D01*
X358615Y158209D01*
X356329Y160495D01*
X355091Y163483D01*
X355091Y166717D01*
X355588Y167916D01*
X355601Y167964D01*
X355622Y168009D01*
X355643Y168117D01*
X355672Y168223D01*
X355673Y168273D01*
X355682Y168322D01*
X355675Y168431D01*
X355677Y168541D01*
X355665Y168589D01*
X355662Y168639D01*
X355629Y168743D01*
X355603Y168850D01*
X355580Y168894D01*
X355564Y168941D01*
X355506Y169034D01*
X355454Y169131D01*
X355421Y169168D01*
X355394Y169210D01*
X355314Y169285D01*
X355240Y169367D01*
X355199Y169394D01*
X355163Y169428D01*
X355066Y169481D01*
X354975Y169541D01*
X354928Y169558D01*
X354884Y169582D01*
X354778Y169609D01*
X354674Y169645D01*
X354624Y169649D01*
X354576Y169661D01*
X354415Y169671D01*
X353983Y169671D01*
X350995Y170909D01*
X348709Y173195D01*
X347471Y176183D01*
X347471Y179428D01*
X347476Y179439D01*
X347497Y179547D01*
X347526Y179653D01*
X347527Y179703D01*
X347536Y179752D01*
X347529Y179861D01*
X347531Y179971D01*
X347519Y180019D01*
X347516Y180069D01*
X347483Y180173D01*
X347457Y180280D01*
X347434Y180324D01*
X347418Y180371D01*
X347360Y180464D01*
X347308Y180561D01*
X347275Y180598D01*
X347248Y180640D01*
X347168Y180715D01*
X347094Y180797D01*
X347053Y180824D01*
X347017Y180858D01*
X346920Y180911D01*
X346829Y180971D01*
X346782Y180988D01*
X346738Y181012D01*
X346632Y181039D01*
X346528Y181075D01*
X346478Y181079D01*
X346430Y181091D01*
X346269Y181101D01*
X345093Y181101D01*
X342105Y182339D01*
X339819Y184625D01*
X338581Y187613D01*
X338581Y190847D01*
X339819Y193835D01*
X342020Y196035D01*
X342080Y196114D01*
X342148Y196186D01*
X342177Y196239D01*
X342214Y196287D01*
X342254Y196378D01*
X342302Y196464D01*
X342317Y196523D01*
X342341Y196578D01*
X342356Y196676D01*
X342381Y196772D01*
X342387Y196872D01*
X342391Y196892D01*
X342389Y196905D01*
X342391Y196933D01*
X342391Y202449D01*
X345293Y205350D01*
X435717Y295775D01*
X435802Y295884D01*
X435891Y295991D01*
X435899Y296010D01*
X435912Y296026D01*
X435967Y296154D01*
X436026Y296279D01*
X436030Y296299D01*
X436038Y296318D01*
X436060Y296456D01*
X436086Y296592D01*
X436085Y296612D01*
X436088Y296632D01*
X436075Y296771D01*
X436066Y296909D01*
X436060Y296928D01*
X436058Y296948D01*
X436011Y297080D01*
X435968Y297211D01*
X435958Y297229D01*
X435951Y297248D01*
X435873Y297363D01*
X435798Y297480D01*
X435783Y297494D01*
X435772Y297511D01*
X435668Y297603D01*
X435567Y297698D01*
X435549Y297708D01*
X435534Y297721D01*
X435410Y297784D01*
X435288Y297852D01*
X435268Y297857D01*
X435250Y297866D01*
X435115Y297896D01*
X434980Y297931D01*
X434952Y297933D01*
X434940Y297936D01*
X434920Y297935D01*
X434819Y297941D01*
X431575Y297941D01*
X431476Y297929D01*
X431377Y297926D01*
X431319Y297909D01*
X431259Y297901D01*
X431167Y297865D01*
X431072Y297837D01*
X431020Y297807D01*
X430963Y297784D01*
X430883Y297726D01*
X430798Y297676D01*
X430723Y297610D01*
X430706Y297598D01*
X430698Y297588D01*
X430677Y297570D01*
X395489Y262381D01*
X210903Y262381D01*
X210805Y262369D01*
X210706Y262366D01*
X210647Y262349D01*
X210587Y262341D01*
X210495Y262305D01*
X210400Y262277D01*
X210348Y262247D01*
X210292Y262224D01*
X210212Y262166D01*
X210126Y262116D01*
X210051Y262050D01*
X210034Y262038D01*
X210026Y262028D01*
X210005Y262010D01*
X207805Y259809D01*
X204817Y258571D01*
X201583Y258571D01*
X198595Y259809D01*
X196309Y262095D01*
X195071Y265083D01*
X195071Y268317D01*
X196309Y271305D01*
X198595Y273591D01*
X201583Y274829D01*
X204817Y274829D01*
X207805Y273591D01*
X210005Y271390D01*
X210084Y271330D01*
X210156Y271262D01*
X210209Y271233D01*
X210257Y271196D01*
X210348Y271156D01*
X210434Y271108D01*
X210493Y271093D01*
X210548Y271069D01*
X210646Y271054D01*
X210742Y271029D01*
X210842Y271023D01*
X210863Y271019D01*
X210875Y271021D01*
X210903Y271019D01*
X391385Y271019D01*
X391484Y271031D01*
X391583Y271034D01*
X391641Y271051D01*
X391701Y271059D01*
X391793Y271095D01*
X391888Y271123D01*
X391940Y271153D01*
X391997Y271176D01*
X392077Y271234D01*
X392162Y271284D01*
X392237Y271350D01*
X392254Y271362D01*
X392262Y271372D01*
X392283Y271390D01*
X424570Y303677D01*
X424630Y303755D01*
X424698Y303828D01*
X424727Y303881D01*
X424764Y303928D01*
X424804Y304019D01*
X424852Y304106D01*
X424867Y304165D01*
X424891Y304220D01*
X424906Y304318D01*
X424931Y304414D01*
X424937Y304514D01*
X424941Y304534D01*
X424939Y304547D01*
X424941Y304575D01*
X424941Y307687D01*
X426179Y310675D01*
X428465Y312961D01*
X431453Y314199D01*
X434687Y314199D01*
X437675Y312961D01*
X439961Y310675D01*
X441199Y307687D01*
X441199Y304321D01*
X441216Y304183D01*
X441229Y304044D01*
X441236Y304025D01*
X441239Y304005D01*
X441290Y303876D01*
X441337Y303745D01*
X441348Y303728D01*
X441356Y303709D01*
X441437Y303597D01*
X441515Y303482D01*
X441531Y303468D01*
X441542Y303452D01*
X441650Y303363D01*
X441754Y303271D01*
X441772Y303262D01*
X441787Y303249D01*
X441913Y303190D01*
X442037Y303127D01*
X442057Y303122D01*
X442075Y303114D01*
X442211Y303088D01*
X442347Y303057D01*
X442368Y303058D01*
X442387Y303054D01*
X442526Y303063D01*
X442665Y303067D01*
X442685Y303072D01*
X442705Y303074D01*
X442837Y303116D01*
X442971Y303155D01*
X442988Y303165D01*
X443007Y303172D01*
X443125Y303246D01*
X443245Y303317D01*
X443266Y303335D01*
X443276Y303342D01*
X443290Y303357D01*
X443365Y303423D01*
X461761Y321819D01*
X478039Y321819D01*
X485480Y314377D01*
X485574Y314304D01*
X485663Y314226D01*
X485699Y314207D01*
X485731Y314183D01*
X485841Y314135D01*
X485947Y314081D01*
X485986Y314072D01*
X486023Y314056D01*
X486141Y314037D01*
X486257Y314011D01*
X486297Y314013D01*
X486337Y314006D01*
X486456Y314017D01*
X486575Y314021D01*
X486614Y314032D01*
X486654Y314036D01*
X486766Y314076D01*
X486880Y314110D01*
X486915Y314130D01*
X486953Y314144D01*
X487052Y314211D01*
X487154Y314271D01*
X487200Y314311D01*
X487216Y314322D01*
X487230Y314338D01*
X487275Y314377D01*
X490144Y317247D01*
X500456Y317247D01*
X507747Y309956D01*
X507747Y299644D01*
X501100Y292998D01*
X501027Y292903D01*
X500948Y292814D01*
X500930Y292778D01*
X500905Y292746D01*
X500858Y292637D01*
X500803Y292531D01*
X500795Y292492D01*
X500779Y292454D01*
X500760Y292337D01*
X500734Y292221D01*
X500735Y292180D01*
X500729Y292140D01*
X500740Y292022D01*
X500743Y291903D01*
X500755Y291864D01*
X500758Y291824D01*
X500799Y291711D01*
X500832Y291597D01*
X500852Y291563D01*
X500866Y291524D01*
X500933Y291426D01*
X500993Y291323D01*
X501033Y291278D01*
X501045Y291261D01*
X501060Y291248D01*
X501100Y291203D01*
X507747Y284556D01*
X507747Y274244D01*
X500741Y267238D01*
X500668Y267144D01*
X500589Y267055D01*
X500570Y267019D01*
X500546Y266987D01*
X500498Y266878D01*
X500444Y266772D01*
X500435Y266732D01*
X500419Y266695D01*
X500401Y266577D01*
X500375Y266461D01*
X500376Y266421D01*
X500369Y266381D01*
X500381Y266262D01*
X500384Y266144D01*
X500395Y266105D01*
X500399Y266064D01*
X500440Y265952D01*
X500473Y265838D01*
X500493Y265803D01*
X500507Y265765D01*
X500574Y265666D01*
X500634Y265564D01*
X500674Y265519D01*
X500685Y265502D01*
X500701Y265489D01*
X500741Y265443D01*
X507239Y258945D01*
X507239Y256539D01*
X496570Y256539D01*
X496452Y256524D01*
X496333Y256517D01*
X496295Y256504D01*
X496255Y256499D01*
X496144Y256456D01*
X496031Y256419D01*
X495997Y256397D01*
X495959Y256382D01*
X495863Y256312D01*
X495762Y256249D01*
X495734Y256219D01*
X495702Y256195D01*
X495626Y256104D01*
X495544Y256017D01*
X495525Y255982D01*
X495499Y255951D01*
X495448Y255843D01*
X495391Y255739D01*
X495380Y255699D01*
X495363Y255663D01*
X495341Y255546D01*
X495311Y255431D01*
X495307Y255370D01*
X495303Y255350D01*
X495305Y255330D01*
X495301Y255270D01*
X495301Y253999D01*
X494030Y253999D01*
X493912Y253984D01*
X493793Y253977D01*
X493755Y253964D01*
X493714Y253959D01*
X493604Y253915D01*
X493491Y253879D01*
X493456Y253857D01*
X493419Y253842D01*
X493323Y253772D01*
X493222Y253709D01*
X493194Y253679D01*
X493161Y253655D01*
X493086Y253564D01*
X493004Y253477D01*
X492984Y253442D01*
X492959Y253410D01*
X492908Y253303D01*
X492850Y253198D01*
X492840Y253159D01*
X492823Y253123D01*
X492801Y253006D01*
X492771Y252891D01*
X492767Y252830D01*
X492763Y252810D01*
X492765Y252790D01*
X492761Y252730D01*
X492761Y242061D01*
X490355Y242061D01*
X483857Y248559D01*
X483763Y248632D01*
X483673Y248711D01*
X483637Y248730D01*
X483605Y248754D01*
X483496Y248802D01*
X483390Y248856D01*
X483351Y248865D01*
X483314Y248881D01*
X483196Y248899D01*
X483080Y248925D01*
X483040Y248924D01*
X482999Y248931D01*
X482881Y248919D01*
X482762Y248916D01*
X482723Y248905D01*
X482683Y248901D01*
X482571Y248860D01*
X482456Y248827D01*
X482422Y248807D01*
X482384Y248793D01*
X482285Y248726D01*
X482183Y248666D01*
X482137Y248626D01*
X482120Y248615D01*
X482107Y248599D01*
X482062Y248559D01*
X475056Y241553D01*
X464744Y241553D01*
X457453Y248844D01*
X457453Y257781D01*
X457436Y257919D01*
X457423Y258058D01*
X457416Y258077D01*
X457413Y258097D01*
X457362Y258226D01*
X457315Y258357D01*
X457304Y258374D01*
X457296Y258393D01*
X457215Y258505D01*
X457137Y258620D01*
X457121Y258634D01*
X457110Y258650D01*
X457002Y258739D01*
X456898Y258831D01*
X456880Y258840D01*
X456865Y258853D01*
X456739Y258912D01*
X456615Y258975D01*
X456595Y258980D01*
X456577Y258988D01*
X456441Y259014D01*
X456305Y259045D01*
X456284Y259044D01*
X456265Y259048D01*
X456126Y259039D01*
X455987Y259035D01*
X455967Y259030D01*
X455947Y259028D01*
X455815Y258986D01*
X455681Y258947D01*
X455664Y258937D01*
X455645Y258930D01*
X455527Y258856D01*
X455407Y258785D01*
X455386Y258767D01*
X455376Y258760D01*
X455362Y258745D01*
X455287Y258679D01*
X369109Y172502D01*
X369036Y172407D01*
X368957Y172318D01*
X368948Y172299D01*
X368937Y172286D01*
X368929Y172269D01*
X368914Y172250D01*
X368867Y172141D01*
X368813Y172035D01*
X368808Y172012D01*
X368801Y171999D01*
X368798Y171983D01*
X368788Y171958D01*
X368769Y171841D01*
X368743Y171725D01*
X368744Y171698D01*
X368742Y171686D01*
X368743Y171672D01*
X368738Y171644D01*
X368749Y171526D01*
X368753Y171407D01*
X368761Y171380D01*
X368761Y171369D01*
X368765Y171358D01*
X368768Y171328D01*
X368808Y171216D01*
X368841Y171101D01*
X368856Y171076D01*
X368859Y171066D01*
X368865Y171057D01*
X368875Y171028D01*
X368942Y170930D01*
X369003Y170827D01*
X369043Y170782D01*
X369054Y170765D01*
X369069Y170752D01*
X369109Y170707D01*
X370111Y169705D01*
X370810Y168017D01*
X370879Y167896D01*
X370944Y167773D01*
X370958Y167758D01*
X370968Y167740D01*
X371065Y167640D01*
X371158Y167538D01*
X371175Y167527D01*
X371189Y167512D01*
X371308Y167439D01*
X371424Y167363D01*
X371443Y167356D01*
X371460Y167346D01*
X371593Y167305D01*
X371725Y167260D01*
X371745Y167258D01*
X371764Y167252D01*
X371903Y167245D01*
X372042Y167234D01*
X372062Y167238D01*
X372082Y167237D01*
X372218Y167265D01*
X372355Y167289D01*
X372374Y167297D01*
X372393Y167301D01*
X372519Y167362D01*
X372645Y167419D01*
X372661Y167432D01*
X372679Y167441D01*
X372785Y167531D01*
X372893Y167618D01*
X372906Y167634D01*
X372921Y167647D01*
X373001Y167761D01*
X373085Y167872D01*
X373097Y167897D01*
X373104Y167907D01*
X373111Y167926D01*
X373156Y168017D01*
X373855Y169705D01*
X376056Y171905D01*
X376116Y171984D01*
X376184Y172056D01*
X376213Y172109D01*
X376250Y172157D01*
X376290Y172248D01*
X376338Y172334D01*
X376353Y172393D01*
X376377Y172448D01*
X376392Y172546D01*
X376417Y172642D01*
X376423Y172742D01*
X376427Y172763D01*
X376425Y172775D01*
X376427Y172803D01*
X376427Y172985D01*
X379329Y175886D01*
X382406Y178963D01*
X385307Y181865D01*
X497343Y181865D01*
X505607Y173600D01*
X505685Y173540D01*
X505757Y173472D01*
X505810Y173443D01*
X505858Y173406D01*
X505949Y173366D01*
X506036Y173318D01*
X506095Y173303D01*
X506150Y173279D01*
X506248Y173264D01*
X506344Y173239D01*
X506444Y173233D01*
X506464Y173229D01*
X506477Y173231D01*
X506505Y173229D01*
X509617Y173229D01*
X512605Y171991D01*
X514469Y170127D01*
X514578Y170042D01*
X514685Y169953D01*
X514704Y169945D01*
X514720Y169932D01*
X514848Y169877D01*
X514973Y169818D01*
X514993Y169814D01*
X515012Y169806D01*
X515150Y169784D01*
X515286Y169758D01*
X515306Y169759D01*
X515326Y169756D01*
X515465Y169769D01*
X515603Y169778D01*
X515622Y169784D01*
X515642Y169786D01*
X515774Y169833D01*
X515905Y169876D01*
X515923Y169887D01*
X515942Y169894D01*
X516057Y169972D01*
X516174Y170046D01*
X516188Y170061D01*
X516205Y170072D01*
X516297Y170176D01*
X516392Y170278D01*
X516402Y170295D01*
X516415Y170311D01*
X516479Y170435D01*
X516546Y170556D01*
X516551Y170576D01*
X516560Y170594D01*
X516590Y170730D01*
X516625Y170864D01*
X516627Y170892D01*
X516630Y170904D01*
X516629Y170925D01*
X516635Y171025D01*
X516635Y342603D01*
X516617Y342748D01*
X516602Y342893D01*
X516597Y342906D01*
X516595Y342919D01*
X516542Y343054D01*
X516491Y343191D01*
X516483Y343202D01*
X516478Y343215D01*
X516393Y343332D01*
X516310Y343452D01*
X516299Y343461D01*
X516292Y343472D01*
X516180Y343565D01*
X516069Y343660D01*
X516057Y343666D01*
X516047Y343675D01*
X515915Y343737D01*
X515784Y343802D01*
X515771Y343805D01*
X515759Y343810D01*
X515617Y343838D01*
X515473Y343868D01*
X515460Y343868D01*
X515447Y343870D01*
X515302Y343861D01*
X515156Y343855D01*
X515142Y343851D01*
X515129Y343850D01*
X514991Y343806D01*
X514851Y343763D01*
X514839Y343756D01*
X514827Y343752D01*
X514704Y343675D01*
X514579Y343599D01*
X514569Y343589D01*
X514558Y343582D01*
X514458Y343476D01*
X514356Y343372D01*
X514346Y343357D01*
X514340Y343351D01*
X514332Y343336D01*
X514267Y343238D01*
X512885Y340845D01*
X506778Y335720D01*
X499286Y332993D01*
X491314Y332993D01*
X483822Y335720D01*
X477715Y340844D01*
X473729Y347749D01*
X472345Y355600D01*
X473729Y363451D01*
X477715Y370355D01*
X483822Y375480D01*
X491314Y378207D01*
X499286Y378207D01*
X506778Y375480D01*
X512885Y370356D01*
X514267Y367962D01*
X514355Y367846D01*
X514440Y367728D01*
X514451Y367719D01*
X514459Y367709D01*
X514573Y367618D01*
X514685Y367525D01*
X514698Y367519D01*
X514708Y367511D01*
X514842Y367451D01*
X514973Y367390D01*
X514986Y367387D01*
X514999Y367382D01*
X515143Y367357D01*
X515286Y367330D01*
X515299Y367331D01*
X515312Y367328D01*
X515458Y367341D01*
X515603Y367350D01*
X515616Y367354D01*
X515629Y367355D01*
X515767Y367403D01*
X515905Y367448D01*
X515917Y367455D01*
X515930Y367459D01*
X516051Y367540D01*
X516174Y367618D01*
X516183Y367628D01*
X516195Y367635D01*
X516292Y367743D01*
X516392Y367849D01*
X516399Y367861D01*
X516408Y367871D01*
X516475Y368001D01*
X516546Y368128D01*
X516549Y368141D01*
X516555Y368153D01*
X516589Y368295D01*
X516625Y368436D01*
X516626Y368454D01*
X516628Y368463D01*
X516628Y368480D01*
X516635Y368597D01*
X516635Y378791D01*
X516623Y378889D01*
X516620Y378988D01*
X516603Y379046D01*
X516595Y379106D01*
X516559Y379198D01*
X516531Y379293D01*
X516501Y379345D01*
X516478Y379402D01*
X516420Y379482D01*
X516370Y379567D01*
X516304Y379643D01*
X516292Y379659D01*
X516282Y379667D01*
X516264Y379688D01*
X491235Y404716D01*
X491235Y518491D01*
X491223Y518589D01*
X491220Y518688D01*
X491203Y518746D01*
X491195Y518806D01*
X491159Y518898D01*
X491131Y518993D01*
X491101Y519045D01*
X491078Y519102D01*
X491020Y519182D01*
X490970Y519267D01*
X490904Y519343D01*
X490892Y519359D01*
X490882Y519367D01*
X490864Y519388D01*
X481288Y528964D01*
X481210Y529024D01*
X481138Y529092D01*
X481085Y529121D01*
X481037Y529158D01*
X480946Y529198D01*
X480859Y529246D01*
X480801Y529261D01*
X480745Y529285D01*
X480647Y529300D01*
X480551Y529325D01*
X480451Y529331D01*
X480431Y529335D01*
X480419Y529333D01*
X480391Y529335D01*
X38631Y529335D01*
X38595Y529331D01*
X38560Y529333D01*
X38438Y529311D01*
X38315Y529295D01*
X38282Y529282D01*
X38247Y529276D01*
X38135Y529224D01*
X38019Y529178D01*
X37991Y529158D01*
X37959Y529143D01*
X37862Y529064D01*
X37762Y528992D01*
X37739Y528964D01*
X37712Y528942D01*
X37639Y528842D01*
X37559Y528747D01*
X37544Y528715D01*
X37523Y528686D01*
X37477Y528571D01*
X37424Y528459D01*
X37417Y528424D01*
X37404Y528391D01*
X37387Y528268D01*
X37364Y528147D01*
X37366Y528111D01*
X37361Y528076D01*
X37376Y527953D01*
X37384Y527829D01*
X37395Y527795D01*
X37399Y527760D01*
X37444Y527644D01*
X37482Y527527D01*
X37501Y527497D01*
X37513Y527464D01*
X37586Y527363D01*
X37652Y527258D01*
X37678Y527234D01*
X37698Y527205D01*
X37815Y527094D01*
X42985Y522756D01*
X46971Y515851D01*
X48355Y508000D01*
X46971Y500149D01*
X42985Y493245D01*
X36878Y488120D01*
X29386Y485393D01*
X21414Y485393D01*
X13922Y488120D01*
X7815Y493244D01*
X6433Y495638D01*
X6345Y495754D01*
X6260Y495872D01*
X6249Y495881D01*
X6241Y495891D01*
X6127Y495982D01*
X6015Y496075D01*
X6002Y496081D01*
X5992Y496089D01*
X5858Y496149D01*
X5727Y496210D01*
X5714Y496213D01*
X5701Y496218D01*
X5557Y496243D01*
X5414Y496270D01*
X5401Y496269D01*
X5388Y496272D01*
X5242Y496259D01*
X5097Y496250D01*
X5084Y496246D01*
X5071Y496245D01*
X4933Y496197D01*
X4795Y496152D01*
X4783Y496145D01*
X4770Y496141D01*
X4649Y496060D01*
X4526Y495982D01*
X4517Y495972D01*
X4505Y495965D01*
X4408Y495857D01*
X4308Y495751D01*
X4301Y495739D01*
X4292Y495729D01*
X4225Y495599D01*
X4154Y495472D01*
X4151Y495459D01*
X4145Y495447D01*
X4111Y495304D01*
X4075Y495164D01*
X4074Y495146D01*
X4072Y495137D01*
X4072Y495120D01*
X4065Y495003D01*
X4065Y151495D01*
X4071Y151446D01*
X4069Y151396D01*
X4091Y151289D01*
X4105Y151179D01*
X4123Y151133D01*
X4133Y151085D01*
X4181Y150986D01*
X4222Y150884D01*
X4251Y150844D01*
X4273Y150799D01*
X4344Y150715D01*
X4408Y150626D01*
X4447Y150595D01*
X4479Y150557D01*
X4569Y150494D01*
X4653Y150424D01*
X4698Y150402D01*
X4739Y150374D01*
X4842Y150335D01*
X4941Y150288D01*
X4990Y150279D01*
X5036Y150261D01*
X5146Y150249D01*
X5253Y150228D01*
X5303Y150231D01*
X5352Y150226D01*
X5461Y150241D01*
X5571Y150248D01*
X5618Y150263D01*
X5667Y150270D01*
X5820Y150322D01*
X10224Y152147D01*
X15176Y152147D01*
X19750Y150252D01*
X23252Y146750D01*
X24213Y144430D01*
X24220Y144418D01*
X24222Y144412D01*
X24230Y144400D01*
X24239Y144371D01*
X24308Y144264D01*
X24370Y144154D01*
X24393Y144131D01*
X24411Y144103D01*
X24503Y144017D01*
X24592Y143926D01*
X24620Y143909D01*
X24643Y143886D01*
X24755Y143826D01*
X24863Y143759D01*
X24894Y143750D01*
X24923Y143734D01*
X25046Y143703D01*
X25167Y143666D01*
X25199Y143664D01*
X25231Y143656D01*
X25358Y143657D01*
X25484Y143651D01*
X25517Y143657D01*
X25549Y143657D01*
X25671Y143689D01*
X25796Y143715D01*
X25825Y143729D01*
X25857Y143738D01*
X25968Y143799D01*
X26082Y143855D01*
X26106Y143876D01*
X26135Y143892D01*
X26227Y143979D01*
X26324Y144061D01*
X26342Y144088D01*
X26366Y144110D01*
X26460Y144241D01*
X26809Y144796D01*
X28499Y146915D01*
X30415Y148831D01*
X32534Y150521D01*
X34829Y151963D01*
X37271Y153139D01*
X39829Y154034D01*
X42472Y154637D01*
X43981Y154807D01*
X43981Y132080D01*
X43996Y131962D01*
X44003Y131843D01*
X44016Y131805D01*
X44021Y131765D01*
X44064Y131654D01*
X44101Y131541D01*
X44123Y131507D01*
X44138Y131469D01*
X44208Y131373D01*
X44271Y131272D01*
X44301Y131244D01*
X44324Y131212D01*
X44416Y131136D01*
X44503Y131054D01*
X44538Y131035D01*
X44569Y131009D01*
X44677Y130958D01*
X44781Y130901D01*
X44821Y130890D01*
X44857Y130873D01*
X44974Y130851D01*
X45089Y130821D01*
X45150Y130817D01*
X45170Y130813D01*
X45190Y130815D01*
X45250Y130811D01*
X46521Y130811D01*
X46521Y130809D01*
X45250Y130809D01*
X45132Y130794D01*
X45013Y130787D01*
X44975Y130774D01*
X44934Y130769D01*
X44824Y130725D01*
X44711Y130689D01*
X44676Y130667D01*
X44639Y130652D01*
X44543Y130582D01*
X44442Y130519D01*
X44414Y130489D01*
X44381Y130465D01*
X44306Y130374D01*
X44224Y130287D01*
X44204Y130252D01*
X44179Y130220D01*
X44128Y130113D01*
X44070Y130008D01*
X44060Y129969D01*
X44043Y129933D01*
X44021Y129816D01*
X43991Y129701D01*
X43987Y129640D01*
X43983Y129620D01*
X43985Y129600D01*
X43981Y129540D01*
X43981Y106813D01*
X42472Y106983D01*
X39829Y107586D01*
X37271Y108481D01*
X34829Y109657D01*
X32534Y111099D01*
X30415Y112789D01*
X28499Y114705D01*
X26786Y116853D01*
X26678Y116958D01*
X26572Y117064D01*
X26564Y117069D01*
X26558Y117075D01*
X26427Y117150D01*
X26298Y117226D01*
X26290Y117229D01*
X26282Y117233D01*
X26136Y117273D01*
X25993Y117315D01*
X25984Y117315D01*
X25976Y117318D01*
X25825Y117321D01*
X25675Y117325D01*
X25666Y117323D01*
X25658Y117324D01*
X25511Y117289D01*
X25365Y117256D01*
X25357Y117252D01*
X25348Y117250D01*
X25214Y117180D01*
X25081Y117112D01*
X25075Y117106D01*
X25067Y117102D01*
X24954Y117000D01*
X24842Y116902D01*
X24837Y116895D01*
X24831Y116889D01*
X24798Y116839D01*
X13970Y116839D01*
X13852Y116824D01*
X13733Y116817D01*
X13695Y116804D01*
X13655Y116799D01*
X13544Y116756D01*
X13431Y116719D01*
X13397Y116697D01*
X13359Y116682D01*
X13263Y116612D01*
X13162Y116549D01*
X13134Y116519D01*
X13102Y116495D01*
X13026Y116404D01*
X12944Y116317D01*
X12925Y116282D01*
X12899Y116251D01*
X12848Y116143D01*
X12791Y116039D01*
X12780Y115999D01*
X12763Y115963D01*
X12741Y115846D01*
X12711Y115731D01*
X12707Y115670D01*
X12703Y115650D01*
X12705Y115630D01*
X12701Y115570D01*
X12701Y114299D01*
X11430Y114299D01*
X11312Y114284D01*
X11193Y114277D01*
X11155Y114264D01*
X11114Y114259D01*
X11004Y114215D01*
X10891Y114179D01*
X10856Y114157D01*
X10819Y114142D01*
X10723Y114072D01*
X10622Y114009D01*
X10594Y113979D01*
X10561Y113955D01*
X10486Y113864D01*
X10404Y113777D01*
X10384Y113742D01*
X10359Y113710D01*
X10308Y113603D01*
X10250Y113498D01*
X10240Y113459D01*
X10223Y113423D01*
X10201Y113306D01*
X10171Y113191D01*
X10167Y113130D01*
X10163Y113110D01*
X10165Y113090D01*
X10161Y113030D01*
X10161Y102615D01*
X9904Y102655D01*
X8117Y103236D01*
X6443Y104089D01*
X6080Y104353D01*
X6045Y104372D01*
X6015Y104397D01*
X5906Y104448D01*
X5801Y104506D01*
X5763Y104516D01*
X5727Y104533D01*
X5609Y104555D01*
X5493Y104585D01*
X5454Y104585D01*
X5414Y104592D01*
X5295Y104585D01*
X5175Y104585D01*
X5137Y104575D01*
X5097Y104573D01*
X4983Y104536D01*
X4867Y104506D01*
X4832Y104487D01*
X4795Y104475D01*
X4694Y104411D01*
X4589Y104353D01*
X4559Y104326D01*
X4526Y104305D01*
X4444Y104217D01*
X4357Y104135D01*
X4335Y104102D01*
X4308Y104073D01*
X4250Y103968D01*
X4186Y103867D01*
X4174Y103829D01*
X4154Y103794D01*
X4125Y103679D01*
X4087Y103565D01*
X4085Y103525D01*
X4075Y103486D01*
X4065Y103326D01*
X4065Y38397D01*
X4083Y38252D01*
X4098Y38107D01*
X4103Y38094D01*
X4105Y38081D01*
X4158Y37946D01*
X4209Y37809D01*
X4217Y37798D01*
X4222Y37785D01*
X4307Y37668D01*
X4390Y37548D01*
X4401Y37539D01*
X4408Y37528D01*
X4520Y37435D01*
X4631Y37340D01*
X4643Y37334D01*
X4653Y37325D01*
X4785Y37263D01*
X4916Y37198D01*
X4929Y37195D01*
X4941Y37190D01*
X5083Y37162D01*
X5227Y37132D01*
X5240Y37132D01*
X5253Y37130D01*
X5398Y37139D01*
X5544Y37145D01*
X5558Y37149D01*
X5571Y37150D01*
X5709Y37194D01*
X5849Y37237D01*
X5861Y37244D01*
X5873Y37248D01*
X5996Y37325D01*
X6121Y37401D01*
X6131Y37411D01*
X6142Y37418D01*
X6242Y37524D01*
X6344Y37628D01*
X6354Y37643D01*
X6360Y37649D01*
X6368Y37664D01*
X6433Y37762D01*
X7815Y40155D01*
X13922Y45280D01*
X21414Y48007D01*
X29386Y48007D01*
X36878Y45280D01*
X42985Y40156D01*
X46971Y33251D01*
X48355Y25400D01*
X46971Y17549D01*
X42985Y10645D01*
X37815Y6306D01*
X37791Y6280D01*
X37762Y6260D01*
X37683Y6164D01*
X37599Y6073D01*
X37582Y6042D01*
X37559Y6015D01*
X37506Y5902D01*
X37447Y5793D01*
X37439Y5759D01*
X37424Y5727D01*
X37401Y5605D01*
X37370Y5485D01*
X37371Y5449D01*
X37364Y5414D01*
X37372Y5291D01*
X37373Y5167D01*
X37382Y5132D01*
X37384Y5097D01*
X37422Y4979D01*
X37454Y4859D01*
X37471Y4828D01*
X37482Y4795D01*
X37548Y4690D01*
X37609Y4581D01*
X37633Y4556D01*
X37652Y4526D01*
X37742Y4441D01*
X37828Y4351D01*
X37858Y4332D01*
X37884Y4308D01*
X37992Y4248D01*
X38097Y4182D01*
X38131Y4171D01*
X38162Y4154D01*
X38282Y4123D01*
X38400Y4086D01*
X38436Y4084D01*
X38470Y4075D01*
X38631Y4065D01*
X489966Y4065D01*
X490084Y4080D01*
G37*
%LPC*%
G36*
X289624Y495553D02*
X289624Y495553D01*
X285050Y497448D01*
X281548Y500950D01*
X279653Y505524D01*
X279653Y510476D01*
X281548Y515050D01*
X285050Y518552D01*
X289624Y520447D01*
X294576Y520447D01*
X299150Y518552D01*
X302652Y515050D01*
X303627Y512695D01*
X303696Y512575D01*
X303761Y512452D01*
X303775Y512437D01*
X303785Y512419D01*
X303882Y512319D01*
X303975Y512216D01*
X303992Y512205D01*
X304006Y512191D01*
X304125Y512118D01*
X304241Y512042D01*
X304260Y512035D01*
X304277Y512024D01*
X304410Y511984D01*
X304542Y511938D01*
X304562Y511937D01*
X304581Y511931D01*
X304720Y511924D01*
X304859Y511913D01*
X304879Y511917D01*
X304899Y511916D01*
X305035Y511944D01*
X305172Y511968D01*
X305191Y511976D01*
X305210Y511980D01*
X305336Y512041D01*
X305462Y512098D01*
X305478Y512111D01*
X305496Y512120D01*
X305602Y512210D01*
X305710Y512297D01*
X305723Y512313D01*
X305738Y512326D01*
X305818Y512440D01*
X305902Y512551D01*
X305914Y512576D01*
X305921Y512586D01*
X305928Y512605D01*
X305973Y512695D01*
X306948Y515050D01*
X310450Y518552D01*
X315024Y520447D01*
X319976Y520447D01*
X324550Y518552D01*
X328052Y515050D01*
X329027Y512695D01*
X329096Y512575D01*
X329161Y512452D01*
X329175Y512437D01*
X329185Y512419D01*
X329282Y512319D01*
X329375Y512216D01*
X329392Y512205D01*
X329406Y512191D01*
X329525Y512118D01*
X329641Y512042D01*
X329660Y512035D01*
X329677Y512024D01*
X329810Y511984D01*
X329942Y511938D01*
X329962Y511937D01*
X329981Y511931D01*
X330120Y511924D01*
X330259Y511913D01*
X330279Y511917D01*
X330299Y511916D01*
X330435Y511944D01*
X330572Y511968D01*
X330591Y511976D01*
X330610Y511980D01*
X330736Y512041D01*
X330862Y512098D01*
X330878Y512111D01*
X330896Y512120D01*
X331002Y512210D01*
X331110Y512297D01*
X331123Y512313D01*
X331138Y512326D01*
X331218Y512440D01*
X331302Y512551D01*
X331314Y512576D01*
X331321Y512586D01*
X331328Y512605D01*
X331373Y512695D01*
X332348Y515050D01*
X335850Y518552D01*
X340424Y520447D01*
X345376Y520447D01*
X349950Y518552D01*
X353452Y515050D01*
X354427Y512695D01*
X354496Y512575D01*
X354561Y512452D01*
X354575Y512437D01*
X354585Y512419D01*
X354682Y512319D01*
X354775Y512216D01*
X354792Y512205D01*
X354806Y512191D01*
X354925Y512118D01*
X355041Y512042D01*
X355060Y512035D01*
X355077Y512024D01*
X355210Y511984D01*
X355342Y511938D01*
X355362Y511937D01*
X355381Y511931D01*
X355520Y511924D01*
X355659Y511913D01*
X355679Y511917D01*
X355699Y511916D01*
X355835Y511944D01*
X355972Y511968D01*
X355991Y511976D01*
X356010Y511980D01*
X356136Y512041D01*
X356262Y512098D01*
X356278Y512111D01*
X356296Y512120D01*
X356402Y512210D01*
X356510Y512297D01*
X356523Y512313D01*
X356538Y512326D01*
X356618Y512440D01*
X356702Y512551D01*
X356714Y512576D01*
X356721Y512586D01*
X356728Y512605D01*
X356773Y512695D01*
X357748Y515050D01*
X361250Y518552D01*
X365824Y520447D01*
X370776Y520447D01*
X375350Y518552D01*
X378852Y515050D01*
X379827Y512695D01*
X379896Y512575D01*
X379961Y512452D01*
X379975Y512437D01*
X379985Y512419D01*
X380082Y512319D01*
X380175Y512216D01*
X380192Y512205D01*
X380206Y512191D01*
X380325Y512118D01*
X380441Y512042D01*
X380460Y512035D01*
X380477Y512024D01*
X380610Y511984D01*
X380742Y511938D01*
X380762Y511937D01*
X380781Y511931D01*
X380920Y511924D01*
X381059Y511913D01*
X381079Y511917D01*
X381099Y511916D01*
X381235Y511944D01*
X381372Y511968D01*
X381391Y511976D01*
X381410Y511980D01*
X381536Y512041D01*
X381662Y512098D01*
X381678Y512111D01*
X381696Y512120D01*
X381802Y512210D01*
X381910Y512297D01*
X381923Y512313D01*
X381938Y512326D01*
X382018Y512440D01*
X382102Y512551D01*
X382114Y512576D01*
X382121Y512586D01*
X382128Y512605D01*
X382173Y512695D01*
X383148Y515050D01*
X386650Y518552D01*
X391224Y520447D01*
X396176Y520447D01*
X400750Y518552D01*
X404252Y515050D01*
X405227Y512695D01*
X405296Y512575D01*
X405361Y512452D01*
X405375Y512437D01*
X405385Y512419D01*
X405482Y512319D01*
X405575Y512216D01*
X405592Y512205D01*
X405606Y512191D01*
X405725Y512118D01*
X405841Y512042D01*
X405860Y512035D01*
X405877Y512024D01*
X406010Y511984D01*
X406142Y511938D01*
X406162Y511937D01*
X406181Y511931D01*
X406320Y511924D01*
X406459Y511913D01*
X406479Y511917D01*
X406499Y511916D01*
X406635Y511944D01*
X406772Y511968D01*
X406791Y511976D01*
X406810Y511980D01*
X406936Y512041D01*
X407062Y512098D01*
X407078Y512111D01*
X407096Y512120D01*
X407202Y512210D01*
X407310Y512297D01*
X407323Y512313D01*
X407338Y512326D01*
X407418Y512440D01*
X407502Y512551D01*
X407514Y512576D01*
X407521Y512586D01*
X407528Y512605D01*
X407573Y512695D01*
X408548Y515050D01*
X412050Y518552D01*
X416624Y520447D01*
X421576Y520447D01*
X426150Y518552D01*
X429652Y515050D01*
X430627Y512695D01*
X430696Y512575D01*
X430761Y512452D01*
X430775Y512437D01*
X430785Y512419D01*
X430882Y512319D01*
X430975Y512216D01*
X430992Y512205D01*
X431006Y512191D01*
X431125Y512118D01*
X431241Y512042D01*
X431260Y512035D01*
X431277Y512024D01*
X431410Y511984D01*
X431542Y511938D01*
X431562Y511937D01*
X431581Y511931D01*
X431720Y511924D01*
X431859Y511913D01*
X431879Y511917D01*
X431899Y511916D01*
X432035Y511944D01*
X432172Y511968D01*
X432191Y511976D01*
X432210Y511980D01*
X432336Y512041D01*
X432462Y512098D01*
X432478Y512111D01*
X432496Y512120D01*
X432602Y512210D01*
X432710Y512297D01*
X432723Y512313D01*
X432738Y512326D01*
X432818Y512440D01*
X432902Y512551D01*
X432914Y512576D01*
X432921Y512586D01*
X432928Y512605D01*
X432973Y512695D01*
X433948Y515050D01*
X437450Y518552D01*
X442024Y520447D01*
X446976Y520447D01*
X451550Y518552D01*
X455066Y515036D01*
X455072Y515023D01*
X455124Y514950D01*
X455169Y514872D01*
X455217Y514822D01*
X455258Y514765D01*
X455328Y514708D01*
X455390Y514644D01*
X455450Y514607D01*
X455503Y514562D01*
X455585Y514524D01*
X455661Y514477D01*
X455728Y514457D01*
X455791Y514427D01*
X455879Y514410D01*
X455965Y514384D01*
X456035Y514380D01*
X456104Y514367D01*
X456193Y514373D01*
X456283Y514368D01*
X456351Y514383D01*
X456421Y514387D01*
X456506Y514415D01*
X456594Y514433D01*
X456657Y514463D01*
X456723Y514485D01*
X456799Y514533D01*
X456880Y514572D01*
X456933Y514618D01*
X456992Y514655D01*
X457054Y514720D01*
X457122Y514779D01*
X457162Y514836D01*
X457210Y514887D01*
X457253Y514965D01*
X457305Y515039D01*
X457330Y515104D01*
X457364Y515165D01*
X457386Y515252D01*
X457418Y515336D01*
X457426Y515406D01*
X457443Y515473D01*
X457453Y515634D01*
X457453Y518661D01*
X459239Y520447D01*
X480561Y520447D01*
X482347Y518661D01*
X482347Y497339D01*
X480561Y495553D01*
X459239Y495553D01*
X457453Y497339D01*
X457453Y500366D01*
X457445Y500435D01*
X457446Y500505D01*
X457432Y500562D01*
X457431Y500578D01*
X457424Y500601D01*
X457413Y500682D01*
X457388Y500747D01*
X457371Y500815D01*
X457329Y500894D01*
X457296Y500977D01*
X457255Y501034D01*
X457223Y501096D01*
X457162Y501162D01*
X457110Y501235D01*
X457056Y501279D01*
X457009Y501331D01*
X456934Y501380D01*
X456865Y501438D01*
X456801Y501467D01*
X456743Y501506D01*
X456658Y501535D01*
X456577Y501573D01*
X456508Y501586D01*
X456442Y501609D01*
X456353Y501616D01*
X456265Y501633D01*
X456195Y501628D01*
X456125Y501634D01*
X456037Y501619D01*
X455947Y501613D01*
X455881Y501592D01*
X455812Y501580D01*
X455730Y501543D01*
X455645Y501515D01*
X455586Y501478D01*
X455522Y501449D01*
X455452Y501393D01*
X455376Y501345D01*
X455328Y501294D01*
X455273Y501250D01*
X455220Y501179D01*
X455158Y501113D01*
X455124Y501052D01*
X455082Y500996D01*
X455066Y500964D01*
X451550Y497448D01*
X446976Y495553D01*
X442024Y495553D01*
X437450Y497448D01*
X433948Y500950D01*
X432973Y503305D01*
X432904Y503425D01*
X432839Y503548D01*
X432825Y503563D01*
X432815Y503581D01*
X432718Y503681D01*
X432625Y503784D01*
X432608Y503795D01*
X432594Y503809D01*
X432476Y503882D01*
X432359Y503958D01*
X432340Y503965D01*
X432323Y503976D01*
X432190Y504016D01*
X432058Y504062D01*
X432038Y504063D01*
X432019Y504069D01*
X431880Y504076D01*
X431741Y504087D01*
X431721Y504083D01*
X431701Y504084D01*
X431565Y504056D01*
X431428Y504032D01*
X431409Y504024D01*
X431390Y504020D01*
X431265Y503959D01*
X431138Y503902D01*
X431122Y503889D01*
X431104Y503880D01*
X430998Y503790D01*
X430890Y503703D01*
X430877Y503687D01*
X430862Y503674D01*
X430782Y503560D01*
X430698Y503449D01*
X430686Y503424D01*
X430679Y503414D01*
X430672Y503395D01*
X430627Y503305D01*
X429652Y500950D01*
X426150Y497448D01*
X421576Y495553D01*
X416624Y495553D01*
X412050Y497448D01*
X408548Y500950D01*
X407573Y503305D01*
X407504Y503425D01*
X407439Y503548D01*
X407425Y503563D01*
X407415Y503581D01*
X407318Y503681D01*
X407225Y503784D01*
X407208Y503795D01*
X407194Y503809D01*
X407076Y503882D01*
X406959Y503958D01*
X406940Y503965D01*
X406923Y503976D01*
X406790Y504016D01*
X406658Y504062D01*
X406638Y504063D01*
X406619Y504069D01*
X406480Y504076D01*
X406341Y504087D01*
X406321Y504083D01*
X406301Y504084D01*
X406165Y504056D01*
X406028Y504032D01*
X406009Y504024D01*
X405990Y504020D01*
X405865Y503959D01*
X405738Y503902D01*
X405722Y503889D01*
X405704Y503880D01*
X405598Y503790D01*
X405490Y503703D01*
X405477Y503687D01*
X405462Y503674D01*
X405382Y503560D01*
X405298Y503449D01*
X405286Y503424D01*
X405279Y503414D01*
X405272Y503395D01*
X405227Y503305D01*
X404252Y500950D01*
X400750Y497448D01*
X396176Y495553D01*
X391224Y495553D01*
X386650Y497448D01*
X383148Y500950D01*
X382173Y503305D01*
X382104Y503425D01*
X382039Y503548D01*
X382025Y503563D01*
X382015Y503581D01*
X381918Y503681D01*
X381825Y503784D01*
X381808Y503795D01*
X381794Y503809D01*
X381676Y503882D01*
X381559Y503958D01*
X381540Y503965D01*
X381523Y503976D01*
X381390Y504016D01*
X381258Y504062D01*
X381238Y504063D01*
X381219Y504069D01*
X381080Y504076D01*
X380941Y504087D01*
X380921Y504083D01*
X380901Y504084D01*
X380765Y504056D01*
X380628Y504032D01*
X380609Y504024D01*
X380590Y504020D01*
X380465Y503959D01*
X380338Y503902D01*
X380322Y503889D01*
X380304Y503880D01*
X380198Y503790D01*
X380090Y503703D01*
X380077Y503687D01*
X380062Y503674D01*
X379982Y503560D01*
X379898Y503449D01*
X379886Y503424D01*
X379879Y503414D01*
X379872Y503395D01*
X379827Y503305D01*
X378852Y500950D01*
X375350Y497448D01*
X370776Y495553D01*
X365824Y495553D01*
X361250Y497448D01*
X357748Y500950D01*
X356773Y503305D01*
X356704Y503425D01*
X356639Y503548D01*
X356625Y503563D01*
X356615Y503581D01*
X356518Y503681D01*
X356425Y503784D01*
X356408Y503795D01*
X356394Y503809D01*
X356276Y503882D01*
X356159Y503958D01*
X356140Y503965D01*
X356123Y503976D01*
X355990Y504016D01*
X355858Y504062D01*
X355838Y504063D01*
X355819Y504069D01*
X355680Y504076D01*
X355541Y504087D01*
X355521Y504083D01*
X355501Y504084D01*
X355365Y504056D01*
X355228Y504032D01*
X355209Y504024D01*
X355190Y504020D01*
X355065Y503959D01*
X354938Y503902D01*
X354922Y503889D01*
X354904Y503880D01*
X354798Y503790D01*
X354690Y503703D01*
X354677Y503687D01*
X354662Y503674D01*
X354582Y503560D01*
X354498Y503449D01*
X354486Y503424D01*
X354479Y503414D01*
X354472Y503395D01*
X354427Y503305D01*
X353452Y500950D01*
X349950Y497448D01*
X345376Y495553D01*
X340424Y495553D01*
X335850Y497448D01*
X332348Y500950D01*
X331373Y503305D01*
X331304Y503425D01*
X331239Y503548D01*
X331225Y503563D01*
X331215Y503581D01*
X331118Y503681D01*
X331025Y503784D01*
X331008Y503795D01*
X330994Y503809D01*
X330876Y503882D01*
X330759Y503958D01*
X330740Y503965D01*
X330723Y503976D01*
X330590Y504016D01*
X330458Y504062D01*
X330438Y504063D01*
X330419Y504069D01*
X330280Y504076D01*
X330141Y504087D01*
X330121Y504083D01*
X330101Y504084D01*
X329965Y504056D01*
X329828Y504032D01*
X329809Y504024D01*
X329790Y504020D01*
X329665Y503959D01*
X329538Y503902D01*
X329522Y503889D01*
X329504Y503880D01*
X329398Y503790D01*
X329290Y503703D01*
X329277Y503687D01*
X329262Y503674D01*
X329182Y503560D01*
X329098Y503449D01*
X329086Y503424D01*
X329079Y503414D01*
X329072Y503395D01*
X329027Y503305D01*
X328052Y500950D01*
X324550Y497448D01*
X319976Y495553D01*
X315024Y495553D01*
X310450Y497448D01*
X306948Y500950D01*
X305973Y503305D01*
X305904Y503425D01*
X305839Y503548D01*
X305825Y503563D01*
X305815Y503581D01*
X305718Y503681D01*
X305625Y503784D01*
X305608Y503795D01*
X305594Y503809D01*
X305476Y503882D01*
X305359Y503958D01*
X305340Y503965D01*
X305323Y503976D01*
X305190Y504016D01*
X305058Y504062D01*
X305038Y504063D01*
X305019Y504069D01*
X304880Y504076D01*
X304741Y504087D01*
X304721Y504083D01*
X304701Y504084D01*
X304565Y504056D01*
X304428Y504032D01*
X304409Y504024D01*
X304390Y504020D01*
X304265Y503959D01*
X304138Y503902D01*
X304122Y503889D01*
X304104Y503880D01*
X303998Y503790D01*
X303890Y503703D01*
X303877Y503687D01*
X303862Y503674D01*
X303782Y503560D01*
X303698Y503449D01*
X303686Y503424D01*
X303679Y503414D01*
X303672Y503395D01*
X303627Y503305D01*
X302652Y500950D01*
X299150Y497448D01*
X294576Y495553D01*
X289624Y495553D01*
G37*
%LPD*%
%LPC*%
G36*
X92363Y42671D02*
X92363Y42671D01*
X89375Y43909D01*
X87089Y46195D01*
X85851Y49183D01*
X85851Y52417D01*
X87089Y55405D01*
X89375Y57691D01*
X92363Y58929D01*
X92961Y58929D01*
X93059Y58941D01*
X93158Y58944D01*
X93216Y58961D01*
X93276Y58969D01*
X93369Y59005D01*
X93464Y59033D01*
X93516Y59063D01*
X93572Y59086D01*
X93652Y59144D01*
X93738Y59194D01*
X93813Y59260D01*
X93829Y59272D01*
X93837Y59282D01*
X93858Y59300D01*
X100052Y65494D01*
X100112Y65572D01*
X100180Y65644D01*
X100209Y65697D01*
X100246Y65745D01*
X100286Y65836D01*
X100334Y65922D01*
X100349Y65981D01*
X100373Y66037D01*
X100388Y66135D01*
X100413Y66230D01*
X100419Y66330D01*
X100423Y66351D01*
X100421Y66363D01*
X100423Y66391D01*
X100423Y66623D01*
X100422Y66632D01*
X100423Y66641D01*
X100402Y66790D01*
X100383Y66938D01*
X100380Y66947D01*
X100379Y66956D01*
X100327Y67109D01*
X100296Y67182D01*
X100296Y72005D01*
X100292Y72039D01*
X100294Y72073D01*
X100272Y72196D01*
X100256Y72321D01*
X100244Y72353D01*
X100238Y72386D01*
X100186Y72500D01*
X100139Y72617D01*
X100119Y72644D01*
X100105Y72675D01*
X100026Y72773D01*
X99953Y72874D01*
X99926Y72896D01*
X99905Y72922D01*
X99804Y72997D01*
X99708Y73077D01*
X99677Y73091D01*
X99649Y73112D01*
X99533Y73159D01*
X99420Y73212D01*
X99386Y73219D01*
X99355Y73232D01*
X99230Y73249D01*
X99108Y73272D01*
X99073Y73270D01*
X99039Y73275D01*
X98915Y73260D01*
X98790Y73252D01*
X98758Y73242D01*
X98724Y73238D01*
X98606Y73193D01*
X98488Y73154D01*
X98459Y73136D01*
X98427Y73124D01*
X98325Y73051D01*
X98219Y72984D01*
X98195Y72959D01*
X98168Y72939D01*
X98087Y72844D01*
X98001Y72752D01*
X97984Y72723D01*
X97962Y72696D01*
X97883Y72556D01*
X97673Y72119D01*
X96231Y69824D01*
X94541Y67705D01*
X92625Y65789D01*
X90506Y64099D01*
X88211Y62657D01*
X85769Y61481D01*
X83211Y60586D01*
X80568Y59983D01*
X79059Y59813D01*
X79059Y82540D01*
X79044Y82658D01*
X79037Y82777D01*
X79024Y82815D01*
X79019Y82855D01*
X78976Y82966D01*
X78939Y83079D01*
X78917Y83113D01*
X78902Y83151D01*
X78832Y83247D01*
X78769Y83348D01*
X78739Y83376D01*
X78715Y83408D01*
X78624Y83484D01*
X78537Y83566D01*
X78502Y83585D01*
X78471Y83611D01*
X78363Y83662D01*
X78259Y83719D01*
X78219Y83730D01*
X78183Y83747D01*
X78066Y83769D01*
X77951Y83799D01*
X77890Y83803D01*
X77870Y83807D01*
X77850Y83805D01*
X77790Y83809D01*
X76519Y83809D01*
X76519Y83811D01*
X77790Y83811D01*
X77908Y83826D01*
X78027Y83833D01*
X78065Y83846D01*
X78105Y83851D01*
X78216Y83895D01*
X78329Y83931D01*
X78364Y83953D01*
X78401Y83968D01*
X78497Y84038D01*
X78598Y84101D01*
X78626Y84131D01*
X78659Y84155D01*
X78734Y84246D01*
X78816Y84333D01*
X78836Y84368D01*
X78861Y84400D01*
X78912Y84507D01*
X78970Y84612D01*
X78980Y84651D01*
X78997Y84687D01*
X79019Y84804D01*
X79049Y84919D01*
X79053Y84980D01*
X79057Y85000D01*
X79055Y85020D01*
X79059Y85080D01*
X79059Y107807D01*
X80568Y107637D01*
X83211Y107034D01*
X85769Y106139D01*
X88211Y104963D01*
X90506Y103521D01*
X92625Y101831D01*
X94541Y99915D01*
X96231Y97796D01*
X97673Y95501D01*
X97883Y95064D01*
X97902Y95035D01*
X97915Y95003D01*
X97988Y94902D01*
X98056Y94797D01*
X98081Y94774D01*
X98101Y94746D01*
X98198Y94666D01*
X98290Y94581D01*
X98320Y94565D01*
X98346Y94543D01*
X98460Y94490D01*
X98570Y94431D01*
X98603Y94422D01*
X98634Y94408D01*
X98757Y94384D01*
X98879Y94354D01*
X98913Y94354D01*
X98947Y94348D01*
X99071Y94356D01*
X99197Y94357D01*
X99230Y94366D01*
X99264Y94368D01*
X99383Y94406D01*
X99504Y94438D01*
X99534Y94455D01*
X99566Y94466D01*
X99672Y94533D01*
X99781Y94594D01*
X99806Y94618D01*
X99835Y94636D01*
X99921Y94727D01*
X100011Y94814D01*
X100030Y94843D01*
X100053Y94868D01*
X100114Y94977D01*
X100180Y95083D01*
X100190Y95116D01*
X100207Y95146D01*
X100238Y95267D01*
X100276Y95387D01*
X100277Y95421D01*
X100286Y95454D01*
X100296Y95615D01*
X100296Y105996D01*
X100282Y106107D01*
X100276Y106220D01*
X100262Y106265D01*
X100256Y106311D01*
X100215Y106416D01*
X100182Y106523D01*
X100157Y106563D01*
X100139Y106607D01*
X100073Y106698D01*
X100014Y106794D01*
X99980Y106826D01*
X99953Y106864D01*
X99866Y106936D01*
X99785Y107014D01*
X99744Y107037D01*
X99708Y107067D01*
X99606Y107115D01*
X99508Y107170D01*
X99439Y107194D01*
X99420Y107203D01*
X99402Y107206D01*
X99356Y107222D01*
X97010Y107850D01*
X91391Y111094D01*
X86804Y115681D01*
X83560Y121300D01*
X81881Y127566D01*
X81881Y134054D01*
X83560Y140320D01*
X86804Y145939D01*
X91391Y150526D01*
X97010Y153770D01*
X103276Y155449D01*
X109764Y155449D01*
X116030Y153770D01*
X121649Y150526D01*
X126236Y145939D01*
X129480Y140320D01*
X131159Y134054D01*
X131159Y127566D01*
X129480Y121300D01*
X126236Y115681D01*
X121649Y111094D01*
X116030Y107850D01*
X113684Y107222D01*
X113580Y107179D01*
X113474Y107145D01*
X113434Y107119D01*
X113390Y107102D01*
X113300Y107035D01*
X113205Y106975D01*
X113173Y106940D01*
X113135Y106912D01*
X113064Y106825D01*
X112987Y106743D01*
X112964Y106702D01*
X112934Y106665D01*
X112888Y106563D01*
X112833Y106464D01*
X112822Y106419D01*
X112802Y106376D01*
X112782Y106265D01*
X112754Y106157D01*
X112749Y106084D01*
X112746Y106063D01*
X112747Y106045D01*
X112744Y105996D01*
X112744Y67182D01*
X112713Y67109D01*
X112711Y67100D01*
X112706Y67092D01*
X112669Y66947D01*
X112629Y66802D01*
X112629Y66793D01*
X112627Y66784D01*
X112617Y66623D01*
X112617Y62127D01*
X111689Y59886D01*
X102480Y50678D01*
X102420Y50600D01*
X102352Y50528D01*
X102323Y50475D01*
X102286Y50427D01*
X102246Y50336D01*
X102198Y50250D01*
X102183Y50191D01*
X102159Y50135D01*
X102144Y50037D01*
X102119Y49942D01*
X102113Y49847D01*
X102111Y49838D01*
X102112Y49835D01*
X102109Y49821D01*
X102111Y49809D01*
X102109Y49781D01*
X102109Y49183D01*
X100871Y46195D01*
X98585Y43909D01*
X95597Y42671D01*
X92363Y42671D01*
G37*
%LPD*%
%LPC*%
G36*
X340424Y12953D02*
X340424Y12953D01*
X335850Y14848D01*
X332348Y18350D01*
X330453Y22924D01*
X330453Y27876D01*
X332348Y32450D01*
X335850Y35952D01*
X340424Y37847D01*
X345376Y37847D01*
X349950Y35952D01*
X353452Y32451D01*
X354427Y30095D01*
X354496Y29974D01*
X354561Y29852D01*
X354575Y29837D01*
X354585Y29819D01*
X354682Y29719D01*
X354775Y29616D01*
X354792Y29605D01*
X354806Y29591D01*
X354924Y29518D01*
X355041Y29442D01*
X355060Y29435D01*
X355077Y29424D01*
X355210Y29384D01*
X355342Y29338D01*
X355362Y29337D01*
X355381Y29331D01*
X355520Y29324D01*
X355659Y29313D01*
X355679Y29317D01*
X355699Y29316D01*
X355835Y29344D01*
X355972Y29368D01*
X355991Y29376D01*
X356010Y29380D01*
X356135Y29441D01*
X356262Y29498D01*
X356278Y29511D01*
X356296Y29520D01*
X356402Y29610D01*
X356510Y29697D01*
X356523Y29713D01*
X356538Y29726D01*
X356618Y29840D01*
X356702Y29951D01*
X356714Y29976D01*
X356721Y29986D01*
X356728Y30005D01*
X356773Y30095D01*
X357748Y32450D01*
X361250Y35952D01*
X365824Y37847D01*
X370776Y37847D01*
X375350Y35952D01*
X378852Y32451D01*
X379827Y30095D01*
X379896Y29974D01*
X379961Y29852D01*
X379975Y29837D01*
X379985Y29819D01*
X380082Y29719D01*
X380175Y29616D01*
X380192Y29605D01*
X380206Y29591D01*
X380324Y29518D01*
X380441Y29442D01*
X380460Y29435D01*
X380477Y29424D01*
X380610Y29384D01*
X380742Y29338D01*
X380762Y29337D01*
X380781Y29331D01*
X380920Y29324D01*
X381059Y29313D01*
X381079Y29317D01*
X381099Y29316D01*
X381235Y29344D01*
X381372Y29368D01*
X381391Y29376D01*
X381410Y29380D01*
X381535Y29441D01*
X381662Y29498D01*
X381678Y29511D01*
X381696Y29520D01*
X381802Y29610D01*
X381910Y29697D01*
X381923Y29713D01*
X381938Y29726D01*
X382018Y29840D01*
X382102Y29951D01*
X382114Y29976D01*
X382121Y29986D01*
X382128Y30005D01*
X382173Y30095D01*
X383148Y32450D01*
X386650Y35952D01*
X391224Y37847D01*
X396176Y37847D01*
X400750Y35952D01*
X404252Y32451D01*
X405227Y30095D01*
X405296Y29974D01*
X405361Y29852D01*
X405375Y29837D01*
X405385Y29819D01*
X405482Y29719D01*
X405575Y29616D01*
X405592Y29605D01*
X405606Y29591D01*
X405724Y29518D01*
X405841Y29442D01*
X405860Y29435D01*
X405877Y29424D01*
X406010Y29384D01*
X406142Y29338D01*
X406162Y29337D01*
X406181Y29331D01*
X406320Y29324D01*
X406459Y29313D01*
X406479Y29317D01*
X406499Y29316D01*
X406635Y29344D01*
X406772Y29368D01*
X406791Y29376D01*
X406810Y29380D01*
X406935Y29441D01*
X407062Y29498D01*
X407078Y29511D01*
X407096Y29520D01*
X407202Y29610D01*
X407310Y29697D01*
X407323Y29713D01*
X407338Y29726D01*
X407418Y29840D01*
X407502Y29951D01*
X407514Y29976D01*
X407521Y29986D01*
X407528Y30005D01*
X407573Y30095D01*
X408548Y32450D01*
X412050Y35952D01*
X416624Y37847D01*
X421576Y37847D01*
X426150Y35952D01*
X429652Y32451D01*
X430627Y30095D01*
X430696Y29974D01*
X430761Y29852D01*
X430775Y29837D01*
X430785Y29819D01*
X430882Y29719D01*
X430975Y29616D01*
X430992Y29605D01*
X431006Y29591D01*
X431124Y29518D01*
X431241Y29442D01*
X431260Y29435D01*
X431277Y29424D01*
X431410Y29384D01*
X431542Y29338D01*
X431562Y29337D01*
X431581Y29331D01*
X431720Y29324D01*
X431859Y29313D01*
X431879Y29317D01*
X431899Y29316D01*
X432035Y29344D01*
X432172Y29368D01*
X432191Y29376D01*
X432210Y29380D01*
X432335Y29441D01*
X432462Y29498D01*
X432478Y29511D01*
X432496Y29520D01*
X432602Y29610D01*
X432710Y29697D01*
X432723Y29713D01*
X432738Y29726D01*
X432818Y29840D01*
X432902Y29951D01*
X432914Y29976D01*
X432921Y29986D01*
X432928Y30005D01*
X432973Y30095D01*
X433948Y32450D01*
X437450Y35952D01*
X442024Y37847D01*
X446976Y37847D01*
X451550Y35952D01*
X455052Y32451D01*
X456027Y30095D01*
X456096Y29974D01*
X456161Y29852D01*
X456175Y29837D01*
X456185Y29819D01*
X456282Y29719D01*
X456375Y29616D01*
X456392Y29605D01*
X456406Y29591D01*
X456524Y29518D01*
X456641Y29442D01*
X456660Y29435D01*
X456677Y29424D01*
X456810Y29384D01*
X456942Y29338D01*
X456962Y29337D01*
X456981Y29331D01*
X457120Y29324D01*
X457259Y29313D01*
X457279Y29317D01*
X457299Y29316D01*
X457435Y29344D01*
X457572Y29368D01*
X457591Y29376D01*
X457610Y29380D01*
X457735Y29441D01*
X457862Y29498D01*
X457878Y29511D01*
X457896Y29520D01*
X458002Y29610D01*
X458110Y29697D01*
X458123Y29713D01*
X458138Y29726D01*
X458218Y29840D01*
X458302Y29951D01*
X458314Y29976D01*
X458321Y29986D01*
X458328Y30005D01*
X458373Y30095D01*
X459348Y32450D01*
X462850Y35952D01*
X467424Y37847D01*
X472376Y37847D01*
X476950Y35952D01*
X480452Y32450D01*
X482347Y27876D01*
X482347Y22924D01*
X480452Y18350D01*
X476950Y14848D01*
X472376Y12953D01*
X467424Y12953D01*
X462850Y14848D01*
X459348Y18350D01*
X458373Y20705D01*
X458304Y20825D01*
X458239Y20948D01*
X458225Y20963D01*
X458215Y20981D01*
X458118Y21081D01*
X458025Y21184D01*
X458008Y21195D01*
X457994Y21209D01*
X457875Y21282D01*
X457759Y21358D01*
X457740Y21365D01*
X457723Y21376D01*
X457590Y21417D01*
X457458Y21462D01*
X457438Y21463D01*
X457419Y21469D01*
X457280Y21476D01*
X457141Y21487D01*
X457121Y21483D01*
X457101Y21484D01*
X456965Y21456D01*
X456828Y21432D01*
X456809Y21424D01*
X456790Y21420D01*
X456664Y21359D01*
X456538Y21302D01*
X456522Y21289D01*
X456504Y21280D01*
X456398Y21190D01*
X456290Y21103D01*
X456277Y21087D01*
X456262Y21074D01*
X456182Y20960D01*
X456098Y20849D01*
X456086Y20824D01*
X456079Y20814D01*
X456072Y20795D01*
X456027Y20705D01*
X455052Y18349D01*
X451550Y14848D01*
X446976Y12953D01*
X442024Y12953D01*
X437450Y14848D01*
X433948Y18350D01*
X432973Y20705D01*
X432904Y20825D01*
X432839Y20948D01*
X432825Y20963D01*
X432815Y20981D01*
X432718Y21081D01*
X432625Y21184D01*
X432608Y21195D01*
X432594Y21209D01*
X432475Y21282D01*
X432359Y21358D01*
X432340Y21365D01*
X432323Y21376D01*
X432190Y21417D01*
X432058Y21462D01*
X432038Y21463D01*
X432019Y21469D01*
X431880Y21476D01*
X431741Y21487D01*
X431721Y21483D01*
X431701Y21484D01*
X431565Y21456D01*
X431428Y21432D01*
X431409Y21424D01*
X431390Y21420D01*
X431264Y21359D01*
X431138Y21302D01*
X431122Y21289D01*
X431104Y21280D01*
X430998Y21190D01*
X430890Y21103D01*
X430877Y21087D01*
X430862Y21074D01*
X430782Y20960D01*
X430698Y20849D01*
X430686Y20824D01*
X430679Y20814D01*
X430672Y20795D01*
X430627Y20705D01*
X429652Y18349D01*
X426150Y14848D01*
X421576Y12953D01*
X416624Y12953D01*
X412050Y14848D01*
X408548Y18350D01*
X407573Y20705D01*
X407504Y20825D01*
X407439Y20948D01*
X407425Y20963D01*
X407415Y20981D01*
X407318Y21081D01*
X407225Y21184D01*
X407208Y21195D01*
X407194Y21209D01*
X407075Y21282D01*
X406959Y21358D01*
X406940Y21365D01*
X406923Y21376D01*
X406790Y21417D01*
X406658Y21462D01*
X406638Y21463D01*
X406619Y21469D01*
X406480Y21476D01*
X406341Y21487D01*
X406321Y21483D01*
X406301Y21484D01*
X406165Y21456D01*
X406028Y21432D01*
X406009Y21424D01*
X405990Y21420D01*
X405864Y21359D01*
X405738Y21302D01*
X405722Y21289D01*
X405704Y21280D01*
X405598Y21190D01*
X405490Y21103D01*
X405477Y21087D01*
X405462Y21074D01*
X405382Y20960D01*
X405298Y20849D01*
X405286Y20824D01*
X405279Y20814D01*
X405272Y20795D01*
X405227Y20705D01*
X404252Y18349D01*
X400750Y14848D01*
X396176Y12953D01*
X391224Y12953D01*
X386650Y14848D01*
X383148Y18350D01*
X382173Y20705D01*
X382104Y20825D01*
X382039Y20948D01*
X382025Y20963D01*
X382015Y20981D01*
X381918Y21081D01*
X381825Y21184D01*
X381808Y21195D01*
X381794Y21209D01*
X381675Y21282D01*
X381559Y21358D01*
X381540Y21365D01*
X381523Y21376D01*
X381390Y21417D01*
X381258Y21462D01*
X381238Y21463D01*
X381219Y21469D01*
X381080Y21476D01*
X380941Y21487D01*
X380921Y21483D01*
X380901Y21484D01*
X380765Y21456D01*
X380628Y21432D01*
X380609Y21424D01*
X380590Y21420D01*
X380464Y21359D01*
X380338Y21302D01*
X380322Y21289D01*
X380304Y21280D01*
X380198Y21190D01*
X380090Y21103D01*
X380077Y21087D01*
X380062Y21074D01*
X379982Y20960D01*
X379898Y20849D01*
X379886Y20824D01*
X379879Y20814D01*
X379872Y20795D01*
X379827Y20705D01*
X378852Y18349D01*
X375350Y14848D01*
X370776Y12953D01*
X365824Y12953D01*
X361250Y14848D01*
X357748Y18350D01*
X356773Y20705D01*
X356704Y20825D01*
X356639Y20948D01*
X356625Y20963D01*
X356615Y20981D01*
X356518Y21081D01*
X356425Y21184D01*
X356408Y21195D01*
X356394Y21209D01*
X356275Y21282D01*
X356159Y21358D01*
X356140Y21365D01*
X356123Y21376D01*
X355990Y21417D01*
X355858Y21462D01*
X355838Y21463D01*
X355819Y21469D01*
X355680Y21476D01*
X355541Y21487D01*
X355521Y21483D01*
X355501Y21484D01*
X355365Y21456D01*
X355228Y21432D01*
X355209Y21424D01*
X355190Y21420D01*
X355064Y21359D01*
X354938Y21302D01*
X354922Y21289D01*
X354904Y21280D01*
X354798Y21190D01*
X354690Y21103D01*
X354677Y21087D01*
X354662Y21074D01*
X354582Y20960D01*
X354498Y20849D01*
X354486Y20824D01*
X354479Y20814D01*
X354472Y20795D01*
X354427Y20705D01*
X353452Y18349D01*
X349950Y14848D01*
X345376Y12953D01*
X340424Y12953D01*
G37*
%LPD*%
%LPC*%
G36*
X289624Y12953D02*
X289624Y12953D01*
X285050Y14848D01*
X281548Y18350D01*
X280295Y21375D01*
X280280Y21401D01*
X280271Y21430D01*
X280201Y21539D01*
X280137Y21652D01*
X280116Y21673D01*
X280100Y21698D01*
X280006Y21787D01*
X279916Y21880D01*
X279890Y21896D01*
X279869Y21916D01*
X279755Y21979D01*
X279645Y22046D01*
X279616Y22055D01*
X279590Y22069D01*
X279465Y22102D01*
X279341Y22140D01*
X279311Y22141D01*
X279282Y22149D01*
X279152Y22149D01*
X279023Y22155D01*
X278994Y22149D01*
X278964Y22149D01*
X278839Y22117D01*
X278712Y22091D01*
X278685Y22078D01*
X278656Y22070D01*
X278543Y22008D01*
X278426Y21951D01*
X278403Y21932D01*
X278377Y21917D01*
X278283Y21829D01*
X278184Y21745D01*
X278167Y21720D01*
X278145Y21700D01*
X278076Y21591D01*
X278001Y21485D01*
X277990Y21457D01*
X277974Y21431D01*
X277915Y21282D01*
X277764Y20817D01*
X276911Y19143D01*
X275806Y17622D01*
X274478Y16294D01*
X272957Y15189D01*
X271283Y14336D01*
X269496Y13755D01*
X269239Y13715D01*
X269239Y24130D01*
X269224Y24248D01*
X269217Y24367D01*
X269204Y24405D01*
X269199Y24445D01*
X269156Y24556D01*
X269119Y24669D01*
X269097Y24703D01*
X269082Y24741D01*
X269012Y24837D01*
X268949Y24938D01*
X268919Y24966D01*
X268895Y24998D01*
X268804Y25074D01*
X268717Y25156D01*
X268682Y25175D01*
X268651Y25201D01*
X268543Y25252D01*
X268439Y25309D01*
X268399Y25320D01*
X268363Y25337D01*
X268246Y25359D01*
X268131Y25389D01*
X268070Y25393D01*
X268050Y25397D01*
X268030Y25395D01*
X267970Y25399D01*
X266699Y25399D01*
X266699Y25401D01*
X267970Y25401D01*
X268088Y25416D01*
X268207Y25423D01*
X268245Y25436D01*
X268285Y25441D01*
X268396Y25485D01*
X268509Y25521D01*
X268544Y25543D01*
X268581Y25558D01*
X268677Y25628D01*
X268778Y25691D01*
X268806Y25721D01*
X268839Y25745D01*
X268914Y25836D01*
X268996Y25923D01*
X269016Y25958D01*
X269041Y25990D01*
X269092Y26097D01*
X269150Y26202D01*
X269160Y26241D01*
X269177Y26277D01*
X269199Y26394D01*
X269229Y26509D01*
X269233Y26570D01*
X269237Y26590D01*
X269235Y26610D01*
X269239Y26670D01*
X269239Y37085D01*
X269496Y37045D01*
X271283Y36464D01*
X272957Y35611D01*
X274478Y34506D01*
X275806Y33178D01*
X276911Y31657D01*
X277764Y29983D01*
X277915Y29518D01*
X277928Y29491D01*
X277935Y29462D01*
X277995Y29348D01*
X278050Y29230D01*
X278069Y29207D01*
X278083Y29181D01*
X278170Y29085D01*
X278253Y28985D01*
X278277Y28968D01*
X278297Y28946D01*
X278406Y28874D01*
X278510Y28798D01*
X278538Y28787D01*
X278563Y28771D01*
X278686Y28729D01*
X278806Y28681D01*
X278836Y28677D01*
X278864Y28668D01*
X278993Y28657D01*
X279121Y28641D01*
X279151Y28645D01*
X279181Y28642D01*
X279309Y28665D01*
X279437Y28681D01*
X279465Y28692D01*
X279494Y28697D01*
X279612Y28750D01*
X279733Y28798D01*
X279757Y28815D01*
X279784Y28827D01*
X279885Y28908D01*
X279990Y28984D01*
X280009Y29007D01*
X280033Y29026D01*
X280111Y29130D01*
X280193Y29229D01*
X280206Y29256D01*
X280224Y29280D01*
X280295Y29425D01*
X281548Y32450D01*
X285050Y35952D01*
X285093Y35970D01*
X285118Y35984D01*
X285146Y35993D01*
X285256Y36063D01*
X285369Y36127D01*
X285390Y36148D01*
X285415Y36164D01*
X285504Y36258D01*
X285597Y36349D01*
X285613Y36374D01*
X285633Y36395D01*
X285696Y36509D01*
X285764Y36620D01*
X285772Y36648D01*
X285787Y36674D01*
X285819Y36800D01*
X285857Y36924D01*
X285859Y36953D01*
X285866Y36982D01*
X285876Y37142D01*
X285876Y60396D01*
X285864Y60494D01*
X285861Y60594D01*
X285844Y60652D01*
X285836Y60712D01*
X285800Y60804D01*
X285772Y60899D01*
X285742Y60951D01*
X285719Y61008D01*
X285661Y61088D01*
X285611Y61173D01*
X285545Y61248D01*
X285533Y61265D01*
X285523Y61273D01*
X285505Y61294D01*
X239094Y107705D01*
X239016Y107765D01*
X238943Y107833D01*
X238890Y107862D01*
X238843Y107899D01*
X238752Y107939D01*
X238665Y107987D01*
X238606Y108002D01*
X238551Y108026D01*
X238453Y108041D01*
X238357Y108066D01*
X238257Y108072D01*
X238237Y108076D01*
X238224Y108074D01*
X238196Y108076D01*
X196298Y108076D01*
X196200Y108064D01*
X196101Y108061D01*
X196042Y108044D01*
X195982Y108036D01*
X195890Y108000D01*
X195795Y107972D01*
X195743Y107942D01*
X195687Y107919D01*
X195607Y107861D01*
X195521Y107811D01*
X195446Y107745D01*
X195429Y107733D01*
X195421Y107723D01*
X195400Y107705D01*
X195105Y107409D01*
X192117Y106171D01*
X188883Y106171D01*
X185895Y107409D01*
X183609Y109695D01*
X182371Y112683D01*
X182371Y115917D01*
X183609Y118905D01*
X185895Y121191D01*
X188883Y122429D01*
X192117Y122429D01*
X195105Y121191D01*
X195400Y120895D01*
X195479Y120835D01*
X195551Y120767D01*
X195604Y120738D01*
X195652Y120701D01*
X195743Y120661D01*
X195829Y120613D01*
X195888Y120598D01*
X195943Y120574D01*
X196041Y120559D01*
X196137Y120534D01*
X196237Y120528D01*
X196258Y120524D01*
X196270Y120526D01*
X196298Y120524D01*
X242538Y120524D01*
X244825Y119576D01*
X297376Y67025D01*
X298324Y64738D01*
X298324Y37142D01*
X298327Y37113D01*
X298325Y37084D01*
X298347Y36955D01*
X298364Y36827D01*
X298374Y36799D01*
X298379Y36770D01*
X298433Y36652D01*
X298481Y36531D01*
X298498Y36507D01*
X298510Y36480D01*
X298591Y36379D01*
X298667Y36274D01*
X298690Y36255D01*
X298709Y36232D01*
X298812Y36154D01*
X298912Y36071D01*
X298939Y36058D01*
X298963Y36041D01*
X299107Y35970D01*
X299150Y35952D01*
X302652Y32450D01*
X304547Y27876D01*
X304547Y22924D01*
X302652Y18350D01*
X299150Y14848D01*
X294576Y12953D01*
X289624Y12953D01*
G37*
%LPD*%
%LPC*%
G36*
X201583Y283971D02*
X201583Y283971D01*
X198595Y285209D01*
X196309Y287495D01*
X195071Y290483D01*
X195071Y293717D01*
X196309Y296705D01*
X198595Y298991D01*
X201583Y300229D01*
X204817Y300229D01*
X207805Y298991D01*
X210005Y296790D01*
X210084Y296730D01*
X210156Y296662D01*
X210209Y296633D01*
X210257Y296596D01*
X210348Y296556D01*
X210434Y296508D01*
X210493Y296493D01*
X210548Y296469D01*
X210646Y296454D01*
X210742Y296429D01*
X210842Y296423D01*
X210863Y296419D01*
X210875Y296421D01*
X210903Y296419D01*
X391385Y296419D01*
X391484Y296431D01*
X391583Y296434D01*
X391641Y296451D01*
X391701Y296459D01*
X391793Y296495D01*
X391888Y296523D01*
X391940Y296553D01*
X391997Y296576D01*
X392077Y296634D01*
X392162Y296684D01*
X392237Y296750D01*
X392254Y296762D01*
X392262Y296772D01*
X392283Y296790D01*
X423300Y327807D01*
X423360Y327885D01*
X423428Y327958D01*
X423457Y328011D01*
X423494Y328058D01*
X423534Y328149D01*
X423582Y328236D01*
X423597Y328295D01*
X423621Y328350D01*
X423636Y328448D01*
X423661Y328544D01*
X423667Y328644D01*
X423671Y328664D01*
X423669Y328677D01*
X423671Y328705D01*
X423671Y331817D01*
X424909Y334805D01*
X427195Y337091D01*
X430183Y338329D01*
X433417Y338329D01*
X436405Y337091D01*
X438691Y334805D01*
X439929Y331817D01*
X439929Y328583D01*
X438691Y325595D01*
X436405Y323309D01*
X433417Y322071D01*
X430305Y322071D01*
X430206Y322059D01*
X430107Y322056D01*
X430049Y322039D01*
X429989Y322031D01*
X429897Y321995D01*
X429802Y321967D01*
X429750Y321937D01*
X429693Y321914D01*
X429613Y321856D01*
X429528Y321806D01*
X429453Y321740D01*
X429436Y321728D01*
X429428Y321718D01*
X429407Y321700D01*
X395489Y287781D01*
X210903Y287781D01*
X210805Y287769D01*
X210706Y287766D01*
X210647Y287749D01*
X210587Y287741D01*
X210495Y287705D01*
X210400Y287677D01*
X210348Y287647D01*
X210292Y287624D01*
X210212Y287566D01*
X210126Y287516D01*
X210051Y287450D01*
X210034Y287438D01*
X210026Y287428D01*
X210005Y287410D01*
X207805Y285209D01*
X204817Y283971D01*
X201583Y283971D01*
G37*
%LPD*%
%LPC*%
G36*
X12032Y231901D02*
X12032Y231901D01*
X9651Y234282D01*
X9651Y244935D01*
X9655Y244941D01*
X9663Y244980D01*
X9679Y245017D01*
X9698Y245135D01*
X9724Y245252D01*
X9723Y245292D01*
X9729Y245331D01*
X9718Y245450D01*
X9714Y245569D01*
X9703Y245608D01*
X9699Y245648D01*
X9659Y245760D01*
X9651Y245787D01*
X9651Y256462D01*
X12032Y258843D01*
X13721Y258843D01*
X13839Y258858D01*
X13957Y258865D01*
X13996Y258878D01*
X14036Y258883D01*
X14147Y258926D01*
X14260Y258963D01*
X14294Y258985D01*
X14332Y259000D01*
X14428Y259070D01*
X14529Y259133D01*
X14556Y259163D01*
X14589Y259186D01*
X14665Y259278D01*
X14747Y259365D01*
X14766Y259400D01*
X14792Y259431D01*
X14843Y259539D01*
X14900Y259643D01*
X14910Y259683D01*
X14927Y259719D01*
X14950Y259836D01*
X14980Y259951D01*
X14983Y260012D01*
X14987Y260032D01*
X14986Y260052D01*
X14990Y260112D01*
X14990Y265714D01*
X14975Y265832D01*
X14968Y265951D01*
X14955Y265989D01*
X14950Y266029D01*
X14906Y266140D01*
X14869Y266253D01*
X14848Y266288D01*
X14833Y266325D01*
X14763Y266421D01*
X14699Y266522D01*
X14670Y266550D01*
X14646Y266582D01*
X14554Y266658D01*
X14468Y266740D01*
X14432Y266759D01*
X14401Y266785D01*
X14293Y266836D01*
X14189Y266893D01*
X14150Y266904D01*
X14113Y266921D01*
X13997Y266943D01*
X13881Y266973D01*
X13821Y266977D01*
X13801Y266981D01*
X13781Y266979D01*
X13721Y266983D01*
X12032Y266983D01*
X9651Y269364D01*
X9651Y279850D01*
X10248Y280446D01*
X10321Y280540D01*
X10400Y280629D01*
X10418Y280666D01*
X10443Y280697D01*
X10490Y280807D01*
X10544Y280913D01*
X10553Y280952D01*
X10569Y280989D01*
X10588Y281107D01*
X10614Y281223D01*
X10613Y281263D01*
X10619Y281303D01*
X10608Y281422D01*
X10604Y281541D01*
X10593Y281580D01*
X10589Y281620D01*
X10549Y281732D01*
X10516Y281846D01*
X10495Y281881D01*
X10482Y281919D01*
X10415Y282018D01*
X10354Y282120D01*
X10314Y282166D01*
X10303Y282182D01*
X10288Y282196D01*
X10248Y282241D01*
X9651Y282838D01*
X9651Y289764D01*
X13825Y293938D01*
X13839Y293940D01*
X13957Y293947D01*
X13996Y293959D01*
X14036Y293965D01*
X14147Y294008D01*
X14260Y294045D01*
X14294Y294067D01*
X14332Y294082D01*
X14428Y294151D01*
X14529Y294215D01*
X14556Y294245D01*
X14589Y294268D01*
X14665Y294360D01*
X14747Y294447D01*
X14766Y294482D01*
X14792Y294513D01*
X14843Y294621D01*
X14900Y294725D01*
X14910Y294765D01*
X14927Y294801D01*
X14950Y294918D01*
X14980Y295033D01*
X14983Y295093D01*
X14987Y295113D01*
X14986Y295134D01*
X14990Y295194D01*
X14990Y300796D01*
X14975Y300914D01*
X14968Y301033D01*
X14955Y301071D01*
X14950Y301111D01*
X14906Y301222D01*
X14869Y301335D01*
X14848Y301369D01*
X14833Y301407D01*
X14763Y301503D01*
X14699Y301604D01*
X14670Y301632D01*
X14646Y301664D01*
X14554Y301740D01*
X14468Y301822D01*
X14432Y301841D01*
X14401Y301867D01*
X14293Y301918D01*
X14189Y301975D01*
X14150Y301986D01*
X14113Y302003D01*
X13997Y302025D01*
X13881Y302055D01*
X13821Y302059D01*
X13801Y302063D01*
X13781Y302061D01*
X13721Y302065D01*
X12032Y302065D01*
X9651Y304446D01*
X9651Y315099D01*
X9655Y315105D01*
X9663Y315144D01*
X9679Y315181D01*
X9698Y315299D01*
X9724Y315415D01*
X9723Y315456D01*
X9729Y315495D01*
X9718Y315614D01*
X9714Y315733D01*
X9703Y315772D01*
X9699Y315812D01*
X9659Y315924D01*
X9651Y315951D01*
X9651Y326626D01*
X12032Y329007D01*
X15400Y329007D01*
X17794Y326612D01*
X17796Y326599D01*
X17803Y326480D01*
X17816Y326441D01*
X17821Y326401D01*
X17864Y326291D01*
X17901Y326177D01*
X17923Y326143D01*
X17938Y326106D01*
X18007Y326009D01*
X18071Y325909D01*
X18101Y325881D01*
X18124Y325848D01*
X18216Y325772D01*
X18303Y325691D01*
X18338Y325671D01*
X18369Y325645D01*
X18477Y325595D01*
X18581Y325537D01*
X18621Y325527D01*
X18657Y325510D01*
X18774Y325488D01*
X18889Y325458D01*
X18949Y325454D01*
X18969Y325450D01*
X18990Y325451D01*
X19050Y325448D01*
X26077Y325448D01*
X27244Y324280D01*
X27245Y324280D01*
X28458Y323066D01*
X28458Y319699D01*
X26634Y317875D01*
X25705Y316947D01*
X25705Y316946D01*
X24679Y315920D01*
X24594Y315811D01*
X24505Y315703D01*
X24496Y315685D01*
X24484Y315669D01*
X24429Y315541D01*
X24370Y315416D01*
X24366Y315396D01*
X24358Y315377D01*
X24336Y315239D01*
X24310Y315103D01*
X24311Y315083D01*
X24308Y315063D01*
X24321Y314924D01*
X24330Y314786D01*
X24336Y314767D01*
X24338Y314746D01*
X24385Y314615D01*
X24428Y314483D01*
X24438Y314466D01*
X24445Y314447D01*
X24523Y314332D01*
X24598Y314215D01*
X24613Y314201D01*
X24624Y314184D01*
X24728Y314092D01*
X24829Y313997D01*
X24847Y313987D01*
X24862Y313974D01*
X24986Y313910D01*
X25108Y313843D01*
X25127Y313838D01*
X25146Y313829D01*
X25281Y313798D01*
X25416Y313764D01*
X25444Y313762D01*
X25456Y313759D01*
X25476Y313760D01*
X25576Y313754D01*
X26077Y313754D01*
X27245Y312586D01*
X28458Y311373D01*
X28458Y308005D01*
X26634Y306181D01*
X25706Y305253D01*
X25705Y305252D01*
X23491Y303038D01*
X23430Y302960D01*
X23362Y302888D01*
X23333Y302835D01*
X23296Y302787D01*
X23257Y302696D01*
X23209Y302610D01*
X23194Y302551D01*
X23170Y302495D01*
X23154Y302397D01*
X23130Y302302D01*
X23123Y302202D01*
X23120Y302181D01*
X23121Y302169D01*
X23119Y302141D01*
X23119Y295194D01*
X23134Y295076D01*
X23142Y294957D01*
X23154Y294919D01*
X23159Y294878D01*
X23203Y294768D01*
X23240Y294655D01*
X23261Y294620D01*
X23276Y294583D01*
X23346Y294486D01*
X23410Y294386D01*
X23439Y294358D01*
X23463Y294325D01*
X23555Y294249D01*
X23641Y294168D01*
X23677Y294148D01*
X23708Y294123D01*
X23816Y294072D01*
X23920Y294014D01*
X23959Y294004D01*
X23996Y293987D01*
X24112Y293965D01*
X24228Y293935D01*
X24288Y293931D01*
X24291Y293930D01*
X25705Y292517D01*
X28458Y289764D01*
X28458Y286731D01*
X28458Y286730D01*
X28458Y285872D01*
X28458Y285871D01*
X28458Y282838D01*
X26972Y281351D01*
X26898Y281257D01*
X26820Y281168D01*
X26801Y281132D01*
X26777Y281100D01*
X26729Y280991D01*
X26675Y280885D01*
X26666Y280845D01*
X26650Y280808D01*
X26632Y280690D01*
X26606Y280575D01*
X26607Y280534D01*
X26600Y280494D01*
X26612Y280375D01*
X26615Y280257D01*
X26626Y280218D01*
X26630Y280178D01*
X26671Y280065D01*
X26704Y279951D01*
X26724Y279916D01*
X26738Y279878D01*
X26805Y279780D01*
X26865Y279677D01*
X26905Y279632D01*
X26916Y279615D01*
X26932Y279602D01*
X26972Y279556D01*
X28458Y278070D01*
X28458Y275037D01*
X28458Y274178D01*
X28458Y274177D01*
X28458Y271144D01*
X25706Y268391D01*
X25705Y268391D01*
X24284Y266970D01*
X24270Y266968D01*
X24152Y266961D01*
X24113Y266948D01*
X24073Y266943D01*
X23962Y266899D01*
X23849Y266863D01*
X23815Y266841D01*
X23777Y266826D01*
X23681Y266756D01*
X23580Y266693D01*
X23553Y266663D01*
X23520Y266639D01*
X23444Y266548D01*
X23362Y266461D01*
X23343Y266426D01*
X23317Y266394D01*
X23266Y266287D01*
X23209Y266183D01*
X23199Y266143D01*
X23182Y266107D01*
X23159Y265990D01*
X23130Y265875D01*
X23126Y265814D01*
X23122Y265794D01*
X23123Y265774D01*
X23119Y265714D01*
X23119Y260112D01*
X23134Y259994D01*
X23142Y259875D01*
X23154Y259837D01*
X23159Y259796D01*
X23203Y259686D01*
X23240Y259572D01*
X23261Y259538D01*
X23276Y259501D01*
X23346Y259405D01*
X23410Y259304D01*
X23439Y259276D01*
X23463Y259243D01*
X23555Y259167D01*
X23641Y259086D01*
X23677Y259066D01*
X23708Y259041D01*
X23816Y258990D01*
X23920Y258932D01*
X23959Y258922D01*
X23996Y258905D01*
X24112Y258883D01*
X24228Y258853D01*
X24288Y258849D01*
X24292Y258848D01*
X25705Y257435D01*
X28458Y254682D01*
X28458Y251649D01*
X28458Y251196D01*
X28458Y250790D01*
X28458Y250789D01*
X28458Y247756D01*
X26082Y245380D01*
X26009Y245286D01*
X25930Y245196D01*
X25912Y245161D01*
X25887Y245128D01*
X25839Y245019D01*
X25785Y244913D01*
X25777Y244874D01*
X25761Y244837D01*
X25742Y244719D01*
X25716Y244603D01*
X25717Y244563D01*
X25711Y244523D01*
X25722Y244404D01*
X25725Y244285D01*
X25737Y244246D01*
X25740Y244206D01*
X25781Y244094D01*
X25814Y243980D01*
X25834Y243945D01*
X25848Y243907D01*
X25915Y243808D01*
X25975Y243706D01*
X26015Y243660D01*
X26027Y243644D01*
X26042Y243630D01*
X26082Y243585D01*
X27244Y242422D01*
X27245Y242422D01*
X28458Y241209D01*
X28458Y237841D01*
X26634Y236018D01*
X25706Y235089D01*
X25705Y235089D01*
X22518Y231901D01*
X19150Y231901D01*
X18173Y232879D01*
X18078Y232952D01*
X17989Y233031D01*
X17953Y233049D01*
X17921Y233074D01*
X17812Y233121D01*
X17706Y233175D01*
X17667Y233184D01*
X17629Y233200D01*
X17512Y233219D01*
X17396Y233245D01*
X17355Y233244D01*
X17315Y233250D01*
X17197Y233239D01*
X17078Y233235D01*
X17039Y233224D01*
X16999Y233220D01*
X16887Y233180D01*
X16772Y233147D01*
X16737Y233127D01*
X16699Y233113D01*
X16601Y233046D01*
X16498Y232986D01*
X16453Y232946D01*
X16436Y232934D01*
X16423Y232919D01*
X16378Y232879D01*
X15400Y231901D01*
X12032Y231901D01*
G37*
%LPD*%
%LPC*%
G36*
X340424Y375653D02*
X340424Y375653D01*
X335850Y377548D01*
X332348Y381050D01*
X330453Y385624D01*
X330453Y390576D01*
X332348Y395150D01*
X335850Y398652D01*
X340424Y400547D01*
X345376Y400547D01*
X349950Y398652D01*
X353452Y395150D01*
X355347Y390576D01*
X355347Y385624D01*
X353452Y381050D01*
X349950Y377548D01*
X345376Y375653D01*
X340424Y375653D01*
G37*
%LPD*%
%LPC*%
G36*
X340424Y310653D02*
X340424Y310653D01*
X335850Y312548D01*
X332348Y316050D01*
X330453Y320624D01*
X330453Y325576D01*
X332348Y330150D01*
X335850Y333652D01*
X340424Y335547D01*
X345376Y335547D01*
X349950Y333652D01*
X353452Y330150D01*
X355347Y325576D01*
X355347Y320624D01*
X353452Y316050D01*
X349950Y312548D01*
X345376Y310653D01*
X340424Y310653D01*
G37*
%LPD*%
%LPC*%
G36*
X49059Y133349D02*
X49059Y133349D01*
X49059Y154807D01*
X50568Y154637D01*
X53211Y154034D01*
X55769Y153139D01*
X58211Y151963D01*
X60506Y150521D01*
X62625Y148831D01*
X64541Y146915D01*
X66231Y144796D01*
X67673Y142501D01*
X68849Y140059D01*
X69744Y137501D01*
X70347Y134858D01*
X70517Y133349D01*
X49059Y133349D01*
G37*
%LPD*%
%LPC*%
G36*
X49059Y128271D02*
X49059Y128271D01*
X70517Y128271D01*
X70347Y126762D01*
X69744Y124119D01*
X68849Y121561D01*
X67673Y119119D01*
X66231Y116824D01*
X64541Y114705D01*
X62625Y112789D01*
X60506Y111099D01*
X58211Y109657D01*
X55769Y108481D01*
X53211Y107586D01*
X50568Y106983D01*
X49059Y106813D01*
X49059Y128271D01*
G37*
%LPD*%
%LPC*%
G36*
X52523Y86349D02*
X52523Y86349D01*
X52693Y87858D01*
X53296Y90501D01*
X54191Y93059D01*
X55367Y95501D01*
X56809Y97796D01*
X58499Y99915D01*
X60415Y101831D01*
X62534Y103521D01*
X64829Y104963D01*
X67271Y106139D01*
X69829Y107034D01*
X72472Y107637D01*
X73981Y107807D01*
X73981Y86349D01*
X52523Y86349D01*
G37*
%LPD*%
%LPC*%
G36*
X72472Y59983D02*
X72472Y59983D01*
X69829Y60586D01*
X67271Y61481D01*
X64829Y62657D01*
X62534Y64099D01*
X60415Y65789D01*
X58499Y67705D01*
X56809Y69824D01*
X55367Y72119D01*
X54191Y74561D01*
X53296Y77119D01*
X52693Y79762D01*
X52523Y81271D01*
X73981Y81271D01*
X73981Y59813D01*
X72472Y59983D01*
G37*
%LPD*%
%LPC*%
G36*
X80551Y294751D02*
X80551Y294751D01*
X76858Y296281D01*
X74031Y299108D01*
X72501Y302801D01*
X72501Y306799D01*
X74031Y310492D01*
X76858Y313319D01*
X80551Y314849D01*
X84549Y314849D01*
X88242Y313319D01*
X91069Y310492D01*
X92599Y306799D01*
X92599Y302801D01*
X91069Y299108D01*
X88242Y296281D01*
X84549Y294751D01*
X80551Y294751D01*
G37*
%LPD*%
%LPC*%
G36*
X80551Y193151D02*
X80551Y193151D01*
X76858Y194681D01*
X74031Y197508D01*
X72501Y201201D01*
X72501Y205199D01*
X74031Y208892D01*
X76858Y211719D01*
X80551Y213249D01*
X84549Y213249D01*
X88242Y211719D01*
X91069Y208892D01*
X92599Y205199D01*
X92599Y201201D01*
X91069Y197508D01*
X88242Y194681D01*
X84549Y193151D01*
X80551Y193151D01*
G37*
%LPD*%
%LPC*%
G36*
X115098Y10231D02*
X115098Y10231D01*
X112324Y11380D01*
X110200Y13504D01*
X109051Y16278D01*
X109051Y19282D01*
X110200Y22056D01*
X112324Y24180D01*
X115098Y25329D01*
X118102Y25329D01*
X120876Y24180D01*
X123000Y22056D01*
X124149Y19282D01*
X124149Y16278D01*
X123000Y13504D01*
X120876Y11380D01*
X118102Y10231D01*
X115098Y10231D01*
G37*
%LPD*%
%LPC*%
G36*
X85098Y10231D02*
X85098Y10231D01*
X82324Y11380D01*
X80200Y13504D01*
X79051Y16278D01*
X79051Y19282D01*
X80200Y22056D01*
X82324Y24180D01*
X85098Y25329D01*
X88102Y25329D01*
X90876Y24180D01*
X93000Y22056D01*
X94149Y19282D01*
X94149Y16278D01*
X93000Y13504D01*
X90876Y11380D01*
X88102Y10231D01*
X85098Y10231D01*
G37*
%LPD*%
%LPC*%
G36*
X497839Y242061D02*
X497839Y242061D01*
X497839Y251461D01*
X507239Y251461D01*
X507239Y249055D01*
X500245Y242061D01*
X497839Y242061D01*
G37*
%LPD*%
%LPC*%
G36*
X243839Y27939D02*
X243839Y27939D01*
X243839Y37085D01*
X244096Y37045D01*
X245883Y36464D01*
X247557Y35611D01*
X249078Y34506D01*
X250406Y33178D01*
X251511Y31657D01*
X252364Y29983D01*
X252793Y28663D01*
X252827Y28591D01*
X252851Y28515D01*
X252894Y28448D01*
X252928Y28375D01*
X252979Y28314D01*
X253022Y28247D01*
X253080Y28192D01*
X253131Y28130D01*
X253195Y28083D01*
X253253Y28029D01*
X253323Y27990D01*
X253388Y27943D01*
X253398Y27939D01*
X243839Y27939D01*
G37*
%LPD*%
%LPC*%
G36*
X263904Y13755D02*
X263904Y13755D01*
X262117Y14336D01*
X260443Y15189D01*
X258922Y16294D01*
X257594Y17622D01*
X256489Y19143D01*
X255636Y20817D01*
X255207Y22137D01*
X255173Y22209D01*
X255149Y22285D01*
X255106Y22352D01*
X255072Y22425D01*
X255021Y22486D01*
X254978Y22553D01*
X254920Y22608D01*
X254869Y22670D01*
X254805Y22717D01*
X254747Y22771D01*
X254676Y22810D01*
X254612Y22857D01*
X254602Y22861D01*
X264161Y22861D01*
X264161Y13715D01*
X263904Y13755D01*
G37*
%LPD*%
%LPC*%
G36*
X254602Y27939D02*
X254602Y27939D01*
X254611Y27943D01*
X254675Y27989D01*
X254745Y28028D01*
X254803Y28082D01*
X254868Y28129D01*
X254919Y28191D01*
X254977Y28245D01*
X255020Y28313D01*
X255071Y28374D01*
X255105Y28446D01*
X255148Y28513D01*
X255206Y28660D01*
X255207Y28662D01*
X255207Y28663D01*
X255636Y29983D01*
X256489Y31657D01*
X257594Y33178D01*
X258922Y34506D01*
X260443Y35611D01*
X262117Y36464D01*
X263904Y37045D01*
X264161Y37085D01*
X264161Y27939D01*
X254602Y27939D01*
G37*
%LPD*%
%LPC*%
G36*
X243839Y22861D02*
X243839Y22861D01*
X253398Y22861D01*
X253389Y22857D01*
X253325Y22811D01*
X253255Y22772D01*
X253197Y22718D01*
X253132Y22671D01*
X253081Y22609D01*
X253023Y22555D01*
X252980Y22487D01*
X252929Y22426D01*
X252895Y22354D01*
X252852Y22287D01*
X252794Y22140D01*
X252793Y22138D01*
X252793Y22137D01*
X252364Y20817D01*
X251511Y19143D01*
X250406Y17622D01*
X249078Y16294D01*
X247557Y15189D01*
X245883Y14336D01*
X244096Y13755D01*
X243839Y13715D01*
X243839Y22861D01*
G37*
%LPD*%
%LPC*%
G36*
X142239Y365761D02*
X142239Y365761D01*
X151385Y365761D01*
X151345Y365504D01*
X150764Y363717D01*
X149911Y362043D01*
X148806Y360522D01*
X147478Y359194D01*
X145957Y358089D01*
X144283Y357236D01*
X142496Y356655D01*
X142239Y356615D01*
X142239Y365761D01*
G37*
%LPD*%
%LPC*%
G36*
X15239Y111761D02*
X15239Y111761D01*
X24385Y111761D01*
X24345Y111504D01*
X23764Y109717D01*
X22911Y108043D01*
X21806Y106522D01*
X20478Y105194D01*
X18957Y104089D01*
X17283Y103236D01*
X15496Y102655D01*
X15239Y102615D01*
X15239Y111761D01*
G37*
%LPD*%
%LPC*%
G36*
X136904Y356655D02*
X136904Y356655D01*
X135117Y357236D01*
X133443Y358089D01*
X131922Y359194D01*
X130594Y360522D01*
X129489Y362043D01*
X128636Y363717D01*
X128055Y365504D01*
X128015Y365761D01*
X137161Y365761D01*
X137161Y356615D01*
X136904Y356655D01*
G37*
%LPD*%
D10*
X20834Y235966D02*
X24393Y239525D01*
X13716Y239525D01*
X13716Y235966D02*
X13716Y243084D01*
X13716Y247660D02*
X13716Y254778D01*
X13716Y247660D02*
X20834Y254778D01*
X22614Y254778D01*
X24393Y252999D01*
X24393Y249439D01*
X22614Y247660D01*
X19055Y259354D02*
X19055Y266472D01*
X13716Y271048D02*
X13716Y278166D01*
X13716Y271048D02*
X20834Y278166D01*
X22614Y278166D01*
X24393Y276386D01*
X24393Y272827D01*
X22614Y271048D01*
X22614Y282742D02*
X15496Y282742D01*
X22614Y282742D02*
X24393Y284521D01*
X24393Y288080D01*
X22614Y289860D01*
X15496Y289860D01*
X13716Y288080D01*
X13716Y284521D01*
X15496Y282742D01*
X22614Y289860D01*
X19055Y294436D02*
X19055Y301554D01*
X20834Y306130D02*
X24393Y309689D01*
X13716Y309689D01*
X13716Y306130D02*
X13716Y313248D01*
X20834Y317824D02*
X24393Y321383D01*
X13716Y321383D01*
X13716Y317824D02*
X13716Y324942D01*
D11*
X106520Y130810D03*
X46520Y130810D03*
X76520Y83810D03*
D12*
X469900Y304800D03*
X495300Y304800D03*
X469900Y279400D03*
X495300Y279400D03*
X469900Y254000D03*
X495300Y254000D03*
D13*
X165100Y25400D03*
X190500Y25400D03*
X215900Y25400D03*
X241300Y25400D03*
X266700Y25400D03*
X292100Y25400D03*
D14*
X469900Y508000D03*
D13*
X444500Y508000D03*
X419100Y508000D03*
X393700Y508000D03*
X368300Y508000D03*
X342900Y508000D03*
X317500Y508000D03*
X292100Y508000D03*
D14*
X250190Y508000D03*
D13*
X224790Y508000D03*
X199390Y508000D03*
X173990Y508000D03*
X148590Y508000D03*
X123190Y508000D03*
X97790Y508000D03*
X72390Y508000D03*
X342900Y25400D03*
X368300Y25400D03*
X393700Y25400D03*
X419100Y25400D03*
X444500Y25400D03*
X469900Y25400D03*
X139700Y368300D03*
X139700Y393700D03*
X12700Y114300D03*
X12700Y139700D03*
X342900Y323100D03*
X342900Y388100D03*
D15*
X298450Y228600D03*
X222250Y228600D03*
X448310Y165100D03*
D16*
X377190Y149860D02*
X205740Y149860D01*
X177800Y177800D01*
X177800Y406400D01*
X76200Y508000D02*
X72390Y508000D01*
X76200Y508000D02*
X177800Y406400D01*
D15*
X377190Y149860D03*
D16*
X393700Y114300D02*
X317500Y38100D01*
X393700Y114300D02*
X393700Y168910D01*
X317500Y38100D02*
X317500Y25400D01*
X165100Y25400D02*
X127000Y63500D01*
X127000Y101600D01*
X139700Y114300D01*
X139700Y330200D01*
X152400Y342900D01*
D15*
X393700Y168910D03*
X317500Y25400D03*
X152400Y342900D03*
D16*
X363220Y172720D02*
X363220Y165100D01*
X363220Y172720D02*
X469900Y279400D01*
D15*
X363220Y165100D03*
D17*
X106520Y130810D02*
X106520Y68420D01*
D18*
X106520Y63340D01*
X93980Y50800D01*
D15*
X93980Y50800D03*
D16*
X355600Y190500D02*
X469900Y304800D01*
X355600Y190500D02*
X355600Y177800D01*
D15*
X355600Y177800D03*
D16*
X482600Y292100D02*
X495300Y279400D01*
X482600Y292100D02*
X482600Y311150D01*
X476250Y317500D01*
X463550Y317500D01*
X346710Y200660D01*
X346710Y189230D01*
D15*
X346710Y189230D03*
D16*
X380746Y171196D02*
X387096Y177546D01*
X380746Y171196D02*
X380746Y165100D01*
X387096Y177546D02*
X495554Y177546D01*
X508000Y165100D01*
D15*
X380746Y165100D03*
X508000Y165100D03*
D17*
X292100Y63500D02*
X292100Y25400D01*
X292100Y63500D02*
X241300Y114300D01*
X190500Y114300D01*
D15*
X190500Y114300D03*
D17*
X165100Y381000D02*
X152400Y393700D01*
X139700Y393700D01*
X165100Y381000D02*
X165100Y114300D01*
X139700Y88900D01*
D15*
X139700Y88900D03*
D16*
X203200Y266700D02*
X393700Y266700D01*
X433070Y306070D01*
D15*
X203200Y266700D03*
X433070Y306070D03*
D16*
X393700Y292100D02*
X203200Y292100D01*
X393700Y292100D02*
X431800Y330200D01*
D15*
X203200Y292100D03*
X431800Y330200D03*
M02*
