G04 EAGLE Gerber RS-274X export*
G75*
%MOMM*%
%FSLAX34Y34*%
%LPD*%
%INSilkscreen Top*%
%IPPOS*%
%AMOC8*
5,1,8,0,0,1.08239X$1,22.5*%
G01*
%ADD10C,0.152400*%
%ADD11C,0.177800*%
%ADD12C,0.127000*%
%ADD13C,0.228600*%
%ADD14C,0.203200*%
%ADD15R,1.270000X1.270000*%
%ADD16C,0.406400*%
%ADD17C,0.025400*%
%ADD18R,0.406400X0.711200*%
%ADD19C,0.101600*%
%ADD20R,0.495300X0.485100*%
%ADD21R,0.711200X0.406400*%
%ADD22C,0.050800*%

G36*
X275633Y162186D02*
X275633Y162186D01*
X275741Y162196D01*
X275754Y162202D01*
X275768Y162204D01*
X275865Y162252D01*
X275964Y162297D01*
X275977Y162308D01*
X275986Y162312D01*
X276001Y162328D01*
X276078Y162390D01*
X282110Y168422D01*
X282160Y168493D01*
X282165Y168498D01*
X282167Y168501D01*
X282173Y168510D01*
X282239Y168596D01*
X282244Y168609D01*
X282252Y168621D01*
X282283Y168724D01*
X282319Y168827D01*
X282319Y168841D01*
X282323Y168854D01*
X282319Y168962D01*
X282320Y169071D01*
X282315Y169084D01*
X282315Y169098D01*
X282277Y169200D01*
X282242Y169302D01*
X282233Y169317D01*
X282229Y169326D01*
X282215Y169343D01*
X282161Y169425D01*
X275307Y177831D01*
X276345Y179717D01*
X276353Y179739D01*
X276381Y179791D01*
X277398Y182247D01*
X277404Y182270D01*
X277426Y182325D01*
X278025Y184393D01*
X288815Y185490D01*
X288919Y185518D01*
X289025Y185543D01*
X289037Y185550D01*
X289050Y185553D01*
X289140Y185614D01*
X289233Y185671D01*
X289241Y185682D01*
X289253Y185690D01*
X289319Y185776D01*
X289388Y185860D01*
X289392Y185873D01*
X289401Y185884D01*
X289435Y185987D01*
X289474Y186088D01*
X289475Y186106D01*
X289479Y186115D01*
X289479Y186137D01*
X289488Y186235D01*
X289488Y194765D01*
X289471Y194872D01*
X289457Y194980D01*
X289451Y194992D01*
X289449Y195006D01*
X289397Y195102D01*
X289350Y195199D01*
X289340Y195209D01*
X289334Y195221D01*
X289254Y195295D01*
X289178Y195372D01*
X289166Y195378D01*
X289156Y195388D01*
X289057Y195433D01*
X288960Y195481D01*
X288942Y195485D01*
X288933Y195489D01*
X288912Y195491D01*
X288815Y195510D01*
X278025Y196607D01*
X277426Y198675D01*
X277415Y198696D01*
X277398Y198753D01*
X276605Y200669D01*
X276381Y201209D01*
X276368Y201229D01*
X276345Y201283D01*
X275307Y203169D01*
X282161Y211575D01*
X282215Y211669D01*
X282272Y211761D01*
X282275Y211774D01*
X282282Y211786D01*
X282303Y211893D01*
X282328Y211998D01*
X282326Y212012D01*
X282329Y212026D01*
X282314Y212133D01*
X282304Y212241D01*
X282298Y212254D01*
X282296Y212268D01*
X282248Y212365D01*
X282203Y212464D01*
X282192Y212477D01*
X282188Y212486D01*
X282172Y212501D01*
X282110Y212578D01*
X276078Y218610D01*
X275990Y218673D01*
X275904Y218739D01*
X275891Y218744D01*
X275879Y218752D01*
X275776Y218783D01*
X275673Y218819D01*
X275659Y218819D01*
X275646Y218823D01*
X275538Y218819D01*
X275429Y218820D01*
X275416Y218815D01*
X275402Y218815D01*
X275300Y218777D01*
X275198Y218742D01*
X275183Y218733D01*
X275174Y218729D01*
X275157Y218715D01*
X275075Y218661D01*
X266669Y211807D01*
X264783Y212845D01*
X264761Y212853D01*
X264709Y212881D01*
X262253Y213898D01*
X262230Y213904D01*
X262175Y213926D01*
X260107Y214525D01*
X259010Y225315D01*
X258982Y225419D01*
X258957Y225525D01*
X258950Y225537D01*
X258947Y225550D01*
X258886Y225640D01*
X258829Y225733D01*
X258818Y225741D01*
X258810Y225753D01*
X258724Y225819D01*
X258640Y225888D01*
X258627Y225892D01*
X258616Y225901D01*
X258513Y225935D01*
X258412Y225974D01*
X258394Y225975D01*
X258385Y225979D01*
X258363Y225979D01*
X258265Y225988D01*
X249735Y225988D01*
X249628Y225971D01*
X249520Y225957D01*
X249508Y225951D01*
X249494Y225949D01*
X249398Y225897D01*
X249301Y225850D01*
X249291Y225840D01*
X249279Y225834D01*
X249205Y225754D01*
X249128Y225678D01*
X249122Y225666D01*
X249112Y225656D01*
X249067Y225557D01*
X249019Y225460D01*
X249015Y225442D01*
X249011Y225433D01*
X249009Y225412D01*
X248990Y225315D01*
X247893Y214525D01*
X245825Y213926D01*
X245804Y213915D01*
X245747Y213898D01*
X243291Y212881D01*
X243271Y212868D01*
X243217Y212845D01*
X241331Y211807D01*
X232925Y218661D01*
X232831Y218715D01*
X232739Y218772D01*
X232726Y218775D01*
X232714Y218782D01*
X232607Y218803D01*
X232502Y218828D01*
X232488Y218826D01*
X232474Y218829D01*
X232367Y218814D01*
X232259Y218804D01*
X232246Y218798D01*
X232233Y218796D01*
X232135Y218748D01*
X232036Y218703D01*
X232023Y218692D01*
X232014Y218688D01*
X231999Y218672D01*
X231922Y218610D01*
X225890Y212578D01*
X225827Y212490D01*
X225761Y212404D01*
X225756Y212391D01*
X225748Y212379D01*
X225717Y212276D01*
X225681Y212173D01*
X225681Y212159D01*
X225677Y212146D01*
X225681Y212038D01*
X225680Y211929D01*
X225685Y211916D01*
X225685Y211902D01*
X225723Y211800D01*
X225758Y211698D01*
X225767Y211683D01*
X225771Y211674D01*
X225785Y211657D01*
X225839Y211575D01*
X232693Y203169D01*
X231655Y201283D01*
X231647Y201261D01*
X231619Y201209D01*
X230602Y198753D01*
X230596Y198730D01*
X230574Y198675D01*
X229975Y196607D01*
X219185Y195510D01*
X219081Y195482D01*
X218975Y195457D01*
X218963Y195450D01*
X218950Y195447D01*
X218860Y195386D01*
X218767Y195329D01*
X218759Y195318D01*
X218747Y195310D01*
X218681Y195224D01*
X218613Y195140D01*
X218608Y195127D01*
X218599Y195116D01*
X218565Y195013D01*
X218526Y194912D01*
X218525Y194894D01*
X218521Y194885D01*
X218522Y194863D01*
X218512Y194765D01*
X218512Y186235D01*
X218529Y186128D01*
X218543Y186020D01*
X218549Y186008D01*
X218551Y185994D01*
X218603Y185898D01*
X218650Y185801D01*
X218660Y185791D01*
X218666Y185779D01*
X218746Y185705D01*
X218822Y185628D01*
X218834Y185622D01*
X218845Y185612D01*
X218943Y185567D01*
X219040Y185519D01*
X219058Y185515D01*
X219067Y185511D01*
X219088Y185509D01*
X219185Y185490D01*
X229975Y184393D01*
X230574Y182325D01*
X230585Y182304D01*
X230602Y182247D01*
X230657Y182114D01*
X231588Y179867D01*
X231588Y179866D01*
X231619Y179791D01*
X231632Y179771D01*
X231655Y179717D01*
X232693Y177831D01*
X225839Y169425D01*
X225785Y169331D01*
X225728Y169239D01*
X225725Y169226D01*
X225718Y169214D01*
X225697Y169107D01*
X225672Y169002D01*
X225674Y168988D01*
X225671Y168974D01*
X225686Y168867D01*
X225696Y168759D01*
X225702Y168746D01*
X225704Y168733D01*
X225752Y168635D01*
X225797Y168536D01*
X225808Y168523D01*
X225812Y168514D01*
X225828Y168499D01*
X225890Y168422D01*
X231922Y162390D01*
X232010Y162327D01*
X232096Y162261D01*
X232109Y162256D01*
X232121Y162248D01*
X232224Y162217D01*
X232327Y162181D01*
X232341Y162181D01*
X232354Y162177D01*
X232462Y162181D01*
X232571Y162180D01*
X232584Y162185D01*
X232598Y162185D01*
X232700Y162223D01*
X232802Y162258D01*
X232817Y162267D01*
X232826Y162271D01*
X232843Y162285D01*
X232925Y162339D01*
X241325Y169188D01*
X242612Y168456D01*
X242631Y168449D01*
X242667Y168428D01*
X244476Y167589D01*
X244514Y167579D01*
X244550Y167560D01*
X244631Y167546D01*
X244711Y167524D01*
X244751Y167526D01*
X244790Y167520D01*
X244872Y167533D01*
X244955Y167538D01*
X244992Y167553D01*
X245031Y167559D01*
X245104Y167598D01*
X245181Y167629D01*
X245211Y167655D01*
X245247Y167674D01*
X245303Y167734D01*
X245366Y167788D01*
X245386Y167823D01*
X245414Y167852D01*
X245483Y167982D01*
X250506Y180108D01*
X250532Y180220D01*
X250561Y180332D01*
X250560Y180339D01*
X250562Y180346D01*
X250550Y180460D01*
X250541Y180575D01*
X250539Y180581D01*
X250538Y180589D01*
X250490Y180693D01*
X250445Y180799D01*
X250440Y180804D01*
X250437Y180811D01*
X250359Y180895D01*
X250282Y180980D01*
X250274Y180985D01*
X250270Y180989D01*
X250257Y180996D01*
X250158Y181061D01*
X248580Y181876D01*
X247212Y182905D01*
X246036Y184149D01*
X245085Y185573D01*
X244385Y187136D01*
X243958Y188794D01*
X243814Y190496D01*
X243994Y192402D01*
X244525Y194237D01*
X245389Y195940D01*
X246556Y197452D01*
X247985Y198719D01*
X249625Y199698D01*
X251420Y200353D01*
X253305Y200661D01*
X255214Y200613D01*
X257081Y200208D01*
X258839Y199462D01*
X260427Y198401D01*
X261790Y197062D01*
X262878Y195492D01*
X263654Y193747D01*
X264090Y191887D01*
X264172Y189979D01*
X263896Y188089D01*
X263271Y186284D01*
X262321Y184627D01*
X261078Y183176D01*
X259586Y181984D01*
X257836Y181057D01*
X257747Y180990D01*
X257657Y180925D01*
X257650Y180916D01*
X257641Y180910D01*
X257579Y180817D01*
X257514Y180727D01*
X257511Y180716D01*
X257505Y180707D01*
X257476Y180600D01*
X257443Y180494D01*
X257444Y180483D01*
X257441Y180472D01*
X257447Y180360D01*
X257451Y180250D01*
X257455Y180236D01*
X257456Y180228D01*
X257463Y180210D01*
X257494Y180108D01*
X257904Y179117D01*
X258835Y176870D01*
X258835Y176869D01*
X259766Y174622D01*
X259767Y174622D01*
X260698Y172374D01*
X261629Y170126D01*
X262517Y167982D01*
X262538Y167948D01*
X262551Y167911D01*
X262602Y167845D01*
X262646Y167775D01*
X262677Y167750D01*
X262701Y167718D01*
X262770Y167673D01*
X262834Y167620D01*
X262872Y167606D01*
X262905Y167584D01*
X262985Y167563D01*
X263063Y167534D01*
X263103Y167533D01*
X263141Y167523D01*
X263224Y167529D01*
X263306Y167526D01*
X263345Y167538D01*
X263385Y167541D01*
X263524Y167589D01*
X265333Y168428D01*
X265349Y168439D01*
X265388Y168456D01*
X266675Y169188D01*
X275075Y162339D01*
X275169Y162285D01*
X275261Y162228D01*
X275274Y162225D01*
X275286Y162218D01*
X275393Y162197D01*
X275498Y162172D01*
X275512Y162174D01*
X275526Y162171D01*
X275633Y162186D01*
G37*
G36*
X321040Y263680D02*
X321040Y263680D01*
X321044Y263678D01*
X321114Y263714D01*
X321124Y263719D01*
X321125Y263720D01*
X325997Y269202D01*
X326851Y269984D01*
X327841Y270573D01*
X328192Y270700D01*
X328560Y270765D01*
X330835Y270765D01*
X330840Y270767D01*
X330846Y270765D01*
X332210Y270889D01*
X332220Y270895D01*
X332232Y270893D01*
X333551Y271261D01*
X333559Y271269D01*
X333572Y271270D01*
X334802Y271870D01*
X334809Y271877D01*
X334820Y271880D01*
X335977Y272697D01*
X335982Y272705D01*
X335991Y272708D01*
X337022Y273680D01*
X337025Y273688D01*
X337031Y273690D01*
X337031Y273692D01*
X337034Y273693D01*
X337919Y274800D01*
X337921Y274810D01*
X337930Y274817D01*
X338877Y276498D01*
X338878Y276509D01*
X338886Y276519D01*
X339514Y278343D01*
X339513Y278354D01*
X339520Y278365D01*
X339808Y280272D01*
X339805Y280283D01*
X339810Y280295D01*
X339808Y280347D01*
X339800Y280599D01*
X339796Y280725D01*
X339796Y280726D01*
X339788Y280978D01*
X339780Y281231D01*
X339776Y281357D01*
X339768Y281609D01*
X339757Y281988D01*
X339749Y282223D01*
X339745Y282232D01*
X339747Y282244D01*
X339540Y283283D01*
X339535Y283291D01*
X339535Y283302D01*
X339177Y284299D01*
X339171Y284306D01*
X339170Y284317D01*
X338668Y285251D01*
X338659Y285258D01*
X338656Y285270D01*
X337749Y286407D01*
X337738Y286413D01*
X337731Y286426D01*
X336605Y287347D01*
X336562Y287359D01*
X336521Y287375D01*
X336516Y287373D01*
X336510Y287374D01*
X336472Y287353D01*
X336432Y287334D01*
X336429Y287328D01*
X336425Y287326D01*
X336417Y287297D01*
X336399Y287249D01*
X336399Y286369D01*
X336383Y286249D01*
X336339Y286146D01*
X336065Y285807D01*
X335704Y285558D01*
X335530Y285493D01*
X334992Y285435D01*
X334462Y285533D01*
X333974Y285782D01*
X333072Y286433D01*
X332660Y286787D01*
X332309Y287197D01*
X332026Y287655D01*
X331820Y288149D01*
X331761Y288449D01*
X331773Y288752D01*
X331930Y289271D01*
X332216Y289731D01*
X332611Y290101D01*
X333092Y290356D01*
X333582Y290495D01*
X334093Y290552D01*
X334696Y290552D01*
X334697Y290552D01*
X334719Y290561D01*
X334787Y290590D01*
X334822Y290682D01*
X334818Y290691D01*
X334784Y290767D01*
X334782Y290770D01*
X334781Y290771D01*
X334780Y290772D01*
X334759Y290792D01*
X334752Y290795D01*
X334748Y290803D01*
X334313Y291141D01*
X334298Y291145D01*
X334286Y291157D01*
X333782Y291378D01*
X333781Y291378D01*
X333425Y291530D01*
X333197Y291631D01*
X333187Y291632D01*
X333177Y291638D01*
X332299Y291858D01*
X332290Y291857D01*
X332280Y291861D01*
X331380Y291947D01*
X331370Y291943D01*
X331358Y291947D01*
X330490Y291881D01*
X330479Y291875D01*
X330466Y291876D01*
X329626Y291645D01*
X329616Y291637D01*
X329603Y291636D01*
X328823Y291248D01*
X328816Y291240D01*
X328805Y291237D01*
X328028Y290677D01*
X328024Y290670D01*
X328015Y290666D01*
X327319Y290008D01*
X327314Y289997D01*
X327303Y289989D01*
X326872Y289386D01*
X326869Y289371D01*
X326857Y289358D01*
X326590Y288666D01*
X326590Y288650D01*
X326582Y288635D01*
X326495Y287898D01*
X326500Y287883D01*
X326496Y287866D01*
X326595Y287131D01*
X326603Y287118D01*
X326603Y287101D01*
X326883Y286413D01*
X326892Y286404D01*
X326895Y286390D01*
X328082Y284632D01*
X328090Y284627D01*
X328094Y284616D01*
X329547Y283075D01*
X329917Y282640D01*
X330157Y282137D01*
X330259Y281589D01*
X330216Y281033D01*
X330030Y280508D01*
X329715Y280048D01*
X329290Y279683D01*
X328747Y279390D01*
X328161Y279192D01*
X327551Y279095D01*
X326840Y279130D01*
X326162Y279337D01*
X325556Y279702D01*
X325243Y280030D01*
X325037Y280434D01*
X324944Y280850D01*
X324944Y281278D01*
X325037Y281693D01*
X325109Y281831D01*
X325227Y281945D01*
X326051Y282544D01*
X326184Y282615D01*
X326322Y282643D01*
X326480Y282627D01*
X326523Y282641D01*
X326568Y282652D01*
X326570Y282656D01*
X326574Y282657D01*
X326594Y282698D01*
X326617Y282737D01*
X326616Y282741D01*
X326618Y282745D01*
X326603Y282788D01*
X326590Y282832D01*
X326587Y282834D01*
X326586Y282838D01*
X326548Y282857D01*
X326512Y282878D01*
X326029Y282954D01*
X326024Y282953D01*
X326019Y282955D01*
X325079Y283028D01*
X325070Y283025D01*
X325059Y283028D01*
X324119Y282955D01*
X324109Y282950D01*
X324097Y282951D01*
X323398Y282767D01*
X323388Y282759D01*
X323374Y282758D01*
X322726Y282437D01*
X322718Y282428D01*
X322704Y282424D01*
X322134Y281979D01*
X322128Y281968D01*
X322116Y281962D01*
X321646Y281412D01*
X321642Y281400D01*
X321631Y281391D01*
X321230Y280659D01*
X321229Y280646D01*
X321220Y280635D01*
X320980Y279836D01*
X320981Y279823D01*
X320975Y279810D01*
X320905Y278979D01*
X320907Y278973D01*
X320905Y278968D01*
X320905Y263804D01*
X320907Y263799D01*
X320905Y263795D01*
X320926Y263755D01*
X320943Y263713D01*
X320948Y263712D01*
X320950Y263707D01*
X320993Y263694D01*
X321035Y263678D01*
X321040Y263680D01*
G37*
G36*
X269627Y235003D02*
X269627Y235003D01*
X269630Y235002D01*
X269672Y235023D01*
X269714Y235043D01*
X269715Y235045D01*
X269717Y235046D01*
X269724Y235068D01*
X269747Y235128D01*
X269747Y246232D01*
X269748Y246230D01*
X270268Y245514D01*
X270279Y245507D01*
X270286Y245494D01*
X270946Y244904D01*
X270958Y244900D01*
X270968Y244889D01*
X271737Y244452D01*
X271750Y244450D01*
X271762Y244441D01*
X272606Y244177D01*
X272617Y244178D01*
X272628Y244172D01*
X273845Y244017D01*
X273854Y244019D01*
X273863Y244016D01*
X275090Y244033D01*
X275098Y244036D01*
X275108Y244034D01*
X276320Y244223D01*
X276329Y244228D01*
X276340Y244228D01*
X277259Y244522D01*
X277267Y244529D01*
X277279Y244531D01*
X278135Y244977D01*
X278141Y244985D01*
X278153Y244988D01*
X278921Y245573D01*
X278926Y245582D01*
X278937Y245587D01*
X279594Y246294D01*
X279598Y246304D01*
X279608Y246311D01*
X280380Y247496D01*
X280382Y247506D01*
X280390Y247515D01*
X280946Y248815D01*
X280946Y248826D01*
X280953Y248836D01*
X281276Y250212D01*
X281274Y250223D01*
X281279Y250234D01*
X281397Y252449D01*
X281393Y252460D01*
X281396Y252472D01*
X281113Y254672D01*
X281108Y254682D01*
X281108Y254694D01*
X280434Y256807D01*
X280426Y256817D01*
X280424Y256830D01*
X279845Y257871D01*
X279834Y257879D01*
X279829Y257893D01*
X279037Y258783D01*
X279028Y258788D01*
X279021Y258798D01*
X278197Y259451D01*
X278189Y259453D01*
X278183Y259460D01*
X277281Y260001D01*
X277271Y260003D01*
X277262Y260011D01*
X276238Y260411D01*
X276225Y260411D01*
X276213Y260418D01*
X275128Y260601D01*
X275117Y260599D01*
X275105Y260603D01*
X273124Y260578D01*
X273113Y260573D01*
X273100Y260576D01*
X272618Y260474D01*
X272609Y260467D01*
X272597Y260467D01*
X271276Y259934D01*
X271269Y259927D01*
X271259Y259926D01*
X270865Y259693D01*
X270858Y259684D01*
X270846Y259679D01*
X270503Y259378D01*
X270500Y259372D01*
X270493Y259369D01*
X269604Y258404D01*
X269604Y258403D01*
X269603Y258402D01*
X269469Y258253D01*
X269493Y260170D01*
X269487Y260185D01*
X269490Y260199D01*
X269470Y260228D01*
X269456Y260262D01*
X269442Y260267D01*
X269433Y260280D01*
X269392Y260287D01*
X269365Y260298D01*
X269355Y260294D01*
X269344Y260296D01*
X265458Y259560D01*
X265424Y259538D01*
X265388Y259521D01*
X265384Y259511D01*
X265376Y259505D01*
X265370Y259476D01*
X265355Y259436D01*
X265355Y238862D01*
X265357Y238856D01*
X265355Y238849D01*
X265384Y238792D01*
X265393Y238771D01*
X265395Y238770D01*
X265396Y238768D01*
X269536Y235034D01*
X269581Y235019D01*
X269625Y235002D01*
X269627Y235003D01*
G37*
G36*
X429135Y244350D02*
X429135Y244350D01*
X429137Y244349D01*
X429180Y244369D01*
X429224Y244387D01*
X429224Y244389D01*
X429226Y244390D01*
X429259Y244475D01*
X429259Y253996D01*
X429334Y255099D01*
X429483Y255738D01*
X429756Y256333D01*
X430141Y256861D01*
X430459Y257147D01*
X430832Y257357D01*
X431241Y257483D01*
X432144Y257575D01*
X433048Y257507D01*
X433496Y257379D01*
X433902Y257153D01*
X434062Y257007D01*
X434245Y256840D01*
X434506Y256456D01*
X434818Y255634D01*
X434925Y254754D01*
X434925Y244475D01*
X434926Y244473D01*
X434925Y244471D01*
X434945Y244428D01*
X434963Y244384D01*
X434965Y244384D01*
X434966Y244382D01*
X435051Y244349D01*
X439293Y244349D01*
X439295Y244350D01*
X439297Y244349D01*
X439340Y244369D01*
X439384Y244387D01*
X439384Y244389D01*
X439386Y244390D01*
X439419Y244475D01*
X439419Y256057D01*
X439416Y256066D01*
X439418Y256076D01*
X439249Y257172D01*
X439243Y257183D01*
X439243Y257197D01*
X438857Y258236D01*
X438848Y258245D01*
X438845Y258259D01*
X438257Y259198D01*
X438246Y259206D01*
X438241Y259219D01*
X437595Y259883D01*
X437583Y259888D01*
X437574Y259901D01*
X436800Y260408D01*
X436786Y260410D01*
X436775Y260421D01*
X435909Y260747D01*
X435898Y260747D01*
X435888Y260753D01*
X434628Y261002D01*
X434622Y261000D01*
X434614Y261004D01*
X433335Y261111D01*
X433325Y261108D01*
X433315Y261111D01*
X432421Y261050D01*
X432411Y261044D01*
X432397Y261046D01*
X431532Y260814D01*
X431522Y260807D01*
X431509Y260806D01*
X430704Y260412D01*
X430697Y260405D01*
X430685Y260402D01*
X429796Y259764D01*
X429792Y259756D01*
X429782Y259752D01*
X428994Y258993D01*
X428993Y258990D01*
X428990Y258989D01*
X428535Y258508D01*
X428493Y258466D01*
X428113Y259124D01*
X428103Y259131D01*
X428099Y259144D01*
X427517Y259813D01*
X427506Y259818D01*
X427499Y259830D01*
X426801Y260376D01*
X426789Y260379D01*
X426780Y260389D01*
X425990Y260792D01*
X425978Y260793D01*
X425967Y260802D01*
X425044Y261062D01*
X425032Y261061D01*
X425019Y261067D01*
X424062Y261136D01*
X424052Y261133D01*
X424041Y261136D01*
X422669Y261009D01*
X422662Y261005D01*
X422652Y261006D01*
X421560Y260752D01*
X421550Y260745D01*
X421537Y260744D01*
X420647Y260340D01*
X420637Y260328D01*
X420621Y260323D01*
X419859Y259711D01*
X419855Y259704D01*
X419847Y259701D01*
X419737Y259587D01*
X419615Y259460D01*
X419614Y259460D01*
X419492Y259334D01*
X419370Y259208D01*
X419248Y259082D01*
X419126Y258955D01*
X419125Y258955D01*
X419085Y258914D01*
X419083Y258907D01*
X419076Y258903D01*
X418774Y258507D01*
X418743Y258500D01*
X418743Y260553D01*
X418742Y260555D01*
X418743Y260557D01*
X418723Y260600D01*
X418705Y260644D01*
X418703Y260644D01*
X418702Y260646D01*
X418617Y260679D01*
X414630Y260679D01*
X414628Y260678D01*
X414626Y260679D01*
X414583Y260659D01*
X414539Y260641D01*
X414539Y260639D01*
X414537Y260638D01*
X414504Y260553D01*
X414504Y244500D01*
X414505Y244498D01*
X414504Y244496D01*
X414524Y244453D01*
X414542Y244409D01*
X414544Y244409D01*
X414545Y244407D01*
X414630Y244374D01*
X418948Y244374D01*
X418950Y244375D01*
X418952Y244374D01*
X418995Y244394D01*
X419039Y244412D01*
X419039Y244414D01*
X419041Y244415D01*
X419074Y244500D01*
X419074Y254305D01*
X419073Y254308D01*
X419074Y254311D01*
X419044Y254933D01*
X419176Y255524D01*
X419459Y256062D01*
X420279Y257006D01*
X420633Y257272D01*
X421037Y257450D01*
X421477Y257532D01*
X422325Y257582D01*
X422802Y257550D01*
X423253Y257414D01*
X423661Y257181D01*
X424008Y256863D01*
X424378Y256316D01*
X424609Y255697D01*
X424689Y255034D01*
X424689Y244475D01*
X424690Y244473D01*
X424689Y244471D01*
X424709Y244428D01*
X424727Y244384D01*
X424729Y244384D01*
X424730Y244382D01*
X424815Y244349D01*
X429133Y244349D01*
X429135Y244350D01*
G37*
G36*
X288814Y243985D02*
X288814Y243985D01*
X288825Y243982D01*
X290443Y244223D01*
X290452Y244229D01*
X290465Y244228D01*
X291500Y244581D01*
X291509Y244588D01*
X291521Y244590D01*
X292472Y245130D01*
X292480Y245139D01*
X292492Y245144D01*
X293319Y245847D01*
X293343Y245863D01*
X293352Y245864D01*
X293360Y245862D01*
X293367Y245856D01*
X293376Y245833D01*
X293603Y244804D01*
X293605Y244801D01*
X293604Y244798D01*
X293680Y244518D01*
X293691Y244504D01*
X293695Y244485D01*
X293716Y244449D01*
X293740Y244432D01*
X293767Y244403D01*
X293804Y244384D01*
X293834Y244382D01*
X293872Y244371D01*
X293908Y244374D01*
X297942Y244374D01*
X297965Y244383D01*
X297990Y244383D01*
X298008Y244402D01*
X298033Y244412D01*
X298042Y244435D01*
X298059Y244453D01*
X298060Y244482D01*
X298068Y244504D01*
X298060Y244522D01*
X298060Y244544D01*
X297986Y244743D01*
X297637Y246038D01*
X297535Y247375D01*
X297560Y251713D01*
X297559Y251716D01*
X297560Y251718D01*
X297540Y251761D01*
X297527Y251794D01*
X297535Y251816D01*
X297535Y256642D01*
X297532Y256649D01*
X297534Y256658D01*
X297443Y257393D01*
X297436Y257406D01*
X297436Y257423D01*
X297169Y258114D01*
X297158Y258124D01*
X297154Y258141D01*
X296727Y258746D01*
X296714Y258754D01*
X296706Y258769D01*
X296144Y259252D01*
X296131Y259256D01*
X296121Y259267D01*
X294818Y259961D01*
X294806Y259962D01*
X294795Y259970D01*
X293381Y260395D01*
X293371Y260394D01*
X293362Y260399D01*
X291623Y260629D01*
X291615Y260627D01*
X291607Y260630D01*
X289853Y260638D01*
X289846Y260635D01*
X289837Y260638D01*
X288097Y260424D01*
X288089Y260420D01*
X288079Y260421D01*
X286850Y260087D01*
X286842Y260080D01*
X286831Y260080D01*
X285673Y259551D01*
X285665Y259542D01*
X285652Y259539D01*
X284835Y258965D01*
X284828Y258954D01*
X284815Y258948D01*
X284132Y258218D01*
X284129Y258209D01*
X284127Y258209D01*
X284125Y258204D01*
X284116Y258197D01*
X283597Y257344D01*
X283595Y257331D01*
X283585Y257320D01*
X283251Y256379D01*
X283252Y256366D01*
X283245Y256353D01*
X283123Y255462D01*
X283120Y255460D01*
X283119Y255460D01*
X283100Y255411D01*
X283084Y255368D01*
X283086Y255363D01*
X283119Y255285D01*
X283144Y255259D01*
X283184Y255241D01*
X283222Y255220D01*
X283228Y255222D01*
X283235Y255220D01*
X283275Y255237D01*
X283305Y255246D01*
X287452Y255246D01*
X287454Y255247D01*
X287456Y255246D01*
X287499Y255266D01*
X287543Y255284D01*
X287543Y255286D01*
X287545Y255287D01*
X287578Y255372D01*
X287578Y255415D01*
X287641Y255946D01*
X287825Y256441D01*
X288120Y256879D01*
X288510Y257235D01*
X288974Y257490D01*
X289535Y257655D01*
X290122Y257709D01*
X291477Y257659D01*
X291846Y257598D01*
X292192Y257470D01*
X292506Y257277D01*
X292759Y257043D01*
X292958Y256764D01*
X293097Y256450D01*
X293208Y255929D01*
X293208Y255398D01*
X293097Y254877D01*
X293055Y254780D01*
X292995Y254693D01*
X292711Y254432D01*
X292283Y254186D01*
X291814Y254021D01*
X290508Y253795D01*
X288302Y253567D01*
X288298Y253564D01*
X288293Y253565D01*
X286756Y253287D01*
X286748Y253283D01*
X286739Y253283D01*
X285254Y252799D01*
X285246Y252792D01*
X285234Y252791D01*
X284538Y252425D01*
X284530Y252415D01*
X284517Y252411D01*
X283907Y251913D01*
X283901Y251902D01*
X283891Y251896D01*
X283890Y251896D01*
X283889Y251895D01*
X283391Y251286D01*
X283387Y251273D01*
X283376Y251262D01*
X282947Y250400D01*
X282946Y250385D01*
X282937Y250371D01*
X282731Y249430D01*
X282733Y249417D01*
X282728Y249403D01*
X282725Y248342D01*
X282730Y248332D01*
X282727Y248319D01*
X282916Y247275D01*
X282922Y247266D01*
X282922Y247253D01*
X283295Y246260D01*
X283303Y246251D01*
X283305Y246239D01*
X283597Y245756D01*
X283606Y245749D01*
X283611Y245737D01*
X283988Y245317D01*
X283999Y245312D01*
X284006Y245301D01*
X284454Y244959D01*
X284467Y244955D01*
X284477Y244945D01*
X285746Y244339D01*
X285759Y244339D01*
X285772Y244330D01*
X287144Y244022D01*
X287156Y244024D01*
X287169Y244019D01*
X288804Y243981D01*
X288814Y243985D01*
G37*
G36*
X316181Y244248D02*
X316181Y244248D01*
X316183Y244247D01*
X316226Y244267D01*
X316270Y244285D01*
X316270Y244287D01*
X316272Y244288D01*
X316305Y244373D01*
X316305Y249781D01*
X317960Y251388D01*
X322193Y244410D01*
X322208Y244399D01*
X322216Y244382D01*
X322250Y244369D01*
X322273Y244352D01*
X322286Y244354D01*
X322300Y244349D01*
X327380Y244324D01*
X327416Y244339D01*
X327454Y244347D01*
X327460Y244357D01*
X327471Y244362D01*
X327486Y244398D01*
X327506Y244431D01*
X327503Y244443D01*
X327507Y244453D01*
X327495Y244481D01*
X327486Y244520D01*
X320889Y254415D01*
X326580Y259981D01*
X326581Y259982D01*
X326583Y259983D01*
X326600Y260028D01*
X326618Y260072D01*
X326618Y260073D01*
X326618Y260075D01*
X326598Y260118D01*
X326579Y260162D01*
X326578Y260163D01*
X326577Y260164D01*
X326492Y260197D01*
X321818Y260197D01*
X321815Y260196D01*
X321812Y260197D01*
X321729Y260160D01*
X316254Y254686D01*
X316254Y266116D01*
X316241Y266148D01*
X316236Y266182D01*
X316222Y266192D01*
X316216Y266207D01*
X316184Y266219D01*
X316155Y266239D01*
X316138Y266237D01*
X316124Y266242D01*
X316099Y266231D01*
X316065Y266226D01*
X311925Y263864D01*
X311913Y263847D01*
X311895Y263839D01*
X311882Y263807D01*
X311866Y263785D01*
X311868Y263770D01*
X311862Y263754D01*
X311862Y244424D01*
X311863Y244421D01*
X311862Y244418D01*
X311899Y244335D01*
X311950Y244284D01*
X311953Y244283D01*
X311954Y244280D01*
X312039Y244247D01*
X316179Y244247D01*
X316181Y244248D01*
G37*
G36*
X345108Y243973D02*
X345108Y243973D01*
X345115Y243976D01*
X345124Y243975D01*
X346602Y244198D01*
X346610Y244203D01*
X346620Y244202D01*
X346882Y244283D01*
X346890Y244289D01*
X346902Y244291D01*
X347147Y244413D01*
X347154Y244420D01*
X347164Y244423D01*
X348094Y245082D01*
X348099Y245090D01*
X348108Y245093D01*
X348935Y245878D01*
X348938Y245886D01*
X348947Y245891D01*
X349454Y246532D01*
X349454Y244475D01*
X349455Y244473D01*
X349454Y244471D01*
X349474Y244428D01*
X349492Y244384D01*
X349494Y244384D01*
X349495Y244382D01*
X349580Y244349D01*
X353593Y244349D01*
X353595Y244350D01*
X353597Y244349D01*
X353640Y244369D01*
X353684Y244387D01*
X353684Y244389D01*
X353686Y244390D01*
X353719Y244475D01*
X353719Y260096D01*
X353718Y260098D01*
X353719Y260100D01*
X353699Y260143D01*
X353681Y260187D01*
X353679Y260187D01*
X353678Y260189D01*
X353593Y260222D01*
X349377Y260222D01*
X349375Y260221D01*
X349373Y260222D01*
X349330Y260202D01*
X349286Y260184D01*
X349286Y260182D01*
X349284Y260181D01*
X349251Y260096D01*
X349251Y251794D01*
X349175Y250564D01*
X348950Y249360D01*
X348741Y248810D01*
X348414Y248325D01*
X347983Y247928D01*
X347473Y247640D01*
X346782Y247428D01*
X346061Y247361D01*
X345342Y247441D01*
X344653Y247664D01*
X344258Y247889D01*
X343917Y248190D01*
X343645Y248552D01*
X343302Y249320D01*
X343153Y250150D01*
X343153Y260147D01*
X343152Y260149D01*
X343153Y260151D01*
X343133Y260194D01*
X343115Y260238D01*
X343113Y260238D01*
X343112Y260240D01*
X343027Y260273D01*
X338887Y260273D01*
X338885Y260272D01*
X338883Y260273D01*
X338840Y260253D01*
X338796Y260235D01*
X338796Y260233D01*
X338794Y260232D01*
X338761Y260147D01*
X338761Y249352D01*
X338763Y249347D01*
X338761Y249340D01*
X338862Y248241D01*
X338867Y248232D01*
X338867Y248231D01*
X338868Y248229D01*
X338866Y248218D01*
X339166Y247155D01*
X339173Y247146D01*
X339174Y247133D01*
X339662Y246143D01*
X339671Y246135D01*
X339675Y246123D01*
X340335Y245238D01*
X340345Y245231D01*
X340352Y245219D01*
X340606Y244991D01*
X340614Y244988D01*
X340615Y244986D01*
X340620Y244984D01*
X340626Y244976D01*
X341528Y244450D01*
X341540Y244449D01*
X341550Y244440D01*
X342536Y244097D01*
X342548Y244098D01*
X342560Y244091D01*
X343593Y243944D01*
X343603Y243947D01*
X343614Y243943D01*
X345108Y243973D01*
G37*
G36*
X360301Y244274D02*
X360301Y244274D01*
X360303Y244273D01*
X360346Y244293D01*
X360390Y244311D01*
X360390Y244313D01*
X360392Y244314D01*
X360425Y244399D01*
X360425Y253765D01*
X360506Y254548D01*
X360722Y255298D01*
X361085Y255977D01*
X361602Y256546D01*
X362059Y256860D01*
X362575Y257064D01*
X363131Y257151D01*
X364236Y257201D01*
X364552Y257184D01*
X364852Y257107D01*
X365287Y256890D01*
X365661Y256581D01*
X365957Y256194D01*
X366267Y255552D01*
X366458Y254864D01*
X366523Y254146D01*
X366523Y244500D01*
X366524Y244498D01*
X366523Y244496D01*
X366543Y244453D01*
X366561Y244409D01*
X366563Y244409D01*
X366564Y244407D01*
X366649Y244374D01*
X370738Y244374D01*
X370740Y244375D01*
X370742Y244374D01*
X370785Y244394D01*
X370829Y244412D01*
X370829Y244414D01*
X370831Y244415D01*
X370864Y244500D01*
X370864Y255041D01*
X370862Y255046D01*
X370864Y255051D01*
X370774Y256180D01*
X370770Y256188D01*
X370771Y256197D01*
X370531Y257304D01*
X370526Y257312D01*
X370526Y257322D01*
X370257Y258027D01*
X370249Y258035D01*
X370247Y258047D01*
X369863Y258696D01*
X369854Y258702D01*
X369850Y258714D01*
X369361Y259289D01*
X369350Y259294D01*
X369343Y259306D01*
X368558Y259924D01*
X368545Y259927D01*
X368534Y259939D01*
X367629Y260361D01*
X367615Y260362D01*
X367601Y260370D01*
X366624Y260576D01*
X366613Y260573D01*
X366601Y260578D01*
X364595Y260628D01*
X364585Y260624D01*
X364574Y260627D01*
X363522Y260472D01*
X363511Y260465D01*
X363497Y260465D01*
X362500Y260096D01*
X362490Y260087D01*
X362476Y260084D01*
X361578Y259517D01*
X361571Y259508D01*
X361560Y259504D01*
X361099Y259088D01*
X361096Y259080D01*
X361088Y259076D01*
X360686Y258603D01*
X360684Y258598D01*
X360680Y258596D01*
X360403Y258218D01*
X360289Y258082D01*
X360247Y258053D01*
X360247Y260121D01*
X360246Y260123D01*
X360247Y260125D01*
X360227Y260168D01*
X360209Y260212D01*
X360207Y260212D01*
X360206Y260214D01*
X360121Y260247D01*
X356083Y260247D01*
X356081Y260246D01*
X356079Y260247D01*
X356036Y260227D01*
X355992Y260209D01*
X355992Y260207D01*
X355990Y260206D01*
X355957Y260121D01*
X355957Y244399D01*
X355958Y244397D01*
X355957Y244395D01*
X355977Y244352D01*
X355995Y244308D01*
X355997Y244308D01*
X355998Y244306D01*
X356083Y244273D01*
X360299Y244273D01*
X360301Y244274D01*
G37*
G36*
X406896Y244451D02*
X406896Y244451D01*
X406908Y244458D01*
X406924Y244458D01*
X408778Y245093D01*
X408791Y245104D01*
X408810Y245109D01*
X409927Y245896D01*
X409932Y245904D01*
X409941Y245908D01*
X411135Y247051D01*
X411141Y247065D01*
X411155Y247075D01*
X411968Y248370D01*
X411971Y248387D01*
X411983Y248403D01*
X412669Y250867D01*
X412667Y250877D01*
X412672Y250886D01*
X412926Y252994D01*
X412922Y253009D01*
X412926Y253025D01*
X412646Y255210D01*
X412637Y255225D01*
X412636Y255245D01*
X411595Y257582D01*
X411582Y257594D01*
X411576Y257613D01*
X410484Y258883D01*
X410470Y258890D01*
X410460Y258905D01*
X408479Y260276D01*
X408463Y260279D01*
X408448Y260291D01*
X406822Y260850D01*
X406809Y260850D01*
X406797Y260856D01*
X404790Y261110D01*
X404781Y261108D01*
X404772Y261111D01*
X404735Y261095D01*
X404695Y261084D01*
X404691Y261075D01*
X404682Y261071D01*
X404662Y261022D01*
X404648Y260997D01*
X404650Y260992D01*
X404648Y260987D01*
X404598Y258015D01*
X404599Y258012D01*
X404598Y258009D01*
X404617Y257967D01*
X404635Y257924D01*
X404638Y257923D01*
X404639Y257920D01*
X404724Y257887D01*
X404820Y257887D01*
X406007Y257788D01*
X406960Y257275D01*
X407794Y256466D01*
X408538Y254854D01*
X408789Y252925D01*
X408789Y251500D01*
X408414Y249952D01*
X407871Y248742D01*
X406792Y247761D01*
X405041Y247169D01*
X403293Y247391D01*
X401645Y248399D01*
X401107Y249426D01*
X400733Y250575D01*
X400558Y251823D01*
X400608Y253682D01*
X400882Y255156D01*
X401278Y256045D01*
X402066Y257129D01*
X403214Y257764D01*
X404309Y257914D01*
X404346Y257936D01*
X404385Y257954D01*
X404388Y257961D01*
X404394Y257964D01*
X404401Y257994D01*
X404418Y258039D01*
X404418Y260960D01*
X404407Y260987D01*
X404405Y261016D01*
X404388Y261032D01*
X404380Y261051D01*
X404358Y261059D01*
X404338Y261077D01*
X404211Y261127D01*
X404189Y261127D01*
X404165Y261136D01*
X404114Y261136D01*
X404107Y261133D01*
X404099Y261135D01*
X402626Y260958D01*
X402608Y260948D01*
X402585Y260946D01*
X399207Y259269D01*
X399190Y259250D01*
X399164Y259234D01*
X397030Y256516D01*
X397023Y256492D01*
X397006Y256466D01*
X396193Y252910D01*
X396197Y252888D01*
X396191Y252862D01*
X396801Y248976D01*
X396814Y248956D01*
X396820Y248928D01*
X398420Y246439D01*
X398441Y246424D01*
X398459Y246400D01*
X401304Y244622D01*
X401328Y244618D01*
X401354Y244604D01*
X404351Y244198D01*
X404365Y244202D01*
X404381Y244197D01*
X406896Y244451D01*
G37*
G36*
X257719Y244040D02*
X257719Y244040D01*
X257725Y244042D01*
X257732Y244041D01*
X259046Y244223D01*
X259054Y244227D01*
X259063Y244227D01*
X260063Y244509D01*
X260072Y244516D01*
X260084Y244517D01*
X261019Y244968D01*
X261026Y244976D01*
X261038Y244979D01*
X261882Y245585D01*
X261887Y245595D01*
X261898Y245600D01*
X262624Y246343D01*
X262628Y246353D01*
X262639Y246361D01*
X263018Y246925D01*
X263020Y246936D01*
X263029Y246946D01*
X263295Y247571D01*
X263295Y247583D01*
X263303Y247594D01*
X263445Y248258D01*
X263444Y248267D01*
X263448Y248276D01*
X263524Y249317D01*
X263521Y249326D01*
X263524Y249337D01*
X263430Y250392D01*
X263423Y250405D01*
X263423Y250421D01*
X263086Y251424D01*
X263077Y251435D01*
X263074Y251450D01*
X262822Y251862D01*
X262812Y251869D01*
X262806Y251883D01*
X262474Y252233D01*
X262463Y252237D01*
X262457Y252248D01*
X261765Y252756D01*
X261757Y252758D01*
X261750Y252766D01*
X260994Y253171D01*
X260985Y253172D01*
X260978Y253178D01*
X259322Y253788D01*
X259314Y253788D01*
X259306Y253793D01*
X257583Y254174D01*
X257582Y254174D01*
X257581Y254175D01*
X255558Y254579D01*
X254806Y254851D01*
X254131Y255267D01*
X253848Y255560D01*
X253664Y255921D01*
X253599Y256290D01*
X253647Y256662D01*
X253802Y257004D01*
X254035Y257272D01*
X254336Y257467D01*
X254760Y257624D01*
X255209Y257709D01*
X256058Y257753D01*
X256905Y257709D01*
X257401Y257611D01*
X257868Y257422D01*
X258291Y257151D01*
X258566Y256887D01*
X258784Y256574D01*
X258934Y256222D01*
X258989Y255979D01*
X259005Y255719D01*
X259026Y255677D01*
X259046Y255634D01*
X259048Y255633D01*
X259049Y255631D01*
X259068Y255625D01*
X259131Y255601D01*
X263017Y255601D01*
X263026Y255604D01*
X263034Y255602D01*
X263070Y255623D01*
X263108Y255639D01*
X263111Y255648D01*
X263119Y255653D01*
X263133Y255704D01*
X263143Y255731D01*
X263141Y255735D01*
X263142Y255738D01*
X263142Y255739D01*
X263143Y255740D01*
X263067Y256451D01*
X263061Y256461D01*
X263063Y256472D01*
X263058Y256478D01*
X263058Y256485D01*
X263066Y256498D01*
X263060Y256522D01*
X263063Y256531D01*
X263059Y256539D01*
X263060Y256558D01*
X262857Y257116D01*
X262853Y257120D01*
X262853Y257125D01*
X262497Y257913D01*
X262490Y257919D01*
X262488Y257930D01*
X262202Y258372D01*
X262194Y258377D01*
X262190Y258387D01*
X261842Y258783D01*
X261832Y258787D01*
X261825Y258798D01*
X260866Y259555D01*
X260853Y259559D01*
X260843Y259569D01*
X259746Y260107D01*
X259734Y260108D01*
X259723Y260116D01*
X258372Y260484D01*
X258362Y260483D01*
X258352Y260488D01*
X256959Y260628D01*
X256953Y260626D01*
X256946Y260628D01*
X255143Y260628D01*
X255137Y260626D01*
X255129Y260628D01*
X253700Y260473D01*
X253690Y260467D01*
X253677Y260468D01*
X252299Y260057D01*
X252290Y260050D01*
X252278Y260049D01*
X250997Y259395D01*
X250989Y259386D01*
X250977Y259383D01*
X250501Y259014D01*
X250495Y259003D01*
X250483Y258997D01*
X250089Y258542D01*
X250085Y258531D01*
X250074Y258522D01*
X249775Y258000D01*
X249774Y257987D01*
X249765Y257977D01*
X249407Y256893D01*
X249408Y256881D01*
X249402Y256868D01*
X249273Y255734D01*
X249276Y255722D01*
X249273Y255708D01*
X249378Y254572D01*
X249384Y254561D01*
X249383Y254547D01*
X249535Y254058D01*
X249543Y254048D01*
X249545Y254034D01*
X249794Y253587D01*
X249805Y253579D01*
X249809Y253565D01*
X250146Y253180D01*
X250156Y253175D01*
X250162Y253164D01*
X250839Y252627D01*
X250848Y252624D01*
X250855Y252616D01*
X251606Y252189D01*
X251615Y252188D01*
X251623Y252181D01*
X252431Y251875D01*
X252439Y251875D01*
X252447Y251870D01*
X256078Y251007D01*
X257252Y250701D01*
X258359Y250231D01*
X258695Y250000D01*
X258961Y249696D01*
X259141Y249334D01*
X259226Y248939D01*
X259209Y248535D01*
X259092Y248150D01*
X258884Y247805D01*
X258596Y247521D01*
X258083Y247209D01*
X257516Y247012D01*
X256913Y246938D01*
X255583Y246938D01*
X255021Y247011D01*
X254434Y247228D01*
X253907Y247565D01*
X253465Y248008D01*
X253210Y248422D01*
X253063Y248884D01*
X253034Y249381D01*
X253034Y249428D01*
X253033Y249430D01*
X253034Y249432D01*
X253014Y249475D01*
X252996Y249519D01*
X252994Y249519D01*
X252993Y249521D01*
X252908Y249554D01*
X249047Y249554D01*
X249041Y249552D01*
X249034Y249554D01*
X249022Y249547D01*
X249008Y249548D01*
X249006Y249547D01*
X249005Y249547D01*
X248983Y249527D01*
X248956Y249516D01*
X248954Y249509D01*
X248948Y249506D01*
X248943Y249492D01*
X248933Y249483D01*
X248933Y249482D01*
X248932Y249480D01*
X248931Y249453D01*
X248929Y249446D01*
X248921Y249424D01*
X248922Y249422D01*
X248921Y249419D01*
X248946Y249063D01*
X248949Y249057D01*
X248948Y249050D01*
X249050Y248466D01*
X249055Y248458D01*
X249054Y248447D01*
X249486Y247177D01*
X249493Y247170D01*
X249494Y247160D01*
X249803Y246564D01*
X249813Y246557D01*
X249817Y246544D01*
X250237Y246020D01*
X250248Y246015D01*
X250254Y246003D01*
X250769Y245572D01*
X250777Y245570D01*
X250782Y245563D01*
X251976Y244801D01*
X251984Y244799D01*
X251991Y244792D01*
X252848Y244395D01*
X252861Y244394D01*
X252873Y244386D01*
X253794Y244174D01*
X253803Y244176D01*
X253813Y244171D01*
X256379Y243993D01*
X256386Y243995D01*
X256392Y243993D01*
X257719Y244040D01*
G37*
G36*
X387783Y243996D02*
X387783Y243996D01*
X387792Y243993D01*
X388975Y244089D01*
X388984Y244093D01*
X388995Y244092D01*
X390148Y244374D01*
X390156Y244380D01*
X390167Y244380D01*
X391260Y244842D01*
X391268Y244850D01*
X391280Y244853D01*
X392528Y245673D01*
X392535Y245684D01*
X392548Y245690D01*
X393601Y246748D01*
X393605Y246760D01*
X393617Y246768D01*
X394432Y248019D01*
X394434Y248032D01*
X394444Y248042D01*
X394986Y249433D01*
X394985Y249444D01*
X394992Y249454D01*
X395087Y249919D01*
X395085Y249928D01*
X395089Y249936D01*
X395121Y250411D01*
X395120Y250415D01*
X395121Y250419D01*
X395121Y250469D01*
X395120Y250471D01*
X395121Y250473D01*
X395101Y250516D01*
X395083Y250560D01*
X395081Y250560D01*
X395080Y250562D01*
X394995Y250595D01*
X390931Y250595D01*
X390892Y250579D01*
X390852Y250567D01*
X390847Y250560D01*
X390840Y250557D01*
X390829Y250528D01*
X390806Y250488D01*
X390702Y249812D01*
X390487Y249175D01*
X390166Y248585D01*
X389808Y248153D01*
X389365Y247808D01*
X388835Y247540D01*
X388266Y247367D01*
X387676Y247294D01*
X386875Y247335D01*
X386096Y247516D01*
X385388Y247846D01*
X384780Y248335D01*
X384305Y248954D01*
X383990Y249671D01*
X383644Y251195D01*
X383515Y252755D01*
X383608Y253896D01*
X383913Y254999D01*
X384418Y256024D01*
X385105Y256935D01*
X385452Y257225D01*
X385866Y257411D01*
X386687Y257592D01*
X387527Y257658D01*
X388359Y257575D01*
X389151Y257314D01*
X389644Y257016D01*
X390057Y256615D01*
X390368Y256130D01*
X390561Y255588D01*
X390628Y255009D01*
X390628Y254991D01*
X390629Y254989D01*
X390628Y254987D01*
X390648Y254944D01*
X390666Y254900D01*
X390668Y254900D01*
X390669Y254898D01*
X390754Y254865D01*
X394945Y254865D01*
X394959Y254871D01*
X394973Y254868D01*
X395002Y254889D01*
X395036Y254903D01*
X395041Y254917D01*
X395053Y254926D01*
X395060Y254967D01*
X395071Y254995D01*
X395067Y255004D01*
X395069Y255015D01*
X394832Y256223D01*
X394827Y256231D01*
X394827Y256242D01*
X394403Y257397D01*
X394394Y257405D01*
X394392Y257418D01*
X393752Y258485D01*
X393741Y258492D01*
X393735Y258506D01*
X392880Y259409D01*
X392867Y259415D01*
X392859Y259427D01*
X391828Y260124D01*
X391815Y260127D01*
X391804Y260137D01*
X390647Y260594D01*
X390638Y260594D01*
X390629Y260600D01*
X389218Y260919D01*
X389212Y260918D01*
X389207Y260921D01*
X387773Y261110D01*
X387764Y261108D01*
X387754Y261111D01*
X386212Y261088D01*
X386201Y261083D01*
X386187Y261085D01*
X384681Y260752D01*
X384671Y260745D01*
X384657Y260745D01*
X383266Y260133D01*
X383258Y260125D01*
X383245Y260121D01*
X381996Y259256D01*
X381989Y259246D01*
X381977Y259240D01*
X381968Y259231D01*
X381845Y259104D01*
X381722Y258978D01*
X381475Y258726D01*
X381352Y258599D01*
X381229Y258473D01*
X381106Y258347D01*
X380916Y258152D01*
X380912Y258141D01*
X380901Y258134D01*
X380067Y256863D01*
X380065Y256852D01*
X380056Y256842D01*
X379479Y255436D01*
X379479Y255424D01*
X379472Y255413D01*
X379174Y253923D01*
X379176Y253913D01*
X379172Y253902D01*
X379096Y251413D01*
X379099Y251404D01*
X379097Y251394D01*
X379242Y250178D01*
X379247Y250170D01*
X379246Y250159D01*
X379580Y248981D01*
X379586Y248973D01*
X379587Y248963D01*
X380101Y247852D01*
X380109Y247845D01*
X380111Y247834D01*
X380793Y246818D01*
X380802Y246812D01*
X380806Y246802D01*
X381577Y245979D01*
X381586Y245975D01*
X381592Y245965D01*
X382488Y245281D01*
X382498Y245278D01*
X382506Y245269D01*
X383503Y244743D01*
X383513Y244742D01*
X383522Y244735D01*
X384592Y244380D01*
X384601Y244381D01*
X384610Y244376D01*
X386174Y244094D01*
X386181Y244095D01*
X386188Y244092D01*
X387774Y243993D01*
X387783Y243996D01*
G37*
G36*
X334418Y244274D02*
X334418Y244274D01*
X334420Y244273D01*
X334463Y244293D01*
X334507Y244311D01*
X334507Y244313D01*
X334509Y244314D01*
X334542Y244399D01*
X334542Y257303D01*
X337414Y257303D01*
X337416Y257304D01*
X337418Y257303D01*
X337461Y257323D01*
X337505Y257341D01*
X337505Y257343D01*
X337507Y257344D01*
X337540Y257429D01*
X337540Y260096D01*
X337539Y260098D01*
X337540Y260100D01*
X337520Y260143D01*
X337502Y260187D01*
X337500Y260187D01*
X337499Y260189D01*
X337414Y260222D01*
X334568Y260222D01*
X334568Y261484D01*
X334631Y261946D01*
X334806Y262369D01*
X334988Y262601D01*
X335228Y262771D01*
X335510Y262868D01*
X336410Y262951D01*
X337325Y262866D01*
X337605Y262840D01*
X337611Y262842D01*
X337617Y262840D01*
X337693Y262840D01*
X337695Y262841D01*
X337697Y262840D01*
X337740Y262860D01*
X337784Y262878D01*
X337784Y262880D01*
X337786Y262881D01*
X337819Y262966D01*
X337819Y265989D01*
X337819Y265990D01*
X337819Y265992D01*
X337819Y265993D01*
X337799Y266036D01*
X337781Y266080D01*
X337779Y266080D01*
X337778Y266082D01*
X337693Y266115D01*
X337671Y266115D01*
X336354Y266191D01*
X336351Y266190D01*
X336347Y266191D01*
X334797Y266191D01*
X334787Y266187D01*
X334776Y266189D01*
X333763Y266015D01*
X333753Y266008D01*
X333739Y266008D01*
X332781Y265639D01*
X332772Y265631D01*
X332759Y265628D01*
X331891Y265078D01*
X331885Y265068D01*
X331878Y265066D01*
X331878Y265065D01*
X331872Y265063D01*
X331129Y264353D01*
X331124Y264343D01*
X331113Y264335D01*
X330773Y263858D01*
X330771Y263847D01*
X330762Y263838D01*
X330513Y263307D01*
X330513Y263296D01*
X330505Y263286D01*
X330357Y262719D01*
X330358Y262708D01*
X330353Y262697D01*
X330176Y260563D01*
X330178Y260559D01*
X330176Y260555D01*
X330176Y260553D01*
X330176Y260222D01*
X328930Y260222D01*
X328927Y260221D01*
X328924Y260222D01*
X328841Y260185D01*
X326174Y257518D01*
X326173Y257518D01*
X326173Y257517D01*
X326155Y257472D01*
X326137Y257427D01*
X326137Y257426D01*
X326157Y257381D01*
X326177Y257337D01*
X326178Y257336D01*
X326262Y257303D01*
X330125Y257279D01*
X330125Y244399D01*
X330126Y244397D01*
X330125Y244395D01*
X330145Y244352D01*
X330163Y244308D01*
X330165Y244308D01*
X330166Y244306D01*
X330251Y244273D01*
X334416Y244273D01*
X334418Y244274D01*
G37*
G36*
X304294Y244375D02*
X304294Y244375D01*
X304296Y244374D01*
X304339Y244394D01*
X304383Y244412D01*
X304383Y244414D01*
X304385Y244415D01*
X304418Y244500D01*
X304418Y252319D01*
X304491Y253165D01*
X304691Y253984D01*
X305052Y254777D01*
X305577Y255469D01*
X306244Y256029D01*
X306723Y256293D01*
X307241Y256474D01*
X307783Y256566D01*
X309308Y256566D01*
X309905Y256441D01*
X309908Y256442D01*
X309911Y256440D01*
X310063Y256415D01*
X310072Y256418D01*
X310083Y256414D01*
X310109Y256414D01*
X310111Y256415D01*
X310113Y256414D01*
X310156Y256434D01*
X310200Y256452D01*
X310200Y256454D01*
X310202Y256455D01*
X310235Y256540D01*
X310235Y260401D01*
X310217Y260445D01*
X310199Y260490D01*
X310197Y260490D01*
X310197Y260492D01*
X310180Y260498D01*
X310116Y260527D01*
X308744Y260603D01*
X308734Y260599D01*
X308722Y260602D01*
X308021Y260518D01*
X308011Y260512D01*
X307997Y260513D01*
X307327Y260290D01*
X307318Y260281D01*
X307304Y260279D01*
X306693Y259926D01*
X306691Y259923D01*
X306687Y259922D01*
X305798Y259337D01*
X305795Y259334D01*
X305790Y259332D01*
X305396Y259030D01*
X305389Y259018D01*
X305375Y259010D01*
X305059Y258627D01*
X305057Y258621D01*
X305051Y258616D01*
X304365Y257574D01*
X304186Y257306D01*
X304139Y257291D01*
X304139Y260071D01*
X304134Y260084D01*
X304137Y260097D01*
X304115Y260127D01*
X304101Y260162D01*
X304088Y260167D01*
X304080Y260178D01*
X304037Y260186D01*
X304009Y260197D01*
X304001Y260193D01*
X303991Y260195D01*
X300130Y259509D01*
X300096Y259487D01*
X300059Y259470D01*
X300055Y259461D01*
X300047Y259456D01*
X300042Y259426D01*
X300026Y259385D01*
X300000Y244500D01*
X300001Y244498D01*
X300000Y244496D01*
X300020Y244453D01*
X300038Y244409D01*
X300040Y244409D01*
X300041Y244407D01*
X300126Y244374D01*
X304292Y244374D01*
X304294Y244375D01*
G37*
%LPC*%
G36*
X272785Y247268D02*
X272785Y247268D01*
X272063Y247420D01*
X271385Y247710D01*
X270876Y248073D01*
X270464Y248542D01*
X270165Y249106D01*
X270159Y249110D01*
X270158Y249117D01*
X270107Y249193D01*
X270106Y249194D01*
X270106Y249195D01*
X270064Y249255D01*
X270052Y249314D01*
X270052Y249352D01*
X270052Y249353D01*
X270052Y249354D01*
X270033Y249398D01*
X270014Y249443D01*
X270013Y249443D01*
X270012Y249444D01*
X269967Y249461D01*
X269945Y249469D01*
X269945Y249474D01*
X269954Y249509D01*
X269949Y249546D01*
X269943Y249557D01*
X269944Y249570D01*
X269719Y250245D01*
X269595Y251014D01*
X269569Y253560D01*
X269679Y254375D01*
X269946Y255149D01*
X270359Y255856D01*
X270957Y256536D01*
X271669Y257092D01*
X272007Y257254D01*
X272379Y257328D01*
X273454Y257379D01*
X274021Y257333D01*
X274563Y257177D01*
X275063Y256917D01*
X275822Y256287D01*
X276419Y255501D01*
X276822Y254602D01*
X277013Y253632D01*
X277016Y251661D01*
X276712Y249714D01*
X276423Y248953D01*
X275951Y248295D01*
X275325Y247779D01*
X274586Y247441D01*
X273695Y247262D01*
X272785Y247268D01*
G37*
%LPD*%
%LPC*%
G36*
X288711Y246963D02*
X288711Y246963D01*
X288250Y247060D01*
X287829Y247263D01*
X287467Y247560D01*
X287276Y247810D01*
X287141Y248095D01*
X287070Y248403D01*
X287065Y248656D01*
X287063Y248782D01*
X287061Y248908D01*
X287061Y248909D01*
X287059Y248988D01*
X287166Y249563D01*
X287386Y250105D01*
X287590Y250403D01*
X287858Y250647D01*
X288332Y250931D01*
X288850Y251128D01*
X289400Y251233D01*
X290843Y251385D01*
X290847Y251387D01*
X290851Y251387D01*
X291843Y251556D01*
X291849Y251560D01*
X291858Y251559D01*
X292822Y251847D01*
X292831Y251854D01*
X292844Y251856D01*
X293051Y251963D01*
X293061Y251975D01*
X293077Y251981D01*
X293219Y252108D01*
X293219Y251816D01*
X293220Y251814D01*
X293219Y251812D01*
X293239Y251769D01*
X293239Y251767D01*
X293219Y251714D01*
X293219Y250880D01*
X293149Y249791D01*
X292942Y248721D01*
X292895Y248556D01*
X292788Y248307D01*
X292638Y248088D01*
X291894Y247369D01*
X291603Y247184D01*
X291281Y247062D01*
X290239Y246913D01*
X288711Y246963D01*
G37*
%LPD*%
D10*
X210482Y43102D02*
X217940Y43102D01*
X221668Y46831D01*
X217940Y50559D01*
X210482Y50559D01*
X210482Y60389D02*
X212347Y62253D01*
X210482Y60389D02*
X210482Y56660D01*
X212347Y54796D01*
X219804Y54796D01*
X221668Y56660D01*
X221668Y60389D01*
X219804Y62253D01*
X210482Y72083D02*
X212347Y73947D01*
X210482Y72083D02*
X210482Y68354D01*
X212347Y66490D01*
X219804Y66490D01*
X221668Y68354D01*
X221668Y72083D01*
X219804Y73947D01*
D11*
X285789Y489121D02*
X293944Y489121D01*
X293944Y487083D01*
X285789Y478928D01*
X285789Y476889D01*
X315648Y487083D02*
X319726Y489121D01*
X315648Y487083D02*
X311571Y483005D01*
X311571Y478928D01*
X313610Y476889D01*
X317687Y476889D01*
X319726Y478928D01*
X319726Y480966D01*
X317687Y483005D01*
X311571Y483005D01*
X337353Y489121D02*
X345508Y489121D01*
X337353Y489121D02*
X337353Y483005D01*
X341430Y485044D01*
X343469Y485044D01*
X345508Y483005D01*
X345508Y478928D01*
X343469Y476889D01*
X339392Y476889D01*
X337353Y478928D01*
X369251Y476889D02*
X369251Y489121D01*
X363135Y483005D01*
X371290Y483005D01*
X388917Y487083D02*
X390956Y489121D01*
X395033Y489121D01*
X397072Y487083D01*
X397072Y485044D01*
X395033Y483005D01*
X392994Y483005D01*
X395033Y483005D02*
X397072Y480966D01*
X397072Y478928D01*
X395033Y476889D01*
X390956Y476889D01*
X388917Y478928D01*
X414699Y476889D02*
X422854Y476889D01*
X414699Y476889D02*
X422854Y485044D01*
X422854Y487083D01*
X420815Y489121D01*
X416738Y489121D01*
X414699Y487083D01*
X440481Y485044D02*
X444558Y489121D01*
X444558Y476889D01*
X440481Y476889D02*
X448636Y476889D01*
X466263Y478928D02*
X466263Y487083D01*
X468302Y489121D01*
X472379Y489121D01*
X474418Y487083D01*
X474418Y478928D01*
X472379Y476889D01*
X468302Y476889D01*
X466263Y478928D01*
X474418Y487083D01*
X337789Y55083D02*
X337789Y46928D01*
X337789Y55083D02*
X339828Y57121D01*
X343905Y57121D01*
X345944Y55083D01*
X345944Y46928D01*
X343905Y44889D01*
X339828Y44889D01*
X337789Y46928D01*
X345944Y55083D01*
X363571Y53044D02*
X367648Y57121D01*
X367648Y44889D01*
X363571Y44889D02*
X371726Y44889D01*
X389353Y44889D02*
X397508Y44889D01*
X389353Y44889D02*
X397508Y53044D01*
X397508Y55083D01*
X395469Y57121D01*
X391392Y57121D01*
X389353Y55083D01*
X415135Y55083D02*
X417174Y57121D01*
X421251Y57121D01*
X423290Y55083D01*
X423290Y53044D01*
X421251Y51005D01*
X419212Y51005D01*
X421251Y51005D02*
X423290Y48966D01*
X423290Y46928D01*
X421251Y44889D01*
X417174Y44889D01*
X415135Y46928D01*
X447033Y44889D02*
X447033Y57121D01*
X440917Y51005D01*
X449072Y51005D01*
X466699Y57121D02*
X474854Y57121D01*
X466699Y57121D02*
X466699Y51005D01*
X470776Y53044D01*
X472815Y53044D01*
X474854Y51005D01*
X474854Y46928D01*
X472815Y44889D01*
X468738Y44889D01*
X466699Y46928D01*
X118789Y488083D02*
X120828Y490121D01*
X124905Y490121D01*
X126944Y488083D01*
X126944Y486044D01*
X124905Y484005D01*
X122866Y484005D01*
X124905Y484005D02*
X126944Y481966D01*
X126944Y479928D01*
X124905Y477889D01*
X120828Y477889D01*
X118789Y479928D01*
X144571Y477889D02*
X152726Y477889D01*
X144571Y477889D02*
X152726Y486044D01*
X152726Y488083D01*
X150687Y490121D01*
X146610Y490121D01*
X144571Y488083D01*
X170353Y486044D02*
X174430Y490121D01*
X174430Y477889D01*
X170353Y477889D02*
X178508Y477889D01*
X196135Y479928D02*
X196135Y488083D01*
X198174Y490121D01*
X202251Y490121D01*
X204290Y488083D01*
X204290Y479928D01*
X202251Y477889D01*
X198174Y477889D01*
X196135Y479928D01*
X204290Y488083D01*
X221917Y479928D02*
X223956Y477889D01*
X228033Y477889D01*
X230072Y479928D01*
X230072Y488083D01*
X228033Y490121D01*
X223956Y490121D01*
X221917Y488083D01*
X221917Y486044D01*
X223956Y484005D01*
X230072Y484005D01*
X247699Y488083D02*
X249738Y490121D01*
X253815Y490121D01*
X255854Y488083D01*
X255854Y486044D01*
X253815Y484005D01*
X255854Y481966D01*
X255854Y479928D01*
X253815Y477889D01*
X249738Y477889D01*
X247699Y479928D01*
X247699Y481966D01*
X249738Y484005D01*
X247699Y486044D01*
X247699Y488083D01*
X249738Y484005D02*
X253815Y484005D01*
X351789Y72044D02*
X351789Y63889D01*
X351789Y72044D02*
X355866Y76121D01*
X359944Y72044D01*
X359944Y63889D01*
X359944Y70005D02*
X351789Y70005D01*
X364680Y63889D02*
X364680Y76121D01*
X372835Y63889D01*
X372835Y76121D01*
X377571Y72044D02*
X377571Y63889D01*
X377571Y72044D02*
X381648Y76121D01*
X385726Y72044D01*
X385726Y63889D01*
X385726Y70005D02*
X377571Y70005D01*
X390462Y76121D02*
X390462Y63889D01*
X398617Y63889D01*
X405392Y76121D02*
X409469Y76121D01*
X405392Y76121D02*
X403353Y74083D01*
X403353Y65928D01*
X405392Y63889D01*
X409469Y63889D01*
X411508Y65928D01*
X411508Y74083D01*
X409469Y76121D01*
X422360Y76121D02*
X424399Y74083D01*
X422360Y76121D02*
X418283Y76121D01*
X416244Y74083D01*
X416244Y65928D01*
X418283Y63889D01*
X422360Y63889D01*
X424399Y65928D01*
X424399Y70005D01*
X420321Y70005D01*
X442026Y63889D02*
X446103Y63889D01*
X444065Y63889D02*
X444065Y76121D01*
X446103Y76121D02*
X442026Y76121D01*
X450620Y76121D02*
X450620Y63889D01*
X458775Y63889D02*
X450620Y76121D01*
X458775Y76121D02*
X458775Y63889D01*
X233789Y459889D02*
X233789Y472121D01*
X233789Y459889D02*
X239905Y459889D01*
X241944Y461928D01*
X241944Y470083D01*
X239905Y472121D01*
X233789Y472121D01*
X246680Y459889D02*
X250757Y459889D01*
X248719Y459889D02*
X248719Y472121D01*
X250757Y472121D02*
X246680Y472121D01*
X261390Y472121D02*
X263429Y470083D01*
X261390Y472121D02*
X257313Y472121D01*
X255274Y470083D01*
X255274Y461928D01*
X257313Y459889D01*
X261390Y459889D01*
X263429Y461928D01*
X263429Y466005D01*
X259351Y466005D01*
X268165Y459889D02*
X272242Y459889D01*
X270204Y459889D02*
X270204Y472121D01*
X272242Y472121D02*
X268165Y472121D01*
X280836Y472121D02*
X280836Y459889D01*
X276759Y472121D02*
X284914Y472121D01*
X289650Y468044D02*
X289650Y459889D01*
X289650Y468044D02*
X293727Y472121D01*
X297805Y468044D01*
X297805Y459889D01*
X297805Y466005D02*
X289650Y466005D01*
X302541Y472121D02*
X302541Y459889D01*
X310696Y459889D01*
X78823Y442717D02*
X70668Y442717D01*
X66591Y446794D01*
X70668Y450872D01*
X78823Y450872D01*
X72707Y450872D02*
X72707Y442717D01*
X78823Y455608D02*
X66591Y455608D01*
X66591Y461724D01*
X68629Y463763D01*
X72707Y463763D01*
X74746Y461724D01*
X74746Y455608D01*
X74746Y459685D02*
X78823Y463763D01*
X66591Y468499D02*
X66591Y476654D01*
X66591Y468499D02*
X78823Y468499D01*
X78823Y476654D01*
X72707Y472576D02*
X72707Y468499D01*
X78823Y481390D02*
X66591Y481390D01*
X66591Y489545D01*
X72707Y485467D02*
X72707Y481390D01*
D10*
X461653Y326257D02*
X465148Y322762D01*
X461653Y326257D02*
X472138Y326257D01*
X472138Y322762D02*
X472138Y329752D01*
D11*
X92867Y463826D02*
X90829Y461787D01*
X90829Y457710D01*
X92867Y455671D01*
X101022Y455671D01*
X103061Y457710D01*
X103061Y461787D01*
X101022Y463826D01*
X96945Y463826D01*
X96945Y459748D01*
X103061Y468562D02*
X90829Y468562D01*
X103061Y476717D01*
X90829Y476717D01*
X90829Y481453D02*
X103061Y481453D01*
X103061Y487569D01*
X101022Y489608D01*
X92867Y489608D01*
X90829Y487569D01*
X90829Y481453D01*
X118789Y470044D02*
X122866Y474121D01*
X122866Y461889D01*
X118789Y461889D02*
X126944Y461889D01*
X144571Y470044D02*
X148648Y474121D01*
X148648Y461889D01*
X144571Y461889D02*
X152726Y461889D01*
X170353Y470044D02*
X174430Y474121D01*
X174430Y461889D01*
X170353Y461889D02*
X178508Y461889D01*
X196135Y470044D02*
X200212Y474121D01*
X200212Y461889D01*
X196135Y461889D02*
X204290Y461889D01*
X437779Y454966D02*
X450011Y454966D01*
X437779Y450889D02*
X437779Y459044D01*
X437779Y463780D02*
X450011Y471935D01*
X450011Y463780D02*
X437779Y471935D01*
X463779Y450889D02*
X476011Y450889D01*
X463779Y450889D02*
X463779Y457005D01*
X465817Y459044D01*
X469895Y459044D01*
X471934Y457005D01*
X471934Y450889D01*
X471934Y454966D02*
X476011Y459044D01*
X476011Y471935D02*
X463779Y463780D01*
X463779Y471935D02*
X476011Y463780D01*
X227219Y92361D02*
X227219Y80129D01*
X227219Y92361D02*
X233335Y92361D01*
X235374Y90323D01*
X235374Y86245D01*
X233335Y84206D01*
X227219Y84206D01*
X242149Y80129D02*
X246226Y80129D01*
X248265Y82168D01*
X248265Y86245D01*
X246226Y88284D01*
X242149Y88284D01*
X240110Y86245D01*
X240110Y82168D01*
X242149Y80129D01*
X253001Y82168D02*
X253001Y88284D01*
X253001Y82168D02*
X255040Y80129D01*
X257078Y82168D01*
X259117Y80129D01*
X261156Y82168D01*
X261156Y88284D01*
X267931Y80129D02*
X272008Y80129D01*
X267931Y80129D02*
X265892Y82168D01*
X265892Y86245D01*
X267931Y88284D01*
X272008Y88284D01*
X274047Y86245D01*
X274047Y84206D01*
X265892Y84206D01*
X278783Y80129D02*
X278783Y88284D01*
X282860Y88284D02*
X278783Y84206D01*
X282860Y88284D02*
X284899Y88284D01*
D10*
X245119Y53083D02*
X243255Y54948D01*
X239526Y54948D01*
X237662Y53083D01*
X237662Y45626D01*
X239526Y43762D01*
X243255Y43762D01*
X245119Y45626D01*
X245119Y49355D01*
X241391Y49355D01*
X249356Y43762D02*
X249356Y54948D01*
X256813Y43762D01*
X256813Y54948D01*
X261050Y54948D02*
X261050Y43762D01*
X266643Y43762D01*
X268507Y45626D01*
X268507Y53083D01*
X266643Y54948D01*
X261050Y54948D01*
X285412Y43712D02*
X292870Y43712D01*
X296598Y47441D01*
X292870Y51169D01*
X285412Y51169D01*
X289141Y55406D02*
X289141Y57270D01*
X296598Y57270D01*
X296598Y55406D02*
X296598Y59134D01*
X285412Y57270D02*
X283548Y57270D01*
X289141Y63202D02*
X296598Y63202D01*
X289141Y63202D02*
X289141Y68795D01*
X291005Y70659D01*
X296598Y70659D01*
X179138Y423762D02*
X167952Y423762D01*
X167952Y429355D01*
X169817Y431219D01*
X173545Y431219D01*
X175410Y429355D01*
X175410Y423762D01*
X179138Y435456D02*
X167952Y435456D01*
X175410Y439184D02*
X179138Y435456D01*
X175410Y439184D02*
X179138Y442913D01*
X167952Y442913D01*
X167952Y447150D02*
X179138Y447150D01*
X171681Y450878D02*
X167952Y447150D01*
X171681Y450878D02*
X167952Y454607D01*
X179138Y454607D01*
X193952Y423762D02*
X205138Y423762D01*
X193952Y423762D02*
X193952Y429355D01*
X195817Y431219D01*
X199545Y431219D01*
X201410Y429355D01*
X201410Y423762D01*
X205138Y435456D02*
X193952Y435456D01*
X201410Y439184D02*
X205138Y435456D01*
X201410Y439184D02*
X205138Y442913D01*
X193952Y442913D01*
X193952Y447150D02*
X205138Y447150D01*
X197681Y450878D02*
X193952Y447150D01*
X197681Y450878D02*
X193952Y454607D01*
X205138Y454607D01*
X218952Y423762D02*
X230138Y423762D01*
X218952Y423762D02*
X218952Y429355D01*
X220817Y431219D01*
X224545Y431219D01*
X226410Y429355D01*
X226410Y423762D01*
X230138Y435456D02*
X218952Y435456D01*
X226410Y439184D02*
X230138Y435456D01*
X226410Y439184D02*
X230138Y442913D01*
X218952Y442913D01*
X218952Y447150D02*
X230138Y447150D01*
X222681Y450878D02*
X218952Y447150D01*
X222681Y450878D02*
X218952Y454607D01*
X230138Y454607D01*
X192410Y43222D02*
X184952Y43222D01*
X192410Y43222D02*
X196138Y46951D01*
X192410Y50679D01*
X184952Y50679D01*
X184952Y60509D02*
X186817Y62373D01*
X184952Y60509D02*
X184952Y56780D01*
X186817Y54916D01*
X194274Y54916D01*
X196138Y56780D01*
X196138Y60509D01*
X194274Y62373D01*
X184952Y72203D02*
X186817Y74067D01*
X184952Y72203D02*
X184952Y68474D01*
X186817Y66610D01*
X194274Y66610D01*
X196138Y68474D01*
X196138Y72203D01*
X194274Y74067D01*
X169138Y43222D02*
X157952Y43222D01*
X157952Y48815D01*
X159817Y50679D01*
X163545Y50679D01*
X165410Y48815D01*
X165410Y43222D01*
X165410Y46951D02*
X169138Y50679D01*
X157952Y54916D02*
X157952Y62373D01*
X157952Y54916D02*
X169138Y54916D01*
X169138Y62373D01*
X163545Y58644D02*
X163545Y54916D01*
X157952Y72203D02*
X159817Y74067D01*
X157952Y72203D02*
X157952Y68474D01*
X159817Y66610D01*
X161681Y66610D01*
X163545Y68474D01*
X163545Y72203D01*
X165410Y74067D01*
X167274Y74067D01*
X169138Y72203D01*
X169138Y68474D01*
X167274Y66610D01*
X157952Y78304D02*
X157952Y85761D01*
X157952Y78304D02*
X169138Y78304D01*
X169138Y85761D01*
X163545Y82032D02*
X163545Y78304D01*
X169138Y93726D02*
X157952Y93726D01*
X157952Y89998D02*
X157952Y97455D01*
X157121Y286972D02*
X157121Y298158D01*
X160849Y298158D02*
X153392Y298158D01*
X165086Y298158D02*
X172543Y286972D01*
X165086Y286972D02*
X172543Y298158D01*
X176780Y292565D02*
X184237Y292565D01*
X188474Y296293D02*
X188474Y288836D01*
X188474Y296293D02*
X190338Y298158D01*
X194067Y298158D01*
X195931Y296293D01*
X195931Y288836D01*
X194067Y286972D01*
X190338Y286972D01*
X188474Y288836D01*
X195931Y296293D01*
X153122Y273078D02*
X153122Y261892D01*
X153122Y273078D02*
X158715Y273078D01*
X160579Y271213D01*
X160579Y267485D01*
X158715Y265621D01*
X153122Y265621D01*
X156851Y265621D02*
X160579Y261892D01*
X172273Y261892D02*
X164816Y273078D01*
X172273Y273078D02*
X164816Y261892D01*
X176510Y267485D02*
X183967Y267485D01*
X188204Y261892D02*
X191932Y261892D01*
X190068Y261892D02*
X190068Y273078D01*
X188204Y273078D02*
X191932Y273078D01*
X308952Y423762D02*
X320138Y423762D01*
X308952Y423762D02*
X308952Y429355D01*
X310817Y431219D01*
X314545Y431219D01*
X316410Y429355D01*
X316410Y423762D01*
X320138Y435456D02*
X308952Y435456D01*
X316410Y439184D02*
X320138Y435456D01*
X316410Y439184D02*
X320138Y442913D01*
X308952Y442913D01*
X308952Y447150D02*
X320138Y447150D01*
X312681Y450878D02*
X308952Y447150D01*
X312681Y450878D02*
X308952Y454607D01*
X320138Y454607D01*
X334952Y423762D02*
X346138Y423762D01*
X334952Y423762D02*
X334952Y429355D01*
X336817Y431219D01*
X340545Y431219D01*
X342410Y429355D01*
X342410Y423762D01*
X346138Y435456D02*
X334952Y435456D01*
X342410Y439184D02*
X346138Y435456D01*
X342410Y439184D02*
X346138Y442913D01*
X334952Y442913D01*
X334952Y447150D02*
X346138Y447150D01*
X338681Y450878D02*
X334952Y447150D01*
X338681Y450878D02*
X334952Y454607D01*
X346138Y454607D01*
X386952Y423762D02*
X398138Y423762D01*
X386952Y423762D02*
X386952Y429355D01*
X388817Y431219D01*
X392545Y431219D01*
X394410Y429355D01*
X394410Y423762D01*
X398138Y435456D02*
X386952Y435456D01*
X394410Y439184D02*
X398138Y435456D01*
X394410Y439184D02*
X398138Y442913D01*
X386952Y442913D01*
X386952Y447150D02*
X398138Y447150D01*
X390681Y450878D02*
X386952Y447150D01*
X390681Y450878D02*
X386952Y454607D01*
X398138Y454607D01*
D12*
X146685Y38735D02*
X137787Y38735D01*
X137787Y43184D01*
X139270Y44667D01*
X140753Y44667D01*
X142236Y43184D01*
X143719Y44667D01*
X145202Y44667D01*
X146685Y43184D01*
X146685Y38735D01*
X142236Y38735D02*
X142236Y43184D01*
X140753Y48090D02*
X146685Y48090D01*
X140753Y48090D02*
X137787Y51056D01*
X140753Y54022D01*
X146685Y54022D01*
X142236Y54022D02*
X142236Y48090D01*
X146685Y60411D02*
X137787Y60411D01*
X137787Y57445D02*
X137787Y63377D01*
X137787Y69766D02*
X146685Y69766D01*
X137787Y66801D02*
X137787Y72732D01*
X56507Y44667D02*
X56507Y38735D01*
X65405Y38735D01*
X65405Y44667D01*
X60956Y41701D02*
X60956Y38735D01*
X56507Y48090D02*
X65405Y54022D01*
X65405Y48090D02*
X56507Y54022D01*
X56507Y60411D02*
X65405Y60411D01*
X56507Y57445D02*
X56507Y63377D01*
D10*
X445586Y197336D02*
X445586Y207821D01*
X450828Y207821D01*
X452576Y206073D01*
X452576Y202578D01*
X450828Y200831D01*
X445586Y200831D01*
X449081Y200831D02*
X452576Y197336D01*
X458383Y197336D02*
X461878Y197336D01*
X458383Y197336D02*
X456635Y199083D01*
X456635Y202578D01*
X458383Y204326D01*
X461878Y204326D01*
X463625Y202578D01*
X463625Y200831D01*
X456635Y200831D01*
X467685Y197336D02*
X472927Y197336D01*
X474675Y199083D01*
X472927Y200831D01*
X469432Y200831D01*
X467685Y202578D01*
X469432Y204326D01*
X474675Y204326D01*
X480482Y197336D02*
X483977Y197336D01*
X480482Y197336D02*
X478734Y199083D01*
X478734Y202578D01*
X480482Y204326D01*
X483977Y204326D01*
X485724Y202578D01*
X485724Y200831D01*
X478734Y200831D01*
X491531Y199083D02*
X491531Y206073D01*
X491531Y199083D02*
X493279Y197336D01*
X493279Y204326D02*
X489784Y204326D01*
X474157Y225552D02*
X470662Y225552D01*
X472409Y225552D02*
X472409Y236037D01*
X470662Y236037D02*
X474157Y236037D01*
X483271Y236037D02*
X485018Y234289D01*
X483271Y236037D02*
X479776Y236037D01*
X478028Y234289D01*
X478028Y232542D01*
X479776Y230794D01*
X483271Y230794D01*
X485018Y229047D01*
X485018Y227299D01*
X483271Y225552D01*
X479776Y225552D01*
X478028Y227299D01*
X489078Y225552D02*
X489078Y236037D01*
X494320Y236037D01*
X496068Y234289D01*
X496068Y230794D01*
X494320Y229047D01*
X489078Y229047D01*
X160849Y247358D02*
X153392Y247358D01*
X153392Y241765D01*
X157121Y243629D01*
X158985Y243629D01*
X160849Y241765D01*
X160849Y238036D01*
X158985Y236172D01*
X155256Y236172D01*
X153392Y238036D01*
X165086Y236172D02*
X172543Y247358D01*
X176780Y245493D02*
X178644Y247358D01*
X182373Y247358D01*
X184237Y245493D01*
X184237Y243629D01*
X182373Y241765D01*
X180508Y241765D01*
X182373Y241765D02*
X184237Y239901D01*
X184237Y238036D01*
X182373Y236172D01*
X178644Y236172D01*
X176780Y238036D01*
X188474Y238036D02*
X188474Y236172D01*
X188474Y238036D02*
X190338Y238036D01*
X190338Y236172D01*
X188474Y236172D01*
X194321Y245493D02*
X196185Y247358D01*
X199914Y247358D01*
X201778Y245493D01*
X201778Y243629D01*
X199914Y241765D01*
X198049Y241765D01*
X199914Y241765D02*
X201778Y239901D01*
X201778Y238036D01*
X199914Y236172D01*
X196185Y236172D01*
X194321Y238036D01*
X206015Y239901D02*
X206015Y247358D01*
X206015Y239901D02*
X209743Y236172D01*
X213472Y239901D01*
X213472Y247358D01*
X160579Y219143D02*
X158715Y221008D01*
X154986Y221008D01*
X153122Y219143D01*
X153122Y211686D01*
X154986Y209822D01*
X158715Y209822D01*
X160579Y211686D01*
X160579Y215415D01*
X156851Y215415D01*
X164816Y209822D02*
X164816Y221008D01*
X172273Y209822D01*
X172273Y221008D01*
X176510Y221008D02*
X176510Y209822D01*
X182103Y209822D01*
X183967Y211686D01*
X183967Y219143D01*
X182103Y221008D01*
X176510Y221008D01*
X8382Y430022D02*
X8382Y441208D01*
X13975Y441208D01*
X15839Y439343D01*
X15839Y437479D01*
X13975Y435615D01*
X15839Y433751D01*
X15839Y431886D01*
X13975Y430022D01*
X8382Y430022D01*
X8382Y435615D02*
X13975Y435615D01*
X21940Y437479D02*
X25669Y437479D01*
X27533Y435615D01*
X27533Y430022D01*
X21940Y430022D01*
X20076Y431886D01*
X21940Y433751D01*
X27533Y433751D01*
X33634Y431886D02*
X33634Y439343D01*
X33634Y431886D02*
X35498Y430022D01*
X35498Y437479D02*
X31770Y437479D01*
X41430Y439343D02*
X41430Y431886D01*
X43294Y430022D01*
X43294Y437479D02*
X39566Y437479D01*
X111252Y393705D02*
X118709Y393705D01*
X114981Y397433D02*
X114981Y389976D01*
X111252Y368305D02*
X118709Y368305D01*
X15839Y161295D02*
X8382Y161295D01*
X12111Y165023D02*
X12111Y157566D01*
X8382Y95255D02*
X15839Y95255D01*
X153392Y312372D02*
X153392Y323558D01*
X158985Y323558D01*
X160849Y321693D01*
X160849Y317965D01*
X158985Y316101D01*
X153392Y316101D01*
X157121Y316101D02*
X160849Y312372D01*
X170679Y323558D02*
X172543Y321693D01*
X170679Y323558D02*
X166950Y323558D01*
X165086Y321693D01*
X165086Y319829D01*
X166950Y317965D01*
X170679Y317965D01*
X172543Y316101D01*
X172543Y314236D01*
X170679Y312372D01*
X166950Y312372D01*
X165086Y314236D01*
X180508Y312372D02*
X180508Y323558D01*
X176780Y323558D02*
X184237Y323558D01*
X158715Y195608D02*
X160579Y193743D01*
X158715Y195608D02*
X154986Y195608D01*
X153122Y193743D01*
X153122Y186286D01*
X154986Y184422D01*
X158715Y184422D01*
X160579Y186286D01*
X160579Y190015D01*
X156851Y190015D01*
X164816Y184422D02*
X164816Y195608D01*
X172273Y184422D01*
X172273Y195608D01*
X176510Y195608D02*
X176510Y184422D01*
X182103Y184422D01*
X183967Y186286D01*
X183967Y193743D01*
X182103Y195608D01*
X176510Y195608D01*
D12*
X11434Y78113D02*
X11434Y69215D01*
X6985Y73664D02*
X11434Y78113D01*
X12917Y73664D02*
X6985Y73664D01*
X16340Y73664D02*
X22272Y73664D01*
X25695Y75147D02*
X28661Y78113D01*
X28661Y69215D01*
X25695Y69215D02*
X31627Y69215D01*
X35051Y69215D02*
X40982Y69215D01*
X35051Y69215D02*
X40982Y75147D01*
X40982Y76630D01*
X39499Y78113D01*
X36533Y78113D01*
X35051Y76630D01*
X44406Y78113D02*
X44406Y72181D01*
X47372Y69215D01*
X50337Y72181D01*
X50337Y78113D01*
D10*
X14569Y332663D02*
X12705Y334528D01*
X8976Y334528D01*
X7112Y332663D01*
X7112Y325206D01*
X8976Y323342D01*
X12705Y323342D01*
X14569Y325206D01*
X14569Y328935D01*
X10841Y328935D01*
X18806Y323342D02*
X18806Y334528D01*
X24399Y334528D01*
X26263Y332663D01*
X26263Y328935D01*
X24399Y327071D01*
X18806Y327071D01*
X22534Y327071D02*
X26263Y323342D01*
X30500Y323342D02*
X30500Y334528D01*
X37957Y323342D01*
X37957Y334528D01*
X7112Y187208D02*
X7112Y176022D01*
X7112Y187208D02*
X12705Y187208D01*
X14569Y185343D01*
X14569Y183479D01*
X12705Y181615D01*
X14569Y179751D01*
X14569Y177886D01*
X12705Y176022D01*
X7112Y176022D01*
X7112Y181615D02*
X12705Y181615D01*
X18806Y187208D02*
X18806Y176022D01*
X26263Y176022D01*
X30500Y176022D02*
X30500Y187208D01*
X30500Y179751D02*
X37957Y187208D01*
X32364Y181615D02*
X37957Y176022D01*
D13*
X290703Y360553D02*
X290703Y371908D01*
X296381Y377586D01*
X302058Y371908D01*
X302058Y360553D01*
X302058Y369069D02*
X290703Y369069D01*
X308478Y371908D02*
X308478Y360553D01*
X308478Y366231D02*
X314155Y371908D01*
X316994Y371908D01*
X334645Y377586D02*
X334645Y360553D01*
X326129Y360553D01*
X323290Y363392D01*
X323290Y369069D01*
X326129Y371908D01*
X334645Y371908D01*
X341065Y371908D02*
X341065Y363392D01*
X343904Y360553D01*
X352420Y360553D01*
X352420Y371908D01*
X358840Y371908D02*
X361679Y371908D01*
X361679Y360553D01*
X364517Y360553D02*
X358840Y360553D01*
X361679Y377586D02*
X361679Y380424D01*
X370690Y371908D02*
X370690Y360553D01*
X370690Y371908D02*
X379206Y371908D01*
X382045Y369069D01*
X382045Y360553D01*
X391303Y360553D02*
X396981Y360553D01*
X399820Y363392D01*
X399820Y369069D01*
X396981Y371908D01*
X391303Y371908D01*
X388465Y369069D01*
X388465Y363392D01*
X391303Y360553D01*
X424014Y360553D02*
X424014Y377586D01*
X432531Y377586D01*
X435369Y374747D01*
X435369Y369069D01*
X432531Y366231D01*
X424014Y366231D01*
X441789Y360553D02*
X441789Y371908D01*
X441789Y366231D02*
X447467Y371908D01*
X450305Y371908D01*
X459440Y360553D02*
X465118Y360553D01*
X467957Y363392D01*
X467957Y369069D01*
X465118Y371908D01*
X459440Y371908D01*
X456602Y369069D01*
X456602Y363392D01*
X459440Y360553D01*
D10*
X231226Y392948D02*
X229362Y391083D01*
X231226Y392948D02*
X234955Y392948D01*
X236819Y391083D01*
X236819Y389219D01*
X234955Y387355D01*
X233091Y387355D01*
X234955Y387355D02*
X236819Y385491D01*
X236819Y383626D01*
X234955Y381762D01*
X231226Y381762D01*
X229362Y383626D01*
X241056Y383626D02*
X241056Y381762D01*
X241056Y383626D02*
X242920Y383626D01*
X242920Y381762D01*
X241056Y381762D01*
X246903Y391083D02*
X248767Y392948D01*
X252496Y392948D01*
X254360Y391083D01*
X254360Y389219D01*
X252496Y387355D01*
X250631Y387355D01*
X252496Y387355D02*
X254360Y385491D01*
X254360Y383626D01*
X252496Y381762D01*
X248767Y381762D01*
X246903Y383626D01*
X258597Y385491D02*
X258597Y392948D01*
X258597Y385491D02*
X262325Y381762D01*
X266054Y385491D01*
X266054Y392948D01*
X236819Y367548D02*
X229362Y367548D01*
X229362Y361955D01*
X233091Y363819D01*
X234955Y363819D01*
X236819Y361955D01*
X236819Y358226D01*
X234955Y356362D01*
X231226Y356362D01*
X229362Y358226D01*
X241056Y360091D02*
X241056Y367548D01*
X241056Y360091D02*
X244784Y356362D01*
X248513Y360091D01*
X248513Y367548D01*
X231226Y342148D02*
X229362Y340283D01*
X231226Y342148D02*
X234955Y342148D01*
X236819Y340283D01*
X236819Y338419D01*
X234955Y336555D01*
X236819Y334691D01*
X236819Y332826D01*
X234955Y330962D01*
X231226Y330962D01*
X229362Y332826D01*
X229362Y334691D01*
X231226Y336555D01*
X229362Y338419D01*
X229362Y340283D01*
X231226Y336555D02*
X234955Y336555D01*
X241056Y330962D02*
X241056Y342148D01*
X244784Y338419D01*
X248513Y342148D01*
X248513Y330962D01*
X252750Y330962D02*
X252750Y342148D01*
X252750Y336555D02*
X260207Y336555D01*
X260207Y342148D02*
X260207Y330962D01*
X264444Y338419D02*
X271901Y338419D01*
X264444Y330962D01*
X271901Y330962D01*
X233091Y316748D02*
X229362Y313019D01*
X233091Y316748D02*
X233091Y305562D01*
X236819Y305562D02*
X229362Y305562D01*
X244784Y314883D02*
X248513Y316748D01*
X244784Y314883D02*
X241056Y311155D01*
X241056Y307426D01*
X242920Y305562D01*
X246649Y305562D01*
X248513Y307426D01*
X248513Y309291D01*
X246649Y311155D01*
X241056Y311155D01*
X252750Y305562D02*
X252750Y316748D01*
X256478Y313019D01*
X260207Y316748D01*
X260207Y305562D01*
X264444Y305562D02*
X264444Y316748D01*
X264444Y311155D02*
X271901Y311155D01*
X271901Y316748D02*
X271901Y305562D01*
X276138Y313019D02*
X283595Y313019D01*
X276138Y305562D01*
X283595Y305562D01*
X236819Y280162D02*
X229362Y280162D01*
X236819Y287619D01*
X236819Y289483D01*
X234955Y291348D01*
X231226Y291348D01*
X229362Y289483D01*
X241056Y289483D02*
X241056Y282026D01*
X241056Y289483D02*
X242920Y291348D01*
X246649Y291348D01*
X248513Y289483D01*
X248513Y282026D01*
X246649Y280162D01*
X242920Y280162D01*
X241056Y282026D01*
X248513Y289483D01*
X252750Y291348D02*
X252750Y280162D01*
X256478Y287619D02*
X252750Y291348D01*
X256478Y287619D02*
X260207Y291348D01*
X260207Y280162D01*
X264444Y280162D02*
X264444Y291348D01*
X264444Y285755D02*
X271901Y285755D01*
X271901Y291348D02*
X271901Y280162D01*
X276138Y287619D02*
X283595Y287619D01*
X276138Y280162D01*
X283595Y280162D01*
D14*
X284226Y340023D02*
X284226Y347396D01*
X284226Y340023D02*
X286683Y337566D01*
X289141Y340023D01*
X291598Y337566D01*
X294056Y340023D01*
X294056Y347396D01*
X299662Y347396D02*
X299662Y340023D01*
X302119Y337566D01*
X304577Y340023D01*
X307034Y337566D01*
X309492Y340023D01*
X309492Y347396D01*
X315098Y347396D02*
X315098Y340023D01*
X317556Y337566D01*
X320013Y340023D01*
X322470Y337566D01*
X324928Y340023D01*
X324928Y347396D01*
X330534Y340023D02*
X330534Y337566D01*
X330534Y340023D02*
X332992Y340023D01*
X332992Y337566D01*
X330534Y337566D01*
X340710Y347396D02*
X345625Y347396D01*
X348082Y344938D01*
X348082Y337566D01*
X340710Y337566D01*
X338252Y340023D01*
X340710Y342481D01*
X348082Y342481D01*
X353688Y337566D02*
X353688Y347396D01*
X353688Y342481D02*
X358603Y347396D01*
X361061Y347396D01*
X376381Y352311D02*
X376381Y337566D01*
X369009Y337566D01*
X366552Y340023D01*
X366552Y344938D01*
X369009Y347396D01*
X376381Y347396D01*
X381988Y347396D02*
X381988Y340023D01*
X384445Y337566D01*
X391817Y337566D01*
X391817Y347396D01*
X397424Y347396D02*
X399881Y347396D01*
X399881Y337566D01*
X397424Y337566D02*
X402339Y337566D01*
X399881Y352311D02*
X399881Y354768D01*
X407714Y347396D02*
X407714Y337566D01*
X407714Y347396D02*
X415087Y347396D01*
X417544Y344938D01*
X417544Y337566D01*
X425608Y337566D02*
X430523Y337566D01*
X432980Y340023D01*
X432980Y344938D01*
X430523Y347396D01*
X425608Y347396D01*
X423151Y344938D01*
X423151Y340023D01*
X425608Y337566D01*
X438587Y337566D02*
X438587Y340023D01*
X441044Y340023D01*
X441044Y337566D01*
X438587Y337566D01*
X448762Y347396D02*
X456134Y347396D01*
X448762Y347396D02*
X446305Y344938D01*
X446305Y340023D01*
X448762Y337566D01*
X456134Y337566D01*
X464198Y347396D02*
X471570Y347396D01*
X464198Y347396D02*
X461741Y344938D01*
X461741Y340023D01*
X464198Y337566D01*
X471570Y337566D01*
D10*
X-278638Y610362D02*
X-278638Y626632D01*
X-270503Y626632D01*
X-267791Y623920D01*
X-267791Y618497D01*
X-270503Y615785D01*
X-278638Y615785D01*
X-273215Y615785D02*
X-267791Y610362D01*
X-259555Y610362D02*
X-254132Y610362D01*
X-259555Y610362D02*
X-262266Y613074D01*
X-262266Y618497D01*
X-259555Y621209D01*
X-254132Y621209D01*
X-251420Y618497D01*
X-251420Y615785D01*
X-262266Y615785D01*
X-245895Y626632D02*
X-243183Y626632D01*
X-243183Y610362D01*
X-240472Y610362D02*
X-245895Y610362D01*
X-232269Y610362D02*
X-226846Y610362D01*
X-232269Y610362D02*
X-234981Y613074D01*
X-234981Y618497D01*
X-232269Y621209D01*
X-226846Y621209D01*
X-224134Y618497D01*
X-224134Y615785D01*
X-234981Y615785D01*
X-215897Y621209D02*
X-210474Y621209D01*
X-207762Y618497D01*
X-207762Y610362D01*
X-215897Y610362D01*
X-218609Y613074D01*
X-215897Y615785D01*
X-207762Y615785D01*
X-202237Y610362D02*
X-194102Y610362D01*
X-191391Y613074D01*
X-194102Y615785D01*
X-199526Y615785D01*
X-202237Y618497D01*
X-199526Y621209D01*
X-191391Y621209D01*
X-183154Y610362D02*
X-177731Y610362D01*
X-183154Y610362D02*
X-185866Y613074D01*
X-185866Y618497D01*
X-183154Y621209D01*
X-177731Y621209D01*
X-175019Y618497D01*
X-175019Y615785D01*
X-185866Y615785D01*
X-158648Y610362D02*
X-158648Y626632D01*
X-158648Y610362D02*
X-166783Y610362D01*
X-169494Y613074D01*
X-169494Y618497D01*
X-166783Y621209D01*
X-158648Y621209D01*
X-136751Y621209D02*
X-136751Y613074D01*
X-134040Y610362D01*
X-125905Y610362D01*
X-125905Y621209D01*
X-120380Y621209D02*
X-120380Y610362D01*
X-120380Y621209D02*
X-112245Y621209D01*
X-109533Y618497D01*
X-109533Y610362D01*
X-93161Y610362D02*
X-93161Y626632D01*
X-93161Y610362D02*
X-101296Y610362D01*
X-104008Y613074D01*
X-104008Y618497D01*
X-101296Y621209D01*
X-93161Y621209D01*
X-84925Y610362D02*
X-79502Y610362D01*
X-84925Y610362D02*
X-87636Y613074D01*
X-87636Y618497D01*
X-84925Y621209D01*
X-79502Y621209D01*
X-76790Y618497D01*
X-76790Y615785D01*
X-87636Y615785D01*
X-71265Y610362D02*
X-71265Y621209D01*
X-65842Y621209D02*
X-71265Y615785D01*
X-65842Y621209D02*
X-63130Y621209D01*
X-38539Y623920D02*
X-38539Y613074D01*
X-35827Y610362D01*
X-35827Y621209D02*
X-41250Y621209D01*
X-30336Y626632D02*
X-30336Y610362D01*
X-30336Y618497D02*
X-27624Y621209D01*
X-22201Y621209D01*
X-19489Y618497D01*
X-19489Y610362D01*
X-11253Y610362D02*
X-5829Y610362D01*
X-11253Y610362D02*
X-13964Y613074D01*
X-13964Y618497D01*
X-11253Y621209D01*
X-5829Y621209D01*
X-3118Y618497D01*
X-3118Y615785D01*
X-13964Y615785D01*
X26914Y626632D02*
X29625Y623920D01*
X26914Y626632D02*
X21490Y626632D01*
X18779Y623920D01*
X18779Y613074D01*
X21490Y610362D01*
X26914Y610362D01*
X29625Y613074D01*
X35150Y610362D02*
X35150Y621209D01*
X35150Y615785D02*
X40574Y621209D01*
X43285Y621209D01*
X51505Y610362D02*
X56928Y610362D01*
X51505Y610362D02*
X48793Y613074D01*
X48793Y618497D01*
X51505Y621209D01*
X56928Y621209D01*
X59640Y618497D01*
X59640Y615785D01*
X48793Y615785D01*
X67876Y621209D02*
X73300Y621209D01*
X76011Y618497D01*
X76011Y610362D01*
X67876Y610362D01*
X65165Y613074D01*
X67876Y615785D01*
X76011Y615785D01*
X84248Y613074D02*
X84248Y623920D01*
X84248Y613074D02*
X86960Y610362D01*
X86960Y621209D02*
X81536Y621209D01*
X92451Y621209D02*
X95162Y621209D01*
X95162Y610362D01*
X92451Y610362D02*
X97874Y610362D01*
X95162Y626632D02*
X95162Y629344D01*
X103365Y621209D02*
X108788Y610362D01*
X114212Y621209D01*
X122448Y610362D02*
X127872Y610362D01*
X122448Y610362D02*
X119737Y613074D01*
X119737Y618497D01*
X122448Y621209D01*
X127872Y621209D01*
X130583Y618497D01*
X130583Y615785D01*
X119737Y615785D01*
X160615Y626632D02*
X163326Y623920D01*
X160615Y626632D02*
X155191Y626632D01*
X152480Y623920D01*
X152480Y613074D01*
X155191Y610362D01*
X160615Y610362D01*
X163326Y613074D01*
X171563Y610362D02*
X176986Y610362D01*
X179698Y613074D01*
X179698Y618497D01*
X176986Y621209D01*
X171563Y621209D01*
X168851Y618497D01*
X168851Y613074D01*
X171563Y610362D01*
X185223Y610362D02*
X185223Y621209D01*
X187935Y621209D01*
X190646Y618497D01*
X190646Y610362D01*
X190646Y618497D02*
X193358Y621209D01*
X196070Y618497D01*
X196070Y610362D01*
X201595Y610362D02*
X201595Y621209D01*
X204306Y621209D01*
X207018Y618497D01*
X207018Y610362D01*
X207018Y618497D02*
X209729Y621209D01*
X212441Y618497D01*
X212441Y610362D01*
X220678Y610362D02*
X226101Y610362D01*
X228813Y613074D01*
X228813Y618497D01*
X226101Y621209D01*
X220678Y621209D01*
X217966Y618497D01*
X217966Y613074D01*
X220678Y610362D01*
X234338Y610362D02*
X234338Y621209D01*
X242473Y621209D01*
X245184Y618497D01*
X245184Y610362D01*
X250709Y610362D02*
X258844Y610362D01*
X261556Y613074D01*
X258844Y615785D01*
X253421Y615785D01*
X250709Y618497D01*
X253421Y621209D01*
X261556Y621209D01*
X283452Y621209D02*
X283452Y610362D01*
X283452Y621209D02*
X288876Y626632D01*
X294299Y621209D01*
X294299Y610362D01*
X294299Y618497D02*
X283452Y618497D01*
X302536Y623920D02*
X302536Y613074D01*
X305247Y610362D01*
X305247Y621209D02*
X299824Y621209D01*
X313450Y623920D02*
X313450Y613074D01*
X316162Y610362D01*
X316162Y621209D02*
X310738Y621209D01*
X321653Y621209D02*
X321653Y610362D01*
X321653Y615785D02*
X327076Y621209D01*
X329788Y621209D01*
X335296Y621209D02*
X338007Y621209D01*
X338007Y610362D01*
X335296Y610362D02*
X340719Y610362D01*
X338007Y626632D02*
X338007Y629344D01*
X346210Y626632D02*
X346210Y610362D01*
X354345Y610362D01*
X357057Y613074D01*
X357057Y618497D01*
X354345Y621209D01*
X346210Y621209D01*
X362582Y621209D02*
X362582Y613074D01*
X365293Y610362D01*
X373428Y610362D01*
X373428Y621209D01*
X381665Y623920D02*
X381665Y613074D01*
X384376Y610362D01*
X384376Y621209D02*
X378953Y621209D01*
X389867Y621209D02*
X392579Y621209D01*
X392579Y610362D01*
X389867Y610362D02*
X395291Y610362D01*
X392579Y626632D02*
X392579Y629344D01*
X403493Y610362D02*
X408917Y610362D01*
X411628Y613074D01*
X411628Y618497D01*
X408917Y621209D01*
X403493Y621209D01*
X400782Y618497D01*
X400782Y613074D01*
X403493Y610362D01*
X417153Y610362D02*
X417153Y621209D01*
X425288Y621209D01*
X428000Y618497D01*
X428000Y610362D01*
X458031Y626632D02*
X460743Y623920D01*
X458031Y626632D02*
X452608Y626632D01*
X449897Y623920D01*
X449897Y621209D01*
X452608Y618497D01*
X458031Y618497D01*
X460743Y615785D01*
X460743Y613074D01*
X458031Y610362D01*
X452608Y610362D01*
X449897Y613074D01*
X466268Y610362D02*
X466268Y626632D01*
X468980Y621209D02*
X466268Y618497D01*
X468980Y621209D02*
X474403Y621209D01*
X477115Y618497D01*
X477115Y610362D01*
X485351Y621209D02*
X490775Y621209D01*
X493486Y618497D01*
X493486Y610362D01*
X485351Y610362D01*
X482640Y613074D01*
X485351Y615785D01*
X493486Y615785D01*
X499011Y610362D02*
X499011Y621209D01*
X499011Y615785D02*
X504435Y621209D01*
X507146Y621209D01*
X515366Y610362D02*
X520789Y610362D01*
X515366Y610362D02*
X512654Y613074D01*
X512654Y618497D01*
X515366Y621209D01*
X520789Y621209D01*
X523501Y618497D01*
X523501Y615785D01*
X512654Y615785D01*
X529026Y618497D02*
X539872Y618497D01*
X545397Y621209D02*
X545397Y610362D01*
X545397Y621209D02*
X550821Y626632D01*
X556244Y621209D01*
X556244Y610362D01*
X556244Y618497D02*
X545397Y618497D01*
X561769Y626632D02*
X564481Y626632D01*
X564481Y610362D01*
X567192Y610362D02*
X561769Y610362D01*
X572683Y621209D02*
X575395Y621209D01*
X575395Y610362D01*
X572683Y610362D02*
X578107Y610362D01*
X575395Y626632D02*
X575395Y629344D01*
X583598Y626632D02*
X583598Y610362D01*
X583598Y615785D02*
X591733Y610362D01*
X583598Y615785D02*
X591733Y621209D01*
X599952Y610362D02*
X605376Y610362D01*
X599952Y610362D02*
X597241Y613074D01*
X597241Y618497D01*
X599952Y621209D01*
X605376Y621209D01*
X608087Y618497D01*
X608087Y615785D01*
X597241Y615785D01*
X629984Y623920D02*
X632695Y626632D01*
X638119Y626632D01*
X640830Y623920D01*
X640830Y621209D01*
X638119Y618497D01*
X635407Y618497D01*
X638119Y618497D02*
X640830Y615785D01*
X640830Y613074D01*
X638119Y610362D01*
X632695Y610362D01*
X629984Y613074D01*
X646355Y613074D02*
X646355Y610362D01*
X646355Y613074D02*
X649067Y613074D01*
X649067Y610362D01*
X646355Y610362D01*
X654541Y613074D02*
X654541Y623920D01*
X657253Y626632D01*
X662676Y626632D01*
X665388Y623920D01*
X665388Y613074D01*
X662676Y610362D01*
X657253Y610362D01*
X654541Y613074D01*
X665388Y623920D01*
X687284Y626632D02*
X687284Y610362D01*
X698131Y610362D01*
X703656Y621209D02*
X706367Y621209D01*
X706367Y610362D01*
X703656Y610362D02*
X709079Y610362D01*
X706367Y626632D02*
X706367Y629344D01*
X717282Y621209D02*
X725417Y621209D01*
X717282Y621209D02*
X714570Y618497D01*
X714570Y613074D01*
X717282Y610362D01*
X725417Y610362D01*
X733653Y610362D02*
X739077Y610362D01*
X733653Y610362D02*
X730942Y613074D01*
X730942Y618497D01*
X733653Y621209D01*
X739077Y621209D01*
X741788Y618497D01*
X741788Y615785D01*
X730942Y615785D01*
X747313Y610362D02*
X747313Y621209D01*
X755448Y621209D01*
X758160Y618497D01*
X758160Y610362D01*
X763685Y610362D02*
X771820Y610362D01*
X774531Y613074D01*
X771820Y615785D01*
X766396Y615785D01*
X763685Y618497D01*
X766396Y621209D01*
X774531Y621209D01*
X782768Y610362D02*
X788191Y610362D01*
X782768Y610362D02*
X780056Y613074D01*
X780056Y618497D01*
X782768Y621209D01*
X788191Y621209D01*
X790903Y618497D01*
X790903Y615785D01*
X780056Y615785D01*
X-75438Y601232D02*
X-75438Y584962D01*
X-75438Y593097D02*
X-72726Y595809D01*
X-67303Y595809D01*
X-64591Y593097D01*
X-64591Y584962D01*
X-56355Y587674D02*
X-56355Y598520D01*
X-56355Y587674D02*
X-53643Y584962D01*
X-53643Y595809D02*
X-59066Y595809D01*
X-45440Y598520D02*
X-45440Y587674D01*
X-42729Y584962D01*
X-42729Y595809D02*
X-48152Y595809D01*
X-37238Y595809D02*
X-37238Y579539D01*
X-37238Y595809D02*
X-29103Y595809D01*
X-26391Y593097D01*
X-26391Y587674D01*
X-29103Y584962D01*
X-37238Y584962D01*
X-20866Y595809D02*
X-18155Y595809D01*
X-18155Y593097D01*
X-20866Y593097D01*
X-20866Y595809D01*
X-20866Y587674D02*
X-18155Y587674D01*
X-18155Y584962D01*
X-20866Y584962D01*
X-20866Y587674D01*
X-12680Y584962D02*
X-1834Y601232D01*
X14538Y601232D02*
X3691Y584962D01*
X22774Y595809D02*
X30909Y595809D01*
X22774Y595809D02*
X20063Y593097D01*
X20063Y587674D01*
X22774Y584962D01*
X30909Y584962D01*
X36434Y584962D02*
X36434Y595809D01*
X36434Y590385D02*
X41858Y595809D01*
X44569Y595809D01*
X52789Y584962D02*
X58212Y584962D01*
X52789Y584962D02*
X50077Y587674D01*
X50077Y593097D01*
X52789Y595809D01*
X58212Y595809D01*
X60924Y593097D01*
X60924Y590385D01*
X50077Y590385D01*
X69161Y595809D02*
X74584Y595809D01*
X77295Y593097D01*
X77295Y584962D01*
X69161Y584962D01*
X66449Y587674D01*
X69161Y590385D01*
X77295Y590385D01*
X85532Y587674D02*
X85532Y598520D01*
X85532Y587674D02*
X88244Y584962D01*
X88244Y595809D02*
X82820Y595809D01*
X93735Y595809D02*
X96446Y595809D01*
X96446Y584962D01*
X93735Y584962D02*
X99158Y584962D01*
X96446Y601232D02*
X96446Y603944D01*
X104649Y595809D02*
X110072Y584962D01*
X115496Y595809D01*
X123732Y584962D02*
X129156Y584962D01*
X123732Y584962D02*
X121021Y587674D01*
X121021Y593097D01*
X123732Y595809D01*
X129156Y595809D01*
X131867Y593097D01*
X131867Y590385D01*
X121021Y590385D01*
X140104Y595809D02*
X148239Y595809D01*
X140104Y595809D02*
X137392Y593097D01*
X137392Y587674D01*
X140104Y584962D01*
X148239Y584962D01*
X156476Y584962D02*
X161899Y584962D01*
X164610Y587674D01*
X164610Y593097D01*
X161899Y595809D01*
X156476Y595809D01*
X153764Y593097D01*
X153764Y587674D01*
X156476Y584962D01*
X170135Y584962D02*
X170135Y595809D01*
X172847Y595809D01*
X175559Y593097D01*
X175559Y584962D01*
X175559Y593097D02*
X178270Y595809D01*
X180982Y593097D01*
X180982Y584962D01*
X186507Y584962D02*
X186507Y595809D01*
X189219Y595809D01*
X191930Y593097D01*
X191930Y584962D01*
X191930Y593097D02*
X194642Y595809D01*
X197354Y593097D01*
X197354Y584962D01*
X205590Y584962D02*
X211014Y584962D01*
X213725Y587674D01*
X213725Y593097D01*
X211014Y595809D01*
X205590Y595809D01*
X202879Y593097D01*
X202879Y587674D01*
X205590Y584962D01*
X219250Y584962D02*
X219250Y595809D01*
X227385Y595809D01*
X230097Y593097D01*
X230097Y584962D01*
X235622Y584962D02*
X243757Y584962D01*
X246468Y587674D01*
X243757Y590385D01*
X238333Y590385D01*
X235622Y593097D01*
X238333Y595809D01*
X246468Y595809D01*
X251993Y587674D02*
X251993Y584962D01*
X251993Y587674D02*
X254705Y587674D01*
X254705Y584962D01*
X251993Y584962D01*
X262891Y584962D02*
X268314Y584962D01*
X271026Y587674D01*
X271026Y593097D01*
X268314Y595809D01*
X262891Y595809D01*
X260179Y593097D01*
X260179Y587674D01*
X262891Y584962D01*
X276551Y584962D02*
X276551Y595809D01*
X281974Y595809D02*
X276551Y590385D01*
X281974Y595809D02*
X284686Y595809D01*
X295617Y579539D02*
X298329Y579539D01*
X301040Y582250D01*
X301040Y595809D01*
X292905Y595809D01*
X290194Y593097D01*
X290194Y587674D01*
X292905Y584962D01*
X301040Y584962D01*
X306565Y584962D02*
X317412Y601232D01*
X322937Y601232D02*
X325648Y601232D01*
X325648Y584962D01*
X322937Y584962D02*
X328360Y584962D01*
X333851Y595809D02*
X336563Y595809D01*
X336563Y584962D01*
X339274Y584962D02*
X333851Y584962D01*
X336563Y601232D02*
X336563Y603944D01*
X347477Y595809D02*
X355612Y595809D01*
X347477Y595809D02*
X344765Y593097D01*
X344765Y587674D01*
X347477Y584962D01*
X355612Y584962D01*
X363849Y584962D02*
X369272Y584962D01*
X363849Y584962D02*
X361137Y587674D01*
X361137Y593097D01*
X363849Y595809D01*
X369272Y595809D01*
X371984Y593097D01*
X371984Y590385D01*
X361137Y590385D01*
X377509Y584962D02*
X377509Y595809D01*
X385644Y595809D01*
X388355Y593097D01*
X388355Y584962D01*
X393880Y584962D02*
X402015Y584962D01*
X404727Y587674D01*
X402015Y590385D01*
X396592Y590385D01*
X393880Y593097D01*
X396592Y595809D01*
X404727Y595809D01*
X412963Y584962D02*
X418387Y584962D01*
X412963Y584962D02*
X410252Y587674D01*
X410252Y593097D01*
X412963Y595809D01*
X418387Y595809D01*
X421098Y593097D01*
X421098Y590385D01*
X410252Y590385D01*
X426623Y584962D02*
X434758Y584962D01*
X437470Y587674D01*
X434758Y590385D01*
X429335Y590385D01*
X426623Y593097D01*
X429335Y595809D01*
X437470Y595809D01*
X442995Y584962D02*
X453841Y601232D01*
X459366Y601232D02*
X459366Y584962D01*
X467501Y584962D01*
X470213Y587674D01*
X470213Y593097D01*
X467501Y595809D01*
X459366Y595809D01*
X475738Y595809D02*
X475738Y587674D01*
X478450Y584962D01*
X486585Y584962D01*
X486585Y582250D02*
X486585Y595809D01*
X486585Y582250D02*
X483873Y579539D01*
X481161Y579539D01*
X492110Y593097D02*
X502956Y593097D01*
X508481Y584962D02*
X516616Y584962D01*
X519328Y587674D01*
X516616Y590385D01*
X511193Y590385D01*
X508481Y593097D01*
X511193Y595809D01*
X519328Y595809D01*
X527564Y595809D02*
X532988Y595809D01*
X535699Y593097D01*
X535699Y584962D01*
X527564Y584962D01*
X524853Y587674D01*
X527564Y590385D01*
X535699Y590385D01*
X541224Y584962D02*
X552071Y601232D01*
X557596Y598520D02*
X560307Y601232D01*
X565731Y601232D01*
X568442Y598520D01*
X568442Y595809D01*
X565731Y593097D01*
X563019Y593097D01*
X565731Y593097D02*
X568442Y590385D01*
X568442Y587674D01*
X565731Y584962D01*
X560307Y584962D01*
X557596Y587674D01*
X573967Y587674D02*
X573967Y584962D01*
X573967Y587674D02*
X576679Y587674D01*
X576679Y584962D01*
X573967Y584962D01*
X582153Y587674D02*
X582153Y598520D01*
X584865Y601232D01*
X590288Y601232D01*
X593000Y598520D01*
X593000Y587674D01*
X590288Y584962D01*
X584865Y584962D01*
X582153Y587674D01*
X593000Y598520D01*
D15*
X215900Y387350D03*
X215900Y361950D03*
X215900Y336550D03*
X215900Y311150D03*
X215900Y285750D03*
D14*
X106520Y106810D02*
X106520Y85810D01*
X52520Y85810D02*
X-480Y85810D01*
X99520Y85810D02*
X106520Y85810D01*
X106520Y175810D02*
X-480Y175810D01*
X106520Y175810D02*
X106520Y154810D01*
X-480Y175810D02*
X-480Y85810D01*
D10*
X-27006Y182372D02*
X-29718Y185084D01*
X-27006Y182372D02*
X-24295Y182372D01*
X-21583Y185084D01*
X-21583Y198642D01*
X-24295Y198642D02*
X-18871Y198642D01*
X-13346Y198642D02*
X-13346Y182372D01*
X-13346Y198642D02*
X-5212Y198642D01*
X-2500Y195930D01*
X-2500Y190507D01*
X-5212Y187795D01*
X-13346Y187795D01*
X11160Y182372D02*
X11160Y198642D01*
X3025Y190507D01*
X13872Y190507D01*
D16*
X342595Y88900D02*
X343205Y88900D01*
D17*
X350009Y88597D02*
X350644Y89233D01*
X350009Y88597D02*
X350009Y87326D01*
X350644Y86691D01*
X353186Y86691D01*
X353822Y87326D01*
X353822Y88597D01*
X353186Y89233D01*
X351280Y90433D02*
X350009Y91704D01*
X353822Y91704D01*
X353822Y90433D02*
X353822Y92975D01*
X353186Y94175D02*
X350644Y94175D01*
X350009Y94810D01*
X350009Y96082D01*
X350644Y96717D01*
X353186Y96717D01*
X353822Y96082D01*
X353822Y94810D01*
X353186Y94175D01*
X350644Y96717D01*
D14*
X329500Y78900D02*
X329500Y63900D01*
X305500Y63900D01*
X305500Y78900D01*
X329500Y98900D02*
X329500Y109900D01*
X325500Y113900D01*
X309500Y113900D01*
X305500Y109900D01*
X305500Y98900D01*
D12*
X307340Y92710D02*
X327660Y92710D01*
D17*
X300385Y66169D02*
X299750Y65534D01*
X299750Y64263D01*
X300385Y63627D01*
X302927Y63627D01*
X303563Y64263D01*
X303563Y65534D01*
X302927Y66169D01*
X301021Y67369D02*
X299750Y68640D01*
X303563Y68640D01*
X303563Y67369D02*
X303563Y69911D01*
X300385Y71111D02*
X299750Y71747D01*
X299750Y73018D01*
X300385Y73653D01*
X301021Y73653D01*
X301656Y73018D01*
X301656Y72382D01*
X301656Y73018D02*
X302292Y73653D01*
X302927Y73653D01*
X303563Y73018D01*
X303563Y71747D01*
X302927Y71111D01*
D18*
X254000Y152400D03*
D17*
X245237Y159512D02*
X245237Y163325D01*
X247144Y163325D01*
X247779Y162690D01*
X247779Y161419D01*
X247144Y160783D01*
X245237Y160783D01*
X246508Y160783D02*
X247779Y159512D01*
X248979Y162054D02*
X250250Y163325D01*
X250250Y159512D01*
X248979Y159512D02*
X251521Y159512D01*
X252721Y162054D02*
X253992Y163325D01*
X253992Y159512D01*
X252721Y159512D02*
X255263Y159512D01*
D14*
X184150Y132080D02*
X171450Y132080D01*
X171450Y147320D02*
X184150Y147320D01*
D17*
X162687Y152527D02*
X162687Y156340D01*
X165229Y156340D01*
X163958Y154434D02*
X162687Y154434D01*
X166429Y155069D02*
X167700Y156340D01*
X167700Y152527D01*
X166429Y152527D02*
X168971Y152527D01*
D14*
X255700Y101600D02*
X255700Y97000D01*
X255700Y101600D02*
X255700Y106200D01*
X255700Y101600D02*
X252600Y99262D01*
X255546Y101854D02*
X252600Y103784D01*
D17*
X245237Y108712D02*
X245237Y112525D01*
X245237Y108712D02*
X247779Y108712D01*
X248979Y112525D02*
X251521Y112525D01*
X248979Y112525D02*
X248979Y108712D01*
X251521Y108712D01*
X250250Y110619D02*
X248979Y110619D01*
X252721Y112525D02*
X252721Y108712D01*
X254628Y108712D01*
X255263Y109348D01*
X255263Y111890D01*
X254628Y112525D01*
X252721Y112525D01*
X256463Y111254D02*
X257734Y112525D01*
X257734Y108712D01*
X256463Y108712D02*
X259005Y108712D01*
D18*
X482600Y127000D03*
D17*
X473837Y134112D02*
X473837Y137925D01*
X475744Y137925D01*
X476379Y137290D01*
X476379Y136019D01*
X475744Y135383D01*
X473837Y135383D01*
X475108Y135383D02*
X476379Y134112D01*
X477579Y134112D02*
X480121Y134112D01*
X477579Y134112D02*
X480121Y136654D01*
X480121Y137290D01*
X479486Y137925D01*
X478215Y137925D01*
X477579Y137290D01*
D14*
X444500Y152700D02*
X444500Y177800D01*
X454500Y190500D02*
X485300Y190500D01*
X495300Y177500D02*
X495300Y152700D01*
X485300Y139700D02*
X454500Y139700D01*
X457200Y165100D02*
X457204Y165412D01*
X457215Y165723D01*
X457234Y166034D01*
X457261Y166345D01*
X457296Y166655D01*
X457337Y166963D01*
X457387Y167271D01*
X457444Y167578D01*
X457509Y167883D01*
X457581Y168186D01*
X457660Y168487D01*
X457747Y168787D01*
X457841Y169084D01*
X457942Y169379D01*
X458051Y169671D01*
X458167Y169960D01*
X458290Y170247D01*
X458419Y170530D01*
X458556Y170810D01*
X458700Y171087D01*
X458850Y171360D01*
X459007Y171629D01*
X459170Y171894D01*
X459340Y172156D01*
X459517Y172413D01*
X459699Y172665D01*
X459888Y172913D01*
X460083Y173157D01*
X460283Y173395D01*
X460490Y173629D01*
X460702Y173857D01*
X460920Y174080D01*
X461143Y174298D01*
X461371Y174510D01*
X461605Y174717D01*
X461843Y174917D01*
X462087Y175112D01*
X462335Y175301D01*
X462587Y175483D01*
X462844Y175660D01*
X463106Y175830D01*
X463371Y175993D01*
X463640Y176150D01*
X463913Y176300D01*
X464190Y176444D01*
X464470Y176581D01*
X464753Y176710D01*
X465040Y176833D01*
X465329Y176949D01*
X465621Y177058D01*
X465916Y177159D01*
X466213Y177253D01*
X466513Y177340D01*
X466814Y177419D01*
X467117Y177491D01*
X467422Y177556D01*
X467729Y177613D01*
X468037Y177663D01*
X468345Y177704D01*
X468655Y177739D01*
X468966Y177766D01*
X469277Y177785D01*
X469588Y177796D01*
X469900Y177800D01*
X470212Y177796D01*
X470523Y177785D01*
X470834Y177766D01*
X471145Y177739D01*
X471455Y177704D01*
X471763Y177663D01*
X472071Y177613D01*
X472378Y177556D01*
X472683Y177491D01*
X472986Y177419D01*
X473287Y177340D01*
X473587Y177253D01*
X473884Y177159D01*
X474179Y177058D01*
X474471Y176949D01*
X474760Y176833D01*
X475047Y176710D01*
X475330Y176581D01*
X475610Y176444D01*
X475887Y176300D01*
X476160Y176150D01*
X476429Y175993D01*
X476694Y175830D01*
X476956Y175660D01*
X477213Y175483D01*
X477465Y175301D01*
X477713Y175112D01*
X477957Y174917D01*
X478195Y174717D01*
X478429Y174510D01*
X478657Y174298D01*
X478880Y174080D01*
X479098Y173857D01*
X479310Y173629D01*
X479517Y173395D01*
X479717Y173157D01*
X479912Y172913D01*
X480101Y172665D01*
X480283Y172413D01*
X480460Y172156D01*
X480630Y171894D01*
X480793Y171629D01*
X480950Y171360D01*
X481100Y171087D01*
X481244Y170810D01*
X481381Y170530D01*
X481510Y170247D01*
X481633Y169960D01*
X481749Y169671D01*
X481858Y169379D01*
X481959Y169084D01*
X482053Y168787D01*
X482140Y168487D01*
X482219Y168186D01*
X482291Y167883D01*
X482356Y167578D01*
X482413Y167271D01*
X482463Y166963D01*
X482504Y166655D01*
X482539Y166345D01*
X482566Y166034D01*
X482585Y165723D01*
X482596Y165412D01*
X482600Y165100D01*
X482596Y164788D01*
X482585Y164477D01*
X482566Y164166D01*
X482539Y163855D01*
X482504Y163545D01*
X482463Y163237D01*
X482413Y162929D01*
X482356Y162622D01*
X482291Y162317D01*
X482219Y162014D01*
X482140Y161713D01*
X482053Y161413D01*
X481959Y161116D01*
X481858Y160821D01*
X481749Y160529D01*
X481633Y160240D01*
X481510Y159953D01*
X481381Y159670D01*
X481244Y159390D01*
X481100Y159113D01*
X480950Y158840D01*
X480793Y158571D01*
X480630Y158306D01*
X480460Y158044D01*
X480283Y157787D01*
X480101Y157535D01*
X479912Y157287D01*
X479717Y157043D01*
X479517Y156805D01*
X479310Y156571D01*
X479098Y156343D01*
X478880Y156120D01*
X478657Y155902D01*
X478429Y155690D01*
X478195Y155483D01*
X477957Y155283D01*
X477713Y155088D01*
X477465Y154899D01*
X477213Y154717D01*
X476956Y154540D01*
X476694Y154370D01*
X476429Y154207D01*
X476160Y154050D01*
X475887Y153900D01*
X475610Y153756D01*
X475330Y153619D01*
X475047Y153490D01*
X474760Y153367D01*
X474471Y153251D01*
X474179Y153142D01*
X473884Y153041D01*
X473587Y152947D01*
X473287Y152860D01*
X472986Y152781D01*
X472683Y152709D01*
X472378Y152644D01*
X472071Y152587D01*
X471763Y152537D01*
X471455Y152496D01*
X471145Y152461D01*
X470834Y152434D01*
X470523Y152415D01*
X470212Y152404D01*
X469900Y152400D01*
X469588Y152404D01*
X469277Y152415D01*
X468966Y152434D01*
X468655Y152461D01*
X468345Y152496D01*
X468037Y152537D01*
X467729Y152587D01*
X467422Y152644D01*
X467117Y152709D01*
X466814Y152781D01*
X466513Y152860D01*
X466213Y152947D01*
X465916Y153041D01*
X465621Y153142D01*
X465329Y153251D01*
X465040Y153367D01*
X464753Y153490D01*
X464470Y153619D01*
X464190Y153756D01*
X463913Y153900D01*
X463640Y154050D01*
X463371Y154207D01*
X463106Y154370D01*
X462844Y154540D01*
X462587Y154717D01*
X462335Y154899D01*
X462087Y155088D01*
X461843Y155283D01*
X461605Y155483D01*
X461371Y155690D01*
X461143Y155902D01*
X460920Y156120D01*
X460702Y156343D01*
X460490Y156571D01*
X460283Y156805D01*
X460083Y157043D01*
X459888Y157287D01*
X459699Y157535D01*
X459517Y157787D01*
X459340Y158044D01*
X459170Y158306D01*
X459007Y158571D01*
X458850Y158840D01*
X458700Y159113D01*
X458556Y159390D01*
X458419Y159670D01*
X458290Y159953D01*
X458167Y160240D01*
X458051Y160529D01*
X457942Y160821D01*
X457841Y161116D01*
X457747Y161413D01*
X457660Y161713D01*
X457581Y162014D01*
X457509Y162317D01*
X457444Y162622D01*
X457387Y162929D01*
X457337Y163237D01*
X457296Y163545D01*
X457261Y163855D01*
X457234Y164166D01*
X457215Y164477D01*
X457204Y164788D01*
X457200Y165100D01*
D17*
X463679Y186185D02*
X463044Y186820D01*
X461773Y186820D01*
X461137Y186185D01*
X461137Y185549D01*
X461773Y184914D01*
X463044Y184914D01*
X463679Y184278D01*
X463679Y183643D01*
X463044Y183007D01*
X461773Y183007D01*
X461137Y183643D01*
X464879Y183007D02*
X467421Y183007D01*
X464879Y183007D02*
X467421Y185549D01*
X467421Y186185D01*
X466786Y186820D01*
X465515Y186820D01*
X464879Y186185D01*
D14*
X457200Y311150D02*
X463550Y317500D01*
X457200Y298450D02*
X463550Y292100D01*
X457200Y285750D01*
X457200Y273050D02*
X463550Y266700D01*
X457200Y260350D01*
X457200Y247650D02*
X463550Y241300D01*
X463550Y317500D02*
X501650Y317500D01*
X508000Y311150D01*
X508000Y298450D01*
X501650Y292100D01*
X508000Y285750D01*
X508000Y273050D01*
X501650Y266700D01*
X508000Y260350D01*
X508000Y247650D01*
X501650Y241300D01*
X501650Y292100D02*
X463550Y292100D01*
X463550Y266700D02*
X501650Y266700D01*
X501650Y241300D02*
X463550Y241300D01*
X457200Y247650D02*
X457200Y260350D01*
X457200Y273050D02*
X457200Y285750D01*
X457200Y298450D02*
X457200Y311150D01*
X453850Y311150D02*
X453850Y298450D01*
D12*
X524508Y283053D02*
X526415Y284960D01*
X526415Y286866D01*
X524508Y288773D01*
X514975Y288773D01*
X514975Y286866D02*
X514975Y290680D01*
X514975Y294747D02*
X526415Y294747D01*
X514975Y294747D02*
X514975Y300467D01*
X516882Y302374D01*
X520695Y302374D01*
X522602Y300467D01*
X522602Y294747D01*
X516882Y306441D02*
X514975Y308348D01*
X514975Y312161D01*
X516882Y314067D01*
X518789Y314067D01*
X520695Y312161D01*
X520695Y310254D01*
X520695Y312161D02*
X522602Y314067D01*
X524508Y314067D01*
X526415Y312161D01*
X526415Y308348D01*
X524508Y306441D01*
D16*
X368300Y228905D02*
X368300Y228295D01*
D17*
X362079Y238890D02*
X361444Y239525D01*
X360173Y239525D01*
X359537Y238890D01*
X359537Y236348D01*
X360173Y235712D01*
X361444Y235712D01*
X362079Y236348D01*
X363279Y238890D02*
X363915Y239525D01*
X365186Y239525D01*
X365821Y238890D01*
X365821Y238254D01*
X365186Y237619D01*
X364550Y237619D01*
X365186Y237619D02*
X365821Y236983D01*
X365821Y236348D01*
X365186Y235712D01*
X363915Y235712D01*
X363279Y236348D01*
D14*
X285750Y38100D02*
X279400Y31750D01*
X285750Y38100D02*
X298450Y38100D01*
X304800Y31750D01*
X304800Y19050D02*
X298450Y12700D01*
X285750Y12700D01*
X279400Y19050D01*
X247650Y38100D02*
X234950Y38100D01*
X247650Y38100D02*
X254000Y31750D01*
X254000Y19050D02*
X247650Y12700D01*
X254000Y31750D02*
X260350Y38100D01*
X273050Y38100D01*
X279400Y31750D01*
X279400Y19050D02*
X273050Y12700D01*
X260350Y12700D01*
X254000Y19050D01*
X209550Y38100D02*
X203200Y31750D01*
X209550Y38100D02*
X222250Y38100D01*
X228600Y31750D01*
X228600Y19050D02*
X222250Y12700D01*
X209550Y12700D01*
X203200Y19050D01*
X228600Y31750D02*
X234950Y38100D01*
X228600Y19050D02*
X234950Y12700D01*
X247650Y12700D01*
X171450Y38100D02*
X158750Y38100D01*
X171450Y38100D02*
X177800Y31750D01*
X177800Y19050D02*
X171450Y12700D01*
X177800Y31750D02*
X184150Y38100D01*
X196850Y38100D01*
X203200Y31750D01*
X203200Y19050D02*
X196850Y12700D01*
X184150Y12700D01*
X177800Y19050D01*
X152400Y19050D02*
X152400Y31750D01*
X158750Y38100D01*
X152400Y19050D02*
X158750Y12700D01*
X171450Y12700D01*
X304800Y19050D02*
X304800Y31750D01*
D12*
X154180Y44323D02*
X152273Y46230D01*
X154180Y44323D02*
X156086Y44323D01*
X157993Y46230D01*
X157993Y55763D01*
X156086Y55763D02*
X159900Y55763D01*
X169687Y55763D02*
X169687Y44323D01*
X163967Y50043D02*
X169687Y55763D01*
X171593Y50043D02*
X163967Y50043D01*
D14*
X311150Y495300D02*
X323850Y495300D01*
X311150Y495300D02*
X304800Y501650D01*
X304800Y514350D02*
X311150Y520700D01*
X349250Y495300D02*
X355600Y501650D01*
X349250Y495300D02*
X336550Y495300D01*
X330200Y501650D01*
X330200Y514350D02*
X336550Y520700D01*
X349250Y520700D01*
X355600Y514350D01*
X330200Y501650D02*
X323850Y495300D01*
X330200Y514350D02*
X323850Y520700D01*
X311150Y520700D01*
X387350Y495300D02*
X400050Y495300D01*
X387350Y495300D02*
X381000Y501650D01*
X381000Y514350D02*
X387350Y520700D01*
X381000Y501650D02*
X374650Y495300D01*
X361950Y495300D01*
X355600Y501650D01*
X355600Y514350D02*
X361950Y520700D01*
X374650Y520700D01*
X381000Y514350D01*
X425450Y495300D02*
X431800Y501650D01*
X425450Y495300D02*
X412750Y495300D01*
X406400Y501650D01*
X406400Y514350D02*
X412750Y520700D01*
X425450Y520700D01*
X431800Y514350D01*
X406400Y501650D02*
X400050Y495300D01*
X406400Y514350D02*
X400050Y520700D01*
X387350Y520700D01*
X463550Y495300D02*
X476250Y495300D01*
X463550Y495300D02*
X457200Y501650D01*
X457200Y514350D02*
X463550Y520700D01*
X457200Y501650D02*
X450850Y495300D01*
X438150Y495300D01*
X431800Y501650D01*
X431800Y514350D02*
X438150Y520700D01*
X450850Y520700D01*
X457200Y514350D01*
X482600Y514350D02*
X482600Y501650D01*
X476250Y495300D01*
X482600Y514350D02*
X476250Y520700D01*
X463550Y520700D01*
X298450Y495300D02*
X285750Y495300D01*
X279400Y501650D01*
X279400Y514350D01*
X285750Y520700D01*
X304800Y501650D02*
X298450Y495300D01*
X304800Y514350D02*
X298450Y520700D01*
X285750Y520700D01*
D12*
X460609Y479554D02*
X462516Y477647D01*
X464422Y477647D01*
X466329Y479554D01*
X466329Y489087D01*
X464422Y489087D02*
X468236Y489087D01*
X472303Y485274D02*
X476116Y489087D01*
X476116Y477647D01*
X472303Y477647D02*
X479930Y477647D01*
D14*
X104140Y495300D02*
X91440Y495300D01*
X85090Y501650D01*
X85090Y514350D02*
X91440Y520700D01*
X129540Y495300D02*
X135890Y501650D01*
X129540Y495300D02*
X116840Y495300D01*
X110490Y501650D01*
X110490Y514350D02*
X116840Y520700D01*
X129540Y520700D01*
X135890Y514350D01*
X110490Y501650D02*
X104140Y495300D01*
X110490Y514350D02*
X104140Y520700D01*
X91440Y520700D01*
X167640Y495300D02*
X180340Y495300D01*
X167640Y495300D02*
X161290Y501650D01*
X161290Y514350D02*
X167640Y520700D01*
X161290Y501650D02*
X154940Y495300D01*
X142240Y495300D01*
X135890Y501650D01*
X135890Y514350D02*
X142240Y520700D01*
X154940Y520700D01*
X161290Y514350D01*
X205740Y495300D02*
X212090Y501650D01*
X205740Y495300D02*
X193040Y495300D01*
X186690Y501650D01*
X186690Y514350D02*
X193040Y520700D01*
X205740Y520700D01*
X212090Y514350D01*
X186690Y501650D02*
X180340Y495300D01*
X186690Y514350D02*
X180340Y520700D01*
X167640Y520700D01*
X243840Y495300D02*
X256540Y495300D01*
X243840Y495300D02*
X237490Y501650D01*
X237490Y514350D02*
X243840Y520700D01*
X237490Y501650D02*
X231140Y495300D01*
X218440Y495300D01*
X212090Y501650D01*
X212090Y514350D02*
X218440Y520700D01*
X231140Y520700D01*
X237490Y514350D01*
X262890Y514350D02*
X262890Y501650D01*
X256540Y495300D01*
X262890Y514350D02*
X256540Y520700D01*
X243840Y520700D01*
X78740Y495300D02*
X66040Y495300D01*
X59690Y501650D01*
X59690Y514350D01*
X66040Y520700D01*
X85090Y501650D02*
X78740Y495300D01*
X85090Y514350D02*
X78740Y520700D01*
X66040Y520700D01*
D12*
X240899Y479554D02*
X242806Y477647D01*
X244712Y477647D01*
X246619Y479554D01*
X246619Y489087D01*
X244712Y489087D02*
X248526Y489087D01*
X252593Y487180D02*
X254500Y489087D01*
X258313Y489087D01*
X260220Y487180D01*
X260220Y485274D01*
X258313Y483367D01*
X256406Y483367D01*
X258313Y483367D02*
X260220Y481460D01*
X260220Y479554D01*
X258313Y477647D01*
X254500Y477647D01*
X252593Y479554D01*
D14*
X463550Y38100D02*
X457200Y31750D01*
X463550Y38100D02*
X476250Y38100D01*
X482600Y31750D01*
X482600Y19050D02*
X476250Y12700D01*
X463550Y12700D01*
X457200Y19050D01*
X425450Y38100D02*
X412750Y38100D01*
X425450Y38100D02*
X431800Y31750D01*
X431800Y19050D02*
X425450Y12700D01*
X431800Y31750D02*
X438150Y38100D01*
X450850Y38100D01*
X457200Y31750D01*
X457200Y19050D02*
X450850Y12700D01*
X438150Y12700D01*
X431800Y19050D01*
X387350Y38100D02*
X381000Y31750D01*
X387350Y38100D02*
X400050Y38100D01*
X406400Y31750D01*
X406400Y19050D02*
X400050Y12700D01*
X387350Y12700D01*
X381000Y19050D01*
X406400Y31750D02*
X412750Y38100D01*
X406400Y19050D02*
X412750Y12700D01*
X425450Y12700D01*
X349250Y38100D02*
X336550Y38100D01*
X349250Y38100D02*
X355600Y31750D01*
X355600Y19050D02*
X349250Y12700D01*
X355600Y31750D02*
X361950Y38100D01*
X374650Y38100D01*
X381000Y31750D01*
X381000Y19050D02*
X374650Y12700D01*
X361950Y12700D01*
X355600Y19050D01*
X330200Y19050D02*
X330200Y31750D01*
X336550Y38100D01*
X330200Y19050D02*
X336550Y12700D01*
X349250Y12700D01*
X482600Y19050D02*
X482600Y31750D01*
D12*
X331980Y44323D02*
X330073Y46230D01*
X331980Y44323D02*
X333886Y44323D01*
X335793Y46230D01*
X335793Y55763D01*
X333886Y55763D02*
X337700Y55763D01*
X341767Y44323D02*
X349393Y44323D01*
X341767Y44323D02*
X349393Y51950D01*
X349393Y53856D01*
X347487Y55763D01*
X343674Y55763D01*
X341767Y53856D01*
D16*
X101600Y431495D02*
X101600Y432105D01*
D17*
X105039Y424691D02*
X105675Y424056D01*
X105039Y424691D02*
X103768Y424691D01*
X103133Y424056D01*
X103133Y421514D01*
X103768Y420878D01*
X105039Y420878D01*
X105675Y421514D01*
X106875Y423420D02*
X108146Y424691D01*
X108146Y420878D01*
X106875Y420878D02*
X109417Y420878D01*
D18*
X139700Y444500D03*
D19*
X160208Y445008D02*
X160208Y456702D01*
X166055Y456702D01*
X168004Y454753D01*
X168004Y450855D01*
X166055Y448906D01*
X160208Y448906D01*
X164106Y448906D02*
X168004Y445008D01*
X175800Y454753D02*
X179698Y456702D01*
X175800Y454753D02*
X171902Y450855D01*
X171902Y446957D01*
X173851Y445008D01*
X177749Y445008D01*
X179698Y446957D01*
X179698Y448906D01*
X177749Y450855D01*
X171902Y450855D01*
D14*
X138000Y436400D02*
X138000Y431800D01*
X138000Y427200D01*
X138000Y431800D02*
X141100Y434138D01*
X138154Y431546D02*
X141100Y429616D01*
D19*
X160208Y432308D02*
X160208Y444002D01*
X160208Y432308D02*
X166055Y432308D01*
X168004Y434257D01*
X168004Y442053D01*
X166055Y444002D01*
X160208Y444002D01*
X171902Y442053D02*
X173851Y444002D01*
X177749Y444002D01*
X179698Y442053D01*
X179698Y440104D01*
X177749Y438155D01*
X175800Y438155D01*
X177749Y438155D02*
X179698Y436206D01*
X179698Y434257D01*
X177749Y432308D01*
X173851Y432308D01*
X171902Y434257D01*
D17*
X356083Y260121D02*
X356083Y244399D01*
X356083Y260121D02*
X360121Y260121D01*
X360121Y257912D01*
X360197Y257912D01*
X360225Y257914D01*
X360253Y257918D01*
X360280Y257927D01*
X360306Y257938D01*
X360331Y257952D01*
X360354Y257969D01*
X360375Y257988D01*
X360419Y258037D01*
X360462Y258088D01*
X360502Y258140D01*
X360782Y258521D01*
X360857Y258619D01*
X360935Y258716D01*
X361016Y258811D01*
X361099Y258903D01*
X361184Y258994D01*
X361272Y259082D01*
X361362Y259167D01*
X361454Y259251D01*
X361548Y259331D01*
X361645Y259410D01*
X361644Y259410D02*
X361755Y259495D01*
X361867Y259576D01*
X361982Y259655D01*
X362099Y259730D01*
X362217Y259802D01*
X362338Y259871D01*
X362460Y259936D01*
X362585Y259999D01*
X362711Y260057D01*
X362838Y260113D01*
X362967Y260164D01*
X363097Y260213D01*
X363229Y260257D01*
X363361Y260298D01*
X363495Y260336D01*
X363630Y260370D01*
X363765Y260400D01*
X363902Y260426D01*
X364039Y260449D01*
X364176Y260468D01*
X364315Y260483D01*
X364453Y260495D01*
X364592Y260502D01*
X364927Y260512D01*
X365261Y260515D01*
X365596Y260510D01*
X365930Y260498D01*
X366264Y260479D01*
X366598Y260452D01*
X366728Y260438D01*
X366858Y260420D01*
X366986Y260398D01*
X367114Y260373D01*
X367241Y260343D01*
X367368Y260310D01*
X367493Y260273D01*
X367617Y260232D01*
X367740Y260188D01*
X367861Y260140D01*
X367981Y260088D01*
X368099Y260033D01*
X368216Y259974D01*
X368330Y259912D01*
X368443Y259847D01*
X368554Y259778D01*
X368663Y259705D01*
X368769Y259630D01*
X368873Y259551D01*
X368975Y259470D01*
X369074Y259385D01*
X369171Y259297D01*
X369265Y259207D01*
X369353Y259117D01*
X369439Y259024D01*
X369522Y258930D01*
X369602Y258833D01*
X369679Y258733D01*
X369754Y258632D01*
X369826Y258528D01*
X369894Y258423D01*
X369960Y258315D01*
X370023Y258206D01*
X370082Y258095D01*
X370139Y257982D01*
X370192Y257868D01*
X370242Y257752D01*
X370288Y257635D01*
X370332Y257517D01*
X370371Y257397D01*
X370408Y257277D01*
X370463Y257078D01*
X370512Y256878D01*
X370557Y256677D01*
X370597Y256475D01*
X370632Y256272D01*
X370662Y256068D01*
X370687Y255863D01*
X370708Y255658D01*
X370723Y255453D01*
X370733Y255247D01*
X370738Y255041D01*
X370738Y244500D01*
X366649Y244500D01*
X366649Y254152D01*
X366647Y254275D01*
X366642Y254398D01*
X366632Y254521D01*
X366620Y254644D01*
X366603Y254765D01*
X366583Y254887D01*
X366559Y255008D01*
X366531Y255128D01*
X366500Y255247D01*
X366466Y255365D01*
X366428Y255482D01*
X366386Y255598D01*
X366341Y255712D01*
X366292Y255825D01*
X366240Y255937D01*
X366185Y256047D01*
X366127Y256155D01*
X366065Y256261D01*
X366017Y256338D01*
X365965Y256413D01*
X365911Y256486D01*
X365854Y256556D01*
X365794Y256625D01*
X365731Y256691D01*
X365666Y256754D01*
X365598Y256815D01*
X365528Y256872D01*
X365456Y256927D01*
X365381Y256979D01*
X365305Y257029D01*
X365226Y257074D01*
X365146Y257117D01*
X365064Y257157D01*
X364981Y257193D01*
X364896Y257226D01*
X364825Y257250D01*
X364754Y257271D01*
X364681Y257289D01*
X364608Y257303D01*
X364534Y257315D01*
X364460Y257323D01*
X364385Y257328D01*
X364311Y257329D01*
X364236Y257327D01*
X364236Y257328D02*
X363118Y257278D01*
X363118Y257277D02*
X363021Y257270D01*
X362924Y257261D01*
X362828Y257248D01*
X362732Y257231D01*
X362636Y257210D01*
X362542Y257187D01*
X362448Y257159D01*
X362356Y257128D01*
X362265Y257094D01*
X362175Y257056D01*
X362087Y257016D01*
X362000Y256971D01*
X361915Y256924D01*
X361831Y256873D01*
X361750Y256820D01*
X361671Y256763D01*
X361593Y256704D01*
X361519Y256642D01*
X361518Y256641D02*
X361439Y256570D01*
X361361Y256497D01*
X361286Y256420D01*
X361214Y256342D01*
X361144Y256261D01*
X361077Y256178D01*
X361013Y256093D01*
X360951Y256006D01*
X360893Y255916D01*
X360837Y255825D01*
X360784Y255732D01*
X360734Y255638D01*
X360688Y255542D01*
X360644Y255444D01*
X360604Y255345D01*
X360604Y255346D02*
X360561Y255230D01*
X360521Y255112D01*
X360484Y254994D01*
X360451Y254874D01*
X360421Y254754D01*
X360394Y254633D01*
X360370Y254511D01*
X360350Y254389D01*
X360333Y254266D01*
X360319Y254143D01*
X360309Y254019D01*
X360303Y253895D01*
X360299Y253771D01*
X360297Y253429D01*
X360299Y253087D01*
X360299Y253086D02*
X360299Y244399D01*
X356083Y244399D01*
X404419Y257861D02*
X404419Y261087D01*
X404419Y257861D02*
X404190Y257861D01*
X404080Y257859D01*
X403970Y257853D01*
X403860Y257844D01*
X403750Y257830D01*
X403641Y257813D01*
X403533Y257792D01*
X403425Y257767D01*
X403319Y257738D01*
X403213Y257706D01*
X403109Y257669D01*
X403006Y257630D01*
X402905Y257587D01*
X402805Y257540D01*
X402706Y257489D01*
X402610Y257436D01*
X402515Y257379D01*
X402423Y257318D01*
X402333Y257255D01*
X402245Y257188D01*
X402159Y257119D01*
X402076Y257046D01*
X401996Y256971D01*
X401918Y256892D01*
X401843Y256811D01*
X401770Y256728D01*
X401701Y256642D01*
X401616Y256530D01*
X401535Y256415D01*
X401456Y256299D01*
X401381Y256180D01*
X401308Y256060D01*
X401239Y255937D01*
X401174Y255813D01*
X401111Y255687D01*
X401052Y255560D01*
X400997Y255431D01*
X400945Y255300D01*
X400896Y255168D01*
X400851Y255035D01*
X400810Y254901D01*
X400772Y254766D01*
X400737Y254629D01*
X400707Y254492D01*
X400680Y254354D01*
X400657Y254216D01*
X400637Y254076D01*
X400621Y253937D01*
X400609Y253797D01*
X400587Y253445D01*
X400574Y253093D01*
X400569Y252741D01*
X400573Y252388D01*
X400585Y252036D01*
X400605Y251684D01*
X400634Y251333D01*
X400650Y251184D01*
X400670Y251035D01*
X400693Y250886D01*
X400720Y250739D01*
X400750Y250592D01*
X400784Y250445D01*
X400822Y250300D01*
X400864Y250156D01*
X400909Y250013D01*
X400957Y249870D01*
X401009Y249730D01*
X401064Y249590D01*
X401123Y249452D01*
X401186Y249315D01*
X401251Y249180D01*
X401320Y249047D01*
X401376Y248947D01*
X401435Y248849D01*
X401497Y248754D01*
X401563Y248660D01*
X401632Y248569D01*
X401704Y248480D01*
X401779Y248394D01*
X401857Y248310D01*
X401938Y248230D01*
X402021Y248152D01*
X402108Y248077D01*
X402196Y248005D01*
X402288Y247936D01*
X402381Y247871D01*
X402477Y247809D01*
X402575Y247750D01*
X402675Y247695D01*
X402777Y247643D01*
X402881Y247595D01*
X402986Y247550D01*
X403092Y247509D01*
X403200Y247472D01*
X403326Y247433D01*
X403454Y247397D01*
X403582Y247366D01*
X403711Y247338D01*
X403841Y247313D01*
X403972Y247293D01*
X404103Y247276D01*
X404235Y247263D01*
X404367Y247254D01*
X404499Y247249D01*
X404631Y247247D01*
X404763Y247249D01*
X404895Y247255D01*
X405027Y247265D01*
X405159Y247279D01*
X405290Y247296D01*
X405420Y247318D01*
X405550Y247343D01*
X405679Y247371D01*
X405807Y247404D01*
X405935Y247440D01*
X406061Y247480D01*
X406186Y247523D01*
X406309Y247570D01*
X406431Y247621D01*
X406552Y247675D01*
X406648Y247721D01*
X406742Y247771D01*
X406835Y247824D01*
X406926Y247881D01*
X407015Y247940D01*
X407102Y248002D01*
X407186Y248067D01*
X407269Y248135D01*
X407349Y248206D01*
X407426Y248280D01*
X407501Y248356D01*
X407574Y248434D01*
X407643Y248515D01*
X407710Y248599D01*
X407774Y248684D01*
X407835Y248772D01*
X407893Y248862D01*
X407948Y248953D01*
X408000Y249047D01*
X408074Y249191D01*
X408144Y249336D01*
X408212Y249483D01*
X408275Y249631D01*
X408335Y249781D01*
X408391Y249932D01*
X408444Y250085D01*
X408493Y250238D01*
X408539Y250393D01*
X408580Y250549D01*
X408618Y250706D01*
X408652Y250864D01*
X408683Y251022D01*
X408709Y251182D01*
X408732Y251341D01*
X408751Y251502D01*
X408766Y251662D01*
X408777Y251824D01*
X408784Y251985D01*
X408788Y252146D01*
X408787Y252400D01*
X408780Y252653D01*
X408767Y252907D01*
X408748Y253159D01*
X408723Y253412D01*
X408692Y253663D01*
X408655Y253914D01*
X408612Y254164D01*
X408563Y254413D01*
X408508Y254660D01*
X408476Y254790D01*
X408439Y254920D01*
X408400Y255049D01*
X408357Y255176D01*
X408311Y255303D01*
X408261Y255428D01*
X408208Y255551D01*
X408152Y255674D01*
X408093Y255794D01*
X408030Y255913D01*
X407964Y256031D01*
X407895Y256146D01*
X407823Y256260D01*
X407748Y256372D01*
X407670Y256482D01*
X407589Y256589D01*
X407506Y256694D01*
X407419Y256798D01*
X407330Y256898D01*
X407238Y256997D01*
X407170Y257065D01*
X407100Y257131D01*
X407028Y257193D01*
X406953Y257253D01*
X406876Y257310D01*
X406797Y257365D01*
X406717Y257416D01*
X406634Y257464D01*
X406549Y257510D01*
X406463Y257552D01*
X406376Y257591D01*
X406287Y257626D01*
X406197Y257658D01*
X406196Y257658D02*
X406069Y257699D01*
X405941Y257736D01*
X405812Y257770D01*
X405682Y257800D01*
X405551Y257827D01*
X405420Y257850D01*
X405287Y257870D01*
X405155Y257885D01*
X405022Y257898D01*
X404889Y257906D01*
X404755Y257911D01*
X404622Y257912D01*
X404622Y261087D01*
X404774Y261087D01*
X404979Y261085D01*
X405185Y261078D01*
X405390Y261066D01*
X405594Y261050D01*
X405799Y261029D01*
X406003Y261003D01*
X406206Y260973D01*
X406408Y260939D01*
X406610Y260899D01*
X406810Y260855D01*
X407010Y260807D01*
X407186Y260760D01*
X407361Y260709D01*
X407535Y260654D01*
X407707Y260594D01*
X407878Y260531D01*
X408047Y260464D01*
X408215Y260393D01*
X408381Y260318D01*
X408546Y260239D01*
X408708Y260156D01*
X408868Y260070D01*
X409027Y259980D01*
X409183Y259886D01*
X409337Y259789D01*
X409489Y259687D01*
X409638Y259583D01*
X409785Y259475D01*
X409929Y259364D01*
X410071Y259249D01*
X410210Y259131D01*
X410210Y259130D02*
X410353Y259003D01*
X410493Y258872D01*
X410630Y258738D01*
X410763Y258600D01*
X410893Y258460D01*
X411020Y258316D01*
X411143Y258170D01*
X411263Y258020D01*
X411379Y257868D01*
X411491Y257712D01*
X411600Y257555D01*
X411705Y257394D01*
X411806Y257231D01*
X411903Y257066D01*
X411996Y256899D01*
X412085Y256729D01*
X412170Y256557D01*
X412250Y256384D01*
X412327Y256208D01*
X412399Y256030D01*
X412467Y255851D01*
X412531Y255671D01*
X412590Y255488D01*
X412645Y255305D01*
X412695Y255120D01*
X412741Y254934D01*
X412783Y254747D01*
X412820Y254559D01*
X412853Y254370D01*
X412881Y254181D01*
X412904Y253991D01*
X412923Y253800D01*
X412937Y253609D01*
X412947Y253418D01*
X412952Y253226D01*
X412953Y253035D01*
X412947Y252734D01*
X412933Y252432D01*
X412912Y252131D01*
X412883Y251830D01*
X412847Y251530D01*
X412804Y251232D01*
X412753Y250934D01*
X412696Y250638D01*
X412630Y250343D01*
X412558Y250050D01*
X412479Y249758D01*
X412392Y249469D01*
X412299Y249182D01*
X412198Y248897D01*
X412090Y248615D01*
X412091Y248615D02*
X412029Y248464D01*
X411963Y248314D01*
X411894Y248166D01*
X411821Y248020D01*
X411745Y247875D01*
X411665Y247733D01*
X411582Y247592D01*
X411495Y247453D01*
X411405Y247317D01*
X411312Y247183D01*
X411216Y247051D01*
X411116Y246921D01*
X411013Y246794D01*
X410907Y246670D01*
X410799Y246548D01*
X410687Y246429D01*
X410572Y246312D01*
X410455Y246199D01*
X410335Y246088D01*
X410212Y245980D01*
X410087Y245875D01*
X409959Y245774D01*
X409828Y245675D01*
X409696Y245580D01*
X409561Y245488D01*
X409423Y245399D01*
X409284Y245314D01*
X409143Y245232D01*
X409000Y245153D01*
X408854Y245078D01*
X408708Y245006D01*
X408559Y244939D01*
X408409Y244874D01*
X408257Y244814D01*
X408104Y244757D01*
X407949Y244704D01*
X407699Y244625D01*
X407448Y244551D01*
X407195Y244484D01*
X406940Y244422D01*
X406685Y244367D01*
X406427Y244318D01*
X406169Y244275D01*
X405910Y244238D01*
X405650Y244207D01*
X405389Y244182D01*
X405128Y244163D01*
X404866Y244151D01*
X404605Y244145D01*
X404343Y244145D01*
X404130Y244150D01*
X403917Y244160D01*
X403704Y244175D01*
X403491Y244196D01*
X403279Y244221D01*
X403068Y244252D01*
X402857Y244288D01*
X402648Y244328D01*
X402439Y244374D01*
X402232Y244425D01*
X402026Y244481D01*
X401821Y244542D01*
X401618Y244608D01*
X401416Y244678D01*
X401217Y244754D01*
X401019Y244834D01*
X400823Y244919D01*
X400629Y245008D01*
X400437Y245103D01*
X400248Y245202D01*
X400061Y245305D01*
X399877Y245413D01*
X399696Y245525D01*
X399517Y245642D01*
X399341Y245763D01*
X399168Y245888D01*
X398998Y246017D01*
X398831Y246151D01*
X398722Y246242D01*
X398616Y246337D01*
X398511Y246433D01*
X398410Y246532D01*
X398310Y246634D01*
X398213Y246738D01*
X398119Y246845D01*
X398027Y246953D01*
X397938Y247064D01*
X397852Y247177D01*
X397769Y247293D01*
X397688Y247410D01*
X397610Y247529D01*
X397535Y247650D01*
X397535Y247651D02*
X397435Y247822D01*
X397338Y247997D01*
X397246Y248173D01*
X397158Y248351D01*
X397074Y248532D01*
X396994Y248714D01*
X396919Y248899D01*
X396848Y249085D01*
X396782Y249272D01*
X396720Y249462D01*
X396662Y249652D01*
X396609Y249844D01*
X396561Y250037D01*
X396517Y250231D01*
X396478Y250427D01*
X396443Y250623D01*
X396443Y250622D02*
X396402Y250895D01*
X396367Y251168D01*
X396339Y251441D01*
X396318Y251716D01*
X396303Y251991D01*
X396295Y252266D01*
X396293Y252541D01*
X396298Y252816D01*
X396310Y253091D01*
X396329Y253366D01*
X396354Y253640D01*
X396386Y253913D01*
X396424Y254186D01*
X396469Y254457D01*
X396504Y254641D01*
X396544Y254825D01*
X396588Y255007D01*
X396636Y255189D01*
X396688Y255369D01*
X396745Y255548D01*
X396806Y255725D01*
X396872Y255901D01*
X396941Y256076D01*
X397015Y256248D01*
X397093Y256419D01*
X397175Y256588D01*
X397260Y256755D01*
X397350Y256920D01*
X397444Y257083D01*
X397541Y257243D01*
X397643Y257401D01*
X397748Y257557D01*
X397857Y257710D01*
X397969Y257860D01*
X398085Y258008D01*
X398204Y258152D01*
X398327Y258294D01*
X398454Y258433D01*
X398583Y258569D01*
X398716Y258702D01*
X398852Y258832D01*
X398991Y258958D01*
X399133Y259081D01*
X399277Y259200D01*
X399425Y259316D01*
X399575Y259429D01*
X399728Y259538D01*
X399884Y259643D01*
X400042Y259744D01*
X400202Y259842D01*
X400386Y259948D01*
X400571Y260049D01*
X400759Y260146D01*
X400950Y260238D01*
X401142Y260326D01*
X401336Y260410D01*
X401533Y260489D01*
X401731Y260563D01*
X401931Y260632D01*
X402132Y260697D01*
X402335Y260757D01*
X402539Y260812D01*
X402745Y260862D01*
X402951Y260907D01*
X403159Y260948D01*
X403367Y260983D01*
X403577Y261014D01*
X403787Y261040D01*
X403997Y261061D01*
X404208Y261076D01*
X404419Y261087D01*
D20*
X375654Y246825D03*
D14*
X83100Y341000D02*
X48100Y341000D01*
X83100Y341000D02*
X83100Y349000D01*
X58100Y349000D01*
X58100Y361000D01*
X58100Y401000D02*
X58100Y413000D01*
X83100Y413000D01*
X83100Y421000D01*
X48100Y421000D01*
X8100Y401000D02*
X8100Y361000D01*
D17*
X24637Y368427D02*
X25273Y369063D01*
X25273Y369698D01*
X24637Y370334D01*
X21460Y370334D01*
X21460Y370969D02*
X21460Y369698D01*
X21460Y372169D02*
X25273Y372169D01*
X21460Y372169D02*
X21460Y374076D01*
X22095Y374711D01*
X23366Y374711D01*
X24002Y374076D01*
X24002Y372169D01*
X22731Y375911D02*
X21460Y377182D01*
X25273Y377182D01*
X25273Y375911D02*
X25273Y378453D01*
D14*
X249706Y112776D02*
X258294Y112776D01*
X258294Y141224D02*
X249706Y141224D01*
X262104Y129684D02*
X262104Y124316D01*
D17*
X275714Y128533D02*
X278891Y128533D01*
X279527Y129168D01*
X279527Y130439D01*
X278891Y131075D01*
X275714Y131075D01*
X279527Y132275D02*
X279527Y134817D01*
X279527Y132275D02*
X276985Y134817D01*
X276349Y134817D01*
X275714Y134182D01*
X275714Y132910D01*
X276349Y132275D01*
D14*
X227900Y117000D02*
X227900Y102000D01*
X203900Y102000D01*
X203900Y117000D01*
X227900Y137000D02*
X227900Y148000D01*
X223900Y152000D01*
X207900Y152000D01*
X203900Y148000D01*
X203900Y137000D01*
D12*
X205740Y130810D02*
X226060Y130810D01*
D17*
X198785Y104269D02*
X198150Y103634D01*
X198150Y102363D01*
X198785Y101727D01*
X201327Y101727D01*
X201963Y102363D01*
X201963Y103634D01*
X201327Y104269D01*
X199421Y105469D02*
X198150Y106740D01*
X201963Y106740D01*
X201963Y105469D02*
X201963Y108011D01*
X201327Y109211D02*
X201963Y109847D01*
X201963Y111118D01*
X201327Y111753D01*
X198785Y111753D01*
X198150Y111118D01*
X198150Y109847D01*
X198785Y109211D01*
X199421Y109211D01*
X200056Y109847D01*
X200056Y111753D01*
D14*
X127000Y361950D02*
X127000Y374650D01*
X133350Y381000D01*
X146050Y381000D02*
X152400Y374650D01*
X133350Y381000D02*
X127000Y387350D01*
X127000Y400050D01*
X133350Y406400D01*
X146050Y406400D02*
X152400Y400050D01*
X152400Y387350D01*
X146050Y381000D01*
X146050Y355600D02*
X133350Y355600D01*
X127000Y361950D01*
X146050Y355600D02*
X152400Y361950D01*
X152400Y374650D01*
X146050Y406400D02*
X133350Y406400D01*
D12*
X120777Y357380D02*
X118870Y355473D01*
X120777Y357380D02*
X120777Y359286D01*
X118870Y361193D01*
X109337Y361193D01*
X109337Y359286D02*
X109337Y363100D01*
X109337Y367167D02*
X120777Y367167D01*
X109337Y367167D02*
X109337Y372887D01*
X111244Y374793D01*
X115057Y374793D01*
X116964Y372887D01*
X116964Y367167D01*
X111244Y382674D02*
X109337Y386487D01*
X111244Y382674D02*
X115057Y378861D01*
X118870Y378861D01*
X120777Y380768D01*
X120777Y384581D01*
X118870Y386487D01*
X116964Y386487D01*
X115057Y384581D01*
X115057Y378861D01*
D14*
X0Y120650D02*
X0Y107950D01*
X0Y120650D02*
X6350Y127000D01*
X19050Y127000D02*
X25400Y120650D01*
X6350Y127000D02*
X0Y133350D01*
X0Y146050D01*
X6350Y152400D01*
X19050Y152400D02*
X25400Y146050D01*
X25400Y133350D01*
X19050Y127000D01*
X19050Y101600D02*
X6350Y101600D01*
X0Y107950D01*
X19050Y101600D02*
X25400Y107950D01*
X25400Y120650D01*
X19050Y152400D02*
X6350Y152400D01*
D12*
X-6223Y103380D02*
X-8130Y101473D01*
X-6223Y103380D02*
X-6223Y105286D01*
X-8130Y107193D01*
X-17663Y107193D01*
X-17663Y105286D02*
X-17663Y109100D01*
X-17663Y113167D02*
X-6223Y113167D01*
X-17663Y113167D02*
X-17663Y118887D01*
X-15756Y120793D01*
X-11943Y120793D01*
X-10036Y118887D01*
X-10036Y113167D01*
X-17663Y124861D02*
X-17663Y132487D01*
X-15756Y132487D01*
X-8130Y124861D01*
X-6223Y124861D01*
D21*
X444500Y431800D03*
D17*
X451609Y433333D02*
X455422Y433333D01*
X451609Y433333D02*
X451609Y435239D01*
X452244Y435875D01*
X453515Y435875D01*
X454151Y435239D01*
X454151Y433333D01*
X454151Y434604D02*
X455422Y435875D01*
X452880Y437075D02*
X451609Y438346D01*
X455422Y438346D01*
X455422Y437075D02*
X455422Y439617D01*
D21*
X469900Y431800D03*
D17*
X477009Y433333D02*
X480822Y433333D01*
X477009Y433333D02*
X477009Y435239D01*
X477644Y435875D01*
X478915Y435875D01*
X479551Y435239D01*
X479551Y433333D01*
X479551Y434604D02*
X480822Y435875D01*
X477644Y437075D02*
X477009Y437710D01*
X477009Y438982D01*
X477644Y439617D01*
X478280Y439617D01*
X478915Y438982D01*
X478915Y438346D01*
X478915Y438982D02*
X479551Y439617D01*
X480186Y439617D01*
X480822Y438982D01*
X480822Y437710D01*
X480186Y437075D01*
D14*
X348200Y235100D02*
X348200Y222100D01*
X312200Y222100D02*
X312200Y235100D01*
D17*
X321437Y242063D02*
X321437Y244605D01*
X322073Y245240D01*
X323344Y245240D01*
X323979Y244605D01*
X323979Y242063D01*
X323344Y241427D01*
X322073Y241427D01*
X321437Y242063D01*
X322708Y242698D02*
X323979Y241427D01*
X325179Y243969D02*
X326450Y245240D01*
X326450Y241427D01*
X325179Y241427D02*
X327721Y241427D01*
D14*
X135100Y20780D02*
X135100Y14780D01*
X68100Y14780D02*
X68100Y20780D01*
X74600Y4780D02*
X128600Y4780D01*
X101600Y30780D02*
X86600Y30780D01*
D22*
X106124Y11181D02*
X107056Y10249D01*
X106124Y11181D02*
X104260Y11181D01*
X103328Y10249D01*
X103328Y9317D01*
X104260Y8384D01*
X106124Y8384D01*
X107056Y7452D01*
X107056Y6520D01*
X106124Y5588D01*
X104260Y5588D01*
X103328Y6520D01*
X108941Y9317D02*
X110805Y11181D01*
X110805Y5588D01*
X108941Y5588D02*
X112669Y5588D01*
X311653Y330454D02*
X317246Y330454D01*
X311653Y330454D02*
X311653Y333250D01*
X312585Y334183D01*
X313518Y334183D01*
X314450Y333250D01*
X315382Y334183D01*
X316314Y334183D01*
X317246Y333250D01*
X317246Y330454D01*
X314450Y330454D02*
X314450Y333250D01*
X313518Y336067D02*
X311653Y337931D01*
X317246Y337931D01*
X317246Y336067D02*
X317246Y339796D01*
D16*
X140005Y342900D02*
X139395Y342900D01*
D17*
X146809Y346339D02*
X147444Y346975D01*
X146809Y346339D02*
X146809Y345068D01*
X147444Y344433D01*
X149986Y344433D01*
X150622Y345068D01*
X150622Y346339D01*
X149986Y346975D01*
X150622Y348175D02*
X150622Y350717D01*
X150622Y348175D02*
X148080Y350717D01*
X147444Y350717D01*
X146809Y350082D01*
X146809Y348810D01*
X147444Y348175D01*
D14*
X124300Y350900D02*
X124300Y334900D01*
X107300Y352900D02*
X107202Y352918D01*
X107103Y352932D01*
X107003Y352942D01*
X106903Y352948D01*
X106803Y352950D01*
X106703Y352948D01*
X106603Y352942D01*
X106503Y352933D01*
X106404Y352919D01*
X106305Y352902D01*
X106208Y352880D01*
X106111Y352855D01*
X106015Y352826D01*
X105920Y352794D01*
X105827Y352757D01*
X105735Y352717D01*
X105645Y352674D01*
X105556Y352627D01*
X105470Y352576D01*
X105386Y352522D01*
X105303Y352465D01*
X105224Y352405D01*
X105146Y352341D01*
X105071Y352275D01*
X104999Y352205D01*
X104929Y352133D01*
X104863Y352058D01*
X104799Y351981D01*
X104739Y351901D01*
X104681Y351819D01*
X104627Y351735D01*
X104577Y351648D01*
X104529Y351560D01*
X104486Y351470D01*
X104445Y351378D01*
X104409Y351285D01*
X104376Y351191D01*
X104347Y351095D01*
X104322Y350998D01*
X104300Y350900D01*
X104299Y334900D02*
X104321Y334802D01*
X104346Y334705D01*
X104375Y334609D01*
X104408Y334515D01*
X104445Y334422D01*
X104485Y334330D01*
X104529Y334240D01*
X104576Y334152D01*
X104627Y334065D01*
X104681Y333981D01*
X104738Y333899D01*
X104799Y333819D01*
X104862Y333742D01*
X104929Y333667D01*
X104998Y333595D01*
X105071Y333526D01*
X105145Y333459D01*
X105223Y333396D01*
X105303Y333335D01*
X105385Y333278D01*
X105469Y333224D01*
X105556Y333174D01*
X105644Y333127D01*
X105734Y333083D01*
X105826Y333043D01*
X105919Y333007D01*
X106014Y332974D01*
X106110Y332945D01*
X106207Y332920D01*
X106305Y332898D01*
X106403Y332881D01*
X106503Y332867D01*
X106602Y332858D01*
X106702Y332852D01*
X106802Y332850D01*
X106902Y332852D01*
X107002Y332858D01*
X107102Y332868D01*
X107201Y332882D01*
X107300Y332900D01*
X121300Y332900D02*
X121399Y332882D01*
X121498Y332868D01*
X121598Y332858D01*
X121698Y332852D01*
X121798Y332850D01*
X121898Y332852D01*
X121998Y332858D01*
X122097Y332867D01*
X122197Y332881D01*
X122295Y332898D01*
X122393Y332920D01*
X122490Y332945D01*
X122586Y332974D01*
X122681Y333007D01*
X122774Y333043D01*
X122866Y333083D01*
X122956Y333127D01*
X123044Y333174D01*
X123131Y333224D01*
X123215Y333278D01*
X123297Y333335D01*
X123377Y333396D01*
X123455Y333459D01*
X123529Y333526D01*
X123602Y333595D01*
X123671Y333667D01*
X123738Y333742D01*
X123801Y333819D01*
X123862Y333899D01*
X123919Y333981D01*
X123973Y334065D01*
X124024Y334152D01*
X124071Y334240D01*
X124115Y334330D01*
X124155Y334422D01*
X124192Y334515D01*
X124225Y334609D01*
X124254Y334705D01*
X124279Y334802D01*
X124301Y334900D01*
X124301Y350900D02*
X124279Y350998D01*
X124254Y351095D01*
X124225Y351191D01*
X124192Y351285D01*
X124155Y351378D01*
X124115Y351470D01*
X124071Y351560D01*
X124024Y351648D01*
X123973Y351735D01*
X123919Y351819D01*
X123862Y351901D01*
X123801Y351981D01*
X123738Y352058D01*
X123671Y352133D01*
X123602Y352205D01*
X123529Y352274D01*
X123455Y352341D01*
X123377Y352404D01*
X123297Y352465D01*
X123215Y352522D01*
X123131Y352576D01*
X123044Y352626D01*
X122956Y352673D01*
X122866Y352717D01*
X122774Y352757D01*
X122681Y352793D01*
X122586Y352826D01*
X122490Y352855D01*
X122393Y352880D01*
X122295Y352902D01*
X122197Y352919D01*
X122097Y352933D01*
X121998Y352942D01*
X121898Y352948D01*
X121798Y352950D01*
X121698Y352948D01*
X121598Y352942D01*
X121498Y352932D01*
X121399Y352918D01*
X121300Y352900D01*
X104300Y350900D02*
X104300Y334900D01*
D17*
X98295Y336044D02*
X97660Y335409D01*
X97660Y334138D01*
X98295Y333502D01*
X98931Y333502D01*
X99566Y334138D01*
X99566Y335409D01*
X100202Y336044D01*
X100837Y336044D01*
X101473Y335409D01*
X101473Y334138D01*
X100837Y333502D01*
X100837Y337244D02*
X101473Y337880D01*
X101473Y338515D01*
X100837Y339151D01*
X97660Y339151D01*
X97660Y339786D02*
X97660Y338515D01*
X98931Y340986D02*
X97660Y342257D01*
X101473Y342257D01*
X101473Y340986D02*
X101473Y343528D01*
D10*
X333250Y130050D02*
X403350Y130050D01*
X333250Y130050D02*
X333250Y200150D01*
X399800Y200150D01*
X403350Y196600D02*
X403350Y130050D01*
X403350Y196600D02*
X399800Y200150D01*
X392140Y192532D02*
X392142Y192651D01*
X392148Y192771D01*
X392158Y192890D01*
X392172Y193008D01*
X392190Y193126D01*
X392211Y193244D01*
X392237Y193360D01*
X392266Y193476D01*
X392300Y193591D01*
X392337Y193704D01*
X392378Y193816D01*
X392422Y193927D01*
X392470Y194037D01*
X392522Y194144D01*
X392577Y194250D01*
X392636Y194354D01*
X392699Y194456D01*
X392764Y194555D01*
X392833Y194653D01*
X392905Y194748D01*
X392980Y194841D01*
X393059Y194931D01*
X393140Y195019D01*
X393224Y195103D01*
X393311Y195185D01*
X393400Y195264D01*
X393492Y195340D01*
X393587Y195413D01*
X393684Y195483D01*
X393783Y195549D01*
X393885Y195612D01*
X393988Y195672D01*
X394093Y195728D01*
X394200Y195781D01*
X394309Y195830D01*
X394420Y195876D01*
X394532Y195917D01*
X394645Y195955D01*
X394759Y195990D01*
X394875Y196020D01*
X394991Y196047D01*
X395108Y196069D01*
X395226Y196088D01*
X395345Y196103D01*
X395464Y196114D01*
X395583Y196121D01*
X395702Y196124D01*
X395822Y196123D01*
X395941Y196118D01*
X396060Y196109D01*
X396179Y196096D01*
X396297Y196079D01*
X396414Y196059D01*
X396531Y196034D01*
X396647Y196005D01*
X396762Y195973D01*
X396876Y195937D01*
X396989Y195897D01*
X397100Y195853D01*
X397209Y195806D01*
X397317Y195755D01*
X397424Y195701D01*
X397528Y195643D01*
X397630Y195581D01*
X397731Y195517D01*
X397829Y195448D01*
X397925Y195377D01*
X398018Y195303D01*
X398109Y195225D01*
X398197Y195145D01*
X398282Y195061D01*
X398365Y194975D01*
X398445Y194886D01*
X398522Y194795D01*
X398595Y194701D01*
X398666Y194604D01*
X398733Y194506D01*
X398797Y194405D01*
X398858Y194302D01*
X398915Y194197D01*
X398968Y194091D01*
X399018Y193982D01*
X399065Y193872D01*
X399107Y193761D01*
X399146Y193648D01*
X399182Y193534D01*
X399213Y193418D01*
X399240Y193302D01*
X399264Y193185D01*
X399284Y193067D01*
X399300Y192949D01*
X399312Y192830D01*
X399320Y192711D01*
X399324Y192592D01*
X399324Y192472D01*
X399320Y192353D01*
X399312Y192234D01*
X399300Y192115D01*
X399284Y191997D01*
X399264Y191879D01*
X399240Y191762D01*
X399213Y191646D01*
X399182Y191530D01*
X399146Y191416D01*
X399107Y191303D01*
X399065Y191192D01*
X399018Y191082D01*
X398968Y190973D01*
X398915Y190867D01*
X398858Y190762D01*
X398797Y190659D01*
X398733Y190558D01*
X398666Y190460D01*
X398595Y190363D01*
X398522Y190269D01*
X398445Y190178D01*
X398365Y190089D01*
X398282Y190003D01*
X398197Y189919D01*
X398109Y189839D01*
X398018Y189761D01*
X397925Y189687D01*
X397829Y189616D01*
X397731Y189547D01*
X397630Y189483D01*
X397528Y189421D01*
X397424Y189363D01*
X397317Y189309D01*
X397209Y189258D01*
X397100Y189211D01*
X396989Y189167D01*
X396876Y189127D01*
X396762Y189091D01*
X396647Y189059D01*
X396531Y189030D01*
X396414Y189005D01*
X396297Y188985D01*
X396179Y188968D01*
X396060Y188955D01*
X395941Y188946D01*
X395822Y188941D01*
X395702Y188940D01*
X395583Y188943D01*
X395464Y188950D01*
X395345Y188961D01*
X395226Y188976D01*
X395108Y188995D01*
X394991Y189017D01*
X394875Y189044D01*
X394759Y189074D01*
X394645Y189109D01*
X394532Y189147D01*
X394420Y189188D01*
X394309Y189234D01*
X394200Y189283D01*
X394093Y189336D01*
X393988Y189392D01*
X393885Y189452D01*
X393783Y189515D01*
X393684Y189581D01*
X393587Y189651D01*
X393492Y189724D01*
X393400Y189800D01*
X393311Y189879D01*
X393224Y189961D01*
X393140Y190045D01*
X393059Y190133D01*
X392980Y190223D01*
X392905Y190316D01*
X392833Y190411D01*
X392764Y190509D01*
X392699Y190608D01*
X392636Y190710D01*
X392577Y190814D01*
X392522Y190920D01*
X392470Y191027D01*
X392422Y191137D01*
X392378Y191248D01*
X392337Y191360D01*
X392300Y191473D01*
X392266Y191588D01*
X392237Y191704D01*
X392211Y191820D01*
X392190Y191938D01*
X392172Y192056D01*
X392158Y192174D01*
X392148Y192293D01*
X392142Y192413D01*
X392140Y192532D01*
D17*
X419224Y189493D02*
X422401Y189493D01*
X423037Y190128D01*
X423037Y191399D01*
X422401Y192035D01*
X419224Y192035D01*
X420495Y193235D02*
X419224Y194506D01*
X423037Y194506D01*
X423037Y193235D02*
X423037Y195777D01*
M02*
