G04 EAGLE Gerber RS-274X export*
G75*
%MOMM*%
%FSLAX34Y34*%
%LPD*%
%INSilkscreen Top*%
%IPPOS*%
%AMOC8*
5,1,8,0,0,1.08239X$1,22.5*%
G01*
%ADD10C,0.254000*%
%ADD11C,0.203200*%
%ADD12C,0.127000*%
%ADD13C,0.152400*%
%ADD14C,0.076200*%
%ADD15C,0.177800*%
%ADD16C,0.025400*%
%ADD17R,0.406400X0.711200*%
%ADD18C,0.406400*%
%ADD19R,0.711200X0.406400*%
%ADD20C,0.050800*%

G36*
X123427Y476136D02*
X123427Y476136D01*
X123535Y476146D01*
X123548Y476152D01*
X123562Y476154D01*
X123659Y476202D01*
X123758Y476247D01*
X123771Y476258D01*
X123780Y476262D01*
X123795Y476277D01*
X123872Y476340D01*
X128180Y480648D01*
X128243Y480736D01*
X128309Y480822D01*
X128314Y480835D01*
X128322Y480847D01*
X128353Y480950D01*
X128389Y481053D01*
X128389Y481067D01*
X128393Y481080D01*
X128389Y481188D01*
X128390Y481297D01*
X128385Y481310D01*
X128385Y481324D01*
X128347Y481425D01*
X128312Y481528D01*
X128303Y481543D01*
X128299Y481552D01*
X128285Y481569D01*
X128231Y481652D01*
X123417Y487555D01*
X124495Y489650D01*
X124502Y489669D01*
X124543Y489764D01*
X125261Y492008D01*
X132840Y492778D01*
X132944Y492806D01*
X133050Y492831D01*
X133062Y492838D01*
X133075Y492841D01*
X133165Y492902D01*
X133258Y492959D01*
X133266Y492970D01*
X133278Y492978D01*
X133344Y493064D01*
X133413Y493148D01*
X133417Y493161D01*
X133426Y493172D01*
X133460Y493275D01*
X133499Y493376D01*
X133500Y493394D01*
X133504Y493403D01*
X133503Y493424D01*
X133513Y493523D01*
X133513Y499617D01*
X133496Y499725D01*
X133482Y499832D01*
X133476Y499844D01*
X133474Y499858D01*
X133422Y499954D01*
X133375Y500051D01*
X133365Y500061D01*
X133359Y500073D01*
X133279Y500147D01*
X133203Y500224D01*
X133191Y500230D01*
X133181Y500240D01*
X133082Y500285D01*
X132984Y500333D01*
X132967Y500337D01*
X132958Y500341D01*
X132937Y500343D01*
X132840Y500362D01*
X125261Y501132D01*
X124543Y503376D01*
X124534Y503394D01*
X124495Y503490D01*
X123417Y505585D01*
X128231Y511489D01*
X128285Y511583D01*
X128342Y511675D01*
X128345Y511688D01*
X128352Y511700D01*
X128373Y511807D01*
X128398Y511912D01*
X128396Y511926D01*
X128399Y511940D01*
X128384Y512047D01*
X128374Y512155D01*
X128368Y512168D01*
X128366Y512182D01*
X128318Y512279D01*
X128273Y512378D01*
X128262Y512391D01*
X128258Y512400D01*
X128243Y512415D01*
X128180Y512492D01*
X123872Y516800D01*
X123784Y516863D01*
X123698Y516929D01*
X123685Y516934D01*
X123673Y516942D01*
X123570Y516973D01*
X123467Y517009D01*
X123453Y517009D01*
X123440Y517013D01*
X123332Y517009D01*
X123223Y517010D01*
X123210Y517005D01*
X123196Y517005D01*
X123095Y516967D01*
X122992Y516932D01*
X122977Y516923D01*
X122968Y516919D01*
X122951Y516905D01*
X122869Y516851D01*
X116965Y512037D01*
X114870Y513115D01*
X114851Y513122D01*
X114756Y513163D01*
X112512Y513881D01*
X111742Y521460D01*
X111714Y521564D01*
X111689Y521670D01*
X111682Y521682D01*
X111679Y521695D01*
X111618Y521785D01*
X111561Y521878D01*
X111550Y521886D01*
X111542Y521898D01*
X111456Y521964D01*
X111372Y522033D01*
X111359Y522037D01*
X111348Y522046D01*
X111245Y522080D01*
X111144Y522119D01*
X111126Y522120D01*
X111117Y522124D01*
X111096Y522123D01*
X110997Y522133D01*
X104903Y522133D01*
X104795Y522116D01*
X104688Y522102D01*
X104676Y522096D01*
X104662Y522094D01*
X104566Y522042D01*
X104469Y521995D01*
X104459Y521985D01*
X104447Y521979D01*
X104373Y521899D01*
X104296Y521823D01*
X104290Y521811D01*
X104280Y521801D01*
X104235Y521702D01*
X104187Y521604D01*
X104183Y521587D01*
X104179Y521578D01*
X104177Y521557D01*
X104158Y521460D01*
X103388Y513881D01*
X101144Y513163D01*
X101126Y513154D01*
X101030Y513115D01*
X98935Y512037D01*
X93032Y516851D01*
X92937Y516905D01*
X92845Y516962D01*
X92832Y516965D01*
X92820Y516972D01*
X92713Y516993D01*
X92608Y517018D01*
X92594Y517016D01*
X92580Y517019D01*
X92473Y517004D01*
X92365Y516994D01*
X92352Y516988D01*
X92339Y516986D01*
X92241Y516938D01*
X92142Y516893D01*
X92129Y516882D01*
X92120Y516878D01*
X92105Y516863D01*
X92028Y516800D01*
X87720Y512492D01*
X87657Y512404D01*
X87591Y512318D01*
X87586Y512305D01*
X87578Y512293D01*
X87547Y512190D01*
X87511Y512087D01*
X87511Y512073D01*
X87507Y512060D01*
X87511Y511952D01*
X87510Y511843D01*
X87515Y511830D01*
X87515Y511816D01*
X87553Y511715D01*
X87588Y511612D01*
X87597Y511597D01*
X87601Y511588D01*
X87615Y511571D01*
X87669Y511489D01*
X92483Y505585D01*
X91405Y503490D01*
X91398Y503471D01*
X91357Y503376D01*
X90639Y501132D01*
X83060Y500362D01*
X82956Y500334D01*
X82850Y500309D01*
X82838Y500302D01*
X82825Y500299D01*
X82735Y500238D01*
X82642Y500181D01*
X82634Y500170D01*
X82622Y500162D01*
X82556Y500076D01*
X82488Y499992D01*
X82483Y499979D01*
X82474Y499968D01*
X82440Y499865D01*
X82401Y499764D01*
X82400Y499746D01*
X82396Y499737D01*
X82397Y499716D01*
X82387Y499617D01*
X82387Y493523D01*
X82405Y493415D01*
X82418Y493308D01*
X82424Y493296D01*
X82426Y493282D01*
X82478Y493186D01*
X82525Y493089D01*
X82535Y493079D01*
X82541Y493067D01*
X82621Y492993D01*
X82697Y492916D01*
X82709Y492910D01*
X82720Y492900D01*
X82818Y492855D01*
X82916Y492807D01*
X82933Y492803D01*
X82942Y492799D01*
X82963Y492797D01*
X83060Y492778D01*
X90639Y492008D01*
X91357Y489764D01*
X91366Y489746D01*
X91405Y489650D01*
X92483Y487555D01*
X87669Y481652D01*
X87615Y481557D01*
X87558Y481465D01*
X87555Y481452D01*
X87548Y481440D01*
X87527Y481333D01*
X87502Y481228D01*
X87504Y481214D01*
X87501Y481200D01*
X87516Y481093D01*
X87526Y480985D01*
X87532Y480972D01*
X87534Y480959D01*
X87582Y480861D01*
X87627Y480762D01*
X87638Y480749D01*
X87642Y480740D01*
X87657Y480725D01*
X87720Y480648D01*
X92028Y476340D01*
X92116Y476277D01*
X92202Y476211D01*
X92215Y476206D01*
X92227Y476198D01*
X92330Y476167D01*
X92433Y476131D01*
X92447Y476131D01*
X92460Y476127D01*
X92568Y476131D01*
X92677Y476130D01*
X92690Y476135D01*
X92704Y476135D01*
X92805Y476173D01*
X92908Y476208D01*
X92923Y476217D01*
X92932Y476221D01*
X92949Y476235D01*
X93032Y476289D01*
X98935Y481103D01*
X101029Y480024D01*
X101082Y480007D01*
X101131Y479981D01*
X101197Y479970D01*
X101261Y479949D01*
X101317Y479950D01*
X101371Y479941D01*
X101438Y479952D01*
X101505Y479953D01*
X101557Y479971D01*
X101612Y479980D01*
X101671Y480012D01*
X101735Y480034D01*
X101779Y480069D01*
X101828Y480095D01*
X101873Y480144D01*
X101926Y480186D01*
X101957Y480233D01*
X101995Y480273D01*
X102051Y480378D01*
X102059Y480391D01*
X102060Y480396D01*
X102064Y480403D01*
X105652Y489065D01*
X105677Y489172D01*
X105706Y489278D01*
X105705Y489291D01*
X105708Y489303D01*
X105697Y489412D01*
X105690Y489522D01*
X105685Y489533D01*
X105684Y489546D01*
X105638Y489646D01*
X105597Y489747D01*
X105588Y489757D01*
X105583Y489768D01*
X105508Y489848D01*
X105436Y489931D01*
X105423Y489940D01*
X105416Y489946D01*
X105398Y489956D01*
X105313Y490013D01*
X104027Y490700D01*
X102958Y491578D01*
X102080Y492648D01*
X101427Y493868D01*
X101026Y495193D01*
X100890Y496568D01*
X101039Y498012D01*
X101479Y499393D01*
X102192Y500655D01*
X103148Y501745D01*
X104306Y502617D01*
X105618Y503233D01*
X107028Y503569D01*
X108477Y503610D01*
X109904Y503354D01*
X111248Y502812D01*
X112454Y502006D01*
X113469Y500972D01*
X114252Y499752D01*
X114769Y498397D01*
X114998Y496966D01*
X114931Y495518D01*
X114569Y494115D01*
X113928Y492814D01*
X113034Y491672D01*
X111927Y490737D01*
X110584Y490011D01*
X110499Y489945D01*
X110411Y489882D01*
X110402Y489870D01*
X110391Y489862D01*
X110331Y489772D01*
X110268Y489684D01*
X110264Y489670D01*
X110256Y489658D01*
X110229Y489554D01*
X110197Y489451D01*
X110198Y489436D01*
X110194Y489422D01*
X110202Y489314D01*
X110205Y489207D01*
X110210Y489189D01*
X110211Y489179D01*
X110220Y489158D01*
X110248Y489065D01*
X110763Y487823D01*
X110763Y487822D01*
X111073Y487074D01*
X111073Y487073D01*
X111383Y486324D01*
X111694Y485575D01*
X112314Y484076D01*
X112625Y483327D01*
X112935Y482578D01*
X113245Y481829D01*
X113245Y481828D01*
X113556Y481079D01*
X113836Y480403D01*
X113865Y480356D01*
X113886Y480304D01*
X113929Y480253D01*
X113965Y480196D01*
X114008Y480161D01*
X114044Y480118D01*
X114101Y480084D01*
X114153Y480041D01*
X114205Y480022D01*
X114253Y479993D01*
X114319Y479979D01*
X114382Y479955D01*
X114437Y479953D01*
X114492Y479942D01*
X114558Y479949D01*
X114625Y479947D01*
X114679Y479963D01*
X114734Y479970D01*
X114845Y480014D01*
X114859Y480018D01*
X114863Y480021D01*
X114871Y480024D01*
X116965Y481103D01*
X122869Y476289D01*
X122963Y476235D01*
X123055Y476178D01*
X123068Y476175D01*
X123080Y476168D01*
X123187Y476147D01*
X123292Y476122D01*
X123306Y476124D01*
X123320Y476121D01*
X123427Y476136D01*
G37*
G36*
X231044Y312347D02*
X231044Y312347D01*
X231051Y312345D01*
X231108Y312374D01*
X231129Y312383D01*
X231130Y312385D01*
X231132Y312386D01*
X234866Y316526D01*
X234881Y316571D01*
X234898Y316615D01*
X234897Y316617D01*
X234898Y316620D01*
X234877Y316662D01*
X234857Y316704D01*
X234855Y316705D01*
X234854Y316707D01*
X234832Y316714D01*
X234772Y316737D01*
X223668Y316737D01*
X223670Y316738D01*
X224386Y317258D01*
X224393Y317269D01*
X224406Y317276D01*
X224996Y317936D01*
X225000Y317948D01*
X225011Y317958D01*
X225448Y318727D01*
X225450Y318740D01*
X225459Y318752D01*
X225723Y319596D01*
X225722Y319607D01*
X225728Y319618D01*
X225883Y320835D01*
X225881Y320844D01*
X225884Y320853D01*
X225867Y322080D01*
X225864Y322088D01*
X225866Y322098D01*
X225677Y323310D01*
X225672Y323319D01*
X225672Y323330D01*
X225378Y324249D01*
X225371Y324257D01*
X225369Y324269D01*
X224923Y325125D01*
X224915Y325131D01*
X224912Y325143D01*
X224327Y325911D01*
X224318Y325916D01*
X224313Y325927D01*
X223606Y326584D01*
X223596Y326588D01*
X223589Y326598D01*
X222404Y327370D01*
X222394Y327372D01*
X222385Y327380D01*
X221085Y327936D01*
X221074Y327936D01*
X221064Y327943D01*
X219688Y328266D01*
X219677Y328264D01*
X219666Y328269D01*
X217451Y328387D01*
X217440Y328383D01*
X217428Y328386D01*
X215228Y328103D01*
X215218Y328098D01*
X215206Y328098D01*
X213093Y327424D01*
X213083Y327416D01*
X213070Y327414D01*
X212029Y326835D01*
X212021Y326824D01*
X212007Y326819D01*
X211117Y326027D01*
X211112Y326018D01*
X211102Y326011D01*
X210449Y325187D01*
X210447Y325179D01*
X210440Y325173D01*
X209899Y324271D01*
X209897Y324261D01*
X209889Y324252D01*
X209489Y323228D01*
X209489Y323215D01*
X209482Y323203D01*
X209299Y322118D01*
X209301Y322107D01*
X209297Y322095D01*
X209322Y320114D01*
X209327Y320103D01*
X209325Y320090D01*
X209427Y319608D01*
X209433Y319599D01*
X209433Y319587D01*
X209966Y318266D01*
X209973Y318259D01*
X209974Y318249D01*
X210207Y317855D01*
X210216Y317848D01*
X210221Y317836D01*
X210522Y317493D01*
X210528Y317490D01*
X210531Y317483D01*
X211140Y316923D01*
X211496Y316594D01*
X211497Y316594D01*
X211498Y316593D01*
X211647Y316459D01*
X209730Y316483D01*
X209715Y316477D01*
X209701Y316480D01*
X209672Y316460D01*
X209638Y316446D01*
X209633Y316432D01*
X209620Y316423D01*
X209613Y316382D01*
X209602Y316355D01*
X209606Y316345D01*
X209604Y316334D01*
X210340Y312448D01*
X210362Y312414D01*
X210379Y312378D01*
X210389Y312374D01*
X210395Y312366D01*
X210424Y312360D01*
X210464Y312345D01*
X231038Y312345D01*
X231044Y312347D01*
G37*
G36*
X221568Y329720D02*
X221568Y329720D01*
X221581Y329717D01*
X222625Y329906D01*
X222634Y329912D01*
X222647Y329912D01*
X223640Y330285D01*
X223649Y330293D01*
X223661Y330295D01*
X224144Y330587D01*
X224151Y330596D01*
X224163Y330601D01*
X224583Y330978D01*
X224588Y330989D01*
X224599Y330996D01*
X224941Y331444D01*
X224945Y331457D01*
X224955Y331467D01*
X225561Y332736D01*
X225561Y332749D01*
X225570Y332762D01*
X225878Y334134D01*
X225876Y334146D01*
X225881Y334159D01*
X225919Y335794D01*
X225915Y335804D01*
X225918Y335815D01*
X225677Y337433D01*
X225671Y337442D01*
X225672Y337455D01*
X225320Y338490D01*
X225312Y338499D01*
X225310Y338511D01*
X224770Y339462D01*
X224761Y339470D01*
X224756Y339482D01*
X224053Y340309D01*
X224037Y340333D01*
X224036Y340342D01*
X224038Y340350D01*
X224044Y340357D01*
X224067Y340366D01*
X225096Y340593D01*
X225099Y340595D01*
X225102Y340594D01*
X225382Y340670D01*
X225396Y340681D01*
X225415Y340685D01*
X225451Y340706D01*
X225468Y340730D01*
X225471Y340733D01*
X225481Y340737D01*
X225484Y340745D01*
X225497Y340757D01*
X225516Y340794D01*
X225518Y340824D01*
X225529Y340862D01*
X225526Y340898D01*
X225526Y344932D01*
X225517Y344955D01*
X225517Y344980D01*
X225498Y344998D01*
X225488Y345023D01*
X225465Y345032D01*
X225447Y345049D01*
X225418Y345050D01*
X225396Y345058D01*
X225378Y345050D01*
X225356Y345050D01*
X225157Y344976D01*
X223862Y344627D01*
X222525Y344525D01*
X218187Y344550D01*
X218184Y344549D01*
X218182Y344550D01*
X218139Y344530D01*
X218106Y344517D01*
X218084Y344525D01*
X213258Y344525D01*
X213251Y344522D01*
X213243Y344524D01*
X212507Y344433D01*
X212494Y344426D01*
X212477Y344426D01*
X211786Y344159D01*
X211776Y344148D01*
X211759Y344144D01*
X211154Y343717D01*
X211146Y343704D01*
X211131Y343696D01*
X210648Y343134D01*
X210644Y343121D01*
X210633Y343111D01*
X209939Y341808D01*
X209938Y341796D01*
X209930Y341785D01*
X209505Y340371D01*
X209506Y340361D01*
X209501Y340352D01*
X209271Y338613D01*
X209273Y338605D01*
X209270Y338597D01*
X209262Y336843D01*
X209265Y336836D01*
X209262Y336827D01*
X209476Y335087D01*
X209480Y335079D01*
X209479Y335069D01*
X209813Y333840D01*
X209820Y333832D01*
X209820Y333821D01*
X210349Y332663D01*
X210358Y332655D01*
X210361Y332642D01*
X210935Y331825D01*
X210946Y331818D01*
X210952Y331805D01*
X210992Y331768D01*
X211666Y331137D01*
X211682Y331122D01*
X211694Y331118D01*
X211703Y331106D01*
X212556Y330587D01*
X212569Y330585D01*
X212580Y330575D01*
X213521Y330241D01*
X213534Y330242D01*
X213547Y330235D01*
X214438Y330113D01*
X214440Y330110D01*
X214440Y330109D01*
X214487Y330091D01*
X214532Y330074D01*
X214537Y330076D01*
X214616Y330109D01*
X214642Y330134D01*
X214659Y330174D01*
X214680Y330212D01*
X214678Y330218D01*
X214680Y330225D01*
X214663Y330265D01*
X214654Y330295D01*
X214654Y334442D01*
X214653Y334444D01*
X214654Y334446D01*
X214634Y334489D01*
X214616Y334533D01*
X214614Y334533D01*
X214613Y334535D01*
X214528Y334568D01*
X214486Y334568D01*
X213954Y334631D01*
X213459Y334815D01*
X213021Y335110D01*
X212665Y335500D01*
X212410Y335964D01*
X212245Y336525D01*
X212191Y337112D01*
X212241Y338467D01*
X212302Y338836D01*
X212430Y339182D01*
X212623Y339496D01*
X212857Y339749D01*
X213136Y339948D01*
X213450Y340087D01*
X213971Y340198D01*
X214502Y340198D01*
X215023Y340087D01*
X215120Y340045D01*
X215207Y339985D01*
X215468Y339701D01*
X215714Y339273D01*
X215879Y338804D01*
X216105Y337498D01*
X216333Y335292D01*
X216336Y335288D01*
X216335Y335283D01*
X216613Y333746D01*
X216617Y333738D01*
X216617Y333729D01*
X217101Y332244D01*
X217108Y332236D01*
X217109Y332224D01*
X217475Y331528D01*
X217485Y331520D01*
X217489Y331507D01*
X217987Y330897D01*
X217995Y330893D01*
X217999Y330884D01*
X218003Y330883D01*
X218005Y330879D01*
X218614Y330381D01*
X218625Y330378D01*
X218628Y330377D01*
X218638Y330366D01*
X219500Y329937D01*
X219515Y329936D01*
X219529Y329927D01*
X220470Y329721D01*
X220483Y329723D01*
X220497Y329718D01*
X221558Y329715D01*
X221568Y329720D01*
G37*
G36*
X225479Y358853D02*
X225479Y358853D01*
X225482Y358852D01*
X225565Y358889D01*
X225616Y358940D01*
X225618Y358943D01*
X225620Y358944D01*
X225653Y359029D01*
X225653Y363169D01*
X225652Y363171D01*
X225653Y363173D01*
X225633Y363216D01*
X225615Y363260D01*
X225613Y363260D01*
X225612Y363262D01*
X225527Y363295D01*
X220119Y363295D01*
X218512Y364950D01*
X225490Y369183D01*
X225501Y369198D01*
X225518Y369206D01*
X225531Y369240D01*
X225548Y369263D01*
X225546Y369276D01*
X225551Y369290D01*
X225576Y374370D01*
X225561Y374406D01*
X225553Y374444D01*
X225543Y374450D01*
X225538Y374461D01*
X225502Y374476D01*
X225469Y374496D01*
X225457Y374493D01*
X225447Y374497D01*
X225419Y374485D01*
X225380Y374476D01*
X215485Y367879D01*
X209919Y373570D01*
X209918Y373571D01*
X209917Y373573D01*
X209872Y373590D01*
X209828Y373608D01*
X209827Y373608D01*
X209825Y373608D01*
X209782Y373588D01*
X209738Y373569D01*
X209737Y373568D01*
X209736Y373567D01*
X209703Y373482D01*
X209703Y368808D01*
X209704Y368805D01*
X209703Y368802D01*
X209740Y368719D01*
X215214Y363244D01*
X203784Y363244D01*
X203752Y363231D01*
X203718Y363226D01*
X203708Y363212D01*
X203693Y363206D01*
X203681Y363174D01*
X203661Y363145D01*
X203663Y363128D01*
X203658Y363114D01*
X203669Y363089D01*
X203674Y363055D01*
X206036Y358915D01*
X206053Y358903D01*
X206061Y358885D01*
X206093Y358872D01*
X206115Y358856D01*
X206130Y358858D01*
X206146Y358852D01*
X225476Y358852D01*
X225479Y358853D01*
G37*
G36*
X220553Y385753D02*
X220553Y385753D01*
X220560Y385751D01*
X221659Y385852D01*
X221669Y385858D01*
X221682Y385856D01*
X222745Y386156D01*
X222754Y386163D01*
X222767Y386164D01*
X223757Y386652D01*
X223765Y386661D01*
X223777Y386665D01*
X224662Y387325D01*
X224669Y387335D01*
X224681Y387342D01*
X224909Y387596D01*
X224913Y387608D01*
X224924Y387616D01*
X225450Y388518D01*
X225452Y388530D01*
X225460Y388540D01*
X225803Y389526D01*
X225802Y389538D01*
X225809Y389550D01*
X225956Y390583D01*
X225953Y390593D01*
X225957Y390604D01*
X225956Y390678D01*
X225956Y390679D01*
X225953Y390805D01*
X225951Y390931D01*
X225948Y391057D01*
X225945Y391183D01*
X225945Y391184D01*
X225943Y391310D01*
X225927Y392098D01*
X225924Y392105D01*
X225926Y392114D01*
X225702Y393592D01*
X225697Y393600D01*
X225698Y393610D01*
X225617Y393872D01*
X225611Y393880D01*
X225610Y393892D01*
X225487Y394137D01*
X225480Y394144D01*
X225477Y394154D01*
X224818Y395084D01*
X224810Y395089D01*
X224807Y395098D01*
X224022Y395925D01*
X224014Y395928D01*
X224009Y395937D01*
X223368Y396444D01*
X225425Y396444D01*
X225427Y396445D01*
X225429Y396444D01*
X225472Y396464D01*
X225516Y396482D01*
X225516Y396484D01*
X225518Y396485D01*
X225551Y396570D01*
X225551Y400583D01*
X225550Y400585D01*
X225551Y400587D01*
X225531Y400630D01*
X225513Y400674D01*
X225511Y400674D01*
X225510Y400676D01*
X225425Y400709D01*
X209804Y400709D01*
X209802Y400708D01*
X209800Y400709D01*
X209757Y400689D01*
X209713Y400671D01*
X209713Y400669D01*
X209711Y400668D01*
X209678Y400583D01*
X209678Y396367D01*
X209679Y396365D01*
X209678Y396363D01*
X209698Y396320D01*
X209716Y396276D01*
X209718Y396276D01*
X209719Y396274D01*
X209804Y396241D01*
X218106Y396241D01*
X219336Y396165D01*
X220540Y395940D01*
X221090Y395731D01*
X221575Y395404D01*
X221972Y394973D01*
X222260Y394463D01*
X222472Y393772D01*
X222539Y393051D01*
X222459Y392332D01*
X222236Y391643D01*
X222011Y391248D01*
X221710Y390907D01*
X221348Y390635D01*
X220580Y390292D01*
X219750Y390143D01*
X209753Y390143D01*
X209751Y390142D01*
X209749Y390143D01*
X209706Y390123D01*
X209662Y390105D01*
X209662Y390103D01*
X209660Y390102D01*
X209627Y390017D01*
X209627Y385877D01*
X209628Y385875D01*
X209627Y385873D01*
X209647Y385830D01*
X209665Y385786D01*
X209667Y385786D01*
X209668Y385784D01*
X209753Y385751D01*
X220548Y385751D01*
X220553Y385753D01*
G37*
G36*
X225503Y402948D02*
X225503Y402948D01*
X225505Y402947D01*
X225548Y402967D01*
X225592Y402985D01*
X225592Y402987D01*
X225594Y402988D01*
X225627Y403073D01*
X225627Y407289D01*
X225626Y407291D01*
X225627Y407293D01*
X225607Y407336D01*
X225589Y407380D01*
X225587Y407380D01*
X225586Y407382D01*
X225501Y407415D01*
X216135Y407415D01*
X215352Y407496D01*
X214602Y407712D01*
X213923Y408075D01*
X213354Y408592D01*
X213040Y409049D01*
X212836Y409565D01*
X212749Y410121D01*
X212699Y411226D01*
X212716Y411542D01*
X212793Y411842D01*
X213010Y412277D01*
X213319Y412651D01*
X213706Y412947D01*
X214348Y413257D01*
X215036Y413448D01*
X215754Y413513D01*
X225400Y413513D01*
X225402Y413514D01*
X225404Y413513D01*
X225447Y413533D01*
X225491Y413551D01*
X225491Y413553D01*
X225493Y413554D01*
X225526Y413639D01*
X225526Y417728D01*
X225525Y417730D01*
X225526Y417732D01*
X225506Y417775D01*
X225488Y417819D01*
X225486Y417819D01*
X225485Y417821D01*
X225400Y417854D01*
X214859Y417854D01*
X214854Y417852D01*
X214849Y417854D01*
X213720Y417764D01*
X213712Y417760D01*
X213703Y417761D01*
X212596Y417521D01*
X212588Y417516D01*
X212578Y417516D01*
X211873Y417247D01*
X211865Y417239D01*
X211853Y417237D01*
X211204Y416853D01*
X211198Y416844D01*
X211186Y416840D01*
X210611Y416351D01*
X210606Y416340D01*
X210594Y416333D01*
X209976Y415548D01*
X209973Y415535D01*
X209961Y415524D01*
X209539Y414619D01*
X209538Y414605D01*
X209530Y414591D01*
X209324Y413614D01*
X209327Y413603D01*
X209322Y413591D01*
X209272Y411585D01*
X209276Y411575D01*
X209273Y411564D01*
X209428Y410512D01*
X209435Y410501D01*
X209435Y410487D01*
X209804Y409490D01*
X209813Y409480D01*
X209816Y409466D01*
X210383Y408568D01*
X210392Y408561D01*
X210396Y408550D01*
X210812Y408089D01*
X210820Y408086D01*
X210824Y408078D01*
X211297Y407676D01*
X211302Y407674D01*
X211304Y407670D01*
X211682Y407393D01*
X211818Y407279D01*
X211847Y407237D01*
X209779Y407237D01*
X209777Y407236D01*
X209775Y407237D01*
X209732Y407217D01*
X209688Y407199D01*
X209688Y407197D01*
X209686Y407196D01*
X209653Y407111D01*
X209653Y403073D01*
X209654Y403071D01*
X209653Y403069D01*
X209673Y403026D01*
X209691Y402982D01*
X209693Y402982D01*
X209694Y402980D01*
X209779Y402947D01*
X225501Y402947D01*
X225503Y402948D01*
G37*
G36*
X220478Y295912D02*
X220478Y295912D01*
X220481Y295911D01*
X220837Y295936D01*
X220843Y295939D01*
X220850Y295938D01*
X221434Y296040D01*
X221442Y296045D01*
X221453Y296044D01*
X222723Y296476D01*
X222730Y296483D01*
X222740Y296484D01*
X223336Y296793D01*
X223343Y296803D01*
X223356Y296807D01*
X223880Y297227D01*
X223885Y297238D01*
X223897Y297244D01*
X224328Y297759D01*
X224330Y297767D01*
X224337Y297772D01*
X225099Y298966D01*
X225101Y298974D01*
X225108Y298981D01*
X225505Y299838D01*
X225506Y299851D01*
X225514Y299863D01*
X225726Y300784D01*
X225724Y300793D01*
X225729Y300803D01*
X225907Y303369D01*
X225905Y303376D01*
X225907Y303382D01*
X225903Y303490D01*
X225899Y303616D01*
X225894Y303742D01*
X225890Y303868D01*
X225890Y303869D01*
X225886Y303995D01*
X225881Y304121D01*
X225877Y304247D01*
X225872Y304373D01*
X225872Y304374D01*
X225868Y304500D01*
X225863Y304626D01*
X225860Y304709D01*
X225858Y304715D01*
X225859Y304722D01*
X225677Y306036D01*
X225673Y306044D01*
X225674Y306053D01*
X225391Y307053D01*
X225384Y307062D01*
X225383Y307074D01*
X224932Y308009D01*
X224924Y308016D01*
X224921Y308028D01*
X224315Y308872D01*
X224306Y308877D01*
X224304Y308882D01*
X224303Y308882D01*
X224300Y308888D01*
X223557Y309614D01*
X223547Y309618D01*
X223539Y309629D01*
X222975Y310008D01*
X222964Y310010D01*
X222954Y310019D01*
X222329Y310285D01*
X222317Y310285D01*
X222306Y310293D01*
X221642Y310435D01*
X221633Y310434D01*
X221624Y310438D01*
X220583Y310514D01*
X220574Y310511D01*
X220563Y310514D01*
X219508Y310420D01*
X219495Y310413D01*
X219479Y310413D01*
X218476Y310076D01*
X218465Y310067D01*
X218450Y310064D01*
X218038Y309812D01*
X218031Y309802D01*
X218017Y309796D01*
X217667Y309464D01*
X217663Y309453D01*
X217652Y309447D01*
X217144Y308755D01*
X217142Y308747D01*
X217134Y308740D01*
X216729Y307984D01*
X216728Y307975D01*
X216722Y307968D01*
X216112Y306312D01*
X216112Y306304D01*
X216107Y306296D01*
X215726Y304573D01*
X215726Y304572D01*
X215725Y304571D01*
X215321Y302548D01*
X215049Y301796D01*
X214633Y301121D01*
X214340Y300838D01*
X213979Y300654D01*
X213610Y300589D01*
X213238Y300637D01*
X212896Y300792D01*
X212628Y301025D01*
X212433Y301326D01*
X212276Y301750D01*
X212191Y302199D01*
X212147Y303048D01*
X212191Y303895D01*
X212289Y304391D01*
X212478Y304858D01*
X212749Y305281D01*
X213013Y305556D01*
X213326Y305774D01*
X213678Y305924D01*
X213921Y305979D01*
X214181Y305995D01*
X214223Y306016D01*
X214266Y306036D01*
X214267Y306038D01*
X214269Y306039D01*
X214275Y306058D01*
X214299Y306121D01*
X214299Y310007D01*
X214296Y310016D01*
X214298Y310024D01*
X214277Y310060D01*
X214261Y310098D01*
X214252Y310101D01*
X214247Y310109D01*
X214196Y310123D01*
X214169Y310133D01*
X214165Y310131D01*
X214160Y310133D01*
X213449Y310057D01*
X213439Y310051D01*
X213428Y310053D01*
X213422Y310048D01*
X213415Y310048D01*
X213402Y310056D01*
X213382Y310051D01*
X213367Y310051D01*
X213364Y310049D01*
X213342Y310050D01*
X212784Y309847D01*
X212780Y309843D01*
X212775Y309843D01*
X211987Y309487D01*
X211981Y309480D01*
X211970Y309478D01*
X211528Y309192D01*
X211523Y309184D01*
X211513Y309180D01*
X211118Y308832D01*
X211113Y308822D01*
X211102Y308815D01*
X210345Y307856D01*
X210342Y307843D01*
X210331Y307833D01*
X209793Y306736D01*
X209792Y306724D01*
X209784Y306713D01*
X209416Y305362D01*
X209417Y305352D01*
X209412Y305342D01*
X209272Y303949D01*
X209274Y303943D01*
X209272Y303936D01*
X209272Y302133D01*
X209274Y302127D01*
X209272Y302119D01*
X209427Y300690D01*
X209433Y300680D01*
X209432Y300667D01*
X209843Y299289D01*
X209850Y299280D01*
X209851Y299268D01*
X210505Y297987D01*
X210514Y297979D01*
X210517Y297967D01*
X210887Y297491D01*
X210897Y297485D01*
X210903Y297473D01*
X211358Y297079D01*
X211369Y297075D01*
X211378Y297064D01*
X211900Y296765D01*
X211913Y296764D01*
X211923Y296755D01*
X213007Y296397D01*
X213019Y296398D01*
X213032Y296392D01*
X214166Y296263D01*
X214178Y296266D01*
X214192Y296263D01*
X215328Y296368D01*
X215339Y296374D01*
X215353Y296373D01*
X215842Y296525D01*
X215852Y296533D01*
X215866Y296535D01*
X216313Y296784D01*
X216321Y296795D01*
X216335Y296799D01*
X216720Y297136D01*
X216725Y297146D01*
X216736Y297152D01*
X217273Y297829D01*
X217276Y297838D01*
X217284Y297845D01*
X217711Y298596D01*
X217712Y298605D01*
X217719Y298613D01*
X218025Y299421D01*
X218025Y299429D01*
X218030Y299437D01*
X218893Y303068D01*
X219199Y304242D01*
X219669Y305349D01*
X219900Y305685D01*
X220204Y305951D01*
X220566Y306131D01*
X220961Y306216D01*
X221365Y306199D01*
X221750Y306082D01*
X222095Y305874D01*
X222379Y305586D01*
X222691Y305073D01*
X222888Y304506D01*
X222962Y303903D01*
X222962Y302573D01*
X222889Y302011D01*
X222672Y301424D01*
X222335Y300897D01*
X221892Y300455D01*
X221478Y300200D01*
X221016Y300053D01*
X220519Y300024D01*
X220472Y300024D01*
X220470Y300023D01*
X220468Y300024D01*
X220425Y300004D01*
X220381Y299986D01*
X220381Y299984D01*
X220379Y299983D01*
X220346Y299898D01*
X220346Y296037D01*
X220348Y296031D01*
X220346Y296024D01*
X220353Y296012D01*
X220352Y295998D01*
X220353Y295996D01*
X220353Y295995D01*
X220373Y295973D01*
X220384Y295946D01*
X220391Y295944D01*
X220394Y295938D01*
X220408Y295933D01*
X220417Y295923D01*
X220418Y295923D01*
X220420Y295922D01*
X220447Y295921D01*
X220454Y295919D01*
X220476Y295911D01*
X220478Y295912D01*
G37*
G36*
X212519Y373147D02*
X212519Y373147D01*
X212563Y373167D01*
X212564Y373168D01*
X212597Y373252D01*
X212621Y377115D01*
X225501Y377115D01*
X225503Y377116D01*
X225505Y377115D01*
X225548Y377135D01*
X225592Y377153D01*
X225592Y377155D01*
X225594Y377156D01*
X225627Y377241D01*
X225627Y381406D01*
X225626Y381408D01*
X225627Y381410D01*
X225607Y381453D01*
X225589Y381497D01*
X225587Y381497D01*
X225586Y381499D01*
X225501Y381532D01*
X212597Y381532D01*
X212597Y384404D01*
X212596Y384406D01*
X212597Y384408D01*
X212577Y384451D01*
X212559Y384495D01*
X212557Y384495D01*
X212556Y384497D01*
X212471Y384530D01*
X209804Y384530D01*
X209802Y384529D01*
X209800Y384530D01*
X209757Y384510D01*
X209713Y384492D01*
X209713Y384490D01*
X209711Y384489D01*
X209678Y384404D01*
X209678Y381558D01*
X208416Y381558D01*
X207954Y381621D01*
X207531Y381796D01*
X207299Y381978D01*
X207129Y382218D01*
X207032Y382500D01*
X206949Y383400D01*
X207034Y384315D01*
X207060Y384595D01*
X207058Y384601D01*
X207060Y384607D01*
X207060Y384683D01*
X207059Y384685D01*
X207060Y384687D01*
X207040Y384730D01*
X207022Y384774D01*
X207020Y384774D01*
X207019Y384776D01*
X206934Y384809D01*
X203911Y384809D01*
X203909Y384808D01*
X203907Y384809D01*
X203864Y384789D01*
X203820Y384771D01*
X203820Y384769D01*
X203818Y384768D01*
X203785Y384683D01*
X203785Y384661D01*
X203709Y383344D01*
X203710Y383341D01*
X203709Y383337D01*
X203709Y381787D01*
X203713Y381777D01*
X203711Y381766D01*
X203885Y380753D01*
X203892Y380743D01*
X203892Y380729D01*
X204261Y379771D01*
X204269Y379762D01*
X204272Y379749D01*
X204822Y378881D01*
X204832Y378874D01*
X204837Y378862D01*
X205547Y378119D01*
X205558Y378114D01*
X205565Y378103D01*
X206042Y377763D01*
X206053Y377761D01*
X206062Y377752D01*
X206593Y377503D01*
X206604Y377503D01*
X206614Y377495D01*
X207181Y377347D01*
X207192Y377348D01*
X207203Y377343D01*
X209337Y377166D01*
X209338Y377167D01*
X209344Y377167D01*
X209347Y377166D01*
X209678Y377166D01*
X209678Y375920D01*
X209679Y375917D01*
X209678Y375914D01*
X209715Y375831D01*
X212382Y373164D01*
X212382Y373163D01*
X212383Y373163D01*
X212428Y373145D01*
X212473Y373127D01*
X212474Y373127D01*
X212519Y373147D01*
G37*
G36*
X225402Y346991D02*
X225402Y346991D01*
X225404Y346990D01*
X225447Y347010D01*
X225491Y347028D01*
X225491Y347030D01*
X225493Y347031D01*
X225526Y347116D01*
X225526Y351282D01*
X225525Y351284D01*
X225526Y351286D01*
X225506Y351329D01*
X225488Y351373D01*
X225486Y351373D01*
X225485Y351375D01*
X225400Y351408D01*
X217581Y351408D01*
X216735Y351481D01*
X215916Y351681D01*
X215123Y352042D01*
X214431Y352567D01*
X213871Y353234D01*
X213607Y353713D01*
X213426Y354231D01*
X213334Y354773D01*
X213334Y356298D01*
X213459Y356895D01*
X213458Y356898D01*
X213460Y356901D01*
X213485Y357053D01*
X213482Y357062D01*
X213486Y357073D01*
X213486Y357099D01*
X213485Y357101D01*
X213486Y357103D01*
X213466Y357146D01*
X213448Y357190D01*
X213446Y357190D01*
X213445Y357192D01*
X213360Y357225D01*
X209499Y357225D01*
X209455Y357207D01*
X209410Y357189D01*
X209410Y357187D01*
X209408Y357187D01*
X209402Y357170D01*
X209373Y357106D01*
X209297Y355734D01*
X209301Y355724D01*
X209298Y355712D01*
X209382Y355011D01*
X209388Y355001D01*
X209387Y354987D01*
X209610Y354317D01*
X209619Y354308D01*
X209621Y354294D01*
X209974Y353683D01*
X209977Y353681D01*
X209978Y353677D01*
X210563Y352788D01*
X210566Y352785D01*
X210568Y352780D01*
X210870Y352386D01*
X210882Y352379D01*
X210890Y352365D01*
X211273Y352049D01*
X211279Y352047D01*
X211284Y352041D01*
X212326Y351355D01*
X212594Y351176D01*
X212609Y351129D01*
X209829Y351129D01*
X209816Y351124D01*
X209803Y351127D01*
X209773Y351105D01*
X209738Y351091D01*
X209733Y351078D01*
X209722Y351070D01*
X209714Y351027D01*
X209703Y350999D01*
X209707Y350991D01*
X209705Y350981D01*
X210391Y347120D01*
X210413Y347086D01*
X210430Y347049D01*
X210439Y347045D01*
X210444Y347037D01*
X210474Y347032D01*
X210515Y347016D01*
X225400Y346990D01*
X225402Y346991D01*
G37*
%LPC*%
G36*
X215525Y316669D02*
X215525Y316669D01*
X214751Y316936D01*
X214044Y317349D01*
X213364Y317947D01*
X212808Y318659D01*
X212646Y318997D01*
X212572Y319369D01*
X212522Y320444D01*
X212567Y321011D01*
X212723Y321553D01*
X212983Y322053D01*
X213613Y322812D01*
X214399Y323409D01*
X215298Y323812D01*
X216268Y324003D01*
X218239Y324006D01*
X220186Y323702D01*
X220947Y323413D01*
X221605Y322941D01*
X222121Y322315D01*
X222459Y321576D01*
X222638Y320685D01*
X222632Y319775D01*
X222480Y319053D01*
X222190Y318375D01*
X221827Y317866D01*
X221358Y317454D01*
X220794Y317155D01*
X220790Y317149D01*
X220783Y317148D01*
X220707Y317097D01*
X220706Y317096D01*
X220705Y317096D01*
X220645Y317054D01*
X220586Y317042D01*
X220548Y317042D01*
X220547Y317042D01*
X220546Y317042D01*
X220502Y317023D01*
X220457Y317004D01*
X220457Y317003D01*
X220456Y317002D01*
X220439Y316957D01*
X220431Y316935D01*
X220426Y316935D01*
X220391Y316944D01*
X220354Y316939D01*
X220344Y316933D01*
X220330Y316934D01*
X219655Y316709D01*
X218886Y316585D01*
X216340Y316559D01*
X215525Y316669D01*
G37*
%LPD*%
%LPC*%
G36*
X220337Y334156D02*
X220337Y334156D01*
X219795Y334376D01*
X219497Y334580D01*
X219253Y334848D01*
X218969Y335322D01*
X218772Y335840D01*
X218667Y336390D01*
X218515Y337833D01*
X218513Y337837D01*
X218513Y337841D01*
X218344Y338833D01*
X218340Y338839D01*
X218341Y338848D01*
X218053Y339812D01*
X218046Y339821D01*
X218044Y339834D01*
X217937Y340041D01*
X217925Y340051D01*
X217919Y340067D01*
X217792Y340209D01*
X218084Y340209D01*
X218086Y340210D01*
X218088Y340209D01*
X218131Y340229D01*
X218133Y340229D01*
X218186Y340209D01*
X219020Y340209D01*
X220109Y340139D01*
X221179Y339932D01*
X221344Y339885D01*
X221593Y339778D01*
X221812Y339628D01*
X222531Y338884D01*
X222716Y338593D01*
X222838Y338271D01*
X222987Y337229D01*
X222937Y335701D01*
X222840Y335240D01*
X222637Y334819D01*
X222340Y334457D01*
X222090Y334266D01*
X221805Y334131D01*
X221497Y334060D01*
X220913Y334049D01*
X220337Y334156D01*
G37*
%LPD*%
D10*
X270510Y449580D02*
X270510Y434340D01*
X435610Y441960D02*
X435610Y457200D01*
X63500Y7620D02*
X38100Y7620D01*
X88900Y7620D02*
X114300Y7620D01*
D11*
X34536Y48774D02*
X32757Y46995D01*
X32757Y43436D01*
X34536Y41656D01*
X41655Y41656D01*
X43434Y43436D01*
X43434Y46995D01*
X41655Y48774D01*
X38095Y48774D01*
X38095Y45215D01*
X32757Y53350D02*
X43434Y53350D01*
X43434Y60468D02*
X32757Y53350D01*
X32757Y60468D02*
X43434Y60468D01*
X43434Y65044D02*
X32757Y65044D01*
X43434Y65044D02*
X43434Y70383D01*
X41655Y72162D01*
X34536Y72162D01*
X32757Y70383D01*
X32757Y65044D01*
X58157Y41656D02*
X65275Y41656D01*
X68834Y45215D01*
X65275Y48774D01*
X58157Y48774D01*
X63495Y53350D02*
X63495Y60468D01*
X83557Y41656D02*
X90675Y41656D01*
X94234Y45215D01*
X90675Y48774D01*
X83557Y48774D01*
X88895Y53350D02*
X88895Y60468D01*
X85336Y56909D02*
X92455Y56909D01*
X108957Y41656D02*
X116075Y41656D01*
X119634Y45215D01*
X116075Y48774D01*
X108957Y48774D01*
X119634Y53350D02*
X119634Y56909D01*
X119634Y55129D02*
X108957Y55129D01*
X108957Y53350D02*
X108957Y56909D01*
X108957Y61146D02*
X119634Y61146D01*
X119634Y68264D02*
X108957Y61146D01*
X108957Y68264D02*
X119634Y68264D01*
X235957Y39116D02*
X246634Y39116D01*
X235957Y39116D02*
X235957Y44455D01*
X237736Y46234D01*
X241295Y46234D01*
X243075Y44455D01*
X243075Y39116D01*
X243075Y42675D02*
X246634Y46234D01*
X235957Y56149D02*
X237736Y57928D01*
X235957Y56149D02*
X235957Y52589D01*
X237736Y50810D01*
X239516Y50810D01*
X241295Y52589D01*
X241295Y56149D01*
X243075Y57928D01*
X244855Y57928D01*
X246634Y56149D01*
X246634Y52589D01*
X244855Y50810D01*
X246634Y66063D02*
X235957Y66063D01*
X235957Y62504D02*
X235957Y69622D01*
X261357Y40896D02*
X263136Y39116D01*
X261357Y40896D02*
X261357Y44455D01*
X263136Y46234D01*
X264916Y46234D01*
X266695Y44455D01*
X266695Y42675D01*
X266695Y44455D02*
X268475Y46234D01*
X270255Y46234D01*
X272034Y44455D01*
X272034Y40896D01*
X270255Y39116D01*
X270255Y50810D02*
X272034Y50810D01*
X270255Y50810D02*
X270255Y52589D01*
X272034Y52589D01*
X272034Y50810D01*
X263136Y56657D02*
X261357Y58436D01*
X261357Y61996D01*
X263136Y63775D01*
X264916Y63775D01*
X266695Y61996D01*
X266695Y60216D01*
X266695Y61996D02*
X268475Y63775D01*
X270255Y63775D01*
X272034Y61996D01*
X272034Y58436D01*
X270255Y56657D01*
X268475Y68351D02*
X261357Y68351D01*
X268475Y68351D02*
X272034Y71910D01*
X268475Y75469D01*
X261357Y75469D01*
X286757Y46234D02*
X286757Y39116D01*
X292095Y39116D01*
X290316Y42675D01*
X290316Y44455D01*
X292095Y46234D01*
X295655Y46234D01*
X297434Y44455D01*
X297434Y40896D01*
X295655Y39116D01*
X293875Y50810D02*
X286757Y50810D01*
X293875Y50810D02*
X297434Y54369D01*
X293875Y57928D01*
X286757Y57928D01*
X312157Y44455D02*
X313936Y46234D01*
X312157Y44455D02*
X312157Y40896D01*
X313936Y39116D01*
X321055Y39116D01*
X322834Y40896D01*
X322834Y44455D01*
X321055Y46234D01*
X317495Y46234D01*
X317495Y42675D01*
X312157Y50810D02*
X322834Y50810D01*
X322834Y57928D02*
X312157Y50810D01*
X312157Y57928D02*
X322834Y57928D01*
X322834Y62504D02*
X312157Y62504D01*
X322834Y62504D02*
X322834Y67843D01*
X321055Y69622D01*
X313936Y69622D01*
X312157Y67843D01*
X312157Y62504D01*
X337557Y44455D02*
X339336Y46234D01*
X337557Y44455D02*
X337557Y40896D01*
X339336Y39116D01*
X346455Y39116D01*
X348234Y40896D01*
X348234Y44455D01*
X346455Y46234D01*
X342895Y46234D01*
X342895Y42675D01*
X337557Y50810D02*
X348234Y50810D01*
X348234Y57928D02*
X337557Y50810D01*
X337557Y57928D02*
X348234Y57928D01*
X348234Y62504D02*
X337557Y62504D01*
X348234Y62504D02*
X348234Y67843D01*
X346455Y69622D01*
X339336Y69622D01*
X337557Y67843D01*
X337557Y62504D01*
X362957Y39116D02*
X370075Y39116D01*
X373634Y42675D01*
X370075Y46234D01*
X362957Y46234D01*
X373634Y50810D02*
X373634Y54369D01*
X373634Y52589D02*
X362957Y52589D01*
X362957Y50810D02*
X362957Y54369D01*
X362957Y58606D02*
X373634Y58606D01*
X373634Y65724D02*
X362957Y58606D01*
X362957Y65724D02*
X373634Y65724D01*
X415536Y39116D02*
X422655Y39116D01*
X415536Y39116D02*
X413757Y40896D01*
X413757Y44455D01*
X415536Y46234D01*
X422655Y46234D01*
X424434Y44455D01*
X424434Y40896D01*
X422655Y39116D01*
X415536Y46234D01*
X439157Y42675D02*
X442716Y39116D01*
X439157Y42675D02*
X449834Y42675D01*
X449834Y39116D02*
X449834Y46234D01*
X475234Y46234D02*
X475234Y39116D01*
X468116Y46234D01*
X466336Y46234D01*
X464557Y44455D01*
X464557Y40896D01*
X466336Y39116D01*
X489957Y40896D02*
X491736Y39116D01*
X489957Y40896D02*
X489957Y44455D01*
X491736Y46234D01*
X493516Y46234D01*
X495295Y44455D01*
X495295Y42675D01*
X495295Y44455D02*
X497075Y46234D01*
X498855Y46234D01*
X500634Y44455D01*
X500634Y40896D01*
X498855Y39116D01*
X515357Y44455D02*
X526034Y44455D01*
X520695Y39116D02*
X515357Y44455D01*
X520695Y46234D02*
X520695Y39116D01*
X540757Y39116D02*
X540757Y46234D01*
X540757Y39116D02*
X546095Y39116D01*
X544316Y42675D01*
X544316Y44455D01*
X546095Y46234D01*
X549655Y46234D01*
X551434Y44455D01*
X551434Y40896D01*
X549655Y39116D01*
D12*
X156210Y465732D02*
X151126Y465732D01*
X148584Y468274D01*
X151126Y470816D01*
X156210Y470816D01*
X152397Y470816D02*
X152397Y465732D01*
X156210Y473918D02*
X148584Y473918D01*
X148584Y477731D01*
X149855Y479002D01*
X152397Y479002D01*
X153668Y477731D01*
X153668Y473918D01*
X153668Y476460D02*
X156210Y479002D01*
X148584Y482103D02*
X148584Y487188D01*
X148584Y482103D02*
X156210Y482103D01*
X156210Y487188D01*
X152397Y484646D02*
X152397Y482103D01*
X156210Y490289D02*
X148584Y490289D01*
X148584Y495374D01*
X152397Y492831D02*
X152397Y490289D01*
D11*
X172457Y469113D02*
X174236Y470892D01*
X172457Y469113D02*
X172457Y465554D01*
X174236Y463774D01*
X181355Y463774D01*
X183134Y465554D01*
X183134Y469113D01*
X181355Y470892D01*
X177795Y470892D01*
X177795Y467333D01*
X172457Y475468D02*
X183134Y475468D01*
X183134Y482586D02*
X172457Y475468D01*
X172457Y482586D02*
X183134Y482586D01*
X183134Y487162D02*
X172457Y487162D01*
X183134Y487162D02*
X183134Y492501D01*
X181355Y494280D01*
X174236Y494280D01*
X172457Y492501D01*
X172457Y487162D01*
X199636Y459198D02*
X197857Y457419D01*
X197857Y453860D01*
X199636Y452080D01*
X201416Y452080D01*
X203195Y453860D01*
X203195Y457419D01*
X204975Y459198D01*
X206755Y459198D01*
X208534Y457419D01*
X208534Y453860D01*
X206755Y452080D01*
X197857Y469113D02*
X199636Y470892D01*
X197857Y469113D02*
X197857Y465554D01*
X199636Y463774D01*
X206755Y463774D01*
X208534Y465554D01*
X208534Y469113D01*
X206755Y470892D01*
X208534Y475468D02*
X197857Y475468D01*
X208534Y475468D02*
X208534Y482586D01*
X208534Y487162D02*
X197857Y487162D01*
X204975Y487162D02*
X197857Y494280D01*
X203195Y488941D02*
X208534Y494280D01*
X223257Y455978D02*
X233934Y455978D01*
X226816Y459537D02*
X223257Y455978D01*
X226816Y459537D02*
X223257Y463096D01*
X233934Y463096D01*
X233934Y467672D02*
X233934Y471231D01*
X233934Y469452D02*
X223257Y469452D01*
X223257Y471231D02*
X223257Y467672D01*
X223257Y480807D02*
X225036Y482586D01*
X223257Y480807D02*
X223257Y477247D01*
X225036Y475468D01*
X226816Y475468D01*
X228595Y477247D01*
X228595Y480807D01*
X230375Y482586D01*
X232155Y482586D01*
X233934Y480807D01*
X233934Y477247D01*
X232155Y475468D01*
X223257Y488941D02*
X223257Y492501D01*
X223257Y488941D02*
X225036Y487162D01*
X232155Y487162D01*
X233934Y488941D01*
X233934Y492501D01*
X232155Y494280D01*
X225036Y494280D01*
X223257Y492501D01*
X248657Y455978D02*
X259334Y455978D01*
X252216Y459537D02*
X248657Y455978D01*
X252216Y459537D02*
X248657Y463096D01*
X259334Y463096D01*
X248657Y469452D02*
X248657Y473011D01*
X248657Y469452D02*
X250436Y467672D01*
X257555Y467672D01*
X259334Y469452D01*
X259334Y473011D01*
X257555Y474790D01*
X250436Y474790D01*
X248657Y473011D01*
X248657Y484705D02*
X250436Y486484D01*
X248657Y484705D02*
X248657Y481145D01*
X250436Y479366D01*
X252216Y479366D01*
X253995Y481145D01*
X253995Y484705D01*
X255775Y486484D01*
X257555Y486484D01*
X259334Y484705D01*
X259334Y481145D01*
X257555Y479366D01*
X259334Y491060D02*
X259334Y494619D01*
X259334Y492839D02*
X248657Y492839D01*
X248657Y491060D02*
X248657Y494619D01*
X275836Y439708D02*
X274057Y437929D01*
X274057Y434370D01*
X275836Y432590D01*
X282955Y432590D01*
X284734Y434370D01*
X284734Y437929D01*
X282955Y439708D01*
X274057Y449623D02*
X275836Y451402D01*
X274057Y449623D02*
X274057Y446064D01*
X275836Y444284D01*
X277616Y444284D01*
X279395Y446064D01*
X279395Y449623D01*
X281175Y451402D01*
X282955Y451402D01*
X284734Y449623D01*
X284734Y446064D01*
X282955Y444284D01*
X279395Y455978D02*
X279395Y463096D01*
X274057Y467672D02*
X284734Y467672D01*
X281175Y471231D01*
X284734Y474790D01*
X274057Y474790D01*
X284734Y479366D02*
X284734Y482925D01*
X284734Y481145D02*
X274057Y481145D01*
X274057Y479366D02*
X274057Y482925D01*
X274057Y487162D02*
X274057Y494280D01*
X275836Y494280D01*
X282955Y487162D01*
X284734Y487162D01*
X284734Y494280D01*
X308355Y487162D02*
X310134Y488942D01*
X310134Y492501D01*
X308355Y494280D01*
X301236Y494280D01*
X299457Y492501D01*
X299457Y488942D01*
X301236Y487162D01*
X303016Y487162D01*
X304795Y488942D01*
X304795Y494280D01*
X324857Y488942D02*
X326636Y487162D01*
X324857Y488942D02*
X324857Y492501D01*
X326636Y494280D01*
X328416Y494280D01*
X330195Y492501D01*
X331975Y494280D01*
X333755Y494280D01*
X335534Y492501D01*
X335534Y488942D01*
X333755Y487162D01*
X331975Y487162D01*
X330195Y488942D01*
X328416Y487162D01*
X326636Y487162D01*
X330195Y488942D02*
X330195Y492501D01*
X362957Y494280D02*
X362957Y487162D01*
X362957Y494280D02*
X364736Y494280D01*
X371855Y487162D01*
X373634Y487162D01*
X388357Y494280D02*
X390136Y490721D01*
X393695Y487162D01*
X397255Y487162D01*
X399034Y488942D01*
X399034Y492501D01*
X397255Y494280D01*
X395475Y494280D01*
X393695Y492501D01*
X393695Y487162D01*
X413757Y487162D02*
X413757Y494280D01*
X413757Y487162D02*
X419095Y487162D01*
X417316Y490721D01*
X417316Y492501D01*
X419095Y494280D01*
X422655Y494280D01*
X424434Y492501D01*
X424434Y488942D01*
X422655Y487162D01*
X440936Y447504D02*
X439157Y445725D01*
X439157Y442166D01*
X440936Y440386D01*
X448055Y440386D01*
X449834Y442166D01*
X449834Y445725D01*
X448055Y447504D01*
X439157Y457419D02*
X440936Y459198D01*
X439157Y457419D02*
X439157Y453860D01*
X440936Y452080D01*
X442716Y452080D01*
X444495Y453860D01*
X444495Y457419D01*
X446275Y459198D01*
X448055Y459198D01*
X449834Y457419D01*
X449834Y453860D01*
X448055Y452080D01*
X444495Y463774D02*
X444495Y470892D01*
X439157Y480807D02*
X440936Y482586D01*
X439157Y480807D02*
X439157Y477247D01*
X440936Y475468D01*
X442716Y475468D01*
X444495Y477247D01*
X444495Y480807D01*
X446275Y482586D01*
X448055Y482586D01*
X449834Y480807D01*
X449834Y477247D01*
X448055Y475468D01*
X449834Y487162D02*
X439157Y487162D01*
X449834Y487162D02*
X449834Y492500D01*
X448055Y494280D01*
X440936Y494280D01*
X439157Y492500D01*
X439157Y487162D01*
X464557Y488942D02*
X466336Y487162D01*
X464557Y488942D02*
X464557Y492501D01*
X466336Y494280D01*
X468116Y494280D01*
X469895Y492501D01*
X469895Y490721D01*
X469895Y492501D02*
X471675Y494280D01*
X473455Y494280D01*
X475234Y492501D01*
X475234Y488942D01*
X473455Y487162D01*
X515357Y479027D02*
X526034Y479027D01*
X515357Y475468D02*
X515357Y482586D01*
X515357Y487162D02*
X526034Y494280D01*
X526034Y487162D02*
X515357Y494280D01*
X540757Y475468D02*
X551434Y475468D01*
X540757Y475468D02*
X540757Y480807D01*
X542536Y482586D01*
X546095Y482586D01*
X547875Y480807D01*
X547875Y475468D01*
X547875Y479027D02*
X551434Y482586D01*
X540757Y487162D02*
X551434Y494280D01*
X551434Y487162D02*
X540757Y494280D01*
X500634Y447843D02*
X500634Y444284D01*
X500634Y446064D02*
X489957Y446064D01*
X489957Y447843D02*
X489957Y444284D01*
X489957Y452080D02*
X500634Y452080D01*
X500634Y459198D02*
X489957Y452080D01*
X489957Y459198D02*
X500634Y459198D01*
X500634Y467333D02*
X489957Y467333D01*
X489957Y463774D02*
X489957Y470892D01*
X495295Y475468D02*
X495295Y482586D01*
X500634Y487162D02*
X500634Y494280D01*
X500634Y487162D02*
X493516Y494280D01*
X491736Y494280D01*
X489957Y492500D01*
X489957Y488941D01*
X491736Y487162D01*
D13*
X309118Y342266D02*
X300475Y342266D01*
X300475Y346588D01*
X301915Y348029D01*
X304796Y348029D01*
X306237Y346588D01*
X306237Y342266D01*
X309118Y351622D02*
X300475Y351622D01*
X306237Y354503D02*
X309118Y351622D01*
X306237Y354503D02*
X309118Y357384D01*
X300475Y357384D01*
X300475Y360977D02*
X309118Y360977D01*
X300475Y360977D02*
X300475Y365299D01*
X301915Y366739D01*
X304796Y366739D01*
X306237Y365299D01*
X306237Y360977D01*
X306237Y363858D02*
X309118Y366739D01*
X325875Y354503D02*
X334518Y354503D01*
X325875Y351622D02*
X325875Y357384D01*
X325875Y360977D02*
X334518Y366739D01*
X334518Y360977D02*
X325875Y366739D01*
X351275Y351622D02*
X359918Y351622D01*
X351275Y351622D02*
X351275Y355943D01*
X352715Y357384D01*
X355596Y357384D01*
X357037Y355943D01*
X357037Y351622D01*
X357037Y354503D02*
X359918Y357384D01*
X359918Y366739D02*
X351275Y360977D01*
X351275Y366739D02*
X359918Y360977D01*
X378115Y338673D02*
X376675Y337233D01*
X376675Y334352D01*
X378115Y332911D01*
X383877Y332911D01*
X385318Y334352D01*
X385318Y337233D01*
X383877Y338673D01*
X376675Y343707D02*
X376675Y346588D01*
X376675Y343707D02*
X378115Y342266D01*
X383877Y342266D01*
X385318Y343707D01*
X385318Y346588D01*
X383877Y348029D01*
X378115Y348029D01*
X376675Y346588D01*
X376675Y351622D02*
X385318Y351622D01*
X385318Y357384D01*
X385318Y360977D02*
X376675Y360977D01*
X385318Y360977D02*
X385318Y366739D01*
X403515Y348029D02*
X402075Y346588D01*
X402075Y343707D01*
X403515Y342266D01*
X404956Y342266D01*
X406396Y343707D01*
X406396Y346588D01*
X407837Y348029D01*
X409277Y348029D01*
X410718Y346588D01*
X410718Y343707D01*
X409277Y342266D01*
X410718Y351622D02*
X402075Y351622D01*
X402075Y355943D01*
X403515Y357384D01*
X406396Y357384D01*
X407837Y355943D01*
X407837Y351622D01*
X410718Y360977D02*
X402075Y360977D01*
X410718Y360977D02*
X410718Y365299D01*
X409277Y366739D01*
X403515Y366739D01*
X402075Y365299D01*
X402075Y360977D01*
D11*
X240284Y322326D02*
X229607Y322326D01*
X229607Y327665D01*
X231386Y329444D01*
X234945Y329444D01*
X236725Y327665D01*
X236725Y322326D01*
X240284Y335799D02*
X240284Y339359D01*
X238505Y341138D01*
X234945Y341138D01*
X233166Y339359D01*
X233166Y335799D01*
X234945Y334020D01*
X238505Y334020D01*
X240284Y335799D01*
X229607Y345714D02*
X229607Y352832D01*
X229607Y345714D02*
X240284Y345714D01*
X240284Y352832D01*
X234945Y349273D02*
X234945Y345714D01*
X231386Y359187D02*
X238505Y359187D01*
X240284Y360967D01*
X233166Y360967D02*
X233166Y357408D01*
X229607Y365204D02*
X240284Y365204D01*
X234945Y365204D02*
X233166Y366983D01*
X233166Y370542D01*
X234945Y372322D01*
X240284Y372322D01*
X240284Y378677D02*
X240284Y382236D01*
X240284Y378677D02*
X238505Y376898D01*
X234945Y376898D01*
X233166Y378677D01*
X233166Y382236D01*
X234945Y384016D01*
X236725Y384016D01*
X236725Y376898D01*
X240284Y388592D02*
X233166Y388592D01*
X236725Y388592D02*
X233166Y392151D01*
X233166Y393930D01*
X233166Y398337D02*
X240284Y398337D01*
X233166Y398337D02*
X233166Y403675D01*
X234945Y405455D01*
X240284Y405455D01*
X240284Y411810D02*
X240284Y415369D01*
X240284Y411810D02*
X238505Y410031D01*
X234945Y410031D01*
X233166Y411810D01*
X233166Y415369D01*
X234945Y417149D01*
X236725Y417149D01*
X236725Y410031D01*
X238505Y423504D02*
X231386Y423504D01*
X238505Y423504D02*
X240284Y425284D01*
X233166Y425284D02*
X233166Y421725D01*
D13*
X216408Y16002D02*
X207765Y16002D01*
X207765Y20324D01*
X209205Y21764D01*
X212086Y21764D01*
X213527Y20324D01*
X213527Y16002D01*
X213527Y18883D02*
X216408Y21764D01*
X207765Y25357D02*
X207765Y31119D01*
X207765Y25357D02*
X216408Y25357D01*
X216408Y31119D01*
X212086Y28238D02*
X212086Y25357D01*
X207765Y39034D02*
X209205Y40475D01*
X207765Y39034D02*
X207765Y36153D01*
X209205Y34712D01*
X210646Y34712D01*
X212086Y36153D01*
X212086Y39034D01*
X213527Y40475D01*
X214967Y40475D01*
X216408Y39034D01*
X216408Y36153D01*
X214967Y34712D01*
X207765Y44068D02*
X207765Y49830D01*
X207765Y44068D02*
X216408Y44068D01*
X216408Y49830D01*
X212086Y46949D02*
X212086Y44068D01*
X216408Y56304D02*
X207765Y56304D01*
X207765Y53423D02*
X207765Y59185D01*
D11*
X246117Y347985D02*
X247896Y349764D01*
X246117Y347985D02*
X246117Y344426D01*
X247896Y342646D01*
X249676Y342646D01*
X251455Y344426D01*
X251455Y347985D01*
X253235Y349764D01*
X255015Y349764D01*
X256794Y347985D01*
X256794Y344426D01*
X255015Y342646D01*
X256794Y354340D02*
X246117Y354340D01*
X249676Y356119D02*
X251455Y354340D01*
X249676Y356119D02*
X249676Y359679D01*
X251455Y361458D01*
X256794Y361458D01*
X249676Y366034D02*
X249676Y367813D01*
X256794Y367813D01*
X256794Y366034D02*
X256794Y369593D01*
X246117Y367813D02*
X244337Y367813D01*
X256794Y375609D02*
X256794Y379168D01*
X256794Y375609D02*
X255015Y373830D01*
X251455Y373830D01*
X249676Y375609D01*
X249676Y379168D01*
X251455Y380948D01*
X253235Y380948D01*
X253235Y373830D01*
X246117Y385524D02*
X246117Y387303D01*
X256794Y387303D01*
X256794Y385524D02*
X256794Y389083D01*
X256794Y400438D02*
X246117Y400438D01*
X256794Y400438D02*
X256794Y395099D01*
X255015Y393320D01*
X251455Y393320D01*
X249676Y395099D01*
X249676Y400438D01*
X436626Y64014D02*
X436626Y56896D01*
X436626Y64014D02*
X440185Y67573D01*
X443744Y64014D01*
X443744Y56896D01*
X443744Y62235D02*
X436626Y62235D01*
X448320Y64014D02*
X448320Y56896D01*
X448320Y64014D02*
X453659Y64014D01*
X455438Y62235D01*
X455438Y56896D01*
X461793Y64014D02*
X465353Y64014D01*
X467132Y62235D01*
X467132Y56896D01*
X461793Y56896D01*
X460014Y58676D01*
X461793Y60455D01*
X467132Y60455D01*
X471708Y67573D02*
X473487Y67573D01*
X473487Y56896D01*
X471708Y56896D02*
X475267Y56896D01*
X481283Y56896D02*
X484842Y56896D01*
X486622Y58676D01*
X486622Y62235D01*
X484842Y64014D01*
X481283Y64014D01*
X479504Y62235D01*
X479504Y58676D01*
X481283Y56896D01*
X494757Y53337D02*
X496536Y53337D01*
X498316Y55117D01*
X498316Y64014D01*
X492977Y64014D01*
X491198Y62235D01*
X491198Y58676D01*
X492977Y56896D01*
X498316Y56896D01*
X514586Y56896D02*
X518145Y56896D01*
X516365Y56896D02*
X516365Y67573D01*
X514586Y67573D02*
X518145Y67573D01*
X522382Y64014D02*
X522382Y56896D01*
X522382Y64014D02*
X527720Y64014D01*
X529500Y62235D01*
X529500Y56896D01*
D13*
X13208Y465582D02*
X4565Y465582D01*
X4565Y471344D01*
X8886Y468463D02*
X8886Y465582D01*
X4565Y474937D02*
X13208Y474937D01*
X13208Y479259D01*
X11767Y480699D01*
X6005Y480699D01*
X4565Y479259D01*
X4565Y474937D01*
X4565Y484292D02*
X13208Y490055D01*
X13208Y484292D02*
X4565Y490055D01*
X4565Y266192D02*
X13208Y266192D01*
X13208Y271954D01*
X13208Y275547D02*
X13208Y278428D01*
X13208Y276988D02*
X4565Y276988D01*
X4565Y278428D02*
X4565Y275547D01*
X4565Y281784D02*
X13208Y281784D01*
X13208Y287546D02*
X4565Y281784D01*
X4565Y287546D02*
X13208Y287546D01*
X13208Y291139D02*
X4565Y291139D01*
X10327Y291139D02*
X4565Y296901D01*
X8886Y292580D02*
X13208Y296901D01*
D11*
X431800Y381300D02*
X563800Y381300D01*
X552800Y241300D02*
X431800Y241300D01*
X584800Y358300D02*
X584800Y366300D01*
X567800Y341300D02*
X567800Y257300D01*
X431800Y332300D02*
X431800Y381300D01*
X431800Y305300D02*
X431800Y275300D01*
X431800Y248300D02*
X431800Y241300D01*
X577800Y351300D02*
X577960Y351290D01*
X578121Y351283D01*
X578281Y351281D01*
X578442Y351283D01*
X578602Y351288D01*
X578763Y351297D01*
X578923Y351311D01*
X579082Y351328D01*
X579241Y351349D01*
X579400Y351374D01*
X579558Y351404D01*
X579715Y351436D01*
X579872Y351473D01*
X580027Y351514D01*
X580181Y351558D01*
X580334Y351607D01*
X580486Y351659D01*
X580637Y351714D01*
X580786Y351774D01*
X580934Y351837D01*
X581080Y351903D01*
X581224Y351974D01*
X581367Y352047D01*
X581508Y352125D01*
X581646Y352205D01*
X581783Y352290D01*
X581918Y352377D01*
X582050Y352468D01*
X582181Y352562D01*
X582308Y352659D01*
X582434Y352759D01*
X582557Y352863D01*
X582677Y352969D01*
X582795Y353078D01*
X582910Y353190D01*
X583022Y353305D01*
X583131Y353423D01*
X583237Y353543D01*
X583341Y353666D01*
X583441Y353792D01*
X583538Y353919D01*
X583632Y354050D01*
X583723Y354182D01*
X583810Y354317D01*
X583895Y354454D01*
X583975Y354592D01*
X584053Y354733D01*
X584126Y354876D01*
X584197Y355020D01*
X584263Y355166D01*
X584326Y355314D01*
X584386Y355463D01*
X584441Y355614D01*
X584493Y355766D01*
X584542Y355919D01*
X584586Y356073D01*
X584627Y356228D01*
X584664Y356385D01*
X584696Y356542D01*
X584726Y356700D01*
X584751Y356859D01*
X584772Y357018D01*
X584789Y357177D01*
X584803Y357337D01*
X584812Y357498D01*
X584817Y357658D01*
X584819Y357819D01*
X584817Y357979D01*
X584810Y358140D01*
X584800Y358300D01*
X577800Y351300D02*
X577552Y351291D01*
X577305Y351276D01*
X577058Y351255D01*
X576812Y351228D01*
X576567Y351195D01*
X576322Y351156D01*
X576078Y351112D01*
X575836Y351061D01*
X575595Y351005D01*
X575355Y350942D01*
X575117Y350874D01*
X574880Y350801D01*
X574646Y350721D01*
X574413Y350636D01*
X574183Y350546D01*
X573954Y350449D01*
X573728Y350348D01*
X573505Y350241D01*
X573284Y350128D01*
X573066Y350010D01*
X572851Y349887D01*
X572640Y349759D01*
X572431Y349626D01*
X572225Y349488D01*
X572023Y349345D01*
X571824Y349197D01*
X571629Y349044D01*
X571438Y348886D01*
X571251Y348724D01*
X571067Y348558D01*
X570888Y348387D01*
X570713Y348212D01*
X570542Y348033D01*
X570376Y347849D01*
X570214Y347662D01*
X570056Y347471D01*
X569903Y347276D01*
X569755Y347077D01*
X569612Y346875D01*
X569474Y346669D01*
X569341Y346460D01*
X569213Y346249D01*
X569090Y346034D01*
X568972Y345816D01*
X568859Y345595D01*
X568752Y345372D01*
X568651Y345146D01*
X568554Y344917D01*
X568464Y344687D01*
X568379Y344454D01*
X568299Y344220D01*
X568226Y343983D01*
X568158Y343745D01*
X568095Y343505D01*
X568039Y343264D01*
X567988Y343022D01*
X567944Y342778D01*
X567905Y342533D01*
X567872Y342288D01*
X567845Y342042D01*
X567824Y341795D01*
X567809Y341548D01*
X567800Y341300D01*
D14*
X501818Y315613D02*
X495675Y315613D01*
X501818Y315613D02*
X503047Y316841D01*
X503047Y319299D01*
X501818Y320528D01*
X495675Y320528D01*
X503047Y323097D02*
X503047Y328012D01*
X503047Y323097D02*
X498132Y328012D01*
X496903Y328012D01*
X495675Y326783D01*
X495675Y324326D01*
X496903Y323097D01*
D15*
X362500Y253200D02*
X272500Y253200D01*
X267500Y248200D02*
X267500Y158200D01*
X272500Y153200D02*
X362500Y153200D01*
X362640Y153202D01*
X362780Y153208D01*
X362920Y153218D01*
X363060Y153231D01*
X363199Y153249D01*
X363338Y153271D01*
X363475Y153296D01*
X363613Y153325D01*
X363749Y153358D01*
X363884Y153395D01*
X364018Y153436D01*
X364151Y153481D01*
X364283Y153529D01*
X364413Y153581D01*
X364542Y153636D01*
X364669Y153695D01*
X364795Y153758D01*
X364919Y153824D01*
X365040Y153893D01*
X365160Y153966D01*
X365278Y154043D01*
X365393Y154122D01*
X365507Y154205D01*
X365617Y154291D01*
X365726Y154380D01*
X365832Y154472D01*
X365935Y154567D01*
X366036Y154664D01*
X366133Y154765D01*
X366228Y154868D01*
X366320Y154974D01*
X366409Y155083D01*
X366495Y155193D01*
X366578Y155307D01*
X366657Y155422D01*
X366734Y155540D01*
X366807Y155660D01*
X366876Y155781D01*
X366942Y155905D01*
X367005Y156031D01*
X367064Y156158D01*
X367119Y156287D01*
X367171Y156417D01*
X367219Y156549D01*
X367264Y156682D01*
X367305Y156816D01*
X367342Y156951D01*
X367375Y157087D01*
X367404Y157225D01*
X367429Y157362D01*
X367451Y157501D01*
X367469Y157640D01*
X367482Y157780D01*
X367492Y157920D01*
X367498Y158060D01*
X367500Y158200D01*
X367500Y248200D01*
X367498Y248340D01*
X367492Y248480D01*
X367482Y248620D01*
X367469Y248760D01*
X367451Y248899D01*
X367429Y249038D01*
X367404Y249175D01*
X367375Y249313D01*
X367342Y249449D01*
X367305Y249584D01*
X367264Y249718D01*
X367219Y249851D01*
X367171Y249983D01*
X367119Y250113D01*
X367064Y250242D01*
X367005Y250369D01*
X366942Y250495D01*
X366876Y250619D01*
X366807Y250740D01*
X366734Y250860D01*
X366657Y250978D01*
X366578Y251093D01*
X366495Y251207D01*
X366409Y251317D01*
X366320Y251426D01*
X366228Y251532D01*
X366133Y251635D01*
X366036Y251736D01*
X365935Y251833D01*
X365832Y251928D01*
X365726Y252020D01*
X365617Y252109D01*
X365507Y252195D01*
X365393Y252278D01*
X365278Y252357D01*
X365160Y252434D01*
X365040Y252507D01*
X364919Y252576D01*
X364795Y252642D01*
X364669Y252705D01*
X364542Y252764D01*
X364413Y252819D01*
X364283Y252871D01*
X364151Y252919D01*
X364018Y252964D01*
X363884Y253005D01*
X363749Y253042D01*
X363613Y253075D01*
X363475Y253104D01*
X363338Y253129D01*
X363199Y253151D01*
X363060Y253169D01*
X362920Y253182D01*
X362780Y253192D01*
X362640Y253198D01*
X362500Y253200D01*
X272500Y253200D02*
X272360Y253198D01*
X272220Y253192D01*
X272080Y253182D01*
X271940Y253169D01*
X271801Y253151D01*
X271662Y253129D01*
X271525Y253104D01*
X271387Y253075D01*
X271251Y253042D01*
X271116Y253005D01*
X270982Y252964D01*
X270849Y252919D01*
X270717Y252871D01*
X270587Y252819D01*
X270458Y252764D01*
X270331Y252705D01*
X270205Y252642D01*
X270081Y252576D01*
X269960Y252507D01*
X269840Y252434D01*
X269722Y252357D01*
X269607Y252278D01*
X269493Y252195D01*
X269383Y252109D01*
X269274Y252020D01*
X269168Y251928D01*
X269065Y251833D01*
X268964Y251736D01*
X268867Y251635D01*
X268772Y251532D01*
X268680Y251426D01*
X268591Y251317D01*
X268505Y251207D01*
X268422Y251093D01*
X268343Y250978D01*
X268266Y250860D01*
X268193Y250740D01*
X268124Y250619D01*
X268058Y250495D01*
X267995Y250369D01*
X267936Y250242D01*
X267881Y250113D01*
X267829Y249983D01*
X267781Y249851D01*
X267736Y249718D01*
X267695Y249584D01*
X267658Y249449D01*
X267625Y249313D01*
X267596Y249175D01*
X267571Y249038D01*
X267549Y248899D01*
X267531Y248760D01*
X267518Y248620D01*
X267508Y248480D01*
X267502Y248340D01*
X267500Y248200D01*
X267500Y158200D02*
X267502Y158060D01*
X267508Y157920D01*
X267518Y157780D01*
X267531Y157640D01*
X267549Y157501D01*
X267571Y157362D01*
X267596Y157225D01*
X267625Y157087D01*
X267658Y156951D01*
X267695Y156816D01*
X267736Y156682D01*
X267781Y156549D01*
X267829Y156417D01*
X267881Y156287D01*
X267936Y156158D01*
X267995Y156031D01*
X268058Y155905D01*
X268124Y155781D01*
X268193Y155660D01*
X268266Y155540D01*
X268343Y155422D01*
X268422Y155307D01*
X268505Y155193D01*
X268591Y155083D01*
X268680Y154974D01*
X268772Y154868D01*
X268867Y154765D01*
X268964Y154664D01*
X269065Y154567D01*
X269168Y154472D01*
X269274Y154380D01*
X269383Y154291D01*
X269493Y154205D01*
X269607Y154122D01*
X269722Y154043D01*
X269840Y153966D01*
X269960Y153893D01*
X270081Y153824D01*
X270205Y153758D01*
X270331Y153695D01*
X270458Y153636D01*
X270587Y153581D01*
X270717Y153529D01*
X270849Y153481D01*
X270982Y153436D01*
X271116Y153395D01*
X271251Y153358D01*
X271387Y153325D01*
X271525Y153296D01*
X271662Y153271D01*
X271801Y153249D01*
X271940Y153231D01*
X272080Y153218D01*
X272220Y153208D01*
X272360Y153202D01*
X272500Y153200D01*
X273377Y243200D02*
X273379Y243328D01*
X273385Y243456D01*
X273395Y243584D01*
X273409Y243712D01*
X273427Y243839D01*
X273449Y243965D01*
X273474Y244091D01*
X273504Y244215D01*
X273538Y244339D01*
X273575Y244462D01*
X273616Y244583D01*
X273661Y244703D01*
X273710Y244822D01*
X273762Y244939D01*
X273818Y245055D01*
X273877Y245168D01*
X273940Y245280D01*
X274007Y245390D01*
X274076Y245497D01*
X274149Y245603D01*
X274226Y245706D01*
X274305Y245806D01*
X274388Y245904D01*
X274473Y246000D01*
X274562Y246093D01*
X274653Y246183D01*
X274748Y246270D01*
X274844Y246354D01*
X274944Y246435D01*
X275046Y246513D01*
X275150Y246588D01*
X275256Y246659D01*
X275365Y246727D01*
X275476Y246792D01*
X275588Y246853D01*
X275703Y246911D01*
X275819Y246965D01*
X275937Y247015D01*
X276056Y247062D01*
X276177Y247105D01*
X276299Y247144D01*
X276423Y247180D01*
X276547Y247211D01*
X276672Y247239D01*
X276798Y247263D01*
X276925Y247283D01*
X277052Y247299D01*
X277180Y247311D01*
X277308Y247319D01*
X277436Y247323D01*
X277564Y247323D01*
X277692Y247319D01*
X277820Y247311D01*
X277948Y247299D01*
X278075Y247283D01*
X278202Y247263D01*
X278328Y247239D01*
X278453Y247211D01*
X278577Y247180D01*
X278701Y247144D01*
X278823Y247105D01*
X278944Y247062D01*
X279063Y247015D01*
X279181Y246965D01*
X279297Y246911D01*
X279412Y246853D01*
X279524Y246792D01*
X279635Y246727D01*
X279744Y246659D01*
X279850Y246588D01*
X279954Y246513D01*
X280056Y246435D01*
X280156Y246354D01*
X280252Y246270D01*
X280347Y246183D01*
X280438Y246093D01*
X280527Y246000D01*
X280612Y245904D01*
X280695Y245806D01*
X280774Y245706D01*
X280851Y245603D01*
X280924Y245497D01*
X280993Y245390D01*
X281060Y245280D01*
X281123Y245168D01*
X281182Y245055D01*
X281238Y244939D01*
X281290Y244822D01*
X281339Y244703D01*
X281384Y244583D01*
X281425Y244462D01*
X281462Y244339D01*
X281496Y244215D01*
X281526Y244091D01*
X281551Y243965D01*
X281573Y243839D01*
X281591Y243712D01*
X281605Y243584D01*
X281615Y243456D01*
X281621Y243328D01*
X281623Y243200D01*
X281621Y243072D01*
X281615Y242944D01*
X281605Y242816D01*
X281591Y242688D01*
X281573Y242561D01*
X281551Y242435D01*
X281526Y242309D01*
X281496Y242185D01*
X281462Y242061D01*
X281425Y241938D01*
X281384Y241817D01*
X281339Y241697D01*
X281290Y241578D01*
X281238Y241461D01*
X281182Y241345D01*
X281123Y241232D01*
X281060Y241120D01*
X280993Y241010D01*
X280924Y240903D01*
X280851Y240797D01*
X280774Y240694D01*
X280695Y240594D01*
X280612Y240496D01*
X280527Y240400D01*
X280438Y240307D01*
X280347Y240217D01*
X280252Y240130D01*
X280156Y240046D01*
X280056Y239965D01*
X279954Y239887D01*
X279850Y239812D01*
X279744Y239741D01*
X279635Y239673D01*
X279524Y239608D01*
X279412Y239547D01*
X279297Y239489D01*
X279181Y239435D01*
X279063Y239385D01*
X278944Y239338D01*
X278823Y239295D01*
X278701Y239256D01*
X278577Y239220D01*
X278453Y239189D01*
X278328Y239161D01*
X278202Y239137D01*
X278075Y239117D01*
X277948Y239101D01*
X277820Y239089D01*
X277692Y239081D01*
X277564Y239077D01*
X277436Y239077D01*
X277308Y239081D01*
X277180Y239089D01*
X277052Y239101D01*
X276925Y239117D01*
X276798Y239137D01*
X276672Y239161D01*
X276547Y239189D01*
X276423Y239220D01*
X276299Y239256D01*
X276177Y239295D01*
X276056Y239338D01*
X275937Y239385D01*
X275819Y239435D01*
X275703Y239489D01*
X275588Y239547D01*
X275476Y239608D01*
X275365Y239673D01*
X275256Y239741D01*
X275150Y239812D01*
X275046Y239887D01*
X274944Y239965D01*
X274844Y240046D01*
X274748Y240130D01*
X274653Y240217D01*
X274562Y240307D01*
X274473Y240400D01*
X274388Y240496D01*
X274305Y240594D01*
X274226Y240694D01*
X274149Y240797D01*
X274076Y240903D01*
X274007Y241010D01*
X273940Y241120D01*
X273877Y241232D01*
X273818Y241345D01*
X273762Y241461D01*
X273710Y241578D01*
X273661Y241697D01*
X273616Y241817D01*
X273575Y241938D01*
X273538Y242061D01*
X273504Y242185D01*
X273474Y242309D01*
X273449Y242435D01*
X273427Y242561D01*
X273409Y242688D01*
X273395Y242816D01*
X273385Y242944D01*
X273379Y243072D01*
X273377Y243200D01*
D16*
X279527Y232540D02*
X279527Y229363D01*
X280163Y228727D01*
X281434Y228727D01*
X282069Y229363D01*
X282069Y232540D01*
X283269Y231269D02*
X284540Y232540D01*
X284540Y228727D01*
X283269Y228727D02*
X285811Y228727D01*
D17*
X228600Y254000D03*
D16*
X219837Y261112D02*
X219837Y264925D01*
X221744Y264925D01*
X222379Y264290D01*
X222379Y263019D01*
X221744Y262383D01*
X219837Y262383D01*
X221108Y262383D02*
X222379Y261112D01*
X223579Y263654D02*
X224850Y264925D01*
X224850Y261112D01*
X223579Y261112D02*
X226121Y261112D01*
X227321Y261112D02*
X229863Y261112D01*
X227321Y261112D02*
X229863Y263654D01*
X229863Y264290D01*
X229228Y264925D01*
X227957Y264925D01*
X227321Y264290D01*
D11*
X286100Y301500D02*
X298100Y301500D01*
X267100Y314500D02*
X267100Y320500D01*
X286100Y333500D02*
X298100Y333500D01*
X317100Y320500D02*
X317100Y314500D01*
D16*
X310143Y298326D02*
X310143Y297691D01*
X311414Y296420D01*
X312685Y297691D01*
X312685Y298326D01*
X311414Y296420D02*
X311414Y294513D01*
X313885Y297055D02*
X315156Y298326D01*
X315156Y294513D01*
X313885Y294513D02*
X316427Y294513D01*
D18*
X329895Y317500D02*
X330505Y317500D01*
D16*
X337309Y320939D02*
X337944Y321575D01*
X337309Y320939D02*
X337309Y319668D01*
X337944Y319033D01*
X340486Y319033D01*
X341122Y319668D01*
X341122Y320939D01*
X340486Y321575D01*
X337944Y322775D02*
X337309Y323410D01*
X337309Y324682D01*
X337944Y325317D01*
X338580Y325317D01*
X339215Y324682D01*
X339215Y324046D01*
X339215Y324682D02*
X339851Y325317D01*
X340486Y325317D01*
X341122Y324682D01*
X341122Y323410D01*
X340486Y322775D01*
D18*
X254305Y317500D02*
X253695Y317500D01*
D16*
X261109Y320939D02*
X261744Y321575D01*
X261109Y320939D02*
X261109Y319668D01*
X261744Y319033D01*
X264286Y319033D01*
X264922Y319668D01*
X264922Y320939D01*
X264286Y321575D01*
X264922Y324682D02*
X261109Y324682D01*
X263015Y322775D01*
X263015Y325317D01*
D13*
X218900Y159100D02*
X212900Y159100D01*
X212900Y171100D02*
X218900Y171100D01*
D16*
X212421Y156721D02*
X212421Y152908D01*
X212421Y156721D02*
X214963Y156721D01*
X213692Y154815D02*
X212421Y154815D01*
X216163Y152908D02*
X216163Y156721D01*
X218069Y156721D01*
X218705Y156086D01*
X218705Y155450D01*
X218069Y154815D01*
X218705Y154179D01*
X218705Y153544D01*
X218069Y152908D01*
X216163Y152908D01*
X216163Y154815D02*
X218069Y154815D01*
X219905Y155450D02*
X221176Y156721D01*
X221176Y152908D01*
X219905Y152908D02*
X222447Y152908D01*
D13*
X218900Y196500D02*
X212900Y196500D01*
X212900Y184500D02*
X218900Y184500D01*
D16*
X208407Y198882D02*
X208407Y202695D01*
X210949Y202695D01*
X209678Y200789D02*
X208407Y200789D01*
X212149Y198882D02*
X212149Y202695D01*
X214056Y202695D01*
X214691Y202060D01*
X214691Y201424D01*
X214056Y200789D01*
X214691Y200153D01*
X214691Y199518D01*
X214056Y198882D01*
X212149Y198882D01*
X212149Y200789D02*
X214056Y200789D01*
X215891Y198882D02*
X218433Y198882D01*
X215891Y198882D02*
X218433Y201424D01*
X218433Y202060D01*
X217798Y202695D01*
X216527Y202695D01*
X215891Y202060D01*
D18*
X228600Y240995D02*
X228600Y241605D01*
D16*
X232039Y234191D02*
X232675Y233556D01*
X232039Y234191D02*
X230768Y234191D01*
X230133Y233556D01*
X230133Y231014D01*
X230768Y230378D01*
X232039Y230378D01*
X232675Y231014D01*
X233875Y233556D02*
X234510Y234191D01*
X235782Y234191D01*
X236417Y233556D01*
X236417Y232920D01*
X235782Y232285D01*
X236417Y231649D01*
X236417Y231014D01*
X235782Y230378D01*
X234510Y230378D01*
X233875Y231014D01*
X233875Y231649D01*
X234510Y232285D01*
X233875Y232920D01*
X233875Y233556D01*
X234510Y232285D02*
X235782Y232285D01*
D18*
X228600Y228905D02*
X228600Y228295D01*
D16*
X232039Y221491D02*
X232675Y220856D01*
X232039Y221491D02*
X230768Y221491D01*
X230133Y220856D01*
X230133Y218314D01*
X230768Y217678D01*
X232039Y217678D01*
X232675Y218314D01*
X233875Y221491D02*
X236417Y221491D01*
X236417Y220856D01*
X233875Y218314D01*
X233875Y217678D01*
D18*
X291795Y114300D02*
X292405Y114300D01*
D16*
X299209Y113997D02*
X299844Y114633D01*
X299209Y113997D02*
X299209Y112726D01*
X299844Y112091D01*
X302386Y112091D01*
X303022Y112726D01*
X303022Y113997D01*
X302386Y114633D01*
X300480Y115833D02*
X299209Y117104D01*
X303022Y117104D01*
X303022Y115833D02*
X303022Y118375D01*
X299209Y119575D02*
X299209Y122117D01*
X299209Y119575D02*
X301115Y119575D01*
X300480Y120846D01*
X300480Y121482D01*
X301115Y122117D01*
X302386Y122117D01*
X303022Y121482D01*
X303022Y120210D01*
X302386Y119575D01*
D18*
X215900Y152095D02*
X215900Y152705D01*
D16*
X215597Y145291D02*
X216233Y144656D01*
X215597Y145291D02*
X214326Y145291D01*
X213691Y144656D01*
X213691Y142114D01*
X214326Y141478D01*
X215597Y141478D01*
X216233Y142114D01*
X217433Y144020D02*
X218704Y145291D01*
X218704Y141478D01*
X217433Y141478D02*
X219975Y141478D01*
X221175Y144656D02*
X221810Y145291D01*
X223082Y145291D01*
X223717Y144656D01*
X223717Y144020D01*
X223082Y143385D01*
X222446Y143385D01*
X223082Y143385D02*
X223717Y142749D01*
X223717Y142114D01*
X223082Y141478D01*
X221810Y141478D01*
X221175Y142114D01*
D18*
X406400Y152095D02*
X406400Y152705D01*
D16*
X400179Y162690D02*
X399544Y163325D01*
X398273Y163325D01*
X397637Y162690D01*
X397637Y160148D01*
X398273Y159512D01*
X399544Y159512D01*
X400179Y160148D01*
X401379Y162054D02*
X402650Y163325D01*
X402650Y159512D01*
X401379Y159512D02*
X403921Y159512D01*
X405121Y162054D02*
X406392Y163325D01*
X406392Y159512D01*
X405121Y159512D02*
X407663Y159512D01*
D17*
X292100Y292100D03*
D16*
X293633Y284991D02*
X293633Y281178D01*
X293633Y284991D02*
X295539Y284991D01*
X296175Y284356D01*
X296175Y283085D01*
X295539Y282449D01*
X293633Y282449D01*
X294904Y282449D02*
X296175Y281178D01*
X297375Y281814D02*
X298010Y281178D01*
X299282Y281178D01*
X299917Y281814D01*
X299917Y284356D01*
X299282Y284991D01*
X298010Y284991D01*
X297375Y284356D01*
X297375Y283720D01*
X298010Y283085D01*
X299917Y283085D01*
D11*
X325600Y379300D02*
X330200Y379300D01*
X334800Y379300D01*
X330200Y379300D02*
X327862Y382400D01*
X330454Y379454D02*
X332384Y382400D01*
D16*
X337309Y375049D02*
X341122Y375049D01*
X341122Y377591D01*
X337309Y378791D02*
X337309Y381333D01*
X337309Y378791D02*
X341122Y378791D01*
X341122Y381333D01*
X339215Y380062D02*
X339215Y378791D01*
X337309Y382533D02*
X341122Y382533D01*
X341122Y384439D01*
X340486Y385075D01*
X337944Y385075D01*
X337309Y384439D01*
X337309Y382533D01*
X341122Y386275D02*
X341122Y388817D01*
X341122Y386275D02*
X338580Y388817D01*
X337944Y388817D01*
X337309Y388182D01*
X337309Y386910D01*
X337944Y386275D01*
D11*
X351000Y379300D02*
X355600Y379300D01*
X360200Y379300D01*
X355600Y379300D02*
X353262Y382400D01*
X355854Y379454D02*
X357784Y382400D01*
D16*
X362709Y375049D02*
X366522Y375049D01*
X366522Y377591D01*
X362709Y378791D02*
X362709Y381333D01*
X362709Y378791D02*
X366522Y378791D01*
X366522Y381333D01*
X364615Y380062D02*
X364615Y378791D01*
X362709Y382533D02*
X366522Y382533D01*
X366522Y384439D01*
X365886Y385075D01*
X363344Y385075D01*
X362709Y384439D01*
X362709Y382533D01*
X363344Y386275D02*
X362709Y386910D01*
X362709Y388182D01*
X363344Y388817D01*
X363980Y388817D01*
X364615Y388182D01*
X364615Y387546D01*
X364615Y388182D02*
X365251Y388817D01*
X365886Y388817D01*
X366522Y388182D01*
X366522Y386910D01*
X365886Y386275D01*
D11*
X376400Y379300D02*
X381000Y379300D01*
X385600Y379300D01*
X381000Y379300D02*
X378662Y382400D01*
X381254Y379454D02*
X383184Y382400D01*
D16*
X388109Y375049D02*
X391922Y375049D01*
X391922Y377591D01*
X388109Y378791D02*
X388109Y381333D01*
X388109Y378791D02*
X391922Y378791D01*
X391922Y381333D01*
X390015Y380062D02*
X390015Y378791D01*
X388109Y382533D02*
X391922Y382533D01*
X391922Y384439D01*
X391286Y385075D01*
X388744Y385075D01*
X388109Y384439D01*
X388109Y382533D01*
X388109Y388182D02*
X391922Y388182D01*
X390015Y386275D02*
X388109Y388182D01*
X390015Y388817D02*
X390015Y386275D01*
D11*
X401800Y379300D02*
X406400Y379300D01*
X411000Y379300D01*
X406400Y379300D02*
X404062Y382400D01*
X406654Y379454D02*
X408584Y382400D01*
D16*
X413509Y375049D02*
X417322Y375049D01*
X417322Y377591D01*
X413509Y378791D02*
X413509Y381333D01*
X413509Y378791D02*
X417322Y378791D01*
X417322Y381333D01*
X415415Y380062D02*
X415415Y378791D01*
X413509Y382533D02*
X417322Y382533D01*
X417322Y384439D01*
X416686Y385075D01*
X414144Y385075D01*
X413509Y384439D01*
X413509Y382533D01*
X413509Y386275D02*
X413509Y388817D01*
X413509Y386275D02*
X415415Y386275D01*
X414780Y387546D01*
X414780Y388182D01*
X415415Y388817D01*
X416686Y388817D01*
X417322Y388182D01*
X417322Y386910D01*
X416686Y386275D01*
D19*
X330200Y419100D03*
D16*
X323088Y410337D02*
X319275Y410337D01*
X319275Y412244D01*
X319910Y412879D01*
X321181Y412879D01*
X321817Y412244D01*
X321817Y410337D01*
X321817Y411608D02*
X323088Y412879D01*
X323088Y415986D02*
X319275Y415986D01*
X321181Y414079D01*
X321181Y416621D01*
D19*
X355600Y419100D03*
D16*
X348488Y410337D02*
X344675Y410337D01*
X344675Y412244D01*
X345310Y412879D01*
X346581Y412879D01*
X347217Y412244D01*
X347217Y410337D01*
X347217Y411608D02*
X348488Y412879D01*
X344675Y414079D02*
X344675Y416621D01*
X344675Y414079D02*
X346581Y414079D01*
X345946Y415350D01*
X345946Y415986D01*
X346581Y416621D01*
X347852Y416621D01*
X348488Y415986D01*
X348488Y414715D01*
X347852Y414079D01*
D19*
X381000Y419100D03*
D16*
X373888Y410337D02*
X370075Y410337D01*
X370075Y412244D01*
X370710Y412879D01*
X371981Y412879D01*
X372617Y412244D01*
X372617Y410337D01*
X372617Y411608D02*
X373888Y412879D01*
X370710Y415350D02*
X370075Y416621D01*
X370710Y415350D02*
X371981Y414079D01*
X373252Y414079D01*
X373888Y414715D01*
X373888Y415986D01*
X373252Y416621D01*
X372617Y416621D01*
X371981Y415986D01*
X371981Y414079D01*
D19*
X406400Y419100D03*
D16*
X399288Y410337D02*
X395475Y410337D01*
X395475Y412244D01*
X396110Y412879D01*
X397381Y412879D01*
X398017Y412244D01*
X398017Y410337D01*
X398017Y411608D02*
X399288Y412879D01*
X395475Y414079D02*
X395475Y416621D01*
X396110Y416621D01*
X398652Y414079D01*
X399288Y414079D01*
D19*
X342900Y114300D03*
D16*
X350009Y112091D02*
X353822Y112091D01*
X350009Y112091D02*
X350009Y113997D01*
X350644Y114633D01*
X351915Y114633D01*
X352551Y113997D01*
X352551Y112091D01*
X352551Y113362D02*
X353822Y114633D01*
X351280Y115833D02*
X350009Y117104D01*
X353822Y117104D01*
X353822Y115833D02*
X353822Y118375D01*
X350009Y119575D02*
X350009Y122117D01*
X350644Y122117D01*
X353186Y119575D01*
X353822Y119575D01*
D11*
X505300Y423800D02*
X505300Y439800D01*
X488300Y441800D02*
X488202Y441818D01*
X488102Y441832D01*
X488003Y441842D01*
X487903Y441848D01*
X487803Y441850D01*
X487703Y441848D01*
X487603Y441842D01*
X487503Y441833D01*
X487404Y441819D01*
X487305Y441802D01*
X487207Y441780D01*
X487110Y441755D01*
X487015Y441726D01*
X486920Y441693D01*
X486827Y441657D01*
X486735Y441617D01*
X486645Y441573D01*
X486556Y441526D01*
X486470Y441476D01*
X486386Y441422D01*
X486303Y441365D01*
X486223Y441304D01*
X486146Y441241D01*
X486071Y441174D01*
X485999Y441105D01*
X485929Y441033D01*
X485863Y440958D01*
X485799Y440881D01*
X485739Y440801D01*
X485681Y440719D01*
X485627Y440635D01*
X485576Y440548D01*
X485529Y440460D01*
X485485Y440370D01*
X485445Y440278D01*
X485409Y440185D01*
X485376Y440091D01*
X485346Y439995D01*
X485321Y439898D01*
X485300Y439800D01*
X485300Y423800D02*
X485321Y423702D01*
X485346Y423605D01*
X485376Y423509D01*
X485409Y423415D01*
X485445Y423322D01*
X485485Y423230D01*
X485529Y423140D01*
X485576Y423052D01*
X485627Y422965D01*
X485681Y422881D01*
X485739Y422799D01*
X485799Y422719D01*
X485863Y422642D01*
X485929Y422567D01*
X485999Y422495D01*
X486071Y422426D01*
X486146Y422359D01*
X486223Y422296D01*
X486303Y422235D01*
X486386Y422178D01*
X486470Y422124D01*
X486556Y422074D01*
X486645Y422027D01*
X486735Y421983D01*
X486827Y421943D01*
X486920Y421907D01*
X487015Y421874D01*
X487110Y421845D01*
X487207Y421820D01*
X487305Y421798D01*
X487404Y421781D01*
X487503Y421767D01*
X487603Y421758D01*
X487703Y421752D01*
X487803Y421750D01*
X487903Y421752D01*
X488003Y421758D01*
X488102Y421768D01*
X488202Y421782D01*
X488300Y421800D01*
X502300Y421800D02*
X502398Y421782D01*
X502498Y421768D01*
X502597Y421758D01*
X502697Y421752D01*
X502797Y421750D01*
X502897Y421752D01*
X502997Y421758D01*
X503097Y421767D01*
X503196Y421781D01*
X503295Y421798D01*
X503393Y421820D01*
X503490Y421845D01*
X503585Y421874D01*
X503680Y421907D01*
X503773Y421943D01*
X503865Y421983D01*
X503955Y422027D01*
X504044Y422074D01*
X504130Y422124D01*
X504214Y422178D01*
X504297Y422235D01*
X504377Y422296D01*
X504454Y422359D01*
X504529Y422426D01*
X504601Y422495D01*
X504671Y422567D01*
X504737Y422642D01*
X504801Y422719D01*
X504861Y422799D01*
X504919Y422881D01*
X504973Y422965D01*
X505024Y423052D01*
X505071Y423140D01*
X505115Y423230D01*
X505155Y423322D01*
X505191Y423415D01*
X505224Y423509D01*
X505254Y423605D01*
X505279Y423702D01*
X505300Y423800D01*
X505300Y439800D02*
X505279Y439898D01*
X505254Y439995D01*
X505224Y440091D01*
X505191Y440185D01*
X505155Y440278D01*
X505115Y440370D01*
X505071Y440460D01*
X505024Y440548D01*
X504973Y440635D01*
X504919Y440719D01*
X504861Y440801D01*
X504801Y440881D01*
X504737Y440958D01*
X504671Y441033D01*
X504601Y441105D01*
X504529Y441174D01*
X504454Y441241D01*
X504377Y441304D01*
X504297Y441365D01*
X504214Y441422D01*
X504130Y441476D01*
X504044Y441526D01*
X503955Y441573D01*
X503865Y441617D01*
X503773Y441657D01*
X503680Y441693D01*
X503585Y441726D01*
X503490Y441755D01*
X503393Y441780D01*
X503295Y441802D01*
X503196Y441819D01*
X503097Y441833D01*
X502997Y441842D01*
X502897Y441848D01*
X502797Y441850D01*
X502697Y441848D01*
X502597Y441842D01*
X502498Y441832D01*
X502398Y441818D01*
X502300Y441800D01*
X485300Y439800D02*
X485300Y423800D01*
D16*
X479295Y425389D02*
X478660Y424754D01*
X478660Y423483D01*
X479295Y422847D01*
X479931Y422847D01*
X480566Y423483D01*
X480566Y424754D01*
X481202Y425389D01*
X481837Y425389D01*
X482473Y424754D01*
X482473Y423483D01*
X481837Y422847D01*
X481837Y426589D02*
X482473Y427225D01*
X482473Y427860D01*
X481837Y428496D01*
X478660Y428496D01*
X478660Y429131D02*
X478660Y427860D01*
X482473Y430331D02*
X482473Y432873D01*
X482473Y430331D02*
X479931Y432873D01*
X479295Y432873D01*
X478660Y432238D01*
X478660Y430967D01*
X479295Y430331D01*
X188465Y231269D02*
X187830Y230634D01*
X187830Y229363D01*
X188465Y228727D01*
X191007Y228727D01*
X191643Y229363D01*
X191643Y230634D01*
X191007Y231269D01*
X187830Y232469D02*
X187830Y235011D01*
X187830Y232469D02*
X189736Y232469D01*
X189101Y233740D01*
X189101Y234376D01*
X189736Y235011D01*
X191007Y235011D01*
X191643Y234376D01*
X191643Y233105D01*
X191007Y232469D01*
X391030Y179834D02*
X391665Y180469D01*
X391030Y179834D02*
X391030Y178563D01*
X391665Y177927D01*
X394207Y177927D01*
X394843Y178563D01*
X394843Y179834D01*
X394207Y180469D01*
X392301Y181669D02*
X391030Y182940D01*
X394843Y182940D01*
X394843Y181669D02*
X394843Y184211D01*
X394843Y187318D02*
X391030Y187318D01*
X392936Y185411D01*
X392936Y187953D01*
D17*
X228600Y266700D03*
D16*
X226391Y259591D02*
X226391Y255778D01*
X226391Y259591D02*
X228297Y259591D01*
X228933Y258956D01*
X228933Y257685D01*
X228297Y257049D01*
X226391Y257049D01*
X227662Y257049D02*
X228933Y255778D01*
X230133Y258320D02*
X231404Y259591D01*
X231404Y255778D01*
X230133Y255778D02*
X232675Y255778D01*
X233875Y256414D02*
X233875Y258956D01*
X234510Y259591D01*
X235782Y259591D01*
X236417Y258956D01*
X236417Y256414D01*
X235782Y255778D01*
X234510Y255778D01*
X233875Y256414D01*
X236417Y258956D01*
D18*
X406400Y254305D02*
X406400Y253695D01*
D16*
X406097Y246891D02*
X406733Y246256D01*
X406097Y246891D02*
X404826Y246891D01*
X404191Y246256D01*
X404191Y243714D01*
X404826Y243078D01*
X406097Y243078D01*
X406733Y243714D01*
X407933Y243078D02*
X410475Y243078D01*
X407933Y243078D02*
X410475Y245620D01*
X410475Y246256D01*
X409839Y246891D01*
X408568Y246891D01*
X407933Y246256D01*
X411675Y245620D02*
X412946Y246891D01*
X412946Y243078D01*
X411675Y243078D02*
X414217Y243078D01*
D17*
X406400Y228600D03*
D16*
X397637Y235712D02*
X397637Y239525D01*
X399544Y239525D01*
X400179Y238890D01*
X400179Y237619D01*
X399544Y236983D01*
X397637Y236983D01*
X398908Y236983D02*
X400179Y235712D01*
X401379Y238254D02*
X402650Y239525D01*
X402650Y235712D01*
X401379Y235712D02*
X403921Y235712D01*
X308737Y133480D02*
X308737Y130303D01*
X309373Y129667D01*
X310644Y129667D01*
X311279Y130303D01*
X311279Y133480D01*
X312479Y133480D02*
X315021Y133480D01*
X312479Y133480D02*
X312479Y131574D01*
X313750Y132209D01*
X314386Y132209D01*
X315021Y131574D01*
X315021Y130303D01*
X314386Y129667D01*
X313115Y129667D01*
X312479Y130303D01*
D15*
X80500Y300500D02*
X-44500Y300500D01*
X-44500Y461500D01*
X80500Y461500D01*
X171500Y461500D02*
X171500Y300500D01*
X110500Y300500D01*
X110500Y461500D02*
X171500Y461500D01*
D17*
X190500Y444500D03*
D16*
X188291Y437391D02*
X188291Y433578D01*
X188291Y437391D02*
X190197Y437391D01*
X190833Y436756D01*
X190833Y435485D01*
X190197Y434849D01*
X188291Y434849D01*
X189562Y434849D02*
X190833Y433578D01*
X192033Y436120D02*
X193304Y437391D01*
X193304Y433578D01*
X192033Y433578D02*
X194575Y433578D01*
X195775Y436756D02*
X196410Y437391D01*
X197682Y437391D01*
X198317Y436756D01*
X198317Y436120D01*
X197682Y435485D01*
X197046Y435485D01*
X197682Y435485D02*
X198317Y434849D01*
X198317Y434214D01*
X197682Y433578D01*
X196410Y433578D01*
X195775Y434214D01*
D17*
X190500Y342900D03*
D16*
X188291Y335791D02*
X188291Y331978D01*
X188291Y335791D02*
X190197Y335791D01*
X190833Y335156D01*
X190833Y333885D01*
X190197Y333249D01*
X188291Y333249D01*
X189562Y333249D02*
X190833Y331978D01*
X192033Y334520D02*
X193304Y335791D01*
X193304Y331978D01*
X192033Y331978D02*
X194575Y331978D01*
X197046Y335156D02*
X198317Y335791D01*
X197046Y335156D02*
X195775Y333885D01*
X195775Y332614D01*
X196410Y331978D01*
X197682Y331978D01*
X198317Y332614D01*
X198317Y333249D01*
X197682Y333885D01*
X195775Y333885D01*
D17*
X190500Y419100D03*
D16*
X188291Y411991D02*
X188291Y408178D01*
X188291Y411991D02*
X190197Y411991D01*
X190833Y411356D01*
X190833Y410085D01*
X190197Y409449D01*
X188291Y409449D01*
X189562Y409449D02*
X190833Y408178D01*
X192033Y410720D02*
X193304Y411991D01*
X193304Y408178D01*
X192033Y408178D02*
X194575Y408178D01*
X197682Y408178D02*
X197682Y411991D01*
X195775Y410085D01*
X198317Y410085D01*
D17*
X190500Y368300D03*
D16*
X188291Y361191D02*
X188291Y357378D01*
X188291Y361191D02*
X190197Y361191D01*
X190833Y360556D01*
X190833Y359285D01*
X190197Y358649D01*
X188291Y358649D01*
X189562Y358649D02*
X190833Y357378D01*
X192033Y359920D02*
X193304Y361191D01*
X193304Y357378D01*
X192033Y357378D02*
X194575Y357378D01*
X195775Y361191D02*
X198317Y361191D01*
X195775Y361191D02*
X195775Y359285D01*
X197046Y359920D01*
X197682Y359920D01*
X198317Y359285D01*
X198317Y358014D01*
X197682Y357378D01*
X196410Y357378D01*
X195775Y358014D01*
D13*
X117300Y273400D02*
X111300Y273400D01*
X111300Y285400D02*
X117300Y285400D01*
D16*
X110821Y271021D02*
X110821Y267208D01*
X110821Y271021D02*
X113363Y271021D01*
X112092Y269115D02*
X110821Y269115D01*
X114563Y267208D02*
X114563Y271021D01*
X116469Y271021D01*
X117105Y270386D01*
X117105Y269750D01*
X116469Y269115D01*
X117105Y268479D01*
X117105Y267844D01*
X116469Y267208D01*
X114563Y267208D01*
X114563Y269115D02*
X116469Y269115D01*
X118305Y270386D02*
X118940Y271021D01*
X120212Y271021D01*
X120847Y270386D01*
X120847Y269750D01*
X120212Y269115D01*
X119576Y269115D01*
X120212Y269115D02*
X120847Y268479D01*
X120847Y267844D01*
X120212Y267208D01*
X118940Y267208D01*
X118305Y267844D01*
D18*
X190500Y393395D02*
X190500Y394005D01*
D16*
X184279Y403990D02*
X183644Y404625D01*
X182373Y404625D01*
X181737Y403990D01*
X181737Y401448D01*
X182373Y400812D01*
X183644Y400812D01*
X184279Y401448D01*
X185479Y401448D02*
X186115Y400812D01*
X187386Y400812D01*
X188021Y401448D01*
X188021Y403990D01*
X187386Y404625D01*
X186115Y404625D01*
X185479Y403990D01*
X185479Y403354D01*
X186115Y402719D01*
X188021Y402719D01*
D18*
X190500Y317805D02*
X190500Y317195D01*
D16*
X184279Y327790D02*
X183644Y328425D01*
X182373Y328425D01*
X181737Y327790D01*
X181737Y325248D01*
X182373Y324612D01*
X183644Y324612D01*
X184279Y325248D01*
X185479Y327154D02*
X186750Y328425D01*
X186750Y324612D01*
X185479Y324612D02*
X188021Y324612D01*
X189221Y325248D02*
X189221Y327790D01*
X189857Y328425D01*
X191128Y328425D01*
X191763Y327790D01*
X191763Y325248D01*
X191128Y324612D01*
X189857Y324612D01*
X189221Y325248D01*
X191763Y327790D01*
D17*
X38100Y482600D03*
D16*
X29337Y489712D02*
X29337Y493525D01*
X31244Y493525D01*
X31879Y492890D01*
X31879Y491619D01*
X31244Y490983D01*
X29337Y490983D01*
X30608Y490983D02*
X31879Y489712D01*
X33079Y489712D02*
X35621Y489712D01*
X33079Y489712D02*
X35621Y492254D01*
X35621Y492890D01*
X34986Y493525D01*
X33715Y493525D01*
X33079Y492890D01*
D17*
X38100Y279400D03*
D16*
X39633Y272291D02*
X39633Y268478D01*
X39633Y272291D02*
X41539Y272291D01*
X42175Y271656D01*
X42175Y270385D01*
X41539Y269749D01*
X39633Y269749D01*
X40904Y269749D02*
X42175Y268478D01*
X43375Y271656D02*
X44010Y272291D01*
X45282Y272291D01*
X45917Y271656D01*
X45917Y271020D01*
X45282Y270385D01*
X44646Y270385D01*
X45282Y270385D02*
X45917Y269749D01*
X45917Y269114D01*
X45282Y268478D01*
X44010Y268478D01*
X43375Y269114D01*
D18*
X76200Y279095D02*
X76200Y279705D01*
D16*
X79639Y272291D02*
X80275Y271656D01*
X79639Y272291D02*
X78368Y272291D01*
X77733Y271656D01*
X77733Y269114D01*
X78368Y268478D01*
X79639Y268478D01*
X80275Y269114D01*
X81475Y271020D02*
X82746Y272291D01*
X82746Y268478D01*
X81475Y268478D02*
X84017Y268478D01*
D15*
X162800Y95900D02*
X162800Y81900D01*
X192800Y81900D02*
X192800Y95900D01*
X181800Y81900D02*
X173800Y81900D01*
X173800Y95900D02*
X177800Y95900D01*
D16*
X183143Y88506D02*
X183143Y85329D01*
X183778Y84693D01*
X185049Y84693D01*
X185685Y85329D01*
X185685Y88506D01*
X186885Y88506D02*
X189427Y88506D01*
X189427Y87871D01*
X186885Y85329D01*
X186885Y84693D01*
D11*
X190500Y63500D02*
X165400Y63500D01*
X203200Y53500D02*
X203200Y22700D01*
X190200Y12700D02*
X165400Y12700D01*
X152400Y22700D02*
X152400Y53500D01*
X165100Y38100D02*
X165104Y38412D01*
X165115Y38723D01*
X165134Y39034D01*
X165161Y39345D01*
X165196Y39655D01*
X165237Y39963D01*
X165287Y40271D01*
X165344Y40578D01*
X165409Y40883D01*
X165481Y41186D01*
X165560Y41487D01*
X165647Y41787D01*
X165741Y42084D01*
X165842Y42379D01*
X165951Y42671D01*
X166067Y42960D01*
X166190Y43247D01*
X166319Y43530D01*
X166456Y43810D01*
X166600Y44087D01*
X166750Y44360D01*
X166907Y44629D01*
X167070Y44894D01*
X167240Y45156D01*
X167417Y45413D01*
X167599Y45665D01*
X167788Y45913D01*
X167983Y46157D01*
X168183Y46395D01*
X168390Y46629D01*
X168602Y46857D01*
X168820Y47080D01*
X169043Y47298D01*
X169271Y47510D01*
X169505Y47717D01*
X169743Y47917D01*
X169987Y48112D01*
X170235Y48301D01*
X170487Y48483D01*
X170744Y48660D01*
X171006Y48830D01*
X171271Y48993D01*
X171540Y49150D01*
X171813Y49300D01*
X172090Y49444D01*
X172370Y49581D01*
X172653Y49710D01*
X172940Y49833D01*
X173229Y49949D01*
X173521Y50058D01*
X173816Y50159D01*
X174113Y50253D01*
X174413Y50340D01*
X174714Y50419D01*
X175017Y50491D01*
X175322Y50556D01*
X175629Y50613D01*
X175937Y50663D01*
X176245Y50704D01*
X176555Y50739D01*
X176866Y50766D01*
X177177Y50785D01*
X177488Y50796D01*
X177800Y50800D01*
X178112Y50796D01*
X178423Y50785D01*
X178734Y50766D01*
X179045Y50739D01*
X179355Y50704D01*
X179663Y50663D01*
X179971Y50613D01*
X180278Y50556D01*
X180583Y50491D01*
X180886Y50419D01*
X181187Y50340D01*
X181487Y50253D01*
X181784Y50159D01*
X182079Y50058D01*
X182371Y49949D01*
X182660Y49833D01*
X182947Y49710D01*
X183230Y49581D01*
X183510Y49444D01*
X183787Y49300D01*
X184060Y49150D01*
X184329Y48993D01*
X184594Y48830D01*
X184856Y48660D01*
X185113Y48483D01*
X185365Y48301D01*
X185613Y48112D01*
X185857Y47917D01*
X186095Y47717D01*
X186329Y47510D01*
X186557Y47298D01*
X186780Y47080D01*
X186998Y46857D01*
X187210Y46629D01*
X187417Y46395D01*
X187617Y46157D01*
X187812Y45913D01*
X188001Y45665D01*
X188183Y45413D01*
X188360Y45156D01*
X188530Y44894D01*
X188693Y44629D01*
X188850Y44360D01*
X189000Y44087D01*
X189144Y43810D01*
X189281Y43530D01*
X189410Y43247D01*
X189533Y42960D01*
X189649Y42671D01*
X189758Y42379D01*
X189859Y42084D01*
X189953Y41787D01*
X190040Y41487D01*
X190119Y41186D01*
X190191Y40883D01*
X190256Y40578D01*
X190313Y40271D01*
X190363Y39963D01*
X190404Y39655D01*
X190439Y39345D01*
X190466Y39034D01*
X190485Y38723D01*
X190496Y38412D01*
X190500Y38100D01*
X190496Y37788D01*
X190485Y37477D01*
X190466Y37166D01*
X190439Y36855D01*
X190404Y36545D01*
X190363Y36237D01*
X190313Y35929D01*
X190256Y35622D01*
X190191Y35317D01*
X190119Y35014D01*
X190040Y34713D01*
X189953Y34413D01*
X189859Y34116D01*
X189758Y33821D01*
X189649Y33529D01*
X189533Y33240D01*
X189410Y32953D01*
X189281Y32670D01*
X189144Y32390D01*
X189000Y32113D01*
X188850Y31840D01*
X188693Y31571D01*
X188530Y31306D01*
X188360Y31044D01*
X188183Y30787D01*
X188001Y30535D01*
X187812Y30287D01*
X187617Y30043D01*
X187417Y29805D01*
X187210Y29571D01*
X186998Y29343D01*
X186780Y29120D01*
X186557Y28902D01*
X186329Y28690D01*
X186095Y28483D01*
X185857Y28283D01*
X185613Y28088D01*
X185365Y27899D01*
X185113Y27717D01*
X184856Y27540D01*
X184594Y27370D01*
X184329Y27207D01*
X184060Y27050D01*
X183787Y26900D01*
X183510Y26756D01*
X183230Y26619D01*
X182947Y26490D01*
X182660Y26367D01*
X182371Y26251D01*
X182079Y26142D01*
X181784Y26041D01*
X181487Y25947D01*
X181187Y25860D01*
X180886Y25781D01*
X180583Y25709D01*
X180278Y25644D01*
X179971Y25587D01*
X179663Y25537D01*
X179355Y25496D01*
X179045Y25461D01*
X178734Y25434D01*
X178423Y25415D01*
X178112Y25404D01*
X177800Y25400D01*
X177488Y25404D01*
X177177Y25415D01*
X176866Y25434D01*
X176555Y25461D01*
X176245Y25496D01*
X175937Y25537D01*
X175629Y25587D01*
X175322Y25644D01*
X175017Y25709D01*
X174714Y25781D01*
X174413Y25860D01*
X174113Y25947D01*
X173816Y26041D01*
X173521Y26142D01*
X173229Y26251D01*
X172940Y26367D01*
X172653Y26490D01*
X172370Y26619D01*
X172090Y26756D01*
X171813Y26900D01*
X171540Y27050D01*
X171271Y27207D01*
X171006Y27370D01*
X170744Y27540D01*
X170487Y27717D01*
X170235Y27899D01*
X169987Y28088D01*
X169743Y28283D01*
X169505Y28483D01*
X169271Y28690D01*
X169043Y28902D01*
X168820Y29120D01*
X168602Y29343D01*
X168390Y29571D01*
X168183Y29805D01*
X167983Y30043D01*
X167788Y30287D01*
X167599Y30535D01*
X167417Y30787D01*
X167240Y31044D01*
X167070Y31306D01*
X166907Y31571D01*
X166750Y31840D01*
X166600Y32113D01*
X166456Y32390D01*
X166319Y32670D01*
X166190Y32953D01*
X166067Y33240D01*
X165951Y33529D01*
X165842Y33821D01*
X165741Y34116D01*
X165647Y34413D01*
X165560Y34713D01*
X165481Y35014D01*
X165409Y35317D01*
X165344Y35622D01*
X165287Y35929D01*
X165237Y36237D01*
X165196Y36545D01*
X165161Y36855D01*
X165134Y37166D01*
X165115Y37477D01*
X165104Y37788D01*
X165100Y38100D01*
D16*
X195704Y41539D02*
X196339Y42175D01*
X195704Y41539D02*
X195704Y40268D01*
X196339Y39633D01*
X196975Y39633D01*
X197610Y40268D01*
X197610Y41539D01*
X198246Y42175D01*
X198881Y42175D01*
X199517Y41539D01*
X199517Y40268D01*
X198881Y39633D01*
X199517Y43375D02*
X199517Y45917D01*
X199517Y43375D02*
X196975Y45917D01*
X196339Y45917D01*
X195704Y45282D01*
X195704Y44010D01*
X196339Y43375D01*
D17*
X406400Y241300D03*
D16*
X397637Y248412D02*
X397637Y252225D01*
X399544Y252225D01*
X400179Y251590D01*
X400179Y250319D01*
X399544Y249683D01*
X397637Y249683D01*
X398908Y249683D02*
X400179Y248412D01*
X401379Y251590D02*
X402015Y252225D01*
X403286Y252225D01*
X403921Y251590D01*
X403921Y250954D01*
X403286Y250319D01*
X403921Y249683D01*
X403921Y249048D01*
X403286Y248412D01*
X402015Y248412D01*
X401379Y249048D01*
X401379Y249683D01*
X402015Y250319D01*
X401379Y250954D01*
X401379Y251590D01*
X402015Y250319D02*
X403286Y250319D01*
D18*
X50800Y253695D02*
X50800Y254305D01*
D16*
X50497Y246891D02*
X51133Y246256D01*
X50497Y246891D02*
X49226Y246891D01*
X48591Y246256D01*
X48591Y243714D01*
X49226Y243078D01*
X50497Y243078D01*
X51133Y243714D01*
X52333Y245620D02*
X53604Y246891D01*
X53604Y243078D01*
X52333Y243078D02*
X54875Y243078D01*
X56075Y246891D02*
X58617Y246891D01*
X58617Y246256D01*
X56075Y243714D01*
X56075Y243078D01*
D18*
X50800Y101905D02*
X50800Y101295D01*
D16*
X44579Y111890D02*
X43944Y112525D01*
X42673Y112525D01*
X42037Y111890D01*
X42037Y109348D01*
X42673Y108712D01*
X43944Y108712D01*
X44579Y109348D01*
X45779Y111254D02*
X47050Y112525D01*
X47050Y108712D01*
X45779Y108712D02*
X48321Y108712D01*
X49521Y108712D02*
X52063Y108712D01*
X49521Y108712D02*
X52063Y111254D01*
X52063Y111890D01*
X51428Y112525D01*
X50157Y112525D01*
X49521Y111890D01*
D11*
X34290Y210566D02*
X67310Y210566D01*
X67310Y145034D01*
X34290Y145034D01*
X34290Y210566D01*
D16*
X5588Y170943D02*
X5588Y169672D01*
X5588Y170308D02*
X1775Y170308D01*
X1775Y170943D02*
X1775Y169672D01*
X1775Y174073D02*
X2410Y174709D01*
X1775Y174073D02*
X1775Y172802D01*
X2410Y172167D01*
X4952Y172167D01*
X5588Y172802D01*
X5588Y174073D01*
X4952Y174709D01*
X5588Y175909D02*
X5588Y178451D01*
X5588Y175909D02*
X3046Y178451D01*
X2410Y178451D01*
X1775Y177815D01*
X1775Y176544D01*
X2410Y175909D01*
D17*
X114300Y177800D03*
D16*
X105537Y184912D02*
X105537Y188725D01*
X107444Y188725D01*
X108079Y188090D01*
X108079Y186819D01*
X107444Y186183D01*
X105537Y186183D01*
X106808Y186183D02*
X108079Y184912D01*
X109279Y184912D02*
X111821Y184912D01*
X109279Y184912D02*
X111821Y187454D01*
X111821Y188090D01*
X111186Y188725D01*
X109915Y188725D01*
X109279Y188090D01*
X113021Y188090D02*
X113021Y185548D01*
X113021Y188090D02*
X113657Y188725D01*
X114928Y188725D01*
X115563Y188090D01*
X115563Y185548D01*
X114928Y184912D01*
X113657Y184912D01*
X113021Y185548D01*
X115563Y188090D01*
D17*
X114300Y165100D03*
D16*
X112091Y157991D02*
X112091Y154178D01*
X112091Y157991D02*
X113997Y157991D01*
X114633Y157356D01*
X114633Y156085D01*
X113997Y155449D01*
X112091Y155449D01*
X113362Y155449D02*
X114633Y154178D01*
X115833Y154178D02*
X118375Y154178D01*
X115833Y154178D02*
X118375Y156720D01*
X118375Y157356D01*
X117739Y157991D01*
X116468Y157991D01*
X115833Y157356D01*
X119575Y156720D02*
X120846Y157991D01*
X120846Y154178D01*
X119575Y154178D02*
X122117Y154178D01*
D11*
X40800Y216600D02*
X25800Y216600D01*
X25800Y240600D01*
X40800Y240600D01*
X60800Y216600D02*
X71800Y216600D01*
X75800Y220600D01*
X75800Y236600D01*
X71800Y240600D01*
X60800Y240600D01*
D12*
X54610Y238760D02*
X54610Y218440D01*
D16*
X28069Y245715D02*
X27434Y246350D01*
X26163Y246350D01*
X25527Y245715D01*
X25527Y243173D01*
X26163Y242537D01*
X27434Y242537D01*
X28069Y243173D01*
X29269Y245079D02*
X30540Y246350D01*
X30540Y242537D01*
X29269Y242537D02*
X31811Y242537D01*
X33011Y243173D02*
X33647Y242537D01*
X34918Y242537D01*
X35553Y243173D01*
X35553Y245715D01*
X34918Y246350D01*
X33647Y246350D01*
X33011Y245715D01*
X33011Y245079D01*
X33647Y244444D01*
X35553Y244444D01*
D11*
X60800Y139000D02*
X75800Y139000D01*
X75800Y115000D01*
X60800Y115000D01*
X40800Y139000D02*
X29800Y139000D01*
X25800Y135000D01*
X25800Y119000D01*
X29800Y115000D01*
X40800Y115000D01*
D12*
X46990Y116840D02*
X46990Y137160D01*
D16*
X67007Y113066D02*
X67643Y112431D01*
X67007Y113066D02*
X65736Y113066D01*
X65101Y112431D01*
X65101Y109889D01*
X65736Y109253D01*
X67007Y109253D01*
X67643Y109889D01*
X68843Y109253D02*
X71385Y109253D01*
X68843Y109253D02*
X71385Y111795D01*
X71385Y112431D01*
X70749Y113066D01*
X69478Y113066D01*
X68843Y112431D01*
X72585Y112431D02*
X72585Y109889D01*
X72585Y112431D02*
X73220Y113066D01*
X74492Y113066D01*
X75127Y112431D01*
X75127Y109889D01*
X74492Y109253D01*
X73220Y109253D01*
X72585Y109889D01*
X75127Y112431D01*
D11*
X552863Y116332D02*
X552863Y213868D01*
X513937Y115332D02*
X513956Y115219D01*
X513978Y115107D01*
X514005Y114996D01*
X514035Y114886D01*
X514070Y114777D01*
X514108Y114669D01*
X514149Y114562D01*
X514194Y114457D01*
X514243Y114354D01*
X514295Y114252D01*
X514351Y114152D01*
X514410Y114054D01*
X514472Y113959D01*
X514538Y113865D01*
X514607Y113774D01*
X514678Y113685D01*
X514753Y113598D01*
X514831Y113514D01*
X514911Y113433D01*
X514995Y113355D01*
X515081Y113279D01*
X515169Y113207D01*
X515260Y113138D01*
X515353Y113071D01*
X515448Y113008D01*
X515546Y112948D01*
X515645Y112892D01*
X515746Y112839D01*
X515850Y112790D01*
X515954Y112744D01*
X516060Y112701D01*
X516168Y112663D01*
X516277Y112628D01*
X516387Y112596D01*
X516498Y112569D01*
X516610Y112545D01*
X516722Y112525D01*
X516835Y112509D01*
X516949Y112497D01*
X517063Y112489D01*
X517177Y112485D01*
X517292Y112484D01*
X517406Y112488D01*
X517520Y112495D01*
X517634Y112506D01*
X517747Y112522D01*
X552863Y213868D02*
X552846Y213998D01*
X552825Y214127D01*
X552800Y214256D01*
X552772Y214384D01*
X552739Y214511D01*
X552703Y214637D01*
X552662Y214762D01*
X552618Y214885D01*
X552571Y215007D01*
X552519Y215128D01*
X552465Y215247D01*
X552406Y215364D01*
X552344Y215479D01*
X552279Y215593D01*
X552210Y215705D01*
X552137Y215814D01*
X552062Y215921D01*
X551983Y216026D01*
X551901Y216128D01*
X551816Y216228D01*
X551729Y216325D01*
X551638Y216420D01*
X551544Y216512D01*
X551448Y216601D01*
X551349Y216687D01*
X551248Y216769D01*
X551144Y216849D01*
X551037Y216926D01*
X550929Y216999D01*
X550818Y217069D01*
X550705Y217136D01*
X550590Y217199D01*
X550474Y217259D01*
X550355Y217315D01*
X550235Y217368D01*
X550114Y217417D01*
X549991Y217462D01*
X549866Y217504D01*
X549741Y217542D01*
X549614Y217575D01*
X549487Y217606D01*
X549358Y217632D01*
X549229Y217654D01*
X549099Y217673D01*
X548969Y217687D01*
X548838Y217698D01*
X548707Y217704D01*
X548576Y217707D01*
X548445Y217706D01*
X548314Y217700D01*
X548184Y217691D01*
X548053Y217678D01*
X552863Y116332D02*
X552861Y116210D01*
X552855Y116088D01*
X552845Y115966D01*
X552832Y115845D01*
X552814Y115724D01*
X552793Y115604D01*
X552768Y115484D01*
X552739Y115365D01*
X552706Y115248D01*
X552669Y115131D01*
X552629Y115016D01*
X552585Y114902D01*
X552537Y114790D01*
X552486Y114679D01*
X552431Y114570D01*
X552373Y114462D01*
X552311Y114357D01*
X552246Y114253D01*
X552178Y114152D01*
X552107Y114053D01*
X552032Y113956D01*
X551954Y113862D01*
X551874Y113770D01*
X551790Y113681D01*
X551704Y113595D01*
X551615Y113511D01*
X551523Y113431D01*
X551429Y113353D01*
X551332Y113278D01*
X551233Y113207D01*
X551132Y113139D01*
X551028Y113074D01*
X550923Y113012D01*
X550815Y112954D01*
X550706Y112899D01*
X550595Y112848D01*
X550483Y112800D01*
X550369Y112756D01*
X550254Y112716D01*
X550137Y112679D01*
X550020Y112646D01*
X549901Y112617D01*
X549781Y112592D01*
X549661Y112571D01*
X549540Y112553D01*
X549419Y112540D01*
X549297Y112530D01*
X549175Y112524D01*
X549053Y112522D01*
X513937Y213867D02*
X513922Y213981D01*
X513910Y214095D01*
X513903Y214209D01*
X513899Y214323D01*
X513900Y214437D01*
X513904Y214552D01*
X513912Y214666D01*
X513924Y214779D01*
X513940Y214892D01*
X513960Y215005D01*
X513984Y215117D01*
X514011Y215228D01*
X514042Y215338D01*
X514077Y215447D01*
X514116Y215554D01*
X514158Y215661D01*
X514204Y215765D01*
X514254Y215868D01*
X514307Y215970D01*
X514363Y216069D01*
X514423Y216167D01*
X514486Y216262D01*
X514552Y216355D01*
X514622Y216446D01*
X514694Y216534D01*
X514770Y216620D01*
X514848Y216703D01*
X514929Y216784D01*
X515013Y216862D01*
X515099Y216936D01*
X515188Y217008D01*
X515280Y217077D01*
X515373Y217143D01*
X515469Y217205D01*
X515567Y217264D01*
X515667Y217320D01*
X515769Y217372D01*
X515872Y217420D01*
X515977Y217466D01*
X516084Y217507D01*
X516192Y217545D01*
X516301Y217579D01*
X516411Y217609D01*
X516522Y217636D01*
X516634Y217659D01*
X516747Y217678D01*
X513937Y213868D02*
X513937Y115332D01*
X517747Y112522D02*
X549053Y112522D01*
X539496Y217170D02*
X539494Y217012D01*
X539488Y216853D01*
X539478Y216695D01*
X539464Y216538D01*
X539447Y216380D01*
X539425Y216224D01*
X539400Y216067D01*
X539370Y215912D01*
X539337Y215757D01*
X539300Y215603D01*
X539259Y215450D01*
X539214Y215298D01*
X539165Y215148D01*
X539113Y214998D01*
X539057Y214850D01*
X538997Y214703D01*
X538934Y214558D01*
X538867Y214415D01*
X538797Y214273D01*
X538723Y214133D01*
X538645Y213995D01*
X538564Y213859D01*
X538480Y213725D01*
X538393Y213593D01*
X538302Y213463D01*
X538208Y213336D01*
X538111Y213211D01*
X538010Y213088D01*
X537907Y212968D01*
X537801Y212851D01*
X537692Y212736D01*
X537580Y212624D01*
X537465Y212515D01*
X537348Y212409D01*
X537228Y212306D01*
X537105Y212205D01*
X536980Y212108D01*
X536853Y212014D01*
X536723Y211923D01*
X536591Y211836D01*
X536457Y211752D01*
X536321Y211671D01*
X536183Y211593D01*
X536043Y211519D01*
X535901Y211449D01*
X535758Y211382D01*
X535613Y211319D01*
X535466Y211259D01*
X535318Y211203D01*
X535168Y211151D01*
X535018Y211102D01*
X534866Y211057D01*
X534713Y211016D01*
X534559Y210979D01*
X534404Y210946D01*
X534249Y210916D01*
X534092Y210891D01*
X533936Y210869D01*
X533778Y210852D01*
X533621Y210838D01*
X533463Y210828D01*
X533304Y210822D01*
X533146Y210820D01*
X532988Y210822D01*
X532829Y210828D01*
X532671Y210838D01*
X532514Y210852D01*
X532356Y210869D01*
X532200Y210891D01*
X532043Y210916D01*
X531888Y210946D01*
X531733Y210979D01*
X531579Y211016D01*
X531426Y211057D01*
X531274Y211102D01*
X531124Y211151D01*
X530974Y211203D01*
X530826Y211259D01*
X530679Y211319D01*
X530534Y211382D01*
X530391Y211449D01*
X530249Y211519D01*
X530109Y211593D01*
X529971Y211671D01*
X529835Y211752D01*
X529701Y211836D01*
X529569Y211923D01*
X529439Y212014D01*
X529312Y212108D01*
X529187Y212205D01*
X529064Y212306D01*
X528944Y212409D01*
X528827Y212515D01*
X528712Y212624D01*
X528600Y212736D01*
X528491Y212851D01*
X528385Y212968D01*
X528282Y213088D01*
X528181Y213211D01*
X528084Y213336D01*
X527990Y213463D01*
X527899Y213593D01*
X527812Y213725D01*
X527728Y213859D01*
X527647Y213995D01*
X527569Y214133D01*
X527495Y214273D01*
X527425Y214415D01*
X527358Y214558D01*
X527295Y214703D01*
X527235Y214850D01*
X527179Y214998D01*
X527127Y215148D01*
X527078Y215298D01*
X527033Y215450D01*
X526992Y215603D01*
X526955Y215757D01*
X526922Y215912D01*
X526892Y216067D01*
X526867Y216224D01*
X526845Y216380D01*
X526828Y216538D01*
X526814Y216695D01*
X526804Y216853D01*
X526798Y217012D01*
X526796Y217170D01*
X539496Y217678D02*
X547926Y217678D01*
X526796Y217678D02*
X516747Y217678D01*
D20*
X533649Y192228D02*
X538310Y192228D01*
X539242Y193160D01*
X539242Y195024D01*
X538310Y195956D01*
X533649Y195956D01*
X533649Y200637D02*
X539242Y200637D01*
X536446Y197841D02*
X533649Y200637D01*
X536446Y201569D02*
X536446Y197841D01*
D11*
X304800Y379300D02*
X300200Y379300D01*
X304800Y379300D02*
X309400Y379300D01*
X304800Y379300D02*
X302462Y382400D01*
X305054Y379454D02*
X306984Y382400D01*
D16*
X311909Y375049D02*
X315722Y375049D01*
X315722Y377591D01*
X311909Y378791D02*
X311909Y381333D01*
X311909Y378791D02*
X315722Y378791D01*
X315722Y381333D01*
X313815Y380062D02*
X313815Y378791D01*
X311909Y382533D02*
X315722Y382533D01*
X315722Y384439D01*
X315086Y385075D01*
X312544Y385075D01*
X311909Y384439D01*
X311909Y382533D01*
X313180Y386275D02*
X311909Y387546D01*
X315722Y387546D01*
X315722Y386275D02*
X315722Y388817D01*
D19*
X304800Y419100D03*
D16*
X297688Y410337D02*
X293875Y410337D01*
X293875Y412244D01*
X294510Y412879D01*
X295781Y412879D01*
X296417Y412244D01*
X296417Y410337D01*
X296417Y411608D02*
X297688Y412879D01*
X295146Y414079D02*
X293875Y415350D01*
X297688Y415350D01*
X297688Y414079D02*
X297688Y416621D01*
X295146Y417821D02*
X293875Y419092D01*
X297688Y419092D01*
X297688Y417821D02*
X297688Y420363D01*
D11*
X120650Y38100D02*
X107950Y38100D01*
X120650Y38100D02*
X127000Y31750D01*
X127000Y19050D02*
X120650Y12700D01*
X82550Y38100D02*
X76200Y31750D01*
X82550Y38100D02*
X95250Y38100D01*
X101600Y31750D01*
X101600Y19050D02*
X95250Y12700D01*
X82550Y12700D01*
X76200Y19050D01*
X101600Y31750D02*
X107950Y38100D01*
X101600Y19050D02*
X107950Y12700D01*
X120650Y12700D01*
X44450Y38100D02*
X31750Y38100D01*
X44450Y38100D02*
X50800Y31750D01*
X50800Y19050D02*
X44450Y12700D01*
X50800Y31750D02*
X57150Y38100D01*
X69850Y38100D01*
X76200Y31750D01*
X76200Y19050D02*
X69850Y12700D01*
X57150Y12700D01*
X50800Y19050D01*
X25400Y19050D02*
X25400Y31750D01*
X31750Y38100D01*
X25400Y19050D02*
X31750Y12700D01*
X44450Y12700D01*
X127000Y19050D02*
X127000Y31750D01*
D12*
X27180Y44323D02*
X25273Y46230D01*
X27180Y44323D02*
X29086Y44323D01*
X30993Y46230D01*
X30993Y55763D01*
X29086Y55763D02*
X32900Y55763D01*
X36967Y55763D02*
X36967Y44323D01*
X36967Y55763D02*
X42687Y55763D01*
X44593Y53856D01*
X44593Y50043D01*
X42687Y48136D01*
X36967Y48136D01*
X48661Y51950D02*
X52474Y55763D01*
X52474Y44323D01*
X48661Y44323D02*
X56287Y44323D01*
D16*
X209779Y403073D02*
X225501Y403073D01*
X209779Y403073D02*
X209779Y407111D01*
X211988Y407111D01*
X211988Y407187D01*
X211986Y407215D01*
X211982Y407243D01*
X211973Y407270D01*
X211962Y407296D01*
X211948Y407321D01*
X211931Y407344D01*
X211912Y407365D01*
X211863Y407409D01*
X211812Y407452D01*
X211760Y407492D01*
X211379Y407772D01*
X211281Y407847D01*
X211184Y407925D01*
X211089Y408006D01*
X210997Y408089D01*
X210906Y408174D01*
X210818Y408262D01*
X210733Y408352D01*
X210649Y408444D01*
X210569Y408538D01*
X210490Y408635D01*
X210490Y408634D02*
X210405Y408745D01*
X210324Y408857D01*
X210245Y408972D01*
X210170Y409089D01*
X210098Y409207D01*
X210029Y409328D01*
X209964Y409450D01*
X209901Y409575D01*
X209843Y409701D01*
X209787Y409828D01*
X209736Y409957D01*
X209687Y410087D01*
X209643Y410219D01*
X209602Y410351D01*
X209564Y410485D01*
X209530Y410620D01*
X209500Y410755D01*
X209474Y410892D01*
X209451Y411029D01*
X209432Y411166D01*
X209417Y411305D01*
X209405Y411443D01*
X209398Y411582D01*
X209388Y411917D01*
X209385Y412251D01*
X209390Y412586D01*
X209402Y412920D01*
X209421Y413254D01*
X209448Y413588D01*
X209462Y413718D01*
X209480Y413848D01*
X209502Y413976D01*
X209527Y414104D01*
X209557Y414231D01*
X209590Y414358D01*
X209627Y414483D01*
X209668Y414607D01*
X209712Y414730D01*
X209760Y414851D01*
X209812Y414971D01*
X209867Y415089D01*
X209926Y415206D01*
X209988Y415320D01*
X210053Y415433D01*
X210122Y415544D01*
X210195Y415653D01*
X210270Y415759D01*
X210349Y415863D01*
X210430Y415965D01*
X210515Y416064D01*
X210603Y416161D01*
X210693Y416255D01*
X210783Y416343D01*
X210876Y416429D01*
X210970Y416512D01*
X211067Y416592D01*
X211167Y416669D01*
X211268Y416744D01*
X211372Y416816D01*
X211477Y416884D01*
X211585Y416950D01*
X211694Y417013D01*
X211805Y417072D01*
X211918Y417129D01*
X212032Y417182D01*
X212148Y417232D01*
X212265Y417278D01*
X212383Y417322D01*
X212503Y417361D01*
X212623Y417398D01*
X212822Y417453D01*
X213022Y417502D01*
X213223Y417547D01*
X213425Y417587D01*
X213628Y417622D01*
X213832Y417652D01*
X214037Y417677D01*
X214242Y417698D01*
X214447Y417713D01*
X214653Y417723D01*
X214859Y417728D01*
X225400Y417728D01*
X225400Y413639D01*
X215748Y413639D01*
X215625Y413637D01*
X215502Y413632D01*
X215379Y413622D01*
X215256Y413610D01*
X215135Y413593D01*
X215013Y413573D01*
X214892Y413549D01*
X214772Y413521D01*
X214653Y413490D01*
X214535Y413456D01*
X214418Y413418D01*
X214302Y413376D01*
X214188Y413331D01*
X214075Y413282D01*
X213963Y413230D01*
X213853Y413175D01*
X213745Y413117D01*
X213639Y413055D01*
X213562Y413007D01*
X213487Y412955D01*
X213414Y412901D01*
X213344Y412844D01*
X213275Y412784D01*
X213209Y412721D01*
X213146Y412656D01*
X213085Y412588D01*
X213028Y412518D01*
X212973Y412446D01*
X212921Y412371D01*
X212871Y412295D01*
X212826Y412216D01*
X212783Y412136D01*
X212743Y412054D01*
X212707Y411971D01*
X212674Y411886D01*
X212650Y411815D01*
X212629Y411744D01*
X212611Y411671D01*
X212597Y411598D01*
X212585Y411524D01*
X212577Y411450D01*
X212572Y411375D01*
X212571Y411301D01*
X212573Y411226D01*
X212572Y411226D02*
X212622Y410108D01*
X212623Y410108D02*
X212630Y410011D01*
X212639Y409914D01*
X212652Y409818D01*
X212669Y409722D01*
X212690Y409626D01*
X212713Y409532D01*
X212741Y409438D01*
X212772Y409346D01*
X212806Y409255D01*
X212844Y409165D01*
X212884Y409077D01*
X212929Y408990D01*
X212976Y408905D01*
X213027Y408821D01*
X213080Y408740D01*
X213137Y408661D01*
X213196Y408583D01*
X213258Y408509D01*
X213259Y408508D02*
X213330Y408429D01*
X213403Y408351D01*
X213480Y408276D01*
X213558Y408204D01*
X213639Y408134D01*
X213722Y408067D01*
X213807Y408003D01*
X213894Y407941D01*
X213984Y407883D01*
X214075Y407827D01*
X214168Y407774D01*
X214262Y407724D01*
X214358Y407678D01*
X214456Y407634D01*
X214555Y407594D01*
X214554Y407594D02*
X214670Y407551D01*
X214788Y407511D01*
X214906Y407474D01*
X215026Y407441D01*
X215146Y407411D01*
X215267Y407384D01*
X215389Y407360D01*
X215511Y407340D01*
X215634Y407323D01*
X215757Y407309D01*
X215881Y407299D01*
X216005Y407293D01*
X216129Y407289D01*
X216130Y407289D02*
X216472Y407287D01*
X216814Y407289D01*
X225501Y407289D01*
X225501Y403073D01*
M02*
