G04 EAGLE Gerber RS-274X export*
G75*
%MOMM*%
%FSLAX34Y34*%
%LPD*%
%INSilkscreen Top*%
%IPPOS*%
%AMOC8*
5,1,8,0,0,1.08239X$1,22.5*%
G01*
%ADD10C,0.152400*%
%ADD11C,0.203200*%
%ADD12C,0.254000*%
%ADD13C,0.635000*%
%ADD14C,0.304800*%
%ADD15C,0.050800*%
%ADD16C,0.101600*%
%ADD17C,0.127000*%
%ADD18C,0.076200*%
%ADD19R,1.000000X0.200000*%
%ADD20R,0.068600X0.007600*%
%ADD21R,0.114300X0.007600*%
%ADD22R,0.152400X0.007700*%
%ADD23R,0.182900X0.007600*%
%ADD24R,0.205700X0.007600*%
%ADD25R,0.228600X0.007600*%
%ADD26R,0.259100X0.007600*%
%ADD27R,0.274300X0.007700*%
%ADD28R,0.289500X0.007600*%
%ADD29R,0.304800X0.007600*%
%ADD30R,0.320100X0.007600*%
%ADD31R,0.342900X0.007600*%
%ADD32R,0.350500X0.007700*%
%ADD33R,0.365800X0.007600*%
%ADD34R,0.381000X0.007600*%
%ADD35R,0.388600X0.007600*%
%ADD36R,0.403800X0.007600*%
%ADD37R,0.419100X0.007700*%
%ADD38R,0.426700X0.007600*%
%ADD39R,0.441900X0.007600*%
%ADD40R,0.449600X0.007600*%
%ADD41R,0.464800X0.007600*%
%ADD42R,0.480000X0.007700*%
%ADD43R,0.487600X0.007600*%
%ADD44R,0.495300X0.007600*%
%ADD45R,0.510500X0.007600*%
%ADD46R,0.518100X0.007600*%
%ADD47R,0.525700X0.007700*%
%ADD48R,0.541000X0.007600*%
%ADD49R,0.548600X0.007600*%
%ADD50R,0.563800X0.007600*%
%ADD51R,0.571500X0.007600*%
%ADD52R,0.579100X0.007700*%
%ADD53R,0.594300X0.007600*%
%ADD54R,0.601900X0.007600*%
%ADD55R,0.609600X0.007600*%
%ADD56R,0.624800X0.007600*%
%ADD57R,0.632400X0.007700*%
%ADD58R,0.640000X0.007600*%
%ADD59R,0.655300X0.007600*%
%ADD60R,0.662900X0.007600*%
%ADD61R,0.678100X0.007600*%
%ADD62R,0.685800X0.007700*%
%ADD63R,0.693400X0.007600*%
%ADD64R,0.708600X0.007600*%
%ADD65R,0.716200X0.007600*%
%ADD66R,0.723900X0.007600*%
%ADD67R,0.739100X0.007700*%
%ADD68R,0.746700X0.007600*%
%ADD69R,0.754300X0.007600*%
%ADD70R,0.769600X0.007600*%
%ADD71R,0.777200X0.007600*%
%ADD72R,0.792400X0.007700*%
%ADD73R,0.800100X0.007600*%
%ADD74R,0.807700X0.007600*%
%ADD75R,0.822900X0.007600*%
%ADD76R,0.830500X0.007600*%
%ADD77R,0.838200X0.007700*%
%ADD78R,0.091500X0.007600*%
%ADD79R,0.853400X0.007600*%
%ADD80R,0.144700X0.007600*%
%ADD81R,0.861000X0.007600*%
%ADD82R,0.190500X0.007600*%
%ADD83R,0.876300X0.007600*%
%ADD84R,0.221000X0.007600*%
%ADD85R,0.883900X0.007600*%
%ADD86R,0.259000X0.007700*%
%ADD87R,0.891500X0.007700*%
%ADD88R,0.289600X0.007600*%
%ADD89R,0.906700X0.007600*%
%ADD90R,0.914400X0.007600*%
%ADD91R,0.350500X0.007600*%
%ADD92R,0.922000X0.007600*%
%ADD93R,0.937200X0.007600*%
%ADD94R,0.411400X0.007700*%
%ADD95R,0.944800X0.007700*%
%ADD96R,0.434300X0.007600*%
%ADD97R,0.952500X0.007600*%
%ADD98R,0.464900X0.007600*%
%ADD99R,0.967700X0.007600*%
%ADD100R,0.975300X0.007600*%
%ADD101R,0.518200X0.007600*%
%ADD102R,0.990600X0.007600*%
%ADD103R,0.548600X0.007700*%
%ADD104R,0.998200X0.007700*%
%ADD105R,1.005800X0.007600*%
%ADD106R,0.594400X0.007600*%
%ADD107R,1.021000X0.007600*%
%ADD108R,0.617200X0.007600*%
%ADD109R,1.028700X0.007600*%
%ADD110R,0.647700X0.007600*%
%ADD111R,1.036300X0.007600*%
%ADD112R,0.670500X0.007700*%
%ADD113R,1.051500X0.007700*%
%ADD114R,1.059100X0.007600*%
%ADD115R,0.716300X0.007600*%
%ADD116R,1.066800X0.007600*%
%ADD117R,0.739100X0.007600*%
%ADD118R,1.074400X0.007600*%
%ADD119R,0.762000X0.007600*%
%ADD120R,1.089600X0.007600*%
%ADD121R,0.784800X0.007700*%
%ADD122R,1.097200X0.007700*%
%ADD123R,1.104900X0.007600*%
%ADD124R,0.830600X0.007600*%
%ADD125R,1.112500X0.007600*%
%ADD126R,0.845800X0.007600*%
%ADD127R,1.120100X0.007600*%
%ADD128R,0.868700X0.007600*%
%ADD129R,1.127700X0.007600*%
%ADD130R,1.135300X0.007700*%
%ADD131R,1.143000X0.007600*%
%ADD132R,0.944900X0.007600*%
%ADD133R,1.150600X0.007600*%
%ADD134R,0.960100X0.007600*%
%ADD135R,1.158200X0.007600*%
%ADD136R,0.983000X0.007600*%
%ADD137R,1.165800X0.007600*%
%ADD138R,1.005900X0.007700*%
%ADD139R,1.173400X0.007700*%
%ADD140R,1.021100X0.007600*%
%ADD141R,1.181100X0.007600*%
%ADD142R,1.044000X0.007600*%
%ADD143R,1.188700X0.007600*%
%ADD144R,1.196300X0.007600*%
%ADD145R,1.082000X0.007600*%
%ADD146R,1.203900X0.007600*%
%ADD147R,1.104900X0.007700*%
%ADD148R,1.211500X0.007700*%
%ADD149R,1.211500X0.007600*%
%ADD150R,1.219200X0.007600*%
%ADD151R,1.226800X0.007600*%
%ADD152R,1.234400X0.007600*%
%ADD153R,1.188700X0.007700*%
%ADD154R,1.242000X0.007700*%
%ADD155R,1.242000X0.007600*%
%ADD156R,1.211600X0.007600*%
%ADD157R,1.249600X0.007600*%
%ADD158R,1.257300X0.007600*%
%ADD159R,1.264900X0.007600*%
%ADD160R,1.242100X0.007700*%
%ADD161R,1.264900X0.007700*%
%ADD162R,1.272500X0.007600*%
%ADD163R,1.265000X0.007600*%
%ADD164R,1.280100X0.007600*%
%ADD165R,1.272600X0.007600*%
%ADD166R,1.287700X0.007600*%
%ADD167R,1.287800X0.007600*%
%ADD168R,1.295400X0.007700*%
%ADD169R,1.303000X0.007600*%
%ADD170R,1.318200X0.007600*%
%ADD171R,1.310600X0.007600*%
%ADD172R,1.325900X0.007600*%
%ADD173R,1.341100X0.007700*%
%ADD174R,1.318200X0.007700*%
%ADD175R,1.341100X0.007600*%
%ADD176R,1.325800X0.007600*%
%ADD177R,1.348700X0.007600*%
%ADD178R,1.364000X0.007600*%
%ADD179R,1.333500X0.007600*%
%ADD180R,1.371600X0.007700*%
%ADD181R,1.379200X0.007600*%
%ADD182R,1.379300X0.007600*%
%ADD183R,1.386900X0.007600*%
%ADD184R,1.394500X0.007600*%
%ADD185R,1.356300X0.007600*%
%ADD186R,1.394400X0.007700*%
%ADD187R,1.356300X0.007700*%
%ADD188R,1.402000X0.007600*%
%ADD189R,1.409700X0.007600*%
%ADD190R,1.363900X0.007600*%
%ADD191R,1.417300X0.007600*%
%ADD192R,1.371600X0.007600*%
%ADD193R,1.424900X0.007700*%
%ADD194R,1.424900X0.007600*%
%ADD195R,1.432600X0.007600*%
%ADD196R,1.440200X0.007600*%
%ADD197R,1.386800X0.007600*%
%ADD198R,1.447800X0.007700*%
%ADD199R,1.386800X0.007700*%
%ADD200R,1.447800X0.007600*%
%ADD201R,1.455500X0.007600*%
%ADD202R,1.394400X0.007600*%
%ADD203R,1.463100X0.007600*%
%ADD204R,1.455400X0.007700*%
%ADD205R,1.463000X0.007600*%
%ADD206R,1.470600X0.007600*%
%ADD207R,1.470600X0.007700*%
%ADD208R,1.409700X0.007700*%
%ADD209R,1.470700X0.007600*%
%ADD210R,1.402100X0.007600*%
%ADD211R,1.478300X0.007600*%
%ADD212R,1.478300X0.007700*%
%ADD213R,1.402100X0.007700*%
%ADD214R,1.485900X0.007600*%
%ADD215R,1.485900X0.007700*%
%ADD216R,1.493500X0.007700*%
%ADD217R,1.493500X0.007600*%
%ADD218R,1.394500X0.007700*%
%ADD219R,1.493600X0.007700*%
%ADD220R,1.386900X0.007700*%
%ADD221R,1.379200X0.007700*%
%ADD222R,2.857500X0.007700*%
%ADD223R,2.857500X0.007600*%
%ADD224R,2.849900X0.007600*%
%ADD225R,2.842300X0.007600*%
%ADD226R,2.834700X0.007700*%
%ADD227R,2.827000X0.007600*%
%ADD228R,2.819400X0.007600*%
%ADD229R,2.811800X0.007600*%
%ADD230R,2.811800X0.007700*%
%ADD231R,2.804100X0.007600*%
%ADD232R,2.796500X0.007600*%
%ADD233R,1.966000X0.007600*%
%ADD234R,1.943100X0.007600*%
%ADD235R,0.754400X0.007600*%
%ADD236R,1.927900X0.007700*%
%ADD237R,0.746700X0.007700*%
%ADD238R,1.912600X0.007600*%
%ADD239R,0.731500X0.007600*%
%ADD240R,1.905000X0.007600*%
%ADD241R,1.882200X0.007600*%
%ADD242R,1.874600X0.007600*%
%ADD243R,1.866900X0.007700*%
%ADD244R,0.708700X0.007700*%
%ADD245R,1.851600X0.007600*%
%ADD246R,0.701100X0.007600*%
%ADD247R,1.844000X0.007600*%
%ADD248R,1.836400X0.007600*%
%ADD249R,1.821200X0.007600*%
%ADD250R,0.685800X0.007600*%
%ADD251R,1.813500X0.007700*%
%ADD252R,1.805900X0.007600*%
%ADD253R,0.678200X0.007600*%
%ADD254R,1.790700X0.007600*%
%ADD255R,0.670600X0.007600*%
%ADD256R,1.775500X0.007600*%
%ADD257R,1.767900X0.007700*%
%ADD258R,0.663000X0.007700*%
%ADD259R,1.760200X0.007600*%
%ADD260R,1.752600X0.007600*%
%ADD261R,0.937300X0.007600*%
%ADD262R,0.792500X0.007600*%
%ADD263R,0.899100X0.007600*%
%ADD264R,0.883900X0.007700*%
%ADD265R,0.716300X0.007700*%
%ADD266R,0.647700X0.007700*%
%ADD267R,0.640100X0.007600*%
%ADD268R,0.632500X0.007600*%
%ADD269R,0.655400X0.007600*%
%ADD270R,0.632400X0.007600*%
%ADD271R,0.845800X0.007700*%
%ADD272R,0.617200X0.007700*%
%ADD273R,0.624800X0.007700*%
%ADD274R,0.602000X0.007600*%
%ADD275R,0.838200X0.007600*%
%ADD276R,0.586700X0.007600*%
%ADD277R,0.548700X0.007600*%
%ADD278R,0.830500X0.007700*%
%ADD279R,0.541000X0.007700*%
%ADD280R,0.594300X0.007700*%
%ADD281R,0.525800X0.007600*%
%ADD282R,0.586800X0.007600*%
%ADD283R,0.815300X0.007600*%
%ADD284R,0.579200X0.007600*%
%ADD285R,0.815400X0.007600*%
%ADD286R,0.815400X0.007700*%
%ADD287R,0.571500X0.007700*%
%ADD288R,0.807800X0.007600*%
%ADD289R,0.563900X0.007600*%
%ADD290R,0.457200X0.007600*%
%ADD291R,0.442000X0.007600*%
%ADD292R,0.556300X0.007600*%
%ADD293R,0.807700X0.007700*%
%ADD294R,0.411500X0.007600*%
%ADD295R,0.533400X0.007600*%
%ADD296R,0.076200X0.007600*%
%ADD297R,0.403900X0.007600*%
%ADD298R,0.525700X0.007600*%
%ADD299R,0.388700X0.007600*%
%ADD300R,0.297200X0.007600*%
%ADD301R,0.373400X0.007700*%
%ADD302R,0.503000X0.007700*%
%ADD303R,0.426800X0.007700*%
%ADD304R,0.358100X0.007600*%
%ADD305R,0.502900X0.007600*%
%ADD306R,0.472400X0.007600*%
%ADD307R,0.487700X0.007600*%
%ADD308R,0.335300X0.007600*%
%ADD309R,0.792500X0.007700*%
%ADD310R,0.327600X0.007700*%
%ADD311R,0.472400X0.007700*%
%ADD312R,0.640000X0.007700*%
%ADD313R,0.784800X0.007600*%
%ADD314R,0.320000X0.007600*%
%ADD315R,0.792400X0.007600*%
%ADD316R,1.173400X0.007600*%
%ADD317R,1.196400X0.007600*%
%ADD318R,0.784900X0.007600*%
%ADD319R,0.784900X0.007700*%
%ADD320R,0.297200X0.007700*%
%ADD321R,1.249700X0.007600*%
%ADD322R,0.281900X0.007600*%
%ADD323R,1.295400X0.007600*%
%ADD324R,0.266700X0.007600*%
%ADD325R,0.777300X0.007700*%
%ADD326R,0.266700X0.007700*%
%ADD327R,1.333500X0.007700*%
%ADD328R,0.777300X0.007600*%
%ADD329R,1.348800X0.007600*%
%ADD330R,0.251500X0.007600*%
%ADD331R,0.243900X0.007700*%
%ADD332R,0.243900X0.007600*%
%ADD333R,1.440100X0.007600*%
%ADD334R,0.236200X0.007600*%
%ADD335R,0.762000X0.007700*%
%ADD336R,0.236200X0.007700*%
%ADD337R,1.508700X0.007700*%
%ADD338R,1.531600X0.007600*%
%ADD339R,1.546900X0.007600*%
%ADD340R,1.569700X0.007600*%
%ADD341R,1.585000X0.007600*%
%ADD342R,0.746800X0.007700*%
%ADD343R,1.607800X0.007700*%
%ADD344R,0.243800X0.007600*%
%ADD345R,1.630700X0.007600*%
%ADD346R,1.653500X0.007600*%
%ADD347R,0.739200X0.007600*%
%ADD348R,1.684000X0.007600*%
%ADD349R,2.019300X0.007600*%
%ADD350R,0.731500X0.007700*%
%ADD351R,2.026900X0.007700*%
%ADD352R,2.049800X0.007600*%
%ADD353R,2.057400X0.007600*%
%ADD354R,0.708700X0.007600*%
%ADD355R,2.072600X0.007600*%
%ADD356R,0.701000X0.007600*%
%ADD357R,2.095500X0.007600*%
%ADD358R,0.693500X0.007700*%
%ADD359R,2.110800X0.007700*%
%ADD360R,2.141200X0.007600*%
%ADD361R,0.060900X0.007600*%
%ADD362R,2.872700X0.007600*%
%ADD363R,3.124200X0.007600*%
%ADD364R,3.177600X0.007600*%
%ADD365R,3.215600X0.007700*%
%ADD366R,3.253700X0.007600*%
%ADD367R,3.284300X0.007600*%
%ADD368R,3.314700X0.007600*%
%ADD369R,3.352800X0.007600*%
%ADD370R,3.375600X0.007700*%
%ADD371R,3.406200X0.007600*%
%ADD372R,3.429000X0.007600*%
%ADD373R,3.451800X0.007600*%
%ADD374R,3.482400X0.007600*%
%ADD375R,1.828800X0.007700*%
%ADD376R,1.539300X0.007700*%
%ADD377R,1.767900X0.007600*%
%ADD378R,1.767800X0.007600*%
%ADD379R,1.760200X0.007700*%
%ADD380R,1.760300X0.007600*%
%ADD381R,1.775400X0.007700*%
%ADD382R,1.379300X0.007700*%
%ADD383R,1.783000X0.007600*%
%ADD384R,1.813500X0.007600*%
%ADD385R,1.821100X0.007700*%
%ADD386R,0.503000X0.007600*%
%ADD387R,1.135400X0.007600*%
%ADD388R,1.127700X0.007700*%
%ADD389R,0.487700X0.007700*%
%ADD390R,1.120200X0.007600*%
%ADD391R,1.097300X0.007600*%
%ADD392R,0.510600X0.007600*%
%ADD393R,1.074400X0.007700*%
%ADD394R,0.525800X0.007700*%
%ADD395R,1.440200X0.007700*%
%ADD396R,1.059200X0.007600*%
%ADD397R,1.051600X0.007600*%
%ADD398R,1.051500X0.007600*%
%ADD399R,1.043900X0.007700*%
%ADD400R,0.602000X0.007700*%
%ADD401R,1.524000X0.007600*%
%ADD402R,1.539300X0.007600*%
%ADD403R,1.592600X0.007600*%
%ADD404R,1.021100X0.007700*%
%ADD405R,1.615400X0.007700*%
%ADD406R,1.013400X0.007600*%
%ADD407R,1.653600X0.007600*%
%ADD408R,1.013500X0.007600*%
%ADD409R,1.699300X0.007600*%
%ADD410R,2.743200X0.007600*%
%ADD411R,1.005900X0.007600*%
%ADD412R,2.415500X0.007600*%
%ADD413R,1.005800X0.007700*%
%ADD414R,0.281900X0.007700*%
%ADD415R,2.408000X0.007700*%
%ADD416R,2.407900X0.007600*%
%ADD417R,0.998200X0.007600*%
%ADD418R,0.282000X0.007600*%
%ADD419R,0.998300X0.007600*%
%ADD420R,2.400300X0.007600*%
%ADD421R,0.289500X0.007700*%
%ADD422R,2.400300X0.007700*%
%ADD423R,0.297100X0.007600*%
%ADD424R,0.312400X0.007600*%
%ADD425R,2.392700X0.007600*%
%ADD426R,0.990600X0.007700*%
%ADD427R,0.327700X0.007700*%
%ADD428R,2.392700X0.007700*%
%ADD429R,2.385100X0.007600*%
%ADD430R,0.381000X0.007700*%
%ADD431R,2.377400X0.007700*%
%ADD432R,2.377400X0.007600*%
%ADD433R,2.369800X0.007600*%
%ADD434R,0.419100X0.007600*%
%ADD435R,2.362200X0.007600*%
%ADD436R,0.426800X0.007600*%
%ADD437R,1.036300X0.007700*%
%ADD438R,0.442000X0.007700*%
%ADD439R,2.354600X0.007700*%
%ADD440R,2.354600X0.007600*%
%ADD441R,0.480100X0.007600*%
%ADD442R,2.347000X0.007600*%
%ADD443R,1.074500X0.007600*%
%ADD444R,2.339400X0.007600*%
%ADD445R,1.082100X0.007700*%
%ADD446R,0.548700X0.007700*%
%ADD447R,2.331800X0.007700*%
%ADD448R,2.331800X0.007600*%
%ADD449R,0.624900X0.007600*%
%ADD450R,2.324100X0.007600*%
%ADD451R,1.859300X0.007600*%
%ADD452R,2.308800X0.007600*%
%ADD453R,2.301200X0.007700*%
%ADD454R,2.301200X0.007600*%
%ADD455R,2.293600X0.007600*%
%ADD456R,2.278400X0.007600*%
%ADD457R,1.889800X0.007600*%
%ADD458R,2.270700X0.007600*%
%ADD459R,1.897400X0.007700*%
%ADD460R,2.255500X0.007700*%
%ADD461R,1.897400X0.007600*%
%ADD462R,2.247900X0.007600*%
%ADD463R,2.232600X0.007600*%
%ADD464R,1.912700X0.007600*%
%ADD465R,2.209800X0.007600*%
%ADD466R,1.920300X0.007600*%
%ADD467R,2.186900X0.007600*%
%ADD468R,1.920300X0.007700*%
%ADD469R,2.171700X0.007700*%
%ADD470R,1.935500X0.007600*%
%ADD471R,2.148800X0.007600*%
%ADD472R,2.126000X0.007600*%
%ADD473R,1.950700X0.007600*%
%ADD474R,1.958400X0.007700*%
%ADD475R,2.042200X0.007700*%
%ADD476R,1.973600X0.007600*%
%ADD477R,1.996500X0.007600*%
%ADD478R,1.981200X0.007600*%
%ADD479R,1.988800X0.007600*%
%ADD480R,1.996400X0.007700*%
%ADD481R,1.996400X0.007600*%
%ADD482R,2.004100X0.007600*%
%ADD483R,1.874500X0.007600*%
%ADD484R,1.425000X0.007600*%
%ADD485R,2.026900X0.007600*%
%ADD486R,0.434400X0.007700*%
%ADD487R,1.364000X0.007700*%
%ADD488R,2.034500X0.007600*%
%ADD489R,0.434400X0.007600*%
%ADD490R,2.049700X0.007600*%
%ADD491R,2.065000X0.007700*%
%ADD492R,0.464800X0.007700*%
%ADD493R,1.196300X0.007700*%
%ADD494R,2.080300X0.007600*%
%ADD495R,1.158300X0.007600*%
%ADD496R,2.087900X0.007600*%
%ADD497R,0.472500X0.007600*%
%ADD498R,2.103100X0.007600*%
%ADD499R,2.118400X0.007600*%
%ADD500R,2.133600X0.007600*%
%ADD501R,2.148800X0.007700*%
%ADD502R,2.164000X0.007600*%
%ADD503R,2.171700X0.007600*%
%ADD504R,2.187000X0.007600*%
%ADD505R,0.556200X0.007600*%
%ADD506R,2.202200X0.007700*%
%ADD507R,0.556200X0.007700*%
%ADD508R,0.640100X0.007700*%
%ADD509R,0.579100X0.007600*%
%ADD510R,0.480000X0.007600*%
%ADD511R,1.752600X0.007700*%
%ADD512R,0.487600X0.007700*%
%ADD513R,0.594400X0.007700*%
%ADD514R,0.358100X0.007700*%
%ADD515R,0.099000X0.007600*%
%ADD516R,1.280200X0.007600*%
%ADD517R,1.745000X0.007600*%
%ADD518R,1.744900X0.007600*%
%ADD519R,1.737300X0.007700*%
%ADD520R,1.737400X0.007600*%
%ADD521R,1.729800X0.007600*%
%ADD522R,1.722200X0.007600*%
%ADD523R,1.722100X0.007600*%
%ADD524R,1.714500X0.007700*%
%ADD525R,1.356400X0.007700*%
%ADD526R,1.706900X0.007600*%
%ADD527R,1.356400X0.007600*%
%ADD528R,1.691700X0.007600*%
%ADD529R,1.668800X0.007700*%
%ADD530R,1.645900X0.007600*%
%ADD531R,1.623100X0.007600*%
%ADD532R,1.577400X0.007600*%
%ADD533R,1.554400X0.007600*%
%ADD534R,1.539200X0.007600*%
%ADD535R,1.524000X0.007700*%
%ADD536R,1.501100X0.007600*%
%ADD537R,1.455400X0.007600*%
%ADD538R,1.348800X0.007700*%
%ADD539R,1.318300X0.007600*%
%ADD540R,1.310600X0.007700*%
%ADD541R,1.287800X0.007700*%
%ADD542R,1.234500X0.007600*%
%ADD543R,1.226900X0.007600*%
%ADD544R,1.173500X0.007700*%
%ADD545R,1.173500X0.007600*%
%ADD546R,1.165900X0.007600*%
%ADD547R,1.143000X0.007700*%
%ADD548R,1.127800X0.007600*%
%ADD549R,1.097200X0.007600*%
%ADD550R,1.028700X0.007700*%
%ADD551R,0.982900X0.007600*%
%ADD552R,0.952500X0.007700*%
%ADD553R,0.929600X0.007600*%
%ADD554R,0.906800X0.007700*%
%ADD555R,0.906800X0.007600*%
%ADD556R,0.899200X0.007600*%
%ADD557R,0.884000X0.007600*%
%ADD558R,0.876300X0.007700*%
%ADD559R,0.830600X0.007700*%
%ADD560R,0.754400X0.007700*%
%ADD561R,0.746800X0.007600*%
%ADD562R,0.708600X0.007700*%
%ADD563R,0.678200X0.007700*%
%ADD564R,0.663000X0.007600*%
%ADD565R,0.632500X0.007700*%
%ADD566R,0.556300X0.007700*%
%ADD567R,0.518200X0.007700*%
%ADD568R,0.434300X0.007700*%
%ADD569R,0.396300X0.007700*%
%ADD570R,0.373300X0.007600*%
%ADD571R,0.365700X0.007600*%
%ADD572R,0.327700X0.007600*%
%ADD573R,0.304800X0.007700*%
%ADD574R,0.274300X0.007600*%
%ADD575R,0.243800X0.007700*%
%ADD576R,0.205800X0.007600*%
%ADD577R,0.152400X0.007600*%
%ADD578R,0.121900X0.007700*%

G36*
X113751Y242105D02*
X113751Y242105D01*
X113823Y242105D01*
X113891Y242125D01*
X113962Y242135D01*
X114027Y242164D01*
X114096Y242184D01*
X114156Y242222D01*
X114221Y242251D01*
X114276Y242297D01*
X114336Y242335D01*
X114384Y242389D01*
X114438Y242435D01*
X114478Y242494D01*
X114525Y242548D01*
X114556Y242612D01*
X114596Y242671D01*
X114617Y242740D01*
X114648Y242804D01*
X114660Y242874D01*
X114681Y242942D01*
X114683Y243014D01*
X114695Y243085D01*
X114687Y243155D01*
X114689Y243226D01*
X114670Y243296D01*
X114662Y243367D01*
X114637Y243422D01*
X114617Y243501D01*
X114556Y243604D01*
X114525Y243673D01*
X112525Y246673D01*
X112448Y246760D01*
X112375Y246850D01*
X112353Y246865D01*
X112335Y246885D01*
X112238Y246947D01*
X112143Y247014D01*
X112117Y247022D01*
X112095Y247037D01*
X111984Y247069D01*
X111874Y247107D01*
X111847Y247108D01*
X111822Y247115D01*
X111706Y247115D01*
X111590Y247121D01*
X111564Y247115D01*
X111537Y247115D01*
X111426Y247083D01*
X111313Y247057D01*
X111290Y247044D01*
X111264Y247036D01*
X111166Y246974D01*
X111065Y246918D01*
X111049Y246900D01*
X111024Y246885D01*
X110839Y246677D01*
X110835Y246673D01*
X108835Y243673D01*
X108804Y243609D01*
X108765Y243549D01*
X108743Y243481D01*
X108712Y243417D01*
X108700Y243346D01*
X108679Y243278D01*
X108677Y243207D01*
X108665Y243137D01*
X108673Y243065D01*
X108671Y242994D01*
X108689Y242925D01*
X108698Y242854D01*
X108725Y242788D01*
X108743Y242719D01*
X108780Y242658D01*
X108807Y242592D01*
X108852Y242536D01*
X108889Y242474D01*
X108940Y242425D01*
X108985Y242370D01*
X109044Y242329D01*
X109096Y242280D01*
X109159Y242247D01*
X109217Y242206D01*
X109285Y242183D01*
X109349Y242150D01*
X109408Y242140D01*
X109486Y242113D01*
X109605Y242107D01*
X109680Y242095D01*
X113680Y242095D01*
X113751Y242105D01*
G37*
D10*
X59095Y31242D02*
X64857Y31242D01*
X67738Y34123D01*
X64857Y37004D01*
X59095Y37004D01*
X67738Y40597D02*
X67738Y43478D01*
X67738Y42038D02*
X59095Y42038D01*
X59095Y43478D02*
X59095Y40597D01*
X59095Y46834D02*
X67738Y46834D01*
X67738Y52596D02*
X59095Y46834D01*
X59095Y52596D02*
X67738Y52596D01*
X84495Y35564D02*
X85935Y37004D01*
X84495Y35564D02*
X84495Y32683D01*
X85935Y31242D01*
X91697Y31242D01*
X93138Y32683D01*
X93138Y35564D01*
X91697Y37004D01*
X88816Y37004D01*
X88816Y34123D01*
X84495Y40597D02*
X93138Y40597D01*
X93138Y46359D02*
X84495Y40597D01*
X84495Y46359D02*
X93138Y46359D01*
X93138Y49952D02*
X84495Y49952D01*
X93138Y49952D02*
X93138Y54274D01*
X91697Y55715D01*
X85935Y55715D01*
X84495Y54274D01*
X84495Y49952D01*
X109895Y31413D02*
X111335Y29972D01*
X109895Y31413D02*
X109895Y34294D01*
X111335Y35734D01*
X112776Y35734D01*
X114216Y34294D01*
X114216Y32853D01*
X114216Y34294D02*
X115657Y35734D01*
X117097Y35734D01*
X118538Y34294D01*
X118538Y31413D01*
X117097Y29972D01*
X115657Y39327D02*
X109895Y39327D01*
X115657Y39327D02*
X118538Y42208D01*
X115657Y45089D01*
X109895Y45089D01*
X118538Y50123D02*
X118538Y53004D01*
X117097Y54445D01*
X114216Y54445D01*
X112776Y53004D01*
X112776Y50123D01*
X114216Y48682D01*
X117097Y48682D01*
X118538Y50123D01*
X160695Y34294D02*
X162135Y35734D01*
X160695Y34294D02*
X160695Y31413D01*
X162135Y29972D01*
X163576Y29972D01*
X165016Y31413D01*
X165016Y34294D01*
X166457Y35734D01*
X167897Y35734D01*
X169338Y34294D01*
X169338Y31413D01*
X167897Y29972D01*
X160695Y43649D02*
X162135Y45089D01*
X160695Y43649D02*
X160695Y40768D01*
X162135Y39327D01*
X167897Y39327D01*
X169338Y40768D01*
X169338Y43649D01*
X167897Y45089D01*
X169338Y48682D02*
X160695Y48682D01*
X166457Y48682D02*
X160695Y54445D01*
X165016Y50123D02*
X169338Y54445D01*
X186095Y29972D02*
X194738Y29972D01*
X188976Y32853D02*
X186095Y29972D01*
X188976Y32853D02*
X186095Y35734D01*
X194738Y35734D01*
X194738Y39327D02*
X194738Y42208D01*
X194738Y40768D02*
X186095Y40768D01*
X186095Y42208D02*
X186095Y39327D01*
X186095Y49886D02*
X187535Y51326D01*
X186095Y49886D02*
X186095Y47005D01*
X187535Y45564D01*
X188976Y45564D01*
X190416Y47005D01*
X190416Y49886D01*
X191857Y51326D01*
X193297Y51326D01*
X194738Y49886D01*
X194738Y47005D01*
X193297Y45564D01*
X186095Y56360D02*
X186095Y59241D01*
X186095Y56360D02*
X187535Y54919D01*
X193297Y54919D01*
X194738Y56360D01*
X194738Y59241D01*
X193297Y60681D01*
X187535Y60681D01*
X186095Y59241D01*
X211495Y31242D02*
X220138Y31242D01*
X214376Y34123D02*
X211495Y31242D01*
X214376Y34123D02*
X211495Y37004D01*
X220138Y37004D01*
X211495Y42038D02*
X211495Y44919D01*
X211495Y42038D02*
X212935Y40597D01*
X218697Y40597D01*
X220138Y42038D01*
X220138Y44919D01*
X218697Y46359D01*
X212935Y46359D01*
X211495Y44919D01*
X211495Y54274D02*
X212935Y55715D01*
X211495Y54274D02*
X211495Y51393D01*
X212935Y49952D01*
X214376Y49952D01*
X215816Y51393D01*
X215816Y54274D01*
X217257Y55715D01*
X218697Y55715D01*
X220138Y54274D01*
X220138Y51393D01*
X218697Y49952D01*
X220138Y59308D02*
X220138Y62189D01*
X220138Y60748D02*
X211495Y60748D01*
X211495Y59308D02*
X211495Y62189D01*
X236895Y35564D02*
X238335Y37004D01*
X236895Y35564D02*
X236895Y32683D01*
X238335Y31242D01*
X244097Y31242D01*
X245538Y32683D01*
X245538Y35564D01*
X244097Y37004D01*
X236895Y44919D02*
X238335Y46359D01*
X236895Y44919D02*
X236895Y42038D01*
X238335Y40597D01*
X239776Y40597D01*
X241216Y42038D01*
X241216Y44919D01*
X242657Y46359D01*
X244097Y46359D01*
X245538Y44919D01*
X245538Y42038D01*
X244097Y40597D01*
X262295Y31242D02*
X270938Y31242D01*
X262295Y31242D02*
X262295Y35564D01*
X263735Y37004D01*
X266616Y37004D01*
X268057Y35564D01*
X268057Y31242D01*
X268057Y34123D02*
X270938Y37004D01*
X262295Y44919D02*
X263735Y46359D01*
X262295Y44919D02*
X262295Y42038D01*
X263735Y40597D01*
X265176Y40597D01*
X266616Y42038D01*
X266616Y44919D01*
X268057Y46359D01*
X269497Y46359D01*
X270938Y44919D01*
X270938Y42038D01*
X269497Y40597D01*
X270938Y52834D02*
X262295Y52834D01*
X262295Y55715D02*
X262295Y49952D01*
X287695Y31242D02*
X296338Y31242D01*
X293457Y34123D01*
X296338Y37004D01*
X287695Y37004D01*
X290576Y40597D02*
X296338Y40597D01*
X290576Y40597D02*
X287695Y43478D01*
X290576Y46359D01*
X296338Y46359D01*
X292016Y46359D02*
X292016Y40597D01*
X296338Y49952D02*
X296338Y52834D01*
X296338Y51393D02*
X287695Y51393D01*
X287695Y49952D02*
X287695Y52834D01*
X287695Y59070D02*
X296338Y59070D01*
X287695Y56189D02*
X287695Y61951D01*
X321738Y34123D02*
X321738Y31242D01*
X321738Y32683D02*
X313095Y32683D01*
X313095Y34123D02*
X313095Y31242D01*
X313095Y37479D02*
X321738Y37479D01*
X321738Y43241D02*
X313095Y37479D01*
X313095Y43241D02*
X321738Y43241D01*
X321738Y49715D02*
X313095Y49715D01*
X313095Y46834D02*
X313095Y52596D01*
D11*
X56896Y364236D02*
X56896Y378981D01*
X64268Y378981D01*
X66726Y376523D01*
X66726Y371608D01*
X64268Y369151D01*
X56896Y369151D01*
X61811Y369151D02*
X66726Y364236D01*
X72332Y364236D02*
X72332Y374066D01*
X77247Y378981D01*
X82162Y374066D01*
X82162Y364236D01*
X82162Y371608D02*
X72332Y371608D01*
X87768Y376523D02*
X90226Y378981D01*
X95140Y378981D01*
X97598Y376523D01*
X97598Y374066D01*
X95140Y371608D01*
X97598Y369151D01*
X97598Y366693D01*
X95140Y364236D01*
X90226Y364236D01*
X87768Y366693D01*
X87768Y369151D01*
X90226Y371608D01*
X87768Y374066D01*
X87768Y376523D01*
X90226Y371608D02*
X95140Y371608D01*
X103204Y376523D02*
X105662Y378981D01*
X110576Y378981D01*
X113034Y376523D01*
X113034Y374066D01*
X110576Y371608D01*
X113034Y369151D01*
X113034Y366693D01*
X110576Y364236D01*
X105662Y364236D01*
X103204Y366693D01*
X103204Y369151D01*
X105662Y371608D01*
X103204Y374066D01*
X103204Y376523D01*
X105662Y371608D02*
X110576Y371608D01*
X118640Y378981D02*
X128470Y378981D01*
X128470Y376523D01*
X118640Y366693D01*
X118640Y364236D01*
X134076Y378981D02*
X143906Y378981D01*
X134076Y378981D02*
X134076Y371608D01*
X138991Y374066D01*
X141449Y374066D01*
X143906Y371608D01*
X143906Y366693D01*
X141449Y364236D01*
X136534Y364236D01*
X134076Y366693D01*
D10*
X14569Y352983D02*
X12705Y354848D01*
X8976Y354848D01*
X7112Y352983D01*
X7112Y351119D01*
X8976Y349255D01*
X12705Y349255D01*
X14569Y347391D01*
X14569Y345526D01*
X12705Y343662D01*
X8976Y343662D01*
X7112Y345526D01*
X18806Y343662D02*
X18806Y354848D01*
X24399Y354848D01*
X26263Y352983D01*
X26263Y349255D01*
X24399Y347391D01*
X18806Y347391D01*
X30500Y343662D02*
X34228Y343662D01*
X32364Y343662D02*
X32364Y354848D01*
X30500Y354848D02*
X34228Y354848D01*
X38296Y349255D02*
X45753Y349255D01*
X49990Y354848D02*
X57447Y349255D01*
X49990Y343662D01*
X67277Y343662D02*
X67277Y354848D01*
X61684Y349255D01*
X69141Y349255D01*
X73378Y352983D02*
X73378Y345526D01*
X73378Y352983D02*
X75242Y354848D01*
X78971Y354848D01*
X80835Y352983D01*
X80835Y345526D01*
X78971Y343662D01*
X75242Y343662D01*
X73378Y345526D01*
X80835Y352983D01*
X85072Y351119D02*
X85072Y339934D01*
X85072Y351119D02*
X90665Y351119D01*
X92529Y349255D01*
X92529Y345526D01*
X90665Y343662D01*
X85072Y343662D01*
X112188Y343662D02*
X112188Y354848D01*
X108460Y354848D02*
X115917Y354848D01*
X120154Y354848D02*
X120154Y343662D01*
X120154Y354848D02*
X127611Y354848D01*
X123882Y349255D02*
X120154Y349255D01*
X135576Y343662D02*
X135576Y354848D01*
X131848Y354848D02*
X139305Y354848D01*
X28026Y320558D02*
X26162Y318693D01*
X28026Y320558D02*
X31755Y320558D01*
X33619Y318693D01*
X33619Y316829D01*
X31755Y314965D01*
X33619Y313101D01*
X33619Y311236D01*
X31755Y309372D01*
X28026Y309372D01*
X26162Y311236D01*
X26162Y313101D01*
X28026Y314965D01*
X26162Y316829D01*
X26162Y318693D01*
X28026Y314965D02*
X31755Y314965D01*
X37856Y318693D02*
X37856Y311236D01*
X37856Y318693D02*
X39720Y320558D01*
X43449Y320558D01*
X45313Y318693D01*
X45313Y311236D01*
X43449Y309372D01*
X39720Y309372D01*
X37856Y311236D01*
X45313Y318693D01*
X49550Y318693D02*
X49550Y311236D01*
X49550Y318693D02*
X51414Y320558D01*
X55143Y320558D01*
X57007Y318693D01*
X57007Y311236D01*
X55143Y309372D01*
X51414Y309372D01*
X49550Y311236D01*
X57007Y318693D01*
X61244Y316829D02*
X68701Y309372D01*
X61244Y309372D02*
X68701Y316829D01*
X78531Y320558D02*
X78531Y309372D01*
X72938Y314965D02*
X78531Y320558D01*
X80395Y314965D02*
X72938Y314965D01*
X84632Y318693D02*
X86496Y320558D01*
X90225Y320558D01*
X92089Y318693D01*
X92089Y316829D01*
X90225Y314965D01*
X92089Y313101D01*
X92089Y311236D01*
X90225Y309372D01*
X86496Y309372D01*
X84632Y311236D01*
X84632Y313101D01*
X86496Y314965D01*
X84632Y316829D01*
X84632Y318693D01*
X86496Y314965D02*
X90225Y314965D01*
X96326Y318693D02*
X96326Y311236D01*
X96326Y318693D02*
X98190Y320558D01*
X101919Y320558D01*
X103783Y318693D01*
X103783Y311236D01*
X101919Y309372D01*
X98190Y309372D01*
X96326Y311236D01*
X103783Y318693D01*
X119714Y316829D02*
X119714Y309372D01*
X119714Y316829D02*
X121578Y316829D01*
X123442Y314965D01*
X123442Y309372D01*
X123442Y314965D02*
X125307Y316829D01*
X127171Y314965D01*
X127171Y309372D01*
X133272Y316829D02*
X137000Y316829D01*
X138865Y314965D01*
X138865Y309372D01*
X133272Y309372D01*
X131408Y311236D01*
X133272Y313101D01*
X138865Y313101D01*
X143102Y316829D02*
X150559Y309372D01*
X143102Y309372D02*
X150559Y316829D01*
X338495Y31242D02*
X339935Y31242D01*
X342816Y34123D01*
X339935Y37004D01*
X338495Y37004D01*
X342816Y34123D02*
X347138Y34123D01*
X342816Y40597D02*
X342816Y46359D01*
X339935Y43478D02*
X345697Y43478D01*
X363895Y31242D02*
X365335Y31242D01*
X368216Y34123D01*
X365335Y37004D01*
X363895Y37004D01*
X368216Y34123D02*
X372538Y34123D01*
X368216Y40597D02*
X368216Y46359D01*
X389295Y31242D02*
X397938Y37004D01*
X397938Y31242D02*
X389295Y37004D01*
X393616Y40597D02*
X393616Y46359D01*
X414695Y31242D02*
X423338Y37004D01*
X423338Y31242D02*
X414695Y37004D01*
X419016Y40597D02*
X419016Y46359D01*
X416135Y43478D02*
X421897Y43478D01*
X143938Y31242D02*
X135295Y31242D01*
X143938Y31242D02*
X143938Y37004D01*
X143938Y40597D02*
X143938Y43478D01*
X143938Y42038D02*
X135295Y42038D01*
X135295Y43478D02*
X135295Y40597D01*
X135295Y49715D02*
X143938Y49715D01*
X135295Y46834D02*
X135295Y52596D01*
X135295Y56189D02*
X135295Y61951D01*
X135295Y56189D02*
X143938Y56189D01*
X143938Y61951D01*
X139616Y59070D02*
X139616Y56189D01*
D12*
X119380Y7620D02*
X109220Y7620D01*
X114300Y2540D02*
X119380Y7620D01*
X114300Y2540D02*
X109220Y7620D01*
X185420Y7620D02*
X195580Y7620D01*
X190500Y2540D01*
X185420Y7620D01*
X312420Y7620D02*
X322580Y7620D01*
X317500Y2540D01*
X312420Y7620D01*
X297180Y7620D02*
X287020Y7620D01*
X292100Y2540D02*
X297180Y7620D01*
X292100Y2540D02*
X287020Y7620D01*
X144780Y2540D02*
X134620Y2540D01*
X139700Y7620D01*
X144780Y2540D01*
X160020Y2540D02*
X170180Y2540D01*
X165100Y7620D02*
X160020Y2540D01*
X165100Y7620D02*
X170180Y2540D01*
X210820Y2540D02*
X220980Y2540D01*
X215900Y7620D02*
X210820Y2540D01*
X215900Y7620D02*
X220980Y2540D01*
X236220Y2540D02*
X246380Y2540D01*
X241300Y7620D02*
X236220Y2540D01*
X241300Y7620D02*
X246380Y2540D01*
X261620Y2540D02*
X271780Y2540D01*
X266700Y7620D02*
X261620Y2540D01*
X266700Y7620D02*
X271780Y2540D01*
X68580Y2540D02*
X58420Y2540D01*
X63500Y7620D01*
X68580Y2540D01*
D10*
X7112Y329016D02*
X7112Y334609D01*
X7112Y329016D02*
X8976Y327152D01*
X10841Y329016D01*
X12705Y327152D01*
X14569Y329016D01*
X14569Y334609D01*
X18806Y334609D02*
X20670Y334609D01*
X20670Y327152D01*
X18806Y327152D02*
X22534Y327152D01*
X20670Y338338D02*
X20670Y340202D01*
X28466Y336473D02*
X28466Y329016D01*
X30330Y327152D01*
X30330Y334609D02*
X26602Y334609D01*
X34398Y338338D02*
X34398Y327152D01*
X34398Y332745D02*
X36262Y334609D01*
X39991Y334609D01*
X41855Y332745D01*
X41855Y327152D01*
X61514Y327152D02*
X61514Y338338D01*
X57786Y338338D02*
X65243Y338338D01*
X71344Y327152D02*
X75073Y327152D01*
X76937Y329016D01*
X76937Y332745D01*
X75073Y334609D01*
X71344Y334609D01*
X69480Y332745D01*
X69480Y329016D01*
X71344Y327152D01*
X81174Y329016D02*
X81174Y334609D01*
X81174Y329016D02*
X83038Y327152D01*
X88631Y327152D01*
X88631Y334609D01*
X94732Y334609D02*
X100325Y334609D01*
X94732Y334609D02*
X92868Y332745D01*
X92868Y329016D01*
X94732Y327152D01*
X100325Y327152D01*
X104562Y327152D02*
X104562Y338338D01*
X106426Y334609D02*
X104562Y332745D01*
X106426Y334609D02*
X110154Y334609D01*
X112019Y332745D01*
X112019Y327152D01*
D11*
X187730Y238910D02*
X325190Y238910D01*
X325190Y101450D01*
X195230Y101450D01*
X187730Y108950D01*
X187730Y238910D01*
D13*
X175265Y92160D02*
X175267Y92272D01*
X175273Y92384D01*
X175283Y92496D01*
X175297Y92607D01*
X175314Y92717D01*
X175336Y92827D01*
X175361Y92937D01*
X175391Y93045D01*
X175424Y93152D01*
X175461Y93258D01*
X175501Y93362D01*
X175546Y93465D01*
X175593Y93566D01*
X175645Y93666D01*
X175700Y93764D01*
X175758Y93859D01*
X175820Y93953D01*
X175885Y94044D01*
X175953Y94133D01*
X176024Y94220D01*
X176098Y94304D01*
X176175Y94385D01*
X176255Y94464D01*
X176338Y94539D01*
X176423Y94612D01*
X176511Y94682D01*
X176601Y94748D01*
X176694Y94812D01*
X176788Y94872D01*
X176885Y94928D01*
X176984Y94981D01*
X177084Y95031D01*
X177186Y95077D01*
X177290Y95119D01*
X177395Y95158D01*
X177502Y95193D01*
X177609Y95224D01*
X177718Y95252D01*
X177827Y95275D01*
X177938Y95295D01*
X178049Y95311D01*
X178160Y95323D01*
X178272Y95331D01*
X178384Y95335D01*
X178496Y95335D01*
X178608Y95331D01*
X178720Y95323D01*
X178831Y95311D01*
X178942Y95295D01*
X179053Y95275D01*
X179162Y95252D01*
X179271Y95224D01*
X179378Y95193D01*
X179485Y95158D01*
X179590Y95119D01*
X179694Y95077D01*
X179796Y95031D01*
X179896Y94981D01*
X179995Y94928D01*
X180092Y94872D01*
X180186Y94812D01*
X180279Y94748D01*
X180369Y94682D01*
X180457Y94612D01*
X180542Y94539D01*
X180625Y94464D01*
X180705Y94385D01*
X180782Y94304D01*
X180856Y94220D01*
X180927Y94133D01*
X180995Y94044D01*
X181060Y93953D01*
X181122Y93859D01*
X181180Y93764D01*
X181235Y93666D01*
X181287Y93566D01*
X181334Y93465D01*
X181379Y93362D01*
X181419Y93258D01*
X181456Y93152D01*
X181489Y93045D01*
X181519Y92937D01*
X181544Y92827D01*
X181566Y92717D01*
X181583Y92607D01*
X181597Y92496D01*
X181607Y92384D01*
X181613Y92272D01*
X181615Y92160D01*
X181613Y92048D01*
X181607Y91936D01*
X181597Y91824D01*
X181583Y91713D01*
X181566Y91603D01*
X181544Y91493D01*
X181519Y91383D01*
X181489Y91275D01*
X181456Y91168D01*
X181419Y91062D01*
X181379Y90958D01*
X181334Y90855D01*
X181287Y90754D01*
X181235Y90654D01*
X181180Y90556D01*
X181122Y90461D01*
X181060Y90367D01*
X180995Y90276D01*
X180927Y90187D01*
X180856Y90100D01*
X180782Y90016D01*
X180705Y89935D01*
X180625Y89856D01*
X180542Y89781D01*
X180457Y89708D01*
X180369Y89638D01*
X180279Y89572D01*
X180186Y89508D01*
X180092Y89448D01*
X179995Y89392D01*
X179896Y89339D01*
X179796Y89289D01*
X179694Y89243D01*
X179590Y89201D01*
X179485Y89162D01*
X179378Y89127D01*
X179271Y89096D01*
X179162Y89068D01*
X179053Y89045D01*
X178942Y89025D01*
X178831Y89009D01*
X178720Y88997D01*
X178608Y88989D01*
X178496Y88985D01*
X178384Y88985D01*
X178272Y88989D01*
X178160Y88997D01*
X178049Y89009D01*
X177938Y89025D01*
X177827Y89045D01*
X177718Y89068D01*
X177609Y89096D01*
X177502Y89127D01*
X177395Y89162D01*
X177290Y89201D01*
X177186Y89243D01*
X177084Y89289D01*
X176984Y89339D01*
X176885Y89392D01*
X176788Y89448D01*
X176694Y89508D01*
X176601Y89572D01*
X176511Y89638D01*
X176423Y89708D01*
X176338Y89781D01*
X176255Y89856D01*
X176175Y89935D01*
X176098Y90016D01*
X176024Y90100D01*
X175953Y90187D01*
X175885Y90276D01*
X175820Y90367D01*
X175758Y90461D01*
X175700Y90556D01*
X175645Y90654D01*
X175593Y90754D01*
X175546Y90855D01*
X175501Y90958D01*
X175461Y91062D01*
X175424Y91168D01*
X175391Y91275D01*
X175361Y91383D01*
X175336Y91493D01*
X175314Y91603D01*
X175297Y91713D01*
X175283Y91824D01*
X175273Y91936D01*
X175267Y92048D01*
X175265Y92160D01*
D10*
X154266Y93472D02*
X148758Y93472D01*
X154266Y93472D02*
X155368Y94574D01*
X155368Y96777D01*
X154266Y97878D01*
X148758Y97878D01*
X150962Y100956D02*
X148758Y103159D01*
X155368Y103159D01*
X155368Y100956D02*
X155368Y105363D01*
D14*
X144700Y281940D02*
X144700Y292100D01*
D10*
X114580Y286432D02*
X113479Y287534D01*
X111275Y287534D01*
X110174Y286432D01*
X110174Y282026D01*
X111275Y280924D01*
X113479Y280924D01*
X114580Y282026D01*
X117658Y285330D02*
X119861Y287534D01*
X119861Y280924D01*
X117658Y280924D02*
X122064Y280924D01*
D11*
X118040Y157660D02*
X118040Y116660D01*
X151040Y116660D02*
X151040Y157660D01*
X151040Y116660D02*
X118040Y116660D01*
X118040Y157660D02*
X151040Y157660D01*
D10*
X110490Y117602D02*
X109388Y117602D01*
X110490Y117602D02*
X112693Y119805D01*
X110490Y122008D01*
X109388Y122008D01*
X112693Y119805D02*
X115998Y119805D01*
X111592Y125086D02*
X109388Y127289D01*
X115998Y127289D01*
X115998Y125086D02*
X115998Y129493D01*
D14*
X109140Y116840D02*
X98980Y116840D01*
D10*
X97958Y137922D02*
X104568Y137922D01*
X97958Y137922D02*
X97958Y141227D01*
X99060Y142328D01*
X101263Y142328D01*
X102365Y141227D01*
X102365Y137922D01*
X102365Y140125D02*
X104568Y142328D01*
X99060Y145406D02*
X97958Y146508D01*
X97958Y148711D01*
X99060Y149813D01*
X100162Y149813D01*
X101263Y148711D01*
X101263Y147609D01*
X101263Y148711D02*
X102365Y149813D01*
X103466Y149813D01*
X104568Y148711D01*
X104568Y146508D01*
X103466Y145406D01*
D14*
X96440Y142240D02*
X96440Y152400D01*
D10*
X120827Y153422D02*
X121928Y152320D01*
X120827Y153422D02*
X118624Y153422D01*
X117522Y152320D01*
X117522Y147914D01*
X118624Y146812D01*
X120827Y146812D01*
X121928Y147914D01*
X125006Y146812D02*
X129413Y146812D01*
X129413Y151218D02*
X125006Y146812D01*
X129413Y151218D02*
X129413Y152320D01*
X128311Y153422D01*
X126108Y153422D01*
X125006Y152320D01*
D14*
X135810Y111760D02*
X135810Y101600D01*
D10*
X105690Y106092D02*
X104589Y107194D01*
X102385Y107194D01*
X101284Y106092D01*
X101284Y101686D01*
X102385Y100584D01*
X104589Y100584D01*
X105690Y101686D01*
X108768Y106092D02*
X109869Y107194D01*
X112073Y107194D01*
X113174Y106092D01*
X113174Y104990D01*
X112073Y103889D01*
X110971Y103889D01*
X112073Y103889D02*
X113174Y102787D01*
X113174Y101686D01*
X112073Y100584D01*
X109869Y100584D01*
X108768Y101686D01*
D11*
X338960Y278100D02*
X338960Y306100D01*
X300960Y306100D02*
X300960Y278100D01*
D10*
X304722Y308862D02*
X304722Y315472D01*
X308027Y315472D01*
X309128Y314370D01*
X309128Y312167D01*
X308027Y311065D01*
X304722Y311065D01*
X306925Y311065D02*
X309128Y308862D01*
X315511Y308862D02*
X315511Y315472D01*
X312206Y312167D01*
X316613Y312167D01*
D15*
X304807Y271913D02*
X304214Y271320D01*
X304807Y271913D02*
X305994Y271913D01*
X306587Y271320D01*
X306587Y270727D01*
X305994Y270134D01*
X305400Y270134D01*
X305994Y270134D02*
X306587Y269540D01*
X306587Y268947D01*
X305994Y268354D01*
X304807Y268354D01*
X304214Y268947D01*
X307956Y271320D02*
X308549Y271913D01*
X309736Y271913D01*
X310329Y271320D01*
X310329Y270727D01*
X309736Y270134D01*
X309142Y270134D01*
X309736Y270134D02*
X310329Y269540D01*
X310329Y268947D01*
X309736Y268354D01*
X308549Y268354D01*
X307956Y268947D01*
D11*
X300860Y278100D02*
X300860Y306100D01*
X262860Y306100D02*
X262860Y278100D01*
D10*
X266622Y308862D02*
X266622Y315472D01*
X269927Y315472D01*
X271028Y314370D01*
X271028Y312167D01*
X269927Y311065D01*
X266622Y311065D01*
X268825Y311065D02*
X271028Y308862D01*
X274106Y315472D02*
X278513Y315472D01*
X274106Y315472D02*
X274106Y312167D01*
X276309Y313268D01*
X277411Y313268D01*
X278513Y312167D01*
X278513Y309964D01*
X277411Y308862D01*
X275208Y308862D01*
X274106Y309964D01*
D15*
X266707Y271913D02*
X266114Y271320D01*
X266707Y271913D02*
X267894Y271913D01*
X268487Y271320D01*
X268487Y270727D01*
X267894Y270134D01*
X267300Y270134D01*
X267894Y270134D02*
X268487Y269540D01*
X268487Y268947D01*
X267894Y268354D01*
X266707Y268354D01*
X266114Y268947D01*
X269856Y271320D02*
X270449Y271913D01*
X271636Y271913D01*
X272229Y271320D01*
X272229Y270727D01*
X271636Y270134D01*
X271042Y270134D01*
X271636Y270134D02*
X272229Y269540D01*
X272229Y268947D01*
X271636Y268354D01*
X270449Y268354D01*
X269856Y268947D01*
D11*
X262760Y278100D02*
X262760Y306100D01*
X224760Y306100D02*
X224760Y278100D01*
D10*
X228522Y308862D02*
X228522Y315472D01*
X231827Y315472D01*
X232928Y314370D01*
X232928Y312167D01*
X231827Y311065D01*
X228522Y311065D01*
X230725Y311065D02*
X232928Y308862D01*
X238209Y314370D02*
X240413Y315472D01*
X238209Y314370D02*
X236006Y312167D01*
X236006Y309964D01*
X237108Y308862D01*
X239311Y308862D01*
X240413Y309964D01*
X240413Y311065D01*
X239311Y312167D01*
X236006Y312167D01*
D15*
X228607Y271913D02*
X228014Y271320D01*
X228607Y271913D02*
X229794Y271913D01*
X230387Y271320D01*
X230387Y270727D01*
X229794Y270134D01*
X229200Y270134D01*
X229794Y270134D02*
X230387Y269540D01*
X230387Y268947D01*
X229794Y268354D01*
X228607Y268354D01*
X228014Y268947D01*
X231756Y271320D02*
X232349Y271913D01*
X233536Y271913D01*
X234129Y271320D01*
X234129Y270727D01*
X233536Y270134D01*
X232942Y270134D01*
X233536Y270134D02*
X234129Y269540D01*
X234129Y268947D01*
X233536Y268354D01*
X232349Y268354D01*
X231756Y268947D01*
D11*
X224660Y278100D02*
X224660Y306100D01*
X186660Y306100D02*
X186660Y278100D01*
D10*
X190422Y308862D02*
X190422Y315472D01*
X193727Y315472D01*
X194828Y314370D01*
X194828Y312167D01*
X193727Y311065D01*
X190422Y311065D01*
X192625Y311065D02*
X194828Y308862D01*
X197906Y315472D02*
X202313Y315472D01*
X202313Y314370D01*
X197906Y309964D01*
X197906Y308862D01*
D15*
X190507Y271913D02*
X189914Y271320D01*
X190507Y271913D02*
X191694Y271913D01*
X192287Y271320D01*
X192287Y270727D01*
X191694Y270134D01*
X191100Y270134D01*
X191694Y270134D02*
X192287Y269540D01*
X192287Y268947D01*
X191694Y268354D01*
X190507Y268354D01*
X189914Y268947D01*
X193656Y271320D02*
X194249Y271913D01*
X195436Y271913D01*
X196029Y271320D01*
X196029Y270727D01*
X195436Y270134D01*
X194842Y270134D01*
X195436Y270134D02*
X196029Y269540D01*
X196029Y268947D01*
X195436Y268354D01*
X194249Y268354D01*
X193656Y268947D01*
D11*
X377060Y278100D02*
X377060Y306100D01*
X339060Y306100D02*
X339060Y278100D01*
D10*
X342822Y308862D02*
X342822Y315472D01*
X346127Y315472D01*
X347228Y314370D01*
X347228Y312167D01*
X346127Y311065D01*
X342822Y311065D01*
X345025Y311065D02*
X347228Y308862D01*
X350306Y314370D02*
X351408Y315472D01*
X353611Y315472D01*
X354713Y314370D01*
X354713Y313268D01*
X353611Y312167D01*
X354713Y311065D01*
X354713Y309964D01*
X353611Y308862D01*
X351408Y308862D01*
X350306Y309964D01*
X350306Y311065D01*
X351408Y312167D01*
X350306Y313268D01*
X350306Y314370D01*
X351408Y312167D02*
X353611Y312167D01*
D15*
X342907Y271913D02*
X342314Y271320D01*
X342907Y271913D02*
X344094Y271913D01*
X344687Y271320D01*
X344687Y270727D01*
X344094Y270134D01*
X343500Y270134D01*
X344094Y270134D02*
X344687Y269540D01*
X344687Y268947D01*
X344094Y268354D01*
X342907Y268354D01*
X342314Y268947D01*
X346056Y271320D02*
X346649Y271913D01*
X347836Y271913D01*
X348429Y271320D01*
X348429Y270727D01*
X347836Y270134D01*
X347242Y270134D01*
X347836Y270134D02*
X348429Y269540D01*
X348429Y268947D01*
X347836Y268354D01*
X346649Y268354D01*
X346056Y268947D01*
D14*
X139620Y214630D02*
X139620Y204470D01*
D10*
X109500Y208962D02*
X108399Y210064D01*
X106195Y210064D01*
X105094Y208962D01*
X105094Y204556D01*
X106195Y203454D01*
X108399Y203454D01*
X109500Y204556D01*
X115883Y203454D02*
X115883Y210064D01*
X112578Y206759D01*
X116984Y206759D01*
D14*
X368220Y177800D02*
X368220Y167640D01*
D10*
X392607Y178822D02*
X393708Y177720D01*
X392607Y178822D02*
X390404Y178822D01*
X389302Y177720D01*
X389302Y173314D01*
X390404Y172212D01*
X392607Y172212D01*
X393708Y173314D01*
X396786Y178822D02*
X401193Y178822D01*
X396786Y178822D02*
X396786Y175517D01*
X398989Y176618D01*
X400091Y176618D01*
X401193Y175517D01*
X401193Y173314D01*
X400091Y172212D01*
X397888Y172212D01*
X396786Y173314D01*
D14*
X349170Y101600D02*
X349170Y91440D01*
D10*
X373557Y102622D02*
X374658Y101520D01*
X373557Y102622D02*
X371354Y102622D01*
X370252Y101520D01*
X370252Y97114D01*
X371354Y96012D01*
X373557Y96012D01*
X374658Y97114D01*
X379939Y101520D02*
X382143Y102622D01*
X379939Y101520D02*
X377736Y99317D01*
X377736Y97114D01*
X378838Y96012D01*
X381041Y96012D01*
X382143Y97114D01*
X382143Y98215D01*
X381041Y99317D01*
X377736Y99317D01*
D14*
X162480Y88900D02*
X162480Y78740D01*
D10*
X132360Y83232D02*
X131259Y84334D01*
X129055Y84334D01*
X127954Y83232D01*
X127954Y78826D01*
X129055Y77724D01*
X131259Y77724D01*
X132360Y78826D01*
X135438Y84334D02*
X139844Y84334D01*
X139844Y83232D01*
X135438Y78826D01*
X135438Y77724D01*
D14*
X368220Y232410D02*
X378380Y232410D01*
D10*
X373888Y202290D02*
X372786Y201189D01*
X372786Y198985D01*
X373888Y197884D01*
X378294Y197884D01*
X379396Y198985D01*
X379396Y201189D01*
X378294Y202290D01*
X373888Y205368D02*
X372786Y206469D01*
X372786Y208673D01*
X373888Y209774D01*
X374990Y209774D01*
X376091Y208673D01*
X377193Y209774D01*
X378294Y209774D01*
X379396Y208673D01*
X379396Y206469D01*
X378294Y205368D01*
X377193Y205368D01*
X376091Y206469D01*
X374990Y205368D01*
X373888Y205368D01*
X376091Y206469D02*
X376091Y208673D01*
D14*
X124380Y88900D02*
X124380Y78740D01*
D10*
X94260Y83232D02*
X93159Y84334D01*
X90955Y84334D01*
X89854Y83232D01*
X89854Y78826D01*
X90955Y77724D01*
X93159Y77724D01*
X94260Y78826D01*
X97338Y78826D02*
X98439Y77724D01*
X100643Y77724D01*
X101744Y78826D01*
X101744Y83232D01*
X100643Y84334D01*
X98439Y84334D01*
X97338Y83232D01*
X97338Y82130D01*
X98439Y81029D01*
X101744Y81029D01*
D14*
X139620Y185420D02*
X139620Y195580D01*
D10*
X102016Y189912D02*
X100914Y191014D01*
X98711Y191014D01*
X97610Y189912D01*
X97610Y185506D01*
X98711Y184404D01*
X100914Y184404D01*
X102016Y185506D01*
X105094Y188810D02*
X107297Y191014D01*
X107297Y184404D01*
X105094Y184404D02*
X109500Y184404D01*
X112578Y185506D02*
X112578Y189912D01*
X113679Y191014D01*
X115883Y191014D01*
X116984Y189912D01*
X116984Y185506D01*
X115883Y184404D01*
X113679Y184404D01*
X112578Y185506D01*
X116984Y189912D01*
D14*
X139620Y177800D02*
X139620Y167640D01*
D10*
X102016Y172132D02*
X100914Y173234D01*
X98711Y173234D01*
X97610Y172132D01*
X97610Y167726D01*
X98711Y166624D01*
X100914Y166624D01*
X102016Y167726D01*
X105094Y171030D02*
X107297Y173234D01*
X107297Y166624D01*
X105094Y166624D02*
X109500Y166624D01*
X112578Y171030D02*
X114781Y173234D01*
X114781Y166624D01*
X112578Y166624D02*
X116984Y166624D01*
D14*
X368220Y156210D02*
X368220Y146050D01*
D10*
X392607Y157232D02*
X393708Y156130D01*
X392607Y157232D02*
X390404Y157232D01*
X389302Y156130D01*
X389302Y151724D01*
X390404Y150622D01*
X392607Y150622D01*
X393708Y151724D01*
X396786Y155028D02*
X398989Y157232D01*
X398989Y150622D01*
X396786Y150622D02*
X401193Y150622D01*
X404270Y150622D02*
X408677Y150622D01*
X408677Y155028D02*
X404270Y150622D01*
X408677Y155028D02*
X408677Y156130D01*
X407575Y157232D01*
X405372Y157232D01*
X404270Y156130D01*
D16*
X180900Y385020D02*
X172400Y385020D01*
X167400Y390020D01*
X167400Y398520D01*
X167400Y399020D02*
X180900Y399020D01*
X184900Y395020D01*
X383900Y395020D01*
X387900Y399020D01*
X401400Y399020D01*
X396400Y385020D02*
X387900Y385020D01*
X396400Y385020D02*
X401400Y390020D01*
X401400Y398520D01*
X387900Y399020D02*
X180900Y399020D01*
X422043Y378440D02*
X423992Y380389D01*
X423992Y382338D01*
X422043Y384287D01*
X412298Y384287D01*
X412298Y382338D02*
X412298Y386236D01*
X416196Y390134D02*
X412298Y394032D01*
X423992Y394032D01*
X423992Y390134D02*
X423992Y397930D01*
D17*
X41860Y202820D02*
X40860Y202820D01*
X41860Y202820D02*
X41860Y218820D01*
X40860Y218820D01*
X14860Y202820D02*
X13860Y202820D01*
X13860Y218820D01*
X14860Y218820D01*
X21860Y202820D02*
X33860Y202820D01*
X33860Y218820D02*
X31860Y218820D01*
X23860Y218820D02*
X21860Y218820D01*
D18*
X-4507Y209175D02*
X-4507Y203032D01*
X-3279Y201803D01*
X-821Y201803D01*
X408Y203032D01*
X408Y209175D01*
X2977Y207947D02*
X4206Y209175D01*
X6663Y209175D01*
X7892Y207947D01*
X7892Y206718D01*
X6663Y205489D01*
X5434Y205489D01*
X6663Y205489D02*
X7892Y204260D01*
X7892Y203032D01*
X6663Y201803D01*
X4206Y201803D01*
X2977Y203032D01*
D11*
X65960Y185420D02*
X65960Y175260D01*
D10*
X55253Y196135D02*
X54152Y197237D01*
X51949Y197237D01*
X50847Y196135D01*
X50847Y191729D01*
X51949Y190627D01*
X54152Y190627D01*
X55253Y191729D01*
X58331Y195033D02*
X60534Y197237D01*
X60534Y190627D01*
X58331Y190627D02*
X62738Y190627D01*
X68019Y196135D02*
X70222Y197237D01*
X68019Y196135D02*
X65815Y193932D01*
X65815Y191729D01*
X66917Y190627D01*
X69120Y190627D01*
X70222Y191729D01*
X70222Y192830D01*
X69120Y193932D01*
X65815Y193932D01*
D11*
X47580Y189060D02*
X47580Y247820D01*
X99580Y247820D01*
X99580Y189060D01*
X47580Y189060D01*
D10*
X44358Y189742D02*
X37748Y189742D01*
X44358Y189742D02*
X44358Y194148D01*
X39952Y197226D02*
X37748Y199429D01*
X44358Y199429D01*
X44358Y197226D02*
X44358Y201633D01*
D11*
X118680Y236380D02*
X118680Y253840D01*
X104680Y253840D02*
X104680Y236380D01*
X115680Y242110D02*
X111680Y248110D01*
X115680Y242110D02*
X107680Y242110D01*
X111680Y248110D01*
D19*
X111680Y249110D03*
D10*
X122596Y243604D02*
X129206Y243604D01*
X129206Y246909D01*
X128104Y248010D01*
X123698Y248010D01*
X122596Y246909D01*
X122596Y243604D01*
X129206Y251088D02*
X129206Y255494D01*
X129206Y251088D02*
X124800Y255494D01*
X123698Y255494D01*
X122596Y254393D01*
X122596Y252189D01*
X123698Y251088D01*
D11*
X27860Y246380D02*
X27860Y236220D01*
D10*
X22045Y231019D02*
X22045Y224409D01*
X22045Y231019D02*
X25349Y231019D01*
X26451Y229917D01*
X26451Y227714D01*
X25349Y226612D01*
X22045Y226612D01*
X24248Y226612D02*
X26451Y224409D01*
X29529Y228815D02*
X31732Y231019D01*
X31732Y224409D01*
X29529Y224409D02*
X33935Y224409D01*
X37013Y225511D02*
X37013Y229917D01*
X38114Y231019D01*
X40318Y231019D01*
X41419Y229917D01*
X41419Y225511D01*
X40318Y224409D01*
X38114Y224409D01*
X37013Y225511D01*
X41419Y229917D01*
D11*
X124540Y246380D02*
X134700Y246380D01*
D10*
X139901Y243869D02*
X141003Y244971D01*
X139901Y243869D02*
X139901Y241666D01*
X141003Y240565D01*
X145409Y240565D01*
X146511Y241666D01*
X146511Y243869D01*
X145409Y244971D01*
X142105Y248049D02*
X139901Y250252D01*
X146511Y250252D01*
X146511Y248049D02*
X146511Y252455D01*
X139901Y255533D02*
X139901Y259939D01*
X141003Y259939D01*
X145409Y255533D01*
X146511Y255533D01*
D11*
X67310Y254080D02*
X67310Y264240D01*
D10*
X56603Y274955D02*
X55502Y276057D01*
X53299Y276057D01*
X52197Y274955D01*
X52197Y270549D01*
X53299Y269447D01*
X55502Y269447D01*
X56603Y270549D01*
X59681Y273853D02*
X61884Y276057D01*
X61884Y269447D01*
X59681Y269447D02*
X64088Y269447D01*
X67165Y274955D02*
X68267Y276057D01*
X70470Y276057D01*
X71572Y274955D01*
X71572Y273853D01*
X70470Y272752D01*
X71572Y271650D01*
X71572Y270549D01*
X70470Y269447D01*
X68267Y269447D01*
X67165Y270549D01*
X67165Y271650D01*
X68267Y272752D01*
X67165Y273853D01*
X67165Y274955D01*
X68267Y272752D02*
X70470Y272752D01*
D11*
X27860Y185420D02*
X27860Y175260D01*
D10*
X12747Y190627D02*
X12747Y197237D01*
X16052Y197237D01*
X17153Y196135D01*
X17153Y193932D01*
X16052Y192830D01*
X12747Y192830D01*
X14950Y192830D02*
X17153Y190627D01*
X20231Y195033D02*
X22434Y197237D01*
X22434Y190627D01*
X20231Y190627D02*
X24638Y190627D01*
X27715Y195033D02*
X29919Y197237D01*
X29919Y190627D01*
X32122Y190627D02*
X27715Y190627D01*
D11*
X101040Y271020D02*
X101040Y298480D01*
X101040Y271020D02*
X22990Y271020D01*
X22990Y273080D01*
X22990Y303020D01*
X101040Y303020D01*
X101040Y298480D01*
X59610Y294640D02*
X59610Y279400D01*
X67230Y287020D02*
X59610Y294640D01*
X67230Y287020D02*
X59610Y279400D01*
X67230Y279400D02*
X67230Y287020D01*
X67230Y294640D01*
D10*
X73344Y267214D02*
X73344Y260604D01*
X76649Y260604D01*
X77750Y261706D01*
X77750Y266112D01*
X76649Y267214D01*
X73344Y267214D01*
X80828Y265010D02*
X83031Y267214D01*
X83031Y260604D01*
X80828Y260604D02*
X85234Y260604D01*
D11*
X165020Y299720D02*
X175180Y299720D01*
D10*
X180381Y297209D02*
X181483Y298311D01*
X180381Y297209D02*
X180381Y295006D01*
X181483Y293905D01*
X185889Y293905D01*
X186991Y295006D01*
X186991Y297209D01*
X185889Y298311D01*
X186991Y301389D02*
X186991Y305795D01*
X186991Y301389D02*
X182585Y305795D01*
X181483Y305795D01*
X180381Y304694D01*
X180381Y302490D01*
X181483Y301389D01*
X181483Y308873D02*
X185889Y308873D01*
X181483Y308873D02*
X180381Y309974D01*
X180381Y312178D01*
X181483Y313279D01*
X185889Y313279D01*
X186991Y312178D01*
X186991Y309974D01*
X185889Y308873D01*
X181483Y313279D01*
D11*
X27860Y114300D02*
X17700Y114300D01*
D10*
X6985Y103593D02*
X5883Y102492D01*
X5883Y100289D01*
X6985Y99187D01*
X11391Y99187D01*
X12493Y100289D01*
X12493Y102492D01*
X11391Y103593D01*
X8087Y106671D02*
X5883Y108874D01*
X12493Y108874D01*
X12493Y106671D02*
X12493Y111078D01*
X11391Y114155D02*
X12493Y115257D01*
X12493Y117460D01*
X11391Y118562D01*
X6985Y118562D01*
X5883Y117460D01*
X5883Y115257D01*
X6985Y114155D01*
X8087Y114155D01*
X9188Y115257D01*
X9188Y118562D01*
D11*
X155590Y326900D02*
X155590Y337060D01*
D10*
X153079Y321699D02*
X154181Y320597D01*
X153079Y321699D02*
X150876Y321699D01*
X149775Y320597D01*
X149775Y316191D01*
X150876Y315089D01*
X153079Y315089D01*
X154181Y316191D01*
X157259Y315089D02*
X161665Y315089D01*
X157259Y315089D02*
X161665Y319495D01*
X161665Y320597D01*
X160564Y321699D01*
X158360Y321699D01*
X157259Y320597D01*
X164743Y319495D02*
X166946Y321699D01*
X166946Y315089D01*
X164743Y315089D02*
X169149Y315089D01*
D11*
X61260Y100340D02*
X45260Y100340D01*
X45260Y133340D02*
X61260Y133340D01*
X42760Y120840D02*
X42760Y112840D01*
D10*
X45888Y137382D02*
X51396Y137382D01*
X52498Y138484D01*
X52498Y140687D01*
X51396Y141788D01*
X45888Y141788D01*
X45888Y148171D02*
X52498Y148171D01*
X49193Y144866D02*
X45888Y148171D01*
X49193Y149273D02*
X49193Y144866D01*
D11*
X81200Y118110D02*
X91360Y118110D01*
D10*
X70485Y107403D02*
X69383Y106302D01*
X69383Y104099D01*
X70485Y102997D01*
X74891Y102997D01*
X75993Y104099D01*
X75993Y106302D01*
X74891Y107403D01*
X75993Y110481D02*
X75993Y114888D01*
X71587Y114888D02*
X75993Y110481D01*
X71587Y114888D02*
X70485Y114888D01*
X69383Y113786D01*
X69383Y111583D01*
X70485Y110481D01*
X75993Y117965D02*
X75993Y122372D01*
X71587Y122372D02*
X75993Y117965D01*
X71587Y122372D02*
X70485Y122372D01*
X69383Y121270D01*
X69383Y119067D01*
X70485Y117965D01*
D11*
X67230Y92710D02*
X67230Y82550D01*
D10*
X61415Y77349D02*
X61415Y70739D01*
X61415Y77349D02*
X65821Y77349D01*
X63618Y74044D02*
X61415Y74044D01*
X68899Y70739D02*
X68899Y77349D01*
X72204Y77349D01*
X73305Y76247D01*
X73305Y75145D01*
X72204Y74044D01*
X73305Y72942D01*
X73305Y71841D01*
X72204Y70739D01*
X68899Y70739D01*
X68899Y74044D02*
X72204Y74044D01*
X76383Y70739D02*
X80789Y70739D01*
X76383Y70739D02*
X80789Y75145D01*
X80789Y76247D01*
X79688Y77349D01*
X77484Y77349D01*
X76383Y76247D01*
D11*
X411450Y246850D02*
X449450Y246850D01*
X449450Y146850D02*
X411450Y146850D01*
X419020Y241808D02*
X419022Y241908D01*
X419028Y242009D01*
X419038Y242108D01*
X419052Y242208D01*
X419069Y242307D01*
X419091Y242405D01*
X419117Y242502D01*
X419146Y242598D01*
X419179Y242692D01*
X419216Y242786D01*
X419256Y242878D01*
X419300Y242968D01*
X419348Y243056D01*
X419399Y243143D01*
X419453Y243227D01*
X419511Y243309D01*
X419572Y243389D01*
X419636Y243466D01*
X419703Y243541D01*
X419773Y243613D01*
X419846Y243682D01*
X419921Y243748D01*
X419999Y243812D01*
X420079Y243872D01*
X420162Y243929D01*
X420247Y243982D01*
X420334Y244032D01*
X420423Y244079D01*
X420513Y244122D01*
X420605Y244162D01*
X420699Y244198D01*
X420794Y244230D01*
X420890Y244258D01*
X420988Y244283D01*
X421086Y244303D01*
X421185Y244320D01*
X421285Y244333D01*
X421384Y244342D01*
X421485Y244347D01*
X421585Y244348D01*
X421685Y244345D01*
X421786Y244338D01*
X421885Y244327D01*
X421985Y244312D01*
X422083Y244294D01*
X422181Y244271D01*
X422278Y244244D01*
X422373Y244214D01*
X422468Y244180D01*
X422561Y244142D01*
X422652Y244101D01*
X422742Y244056D01*
X422830Y244008D01*
X422916Y243956D01*
X423000Y243901D01*
X423081Y243842D01*
X423160Y243780D01*
X423237Y243716D01*
X423311Y243648D01*
X423382Y243577D01*
X423451Y243504D01*
X423516Y243428D01*
X423579Y243349D01*
X423638Y243268D01*
X423694Y243185D01*
X423747Y243100D01*
X423796Y243012D01*
X423842Y242923D01*
X423884Y242832D01*
X423923Y242739D01*
X423958Y242645D01*
X423989Y242550D01*
X424017Y242453D01*
X424040Y242356D01*
X424060Y242257D01*
X424076Y242158D01*
X424088Y242059D01*
X424096Y241958D01*
X424100Y241858D01*
X424100Y241758D01*
X424096Y241658D01*
X424088Y241557D01*
X424076Y241458D01*
X424060Y241359D01*
X424040Y241260D01*
X424017Y241163D01*
X423989Y241066D01*
X423958Y240971D01*
X423923Y240877D01*
X423884Y240784D01*
X423842Y240693D01*
X423796Y240604D01*
X423747Y240516D01*
X423694Y240431D01*
X423638Y240348D01*
X423579Y240267D01*
X423516Y240188D01*
X423451Y240112D01*
X423382Y240039D01*
X423311Y239968D01*
X423237Y239900D01*
X423160Y239836D01*
X423081Y239774D01*
X423000Y239715D01*
X422916Y239660D01*
X422830Y239608D01*
X422742Y239560D01*
X422652Y239515D01*
X422561Y239474D01*
X422468Y239436D01*
X422373Y239402D01*
X422278Y239372D01*
X422181Y239345D01*
X422083Y239322D01*
X421985Y239304D01*
X421885Y239289D01*
X421786Y239278D01*
X421685Y239271D01*
X421585Y239268D01*
X421485Y239269D01*
X421384Y239274D01*
X421285Y239283D01*
X421185Y239296D01*
X421086Y239313D01*
X420988Y239333D01*
X420890Y239358D01*
X420794Y239386D01*
X420699Y239418D01*
X420605Y239454D01*
X420513Y239494D01*
X420423Y239537D01*
X420334Y239584D01*
X420247Y239634D01*
X420162Y239687D01*
X420079Y239744D01*
X419999Y239804D01*
X419921Y239868D01*
X419846Y239934D01*
X419773Y240003D01*
X419703Y240075D01*
X419636Y240150D01*
X419572Y240227D01*
X419511Y240307D01*
X419453Y240389D01*
X419399Y240473D01*
X419348Y240560D01*
X419300Y240648D01*
X419256Y240738D01*
X419216Y240830D01*
X419179Y240924D01*
X419146Y241018D01*
X419117Y241114D01*
X419091Y241211D01*
X419069Y241309D01*
X419052Y241408D01*
X419038Y241508D01*
X419028Y241607D01*
X419022Y241708D01*
X419020Y241808D01*
D10*
X435016Y222014D02*
X440524Y222014D01*
X441626Y223115D01*
X441626Y225319D01*
X440524Y226420D01*
X435016Y226420D01*
X435016Y229498D02*
X435016Y233904D01*
X435016Y229498D02*
X438321Y229498D01*
X437220Y231701D01*
X437220Y232803D01*
X438321Y233904D01*
X440524Y233904D01*
X441626Y232803D01*
X441626Y230599D01*
X440524Y229498D01*
D11*
X5400Y381000D02*
X5406Y381491D01*
X5424Y381981D01*
X5454Y382471D01*
X5496Y382960D01*
X5550Y383448D01*
X5616Y383935D01*
X5694Y384419D01*
X5784Y384902D01*
X5886Y385382D01*
X5999Y385860D01*
X6124Y386334D01*
X6261Y386806D01*
X6409Y387274D01*
X6569Y387738D01*
X6740Y388198D01*
X6922Y388654D01*
X7116Y389105D01*
X7320Y389551D01*
X7536Y389992D01*
X7762Y390428D01*
X7998Y390858D01*
X8245Y391282D01*
X8503Y391700D01*
X8771Y392111D01*
X9048Y392516D01*
X9336Y392914D01*
X9633Y393305D01*
X9940Y393688D01*
X10256Y394063D01*
X10581Y394431D01*
X10915Y394791D01*
X11258Y395142D01*
X11609Y395485D01*
X11969Y395819D01*
X12337Y396144D01*
X12712Y396460D01*
X13095Y396767D01*
X13486Y397064D01*
X13884Y397352D01*
X14289Y397629D01*
X14700Y397897D01*
X15118Y398155D01*
X15542Y398402D01*
X15972Y398638D01*
X16408Y398864D01*
X16849Y399080D01*
X17295Y399284D01*
X17746Y399478D01*
X18202Y399660D01*
X18662Y399831D01*
X19126Y399991D01*
X19594Y400139D01*
X20066Y400276D01*
X20540Y400401D01*
X21018Y400514D01*
X21498Y400616D01*
X21981Y400706D01*
X22465Y400784D01*
X22952Y400850D01*
X23440Y400904D01*
X23929Y400946D01*
X24419Y400976D01*
X24909Y400994D01*
X25400Y401000D01*
X25891Y400994D01*
X26381Y400976D01*
X26871Y400946D01*
X27360Y400904D01*
X27848Y400850D01*
X28335Y400784D01*
X28819Y400706D01*
X29302Y400616D01*
X29782Y400514D01*
X30260Y400401D01*
X30734Y400276D01*
X31206Y400139D01*
X31674Y399991D01*
X32138Y399831D01*
X32598Y399660D01*
X33054Y399478D01*
X33505Y399284D01*
X33951Y399080D01*
X34392Y398864D01*
X34828Y398638D01*
X35258Y398402D01*
X35682Y398155D01*
X36100Y397897D01*
X36511Y397629D01*
X36916Y397352D01*
X37314Y397064D01*
X37705Y396767D01*
X38088Y396460D01*
X38463Y396144D01*
X38831Y395819D01*
X39191Y395485D01*
X39542Y395142D01*
X39885Y394791D01*
X40219Y394431D01*
X40544Y394063D01*
X40860Y393688D01*
X41167Y393305D01*
X41464Y392914D01*
X41752Y392516D01*
X42029Y392111D01*
X42297Y391700D01*
X42555Y391282D01*
X42802Y390858D01*
X43038Y390428D01*
X43264Y389992D01*
X43480Y389551D01*
X43684Y389105D01*
X43878Y388654D01*
X44060Y388198D01*
X44231Y387738D01*
X44391Y387274D01*
X44539Y386806D01*
X44676Y386334D01*
X44801Y385860D01*
X44914Y385382D01*
X45016Y384902D01*
X45106Y384419D01*
X45184Y383935D01*
X45250Y383448D01*
X45304Y382960D01*
X45346Y382471D01*
X45376Y381981D01*
X45394Y381491D01*
X45400Y381000D01*
X45394Y380509D01*
X45376Y380019D01*
X45346Y379529D01*
X45304Y379040D01*
X45250Y378552D01*
X45184Y378065D01*
X45106Y377581D01*
X45016Y377098D01*
X44914Y376618D01*
X44801Y376140D01*
X44676Y375666D01*
X44539Y375194D01*
X44391Y374726D01*
X44231Y374262D01*
X44060Y373802D01*
X43878Y373346D01*
X43684Y372895D01*
X43480Y372449D01*
X43264Y372008D01*
X43038Y371572D01*
X42802Y371142D01*
X42555Y370718D01*
X42297Y370300D01*
X42029Y369889D01*
X41752Y369484D01*
X41464Y369086D01*
X41167Y368695D01*
X40860Y368312D01*
X40544Y367937D01*
X40219Y367569D01*
X39885Y367209D01*
X39542Y366858D01*
X39191Y366515D01*
X38831Y366181D01*
X38463Y365856D01*
X38088Y365540D01*
X37705Y365233D01*
X37314Y364936D01*
X36916Y364648D01*
X36511Y364371D01*
X36100Y364103D01*
X35682Y363845D01*
X35258Y363598D01*
X34828Y363362D01*
X34392Y363136D01*
X33951Y362920D01*
X33505Y362716D01*
X33054Y362522D01*
X32598Y362340D01*
X32138Y362169D01*
X31674Y362009D01*
X31206Y361861D01*
X30734Y361724D01*
X30260Y361599D01*
X29782Y361486D01*
X29302Y361384D01*
X28819Y361294D01*
X28335Y361216D01*
X27848Y361150D01*
X27360Y361096D01*
X26871Y361054D01*
X26381Y361024D01*
X25891Y361006D01*
X25400Y361000D01*
X24909Y361006D01*
X24419Y361024D01*
X23929Y361054D01*
X23440Y361096D01*
X22952Y361150D01*
X22465Y361216D01*
X21981Y361294D01*
X21498Y361384D01*
X21018Y361486D01*
X20540Y361599D01*
X20066Y361724D01*
X19594Y361861D01*
X19126Y362009D01*
X18662Y362169D01*
X18202Y362340D01*
X17746Y362522D01*
X17295Y362716D01*
X16849Y362920D01*
X16408Y363136D01*
X15972Y363362D01*
X15542Y363598D01*
X15118Y363845D01*
X14700Y364103D01*
X14289Y364371D01*
X13884Y364648D01*
X13486Y364936D01*
X13095Y365233D01*
X12712Y365540D01*
X12337Y365856D01*
X11969Y366181D01*
X11609Y366515D01*
X11258Y366858D01*
X10915Y367209D01*
X10581Y367569D01*
X10256Y367937D01*
X9940Y368312D01*
X9633Y368695D01*
X9336Y369086D01*
X9048Y369484D01*
X8771Y369889D01*
X8503Y370300D01*
X8245Y370718D01*
X7998Y371142D01*
X7762Y371572D01*
X7536Y372008D01*
X7320Y372449D01*
X7116Y372895D01*
X6922Y373346D01*
X6740Y373802D01*
X6569Y374262D01*
X6409Y374726D01*
X6261Y375194D01*
X6124Y375666D01*
X5999Y376140D01*
X5886Y376618D01*
X5784Y377098D01*
X5694Y377581D01*
X5616Y378065D01*
X5550Y378552D01*
X5496Y379040D01*
X5454Y379529D01*
X5424Y380019D01*
X5406Y380509D01*
X5400Y381000D01*
X437200Y381000D02*
X437206Y381491D01*
X437224Y381981D01*
X437254Y382471D01*
X437296Y382960D01*
X437350Y383448D01*
X437416Y383935D01*
X437494Y384419D01*
X437584Y384902D01*
X437686Y385382D01*
X437799Y385860D01*
X437924Y386334D01*
X438061Y386806D01*
X438209Y387274D01*
X438369Y387738D01*
X438540Y388198D01*
X438722Y388654D01*
X438916Y389105D01*
X439120Y389551D01*
X439336Y389992D01*
X439562Y390428D01*
X439798Y390858D01*
X440045Y391282D01*
X440303Y391700D01*
X440571Y392111D01*
X440848Y392516D01*
X441136Y392914D01*
X441433Y393305D01*
X441740Y393688D01*
X442056Y394063D01*
X442381Y394431D01*
X442715Y394791D01*
X443058Y395142D01*
X443409Y395485D01*
X443769Y395819D01*
X444137Y396144D01*
X444512Y396460D01*
X444895Y396767D01*
X445286Y397064D01*
X445684Y397352D01*
X446089Y397629D01*
X446500Y397897D01*
X446918Y398155D01*
X447342Y398402D01*
X447772Y398638D01*
X448208Y398864D01*
X448649Y399080D01*
X449095Y399284D01*
X449546Y399478D01*
X450002Y399660D01*
X450462Y399831D01*
X450926Y399991D01*
X451394Y400139D01*
X451866Y400276D01*
X452340Y400401D01*
X452818Y400514D01*
X453298Y400616D01*
X453781Y400706D01*
X454265Y400784D01*
X454752Y400850D01*
X455240Y400904D01*
X455729Y400946D01*
X456219Y400976D01*
X456709Y400994D01*
X457200Y401000D01*
X457691Y400994D01*
X458181Y400976D01*
X458671Y400946D01*
X459160Y400904D01*
X459648Y400850D01*
X460135Y400784D01*
X460619Y400706D01*
X461102Y400616D01*
X461582Y400514D01*
X462060Y400401D01*
X462534Y400276D01*
X463006Y400139D01*
X463474Y399991D01*
X463938Y399831D01*
X464398Y399660D01*
X464854Y399478D01*
X465305Y399284D01*
X465751Y399080D01*
X466192Y398864D01*
X466628Y398638D01*
X467058Y398402D01*
X467482Y398155D01*
X467900Y397897D01*
X468311Y397629D01*
X468716Y397352D01*
X469114Y397064D01*
X469505Y396767D01*
X469888Y396460D01*
X470263Y396144D01*
X470631Y395819D01*
X470991Y395485D01*
X471342Y395142D01*
X471685Y394791D01*
X472019Y394431D01*
X472344Y394063D01*
X472660Y393688D01*
X472967Y393305D01*
X473264Y392914D01*
X473552Y392516D01*
X473829Y392111D01*
X474097Y391700D01*
X474355Y391282D01*
X474602Y390858D01*
X474838Y390428D01*
X475064Y389992D01*
X475280Y389551D01*
X475484Y389105D01*
X475678Y388654D01*
X475860Y388198D01*
X476031Y387738D01*
X476191Y387274D01*
X476339Y386806D01*
X476476Y386334D01*
X476601Y385860D01*
X476714Y385382D01*
X476816Y384902D01*
X476906Y384419D01*
X476984Y383935D01*
X477050Y383448D01*
X477104Y382960D01*
X477146Y382471D01*
X477176Y381981D01*
X477194Y381491D01*
X477200Y381000D01*
X477194Y380509D01*
X477176Y380019D01*
X477146Y379529D01*
X477104Y379040D01*
X477050Y378552D01*
X476984Y378065D01*
X476906Y377581D01*
X476816Y377098D01*
X476714Y376618D01*
X476601Y376140D01*
X476476Y375666D01*
X476339Y375194D01*
X476191Y374726D01*
X476031Y374262D01*
X475860Y373802D01*
X475678Y373346D01*
X475484Y372895D01*
X475280Y372449D01*
X475064Y372008D01*
X474838Y371572D01*
X474602Y371142D01*
X474355Y370718D01*
X474097Y370300D01*
X473829Y369889D01*
X473552Y369484D01*
X473264Y369086D01*
X472967Y368695D01*
X472660Y368312D01*
X472344Y367937D01*
X472019Y367569D01*
X471685Y367209D01*
X471342Y366858D01*
X470991Y366515D01*
X470631Y366181D01*
X470263Y365856D01*
X469888Y365540D01*
X469505Y365233D01*
X469114Y364936D01*
X468716Y364648D01*
X468311Y364371D01*
X467900Y364103D01*
X467482Y363845D01*
X467058Y363598D01*
X466628Y363362D01*
X466192Y363136D01*
X465751Y362920D01*
X465305Y362716D01*
X464854Y362522D01*
X464398Y362340D01*
X463938Y362169D01*
X463474Y362009D01*
X463006Y361861D01*
X462534Y361724D01*
X462060Y361599D01*
X461582Y361486D01*
X461102Y361384D01*
X460619Y361294D01*
X460135Y361216D01*
X459648Y361150D01*
X459160Y361096D01*
X458671Y361054D01*
X458181Y361024D01*
X457691Y361006D01*
X457200Y361000D01*
X456709Y361006D01*
X456219Y361024D01*
X455729Y361054D01*
X455240Y361096D01*
X454752Y361150D01*
X454265Y361216D01*
X453781Y361294D01*
X453298Y361384D01*
X452818Y361486D01*
X452340Y361599D01*
X451866Y361724D01*
X451394Y361861D01*
X450926Y362009D01*
X450462Y362169D01*
X450002Y362340D01*
X449546Y362522D01*
X449095Y362716D01*
X448649Y362920D01*
X448208Y363136D01*
X447772Y363362D01*
X447342Y363598D01*
X446918Y363845D01*
X446500Y364103D01*
X446089Y364371D01*
X445684Y364648D01*
X445286Y364936D01*
X444895Y365233D01*
X444512Y365540D01*
X444137Y365856D01*
X443769Y366181D01*
X443409Y366515D01*
X443058Y366858D01*
X442715Y367209D01*
X442381Y367569D01*
X442056Y367937D01*
X441740Y368312D01*
X441433Y368695D01*
X441136Y369086D01*
X440848Y369484D01*
X440571Y369889D01*
X440303Y370300D01*
X440045Y370718D01*
X439798Y371142D01*
X439562Y371572D01*
X439336Y372008D01*
X439120Y372449D01*
X438916Y372895D01*
X438722Y373346D01*
X438540Y373802D01*
X438369Y374262D01*
X438209Y374726D01*
X438061Y375194D01*
X437924Y375666D01*
X437799Y376140D01*
X437686Y376618D01*
X437584Y377098D01*
X437494Y377581D01*
X437416Y378065D01*
X437350Y378552D01*
X437296Y379040D01*
X437254Y379529D01*
X437224Y380019D01*
X437206Y380509D01*
X437200Y381000D01*
X437200Y25400D02*
X437206Y25891D01*
X437224Y26381D01*
X437254Y26871D01*
X437296Y27360D01*
X437350Y27848D01*
X437416Y28335D01*
X437494Y28819D01*
X437584Y29302D01*
X437686Y29782D01*
X437799Y30260D01*
X437924Y30734D01*
X438061Y31206D01*
X438209Y31674D01*
X438369Y32138D01*
X438540Y32598D01*
X438722Y33054D01*
X438916Y33505D01*
X439120Y33951D01*
X439336Y34392D01*
X439562Y34828D01*
X439798Y35258D01*
X440045Y35682D01*
X440303Y36100D01*
X440571Y36511D01*
X440848Y36916D01*
X441136Y37314D01*
X441433Y37705D01*
X441740Y38088D01*
X442056Y38463D01*
X442381Y38831D01*
X442715Y39191D01*
X443058Y39542D01*
X443409Y39885D01*
X443769Y40219D01*
X444137Y40544D01*
X444512Y40860D01*
X444895Y41167D01*
X445286Y41464D01*
X445684Y41752D01*
X446089Y42029D01*
X446500Y42297D01*
X446918Y42555D01*
X447342Y42802D01*
X447772Y43038D01*
X448208Y43264D01*
X448649Y43480D01*
X449095Y43684D01*
X449546Y43878D01*
X450002Y44060D01*
X450462Y44231D01*
X450926Y44391D01*
X451394Y44539D01*
X451866Y44676D01*
X452340Y44801D01*
X452818Y44914D01*
X453298Y45016D01*
X453781Y45106D01*
X454265Y45184D01*
X454752Y45250D01*
X455240Y45304D01*
X455729Y45346D01*
X456219Y45376D01*
X456709Y45394D01*
X457200Y45400D01*
X457691Y45394D01*
X458181Y45376D01*
X458671Y45346D01*
X459160Y45304D01*
X459648Y45250D01*
X460135Y45184D01*
X460619Y45106D01*
X461102Y45016D01*
X461582Y44914D01*
X462060Y44801D01*
X462534Y44676D01*
X463006Y44539D01*
X463474Y44391D01*
X463938Y44231D01*
X464398Y44060D01*
X464854Y43878D01*
X465305Y43684D01*
X465751Y43480D01*
X466192Y43264D01*
X466628Y43038D01*
X467058Y42802D01*
X467482Y42555D01*
X467900Y42297D01*
X468311Y42029D01*
X468716Y41752D01*
X469114Y41464D01*
X469505Y41167D01*
X469888Y40860D01*
X470263Y40544D01*
X470631Y40219D01*
X470991Y39885D01*
X471342Y39542D01*
X471685Y39191D01*
X472019Y38831D01*
X472344Y38463D01*
X472660Y38088D01*
X472967Y37705D01*
X473264Y37314D01*
X473552Y36916D01*
X473829Y36511D01*
X474097Y36100D01*
X474355Y35682D01*
X474602Y35258D01*
X474838Y34828D01*
X475064Y34392D01*
X475280Y33951D01*
X475484Y33505D01*
X475678Y33054D01*
X475860Y32598D01*
X476031Y32138D01*
X476191Y31674D01*
X476339Y31206D01*
X476476Y30734D01*
X476601Y30260D01*
X476714Y29782D01*
X476816Y29302D01*
X476906Y28819D01*
X476984Y28335D01*
X477050Y27848D01*
X477104Y27360D01*
X477146Y26871D01*
X477176Y26381D01*
X477194Y25891D01*
X477200Y25400D01*
X477194Y24909D01*
X477176Y24419D01*
X477146Y23929D01*
X477104Y23440D01*
X477050Y22952D01*
X476984Y22465D01*
X476906Y21981D01*
X476816Y21498D01*
X476714Y21018D01*
X476601Y20540D01*
X476476Y20066D01*
X476339Y19594D01*
X476191Y19126D01*
X476031Y18662D01*
X475860Y18202D01*
X475678Y17746D01*
X475484Y17295D01*
X475280Y16849D01*
X475064Y16408D01*
X474838Y15972D01*
X474602Y15542D01*
X474355Y15118D01*
X474097Y14700D01*
X473829Y14289D01*
X473552Y13884D01*
X473264Y13486D01*
X472967Y13095D01*
X472660Y12712D01*
X472344Y12337D01*
X472019Y11969D01*
X471685Y11609D01*
X471342Y11258D01*
X470991Y10915D01*
X470631Y10581D01*
X470263Y10256D01*
X469888Y9940D01*
X469505Y9633D01*
X469114Y9336D01*
X468716Y9048D01*
X468311Y8771D01*
X467900Y8503D01*
X467482Y8245D01*
X467058Y7998D01*
X466628Y7762D01*
X466192Y7536D01*
X465751Y7320D01*
X465305Y7116D01*
X464854Y6922D01*
X464398Y6740D01*
X463938Y6569D01*
X463474Y6409D01*
X463006Y6261D01*
X462534Y6124D01*
X462060Y5999D01*
X461582Y5886D01*
X461102Y5784D01*
X460619Y5694D01*
X460135Y5616D01*
X459648Y5550D01*
X459160Y5496D01*
X458671Y5454D01*
X458181Y5424D01*
X457691Y5406D01*
X457200Y5400D01*
X456709Y5406D01*
X456219Y5424D01*
X455729Y5454D01*
X455240Y5496D01*
X454752Y5550D01*
X454265Y5616D01*
X453781Y5694D01*
X453298Y5784D01*
X452818Y5886D01*
X452340Y5999D01*
X451866Y6124D01*
X451394Y6261D01*
X450926Y6409D01*
X450462Y6569D01*
X450002Y6740D01*
X449546Y6922D01*
X449095Y7116D01*
X448649Y7320D01*
X448208Y7536D01*
X447772Y7762D01*
X447342Y7998D01*
X446918Y8245D01*
X446500Y8503D01*
X446089Y8771D01*
X445684Y9048D01*
X445286Y9336D01*
X444895Y9633D01*
X444512Y9940D01*
X444137Y10256D01*
X443769Y10581D01*
X443409Y10915D01*
X443058Y11258D01*
X442715Y11609D01*
X442381Y11969D01*
X442056Y12337D01*
X441740Y12712D01*
X441433Y13095D01*
X441136Y13486D01*
X440848Y13884D01*
X440571Y14289D01*
X440303Y14700D01*
X440045Y15118D01*
X439798Y15542D01*
X439562Y15972D01*
X439336Y16408D01*
X439120Y16849D01*
X438916Y17295D01*
X438722Y17746D01*
X438540Y18202D01*
X438369Y18662D01*
X438209Y19126D01*
X438061Y19594D01*
X437924Y20066D01*
X437799Y20540D01*
X437686Y21018D01*
X437584Y21498D01*
X437494Y21981D01*
X437416Y22465D01*
X437350Y22952D01*
X437296Y23440D01*
X437254Y23929D01*
X437224Y24419D01*
X437206Y24909D01*
X437200Y25400D01*
X5400Y25400D02*
X5406Y25891D01*
X5424Y26381D01*
X5454Y26871D01*
X5496Y27360D01*
X5550Y27848D01*
X5616Y28335D01*
X5694Y28819D01*
X5784Y29302D01*
X5886Y29782D01*
X5999Y30260D01*
X6124Y30734D01*
X6261Y31206D01*
X6409Y31674D01*
X6569Y32138D01*
X6740Y32598D01*
X6922Y33054D01*
X7116Y33505D01*
X7320Y33951D01*
X7536Y34392D01*
X7762Y34828D01*
X7998Y35258D01*
X8245Y35682D01*
X8503Y36100D01*
X8771Y36511D01*
X9048Y36916D01*
X9336Y37314D01*
X9633Y37705D01*
X9940Y38088D01*
X10256Y38463D01*
X10581Y38831D01*
X10915Y39191D01*
X11258Y39542D01*
X11609Y39885D01*
X11969Y40219D01*
X12337Y40544D01*
X12712Y40860D01*
X13095Y41167D01*
X13486Y41464D01*
X13884Y41752D01*
X14289Y42029D01*
X14700Y42297D01*
X15118Y42555D01*
X15542Y42802D01*
X15972Y43038D01*
X16408Y43264D01*
X16849Y43480D01*
X17295Y43684D01*
X17746Y43878D01*
X18202Y44060D01*
X18662Y44231D01*
X19126Y44391D01*
X19594Y44539D01*
X20066Y44676D01*
X20540Y44801D01*
X21018Y44914D01*
X21498Y45016D01*
X21981Y45106D01*
X22465Y45184D01*
X22952Y45250D01*
X23440Y45304D01*
X23929Y45346D01*
X24419Y45376D01*
X24909Y45394D01*
X25400Y45400D01*
X25891Y45394D01*
X26381Y45376D01*
X26871Y45346D01*
X27360Y45304D01*
X27848Y45250D01*
X28335Y45184D01*
X28819Y45106D01*
X29302Y45016D01*
X29782Y44914D01*
X30260Y44801D01*
X30734Y44676D01*
X31206Y44539D01*
X31674Y44391D01*
X32138Y44231D01*
X32598Y44060D01*
X33054Y43878D01*
X33505Y43684D01*
X33951Y43480D01*
X34392Y43264D01*
X34828Y43038D01*
X35258Y42802D01*
X35682Y42555D01*
X36100Y42297D01*
X36511Y42029D01*
X36916Y41752D01*
X37314Y41464D01*
X37705Y41167D01*
X38088Y40860D01*
X38463Y40544D01*
X38831Y40219D01*
X39191Y39885D01*
X39542Y39542D01*
X39885Y39191D01*
X40219Y38831D01*
X40544Y38463D01*
X40860Y38088D01*
X41167Y37705D01*
X41464Y37314D01*
X41752Y36916D01*
X42029Y36511D01*
X42297Y36100D01*
X42555Y35682D01*
X42802Y35258D01*
X43038Y34828D01*
X43264Y34392D01*
X43480Y33951D01*
X43684Y33505D01*
X43878Y33054D01*
X44060Y32598D01*
X44231Y32138D01*
X44391Y31674D01*
X44539Y31206D01*
X44676Y30734D01*
X44801Y30260D01*
X44914Y29782D01*
X45016Y29302D01*
X45106Y28819D01*
X45184Y28335D01*
X45250Y27848D01*
X45304Y27360D01*
X45346Y26871D01*
X45376Y26381D01*
X45394Y25891D01*
X45400Y25400D01*
X45394Y24909D01*
X45376Y24419D01*
X45346Y23929D01*
X45304Y23440D01*
X45250Y22952D01*
X45184Y22465D01*
X45106Y21981D01*
X45016Y21498D01*
X44914Y21018D01*
X44801Y20540D01*
X44676Y20066D01*
X44539Y19594D01*
X44391Y19126D01*
X44231Y18662D01*
X44060Y18202D01*
X43878Y17746D01*
X43684Y17295D01*
X43480Y16849D01*
X43264Y16408D01*
X43038Y15972D01*
X42802Y15542D01*
X42555Y15118D01*
X42297Y14700D01*
X42029Y14289D01*
X41752Y13884D01*
X41464Y13486D01*
X41167Y13095D01*
X40860Y12712D01*
X40544Y12337D01*
X40219Y11969D01*
X39885Y11609D01*
X39542Y11258D01*
X39191Y10915D01*
X38831Y10581D01*
X38463Y10256D01*
X38088Y9940D01*
X37705Y9633D01*
X37314Y9336D01*
X36916Y9048D01*
X36511Y8771D01*
X36100Y8503D01*
X35682Y8245D01*
X35258Y7998D01*
X34828Y7762D01*
X34392Y7536D01*
X33951Y7320D01*
X33505Y7116D01*
X33054Y6922D01*
X32598Y6740D01*
X32138Y6569D01*
X31674Y6409D01*
X31206Y6261D01*
X30734Y6124D01*
X30260Y5999D01*
X29782Y5886D01*
X29302Y5784D01*
X28819Y5694D01*
X28335Y5616D01*
X27848Y5550D01*
X27360Y5496D01*
X26871Y5454D01*
X26381Y5424D01*
X25891Y5406D01*
X25400Y5400D01*
X24909Y5406D01*
X24419Y5424D01*
X23929Y5454D01*
X23440Y5496D01*
X22952Y5550D01*
X22465Y5616D01*
X21981Y5694D01*
X21498Y5784D01*
X21018Y5886D01*
X20540Y5999D01*
X20066Y6124D01*
X19594Y6261D01*
X19126Y6409D01*
X18662Y6569D01*
X18202Y6740D01*
X17746Y6922D01*
X17295Y7116D01*
X16849Y7320D01*
X16408Y7536D01*
X15972Y7762D01*
X15542Y7998D01*
X15118Y8245D01*
X14700Y8503D01*
X14289Y8771D01*
X13884Y9048D01*
X13486Y9336D01*
X13095Y9633D01*
X12712Y9940D01*
X12337Y10256D01*
X11969Y10581D01*
X11609Y10915D01*
X11258Y11258D01*
X10915Y11609D01*
X10581Y11969D01*
X10256Y12337D01*
X9940Y12712D01*
X9633Y13095D01*
X9336Y13486D01*
X9048Y13884D01*
X8771Y14289D01*
X8503Y14700D01*
X8245Y15118D01*
X7998Y15542D01*
X7762Y15972D01*
X7536Y16408D01*
X7320Y16849D01*
X7116Y17295D01*
X6922Y17746D01*
X6740Y18202D01*
X6569Y18662D01*
X6409Y19126D01*
X6261Y19594D01*
X6124Y20066D01*
X5999Y20540D01*
X5886Y21018D01*
X5784Y21498D01*
X5694Y21981D01*
X5616Y22465D01*
X5550Y22952D01*
X5496Y23440D01*
X5454Y23929D01*
X5424Y24419D01*
X5406Y24909D01*
X5400Y25400D01*
D14*
X384730Y104140D02*
X394890Y104140D01*
D10*
X390318Y125222D02*
X383708Y125222D01*
X383708Y128527D01*
X384810Y129628D01*
X387013Y129628D01*
X388115Y128527D01*
X388115Y125222D01*
X388115Y127425D02*
X390318Y129628D01*
X385912Y132706D02*
X383708Y134909D01*
X390318Y134909D01*
X390318Y132706D02*
X390318Y137113D01*
X390318Y140190D02*
X390318Y144597D01*
X385912Y144597D02*
X390318Y140190D01*
X385912Y144597D02*
X384810Y144597D01*
X383708Y143495D01*
X383708Y141292D01*
X384810Y140190D01*
D20*
X464348Y307620D03*
D21*
X464348Y307696D03*
D22*
X464310Y307773D03*
D23*
X464310Y307849D03*
D24*
X464348Y307925D03*
D25*
X464310Y308001D03*
D26*
X464310Y308077D03*
D27*
X464310Y308154D03*
D28*
X464310Y308230D03*
D29*
X464233Y308306D03*
D30*
X464234Y308382D03*
D31*
X464196Y308458D03*
D32*
X464158Y308535D03*
D33*
X464157Y308611D03*
D34*
X464081Y308687D03*
D35*
X464043Y308763D03*
D36*
X464043Y308839D03*
D37*
X463967Y308916D03*
D38*
X463929Y308992D03*
D39*
X463853Y309068D03*
D40*
X463814Y309144D03*
D41*
X463814Y309220D03*
D42*
X463738Y309297D03*
D43*
X463700Y309373D03*
D44*
X463662Y309449D03*
D45*
X463586Y309525D03*
D46*
X463548Y309601D03*
D47*
X463510Y309678D03*
D48*
X463433Y309754D03*
D49*
X463395Y309830D03*
D50*
X463319Y309906D03*
D51*
X463281Y309982D03*
D52*
X463243Y310059D03*
D53*
X463167Y310135D03*
D54*
X463129Y310211D03*
D55*
X463090Y310287D03*
D56*
X463014Y310363D03*
D57*
X462976Y310440D03*
D58*
X462938Y310516D03*
D59*
X462862Y310592D03*
D60*
X462824Y310668D03*
D61*
X462748Y310744D03*
D62*
X462709Y310821D03*
D63*
X462671Y310897D03*
D64*
X462595Y310973D03*
D65*
X462557Y311049D03*
D66*
X462519Y311125D03*
D67*
X462443Y311202D03*
D68*
X462405Y311278D03*
D69*
X462367Y311354D03*
D70*
X462290Y311430D03*
D71*
X462252Y311506D03*
D72*
X462176Y311583D03*
D73*
X462138Y311659D03*
D74*
X462100Y311735D03*
D75*
X462024Y311811D03*
D76*
X461986Y311887D03*
D77*
X461947Y311964D03*
D78*
X436421Y312040D03*
D79*
X461871Y312040D03*
D80*
X436459Y312116D03*
D81*
X461833Y312116D03*
D82*
X436535Y312192D03*
D83*
X461757Y312192D03*
D84*
X436611Y312268D03*
D85*
X461719Y312268D03*
D86*
X436649Y312345D03*
D87*
X461681Y312345D03*
D88*
X436725Y312421D03*
D89*
X461605Y312421D03*
D30*
X436802Y312497D03*
D90*
X461566Y312497D03*
D91*
X436878Y312573D03*
D92*
X461528Y312573D03*
D34*
X436954Y312649D03*
D93*
X461452Y312649D03*
D94*
X437030Y312726D03*
D95*
X461414Y312726D03*
D96*
X437145Y312802D03*
D97*
X461376Y312802D03*
D98*
X437221Y312878D03*
D99*
X461300Y312878D03*
D44*
X437297Y312954D03*
D100*
X461262Y312954D03*
D101*
X437411Y313030D03*
D102*
X461185Y313030D03*
D103*
X437487Y313107D03*
D104*
X461147Y313107D03*
D51*
X437602Y313183D03*
D105*
X461109Y313183D03*
D106*
X437716Y313259D03*
D107*
X461033Y313259D03*
D108*
X437830Y313335D03*
D109*
X460995Y313335D03*
D110*
X437907Y313411D03*
D111*
X460957Y313411D03*
D112*
X438021Y313488D03*
D113*
X460881Y313488D03*
D63*
X438135Y313564D03*
D114*
X460843Y313564D03*
D115*
X438250Y313640D03*
D116*
X460804Y313640D03*
D117*
X438364Y313716D03*
D118*
X460766Y313716D03*
D119*
X438478Y313792D03*
D120*
X460690Y313792D03*
D121*
X438592Y313869D03*
D122*
X460652Y313869D03*
D74*
X438707Y313945D03*
D123*
X460614Y313945D03*
D124*
X438821Y314021D03*
D125*
X460576Y314021D03*
D126*
X438973Y314097D03*
D127*
X460538Y314097D03*
D128*
X439088Y314173D03*
D129*
X460500Y314173D03*
D87*
X439202Y314250D03*
D130*
X460462Y314250D03*
D92*
X439354Y314326D03*
D131*
X460423Y314326D03*
D132*
X439469Y314402D03*
D133*
X460385Y314402D03*
D134*
X439621Y314478D03*
D135*
X460347Y314478D03*
D136*
X439735Y314554D03*
D137*
X460309Y314554D03*
D138*
X439850Y314631D03*
D139*
X460271Y314631D03*
D140*
X440002Y314707D03*
D141*
X460233Y314707D03*
D142*
X440116Y314783D03*
D143*
X460195Y314783D03*
D116*
X440230Y314859D03*
D144*
X460157Y314859D03*
D145*
X440383Y314935D03*
D146*
X460119Y314935D03*
D147*
X440498Y315012D03*
D148*
X460081Y315012D03*
D127*
X440574Y315088D03*
D149*
X460081Y315088D03*
D131*
X440688Y315164D03*
D150*
X460042Y315164D03*
D133*
X440802Y315240D03*
D151*
X460004Y315240D03*
D137*
X440878Y315316D03*
D152*
X459966Y315316D03*
D153*
X440993Y315393D03*
D154*
X459928Y315393D03*
D144*
X441107Y315469D03*
D155*
X459928Y315469D03*
D156*
X441183Y315545D03*
D157*
X459890Y315545D03*
D151*
X441259Y315621D03*
D158*
X459852Y315621D03*
D151*
X441335Y315697D03*
D159*
X459814Y315697D03*
D160*
X441412Y315774D03*
D161*
X459814Y315774D03*
D158*
X441488Y315850D03*
D162*
X459776Y315850D03*
D163*
X441602Y315926D03*
D164*
X459738Y315926D03*
D165*
X441640Y316002D03*
D166*
X459700Y316002D03*
D167*
X441716Y316078D03*
D166*
X459700Y316078D03*
D168*
X441831Y316155D03*
X459661Y316155D03*
D169*
X441869Y316231D03*
X459623Y316231D03*
D170*
X441945Y316307D03*
D169*
X459623Y316307D03*
D170*
X442021Y316383D03*
D171*
X459585Y316383D03*
D172*
X442060Y316459D03*
D171*
X459585Y316459D03*
D173*
X442136Y316536D03*
D174*
X459547Y316536D03*
D175*
X442212Y316612D03*
D176*
X459509Y316612D03*
D177*
X442250Y316688D03*
D176*
X459509Y316688D03*
D178*
X442326Y316764D03*
D179*
X459471Y316764D03*
D178*
X442402Y316840D03*
D179*
X459471Y316840D03*
D180*
X442440Y316917D03*
D173*
X459433Y316917D03*
D181*
X442478Y316993D03*
D175*
X459433Y316993D03*
D182*
X442555Y317069D03*
D177*
X459395Y317069D03*
D183*
X442593Y317145D03*
D177*
X459395Y317145D03*
D184*
X442631Y317221D03*
D185*
X459357Y317221D03*
D186*
X442707Y317298D03*
D187*
X459357Y317298D03*
D188*
X442745Y317374D03*
D185*
X459357Y317374D03*
D189*
X442784Y317450D03*
D190*
X459319Y317450D03*
D189*
X442860Y317526D03*
D190*
X459319Y317526D03*
D191*
X442898Y317602D03*
D192*
X459280Y317602D03*
D193*
X442936Y317679D03*
D180*
X459280Y317679D03*
D194*
X443012Y317755D03*
D192*
X459280Y317755D03*
D195*
X443050Y317831D03*
D181*
X459242Y317831D03*
D196*
X443088Y317907D03*
D181*
X459242Y317907D03*
D196*
X443164Y317983D03*
D197*
X459204Y317983D03*
D198*
X443202Y318060D03*
D199*
X459204Y318060D03*
D200*
X443202Y318136D03*
D197*
X459204Y318136D03*
D200*
X443278Y318212D03*
D197*
X459204Y318212D03*
D201*
X443317Y318288D03*
D202*
X459166Y318288D03*
D203*
X443355Y318364D03*
D202*
X459166Y318364D03*
D204*
X443393Y318441D03*
D186*
X459166Y318441D03*
D205*
X443431Y318517D03*
D188*
X459128Y318517D03*
D206*
X443469Y318593D03*
D188*
X459128Y318593D03*
D205*
X443507Y318669D03*
D188*
X459128Y318669D03*
D206*
X443545Y318745D03*
D188*
X459128Y318745D03*
D207*
X443545Y318822D03*
D208*
X459090Y318822D03*
D209*
X443622Y318898D03*
D210*
X459052Y318898D03*
D211*
X443660Y318974D03*
D210*
X459052Y318974D03*
D211*
X443660Y319050D03*
D210*
X459052Y319050D03*
D211*
X443736Y319126D03*
D210*
X459052Y319126D03*
D212*
X443736Y319203D03*
D213*
X459052Y319203D03*
D214*
X443774Y319279D03*
D189*
X459014Y319279D03*
D211*
X443812Y319355D03*
D189*
X459014Y319355D03*
D214*
X443850Y319431D03*
D189*
X459014Y319431D03*
D214*
X443850Y319507D03*
D189*
X459014Y319507D03*
D215*
X443927Y319584D03*
D208*
X459014Y319584D03*
D214*
X443927Y319660D03*
D189*
X459014Y319660D03*
D214*
X443927Y319736D03*
D189*
X459014Y319736D03*
D214*
X444003Y319812D03*
D210*
X458976Y319812D03*
D214*
X444003Y319888D03*
D210*
X458976Y319888D03*
D216*
X444041Y319965D03*
D213*
X458976Y319965D03*
D214*
X444079Y320041D03*
D210*
X458976Y320041D03*
D214*
X444079Y320117D03*
D210*
X458976Y320117D03*
D217*
X444117Y320193D03*
D210*
X458976Y320193D03*
D214*
X444155Y320269D03*
D210*
X458976Y320269D03*
D215*
X444155Y320346D03*
D218*
X458938Y320346D03*
D217*
X444193Y320422D03*
D184*
X458938Y320422D03*
D214*
X444231Y320498D03*
D184*
X458938Y320498D03*
D214*
X444231Y320574D03*
D184*
X458938Y320574D03*
D214*
X444231Y320650D03*
D184*
X458938Y320650D03*
D219*
X444269Y320727D03*
D220*
X458900Y320727D03*
D214*
X444308Y320803D03*
D183*
X458900Y320803D03*
D214*
X444308Y320879D03*
D183*
X458900Y320879D03*
D217*
X444346Y320955D03*
D183*
X458900Y320955D03*
D214*
X444384Y321031D03*
D181*
X458861Y321031D03*
D215*
X444384Y321108D03*
D221*
X458861Y321108D03*
D217*
X444422Y321184D03*
D181*
X458861Y321184D03*
D214*
X444460Y321260D03*
D181*
X458861Y321260D03*
D214*
X444460Y321336D03*
D192*
X458823Y321336D03*
D214*
X444460Y321412D03*
D192*
X458823Y321412D03*
D222*
X451394Y321489D03*
D223*
X451394Y321565D03*
D224*
X451356Y321641D03*
D225*
X451394Y321717D03*
X451394Y321793D03*
D226*
X451356Y321870D03*
D227*
X451394Y321946D03*
X451394Y322022D03*
D228*
X451356Y322098D03*
D229*
X451394Y322174D03*
D230*
X451394Y322251D03*
D231*
X451356Y322327D03*
D232*
X451394Y322403D03*
D233*
X447241Y322479D03*
D70*
X461452Y322479D03*
D234*
X447127Y322555D03*
D235*
X461528Y322555D03*
D236*
X447127Y322632D03*
D237*
X461567Y322632D03*
D238*
X447050Y322708D03*
D239*
X461567Y322708D03*
D240*
X447012Y322784D03*
D239*
X461567Y322784D03*
D241*
X446974Y322860D03*
D115*
X461567Y322860D03*
D242*
X446936Y322936D03*
D115*
X461567Y322936D03*
D243*
X446898Y323013D03*
D244*
X461529Y323013D03*
D245*
X446898Y323089D03*
D246*
X461567Y323089D03*
D247*
X446860Y323165D03*
D63*
X461528Y323165D03*
D248*
X446822Y323241D03*
D63*
X461528Y323241D03*
D249*
X446822Y323317D03*
D250*
X461490Y323317D03*
D251*
X446784Y323394D03*
D62*
X461490Y323394D03*
D252*
X446746Y323470D03*
D253*
X461452Y323470D03*
D254*
X446746Y323546D03*
D253*
X461452Y323546D03*
D254*
X446746Y323622D03*
D255*
X461414Y323622D03*
D256*
X446746Y323698D03*
D255*
X461414Y323698D03*
D257*
X446708Y323775D03*
D258*
X461376Y323775D03*
D259*
X446669Y323851D03*
D59*
X461338Y323851D03*
D260*
X446707Y323927D03*
D59*
X461338Y323927D03*
D261*
X442631Y324003D03*
D262*
X451432Y324003D03*
D110*
X461300Y324003D03*
D263*
X442517Y324079D03*
D117*
X451623Y324079D03*
D110*
X461224Y324079D03*
D264*
X442441Y324156D03*
D265*
X451737Y324156D03*
D266*
X461224Y324156D03*
D128*
X442441Y324232D03*
D63*
X451775Y324232D03*
D267*
X461186Y324232D03*
D128*
X442441Y324308D03*
D255*
X451813Y324308D03*
D268*
X461148Y324308D03*
D79*
X442440Y324384D03*
D269*
X451889Y324384D03*
D56*
X461109Y324384D03*
D79*
X442440Y324460D03*
D270*
X451927Y324460D03*
D56*
X461109Y324460D03*
D271*
X442478Y324537D03*
D272*
X452003Y324537D03*
D273*
X461033Y324537D03*
D126*
X442478Y324613D03*
D274*
X452003Y324613D03*
D108*
X460995Y324613D03*
D275*
X442516Y324689D03*
D276*
X452080Y324689D03*
D55*
X460957Y324689D03*
D275*
X442516Y324765D03*
D51*
X452080Y324765D03*
D274*
X460919Y324765D03*
D76*
X442555Y324841D03*
D277*
X452118Y324841D03*
D54*
X460843Y324841D03*
D278*
X442555Y324918D03*
D279*
X452156Y324918D03*
D280*
X460805Y324918D03*
D75*
X442593Y324994D03*
D281*
X452156Y324994D03*
D276*
X460767Y324994D03*
D75*
X442593Y325070D03*
D101*
X452194Y325070D03*
D282*
X460690Y325070D03*
D283*
X442631Y325146D03*
D44*
X452232Y325146D03*
D284*
X460652Y325146D03*
D285*
X442707Y325222D03*
D43*
X452270Y325222D03*
D51*
X460614Y325222D03*
D286*
X442707Y325299D03*
D42*
X452308Y325299D03*
D287*
X460538Y325299D03*
D288*
X442745Y325375D03*
D41*
X452308Y325375D03*
D289*
X460500Y325375D03*
D285*
X442783Y325451D03*
D290*
X452346Y325451D03*
D289*
X460424Y325451D03*
D74*
X442822Y325527D03*
D291*
X452346Y325527D03*
D292*
X460386Y325527D03*
D73*
X442860Y325603D03*
D96*
X452385Y325603D03*
D48*
X460309Y325603D03*
D293*
X442898Y325680D03*
D37*
X452385Y325680D03*
D279*
X460233Y325680D03*
D73*
X442936Y325756D03*
D294*
X452423Y325756D03*
D295*
X460195Y325756D03*
D296*
X465148Y325756D03*
D73*
X443012Y325832D03*
D297*
X452461Y325832D03*
D298*
X460081Y325832D03*
D84*
X465186Y325832D03*
D73*
X443012Y325908D03*
D299*
X452461Y325908D03*
D46*
X460043Y325908D03*
D300*
X465186Y325908D03*
D73*
X443088Y325984D03*
D34*
X452499Y325984D03*
D101*
X459966Y325984D03*
D33*
X465224Y325984D03*
D72*
X443126Y326061D03*
D301*
X452537Y326061D03*
D302*
X459890Y326061D03*
D303*
X465224Y326061D03*
D262*
X443203Y326137D03*
D304*
X452537Y326137D03*
D305*
X459814Y326137D03*
D306*
X465224Y326137D03*
D73*
X443241Y326213D03*
D304*
X452537Y326213D03*
D307*
X459738Y326213D03*
D101*
X465224Y326213D03*
D262*
X443279Y326289D03*
D91*
X452575Y326289D03*
D307*
X459662Y326289D03*
D50*
X465224Y326289D03*
D262*
X443355Y326365D03*
D308*
X452575Y326365D03*
D306*
X459585Y326365D03*
D274*
X465262Y326365D03*
D309*
X443431Y326442D03*
D310*
X452613Y326442D03*
D311*
X459509Y326442D03*
D312*
X465224Y326442D03*
D313*
X443469Y326518D03*
D314*
X452651Y326518D03*
D290*
X459433Y326518D03*
D250*
X465224Y326518D03*
D315*
X443507Y326594D03*
D314*
X452651Y326594D03*
D316*
X462938Y326594D03*
D262*
X443584Y326670D03*
D29*
X452651Y326670D03*
D317*
X462976Y326670D03*
D318*
X443622Y326746D03*
D300*
X452689Y326746D03*
D156*
X463052Y326746D03*
D319*
X443698Y326823D03*
D320*
X452689Y326823D03*
D160*
X463129Y326823D03*
D318*
X443774Y326899D03*
D88*
X452727Y326899D03*
D321*
X463167Y326899D03*
D313*
X443850Y326975D03*
D322*
X452766Y326975D03*
D162*
X463205Y326975D03*
D313*
X443926Y327051D03*
D322*
X452766Y327051D03*
D323*
X463243Y327051D03*
D71*
X443964Y327127D03*
D324*
X452766Y327127D03*
D171*
X463319Y327127D03*
D325*
X444041Y327204D03*
D326*
X452766Y327204D03*
D327*
X463358Y327204D03*
D328*
X444117Y327280D03*
D26*
X452804Y327280D03*
D329*
X463357Y327280D03*
D71*
X444193Y327356D03*
D26*
X452804Y327356D03*
D192*
X463395Y327356D03*
D71*
X444269Y327432D03*
D330*
X452842Y327432D03*
D183*
X463472Y327432D03*
D71*
X444345Y327508D03*
D330*
X452842Y327508D03*
D210*
X463472Y327508D03*
D325*
X444422Y327585D03*
D331*
X452880Y327585D03*
D193*
X463510Y327585D03*
D70*
X444536Y327661D03*
D332*
X452880Y327661D03*
D333*
X463510Y327661D03*
D70*
X444612Y327737D03*
D334*
X452918Y327737D03*
D201*
X463510Y327737D03*
D70*
X444688Y327813D03*
D334*
X452918Y327813D03*
D211*
X463548Y327813D03*
D70*
X444764Y327889D03*
D25*
X452956Y327889D03*
D217*
X463548Y327889D03*
D335*
X444879Y327966D03*
D336*
X452994Y327966D03*
D337*
X463548Y327966D03*
D119*
X444955Y328042D03*
D334*
X452994Y328042D03*
D338*
X463586Y328042D03*
D119*
X445107Y328118D03*
D334*
X452994Y328118D03*
D339*
X463586Y328118D03*
D119*
X445183Y328194D03*
D25*
X453032Y328194D03*
D340*
X463624Y328194D03*
D235*
X445298Y328270D03*
D334*
X453070Y328270D03*
D341*
X463624Y328270D03*
D342*
X445412Y328347D03*
D336*
X453070Y328347D03*
D343*
X463586Y328347D03*
D68*
X445565Y328423D03*
D344*
X453108Y328423D03*
D345*
X463624Y328423D03*
D68*
X445641Y328499D03*
D330*
X453147Y328499D03*
D346*
X463586Y328499D03*
D347*
X445831Y328575D03*
D324*
X453223Y328575D03*
D348*
X463586Y328575D03*
D239*
X445946Y328651D03*
D349*
X461986Y328651D03*
D350*
X446098Y328728D03*
D351*
X462024Y328728D03*
D66*
X446289Y328804D03*
D352*
X462062Y328804D03*
D115*
X446479Y328880D03*
D353*
X462100Y328880D03*
D354*
X446670Y328956D03*
D355*
X462100Y328956D03*
D356*
X446860Y329032D03*
D357*
X462138Y329032D03*
D358*
X447127Y329109D03*
D359*
X462138Y329109D03*
D63*
X447355Y329185D03*
D360*
X462138Y329185D03*
D361*
X442898Y329261D03*
D362*
X458557Y329261D03*
D363*
X457375Y329337D03*
D364*
X457261Y329413D03*
D365*
X457147Y329490D03*
D366*
X457109Y329566D03*
D367*
X457033Y329642D03*
D368*
X456957Y329718D03*
D369*
X456918Y329794D03*
D370*
X456880Y329871D03*
D371*
X456880Y329947D03*
D372*
X456842Y330023D03*
D373*
X456804Y330099D03*
D374*
X456804Y330175D03*
D375*
X448384Y330252D03*
D376*
X466596Y330252D03*
D254*
X448041Y330328D03*
D214*
X466939Y330328D03*
D377*
X447851Y330404D03*
D205*
X467205Y330404D03*
D378*
X447698Y330480D03*
D196*
X467396Y330480D03*
D377*
X447546Y330556D03*
D194*
X467625Y330556D03*
D379*
X447431Y330633D03*
D208*
X467777Y330633D03*
D259*
X447279Y330709D03*
D202*
X467929Y330709D03*
D259*
X447203Y330785D03*
D184*
X468082Y330785D03*
D380*
X447127Y330861D03*
D197*
X468196Y330861D03*
D256*
X447051Y330937D03*
D181*
X468386Y330937D03*
D381*
X446974Y331014D03*
D382*
X468463Y331014D03*
D383*
X446936Y331090D03*
D192*
X468577Y331090D03*
D254*
X446898Y331166D03*
D192*
X468729Y331166D03*
D252*
X446822Y331242D03*
D192*
X468805Y331242D03*
D384*
X446784Y331318D03*
D178*
X468920Y331318D03*
D385*
X446746Y331395D03*
D180*
X469034Y331395D03*
D150*
X443659Y331471D03*
D298*
X453223Y331471D03*
D192*
X469110Y331471D03*
D141*
X443393Y331547D03*
D386*
X453413Y331547D03*
D182*
X469225Y331547D03*
D135*
X443202Y331623D03*
D307*
X453490Y331623D03*
D181*
X469301Y331623D03*
D387*
X443012Y331699D03*
D307*
X453566Y331699D03*
D197*
X469339Y331699D03*
D388*
X442898Y331776D03*
D389*
X453642Y331776D03*
D186*
X469453Y331776D03*
D390*
X442707Y331852D03*
D44*
X453680Y331852D03*
D184*
X469530Y331852D03*
D125*
X442593Y331928D03*
D44*
X453756Y331928D03*
D189*
X469606Y331928D03*
D391*
X442441Y332004D03*
D386*
X453794Y332004D03*
D191*
X469644Y332004D03*
D145*
X442364Y332080D03*
D392*
X453832Y332080D03*
D194*
X469682Y332080D03*
D393*
X442250Y332157D03*
D394*
X453908Y332157D03*
D395*
X469758Y332157D03*
D116*
X442135Y332233D03*
D295*
X453946Y332233D03*
D200*
X469796Y332233D03*
D396*
X442021Y332309D03*
D277*
X454023Y332309D03*
D205*
X469872Y332309D03*
D397*
X441907Y332385D03*
D289*
X454099Y332385D03*
D209*
X469911Y332385D03*
D398*
X441831Y332461D03*
D284*
X454175Y332461D03*
D214*
X469911Y332461D03*
D399*
X441717Y332538D03*
D400*
X454213Y332538D03*
D337*
X469949Y332538D03*
D142*
X441640Y332614D03*
D108*
X454289Y332614D03*
D401*
X469948Y332614D03*
D111*
X441526Y332690D03*
D110*
X454366Y332690D03*
D402*
X469949Y332690D03*
D111*
X441450Y332766D03*
D255*
X454480Y332766D03*
D340*
X469949Y332766D03*
D140*
X441374Y332842D03*
D356*
X454556Y332842D03*
D403*
X469910Y332842D03*
D404*
X441298Y332919D03*
D67*
X454671Y332919D03*
D405*
X469872Y332919D03*
D406*
X441183Y332995D03*
D71*
X454861Y332995D03*
D407*
X469834Y332995D03*
D408*
X441107Y333071D03*
D124*
X455051Y333071D03*
D409*
X469682Y333071D03*
D408*
X441031Y333147D03*
D410*
X464538Y333147D03*
D411*
X440993Y333223D03*
D88*
X452194Y333223D03*
D412*
X466253Y333223D03*
D413*
X440916Y333300D03*
D414*
X452080Y333300D03*
D415*
X466367Y333300D03*
D105*
X440840Y333376D03*
D322*
X452004Y333376D03*
D416*
X466444Y333376D03*
D417*
X440802Y333452D03*
D418*
X451927Y333452D03*
D416*
X466520Y333452D03*
D417*
X440726Y333528D03*
D88*
X451889Y333528D03*
D416*
X466596Y333528D03*
D419*
X440650Y333604D03*
D88*
X451813Y333604D03*
D420*
X466634Y333604D03*
D104*
X440573Y333681D03*
D421*
X451737Y333681D03*
D422*
X466710Y333681D03*
D102*
X440535Y333757D03*
D423*
X451699Y333757D03*
D420*
X466787Y333757D03*
D102*
X440459Y333833D03*
D29*
X451584Y333833D03*
D420*
X466787Y333833D03*
D417*
X440421Y333909D03*
D424*
X451546Y333909D03*
D425*
X466825Y333909D03*
D417*
X440345Y333985D03*
D314*
X451508Y333985D03*
D425*
X466901Y333985D03*
D426*
X440307Y334062D03*
D427*
X451394Y334062D03*
D428*
X466901Y334062D03*
D419*
X440269Y334138D03*
D308*
X451356Y334138D03*
D429*
X466939Y334138D03*
D417*
X440192Y334214D03*
D91*
X451280Y334214D03*
D429*
X466939Y334214D03*
D105*
X440154Y334290D03*
D304*
X451242Y334290D03*
D429*
X467015Y334290D03*
D417*
X440116Y334366D03*
D33*
X451127Y334366D03*
D429*
X467015Y334366D03*
D413*
X440078Y334443D03*
D430*
X451051Y334443D03*
D431*
X467053Y334443D03*
D406*
X440040Y334519D03*
D35*
X451013Y334519D03*
D432*
X467053Y334519D03*
D406*
X440040Y334595D03*
D297*
X450937Y334595D03*
D433*
X467091Y334595D03*
D140*
X440002Y334671D03*
D434*
X450861Y334671D03*
D435*
X467053Y334671D03*
D109*
X439964Y334747D03*
D436*
X450746Y334747D03*
D435*
X467053Y334747D03*
D437*
X439926Y334824D03*
D438*
X450670Y334824D03*
D439*
X467091Y334824D03*
D111*
X439926Y334900D03*
D98*
X450556Y334900D03*
D440*
X467091Y334900D03*
D398*
X439926Y334976D03*
D441*
X450480Y334976D03*
D442*
X467129Y334976D03*
D114*
X439888Y335052D03*
D386*
X450365Y335052D03*
D442*
X467129Y335052D03*
D443*
X439888Y335128D03*
D281*
X450251Y335128D03*
D444*
X467091Y335128D03*
D445*
X439926Y335205D03*
D446*
X450137Y335205D03*
D447*
X467129Y335205D03*
D123*
X439964Y335281D03*
D284*
X449984Y335281D03*
D448*
X467129Y335281D03*
D131*
X440078Y335357D03*
D449*
X449756Y335357D03*
D450*
X467091Y335357D03*
D451*
X443584Y335433D03*
D450*
X467091Y335433D03*
D451*
X443584Y335509D03*
D452*
X467091Y335509D03*
D243*
X443546Y335586D03*
D453*
X467053Y335586D03*
D242*
X443507Y335662D03*
D454*
X467053Y335662D03*
D242*
X443507Y335738D03*
D455*
X467015Y335738D03*
D241*
X443469Y335814D03*
D456*
X467015Y335814D03*
D457*
X443431Y335890D03*
D458*
X466977Y335890D03*
D459*
X443393Y335967D03*
D460*
X466901Y335967D03*
D461*
X443393Y336043D03*
D462*
X466863Y336043D03*
D240*
X443355Y336119D03*
D463*
X466786Y336119D03*
D464*
X443317Y336195D03*
D465*
X466748Y336195D03*
D466*
X443279Y336271D03*
D467*
X466634Y336271D03*
D468*
X443279Y336348D03*
D469*
X466558Y336348D03*
D470*
X443279Y336424D03*
D471*
X466443Y336424D03*
D234*
X443241Y336500D03*
D472*
X466329Y336500D03*
D473*
X443203Y336576D03*
D357*
X466177Y336576D03*
D473*
X443203Y336652D03*
D355*
X466062Y336652D03*
D474*
X443164Y336729D03*
D475*
X465986Y336729D03*
D233*
X443126Y336805D03*
D349*
X465872Y336805D03*
D476*
X443088Y336881D03*
D477*
X465758Y336881D03*
D478*
X443126Y336957D03*
D476*
X465643Y336957D03*
D479*
X443088Y337033D03*
D473*
X465529Y337033D03*
D480*
X443050Y337110D03*
D236*
X465415Y337110D03*
D481*
X443050Y337186D03*
D461*
X465262Y337186D03*
D482*
X443012Y337262D03*
D483*
X465148Y337262D03*
D349*
X443012Y337338D03*
D434*
X457871Y337338D03*
D484*
X467167Y337338D03*
D485*
X442974Y337414D03*
D38*
X457909Y337414D03*
D202*
X467091Y337414D03*
D351*
X442974Y337491D03*
D486*
X457947Y337491D03*
D487*
X467015Y337491D03*
D488*
X442936Y337567D03*
D489*
X457947Y337567D03*
D179*
X466939Y337567D03*
D490*
X442936Y337643D03*
D291*
X457985Y337643D03*
D323*
X466900Y337643D03*
D353*
X442897Y337719D03*
D40*
X458023Y337719D03*
D158*
X466787Y337719D03*
D353*
X442897Y337795D03*
D290*
X458061Y337795D03*
D151*
X466710Y337795D03*
D491*
X442859Y337872D03*
D492*
X458099Y337872D03*
D493*
X466634Y337872D03*
D494*
X442860Y337948D03*
D41*
X458099Y337948D03*
D495*
X466596Y337948D03*
D496*
X442822Y338024D03*
D497*
X458138Y338024D03*
D129*
X466520Y338024D03*
D496*
X442822Y338100D03*
D441*
X458176Y338100D03*
D391*
X466444Y338100D03*
D498*
X442822Y338176D03*
D307*
X458214Y338176D03*
D396*
X466405Y338176D03*
D359*
X442783Y338253D03*
D389*
X458214Y338253D03*
D404*
X466291Y338253D03*
D499*
X442821Y338329D03*
D44*
X458252Y338329D03*
D136*
X466253Y338329D03*
D472*
X442783Y338405D03*
D45*
X458252Y338405D03*
D97*
X466177Y338405D03*
D500*
X442745Y338481D03*
D101*
X458290Y338481D03*
D90*
X466138Y338481D03*
D471*
X442745Y338557D03*
D101*
X458290Y338557D03*
D85*
X466063Y338557D03*
D501*
X442745Y338634D03*
D394*
X458328Y338634D03*
D271*
X466024Y338634D03*
D502*
X442745Y338710D03*
D295*
X458366Y338710D03*
D288*
X465986Y338710D03*
D503*
X442707Y338786D03*
D295*
X458366Y338786D03*
D70*
X465948Y338786D03*
D504*
X442707Y338862D03*
D49*
X458366Y338862D03*
D66*
X465872Y338862D03*
D504*
X442707Y338938D03*
D505*
X458404Y338938D03*
D250*
X465834Y338938D03*
D506*
X442707Y339015D03*
D507*
X458404Y339015D03*
D508*
X465834Y339015D03*
D260*
X440383Y339091D03*
D40*
X451470Y339091D03*
D51*
X458405Y339091D03*
D54*
X465796Y339091D03*
D260*
X440307Y339167D03*
D41*
X451470Y339167D03*
D51*
X458405Y339167D03*
D292*
X465796Y339167D03*
D260*
X440307Y339243D03*
D306*
X451508Y339243D03*
D509*
X458443Y339243D03*
D44*
X465796Y339243D03*
D260*
X440230Y339319D03*
D510*
X451470Y339319D03*
D282*
X458404Y339319D03*
D96*
X465720Y339319D03*
D511*
X440154Y339396D03*
D512*
X451508Y339396D03*
D513*
X458442Y339396D03*
D514*
X465720Y339396D03*
D260*
X440154Y339472D03*
D44*
X451547Y339472D03*
D274*
X458404Y339472D03*
D26*
X465682Y339472D03*
D260*
X440078Y339548D03*
D392*
X451546Y339548D03*
D55*
X458442Y339548D03*
D515*
X465643Y339548D03*
D260*
X440002Y339624D03*
D101*
X451584Y339624D03*
D108*
X458404Y339624D03*
D259*
X439964Y339700D03*
D281*
X451622Y339700D03*
D270*
X458404Y339700D03*
D511*
X439926Y339777D03*
D279*
X451622Y339777D03*
D312*
X458366Y339777D03*
D260*
X439849Y339853D03*
D292*
X451699Y339853D03*
D269*
X458366Y339853D03*
D259*
X439811Y339929D03*
D516*
X455242Y339929D03*
D259*
X439735Y340005D03*
D516*
X455242Y340005D03*
D260*
X439697Y340081D03*
D167*
X455280Y340081D03*
D511*
X439621Y340158D03*
D168*
X455242Y340158D03*
D259*
X439583Y340234D03*
D169*
X455280Y340234D03*
D260*
X439545Y340310D03*
D169*
X455280Y340310D03*
D260*
X439468Y340386D03*
D171*
X455242Y340386D03*
D260*
X439392Y340462D03*
D170*
X455280Y340462D03*
D511*
X439392Y340539D03*
D174*
X455280Y340539D03*
D260*
X439316Y340615D03*
D170*
X455280Y340615D03*
D260*
X439240Y340691D03*
D172*
X455242Y340691D03*
D517*
X439202Y340767D03*
D179*
X455280Y340767D03*
D518*
X439126Y340843D03*
D179*
X455280Y340843D03*
D519*
X439088Y340920D03*
D173*
X455242Y340920D03*
D520*
X439011Y340996D03*
D175*
X455242Y340996D03*
D521*
X438973Y341072D03*
D329*
X455280Y341072D03*
D522*
X438935Y341148D03*
D329*
X455280Y341148D03*
D523*
X438859Y341224D03*
D329*
X455280Y341224D03*
D524*
X438821Y341301D03*
D525*
X455242Y341301D03*
D526*
X438783Y341377D03*
D527*
X455242Y341377D03*
D528*
X438707Y341453D03*
D178*
X455280Y341453D03*
D348*
X438668Y341529D03*
D178*
X455280Y341529D03*
D348*
X438592Y341605D03*
D178*
X455280Y341605D03*
D529*
X438592Y341682D03*
D487*
X455280Y341682D03*
D407*
X438516Y341758D03*
D178*
X455280Y341758D03*
D530*
X438478Y341834D03*
D192*
X455242Y341834D03*
D345*
X438402Y341910D03*
D181*
X455280Y341910D03*
D531*
X438364Y341986D03*
D181*
X455280Y341986D03*
D343*
X438287Y342063D03*
D221*
X455280Y342063D03*
D341*
X438249Y342139D03*
D181*
X455280Y342139D03*
D532*
X438211Y342215D03*
D181*
X455280Y342215D03*
D533*
X438173Y342291D03*
D181*
X455280Y342291D03*
D534*
X438097Y342367D03*
D181*
X455280Y342367D03*
D535*
X438021Y342444D03*
D221*
X455280Y342444D03*
D536*
X437983Y342520D03*
D181*
X455280Y342520D03*
D209*
X437907Y342596D03*
D181*
X455280Y342596D03*
D537*
X437830Y342672D03*
D181*
X455280Y342672D03*
D484*
X437754Y342748D03*
D181*
X455280Y342748D03*
D218*
X437678Y342825D03*
D221*
X455280Y342825D03*
D192*
X437563Y342901D03*
D181*
X455280Y342901D03*
D175*
X437488Y342977D03*
D181*
X455280Y342977D03*
D323*
X437411Y343053D03*
D181*
X455280Y343053D03*
D158*
X437297Y343129D03*
D181*
X455280Y343129D03*
D148*
X437221Y343206D03*
D221*
X455280Y343206D03*
D133*
X437068Y343282D03*
D192*
X455318Y343282D03*
D118*
X436916Y343358D03*
D192*
X455318Y343358D03*
D274*
X435163Y343434D03*
D192*
X455318Y343434D03*
X455318Y343510D03*
D180*
X455318Y343587D03*
D192*
X455318Y343663D03*
X455318Y343739D03*
D178*
X455356Y343815D03*
X455356Y343891D03*
D487*
X455356Y343968D03*
D178*
X455356Y344044D03*
D527*
X455318Y344120D03*
D329*
X455356Y344196D03*
X455356Y344272D03*
D538*
X455356Y344349D03*
D329*
X455356Y344425D03*
D175*
X455395Y344501D03*
X455395Y344577D03*
X455395Y344653D03*
D327*
X455357Y344730D03*
D172*
X455395Y344806D03*
X455395Y344882D03*
X455395Y344958D03*
D539*
X455433Y345034D03*
D540*
X455394Y345111D03*
D171*
X455394Y345187D03*
D169*
X455432Y345263D03*
X455432Y345339D03*
X455432Y345415D03*
D541*
X455432Y345492D03*
D167*
X455432Y345568D03*
X455432Y345644D03*
D164*
X455471Y345720D03*
D162*
X455433Y345796D03*
D161*
X455471Y345873D03*
D159*
X455471Y345949D03*
X455471Y346025D03*
D321*
X455471Y346101D03*
X455471Y346177D03*
D160*
X455509Y346254D03*
D542*
X455471Y346330D03*
D543*
X455509Y346406D03*
X455509Y346482D03*
D149*
X455509Y346558D03*
D148*
X455509Y346635D03*
D146*
X455547Y346711D03*
D144*
X455509Y346787D03*
D143*
X455547Y346863D03*
X455547Y346939D03*
D544*
X455547Y347016D03*
D545*
X455547Y347092D03*
D546*
X455585Y347168D03*
X455585Y347244D03*
D133*
X455585Y347320D03*
D547*
X455623Y347397D03*
D131*
X455623Y347473D03*
D548*
X455623Y347549D03*
X455623Y347625D03*
D390*
X455661Y347701D03*
D147*
X455661Y347778D03*
D123*
X455661Y347854D03*
D549*
X455699Y347930D03*
D145*
X455699Y348006D03*
X455699Y348082D03*
D393*
X455737Y348159D03*
D396*
X455737Y348235D03*
D397*
X455775Y348311D03*
X455775Y348387D03*
D111*
X455776Y348463D03*
D550*
X455814Y348540D03*
D140*
X455852Y348616D03*
D408*
X455814Y348692D03*
D411*
X455852Y348768D03*
D419*
X455890Y348844D03*
D426*
X455851Y348921D03*
D551*
X455890Y348997D03*
D100*
X455928Y349073D03*
D134*
X455928Y349149D03*
X455928Y349225D03*
D552*
X455966Y349302D03*
D132*
X456004Y349378D03*
D261*
X455966Y349454D03*
D553*
X456004Y349530D03*
D92*
X456042Y349606D03*
D554*
X456042Y349683D03*
D555*
X456042Y349759D03*
D556*
X456080Y349835D03*
D557*
X456080Y349911D03*
X456080Y349987D03*
D558*
X456119Y350064D03*
D81*
X456118Y350140D03*
D79*
X456156Y350216D03*
X456156Y350292D03*
D275*
X456156Y350368D03*
D559*
X456194Y350445D03*
D124*
X456194Y350521D03*
D283*
X456195Y350597D03*
D74*
X456233Y350673D03*
D73*
X456271Y350749D03*
D309*
X456233Y350826D03*
D318*
X456271Y350902D03*
D328*
X456309Y350978D03*
D119*
X456309Y351054D03*
X456309Y351130D03*
D560*
X456347Y351207D03*
D561*
X456385Y351283D03*
D117*
X456347Y351359D03*
D239*
X456385Y351435D03*
D66*
X456423Y351511D03*
D562*
X456423Y351588D03*
D64*
X456423Y351664D03*
D356*
X456461Y351740D03*
D250*
X456461Y351816D03*
X456461Y351892D03*
D563*
X456499Y351969D03*
D564*
X456499Y352045D03*
D59*
X456538Y352121D03*
X456538Y352197D03*
D267*
X456538Y352273D03*
D565*
X456576Y352350D03*
D268*
X456576Y352426D03*
D108*
X456575Y352502D03*
D55*
X456613Y352578D03*
D54*
X456652Y352654D03*
D280*
X456614Y352731D03*
D276*
X456652Y352807D03*
D509*
X456690Y352883D03*
D51*
X456652Y352959D03*
D289*
X456690Y353035D03*
D566*
X456728Y353112D03*
D48*
X456728Y353188D03*
X456728Y353264D03*
D295*
X456766Y353340D03*
D281*
X456804Y353416D03*
D567*
X456766Y353493D03*
D392*
X456804Y353569D03*
D386*
X456842Y353645D03*
D43*
X456842Y353721D03*
X456842Y353797D03*
D42*
X456880Y353874D03*
D41*
X456880Y353950D03*
D290*
X456918Y354026D03*
X456918Y354102D03*
D291*
X456918Y354178D03*
D568*
X456957Y354255D03*
D96*
X456957Y354331D03*
D434*
X456957Y354407D03*
D294*
X456995Y354483D03*
D297*
X457033Y354559D03*
D569*
X456995Y354636D03*
D299*
X457033Y354712D03*
D34*
X457071Y354788D03*
D570*
X457033Y354864D03*
D571*
X457071Y354940D03*
D32*
X457071Y355017D03*
D31*
X457109Y355093D03*
X457109Y355169D03*
D572*
X457109Y355245D03*
D314*
X457147Y355321D03*
D573*
X457147Y355398D03*
D88*
X457147Y355474D03*
X457147Y355550D03*
D574*
X457147Y355626D03*
D26*
X457147Y355702D03*
D575*
X457147Y355779D03*
D25*
X457147Y355855D03*
D576*
X457185Y355931D03*
D23*
X457147Y356007D03*
D577*
X457147Y356083D03*
D578*
X457147Y356160D03*
D361*
X457071Y356236D03*
D17*
X66920Y157630D02*
X49920Y157630D01*
X66920Y157630D02*
X66920Y144630D01*
X49920Y144630D01*
X49920Y157630D01*
X62420Y157130D02*
X62420Y145130D01*
X61420Y145130D01*
X61420Y157130D01*
D18*
X40801Y160511D02*
X40801Y167883D01*
X40801Y160511D02*
X44487Y160511D01*
X45716Y161740D01*
X45716Y166655D01*
X44487Y167883D01*
X40801Y167883D01*
X48285Y166655D02*
X49514Y167883D01*
X51971Y167883D01*
X53200Y166655D01*
X53200Y165426D01*
X51971Y164197D01*
X50743Y164197D01*
X51971Y164197D02*
X53200Y162968D01*
X53200Y161740D01*
X51971Y160511D01*
X49514Y160511D01*
X48285Y161740D01*
D17*
X33900Y144630D02*
X16900Y144630D01*
X16900Y157630D01*
X33900Y157630D01*
X33900Y144630D01*
X21400Y145130D02*
X21400Y157130D01*
X22400Y157130D01*
X22400Y145130D01*
D18*
X28813Y141755D02*
X28813Y134383D01*
X32499Y134383D01*
X33728Y135612D01*
X33728Y140527D01*
X32499Y141755D01*
X28813Y141755D01*
X39983Y141755D02*
X39983Y134383D01*
X36297Y138069D02*
X39983Y141755D01*
X41212Y138069D02*
X36297Y138069D01*
D11*
X26670Y254000D02*
X26670Y264160D01*
D10*
X11557Y269367D02*
X11557Y275977D01*
X14862Y275977D01*
X15963Y274875D01*
X15963Y272672D01*
X14862Y271570D01*
X11557Y271570D01*
X13760Y271570D02*
X15963Y269367D01*
X19041Y270469D02*
X20143Y269367D01*
X22346Y269367D01*
X23448Y270469D01*
X23448Y274875D01*
X22346Y275977D01*
X20143Y275977D01*
X19041Y274875D01*
X19041Y273773D01*
X20143Y272672D01*
X23448Y272672D01*
D11*
X17780Y299720D02*
X7620Y299720D01*
D10*
X2413Y284607D02*
X-4197Y284607D01*
X-4197Y287912D01*
X-3095Y289013D01*
X-892Y289013D01*
X210Y287912D01*
X210Y284607D01*
X210Y286810D02*
X2413Y289013D01*
X-1993Y292091D02*
X-4197Y294294D01*
X2413Y294294D01*
X2413Y292091D02*
X2413Y296498D01*
M02*
