G04 EAGLE Gerber RS-274X export*
G75*
%MOMM*%
%FSLAX34Y34*%
%LPD*%
%INSilkscreen Bottom*%
%IPPOS*%
%AMOC8*
5,1,8,0,0,1.08239X$1,22.5*%
G01*
%ADD10C,0.228600*%

G36*
X60120Y76346D02*
X60120Y76346D01*
X60228Y76356D01*
X60241Y76362D01*
X60255Y76364D01*
X60352Y76412D01*
X60451Y76457D01*
X60464Y76468D01*
X60473Y76472D01*
X60488Y76488D01*
X60565Y76550D01*
X63150Y79135D01*
X63213Y79224D01*
X63279Y79309D01*
X63284Y79322D01*
X63292Y79334D01*
X63323Y79437D01*
X63359Y79540D01*
X63359Y79554D01*
X63363Y79567D01*
X63359Y79675D01*
X63360Y79784D01*
X63355Y79797D01*
X63355Y79811D01*
X63317Y79913D01*
X63282Y80015D01*
X63273Y80030D01*
X63269Y80039D01*
X63255Y80056D01*
X63201Y80138D01*
X60437Y83528D01*
X60994Y84610D01*
X61000Y84630D01*
X61042Y84725D01*
X61413Y85884D01*
X65764Y86327D01*
X65868Y86355D01*
X65974Y86380D01*
X65986Y86387D01*
X65999Y86390D01*
X66089Y86451D01*
X66182Y86508D01*
X66190Y86519D01*
X66202Y86527D01*
X66268Y86613D01*
X66337Y86697D01*
X66341Y86710D01*
X66350Y86721D01*
X66384Y86824D01*
X66423Y86925D01*
X66424Y86943D01*
X66428Y86952D01*
X66428Y86974D01*
X66437Y87072D01*
X66437Y90728D01*
X66420Y90835D01*
X66406Y90943D01*
X66400Y90955D01*
X66398Y90969D01*
X66346Y91065D01*
X66299Y91162D01*
X66289Y91172D01*
X66283Y91184D01*
X66203Y91258D01*
X66127Y91335D01*
X66115Y91341D01*
X66105Y91351D01*
X66006Y91396D01*
X65909Y91444D01*
X65891Y91448D01*
X65882Y91452D01*
X65861Y91454D01*
X65764Y91473D01*
X61413Y91916D01*
X61042Y93075D01*
X61033Y93093D01*
X61031Y93100D01*
X61027Y93107D01*
X60994Y93190D01*
X60437Y94272D01*
X63201Y97662D01*
X63255Y97756D01*
X63312Y97848D01*
X63315Y97861D01*
X63322Y97873D01*
X63343Y97980D01*
X63368Y98085D01*
X63366Y98099D01*
X63369Y98113D01*
X63354Y98220D01*
X63344Y98328D01*
X63338Y98341D01*
X63336Y98355D01*
X63288Y98452D01*
X63243Y98551D01*
X63232Y98564D01*
X63228Y98573D01*
X63212Y98588D01*
X63150Y98665D01*
X60565Y101250D01*
X60476Y101313D01*
X60391Y101379D01*
X60378Y101384D01*
X60366Y101392D01*
X60263Y101423D01*
X60160Y101459D01*
X60146Y101459D01*
X60133Y101463D01*
X60025Y101459D01*
X59916Y101460D01*
X59903Y101455D01*
X59889Y101455D01*
X59787Y101417D01*
X59685Y101382D01*
X59670Y101373D01*
X59661Y101369D01*
X59644Y101355D01*
X59562Y101301D01*
X56172Y98537D01*
X55090Y99094D01*
X55070Y99100D01*
X54975Y99142D01*
X53816Y99513D01*
X53373Y103864D01*
X53345Y103968D01*
X53320Y104074D01*
X53313Y104086D01*
X53310Y104099D01*
X53249Y104189D01*
X53192Y104282D01*
X53181Y104290D01*
X53173Y104302D01*
X53087Y104368D01*
X53003Y104437D01*
X52990Y104441D01*
X52979Y104450D01*
X52876Y104484D01*
X52775Y104523D01*
X52757Y104524D01*
X52748Y104528D01*
X52726Y104528D01*
X52628Y104537D01*
X48972Y104537D01*
X48865Y104520D01*
X48757Y104506D01*
X48745Y104500D01*
X48731Y104498D01*
X48635Y104446D01*
X48538Y104399D01*
X48528Y104389D01*
X48516Y104383D01*
X48442Y104303D01*
X48365Y104227D01*
X48359Y104215D01*
X48349Y104205D01*
X48304Y104106D01*
X48256Y104009D01*
X48252Y103991D01*
X48248Y103982D01*
X48246Y103961D01*
X48227Y103864D01*
X47784Y99513D01*
X46625Y99142D01*
X46607Y99132D01*
X46510Y99094D01*
X45428Y98537D01*
X42038Y101301D01*
X41944Y101355D01*
X41852Y101412D01*
X41839Y101415D01*
X41827Y101422D01*
X41720Y101443D01*
X41615Y101468D01*
X41601Y101466D01*
X41587Y101469D01*
X41480Y101454D01*
X41372Y101444D01*
X41359Y101438D01*
X41346Y101436D01*
X41248Y101388D01*
X41149Y101343D01*
X41136Y101332D01*
X41127Y101328D01*
X41112Y101312D01*
X41035Y101250D01*
X38450Y98665D01*
X38387Y98576D01*
X38321Y98491D01*
X38316Y98478D01*
X38308Y98466D01*
X38277Y98363D01*
X38241Y98260D01*
X38241Y98246D01*
X38237Y98233D01*
X38241Y98125D01*
X38240Y98016D01*
X38245Y98003D01*
X38245Y97989D01*
X38283Y97887D01*
X38318Y97785D01*
X38327Y97770D01*
X38331Y97761D01*
X38345Y97744D01*
X38399Y97662D01*
X41163Y94272D01*
X40606Y93190D01*
X40600Y93170D01*
X40558Y93075D01*
X40187Y91916D01*
X35836Y91473D01*
X35732Y91445D01*
X35626Y91420D01*
X35614Y91413D01*
X35601Y91410D01*
X35511Y91349D01*
X35418Y91292D01*
X35410Y91281D01*
X35398Y91273D01*
X35332Y91187D01*
X35264Y91103D01*
X35259Y91090D01*
X35250Y91079D01*
X35216Y90976D01*
X35177Y90875D01*
X35176Y90857D01*
X35172Y90848D01*
X35173Y90826D01*
X35163Y90728D01*
X35163Y87072D01*
X35180Y86965D01*
X35194Y86857D01*
X35200Y86845D01*
X35202Y86831D01*
X35254Y86735D01*
X35301Y86638D01*
X35311Y86628D01*
X35317Y86616D01*
X35397Y86542D01*
X35473Y86465D01*
X35485Y86459D01*
X35496Y86449D01*
X35594Y86404D01*
X35691Y86356D01*
X35709Y86352D01*
X35718Y86348D01*
X35739Y86346D01*
X35836Y86327D01*
X40187Y85884D01*
X40558Y84725D01*
X40568Y84707D01*
X40606Y84610D01*
X41163Y83528D01*
X38399Y80138D01*
X38345Y80044D01*
X38288Y79952D01*
X38285Y79939D01*
X38278Y79927D01*
X38257Y79820D01*
X38232Y79715D01*
X38234Y79701D01*
X38231Y79687D01*
X38246Y79580D01*
X38256Y79472D01*
X38262Y79459D01*
X38264Y79446D01*
X38312Y79348D01*
X38357Y79249D01*
X38368Y79236D01*
X38372Y79227D01*
X38388Y79212D01*
X38450Y79135D01*
X41035Y76550D01*
X41124Y76487D01*
X41209Y76421D01*
X41222Y76416D01*
X41234Y76408D01*
X41337Y76377D01*
X41440Y76341D01*
X41454Y76341D01*
X41467Y76337D01*
X41575Y76341D01*
X41684Y76340D01*
X41697Y76345D01*
X41711Y76345D01*
X41813Y76383D01*
X41915Y76418D01*
X41930Y76427D01*
X41939Y76431D01*
X41956Y76445D01*
X42038Y76499D01*
X45428Y79263D01*
X46510Y78706D01*
X46563Y78689D01*
X46612Y78663D01*
X46678Y78652D01*
X46742Y78631D01*
X46798Y78632D01*
X46852Y78623D01*
X46919Y78634D01*
X46986Y78635D01*
X47038Y78653D01*
X47093Y78662D01*
X47153Y78694D01*
X47216Y78717D01*
X47259Y78751D01*
X47309Y78777D01*
X47355Y78826D01*
X47407Y78868D01*
X47438Y78915D01*
X47476Y78955D01*
X47532Y79060D01*
X47540Y79073D01*
X47541Y79078D01*
X47545Y79085D01*
X49698Y84282D01*
X49718Y84365D01*
X49723Y84378D01*
X49725Y84394D01*
X49750Y84479D01*
X49749Y84500D01*
X49754Y84520D01*
X49746Y84602D01*
X49747Y84621D01*
X49743Y84641D01*
X49739Y84722D01*
X49732Y84742D01*
X49730Y84763D01*
X49698Y84832D01*
X49692Y84859D01*
X49677Y84883D01*
X49651Y84950D01*
X49638Y84966D01*
X49629Y84985D01*
X49584Y85034D01*
X49564Y85066D01*
X49533Y85091D01*
X49495Y85137D01*
X49472Y85153D01*
X49462Y85163D01*
X49441Y85175D01*
X49376Y85220D01*
X49375Y85221D01*
X49374Y85222D01*
X48475Y85728D01*
X47788Y86372D01*
X47273Y87160D01*
X46961Y88048D01*
X46869Y88985D01*
X47002Y89917D01*
X47353Y90791D01*
X47902Y91556D01*
X48616Y92169D01*
X49456Y92594D01*
X50373Y92808D01*
X51314Y92798D01*
X52226Y92564D01*
X53056Y92121D01*
X53757Y91492D01*
X54289Y90715D01*
X54620Y89834D01*
X54733Y88899D01*
X54625Y87982D01*
X54305Y87114D01*
X53791Y86345D01*
X53112Y85718D01*
X52228Y85223D01*
X52186Y85190D01*
X52144Y85167D01*
X52113Y85134D01*
X52065Y85099D01*
X52053Y85083D01*
X52037Y85070D01*
X52002Y85015D01*
X51977Y84989D01*
X51964Y84959D01*
X51922Y84901D01*
X51916Y84882D01*
X51906Y84865D01*
X51887Y84790D01*
X51877Y84767D01*
X51874Y84743D01*
X51851Y84668D01*
X51852Y84648D01*
X51847Y84628D01*
X51854Y84542D01*
X51853Y84524D01*
X51856Y84508D01*
X51859Y84424D01*
X51867Y84399D01*
X51868Y84385D01*
X51878Y84363D01*
X51902Y84282D01*
X52831Y82039D01*
X52831Y82038D01*
X53762Y79791D01*
X53763Y79791D01*
X54055Y79085D01*
X54084Y79038D01*
X54105Y78986D01*
X54148Y78935D01*
X54184Y78878D01*
X54227Y78843D01*
X54263Y78800D01*
X54320Y78766D01*
X54372Y78723D01*
X54424Y78704D01*
X54472Y78675D01*
X54538Y78661D01*
X54601Y78637D01*
X54656Y78635D01*
X54710Y78624D01*
X54777Y78631D01*
X54844Y78629D01*
X54898Y78645D01*
X54953Y78652D01*
X55064Y78696D01*
X55078Y78700D01*
X55082Y78703D01*
X55090Y78706D01*
X56172Y79263D01*
X59562Y76499D01*
X59656Y76445D01*
X59748Y76388D01*
X59761Y76385D01*
X59773Y76378D01*
X59880Y76357D01*
X59985Y76332D01*
X59999Y76334D01*
X60013Y76331D01*
X60120Y76346D01*
G37*
D10*
X108869Y144916D02*
X108869Y137967D01*
X105395Y134493D01*
X101920Y137967D01*
X101920Y144916D01*
X91964Y144916D02*
X90226Y143179D01*
X91964Y144916D02*
X95438Y144916D01*
X97175Y143179D01*
X97175Y136230D01*
X95438Y134493D01*
X91964Y134493D01*
X90226Y136230D01*
X80270Y144916D02*
X78532Y143179D01*
X80270Y144916D02*
X83744Y144916D01*
X85481Y143179D01*
X85481Y136230D01*
X83744Y134493D01*
X80270Y134493D01*
X78532Y136230D01*
X101920Y117779D02*
X103658Y119516D01*
X107132Y119516D01*
X108869Y117779D01*
X108869Y110830D01*
X107132Y109093D01*
X103658Y109093D01*
X101920Y110830D01*
X101920Y114304D01*
X105395Y114304D01*
X97175Y109093D02*
X97175Y119516D01*
X90226Y109093D01*
X90226Y119516D01*
X85481Y119516D02*
X85481Y109093D01*
X80270Y109093D01*
X78532Y110830D01*
X78532Y117779D01*
X80270Y119516D01*
X85481Y119516D01*
X108869Y94116D02*
X108869Y83693D01*
X108869Y94116D02*
X103658Y94116D01*
X101920Y92379D01*
X101920Y88904D01*
X103658Y87167D01*
X108869Y87167D01*
X97175Y83693D02*
X97175Y94116D01*
X91964Y94116D01*
X90226Y92379D01*
X90226Y88904D01*
X91964Y87167D01*
X97175Y87167D01*
X80270Y94116D02*
X78532Y92379D01*
X80270Y94116D02*
X83744Y94116D01*
X85481Y92379D01*
X85481Y90642D01*
X83744Y88904D01*
X80270Y88904D01*
X78532Y87167D01*
X78532Y85430D01*
X80270Y83693D01*
X83744Y83693D01*
X85481Y85430D01*
X104186Y68716D02*
X107660Y68716D01*
X109397Y66979D01*
X109397Y60030D01*
X107660Y58293D01*
X104186Y58293D01*
X102448Y60030D01*
X102448Y66979D01*
X104186Y68716D01*
X97703Y68716D02*
X97703Y58293D01*
X90754Y58293D02*
X97703Y68716D01*
X90754Y68716D02*
X90754Y58293D01*
X84272Y68716D02*
X80798Y68716D01*
X84272Y68716D02*
X86009Y66979D01*
X86009Y60030D01*
X84272Y58293D01*
X80798Y58293D01*
X79060Y60030D01*
X79060Y66979D01*
X80798Y68716D01*
X74315Y68716D02*
X74315Y58293D01*
X74315Y68716D02*
X67366Y68716D01*
X70841Y63504D02*
X74315Y63504D01*
X62621Y58293D02*
X62621Y68716D01*
X55673Y68716D01*
X59147Y63504D02*
X62621Y63504D01*
X108605Y44586D02*
X108605Y34163D01*
X108605Y44586D02*
X103394Y44586D01*
X101656Y42849D01*
X101656Y39374D01*
X103394Y37637D01*
X108605Y37637D01*
X105131Y37637D02*
X101656Y34163D01*
X96911Y44586D02*
X89962Y34163D01*
X96911Y34163D02*
X89962Y44586D01*
X105131Y19186D02*
X105131Y8763D01*
X108605Y19186D02*
X101656Y19186D01*
X96911Y19186D02*
X89962Y8763D01*
X96911Y8763D02*
X89962Y19186D01*
M02*
