G04 EAGLE Gerber RS-274X export*
G75*
%MOMM*%
%FSLAX34Y34*%
%LPD*%
%INSolderpaste Bottom*%
%IPPOS*%
%AMOC8*
5,1,8,0,0,1.08239X$1,22.5*%
G01*
%ADD10R,0.600000X0.600000*%
%ADD11R,0.900000X0.800000*%
%ADD12R,0.809800X0.220000*%
%ADD13R,0.220000X0.809800*%
%ADD14R,1.270000X1.270000*%
%ADD15R,0.700000X0.750000*%
%ADD16R,0.800000X0.900000*%


D10*
X48895Y98552D03*
X38735Y98552D03*
D11*
X135668Y167767D03*
X114268Y167767D03*
D12*
X68419Y65948D03*
X68419Y69948D03*
X68419Y73948D03*
X68419Y77948D03*
X68419Y81948D03*
X68419Y85948D03*
X68419Y89948D03*
X68419Y93948D03*
X68419Y97948D03*
X68419Y101948D03*
X68419Y105948D03*
X68419Y109948D03*
X68419Y113948D03*
X68419Y117948D03*
D13*
X76870Y126399D03*
X80870Y126399D03*
X84870Y126399D03*
X88870Y126399D03*
X92870Y126399D03*
X96870Y126399D03*
X100870Y126399D03*
X104870Y126399D03*
X108870Y126399D03*
X112870Y126399D03*
X116870Y126399D03*
X120870Y126399D03*
X124870Y126399D03*
X128870Y126399D03*
D12*
X137321Y117948D03*
X137321Y113948D03*
X137321Y109948D03*
X137321Y105948D03*
X137321Y101948D03*
X137321Y97948D03*
X137321Y93948D03*
X137321Y89948D03*
X137321Y85948D03*
X137321Y81948D03*
X137321Y77948D03*
X137321Y73948D03*
X137321Y69948D03*
X137321Y65948D03*
D13*
X128870Y57497D03*
X124870Y57497D03*
X120870Y57497D03*
X116870Y57497D03*
X112870Y57497D03*
X108870Y57497D03*
X104870Y57497D03*
X100870Y57497D03*
X96870Y57497D03*
X92870Y57497D03*
X88870Y57497D03*
X84870Y57497D03*
X80870Y57497D03*
X76870Y57497D03*
D14*
X93980Y83058D03*
X111760Y83058D03*
X111760Y100838D03*
X93980Y100838D03*
D10*
X39878Y79248D03*
X50038Y79248D03*
X48641Y89154D03*
X38481Y89154D03*
X74549Y137414D03*
X74549Y147574D03*
X46736Y69088D03*
X36576Y69088D03*
X46863Y57785D03*
X36703Y57785D03*
X56896Y57531D03*
X56896Y67691D03*
X84328Y137160D03*
X84328Y147320D03*
X146558Y146050D03*
X146558Y156210D03*
X35052Y176530D03*
X35052Y166370D03*
X146812Y114300D03*
X146812Y104140D03*
X146558Y123825D03*
X146558Y133985D03*
X129667Y27940D03*
X129667Y17780D03*
X88392Y41275D03*
X88392Y31115D03*
X79502Y41275D03*
X79502Y31115D03*
D15*
X110410Y34436D03*
X110410Y20936D03*
X100410Y20936D03*
X100410Y34436D03*
D10*
X89916Y20828D03*
X79756Y20828D03*
X120777Y27686D03*
X120777Y17526D03*
X110744Y45847D03*
X100584Y45847D03*
X147955Y20955D03*
X137795Y20955D03*
X40005Y133985D03*
X40005Y123825D03*
X31115Y123825D03*
X31115Y133985D03*
X137795Y29845D03*
X147955Y29845D03*
X64770Y135255D03*
X64770Y145415D03*
D16*
X144145Y199930D03*
X144145Y178530D03*
M02*
