G04 EAGLE Gerber RS-274X export*
G75*
%MOMM*%
%FSLAX34Y34*%
%LPD*%
%INSilkscreen Top*%
%IPPOS*%
%AMOC8*
5,1,8,0,0,1.08239X$1,22.5*%
G01*
%ADD10C,0.127000*%
%ADD11C,0.101600*%
%ADD12C,0.152400*%
%ADD13C,0.304800*%
%ADD14C,0.203200*%
%ADD15R,0.190500X0.889000*%
%ADD16C,0.406400*%
%ADD17C,0.025400*%
%ADD18R,0.200000X1.000000*%
%ADD19R,0.050800X0.006300*%
%ADD20R,0.082600X0.006400*%
%ADD21R,0.120600X0.006300*%
%ADD22R,0.139700X0.006400*%
%ADD23R,0.158800X0.006300*%
%ADD24R,0.177800X0.006400*%
%ADD25R,0.196800X0.006300*%
%ADD26R,0.215900X0.006400*%
%ADD27R,0.228600X0.006300*%
%ADD28R,0.241300X0.006400*%
%ADD29R,0.254000X0.006300*%
%ADD30R,0.266700X0.006400*%
%ADD31R,0.279400X0.006300*%
%ADD32R,0.285700X0.006400*%
%ADD33R,0.298400X0.006300*%
%ADD34R,0.311200X0.006400*%
%ADD35R,0.317500X0.006300*%
%ADD36R,0.330200X0.006400*%
%ADD37R,0.336600X0.006300*%
%ADD38R,0.349200X0.006400*%
%ADD39R,0.361900X0.006300*%
%ADD40R,0.368300X0.006400*%
%ADD41R,0.381000X0.006300*%
%ADD42R,0.387300X0.006400*%
%ADD43R,0.393700X0.006300*%
%ADD44R,0.406400X0.006400*%
%ADD45R,0.412700X0.006300*%
%ADD46R,0.419100X0.006400*%
%ADD47R,0.431800X0.006300*%
%ADD48R,0.438100X0.006400*%
%ADD49R,0.450800X0.006300*%
%ADD50R,0.457200X0.006400*%
%ADD51R,0.463500X0.006300*%
%ADD52R,0.476200X0.006400*%
%ADD53R,0.482600X0.006300*%
%ADD54R,0.488900X0.006400*%
%ADD55R,0.501600X0.006300*%
%ADD56R,0.508000X0.006400*%
%ADD57R,0.514300X0.006300*%
%ADD58R,0.527000X0.006400*%
%ADD59R,0.533400X0.006300*%
%ADD60R,0.546100X0.006400*%
%ADD61R,0.552400X0.006300*%
%ADD62R,0.558800X0.006400*%
%ADD63R,0.571500X0.006300*%
%ADD64R,0.577800X0.006400*%
%ADD65R,0.584200X0.006300*%
%ADD66R,0.596900X0.006400*%
%ADD67R,0.603200X0.006300*%
%ADD68R,0.609600X0.006400*%
%ADD69R,0.622300X0.006300*%
%ADD70R,0.628600X0.006400*%
%ADD71R,0.641300X0.006300*%
%ADD72R,0.647700X0.006400*%
%ADD73R,0.063500X0.006300*%
%ADD74R,0.654000X0.006300*%
%ADD75R,0.101600X0.006400*%
%ADD76R,0.666700X0.006400*%
%ADD77R,0.139700X0.006300*%
%ADD78R,0.673100X0.006300*%
%ADD79R,0.165100X0.006400*%
%ADD80R,0.679400X0.006400*%
%ADD81R,0.196900X0.006300*%
%ADD82R,0.692100X0.006300*%
%ADD83R,0.222200X0.006400*%
%ADD84R,0.698500X0.006400*%
%ADD85R,0.247700X0.006300*%
%ADD86R,0.704800X0.006300*%
%ADD87R,0.279400X0.006400*%
%ADD88R,0.717500X0.006400*%
%ADD89R,0.298500X0.006300*%
%ADD90R,0.723900X0.006300*%
%ADD91R,0.736600X0.006400*%
%ADD92R,0.342900X0.006300*%
%ADD93R,0.742900X0.006300*%
%ADD94R,0.374700X0.006400*%
%ADD95R,0.749300X0.006400*%
%ADD96R,0.762000X0.006300*%
%ADD97R,0.412700X0.006400*%
%ADD98R,0.768300X0.006400*%
%ADD99R,0.438100X0.006300*%
%ADD100R,0.774700X0.006300*%
%ADD101R,0.463600X0.006400*%
%ADD102R,0.787400X0.006400*%
%ADD103R,0.793700X0.006300*%
%ADD104R,0.495300X0.006400*%
%ADD105R,0.800100X0.006400*%
%ADD106R,0.520700X0.006300*%
%ADD107R,0.812800X0.006300*%
%ADD108R,0.533400X0.006400*%
%ADD109R,0.819100X0.006400*%
%ADD110R,0.558800X0.006300*%
%ADD111R,0.825500X0.006300*%
%ADD112R,0.577900X0.006400*%
%ADD113R,0.831800X0.006400*%
%ADD114R,0.596900X0.006300*%
%ADD115R,0.844500X0.006300*%
%ADD116R,0.616000X0.006400*%
%ADD117R,0.850900X0.006400*%
%ADD118R,0.635000X0.006300*%
%ADD119R,0.857200X0.006300*%
%ADD120R,0.654100X0.006400*%
%ADD121R,0.863600X0.006400*%
%ADD122R,0.666700X0.006300*%
%ADD123R,0.869900X0.006300*%
%ADD124R,0.685800X0.006400*%
%ADD125R,0.876300X0.006400*%
%ADD126R,0.882600X0.006300*%
%ADD127R,0.723900X0.006400*%
%ADD128R,0.889000X0.006400*%
%ADD129R,0.895300X0.006300*%
%ADD130R,0.755700X0.006400*%
%ADD131R,0.901700X0.006400*%
%ADD132R,0.908000X0.006300*%
%ADD133R,0.793800X0.006400*%
%ADD134R,0.914400X0.006400*%
%ADD135R,0.806400X0.006300*%
%ADD136R,0.920700X0.006300*%
%ADD137R,0.825500X0.006400*%
%ADD138R,0.927100X0.006400*%
%ADD139R,0.933400X0.006300*%
%ADD140R,0.857300X0.006400*%
%ADD141R,0.939800X0.006400*%
%ADD142R,0.870000X0.006300*%
%ADD143R,0.939800X0.006300*%
%ADD144R,0.946100X0.006400*%
%ADD145R,0.952500X0.006300*%
%ADD146R,0.908000X0.006400*%
%ADD147R,0.958800X0.006400*%
%ADD148R,0.965200X0.006300*%
%ADD149R,0.965200X0.006400*%
%ADD150R,0.971500X0.006300*%
%ADD151R,0.952500X0.006400*%
%ADD152R,0.977900X0.006400*%
%ADD153R,0.958800X0.006300*%
%ADD154R,0.984200X0.006300*%
%ADD155R,0.971500X0.006400*%
%ADD156R,0.984200X0.006400*%
%ADD157R,0.990600X0.006300*%
%ADD158R,0.984300X0.006400*%
%ADD159R,0.996900X0.006400*%
%ADD160R,0.997000X0.006300*%
%ADD161R,0.996900X0.006300*%
%ADD162R,1.003300X0.006400*%
%ADD163R,1.016000X0.006300*%
%ADD164R,1.009600X0.006300*%
%ADD165R,1.016000X0.006400*%
%ADD166R,1.009600X0.006400*%
%ADD167R,1.022300X0.006300*%
%ADD168R,1.028700X0.006400*%
%ADD169R,1.035100X0.006300*%
%ADD170R,1.047800X0.006400*%
%ADD171R,1.054100X0.006300*%
%ADD172R,1.028700X0.006300*%
%ADD173R,1.054100X0.006400*%
%ADD174R,1.035000X0.006400*%
%ADD175R,1.060400X0.006300*%
%ADD176R,1.035000X0.006300*%
%ADD177R,1.060500X0.006400*%
%ADD178R,1.041400X0.006400*%
%ADD179R,1.066800X0.006300*%
%ADD180R,1.041400X0.006300*%
%ADD181R,1.079500X0.006400*%
%ADD182R,1.047700X0.006400*%
%ADD183R,1.085900X0.006300*%
%ADD184R,1.047700X0.006300*%
%ADD185R,1.085800X0.006400*%
%ADD186R,1.092200X0.006300*%
%ADD187R,1.085900X0.006400*%
%ADD188R,1.098600X0.006300*%
%ADD189R,1.098600X0.006400*%
%ADD190R,1.060400X0.006400*%
%ADD191R,1.104900X0.006300*%
%ADD192R,1.104900X0.006400*%
%ADD193R,1.066800X0.006400*%
%ADD194R,1.111200X0.006300*%
%ADD195R,1.117600X0.006400*%
%ADD196R,1.117600X0.006300*%
%ADD197R,1.073100X0.006300*%
%ADD198R,1.073100X0.006400*%
%ADD199R,1.124000X0.006300*%
%ADD200R,1.079500X0.006300*%
%ADD201R,1.123900X0.006400*%
%ADD202R,1.130300X0.006300*%
%ADD203R,1.130300X0.006400*%
%ADD204R,1.136700X0.006400*%
%ADD205R,1.136700X0.006300*%
%ADD206R,1.085800X0.006300*%
%ADD207R,1.136600X0.006400*%
%ADD208R,1.136600X0.006300*%
%ADD209R,1.143000X0.006400*%
%ADD210R,1.143000X0.006300*%
%ADD211R,1.149400X0.006300*%
%ADD212R,1.149300X0.006300*%
%ADD213R,1.149300X0.006400*%
%ADD214R,1.149400X0.006400*%
%ADD215R,1.155700X0.006400*%
%ADD216R,1.155700X0.006300*%
%ADD217R,1.060500X0.006300*%
%ADD218R,2.197100X0.006400*%
%ADD219R,2.197100X0.006300*%
%ADD220R,2.184400X0.006300*%
%ADD221R,2.184400X0.006400*%
%ADD222R,2.171700X0.006400*%
%ADD223R,2.171700X0.006300*%
%ADD224R,1.530300X0.006400*%
%ADD225R,1.505000X0.006300*%
%ADD226R,1.492300X0.006400*%
%ADD227R,1.485900X0.006300*%
%ADD228R,0.565200X0.006300*%
%ADD229R,1.473200X0.006400*%
%ADD230R,0.565200X0.006400*%
%ADD231R,1.460500X0.006300*%
%ADD232R,1.454100X0.006400*%
%ADD233R,0.552400X0.006400*%
%ADD234R,1.441500X0.006300*%
%ADD235R,0.546100X0.006300*%
%ADD236R,1.435100X0.006400*%
%ADD237R,0.539800X0.006400*%
%ADD238R,1.428800X0.006300*%
%ADD239R,1.422400X0.006400*%
%ADD240R,1.409700X0.006300*%
%ADD241R,0.527100X0.006300*%
%ADD242R,1.403300X0.006400*%
%ADD243R,0.527100X0.006400*%
%ADD244R,1.390700X0.006300*%
%ADD245R,1.384300X0.006400*%
%ADD246R,0.520700X0.006400*%
%ADD247R,1.384300X0.006300*%
%ADD248R,0.514400X0.006300*%
%ADD249R,1.371600X0.006400*%
%ADD250R,1.365200X0.006300*%
%ADD251R,0.508000X0.006300*%
%ADD252R,1.352600X0.006400*%
%ADD253R,0.501700X0.006400*%
%ADD254R,0.711200X0.006300*%
%ADD255R,0.603300X0.006300*%
%ADD256R,0.501700X0.006300*%
%ADD257R,0.692100X0.006400*%
%ADD258R,0.571500X0.006400*%
%ADD259R,0.679400X0.006300*%
%ADD260R,0.495300X0.006300*%
%ADD261R,0.673100X0.006400*%
%ADD262R,0.666800X0.006300*%
%ADD263R,0.488900X0.006300*%
%ADD264R,0.660400X0.006400*%
%ADD265R,0.482600X0.006400*%
%ADD266R,0.476200X0.006300*%
%ADD267R,0.654000X0.006400*%
%ADD268R,0.469900X0.006400*%
%ADD269R,0.476300X0.006400*%
%ADD270R,0.647700X0.006300*%
%ADD271R,0.457200X0.006300*%
%ADD272R,0.469900X0.006300*%
%ADD273R,0.641300X0.006400*%
%ADD274R,0.444500X0.006400*%
%ADD275R,0.463600X0.006300*%
%ADD276R,0.635000X0.006400*%
%ADD277R,0.463500X0.006400*%
%ADD278R,0.393700X0.006400*%
%ADD279R,0.450800X0.006400*%
%ADD280R,0.628600X0.006300*%
%ADD281R,0.387400X0.006300*%
%ADD282R,0.450900X0.006300*%
%ADD283R,0.628700X0.006400*%
%ADD284R,0.374600X0.006400*%
%ADD285R,0.368300X0.006300*%
%ADD286R,0.438200X0.006300*%
%ADD287R,0.622300X0.006400*%
%ADD288R,0.355600X0.006400*%
%ADD289R,0.431800X0.006400*%
%ADD290R,0.349300X0.006300*%
%ADD291R,0.425400X0.006300*%
%ADD292R,0.615900X0.006300*%
%ADD293R,0.330200X0.006300*%
%ADD294R,0.419100X0.006300*%
%ADD295R,0.616000X0.006300*%
%ADD296R,0.311200X0.006300*%
%ADD297R,0.406400X0.006300*%
%ADD298R,0.615900X0.006400*%
%ADD299R,0.304800X0.006400*%
%ADD300R,0.158800X0.006400*%
%ADD301R,0.609600X0.006300*%
%ADD302R,0.292100X0.006300*%
%ADD303R,0.235000X0.006300*%
%ADD304R,0.387400X0.006400*%
%ADD305R,0.292100X0.006400*%
%ADD306R,0.336500X0.006300*%
%ADD307R,0.260400X0.006300*%
%ADD308R,0.603300X0.006400*%
%ADD309R,0.260400X0.006400*%
%ADD310R,0.362000X0.006400*%
%ADD311R,0.450900X0.006400*%
%ADD312R,0.355600X0.006300*%
%ADD313R,0.342900X0.006400*%
%ADD314R,0.514300X0.006400*%
%ADD315R,0.234900X0.006300*%
%ADD316R,0.539700X0.006300*%
%ADD317R,0.603200X0.006400*%
%ADD318R,0.234900X0.006400*%
%ADD319R,0.920700X0.006400*%
%ADD320R,0.958900X0.006400*%
%ADD321R,0.215900X0.006300*%
%ADD322R,0.209600X0.006400*%
%ADD323R,0.203200X0.006300*%
%ADD324R,1.003300X0.006300*%
%ADD325R,0.203200X0.006400*%
%ADD326R,0.196900X0.006400*%
%ADD327R,0.190500X0.006300*%
%ADD328R,0.190500X0.006400*%
%ADD329R,0.184200X0.006300*%
%ADD330R,0.590500X0.006400*%
%ADD331R,0.184200X0.006400*%
%ADD332R,0.590500X0.006300*%
%ADD333R,0.177800X0.006300*%
%ADD334R,0.584200X0.006400*%
%ADD335R,1.168400X0.006400*%
%ADD336R,0.171500X0.006300*%
%ADD337R,1.187500X0.006300*%
%ADD338R,1.200100X0.006400*%
%ADD339R,0.577800X0.006300*%
%ADD340R,1.212900X0.006300*%
%ADD341R,1.231900X0.006400*%
%ADD342R,1.250900X0.006300*%
%ADD343R,0.565100X0.006400*%
%ADD344R,0.184100X0.006400*%
%ADD345R,1.263700X0.006400*%
%ADD346R,0.565100X0.006300*%
%ADD347R,1.289100X0.006300*%
%ADD348R,1.314400X0.006400*%
%ADD349R,0.552500X0.006300*%
%ADD350R,1.568500X0.006300*%
%ADD351R,0.552500X0.006400*%
%ADD352R,1.581200X0.006400*%
%ADD353R,1.593800X0.006300*%
%ADD354R,1.606500X0.006400*%
%ADD355R,1.619300X0.006300*%
%ADD356R,0.514400X0.006400*%
%ADD357R,1.638300X0.006400*%
%ADD358R,1.657300X0.006300*%
%ADD359R,2.209800X0.006400*%
%ADD360R,2.425700X0.006300*%
%ADD361R,2.470100X0.006400*%
%ADD362R,2.501900X0.006300*%
%ADD363R,2.533700X0.006400*%
%ADD364R,2.559000X0.006300*%
%ADD365R,2.584500X0.006400*%
%ADD366R,2.609900X0.006300*%
%ADD367R,2.628900X0.006400*%
%ADD368R,2.660600X0.006300*%
%ADD369R,2.673400X0.006400*%
%ADD370R,1.422400X0.006300*%
%ADD371R,1.200200X0.006300*%
%ADD372R,1.365300X0.006300*%
%ADD373R,1.365300X0.006400*%
%ADD374R,1.352500X0.006300*%
%ADD375R,1.098500X0.006300*%
%ADD376R,1.358900X0.006400*%
%ADD377R,1.352600X0.006300*%
%ADD378R,1.358900X0.006300*%
%ADD379R,1.371600X0.006300*%
%ADD380R,1.377900X0.006400*%
%ADD381R,1.397000X0.006400*%
%ADD382R,1.403300X0.006300*%
%ADD383R,0.914400X0.006300*%
%ADD384R,0.876300X0.006300*%
%ADD385R,0.374600X0.006300*%
%ADD386R,1.073200X0.006400*%
%ADD387R,0.374700X0.006300*%
%ADD388R,0.844600X0.006400*%
%ADD389R,0.844600X0.006300*%
%ADD390R,0.831900X0.006400*%
%ADD391R,1.092200X0.006400*%
%ADD392R,0.400000X0.006300*%
%ADD393R,0.819200X0.006400*%
%ADD394R,1.111300X0.006400*%
%ADD395R,0.812800X0.006400*%
%ADD396R,0.800100X0.006300*%
%ADD397R,0.476300X0.006300*%
%ADD398R,1.181100X0.006300*%
%ADD399R,0.501600X0.006400*%
%ADD400R,1.193800X0.006400*%
%ADD401R,0.781000X0.006400*%
%ADD402R,1.238200X0.006400*%
%ADD403R,0.781100X0.006300*%
%ADD404R,1.257300X0.006300*%
%ADD405R,1.295400X0.006400*%
%ADD406R,1.333500X0.006300*%
%ADD407R,0.774700X0.006400*%
%ADD408R,1.866900X0.006400*%
%ADD409R,0.209600X0.006300*%
%ADD410R,1.866900X0.006300*%
%ADD411R,0.768400X0.006400*%
%ADD412R,0.209500X0.006400*%
%ADD413R,1.860600X0.006400*%
%ADD414R,0.762000X0.006400*%
%ADD415R,0.768400X0.006300*%
%ADD416R,1.860600X0.006300*%
%ADD417R,1.860500X0.006400*%
%ADD418R,0.222300X0.006300*%
%ADD419R,1.854200X0.006300*%
%ADD420R,0.235000X0.006400*%
%ADD421R,1.854200X0.006400*%
%ADD422R,0.768300X0.006300*%
%ADD423R,0.260300X0.006400*%
%ADD424R,1.847800X0.006400*%
%ADD425R,0.266700X0.006300*%
%ADD426R,1.847800X0.006300*%
%ADD427R,0.273100X0.006400*%
%ADD428R,1.841500X0.006400*%
%ADD429R,0.285800X0.006300*%
%ADD430R,1.841500X0.006300*%
%ADD431R,0.298500X0.006400*%
%ADD432R,1.835100X0.006400*%
%ADD433R,0.781000X0.006300*%
%ADD434R,0.304800X0.006300*%
%ADD435R,1.835100X0.006300*%
%ADD436R,0.317500X0.006400*%
%ADD437R,1.828800X0.006400*%
%ADD438R,0.787400X0.006300*%
%ADD439R,0.323800X0.006300*%
%ADD440R,1.828800X0.006300*%
%ADD441R,0.793700X0.006400*%
%ADD442R,1.822400X0.006400*%
%ADD443R,0.806500X0.006300*%
%ADD444R,1.822400X0.006300*%
%ADD445R,1.816100X0.006400*%
%ADD446R,0.819100X0.006300*%
%ADD447R,0.387300X0.006300*%
%ADD448R,1.816100X0.006300*%
%ADD449R,1.809800X0.006400*%
%ADD450R,1.803400X0.006300*%
%ADD451R,1.797000X0.006400*%
%ADD452R,0.901700X0.006300*%
%ADD453R,1.797000X0.006300*%
%ADD454R,1.441400X0.006400*%
%ADD455R,1.790700X0.006400*%
%ADD456R,1.447800X0.006300*%
%ADD457R,1.784300X0.006300*%
%ADD458R,1.447800X0.006400*%
%ADD459R,1.784300X0.006400*%
%ADD460R,1.454100X0.006300*%
%ADD461R,1.771700X0.006300*%
%ADD462R,1.460500X0.006400*%
%ADD463R,1.759000X0.006400*%
%ADD464R,1.466800X0.006300*%
%ADD465R,1.752600X0.006300*%
%ADD466R,1.466800X0.006400*%
%ADD467R,1.739900X0.006400*%
%ADD468R,1.473200X0.006300*%
%ADD469R,1.727200X0.006300*%
%ADD470R,1.479500X0.006400*%
%ADD471R,1.714500X0.006400*%
%ADD472R,1.695400X0.006300*%
%ADD473R,1.485900X0.006400*%
%ADD474R,1.682700X0.006400*%
%ADD475R,1.492200X0.006300*%
%ADD476R,1.663700X0.006300*%
%ADD477R,1.498600X0.006400*%
%ADD478R,1.644600X0.006400*%
%ADD479R,1.498600X0.006300*%
%ADD480R,1.619200X0.006300*%
%ADD481R,1.511300X0.006400*%
%ADD482R,1.600200X0.006400*%
%ADD483R,1.517700X0.006300*%
%ADD484R,1.574800X0.006300*%
%ADD485R,1.524000X0.006400*%
%ADD486R,1.555800X0.006400*%
%ADD487R,1.524000X0.006300*%
%ADD488R,1.536700X0.006300*%
%ADD489R,1.530400X0.006400*%
%ADD490R,1.517700X0.006400*%
%ADD491R,1.492300X0.006300*%
%ADD492R,1.549400X0.006400*%
%ADD493R,1.479600X0.006400*%
%ADD494R,1.549400X0.006300*%
%ADD495R,1.555700X0.006400*%
%ADD496R,1.562100X0.006300*%
%ADD497R,0.323900X0.006300*%
%ADD498R,1.568400X0.006400*%
%ADD499R,0.336600X0.006400*%
%ADD500R,1.587500X0.006300*%
%ADD501R,0.971600X0.006300*%
%ADD502R,0.349300X0.006400*%
%ADD503R,1.600200X0.006300*%
%ADD504R,0.920800X0.006300*%
%ADD505R,0.882700X0.006400*%
%ADD506R,1.612900X0.006300*%
%ADD507R,0.362000X0.006300*%
%ADD508R,1.625600X0.006400*%
%ADD509R,1.625600X0.006300*%
%ADD510R,1.644600X0.006300*%
%ADD511R,0.736600X0.006300*%
%ADD512R,0.717600X0.006400*%
%ADD513R,1.657400X0.006300*%
%ADD514R,0.679500X0.006300*%
%ADD515R,1.663700X0.006400*%
%ADD516R,0.400000X0.006400*%
%ADD517R,1.676400X0.006300*%
%ADD518R,1.676400X0.006400*%
%ADD519R,0.425500X0.006400*%
%ADD520R,1.352500X0.006400*%
%ADD521R,0.444500X0.006300*%
%ADD522R,0.361900X0.006400*%
%ADD523R,0.088900X0.006300*%
%ADD524R,1.009700X0.006300*%
%ADD525R,1.009700X0.006400*%
%ADD526R,1.022300X0.006400*%
%ADD527R,1.346200X0.006400*%
%ADD528R,1.346200X0.006300*%
%ADD529R,1.339900X0.006400*%
%ADD530R,1.035100X0.006400*%
%ADD531R,1.339800X0.006300*%
%ADD532R,1.333500X0.006400*%
%ADD533R,1.327200X0.006400*%
%ADD534R,1.320800X0.006300*%
%ADD535R,1.314500X0.006400*%
%ADD536R,1.314400X0.006300*%
%ADD537R,1.301700X0.006400*%
%ADD538R,1.295400X0.006300*%
%ADD539R,1.289000X0.006400*%
%ADD540R,1.276300X0.006300*%
%ADD541R,1.251000X0.006300*%
%ADD542R,1.244600X0.006400*%
%ADD543R,1.231900X0.006300*%
%ADD544R,1.212800X0.006400*%
%ADD545R,1.200100X0.006300*%
%ADD546R,1.187400X0.006400*%
%ADD547R,1.168400X0.006300*%
%ADD548R,1.047800X0.006300*%
%ADD549R,0.977900X0.006300*%
%ADD550R,0.946200X0.006400*%
%ADD551R,0.933400X0.006400*%
%ADD552R,0.895300X0.006400*%
%ADD553R,0.882700X0.006300*%
%ADD554R,0.863600X0.006300*%
%ADD555R,0.857200X0.006400*%
%ADD556R,0.850900X0.006300*%
%ADD557R,0.838200X0.006300*%
%ADD558R,0.806500X0.006400*%
%ADD559R,0.717600X0.006300*%
%ADD560R,0.711200X0.006400*%
%ADD561R,0.641400X0.006400*%
%ADD562R,0.641400X0.006300*%
%ADD563R,0.628700X0.006300*%
%ADD564R,0.590600X0.006300*%
%ADD565R,0.539700X0.006400*%
%ADD566R,0.285700X0.006300*%
%ADD567R,0.222200X0.006300*%
%ADD568R,0.171400X0.006300*%
%ADD569R,0.152400X0.006400*%
%ADD570R,0.133400X0.006300*%
%ADD571C,0.609600*%
%ADD572R,1.000000X0.200000*%
%ADD573C,0.177800*%

G36*
X21647Y51314D02*
X21647Y51314D01*
X21665Y51312D01*
X21767Y51340D01*
X21870Y51362D01*
X21885Y51371D01*
X21902Y51376D01*
X22047Y51461D01*
X27127Y55271D01*
X27130Y55274D01*
X27134Y55276D01*
X27215Y55363D01*
X27297Y55448D01*
X27299Y55452D01*
X27302Y55455D01*
X27352Y55564D01*
X27402Y55671D01*
X27402Y55675D01*
X27404Y55679D01*
X27417Y55797D01*
X27430Y55915D01*
X27430Y55919D01*
X27430Y55924D01*
X27404Y56040D01*
X27380Y56156D01*
X27377Y56160D01*
X27376Y56164D01*
X27315Y56266D01*
X27255Y56368D01*
X27251Y56371D01*
X27249Y56374D01*
X27127Y56489D01*
X22047Y60299D01*
X22031Y60307D01*
X22018Y60320D01*
X22003Y60327D01*
X21995Y60333D01*
X21945Y60353D01*
X21922Y60364D01*
X21829Y60413D01*
X21811Y60416D01*
X21795Y60423D01*
X21690Y60435D01*
X21586Y60451D01*
X21568Y60448D01*
X21551Y60450D01*
X21448Y60428D01*
X21343Y60410D01*
X21328Y60402D01*
X21310Y60398D01*
X21220Y60344D01*
X21127Y60294D01*
X21114Y60281D01*
X21099Y60272D01*
X21030Y60192D01*
X20958Y60115D01*
X20951Y60098D01*
X20939Y60085D01*
X20900Y59987D01*
X20856Y59891D01*
X20854Y59873D01*
X20847Y59857D01*
X20829Y59690D01*
X20829Y52070D01*
X20832Y52052D01*
X20830Y52035D01*
X20851Y51931D01*
X20869Y51827D01*
X20877Y51812D01*
X20881Y51794D01*
X20934Y51703D01*
X20984Y51610D01*
X20996Y51598D01*
X21006Y51582D01*
X21085Y51513D01*
X21162Y51441D01*
X21178Y51433D01*
X21192Y51421D01*
X21289Y51381D01*
X21385Y51337D01*
X21403Y51335D01*
X21419Y51328D01*
X21525Y51321D01*
X21629Y51310D01*
X21647Y51314D01*
G37*
G36*
X29012Y169022D02*
X29012Y169022D01*
X29029Y169020D01*
X29132Y169042D01*
X29237Y169060D01*
X29252Y169068D01*
X29270Y169072D01*
X29360Y169126D01*
X29454Y169176D01*
X29466Y169189D01*
X29481Y169198D01*
X29550Y169278D01*
X29622Y169355D01*
X29629Y169372D01*
X29641Y169385D01*
X29680Y169483D01*
X29724Y169579D01*
X29726Y169597D01*
X29733Y169613D01*
X29751Y169780D01*
X29751Y177400D01*
X29749Y177417D01*
X29750Y177432D01*
X29750Y177435D01*
X29729Y177539D01*
X29712Y177643D01*
X29703Y177658D01*
X29700Y177676D01*
X29646Y177767D01*
X29596Y177860D01*
X29584Y177872D01*
X29575Y177888D01*
X29495Y177957D01*
X29418Y178030D01*
X29402Y178037D01*
X29388Y178049D01*
X29291Y178089D01*
X29195Y178133D01*
X29177Y178135D01*
X29161Y178142D01*
X29055Y178149D01*
X28951Y178160D01*
X28933Y178156D01*
X28915Y178158D01*
X28813Y178130D01*
X28740Y178114D01*
X28737Y178114D01*
X28710Y178108D01*
X28695Y178099D01*
X28678Y178094D01*
X28533Y178009D01*
X23453Y174199D01*
X23450Y174196D01*
X23447Y174194D01*
X23365Y174107D01*
X23283Y174022D01*
X23281Y174018D01*
X23278Y174015D01*
X23228Y173906D01*
X23178Y173799D01*
X23178Y173795D01*
X23176Y173791D01*
X23163Y173673D01*
X23150Y173555D01*
X23150Y173551D01*
X23150Y173546D01*
X23176Y173430D01*
X23201Y173314D01*
X23203Y173310D01*
X23204Y173306D01*
X23265Y173204D01*
X23326Y173102D01*
X23329Y173099D01*
X23331Y173096D01*
X23453Y172981D01*
X28533Y169171D01*
X28549Y169163D01*
X28562Y169151D01*
X28658Y169106D01*
X28751Y169057D01*
X28769Y169054D01*
X28785Y169047D01*
X28890Y169035D01*
X28994Y169019D01*
X29012Y169022D01*
G37*
G36*
X585492Y72902D02*
X585492Y72902D01*
X585509Y72900D01*
X585612Y72922D01*
X585717Y72940D01*
X585732Y72948D01*
X585750Y72952D01*
X585840Y73006D01*
X585934Y73056D01*
X585946Y73069D01*
X585961Y73078D01*
X586030Y73158D01*
X586102Y73235D01*
X586109Y73252D01*
X586121Y73265D01*
X586160Y73363D01*
X586204Y73459D01*
X586206Y73477D01*
X586213Y73493D01*
X586231Y73660D01*
X586231Y81280D01*
X586229Y81297D01*
X586230Y81312D01*
X586230Y81315D01*
X586209Y81419D01*
X586192Y81523D01*
X586183Y81538D01*
X586180Y81556D01*
X586126Y81647D01*
X586076Y81740D01*
X586064Y81752D01*
X586055Y81768D01*
X585975Y81837D01*
X585898Y81910D01*
X585882Y81917D01*
X585868Y81929D01*
X585771Y81969D01*
X585675Y82013D01*
X585657Y82015D01*
X585641Y82022D01*
X585535Y82029D01*
X585431Y82040D01*
X585413Y82036D01*
X585395Y82038D01*
X585293Y82010D01*
X585220Y81994D01*
X585217Y81994D01*
X585190Y81988D01*
X585175Y81979D01*
X585158Y81974D01*
X585013Y81889D01*
X579933Y78079D01*
X579930Y78076D01*
X579927Y78074D01*
X579845Y77987D01*
X579763Y77902D01*
X579761Y77898D01*
X579758Y77895D01*
X579708Y77786D01*
X579658Y77679D01*
X579658Y77675D01*
X579656Y77671D01*
X579643Y77553D01*
X579630Y77435D01*
X579630Y77431D01*
X579630Y77426D01*
X579656Y77310D01*
X579681Y77194D01*
X579683Y77190D01*
X579684Y77186D01*
X579745Y77084D01*
X579806Y76982D01*
X579809Y76979D01*
X579811Y76976D01*
X579933Y76861D01*
X585013Y73051D01*
X585029Y73043D01*
X585042Y73031D01*
X585138Y72986D01*
X585231Y72937D01*
X585249Y72934D01*
X585265Y72927D01*
X585370Y72915D01*
X585474Y72899D01*
X585492Y72902D01*
G37*
G36*
X585492Y43692D02*
X585492Y43692D01*
X585509Y43690D01*
X585612Y43712D01*
X585717Y43730D01*
X585732Y43738D01*
X585750Y43742D01*
X585840Y43796D01*
X585934Y43846D01*
X585946Y43859D01*
X585961Y43868D01*
X586030Y43948D01*
X586102Y44025D01*
X586109Y44042D01*
X586121Y44055D01*
X586160Y44153D01*
X586204Y44249D01*
X586206Y44267D01*
X586213Y44283D01*
X586231Y44450D01*
X586231Y52070D01*
X586229Y52087D01*
X586230Y52102D01*
X586230Y52105D01*
X586209Y52209D01*
X586192Y52313D01*
X586183Y52328D01*
X586180Y52346D01*
X586126Y52437D01*
X586076Y52530D01*
X586064Y52542D01*
X586055Y52558D01*
X585975Y52627D01*
X585898Y52700D01*
X585882Y52707D01*
X585868Y52719D01*
X585771Y52759D01*
X585675Y52803D01*
X585657Y52805D01*
X585641Y52812D01*
X585535Y52819D01*
X585431Y52830D01*
X585413Y52826D01*
X585395Y52828D01*
X585293Y52800D01*
X585220Y52784D01*
X585217Y52784D01*
X585190Y52778D01*
X585175Y52769D01*
X585158Y52764D01*
X585013Y52679D01*
X579933Y48869D01*
X579930Y48866D01*
X579927Y48864D01*
X579845Y48777D01*
X579763Y48692D01*
X579761Y48688D01*
X579758Y48685D01*
X579708Y48576D01*
X579658Y48469D01*
X579658Y48465D01*
X579656Y48461D01*
X579643Y48343D01*
X579630Y48225D01*
X579630Y48221D01*
X579630Y48216D01*
X579656Y48100D01*
X579681Y47984D01*
X579683Y47980D01*
X579684Y47976D01*
X579745Y47874D01*
X579806Y47772D01*
X579809Y47769D01*
X579811Y47766D01*
X579933Y47651D01*
X585013Y43841D01*
X585029Y43833D01*
X585042Y43821D01*
X585138Y43776D01*
X585231Y43727D01*
X585249Y43724D01*
X585265Y43717D01*
X585370Y43705D01*
X585474Y43689D01*
X585492Y43692D01*
G37*
G36*
X177115Y186223D02*
X177115Y186223D01*
X177186Y186221D01*
X177256Y186240D01*
X177327Y186248D01*
X177382Y186273D01*
X177461Y186293D01*
X177564Y186354D01*
X177633Y186385D01*
X180633Y188385D01*
X180720Y188462D01*
X180810Y188535D01*
X180825Y188557D01*
X180845Y188575D01*
X180907Y188672D01*
X180974Y188767D01*
X180982Y188793D01*
X180997Y188815D01*
X181029Y188926D01*
X181067Y189036D01*
X181068Y189063D01*
X181075Y189088D01*
X181075Y189204D01*
X181081Y189320D01*
X181075Y189346D01*
X181075Y189373D01*
X181043Y189484D01*
X181017Y189597D01*
X181004Y189620D01*
X180996Y189646D01*
X180934Y189744D01*
X180878Y189845D01*
X180860Y189861D01*
X180845Y189886D01*
X180637Y190071D01*
X180633Y190075D01*
X177633Y192075D01*
X177569Y192106D01*
X177509Y192146D01*
X177441Y192167D01*
X177377Y192198D01*
X177306Y192210D01*
X177238Y192231D01*
X177167Y192233D01*
X177097Y192245D01*
X177025Y192237D01*
X176954Y192239D01*
X176885Y192221D01*
X176814Y192212D01*
X176748Y192185D01*
X176679Y192167D01*
X176618Y192130D01*
X176552Y192103D01*
X176496Y192058D01*
X176434Y192022D01*
X176385Y191970D01*
X176330Y191925D01*
X176289Y191867D01*
X176240Y191814D01*
X176207Y191751D01*
X176166Y191693D01*
X176143Y191625D01*
X176110Y191561D01*
X176100Y191502D01*
X176073Y191424D01*
X176067Y191305D01*
X176055Y191230D01*
X176055Y187230D01*
X176065Y187159D01*
X176065Y187087D01*
X176085Y187019D01*
X176095Y186949D01*
X176124Y186883D01*
X176144Y186814D01*
X176182Y186754D01*
X176211Y186689D01*
X176257Y186634D01*
X176295Y186574D01*
X176349Y186526D01*
X176395Y186472D01*
X176454Y186432D01*
X176508Y186385D01*
X176572Y186354D01*
X176631Y186315D01*
X176700Y186293D01*
X176764Y186262D01*
X176834Y186250D01*
X176902Y186229D01*
X176974Y186227D01*
X177045Y186215D01*
X177115Y186223D01*
G37*
G36*
X329731Y170985D02*
X329731Y170985D01*
X329803Y170985D01*
X329871Y171005D01*
X329942Y171015D01*
X330007Y171044D01*
X330076Y171064D01*
X330136Y171102D01*
X330201Y171131D01*
X330256Y171177D01*
X330316Y171215D01*
X330364Y171269D01*
X330418Y171315D01*
X330458Y171374D01*
X330505Y171428D01*
X330536Y171492D01*
X330576Y171551D01*
X330597Y171620D01*
X330628Y171684D01*
X330640Y171754D01*
X330661Y171822D01*
X330663Y171894D01*
X330675Y171965D01*
X330667Y172035D01*
X330669Y172106D01*
X330650Y172176D01*
X330642Y172247D01*
X330617Y172302D01*
X330597Y172381D01*
X330536Y172484D01*
X330505Y172553D01*
X328505Y175553D01*
X328428Y175640D01*
X328355Y175730D01*
X328333Y175745D01*
X328315Y175765D01*
X328218Y175827D01*
X328123Y175894D01*
X328097Y175902D01*
X328075Y175917D01*
X327964Y175949D01*
X327854Y175987D01*
X327827Y175988D01*
X327802Y175995D01*
X327686Y175995D01*
X327570Y176001D01*
X327544Y175995D01*
X327517Y175995D01*
X327406Y175963D01*
X327293Y175937D01*
X327270Y175924D01*
X327244Y175916D01*
X327146Y175854D01*
X327045Y175798D01*
X327029Y175780D01*
X327004Y175765D01*
X326819Y175557D01*
X326815Y175553D01*
X324815Y172553D01*
X324784Y172489D01*
X324745Y172429D01*
X324723Y172361D01*
X324692Y172297D01*
X324680Y172226D01*
X324659Y172158D01*
X324657Y172087D01*
X324645Y172017D01*
X324653Y171945D01*
X324651Y171874D01*
X324669Y171805D01*
X324678Y171734D01*
X324705Y171668D01*
X324723Y171599D01*
X324760Y171538D01*
X324787Y171472D01*
X324832Y171416D01*
X324869Y171354D01*
X324920Y171305D01*
X324965Y171250D01*
X325024Y171209D01*
X325076Y171160D01*
X325139Y171127D01*
X325197Y171086D01*
X325265Y171063D01*
X325329Y171030D01*
X325388Y171020D01*
X325466Y170993D01*
X325585Y170987D01*
X325660Y170975D01*
X329660Y170975D01*
X329731Y170985D01*
G37*
G36*
X339891Y120185D02*
X339891Y120185D01*
X339963Y120185D01*
X340031Y120205D01*
X340102Y120215D01*
X340167Y120244D01*
X340236Y120264D01*
X340296Y120302D01*
X340361Y120331D01*
X340416Y120377D01*
X340476Y120415D01*
X340524Y120469D01*
X340578Y120515D01*
X340618Y120574D01*
X340665Y120628D01*
X340696Y120692D01*
X340736Y120751D01*
X340757Y120820D01*
X340788Y120884D01*
X340800Y120954D01*
X340821Y121022D01*
X340823Y121094D01*
X340835Y121165D01*
X340827Y121235D01*
X340829Y121306D01*
X340810Y121376D01*
X340802Y121447D01*
X340777Y121502D01*
X340757Y121581D01*
X340696Y121684D01*
X340665Y121753D01*
X338665Y124753D01*
X338588Y124840D01*
X338515Y124930D01*
X338493Y124945D01*
X338475Y124965D01*
X338378Y125027D01*
X338283Y125094D01*
X338257Y125102D01*
X338235Y125117D01*
X338124Y125149D01*
X338014Y125187D01*
X337987Y125188D01*
X337962Y125195D01*
X337846Y125195D01*
X337730Y125201D01*
X337704Y125195D01*
X337677Y125195D01*
X337566Y125163D01*
X337453Y125137D01*
X337430Y125124D01*
X337404Y125116D01*
X337306Y125054D01*
X337205Y124998D01*
X337189Y124980D01*
X337164Y124965D01*
X336979Y124757D01*
X336975Y124753D01*
X334975Y121753D01*
X334944Y121689D01*
X334905Y121629D01*
X334883Y121561D01*
X334852Y121497D01*
X334840Y121426D01*
X334819Y121358D01*
X334817Y121287D01*
X334805Y121217D01*
X334813Y121145D01*
X334811Y121074D01*
X334829Y121005D01*
X334838Y120934D01*
X334865Y120868D01*
X334883Y120799D01*
X334920Y120738D01*
X334947Y120672D01*
X334992Y120616D01*
X335029Y120554D01*
X335080Y120505D01*
X335125Y120450D01*
X335184Y120409D01*
X335236Y120360D01*
X335299Y120327D01*
X335357Y120286D01*
X335425Y120263D01*
X335489Y120230D01*
X335548Y120220D01*
X335626Y120193D01*
X335745Y120187D01*
X335820Y120175D01*
X339820Y120175D01*
X339891Y120185D01*
G37*
G36*
X325236Y69115D02*
X325236Y69115D01*
X325263Y69115D01*
X325374Y69147D01*
X325487Y69173D01*
X325510Y69186D01*
X325536Y69194D01*
X325634Y69256D01*
X325735Y69312D01*
X325751Y69330D01*
X325776Y69345D01*
X325961Y69553D01*
X325965Y69557D01*
X327965Y72557D01*
X327996Y72621D01*
X328036Y72681D01*
X328057Y72749D01*
X328088Y72813D01*
X328100Y72884D01*
X328121Y72952D01*
X328123Y73023D01*
X328135Y73094D01*
X328127Y73165D01*
X328129Y73236D01*
X328111Y73305D01*
X328102Y73376D01*
X328075Y73442D01*
X328057Y73511D01*
X328020Y73572D01*
X327993Y73638D01*
X327948Y73694D01*
X327912Y73756D01*
X327860Y73805D01*
X327815Y73860D01*
X327757Y73901D01*
X327704Y73950D01*
X327641Y73983D01*
X327583Y74024D01*
X327515Y74047D01*
X327451Y74080D01*
X327392Y74090D01*
X327314Y74117D01*
X327195Y74123D01*
X327120Y74135D01*
X323120Y74135D01*
X323049Y74125D01*
X322977Y74125D01*
X322909Y74105D01*
X322839Y74095D01*
X322773Y74066D01*
X322704Y74046D01*
X322644Y74008D01*
X322579Y73979D01*
X322524Y73933D01*
X322464Y73895D01*
X322416Y73842D01*
X322362Y73796D01*
X322322Y73736D01*
X322275Y73682D01*
X322244Y73618D01*
X322205Y73559D01*
X322183Y73491D01*
X322152Y73426D01*
X322140Y73356D01*
X322119Y73288D01*
X322117Y73216D01*
X322105Y73146D01*
X322113Y73075D01*
X322111Y73004D01*
X322130Y72934D01*
X322138Y72863D01*
X322163Y72808D01*
X322183Y72729D01*
X322244Y72626D01*
X322275Y72557D01*
X324275Y69557D01*
X324352Y69470D01*
X324425Y69380D01*
X324447Y69365D01*
X324465Y69345D01*
X324562Y69283D01*
X324657Y69216D01*
X324683Y69208D01*
X324705Y69193D01*
X324816Y69161D01*
X324926Y69123D01*
X324953Y69122D01*
X324978Y69115D01*
X325094Y69115D01*
X325210Y69109D01*
X325236Y69115D01*
G37*
G36*
X485915Y12233D02*
X485915Y12233D01*
X485986Y12231D01*
X486055Y12249D01*
X486126Y12258D01*
X486192Y12285D01*
X486261Y12303D01*
X486322Y12340D01*
X486388Y12367D01*
X486444Y12412D01*
X486506Y12449D01*
X486555Y12500D01*
X486610Y12545D01*
X486651Y12604D01*
X486700Y12656D01*
X486733Y12719D01*
X486774Y12777D01*
X486797Y12845D01*
X486830Y12909D01*
X486840Y12968D01*
X486867Y13046D01*
X486873Y13165D01*
X486885Y13240D01*
X486885Y17240D01*
X486875Y17311D01*
X486875Y17383D01*
X486855Y17451D01*
X486845Y17522D01*
X486816Y17587D01*
X486796Y17656D01*
X486758Y17716D01*
X486729Y17781D01*
X486683Y17836D01*
X486645Y17896D01*
X486592Y17944D01*
X486546Y17998D01*
X486486Y18038D01*
X486432Y18085D01*
X486368Y18116D01*
X486309Y18156D01*
X486241Y18177D01*
X486176Y18208D01*
X486106Y18220D01*
X486038Y18241D01*
X485966Y18243D01*
X485896Y18255D01*
X485825Y18247D01*
X485754Y18249D01*
X485684Y18230D01*
X485613Y18222D01*
X485558Y18197D01*
X485479Y18177D01*
X485376Y18116D01*
X485307Y18085D01*
X482307Y16085D01*
X482220Y16008D01*
X482130Y15935D01*
X482115Y15913D01*
X482095Y15895D01*
X482033Y15798D01*
X481966Y15703D01*
X481958Y15677D01*
X481943Y15655D01*
X481911Y15544D01*
X481873Y15434D01*
X481872Y15407D01*
X481865Y15382D01*
X481865Y15266D01*
X481859Y15150D01*
X481865Y15124D01*
X481865Y15097D01*
X481897Y14986D01*
X481923Y14873D01*
X481936Y14850D01*
X481944Y14824D01*
X482006Y14726D01*
X482062Y14625D01*
X482080Y14609D01*
X482095Y14584D01*
X482303Y14399D01*
X482307Y14395D01*
X485307Y12395D01*
X485371Y12364D01*
X485431Y12325D01*
X485499Y12303D01*
X485563Y12272D01*
X485634Y12260D01*
X485702Y12239D01*
X485773Y12237D01*
X485844Y12225D01*
X485915Y12233D01*
G37*
G36*
X551955Y12233D02*
X551955Y12233D01*
X552026Y12231D01*
X552095Y12249D01*
X552166Y12258D01*
X552232Y12285D01*
X552301Y12303D01*
X552362Y12340D01*
X552428Y12367D01*
X552484Y12412D01*
X552546Y12449D01*
X552595Y12500D01*
X552650Y12545D01*
X552691Y12604D01*
X552740Y12656D01*
X552773Y12719D01*
X552814Y12777D01*
X552837Y12845D01*
X552870Y12909D01*
X552880Y12968D01*
X552907Y13046D01*
X552913Y13165D01*
X552925Y13240D01*
X552925Y17240D01*
X552915Y17311D01*
X552915Y17383D01*
X552895Y17451D01*
X552885Y17522D01*
X552856Y17587D01*
X552836Y17656D01*
X552798Y17716D01*
X552769Y17781D01*
X552723Y17836D01*
X552685Y17896D01*
X552632Y17944D01*
X552586Y17998D01*
X552526Y18038D01*
X552472Y18085D01*
X552408Y18116D01*
X552349Y18156D01*
X552281Y18177D01*
X552216Y18208D01*
X552146Y18220D01*
X552078Y18241D01*
X552006Y18243D01*
X551936Y18255D01*
X551865Y18247D01*
X551794Y18249D01*
X551724Y18230D01*
X551653Y18222D01*
X551598Y18197D01*
X551519Y18177D01*
X551416Y18116D01*
X551347Y18085D01*
X548347Y16085D01*
X548260Y16008D01*
X548170Y15935D01*
X548155Y15913D01*
X548135Y15895D01*
X548073Y15798D01*
X548006Y15703D01*
X547998Y15677D01*
X547983Y15655D01*
X547951Y15544D01*
X547913Y15434D01*
X547912Y15407D01*
X547905Y15382D01*
X547905Y15266D01*
X547899Y15150D01*
X547905Y15124D01*
X547905Y15097D01*
X547937Y14986D01*
X547963Y14873D01*
X547976Y14850D01*
X547984Y14824D01*
X548046Y14726D01*
X548102Y14625D01*
X548120Y14609D01*
X548135Y14584D01*
X548343Y14399D01*
X548347Y14395D01*
X551347Y12395D01*
X551411Y12364D01*
X551471Y12325D01*
X551539Y12303D01*
X551603Y12272D01*
X551674Y12260D01*
X551742Y12239D01*
X551813Y12237D01*
X551884Y12225D01*
X551955Y12233D01*
G37*
D10*
X202502Y206383D02*
X202502Y198968D01*
X203985Y197485D01*
X206951Y197485D01*
X208434Y198968D01*
X208434Y206383D01*
X216306Y206383D02*
X217789Y204900D01*
X216306Y206383D02*
X213340Y206383D01*
X211857Y204900D01*
X211857Y203417D01*
X213340Y201934D01*
X216306Y201934D01*
X217789Y200451D01*
X217789Y198968D01*
X216306Y197485D01*
X213340Y197485D01*
X211857Y198968D01*
X221213Y197485D02*
X221213Y206383D01*
X225661Y206383D01*
X227144Y204900D01*
X227144Y203417D01*
X225661Y201934D01*
X227144Y200451D01*
X227144Y198968D01*
X225661Y197485D01*
X221213Y197485D01*
X221213Y201934D02*
X225661Y201934D01*
X51372Y34933D02*
X51372Y26035D01*
X51372Y34933D02*
X55821Y34933D01*
X57304Y33450D01*
X57304Y30484D01*
X55821Y29001D01*
X51372Y29001D01*
X54338Y29001D02*
X57304Y26035D01*
X65176Y34933D02*
X66659Y33450D01*
X65176Y34933D02*
X62210Y34933D01*
X60727Y33450D01*
X60727Y31967D01*
X62210Y30484D01*
X65176Y30484D01*
X66659Y29001D01*
X66659Y27518D01*
X65176Y26035D01*
X62210Y26035D01*
X60727Y27518D01*
X73048Y26035D02*
X73048Y34933D01*
X70083Y34933D02*
X76014Y34933D01*
X102461Y31967D02*
X102461Y26035D01*
X102461Y31967D02*
X105427Y34933D01*
X108393Y31967D01*
X108393Y26035D01*
X108393Y30484D02*
X102461Y30484D01*
X111817Y26035D02*
X111817Y34933D01*
X116265Y34933D01*
X117748Y33450D01*
X117748Y30484D01*
X116265Y29001D01*
X111817Y29001D01*
X114782Y29001D02*
X117748Y26035D01*
X122655Y26035D02*
X122655Y33450D01*
X124138Y34933D01*
X124138Y30484D02*
X121172Y30484D01*
X82933Y34933D02*
X81450Y33450D01*
X82933Y34933D02*
X85899Y34933D01*
X87382Y33450D01*
X87382Y31967D01*
X85899Y30484D01*
X84416Y30484D01*
X85899Y30484D02*
X87382Y29001D01*
X87382Y27518D01*
X85899Y26035D01*
X82933Y26035D01*
X81450Y27518D01*
X90805Y29001D02*
X90805Y34933D01*
X90805Y29001D02*
X93771Y26035D01*
X96737Y29001D01*
X96737Y34933D01*
X290613Y26840D02*
X296545Y26840D01*
X290613Y26840D02*
X287647Y29806D01*
X290613Y32772D01*
X296545Y32772D01*
X292096Y32772D02*
X292096Y26840D01*
X287647Y36195D02*
X287647Y42127D01*
X287647Y36195D02*
X292096Y36195D01*
X290613Y39161D01*
X290613Y40644D01*
X292096Y42127D01*
X295062Y42127D01*
X296545Y40644D01*
X296545Y37678D01*
X295062Y36195D01*
X271145Y26840D02*
X265213Y26840D01*
X262247Y29806D01*
X265213Y32772D01*
X271145Y32772D01*
X266696Y32772D02*
X266696Y26840D01*
X271145Y40644D02*
X262247Y40644D01*
X266696Y36195D01*
X266696Y42127D01*
X245745Y26840D02*
X239813Y26840D01*
X236847Y29806D01*
X239813Y32772D01*
X245745Y32772D01*
X241296Y32772D02*
X241296Y26840D01*
X238330Y36195D02*
X236847Y37678D01*
X236847Y40644D01*
X238330Y42127D01*
X239813Y42127D01*
X241296Y40644D01*
X241296Y39161D01*
X241296Y40644D02*
X242779Y42127D01*
X244262Y42127D01*
X245745Y40644D01*
X245745Y37678D01*
X244262Y36195D01*
X220345Y26840D02*
X214413Y26840D01*
X211447Y29806D01*
X214413Y32772D01*
X220345Y32772D01*
X215896Y32772D02*
X215896Y26840D01*
X220345Y36195D02*
X220345Y42127D01*
X220345Y36195D02*
X214413Y42127D01*
X212930Y42127D01*
X211447Y40644D01*
X211447Y37678D01*
X212930Y36195D01*
X193675Y26840D02*
X187743Y26840D01*
X184777Y29806D01*
X187743Y32772D01*
X193675Y32772D01*
X189226Y32772D02*
X189226Y26840D01*
X187743Y36195D02*
X184777Y39161D01*
X193675Y39161D01*
X193675Y36195D02*
X193675Y42127D01*
X168275Y26840D02*
X162343Y26840D01*
X159377Y29806D01*
X162343Y32772D01*
X168275Y32772D01*
X163826Y32772D02*
X163826Y26840D01*
X166792Y36195D02*
X160860Y36195D01*
X159377Y37678D01*
X159377Y40644D01*
X160860Y42127D01*
X166792Y42127D01*
X168275Y40644D01*
X168275Y37678D01*
X166792Y36195D01*
X160860Y42127D01*
X239813Y186860D02*
X236847Y189826D01*
X245745Y189826D01*
X245745Y186860D02*
X245745Y192792D01*
X238330Y196215D02*
X236847Y197698D01*
X236847Y200664D01*
X238330Y202147D01*
X239813Y202147D01*
X241296Y200664D01*
X241296Y199181D01*
X241296Y200664D02*
X242779Y202147D01*
X244262Y202147D01*
X245745Y200664D01*
X245745Y197698D01*
X244262Y196215D01*
X287647Y189826D02*
X290613Y186860D01*
X287647Y189826D02*
X296545Y189826D01*
X296545Y186860D02*
X296545Y192792D01*
X290613Y196215D02*
X287647Y199181D01*
X296545Y199181D01*
X296545Y196215D02*
X296545Y202147D01*
X313047Y189826D02*
X316013Y186860D01*
X313047Y189826D02*
X321945Y189826D01*
X321945Y186860D02*
X321945Y192792D01*
X320462Y196215D02*
X314530Y196215D01*
X313047Y197698D01*
X313047Y200664D01*
X314530Y202147D01*
X320462Y202147D01*
X321945Y200664D01*
X321945Y197698D01*
X320462Y196215D01*
X314530Y202147D01*
X345862Y195347D02*
X347345Y196830D01*
X347345Y199796D01*
X345862Y201279D01*
X339930Y201279D01*
X338447Y199796D01*
X338447Y196830D01*
X339930Y195347D01*
X341413Y195347D01*
X342896Y196830D01*
X342896Y201279D01*
X308180Y31904D02*
X306697Y30421D01*
X306697Y27455D01*
X308180Y25972D01*
X309663Y25972D01*
X311146Y27455D01*
X311146Y30421D01*
X312629Y31904D01*
X314112Y31904D01*
X315595Y30421D01*
X315595Y27455D01*
X314112Y25972D01*
X306697Y39776D02*
X308180Y41259D01*
X306697Y39776D02*
X306697Y36810D01*
X308180Y35327D01*
X314112Y35327D01*
X315595Y36810D01*
X315595Y39776D01*
X314112Y41259D01*
X315595Y44683D02*
X306697Y44683D01*
X306697Y50614D02*
X312629Y44683D01*
X311146Y46166D02*
X315595Y50614D01*
X329557Y24300D02*
X338455Y24300D01*
X332523Y27266D02*
X329557Y24300D01*
X332523Y27266D02*
X329557Y30232D01*
X338455Y30232D01*
X329557Y35138D02*
X329557Y38104D01*
X329557Y35138D02*
X331040Y33655D01*
X336972Y33655D01*
X338455Y35138D01*
X338455Y38104D01*
X336972Y39587D01*
X331040Y39587D01*
X329557Y38104D01*
X344797Y30308D02*
X346280Y31791D01*
X344797Y30308D02*
X344797Y27342D01*
X346280Y25859D01*
X347763Y25859D01*
X349246Y27342D01*
X349246Y30308D01*
X350729Y31791D01*
X352212Y31791D01*
X353695Y30308D01*
X353695Y27342D01*
X352212Y25859D01*
X353695Y35214D02*
X353695Y38180D01*
X353695Y36697D02*
X344797Y36697D01*
X344797Y35214D02*
X344797Y38180D01*
X357497Y25859D02*
X366395Y25859D01*
X360463Y28825D02*
X357497Y25859D01*
X360463Y28825D02*
X357497Y31791D01*
X366395Y31791D01*
X366395Y35214D02*
X366395Y38180D01*
X366395Y36697D02*
X357497Y36697D01*
X357497Y35214D02*
X357497Y38180D01*
X372737Y28749D02*
X374220Y30232D01*
X372737Y28749D02*
X372737Y25783D01*
X374220Y24300D01*
X375703Y24300D01*
X377186Y25783D01*
X377186Y28749D01*
X378669Y30232D01*
X380152Y30232D01*
X381635Y28749D01*
X381635Y25783D01*
X380152Y24300D01*
X372737Y35138D02*
X372737Y38104D01*
X372737Y35138D02*
X374220Y33655D01*
X380152Y33655D01*
X381635Y35138D01*
X381635Y38104D01*
X380152Y39587D01*
X374220Y39587D01*
X372737Y38104D01*
D11*
X156922Y198374D02*
X156922Y205492D01*
X160481Y205492D01*
X161667Y204306D01*
X161667Y203119D01*
X160481Y201933D01*
X161667Y200747D01*
X161667Y199560D01*
X160481Y198374D01*
X156922Y198374D01*
X156922Y201933D02*
X160481Y201933D01*
X164406Y203119D02*
X164406Y198374D01*
X164406Y203119D02*
X166779Y205492D01*
X169151Y203119D01*
X169151Y198374D01*
X169151Y201933D02*
X164406Y201933D01*
X174263Y198374D02*
X174263Y205492D01*
X176635Y205492D02*
X171890Y205492D01*
D10*
X262247Y189826D02*
X265213Y186860D01*
X262247Y189826D02*
X271145Y189826D01*
X271145Y186860D02*
X271145Y192792D01*
X271145Y196215D02*
X271145Y202147D01*
X271145Y196215D02*
X265213Y202147D01*
X263730Y202147D01*
X262247Y200664D01*
X262247Y197698D01*
X263730Y196215D01*
X362577Y201279D02*
X364060Y198313D01*
X367026Y195347D01*
X369992Y195347D01*
X371475Y196830D01*
X371475Y199796D01*
X369992Y201279D01*
X368509Y201279D01*
X367026Y199796D01*
X367026Y195347D01*
X133504Y33450D02*
X132021Y34933D01*
X129055Y34933D01*
X127572Y33450D01*
X127572Y27518D01*
X129055Y26035D01*
X132021Y26035D01*
X133504Y27518D01*
X133504Y30484D01*
X130538Y30484D01*
X136927Y26035D02*
X136927Y34933D01*
X142859Y26035D01*
X142859Y34933D01*
X146283Y34933D02*
X146283Y26035D01*
X150731Y26035D01*
X152214Y27518D01*
X152214Y33450D01*
X150731Y34933D01*
X146283Y34933D01*
X57785Y169695D02*
X48887Y169695D01*
X48887Y172661D02*
X57785Y172661D01*
X51853Y172661D02*
X51853Y168212D01*
X51853Y172661D02*
X51853Y174144D01*
X54819Y174144D02*
X54819Y168212D01*
X51853Y177567D02*
X48887Y180533D01*
X57785Y180533D01*
X57785Y177567D02*
X57785Y183499D01*
X50370Y186923D02*
X48887Y188406D01*
X48887Y191371D01*
X50370Y192854D01*
X51853Y192854D01*
X53336Y191371D01*
X53336Y189888D01*
X53336Y191371D02*
X54819Y192854D01*
X56302Y192854D01*
X57785Y191371D01*
X57785Y188406D01*
X56302Y186923D01*
D11*
X183524Y205492D02*
X188269Y205492D01*
X183524Y205492D02*
X183524Y198374D01*
X188269Y198374D01*
X185897Y201933D02*
X183524Y201933D01*
X191008Y203119D02*
X191008Y198374D01*
X191008Y203119D02*
X194567Y203119D01*
X195753Y201933D01*
X195753Y198374D01*
X308942Y192262D02*
X310128Y191076D01*
X308942Y192262D02*
X311314Y194635D01*
X310128Y195821D01*
D10*
X331884Y198100D02*
X333367Y196617D01*
X331884Y198100D02*
X334850Y201066D01*
X333367Y202549D01*
X118745Y81852D02*
X109847Y81852D01*
X109847Y86301D01*
X111330Y87784D01*
X114296Y87784D01*
X115779Y86301D01*
X115779Y81852D01*
X115779Y84818D02*
X118745Y87784D01*
X109847Y95656D02*
X111330Y97139D01*
X109847Y95656D02*
X109847Y92690D01*
X111330Y91207D01*
X112813Y91207D01*
X114296Y92690D01*
X114296Y95656D01*
X115779Y97139D01*
X117262Y97139D01*
X118745Y95656D01*
X118745Y92690D01*
X117262Y91207D01*
X118745Y103528D02*
X109847Y103528D01*
X109847Y100563D02*
X109847Y106494D01*
D12*
X191706Y169037D02*
X191706Y178951D01*
X198315Y178951D01*
X195010Y173994D02*
X191706Y173994D01*
X203883Y169037D02*
X207187Y169037D01*
X203883Y169037D02*
X202230Y170689D01*
X202230Y173994D01*
X203883Y175647D01*
X207187Y175647D01*
X208840Y173994D01*
X208840Y172342D01*
X202230Y172342D01*
X214407Y175647D02*
X217712Y175647D01*
X219364Y173994D01*
X219364Y169037D01*
X214407Y169037D01*
X212755Y170689D01*
X214407Y172342D01*
X219364Y172342D01*
X224932Y170689D02*
X224932Y177299D01*
X224932Y170689D02*
X226584Y169037D01*
X226584Y175647D02*
X223279Y175647D01*
X230296Y178951D02*
X230296Y169037D01*
X230296Y173994D02*
X231948Y175647D01*
X235253Y175647D01*
X236905Y173994D01*
X236905Y169037D01*
X242473Y169037D02*
X245778Y169037D01*
X242473Y169037D02*
X240820Y170689D01*
X240820Y173994D01*
X242473Y175647D01*
X245778Y175647D01*
X247430Y173994D01*
X247430Y172342D01*
X240820Y172342D01*
X251345Y169037D02*
X251345Y175647D01*
X251345Y172342D02*
X254650Y175647D01*
X256302Y175647D01*
X270640Y177299D02*
X272292Y178951D01*
X275597Y178951D01*
X277250Y177299D01*
X277250Y175647D01*
X275597Y173994D01*
X273945Y173994D01*
X275597Y173994D02*
X277250Y172342D01*
X277250Y170689D01*
X275597Y169037D01*
X272292Y169037D01*
X270640Y170689D01*
X281165Y169037D02*
X287774Y169037D01*
X281165Y169037D02*
X287774Y175647D01*
X287774Y177299D01*
X286122Y178951D01*
X282817Y178951D01*
X281165Y177299D01*
X291689Y175647D02*
X291689Y170689D01*
X293342Y169037D01*
X298299Y169037D01*
X298299Y175647D01*
X307171Y178951D02*
X307171Y169037D01*
X302214Y173994D02*
X307171Y178951D01*
X308823Y173994D02*
X302214Y173994D01*
D10*
X48414Y57580D02*
X46931Y59063D01*
X43965Y59063D01*
X42482Y57580D01*
X42482Y51648D01*
X43965Y50165D01*
X46931Y50165D01*
X48414Y51648D01*
X51837Y50165D02*
X51837Y59063D01*
X51837Y54614D02*
X57769Y54614D01*
X57769Y59063D02*
X57769Y50165D01*
X65641Y59063D02*
X67124Y57580D01*
X65641Y59063D02*
X62676Y59063D01*
X61193Y57580D01*
X61193Y51648D01*
X62676Y50165D01*
X65641Y50165D01*
X67124Y51648D01*
X67124Y54614D01*
X64158Y54614D01*
X380357Y195347D02*
X380357Y201279D01*
X380357Y195347D02*
X384806Y195347D01*
X383323Y198313D01*
X383323Y199796D01*
X384806Y201279D01*
X387772Y201279D01*
X389255Y199796D01*
X389255Y196830D01*
X387772Y195347D01*
X404065Y220980D02*
X402582Y222463D01*
X402582Y225429D01*
X404065Y226912D01*
X405548Y226912D01*
X407031Y225429D01*
X407031Y223946D01*
X407031Y225429D02*
X408514Y226912D01*
X409997Y226912D01*
X411480Y225429D01*
X411480Y222463D01*
X409997Y220980D01*
X435610Y221615D02*
X435610Y227547D01*
X435610Y221615D02*
X429678Y227547D01*
X428195Y227547D01*
X426712Y226064D01*
X426712Y223098D01*
X428195Y221615D01*
X426712Y5506D02*
X429678Y2540D01*
X426712Y5506D02*
X435610Y5506D01*
X435610Y2540D02*
X435610Y8472D01*
X409362Y1905D02*
X403430Y1905D01*
X401947Y3388D01*
X401947Y6354D01*
X403430Y7837D01*
X409362Y7837D01*
X410845Y6354D01*
X410845Y3388D01*
X409362Y1905D01*
X403430Y7837D01*
D11*
X453384Y1778D02*
X460502Y1778D01*
X458129Y1778D02*
X453384Y6523D01*
X456943Y2964D02*
X460502Y6523D01*
X460502Y10449D02*
X460502Y12821D01*
X460502Y10449D02*
X459316Y9262D01*
X456943Y9262D01*
X455757Y10449D01*
X455757Y12821D01*
X456943Y14008D01*
X458129Y14008D01*
X458129Y9262D01*
X459316Y16746D02*
X455757Y16746D01*
X459316Y16746D02*
X460502Y17933D01*
X460502Y21492D01*
X461688Y21492D02*
X455757Y21492D01*
X461688Y21492D02*
X462875Y20305D01*
X462875Y19119D01*
X322837Y145288D02*
X319278Y145288D01*
X322837Y145288D02*
X324023Y146474D01*
X322837Y147661D01*
X320464Y147661D01*
X319278Y148847D01*
X320464Y150033D01*
X324023Y150033D01*
X326762Y150033D02*
X326762Y142915D01*
X326762Y150033D02*
X330321Y150033D01*
X331508Y148847D01*
X331508Y146474D01*
X330321Y145288D01*
X326762Y145288D01*
X334246Y145288D02*
X334246Y152406D01*
X334246Y147661D02*
X337805Y145288D01*
X334246Y147661D02*
X337805Y150033D01*
X350075Y186693D02*
X354820Y186693D01*
X352448Y189066D02*
X352448Y184320D01*
X357559Y183134D02*
X357559Y187879D01*
X358745Y187879D01*
X359932Y186693D01*
X359932Y183134D01*
X359932Y186693D02*
X361118Y187879D01*
X362305Y186693D01*
X362305Y183134D01*
X365043Y187879D02*
X366230Y187879D01*
X366230Y183134D01*
X367416Y183134D02*
X365043Y183134D01*
X366230Y190252D02*
X366230Y191438D01*
X371219Y187879D02*
X374778Y187879D01*
X371219Y187879D02*
X370033Y186693D01*
X370033Y184320D01*
X371219Y183134D01*
X374778Y183134D01*
X377517Y186693D02*
X382262Y186693D01*
X357043Y136147D02*
X352298Y136147D01*
X354671Y138520D02*
X354671Y133774D01*
X367266Y136147D02*
X372012Y136147D01*
D12*
X554482Y91948D02*
X563125Y91948D01*
X563125Y87626D01*
X561685Y86186D01*
X558804Y86186D01*
X557363Y87626D01*
X557363Y91948D01*
X554482Y82593D02*
X563125Y82593D01*
X557363Y79712D02*
X554482Y82593D01*
X557363Y79712D02*
X554482Y76831D01*
X563125Y76831D01*
X563125Y73238D02*
X554482Y73238D01*
X563125Y73238D02*
X563125Y68916D01*
X561685Y67475D01*
X558804Y67475D01*
X557363Y68916D01*
X557363Y73238D01*
X557363Y70357D02*
X554482Y67475D01*
X554482Y54483D02*
X563634Y54483D01*
X554482Y48382D01*
X563634Y48382D01*
X563634Y44660D02*
X563634Y38559D01*
X563634Y44660D02*
X554482Y44660D01*
X554482Y38559D01*
X559058Y41609D02*
X559058Y44660D01*
X554482Y31787D02*
X563634Y31787D01*
X563634Y34837D02*
X563634Y28736D01*
X229903Y153797D02*
X229903Y163711D01*
X236512Y163711D01*
X233208Y158754D02*
X229903Y158754D01*
X242080Y163711D02*
X245385Y163711D01*
X242080Y163711D02*
X240427Y162059D01*
X240427Y155449D01*
X242080Y153797D01*
X245385Y153797D01*
X247037Y155449D01*
X247037Y162059D01*
X245385Y163711D01*
X250952Y163711D02*
X250952Y153797D01*
X257562Y153797D02*
X250952Y163711D01*
X257562Y163711D02*
X257562Y153797D01*
X261477Y153797D02*
X261477Y160407D01*
X264781Y163711D01*
X268086Y160407D01*
X268086Y153797D01*
X268086Y158754D02*
X261477Y158754D01*
D10*
X283837Y190267D02*
X282354Y191750D01*
X285320Y194716D01*
X283837Y196199D01*
X303313Y71891D02*
X303313Y68925D01*
X303313Y71891D02*
X304796Y73374D01*
X309245Y73374D01*
X309245Y68925D01*
X307762Y67442D01*
X306279Y68925D01*
X306279Y73374D01*
X309245Y82729D02*
X300347Y82729D01*
X309245Y82729D02*
X309245Y78280D01*
X307762Y76797D01*
X304796Y76797D01*
X303313Y78280D01*
X303313Y82729D01*
X303313Y87636D02*
X303313Y90601D01*
X304796Y92084D01*
X309245Y92084D01*
X309245Y87636D01*
X307762Y86153D01*
X306279Y87636D01*
X306279Y92084D01*
X309245Y96991D02*
X301830Y96991D01*
X300347Y98474D01*
X304796Y98474D02*
X304796Y95508D01*
X303313Y101745D02*
X309245Y101745D01*
X306279Y101745D02*
X303313Y104710D01*
X303313Y106193D01*
X303313Y109541D02*
X307762Y109541D01*
X309245Y111023D01*
X309245Y115472D01*
X303313Y115472D01*
X303313Y118896D02*
X303313Y120379D01*
X309245Y120379D01*
X309245Y118896D02*
X309245Y121862D01*
X300347Y120379D02*
X298864Y120379D01*
X301830Y126615D02*
X307762Y126615D01*
X309245Y128098D01*
X303313Y128098D02*
X303313Y125133D01*
X307762Y131369D02*
X309245Y131369D01*
X304796Y131369D02*
X298864Y131369D01*
D13*
X85960Y129590D02*
X75800Y129590D01*
D12*
X62410Y126883D02*
X61308Y125782D01*
X61308Y123579D01*
X62410Y122477D01*
X66816Y122477D01*
X67918Y123579D01*
X67918Y125782D01*
X66816Y126883D01*
X62410Y132164D02*
X61308Y134368D01*
X62410Y132164D02*
X64613Y129961D01*
X66816Y129961D01*
X67918Y131063D01*
X67918Y133266D01*
X66816Y134368D01*
X65715Y134368D01*
X64613Y133266D01*
X64613Y129961D01*
X188092Y176942D02*
X189193Y175840D01*
X188092Y176942D02*
X185889Y176942D01*
X184787Y175840D01*
X184787Y171434D01*
X185889Y170332D01*
X188092Y170332D01*
X189193Y171434D01*
X192271Y176942D02*
X196678Y176942D01*
X196678Y175840D01*
X192271Y171434D01*
X192271Y170332D01*
D13*
X148740Y116240D02*
X138580Y116240D01*
D12*
X139634Y96784D02*
X140735Y95682D01*
X139634Y96784D02*
X137430Y96784D01*
X136329Y95682D01*
X136329Y91276D01*
X137430Y90174D01*
X139634Y90174D01*
X140735Y91276D01*
X143813Y95682D02*
X144914Y96784D01*
X147118Y96784D01*
X148219Y95682D01*
X148219Y94580D01*
X147118Y93479D01*
X148219Y92377D01*
X148219Y91276D01*
X147118Y90174D01*
X144914Y90174D01*
X143813Y91276D01*
X143813Y92377D01*
X144914Y93479D01*
X143813Y94580D01*
X143813Y95682D01*
X144914Y93479D02*
X147118Y93479D01*
X103272Y102172D02*
X103272Y108782D01*
X106577Y108782D01*
X107678Y107680D01*
X107678Y105477D01*
X106577Y104375D01*
X103272Y104375D01*
X105475Y104375D02*
X107678Y102172D01*
X114061Y102172D02*
X114061Y108782D01*
X110756Y105477D01*
X115163Y105477D01*
X102580Y94889D02*
X102580Y88279D01*
X102580Y94889D02*
X105885Y94889D01*
X106986Y93787D01*
X106986Y91584D01*
X105885Y90482D01*
X102580Y90482D01*
X104783Y90482D02*
X106986Y88279D01*
X110064Y94889D02*
X114470Y94889D01*
X110064Y94889D02*
X110064Y91584D01*
X112267Y92685D01*
X113369Y92685D01*
X114470Y91584D01*
X114470Y89380D01*
X113369Y88279D01*
X111166Y88279D01*
X110064Y89380D01*
D14*
X295688Y149556D02*
X295688Y159716D01*
D12*
X265568Y154048D02*
X264467Y155150D01*
X262263Y155150D01*
X261162Y154048D01*
X261162Y149642D01*
X262263Y148540D01*
X264467Y148540D01*
X265568Y149642D01*
X268646Y149642D02*
X269747Y148540D01*
X271951Y148540D01*
X273052Y149642D01*
X273052Y154048D01*
X271951Y155150D01*
X269747Y155150D01*
X268646Y154048D01*
X268646Y152946D01*
X269747Y151845D01*
X273052Y151845D01*
D15*
X24093Y173590D03*
D12*
X37508Y162674D02*
X37508Y156064D01*
X41914Y156064D01*
D16*
X197132Y71696D02*
X197134Y71767D01*
X197140Y71838D01*
X197150Y71909D01*
X197164Y71979D01*
X197182Y72048D01*
X197203Y72115D01*
X197229Y72182D01*
X197258Y72247D01*
X197290Y72310D01*
X197327Y72372D01*
X197366Y72431D01*
X197409Y72488D01*
X197455Y72542D01*
X197504Y72594D01*
X197556Y72643D01*
X197610Y72689D01*
X197667Y72732D01*
X197726Y72771D01*
X197788Y72808D01*
X197851Y72840D01*
X197916Y72869D01*
X197983Y72895D01*
X198050Y72916D01*
X198119Y72934D01*
X198189Y72948D01*
X198260Y72958D01*
X198331Y72964D01*
X198402Y72966D01*
X198473Y72964D01*
X198544Y72958D01*
X198615Y72948D01*
X198685Y72934D01*
X198754Y72916D01*
X198821Y72895D01*
X198888Y72869D01*
X198953Y72840D01*
X199016Y72808D01*
X199078Y72771D01*
X199137Y72732D01*
X199194Y72689D01*
X199248Y72643D01*
X199300Y72594D01*
X199349Y72542D01*
X199395Y72488D01*
X199438Y72431D01*
X199477Y72372D01*
X199514Y72310D01*
X199546Y72247D01*
X199575Y72182D01*
X199601Y72115D01*
X199622Y72048D01*
X199640Y71979D01*
X199654Y71909D01*
X199664Y71838D01*
X199670Y71767D01*
X199672Y71696D01*
X199670Y71625D01*
X199664Y71554D01*
X199654Y71483D01*
X199640Y71413D01*
X199622Y71344D01*
X199601Y71277D01*
X199575Y71210D01*
X199546Y71145D01*
X199514Y71082D01*
X199477Y71020D01*
X199438Y70961D01*
X199395Y70904D01*
X199349Y70850D01*
X199300Y70798D01*
X199248Y70749D01*
X199194Y70703D01*
X199137Y70660D01*
X199078Y70621D01*
X199016Y70584D01*
X198953Y70552D01*
X198888Y70523D01*
X198821Y70497D01*
X198754Y70476D01*
X198685Y70458D01*
X198615Y70444D01*
X198544Y70434D01*
X198473Y70428D01*
X198402Y70426D01*
X198331Y70428D01*
X198260Y70434D01*
X198189Y70444D01*
X198119Y70458D01*
X198050Y70476D01*
X197983Y70497D01*
X197916Y70523D01*
X197851Y70552D01*
X197788Y70584D01*
X197726Y70621D01*
X197667Y70660D01*
X197610Y70703D01*
X197556Y70749D01*
X197504Y70798D01*
X197455Y70850D01*
X197409Y70904D01*
X197366Y70961D01*
X197327Y71020D01*
X197290Y71082D01*
X197258Y71145D01*
X197229Y71210D01*
X197203Y71277D01*
X197182Y71344D01*
X197164Y71413D01*
X197150Y71483D01*
X197140Y71554D01*
X197134Y71625D01*
X197132Y71696D01*
D10*
X201182Y147016D02*
X209182Y147016D01*
X201182Y147016D02*
X201182Y139016D01*
X265182Y147016D02*
X273182Y147016D01*
X273182Y139016D01*
X201182Y83016D02*
X201182Y75016D01*
X209182Y75016D01*
X273182Y75016D02*
X273182Y83016D01*
X273182Y75016D02*
X265182Y75016D01*
D12*
X205267Y181628D02*
X199844Y181628D01*
X202555Y181628D02*
X202555Y197898D01*
X199844Y197898D02*
X205267Y197898D01*
X218893Y197898D02*
X221605Y195186D01*
X218893Y197898D02*
X213470Y197898D01*
X210758Y195186D01*
X210758Y184340D01*
X213470Y181628D01*
X218893Y181628D01*
X221605Y184340D01*
X227130Y192475D02*
X232553Y197898D01*
X232553Y181628D01*
X227130Y181628D02*
X237976Y181628D01*
X131575Y48278D02*
X132676Y47176D01*
X131575Y48278D02*
X129372Y48278D01*
X128270Y47176D01*
X128270Y42770D01*
X129372Y41668D01*
X131575Y41668D01*
X132676Y42770D01*
X135754Y46074D02*
X137957Y48278D01*
X137957Y41668D01*
X135754Y41668D02*
X140161Y41668D01*
X146543Y41668D02*
X146543Y48278D01*
X143238Y44973D01*
X147645Y44973D01*
X63246Y175024D02*
X56636Y175024D01*
X56636Y178329D01*
X57738Y179430D01*
X59941Y179430D01*
X61043Y178329D01*
X61043Y175024D01*
X61043Y177227D02*
X63246Y179430D01*
X56636Y182508D02*
X56636Y186914D01*
X57738Y186914D01*
X62144Y182508D01*
X63246Y182508D01*
D10*
X72980Y50770D02*
X114980Y50770D01*
X72980Y50770D02*
X72980Y78770D01*
X114980Y78770D01*
X114980Y50770D01*
X104980Y66770D02*
X104978Y66922D01*
X104972Y67074D01*
X104963Y67226D01*
X104949Y67377D01*
X104932Y67528D01*
X104911Y67679D01*
X104886Y67829D01*
X104857Y67978D01*
X104825Y68126D01*
X104788Y68274D01*
X104749Y68421D01*
X104705Y68566D01*
X104657Y68711D01*
X104607Y68854D01*
X104552Y68996D01*
X104494Y69136D01*
X104432Y69275D01*
X104367Y69412D01*
X104298Y69548D01*
X104226Y69682D01*
X104151Y69814D01*
X104072Y69944D01*
X103990Y70072D01*
X103905Y70198D01*
X103816Y70321D01*
X103725Y70443D01*
X103630Y70562D01*
X103533Y70678D01*
X103432Y70792D01*
X103329Y70904D01*
X103223Y71013D01*
X103114Y71119D01*
X103002Y71222D01*
X102888Y71323D01*
X102772Y71420D01*
X102653Y71515D01*
X102531Y71606D01*
X102408Y71695D01*
X102282Y71780D01*
X102154Y71862D01*
X102024Y71941D01*
X101892Y72016D01*
X101758Y72088D01*
X101622Y72157D01*
X101485Y72222D01*
X101346Y72284D01*
X101206Y72342D01*
X101064Y72397D01*
X100921Y72447D01*
X100776Y72495D01*
X100631Y72539D01*
X100484Y72578D01*
X100336Y72615D01*
X100188Y72647D01*
X100039Y72676D01*
X99889Y72701D01*
X99738Y72722D01*
X99587Y72739D01*
X99436Y72753D01*
X99284Y72762D01*
X99132Y72768D01*
X98980Y72770D01*
X104980Y66770D02*
X104980Y62770D01*
X104978Y62618D01*
X104972Y62466D01*
X104963Y62314D01*
X104949Y62163D01*
X104932Y62012D01*
X104911Y61861D01*
X104886Y61711D01*
X104857Y61562D01*
X104825Y61414D01*
X104788Y61266D01*
X104749Y61119D01*
X104705Y60974D01*
X104657Y60829D01*
X104607Y60686D01*
X104552Y60544D01*
X104494Y60404D01*
X104432Y60265D01*
X104367Y60128D01*
X104298Y59992D01*
X104226Y59858D01*
X104151Y59726D01*
X104072Y59596D01*
X103990Y59468D01*
X103905Y59342D01*
X103816Y59219D01*
X103725Y59097D01*
X103630Y58978D01*
X103533Y58862D01*
X103432Y58748D01*
X103329Y58636D01*
X103223Y58527D01*
X103114Y58421D01*
X103002Y58318D01*
X102888Y58217D01*
X102772Y58120D01*
X102653Y58025D01*
X102531Y57934D01*
X102408Y57845D01*
X102282Y57760D01*
X102154Y57678D01*
X102024Y57599D01*
X101892Y57524D01*
X101758Y57452D01*
X101622Y57383D01*
X101485Y57318D01*
X101346Y57256D01*
X101206Y57198D01*
X101064Y57143D01*
X100921Y57093D01*
X100776Y57045D01*
X100631Y57001D01*
X100484Y56962D01*
X100336Y56925D01*
X100188Y56893D01*
X100039Y56864D01*
X99889Y56839D01*
X99738Y56818D01*
X99587Y56801D01*
X99436Y56787D01*
X99284Y56778D01*
X99132Y56772D01*
X98980Y56770D01*
X88980Y56770D01*
X88828Y56772D01*
X88676Y56778D01*
X88524Y56787D01*
X88373Y56801D01*
X88222Y56818D01*
X88071Y56839D01*
X87921Y56864D01*
X87772Y56893D01*
X87624Y56925D01*
X87476Y56962D01*
X87329Y57001D01*
X87184Y57045D01*
X87039Y57093D01*
X86896Y57143D01*
X86754Y57198D01*
X86614Y57256D01*
X86475Y57318D01*
X86338Y57383D01*
X86202Y57452D01*
X86068Y57524D01*
X85936Y57599D01*
X85806Y57678D01*
X85678Y57760D01*
X85552Y57845D01*
X85429Y57934D01*
X85307Y58025D01*
X85188Y58120D01*
X85072Y58217D01*
X84958Y58318D01*
X84846Y58421D01*
X84737Y58527D01*
X84631Y58636D01*
X84528Y58748D01*
X84427Y58862D01*
X84330Y58978D01*
X84235Y59097D01*
X84144Y59219D01*
X84055Y59342D01*
X83970Y59468D01*
X83888Y59596D01*
X83809Y59726D01*
X83734Y59858D01*
X83662Y59992D01*
X83593Y60128D01*
X83528Y60265D01*
X83466Y60404D01*
X83408Y60544D01*
X83353Y60686D01*
X83303Y60829D01*
X83255Y60974D01*
X83211Y61119D01*
X83172Y61266D01*
X83135Y61414D01*
X83103Y61562D01*
X83074Y61711D01*
X83049Y61861D01*
X83028Y62012D01*
X83011Y62163D01*
X82997Y62314D01*
X82988Y62466D01*
X82982Y62618D01*
X82980Y62770D01*
X82980Y66770D01*
X82982Y66922D01*
X82988Y67074D01*
X82997Y67226D01*
X83011Y67377D01*
X83028Y67528D01*
X83049Y67679D01*
X83074Y67829D01*
X83103Y67978D01*
X83135Y68126D01*
X83172Y68274D01*
X83211Y68421D01*
X83255Y68566D01*
X83303Y68711D01*
X83353Y68854D01*
X83408Y68996D01*
X83466Y69136D01*
X83528Y69275D01*
X83593Y69412D01*
X83662Y69548D01*
X83734Y69682D01*
X83809Y69814D01*
X83888Y69944D01*
X83970Y70072D01*
X84055Y70198D01*
X84144Y70321D01*
X84235Y70443D01*
X84330Y70562D01*
X84427Y70678D01*
X84528Y70792D01*
X84631Y70904D01*
X84737Y71013D01*
X84846Y71119D01*
X84958Y71222D01*
X85072Y71323D01*
X85188Y71420D01*
X85307Y71515D01*
X85429Y71606D01*
X85552Y71695D01*
X85678Y71780D01*
X85806Y71862D01*
X85936Y71941D01*
X86068Y72016D01*
X86202Y72088D01*
X86338Y72157D01*
X86475Y72222D01*
X86614Y72284D01*
X86754Y72342D01*
X86896Y72397D01*
X87039Y72447D01*
X87184Y72495D01*
X87329Y72539D01*
X87476Y72578D01*
X87624Y72615D01*
X87772Y72647D01*
X87921Y72676D01*
X88071Y72701D01*
X88222Y72722D01*
X88373Y72739D01*
X88524Y72753D01*
X88676Y72762D01*
X88828Y72768D01*
X88980Y72770D01*
X98980Y72770D01*
D14*
X5400Y203200D02*
X5406Y203691D01*
X5424Y204181D01*
X5454Y204671D01*
X5496Y205160D01*
X5550Y205648D01*
X5616Y206135D01*
X5694Y206619D01*
X5784Y207102D01*
X5886Y207582D01*
X5999Y208060D01*
X6124Y208534D01*
X6261Y209006D01*
X6409Y209474D01*
X6569Y209938D01*
X6740Y210398D01*
X6922Y210854D01*
X7116Y211305D01*
X7320Y211751D01*
X7536Y212192D01*
X7762Y212628D01*
X7998Y213058D01*
X8245Y213482D01*
X8503Y213900D01*
X8771Y214311D01*
X9048Y214716D01*
X9336Y215114D01*
X9633Y215505D01*
X9940Y215888D01*
X10256Y216263D01*
X10581Y216631D01*
X10915Y216991D01*
X11258Y217342D01*
X11609Y217685D01*
X11969Y218019D01*
X12337Y218344D01*
X12712Y218660D01*
X13095Y218967D01*
X13486Y219264D01*
X13884Y219552D01*
X14289Y219829D01*
X14700Y220097D01*
X15118Y220355D01*
X15542Y220602D01*
X15972Y220838D01*
X16408Y221064D01*
X16849Y221280D01*
X17295Y221484D01*
X17746Y221678D01*
X18202Y221860D01*
X18662Y222031D01*
X19126Y222191D01*
X19594Y222339D01*
X20066Y222476D01*
X20540Y222601D01*
X21018Y222714D01*
X21498Y222816D01*
X21981Y222906D01*
X22465Y222984D01*
X22952Y223050D01*
X23440Y223104D01*
X23929Y223146D01*
X24419Y223176D01*
X24909Y223194D01*
X25400Y223200D01*
X25891Y223194D01*
X26381Y223176D01*
X26871Y223146D01*
X27360Y223104D01*
X27848Y223050D01*
X28335Y222984D01*
X28819Y222906D01*
X29302Y222816D01*
X29782Y222714D01*
X30260Y222601D01*
X30734Y222476D01*
X31206Y222339D01*
X31674Y222191D01*
X32138Y222031D01*
X32598Y221860D01*
X33054Y221678D01*
X33505Y221484D01*
X33951Y221280D01*
X34392Y221064D01*
X34828Y220838D01*
X35258Y220602D01*
X35682Y220355D01*
X36100Y220097D01*
X36511Y219829D01*
X36916Y219552D01*
X37314Y219264D01*
X37705Y218967D01*
X38088Y218660D01*
X38463Y218344D01*
X38831Y218019D01*
X39191Y217685D01*
X39542Y217342D01*
X39885Y216991D01*
X40219Y216631D01*
X40544Y216263D01*
X40860Y215888D01*
X41167Y215505D01*
X41464Y215114D01*
X41752Y214716D01*
X42029Y214311D01*
X42297Y213900D01*
X42555Y213482D01*
X42802Y213058D01*
X43038Y212628D01*
X43264Y212192D01*
X43480Y211751D01*
X43684Y211305D01*
X43878Y210854D01*
X44060Y210398D01*
X44231Y209938D01*
X44391Y209474D01*
X44539Y209006D01*
X44676Y208534D01*
X44801Y208060D01*
X44914Y207582D01*
X45016Y207102D01*
X45106Y206619D01*
X45184Y206135D01*
X45250Y205648D01*
X45304Y205160D01*
X45346Y204671D01*
X45376Y204181D01*
X45394Y203691D01*
X45400Y203200D01*
X45394Y202709D01*
X45376Y202219D01*
X45346Y201729D01*
X45304Y201240D01*
X45250Y200752D01*
X45184Y200265D01*
X45106Y199781D01*
X45016Y199298D01*
X44914Y198818D01*
X44801Y198340D01*
X44676Y197866D01*
X44539Y197394D01*
X44391Y196926D01*
X44231Y196462D01*
X44060Y196002D01*
X43878Y195546D01*
X43684Y195095D01*
X43480Y194649D01*
X43264Y194208D01*
X43038Y193772D01*
X42802Y193342D01*
X42555Y192918D01*
X42297Y192500D01*
X42029Y192089D01*
X41752Y191684D01*
X41464Y191286D01*
X41167Y190895D01*
X40860Y190512D01*
X40544Y190137D01*
X40219Y189769D01*
X39885Y189409D01*
X39542Y189058D01*
X39191Y188715D01*
X38831Y188381D01*
X38463Y188056D01*
X38088Y187740D01*
X37705Y187433D01*
X37314Y187136D01*
X36916Y186848D01*
X36511Y186571D01*
X36100Y186303D01*
X35682Y186045D01*
X35258Y185798D01*
X34828Y185562D01*
X34392Y185336D01*
X33951Y185120D01*
X33505Y184916D01*
X33054Y184722D01*
X32598Y184540D01*
X32138Y184369D01*
X31674Y184209D01*
X31206Y184061D01*
X30734Y183924D01*
X30260Y183799D01*
X29782Y183686D01*
X29302Y183584D01*
X28819Y183494D01*
X28335Y183416D01*
X27848Y183350D01*
X27360Y183296D01*
X26871Y183254D01*
X26381Y183224D01*
X25891Y183206D01*
X25400Y183200D01*
X24909Y183206D01*
X24419Y183224D01*
X23929Y183254D01*
X23440Y183296D01*
X22952Y183350D01*
X22465Y183416D01*
X21981Y183494D01*
X21498Y183584D01*
X21018Y183686D01*
X20540Y183799D01*
X20066Y183924D01*
X19594Y184061D01*
X19126Y184209D01*
X18662Y184369D01*
X18202Y184540D01*
X17746Y184722D01*
X17295Y184916D01*
X16849Y185120D01*
X16408Y185336D01*
X15972Y185562D01*
X15542Y185798D01*
X15118Y186045D01*
X14700Y186303D01*
X14289Y186571D01*
X13884Y186848D01*
X13486Y187136D01*
X13095Y187433D01*
X12712Y187740D01*
X12337Y188056D01*
X11969Y188381D01*
X11609Y188715D01*
X11258Y189058D01*
X10915Y189409D01*
X10581Y189769D01*
X10256Y190137D01*
X9940Y190512D01*
X9633Y190895D01*
X9336Y191286D01*
X9048Y191684D01*
X8771Y192089D01*
X8503Y192500D01*
X8245Y192918D01*
X7998Y193342D01*
X7762Y193772D01*
X7536Y194208D01*
X7320Y194649D01*
X7116Y195095D01*
X6922Y195546D01*
X6740Y196002D01*
X6569Y196462D01*
X6409Y196926D01*
X6261Y197394D01*
X6124Y197866D01*
X5999Y198340D01*
X5886Y198818D01*
X5784Y199298D01*
X5694Y199781D01*
X5616Y200265D01*
X5550Y200752D01*
X5496Y201240D01*
X5454Y201729D01*
X5424Y202219D01*
X5406Y202709D01*
X5400Y203200D01*
X5400Y25400D02*
X5406Y25891D01*
X5424Y26381D01*
X5454Y26871D01*
X5496Y27360D01*
X5550Y27848D01*
X5616Y28335D01*
X5694Y28819D01*
X5784Y29302D01*
X5886Y29782D01*
X5999Y30260D01*
X6124Y30734D01*
X6261Y31206D01*
X6409Y31674D01*
X6569Y32138D01*
X6740Y32598D01*
X6922Y33054D01*
X7116Y33505D01*
X7320Y33951D01*
X7536Y34392D01*
X7762Y34828D01*
X7998Y35258D01*
X8245Y35682D01*
X8503Y36100D01*
X8771Y36511D01*
X9048Y36916D01*
X9336Y37314D01*
X9633Y37705D01*
X9940Y38088D01*
X10256Y38463D01*
X10581Y38831D01*
X10915Y39191D01*
X11258Y39542D01*
X11609Y39885D01*
X11969Y40219D01*
X12337Y40544D01*
X12712Y40860D01*
X13095Y41167D01*
X13486Y41464D01*
X13884Y41752D01*
X14289Y42029D01*
X14700Y42297D01*
X15118Y42555D01*
X15542Y42802D01*
X15972Y43038D01*
X16408Y43264D01*
X16849Y43480D01*
X17295Y43684D01*
X17746Y43878D01*
X18202Y44060D01*
X18662Y44231D01*
X19126Y44391D01*
X19594Y44539D01*
X20066Y44676D01*
X20540Y44801D01*
X21018Y44914D01*
X21498Y45016D01*
X21981Y45106D01*
X22465Y45184D01*
X22952Y45250D01*
X23440Y45304D01*
X23929Y45346D01*
X24419Y45376D01*
X24909Y45394D01*
X25400Y45400D01*
X25891Y45394D01*
X26381Y45376D01*
X26871Y45346D01*
X27360Y45304D01*
X27848Y45250D01*
X28335Y45184D01*
X28819Y45106D01*
X29302Y45016D01*
X29782Y44914D01*
X30260Y44801D01*
X30734Y44676D01*
X31206Y44539D01*
X31674Y44391D01*
X32138Y44231D01*
X32598Y44060D01*
X33054Y43878D01*
X33505Y43684D01*
X33951Y43480D01*
X34392Y43264D01*
X34828Y43038D01*
X35258Y42802D01*
X35682Y42555D01*
X36100Y42297D01*
X36511Y42029D01*
X36916Y41752D01*
X37314Y41464D01*
X37705Y41167D01*
X38088Y40860D01*
X38463Y40544D01*
X38831Y40219D01*
X39191Y39885D01*
X39542Y39542D01*
X39885Y39191D01*
X40219Y38831D01*
X40544Y38463D01*
X40860Y38088D01*
X41167Y37705D01*
X41464Y37314D01*
X41752Y36916D01*
X42029Y36511D01*
X42297Y36100D01*
X42555Y35682D01*
X42802Y35258D01*
X43038Y34828D01*
X43264Y34392D01*
X43480Y33951D01*
X43684Y33505D01*
X43878Y33054D01*
X44060Y32598D01*
X44231Y32138D01*
X44391Y31674D01*
X44539Y31206D01*
X44676Y30734D01*
X44801Y30260D01*
X44914Y29782D01*
X45016Y29302D01*
X45106Y28819D01*
X45184Y28335D01*
X45250Y27848D01*
X45304Y27360D01*
X45346Y26871D01*
X45376Y26381D01*
X45394Y25891D01*
X45400Y25400D01*
X45394Y24909D01*
X45376Y24419D01*
X45346Y23929D01*
X45304Y23440D01*
X45250Y22952D01*
X45184Y22465D01*
X45106Y21981D01*
X45016Y21498D01*
X44914Y21018D01*
X44801Y20540D01*
X44676Y20066D01*
X44539Y19594D01*
X44391Y19126D01*
X44231Y18662D01*
X44060Y18202D01*
X43878Y17746D01*
X43684Y17295D01*
X43480Y16849D01*
X43264Y16408D01*
X43038Y15972D01*
X42802Y15542D01*
X42555Y15118D01*
X42297Y14700D01*
X42029Y14289D01*
X41752Y13884D01*
X41464Y13486D01*
X41167Y13095D01*
X40860Y12712D01*
X40544Y12337D01*
X40219Y11969D01*
X39885Y11609D01*
X39542Y11258D01*
X39191Y10915D01*
X38831Y10581D01*
X38463Y10256D01*
X38088Y9940D01*
X37705Y9633D01*
X37314Y9336D01*
X36916Y9048D01*
X36511Y8771D01*
X36100Y8503D01*
X35682Y8245D01*
X35258Y7998D01*
X34828Y7762D01*
X34392Y7536D01*
X33951Y7320D01*
X33505Y7116D01*
X33054Y6922D01*
X32598Y6740D01*
X32138Y6569D01*
X31674Y6409D01*
X31206Y6261D01*
X30734Y6124D01*
X30260Y5999D01*
X29782Y5886D01*
X29302Y5784D01*
X28819Y5694D01*
X28335Y5616D01*
X27848Y5550D01*
X27360Y5496D01*
X26871Y5454D01*
X26381Y5424D01*
X25891Y5406D01*
X25400Y5400D01*
X24909Y5406D01*
X24419Y5424D01*
X23929Y5454D01*
X23440Y5496D01*
X22952Y5550D01*
X22465Y5616D01*
X21981Y5694D01*
X21498Y5784D01*
X21018Y5886D01*
X20540Y5999D01*
X20066Y6124D01*
X19594Y6261D01*
X19126Y6409D01*
X18662Y6569D01*
X18202Y6740D01*
X17746Y6922D01*
X17295Y7116D01*
X16849Y7320D01*
X16408Y7536D01*
X15972Y7762D01*
X15542Y7998D01*
X15118Y8245D01*
X14700Y8503D01*
X14289Y8771D01*
X13884Y9048D01*
X13486Y9336D01*
X13095Y9633D01*
X12712Y9940D01*
X12337Y10256D01*
X11969Y10581D01*
X11609Y10915D01*
X11258Y11258D01*
X10915Y11609D01*
X10581Y11969D01*
X10256Y12337D01*
X9940Y12712D01*
X9633Y13095D01*
X9336Y13486D01*
X9048Y13884D01*
X8771Y14289D01*
X8503Y14700D01*
X8245Y15118D01*
X7998Y15542D01*
X7762Y15972D01*
X7536Y16408D01*
X7320Y16849D01*
X7116Y17295D01*
X6922Y17746D01*
X6740Y18202D01*
X6569Y18662D01*
X6409Y19126D01*
X6261Y19594D01*
X6124Y20066D01*
X5999Y20540D01*
X5886Y21018D01*
X5784Y21498D01*
X5694Y21981D01*
X5616Y22465D01*
X5550Y22952D01*
X5496Y23440D01*
X5454Y23929D01*
X5424Y24419D01*
X5406Y24909D01*
X5400Y25400D01*
X265736Y46096D02*
X265736Y59096D01*
X301736Y59096D02*
X301736Y46096D01*
D17*
X285269Y39772D02*
X285269Y39137D01*
X286540Y37866D01*
X287811Y39137D01*
X287811Y39772D01*
X286540Y37866D02*
X286540Y35959D01*
X289011Y38501D02*
X290282Y39772D01*
X290282Y35959D01*
X289011Y35959D02*
X291553Y35959D01*
D10*
X55450Y131300D02*
X55450Y139300D01*
X55450Y97300D02*
X55450Y89300D01*
X10450Y152300D02*
X1450Y152300D01*
X1450Y76300D01*
X10450Y76300D01*
D12*
X-13314Y127874D02*
X-6704Y132280D01*
X-6704Y127874D02*
X-13314Y132280D01*
X-12212Y135358D02*
X-13314Y136459D01*
X-13314Y138663D01*
X-12212Y139764D01*
X-11110Y139764D01*
X-10009Y138663D01*
X-10009Y137561D01*
X-10009Y138663D02*
X-8907Y139764D01*
X-7806Y139764D01*
X-6704Y138663D01*
X-6704Y136459D01*
X-7806Y135358D01*
D14*
X182108Y140082D02*
X182108Y156082D01*
X149108Y156082D02*
X149108Y140082D01*
X161608Y137582D02*
X169608Y137582D01*
D12*
X131622Y141818D02*
X131622Y147326D01*
X131622Y141818D02*
X132723Y140716D01*
X134927Y140716D01*
X136028Y141818D01*
X136028Y147326D01*
X139106Y140716D02*
X143512Y140716D01*
X139106Y140716D02*
X143512Y145122D01*
X143512Y146224D01*
X142411Y147326D01*
X140207Y147326D01*
X139106Y146224D01*
D14*
X170340Y182230D02*
X187800Y182230D01*
X187800Y196230D02*
X170340Y196230D01*
X176070Y185230D02*
X182070Y189230D01*
X176070Y185230D02*
X176070Y193230D01*
X182070Y189230D01*
D18*
X183070Y189230D03*
D12*
X177564Y178314D02*
X177564Y171704D01*
X180869Y171704D01*
X181970Y172806D01*
X181970Y177212D01*
X180869Y178314D01*
X177564Y178314D01*
X188353Y178314D02*
X188353Y171704D01*
X185048Y175009D02*
X188353Y178314D01*
X189454Y175009D02*
X185048Y175009D01*
X436272Y-11852D02*
X437373Y-12954D01*
X438475Y-12954D01*
X439576Y-11852D01*
X439576Y-6344D01*
X438475Y-6344D02*
X440678Y-6344D01*
X443756Y-6344D02*
X443756Y-12954D01*
X443756Y-6344D02*
X447061Y-6344D01*
X448162Y-7446D01*
X448162Y-9649D01*
X447061Y-10751D01*
X443756Y-10751D01*
X451240Y-8548D02*
X453443Y-6344D01*
X453443Y-12954D01*
X451240Y-12954D02*
X455646Y-12954D01*
D19*
X185388Y58611D03*
D20*
X185420Y58674D03*
D21*
X185420Y58738D03*
D22*
X185389Y58801D03*
D23*
X185420Y58865D03*
D24*
X185388Y58928D03*
D25*
X185420Y58992D03*
D26*
X185389Y59055D03*
D27*
X185388Y59119D03*
D28*
X185325Y59182D03*
D29*
X185325Y59246D03*
D30*
X185262Y59309D03*
D31*
X185261Y59373D03*
D32*
X185230Y59436D03*
D33*
X185166Y59500D03*
D34*
X185166Y59563D03*
D35*
X185135Y59627D03*
D36*
X185071Y59690D03*
D37*
X185039Y59754D03*
D38*
X185039Y59817D03*
D39*
X184976Y59881D03*
D40*
X184944Y59944D03*
D41*
X184880Y60008D03*
D42*
X184849Y60071D03*
D43*
X184817Y60135D03*
D44*
X184753Y60198D03*
D45*
X184722Y60262D03*
D46*
X184690Y60325D03*
D47*
X184626Y60389D03*
D48*
X184595Y60452D03*
D49*
X184531Y60516D03*
D50*
X184499Y60579D03*
D51*
X184468Y60643D03*
D52*
X184404Y60706D03*
D53*
X184372Y60770D03*
D54*
X184341Y60833D03*
D55*
X184277Y60897D03*
D56*
X184245Y60960D03*
D57*
X184214Y61024D03*
D58*
X184150Y61087D03*
D59*
X184118Y61151D03*
D60*
X184055Y61214D03*
D61*
X184023Y61278D03*
D62*
X183991Y61341D03*
D63*
X183928Y61405D03*
D64*
X183896Y61468D03*
D65*
X183864Y61532D03*
D66*
X183801Y61595D03*
D67*
X183769Y61659D03*
D68*
X183737Y61722D03*
D69*
X183674Y61786D03*
D70*
X183642Y61849D03*
D71*
X183579Y61913D03*
D72*
X183547Y61976D03*
D73*
X163735Y62040D03*
D74*
X183515Y62040D03*
D75*
X163735Y62103D03*
D76*
X183452Y62103D03*
D77*
X163799Y62167D03*
D78*
X183420Y62167D03*
D79*
X163862Y62230D03*
D80*
X183388Y62230D03*
D81*
X163894Y62294D03*
D82*
X183325Y62294D03*
D83*
X163957Y62357D03*
D84*
X183293Y62357D03*
D85*
X164021Y62421D03*
D86*
X183261Y62421D03*
D87*
X164116Y62484D03*
D88*
X183198Y62484D03*
D89*
X164148Y62548D03*
D90*
X183166Y62548D03*
D36*
X164243Y62611D03*
D91*
X183102Y62611D03*
D92*
X164307Y62675D03*
D93*
X183071Y62675D03*
D94*
X164402Y62738D03*
D95*
X183039Y62738D03*
D43*
X164497Y62802D03*
D96*
X182975Y62802D03*
D97*
X164529Y62865D03*
D98*
X182944Y62865D03*
D99*
X164656Y62929D03*
D100*
X182912Y62929D03*
D101*
X164719Y62992D03*
D102*
X182848Y62992D03*
D53*
X164814Y63056D03*
D103*
X182817Y63056D03*
D104*
X164878Y63119D03*
D105*
X182785Y63119D03*
D106*
X165005Y63183D03*
D107*
X182721Y63183D03*
D108*
X165068Y63246D03*
D109*
X182690Y63246D03*
D110*
X165195Y63310D03*
D111*
X182658Y63310D03*
D112*
X165291Y63373D03*
D113*
X182626Y63373D03*
D114*
X165386Y63437D03*
D115*
X182563Y63437D03*
D116*
X165481Y63500D03*
D117*
X182531Y63500D03*
D118*
X165576Y63564D03*
D119*
X182499Y63564D03*
D120*
X165672Y63627D03*
D121*
X182467Y63627D03*
D122*
X165799Y63691D03*
D123*
X182436Y63691D03*
D124*
X165894Y63754D03*
D125*
X182404Y63754D03*
D86*
X165989Y63818D03*
D126*
X182372Y63818D03*
D127*
X166085Y63881D03*
D128*
X182340Y63881D03*
D93*
X166180Y63945D03*
D129*
X182309Y63945D03*
D130*
X166307Y64008D03*
D131*
X182277Y64008D03*
D100*
X166402Y64072D03*
D132*
X182245Y64072D03*
D133*
X166497Y64135D03*
D134*
X182213Y64135D03*
D135*
X166624Y64199D03*
D136*
X182182Y64199D03*
D137*
X166720Y64262D03*
D138*
X182150Y64262D03*
D115*
X166815Y64326D03*
D139*
X182118Y64326D03*
D140*
X166942Y64389D03*
D141*
X182086Y64389D03*
D142*
X167005Y64453D03*
D143*
X182086Y64453D03*
D128*
X167100Y64516D03*
D144*
X182055Y64516D03*
D129*
X167196Y64580D03*
D145*
X182023Y64580D03*
D146*
X167259Y64643D03*
D147*
X181991Y64643D03*
D136*
X167323Y64707D03*
D148*
X181959Y64707D03*
D138*
X167418Y64770D03*
D149*
X181959Y64770D03*
D143*
X167481Y64834D03*
D150*
X181928Y64834D03*
D151*
X167545Y64897D03*
D152*
X181896Y64897D03*
D153*
X167640Y64961D03*
D154*
X181864Y64961D03*
D155*
X167704Y65024D03*
D156*
X181864Y65024D03*
D154*
X167767Y65088D03*
D157*
X181832Y65088D03*
D158*
X167831Y65151D03*
D159*
X181801Y65151D03*
D160*
X167894Y65215D03*
D161*
X181801Y65215D03*
D162*
X167926Y65278D03*
X181769Y65278D03*
D163*
X167989Y65342D03*
D164*
X181737Y65342D03*
D165*
X168053Y65405D03*
D166*
X181737Y65405D03*
D167*
X168085Y65469D03*
D163*
X181705Y65469D03*
D168*
X168180Y65532D03*
D165*
X181705Y65532D03*
D169*
X168212Y65596D03*
D167*
X181674Y65596D03*
D170*
X168275Y65659D03*
D168*
X181642Y65659D03*
D171*
X168307Y65723D03*
D172*
X181642Y65723D03*
D173*
X168371Y65786D03*
D174*
X181610Y65786D03*
D175*
X168402Y65850D03*
D176*
X181610Y65850D03*
D177*
X168466Y65913D03*
D178*
X181578Y65913D03*
D179*
X168497Y65977D03*
D180*
X181578Y65977D03*
D181*
X168561Y66040D03*
D182*
X181547Y66040D03*
D183*
X168593Y66104D03*
D184*
X181547Y66104D03*
D185*
X168656Y66167D03*
D173*
X181515Y66167D03*
D186*
X168688Y66231D03*
D171*
X181515Y66231D03*
D187*
X168720Y66294D03*
D173*
X181515Y66294D03*
D188*
X168783Y66358D03*
D175*
X181483Y66358D03*
D189*
X168783Y66421D03*
D190*
X181483Y66421D03*
D191*
X168815Y66485D03*
D179*
X181451Y66485D03*
D192*
X168879Y66548D03*
D193*
X181451Y66548D03*
D194*
X168910Y66612D03*
D179*
X181451Y66612D03*
D195*
X168942Y66675D03*
D193*
X181451Y66675D03*
D196*
X169005Y66739D03*
D197*
X181420Y66739D03*
D195*
X169005Y66802D03*
D198*
X181420Y66802D03*
D199*
X169037Y66866D03*
D200*
X181388Y66866D03*
D201*
X169101Y66929D03*
D181*
X181388Y66929D03*
D202*
X169133Y66993D03*
D200*
X181388Y66993D03*
D203*
X169133Y67056D03*
D181*
X181388Y67056D03*
D202*
X169196Y67120D03*
D200*
X181388Y67120D03*
D204*
X169228Y67183D03*
D185*
X181356Y67183D03*
D205*
X169228Y67247D03*
D206*
X181356Y67247D03*
D207*
X169291Y67310D03*
D181*
X181325Y67310D03*
D208*
X169291Y67374D03*
D200*
X181325Y67374D03*
D209*
X169323Y67437D03*
D187*
X181293Y67437D03*
D210*
X169386Y67501D03*
D183*
X181293Y67501D03*
D209*
X169386Y67564D03*
D187*
X181293Y67564D03*
D211*
X169418Y67628D03*
D183*
X181293Y67628D03*
D209*
X169450Y67691D03*
D187*
X181293Y67691D03*
D212*
X169482Y67755D03*
D183*
X181293Y67755D03*
D213*
X169482Y67818D03*
D187*
X181293Y67818D03*
D211*
X169545Y67882D03*
D183*
X181293Y67882D03*
D214*
X169545Y67945D03*
D187*
X181293Y67945D03*
D211*
X169545Y68009D03*
D206*
X181229Y68009D03*
D213*
X169609Y68072D03*
D185*
X181229Y68072D03*
D212*
X169609Y68136D03*
D206*
X181229Y68136D03*
D215*
X169641Y68199D03*
D185*
X181229Y68199D03*
D211*
X169672Y68263D03*
D206*
X181229Y68263D03*
D214*
X169672Y68326D03*
D185*
X181229Y68326D03*
D216*
X169704Y68390D03*
D206*
X181229Y68390D03*
D213*
X169736Y68453D03*
D185*
X181229Y68453D03*
D212*
X169736Y68517D03*
D200*
X181198Y68517D03*
D215*
X169768Y68580D03*
D181*
X181198Y68580D03*
D211*
X169799Y68644D03*
D200*
X181198Y68644D03*
D214*
X169799Y68707D03*
D181*
X181198Y68707D03*
D211*
X169799Y68771D03*
D200*
X181198Y68771D03*
D213*
X169863Y68834D03*
D198*
X181166Y68834D03*
D212*
X169863Y68898D03*
D197*
X181166Y68898D03*
D213*
X169863Y68961D03*
D193*
X181197Y68961D03*
D211*
X169926Y69025D03*
D179*
X181197Y69025D03*
D214*
X169926Y69088D03*
D193*
X181197Y69088D03*
D211*
X169926Y69152D03*
D217*
X181166Y69152D03*
D209*
X169958Y69215D03*
D177*
X181166Y69215D03*
D212*
X169990Y69279D03*
D217*
X181166Y69279D03*
D213*
X169990Y69342D03*
D173*
X181134Y69342D03*
D210*
X170021Y69406D03*
D171*
X181134Y69406D03*
D214*
X170053Y69469D03*
D173*
X181134Y69469D03*
D211*
X170053Y69533D03*
D171*
X181134Y69533D03*
D218*
X175356Y69596D03*
D219*
X175356Y69660D03*
D218*
X175356Y69723D03*
D220*
X175355Y69787D03*
D221*
X175355Y69850D03*
D220*
X175355Y69914D03*
D222*
X175356Y69977D03*
D223*
X175356Y70041D03*
D224*
X172149Y70104D03*
D66*
X183166Y70104D03*
D225*
X172085Y70168D03*
D65*
X183229Y70168D03*
D226*
X172022Y70231D03*
D64*
X183261Y70231D03*
D227*
X171990Y70295D03*
D228*
X183261Y70295D03*
D229*
X171926Y70358D03*
D230*
X183261Y70358D03*
D231*
X171927Y70422D03*
D61*
X183261Y70422D03*
D232*
X171895Y70485D03*
D233*
X183261Y70485D03*
D234*
X171895Y70549D03*
D235*
X183230Y70549D03*
D236*
X171863Y70612D03*
D237*
X183261Y70612D03*
D238*
X171831Y70676D03*
D59*
X183229Y70676D03*
D239*
X171799Y70739D03*
D108*
X183229Y70739D03*
D240*
X171800Y70803D03*
D241*
X183198Y70803D03*
D242*
X171768Y70866D03*
D243*
X183198Y70866D03*
D244*
X171768Y70930D03*
D106*
X183166Y70930D03*
D245*
X171736Y70993D03*
D246*
X183166Y70993D03*
D247*
X171736Y71057D03*
D248*
X183134Y71057D03*
D249*
X171736Y71120D03*
D56*
X183102Y71120D03*
D250*
X171704Y71184D03*
D251*
X183102Y71184D03*
D252*
X171704Y71247D03*
D253*
X183071Y71247D03*
D254*
X168497Y71311D03*
D255*
X175451Y71311D03*
D256*
X183071Y71311D03*
D257*
X168466Y71374D03*
D258*
X175546Y71374D03*
D104*
X183039Y71374D03*
D259*
X168402Y71438D03*
D235*
X175610Y71438D03*
D260*
X182976Y71438D03*
D261*
X168434Y71501D03*
D108*
X175673Y71501D03*
D54*
X182944Y71501D03*
D262*
X168402Y71565D03*
D57*
X175705Y71565D03*
D263*
X182944Y71565D03*
D264*
X168370Y71628D03*
D104*
X175737Y71628D03*
D265*
X182912Y71628D03*
D74*
X168402Y71692D03*
D53*
X175800Y71692D03*
D266*
X182880Y71692D03*
D267*
X168402Y71755D03*
D268*
X175800Y71755D03*
D269*
X182817Y71755D03*
D270*
X168434Y71819D03*
D271*
X175863Y71819D03*
D272*
X182785Y71819D03*
D273*
X168466Y71882D03*
D274*
X175864Y71882D03*
D268*
X182785Y71882D03*
D71*
X168466Y71946D03*
D47*
X175927Y71946D03*
D275*
X182753Y71946D03*
D276*
X168497Y72009D03*
D46*
X175927Y72009D03*
D277*
X182690Y72009D03*
D118*
X168497Y72073D03*
D45*
X175959Y72073D03*
D271*
X182658Y72073D03*
D70*
X168529Y72136D03*
D278*
X175991Y72136D03*
D279*
X182626Y72136D03*
D280*
X168529Y72200D03*
D281*
X176022Y72200D03*
D282*
X182563Y72200D03*
D283*
X168593Y72263D03*
D284*
X176022Y72263D03*
D274*
X182531Y72263D03*
D69*
X168625Y72327D03*
D285*
X176054Y72327D03*
D286*
X182499Y72327D03*
D287*
X168625Y72390D03*
D288*
X176054Y72390D03*
D289*
X182404Y72390D03*
D69*
X168688Y72454D03*
D290*
X176086Y72454D03*
D291*
X182372Y72454D03*
D287*
X168688Y72517D03*
D36*
X176117Y72517D03*
D46*
X182341Y72517D03*
D292*
X168720Y72581D03*
D293*
X176117Y72581D03*
D294*
X182277Y72581D03*
D116*
X168783Y72644D03*
D34*
X176149Y72644D03*
D44*
X182213Y72644D03*
D295*
X168783Y72708D03*
D296*
X176149Y72708D03*
D297*
X182150Y72708D03*
D298*
X168847Y72771D03*
D299*
X176181Y72771D03*
D278*
X182087Y72771D03*
D300*
X186055Y72771D03*
D301*
X168878Y72835D03*
D302*
X176181Y72835D03*
D43*
X182023Y72835D03*
D303*
X186055Y72835D03*
D116*
X168910Y72898D03*
D32*
X176213Y72898D03*
D304*
X181991Y72898D03*
D305*
X186087Y72898D03*
D292*
X168974Y72962D03*
D31*
X176244Y72962D03*
D41*
X181896Y72962D03*
D306*
X186119Y72962D03*
D68*
X169005Y73025D03*
D30*
X176245Y73025D03*
D284*
X181864Y73025D03*
D94*
X186119Y73025D03*
D301*
X169069Y73089D03*
D307*
X176276Y73089D03*
D285*
X181769Y73089D03*
D45*
X186119Y73089D03*
D308*
X169101Y73152D03*
D309*
X176276Y73152D03*
D310*
X181737Y73152D03*
D311*
X186119Y73152D03*
D301*
X169132Y73216D03*
D29*
X176308Y73216D03*
D312*
X181642Y73216D03*
D53*
X186087Y73216D03*
D68*
X169196Y73279D03*
D28*
X176308Y73279D03*
D313*
X181579Y73279D03*
D314*
X186119Y73279D03*
D255*
X169228Y73343D03*
D315*
X176340Y73343D03*
D92*
X181515Y73343D03*
D316*
X186119Y73343D03*
D317*
X169291Y73406D03*
D318*
X176340Y73406D03*
D319*
X184341Y73406D03*
D255*
X169355Y73470D03*
D27*
X176371Y73470D03*
D139*
X184404Y73470D03*
D317*
X169418Y73533D03*
D26*
X176372Y73533D03*
D320*
X184468Y73533D03*
D114*
X169450Y73597D03*
D321*
X176372Y73597D03*
D148*
X184499Y73597D03*
D66*
X169514Y73660D03*
D322*
X176403Y73660D03*
D156*
X184531Y73660D03*
D114*
X169577Y73724D03*
D323*
X176435Y73724D03*
D324*
X184563Y73724D03*
D66*
X169641Y73787D03*
D325*
X176435Y73787D03*
D165*
X184626Y73787D03*
D114*
X169704Y73851D03*
D81*
X176467Y73851D03*
D176*
X184658Y73851D03*
D66*
X169768Y73914D03*
D326*
X176467Y73914D03*
D170*
X184658Y73914D03*
D114*
X169831Y73978D03*
D327*
X176499Y73978D03*
D179*
X184690Y73978D03*
D66*
X169895Y74041D03*
D328*
X176499Y74041D03*
D198*
X184722Y74041D03*
D114*
X169958Y74105D03*
D329*
X176530Y74105D03*
D186*
X184753Y74105D03*
D330*
X169990Y74168D03*
D331*
X176530Y74168D03*
D192*
X184754Y74168D03*
D332*
X170117Y74232D03*
D333*
X176562Y74232D03*
D199*
X184785Y74232D03*
D334*
X170148Y74295D03*
D24*
X176562Y74295D03*
D207*
X184785Y74295D03*
D332*
X170244Y74359D03*
D333*
X176562Y74359D03*
D216*
X184817Y74359D03*
D334*
X170339Y74422D03*
D24*
X176562Y74422D03*
D335*
X184817Y74422D03*
D65*
X170402Y74486D03*
D336*
X176594Y74486D03*
D337*
X184849Y74486D03*
D112*
X170498Y74549D03*
D24*
X176625Y74549D03*
D338*
X184849Y74549D03*
D339*
X170561Y74613D03*
D333*
X176625Y74613D03*
D340*
X184849Y74613D03*
D64*
X170688Y74676D03*
D331*
X176657Y74676D03*
D341*
X184881Y74676D03*
D63*
X170784Y74740D03*
D329*
X176657Y74740D03*
D342*
X184849Y74740D03*
D343*
X170879Y74803D03*
D344*
X176721Y74803D03*
D345*
X184849Y74803D03*
D346*
X171006Y74867D03*
D81*
X176721Y74867D03*
D347*
X184849Y74867D03*
D62*
X171101Y74930D03*
D322*
X176784Y74930D03*
D348*
X184785Y74930D03*
D349*
X171260Y74994D03*
D350*
X183579Y74994D03*
D351*
X171387Y75057D03*
D352*
X183642Y75057D03*
D59*
X171545Y75121D03*
D353*
X183642Y75121D03*
D108*
X171736Y75184D03*
D354*
X183706Y75184D03*
D106*
X171863Y75248D03*
D355*
X183706Y75248D03*
D356*
X172085Y75311D03*
D357*
X183738Y75311D03*
D106*
X172308Y75375D03*
D358*
X183706Y75375D03*
D359*
X181007Y75438D03*
D360*
X180055Y75502D03*
D361*
X179896Y75565D03*
D362*
X179801Y75629D03*
D363*
X179769Y75692D03*
D364*
X179705Y75756D03*
D365*
X179642Y75819D03*
D366*
X179642Y75883D03*
D367*
X179610Y75946D03*
D368*
X179578Y76010D03*
D369*
X179578Y76073D03*
D370*
X173133Y76137D03*
D371*
X187071Y76137D03*
D245*
X172879Y76200D03*
D215*
X187357Y76200D03*
D372*
X172657Y76264D03*
D199*
X187579Y76264D03*
D373*
X172530Y76327D03*
D195*
X187738Y76327D03*
D374*
X172403Y76391D03*
D375*
X187897Y76391D03*
D376*
X172308Y76454D03*
D187*
X188024Y76454D03*
D377*
X172212Y76518D03*
D200*
X188183Y76518D03*
D376*
X172117Y76581D03*
D193*
X188309Y76581D03*
D378*
X172054Y76645D03*
D217*
X188405Y76645D03*
D249*
X171990Y76708D03*
D177*
X188532Y76708D03*
D379*
X171926Y76772D03*
D171*
X188627Y76772D03*
D380*
X171895Y76835D03*
D190*
X188722Y76835D03*
D247*
X171863Y76899D03*
D171*
X188818Y76899D03*
D381*
X171799Y76962D03*
D177*
X188913Y76962D03*
D382*
X171768Y77026D03*
D171*
X189008Y77026D03*
D141*
X169386Y77089D03*
D44*
X176752Y77089D03*
D173*
X189072Y77089D03*
D383*
X169196Y77153D03*
D43*
X176880Y77153D03*
D217*
X189167Y77153D03*
D128*
X169005Y77216D03*
D94*
X176975Y77216D03*
D190*
X189230Y77216D03*
D384*
X168879Y77280D03*
D385*
X177038Y77280D03*
D197*
X189294Y77280D03*
D121*
X168751Y77343D03*
D40*
X177070Y77343D03*
D386*
X189357Y77343D03*
D119*
X168656Y77407D03*
D387*
X177102Y77407D03*
D197*
X189421Y77407D03*
D388*
X168529Y77470D03*
D284*
X177165Y77470D03*
D185*
X189484Y77470D03*
D389*
X168402Y77534D03*
D41*
X177197Y77534D03*
D186*
X189516Y77534D03*
D390*
X168339Y77597D03*
D42*
X177229Y77597D03*
D391*
X189579Y77597D03*
D111*
X168244Y77661D03*
D392*
X177292Y77661D03*
D191*
X189643Y77661D03*
D393*
X168148Y77724D03*
D44*
X177324Y77724D03*
D394*
X189675Y77724D03*
D107*
X168053Y77788D03*
D294*
X177388Y77788D03*
D202*
X189707Y77788D03*
D395*
X167989Y77851D03*
D289*
X177451Y77851D03*
D207*
X189738Y77851D03*
D135*
X167894Y77915D03*
D99*
X177483Y77915D03*
D211*
X189738Y77915D03*
D105*
X167799Y77978D03*
D101*
X177546Y77978D03*
D335*
X189770Y77978D03*
D396*
X167736Y78042D03*
D397*
X177610Y78042D03*
D398*
X189770Y78042D03*
D133*
X167640Y78105D03*
D399*
X177673Y78105D03*
D400*
X189770Y78105D03*
D103*
X167577Y78169D03*
D57*
X177737Y78169D03*
D340*
X189802Y78169D03*
D401*
X167513Y78232D03*
D60*
X177832Y78232D03*
D402*
X189738Y78232D03*
D403*
X167450Y78296D03*
D339*
X177927Y78296D03*
D404*
X189707Y78296D03*
D401*
X167386Y78359D03*
D116*
X178054Y78359D03*
D405*
X189643Y78359D03*
D403*
X167323Y78423D03*
D27*
X176117Y78423D03*
D291*
X179451Y78423D03*
D406*
X189516Y78423D03*
D407*
X167291Y78486D03*
D26*
X175991Y78486D03*
D408*
X186913Y78486D03*
D100*
X167228Y78550D03*
D409*
X175895Y78550D03*
D410*
X186976Y78550D03*
D411*
X167132Y78613D03*
D412*
X175832Y78613D03*
D413*
X187071Y78613D03*
D100*
X167101Y78677D03*
D409*
X175768Y78677D03*
D410*
X187103Y78677D03*
D414*
X167037Y78740D03*
D26*
X175737Y78740D03*
D413*
X187198Y78740D03*
D415*
X167005Y78804D03*
D321*
X175673Y78804D03*
D416*
X187198Y78804D03*
D98*
X166942Y78867D03*
D83*
X175641Y78867D03*
D417*
X187262Y78867D03*
D415*
X166878Y78931D03*
D418*
X175578Y78931D03*
D419*
X187293Y78931D03*
D414*
X166846Y78994D03*
D420*
X175514Y78994D03*
D421*
X187357Y78994D03*
D422*
X166815Y79058D03*
D315*
X175451Y79058D03*
D419*
X187357Y79058D03*
D411*
X166751Y79121D03*
D28*
X175419Y79121D03*
D421*
X187420Y79121D03*
D96*
X166719Y79185D03*
D29*
X175355Y79185D03*
D419*
X187420Y79185D03*
D98*
X166688Y79248D03*
D423*
X175324Y79248D03*
D424*
X187452Y79248D03*
D415*
X166624Y79312D03*
D425*
X175229Y79312D03*
D426*
X187452Y79312D03*
D407*
X166593Y79375D03*
D427*
X175197Y79375D03*
D428*
X187484Y79375D03*
D100*
X166593Y79439D03*
D429*
X175133Y79439D03*
D430*
X187484Y79439D03*
D407*
X166529Y79502D03*
D431*
X175070Y79502D03*
D432*
X187516Y79502D03*
D433*
X166497Y79566D03*
D434*
X174974Y79566D03*
D435*
X187516Y79566D03*
D102*
X166465Y79629D03*
D436*
X174911Y79629D03*
D437*
X187547Y79629D03*
D438*
X166465Y79693D03*
D439*
X174879Y79693D03*
D440*
X187547Y79693D03*
D441*
X166434Y79756D03*
D313*
X174784Y79756D03*
D442*
X187579Y79756D03*
D443*
X166434Y79820D03*
D312*
X174720Y79820D03*
D444*
X187579Y79820D03*
D395*
X166402Y79883D03*
D284*
X174625Y79883D03*
D445*
X187548Y79883D03*
D446*
X166434Y79947D03*
D447*
X174562Y79947D03*
D448*
X187548Y79947D03*
D390*
X166434Y80010D03*
D44*
X174466Y80010D03*
D449*
X187579Y80010D03*
D115*
X166434Y80074D03*
D291*
X174371Y80074D03*
D450*
X187547Y80074D03*
D121*
X166529Y80137D03*
D50*
X174212Y80137D03*
D451*
X187579Y80137D03*
D452*
X166656Y80201D03*
D55*
X173990Y80201D03*
D453*
X187579Y80201D03*
D454*
X169291Y80264D03*
D455*
X187548Y80264D03*
D456*
X169259Y80328D03*
D457*
X187516Y80328D03*
D458*
X169259Y80391D03*
D459*
X187516Y80391D03*
D460*
X169228Y80455D03*
D461*
X187516Y80455D03*
D462*
X169196Y80518D03*
D463*
X187452Y80518D03*
D464*
X169164Y80582D03*
D465*
X187420Y80582D03*
D466*
X169164Y80645D03*
D467*
X187357Y80645D03*
D468*
X169132Y80709D03*
D469*
X187357Y80709D03*
D470*
X169101Y80772D03*
D471*
X187294Y80772D03*
D227*
X169069Y80836D03*
D472*
X187198Y80836D03*
D473*
X169069Y80899D03*
D474*
X187135Y80899D03*
D475*
X169037Y80963D03*
D476*
X187040Y80963D03*
D477*
X169005Y81026D03*
D478*
X186944Y81026D03*
D479*
X169005Y81090D03*
D480*
X186817Y81090D03*
D481*
X169006Y81153D03*
D482*
X186785Y81153D03*
D483*
X168974Y81217D03*
D484*
X186658Y81217D03*
D485*
X168942Y81280D03*
D486*
X186563Y81280D03*
D487*
X168942Y81344D03*
D488*
X186468Y81344D03*
D489*
X168910Y81407D03*
D490*
X186373Y81407D03*
D488*
X168879Y81471D03*
D491*
X186246Y81471D03*
D492*
X168878Y81534D03*
D493*
X186182Y81534D03*
D494*
X168878Y81598D03*
D296*
X180340Y81598D03*
D210*
X187674Y81598D03*
D495*
X168847Y81661D03*
D436*
X180372Y81661D03*
D192*
X187611Y81661D03*
D496*
X168815Y81725D03*
D497*
X180404Y81725D03*
D206*
X187579Y81725D03*
D498*
X168783Y81788D03*
D36*
X180435Y81788D03*
D173*
X187484Y81788D03*
D484*
X168815Y81852D03*
D293*
X180435Y81852D03*
D172*
X187421Y81852D03*
D352*
X168783Y81915D03*
D499*
X180467Y81915D03*
D159*
X187389Y81915D03*
D500*
X168752Y81979D03*
D92*
X180499Y81979D03*
D501*
X187325Y81979D03*
D482*
X168751Y82042D03*
D502*
X180531Y82042D03*
D141*
X187230Y82042D03*
D503*
X168751Y82106D03*
D312*
X180562Y82106D03*
D504*
X187198Y82106D03*
D354*
X168720Y82169D03*
D288*
X180562Y82169D03*
D505*
X187135Y82169D03*
D506*
X168688Y82233D03*
D507*
X180594Y82233D03*
D119*
X187071Y82233D03*
D508*
X168688Y82296D03*
D40*
X180626Y82296D03*
D390*
X187008Y82296D03*
D509*
X168688Y82360D03*
D387*
X180658Y82360D03*
D396*
X186976Y82360D03*
D357*
X168688Y82423D03*
D94*
X180658Y82423D03*
D407*
X186913Y82423D03*
D510*
X168656Y82487D03*
D41*
X180689Y82487D03*
D511*
X186849Y82487D03*
D478*
X168656Y82550D03*
D304*
X180721Y82550D03*
D512*
X186817Y82550D03*
D513*
X168656Y82614D03*
D392*
X180721Y82614D03*
D514*
X186754Y82614D03*
D515*
X168625Y82677D03*
D516*
X180721Y82677D03*
D72*
X186722Y82677D03*
D517*
X168624Y82741D03*
D297*
X180753Y82741D03*
D295*
X186690Y82741D03*
D518*
X168624Y82804D03*
D97*
X180785Y82804D03*
D330*
X186627Y82804D03*
D374*
X166942Y82868D03*
D293*
X175419Y82868D03*
D45*
X180785Y82868D03*
D235*
X186595Y82868D03*
D252*
X166878Y82931D03*
D499*
X175387Y82931D03*
D519*
X180785Y82931D03*
D246*
X186595Y82931D03*
D374*
X166815Y82995D03*
D92*
X175419Y82995D03*
D47*
X180816Y82995D03*
D266*
X186563Y82995D03*
D520*
X166815Y83058D03*
D38*
X175387Y83058D03*
D289*
X180816Y83058D03*
D274*
X186532Y83058D03*
D377*
X166751Y83122D03*
D312*
X175419Y83122D03*
D521*
X180817Y83122D03*
D297*
X186531Y83122D03*
D520*
X166688Y83185D03*
D522*
X175451Y83185D03*
D274*
X180817Y83185D03*
D502*
X186500Y83185D03*
D378*
X166656Y83249D03*
D285*
X175419Y83249D03*
D49*
X180848Y83249D03*
D302*
X186468Y83249D03*
D252*
X166624Y83312D03*
D94*
X175451Y83312D03*
D50*
X180816Y83312D03*
D322*
X186436Y83312D03*
D374*
X166561Y83376D03*
D41*
X175482Y83376D03*
D272*
X180817Y83376D03*
D523*
X186405Y83376D03*
D376*
X166529Y83439D03*
D278*
X175483Y83439D03*
D268*
X180817Y83439D03*
D377*
X166497Y83503D03*
D392*
X175514Y83503D03*
D53*
X180816Y83503D03*
D520*
X166434Y83566D03*
D44*
X175546Y83566D03*
D54*
X180785Y83566D03*
D378*
X166402Y83630D03*
D294*
X175546Y83630D03*
D260*
X180753Y83630D03*
D376*
X166339Y83693D03*
D289*
X175609Y83693D03*
D56*
X180753Y83693D03*
D374*
X166307Y83757D03*
D157*
X178340Y83757D03*
D376*
X166275Y83820D03*
D159*
X178372Y83820D03*
D378*
X166212Y83884D03*
D161*
X178372Y83884D03*
D520*
X166180Y83947D03*
D162*
X178340Y83947D03*
D377*
X166116Y84011D03*
D524*
X178372Y84011D03*
D376*
X166085Y84074D03*
D525*
X178372Y84074D03*
D378*
X166021Y84138D03*
D163*
X178340Y84138D03*
D252*
X165989Y84201D03*
D526*
X178372Y84201D03*
D374*
X165926Y84265D03*
D167*
X178372Y84265D03*
D527*
X165894Y84328D03*
D526*
X178372Y84328D03*
D528*
X165830Y84392D03*
D172*
X178340Y84392D03*
D529*
X165799Y84455D03*
D530*
X178372Y84455D03*
D531*
X165735Y84519D03*
D169*
X178372Y84519D03*
D532*
X165704Y84582D03*
D530*
X178372Y84582D03*
D406*
X165640Y84646D03*
D180*
X178340Y84646D03*
D533*
X165608Y84709D03*
D182*
X178372Y84709D03*
D534*
X165576Y84773D03*
D184*
X178372Y84773D03*
D535*
X165545Y84836D03*
D182*
X178372Y84836D03*
D536*
X165481Y84900D03*
D184*
X178372Y84900D03*
D537*
X165418Y84963D03*
D173*
X178340Y84963D03*
D538*
X165386Y85027D03*
D217*
X178372Y85027D03*
D539*
X165354Y85090D03*
D177*
X178372Y85090D03*
D540*
X165291Y85154D03*
D217*
X178372Y85154D03*
D345*
X165291Y85217D03*
D177*
X178372Y85217D03*
D541*
X165227Y85281D03*
D217*
X178372Y85281D03*
D542*
X165195Y85344D03*
D177*
X178372Y85344D03*
D543*
X165132Y85408D03*
D217*
X178372Y85408D03*
D544*
X165100Y85471D03*
D177*
X178372Y85471D03*
D545*
X165037Y85535D03*
D217*
X178372Y85535D03*
D546*
X164973Y85598D03*
D177*
X178372Y85598D03*
D547*
X164941Y85662D03*
D179*
X178403Y85662D03*
D213*
X164910Y85725D03*
D193*
X178403Y85725D03*
D202*
X164815Y85789D03*
D179*
X178403Y85789D03*
D394*
X164783Y85852D03*
D193*
X178403Y85852D03*
D206*
X164719Y85916D03*
D179*
X178403Y85916D03*
D193*
X164624Y85979D03*
X178403Y85979D03*
D180*
X164560Y86043D03*
D179*
X178403Y86043D03*
D166*
X164465Y86106D03*
D193*
X178403Y86106D03*
D150*
X164402Y86170D03*
D179*
X178403Y86170D03*
D138*
X164307Y86233D03*
D193*
X178403Y86233D03*
D384*
X164180Y86297D03*
D179*
X178403Y86297D03*
D441*
X164021Y86360D03*
D193*
X178403Y86360D03*
D179*
X178403Y86424D03*
D193*
X178403Y86487D03*
D171*
X178404Y86551D03*
D173*
X178404Y86614D03*
D171*
X178404Y86678D03*
D173*
X178404Y86741D03*
D171*
X178404Y86805D03*
D170*
X178435Y86868D03*
D548*
X178435Y86932D03*
D170*
X178435Y86995D03*
D548*
X178435Y87059D03*
D170*
X178435Y87122D03*
D180*
X178467Y87186D03*
D174*
X178435Y87249D03*
D176*
X178435Y87313D03*
D174*
X178435Y87376D03*
D172*
X178467Y87440D03*
D168*
X178467Y87503D03*
D172*
X178467Y87567D03*
D165*
X178467Y87630D03*
D163*
X178467Y87694D03*
D165*
X178467Y87757D03*
D524*
X178499Y87821D03*
D525*
X178499Y87884D03*
D324*
X178467Y87948D03*
D159*
X178499Y88011D03*
D161*
X178499Y88075D03*
D159*
X178499Y88138D03*
D157*
X178530Y88202D03*
D158*
X178499Y88265D03*
D549*
X178531Y88329D03*
D152*
X178531Y88392D03*
D150*
X178499Y88456D03*
D149*
X178530Y88519D03*
D148*
X178530Y88583D03*
D147*
X178562Y88646D03*
D145*
X178531Y88710D03*
D550*
X178562Y88773D03*
D143*
X178530Y88837D03*
D551*
X178562Y88900D03*
D139*
X178562Y88964D03*
D138*
X178594Y89027D03*
D504*
X178562Y89091D03*
D134*
X178594Y89154D03*
D383*
X178594Y89218D03*
D131*
X178594Y89281D03*
D452*
X178594Y89345D03*
D552*
X178626Y89408D03*
D553*
X178626Y89472D03*
D505*
X178626Y89535D03*
D384*
X178658Y89599D03*
D121*
X178657Y89662D03*
D554*
X178657Y89726D03*
D555*
X178689Y89789D03*
D556*
X178658Y89853D03*
D388*
X178689Y89916D03*
D557*
X178721Y89980D03*
D113*
X178689Y90043D03*
D111*
X178721Y90107D03*
D109*
X178753Y90170D03*
D443*
X178753Y90234D03*
D558*
X178753Y90297D03*
D396*
X178785Y90361D03*
D133*
X178816Y90424D03*
D433*
X178816Y90488D03*
D401*
X178816Y90551D03*
D415*
X178816Y90615D03*
D414*
X178848Y90678D03*
D96*
X178848Y90742D03*
D130*
X178880Y90805D03*
D93*
X178880Y90869D03*
D91*
X178911Y90932D03*
D511*
X178911Y90996D03*
D127*
X178912Y91059D03*
D559*
X178943Y91123D03*
D560*
X178975Y91186D03*
D86*
X178943Y91250D03*
D84*
X178975Y91313D03*
D82*
X179007Y91377D03*
D124*
X178975Y91440D03*
D514*
X179007Y91504D03*
D261*
X179039Y91567D03*
D122*
X179007Y91631D03*
D264*
X179038Y91694D03*
D74*
X179070Y91758D03*
D561*
X179070Y91821D03*
D562*
X179070Y91885D03*
D276*
X179102Y91948D03*
D563*
X179134Y92012D03*
D287*
X179102Y92075D03*
D292*
X179134Y92139D03*
D68*
X179165Y92202D03*
D114*
X179166Y92266D03*
D66*
X179166Y92329D03*
D564*
X179197Y92393D03*
D64*
X179197Y92456D03*
D63*
X179229Y92520D03*
D258*
X179229Y92583D03*
D110*
X179229Y92647D03*
D351*
X179261Y92710D03*
D349*
X179261Y92774D03*
D565*
X179261Y92837D03*
D59*
X179292Y92901D03*
D58*
X179324Y92964D03*
D106*
X179293Y93028D03*
D356*
X179324Y93091D03*
D251*
X179356Y93155D03*
D399*
X179324Y93218D03*
D260*
X179356Y93282D03*
D54*
X179388Y93345D03*
D397*
X179388Y93409D03*
D269*
X179388Y93472D03*
D272*
X179420Y93536D03*
D50*
X179419Y93599D03*
D49*
X179451Y93663D03*
D279*
X179451Y93726D03*
D521*
X179483Y93790D03*
D289*
X179483Y93853D03*
D47*
X179483Y93917D03*
D46*
X179483Y93980D03*
D45*
X179515Y94044D03*
D97*
X179515Y94107D03*
D297*
X179546Y94171D03*
D278*
X179547Y94234D03*
D281*
X179578Y94298D03*
D304*
X179578Y94361D03*
D385*
X179578Y94425D03*
D40*
X179610Y94488D03*
D285*
X179610Y94552D03*
D288*
X179610Y94615D03*
D290*
X179642Y94679D03*
D313*
X179674Y94742D03*
D306*
X179642Y94806D03*
D36*
X179673Y94869D03*
D439*
X179705Y94933D03*
D34*
X179705Y94996D03*
D296*
X179705Y95060D03*
D299*
X179737Y95123D03*
D302*
X179737Y95187D03*
D305*
X179737Y95250D03*
D566*
X179769Y95314D03*
D427*
X179769Y95377D03*
D425*
X179801Y95441D03*
D423*
X179769Y95504D03*
D29*
X179800Y95568D03*
D28*
X179801Y95631D03*
D303*
X179832Y95695D03*
D83*
X179832Y95758D03*
D567*
X179832Y95822D03*
D322*
X179832Y95885D03*
D25*
X179832Y95949D03*
D331*
X179832Y96012D03*
D568*
X179832Y96076D03*
D569*
X179864Y96139D03*
D570*
X179832Y96203D03*
D75*
X179800Y96266D03*
D73*
X179801Y96330D03*
D14*
X130450Y223040D02*
X85450Y223040D01*
X147950Y188040D02*
X147950Y148040D01*
X139450Y148040D01*
X139450Y173040D01*
X125450Y173040D01*
X90450Y173040D02*
X76450Y173040D01*
X76450Y148040D01*
X67950Y148040D01*
X67950Y188040D01*
D12*
X90893Y213487D02*
X86487Y220097D01*
X90893Y220097D02*
X86487Y213487D01*
X93971Y217893D02*
X96174Y220097D01*
X96174Y213487D01*
X93971Y213487D02*
X98378Y213487D01*
X152400Y236052D02*
X153502Y234950D01*
X154603Y234950D01*
X155705Y236052D01*
X155705Y241560D01*
X156806Y241560D02*
X154603Y241560D01*
X159884Y241560D02*
X159884Y234950D01*
X159884Y241560D02*
X163189Y241560D01*
X164291Y240458D01*
X164291Y238255D01*
X163189Y237153D01*
X159884Y237153D01*
X167368Y240458D02*
X168470Y241560D01*
X170673Y241560D01*
X171775Y240458D01*
X171775Y239356D01*
X170673Y238255D01*
X169572Y238255D01*
X170673Y238255D02*
X171775Y237153D01*
X171775Y236052D01*
X170673Y234950D01*
X168470Y234950D01*
X167368Y236052D01*
D14*
X156200Y85470D02*
X156200Y69470D01*
X123200Y69470D02*
X123200Y85470D01*
X135700Y66970D02*
X143700Y66970D01*
D12*
X105714Y71206D02*
X105714Y76714D01*
X105714Y71206D02*
X106815Y70104D01*
X109019Y70104D01*
X110120Y71206D01*
X110120Y76714D01*
X113198Y75612D02*
X114299Y76714D01*
X116503Y76714D01*
X117604Y75612D01*
X117604Y74510D01*
X116503Y73409D01*
X115401Y73409D01*
X116503Y73409D02*
X117604Y72307D01*
X117604Y71206D01*
X116503Y70104D01*
X114299Y70104D01*
X113198Y71206D01*
D15*
X26488Y55880D03*
D12*
X11518Y72310D02*
X10417Y73412D01*
X8214Y73412D01*
X7112Y72310D01*
X7112Y67904D01*
X8214Y66802D01*
X10417Y66802D01*
X11518Y67904D01*
X14596Y66802D02*
X14596Y73412D01*
X14596Y70107D02*
X19003Y70107D01*
X19003Y73412D02*
X19003Y66802D01*
X25385Y73412D02*
X26487Y72310D01*
X25385Y73412D02*
X23182Y73412D01*
X22080Y72310D01*
X22080Y67904D01*
X23182Y66802D01*
X25385Y66802D01*
X26487Y67904D01*
X26487Y70107D01*
X24284Y70107D01*
X80772Y48012D02*
X80772Y41402D01*
X80772Y48012D02*
X84077Y48012D01*
X85178Y46910D01*
X85178Y44707D01*
X84077Y43605D01*
X80772Y43605D01*
X82975Y43605D02*
X85178Y41402D01*
X88256Y41402D02*
X92663Y41402D01*
X92663Y45808D02*
X88256Y41402D01*
X92663Y45808D02*
X92663Y46910D01*
X91561Y48012D01*
X89358Y48012D01*
X88256Y46910D01*
D13*
X118110Y115570D02*
X118110Y125730D01*
D12*
X142497Y126752D02*
X143598Y125650D01*
X142497Y126752D02*
X140294Y126752D01*
X139192Y125650D01*
X139192Y121244D01*
X140294Y120142D01*
X142497Y120142D01*
X143598Y121244D01*
X146676Y125650D02*
X147778Y126752D01*
X149981Y126752D01*
X151083Y125650D01*
X151083Y124548D01*
X149981Y123447D01*
X148879Y123447D01*
X149981Y123447D02*
X151083Y122345D01*
X151083Y121244D01*
X149981Y120142D01*
X147778Y120142D01*
X146676Y121244D01*
X106444Y42424D02*
X106444Y35814D01*
X106444Y42424D02*
X109749Y42424D01*
X110850Y41322D01*
X110850Y39119D01*
X109749Y38017D01*
X106444Y38017D01*
X108647Y38017D02*
X110850Y35814D01*
X113928Y41322D02*
X115029Y42424D01*
X117233Y42424D01*
X118334Y41322D01*
X118334Y40220D01*
X117233Y39119D01*
X118334Y38017D01*
X118334Y36916D01*
X117233Y35814D01*
X115029Y35814D01*
X113928Y36916D01*
X113928Y38017D01*
X115029Y39119D01*
X113928Y40220D01*
X113928Y41322D01*
X115029Y39119D02*
X117233Y39119D01*
D10*
X551170Y24300D02*
X551170Y204300D01*
X551170Y24300D02*
X391170Y24300D01*
X391170Y204300D01*
X551170Y204300D01*
D571*
X525670Y211800D02*
X525672Y211877D01*
X525678Y211954D01*
X525688Y212031D01*
X525702Y212107D01*
X525719Y212182D01*
X525741Y212256D01*
X525766Y212329D01*
X525796Y212401D01*
X525828Y212471D01*
X525865Y212539D01*
X525904Y212605D01*
X525947Y212669D01*
X525994Y212731D01*
X526043Y212790D01*
X526096Y212847D01*
X526151Y212901D01*
X526209Y212952D01*
X526270Y213000D01*
X526333Y213045D01*
X526398Y213086D01*
X526465Y213124D01*
X526534Y213159D01*
X526605Y213189D01*
X526677Y213217D01*
X526751Y213240D01*
X526825Y213260D01*
X526901Y213276D01*
X526977Y213288D01*
X527054Y213296D01*
X527131Y213300D01*
X527209Y213300D01*
X527286Y213296D01*
X527363Y213288D01*
X527439Y213276D01*
X527515Y213260D01*
X527589Y213240D01*
X527663Y213217D01*
X527735Y213189D01*
X527806Y213159D01*
X527875Y213124D01*
X527942Y213086D01*
X528007Y213045D01*
X528070Y213000D01*
X528131Y212952D01*
X528189Y212901D01*
X528244Y212847D01*
X528297Y212790D01*
X528346Y212731D01*
X528393Y212669D01*
X528436Y212605D01*
X528475Y212539D01*
X528512Y212471D01*
X528544Y212401D01*
X528574Y212329D01*
X528599Y212256D01*
X528621Y212182D01*
X528638Y212107D01*
X528652Y212031D01*
X528662Y211954D01*
X528668Y211877D01*
X528670Y211800D01*
X528668Y211723D01*
X528662Y211646D01*
X528652Y211569D01*
X528638Y211493D01*
X528621Y211418D01*
X528599Y211344D01*
X528574Y211271D01*
X528544Y211199D01*
X528512Y211129D01*
X528475Y211061D01*
X528436Y210995D01*
X528393Y210931D01*
X528346Y210869D01*
X528297Y210810D01*
X528244Y210753D01*
X528189Y210699D01*
X528131Y210648D01*
X528070Y210600D01*
X528007Y210555D01*
X527942Y210514D01*
X527875Y210476D01*
X527806Y210441D01*
X527735Y210411D01*
X527663Y210383D01*
X527589Y210360D01*
X527515Y210340D01*
X527439Y210324D01*
X527363Y210312D01*
X527286Y210304D01*
X527209Y210300D01*
X527131Y210300D01*
X527054Y210304D01*
X526977Y210312D01*
X526901Y210324D01*
X526825Y210340D01*
X526751Y210360D01*
X526677Y210383D01*
X526605Y210411D01*
X526534Y210441D01*
X526465Y210476D01*
X526398Y210514D01*
X526333Y210555D01*
X526270Y210600D01*
X526209Y210648D01*
X526151Y210699D01*
X526096Y210753D01*
X526043Y210810D01*
X525994Y210869D01*
X525947Y210931D01*
X525904Y210995D01*
X525865Y211061D01*
X525828Y211129D01*
X525796Y211199D01*
X525766Y211271D01*
X525741Y211344D01*
X525719Y211418D01*
X525702Y211493D01*
X525688Y211569D01*
X525678Y211646D01*
X525672Y211723D01*
X525670Y211800D01*
D12*
X554426Y189594D02*
X559934Y189594D01*
X561036Y190695D01*
X561036Y192899D01*
X559934Y194000D01*
X554426Y194000D01*
X556630Y197078D02*
X554426Y199281D01*
X561036Y199281D01*
X561036Y197078D02*
X561036Y201484D01*
D14*
X372745Y95250D02*
X372745Y85090D01*
D12*
X342625Y89582D02*
X341524Y90684D01*
X339320Y90684D01*
X338219Y89582D01*
X338219Y85176D01*
X339320Y84074D01*
X341524Y84074D01*
X342625Y85176D01*
X345703Y88480D02*
X347906Y90684D01*
X347906Y84074D01*
X345703Y84074D02*
X350109Y84074D01*
D14*
X539910Y22240D02*
X559910Y22240D01*
X559910Y8240D02*
X539910Y8240D01*
X547410Y15240D02*
X553410Y19240D01*
X553410Y11240D01*
X547410Y15240D01*
D18*
X546410Y15240D03*
D12*
X539672Y26002D02*
X539672Y32612D01*
X539672Y26002D02*
X542977Y26002D01*
X544078Y27104D01*
X544078Y31510D01*
X542977Y32612D01*
X539672Y32612D01*
X547156Y27104D02*
X548258Y26002D01*
X550461Y26002D01*
X551563Y27104D01*
X551563Y31510D01*
X550461Y32612D01*
X548258Y32612D01*
X547156Y31510D01*
X547156Y30408D01*
X548258Y29307D01*
X551563Y29307D01*
D14*
X334660Y163990D02*
X334660Y183990D01*
X320660Y183990D02*
X320660Y163990D01*
X331660Y170490D02*
X327660Y176490D01*
X331660Y170490D02*
X323660Y170490D01*
X327660Y176490D01*
D572*
X327660Y177490D03*
D12*
X338416Y170784D02*
X345026Y170784D01*
X345026Y174089D01*
X343924Y175190D01*
X339518Y175190D01*
X338416Y174089D01*
X338416Y170784D01*
X339518Y178268D02*
X338416Y179369D01*
X338416Y181573D01*
X339518Y182674D01*
X340620Y182674D01*
X341721Y181573D01*
X341721Y180471D01*
X341721Y181573D02*
X342823Y182674D01*
X343924Y182674D01*
X345026Y181573D01*
X345026Y179369D01*
X343924Y178268D01*
D14*
X344820Y133190D02*
X344820Y113190D01*
X330820Y113190D02*
X330820Y133190D01*
X337820Y125690D02*
X341820Y119690D01*
X333820Y119690D01*
X337820Y125690D01*
D572*
X337820Y126690D03*
D12*
X348576Y119984D02*
X355186Y119984D01*
X355186Y123289D01*
X354084Y124390D01*
X349678Y124390D01*
X348576Y123289D01*
X348576Y119984D01*
X350780Y127468D02*
X348576Y129671D01*
X355186Y129671D01*
X355186Y127468D02*
X355186Y131874D01*
D15*
X580573Y77470D03*
D12*
X549083Y66554D02*
X549083Y59944D01*
X549083Y66554D02*
X552388Y66554D01*
X553489Y65452D01*
X553489Y63249D01*
X552388Y62147D01*
X549083Y62147D01*
X556567Y59944D02*
X556567Y66554D01*
X558770Y62147D02*
X556567Y59944D01*
X558770Y62147D02*
X560973Y59944D01*
X560973Y66554D01*
X564051Y66554D02*
X564051Y59944D01*
X564051Y66554D02*
X567356Y66554D01*
X568458Y65452D01*
X568458Y63249D01*
X567356Y62147D01*
X564051Y62147D01*
X566254Y62147D02*
X568458Y59944D01*
X574840Y66554D02*
X575942Y65452D01*
X574840Y66554D02*
X572637Y66554D01*
X571535Y65452D01*
X571535Y64350D01*
X572637Y63249D01*
X574840Y63249D01*
X575942Y62147D01*
X575942Y61046D01*
X574840Y59944D01*
X572637Y59944D01*
X571535Y61046D01*
X581223Y59944D02*
X581223Y66554D01*
X579020Y66554D02*
X583426Y66554D01*
X586504Y64350D02*
X586504Y59944D01*
X586504Y64350D02*
X588707Y66554D01*
X590910Y64350D01*
X590910Y59944D01*
X590910Y63249D02*
X586504Y63249D01*
X596191Y59944D02*
X596191Y66554D01*
X593988Y66554D02*
X598394Y66554D01*
D15*
X580573Y48260D03*
D12*
X549083Y37344D02*
X549083Y30734D01*
X553489Y30734D02*
X549083Y37344D01*
X553489Y37344D02*
X553489Y30734D01*
X556567Y37344D02*
X560973Y37344D01*
X556567Y37344D02*
X556567Y30734D01*
X560973Y30734D01*
X558770Y34039D02*
X556567Y34039D01*
X566254Y30734D02*
X566254Y37344D01*
X564051Y37344D02*
X568458Y37344D01*
X574840Y37344D02*
X575942Y36242D01*
X574840Y37344D02*
X572637Y37344D01*
X571535Y36242D01*
X571535Y35140D01*
X572637Y34039D01*
X574840Y34039D01*
X575942Y32937D01*
X575942Y31836D01*
X574840Y30734D01*
X572637Y30734D01*
X571535Y31836D01*
X581223Y30734D02*
X581223Y37344D01*
X579020Y37344D02*
X583426Y37344D01*
X586504Y35140D02*
X586504Y30734D01*
X586504Y35140D02*
X588707Y37344D01*
X590910Y35140D01*
X590910Y30734D01*
X590910Y34039D02*
X586504Y34039D01*
X596191Y30734D02*
X596191Y37344D01*
X593988Y37344D02*
X598394Y37344D01*
X550944Y85344D02*
X550944Y91954D01*
X554249Y91954D01*
X555350Y90852D01*
X555350Y88649D01*
X554249Y87547D01*
X550944Y87547D01*
X553147Y87547D02*
X555350Y85344D01*
X558428Y89750D02*
X560631Y91954D01*
X560631Y85344D01*
X558428Y85344D02*
X562834Y85344D01*
X550944Y34804D02*
X550944Y28194D01*
X550944Y34804D02*
X554249Y34804D01*
X555350Y33702D01*
X555350Y31499D01*
X554249Y30397D01*
X550944Y30397D01*
X553147Y30397D02*
X555350Y28194D01*
X558428Y33702D02*
X559529Y34804D01*
X561733Y34804D01*
X562834Y33702D01*
X562834Y32600D01*
X561733Y31499D01*
X560631Y31499D01*
X561733Y31499D02*
X562834Y30397D01*
X562834Y29296D01*
X561733Y28194D01*
X559529Y28194D01*
X558428Y29296D01*
D14*
X363650Y117420D02*
X363650Y126420D01*
X385650Y126420D02*
X385650Y117420D01*
X358650Y118420D02*
X358652Y118483D01*
X358658Y118545D01*
X358668Y118607D01*
X358681Y118669D01*
X358699Y118729D01*
X358720Y118788D01*
X358745Y118846D01*
X358774Y118902D01*
X358806Y118956D01*
X358841Y119008D01*
X358879Y119057D01*
X358921Y119105D01*
X358965Y119149D01*
X359013Y119191D01*
X359062Y119229D01*
X359114Y119264D01*
X359168Y119296D01*
X359224Y119325D01*
X359282Y119350D01*
X359341Y119371D01*
X359401Y119389D01*
X359463Y119402D01*
X359525Y119412D01*
X359587Y119418D01*
X359650Y119420D01*
X359713Y119418D01*
X359775Y119412D01*
X359837Y119402D01*
X359899Y119389D01*
X359959Y119371D01*
X360018Y119350D01*
X360076Y119325D01*
X360132Y119296D01*
X360186Y119264D01*
X360238Y119229D01*
X360287Y119191D01*
X360335Y119149D01*
X360379Y119105D01*
X360421Y119057D01*
X360459Y119008D01*
X360494Y118956D01*
X360526Y118902D01*
X360555Y118846D01*
X360580Y118788D01*
X360601Y118729D01*
X360619Y118669D01*
X360632Y118607D01*
X360642Y118545D01*
X360648Y118483D01*
X360650Y118420D01*
X360648Y118357D01*
X360642Y118295D01*
X360632Y118233D01*
X360619Y118171D01*
X360601Y118111D01*
X360580Y118052D01*
X360555Y117994D01*
X360526Y117938D01*
X360494Y117884D01*
X360459Y117832D01*
X360421Y117783D01*
X360379Y117735D01*
X360335Y117691D01*
X360287Y117649D01*
X360238Y117611D01*
X360186Y117576D01*
X360132Y117544D01*
X360076Y117515D01*
X360018Y117490D01*
X359959Y117469D01*
X359899Y117451D01*
X359837Y117438D01*
X359775Y117428D01*
X359713Y117422D01*
X359650Y117420D01*
X359587Y117422D01*
X359525Y117428D01*
X359463Y117438D01*
X359401Y117451D01*
X359341Y117469D01*
X359282Y117490D01*
X359224Y117515D01*
X359168Y117544D01*
X359114Y117576D01*
X359062Y117611D01*
X359013Y117649D01*
X358965Y117691D01*
X358921Y117735D01*
X358879Y117783D01*
X358841Y117832D01*
X358806Y117884D01*
X358774Y117938D01*
X358745Y117994D01*
X358720Y118052D01*
X358699Y118111D01*
X358681Y118171D01*
X358668Y118233D01*
X358658Y118295D01*
X358652Y118357D01*
X358650Y118420D01*
D12*
X391922Y123952D02*
X391922Y130562D01*
X391922Y123952D02*
X395227Y123952D01*
X396328Y125054D01*
X396328Y129460D01*
X395227Y130562D01*
X391922Y130562D01*
X399406Y123952D02*
X403813Y123952D01*
X403813Y128358D02*
X399406Y123952D01*
X403813Y128358D02*
X403813Y129460D01*
X402711Y130562D01*
X400508Y130562D01*
X399406Y129460D01*
D14*
X318120Y79850D02*
X318120Y62390D01*
X332120Y62390D02*
X332120Y79850D01*
X321120Y74120D02*
X325120Y68120D01*
X321120Y74120D02*
X329120Y74120D01*
X325120Y68120D01*
D572*
X325120Y67120D03*
D12*
X314198Y59182D02*
X307588Y59182D01*
X314198Y59182D02*
X314198Y62487D01*
X313096Y63588D01*
X308690Y63588D01*
X307588Y62487D01*
X307588Y59182D01*
X307588Y66666D02*
X307588Y71073D01*
X307588Y66666D02*
X310893Y66666D01*
X309792Y68869D01*
X309792Y69971D01*
X310893Y71073D01*
X313096Y71073D01*
X314198Y69971D01*
X314198Y67768D01*
X313096Y66666D01*
D13*
X501650Y210820D02*
X501650Y220980D01*
D12*
X471530Y215312D02*
X470429Y216414D01*
X468225Y216414D01*
X467124Y215312D01*
X467124Y210906D01*
X468225Y209804D01*
X470429Y209804D01*
X471530Y210906D01*
X474608Y216414D02*
X479014Y216414D01*
X474608Y216414D02*
X474608Y213109D01*
X476811Y214210D01*
X477913Y214210D01*
X479014Y213109D01*
X479014Y210906D01*
X477913Y209804D01*
X475709Y209804D01*
X474608Y210906D01*
D13*
X535940Y210820D02*
X535940Y220980D01*
D12*
X560327Y222002D02*
X561428Y220900D01*
X560327Y222002D02*
X558124Y222002D01*
X557022Y220900D01*
X557022Y216494D01*
X558124Y215392D01*
X560327Y215392D01*
X561428Y216494D01*
X564506Y215392D02*
X568913Y215392D01*
X568913Y219798D02*
X564506Y215392D01*
X568913Y219798D02*
X568913Y220900D01*
X567811Y222002D01*
X565608Y222002D01*
X564506Y220900D01*
D11*
X351204Y86453D02*
X349255Y88402D01*
X345357Y88402D01*
X343408Y86453D01*
X343408Y78657D01*
X345357Y76708D01*
X349255Y76708D01*
X351204Y78657D01*
X360949Y76708D02*
X360949Y88402D01*
X355102Y82555D01*
X362898Y82555D01*
D14*
X563580Y142830D02*
X563580Y156830D01*
X563580Y142830D02*
X589580Y142830D01*
X589580Y184830D02*
X563580Y184830D01*
X563580Y170830D01*
X589580Y156830D02*
X589580Y142830D01*
X589580Y170830D02*
X589580Y184830D01*
X562580Y156830D02*
X562580Y143830D01*
X562580Y170830D02*
X562580Y183830D01*
X561580Y156830D02*
X561580Y142830D01*
X561580Y170830D02*
X561580Y184830D01*
X561580Y142830D02*
X563580Y142830D01*
X563580Y156830D02*
X561580Y156830D01*
X561580Y170830D02*
X563580Y170830D01*
X563580Y184830D02*
X561580Y184830D01*
D573*
X571459Y137548D02*
X577051Y129159D01*
X571459Y129159D02*
X577051Y137548D01*
X585008Y137548D02*
X585008Y129159D01*
X580814Y133354D02*
X585008Y137548D01*
X586407Y133354D02*
X580814Y133354D01*
D14*
X346760Y162950D02*
X346760Y179950D01*
X346760Y162950D02*
X361760Y162950D01*
X369760Y162950D02*
X384760Y162950D01*
X384760Y179950D01*
X369760Y179950D01*
X361760Y179950D02*
X346760Y179950D01*
X361760Y179950D02*
X361818Y179832D01*
X361880Y179716D01*
X361945Y179602D01*
X362013Y179490D01*
X362085Y179380D01*
X362160Y179272D01*
X362238Y179166D01*
X362319Y179063D01*
X362403Y178962D01*
X362490Y178864D01*
X362580Y178768D01*
X362673Y178675D01*
X362769Y178585D01*
X362867Y178498D01*
X362968Y178413D01*
X363071Y178332D01*
X363176Y178254D01*
X363284Y178179D01*
X363394Y178107D01*
X363506Y178038D01*
X363620Y177973D01*
X363736Y177912D01*
X363854Y177853D01*
X363973Y177798D01*
X364094Y177747D01*
X364217Y177700D01*
X364340Y177656D01*
X364466Y177615D01*
X364592Y177579D01*
X364719Y177546D01*
X364847Y177517D01*
X364976Y177492D01*
X365106Y177471D01*
X365236Y177453D01*
X365366Y177440D01*
X365497Y177430D01*
X365629Y177424D01*
X365760Y177422D01*
X365891Y177424D01*
X366023Y177430D01*
X366154Y177440D01*
X366284Y177453D01*
X366414Y177471D01*
X366544Y177492D01*
X366673Y177517D01*
X366801Y177546D01*
X366928Y177579D01*
X367054Y177615D01*
X367180Y177656D01*
X367303Y177700D01*
X367426Y177747D01*
X367547Y177798D01*
X367666Y177853D01*
X367784Y177912D01*
X367900Y177973D01*
X368014Y178038D01*
X368126Y178107D01*
X368236Y178179D01*
X368344Y178254D01*
X368449Y178332D01*
X368552Y178413D01*
X368653Y178498D01*
X368751Y178585D01*
X368847Y178675D01*
X368940Y178768D01*
X369030Y178864D01*
X369117Y178962D01*
X369201Y179063D01*
X369282Y179166D01*
X369360Y179272D01*
X369435Y179380D01*
X369507Y179490D01*
X369575Y179602D01*
X369640Y179716D01*
X369702Y179832D01*
X369760Y179950D01*
X369760Y162950D02*
X369702Y163068D01*
X369640Y163184D01*
X369575Y163298D01*
X369507Y163410D01*
X369435Y163520D01*
X369360Y163628D01*
X369282Y163734D01*
X369201Y163837D01*
X369117Y163938D01*
X369030Y164036D01*
X368940Y164132D01*
X368847Y164225D01*
X368751Y164315D01*
X368653Y164402D01*
X368552Y164487D01*
X368449Y164568D01*
X368344Y164646D01*
X368236Y164721D01*
X368126Y164793D01*
X368014Y164862D01*
X367900Y164927D01*
X367784Y164988D01*
X367666Y165047D01*
X367547Y165102D01*
X367426Y165153D01*
X367303Y165200D01*
X367180Y165244D01*
X367054Y165285D01*
X366928Y165321D01*
X366801Y165354D01*
X366673Y165383D01*
X366544Y165408D01*
X366414Y165429D01*
X366284Y165447D01*
X366154Y165460D01*
X366023Y165470D01*
X365891Y165476D01*
X365760Y165478D01*
X365629Y165476D01*
X365497Y165470D01*
X365366Y165460D01*
X365236Y165447D01*
X365106Y165429D01*
X364976Y165408D01*
X364847Y165383D01*
X364719Y165354D01*
X364592Y165321D01*
X364466Y165285D01*
X364340Y165244D01*
X364217Y165200D01*
X364094Y165153D01*
X363973Y165102D01*
X363854Y165047D01*
X363736Y164988D01*
X363620Y164927D01*
X363506Y164862D01*
X363394Y164793D01*
X363284Y164721D01*
X363176Y164646D01*
X363071Y164568D01*
X362968Y164487D01*
X362867Y164402D01*
X362769Y164315D01*
X362673Y164225D01*
X362580Y164132D01*
X362490Y164036D01*
X362403Y163938D01*
X362319Y163837D01*
X362238Y163734D01*
X362160Y163628D01*
X362085Y163520D01*
X362013Y163410D01*
X361945Y163298D01*
X361880Y163184D01*
X361818Y163068D01*
X361760Y162950D01*
D17*
X349317Y175270D02*
X348385Y176203D01*
X351181Y176203D01*
X351181Y177135D02*
X351181Y175270D01*
D11*
X339852Y162566D02*
X328158Y154770D01*
X328158Y162566D02*
X339852Y154770D01*
X328158Y166464D02*
X328158Y174260D01*
X328158Y166464D02*
X334005Y166464D01*
X332056Y170362D01*
X332056Y172311D01*
X334005Y174260D01*
X337903Y174260D01*
X339852Y172311D01*
X339852Y168413D01*
X337903Y166464D01*
D14*
X346760Y159630D02*
X346760Y142630D01*
X361760Y142630D01*
X369760Y142630D02*
X384760Y142630D01*
X384760Y159630D01*
X369760Y159630D01*
X361760Y159630D02*
X346760Y159630D01*
X361760Y159630D02*
X361818Y159512D01*
X361880Y159396D01*
X361945Y159282D01*
X362013Y159170D01*
X362085Y159060D01*
X362160Y158952D01*
X362238Y158846D01*
X362319Y158743D01*
X362403Y158642D01*
X362490Y158544D01*
X362580Y158448D01*
X362673Y158355D01*
X362769Y158265D01*
X362867Y158178D01*
X362968Y158093D01*
X363071Y158012D01*
X363176Y157934D01*
X363284Y157859D01*
X363394Y157787D01*
X363506Y157718D01*
X363620Y157653D01*
X363736Y157592D01*
X363854Y157533D01*
X363973Y157478D01*
X364094Y157427D01*
X364217Y157380D01*
X364340Y157336D01*
X364466Y157295D01*
X364592Y157259D01*
X364719Y157226D01*
X364847Y157197D01*
X364976Y157172D01*
X365106Y157151D01*
X365236Y157133D01*
X365366Y157120D01*
X365497Y157110D01*
X365629Y157104D01*
X365760Y157102D01*
X365891Y157104D01*
X366023Y157110D01*
X366154Y157120D01*
X366284Y157133D01*
X366414Y157151D01*
X366544Y157172D01*
X366673Y157197D01*
X366801Y157226D01*
X366928Y157259D01*
X367054Y157295D01*
X367180Y157336D01*
X367303Y157380D01*
X367426Y157427D01*
X367547Y157478D01*
X367666Y157533D01*
X367784Y157592D01*
X367900Y157653D01*
X368014Y157718D01*
X368126Y157787D01*
X368236Y157859D01*
X368344Y157934D01*
X368449Y158012D01*
X368552Y158093D01*
X368653Y158178D01*
X368751Y158265D01*
X368847Y158355D01*
X368940Y158448D01*
X369030Y158544D01*
X369117Y158642D01*
X369201Y158743D01*
X369282Y158846D01*
X369360Y158952D01*
X369435Y159060D01*
X369507Y159170D01*
X369575Y159282D01*
X369640Y159396D01*
X369702Y159512D01*
X369760Y159630D01*
X369760Y142630D02*
X369702Y142748D01*
X369640Y142864D01*
X369575Y142978D01*
X369507Y143090D01*
X369435Y143200D01*
X369360Y143308D01*
X369282Y143414D01*
X369201Y143517D01*
X369117Y143618D01*
X369030Y143716D01*
X368940Y143812D01*
X368847Y143905D01*
X368751Y143995D01*
X368653Y144082D01*
X368552Y144167D01*
X368449Y144248D01*
X368344Y144326D01*
X368236Y144401D01*
X368126Y144473D01*
X368014Y144542D01*
X367900Y144607D01*
X367784Y144668D01*
X367666Y144727D01*
X367547Y144782D01*
X367426Y144833D01*
X367303Y144880D01*
X367180Y144924D01*
X367054Y144965D01*
X366928Y145001D01*
X366801Y145034D01*
X366673Y145063D01*
X366544Y145088D01*
X366414Y145109D01*
X366284Y145127D01*
X366154Y145140D01*
X366023Y145150D01*
X365891Y145156D01*
X365760Y145158D01*
X365629Y145156D01*
X365497Y145150D01*
X365366Y145140D01*
X365236Y145127D01*
X365106Y145109D01*
X364976Y145088D01*
X364847Y145063D01*
X364719Y145034D01*
X364592Y145001D01*
X364466Y144965D01*
X364340Y144924D01*
X364217Y144880D01*
X364094Y144833D01*
X363973Y144782D01*
X363854Y144727D01*
X363736Y144668D01*
X363620Y144607D01*
X363506Y144542D01*
X363394Y144473D01*
X363284Y144401D01*
X363176Y144326D01*
X363071Y144248D01*
X362968Y144167D01*
X362867Y144082D01*
X362769Y143995D01*
X362673Y143905D01*
X362580Y143812D01*
X362490Y143716D01*
X362403Y143618D01*
X362319Y143517D01*
X362238Y143414D01*
X362160Y143308D01*
X362085Y143200D01*
X362013Y143090D01*
X361945Y142978D01*
X361880Y142864D01*
X361818Y142748D01*
X361760Y142630D01*
D17*
X349317Y154950D02*
X348385Y155883D01*
X351181Y155883D01*
X351181Y156815D02*
X351181Y154950D01*
D11*
X339852Y142246D02*
X328158Y134450D01*
X328158Y142246D02*
X339852Y134450D01*
X330107Y150042D02*
X328158Y153940D01*
X330107Y150042D02*
X334005Y146144D01*
X337903Y146144D01*
X339852Y148093D01*
X339852Y151991D01*
X337903Y153940D01*
X335954Y153940D01*
X334005Y151991D01*
X334005Y146144D01*
D14*
X553850Y122760D02*
X601850Y122760D01*
X601850Y100760D01*
X553850Y100760D01*
X553850Y122760D01*
D12*
X604012Y117862D02*
X608418Y111252D01*
X604012Y111252D02*
X608418Y117862D01*
X611496Y117862D02*
X615903Y117862D01*
X615903Y116760D01*
X611496Y112354D01*
X611496Y111252D01*
D14*
X493870Y22240D02*
X473870Y22240D01*
X473870Y8240D02*
X493870Y8240D01*
X487370Y19240D02*
X481370Y15240D01*
X487370Y19240D02*
X487370Y11240D01*
X481370Y15240D01*
D18*
X480370Y15240D03*
D12*
X473632Y26002D02*
X473632Y32612D01*
X473632Y26002D02*
X476937Y26002D01*
X478038Y27104D01*
X478038Y31510D01*
X476937Y32612D01*
X473632Y32612D01*
X481116Y32612D02*
X485523Y32612D01*
X485523Y31510D01*
X481116Y27104D01*
X481116Y26002D01*
X192532Y173736D02*
X192532Y180346D01*
X195837Y180346D01*
X196938Y179244D01*
X196938Y177041D01*
X195837Y175939D01*
X192532Y175939D01*
X194735Y175939D02*
X196938Y173736D01*
X202219Y179244D02*
X204423Y180346D01*
X202219Y179244D02*
X200016Y177041D01*
X200016Y174838D01*
X201118Y173736D01*
X203321Y173736D01*
X204423Y174838D01*
X204423Y175939D01*
X203321Y177041D01*
X200016Y177041D01*
X317748Y139192D02*
X324358Y139192D01*
X317748Y139192D02*
X317748Y142497D01*
X318850Y143598D01*
X321053Y143598D01*
X322155Y142497D01*
X322155Y139192D01*
X322155Y141395D02*
X324358Y143598D01*
X323256Y146676D02*
X324358Y147778D01*
X324358Y149981D01*
X323256Y151083D01*
X318850Y151083D01*
X317748Y149981D01*
X317748Y147778D01*
X318850Y146676D01*
X319952Y146676D01*
X321053Y147778D01*
X321053Y151083D01*
D13*
X166280Y111760D02*
X166283Y111980D01*
X166291Y112201D01*
X166304Y112421D01*
X166323Y112640D01*
X166348Y112859D01*
X166377Y113078D01*
X166412Y113295D01*
X166453Y113512D01*
X166498Y113728D01*
X166549Y113942D01*
X166605Y114155D01*
X166667Y114367D01*
X166733Y114577D01*
X166805Y114785D01*
X166882Y114992D01*
X166964Y115196D01*
X167050Y115399D01*
X167142Y115599D01*
X167239Y115798D01*
X167340Y115993D01*
X167447Y116186D01*
X167558Y116377D01*
X167673Y116564D01*
X167793Y116749D01*
X167918Y116931D01*
X168047Y117109D01*
X168181Y117285D01*
X168318Y117457D01*
X168460Y117625D01*
X168606Y117791D01*
X168756Y117952D01*
X168910Y118110D01*
X169068Y118264D01*
X169229Y118414D01*
X169395Y118560D01*
X169563Y118702D01*
X169735Y118839D01*
X169911Y118973D01*
X170089Y119102D01*
X170271Y119227D01*
X170456Y119347D01*
X170643Y119462D01*
X170834Y119573D01*
X171027Y119680D01*
X171222Y119781D01*
X171421Y119878D01*
X171621Y119970D01*
X171824Y120056D01*
X172028Y120138D01*
X172235Y120215D01*
X172443Y120287D01*
X172653Y120353D01*
X172865Y120415D01*
X173078Y120471D01*
X173292Y120522D01*
X173508Y120567D01*
X173725Y120608D01*
X173942Y120643D01*
X174161Y120672D01*
X174380Y120697D01*
X174599Y120716D01*
X174819Y120729D01*
X175040Y120737D01*
X175260Y120740D01*
X175480Y120737D01*
X175701Y120729D01*
X175921Y120716D01*
X176140Y120697D01*
X176359Y120672D01*
X176578Y120643D01*
X176795Y120608D01*
X177012Y120567D01*
X177228Y120522D01*
X177442Y120471D01*
X177655Y120415D01*
X177867Y120353D01*
X178077Y120287D01*
X178285Y120215D01*
X178492Y120138D01*
X178696Y120056D01*
X178899Y119970D01*
X179099Y119878D01*
X179298Y119781D01*
X179493Y119680D01*
X179686Y119573D01*
X179877Y119462D01*
X180064Y119347D01*
X180249Y119227D01*
X180431Y119102D01*
X180609Y118973D01*
X180785Y118839D01*
X180957Y118702D01*
X181125Y118560D01*
X181291Y118414D01*
X181452Y118264D01*
X181610Y118110D01*
X181764Y117952D01*
X181914Y117791D01*
X182060Y117625D01*
X182202Y117457D01*
X182339Y117285D01*
X182473Y117109D01*
X182602Y116931D01*
X182727Y116749D01*
X182847Y116564D01*
X182962Y116377D01*
X183073Y116186D01*
X183180Y115993D01*
X183281Y115798D01*
X183378Y115599D01*
X183470Y115399D01*
X183556Y115196D01*
X183638Y114992D01*
X183715Y114785D01*
X183787Y114577D01*
X183853Y114367D01*
X183915Y114155D01*
X183971Y113942D01*
X184022Y113728D01*
X184067Y113512D01*
X184108Y113295D01*
X184143Y113078D01*
X184172Y112859D01*
X184197Y112640D01*
X184216Y112421D01*
X184229Y112201D01*
X184237Y111980D01*
X184240Y111760D01*
X184237Y111540D01*
X184229Y111319D01*
X184216Y111099D01*
X184197Y110880D01*
X184172Y110661D01*
X184143Y110442D01*
X184108Y110225D01*
X184067Y110008D01*
X184022Y109792D01*
X183971Y109578D01*
X183915Y109365D01*
X183853Y109153D01*
X183787Y108943D01*
X183715Y108735D01*
X183638Y108528D01*
X183556Y108324D01*
X183470Y108121D01*
X183378Y107921D01*
X183281Y107722D01*
X183180Y107527D01*
X183073Y107334D01*
X182962Y107143D01*
X182847Y106956D01*
X182727Y106771D01*
X182602Y106589D01*
X182473Y106411D01*
X182339Y106235D01*
X182202Y106063D01*
X182060Y105895D01*
X181914Y105729D01*
X181764Y105568D01*
X181610Y105410D01*
X181452Y105256D01*
X181291Y105106D01*
X181125Y104960D01*
X180957Y104818D01*
X180785Y104681D01*
X180609Y104547D01*
X180431Y104418D01*
X180249Y104293D01*
X180064Y104173D01*
X179877Y104058D01*
X179686Y103947D01*
X179493Y103840D01*
X179298Y103739D01*
X179099Y103642D01*
X178899Y103550D01*
X178696Y103464D01*
X178492Y103382D01*
X178285Y103305D01*
X178077Y103233D01*
X177867Y103167D01*
X177655Y103105D01*
X177442Y103049D01*
X177228Y102998D01*
X177012Y102953D01*
X176795Y102912D01*
X176578Y102877D01*
X176359Y102848D01*
X176140Y102823D01*
X175921Y102804D01*
X175701Y102791D01*
X175480Y102783D01*
X175260Y102780D01*
X175040Y102783D01*
X174819Y102791D01*
X174599Y102804D01*
X174380Y102823D01*
X174161Y102848D01*
X173942Y102877D01*
X173725Y102912D01*
X173508Y102953D01*
X173292Y102998D01*
X173078Y103049D01*
X172865Y103105D01*
X172653Y103167D01*
X172443Y103233D01*
X172235Y103305D01*
X172028Y103382D01*
X171824Y103464D01*
X171621Y103550D01*
X171421Y103642D01*
X171222Y103739D01*
X171027Y103840D01*
X170834Y103947D01*
X170643Y104058D01*
X170456Y104173D01*
X170271Y104293D01*
X170089Y104418D01*
X169911Y104547D01*
X169735Y104681D01*
X169563Y104818D01*
X169395Y104960D01*
X169229Y105106D01*
X169068Y105256D01*
X168910Y105410D01*
X168756Y105568D01*
X168606Y105729D01*
X168460Y105895D01*
X168318Y106063D01*
X168181Y106235D01*
X168047Y106411D01*
X167918Y106589D01*
X167793Y106771D01*
X167673Y106956D01*
X167558Y107143D01*
X167447Y107334D01*
X167340Y107527D01*
X167239Y107722D01*
X167142Y107921D01*
X167050Y108121D01*
X166964Y108324D01*
X166882Y108528D01*
X166805Y108735D01*
X166733Y108943D01*
X166667Y109153D01*
X166605Y109365D01*
X166549Y109578D01*
X166498Y109792D01*
X166453Y110008D01*
X166412Y110225D01*
X166377Y110442D01*
X166348Y110661D01*
X166323Y110880D01*
X166304Y111099D01*
X166291Y111319D01*
X166283Y111540D01*
X166280Y111760D01*
D14*
X172720Y107696D02*
X172720Y115831D01*
X176787Y115831D01*
X178143Y114475D01*
X178143Y113119D01*
X176787Y111763D01*
X178143Y110408D01*
X178143Y109052D01*
X176787Y107696D01*
X172720Y107696D01*
X172720Y111763D02*
X176787Y111763D01*
M02*
