G04 EAGLE Gerber RS-274X export*
G75*
%MOMM*%
%FSLAX34Y34*%
%LPD*%
%INBottom Copper*%
%IPPOS*%
%AMOC8*
5,1,8,0,0,1.08239X$1,22.5*%
G01*
%ADD10C,3.516000*%
%ADD11R,2.500000X2.500000*%
%ADD12C,1.308000*%
%ADD13C,1.676400*%
%ADD14C,1.500000*%
%ADD15R,1.500000X2.000000*%
%ADD16C,0.906400*%
%ADD17C,0.254000*%
%ADD18C,0.406400*%

G36*
X56004Y2558D02*
X56004Y2558D01*
X56143Y2571D01*
X56162Y2578D01*
X56182Y2581D01*
X56311Y2632D01*
X56442Y2679D01*
X56459Y2690D01*
X56478Y2698D01*
X56590Y2779D01*
X56705Y2857D01*
X56719Y2873D01*
X56735Y2884D01*
X56824Y2992D01*
X56916Y3096D01*
X56925Y3114D01*
X56938Y3129D01*
X56997Y3255D01*
X57060Y3379D01*
X57065Y3399D01*
X57073Y3417D01*
X57099Y3553D01*
X57130Y3689D01*
X57129Y3710D01*
X57133Y3729D01*
X57124Y3868D01*
X57120Y4007D01*
X57115Y4027D01*
X57113Y4047D01*
X57071Y4179D01*
X57032Y4313D01*
X57022Y4330D01*
X57015Y4349D01*
X56941Y4467D01*
X56870Y4587D01*
X56852Y4608D01*
X56845Y4618D01*
X56830Y4632D01*
X56764Y4707D01*
X54671Y6801D01*
X53085Y10628D01*
X53085Y14772D01*
X54671Y18599D01*
X57601Y21529D01*
X61428Y23115D01*
X65572Y23115D01*
X69399Y21529D01*
X72329Y18599D01*
X73915Y14772D01*
X73915Y10628D01*
X72329Y6801D01*
X70236Y4707D01*
X70151Y4598D01*
X70062Y4491D01*
X70054Y4472D01*
X70041Y4456D01*
X69986Y4328D01*
X69927Y4203D01*
X69923Y4183D01*
X69915Y4164D01*
X69893Y4026D01*
X69867Y3890D01*
X69868Y3870D01*
X69865Y3850D01*
X69878Y3711D01*
X69887Y3573D01*
X69893Y3554D01*
X69895Y3534D01*
X69942Y3402D01*
X69985Y3271D01*
X69996Y3253D01*
X70002Y3234D01*
X70080Y3119D01*
X70155Y3002D01*
X70170Y2988D01*
X70181Y2971D01*
X70285Y2879D01*
X70386Y2784D01*
X70404Y2774D01*
X70419Y2761D01*
X70544Y2697D01*
X70665Y2630D01*
X70685Y2625D01*
X70703Y2616D01*
X70838Y2586D01*
X70973Y2551D01*
X71001Y2549D01*
X71013Y2546D01*
X71033Y2547D01*
X71134Y2541D01*
X81266Y2541D01*
X81404Y2558D01*
X81543Y2571D01*
X81562Y2578D01*
X81582Y2581D01*
X81711Y2632D01*
X81842Y2679D01*
X81859Y2690D01*
X81878Y2698D01*
X81990Y2779D01*
X82105Y2857D01*
X82119Y2873D01*
X82135Y2884D01*
X82224Y2992D01*
X82316Y3096D01*
X82325Y3114D01*
X82338Y3129D01*
X82397Y3255D01*
X82460Y3379D01*
X82465Y3399D01*
X82473Y3417D01*
X82499Y3553D01*
X82530Y3689D01*
X82529Y3710D01*
X82533Y3729D01*
X82524Y3868D01*
X82520Y4007D01*
X82515Y4027D01*
X82513Y4047D01*
X82471Y4179D01*
X82432Y4313D01*
X82422Y4330D01*
X82415Y4349D01*
X82341Y4467D01*
X82270Y4587D01*
X82252Y4608D01*
X82245Y4618D01*
X82230Y4632D01*
X82164Y4707D01*
X80071Y6801D01*
X78485Y10628D01*
X78485Y14772D01*
X80071Y18599D01*
X83001Y21529D01*
X86828Y23115D01*
X90972Y23115D01*
X92023Y22679D01*
X92051Y22672D01*
X92078Y22658D01*
X92204Y22630D01*
X92330Y22595D01*
X92359Y22595D01*
X92388Y22588D01*
X92518Y22592D01*
X92648Y22590D01*
X92676Y22597D01*
X92706Y22598D01*
X92830Y22634D01*
X92957Y22664D01*
X92983Y22678D01*
X93011Y22687D01*
X93123Y22752D01*
X93238Y22813D01*
X93260Y22833D01*
X93285Y22848D01*
X93406Y22954D01*
X113886Y43435D01*
X147030Y43435D01*
X147167Y43452D01*
X147306Y43465D01*
X147325Y43472D01*
X147345Y43475D01*
X147474Y43526D01*
X147605Y43573D01*
X147622Y43584D01*
X147641Y43592D01*
X147753Y43673D01*
X147869Y43751D01*
X147882Y43767D01*
X147898Y43778D01*
X147987Y43886D01*
X148079Y43990D01*
X148088Y44008D01*
X148101Y44023D01*
X148160Y44149D01*
X148224Y44273D01*
X148228Y44293D01*
X148237Y44311D01*
X148263Y44447D01*
X148293Y44583D01*
X148293Y44604D01*
X148296Y44623D01*
X148288Y44762D01*
X148284Y44901D01*
X148278Y44921D01*
X148277Y44941D01*
X148234Y45072D01*
X148195Y45207D01*
X148185Y45224D01*
X148179Y45243D01*
X148104Y45361D01*
X148034Y45481D01*
X148015Y45502D01*
X148008Y45512D01*
X147993Y45526D01*
X147927Y45601D01*
X145589Y47940D01*
X144137Y51444D01*
X144137Y55236D01*
X145589Y58740D01*
X148270Y61421D01*
X150069Y62167D01*
X150077Y62171D01*
X150086Y62174D01*
X150215Y62250D01*
X150346Y62324D01*
X150352Y62331D01*
X150360Y62335D01*
X150481Y62442D01*
X152674Y64634D01*
X172622Y84583D01*
X183388Y84583D01*
X183418Y84586D01*
X183447Y84584D01*
X183575Y84606D01*
X183704Y84623D01*
X183731Y84633D01*
X183760Y84638D01*
X183879Y84692D01*
X184000Y84740D01*
X184023Y84757D01*
X184050Y84769D01*
X184152Y84850D01*
X184257Y84926D01*
X184276Y84949D01*
X184299Y84968D01*
X184377Y85071D01*
X184460Y85171D01*
X184472Y85198D01*
X184490Y85222D01*
X184561Y85366D01*
X184935Y86269D01*
X186781Y88115D01*
X189194Y89115D01*
X191806Y89115D01*
X194219Y88115D01*
X194428Y87905D01*
X194524Y87832D01*
X194532Y87824D01*
X194538Y87820D01*
X194645Y87732D01*
X194664Y87723D01*
X194680Y87710D01*
X194807Y87655D01*
X194933Y87596D01*
X194953Y87592D01*
X194972Y87584D01*
X195109Y87562D01*
X195246Y87536D01*
X195266Y87537D01*
X195286Y87534D01*
X195424Y87547D01*
X195563Y87556D01*
X195582Y87562D01*
X195602Y87564D01*
X195734Y87611D01*
X195865Y87654D01*
X195882Y87665D01*
X195902Y87672D01*
X196017Y87750D01*
X196134Y87824D01*
X196148Y87839D01*
X196165Y87850D01*
X196257Y87954D01*
X196352Y88056D01*
X196362Y88073D01*
X196375Y88089D01*
X196439Y88213D01*
X196506Y88334D01*
X196511Y88354D01*
X196520Y88372D01*
X196550Y88508D01*
X196585Y88642D01*
X196587Y88670D01*
X196590Y88682D01*
X196589Y88703D01*
X196595Y88803D01*
X196595Y98806D01*
X196580Y98924D01*
X196573Y99043D01*
X196560Y99081D01*
X196555Y99122D01*
X196512Y99232D01*
X196475Y99345D01*
X196453Y99380D01*
X196438Y99417D01*
X196369Y99513D01*
X196305Y99614D01*
X196275Y99642D01*
X196252Y99675D01*
X196160Y99751D01*
X196073Y99832D01*
X196038Y99852D01*
X196007Y99877D01*
X195899Y99928D01*
X195795Y99986D01*
X195755Y99996D01*
X195719Y100013D01*
X195602Y100035D01*
X195487Y100065D01*
X195427Y100069D01*
X195407Y100073D01*
X195386Y100071D01*
X195326Y100075D01*
X174929Y100075D01*
X174831Y100063D01*
X174732Y100060D01*
X174674Y100043D01*
X174614Y100035D01*
X174522Y99999D01*
X174427Y99971D01*
X174374Y99941D01*
X174318Y99918D01*
X174238Y99860D01*
X174153Y99810D01*
X174077Y99744D01*
X174061Y99732D01*
X174053Y99722D01*
X174032Y99704D01*
X170394Y96065D01*
X170376Y96042D01*
X170353Y96023D01*
X170279Y95917D01*
X170199Y95814D01*
X170187Y95787D01*
X170170Y95763D01*
X170124Y95642D01*
X170073Y95522D01*
X170068Y95493D01*
X170057Y95466D01*
X170043Y95337D01*
X170023Y95208D01*
X170025Y95179D01*
X170022Y95149D01*
X170040Y95021D01*
X170053Y94892D01*
X170063Y94864D01*
X170067Y94835D01*
X170119Y94682D01*
X170395Y94016D01*
X170395Y91404D01*
X169395Y88991D01*
X167549Y87145D01*
X165136Y86145D01*
X162524Y86145D01*
X160111Y87145D01*
X158265Y88991D01*
X157265Y91404D01*
X157265Y94016D01*
X157630Y94896D01*
X157648Y94963D01*
X157676Y95027D01*
X157690Y95116D01*
X157714Y95202D01*
X157715Y95272D01*
X157726Y95341D01*
X157717Y95431D01*
X157719Y95520D01*
X157702Y95588D01*
X157696Y95658D01*
X157665Y95742D01*
X157645Y95830D01*
X157612Y95891D01*
X157588Y95957D01*
X157538Y96031D01*
X157496Y96111D01*
X157449Y96162D01*
X157410Y96220D01*
X157342Y96279D01*
X157282Y96346D01*
X157224Y96384D01*
X157171Y96431D01*
X157091Y96471D01*
X157016Y96521D01*
X156950Y96543D01*
X156888Y96575D01*
X156800Y96595D01*
X156715Y96624D01*
X156646Y96629D01*
X156578Y96645D01*
X156488Y96642D01*
X156398Y96649D01*
X156330Y96637D01*
X156260Y96635D01*
X156174Y96610D01*
X156085Y96595D01*
X156021Y96566D01*
X155954Y96547D01*
X155877Y96501D01*
X155795Y96464D01*
X155741Y96421D01*
X155680Y96385D01*
X155560Y96279D01*
X149724Y90444D01*
X149664Y90365D01*
X149596Y90293D01*
X149567Y90240D01*
X149530Y90192D01*
X149490Y90101D01*
X149442Y90015D01*
X149427Y89956D01*
X149403Y89901D01*
X149388Y89803D01*
X149363Y89707D01*
X149357Y89607D01*
X149353Y89586D01*
X149355Y89574D01*
X149353Y89546D01*
X149353Y72292D01*
X138528Y61467D01*
X102224Y61467D01*
X102126Y61455D01*
X102027Y61452D01*
X101968Y61435D01*
X101908Y61427D01*
X101816Y61391D01*
X101721Y61363D01*
X101669Y61333D01*
X101613Y61310D01*
X101533Y61252D01*
X101447Y61202D01*
X101372Y61136D01*
X101355Y61124D01*
X101347Y61114D01*
X101326Y61096D01*
X99646Y59416D01*
X99586Y59337D01*
X99518Y59265D01*
X99489Y59212D01*
X99452Y59164D01*
X99412Y59073D01*
X99364Y58987D01*
X99349Y58928D01*
X99325Y58873D01*
X99310Y58775D01*
X99285Y58679D01*
X99279Y58579D01*
X99275Y58558D01*
X99277Y58546D01*
X99275Y58518D01*
X99275Y55844D01*
X98275Y53431D01*
X96429Y51585D01*
X94016Y50585D01*
X91404Y50585D01*
X88991Y51585D01*
X87145Y53431D01*
X86145Y55844D01*
X86145Y58456D01*
X87145Y60869D01*
X88991Y62715D01*
X91404Y63715D01*
X94078Y63715D01*
X94176Y63727D01*
X94275Y63730D01*
X94334Y63747D01*
X94394Y63755D01*
X94486Y63791D01*
X94581Y63819D01*
X94633Y63849D01*
X94689Y63872D01*
X94769Y63930D01*
X94855Y63980D01*
X94930Y64046D01*
X94947Y64058D01*
X94955Y64068D01*
X94976Y64086D01*
X98962Y68073D01*
X135266Y68073D01*
X135364Y68085D01*
X135463Y68088D01*
X135522Y68105D01*
X135582Y68113D01*
X135674Y68149D01*
X135769Y68177D01*
X135821Y68207D01*
X135877Y68230D01*
X135957Y68288D01*
X136043Y68338D01*
X136118Y68404D01*
X136135Y68416D01*
X136143Y68426D01*
X136164Y68444D01*
X142376Y74656D01*
X142436Y74735D01*
X142504Y74807D01*
X142533Y74860D01*
X142570Y74908D01*
X142610Y74999D01*
X142658Y75085D01*
X142673Y75144D01*
X142697Y75199D01*
X142712Y75297D01*
X142737Y75393D01*
X142743Y75493D01*
X142747Y75514D01*
X142745Y75526D01*
X142747Y75554D01*
X142747Y92808D01*
X163732Y113793D01*
X187746Y113793D01*
X187864Y113808D01*
X187983Y113815D01*
X188021Y113828D01*
X188062Y113833D01*
X188172Y113876D01*
X188285Y113913D01*
X188320Y113935D01*
X188357Y113950D01*
X188453Y114019D01*
X188554Y114083D01*
X188582Y114113D01*
X188615Y114136D01*
X188691Y114228D01*
X188772Y114315D01*
X188792Y114350D01*
X188817Y114381D01*
X188868Y114489D01*
X188926Y114593D01*
X188936Y114633D01*
X188953Y114669D01*
X188975Y114786D01*
X189005Y114901D01*
X189009Y114961D01*
X189013Y114981D01*
X189011Y115002D01*
X189015Y115062D01*
X189015Y116876D01*
X190015Y119289D01*
X191861Y121135D01*
X194274Y122135D01*
X196886Y122135D01*
X199299Y121135D01*
X201145Y119289D01*
X202145Y116876D01*
X202145Y114264D01*
X201145Y111851D01*
X199665Y110371D01*
X199580Y110262D01*
X199492Y110155D01*
X199483Y110136D01*
X199470Y110120D01*
X199415Y109992D01*
X199356Y109867D01*
X199352Y109847D01*
X199344Y109828D01*
X199322Y109690D01*
X199296Y109554D01*
X199297Y109534D01*
X199294Y109514D01*
X199307Y109375D01*
X199316Y109237D01*
X199322Y109218D01*
X199324Y109198D01*
X199371Y109066D01*
X199414Y108935D01*
X199425Y108917D01*
X199432Y108898D01*
X199510Y108783D01*
X199584Y108666D01*
X199599Y108652D01*
X199610Y108635D01*
X199715Y108543D01*
X199816Y108448D01*
X199833Y108438D01*
X199849Y108425D01*
X199973Y108361D01*
X200094Y108294D01*
X200114Y108289D01*
X200132Y108280D01*
X200268Y108250D01*
X200402Y108215D01*
X200430Y108213D01*
X200442Y108210D01*
X200463Y108211D01*
X200563Y108205D01*
X211151Y108205D01*
X211249Y108217D01*
X211348Y108220D01*
X211406Y108237D01*
X211466Y108245D01*
X211558Y108281D01*
X211653Y108309D01*
X211705Y108339D01*
X211762Y108362D01*
X211842Y108420D01*
X211927Y108470D01*
X212003Y108536D01*
X212019Y108548D01*
X212027Y108558D01*
X212048Y108576D01*
X220354Y116882D01*
X220414Y116960D01*
X220482Y117032D01*
X220511Y117085D01*
X220548Y117133D01*
X220588Y117224D01*
X220636Y117311D01*
X220651Y117369D01*
X220675Y117425D01*
X220690Y117523D01*
X220715Y117619D01*
X220721Y117719D01*
X220725Y117739D01*
X220723Y117751D01*
X220725Y117779D01*
X220725Y139552D01*
X220717Y139621D01*
X220718Y139691D01*
X220697Y139778D01*
X220685Y139868D01*
X220660Y139932D01*
X220643Y140000D01*
X220601Y140080D01*
X220568Y140163D01*
X220527Y140220D01*
X220495Y140281D01*
X220434Y140348D01*
X220382Y140421D01*
X220328Y140465D01*
X220281Y140517D01*
X220206Y140566D01*
X220137Y140623D01*
X220073Y140653D01*
X220015Y140691D01*
X219930Y140721D01*
X219849Y140759D01*
X219780Y140772D01*
X219714Y140795D01*
X219625Y140802D01*
X219537Y140819D01*
X219467Y140814D01*
X219397Y140820D01*
X219309Y140805D01*
X219219Y140799D01*
X219153Y140777D01*
X219084Y140765D01*
X219002Y140729D01*
X218917Y140701D01*
X218858Y140664D01*
X218794Y140635D01*
X218724Y140579D01*
X218648Y140531D01*
X218600Y140480D01*
X218546Y140436D01*
X218491Y140365D01*
X218430Y140299D01*
X218396Y140238D01*
X218354Y140182D01*
X218283Y140038D01*
X217655Y138521D01*
X215809Y136675D01*
X213396Y135675D01*
X210722Y135675D01*
X210624Y135663D01*
X210525Y135660D01*
X210466Y135643D01*
X210406Y135635D01*
X210314Y135599D01*
X210219Y135571D01*
X210167Y135541D01*
X210111Y135518D01*
X210031Y135460D01*
X209945Y135410D01*
X209870Y135344D01*
X209853Y135332D01*
X209845Y135322D01*
X209824Y135304D01*
X207108Y132587D01*
X175884Y132587D01*
X175786Y132575D01*
X175687Y132572D01*
X175628Y132555D01*
X175568Y132547D01*
X175476Y132511D01*
X175381Y132483D01*
X175329Y132453D01*
X175273Y132430D01*
X175193Y132372D01*
X175107Y132322D01*
X175032Y132256D01*
X175015Y132244D01*
X175007Y132234D01*
X174986Y132216D01*
X128368Y85597D01*
X82041Y85597D01*
X82032Y85596D01*
X82023Y85597D01*
X81874Y85576D01*
X81726Y85557D01*
X81717Y85554D01*
X81708Y85553D01*
X81556Y85501D01*
X80046Y84875D01*
X77434Y84875D01*
X75021Y85875D01*
X73175Y87721D01*
X72175Y90134D01*
X72175Y92746D01*
X73175Y95159D01*
X74909Y96892D01*
X74982Y96987D01*
X75060Y97076D01*
X75079Y97112D01*
X75104Y97144D01*
X75151Y97253D01*
X75205Y97359D01*
X75214Y97398D01*
X75230Y97436D01*
X75249Y97553D01*
X75275Y97669D01*
X75273Y97710D01*
X75280Y97750D01*
X75269Y97868D01*
X75265Y97987D01*
X75254Y98026D01*
X75250Y98066D01*
X75210Y98179D01*
X75177Y98293D01*
X75156Y98327D01*
X75142Y98366D01*
X75075Y98464D01*
X75015Y98567D01*
X74975Y98612D01*
X74964Y98629D01*
X74948Y98642D01*
X74909Y98687D01*
X73175Y100421D01*
X72175Y102834D01*
X72175Y105446D01*
X73175Y107859D01*
X75021Y109705D01*
X77434Y110705D01*
X80046Y110705D01*
X82459Y109705D01*
X84305Y107859D01*
X85305Y105446D01*
X85305Y102772D01*
X85317Y102674D01*
X85320Y102575D01*
X85337Y102516D01*
X85345Y102456D01*
X85381Y102364D01*
X85409Y102269D01*
X85439Y102217D01*
X85462Y102161D01*
X85520Y102081D01*
X85570Y101995D01*
X85636Y101920D01*
X85648Y101903D01*
X85658Y101895D01*
X85676Y101874D01*
X88626Y98924D01*
X88705Y98864D01*
X88777Y98796D01*
X88830Y98767D01*
X88878Y98730D01*
X88969Y98690D01*
X89055Y98642D01*
X89114Y98627D01*
X89169Y98603D01*
X89267Y98588D01*
X89363Y98563D01*
X89463Y98557D01*
X89484Y98553D01*
X89496Y98555D01*
X89524Y98553D01*
X123836Y98553D01*
X123934Y98565D01*
X124033Y98568D01*
X124092Y98585D01*
X124152Y98593D01*
X124244Y98629D01*
X124339Y98657D01*
X124391Y98687D01*
X124447Y98710D01*
X124527Y98768D01*
X124613Y98818D01*
X124688Y98884D01*
X124705Y98896D01*
X124713Y98906D01*
X124734Y98924D01*
X156778Y130969D01*
X156863Y131078D01*
X156952Y131185D01*
X156960Y131204D01*
X156973Y131220D01*
X157028Y131348D01*
X157087Y131473D01*
X157091Y131493D01*
X157099Y131512D01*
X157121Y131650D01*
X157147Y131786D01*
X157146Y131806D01*
X157149Y131826D01*
X157136Y131964D01*
X157127Y132103D01*
X157121Y132122D01*
X157119Y132142D01*
X157072Y132274D01*
X157029Y132405D01*
X157018Y132423D01*
X157011Y132442D01*
X156933Y132557D01*
X156859Y132674D01*
X156844Y132688D01*
X156833Y132705D01*
X156729Y132797D01*
X156627Y132892D01*
X156610Y132902D01*
X156594Y132915D01*
X156471Y132978D01*
X156349Y133046D01*
X156329Y133051D01*
X156311Y133060D01*
X156175Y133090D01*
X156041Y133125D01*
X156013Y133127D01*
X156001Y133130D01*
X155980Y133129D01*
X155880Y133135D01*
X154904Y133135D01*
X152442Y134155D01*
X152413Y134163D01*
X152387Y134176D01*
X152260Y134205D01*
X152135Y134239D01*
X152105Y134240D01*
X152077Y134246D01*
X151947Y134242D01*
X151817Y134244D01*
X151788Y134237D01*
X151759Y134236D01*
X151634Y134200D01*
X151508Y134170D01*
X151482Y134156D01*
X151453Y134148D01*
X151342Y134082D01*
X151227Y134021D01*
X151205Y134001D01*
X151179Y133987D01*
X151059Y133880D01*
X140114Y122935D01*
X105079Y122935D01*
X104981Y122923D01*
X104882Y122920D01*
X104824Y122903D01*
X104764Y122895D01*
X104672Y122859D01*
X104577Y122831D01*
X104525Y122801D01*
X104468Y122778D01*
X104388Y122720D01*
X104303Y122670D01*
X104227Y122604D01*
X104211Y122592D01*
X104203Y122582D01*
X104182Y122564D01*
X102186Y120568D01*
X102126Y120490D01*
X102058Y120418D01*
X102029Y120365D01*
X101992Y120317D01*
X101952Y120226D01*
X101904Y120139D01*
X101889Y120081D01*
X101865Y120025D01*
X101850Y119927D01*
X101825Y119831D01*
X101819Y119731D01*
X101815Y119711D01*
X101817Y119699D01*
X101815Y119671D01*
X101815Y118074D01*
X100815Y115661D01*
X98969Y113815D01*
X96556Y112815D01*
X93944Y112815D01*
X91531Y113815D01*
X89685Y115661D01*
X88685Y118074D01*
X88685Y120686D01*
X89685Y123099D01*
X91531Y124945D01*
X93944Y125945D01*
X95541Y125945D01*
X95639Y125957D01*
X95738Y125960D01*
X95796Y125977D01*
X95856Y125985D01*
X95948Y126021D01*
X96043Y126049D01*
X96095Y126079D01*
X96152Y126102D01*
X96232Y126160D01*
X96317Y126210D01*
X96393Y126276D01*
X96409Y126288D01*
X96417Y126298D01*
X96438Y126316D01*
X101186Y131065D01*
X136221Y131065D01*
X136319Y131077D01*
X136418Y131080D01*
X136476Y131097D01*
X136536Y131105D01*
X136628Y131141D01*
X136723Y131169D01*
X136775Y131199D01*
X136832Y131222D01*
X136912Y131280D01*
X136997Y131330D01*
X137073Y131396D01*
X137089Y131408D01*
X137097Y131418D01*
X137118Y131436D01*
X149446Y143765D01*
X150465Y143765D01*
X150563Y143777D01*
X150662Y143780D01*
X150720Y143797D01*
X150781Y143805D01*
X150873Y143841D01*
X150968Y143869D01*
X151020Y143899D01*
X151076Y143922D01*
X151156Y143980D01*
X151242Y144030D01*
X151317Y144096D01*
X151334Y144108D01*
X151341Y144118D01*
X151363Y144136D01*
X152491Y145265D01*
X154904Y146265D01*
X157516Y146265D01*
X159929Y145265D01*
X161775Y143419D01*
X162775Y141006D01*
X162775Y140030D01*
X162792Y139892D01*
X162805Y139753D01*
X162812Y139734D01*
X162815Y139714D01*
X162866Y139585D01*
X162913Y139454D01*
X162924Y139437D01*
X162932Y139419D01*
X163013Y139306D01*
X163091Y139191D01*
X163107Y139178D01*
X163118Y139161D01*
X163226Y139072D01*
X163330Y138980D01*
X163348Y138971D01*
X163363Y138958D01*
X163489Y138899D01*
X163613Y138836D01*
X163633Y138831D01*
X163651Y138823D01*
X163787Y138797D01*
X163923Y138766D01*
X163944Y138767D01*
X163963Y138763D01*
X164102Y138772D01*
X164241Y138776D01*
X164261Y138782D01*
X164281Y138783D01*
X164413Y138826D01*
X164547Y138864D01*
X164564Y138875D01*
X164583Y138881D01*
X164701Y138955D01*
X164821Y139026D01*
X164842Y139044D01*
X164852Y139051D01*
X164866Y139066D01*
X164941Y139132D01*
X171586Y145776D01*
X173892Y148083D01*
X194153Y148083D01*
X194251Y148095D01*
X194350Y148098D01*
X194408Y148115D01*
X194469Y148123D01*
X194561Y148159D01*
X194656Y148187D01*
X194708Y148217D01*
X194764Y148240D01*
X194844Y148298D01*
X194930Y148348D01*
X195005Y148414D01*
X195022Y148426D01*
X195029Y148436D01*
X195051Y148454D01*
X196941Y150345D01*
X199354Y151345D01*
X201966Y151345D01*
X204379Y150345D01*
X206225Y148499D01*
X206330Y148246D01*
X206355Y148203D01*
X206371Y148156D01*
X206433Y148065D01*
X206488Y147970D01*
X206522Y147934D01*
X206550Y147893D01*
X206632Y147820D01*
X206709Y147741D01*
X206751Y147715D01*
X206788Y147682D01*
X206886Y147632D01*
X206980Y147575D01*
X207027Y147560D01*
X207072Y147538D01*
X207179Y147514D01*
X207284Y147481D01*
X207334Y147479D01*
X207382Y147468D01*
X207492Y147471D01*
X207602Y147466D01*
X207650Y147476D01*
X207700Y147478D01*
X207805Y147508D01*
X207913Y147530D01*
X207958Y147552D01*
X208005Y147566D01*
X208100Y147622D01*
X208199Y147670D01*
X208236Y147702D01*
X208279Y147728D01*
X208364Y147802D01*
X210784Y148805D01*
X213396Y148805D01*
X214604Y148304D01*
X214671Y148286D01*
X214735Y148258D01*
X214824Y148244D01*
X214911Y148220D01*
X214980Y148219D01*
X215049Y148208D01*
X215139Y148217D01*
X215229Y148215D01*
X215297Y148232D01*
X215366Y148238D01*
X215451Y148269D01*
X215538Y148289D01*
X215600Y148322D01*
X215665Y148346D01*
X215740Y148396D01*
X215819Y148438D01*
X215871Y148485D01*
X215928Y148524D01*
X215988Y148592D01*
X216054Y148652D01*
X216093Y148710D01*
X216139Y148763D01*
X216180Y148843D01*
X216229Y148918D01*
X216252Y148984D01*
X216284Y149046D01*
X216303Y149134D01*
X216332Y149219D01*
X216338Y149288D01*
X216353Y149356D01*
X216350Y149446D01*
X216358Y149536D01*
X216346Y149604D01*
X216344Y149674D01*
X216319Y149760D01*
X216303Y149849D01*
X216275Y149913D01*
X216255Y149980D01*
X216209Y150057D01*
X216173Y150139D01*
X216129Y150193D01*
X216094Y150254D01*
X215987Y150374D01*
X213277Y153084D01*
X213250Y153105D01*
X213228Y153131D01*
X213166Y153174D01*
X213125Y153212D01*
X213081Y153237D01*
X213026Y153279D01*
X212995Y153293D01*
X212966Y153312D01*
X212897Y153338D01*
X212847Y153366D01*
X212796Y153379D01*
X212734Y153405D01*
X212700Y153411D01*
X212668Y153423D01*
X212596Y153430D01*
X212539Y153445D01*
X212449Y153451D01*
X212420Y153455D01*
X212403Y153454D01*
X212378Y153455D01*
X212355Y153455D01*
X212352Y153456D01*
X212349Y153455D01*
X209514Y153455D01*
X207101Y154455D01*
X205973Y155584D01*
X205894Y155644D01*
X205822Y155712D01*
X205769Y155741D01*
X205721Y155778D01*
X205630Y155818D01*
X205544Y155866D01*
X205485Y155881D01*
X205429Y155905D01*
X205331Y155920D01*
X205236Y155945D01*
X205136Y155951D01*
X205115Y155955D01*
X205103Y155953D01*
X205075Y155955D01*
X158419Y155955D01*
X158321Y155943D01*
X158222Y155940D01*
X158164Y155923D01*
X158104Y155915D01*
X158012Y155879D01*
X157917Y155851D01*
X157865Y155821D01*
X157808Y155798D01*
X157728Y155740D01*
X157643Y155690D01*
X157567Y155624D01*
X157551Y155612D01*
X157543Y155602D01*
X157522Y155584D01*
X145194Y143255D01*
X137825Y143255D01*
X137727Y143243D01*
X137628Y143240D01*
X137569Y143223D01*
X137509Y143215D01*
X137417Y143179D01*
X137322Y143151D01*
X137270Y143121D01*
X137214Y143098D01*
X137134Y143040D01*
X137048Y142990D01*
X136973Y142924D01*
X136956Y142912D01*
X136949Y142902D01*
X136927Y142884D01*
X135799Y141755D01*
X133386Y140755D01*
X130774Y140755D01*
X128361Y141755D01*
X126515Y143601D01*
X125515Y146014D01*
X125515Y148626D01*
X126515Y151039D01*
X128361Y152885D01*
X130774Y153885D01*
X133386Y153885D01*
X135799Y152885D01*
X136927Y151756D01*
X137006Y151696D01*
X137078Y151628D01*
X137131Y151599D01*
X137179Y151562D01*
X137270Y151522D01*
X137356Y151474D01*
X137415Y151459D01*
X137471Y151435D01*
X137569Y151420D01*
X137664Y151395D01*
X137764Y151389D01*
X137785Y151385D01*
X137797Y151387D01*
X137825Y151385D01*
X141301Y151385D01*
X141399Y151397D01*
X141498Y151400D01*
X141556Y151417D01*
X141616Y151425D01*
X141708Y151461D01*
X141803Y151489D01*
X141855Y151519D01*
X141912Y151542D01*
X141992Y151600D01*
X142077Y151650D01*
X142153Y151716D01*
X142169Y151728D01*
X142177Y151738D01*
X142198Y151756D01*
X154526Y164085D01*
X197972Y164085D01*
X198041Y164093D01*
X198111Y164092D01*
X198198Y164113D01*
X198288Y164125D01*
X198352Y164150D01*
X198420Y164167D01*
X198500Y164209D01*
X198583Y164242D01*
X198640Y164283D01*
X198701Y164315D01*
X198768Y164376D01*
X198841Y164428D01*
X198885Y164482D01*
X198937Y164529D01*
X198986Y164604D01*
X199043Y164673D01*
X199073Y164737D01*
X199111Y164795D01*
X199141Y164880D01*
X199179Y164961D01*
X199192Y165030D01*
X199215Y165096D01*
X199222Y165185D01*
X199239Y165273D01*
X199234Y165343D01*
X199240Y165413D01*
X199225Y165501D01*
X199219Y165591D01*
X199197Y165657D01*
X199185Y165726D01*
X199149Y165808D01*
X199121Y165893D01*
X199084Y165952D01*
X199055Y166016D01*
X198999Y166086D01*
X198951Y166162D01*
X198900Y166210D01*
X198856Y166264D01*
X198785Y166319D01*
X198719Y166380D01*
X198658Y166414D01*
X198602Y166456D01*
X198458Y166527D01*
X196941Y167155D01*
X195813Y168284D01*
X195734Y168344D01*
X195662Y168412D01*
X195609Y168441D01*
X195561Y168478D01*
X195470Y168518D01*
X195384Y168566D01*
X195325Y168581D01*
X195269Y168605D01*
X195171Y168620D01*
X195076Y168645D01*
X194976Y168651D01*
X194955Y168655D01*
X194943Y168653D01*
X194915Y168655D01*
X154241Y168655D01*
X145830Y177066D01*
X145752Y177126D01*
X145680Y177194D01*
X145627Y177223D01*
X145579Y177261D01*
X145488Y177300D01*
X145401Y177348D01*
X145343Y177363D01*
X145287Y177387D01*
X145189Y177403D01*
X145093Y177427D01*
X144993Y177434D01*
X144973Y177437D01*
X144961Y177436D01*
X144933Y177437D01*
X143336Y177437D01*
X140924Y178437D01*
X139077Y180284D01*
X138077Y182696D01*
X138077Y185308D01*
X139077Y187721D01*
X140924Y189568D01*
X143336Y190567D01*
X145948Y190567D01*
X148361Y189568D01*
X150208Y187721D01*
X151207Y185308D01*
X151207Y183712D01*
X151219Y183613D01*
X151222Y183514D01*
X151239Y183456D01*
X151247Y183396D01*
X151283Y183304D01*
X151311Y183209D01*
X151342Y183157D01*
X151364Y183100D01*
X151422Y183020D01*
X151472Y182935D01*
X151539Y182860D01*
X151551Y182843D01*
X151560Y182835D01*
X151579Y182814D01*
X157236Y177156D01*
X157315Y177096D01*
X157387Y177028D01*
X157440Y176999D01*
X157488Y176962D01*
X157579Y176922D01*
X157665Y176874D01*
X157724Y176859D01*
X157779Y176835D01*
X157877Y176820D01*
X157973Y176795D01*
X158073Y176789D01*
X158094Y176785D01*
X158106Y176787D01*
X158134Y176785D01*
X194915Y176785D01*
X195013Y176797D01*
X195112Y176800D01*
X195170Y176817D01*
X195231Y176825D01*
X195323Y176861D01*
X195418Y176889D01*
X195470Y176919D01*
X195526Y176942D01*
X195606Y177000D01*
X195692Y177050D01*
X195767Y177116D01*
X195784Y177128D01*
X195791Y177138D01*
X195813Y177156D01*
X196941Y178285D01*
X199354Y179285D01*
X201966Y179285D01*
X204379Y178285D01*
X206225Y176439D01*
X207225Y174026D01*
X207225Y171414D01*
X206225Y169001D01*
X204379Y167155D01*
X202862Y166527D01*
X202802Y166492D01*
X202737Y166466D01*
X202664Y166414D01*
X202586Y166369D01*
X202536Y166321D01*
X202479Y166280D01*
X202422Y166210D01*
X202358Y166148D01*
X202321Y166088D01*
X202277Y166035D01*
X202238Y165953D01*
X202191Y165877D01*
X202171Y165810D01*
X202141Y165747D01*
X202124Y165659D01*
X202098Y165573D01*
X202094Y165503D01*
X202081Y165434D01*
X202087Y165345D01*
X202083Y165255D01*
X202097Y165187D01*
X202101Y165117D01*
X202129Y165032D01*
X202147Y164944D01*
X202178Y164881D01*
X202199Y164815D01*
X202247Y164739D01*
X202287Y164658D01*
X202332Y164605D01*
X202369Y164546D01*
X202435Y164484D01*
X202493Y164416D01*
X202550Y164376D01*
X202601Y164328D01*
X202680Y164285D01*
X202753Y164233D01*
X202818Y164208D01*
X202879Y164174D01*
X202966Y164152D01*
X203050Y164120D01*
X203120Y164112D01*
X203187Y164095D01*
X203348Y164085D01*
X205075Y164085D01*
X205173Y164097D01*
X205272Y164100D01*
X205330Y164117D01*
X205391Y164125D01*
X205483Y164161D01*
X205578Y164189D01*
X205630Y164219D01*
X205686Y164242D01*
X205766Y164300D01*
X205852Y164350D01*
X205927Y164416D01*
X205944Y164428D01*
X205951Y164438D01*
X205973Y164456D01*
X207101Y165585D01*
X209514Y166585D01*
X212126Y166585D01*
X214539Y165585D01*
X215780Y164344D01*
X215819Y164314D01*
X215853Y164277D01*
X215944Y164217D01*
X216031Y164149D01*
X216077Y164129D01*
X216118Y164102D01*
X216222Y164067D01*
X216323Y164023D01*
X216372Y164015D01*
X216419Y163999D01*
X216528Y163990D01*
X216637Y163973D01*
X216687Y163978D01*
X216736Y163974D01*
X216844Y163992D01*
X216954Y164003D01*
X217000Y164020D01*
X217049Y164028D01*
X217150Y164073D01*
X217253Y164110D01*
X217294Y164138D01*
X217339Y164159D01*
X217425Y164227D01*
X217516Y164289D01*
X217549Y164326D01*
X217588Y164357D01*
X217654Y164445D01*
X217727Y164527D01*
X217749Y164572D01*
X217779Y164611D01*
X217850Y164756D01*
X217955Y165009D01*
X219801Y166855D01*
X222214Y167855D01*
X224888Y167855D01*
X224986Y167867D01*
X225085Y167870D01*
X225144Y167887D01*
X225204Y167895D01*
X225296Y167931D01*
X225391Y167959D01*
X225443Y167989D01*
X225499Y168012D01*
X225579Y168070D01*
X225665Y168120D01*
X225740Y168186D01*
X225757Y168198D01*
X225765Y168208D01*
X225786Y168226D01*
X227232Y169673D01*
X236728Y169673D01*
X236846Y169688D01*
X236965Y169695D01*
X237003Y169708D01*
X237044Y169713D01*
X237154Y169756D01*
X237267Y169793D01*
X237302Y169815D01*
X237339Y169830D01*
X237435Y169899D01*
X237536Y169963D01*
X237564Y169993D01*
X237597Y170016D01*
X237673Y170108D01*
X237754Y170195D01*
X237774Y170230D01*
X237799Y170261D01*
X237850Y170369D01*
X237908Y170473D01*
X237918Y170513D01*
X237935Y170549D01*
X237957Y170666D01*
X237987Y170781D01*
X237991Y170841D01*
X237995Y170861D01*
X237993Y170882D01*
X237997Y170942D01*
X237997Y205147D01*
X237994Y205176D01*
X237996Y205206D01*
X237974Y205334D01*
X237957Y205463D01*
X237947Y205490D01*
X237942Y205519D01*
X237888Y205638D01*
X237840Y205758D01*
X237823Y205782D01*
X237811Y205809D01*
X237730Y205911D01*
X237654Y206016D01*
X237631Y206035D01*
X237612Y206058D01*
X237509Y206136D01*
X237409Y206219D01*
X237382Y206231D01*
X237358Y206249D01*
X237214Y206320D01*
X235401Y207071D01*
X234629Y207843D01*
X234535Y207916D01*
X234445Y207995D01*
X234409Y208013D01*
X234377Y208038D01*
X234268Y208085D01*
X234162Y208139D01*
X234123Y208148D01*
X234085Y208164D01*
X233968Y208183D01*
X233852Y208209D01*
X233811Y208208D01*
X233771Y208214D01*
X233653Y208203D01*
X233534Y208199D01*
X233495Y208188D01*
X233455Y208184D01*
X233343Y208144D01*
X233228Y208111D01*
X233194Y208090D01*
X233155Y208077D01*
X233057Y208010D01*
X232954Y207949D01*
X232909Y207909D01*
X232892Y207898D01*
X232879Y207883D01*
X232834Y207843D01*
X222348Y197357D01*
X95152Y197357D01*
X76474Y216036D01*
X76395Y216096D01*
X76323Y216164D01*
X76270Y216193D01*
X76222Y216230D01*
X76131Y216270D01*
X76045Y216318D01*
X75986Y216333D01*
X75931Y216357D01*
X75833Y216372D01*
X75737Y216397D01*
X75637Y216403D01*
X75617Y216407D01*
X75604Y216405D01*
X75576Y216407D01*
X50957Y216407D01*
X50859Y216395D01*
X50760Y216392D01*
X50702Y216375D01*
X50641Y216367D01*
X50549Y216331D01*
X50454Y216303D01*
X50402Y216273D01*
X50346Y216250D01*
X50266Y216192D01*
X50180Y216142D01*
X50105Y216076D01*
X50088Y216064D01*
X50081Y216054D01*
X50059Y216036D01*
X48169Y214145D01*
X45756Y213145D01*
X44483Y213145D01*
X44417Y213137D01*
X44351Y213138D01*
X44260Y213117D01*
X44167Y213105D01*
X44106Y213081D01*
X44041Y213066D01*
X43958Y213023D01*
X43871Y212988D01*
X43818Y212950D01*
X43759Y212919D01*
X43690Y212856D01*
X43614Y212802D01*
X43572Y212750D01*
X43522Y212706D01*
X43471Y212629D01*
X43411Y212557D01*
X43383Y212497D01*
X43346Y212441D01*
X43315Y212353D01*
X43276Y212269D01*
X43263Y212204D01*
X43241Y212141D01*
X43233Y212048D01*
X43216Y211957D01*
X43220Y211890D01*
X43214Y211824D01*
X43230Y211732D01*
X43236Y211639D01*
X43256Y211576D01*
X43267Y211511D01*
X43323Y211360D01*
X45092Y207386D01*
X45092Y199014D01*
X42263Y192659D01*
X42260Y192649D01*
X42250Y192629D01*
X41994Y192011D01*
X41975Y191987D01*
X41970Y191979D01*
X41968Y191975D01*
X41963Y191964D01*
X41900Y191844D01*
X41687Y191366D01*
X37853Y187914D01*
X37841Y187900D01*
X37805Y187868D01*
X36510Y186573D01*
X36441Y186545D01*
X36324Y186478D01*
X36204Y186415D01*
X36177Y186394D01*
X36165Y186387D01*
X36150Y186372D01*
X36078Y186315D01*
X35466Y185765D01*
X31302Y184412D01*
X31283Y184403D01*
X31209Y184377D01*
X29301Y183587D01*
X28965Y183587D01*
X28847Y183572D01*
X28729Y183565D01*
X28670Y183550D01*
X28650Y183547D01*
X28631Y183540D01*
X28573Y183525D01*
X27504Y183178D01*
X23676Y183580D01*
X23658Y183580D01*
X23543Y183587D01*
X21499Y183587D01*
X20951Y183814D01*
X20852Y183841D01*
X20757Y183877D01*
X20665Y183892D01*
X20644Y183898D01*
X20631Y183898D01*
X20598Y183904D01*
X19179Y184053D01*
X16215Y185764D01*
X16213Y185765D01*
X16210Y185767D01*
X16066Y185838D01*
X14290Y186573D01*
X13693Y187170D01*
X13626Y187222D01*
X13565Y187283D01*
X13451Y187358D01*
X13442Y187365D01*
X13438Y187367D01*
X13431Y187372D01*
X11929Y188239D01*
X10139Y190703D01*
X10126Y190717D01*
X10116Y190733D01*
X10009Y190854D01*
X8773Y192090D01*
X8357Y193096D01*
X8322Y193156D01*
X8297Y193220D01*
X8211Y193356D01*
X7008Y195011D01*
X6447Y197649D01*
X6436Y197683D01*
X6431Y197719D01*
X6379Y197871D01*
X5787Y199299D01*
X5787Y200622D01*
X5781Y200674D01*
X5783Y200726D01*
X5760Y200886D01*
X5268Y203200D01*
X5760Y205514D01*
X5764Y205567D01*
X5777Y205617D01*
X5787Y205778D01*
X5787Y207101D01*
X6379Y208529D01*
X6388Y208563D01*
X6404Y208595D01*
X6447Y208751D01*
X7008Y211389D01*
X8211Y213044D01*
X8244Y213105D01*
X8286Y213160D01*
X8357Y213304D01*
X8773Y214310D01*
X10009Y215546D01*
X10021Y215561D01*
X10036Y215573D01*
X10139Y215697D01*
X11929Y218161D01*
X13431Y219028D01*
X13499Y219080D01*
X13573Y219124D01*
X13675Y219214D01*
X13684Y219221D01*
X13687Y219224D01*
X13693Y219230D01*
X14290Y219827D01*
X16066Y220562D01*
X16068Y220564D01*
X16071Y220564D01*
X16215Y220636D01*
X18972Y222228D01*
X18993Y222244D01*
X19017Y222255D01*
X19119Y222340D01*
X19225Y222420D01*
X19242Y222441D01*
X19262Y222458D01*
X19340Y222565D01*
X19423Y222669D01*
X19434Y222693D01*
X19449Y222715D01*
X19498Y222838D01*
X19552Y222960D01*
X19557Y222986D01*
X19566Y223011D01*
X19583Y223142D01*
X19605Y223273D01*
X19603Y223300D01*
X19606Y223326D01*
X19590Y223458D01*
X19579Y223590D01*
X19570Y223615D01*
X19567Y223642D01*
X19518Y223765D01*
X19474Y223890D01*
X19460Y223913D01*
X19450Y223937D01*
X19372Y224045D01*
X19299Y224155D01*
X19279Y224173D01*
X19263Y224195D01*
X19161Y224280D01*
X19062Y224368D01*
X19039Y224381D01*
X19018Y224398D01*
X18898Y224454D01*
X18781Y224516D01*
X18755Y224522D01*
X18731Y224533D01*
X18600Y224559D01*
X18471Y224589D01*
X18445Y224588D01*
X18418Y224593D01*
X18286Y224585D01*
X18153Y224583D01*
X18128Y224575D01*
X18101Y224574D01*
X17945Y224534D01*
X15206Y223644D01*
X15099Y223594D01*
X14988Y223550D01*
X14937Y223517D01*
X14918Y223509D01*
X14903Y223496D01*
X14852Y223464D01*
X9388Y219493D01*
X9301Y219412D01*
X9209Y219336D01*
X9171Y219290D01*
X9156Y219276D01*
X9145Y219258D01*
X9107Y219212D01*
X5136Y213748D01*
X5079Y213644D01*
X5015Y213544D01*
X4993Y213487D01*
X4983Y213469D01*
X4978Y213449D01*
X4956Y213394D01*
X2869Y206970D01*
X2856Y206902D01*
X2833Y206836D01*
X2810Y206677D01*
X2545Y203300D01*
X2546Y203278D01*
X2541Y203200D01*
X2541Y142548D01*
X2553Y142450D01*
X2556Y142351D01*
X2573Y142293D01*
X2581Y142233D01*
X2617Y142141D01*
X2645Y142045D01*
X2675Y141993D01*
X2698Y141937D01*
X2756Y141857D01*
X2806Y141772D01*
X2872Y141696D01*
X2884Y141680D01*
X2894Y141672D01*
X2912Y141651D01*
X7621Y136942D01*
X7621Y92928D01*
X2912Y88219D01*
X2852Y88141D01*
X2784Y88069D01*
X2755Y88016D01*
X2718Y87968D01*
X2678Y87877D01*
X2630Y87790D01*
X2615Y87732D01*
X2591Y87676D01*
X2576Y87578D01*
X2551Y87483D01*
X2545Y87382D01*
X2541Y87362D01*
X2543Y87350D01*
X2541Y87322D01*
X2541Y25400D01*
X2543Y25378D01*
X2545Y25300D01*
X2810Y21923D01*
X2824Y21855D01*
X2829Y21786D01*
X2869Y21630D01*
X4956Y15206D01*
X5006Y15099D01*
X5050Y14988D01*
X5083Y14937D01*
X5091Y14918D01*
X5104Y14903D01*
X5136Y14852D01*
X9107Y9388D01*
X9127Y9366D01*
X9138Y9348D01*
X9184Y9305D01*
X9188Y9301D01*
X9264Y9209D01*
X9310Y9171D01*
X9324Y9156D01*
X9342Y9145D01*
X9388Y9107D01*
X14596Y5322D01*
X14852Y5136D01*
X14887Y5117D01*
X14918Y5092D01*
X14990Y5058D01*
X15056Y5015D01*
X15113Y4993D01*
X15131Y4983D01*
X15150Y4978D01*
X15205Y4956D01*
X15206Y4956D01*
X17945Y4066D01*
X17971Y4061D01*
X17996Y4051D01*
X18127Y4031D01*
X18257Y4006D01*
X18284Y4008D01*
X18310Y4004D01*
X18441Y4018D01*
X18455Y4008D01*
X18474Y3989D01*
X18585Y3917D01*
X18694Y3842D01*
X18719Y3832D01*
X18742Y3818D01*
X18891Y3759D01*
X21630Y2869D01*
X21698Y2856D01*
X21764Y2833D01*
X21923Y2810D01*
X25300Y2545D01*
X25322Y2546D01*
X25400Y2541D01*
X55866Y2541D01*
X56004Y2558D01*
G37*
G36*
X482622Y2543D02*
X482622Y2543D01*
X482700Y2545D01*
X486077Y2810D01*
X486145Y2824D01*
X486214Y2829D01*
X486370Y2869D01*
X492794Y4956D01*
X492901Y5006D01*
X493012Y5050D01*
X493063Y5083D01*
X493082Y5091D01*
X493097Y5104D01*
X493148Y5136D01*
X498612Y9107D01*
X498699Y9188D01*
X498746Y9227D01*
X498752Y9231D01*
X498753Y9232D01*
X498791Y9264D01*
X498829Y9310D01*
X498844Y9324D01*
X498855Y9342D01*
X498893Y9388D01*
X502864Y14852D01*
X502921Y14956D01*
X502985Y15056D01*
X503007Y15113D01*
X503017Y15131D01*
X503022Y15151D01*
X503044Y15206D01*
X505131Y21630D01*
X505144Y21698D01*
X505167Y21764D01*
X505190Y21923D01*
X505455Y25300D01*
X505455Y25304D01*
X505456Y25307D01*
X505455Y25326D01*
X505459Y25400D01*
X505459Y60960D01*
X505444Y61078D01*
X505437Y61197D01*
X505425Y61235D01*
X505419Y61276D01*
X505376Y61386D01*
X505339Y61499D01*
X505317Y61534D01*
X505302Y61571D01*
X505233Y61667D01*
X505169Y61768D01*
X505139Y61796D01*
X505116Y61829D01*
X505024Y61905D01*
X504937Y61986D01*
X504902Y62006D01*
X504871Y62031D01*
X504763Y62082D01*
X504659Y62140D01*
X504619Y62150D01*
X504583Y62167D01*
X504466Y62189D01*
X504351Y62219D01*
X504291Y62223D01*
X504271Y62227D01*
X504250Y62225D01*
X504190Y62229D01*
X468630Y62229D01*
X468629Y62230D01*
X468629Y86848D01*
X468612Y86986D01*
X468599Y87124D01*
X468592Y87143D01*
X468589Y87163D01*
X468538Y87293D01*
X468491Y87424D01*
X468480Y87440D01*
X468472Y87459D01*
X468391Y87572D01*
X468313Y87687D01*
X468297Y87700D01*
X468286Y87717D01*
X468178Y87805D01*
X468074Y87897D01*
X468056Y87906D01*
X468041Y87919D01*
X467915Y87979D01*
X467791Y88042D01*
X467771Y88046D01*
X467753Y88055D01*
X467616Y88081D01*
X467481Y88111D01*
X467460Y88111D01*
X467441Y88115D01*
X467302Y88106D01*
X467163Y88102D01*
X467143Y88096D01*
X467123Y88095D01*
X466991Y88052D01*
X466857Y88013D01*
X466840Y88003D01*
X466821Y87997D01*
X466703Y87922D01*
X466583Y87852D01*
X466562Y87833D01*
X466552Y87827D01*
X466538Y87812D01*
X466463Y87745D01*
X465048Y86331D01*
X462461Y85259D01*
X459659Y85259D01*
X457072Y86331D01*
X455091Y88312D01*
X454019Y90899D01*
X454019Y93701D01*
X455091Y96288D01*
X457072Y98269D01*
X459659Y99341D01*
X462461Y99341D01*
X465048Y98269D01*
X466463Y96855D01*
X466572Y96769D01*
X466679Y96681D01*
X466698Y96672D01*
X466714Y96660D01*
X466842Y96604D01*
X466967Y96545D01*
X466987Y96541D01*
X467006Y96533D01*
X467144Y96511D01*
X467280Y96485D01*
X467300Y96487D01*
X467320Y96483D01*
X467459Y96497D01*
X467597Y96505D01*
X467616Y96511D01*
X467636Y96513D01*
X467768Y96560D01*
X467899Y96603D01*
X467917Y96614D01*
X467936Y96621D01*
X468051Y96699D01*
X468168Y96773D01*
X468182Y96788D01*
X468199Y96799D01*
X468291Y96904D01*
X468386Y97005D01*
X468396Y97023D01*
X468409Y97038D01*
X468473Y97162D01*
X468540Y97283D01*
X468545Y97303D01*
X468554Y97321D01*
X468584Y97457D01*
X468619Y97591D01*
X468621Y97619D01*
X468624Y97631D01*
X468623Y97652D01*
X468629Y97752D01*
X468629Y167640D01*
X468630Y167641D01*
X504190Y167641D01*
X504308Y167656D01*
X504427Y167663D01*
X504465Y167676D01*
X504506Y167681D01*
X504616Y167724D01*
X504729Y167761D01*
X504764Y167783D01*
X504801Y167798D01*
X504897Y167867D01*
X504998Y167931D01*
X505026Y167961D01*
X505059Y167984D01*
X505135Y168076D01*
X505216Y168163D01*
X505236Y168198D01*
X505261Y168229D01*
X505312Y168337D01*
X505370Y168441D01*
X505380Y168481D01*
X505397Y168517D01*
X505419Y168634D01*
X505449Y168749D01*
X505453Y168809D01*
X505457Y168829D01*
X505455Y168850D01*
X505459Y168910D01*
X505459Y203200D01*
X505457Y203222D01*
X505455Y203300D01*
X505190Y206677D01*
X505176Y206745D01*
X505171Y206814D01*
X505131Y206970D01*
X503044Y213394D01*
X502994Y213501D01*
X502950Y213612D01*
X502917Y213663D01*
X502909Y213682D01*
X502896Y213697D01*
X502864Y213748D01*
X498893Y219212D01*
X498812Y219299D01*
X498736Y219391D01*
X498690Y219429D01*
X498676Y219444D01*
X498658Y219455D01*
X498612Y219493D01*
X493148Y223464D01*
X493044Y223521D01*
X492944Y223585D01*
X492887Y223607D01*
X492869Y223617D01*
X492849Y223622D01*
X492794Y223644D01*
X486370Y225731D01*
X486302Y225744D01*
X486236Y225767D01*
X486077Y225790D01*
X482700Y226055D01*
X482678Y226054D01*
X482600Y226059D01*
X452134Y226059D01*
X451996Y226042D01*
X451857Y226029D01*
X451838Y226022D01*
X451818Y226019D01*
X451689Y225968D01*
X451558Y225921D01*
X451541Y225910D01*
X451522Y225902D01*
X451410Y225821D01*
X451295Y225743D01*
X451281Y225727D01*
X451265Y225716D01*
X451176Y225608D01*
X451084Y225504D01*
X451075Y225486D01*
X451062Y225471D01*
X451003Y225345D01*
X450940Y225221D01*
X450935Y225201D01*
X450927Y225183D01*
X450901Y225047D01*
X450870Y224911D01*
X450871Y224890D01*
X450867Y224871D01*
X450876Y224732D01*
X450880Y224593D01*
X450885Y224573D01*
X450887Y224553D01*
X450929Y224421D01*
X450968Y224287D01*
X450978Y224270D01*
X450985Y224251D01*
X451059Y224133D01*
X451130Y224013D01*
X451148Y223992D01*
X451155Y223982D01*
X451170Y223968D01*
X451236Y223893D01*
X453329Y221799D01*
X454915Y217972D01*
X454915Y213828D01*
X453329Y210001D01*
X450399Y207071D01*
X446572Y205485D01*
X442428Y205485D01*
X440615Y206236D01*
X440587Y206244D01*
X440560Y206258D01*
X440434Y206286D01*
X440308Y206320D01*
X440279Y206321D01*
X440250Y206327D01*
X440120Y206323D01*
X439990Y206325D01*
X439962Y206318D01*
X439932Y206318D01*
X439808Y206281D01*
X439681Y206251D01*
X439655Y206237D01*
X439627Y206229D01*
X439515Y206163D01*
X439400Y206102D01*
X439378Y206083D01*
X439353Y206068D01*
X439232Y205961D01*
X433803Y200532D01*
X411469Y200532D01*
X411371Y200520D01*
X411272Y200517D01*
X411213Y200500D01*
X411153Y200492D01*
X411061Y200456D01*
X410966Y200428D01*
X410914Y200398D01*
X410858Y200375D01*
X410778Y200317D01*
X410692Y200267D01*
X410617Y200201D01*
X410600Y200189D01*
X410592Y200179D01*
X410571Y200161D01*
X405228Y194817D01*
X383881Y194817D01*
X383831Y194811D01*
X383782Y194813D01*
X383675Y194791D01*
X383565Y194777D01*
X383519Y194759D01*
X383470Y194749D01*
X383372Y194701D01*
X383270Y194660D01*
X383230Y194631D01*
X383185Y194609D01*
X383101Y194538D01*
X383012Y194474D01*
X382981Y194435D01*
X382943Y194403D01*
X382880Y194313D01*
X382809Y194229D01*
X382788Y194184D01*
X382760Y194143D01*
X382721Y194040D01*
X382674Y193941D01*
X382665Y193892D01*
X382647Y193846D01*
X382635Y193736D01*
X382614Y193629D01*
X382617Y193579D01*
X382612Y193530D01*
X382627Y193421D01*
X382634Y193311D01*
X382649Y193264D01*
X382656Y193215D01*
X382708Y193062D01*
X383755Y190536D01*
X383755Y187924D01*
X382755Y185511D01*
X380909Y183665D01*
X378496Y182665D01*
X375884Y182665D01*
X373471Y183665D01*
X371581Y185556D01*
X371502Y185616D01*
X371430Y185684D01*
X371377Y185713D01*
X371329Y185750D01*
X371238Y185790D01*
X371152Y185838D01*
X371093Y185853D01*
X371037Y185877D01*
X370939Y185892D01*
X370844Y185917D01*
X370744Y185923D01*
X370723Y185927D01*
X370711Y185925D01*
X370683Y185927D01*
X362574Y185927D01*
X362476Y185915D01*
X362377Y185912D01*
X362318Y185895D01*
X362258Y185887D01*
X362166Y185851D01*
X362071Y185823D01*
X362019Y185793D01*
X361963Y185770D01*
X361883Y185712D01*
X361797Y185662D01*
X361722Y185596D01*
X361705Y185584D01*
X361697Y185574D01*
X361676Y185556D01*
X346574Y170454D01*
X344268Y168147D01*
X313044Y168147D01*
X312946Y168135D01*
X312847Y168132D01*
X312788Y168115D01*
X312728Y168107D01*
X312636Y168071D01*
X312541Y168043D01*
X312489Y168013D01*
X312433Y167990D01*
X312353Y167932D01*
X312267Y167882D01*
X312192Y167816D01*
X312175Y167804D01*
X312167Y167794D01*
X312146Y167776D01*
X308474Y164104D01*
X308414Y164025D01*
X308346Y163953D01*
X308317Y163900D01*
X308280Y163852D01*
X308240Y163761D01*
X308192Y163675D01*
X308177Y163616D01*
X308153Y163561D01*
X308138Y163463D01*
X308113Y163367D01*
X308107Y163267D01*
X308103Y163246D01*
X308105Y163234D01*
X308103Y163206D01*
X308103Y131982D01*
X296496Y120376D01*
X296436Y120297D01*
X296368Y120225D01*
X296339Y120172D01*
X296302Y120124D01*
X296262Y120033D01*
X296214Y119947D01*
X296199Y119888D01*
X296175Y119833D01*
X296160Y119735D01*
X296135Y119639D01*
X296129Y119539D01*
X296125Y119518D01*
X296127Y119506D01*
X296125Y119478D01*
X296125Y116804D01*
X295125Y114391D01*
X293279Y112545D01*
X290866Y111545D01*
X288254Y111545D01*
X285841Y112545D01*
X283995Y114391D01*
X283283Y116110D01*
X283258Y116153D01*
X283241Y116200D01*
X283180Y116291D01*
X283125Y116386D01*
X283091Y116422D01*
X283063Y116463D01*
X282980Y116536D01*
X282904Y116615D01*
X282862Y116641D01*
X282824Y116674D01*
X282726Y116724D01*
X282633Y116781D01*
X282585Y116796D01*
X282541Y116818D01*
X282434Y116842D01*
X282329Y116875D01*
X282279Y116877D01*
X282231Y116888D01*
X282121Y116885D01*
X282011Y116890D01*
X281963Y116880D01*
X281913Y116878D01*
X281807Y116848D01*
X281700Y116825D01*
X281655Y116804D01*
X281607Y116790D01*
X281513Y116734D01*
X281414Y116686D01*
X281376Y116653D01*
X281333Y116628D01*
X281213Y116522D01*
X279264Y114574D01*
X279204Y114495D01*
X279136Y114423D01*
X279107Y114370D01*
X279070Y114322D01*
X279030Y114231D01*
X278982Y114145D01*
X278967Y114086D01*
X278943Y114031D01*
X278928Y113933D01*
X278903Y113837D01*
X278897Y113737D01*
X278893Y113716D01*
X278895Y113704D01*
X278893Y113676D01*
X278893Y59847D01*
X278905Y59749D01*
X278908Y59650D01*
X278925Y59592D01*
X278933Y59531D01*
X278969Y59439D01*
X278997Y59344D01*
X279027Y59292D01*
X279050Y59236D01*
X279108Y59156D01*
X279158Y59070D01*
X279224Y58995D01*
X279236Y58978D01*
X279246Y58971D01*
X279264Y58949D01*
X281155Y57059D01*
X282155Y54646D01*
X282155Y52034D01*
X281155Y49621D01*
X279309Y47775D01*
X276896Y46775D01*
X274284Y46775D01*
X271871Y47775D01*
X270025Y49621D01*
X269025Y52034D01*
X269025Y54646D01*
X270025Y57059D01*
X271916Y58949D01*
X271976Y59028D01*
X272044Y59100D01*
X272073Y59153D01*
X272110Y59201D01*
X272150Y59292D01*
X272198Y59378D01*
X272213Y59437D01*
X272237Y59493D01*
X272252Y59591D01*
X272277Y59686D01*
X272283Y59786D01*
X272287Y59807D01*
X272285Y59819D01*
X272287Y59847D01*
X272287Y116938D01*
X273578Y118229D01*
X273663Y118338D01*
X273752Y118445D01*
X273760Y118464D01*
X273773Y118480D01*
X273828Y118608D01*
X273887Y118733D01*
X273891Y118753D01*
X273899Y118772D01*
X273921Y118910D01*
X273947Y119046D01*
X273946Y119066D01*
X273949Y119086D01*
X273936Y119225D01*
X273927Y119363D01*
X273921Y119382D01*
X273919Y119402D01*
X273872Y119534D01*
X273829Y119665D01*
X273818Y119683D01*
X273811Y119702D01*
X273733Y119817D01*
X273659Y119934D01*
X273644Y119948D01*
X273633Y119965D01*
X273529Y120057D01*
X273427Y120152D01*
X273410Y120162D01*
X273394Y120175D01*
X273270Y120239D01*
X273149Y120306D01*
X273129Y120311D01*
X273111Y120320D01*
X272975Y120350D01*
X272841Y120385D01*
X272813Y120387D01*
X272801Y120390D01*
X272780Y120389D01*
X272680Y120395D01*
X230124Y120395D01*
X230006Y120380D01*
X229887Y120373D01*
X229849Y120360D01*
X229808Y120355D01*
X229698Y120312D01*
X229585Y120275D01*
X229550Y120253D01*
X229513Y120238D01*
X229417Y120169D01*
X229316Y120105D01*
X229288Y120075D01*
X229255Y120052D01*
X229179Y119960D01*
X229098Y119873D01*
X229078Y119838D01*
X229053Y119807D01*
X229002Y119699D01*
X228944Y119595D01*
X228934Y119555D01*
X228917Y119519D01*
X228895Y119402D01*
X228865Y119287D01*
X228861Y119227D01*
X228857Y119207D01*
X228859Y119186D01*
X228855Y119126D01*
X228855Y113886D01*
X215044Y100075D01*
X205994Y100075D01*
X205876Y100060D01*
X205757Y100053D01*
X205719Y100040D01*
X205678Y100035D01*
X205568Y99992D01*
X205455Y99955D01*
X205420Y99933D01*
X205383Y99918D01*
X205287Y99849D01*
X205186Y99785D01*
X205158Y99755D01*
X205125Y99732D01*
X205049Y99640D01*
X204968Y99553D01*
X204948Y99518D01*
X204923Y99487D01*
X204872Y99379D01*
X204814Y99275D01*
X204804Y99235D01*
X204787Y99199D01*
X204765Y99082D01*
X204735Y98967D01*
X204731Y98907D01*
X204727Y98887D01*
X204729Y98866D01*
X204725Y98806D01*
X204725Y68950D01*
X204742Y68812D01*
X204755Y68673D01*
X204762Y68654D01*
X204765Y68634D01*
X204816Y68505D01*
X204863Y68374D01*
X204874Y68357D01*
X204882Y68339D01*
X204963Y68226D01*
X205041Y68111D01*
X205057Y68098D01*
X205068Y68081D01*
X205176Y67992D01*
X205280Y67900D01*
X205298Y67891D01*
X205313Y67878D01*
X205439Y67819D01*
X205563Y67756D01*
X205583Y67751D01*
X205601Y67743D01*
X205737Y67717D01*
X205873Y67686D01*
X205894Y67687D01*
X205913Y67683D01*
X206052Y67692D01*
X206191Y67696D01*
X206211Y67702D01*
X206231Y67703D01*
X206363Y67746D01*
X206497Y67784D01*
X206514Y67795D01*
X206533Y67801D01*
X206651Y67875D01*
X206771Y67946D01*
X206792Y67964D01*
X206802Y67971D01*
X206816Y67986D01*
X206892Y68052D01*
X206912Y68073D01*
X242668Y68073D01*
X256033Y54708D01*
X256033Y39994D01*
X256045Y39896D01*
X256048Y39797D01*
X256065Y39738D01*
X256073Y39678D01*
X256109Y39586D01*
X256137Y39491D01*
X256167Y39439D01*
X256190Y39383D01*
X256248Y39303D01*
X256298Y39217D01*
X256364Y39142D01*
X256376Y39125D01*
X256386Y39117D01*
X256404Y39096D01*
X265156Y30344D01*
X265235Y30284D01*
X265307Y30216D01*
X265360Y30187D01*
X265408Y30150D01*
X265499Y30110D01*
X265585Y30062D01*
X265644Y30047D01*
X265699Y30023D01*
X265797Y30008D01*
X265893Y29983D01*
X265993Y29977D01*
X266014Y29973D01*
X266026Y29975D01*
X266054Y29973D01*
X275688Y29973D01*
X284269Y21392D01*
X284363Y21319D01*
X284452Y21240D01*
X284488Y21222D01*
X284520Y21197D01*
X284629Y21150D01*
X284735Y21096D01*
X284775Y21087D01*
X284812Y21071D01*
X284929Y21052D01*
X285045Y21026D01*
X285086Y21027D01*
X285126Y21021D01*
X285244Y21032D01*
X285363Y21036D01*
X285402Y21047D01*
X285442Y21051D01*
X285555Y21091D01*
X285669Y21124D01*
X285704Y21145D01*
X285742Y21158D01*
X285840Y21225D01*
X285943Y21286D01*
X285988Y21326D01*
X286005Y21337D01*
X286018Y21352D01*
X286064Y21392D01*
X286201Y21529D01*
X290028Y23115D01*
X294270Y23115D01*
X294408Y23132D01*
X294547Y23145D01*
X294566Y23152D01*
X294586Y23155D01*
X294715Y23206D01*
X294846Y23253D01*
X294863Y23264D01*
X294881Y23272D01*
X294994Y23353D01*
X295109Y23431D01*
X295122Y23447D01*
X295139Y23458D01*
X295227Y23566D01*
X295320Y23670D01*
X295329Y23688D01*
X295342Y23703D01*
X295401Y23829D01*
X295464Y23953D01*
X295469Y23973D01*
X295477Y23991D01*
X295503Y24127D01*
X295534Y24263D01*
X295533Y24284D01*
X295537Y24303D01*
X295528Y24442D01*
X295524Y24581D01*
X295518Y24601D01*
X295517Y24621D01*
X295474Y24753D01*
X295436Y24887D01*
X295425Y24904D01*
X295419Y24923D01*
X295345Y25041D01*
X295274Y25161D01*
X295256Y25182D01*
X295249Y25192D01*
X295234Y25206D01*
X295168Y25281D01*
X284987Y35462D01*
X284987Y91949D01*
X284986Y91958D01*
X284987Y91967D01*
X284966Y92116D01*
X284947Y92264D01*
X284944Y92273D01*
X284943Y92282D01*
X284891Y92434D01*
X284265Y93944D01*
X284265Y96556D01*
X285265Y98969D01*
X287111Y100815D01*
X289524Y101815D01*
X292136Y101815D01*
X294549Y100815D01*
X296439Y98924D01*
X296518Y98864D01*
X296590Y98796D01*
X296643Y98767D01*
X296691Y98730D01*
X296782Y98690D01*
X296868Y98642D01*
X296927Y98627D01*
X296983Y98603D01*
X297081Y98588D01*
X297176Y98563D01*
X297276Y98557D01*
X297297Y98553D01*
X297309Y98555D01*
X297337Y98553D01*
X297826Y98553D01*
X297924Y98565D01*
X298023Y98568D01*
X298082Y98585D01*
X298142Y98593D01*
X298234Y98629D01*
X298329Y98657D01*
X298381Y98687D01*
X298437Y98710D01*
X298517Y98768D01*
X298603Y98818D01*
X298678Y98884D01*
X298695Y98896D01*
X298703Y98906D01*
X298724Y98924D01*
X305380Y105581D01*
X305410Y105620D01*
X305447Y105653D01*
X305507Y105745D01*
X305575Y105832D01*
X305595Y105878D01*
X305622Y105919D01*
X305658Y106023D01*
X305701Y106124D01*
X305709Y106173D01*
X305725Y106220D01*
X305734Y106329D01*
X305751Y106438D01*
X305746Y106487D01*
X305750Y106537D01*
X305732Y106645D01*
X305721Y106755D01*
X305704Y106801D01*
X305696Y106850D01*
X305651Y106950D01*
X305614Y107054D01*
X305586Y107095D01*
X305565Y107140D01*
X305497Y107226D01*
X305435Y107317D01*
X305398Y107350D01*
X305367Y107389D01*
X305279Y107455D01*
X305197Y107527D01*
X305152Y107550D01*
X305113Y107580D01*
X304968Y107651D01*
X302351Y108735D01*
X300505Y110581D01*
X299505Y112994D01*
X299505Y115606D01*
X300505Y118019D01*
X302351Y119865D01*
X304764Y120865D01*
X307438Y120865D01*
X307536Y120877D01*
X307635Y120880D01*
X307694Y120897D01*
X307754Y120905D01*
X307846Y120941D01*
X307941Y120969D01*
X307993Y120999D01*
X308049Y121022D01*
X308129Y121080D01*
X308215Y121130D01*
X308290Y121196D01*
X308307Y121208D01*
X308315Y121218D01*
X308336Y121236D01*
X327562Y140463D01*
X348626Y140463D01*
X348724Y140475D01*
X348823Y140478D01*
X348882Y140495D01*
X348942Y140503D01*
X349034Y140539D01*
X349129Y140567D01*
X349181Y140597D01*
X349237Y140620D01*
X349317Y140678D01*
X349403Y140728D01*
X349478Y140794D01*
X349495Y140806D01*
X349503Y140816D01*
X349524Y140834D01*
X355502Y146813D01*
X388463Y146813D01*
X388561Y146825D01*
X388660Y146828D01*
X388718Y146845D01*
X388779Y146853D01*
X388871Y146889D01*
X388966Y146917D01*
X389018Y146947D01*
X389074Y146970D01*
X389154Y147028D01*
X389240Y147078D01*
X389315Y147144D01*
X389332Y147156D01*
X389339Y147166D01*
X389361Y147184D01*
X391251Y149075D01*
X393664Y150075D01*
X396276Y150075D01*
X398689Y149075D01*
X400579Y147184D01*
X400658Y147124D01*
X400730Y147056D01*
X400783Y147027D01*
X400831Y146990D01*
X400922Y146950D01*
X401008Y146902D01*
X401067Y146887D01*
X401123Y146863D01*
X401221Y146848D01*
X401316Y146823D01*
X401416Y146817D01*
X401437Y146813D01*
X401449Y146815D01*
X401477Y146813D01*
X412848Y146813D01*
X449073Y110588D01*
X449073Y65942D01*
X431116Y47986D01*
X431056Y47907D01*
X430988Y47835D01*
X430959Y47782D01*
X430922Y47734D01*
X430882Y47643D01*
X430834Y47557D01*
X430819Y47498D01*
X430795Y47443D01*
X430780Y47345D01*
X430755Y47249D01*
X430749Y47149D01*
X430745Y47128D01*
X430747Y47116D01*
X430745Y47088D01*
X430745Y44414D01*
X429745Y42001D01*
X427899Y40155D01*
X425486Y39155D01*
X422874Y39155D01*
X420461Y40155D01*
X418615Y42001D01*
X417615Y44414D01*
X417615Y47026D01*
X418615Y49439D01*
X420461Y51285D01*
X422874Y52285D01*
X425548Y52285D01*
X425646Y52297D01*
X425745Y52300D01*
X425804Y52317D01*
X425864Y52325D01*
X425956Y52361D01*
X426051Y52389D01*
X426103Y52419D01*
X426159Y52442D01*
X426239Y52500D01*
X426325Y52550D01*
X426400Y52616D01*
X426417Y52628D01*
X426425Y52638D01*
X426446Y52656D01*
X442096Y68306D01*
X442156Y68385D01*
X442224Y68457D01*
X442253Y68510D01*
X442290Y68558D01*
X442330Y68649D01*
X442378Y68735D01*
X442393Y68794D01*
X442417Y68849D01*
X442432Y68947D01*
X442457Y69043D01*
X442463Y69143D01*
X442467Y69164D01*
X442465Y69176D01*
X442467Y69204D01*
X442467Y83748D01*
X442450Y83886D01*
X442437Y84025D01*
X442430Y84044D01*
X442427Y84064D01*
X442376Y84193D01*
X442329Y84324D01*
X442318Y84341D01*
X442310Y84360D01*
X442229Y84472D01*
X442151Y84587D01*
X442135Y84600D01*
X442124Y84617D01*
X442016Y84706D01*
X441912Y84798D01*
X441894Y84807D01*
X441879Y84820D01*
X441753Y84879D01*
X441629Y84942D01*
X441609Y84947D01*
X441591Y84955D01*
X441454Y84981D01*
X441319Y85012D01*
X441298Y85011D01*
X441279Y85015D01*
X441140Y85006D01*
X441001Y85002D01*
X440981Y84997D01*
X440961Y84995D01*
X440829Y84952D01*
X440695Y84914D01*
X440678Y84903D01*
X440659Y84897D01*
X440541Y84823D01*
X440421Y84752D01*
X440400Y84734D01*
X440390Y84727D01*
X440376Y84712D01*
X440301Y84646D01*
X438872Y83217D01*
X429577Y83217D01*
X429479Y83205D01*
X429380Y83202D01*
X429322Y83185D01*
X429261Y83177D01*
X429169Y83141D01*
X429074Y83113D01*
X429022Y83083D01*
X428966Y83060D01*
X428886Y83002D01*
X428800Y82952D01*
X428725Y82886D01*
X428708Y82874D01*
X428701Y82864D01*
X428679Y82846D01*
X427899Y82065D01*
X425486Y81065D01*
X422874Y81065D01*
X420461Y82065D01*
X418558Y83968D01*
X418464Y84041D01*
X418375Y84120D01*
X418339Y84138D01*
X418307Y84163D01*
X418197Y84211D01*
X418091Y84265D01*
X418052Y84273D01*
X418015Y84289D01*
X417897Y84308D01*
X417781Y84334D01*
X417741Y84333D01*
X417701Y84339D01*
X417582Y84328D01*
X417463Y84325D01*
X417424Y84313D01*
X417384Y84310D01*
X417272Y84269D01*
X417158Y84236D01*
X417123Y84216D01*
X417085Y84202D01*
X416986Y84135D01*
X416884Y84075D01*
X416839Y84035D01*
X416822Y84023D01*
X416808Y84008D01*
X416763Y83968D01*
X416012Y83217D01*
X413067Y83217D01*
X412969Y83205D01*
X412870Y83202D01*
X412812Y83185D01*
X412751Y83177D01*
X412659Y83141D01*
X412564Y83113D01*
X412512Y83083D01*
X412456Y83060D01*
X412376Y83002D01*
X412290Y82952D01*
X412215Y82886D01*
X412198Y82874D01*
X412191Y82864D01*
X412169Y82846D01*
X411389Y82065D01*
X408976Y81065D01*
X406364Y81065D01*
X403951Y82065D01*
X403171Y82846D01*
X403092Y82906D01*
X403020Y82974D01*
X402967Y83003D01*
X402919Y83040D01*
X402828Y83080D01*
X402742Y83128D01*
X402683Y83143D01*
X402627Y83167D01*
X402529Y83182D01*
X402434Y83207D01*
X402334Y83213D01*
X402313Y83217D01*
X402301Y83215D01*
X402273Y83217D01*
X399328Y83217D01*
X398577Y83968D01*
X398483Y84041D01*
X398394Y84120D01*
X398358Y84138D01*
X398326Y84163D01*
X398217Y84210D01*
X398111Y84265D01*
X398071Y84273D01*
X398034Y84289D01*
X397916Y84308D01*
X397800Y84334D01*
X397760Y84333D01*
X397720Y84339D01*
X397601Y84328D01*
X397482Y84325D01*
X397444Y84313D01*
X397403Y84310D01*
X397291Y84269D01*
X397177Y84236D01*
X397142Y84216D01*
X397104Y84202D01*
X397005Y84135D01*
X396903Y84075D01*
X396858Y84035D01*
X396841Y84023D01*
X396827Y84008D01*
X396782Y83968D01*
X394879Y82065D01*
X392466Y81065D01*
X389854Y81065D01*
X387441Y82065D01*
X386661Y82845D01*
X386582Y82906D01*
X386510Y82974D01*
X386457Y83003D01*
X386409Y83040D01*
X386318Y83080D01*
X386232Y83128D01*
X386173Y83143D01*
X386117Y83167D01*
X386019Y83182D01*
X385924Y83207D01*
X385824Y83213D01*
X385803Y83217D01*
X385791Y83215D01*
X385763Y83217D01*
X376468Y83217D01*
X375277Y84408D01*
X375277Y104648D01*
X375262Y104766D01*
X375255Y104885D01*
X375242Y104923D01*
X375237Y104964D01*
X375194Y105074D01*
X375157Y105187D01*
X375135Y105222D01*
X375120Y105259D01*
X375051Y105355D01*
X374987Y105456D01*
X374957Y105484D01*
X374934Y105517D01*
X374842Y105593D01*
X374755Y105674D01*
X374720Y105694D01*
X374689Y105719D01*
X374581Y105770D01*
X374477Y105828D01*
X374437Y105838D01*
X374401Y105855D01*
X374284Y105877D01*
X374169Y105907D01*
X374109Y105911D01*
X374089Y105915D01*
X374068Y105913D01*
X374008Y105917D01*
X365114Y105917D01*
X365016Y105905D01*
X364917Y105902D01*
X364858Y105885D01*
X364798Y105877D01*
X364706Y105841D01*
X364611Y105813D01*
X364559Y105783D01*
X364503Y105760D01*
X364423Y105702D01*
X364337Y105652D01*
X364262Y105586D01*
X364245Y105574D01*
X364237Y105564D01*
X364216Y105546D01*
X338954Y80284D01*
X338894Y80205D01*
X338826Y80133D01*
X338797Y80080D01*
X338760Y80032D01*
X338720Y79941D01*
X338672Y79855D01*
X338657Y79796D01*
X338633Y79741D01*
X338618Y79643D01*
X338593Y79547D01*
X338587Y79447D01*
X338583Y79426D01*
X338585Y79414D01*
X338583Y79386D01*
X338583Y72292D01*
X319356Y53066D01*
X319296Y52987D01*
X319228Y52915D01*
X319199Y52862D01*
X319162Y52814D01*
X319122Y52723D01*
X319074Y52637D01*
X319059Y52578D01*
X319035Y52523D01*
X319020Y52425D01*
X318995Y52329D01*
X318989Y52229D01*
X318985Y52208D01*
X318987Y52196D01*
X318985Y52168D01*
X318985Y49494D01*
X318464Y48238D01*
X318451Y48190D01*
X318430Y48145D01*
X318409Y48037D01*
X318380Y47931D01*
X318380Y47881D01*
X318370Y47832D01*
X318377Y47723D01*
X318375Y47613D01*
X318387Y47565D01*
X318390Y47515D01*
X318424Y47411D01*
X318449Y47304D01*
X318473Y47260D01*
X318488Y47213D01*
X318547Y47120D01*
X318598Y47023D01*
X318632Y46986D01*
X318658Y46944D01*
X318738Y46869D01*
X318812Y46787D01*
X318854Y46760D01*
X318890Y46726D01*
X318986Y46673D01*
X319078Y46613D01*
X319125Y46596D01*
X319168Y46572D01*
X319274Y46545D01*
X319379Y46509D01*
X319428Y46505D01*
X319476Y46493D01*
X319637Y46483D01*
X387742Y46483D01*
X387880Y46500D01*
X388019Y46513D01*
X388038Y46520D01*
X388058Y46523D01*
X388187Y46574D01*
X388318Y46621D01*
X388335Y46632D01*
X388353Y46640D01*
X388466Y46721D01*
X388581Y46799D01*
X388594Y46815D01*
X388611Y46826D01*
X388700Y46934D01*
X388792Y47038D01*
X388801Y47056D01*
X388814Y47071D01*
X388873Y47197D01*
X388936Y47321D01*
X388941Y47341D01*
X388949Y47359D01*
X388975Y47495D01*
X389006Y47631D01*
X389005Y47652D01*
X389009Y47671D01*
X389000Y47810D01*
X388996Y47949D01*
X388990Y47969D01*
X388989Y47989D01*
X388946Y48121D01*
X388908Y48255D01*
X388897Y48272D01*
X388891Y48291D01*
X388817Y48409D01*
X388746Y48529D01*
X388728Y48550D01*
X388721Y48560D01*
X388706Y48574D01*
X388640Y48649D01*
X358511Y78778D01*
X358504Y78784D01*
X358498Y78791D01*
X358378Y78881D01*
X358260Y78973D01*
X358251Y78977D01*
X358244Y78982D01*
X358099Y79053D01*
X356961Y79525D01*
X355115Y81371D01*
X354643Y82509D01*
X354639Y82517D01*
X354636Y82526D01*
X354560Y82655D01*
X354486Y82785D01*
X354479Y82792D01*
X354475Y82800D01*
X354368Y82921D01*
X353567Y83722D01*
X353567Y86458D01*
X354368Y87259D01*
X354374Y87266D01*
X354381Y87272D01*
X354472Y87393D01*
X354563Y87510D01*
X354567Y87519D01*
X354572Y87526D01*
X354643Y87671D01*
X355115Y88809D01*
X356961Y90655D01*
X359374Y91655D01*
X361986Y91655D01*
X364399Y90655D01*
X366245Y88809D01*
X367245Y86396D01*
X367245Y83784D01*
X366281Y81458D01*
X366273Y81429D01*
X366260Y81403D01*
X366231Y81276D01*
X366197Y81151D01*
X366197Y81122D01*
X366190Y81093D01*
X366194Y80963D01*
X366192Y80833D01*
X366199Y80804D01*
X366200Y80775D01*
X366236Y80650D01*
X366266Y80524D01*
X366280Y80498D01*
X366288Y80469D01*
X366354Y80357D01*
X366415Y80243D01*
X366435Y80221D01*
X366450Y80195D01*
X366556Y80075D01*
X416286Y30344D01*
X416365Y30284D01*
X416437Y30216D01*
X416490Y30187D01*
X416538Y30150D01*
X416629Y30110D01*
X416715Y30062D01*
X416774Y30047D01*
X416829Y30023D01*
X416927Y30008D01*
X417023Y29983D01*
X417123Y29977D01*
X417144Y29973D01*
X417156Y29975D01*
X417184Y29973D01*
X431898Y29973D01*
X439232Y22639D01*
X439255Y22621D01*
X439274Y22598D01*
X439380Y22524D01*
X439483Y22444D01*
X439510Y22432D01*
X439534Y22415D01*
X439656Y22369D01*
X439775Y22318D01*
X439804Y22313D01*
X439832Y22302D01*
X439961Y22288D01*
X440089Y22268D01*
X440119Y22270D01*
X440148Y22267D01*
X440276Y22285D01*
X440406Y22297D01*
X440434Y22307D01*
X440463Y22312D01*
X440615Y22364D01*
X442428Y23115D01*
X446572Y23115D01*
X450399Y21529D01*
X453329Y18599D01*
X454915Y14772D01*
X454915Y10628D01*
X453329Y6801D01*
X451236Y4707D01*
X451151Y4598D01*
X451062Y4491D01*
X451054Y4472D01*
X451041Y4456D01*
X450986Y4328D01*
X450927Y4203D01*
X450923Y4183D01*
X450915Y4164D01*
X450893Y4026D01*
X450867Y3890D01*
X450868Y3870D01*
X450865Y3850D01*
X450878Y3711D01*
X450887Y3573D01*
X450893Y3554D01*
X450895Y3534D01*
X450942Y3402D01*
X450985Y3271D01*
X450996Y3253D01*
X451002Y3234D01*
X451080Y3119D01*
X451155Y3002D01*
X451170Y2988D01*
X451181Y2971D01*
X451285Y2879D01*
X451386Y2784D01*
X451404Y2774D01*
X451419Y2761D01*
X451544Y2697D01*
X451665Y2630D01*
X451685Y2625D01*
X451703Y2616D01*
X451838Y2586D01*
X451973Y2551D01*
X452001Y2549D01*
X452013Y2546D01*
X452033Y2547D01*
X452134Y2541D01*
X482600Y2541D01*
X482622Y2543D01*
G37*
G36*
X131486Y2558D02*
X131486Y2558D01*
X131624Y2571D01*
X131643Y2578D01*
X131664Y2581D01*
X131793Y2632D01*
X131924Y2679D01*
X131940Y2690D01*
X131959Y2698D01*
X132071Y2779D01*
X132187Y2857D01*
X132200Y2873D01*
X132217Y2884D01*
X132305Y2992D01*
X132397Y3096D01*
X132406Y3114D01*
X132419Y3129D01*
X132479Y3255D01*
X132542Y3379D01*
X132546Y3399D01*
X132555Y3417D01*
X132581Y3554D01*
X132611Y3689D01*
X132611Y3710D01*
X132615Y3729D01*
X132606Y3868D01*
X132602Y4007D01*
X132596Y4027D01*
X132595Y4047D01*
X132552Y4179D01*
X132513Y4313D01*
X132503Y4330D01*
X132497Y4349D01*
X132423Y4467D01*
X132352Y4587D01*
X132333Y4608D01*
X132327Y4618D01*
X132312Y4632D01*
X132245Y4707D01*
X131369Y5584D01*
X130358Y6975D01*
X129577Y8507D01*
X129046Y10142D01*
X129037Y10201D01*
X138470Y10201D01*
X138588Y10216D01*
X138707Y10223D01*
X138745Y10235D01*
X138785Y10241D01*
X138896Y10284D01*
X139009Y10321D01*
X139043Y10343D01*
X139081Y10358D01*
X139177Y10427D01*
X139278Y10491D01*
X139306Y10521D01*
X139338Y10544D01*
X139414Y10636D01*
X139496Y10723D01*
X139515Y10758D01*
X139541Y10789D01*
X139592Y10897D01*
X139649Y11001D01*
X139659Y11041D01*
X139677Y11077D01*
X139697Y11184D01*
X139701Y11154D01*
X139745Y11044D01*
X139781Y10931D01*
X139803Y10896D01*
X139818Y10859D01*
X139888Y10762D01*
X139951Y10662D01*
X139981Y10634D01*
X140005Y10601D01*
X140096Y10525D01*
X140183Y10444D01*
X140219Y10424D01*
X140250Y10399D01*
X140357Y10348D01*
X140462Y10290D01*
X140501Y10280D01*
X140537Y10263D01*
X140654Y10241D01*
X140770Y10211D01*
X140830Y10207D01*
X140850Y10203D01*
X140870Y10205D01*
X140930Y10201D01*
X150363Y10201D01*
X150354Y10142D01*
X149823Y8507D01*
X149042Y6975D01*
X148031Y5584D01*
X147155Y4707D01*
X147070Y4598D01*
X146981Y4491D01*
X146972Y4472D01*
X146960Y4456D01*
X146904Y4328D01*
X146845Y4203D01*
X146841Y4183D01*
X146833Y4164D01*
X146811Y4026D01*
X146785Y3890D01*
X146787Y3870D01*
X146783Y3850D01*
X146796Y3711D01*
X146805Y3573D01*
X146811Y3554D01*
X146813Y3534D01*
X146860Y3402D01*
X146903Y3271D01*
X146914Y3253D01*
X146921Y3234D01*
X146999Y3119D01*
X147073Y3002D01*
X147088Y2988D01*
X147099Y2971D01*
X147203Y2879D01*
X147305Y2784D01*
X147323Y2774D01*
X147338Y2761D01*
X147462Y2698D01*
X147583Y2630D01*
X147603Y2625D01*
X147621Y2616D01*
X147757Y2586D01*
X147891Y2551D01*
X147919Y2549D01*
X147931Y2546D01*
X147952Y2547D01*
X148052Y2541D01*
X157466Y2541D01*
X157604Y2558D01*
X157743Y2571D01*
X157762Y2578D01*
X157782Y2581D01*
X157911Y2632D01*
X158042Y2679D01*
X158059Y2690D01*
X158078Y2698D01*
X158190Y2779D01*
X158305Y2857D01*
X158319Y2873D01*
X158335Y2884D01*
X158424Y2992D01*
X158516Y3096D01*
X158525Y3114D01*
X158538Y3129D01*
X158597Y3255D01*
X158660Y3379D01*
X158665Y3399D01*
X158673Y3417D01*
X158699Y3553D01*
X158730Y3689D01*
X158729Y3710D01*
X158733Y3729D01*
X158724Y3868D01*
X158720Y4007D01*
X158715Y4027D01*
X158713Y4047D01*
X158671Y4179D01*
X158632Y4313D01*
X158622Y4330D01*
X158615Y4349D01*
X158541Y4467D01*
X158470Y4587D01*
X158452Y4608D01*
X158445Y4618D01*
X158430Y4632D01*
X158364Y4707D01*
X156271Y6801D01*
X154685Y10628D01*
X154685Y14772D01*
X156271Y18599D01*
X159201Y21529D01*
X163028Y23115D01*
X167172Y23115D01*
X170999Y21529D01*
X173929Y18599D01*
X175515Y14772D01*
X175515Y10628D01*
X173929Y6801D01*
X171836Y4707D01*
X171751Y4598D01*
X171662Y4491D01*
X171654Y4472D01*
X171641Y4456D01*
X171586Y4328D01*
X171527Y4203D01*
X171523Y4183D01*
X171515Y4164D01*
X171493Y4026D01*
X171467Y3890D01*
X171468Y3870D01*
X171465Y3850D01*
X171478Y3711D01*
X171487Y3573D01*
X171493Y3554D01*
X171495Y3534D01*
X171542Y3402D01*
X171585Y3271D01*
X171596Y3253D01*
X171602Y3234D01*
X171680Y3119D01*
X171755Y3002D01*
X171770Y2988D01*
X171781Y2971D01*
X171885Y2879D01*
X171986Y2784D01*
X172004Y2774D01*
X172019Y2761D01*
X172144Y2697D01*
X172265Y2630D01*
X172285Y2625D01*
X172303Y2616D01*
X172438Y2586D01*
X172573Y2551D01*
X172601Y2549D01*
X172613Y2546D01*
X172633Y2547D01*
X172734Y2541D01*
X182866Y2541D01*
X183004Y2558D01*
X183143Y2571D01*
X183162Y2578D01*
X183182Y2581D01*
X183311Y2632D01*
X183442Y2679D01*
X183459Y2690D01*
X183478Y2698D01*
X183590Y2779D01*
X183705Y2857D01*
X183719Y2873D01*
X183735Y2884D01*
X183824Y2992D01*
X183916Y3096D01*
X183925Y3114D01*
X183938Y3129D01*
X183997Y3255D01*
X184060Y3379D01*
X184065Y3399D01*
X184073Y3417D01*
X184099Y3553D01*
X184130Y3689D01*
X184129Y3710D01*
X184133Y3729D01*
X184124Y3868D01*
X184120Y4007D01*
X184115Y4027D01*
X184113Y4047D01*
X184071Y4179D01*
X184032Y4313D01*
X184022Y4330D01*
X184015Y4349D01*
X183941Y4467D01*
X183870Y4587D01*
X183852Y4608D01*
X183845Y4618D01*
X183830Y4632D01*
X183764Y4707D01*
X181671Y6801D01*
X180085Y10628D01*
X180085Y14772D01*
X181671Y18599D01*
X184601Y21529D01*
X188428Y23115D01*
X192572Y23115D01*
X196399Y21529D01*
X199329Y18599D01*
X200915Y14772D01*
X200915Y10628D01*
X199329Y6801D01*
X197236Y4707D01*
X197151Y4598D01*
X197062Y4491D01*
X197054Y4472D01*
X197041Y4456D01*
X196986Y4328D01*
X196927Y4203D01*
X196923Y4183D01*
X196915Y4164D01*
X196893Y4026D01*
X196867Y3890D01*
X196868Y3870D01*
X196865Y3850D01*
X196878Y3711D01*
X196887Y3573D01*
X196893Y3554D01*
X196895Y3534D01*
X196942Y3402D01*
X196985Y3271D01*
X196996Y3253D01*
X197002Y3234D01*
X197080Y3119D01*
X197155Y3002D01*
X197170Y2988D01*
X197181Y2971D01*
X197285Y2879D01*
X197386Y2784D01*
X197404Y2774D01*
X197419Y2761D01*
X197544Y2697D01*
X197665Y2630D01*
X197685Y2625D01*
X197703Y2616D01*
X197838Y2586D01*
X197973Y2551D01*
X198001Y2549D01*
X198013Y2546D01*
X198033Y2547D01*
X198134Y2541D01*
X208266Y2541D01*
X208404Y2558D01*
X208543Y2571D01*
X208562Y2578D01*
X208582Y2581D01*
X208711Y2632D01*
X208842Y2679D01*
X208859Y2690D01*
X208878Y2698D01*
X208990Y2779D01*
X209105Y2857D01*
X209119Y2873D01*
X209135Y2884D01*
X209224Y2992D01*
X209316Y3096D01*
X209325Y3114D01*
X209338Y3129D01*
X209397Y3255D01*
X209460Y3379D01*
X209465Y3399D01*
X209473Y3417D01*
X209499Y3553D01*
X209530Y3689D01*
X209529Y3710D01*
X209533Y3729D01*
X209524Y3868D01*
X209520Y4007D01*
X209515Y4027D01*
X209513Y4047D01*
X209471Y4179D01*
X209432Y4313D01*
X209422Y4330D01*
X209415Y4349D01*
X209341Y4467D01*
X209270Y4587D01*
X209252Y4608D01*
X209245Y4618D01*
X209230Y4632D01*
X209164Y4707D01*
X207071Y6801D01*
X205485Y10628D01*
X205485Y14772D01*
X207071Y18599D01*
X210001Y21529D01*
X213828Y23115D01*
X217972Y23115D01*
X221799Y21529D01*
X224729Y18599D01*
X226315Y14772D01*
X226315Y10628D01*
X224729Y6801D01*
X222636Y4707D01*
X222551Y4598D01*
X222462Y4491D01*
X222454Y4472D01*
X222441Y4456D01*
X222386Y4328D01*
X222327Y4203D01*
X222323Y4183D01*
X222315Y4164D01*
X222293Y4026D01*
X222267Y3890D01*
X222268Y3870D01*
X222265Y3850D01*
X222278Y3711D01*
X222287Y3573D01*
X222293Y3554D01*
X222295Y3534D01*
X222342Y3402D01*
X222385Y3271D01*
X222396Y3253D01*
X222402Y3234D01*
X222480Y3119D01*
X222555Y3002D01*
X222570Y2988D01*
X222581Y2971D01*
X222685Y2879D01*
X222786Y2784D01*
X222804Y2774D01*
X222819Y2761D01*
X222944Y2697D01*
X223065Y2630D01*
X223085Y2625D01*
X223103Y2616D01*
X223238Y2586D01*
X223373Y2551D01*
X223401Y2549D01*
X223413Y2546D01*
X223433Y2547D01*
X223534Y2541D01*
X233666Y2541D01*
X233804Y2558D01*
X233943Y2571D01*
X233962Y2578D01*
X233982Y2581D01*
X234111Y2632D01*
X234242Y2679D01*
X234259Y2690D01*
X234278Y2698D01*
X234390Y2779D01*
X234505Y2857D01*
X234519Y2873D01*
X234535Y2884D01*
X234624Y2992D01*
X234716Y3096D01*
X234725Y3114D01*
X234738Y3129D01*
X234797Y3255D01*
X234860Y3379D01*
X234865Y3399D01*
X234873Y3417D01*
X234899Y3553D01*
X234930Y3689D01*
X234929Y3710D01*
X234933Y3729D01*
X234924Y3868D01*
X234920Y4007D01*
X234915Y4027D01*
X234913Y4047D01*
X234871Y4179D01*
X234832Y4313D01*
X234822Y4330D01*
X234815Y4349D01*
X234741Y4467D01*
X234670Y4587D01*
X234652Y4608D01*
X234645Y4618D01*
X234630Y4632D01*
X234564Y4707D01*
X232471Y6801D01*
X230885Y10628D01*
X230885Y14772D01*
X232471Y18599D01*
X235401Y21529D01*
X239228Y23115D01*
X243372Y23115D01*
X247199Y21529D01*
X250129Y18599D01*
X251715Y14772D01*
X251715Y10628D01*
X250129Y6801D01*
X248036Y4707D01*
X247951Y4598D01*
X247862Y4491D01*
X247854Y4472D01*
X247841Y4456D01*
X247786Y4328D01*
X247727Y4203D01*
X247723Y4183D01*
X247715Y4164D01*
X247693Y4026D01*
X247667Y3890D01*
X247668Y3870D01*
X247665Y3850D01*
X247678Y3711D01*
X247687Y3573D01*
X247693Y3554D01*
X247695Y3534D01*
X247742Y3402D01*
X247785Y3271D01*
X247796Y3253D01*
X247802Y3234D01*
X247880Y3119D01*
X247955Y3002D01*
X247970Y2988D01*
X247981Y2971D01*
X248085Y2879D01*
X248186Y2784D01*
X248204Y2774D01*
X248219Y2761D01*
X248344Y2697D01*
X248465Y2630D01*
X248485Y2625D01*
X248503Y2616D01*
X248638Y2586D01*
X248773Y2551D01*
X248801Y2549D01*
X248813Y2546D01*
X248833Y2547D01*
X248934Y2541D01*
X259066Y2541D01*
X259204Y2558D01*
X259343Y2571D01*
X259362Y2578D01*
X259382Y2581D01*
X259511Y2632D01*
X259642Y2679D01*
X259659Y2690D01*
X259678Y2698D01*
X259790Y2779D01*
X259905Y2857D01*
X259919Y2873D01*
X259935Y2884D01*
X260024Y2992D01*
X260116Y3096D01*
X260125Y3114D01*
X260138Y3129D01*
X260197Y3255D01*
X260260Y3379D01*
X260265Y3399D01*
X260273Y3417D01*
X260299Y3553D01*
X260330Y3689D01*
X260329Y3710D01*
X260333Y3729D01*
X260324Y3868D01*
X260320Y4007D01*
X260315Y4027D01*
X260313Y4047D01*
X260271Y4179D01*
X260232Y4313D01*
X260222Y4330D01*
X260215Y4349D01*
X260141Y4467D01*
X260070Y4587D01*
X260052Y4608D01*
X260045Y4618D01*
X260030Y4632D01*
X259964Y4707D01*
X257871Y6801D01*
X256285Y10628D01*
X256285Y14772D01*
X257871Y18599D01*
X260801Y21529D01*
X261753Y21924D01*
X261797Y21948D01*
X261843Y21965D01*
X261934Y22027D01*
X262030Y22081D01*
X262065Y22116D01*
X262107Y22144D01*
X262179Y22226D01*
X262258Y22303D01*
X262284Y22345D01*
X262317Y22382D01*
X262367Y22480D01*
X262424Y22574D01*
X262439Y22621D01*
X262462Y22666D01*
X262486Y22773D01*
X262518Y22878D01*
X262520Y22927D01*
X262531Y22976D01*
X262528Y23086D01*
X262533Y23195D01*
X262523Y23244D01*
X262522Y23294D01*
X262491Y23399D01*
X262469Y23507D01*
X262447Y23552D01*
X262433Y23599D01*
X262377Y23694D01*
X262329Y23793D01*
X262297Y23830D01*
X262272Y23873D01*
X262165Y23994D01*
X260486Y25674D01*
X249427Y36732D01*
X249427Y51446D01*
X249415Y51544D01*
X249412Y51643D01*
X249395Y51702D01*
X249387Y51762D01*
X249351Y51854D01*
X249323Y51949D01*
X249293Y52001D01*
X249270Y52057D01*
X249212Y52137D01*
X249162Y52223D01*
X249096Y52298D01*
X249084Y52315D01*
X249074Y52323D01*
X249056Y52344D01*
X247531Y53868D01*
X247422Y53953D01*
X247315Y54042D01*
X247296Y54050D01*
X247280Y54063D01*
X247153Y54118D01*
X247027Y54177D01*
X247007Y54181D01*
X246988Y54189D01*
X246850Y54211D01*
X246714Y54237D01*
X246694Y54236D01*
X246674Y54239D01*
X246535Y54226D01*
X246397Y54217D01*
X246378Y54211D01*
X246358Y54209D01*
X246226Y54162D01*
X246095Y54119D01*
X246077Y54108D01*
X246058Y54101D01*
X245943Y54023D01*
X245826Y53949D01*
X245812Y53934D01*
X245795Y53923D01*
X245703Y53819D01*
X245608Y53717D01*
X245598Y53700D01*
X245585Y53684D01*
X245521Y53560D01*
X245454Y53439D01*
X245449Y53419D01*
X245440Y53401D01*
X245410Y53265D01*
X245375Y53131D01*
X245373Y53103D01*
X245370Y53091D01*
X245371Y53070D01*
X245365Y52970D01*
X245365Y36416D01*
X239174Y30225D01*
X227995Y30225D01*
X227897Y30213D01*
X227798Y30210D01*
X227740Y30193D01*
X227679Y30185D01*
X227587Y30149D01*
X227492Y30121D01*
X227440Y30091D01*
X227384Y30068D01*
X227304Y30010D01*
X227218Y29960D01*
X227143Y29894D01*
X227126Y29882D01*
X227119Y29872D01*
X227097Y29854D01*
X225969Y28725D01*
X223556Y27725D01*
X220944Y27725D01*
X218531Y28725D01*
X216685Y30571D01*
X215685Y32984D01*
X215685Y35596D01*
X216685Y38009D01*
X218531Y39855D01*
X220944Y40855D01*
X223657Y40855D01*
X223795Y40872D01*
X223934Y40885D01*
X223953Y40892D01*
X223973Y40895D01*
X224102Y40946D01*
X224233Y40993D01*
X224250Y41004D01*
X224268Y41012D01*
X224381Y41093D01*
X224496Y41171D01*
X224509Y41187D01*
X224526Y41198D01*
X224614Y41306D01*
X224706Y41410D01*
X224716Y41428D01*
X224728Y41443D01*
X224788Y41569D01*
X224851Y41693D01*
X224855Y41713D01*
X224864Y41731D01*
X224890Y41867D01*
X224921Y42003D01*
X224920Y42024D01*
X224924Y42043D01*
X224915Y42182D01*
X224911Y42321D01*
X224905Y42341D01*
X224904Y42361D01*
X224861Y42493D01*
X224823Y42627D01*
X224812Y42644D01*
X224806Y42663D01*
X224732Y42781D01*
X224661Y42901D01*
X224642Y42922D01*
X224636Y42932D01*
X224621Y42946D01*
X224555Y43022D01*
X224260Y43316D01*
X224182Y43376D01*
X224110Y43444D01*
X224057Y43473D01*
X224009Y43510D01*
X223918Y43550D01*
X223832Y43598D01*
X223773Y43613D01*
X223717Y43637D01*
X223620Y43652D01*
X223524Y43677D01*
X223424Y43683D01*
X223403Y43687D01*
X223391Y43685D01*
X223363Y43687D01*
X219064Y43687D01*
X218966Y43675D01*
X218867Y43672D01*
X218808Y43655D01*
X218748Y43647D01*
X218656Y43611D01*
X218561Y43583D01*
X218509Y43553D01*
X218453Y43530D01*
X218373Y43472D01*
X218287Y43422D01*
X218212Y43356D01*
X218195Y43344D01*
X218187Y43334D01*
X218166Y43316D01*
X204568Y29717D01*
X132704Y29717D01*
X132606Y29705D01*
X132507Y29702D01*
X132448Y29685D01*
X132388Y29677D01*
X132296Y29641D01*
X132201Y29613D01*
X132149Y29583D01*
X132093Y29560D01*
X132013Y29502D01*
X131927Y29452D01*
X131852Y29386D01*
X131835Y29374D01*
X131827Y29364D01*
X131806Y29346D01*
X122992Y20531D01*
X122919Y20437D01*
X122840Y20348D01*
X122822Y20312D01*
X122797Y20280D01*
X122750Y20171D01*
X122696Y20065D01*
X122687Y20025D01*
X122671Y19988D01*
X122652Y19871D01*
X122626Y19755D01*
X122627Y19714D01*
X122621Y19674D01*
X122632Y19555D01*
X122636Y19437D01*
X122647Y19398D01*
X122651Y19358D01*
X122691Y19245D01*
X122724Y19131D01*
X122745Y19096D01*
X122758Y19058D01*
X122825Y18960D01*
X122886Y18857D01*
X122926Y18812D01*
X122937Y18795D01*
X122952Y18782D01*
X122992Y18736D01*
X123129Y18599D01*
X124715Y14772D01*
X124715Y10628D01*
X123129Y6801D01*
X121036Y4707D01*
X120951Y4598D01*
X120862Y4491D01*
X120854Y4472D01*
X120841Y4456D01*
X120786Y4328D01*
X120727Y4203D01*
X120723Y4183D01*
X120715Y4164D01*
X120693Y4026D01*
X120667Y3890D01*
X120668Y3870D01*
X120665Y3850D01*
X120678Y3711D01*
X120687Y3573D01*
X120693Y3554D01*
X120695Y3534D01*
X120742Y3402D01*
X120785Y3271D01*
X120796Y3253D01*
X120802Y3234D01*
X120880Y3119D01*
X120955Y3002D01*
X120970Y2988D01*
X120981Y2971D01*
X121085Y2879D01*
X121186Y2784D01*
X121204Y2774D01*
X121219Y2761D01*
X121344Y2697D01*
X121465Y2630D01*
X121485Y2625D01*
X121503Y2616D01*
X121638Y2586D01*
X121773Y2551D01*
X121801Y2549D01*
X121813Y2546D01*
X121833Y2547D01*
X121934Y2541D01*
X131348Y2541D01*
X131486Y2558D01*
G37*
%LPC*%
G36*
X74894Y22645D02*
X74894Y22645D01*
X72481Y23645D01*
X70635Y25491D01*
X69635Y27904D01*
X69635Y30578D01*
X69623Y30676D01*
X69620Y30775D01*
X69603Y30834D01*
X69595Y30894D01*
X69559Y30986D01*
X69531Y31081D01*
X69501Y31133D01*
X69478Y31189D01*
X69420Y31269D01*
X69370Y31355D01*
X69304Y31430D01*
X69292Y31447D01*
X69282Y31455D01*
X69264Y31476D01*
X60197Y40542D01*
X60197Y59407D01*
X60192Y59446D01*
X60195Y59486D01*
X60172Y59604D01*
X60157Y59722D01*
X60143Y59759D01*
X60135Y59799D01*
X60084Y59907D01*
X60040Y60018D01*
X60017Y60050D01*
X60000Y60086D01*
X59924Y60179D01*
X59854Y60275D01*
X59823Y60301D01*
X59797Y60332D01*
X59701Y60402D01*
X59609Y60478D01*
X59572Y60495D01*
X59540Y60519D01*
X59429Y60563D01*
X59321Y60614D01*
X59282Y60621D01*
X59245Y60636D01*
X59126Y60651D01*
X59009Y60673D01*
X58969Y60671D01*
X58929Y60676D01*
X58810Y60661D01*
X58691Y60654D01*
X58653Y60641D01*
X58614Y60636D01*
X58502Y60593D01*
X58389Y60556D01*
X58355Y60534D01*
X58318Y60520D01*
X58230Y60464D01*
X56936Y59805D01*
X55576Y59363D01*
X55449Y59343D01*
X55449Y80570D01*
X55434Y80688D01*
X55427Y80807D01*
X55414Y80845D01*
X55409Y80885D01*
X55366Y80996D01*
X55329Y81109D01*
X55307Y81143D01*
X55292Y81181D01*
X55223Y81277D01*
X55212Y81294D01*
X55226Y81318D01*
X55251Y81350D01*
X55302Y81457D01*
X55360Y81562D01*
X55370Y81601D01*
X55387Y81637D01*
X55409Y81754D01*
X55439Y81870D01*
X55443Y81930D01*
X55447Y81950D01*
X55445Y81970D01*
X55449Y82030D01*
X55449Y90177D01*
X55576Y90157D01*
X56936Y89715D01*
X58231Y89056D01*
X58247Y89042D01*
X58356Y88991D01*
X58460Y88933D01*
X58499Y88923D01*
X58535Y88906D01*
X58652Y88884D01*
X58768Y88854D01*
X58808Y88854D01*
X58848Y88847D01*
X58909Y88850D01*
X58920Y88850D01*
X58928Y88850D01*
X58957Y88853D01*
X58967Y88854D01*
X59086Y88854D01*
X59125Y88864D01*
X59165Y88866D01*
X59232Y88888D01*
X59244Y88890D01*
X59275Y88902D01*
X59278Y88903D01*
X59394Y88933D01*
X59430Y88952D01*
X59467Y88964D01*
X59526Y89001D01*
X59539Y89007D01*
X59571Y89030D01*
X59673Y89086D01*
X59702Y89113D01*
X59736Y89135D01*
X59781Y89182D01*
X59797Y89193D01*
X59826Y89229D01*
X59905Y89303D01*
X59927Y89337D01*
X59954Y89366D01*
X59983Y89419D01*
X59999Y89438D01*
X60023Y89488D01*
X60076Y89572D01*
X60088Y89610D01*
X60108Y89645D01*
X60121Y89697D01*
X60135Y89726D01*
X60147Y89790D01*
X60175Y89874D01*
X60177Y89914D01*
X60187Y89953D01*
X60191Y90021D01*
X60195Y90038D01*
X60194Y90056D01*
X60197Y90113D01*
X60197Y138487D01*
X60192Y138526D01*
X60195Y138566D01*
X60172Y138684D01*
X60157Y138802D01*
X60143Y138839D01*
X60135Y138879D01*
X60084Y138987D01*
X60040Y139098D01*
X60017Y139130D01*
X60000Y139166D01*
X59924Y139259D01*
X59854Y139355D01*
X59823Y139381D01*
X59797Y139412D01*
X59701Y139482D01*
X59609Y139558D01*
X59572Y139575D01*
X59540Y139599D01*
X59429Y139643D01*
X59321Y139694D01*
X59282Y139701D01*
X59245Y139716D01*
X59126Y139731D01*
X59009Y139753D01*
X58969Y139751D01*
X58929Y139756D01*
X58810Y139741D01*
X58691Y139734D01*
X58653Y139721D01*
X58614Y139716D01*
X58502Y139673D01*
X58389Y139636D01*
X58355Y139614D01*
X58318Y139600D01*
X58230Y139544D01*
X56936Y138885D01*
X55576Y138443D01*
X55449Y138423D01*
X55449Y146570D01*
X55434Y146688D01*
X55427Y146807D01*
X55414Y146845D01*
X55409Y146885D01*
X55366Y146996D01*
X55329Y147109D01*
X55307Y147143D01*
X55292Y147181D01*
X55223Y147277D01*
X55212Y147294D01*
X55226Y147318D01*
X55251Y147350D01*
X55302Y147457D01*
X55360Y147562D01*
X55370Y147601D01*
X55387Y147637D01*
X55409Y147754D01*
X55439Y147870D01*
X55443Y147930D01*
X55447Y147950D01*
X55445Y147970D01*
X55449Y148030D01*
X55449Y169257D01*
X55576Y169237D01*
X56936Y168795D01*
X58209Y168147D01*
X59366Y167306D01*
X60376Y166296D01*
X61217Y165139D01*
X61865Y163866D01*
X62307Y162506D01*
X62531Y161095D01*
X62531Y159166D01*
X62548Y159028D01*
X62561Y158889D01*
X62568Y158870D01*
X62571Y158850D01*
X62622Y158721D01*
X62669Y158590D01*
X62680Y158573D01*
X62688Y158555D01*
X62769Y158442D01*
X62847Y158327D01*
X62863Y158314D01*
X62874Y158297D01*
X62982Y158209D01*
X63086Y158116D01*
X63104Y158107D01*
X63119Y158094D01*
X63245Y158035D01*
X63369Y157972D01*
X63389Y157967D01*
X63407Y157959D01*
X63543Y157933D01*
X63679Y157902D01*
X63700Y157903D01*
X63719Y157899D01*
X63858Y157908D01*
X63997Y157912D01*
X64017Y157918D01*
X64037Y157919D01*
X64169Y157962D01*
X64303Y158000D01*
X64320Y158011D01*
X64339Y158017D01*
X64457Y158091D01*
X64577Y158162D01*
X64598Y158180D01*
X64608Y158187D01*
X64622Y158202D01*
X64697Y158268D01*
X84992Y178563D01*
X132178Y178563D01*
X139974Y170766D01*
X140053Y170706D01*
X140125Y170638D01*
X140178Y170609D01*
X140226Y170572D01*
X140317Y170532D01*
X140403Y170484D01*
X140462Y170469D01*
X140517Y170445D01*
X140615Y170430D01*
X140711Y170405D01*
X140811Y170399D01*
X140832Y170395D01*
X140844Y170397D01*
X140872Y170395D01*
X142276Y170395D01*
X144689Y169395D01*
X146535Y167549D01*
X147535Y165136D01*
X147535Y162524D01*
X146535Y160111D01*
X144689Y158265D01*
X142276Y157265D01*
X139664Y157265D01*
X137251Y158265D01*
X135405Y160111D01*
X134405Y162524D01*
X134405Y165136D01*
X134625Y165666D01*
X134633Y165695D01*
X134646Y165721D01*
X134675Y165848D01*
X134709Y165973D01*
X134709Y166002D01*
X134716Y166031D01*
X134712Y166161D01*
X134714Y166291D01*
X134707Y166320D01*
X134706Y166349D01*
X134670Y166474D01*
X134640Y166600D01*
X134626Y166626D01*
X134618Y166655D01*
X134552Y166766D01*
X134491Y166881D01*
X134471Y166903D01*
X134456Y166929D01*
X134350Y167049D01*
X129814Y171586D01*
X129735Y171646D01*
X129663Y171714D01*
X129610Y171743D01*
X129562Y171780D01*
X129471Y171820D01*
X129385Y171868D01*
X129326Y171883D01*
X129271Y171907D01*
X129173Y171922D01*
X129077Y171947D01*
X128977Y171953D01*
X128956Y171957D01*
X128944Y171955D01*
X128916Y171957D01*
X88254Y171957D01*
X88156Y171945D01*
X88057Y171942D01*
X87998Y171925D01*
X87938Y171917D01*
X87846Y171881D01*
X87751Y171853D01*
X87699Y171823D01*
X87643Y171800D01*
X87563Y171742D01*
X87477Y171692D01*
X87402Y171626D01*
X87385Y171614D01*
X87377Y171604D01*
X87356Y171586D01*
X67174Y151404D01*
X67114Y151325D01*
X67046Y151253D01*
X67017Y151200D01*
X66980Y151152D01*
X66940Y151061D01*
X66892Y150975D01*
X66877Y150916D01*
X66853Y150861D01*
X66838Y150763D01*
X66813Y150667D01*
X66807Y150567D01*
X66803Y150546D01*
X66805Y150534D01*
X66803Y150506D01*
X66803Y43804D01*
X66815Y43706D01*
X66818Y43607D01*
X66835Y43548D01*
X66843Y43488D01*
X66879Y43396D01*
X66907Y43301D01*
X66937Y43249D01*
X66960Y43193D01*
X67018Y43113D01*
X67068Y43027D01*
X67134Y42952D01*
X67146Y42935D01*
X67156Y42927D01*
X67174Y42906D01*
X73934Y36146D01*
X74013Y36086D01*
X74085Y36018D01*
X74138Y35989D01*
X74186Y35952D01*
X74277Y35912D01*
X74363Y35864D01*
X74422Y35849D01*
X74477Y35825D01*
X74575Y35810D01*
X74671Y35785D01*
X74771Y35779D01*
X74792Y35775D01*
X74804Y35777D01*
X74832Y35775D01*
X77506Y35775D01*
X79919Y34775D01*
X81765Y32929D01*
X82765Y30516D01*
X82765Y27904D01*
X81765Y25491D01*
X79919Y23645D01*
X77506Y22645D01*
X74894Y22645D01*
G37*
%LPD*%
%LPC*%
G36*
X23676Y5780D02*
X23676Y5780D01*
X23658Y5780D01*
X23543Y5787D01*
X21499Y5787D01*
X20951Y6014D01*
X20852Y6041D01*
X20757Y6077D01*
X20665Y6092D01*
X20644Y6098D01*
X20631Y6098D01*
X20598Y6104D01*
X19416Y6228D01*
X19390Y6227D01*
X19364Y6232D01*
X19231Y6224D01*
X19173Y6223D01*
X19147Y6250D01*
X19125Y6265D01*
X19106Y6283D01*
X18972Y6372D01*
X16215Y7964D01*
X16213Y7965D01*
X16210Y7967D01*
X16066Y8038D01*
X14290Y8773D01*
X13693Y9370D01*
X13626Y9422D01*
X13565Y9483D01*
X13451Y9558D01*
X13442Y9565D01*
X13438Y9567D01*
X13431Y9572D01*
X11929Y10439D01*
X10139Y12903D01*
X10126Y12917D01*
X10116Y12933D01*
X10009Y13054D01*
X8773Y14290D01*
X8357Y15296D01*
X8322Y15356D01*
X8297Y15420D01*
X8211Y15556D01*
X7008Y17211D01*
X6447Y19849D01*
X6436Y19883D01*
X6431Y19919D01*
X6379Y20071D01*
X5787Y21499D01*
X5787Y22822D01*
X5781Y22874D01*
X5783Y22926D01*
X5760Y23086D01*
X5268Y25400D01*
X5760Y27714D01*
X5764Y27767D01*
X5777Y27817D01*
X5787Y27978D01*
X5787Y29301D01*
X6379Y30729D01*
X6388Y30763D01*
X6404Y30795D01*
X6447Y30951D01*
X7008Y33589D01*
X8211Y35244D01*
X8244Y35305D01*
X8286Y35360D01*
X8357Y35504D01*
X8773Y36510D01*
X10009Y37746D01*
X10021Y37761D01*
X10036Y37773D01*
X10139Y37897D01*
X11929Y40361D01*
X13431Y41228D01*
X13499Y41280D01*
X13573Y41324D01*
X13675Y41414D01*
X13684Y41421D01*
X13687Y41424D01*
X13693Y41430D01*
X14290Y42027D01*
X16066Y42762D01*
X16068Y42764D01*
X16071Y42764D01*
X16215Y42836D01*
X19179Y44547D01*
X20598Y44696D01*
X20698Y44720D01*
X20799Y44734D01*
X20887Y44764D01*
X20908Y44769D01*
X20920Y44775D01*
X20951Y44786D01*
X21499Y45013D01*
X23543Y45013D01*
X23560Y45015D01*
X23676Y45020D01*
X27504Y45422D01*
X28573Y45075D01*
X28690Y45053D01*
X28805Y45023D01*
X28865Y45019D01*
X28885Y45015D01*
X28906Y45017D01*
X28965Y45013D01*
X29301Y45013D01*
X31209Y44222D01*
X31230Y44217D01*
X31303Y44188D01*
X35466Y42835D01*
X36078Y42285D01*
X36189Y42207D01*
X36297Y42126D01*
X36327Y42111D01*
X36339Y42103D01*
X36359Y42096D01*
X36441Y42055D01*
X36510Y42027D01*
X37805Y40732D01*
X37819Y40721D01*
X37853Y40686D01*
X41687Y37234D01*
X41900Y36756D01*
X41979Y36626D01*
X42250Y35971D01*
X42255Y35962D01*
X42263Y35941D01*
X45092Y29586D01*
X45092Y21214D01*
X42263Y14859D01*
X42260Y14849D01*
X42250Y14829D01*
X41994Y14211D01*
X41975Y14187D01*
X41970Y14179D01*
X41968Y14175D01*
X41963Y14164D01*
X41900Y14044D01*
X41687Y13566D01*
X37853Y10114D01*
X37841Y10100D01*
X37805Y10068D01*
X36510Y8773D01*
X36441Y8745D01*
X36324Y8678D01*
X36204Y8615D01*
X36177Y8594D01*
X36165Y8587D01*
X36150Y8572D01*
X36078Y8515D01*
X35466Y7965D01*
X31302Y6612D01*
X31283Y6603D01*
X31209Y6577D01*
X29301Y5787D01*
X28965Y5787D01*
X28847Y5772D01*
X28729Y5765D01*
X28670Y5750D01*
X28650Y5747D01*
X28631Y5740D01*
X28573Y5725D01*
X27504Y5378D01*
X23676Y5780D01*
G37*
%LPD*%
%LPC*%
G36*
X12616Y63259D02*
X12616Y63259D01*
X11969Y63432D01*
X11390Y63767D01*
X10917Y64240D01*
X10582Y64819D01*
X10409Y65466D01*
X10409Y76051D01*
X14988Y76051D01*
X15028Y76056D01*
X15068Y76053D01*
X15185Y76076D01*
X15303Y76091D01*
X15341Y76105D01*
X15381Y76113D01*
X15488Y76164D01*
X15599Y76208D01*
X15632Y76231D01*
X15668Y76249D01*
X15760Y76324D01*
X15856Y76394D01*
X15882Y76426D01*
X15913Y76451D01*
X15983Y76548D01*
X16059Y76639D01*
X16076Y76676D01*
X16100Y76709D01*
X16144Y76820D01*
X16195Y76927D01*
X16202Y76967D01*
X16217Y77004D01*
X16247Y77163D01*
X16370Y78143D01*
X16370Y78220D01*
X16380Y78297D01*
X16370Y78457D01*
X16369Y78460D01*
X16369Y78461D01*
X16247Y79437D01*
X16237Y79477D01*
X16235Y79517D01*
X16198Y79630D01*
X16169Y79746D01*
X16149Y79781D01*
X16137Y79819D01*
X16073Y79920D01*
X16016Y80024D01*
X15988Y80054D01*
X15967Y80088D01*
X15880Y80170D01*
X15799Y80257D01*
X15764Y80278D01*
X15735Y80306D01*
X15631Y80364D01*
X15530Y80428D01*
X15492Y80440D01*
X15456Y80460D01*
X15341Y80489D01*
X15228Y80526D01*
X15188Y80529D01*
X15149Y80539D01*
X14988Y80549D01*
X10409Y80549D01*
X10409Y91134D01*
X10582Y91781D01*
X10917Y92360D01*
X11390Y92833D01*
X11969Y93168D01*
X12616Y93341D01*
X23201Y93341D01*
X23201Y86610D01*
X23216Y86492D01*
X23223Y86373D01*
X23235Y86335D01*
X23241Y86294D01*
X23284Y86184D01*
X23321Y86071D01*
X23343Y86036D01*
X23358Y85999D01*
X23427Y85903D01*
X23491Y85802D01*
X23521Y85774D01*
X23544Y85741D01*
X23636Y85665D01*
X23723Y85584D01*
X23758Y85564D01*
X23789Y85539D01*
X23897Y85488D01*
X24001Y85430D01*
X24041Y85420D01*
X24077Y85403D01*
X24194Y85381D01*
X24309Y85351D01*
X24369Y85347D01*
X24389Y85343D01*
X24410Y85345D01*
X24470Y85341D01*
X26430Y85341D01*
X26548Y85356D01*
X26667Y85363D01*
X26705Y85376D01*
X26746Y85381D01*
X26856Y85424D01*
X26969Y85461D01*
X27004Y85483D01*
X27041Y85498D01*
X27137Y85567D01*
X27238Y85631D01*
X27266Y85661D01*
X27299Y85684D01*
X27375Y85776D01*
X27456Y85863D01*
X27476Y85898D01*
X27501Y85929D01*
X27552Y86037D01*
X27610Y86141D01*
X27620Y86181D01*
X27637Y86217D01*
X27659Y86334D01*
X27689Y86449D01*
X27693Y86509D01*
X27697Y86529D01*
X27695Y86550D01*
X27699Y86610D01*
X27699Y93341D01*
X37140Y93341D01*
X37258Y93356D01*
X37377Y93363D01*
X37415Y93376D01*
X37456Y93381D01*
X37566Y93424D01*
X37679Y93461D01*
X37714Y93483D01*
X37751Y93498D01*
X37847Y93567D01*
X37948Y93631D01*
X37976Y93661D01*
X38009Y93684D01*
X38085Y93776D01*
X38166Y93863D01*
X38186Y93898D01*
X38211Y93929D01*
X38262Y94037D01*
X38320Y94141D01*
X38330Y94181D01*
X38347Y94217D01*
X38369Y94334D01*
X38399Y94449D01*
X38403Y94509D01*
X38407Y94529D01*
X38405Y94550D01*
X38409Y94610D01*
X38409Y96002D01*
X39329Y98222D01*
X41028Y99921D01*
X43248Y100841D01*
X45652Y100841D01*
X47872Y99921D01*
X49571Y98222D01*
X50491Y96002D01*
X50491Y93598D01*
X49768Y91853D01*
X49756Y91811D01*
X49742Y91781D01*
X49735Y91743D01*
X49711Y91683D01*
X49702Y91614D01*
X49684Y91546D01*
X49683Y91470D01*
X49682Y91469D01*
X49682Y91467D01*
X49682Y91457D01*
X49671Y91368D01*
X49680Y91298D01*
X49679Y91228D01*
X49700Y91141D01*
X49711Y91052D01*
X49737Y90987D01*
X49753Y90919D01*
X49795Y90840D01*
X49828Y90756D01*
X49869Y90700D01*
X49902Y90638D01*
X49962Y90571D01*
X50014Y90499D01*
X50068Y90454D01*
X50115Y90402D01*
X50190Y90353D01*
X50259Y90296D01*
X50323Y90266D01*
X50381Y90228D01*
X50466Y90199D01*
X50547Y90160D01*
X50616Y90147D01*
X50682Y90124D01*
X50771Y90117D01*
X50859Y90101D01*
X50929Y90105D01*
X50999Y90099D01*
X51087Y90115D01*
X51177Y90120D01*
X51298Y90151D01*
X51312Y90154D01*
X51318Y90156D01*
X51451Y90177D01*
X51451Y83299D01*
X44573Y83299D01*
X44593Y83426D01*
X45035Y84786D01*
X45683Y86059D01*
X46181Y86744D01*
X46200Y86779D01*
X46225Y86809D01*
X46276Y86918D01*
X46334Y87023D01*
X46344Y87061D01*
X46361Y87097D01*
X46383Y87214D01*
X46413Y87331D01*
X46413Y87371D01*
X46421Y87410D01*
X46413Y87529D01*
X46413Y87649D01*
X46403Y87687D01*
X46401Y87727D01*
X46364Y87841D01*
X46334Y87957D01*
X46315Y87992D01*
X46303Y88029D01*
X46239Y88131D01*
X46181Y88235D01*
X46154Y88264D01*
X46133Y88298D01*
X46045Y88380D01*
X45964Y88467D01*
X45930Y88489D01*
X45901Y88516D01*
X45796Y88574D01*
X45695Y88638D01*
X45657Y88650D01*
X45623Y88670D01*
X45507Y88699D01*
X45393Y88737D01*
X45353Y88739D01*
X45315Y88749D01*
X45154Y88759D01*
X43248Y88759D01*
X42246Y89175D01*
X42198Y89188D01*
X42153Y89209D01*
X42045Y89230D01*
X41939Y89259D01*
X41889Y89259D01*
X41840Y89269D01*
X41731Y89262D01*
X41621Y89264D01*
X41573Y89252D01*
X41523Y89249D01*
X41419Y89215D01*
X41312Y89189D01*
X41268Y89166D01*
X41221Y89151D01*
X41128Y89092D01*
X41031Y89041D01*
X40994Y89007D01*
X40952Y88981D01*
X40877Y88901D01*
X40795Y88827D01*
X40768Y88785D01*
X40734Y88749D01*
X40681Y88653D01*
X40621Y88561D01*
X40604Y88514D01*
X40580Y88471D01*
X40553Y88364D01*
X40517Y88260D01*
X40513Y88211D01*
X40501Y88163D01*
X40491Y88002D01*
X40491Y80549D01*
X35912Y80549D01*
X35872Y80544D01*
X35832Y80547D01*
X35715Y80524D01*
X35597Y80509D01*
X35559Y80495D01*
X35519Y80487D01*
X35412Y80436D01*
X35301Y80392D01*
X35268Y80369D01*
X35232Y80351D01*
X35140Y80276D01*
X35044Y80206D01*
X35018Y80174D01*
X34987Y80149D01*
X34917Y80052D01*
X34841Y79961D01*
X34824Y79924D01*
X34800Y79891D01*
X34756Y79780D01*
X34705Y79673D01*
X34698Y79633D01*
X34683Y79596D01*
X34653Y79437D01*
X34530Y78457D01*
X34530Y78380D01*
X34520Y78303D01*
X34530Y78143D01*
X34531Y78140D01*
X34531Y78139D01*
X34653Y77163D01*
X34663Y77123D01*
X34665Y77083D01*
X34702Y76970D01*
X34731Y76854D01*
X34751Y76819D01*
X34763Y76781D01*
X34827Y76680D01*
X34884Y76575D01*
X34912Y76546D01*
X34933Y76512D01*
X35020Y76430D01*
X35101Y76343D01*
X35136Y76322D01*
X35165Y76294D01*
X35269Y76236D01*
X35370Y76172D01*
X35408Y76160D01*
X35444Y76140D01*
X35559Y76111D01*
X35672Y76074D01*
X35712Y76071D01*
X35751Y76061D01*
X35912Y76051D01*
X40491Y76051D01*
X40491Y65466D01*
X40318Y64819D01*
X39983Y64240D01*
X39510Y63767D01*
X38931Y63432D01*
X38284Y63259D01*
X27699Y63259D01*
X27699Y69990D01*
X27684Y70108D01*
X27677Y70227D01*
X27664Y70265D01*
X27659Y70306D01*
X27616Y70416D01*
X27579Y70529D01*
X27557Y70564D01*
X27542Y70601D01*
X27473Y70697D01*
X27409Y70798D01*
X27379Y70826D01*
X27356Y70859D01*
X27264Y70935D01*
X27177Y71016D01*
X27142Y71036D01*
X27111Y71061D01*
X27003Y71112D01*
X26899Y71170D01*
X26859Y71180D01*
X26823Y71197D01*
X26706Y71219D01*
X26591Y71249D01*
X26531Y71253D01*
X26511Y71257D01*
X26490Y71255D01*
X26430Y71259D01*
X24470Y71259D01*
X24352Y71244D01*
X24233Y71237D01*
X24195Y71224D01*
X24154Y71219D01*
X24044Y71176D01*
X23931Y71139D01*
X23896Y71117D01*
X23859Y71102D01*
X23762Y71033D01*
X23662Y70969D01*
X23634Y70939D01*
X23601Y70916D01*
X23525Y70824D01*
X23444Y70737D01*
X23424Y70702D01*
X23399Y70671D01*
X23348Y70563D01*
X23290Y70459D01*
X23280Y70419D01*
X23263Y70383D01*
X23241Y70266D01*
X23211Y70151D01*
X23207Y70091D01*
X23203Y70071D01*
X23205Y70050D01*
X23201Y69990D01*
X23201Y63259D01*
X12616Y63259D01*
G37*
%LPD*%
%LPC*%
G36*
X43248Y127759D02*
X43248Y127759D01*
X41028Y128679D01*
X39329Y130378D01*
X38409Y132598D01*
X38409Y133990D01*
X38394Y134108D01*
X38387Y134227D01*
X38374Y134265D01*
X38369Y134306D01*
X38326Y134416D01*
X38289Y134529D01*
X38267Y134564D01*
X38252Y134601D01*
X38183Y134697D01*
X38119Y134798D01*
X38089Y134826D01*
X38066Y134859D01*
X37974Y134935D01*
X37887Y135016D01*
X37852Y135036D01*
X37821Y135061D01*
X37713Y135112D01*
X37609Y135170D01*
X37569Y135180D01*
X37533Y135197D01*
X37416Y135219D01*
X37301Y135249D01*
X37241Y135253D01*
X37221Y135257D01*
X37200Y135255D01*
X37140Y135259D01*
X27699Y135259D01*
X27699Y141990D01*
X27684Y142108D01*
X27677Y142227D01*
X27664Y142265D01*
X27659Y142306D01*
X27616Y142416D01*
X27579Y142529D01*
X27557Y142564D01*
X27542Y142601D01*
X27473Y142697D01*
X27409Y142798D01*
X27379Y142826D01*
X27356Y142859D01*
X27264Y142935D01*
X27177Y143016D01*
X27142Y143036D01*
X27111Y143061D01*
X27003Y143112D01*
X26899Y143170D01*
X26859Y143180D01*
X26823Y143197D01*
X26706Y143219D01*
X26591Y143249D01*
X26531Y143253D01*
X26511Y143257D01*
X26490Y143255D01*
X26430Y143259D01*
X24470Y143259D01*
X24352Y143244D01*
X24233Y143237D01*
X24195Y143224D01*
X24154Y143219D01*
X24044Y143176D01*
X23931Y143139D01*
X23896Y143117D01*
X23859Y143102D01*
X23762Y143033D01*
X23662Y142969D01*
X23634Y142939D01*
X23601Y142916D01*
X23525Y142824D01*
X23444Y142737D01*
X23424Y142702D01*
X23399Y142671D01*
X23348Y142563D01*
X23290Y142459D01*
X23280Y142419D01*
X23263Y142383D01*
X23241Y142266D01*
X23211Y142151D01*
X23207Y142091D01*
X23203Y142071D01*
X23205Y142050D01*
X23201Y141990D01*
X23201Y135259D01*
X12616Y135259D01*
X11969Y135432D01*
X11390Y135767D01*
X10917Y136240D01*
X10582Y136819D01*
X10409Y137466D01*
X10409Y148051D01*
X15130Y148051D01*
X15132Y148051D01*
X15134Y148051D01*
X15292Y148071D01*
X15446Y148091D01*
X15448Y148091D01*
X15450Y148092D01*
X15599Y148151D01*
X15741Y148208D01*
X15743Y148209D01*
X15745Y148209D01*
X15873Y148303D01*
X15999Y148394D01*
X16000Y148396D01*
X16002Y148397D01*
X16097Y148513D01*
X16202Y148639D01*
X16202Y148641D01*
X16204Y148643D01*
X16271Y148787D01*
X16337Y148927D01*
X16337Y148929D01*
X16338Y148931D01*
X16368Y149086D01*
X16397Y149239D01*
X16397Y149241D01*
X16397Y149243D01*
X16397Y149404D01*
X16356Y150010D01*
X16353Y150025D01*
X16354Y150040D01*
X16328Y150160D01*
X16331Y150216D01*
X16331Y150220D01*
X16332Y150224D01*
X16331Y150385D01*
X16330Y150406D01*
X16331Y150416D01*
X16335Y150430D01*
X16356Y150590D01*
X16397Y151196D01*
X16397Y151198D01*
X16397Y151200D01*
X16387Y151357D01*
X16378Y151513D01*
X16377Y151515D01*
X16377Y151517D01*
X16329Y151667D01*
X16281Y151816D01*
X16280Y151818D01*
X16279Y151819D01*
X16197Y151949D01*
X16111Y152085D01*
X16110Y152086D01*
X16109Y152088D01*
X15992Y152199D01*
X15881Y152304D01*
X15879Y152305D01*
X15877Y152306D01*
X15740Y152382D01*
X15602Y152458D01*
X15601Y152459D01*
X15599Y152460D01*
X15448Y152498D01*
X15295Y152539D01*
X15293Y152539D01*
X15291Y152539D01*
X15130Y152549D01*
X10409Y152549D01*
X10409Y163134D01*
X10582Y163781D01*
X10917Y164360D01*
X11390Y164833D01*
X11969Y165168D01*
X12616Y165341D01*
X23201Y165341D01*
X23201Y158610D01*
X23216Y158492D01*
X23223Y158373D01*
X23235Y158335D01*
X23241Y158294D01*
X23284Y158184D01*
X23321Y158071D01*
X23343Y158036D01*
X23358Y157999D01*
X23427Y157903D01*
X23491Y157802D01*
X23521Y157774D01*
X23544Y157741D01*
X23636Y157665D01*
X23723Y157584D01*
X23758Y157564D01*
X23789Y157539D01*
X23897Y157488D01*
X24001Y157430D01*
X24041Y157420D01*
X24077Y157403D01*
X24194Y157381D01*
X24309Y157351D01*
X24369Y157347D01*
X24389Y157343D01*
X24410Y157345D01*
X24470Y157341D01*
X26430Y157341D01*
X26548Y157356D01*
X26667Y157363D01*
X26705Y157376D01*
X26746Y157381D01*
X26856Y157424D01*
X26969Y157461D01*
X27004Y157483D01*
X27041Y157498D01*
X27137Y157567D01*
X27238Y157631D01*
X27266Y157661D01*
X27299Y157684D01*
X27375Y157776D01*
X27456Y157863D01*
X27476Y157898D01*
X27501Y157929D01*
X27552Y158037D01*
X27610Y158141D01*
X27620Y158181D01*
X27637Y158217D01*
X27659Y158334D01*
X27689Y158449D01*
X27693Y158509D01*
X27697Y158529D01*
X27695Y158550D01*
X27699Y158610D01*
X27699Y165341D01*
X38284Y165341D01*
X38931Y165168D01*
X39510Y164833D01*
X39983Y164360D01*
X40318Y163781D01*
X40491Y163134D01*
X40491Y152549D01*
X35760Y152549D01*
X35642Y152534D01*
X35523Y152527D01*
X35485Y152514D01*
X35444Y152509D01*
X35334Y152466D01*
X35221Y152429D01*
X35186Y152407D01*
X35149Y152392D01*
X35053Y152323D01*
X34952Y152259D01*
X34924Y152229D01*
X34891Y152206D01*
X34815Y152114D01*
X34734Y152027D01*
X34714Y151992D01*
X34689Y151961D01*
X34638Y151853D01*
X34580Y151749D01*
X34570Y151709D01*
X34553Y151673D01*
X34531Y151556D01*
X34501Y151441D01*
X34497Y151381D01*
X34493Y151361D01*
X34495Y151340D01*
X34491Y151280D01*
X34491Y149320D01*
X34506Y149202D01*
X34513Y149083D01*
X34526Y149045D01*
X34531Y149004D01*
X34574Y148894D01*
X34611Y148781D01*
X34633Y148746D01*
X34648Y148709D01*
X34717Y148612D01*
X34781Y148512D01*
X34811Y148484D01*
X34834Y148451D01*
X34926Y148375D01*
X35013Y148294D01*
X35048Y148274D01*
X35079Y148249D01*
X35187Y148198D01*
X35291Y148140D01*
X35331Y148130D01*
X35367Y148113D01*
X35484Y148091D01*
X35599Y148061D01*
X35659Y148057D01*
X35679Y148053D01*
X35700Y148055D01*
X35760Y148051D01*
X40491Y148051D01*
X40491Y140598D01*
X40497Y140549D01*
X40495Y140499D01*
X40517Y140392D01*
X40531Y140282D01*
X40549Y140236D01*
X40559Y140188D01*
X40607Y140089D01*
X40648Y139987D01*
X40677Y139947D01*
X40699Y139902D01*
X40770Y139818D01*
X40834Y139729D01*
X40873Y139698D01*
X40905Y139660D01*
X40995Y139597D01*
X41079Y139527D01*
X41124Y139505D01*
X41165Y139477D01*
X41268Y139438D01*
X41367Y139391D01*
X41416Y139382D01*
X41462Y139364D01*
X41572Y139352D01*
X41679Y139331D01*
X41729Y139334D01*
X41778Y139329D01*
X41887Y139344D01*
X41997Y139351D01*
X42044Y139366D01*
X42093Y139373D01*
X42246Y139425D01*
X43248Y139841D01*
X45154Y139841D01*
X45194Y139846D01*
X45233Y139843D01*
X45351Y139866D01*
X45470Y139881D01*
X45507Y139895D01*
X45546Y139903D01*
X45654Y139954D01*
X45765Y139998D01*
X45797Y140021D01*
X45833Y140038D01*
X45926Y140114D01*
X46023Y140184D01*
X46048Y140215D01*
X46079Y140240D01*
X46149Y140337D01*
X46225Y140429D01*
X46242Y140465D01*
X46266Y140498D01*
X46310Y140609D01*
X46361Y140717D01*
X46368Y140756D01*
X46383Y140793D01*
X46398Y140912D01*
X46421Y141029D01*
X46418Y141069D01*
X46423Y141109D01*
X46408Y141227D01*
X46401Y141347D01*
X46389Y141385D01*
X46384Y141424D01*
X46340Y141536D01*
X46303Y141649D01*
X46282Y141683D01*
X46267Y141720D01*
X46181Y141856D01*
X45683Y142541D01*
X45035Y143814D01*
X44593Y145174D01*
X44573Y145301D01*
X51451Y145301D01*
X51451Y138423D01*
X51286Y138449D01*
X51245Y138457D01*
X51159Y138483D01*
X51089Y138486D01*
X51020Y138500D01*
X50931Y138494D01*
X50841Y138498D01*
X50773Y138484D01*
X50703Y138480D01*
X50618Y138452D01*
X50530Y138434D01*
X50467Y138403D01*
X50400Y138382D01*
X50325Y138333D01*
X50244Y138294D01*
X50191Y138249D01*
X50132Y138211D01*
X50070Y138146D01*
X50002Y138088D01*
X49962Y138031D01*
X49914Y137980D01*
X49871Y137901D01*
X49819Y137828D01*
X49794Y137762D01*
X49761Y137701D01*
X49738Y137614D01*
X49706Y137530D01*
X49699Y137461D01*
X49681Y137393D01*
X49681Y137304D01*
X49671Y137214D01*
X49681Y137145D01*
X49681Y137075D01*
X49703Y136988D01*
X49716Y136899D01*
X49756Y136781D01*
X49760Y136767D01*
X49763Y136761D01*
X49768Y136747D01*
X50491Y135002D01*
X50491Y132598D01*
X49571Y130378D01*
X47872Y128679D01*
X45652Y127759D01*
X43248Y127759D01*
G37*
%LPD*%
%LPC*%
G36*
X479568Y187959D02*
X479568Y187959D01*
X473967Y190280D01*
X469680Y194567D01*
X467359Y200168D01*
X467359Y206232D01*
X469680Y211833D01*
X473967Y216120D01*
X479568Y218441D01*
X485632Y218441D01*
X491233Y216120D01*
X495520Y211833D01*
X497841Y206232D01*
X497841Y200168D01*
X495520Y194567D01*
X491233Y190280D01*
X485632Y187959D01*
X479568Y187959D01*
G37*
%LPD*%
%LPC*%
G36*
X479568Y10159D02*
X479568Y10159D01*
X473967Y12480D01*
X469680Y16767D01*
X467359Y22368D01*
X467359Y28432D01*
X469680Y34033D01*
X473967Y38320D01*
X479568Y40641D01*
X485632Y40641D01*
X491233Y38320D01*
X495520Y34033D01*
X497841Y28432D01*
X497841Y22368D01*
X495520Y16767D01*
X491233Y12480D01*
X485632Y10159D01*
X479568Y10159D01*
G37*
%LPD*%
%LPC*%
G36*
X44369Y149299D02*
X44369Y149299D01*
X44369Y161095D01*
X44593Y162506D01*
X45035Y163866D01*
X45683Y165139D01*
X46524Y166296D01*
X47534Y167306D01*
X48691Y168147D01*
X49964Y168795D01*
X51324Y169237D01*
X51451Y169257D01*
X51451Y149299D01*
X44369Y149299D01*
G37*
%LPD*%
%LPC*%
G36*
X51324Y59363D02*
X51324Y59363D01*
X49964Y59805D01*
X48691Y60453D01*
X47534Y61294D01*
X46524Y62304D01*
X45683Y63461D01*
X45035Y64734D01*
X44593Y66094D01*
X44369Y67505D01*
X44369Y79301D01*
X51451Y79301D01*
X51451Y59343D01*
X51324Y59363D01*
G37*
%LPD*%
%LPC*%
G36*
X142199Y15199D02*
X142199Y15199D01*
X142199Y23363D01*
X142258Y23354D01*
X143893Y22823D01*
X145425Y22042D01*
X146816Y21031D01*
X148031Y19816D01*
X149042Y18425D01*
X149823Y16893D01*
X150354Y15258D01*
X150363Y15199D01*
X142199Y15199D01*
G37*
%LPD*%
%LPC*%
G36*
X129037Y15199D02*
X129037Y15199D01*
X129046Y15258D01*
X129577Y16893D01*
X130358Y18425D01*
X131369Y19816D01*
X132584Y21031D01*
X133975Y22042D01*
X135507Y22823D01*
X137142Y23354D01*
X137201Y23363D01*
X137201Y15199D01*
X129037Y15199D01*
G37*
%LPD*%
D10*
X25400Y203200D03*
X25400Y25400D03*
D11*
X25450Y78300D03*
X25450Y150300D03*
D12*
X53450Y147300D02*
X53450Y160380D01*
X53450Y81300D02*
X53450Y68220D01*
D13*
X444500Y12700D03*
X419100Y12700D03*
X393700Y12700D03*
X368300Y12700D03*
X342900Y12700D03*
X317500Y12700D03*
X292100Y12700D03*
X266700Y12700D03*
X241300Y12700D03*
X215900Y12700D03*
X190500Y12700D03*
X165100Y12700D03*
X139700Y12700D03*
X114300Y12700D03*
X88900Y12700D03*
X63500Y12700D03*
X165100Y215900D03*
X190500Y215900D03*
X215900Y215900D03*
X241300Y215900D03*
X266700Y215900D03*
X292100Y215900D03*
X317500Y215900D03*
X342900Y215900D03*
X368300Y215900D03*
X393700Y215900D03*
X419100Y215900D03*
X444500Y215900D03*
D14*
X153670Y53340D03*
X179070Y53340D03*
D15*
X430530Y95250D03*
X407670Y95250D03*
X384810Y95250D03*
D16*
X24130Y114300D03*
X96520Y105410D03*
X90170Y189230D03*
X138430Y53340D03*
X92710Y72390D03*
X190500Y127000D03*
X181610Y184150D03*
X223520Y96520D03*
X241300Y114300D03*
X259080Y95250D03*
X233680Y78740D03*
X177800Y91440D03*
X83820Y156210D03*
X346710Y146050D03*
X452120Y143510D03*
X499110Y38100D03*
X313690Y162560D03*
X335280Y59690D03*
X290830Y95250D03*
D17*
X288290Y92710D01*
X288290Y36830D01*
X299720Y25400D01*
X330200Y25400D01*
X342900Y12700D01*
X299720Y95250D02*
X290830Y95250D01*
X299720Y95250D02*
X336550Y132080D01*
X360680Y132080D01*
D16*
X360680Y132080D03*
X306070Y114300D03*
D17*
X328930Y137160D01*
X350520Y137160D01*
X356870Y143510D01*
X394970Y143510D01*
D16*
X394970Y143510D03*
D17*
X411480Y143510D01*
X445770Y109220D01*
X445770Y67310D01*
X424180Y45720D01*
D16*
X424180Y45720D03*
X355600Y120650D03*
D17*
X327025Y92075D01*
X309245Y92075D01*
D16*
X309245Y92075D03*
X201930Y58420D03*
D17*
X208280Y64770D01*
X241300Y64770D01*
X252730Y53340D01*
X252730Y38100D01*
X264160Y26670D01*
X274320Y26670D01*
X288290Y12700D01*
X292100Y12700D01*
D16*
X262890Y173990D03*
D17*
X262890Y212090D01*
X266700Y215900D01*
D16*
X132080Y147320D03*
X222250Y34290D03*
X163830Y92710D03*
D18*
X214630Y57150D02*
X234990Y57150D01*
X241300Y50840D01*
X241300Y38100D01*
X237490Y34290D01*
X222250Y34290D01*
X224790Y147320D02*
X212090Y160020D01*
X224790Y147320D02*
X224790Y125730D01*
X224790Y115570D01*
X213360Y104140D01*
X200660Y104140D01*
X172720Y104140D01*
D16*
X292100Y146050D03*
D17*
X212090Y160020D02*
X210820Y160020D01*
D18*
X143510Y147320D02*
X132080Y147320D01*
D16*
X210820Y160020D03*
D18*
X156210Y160020D02*
X143510Y147320D01*
X156210Y160020D02*
X210820Y160020D01*
X172720Y104140D02*
X163830Y95250D01*
X163830Y92710D01*
D17*
X161290Y92710D01*
D18*
X224790Y125730D02*
X226060Y124460D01*
X270510Y124460D01*
X292100Y146050D01*
X200660Y104140D02*
X200660Y69850D01*
X191770Y60960D01*
X191770Y54610D01*
X196850Y49530D01*
X198120Y48260D01*
X205740Y48260D01*
X214630Y57150D01*
X115570Y39370D02*
X88900Y12700D01*
X115570Y39370D02*
X187960Y39370D01*
X196850Y48260D01*
X196850Y49530D01*
D16*
X95250Y119380D03*
X156210Y139700D03*
D18*
X102870Y127000D02*
X95250Y119380D01*
X102870Y127000D02*
X138430Y127000D01*
X151130Y139700D01*
X156210Y139700D01*
D16*
X144642Y184002D03*
X200660Y172720D03*
D18*
X155924Y172720D01*
X144642Y184002D01*
D17*
X114300Y17780D02*
X114300Y12700D01*
D16*
X229870Y46990D03*
D17*
X217170Y46990D01*
X203200Y33020D01*
X130810Y33020D01*
X114300Y16510D01*
X114300Y12700D01*
D16*
X44450Y219710D03*
D17*
X96520Y200660D02*
X220980Y200660D01*
X96520Y200660D02*
X77470Y219710D01*
X44450Y219710D01*
D16*
X266700Y153670D03*
D17*
X260350Y153670D01*
X220980Y200660D02*
X236220Y215900D01*
X241300Y215900D01*
X241300Y172720D02*
X260350Y153670D01*
X241300Y172720D02*
X241300Y215900D01*
D16*
X140970Y163830D03*
D17*
X130810Y175260D02*
X86360Y175260D01*
X63500Y152400D01*
X63500Y41910D01*
D16*
X76200Y29210D03*
D17*
X63500Y41910D01*
X140970Y165100D02*
X130810Y175260D01*
X140970Y165100D02*
X140970Y163830D01*
D16*
X223520Y161290D03*
D17*
X355600Y203200D02*
X400050Y203200D01*
X412750Y215900D01*
X419100Y215900D01*
X262890Y138430D02*
X248920Y138430D01*
X248920Y157480D01*
X240030Y166370D01*
X228600Y166370D01*
X223520Y161290D01*
X347980Y195580D02*
X355600Y203200D01*
X306070Y181610D02*
X262890Y138430D01*
X306070Y181610D02*
X337820Y181610D01*
X347980Y191770D01*
X347980Y195580D01*
D16*
X234950Y157480D03*
D17*
X358140Y198120D02*
X403860Y198120D01*
X409575Y203835D01*
X432435Y203835D01*
X444500Y215900D01*
X262890Y130810D02*
X246380Y130810D01*
X240030Y137160D01*
X353060Y193040D02*
X358140Y198120D01*
X240030Y152400D02*
X240030Y137160D01*
X240030Y152400D02*
X234950Y157480D01*
X262890Y130810D02*
X308610Y176530D01*
X340360Y176530D01*
X353060Y189230D01*
X353060Y193040D01*
X291465Y131445D02*
X275590Y115570D01*
D16*
X291465Y131445D03*
X275590Y53340D03*
D17*
X275590Y115570D01*
D16*
X279400Y205740D03*
D17*
X271780Y198120D01*
X271780Y193040D01*
X279400Y185420D01*
X287020Y185420D01*
X305435Y203835D01*
X324485Y203835D01*
X336550Y215900D01*
X342900Y215900D01*
D16*
X273050Y180340D03*
D17*
X360680Y215900D02*
X368300Y215900D01*
X306070Y196850D02*
X289560Y180340D01*
X273050Y180340D01*
X306070Y196850D02*
X326390Y196850D01*
X328930Y199390D01*
X344170Y199390D01*
X360680Y215900D01*
D16*
X289560Y118110D03*
X377190Y189230D03*
D17*
X304800Y133350D02*
X289560Y118110D01*
X304800Y133350D02*
X304800Y165100D01*
X311150Y171450D01*
X342900Y171450D01*
X360680Y189230D01*
X377190Y189230D01*
D16*
X297180Y69850D03*
D17*
X321310Y43180D02*
X309880Y31750D01*
X302260Y31750D01*
X295910Y38100D01*
X295910Y68580D01*
X297180Y69850D01*
X321310Y43180D02*
X388620Y43180D01*
X419100Y12700D01*
D16*
X325120Y34290D03*
D17*
X372110Y34290D01*
X393700Y12700D01*
D16*
X283210Y194310D03*
D17*
X288290Y194310D01*
X309880Y215900D01*
X317500Y215900D01*
D16*
X78740Y91440D03*
D17*
X81280Y88900D01*
X127000Y88900D01*
X173990Y135890D01*
X205740Y135890D02*
X212090Y142240D01*
D16*
X212090Y142240D03*
D17*
X205740Y135890D02*
X173990Y135890D01*
D16*
X78740Y104140D03*
D17*
X87630Y95250D01*
X125730Y95250D01*
X175260Y144780D01*
X200660Y144780D01*
D16*
X200660Y144780D03*
X92710Y57150D03*
X195580Y115570D03*
D17*
X100330Y64770D02*
X92710Y57150D01*
X137160Y64770D02*
X146050Y73660D01*
X146050Y91440D01*
X165100Y110490D01*
X190500Y110490D01*
X195580Y115570D01*
X137160Y64770D02*
X100330Y64770D01*
D16*
X190500Y82550D03*
D17*
X189230Y81280D01*
X173990Y81280D01*
X153670Y60960D01*
X153670Y53340D01*
D16*
X189230Y71120D03*
D17*
X190500Y71120D01*
X179070Y60960D02*
X179070Y53340D01*
X179070Y60960D02*
X189230Y71120D01*
D16*
X305730Y40640D03*
D17*
X379730Y129880D02*
X379730Y134620D01*
D16*
X379730Y134620D03*
D17*
X379730Y124460D01*
X370840Y115570D02*
X361950Y115570D01*
X370840Y115570D02*
X379730Y124460D01*
X361950Y115570D02*
X303530Y57150D01*
X303530Y46990D01*
X305730Y44790D01*
X305730Y40640D01*
D16*
X251460Y186690D03*
D17*
X251460Y171450D01*
X260350Y162560D01*
X279400Y162560D01*
X307340Y190500D01*
X334010Y190500D01*
D16*
X334010Y190500D03*
X407670Y87630D03*
D17*
X407670Y95250D01*
D16*
X312420Y50800D03*
D17*
X335280Y73660D01*
X335280Y81280D01*
X363220Y109220D01*
X405130Y109220D01*
X407670Y106680D01*
X407670Y95250D01*
D16*
X360680Y85090D03*
D17*
X356870Y85090D01*
X415290Y26670D01*
X430530Y26670D01*
X444500Y12700D01*
D16*
X391160Y87630D03*
D17*
X384810Y93980D01*
X384810Y95250D01*
D16*
X424180Y87630D03*
D17*
X424180Y88900D01*
X430530Y95250D01*
M02*
