M48
;GenerationSoftware,Autodesk,EAGLE,9.6.2*%
;CreationDate,2022-08-07T22:01:52Z*%
FMAT,2
ICI,OFF
METRIC,TZ,000.000
T4C0.394
T3C0.500
T2C0.900
T1C2.800
%
G90
M71
T1
X61500Y26500
X3500Y26500
X3500Y3500
X61500Y3500
T2
X54090Y27770
X56630Y25230
X28690Y27770
X56630Y27770
X8370Y25230
X8370Y27770
X10910Y25230
X10910Y27770
X13450Y25230
X13450Y27770
X15990Y25230
X15990Y27770
X18530Y25230
X18530Y27770
X21070Y25230
X21070Y27770
X23610Y25230
X23610Y27770
X26150Y25230
X26150Y27770
X28690Y25230
X31230Y25230
X31230Y27770
X33770Y25230
X33770Y27770
X36310Y25230
X36310Y27770
X38850Y25230
X38850Y27770
X41390Y25230
X41390Y27770
X43930Y25230
X43930Y27770
X46470Y25230
X46470Y27770
X49010Y25230
X49010Y27770
X51550Y25230
X51550Y27770
X54090Y25230
T3
X6604Y28956
X7874Y20574
T4
X15634Y18364
X18745Y18301
X21730Y18364
X31064Y21285
X27953Y21285
X24778Y21412
X21730Y21412
X18618Y21412
X15634Y21412
X12586Y21412
X10808Y21603
X28715Y22174
X55258Y6109
X52210Y6172
X49162Y6172
X46114Y6172
X43066Y6172
X40018Y6172
X36970Y6172
X2413Y19685
X55258Y9220
X52210Y9220
X49162Y9220
X46114Y9220
X43066Y9220
X40018Y9220
X34303Y6172
X1778Y18669
X33922Y9220
X36970Y9220
X55258Y12268
X52210Y12268
X49162Y12268
X46114Y12268
X43066Y12268
X2794Y7112
X40018Y12268
X33922Y12268
X36970Y12268
X55258Y15316
X46114Y15316
X49162Y15316
X52210Y15316
X15634Y9220
X33922Y15316
X36970Y15316
X40018Y15316
X49162Y18364
X52210Y18364
X55258Y18364
X43066Y15316
X2794Y9398
X40018Y18364
X33922Y18364
X36970Y18364
X55258Y21412
X52210Y21412
X46114Y18364
X43066Y18364
X2794Y10541
X40018Y21412
X36970Y21412
X33922Y21412
X49162Y21412
X46114Y21412
X43066Y21412
X2794Y11811
X52832Y22352
X58496Y21412
X34671Y22225
X8255Y7112
X35192Y3315
X36970Y3124
X40018Y3124
X43066Y3124
X46114Y3124
X49162Y3124
X52210Y3124
X889Y20447
X55245Y3175
X4953Y10160
X4826Y17526
X30683Y5093
X7239Y13208
X27635Y5093
X6985Y14224
X5207Y20955
X5969Y12319
X24524Y5093
X21476Y5093
X18428Y5093
X12332Y5093
X15380Y5093
X9220Y5093
X7112Y15367
X15634Y6172
X12586Y6172
X18872Y6172
X21730Y6172
X24778Y6172
X27826Y6172
X30620Y6299
X10300Y6426
X30175Y9093
X27826Y9220
X24778Y9220
X21730Y9220
X18682Y9220
X30556Y12268
X27826Y12268
X2921Y8255
X24778Y12268
X21730Y12268
X18618Y12268
X10300Y9601
X12586Y9220
X15634Y12268
X12586Y12268
X10300Y12649
X30175Y15189
X27826Y15316
X24778Y15316
X21730Y15316
X18618Y15316
X15634Y15316
X12586Y15316
X10300Y15824
X24778Y18364
X27826Y18364
X30175Y18237
X10300Y18745
X12586Y18364
X6731Y20828
M30