G04 EAGLE Gerber RS-274X export*
G75*
%MOMM*%
%FSLAX34Y34*%
%LPD*%
%INSolderpaste Top*%
%IPPOS*%
%AMOC8*
5,1,8,0,0,1.08239X$1,22.5*%
G01*
%ADD10R,1.300000X1.500000*%
%ADD11R,1.400000X1.000000*%
%ADD12R,1.500000X1.300000*%
%ADD13R,2.032000X0.660400*%
%ADD14R,0.660400X2.032000*%
%ADD15R,1.200000X0.550000*%
%ADD16R,1.200000X0.275000*%
%ADD17C,0.600000*%
%ADD18R,1.900000X1.400000*%
%ADD19R,1.400000X1.800000*%
%ADD20R,1.500000X0.700000*%
%ADD21R,1.000000X1.400000*%


D10*
X252120Y120650D03*
X271120Y120650D03*
X252120Y140970D03*
X271120Y140970D03*
X252120Y161290D03*
X271120Y161290D03*
X252120Y181610D03*
X271120Y181610D03*
D11*
X275160Y90170D03*
X253160Y80670D03*
X253160Y99670D03*
D12*
X231140Y80670D03*
X231140Y99670D03*
D13*
X37338Y365760D03*
X37338Y353060D03*
X37338Y340360D03*
X37338Y327660D03*
X37338Y314960D03*
X37338Y302260D03*
X37338Y289560D03*
X37338Y276860D03*
X137922Y276860D03*
X137922Y289560D03*
X137922Y302260D03*
X137922Y314960D03*
X137922Y327660D03*
X137922Y340360D03*
X137922Y353060D03*
X137922Y365760D03*
X37338Y264160D03*
X37338Y251460D03*
X137922Y264160D03*
X137922Y251460D03*
D14*
X288290Y457962D03*
X275590Y457962D03*
X262890Y457962D03*
X250190Y457962D03*
X237490Y457962D03*
X224790Y457962D03*
X212090Y457962D03*
X199390Y457962D03*
X199390Y357378D03*
X212090Y357378D03*
X224790Y357378D03*
X237490Y357378D03*
X250190Y357378D03*
X262890Y357378D03*
X275590Y357378D03*
X288290Y357378D03*
X186690Y457962D03*
X173990Y457962D03*
X186690Y357378D03*
X173990Y357378D03*
D15*
X508300Y79400D03*
X508300Y88900D03*
X508300Y98400D03*
X482300Y98400D03*
X482300Y79400D03*
D12*
X454660Y75590D03*
X454660Y94590D03*
D10*
X252120Y204470D03*
X271120Y204470D03*
D12*
X431800Y75590D03*
X431800Y94590D03*
X535940Y80670D03*
X535940Y99670D03*
D16*
X306310Y140390D03*
X306310Y145390D03*
X306310Y150390D03*
X306310Y155390D03*
X306310Y160390D03*
X306310Y165390D03*
X306310Y170390D03*
X306310Y175390D03*
X306310Y180390D03*
X306310Y185390D03*
X306310Y190390D03*
X306310Y195390D03*
X306310Y200390D03*
X306310Y205390D03*
X306310Y210390D03*
X306310Y215390D03*
X306310Y220390D03*
X306310Y225390D03*
X306310Y230390D03*
X306310Y235390D03*
X306310Y240390D03*
X306310Y245390D03*
X306310Y250390D03*
X306310Y255390D03*
X306310Y260390D03*
X306310Y265390D03*
X306310Y270390D03*
X306310Y275390D03*
X306310Y280390D03*
X306310Y285390D03*
X306310Y290390D03*
X306310Y295390D03*
X306310Y300390D03*
X306310Y305390D03*
X306310Y310390D03*
X306310Y315390D03*
X306310Y320390D03*
X306310Y325390D03*
X306310Y330390D03*
X306310Y335390D03*
X306310Y340390D03*
X306310Y345390D03*
X306310Y350390D03*
X306310Y355390D03*
X306310Y360390D03*
X306310Y365390D03*
X306310Y370390D03*
X306310Y375390D03*
X306310Y380390D03*
X306310Y385390D03*
D17*
X342310Y128390D02*
X342310Y110390D01*
X324310Y110390D01*
X324310Y128390D01*
X342310Y128390D01*
X342310Y116090D02*
X324310Y116090D01*
X324310Y121790D02*
X342310Y121790D01*
X342310Y127490D02*
X324310Y127490D01*
X342310Y397390D02*
X342310Y415390D01*
X342310Y397390D02*
X324310Y397390D01*
X324310Y415390D01*
X342310Y415390D01*
X342310Y403090D02*
X324310Y403090D01*
X324310Y408790D02*
X342310Y408790D01*
X342310Y414490D02*
X324310Y414490D01*
D18*
X34780Y208090D03*
X25780Y76090D03*
D19*
X165780Y192090D03*
X165780Y132090D03*
D20*
X63780Y199090D03*
X63780Y188090D03*
X59780Y177090D03*
X63780Y166090D03*
X59780Y155090D03*
X63780Y144090D03*
X67780Y133090D03*
X63780Y122090D03*
D10*
X528980Y452120D03*
X547980Y452120D03*
D21*
X406400Y443660D03*
X396900Y465660D03*
X415900Y465660D03*
D12*
X375920Y465430D03*
X375920Y446430D03*
D10*
X342290Y78740D03*
X361290Y78740D03*
X183540Y201930D03*
X202540Y201930D03*
X183540Y180340D03*
X202540Y180340D03*
X202540Y125730D03*
X183540Y125730D03*
X202540Y146050D03*
X183540Y146050D03*
D12*
X440690Y447700D03*
X440690Y466700D03*
D10*
X88240Y227330D03*
X69240Y227330D03*
M02*
