G04 EAGLE Gerber RS-274X export*
G75*
%MOMM*%
%FSLAX34Y34*%
%LPD*%
%INSoldermask Bottom*%
%IPPOS*%
%AMOC8*
5,1,8,0,0,1.08239X$1,22.5*%
G01*
%ADD10C,3.301600*%
%ADD11P,1.924489X8X22.500000*%
%ADD12P,2.034460X8X22.500000*%
%ADD13R,1.879600X1.879600*%
%ADD14P,2.034460X8X292.500000*%
%ADD15C,1.879600*%
%ADD16P,2.034460X8X112.500000*%
%ADD17C,1.625600*%
%ADD18C,2.032000*%
%ADD19C,2.286000*%


D10*
X152400Y508000D03*
X139700Y25400D03*
X660400Y355600D03*
D11*
X533400Y508000D03*
X508000Y25400D03*
X558800Y508000D03*
X584200Y508000D03*
X609600Y508000D03*
X635000Y508000D03*
X508000Y508000D03*
X482600Y508000D03*
X457200Y508000D03*
X416560Y508000D03*
X391160Y508000D03*
X365760Y508000D03*
X340360Y508000D03*
X314960Y508000D03*
X289560Y508000D03*
X264160Y508000D03*
X238760Y508000D03*
X533400Y25400D03*
X558800Y25400D03*
X584200Y25400D03*
X609600Y25400D03*
X635000Y25400D03*
X457200Y25400D03*
X431800Y25400D03*
X406400Y25400D03*
X381000Y25400D03*
X355600Y25400D03*
X330200Y25400D03*
X213360Y508000D03*
X187960Y508000D03*
X304800Y25400D03*
X279400Y25400D03*
D12*
X661670Y279400D03*
X636270Y279400D03*
D13*
X636270Y304800D03*
D12*
X661670Y304800D03*
X661670Y254000D03*
X636270Y254000D03*
D14*
X457200Y63500D03*
X431800Y63500D03*
X406400Y63500D03*
X381000Y63500D03*
X355600Y63500D03*
X330200Y63500D03*
X304800Y63500D03*
X279400Y63500D03*
D15*
X187960Y469900D03*
X213360Y469900D03*
X238760Y469900D03*
X264160Y469900D03*
X289560Y469900D03*
X314960Y469900D03*
X340360Y469900D03*
X365760Y469900D03*
X391160Y469900D03*
X416560Y469900D03*
D16*
X457200Y469900D03*
X482600Y469900D03*
X508000Y469900D03*
X533400Y469900D03*
X558800Y469900D03*
X584200Y469900D03*
X609600Y469900D03*
X635000Y469900D03*
D14*
X635000Y63500D03*
X609600Y63500D03*
X584200Y63500D03*
X558800Y63500D03*
X533400Y63500D03*
X508000Y63500D03*
D17*
X99822Y473964D02*
X84582Y473964D01*
X84582Y519176D02*
X99822Y519176D01*
X34798Y473964D02*
X19558Y473964D01*
X19558Y519176D02*
X34798Y519176D01*
D15*
X469900Y279400D03*
X469900Y254000D03*
X444500Y279400D03*
X444500Y254000D03*
X419100Y279400D03*
X419100Y254000D03*
X393700Y279400D03*
X393700Y254000D03*
X368300Y279400D03*
X368300Y254000D03*
X342900Y279400D03*
X342900Y254000D03*
X317500Y279400D03*
X317500Y254000D03*
X292100Y279400D03*
X292100Y254000D03*
D18*
X292100Y368300D03*
X317500Y368300D03*
X342900Y368300D03*
X368300Y368300D03*
X393700Y368300D03*
X419100Y368300D03*
X444500Y368300D03*
X469900Y368300D03*
X469900Y165100D03*
X444500Y165100D03*
X419100Y165100D03*
X393700Y165100D03*
X368300Y165100D03*
X342900Y165100D03*
X317500Y165100D03*
X292100Y165100D03*
D19*
X62992Y259080D02*
X41148Y259080D01*
X41148Y208280D02*
X62992Y208280D01*
M02*
