G04 EAGLE Gerber RS-274X export*
G75*
%MOMM*%
%FSLAX34Y34*%
%LPD*%
%INSilkscreen Bottom*%
%IPPOS*%
%AMOC8*
5,1,8,0,0,1.08239X$1,22.5*%
G01*
%ADD10C,0.254000*%
%ADD11C,0.127000*%
%ADD12C,0.203200*%
%ADD13C,0.304800*%
%ADD14R,0.022863X0.462278*%
%ADD15R,0.022863X0.462281*%
%ADD16R,0.022863X0.436881*%
%ADD17R,0.023113X0.462278*%
%ADD18R,0.023113X0.462281*%
%ADD19R,0.023113X0.436881*%
%ADD20R,0.023116X0.462278*%
%ADD21R,0.023116X0.462281*%
%ADD22R,0.023116X0.436881*%
%ADD23R,0.023113X0.022863*%
%ADD24R,0.023116X0.091441*%
%ADD25R,0.023113X0.139700*%
%ADD26R,0.023116X0.185419*%
%ADD27R,0.023113X0.254000*%
%ADD28R,0.023113X0.299719*%
%ADD29R,0.023116X0.345438*%
%ADD30R,0.023113X0.391159*%
%ADD31R,0.023116X0.393700*%
%ADD32R,0.022863X0.325119*%
%ADD33R,0.022863X0.599438*%
%ADD34R,0.022863X0.622300*%
%ADD35R,0.022863X0.530859*%
%ADD36R,0.022863X0.439422*%
%ADD37R,0.022863X0.231138*%
%ADD38R,0.022863X0.071119*%
%ADD39R,0.022863X0.533400*%
%ADD40R,0.022863X0.208281*%
%ADD41R,0.023113X0.345441*%
%ADD42R,0.023113X0.576578*%
%ADD43R,0.023113X0.599438*%
%ADD44R,0.023113X0.508000*%
%ADD45R,0.023113X0.416563*%
%ADD46R,0.023113X0.208278*%
%ADD47R,0.023113X0.553722*%
%ADD48R,0.023113X0.208281*%
%ADD49R,0.023116X0.345441*%
%ADD50R,0.023116X0.530859*%
%ADD51R,0.023116X0.370841*%
%ADD52R,0.023116X0.162559*%
%ADD53R,0.023116X0.576581*%
%ADD54R,0.023116X0.208281*%
%ADD55R,0.023113X0.322578*%
%ADD56R,0.023113X0.485137*%
%ADD57R,0.023113X0.416559*%
%ADD58R,0.023113X0.347981*%
%ADD59R,0.023113X0.116838*%
%ADD60R,0.023113X0.647700*%
%ADD61R,0.023116X0.322581*%
%ADD62R,0.023116X0.485137*%
%ADD63R,0.023116X0.093978*%
%ADD64R,0.023116X0.231141*%
%ADD65R,0.023116X0.693419*%
%ADD66R,0.023113X0.322581*%
%ADD67R,0.023113X0.439419*%
%ADD68R,0.023113X0.370841*%
%ADD69R,0.023113X0.299722*%
%ADD70R,0.023113X0.045719*%
%ADD71R,0.023113X0.739138*%
%ADD72R,0.023113X0.414019*%
%ADD73R,0.023113X0.347978*%
%ADD74R,0.023113X0.762000*%
%ADD75R,0.023116X0.414019*%
%ADD76R,0.023116X0.182881*%
%ADD77R,0.023116X0.347978*%
%ADD78R,0.023116X0.276863*%
%ADD79R,0.023116X0.116841*%
%ADD80R,0.023116X0.276859*%
%ADD81R,0.023116X0.784863*%
%ADD82R,0.023113X0.325119*%
%ADD83R,0.023113X0.276863*%
%ADD84R,0.023113X0.276859*%
%ADD85R,0.023116X0.325119*%
%ADD86R,0.023116X0.391159*%
%ADD87R,0.023116X0.302259*%
%ADD88R,0.023116X0.254000*%
%ADD89R,0.023113X0.302259*%
%ADD90R,0.023113X0.393700*%
%ADD91R,0.023113X0.231141*%
%ADD92R,0.022863X0.302259*%
%ADD93R,0.022863X0.439419*%
%ADD94R,0.022863X0.368300*%
%ADD95R,0.022863X0.391159*%
%ADD96R,0.022863X0.416559*%
%ADD97R,0.022863X0.276863*%
%ADD98R,0.022863X0.205741*%
%ADD99R,0.023113X0.368300*%
%ADD100R,0.023113X0.205741*%
%ADD101R,0.023116X0.368300*%
%ADD102R,0.023116X0.205741*%
%ADD103R,0.023113X0.182881*%
%ADD104R,0.022863X0.276859*%
%ADD105R,0.022863X0.182881*%
%ADD106R,0.023113X0.924559*%
%ADD107R,0.023116X0.924559*%
%ADD108R,0.023113X0.901700*%
%ADD109R,0.023116X0.901700*%
%ADD110R,0.023113X0.878841*%
%ADD111R,0.023116X0.855981*%
%ADD112R,0.023113X0.833119*%
%ADD113R,0.022863X0.787400*%
%ADD114R,0.022863X0.414019*%
%ADD115R,0.022863X0.924559*%
%ADD116R,0.023113X0.739141*%
%ADD117R,0.023116X0.716281*%
%ADD118R,0.023116X0.299722*%
%ADD119R,0.023113X0.670559*%
%ADD120R,0.023116X0.647700*%
%ADD121R,0.023116X0.508000*%
%ADD122R,0.023116X0.299719*%
%ADD123R,0.023113X0.601981*%
%ADD124R,0.023113X0.530859*%
%ADD125R,0.023113X0.231138*%
%ADD126R,0.023113X0.556259*%
%ADD127R,0.023113X0.185419*%
%ADD128R,0.023116X0.533400*%
%ADD129R,0.023116X0.599438*%
%ADD130R,0.023116X0.416563*%
%ADD131R,0.023116X0.116838*%
%ADD132R,0.023113X0.485141*%
%ADD133R,0.023113X0.645159*%
%ADD134R,0.023113X0.716278*%
%ADD135R,0.022863X0.393700*%
%ADD136R,0.022863X0.762000*%
%ADD137R,0.022863X0.624841*%
%ADD138R,0.023113X0.784859*%
%ADD139R,0.023113X0.693422*%
%ADD140R,0.023116X0.830578*%
%ADD141R,0.023116X0.739141*%
%ADD142R,0.023113X0.876300*%
%ADD143R,0.023113X0.807722*%
%ADD144R,0.023116X0.899159*%
%ADD145R,0.023116X0.878841*%
%ADD146R,0.023113X0.922019*%
%ADD147R,0.023113X0.947419*%
%ADD148R,0.023116X0.970278*%
%ADD149R,0.023113X0.970278*%
%ADD150R,0.023116X0.439419*%
%ADD151R,0.022863X0.299722*%
%ADD152R,0.023116X0.416559*%
%ADD153R,0.023116X0.347981*%
%ADD154R,0.023113X0.137159*%
%ADD155R,0.023113X0.093978*%
%ADD156R,0.023113X0.091441*%
%ADD157R,0.023113X0.093981*%
%ADD158R,0.023113X0.114300*%
%ADD159R,0.023116X0.045719*%
%ADD160R,0.023116X0.045722*%
%ADD161R,0.023113X0.071119*%
%ADD162R,0.023113X0.116841*%
%ADD163R,0.023116X0.139700*%
%ADD164R,0.022863X0.322581*%
%ADD165R,0.022863X0.345441*%
%ADD166R,0.022863X0.162559*%
%ADD167R,0.022863X0.576581*%
%ADD168R,0.023113X0.668019*%
%ADD169R,0.023113X0.533400*%
%ADD170R,0.023116X1.455419*%
%ADD171R,0.023116X5.519419*%
%ADD172R,0.023113X1.455419*%
%ADD173R,0.023113X5.519419*%
%ADD174R,0.023116X5.494019*%
%ADD175R,0.023113X1.430019*%
%ADD176R,0.023113X5.494019*%
%ADD177R,0.023116X1.430019*%
%ADD178R,0.023116X5.471159*%
%ADD179R,0.023116X0.762000*%
%ADD180R,0.023113X1.407159*%
%ADD181R,0.023113X5.471159*%
%ADD182R,0.022863X1.384300*%
%ADD183R,0.022863X5.448300*%
%ADD184R,0.022863X0.716278*%
%ADD185R,0.022863X0.878841*%
%ADD186R,0.023113X1.361438*%
%ADD187R,0.023113X5.425438*%
%ADD188R,0.023116X1.338578*%
%ADD189R,0.023116X5.402578*%
%ADD190R,0.023116X0.624841*%
%ADD191R,0.023113X1.292859*%
%ADD192R,0.023113X5.356859*%
%ADD193R,0.023116X1.224278*%
%ADD194R,0.023116X5.288278*%
%ADD195C,0.152400*%


D10*
X194140Y123837D02*
X194140Y109855D01*
X184819Y109855D01*
X171947Y123837D02*
X169616Y121507D01*
X171947Y123837D02*
X176607Y123837D01*
X178938Y121507D01*
X178938Y112185D01*
X176607Y109855D01*
X171947Y109855D01*
X169616Y112185D01*
X163735Y123837D02*
X154414Y123837D01*
X154414Y121507D01*
X163735Y112185D01*
X163735Y109855D01*
X148533Y112185D02*
X148533Y121507D01*
X146203Y123837D01*
X141542Y123837D01*
X139212Y121507D01*
X139212Y112185D01*
X141542Y109855D01*
X146203Y109855D01*
X148533Y112185D01*
X139212Y121507D01*
X133331Y112185D02*
X131001Y109855D01*
X126340Y109855D01*
X124010Y112185D01*
X124010Y121507D01*
X126340Y123837D01*
X131001Y123837D01*
X133331Y121507D01*
X133331Y119176D01*
X131001Y116846D01*
X124010Y116846D01*
X118129Y109855D02*
X108808Y109855D01*
X118129Y109855D02*
X108808Y119176D01*
X108808Y121507D01*
X111138Y123837D01*
X115799Y123837D01*
X118129Y121507D01*
X102927Y121507D02*
X102927Y112185D01*
X102927Y121507D02*
X100596Y123837D01*
X95936Y123837D01*
X93605Y121507D01*
X93605Y112185D01*
X95936Y109855D01*
X100596Y109855D01*
X102927Y112185D01*
X93605Y121507D01*
X87725Y121507D02*
X85394Y123837D01*
X80734Y123837D01*
X78403Y121507D01*
X78403Y119176D01*
X80734Y116846D01*
X83064Y116846D01*
X80734Y116846D02*
X78403Y114516D01*
X78403Y112185D01*
X80734Y109855D01*
X85394Y109855D01*
X87725Y112185D01*
X72522Y109855D02*
X72522Y123837D01*
X63201Y123837D01*
X67862Y116846D02*
X72522Y116846D01*
D11*
X206664Y13343D02*
X206664Y7411D01*
X203698Y4445D01*
X200732Y7411D01*
X200732Y13343D01*
X197309Y13343D02*
X197309Y4445D01*
X191377Y4445D01*
X186470Y4445D02*
X183505Y4445D01*
X182022Y5928D01*
X182022Y8894D01*
X183505Y10377D01*
X186470Y10377D01*
X187953Y8894D01*
X187953Y5928D01*
X186470Y4445D01*
X175632Y1479D02*
X174149Y1479D01*
X172666Y2962D01*
X172666Y10377D01*
X177115Y10377D01*
X178598Y8894D01*
X178598Y5928D01*
X177115Y4445D01*
X172666Y4445D01*
X169243Y10377D02*
X167760Y10377D01*
X167760Y4445D01*
X169243Y4445D02*
X166277Y4445D01*
X167760Y13343D02*
X167760Y14826D01*
X161523Y10377D02*
X157075Y10377D01*
X161523Y10377D02*
X163006Y8894D01*
X163006Y5928D01*
X161523Y4445D01*
X157075Y4445D01*
X153651Y4445D02*
X147719Y13343D01*
X144296Y13343D02*
X144296Y7411D01*
X141330Y4445D01*
X138364Y7411D01*
X138364Y13343D01*
X133458Y10377D02*
X129009Y10377D01*
X133458Y10377D02*
X134941Y8894D01*
X134941Y5928D01*
X133458Y4445D01*
X129009Y4445D01*
X124103Y10377D02*
X119654Y10377D01*
X124103Y10377D02*
X125585Y8894D01*
X125585Y5928D01*
X124103Y4445D01*
X119654Y4445D01*
X116230Y10377D02*
X114747Y10377D01*
X114747Y8894D01*
X116230Y8894D01*
X116230Y10377D01*
X116230Y5928D02*
X114747Y5928D01*
X114747Y4445D01*
X116230Y4445D01*
X116230Y5928D01*
X102198Y11860D02*
X100715Y13343D01*
X97749Y13343D01*
X96266Y11860D01*
X96266Y10377D01*
X97749Y8894D01*
X99232Y8894D01*
X97749Y8894D02*
X96266Y7411D01*
X96266Y5928D01*
X97749Y4445D01*
X100715Y4445D01*
X102198Y5928D01*
X92842Y8894D02*
X86911Y8894D01*
X83487Y13343D02*
X77555Y13343D01*
X83487Y13343D02*
X83487Y8894D01*
X80521Y10377D01*
X79038Y10377D01*
X77555Y8894D01*
X77555Y5928D01*
X79038Y4445D01*
X82004Y4445D01*
X83487Y5928D01*
X74132Y7411D02*
X74132Y13343D01*
X74132Y7411D02*
X71166Y4445D01*
X68200Y7411D01*
X68200Y13343D01*
X64777Y13343D02*
X64777Y4445D01*
X60328Y4445D01*
X58845Y5928D01*
X58845Y11860D01*
X60328Y13343D01*
X64777Y13343D01*
X50973Y13343D02*
X49490Y11860D01*
X50973Y13343D02*
X53939Y13343D01*
X55422Y11860D01*
X55422Y5928D01*
X53939Y4445D01*
X50973Y4445D01*
X49490Y5928D01*
X206664Y93345D02*
X206664Y102243D01*
X206664Y93345D02*
X200732Y93345D01*
X197309Y99277D02*
X195826Y99277D01*
X195826Y93345D01*
X197309Y93345D02*
X194343Y93345D01*
X195826Y102243D02*
X195826Y103726D01*
X191072Y99277D02*
X191072Y90379D01*
X191072Y99277D02*
X186623Y99277D01*
X185140Y97794D01*
X185140Y94828D01*
X186623Y93345D01*
X191072Y93345D01*
X180234Y93345D02*
X177268Y93345D01*
X175785Y94828D01*
X175785Y97794D01*
X177268Y99277D01*
X180234Y99277D01*
X181717Y97794D01*
X181717Y94828D01*
X180234Y93345D01*
X172361Y102243D02*
X170879Y102243D01*
X170879Y93345D01*
X172361Y93345D02*
X169396Y93345D01*
X166125Y94828D02*
X166125Y99277D01*
X166125Y94828D02*
X164642Y93345D01*
X160193Y93345D01*
X160193Y91862D02*
X160193Y99277D01*
X160193Y91862D02*
X161676Y90379D01*
X163159Y90379D01*
X147414Y93345D02*
X147414Y102243D01*
X142965Y102243D01*
X141483Y100760D01*
X141483Y99277D01*
X142965Y97794D01*
X141483Y96311D01*
X141483Y94828D01*
X142965Y93345D01*
X147414Y93345D01*
X147414Y97794D02*
X142965Y97794D01*
X136576Y99277D02*
X133610Y99277D01*
X132127Y97794D01*
X132127Y93345D01*
X136576Y93345D01*
X138059Y94828D01*
X136576Y96311D01*
X132127Y96311D01*
X127221Y94828D02*
X127221Y100760D01*
X127221Y94828D02*
X125738Y93345D01*
X125738Y99277D02*
X128704Y99277D01*
X120984Y100760D02*
X120984Y94828D01*
X119501Y93345D01*
X119501Y99277D02*
X122467Y99277D01*
X114747Y93345D02*
X111782Y93345D01*
X114747Y93345D02*
X116230Y94828D01*
X116230Y97794D01*
X114747Y99277D01*
X111782Y99277D01*
X110299Y97794D01*
X110299Y96311D01*
X116230Y96311D01*
X106875Y93345D02*
X106875Y99277D01*
X106875Y96311D02*
X103909Y99277D01*
X102426Y99277D01*
X99079Y99277D02*
X99079Y94828D01*
X97596Y93345D01*
X93147Y93345D01*
X93147Y91862D02*
X93147Y99277D01*
X93147Y91862D02*
X94630Y90379D01*
X96113Y90379D01*
X80369Y93345D02*
X80369Y102243D01*
X74437Y102243D01*
X77403Y97794D02*
X80369Y97794D01*
X71014Y99277D02*
X71014Y94828D01*
X69531Y93345D01*
X65082Y93345D01*
X65082Y99277D01*
X60176Y93345D02*
X57210Y93345D01*
X60176Y93345D02*
X61658Y94828D01*
X61658Y97794D01*
X60176Y99277D01*
X57210Y99277D01*
X55727Y97794D01*
X55727Y96311D01*
X61658Y96311D01*
X52303Y102243D02*
X50820Y102243D01*
X50820Y93345D01*
X52303Y93345D02*
X49337Y93345D01*
X209308Y85520D02*
X210791Y87003D01*
X213756Y87003D01*
X215239Y85520D01*
X215239Y79588D01*
X213756Y78105D01*
X210791Y78105D01*
X209308Y79588D01*
X209308Y82554D01*
X212274Y82554D01*
X204401Y84037D02*
X201435Y84037D01*
X199952Y82554D01*
X199952Y78105D01*
X204401Y78105D01*
X205884Y79588D01*
X204401Y81071D01*
X199952Y81071D01*
X196529Y79588D02*
X196529Y84037D01*
X196529Y79588D02*
X195046Y78105D01*
X190597Y78105D01*
X190597Y84037D01*
X184208Y75139D02*
X182725Y75139D01*
X181242Y76622D01*
X181242Y84037D01*
X185691Y84037D01*
X187174Y82554D01*
X187174Y79588D01*
X185691Y78105D01*
X181242Y78105D01*
X176336Y78105D02*
X173370Y78105D01*
X176336Y78105D02*
X177819Y79588D01*
X177819Y82554D01*
X176336Y84037D01*
X173370Y84037D01*
X171887Y82554D01*
X171887Y81071D01*
X177819Y81071D01*
X159108Y79588D02*
X159108Y84037D01*
X159108Y79588D02*
X157625Y78105D01*
X156142Y79588D01*
X154659Y78105D01*
X153177Y79588D01*
X153177Y84037D01*
X149753Y84037D02*
X148270Y84037D01*
X148270Y78105D01*
X149753Y78105D02*
X146787Y78105D01*
X148270Y87003D02*
X148270Y88486D01*
X142033Y85520D02*
X142033Y79588D01*
X140550Y78105D01*
X140550Y84037D02*
X143516Y84037D01*
X137279Y87003D02*
X137279Y78105D01*
X137279Y82554D02*
X135797Y84037D01*
X132831Y84037D01*
X131348Y82554D01*
X131348Y78105D01*
X126441Y78105D02*
X123476Y78105D01*
X121993Y79588D01*
X121993Y82554D01*
X123476Y84037D01*
X126441Y84037D01*
X127924Y82554D01*
X127924Y79588D01*
X126441Y78105D01*
X118569Y79588D02*
X118569Y84037D01*
X118569Y79588D02*
X117086Y78105D01*
X112637Y78105D01*
X112637Y84037D01*
X107731Y85520D02*
X107731Y79588D01*
X106248Y78105D01*
X106248Y84037D02*
X109214Y84037D01*
X93622Y87003D02*
X93622Y78105D01*
X93622Y87003D02*
X89173Y87003D01*
X87690Y85520D01*
X87690Y82554D01*
X89173Y81071D01*
X93622Y81071D01*
X90656Y81071D02*
X87690Y78105D01*
X84267Y78105D02*
X79818Y78105D01*
X78335Y79588D01*
X79818Y81071D01*
X82784Y81071D01*
X84267Y82554D01*
X82784Y84037D01*
X78335Y84037D01*
X73429Y78105D02*
X70463Y78105D01*
X73429Y78105D02*
X74912Y79588D01*
X74912Y82554D01*
X73429Y84037D01*
X70463Y84037D01*
X68980Y82554D01*
X68980Y81071D01*
X74912Y81071D01*
X65556Y78105D02*
X65556Y84037D01*
X61108Y84037D01*
X59625Y82554D01*
X59625Y78105D01*
X56201Y78105D02*
X51752Y78105D01*
X50269Y79588D01*
X51752Y81071D01*
X54718Y81071D01*
X56201Y82554D01*
X54718Y84037D01*
X50269Y84037D01*
X45363Y78105D02*
X42397Y78105D01*
X45363Y78105D02*
X46846Y79588D01*
X46846Y82554D01*
X45363Y84037D01*
X42397Y84037D01*
X40914Y82554D01*
X40914Y81071D01*
X46846Y81071D01*
X185691Y68797D02*
X187174Y68797D01*
X185691Y68797D02*
X185691Y62865D01*
X187174Y62865D02*
X184208Y62865D01*
X185691Y71763D02*
X185691Y73246D01*
X180937Y62865D02*
X175005Y62865D01*
X180937Y62865D02*
X175005Y68797D01*
X175005Y70280D01*
X176488Y71763D01*
X179454Y71763D01*
X180937Y70280D01*
X170099Y68797D02*
X165650Y68797D01*
X170099Y68797D02*
X171582Y67314D01*
X171582Y64348D01*
X170099Y62865D01*
X165650Y62865D01*
X151389Y68797D02*
X148423Y68797D01*
X146940Y67314D01*
X146940Y62865D01*
X151389Y62865D01*
X152871Y64348D01*
X151389Y65831D01*
X146940Y65831D01*
X137585Y62865D02*
X137585Y71763D01*
X137585Y62865D02*
X142033Y62865D01*
X143516Y64348D01*
X143516Y67314D01*
X142033Y68797D01*
X137585Y68797D01*
X128229Y71763D02*
X128229Y62865D01*
X132678Y62865D01*
X134161Y64348D01*
X134161Y67314D01*
X132678Y68797D01*
X128229Y68797D01*
X124806Y68797D02*
X124806Y62865D01*
X124806Y65831D02*
X121840Y68797D01*
X120357Y68797D01*
X117010Y68797D02*
X115527Y68797D01*
X115527Y67314D01*
X117010Y67314D01*
X117010Y68797D01*
X117010Y64348D02*
X115527Y64348D01*
X115527Y62865D01*
X117010Y62865D01*
X117010Y64348D01*
X102977Y64348D02*
X102977Y70280D01*
X101494Y71763D01*
X98528Y71763D01*
X97045Y70280D01*
X97045Y64348D01*
X98528Y62865D01*
X101494Y62865D01*
X102977Y64348D01*
X97045Y70280D01*
X93622Y68797D02*
X87690Y62865D01*
X93622Y62865D02*
X87690Y68797D01*
X84267Y70280D02*
X84267Y64348D01*
X84267Y70280D02*
X82784Y71763D01*
X79818Y71763D01*
X78335Y70280D01*
X78335Y64348D01*
X79818Y62865D01*
X82784Y62865D01*
X84267Y64348D01*
X78335Y70280D01*
X74912Y71763D02*
X74912Y62865D01*
X74912Y71763D02*
X70463Y71763D01*
X68980Y70280D01*
X68980Y68797D01*
X70463Y67314D01*
X68980Y65831D01*
X68980Y64348D01*
X70463Y62865D01*
X74912Y62865D01*
X74912Y67314D02*
X70463Y67314D01*
X61603Y135192D02*
X52705Y135192D01*
X52705Y141124D01*
X61603Y144547D02*
X61603Y150479D01*
X61603Y144547D02*
X52705Y144547D01*
X52705Y150479D01*
X57154Y147513D02*
X57154Y144547D01*
X61603Y153903D02*
X52705Y153903D01*
X52705Y158351D01*
X54188Y159834D01*
X60120Y159834D01*
X61603Y158351D01*
X61603Y153903D01*
D12*
X201698Y197748D02*
X208816Y197748D01*
X208816Y187071D01*
X201698Y187071D01*
X205257Y192410D02*
X208816Y192410D01*
X197122Y194189D02*
X195343Y194189D01*
X195343Y187071D01*
X197122Y187071D02*
X193563Y187071D01*
X195343Y197748D02*
X195343Y199528D01*
X187547Y195969D02*
X187547Y188851D01*
X185767Y187071D01*
X185767Y194189D02*
X189327Y194189D01*
X181531Y197748D02*
X181531Y187071D01*
X181531Y192410D02*
X179751Y194189D01*
X176192Y194189D01*
X174412Y192410D01*
X174412Y187071D01*
X168057Y187071D02*
X164498Y187071D01*
X168057Y187071D02*
X169837Y188851D01*
X169837Y192410D01*
X168057Y194189D01*
X164498Y194189D01*
X162719Y192410D01*
X162719Y190630D01*
X169837Y190630D01*
X158143Y187071D02*
X158143Y194189D01*
X158143Y190630D02*
X154584Y194189D01*
X152804Y194189D01*
X136704Y188851D02*
X134924Y187071D01*
X133145Y187071D01*
X131365Y188851D01*
X131365Y197748D01*
X129586Y197748D02*
X133145Y197748D01*
X119671Y197748D02*
X117892Y195969D01*
X119671Y197748D02*
X123230Y197748D01*
X125010Y195969D01*
X125010Y194189D01*
X123230Y192410D01*
X119671Y192410D01*
X117892Y190630D01*
X117892Y188851D01*
X119671Y187071D01*
X123230Y187071D01*
X125010Y188851D01*
X109757Y187071D02*
X109757Y197748D01*
X113316Y197748D02*
X106198Y197748D01*
X89928Y187071D02*
X82810Y187071D01*
X89928Y187071D02*
X82810Y194189D01*
X82810Y195969D01*
X84589Y197748D01*
X88148Y197748D01*
X89928Y195969D01*
X66540Y197748D02*
X66540Y187071D01*
X66540Y197748D02*
X61201Y197748D01*
X59422Y195969D01*
X59422Y192410D01*
X61201Y190630D01*
X66540Y190630D01*
X54846Y187071D02*
X54846Y197748D01*
X54846Y192410D02*
X47728Y192410D01*
X47728Y197748D02*
X47728Y187071D01*
X193394Y176919D02*
X193394Y168021D01*
X193394Y176919D02*
X191614Y178698D01*
X191614Y173360D02*
X195173Y173360D01*
X185598Y168021D02*
X182039Y168021D01*
X180259Y169801D01*
X180259Y173360D01*
X182039Y175139D01*
X185598Y175139D01*
X187378Y173360D01*
X187378Y169801D01*
X185598Y168021D01*
X175684Y168021D02*
X175684Y175139D01*
X175684Y171580D02*
X172125Y175139D01*
X170345Y175139D01*
X154245Y178698D02*
X154245Y168021D01*
X154245Y178698D02*
X148906Y178698D01*
X147127Y176919D01*
X147127Y175139D01*
X148906Y173360D01*
X147127Y171580D01*
X147127Y169801D01*
X148906Y168021D01*
X154245Y168021D01*
X154245Y173360D02*
X148906Y173360D01*
X140771Y175139D02*
X137212Y175139D01*
X135433Y173360D01*
X135433Y168021D01*
X140771Y168021D01*
X142551Y169801D01*
X140771Y171580D01*
X135433Y171580D01*
X129077Y169801D02*
X129077Y176919D01*
X129077Y169801D02*
X127298Y168021D01*
X127298Y175139D02*
X130857Y175139D01*
X121281Y176919D02*
X121281Y169801D01*
X119502Y168021D01*
X119502Y175139D02*
X123061Y175139D01*
X115265Y168021D02*
X108147Y178698D01*
X103571Y178698D02*
X103571Y168021D01*
X96453Y168021D01*
X90097Y168021D02*
X86538Y168021D01*
X84759Y169801D01*
X84759Y173360D01*
X86538Y175139D01*
X90097Y175139D01*
X91877Y173360D01*
X91877Y169801D01*
X90097Y168021D01*
X78403Y175139D02*
X74844Y175139D01*
X73065Y173360D01*
X73065Y168021D01*
X78403Y168021D01*
X80183Y169801D01*
X78403Y171580D01*
X73065Y171580D01*
X61371Y168021D02*
X61371Y178698D01*
X61371Y168021D02*
X66709Y168021D01*
X68489Y169801D01*
X68489Y173360D01*
X66709Y175139D01*
X61371Y175139D01*
D13*
X31660Y58420D02*
X31663Y58640D01*
X31671Y58861D01*
X31684Y59081D01*
X31703Y59300D01*
X31728Y59519D01*
X31757Y59738D01*
X31792Y59955D01*
X31833Y60172D01*
X31878Y60388D01*
X31929Y60602D01*
X31985Y60815D01*
X32047Y61027D01*
X32113Y61237D01*
X32185Y61445D01*
X32262Y61652D01*
X32344Y61856D01*
X32430Y62059D01*
X32522Y62259D01*
X32619Y62458D01*
X32720Y62653D01*
X32827Y62846D01*
X32938Y63037D01*
X33053Y63224D01*
X33173Y63409D01*
X33298Y63591D01*
X33427Y63769D01*
X33561Y63945D01*
X33698Y64117D01*
X33840Y64285D01*
X33986Y64451D01*
X34136Y64612D01*
X34290Y64770D01*
X34448Y64924D01*
X34609Y65074D01*
X34775Y65220D01*
X34943Y65362D01*
X35115Y65499D01*
X35291Y65633D01*
X35469Y65762D01*
X35651Y65887D01*
X35836Y66007D01*
X36023Y66122D01*
X36214Y66233D01*
X36407Y66340D01*
X36602Y66441D01*
X36801Y66538D01*
X37001Y66630D01*
X37204Y66716D01*
X37408Y66798D01*
X37615Y66875D01*
X37823Y66947D01*
X38033Y67013D01*
X38245Y67075D01*
X38458Y67131D01*
X38672Y67182D01*
X38888Y67227D01*
X39105Y67268D01*
X39322Y67303D01*
X39541Y67332D01*
X39760Y67357D01*
X39979Y67376D01*
X40199Y67389D01*
X40420Y67397D01*
X40640Y67400D01*
X40860Y67397D01*
X41081Y67389D01*
X41301Y67376D01*
X41520Y67357D01*
X41739Y67332D01*
X41958Y67303D01*
X42175Y67268D01*
X42392Y67227D01*
X42608Y67182D01*
X42822Y67131D01*
X43035Y67075D01*
X43247Y67013D01*
X43457Y66947D01*
X43665Y66875D01*
X43872Y66798D01*
X44076Y66716D01*
X44279Y66630D01*
X44479Y66538D01*
X44678Y66441D01*
X44873Y66340D01*
X45066Y66233D01*
X45257Y66122D01*
X45444Y66007D01*
X45629Y65887D01*
X45811Y65762D01*
X45989Y65633D01*
X46165Y65499D01*
X46337Y65362D01*
X46505Y65220D01*
X46671Y65074D01*
X46832Y64924D01*
X46990Y64770D01*
X47144Y64612D01*
X47294Y64451D01*
X47440Y64285D01*
X47582Y64117D01*
X47719Y63945D01*
X47853Y63769D01*
X47982Y63591D01*
X48107Y63409D01*
X48227Y63224D01*
X48342Y63037D01*
X48453Y62846D01*
X48560Y62653D01*
X48661Y62458D01*
X48758Y62259D01*
X48850Y62059D01*
X48936Y61856D01*
X49018Y61652D01*
X49095Y61445D01*
X49167Y61237D01*
X49233Y61027D01*
X49295Y60815D01*
X49351Y60602D01*
X49402Y60388D01*
X49447Y60172D01*
X49488Y59955D01*
X49523Y59738D01*
X49552Y59519D01*
X49577Y59300D01*
X49596Y59081D01*
X49609Y58861D01*
X49617Y58640D01*
X49620Y58420D01*
X49617Y58200D01*
X49609Y57979D01*
X49596Y57759D01*
X49577Y57540D01*
X49552Y57321D01*
X49523Y57102D01*
X49488Y56885D01*
X49447Y56668D01*
X49402Y56452D01*
X49351Y56238D01*
X49295Y56025D01*
X49233Y55813D01*
X49167Y55603D01*
X49095Y55395D01*
X49018Y55188D01*
X48936Y54984D01*
X48850Y54781D01*
X48758Y54581D01*
X48661Y54382D01*
X48560Y54187D01*
X48453Y53994D01*
X48342Y53803D01*
X48227Y53616D01*
X48107Y53431D01*
X47982Y53249D01*
X47853Y53071D01*
X47719Y52895D01*
X47582Y52723D01*
X47440Y52555D01*
X47294Y52389D01*
X47144Y52228D01*
X46990Y52070D01*
X46832Y51916D01*
X46671Y51766D01*
X46505Y51620D01*
X46337Y51478D01*
X46165Y51341D01*
X45989Y51207D01*
X45811Y51078D01*
X45629Y50953D01*
X45444Y50833D01*
X45257Y50718D01*
X45066Y50607D01*
X44873Y50500D01*
X44678Y50399D01*
X44479Y50302D01*
X44279Y50210D01*
X44076Y50124D01*
X43872Y50042D01*
X43665Y49965D01*
X43457Y49893D01*
X43247Y49827D01*
X43035Y49765D01*
X42822Y49709D01*
X42608Y49658D01*
X42392Y49613D01*
X42175Y49572D01*
X41958Y49537D01*
X41739Y49508D01*
X41520Y49483D01*
X41301Y49464D01*
X41081Y49451D01*
X40860Y49443D01*
X40640Y49440D01*
X40420Y49443D01*
X40199Y49451D01*
X39979Y49464D01*
X39760Y49483D01*
X39541Y49508D01*
X39322Y49537D01*
X39105Y49572D01*
X38888Y49613D01*
X38672Y49658D01*
X38458Y49709D01*
X38245Y49765D01*
X38033Y49827D01*
X37823Y49893D01*
X37615Y49965D01*
X37408Y50042D01*
X37204Y50124D01*
X37001Y50210D01*
X36801Y50302D01*
X36602Y50399D01*
X36407Y50500D01*
X36214Y50607D01*
X36023Y50718D01*
X35836Y50833D01*
X35651Y50953D01*
X35469Y51078D01*
X35291Y51207D01*
X35115Y51341D01*
X34943Y51478D01*
X34775Y51620D01*
X34609Y51766D01*
X34448Y51916D01*
X34290Y52070D01*
X34136Y52228D01*
X33986Y52389D01*
X33840Y52555D01*
X33698Y52723D01*
X33561Y52895D01*
X33427Y53071D01*
X33298Y53249D01*
X33173Y53431D01*
X33053Y53616D01*
X32938Y53803D01*
X32827Y53994D01*
X32720Y54187D01*
X32619Y54382D01*
X32522Y54581D01*
X32430Y54781D01*
X32344Y54984D01*
X32262Y55188D01*
X32185Y55395D01*
X32113Y55603D01*
X32047Y55813D01*
X31985Y56025D01*
X31929Y56238D01*
X31878Y56452D01*
X31833Y56668D01*
X31792Y56885D01*
X31757Y57102D01*
X31728Y57321D01*
X31703Y57540D01*
X31684Y57759D01*
X31671Y57979D01*
X31663Y58200D01*
X31660Y58420D01*
D12*
X43180Y59779D02*
X43180Y54356D01*
X43180Y59779D02*
X40468Y62491D01*
X37757Y59779D01*
X37757Y54356D01*
X37757Y58423D02*
X43180Y58423D01*
D14*
X224790Y79197D03*
D15*
X224790Y85446D03*
X224790Y91669D03*
D16*
X224790Y98019D03*
D17*
X225020Y79197D03*
D18*
X225020Y85446D03*
X225020Y91669D03*
D19*
X225020Y98019D03*
D20*
X225251Y79197D03*
D21*
X225251Y85446D03*
X225251Y91669D03*
D22*
X225251Y98019D03*
D17*
X225482Y79197D03*
D18*
X225482Y85446D03*
X225482Y91669D03*
D19*
X225482Y98019D03*
D20*
X225713Y79197D03*
D21*
X225713Y85446D03*
X225713Y91669D03*
D22*
X225713Y98019D03*
D17*
X225944Y79197D03*
D18*
X225944Y85446D03*
X225944Y91669D03*
D19*
X225944Y98019D03*
D17*
X226176Y79197D03*
D18*
X226176Y85446D03*
X226176Y91669D03*
D19*
X226176Y98019D03*
D20*
X226407Y79197D03*
D21*
X226407Y85446D03*
X226407Y91669D03*
D22*
X226407Y98019D03*
D17*
X226638Y79197D03*
D18*
X226638Y85446D03*
X226638Y91669D03*
D19*
X226638Y98019D03*
D20*
X226869Y79197D03*
D21*
X226869Y85446D03*
X226869Y91669D03*
D22*
X226869Y98019D03*
D17*
X227100Y79197D03*
D18*
X227100Y85446D03*
X227100Y91669D03*
D19*
X227100Y98019D03*
D14*
X227330Y79197D03*
D15*
X227330Y85446D03*
X227330Y91669D03*
D16*
X227330Y98019D03*
D17*
X227560Y79197D03*
D18*
X227560Y85446D03*
X227560Y91669D03*
D19*
X227560Y98019D03*
D23*
X227560Y126429D03*
D20*
X227791Y79197D03*
D21*
X227791Y85446D03*
X227791Y91669D03*
D22*
X227791Y98019D03*
D24*
X227791Y126314D03*
D17*
X228022Y79197D03*
D18*
X228022Y85446D03*
X228022Y91669D03*
D19*
X228022Y98019D03*
D25*
X228022Y126073D03*
D20*
X228253Y79197D03*
D21*
X228253Y85446D03*
X228253Y91669D03*
D22*
X228253Y98019D03*
D26*
X228253Y126073D03*
D17*
X228484Y79197D03*
D18*
X228484Y85446D03*
X228484Y91669D03*
D19*
X228484Y98019D03*
D27*
X228484Y125959D03*
D17*
X228716Y79197D03*
D18*
X228716Y85446D03*
X228716Y91669D03*
D19*
X228716Y98019D03*
D28*
X228716Y125730D03*
D20*
X228947Y79197D03*
D21*
X228947Y85446D03*
X228947Y91669D03*
D22*
X228947Y98019D03*
D29*
X228947Y125730D03*
D30*
X229178Y125501D03*
D31*
X229409Y125032D03*
D17*
X229640Y124003D03*
D32*
X229870Y48031D03*
D33*
X229870Y55880D03*
D34*
X229870Y63614D03*
D35*
X229870Y72631D03*
D14*
X229870Y79197D03*
D15*
X229870Y85446D03*
X229870Y91669D03*
D16*
X229870Y98019D03*
D36*
X229870Y104254D03*
D37*
X229870Y109919D03*
D38*
X229870Y113030D03*
D39*
X229870Y123190D03*
D40*
X229870Y132436D03*
D41*
X230100Y47676D03*
D42*
X230100Y55994D03*
D43*
X230100Y63500D03*
D44*
X230100Y72746D03*
D17*
X230100Y79197D03*
D18*
X230100Y85446D03*
X230100Y91669D03*
D19*
X230100Y98019D03*
D45*
X230100Y104140D03*
D46*
X230100Y110033D03*
D25*
X230100Y113373D03*
D47*
X230100Y122606D03*
D48*
X230100Y132436D03*
D49*
X230331Y47219D03*
D50*
X230331Y56223D03*
X230331Y63157D03*
D20*
X230331Y72974D03*
X230331Y79197D03*
D21*
X230331Y85446D03*
X230331Y91669D03*
D22*
X230331Y98019D03*
D51*
X230331Y103911D03*
D52*
X230331Y110261D03*
D26*
X230331Y113602D03*
D53*
X230331Y122492D03*
D54*
X230331Y132436D03*
D55*
X230562Y46876D03*
D56*
X230562Y56452D03*
D44*
X230562Y63043D03*
D57*
X230562Y73203D03*
D17*
X230562Y79197D03*
D18*
X230562Y85446D03*
X230562Y91669D03*
D19*
X230562Y98019D03*
D58*
X230562Y103797D03*
D59*
X230562Y110490D03*
D46*
X230562Y113716D03*
D60*
X230562Y122619D03*
D48*
X230562Y132436D03*
D61*
X230793Y46647D03*
D20*
X230793Y56566D03*
D62*
X230793Y62929D03*
D31*
X230793Y73317D03*
D20*
X230793Y79197D03*
D21*
X230793Y85446D03*
X230793Y91669D03*
D22*
X230793Y98019D03*
D61*
X230793Y103670D03*
D63*
X230793Y110604D03*
D64*
X230793Y113830D03*
D65*
X230793Y122619D03*
D54*
X230793Y132436D03*
D66*
X231024Y46419D03*
D67*
X231024Y56680D03*
D17*
X231024Y62814D03*
D68*
X231024Y73431D03*
D17*
X231024Y79197D03*
D18*
X231024Y85446D03*
X231024Y91669D03*
D19*
X231024Y98019D03*
D69*
X231024Y103556D03*
D70*
X231024Y110846D03*
D27*
X231024Y113944D03*
D71*
X231024Y122619D03*
D48*
X231024Y132436D03*
D66*
X231256Y46190D03*
D72*
X231256Y56807D03*
D67*
X231256Y62700D03*
D73*
X231256Y73546D03*
D17*
X231256Y79197D03*
D18*
X231256Y85446D03*
X231256Y91669D03*
D19*
X231256Y98019D03*
D69*
X231256Y103556D03*
D27*
X231256Y113944D03*
D74*
X231256Y122504D03*
D48*
X231256Y132436D03*
D61*
X231487Y46190D03*
D64*
X231487Y51270D03*
D75*
X231487Y56807D03*
X231487Y62573D03*
D76*
X231487Y68351D03*
D77*
X231487Y73546D03*
D20*
X231487Y79197D03*
D21*
X231487Y85446D03*
X231487Y91669D03*
D22*
X231487Y98019D03*
D78*
X231487Y103442D03*
D79*
X231487Y108179D03*
D80*
X231487Y114059D03*
D81*
X231487Y122619D03*
D54*
X231487Y132436D03*
D82*
X231718Y45949D03*
D66*
X231718Y51270D03*
D30*
X231718Y56921D03*
D72*
X231718Y62573D03*
D82*
X231718Y68351D03*
X231718Y73660D03*
D17*
X231718Y79197D03*
D18*
X231718Y85446D03*
X231718Y91669D03*
D19*
X231718Y98019D03*
D83*
X231718Y103442D03*
D84*
X231718Y108293D03*
X231718Y114059D03*
D83*
X231718Y120079D03*
D84*
X231718Y125387D03*
D48*
X231718Y132436D03*
D85*
X231949Y45949D03*
D51*
X231949Y51257D03*
D86*
X231949Y56921D03*
D75*
X231949Y62573D03*
D51*
X231949Y68351D03*
D85*
X231949Y73660D03*
D20*
X231949Y79197D03*
D21*
X231949Y85446D03*
X231949Y91669D03*
D22*
X231949Y98019D03*
D78*
X231949Y103442D03*
D49*
X231949Y108407D03*
D87*
X231949Y114186D03*
D88*
X231949Y119736D03*
D64*
X231949Y125616D03*
D54*
X231949Y132436D03*
D82*
X232180Y45949D03*
D57*
X232180Y51257D03*
D30*
X232180Y56921D03*
X232180Y62459D03*
D57*
X232180Y68351D03*
D89*
X232180Y73774D03*
D17*
X232180Y79197D03*
D18*
X232180Y85446D03*
X232180Y91669D03*
D19*
X232180Y98019D03*
D83*
X232180Y103442D03*
D90*
X232180Y108649D03*
D89*
X232180Y114186D03*
D91*
X232180Y119621D03*
D48*
X232180Y125730D03*
X232180Y132436D03*
D92*
X232410Y45834D03*
D93*
X232410Y51143D03*
D94*
X232410Y57036D03*
D95*
X232410Y62459D03*
D96*
X232410Y68351D03*
D92*
X232410Y73774D03*
D14*
X232410Y79197D03*
D15*
X232410Y85446D03*
X232410Y91669D03*
D16*
X232410Y98019D03*
D97*
X232410Y103442D03*
D93*
X232410Y108649D03*
D92*
X232410Y114186D03*
D98*
X232410Y119494D03*
D40*
X232410Y125730D03*
X232410Y132436D03*
D89*
X232640Y45834D03*
D17*
X232640Y51257D03*
D99*
X232640Y57036D03*
D30*
X232640Y62459D03*
D18*
X232640Y68351D03*
D89*
X232640Y73774D03*
D17*
X232640Y79197D03*
D18*
X232640Y85446D03*
X232640Y91669D03*
D19*
X232640Y98019D03*
D83*
X232640Y103442D03*
D17*
X232640Y108763D03*
D89*
X232640Y114186D03*
D100*
X232640Y119494D03*
D48*
X232640Y125959D03*
X232640Y132436D03*
D87*
X232871Y45834D03*
D20*
X232871Y51257D03*
D101*
X232871Y57036D03*
D86*
X232871Y62459D03*
D21*
X232871Y68351D03*
D87*
X232871Y73774D03*
D20*
X232871Y79197D03*
D21*
X232871Y85446D03*
X232871Y91669D03*
D22*
X232871Y98019D03*
D78*
X232871Y103442D03*
D20*
X232871Y108763D03*
D87*
X232871Y114186D03*
D102*
X232871Y119494D03*
D54*
X232871Y125959D03*
X232871Y132436D03*
D89*
X233102Y45834D03*
D17*
X233102Y51257D03*
D99*
X233102Y57036D03*
X233102Y62344D03*
D18*
X233102Y68351D03*
D89*
X233102Y73774D03*
D17*
X233102Y79197D03*
D18*
X233102Y85446D03*
X233102Y91669D03*
D19*
X233102Y98019D03*
D83*
X233102Y103442D03*
D17*
X233102Y108763D03*
D89*
X233102Y114186D03*
D100*
X233102Y119494D03*
D48*
X233102Y125959D03*
X233102Y132436D03*
D87*
X233333Y45834D03*
D20*
X233333Y51257D03*
D101*
X233333Y57036D03*
X233333Y62344D03*
D21*
X233333Y68351D03*
D87*
X233333Y73774D03*
D20*
X233333Y79197D03*
D21*
X233333Y85446D03*
X233333Y91669D03*
D22*
X233333Y98019D03*
D78*
X233333Y103442D03*
D20*
X233333Y108763D03*
D87*
X233333Y114186D03*
D76*
X233333Y119380D03*
D54*
X233333Y125959D03*
X233333Y132436D03*
D89*
X233564Y45834D03*
D17*
X233564Y51257D03*
D99*
X233564Y57036D03*
X233564Y62344D03*
D18*
X233564Y68351D03*
D89*
X233564Y73774D03*
D17*
X233564Y79197D03*
D18*
X233564Y85446D03*
X233564Y91669D03*
D19*
X233564Y98019D03*
D83*
X233564Y103442D03*
D17*
X233564Y108763D03*
D89*
X233564Y114186D03*
D103*
X233564Y119380D03*
D48*
X233564Y125959D03*
X233564Y132436D03*
D89*
X233796Y45834D03*
D17*
X233796Y51257D03*
D99*
X233796Y57036D03*
X233796Y62344D03*
D18*
X233796Y68351D03*
D84*
X233796Y73901D03*
D17*
X233796Y79197D03*
D18*
X233796Y85446D03*
X233796Y91669D03*
D19*
X233796Y98019D03*
D83*
X233796Y103442D03*
D17*
X233796Y108763D03*
D89*
X233796Y114186D03*
D103*
X233796Y119380D03*
D48*
X233796Y125959D03*
X233796Y132436D03*
D87*
X234027Y45834D03*
D20*
X234027Y51257D03*
D101*
X234027Y57036D03*
X234027Y62344D03*
D21*
X234027Y68351D03*
D80*
X234027Y73901D03*
D20*
X234027Y79197D03*
D21*
X234027Y85446D03*
X234027Y91669D03*
D22*
X234027Y98019D03*
D78*
X234027Y103442D03*
D20*
X234027Y108763D03*
D87*
X234027Y114186D03*
D76*
X234027Y119380D03*
D54*
X234027Y125959D03*
X234027Y132436D03*
D89*
X234258Y45834D03*
D17*
X234258Y51257D03*
D99*
X234258Y57036D03*
X234258Y62344D03*
D18*
X234258Y68351D03*
D84*
X234258Y73901D03*
D17*
X234258Y79197D03*
D18*
X234258Y85446D03*
X234258Y91669D03*
D19*
X234258Y98019D03*
D83*
X234258Y103442D03*
D17*
X234258Y108763D03*
D89*
X234258Y114186D03*
D103*
X234258Y119380D03*
D48*
X234258Y125959D03*
X234258Y132436D03*
D87*
X234489Y45834D03*
D20*
X234489Y51257D03*
D101*
X234489Y57036D03*
X234489Y62344D03*
D21*
X234489Y68351D03*
D80*
X234489Y73901D03*
D20*
X234489Y79197D03*
D21*
X234489Y85446D03*
X234489Y91669D03*
D22*
X234489Y98019D03*
D78*
X234489Y103442D03*
D20*
X234489Y108763D03*
D87*
X234489Y114186D03*
D76*
X234489Y119380D03*
D54*
X234489Y125959D03*
X234489Y132436D03*
D89*
X234720Y45834D03*
D17*
X234720Y51257D03*
D99*
X234720Y57036D03*
X234720Y62344D03*
D18*
X234720Y68351D03*
D84*
X234720Y73901D03*
D17*
X234720Y79197D03*
D18*
X234720Y85446D03*
X234720Y91669D03*
D19*
X234720Y98019D03*
D83*
X234720Y103442D03*
D17*
X234720Y108763D03*
D89*
X234720Y114186D03*
D103*
X234720Y119380D03*
D48*
X234720Y125959D03*
X234720Y132436D03*
D92*
X234950Y45834D03*
D14*
X234950Y51257D03*
D94*
X234950Y57036D03*
X234950Y62344D03*
D15*
X234950Y68351D03*
D104*
X234950Y73901D03*
D14*
X234950Y79197D03*
D15*
X234950Y85446D03*
X234950Y91669D03*
D16*
X234950Y98019D03*
D97*
X234950Y103442D03*
D14*
X234950Y108763D03*
D92*
X234950Y114186D03*
D105*
X234950Y119380D03*
D40*
X234950Y125959D03*
X234950Y132436D03*
D89*
X235180Y45834D03*
D17*
X235180Y51257D03*
D99*
X235180Y57036D03*
X235180Y62344D03*
D18*
X235180Y68351D03*
D84*
X235180Y73901D03*
D17*
X235180Y79197D03*
D18*
X235180Y85446D03*
X235180Y91669D03*
D19*
X235180Y98019D03*
D83*
X235180Y103442D03*
D17*
X235180Y108763D03*
D89*
X235180Y114186D03*
D103*
X235180Y119380D03*
D48*
X235180Y125959D03*
X235180Y132436D03*
D87*
X235411Y45834D03*
D20*
X235411Y51257D03*
D101*
X235411Y57036D03*
X235411Y62344D03*
D21*
X235411Y68351D03*
D80*
X235411Y73901D03*
D20*
X235411Y79197D03*
D21*
X235411Y85446D03*
X235411Y91669D03*
D22*
X235411Y98019D03*
D78*
X235411Y103442D03*
D20*
X235411Y108763D03*
D87*
X235411Y114186D03*
D76*
X235411Y119380D03*
D54*
X235411Y125959D03*
X235411Y132436D03*
D89*
X235642Y45834D03*
D17*
X235642Y51257D03*
D99*
X235642Y57036D03*
X235642Y62344D03*
D106*
X235642Y70663D03*
D17*
X235642Y79197D03*
D18*
X235642Y85446D03*
X235642Y91669D03*
D19*
X235642Y98019D03*
D83*
X235642Y103442D03*
D17*
X235642Y108763D03*
D89*
X235642Y114186D03*
D103*
X235642Y119380D03*
D48*
X235642Y125959D03*
X235642Y132436D03*
D87*
X235873Y45834D03*
D20*
X235873Y51257D03*
D101*
X235873Y57036D03*
X235873Y62344D03*
D107*
X235873Y70663D03*
D20*
X235873Y79197D03*
D21*
X235873Y85446D03*
X235873Y91669D03*
D22*
X235873Y98019D03*
D78*
X235873Y103442D03*
D20*
X235873Y108763D03*
D87*
X235873Y114186D03*
D76*
X235873Y119380D03*
D54*
X235873Y125959D03*
X235873Y132436D03*
D89*
X236104Y45834D03*
D67*
X236104Y51143D03*
D99*
X236104Y57036D03*
X236104Y62344D03*
D106*
X236104Y70663D03*
D17*
X236104Y79197D03*
D18*
X236104Y85446D03*
X236104Y91669D03*
D19*
X236104Y98019D03*
D83*
X236104Y103442D03*
D17*
X236104Y108763D03*
D89*
X236104Y114186D03*
D103*
X236104Y119380D03*
D48*
X236104Y125959D03*
X236104Y132436D03*
D108*
X236336Y48832D03*
D99*
X236336Y57036D03*
X236336Y62344D03*
D106*
X236336Y70663D03*
D17*
X236336Y79197D03*
D18*
X236336Y85446D03*
X236336Y91669D03*
D19*
X236336Y98019D03*
D83*
X236336Y103442D03*
D17*
X236336Y108763D03*
D89*
X236336Y114186D03*
D103*
X236336Y119380D03*
D48*
X236336Y125959D03*
X236336Y132436D03*
D109*
X236567Y48832D03*
D101*
X236567Y57036D03*
X236567Y62344D03*
D107*
X236567Y70663D03*
D20*
X236567Y79197D03*
D21*
X236567Y85446D03*
X236567Y91669D03*
D22*
X236567Y98019D03*
D78*
X236567Y103442D03*
D20*
X236567Y108763D03*
D87*
X236567Y114186D03*
D76*
X236567Y119380D03*
D54*
X236567Y125959D03*
X236567Y132436D03*
D110*
X236798Y48717D03*
D30*
X236798Y56921D03*
D99*
X236798Y62344D03*
D106*
X236798Y70663D03*
D17*
X236798Y79197D03*
D18*
X236798Y85446D03*
X236798Y91669D03*
D19*
X236798Y98019D03*
D83*
X236798Y103442D03*
D17*
X236798Y108763D03*
D89*
X236798Y114186D03*
D103*
X236798Y119380D03*
D48*
X236798Y125959D03*
X236798Y132436D03*
D111*
X237029Y48603D03*
D86*
X237029Y56921D03*
D101*
X237029Y62344D03*
D107*
X237029Y70663D03*
D20*
X237029Y79197D03*
D21*
X237029Y85446D03*
X237029Y91669D03*
D22*
X237029Y98019D03*
D78*
X237029Y103442D03*
D20*
X237029Y108763D03*
D87*
X237029Y114186D03*
D76*
X237029Y119380D03*
D54*
X237029Y125959D03*
X237029Y132436D03*
D112*
X237260Y48489D03*
D72*
X237260Y56807D03*
D99*
X237260Y62344D03*
D106*
X237260Y70663D03*
D17*
X237260Y79197D03*
D18*
X237260Y85446D03*
X237260Y91669D03*
D19*
X237260Y98019D03*
D83*
X237260Y103442D03*
D67*
X237260Y108877D03*
D89*
X237260Y114186D03*
D103*
X237260Y119380D03*
D48*
X237260Y125959D03*
X237260Y132436D03*
D113*
X237490Y48260D03*
D114*
X237490Y56807D03*
D94*
X237490Y62344D03*
D115*
X237490Y70663D03*
D14*
X237490Y79197D03*
D15*
X237490Y85446D03*
X237490Y91669D03*
D16*
X237490Y98019D03*
D97*
X237490Y103442D03*
D93*
X237490Y108877D03*
D92*
X237490Y114186D03*
D105*
X237490Y119380D03*
D40*
X237490Y125959D03*
X237490Y132436D03*
D116*
X237720Y48019D03*
D67*
X237720Y56680D03*
D99*
X237720Y62344D03*
D106*
X237720Y70663D03*
D17*
X237720Y79197D03*
D18*
X237720Y85446D03*
X237720Y91669D03*
D19*
X237720Y98019D03*
D69*
X237720Y103556D03*
D57*
X237720Y108991D03*
D89*
X237720Y114186D03*
D103*
X237720Y119380D03*
D48*
X237720Y125959D03*
X237720Y132436D03*
D117*
X237951Y47904D03*
D20*
X237951Y56566D03*
D101*
X237951Y62344D03*
D107*
X237951Y70663D03*
D20*
X237951Y79197D03*
D21*
X237951Y85446D03*
X237951Y91669D03*
D22*
X237951Y98019D03*
D118*
X237951Y103556D03*
D31*
X237951Y109106D03*
D87*
X237951Y114186D03*
D76*
X237951Y119380D03*
D54*
X237951Y125959D03*
X237951Y132436D03*
D119*
X238182Y47676D03*
D56*
X238182Y56452D03*
D99*
X238182Y62344D03*
D106*
X238182Y70663D03*
D17*
X238182Y79197D03*
D18*
X238182Y85446D03*
X238182Y91669D03*
D19*
X238182Y98019D03*
D66*
X238182Y103670D03*
D73*
X238182Y109334D03*
D89*
X238182Y114186D03*
D103*
X238182Y119380D03*
D48*
X238182Y125959D03*
X238182Y132436D03*
D120*
X238413Y47562D03*
D121*
X238413Y56337D03*
D101*
X238413Y62344D03*
D80*
X238413Y73901D03*
D20*
X238413Y79197D03*
D21*
X238413Y85446D03*
X238413Y91669D03*
D22*
X238413Y98019D03*
D61*
X238413Y103670D03*
D122*
X238413Y109576D03*
D87*
X238413Y114186D03*
D76*
X238413Y119380D03*
D54*
X238413Y125959D03*
X238413Y132436D03*
D123*
X238644Y47333D03*
D124*
X238644Y56223D03*
D99*
X238644Y62344D03*
D84*
X238644Y73901D03*
D17*
X238644Y79197D03*
D18*
X238644Y85446D03*
X238644Y91669D03*
D19*
X238644Y98019D03*
D58*
X238644Y103797D03*
D125*
X238644Y109919D03*
D89*
X238644Y114186D03*
D103*
X238644Y119380D03*
D48*
X238644Y125959D03*
X238644Y132436D03*
D126*
X238876Y47104D03*
D42*
X238876Y55994D03*
D99*
X238876Y62344D03*
D84*
X238876Y73901D03*
D17*
X238876Y79197D03*
D18*
X238876Y85446D03*
X238876Y91669D03*
D19*
X238876Y98019D03*
D68*
X238876Y103911D03*
D127*
X238876Y110147D03*
D89*
X238876Y114186D03*
D103*
X238876Y119380D03*
D48*
X238876Y125959D03*
X238876Y132436D03*
D128*
X239107Y46990D03*
D129*
X239107Y55880D03*
D101*
X239107Y62344D03*
D80*
X239107Y73901D03*
D20*
X239107Y79197D03*
D21*
X239107Y85446D03*
X239107Y91669D03*
D22*
X239107Y98019D03*
D130*
X239107Y104140D03*
D131*
X239107Y110490D03*
D87*
X239107Y114186D03*
D76*
X239107Y119380D03*
D54*
X239107Y125959D03*
X239107Y132436D03*
D132*
X239338Y46749D03*
D133*
X239338Y55651D03*
D99*
X239338Y62344D03*
D84*
X239338Y73901D03*
D17*
X239338Y79197D03*
D18*
X239338Y85446D03*
X239338Y91669D03*
D19*
X239338Y98019D03*
D18*
X239338Y104369D03*
D70*
X239338Y110846D03*
D89*
X239338Y114186D03*
D103*
X239338Y119380D03*
D48*
X239338Y125959D03*
X239338Y132436D03*
D21*
X239569Y46634D03*
D65*
X239569Y55410D03*
D101*
X239569Y62344D03*
D80*
X239569Y73901D03*
D20*
X239569Y79197D03*
D21*
X239569Y85446D03*
X239569Y91669D03*
D22*
X239569Y98019D03*
D121*
X239569Y104597D03*
D87*
X239569Y114186D03*
D76*
X239569Y119380D03*
D54*
X239569Y125959D03*
X239569Y132436D03*
D57*
X239800Y46406D03*
D134*
X239800Y55296D03*
D99*
X239800Y62344D03*
D84*
X239800Y73901D03*
D17*
X239800Y79197D03*
D18*
X239800Y85446D03*
X239800Y91669D03*
D19*
X239800Y98019D03*
D47*
X239800Y104826D03*
D89*
X239800Y114186D03*
D103*
X239800Y119380D03*
D48*
X239800Y125959D03*
X239800Y132436D03*
D135*
X240030Y46292D03*
D136*
X240030Y55067D03*
D94*
X240030Y62344D03*
D15*
X240030Y68351D03*
D104*
X240030Y73901D03*
D14*
X240030Y79197D03*
D15*
X240030Y85446D03*
X240030Y91669D03*
D16*
X240030Y98019D03*
D137*
X240030Y105181D03*
D92*
X240030Y114186D03*
D105*
X240030Y119380D03*
D40*
X240030Y125959D03*
X240030Y132436D03*
D68*
X240260Y46177D03*
D138*
X240260Y54953D03*
D99*
X240260Y62344D03*
D18*
X240260Y68351D03*
D84*
X240260Y73901D03*
D17*
X240260Y79197D03*
D18*
X240260Y85446D03*
X240260Y91669D03*
D19*
X240260Y98019D03*
D139*
X240260Y105524D03*
D89*
X240260Y114186D03*
D103*
X240260Y119380D03*
D48*
X240260Y125959D03*
X240260Y132436D03*
D51*
X240491Y46177D03*
D140*
X240491Y54724D03*
D101*
X240491Y62344D03*
D21*
X240491Y68351D03*
D80*
X240491Y73901D03*
D20*
X240491Y79197D03*
D21*
X240491Y85446D03*
X240491Y91669D03*
D22*
X240491Y98019D03*
D141*
X240491Y105753D03*
D87*
X240491Y114186D03*
D76*
X240491Y119380D03*
D54*
X240491Y125959D03*
X240491Y132436D03*
D58*
X240722Y46063D03*
D142*
X240722Y54496D03*
D99*
X240722Y62344D03*
D18*
X240722Y68351D03*
D84*
X240722Y73901D03*
D17*
X240722Y79197D03*
D18*
X240722Y85446D03*
X240722Y91669D03*
D19*
X240722Y98019D03*
D143*
X240722Y106096D03*
D89*
X240722Y114186D03*
D103*
X240722Y119380D03*
D48*
X240722Y125959D03*
X240722Y132436D03*
D85*
X240953Y45949D03*
D144*
X240953Y54381D03*
D101*
X240953Y62344D03*
D21*
X240953Y68351D03*
D80*
X240953Y73901D03*
D20*
X240953Y79197D03*
D21*
X240953Y85446D03*
X240953Y91669D03*
D22*
X240953Y98019D03*
D145*
X240953Y106451D03*
D87*
X240953Y114186D03*
D76*
X240953Y119380D03*
D54*
X240953Y125959D03*
X240953Y132436D03*
D82*
X241184Y45949D03*
D146*
X241184Y54267D03*
D99*
X241184Y62344D03*
D18*
X241184Y68351D03*
D84*
X241184Y73901D03*
D17*
X241184Y79197D03*
D18*
X241184Y85446D03*
X241184Y91669D03*
D19*
X241184Y98019D03*
D108*
X241184Y106566D03*
D89*
X241184Y114186D03*
D103*
X241184Y119380D03*
D48*
X241184Y125959D03*
X241184Y132436D03*
D82*
X241416Y45949D03*
D147*
X241416Y54140D03*
D99*
X241416Y62344D03*
D18*
X241416Y68351D03*
D84*
X241416Y73901D03*
D17*
X241416Y79197D03*
D18*
X241416Y85446D03*
X241416Y91669D03*
D19*
X241416Y98019D03*
D108*
X241416Y106566D03*
D89*
X241416Y114186D03*
D103*
X241416Y119380D03*
D48*
X241416Y125959D03*
X241416Y132436D03*
D87*
X241647Y45834D03*
D148*
X241647Y54026D03*
D101*
X241647Y62344D03*
D21*
X241647Y68351D03*
D80*
X241647Y73901D03*
D20*
X241647Y79197D03*
D21*
X241647Y85446D03*
X241647Y91669D03*
D22*
X241647Y98019D03*
D109*
X241647Y106566D03*
D87*
X241647Y114186D03*
D76*
X241647Y119380D03*
D54*
X241647Y125959D03*
X241647Y132436D03*
D89*
X241878Y45834D03*
D149*
X241878Y54026D03*
D99*
X241878Y62344D03*
D18*
X241878Y68351D03*
D84*
X241878Y73901D03*
D17*
X241878Y79197D03*
D18*
X241878Y85446D03*
X241878Y91669D03*
D19*
X241878Y98019D03*
D108*
X241878Y106566D03*
D89*
X241878Y114186D03*
D103*
X241878Y119380D03*
D48*
X241878Y125959D03*
X241878Y132436D03*
D87*
X242109Y45834D03*
D20*
X242109Y51257D03*
D101*
X242109Y57036D03*
X242109Y62344D03*
D21*
X242109Y68351D03*
D80*
X242109Y73901D03*
D20*
X242109Y79197D03*
D21*
X242109Y85446D03*
X242109Y91669D03*
D22*
X242109Y98019D03*
D109*
X242109Y106566D03*
D87*
X242109Y114186D03*
D76*
X242109Y119380D03*
D54*
X242109Y125959D03*
X242109Y132436D03*
D89*
X242340Y45834D03*
D17*
X242340Y51257D03*
D99*
X242340Y57036D03*
X242340Y62344D03*
D18*
X242340Y68351D03*
D84*
X242340Y73901D03*
D17*
X242340Y79197D03*
D18*
X242340Y85446D03*
X242340Y91669D03*
D19*
X242340Y98019D03*
D83*
X242340Y103442D03*
D67*
X242340Y108877D03*
D89*
X242340Y114186D03*
D103*
X242340Y119380D03*
D48*
X242340Y125959D03*
X242340Y132436D03*
D92*
X242570Y45834D03*
D14*
X242570Y51257D03*
D94*
X242570Y57036D03*
X242570Y62344D03*
D15*
X242570Y68351D03*
D104*
X242570Y73901D03*
D14*
X242570Y79197D03*
D15*
X242570Y85446D03*
X242570Y91669D03*
D16*
X242570Y98019D03*
D97*
X242570Y103442D03*
D93*
X242570Y108877D03*
D92*
X242570Y114186D03*
D105*
X242570Y119380D03*
D40*
X242570Y125959D03*
X242570Y132436D03*
D89*
X242800Y45834D03*
D17*
X242800Y51257D03*
D99*
X242800Y57036D03*
X242800Y62344D03*
D18*
X242800Y68351D03*
D84*
X242800Y73901D03*
D17*
X242800Y79197D03*
D18*
X242800Y85446D03*
X242800Y91669D03*
D19*
X242800Y98019D03*
D83*
X242800Y103442D03*
D67*
X242800Y108877D03*
D89*
X242800Y114186D03*
D103*
X242800Y119380D03*
D48*
X242800Y125959D03*
X242800Y132436D03*
D87*
X243031Y45834D03*
D20*
X243031Y51257D03*
D101*
X243031Y57036D03*
X243031Y62344D03*
D21*
X243031Y68351D03*
D80*
X243031Y73901D03*
D20*
X243031Y79197D03*
D21*
X243031Y85446D03*
X243031Y91669D03*
D22*
X243031Y98019D03*
D78*
X243031Y103442D03*
D150*
X243031Y108877D03*
D87*
X243031Y114186D03*
D76*
X243031Y119380D03*
D54*
X243031Y125959D03*
X243031Y132436D03*
D89*
X243262Y45834D03*
D17*
X243262Y51257D03*
D99*
X243262Y57036D03*
X243262Y62344D03*
D18*
X243262Y68351D03*
D84*
X243262Y73901D03*
D17*
X243262Y79197D03*
D18*
X243262Y85446D03*
X243262Y91669D03*
D19*
X243262Y98019D03*
D83*
X243262Y103442D03*
D67*
X243262Y108877D03*
D89*
X243262Y114186D03*
D103*
X243262Y119380D03*
D48*
X243262Y125959D03*
X243262Y132436D03*
D87*
X243493Y45834D03*
D20*
X243493Y51257D03*
D101*
X243493Y57036D03*
X243493Y62344D03*
D21*
X243493Y68351D03*
D80*
X243493Y73901D03*
D20*
X243493Y79197D03*
D21*
X243493Y85446D03*
X243493Y91669D03*
D22*
X243493Y98019D03*
D78*
X243493Y103442D03*
D150*
X243493Y108877D03*
D87*
X243493Y114186D03*
D76*
X243493Y119380D03*
D54*
X243493Y125959D03*
X243493Y132436D03*
D89*
X243724Y45834D03*
D17*
X243724Y51257D03*
D99*
X243724Y57036D03*
X243724Y62344D03*
D18*
X243724Y68351D03*
D84*
X243724Y73901D03*
D17*
X243724Y79197D03*
D18*
X243724Y85446D03*
X243724Y91669D03*
D19*
X243724Y98019D03*
D83*
X243724Y103442D03*
D67*
X243724Y108877D03*
D89*
X243724Y114186D03*
D103*
X243724Y119380D03*
D48*
X243724Y125959D03*
X243724Y132436D03*
D89*
X243956Y45834D03*
D17*
X243956Y51257D03*
D99*
X243956Y57036D03*
X243956Y62344D03*
D18*
X243956Y68351D03*
D84*
X243956Y73901D03*
D17*
X243956Y79197D03*
D18*
X243956Y85446D03*
X243956Y91669D03*
D19*
X243956Y98019D03*
D83*
X243956Y103442D03*
D67*
X243956Y108877D03*
D89*
X243956Y114186D03*
D103*
X243956Y119380D03*
D48*
X243956Y125959D03*
X243956Y132436D03*
D87*
X244187Y45834D03*
D20*
X244187Y51257D03*
D101*
X244187Y57036D03*
X244187Y62344D03*
D21*
X244187Y68351D03*
D80*
X244187Y73901D03*
D20*
X244187Y79197D03*
D21*
X244187Y85446D03*
X244187Y91669D03*
D22*
X244187Y98019D03*
D78*
X244187Y103442D03*
D150*
X244187Y108877D03*
D87*
X244187Y114186D03*
D76*
X244187Y119380D03*
D54*
X244187Y125959D03*
X244187Y132436D03*
D89*
X244418Y45834D03*
D17*
X244418Y51257D03*
D99*
X244418Y57036D03*
X244418Y62344D03*
D18*
X244418Y68351D03*
D89*
X244418Y73774D03*
D17*
X244418Y79197D03*
D18*
X244418Y85446D03*
X244418Y91669D03*
D19*
X244418Y98019D03*
D83*
X244418Y103442D03*
D67*
X244418Y108877D03*
D89*
X244418Y114186D03*
D103*
X244418Y119380D03*
D48*
X244418Y125959D03*
X244418Y132436D03*
D87*
X244649Y45834D03*
D20*
X244649Y51257D03*
D101*
X244649Y57036D03*
X244649Y62344D03*
D21*
X244649Y68351D03*
D87*
X244649Y73774D03*
D20*
X244649Y79197D03*
D21*
X244649Y85446D03*
X244649Y91669D03*
D22*
X244649Y98019D03*
D78*
X244649Y103442D03*
D150*
X244649Y108877D03*
D87*
X244649Y114186D03*
D76*
X244649Y119380D03*
D54*
X244649Y125959D03*
X244649Y132436D03*
D89*
X244880Y45834D03*
D17*
X244880Y51257D03*
D99*
X244880Y57036D03*
X244880Y62344D03*
D18*
X244880Y68351D03*
D89*
X244880Y73774D03*
D17*
X244880Y79197D03*
D18*
X244880Y85446D03*
X244880Y91669D03*
D19*
X244880Y98019D03*
D69*
X244880Y103556D03*
D67*
X244880Y108877D03*
D89*
X244880Y114186D03*
D103*
X244880Y119380D03*
D48*
X244880Y125959D03*
X244880Y132436D03*
D92*
X245110Y45834D03*
D14*
X245110Y51257D03*
D94*
X245110Y57036D03*
D95*
X245110Y62459D03*
D15*
X245110Y68351D03*
D92*
X245110Y73774D03*
D14*
X245110Y79197D03*
D15*
X245110Y85446D03*
X245110Y91669D03*
D16*
X245110Y98019D03*
D151*
X245110Y103556D03*
D93*
X245110Y108877D03*
D92*
X245110Y114186D03*
D105*
X245110Y119380D03*
D40*
X245110Y125959D03*
X245110Y132436D03*
D89*
X245340Y45834D03*
D67*
X245340Y51143D03*
D99*
X245340Y57036D03*
D30*
X245340Y62459D03*
D67*
X245340Y68237D03*
D89*
X245340Y73774D03*
D17*
X245340Y79197D03*
D18*
X245340Y85446D03*
X245340Y91669D03*
D19*
X245340Y98019D03*
D69*
X245340Y103556D03*
D57*
X245340Y108763D03*
D89*
X245340Y114186D03*
D103*
X245340Y119380D03*
D48*
X245340Y125959D03*
X245340Y132436D03*
D87*
X245571Y45834D03*
D152*
X245571Y51257D03*
D86*
X245571Y56921D03*
X245571Y62459D03*
D152*
X245571Y68351D03*
D87*
X245571Y73774D03*
D150*
X245571Y79312D03*
X245571Y85560D03*
X245571Y91783D03*
D75*
X245571Y98133D03*
D118*
X245571Y103556D03*
D152*
X245571Y108763D03*
D85*
X245571Y114071D03*
D76*
X245571Y119380D03*
D54*
X245571Y125959D03*
X245571Y132436D03*
D82*
X245802Y45949D03*
D57*
X245802Y51257D03*
D30*
X245802Y56921D03*
X245802Y62459D03*
D57*
X245802Y68351D03*
D89*
X245802Y73774D03*
D99*
X245802Y79439D03*
X245802Y85662D03*
D68*
X245802Y91897D03*
D30*
X245802Y98247D03*
D66*
X245802Y103442D03*
D68*
X245802Y108763D03*
D82*
X245802Y114071D03*
D103*
X245802Y119380D03*
D48*
X245802Y125959D03*
X245802Y132436D03*
D85*
X246033Y45949D03*
D51*
X246033Y51257D03*
D86*
X246033Y56921D03*
D75*
X246033Y62573D03*
D51*
X246033Y68351D03*
D85*
X246033Y73660D03*
D61*
X246033Y79667D03*
D49*
X246033Y85776D03*
D61*
X246033Y92139D03*
X246033Y98362D03*
D49*
X246033Y103556D03*
D153*
X246033Y108877D03*
D85*
X246033Y114071D03*
D76*
X246033Y119380D03*
D54*
X246033Y125959D03*
X246033Y132436D03*
D82*
X246264Y45949D03*
D66*
X246264Y51270D03*
D72*
X246264Y56807D03*
X246264Y62573D03*
D84*
X246264Y68339D03*
D82*
X246264Y73660D03*
D91*
X246264Y79667D03*
X246264Y85890D03*
D27*
X246264Y92253D03*
X246264Y98476D03*
D41*
X246264Y103556D03*
D84*
X246264Y108750D03*
D58*
X246264Y113957D03*
D103*
X246264Y119380D03*
D48*
X246264Y125959D03*
X246264Y132436D03*
D58*
X246496Y46063D03*
D127*
X246496Y51270D03*
D100*
X246496Y55766D03*
D91*
X246496Y63741D03*
D154*
X246496Y68351D03*
D73*
X246496Y73546D03*
D155*
X246496Y79896D03*
D156*
X246496Y85903D03*
D157*
X246496Y92367D03*
D156*
X246496Y98603D03*
D68*
X246496Y103683D03*
D158*
X246496Y108877D03*
D58*
X246496Y113957D03*
D103*
X246496Y119380D03*
D48*
X246496Y125959D03*
X246496Y132436D03*
D51*
X246727Y46177D03*
D64*
X246727Y55639D03*
X246727Y63741D03*
D77*
X246727Y73546D03*
D159*
X246727Y77114D03*
D160*
X246727Y83134D03*
X246727Y89357D03*
D159*
X246727Y95606D03*
D31*
X246727Y103569D03*
D51*
X246727Y113843D03*
D76*
X246727Y119380D03*
D54*
X246727Y125959D03*
X246727Y132436D03*
D68*
X246958Y46177D03*
D91*
X246958Y55639D03*
D27*
X246958Y63856D03*
D68*
X246958Y73431D03*
D161*
X246958Y77241D03*
D156*
X246958Y83134D03*
X246958Y89357D03*
D162*
X246958Y95707D03*
D57*
X246958Y103683D03*
D68*
X246958Y113843D03*
D103*
X246958Y119380D03*
D48*
X246958Y125959D03*
X246958Y132436D03*
D31*
X247189Y46292D03*
D88*
X247189Y55524D03*
D80*
X247189Y63970D03*
D31*
X247189Y73317D03*
D63*
X247189Y77356D03*
D52*
X247189Y83236D03*
D163*
X247189Y89599D03*
X247189Y95822D03*
D20*
X247189Y103683D03*
D31*
X247189Y113729D03*
D76*
X247189Y119380D03*
D54*
X247189Y125959D03*
X247189Y132436D03*
D57*
X247420Y46406D03*
D84*
X247420Y55410D03*
D69*
X247420Y64084D03*
D57*
X247420Y73203D03*
D25*
X247420Y77584D03*
D46*
X247420Y83236D03*
D127*
X247420Y89599D03*
X247420Y95822D03*
D44*
X247420Y103683D03*
D67*
X247420Y113500D03*
D103*
X247420Y119380D03*
D48*
X247420Y125959D03*
X247420Y132436D03*
D15*
X247650Y46634D03*
D164*
X247650Y55182D03*
D165*
X247650Y64313D03*
D14*
X247650Y72974D03*
D166*
X247650Y77699D03*
D104*
X247650Y83350D03*
D97*
X247650Y89599D03*
X247650Y95822D03*
D167*
X247650Y103797D03*
D15*
X247650Y113386D03*
D98*
X247650Y119494D03*
D40*
X247650Y125959D03*
X247650Y132436D03*
D44*
X247880Y46863D03*
D99*
X247880Y54953D03*
D30*
X247880Y64541D03*
D124*
X247880Y72631D03*
D125*
X247880Y78042D03*
D68*
X247880Y83363D03*
D99*
X247880Y89599D03*
D90*
X247880Y95949D03*
D168*
X247880Y103797D03*
D169*
X247880Y113030D03*
D100*
X247880Y119494D03*
D48*
X247880Y125959D03*
X247880Y132436D03*
D170*
X248111Y51600D03*
D171*
X248111Y88100D03*
D102*
X248111Y119494D03*
D54*
X248111Y125959D03*
X248111Y132436D03*
D172*
X248342Y51600D03*
D173*
X248342Y88100D03*
D100*
X248342Y119494D03*
D48*
X248342Y125959D03*
X248342Y132436D03*
D170*
X248573Y51600D03*
D171*
X248573Y88100D03*
D102*
X248573Y119494D03*
D64*
X248573Y125844D03*
D54*
X248573Y132436D03*
D172*
X248804Y51600D03*
D173*
X248804Y88100D03*
D91*
X248804Y119621D03*
X248804Y125844D03*
D48*
X248804Y132436D03*
D172*
X249036Y51600D03*
D173*
X249036Y88100D03*
D27*
X249036Y119736D03*
D91*
X249036Y125616D03*
D48*
X249036Y132436D03*
D170*
X249267Y51600D03*
D174*
X249267Y87973D03*
D78*
X249267Y120079D03*
D80*
X249267Y125387D03*
D145*
X249267Y132537D03*
D175*
X249498Y51727D03*
D176*
X249498Y87973D03*
D143*
X249498Y122733D03*
D110*
X249498Y132537D03*
D177*
X249729Y51727D03*
D178*
X249729Y87859D03*
D179*
X249729Y122733D03*
D145*
X249729Y132537D03*
D180*
X249960Y51841D03*
D181*
X249960Y87859D03*
D74*
X249960Y122733D03*
D110*
X249960Y132537D03*
D182*
X250190Y51956D03*
D183*
X250190Y87744D03*
D184*
X250190Y122733D03*
D185*
X250190Y132537D03*
D186*
X250420Y52070D03*
D187*
X250420Y87630D03*
D119*
X250420Y122733D03*
D110*
X250420Y132537D03*
D188*
X250651Y52184D03*
D189*
X250651Y87516D03*
D190*
X250651Y122733D03*
D145*
X250651Y132537D03*
D191*
X250882Y52413D03*
D192*
X250882Y87287D03*
D47*
X250882Y122606D03*
D110*
X250882Y132537D03*
D193*
X251113Y52756D03*
D194*
X251113Y86944D03*
D150*
X251113Y122720D03*
D145*
X251113Y132537D03*
D14*
X29210Y98603D03*
D15*
X29210Y92354D03*
X29210Y86131D03*
D16*
X29210Y79781D03*
D17*
X28980Y98603D03*
D18*
X28980Y92354D03*
X28980Y86131D03*
D19*
X28980Y79781D03*
D20*
X28749Y98603D03*
D21*
X28749Y92354D03*
X28749Y86131D03*
D22*
X28749Y79781D03*
D17*
X28518Y98603D03*
D18*
X28518Y92354D03*
X28518Y86131D03*
D19*
X28518Y79781D03*
D20*
X28287Y98603D03*
D21*
X28287Y92354D03*
X28287Y86131D03*
D22*
X28287Y79781D03*
D17*
X28056Y98603D03*
D18*
X28056Y92354D03*
X28056Y86131D03*
D19*
X28056Y79781D03*
D17*
X27824Y98603D03*
D18*
X27824Y92354D03*
X27824Y86131D03*
D19*
X27824Y79781D03*
D20*
X27593Y98603D03*
D21*
X27593Y92354D03*
X27593Y86131D03*
D22*
X27593Y79781D03*
D17*
X27362Y98603D03*
D18*
X27362Y92354D03*
X27362Y86131D03*
D19*
X27362Y79781D03*
D20*
X27131Y98603D03*
D21*
X27131Y92354D03*
X27131Y86131D03*
D22*
X27131Y79781D03*
D17*
X26900Y98603D03*
D18*
X26900Y92354D03*
X26900Y86131D03*
D19*
X26900Y79781D03*
D14*
X26670Y98603D03*
D15*
X26670Y92354D03*
X26670Y86131D03*
D16*
X26670Y79781D03*
D17*
X26440Y98603D03*
D18*
X26440Y92354D03*
X26440Y86131D03*
D19*
X26440Y79781D03*
D23*
X26440Y51372D03*
D20*
X26209Y98603D03*
D21*
X26209Y92354D03*
X26209Y86131D03*
D22*
X26209Y79781D03*
D24*
X26209Y51486D03*
D17*
X25978Y98603D03*
D18*
X25978Y92354D03*
X25978Y86131D03*
D19*
X25978Y79781D03*
D25*
X25978Y51727D03*
D20*
X25747Y98603D03*
D21*
X25747Y92354D03*
X25747Y86131D03*
D22*
X25747Y79781D03*
D26*
X25747Y51727D03*
D17*
X25516Y98603D03*
D18*
X25516Y92354D03*
X25516Y86131D03*
D19*
X25516Y79781D03*
D27*
X25516Y51841D03*
D17*
X25284Y98603D03*
D18*
X25284Y92354D03*
X25284Y86131D03*
D19*
X25284Y79781D03*
D28*
X25284Y52070D03*
D20*
X25053Y98603D03*
D21*
X25053Y92354D03*
X25053Y86131D03*
D22*
X25053Y79781D03*
D29*
X25053Y52070D03*
D30*
X24822Y52299D03*
D31*
X24591Y52769D03*
D17*
X24360Y53797D03*
D32*
X24130Y129769D03*
D33*
X24130Y121920D03*
D34*
X24130Y114186D03*
D35*
X24130Y105169D03*
D14*
X24130Y98603D03*
D15*
X24130Y92354D03*
X24130Y86131D03*
D16*
X24130Y79781D03*
D36*
X24130Y73546D03*
D37*
X24130Y67882D03*
D38*
X24130Y64770D03*
D39*
X24130Y54610D03*
D40*
X24130Y45364D03*
D41*
X23900Y130124D03*
D42*
X23900Y121806D03*
D43*
X23900Y114300D03*
D44*
X23900Y105054D03*
D17*
X23900Y98603D03*
D18*
X23900Y92354D03*
X23900Y86131D03*
D19*
X23900Y79781D03*
D45*
X23900Y73660D03*
D46*
X23900Y67767D03*
D25*
X23900Y64427D03*
D47*
X23900Y55194D03*
D48*
X23900Y45364D03*
D49*
X23669Y130581D03*
D50*
X23669Y121577D03*
X23669Y114643D03*
D20*
X23669Y104826D03*
X23669Y98603D03*
D21*
X23669Y92354D03*
X23669Y86131D03*
D22*
X23669Y79781D03*
D51*
X23669Y73889D03*
D52*
X23669Y67539D03*
D26*
X23669Y64199D03*
D53*
X23669Y55309D03*
D54*
X23669Y45364D03*
D55*
X23438Y130924D03*
D56*
X23438Y121349D03*
D44*
X23438Y114757D03*
D57*
X23438Y104597D03*
D17*
X23438Y98603D03*
D18*
X23438Y92354D03*
X23438Y86131D03*
D19*
X23438Y79781D03*
D58*
X23438Y74003D03*
D59*
X23438Y67310D03*
D46*
X23438Y64084D03*
D60*
X23438Y55182D03*
D48*
X23438Y45364D03*
D61*
X23207Y131153D03*
D20*
X23207Y121234D03*
D62*
X23207Y114872D03*
D31*
X23207Y104483D03*
D20*
X23207Y98603D03*
D21*
X23207Y92354D03*
X23207Y86131D03*
D22*
X23207Y79781D03*
D61*
X23207Y74130D03*
D63*
X23207Y67196D03*
D64*
X23207Y63970D03*
D65*
X23207Y55182D03*
D54*
X23207Y45364D03*
D66*
X22976Y131382D03*
D67*
X22976Y121120D03*
D17*
X22976Y114986D03*
D68*
X22976Y104369D03*
D17*
X22976Y98603D03*
D18*
X22976Y92354D03*
X22976Y86131D03*
D19*
X22976Y79781D03*
D69*
X22976Y74244D03*
D70*
X22976Y66954D03*
D27*
X22976Y63856D03*
D71*
X22976Y55182D03*
D48*
X22976Y45364D03*
D66*
X22744Y131610D03*
D72*
X22744Y120993D03*
D67*
X22744Y115100D03*
D73*
X22744Y104254D03*
D17*
X22744Y98603D03*
D18*
X22744Y92354D03*
X22744Y86131D03*
D19*
X22744Y79781D03*
D69*
X22744Y74244D03*
D27*
X22744Y63856D03*
D74*
X22744Y55296D03*
D48*
X22744Y45364D03*
D61*
X22513Y131610D03*
D64*
X22513Y126530D03*
D75*
X22513Y120993D03*
X22513Y115227D03*
D76*
X22513Y109449D03*
D77*
X22513Y104254D03*
D20*
X22513Y98603D03*
D21*
X22513Y92354D03*
X22513Y86131D03*
D22*
X22513Y79781D03*
D78*
X22513Y74359D03*
D79*
X22513Y69621D03*
D80*
X22513Y63741D03*
D81*
X22513Y55182D03*
D54*
X22513Y45364D03*
D82*
X22282Y131851D03*
D66*
X22282Y126530D03*
D30*
X22282Y120879D03*
D72*
X22282Y115227D03*
D82*
X22282Y109449D03*
X22282Y104140D03*
D17*
X22282Y98603D03*
D18*
X22282Y92354D03*
X22282Y86131D03*
D19*
X22282Y79781D03*
D83*
X22282Y74359D03*
D84*
X22282Y69507D03*
X22282Y63741D03*
D83*
X22282Y57722D03*
D84*
X22282Y52413D03*
D48*
X22282Y45364D03*
D85*
X22051Y131851D03*
D51*
X22051Y126543D03*
D86*
X22051Y120879D03*
D75*
X22051Y115227D03*
D51*
X22051Y109449D03*
D85*
X22051Y104140D03*
D20*
X22051Y98603D03*
D21*
X22051Y92354D03*
X22051Y86131D03*
D22*
X22051Y79781D03*
D78*
X22051Y74359D03*
D49*
X22051Y69393D03*
D87*
X22051Y63614D03*
D88*
X22051Y58064D03*
D64*
X22051Y52184D03*
D54*
X22051Y45364D03*
D82*
X21820Y131851D03*
D57*
X21820Y126543D03*
D30*
X21820Y120879D03*
X21820Y115341D03*
D57*
X21820Y109449D03*
D89*
X21820Y104026D03*
D17*
X21820Y98603D03*
D18*
X21820Y92354D03*
X21820Y86131D03*
D19*
X21820Y79781D03*
D83*
X21820Y74359D03*
D90*
X21820Y69152D03*
D89*
X21820Y63614D03*
D91*
X21820Y58179D03*
D48*
X21820Y52070D03*
X21820Y45364D03*
D92*
X21590Y131966D03*
D93*
X21590Y126657D03*
D94*
X21590Y120764D03*
D95*
X21590Y115341D03*
D96*
X21590Y109449D03*
D92*
X21590Y104026D03*
D14*
X21590Y98603D03*
D15*
X21590Y92354D03*
X21590Y86131D03*
D16*
X21590Y79781D03*
D97*
X21590Y74359D03*
D93*
X21590Y69152D03*
D92*
X21590Y63614D03*
D98*
X21590Y58306D03*
D40*
X21590Y52070D03*
X21590Y45364D03*
D89*
X21360Y131966D03*
D17*
X21360Y126543D03*
D99*
X21360Y120764D03*
D30*
X21360Y115341D03*
D18*
X21360Y109449D03*
D89*
X21360Y104026D03*
D17*
X21360Y98603D03*
D18*
X21360Y92354D03*
X21360Y86131D03*
D19*
X21360Y79781D03*
D83*
X21360Y74359D03*
D17*
X21360Y69037D03*
D89*
X21360Y63614D03*
D100*
X21360Y58306D03*
D48*
X21360Y51841D03*
X21360Y45364D03*
D87*
X21129Y131966D03*
D20*
X21129Y126543D03*
D101*
X21129Y120764D03*
D86*
X21129Y115341D03*
D21*
X21129Y109449D03*
D87*
X21129Y104026D03*
D20*
X21129Y98603D03*
D21*
X21129Y92354D03*
X21129Y86131D03*
D22*
X21129Y79781D03*
D78*
X21129Y74359D03*
D20*
X21129Y69037D03*
D87*
X21129Y63614D03*
D102*
X21129Y58306D03*
D54*
X21129Y51841D03*
X21129Y45364D03*
D89*
X20898Y131966D03*
D17*
X20898Y126543D03*
D99*
X20898Y120764D03*
X20898Y115456D03*
D18*
X20898Y109449D03*
D89*
X20898Y104026D03*
D17*
X20898Y98603D03*
D18*
X20898Y92354D03*
X20898Y86131D03*
D19*
X20898Y79781D03*
D83*
X20898Y74359D03*
D17*
X20898Y69037D03*
D89*
X20898Y63614D03*
D100*
X20898Y58306D03*
D48*
X20898Y51841D03*
X20898Y45364D03*
D87*
X20667Y131966D03*
D20*
X20667Y126543D03*
D101*
X20667Y120764D03*
X20667Y115456D03*
D21*
X20667Y109449D03*
D87*
X20667Y104026D03*
D20*
X20667Y98603D03*
D21*
X20667Y92354D03*
X20667Y86131D03*
D22*
X20667Y79781D03*
D78*
X20667Y74359D03*
D20*
X20667Y69037D03*
D87*
X20667Y63614D03*
D76*
X20667Y58420D03*
D54*
X20667Y51841D03*
X20667Y45364D03*
D89*
X20436Y131966D03*
D17*
X20436Y126543D03*
D99*
X20436Y120764D03*
X20436Y115456D03*
D18*
X20436Y109449D03*
D89*
X20436Y104026D03*
D17*
X20436Y98603D03*
D18*
X20436Y92354D03*
X20436Y86131D03*
D19*
X20436Y79781D03*
D83*
X20436Y74359D03*
D17*
X20436Y69037D03*
D89*
X20436Y63614D03*
D103*
X20436Y58420D03*
D48*
X20436Y51841D03*
X20436Y45364D03*
D89*
X20204Y131966D03*
D17*
X20204Y126543D03*
D99*
X20204Y120764D03*
X20204Y115456D03*
D18*
X20204Y109449D03*
D84*
X20204Y103899D03*
D17*
X20204Y98603D03*
D18*
X20204Y92354D03*
X20204Y86131D03*
D19*
X20204Y79781D03*
D83*
X20204Y74359D03*
D17*
X20204Y69037D03*
D89*
X20204Y63614D03*
D103*
X20204Y58420D03*
D48*
X20204Y51841D03*
X20204Y45364D03*
D87*
X19973Y131966D03*
D20*
X19973Y126543D03*
D101*
X19973Y120764D03*
X19973Y115456D03*
D21*
X19973Y109449D03*
D80*
X19973Y103899D03*
D20*
X19973Y98603D03*
D21*
X19973Y92354D03*
X19973Y86131D03*
D22*
X19973Y79781D03*
D78*
X19973Y74359D03*
D20*
X19973Y69037D03*
D87*
X19973Y63614D03*
D76*
X19973Y58420D03*
D54*
X19973Y51841D03*
X19973Y45364D03*
D89*
X19742Y131966D03*
D17*
X19742Y126543D03*
D99*
X19742Y120764D03*
X19742Y115456D03*
D18*
X19742Y109449D03*
D84*
X19742Y103899D03*
D17*
X19742Y98603D03*
D18*
X19742Y92354D03*
X19742Y86131D03*
D19*
X19742Y79781D03*
D83*
X19742Y74359D03*
D17*
X19742Y69037D03*
D89*
X19742Y63614D03*
D103*
X19742Y58420D03*
D48*
X19742Y51841D03*
X19742Y45364D03*
D87*
X19511Y131966D03*
D20*
X19511Y126543D03*
D101*
X19511Y120764D03*
X19511Y115456D03*
D21*
X19511Y109449D03*
D80*
X19511Y103899D03*
D20*
X19511Y98603D03*
D21*
X19511Y92354D03*
X19511Y86131D03*
D22*
X19511Y79781D03*
D78*
X19511Y74359D03*
D20*
X19511Y69037D03*
D87*
X19511Y63614D03*
D76*
X19511Y58420D03*
D54*
X19511Y51841D03*
X19511Y45364D03*
D89*
X19280Y131966D03*
D17*
X19280Y126543D03*
D99*
X19280Y120764D03*
X19280Y115456D03*
D18*
X19280Y109449D03*
D84*
X19280Y103899D03*
D17*
X19280Y98603D03*
D18*
X19280Y92354D03*
X19280Y86131D03*
D19*
X19280Y79781D03*
D83*
X19280Y74359D03*
D17*
X19280Y69037D03*
D89*
X19280Y63614D03*
D103*
X19280Y58420D03*
D48*
X19280Y51841D03*
X19280Y45364D03*
D92*
X19050Y131966D03*
D14*
X19050Y126543D03*
D94*
X19050Y120764D03*
X19050Y115456D03*
D15*
X19050Y109449D03*
D104*
X19050Y103899D03*
D14*
X19050Y98603D03*
D15*
X19050Y92354D03*
X19050Y86131D03*
D16*
X19050Y79781D03*
D97*
X19050Y74359D03*
D14*
X19050Y69037D03*
D92*
X19050Y63614D03*
D105*
X19050Y58420D03*
D40*
X19050Y51841D03*
X19050Y45364D03*
D89*
X18820Y131966D03*
D17*
X18820Y126543D03*
D99*
X18820Y120764D03*
X18820Y115456D03*
D18*
X18820Y109449D03*
D84*
X18820Y103899D03*
D17*
X18820Y98603D03*
D18*
X18820Y92354D03*
X18820Y86131D03*
D19*
X18820Y79781D03*
D83*
X18820Y74359D03*
D17*
X18820Y69037D03*
D89*
X18820Y63614D03*
D103*
X18820Y58420D03*
D48*
X18820Y51841D03*
X18820Y45364D03*
D87*
X18589Y131966D03*
D20*
X18589Y126543D03*
D101*
X18589Y120764D03*
X18589Y115456D03*
D21*
X18589Y109449D03*
D80*
X18589Y103899D03*
D20*
X18589Y98603D03*
D21*
X18589Y92354D03*
X18589Y86131D03*
D22*
X18589Y79781D03*
D78*
X18589Y74359D03*
D20*
X18589Y69037D03*
D87*
X18589Y63614D03*
D76*
X18589Y58420D03*
D54*
X18589Y51841D03*
X18589Y45364D03*
D89*
X18358Y131966D03*
D17*
X18358Y126543D03*
D99*
X18358Y120764D03*
X18358Y115456D03*
D106*
X18358Y107137D03*
D17*
X18358Y98603D03*
D18*
X18358Y92354D03*
X18358Y86131D03*
D19*
X18358Y79781D03*
D83*
X18358Y74359D03*
D17*
X18358Y69037D03*
D89*
X18358Y63614D03*
D103*
X18358Y58420D03*
D48*
X18358Y51841D03*
X18358Y45364D03*
D87*
X18127Y131966D03*
D20*
X18127Y126543D03*
D101*
X18127Y120764D03*
X18127Y115456D03*
D107*
X18127Y107137D03*
D20*
X18127Y98603D03*
D21*
X18127Y92354D03*
X18127Y86131D03*
D22*
X18127Y79781D03*
D78*
X18127Y74359D03*
D20*
X18127Y69037D03*
D87*
X18127Y63614D03*
D76*
X18127Y58420D03*
D54*
X18127Y51841D03*
X18127Y45364D03*
D89*
X17896Y131966D03*
D67*
X17896Y126657D03*
D99*
X17896Y120764D03*
X17896Y115456D03*
D106*
X17896Y107137D03*
D17*
X17896Y98603D03*
D18*
X17896Y92354D03*
X17896Y86131D03*
D19*
X17896Y79781D03*
D83*
X17896Y74359D03*
D17*
X17896Y69037D03*
D89*
X17896Y63614D03*
D103*
X17896Y58420D03*
D48*
X17896Y51841D03*
X17896Y45364D03*
D108*
X17664Y128969D03*
D99*
X17664Y120764D03*
X17664Y115456D03*
D106*
X17664Y107137D03*
D17*
X17664Y98603D03*
D18*
X17664Y92354D03*
X17664Y86131D03*
D19*
X17664Y79781D03*
D83*
X17664Y74359D03*
D17*
X17664Y69037D03*
D89*
X17664Y63614D03*
D103*
X17664Y58420D03*
D48*
X17664Y51841D03*
X17664Y45364D03*
D109*
X17433Y128969D03*
D101*
X17433Y120764D03*
X17433Y115456D03*
D107*
X17433Y107137D03*
D20*
X17433Y98603D03*
D21*
X17433Y92354D03*
X17433Y86131D03*
D22*
X17433Y79781D03*
D78*
X17433Y74359D03*
D20*
X17433Y69037D03*
D87*
X17433Y63614D03*
D76*
X17433Y58420D03*
D54*
X17433Y51841D03*
X17433Y45364D03*
D110*
X17202Y129083D03*
D30*
X17202Y120879D03*
D99*
X17202Y115456D03*
D106*
X17202Y107137D03*
D17*
X17202Y98603D03*
D18*
X17202Y92354D03*
X17202Y86131D03*
D19*
X17202Y79781D03*
D83*
X17202Y74359D03*
D17*
X17202Y69037D03*
D89*
X17202Y63614D03*
D103*
X17202Y58420D03*
D48*
X17202Y51841D03*
X17202Y45364D03*
D111*
X16971Y129197D03*
D86*
X16971Y120879D03*
D101*
X16971Y115456D03*
D107*
X16971Y107137D03*
D20*
X16971Y98603D03*
D21*
X16971Y92354D03*
X16971Y86131D03*
D22*
X16971Y79781D03*
D78*
X16971Y74359D03*
D20*
X16971Y69037D03*
D87*
X16971Y63614D03*
D76*
X16971Y58420D03*
D54*
X16971Y51841D03*
X16971Y45364D03*
D112*
X16740Y129311D03*
D72*
X16740Y120993D03*
D99*
X16740Y115456D03*
D106*
X16740Y107137D03*
D17*
X16740Y98603D03*
D18*
X16740Y92354D03*
X16740Y86131D03*
D19*
X16740Y79781D03*
D83*
X16740Y74359D03*
D67*
X16740Y68923D03*
D89*
X16740Y63614D03*
D103*
X16740Y58420D03*
D48*
X16740Y51841D03*
X16740Y45364D03*
D113*
X16510Y129540D03*
D114*
X16510Y120993D03*
D94*
X16510Y115456D03*
D115*
X16510Y107137D03*
D14*
X16510Y98603D03*
D15*
X16510Y92354D03*
X16510Y86131D03*
D16*
X16510Y79781D03*
D97*
X16510Y74359D03*
D93*
X16510Y68923D03*
D92*
X16510Y63614D03*
D105*
X16510Y58420D03*
D40*
X16510Y51841D03*
X16510Y45364D03*
D116*
X16280Y129781D03*
D67*
X16280Y121120D03*
D99*
X16280Y115456D03*
D106*
X16280Y107137D03*
D17*
X16280Y98603D03*
D18*
X16280Y92354D03*
X16280Y86131D03*
D19*
X16280Y79781D03*
D69*
X16280Y74244D03*
D57*
X16280Y68809D03*
D89*
X16280Y63614D03*
D103*
X16280Y58420D03*
D48*
X16280Y51841D03*
X16280Y45364D03*
D117*
X16049Y129896D03*
D20*
X16049Y121234D03*
D101*
X16049Y115456D03*
D107*
X16049Y107137D03*
D20*
X16049Y98603D03*
D21*
X16049Y92354D03*
X16049Y86131D03*
D22*
X16049Y79781D03*
D118*
X16049Y74244D03*
D31*
X16049Y68694D03*
D87*
X16049Y63614D03*
D76*
X16049Y58420D03*
D54*
X16049Y51841D03*
X16049Y45364D03*
D119*
X15818Y130124D03*
D56*
X15818Y121349D03*
D99*
X15818Y115456D03*
D106*
X15818Y107137D03*
D17*
X15818Y98603D03*
D18*
X15818Y92354D03*
X15818Y86131D03*
D19*
X15818Y79781D03*
D66*
X15818Y74130D03*
D73*
X15818Y68466D03*
D89*
X15818Y63614D03*
D103*
X15818Y58420D03*
D48*
X15818Y51841D03*
X15818Y45364D03*
D120*
X15587Y130239D03*
D121*
X15587Y121463D03*
D101*
X15587Y115456D03*
D80*
X15587Y103899D03*
D20*
X15587Y98603D03*
D21*
X15587Y92354D03*
X15587Y86131D03*
D22*
X15587Y79781D03*
D61*
X15587Y74130D03*
D122*
X15587Y68224D03*
D87*
X15587Y63614D03*
D76*
X15587Y58420D03*
D54*
X15587Y51841D03*
X15587Y45364D03*
D123*
X15356Y130467D03*
D124*
X15356Y121577D03*
D99*
X15356Y115456D03*
D84*
X15356Y103899D03*
D17*
X15356Y98603D03*
D18*
X15356Y92354D03*
X15356Y86131D03*
D19*
X15356Y79781D03*
D58*
X15356Y74003D03*
D125*
X15356Y67882D03*
D89*
X15356Y63614D03*
D103*
X15356Y58420D03*
D48*
X15356Y51841D03*
X15356Y45364D03*
D126*
X15124Y130696D03*
D42*
X15124Y121806D03*
D99*
X15124Y115456D03*
D84*
X15124Y103899D03*
D17*
X15124Y98603D03*
D18*
X15124Y92354D03*
X15124Y86131D03*
D19*
X15124Y79781D03*
D68*
X15124Y73889D03*
D127*
X15124Y67653D03*
D89*
X15124Y63614D03*
D103*
X15124Y58420D03*
D48*
X15124Y51841D03*
X15124Y45364D03*
D128*
X14893Y130810D03*
D129*
X14893Y121920D03*
D101*
X14893Y115456D03*
D80*
X14893Y103899D03*
D20*
X14893Y98603D03*
D21*
X14893Y92354D03*
X14893Y86131D03*
D22*
X14893Y79781D03*
D130*
X14893Y73660D03*
D131*
X14893Y67310D03*
D87*
X14893Y63614D03*
D76*
X14893Y58420D03*
D54*
X14893Y51841D03*
X14893Y45364D03*
D132*
X14662Y131051D03*
D133*
X14662Y122149D03*
D99*
X14662Y115456D03*
D84*
X14662Y103899D03*
D17*
X14662Y98603D03*
D18*
X14662Y92354D03*
X14662Y86131D03*
D19*
X14662Y79781D03*
D18*
X14662Y73431D03*
D70*
X14662Y66954D03*
D89*
X14662Y63614D03*
D103*
X14662Y58420D03*
D48*
X14662Y51841D03*
X14662Y45364D03*
D21*
X14431Y131166D03*
D65*
X14431Y122390D03*
D101*
X14431Y115456D03*
D80*
X14431Y103899D03*
D20*
X14431Y98603D03*
D21*
X14431Y92354D03*
X14431Y86131D03*
D22*
X14431Y79781D03*
D121*
X14431Y73203D03*
D87*
X14431Y63614D03*
D76*
X14431Y58420D03*
D54*
X14431Y51841D03*
X14431Y45364D03*
D57*
X14200Y131394D03*
D134*
X14200Y122504D03*
D99*
X14200Y115456D03*
D84*
X14200Y103899D03*
D17*
X14200Y98603D03*
D18*
X14200Y92354D03*
X14200Y86131D03*
D19*
X14200Y79781D03*
D47*
X14200Y72974D03*
D89*
X14200Y63614D03*
D103*
X14200Y58420D03*
D48*
X14200Y51841D03*
X14200Y45364D03*
D135*
X13970Y131509D03*
D136*
X13970Y122733D03*
D94*
X13970Y115456D03*
D15*
X13970Y109449D03*
D104*
X13970Y103899D03*
D14*
X13970Y98603D03*
D15*
X13970Y92354D03*
X13970Y86131D03*
D16*
X13970Y79781D03*
D137*
X13970Y72619D03*
D92*
X13970Y63614D03*
D105*
X13970Y58420D03*
D40*
X13970Y51841D03*
X13970Y45364D03*
D68*
X13740Y131623D03*
D138*
X13740Y122847D03*
D99*
X13740Y115456D03*
D18*
X13740Y109449D03*
D84*
X13740Y103899D03*
D17*
X13740Y98603D03*
D18*
X13740Y92354D03*
X13740Y86131D03*
D19*
X13740Y79781D03*
D139*
X13740Y72276D03*
D89*
X13740Y63614D03*
D103*
X13740Y58420D03*
D48*
X13740Y51841D03*
X13740Y45364D03*
D51*
X13509Y131623D03*
D140*
X13509Y123076D03*
D101*
X13509Y115456D03*
D21*
X13509Y109449D03*
D80*
X13509Y103899D03*
D20*
X13509Y98603D03*
D21*
X13509Y92354D03*
X13509Y86131D03*
D22*
X13509Y79781D03*
D141*
X13509Y72047D03*
D87*
X13509Y63614D03*
D76*
X13509Y58420D03*
D54*
X13509Y51841D03*
X13509Y45364D03*
D58*
X13278Y131737D03*
D142*
X13278Y123304D03*
D99*
X13278Y115456D03*
D18*
X13278Y109449D03*
D84*
X13278Y103899D03*
D17*
X13278Y98603D03*
D18*
X13278Y92354D03*
X13278Y86131D03*
D19*
X13278Y79781D03*
D143*
X13278Y71704D03*
D89*
X13278Y63614D03*
D103*
X13278Y58420D03*
D48*
X13278Y51841D03*
X13278Y45364D03*
D85*
X13047Y131851D03*
D144*
X13047Y123419D03*
D101*
X13047Y115456D03*
D21*
X13047Y109449D03*
D80*
X13047Y103899D03*
D20*
X13047Y98603D03*
D21*
X13047Y92354D03*
X13047Y86131D03*
D22*
X13047Y79781D03*
D145*
X13047Y71349D03*
D87*
X13047Y63614D03*
D76*
X13047Y58420D03*
D54*
X13047Y51841D03*
X13047Y45364D03*
D82*
X12816Y131851D03*
D146*
X12816Y123533D03*
D99*
X12816Y115456D03*
D18*
X12816Y109449D03*
D84*
X12816Y103899D03*
D17*
X12816Y98603D03*
D18*
X12816Y92354D03*
X12816Y86131D03*
D19*
X12816Y79781D03*
D108*
X12816Y71234D03*
D89*
X12816Y63614D03*
D103*
X12816Y58420D03*
D48*
X12816Y51841D03*
X12816Y45364D03*
D82*
X12584Y131851D03*
D147*
X12584Y123660D03*
D99*
X12584Y115456D03*
D18*
X12584Y109449D03*
D84*
X12584Y103899D03*
D17*
X12584Y98603D03*
D18*
X12584Y92354D03*
X12584Y86131D03*
D19*
X12584Y79781D03*
D108*
X12584Y71234D03*
D89*
X12584Y63614D03*
D103*
X12584Y58420D03*
D48*
X12584Y51841D03*
X12584Y45364D03*
D87*
X12353Y131966D03*
D148*
X12353Y123774D03*
D101*
X12353Y115456D03*
D21*
X12353Y109449D03*
D80*
X12353Y103899D03*
D20*
X12353Y98603D03*
D21*
X12353Y92354D03*
X12353Y86131D03*
D22*
X12353Y79781D03*
D109*
X12353Y71234D03*
D87*
X12353Y63614D03*
D76*
X12353Y58420D03*
D54*
X12353Y51841D03*
X12353Y45364D03*
D89*
X12122Y131966D03*
D149*
X12122Y123774D03*
D99*
X12122Y115456D03*
D18*
X12122Y109449D03*
D84*
X12122Y103899D03*
D17*
X12122Y98603D03*
D18*
X12122Y92354D03*
X12122Y86131D03*
D19*
X12122Y79781D03*
D108*
X12122Y71234D03*
D89*
X12122Y63614D03*
D103*
X12122Y58420D03*
D48*
X12122Y51841D03*
X12122Y45364D03*
D87*
X11891Y131966D03*
D20*
X11891Y126543D03*
D101*
X11891Y120764D03*
X11891Y115456D03*
D21*
X11891Y109449D03*
D80*
X11891Y103899D03*
D20*
X11891Y98603D03*
D21*
X11891Y92354D03*
X11891Y86131D03*
D22*
X11891Y79781D03*
D109*
X11891Y71234D03*
D87*
X11891Y63614D03*
D76*
X11891Y58420D03*
D54*
X11891Y51841D03*
X11891Y45364D03*
D89*
X11660Y131966D03*
D17*
X11660Y126543D03*
D99*
X11660Y120764D03*
X11660Y115456D03*
D18*
X11660Y109449D03*
D84*
X11660Y103899D03*
D17*
X11660Y98603D03*
D18*
X11660Y92354D03*
X11660Y86131D03*
D19*
X11660Y79781D03*
D83*
X11660Y74359D03*
D67*
X11660Y68923D03*
D89*
X11660Y63614D03*
D103*
X11660Y58420D03*
D48*
X11660Y51841D03*
X11660Y45364D03*
D92*
X11430Y131966D03*
D14*
X11430Y126543D03*
D94*
X11430Y120764D03*
X11430Y115456D03*
D15*
X11430Y109449D03*
D104*
X11430Y103899D03*
D14*
X11430Y98603D03*
D15*
X11430Y92354D03*
X11430Y86131D03*
D16*
X11430Y79781D03*
D97*
X11430Y74359D03*
D93*
X11430Y68923D03*
D92*
X11430Y63614D03*
D105*
X11430Y58420D03*
D40*
X11430Y51841D03*
X11430Y45364D03*
D89*
X11200Y131966D03*
D17*
X11200Y126543D03*
D99*
X11200Y120764D03*
X11200Y115456D03*
D18*
X11200Y109449D03*
D84*
X11200Y103899D03*
D17*
X11200Y98603D03*
D18*
X11200Y92354D03*
X11200Y86131D03*
D19*
X11200Y79781D03*
D83*
X11200Y74359D03*
D67*
X11200Y68923D03*
D89*
X11200Y63614D03*
D103*
X11200Y58420D03*
D48*
X11200Y51841D03*
X11200Y45364D03*
D87*
X10969Y131966D03*
D20*
X10969Y126543D03*
D101*
X10969Y120764D03*
X10969Y115456D03*
D21*
X10969Y109449D03*
D80*
X10969Y103899D03*
D20*
X10969Y98603D03*
D21*
X10969Y92354D03*
X10969Y86131D03*
D22*
X10969Y79781D03*
D78*
X10969Y74359D03*
D150*
X10969Y68923D03*
D87*
X10969Y63614D03*
D76*
X10969Y58420D03*
D54*
X10969Y51841D03*
X10969Y45364D03*
D89*
X10738Y131966D03*
D17*
X10738Y126543D03*
D99*
X10738Y120764D03*
X10738Y115456D03*
D18*
X10738Y109449D03*
D84*
X10738Y103899D03*
D17*
X10738Y98603D03*
D18*
X10738Y92354D03*
X10738Y86131D03*
D19*
X10738Y79781D03*
D83*
X10738Y74359D03*
D67*
X10738Y68923D03*
D89*
X10738Y63614D03*
D103*
X10738Y58420D03*
D48*
X10738Y51841D03*
X10738Y45364D03*
D87*
X10507Y131966D03*
D20*
X10507Y126543D03*
D101*
X10507Y120764D03*
X10507Y115456D03*
D21*
X10507Y109449D03*
D80*
X10507Y103899D03*
D20*
X10507Y98603D03*
D21*
X10507Y92354D03*
X10507Y86131D03*
D22*
X10507Y79781D03*
D78*
X10507Y74359D03*
D150*
X10507Y68923D03*
D87*
X10507Y63614D03*
D76*
X10507Y58420D03*
D54*
X10507Y51841D03*
X10507Y45364D03*
D89*
X10276Y131966D03*
D17*
X10276Y126543D03*
D99*
X10276Y120764D03*
X10276Y115456D03*
D18*
X10276Y109449D03*
D84*
X10276Y103899D03*
D17*
X10276Y98603D03*
D18*
X10276Y92354D03*
X10276Y86131D03*
D19*
X10276Y79781D03*
D83*
X10276Y74359D03*
D67*
X10276Y68923D03*
D89*
X10276Y63614D03*
D103*
X10276Y58420D03*
D48*
X10276Y51841D03*
X10276Y45364D03*
D89*
X10044Y131966D03*
D17*
X10044Y126543D03*
D99*
X10044Y120764D03*
X10044Y115456D03*
D18*
X10044Y109449D03*
D84*
X10044Y103899D03*
D17*
X10044Y98603D03*
D18*
X10044Y92354D03*
X10044Y86131D03*
D19*
X10044Y79781D03*
D83*
X10044Y74359D03*
D67*
X10044Y68923D03*
D89*
X10044Y63614D03*
D103*
X10044Y58420D03*
D48*
X10044Y51841D03*
X10044Y45364D03*
D87*
X9813Y131966D03*
D20*
X9813Y126543D03*
D101*
X9813Y120764D03*
X9813Y115456D03*
D21*
X9813Y109449D03*
D80*
X9813Y103899D03*
D20*
X9813Y98603D03*
D21*
X9813Y92354D03*
X9813Y86131D03*
D22*
X9813Y79781D03*
D78*
X9813Y74359D03*
D150*
X9813Y68923D03*
D87*
X9813Y63614D03*
D76*
X9813Y58420D03*
D54*
X9813Y51841D03*
X9813Y45364D03*
D89*
X9582Y131966D03*
D17*
X9582Y126543D03*
D99*
X9582Y120764D03*
X9582Y115456D03*
D18*
X9582Y109449D03*
D89*
X9582Y104026D03*
D17*
X9582Y98603D03*
D18*
X9582Y92354D03*
X9582Y86131D03*
D19*
X9582Y79781D03*
D83*
X9582Y74359D03*
D67*
X9582Y68923D03*
D89*
X9582Y63614D03*
D103*
X9582Y58420D03*
D48*
X9582Y51841D03*
X9582Y45364D03*
D87*
X9351Y131966D03*
D20*
X9351Y126543D03*
D101*
X9351Y120764D03*
X9351Y115456D03*
D21*
X9351Y109449D03*
D87*
X9351Y104026D03*
D20*
X9351Y98603D03*
D21*
X9351Y92354D03*
X9351Y86131D03*
D22*
X9351Y79781D03*
D78*
X9351Y74359D03*
D150*
X9351Y68923D03*
D87*
X9351Y63614D03*
D76*
X9351Y58420D03*
D54*
X9351Y51841D03*
X9351Y45364D03*
D89*
X9120Y131966D03*
D17*
X9120Y126543D03*
D99*
X9120Y120764D03*
X9120Y115456D03*
D18*
X9120Y109449D03*
D89*
X9120Y104026D03*
D17*
X9120Y98603D03*
D18*
X9120Y92354D03*
X9120Y86131D03*
D19*
X9120Y79781D03*
D69*
X9120Y74244D03*
D67*
X9120Y68923D03*
D89*
X9120Y63614D03*
D103*
X9120Y58420D03*
D48*
X9120Y51841D03*
X9120Y45364D03*
D92*
X8890Y131966D03*
D14*
X8890Y126543D03*
D94*
X8890Y120764D03*
D95*
X8890Y115341D03*
D15*
X8890Y109449D03*
D92*
X8890Y104026D03*
D14*
X8890Y98603D03*
D15*
X8890Y92354D03*
X8890Y86131D03*
D16*
X8890Y79781D03*
D151*
X8890Y74244D03*
D93*
X8890Y68923D03*
D92*
X8890Y63614D03*
D105*
X8890Y58420D03*
D40*
X8890Y51841D03*
X8890Y45364D03*
D89*
X8660Y131966D03*
D67*
X8660Y126657D03*
D99*
X8660Y120764D03*
D30*
X8660Y115341D03*
D67*
X8660Y109563D03*
D89*
X8660Y104026D03*
D17*
X8660Y98603D03*
D18*
X8660Y92354D03*
X8660Y86131D03*
D19*
X8660Y79781D03*
D69*
X8660Y74244D03*
D57*
X8660Y69037D03*
D89*
X8660Y63614D03*
D103*
X8660Y58420D03*
D48*
X8660Y51841D03*
X8660Y45364D03*
D87*
X8429Y131966D03*
D152*
X8429Y126543D03*
D86*
X8429Y120879D03*
X8429Y115341D03*
D152*
X8429Y109449D03*
D87*
X8429Y104026D03*
D150*
X8429Y98489D03*
X8429Y92240D03*
X8429Y86017D03*
D75*
X8429Y79667D03*
D118*
X8429Y74244D03*
D152*
X8429Y69037D03*
D85*
X8429Y63729D03*
D76*
X8429Y58420D03*
D54*
X8429Y51841D03*
X8429Y45364D03*
D82*
X8198Y131851D03*
D57*
X8198Y126543D03*
D30*
X8198Y120879D03*
X8198Y115341D03*
D57*
X8198Y109449D03*
D89*
X8198Y104026D03*
D99*
X8198Y98362D03*
X8198Y92139D03*
D68*
X8198Y85903D03*
D30*
X8198Y79553D03*
D66*
X8198Y74359D03*
D68*
X8198Y69037D03*
D82*
X8198Y63729D03*
D103*
X8198Y58420D03*
D48*
X8198Y51841D03*
X8198Y45364D03*
D85*
X7967Y131851D03*
D51*
X7967Y126543D03*
D86*
X7967Y120879D03*
D75*
X7967Y115227D03*
D51*
X7967Y109449D03*
D85*
X7967Y104140D03*
D61*
X7967Y98133D03*
D49*
X7967Y92024D03*
D61*
X7967Y85662D03*
X7967Y79439D03*
D49*
X7967Y74244D03*
D153*
X7967Y68923D03*
D85*
X7967Y63729D03*
D76*
X7967Y58420D03*
D54*
X7967Y51841D03*
X7967Y45364D03*
D82*
X7736Y131851D03*
D66*
X7736Y126530D03*
D72*
X7736Y120993D03*
X7736Y115227D03*
D84*
X7736Y109461D03*
D82*
X7736Y104140D03*
D91*
X7736Y98133D03*
X7736Y91910D03*
D27*
X7736Y85547D03*
X7736Y79324D03*
D41*
X7736Y74244D03*
D84*
X7736Y69050D03*
D58*
X7736Y63843D03*
D103*
X7736Y58420D03*
D48*
X7736Y51841D03*
X7736Y45364D03*
D58*
X7504Y131737D03*
D127*
X7504Y126530D03*
D100*
X7504Y122034D03*
D91*
X7504Y114059D03*
D154*
X7504Y109449D03*
D73*
X7504Y104254D03*
D155*
X7504Y97904D03*
D156*
X7504Y91897D03*
D157*
X7504Y85433D03*
D156*
X7504Y79197D03*
D68*
X7504Y74117D03*
D158*
X7504Y68923D03*
D58*
X7504Y63843D03*
D103*
X7504Y58420D03*
D48*
X7504Y51841D03*
X7504Y45364D03*
D51*
X7273Y131623D03*
D64*
X7273Y122161D03*
X7273Y114059D03*
D77*
X7273Y104254D03*
D159*
X7273Y100686D03*
D160*
X7273Y94666D03*
X7273Y88443D03*
D159*
X7273Y82194D03*
D31*
X7273Y74232D03*
D51*
X7273Y63957D03*
D76*
X7273Y58420D03*
D54*
X7273Y51841D03*
X7273Y45364D03*
D68*
X7042Y131623D03*
D91*
X7042Y122161D03*
D27*
X7042Y113944D03*
D68*
X7042Y104369D03*
D161*
X7042Y100559D03*
D156*
X7042Y94666D03*
X7042Y88443D03*
D162*
X7042Y82093D03*
D57*
X7042Y74117D03*
D68*
X7042Y63957D03*
D103*
X7042Y58420D03*
D48*
X7042Y51841D03*
X7042Y45364D03*
D31*
X6811Y131509D03*
D88*
X6811Y122276D03*
D80*
X6811Y113830D03*
D31*
X6811Y104483D03*
D63*
X6811Y100444D03*
D52*
X6811Y94564D03*
D163*
X6811Y88202D03*
X6811Y81979D03*
D20*
X6811Y74117D03*
D31*
X6811Y64072D03*
D76*
X6811Y58420D03*
D54*
X6811Y51841D03*
X6811Y45364D03*
D57*
X6580Y131394D03*
D84*
X6580Y122390D03*
D69*
X6580Y113716D03*
D57*
X6580Y104597D03*
D25*
X6580Y100216D03*
D46*
X6580Y94564D03*
D127*
X6580Y88202D03*
X6580Y81979D03*
D44*
X6580Y74117D03*
D67*
X6580Y64300D03*
D103*
X6580Y58420D03*
D48*
X6580Y51841D03*
X6580Y45364D03*
D15*
X6350Y131166D03*
D164*
X6350Y122619D03*
D165*
X6350Y113487D03*
D14*
X6350Y104826D03*
D166*
X6350Y100101D03*
D104*
X6350Y94450D03*
D97*
X6350Y88202D03*
X6350Y81979D03*
D167*
X6350Y74003D03*
D15*
X6350Y64414D03*
D98*
X6350Y58306D03*
D40*
X6350Y51841D03*
X6350Y45364D03*
D44*
X6120Y130937D03*
D99*
X6120Y122847D03*
D30*
X6120Y113259D03*
D124*
X6120Y105169D03*
D125*
X6120Y99759D03*
D68*
X6120Y94437D03*
D99*
X6120Y88202D03*
D90*
X6120Y81852D03*
D168*
X6120Y74003D03*
D169*
X6120Y64770D03*
D100*
X6120Y58306D03*
D48*
X6120Y51841D03*
X6120Y45364D03*
D170*
X5889Y126200D03*
D171*
X5889Y89700D03*
D102*
X5889Y58306D03*
D54*
X5889Y51841D03*
X5889Y45364D03*
D172*
X5658Y126200D03*
D173*
X5658Y89700D03*
D100*
X5658Y58306D03*
D48*
X5658Y51841D03*
X5658Y45364D03*
D170*
X5427Y126200D03*
D171*
X5427Y89700D03*
D102*
X5427Y58306D03*
D64*
X5427Y51956D03*
D54*
X5427Y45364D03*
D172*
X5196Y126200D03*
D173*
X5196Y89700D03*
D91*
X5196Y58179D03*
X5196Y51956D03*
D48*
X5196Y45364D03*
D172*
X4964Y126200D03*
D173*
X4964Y89700D03*
D27*
X4964Y58064D03*
D91*
X4964Y52184D03*
D48*
X4964Y45364D03*
D170*
X4733Y126200D03*
D174*
X4733Y89827D03*
D78*
X4733Y57722D03*
D80*
X4733Y52413D03*
D145*
X4733Y45263D03*
D175*
X4502Y126073D03*
D176*
X4502Y89827D03*
D143*
X4502Y55067D03*
D110*
X4502Y45263D03*
D177*
X4271Y126073D03*
D178*
X4271Y89941D03*
D179*
X4271Y55067D03*
D145*
X4271Y45263D03*
D180*
X4040Y125959D03*
D181*
X4040Y89941D03*
D74*
X4040Y55067D03*
D110*
X4040Y45263D03*
D182*
X3810Y125844D03*
D183*
X3810Y90056D03*
D184*
X3810Y55067D03*
D185*
X3810Y45263D03*
D186*
X3580Y125730D03*
D187*
X3580Y90170D03*
D119*
X3580Y55067D03*
D110*
X3580Y45263D03*
D188*
X3349Y125616D03*
D189*
X3349Y90284D03*
D190*
X3349Y55067D03*
D145*
X3349Y45263D03*
D191*
X3118Y125387D03*
D192*
X3118Y90513D03*
D47*
X3118Y55194D03*
D110*
X3118Y45263D03*
D193*
X2887Y125044D03*
D194*
X2887Y90856D03*
D150*
X2887Y55080D03*
D145*
X2887Y45263D03*
D12*
X19050Y157480D02*
X46990Y157480D01*
X49530Y139700D02*
X49528Y139600D01*
X49522Y139501D01*
X49512Y139401D01*
X49499Y139303D01*
X49481Y139204D01*
X49460Y139107D01*
X49435Y139011D01*
X49406Y138915D01*
X49373Y138821D01*
X49337Y138728D01*
X49297Y138637D01*
X49253Y138547D01*
X49206Y138459D01*
X49156Y138373D01*
X49102Y138289D01*
X49045Y138207D01*
X48985Y138128D01*
X48921Y138050D01*
X48855Y137976D01*
X48786Y137904D01*
X48714Y137835D01*
X48640Y137769D01*
X48562Y137705D01*
X48483Y137645D01*
X48401Y137588D01*
X48317Y137534D01*
X48231Y137484D01*
X48143Y137437D01*
X48053Y137393D01*
X47962Y137353D01*
X47869Y137317D01*
X47775Y137284D01*
X47679Y137255D01*
X47583Y137230D01*
X47486Y137209D01*
X47387Y137191D01*
X47289Y137178D01*
X47189Y137168D01*
X47090Y137162D01*
X46990Y137160D01*
X19050Y137160D02*
X18950Y137162D01*
X18851Y137168D01*
X18751Y137178D01*
X18653Y137191D01*
X18554Y137209D01*
X18457Y137230D01*
X18361Y137255D01*
X18265Y137284D01*
X18171Y137317D01*
X18078Y137353D01*
X17987Y137393D01*
X17897Y137437D01*
X17809Y137484D01*
X17723Y137534D01*
X17639Y137588D01*
X17557Y137645D01*
X17478Y137705D01*
X17400Y137769D01*
X17326Y137835D01*
X17254Y137904D01*
X17185Y137976D01*
X17119Y138050D01*
X17055Y138128D01*
X16995Y138207D01*
X16938Y138289D01*
X16884Y138373D01*
X16834Y138459D01*
X16787Y138547D01*
X16743Y138637D01*
X16703Y138728D01*
X16667Y138821D01*
X16634Y138915D01*
X16605Y139011D01*
X16580Y139107D01*
X16559Y139204D01*
X16541Y139303D01*
X16528Y139401D01*
X16518Y139501D01*
X16512Y139600D01*
X16510Y139700D01*
X16510Y154940D02*
X16512Y155040D01*
X16518Y155139D01*
X16528Y155239D01*
X16541Y155337D01*
X16559Y155436D01*
X16580Y155533D01*
X16605Y155629D01*
X16634Y155725D01*
X16667Y155819D01*
X16703Y155912D01*
X16743Y156003D01*
X16787Y156093D01*
X16834Y156181D01*
X16884Y156267D01*
X16938Y156351D01*
X16995Y156433D01*
X17055Y156512D01*
X17119Y156590D01*
X17185Y156664D01*
X17254Y156736D01*
X17326Y156805D01*
X17400Y156871D01*
X17478Y156935D01*
X17557Y156995D01*
X17639Y157052D01*
X17723Y157106D01*
X17809Y157156D01*
X17897Y157203D01*
X17987Y157247D01*
X18078Y157287D01*
X18171Y157323D01*
X18265Y157356D01*
X18361Y157385D01*
X18457Y157410D01*
X18554Y157431D01*
X18653Y157449D01*
X18751Y157462D01*
X18851Y157472D01*
X18950Y157478D01*
X19050Y157480D01*
X46990Y157480D02*
X47090Y157478D01*
X47189Y157472D01*
X47289Y157462D01*
X47387Y157449D01*
X47486Y157431D01*
X47583Y157410D01*
X47679Y157385D01*
X47775Y157356D01*
X47869Y157323D01*
X47962Y157287D01*
X48053Y157247D01*
X48143Y157203D01*
X48231Y157156D01*
X48317Y157106D01*
X48401Y157052D01*
X48483Y156995D01*
X48562Y156935D01*
X48640Y156871D01*
X48714Y156805D01*
X48786Y156736D01*
X48855Y156664D01*
X48921Y156590D01*
X48985Y156512D01*
X49045Y156433D01*
X49102Y156351D01*
X49156Y156267D01*
X49206Y156181D01*
X49253Y156093D01*
X49297Y156003D01*
X49337Y155912D01*
X49373Y155819D01*
X49406Y155725D01*
X49435Y155629D01*
X49460Y155533D01*
X49481Y155436D01*
X49499Y155337D01*
X49512Y155239D01*
X49522Y155139D01*
X49528Y155040D01*
X49530Y154940D01*
X49530Y139700D01*
X16510Y139700D02*
X16510Y154940D01*
X19050Y137160D02*
X46990Y137160D01*
D195*
X33626Y133864D02*
X32524Y132762D01*
X33626Y133864D02*
X35829Y133864D01*
X36930Y132762D01*
X36930Y131660D01*
X35829Y130559D01*
X33626Y130559D01*
X32524Y129457D01*
X32524Y128356D01*
X33626Y127254D01*
X35829Y127254D01*
X36930Y128356D01*
X29446Y128356D02*
X28345Y127254D01*
X27243Y127254D01*
X26142Y128356D01*
X26142Y133864D01*
X27243Y133864D02*
X25040Y133864D01*
X21962Y131660D02*
X19759Y133864D01*
X19759Y127254D01*
X21962Y127254D02*
X17556Y127254D01*
M02*
