G04 EAGLE Gerber RS-274X export*
G75*
%MOMM*%
%FSLAX34Y34*%
%LPD*%
%INSolderpaste Top*%
%IPPOS*%
%AMOC8*
5,1,8,0,0,1.08239X$1,22.5*%
G01*
%ADD10R,1.400000X1.000000*%
%ADD11R,1.200000X0.550000*%
%ADD12R,1.100000X1.000000*%
%ADD13R,1.200000X0.800000*%
%ADD14R,1.600000X1.400000*%
%ADD15R,0.800000X0.800000*%
%ADD16R,1.000000X1.100000*%
%ADD17R,1.000000X1.400000*%
%ADD18R,0.800000X1.200000*%
%ADD19R,1.270000X1.470000*%
%ADD20R,1.470000X1.270000*%
%ADD21R,4.600000X1.000000*%
%ADD22R,3.400000X1.600000*%
%ADD23R,2.000000X2.500000*%
%ADD24R,2.500000X2.000000*%
%ADD25R,1.200000X2.500000*%
%ADD26R,0.350000X1.600000*%
%ADD27R,1.400000X0.400000*%
%ADD28R,1.500000X1.800000*%
%ADD29R,0.700000X1.500000*%
%ADD30R,1.524000X0.762000*%
%ADD31R,1.000000X1.150000*%

G36*
X614352Y457103D02*
X614352Y457103D01*
X614352Y457104D01*
X614352Y463123D01*
X614348Y463128D01*
X614347Y463128D01*
X603044Y463128D01*
X603042Y463127D01*
X603041Y463127D01*
X601696Y461782D01*
X599133Y461782D01*
X599128Y461778D01*
X599128Y461777D01*
X599128Y458196D01*
X599132Y458191D01*
X599133Y458191D01*
X601594Y458191D01*
X602685Y457100D01*
X602688Y457100D01*
X602689Y457099D01*
X614347Y457099D01*
X614352Y457103D01*
G37*
G36*
X614378Y441078D02*
X614378Y441078D01*
X614377Y441078D01*
X614378Y441079D01*
X614378Y447098D01*
X614373Y447103D01*
X603070Y447103D01*
X603068Y447102D01*
X603066Y447102D01*
X601721Y445757D01*
X599158Y445757D01*
X599153Y445753D01*
X599153Y445752D01*
X599153Y442171D01*
X599157Y442166D01*
X599158Y442166D01*
X601620Y442166D01*
X602711Y441075D01*
X602713Y441075D01*
X602714Y441074D01*
X614373Y441074D01*
X614378Y441078D01*
G37*
G36*
X614329Y409155D02*
X614329Y409155D01*
X614329Y409156D01*
X614329Y415176D01*
X614325Y415181D01*
X614325Y415180D01*
X614324Y415181D01*
X603021Y415181D01*
X603020Y415179D01*
X603018Y415179D01*
X601673Y413835D01*
X599110Y413835D01*
X599105Y413830D01*
X599105Y410248D01*
X599109Y410243D01*
X599110Y410243D01*
X601572Y410243D01*
X602662Y409152D01*
X602665Y409152D01*
X602666Y409151D01*
X614324Y409151D01*
X614329Y409155D01*
G37*
G36*
X614218Y433074D02*
X614218Y433074D01*
X614217Y433075D01*
X614218Y433075D01*
X614218Y439095D01*
X614213Y439100D01*
X602910Y439100D01*
X602908Y439098D01*
X602906Y439098D01*
X601561Y437754D01*
X598998Y437754D01*
X598993Y437749D01*
X598993Y434167D01*
X598997Y434162D01*
X598998Y434163D01*
X598998Y434162D01*
X601460Y434162D01*
X602551Y433072D01*
X602553Y433071D01*
X602554Y433070D01*
X614213Y433070D01*
X614218Y433074D01*
G37*
G36*
X614329Y401104D02*
X614329Y401104D01*
X614329Y407124D01*
X614325Y407129D01*
X614324Y407129D01*
X603021Y407129D01*
X603020Y407127D01*
X603018Y407127D01*
X601673Y405783D01*
X599110Y405783D01*
X599105Y405778D01*
X599105Y402196D01*
X599109Y402191D01*
X599110Y402192D01*
X599110Y402191D01*
X601572Y402191D01*
X602662Y401101D01*
X602665Y401100D01*
X602666Y401099D01*
X614324Y401099D01*
X614329Y401104D01*
G37*
G36*
X614284Y465086D02*
X614284Y465086D01*
X614283Y465086D01*
X614284Y465087D01*
X614284Y471107D01*
X614279Y471111D01*
X614279Y471112D01*
X602976Y471112D01*
X602974Y471110D01*
X602972Y471110D01*
X601627Y469765D01*
X599064Y469765D01*
X599059Y469761D01*
X599059Y469760D01*
X599059Y466179D01*
X599064Y466174D01*
X601526Y466174D01*
X602617Y465083D01*
X602619Y465083D01*
X602620Y465082D01*
X614279Y465082D01*
X614284Y465086D01*
G37*
G36*
X614261Y425046D02*
X614261Y425046D01*
X614261Y431066D01*
X614256Y431071D01*
X602953Y431071D01*
X602951Y431069D01*
X602949Y431069D01*
X601605Y429725D01*
X599041Y429725D01*
X599036Y429720D01*
X599037Y429720D01*
X599036Y429720D01*
X599036Y426138D01*
X599041Y426133D01*
X599041Y426134D01*
X599041Y426133D01*
X601503Y426133D01*
X602594Y425043D01*
X602596Y425042D01*
X602597Y425041D01*
X614256Y425041D01*
X614261Y425046D01*
G37*
G36*
X614395Y417065D02*
X614395Y417065D01*
X614395Y423085D01*
X614391Y423090D01*
X614390Y423090D01*
X603087Y423090D01*
X603086Y423089D01*
X603084Y423089D01*
X601739Y421744D01*
X599176Y421744D01*
X599171Y421740D01*
X599171Y421739D01*
X599171Y418158D01*
X599175Y418153D01*
X599176Y418153D01*
X601638Y418153D01*
X602728Y417062D01*
X602731Y417062D01*
X602732Y417061D01*
X614390Y417061D01*
X614395Y417065D01*
G37*
G36*
X614388Y449076D02*
X614388Y449076D01*
X614388Y449077D01*
X614388Y455097D01*
X614383Y455102D01*
X603080Y455102D01*
X603078Y455100D01*
X603076Y455100D01*
X601732Y453756D01*
X599168Y453756D01*
X599163Y453751D01*
X599164Y453751D01*
X599163Y453751D01*
X599163Y450169D01*
X599168Y450164D01*
X599168Y450165D01*
X599168Y450164D01*
X601630Y450164D01*
X602721Y449074D01*
X602723Y449073D01*
X602724Y449072D01*
X614383Y449072D01*
X614388Y449076D01*
G37*
G36*
X614322Y393072D02*
X614322Y393072D01*
X614321Y393072D01*
X614322Y393073D01*
X614322Y399092D01*
X614317Y399097D01*
X603014Y399097D01*
X603012Y399096D01*
X603010Y399096D01*
X601666Y397751D01*
X599102Y397751D01*
X599097Y397747D01*
X599098Y397747D01*
X599097Y397746D01*
X599097Y394165D01*
X599102Y394160D01*
X601564Y394160D01*
X602655Y393069D01*
X602657Y393069D01*
X602658Y393068D01*
X614317Y393068D01*
X614322Y393072D01*
G37*
G36*
X614383Y385056D02*
X614383Y385056D01*
X614382Y385056D01*
X614383Y385056D01*
X614383Y391076D01*
X614378Y391081D01*
X603075Y391081D01*
X603073Y391080D01*
X603071Y391080D01*
X601726Y389735D01*
X599163Y389735D01*
X599158Y389731D01*
X599159Y389730D01*
X599158Y389730D01*
X599158Y386149D01*
X599163Y386144D01*
X601625Y386144D01*
X602716Y385053D01*
X602718Y385053D01*
X602719Y385051D01*
X614378Y385051D01*
X614383Y385056D01*
G37*
G36*
X614291Y377062D02*
X614291Y377062D01*
X614291Y377063D01*
X614291Y383083D01*
X614287Y383088D01*
X614287Y383087D01*
X614286Y383088D01*
X602983Y383088D01*
X602982Y383086D01*
X602980Y383086D01*
X601635Y381742D01*
X599072Y381742D01*
X599067Y381737D01*
X599067Y378155D01*
X599071Y378150D01*
X599071Y378151D01*
X599072Y378150D01*
X601533Y378150D01*
X602624Y377059D01*
X602627Y377059D01*
X602628Y377058D01*
X614286Y377058D01*
X614291Y377062D01*
G37*
G36*
X614345Y369122D02*
X614345Y369122D01*
X614344Y369123D01*
X614345Y369123D01*
X614345Y375143D01*
X614340Y375148D01*
X614340Y375147D01*
X614340Y375148D01*
X603037Y375148D01*
X603035Y375146D01*
X603033Y375146D01*
X601688Y373802D01*
X599125Y373802D01*
X599120Y373797D01*
X599120Y370215D01*
X599124Y370210D01*
X599125Y370211D01*
X599125Y370210D01*
X601587Y370210D01*
X602678Y369119D01*
X602680Y369119D01*
X602681Y369118D01*
X614340Y369118D01*
X614345Y369122D01*
G37*
G36*
X614215Y361149D02*
X614215Y361149D01*
X614215Y361150D01*
X614215Y367170D01*
X614211Y367175D01*
X614210Y367174D01*
X614210Y367175D01*
X602907Y367175D01*
X602905Y367173D01*
X602904Y367173D01*
X601559Y365829D01*
X598996Y365829D01*
X598991Y365824D01*
X598991Y362242D01*
X598995Y362237D01*
X598996Y362237D01*
X601457Y362237D01*
X602548Y361146D01*
X602550Y361146D01*
X602552Y361145D01*
X614210Y361145D01*
X614215Y361149D01*
G37*
G36*
X614271Y353098D02*
X614271Y353098D01*
X614271Y359118D01*
X614267Y359123D01*
X614266Y359123D01*
X602963Y359123D01*
X602961Y359121D01*
X602959Y359121D01*
X601615Y357777D01*
X599051Y357777D01*
X599046Y357772D01*
X599047Y357772D01*
X599046Y357772D01*
X599046Y354190D01*
X599051Y354185D01*
X599051Y354186D01*
X599051Y354185D01*
X601513Y354185D01*
X602604Y353095D01*
X602606Y353094D01*
X602607Y353093D01*
X614266Y353093D01*
X614271Y353098D01*
G37*
G36*
X614268Y345036D02*
X614268Y345036D01*
X614268Y351056D01*
X614264Y351061D01*
X614263Y351061D01*
X602960Y351061D01*
X602959Y351059D01*
X602957Y351059D01*
X601612Y349715D01*
X599049Y349715D01*
X599044Y349710D01*
X599044Y346128D01*
X599048Y346123D01*
X599049Y346124D01*
X599049Y346123D01*
X601511Y346123D01*
X602601Y345033D01*
X602604Y345032D01*
X602605Y345031D01*
X614263Y345031D01*
X614268Y345036D01*
G37*
G36*
X614266Y336984D02*
X614266Y336984D01*
X614266Y343004D01*
X614262Y343009D01*
X614261Y343009D01*
X602958Y343009D01*
X602956Y343008D01*
X602954Y343008D01*
X601610Y341663D01*
X599046Y341663D01*
X599041Y341659D01*
X599042Y341658D01*
X599041Y341658D01*
X599041Y338077D01*
X599046Y338072D01*
X601508Y338072D01*
X602599Y336981D01*
X602601Y336981D01*
X602602Y336979D01*
X614261Y336979D01*
X614266Y336984D01*
G37*
G36*
X489163Y449066D02*
X489163Y449066D01*
X489164Y449066D01*
X490509Y450411D01*
X493072Y450411D01*
X493077Y450415D01*
X493077Y450416D01*
X493077Y453997D01*
X493073Y454002D01*
X493072Y454002D01*
X490611Y454002D01*
X489520Y455093D01*
X489518Y455093D01*
X489516Y455094D01*
X477858Y455094D01*
X477853Y455090D01*
X477853Y455089D01*
X477853Y449069D01*
X477857Y449065D01*
X477858Y449065D01*
X489161Y449065D01*
X489163Y449066D01*
G37*
G36*
X489196Y441113D02*
X489196Y441113D01*
X489197Y441113D01*
X490542Y442458D01*
X493105Y442458D01*
X493110Y442462D01*
X493110Y442463D01*
X493110Y446044D01*
X493106Y446049D01*
X493105Y446049D01*
X490644Y446049D01*
X489553Y447140D01*
X489551Y447140D01*
X489549Y447142D01*
X477891Y447142D01*
X477886Y447137D01*
X477886Y441117D01*
X477890Y441112D01*
X477891Y441112D01*
X489194Y441112D01*
X489196Y441113D01*
G37*
G36*
X489114Y433105D02*
X489114Y433105D01*
X489116Y433105D01*
X490461Y434449D01*
X493024Y434449D01*
X493029Y434454D01*
X493029Y438036D01*
X493025Y438041D01*
X493024Y438040D01*
X493024Y438041D01*
X490562Y438041D01*
X489472Y439131D01*
X489469Y439132D01*
X489468Y439133D01*
X477810Y439133D01*
X477805Y439129D01*
X477805Y439128D01*
X477805Y433108D01*
X477809Y433103D01*
X477810Y433103D01*
X489113Y433103D01*
X489114Y433105D01*
G37*
G36*
X489160Y425165D02*
X489160Y425165D01*
X489162Y425165D01*
X490507Y426509D01*
X493070Y426509D01*
X493075Y426514D01*
X493075Y430096D01*
X493071Y430101D01*
X493070Y430100D01*
X493070Y430101D01*
X490608Y430101D01*
X489517Y431191D01*
X489515Y431192D01*
X489514Y431193D01*
X477855Y431193D01*
X477850Y431188D01*
X477851Y431188D01*
X477850Y431188D01*
X477850Y425168D01*
X477855Y425163D01*
X489158Y425163D01*
X489160Y425165D01*
G37*
G36*
X489170Y417034D02*
X489170Y417034D01*
X489172Y417034D01*
X490517Y418379D01*
X493080Y418379D01*
X493085Y418383D01*
X493085Y418384D01*
X493085Y421965D01*
X493081Y421970D01*
X493080Y421970D01*
X490618Y421970D01*
X489528Y423061D01*
X489525Y423061D01*
X489524Y423062D01*
X477865Y423062D01*
X477861Y423058D01*
X477860Y423057D01*
X477860Y417038D01*
X477865Y417033D01*
X489168Y417033D01*
X489170Y417034D01*
G37*
G36*
X489175Y409168D02*
X489175Y409168D01*
X489177Y409168D01*
X490522Y410512D01*
X493085Y410512D01*
X493090Y410517D01*
X493090Y414099D01*
X493086Y414104D01*
X493085Y414103D01*
X493085Y414104D01*
X490623Y414104D01*
X489533Y415194D01*
X489530Y415195D01*
X489529Y415196D01*
X477871Y415196D01*
X477866Y415192D01*
X477866Y415191D01*
X477866Y409171D01*
X477870Y409166D01*
X477871Y409166D01*
X489174Y409166D01*
X489175Y409168D01*
G37*
G36*
X489211Y401047D02*
X489211Y401047D01*
X489213Y401047D01*
X490557Y402392D01*
X493121Y402392D01*
X493126Y402396D01*
X493125Y402397D01*
X493126Y402397D01*
X493125Y402397D01*
X493126Y402397D01*
X493126Y405978D01*
X493121Y405983D01*
X490659Y405983D01*
X489568Y407074D01*
X489566Y407074D01*
X489565Y407076D01*
X477906Y407076D01*
X477901Y407071D01*
X477901Y401051D01*
X477905Y401046D01*
X477906Y401046D01*
X489209Y401046D01*
X489211Y401047D01*
G37*
G36*
X489158Y393128D02*
X489158Y393128D01*
X489159Y393128D01*
X490504Y394472D01*
X493067Y394472D01*
X493072Y394477D01*
X493072Y398059D01*
X493068Y398064D01*
X493068Y398063D01*
X493067Y398064D01*
X490606Y398064D01*
X489515Y399154D01*
X489512Y399155D01*
X489511Y399156D01*
X477853Y399156D01*
X477848Y399151D01*
X477848Y393131D01*
X477852Y393126D01*
X477853Y393126D01*
X489156Y393126D01*
X489158Y393128D01*
G37*
G36*
X489239Y385000D02*
X489239Y385000D01*
X489241Y385000D01*
X490585Y386344D01*
X493149Y386344D01*
X493154Y386349D01*
X493153Y386349D01*
X493154Y386349D01*
X493153Y386349D01*
X493154Y386349D01*
X493154Y389931D01*
X493149Y389936D01*
X493149Y389935D01*
X493149Y389936D01*
X490687Y389936D01*
X489596Y391026D01*
X489594Y391027D01*
X489593Y391028D01*
X477934Y391028D01*
X477929Y391023D01*
X477929Y385003D01*
X477933Y384998D01*
X477934Y384998D01*
X489237Y384998D01*
X489239Y385000D01*
G37*
G36*
X489137Y489079D02*
X489137Y489079D01*
X489139Y489079D01*
X490484Y490423D01*
X493047Y490423D01*
X493052Y490428D01*
X493052Y494010D01*
X493048Y494015D01*
X493047Y494014D01*
X493047Y494015D01*
X490585Y494015D01*
X489495Y495105D01*
X489492Y495106D01*
X489491Y495107D01*
X477832Y495107D01*
X477827Y495102D01*
X477828Y495102D01*
X477827Y495102D01*
X477827Y489082D01*
X477832Y489077D01*
X489135Y489077D01*
X489137Y489079D01*
G37*
G36*
X489196Y377057D02*
X489196Y377057D01*
X489197Y377057D01*
X490542Y378402D01*
X493105Y378402D01*
X493110Y378406D01*
X493110Y378407D01*
X493110Y381988D01*
X493106Y381993D01*
X493105Y381993D01*
X490644Y381993D01*
X489553Y383084D01*
X489551Y383084D01*
X489549Y383085D01*
X477891Y383085D01*
X477886Y383081D01*
X477886Y383080D01*
X477886Y377060D01*
X477890Y377056D01*
X477891Y377056D01*
X489194Y377056D01*
X489196Y377057D01*
G37*
G36*
X489185Y481070D02*
X489185Y481070D01*
X489187Y481070D01*
X490532Y482415D01*
X493095Y482415D01*
X493100Y482419D01*
X493100Y482420D01*
X493100Y486001D01*
X493096Y486006D01*
X493095Y486006D01*
X490634Y486006D01*
X489543Y487097D01*
X489540Y487097D01*
X489539Y487098D01*
X477881Y487098D01*
X477876Y487094D01*
X477876Y487093D01*
X477876Y481073D01*
X477880Y481069D01*
X477881Y481068D01*
X489184Y481068D01*
X489185Y481070D01*
G37*
G36*
X489170Y369104D02*
X489170Y369104D01*
X489172Y369104D01*
X490517Y370449D01*
X493080Y370449D01*
X493085Y370453D01*
X493085Y370454D01*
X493085Y374035D01*
X493081Y374040D01*
X493080Y374040D01*
X490618Y374040D01*
X489528Y375131D01*
X489525Y375131D01*
X489524Y375132D01*
X477865Y375132D01*
X477861Y375128D01*
X477860Y375127D01*
X477860Y369108D01*
X477865Y369103D01*
X489168Y369103D01*
X489170Y369104D01*
G37*
G36*
X489185Y473092D02*
X489185Y473092D01*
X489187Y473092D01*
X490532Y474437D01*
X493095Y474437D01*
X493100Y474441D01*
X493100Y474442D01*
X493100Y478023D01*
X493096Y478028D01*
X493095Y478028D01*
X490634Y478028D01*
X489543Y479119D01*
X489540Y479119D01*
X489539Y479120D01*
X477881Y479120D01*
X477876Y479116D01*
X477876Y479115D01*
X477876Y473095D01*
X477880Y473090D01*
X477880Y473091D01*
X477881Y473090D01*
X489184Y473090D01*
X489185Y473092D01*
G37*
G36*
X489178Y361091D02*
X489178Y361091D01*
X489180Y361090D01*
X490524Y362435D01*
X493088Y362435D01*
X493093Y362440D01*
X493092Y362440D01*
X493093Y362440D01*
X493092Y362440D01*
X493093Y362440D01*
X493093Y366022D01*
X493088Y366027D01*
X493088Y366026D01*
X493088Y366027D01*
X490626Y366027D01*
X489535Y367117D01*
X489533Y367117D01*
X489532Y367119D01*
X477873Y367119D01*
X477868Y367114D01*
X477868Y361094D01*
X477872Y361089D01*
X477873Y361089D01*
X489176Y361089D01*
X489178Y361091D01*
G37*
G36*
X489122Y465091D02*
X489122Y465091D01*
X489124Y465091D01*
X490469Y466436D01*
X493032Y466436D01*
X493037Y466440D01*
X493037Y466441D01*
X493037Y470022D01*
X493032Y470027D01*
X490570Y470027D01*
X489479Y471118D01*
X489477Y471118D01*
X489476Y471119D01*
X477817Y471119D01*
X477812Y471115D01*
X477813Y471114D01*
X477812Y471114D01*
X477812Y465094D01*
X477817Y465089D01*
X477817Y465090D01*
X477817Y465089D01*
X489120Y465089D01*
X489122Y465091D01*
G37*
G36*
X489180Y352985D02*
X489180Y352985D01*
X489182Y352985D01*
X490527Y354330D01*
X493090Y354330D01*
X493095Y354334D01*
X493095Y354335D01*
X493095Y357916D01*
X493091Y357921D01*
X493090Y357921D01*
X490628Y357921D01*
X489538Y359012D01*
X489535Y359012D01*
X489534Y359014D01*
X477876Y359014D01*
X477871Y359009D01*
X477871Y352989D01*
X477875Y352984D01*
X477876Y352984D01*
X489179Y352984D01*
X489180Y352985D01*
G37*
G36*
X489185Y497090D02*
X489185Y497090D01*
X489187Y497090D01*
X490532Y498434D01*
X493095Y498434D01*
X493100Y498439D01*
X493100Y502021D01*
X493096Y502026D01*
X493096Y502025D01*
X493095Y502026D01*
X490634Y502026D01*
X489543Y503117D01*
X489540Y503117D01*
X489539Y503118D01*
X477881Y503118D01*
X477876Y503114D01*
X477876Y503113D01*
X477876Y497093D01*
X477880Y497088D01*
X477880Y497089D01*
X477881Y497088D01*
X489184Y497088D01*
X489185Y497090D01*
G37*
G36*
X489180Y345033D02*
X489180Y345033D01*
X489182Y345033D01*
X490527Y346377D01*
X493090Y346377D01*
X493095Y346382D01*
X493095Y349964D01*
X493091Y349969D01*
X493091Y349968D01*
X493090Y349969D01*
X490628Y349969D01*
X489538Y351059D01*
X489535Y351060D01*
X489534Y351061D01*
X477876Y351061D01*
X477871Y351057D01*
X477871Y351056D01*
X477871Y345036D01*
X477875Y345031D01*
X477876Y345031D01*
X489179Y345031D01*
X489180Y345033D01*
G37*
G36*
X489180Y337080D02*
X489180Y337080D01*
X489182Y337080D01*
X490527Y338425D01*
X493090Y338425D01*
X493095Y338429D01*
X493095Y338430D01*
X493095Y342011D01*
X493091Y342016D01*
X493090Y342016D01*
X490628Y342016D01*
X489538Y343107D01*
X489535Y343107D01*
X489534Y343108D01*
X477876Y343108D01*
X477871Y343104D01*
X477871Y343103D01*
X477871Y337083D01*
X477875Y337078D01*
X477875Y337079D01*
X477876Y337078D01*
X489179Y337078D01*
X489180Y337080D01*
G37*
G36*
X489264Y457098D02*
X489264Y457098D01*
X489266Y457097D01*
X490611Y458442D01*
X493174Y458442D01*
X493179Y458446D01*
X493179Y458447D01*
X493179Y462029D01*
X493175Y462033D01*
X493174Y462033D01*
X493174Y462034D01*
X490712Y462034D01*
X489622Y463124D01*
X489619Y463124D01*
X489618Y463126D01*
X477959Y463126D01*
X477954Y463121D01*
X477955Y463121D01*
X477954Y463121D01*
X477954Y457101D01*
X477959Y457096D01*
X489262Y457096D01*
X489264Y457098D01*
G37*
G36*
X589211Y319915D02*
X589211Y319915D01*
X589211Y319916D01*
X589211Y331219D01*
X589210Y331220D01*
X589210Y331222D01*
X587865Y332567D01*
X587865Y335130D01*
X587861Y335135D01*
X587860Y335135D01*
X584279Y335135D01*
X584274Y335131D01*
X584274Y335130D01*
X584274Y332668D01*
X583183Y331578D01*
X583183Y331575D01*
X583182Y331574D01*
X583182Y319916D01*
X583186Y319911D01*
X583187Y319911D01*
X589206Y319911D01*
X589211Y319915D01*
G37*
G36*
X565208Y319902D02*
X565208Y319902D01*
X565208Y319903D01*
X565208Y331206D01*
X565207Y331208D01*
X565207Y331209D01*
X563862Y332554D01*
X563862Y335117D01*
X563858Y335122D01*
X563857Y335122D01*
X560276Y335122D01*
X560271Y335118D01*
X560271Y335117D01*
X560271Y332656D01*
X559180Y331565D01*
X559180Y331563D01*
X559179Y331561D01*
X559179Y319903D01*
X559183Y319898D01*
X559184Y319898D01*
X565203Y319898D01*
X565208Y319902D01*
G37*
G36*
X541269Y319895D02*
X541269Y319895D01*
X541269Y331198D01*
X541267Y331200D01*
X541267Y331202D01*
X539923Y332546D01*
X539923Y335110D01*
X539918Y335115D01*
X539918Y335114D01*
X539918Y335115D01*
X536336Y335115D01*
X536331Y335110D01*
X536332Y335110D01*
X536331Y335110D01*
X536332Y335110D01*
X536331Y335110D01*
X536331Y332648D01*
X535241Y331557D01*
X535240Y331555D01*
X535239Y331554D01*
X535239Y319895D01*
X535243Y319890D01*
X535244Y319891D01*
X535244Y319890D01*
X541264Y319890D01*
X541269Y319895D01*
G37*
G36*
X581312Y319872D02*
X581312Y319872D01*
X581312Y331175D01*
X581310Y331177D01*
X581310Y331179D01*
X579966Y332524D01*
X579966Y335087D01*
X579961Y335092D01*
X576379Y335092D01*
X576374Y335088D01*
X576375Y335087D01*
X576374Y335087D01*
X576375Y335087D01*
X576374Y335087D01*
X576374Y332625D01*
X575284Y331534D01*
X575283Y331532D01*
X575282Y331531D01*
X575282Y319872D01*
X575287Y319867D01*
X575287Y319868D01*
X575287Y319867D01*
X581307Y319867D01*
X581312Y319872D01*
G37*
G36*
X549234Y319872D02*
X549234Y319872D01*
X549234Y331175D01*
X549233Y331177D01*
X549233Y331179D01*
X547888Y332524D01*
X547888Y335087D01*
X547884Y335092D01*
X547883Y335092D01*
X544302Y335092D01*
X544297Y335088D01*
X544297Y335087D01*
X544297Y332625D01*
X543206Y331534D01*
X543206Y331532D01*
X543205Y331531D01*
X543205Y319872D01*
X543209Y319867D01*
X543209Y319868D01*
X543210Y319867D01*
X549229Y319867D01*
X549234Y319872D01*
G37*
G36*
X525211Y319872D02*
X525211Y319872D01*
X525211Y331175D01*
X525209Y331177D01*
X525210Y331179D01*
X523865Y332524D01*
X523865Y335087D01*
X523860Y335092D01*
X520278Y335092D01*
X520273Y335088D01*
X520274Y335087D01*
X520273Y335087D01*
X520274Y335087D01*
X520273Y335087D01*
X520273Y332625D01*
X519183Y331534D01*
X519183Y331532D01*
X519181Y331531D01*
X519181Y319872D01*
X519186Y319867D01*
X519186Y319868D01*
X519186Y319867D01*
X525206Y319867D01*
X525211Y319872D01*
G37*
G36*
X597187Y319864D02*
X597187Y319864D01*
X597187Y319865D01*
X597187Y331168D01*
X597185Y331170D01*
X597185Y331171D01*
X595841Y332516D01*
X595841Y335079D01*
X595836Y335084D01*
X592254Y335084D01*
X592249Y335080D01*
X592250Y335080D01*
X592249Y335080D01*
X592250Y335079D01*
X592249Y335079D01*
X592249Y332618D01*
X591159Y331527D01*
X591158Y331524D01*
X591157Y331523D01*
X591157Y319865D01*
X591162Y319860D01*
X597182Y319860D01*
X597187Y319864D01*
G37*
G36*
X517266Y319864D02*
X517266Y319864D01*
X517266Y319865D01*
X517266Y331168D01*
X517264Y331170D01*
X517264Y331171D01*
X515920Y332516D01*
X515920Y335079D01*
X515915Y335084D01*
X512333Y335084D01*
X512328Y335080D01*
X512329Y335080D01*
X512328Y335080D01*
X512329Y335079D01*
X512328Y335079D01*
X512328Y332618D01*
X511238Y331527D01*
X511237Y331524D01*
X511236Y331523D01*
X511236Y319865D01*
X511240Y319860D01*
X511241Y319860D01*
X517261Y319860D01*
X517266Y319864D01*
G37*
G36*
X573199Y319856D02*
X573199Y319856D01*
X573199Y319857D01*
X573199Y331160D01*
X573198Y331162D01*
X573198Y331164D01*
X571853Y332508D01*
X571853Y335072D01*
X571849Y335077D01*
X571848Y335076D01*
X571848Y335077D01*
X568267Y335077D01*
X568262Y335072D01*
X568262Y332610D01*
X567171Y331519D01*
X567171Y331517D01*
X567169Y331516D01*
X567169Y319857D01*
X567174Y319852D01*
X573194Y319852D01*
X573199Y319856D01*
G37*
G36*
X501134Y319834D02*
X501134Y319834D01*
X501134Y331137D01*
X501133Y331139D01*
X501133Y331141D01*
X499788Y332486D01*
X499788Y335049D01*
X499784Y335054D01*
X499783Y335053D01*
X499783Y335054D01*
X496202Y335054D01*
X496197Y335049D01*
X496197Y332587D01*
X495106Y331496D01*
X495106Y331494D01*
X495105Y331493D01*
X495105Y319834D01*
X495109Y319829D01*
X495109Y319830D01*
X495110Y319829D01*
X501129Y319829D01*
X501134Y319834D01*
G37*
G36*
X533232Y319803D02*
X533232Y319803D01*
X533232Y319804D01*
X533232Y331107D01*
X533231Y331109D01*
X533231Y331110D01*
X531886Y332455D01*
X531886Y335018D01*
X531882Y335023D01*
X531881Y335023D01*
X528300Y335023D01*
X528295Y335019D01*
X528295Y335018D01*
X528295Y332557D01*
X527204Y331466D01*
X527204Y331463D01*
X527203Y331462D01*
X527203Y319804D01*
X527207Y319799D01*
X527208Y319799D01*
X533227Y319799D01*
X533232Y319803D01*
G37*
G36*
X509194Y319796D02*
X509194Y319796D01*
X509193Y319796D01*
X509194Y319796D01*
X509194Y331099D01*
X509192Y331101D01*
X509192Y331103D01*
X507848Y332447D01*
X507848Y335011D01*
X507843Y335016D01*
X507843Y335015D01*
X507843Y335016D01*
X504261Y335016D01*
X504256Y335011D01*
X504256Y332549D01*
X503165Y331458D01*
X503165Y331456D01*
X503164Y331455D01*
X503164Y319796D01*
X503168Y319791D01*
X503169Y319792D01*
X503169Y319791D01*
X509189Y319791D01*
X509194Y319796D01*
G37*
G36*
X557121Y319796D02*
X557121Y319796D01*
X557121Y331099D01*
X557119Y331101D01*
X557120Y331103D01*
X555775Y332447D01*
X555775Y335011D01*
X555770Y335016D01*
X555770Y335015D01*
X555770Y335016D01*
X552188Y335016D01*
X552183Y335011D01*
X552184Y335011D01*
X552183Y335011D01*
X552184Y335011D01*
X552183Y335011D01*
X552183Y332549D01*
X551093Y331458D01*
X551093Y331456D01*
X551091Y331455D01*
X551091Y319796D01*
X551096Y319791D01*
X557116Y319791D01*
X557121Y319796D01*
G37*
D10*
X696800Y406400D03*
X674800Y396900D03*
X674800Y415900D03*
D11*
X851201Y231800D03*
X851201Y241300D03*
X851201Y250800D03*
X825199Y250800D03*
X825199Y231800D03*
D12*
X688730Y384810D03*
X705730Y384810D03*
X838590Y383540D03*
X855590Y383540D03*
D13*
X808990Y232300D03*
X808990Y250300D03*
D14*
X873760Y250220D03*
X873760Y222220D03*
D15*
X801490Y383540D03*
X816490Y383540D03*
X801490Y358140D03*
X816490Y358140D03*
X801490Y370840D03*
X816490Y370840D03*
D12*
X838590Y370840D03*
X855590Y370840D03*
X838590Y358140D03*
X855590Y358140D03*
D16*
X876300Y453000D03*
X876300Y436000D03*
D17*
X749300Y442800D03*
X758800Y420800D03*
X739800Y420800D03*
D12*
X639200Y431800D03*
X656200Y431800D03*
D16*
X774700Y440300D03*
X774700Y423300D03*
D14*
X788670Y250220D03*
X788670Y222220D03*
D12*
X632850Y400050D03*
X649850Y400050D03*
X639200Y381000D03*
X656200Y381000D03*
X630800Y317500D03*
X613800Y317500D03*
D10*
X582500Y292100D03*
X560500Y282600D03*
X560500Y301600D03*
D18*
X618600Y292100D03*
X600600Y292100D03*
X649080Y292100D03*
X631080Y292100D03*
D12*
X648580Y276860D03*
X631580Y276860D03*
D19*
X910500Y190500D03*
X867500Y190500D03*
D20*
X850900Y453300D03*
X850900Y410300D03*
D19*
X935900Y304800D03*
X892900Y304800D03*
D21*
X940900Y251300D03*
X940900Y231300D03*
D22*
X992900Y275300D03*
X992900Y207300D03*
D23*
X25000Y321100D03*
X117000Y321100D03*
X43000Y390100D03*
D24*
X157500Y363100D03*
D25*
X15000Y390100D03*
D23*
X25000Y117900D03*
X117000Y117900D03*
X43000Y186900D03*
D24*
X157500Y159900D03*
D25*
X15000Y186900D03*
D26*
X228100Y383600D03*
X228600Y327600D03*
X235100Y327600D03*
X241600Y327600D03*
X248100Y327600D03*
X222100Y327600D03*
X215600Y327600D03*
X209100Y327600D03*
X234600Y383600D03*
X241100Y383600D03*
X247600Y383600D03*
X221600Y383600D03*
X215100Y383600D03*
X208600Y383600D03*
D16*
X292100Y414900D03*
X292100Y397900D03*
X262890Y385690D03*
X262890Y368690D03*
D12*
X303920Y415290D03*
X320920Y415290D03*
D16*
X292100Y385690D03*
X292100Y368690D03*
D12*
X263280Y415290D03*
X280280Y415290D03*
X303920Y397510D03*
X320920Y397510D03*
X263280Y397510D03*
X280280Y397510D03*
X274710Y427990D03*
X291710Y427990D03*
X234070Y415290D03*
X251070Y415290D03*
D16*
X292100Y313300D03*
X292100Y296300D03*
X262890Y342510D03*
X262890Y325510D03*
D12*
X303920Y313690D03*
X320920Y313690D03*
D16*
X292100Y342510D03*
X292100Y325510D03*
D12*
X263280Y313690D03*
X280280Y313690D03*
X303920Y295910D03*
X320920Y295910D03*
X263280Y295910D03*
X280280Y295910D03*
X274710Y283210D03*
X291710Y283210D03*
X234070Y295910D03*
X251070Y295910D03*
D16*
X193040Y347100D03*
X193040Y364100D03*
D12*
X193920Y405130D03*
X176920Y405130D03*
D16*
X213360Y308220D03*
X213360Y291220D03*
X190500Y207400D03*
X190500Y224400D03*
X203200Y224400D03*
X203200Y207400D03*
X215900Y207400D03*
X215900Y224400D03*
X190500Y97400D03*
X190500Y80400D03*
X203200Y80400D03*
X203200Y97400D03*
X215900Y97400D03*
X215900Y80400D03*
D27*
X968680Y355600D03*
X968680Y349100D03*
X968680Y342600D03*
X968680Y362100D03*
X968680Y368600D03*
D28*
X995680Y318760D03*
D29*
X995680Y355600D03*
D28*
X995680Y392440D03*
D30*
X304800Y69850D03*
X355600Y69850D03*
X304800Y31750D03*
X355600Y31750D03*
X482600Y69850D03*
X533400Y69850D03*
X482600Y31750D03*
X533400Y31750D03*
X406400Y69850D03*
X457200Y69850D03*
X406400Y31750D03*
X457200Y31750D03*
X660400Y69850D03*
X711200Y69850D03*
X660400Y31750D03*
X711200Y31750D03*
X584200Y69850D03*
X635000Y69850D03*
X584200Y31750D03*
X635000Y31750D03*
X736600Y69850D03*
X787400Y69850D03*
X736600Y31750D03*
X787400Y31750D03*
D31*
X190900Y124150D03*
X215900Y124150D03*
X240900Y124150D03*
X190900Y180650D03*
X215900Y180650D03*
X240900Y180650D03*
D12*
X351400Y415290D03*
X334400Y415290D03*
X351400Y397510D03*
X334400Y397510D03*
X351400Y313690D03*
X334400Y313690D03*
X351400Y295910D03*
X334400Y295910D03*
X131200Y444500D03*
X148200Y444500D03*
D16*
X546100Y93100D03*
X546100Y110100D03*
X469900Y93100D03*
X469900Y110100D03*
X723900Y93100D03*
X723900Y110100D03*
X647700Y93100D03*
X647700Y110100D03*
X800100Y93100D03*
X800100Y110100D03*
D30*
X838200Y69850D03*
X889000Y69850D03*
X838200Y31750D03*
X889000Y31750D03*
D12*
X372500Y355600D03*
X389500Y355600D03*
M02*
