G04 EAGLE Gerber RS-274X export*
G75*
%MOMM*%
%FSLAX34Y34*%
%LPD*%
%INSolderpaste Top*%
%IPPOS*%
%AMOC8*
5,1,8,0,0,1.08239X$1,22.5*%
G01*
%ADD10R,1.500000X1.240000*%
%ADD11R,1.075000X1.000000*%
%ADD12R,0.900000X0.450000*%
%ADD13R,1.550000X0.600000*%
%ADD14R,1.800000X1.200000*%
%ADD15R,0.800000X0.800000*%
%ADD16R,1.000000X1.075000*%
%ADD17C,0.140000*%
%ADD18R,0.600000X0.600000*%


D10*
X71120Y64160D03*
X71120Y83160D03*
D11*
X68190Y50800D03*
X51190Y50800D03*
D12*
X309490Y101900D03*
X292490Y101900D03*
X309490Y92900D03*
X309490Y84900D03*
X309490Y75900D03*
X292490Y75900D03*
X292490Y92900D03*
X292490Y84900D03*
D13*
X329190Y83900D03*
X329190Y93900D03*
X329190Y73900D03*
X329190Y103900D03*
D14*
X368190Y60900D03*
X368190Y116900D03*
D13*
X51810Y93900D03*
X51810Y83900D03*
X51810Y103900D03*
X51810Y73900D03*
D14*
X12810Y116900D03*
X12810Y60900D03*
D15*
X106560Y83820D03*
X91560Y83820D03*
D16*
X90170Y53730D03*
X90170Y70730D03*
D17*
X158685Y57597D02*
X163351Y52931D01*
X158685Y57597D02*
X159675Y58587D01*
X164341Y53921D01*
X163351Y52931D01*
X164001Y54261D02*
X162021Y54261D01*
X162671Y55591D02*
X160691Y55591D01*
X161341Y56921D02*
X159361Y56921D01*
X159339Y58251D02*
X160011Y58251D01*
X162221Y61133D02*
X166887Y56467D01*
X162221Y61133D02*
X163211Y62123D01*
X167877Y57457D01*
X166887Y56467D01*
X167537Y57797D02*
X165557Y57797D01*
X166207Y59127D02*
X164227Y59127D01*
X164877Y60457D02*
X162897Y60457D01*
X162875Y61787D02*
X163547Y61787D01*
X165756Y64668D02*
X170422Y60002D01*
X165756Y64668D02*
X166746Y65658D01*
X171412Y60992D01*
X170422Y60002D01*
X171072Y61332D02*
X169092Y61332D01*
X169742Y62662D02*
X167762Y62662D01*
X168412Y63992D02*
X166432Y63992D01*
X166410Y65322D02*
X167082Y65322D01*
X169292Y68204D02*
X173958Y63538D01*
X169292Y68204D02*
X170282Y69194D01*
X174948Y64528D01*
X173958Y63538D01*
X174608Y64868D02*
X172628Y64868D01*
X173278Y66198D02*
X171298Y66198D01*
X171948Y67528D02*
X169968Y67528D01*
X169946Y68858D02*
X170618Y68858D01*
X172827Y71739D02*
X177493Y67073D01*
X172827Y71739D02*
X173817Y72729D01*
X178483Y68063D01*
X177493Y67073D01*
X178143Y68403D02*
X176163Y68403D01*
X176813Y69733D02*
X174833Y69733D01*
X175483Y71063D02*
X173503Y71063D01*
X173481Y72393D02*
X174153Y72393D01*
X176363Y75275D02*
X181029Y70609D01*
X176363Y75275D02*
X177353Y76265D01*
X182019Y71599D01*
X181029Y70609D01*
X181679Y71939D02*
X179699Y71939D01*
X180349Y73269D02*
X178369Y73269D01*
X179019Y74599D02*
X177039Y74599D01*
X177017Y75929D02*
X177689Y75929D01*
X176363Y82205D02*
X181029Y86871D01*
X182019Y85881D01*
X177353Y81215D01*
X176363Y82205D01*
X176703Y82545D02*
X178683Y82545D01*
X178033Y83875D02*
X180013Y83875D01*
X179363Y85205D02*
X181343Y85205D01*
X181365Y86535D02*
X180693Y86535D01*
X177493Y90407D02*
X172827Y85741D01*
X177493Y90407D02*
X178483Y89417D01*
X173817Y84751D01*
X172827Y85741D01*
X173167Y86081D02*
X175147Y86081D01*
X174497Y87411D02*
X176477Y87411D01*
X175827Y88741D02*
X177807Y88741D01*
X177829Y90071D02*
X177157Y90071D01*
X173958Y93942D02*
X169292Y89276D01*
X173958Y93942D02*
X174948Y92952D01*
X170282Y88286D01*
X169292Y89276D01*
X169632Y89616D02*
X171612Y89616D01*
X170962Y90946D02*
X172942Y90946D01*
X172292Y92276D02*
X174272Y92276D01*
X174294Y93606D02*
X173622Y93606D01*
X170422Y97478D02*
X165756Y92812D01*
X170422Y97478D02*
X171412Y96488D01*
X166746Y91822D01*
X165756Y92812D01*
X166096Y93152D02*
X168076Y93152D01*
X167426Y94482D02*
X169406Y94482D01*
X168756Y95812D02*
X170736Y95812D01*
X170758Y97142D02*
X170086Y97142D01*
X166887Y101013D02*
X162221Y96347D01*
X166887Y101013D02*
X167877Y100023D01*
X163211Y95357D01*
X162221Y96347D01*
X162561Y96687D02*
X164541Y96687D01*
X163891Y98017D02*
X165871Y98017D01*
X165221Y99347D02*
X167201Y99347D01*
X167223Y100677D02*
X166551Y100677D01*
X163351Y104549D02*
X158685Y99883D01*
X163351Y104549D02*
X164341Y103559D01*
X159675Y98893D01*
X158685Y99883D01*
X159025Y100223D02*
X161005Y100223D01*
X160355Y101553D02*
X162335Y101553D01*
X161685Y102883D02*
X163665Y102883D01*
X163687Y104213D02*
X163015Y104213D01*
X153735Y99883D02*
X149069Y104549D01*
X153735Y99883D02*
X152745Y98893D01*
X148079Y103559D01*
X149069Y104549D01*
X151415Y100223D02*
X153395Y100223D01*
X152065Y101553D02*
X150085Y101553D01*
X150735Y102883D02*
X148755Y102883D01*
X148733Y104213D02*
X149405Y104213D01*
X145533Y101013D02*
X150199Y96347D01*
X149209Y95357D01*
X144543Y100023D01*
X145533Y101013D01*
X147879Y96687D02*
X149859Y96687D01*
X148529Y98017D02*
X146549Y98017D01*
X147199Y99347D02*
X145219Y99347D01*
X145197Y100677D02*
X145869Y100677D01*
X141998Y97478D02*
X146664Y92812D01*
X145674Y91822D01*
X141008Y96488D01*
X141998Y97478D01*
X144344Y93152D02*
X146324Y93152D01*
X144994Y94482D02*
X143014Y94482D01*
X143664Y95812D02*
X141684Y95812D01*
X141662Y97142D02*
X142334Y97142D01*
X138462Y93942D02*
X143128Y89276D01*
X142138Y88286D01*
X137472Y92952D01*
X138462Y93942D01*
X140808Y89616D02*
X142788Y89616D01*
X141458Y90946D02*
X139478Y90946D01*
X140128Y92276D02*
X138148Y92276D01*
X138126Y93606D02*
X138798Y93606D01*
X134927Y90407D02*
X139593Y85741D01*
X138603Y84751D01*
X133937Y89417D01*
X134927Y90407D01*
X137273Y86081D02*
X139253Y86081D01*
X137923Y87411D02*
X135943Y87411D01*
X136593Y88741D02*
X134613Y88741D01*
X134591Y90071D02*
X135263Y90071D01*
X131391Y86871D02*
X136057Y82205D01*
X135067Y81215D01*
X130401Y85881D01*
X131391Y86871D01*
X133737Y82545D02*
X135717Y82545D01*
X134387Y83875D02*
X132407Y83875D01*
X133057Y85205D02*
X131077Y85205D01*
X131055Y86535D02*
X131727Y86535D01*
X136057Y75275D02*
X131391Y70609D01*
X130401Y71599D01*
X135067Y76265D01*
X136057Y75275D01*
X132721Y71939D02*
X130741Y71939D01*
X132071Y73269D02*
X134051Y73269D01*
X133401Y74599D02*
X135381Y74599D01*
X135403Y75929D02*
X134731Y75929D01*
X139593Y71739D02*
X134927Y67073D01*
X133937Y68063D01*
X138603Y72729D01*
X139593Y71739D01*
X136257Y68403D02*
X134277Y68403D01*
X135607Y69733D02*
X137587Y69733D01*
X136937Y71063D02*
X138917Y71063D01*
X138939Y72393D02*
X138267Y72393D01*
X143128Y68204D02*
X138462Y63538D01*
X137472Y64528D01*
X142138Y69194D01*
X143128Y68204D01*
X139792Y64868D02*
X137812Y64868D01*
X139142Y66198D02*
X141122Y66198D01*
X140472Y67528D02*
X142452Y67528D01*
X142474Y68858D02*
X141802Y68858D01*
X146664Y64668D02*
X141998Y60002D01*
X141008Y60992D01*
X145674Y65658D01*
X146664Y64668D01*
X143328Y61332D02*
X141348Y61332D01*
X142678Y62662D02*
X144658Y62662D01*
X144008Y63992D02*
X145988Y63992D01*
X146010Y65322D02*
X145338Y65322D01*
X150199Y61133D02*
X145533Y56467D01*
X144543Y57457D01*
X149209Y62123D01*
X150199Y61133D01*
X146863Y57797D02*
X144883Y57797D01*
X146213Y59127D02*
X148193Y59127D01*
X147543Y60457D02*
X149523Y60457D01*
X149545Y61787D02*
X148873Y61787D01*
X153735Y57597D02*
X149069Y52931D01*
X148079Y53921D01*
X152745Y58587D01*
X153735Y57597D01*
X150399Y54261D02*
X148419Y54261D01*
X149749Y55591D02*
X151729Y55591D01*
X151079Y56921D02*
X153059Y56921D01*
X153081Y58251D02*
X152409Y58251D01*
D18*
G36*
X168938Y82982D02*
X173180Y78740D01*
X168938Y74498D01*
X164696Y78740D01*
X168938Y82982D01*
G37*
G36*
X156210Y82982D02*
X160452Y78740D01*
X156210Y74498D01*
X151968Y78740D01*
X156210Y82982D01*
G37*
G36*
X162574Y76618D02*
X166816Y72376D01*
X162574Y68134D01*
X158332Y72376D01*
X162574Y76618D01*
G37*
G36*
X156210Y70254D02*
X160452Y66012D01*
X156210Y61770D01*
X151968Y66012D01*
X156210Y70254D01*
G37*
G36*
X143482Y82982D02*
X147724Y78740D01*
X143482Y74498D01*
X139240Y78740D01*
X143482Y82982D01*
G37*
G36*
X156210Y95710D02*
X160452Y91468D01*
X156210Y87226D01*
X151968Y91468D01*
X156210Y95710D01*
G37*
G36*
X149846Y89346D02*
X154088Y85104D01*
X149846Y80862D01*
X145604Y85104D01*
X149846Y89346D01*
G37*
G36*
X149846Y76618D02*
X154088Y72376D01*
X149846Y68134D01*
X145604Y72376D01*
X149846Y76618D01*
G37*
G36*
X162574Y89346D02*
X166816Y85104D01*
X162574Y80862D01*
X158332Y85104D01*
X162574Y89346D01*
G37*
D16*
X107950Y63110D03*
X107950Y46110D03*
M02*
