G04 EAGLE Gerber RS-274X export*
G75*
%MOMM*%
%FSLAX34Y34*%
%LPD*%
%INSolderpaste Top*%
%IPPOS*%
%AMOC8*
5,1,8,0,0,1.08239X$1,22.5*%
G01*
%ADD10R,0.900000X0.700000*%
%ADD11R,1.600000X1.400000*%
%ADD12R,0.700000X0.900000*%
%ADD13R,0.800000X0.800000*%
%ADD14R,1.524000X0.762000*%
%ADD15R,1.200000X0.550000*%
%ADD16R,1.700000X0.700000*%
%ADD17R,1.270000X0.558800*%
%ADD18R,0.558800X1.270000*%


D10*
X59690Y191620D03*
X59690Y204620D03*
D11*
X50800Y227300D03*
X50800Y255300D03*
D12*
X95400Y266700D03*
X82400Y266700D03*
D13*
X96400Y215900D03*
X81400Y215900D03*
D10*
X44196Y25504D03*
X44196Y38504D03*
D14*
X114300Y7620D03*
X63500Y7620D03*
X114300Y45720D03*
X63500Y45720D03*
D12*
X103020Y72390D03*
X90020Y72390D03*
D10*
X44196Y50904D03*
X44196Y63904D03*
X137160Y57300D03*
X137160Y44300D03*
D13*
X137160Y17900D03*
X137160Y32900D03*
D15*
X101901Y232308D03*
X101901Y241808D03*
X101901Y251308D03*
X75899Y251308D03*
X75899Y232308D03*
D11*
X132080Y227300D03*
X132080Y255300D03*
D16*
X43180Y182310D03*
X43180Y194310D03*
X43180Y206310D03*
D17*
G36*
X80860Y183387D02*
X71881Y192366D01*
X75832Y196317D01*
X84811Y187338D01*
X80860Y183387D01*
G37*
G36*
X75203Y177730D02*
X66224Y186709D01*
X70175Y190660D01*
X79154Y181681D01*
X75203Y177730D01*
G37*
G36*
X69546Y172074D02*
X60567Y181053D01*
X64518Y185004D01*
X73497Y176025D01*
X69546Y172074D01*
G37*
G36*
X63889Y166417D02*
X54910Y175396D01*
X58861Y179347D01*
X67840Y170368D01*
X63889Y166417D01*
G37*
G36*
X58232Y160760D02*
X49253Y169739D01*
X53204Y173690D01*
X62183Y164711D01*
X58232Y160760D01*
G37*
G36*
X52575Y155103D02*
X43596Y164082D01*
X47547Y168033D01*
X56526Y159054D01*
X52575Y155103D01*
G37*
G36*
X46919Y149446D02*
X37940Y158425D01*
X41891Y162376D01*
X50870Y153397D01*
X46919Y149446D01*
G37*
G36*
X41262Y143789D02*
X32283Y152768D01*
X36234Y156719D01*
X45213Y147740D01*
X41262Y143789D01*
G37*
D18*
G36*
X36234Y122681D02*
X32283Y126632D01*
X41262Y135611D01*
X45213Y131660D01*
X36234Y122681D01*
G37*
G36*
X41891Y117024D02*
X37940Y120975D01*
X46919Y129954D01*
X50870Y126003D01*
X41891Y117024D01*
G37*
G36*
X47547Y111367D02*
X43596Y115318D01*
X52575Y124297D01*
X56526Y120346D01*
X47547Y111367D01*
G37*
G36*
X53204Y105710D02*
X49253Y109661D01*
X58232Y118640D01*
X62183Y114689D01*
X53204Y105710D01*
G37*
G36*
X58861Y100053D02*
X54910Y104004D01*
X63889Y112983D01*
X67840Y109032D01*
X58861Y100053D01*
G37*
G36*
X64518Y94396D02*
X60567Y98347D01*
X69546Y107326D01*
X73497Y103375D01*
X64518Y94396D01*
G37*
G36*
X70175Y88740D02*
X66224Y92691D01*
X75203Y101670D01*
X79154Y97719D01*
X70175Y88740D01*
G37*
G36*
X75832Y83083D02*
X71881Y87034D01*
X80860Y96013D01*
X84811Y92062D01*
X75832Y83083D01*
G37*
D17*
G36*
X101968Y83083D02*
X92989Y92062D01*
X96940Y96013D01*
X105919Y87034D01*
X101968Y83083D01*
G37*
G36*
X107625Y88740D02*
X98646Y97719D01*
X102597Y101670D01*
X111576Y92691D01*
X107625Y88740D01*
G37*
G36*
X113282Y94396D02*
X104303Y103375D01*
X108254Y107326D01*
X117233Y98347D01*
X113282Y94396D01*
G37*
G36*
X118939Y100053D02*
X109960Y109032D01*
X113911Y112983D01*
X122890Y104004D01*
X118939Y100053D01*
G37*
G36*
X124596Y105710D02*
X115617Y114689D01*
X119568Y118640D01*
X128547Y109661D01*
X124596Y105710D01*
G37*
G36*
X130253Y111367D02*
X121274Y120346D01*
X125225Y124297D01*
X134204Y115318D01*
X130253Y111367D01*
G37*
G36*
X135909Y117024D02*
X126930Y126003D01*
X130881Y129954D01*
X139860Y120975D01*
X135909Y117024D01*
G37*
G36*
X141566Y122681D02*
X132587Y131660D01*
X136538Y135611D01*
X145517Y126632D01*
X141566Y122681D01*
G37*
D18*
G36*
X136538Y143789D02*
X132587Y147740D01*
X141566Y156719D01*
X145517Y152768D01*
X136538Y143789D01*
G37*
G36*
X130881Y149446D02*
X126930Y153397D01*
X135909Y162376D01*
X139860Y158425D01*
X130881Y149446D01*
G37*
G36*
X125225Y155103D02*
X121274Y159054D01*
X130253Y168033D01*
X134204Y164082D01*
X125225Y155103D01*
G37*
G36*
X119568Y160760D02*
X115617Y164711D01*
X124596Y173690D01*
X128547Y169739D01*
X119568Y160760D01*
G37*
G36*
X113911Y166417D02*
X109960Y170368D01*
X118939Y179347D01*
X122890Y175396D01*
X113911Y166417D01*
G37*
G36*
X108254Y172074D02*
X104303Y176025D01*
X113282Y185004D01*
X117233Y181053D01*
X108254Y172074D01*
G37*
G36*
X102597Y177730D02*
X98646Y181681D01*
X107625Y190660D01*
X111576Y186709D01*
X102597Y177730D01*
G37*
G36*
X96940Y183387D02*
X92989Y187338D01*
X101968Y196317D01*
X105919Y192366D01*
X96940Y183387D01*
G37*
D12*
X134516Y292100D03*
X121516Y292100D03*
M02*
