G04 EAGLE Gerber RS-274X export*
G75*
%MOMM*%
%FSLAX34Y34*%
%LPD*%
%INSoldermask Top*%
%IPPOS*%
%AMOC8*
5,1,8,0,0,1.08239X$1,22.5*%
G01*
%ADD10C,2.082800*%
%ADD11P,2.254402X8X22.500000*%
%ADD12C,1.016000*%
%ADD13C,3.505200*%
%ADD14R,1.955800X1.955800*%
%ADD15R,2.082800X2.082800*%
%ADD16R,0.838200X1.473200*%
%ADD17C,1.981200*%

G36*
X1526803Y435236D02*
X1526803Y435236D01*
X1526866Y435234D01*
X1528523Y435422D01*
X1528569Y435436D01*
X1528645Y435448D01*
X1530234Y435956D01*
X1530276Y435979D01*
X1530348Y436005D01*
X1531807Y436814D01*
X1531845Y436844D01*
X1531910Y436884D01*
X1533183Y437962D01*
X1533214Y437999D01*
X1533270Y438051D01*
X1534309Y439356D01*
X1534332Y439399D01*
X1534376Y439461D01*
X1535141Y440944D01*
X1535155Y440989D01*
X1535187Y441059D01*
X1535647Y442663D01*
X1535652Y442708D01*
X1535665Y442747D01*
X1535664Y442764D01*
X1535669Y442785D01*
X1535808Y444447D01*
X1535804Y444495D01*
X1535806Y444571D01*
X1535613Y446278D01*
X1535599Y446325D01*
X1535587Y446400D01*
X1535064Y448037D01*
X1535042Y448079D01*
X1535015Y448151D01*
X1534183Y449654D01*
X1534153Y449691D01*
X1534113Y449756D01*
X1533004Y451068D01*
X1532967Y451099D01*
X1532915Y451155D01*
X1531571Y452225D01*
X1531528Y452248D01*
X1531467Y452293D01*
X1529940Y453081D01*
X1529894Y453095D01*
X1529824Y453127D01*
X1528173Y453602D01*
X1528125Y453607D01*
X1528051Y453624D01*
X1526339Y453768D01*
X1526289Y453763D01*
X1526196Y453764D01*
X1524494Y453521D01*
X1524449Y453506D01*
X1524373Y453492D01*
X1522751Y452922D01*
X1522709Y452898D01*
X1522639Y452869D01*
X1521159Y451993D01*
X1521122Y451962D01*
X1521058Y451920D01*
X1519778Y450772D01*
X1519748Y450734D01*
X1519694Y450681D01*
X1518662Y449305D01*
X1518640Y449262D01*
X1518597Y449199D01*
X1517853Y447649D01*
X1517841Y447603D01*
X1517811Y447532D01*
X1517384Y445866D01*
X1517380Y445818D01*
X1517365Y445744D01*
X1517271Y444027D01*
X1517277Y443979D01*
X1517276Y443902D01*
X1517513Y442249D01*
X1517528Y442203D01*
X1517543Y442128D01*
X1518098Y440553D01*
X1518121Y440511D01*
X1518150Y440440D01*
X1519002Y439004D01*
X1519034Y438967D01*
X1519076Y438903D01*
X1520192Y437661D01*
X1520230Y437631D01*
X1520284Y437577D01*
X1521621Y436576D01*
X1521664Y436555D01*
X1521727Y436512D01*
X1523234Y435792D01*
X1523281Y435779D01*
X1523351Y435749D01*
X1524970Y435337D01*
X1525018Y435334D01*
X1525093Y435319D01*
X1526761Y435231D01*
X1526803Y435236D01*
G37*
G36*
X1597923Y435236D02*
X1597923Y435236D01*
X1597986Y435234D01*
X1599643Y435422D01*
X1599689Y435436D01*
X1599765Y435448D01*
X1601354Y435956D01*
X1601396Y435979D01*
X1601468Y436005D01*
X1602927Y436814D01*
X1602965Y436844D01*
X1603030Y436884D01*
X1604303Y437962D01*
X1604334Y437999D01*
X1604390Y438051D01*
X1605429Y439356D01*
X1605452Y439399D01*
X1605496Y439461D01*
X1606261Y440944D01*
X1606275Y440989D01*
X1606307Y441059D01*
X1606767Y442663D01*
X1606772Y442708D01*
X1606785Y442747D01*
X1606784Y442764D01*
X1606789Y442785D01*
X1606928Y444447D01*
X1606924Y444495D01*
X1606926Y444571D01*
X1606733Y446278D01*
X1606719Y446325D01*
X1606707Y446400D01*
X1606184Y448037D01*
X1606162Y448079D01*
X1606135Y448151D01*
X1605303Y449654D01*
X1605273Y449691D01*
X1605233Y449756D01*
X1604124Y451068D01*
X1604087Y451099D01*
X1604035Y451155D01*
X1602691Y452225D01*
X1602648Y452248D01*
X1602587Y452293D01*
X1601060Y453081D01*
X1601014Y453095D01*
X1600944Y453127D01*
X1599293Y453602D01*
X1599245Y453607D01*
X1599171Y453624D01*
X1597459Y453768D01*
X1597409Y453763D01*
X1597316Y453764D01*
X1595614Y453521D01*
X1595569Y453506D01*
X1595493Y453492D01*
X1593871Y452922D01*
X1593829Y452898D01*
X1593759Y452869D01*
X1592279Y451993D01*
X1592242Y451962D01*
X1592178Y451920D01*
X1590898Y450772D01*
X1590868Y450734D01*
X1590814Y450681D01*
X1589782Y449305D01*
X1589760Y449262D01*
X1589717Y449199D01*
X1588973Y447649D01*
X1588961Y447603D01*
X1588931Y447532D01*
X1588504Y445866D01*
X1588500Y445818D01*
X1588485Y445744D01*
X1588391Y444027D01*
X1588397Y443979D01*
X1588396Y443902D01*
X1588633Y442249D01*
X1588648Y442203D01*
X1588663Y442128D01*
X1589218Y440553D01*
X1589241Y440511D01*
X1589270Y440440D01*
X1590122Y439004D01*
X1590154Y438967D01*
X1590196Y438903D01*
X1591312Y437661D01*
X1591350Y437631D01*
X1591404Y437577D01*
X1592741Y436576D01*
X1592784Y436555D01*
X1592847Y436512D01*
X1594354Y435792D01*
X1594401Y435779D01*
X1594471Y435749D01*
X1596090Y435337D01*
X1596138Y435334D01*
X1596213Y435319D01*
X1597881Y435231D01*
X1597923Y435236D01*
G37*
G36*
X1166123Y435236D02*
X1166123Y435236D01*
X1166186Y435234D01*
X1167843Y435422D01*
X1167889Y435436D01*
X1167965Y435448D01*
X1169554Y435956D01*
X1169596Y435979D01*
X1169668Y436005D01*
X1171127Y436814D01*
X1171165Y436844D01*
X1171230Y436884D01*
X1172503Y437962D01*
X1172534Y437999D01*
X1172590Y438051D01*
X1173629Y439356D01*
X1173652Y439399D01*
X1173696Y439461D01*
X1174461Y440944D01*
X1174475Y440989D01*
X1174507Y441059D01*
X1174967Y442663D01*
X1174972Y442708D01*
X1174985Y442747D01*
X1174984Y442764D01*
X1174989Y442785D01*
X1175128Y444447D01*
X1175124Y444495D01*
X1175126Y444571D01*
X1174933Y446278D01*
X1174919Y446325D01*
X1174907Y446400D01*
X1174384Y448037D01*
X1174362Y448079D01*
X1174335Y448151D01*
X1173503Y449654D01*
X1173473Y449691D01*
X1173433Y449756D01*
X1172324Y451068D01*
X1172287Y451099D01*
X1172235Y451155D01*
X1170891Y452225D01*
X1170848Y452248D01*
X1170787Y452293D01*
X1169260Y453081D01*
X1169214Y453095D01*
X1169144Y453127D01*
X1167493Y453602D01*
X1167445Y453607D01*
X1167371Y453624D01*
X1165659Y453768D01*
X1165609Y453763D01*
X1165516Y453764D01*
X1163814Y453521D01*
X1163769Y453506D01*
X1163693Y453492D01*
X1162071Y452922D01*
X1162029Y452898D01*
X1161959Y452869D01*
X1160479Y451993D01*
X1160442Y451962D01*
X1160378Y451920D01*
X1159098Y450772D01*
X1159068Y450734D01*
X1159014Y450681D01*
X1157982Y449305D01*
X1157960Y449262D01*
X1157917Y449199D01*
X1157173Y447649D01*
X1157161Y447603D01*
X1157131Y447532D01*
X1156704Y445866D01*
X1156700Y445818D01*
X1156685Y445744D01*
X1156591Y444027D01*
X1156597Y443979D01*
X1156596Y443902D01*
X1156833Y442249D01*
X1156848Y442203D01*
X1156863Y442128D01*
X1157418Y440553D01*
X1157441Y440511D01*
X1157470Y440440D01*
X1158322Y439004D01*
X1158354Y438967D01*
X1158396Y438903D01*
X1159512Y437661D01*
X1159550Y437631D01*
X1159604Y437577D01*
X1160941Y436576D01*
X1160984Y436555D01*
X1161047Y436512D01*
X1162554Y435792D01*
X1162601Y435779D01*
X1162671Y435749D01*
X1164290Y435337D01*
X1164338Y435334D01*
X1164413Y435319D01*
X1166081Y435231D01*
X1166123Y435236D01*
G37*
G36*
X1095003Y435236D02*
X1095003Y435236D01*
X1095066Y435234D01*
X1096723Y435422D01*
X1096769Y435436D01*
X1096845Y435448D01*
X1098434Y435956D01*
X1098476Y435979D01*
X1098548Y436005D01*
X1100007Y436814D01*
X1100045Y436844D01*
X1100110Y436884D01*
X1101383Y437962D01*
X1101414Y437999D01*
X1101470Y438051D01*
X1102509Y439356D01*
X1102532Y439399D01*
X1102576Y439461D01*
X1103341Y440944D01*
X1103355Y440989D01*
X1103387Y441059D01*
X1103847Y442663D01*
X1103852Y442708D01*
X1103865Y442747D01*
X1103864Y442764D01*
X1103869Y442785D01*
X1104008Y444447D01*
X1104004Y444495D01*
X1104006Y444571D01*
X1103813Y446278D01*
X1103799Y446325D01*
X1103787Y446400D01*
X1103264Y448037D01*
X1103242Y448079D01*
X1103215Y448151D01*
X1102383Y449654D01*
X1102353Y449691D01*
X1102313Y449756D01*
X1101204Y451068D01*
X1101167Y451099D01*
X1101115Y451155D01*
X1099771Y452225D01*
X1099728Y452248D01*
X1099667Y452293D01*
X1098140Y453081D01*
X1098094Y453095D01*
X1098024Y453127D01*
X1096373Y453602D01*
X1096325Y453607D01*
X1096251Y453624D01*
X1094539Y453768D01*
X1094489Y453763D01*
X1094396Y453764D01*
X1092694Y453521D01*
X1092649Y453506D01*
X1092573Y453492D01*
X1090951Y452922D01*
X1090909Y452898D01*
X1090839Y452869D01*
X1089359Y451993D01*
X1089322Y451962D01*
X1089258Y451920D01*
X1087978Y450772D01*
X1087948Y450734D01*
X1087894Y450681D01*
X1086862Y449305D01*
X1086840Y449262D01*
X1086797Y449199D01*
X1086053Y447649D01*
X1086041Y447603D01*
X1086011Y447532D01*
X1085584Y445866D01*
X1085580Y445818D01*
X1085565Y445744D01*
X1085471Y444027D01*
X1085477Y443979D01*
X1085476Y443902D01*
X1085713Y442249D01*
X1085728Y442203D01*
X1085743Y442128D01*
X1086298Y440553D01*
X1086321Y440511D01*
X1086350Y440440D01*
X1087202Y439004D01*
X1087234Y438967D01*
X1087276Y438903D01*
X1088392Y437661D01*
X1088430Y437631D01*
X1088484Y437577D01*
X1089821Y436576D01*
X1089864Y436555D01*
X1089927Y436512D01*
X1091434Y435792D01*
X1091481Y435779D01*
X1091551Y435749D01*
X1093170Y435337D01*
X1093218Y435334D01*
X1093293Y435319D01*
X1094961Y435231D01*
X1095003Y435236D01*
G37*
G36*
X1094991Y600337D02*
X1094991Y600337D01*
X1095084Y600336D01*
X1096786Y600579D01*
X1096831Y600594D01*
X1096907Y600608D01*
X1098529Y601178D01*
X1098571Y601202D01*
X1098641Y601231D01*
X1100121Y602107D01*
X1100158Y602138D01*
X1100222Y602180D01*
X1101502Y603328D01*
X1101532Y603366D01*
X1101586Y603419D01*
X1102618Y604795D01*
X1102640Y604838D01*
X1102683Y604901D01*
X1103427Y606451D01*
X1103439Y606498D01*
X1103469Y606568D01*
X1103896Y608234D01*
X1103900Y608282D01*
X1103915Y608356D01*
X1104009Y610073D01*
X1104003Y610121D01*
X1104004Y610198D01*
X1103767Y611851D01*
X1103762Y611865D01*
X1103762Y611877D01*
X1103750Y611906D01*
X1103737Y611972D01*
X1103182Y613547D01*
X1103159Y613589D01*
X1103130Y613660D01*
X1102278Y615096D01*
X1102246Y615133D01*
X1102204Y615197D01*
X1101088Y616439D01*
X1101050Y616469D01*
X1100996Y616523D01*
X1099659Y617524D01*
X1099616Y617545D01*
X1099553Y617588D01*
X1098046Y618308D01*
X1097999Y618321D01*
X1097929Y618351D01*
X1096310Y618763D01*
X1096262Y618766D01*
X1096187Y618781D01*
X1094519Y618869D01*
X1094477Y618864D01*
X1094414Y618866D01*
X1092757Y618678D01*
X1092711Y618664D01*
X1092635Y618652D01*
X1091046Y618144D01*
X1091004Y618121D01*
X1090932Y618095D01*
X1089473Y617286D01*
X1089435Y617256D01*
X1089370Y617216D01*
X1088097Y616138D01*
X1088066Y616101D01*
X1088010Y616049D01*
X1086971Y614744D01*
X1086948Y614701D01*
X1086904Y614639D01*
X1086139Y613157D01*
X1086125Y613111D01*
X1086093Y613041D01*
X1085633Y611438D01*
X1085628Y611390D01*
X1085611Y611315D01*
X1085472Y609653D01*
X1085477Y609605D01*
X1085474Y609529D01*
X1085667Y607822D01*
X1085681Y607775D01*
X1085693Y607700D01*
X1086216Y606063D01*
X1086238Y606021D01*
X1086265Y605949D01*
X1087097Y604446D01*
X1087104Y604438D01*
X1087106Y604431D01*
X1087128Y604407D01*
X1087167Y604344D01*
X1088276Y603032D01*
X1088313Y603001D01*
X1088366Y602945D01*
X1089709Y601875D01*
X1089752Y601852D01*
X1089814Y601807D01*
X1091340Y601019D01*
X1091386Y601005D01*
X1091456Y600973D01*
X1093107Y600498D01*
X1093155Y600493D01*
X1093229Y600476D01*
X1094941Y600332D01*
X1094991Y600337D01*
G37*
G36*
X1526791Y600337D02*
X1526791Y600337D01*
X1526884Y600336D01*
X1528586Y600579D01*
X1528631Y600594D01*
X1528707Y600608D01*
X1530329Y601178D01*
X1530371Y601202D01*
X1530441Y601231D01*
X1531921Y602107D01*
X1531958Y602138D01*
X1532022Y602180D01*
X1533302Y603328D01*
X1533332Y603366D01*
X1533386Y603419D01*
X1534418Y604795D01*
X1534440Y604838D01*
X1534483Y604901D01*
X1535227Y606451D01*
X1535239Y606498D01*
X1535269Y606568D01*
X1535696Y608234D01*
X1535700Y608282D01*
X1535715Y608356D01*
X1535809Y610073D01*
X1535803Y610121D01*
X1535804Y610198D01*
X1535567Y611851D01*
X1535562Y611865D01*
X1535562Y611877D01*
X1535550Y611906D01*
X1535537Y611972D01*
X1534982Y613547D01*
X1534959Y613589D01*
X1534930Y613660D01*
X1534078Y615096D01*
X1534046Y615133D01*
X1534004Y615197D01*
X1532888Y616439D01*
X1532850Y616469D01*
X1532796Y616523D01*
X1531459Y617524D01*
X1531416Y617545D01*
X1531353Y617588D01*
X1529846Y618308D01*
X1529799Y618321D01*
X1529729Y618351D01*
X1528110Y618763D01*
X1528062Y618766D01*
X1527987Y618781D01*
X1526319Y618869D01*
X1526277Y618864D01*
X1526214Y618866D01*
X1524557Y618678D01*
X1524511Y618664D01*
X1524435Y618652D01*
X1522846Y618144D01*
X1522804Y618121D01*
X1522732Y618095D01*
X1521273Y617286D01*
X1521235Y617256D01*
X1521170Y617216D01*
X1519897Y616138D01*
X1519866Y616101D01*
X1519810Y616049D01*
X1518771Y614744D01*
X1518748Y614701D01*
X1518704Y614639D01*
X1517939Y613157D01*
X1517925Y613111D01*
X1517893Y613041D01*
X1517433Y611438D01*
X1517428Y611390D01*
X1517411Y611315D01*
X1517272Y609653D01*
X1517277Y609605D01*
X1517274Y609529D01*
X1517467Y607822D01*
X1517481Y607775D01*
X1517493Y607700D01*
X1518016Y606063D01*
X1518038Y606021D01*
X1518065Y605949D01*
X1518897Y604446D01*
X1518904Y604438D01*
X1518906Y604431D01*
X1518928Y604407D01*
X1518967Y604344D01*
X1520076Y603032D01*
X1520113Y603001D01*
X1520166Y602945D01*
X1521509Y601875D01*
X1521552Y601852D01*
X1521614Y601807D01*
X1523140Y601019D01*
X1523186Y601005D01*
X1523256Y600973D01*
X1524907Y600498D01*
X1524955Y600493D01*
X1525029Y600476D01*
X1526741Y600332D01*
X1526791Y600337D01*
G37*
G36*
X1166111Y600337D02*
X1166111Y600337D01*
X1166204Y600336D01*
X1167906Y600579D01*
X1167951Y600594D01*
X1168027Y600608D01*
X1169649Y601178D01*
X1169691Y601202D01*
X1169761Y601231D01*
X1171241Y602107D01*
X1171278Y602138D01*
X1171342Y602180D01*
X1172622Y603328D01*
X1172652Y603366D01*
X1172706Y603419D01*
X1173738Y604795D01*
X1173760Y604838D01*
X1173803Y604901D01*
X1174547Y606451D01*
X1174559Y606498D01*
X1174589Y606568D01*
X1175016Y608234D01*
X1175020Y608282D01*
X1175035Y608356D01*
X1175129Y610073D01*
X1175123Y610121D01*
X1175124Y610198D01*
X1174887Y611851D01*
X1174882Y611865D01*
X1174882Y611877D01*
X1174870Y611906D01*
X1174857Y611972D01*
X1174302Y613547D01*
X1174279Y613589D01*
X1174250Y613660D01*
X1173398Y615096D01*
X1173366Y615133D01*
X1173324Y615197D01*
X1172208Y616439D01*
X1172170Y616469D01*
X1172116Y616523D01*
X1170779Y617524D01*
X1170736Y617545D01*
X1170673Y617588D01*
X1169166Y618308D01*
X1169119Y618321D01*
X1169049Y618351D01*
X1167430Y618763D01*
X1167382Y618766D01*
X1167307Y618781D01*
X1165639Y618869D01*
X1165597Y618864D01*
X1165534Y618866D01*
X1163877Y618678D01*
X1163831Y618664D01*
X1163755Y618652D01*
X1162166Y618144D01*
X1162124Y618121D01*
X1162052Y618095D01*
X1160593Y617286D01*
X1160555Y617256D01*
X1160490Y617216D01*
X1159217Y616138D01*
X1159186Y616101D01*
X1159130Y616049D01*
X1158091Y614744D01*
X1158068Y614701D01*
X1158024Y614639D01*
X1157259Y613157D01*
X1157245Y613111D01*
X1157213Y613041D01*
X1156753Y611438D01*
X1156748Y611390D01*
X1156731Y611315D01*
X1156592Y609653D01*
X1156597Y609605D01*
X1156594Y609529D01*
X1156787Y607822D01*
X1156801Y607775D01*
X1156813Y607700D01*
X1157336Y606063D01*
X1157358Y606021D01*
X1157385Y605949D01*
X1158217Y604446D01*
X1158224Y604438D01*
X1158226Y604431D01*
X1158248Y604407D01*
X1158287Y604344D01*
X1159396Y603032D01*
X1159433Y603001D01*
X1159486Y602945D01*
X1160829Y601875D01*
X1160872Y601852D01*
X1160934Y601807D01*
X1162460Y601019D01*
X1162506Y601005D01*
X1162576Y600973D01*
X1164227Y600498D01*
X1164275Y600493D01*
X1164349Y600476D01*
X1166061Y600332D01*
X1166111Y600337D01*
G37*
G36*
X1597911Y600337D02*
X1597911Y600337D01*
X1598004Y600336D01*
X1599706Y600579D01*
X1599751Y600594D01*
X1599827Y600608D01*
X1601449Y601178D01*
X1601491Y601202D01*
X1601561Y601231D01*
X1603041Y602107D01*
X1603078Y602138D01*
X1603142Y602180D01*
X1604422Y603328D01*
X1604452Y603366D01*
X1604506Y603419D01*
X1605538Y604795D01*
X1605560Y604838D01*
X1605603Y604901D01*
X1606347Y606451D01*
X1606359Y606498D01*
X1606389Y606568D01*
X1606816Y608234D01*
X1606820Y608282D01*
X1606835Y608356D01*
X1606929Y610073D01*
X1606923Y610121D01*
X1606924Y610198D01*
X1606687Y611851D01*
X1606682Y611865D01*
X1606682Y611877D01*
X1606670Y611906D01*
X1606657Y611972D01*
X1606102Y613547D01*
X1606079Y613589D01*
X1606050Y613660D01*
X1605198Y615096D01*
X1605166Y615133D01*
X1605124Y615197D01*
X1604008Y616439D01*
X1603970Y616469D01*
X1603916Y616523D01*
X1602579Y617524D01*
X1602536Y617545D01*
X1602473Y617588D01*
X1600966Y618308D01*
X1600919Y618321D01*
X1600849Y618351D01*
X1599230Y618763D01*
X1599182Y618766D01*
X1599107Y618781D01*
X1597439Y618869D01*
X1597397Y618864D01*
X1597334Y618866D01*
X1595677Y618678D01*
X1595631Y618664D01*
X1595555Y618652D01*
X1593966Y618144D01*
X1593924Y618121D01*
X1593852Y618095D01*
X1592393Y617286D01*
X1592355Y617256D01*
X1592290Y617216D01*
X1591017Y616138D01*
X1590986Y616101D01*
X1590930Y616049D01*
X1589891Y614744D01*
X1589868Y614701D01*
X1589824Y614639D01*
X1589059Y613157D01*
X1589045Y613111D01*
X1589013Y613041D01*
X1588553Y611438D01*
X1588548Y611390D01*
X1588531Y611315D01*
X1588392Y609653D01*
X1588397Y609605D01*
X1588394Y609529D01*
X1588587Y607822D01*
X1588601Y607775D01*
X1588613Y607700D01*
X1589136Y606063D01*
X1589158Y606021D01*
X1589185Y605949D01*
X1590017Y604446D01*
X1590024Y604438D01*
X1590026Y604431D01*
X1590048Y604407D01*
X1590087Y604344D01*
X1591196Y603032D01*
X1591233Y603001D01*
X1591286Y602945D01*
X1592629Y601875D01*
X1592672Y601852D01*
X1592734Y601807D01*
X1594260Y601019D01*
X1594306Y601005D01*
X1594376Y600973D01*
X1596027Y600498D01*
X1596075Y600493D01*
X1596149Y600476D01*
X1597861Y600332D01*
X1597911Y600337D01*
G37*
G36*
X774848Y415273D02*
X774848Y415273D01*
X774939Y415272D01*
X775903Y415403D01*
X775951Y415419D01*
X776040Y415438D01*
X776951Y415780D01*
X776994Y415806D01*
X777078Y415845D01*
X777889Y416382D01*
X777925Y416417D01*
X777998Y416473D01*
X778670Y417177D01*
X778698Y417219D01*
X778756Y417290D01*
X779254Y418126D01*
X779255Y418129D01*
X779257Y418131D01*
X779263Y418150D01*
X779272Y418173D01*
X779312Y418255D01*
X779612Y419181D01*
X779619Y419231D01*
X779641Y419320D01*
X779727Y420289D01*
X779723Y420336D01*
X779726Y420411D01*
X779624Y421387D01*
X779610Y421435D01*
X779594Y421525D01*
X779278Y422454D01*
X779254Y422498D01*
X779217Y422583D01*
X778703Y423418D01*
X778669Y423455D01*
X778615Y423530D01*
X777927Y424230D01*
X777886Y424259D01*
X777817Y424319D01*
X776990Y424848D01*
X776944Y424867D01*
X776863Y424911D01*
X775940Y425243D01*
X775890Y425251D01*
X775801Y425276D01*
X774827Y425394D01*
X774777Y425391D01*
X774691Y425395D01*
X773689Y425300D01*
X773640Y425286D01*
X773550Y425270D01*
X772594Y424954D01*
X772549Y424930D01*
X772465Y424895D01*
X771604Y424373D01*
X771566Y424340D01*
X771491Y424287D01*
X770767Y423587D01*
X770738Y423546D01*
X770677Y423477D01*
X770127Y422634D01*
X770107Y422588D01*
X770063Y422507D01*
X769715Y421563D01*
X769706Y421513D01*
X769681Y421425D01*
X769551Y420427D01*
X769553Y420384D01*
X769552Y420258D01*
X769691Y419247D01*
X769707Y419199D01*
X769726Y419109D01*
X770088Y418154D01*
X770114Y418111D01*
X770153Y418027D01*
X770717Y417177D01*
X770752Y417140D01*
X770809Y417068D01*
X771549Y416364D01*
X771591Y416336D01*
X771662Y416278D01*
X772540Y415757D01*
X772587Y415739D01*
X772669Y415698D01*
X773641Y415385D01*
X773691Y415378D01*
X773780Y415357D01*
X774798Y415268D01*
X774848Y415273D01*
G37*
G36*
X533548Y414003D02*
X533548Y414003D01*
X533639Y414002D01*
X534603Y414133D01*
X534651Y414149D01*
X534740Y414168D01*
X535651Y414510D01*
X535694Y414536D01*
X535778Y414575D01*
X536589Y415112D01*
X536625Y415147D01*
X536698Y415203D01*
X537370Y415907D01*
X537398Y415949D01*
X537456Y416020D01*
X537954Y416856D01*
X537955Y416859D01*
X537957Y416861D01*
X537963Y416880D01*
X537972Y416903D01*
X538012Y416985D01*
X538312Y417911D01*
X538319Y417961D01*
X538341Y418050D01*
X538427Y419019D01*
X538423Y419066D01*
X538426Y419141D01*
X538324Y420117D01*
X538310Y420165D01*
X538294Y420255D01*
X537978Y421184D01*
X537954Y421228D01*
X537917Y421313D01*
X537403Y422148D01*
X537369Y422185D01*
X537315Y422260D01*
X536627Y422960D01*
X536586Y422989D01*
X536517Y423049D01*
X535690Y423578D01*
X535644Y423597D01*
X535563Y423641D01*
X534640Y423973D01*
X534590Y423981D01*
X534501Y424006D01*
X533527Y424124D01*
X533477Y424121D01*
X533391Y424125D01*
X532389Y424030D01*
X532340Y424016D01*
X532250Y424000D01*
X531294Y423684D01*
X531249Y423660D01*
X531165Y423625D01*
X530304Y423103D01*
X530266Y423070D01*
X530191Y423017D01*
X529467Y422317D01*
X529438Y422276D01*
X529377Y422207D01*
X528827Y421364D01*
X528807Y421318D01*
X528763Y421237D01*
X528415Y420293D01*
X528406Y420243D01*
X528381Y420155D01*
X528251Y419157D01*
X528253Y419114D01*
X528252Y418988D01*
X528391Y417977D01*
X528407Y417929D01*
X528426Y417839D01*
X528788Y416884D01*
X528814Y416841D01*
X528853Y416757D01*
X529417Y415907D01*
X529452Y415870D01*
X529509Y415798D01*
X530249Y415094D01*
X530291Y415066D01*
X530362Y415008D01*
X531240Y414487D01*
X531287Y414469D01*
X531369Y414428D01*
X532341Y414115D01*
X532391Y414108D01*
X532480Y414087D01*
X533498Y413998D01*
X533548Y414003D01*
G37*
G36*
X774848Y387282D02*
X774848Y387282D01*
X774939Y387281D01*
X775903Y387412D01*
X775951Y387428D01*
X776040Y387447D01*
X776951Y387789D01*
X776994Y387815D01*
X777078Y387854D01*
X777889Y388391D01*
X777925Y388426D01*
X777998Y388482D01*
X778670Y389186D01*
X778698Y389228D01*
X778756Y389299D01*
X779254Y390135D01*
X779255Y390138D01*
X779257Y390140D01*
X779263Y390159D01*
X779272Y390182D01*
X779312Y390264D01*
X779612Y391190D01*
X779619Y391240D01*
X779641Y391329D01*
X779727Y392298D01*
X779723Y392345D01*
X779726Y392420D01*
X779624Y393396D01*
X779610Y393444D01*
X779594Y393534D01*
X779278Y394463D01*
X779254Y394507D01*
X779217Y394592D01*
X778703Y395427D01*
X778669Y395464D01*
X778615Y395539D01*
X777927Y396239D01*
X777886Y396268D01*
X777817Y396328D01*
X776990Y396857D01*
X776944Y396876D01*
X776863Y396920D01*
X775940Y397252D01*
X775890Y397260D01*
X775801Y397285D01*
X774827Y397403D01*
X774777Y397400D01*
X774691Y397404D01*
X773689Y397309D01*
X773640Y397295D01*
X773550Y397279D01*
X772594Y396963D01*
X772549Y396939D01*
X772465Y396904D01*
X771604Y396382D01*
X771566Y396349D01*
X771491Y396296D01*
X770767Y395596D01*
X770738Y395555D01*
X770677Y395486D01*
X770127Y394643D01*
X770107Y394597D01*
X770063Y394516D01*
X769715Y393572D01*
X769706Y393522D01*
X769681Y393434D01*
X769551Y392436D01*
X769553Y392393D01*
X769552Y392267D01*
X769691Y391256D01*
X769707Y391208D01*
X769726Y391118D01*
X770088Y390163D01*
X770114Y390120D01*
X770153Y390036D01*
X770717Y389186D01*
X770752Y389149D01*
X770809Y389077D01*
X771549Y388373D01*
X771591Y388345D01*
X771662Y388287D01*
X772540Y387766D01*
X772587Y387748D01*
X772669Y387707D01*
X773641Y387394D01*
X773691Y387387D01*
X773780Y387366D01*
X774798Y387277D01*
X774848Y387282D01*
G37*
G36*
X533548Y386012D02*
X533548Y386012D01*
X533639Y386011D01*
X534603Y386142D01*
X534651Y386158D01*
X534740Y386177D01*
X535651Y386519D01*
X535694Y386545D01*
X535778Y386584D01*
X536589Y387121D01*
X536625Y387156D01*
X536698Y387212D01*
X537370Y387916D01*
X537398Y387958D01*
X537456Y388029D01*
X537954Y388865D01*
X537955Y388868D01*
X537957Y388870D01*
X537963Y388889D01*
X537972Y388912D01*
X538012Y388994D01*
X538312Y389920D01*
X538319Y389970D01*
X538341Y390059D01*
X538427Y391028D01*
X538423Y391075D01*
X538426Y391150D01*
X538324Y392126D01*
X538310Y392174D01*
X538294Y392264D01*
X537978Y393193D01*
X537954Y393237D01*
X537917Y393322D01*
X537403Y394157D01*
X537369Y394194D01*
X537315Y394269D01*
X536627Y394969D01*
X536586Y394998D01*
X536517Y395058D01*
X535690Y395587D01*
X535644Y395606D01*
X535563Y395650D01*
X534640Y395982D01*
X534590Y395990D01*
X534501Y396015D01*
X533527Y396133D01*
X533477Y396130D01*
X533391Y396134D01*
X532389Y396039D01*
X532340Y396025D01*
X532250Y396009D01*
X531294Y395693D01*
X531249Y395669D01*
X531165Y395634D01*
X530304Y395112D01*
X530266Y395079D01*
X530191Y395026D01*
X529467Y394326D01*
X529438Y394285D01*
X529377Y394216D01*
X528827Y393373D01*
X528807Y393327D01*
X528763Y393246D01*
X528415Y392302D01*
X528406Y392252D01*
X528381Y392164D01*
X528251Y391166D01*
X528253Y391123D01*
X528252Y390997D01*
X528391Y389986D01*
X528407Y389938D01*
X528426Y389848D01*
X528788Y388893D01*
X528814Y388850D01*
X528853Y388766D01*
X529417Y387916D01*
X529452Y387879D01*
X529509Y387807D01*
X530249Y387103D01*
X530291Y387075D01*
X530362Y387017D01*
X531240Y386496D01*
X531287Y386478D01*
X531369Y386437D01*
X532341Y386124D01*
X532391Y386117D01*
X532480Y386096D01*
X533498Y386007D01*
X533548Y386012D01*
G37*
G36*
X922941Y666093D02*
X922941Y666093D01*
X923067Y666092D01*
X924078Y666231D01*
X924126Y666247D01*
X924216Y666266D01*
X925171Y666628D01*
X925214Y666654D01*
X925298Y666693D01*
X926148Y667257D01*
X926185Y667292D01*
X926257Y667349D01*
X926961Y668089D01*
X926989Y668131D01*
X927047Y668202D01*
X927568Y669080D01*
X927586Y669127D01*
X927627Y669209D01*
X927940Y670181D01*
X927947Y670231D01*
X927968Y670320D01*
X928057Y671338D01*
X928052Y671388D01*
X928053Y671479D01*
X927922Y672443D01*
X927906Y672491D01*
X927887Y672580D01*
X927545Y673491D01*
X927519Y673534D01*
X927480Y673618D01*
X926943Y674429D01*
X926908Y674465D01*
X926852Y674538D01*
X926148Y675210D01*
X926106Y675238D01*
X926035Y675296D01*
X925200Y675794D01*
X925152Y675812D01*
X925070Y675852D01*
X924145Y676152D01*
X924094Y676159D01*
X924005Y676181D01*
X923036Y676267D01*
X922989Y676263D01*
X922914Y676266D01*
X921938Y676164D01*
X921890Y676150D01*
X921800Y676134D01*
X920871Y675818D01*
X920827Y675794D01*
X920742Y675757D01*
X919907Y675243D01*
X919870Y675209D01*
X919795Y675155D01*
X919096Y674467D01*
X919066Y674426D01*
X919006Y674357D01*
X918477Y673530D01*
X918458Y673484D01*
X918414Y673403D01*
X918082Y672480D01*
X918074Y672430D01*
X918049Y672341D01*
X917931Y671367D01*
X917934Y671317D01*
X917930Y671231D01*
X918025Y670229D01*
X918039Y670180D01*
X918055Y670090D01*
X918371Y669134D01*
X918395Y669089D01*
X918431Y669005D01*
X918952Y668144D01*
X918985Y668106D01*
X919038Y668031D01*
X919738Y667307D01*
X919779Y667278D01*
X919848Y667217D01*
X920691Y666667D01*
X920737Y666647D01*
X920818Y666603D01*
X921762Y666255D01*
X921812Y666246D01*
X921900Y666221D01*
X922898Y666091D01*
X922941Y666093D01*
G37*
G36*
X821341Y666093D02*
X821341Y666093D01*
X821467Y666092D01*
X822478Y666231D01*
X822526Y666247D01*
X822616Y666266D01*
X823571Y666628D01*
X823614Y666654D01*
X823698Y666693D01*
X824548Y667257D01*
X824585Y667292D01*
X824657Y667349D01*
X825361Y668089D01*
X825389Y668131D01*
X825447Y668202D01*
X825968Y669080D01*
X825986Y669127D01*
X826027Y669209D01*
X826340Y670181D01*
X826347Y670231D01*
X826368Y670320D01*
X826457Y671338D01*
X826452Y671388D01*
X826453Y671479D01*
X826322Y672443D01*
X826306Y672491D01*
X826287Y672580D01*
X825945Y673491D01*
X825919Y673534D01*
X825880Y673618D01*
X825343Y674429D01*
X825308Y674465D01*
X825252Y674538D01*
X824548Y675210D01*
X824506Y675238D01*
X824435Y675296D01*
X823600Y675794D01*
X823552Y675812D01*
X823470Y675852D01*
X822545Y676152D01*
X822494Y676159D01*
X822405Y676181D01*
X821436Y676267D01*
X821389Y676263D01*
X821314Y676266D01*
X820338Y676164D01*
X820290Y676150D01*
X820200Y676134D01*
X819271Y675818D01*
X819227Y675794D01*
X819142Y675757D01*
X818307Y675243D01*
X818270Y675209D01*
X818195Y675155D01*
X817496Y674467D01*
X817466Y674426D01*
X817406Y674357D01*
X816877Y673530D01*
X816858Y673484D01*
X816814Y673403D01*
X816482Y672480D01*
X816474Y672430D01*
X816449Y672341D01*
X816331Y671367D01*
X816334Y671317D01*
X816330Y671231D01*
X816425Y670229D01*
X816439Y670180D01*
X816455Y670090D01*
X816771Y669134D01*
X816795Y669089D01*
X816831Y669005D01*
X817352Y668144D01*
X817385Y668106D01*
X817438Y668031D01*
X818138Y667307D01*
X818179Y667278D01*
X818248Y667217D01*
X819091Y666667D01*
X819137Y666647D01*
X819218Y666603D01*
X820162Y666255D01*
X820212Y666246D01*
X820300Y666221D01*
X821298Y666091D01*
X821341Y666093D01*
G37*
G36*
X948341Y666093D02*
X948341Y666093D01*
X948467Y666092D01*
X949478Y666231D01*
X949526Y666247D01*
X949616Y666266D01*
X950571Y666628D01*
X950614Y666654D01*
X950698Y666693D01*
X951548Y667257D01*
X951585Y667292D01*
X951657Y667349D01*
X952361Y668089D01*
X952389Y668131D01*
X952447Y668202D01*
X952968Y669080D01*
X952986Y669127D01*
X953027Y669209D01*
X953340Y670181D01*
X953347Y670231D01*
X953368Y670320D01*
X953457Y671338D01*
X953452Y671388D01*
X953453Y671479D01*
X953322Y672443D01*
X953306Y672491D01*
X953287Y672580D01*
X952945Y673491D01*
X952919Y673534D01*
X952880Y673618D01*
X952343Y674429D01*
X952308Y674465D01*
X952252Y674538D01*
X951548Y675210D01*
X951506Y675238D01*
X951435Y675296D01*
X950600Y675794D01*
X950552Y675812D01*
X950470Y675852D01*
X949545Y676152D01*
X949494Y676159D01*
X949405Y676181D01*
X948436Y676267D01*
X948389Y676263D01*
X948314Y676266D01*
X947338Y676164D01*
X947290Y676150D01*
X947200Y676134D01*
X946271Y675818D01*
X946227Y675794D01*
X946142Y675757D01*
X945307Y675243D01*
X945270Y675209D01*
X945195Y675155D01*
X944496Y674467D01*
X944466Y674426D01*
X944406Y674357D01*
X943877Y673530D01*
X943858Y673484D01*
X943814Y673403D01*
X943482Y672480D01*
X943474Y672430D01*
X943449Y672341D01*
X943331Y671367D01*
X943334Y671317D01*
X943330Y671231D01*
X943425Y670229D01*
X943439Y670180D01*
X943455Y670090D01*
X943771Y669134D01*
X943795Y669089D01*
X943831Y669005D01*
X944352Y668144D01*
X944385Y668106D01*
X944438Y668031D01*
X945138Y667307D01*
X945179Y667278D01*
X945248Y667217D01*
X946091Y666667D01*
X946137Y666647D01*
X946218Y666603D01*
X947162Y666255D01*
X947212Y666246D01*
X947300Y666221D01*
X948298Y666091D01*
X948341Y666093D01*
G37*
G36*
X872141Y666093D02*
X872141Y666093D01*
X872267Y666092D01*
X873278Y666231D01*
X873326Y666247D01*
X873416Y666266D01*
X874371Y666628D01*
X874414Y666654D01*
X874498Y666693D01*
X875348Y667257D01*
X875385Y667292D01*
X875457Y667349D01*
X876161Y668089D01*
X876189Y668131D01*
X876247Y668202D01*
X876768Y669080D01*
X876786Y669127D01*
X876827Y669209D01*
X877140Y670181D01*
X877147Y670231D01*
X877168Y670320D01*
X877257Y671338D01*
X877252Y671388D01*
X877253Y671479D01*
X877122Y672443D01*
X877106Y672491D01*
X877087Y672580D01*
X876745Y673491D01*
X876719Y673534D01*
X876680Y673618D01*
X876143Y674429D01*
X876108Y674465D01*
X876052Y674538D01*
X875348Y675210D01*
X875306Y675238D01*
X875235Y675296D01*
X874400Y675794D01*
X874352Y675812D01*
X874270Y675852D01*
X873345Y676152D01*
X873294Y676159D01*
X873205Y676181D01*
X872236Y676267D01*
X872189Y676263D01*
X872114Y676266D01*
X871138Y676164D01*
X871090Y676150D01*
X871000Y676134D01*
X870071Y675818D01*
X870027Y675794D01*
X869942Y675757D01*
X869107Y675243D01*
X869070Y675209D01*
X868995Y675155D01*
X868296Y674467D01*
X868266Y674426D01*
X868206Y674357D01*
X867677Y673530D01*
X867658Y673484D01*
X867614Y673403D01*
X867282Y672480D01*
X867274Y672430D01*
X867249Y672341D01*
X867131Y671367D01*
X867134Y671317D01*
X867130Y671231D01*
X867225Y670229D01*
X867239Y670180D01*
X867255Y670090D01*
X867571Y669134D01*
X867595Y669089D01*
X867631Y669005D01*
X868152Y668144D01*
X868185Y668106D01*
X868238Y668031D01*
X868938Y667307D01*
X868979Y667278D01*
X869048Y667217D01*
X869891Y666667D01*
X869937Y666647D01*
X870018Y666603D01*
X870962Y666255D01*
X871012Y666246D01*
X871100Y666221D01*
X872098Y666091D01*
X872141Y666093D01*
G37*
G36*
X897541Y666093D02*
X897541Y666093D01*
X897667Y666092D01*
X898678Y666231D01*
X898726Y666247D01*
X898816Y666266D01*
X899771Y666628D01*
X899814Y666654D01*
X899898Y666693D01*
X900748Y667257D01*
X900785Y667292D01*
X900857Y667349D01*
X901561Y668089D01*
X901589Y668131D01*
X901647Y668202D01*
X902168Y669080D01*
X902186Y669127D01*
X902227Y669209D01*
X902540Y670181D01*
X902547Y670231D01*
X902568Y670320D01*
X902657Y671338D01*
X902652Y671388D01*
X902653Y671479D01*
X902522Y672443D01*
X902506Y672491D01*
X902487Y672580D01*
X902145Y673491D01*
X902119Y673534D01*
X902080Y673618D01*
X901543Y674429D01*
X901508Y674465D01*
X901452Y674538D01*
X900748Y675210D01*
X900706Y675238D01*
X900635Y675296D01*
X899800Y675794D01*
X899752Y675812D01*
X899670Y675852D01*
X898745Y676152D01*
X898694Y676159D01*
X898605Y676181D01*
X897636Y676267D01*
X897589Y676263D01*
X897514Y676266D01*
X896538Y676164D01*
X896490Y676150D01*
X896400Y676134D01*
X895471Y675818D01*
X895427Y675794D01*
X895342Y675757D01*
X894507Y675243D01*
X894470Y675209D01*
X894395Y675155D01*
X893696Y674467D01*
X893666Y674426D01*
X893606Y674357D01*
X893077Y673530D01*
X893058Y673484D01*
X893014Y673403D01*
X892682Y672480D01*
X892674Y672430D01*
X892649Y672341D01*
X892531Y671367D01*
X892534Y671317D01*
X892530Y671231D01*
X892625Y670229D01*
X892639Y670180D01*
X892655Y670090D01*
X892971Y669134D01*
X892995Y669089D01*
X893031Y669005D01*
X893552Y668144D01*
X893585Y668106D01*
X893638Y668031D01*
X894338Y667307D01*
X894379Y667278D01*
X894448Y667217D01*
X895291Y666667D01*
X895337Y666647D01*
X895418Y666603D01*
X896362Y666255D01*
X896412Y666246D01*
X896500Y666221D01*
X897498Y666091D01*
X897541Y666093D01*
G37*
G36*
X846741Y666093D02*
X846741Y666093D01*
X846867Y666092D01*
X847878Y666231D01*
X847926Y666247D01*
X848016Y666266D01*
X848971Y666628D01*
X849014Y666654D01*
X849098Y666693D01*
X849948Y667257D01*
X849985Y667292D01*
X850057Y667349D01*
X850761Y668089D01*
X850789Y668131D01*
X850847Y668202D01*
X851368Y669080D01*
X851386Y669127D01*
X851427Y669209D01*
X851740Y670181D01*
X851747Y670231D01*
X851768Y670320D01*
X851857Y671338D01*
X851852Y671388D01*
X851853Y671479D01*
X851722Y672443D01*
X851706Y672491D01*
X851687Y672580D01*
X851345Y673491D01*
X851319Y673534D01*
X851280Y673618D01*
X850743Y674429D01*
X850708Y674465D01*
X850652Y674538D01*
X849948Y675210D01*
X849906Y675238D01*
X849835Y675296D01*
X849000Y675794D01*
X848952Y675812D01*
X848870Y675852D01*
X847945Y676152D01*
X847894Y676159D01*
X847805Y676181D01*
X846836Y676267D01*
X846789Y676263D01*
X846714Y676266D01*
X845738Y676164D01*
X845690Y676150D01*
X845600Y676134D01*
X844671Y675818D01*
X844627Y675794D01*
X844542Y675757D01*
X843707Y675243D01*
X843670Y675209D01*
X843595Y675155D01*
X842896Y674467D01*
X842866Y674426D01*
X842806Y674357D01*
X842277Y673530D01*
X842258Y673484D01*
X842214Y673403D01*
X841882Y672480D01*
X841874Y672430D01*
X841849Y672341D01*
X841731Y671367D01*
X841734Y671317D01*
X841730Y671231D01*
X841825Y670229D01*
X841839Y670180D01*
X841855Y670090D01*
X842171Y669134D01*
X842195Y669089D01*
X842231Y669005D01*
X842752Y668144D01*
X842785Y668106D01*
X842838Y668031D01*
X843538Y667307D01*
X843579Y667278D01*
X843648Y667217D01*
X844491Y666667D01*
X844537Y666647D01*
X844618Y666603D01*
X845562Y666255D01*
X845612Y666246D01*
X845700Y666221D01*
X846698Y666091D01*
X846741Y666093D01*
G37*
G36*
X928407Y553653D02*
X928407Y553653D01*
X928533Y553652D01*
X929544Y553791D01*
X929592Y553807D01*
X929682Y553826D01*
X930637Y554188D01*
X930680Y554214D01*
X930764Y554253D01*
X931614Y554817D01*
X931651Y554852D01*
X931723Y554909D01*
X932427Y555649D01*
X932455Y555691D01*
X932513Y555762D01*
X933034Y556640D01*
X933052Y556687D01*
X933093Y556769D01*
X933406Y557741D01*
X933413Y557791D01*
X933434Y557880D01*
X933523Y558898D01*
X933518Y558948D01*
X933519Y559039D01*
X933388Y560003D01*
X933372Y560051D01*
X933353Y560140D01*
X933011Y561051D01*
X932985Y561094D01*
X932946Y561178D01*
X932409Y561989D01*
X932374Y562025D01*
X932318Y562098D01*
X931614Y562770D01*
X931572Y562798D01*
X931501Y562856D01*
X930666Y563354D01*
X930618Y563372D01*
X930536Y563412D01*
X929611Y563712D01*
X929560Y563719D01*
X929471Y563741D01*
X928502Y563827D01*
X928455Y563823D01*
X928380Y563826D01*
X927404Y563724D01*
X927356Y563710D01*
X927266Y563694D01*
X926337Y563378D01*
X926293Y563354D01*
X926208Y563317D01*
X925373Y562803D01*
X925336Y562769D01*
X925261Y562715D01*
X924562Y562027D01*
X924532Y561986D01*
X924472Y561917D01*
X923943Y561090D01*
X923924Y561044D01*
X923880Y560963D01*
X923548Y560040D01*
X923540Y559990D01*
X923515Y559901D01*
X923397Y558927D01*
X923400Y558877D01*
X923396Y558791D01*
X923491Y557789D01*
X923505Y557740D01*
X923521Y557650D01*
X923837Y556694D01*
X923861Y556649D01*
X923897Y556565D01*
X924418Y555704D01*
X924451Y555666D01*
X924504Y555591D01*
X925204Y554867D01*
X925245Y554838D01*
X925314Y554777D01*
X926157Y554227D01*
X926203Y554207D01*
X926284Y554163D01*
X927228Y553815D01*
X927278Y553806D01*
X927366Y553781D01*
X928364Y553651D01*
X928407Y553653D01*
G37*
G36*
X900416Y553653D02*
X900416Y553653D01*
X900542Y553652D01*
X901553Y553791D01*
X901601Y553807D01*
X901691Y553826D01*
X902646Y554188D01*
X902689Y554214D01*
X902773Y554253D01*
X903623Y554817D01*
X903660Y554852D01*
X903732Y554909D01*
X904436Y555649D01*
X904464Y555691D01*
X904522Y555762D01*
X905043Y556640D01*
X905061Y556687D01*
X905102Y556769D01*
X905415Y557741D01*
X905422Y557791D01*
X905443Y557880D01*
X905532Y558898D01*
X905527Y558948D01*
X905528Y559039D01*
X905397Y560003D01*
X905381Y560051D01*
X905362Y560140D01*
X905020Y561051D01*
X904994Y561094D01*
X904955Y561178D01*
X904418Y561989D01*
X904383Y562025D01*
X904327Y562098D01*
X903623Y562770D01*
X903581Y562798D01*
X903510Y562856D01*
X902675Y563354D01*
X902627Y563372D01*
X902545Y563412D01*
X901620Y563712D01*
X901569Y563719D01*
X901480Y563741D01*
X900511Y563827D01*
X900464Y563823D01*
X900389Y563826D01*
X899413Y563724D01*
X899365Y563710D01*
X899275Y563694D01*
X898346Y563378D01*
X898302Y563354D01*
X898217Y563317D01*
X897382Y562803D01*
X897345Y562769D01*
X897270Y562715D01*
X896571Y562027D01*
X896541Y561986D01*
X896481Y561917D01*
X895952Y561090D01*
X895933Y561044D01*
X895889Y560963D01*
X895557Y560040D01*
X895549Y559990D01*
X895524Y559901D01*
X895406Y558927D01*
X895409Y558877D01*
X895405Y558791D01*
X895500Y557789D01*
X895514Y557740D01*
X895530Y557650D01*
X895846Y556694D01*
X895870Y556649D01*
X895906Y556565D01*
X896427Y555704D01*
X896460Y555666D01*
X896513Y555591D01*
X897213Y554867D01*
X897254Y554838D01*
X897323Y554777D01*
X898166Y554227D01*
X898212Y554207D01*
X898293Y554163D01*
X899237Y553815D01*
X899287Y553806D01*
X899375Y553781D01*
X900373Y553651D01*
X900416Y553653D01*
G37*
G36*
X1663691Y555530D02*
X1663691Y555530D01*
X1663766Y555527D01*
X1664742Y555629D01*
X1664790Y555643D01*
X1664880Y555659D01*
X1665809Y555975D01*
X1665853Y556000D01*
X1665938Y556036D01*
X1666773Y556550D01*
X1666810Y556584D01*
X1666885Y556638D01*
X1667585Y557326D01*
X1667614Y557367D01*
X1667674Y557436D01*
X1668203Y558263D01*
X1668222Y558309D01*
X1668266Y558390D01*
X1668598Y559313D01*
X1668606Y559363D01*
X1668631Y559452D01*
X1668749Y560426D01*
X1668746Y560476D01*
X1668750Y560562D01*
X1668655Y561564D01*
X1668641Y561613D01*
X1668625Y561703D01*
X1668309Y562659D01*
X1668285Y562704D01*
X1668250Y562788D01*
X1667728Y563649D01*
X1667695Y563687D01*
X1667642Y563762D01*
X1666942Y564486D01*
X1666901Y564515D01*
X1666832Y564576D01*
X1665989Y565126D01*
X1665943Y565146D01*
X1665862Y565190D01*
X1664918Y565538D01*
X1664868Y565547D01*
X1664780Y565572D01*
X1663782Y565702D01*
X1663739Y565700D01*
X1663613Y565701D01*
X1662602Y565562D01*
X1662554Y565546D01*
X1662464Y565527D01*
X1661509Y565165D01*
X1661466Y565139D01*
X1661382Y565101D01*
X1660532Y564536D01*
X1660495Y564501D01*
X1660423Y564444D01*
X1659719Y563705D01*
X1659691Y563662D01*
X1659633Y563591D01*
X1659112Y562713D01*
X1659094Y562666D01*
X1659053Y562584D01*
X1658740Y561612D01*
X1658733Y561562D01*
X1658712Y561473D01*
X1658623Y560455D01*
X1658628Y560405D01*
X1658627Y560314D01*
X1658758Y559350D01*
X1658774Y559302D01*
X1658793Y559213D01*
X1659135Y558302D01*
X1659161Y558259D01*
X1659200Y558176D01*
X1659737Y557364D01*
X1659772Y557328D01*
X1659828Y557255D01*
X1660532Y556583D01*
X1660574Y556556D01*
X1660645Y556497D01*
X1661481Y555999D01*
X1661528Y555981D01*
X1661610Y555941D01*
X1662536Y555641D01*
X1662586Y555634D01*
X1662675Y555612D01*
X1663644Y555526D01*
X1663691Y555530D01*
G37*
G36*
X1663793Y528301D02*
X1663793Y528301D01*
X1663868Y528298D01*
X1664844Y528400D01*
X1664892Y528414D01*
X1664982Y528430D01*
X1665911Y528746D01*
X1665955Y528771D01*
X1666040Y528807D01*
X1666875Y529321D01*
X1666912Y529355D01*
X1666987Y529409D01*
X1667687Y530097D01*
X1667716Y530138D01*
X1667776Y530207D01*
X1668305Y531034D01*
X1668324Y531080D01*
X1668368Y531161D01*
X1668700Y532084D01*
X1668708Y532134D01*
X1668733Y532223D01*
X1668851Y533197D01*
X1668848Y533247D01*
X1668852Y533333D01*
X1668757Y534335D01*
X1668743Y534384D01*
X1668727Y534474D01*
X1668411Y535430D01*
X1668387Y535475D01*
X1668352Y535559D01*
X1667830Y536420D01*
X1667797Y536458D01*
X1667744Y536533D01*
X1667044Y537257D01*
X1667003Y537286D01*
X1666934Y537347D01*
X1666091Y537897D01*
X1666045Y537917D01*
X1665964Y537961D01*
X1665020Y538309D01*
X1664970Y538318D01*
X1664882Y538343D01*
X1663884Y538473D01*
X1663841Y538471D01*
X1663715Y538472D01*
X1662704Y538333D01*
X1662656Y538317D01*
X1662566Y538298D01*
X1661611Y537936D01*
X1661568Y537910D01*
X1661484Y537872D01*
X1660634Y537307D01*
X1660597Y537272D01*
X1660525Y537215D01*
X1659821Y536476D01*
X1659793Y536433D01*
X1659735Y536362D01*
X1659214Y535484D01*
X1659196Y535437D01*
X1659155Y535355D01*
X1658842Y534383D01*
X1658835Y534333D01*
X1658814Y534244D01*
X1658725Y533226D01*
X1658730Y533176D01*
X1658729Y533085D01*
X1658860Y532121D01*
X1658876Y532073D01*
X1658895Y531984D01*
X1659237Y531073D01*
X1659263Y531030D01*
X1659302Y530947D01*
X1659839Y530135D01*
X1659874Y530099D01*
X1659930Y530026D01*
X1660634Y529354D01*
X1660676Y529327D01*
X1660747Y529268D01*
X1661583Y528770D01*
X1661630Y528752D01*
X1661712Y528712D01*
X1662638Y528412D01*
X1662688Y528405D01*
X1662777Y528383D01*
X1663746Y528297D01*
X1663793Y528301D01*
G37*
G36*
X1663717Y501124D02*
X1663717Y501124D01*
X1663792Y501121D01*
X1664768Y501223D01*
X1664816Y501237D01*
X1664906Y501253D01*
X1665835Y501569D01*
X1665879Y501594D01*
X1665964Y501630D01*
X1666799Y502144D01*
X1666836Y502178D01*
X1666911Y502232D01*
X1667611Y502920D01*
X1667640Y502961D01*
X1667700Y503030D01*
X1668229Y503857D01*
X1668248Y503903D01*
X1668292Y503984D01*
X1668624Y504907D01*
X1668632Y504957D01*
X1668657Y505046D01*
X1668775Y506020D01*
X1668772Y506070D01*
X1668776Y506156D01*
X1668681Y507158D01*
X1668667Y507207D01*
X1668651Y507297D01*
X1668335Y508253D01*
X1668311Y508298D01*
X1668276Y508382D01*
X1667754Y509243D01*
X1667721Y509281D01*
X1667668Y509356D01*
X1666968Y510080D01*
X1666927Y510109D01*
X1666858Y510170D01*
X1666015Y510720D01*
X1665969Y510740D01*
X1665888Y510784D01*
X1664944Y511132D01*
X1664894Y511141D01*
X1664806Y511166D01*
X1663808Y511296D01*
X1663765Y511294D01*
X1663639Y511295D01*
X1662628Y511156D01*
X1662580Y511140D01*
X1662490Y511121D01*
X1661535Y510759D01*
X1661492Y510733D01*
X1661408Y510695D01*
X1660558Y510130D01*
X1660521Y510095D01*
X1660449Y510038D01*
X1659745Y509299D01*
X1659717Y509256D01*
X1659659Y509185D01*
X1659138Y508307D01*
X1659120Y508260D01*
X1659079Y508178D01*
X1658766Y507206D01*
X1658759Y507156D01*
X1658738Y507067D01*
X1658649Y506049D01*
X1658654Y505999D01*
X1658653Y505908D01*
X1658784Y504944D01*
X1658800Y504896D01*
X1658819Y504807D01*
X1659161Y503896D01*
X1659187Y503853D01*
X1659226Y503770D01*
X1659763Y502958D01*
X1659798Y502922D01*
X1659854Y502849D01*
X1660558Y502177D01*
X1660600Y502150D01*
X1660671Y502091D01*
X1661507Y501593D01*
X1661554Y501575D01*
X1661636Y501535D01*
X1662562Y501235D01*
X1662612Y501228D01*
X1662701Y501206D01*
X1663670Y501120D01*
X1663717Y501124D01*
G37*
G36*
X877261Y452245D02*
X877261Y452245D01*
X877310Y452259D01*
X877400Y452275D01*
X878356Y452591D01*
X878401Y452615D01*
X878485Y452651D01*
X879346Y453172D01*
X879384Y453205D01*
X879459Y453258D01*
X880183Y453958D01*
X880212Y453999D01*
X880273Y454068D01*
X880823Y454911D01*
X880843Y454957D01*
X880887Y455038D01*
X881235Y455982D01*
X881244Y456032D01*
X881269Y456120D01*
X881399Y457118D01*
X881397Y457161D01*
X881398Y457287D01*
X881259Y458298D01*
X881243Y458346D01*
X881224Y458436D01*
X880862Y459391D01*
X880836Y459434D01*
X880798Y459518D01*
X880233Y460368D01*
X880198Y460405D01*
X880141Y460477D01*
X879402Y461181D01*
X879359Y461209D01*
X879288Y461267D01*
X878410Y461788D01*
X878363Y461806D01*
X878281Y461847D01*
X877309Y462160D01*
X877259Y462167D01*
X877170Y462188D01*
X876152Y462277D01*
X876102Y462272D01*
X876011Y462273D01*
X875047Y462142D01*
X874999Y462126D01*
X874910Y462107D01*
X873999Y461765D01*
X873956Y461739D01*
X873873Y461700D01*
X873061Y461163D01*
X873025Y461128D01*
X872952Y461072D01*
X872280Y460368D01*
X872253Y460326D01*
X872194Y460255D01*
X871696Y459420D01*
X871678Y459372D01*
X871638Y459290D01*
X871338Y458365D01*
X871331Y458314D01*
X871309Y458225D01*
X871223Y457256D01*
X871227Y457209D01*
X871224Y457134D01*
X871326Y456158D01*
X871340Y456110D01*
X871356Y456020D01*
X871672Y455091D01*
X871697Y455047D01*
X871733Y454962D01*
X872247Y454127D01*
X872281Y454090D01*
X872335Y454015D01*
X873023Y453316D01*
X873064Y453286D01*
X873133Y453226D01*
X873960Y452697D01*
X874006Y452678D01*
X874087Y452634D01*
X875010Y452302D01*
X875060Y452294D01*
X875149Y452269D01*
X876123Y452151D01*
X876173Y452154D01*
X876259Y452150D01*
X877261Y452245D01*
G37*
G36*
X877261Y426845D02*
X877261Y426845D01*
X877310Y426859D01*
X877400Y426875D01*
X878356Y427191D01*
X878401Y427215D01*
X878485Y427251D01*
X879346Y427772D01*
X879384Y427805D01*
X879459Y427858D01*
X880183Y428558D01*
X880212Y428599D01*
X880273Y428668D01*
X880823Y429511D01*
X880843Y429557D01*
X880887Y429638D01*
X881235Y430582D01*
X881244Y430632D01*
X881269Y430720D01*
X881399Y431718D01*
X881397Y431761D01*
X881398Y431887D01*
X881259Y432898D01*
X881243Y432946D01*
X881224Y433036D01*
X880862Y433991D01*
X880836Y434034D01*
X880798Y434118D01*
X880233Y434968D01*
X880198Y435005D01*
X880141Y435077D01*
X879402Y435781D01*
X879359Y435809D01*
X879288Y435867D01*
X878410Y436388D01*
X878363Y436406D01*
X878281Y436447D01*
X877309Y436760D01*
X877259Y436767D01*
X877170Y436788D01*
X876152Y436877D01*
X876102Y436872D01*
X876011Y436873D01*
X875047Y436742D01*
X874999Y436726D01*
X874910Y436707D01*
X873999Y436365D01*
X873956Y436339D01*
X873873Y436300D01*
X873061Y435763D01*
X873025Y435728D01*
X872952Y435672D01*
X872280Y434968D01*
X872253Y434926D01*
X872194Y434855D01*
X871696Y434020D01*
X871678Y433972D01*
X871638Y433890D01*
X871338Y432965D01*
X871331Y432914D01*
X871309Y432825D01*
X871223Y431856D01*
X871227Y431809D01*
X871224Y431734D01*
X871326Y430758D01*
X871340Y430710D01*
X871356Y430620D01*
X871672Y429691D01*
X871697Y429647D01*
X871733Y429562D01*
X872247Y428727D01*
X872281Y428690D01*
X872335Y428615D01*
X873023Y427916D01*
X873064Y427886D01*
X873133Y427826D01*
X873960Y427297D01*
X874006Y427278D01*
X874087Y427234D01*
X875010Y426902D01*
X875060Y426894D01*
X875149Y426869D01*
X876123Y426751D01*
X876173Y426754D01*
X876259Y426750D01*
X877261Y426845D01*
G37*
G36*
X737611Y415491D02*
X737611Y415491D01*
X737660Y415505D01*
X737750Y415521D01*
X738706Y415837D01*
X738751Y415861D01*
X738835Y415897D01*
X739696Y416418D01*
X739734Y416451D01*
X739809Y416504D01*
X740533Y417204D01*
X740562Y417245D01*
X740623Y417314D01*
X741173Y418157D01*
X741193Y418203D01*
X741237Y418284D01*
X741585Y419228D01*
X741594Y419278D01*
X741619Y419366D01*
X741749Y420364D01*
X741747Y420407D01*
X741748Y420533D01*
X741609Y421544D01*
X741593Y421592D01*
X741574Y421682D01*
X741212Y422637D01*
X741186Y422680D01*
X741148Y422764D01*
X740583Y423614D01*
X740548Y423651D01*
X740491Y423723D01*
X739752Y424427D01*
X739709Y424455D01*
X739638Y424513D01*
X738760Y425034D01*
X738713Y425052D01*
X738631Y425093D01*
X737659Y425406D01*
X737609Y425413D01*
X737520Y425434D01*
X736502Y425523D01*
X736452Y425518D01*
X736361Y425519D01*
X735397Y425388D01*
X735349Y425372D01*
X735260Y425353D01*
X734349Y425011D01*
X734306Y424985D01*
X734223Y424946D01*
X733411Y424409D01*
X733375Y424374D01*
X733302Y424318D01*
X732630Y423614D01*
X732603Y423572D01*
X732544Y423501D01*
X732046Y422666D01*
X732028Y422618D01*
X731988Y422536D01*
X731688Y421611D01*
X731681Y421560D01*
X731659Y421471D01*
X731573Y420502D01*
X731577Y420455D01*
X731574Y420380D01*
X731676Y419404D01*
X731690Y419356D01*
X731706Y419266D01*
X732022Y418337D01*
X732047Y418293D01*
X732083Y418208D01*
X732597Y417373D01*
X732631Y417336D01*
X732685Y417261D01*
X733373Y416562D01*
X733414Y416532D01*
X733483Y416472D01*
X734310Y415943D01*
X734356Y415924D01*
X734437Y415880D01*
X735360Y415548D01*
X735410Y415540D01*
X735499Y415515D01*
X736473Y415397D01*
X736523Y415400D01*
X736609Y415396D01*
X737611Y415491D01*
G37*
G36*
X1664661Y414145D02*
X1664661Y414145D01*
X1664710Y414159D01*
X1664800Y414175D01*
X1665756Y414491D01*
X1665801Y414515D01*
X1665885Y414551D01*
X1666746Y415072D01*
X1666784Y415105D01*
X1666859Y415158D01*
X1667583Y415858D01*
X1667612Y415899D01*
X1667673Y415968D01*
X1668223Y416811D01*
X1668243Y416857D01*
X1668287Y416938D01*
X1668635Y417882D01*
X1668644Y417932D01*
X1668669Y418020D01*
X1668799Y419018D01*
X1668797Y419061D01*
X1668798Y419187D01*
X1668659Y420198D01*
X1668643Y420246D01*
X1668624Y420336D01*
X1668262Y421291D01*
X1668236Y421334D01*
X1668198Y421418D01*
X1667633Y422268D01*
X1667598Y422305D01*
X1667541Y422377D01*
X1666802Y423081D01*
X1666759Y423109D01*
X1666688Y423167D01*
X1665810Y423688D01*
X1665763Y423706D01*
X1665681Y423747D01*
X1664709Y424060D01*
X1664659Y424067D01*
X1664570Y424088D01*
X1663552Y424177D01*
X1663502Y424172D01*
X1663411Y424173D01*
X1662447Y424042D01*
X1662399Y424026D01*
X1662310Y424007D01*
X1661399Y423665D01*
X1661356Y423639D01*
X1661273Y423600D01*
X1660461Y423063D01*
X1660425Y423028D01*
X1660352Y422972D01*
X1659680Y422268D01*
X1659653Y422226D01*
X1659594Y422155D01*
X1659096Y421320D01*
X1659078Y421272D01*
X1659038Y421190D01*
X1658738Y420265D01*
X1658731Y420214D01*
X1658709Y420125D01*
X1658623Y419156D01*
X1658627Y419109D01*
X1658624Y419034D01*
X1658726Y418058D01*
X1658740Y418010D01*
X1658756Y417920D01*
X1659072Y416991D01*
X1659097Y416947D01*
X1659133Y416862D01*
X1659647Y416027D01*
X1659681Y415990D01*
X1659735Y415915D01*
X1660423Y415216D01*
X1660464Y415186D01*
X1660533Y415126D01*
X1661360Y414597D01*
X1661406Y414578D01*
X1661487Y414534D01*
X1662410Y414202D01*
X1662460Y414194D01*
X1662549Y414169D01*
X1663523Y414051D01*
X1663573Y414054D01*
X1663659Y414050D01*
X1664661Y414145D01*
G37*
G36*
X1664661Y388745D02*
X1664661Y388745D01*
X1664710Y388759D01*
X1664800Y388775D01*
X1665756Y389091D01*
X1665801Y389115D01*
X1665885Y389151D01*
X1666746Y389672D01*
X1666784Y389705D01*
X1666859Y389758D01*
X1667583Y390458D01*
X1667612Y390499D01*
X1667673Y390568D01*
X1668223Y391411D01*
X1668243Y391457D01*
X1668287Y391538D01*
X1668635Y392482D01*
X1668644Y392532D01*
X1668669Y392620D01*
X1668799Y393618D01*
X1668797Y393661D01*
X1668798Y393787D01*
X1668659Y394798D01*
X1668643Y394846D01*
X1668624Y394936D01*
X1668262Y395891D01*
X1668236Y395934D01*
X1668198Y396018D01*
X1667633Y396868D01*
X1667598Y396905D01*
X1667541Y396977D01*
X1666802Y397681D01*
X1666759Y397709D01*
X1666688Y397767D01*
X1665810Y398288D01*
X1665763Y398306D01*
X1665681Y398347D01*
X1664709Y398660D01*
X1664659Y398667D01*
X1664570Y398688D01*
X1663552Y398777D01*
X1663502Y398772D01*
X1663411Y398773D01*
X1662447Y398642D01*
X1662399Y398626D01*
X1662310Y398607D01*
X1661399Y398265D01*
X1661356Y398239D01*
X1661273Y398200D01*
X1660461Y397663D01*
X1660425Y397628D01*
X1660352Y397572D01*
X1659680Y396868D01*
X1659653Y396826D01*
X1659594Y396755D01*
X1659096Y395920D01*
X1659078Y395872D01*
X1659038Y395790D01*
X1658738Y394865D01*
X1658731Y394814D01*
X1658709Y394725D01*
X1658623Y393756D01*
X1658627Y393709D01*
X1658624Y393634D01*
X1658726Y392658D01*
X1658740Y392610D01*
X1658756Y392520D01*
X1659072Y391591D01*
X1659097Y391547D01*
X1659133Y391462D01*
X1659647Y390627D01*
X1659681Y390590D01*
X1659735Y390515D01*
X1660423Y389816D01*
X1660464Y389786D01*
X1660533Y389726D01*
X1661360Y389197D01*
X1661406Y389178D01*
X1661487Y389134D01*
X1662410Y388802D01*
X1662460Y388794D01*
X1662549Y388769D01*
X1663523Y388651D01*
X1663573Y388654D01*
X1663659Y388650D01*
X1664661Y388745D01*
G37*
G36*
X737611Y387500D02*
X737611Y387500D01*
X737660Y387514D01*
X737750Y387530D01*
X738706Y387846D01*
X738751Y387870D01*
X738835Y387906D01*
X739696Y388427D01*
X739734Y388460D01*
X739809Y388513D01*
X740533Y389213D01*
X740562Y389254D01*
X740623Y389323D01*
X741173Y390166D01*
X741193Y390212D01*
X741237Y390293D01*
X741585Y391237D01*
X741594Y391287D01*
X741619Y391375D01*
X741749Y392373D01*
X741747Y392416D01*
X741748Y392542D01*
X741609Y393553D01*
X741593Y393601D01*
X741574Y393691D01*
X741212Y394646D01*
X741186Y394689D01*
X741148Y394773D01*
X740583Y395623D01*
X740548Y395660D01*
X740491Y395732D01*
X739752Y396436D01*
X739709Y396464D01*
X739638Y396522D01*
X738760Y397043D01*
X738713Y397061D01*
X738631Y397102D01*
X737659Y397415D01*
X737609Y397422D01*
X737520Y397443D01*
X736502Y397532D01*
X736452Y397527D01*
X736361Y397528D01*
X735397Y397397D01*
X735349Y397381D01*
X735260Y397362D01*
X734349Y397020D01*
X734306Y396994D01*
X734223Y396955D01*
X733411Y396418D01*
X733375Y396383D01*
X733302Y396327D01*
X732630Y395623D01*
X732603Y395581D01*
X732544Y395510D01*
X732046Y394675D01*
X732028Y394627D01*
X731988Y394545D01*
X731688Y393620D01*
X731681Y393569D01*
X731659Y393480D01*
X731573Y392511D01*
X731577Y392464D01*
X731574Y392389D01*
X731676Y391413D01*
X731690Y391365D01*
X731706Y391275D01*
X732022Y390346D01*
X732047Y390302D01*
X732083Y390217D01*
X732597Y389382D01*
X732631Y389345D01*
X732685Y389270D01*
X733373Y388571D01*
X733414Y388541D01*
X733483Y388481D01*
X734310Y387952D01*
X734356Y387933D01*
X734437Y387889D01*
X735360Y387557D01*
X735410Y387549D01*
X735499Y387524D01*
X736473Y387406D01*
X736523Y387409D01*
X736609Y387405D01*
X737611Y387500D01*
G37*
D10*
X863600Y558800D03*
X762000Y558800D03*
D11*
X609600Y635000D03*
X609600Y660400D03*
X635000Y635000D03*
X635000Y660400D03*
X660400Y635000D03*
X660400Y660400D03*
D10*
X203200Y355600D03*
X203200Y254000D03*
X88900Y304800D03*
X88900Y203200D03*
X304800Y304800D03*
X304800Y203200D03*
X419100Y355600D03*
X419100Y254000D03*
X749300Y304800D03*
X749300Y203200D03*
X1282700Y355600D03*
X1282700Y254000D03*
X1397000Y304800D03*
X1397000Y203200D03*
X1612900Y304800D03*
X1612900Y203200D03*
D12*
X593090Y241300D03*
X676910Y546100D03*
X676910Y520700D03*
X676910Y495300D03*
X676910Y469900D03*
X676910Y444500D03*
X676910Y419100D03*
X676910Y393700D03*
X676910Y368300D03*
X676910Y342900D03*
X676910Y317500D03*
X676910Y292100D03*
X676910Y266700D03*
X676910Y241300D03*
X593090Y571500D03*
X593090Y546100D03*
X593090Y520700D03*
X593090Y495300D03*
X593090Y469900D03*
X593090Y444500D03*
X593090Y419100D03*
X593090Y393700D03*
X593090Y368300D03*
X593090Y342900D03*
X593090Y317500D03*
X593090Y292100D03*
X593090Y266700D03*
D10*
X520700Y304800D03*
X520700Y203200D03*
X850900Y355600D03*
X850900Y254000D03*
X965200Y304800D03*
X965200Y203200D03*
X1181100Y304800D03*
X1181100Y203200D03*
X1066800Y355600D03*
X1066800Y254000D03*
D13*
X1676400Y660400D03*
X1676400Y25400D03*
X25400Y25400D03*
X25400Y660400D03*
D10*
X965200Y457200D03*
X965200Y355600D03*
X40894Y488188D03*
X40894Y553212D03*
X86106Y488188D03*
X86106Y553212D03*
X38100Y596900D03*
X139700Y596900D03*
D14*
X313690Y417830D03*
X313690Y570230D03*
D15*
X38100Y393550D03*
D10*
X63500Y393550D03*
X88900Y393550D03*
X1574800Y342900D03*
X1676400Y342900D03*
D16*
X782900Y635000D03*
X791900Y635000D03*
D17*
X1181100Y25400D03*
X1066800Y152400D03*
X965200Y25400D03*
X304800Y25400D03*
X850900Y152400D03*
X749300Y25400D03*
X520700Y25400D03*
X419100Y152400D03*
X88900Y25400D03*
X1282700Y152400D03*
X1397000Y25400D03*
X1612900Y25400D03*
X203200Y152400D03*
M02*
