G04 EAGLE Gerber RS-274X export*
G75*
%MOMM*%
%FSLAX34Y34*%
%LPD*%
%INSilkscreen Top*%
%IPPOS*%
%AMOC8*
5,1,8,0,0,1.08239X$1,22.5*%
G01*
%ADD10C,0.101600*%
%ADD11C,0.127000*%
%ADD12C,0.152400*%
%ADD13C,0.406400*%
%ADD14C,0.203200*%
%ADD15C,0.304800*%
%ADD16R,0.889000X0.190500*%
%ADD17R,0.190500X0.889000*%
%ADD18R,0.050800X0.006300*%
%ADD19R,0.082600X0.006400*%
%ADD20R,0.120600X0.006300*%
%ADD21R,0.139700X0.006400*%
%ADD22R,0.158800X0.006300*%
%ADD23R,0.177800X0.006400*%
%ADD24R,0.196800X0.006300*%
%ADD25R,0.215900X0.006400*%
%ADD26R,0.228600X0.006300*%
%ADD27R,0.241300X0.006400*%
%ADD28R,0.254000X0.006300*%
%ADD29R,0.266700X0.006400*%
%ADD30R,0.279400X0.006300*%
%ADD31R,0.285700X0.006400*%
%ADD32R,0.298400X0.006300*%
%ADD33R,0.311200X0.006400*%
%ADD34R,0.317500X0.006300*%
%ADD35R,0.330200X0.006400*%
%ADD36R,0.336600X0.006300*%
%ADD37R,0.349200X0.006400*%
%ADD38R,0.361900X0.006300*%
%ADD39R,0.368300X0.006400*%
%ADD40R,0.381000X0.006300*%
%ADD41R,0.387300X0.006400*%
%ADD42R,0.393700X0.006300*%
%ADD43R,0.406400X0.006400*%
%ADD44R,0.412700X0.006300*%
%ADD45R,0.419100X0.006400*%
%ADD46R,0.431800X0.006300*%
%ADD47R,0.438100X0.006400*%
%ADD48R,0.450800X0.006300*%
%ADD49R,0.457200X0.006400*%
%ADD50R,0.463500X0.006300*%
%ADD51R,0.476200X0.006400*%
%ADD52R,0.482600X0.006300*%
%ADD53R,0.488900X0.006400*%
%ADD54R,0.501600X0.006300*%
%ADD55R,0.508000X0.006400*%
%ADD56R,0.514300X0.006300*%
%ADD57R,0.527000X0.006400*%
%ADD58R,0.533400X0.006300*%
%ADD59R,0.546100X0.006400*%
%ADD60R,0.552400X0.006300*%
%ADD61R,0.558800X0.006400*%
%ADD62R,0.571500X0.006300*%
%ADD63R,0.577800X0.006400*%
%ADD64R,0.584200X0.006300*%
%ADD65R,0.596900X0.006400*%
%ADD66R,0.603200X0.006300*%
%ADD67R,0.609600X0.006400*%
%ADD68R,0.622300X0.006300*%
%ADD69R,0.628600X0.006400*%
%ADD70R,0.641300X0.006300*%
%ADD71R,0.647700X0.006400*%
%ADD72R,0.063500X0.006300*%
%ADD73R,0.654000X0.006300*%
%ADD74R,0.101600X0.006400*%
%ADD75R,0.666700X0.006400*%
%ADD76R,0.139700X0.006300*%
%ADD77R,0.673100X0.006300*%
%ADD78R,0.165100X0.006400*%
%ADD79R,0.679400X0.006400*%
%ADD80R,0.196900X0.006300*%
%ADD81R,0.692100X0.006300*%
%ADD82R,0.222200X0.006400*%
%ADD83R,0.698500X0.006400*%
%ADD84R,0.247700X0.006300*%
%ADD85R,0.704800X0.006300*%
%ADD86R,0.279400X0.006400*%
%ADD87R,0.717500X0.006400*%
%ADD88R,0.298500X0.006300*%
%ADD89R,0.723900X0.006300*%
%ADD90R,0.736600X0.006400*%
%ADD91R,0.342900X0.006300*%
%ADD92R,0.742900X0.006300*%
%ADD93R,0.374700X0.006400*%
%ADD94R,0.749300X0.006400*%
%ADD95R,0.762000X0.006300*%
%ADD96R,0.412700X0.006400*%
%ADD97R,0.768300X0.006400*%
%ADD98R,0.438100X0.006300*%
%ADD99R,0.774700X0.006300*%
%ADD100R,0.463600X0.006400*%
%ADD101R,0.787400X0.006400*%
%ADD102R,0.793700X0.006300*%
%ADD103R,0.495300X0.006400*%
%ADD104R,0.800100X0.006400*%
%ADD105R,0.520700X0.006300*%
%ADD106R,0.812800X0.006300*%
%ADD107R,0.533400X0.006400*%
%ADD108R,0.819100X0.006400*%
%ADD109R,0.558800X0.006300*%
%ADD110R,0.825500X0.006300*%
%ADD111R,0.577900X0.006400*%
%ADD112R,0.831800X0.006400*%
%ADD113R,0.596900X0.006300*%
%ADD114R,0.844500X0.006300*%
%ADD115R,0.616000X0.006400*%
%ADD116R,0.850900X0.006400*%
%ADD117R,0.635000X0.006300*%
%ADD118R,0.857200X0.006300*%
%ADD119R,0.654100X0.006400*%
%ADD120R,0.863600X0.006400*%
%ADD121R,0.666700X0.006300*%
%ADD122R,0.869900X0.006300*%
%ADD123R,0.685800X0.006400*%
%ADD124R,0.876300X0.006400*%
%ADD125R,0.882600X0.006300*%
%ADD126R,0.723900X0.006400*%
%ADD127R,0.889000X0.006400*%
%ADD128R,0.895300X0.006300*%
%ADD129R,0.755700X0.006400*%
%ADD130R,0.901700X0.006400*%
%ADD131R,0.908000X0.006300*%
%ADD132R,0.793800X0.006400*%
%ADD133R,0.914400X0.006400*%
%ADD134R,0.806400X0.006300*%
%ADD135R,0.920700X0.006300*%
%ADD136R,0.825500X0.006400*%
%ADD137R,0.927100X0.006400*%
%ADD138R,0.933400X0.006300*%
%ADD139R,0.857300X0.006400*%
%ADD140R,0.939800X0.006400*%
%ADD141R,0.870000X0.006300*%
%ADD142R,0.939800X0.006300*%
%ADD143R,0.946100X0.006400*%
%ADD144R,0.952500X0.006300*%
%ADD145R,0.908000X0.006400*%
%ADD146R,0.958800X0.006400*%
%ADD147R,0.965200X0.006300*%
%ADD148R,0.965200X0.006400*%
%ADD149R,0.971500X0.006300*%
%ADD150R,0.952500X0.006400*%
%ADD151R,0.977900X0.006400*%
%ADD152R,0.958800X0.006300*%
%ADD153R,0.984200X0.006300*%
%ADD154R,0.971500X0.006400*%
%ADD155R,0.984200X0.006400*%
%ADD156R,0.990600X0.006300*%
%ADD157R,0.984300X0.006400*%
%ADD158R,0.996900X0.006400*%
%ADD159R,0.997000X0.006300*%
%ADD160R,0.996900X0.006300*%
%ADD161R,1.003300X0.006400*%
%ADD162R,1.016000X0.006300*%
%ADD163R,1.009600X0.006300*%
%ADD164R,1.016000X0.006400*%
%ADD165R,1.009600X0.006400*%
%ADD166R,1.022300X0.006300*%
%ADD167R,1.028700X0.006400*%
%ADD168R,1.035100X0.006300*%
%ADD169R,1.047800X0.006400*%
%ADD170R,1.054100X0.006300*%
%ADD171R,1.028700X0.006300*%
%ADD172R,1.054100X0.006400*%
%ADD173R,1.035000X0.006400*%
%ADD174R,1.060400X0.006300*%
%ADD175R,1.035000X0.006300*%
%ADD176R,1.060500X0.006400*%
%ADD177R,1.041400X0.006400*%
%ADD178R,1.066800X0.006300*%
%ADD179R,1.041400X0.006300*%
%ADD180R,1.079500X0.006400*%
%ADD181R,1.047700X0.006400*%
%ADD182R,1.085900X0.006300*%
%ADD183R,1.047700X0.006300*%
%ADD184R,1.085800X0.006400*%
%ADD185R,1.092200X0.006300*%
%ADD186R,1.085900X0.006400*%
%ADD187R,1.098600X0.006300*%
%ADD188R,1.098600X0.006400*%
%ADD189R,1.060400X0.006400*%
%ADD190R,1.104900X0.006300*%
%ADD191R,1.104900X0.006400*%
%ADD192R,1.066800X0.006400*%
%ADD193R,1.111200X0.006300*%
%ADD194R,1.117600X0.006400*%
%ADD195R,1.117600X0.006300*%
%ADD196R,1.073100X0.006300*%
%ADD197R,1.073100X0.006400*%
%ADD198R,1.124000X0.006300*%
%ADD199R,1.079500X0.006300*%
%ADD200R,1.123900X0.006400*%
%ADD201R,1.130300X0.006300*%
%ADD202R,1.130300X0.006400*%
%ADD203R,1.136700X0.006400*%
%ADD204R,1.136700X0.006300*%
%ADD205R,1.085800X0.006300*%
%ADD206R,1.136600X0.006400*%
%ADD207R,1.136600X0.006300*%
%ADD208R,1.143000X0.006400*%
%ADD209R,1.143000X0.006300*%
%ADD210R,1.149400X0.006300*%
%ADD211R,1.149300X0.006300*%
%ADD212R,1.149300X0.006400*%
%ADD213R,1.149400X0.006400*%
%ADD214R,1.155700X0.006400*%
%ADD215R,1.155700X0.006300*%
%ADD216R,1.060500X0.006300*%
%ADD217R,2.197100X0.006400*%
%ADD218R,2.197100X0.006300*%
%ADD219R,2.184400X0.006300*%
%ADD220R,2.184400X0.006400*%
%ADD221R,2.171700X0.006400*%
%ADD222R,2.171700X0.006300*%
%ADD223R,1.530300X0.006400*%
%ADD224R,1.505000X0.006300*%
%ADD225R,1.492300X0.006400*%
%ADD226R,1.485900X0.006300*%
%ADD227R,0.565200X0.006300*%
%ADD228R,1.473200X0.006400*%
%ADD229R,0.565200X0.006400*%
%ADD230R,1.460500X0.006300*%
%ADD231R,1.454100X0.006400*%
%ADD232R,0.552400X0.006400*%
%ADD233R,1.441500X0.006300*%
%ADD234R,0.546100X0.006300*%
%ADD235R,1.435100X0.006400*%
%ADD236R,0.539800X0.006400*%
%ADD237R,1.428800X0.006300*%
%ADD238R,1.422400X0.006400*%
%ADD239R,1.409700X0.006300*%
%ADD240R,0.527100X0.006300*%
%ADD241R,1.403300X0.006400*%
%ADD242R,0.527100X0.006400*%
%ADD243R,1.390700X0.006300*%
%ADD244R,1.384300X0.006400*%
%ADD245R,0.520700X0.006400*%
%ADD246R,1.384300X0.006300*%
%ADD247R,0.514400X0.006300*%
%ADD248R,1.371600X0.006400*%
%ADD249R,1.365200X0.006300*%
%ADD250R,0.508000X0.006300*%
%ADD251R,1.352600X0.006400*%
%ADD252R,0.501700X0.006400*%
%ADD253R,0.711200X0.006300*%
%ADD254R,0.603300X0.006300*%
%ADD255R,0.501700X0.006300*%
%ADD256R,0.692100X0.006400*%
%ADD257R,0.571500X0.006400*%
%ADD258R,0.679400X0.006300*%
%ADD259R,0.495300X0.006300*%
%ADD260R,0.673100X0.006400*%
%ADD261R,0.666800X0.006300*%
%ADD262R,0.488900X0.006300*%
%ADD263R,0.660400X0.006400*%
%ADD264R,0.482600X0.006400*%
%ADD265R,0.476200X0.006300*%
%ADD266R,0.654000X0.006400*%
%ADD267R,0.469900X0.006400*%
%ADD268R,0.476300X0.006400*%
%ADD269R,0.647700X0.006300*%
%ADD270R,0.457200X0.006300*%
%ADD271R,0.469900X0.006300*%
%ADD272R,0.641300X0.006400*%
%ADD273R,0.444500X0.006400*%
%ADD274R,0.463600X0.006300*%
%ADD275R,0.635000X0.006400*%
%ADD276R,0.463500X0.006400*%
%ADD277R,0.393700X0.006400*%
%ADD278R,0.450800X0.006400*%
%ADD279R,0.628600X0.006300*%
%ADD280R,0.387400X0.006300*%
%ADD281R,0.450900X0.006300*%
%ADD282R,0.628700X0.006400*%
%ADD283R,0.374600X0.006400*%
%ADD284R,0.368300X0.006300*%
%ADD285R,0.438200X0.006300*%
%ADD286R,0.622300X0.006400*%
%ADD287R,0.355600X0.006400*%
%ADD288R,0.431800X0.006400*%
%ADD289R,0.349300X0.006300*%
%ADD290R,0.425400X0.006300*%
%ADD291R,0.615900X0.006300*%
%ADD292R,0.330200X0.006300*%
%ADD293R,0.419100X0.006300*%
%ADD294R,0.616000X0.006300*%
%ADD295R,0.311200X0.006300*%
%ADD296R,0.406400X0.006300*%
%ADD297R,0.615900X0.006400*%
%ADD298R,0.304800X0.006400*%
%ADD299R,0.158800X0.006400*%
%ADD300R,0.609600X0.006300*%
%ADD301R,0.292100X0.006300*%
%ADD302R,0.235000X0.006300*%
%ADD303R,0.387400X0.006400*%
%ADD304R,0.292100X0.006400*%
%ADD305R,0.336500X0.006300*%
%ADD306R,0.260400X0.006300*%
%ADD307R,0.603300X0.006400*%
%ADD308R,0.260400X0.006400*%
%ADD309R,0.362000X0.006400*%
%ADD310R,0.450900X0.006400*%
%ADD311R,0.355600X0.006300*%
%ADD312R,0.342900X0.006400*%
%ADD313R,0.514300X0.006400*%
%ADD314R,0.234900X0.006300*%
%ADD315R,0.539700X0.006300*%
%ADD316R,0.603200X0.006400*%
%ADD317R,0.234900X0.006400*%
%ADD318R,0.920700X0.006400*%
%ADD319R,0.958900X0.006400*%
%ADD320R,0.215900X0.006300*%
%ADD321R,0.209600X0.006400*%
%ADD322R,0.203200X0.006300*%
%ADD323R,1.003300X0.006300*%
%ADD324R,0.203200X0.006400*%
%ADD325R,0.196900X0.006400*%
%ADD326R,0.190500X0.006300*%
%ADD327R,0.190500X0.006400*%
%ADD328R,0.184200X0.006300*%
%ADD329R,0.590500X0.006400*%
%ADD330R,0.184200X0.006400*%
%ADD331R,0.590500X0.006300*%
%ADD332R,0.177800X0.006300*%
%ADD333R,0.584200X0.006400*%
%ADD334R,1.168400X0.006400*%
%ADD335R,0.171500X0.006300*%
%ADD336R,1.187500X0.006300*%
%ADD337R,1.200100X0.006400*%
%ADD338R,0.577800X0.006300*%
%ADD339R,1.212900X0.006300*%
%ADD340R,1.231900X0.006400*%
%ADD341R,1.250900X0.006300*%
%ADD342R,0.565100X0.006400*%
%ADD343R,0.184100X0.006400*%
%ADD344R,1.263700X0.006400*%
%ADD345R,0.565100X0.006300*%
%ADD346R,1.289100X0.006300*%
%ADD347R,1.314400X0.006400*%
%ADD348R,0.552500X0.006300*%
%ADD349R,1.568500X0.006300*%
%ADD350R,0.552500X0.006400*%
%ADD351R,1.581200X0.006400*%
%ADD352R,1.593800X0.006300*%
%ADD353R,1.606500X0.006400*%
%ADD354R,1.619300X0.006300*%
%ADD355R,0.514400X0.006400*%
%ADD356R,1.638300X0.006400*%
%ADD357R,1.657300X0.006300*%
%ADD358R,2.209800X0.006400*%
%ADD359R,2.425700X0.006300*%
%ADD360R,2.470100X0.006400*%
%ADD361R,2.501900X0.006300*%
%ADD362R,2.533700X0.006400*%
%ADD363R,2.559000X0.006300*%
%ADD364R,2.584500X0.006400*%
%ADD365R,2.609900X0.006300*%
%ADD366R,2.628900X0.006400*%
%ADD367R,2.660600X0.006300*%
%ADD368R,2.673400X0.006400*%
%ADD369R,1.422400X0.006300*%
%ADD370R,1.200200X0.006300*%
%ADD371R,1.365300X0.006300*%
%ADD372R,1.365300X0.006400*%
%ADD373R,1.352500X0.006300*%
%ADD374R,1.098500X0.006300*%
%ADD375R,1.358900X0.006400*%
%ADD376R,1.352600X0.006300*%
%ADD377R,1.358900X0.006300*%
%ADD378R,1.371600X0.006300*%
%ADD379R,1.377900X0.006400*%
%ADD380R,1.397000X0.006400*%
%ADD381R,1.403300X0.006300*%
%ADD382R,0.914400X0.006300*%
%ADD383R,0.876300X0.006300*%
%ADD384R,0.374600X0.006300*%
%ADD385R,1.073200X0.006400*%
%ADD386R,0.374700X0.006300*%
%ADD387R,0.844600X0.006400*%
%ADD388R,0.844600X0.006300*%
%ADD389R,0.831900X0.006400*%
%ADD390R,1.092200X0.006400*%
%ADD391R,0.400000X0.006300*%
%ADD392R,0.819200X0.006400*%
%ADD393R,1.111300X0.006400*%
%ADD394R,0.812800X0.006400*%
%ADD395R,0.800100X0.006300*%
%ADD396R,0.476300X0.006300*%
%ADD397R,1.181100X0.006300*%
%ADD398R,0.501600X0.006400*%
%ADD399R,1.193800X0.006400*%
%ADD400R,0.781000X0.006400*%
%ADD401R,1.238200X0.006400*%
%ADD402R,0.781100X0.006300*%
%ADD403R,1.257300X0.006300*%
%ADD404R,1.295400X0.006400*%
%ADD405R,1.333500X0.006300*%
%ADD406R,0.774700X0.006400*%
%ADD407R,1.866900X0.006400*%
%ADD408R,0.209600X0.006300*%
%ADD409R,1.866900X0.006300*%
%ADD410R,0.768400X0.006400*%
%ADD411R,0.209500X0.006400*%
%ADD412R,1.860600X0.006400*%
%ADD413R,0.762000X0.006400*%
%ADD414R,0.768400X0.006300*%
%ADD415R,1.860600X0.006300*%
%ADD416R,1.860500X0.006400*%
%ADD417R,0.222300X0.006300*%
%ADD418R,1.854200X0.006300*%
%ADD419R,0.235000X0.006400*%
%ADD420R,1.854200X0.006400*%
%ADD421R,0.768300X0.006300*%
%ADD422R,0.260300X0.006400*%
%ADD423R,1.847800X0.006400*%
%ADD424R,0.266700X0.006300*%
%ADD425R,1.847800X0.006300*%
%ADD426R,0.273100X0.006400*%
%ADD427R,1.841500X0.006400*%
%ADD428R,0.285800X0.006300*%
%ADD429R,1.841500X0.006300*%
%ADD430R,0.298500X0.006400*%
%ADD431R,1.835100X0.006400*%
%ADD432R,0.781000X0.006300*%
%ADD433R,0.304800X0.006300*%
%ADD434R,1.835100X0.006300*%
%ADD435R,0.317500X0.006400*%
%ADD436R,1.828800X0.006400*%
%ADD437R,0.787400X0.006300*%
%ADD438R,0.323800X0.006300*%
%ADD439R,1.828800X0.006300*%
%ADD440R,0.793700X0.006400*%
%ADD441R,1.822400X0.006400*%
%ADD442R,0.806500X0.006300*%
%ADD443R,1.822400X0.006300*%
%ADD444R,1.816100X0.006400*%
%ADD445R,0.819100X0.006300*%
%ADD446R,0.387300X0.006300*%
%ADD447R,1.816100X0.006300*%
%ADD448R,1.809800X0.006400*%
%ADD449R,1.803400X0.006300*%
%ADD450R,1.797000X0.006400*%
%ADD451R,0.901700X0.006300*%
%ADD452R,1.797000X0.006300*%
%ADD453R,1.441400X0.006400*%
%ADD454R,1.790700X0.006400*%
%ADD455R,1.447800X0.006300*%
%ADD456R,1.784300X0.006300*%
%ADD457R,1.447800X0.006400*%
%ADD458R,1.784300X0.006400*%
%ADD459R,1.454100X0.006300*%
%ADD460R,1.771700X0.006300*%
%ADD461R,1.460500X0.006400*%
%ADD462R,1.759000X0.006400*%
%ADD463R,1.466800X0.006300*%
%ADD464R,1.752600X0.006300*%
%ADD465R,1.466800X0.006400*%
%ADD466R,1.739900X0.006400*%
%ADD467R,1.473200X0.006300*%
%ADD468R,1.727200X0.006300*%
%ADD469R,1.479500X0.006400*%
%ADD470R,1.714500X0.006400*%
%ADD471R,1.695400X0.006300*%
%ADD472R,1.485900X0.006400*%
%ADD473R,1.682700X0.006400*%
%ADD474R,1.492200X0.006300*%
%ADD475R,1.663700X0.006300*%
%ADD476R,1.498600X0.006400*%
%ADD477R,1.644600X0.006400*%
%ADD478R,1.498600X0.006300*%
%ADD479R,1.619200X0.006300*%
%ADD480R,1.511300X0.006400*%
%ADD481R,1.600200X0.006400*%
%ADD482R,1.517700X0.006300*%
%ADD483R,1.574800X0.006300*%
%ADD484R,1.524000X0.006400*%
%ADD485R,1.555800X0.006400*%
%ADD486R,1.524000X0.006300*%
%ADD487R,1.536700X0.006300*%
%ADD488R,1.530400X0.006400*%
%ADD489R,1.517700X0.006400*%
%ADD490R,1.492300X0.006300*%
%ADD491R,1.549400X0.006400*%
%ADD492R,1.479600X0.006400*%
%ADD493R,1.549400X0.006300*%
%ADD494R,1.555700X0.006400*%
%ADD495R,1.562100X0.006300*%
%ADD496R,0.323900X0.006300*%
%ADD497R,1.568400X0.006400*%
%ADD498R,0.336600X0.006400*%
%ADD499R,1.587500X0.006300*%
%ADD500R,0.971600X0.006300*%
%ADD501R,0.349300X0.006400*%
%ADD502R,1.600200X0.006300*%
%ADD503R,0.920800X0.006300*%
%ADD504R,0.882700X0.006400*%
%ADD505R,1.612900X0.006300*%
%ADD506R,0.362000X0.006300*%
%ADD507R,1.625600X0.006400*%
%ADD508R,1.625600X0.006300*%
%ADD509R,1.644600X0.006300*%
%ADD510R,0.736600X0.006300*%
%ADD511R,0.717600X0.006400*%
%ADD512R,1.657400X0.006300*%
%ADD513R,0.679500X0.006300*%
%ADD514R,1.663700X0.006400*%
%ADD515R,0.400000X0.006400*%
%ADD516R,1.676400X0.006300*%
%ADD517R,1.676400X0.006400*%
%ADD518R,0.425500X0.006400*%
%ADD519R,1.352500X0.006400*%
%ADD520R,0.444500X0.006300*%
%ADD521R,0.361900X0.006400*%
%ADD522R,0.088900X0.006300*%
%ADD523R,1.009700X0.006300*%
%ADD524R,1.009700X0.006400*%
%ADD525R,1.022300X0.006400*%
%ADD526R,1.346200X0.006400*%
%ADD527R,1.346200X0.006300*%
%ADD528R,1.339900X0.006400*%
%ADD529R,1.035100X0.006400*%
%ADD530R,1.339800X0.006300*%
%ADD531R,1.333500X0.006400*%
%ADD532R,1.327200X0.006400*%
%ADD533R,1.320800X0.006300*%
%ADD534R,1.314500X0.006400*%
%ADD535R,1.314400X0.006300*%
%ADD536R,1.301700X0.006400*%
%ADD537R,1.295400X0.006300*%
%ADD538R,1.289000X0.006400*%
%ADD539R,1.276300X0.006300*%
%ADD540R,1.251000X0.006300*%
%ADD541R,1.244600X0.006400*%
%ADD542R,1.231900X0.006300*%
%ADD543R,1.212800X0.006400*%
%ADD544R,1.200100X0.006300*%
%ADD545R,1.187400X0.006400*%
%ADD546R,1.168400X0.006300*%
%ADD547R,1.047800X0.006300*%
%ADD548R,0.977900X0.006300*%
%ADD549R,0.946200X0.006400*%
%ADD550R,0.933400X0.006400*%
%ADD551R,0.895300X0.006400*%
%ADD552R,0.882700X0.006300*%
%ADD553R,0.863600X0.006300*%
%ADD554R,0.857200X0.006400*%
%ADD555R,0.850900X0.006300*%
%ADD556R,0.838200X0.006300*%
%ADD557R,0.806500X0.006400*%
%ADD558R,0.717600X0.006300*%
%ADD559R,0.711200X0.006400*%
%ADD560R,0.641400X0.006400*%
%ADD561R,0.641400X0.006300*%
%ADD562R,0.628700X0.006300*%
%ADD563R,0.590600X0.006300*%
%ADD564R,0.539700X0.006400*%
%ADD565R,0.285700X0.006300*%
%ADD566R,0.222200X0.006300*%
%ADD567R,0.171400X0.006300*%
%ADD568R,0.152400X0.006400*%
%ADD569R,0.133400X0.006300*%

G36*
X334747Y10994D02*
X334747Y10994D01*
X334765Y10992D01*
X334867Y11020D01*
X334970Y11042D01*
X334985Y11051D01*
X335002Y11056D01*
X335147Y11141D01*
X340227Y14951D01*
X340230Y14954D01*
X340234Y14956D01*
X340315Y15043D01*
X340397Y15128D01*
X340399Y15132D01*
X340402Y15135D01*
X340452Y15244D01*
X340502Y15351D01*
X340502Y15355D01*
X340504Y15359D01*
X340517Y15477D01*
X340530Y15595D01*
X340530Y15599D01*
X340530Y15604D01*
X340504Y15720D01*
X340480Y15836D01*
X340477Y15840D01*
X340476Y15844D01*
X340415Y15946D01*
X340355Y16048D01*
X340351Y16051D01*
X340349Y16054D01*
X340227Y16169D01*
X335147Y19979D01*
X335131Y19987D01*
X335118Y20000D01*
X335103Y20007D01*
X335095Y20013D01*
X335045Y20033D01*
X335022Y20044D01*
X334929Y20093D01*
X334911Y20096D01*
X334895Y20103D01*
X334790Y20115D01*
X334686Y20131D01*
X334668Y20128D01*
X334651Y20130D01*
X334548Y20108D01*
X334443Y20090D01*
X334428Y20082D01*
X334410Y20078D01*
X334320Y20024D01*
X334227Y19974D01*
X334214Y19961D01*
X334199Y19952D01*
X334130Y19872D01*
X334058Y19795D01*
X334051Y19778D01*
X334039Y19765D01*
X334000Y19667D01*
X333956Y19571D01*
X333954Y19553D01*
X333947Y19537D01*
X333929Y19370D01*
X333929Y11750D01*
X333932Y11732D01*
X333930Y11715D01*
X333951Y11611D01*
X333969Y11507D01*
X333977Y11492D01*
X333981Y11474D01*
X334034Y11383D01*
X334084Y11290D01*
X334096Y11278D01*
X334106Y11262D01*
X334185Y11193D01*
X334262Y11121D01*
X334278Y11113D01*
X334292Y11101D01*
X334389Y11061D01*
X334485Y11017D01*
X334503Y11015D01*
X334519Y11008D01*
X334625Y11001D01*
X334729Y10990D01*
X334747Y10994D01*
G37*
G36*
X95307Y6864D02*
X95307Y6864D01*
X95325Y6862D01*
X95427Y6890D01*
X95530Y6912D01*
X95545Y6921D01*
X95562Y6926D01*
X95707Y7011D01*
X100787Y10821D01*
X100790Y10824D01*
X100794Y10826D01*
X100875Y10913D01*
X100957Y10998D01*
X100959Y11002D01*
X100962Y11005D01*
X101012Y11114D01*
X101062Y11221D01*
X101062Y11225D01*
X101064Y11229D01*
X101077Y11347D01*
X101090Y11465D01*
X101090Y11469D01*
X101090Y11474D01*
X101064Y11590D01*
X101040Y11706D01*
X101037Y11710D01*
X101036Y11714D01*
X100975Y11816D01*
X100915Y11918D01*
X100911Y11921D01*
X100909Y11924D01*
X100787Y12039D01*
X95707Y15849D01*
X95691Y15857D01*
X95678Y15870D01*
X95663Y15877D01*
X95655Y15883D01*
X95605Y15903D01*
X95582Y15914D01*
X95489Y15963D01*
X95471Y15966D01*
X95455Y15973D01*
X95350Y15985D01*
X95246Y16001D01*
X95228Y15998D01*
X95211Y16000D01*
X95108Y15978D01*
X95003Y15960D01*
X94988Y15952D01*
X94970Y15948D01*
X94880Y15894D01*
X94787Y15844D01*
X94774Y15831D01*
X94759Y15822D01*
X94690Y15742D01*
X94618Y15665D01*
X94611Y15648D01*
X94599Y15635D01*
X94560Y15537D01*
X94516Y15441D01*
X94514Y15423D01*
X94507Y15407D01*
X94489Y15240D01*
X94489Y7620D01*
X94492Y7602D01*
X94490Y7585D01*
X94511Y7481D01*
X94529Y7377D01*
X94537Y7362D01*
X94541Y7344D01*
X94594Y7253D01*
X94644Y7160D01*
X94656Y7148D01*
X94666Y7132D01*
X94745Y7063D01*
X94822Y6991D01*
X94838Y6983D01*
X94852Y6971D01*
X94949Y6931D01*
X95045Y6887D01*
X95063Y6885D01*
X95079Y6878D01*
X95185Y6871D01*
X95289Y6860D01*
X95307Y6864D01*
G37*
G36*
X64792Y6862D02*
X64792Y6862D01*
X64809Y6860D01*
X64912Y6882D01*
X65017Y6900D01*
X65032Y6908D01*
X65050Y6912D01*
X65140Y6966D01*
X65234Y7016D01*
X65246Y7029D01*
X65261Y7038D01*
X65330Y7118D01*
X65402Y7195D01*
X65409Y7212D01*
X65421Y7225D01*
X65460Y7323D01*
X65504Y7419D01*
X65506Y7437D01*
X65513Y7453D01*
X65531Y7620D01*
X65531Y15240D01*
X65529Y15257D01*
X65530Y15272D01*
X65530Y15275D01*
X65509Y15379D01*
X65492Y15483D01*
X65483Y15498D01*
X65480Y15516D01*
X65426Y15607D01*
X65376Y15700D01*
X65364Y15712D01*
X65355Y15728D01*
X65275Y15797D01*
X65198Y15870D01*
X65182Y15877D01*
X65168Y15889D01*
X65071Y15929D01*
X64975Y15973D01*
X64957Y15975D01*
X64941Y15982D01*
X64835Y15989D01*
X64731Y16000D01*
X64713Y15996D01*
X64695Y15998D01*
X64593Y15970D01*
X64520Y15954D01*
X64517Y15954D01*
X64490Y15948D01*
X64475Y15939D01*
X64458Y15934D01*
X64313Y15849D01*
X59233Y12039D01*
X59230Y12036D01*
X59227Y12034D01*
X59145Y11947D01*
X59063Y11862D01*
X59061Y11858D01*
X59058Y11855D01*
X59008Y11746D01*
X58958Y11639D01*
X58958Y11635D01*
X58956Y11631D01*
X58943Y11513D01*
X58930Y11395D01*
X58930Y11391D01*
X58930Y11386D01*
X58956Y11270D01*
X58981Y11154D01*
X58983Y11150D01*
X58984Y11146D01*
X59045Y11044D01*
X59106Y10942D01*
X59109Y10939D01*
X59111Y10936D01*
X59233Y10821D01*
X64313Y7011D01*
X64329Y7003D01*
X64342Y6991D01*
X64438Y6946D01*
X64531Y6897D01*
X64549Y6894D01*
X64565Y6887D01*
X64670Y6875D01*
X64774Y6859D01*
X64792Y6862D01*
G37*
G36*
X58118Y205312D02*
X58118Y205312D01*
X58135Y205310D01*
X58239Y205331D01*
X58343Y205349D01*
X58358Y205357D01*
X58376Y205361D01*
X58467Y205414D01*
X58560Y205464D01*
X58572Y205476D01*
X58588Y205486D01*
X58657Y205565D01*
X58730Y205642D01*
X58737Y205658D01*
X58749Y205672D01*
X58789Y205769D01*
X58833Y205865D01*
X58835Y205883D01*
X58842Y205899D01*
X58849Y206005D01*
X58860Y206109D01*
X58856Y206127D01*
X58858Y206145D01*
X58830Y206247D01*
X58808Y206350D01*
X58799Y206365D01*
X58794Y206382D01*
X58709Y206527D01*
X54899Y211607D01*
X54896Y211610D01*
X54894Y211614D01*
X54807Y211695D01*
X54722Y211777D01*
X54718Y211779D01*
X54715Y211782D01*
X54606Y211832D01*
X54499Y211882D01*
X54495Y211882D01*
X54491Y211884D01*
X54373Y211897D01*
X54255Y211910D01*
X54251Y211910D01*
X54246Y211910D01*
X54130Y211884D01*
X54014Y211860D01*
X54010Y211857D01*
X54006Y211856D01*
X53904Y211795D01*
X53802Y211735D01*
X53799Y211731D01*
X53796Y211729D01*
X53681Y211607D01*
X49871Y206527D01*
X49863Y206511D01*
X49851Y206498D01*
X49806Y206402D01*
X49757Y206309D01*
X49754Y206291D01*
X49747Y206275D01*
X49735Y206170D01*
X49719Y206066D01*
X49722Y206048D01*
X49720Y206031D01*
X49742Y205928D01*
X49760Y205823D01*
X49768Y205808D01*
X49772Y205790D01*
X49826Y205700D01*
X49876Y205607D01*
X49889Y205594D01*
X49898Y205579D01*
X49978Y205510D01*
X50055Y205438D01*
X50072Y205431D01*
X50085Y205419D01*
X50183Y205380D01*
X50279Y205336D01*
X50297Y205334D01*
X50313Y205327D01*
X50480Y205309D01*
X58100Y205309D01*
X58118Y205312D01*
G37*
D10*
X41569Y184284D02*
X41569Y176403D01*
X46823Y176403D01*
X51069Y184284D02*
X53695Y184284D01*
X51069Y184284D02*
X49755Y182970D01*
X49755Y177716D01*
X51069Y176403D01*
X53695Y176403D01*
X55009Y177716D01*
X55009Y182970D01*
X53695Y184284D01*
X57941Y184284D02*
X57941Y176403D01*
X60568Y179030D01*
X63195Y176403D01*
X63195Y184284D01*
D11*
X324102Y32763D02*
X324102Y23865D01*
X324102Y32763D02*
X328551Y32763D01*
X330034Y31280D01*
X330034Y28314D01*
X328551Y26831D01*
X324102Y26831D01*
X333457Y23865D02*
X333457Y32763D01*
X336423Y26831D02*
X333457Y23865D01*
X336423Y26831D02*
X339389Y23865D01*
X339389Y32763D01*
X342813Y32763D02*
X342813Y23865D01*
X342813Y32763D02*
X347261Y32763D01*
X348744Y31280D01*
X348744Y28314D01*
X347261Y26831D01*
X342813Y26831D01*
X345778Y26831D02*
X348744Y23865D01*
X226277Y30910D02*
X224794Y32393D01*
X221828Y32393D01*
X220345Y30910D01*
X220345Y24978D01*
X221828Y23495D01*
X224794Y23495D01*
X226277Y24978D01*
X226277Y27944D01*
X223311Y27944D01*
X229700Y23495D02*
X229700Y32393D01*
X235632Y23495D01*
X235632Y32393D01*
X239055Y32393D02*
X239055Y23495D01*
X243504Y23495D01*
X244987Y24978D01*
X244987Y30910D01*
X243504Y32393D01*
X239055Y32393D01*
X203417Y32393D02*
X197485Y32393D01*
X197485Y23495D01*
X203417Y23495D01*
X200451Y27944D02*
X197485Y27944D01*
X206840Y23495D02*
X206840Y32393D01*
X212772Y23495D01*
X212772Y32393D01*
X154305Y216535D02*
X154305Y225433D01*
X158754Y225433D01*
X160237Y223950D01*
X160237Y220984D01*
X158754Y219501D01*
X154305Y219501D01*
X165143Y216535D02*
X168109Y216535D01*
X169592Y218018D01*
X169592Y220984D01*
X168109Y222467D01*
X165143Y222467D01*
X163660Y220984D01*
X163660Y218018D01*
X165143Y216535D01*
X173015Y218018D02*
X173015Y222467D01*
X173015Y218018D02*
X174498Y216535D01*
X175981Y218018D01*
X177464Y216535D01*
X178947Y218018D01*
X178947Y222467D01*
X183853Y216535D02*
X186819Y216535D01*
X183853Y216535D02*
X182371Y218018D01*
X182371Y220984D01*
X183853Y222467D01*
X186819Y222467D01*
X188302Y220984D01*
X188302Y219501D01*
X182371Y219501D01*
X191726Y216535D02*
X191726Y222467D01*
X191726Y219501D02*
X194692Y222467D01*
X196175Y222467D01*
X199522Y225433D02*
X199522Y216535D01*
X199522Y225433D02*
X203971Y225433D01*
X205453Y223950D01*
X205453Y222467D01*
X203971Y220984D01*
X205453Y219501D01*
X205453Y218018D01*
X203971Y216535D01*
X199522Y216535D01*
X199522Y220984D02*
X203971Y220984D01*
X210360Y216535D02*
X213326Y216535D01*
X214809Y218018D01*
X214809Y220984D01*
X213326Y222467D01*
X210360Y222467D01*
X208877Y220984D01*
X208877Y218018D01*
X210360Y216535D01*
X219715Y216535D02*
X222681Y216535D01*
X224164Y218018D01*
X224164Y220984D01*
X222681Y222467D01*
X219715Y222467D01*
X218232Y220984D01*
X218232Y218018D01*
X219715Y216535D01*
X227587Y216535D02*
X232036Y216535D01*
X233519Y218018D01*
X232036Y219501D01*
X229070Y219501D01*
X227587Y220984D01*
X229070Y222467D01*
X233519Y222467D01*
X238425Y223950D02*
X238425Y218018D01*
X239908Y216535D01*
X239908Y222467D02*
X236942Y222467D01*
X252534Y222467D02*
X255500Y225433D01*
X255500Y216535D01*
X252534Y216535D02*
X258466Y216535D01*
X261890Y218018D02*
X261890Y223950D01*
X263373Y225433D01*
X266338Y225433D01*
X267821Y223950D01*
X267821Y218018D01*
X266338Y216535D01*
X263373Y216535D01*
X261890Y218018D01*
X267821Y223950D01*
X271245Y223950D02*
X271245Y218018D01*
X271245Y223950D02*
X272728Y225433D01*
X275694Y225433D01*
X277177Y223950D01*
X277177Y218018D01*
X275694Y216535D01*
X272728Y216535D01*
X271245Y218018D01*
X277177Y223950D01*
X280600Y223950D02*
X280600Y218018D01*
X280600Y223950D02*
X282083Y225433D01*
X285049Y225433D01*
X286532Y223950D01*
X286532Y218018D01*
X285049Y216535D01*
X282083Y216535D01*
X280600Y218018D01*
X286532Y223950D01*
X294404Y225433D02*
X295887Y223950D01*
X294404Y225433D02*
X291438Y225433D01*
X289955Y223950D01*
X289955Y218018D01*
X291438Y216535D01*
X294404Y216535D01*
X295887Y218018D01*
X214634Y205957D02*
X211668Y205957D01*
X214634Y205957D02*
X216117Y204474D01*
X216117Y200025D01*
X211668Y200025D01*
X210185Y201508D01*
X211668Y202991D01*
X216117Y202991D01*
X225472Y200025D02*
X225472Y208923D01*
X225472Y200025D02*
X221023Y200025D01*
X219540Y201508D01*
X219540Y204474D01*
X221023Y205957D01*
X225472Y205957D01*
X230378Y205957D02*
X233344Y205957D01*
X234827Y204474D01*
X234827Y200025D01*
X230378Y200025D01*
X228895Y201508D01*
X230378Y202991D01*
X234827Y202991D01*
X239733Y200025D02*
X239733Y207440D01*
X241216Y208923D01*
X241216Y204474D02*
X238251Y204474D01*
X244487Y205957D02*
X244487Y200025D01*
X244487Y202991D02*
X247453Y205957D01*
X248936Y205957D01*
X252283Y205957D02*
X252283Y201508D01*
X253766Y200025D01*
X258215Y200025D01*
X258215Y205957D01*
X261639Y205957D02*
X263121Y205957D01*
X263121Y200025D01*
X261639Y200025D02*
X264604Y200025D01*
X263121Y208923D02*
X263121Y210406D01*
X269358Y207440D02*
X269358Y201508D01*
X270841Y200025D01*
X270841Y205957D02*
X267875Y205957D01*
X72607Y26887D02*
X68158Y26887D01*
X66675Y25404D01*
X66675Y22438D01*
X68158Y20955D01*
X72607Y20955D01*
X76030Y20955D02*
X76030Y29853D01*
X77513Y26887D02*
X76030Y25404D01*
X77513Y26887D02*
X80479Y26887D01*
X81962Y25404D01*
X81962Y20955D01*
X85385Y20955D02*
X85385Y26887D01*
X85385Y23921D02*
X88351Y26887D01*
X89834Y26887D01*
X96147Y17989D02*
X97630Y17989D01*
X99113Y19472D01*
X99113Y26887D01*
X94664Y26887D01*
X93181Y25404D01*
X93181Y22438D01*
X94664Y20955D01*
X99113Y20955D01*
X142875Y23495D02*
X142875Y32393D01*
X147324Y32393D01*
X148807Y30910D01*
X148807Y29427D01*
X147324Y27944D01*
X148807Y26461D01*
X148807Y24978D01*
X147324Y23495D01*
X142875Y23495D01*
X142875Y27944D02*
X147324Y27944D01*
X153713Y29427D02*
X156679Y29427D01*
X158162Y27944D01*
X158162Y23495D01*
X153713Y23495D01*
X152230Y24978D01*
X153713Y26461D01*
X158162Y26461D01*
X163068Y24978D02*
X163068Y30910D01*
X163068Y24978D02*
X164551Y23495D01*
X164551Y29427D02*
X161585Y29427D01*
X111125Y32393D02*
X111125Y24978D01*
X112608Y23495D01*
X115574Y23495D01*
X117057Y24978D01*
X117057Y32393D01*
X124929Y32393D02*
X126412Y30910D01*
X124929Y32393D02*
X121963Y32393D01*
X120480Y30910D01*
X120480Y29427D01*
X121963Y27944D01*
X124929Y27944D01*
X126412Y26461D01*
X126412Y24978D01*
X124929Y23495D01*
X121963Y23495D01*
X120480Y24978D01*
X129835Y23495D02*
X129835Y32393D01*
X134284Y32393D01*
X135767Y30910D01*
X135767Y29427D01*
X134284Y27944D01*
X135767Y26461D01*
X135767Y24978D01*
X134284Y23495D01*
X129835Y23495D01*
X129835Y27944D02*
X134284Y27944D01*
X172085Y26461D02*
X172085Y32393D01*
X172085Y26461D02*
X175051Y23495D01*
X178017Y26461D01*
X178017Y32393D01*
X181440Y23495D02*
X185889Y23495D01*
X187372Y24978D01*
X185889Y26461D01*
X182923Y26461D01*
X181440Y27944D01*
X182923Y29427D01*
X187372Y29427D01*
D12*
X133949Y166375D02*
X126492Y166375D01*
X130221Y170103D02*
X130221Y162646D01*
X86959Y166375D02*
X79502Y166375D01*
D11*
X297815Y33663D02*
X303747Y33663D01*
X297815Y33663D02*
X297815Y29214D01*
X300781Y30697D01*
X302264Y30697D01*
X303747Y29214D01*
X303747Y26248D01*
X302264Y24765D01*
X299298Y24765D01*
X297815Y26248D01*
X307170Y27731D02*
X307170Y33663D01*
X307170Y27731D02*
X310136Y24765D01*
X313102Y27731D01*
X313102Y33663D01*
X284697Y32180D02*
X283214Y33663D01*
X280248Y33663D01*
X278765Y32180D01*
X278765Y26248D01*
X280248Y24765D01*
X283214Y24765D01*
X284697Y26248D01*
X284697Y29214D01*
X281731Y29214D01*
X263710Y81060D02*
X256710Y81060D01*
X263710Y81060D02*
X263710Y88060D01*
X228710Y81060D02*
X221710Y81060D01*
X221710Y88060D01*
X263710Y116060D02*
X263710Y123060D01*
X256710Y123060D01*
X221710Y123060D02*
X221710Y116060D01*
X221710Y123060D02*
X228710Y123060D01*
D13*
X267710Y84060D02*
X267712Y84149D01*
X267718Y84238D01*
X267728Y84327D01*
X267742Y84415D01*
X267759Y84502D01*
X267781Y84588D01*
X267807Y84674D01*
X267836Y84758D01*
X267869Y84841D01*
X267905Y84922D01*
X267946Y85002D01*
X267989Y85079D01*
X268036Y85155D01*
X268087Y85228D01*
X268140Y85299D01*
X268197Y85368D01*
X268257Y85434D01*
X268320Y85498D01*
X268385Y85558D01*
X268453Y85616D01*
X268524Y85670D01*
X268597Y85721D01*
X268672Y85769D01*
X268749Y85814D01*
X268828Y85855D01*
X268909Y85892D01*
X268991Y85926D01*
X269075Y85957D01*
X269160Y85983D01*
X269246Y86006D01*
X269333Y86024D01*
X269421Y86039D01*
X269510Y86050D01*
X269599Y86057D01*
X269688Y86060D01*
X269777Y86059D01*
X269866Y86054D01*
X269954Y86045D01*
X270043Y86032D01*
X270130Y86015D01*
X270217Y85995D01*
X270303Y85970D01*
X270387Y85942D01*
X270470Y85910D01*
X270552Y85874D01*
X270632Y85835D01*
X270710Y85792D01*
X270786Y85746D01*
X270860Y85696D01*
X270932Y85643D01*
X271001Y85587D01*
X271068Y85528D01*
X271132Y85466D01*
X271193Y85402D01*
X271252Y85334D01*
X271307Y85264D01*
X271359Y85192D01*
X271408Y85117D01*
X271453Y85041D01*
X271495Y84962D01*
X271533Y84882D01*
X271568Y84800D01*
X271599Y84716D01*
X271627Y84631D01*
X271650Y84545D01*
X271670Y84458D01*
X271686Y84371D01*
X271698Y84282D01*
X271706Y84194D01*
X271710Y84105D01*
X271710Y84015D01*
X271706Y83926D01*
X271698Y83838D01*
X271686Y83749D01*
X271670Y83662D01*
X271650Y83575D01*
X271627Y83489D01*
X271599Y83404D01*
X271568Y83320D01*
X271533Y83238D01*
X271495Y83158D01*
X271453Y83079D01*
X271408Y83003D01*
X271359Y82928D01*
X271307Y82856D01*
X271252Y82786D01*
X271193Y82718D01*
X271132Y82654D01*
X271068Y82592D01*
X271001Y82533D01*
X270932Y82477D01*
X270860Y82424D01*
X270786Y82374D01*
X270710Y82328D01*
X270632Y82285D01*
X270552Y82246D01*
X270470Y82210D01*
X270387Y82178D01*
X270303Y82150D01*
X270217Y82125D01*
X270130Y82105D01*
X270043Y82088D01*
X269954Y82075D01*
X269866Y82066D01*
X269777Y82061D01*
X269688Y82060D01*
X269599Y82063D01*
X269510Y82070D01*
X269421Y82081D01*
X269333Y82096D01*
X269246Y82114D01*
X269160Y82137D01*
X269075Y82163D01*
X268991Y82194D01*
X268909Y82228D01*
X268828Y82265D01*
X268749Y82306D01*
X268672Y82351D01*
X268597Y82399D01*
X268524Y82450D01*
X268453Y82504D01*
X268385Y82562D01*
X268320Y82622D01*
X268257Y82686D01*
X268197Y82752D01*
X268140Y82821D01*
X268087Y82892D01*
X268036Y82965D01*
X267989Y83041D01*
X267946Y83118D01*
X267905Y83198D01*
X267869Y83279D01*
X267836Y83362D01*
X267807Y83446D01*
X267781Y83532D01*
X267759Y83618D01*
X267742Y83705D01*
X267728Y83793D01*
X267718Y83882D01*
X267712Y83971D01*
X267710Y84060D01*
D12*
X200232Y83744D02*
X200232Y89252D01*
X200232Y83744D02*
X201334Y82642D01*
X203537Y82642D01*
X204638Y83744D01*
X204638Y89252D01*
X207716Y87048D02*
X209919Y89252D01*
X209919Y82642D01*
X207716Y82642D02*
X212123Y82642D01*
D14*
X215520Y186540D02*
X272520Y186540D01*
X272520Y131540D01*
X215520Y131540D01*
X215520Y186540D01*
D12*
X195258Y124802D02*
X188648Y124802D01*
X195258Y124802D02*
X195258Y129208D01*
X190852Y132286D02*
X188648Y134489D01*
X195258Y134489D01*
X195258Y132286D02*
X195258Y136693D01*
D15*
X195580Y160020D02*
X195580Y170180D01*
D12*
X203554Y152644D02*
X204655Y151542D01*
X203554Y152644D02*
X201350Y152644D01*
X200249Y151542D01*
X200249Y147136D01*
X201350Y146034D01*
X203554Y146034D01*
X204655Y147136D01*
X207733Y150440D02*
X209936Y152644D01*
X209936Y146034D01*
X207733Y146034D02*
X212139Y146034D01*
D14*
X129180Y223040D02*
X84180Y223040D01*
X146680Y188040D02*
X146680Y148040D01*
X138180Y148040D01*
X138180Y173040D01*
X124180Y173040D01*
X89180Y173040D02*
X75180Y173040D01*
X75180Y148040D01*
X66680Y148040D01*
X66680Y188040D01*
D12*
X66217Y141097D02*
X66217Y134487D01*
X66217Y141097D02*
X69522Y141097D01*
X70623Y139995D01*
X70623Y138893D01*
X69522Y137792D01*
X70623Y136690D01*
X70623Y135589D01*
X69522Y134487D01*
X66217Y134487D01*
X66217Y137792D02*
X69522Y137792D01*
X73701Y138893D02*
X75904Y141097D01*
X75904Y134487D01*
X73701Y134487D02*
X78108Y134487D01*
D15*
X279400Y171450D02*
X289560Y171450D01*
D12*
X264773Y155420D02*
X263672Y156522D01*
X261469Y156522D01*
X260367Y155420D01*
X260367Y151014D01*
X261469Y149912D01*
X263672Y149912D01*
X264773Y151014D01*
X267851Y149912D02*
X272258Y149912D01*
X272258Y154318D02*
X267851Y149912D01*
X272258Y154318D02*
X272258Y155420D01*
X271156Y156522D01*
X268953Y156522D01*
X267851Y155420D01*
D14*
X5400Y203200D02*
X5406Y203691D01*
X5424Y204181D01*
X5454Y204671D01*
X5496Y205160D01*
X5550Y205648D01*
X5616Y206135D01*
X5694Y206619D01*
X5784Y207102D01*
X5886Y207582D01*
X5999Y208060D01*
X6124Y208534D01*
X6261Y209006D01*
X6409Y209474D01*
X6569Y209938D01*
X6740Y210398D01*
X6922Y210854D01*
X7116Y211305D01*
X7320Y211751D01*
X7536Y212192D01*
X7762Y212628D01*
X7998Y213058D01*
X8245Y213482D01*
X8503Y213900D01*
X8771Y214311D01*
X9048Y214716D01*
X9336Y215114D01*
X9633Y215505D01*
X9940Y215888D01*
X10256Y216263D01*
X10581Y216631D01*
X10915Y216991D01*
X11258Y217342D01*
X11609Y217685D01*
X11969Y218019D01*
X12337Y218344D01*
X12712Y218660D01*
X13095Y218967D01*
X13486Y219264D01*
X13884Y219552D01*
X14289Y219829D01*
X14700Y220097D01*
X15118Y220355D01*
X15542Y220602D01*
X15972Y220838D01*
X16408Y221064D01*
X16849Y221280D01*
X17295Y221484D01*
X17746Y221678D01*
X18202Y221860D01*
X18662Y222031D01*
X19126Y222191D01*
X19594Y222339D01*
X20066Y222476D01*
X20540Y222601D01*
X21018Y222714D01*
X21498Y222816D01*
X21981Y222906D01*
X22465Y222984D01*
X22952Y223050D01*
X23440Y223104D01*
X23929Y223146D01*
X24419Y223176D01*
X24909Y223194D01*
X25400Y223200D01*
X25891Y223194D01*
X26381Y223176D01*
X26871Y223146D01*
X27360Y223104D01*
X27848Y223050D01*
X28335Y222984D01*
X28819Y222906D01*
X29302Y222816D01*
X29782Y222714D01*
X30260Y222601D01*
X30734Y222476D01*
X31206Y222339D01*
X31674Y222191D01*
X32138Y222031D01*
X32598Y221860D01*
X33054Y221678D01*
X33505Y221484D01*
X33951Y221280D01*
X34392Y221064D01*
X34828Y220838D01*
X35258Y220602D01*
X35682Y220355D01*
X36100Y220097D01*
X36511Y219829D01*
X36916Y219552D01*
X37314Y219264D01*
X37705Y218967D01*
X38088Y218660D01*
X38463Y218344D01*
X38831Y218019D01*
X39191Y217685D01*
X39542Y217342D01*
X39885Y216991D01*
X40219Y216631D01*
X40544Y216263D01*
X40860Y215888D01*
X41167Y215505D01*
X41464Y215114D01*
X41752Y214716D01*
X42029Y214311D01*
X42297Y213900D01*
X42555Y213482D01*
X42802Y213058D01*
X43038Y212628D01*
X43264Y212192D01*
X43480Y211751D01*
X43684Y211305D01*
X43878Y210854D01*
X44060Y210398D01*
X44231Y209938D01*
X44391Y209474D01*
X44539Y209006D01*
X44676Y208534D01*
X44801Y208060D01*
X44914Y207582D01*
X45016Y207102D01*
X45106Y206619D01*
X45184Y206135D01*
X45250Y205648D01*
X45304Y205160D01*
X45346Y204671D01*
X45376Y204181D01*
X45394Y203691D01*
X45400Y203200D01*
X45394Y202709D01*
X45376Y202219D01*
X45346Y201729D01*
X45304Y201240D01*
X45250Y200752D01*
X45184Y200265D01*
X45106Y199781D01*
X45016Y199298D01*
X44914Y198818D01*
X44801Y198340D01*
X44676Y197866D01*
X44539Y197394D01*
X44391Y196926D01*
X44231Y196462D01*
X44060Y196002D01*
X43878Y195546D01*
X43684Y195095D01*
X43480Y194649D01*
X43264Y194208D01*
X43038Y193772D01*
X42802Y193342D01*
X42555Y192918D01*
X42297Y192500D01*
X42029Y192089D01*
X41752Y191684D01*
X41464Y191286D01*
X41167Y190895D01*
X40860Y190512D01*
X40544Y190137D01*
X40219Y189769D01*
X39885Y189409D01*
X39542Y189058D01*
X39191Y188715D01*
X38831Y188381D01*
X38463Y188056D01*
X38088Y187740D01*
X37705Y187433D01*
X37314Y187136D01*
X36916Y186848D01*
X36511Y186571D01*
X36100Y186303D01*
X35682Y186045D01*
X35258Y185798D01*
X34828Y185562D01*
X34392Y185336D01*
X33951Y185120D01*
X33505Y184916D01*
X33054Y184722D01*
X32598Y184540D01*
X32138Y184369D01*
X31674Y184209D01*
X31206Y184061D01*
X30734Y183924D01*
X30260Y183799D01*
X29782Y183686D01*
X29302Y183584D01*
X28819Y183494D01*
X28335Y183416D01*
X27848Y183350D01*
X27360Y183296D01*
X26871Y183254D01*
X26381Y183224D01*
X25891Y183206D01*
X25400Y183200D01*
X24909Y183206D01*
X24419Y183224D01*
X23929Y183254D01*
X23440Y183296D01*
X22952Y183350D01*
X22465Y183416D01*
X21981Y183494D01*
X21498Y183584D01*
X21018Y183686D01*
X20540Y183799D01*
X20066Y183924D01*
X19594Y184061D01*
X19126Y184209D01*
X18662Y184369D01*
X18202Y184540D01*
X17746Y184722D01*
X17295Y184916D01*
X16849Y185120D01*
X16408Y185336D01*
X15972Y185562D01*
X15542Y185798D01*
X15118Y186045D01*
X14700Y186303D01*
X14289Y186571D01*
X13884Y186848D01*
X13486Y187136D01*
X13095Y187433D01*
X12712Y187740D01*
X12337Y188056D01*
X11969Y188381D01*
X11609Y188715D01*
X11258Y189058D01*
X10915Y189409D01*
X10581Y189769D01*
X10256Y190137D01*
X9940Y190512D01*
X9633Y190895D01*
X9336Y191286D01*
X9048Y191684D01*
X8771Y192089D01*
X8503Y192500D01*
X8245Y192918D01*
X7998Y193342D01*
X7762Y193772D01*
X7536Y194208D01*
X7320Y194649D01*
X7116Y195095D01*
X6922Y195546D01*
X6740Y196002D01*
X6569Y196462D01*
X6409Y196926D01*
X6261Y197394D01*
X6124Y197866D01*
X5999Y198340D01*
X5886Y198818D01*
X5784Y199298D01*
X5694Y199781D01*
X5616Y200265D01*
X5550Y200752D01*
X5496Y201240D01*
X5454Y201729D01*
X5424Y202219D01*
X5406Y202709D01*
X5400Y203200D01*
X5400Y25400D02*
X5406Y25891D01*
X5424Y26381D01*
X5454Y26871D01*
X5496Y27360D01*
X5550Y27848D01*
X5616Y28335D01*
X5694Y28819D01*
X5784Y29302D01*
X5886Y29782D01*
X5999Y30260D01*
X6124Y30734D01*
X6261Y31206D01*
X6409Y31674D01*
X6569Y32138D01*
X6740Y32598D01*
X6922Y33054D01*
X7116Y33505D01*
X7320Y33951D01*
X7536Y34392D01*
X7762Y34828D01*
X7998Y35258D01*
X8245Y35682D01*
X8503Y36100D01*
X8771Y36511D01*
X9048Y36916D01*
X9336Y37314D01*
X9633Y37705D01*
X9940Y38088D01*
X10256Y38463D01*
X10581Y38831D01*
X10915Y39191D01*
X11258Y39542D01*
X11609Y39885D01*
X11969Y40219D01*
X12337Y40544D01*
X12712Y40860D01*
X13095Y41167D01*
X13486Y41464D01*
X13884Y41752D01*
X14289Y42029D01*
X14700Y42297D01*
X15118Y42555D01*
X15542Y42802D01*
X15972Y43038D01*
X16408Y43264D01*
X16849Y43480D01*
X17295Y43684D01*
X17746Y43878D01*
X18202Y44060D01*
X18662Y44231D01*
X19126Y44391D01*
X19594Y44539D01*
X20066Y44676D01*
X20540Y44801D01*
X21018Y44914D01*
X21498Y45016D01*
X21981Y45106D01*
X22465Y45184D01*
X22952Y45250D01*
X23440Y45304D01*
X23929Y45346D01*
X24419Y45376D01*
X24909Y45394D01*
X25400Y45400D01*
X25891Y45394D01*
X26381Y45376D01*
X26871Y45346D01*
X27360Y45304D01*
X27848Y45250D01*
X28335Y45184D01*
X28819Y45106D01*
X29302Y45016D01*
X29782Y44914D01*
X30260Y44801D01*
X30734Y44676D01*
X31206Y44539D01*
X31674Y44391D01*
X32138Y44231D01*
X32598Y44060D01*
X33054Y43878D01*
X33505Y43684D01*
X33951Y43480D01*
X34392Y43264D01*
X34828Y43038D01*
X35258Y42802D01*
X35682Y42555D01*
X36100Y42297D01*
X36511Y42029D01*
X36916Y41752D01*
X37314Y41464D01*
X37705Y41167D01*
X38088Y40860D01*
X38463Y40544D01*
X38831Y40219D01*
X39191Y39885D01*
X39542Y39542D01*
X39885Y39191D01*
X40219Y38831D01*
X40544Y38463D01*
X40860Y38088D01*
X41167Y37705D01*
X41464Y37314D01*
X41752Y36916D01*
X42029Y36511D01*
X42297Y36100D01*
X42555Y35682D01*
X42802Y35258D01*
X43038Y34828D01*
X43264Y34392D01*
X43480Y33951D01*
X43684Y33505D01*
X43878Y33054D01*
X44060Y32598D01*
X44231Y32138D01*
X44391Y31674D01*
X44539Y31206D01*
X44676Y30734D01*
X44801Y30260D01*
X44914Y29782D01*
X45016Y29302D01*
X45106Y28819D01*
X45184Y28335D01*
X45250Y27848D01*
X45304Y27360D01*
X45346Y26871D01*
X45376Y26381D01*
X45394Y25891D01*
X45400Y25400D01*
X45394Y24909D01*
X45376Y24419D01*
X45346Y23929D01*
X45304Y23440D01*
X45250Y22952D01*
X45184Y22465D01*
X45106Y21981D01*
X45016Y21498D01*
X44914Y21018D01*
X44801Y20540D01*
X44676Y20066D01*
X44539Y19594D01*
X44391Y19126D01*
X44231Y18662D01*
X44060Y18202D01*
X43878Y17746D01*
X43684Y17295D01*
X43480Y16849D01*
X43264Y16408D01*
X43038Y15972D01*
X42802Y15542D01*
X42555Y15118D01*
X42297Y14700D01*
X42029Y14289D01*
X41752Y13884D01*
X41464Y13486D01*
X41167Y13095D01*
X40860Y12712D01*
X40544Y12337D01*
X40219Y11969D01*
X39885Y11609D01*
X39542Y11258D01*
X39191Y10915D01*
X38831Y10581D01*
X38463Y10256D01*
X38088Y9940D01*
X37705Y9633D01*
X37314Y9336D01*
X36916Y9048D01*
X36511Y8771D01*
X36100Y8503D01*
X35682Y8245D01*
X35258Y7998D01*
X34828Y7762D01*
X34392Y7536D01*
X33951Y7320D01*
X33505Y7116D01*
X33054Y6922D01*
X32598Y6740D01*
X32138Y6569D01*
X31674Y6409D01*
X31206Y6261D01*
X30734Y6124D01*
X30260Y5999D01*
X29782Y5886D01*
X29302Y5784D01*
X28819Y5694D01*
X28335Y5616D01*
X27848Y5550D01*
X27360Y5496D01*
X26871Y5454D01*
X26381Y5424D01*
X25891Y5406D01*
X25400Y5400D01*
X24909Y5406D01*
X24419Y5424D01*
X23929Y5454D01*
X23440Y5496D01*
X22952Y5550D01*
X22465Y5616D01*
X21981Y5694D01*
X21498Y5784D01*
X21018Y5886D01*
X20540Y5999D01*
X20066Y6124D01*
X19594Y6261D01*
X19126Y6409D01*
X18662Y6569D01*
X18202Y6740D01*
X17746Y6922D01*
X17295Y7116D01*
X16849Y7320D01*
X16408Y7536D01*
X15972Y7762D01*
X15542Y7998D01*
X15118Y8245D01*
X14700Y8503D01*
X14289Y8771D01*
X13884Y9048D01*
X13486Y9336D01*
X13095Y9633D01*
X12712Y9940D01*
X12337Y10256D01*
X11969Y10581D01*
X11609Y10915D01*
X11258Y11258D01*
X10915Y11609D01*
X10581Y11969D01*
X10256Y12337D01*
X9940Y12712D01*
X9633Y13095D01*
X9336Y13486D01*
X9048Y13884D01*
X8771Y14289D01*
X8503Y14700D01*
X8245Y15118D01*
X7998Y15542D01*
X7762Y15972D01*
X7536Y16408D01*
X7320Y16849D01*
X7116Y17295D01*
X6922Y17746D01*
X6740Y18202D01*
X6569Y18662D01*
X6409Y19126D01*
X6261Y19594D01*
X6124Y20066D01*
X5999Y20540D01*
X5886Y21018D01*
X5784Y21498D01*
X5694Y21981D01*
X5616Y22465D01*
X5550Y22952D01*
X5496Y23440D01*
X5454Y23929D01*
X5424Y24419D01*
X5406Y24909D01*
X5400Y25400D01*
X305090Y83475D02*
X361090Y83475D01*
X375090Y83475D01*
X375090Y153475D01*
X361090Y153475D01*
X305090Y153475D01*
X305090Y83475D01*
X361090Y83475D02*
X361090Y153475D01*
D12*
X301428Y89643D02*
X294818Y85237D01*
X294818Y89643D02*
X301428Y85237D01*
X297022Y92721D02*
X294818Y94924D01*
X301428Y94924D01*
X301428Y92721D02*
X301428Y97128D01*
D15*
X290060Y99070D02*
X279900Y99070D01*
D12*
X277649Y76614D02*
X277649Y70004D01*
X277649Y76614D02*
X280954Y76614D01*
X282055Y75512D01*
X282055Y73309D01*
X280954Y72207D01*
X277649Y72207D01*
X279852Y72207D02*
X282055Y70004D01*
X285133Y71106D02*
X286234Y70004D01*
X288438Y70004D01*
X289539Y71106D01*
X289539Y75512D01*
X288438Y76614D01*
X286234Y76614D01*
X285133Y75512D01*
X285133Y74410D01*
X286234Y73309D01*
X289539Y73309D01*
D15*
X289880Y135230D02*
X279720Y135230D01*
D12*
X273985Y113774D02*
X273985Y107164D01*
X273985Y113774D02*
X277289Y113774D01*
X278391Y112672D01*
X278391Y110469D01*
X277289Y109367D01*
X273985Y109367D01*
X276188Y109367D02*
X278391Y107164D01*
X281469Y111570D02*
X283672Y113774D01*
X283672Y107164D01*
X281469Y107164D02*
X285875Y107164D01*
X288953Y108266D02*
X288953Y112672D01*
X290054Y113774D01*
X292258Y113774D01*
X293359Y112672D01*
X293359Y108266D01*
X292258Y107164D01*
X290054Y107164D01*
X288953Y108266D01*
X293359Y112672D01*
D15*
X299720Y200660D02*
X299720Y210820D01*
D12*
X277258Y195627D02*
X270648Y195627D01*
X270648Y198932D01*
X271750Y200033D01*
X273953Y200033D01*
X275055Y198932D01*
X275055Y195627D01*
X275055Y197830D02*
X277258Y200033D01*
X272852Y203111D02*
X270648Y205314D01*
X277258Y205314D01*
X277258Y203111D02*
X277258Y207518D01*
X272852Y210595D02*
X270648Y212799D01*
X277258Y212799D01*
X277258Y215002D02*
X277258Y210595D01*
D15*
X334010Y207010D02*
X334010Y217170D01*
D12*
X354195Y214024D02*
X354195Y220634D01*
X357499Y220634D01*
X358601Y219532D01*
X358601Y217329D01*
X357499Y216227D01*
X354195Y216227D01*
X356398Y216227D02*
X358601Y214024D01*
X361679Y218430D02*
X363882Y220634D01*
X363882Y214024D01*
X361679Y214024D02*
X366085Y214024D01*
X369163Y214024D02*
X373569Y214024D01*
X369163Y214024D02*
X373569Y218430D01*
X373569Y219532D01*
X372468Y220634D01*
X370264Y220634D01*
X369163Y219532D01*
D14*
X297990Y191475D02*
X297990Y43475D01*
D11*
X298450Y43815D02*
X356870Y43815D01*
X356870Y191135D02*
X298450Y191135D01*
D12*
X288020Y47443D02*
X286918Y46342D01*
X286918Y44139D01*
X288020Y43037D01*
X292426Y43037D01*
X293528Y44139D01*
X293528Y46342D01*
X292426Y47443D01*
X293528Y50521D02*
X286918Y50521D01*
X293528Y54928D01*
X286918Y54928D01*
X289122Y58005D02*
X286918Y60209D01*
X293528Y60209D01*
X293528Y62412D02*
X293528Y58005D01*
D16*
X54290Y210968D03*
D15*
X153350Y166230D02*
X163510Y166230D01*
D12*
X170886Y151415D02*
X177496Y151415D01*
X170886Y151415D02*
X170886Y154719D01*
X171988Y155821D01*
X174191Y155821D01*
X175293Y154719D01*
X175293Y151415D01*
X175293Y153618D02*
X177496Y155821D01*
X177496Y158899D02*
X177496Y163305D01*
X177496Y158899D02*
X173090Y163305D01*
X171988Y163305D01*
X170886Y162204D01*
X170886Y160000D01*
X171988Y158899D01*
X171988Y166383D02*
X176394Y166383D01*
X171988Y166383D02*
X170886Y167484D01*
X170886Y169688D01*
X171988Y170789D01*
X176394Y170789D01*
X177496Y169688D01*
X177496Y167484D01*
X176394Y166383D01*
X171988Y170789D01*
D17*
X339588Y15560D03*
D15*
X292100Y60960D02*
X281940Y60960D01*
D12*
X275558Y53847D02*
X268948Y53847D01*
X268948Y57152D01*
X270050Y58253D01*
X272253Y58253D01*
X273355Y57152D01*
X273355Y53847D01*
X273355Y56050D02*
X275558Y58253D01*
X268948Y61331D02*
X268948Y65738D01*
X268948Y61331D02*
X272253Y61331D01*
X271152Y63534D01*
X271152Y64636D01*
X272253Y65738D01*
X274456Y65738D01*
X275558Y64636D01*
X275558Y62433D01*
X274456Y61331D01*
D15*
X196520Y88890D02*
X186360Y88890D01*
D12*
X179625Y110824D02*
X179625Y117434D01*
X182929Y117434D01*
X184031Y116332D01*
X184031Y114129D01*
X182929Y113027D01*
X179625Y113027D01*
X181828Y113027D02*
X184031Y110824D01*
X187109Y115230D02*
X189312Y117434D01*
X189312Y110824D01*
X187109Y110824D02*
X191515Y110824D01*
X194593Y116332D02*
X195694Y117434D01*
X197898Y117434D01*
X198999Y116332D01*
X198999Y115230D01*
X197898Y114129D01*
X196796Y114129D01*
X197898Y114129D02*
X198999Y113027D01*
X198999Y111926D01*
X197898Y110824D01*
X195694Y110824D01*
X194593Y111926D01*
D15*
X190500Y49530D02*
X190500Y39370D01*
D12*
X214887Y50552D02*
X215988Y49450D01*
X214887Y50552D02*
X212684Y50552D01*
X211582Y49450D01*
X211582Y45044D01*
X212684Y43942D01*
X214887Y43942D01*
X215988Y45044D01*
X222371Y43942D02*
X222371Y50552D01*
X219066Y47247D01*
X223473Y47247D01*
D15*
X229870Y55880D02*
X240030Y55880D01*
D12*
X241046Y21354D02*
X234436Y21354D01*
X234436Y24659D01*
X235538Y25760D01*
X237741Y25760D01*
X238843Y24659D01*
X238843Y21354D01*
X238843Y23557D02*
X241046Y25760D01*
X235538Y28838D02*
X234436Y29939D01*
X234436Y32143D01*
X235538Y33244D01*
X236640Y33244D01*
X237741Y32143D01*
X237741Y31041D01*
X237741Y32143D02*
X238843Y33244D01*
X239944Y33244D01*
X241046Y32143D01*
X241046Y29939D01*
X239944Y28838D01*
D15*
X222250Y60960D02*
X212090Y60960D01*
D12*
X211068Y82042D02*
X217678Y82042D01*
X211068Y82042D02*
X211068Y85347D01*
X212170Y86448D01*
X214373Y86448D01*
X215475Y85347D01*
X215475Y82042D01*
X215475Y84245D02*
X217678Y86448D01*
X217678Y92831D02*
X211068Y92831D01*
X214373Y89526D01*
X214373Y93933D01*
D14*
X195580Y121920D02*
X195580Y132080D01*
D12*
X216662Y133102D02*
X216662Y126492D01*
X216662Y133102D02*
X219967Y133102D01*
X221068Y132000D01*
X221068Y129797D01*
X219967Y128695D01*
X216662Y128695D01*
X218865Y128695D02*
X221068Y126492D01*
X224146Y126492D02*
X228553Y126492D01*
X228553Y130898D02*
X224146Y126492D01*
X228553Y130898D02*
X228553Y132000D01*
X227451Y133102D01*
X225248Y133102D01*
X224146Y132000D01*
D14*
X195580Y140970D02*
X195580Y151130D01*
D12*
X161054Y146564D02*
X161054Y139954D01*
X161054Y146564D02*
X164359Y146564D01*
X165460Y145462D01*
X165460Y143259D01*
X164359Y142157D01*
X161054Y142157D01*
X163257Y142157D02*
X165460Y139954D01*
X168538Y144360D02*
X170741Y146564D01*
X170741Y139954D01*
X168538Y139954D02*
X172944Y139954D01*
D10*
X142328Y84592D02*
X142328Y72898D01*
X138430Y84592D02*
X146226Y84592D01*
X150124Y80694D02*
X154022Y84592D01*
X154022Y72898D01*
X150124Y72898D02*
X157920Y72898D01*
X281168Y52817D02*
X283117Y54766D01*
X281168Y52817D02*
X281168Y48919D01*
X283117Y46970D01*
X290913Y46970D01*
X292862Y48919D01*
X292862Y52817D01*
X290913Y54766D01*
X283117Y62562D02*
X281168Y66460D01*
X283117Y62562D02*
X287015Y58664D01*
X290913Y58664D01*
X292862Y60613D01*
X292862Y64511D01*
X290913Y66460D01*
X288964Y66460D01*
X287015Y64511D01*
X287015Y58664D01*
D15*
X307181Y62230D02*
X315118Y62230D01*
X311150Y66198D02*
X311150Y58262D01*
D14*
X303333Y62230D02*
X303335Y62422D01*
X303342Y62614D01*
X303354Y62805D01*
X303371Y62996D01*
X303392Y63187D01*
X303418Y63377D01*
X303448Y63566D01*
X303483Y63755D01*
X303523Y63943D01*
X303567Y64129D01*
X303616Y64315D01*
X303670Y64499D01*
X303728Y64682D01*
X303790Y64863D01*
X303857Y65043D01*
X303928Y65221D01*
X304004Y65398D01*
X304084Y65572D01*
X304168Y65745D01*
X304256Y65915D01*
X304349Y66083D01*
X304445Y66249D01*
X304546Y66412D01*
X304650Y66573D01*
X304759Y66731D01*
X304871Y66887D01*
X304987Y67039D01*
X305107Y67189D01*
X305231Y67336D01*
X305358Y67480D01*
X305489Y67620D01*
X305623Y67757D01*
X305760Y67891D01*
X305900Y68022D01*
X306044Y68149D01*
X306191Y68273D01*
X306341Y68393D01*
X306493Y68509D01*
X306649Y68621D01*
X306807Y68730D01*
X306968Y68834D01*
X307131Y68935D01*
X307297Y69031D01*
X307465Y69124D01*
X307635Y69212D01*
X307808Y69296D01*
X307982Y69376D01*
X308159Y69452D01*
X308337Y69523D01*
X308517Y69590D01*
X308698Y69652D01*
X308881Y69710D01*
X309065Y69764D01*
X309251Y69813D01*
X309437Y69857D01*
X309625Y69897D01*
X309814Y69932D01*
X310003Y69962D01*
X310193Y69988D01*
X310384Y70009D01*
X310575Y70026D01*
X310766Y70038D01*
X310958Y70045D01*
X311150Y70047D01*
X311342Y70045D01*
X311534Y70038D01*
X311725Y70026D01*
X311916Y70009D01*
X312107Y69988D01*
X312297Y69962D01*
X312486Y69932D01*
X312675Y69897D01*
X312863Y69857D01*
X313049Y69813D01*
X313235Y69764D01*
X313419Y69710D01*
X313602Y69652D01*
X313783Y69590D01*
X313963Y69523D01*
X314141Y69452D01*
X314318Y69376D01*
X314492Y69296D01*
X314665Y69212D01*
X314835Y69124D01*
X315003Y69031D01*
X315169Y68935D01*
X315332Y68834D01*
X315493Y68730D01*
X315651Y68621D01*
X315807Y68509D01*
X315959Y68393D01*
X316109Y68273D01*
X316256Y68149D01*
X316400Y68022D01*
X316540Y67891D01*
X316677Y67757D01*
X316811Y67620D01*
X316942Y67480D01*
X317069Y67336D01*
X317193Y67189D01*
X317313Y67039D01*
X317429Y66887D01*
X317541Y66731D01*
X317650Y66573D01*
X317754Y66412D01*
X317855Y66249D01*
X317951Y66083D01*
X318044Y65915D01*
X318132Y65745D01*
X318216Y65572D01*
X318296Y65398D01*
X318372Y65221D01*
X318443Y65043D01*
X318510Y64863D01*
X318572Y64682D01*
X318630Y64499D01*
X318684Y64315D01*
X318733Y64129D01*
X318777Y63943D01*
X318817Y63755D01*
X318852Y63566D01*
X318882Y63377D01*
X318908Y63187D01*
X318929Y62996D01*
X318946Y62805D01*
X318958Y62614D01*
X318965Y62422D01*
X318967Y62230D01*
X318965Y62038D01*
X318958Y61846D01*
X318946Y61655D01*
X318929Y61464D01*
X318908Y61273D01*
X318882Y61083D01*
X318852Y60894D01*
X318817Y60705D01*
X318777Y60517D01*
X318733Y60331D01*
X318684Y60145D01*
X318630Y59961D01*
X318572Y59778D01*
X318510Y59597D01*
X318443Y59417D01*
X318372Y59239D01*
X318296Y59062D01*
X318216Y58888D01*
X318132Y58715D01*
X318044Y58545D01*
X317951Y58377D01*
X317855Y58211D01*
X317754Y58048D01*
X317650Y57887D01*
X317541Y57729D01*
X317429Y57573D01*
X317313Y57421D01*
X317193Y57271D01*
X317069Y57124D01*
X316942Y56980D01*
X316811Y56840D01*
X316677Y56703D01*
X316540Y56569D01*
X316400Y56438D01*
X316256Y56311D01*
X316109Y56187D01*
X315959Y56067D01*
X315807Y55951D01*
X315651Y55839D01*
X315493Y55730D01*
X315332Y55626D01*
X315169Y55525D01*
X315003Y55429D01*
X314835Y55336D01*
X314665Y55248D01*
X314492Y55164D01*
X314318Y55084D01*
X314141Y55008D01*
X313963Y54937D01*
X313783Y54870D01*
X313602Y54808D01*
X313419Y54750D01*
X313235Y54696D01*
X313049Y54647D01*
X312863Y54603D01*
X312675Y54563D01*
X312486Y54528D01*
X312297Y54498D01*
X312107Y54472D01*
X311916Y54451D01*
X311725Y54434D01*
X311534Y54422D01*
X311342Y54415D01*
X311150Y54413D01*
X310958Y54415D01*
X310766Y54422D01*
X310575Y54434D01*
X310384Y54451D01*
X310193Y54472D01*
X310003Y54498D01*
X309814Y54528D01*
X309625Y54563D01*
X309437Y54603D01*
X309251Y54647D01*
X309065Y54696D01*
X308881Y54750D01*
X308698Y54808D01*
X308517Y54870D01*
X308337Y54937D01*
X308159Y55008D01*
X307982Y55084D01*
X307808Y55164D01*
X307635Y55248D01*
X307465Y55336D01*
X307297Y55429D01*
X307131Y55525D01*
X306968Y55626D01*
X306807Y55730D01*
X306649Y55839D01*
X306493Y55951D01*
X306341Y56067D01*
X306191Y56187D01*
X306044Y56311D01*
X305900Y56438D01*
X305760Y56569D01*
X305623Y56703D01*
X305489Y56840D01*
X305358Y56980D01*
X305231Y57124D01*
X305107Y57271D01*
X304987Y57421D01*
X304871Y57573D01*
X304759Y57729D01*
X304650Y57887D01*
X304546Y58048D01*
X304445Y58211D01*
X304349Y58377D01*
X304256Y58545D01*
X304168Y58715D01*
X304084Y58888D01*
X304004Y59062D01*
X303928Y59239D01*
X303857Y59417D01*
X303790Y59597D01*
X303728Y59778D01*
X303670Y59961D01*
X303616Y60145D01*
X303567Y60331D01*
X303523Y60517D01*
X303483Y60705D01*
X303448Y60894D01*
X303418Y61083D01*
X303392Y61273D01*
X303371Y61464D01*
X303354Y61655D01*
X303342Y61846D01*
X303335Y62038D01*
X303333Y62230D01*
D15*
X311150Y170021D02*
X311150Y177958D01*
D14*
X303333Y173990D02*
X303335Y174182D01*
X303342Y174374D01*
X303354Y174565D01*
X303371Y174756D01*
X303392Y174947D01*
X303418Y175137D01*
X303448Y175326D01*
X303483Y175515D01*
X303523Y175703D01*
X303567Y175889D01*
X303616Y176075D01*
X303670Y176259D01*
X303728Y176442D01*
X303790Y176623D01*
X303857Y176803D01*
X303928Y176981D01*
X304004Y177158D01*
X304084Y177332D01*
X304168Y177505D01*
X304256Y177675D01*
X304349Y177843D01*
X304445Y178009D01*
X304546Y178172D01*
X304650Y178333D01*
X304759Y178491D01*
X304871Y178647D01*
X304987Y178799D01*
X305107Y178949D01*
X305231Y179096D01*
X305358Y179240D01*
X305489Y179380D01*
X305623Y179517D01*
X305760Y179651D01*
X305900Y179782D01*
X306044Y179909D01*
X306191Y180033D01*
X306341Y180153D01*
X306493Y180269D01*
X306649Y180381D01*
X306807Y180490D01*
X306968Y180594D01*
X307131Y180695D01*
X307297Y180791D01*
X307465Y180884D01*
X307635Y180972D01*
X307808Y181056D01*
X307982Y181136D01*
X308159Y181212D01*
X308337Y181283D01*
X308517Y181350D01*
X308698Y181412D01*
X308881Y181470D01*
X309065Y181524D01*
X309251Y181573D01*
X309437Y181617D01*
X309625Y181657D01*
X309814Y181692D01*
X310003Y181722D01*
X310193Y181748D01*
X310384Y181769D01*
X310575Y181786D01*
X310766Y181798D01*
X310958Y181805D01*
X311150Y181807D01*
X311342Y181805D01*
X311534Y181798D01*
X311725Y181786D01*
X311916Y181769D01*
X312107Y181748D01*
X312297Y181722D01*
X312486Y181692D01*
X312675Y181657D01*
X312863Y181617D01*
X313049Y181573D01*
X313235Y181524D01*
X313419Y181470D01*
X313602Y181412D01*
X313783Y181350D01*
X313963Y181283D01*
X314141Y181212D01*
X314318Y181136D01*
X314492Y181056D01*
X314665Y180972D01*
X314835Y180884D01*
X315003Y180791D01*
X315169Y180695D01*
X315332Y180594D01*
X315493Y180490D01*
X315651Y180381D01*
X315807Y180269D01*
X315959Y180153D01*
X316109Y180033D01*
X316256Y179909D01*
X316400Y179782D01*
X316540Y179651D01*
X316677Y179517D01*
X316811Y179380D01*
X316942Y179240D01*
X317069Y179096D01*
X317193Y178949D01*
X317313Y178799D01*
X317429Y178647D01*
X317541Y178491D01*
X317650Y178333D01*
X317754Y178172D01*
X317855Y178009D01*
X317951Y177843D01*
X318044Y177675D01*
X318132Y177505D01*
X318216Y177332D01*
X318296Y177158D01*
X318372Y176981D01*
X318443Y176803D01*
X318510Y176623D01*
X318572Y176442D01*
X318630Y176259D01*
X318684Y176075D01*
X318733Y175889D01*
X318777Y175703D01*
X318817Y175515D01*
X318852Y175326D01*
X318882Y175137D01*
X318908Y174947D01*
X318929Y174756D01*
X318946Y174565D01*
X318958Y174374D01*
X318965Y174182D01*
X318967Y173990D01*
X318965Y173798D01*
X318958Y173606D01*
X318946Y173415D01*
X318929Y173224D01*
X318908Y173033D01*
X318882Y172843D01*
X318852Y172654D01*
X318817Y172465D01*
X318777Y172277D01*
X318733Y172091D01*
X318684Y171905D01*
X318630Y171721D01*
X318572Y171538D01*
X318510Y171357D01*
X318443Y171177D01*
X318372Y170999D01*
X318296Y170822D01*
X318216Y170648D01*
X318132Y170475D01*
X318044Y170305D01*
X317951Y170137D01*
X317855Y169971D01*
X317754Y169808D01*
X317650Y169647D01*
X317541Y169489D01*
X317429Y169333D01*
X317313Y169181D01*
X317193Y169031D01*
X317069Y168884D01*
X316942Y168740D01*
X316811Y168600D01*
X316677Y168463D01*
X316540Y168329D01*
X316400Y168198D01*
X316256Y168071D01*
X316109Y167947D01*
X315959Y167827D01*
X315807Y167711D01*
X315651Y167599D01*
X315493Y167490D01*
X315332Y167386D01*
X315169Y167285D01*
X315003Y167189D01*
X314835Y167096D01*
X314665Y167008D01*
X314492Y166924D01*
X314318Y166844D01*
X314141Y166768D01*
X313963Y166697D01*
X313783Y166630D01*
X313602Y166568D01*
X313419Y166510D01*
X313235Y166456D01*
X313049Y166407D01*
X312863Y166363D01*
X312675Y166323D01*
X312486Y166288D01*
X312297Y166258D01*
X312107Y166232D01*
X311916Y166211D01*
X311725Y166194D01*
X311534Y166182D01*
X311342Y166175D01*
X311150Y166173D01*
X310958Y166175D01*
X310766Y166182D01*
X310575Y166194D01*
X310384Y166211D01*
X310193Y166232D01*
X310003Y166258D01*
X309814Y166288D01*
X309625Y166323D01*
X309437Y166363D01*
X309251Y166407D01*
X309065Y166456D01*
X308881Y166510D01*
X308698Y166568D01*
X308517Y166630D01*
X308337Y166697D01*
X308159Y166768D01*
X307982Y166844D01*
X307808Y166924D01*
X307635Y167008D01*
X307465Y167096D01*
X307297Y167189D01*
X307131Y167285D01*
X306968Y167386D01*
X306807Y167490D01*
X306649Y167599D01*
X306493Y167711D01*
X306341Y167827D01*
X306191Y167947D01*
X306044Y168071D01*
X305900Y168198D01*
X305760Y168329D01*
X305623Y168463D01*
X305489Y168600D01*
X305358Y168740D01*
X305231Y168884D01*
X305107Y169031D01*
X304987Y169181D01*
X304871Y169333D01*
X304759Y169489D01*
X304650Y169647D01*
X304546Y169808D01*
X304445Y169971D01*
X304349Y170137D01*
X304256Y170305D01*
X304168Y170475D01*
X304084Y170648D01*
X304004Y170822D01*
X303928Y170999D01*
X303857Y171177D01*
X303790Y171357D01*
X303728Y171538D01*
X303670Y171721D01*
X303616Y171905D01*
X303567Y172091D01*
X303523Y172277D01*
X303483Y172465D01*
X303448Y172654D01*
X303418Y172843D01*
X303392Y173033D01*
X303371Y173224D01*
X303354Y173415D01*
X303342Y173606D01*
X303335Y173798D01*
X303333Y173990D01*
D15*
X158750Y96520D02*
X148590Y96520D01*
D12*
X153156Y61994D02*
X159766Y61994D01*
X153156Y61994D02*
X153156Y65299D01*
X154258Y66400D01*
X156461Y66400D01*
X157563Y65299D01*
X157563Y61994D01*
X157563Y64197D02*
X159766Y66400D01*
X154258Y71681D02*
X153156Y73884D01*
X154258Y71681D02*
X156461Y69478D01*
X158664Y69478D01*
X159766Y70579D01*
X159766Y72783D01*
X158664Y73884D01*
X157563Y73884D01*
X156461Y72783D01*
X156461Y69478D01*
D15*
X167640Y96520D02*
X177800Y96520D01*
D12*
X178816Y61994D02*
X172206Y61994D01*
X172206Y65299D01*
X173308Y66400D01*
X175511Y66400D01*
X176613Y65299D01*
X176613Y61994D01*
X176613Y64197D02*
X178816Y66400D01*
X172206Y69478D02*
X172206Y73884D01*
X173308Y73884D01*
X177714Y69478D01*
X178816Y69478D01*
D17*
X59873Y11430D03*
D12*
X50835Y514D02*
X50835Y-6096D01*
X54140Y-6096D01*
X55242Y-4994D01*
X55242Y-588D01*
X54140Y514D01*
X50835Y514D01*
X59421Y514D02*
X61624Y514D01*
X59421Y514D02*
X58320Y-588D01*
X58320Y-4994D01*
X59421Y-6096D01*
X61624Y-6096D01*
X62726Y-4994D01*
X62726Y-588D01*
X61624Y514D01*
X65804Y514D02*
X65804Y-6096D01*
X70210Y-6096D02*
X65804Y514D01*
X70210Y514D02*
X70210Y-6096D01*
X73288Y514D02*
X77694Y514D01*
X73288Y514D02*
X73288Y-6096D01*
X77694Y-6096D01*
X75491Y-2791D02*
X73288Y-2791D01*
D17*
X100148Y11430D03*
D12*
X85178Y27860D02*
X84077Y28962D01*
X81874Y28962D01*
X80772Y27860D01*
X80772Y23454D01*
X81874Y22352D01*
X84077Y22352D01*
X85178Y23454D01*
X88256Y22352D02*
X88256Y28962D01*
X88256Y25657D02*
X92663Y25657D01*
X92663Y28962D02*
X92663Y22352D01*
X95740Y22352D02*
X95740Y28962D01*
X99045Y28962D01*
X100147Y27860D01*
X100147Y25657D01*
X99045Y24555D01*
X95740Y24555D01*
X97944Y24555D02*
X100147Y22352D01*
X106529Y28962D02*
X107631Y27860D01*
X106529Y28962D02*
X104326Y28962D01*
X103224Y27860D01*
X103224Y23454D01*
X104326Y22352D01*
X106529Y22352D01*
X107631Y23454D01*
X107631Y25657D01*
X105428Y25657D01*
X110709Y22352D02*
X115115Y28962D01*
X118193Y28962D02*
X118193Y22352D01*
X122599Y22352D01*
X125677Y22352D02*
X125677Y28962D01*
X128982Y28962D01*
X130083Y27860D01*
X130083Y26758D01*
X128982Y25657D01*
X130083Y24555D01*
X130083Y23454D01*
X128982Y22352D01*
X125677Y22352D01*
X125677Y25657D02*
X128982Y25657D01*
X134263Y28962D02*
X136466Y28962D01*
X134263Y28962D02*
X133161Y27860D01*
X133161Y23454D01*
X134263Y22352D01*
X136466Y22352D01*
X137568Y23454D01*
X137568Y27860D01*
X136466Y28962D01*
D15*
X80010Y50800D02*
X69850Y50800D01*
D12*
X74416Y16274D02*
X81026Y16274D01*
X74416Y16274D02*
X74416Y19579D01*
X75518Y20680D01*
X77721Y20680D01*
X78823Y19579D01*
X78823Y16274D01*
X78823Y18477D02*
X81026Y20680D01*
X75518Y23758D02*
X74416Y24859D01*
X74416Y27063D01*
X75518Y28164D01*
X76620Y28164D01*
X77721Y27063D01*
X78823Y28164D01*
X79924Y28164D01*
X81026Y27063D01*
X81026Y24859D01*
X79924Y23758D01*
X78823Y23758D01*
X77721Y24859D01*
X76620Y23758D01*
X75518Y23758D01*
X77721Y24859D02*
X77721Y27063D01*
D15*
X60960Y43180D02*
X50800Y43180D01*
D12*
X55366Y1170D02*
X61976Y1170D01*
X55366Y1170D02*
X55366Y4474D01*
X56468Y5576D01*
X58671Y5576D01*
X59773Y4474D01*
X59773Y1170D01*
X59773Y3373D02*
X61976Y5576D01*
X57570Y8654D02*
X55366Y10857D01*
X61976Y10857D01*
X61976Y8654D02*
X61976Y13060D01*
X61976Y19443D02*
X55366Y19443D01*
X58671Y16138D01*
X58671Y20544D01*
D15*
X142240Y133350D02*
X142240Y143510D01*
D12*
X166627Y144532D02*
X167728Y143430D01*
X166627Y144532D02*
X164424Y144532D01*
X163322Y143430D01*
X163322Y139024D01*
X164424Y137922D01*
X166627Y137922D01*
X167728Y139024D01*
X170806Y144532D02*
X175213Y144532D01*
X175213Y143430D01*
X170806Y139024D01*
X170806Y137922D01*
D15*
X76200Y129540D02*
X66040Y129540D01*
D12*
X65018Y153927D02*
X66120Y155028D01*
X65018Y153927D02*
X65018Y151724D01*
X66120Y150622D01*
X70526Y150622D01*
X71628Y151724D01*
X71628Y153927D01*
X70526Y155028D01*
X66120Y158106D02*
X65018Y159208D01*
X65018Y161411D01*
X66120Y162513D01*
X67222Y162513D01*
X68323Y161411D01*
X69425Y162513D01*
X70526Y162513D01*
X71628Y161411D01*
X71628Y159208D01*
X70526Y158106D01*
X69425Y158106D01*
X68323Y159208D01*
X67222Y158106D01*
X66120Y158106D01*
X68323Y159208D02*
X68323Y161411D01*
D15*
X120650Y50800D02*
X130810Y50800D01*
D12*
X126238Y71882D02*
X119628Y71882D01*
X119628Y75187D01*
X120730Y76288D01*
X122933Y76288D01*
X124035Y75187D01*
X124035Y71882D01*
X124035Y74085D02*
X126238Y76288D01*
X121832Y79366D02*
X119628Y81569D01*
X126238Y81569D01*
X126238Y79366D02*
X126238Y83773D01*
X120730Y89054D02*
X119628Y91257D01*
X120730Y89054D02*
X122933Y86850D01*
X125136Y86850D01*
X126238Y87952D01*
X126238Y90155D01*
X125136Y91257D01*
X124035Y91257D01*
X122933Y90155D01*
X122933Y86850D01*
D15*
X111760Y50800D02*
X101600Y50800D01*
D12*
X100578Y71882D02*
X107188Y71882D01*
X100578Y71882D02*
X100578Y75187D01*
X101680Y76288D01*
X103883Y76288D01*
X104985Y75187D01*
X104985Y71882D01*
X104985Y74085D02*
X107188Y76288D01*
X102782Y79366D02*
X100578Y81569D01*
X107188Y81569D01*
X107188Y79366D02*
X107188Y83773D01*
X100578Y86850D02*
X100578Y91257D01*
X101680Y91257D01*
X106086Y86850D01*
X107188Y86850D01*
D11*
X54180Y131300D02*
X54180Y139300D01*
X54180Y97300D02*
X54180Y89300D01*
X9180Y152300D02*
X180Y152300D01*
X180Y76300D01*
X9180Y76300D01*
D12*
X-14584Y123694D02*
X-13482Y124796D01*
X-14584Y123694D02*
X-14584Y121491D01*
X-13482Y120390D01*
X-9076Y120390D01*
X-7974Y121491D01*
X-7974Y123694D01*
X-9076Y124796D01*
X-7974Y127874D02*
X-14584Y127874D01*
X-7974Y132280D01*
X-14584Y132280D01*
X-14584Y138663D02*
X-7974Y138663D01*
X-11279Y135358D02*
X-14584Y138663D01*
X-11279Y139764D02*
X-11279Y135358D01*
D15*
X64770Y93980D02*
X74930Y93980D01*
D12*
X70358Y117265D02*
X63748Y117265D01*
X63748Y115062D02*
X63748Y119468D01*
X63748Y122546D02*
X70358Y122546D01*
X67053Y122546D02*
X67053Y126953D01*
X63748Y126953D02*
X70358Y126953D01*
X63748Y130030D02*
X63748Y134437D01*
X63748Y130030D02*
X70358Y130030D01*
X70358Y134437D01*
X67053Y132234D02*
X67053Y130030D01*
X70358Y137514D02*
X63748Y137514D01*
X63748Y140819D01*
X64850Y141921D01*
X67053Y141921D01*
X68155Y140819D01*
X68155Y137514D01*
X68155Y139718D02*
X70358Y141921D01*
X70358Y144999D02*
X63748Y144999D01*
X65952Y147202D01*
X63748Y149405D01*
X70358Y149405D01*
X115570Y32852D02*
X116672Y31750D01*
X117773Y31750D01*
X118875Y32852D01*
X118875Y38360D01*
X119976Y38360D02*
X117773Y38360D01*
X123054Y38360D02*
X123054Y31750D01*
X123054Y38360D02*
X126359Y38360D01*
X127461Y37258D01*
X127461Y35055D01*
X126359Y33953D01*
X123054Y33953D01*
X130538Y31750D02*
X134945Y31750D01*
X134945Y36156D02*
X130538Y31750D01*
X134945Y36156D02*
X134945Y37258D01*
X133843Y38360D01*
X131640Y38360D01*
X130538Y37258D01*
D18*
X191738Y176721D03*
D19*
X191770Y176784D03*
D20*
X191770Y176848D03*
D21*
X191739Y176911D03*
D22*
X191770Y176975D03*
D23*
X191738Y177038D03*
D24*
X191770Y177102D03*
D25*
X191739Y177165D03*
D26*
X191738Y177229D03*
D27*
X191675Y177292D03*
D28*
X191675Y177356D03*
D29*
X191612Y177419D03*
D30*
X191611Y177483D03*
D31*
X191580Y177546D03*
D32*
X191516Y177610D03*
D33*
X191516Y177673D03*
D34*
X191485Y177737D03*
D35*
X191421Y177800D03*
D36*
X191389Y177864D03*
D37*
X191389Y177927D03*
D38*
X191326Y177991D03*
D39*
X191294Y178054D03*
D40*
X191230Y178118D03*
D41*
X191199Y178181D03*
D42*
X191167Y178245D03*
D43*
X191103Y178308D03*
D44*
X191072Y178372D03*
D45*
X191040Y178435D03*
D46*
X190976Y178499D03*
D47*
X190945Y178562D03*
D48*
X190881Y178626D03*
D49*
X190849Y178689D03*
D50*
X190818Y178753D03*
D51*
X190754Y178816D03*
D52*
X190722Y178880D03*
D53*
X190691Y178943D03*
D54*
X190627Y179007D03*
D55*
X190595Y179070D03*
D56*
X190564Y179134D03*
D57*
X190500Y179197D03*
D58*
X190468Y179261D03*
D59*
X190405Y179324D03*
D60*
X190373Y179388D03*
D61*
X190341Y179451D03*
D62*
X190278Y179515D03*
D63*
X190246Y179578D03*
D64*
X190214Y179642D03*
D65*
X190151Y179705D03*
D66*
X190119Y179769D03*
D67*
X190087Y179832D03*
D68*
X190024Y179896D03*
D69*
X189992Y179959D03*
D70*
X189929Y180023D03*
D71*
X189897Y180086D03*
D72*
X170085Y180150D03*
D73*
X189865Y180150D03*
D74*
X170085Y180213D03*
D75*
X189802Y180213D03*
D76*
X170149Y180277D03*
D77*
X189770Y180277D03*
D78*
X170212Y180340D03*
D79*
X189738Y180340D03*
D80*
X170244Y180404D03*
D81*
X189675Y180404D03*
D82*
X170307Y180467D03*
D83*
X189643Y180467D03*
D84*
X170371Y180531D03*
D85*
X189611Y180531D03*
D86*
X170466Y180594D03*
D87*
X189548Y180594D03*
D88*
X170498Y180658D03*
D89*
X189516Y180658D03*
D35*
X170593Y180721D03*
D90*
X189452Y180721D03*
D91*
X170657Y180785D03*
D92*
X189421Y180785D03*
D93*
X170752Y180848D03*
D94*
X189389Y180848D03*
D42*
X170847Y180912D03*
D95*
X189325Y180912D03*
D96*
X170879Y180975D03*
D97*
X189294Y180975D03*
D98*
X171006Y181039D03*
D99*
X189262Y181039D03*
D100*
X171069Y181102D03*
D101*
X189198Y181102D03*
D52*
X171164Y181166D03*
D102*
X189167Y181166D03*
D103*
X171228Y181229D03*
D104*
X189135Y181229D03*
D105*
X171355Y181293D03*
D106*
X189071Y181293D03*
D107*
X171418Y181356D03*
D108*
X189040Y181356D03*
D109*
X171545Y181420D03*
D110*
X189008Y181420D03*
D111*
X171641Y181483D03*
D112*
X188976Y181483D03*
D113*
X171736Y181547D03*
D114*
X188913Y181547D03*
D115*
X171831Y181610D03*
D116*
X188881Y181610D03*
D117*
X171926Y181674D03*
D118*
X188849Y181674D03*
D119*
X172022Y181737D03*
D120*
X188817Y181737D03*
D121*
X172149Y181801D03*
D122*
X188786Y181801D03*
D123*
X172244Y181864D03*
D124*
X188754Y181864D03*
D85*
X172339Y181928D03*
D125*
X188722Y181928D03*
D126*
X172435Y181991D03*
D127*
X188690Y181991D03*
D92*
X172530Y182055D03*
D128*
X188659Y182055D03*
D129*
X172657Y182118D03*
D130*
X188627Y182118D03*
D99*
X172752Y182182D03*
D131*
X188595Y182182D03*
D132*
X172847Y182245D03*
D133*
X188563Y182245D03*
D134*
X172974Y182309D03*
D135*
X188532Y182309D03*
D136*
X173070Y182372D03*
D137*
X188500Y182372D03*
D114*
X173165Y182436D03*
D138*
X188468Y182436D03*
D139*
X173292Y182499D03*
D140*
X188436Y182499D03*
D141*
X173355Y182563D03*
D142*
X188436Y182563D03*
D127*
X173450Y182626D03*
D143*
X188405Y182626D03*
D128*
X173546Y182690D03*
D144*
X188373Y182690D03*
D145*
X173609Y182753D03*
D146*
X188341Y182753D03*
D135*
X173673Y182817D03*
D147*
X188309Y182817D03*
D137*
X173768Y182880D03*
D148*
X188309Y182880D03*
D142*
X173831Y182944D03*
D149*
X188278Y182944D03*
D150*
X173895Y183007D03*
D151*
X188246Y183007D03*
D152*
X173990Y183071D03*
D153*
X188214Y183071D03*
D154*
X174054Y183134D03*
D155*
X188214Y183134D03*
D153*
X174117Y183198D03*
D156*
X188182Y183198D03*
D157*
X174181Y183261D03*
D158*
X188151Y183261D03*
D159*
X174244Y183325D03*
D160*
X188151Y183325D03*
D161*
X174276Y183388D03*
X188119Y183388D03*
D162*
X174339Y183452D03*
D163*
X188087Y183452D03*
D164*
X174403Y183515D03*
D165*
X188087Y183515D03*
D166*
X174435Y183579D03*
D162*
X188055Y183579D03*
D167*
X174530Y183642D03*
D164*
X188055Y183642D03*
D168*
X174562Y183706D03*
D166*
X188024Y183706D03*
D169*
X174625Y183769D03*
D167*
X187992Y183769D03*
D170*
X174657Y183833D03*
D171*
X187992Y183833D03*
D172*
X174721Y183896D03*
D173*
X187960Y183896D03*
D174*
X174752Y183960D03*
D175*
X187960Y183960D03*
D176*
X174816Y184023D03*
D177*
X187928Y184023D03*
D178*
X174847Y184087D03*
D179*
X187928Y184087D03*
D180*
X174911Y184150D03*
D181*
X187897Y184150D03*
D182*
X174943Y184214D03*
D183*
X187897Y184214D03*
D184*
X175006Y184277D03*
D172*
X187865Y184277D03*
D185*
X175038Y184341D03*
D170*
X187865Y184341D03*
D186*
X175070Y184404D03*
D172*
X187865Y184404D03*
D187*
X175133Y184468D03*
D174*
X187833Y184468D03*
D188*
X175133Y184531D03*
D189*
X187833Y184531D03*
D190*
X175165Y184595D03*
D178*
X187801Y184595D03*
D191*
X175229Y184658D03*
D192*
X187801Y184658D03*
D193*
X175260Y184722D03*
D178*
X187801Y184722D03*
D194*
X175292Y184785D03*
D192*
X187801Y184785D03*
D195*
X175355Y184849D03*
D196*
X187770Y184849D03*
D194*
X175355Y184912D03*
D197*
X187770Y184912D03*
D198*
X175387Y184976D03*
D199*
X187738Y184976D03*
D200*
X175451Y185039D03*
D180*
X187738Y185039D03*
D201*
X175483Y185103D03*
D199*
X187738Y185103D03*
D202*
X175483Y185166D03*
D180*
X187738Y185166D03*
D201*
X175546Y185230D03*
D199*
X187738Y185230D03*
D203*
X175578Y185293D03*
D184*
X187706Y185293D03*
D204*
X175578Y185357D03*
D205*
X187706Y185357D03*
D206*
X175641Y185420D03*
D180*
X187675Y185420D03*
D207*
X175641Y185484D03*
D199*
X187675Y185484D03*
D208*
X175673Y185547D03*
D186*
X187643Y185547D03*
D209*
X175736Y185611D03*
D182*
X187643Y185611D03*
D208*
X175736Y185674D03*
D186*
X187643Y185674D03*
D210*
X175768Y185738D03*
D182*
X187643Y185738D03*
D208*
X175800Y185801D03*
D186*
X187643Y185801D03*
D211*
X175832Y185865D03*
D182*
X187643Y185865D03*
D212*
X175832Y185928D03*
D186*
X187643Y185928D03*
D210*
X175895Y185992D03*
D182*
X187643Y185992D03*
D213*
X175895Y186055D03*
D186*
X187643Y186055D03*
D210*
X175895Y186119D03*
D205*
X187579Y186119D03*
D212*
X175959Y186182D03*
D184*
X187579Y186182D03*
D211*
X175959Y186246D03*
D205*
X187579Y186246D03*
D214*
X175991Y186309D03*
D184*
X187579Y186309D03*
D210*
X176022Y186373D03*
D205*
X187579Y186373D03*
D213*
X176022Y186436D03*
D184*
X187579Y186436D03*
D215*
X176054Y186500D03*
D205*
X187579Y186500D03*
D212*
X176086Y186563D03*
D184*
X187579Y186563D03*
D211*
X176086Y186627D03*
D199*
X187548Y186627D03*
D214*
X176118Y186690D03*
D180*
X187548Y186690D03*
D210*
X176149Y186754D03*
D199*
X187548Y186754D03*
D213*
X176149Y186817D03*
D180*
X187548Y186817D03*
D210*
X176149Y186881D03*
D199*
X187548Y186881D03*
D212*
X176213Y186944D03*
D197*
X187516Y186944D03*
D211*
X176213Y187008D03*
D196*
X187516Y187008D03*
D212*
X176213Y187071D03*
D192*
X187547Y187071D03*
D210*
X176276Y187135D03*
D178*
X187547Y187135D03*
D213*
X176276Y187198D03*
D192*
X187547Y187198D03*
D210*
X176276Y187262D03*
D216*
X187516Y187262D03*
D208*
X176308Y187325D03*
D176*
X187516Y187325D03*
D211*
X176340Y187389D03*
D216*
X187516Y187389D03*
D212*
X176340Y187452D03*
D172*
X187484Y187452D03*
D209*
X176371Y187516D03*
D170*
X187484Y187516D03*
D213*
X176403Y187579D03*
D172*
X187484Y187579D03*
D210*
X176403Y187643D03*
D170*
X187484Y187643D03*
D217*
X181706Y187706D03*
D218*
X181706Y187770D03*
D217*
X181706Y187833D03*
D219*
X181705Y187897D03*
D220*
X181705Y187960D03*
D219*
X181705Y188024D03*
D221*
X181706Y188087D03*
D222*
X181706Y188151D03*
D223*
X178499Y188214D03*
D65*
X189516Y188214D03*
D224*
X178435Y188278D03*
D64*
X189579Y188278D03*
D225*
X178372Y188341D03*
D63*
X189611Y188341D03*
D226*
X178340Y188405D03*
D227*
X189611Y188405D03*
D228*
X178276Y188468D03*
D229*
X189611Y188468D03*
D230*
X178277Y188532D03*
D60*
X189611Y188532D03*
D231*
X178245Y188595D03*
D232*
X189611Y188595D03*
D233*
X178245Y188659D03*
D234*
X189580Y188659D03*
D235*
X178213Y188722D03*
D236*
X189611Y188722D03*
D237*
X178181Y188786D03*
D58*
X189579Y188786D03*
D238*
X178149Y188849D03*
D107*
X189579Y188849D03*
D239*
X178150Y188913D03*
D240*
X189548Y188913D03*
D241*
X178118Y188976D03*
D242*
X189548Y188976D03*
D243*
X178118Y189040D03*
D105*
X189516Y189040D03*
D244*
X178086Y189103D03*
D245*
X189516Y189103D03*
D246*
X178086Y189167D03*
D247*
X189484Y189167D03*
D248*
X178086Y189230D03*
D55*
X189452Y189230D03*
D249*
X178054Y189294D03*
D250*
X189452Y189294D03*
D251*
X178054Y189357D03*
D252*
X189421Y189357D03*
D253*
X174847Y189421D03*
D254*
X181801Y189421D03*
D255*
X189421Y189421D03*
D256*
X174816Y189484D03*
D257*
X181896Y189484D03*
D103*
X189389Y189484D03*
D258*
X174752Y189548D03*
D234*
X181960Y189548D03*
D259*
X189326Y189548D03*
D260*
X174784Y189611D03*
D107*
X182023Y189611D03*
D53*
X189294Y189611D03*
D261*
X174752Y189675D03*
D56*
X182055Y189675D03*
D262*
X189294Y189675D03*
D263*
X174720Y189738D03*
D103*
X182087Y189738D03*
D264*
X189262Y189738D03*
D73*
X174752Y189802D03*
D52*
X182150Y189802D03*
D265*
X189230Y189802D03*
D266*
X174752Y189865D03*
D267*
X182150Y189865D03*
D268*
X189167Y189865D03*
D269*
X174784Y189929D03*
D270*
X182213Y189929D03*
D271*
X189135Y189929D03*
D272*
X174816Y189992D03*
D273*
X182214Y189992D03*
D267*
X189135Y189992D03*
D70*
X174816Y190056D03*
D46*
X182277Y190056D03*
D274*
X189103Y190056D03*
D275*
X174847Y190119D03*
D45*
X182277Y190119D03*
D276*
X189040Y190119D03*
D117*
X174847Y190183D03*
D44*
X182309Y190183D03*
D270*
X189008Y190183D03*
D69*
X174879Y190246D03*
D277*
X182341Y190246D03*
D278*
X188976Y190246D03*
D279*
X174879Y190310D03*
D280*
X182372Y190310D03*
D281*
X188913Y190310D03*
D282*
X174943Y190373D03*
D283*
X182372Y190373D03*
D273*
X188881Y190373D03*
D68*
X174975Y190437D03*
D284*
X182404Y190437D03*
D285*
X188849Y190437D03*
D286*
X174975Y190500D03*
D287*
X182404Y190500D03*
D288*
X188754Y190500D03*
D68*
X175038Y190564D03*
D289*
X182436Y190564D03*
D290*
X188722Y190564D03*
D286*
X175038Y190627D03*
D35*
X182467Y190627D03*
D45*
X188691Y190627D03*
D291*
X175070Y190691D03*
D292*
X182467Y190691D03*
D293*
X188627Y190691D03*
D115*
X175133Y190754D03*
D33*
X182499Y190754D03*
D43*
X188563Y190754D03*
D294*
X175133Y190818D03*
D295*
X182499Y190818D03*
D296*
X188500Y190818D03*
D297*
X175197Y190881D03*
D298*
X182531Y190881D03*
D277*
X188437Y190881D03*
D299*
X192405Y190881D03*
D300*
X175228Y190945D03*
D301*
X182531Y190945D03*
D42*
X188373Y190945D03*
D302*
X192405Y190945D03*
D115*
X175260Y191008D03*
D31*
X182563Y191008D03*
D303*
X188341Y191008D03*
D304*
X192437Y191008D03*
D291*
X175324Y191072D03*
D30*
X182594Y191072D03*
D40*
X188246Y191072D03*
D305*
X192469Y191072D03*
D67*
X175355Y191135D03*
D29*
X182595Y191135D03*
D283*
X188214Y191135D03*
D93*
X192469Y191135D03*
D300*
X175419Y191199D03*
D306*
X182626Y191199D03*
D284*
X188119Y191199D03*
D44*
X192469Y191199D03*
D307*
X175451Y191262D03*
D308*
X182626Y191262D03*
D309*
X188087Y191262D03*
D310*
X192469Y191262D03*
D300*
X175482Y191326D03*
D28*
X182658Y191326D03*
D311*
X187992Y191326D03*
D52*
X192437Y191326D03*
D67*
X175546Y191389D03*
D27*
X182658Y191389D03*
D312*
X187929Y191389D03*
D313*
X192469Y191389D03*
D254*
X175578Y191453D03*
D314*
X182690Y191453D03*
D91*
X187865Y191453D03*
D315*
X192469Y191453D03*
D316*
X175641Y191516D03*
D317*
X182690Y191516D03*
D318*
X190691Y191516D03*
D254*
X175705Y191580D03*
D26*
X182721Y191580D03*
D138*
X190754Y191580D03*
D316*
X175768Y191643D03*
D25*
X182722Y191643D03*
D319*
X190818Y191643D03*
D113*
X175800Y191707D03*
D320*
X182722Y191707D03*
D147*
X190849Y191707D03*
D65*
X175864Y191770D03*
D321*
X182753Y191770D03*
D155*
X190881Y191770D03*
D113*
X175927Y191834D03*
D322*
X182785Y191834D03*
D323*
X190913Y191834D03*
D65*
X175991Y191897D03*
D324*
X182785Y191897D03*
D164*
X190976Y191897D03*
D113*
X176054Y191961D03*
D80*
X182817Y191961D03*
D175*
X191008Y191961D03*
D65*
X176118Y192024D03*
D325*
X182817Y192024D03*
D169*
X191008Y192024D03*
D113*
X176181Y192088D03*
D326*
X182849Y192088D03*
D178*
X191040Y192088D03*
D65*
X176245Y192151D03*
D327*
X182849Y192151D03*
D197*
X191072Y192151D03*
D113*
X176308Y192215D03*
D328*
X182880Y192215D03*
D185*
X191103Y192215D03*
D329*
X176340Y192278D03*
D330*
X182880Y192278D03*
D191*
X191104Y192278D03*
D331*
X176467Y192342D03*
D332*
X182912Y192342D03*
D198*
X191135Y192342D03*
D333*
X176498Y192405D03*
D23*
X182912Y192405D03*
D206*
X191135Y192405D03*
D331*
X176594Y192469D03*
D332*
X182912Y192469D03*
D215*
X191167Y192469D03*
D333*
X176689Y192532D03*
D23*
X182912Y192532D03*
D334*
X191167Y192532D03*
D64*
X176752Y192596D03*
D335*
X182944Y192596D03*
D336*
X191199Y192596D03*
D111*
X176848Y192659D03*
D23*
X182975Y192659D03*
D337*
X191199Y192659D03*
D338*
X176911Y192723D03*
D332*
X182975Y192723D03*
D339*
X191199Y192723D03*
D63*
X177038Y192786D03*
D330*
X183007Y192786D03*
D340*
X191231Y192786D03*
D62*
X177134Y192850D03*
D328*
X183007Y192850D03*
D341*
X191199Y192850D03*
D342*
X177229Y192913D03*
D343*
X183071Y192913D03*
D344*
X191199Y192913D03*
D345*
X177356Y192977D03*
D80*
X183071Y192977D03*
D346*
X191199Y192977D03*
D61*
X177451Y193040D03*
D321*
X183134Y193040D03*
D347*
X191135Y193040D03*
D348*
X177610Y193104D03*
D349*
X189929Y193104D03*
D350*
X177737Y193167D03*
D351*
X189992Y193167D03*
D58*
X177895Y193231D03*
D352*
X189992Y193231D03*
D107*
X178086Y193294D03*
D353*
X190056Y193294D03*
D105*
X178213Y193358D03*
D354*
X190056Y193358D03*
D355*
X178435Y193421D03*
D356*
X190088Y193421D03*
D105*
X178658Y193485D03*
D357*
X190056Y193485D03*
D358*
X187357Y193548D03*
D359*
X186405Y193612D03*
D360*
X186246Y193675D03*
D361*
X186151Y193739D03*
D362*
X186119Y193802D03*
D363*
X186055Y193866D03*
D364*
X185992Y193929D03*
D365*
X185992Y193993D03*
D366*
X185960Y194056D03*
D367*
X185928Y194120D03*
D368*
X185928Y194183D03*
D369*
X179483Y194247D03*
D370*
X193421Y194247D03*
D244*
X179229Y194310D03*
D214*
X193707Y194310D03*
D371*
X179007Y194374D03*
D198*
X193929Y194374D03*
D372*
X178880Y194437D03*
D194*
X194088Y194437D03*
D373*
X178753Y194501D03*
D374*
X194247Y194501D03*
D375*
X178658Y194564D03*
D186*
X194374Y194564D03*
D376*
X178562Y194628D03*
D199*
X194533Y194628D03*
D375*
X178467Y194691D03*
D192*
X194659Y194691D03*
D377*
X178404Y194755D03*
D216*
X194755Y194755D03*
D248*
X178340Y194818D03*
D176*
X194882Y194818D03*
D378*
X178276Y194882D03*
D170*
X194977Y194882D03*
D379*
X178245Y194945D03*
D189*
X195072Y194945D03*
D246*
X178213Y195009D03*
D170*
X195168Y195009D03*
D380*
X178149Y195072D03*
D176*
X195263Y195072D03*
D381*
X178118Y195136D03*
D170*
X195358Y195136D03*
D140*
X175736Y195199D03*
D43*
X183102Y195199D03*
D172*
X195422Y195199D03*
D382*
X175546Y195263D03*
D42*
X183230Y195263D03*
D216*
X195517Y195263D03*
D127*
X175355Y195326D03*
D93*
X183325Y195326D03*
D189*
X195580Y195326D03*
D383*
X175229Y195390D03*
D384*
X183388Y195390D03*
D196*
X195644Y195390D03*
D120*
X175101Y195453D03*
D39*
X183420Y195453D03*
D385*
X195707Y195453D03*
D118*
X175006Y195517D03*
D386*
X183452Y195517D03*
D196*
X195771Y195517D03*
D387*
X174879Y195580D03*
D283*
X183515Y195580D03*
D184*
X195834Y195580D03*
D388*
X174752Y195644D03*
D40*
X183547Y195644D03*
D185*
X195866Y195644D03*
D389*
X174689Y195707D03*
D41*
X183579Y195707D03*
D390*
X195929Y195707D03*
D110*
X174594Y195771D03*
D391*
X183642Y195771D03*
D190*
X195993Y195771D03*
D392*
X174498Y195834D03*
D43*
X183674Y195834D03*
D393*
X196025Y195834D03*
D106*
X174403Y195898D03*
D293*
X183738Y195898D03*
D201*
X196057Y195898D03*
D394*
X174339Y195961D03*
D288*
X183801Y195961D03*
D206*
X196088Y195961D03*
D134*
X174244Y196025D03*
D98*
X183833Y196025D03*
D210*
X196088Y196025D03*
D104*
X174149Y196088D03*
D100*
X183896Y196088D03*
D334*
X196120Y196088D03*
D395*
X174086Y196152D03*
D396*
X183960Y196152D03*
D397*
X196120Y196152D03*
D132*
X173990Y196215D03*
D398*
X184023Y196215D03*
D399*
X196120Y196215D03*
D102*
X173927Y196279D03*
D56*
X184087Y196279D03*
D339*
X196152Y196279D03*
D400*
X173863Y196342D03*
D59*
X184182Y196342D03*
D401*
X196088Y196342D03*
D402*
X173800Y196406D03*
D338*
X184277Y196406D03*
D403*
X196057Y196406D03*
D400*
X173736Y196469D03*
D115*
X184404Y196469D03*
D404*
X195993Y196469D03*
D402*
X173673Y196533D03*
D26*
X182467Y196533D03*
D290*
X185801Y196533D03*
D405*
X195866Y196533D03*
D406*
X173641Y196596D03*
D25*
X182341Y196596D03*
D407*
X193263Y196596D03*
D99*
X173578Y196660D03*
D408*
X182245Y196660D03*
D409*
X193326Y196660D03*
D410*
X173482Y196723D03*
D411*
X182182Y196723D03*
D412*
X193421Y196723D03*
D99*
X173451Y196787D03*
D408*
X182118Y196787D03*
D409*
X193453Y196787D03*
D413*
X173387Y196850D03*
D25*
X182087Y196850D03*
D412*
X193548Y196850D03*
D414*
X173355Y196914D03*
D320*
X182023Y196914D03*
D415*
X193548Y196914D03*
D97*
X173292Y196977D03*
D82*
X181991Y196977D03*
D416*
X193612Y196977D03*
D414*
X173228Y197041D03*
D417*
X181928Y197041D03*
D418*
X193643Y197041D03*
D413*
X173196Y197104D03*
D419*
X181864Y197104D03*
D420*
X193707Y197104D03*
D421*
X173165Y197168D03*
D314*
X181801Y197168D03*
D418*
X193707Y197168D03*
D410*
X173101Y197231D03*
D27*
X181769Y197231D03*
D420*
X193770Y197231D03*
D95*
X173069Y197295D03*
D28*
X181705Y197295D03*
D418*
X193770Y197295D03*
D97*
X173038Y197358D03*
D422*
X181674Y197358D03*
D423*
X193802Y197358D03*
D414*
X172974Y197422D03*
D424*
X181579Y197422D03*
D425*
X193802Y197422D03*
D406*
X172943Y197485D03*
D426*
X181547Y197485D03*
D427*
X193834Y197485D03*
D99*
X172943Y197549D03*
D428*
X181483Y197549D03*
D429*
X193834Y197549D03*
D406*
X172879Y197612D03*
D430*
X181420Y197612D03*
D431*
X193866Y197612D03*
D432*
X172847Y197676D03*
D433*
X181324Y197676D03*
D434*
X193866Y197676D03*
D101*
X172815Y197739D03*
D435*
X181261Y197739D03*
D436*
X193897Y197739D03*
D437*
X172815Y197803D03*
D438*
X181229Y197803D03*
D439*
X193897Y197803D03*
D440*
X172784Y197866D03*
D312*
X181134Y197866D03*
D441*
X193929Y197866D03*
D442*
X172784Y197930D03*
D311*
X181070Y197930D03*
D443*
X193929Y197930D03*
D394*
X172752Y197993D03*
D283*
X180975Y197993D03*
D444*
X193898Y197993D03*
D445*
X172784Y198057D03*
D446*
X180912Y198057D03*
D447*
X193898Y198057D03*
D389*
X172784Y198120D03*
D43*
X180816Y198120D03*
D448*
X193929Y198120D03*
D114*
X172784Y198184D03*
D290*
X180721Y198184D03*
D449*
X193897Y198184D03*
D120*
X172879Y198247D03*
D49*
X180562Y198247D03*
D450*
X193929Y198247D03*
D451*
X173006Y198311D03*
D54*
X180340Y198311D03*
D452*
X193929Y198311D03*
D453*
X175641Y198374D03*
D454*
X193898Y198374D03*
D455*
X175609Y198438D03*
D456*
X193866Y198438D03*
D457*
X175609Y198501D03*
D458*
X193866Y198501D03*
D459*
X175578Y198565D03*
D460*
X193866Y198565D03*
D461*
X175546Y198628D03*
D462*
X193802Y198628D03*
D463*
X175514Y198692D03*
D464*
X193770Y198692D03*
D465*
X175514Y198755D03*
D466*
X193707Y198755D03*
D467*
X175482Y198819D03*
D468*
X193707Y198819D03*
D469*
X175451Y198882D03*
D470*
X193644Y198882D03*
D226*
X175419Y198946D03*
D471*
X193548Y198946D03*
D472*
X175419Y199009D03*
D473*
X193485Y199009D03*
D474*
X175387Y199073D03*
D475*
X193390Y199073D03*
D476*
X175355Y199136D03*
D477*
X193294Y199136D03*
D478*
X175355Y199200D03*
D479*
X193167Y199200D03*
D480*
X175356Y199263D03*
D481*
X193135Y199263D03*
D482*
X175324Y199327D03*
D483*
X193008Y199327D03*
D484*
X175292Y199390D03*
D485*
X192913Y199390D03*
D486*
X175292Y199454D03*
D487*
X192818Y199454D03*
D488*
X175260Y199517D03*
D489*
X192723Y199517D03*
D487*
X175229Y199581D03*
D490*
X192596Y199581D03*
D491*
X175228Y199644D03*
D492*
X192532Y199644D03*
D493*
X175228Y199708D03*
D295*
X186690Y199708D03*
D209*
X194024Y199708D03*
D494*
X175197Y199771D03*
D435*
X186722Y199771D03*
D191*
X193961Y199771D03*
D495*
X175165Y199835D03*
D496*
X186754Y199835D03*
D205*
X193929Y199835D03*
D497*
X175133Y199898D03*
D35*
X186785Y199898D03*
D172*
X193834Y199898D03*
D483*
X175165Y199962D03*
D292*
X186785Y199962D03*
D171*
X193771Y199962D03*
D351*
X175133Y200025D03*
D498*
X186817Y200025D03*
D158*
X193739Y200025D03*
D499*
X175102Y200089D03*
D91*
X186849Y200089D03*
D500*
X193675Y200089D03*
D481*
X175101Y200152D03*
D501*
X186881Y200152D03*
D140*
X193580Y200152D03*
D502*
X175101Y200216D03*
D311*
X186912Y200216D03*
D503*
X193548Y200216D03*
D353*
X175070Y200279D03*
D287*
X186912Y200279D03*
D504*
X193485Y200279D03*
D505*
X175038Y200343D03*
D506*
X186944Y200343D03*
D118*
X193421Y200343D03*
D507*
X175038Y200406D03*
D39*
X186976Y200406D03*
D389*
X193358Y200406D03*
D508*
X175038Y200470D03*
D386*
X187008Y200470D03*
D395*
X193326Y200470D03*
D356*
X175038Y200533D03*
D93*
X187008Y200533D03*
D406*
X193263Y200533D03*
D509*
X175006Y200597D03*
D40*
X187039Y200597D03*
D510*
X193199Y200597D03*
D477*
X175006Y200660D03*
D303*
X187071Y200660D03*
D511*
X193167Y200660D03*
D512*
X175006Y200724D03*
D391*
X187071Y200724D03*
D513*
X193104Y200724D03*
D514*
X174975Y200787D03*
D515*
X187071Y200787D03*
D71*
X193072Y200787D03*
D516*
X174974Y200851D03*
D296*
X187103Y200851D03*
D294*
X193040Y200851D03*
D517*
X174974Y200914D03*
D96*
X187135Y200914D03*
D329*
X192977Y200914D03*
D373*
X173292Y200978D03*
D292*
X181769Y200978D03*
D44*
X187135Y200978D03*
D234*
X192945Y200978D03*
D251*
X173228Y201041D03*
D498*
X181737Y201041D03*
D518*
X187135Y201041D03*
D245*
X192945Y201041D03*
D373*
X173165Y201105D03*
D91*
X181769Y201105D03*
D46*
X187166Y201105D03*
D265*
X192913Y201105D03*
D519*
X173165Y201168D03*
D37*
X181737Y201168D03*
D288*
X187166Y201168D03*
D273*
X192882Y201168D03*
D376*
X173101Y201232D03*
D311*
X181769Y201232D03*
D520*
X187167Y201232D03*
D296*
X192881Y201232D03*
D519*
X173038Y201295D03*
D521*
X181801Y201295D03*
D273*
X187167Y201295D03*
D501*
X192850Y201295D03*
D377*
X173006Y201359D03*
D284*
X181769Y201359D03*
D48*
X187198Y201359D03*
D301*
X192818Y201359D03*
D251*
X172974Y201422D03*
D93*
X181801Y201422D03*
D49*
X187166Y201422D03*
D321*
X192786Y201422D03*
D373*
X172911Y201486D03*
D40*
X181832Y201486D03*
D271*
X187167Y201486D03*
D522*
X192755Y201486D03*
D375*
X172879Y201549D03*
D277*
X181833Y201549D03*
D267*
X187167Y201549D03*
D376*
X172847Y201613D03*
D391*
X181864Y201613D03*
D52*
X187166Y201613D03*
D519*
X172784Y201676D03*
D43*
X181896Y201676D03*
D53*
X187135Y201676D03*
D377*
X172752Y201740D03*
D293*
X181896Y201740D03*
D259*
X187103Y201740D03*
D375*
X172689Y201803D03*
D288*
X181959Y201803D03*
D55*
X187103Y201803D03*
D373*
X172657Y201867D03*
D156*
X184690Y201867D03*
D375*
X172625Y201930D03*
D158*
X184722Y201930D03*
D377*
X172562Y201994D03*
D160*
X184722Y201994D03*
D519*
X172530Y202057D03*
D161*
X184690Y202057D03*
D376*
X172466Y202121D03*
D523*
X184722Y202121D03*
D375*
X172435Y202184D03*
D524*
X184722Y202184D03*
D377*
X172371Y202248D03*
D162*
X184690Y202248D03*
D251*
X172339Y202311D03*
D525*
X184722Y202311D03*
D373*
X172276Y202375D03*
D166*
X184722Y202375D03*
D526*
X172244Y202438D03*
D525*
X184722Y202438D03*
D527*
X172180Y202502D03*
D171*
X184690Y202502D03*
D528*
X172149Y202565D03*
D529*
X184722Y202565D03*
D530*
X172085Y202629D03*
D168*
X184722Y202629D03*
D531*
X172054Y202692D03*
D529*
X184722Y202692D03*
D405*
X171990Y202756D03*
D179*
X184690Y202756D03*
D532*
X171958Y202819D03*
D181*
X184722Y202819D03*
D533*
X171926Y202883D03*
D183*
X184722Y202883D03*
D534*
X171895Y202946D03*
D181*
X184722Y202946D03*
D535*
X171831Y203010D03*
D183*
X184722Y203010D03*
D536*
X171768Y203073D03*
D172*
X184690Y203073D03*
D537*
X171736Y203137D03*
D216*
X184722Y203137D03*
D538*
X171704Y203200D03*
D176*
X184722Y203200D03*
D539*
X171641Y203264D03*
D216*
X184722Y203264D03*
D344*
X171641Y203327D03*
D176*
X184722Y203327D03*
D540*
X171577Y203391D03*
D216*
X184722Y203391D03*
D541*
X171545Y203454D03*
D176*
X184722Y203454D03*
D542*
X171482Y203518D03*
D216*
X184722Y203518D03*
D543*
X171450Y203581D03*
D176*
X184722Y203581D03*
D544*
X171387Y203645D03*
D216*
X184722Y203645D03*
D545*
X171323Y203708D03*
D176*
X184722Y203708D03*
D546*
X171291Y203772D03*
D178*
X184753Y203772D03*
D212*
X171260Y203835D03*
D192*
X184753Y203835D03*
D201*
X171165Y203899D03*
D178*
X184753Y203899D03*
D393*
X171133Y203962D03*
D192*
X184753Y203962D03*
D205*
X171069Y204026D03*
D178*
X184753Y204026D03*
D192*
X170974Y204089D03*
X184753Y204089D03*
D179*
X170910Y204153D03*
D178*
X184753Y204153D03*
D165*
X170815Y204216D03*
D192*
X184753Y204216D03*
D149*
X170752Y204280D03*
D178*
X184753Y204280D03*
D137*
X170657Y204343D03*
D192*
X184753Y204343D03*
D383*
X170530Y204407D03*
D178*
X184753Y204407D03*
D440*
X170371Y204470D03*
D192*
X184753Y204470D03*
D178*
X184753Y204534D03*
D192*
X184753Y204597D03*
D170*
X184754Y204661D03*
D172*
X184754Y204724D03*
D170*
X184754Y204788D03*
D172*
X184754Y204851D03*
D170*
X184754Y204915D03*
D169*
X184785Y204978D03*
D547*
X184785Y205042D03*
D169*
X184785Y205105D03*
D547*
X184785Y205169D03*
D169*
X184785Y205232D03*
D179*
X184817Y205296D03*
D173*
X184785Y205359D03*
D175*
X184785Y205423D03*
D173*
X184785Y205486D03*
D171*
X184817Y205550D03*
D167*
X184817Y205613D03*
D171*
X184817Y205677D03*
D164*
X184817Y205740D03*
D162*
X184817Y205804D03*
D164*
X184817Y205867D03*
D523*
X184849Y205931D03*
D524*
X184849Y205994D03*
D323*
X184817Y206058D03*
D158*
X184849Y206121D03*
D160*
X184849Y206185D03*
D158*
X184849Y206248D03*
D156*
X184880Y206312D03*
D157*
X184849Y206375D03*
D548*
X184881Y206439D03*
D151*
X184881Y206502D03*
D149*
X184849Y206566D03*
D148*
X184880Y206629D03*
D147*
X184880Y206693D03*
D146*
X184912Y206756D03*
D144*
X184881Y206820D03*
D549*
X184912Y206883D03*
D142*
X184880Y206947D03*
D550*
X184912Y207010D03*
D138*
X184912Y207074D03*
D137*
X184944Y207137D03*
D503*
X184912Y207201D03*
D133*
X184944Y207264D03*
D382*
X184944Y207328D03*
D130*
X184944Y207391D03*
D451*
X184944Y207455D03*
D551*
X184976Y207518D03*
D552*
X184976Y207582D03*
D504*
X184976Y207645D03*
D383*
X185008Y207709D03*
D120*
X185007Y207772D03*
D553*
X185007Y207836D03*
D554*
X185039Y207899D03*
D555*
X185008Y207963D03*
D387*
X185039Y208026D03*
D556*
X185071Y208090D03*
D112*
X185039Y208153D03*
D110*
X185071Y208217D03*
D108*
X185103Y208280D03*
D442*
X185103Y208344D03*
D557*
X185103Y208407D03*
D395*
X185135Y208471D03*
D132*
X185166Y208534D03*
D432*
X185166Y208598D03*
D400*
X185166Y208661D03*
D414*
X185166Y208725D03*
D413*
X185198Y208788D03*
D95*
X185198Y208852D03*
D129*
X185230Y208915D03*
D92*
X185230Y208979D03*
D90*
X185261Y209042D03*
D510*
X185261Y209106D03*
D126*
X185262Y209169D03*
D558*
X185293Y209233D03*
D559*
X185325Y209296D03*
D85*
X185293Y209360D03*
D83*
X185325Y209423D03*
D81*
X185357Y209487D03*
D123*
X185325Y209550D03*
D513*
X185357Y209614D03*
D260*
X185389Y209677D03*
D121*
X185357Y209741D03*
D263*
X185388Y209804D03*
D73*
X185420Y209868D03*
D560*
X185420Y209931D03*
D561*
X185420Y209995D03*
D275*
X185452Y210058D03*
D562*
X185484Y210122D03*
D286*
X185452Y210185D03*
D291*
X185484Y210249D03*
D67*
X185515Y210312D03*
D113*
X185516Y210376D03*
D65*
X185516Y210439D03*
D563*
X185547Y210503D03*
D63*
X185547Y210566D03*
D62*
X185579Y210630D03*
D257*
X185579Y210693D03*
D109*
X185579Y210757D03*
D350*
X185611Y210820D03*
D348*
X185611Y210884D03*
D564*
X185611Y210947D03*
D58*
X185642Y211011D03*
D57*
X185674Y211074D03*
D105*
X185643Y211138D03*
D355*
X185674Y211201D03*
D250*
X185706Y211265D03*
D398*
X185674Y211328D03*
D259*
X185706Y211392D03*
D53*
X185738Y211455D03*
D396*
X185738Y211519D03*
D268*
X185738Y211582D03*
D271*
X185770Y211646D03*
D49*
X185769Y211709D03*
D48*
X185801Y211773D03*
D278*
X185801Y211836D03*
D520*
X185833Y211900D03*
D288*
X185833Y211963D03*
D46*
X185833Y212027D03*
D45*
X185833Y212090D03*
D44*
X185865Y212154D03*
D96*
X185865Y212217D03*
D296*
X185896Y212281D03*
D277*
X185897Y212344D03*
D280*
X185928Y212408D03*
D303*
X185928Y212471D03*
D384*
X185928Y212535D03*
D39*
X185960Y212598D03*
D284*
X185960Y212662D03*
D287*
X185960Y212725D03*
D289*
X185992Y212789D03*
D312*
X186024Y212852D03*
D305*
X185992Y212916D03*
D35*
X186023Y212979D03*
D438*
X186055Y213043D03*
D33*
X186055Y213106D03*
D295*
X186055Y213170D03*
D298*
X186087Y213233D03*
D301*
X186087Y213297D03*
D304*
X186087Y213360D03*
D565*
X186119Y213424D03*
D426*
X186119Y213487D03*
D424*
X186151Y213551D03*
D422*
X186119Y213614D03*
D28*
X186150Y213678D03*
D27*
X186151Y213741D03*
D302*
X186182Y213805D03*
D82*
X186182Y213868D03*
D566*
X186182Y213932D03*
D321*
X186182Y213995D03*
D24*
X186182Y214059D03*
D330*
X186182Y214122D03*
D567*
X186182Y214186D03*
D568*
X186214Y214249D03*
D569*
X186182Y214313D03*
D74*
X186150Y214376D03*
D72*
X186151Y214440D03*
D14*
X138110Y113980D02*
X138110Y108980D01*
X138110Y113980D02*
X133110Y113980D01*
X138110Y78980D02*
X138110Y73980D01*
X133110Y73980D01*
X98110Y108980D02*
X98110Y113980D01*
X103110Y113980D01*
X98110Y78980D02*
X98110Y73980D01*
X103110Y73980D01*
X134360Y118980D02*
X134362Y119050D01*
X134368Y119120D01*
X134378Y119189D01*
X134391Y119258D01*
X134409Y119326D01*
X134430Y119393D01*
X134455Y119458D01*
X134484Y119522D01*
X134516Y119585D01*
X134552Y119645D01*
X134591Y119703D01*
X134633Y119759D01*
X134678Y119813D01*
X134726Y119864D01*
X134777Y119912D01*
X134831Y119957D01*
X134887Y119999D01*
X134945Y120038D01*
X135005Y120074D01*
X135068Y120106D01*
X135132Y120135D01*
X135197Y120160D01*
X135264Y120181D01*
X135332Y120199D01*
X135401Y120212D01*
X135470Y120222D01*
X135540Y120228D01*
X135610Y120230D01*
X135680Y120228D01*
X135750Y120222D01*
X135819Y120212D01*
X135888Y120199D01*
X135956Y120181D01*
X136023Y120160D01*
X136088Y120135D01*
X136152Y120106D01*
X136215Y120074D01*
X136275Y120038D01*
X136333Y119999D01*
X136389Y119957D01*
X136443Y119912D01*
X136494Y119864D01*
X136542Y119813D01*
X136587Y119759D01*
X136629Y119703D01*
X136668Y119645D01*
X136704Y119585D01*
X136736Y119522D01*
X136765Y119458D01*
X136790Y119393D01*
X136811Y119326D01*
X136829Y119258D01*
X136842Y119189D01*
X136852Y119120D01*
X136858Y119050D01*
X136860Y118980D01*
X136858Y118910D01*
X136852Y118840D01*
X136842Y118771D01*
X136829Y118702D01*
X136811Y118634D01*
X136790Y118567D01*
X136765Y118502D01*
X136736Y118438D01*
X136704Y118375D01*
X136668Y118315D01*
X136629Y118257D01*
X136587Y118201D01*
X136542Y118147D01*
X136494Y118096D01*
X136443Y118048D01*
X136389Y118003D01*
X136333Y117961D01*
X136275Y117922D01*
X136215Y117886D01*
X136152Y117854D01*
X136088Y117825D01*
X136023Y117800D01*
X135956Y117779D01*
X135888Y117761D01*
X135819Y117748D01*
X135750Y117738D01*
X135680Y117732D01*
X135610Y117730D01*
X135540Y117732D01*
X135470Y117738D01*
X135401Y117748D01*
X135332Y117761D01*
X135264Y117779D01*
X135197Y117800D01*
X135132Y117825D01*
X135068Y117854D01*
X135005Y117886D01*
X134945Y117922D01*
X134887Y117961D01*
X134831Y118003D01*
X134777Y118048D01*
X134726Y118096D01*
X134678Y118147D01*
X134633Y118201D01*
X134591Y118257D01*
X134552Y118315D01*
X134516Y118375D01*
X134484Y118438D01*
X134455Y118502D01*
X134430Y118567D01*
X134409Y118634D01*
X134391Y118702D01*
X134378Y118771D01*
X134368Y118840D01*
X134362Y118910D01*
X134360Y118980D01*
D12*
X145536Y98824D02*
X151044Y98824D01*
X152146Y99925D01*
X152146Y102129D01*
X151044Y103230D01*
X145536Y103230D01*
X152146Y106308D02*
X152146Y110714D01*
X152146Y106308D02*
X147740Y110714D01*
X146638Y110714D01*
X145536Y109613D01*
X145536Y107409D01*
X146638Y106308D01*
M02*
