G04 EAGLE Gerber RS-274X export*
G75*
%MOMM*%
%FSLAX34Y34*%
%LPD*%
%INSoldermask Top*%
%IPPOS*%
%AMOC8*
5,1,8,0,0,1.08239X$1,22.5*%
G01*
%ADD10R,0.601600X0.601600*%
%ADD11R,0.651600X1.301600*%
%ADD12R,1.341600X1.601600*%
%ADD13R,1.101600X1.301600*%
%ADD14R,1.601600X1.341600*%
%ADD15C,1.101600*%
%ADD16C,0.500000*%
%ADD17C,3.617600*%
%ADD18C,1.879600*%
%ADD19R,1.451600X0.901600*%


D10*
X109600Y117600D03*
X109600Y109600D03*
X109600Y101600D03*
X109600Y93600D03*
X109600Y85600D03*
X101600Y85600D03*
X93600Y85600D03*
X93600Y93600D03*
X93600Y101600D03*
X93600Y109600D03*
X93600Y117600D03*
X101600Y117600D03*
D11*
X19710Y77169D03*
X29210Y77169D03*
X38710Y77169D03*
X38710Y103171D03*
X19710Y103171D03*
D12*
X172110Y113030D03*
X191110Y113030D03*
X134010Y113030D03*
X153010Y113030D03*
X191110Y58420D03*
X172110Y58420D03*
X134010Y58420D03*
X153010Y58420D03*
X22250Y58420D03*
X41250Y58420D03*
X19710Y120650D03*
X38710Y120650D03*
D13*
X181610Y76360D03*
X172110Y96360D03*
X191110Y96360D03*
X143510Y76360D03*
X134010Y96360D03*
X153010Y96360D03*
D12*
X75540Y137160D03*
X56540Y137160D03*
D14*
X63500Y79350D03*
X63500Y60350D03*
X64770Y100990D03*
X64770Y119990D03*
D15*
X146050Y142240D03*
D16*
X146050Y149740D02*
X145869Y149738D01*
X145688Y149731D01*
X145507Y149720D01*
X145326Y149705D01*
X145146Y149685D01*
X144966Y149661D01*
X144787Y149633D01*
X144609Y149600D01*
X144432Y149563D01*
X144255Y149522D01*
X144080Y149477D01*
X143905Y149427D01*
X143732Y149373D01*
X143561Y149315D01*
X143390Y149253D01*
X143222Y149186D01*
X143055Y149116D01*
X142889Y149042D01*
X142726Y148963D01*
X142565Y148881D01*
X142405Y148795D01*
X142248Y148705D01*
X142093Y148611D01*
X141940Y148514D01*
X141790Y148412D01*
X141642Y148308D01*
X141496Y148199D01*
X141354Y148088D01*
X141214Y147972D01*
X141077Y147854D01*
X140942Y147732D01*
X140811Y147607D01*
X140683Y147479D01*
X140558Y147348D01*
X140436Y147213D01*
X140318Y147076D01*
X140202Y146936D01*
X140091Y146794D01*
X139982Y146648D01*
X139878Y146500D01*
X139776Y146350D01*
X139679Y146197D01*
X139585Y146042D01*
X139495Y145885D01*
X139409Y145725D01*
X139327Y145564D01*
X139248Y145401D01*
X139174Y145235D01*
X139104Y145068D01*
X139037Y144900D01*
X138975Y144729D01*
X138917Y144558D01*
X138863Y144385D01*
X138813Y144210D01*
X138768Y144035D01*
X138727Y143858D01*
X138690Y143681D01*
X138657Y143503D01*
X138629Y143324D01*
X138605Y143144D01*
X138585Y142964D01*
X138570Y142783D01*
X138559Y142602D01*
X138552Y142421D01*
X138550Y142240D01*
X146050Y149740D02*
X146231Y149738D01*
X146412Y149731D01*
X146593Y149720D01*
X146774Y149705D01*
X146954Y149685D01*
X147134Y149661D01*
X147313Y149633D01*
X147491Y149600D01*
X147668Y149563D01*
X147845Y149522D01*
X148020Y149477D01*
X148195Y149427D01*
X148368Y149373D01*
X148539Y149315D01*
X148710Y149253D01*
X148878Y149186D01*
X149045Y149116D01*
X149211Y149042D01*
X149374Y148963D01*
X149535Y148881D01*
X149695Y148795D01*
X149852Y148705D01*
X150007Y148611D01*
X150160Y148514D01*
X150310Y148412D01*
X150458Y148308D01*
X150604Y148199D01*
X150746Y148088D01*
X150886Y147972D01*
X151023Y147854D01*
X151158Y147732D01*
X151289Y147607D01*
X151417Y147479D01*
X151542Y147348D01*
X151664Y147213D01*
X151782Y147076D01*
X151898Y146936D01*
X152009Y146794D01*
X152118Y146648D01*
X152222Y146500D01*
X152324Y146350D01*
X152421Y146197D01*
X152515Y146042D01*
X152605Y145885D01*
X152691Y145725D01*
X152773Y145564D01*
X152852Y145401D01*
X152926Y145235D01*
X152996Y145068D01*
X153063Y144900D01*
X153125Y144729D01*
X153183Y144558D01*
X153237Y144385D01*
X153287Y144210D01*
X153332Y144035D01*
X153373Y143858D01*
X153410Y143681D01*
X153443Y143503D01*
X153471Y143324D01*
X153495Y143144D01*
X153515Y142964D01*
X153530Y142783D01*
X153541Y142602D01*
X153548Y142421D01*
X153550Y142240D01*
X153548Y142059D01*
X153541Y141878D01*
X153530Y141697D01*
X153515Y141516D01*
X153495Y141336D01*
X153471Y141156D01*
X153443Y140977D01*
X153410Y140799D01*
X153373Y140622D01*
X153332Y140445D01*
X153287Y140270D01*
X153237Y140095D01*
X153183Y139922D01*
X153125Y139751D01*
X153063Y139580D01*
X152996Y139412D01*
X152926Y139245D01*
X152852Y139079D01*
X152773Y138916D01*
X152691Y138755D01*
X152605Y138595D01*
X152515Y138438D01*
X152421Y138283D01*
X152324Y138130D01*
X152222Y137980D01*
X152118Y137832D01*
X152009Y137686D01*
X151898Y137544D01*
X151782Y137404D01*
X151664Y137267D01*
X151542Y137132D01*
X151417Y137001D01*
X151289Y136873D01*
X151158Y136748D01*
X151023Y136626D01*
X150886Y136508D01*
X150746Y136392D01*
X150604Y136281D01*
X150458Y136172D01*
X150310Y136068D01*
X150160Y135966D01*
X150007Y135869D01*
X149852Y135775D01*
X149695Y135685D01*
X149535Y135599D01*
X149374Y135517D01*
X149211Y135438D01*
X149045Y135364D01*
X148878Y135294D01*
X148710Y135227D01*
X148539Y135165D01*
X148368Y135107D01*
X148195Y135053D01*
X148020Y135003D01*
X147845Y134958D01*
X147668Y134917D01*
X147491Y134880D01*
X147313Y134847D01*
X147134Y134819D01*
X146954Y134795D01*
X146774Y134775D01*
X146593Y134760D01*
X146412Y134749D01*
X146231Y134742D01*
X146050Y134740D01*
X145869Y134742D01*
X145688Y134749D01*
X145507Y134760D01*
X145326Y134775D01*
X145146Y134795D01*
X144966Y134819D01*
X144787Y134847D01*
X144609Y134880D01*
X144432Y134917D01*
X144255Y134958D01*
X144080Y135003D01*
X143905Y135053D01*
X143732Y135107D01*
X143561Y135165D01*
X143390Y135227D01*
X143222Y135294D01*
X143055Y135364D01*
X142889Y135438D01*
X142726Y135517D01*
X142565Y135599D01*
X142405Y135685D01*
X142248Y135775D01*
X142093Y135869D01*
X141940Y135966D01*
X141790Y136068D01*
X141642Y136172D01*
X141496Y136281D01*
X141354Y136392D01*
X141214Y136508D01*
X141077Y136626D01*
X140942Y136748D01*
X140811Y136873D01*
X140683Y137001D01*
X140558Y137132D01*
X140436Y137267D01*
X140318Y137404D01*
X140202Y137544D01*
X140091Y137686D01*
X139982Y137832D01*
X139878Y137980D01*
X139776Y138130D01*
X139679Y138283D01*
X139585Y138438D01*
X139495Y138595D01*
X139409Y138755D01*
X139327Y138916D01*
X139248Y139079D01*
X139174Y139245D01*
X139104Y139412D01*
X139037Y139580D01*
X138975Y139751D01*
X138917Y139922D01*
X138863Y140095D01*
X138813Y140270D01*
X138768Y140445D01*
X138727Y140622D01*
X138690Y140799D01*
X138657Y140977D01*
X138629Y141156D01*
X138605Y141336D01*
X138585Y141516D01*
X138570Y141697D01*
X138559Y141878D01*
X138552Y142059D01*
X138550Y142240D01*
D15*
X10160Y40640D03*
D16*
X10160Y48140D02*
X9979Y48138D01*
X9798Y48131D01*
X9617Y48120D01*
X9436Y48105D01*
X9256Y48085D01*
X9076Y48061D01*
X8897Y48033D01*
X8719Y48000D01*
X8542Y47963D01*
X8365Y47922D01*
X8190Y47877D01*
X8015Y47827D01*
X7842Y47773D01*
X7671Y47715D01*
X7500Y47653D01*
X7332Y47586D01*
X7165Y47516D01*
X6999Y47442D01*
X6836Y47363D01*
X6675Y47281D01*
X6515Y47195D01*
X6358Y47105D01*
X6203Y47011D01*
X6050Y46914D01*
X5900Y46812D01*
X5752Y46708D01*
X5606Y46599D01*
X5464Y46488D01*
X5324Y46372D01*
X5187Y46254D01*
X5052Y46132D01*
X4921Y46007D01*
X4793Y45879D01*
X4668Y45748D01*
X4546Y45613D01*
X4428Y45476D01*
X4312Y45336D01*
X4201Y45194D01*
X4092Y45048D01*
X3988Y44900D01*
X3886Y44750D01*
X3789Y44597D01*
X3695Y44442D01*
X3605Y44285D01*
X3519Y44125D01*
X3437Y43964D01*
X3358Y43801D01*
X3284Y43635D01*
X3214Y43468D01*
X3147Y43300D01*
X3085Y43129D01*
X3027Y42958D01*
X2973Y42785D01*
X2923Y42610D01*
X2878Y42435D01*
X2837Y42258D01*
X2800Y42081D01*
X2767Y41903D01*
X2739Y41724D01*
X2715Y41544D01*
X2695Y41364D01*
X2680Y41183D01*
X2669Y41002D01*
X2662Y40821D01*
X2660Y40640D01*
X10160Y48140D02*
X10341Y48138D01*
X10522Y48131D01*
X10703Y48120D01*
X10884Y48105D01*
X11064Y48085D01*
X11244Y48061D01*
X11423Y48033D01*
X11601Y48000D01*
X11778Y47963D01*
X11955Y47922D01*
X12130Y47877D01*
X12305Y47827D01*
X12478Y47773D01*
X12649Y47715D01*
X12820Y47653D01*
X12988Y47586D01*
X13155Y47516D01*
X13321Y47442D01*
X13484Y47363D01*
X13645Y47281D01*
X13805Y47195D01*
X13962Y47105D01*
X14117Y47011D01*
X14270Y46914D01*
X14420Y46812D01*
X14568Y46708D01*
X14714Y46599D01*
X14856Y46488D01*
X14996Y46372D01*
X15133Y46254D01*
X15268Y46132D01*
X15399Y46007D01*
X15527Y45879D01*
X15652Y45748D01*
X15774Y45613D01*
X15892Y45476D01*
X16008Y45336D01*
X16119Y45194D01*
X16228Y45048D01*
X16332Y44900D01*
X16434Y44750D01*
X16531Y44597D01*
X16625Y44442D01*
X16715Y44285D01*
X16801Y44125D01*
X16883Y43964D01*
X16962Y43801D01*
X17036Y43635D01*
X17106Y43468D01*
X17173Y43300D01*
X17235Y43129D01*
X17293Y42958D01*
X17347Y42785D01*
X17397Y42610D01*
X17442Y42435D01*
X17483Y42258D01*
X17520Y42081D01*
X17553Y41903D01*
X17581Y41724D01*
X17605Y41544D01*
X17625Y41364D01*
X17640Y41183D01*
X17651Y41002D01*
X17658Y40821D01*
X17660Y40640D01*
X17658Y40459D01*
X17651Y40278D01*
X17640Y40097D01*
X17625Y39916D01*
X17605Y39736D01*
X17581Y39556D01*
X17553Y39377D01*
X17520Y39199D01*
X17483Y39022D01*
X17442Y38845D01*
X17397Y38670D01*
X17347Y38495D01*
X17293Y38322D01*
X17235Y38151D01*
X17173Y37980D01*
X17106Y37812D01*
X17036Y37645D01*
X16962Y37479D01*
X16883Y37316D01*
X16801Y37155D01*
X16715Y36995D01*
X16625Y36838D01*
X16531Y36683D01*
X16434Y36530D01*
X16332Y36380D01*
X16228Y36232D01*
X16119Y36086D01*
X16008Y35944D01*
X15892Y35804D01*
X15774Y35667D01*
X15652Y35532D01*
X15527Y35401D01*
X15399Y35273D01*
X15268Y35148D01*
X15133Y35026D01*
X14996Y34908D01*
X14856Y34792D01*
X14714Y34681D01*
X14568Y34572D01*
X14420Y34468D01*
X14270Y34366D01*
X14117Y34269D01*
X13962Y34175D01*
X13805Y34085D01*
X13645Y33999D01*
X13484Y33917D01*
X13321Y33838D01*
X13155Y33764D01*
X12988Y33694D01*
X12820Y33627D01*
X12649Y33565D01*
X12478Y33507D01*
X12305Y33453D01*
X12130Y33403D01*
X11955Y33358D01*
X11778Y33317D01*
X11601Y33280D01*
X11423Y33247D01*
X11244Y33219D01*
X11064Y33195D01*
X10884Y33175D01*
X10703Y33160D01*
X10522Y33149D01*
X10341Y33142D01*
X10160Y33140D01*
X9979Y33142D01*
X9798Y33149D01*
X9617Y33160D01*
X9436Y33175D01*
X9256Y33195D01*
X9076Y33219D01*
X8897Y33247D01*
X8719Y33280D01*
X8542Y33317D01*
X8365Y33358D01*
X8190Y33403D01*
X8015Y33453D01*
X7842Y33507D01*
X7671Y33565D01*
X7500Y33627D01*
X7332Y33694D01*
X7165Y33764D01*
X6999Y33838D01*
X6836Y33917D01*
X6675Y33999D01*
X6515Y34085D01*
X6358Y34175D01*
X6203Y34269D01*
X6050Y34366D01*
X5900Y34468D01*
X5752Y34572D01*
X5606Y34681D01*
X5464Y34792D01*
X5324Y34908D01*
X5187Y35026D01*
X5052Y35148D01*
X4921Y35273D01*
X4793Y35401D01*
X4668Y35532D01*
X4546Y35667D01*
X4428Y35804D01*
X4312Y35944D01*
X4201Y36086D01*
X4092Y36232D01*
X3988Y36380D01*
X3886Y36530D01*
X3789Y36683D01*
X3695Y36838D01*
X3605Y36995D01*
X3519Y37155D01*
X3437Y37316D01*
X3358Y37479D01*
X3284Y37645D01*
X3214Y37812D01*
X3147Y37980D01*
X3085Y38151D01*
X3027Y38322D01*
X2973Y38495D01*
X2923Y38670D01*
X2878Y38845D01*
X2837Y39022D01*
X2800Y39199D01*
X2767Y39377D01*
X2739Y39556D01*
X2715Y39736D01*
X2695Y39916D01*
X2680Y40097D01*
X2669Y40278D01*
X2662Y40459D01*
X2660Y40640D01*
D17*
X25400Y152400D03*
X177800Y152400D03*
D18*
X25400Y25400D03*
X50800Y25400D03*
X76200Y25400D03*
X101600Y25400D03*
X127000Y25400D03*
X152400Y25400D03*
X177800Y25400D03*
D19*
X114300Y59690D03*
X88900Y59690D03*
M02*
