G04 EAGLE Gerber RS-274X export*
G75*
%MOMM*%
%FSLAX34Y34*%
%LPD*%
%INSilkscreen Bottom*%
%IPPOS*%
%AMOC8*
5,1,8,0,0,1.08239X$1,22.5*%
G01*
%ADD10C,0.152400*%
%ADD11C,0.203200*%
%ADD12R,10.363200X0.025400*%
%ADD13R,0.406400X0.025400*%
%ADD14R,0.381000X0.025400*%
%ADD15R,0.457200X0.025400*%
%ADD16R,0.431800X0.025400*%
%ADD17R,0.635000X0.025400*%
%ADD18R,0.482600X0.025400*%
%ADD19R,0.889000X0.025400*%
%ADD20R,0.863600X0.025400*%
%ADD21R,0.508000X0.025400*%
%ADD22R,0.355600X0.025400*%
%ADD23R,0.025400X0.025400*%
%ADD24R,0.330200X0.025400*%
%ADD25R,0.050800X0.025400*%
%ADD26R,0.304800X0.025400*%
%ADD27R,0.076200X0.025400*%
%ADD28R,1.016000X0.025400*%
%ADD29R,1.524000X0.025400*%
%ADD30R,0.101600X0.025400*%
%ADD31R,0.279400X0.025400*%
%ADD32R,1.498600X0.025400*%
%ADD33R,0.254000X0.025400*%
%ADD34R,0.127000X0.025400*%
%ADD35R,0.965200X0.025400*%
%ADD36R,1.447800X0.025400*%
%ADD37R,0.228600X0.025400*%
%ADD38R,0.152400X0.025400*%
%ADD39R,0.812800X0.025400*%
%ADD40R,1.295400X0.025400*%
%ADD41R,0.533400X0.025400*%
%ADD42R,0.660400X0.025400*%
%ADD43R,0.609600X0.025400*%
%ADD44R,0.558800X0.025400*%
%ADD45R,0.203200X0.025400*%
%ADD46R,0.177800X0.025400*%
%ADD47R,0.914400X0.025400*%
%ADD48R,0.685800X0.025400*%
%ADD49R,0.939800X0.025400*%
%ADD50R,0.736600X0.025400*%
%ADD51R,0.990600X0.025400*%
%ADD52R,1.219200X0.025400*%
%ADD53R,1.117600X0.025400*%
%ADD54R,1.397000X0.025400*%
%ADD55R,1.244600X0.025400*%
%ADD56R,1.473200X0.025400*%
%ADD57R,0.584200X0.025400*%
%ADD58R,1.041400X0.025400*%
%ADD59R,21.209000X0.025400*%
%ADD60R,0.787400X0.025400*%
%ADD61R,1.193800X0.025400*%
%ADD62R,1.168400X0.025400*%
%ADD63R,1.092200X0.025400*%
%ADD64R,1.066800X0.025400*%
%ADD65R,1.143000X0.025400*%
%ADD66R,1.270000X0.025400*%
%ADD67R,1.320800X0.025400*%
%ADD68R,1.422400X0.025400*%
%ADD69R,1.549400X0.025400*%
%ADD70R,0.711200X0.025400*%
%ADD71R,1.625600X0.025400*%
%ADD72R,0.762000X0.025400*%
%ADD73R,1.701800X0.025400*%
%ADD74R,1.600200X0.025400*%
%ADD75R,1.727200X0.025400*%
%ADD76R,1.651000X0.025400*%
%ADD77R,0.838200X0.025400*%
%ADD78R,1.803400X0.025400*%
%ADD79R,1.574800X0.025400*%
%ADD80R,1.854200X0.025400*%
%ADD81R,1.778000X0.025400*%
%ADD82R,1.879600X0.025400*%
%ADD83R,1.930400X0.025400*%
%ADD84R,1.981200X0.025400*%
%ADD85R,1.905000X0.025400*%
%ADD86R,2.006600X0.025400*%
%ADD87R,3.048000X0.025400*%
%ADD88R,2.997200X0.025400*%
%ADD89R,2.057400X0.025400*%
%ADD90R,3.022600X0.025400*%
%ADD91R,2.032000X0.025400*%
%ADD92R,3.073400X0.025400*%
%ADD93R,1.676400X0.025400*%
%ADD94R,1.346200X0.025400*%
%ADD95R,3.098800X0.025400*%
%ADD96R,1.828800X0.025400*%
%ADD97R,2.082800X0.025400*%
%ADD98R,2.108200X0.025400*%
%ADD99R,2.159000X0.025400*%
%ADD100R,2.184400X0.025400*%
%ADD101R,2.235200X0.025400*%
%ADD102R,2.260600X0.025400*%
%ADD103R,2.311400X0.025400*%
%ADD104R,2.362200X0.025400*%
%ADD105R,2.387600X0.025400*%
%ADD106R,2.413000X0.025400*%
%ADD107R,2.438400X0.025400*%
%ADD108R,2.133600X0.025400*%
%ADD109R,2.463800X0.025400*%
%ADD110R,2.286000X0.025400*%
%ADD111R,2.514600X0.025400*%
%ADD112R,2.540000X0.025400*%
%ADD113R,2.565400X0.025400*%
%ADD114R,2.489200X0.025400*%
%ADD115R,2.590800X0.025400*%
%ADD116R,2.971800X0.025400*%
%ADD117R,2.616200X0.025400*%
%ADD118R,2.946400X0.025400*%
%ADD119R,2.641600X0.025400*%
%ADD120R,2.667000X0.025400*%
%ADD121R,2.921000X0.025400*%
%ADD122R,2.895600X0.025400*%
%ADD123R,2.717800X0.025400*%
%ADD124R,2.692400X0.025400*%
%ADD125R,2.870200X0.025400*%
%ADD126R,2.768600X0.025400*%
%ADD127R,2.743200X0.025400*%
%ADD128R,2.844800X0.025400*%
%ADD129R,2.794000X0.025400*%
%ADD130R,2.819400X0.025400*%
%ADD131R,1.371600X0.025400*%
%ADD132R,5.892800X0.025400*%
%ADD133R,5.867400X0.025400*%
%ADD134R,5.842000X0.025400*%
%ADD135R,5.816600X0.025400*%
%ADD136R,5.791200X0.025400*%
%ADD137R,4.114800X0.025400*%
%ADD138R,3.987800X0.025400*%
%ADD139R,1.955800X0.025400*%
%ADD140R,3.962400X0.025400*%
%ADD141R,3.911600X0.025400*%
%ADD142R,3.886200X0.025400*%
%ADD143R,3.835400X0.025400*%
%ADD144R,1.752600X0.025400*%
%ADD145R,3.810000X0.025400*%
%ADD146R,3.784600X0.025400*%
%ADD147R,3.733800X0.025400*%
%ADD148R,3.708400X0.025400*%
%ADD149R,3.683000X0.025400*%
%ADD150R,2.336800X0.025400*%
%ADD151R,3.657600X0.025400*%
%ADD152R,3.632200X0.025400*%
%ADD153R,3.149600X0.025400*%
%ADD154R,3.251200X0.025400*%
%ADD155R,3.276600X0.025400*%
%ADD156R,3.352800X0.025400*%
%ADD157R,3.454400X0.025400*%
%ADD158R,3.530600X0.025400*%
%ADD159R,4.241800X0.025400*%
%ADD160R,4.267200X0.025400*%
%ADD161R,4.318000X0.025400*%
%ADD162R,4.419600X0.025400*%
%ADD163R,6.400800X0.025400*%
%ADD164R,6.502400X0.025400*%
%ADD165R,6.680200X0.025400*%
%ADD166R,6.832600X0.025400*%
%ADD167R,6.858000X0.025400*%
%ADD168R,7.010400X0.025400*%
%ADD169R,7.112000X0.025400*%
%ADD170R,7.162800X0.025400*%
%ADD171R,3.860800X0.025400*%
%ADD172R,3.302000X0.025400*%
%ADD173R,2.209800X0.025400*%
%ADD174R,3.124200X0.025400*%
%ADD175R,3.200400X0.025400*%
%ADD176R,5.029200X0.025400*%
%ADD177R,5.003800X0.025400*%
%ADD178R,4.978400X0.025400*%
%ADD179R,4.953000X0.025400*%
%ADD180R,4.927600X0.025400*%
%ADD181R,4.902200X0.025400*%
%ADD182R,4.876800X0.025400*%
%ADD183R,4.851400X0.025400*%
%ADD184R,4.826000X0.025400*%
%ADD185R,4.800600X0.025400*%
%ADD186R,4.775200X0.025400*%
%ADD187R,4.749800X0.025400*%
%ADD188R,4.724400X0.025400*%
%ADD189R,4.699000X0.025400*%
%ADD190R,3.937000X0.025400*%
%ADD191R,4.648200X0.025400*%
%ADD192R,4.597400X0.025400*%
%ADD193R,4.546600X0.025400*%
%ADD194R,4.470400X0.025400*%
%ADD195R,4.013200X0.025400*%
%ADD196R,4.394200X0.025400*%
%ADD197R,4.038600X0.025400*%
%ADD198R,4.064000X0.025400*%
%ADD199R,4.089400X0.025400*%
%ADD200R,4.140200X0.025400*%
%ADD201R,4.165600X0.025400*%
%ADD202R,4.191000X0.025400*%
%ADD203R,3.759200X0.025400*%
%ADD204R,4.216400X0.025400*%
%ADD205R,3.606800X0.025400*%
%ADD206R,4.292600X0.025400*%
%ADD207R,4.368800X0.025400*%
%ADD208R,4.445000X0.025400*%
%ADD209R,4.495800X0.025400*%
%ADD210R,4.572000X0.025400*%
%ADD211R,4.622800X0.025400*%
%ADD212R,4.673600X0.025400*%
%ADD213R,3.581400X0.025400*%
%ADD214R,3.556000X0.025400*%
%ADD215R,3.479800X0.025400*%
%ADD216R,3.403600X0.025400*%
%ADD217R,3.378200X0.025400*%
%ADD218R,3.225800X0.025400*%


D10*
X359828Y120142D02*
X359828Y128785D01*
X362709Y128785D02*
X356946Y128785D01*
X351913Y120142D02*
X349032Y120142D01*
X347591Y121583D01*
X347591Y124464D01*
X349032Y125904D01*
X351913Y125904D01*
X353354Y124464D01*
X353354Y121583D01*
X351913Y120142D01*
X333203Y120142D02*
X330321Y120142D01*
X333203Y120142D02*
X334643Y121583D01*
X334643Y124464D01*
X333203Y125904D01*
X330321Y125904D01*
X328881Y124464D01*
X328881Y123023D01*
X334643Y123023D01*
X325288Y120142D02*
X325288Y125904D01*
X320966Y125904D01*
X319526Y124464D01*
X319526Y120142D01*
X315933Y120142D02*
X311611Y120142D01*
X310171Y121583D01*
X311611Y123023D01*
X314492Y123023D01*
X315933Y124464D01*
X314492Y125904D01*
X310171Y125904D01*
X306578Y125904D02*
X306578Y121583D01*
X305137Y120142D01*
X300815Y120142D01*
X300815Y125904D01*
X297222Y125904D02*
X297222Y120142D01*
X297222Y123023D02*
X294341Y125904D01*
X292901Y125904D01*
X287986Y120142D02*
X285105Y120142D01*
X287986Y120142D02*
X289426Y121583D01*
X289426Y124464D01*
X287986Y125904D01*
X285105Y125904D01*
X283664Y124464D01*
X283664Y123023D01*
X289426Y123023D01*
X269276Y125904D02*
X264954Y125904D01*
X269276Y125904D02*
X270716Y124464D01*
X270716Y121583D01*
X269276Y120142D01*
X264954Y120142D01*
X259920Y120142D02*
X257039Y120142D01*
X255599Y121583D01*
X255599Y124464D01*
X257039Y125904D01*
X259920Y125904D01*
X261361Y124464D01*
X261361Y121583D01*
X259920Y120142D01*
X252006Y120142D02*
X252006Y125904D01*
X252006Y123023D02*
X249125Y125904D01*
X247684Y125904D01*
X244210Y125904D02*
X244210Y120142D01*
X244210Y123023D02*
X241329Y125904D01*
X239888Y125904D01*
X234973Y120142D02*
X232092Y120142D01*
X234973Y120142D02*
X236414Y121583D01*
X236414Y124464D01*
X234973Y125904D01*
X232092Y125904D01*
X230652Y124464D01*
X230652Y123023D01*
X236414Y123023D01*
X225618Y125904D02*
X221296Y125904D01*
X225618Y125904D02*
X227059Y124464D01*
X227059Y121583D01*
X225618Y120142D01*
X221296Y120142D01*
X216263Y121583D02*
X216263Y127345D01*
X216263Y121583D02*
X214822Y120142D01*
X214822Y125904D02*
X217703Y125904D01*
X200671Y127345D02*
X200671Y121583D01*
X199230Y120142D01*
X199230Y125904D02*
X202111Y125904D01*
X195875Y125904D02*
X194434Y125904D01*
X194434Y120142D01*
X192994Y120142D02*
X195875Y120142D01*
X194434Y128785D02*
X194434Y130226D01*
X189638Y125904D02*
X189638Y120142D01*
X189638Y125904D02*
X188197Y125904D01*
X186757Y124464D01*
X186757Y120142D01*
X186757Y124464D02*
X185316Y125904D01*
X183876Y124464D01*
X183876Y120142D01*
X180283Y125904D02*
X178842Y125904D01*
X178842Y120142D01*
X177402Y120142D02*
X180283Y120142D01*
X178842Y128785D02*
X178842Y130226D01*
X174046Y125904D02*
X174046Y120142D01*
X174046Y125904D02*
X169724Y125904D01*
X168284Y124464D01*
X168284Y120142D01*
X161810Y117261D02*
X160369Y117261D01*
X158928Y118701D01*
X158928Y125904D01*
X163250Y125904D01*
X164691Y124464D01*
X164691Y121583D01*
X163250Y120142D01*
X158928Y120142D01*
X140218Y120142D02*
X140218Y128785D01*
X140218Y120142D02*
X144540Y120142D01*
X145980Y121583D01*
X145980Y124464D01*
X144540Y125904D01*
X140218Y125904D01*
X135185Y120142D02*
X132303Y120142D01*
X135185Y120142D02*
X136625Y121583D01*
X136625Y124464D01*
X135185Y125904D01*
X132303Y125904D01*
X130863Y124464D01*
X130863Y123023D01*
X136625Y123023D01*
X127270Y128785D02*
X125829Y128785D01*
X125829Y120142D01*
X124389Y120142D02*
X127270Y120142D01*
X119593Y125904D02*
X116711Y125904D01*
X115271Y124464D01*
X115271Y120142D01*
X119593Y120142D01*
X121033Y121583D01*
X119593Y123023D01*
X115271Y123023D01*
X111678Y121583D02*
X111678Y125904D01*
X111678Y121583D02*
X110237Y120142D01*
X105916Y120142D01*
X105916Y118701D02*
X105916Y125904D01*
X105916Y118701D02*
X107356Y117261D01*
X108797Y117261D01*
X102323Y120142D02*
X98001Y120142D01*
X96561Y121583D01*
X98001Y123023D01*
X100882Y123023D01*
X102323Y124464D01*
X100882Y125904D01*
X96561Y125904D01*
X362285Y104902D02*
X365166Y104902D01*
X362285Y104902D02*
X360844Y106343D01*
X360844Y109224D01*
X362285Y110664D01*
X365166Y110664D01*
X366607Y109224D01*
X366607Y106343D01*
X365166Y104902D01*
X357252Y104902D02*
X357252Y110664D01*
X352930Y110664D01*
X351489Y109224D01*
X351489Y104902D01*
X338541Y104902D02*
X338541Y113545D01*
X338541Y104902D02*
X332779Y104902D01*
X327745Y104902D02*
X324864Y104902D01*
X323424Y106343D01*
X323424Y109224D01*
X324864Y110664D01*
X327745Y110664D01*
X329186Y109224D01*
X329186Y106343D01*
X327745Y104902D01*
X319831Y106343D02*
X319831Y110664D01*
X319831Y106343D02*
X318390Y104902D01*
X316950Y106343D01*
X315509Y104902D01*
X314069Y106343D01*
X314069Y110664D01*
X296799Y113545D02*
X295358Y112105D01*
X296799Y113545D02*
X299680Y113545D01*
X301120Y112105D01*
X301120Y110664D01*
X299680Y109224D01*
X296799Y109224D01*
X295358Y107783D01*
X295358Y106343D01*
X296799Y104902D01*
X299680Y104902D01*
X301120Y106343D01*
X291765Y110664D02*
X291765Y102021D01*
X291765Y110664D02*
X287444Y110664D01*
X286003Y109224D01*
X286003Y106343D01*
X287444Y104902D01*
X291765Y104902D01*
X280969Y104902D02*
X278088Y104902D01*
X280969Y104902D02*
X282410Y106343D01*
X282410Y109224D01*
X280969Y110664D01*
X278088Y110664D01*
X276648Y109224D01*
X276648Y107783D01*
X282410Y107783D01*
X271614Y104902D02*
X268733Y104902D01*
X271614Y104902D02*
X273055Y106343D01*
X273055Y109224D01*
X271614Y110664D01*
X268733Y110664D01*
X267293Y109224D01*
X267293Y107783D01*
X273055Y107783D01*
X257937Y104902D02*
X257937Y113545D01*
X257937Y104902D02*
X262259Y104902D01*
X263700Y106343D01*
X263700Y109224D01*
X262259Y110664D01*
X257937Y110664D01*
X239227Y113545D02*
X239227Y104902D01*
X243549Y104902D01*
X244989Y106343D01*
X244989Y109224D01*
X243549Y110664D01*
X239227Y110664D01*
X234194Y104902D02*
X231312Y104902D01*
X234194Y104902D02*
X235634Y106343D01*
X235634Y109224D01*
X234194Y110664D01*
X231312Y110664D01*
X229872Y109224D01*
X229872Y107783D01*
X235634Y107783D01*
X226279Y110664D02*
X223398Y104902D01*
X220517Y110664D01*
X216924Y110664D02*
X215483Y110664D01*
X215483Y104902D01*
X214043Y104902D02*
X216924Y104902D01*
X215483Y113545D02*
X215483Y114986D01*
X209246Y110664D02*
X204925Y110664D01*
X209246Y110664D02*
X210687Y109224D01*
X210687Y106343D01*
X209246Y104902D01*
X204925Y104902D01*
X199891Y104902D02*
X197010Y104902D01*
X199891Y104902D02*
X201332Y106343D01*
X201332Y109224D01*
X199891Y110664D01*
X197010Y110664D01*
X195570Y109224D01*
X195570Y107783D01*
X201332Y107783D01*
X191977Y104902D02*
X187655Y104902D01*
X186214Y106343D01*
X187655Y107783D01*
X190536Y107783D01*
X191977Y109224D01*
X190536Y110664D01*
X186214Y110664D01*
X173266Y107783D02*
X170385Y104902D01*
X173266Y107783D02*
X173266Y110664D01*
X170385Y113545D01*
X167029Y113545D02*
X167029Y106343D01*
X165589Y104902D01*
X162708Y104902D01*
X161267Y106343D01*
X161267Y113545D01*
X153353Y113545D02*
X151912Y112105D01*
X153353Y113545D02*
X156234Y113545D01*
X157674Y112105D01*
X157674Y110664D01*
X156234Y109224D01*
X153353Y109224D01*
X151912Y107783D01*
X151912Y106343D01*
X153353Y104902D01*
X156234Y104902D01*
X157674Y106343D01*
X148319Y104902D02*
X148319Y113545D01*
X143997Y113545D01*
X142557Y112105D01*
X142557Y110664D01*
X143997Y109224D01*
X142557Y107783D01*
X142557Y106343D01*
X143997Y104902D01*
X148319Y104902D01*
X148319Y109224D02*
X143997Y109224D01*
X129609Y110664D02*
X129609Y104902D01*
X129609Y110664D02*
X128168Y110664D01*
X126728Y109224D01*
X126728Y104902D01*
X126728Y109224D02*
X125287Y110664D01*
X123846Y109224D01*
X123846Y104902D01*
X120253Y110664D02*
X118813Y110664D01*
X118813Y104902D01*
X120253Y104902D02*
X117372Y104902D01*
X118813Y113545D02*
X118813Y114986D01*
X112576Y110664D02*
X108254Y110664D01*
X112576Y110664D02*
X114017Y109224D01*
X114017Y106343D01*
X112576Y104902D01*
X108254Y104902D01*
X103221Y104902D02*
X100340Y104902D01*
X103221Y104902D02*
X104662Y106343D01*
X104662Y109224D01*
X103221Y110664D01*
X100340Y110664D01*
X98899Y109224D01*
X98899Y107783D01*
X104662Y107783D01*
X95306Y102021D02*
X92425Y104902D01*
X92425Y106343D01*
X93866Y106343D01*
X93866Y104902D01*
X92425Y104902D01*
X350235Y98305D02*
X350235Y89662D01*
X350235Y92543D02*
X345913Y89662D01*
X350235Y92543D02*
X345913Y95424D01*
X340999Y89662D02*
X338117Y89662D01*
X340999Y89662D02*
X342439Y91103D01*
X342439Y93984D01*
X340999Y95424D01*
X338117Y95424D01*
X336677Y93984D01*
X336677Y92543D01*
X342439Y92543D01*
X333084Y91103D02*
X333084Y95424D01*
X333084Y91103D02*
X331643Y89662D01*
X327322Y89662D01*
X327322Y88221D02*
X327322Y95424D01*
X327322Y88221D02*
X328762Y86781D01*
X330203Y86781D01*
X323729Y89662D02*
X323729Y98305D01*
X323729Y89662D02*
X319407Y89662D01*
X317967Y91103D01*
X317967Y93984D01*
X319407Y95424D01*
X323729Y95424D01*
X312933Y89662D02*
X310052Y89662D01*
X308611Y91103D01*
X308611Y93984D01*
X310052Y95424D01*
X312933Y95424D01*
X314374Y93984D01*
X314374Y91103D01*
X312933Y89662D01*
X303578Y95424D02*
X300697Y95424D01*
X299256Y93984D01*
X299256Y89662D01*
X303578Y89662D01*
X305018Y91103D01*
X303578Y92543D01*
X299256Y92543D01*
X295663Y89662D02*
X295663Y95424D01*
X295663Y92543D02*
X292782Y95424D01*
X291342Y95424D01*
X282105Y98305D02*
X282105Y89662D01*
X286427Y89662D01*
X287867Y91103D01*
X287867Y93984D01*
X286427Y95424D01*
X282105Y95424D01*
X278512Y89662D02*
X274190Y89662D01*
X272750Y91103D01*
X274190Y92543D01*
X277072Y92543D01*
X278512Y93984D01*
X277072Y95424D01*
X272750Y95424D01*
X266276Y89662D02*
X269157Y86781D01*
X266276Y89662D02*
X266276Y91103D01*
X267716Y91103D01*
X267716Y89662D01*
X266276Y89662D01*
X252124Y89662D02*
X249243Y89662D01*
X252124Y89662D02*
X253565Y91103D01*
X253565Y93984D01*
X252124Y95424D01*
X249243Y95424D01*
X247803Y93984D01*
X247803Y92543D01*
X253565Y92543D01*
X242769Y91103D02*
X242769Y96865D01*
X242769Y91103D02*
X241329Y89662D01*
X241329Y95424D02*
X244210Y95424D01*
X236532Y95424D02*
X232211Y95424D01*
X236532Y95424D02*
X237973Y93984D01*
X237973Y91103D01*
X236532Y89662D01*
X232211Y89662D01*
X228618Y89662D02*
X228618Y91103D01*
X227177Y91103D01*
X227177Y89662D01*
X228618Y89662D01*
X223940Y89662D02*
X221059Y92543D01*
X221059Y95424D01*
X223940Y98305D01*
X214822Y89662D02*
X217703Y86781D01*
X214822Y89662D02*
X214822Y91103D01*
X216263Y91103D01*
X216263Y89662D01*
X214822Y89662D01*
X202111Y89662D02*
X197790Y89662D01*
X196349Y91103D01*
X197790Y92543D01*
X200671Y92543D01*
X202111Y93984D01*
X200671Y95424D01*
X196349Y95424D01*
X191316Y89662D02*
X188435Y89662D01*
X191316Y89662D02*
X192756Y91103D01*
X192756Y93984D01*
X191316Y95424D01*
X188435Y95424D01*
X186994Y93984D01*
X186994Y92543D01*
X192756Y92543D01*
X181960Y91103D02*
X181960Y96865D01*
X181960Y91103D02*
X180520Y89662D01*
X180520Y95424D02*
X183401Y95424D01*
X166369Y96865D02*
X166369Y91103D01*
X164928Y89662D01*
X164928Y95424D02*
X167809Y95424D01*
X161572Y98305D02*
X161572Y89662D01*
X161572Y93984D02*
X160132Y95424D01*
X157251Y95424D01*
X155810Y93984D01*
X155810Y89662D01*
X150777Y89662D02*
X147895Y89662D01*
X150777Y89662D02*
X152217Y91103D01*
X152217Y93984D01*
X150777Y95424D01*
X147895Y95424D01*
X146455Y93984D01*
X146455Y92543D01*
X152217Y92543D01*
X133507Y91103D02*
X133507Y98305D01*
X133507Y91103D02*
X132066Y89662D01*
X129185Y89662D01*
X127744Y91103D01*
X127744Y98305D01*
X119830Y98305D02*
X118389Y96865D01*
X119830Y98305D02*
X122711Y98305D01*
X124152Y96865D01*
X124152Y95424D01*
X122711Y93984D01*
X119830Y93984D01*
X118389Y92543D01*
X118389Y91103D01*
X119830Y89662D01*
X122711Y89662D01*
X124152Y91103D01*
X114796Y89662D02*
X114796Y98305D01*
X110475Y98305D01*
X109034Y96865D01*
X109034Y95424D01*
X110475Y93984D01*
X109034Y92543D01*
X109034Y91103D01*
X110475Y89662D01*
X114796Y89662D01*
X114796Y93984D02*
X110475Y93984D01*
X356828Y74422D02*
X361150Y74422D01*
X356828Y74422D02*
X355387Y75863D01*
X356828Y77303D01*
X359709Y77303D01*
X361150Y78744D01*
X359709Y80184D01*
X355387Y80184D01*
X351794Y80184D02*
X351794Y71541D01*
X351794Y80184D02*
X347473Y80184D01*
X346032Y78744D01*
X346032Y75863D01*
X347473Y74422D01*
X351794Y74422D01*
X340999Y74422D02*
X338117Y74422D01*
X340999Y74422D02*
X342439Y75863D01*
X342439Y78744D01*
X340999Y80184D01*
X338117Y80184D01*
X336677Y78744D01*
X336677Y77303D01*
X342439Y77303D01*
X331643Y74422D02*
X328762Y74422D01*
X331643Y74422D02*
X333084Y75863D01*
X333084Y78744D01*
X331643Y80184D01*
X328762Y80184D01*
X327322Y78744D01*
X327322Y77303D01*
X333084Y77303D01*
X317967Y74422D02*
X317967Y83065D01*
X317967Y74422D02*
X322288Y74422D01*
X323729Y75863D01*
X323729Y78744D01*
X322288Y80184D01*
X317967Y80184D01*
X305018Y74422D02*
X300697Y74422D01*
X299256Y75863D01*
X300697Y77303D01*
X303578Y77303D01*
X305018Y78744D01*
X303578Y80184D01*
X299256Y80184D01*
X294223Y74422D02*
X291342Y74422D01*
X294223Y74422D02*
X295663Y75863D01*
X295663Y78744D01*
X294223Y80184D01*
X291342Y80184D01*
X289901Y78744D01*
X289901Y77303D01*
X295663Y77303D01*
X286308Y83065D02*
X284867Y83065D01*
X284867Y74422D01*
X283427Y74422D02*
X286308Y74422D01*
X278631Y74422D02*
X275750Y74422D01*
X278631Y74422D02*
X280071Y75863D01*
X280071Y78744D01*
X278631Y80184D01*
X275750Y80184D01*
X274309Y78744D01*
X274309Y77303D01*
X280071Y77303D01*
X269276Y80184D02*
X264954Y80184D01*
X269276Y80184D02*
X270716Y78744D01*
X270716Y75863D01*
X269276Y74422D01*
X264954Y74422D01*
X259920Y75863D02*
X259920Y81625D01*
X259920Y75863D02*
X258480Y74422D01*
X258480Y80184D02*
X261361Y80184D01*
X253684Y74422D02*
X250802Y74422D01*
X249362Y75863D01*
X249362Y78744D01*
X250802Y80184D01*
X253684Y80184D01*
X255124Y78744D01*
X255124Y75863D01*
X253684Y74422D01*
X245769Y74422D02*
X245769Y80184D01*
X245769Y77303D02*
X242888Y80184D01*
X241447Y80184D01*
X227177Y81625D02*
X227177Y75863D01*
X225737Y74422D01*
X225737Y80184D02*
X228618Y80184D01*
X220940Y74422D02*
X218059Y74422D01*
X216619Y75863D01*
X216619Y78744D01*
X218059Y80184D01*
X220940Y80184D01*
X222381Y78744D01*
X222381Y75863D01*
X220940Y74422D01*
X203671Y74422D02*
X203671Y83065D01*
X203671Y74422D02*
X197908Y74422D01*
X192875Y83065D02*
X189994Y83065D01*
X192875Y83065D02*
X194315Y81625D01*
X194315Y75863D01*
X192875Y74422D01*
X189994Y74422D01*
X188553Y75863D01*
X188553Y81625D01*
X189994Y83065D01*
X184960Y83065D02*
X184960Y74422D01*
X182079Y77303D01*
X179198Y74422D01*
X179198Y83065D01*
X175605Y75863D02*
X175605Y74422D01*
X175605Y75863D02*
X174164Y75863D01*
X174164Y74422D01*
X175605Y74422D01*
X161572Y74422D02*
X161572Y83065D01*
X155810Y83065D01*
X158691Y78744D02*
X161572Y78744D01*
X150777Y74422D02*
X147895Y74422D01*
X146455Y75863D01*
X146455Y78744D01*
X147895Y80184D01*
X150777Y80184D01*
X152217Y78744D01*
X152217Y75863D01*
X150777Y74422D01*
X142862Y74422D02*
X142862Y80184D01*
X142862Y77303D02*
X139981Y80184D01*
X138540Y80184D01*
X125711Y83065D02*
X125711Y74422D01*
X125711Y83065D02*
X119948Y83065D01*
X122830Y78744D02*
X125711Y78744D01*
X116356Y80184D02*
X116356Y75863D01*
X114915Y74422D01*
X110593Y74422D01*
X110593Y80184D01*
X107000Y83065D02*
X105560Y83065D01*
X105560Y74422D01*
X107000Y74422D02*
X104119Y74422D01*
X100764Y83065D02*
X99323Y83065D01*
X99323Y74422D01*
X100764Y74422D02*
X97882Y74422D01*
X360844Y66385D02*
X362285Y67825D01*
X365166Y67825D01*
X366607Y66385D01*
X366607Y64944D01*
X365166Y63504D01*
X362285Y63504D01*
X360844Y62063D01*
X360844Y60623D01*
X362285Y59182D01*
X365166Y59182D01*
X366607Y60623D01*
X357252Y64944D02*
X357252Y56301D01*
X357252Y64944D02*
X352930Y64944D01*
X351489Y63504D01*
X351489Y60623D01*
X352930Y59182D01*
X357252Y59182D01*
X346456Y59182D02*
X343575Y59182D01*
X346456Y59182D02*
X347896Y60623D01*
X347896Y63504D01*
X346456Y64944D01*
X343575Y64944D01*
X342134Y63504D01*
X342134Y62063D01*
X347896Y62063D01*
X337101Y59182D02*
X334219Y59182D01*
X337101Y59182D02*
X338541Y60623D01*
X338541Y63504D01*
X337101Y64944D01*
X334219Y64944D01*
X332779Y63504D01*
X332779Y62063D01*
X338541Y62063D01*
X323424Y59182D02*
X323424Y67825D01*
X323424Y59182D02*
X327745Y59182D01*
X329186Y60623D01*
X329186Y63504D01*
X327745Y64944D01*
X323424Y64944D01*
X304713Y67825D02*
X304713Y59182D01*
X309035Y59182D01*
X310476Y60623D01*
X310476Y63504D01*
X309035Y64944D01*
X304713Y64944D01*
X299680Y59182D02*
X296799Y59182D01*
X299680Y59182D02*
X301120Y60623D01*
X301120Y63504D01*
X299680Y64944D01*
X296799Y64944D01*
X295358Y63504D01*
X295358Y62063D01*
X301120Y62063D01*
X291765Y64944D02*
X288884Y59182D01*
X286003Y64944D01*
X282410Y64944D02*
X280969Y64944D01*
X280969Y59182D01*
X279529Y59182D02*
X282410Y59182D01*
X280969Y67825D02*
X280969Y69266D01*
X274733Y64944D02*
X270411Y64944D01*
X274733Y64944D02*
X276173Y63504D01*
X276173Y60623D01*
X274733Y59182D01*
X270411Y59182D01*
X265378Y59182D02*
X262496Y59182D01*
X265378Y59182D02*
X266818Y60623D01*
X266818Y63504D01*
X265378Y64944D01*
X262496Y64944D01*
X261056Y63504D01*
X261056Y62063D01*
X266818Y62063D01*
X257463Y59182D02*
X253141Y59182D01*
X251701Y60623D01*
X253141Y62063D01*
X256022Y62063D01*
X257463Y63504D01*
X256022Y64944D01*
X251701Y64944D01*
X238753Y62063D02*
X235871Y59182D01*
X238753Y62063D02*
X238753Y64944D01*
X235871Y67825D01*
X232516Y64944D02*
X229635Y67825D01*
X229635Y59182D01*
X232516Y59182D02*
X226753Y59182D01*
X223161Y59182D02*
X217398Y59182D01*
X217398Y64944D02*
X223161Y59182D01*
X217398Y64944D02*
X217398Y66385D01*
X218839Y67825D01*
X221720Y67825D01*
X223161Y66385D01*
X213805Y67825D02*
X213805Y59182D01*
X210924Y64944D02*
X213805Y67825D01*
X210924Y64944D02*
X208043Y67825D01*
X208043Y59182D01*
X204450Y59182D02*
X204450Y67825D01*
X200128Y67825D01*
X198688Y66385D01*
X198688Y64944D01*
X200128Y63504D01*
X198688Y62063D01*
X198688Y60623D01*
X200128Y59182D01*
X204450Y59182D01*
X204450Y63504D02*
X200128Y63504D01*
X195095Y64944D02*
X193654Y64944D01*
X193654Y59182D01*
X192214Y59182D02*
X195095Y59182D01*
X193654Y67825D02*
X193654Y69266D01*
X187418Y66385D02*
X187418Y60623D01*
X185977Y59182D01*
X185977Y64944D02*
X188858Y64944D01*
X182621Y59182D02*
X176859Y67825D01*
X173266Y59182D02*
X168945Y59182D01*
X167504Y60623D01*
X168945Y62063D01*
X171826Y62063D01*
X173266Y63504D01*
X171826Y64944D01*
X167504Y64944D01*
X163911Y59182D02*
X161030Y62063D01*
X161030Y64944D01*
X163911Y67825D01*
X148319Y59182D02*
X143997Y59182D01*
X142557Y60623D01*
X143997Y62063D01*
X146879Y62063D01*
X148319Y63504D01*
X146879Y64944D01*
X142557Y64944D01*
X137523Y59182D02*
X134642Y59182D01*
X137523Y59182D02*
X138964Y60623D01*
X138964Y63504D01*
X137523Y64944D01*
X134642Y64944D01*
X133202Y63504D01*
X133202Y62063D01*
X138964Y62063D01*
X128168Y60623D02*
X128168Y66385D01*
X128168Y60623D02*
X126728Y59182D01*
X126728Y64944D02*
X129609Y64944D01*
X112576Y66385D02*
X112576Y60623D01*
X111136Y59182D01*
X111136Y64944D02*
X114017Y64944D01*
X107780Y67825D02*
X107780Y59182D01*
X107780Y63504D02*
X106339Y64944D01*
X103458Y64944D01*
X102018Y63504D01*
X102018Y59182D01*
X96984Y59182D02*
X94103Y59182D01*
X96984Y59182D02*
X98425Y60623D01*
X98425Y63504D01*
X96984Y64944D01*
X94103Y64944D01*
X92663Y63504D01*
X92663Y62063D01*
X98425Y62063D01*
X295239Y43942D02*
X299561Y43942D01*
X295239Y43942D02*
X293799Y45383D01*
X295239Y46823D01*
X298121Y46823D01*
X299561Y48264D01*
X298121Y49704D01*
X293799Y49704D01*
X288765Y43942D02*
X285884Y43942D01*
X288765Y43942D02*
X290206Y45383D01*
X290206Y48264D01*
X288765Y49704D01*
X285884Y49704D01*
X284444Y48264D01*
X284444Y46823D01*
X290206Y46823D01*
X280851Y52585D02*
X279410Y52585D01*
X279410Y43942D01*
X277970Y43942D02*
X280851Y43942D01*
X273173Y43942D02*
X270292Y43942D01*
X273173Y43942D02*
X274614Y45383D01*
X274614Y48264D01*
X273173Y49704D01*
X270292Y49704D01*
X268852Y48264D01*
X268852Y46823D01*
X274614Y46823D01*
X263818Y49704D02*
X259497Y49704D01*
X263818Y49704D02*
X265259Y48264D01*
X265259Y45383D01*
X263818Y43942D01*
X259497Y43942D01*
X254463Y45383D02*
X254463Y51145D01*
X254463Y45383D02*
X253023Y43942D01*
X253023Y49704D02*
X255904Y49704D01*
X248226Y43942D02*
X245345Y43942D01*
X243905Y45383D01*
X243905Y48264D01*
X245345Y49704D01*
X248226Y49704D01*
X249667Y48264D01*
X249667Y45383D01*
X248226Y43942D01*
X240312Y43942D02*
X240312Y49704D01*
X240312Y46823D02*
X237431Y49704D01*
X235990Y49704D01*
X221720Y51145D02*
X221720Y45383D01*
X220279Y43942D01*
X220279Y49704D02*
X223161Y49704D01*
X215483Y43942D02*
X212602Y43942D01*
X211161Y45383D01*
X211161Y48264D01*
X212602Y49704D01*
X215483Y49704D01*
X216924Y48264D01*
X216924Y45383D01*
X215483Y43942D01*
X198213Y43942D02*
X198213Y52585D01*
X192451Y52585D01*
X195332Y48264D02*
X198213Y48264D01*
X188858Y45383D02*
X188858Y52585D01*
X188858Y45383D02*
X187418Y43942D01*
X184536Y43942D01*
X183096Y45383D01*
X183096Y52585D01*
X179503Y52585D02*
X179503Y43942D01*
X173741Y43942D01*
X170148Y43942D02*
X170148Y52585D01*
X170148Y43942D02*
X164386Y43942D01*
X160793Y43942D02*
X160793Y45383D01*
X159352Y45383D01*
X159352Y43942D01*
X160793Y43942D01*
D11*
X374227Y145034D02*
X374227Y154864D01*
X369312Y159779D01*
X364397Y154864D01*
X364397Y145034D01*
X364397Y152406D02*
X374227Y152406D01*
X358791Y159779D02*
X358791Y145034D01*
X351418Y145034D01*
X348961Y147491D01*
X348961Y157321D01*
X351418Y159779D01*
X358791Y159779D01*
X343355Y154864D02*
X343355Y147491D01*
X340897Y145034D01*
X333525Y145034D01*
X333525Y154864D01*
X327919Y159779D02*
X327919Y145034D01*
X323004Y154864D02*
X327919Y159779D01*
X323004Y154864D02*
X318089Y159779D01*
X318089Y145034D01*
X305110Y145034D02*
X305110Y159779D01*
X312482Y152406D01*
X302653Y152406D01*
X297046Y154864D02*
X292132Y159779D01*
X292132Y145034D01*
X297046Y145034D02*
X287217Y145034D01*
X276695Y157321D02*
X271781Y159779D01*
X276695Y157321D02*
X281610Y152406D01*
X281610Y147491D01*
X279153Y145034D01*
X274238Y145034D01*
X271781Y147491D01*
X271781Y149949D01*
X274238Y152406D01*
X281610Y152406D01*
X266174Y147491D02*
X266174Y157321D01*
X263717Y159779D01*
X258802Y159779D01*
X256345Y157321D01*
X256345Y147491D01*
X258802Y145034D01*
X263717Y145034D01*
X266174Y147491D01*
X256345Y157321D01*
X235302Y152406D02*
X225472Y152406D01*
X230387Y157321D02*
X230387Y147491D01*
X204430Y145034D02*
X204430Y154864D01*
X199515Y159779D01*
X194600Y154864D01*
X194600Y145034D01*
X194600Y152406D02*
X204430Y152406D01*
X188994Y159779D02*
X188994Y145034D01*
X181622Y145034D01*
X179164Y147491D01*
X179164Y157321D01*
X181622Y159779D01*
X188994Y159779D01*
X173558Y154864D02*
X173558Y147491D01*
X171100Y145034D01*
X163728Y145034D01*
X163728Y154864D01*
X158122Y159779D02*
X158122Y145034D01*
X153207Y154864D02*
X158122Y159779D01*
X153207Y154864D02*
X148292Y159779D01*
X148292Y145034D01*
X142686Y159779D02*
X132856Y159779D01*
X142686Y159779D02*
X142686Y152406D01*
X137771Y154864D01*
X135313Y154864D01*
X132856Y152406D01*
X132856Y147491D01*
X135313Y145034D01*
X140228Y145034D01*
X142686Y147491D01*
X127250Y147491D02*
X127250Y157321D01*
X124792Y159779D01*
X119877Y159779D01*
X117420Y157321D01*
X117420Y147491D01*
X119877Y145034D01*
X124792Y145034D01*
X127250Y147491D01*
X117420Y157321D01*
X111814Y157321D02*
X111814Y147491D01*
X111814Y157321D02*
X109356Y159779D01*
X104441Y159779D01*
X101984Y157321D01*
X101984Y147491D01*
X104441Y145034D01*
X109356Y145034D01*
X111814Y147491D01*
X101984Y157321D01*
X96378Y157321D02*
X96378Y147491D01*
X96378Y157321D02*
X93920Y159779D01*
X89005Y159779D01*
X86548Y157321D01*
X86548Y147491D01*
X89005Y145034D01*
X93920Y145034D01*
X96378Y147491D01*
X86548Y157321D01*
D12*
X249809Y182880D03*
D13*
X194437Y182880D03*
X189103Y182880D03*
D14*
X182372Y182880D03*
D13*
X176911Y182880D03*
D15*
X170815Y182880D03*
D14*
X164592Y182880D03*
D16*
X158750Y182880D03*
D15*
X152781Y182880D03*
D17*
X145796Y182880D03*
X137922Y182880D03*
D18*
X130810Y182880D03*
D16*
X124714Y182880D03*
X118872Y182880D03*
D19*
X110490Y182880D03*
D15*
X102235Y182880D03*
D19*
X93980Y182880D03*
D12*
X249809Y183134D03*
D13*
X194437Y183134D03*
D14*
X189230Y183134D03*
X182372Y183134D03*
D15*
X176657Y183134D03*
D16*
X170688Y183134D03*
D15*
X164719Y183134D03*
D16*
X158750Y183134D03*
D15*
X152781Y183134D03*
D17*
X145796Y183134D03*
X137922Y183134D03*
D18*
X130810Y183134D03*
D16*
X124714Y183134D03*
X118872Y183134D03*
D19*
X110490Y183134D03*
D18*
X102362Y183134D03*
D19*
X93980Y183134D03*
D12*
X249809Y183388D03*
D13*
X194437Y183388D03*
D14*
X189230Y183388D03*
X182372Y183388D03*
D18*
X176530Y183388D03*
D13*
X170561Y183388D03*
D18*
X164592Y183388D03*
D16*
X158750Y183388D03*
D18*
X152908Y183388D03*
D17*
X145796Y183388D03*
X137922Y183388D03*
D18*
X130810Y183388D03*
D16*
X124714Y183388D03*
X118872Y183388D03*
D20*
X110617Y183388D03*
D21*
X102235Y183388D03*
D19*
X93980Y183388D03*
D12*
X249809Y183642D03*
D13*
X194437Y183642D03*
D22*
X189357Y183642D03*
D14*
X182372Y183642D03*
D18*
X176530Y183642D03*
D13*
X170561Y183642D03*
D18*
X164592Y183642D03*
D14*
X158750Y183642D03*
D18*
X152908Y183642D03*
D17*
X145796Y183642D03*
X137922Y183642D03*
D18*
X130810Y183642D03*
D16*
X124714Y183642D03*
X118872Y183642D03*
D20*
X110617Y183642D03*
D21*
X102235Y183642D03*
D19*
X93980Y183642D03*
D12*
X249809Y183896D03*
D13*
X194437Y183896D03*
D22*
X189357Y183896D03*
D23*
X185928Y183896D03*
D14*
X182372Y183896D03*
D18*
X176530Y183896D03*
D13*
X170561Y183896D03*
D18*
X164592Y183896D03*
D14*
X158750Y183896D03*
D18*
X152908Y183896D03*
D17*
X145796Y183896D03*
X137922Y183896D03*
D18*
X130810Y183896D03*
D16*
X124714Y183896D03*
X118872Y183896D03*
D20*
X110617Y183896D03*
D21*
X102235Y183896D03*
D19*
X93980Y183896D03*
D12*
X249809Y184150D03*
D13*
X194437Y184150D03*
D24*
X189484Y184150D03*
D25*
X186055Y184150D03*
D14*
X182372Y184150D03*
D18*
X176530Y184150D03*
D13*
X170561Y184150D03*
D18*
X164592Y184150D03*
D14*
X158750Y184150D03*
D18*
X152908Y184150D03*
D17*
X145796Y184150D03*
X137922Y184150D03*
D15*
X130937Y184150D03*
D16*
X124714Y184150D03*
X118872Y184150D03*
D20*
X110617Y184150D03*
D21*
X102235Y184150D03*
D20*
X93853Y184150D03*
D12*
X249809Y184404D03*
D13*
X194437Y184404D03*
D24*
X189484Y184404D03*
D25*
X186055Y184404D03*
D14*
X182372Y184404D03*
D18*
X176530Y184404D03*
D13*
X170561Y184404D03*
D18*
X164592Y184404D03*
D14*
X158750Y184404D03*
D18*
X152908Y184404D03*
D17*
X145796Y184404D03*
X137922Y184404D03*
D15*
X130937Y184404D03*
D16*
X124714Y184404D03*
X118872Y184404D03*
D20*
X110617Y184404D03*
D21*
X102235Y184404D03*
D20*
X93853Y184404D03*
D12*
X249809Y184658D03*
D13*
X194437Y184658D03*
D26*
X189611Y184658D03*
D27*
X186182Y184658D03*
D14*
X182372Y184658D03*
D18*
X176530Y184658D03*
D13*
X170561Y184658D03*
D18*
X164592Y184658D03*
D28*
X155575Y184658D03*
D17*
X145796Y184658D03*
X137922Y184658D03*
D15*
X130937Y184658D03*
X124841Y184658D03*
D16*
X118872Y184658D03*
D29*
X107315Y184658D03*
D20*
X93853Y184658D03*
D12*
X249809Y184912D03*
D13*
X194437Y184912D03*
D26*
X189611Y184912D03*
D30*
X186309Y184912D03*
D14*
X182372Y184912D03*
D18*
X176530Y184912D03*
D14*
X170434Y184912D03*
D18*
X164592Y184912D03*
D28*
X155575Y184912D03*
D17*
X145796Y184912D03*
X137922Y184912D03*
D15*
X130937Y184912D03*
X124841Y184912D03*
D16*
X118872Y184912D03*
D29*
X107315Y184912D03*
D19*
X93980Y184912D03*
D12*
X249809Y185166D03*
D13*
X194437Y185166D03*
D31*
X189738Y185166D03*
D30*
X186309Y185166D03*
D14*
X182372Y185166D03*
D21*
X176403Y185166D03*
D14*
X170434Y185166D03*
D18*
X164592Y185166D03*
D28*
X155575Y185166D03*
D17*
X145796Y185166D03*
X137922Y185166D03*
D15*
X130937Y185166D03*
X124841Y185166D03*
D16*
X118872Y185166D03*
D32*
X107442Y185166D03*
D19*
X93980Y185166D03*
D12*
X249809Y185420D03*
D13*
X194437Y185420D03*
D31*
X189738Y185420D03*
D30*
X186309Y185420D03*
D14*
X182372Y185420D03*
D21*
X176403Y185420D03*
D14*
X170434Y185420D03*
D18*
X164592Y185420D03*
D28*
X155575Y185420D03*
D17*
X145796Y185420D03*
X137922Y185420D03*
D16*
X131064Y185420D03*
D18*
X124968Y185420D03*
D16*
X118872Y185420D03*
D32*
X107442Y185420D03*
D19*
X93980Y185420D03*
D12*
X249809Y185674D03*
D13*
X194437Y185674D03*
D33*
X189865Y185674D03*
D34*
X186436Y185674D03*
D14*
X182372Y185674D03*
D21*
X176403Y185674D03*
D14*
X170434Y185674D03*
D18*
X164592Y185674D03*
D35*
X155829Y185674D03*
D17*
X145796Y185674D03*
X137922Y185674D03*
D18*
X124968Y185674D03*
D16*
X118872Y185674D03*
D36*
X107696Y185674D03*
D19*
X93980Y185674D03*
D12*
X249809Y185928D03*
D13*
X194437Y185928D03*
D37*
X189992Y185928D03*
D38*
X186563Y185928D03*
D14*
X182372Y185928D03*
D21*
X176403Y185928D03*
D14*
X170434Y185928D03*
D18*
X164592Y185928D03*
D39*
X156591Y185928D03*
D17*
X145796Y185928D03*
X137922Y185928D03*
D21*
X125095Y185928D03*
D16*
X118872Y185928D03*
D40*
X108458Y185928D03*
D19*
X93980Y185928D03*
D12*
X249809Y186182D03*
D13*
X194437Y186182D03*
D37*
X189992Y186182D03*
D38*
X186563Y186182D03*
D14*
X182372Y186182D03*
D21*
X176403Y186182D03*
D14*
X170434Y186182D03*
D18*
X164592Y186182D03*
D41*
X157988Y186182D03*
D42*
X145923Y186182D03*
D17*
X137922Y186182D03*
D43*
X125603Y186182D03*
D16*
X118872Y186182D03*
D44*
X107569Y186182D03*
D19*
X93980Y186182D03*
D12*
X249809Y186436D03*
D13*
X194437Y186436D03*
D45*
X190119Y186436D03*
D46*
X186690Y186436D03*
D14*
X182372Y186436D03*
D21*
X176403Y186436D03*
D14*
X170434Y186436D03*
D18*
X164592Y186436D03*
D15*
X158369Y186436D03*
D42*
X145923Y186436D03*
D17*
X137922Y186436D03*
D44*
X125349Y186436D03*
D16*
X118872Y186436D03*
D18*
X107950Y186436D03*
D47*
X94107Y186436D03*
D12*
X249809Y186690D03*
D13*
X194437Y186690D03*
D45*
X190119Y186690D03*
D46*
X186690Y186690D03*
D14*
X182372Y186690D03*
D21*
X176403Y186690D03*
D14*
X170434Y186690D03*
D18*
X164592Y186690D03*
D15*
X158369Y186690D03*
D48*
X146050Y186690D03*
D17*
X137922Y186690D03*
D21*
X125095Y186690D03*
D16*
X118872Y186690D03*
D18*
X107950Y186690D03*
D49*
X94234Y186690D03*
D12*
X249809Y186944D03*
D13*
X194437Y186944D03*
D46*
X190246Y186944D03*
X186690Y186944D03*
D14*
X182372Y186944D03*
D21*
X176403Y186944D03*
D14*
X170434Y186944D03*
D18*
X164592Y186944D03*
D16*
X158496Y186944D03*
D50*
X146304Y186944D03*
D17*
X137922Y186944D03*
D13*
X131191Y186944D03*
D18*
X124968Y186944D03*
D16*
X118872Y186944D03*
D15*
X108077Y186944D03*
D51*
X94488Y186944D03*
D12*
X249809Y187198D03*
D13*
X194437Y187198D03*
D46*
X190246Y187198D03*
D45*
X186817Y187198D03*
D14*
X182372Y187198D03*
D21*
X176403Y187198D03*
D14*
X170434Y187198D03*
D18*
X164592Y187198D03*
D13*
X158623Y187198D03*
D35*
X147447Y187198D03*
D17*
X137922Y187198D03*
D15*
X130937Y187198D03*
X124841Y187198D03*
D16*
X118872Y187198D03*
D15*
X108077Y187198D03*
D52*
X95631Y187198D03*
D12*
X249809Y187452D03*
D13*
X194437Y187452D03*
D38*
X190373Y187452D03*
D37*
X186944Y187452D03*
D14*
X182372Y187452D03*
D21*
X176403Y187452D03*
D14*
X170434Y187452D03*
D18*
X164592Y187452D03*
D13*
X158623Y187452D03*
D53*
X148209Y187452D03*
D17*
X137922Y187452D03*
D15*
X130937Y187452D03*
X124841Y187452D03*
D16*
X118872Y187452D03*
D47*
X110363Y187452D03*
D54*
X96520Y187452D03*
D12*
X249809Y187706D03*
D13*
X194437Y187706D03*
D38*
X190373Y187706D03*
D37*
X186944Y187706D03*
D14*
X182372Y187706D03*
D21*
X176403Y187706D03*
D14*
X170434Y187706D03*
D18*
X164592Y187706D03*
D13*
X158623Y187706D03*
D55*
X148844Y187706D03*
D17*
X137922Y187706D03*
D18*
X130810Y187706D03*
D16*
X124714Y187706D03*
X118872Y187706D03*
D19*
X110490Y187706D03*
D56*
X96901Y187706D03*
D12*
X249809Y187960D03*
D13*
X194437Y187960D03*
D34*
X190500Y187960D03*
D33*
X187071Y187960D03*
D14*
X182372Y187960D03*
D18*
X176530Y187960D03*
D14*
X170434Y187960D03*
D18*
X164592Y187960D03*
D13*
X158623Y187960D03*
D55*
X148844Y187960D03*
D17*
X137922Y187960D03*
D18*
X130810Y187960D03*
D16*
X124714Y187960D03*
X118872Y187960D03*
D19*
X110490Y187960D03*
D32*
X97028Y187960D03*
D12*
X249809Y188214D03*
D13*
X194437Y188214D03*
D34*
X190500Y188214D03*
D33*
X187071Y188214D03*
D14*
X182372Y188214D03*
D18*
X176530Y188214D03*
D14*
X170434Y188214D03*
D18*
X164592Y188214D03*
D13*
X158623Y188214D03*
D55*
X148844Y188214D03*
D17*
X137922Y188214D03*
D18*
X130810Y188214D03*
D16*
X124714Y188214D03*
X118872Y188214D03*
D19*
X110490Y188214D03*
D32*
X97028Y188214D03*
D12*
X249809Y188468D03*
D13*
X194437Y188468D03*
D30*
X190627Y188468D03*
D31*
X187198Y188468D03*
D14*
X182372Y188468D03*
D18*
X176530Y188468D03*
D13*
X170561Y188468D03*
D18*
X164592Y188468D03*
D13*
X158623Y188468D03*
D55*
X148844Y188468D03*
D17*
X137922Y188468D03*
D18*
X130810Y188468D03*
D16*
X124714Y188468D03*
X118872Y188468D03*
D19*
X110490Y188468D03*
D32*
X97028Y188468D03*
D12*
X249809Y188722D03*
D13*
X194437Y188722D03*
D30*
X190627Y188722D03*
D31*
X187198Y188722D03*
D14*
X182372Y188722D03*
D18*
X176530Y188722D03*
D13*
X170561Y188722D03*
D18*
X164592Y188722D03*
D13*
X158623Y188722D03*
D55*
X148844Y188722D03*
D17*
X137922Y188722D03*
D18*
X130810Y188722D03*
D16*
X124714Y188722D03*
X118872Y188722D03*
D19*
X110490Y188722D03*
D32*
X97028Y188722D03*
D12*
X249809Y188976D03*
D13*
X194437Y188976D03*
D27*
X190754Y188976D03*
D26*
X187325Y188976D03*
D14*
X182372Y188976D03*
D18*
X176530Y188976D03*
D13*
X170561Y188976D03*
D18*
X164592Y188976D03*
D13*
X158623Y188976D03*
D15*
X152781Y188976D03*
D42*
X145923Y188976D03*
D17*
X137922Y188976D03*
D18*
X130810Y188976D03*
D16*
X124714Y188976D03*
X118872Y188976D03*
D19*
X110490Y188976D03*
D15*
X102235Y188976D03*
D19*
X93980Y188976D03*
D12*
X249809Y189230D03*
D13*
X194437Y189230D03*
D27*
X190754Y189230D03*
D26*
X187325Y189230D03*
D14*
X182372Y189230D03*
D18*
X176530Y189230D03*
D13*
X170561Y189230D03*
D18*
X164592Y189230D03*
D13*
X158623Y189230D03*
D16*
X152908Y189230D03*
D42*
X145923Y189230D03*
D17*
X137922Y189230D03*
D18*
X130810Y189230D03*
D16*
X124714Y189230D03*
X118872Y189230D03*
D19*
X110490Y189230D03*
D15*
X102235Y189230D03*
D19*
X93980Y189230D03*
D12*
X249809Y189484D03*
D13*
X194437Y189484D03*
D27*
X190754Y189484D03*
D24*
X187452Y189484D03*
D14*
X182372Y189484D03*
D18*
X176530Y189484D03*
D13*
X170561Y189484D03*
D18*
X164592Y189484D03*
D13*
X158623Y189484D03*
D16*
X152908Y189484D03*
D42*
X145923Y189484D03*
D17*
X137922Y189484D03*
D18*
X130810Y189484D03*
D16*
X124714Y189484D03*
X118872Y189484D03*
D19*
X110490Y189484D03*
D15*
X102235Y189484D03*
D19*
X93980Y189484D03*
D12*
X249809Y189738D03*
D13*
X194437Y189738D03*
D22*
X187579Y189738D03*
D14*
X182372Y189738D03*
D18*
X176530Y189738D03*
D13*
X170561Y189738D03*
D18*
X164592Y189738D03*
D13*
X158623Y189738D03*
D16*
X152908Y189738D03*
D42*
X145923Y189738D03*
D17*
X137922Y189738D03*
D18*
X130810Y189738D03*
D16*
X124714Y189738D03*
X118872Y189738D03*
D19*
X110490Y189738D03*
D15*
X102235Y189738D03*
D19*
X93980Y189738D03*
D12*
X249809Y189992D03*
D13*
X194437Y189992D03*
D22*
X187579Y189992D03*
D14*
X182372Y189992D03*
D15*
X176657Y189992D03*
D16*
X170688Y189992D03*
D18*
X164592Y189992D03*
D13*
X158623Y189992D03*
D16*
X152908Y189992D03*
D42*
X145923Y189992D03*
D17*
X137922Y189992D03*
D15*
X130937Y189992D03*
D16*
X124714Y189992D03*
X118872Y189992D03*
D19*
X110490Y189992D03*
D15*
X102235Y189992D03*
D19*
X93980Y189992D03*
D12*
X249809Y190246D03*
D13*
X194437Y190246D03*
D22*
X187579Y190246D03*
D14*
X182372Y190246D03*
D16*
X176784Y190246D03*
X170688Y190246D03*
D18*
X164592Y190246D03*
D13*
X158623Y190246D03*
D16*
X152908Y190246D03*
D42*
X145923Y190246D03*
D17*
X137922Y190246D03*
D15*
X130937Y190246D03*
D16*
X124714Y190246D03*
X118872Y190246D03*
D47*
X110363Y190246D03*
D15*
X102235Y190246D03*
D19*
X93980Y190246D03*
D12*
X249809Y190500D03*
D13*
X194437Y190500D03*
D14*
X187706Y190500D03*
X182372Y190500D03*
D15*
X170815Y190500D03*
D18*
X164592Y190500D03*
D13*
X158623Y190500D03*
D26*
X147701Y190500D03*
X136271Y190500D03*
D15*
X124841Y190500D03*
D16*
X118872Y190500D03*
D14*
X107696Y190500D03*
D47*
X94107Y190500D03*
D12*
X249809Y190754D03*
D13*
X194437Y190754D03*
X187833Y190754D03*
D14*
X182372Y190754D03*
D15*
X170815Y190754D03*
D18*
X164592Y190754D03*
D16*
X158496Y190754D03*
D26*
X147701Y190754D03*
X136271Y190754D03*
D18*
X124968Y190754D03*
D16*
X118872Y190754D03*
D14*
X107696Y190754D03*
D47*
X94107Y190754D03*
D12*
X249809Y191008D03*
D13*
X194437Y191008D03*
X187833Y191008D03*
D14*
X182372Y191008D03*
D18*
X170942Y191008D03*
X164592Y191008D03*
D16*
X158496Y191008D03*
D24*
X147828Y191008D03*
D26*
X136271Y191008D03*
D18*
X124968Y191008D03*
D16*
X118872Y191008D03*
D14*
X107696Y191008D03*
D49*
X94234Y191008D03*
D12*
X249809Y191262D03*
D13*
X194437Y191262D03*
D16*
X187960Y191262D03*
D14*
X182372Y191262D03*
D41*
X171196Y191262D03*
D18*
X164592Y191262D03*
D15*
X158369Y191262D03*
D22*
X147955Y191262D03*
D26*
X136271Y191262D03*
D21*
X125095Y191262D03*
D16*
X118872Y191262D03*
D13*
X107569Y191262D03*
D49*
X94234Y191262D03*
D12*
X249809Y191516D03*
D13*
X194437Y191516D03*
D16*
X187960Y191516D03*
D14*
X182372Y191516D03*
D57*
X171450Y191516D03*
D18*
X164592Y191516D03*
D21*
X158115Y191516D03*
D14*
X148082Y191516D03*
D26*
X136271Y191516D03*
D41*
X125222Y191516D03*
D16*
X118872Y191516D03*
D15*
X107315Y191516D03*
D51*
X94488Y191516D03*
D12*
X249809Y191770D03*
D13*
X194437Y191770D03*
D15*
X188087Y191770D03*
D14*
X182372Y191770D03*
D42*
X171831Y191770D03*
D18*
X164592Y191770D03*
D44*
X157861Y191770D03*
D16*
X148336Y191770D03*
D26*
X136271Y191770D03*
D57*
X125476Y191770D03*
D16*
X118872Y191770D03*
D21*
X107061Y191770D03*
D58*
X94742Y191770D03*
D59*
X195580Y192024D03*
X195580Y192278D03*
X195580Y192532D03*
X195580Y192786D03*
X195580Y193040D03*
X195580Y193294D03*
D27*
X313436Y197866D03*
D26*
X98425Y197866D03*
X313309Y198120D03*
D19*
X291592Y198120D03*
D35*
X275463Y198120D03*
D50*
X256032Y198120D03*
D49*
X240538Y198120D03*
D19*
X222250Y198120D03*
D35*
X206375Y198120D03*
X193167Y198120D03*
X173355Y198120D03*
D60*
X143256Y198120D03*
D35*
X127381Y198120D03*
X114427Y198120D03*
D39*
X97917Y198120D03*
D13*
X313309Y198374D03*
D61*
X291592Y198374D03*
D35*
X275463Y198374D03*
D58*
X256286Y198374D03*
D49*
X240538Y198374D03*
D62*
X222377Y198374D03*
D35*
X206375Y198374D03*
X193167Y198374D03*
X173355Y198374D03*
D63*
X143256Y198374D03*
D35*
X127381Y198374D03*
X114427Y198374D03*
D64*
X97409Y198374D03*
D15*
X313309Y198628D03*
D55*
X291592Y198628D03*
D35*
X275463Y198628D03*
D65*
X256286Y198628D03*
D49*
X240538Y198628D03*
D55*
X222250Y198628D03*
D35*
X206375Y198628D03*
X193167Y198628D03*
X173355Y198628D03*
D62*
X143383Y198628D03*
D35*
X127381Y198628D03*
X114427Y198628D03*
D62*
X97409Y198628D03*
D41*
X313436Y198882D03*
D54*
X291592Y198882D03*
D35*
X275463Y198882D03*
D66*
X256413Y198882D03*
D49*
X240538Y198882D03*
D54*
X222250Y198882D03*
D35*
X206375Y198882D03*
X193167Y198882D03*
X173355Y198882D03*
D67*
X143383Y198882D03*
D35*
X127381Y198882D03*
X114427Y198882D03*
D67*
X97155Y198882D03*
D43*
X313309Y199136D03*
D32*
X291592Y199136D03*
D35*
X275463Y199136D03*
D54*
X256540Y199136D03*
D49*
X240538Y199136D03*
D32*
X222250Y199136D03*
D35*
X206375Y199136D03*
X193167Y199136D03*
X173355Y199136D03*
D68*
X143383Y199136D03*
D35*
X127381Y199136D03*
X114427Y199136D03*
D56*
X96901Y199136D03*
D42*
X313563Y199390D03*
D29*
X291465Y199390D03*
D35*
X275463Y199390D03*
D68*
X256413Y199390D03*
D49*
X240538Y199390D03*
D69*
X222250Y199390D03*
D35*
X206375Y199390D03*
X193167Y199390D03*
X173355Y199390D03*
D56*
X143383Y199390D03*
D35*
X127381Y199390D03*
X114427Y199390D03*
D56*
X96901Y199390D03*
D70*
X313563Y199644D03*
D71*
X291465Y199644D03*
D35*
X275463Y199644D03*
D29*
X256413Y199644D03*
D49*
X240538Y199644D03*
D71*
X222123Y199644D03*
D35*
X206375Y199644D03*
X193167Y199644D03*
X173355Y199644D03*
D69*
X143256Y199644D03*
D35*
X127381Y199644D03*
X114427Y199644D03*
D29*
X97155Y199644D03*
D72*
X313817Y199898D03*
D73*
X291338Y199898D03*
D35*
X275463Y199898D03*
D74*
X256286Y199898D03*
D49*
X240538Y199898D03*
D73*
X221996Y199898D03*
D35*
X206375Y199898D03*
X193167Y199898D03*
X173355Y199898D03*
D74*
X143256Y199898D03*
D35*
X127381Y199898D03*
X114427Y199898D03*
D69*
X97282Y199898D03*
D39*
X313817Y200152D03*
D75*
X291211Y200152D03*
D35*
X275463Y200152D03*
D76*
X256286Y200152D03*
D49*
X240538Y200152D03*
D75*
X222123Y200152D03*
D35*
X206375Y200152D03*
X193167Y200152D03*
X173355Y200152D03*
D76*
X143256Y200152D03*
D35*
X127381Y200152D03*
X114427Y200152D03*
D69*
X97282Y200152D03*
D77*
X313944Y200406D03*
D78*
X291338Y200406D03*
D35*
X275463Y200406D03*
D73*
X256286Y200406D03*
D49*
X240538Y200406D03*
D78*
X221996Y200406D03*
D35*
X206375Y200406D03*
X193167Y200406D03*
X173355Y200406D03*
D73*
X143256Y200406D03*
D35*
X127381Y200406D03*
X114427Y200406D03*
D79*
X97409Y200406D03*
D47*
X314071Y200660D03*
D80*
X291084Y200660D03*
D35*
X275463Y200660D03*
D81*
X256159Y200660D03*
D49*
X240538Y200660D03*
D80*
X221742Y200660D03*
D35*
X206375Y200660D03*
X193167Y200660D03*
X173355Y200660D03*
D81*
X143129Y200660D03*
D35*
X127381Y200660D03*
X114427Y200660D03*
D74*
X97536Y200660D03*
D47*
X314071Y200914D03*
D82*
X290957Y200914D03*
D35*
X275463Y200914D03*
D81*
X256159Y200914D03*
D49*
X240538Y200914D03*
D82*
X221615Y200914D03*
D35*
X206375Y200914D03*
X193167Y200914D03*
X173355Y200914D03*
D78*
X143002Y200914D03*
D35*
X127381Y200914D03*
X114427Y200914D03*
D74*
X97536Y200914D03*
D35*
X314325Y201168D03*
D83*
X290957Y201168D03*
D35*
X275463Y201168D03*
D80*
X256032Y201168D03*
D49*
X240538Y201168D03*
D83*
X221615Y201168D03*
D35*
X206375Y201168D03*
X193167Y201168D03*
X173355Y201168D03*
D80*
X143002Y201168D03*
D35*
X127381Y201168D03*
X114427Y201168D03*
D71*
X97663Y201168D03*
D28*
X314579Y201422D03*
D84*
X290703Y201422D03*
D35*
X275463Y201422D03*
D85*
X256032Y201422D03*
D49*
X240538Y201422D03*
D86*
X221488Y201422D03*
D35*
X206375Y201422D03*
X193167Y201422D03*
X173355Y201422D03*
D85*
X142748Y201422D03*
D35*
X127381Y201422D03*
X114427Y201422D03*
D71*
X97663Y201422D03*
D58*
X314706Y201676D03*
D86*
X290830Y201676D03*
D35*
X275463Y201676D03*
D84*
X255905Y201676D03*
D49*
X240538Y201676D03*
D86*
X221488Y201676D03*
D35*
X206375Y201676D03*
X193167Y201676D03*
X173355Y201676D03*
D83*
X142875Y201676D03*
D35*
X127381Y201676D03*
X114427Y201676D03*
D71*
X97663Y201676D03*
D63*
X314960Y201930D03*
D87*
X285877Y201930D03*
D86*
X255778Y201930D03*
D49*
X240538Y201930D03*
D88*
X216535Y201930D03*
D35*
X193167Y201930D03*
X173355Y201930D03*
D84*
X142621Y201930D03*
D35*
X127381Y201930D03*
X114427Y201930D03*
D71*
X97663Y201930D03*
D53*
X315087Y202184D03*
D87*
X285877Y202184D03*
D89*
X255778Y202184D03*
D49*
X240538Y202184D03*
D90*
X216662Y202184D03*
D35*
X193167Y202184D03*
X173355Y202184D03*
D91*
X142621Y202184D03*
D35*
X127381Y202184D03*
X114427Y202184D03*
D76*
X97790Y202184D03*
D65*
X315214Y202438D03*
D87*
X285877Y202438D03*
D90*
X250952Y202438D03*
X216662Y202438D03*
D35*
X193167Y202438D03*
X173355Y202438D03*
D90*
X137668Y202438D03*
D35*
X114427Y202438D03*
D76*
X97790Y202438D03*
D61*
X315468Y202692D03*
D87*
X285877Y202692D03*
D90*
X250952Y202692D03*
X216662Y202692D03*
D35*
X193167Y202692D03*
X173355Y202692D03*
D90*
X137668Y202692D03*
D35*
X114427Y202692D03*
D76*
X97790Y202692D03*
D61*
X315468Y202946D03*
D87*
X285877Y202946D03*
D90*
X250952Y202946D03*
X216662Y202946D03*
D35*
X193167Y202946D03*
X173355Y202946D03*
D90*
X137668Y202946D03*
D35*
X114427Y202946D03*
D76*
X97790Y202946D03*
D55*
X315722Y203200D03*
D92*
X286004Y203200D03*
D87*
X251079Y203200D03*
X216789Y203200D03*
D35*
X193167Y203200D03*
X173355Y203200D03*
D87*
X137795Y203200D03*
D35*
X114427Y203200D03*
D76*
X97790Y203200D03*
D40*
X315976Y203454D03*
D92*
X286004Y203454D03*
X251206Y203454D03*
D87*
X216789Y203454D03*
D35*
X193167Y203454D03*
X173355Y203454D03*
D87*
X137795Y203454D03*
D35*
X114427Y203454D03*
D93*
X97917Y203454D03*
D67*
X316103Y203708D03*
D92*
X286004Y203708D03*
X251206Y203708D03*
D87*
X216789Y203708D03*
D35*
X193167Y203708D03*
X173355Y203708D03*
D87*
X137795Y203708D03*
D35*
X114427Y203708D03*
D93*
X97917Y203708D03*
D94*
X316230Y203962D03*
D92*
X286004Y203962D03*
X251206Y203962D03*
D87*
X216789Y203962D03*
D35*
X193167Y203962D03*
X173355Y203962D03*
D87*
X137795Y203962D03*
D35*
X114427Y203962D03*
D93*
X97917Y203962D03*
D54*
X316484Y204216D03*
D92*
X286004Y204216D03*
X251206Y204216D03*
X216916Y204216D03*
D35*
X193167Y204216D03*
X173355Y204216D03*
D87*
X137795Y204216D03*
D35*
X114427Y204216D03*
D93*
X97917Y204216D03*
D68*
X316611Y204470D03*
D92*
X286004Y204470D03*
X251206Y204470D03*
X216916Y204470D03*
D35*
X193167Y204470D03*
X173355Y204470D03*
D87*
X137795Y204470D03*
D35*
X114427Y204470D03*
D93*
X97917Y204470D03*
D36*
X316738Y204724D03*
D92*
X286004Y204724D03*
D95*
X251333Y204724D03*
D92*
X216916Y204724D03*
D35*
X193167Y204724D03*
X173355Y204724D03*
D87*
X137795Y204724D03*
D35*
X114427Y204724D03*
D93*
X97917Y204724D03*
D32*
X316992Y204978D03*
D64*
X296037Y204978D03*
D36*
X277876Y204978D03*
D95*
X251333Y204978D03*
D64*
X226949Y204978D03*
D68*
X208661Y204978D03*
D35*
X193167Y204978D03*
X173355Y204978D03*
D87*
X137795Y204978D03*
D35*
X114427Y204978D03*
D93*
X97917Y204978D03*
D29*
X317119Y205232D03*
D28*
X296291Y205232D03*
D94*
X277368Y205232D03*
D95*
X251333Y205232D03*
D58*
X227076Y205232D03*
D94*
X208280Y205232D03*
D35*
X193167Y205232D03*
X173355Y205232D03*
D87*
X137795Y205232D03*
D35*
X114427Y205232D03*
D93*
X97917Y205232D03*
D69*
X317246Y205486D03*
D51*
X296672Y205486D03*
D55*
X276860Y205486D03*
D95*
X251333Y205486D03*
D51*
X227330Y205486D03*
D52*
X207645Y205486D03*
D35*
X193167Y205486D03*
X173355Y205486D03*
D92*
X137922Y205486D03*
D35*
X114427Y205486D03*
D93*
X97917Y205486D03*
D74*
X317500Y205740D03*
D35*
X296799Y205740D03*
D62*
X276479Y205740D03*
D95*
X251333Y205740D03*
D35*
X227457Y205740D03*
D65*
X207264Y205740D03*
D35*
X193167Y205740D03*
X173355Y205740D03*
D92*
X137922Y205740D03*
D35*
X114427Y205740D03*
D53*
X100711Y205740D03*
D71*
X317627Y205994D03*
D35*
X296799Y205994D03*
D65*
X276352Y205994D03*
X261112Y205994D03*
D67*
X242443Y205994D03*
D35*
X227457Y205994D03*
D53*
X207137Y205994D03*
D35*
X193167Y205994D03*
X173355Y205994D03*
D65*
X147574Y205994D03*
D67*
X129159Y205994D03*
D35*
X114427Y205994D03*
D58*
X101092Y205994D03*
D76*
X317754Y206248D03*
D49*
X296926Y206248D03*
D64*
X275971Y206248D03*
D58*
X261620Y206248D03*
D61*
X241808Y206248D03*
D49*
X227584Y206248D03*
D58*
X206756Y206248D03*
D35*
X193167Y206248D03*
X173355Y206248D03*
D64*
X147955Y206248D03*
D52*
X128651Y206248D03*
D35*
X114427Y206248D03*
D28*
X101219Y206248D03*
D73*
X318008Y206502D03*
D49*
X296926Y206502D03*
D28*
X275717Y206502D03*
X261747Y206502D03*
D63*
X241300Y206502D03*
D49*
X227584Y206502D03*
D51*
X206502Y206502D03*
D35*
X193167Y206502D03*
X173355Y206502D03*
D58*
X148082Y206502D03*
D53*
X128143Y206502D03*
D35*
X114427Y206502D03*
D51*
X101346Y206502D03*
D75*
X318135Y206756D03*
D49*
X296926Y206756D03*
D35*
X275463Y206756D03*
D28*
X262001Y206756D03*
D64*
X241173Y206756D03*
D49*
X227584Y206756D03*
D35*
X206375Y206756D03*
X193167Y206756D03*
X173355Y206756D03*
D28*
X148209Y206756D03*
D64*
X127889Y206756D03*
D35*
X114427Y206756D03*
D51*
X101346Y206756D03*
D46*
X370840Y207010D03*
D81*
X318389Y207010D03*
D49*
X296926Y207010D03*
D35*
X275463Y207010D03*
D28*
X262001Y207010D03*
D51*
X240792Y207010D03*
D47*
X227711Y207010D03*
D35*
X206375Y207010D03*
X193167Y207010D03*
X173355Y207010D03*
D28*
X148209Y207010D03*
D51*
X127508Y207010D03*
D35*
X114427Y207010D03*
D51*
X101346Y207010D03*
D14*
X370586Y207264D03*
D78*
X318516Y207264D03*
D49*
X296926Y207264D03*
D35*
X275463Y207264D03*
D51*
X262128Y207264D03*
D49*
X240538Y207264D03*
D47*
X227711Y207264D03*
D35*
X206375Y207264D03*
X193167Y207264D03*
X173355Y207264D03*
D51*
X148336Y207264D03*
D35*
X127381Y207264D03*
X114427Y207264D03*
X101473Y207264D03*
D15*
X370713Y207518D03*
D96*
X318643Y207518D03*
D49*
X296926Y207518D03*
D35*
X275463Y207518D03*
D51*
X262128Y207518D03*
D49*
X240538Y207518D03*
D47*
X227711Y207518D03*
D35*
X206375Y207518D03*
X193167Y207518D03*
X173355Y207518D03*
D51*
X148336Y207518D03*
D35*
X127381Y207518D03*
X114427Y207518D03*
X101473Y207518D03*
D57*
X370332Y207772D03*
D82*
X318897Y207772D03*
D49*
X296926Y207772D03*
D35*
X275463Y207772D03*
D51*
X262128Y207772D03*
D49*
X240538Y207772D03*
D47*
X227711Y207772D03*
D35*
X206375Y207772D03*
X193167Y207772D03*
X173355Y207772D03*
D51*
X148336Y207772D03*
D35*
X127381Y207772D03*
X114427Y207772D03*
X101473Y207772D03*
D70*
X369951Y208026D03*
D83*
X319151Y208026D03*
D49*
X296926Y208026D03*
D35*
X275463Y208026D03*
X262255Y208026D03*
D49*
X240538Y208026D03*
D47*
X227711Y208026D03*
D35*
X206375Y208026D03*
X193167Y208026D03*
X173355Y208026D03*
D51*
X148336Y208026D03*
D35*
X127381Y208026D03*
X114427Y208026D03*
X101473Y208026D03*
D60*
X369824Y208280D03*
D83*
X319151Y208280D03*
D49*
X296926Y208280D03*
D35*
X275463Y208280D03*
X262255Y208280D03*
D49*
X240538Y208280D03*
D47*
X227711Y208280D03*
D35*
X206375Y208280D03*
X193167Y208280D03*
X173355Y208280D03*
D51*
X148336Y208280D03*
D35*
X127381Y208280D03*
X114427Y208280D03*
X101473Y208280D03*
D47*
X369443Y208534D03*
D84*
X319405Y208534D03*
D49*
X296926Y208534D03*
D35*
X275463Y208534D03*
X262509Y208534D03*
D49*
X240538Y208534D03*
D47*
X227711Y208534D03*
D35*
X206375Y208534D03*
X193167Y208534D03*
X173355Y208534D03*
X148463Y208534D03*
X127381Y208534D03*
X114427Y208534D03*
X101473Y208534D03*
D51*
X369062Y208788D03*
D86*
X319532Y208788D03*
D49*
X296926Y208788D03*
D35*
X275463Y208788D03*
X262509Y208788D03*
D49*
X240538Y208788D03*
D47*
X227711Y208788D03*
D35*
X206375Y208788D03*
X193167Y208788D03*
X173355Y208788D03*
X148463Y208788D03*
X127381Y208788D03*
X114427Y208788D03*
X101473Y208788D03*
D64*
X368935Y209042D03*
D91*
X319659Y209042D03*
D49*
X296926Y209042D03*
D35*
X275463Y209042D03*
X262509Y209042D03*
D49*
X240538Y209042D03*
D47*
X227711Y209042D03*
D35*
X206375Y209042D03*
X193167Y209042D03*
X173355Y209042D03*
X148463Y209042D03*
X127381Y209042D03*
X114427Y209042D03*
X101473Y209042D03*
D62*
X368427Y209296D03*
D97*
X319913Y209296D03*
D49*
X296926Y209296D03*
D35*
X275463Y209296D03*
X262509Y209296D03*
D49*
X240538Y209296D03*
D47*
X227711Y209296D03*
D35*
X206375Y209296D03*
X193167Y209296D03*
X173355Y209296D03*
X148463Y209296D03*
X127381Y209296D03*
X114427Y209296D03*
X101473Y209296D03*
D66*
X368173Y209550D03*
D98*
X320040Y209550D03*
D47*
X296799Y209550D03*
D35*
X275463Y209550D03*
X262509Y209550D03*
D49*
X240538Y209550D03*
D47*
X227711Y209550D03*
D35*
X206375Y209550D03*
X193167Y209550D03*
X173355Y209550D03*
X148463Y209550D03*
X127381Y209550D03*
X114427Y209550D03*
X101473Y209550D03*
D67*
X367919Y209804D03*
D99*
X320294Y209804D03*
D47*
X296799Y209804D03*
D35*
X275463Y209804D03*
X262509Y209804D03*
D49*
X240538Y209804D03*
D47*
X227711Y209804D03*
D35*
X206375Y209804D03*
X193167Y209804D03*
X173355Y209804D03*
X148463Y209804D03*
X127381Y209804D03*
X114427Y209804D03*
X101473Y209804D03*
D68*
X367411Y210058D03*
D100*
X320421Y210058D03*
D47*
X296799Y210058D03*
D35*
X275463Y210058D03*
X262509Y210058D03*
D49*
X240538Y210058D03*
X227584Y210058D03*
D35*
X206375Y210058D03*
X193167Y210058D03*
X173355Y210058D03*
X148463Y210058D03*
X127381Y210058D03*
X114427Y210058D03*
X101473Y210058D03*
D32*
X367030Y210312D03*
D101*
X320675Y210312D03*
D47*
X296799Y210312D03*
D35*
X275463Y210312D03*
X262509Y210312D03*
D49*
X240538Y210312D03*
X227584Y210312D03*
D35*
X206375Y210312D03*
X193167Y210312D03*
X173355Y210312D03*
X148463Y210312D03*
X127381Y210312D03*
X114427Y210312D03*
X101473Y210312D03*
D69*
X366776Y210566D03*
D101*
X320675Y210566D03*
D47*
X296799Y210566D03*
D35*
X275463Y210566D03*
X262509Y210566D03*
D49*
X240538Y210566D03*
X227584Y210566D03*
D35*
X206375Y210566D03*
X193167Y210566D03*
X173355Y210566D03*
X148463Y210566D03*
X127381Y210566D03*
X114427Y210566D03*
X101473Y210566D03*
D76*
X366268Y210820D03*
D102*
X320802Y210820D03*
D49*
X296672Y210820D03*
D35*
X275463Y210820D03*
X262509Y210820D03*
D49*
X240538Y210820D03*
D35*
X227457Y210820D03*
X206375Y210820D03*
X193167Y210820D03*
X173355Y210820D03*
X148463Y210820D03*
X127381Y210820D03*
X114427Y210820D03*
X101473Y210820D03*
D75*
X365887Y211074D03*
D103*
X321056Y211074D03*
D49*
X296672Y211074D03*
D35*
X275463Y211074D03*
X262509Y211074D03*
D49*
X240538Y211074D03*
D35*
X227457Y211074D03*
X206375Y211074D03*
X193167Y211074D03*
X173355Y211074D03*
X148463Y211074D03*
X127381Y211074D03*
X114427Y211074D03*
X101473Y211074D03*
D81*
X365633Y211328D03*
D103*
X321056Y211328D03*
D35*
X296545Y211328D03*
X275463Y211328D03*
X262509Y211328D03*
D49*
X240538Y211328D03*
D35*
X227203Y211328D03*
X206375Y211328D03*
X193167Y211328D03*
X173355Y211328D03*
X148463Y211328D03*
X127381Y211328D03*
X114427Y211328D03*
X101473Y211328D03*
D82*
X365125Y211582D03*
D104*
X321310Y211582D03*
D51*
X296418Y211582D03*
D35*
X275463Y211582D03*
X262509Y211582D03*
D49*
X240538Y211582D03*
D51*
X227076Y211582D03*
D35*
X206375Y211582D03*
X193167Y211582D03*
X173355Y211582D03*
X148463Y211582D03*
X127381Y211582D03*
X114427Y211582D03*
X101473Y211582D03*
D83*
X364617Y211836D03*
D105*
X321437Y211836D03*
D64*
X296037Y211836D03*
D35*
X275463Y211836D03*
X262509Y211836D03*
D49*
X240538Y211836D03*
D58*
X226822Y211836D03*
D35*
X206375Y211836D03*
X193167Y211836D03*
X173355Y211836D03*
X148463Y211836D03*
X127381Y211836D03*
X114427Y211836D03*
X101473Y211836D03*
D84*
X364363Y212090D03*
D106*
X321564Y212090D03*
D53*
X295783Y212090D03*
D35*
X275463Y212090D03*
X262509Y212090D03*
D49*
X240538Y212090D03*
D53*
X226441Y212090D03*
D35*
X206375Y212090D03*
X193167Y212090D03*
X173355Y212090D03*
X148463Y212090D03*
X127381Y212090D03*
X114427Y212090D03*
X101473Y212090D03*
D97*
X363855Y212344D03*
D107*
X321691Y212344D03*
D87*
X285877Y212344D03*
D35*
X262509Y212344D03*
D49*
X240538Y212344D03*
D90*
X216662Y212344D03*
D35*
X193167Y212344D03*
X173355Y212344D03*
X148463Y212344D03*
X127381Y212344D03*
X114427Y212344D03*
X101473Y212344D03*
D108*
X363347Y212598D03*
D109*
X321818Y212598D03*
D87*
X285877Y212598D03*
D35*
X262509Y212598D03*
D49*
X240538Y212598D03*
D90*
X216662Y212598D03*
D35*
X193167Y212598D03*
X173355Y212598D03*
X148463Y212598D03*
X127381Y212598D03*
X114427Y212598D03*
X101473Y212598D03*
D100*
X363093Y212852D03*
D109*
X321818Y212852D03*
D87*
X285877Y212852D03*
D35*
X262509Y212852D03*
D49*
X240538Y212852D03*
D90*
X216662Y212852D03*
D35*
X193167Y212852D03*
X173355Y212852D03*
X148463Y212852D03*
X127381Y212852D03*
X114427Y212852D03*
X101473Y212852D03*
D110*
X362585Y213106D03*
D111*
X322072Y213106D03*
D87*
X285877Y213106D03*
D35*
X262509Y213106D03*
D49*
X240538Y213106D03*
D90*
X216662Y213106D03*
D35*
X193167Y213106D03*
X173355Y213106D03*
X148463Y213106D03*
X127381Y213106D03*
X114427Y213106D03*
X101473Y213106D03*
D104*
X362204Y213360D03*
D112*
X322199Y213360D03*
D90*
X285750Y213360D03*
D35*
X262509Y213360D03*
D49*
X240538Y213360D03*
D88*
X216535Y213360D03*
D35*
X193167Y213360D03*
X173355Y213360D03*
X148463Y213360D03*
X127381Y213360D03*
X114427Y213360D03*
X101473Y213360D03*
D105*
X361823Y213614D03*
D112*
X322199Y213614D03*
D90*
X285750Y213614D03*
D35*
X262509Y213614D03*
D49*
X240538Y213614D03*
D88*
X216535Y213614D03*
D35*
X193167Y213614D03*
X173355Y213614D03*
X148463Y213614D03*
X127381Y213614D03*
X114427Y213614D03*
X101473Y213614D03*
D107*
X361569Y213868D03*
D113*
X322326Y213868D03*
D88*
X285623Y213868D03*
D35*
X262509Y213868D03*
D49*
X240538Y213868D03*
D88*
X216535Y213868D03*
D35*
X193167Y213868D03*
X173355Y213868D03*
X148463Y213868D03*
X127381Y213868D03*
X114427Y213868D03*
X101473Y213868D03*
D114*
X361315Y214122D03*
D115*
X322453Y214122D03*
D88*
X285623Y214122D03*
D35*
X262509Y214122D03*
D49*
X240538Y214122D03*
D116*
X216408Y214122D03*
D35*
X193167Y214122D03*
X173355Y214122D03*
X148463Y214122D03*
X127381Y214122D03*
X114427Y214122D03*
X101473Y214122D03*
D112*
X361061Y214376D03*
D117*
X322580Y214376D03*
D88*
X285623Y214376D03*
D35*
X262509Y214376D03*
D49*
X240538Y214376D03*
D116*
X216408Y214376D03*
D35*
X193167Y214376D03*
X173355Y214376D03*
X148463Y214376D03*
X127381Y214376D03*
X114427Y214376D03*
X101473Y214376D03*
D113*
X360680Y214630D03*
D117*
X322580Y214630D03*
D116*
X285496Y214630D03*
D35*
X262509Y214630D03*
D49*
X240538Y214630D03*
D118*
X216281Y214630D03*
D35*
X193167Y214630D03*
X173355Y214630D03*
X148463Y214630D03*
X127381Y214630D03*
X114427Y214630D03*
X101473Y214630D03*
D117*
X360172Y214884D03*
D119*
X322707Y214884D03*
D116*
X285496Y214884D03*
D35*
X262509Y214884D03*
D49*
X240538Y214884D03*
D118*
X216281Y214884D03*
D35*
X193167Y214884D03*
X173355Y214884D03*
X148463Y214884D03*
X127381Y214884D03*
X114427Y214884D03*
X101473Y214884D03*
D117*
X360172Y215138D03*
D120*
X322834Y215138D03*
D118*
X285369Y215138D03*
D35*
X262509Y215138D03*
D49*
X240538Y215138D03*
D121*
X216154Y215138D03*
D35*
X193167Y215138D03*
X173355Y215138D03*
X148463Y215138D03*
X127381Y215138D03*
X114427Y215138D03*
X101473Y215138D03*
D120*
X359918Y215392D03*
X322834Y215392D03*
D121*
X285242Y215392D03*
D35*
X262509Y215392D03*
D49*
X240538Y215392D03*
D122*
X216027Y215392D03*
D35*
X193167Y215392D03*
X173355Y215392D03*
X148463Y215392D03*
X127381Y215392D03*
X114427Y215392D03*
X101473Y215392D03*
D123*
X359664Y215646D03*
D124*
X322961Y215646D03*
D122*
X285115Y215646D03*
D35*
X262509Y215646D03*
D49*
X240538Y215646D03*
D125*
X215900Y215646D03*
D35*
X193167Y215646D03*
X173355Y215646D03*
X148463Y215646D03*
X127381Y215646D03*
X114427Y215646D03*
X101473Y215646D03*
D123*
X359410Y215900D03*
D124*
X322961Y215900D03*
D122*
X285115Y215900D03*
D35*
X262509Y215900D03*
D49*
X240538Y215900D03*
D125*
X215900Y215900D03*
D35*
X193167Y215900D03*
X173355Y215900D03*
X148463Y215900D03*
X127381Y215900D03*
X114427Y215900D03*
X101473Y215900D03*
D126*
X359156Y216154D03*
D127*
X323215Y216154D03*
D128*
X284861Y216154D03*
D35*
X262509Y216154D03*
D49*
X240538Y216154D03*
D128*
X215773Y216154D03*
D35*
X193167Y216154D03*
X173355Y216154D03*
X148463Y216154D03*
X127381Y216154D03*
X114427Y216154D03*
X101473Y216154D03*
D129*
X359029Y216408D03*
D127*
X323215Y216408D03*
D130*
X284734Y216408D03*
D35*
X262509Y216408D03*
D49*
X240538Y216408D03*
D129*
X215519Y216408D03*
D35*
X193167Y216408D03*
X173355Y216408D03*
X148463Y216408D03*
X127381Y216408D03*
X114427Y216408D03*
X101473Y216408D03*
D130*
X358902Y216662D03*
D127*
X323215Y216662D03*
D129*
X284607Y216662D03*
D35*
X262509Y216662D03*
D49*
X240538Y216662D03*
D126*
X215392Y216662D03*
D35*
X193167Y216662D03*
X173355Y216662D03*
X148463Y216662D03*
X127381Y216662D03*
X114427Y216662D03*
X101473Y216662D03*
D130*
X358648Y216916D03*
D126*
X323342Y216916D03*
D127*
X284353Y216916D03*
D35*
X262509Y216916D03*
D49*
X240538Y216916D03*
D123*
X215138Y216916D03*
D35*
X193167Y216916D03*
X173355Y216916D03*
X148463Y216916D03*
X127381Y216916D03*
X114427Y216916D03*
X101473Y216916D03*
D128*
X358521Y217170D03*
D126*
X323342Y217170D03*
D124*
X284099Y217170D03*
D35*
X262509Y217170D03*
D49*
X240538Y217170D03*
D124*
X215011Y217170D03*
D35*
X193167Y217170D03*
X173355Y217170D03*
X148463Y217170D03*
X127381Y217170D03*
X114427Y217170D03*
X101473Y217170D03*
D125*
X358140Y217424D03*
D129*
X323469Y217424D03*
D29*
X289179Y217424D03*
D35*
X275463Y217424D03*
X262509Y217424D03*
D49*
X240538Y217424D03*
D69*
X219964Y217424D03*
D35*
X206375Y217424D03*
X193167Y217424D03*
X173355Y217424D03*
X148463Y217424D03*
X127381Y217424D03*
X114427Y217424D03*
X101473Y217424D03*
D122*
X358013Y217678D03*
D130*
X323596Y217678D03*
D52*
X289687Y217678D03*
D35*
X275463Y217678D03*
X262509Y217678D03*
D49*
X240538Y217678D03*
D52*
X220345Y217678D03*
D35*
X206375Y217678D03*
X193167Y217678D03*
X173355Y217678D03*
X148463Y217678D03*
X127381Y217678D03*
X114427Y217678D03*
X101473Y217678D03*
D121*
X357886Y217932D03*
D130*
X323596Y217932D03*
D51*
X289814Y217932D03*
D35*
X275463Y217932D03*
X262509Y217932D03*
D49*
X240538Y217932D03*
D35*
X220599Y217932D03*
X206375Y217932D03*
X193167Y217932D03*
X173355Y217932D03*
X148463Y217932D03*
X127381Y217932D03*
X114427Y217932D03*
X101473Y217932D03*
D121*
X357632Y218186D03*
D130*
X323596Y218186D03*
D35*
X275463Y218186D03*
X262509Y218186D03*
D49*
X240538Y218186D03*
D35*
X206375Y218186D03*
X193167Y218186D03*
X173355Y218186D03*
X148463Y218186D03*
X127381Y218186D03*
X114427Y218186D03*
X101473Y218186D03*
D118*
X357505Y218440D03*
D128*
X323723Y218440D03*
D35*
X275463Y218440D03*
X262509Y218440D03*
D49*
X240538Y218440D03*
D35*
X206375Y218440D03*
X193167Y218440D03*
X173355Y218440D03*
X148463Y218440D03*
X127381Y218440D03*
X114427Y218440D03*
X101473Y218440D03*
D116*
X357378Y218694D03*
D128*
X323723Y218694D03*
D35*
X275463Y218694D03*
X262509Y218694D03*
D49*
X240538Y218694D03*
D35*
X206375Y218694D03*
X193167Y218694D03*
X173355Y218694D03*
X148463Y218694D03*
X127381Y218694D03*
X114427Y218694D03*
X101473Y218694D03*
D116*
X357378Y218948D03*
D128*
X323723Y218948D03*
D35*
X275463Y218948D03*
X262509Y218948D03*
D49*
X240538Y218948D03*
D35*
X206375Y218948D03*
X193167Y218948D03*
X173355Y218948D03*
X148463Y218948D03*
X127381Y218948D03*
X114427Y218948D03*
X101473Y218948D03*
D116*
X357124Y219202D03*
D125*
X323850Y219202D03*
D35*
X275463Y219202D03*
X262509Y219202D03*
D49*
X240538Y219202D03*
D35*
X206375Y219202D03*
X193167Y219202D03*
X173355Y219202D03*
X148463Y219202D03*
X127381Y219202D03*
X114427Y219202D03*
X101473Y219202D03*
D88*
X356997Y219456D03*
D125*
X323850Y219456D03*
D35*
X275463Y219456D03*
X262509Y219456D03*
D49*
X240538Y219456D03*
D35*
X206375Y219456D03*
X193167Y219456D03*
X173355Y219456D03*
X148463Y219456D03*
X127381Y219456D03*
X114427Y219456D03*
X101473Y219456D03*
D88*
X356743Y219710D03*
D122*
X323977Y219710D03*
D35*
X275463Y219710D03*
X262509Y219710D03*
D49*
X240538Y219710D03*
D35*
X206375Y219710D03*
X193167Y219710D03*
X173355Y219710D03*
X148463Y219710D03*
X127381Y219710D03*
X114427Y219710D03*
X101473Y219710D03*
D90*
X356616Y219964D03*
D122*
X323977Y219964D03*
D35*
X275463Y219964D03*
X262509Y219964D03*
D49*
X240538Y219964D03*
D35*
X206375Y219964D03*
X193167Y219964D03*
X173355Y219964D03*
X148463Y219964D03*
X127381Y219964D03*
X114427Y219964D03*
X101473Y219964D03*
D90*
X356616Y220218D03*
D122*
X323977Y220218D03*
D35*
X275463Y220218D03*
X262509Y220218D03*
D49*
X240538Y220218D03*
D35*
X206375Y220218D03*
X193167Y220218D03*
X173355Y220218D03*
X148463Y220218D03*
X127381Y220218D03*
X114427Y220218D03*
X101473Y220218D03*
D90*
X356362Y220472D03*
D122*
X323977Y220472D03*
D35*
X275463Y220472D03*
X262509Y220472D03*
D49*
X240538Y220472D03*
D35*
X206375Y220472D03*
X193167Y220472D03*
X173355Y220472D03*
X148463Y220472D03*
X127381Y220472D03*
X114427Y220472D03*
X101473Y220472D03*
D87*
X356235Y220726D03*
D121*
X324104Y220726D03*
D35*
X275463Y220726D03*
X262509Y220726D03*
D49*
X240538Y220726D03*
D35*
X206375Y220726D03*
X193167Y220726D03*
X173355Y220726D03*
X148463Y220726D03*
X127381Y220726D03*
X114427Y220726D03*
X101473Y220726D03*
D87*
X356235Y220980D03*
D121*
X324104Y220980D03*
D35*
X275463Y220980D03*
X262509Y220980D03*
D49*
X240538Y220980D03*
D35*
X206375Y220980D03*
X193167Y220980D03*
X173355Y220980D03*
X148463Y220980D03*
X127381Y220980D03*
X114427Y220980D03*
X101473Y220980D03*
D92*
X356108Y221234D03*
D121*
X324104Y221234D03*
D35*
X275463Y221234D03*
X262509Y221234D03*
D49*
X240538Y221234D03*
D35*
X206375Y221234D03*
X193167Y221234D03*
X173355Y221234D03*
X148463Y221234D03*
X127381Y221234D03*
X114427Y221234D03*
X101473Y221234D03*
D87*
X355981Y221488D03*
D121*
X324104Y221488D03*
D47*
X295783Y221488D03*
D35*
X275463Y221488D03*
X262509Y221488D03*
D49*
X240538Y221488D03*
D47*
X226441Y221488D03*
D35*
X206375Y221488D03*
X193167Y221488D03*
D51*
X173228Y221488D03*
D35*
X148463Y221488D03*
X127381Y221488D03*
X114427Y221488D03*
X101473Y221488D03*
D92*
X355854Y221742D03*
D121*
X324104Y221742D03*
D47*
X295783Y221742D03*
D35*
X275463Y221742D03*
X262509Y221742D03*
D49*
X240538Y221742D03*
D47*
X226441Y221742D03*
D35*
X206375Y221742D03*
X193167Y221742D03*
D28*
X173101Y221742D03*
D35*
X148463Y221742D03*
X127381Y221742D03*
X114427Y221742D03*
X101473Y221742D03*
D92*
X355600Y221996D03*
D121*
X324104Y221996D03*
D47*
X295783Y221996D03*
D35*
X275463Y221996D03*
X262255Y221996D03*
D49*
X240538Y221996D03*
D47*
X226441Y221996D03*
D35*
X206375Y221996D03*
X193167Y221996D03*
D53*
X172593Y221996D03*
D35*
X148463Y221996D03*
X127381Y221996D03*
X114427Y221996D03*
X101473Y221996D03*
D92*
X355600Y222250D03*
D122*
X324231Y222250D03*
D47*
X295783Y222250D03*
D35*
X275463Y222250D03*
X262255Y222250D03*
D49*
X240538Y222250D03*
D47*
X226441Y222250D03*
D35*
X206375Y222250D03*
X193167Y222250D03*
D52*
X172085Y222250D03*
D35*
X148463Y222250D03*
X127381Y222250D03*
X114427Y222250D03*
X101473Y222250D03*
D92*
X355600Y222504D03*
D122*
X324231Y222504D03*
D47*
X295783Y222504D03*
D35*
X275463Y222504D03*
X262255Y222504D03*
D49*
X240538Y222504D03*
D47*
X226441Y222504D03*
D35*
X206375Y222504D03*
X193167Y222504D03*
D66*
X171831Y222504D03*
D35*
X148463Y222504D03*
X127381Y222504D03*
X114427Y222504D03*
X101473Y222504D03*
D92*
X355346Y222758D03*
D122*
X324231Y222758D03*
D47*
X295783Y222758D03*
D51*
X275590Y222758D03*
X262128Y222758D03*
D49*
X240538Y222758D03*
D47*
X226441Y222758D03*
D35*
X206375Y222758D03*
X193167Y222758D03*
D56*
X170815Y222758D03*
D35*
X148463Y222758D03*
X127381Y222758D03*
X114427Y222758D03*
X101473Y222758D03*
D92*
X355346Y223012D03*
D121*
X324358Y223012D03*
D49*
X295656Y223012D03*
D51*
X275590Y223012D03*
X262128Y223012D03*
D49*
X240538Y223012D03*
X226314Y223012D03*
D35*
X206375Y223012D03*
X193167Y223012D03*
D99*
X167386Y223012D03*
D35*
X148463Y223012D03*
X127381Y223012D03*
X114427Y223012D03*
X101473Y223012D03*
D92*
X355346Y223266D03*
D121*
X324358Y223266D03*
D49*
X295656Y223266D03*
D51*
X275590Y223266D03*
X262128Y223266D03*
D49*
X240538Y223266D03*
X226314Y223266D03*
D35*
X206375Y223266D03*
X193167Y223266D03*
D99*
X167386Y223266D03*
D35*
X148463Y223266D03*
X127381Y223266D03*
X114427Y223266D03*
X101473Y223266D03*
D95*
X355219Y223520D03*
D122*
X324485Y223520D03*
D49*
X295656Y223520D03*
D51*
X275590Y223520D03*
X261874Y223520D03*
D28*
X240919Y223520D03*
D49*
X226314Y223520D03*
D35*
X206375Y223520D03*
X193167Y223520D03*
D99*
X167386Y223520D03*
D35*
X148463Y223520D03*
X127381Y223520D03*
X114427Y223520D03*
X101473Y223520D03*
D95*
X354965Y223774D03*
D122*
X324485Y223774D03*
D35*
X295529Y223774D03*
D28*
X275717Y223774D03*
X261747Y223774D03*
D64*
X241173Y223774D03*
D49*
X226314Y223774D03*
D51*
X206502Y223774D03*
D35*
X193167Y223774D03*
D99*
X167386Y223774D03*
D35*
X148463Y223774D03*
X127381Y223774D03*
X114427Y223774D03*
X101473Y223774D03*
D95*
X354965Y224028D03*
D122*
X324485Y224028D03*
D49*
X295402Y224028D03*
D28*
X275717Y224028D03*
D58*
X261620Y224028D03*
D53*
X241427Y224028D03*
D47*
X226187Y224028D03*
D51*
X206502Y224028D03*
D35*
X193167Y224028D03*
D99*
X167386Y224028D03*
D35*
X148463Y224028D03*
X127381Y224028D03*
X114427Y224028D03*
X101473Y224028D03*
D92*
X354838Y224282D03*
D122*
X324485Y224282D03*
D49*
X295402Y224282D03*
D51*
X275844Y224282D03*
D64*
X261493Y224282D03*
D52*
X241935Y224282D03*
D49*
X226060Y224282D03*
D51*
X206502Y224282D03*
D35*
X193167Y224282D03*
D99*
X167386Y224282D03*
D35*
X148463Y224282D03*
X127381Y224282D03*
X114427Y224282D03*
X101473Y224282D03*
D92*
X354838Y224536D03*
D122*
X324485Y224536D03*
D51*
X295148Y224536D03*
D28*
X275971Y224536D03*
D52*
X260731Y224536D03*
D131*
X242697Y224536D03*
D35*
X225933Y224536D03*
D58*
X206756Y224536D03*
D35*
X193167Y224536D03*
D99*
X167386Y224536D03*
D35*
X148463Y224536D03*
X127381Y224536D03*
X114427Y224536D03*
X101473Y224536D03*
D95*
X354711Y224790D03*
D122*
X324485Y224790D03*
D51*
X295148Y224790D03*
D58*
X276098Y224790D03*
D95*
X251333Y224790D03*
D51*
X225806Y224790D03*
D58*
X206756Y224790D03*
D76*
X189738Y224790D03*
D99*
X167386Y224790D03*
D35*
X148463Y224790D03*
X127381Y224790D03*
X114427Y224790D03*
D93*
X97917Y224790D03*
D95*
X354711Y225044D03*
D122*
X324485Y225044D03*
D121*
X285496Y225044D03*
D95*
X251333Y225044D03*
D121*
X216154Y225044D03*
D76*
X189738Y225044D03*
D99*
X167386Y225044D03*
D35*
X148463Y225044D03*
X127381Y225044D03*
X114427Y225044D03*
D93*
X97917Y225044D03*
D92*
X354584Y225298D03*
D125*
X324612Y225298D03*
D121*
X285496Y225298D03*
D92*
X251206Y225298D03*
D121*
X216154Y225298D03*
D76*
X189738Y225298D03*
D99*
X167386Y225298D03*
D35*
X148463Y225298D03*
X127381Y225298D03*
X114427Y225298D03*
D93*
X97917Y225298D03*
D92*
X354584Y225552D03*
D128*
X324485Y225552D03*
D121*
X285496Y225552D03*
D92*
X251206Y225552D03*
D121*
X216154Y225552D03*
D76*
X189738Y225552D03*
D99*
X167386Y225552D03*
D35*
X148463Y225552D03*
X127381Y225552D03*
X114427Y225552D03*
D93*
X97917Y225552D03*
D95*
X354457Y225806D03*
D128*
X324485Y225806D03*
D121*
X285496Y225806D03*
D92*
X251206Y225806D03*
D121*
X216154Y225806D03*
D76*
X189738Y225806D03*
D99*
X167386Y225806D03*
D35*
X148463Y225806D03*
X127381Y225806D03*
X114427Y225806D03*
D93*
X97917Y225806D03*
D92*
X354330Y226060D03*
D128*
X324485Y226060D03*
D125*
X285496Y226060D03*
D92*
X251206Y226060D03*
D122*
X216281Y226060D03*
D76*
X189738Y226060D03*
D99*
X167386Y226060D03*
D35*
X148463Y226060D03*
X127381Y226060D03*
X114427Y226060D03*
D93*
X97917Y226060D03*
D92*
X354330Y226314D03*
D128*
X324485Y226314D03*
D125*
X285496Y226314D03*
D92*
X251206Y226314D03*
D122*
X216281Y226314D03*
D76*
X189738Y226314D03*
D99*
X167386Y226314D03*
D35*
X148463Y226314D03*
X127381Y226314D03*
X114427Y226314D03*
D93*
X97917Y226314D03*
D132*
X339979Y226568D03*
D125*
X285496Y226568D03*
D87*
X251079Y226568D03*
D122*
X216281Y226568D03*
D76*
X189738Y226568D03*
D99*
X167386Y226568D03*
D35*
X148463Y226568D03*
X127381Y226568D03*
X114427Y226568D03*
D93*
X97917Y226568D03*
D132*
X339979Y226822D03*
D125*
X285496Y226822D03*
D87*
X251079Y226822D03*
D125*
X216154Y226822D03*
D76*
X189738Y226822D03*
D99*
X167386Y226822D03*
D35*
X148463Y226822D03*
X127381Y226822D03*
X114427Y226822D03*
D93*
X97917Y226822D03*
D133*
X340106Y227076D03*
D125*
X285496Y227076D03*
D90*
X250952Y227076D03*
D125*
X216154Y227076D03*
D76*
X189738Y227076D03*
D99*
X167386Y227076D03*
D35*
X148463Y227076D03*
X127381Y227076D03*
X114427Y227076D03*
D93*
X97917Y227076D03*
D133*
X340106Y227330D03*
D125*
X285496Y227330D03*
D90*
X250952Y227330D03*
D125*
X216154Y227330D03*
D76*
X189738Y227330D03*
D35*
X173355Y227330D03*
D62*
X162433Y227330D03*
D35*
X148463Y227330D03*
X127381Y227330D03*
X114427Y227330D03*
D93*
X97917Y227330D03*
D134*
X339979Y227584D03*
D128*
X285369Y227584D03*
D90*
X250952Y227584D03*
D128*
X216027Y227584D03*
D76*
X189738Y227584D03*
D35*
X173355Y227584D03*
D65*
X162306Y227584D03*
D35*
X148463Y227584D03*
X127381Y227584D03*
X114427Y227584D03*
D93*
X97917Y227584D03*
D134*
X339979Y227838D03*
D130*
X285496Y227838D03*
D90*
X250952Y227838D03*
D130*
X216154Y227838D03*
D76*
X189738Y227838D03*
D35*
X173355Y227838D03*
D53*
X162179Y227838D03*
D35*
X148463Y227838D03*
X127381Y227838D03*
X114427Y227838D03*
D93*
X97917Y227838D03*
D135*
X340106Y228092D03*
D130*
X285496Y228092D03*
D88*
X250825Y228092D03*
D130*
X216154Y228092D03*
D76*
X189738Y228092D03*
D35*
X173355Y228092D03*
D63*
X162052Y228092D03*
D35*
X148463Y228092D03*
X127381Y228092D03*
X114427Y228092D03*
D93*
X97917Y228092D03*
D136*
X339979Y228346D03*
D130*
X285496Y228346D03*
D88*
X250825Y228346D03*
D129*
X216281Y228346D03*
D76*
X189738Y228346D03*
D35*
X173355Y228346D03*
D64*
X161925Y228346D03*
D35*
X148463Y228346D03*
X127381Y228346D03*
X114427Y228346D03*
D93*
X97917Y228346D03*
D137*
X348361Y228600D03*
D76*
X319278Y228600D03*
D130*
X285496Y228600D03*
D116*
X250698Y228600D03*
D126*
X216154Y228600D03*
D76*
X189738Y228600D03*
D35*
X173355Y228600D03*
D58*
X161798Y228600D03*
D35*
X148463Y228600D03*
X127381Y228600D03*
X114427Y228600D03*
D93*
X97917Y228600D03*
D138*
X348742Y228854D03*
D69*
X319024Y228854D03*
D126*
X285496Y228854D03*
D139*
X255524Y228854D03*
D49*
X240538Y228854D03*
D126*
X216154Y228854D03*
D76*
X189738Y228854D03*
D35*
X173355Y228854D03*
D28*
X161671Y228854D03*
D35*
X148463Y228854D03*
X127381Y228854D03*
X114427Y228854D03*
D93*
X97917Y228854D03*
D140*
X348869Y229108D03*
D29*
X319151Y229108D03*
D123*
X285496Y229108D03*
D85*
X255524Y229108D03*
D49*
X240538Y229108D03*
D127*
X216281Y229108D03*
D76*
X189738Y229108D03*
D35*
X173355Y229108D03*
D51*
X161544Y229108D03*
D35*
X148463Y229108D03*
X127381Y229108D03*
X114427Y229108D03*
D93*
X97917Y229108D03*
D141*
X349123Y229362D03*
D32*
X319024Y229362D03*
D123*
X285496Y229362D03*
D82*
X255651Y229362D03*
D49*
X240538Y229362D03*
D123*
X216154Y229362D03*
D76*
X189738Y229362D03*
D35*
X173355Y229362D03*
X161417Y229362D03*
X148463Y229362D03*
X127381Y229362D03*
X114427Y229362D03*
D93*
X97917Y229362D03*
D142*
X349250Y229616D03*
D32*
X319024Y229616D03*
D120*
X285496Y229616D03*
D78*
X255778Y229616D03*
D49*
X240538Y229616D03*
D120*
X216154Y229616D03*
D76*
X189738Y229616D03*
D35*
X173355Y229616D03*
D49*
X161290Y229616D03*
D35*
X148463Y229616D03*
X127381Y229616D03*
X114427Y229616D03*
D93*
X97917Y229616D03*
D143*
X349250Y229870D03*
D56*
X319151Y229870D03*
D117*
X285496Y229870D03*
D144*
X255778Y229870D03*
D49*
X240538Y229870D03*
D117*
X216154Y229870D03*
D76*
X189738Y229870D03*
D35*
X173355Y229870D03*
D47*
X161163Y229870D03*
D35*
X148463Y229870D03*
X127381Y229870D03*
X114427Y229870D03*
D93*
X97917Y229870D03*
D145*
X349377Y230124D03*
D36*
X319024Y230124D03*
D113*
X285496Y230124D03*
D75*
X255905Y230124D03*
D49*
X240538Y230124D03*
D115*
X216281Y230124D03*
D76*
X189738Y230124D03*
D35*
X173355Y230124D03*
D19*
X161036Y230124D03*
D35*
X148463Y230124D03*
X127381Y230124D03*
X114427Y230124D03*
D93*
X97917Y230124D03*
D146*
X349504Y230378D03*
D68*
X319151Y230378D03*
D111*
X285496Y230378D03*
D71*
X255905Y230378D03*
D49*
X240538Y230378D03*
D111*
X216154Y230378D03*
D76*
X189738Y230378D03*
D35*
X173355Y230378D03*
D77*
X160782Y230378D03*
D35*
X148463Y230378D03*
X127381Y230378D03*
X114427Y230378D03*
D93*
X97917Y230378D03*
D147*
X349504Y230632D03*
D54*
X319278Y230632D03*
D109*
X285496Y230632D03*
D79*
X255905Y230632D03*
D49*
X240538Y230632D03*
D109*
X216154Y230632D03*
D76*
X189738Y230632D03*
D35*
X173355Y230632D03*
D39*
X160655Y230632D03*
D35*
X148463Y230632D03*
X127381Y230632D03*
X114427Y230632D03*
D93*
X97917Y230632D03*
D148*
X349631Y230886D03*
D54*
X319278Y230886D03*
D106*
X285496Y230886D03*
D32*
X256032Y230886D03*
D49*
X240538Y230886D03*
D107*
X216281Y230886D03*
D76*
X189738Y230886D03*
D35*
X173355Y230886D03*
D39*
X160655Y230886D03*
D35*
X148463Y230886D03*
X127381Y230886D03*
X114427Y230886D03*
D93*
X97917Y230886D03*
D149*
X349504Y231140D03*
D54*
X319278Y231140D03*
D104*
X285496Y231140D03*
D68*
X255905Y231140D03*
D49*
X240538Y231140D03*
D150*
X216281Y231140D03*
D76*
X189738Y231140D03*
D35*
X173355Y231140D03*
D72*
X160401Y231140D03*
D35*
X148463Y231140D03*
X127381Y231140D03*
X114427Y231140D03*
D93*
X97917Y231140D03*
D151*
X349631Y231394D03*
D131*
X319405Y231394D03*
D110*
X285623Y231394D03*
D94*
X256032Y231394D03*
D49*
X240538Y231394D03*
D110*
X216281Y231394D03*
D76*
X189738Y231394D03*
D35*
X173355Y231394D03*
D50*
X160274Y231394D03*
D35*
X148463Y231394D03*
X127381Y231394D03*
X114427Y231394D03*
D93*
X97917Y231394D03*
D152*
X349758Y231648D03*
D131*
X319405Y231648D03*
D100*
X285623Y231648D03*
D55*
X256032Y231648D03*
D49*
X240538Y231648D03*
D100*
X216281Y231648D03*
D76*
X189738Y231648D03*
D35*
X173355Y231648D03*
D48*
X160020Y231648D03*
D35*
X148463Y231648D03*
X127381Y231648D03*
X114427Y231648D03*
D93*
X97917Y231648D03*
D82*
X358267Y231902D03*
D69*
X339598Y231902D03*
D94*
X319786Y231902D03*
D84*
X285623Y231902D03*
D64*
X255905Y231902D03*
D49*
X240538Y231902D03*
D139*
X216408Y231902D03*
D76*
X189738Y231902D03*
D35*
X173355Y231902D03*
D43*
X159639Y231902D03*
D35*
X148463Y231902D03*
X127381Y231902D03*
X114427Y231902D03*
D93*
X97917Y231902D03*
D80*
X358394Y232156D03*
D32*
X339344Y232156D03*
D94*
X319786Y232156D03*
D96*
X285623Y232156D03*
D35*
X255905Y232156D03*
D49*
X240538Y232156D03*
D78*
X216408Y232156D03*
D76*
X189738Y232156D03*
D35*
X173355Y232156D03*
D57*
X159512Y232156D03*
D35*
X148463Y232156D03*
X127381Y232156D03*
X114427Y232156D03*
D93*
X97917Y232156D03*
D81*
X358521Y232410D03*
D54*
X339090Y232410D03*
D67*
X319913Y232410D03*
D49*
X240538Y232410D03*
D35*
X193167Y232410D03*
X101473Y232410D03*
D144*
X358394Y232664D03*
D94*
X338836Y232664D03*
D67*
X319913Y232664D03*
D49*
X240538Y232664D03*
D35*
X193167Y232664D03*
X101473Y232664D03*
D144*
X358394Y232918D03*
D40*
X338836Y232918D03*
X320040Y232918D03*
D49*
X240538Y232918D03*
D35*
X193167Y232918D03*
X101473Y232918D03*
D144*
X358394Y233172D03*
D52*
X338709Y233172D03*
D40*
X320294Y233172D03*
D49*
X240538Y233172D03*
D35*
X193167Y233172D03*
X101473Y233172D03*
D75*
X358267Y233426D03*
D61*
X338582Y233426D03*
D66*
X320421Y233426D03*
D49*
X240538Y233426D03*
D35*
X193167Y233426D03*
X101473Y233426D03*
D75*
X358267Y233680D03*
D65*
X338328Y233680D03*
D66*
X320421Y233680D03*
D49*
X240538Y233680D03*
D35*
X193167Y233680D03*
X101473Y233680D03*
D73*
X358140Y233934D03*
D63*
X338328Y233934D03*
D52*
X320675Y233934D03*
D49*
X240538Y233934D03*
D35*
X193167Y233934D03*
X101473Y233934D03*
D93*
X358013Y234188D03*
D58*
X338074Y234188D03*
D52*
X320929Y234188D03*
D49*
X240538Y234188D03*
D35*
X193167Y234188D03*
X101473Y234188D03*
D93*
X358013Y234442D03*
D28*
X338201Y234442D03*
D52*
X320929Y234442D03*
D49*
X240538Y234442D03*
D35*
X193167Y234442D03*
X101473Y234442D03*
D93*
X357759Y234696D03*
D35*
X338201Y234696D03*
D61*
X321310Y234696D03*
D49*
X240538Y234696D03*
D35*
X193167Y234696D03*
X101473Y234696D03*
D73*
X357632Y234950D03*
D47*
X337947Y234950D03*
D62*
X321437Y234950D03*
D49*
X240538Y234950D03*
D35*
X193167Y234950D03*
X101473Y234950D03*
D93*
X357505Y235204D03*
D47*
X337947Y235204D03*
D65*
X321564Y235204D03*
D49*
X240538Y235204D03*
D35*
X193167Y235204D03*
X101473Y235204D03*
D76*
X357378Y235458D03*
D20*
X337947Y235458D03*
D53*
X321945Y235458D03*
D16*
X311658Y235458D03*
D49*
X240538Y235458D03*
D35*
X193167Y235458D03*
X101473Y235458D03*
D93*
X357251Y235712D03*
D39*
X337693Y235712D03*
D64*
X322199Y235712D03*
D72*
X311531Y235712D03*
D49*
X240538Y235712D03*
D51*
X193040Y235712D03*
D35*
X101473Y235712D03*
D76*
X357124Y235966D03*
D39*
X337693Y235966D03*
D64*
X322199Y235966D03*
D77*
X311404Y235966D03*
D49*
X240538Y235966D03*
D51*
X193040Y235966D03*
D35*
X101473Y235966D03*
D76*
X356870Y236220D03*
D72*
X337693Y236220D03*
D58*
X322580Y236220D03*
X311404Y236220D03*
D49*
X240538Y236220D03*
D51*
X193040Y236220D03*
D35*
X101473Y236220D03*
D76*
X356616Y236474D03*
D50*
X337566Y236474D03*
D28*
X322961Y236474D03*
D52*
X311531Y236474D03*
D49*
X240538Y236474D03*
D64*
X192659Y236474D03*
D35*
X101473Y236474D03*
D76*
X356616Y236728D03*
D70*
X337439Y236728D03*
D51*
X323088Y236728D03*
D40*
X311404Y236728D03*
D49*
X240538Y236728D03*
D76*
X189738Y236728D03*
D35*
X101473Y236728D03*
D76*
X356362Y236982D03*
D42*
X337439Y236982D03*
D106*
X316230Y236982D03*
D49*
X240538Y236982D03*
D76*
X189738Y236982D03*
D35*
X114427Y236982D03*
X101473Y236982D03*
D76*
X356108Y237236D03*
D42*
X337439Y237236D03*
D114*
X315849Y237236D03*
D49*
X240538Y237236D03*
D76*
X189738Y237236D03*
D35*
X114427Y237236D03*
D71*
X355981Y237490D03*
D17*
X337312Y237490D03*
D112*
X315849Y237490D03*
D49*
X240538Y237490D03*
D76*
X189738Y237490D03*
D35*
X114427Y237490D03*
D71*
X355727Y237744D03*
D43*
X337185Y237744D03*
D117*
X315722Y237744D03*
D49*
X240538Y237744D03*
D71*
X189611Y237744D03*
D35*
X114427Y237744D03*
D76*
X355346Y237998D03*
D43*
X337185Y237998D03*
D123*
X315468Y237998D03*
D49*
X240538Y237998D03*
D71*
X189611Y237998D03*
D35*
X114427Y237998D03*
D71*
X355219Y238252D03*
D44*
X337185Y238252D03*
D123*
X315468Y238252D03*
D49*
X240538Y238252D03*
D71*
X189611Y238252D03*
D35*
X114427Y238252D03*
D71*
X354965Y238506D03*
D44*
X337185Y238506D03*
D130*
X315214Y238506D03*
D49*
X240538Y238506D03*
D71*
X189611Y238506D03*
D35*
X114427Y238506D03*
D71*
X354711Y238760D03*
D41*
X337058Y238760D03*
D122*
X315087Y238760D03*
D49*
X240538Y238760D03*
D71*
X189611Y238760D03*
D35*
X114427Y238760D03*
D71*
X354457Y239014D03*
D21*
X336931Y239014D03*
D122*
X315087Y239014D03*
D49*
X240538Y239014D03*
D71*
X189611Y239014D03*
D35*
X114427Y239014D03*
D71*
X354203Y239268D03*
D21*
X336931Y239268D03*
D116*
X314960Y239268D03*
D49*
X240538Y239268D03*
D74*
X189484Y239268D03*
D35*
X114427Y239268D03*
D74*
X353822Y239522D03*
D21*
X336931Y239522D03*
D92*
X314960Y239522D03*
D49*
X240538Y239522D03*
D74*
X189484Y239522D03*
D35*
X114427Y239522D03*
D71*
X353695Y239776D03*
D18*
X336804Y239776D03*
D92*
X314960Y239776D03*
D49*
X240538Y239776D03*
D79*
X189357Y239776D03*
D35*
X114427Y239776D03*
D74*
X353314Y240030D03*
D21*
X336677Y240030D03*
D153*
X314833Y240030D03*
D49*
X240538Y240030D03*
D79*
X189357Y240030D03*
D35*
X114427Y240030D03*
D74*
X352806Y240284D03*
D21*
X336677Y240284D03*
D154*
X314833Y240284D03*
D49*
X240538Y240284D03*
D79*
X189357Y240284D03*
D35*
X114427Y240284D03*
D79*
X352679Y240538D03*
D21*
X336677Y240538D03*
D155*
X314706Y240538D03*
D49*
X240538Y240538D03*
D69*
X189230Y240538D03*
D35*
X114427Y240538D03*
D79*
X352171Y240792D03*
D41*
X336550Y240792D03*
D156*
X314833Y240792D03*
D49*
X240538Y240792D03*
D69*
X189230Y240792D03*
D35*
X114427Y240792D03*
D79*
X351663Y241046D03*
D44*
X336423Y241046D03*
D157*
X314833Y241046D03*
D49*
X240538Y241046D03*
D29*
X189103Y241046D03*
D35*
X114427Y241046D03*
D29*
X351409Y241300D03*
D43*
X336169Y241300D03*
D158*
X314960Y241300D03*
D49*
X240538Y241300D03*
D32*
X188976Y241300D03*
D35*
X114427Y241300D03*
D69*
X350774Y241554D03*
D159*
X318008Y241554D03*
D49*
X240538Y241554D03*
D56*
X188849Y241554D03*
D35*
X114427Y241554D03*
D32*
X350012Y241808D03*
D160*
X317881Y241808D03*
D49*
X240538Y241808D03*
D36*
X188722Y241808D03*
D35*
X114427Y241808D03*
D32*
X349758Y242062D03*
D161*
X317881Y242062D03*
D49*
X240538Y242062D03*
D68*
X188595Y242062D03*
D35*
X114427Y242062D03*
D36*
X348742Y242316D03*
D162*
X317881Y242316D03*
D49*
X240538Y242316D03*
D54*
X188468Y242316D03*
D35*
X114427Y242316D03*
D163*
X327279Y242570D03*
D49*
X240538Y242570D03*
D94*
X188214Y242570D03*
D35*
X114427Y242570D03*
D164*
X327787Y242824D03*
D49*
X240538Y242824D03*
D94*
X188214Y242824D03*
D35*
X114427Y242824D03*
D165*
X328168Y243078D03*
D49*
X240538Y243078D03*
D66*
X187833Y243078D03*
D35*
X114427Y243078D03*
D166*
X328422Y243332D03*
D49*
X240538Y243332D03*
D61*
X187452Y243332D03*
D35*
X114427Y243332D03*
D167*
X328549Y243586D03*
D49*
X240538Y243586D03*
D62*
X187325Y243586D03*
D35*
X114427Y243586D03*
D168*
X328803Y243840D03*
D49*
X240538Y243840D03*
D35*
X186309Y243840D03*
X114427Y243840D03*
D169*
X328803Y244094D03*
D170*
X328803Y244348D03*
D171*
X345821Y244602D03*
D172*
X309245Y244602D03*
D149*
X347218Y244856D03*
D92*
X307594Y244856D03*
D149*
X347472Y245110D03*
D90*
X307086Y245110D03*
D151*
X348107Y245364D03*
D116*
X306324Y245364D03*
D151*
X348361Y245618D03*
D121*
X306070Y245618D03*
D149*
X348742Y245872D03*
D122*
X305435Y245872D03*
D149*
X348996Y246126D03*
D125*
X304800Y246126D03*
D148*
X349123Y246380D03*
D125*
X304546Y246380D03*
D148*
X349377Y246634D03*
D128*
X304165Y246634D03*
D146*
X349504Y246888D03*
D128*
X303657Y246888D03*
D145*
X349631Y247142D03*
D125*
X303530Y247142D03*
D109*
X356616Y247396D03*
D58*
X335788Y247396D03*
D122*
X303149Y247396D03*
D105*
X357251Y247650D03*
D58*
X335534Y247650D03*
D125*
X302768Y247650D03*
D104*
X357632Y247904D03*
D28*
X335407Y247904D03*
D122*
X302641Y247904D03*
D103*
X358140Y248158D03*
D58*
X335026Y248158D03*
D118*
X302387Y248158D03*
D102*
X358648Y248412D03*
D64*
X334899Y248412D03*
D118*
X302133Y248412D03*
D102*
X358902Y248666D03*
D63*
X334772Y248666D03*
D116*
X302006Y248666D03*
D173*
X359410Y248920D03*
D65*
X334518Y248920D03*
D87*
X301879Y248920D03*
D100*
X359791Y249174D03*
D52*
X334137Y249174D03*
D92*
X301752Y249174D03*
D99*
X359918Y249428D03*
D66*
X334137Y249428D03*
D174*
X301752Y249428D03*
D108*
X360299Y249682D03*
D131*
X333883Y249682D03*
D175*
X301625Y249682D03*
D99*
X360680Y249936D03*
D56*
X333375Y249936D03*
D172*
X301879Y249936D03*
D108*
X360807Y250190D03*
D79*
X333121Y250190D03*
D156*
X301879Y250190D03*
D98*
X361188Y250444D03*
D75*
X332359Y250444D03*
D158*
X302260Y250444D03*
D98*
X361442Y250698D03*
D17*
X338328Y250698D03*
D176*
X309499Y250698D03*
D97*
X361569Y250952D03*
D43*
X338455Y250952D03*
D177*
X309118Y250952D03*
D97*
X361823Y251206D03*
D43*
X338709Y251206D03*
D178*
X308737Y251206D03*
D89*
X362204Y251460D03*
D43*
X339217Y251460D03*
D179*
X308610Y251460D03*
D89*
X362204Y251714D03*
D43*
X339217Y251714D03*
D178*
X308483Y251714D03*
D89*
X362458Y251968D03*
D17*
X339344Y251968D03*
D178*
X308229Y251968D03*
D89*
X362712Y252222D03*
D42*
X339725Y252222D03*
D179*
X308102Y252222D03*
D97*
X362839Y252476D03*
D48*
X339852Y252476D03*
D179*
X308102Y252476D03*
D89*
X362966Y252730D03*
D50*
X340106Y252730D03*
D179*
X307848Y252730D03*
D98*
X363220Y252984D03*
D72*
X340487Y252984D03*
D179*
X307848Y252984D03*
D97*
X363347Y253238D03*
D60*
X340614Y253238D03*
D180*
X307721Y253238D03*
D98*
X363474Y253492D03*
D77*
X340868Y253492D03*
D181*
X307594Y253492D03*
D98*
X363474Y253746D03*
D20*
X341249Y253746D03*
D181*
X307594Y253746D03*
D108*
X363601Y254000D03*
D47*
X341503Y254000D03*
D182*
X307721Y254000D03*
D99*
X363728Y254254D03*
D51*
X341884Y254254D03*
D183*
X307594Y254254D03*
D173*
X363728Y254508D03*
D64*
X342265Y254508D03*
D183*
X307594Y254508D03*
D173*
X363728Y254762D03*
D63*
X342392Y254762D03*
D183*
X307594Y254762D03*
D103*
X363474Y255016D03*
D52*
X343027Y255016D03*
D184*
X307467Y255016D03*
D143*
X356108Y255270D03*
D185*
X307594Y255270D03*
D143*
X356108Y255524D03*
D186*
X307721Y255524D03*
D171*
X356235Y255778D03*
D187*
X307594Y255778D03*
D142*
X356362Y256032D03*
D188*
X307721Y256032D03*
D141*
X356489Y256286D03*
D189*
X307848Y256286D03*
D190*
X356616Y256540D03*
D191*
X308102Y256540D03*
D190*
X356616Y256794D03*
D192*
X308356Y256794D03*
D140*
X356743Y257048D03*
D193*
X308356Y257048D03*
D138*
X356870Y257302D03*
D194*
X308737Y257302D03*
D195*
X356997Y257556D03*
D196*
X309118Y257556D03*
D197*
X356870Y257810D03*
D161*
X309499Y257810D03*
D198*
X356997Y258064D03*
D159*
X309880Y258064D03*
D199*
X357124Y258318D03*
D200*
X310388Y258318D03*
D199*
X357124Y258572D03*
X310642Y258572D03*
D201*
X357251Y258826D03*
D138*
X311150Y258826D03*
D201*
X357251Y259080D03*
D142*
X311658Y259080D03*
D202*
X357378Y259334D03*
D143*
X311912Y259334D03*
D202*
X357378Y259588D03*
D203*
X312293Y259588D03*
D204*
X357505Y259842D03*
D47*
X326517Y259842D03*
D126*
X307848Y259842D03*
D160*
X357505Y260096D03*
D205*
X313055Y260096D03*
D206*
X357632Y260350D03*
D35*
X326263Y260350D03*
D114*
X308483Y260350D03*
D206*
X357632Y260604D03*
D51*
X326136Y260604D03*
D106*
X308610Y260604D03*
D161*
X357759Y260858D03*
D28*
X326009Y260858D03*
D103*
X308864Y260858D03*
D207*
X357759Y261112D03*
D58*
X325882Y261112D03*
D99*
X309118Y261112D03*
D207*
X357759Y261366D03*
D58*
X325882Y261366D03*
D97*
X309245Y261366D03*
D162*
X357759Y261620D03*
D64*
X325755Y261620D03*
D83*
X309499Y261620D03*
D208*
X357886Y261874D03*
D63*
X325628Y261874D03*
D78*
X309626Y261874D03*
D209*
X357886Y262128D03*
D63*
X325628Y262128D03*
D75*
X309753Y262128D03*
D209*
X357886Y262382D03*
D65*
X325628Y262382D03*
D79*
X310007Y262382D03*
D193*
X357886Y262636D03*
D62*
X325501Y262636D03*
D54*
X310134Y262636D03*
D210*
X358013Y262890D03*
D62*
X325501Y262890D03*
D67*
X310261Y262890D03*
D211*
X358013Y263144D03*
D61*
X325374Y263144D03*
D65*
X310388Y263144D03*
D212*
X358013Y263398D03*
D55*
X325374Y263398D03*
D20*
X310515Y263398D03*
D152*
X363220Y263652D03*
D28*
X339725Y263652D03*
D66*
X325501Y263652D03*
D70*
X310515Y263652D03*
D152*
X363474Y263906D03*
D63*
X339598Y263906D03*
D66*
X325501Y263906D03*
D151*
X363601Y264160D03*
D53*
X339471Y264160D03*
D67*
X325501Y264160D03*
D152*
X363728Y264414D03*
D62*
X339471Y264414D03*
D94*
X325628Y264414D03*
D151*
X363855Y264668D03*
D120*
X331978Y264668D03*
D152*
X364236Y264922D03*
D120*
X331978Y264922D03*
D151*
X364363Y265176D03*
D120*
X331978Y265176D03*
D152*
X364490Y265430D03*
D123*
X331978Y265430D03*
D152*
X364744Y265684D03*
D123*
X331978Y265684D03*
D152*
X364744Y265938D03*
D123*
X331978Y265938D03*
D152*
X364998Y266192D03*
D127*
X332105Y266192D03*
D152*
X365252Y266446D03*
D126*
X331978Y266446D03*
D205*
X365379Y266700D03*
D126*
X331978Y266700D03*
D213*
X365506Y266954D03*
D130*
X331978Y266954D03*
D213*
X365760Y267208D03*
D130*
X331978Y267208D03*
D214*
X365887Y267462D03*
D130*
X331978Y267462D03*
D158*
X366014Y267716D03*
D130*
X331978Y267716D03*
D215*
X366268Y267970D03*
D130*
X331978Y267970D03*
D157*
X366395Y268224D03*
D130*
X331978Y268224D03*
D216*
X366649Y268478D03*
D130*
X331978Y268478D03*
D217*
X366776Y268732D03*
D128*
X331851Y268732D03*
D156*
X366903Y268986D03*
D128*
X331851Y268986D03*
D172*
X367157Y269240D03*
D125*
X331978Y269240D03*
D218*
X367284Y269494D03*
D125*
X331978Y269494D03*
D175*
X367411Y269748D03*
D125*
X331978Y269748D03*
D95*
X367665Y270002D03*
D125*
X331978Y270002D03*
D88*
X367919Y270256D03*
D125*
X331978Y270256D03*
D118*
X368173Y270510D03*
D125*
X331978Y270510D03*
D128*
X368427Y270764D03*
X331851Y270764D03*
D123*
X368808Y271018D03*
D128*
X331851Y271018D03*
D117*
X369062Y271272D03*
D128*
X331851Y271272D03*
D107*
X369443Y271526D03*
D128*
X331851Y271526D03*
D86*
X370332Y271780D03*
D128*
X331851Y271780D03*
X331851Y272034D03*
X331851Y272288D03*
X331851Y272542D03*
X331851Y272796D03*
X331851Y273050D03*
D129*
X331851Y273304D03*
X331851Y273558D03*
X331851Y273812D03*
D126*
X331724Y274066D03*
X331724Y274320D03*
X331724Y274574D03*
X331724Y274828D03*
D127*
X331597Y275082D03*
D123*
X331724Y275336D03*
X331724Y275590D03*
X331724Y275844D03*
D120*
X331724Y276098D03*
X331724Y276352D03*
D119*
X331597Y276606D03*
X331597Y276860D03*
X331597Y277114D03*
D115*
X331597Y277368D03*
X331597Y277622D03*
D113*
X331470Y277876D03*
D112*
X331343Y278130D03*
D111*
X331470Y278384D03*
X331470Y278638D03*
D109*
X331470Y278892D03*
X331470Y279146D03*
D107*
X331343Y279400D03*
D105*
X331343Y279654D03*
X331343Y279908D03*
D104*
X331216Y280162D03*
X331216Y280416D03*
D103*
X331216Y280670D03*
D110*
X331089Y280924D03*
D102*
X331216Y281178D03*
D101*
X331089Y281432D03*
X331089Y281686D03*
D100*
X330835Y281940D03*
D99*
X330962Y282194D03*
D108*
X330835Y282448D03*
D98*
X330962Y282702D03*
D89*
X330708Y282956D03*
X330708Y283210D03*
D86*
X330708Y283464D03*
X330708Y283718D03*
D84*
X330581Y283972D03*
D139*
X330454Y284226D03*
D85*
X330454Y284480D03*
X330454Y284734D03*
D80*
X330454Y284988D03*
D96*
X330327Y285242D03*
X330327Y285496D03*
D78*
X330200Y285750D03*
D144*
X330200Y286004D03*
D75*
X330073Y286258D03*
X330073Y286512D03*
D93*
X330073Y286766D03*
X330073Y287020D03*
D74*
X329946Y287274D03*
X329946Y287528D03*
D79*
X329819Y287782D03*
X329819Y288036D03*
D69*
X329692Y288290D03*
D32*
X329692Y288544D03*
D56*
X329565Y288798D03*
X329565Y289052D03*
D68*
X329565Y289306D03*
D54*
X329438Y289560D03*
D131*
X329565Y289814D03*
D94*
X329438Y290068D03*
D67*
X329311Y290322D03*
D40*
X329184Y290576D03*
D66*
X329311Y290830D03*
D55*
X329184Y291084D03*
X329184Y291338D03*
D62*
X329057Y291592D03*
X329057Y291846D03*
D65*
X328930Y292100D03*
D53*
X329057Y292354D03*
D64*
X328803Y292608D03*
X328803Y292862D03*
D28*
X328803Y293116D03*
D51*
X328676Y293370D03*
X328676Y293624D03*
D35*
X328549Y293878D03*
D47*
X328549Y294132D03*
D19*
X328422Y294386D03*
D20*
X328549Y294640D03*
D77*
X328422Y294894D03*
X328422Y295148D03*
D72*
X328295Y295402D03*
X328295Y295656D03*
D50*
X328168Y295910D03*
D70*
X328295Y296164D03*
D17*
X328168Y296418D03*
X328168Y296672D03*
D57*
X328168Y296926D03*
D44*
X328041Y297180D03*
D21*
X328041Y297434D03*
D15*
X328041Y297688D03*
D24*
X328168Y297942D03*
D31*
X328168Y298196D03*
M02*
