G04 EAGLE Gerber RS-274X export*
G75*
%MOMM*%
%FSLAX34Y34*%
%LPD*%
%IN*%
%IPPOS*%
%AMOC8*
5,1,8,0,0,1.08239X$1,22.5*%
G01*
%ADD10C,0.254000*%


D10*
X0Y12700D02*
X48Y11593D01*
X193Y10495D01*
X433Y9413D01*
X766Y8356D01*
X1190Y7333D01*
X1701Y6350D01*
X2297Y5416D01*
X2971Y4537D01*
X3720Y3720D01*
X4537Y2971D01*
X5416Y2297D01*
X6350Y1701D01*
X7333Y1190D01*
X8356Y766D01*
X9413Y433D01*
X10495Y193D01*
X11593Y48D01*
X12700Y0D01*
X342900Y0D01*
X344007Y48D01*
X345105Y193D01*
X346187Y433D01*
X347244Y766D01*
X348267Y1190D01*
X349250Y1701D01*
X350184Y2297D01*
X351063Y2971D01*
X351880Y3720D01*
X352629Y4537D01*
X353303Y5416D01*
X353899Y6350D01*
X354410Y7333D01*
X354834Y8356D01*
X355167Y9413D01*
X355407Y10495D01*
X355552Y11593D01*
X355600Y12700D01*
X355600Y165100D01*
X355552Y166207D01*
X355407Y167305D01*
X355167Y168387D01*
X354834Y169444D01*
X354410Y170467D01*
X353899Y171450D01*
X353303Y172384D01*
X352629Y173263D01*
X351880Y174080D01*
X351063Y174829D01*
X350184Y175503D01*
X349250Y176099D01*
X348267Y176610D01*
X347244Y177034D01*
X346187Y177367D01*
X345105Y177607D01*
X344007Y177752D01*
X342900Y177800D01*
X12700Y177800D01*
X11593Y177752D01*
X10495Y177607D01*
X9413Y177367D01*
X8356Y177034D01*
X7333Y176610D01*
X6350Y176099D01*
X5416Y175503D01*
X4537Y174829D01*
X3720Y174080D01*
X2971Y173263D01*
X2297Y172384D01*
X1701Y171450D01*
X1190Y170467D01*
X766Y169444D01*
X433Y168387D01*
X193Y167305D01*
X48Y166207D01*
X0Y165100D01*
X0Y12700D01*
M02*
