  0
SECTION
  2
HEADER
  9
$ACADVER
  1
AC1009
  9
$FILLMODE
 70
1
  9
$EXTMIN
 10
-36.1527
 20
-12.4460
 30
0.0000
  9
$EXTMAX
 10
49.4268
 20
30.7901
 30
0.0000
  0
ENDSEC
  0
SECTION
  2
TABLES
  0
TABLE
  2
LTYPE
 70
1
  0
LTYPE
  2
CONTINUOUS
 70
64
  3
Solid line
 72
65
 73
0
 40
0
  0
ENDTAB
  0
TABLE
  2
LAYER
 70
255
  0
LAYER
  2
16
 70
64
 62
132
  6
CONTINUOUS
  0
LAYER
  2
17
 70
64
 62
110
  6
CONTINUOUS
  0
LAYER
  2
18
 70
64
 62
110
  6
CONTINUOUS
  0
LAYER
  2
19
 70
64
 62
53
  6
CONTINUOUS
  0
LAYER
  2
20
 70
64
 62
53
  6
CONTINUOUS
  0
LAYER
  2
24
 70
64
 62
53
  6
CONTINUOUS
  0
LAYER
  2
118
 70
64
 62
253
  6
CONTINUOUS
  0
LAYER
  2
129
 70
64
 62
253
  6
CONTINUOUS
  0
ENDTAB
  0
ENDSEC
  0
SECTION
  2
BLOCKS
  0
BLOCK
  8
0
  2
RECT
 70
64
 10
0.0000
 20
0.0000
 30
0.0000
  3
RECT
  0
SOLID
  8
0
 10
-0.5000
 20
-0.5000
 30
0.0000
 11
0.5000
 21
-0.5000
 31
0.0000
 12
-0.5000
 22
0.5000
 32
0.0000
 13
0.5000
 23
0.5000
 33
0.0000
  0
ENDBLK
  8
0
  0
BLOCK
  8
0
  2
PIE
 70
64
 10
0.0000
 20
0.0000
 30
0.0000
  3
PIE
  0
POLYLINE
  8
0
 66
1
 10
0.0000
 20
0.0000
 30
0.0000
 40
0.5000
 41
0.5000
 70
0
  0
VERTEX
  8
0
 10
0.0000
 20
-0.2500
 30
0.0000
 42
1.0000
  0
VERTEX
  8
0
 10
0.0000
 20
0.2500
 30
0.0000
 42
1.0000
  0
VERTEX
  8
0
 10
0.0000
 20
-0.2500
 30
0.0000
  0
SEQEND
  8
0
  0
ENDBLK
  8
0
  0
BLOCK
  8
0
  2
OCTAGONP
 70
64
 10
0.0000
 20
0.0000
 30
0.0000
  3
OCTAGONP
  0
POLYLINE
  8
0
 66
1
 10
0.0000
 20
0.0000
 30
0.0000
 40
0.5000
 41
0.5000
 70
0
  0
VERTEX
  8
0
 10
-0.2500
 20
-0.1036
 30
0.0000
  0
VERTEX
  8
0
 10
-0.2500
 20
0.1036
 30
0.0000
  0
VERTEX
  8
0
 10
-0.1036
 20
0.2500
 30
0.0000
  0
VERTEX
  8
0
 10
0.1036
 20
0.2500
 30
0.0000
  0
VERTEX
  8
0
 10
0.2500
 20
0.1036
 30
0.0000
  0
VERTEX
  8
0
 10
0.2500
 20
-0.1036
 30
0.0000
  0
VERTEX
  8
0
 10
0.1036
 20
-0.2500
 30
0.0000
  0
VERTEX
  8
0
 10
-0.1036
 20
-0.2500
 30
0.0000
  0
VERTEX
  8
0
 10
-0.2500
 20
-0.1036
 30
0.0000
  0
VERTEX
  8
0
 10
-0.2500
 20
0.1036
 30
0.0000
  0
SEQEND
  8
0
  0
ENDBLK
  8
0
  0
BLOCK
  8
0
  2
SQUAREP
 70
64
 10
0.0000
 20
0.0000
 30
0.0000
  3
SQUAREP
  0
SOLID
  8
0
 10
-0.5000
 20
-0.5000
 30
0.0000
 11
0.5000
 21
-0.5000
 31
0.0000
 12
-0.5000
 22
0.5000
 32
0.0000
 13
0.5000
 23
0.5000
 33
0.0000
  0
ENDBLK
  8
0
  0
BLOCK
  8
0
  2
ROUNDP
 70
64
 10
0.0000
 20
0.0000
 30
0.0000
  3
ROUNDP
  0
POLYLINE
  8
0
 66
1
 10
0.0000
 20
0.0000
 30
0.0000
 40
0.5000
 41
0.5000
 70
0
  0
VERTEX
  8
0
 10
0.0000
 20
-0.2500
 30
0.0000
 42
1.0000
  0
VERTEX
  8
0
 10
0.0000
 20
0.2500
 30
0.0000
 42
1.0000
  0
VERTEX
  8
0
 10
0.0000
 20
-0.2500
 30
0.0000
  0
SEQEND
  8
0
  0
ENDBLK
  8
0
  0
BLOCK
  8
0
  2
ANNULUSP
 70
64
 10
0.0000
 20
0.0000
 30
0.0000
  3
ANNULUSP
  0
POLYLINE
  8
0
 66
1
 10
0.0000
 20
0.0000
 30
0.0000
 40
0.5000
 41
0.5000
 70
0
  0
VERTEX
  8
0
 10
0.0000
 20
-0.2500
 30
0.0000
 42
1.0000
  0
VERTEX
  8
0
 10
0.0000
 20
0.2500
 30
0.0000
 42
1.0000
  0
VERTEX
  8
0
 10
0.0000
 20
-0.2500
 30
0.0000
  0
SEQEND
  8
0
  0
ENDBLK
  8
0
  0
BLOCK
  8
0
  2
THERMALP
 70
64
 10
0.0000
 20
0.0000
 30
0.0000
  3
THERMALP
  0
POLYLINE
  8
0
 66
1
 10
0.0000
 20
0.0000
 30
0.0000
 40
0.1000
 41
0.1000
 70
0
  0
VERTEX
  8
0
 10
-0.2379
 20
0.4500
 30
0.0000
  0
VERTEX
  8
0
 10
0.2379
 20
0.4500
 30
0.0000
  0
SEQEND
  8
0
  0
POLYLINE
  8
0
 66
1
 10
0.0000
 20
0.0000
 30
0.0000
 40
0.0500
 41
0.0500
 70
0
  0
VERTEX
  8
0
 10
0.2379
 20
0.4250
 30
0.0000
 42
1.0000
  0
VERTEX
  8
0
 10
0.2379
 20
0.4750
 30
0.0000
  0
SEQEND
  8
0
  0
POLYLINE
  8
0
 66
1
 10
0.0000
 20
0.0000
 30
0.0000
 40
0.0500
 41
0.0500
 70
0
  0
VERTEX
  8
0
 10
-0.2379
 20
0.4750
 30
0.0000
 42
1.0000
  0
VERTEX
  8
0
 10
-0.2379
 20
0.4250
 30
0.0000
  0
SEQEND
  8
0
  0
POLYLINE
  8
0
 66
1
 10
0.0000
 20
0.0000
 30
0.0000
 40
0.1000
 41
0.1000
 70
0
  0
VERTEX
  8
0
 10
0.4500
 20
0.2379
 30
0.0000
  0
VERTEX
  8
0
 10
0.4500
 20
-0.2379
 30
0.0000
  0
SEQEND
  8
0
  0
POLYLINE
  8
0
 66
1
 10
0.0000
 20
0.0000
 30
0.0000
 40
0.0500
 41
0.0500
 70
0
  0
VERTEX
  8
0
 10
0.4250
 20
-0.2379
 30
0.0000
 42
1.0000
  0
VERTEX
  8
0
 10
0.4750
 20
-0.2379
 30
0.0000
  0
SEQEND
  8
0
  0
POLYLINE
  8
0
 66
1
 10
0.0000
 20
0.0000
 30
0.0000
 40
0.0500
 41
0.0500
 70
0
  0
VERTEX
  8
0
 10
0.4750
 20
0.2379
 30
0.0000
 42
1.0000
  0
VERTEX
  8
0
 10
0.4250
 20
0.2379
 30
0.0000
  0
SEQEND
  8
0
  0
POLYLINE
  8
0
 66
1
 10
0.0000
 20
0.0000
 30
0.0000
 40
0.1000
 41
0.1000
 70
0
  0
VERTEX
  8
0
 10
0.2379
 20
-0.4500
 30
0.0000
  0
VERTEX
  8
0
 10
-0.2379
 20
-0.4500
 30
0.0000
  0
SEQEND
  8
0
  0
POLYLINE
  8
0
 66
1
 10
0.0000
 20
0.0000
 30
0.0000
 40
0.0500
 41
0.0500
 70
0
  0
VERTEX
  8
0
 10
-0.2379
 20
-0.4250
 30
0.0000
 42
1.0000
  0
VERTEX
  8
0
 10
-0.2379
 20
-0.4750
 30
0.0000
  0
SEQEND
  8
0
  0
POLYLINE
  8
0
 66
1
 10
0.0000
 20
0.0000
 30
0.0000
 40
0.0500
 41
0.0500
 70
0
  0
VERTEX
  8
0
 10
0.2379
 20
-0.4750
 30
0.0000
 42
1.0000
  0
VERTEX
  8
0
 10
0.2379
 20
-0.4250
 30
0.0000
  0
SEQEND
  8
0
  0
POLYLINE
  8
0
 66
1
 10
0.0000
 20
0.0000
 30
0.0000
 40
0.1000
 41
0.1000
 70
0
  0
VERTEX
  8
0
 10
-0.4500
 20
-0.2379
 30
0.0000
  0
VERTEX
  8
0
 10
-0.4500
 20
0.2379
 30
0.0000
  0
SEQEND
  8
0
  0
POLYLINE
  8
0
 66
1
 10
0.0000
 20
0.0000
 30
0.0000
 40
0.0500
 41
0.0500
 70
0
  0
VERTEX
  8
0
 10
-0.4250
 20
0.2379
 30
0.0000
 42
1.0000
  0
VERTEX
  8
0
 10
-0.4750
 20
0.2379
 30
0.0000
  0
SEQEND
  8
0
  0
POLYLINE
  8
0
 66
1
 10
0.0000
 20
0.0000
 30
0.0000
 40
0.0500
 41
0.0500
 70
0
  0
VERTEX
  8
0
 10
-0.4750
 20
-0.2379
 30
0.0000
 42
1.0000
  0
VERTEX
  8
0
 10
-0.4250
 20
-0.2379
 30
0.0000
  0
SEQEND
  8
0
  0
ENDBLK
  8
0
  0
BLOCK
  8
0
  2
OCTAGONV
 70
64
 10
0.0000
 20
0.0000
 30
0.0000
  3
OCTAGONV
  0
POLYLINE
  8
0
 66
1
 10
0.0000
 20
0.0000
 30
0.0000
 40
0.5000
 41
0.5000
 70
0
  0
VERTEX
  8
0
 10
-0.2500
 20
-0.1036
 30
0.0000
  0
VERTEX
  8
0
 10
-0.2500
 20
0.1036
 30
0.0000
  0
VERTEX
  8
0
 10
-0.1036
 20
0.2500
 30
0.0000
  0
VERTEX
  8
0
 10
0.1036
 20
0.2500
 30
0.0000
  0
VERTEX
  8
0
 10
0.2500
 20
0.1036
 30
0.0000
  0
VERTEX
  8
0
 10
0.2500
 20
-0.1036
 30
0.0000
  0
VERTEX
  8
0
 10
0.1036
 20
-0.2500
 30
0.0000
  0
VERTEX
  8
0
 10
-0.1036
 20
-0.2500
 30
0.0000
  0
VERTEX
  8
0
 10
-0.2500
 20
-0.1036
 30
0.0000
  0
VERTEX
  8
0
 10
-0.2500
 20
0.1036
 30
0.0000
  0
SEQEND
  8
0
  0
ENDBLK
  8
0
  0
BLOCK
  8
0
  2
SQUAREV
 70
64
 10
0.0000
 20
0.0000
 30
0.0000
  3
SQUAREV
  0
SOLID
  8
0
 10
-0.5000
 20
-0.5000
 30
0.0000
 11
0.5000
 21
-0.5000
 31
0.0000
 12
-0.5000
 22
0.5000
 32
0.0000
 13
0.5000
 23
0.5000
 33
0.0000
  0
ENDBLK
  8
0
  0
BLOCK
  8
0
  2
ROUNDV
 70
64
 10
0.0000
 20
0.0000
 30
0.0000
  3
ROUNDV
  0
POLYLINE
  8
0
 66
1
 10
0.0000
 20
0.0000
 30
0.0000
 40
0.5000
 41
0.5000
 70
0
  0
VERTEX
  8
0
 10
0.0000
 20
-0.2500
 30
0.0000
 42
1.0000
  0
VERTEX
  8
0
 10
0.0000
 20
0.2500
 30
0.0000
 42
1.0000
  0
VERTEX
  8
0
 10
0.0000
 20
-0.2500
 30
0.0000
  0
SEQEND
  8
0
  0
ENDBLK
  8
0
  0
BLOCK
  8
0
  2
ANNULUSV
 70
64
 10
0.0000
 20
0.0000
 30
0.0000
  3
ANNULUSV
  0
POLYLINE
  8
0
 66
1
 10
0.0000
 20
0.0000
 30
0.0000
 40
0.5000
 41
0.5000
 70
0
  0
VERTEX
  8
0
 10
0.0000
 20
-0.2500
 30
0.0000
 42
1.0000
  0
VERTEX
  8
0
 10
0.0000
 20
0.2500
 30
0.0000
 42
1.0000
  0
VERTEX
  8
0
 10
0.0000
 20
-0.2500
 30
0.0000
  0
SEQEND
  8
0
  0
ENDBLK
  8
0
  0
BLOCK
  8
0
  2
THERMALV
 70
64
 10
0.0000
 20
0.0000
 30
0.0000
  3
THERMALV
  0
POLYLINE
  8
0
 66
1
 10
0.0000
 20
0.0000
 30
0.0000
 40
0.1000
 41
0.1000
 70
0
  0
VERTEX
  8
0
 10
-0.2379
 20
0.4500
 30
0.0000
  0
VERTEX
  8
0
 10
0.2379
 20
0.4500
 30
0.0000
  0
SEQEND
  8
0
  0
POLYLINE
  8
0
 66
1
 10
0.0000
 20
0.0000
 30
0.0000
 40
0.0500
 41
0.0500
 70
0
  0
VERTEX
  8
0
 10
0.2379
 20
0.4250
 30
0.0000
 42
1.0000
  0
VERTEX
  8
0
 10
0.2379
 20
0.4750
 30
0.0000
  0
SEQEND
  8
0
  0
POLYLINE
  8
0
 66
1
 10
0.0000
 20
0.0000
 30
0.0000
 40
0.0500
 41
0.0500
 70
0
  0
VERTEX
  8
0
 10
-0.2379
 20
0.4750
 30
0.0000
 42
1.0000
  0
VERTEX
  8
0
 10
-0.2379
 20
0.4250
 30
0.0000
  0
SEQEND
  8
0
  0
POLYLINE
  8
0
 66
1
 10
0.0000
 20
0.0000
 30
0.0000
 40
0.1000
 41
0.1000
 70
0
  0
VERTEX
  8
0
 10
0.4500
 20
0.2379
 30
0.0000
  0
VERTEX
  8
0
 10
0.4500
 20
-0.2379
 30
0.0000
  0
SEQEND
  8
0
  0
POLYLINE
  8
0
 66
1
 10
0.0000
 20
0.0000
 30
0.0000
 40
0.0500
 41
0.0500
 70
0
  0
VERTEX
  8
0
 10
0.4250
 20
-0.2379
 30
0.0000
 42
1.0000
  0
VERTEX
  8
0
 10
0.4750
 20
-0.2379
 30
0.0000
  0
SEQEND
  8
0
  0
POLYLINE
  8
0
 66
1
 10
0.0000
 20
0.0000
 30
0.0000
 40
0.0500
 41
0.0500
 70
0
  0
VERTEX
  8
0
 10
0.4750
 20
0.2379
 30
0.0000
 42
1.0000
  0
VERTEX
  8
0
 10
0.4250
 20
0.2379
 30
0.0000
  0
SEQEND
  8
0
  0
POLYLINE
  8
0
 66
1
 10
0.0000
 20
0.0000
 30
0.0000
 40
0.1000
 41
0.1000
 70
0
  0
VERTEX
  8
0
 10
0.2379
 20
-0.4500
 30
0.0000
  0
VERTEX
  8
0
 10
-0.2379
 20
-0.4500
 30
0.0000
  0
SEQEND
  8
0
  0
POLYLINE
  8
0
 66
1
 10
0.0000
 20
0.0000
 30
0.0000
 40
0.0500
 41
0.0500
 70
0
  0
VERTEX
  8
0
 10
-0.2379
 20
-0.4250
 30
0.0000
 42
1.0000
  0
VERTEX
  8
0
 10
-0.2379
 20
-0.4750
 30
0.0000
  0
SEQEND
  8
0
  0
POLYLINE
  8
0
 66
1
 10
0.0000
 20
0.0000
 30
0.0000
 40
0.0500
 41
0.0500
 70
0
  0
VERTEX
  8
0
 10
0.2379
 20
-0.4750
 30
0.0000
 42
1.0000
  0
VERTEX
  8
0
 10
0.2379
 20
-0.4250
 30
0.0000
  0
SEQEND
  8
0
  0
POLYLINE
  8
0
 66
1
 10
0.0000
 20
0.0000
 30
0.0000
 40
0.1000
 41
0.1000
 70
0
  0
VERTEX
  8
0
 10
-0.4500
 20
-0.2379
 30
0.0000
  0
VERTEX
  8
0
 10
-0.4500
 20
0.2379
 30
0.0000
  0
SEQEND
  8
0
  0
POLYLINE
  8
0
 66
1
 10
0.0000
 20
0.0000
 30
0.0000
 40
0.0500
 41
0.0500
 70
0
  0
VERTEX
  8
0
 10
-0.4250
 20
0.2379
 30
0.0000
 42
1.0000
  0
VERTEX
  8
0
 10
-0.4750
 20
0.2379
 30
0.0000
  0
SEQEND
  8
0
  0
POLYLINE
  8
0
 66
1
 10
0.0000
 20
0.0000
 30
0.0000
 40
0.0500
 41
0.0500
 70
0
  0
VERTEX
  8
0
 10
-0.4750
 20
-0.2379
 30
0.0000
 42
1.0000
  0
VERTEX
  8
0
 10
-0.4250
 20
-0.2379
 30
0.0000
  0
SEQEND
  8
0
  0
ENDBLK
  8
0
  0
ENDSEC
  0
SECTION
  2
ENTITIES
  0
POLYLINE
  8
20
 66
1
 10
0.0000
 20
0.0000
 30
0.0000
 40
0.2032
 41
0.2032
 70
0
  0
VERTEX
  8
20
 10
0.0000
 20
0.0000
 30
0.0000
  0
VERTEX
  8
20
 10
29.2100
 20
0.0000
 30
0.0000
  0
SEQEND
  8
0
  0
POLYLINE
  8
20
 66
1
 10
0.0000
 20
0.0000
 30
0.0000
 40
0.1016
 41
0.1016
 70
0
  0
VERTEX
  8
20
 10
29.2100
 20
-0.0508
 30
0.0000
 42
1.0000
  0
VERTEX
  8
20
 10
29.2100
 20
0.0508
 30
0.0000
  0
SEQEND
  8
0
  0
POLYLINE
  8
20
 66
1
 10
0.0000
 20
0.0000
 30
0.0000
 40
0.1016
 41
0.1016
 70
0
  0
VERTEX
  8
20
 10
0.0000
 20
0.0508
 30
0.0000
 42
1.0000
  0
VERTEX
  8
20
 10
0.0000
 20
-0.0508
 30
0.0000
  0
SEQEND
  8
0
  0
POLYLINE
  8
20
 66
1
 10
0.0000
 20
0.0000
 30
0.0000
 40
0.2032
 41
0.2032
 70
0
  0
VERTEX
  8
20
 10
29.2100
 20
0.0000
 30
0.0000
  0
VERTEX
  8
20
 10
29.2100
 20
17.7800
 30
0.0000
  0
SEQEND
  8
0
  0
POLYLINE
  8
20
 66
1
 10
0.0000
 20
0.0000
 30
0.0000
 40
0.1016
 41
0.1016
 70
0
  0
VERTEX
  8
20
 10
29.2608
 20
17.7800
 30
0.0000
 42
1.0000
  0
VERTEX
  8
20
 10
29.1592
 20
17.7800
 30
0.0000
  0
SEQEND
  8
0
  0
POLYLINE
  8
20
 66
1
 10
0.0000
 20
0.0000
 30
0.0000
 40
0.1016
 41
0.1016
 70
0
  0
VERTEX
  8
20
 10
29.1592
 20
0.0000
 30
0.0000
 42
1.0000
  0
VERTEX
  8
20
 10
29.2608
 20
0.0000
 30
0.0000
  0
SEQEND
  8
0
  0
POLYLINE
  8
20
 66
1
 10
0.0000
 20
0.0000
 30
0.0000
 40
0.2032
 41
0.2032
 70
0
  0
VERTEX
  8
20
 10
29.2100
 20
17.7800
 30
0.0000
  0
VERTEX
  8
20
 10
0.0000
 20
17.7800
 30
0.0000
  0
SEQEND
  8
0
  0
POLYLINE
  8
20
 66
1
 10
0.0000
 20
0.0000
 30
0.0000
 40
0.1016
 41
0.1016
 70
0
  0
VERTEX
  8
20
 10
0.0000
 20
17.8308
 30
0.0000
 42
1.0000
  0
VERTEX
  8
20
 10
0.0000
 20
17.7292
 30
0.0000
  0
SEQEND
  8
0
  0
POLYLINE
  8
20
 66
1
 10
0.0000
 20
0.0000
 30
0.0000
 40
0.1016
 41
0.1016
 70
0
  0
VERTEX
  8
20
 10
29.2100
 20
17.7292
 30
0.0000
 42
1.0000
  0
VERTEX
  8
20
 10
29.2100
 20
17.8308
 30
0.0000
  0
SEQEND
  8
0
  0
POLYLINE
  8
20
 66
1
 10
0.0000
 20
0.0000
 30
0.0000
 40
0.2032
 41
0.2032
 70
0
  0
VERTEX
  8
20
 10
0.0000
 20
17.7800
 30
0.0000
  0
VERTEX
  8
20
 10
0.0000
 20
0.0000
 30
0.0000
  0
SEQEND
  8
0
  0
POLYLINE
  8
20
 66
1
 10
0.0000
 20
0.0000
 30
0.0000
 40
0.1016
 41
0.1016
 70
0
  0
VERTEX
  8
20
 10
-0.0508
 20
0.0000
 30
0.0000
 42
1.0000
  0
VERTEX
  8
20
 10
0.0508
 20
0.0000
 30
0.0000
  0
SEQEND
  8
0
  0
POLYLINE
  8
20
 66
1
 10
0.0000
 20
0.0000
 30
0.0000
 40
0.1016
 41
0.1016
 70
0
  0
VERTEX
  8
20
 10
0.0508
 20
17.7800
 30
0.0000
 42
1.0000
  0
VERTEX
  8
20
 10
-0.0508
 20
17.7800
 30
0.0000
  0
SEQEND
  8
0
  0
POLYLINE
  8
16
 66
1
 10
0.0000
 20
0.0000
 30
0.0000
 40
0.2032
 41
0.2032
 70
0
  0
VERTEX
  8
16
 10
3.3049
 20
7.5478
 30
0.0000
  0
VERTEX
  8
16
 10
2.7626
 20
7.5478
 30
0.0000
  0
SEQEND
  8
0
  0
POLYLINE
  8
16
 66
1
 10
0.0000
 20
0.0000
 30
0.0000
 40
0.1016
 41
0.1016
 70
0
  0
VERTEX
  8
16
 10
2.7626
 20
7.5986
 30
0.0000
 42
1.0000
  0
VERTEX
  8
16
 10
2.7626
 20
7.4970
 30
0.0000
  0
SEQEND
  8
0
  0
POLYLINE
  8
16
 66
1
 10
0.0000
 20
0.0000
 30
0.0000
 40
0.1016
 41
0.1016
 70
0
  0
VERTEX
  8
16
 10
3.3049
 20
7.4970
 30
0.0000
 42
1.0000
  0
VERTEX
  8
16
 10
3.3049
 20
7.5986
 30
0.0000
  0
SEQEND
  8
0
  0
POLYLINE
  8
16
 66
1
 10
0.0000
 20
0.0000
 30
0.0000
 40
0.2032
 41
0.2032
 70
0
  0
VERTEX
  8
16
 10
2.7626
 20
7.5478
 30
0.0000
  0
VERTEX
  8
16
 10
2.4914
 20
7.8190
 30
0.0000
  0
SEQEND
  8
0
  0
POLYLINE
  8
16
 66
1
 10
0.0000
 20
0.0000
 30
0.0000
 40
0.1016
 41
0.1016
 70
0
  0
VERTEX
  8
16
 10
2.5273
 20
7.8549
 30
0.0000
 42
1.0000
  0
VERTEX
  8
16
 10
2.4555
 20
7.7830
 30
0.0000
  0
SEQEND
  8
0
  0
POLYLINE
  8
16
 66
1
 10
0.0000
 20
0.0000
 30
0.0000
 40
0.1016
 41
0.1016
 70
0
  0
VERTEX
  8
16
 10
2.7266
 20
7.5119
 30
0.0000
 42
1.0000
  0
VERTEX
  8
16
 10
2.7985
 20
7.5837
 30
0.0000
  0
SEQEND
  8
0
  0
POLYLINE
  8
16
 66
1
 10
0.0000
 20
0.0000
 30
0.0000
 40
0.2032
 41
0.2032
 70
0
  0
VERTEX
  8
16
 10
2.4914
 20
7.8190
 30
0.0000
  0
VERTEX
  8
16
 10
2.7626
 20
8.0901
 30
0.0000
  0
SEQEND
  8
0
  0
POLYLINE
  8
16
 66
1
 10
0.0000
 20
0.0000
 30
0.0000
 40
0.1016
 41
0.1016
 70
0
  0
VERTEX
  8
16
 10
2.7985
 20
8.0542
 30
0.0000
 42
1.0000
  0
VERTEX
  8
16
 10
2.7266
 20
8.1260
 30
0.0000
  0
SEQEND
  8
0
  0
POLYLINE
  8
16
 66
1
 10
0.0000
 20
0.0000
 30
0.0000
 40
0.1016
 41
0.1016
 70
0
  0
VERTEX
  8
16
 10
2.4555
 20
7.8549
 30
0.0000
 42
1.0000
  0
VERTEX
  8
16
 10
2.5273
 20
7.7830
 30
0.0000
  0
SEQEND
  8
0
  0
POLYLINE
  8
16
 66
1
 10
0.0000
 20
0.0000
 30
0.0000
 40
0.2032
 41
0.2032
 70
0
  0
VERTEX
  8
16
 10
2.7626
 20
8.0901
 30
0.0000
  0
VERTEX
  8
16
 10
3.3049
 20
8.0901
 30
0.0000
  0
SEQEND
  8
0
  0
POLYLINE
  8
16
 66
1
 10
0.0000
 20
0.0000
 30
0.0000
 40
0.1016
 41
0.1016
 70
0
  0
VERTEX
  8
16
 10
3.3049
 20
8.0393
 30
0.0000
 42
1.0000
  0
VERTEX
  8
16
 10
3.3049
 20
8.1409
 30
0.0000
  0
SEQEND
  8
0
  0
POLYLINE
  8
16
 66
1
 10
0.0000
 20
0.0000
 30
0.0000
 40
0.1016
 41
0.1016
 70
0
  0
VERTEX
  8
16
 10
2.7626
 20
8.1409
 30
0.0000
 42
1.0000
  0
VERTEX
  8
16
 10
2.7626
 20
8.0393
 30
0.0000
  0
SEQEND
  8
0
  0
POLYLINE
  8
16
 66
1
 10
0.0000
 20
0.0000
 30
0.0000
 40
0.2032
 41
0.2032
 70
0
  0
VERTEX
  8
16
 10
2.4914
 20
9.0256
 30
0.0000
  0
VERTEX
  8
16
 10
2.4914
 20
8.4833
 30
0.0000
  0
SEQEND
  8
0
  0
POLYLINE
  8
16
 66
1
 10
0.0000
 20
0.0000
 30
0.0000
 40
0.1016
 41
0.1016
 70
0
  0
VERTEX
  8
16
 10
2.4406
 20
8.4833
 30
0.0000
 42
1.0000
  0
VERTEX
  8
16
 10
2.5422
 20
8.4833
 30
0.0000
  0
SEQEND
  8
0
  0
POLYLINE
  8
16
 66
1
 10
0.0000
 20
0.0000
 30
0.0000
 40
0.1016
 41
0.1016
 70
0
  0
VERTEX
  8
16
 10
2.5422
 20
9.0256
 30
0.0000
 42
1.0000
  0
VERTEX
  8
16
 10
2.4406
 20
9.0256
 30
0.0000
  0
SEQEND
  8
0
  0
POLYLINE
  8
16
 66
1
 10
0.0000
 20
0.0000
 30
0.0000
 40
0.2032
 41
0.2032
 70
0
  0
VERTEX
  8
16
 10
2.4914
 20
8.4833
 30
0.0000
  0
VERTEX
  8
16
 10
3.0337
 20
9.0256
 30
0.0000
  0
SEQEND
  8
0
  0
POLYLINE
  8
16
 66
1
 10
0.0000
 20
0.0000
 30
0.0000
 40
0.1016
 41
0.1016
 70
0
  0
VERTEX
  8
16
 10
3.0696
 20
8.9897
 30
0.0000
 42
1.0000
  0
VERTEX
  8
16
 10
2.9978
 20
9.0616
 30
0.0000
  0
SEQEND
  8
0
  0
POLYLINE
  8
16
 66
1
 10
0.0000
 20
0.0000
 30
0.0000
 40
0.1016
 41
0.1016
 70
0
  0
VERTEX
  8
16
 10
2.4555
 20
8.5192
 30
0.0000
 42
1.0000
  0
VERTEX
  8
16
 10
2.5273
 20
8.4474
 30
0.0000
  0
SEQEND
  8
0
  0
POLYLINE
  8
16
 66
1
 10
0.0000
 20
0.0000
 30
0.0000
 40
0.2032
 41
0.2032
 70
0
  0
VERTEX
  8
16
 10
3.0337
 20
9.0256
 30
0.0000
  0
VERTEX
  8
16
 10
3.1693
 20
9.0256
 30
0.0000
  0
SEQEND
  8
0
  0
POLYLINE
  8
16
 66
1
 10
0.0000
 20
0.0000
 30
0.0000
 40
0.1016
 41
0.1016
 70
0
  0
VERTEX
  8
16
 10
3.1693
 20
8.9748
 30
0.0000
 42
1.0000
  0
VERTEX
  8
16
 10
3.1693
 20
9.0764
 30
0.0000
  0
SEQEND
  8
0
  0
POLYLINE
  8
16
 66
1
 10
0.0000
 20
0.0000
 30
0.0000
 40
0.1016
 41
0.1016
 70
0
  0
VERTEX
  8
16
 10
3.0337
 20
9.0764
 30
0.0000
 42
1.0000
  0
VERTEX
  8
16
 10
3.0337
 20
8.9748
 30
0.0000
  0
SEQEND
  8
0
  0
POLYLINE
  8
16
 66
1
 10
0.0000
 20
0.0000
 30
0.0000
 40
0.2032
 41
0.2032
 70
0
  0
VERTEX
  8
16
 10
3.1693
 20
9.0256
 30
0.0000
  0
VERTEX
  8
16
 10
3.3049
 20
8.8901
 30
0.0000
  0
SEQEND
  8
0
  0
POLYLINE
  8
16
 66
1
 10
0.0000
 20
0.0000
 30
0.0000
 40
0.1016
 41
0.1016
 70
0
  0
VERTEX
  8
16
 10
3.2690
 20
8.8541
 30
0.0000
 42
1.0000
  0
VERTEX
  8
16
 10
3.3408
 20
8.9260
 30
0.0000
  0
SEQEND
  8
0
  0
POLYLINE
  8
16
 66
1
 10
0.0000
 20
0.0000
 30
0.0000
 40
0.1016
 41
0.1016
 70
0
  0
VERTEX
  8
16
 10
3.2052
 20
9.0616
 30
0.0000
 42
1.0000
  0
VERTEX
  8
16
 10
3.1334
 20
8.9897
 30
0.0000
  0
SEQEND
  8
0
  0
POLYLINE
  8
16
 66
1
 10
0.0000
 20
0.0000
 30
0.0000
 40
0.2032
 41
0.2032
 70
0
  0
VERTEX
  8
16
 10
3.3049
 20
8.8901
 30
0.0000
  0
VERTEX
  8
16
 10
3.3049
 20
8.6189
 30
0.0000
  0
SEQEND
  8
0
  0
POLYLINE
  8
16
 66
1
 10
0.0000
 20
0.0000
 30
0.0000
 40
0.1016
 41
0.1016
 70
0
  0
VERTEX
  8
16
 10
3.2541
 20
8.6189
 30
0.0000
 42
1.0000
  0
VERTEX
  8
16
 10
3.3557
 20
8.6189
 30
0.0000
  0
SEQEND
  8
0
  0
POLYLINE
  8
16
 66
1
 10
0.0000
 20
0.0000
 30
0.0000
 40
0.1016
 41
0.1016
 70
0
  0
VERTEX
  8
16
 10
3.3557
 20
8.8901
 30
0.0000
 42
1.0000
  0
VERTEX
  8
16
 10
3.2541
 20
8.8901
 30
0.0000
  0
SEQEND
  8
0
  0
POLYLINE
  8
16
 66
1
 10
0.0000
 20
0.0000
 30
0.0000
 40
0.2032
 41
0.2032
 70
0
  0
VERTEX
  8
16
 10
3.3049
 20
8.6189
 30
0.0000
  0
VERTEX
  8
16
 10
3.1693
 20
8.4833
 30
0.0000
  0
SEQEND
  8
0
  0
POLYLINE
  8
16
 66
1
 10
0.0000
 20
0.0000
 30
0.0000
 40
0.1016
 41
0.1016
 70
0
  0
VERTEX
  8
16
 10
3.1334
 20
8.5192
 30
0.0000
 42
1.0000
  0
VERTEX
  8
16
 10
3.2052
 20
8.4474
 30
0.0000
  0
SEQEND
  8
0
  0
POLYLINE
  8
16
 66
1
 10
0.0000
 20
0.0000
 30
0.0000
 40
0.1016
 41
0.1016
 70
0
  0
VERTEX
  8
16
 10
3.3408
 20
8.5830
 30
0.0000
 42
1.0000
  0
VERTEX
  8
16
 10
3.2690
 20
8.6548
 30
0.0000
  0
SEQEND
  8
0
  0
POLYLINE
  8
16
 66
1
 10
0.0000
 20
0.0000
 30
0.0000
 40
0.2032
 41
0.2032
 70
0
  0
VERTEX
  8
16
 10
2.4914
 20
9.4188
 30
0.0000
  0
VERTEX
  8
16
 10
2.6270
 20
9.4188
 30
0.0000
  0
SEQEND
  8
0
  0
POLYLINE
  8
16
 66
1
 10
0.0000
 20
0.0000
 30
0.0000
 40
0.1016
 41
0.1016
 70
0
  0
VERTEX
  8
16
 10
2.6270
 20
9.3680
 30
0.0000
 42
1.0000
  0
VERTEX
  8
16
 10
2.6270
 20
9.4696
 30
0.0000
  0
SEQEND
  8
0
  0
POLYLINE
  8
16
 66
1
 10
0.0000
 20
0.0000
 30
0.0000
 40
0.1016
 41
0.1016
 70
0
  0
VERTEX
  8
16
 10
2.4914
 20
9.4696
 30
0.0000
 42
1.0000
  0
VERTEX
  8
16
 10
2.4914
 20
9.3680
 30
0.0000
  0
SEQEND
  8
0
  0
POLYLINE
  8
16
 66
1
 10
0.0000
 20
0.0000
 30
0.0000
 40
0.2032
 41
0.2032
 70
0
  0
VERTEX
  8
16
 10
2.6270
 20
9.4188
 30
0.0000
  0
VERTEX
  8
16
 10
2.6270
 20
9.5544
 30
0.0000
  0
SEQEND
  8
0
  0
POLYLINE
  8
16
 66
1
 10
0.0000
 20
0.0000
 30
0.0000
 40
0.1016
 41
0.1016
 70
0
  0
VERTEX
  8
16
 10
2.6778
 20
9.5544
 30
0.0000
 42
1.0000
  0
VERTEX
  8
16
 10
2.5762
 20
9.5544
 30
0.0000
  0
SEQEND
  8
0
  0
POLYLINE
  8
16
 66
1
 10
0.0000
 20
0.0000
 30
0.0000
 40
0.1016
 41
0.1016
 70
0
  0
VERTEX
  8
16
 10
2.5762
 20
9.4188
 30
0.0000
 42
1.0000
  0
VERTEX
  8
16
 10
2.6778
 20
9.4188
 30
0.0000
  0
SEQEND
  8
0
  0
POLYLINE
  8
16
 66
1
 10
0.0000
 20
0.0000
 30
0.0000
 40
0.2032
 41
0.2032
 70
0
  0
VERTEX
  8
16
 10
2.6270
 20
9.5544
 30
0.0000
  0
VERTEX
  8
16
 10
2.4914
 20
9.5544
 30
0.0000
  0
SEQEND
  8
0
  0
POLYLINE
  8
16
 66
1
 10
0.0000
 20
0.0000
 30
0.0000
 40
0.1016
 41
0.1016
 70
0
  0
VERTEX
  8
16
 10
2.4914
 20
9.6052
 30
0.0000
 42
1.0000
  0
VERTEX
  8
16
 10
2.4914
 20
9.5036
 30
0.0000
  0
SEQEND
  8
0
  0
POLYLINE
  8
16
 66
1
 10
0.0000
 20
0.0000
 30
0.0000
 40
0.1016
 41
0.1016
 70
0
  0
VERTEX
  8
16
 10
2.6270
 20
9.5036
 30
0.0000
 42
1.0000
  0
VERTEX
  8
16
 10
2.6270
 20
9.6052
 30
0.0000
  0
SEQEND
  8
0
  0
POLYLINE
  8
16
 66
1
 10
0.0000
 20
0.0000
 30
0.0000
 40
0.2032
 41
0.2032
 70
0
  0
VERTEX
  8
16
 10
2.4914
 20
9.5544
 30
0.0000
  0
VERTEX
  8
16
 10
2.4914
 20
9.4188
 30
0.0000
  0
SEQEND
  8
0
  0
POLYLINE
  8
16
 66
1
 10
0.0000
 20
0.0000
 30
0.0000
 40
0.1016
 41
0.1016
 70
0
  0
VERTEX
  8
16
 10
2.4406
 20
9.4188
 30
0.0000
 42
1.0000
  0
VERTEX
  8
16
 10
2.5422
 20
9.4188
 30
0.0000
  0
SEQEND
  8
0
  0
POLYLINE
  8
16
 66
1
 10
0.0000
 20
0.0000
 30
0.0000
 40
0.1016
 41
0.1016
 70
0
  0
VERTEX
  8
16
 10
2.5422
 20
9.5544
 30
0.0000
 42
1.0000
  0
VERTEX
  8
16
 10
2.4406
 20
9.5544
 30
0.0000
  0
SEQEND
  8
0
  0
POLYLINE
  8
16
 66
1
 10
0.0000
 20
0.0000
 30
0.0000
 40
0.2032
 41
0.2032
 70
0
  0
VERTEX
  8
16
 10
3.0337
 20
9.8866
 30
0.0000
  0
VERTEX
  8
16
 10
3.3049
 20
10.1578
 30
0.0000
  0
SEQEND
  8
0
  0
POLYLINE
  8
16
 66
1
 10
0.0000
 20
0.0000
 30
0.0000
 40
0.1016
 41
0.1016
 70
0
  0
VERTEX
  8
16
 10
3.3408
 20
10.1218
 30
0.0000
 42
1.0000
  0
VERTEX
  8
16
 10
3.2690
 20
10.1937
 30
0.0000
  0
SEQEND
  8
0
  0
POLYLINE
  8
16
 66
1
 10
0.0000
 20
0.0000
 30
0.0000
 40
0.1016
 41
0.1016
 70
0
  0
VERTEX
  8
16
 10
2.9978
 20
9.9225
 30
0.0000
 42
1.0000
  0
VERTEX
  8
16
 10
3.0696
 20
9.8507
 30
0.0000
  0
SEQEND
  8
0
  0
POLYLINE
  8
16
 66
1
 10
0.0000
 20
0.0000
 30
0.0000
 40
0.2032
 41
0.2032
 70
0
  0
VERTEX
  8
16
 10
3.3049
 20
10.1578
 30
0.0000
  0
VERTEX
  8
16
 10
2.4914
 20
10.1578
 30
0.0000
  0
SEQEND
  8
0
  0
POLYLINE
  8
16
 66
1
 10
0.0000
 20
0.0000
 30
0.0000
 40
0.1016
 41
0.1016
 70
0
  0
VERTEX
  8
16
 10
2.4914
 20
10.2086
 30
0.0000
 42
1.0000
  0
VERTEX
  8
16
 10
2.4914
 20
10.1070
 30
0.0000
  0
SEQEND
  8
0
  0
POLYLINE
  8
16
 66
1
 10
0.0000
 20
0.0000
 30
0.0000
 40
0.1016
 41
0.1016
 70
0
  0
VERTEX
  8
16
 10
3.3049
 20
10.1070
 30
0.0000
 42
1.0000
  0
VERTEX
  8
16
 10
3.3049
 20
10.2086
 30
0.0000
  0
SEQEND
  8
0
  0
POLYLINE
  8
16
 66
1
 10
0.0000
 20
0.0000
 30
0.0000
 40
0.2032
 41
0.2032
 70
0
  0
VERTEX
  8
16
 10
2.4914
 20
9.8866
 30
0.0000
  0
VERTEX
  8
16
 10
2.4914
 20
10.4289
 30
0.0000
  0
SEQEND
  8
0
  0
POLYLINE
  8
16
 66
1
 10
0.0000
 20
0.0000
 30
0.0000
 40
0.1016
 41
0.1016
 70
0
  0
VERTEX
  8
16
 10
2.5422
 20
10.4289
 30
0.0000
 42
1.0000
  0
VERTEX
  8
16
 10
2.4406
 20
10.4289
 30
0.0000
  0
SEQEND
  8
0
  0
POLYLINE
  8
16
 66
1
 10
0.0000
 20
0.0000
 30
0.0000
 40
0.1016
 41
0.1016
 70
0
  0
VERTEX
  8
16
 10
2.4406
 20
9.8866
 30
0.0000
 42
1.0000
  0
VERTEX
  8
16
 10
2.5422
 20
9.8866
 30
0.0000
  0
SEQEND
  8
0
  0
POINT
  8
24
 10
4.4450
 20
8.8900
 30
0.0000
  0
INSERT
  8
16
  2
RECT
 10
1.2450
 20
8.8900
 30
0.0000
 41
5.0000
 42
1.6000
 43
1.0000
 50
90.0000
  0
INSERT
  8
16
  2
RECT
 10
7.2450
 20
8.8900
 30
0.0000
 41
5.0000
 42
2.4000
 43
1.0000
 50
90.0000
  0
POINT
  8
24
 10
1.2700
 20
16.5100
 30
0.0000
  0
INSERT
  8
17
  2
SQUAREP
 10
1.2700
 20
16.5100
 30
0.0000
 41
1.8796
 42
1.8796
 43
1.0000
 50
270.0000
  0
INSERT
  8
17
  2
ROUNDP
 10
3.8100
 20
16.5100
 30
0.0000
 41
1.8796
 42
1.8796
 43
1.0000
 50
270.0000
  0
INSERT
  8
17
  2
ROUNDP
 10
6.3500
 20
16.5100
 30
0.0000
 41
1.8796
 42
1.8796
 43
1.0000
 50
270.0000
  0
INSERT
  8
17
  2
ROUNDP
 10
8.8900
 20
16.5100
 30
0.0000
 41
1.8796
 42
1.8796
 43
1.0000
 50
270.0000
  0
POINT
  8
24
 10
1.2700
 20
1.2700
 30
0.0000
  0
INSERT
  8
17
  2
SQUAREP
 10
1.2700
 20
1.2700
 30
0.0000
 41
1.8796
 42
1.8796
 43
1.0000
 50
270.0000
  0
INSERT
  8
17
  2
ROUNDP
 10
3.8100
 20
1.2700
 30
0.0000
 41
1.8796
 42
1.8796
 43
1.0000
 50
270.0000
  0
INSERT
  8
17
  2
ROUNDP
 10
6.3500
 20
1.2700
 30
0.0000
 41
1.8796
 42
1.8796
 43
1.0000
 50
270.0000
  0
INSERT
  8
17
  2
ROUNDP
 10
8.8900
 20
1.2700
 30
0.0000
 41
1.8796
 42
1.8796
 43
1.0000
 50
270.0000
  0
POINT
  8
24
 10
11.4300
 20
16.5100
 30
0.0000
  0
INSERT
  8
17
  2
SQUAREP
 10
11.4300
 20
16.5100
 30
0.0000
 41
1.8796
 42
1.8796
 43
1.0000
 50
270.0000
  0
INSERT
  8
17
  2
ROUNDP
 10
13.9700
 20
16.5100
 30
0.0000
 41
1.8796
 42
1.8796
 43
1.0000
 50
270.0000
  0
INSERT
  8
17
  2
ROUNDP
 10
16.5100
 20
16.5100
 30
0.0000
 41
1.8796
 42
1.8796
 43
1.0000
 50
270.0000
  0
INSERT
  8
17
  2
ROUNDP
 10
19.0500
 20
16.5100
 30
0.0000
 41
1.8796
 42
1.8796
 43
1.0000
 50
270.0000
  0
POINT
  8
24
 10
11.4300
 20
1.2700
 30
0.0000
  0
INSERT
  8
17
  2
SQUAREP
 10
11.4300
 20
1.2700
 30
0.0000
 41
1.8796
 42
1.8796
 43
1.0000
 50
270.0000
  0
INSERT
  8
17
  2
ROUNDP
 10
13.9700
 20
1.2700
 30
0.0000
 41
1.8796
 42
1.8796
 43
1.0000
 50
270.0000
  0
INSERT
  8
17
  2
ROUNDP
 10
16.5100
 20
1.2700
 30
0.0000
 41
1.8796
 42
1.8796
 43
1.0000
 50
270.0000
  0
INSERT
  8
17
  2
ROUNDP
 10
19.0500
 20
1.2700
 30
0.0000
 41
1.8796
 42
1.8796
 43
1.0000
 50
270.0000
  0
INSERT
  8
16
  2
RECT
 10
27.0764
 20
9.5504
 30
0.0000
 41
1.5240
 42
4.0640
 43
1.0000
 50
90.0000
  0
INSERT
  8
16
  2
RECT
 10
27.0764
 20
14.6304
 30
0.0000
 41
1.5240
 42
4.0640
 43
1.0000
 50
90.0000
  0
POINT
  8
24
 10
10.8331
 20
8.2931
 30
0.0000
  0
POINT
  8
24
 10
23.4950
 20
7.6200
 30
0.0000
  0
POINT
  8
24
 10
20.6375
 20
12.0900
 30
0.0000
  0
INSERT
  8
16
  2
RECT
 10
20.5041
 20
12.0900
 30
0.0000
 41
0.3048
 42
0.3048
 43
1.0000
 50
0.0000
  0
INSERT
  8
16
  2
RECT
 10
20.7708
 20
12.0900
 30
0.0000
 41
0.3048
 42
0.3048
 43
1.0000
 50
0.0000
  0
POINT
  8
24
 10
24.7650
 20
3.8100
 30
0.0000
  0
POLYLINE
  8
16
 66
1
 10
0.0000
 20
0.0000
 30
0.0000
 40
0.4064
 41
0.4064
 70
0
  0
VERTEX
  8
16
 10
18.5420
 20
12.6492
 30
0.0000
  0
VERTEX
  8
16
 10
17.0180
 20
11.1506
 30
0.0000
  0
SEQEND
  8
0
  0
POLYLINE
  8
16
 66
1
 10
0.0000
 20
0.0000
 30
0.0000
 40
0.2032
 41
0.2032
 70
0
  0
VERTEX
  8
16
 10
16.9468
 20
11.2230
 30
0.0000
 42
1.0000
  0
VERTEX
  8
16
 10
17.0892
 20
11.0782
 30
0.0000
  0
SEQEND
  8
0
  0
POLYLINE
  8
16
 66
1
 10
0.0000
 20
0.0000
 30
0.0000
 40
0.2032
 41
0.2032
 70
0
  0
VERTEX
  8
16
 10
18.6132
 20
12.5768
 30
0.0000
 42
1.0000
  0
VERTEX
  8
16
 10
18.4708
 20
12.7216
 30
0.0000
  0
SEQEND
  8
0
  0
POLYLINE
  8
16
 66
1
 10
0.0000
 20
0.0000
 30
0.0000
 40
0.4064
 41
0.4064
 70
0
  0
VERTEX
  8
16
 10
17.5387
 20
13.6525
 30
0.0000
  0
VERTEX
  8
16
 10
18.5420
 20
12.6492
 30
0.0000
  0
SEQEND
  8
0
  0
POLYLINE
  8
16
 66
1
 10
0.0000
 20
0.0000
 30
0.0000
 40
0.2032
 41
0.2032
 70
0
  0
VERTEX
  8
16
 10
18.4702
 20
12.5774
 30
0.0000
 42
1.0000
  0
VERTEX
  8
16
 10
18.6138
 20
12.7210
 30
0.0000
  0
SEQEND
  8
0
  0
POLYLINE
  8
16
 66
1
 10
0.0000
 20
0.0000
 30
0.0000
 40
0.2032
 41
0.2032
 70
0
  0
VERTEX
  8
16
 10
17.6105
 20
13.7243
 30
0.0000
 42
1.0000
  0
VERTEX
  8
16
 10
17.4669
 20
13.5807
 30
0.0000
  0
SEQEND
  8
0
  0
POLYLINE
  8
16
 66
1
 10
0.0000
 20
0.0000
 30
0.0000
 40
0.4064
 41
0.4064
 70
0
  0
VERTEX
  8
16
 10
14.2875
 20
13.6525
 30
0.0000
  0
VERTEX
  8
16
 10
17.5387
 20
13.6525
 30
0.0000
  0
SEQEND
  8
0
  0
POLYLINE
  8
16
 66
1
 10
0.0000
 20
0.0000
 30
0.0000
 40
0.2032
 41
0.2032
 70
0
  0
VERTEX
  8
16
 10
17.5387
 20
13.5509
 30
0.0000
 42
1.0000
  0
VERTEX
  8
16
 10
17.5387
 20
13.7541
 30
0.0000
  0
SEQEND
  8
0
  0
POLYLINE
  8
16
 66
1
 10
0.0000
 20
0.0000
 30
0.0000
 40
0.2032
 41
0.2032
 70
0
  0
VERTEX
  8
16
 10
14.2875
 20
13.7541
 30
0.0000
 42
1.0000
  0
VERTEX
  8
16
 10
14.2875
 20
13.5509
 30
0.0000
  0
SEQEND
  8
0
  0
POLYLINE
  8
16
 66
1
 10
0.0000
 20
0.0000
 30
0.0000
 40
0.4064
 41
0.4064
 70
0
  0
VERTEX
  8
16
 10
12.7250
 20
12.0900
 30
0.0000
  0
VERTEX
  8
16
 10
14.2875
 20
13.6525
 30
0.0000
  0
SEQEND
  8
0
  0
POLYLINE
  8
16
 66
1
 10
0.0000
 20
0.0000
 30
0.0000
 40
0.2032
 41
0.2032
 70
0
  0
VERTEX
  8
16
 10
14.3593
 20
13.5807
 30
0.0000
 42
1.0000
  0
VERTEX
  8
16
 10
14.2157
 20
13.7243
 30
0.0000
  0
SEQEND
  8
0
  0
POLYLINE
  8
16
 66
1
 10
0.0000
 20
0.0000
 30
0.0000
 40
0.2032
 41
0.2032
 70
0
  0
VERTEX
  8
16
 10
12.6532
 20
12.1618
 30
0.0000
 42
1.0000
  0
VERTEX
  8
16
 10
12.7968
 20
12.0182
 30
0.0000
  0
SEQEND
  8
0
  0
POLYLINE
  8
16
 66
1
 10
0.0000
 20
0.0000
 30
0.0000
 40
0.4064
 41
0.4064
 70
0
  0
VERTEX
  8
16
 10
11.4300
 20
12.0900
 30
0.0000
  0
VERTEX
  8
16
 10
12.7250
 20
12.0900
 30
0.0000
  0
SEQEND
  8
0
  0
POLYLINE
  8
16
 66
1
 10
0.0000
 20
0.0000
 30
0.0000
 40
0.2032
 41
0.2032
 70
0
  0
VERTEX
  8
16
 10
12.7250
 20
11.9884
 30
0.0000
 42
1.0000
  0
VERTEX
  8
16
 10
12.7250
 20
12.1916
 30
0.0000
  0
SEQEND
  8
0
  0
POLYLINE
  8
16
 66
1
 10
0.0000
 20
0.0000
 30
0.0000
 40
0.2032
 41
0.2032
 70
0
  0
VERTEX
  8
16
 10
11.4300
 20
12.1916
 30
0.0000
 42
1.0000
  0
VERTEX
  8
16
 10
11.4300
 20
11.9884
 30
0.0000
  0
SEQEND
  8
0
  0
INSERT
  8
18
  2
ROUNDV
 10
17.0180
 20
11.1506
 30
0.0000
 41
0.8890
 42
0.8890
 43
1.0000
 50
0.0000
  0
INSERT
  8
18
  2
ROUNDV
 10
17.0180
 20
11.1506
 30
0.0000
 41
0.8890
 42
0.8890
 43
1.0000
 50
0.0000
  0
INSERT
  8
18
  2
ROUNDV
 10
18.5420
 20
12.6492
 30
0.0000
 41
0.8890
 42
0.8890
 43
1.0000
 50
0.0000
  0
INSERT
  8
18
  2
ROUNDV
 10
18.5420
 20
12.6492
 30
0.0000
 41
0.8890
 42
0.8890
 43
1.0000
 50
0.0000
  0
INSERT
  8
18
  2
ROUNDV
 10
11.4300
 20
12.0900
 30
0.0000
 41
1.0160
 42
1.0160
 43
1.0000
 50
0.0000
  0
INSERT
  8
18
  2
ROUNDV
 10
11.4300
 20
12.0900
 30
0.0000
 41
1.0160
 42
1.0160
 43
1.0000
 50
0.0000
  0
POLYLINE
  8
16
 66
1
 10
0.0000
 20
0.0000
 30
0.0000
 40
0.2032
 41
0.2032
 70
0
  0
VERTEX
  8
16
 10
0.0000
 20
17.7800
 30
0.0000
  0
VERTEX
  8
16
 10
20.3200
 20
17.7800
 30
0.0000
  0
SEQEND
  8
0
  0
POLYLINE
  8
16
 66
1
 10
0.0000
 20
0.0000
 30
0.0000
 40
0.1016
 41
0.1016
 70
0
  0
VERTEX
  8
16
 10
20.3200
 20
17.7292
 30
0.0000
 42
1.0000
  0
VERTEX
  8
16
 10
20.3200
 20
17.8308
 30
0.0000
  0
SEQEND
  8
0
  0
POLYLINE
  8
16
 66
1
 10
0.0000
 20
0.0000
 30
0.0000
 40
0.1016
 41
0.1016
 70
0
  0
VERTEX
  8
16
 10
0.0000
 20
17.8308
 30
0.0000
 42
1.0000
  0
VERTEX
  8
16
 10
0.0000
 20
17.7292
 30
0.0000
  0
SEQEND
  8
0
  0
POLYLINE
  8
16
 66
1
 10
0.0000
 20
0.0000
 30
0.0000
 40
0.2032
 41
0.2032
 70
0
  0
VERTEX
  8
16
 10
20.3200
 20
17.7800
 30
0.0000
  0
VERTEX
  8
16
 10
20.3200
 20
0.0000
 30
0.0000
  0
SEQEND
  8
0
  0
POLYLINE
  8
16
 66
1
 10
0.0000
 20
0.0000
 30
0.0000
 40
0.1016
 41
0.1016
 70
0
  0
VERTEX
  8
16
 10
20.2692
 20
0.0000
 30
0.0000
 42
1.0000
  0
VERTEX
  8
16
 10
20.3708
 20
0.0000
 30
0.0000
  0
SEQEND
  8
0
  0
POLYLINE
  8
16
 66
1
 10
0.0000
 20
0.0000
 30
0.0000
 40
0.1016
 41
0.1016
 70
0
  0
VERTEX
  8
16
 10
20.3708
 20
17.7800
 30
0.0000
 42
1.0000
  0
VERTEX
  8
16
 10
20.2692
 20
17.7800
 30
0.0000
  0
SEQEND
  8
0
  0
POLYLINE
  8
16
 66
1
 10
0.0000
 20
0.0000
 30
0.0000
 40
0.2032
 41
0.2032
 70
0
  0
VERTEX
  8
16
 10
20.3200
 20
0.0000
 30
0.0000
  0
VERTEX
  8
16
 10
0.0000
 20
0.0000
 30
0.0000
  0
SEQEND
  8
0
  0
POLYLINE
  8
16
 66
1
 10
0.0000
 20
0.0000
 30
0.0000
 40
0.1016
 41
0.1016
 70
0
  0
VERTEX
  8
16
 10
0.0000
 20
0.0508
 30
0.0000
 42
1.0000
  0
VERTEX
  8
16
 10
0.0000
 20
-0.0508
 30
0.0000
  0
SEQEND
  8
0
  0
POLYLINE
  8
16
 66
1
 10
0.0000
 20
0.0000
 30
0.0000
 40
0.1016
 41
0.1016
 70
0
  0
VERTEX
  8
16
 10
20.3200
 20
-0.0508
 30
0.0000
 42
1.0000
  0
VERTEX
  8
16
 10
20.3200
 20
0.0508
 30
0.0000
  0
SEQEND
  8
0
  0
POLYLINE
  8
16
 66
1
 10
0.0000
 20
0.0000
 30
0.0000
 40
0.2032
 41
0.2032
 70
0
  0
VERTEX
  8
16
 10
0.0000
 20
0.0000
 30
0.0000
  0
VERTEX
  8
16
 10
0.0000
 20
17.7800
 30
0.0000
  0
SEQEND
  8
0
  0
POLYLINE
  8
16
 66
1
 10
0.0000
 20
0.0000
 30
0.0000
 40
0.1016
 41
0.1016
 70
0
  0
VERTEX
  8
16
 10
0.0508
 20
17.7800
 30
0.0000
 42
1.0000
  0
VERTEX
  8
16
 10
-0.0508
 20
17.7800
 30
0.0000
  0
SEQEND
  8
0
  0
POLYLINE
  8
16
 66
1
 10
0.0000
 20
0.0000
 30
0.0000
 40
0.1016
 41
0.1016
 70
0
  0
VERTEX
  8
16
 10
-0.0508
 20
0.0000
 30
0.0000
 42
1.0000
  0
VERTEX
  8
16
 10
0.0508
 20
0.0000
 30
0.0000
  0
SEQEND
  8
0
  0
POLYLINE
  8
16
 66
1
 10
0.0000
 20
0.0000
 30
0.0000
 40
0.4064
 41
0.4064
 70
0
  0
VERTEX
  8
16
 10
19.4800
 20
12.0900
 30
0.0000
  0
VERTEX
  8
16
 10
19.2800
 20
11.8900
 30
0.0000
  0
SEQEND
  8
0
  0
POLYLINE
  8
16
 66
1
 10
0.0000
 20
0.0000
 30
0.0000
 40
0.2032
 41
0.2032
 70
0
  0
VERTEX
  8
16
 10
19.2082
 20
11.9618
 30
0.0000
 42
1.0000
  0
VERTEX
  8
16
 10
19.3518
 20
11.8182
 30
0.0000
  0
SEQEND
  8
0
  0
POLYLINE
  8
16
 66
1
 10
0.0000
 20
0.0000
 30
0.0000
 40
0.2032
 41
0.2032
 70
0
  0
VERTEX
  8
16
 10
19.5518
 20
12.0182
 30
0.0000
 42
1.0000
  0
VERTEX
  8
16
 10
19.4082
 20
12.1618
 30
0.0000
  0
SEQEND
  8
0
  0
POLYLINE
  8
16
 66
1
 10
0.0000
 20
0.0000
 30
0.0000
 40
0.4064
 41
0.4064
 70
0
  0
VERTEX
  8
16
 10
19.2800
 20
11.8900
 30
0.0000
  0
VERTEX
  8
16
 10
19.2800
 20
11.8886
 30
0.0000
  0
SEQEND
  8
0
  0
POLYLINE
  8
16
 66
1
 10
0.0000
 20
0.0000
 30
0.0000
 40
0.2032
 41
0.2032
 70
0
  0
VERTEX
  8
16
 10
19.1784
 20
11.8886
 30
0.0000
 42
1.0000
  0
VERTEX
  8
16
 10
19.3816
 20
11.8886
 30
0.0000
  0
SEQEND
  8
0
  0
POLYLINE
  8
16
 66
1
 10
0.0000
 20
0.0000
 30
0.0000
 40
0.2032
 41
0.2032
 70
0
  0
VERTEX
  8
16
 10
19.3816
 20
11.8900
 30
0.0000
 42
1.0000
  0
VERTEX
  8
16
 10
19.1784
 20
11.8900
 30
0.0000
  0
SEQEND
  8
0
  0
POLYLINE
  8
16
 66
1
 10
0.0000
 20
0.0000
 30
0.0000
 40
0.4064
 41
0.4064
 70
0
  0
VERTEX
  8
16
 10
19.2800
 20
11.8886
 30
0.0000
  0
VERTEX
  8
16
 10
18.5420
 20
11.1506
 30
0.0000
  0
SEQEND
  8
0
  0
POLYLINE
  8
16
 66
1
 10
0.0000
 20
0.0000
 30
0.0000
 40
0.2032
 41
0.2032
 70
0
  0
VERTEX
  8
16
 10
18.4702
 20
11.2224
 30
0.0000
 42
1.0000
  0
VERTEX
  8
16
 10
18.6138
 20
11.0788
 30
0.0000
  0
SEQEND
  8
0
  0
POLYLINE
  8
16
 66
1
 10
0.0000
 20
0.0000
 30
0.0000
 40
0.2032
 41
0.2032
 70
0
  0
VERTEX
  8
16
 10
19.3518
 20
11.8168
 30
0.0000
 42
1.0000
  0
VERTEX
  8
16
 10
19.2082
 20
11.9604
 30
0.0000
  0
SEQEND
  8
0
  0
POLYLINE
  8
16
 66
1
 10
0.0000
 20
0.0000
 30
0.0000
 40
0.3048
 41
0.3048
 70
0
  0
VERTEX
  8
16
 10
20.5041
 20
12.0900
 30
0.0000
  0
VERTEX
  8
16
 10
19.2800
 20
12.0900
 30
0.0000
  0
SEQEND
  8
0
  0
POLYLINE
  8
16
 66
1
 10
0.0000
 20
0.0000
 30
0.0000
 40
0.1524
 41
0.1524
 70
0
  0
VERTEX
  8
16
 10
19.2800
 20
12.1662
 30
0.0000
 42
1.0000
  0
VERTEX
  8
16
 10
19.2800
 20
12.0138
 30
0.0000
  0
SEQEND
  8
0
  0
POLYLINE
  8
16
 66
1
 10
0.0000
 20
0.0000
 30
0.0000
 40
0.1524
 41
0.1524
 70
0
  0
VERTEX
  8
16
 10
20.5041
 20
12.0138
 30
0.0000
 42
1.0000
  0
VERTEX
  8
16
 10
20.5041
 20
12.1662
 30
0.0000
  0
SEQEND
  8
0
  0
POLYLINE
  8
16
 66
1
 10
0.0000
 20
0.0000
 30
0.0000
 40
0.3048
 41
0.3048
 70
0
  0
VERTEX
  8
16
 10
19.2800
 20
12.0900
 30
0.0000
  0
VERTEX
  8
16
 10
19.2800
 20
11.8900
 30
0.0000
  0
SEQEND
  8
0
  0
POLYLINE
  8
16
 66
1
 10
0.0000
 20
0.0000
 30
0.0000
 40
0.1524
 41
0.1524
 70
0
  0
VERTEX
  8
16
 10
19.2038
 20
11.8900
 30
0.0000
 42
1.0000
  0
VERTEX
  8
16
 10
19.3562
 20
11.8900
 30
0.0000
  0
SEQEND
  8
0
  0
POLYLINE
  8
16
 66
1
 10
0.0000
 20
0.0000
 30
0.0000
 40
0.1524
 41
0.1524
 70
0
  0
VERTEX
  8
16
 10
19.3562
 20
12.0900
 30
0.0000
 42
1.0000
  0
VERTEX
  8
16
 10
19.2038
 20
12.0900
 30
0.0000
  0
SEQEND
  8
0
  0
INSERT
  8
18
  2
ROUNDV
 10
4.1275
 20
10.1600
 30
0.0000
 41
1.0160
 42
1.0160
 43
1.0000
 50
0.0000
  0
INSERT
  8
18
  2
ROUNDV
 10
4.1275
 20
10.1600
 30
0.0000
 41
1.0160
 42
1.0160
 43
1.0000
 50
0.0000
  0
INSERT
  8
18
  2
ROUNDV
 10
11.4300
 20
9.5250
 30
0.0000
 41
1.0160
 42
1.0160
 43
1.0000
 50
0.0000
  0
INSERT
  8
18
  2
ROUNDV
 10
11.4300
 20
9.5250
 30
0.0000
 41
1.0160
 42
1.0160
 43
1.0000
 50
0.0000
  0
INSERT
  8
18
  2
ROUNDV
 10
11.4300
 20
3.4925
 30
0.0000
 41
1.0160
 42
1.0160
 43
1.0000
 50
0.0000
  0
INSERT
  8
18
  2
ROUNDV
 10
11.4300
 20
3.4925
 30
0.0000
 41
1.0160
 42
1.0160
 43
1.0000
 50
0.0000
  0
INSERT
  8
18
  2
ROUNDV
 10
5.0800
 20
13.9700
 30
0.0000
 41
1.0160
 42
1.0160
 43
1.0000
 50
0.0000
  0
INSERT
  8
18
  2
ROUNDV
 10
5.0800
 20
13.9700
 30
0.0000
 41
1.0160
 42
1.0160
 43
1.0000
 50
0.0000
  0
INSERT
  8
18
  2
ROUNDV
 10
18.5420
 20
11.1506
 30
0.0000
 41
0.8890
 42
0.8890
 43
1.0000
 50
0.0000
  0
INSERT
  8
18
  2
ROUNDV
 10
18.5420
 20
11.1506
 30
0.0000
 41
0.8890
 42
0.8890
 43
1.0000
 50
0.0000
  0
POLYLINE
  8
16
 66
1
 10
0.0000
 20
0.0000
 30
0.0000
 40
0.2540
 41
0.2540
 70
0
  0
VERTEX
  8
16
 10
6.3500
 20
1.2700
 30
0.0000
  0
VERTEX
  8
16
 10
11.4300
 20
6.3500
 30
0.0000
  0
SEQEND
  8
0
  0
POLYLINE
  8
16
 66
1
 10
0.0000
 20
0.0000
 30
0.0000
 40
0.1270
 41
0.1270
 70
0
  0
VERTEX
  8
16
 10
11.4749
 20
6.3051
 30
0.0000
 42
1.0000
  0
VERTEX
  8
16
 10
11.3851
 20
6.3949
 30
0.0000
  0
SEQEND
  8
0
  0
POLYLINE
  8
16
 66
1
 10
0.0000
 20
0.0000
 30
0.0000
 40
0.1270
 41
0.1270
 70
0
  0
VERTEX
  8
16
 10
6.3051
 20
1.3149
 30
0.0000
 42
1.0000
  0
VERTEX
  8
16
 10
6.3949
 20
1.2251
 30
0.0000
  0
SEQEND
  8
0
  0
POLYLINE
  8
16
 66
1
 10
0.0000
 20
0.0000
 30
0.0000
 40
0.2540
 41
0.2540
 70
0
  0
VERTEX
  8
16
 10
11.4300
 20
6.3500
 30
0.0000
  0
VERTEX
  8
16
 10
11.4300
 20
7.9375
 30
0.0000
  0
SEQEND
  8
0
  0
POLYLINE
  8
16
 66
1
 10
0.0000
 20
0.0000
 30
0.0000
 40
0.1270
 41
0.1270
 70
0
  0
VERTEX
  8
16
 10
11.4935
 20
7.9375
 30
0.0000
 42
1.0000
  0
VERTEX
  8
16
 10
11.3665
 20
7.9375
 30
0.0000
  0
SEQEND
  8
0
  0
POLYLINE
  8
16
 66
1
 10
0.0000
 20
0.0000
 30
0.0000
 40
0.1270
 41
0.1270
 70
0
  0
VERTEX
  8
16
 10
11.3665
 20
6.3500
 30
0.0000
 42
1.0000
  0
VERTEX
  8
16
 10
11.4935
 20
6.3500
 30
0.0000
  0
SEQEND
  8
0
  0
INSERT
  8
18
  2
ROUNDV
 10
11.4300
 20
7.9375
 30
0.0000
 41
1.0160
 42
1.0160
 43
1.0000
 50
0.0000
  0
INSERT
  8
18
  2
ROUNDV
 10
11.4300
 20
7.9375
 30
0.0000
 41
1.0160
 42
1.0160
 43
1.0000
 50
0.0000
  0
POLYLINE
  8
16
 66
1
 10
0.0000
 20
0.0000
 30
0.0000
 40
0.2540
 41
0.2540
 70
0
  0
VERTEX
  8
16
 10
10.1600
 20
2.5400
 30
0.0000
  0
VERTEX
  8
16
 10
11.7475
 20
2.5400
 30
0.0000
  0
SEQEND
  8
0
  0
POLYLINE
  8
16
 66
1
 10
0.0000
 20
0.0000
 30
0.0000
 40
0.1270
 41
0.1270
 70
0
  0
VERTEX
  8
16
 10
11.7475
 20
2.4765
 30
0.0000
 42
1.0000
  0
VERTEX
  8
16
 10
11.7475
 20
2.6035
 30
0.0000
  0
SEQEND
  8
0
  0
POLYLINE
  8
16
 66
1
 10
0.0000
 20
0.0000
 30
0.0000
 40
0.1270
 41
0.1270
 70
0
  0
VERTEX
  8
16
 10
10.1600
 20
2.6035
 30
0.0000
 42
1.0000
  0
VERTEX
  8
16
 10
10.1600
 20
2.4765
 30
0.0000
  0
SEQEND
  8
0
  0
POLYLINE
  8
16
 66
1
 10
0.0000
 20
0.0000
 30
0.0000
 40
0.2540
 41
0.2540
 70
0
  0
VERTEX
  8
16
 10
11.7475
 20
2.5400
 30
0.0000
  0
VERTEX
  8
16
 10
14.2875
 20
5.0800
 30
0.0000
  0
SEQEND
  8
0
  0
POLYLINE
  8
16
 66
1
 10
0.0000
 20
0.0000
 30
0.0000
 40
0.1270
 41
0.1270
 70
0
  0
VERTEX
  8
16
 10
14.3324
 20
5.0351
 30
0.0000
 42
1.0000
  0
VERTEX
  8
16
 10
14.2426
 20
5.1249
 30
0.0000
  0
SEQEND
  8
0
  0
POLYLINE
  8
16
 66
1
 10
0.0000
 20
0.0000
 30
0.0000
 40
0.1270
 41
0.1270
 70
0
  0
VERTEX
  8
16
 10
11.7026
 20
2.5849
 30
0.0000
 42
1.0000
  0
VERTEX
  8
16
 10
11.7924
 20
2.4951
 30
0.0000
  0
SEQEND
  8
0
  0
POLYLINE
  8
16
 66
1
 10
0.0000
 20
0.0000
 30
0.0000
 40
0.2540
 41
0.2540
 70
0
  0
VERTEX
  8
16
 10
14.2875
 20
5.0800
 30
0.0000
  0
VERTEX
  8
16
 10
14.2875
 20
11.2332
 30
0.0000
  0
SEQEND
  8
0
  0
POLYLINE
  8
16
 66
1
 10
0.0000
 20
0.0000
 30
0.0000
 40
0.1270
 41
0.1270
 70
0
  0
VERTEX
  8
16
 10
14.3510
 20
11.2332
 30
0.0000
 42
1.0000
  0
VERTEX
  8
16
 10
14.2240
 20
11.2332
 30
0.0000
  0
SEQEND
  8
0
  0
POLYLINE
  8
16
 66
1
 10
0.0000
 20
0.0000
 30
0.0000
 40
0.1270
 41
0.1270
 70
0
  0
VERTEX
  8
16
 10
14.2240
 20
5.0800
 30
0.0000
 42
1.0000
  0
VERTEX
  8
16
 10
14.3510
 20
5.0800
 30
0.0000
  0
SEQEND
  8
0
  0
POLYLINE
  8
16
 66
1
 10
0.0000
 20
0.0000
 30
0.0000
 40
0.2540
 41
0.2540
 70
0
  0
VERTEX
  8
16
 10
8.8900
 20
1.2700
 30
0.0000
  0
VERTEX
  8
16
 10
10.1600
 20
2.5400
 30
0.0000
  0
SEQEND
  8
0
  0
POLYLINE
  8
16
 66
1
 10
0.0000
 20
0.0000
 30
0.0000
 40
0.1270
 41
0.1270
 70
0
  0
VERTEX
  8
16
 10
10.2049
 20
2.4951
 30
0.0000
 42
1.0000
  0
VERTEX
  8
16
 10
10.1151
 20
2.5849
 30
0.0000
  0
SEQEND
  8
0
  0
POLYLINE
  8
16
 66
1
 10
0.0000
 20
0.0000
 30
0.0000
 40
0.1270
 41
0.1270
 70
0
  0
VERTEX
  8
16
 10
8.8451
 20
1.3149
 30
0.0000
 42
1.0000
  0
VERTEX
  8
16
 10
8.9349
 20
1.2251
 30
0.0000
  0
SEQEND
  8
0
  0
POLYLINE
  8
16
 66
1
 10
0.0000
 20
0.0000
 30
0.0000
 40
0.2540
 41
0.2540
 70
0
  0
VERTEX
  8
16
 10
14.2875
 20
11.2332
 30
0.0000
  0
VERTEX
  8
16
 10
14.9542
 20
11.8999
 30
0.0000
  0
SEQEND
  8
0
  0
POLYLINE
  8
16
 66
1
 10
0.0000
 20
0.0000
 30
0.0000
 40
0.1270
 41
0.1270
 70
0
  0
VERTEX
  8
16
 10
14.9991
 20
11.8550
 30
0.0000
 42
1.0000
  0
VERTEX
  8
16
 10
14.9093
 20
11.9448
 30
0.0000
  0
SEQEND
  8
0
  0
POLYLINE
  8
16
 66
1
 10
0.0000
 20
0.0000
 30
0.0000
 40
0.1270
 41
0.1270
 70
0
  0
VERTEX
  8
16
 10
14.2426
 20
11.2781
 30
0.0000
 42
1.0000
  0
VERTEX
  8
16
 10
14.3324
 20
11.1883
 30
0.0000
  0
SEQEND
  8
0
  0
POLYLINE
  8
16
 66
1
 10
0.0000
 20
0.0000
 30
0.0000
 40
0.2540
 41
0.2540
 70
0
  0
VERTEX
  8
16
 10
14.9542
 20
11.8999
 30
0.0000
  0
VERTEX
  8
16
 10
16.2687
 20
11.8999
 30
0.0000
  0
SEQEND
  8
0
  0
POLYLINE
  8
16
 66
1
 10
0.0000
 20
0.0000
 30
0.0000
 40
0.1270
 41
0.1270
 70
0
  0
VERTEX
  8
16
 10
16.2687
 20
11.8364
 30
0.0000
 42
1.0000
  0
VERTEX
  8
16
 10
16.2687
 20
11.9634
 30
0.0000
  0
SEQEND
  8
0
  0
POLYLINE
  8
16
 66
1
 10
0.0000
 20
0.0000
 30
0.0000
 40
0.1270
 41
0.1270
 70
0
  0
VERTEX
  8
16
 10
14.9542
 20
11.9634
 30
0.0000
 42
1.0000
  0
VERTEX
  8
16
 10
14.9542
 20
11.8364
 30
0.0000
  0
SEQEND
  8
0
  0
POLYLINE
  8
16
 66
1
 10
0.0000
 20
0.0000
 30
0.0000
 40
0.2540
 41
0.2540
 70
0
  0
VERTEX
  8
16
 10
16.2687
 20
11.8999
 30
0.0000
  0
VERTEX
  8
16
 10
17.0180
 20
12.6492
 30
0.0000
  0
SEQEND
  8
0
  0
POLYLINE
  8
16
 66
1
 10
0.0000
 20
0.0000
 30
0.0000
 40
0.1270
 41
0.1270
 70
0
  0
VERTEX
  8
16
 10
17.0629
 20
12.6043
 30
0.0000
 42
1.0000
  0
VERTEX
  8
16
 10
16.9731
 20
12.6941
 30
0.0000
  0
SEQEND
  8
0
  0
POLYLINE
  8
16
 66
1
 10
0.0000
 20
0.0000
 30
0.0000
 40
0.1270
 41
0.1270
 70
0
  0
VERTEX
  8
16
 10
16.2238
 20
11.9448
 30
0.0000
 42
1.0000
  0
VERTEX
  8
16
 10
16.3136
 20
11.8550
 30
0.0000
  0
SEQEND
  8
0
  0
INSERT
  8
18
  2
ROUNDV
 10
17.0180
 20
12.6492
 30
0.0000
 41
0.8890
 42
0.8890
 43
1.0000
 50
0.0000
  0
INSERT
  8
18
  2
ROUNDV
 10
17.0180
 20
12.6492
 30
0.0000
 41
0.8890
 42
0.8890
 43
1.0000
 50
0.0000
  0
POLYLINE
  8
16
 66
1
 10
0.0000
 20
0.0000
 30
0.0000
 40
0.2032
 41
0.2032
 70
0
  0
VERTEX
  8
16
 10
20.9550
 20
17.7800
 30
0.0000
  0
VERTEX
  8
16
 10
20.9550
 20
0.0000
 30
0.0000
  0
SEQEND
  8
0
  0
POLYLINE
  8
16
 66
1
 10
0.0000
 20
0.0000
 30
0.0000
 40
0.1016
 41
0.1016
 70
0
  0
VERTEX
  8
16
 10
20.9042
 20
0.0000
 30
0.0000
 42
1.0000
  0
VERTEX
  8
16
 10
21.0058
 20
0.0000
 30
0.0000
  0
SEQEND
  8
0
  0
POLYLINE
  8
16
 66
1
 10
0.0000
 20
0.0000
 30
0.0000
 40
0.1016
 41
0.1016
 70
0
  0
VERTEX
  8
16
 10
21.0058
 20
17.7800
 30
0.0000
 42
1.0000
  0
VERTEX
  8
16
 10
20.9042
 20
17.7800
 30
0.0000
  0
SEQEND
  8
0
  0
POLYLINE
  8
16
 66
1
 10
0.0000
 20
0.0000
 30
0.0000
 40
0.2032
 41
0.2032
 70
0
  0
VERTEX
  8
16
 10
20.9550
 20
0.0000
 30
0.0000
  0
VERTEX
  8
16
 10
29.2100
 20
0.0000
 30
0.0000
  0
SEQEND
  8
0
  0
POLYLINE
  8
16
 66
1
 10
0.0000
 20
0.0000
 30
0.0000
 40
0.1016
 41
0.1016
 70
0
  0
VERTEX
  8
16
 10
29.2100
 20
-0.0508
 30
0.0000
 42
1.0000
  0
VERTEX
  8
16
 10
29.2100
 20
0.0508
 30
0.0000
  0
SEQEND
  8
0
  0
POLYLINE
  8
16
 66
1
 10
0.0000
 20
0.0000
 30
0.0000
 40
0.1016
 41
0.1016
 70
0
  0
VERTEX
  8
16
 10
20.9550
 20
0.0508
 30
0.0000
 42
1.0000
  0
VERTEX
  8
16
 10
20.9550
 20
-0.0508
 30
0.0000
  0
SEQEND
  8
0
  0
POLYLINE
  8
16
 66
1
 10
0.0000
 20
0.0000
 30
0.0000
 40
0.2032
 41
0.2032
 70
0
  0
VERTEX
  8
16
 10
29.2100
 20
0.0000
 30
0.0000
  0
VERTEX
  8
16
 10
29.2100
 20
17.7800
 30
0.0000
  0
SEQEND
  8
0
  0
POLYLINE
  8
16
 66
1
 10
0.0000
 20
0.0000
 30
0.0000
 40
0.1016
 41
0.1016
 70
0
  0
VERTEX
  8
16
 10
29.2608
 20
17.7800
 30
0.0000
 42
1.0000
  0
VERTEX
  8
16
 10
29.1592
 20
17.7800
 30
0.0000
  0
SEQEND
  8
0
  0
POLYLINE
  8
16
 66
1
 10
0.0000
 20
0.0000
 30
0.0000
 40
0.1016
 41
0.1016
 70
0
  0
VERTEX
  8
16
 10
29.1592
 20
0.0000
 30
0.0000
 42
1.0000
  0
VERTEX
  8
16
 10
29.2608
 20
0.0000
 30
0.0000
  0
SEQEND
  8
0
  0
POLYLINE
  8
16
 66
1
 10
0.0000
 20
0.0000
 30
0.0000
 40
0.2032
 41
0.2032
 70
0
  0
VERTEX
  8
16
 10
29.2100
 20
17.7800
 30
0.0000
  0
VERTEX
  8
16
 10
20.9550
 20
17.7800
 30
0.0000
  0
SEQEND
  8
0
  0
POLYLINE
  8
16
 66
1
 10
0.0000
 20
0.0000
 30
0.0000
 40
0.1016
 41
0.1016
 70
0
  0
VERTEX
  8
16
 10
20.9550
 20
17.8308
 30
0.0000
 42
1.0000
  0
VERTEX
  8
16
 10
20.9550
 20
17.7292
 30
0.0000
  0
SEQEND
  8
0
  0
POLYLINE
  8
16
 66
1
 10
0.0000
 20
0.0000
 30
0.0000
 40
0.1016
 41
0.1016
 70
0
  0
VERTEX
  8
16
 10
29.2100
 20
17.7292
 30
0.0000
 42
1.0000
  0
VERTEX
  8
16
 10
29.2100
 20
17.8308
 30
0.0000
  0
SEQEND
  8
0
  0
POLYLINE
  8
16
 66
1
 10
0.0000
 20
0.0000
 30
0.0000
 40
0.3048
 41
0.3048
 70
0
  0
VERTEX
  8
16
 10
20.7708
 20
12.0900
 30
0.0000
  0
VERTEX
  8
16
 10
21.5900
 20
12.0900
 30
0.0000
  0
SEQEND
  8
0
  0
POLYLINE
  8
16
 66
1
 10
0.0000
 20
0.0000
 30
0.0000
 40
0.1524
 41
0.1524
 70
0
  0
VERTEX
  8
16
 10
21.5900
 20
12.0138
 30
0.0000
 42
1.0000
  0
VERTEX
  8
16
 10
21.5900
 20
12.1662
 30
0.0000
  0
SEQEND
  8
0
  0
POLYLINE
  8
16
 66
1
 10
0.0000
 20
0.0000
 30
0.0000
 40
0.1524
 41
0.1524
 70
0
  0
VERTEX
  8
16
 10
20.7708
 20
12.1662
 30
0.0000
 42
1.0000
  0
VERTEX
  8
16
 10
20.7708
 20
12.0138
 30
0.0000
  0
SEQEND
  8
0
  0
POLYLINE
  8
16
 66
1
 10
0.0000
 20
0.0000
 30
0.0000
 40
0.3048
 41
0.3048
 70
0
  0
VERTEX
  8
16
 10
21.5900
 20
12.0900
 30
0.0000
  0
VERTEX
  8
16
 10
21.5900
 20
12.7000
 30
0.0000
  0
SEQEND
  8
0
  0
POLYLINE
  8
16
 66
1
 10
0.0000
 20
0.0000
 30
0.0000
 40
0.1524
 41
0.1524
 70
0
  0
VERTEX
  8
16
 10
21.6662
 20
12.7000
 30
0.0000
 42
1.0000
  0
VERTEX
  8
16
 10
21.5138
 20
12.7000
 30
0.0000
  0
SEQEND
  8
0
  0
POLYLINE
  8
16
 66
1
 10
0.0000
 20
0.0000
 30
0.0000
 40
0.1524
 41
0.1524
 70
0
  0
VERTEX
  8
16
 10
21.5138
 20
12.0900
 30
0.0000
 42
1.0000
  0
VERTEX
  8
16
 10
21.6662
 20
12.0900
 30
0.0000
  0
SEQEND
  8
0
  0
INSERT
  8
18
  2
ROUNDV
 10
25.4000
 20
16.5100
 30
0.0000
 41
1.0160
 42
1.0160
 43
1.0000
 50
0.0000
  0
INSERT
  8
18
  2
ROUNDV
 10
25.4000
 20
16.5100
 30
0.0000
 41
1.0160
 42
1.0160
 43
1.0000
 50
0.0000
  0
INSERT
  8
18
  2
ROUNDV
 10
21.5900
 20
1.2700
 30
0.0000
 41
1.0160
 42
1.0160
 43
1.0000
 50
0.0000
  0
INSERT
  8
18
  2
ROUNDV
 10
21.5900
 20
1.2700
 30
0.0000
 41
1.0160
 42
1.0160
 43
1.0000
 50
0.0000
  0
INSERT
  8
18
  2
ROUNDV
 10
27.9400
 20
1.2700
 30
0.0000
 41
1.0160
 42
1.0160
 43
1.0000
 50
0.0000
  0
INSERT
  8
18
  2
ROUNDV
 10
27.9400
 20
1.2700
 30
0.0000
 41
1.0160
 42
1.0160
 43
1.0000
 50
0.0000
  0
INSERT
  8
18
  2
ROUNDV
 10
27.9400
 20
16.5100
 30
0.0000
 41
1.0160
 42
1.0160
 43
1.0000
 50
0.0000
  0
INSERT
  8
18
  2
ROUNDV
 10
27.9400
 20
16.5100
 30
0.0000
 41
1.0160
 42
1.0160
 43
1.0000
 50
0.0000
  0
INSERT
  8
18
  2
ROUNDV
 10
27.9400
 20
7.6200
 30
0.0000
 41
1.0160
 42
1.0160
 43
1.0000
 50
0.0000
  0
INSERT
  8
18
  2
ROUNDV
 10
27.9400
 20
7.6200
 30
0.0000
 41
1.0160
 42
1.0160
 43
1.0000
 50
0.0000
  0
INSERT
  8
18
  2
ROUNDV
 10
25.4000
 20
7.6200
 30
0.0000
 41
1.0160
 42
1.0160
 43
1.0000
 50
0.0000
  0
INSERT
  8
18
  2
ROUNDV
 10
25.4000
 20
7.6200
 30
0.0000
 41
1.0160
 42
1.0160
 43
1.0000
 50
0.0000
  0
POLYLINE
  8
16
 66
1
 10
0.0000
 20
0.0000
 30
0.0000
 40
0.2540
 41
0.2540
 70
0
  0
VERTEX
  8
16
 10
14.5542
 20
12.6492
 30
0.0000
  0
VERTEX
  8
16
 10
15.5194
 20
12.6492
 30
0.0000
  0
SEQEND
  8
0
  0
POLYLINE
  8
16
 66
1
 10
0.0000
 20
0.0000
 30
0.0000
 40
0.1270
 41
0.1270
 70
0
  0
VERTEX
  8
16
 10
15.5194
 20
12.5857
 30
0.0000
 42
1.0000
  0
VERTEX
  8
16
 10
15.5194
 20
12.7127
 30
0.0000
  0
SEQEND
  8
0
  0
POLYLINE
  8
16
 66
1
 10
0.0000
 20
0.0000
 30
0.0000
 40
0.1270
 41
0.1270
 70
0
  0
VERTEX
  8
16
 10
14.5542
 20
12.7127
 30
0.0000
 42
1.0000
  0
VERTEX
  8
16
 10
14.5542
 20
12.5857
 30
0.0000
  0
SEQEND
  8
0
  0
POLYLINE
  8
16
 66
1
 10
0.0000
 20
0.0000
 30
0.0000
 40
0.2540
 41
0.2540
 70
0
  0
VERTEX
  8
16
 10
12.7000
 20
10.7950
 30
0.0000
  0
VERTEX
  8
16
 10
14.5542
 20
12.6492
 30
0.0000
  0
SEQEND
  8
0
  0
POLYLINE
  8
16
 66
1
 10
0.0000
 20
0.0000
 30
0.0000
 40
0.1270
 41
0.1270
 70
0
  0
VERTEX
  8
16
 10
14.5991
 20
12.6043
 30
0.0000
 42
1.0000
  0
VERTEX
  8
16
 10
14.5093
 20
12.6941
 30
0.0000
  0
SEQEND
  8
0
  0
POLYLINE
  8
16
 66
1
 10
0.0000
 20
0.0000
 30
0.0000
 40
0.1270
 41
0.1270
 70
0
  0
VERTEX
  8
16
 10
12.6551
 20
10.8399
 30
0.0000
 42
1.0000
  0
VERTEX
  8
16
 10
12.7449
 20
10.7501
 30
0.0000
  0
SEQEND
  8
0
  0
POLYLINE
  8
16
 66
1
 10
0.0000
 20
0.0000
 30
0.0000
 40
0.2540
 41
0.2540
 70
0
  0
VERTEX
  8
16
 10
7.3025
 20
12.0650
 30
0.0000
  0
VERTEX
  8
16
 10
6.3500
 20
13.0175
 30
0.0000
  0
SEQEND
  8
0
  0
POLYLINE
  8
16
 66
1
 10
0.0000
 20
0.0000
 30
0.0000
 40
0.1270
 41
0.1270
 70
0
  0
VERTEX
  8
16
 10
6.3949
 20
13.0624
 30
0.0000
 42
1.0000
  0
VERTEX
  8
16
 10
6.3051
 20
12.9726
 30
0.0000
  0
SEQEND
  8
0
  0
POLYLINE
  8
16
 66
1
 10
0.0000
 20
0.0000
 30
0.0000
 40
0.1270
 41
0.1270
 70
0
  0
VERTEX
  8
16
 10
7.2576
 20
12.0201
 30
0.0000
 42
1.0000
  0
VERTEX
  8
16
 10
7.3474
 20
12.1099
 30
0.0000
  0
SEQEND
  8
0
  0
POLYLINE
  8
16
 66
1
 10
0.0000
 20
0.0000
 30
0.0000
 40
0.2540
 41
0.2540
 70
0
  0
VERTEX
  8
16
 10
7.3025
 20
12.0650
 30
0.0000
  0
VERTEX
  8
16
 10
9.0487
 20
12.0650
 30
0.0000
  0
SEQEND
  8
0
  0
POLYLINE
  8
16
 66
1
 10
0.0000
 20
0.0000
 30
0.0000
 40
0.1270
 41
0.1270
 70
0
  0
VERTEX
  8
16
 10
9.0487
 20
12.0015
 30
0.0000
 42
1.0000
  0
VERTEX
  8
16
 10
9.0487
 20
12.1285
 30
0.0000
  0
SEQEND
  8
0
  0
POLYLINE
  8
16
 66
1
 10
0.0000
 20
0.0000
 30
0.0000
 40
0.1270
 41
0.1270
 70
0
  0
VERTEX
  8
16
 10
7.3025
 20
12.1285
 30
0.0000
 42
1.0000
  0
VERTEX
  8
16
 10
7.3025
 20
12.0015
 30
0.0000
  0
SEQEND
  8
0
  0
POLYLINE
  8
16
 66
1
 10
0.0000
 20
0.0000
 30
0.0000
 40
0.2540
 41
0.2540
 70
0
  0
VERTEX
  8
16
 10
9.0487
 20
12.0650
 30
0.0000
  0
VERTEX
  8
16
 10
10.3187
 20
10.7950
 30
0.0000
  0
SEQEND
  8
0
  0
POLYLINE
  8
16
 66
1
 10
0.0000
 20
0.0000
 30
0.0000
 40
0.1270
 41
0.1270
 70
0
  0
VERTEX
  8
16
 10
10.2738
 20
10.7501
 30
0.0000
 42
1.0000
  0
VERTEX
  8
16
 10
10.3636
 20
10.8399
 30
0.0000
  0
SEQEND
  8
0
  0
POLYLINE
  8
16
 66
1
 10
0.0000
 20
0.0000
 30
0.0000
 40
0.1270
 41
0.1270
 70
0
  0
VERTEX
  8
16
 10
9.0936
 20
12.1099
 30
0.0000
 42
1.0000
  0
VERTEX
  8
16
 10
9.0038
 20
12.0201
 30
0.0000
  0
SEQEND
  8
0
  0
POLYLINE
  8
16
 66
1
 10
0.0000
 20
0.0000
 30
0.0000
 40
0.2540
 41
0.2540
 70
0
  0
VERTEX
  8
16
 10
10.3187
 20
10.7950
 30
0.0000
  0
VERTEX
  8
16
 10
12.7000
 20
10.7950
 30
0.0000
  0
SEQEND
  8
0
  0
POLYLINE
  8
16
 66
1
 10
0.0000
 20
0.0000
 30
0.0000
 40
0.1270
 41
0.1270
 70
0
  0
VERTEX
  8
16
 10
12.7000
 20
10.7315
 30
0.0000
 42
1.0000
  0
VERTEX
  8
16
 10
12.7000
 20
10.8585
 30
0.0000
  0
SEQEND
  8
0
  0
POLYLINE
  8
16
 66
1
 10
0.0000
 20
0.0000
 30
0.0000
 40
0.1270
 41
0.1270
 70
0
  0
VERTEX
  8
16
 10
10.3187
 20
10.8585
 30
0.0000
 42
1.0000
  0
VERTEX
  8
16
 10
10.3187
 20
10.7315
 30
0.0000
  0
SEQEND
  8
0
  0
INSERT
  8
18
  2
ROUNDV
 10
15.5194
 20
12.6492
 30
0.0000
 41
0.8890
 42
0.8890
 43
1.0000
 50
0.0000
  0
INSERT
  8
18
  2
ROUNDV
 10
15.5194
 20
12.6492
 30
0.0000
 41
0.8890
 42
0.8890
 43
1.0000
 50
0.0000
  0
INSERT
  8
18
  2
ROUNDV
 10
6.3500
 20
13.0175
 30
0.0000
 41
1.0160
 42
1.0160
 43
1.0000
 50
0.0000
  0
INSERT
  8
18
  2
ROUNDV
 10
6.3500
 20
13.0175
 30
0.0000
 41
1.0160
 42
1.0160
 43
1.0000
 50
0.0000
  0
POLYLINE
  8
16
 66
1
 10
0.0000
 20
0.0000
 30
0.0000
 40
0.2540
 41
0.2540
 70
0
  0
VERTEX
  8
16
 10
15.5194
 20
6.3373
 30
0.0000
  0
VERTEX
  8
16
 10
15.5194
 20
8.1534
 30
0.0000
  0
SEQEND
  8
0
  0
POLYLINE
  8
16
 66
1
 10
0.0000
 20
0.0000
 30
0.0000
 40
0.1270
 41
0.1270
 70
0
  0
VERTEX
  8
16
 10
15.5829
 20
8.1534
 30
0.0000
 42
1.0000
  0
VERTEX
  8
16
 10
15.4559
 20
8.1534
 30
0.0000
  0
SEQEND
  8
0
  0
POLYLINE
  8
16
 66
1
 10
0.0000
 20
0.0000
 30
0.0000
 40
0.1270
 41
0.1270
 70
0
  0
VERTEX
  8
16
 10
15.4559
 20
6.3373
 30
0.0000
 42
1.0000
  0
VERTEX
  8
16
 10
15.5829
 20
6.3373
 30
0.0000
  0
SEQEND
  8
0
  0
POLYLINE
  8
16
 66
1
 10
0.0000
 20
0.0000
 30
0.0000
 40
0.2540
 41
0.2540
 70
0
  0
VERTEX
  8
16
 10
15.5194
 20
5.3594
 30
0.0000
  0
VERTEX
  8
16
 10
15.5194
 20
6.3373
 30
0.0000
  0
SEQEND
  8
0
  0
POLYLINE
  8
16
 66
1
 10
0.0000
 20
0.0000
 30
0.0000
 40
0.1270
 41
0.1270
 70
0
  0
VERTEX
  8
16
 10
15.5829
 20
6.3373
 30
0.0000
 42
1.0000
  0
VERTEX
  8
16
 10
15.4559
 20
6.3373
 30
0.0000
  0
SEQEND
  8
0
  0
POLYLINE
  8
16
 66
1
 10
0.0000
 20
0.0000
 30
0.0000
 40
0.1270
 41
0.1270
 70
0
  0
VERTEX
  8
16
 10
15.4559
 20
5.3594
 30
0.0000
 42
1.0000
  0
VERTEX
  8
16
 10
15.5829
 20
5.3594
 30
0.0000
  0
SEQEND
  8
0
  0
POLYLINE
  8
16
 66
1
 10
0.0000
 20
0.0000
 30
0.0000
 40
0.2540
 41
0.2540
 70
0
  0
VERTEX
  8
16
 10
11.4300
 20
1.2700
 30
0.0000
  0
VERTEX
  8
16
 10
15.5194
 20
5.3594
 30
0.0000
  0
SEQEND
  8
0
  0
POLYLINE
  8
16
 66
1
 10
0.0000
 20
0.0000
 30
0.0000
 40
0.1270
 41
0.1270
 70
0
  0
VERTEX
  8
16
 10
15.5643
 20
5.3145
 30
0.0000
 42
1.0000
  0
VERTEX
  8
16
 10
15.4745
 20
5.4043
 30
0.0000
  0
SEQEND
  8
0
  0
POLYLINE
  8
16
 66
1
 10
0.0000
 20
0.0000
 30
0.0000
 40
0.1270
 41
0.1270
 70
0
  0
VERTEX
  8
16
 10
11.3851
 20
1.3149
 30
0.0000
 42
1.0000
  0
VERTEX
  8
16
 10
11.4749
 20
1.2251
 30
0.0000
  0
SEQEND
  8
0
  0
INSERT
  8
18
  2
ROUNDV
 10
15.5194
 20
8.1534
 30
0.0000
 41
0.8890
 42
0.8890
 43
1.0000
 50
0.0000
  0
INSERT
  8
18
  2
ROUNDV
 10
15.5194
 20
8.1534
 30
0.0000
 41
0.8890
 42
0.8890
 43
1.0000
 50
0.0000
  0
POLYLINE
  8
16
 66
1
 10
0.0000
 20
0.0000
 30
0.0000
 40
0.2540
 41
0.2540
 70
0
  0
VERTEX
  8
16
 10
19.5072
 20
4.2672
 30
0.0000
  0
VERTEX
  8
16
 10
19.5072
 20
8.6360
 30
0.0000
  0
SEQEND
  8
0
  0
POLYLINE
  8
16
 66
1
 10
0.0000
 20
0.0000
 30
0.0000
 40
0.1270
 41
0.1270
 70
0
  0
VERTEX
  8
16
 10
19.5707
 20
8.6360
 30
0.0000
 42
1.0000
  0
VERTEX
  8
16
 10
19.4437
 20
8.6360
 30
0.0000
  0
SEQEND
  8
0
  0
POLYLINE
  8
16
 66
1
 10
0.0000
 20
0.0000
 30
0.0000
 40
0.1270
 41
0.1270
 70
0
  0
VERTEX
  8
16
 10
19.4437
 20
4.2672
 30
0.0000
 42
1.0000
  0
VERTEX
  8
16
 10
19.5707
 20
4.2672
 30
0.0000
  0
SEQEND
  8
0
  0
POLYLINE
  8
16
 66
1
 10
0.0000
 20
0.0000
 30
0.0000
 40
0.2540
 41
0.2540
 70
0
  0
VERTEX
  8
16
 10
16.5100
 20
1.2700
 30
0.0000
  0
VERTEX
  8
16
 10
19.5072
 20
4.2672
 30
0.0000
  0
SEQEND
  8
0
  0
POLYLINE
  8
16
 66
1
 10
0.0000
 20
0.0000
 30
0.0000
 40
0.1270
 41
0.1270
 70
0
  0
VERTEX
  8
16
 10
19.5521
 20
4.2223
 30
0.0000
 42
1.0000
  0
VERTEX
  8
16
 10
19.4623
 20
4.3121
 30
0.0000
  0
SEQEND
  8
0
  0
POLYLINE
  8
16
 66
1
 10
0.0000
 20
0.0000
 30
0.0000
 40
0.1270
 41
0.1270
 70
0
  0
VERTEX
  8
16
 10
16.4651
 20
1.3149
 30
0.0000
 42
1.0000
  0
VERTEX
  8
16
 10
16.5549
 20
1.2251
 30
0.0000
  0
SEQEND
  8
0
  0
POLYLINE
  8
16
 66
1
 10
0.0000
 20
0.0000
 30
0.0000
 40
0.2540
 41
0.2540
 70
0
  0
VERTEX
  8
16
 10
15.9957
 20
9.1757
 30
0.0000
  0
VERTEX
  8
16
 10
15.5194
 20
9.6520
 30
0.0000
  0
SEQEND
  8
0
  0
POLYLINE
  8
16
 66
1
 10
0.0000
 20
0.0000
 30
0.0000
 40
0.1270
 41
0.1270
 70
0
  0
VERTEX
  8
16
 10
15.5643
 20
9.6969
 30
0.0000
 42
1.0000
  0
VERTEX
  8
16
 10
15.4745
 20
9.6071
 30
0.0000
  0
SEQEND
  8
0
  0
POLYLINE
  8
16
 66
1
 10
0.0000
 20
0.0000
 30
0.0000
 40
0.1270
 41
0.1270
 70
0
  0
VERTEX
  8
16
 10
15.9508
 20
9.1308
 30
0.0000
 42
1.0000
  0
VERTEX
  8
16
 10
16.0406
 20
9.2206
 30
0.0000
  0
SEQEND
  8
0
  0
POLYLINE
  8
16
 66
1
 10
0.0000
 20
0.0000
 30
0.0000
 40
0.2540
 41
0.2540
 70
0
  0
VERTEX
  8
16
 10
18.9675
 20
9.1757
 30
0.0000
  0
VERTEX
  8
16
 10
15.9957
 20
9.1757
 30
0.0000
  0
SEQEND
  8
0
  0
POLYLINE
  8
16
 66
1
 10
0.0000
 20
0.0000
 30
0.0000
 40
0.1270
 41
0.1270
 70
0
  0
VERTEX
  8
16
 10
15.9957
 20
9.2392
 30
0.0000
 42
1.0000
  0
VERTEX
  8
16
 10
15.9957
 20
9.1122
 30
0.0000
  0
SEQEND
  8
0
  0
POLYLINE
  8
16
 66
1
 10
0.0000
 20
0.0000
 30
0.0000
 40
0.1270
 41
0.1270
 70
0
  0
VERTEX
  8
16
 10
18.9675
 20
9.1122
 30
0.0000
 42
1.0000
  0
VERTEX
  8
16
 10
18.9675
 20
9.2392
 30
0.0000
  0
SEQEND
  8
0
  0
POLYLINE
  8
16
 66
1
 10
0.0000
 20
0.0000
 30
0.0000
 40
0.2540
 41
0.2540
 70
0
  0
VERTEX
  8
16
 10
18.9675
 20
9.1757
 30
0.0000
  0
VERTEX
  8
16
 10
19.5072
 20
8.6360
 30
0.0000
  0
SEQEND
  8
0
  0
POLYLINE
  8
16
 66
1
 10
0.0000
 20
0.0000
 30
0.0000
 40
0.1270
 41
0.1270
 70
0
  0
VERTEX
  8
16
 10
19.4623
 20
8.5911
 30
0.0000
 42
1.0000
  0
VERTEX
  8
16
 10
19.5521
 20
8.6809
 30
0.0000
  0
SEQEND
  8
0
  0
POLYLINE
  8
16
 66
1
 10
0.0000
 20
0.0000
 30
0.0000
 40
0.1270
 41
0.1270
 70
0
  0
VERTEX
  8
16
 10
19.0124
 20
9.2206
 30
0.0000
 42
1.0000
  0
VERTEX
  8
16
 10
18.9226
 20
9.1308
 30
0.0000
  0
SEQEND
  8
0
  0
INSERT
  8
18
  2
ROUNDV
 10
15.5194
 20
9.6520
 30
0.0000
 41
0.8890
 42
0.8890
 43
1.0000
 50
0.0000
  0
INSERT
  8
18
  2
ROUNDV
 10
15.5194
 20
9.6520
 30
0.0000
 41
0.8890
 42
0.8890
 43
1.0000
 50
0.0000
  0
POLYLINE
  8
16
 66
1
 10
0.0000
 20
0.0000
 30
0.0000
 40
0.2540
 41
0.2540
 70
0
  0
VERTEX
  8
16
 10
20.3200
 20
8.8392
 30
0.0000
  0
VERTEX
  8
16
 10
19.2469
 20
9.9123
 30
0.0000
  0
SEQEND
  8
0
  0
POLYLINE
  8
16
 66
1
 10
0.0000
 20
0.0000
 30
0.0000
 40
0.1270
 41
0.1270
 70
0
  0
VERTEX
  8
16
 10
19.2918
 20
9.9572
 30
0.0000
 42
1.0000
  0
VERTEX
  8
16
 10
19.2020
 20
9.8674
 30
0.0000
  0
SEQEND
  8
0
  0
POLYLINE
  8
16
 66
1
 10
0.0000
 20
0.0000
 30
0.0000
 40
0.1270
 41
0.1270
 70
0
  0
VERTEX
  8
16
 10
20.2751
 20
8.7943
 30
0.0000
 42
1.0000
  0
VERTEX
  8
16
 10
20.3649
 20
8.8841
 30
0.0000
  0
SEQEND
  8
0
  0
POLYLINE
  8
16
 66
1
 10
0.0000
 20
0.0000
 30
0.0000
 40
0.2540
 41
0.2540
 70
0
  0
VERTEX
  8
16
 10
20.3200
 20
2.5400
 30
0.0000
  0
VERTEX
  8
16
 10
20.3200
 20
8.8392
 30
0.0000
  0
SEQEND
  8
0
  0
POLYLINE
  8
16
 66
1
 10
0.0000
 20
0.0000
 30
0.0000
 40
0.1270
 41
0.1270
 70
0
  0
VERTEX
  8
16
 10
20.3835
 20
8.8392
 30
0.0000
 42
1.0000
  0
VERTEX
  8
16
 10
20.2565
 20
8.8392
 30
0.0000
  0
SEQEND
  8
0
  0
POLYLINE
  8
16
 66
1
 10
0.0000
 20
0.0000
 30
0.0000
 40
0.1270
 41
0.1270
 70
0
  0
VERTEX
  8
16
 10
20.2565
 20
2.5400
 30
0.0000
 42
1.0000
  0
VERTEX
  8
16
 10
20.3835
 20
2.5400
 30
0.0000
  0
SEQEND
  8
0
  0
POLYLINE
  8
16
 66
1
 10
0.0000
 20
0.0000
 30
0.0000
 40
0.2540
 41
0.2540
 70
0
  0
VERTEX
  8
16
 10
19.0500
 20
1.2700
 30
0.0000
  0
VERTEX
  8
16
 10
20.3200
 20
2.5400
 30
0.0000
  0
SEQEND
  8
0
  0
POLYLINE
  8
16
 66
1
 10
0.0000
 20
0.0000
 30
0.0000
 40
0.1270
 41
0.1270
 70
0
  0
VERTEX
  8
16
 10
20.3649
 20
2.4951
 30
0.0000
 42
1.0000
  0
VERTEX
  8
16
 10
20.2751
 20
2.5849
 30
0.0000
  0
SEQEND
  8
0
  0
POLYLINE
  8
16
 66
1
 10
0.0000
 20
0.0000
 30
0.0000
 40
0.1270
 41
0.1270
 70
0
  0
VERTEX
  8
16
 10
19.0051
 20
1.3149
 30
0.0000
 42
1.0000
  0
VERTEX
  8
16
 10
19.0949
 20
1.2251
 30
0.0000
  0
SEQEND
  8
0
  0
POLYLINE
  8
16
 66
1
 10
0.0000
 20
0.0000
 30
0.0000
 40
0.2540
 41
0.2540
 70
0
  0
VERTEX
  8
16
 10
19.2469
 20
9.9123
 30
0.0000
  0
VERTEX
  8
16
 10
16.7577
 20
9.9123
 30
0.0000
  0
SEQEND
  8
0
  0
POLYLINE
  8
16
 66
1
 10
0.0000
 20
0.0000
 30
0.0000
 40
0.1270
 41
0.1270
 70
0
  0
VERTEX
  8
16
 10
16.7577
 20
9.9758
 30
0.0000
 42
1.0000
  0
VERTEX
  8
16
 10
16.7577
 20
9.8488
 30
0.0000
  0
SEQEND
  8
0
  0
POLYLINE
  8
16
 66
1
 10
0.0000
 20
0.0000
 30
0.0000
 40
0.1270
 41
0.1270
 70
0
  0
VERTEX
  8
16
 10
19.2469
 20
9.8488
 30
0.0000
 42
1.0000
  0
VERTEX
  8
16
 10
19.2469
 20
9.9758
 30
0.0000
  0
SEQEND
  8
0
  0
POLYLINE
  8
16
 66
1
 10
0.0000
 20
0.0000
 30
0.0000
 40
0.2540
 41
0.2540
 70
0
  0
VERTEX
  8
16
 10
16.7577
 20
9.9123
 30
0.0000
  0
VERTEX
  8
16
 10
15.5194
 20
11.1506
 30
0.0000
  0
SEQEND
  8
0
  0
POLYLINE
  8
16
 66
1
 10
0.0000
 20
0.0000
 30
0.0000
 40
0.1270
 41
0.1270
 70
0
  0
VERTEX
  8
16
 10
15.5643
 20
11.1955
 30
0.0000
 42
1.0000
  0
VERTEX
  8
16
 10
15.4745
 20
11.1057
 30
0.0000
  0
SEQEND
  8
0
  0
POLYLINE
  8
16
 66
1
 10
0.0000
 20
0.0000
 30
0.0000
 40
0.1270
 41
0.1270
 70
0
  0
VERTEX
  8
16
 10
16.7128
 20
9.8674
 30
0.0000
 42
1.0000
  0
VERTEX
  8
16
 10
16.8026
 20
9.9572
 30
0.0000
  0
SEQEND
  8
0
  0
INSERT
  8
18
  2
ROUNDV
 10
15.5194
 20
11.1506
 30
0.0000
 41
0.8890
 42
0.8890
 43
1.0000
 50
0.0000
  0
INSERT
  8
18
  2
ROUNDV
 10
15.5194
 20
11.1506
 30
0.0000
 41
0.8890
 42
0.8890
 43
1.0000
 50
0.0000
  0
POLYLINE
  8
16
 66
1
 10
0.0000
 20
0.0000
 30
0.0000
 40
0.2540
 41
0.2540
 70
0
  0
VERTEX
  8
16
 10
8.2550
 20
14.6050
 30
0.0000
  0
VERTEX
  8
16
 10
12.0650
 20
14.6050
 30
0.0000
  0
SEQEND
  8
0
  0
POLYLINE
  8
16
 66
1
 10
0.0000
 20
0.0000
 30
0.0000
 40
0.1270
 41
0.1270
 70
0
  0
VERTEX
  8
16
 10
12.0650
 20
14.5415
 30
0.0000
 42
1.0000
  0
VERTEX
  8
16
 10
12.0650
 20
14.6685
 30
0.0000
  0
SEQEND
  8
0
  0
POLYLINE
  8
16
 66
1
 10
0.0000
 20
0.0000
 30
0.0000
 40
0.1270
 41
0.1270
 70
0
  0
VERTEX
  8
16
 10
8.2550
 20
14.6685
 30
0.0000
 42
1.0000
  0
VERTEX
  8
16
 10
8.2550
 20
14.5415
 30
0.0000
  0
SEQEND
  8
0
  0
POLYLINE
  8
16
 66
1
 10
0.0000
 20
0.0000
 30
0.0000
 40
0.2540
 41
0.2540
 70
0
  0
VERTEX
  8
16
 10
6.3500
 20
16.5100
 30
0.0000
  0
VERTEX
  8
16
 10
8.2550
 20
14.6050
 30
0.0000
  0
SEQEND
  8
0
  0
POLYLINE
  8
16
 66
1
 10
0.0000
 20
0.0000
 30
0.0000
 40
0.1270
 41
0.1270
 70
0
  0
VERTEX
  8
16
 10
8.2101
 20
14.5601
 30
0.0000
 42
1.0000
  0
VERTEX
  8
16
 10
8.2999
 20
14.6499
 30
0.0000
  0
SEQEND
  8
0
  0
POLYLINE
  8
16
 66
1
 10
0.0000
 20
0.0000
 30
0.0000
 40
0.1270
 41
0.1270
 70
0
  0
VERTEX
  8
16
 10
6.3949
 20
16.5549
 30
0.0000
 42
1.0000
  0
VERTEX
  8
16
 10
6.3051
 20
16.4651
 30
0.0000
  0
SEQEND
  8
0
  0
INSERT
  8
18
  2
ROUNDV
 10
12.0650
 20
14.6050
 30
0.0000
 41
1.0160
 42
1.0160
 43
1.0000
 50
0.0000
  0
INSERT
  8
18
  2
ROUNDV
 10
12.0650
 20
14.6050
 30
0.0000
 41
1.0160
 42
1.0160
 43
1.0000
 50
0.0000
  0
POLYLINE
  8
16
 66
1
 10
0.0000
 20
0.0000
 30
0.0000
 40
0.2540
 41
0.2540
 70
0
  0
VERTEX
  8
16
 10
18.5420
 20
6.4770
 30
0.0000
  0
VERTEX
  8
16
 10
18.5420
 20
8.1534
 30
0.0000
  0
SEQEND
  8
0
  0
POLYLINE
  8
16
 66
1
 10
0.0000
 20
0.0000
 30
0.0000
 40
0.1270
 41
0.1270
 70
0
  0
VERTEX
  8
16
 10
18.6055
 20
8.1534
 30
0.0000
 42
1.0000
  0
VERTEX
  8
16
 10
18.4785
 20
8.1534
 30
0.0000
  0
SEQEND
  8
0
  0
POLYLINE
  8
16
 66
1
 10
0.0000
 20
0.0000
 30
0.0000
 40
0.1270
 41
0.1270
 70
0
  0
VERTEX
  8
16
 10
18.4785
 20
6.4770
 30
0.0000
 42
1.0000
  0
VERTEX
  8
16
 10
18.6055
 20
6.4770
 30
0.0000
  0
SEQEND
  8
0
  0
POLYLINE
  8
16
 66
1
 10
0.0000
 20
0.0000
 30
0.0000
 40
0.2540
 41
0.2540
 70
0
  0
VERTEX
  8
16
 10
18.5420
 20
5.8420
 30
0.0000
  0
VERTEX
  8
16
 10
18.5420
 20
6.4770
 30
0.0000
  0
SEQEND
  8
0
  0
POLYLINE
  8
16
 66
1
 10
0.0000
 20
0.0000
 30
0.0000
 40
0.1270
 41
0.1270
 70
0
  0
VERTEX
  8
16
 10
18.6055
 20
6.4770
 30
0.0000
 42
1.0000
  0
VERTEX
  8
16
 10
18.4785
 20
6.4770
 30
0.0000
  0
SEQEND
  8
0
  0
POLYLINE
  8
16
 66
1
 10
0.0000
 20
0.0000
 30
0.0000
 40
0.1270
 41
0.1270
 70
0
  0
VERTEX
  8
16
 10
18.4785
 20
5.8420
 30
0.0000
 42
1.0000
  0
VERTEX
  8
16
 10
18.6055
 20
5.8420
 30
0.0000
  0
SEQEND
  8
0
  0
POLYLINE
  8
16
 66
1
 10
0.0000
 20
0.0000
 30
0.0000
 40
0.2540
 41
0.2540
 70
0
  0
VERTEX
  8
16
 10
13.9700
 20
1.2700
 30
0.0000
  0
VERTEX
  8
16
 10
18.5420
 20
5.8420
 30
0.0000
  0
SEQEND
  8
0
  0
POLYLINE
  8
16
 66
1
 10
0.0000
 20
0.0000
 30
0.0000
 40
0.1270
 41
0.1270
 70
0
  0
VERTEX
  8
16
 10
18.5869
 20
5.7971
 30
0.0000
 42
1.0000
  0
VERTEX
  8
16
 10
18.4971
 20
5.8869
 30
0.0000
  0
SEQEND
  8
0
  0
POLYLINE
  8
16
 66
1
 10
0.0000
 20
0.0000
 30
0.0000
 40
0.1270
 41
0.1270
 70
0
  0
VERTEX
  8
16
 10
13.9251
 20
1.3149
 30
0.0000
 42
1.0000
  0
VERTEX
  8
16
 10
14.0149
 20
1.2251
 30
0.0000
  0
SEQEND
  8
0
  0
INSERT
  8
18
  2
ROUNDV
 10
18.5420
 20
8.1534
 30
0.0000
 41
0.8890
 42
0.8890
 43
1.0000
 50
0.0000
  0
INSERT
  8
18
  2
ROUNDV
 10
18.5420
 20
8.1534
 30
0.0000
 41
0.8890
 42
0.8890
 43
1.0000
 50
0.0000
  0
POLYLINE
  8
16
 66
1
 10
0.0000
 20
0.0000
 30
0.0000
 40
0.2540
 41
0.2540
 70
0
  0
VERTEX
  8
16
 10
1.2450
 20
1.2950
 30
0.0000
  0
VERTEX
  8
16
 10
1.2450
 20
8.8900
 30
0.0000
  0
SEQEND
  8
0
  0
POLYLINE
  8
16
 66
1
 10
0.0000
 20
0.0000
 30
0.0000
 40
0.1270
 41
0.1270
 70
0
  0
VERTEX
  8
16
 10
1.3085
 20
8.8900
 30
0.0000
 42
1.0000
  0
VERTEX
  8
16
 10
1.1815
 20
8.8900
 30
0.0000
  0
SEQEND
  8
0
  0
POLYLINE
  8
16
 66
1
 10
0.0000
 20
0.0000
 30
0.0000
 40
0.1270
 41
0.1270
 70
0
  0
VERTEX
  8
16
 10
1.1815
 20
1.2950
 30
0.0000
 42
1.0000
  0
VERTEX
  8
16
 10
1.3085
 20
1.2950
 30
0.0000
  0
SEQEND
  8
0
  0
POLYLINE
  8
16
 66
1
 10
0.0000
 20
0.0000
 30
0.0000
 40
0.2540
 41
0.2540
 70
0
  0
VERTEX
  8
16
 10
1.2700
 20
1.2700
 30
0.0000
  0
VERTEX
  8
16
 10
1.2450
 20
1.2950
 30
0.0000
  0
SEQEND
  8
0
  0
POLYLINE
  8
16
 66
1
 10
0.0000
 20
0.0000
 30
0.0000
 40
0.1270
 41
0.1270
 70
0
  0
VERTEX
  8
16
 10
1.2899
 20
1.3399
 30
0.0000
 42
1.0000
  0
VERTEX
  8
16
 10
1.2001
 20
1.2501
 30
0.0000
  0
SEQEND
  8
0
  0
POLYLINE
  8
16
 66
1
 10
0.0000
 20
0.0000
 30
0.0000
 40
0.1270
 41
0.1270
 70
0
  0
VERTEX
  8
16
 10
1.2251
 20
1.2251
 30
0.0000
 42
1.0000
  0
VERTEX
  8
16
 10
1.3149
 20
1.3149
 30
0.0000
  0
SEQEND
  8
0
  0
ENDSEC
  0
EOF
