G04 EAGLE Gerber RS-274X export*
G75*
%MOMM*%
%FSLAX34Y34*%
%LPD*%
%INTop Copper*%
%IPPOS*%
%AMOC8*
5,1,8,0,0,1.08239X$1,22.5*%
G01*
%ADD10C,2.700000*%
%ADD11R,1.900000X1.400000*%
%ADD12C,1.879600*%
%ADD13C,0.254000*%
%ADD14C,1.016000*%

G36*
X141088Y12716D02*
X141088Y12716D01*
X141207Y12723D01*
X141245Y12736D01*
X141285Y12741D01*
X141396Y12785D01*
X141509Y12821D01*
X141544Y12843D01*
X141581Y12858D01*
X141677Y12928D01*
X141778Y12991D01*
X141806Y13021D01*
X141839Y13045D01*
X141914Y13136D01*
X141996Y13223D01*
X142016Y13258D01*
X142041Y13290D01*
X142092Y13397D01*
X142150Y13502D01*
X142160Y13541D01*
X142177Y13577D01*
X142199Y13694D01*
X142229Y13809D01*
X142233Y13870D01*
X142237Y13890D01*
X142235Y13910D01*
X142239Y13970D01*
X142239Y24385D01*
X142496Y24345D01*
X144283Y23764D01*
X145957Y22911D01*
X146320Y22647D01*
X146355Y22628D01*
X146385Y22603D01*
X146494Y22552D01*
X146599Y22494D01*
X146637Y22484D01*
X146673Y22467D01*
X146791Y22445D01*
X146907Y22415D01*
X146946Y22415D01*
X146986Y22408D01*
X147105Y22415D01*
X147225Y22415D01*
X147263Y22425D01*
X147303Y22427D01*
X147417Y22464D01*
X147533Y22494D01*
X147568Y22513D01*
X147605Y22525D01*
X147706Y22589D01*
X147811Y22647D01*
X147841Y22674D01*
X147874Y22695D01*
X147956Y22783D01*
X148043Y22865D01*
X148065Y22898D01*
X148092Y22927D01*
X148150Y23032D01*
X148214Y23133D01*
X148226Y23171D01*
X148246Y23206D01*
X148275Y23321D01*
X148313Y23435D01*
X148315Y23475D01*
X148325Y23514D01*
X148335Y23674D01*
X148335Y93182D01*
X148320Y93300D01*
X148313Y93419D01*
X148300Y93457D01*
X148295Y93498D01*
X148252Y93608D01*
X148215Y93721D01*
X148193Y93756D01*
X148178Y93793D01*
X148109Y93889D01*
X148045Y93990D01*
X148015Y94018D01*
X147992Y94051D01*
X147900Y94127D01*
X147813Y94208D01*
X147778Y94228D01*
X147747Y94253D01*
X147639Y94304D01*
X147535Y94362D01*
X147495Y94372D01*
X147459Y94389D01*
X147342Y94411D01*
X147227Y94441D01*
X147167Y94445D01*
X147147Y94449D01*
X147126Y94447D01*
X147066Y94451D01*
X127437Y94451D01*
X125651Y96237D01*
X125651Y98912D01*
X125636Y99030D01*
X125629Y99149D01*
X125616Y99187D01*
X125611Y99228D01*
X125568Y99338D01*
X125531Y99451D01*
X125509Y99486D01*
X125494Y99523D01*
X125425Y99619D01*
X125361Y99720D01*
X125331Y99748D01*
X125308Y99781D01*
X125216Y99857D01*
X125129Y99938D01*
X125094Y99958D01*
X125063Y99983D01*
X124955Y100034D01*
X124851Y100092D01*
X124811Y100102D01*
X124775Y100119D01*
X124658Y100141D01*
X124543Y100171D01*
X124483Y100175D01*
X124463Y100179D01*
X124442Y100177D01*
X124382Y100181D01*
X106815Y100181D01*
X106716Y100169D01*
X106617Y100166D01*
X106559Y100149D01*
X106499Y100141D01*
X106407Y100105D01*
X106312Y100077D01*
X106260Y100047D01*
X106203Y100024D01*
X106123Y99966D01*
X106038Y99916D01*
X105963Y99850D01*
X105946Y99838D01*
X105938Y99828D01*
X105917Y99810D01*
X103389Y97281D01*
X88731Y97281D01*
X88702Y97278D01*
X88673Y97280D01*
X88545Y97258D01*
X88416Y97241D01*
X88389Y97231D01*
X88359Y97226D01*
X88241Y97172D01*
X88120Y97124D01*
X88096Y97107D01*
X88069Y97095D01*
X87968Y97014D01*
X87863Y96938D01*
X87844Y96915D01*
X87821Y96896D01*
X87743Y96793D01*
X87660Y96693D01*
X87647Y96666D01*
X87630Y96642D01*
X87559Y96498D01*
X86752Y94550D01*
X83250Y91048D01*
X78676Y89153D01*
X73724Y89153D01*
X69150Y91048D01*
X65648Y94550D01*
X63753Y99124D01*
X63753Y104076D01*
X65648Y108650D01*
X69150Y112152D01*
X73724Y114047D01*
X78676Y114047D01*
X83250Y112152D01*
X86752Y108650D01*
X87559Y106702D01*
X87573Y106677D01*
X87583Y106649D01*
X87652Y106539D01*
X87716Y106426D01*
X87737Y106405D01*
X87753Y106380D01*
X87847Y106291D01*
X87938Y106198D01*
X87963Y106182D01*
X87984Y106162D01*
X88098Y106099D01*
X88209Y106031D01*
X88237Y106023D01*
X88263Y106008D01*
X88389Y105976D01*
X88513Y105938D01*
X88542Y105936D01*
X88571Y105929D01*
X88731Y105919D01*
X99285Y105919D01*
X99384Y105931D01*
X99483Y105934D01*
X99541Y105951D01*
X99601Y105959D01*
X99693Y105995D01*
X99788Y106023D01*
X99840Y106053D01*
X99897Y106076D01*
X99977Y106134D01*
X100062Y106184D01*
X100137Y106250D01*
X100154Y106262D01*
X100162Y106272D01*
X100183Y106290D01*
X102711Y108819D01*
X124382Y108819D01*
X124500Y108834D01*
X124619Y108841D01*
X124657Y108854D01*
X124698Y108859D01*
X124808Y108902D01*
X124921Y108939D01*
X124956Y108961D01*
X124993Y108976D01*
X125089Y109045D01*
X125190Y109109D01*
X125218Y109139D01*
X125251Y109162D01*
X125327Y109254D01*
X125408Y109341D01*
X125428Y109376D01*
X125453Y109407D01*
X125504Y109515D01*
X125562Y109619D01*
X125572Y109659D01*
X125589Y109695D01*
X125611Y109812D01*
X125641Y109927D01*
X125645Y109987D01*
X125649Y110007D01*
X125647Y110028D01*
X125651Y110088D01*
X125651Y112763D01*
X127491Y114602D01*
X127564Y114697D01*
X127643Y114786D01*
X127661Y114822D01*
X127686Y114854D01*
X127733Y114963D01*
X127787Y115069D01*
X127796Y115108D01*
X127812Y115146D01*
X127831Y115263D01*
X127857Y115379D01*
X127856Y115420D01*
X127862Y115460D01*
X127851Y115578D01*
X127847Y115697D01*
X127836Y115736D01*
X127832Y115776D01*
X127792Y115889D01*
X127759Y116003D01*
X127738Y116037D01*
X127725Y116076D01*
X127658Y116174D01*
X127597Y116277D01*
X127565Y116313D01*
X127562Y116318D01*
X127556Y116324D01*
X127546Y116339D01*
X127531Y116352D01*
X127491Y116397D01*
X125651Y118237D01*
X125651Y134763D01*
X127437Y136549D01*
X147066Y136549D01*
X147184Y136564D01*
X147303Y136571D01*
X147341Y136584D01*
X147382Y136589D01*
X147492Y136632D01*
X147605Y136669D01*
X147640Y136691D01*
X147677Y136706D01*
X147773Y136775D01*
X147874Y136839D01*
X147902Y136869D01*
X147935Y136892D01*
X148011Y136984D01*
X148092Y137071D01*
X148112Y137106D01*
X148137Y137137D01*
X148188Y137245D01*
X148246Y137349D01*
X148256Y137389D01*
X148273Y137425D01*
X148295Y137542D01*
X148325Y137657D01*
X148329Y137717D01*
X148333Y137737D01*
X148331Y137758D01*
X148335Y137818D01*
X148335Y167182D01*
X148320Y167300D01*
X148313Y167419D01*
X148300Y167457D01*
X148295Y167498D01*
X148252Y167608D01*
X148215Y167721D01*
X148193Y167756D01*
X148178Y167793D01*
X148109Y167889D01*
X148045Y167990D01*
X148015Y168018D01*
X147992Y168051D01*
X147900Y168127D01*
X147813Y168208D01*
X147778Y168228D01*
X147747Y168253D01*
X147639Y168304D01*
X147535Y168362D01*
X147495Y168372D01*
X147459Y168389D01*
X147342Y168411D01*
X147227Y168441D01*
X147167Y168445D01*
X147147Y168449D01*
X147126Y168447D01*
X147066Y168451D01*
X127437Y168451D01*
X126496Y169393D01*
X126401Y169466D01*
X126312Y169545D01*
X126276Y169563D01*
X126244Y169588D01*
X126135Y169635D01*
X126029Y169689D01*
X125990Y169698D01*
X125952Y169714D01*
X125835Y169733D01*
X125719Y169759D01*
X125678Y169758D01*
X125638Y169764D01*
X125520Y169753D01*
X125401Y169749D01*
X125362Y169738D01*
X125322Y169734D01*
X125210Y169694D01*
X125095Y169661D01*
X125061Y169640D01*
X125022Y169627D01*
X124924Y169560D01*
X124821Y169499D01*
X124776Y169459D01*
X124759Y169448D01*
X124746Y169433D01*
X124701Y169393D01*
X122800Y167493D01*
X122740Y167415D01*
X122672Y167342D01*
X122643Y167289D01*
X122606Y167242D01*
X122566Y167151D01*
X122518Y167064D01*
X122503Y167005D01*
X122479Y166950D01*
X122464Y166852D01*
X122439Y166756D01*
X122433Y166656D01*
X122429Y166636D01*
X122431Y166623D01*
X122429Y166595D01*
X122429Y163483D01*
X121191Y160495D01*
X118905Y158209D01*
X115917Y156971D01*
X112683Y156971D01*
X109695Y158209D01*
X107409Y160495D01*
X106171Y163483D01*
X106171Y166717D01*
X107409Y169705D01*
X109695Y171991D01*
X112683Y173229D01*
X115795Y173229D01*
X115894Y173241D01*
X115993Y173244D01*
X116051Y173261D01*
X116111Y173269D01*
X116203Y173305D01*
X116298Y173333D01*
X116350Y173363D01*
X116407Y173386D01*
X116487Y173444D01*
X116572Y173494D01*
X116647Y173560D01*
X116664Y173572D01*
X116672Y173582D01*
X116693Y173600D01*
X125280Y182187D01*
X125340Y182265D01*
X125408Y182338D01*
X125437Y182391D01*
X125474Y182438D01*
X125514Y182529D01*
X125562Y182616D01*
X125577Y182675D01*
X125601Y182730D01*
X125616Y182828D01*
X125641Y182924D01*
X125647Y183024D01*
X125651Y183044D01*
X125649Y183057D01*
X125651Y183085D01*
X125651Y186763D01*
X127491Y188602D01*
X127564Y188697D01*
X127643Y188786D01*
X127661Y188822D01*
X127686Y188854D01*
X127733Y188963D01*
X127787Y189069D01*
X127796Y189108D01*
X127812Y189146D01*
X127831Y189263D01*
X127857Y189379D01*
X127856Y189420D01*
X127862Y189460D01*
X127851Y189578D01*
X127847Y189697D01*
X127836Y189736D01*
X127832Y189776D01*
X127792Y189889D01*
X127759Y190003D01*
X127738Y190037D01*
X127725Y190076D01*
X127658Y190174D01*
X127597Y190277D01*
X127557Y190322D01*
X127546Y190339D01*
X127531Y190352D01*
X127491Y190397D01*
X125651Y192237D01*
X125651Y194912D01*
X125636Y195030D01*
X125629Y195149D01*
X125616Y195187D01*
X125611Y195228D01*
X125568Y195338D01*
X125531Y195451D01*
X125509Y195486D01*
X125494Y195523D01*
X125425Y195619D01*
X125361Y195720D01*
X125331Y195748D01*
X125308Y195781D01*
X125216Y195857D01*
X125129Y195938D01*
X125094Y195958D01*
X125063Y195983D01*
X124955Y196034D01*
X124851Y196092D01*
X124811Y196102D01*
X124775Y196119D01*
X124658Y196141D01*
X124543Y196171D01*
X124483Y196175D01*
X124463Y196179D01*
X124442Y196177D01*
X124382Y196181D01*
X113915Y196181D01*
X113816Y196169D01*
X113717Y196166D01*
X113659Y196149D01*
X113599Y196141D01*
X113507Y196105D01*
X113412Y196077D01*
X113360Y196047D01*
X113303Y196024D01*
X113223Y195966D01*
X113138Y195916D01*
X113063Y195850D01*
X113046Y195838D01*
X113038Y195828D01*
X113017Y195810D01*
X110100Y192893D01*
X110040Y192815D01*
X109972Y192742D01*
X109943Y192689D01*
X109906Y192642D01*
X109866Y192551D01*
X109818Y192464D01*
X109803Y192405D01*
X109779Y192350D01*
X109764Y192252D01*
X109739Y192156D01*
X109733Y192056D01*
X109729Y192036D01*
X109731Y192023D01*
X109729Y191995D01*
X109729Y188883D01*
X108491Y185895D01*
X106205Y183609D01*
X103217Y182371D01*
X99983Y182371D01*
X96995Y183609D01*
X94709Y185895D01*
X93471Y188883D01*
X93471Y192117D01*
X94709Y195105D01*
X96995Y197391D01*
X99983Y198629D01*
X103095Y198629D01*
X103194Y198641D01*
X103293Y198644D01*
X103351Y198661D01*
X103411Y198669D01*
X103503Y198705D01*
X103598Y198733D01*
X103650Y198763D01*
X103707Y198786D01*
X103787Y198844D01*
X103872Y198894D01*
X103947Y198960D01*
X103964Y198972D01*
X103972Y198982D01*
X103993Y199000D01*
X109811Y204819D01*
X124382Y204819D01*
X124500Y204834D01*
X124619Y204841D01*
X124657Y204854D01*
X124698Y204859D01*
X124808Y204902D01*
X124921Y204939D01*
X124956Y204961D01*
X124993Y204976D01*
X125089Y205045D01*
X125190Y205109D01*
X125218Y205139D01*
X125251Y205162D01*
X125327Y205254D01*
X125408Y205341D01*
X125428Y205376D01*
X125453Y205407D01*
X125504Y205515D01*
X125562Y205619D01*
X125572Y205659D01*
X125589Y205695D01*
X125611Y205812D01*
X125641Y205927D01*
X125645Y205987D01*
X125649Y206007D01*
X125647Y206028D01*
X125651Y206088D01*
X125651Y208763D01*
X127437Y210549D01*
X147066Y210549D01*
X147184Y210564D01*
X147303Y210571D01*
X147341Y210584D01*
X147382Y210589D01*
X147492Y210632D01*
X147605Y210669D01*
X147640Y210691D01*
X147677Y210706D01*
X147773Y210775D01*
X147874Y210839D01*
X147902Y210869D01*
X147935Y210892D01*
X148011Y210984D01*
X148092Y211071D01*
X148112Y211106D01*
X148137Y211137D01*
X148188Y211245D01*
X148246Y211349D01*
X148256Y211389D01*
X148273Y211425D01*
X148295Y211542D01*
X148325Y211657D01*
X148329Y211717D01*
X148333Y211737D01*
X148331Y211758D01*
X148335Y211818D01*
X148335Y288386D01*
X148318Y288524D01*
X148305Y288662D01*
X148298Y288681D01*
X148295Y288702D01*
X148244Y288831D01*
X148197Y288962D01*
X148186Y288979D01*
X148178Y288997D01*
X148097Y289110D01*
X148019Y289225D01*
X148003Y289238D01*
X147992Y289255D01*
X147884Y289343D01*
X147780Y289435D01*
X147762Y289444D01*
X147747Y289457D01*
X147621Y289517D01*
X147497Y289580D01*
X147477Y289584D01*
X147459Y289593D01*
X147322Y289619D01*
X147187Y289650D01*
X147166Y289649D01*
X147147Y289653D01*
X147008Y289644D01*
X146869Y289640D01*
X146849Y289634D01*
X146829Y289633D01*
X146697Y289590D01*
X146563Y289551D01*
X146546Y289541D01*
X146527Y289535D01*
X146409Y289461D01*
X146289Y289390D01*
X146268Y289371D01*
X146258Y289365D01*
X146244Y289350D01*
X146169Y289283D01*
X145299Y288414D01*
X143631Y287134D01*
X141810Y286083D01*
X139867Y285278D01*
X137836Y284734D01*
X137239Y284655D01*
X137239Y299230D01*
X137224Y299348D01*
X137217Y299467D01*
X137204Y299505D01*
X137199Y299545D01*
X137156Y299656D01*
X137119Y299769D01*
X137097Y299803D01*
X137082Y299841D01*
X137012Y299937D01*
X136949Y300038D01*
X136919Y300066D01*
X136895Y300098D01*
X136804Y300174D01*
X136717Y300256D01*
X136682Y300275D01*
X136651Y300301D01*
X136543Y300352D01*
X136439Y300409D01*
X136399Y300420D01*
X136363Y300437D01*
X136246Y300459D01*
X136131Y300489D01*
X136070Y300493D01*
X136050Y300497D01*
X136030Y300495D01*
X135970Y300499D01*
X134699Y300499D01*
X134699Y301770D01*
X134684Y301888D01*
X134677Y302007D01*
X134664Y302045D01*
X134659Y302085D01*
X134615Y302196D01*
X134579Y302309D01*
X134557Y302344D01*
X134542Y302381D01*
X134472Y302477D01*
X134409Y302578D01*
X134379Y302606D01*
X134355Y302639D01*
X134264Y302714D01*
X134177Y302796D01*
X134142Y302816D01*
X134110Y302841D01*
X134003Y302892D01*
X133898Y302950D01*
X133859Y302960D01*
X133823Y302977D01*
X133706Y302999D01*
X133591Y303029D01*
X133530Y303033D01*
X133510Y303037D01*
X133490Y303035D01*
X133430Y303039D01*
X118855Y303039D01*
X118934Y303636D01*
X119478Y305667D01*
X120312Y307680D01*
X120325Y307728D01*
X120346Y307773D01*
X120367Y307881D01*
X120396Y307987D01*
X120397Y308037D01*
X120406Y308086D01*
X120399Y308195D01*
X120401Y308305D01*
X120389Y308353D01*
X120386Y308403D01*
X120352Y308507D01*
X120327Y308614D01*
X120303Y308658D01*
X120288Y308705D01*
X120229Y308798D01*
X120178Y308895D01*
X120145Y308932D01*
X120118Y308974D01*
X120038Y309049D01*
X119964Y309131D01*
X119922Y309158D01*
X119886Y309192D01*
X119790Y309245D01*
X119698Y309305D01*
X119651Y309322D01*
X119608Y309346D01*
X119502Y309373D01*
X119397Y309409D01*
X119348Y309413D01*
X119300Y309425D01*
X119139Y309435D01*
X93534Y309435D01*
X93416Y309420D01*
X93297Y309413D01*
X93259Y309400D01*
X93218Y309395D01*
X93108Y309352D01*
X92995Y309315D01*
X92960Y309293D01*
X92923Y309278D01*
X92827Y309209D01*
X92726Y309145D01*
X92698Y309115D01*
X92665Y309092D01*
X92589Y309000D01*
X92508Y308913D01*
X92488Y308878D01*
X92463Y308847D01*
X92412Y308739D01*
X92354Y308635D01*
X92344Y308595D01*
X92327Y308559D01*
X92305Y308442D01*
X92275Y308327D01*
X92271Y308267D01*
X92267Y308247D01*
X92269Y308226D01*
X92265Y308166D01*
X92265Y286071D01*
X89836Y281864D01*
X85629Y279435D01*
X66771Y279435D01*
X62564Y281864D01*
X60135Y286071D01*
X60135Y308166D01*
X60120Y308284D01*
X60113Y308403D01*
X60100Y308441D01*
X60095Y308482D01*
X60052Y308592D01*
X60015Y308705D01*
X59993Y308740D01*
X59978Y308777D01*
X59909Y308873D01*
X59845Y308974D01*
X59815Y309002D01*
X59792Y309035D01*
X59700Y309111D01*
X59613Y309192D01*
X59578Y309212D01*
X59547Y309237D01*
X59439Y309288D01*
X59335Y309346D01*
X59295Y309356D01*
X59259Y309373D01*
X59142Y309395D01*
X59027Y309425D01*
X58967Y309429D01*
X58947Y309433D01*
X58926Y309431D01*
X58866Y309435D01*
X33261Y309435D01*
X33211Y309429D01*
X33162Y309431D01*
X33054Y309409D01*
X32945Y309395D01*
X32899Y309377D01*
X32850Y309367D01*
X32752Y309319D01*
X32650Y309278D01*
X32609Y309249D01*
X32565Y309227D01*
X32481Y309156D01*
X32392Y309092D01*
X32361Y309053D01*
X32323Y309021D01*
X32259Y308931D01*
X32189Y308847D01*
X32168Y308802D01*
X32140Y308761D01*
X32101Y308658D01*
X32054Y308559D01*
X32045Y308510D01*
X32027Y308464D01*
X32015Y308354D01*
X31994Y308247D01*
X31997Y308197D01*
X31992Y308148D01*
X32007Y308039D01*
X32014Y307929D01*
X32029Y307882D01*
X32036Y307833D01*
X32088Y307680D01*
X32922Y305667D01*
X33466Y303636D01*
X33545Y303039D01*
X18970Y303039D01*
X18852Y303024D01*
X18733Y303017D01*
X18695Y303004D01*
X18655Y302999D01*
X18544Y302956D01*
X18431Y302919D01*
X18397Y302897D01*
X18359Y302882D01*
X18263Y302812D01*
X18162Y302749D01*
X18134Y302719D01*
X18102Y302695D01*
X18026Y302604D01*
X17944Y302517D01*
X17925Y302482D01*
X17899Y302451D01*
X17848Y302343D01*
X17791Y302239D01*
X17780Y302199D01*
X17763Y302163D01*
X17741Y302046D01*
X17711Y301931D01*
X17707Y301870D01*
X17703Y301850D01*
X17705Y301830D01*
X17701Y301770D01*
X17701Y300499D01*
X16430Y300499D01*
X16312Y300484D01*
X16193Y300477D01*
X16155Y300464D01*
X16114Y300459D01*
X16004Y300415D01*
X15891Y300379D01*
X15856Y300357D01*
X15819Y300342D01*
X15723Y300272D01*
X15622Y300209D01*
X15594Y300179D01*
X15561Y300155D01*
X15486Y300064D01*
X15404Y299977D01*
X15384Y299942D01*
X15359Y299910D01*
X15308Y299803D01*
X15250Y299698D01*
X15240Y299659D01*
X15223Y299623D01*
X15201Y299506D01*
X15171Y299391D01*
X15167Y299330D01*
X15163Y299310D01*
X15165Y299290D01*
X15161Y299230D01*
X15161Y284655D01*
X14564Y284734D01*
X12533Y285278D01*
X10590Y286083D01*
X8769Y287134D01*
X7101Y288414D01*
X6231Y289283D01*
X6122Y289368D01*
X6015Y289457D01*
X5996Y289466D01*
X5980Y289478D01*
X5852Y289534D01*
X5727Y289593D01*
X5707Y289597D01*
X5688Y289605D01*
X5550Y289627D01*
X5414Y289653D01*
X5394Y289651D01*
X5374Y289655D01*
X5235Y289642D01*
X5097Y289633D01*
X5078Y289627D01*
X5058Y289625D01*
X4926Y289578D01*
X4795Y289535D01*
X4777Y289524D01*
X4758Y289517D01*
X4643Y289439D01*
X4526Y289365D01*
X4512Y289350D01*
X4495Y289339D01*
X4403Y289235D01*
X4308Y289133D01*
X4298Y289115D01*
X4285Y289100D01*
X4222Y288977D01*
X4154Y288855D01*
X4149Y288835D01*
X4140Y288817D01*
X4110Y288681D01*
X4075Y288547D01*
X4073Y288519D01*
X4070Y288507D01*
X4071Y288486D01*
X4065Y288386D01*
X4065Y211310D01*
X4080Y211192D01*
X4087Y211073D01*
X4100Y211035D01*
X4105Y210994D01*
X4148Y210884D01*
X4185Y210771D01*
X4207Y210736D01*
X4222Y210699D01*
X4291Y210603D01*
X4355Y210502D01*
X4385Y210474D01*
X4408Y210441D01*
X4500Y210365D01*
X4587Y210284D01*
X4622Y210264D01*
X4653Y210239D01*
X4761Y210188D01*
X4865Y210130D01*
X4905Y210120D01*
X4941Y210103D01*
X5058Y210081D01*
X5173Y210051D01*
X5233Y210047D01*
X5253Y210043D01*
X5274Y210045D01*
X5334Y210041D01*
X11661Y210041D01*
X11661Y201770D01*
X11676Y201652D01*
X11683Y201533D01*
X11696Y201495D01*
X11701Y201455D01*
X11744Y201344D01*
X11781Y201231D01*
X11803Y201196D01*
X11818Y201159D01*
X11888Y201063D01*
X11951Y200962D01*
X11981Y200934D01*
X12005Y200902D01*
X12096Y200826D01*
X12183Y200744D01*
X12218Y200725D01*
X12249Y200699D01*
X12357Y200648D01*
X12461Y200591D01*
X12501Y200580D01*
X12537Y200563D01*
X12654Y200541D01*
X12769Y200511D01*
X12830Y200507D01*
X12850Y200503D01*
X12870Y200505D01*
X12930Y200501D01*
X14201Y200501D01*
X14201Y199230D01*
X14216Y199112D01*
X14223Y198993D01*
X14236Y198955D01*
X14241Y198915D01*
X14285Y198804D01*
X14321Y198691D01*
X14343Y198656D01*
X14358Y198619D01*
X14428Y198523D01*
X14491Y198422D01*
X14521Y198394D01*
X14545Y198361D01*
X14636Y198286D01*
X14723Y198204D01*
X14758Y198184D01*
X14790Y198159D01*
X14897Y198108D01*
X15001Y198050D01*
X15041Y198040D01*
X15077Y198023D01*
X15194Y198001D01*
X15309Y197971D01*
X15370Y197967D01*
X15390Y197963D01*
X15410Y197965D01*
X15470Y197961D01*
X26241Y197961D01*
X26241Y193166D01*
X26068Y192519D01*
X25733Y191940D01*
X25260Y191467D01*
X24681Y191132D01*
X24351Y191044D01*
X24209Y190986D01*
X24068Y190930D01*
X24062Y190926D01*
X24056Y190924D01*
X23934Y190833D01*
X23811Y190744D01*
X23806Y190738D01*
X23801Y190734D01*
X23706Y190617D01*
X23608Y190499D01*
X23605Y190492D01*
X23601Y190487D01*
X23537Y190348D01*
X23472Y190211D01*
X23471Y190204D01*
X23468Y190198D01*
X23441Y190047D01*
X23412Y189898D01*
X23413Y189892D01*
X23412Y189885D01*
X23423Y189733D01*
X23432Y189581D01*
X23434Y189575D01*
X23435Y189568D01*
X23484Y189422D01*
X23530Y189279D01*
X23534Y189273D01*
X23536Y189266D01*
X23620Y189137D01*
X23700Y189010D01*
X23705Y189005D01*
X23709Y189000D01*
X23820Y188897D01*
X23932Y188792D01*
X23938Y188789D01*
X23943Y188784D01*
X24077Y188712D01*
X24210Y188638D01*
X24217Y188637D01*
X24223Y188634D01*
X24372Y188597D01*
X24518Y188559D01*
X24527Y188558D01*
X24532Y188557D01*
X24542Y188557D01*
X24679Y188549D01*
X24963Y188549D01*
X26749Y186763D01*
X26749Y170237D01*
X24963Y168451D01*
X19788Y168451D01*
X19670Y168436D01*
X19551Y168429D01*
X19513Y168416D01*
X19472Y168411D01*
X19362Y168368D01*
X19249Y168331D01*
X19214Y168309D01*
X19177Y168294D01*
X19081Y168225D01*
X18980Y168161D01*
X18952Y168131D01*
X18919Y168108D01*
X18843Y168016D01*
X18762Y167929D01*
X18742Y167894D01*
X18717Y167863D01*
X18666Y167755D01*
X18608Y167651D01*
X18598Y167611D01*
X18581Y167575D01*
X18559Y167458D01*
X18529Y167343D01*
X18525Y167283D01*
X18521Y167263D01*
X18523Y167242D01*
X18519Y167182D01*
X18519Y165915D01*
X18531Y165816D01*
X18534Y165717D01*
X18551Y165659D01*
X18559Y165599D01*
X18595Y165507D01*
X18623Y165412D01*
X18653Y165360D01*
X18676Y165303D01*
X18734Y165223D01*
X18784Y165138D01*
X18850Y165063D01*
X18862Y165046D01*
X18872Y165038D01*
X18890Y165017D01*
X23007Y160900D01*
X23085Y160840D01*
X23158Y160772D01*
X23211Y160743D01*
X23258Y160706D01*
X23349Y160666D01*
X23436Y160618D01*
X23495Y160603D01*
X23550Y160579D01*
X23648Y160564D01*
X23744Y160539D01*
X23844Y160533D01*
X23864Y160529D01*
X23877Y160531D01*
X23905Y160529D01*
X27017Y160529D01*
X30005Y159291D01*
X32291Y157005D01*
X33529Y154017D01*
X33529Y150783D01*
X32291Y147795D01*
X30005Y145509D01*
X27017Y144271D01*
X23783Y144271D01*
X20795Y145509D01*
X18509Y147795D01*
X17271Y150783D01*
X17271Y153895D01*
X17259Y153994D01*
X17256Y154093D01*
X17239Y154151D01*
X17231Y154211D01*
X17195Y154303D01*
X17167Y154398D01*
X17137Y154450D01*
X17114Y154507D01*
X17056Y154587D01*
X17006Y154672D01*
X16940Y154747D01*
X16928Y154764D01*
X16918Y154772D01*
X16900Y154793D01*
X9881Y161811D01*
X9881Y167182D01*
X9866Y167300D01*
X9859Y167419D01*
X9846Y167457D01*
X9841Y167498D01*
X9798Y167608D01*
X9761Y167721D01*
X9739Y167756D01*
X9724Y167793D01*
X9655Y167889D01*
X9591Y167990D01*
X9561Y168018D01*
X9538Y168051D01*
X9446Y168127D01*
X9359Y168208D01*
X9324Y168228D01*
X9293Y168253D01*
X9185Y168304D01*
X9081Y168362D01*
X9041Y168372D01*
X9005Y168389D01*
X8888Y168411D01*
X8773Y168441D01*
X8713Y168445D01*
X8693Y168449D01*
X8672Y168447D01*
X8612Y168451D01*
X5334Y168451D01*
X5216Y168436D01*
X5097Y168429D01*
X5059Y168416D01*
X5018Y168411D01*
X4908Y168368D01*
X4795Y168331D01*
X4760Y168309D01*
X4723Y168294D01*
X4627Y168225D01*
X4526Y168161D01*
X4498Y168131D01*
X4465Y168108D01*
X4389Y168016D01*
X4308Y167929D01*
X4288Y167894D01*
X4263Y167863D01*
X4212Y167755D01*
X4154Y167651D01*
X4144Y167611D01*
X4127Y167575D01*
X4105Y167458D01*
X4075Y167343D01*
X4071Y167283D01*
X4067Y167263D01*
X4069Y167242D01*
X4065Y167182D01*
X4065Y137818D01*
X4080Y137700D01*
X4087Y137581D01*
X4100Y137543D01*
X4105Y137502D01*
X4148Y137392D01*
X4185Y137279D01*
X4207Y137244D01*
X4222Y137207D01*
X4291Y137111D01*
X4355Y137010D01*
X4385Y136982D01*
X4408Y136949D01*
X4500Y136873D01*
X4587Y136792D01*
X4622Y136772D01*
X4653Y136747D01*
X4761Y136696D01*
X4865Y136638D01*
X4905Y136628D01*
X4941Y136611D01*
X5058Y136589D01*
X5173Y136559D01*
X5233Y136555D01*
X5253Y136551D01*
X5274Y136553D01*
X5334Y136549D01*
X24963Y136549D01*
X26749Y134763D01*
X26749Y132088D01*
X26764Y131970D01*
X26771Y131851D01*
X26784Y131813D01*
X26789Y131772D01*
X26832Y131662D01*
X26869Y131549D01*
X26891Y131514D01*
X26906Y131477D01*
X26975Y131381D01*
X27039Y131280D01*
X27069Y131252D01*
X27092Y131219D01*
X27184Y131143D01*
X27271Y131062D01*
X27306Y131042D01*
X27337Y131017D01*
X27445Y130966D01*
X27549Y130908D01*
X27589Y130898D01*
X27625Y130881D01*
X27742Y130859D01*
X27857Y130829D01*
X27917Y130825D01*
X27937Y130821D01*
X27958Y130823D01*
X28018Y130819D01*
X30397Y130819D01*
X30495Y130831D01*
X30594Y130834D01*
X30653Y130851D01*
X30713Y130859D01*
X30805Y130895D01*
X30900Y130923D01*
X30952Y130953D01*
X31008Y130976D01*
X31088Y131034D01*
X31174Y131084D01*
X31249Y131150D01*
X31266Y131162D01*
X31274Y131172D01*
X31295Y131190D01*
X33495Y133391D01*
X36483Y134629D01*
X39717Y134629D01*
X42705Y133391D01*
X44991Y131105D01*
X46229Y128117D01*
X46229Y124883D01*
X44991Y121895D01*
X42705Y119609D01*
X39717Y118371D01*
X36483Y118371D01*
X33495Y119609D01*
X31295Y121810D01*
X31216Y121870D01*
X31144Y121938D01*
X31091Y121967D01*
X31043Y122004D01*
X30952Y122044D01*
X30866Y122092D01*
X30807Y122107D01*
X30752Y122131D01*
X30654Y122146D01*
X30558Y122171D01*
X30458Y122177D01*
X30437Y122181D01*
X30425Y122179D01*
X30397Y122181D01*
X28018Y122181D01*
X27900Y122166D01*
X27781Y122159D01*
X27743Y122146D01*
X27702Y122141D01*
X27592Y122098D01*
X27479Y122061D01*
X27444Y122039D01*
X27407Y122024D01*
X27311Y121955D01*
X27210Y121891D01*
X27182Y121861D01*
X27149Y121838D01*
X27073Y121746D01*
X26992Y121659D01*
X26972Y121624D01*
X26947Y121593D01*
X26896Y121485D01*
X26838Y121381D01*
X26828Y121341D01*
X26811Y121305D01*
X26789Y121188D01*
X26759Y121073D01*
X26755Y121013D01*
X26751Y120993D01*
X26753Y120972D01*
X26749Y120912D01*
X26749Y118237D01*
X24909Y116397D01*
X24836Y116303D01*
X24757Y116214D01*
X24739Y116178D01*
X24714Y116146D01*
X24667Y116037D01*
X24613Y115931D01*
X24604Y115892D01*
X24588Y115854D01*
X24569Y115737D01*
X24543Y115621D01*
X24544Y115580D01*
X24538Y115540D01*
X24549Y115422D01*
X24553Y115303D01*
X24564Y115264D01*
X24568Y115224D01*
X24608Y115112D01*
X24641Y114997D01*
X24662Y114962D01*
X24675Y114924D01*
X24742Y114826D01*
X24803Y114723D01*
X24842Y114678D01*
X24854Y114661D01*
X24869Y114648D01*
X24909Y114602D01*
X26749Y112763D01*
X26749Y110088D01*
X26764Y109970D01*
X26771Y109851D01*
X26784Y109813D01*
X26789Y109772D01*
X26832Y109662D01*
X26869Y109549D01*
X26891Y109514D01*
X26906Y109477D01*
X26975Y109381D01*
X27039Y109280D01*
X27069Y109252D01*
X27092Y109219D01*
X27184Y109143D01*
X27271Y109062D01*
X27306Y109042D01*
X27337Y109017D01*
X27445Y108966D01*
X27549Y108908D01*
X27589Y108898D01*
X27625Y108881D01*
X27742Y108859D01*
X27857Y108829D01*
X27917Y108825D01*
X27937Y108821D01*
X27958Y108823D01*
X28018Y108819D01*
X36989Y108819D01*
X67819Y77989D01*
X67819Y25231D01*
X67822Y25202D01*
X67820Y25173D01*
X67842Y25045D01*
X67859Y24916D01*
X67869Y24889D01*
X67874Y24859D01*
X67928Y24741D01*
X67976Y24620D01*
X67993Y24596D01*
X68005Y24569D01*
X68086Y24468D01*
X68162Y24363D01*
X68185Y24344D01*
X68204Y24321D01*
X68307Y24243D01*
X68407Y24160D01*
X68434Y24147D01*
X68458Y24130D01*
X68602Y24059D01*
X70550Y23252D01*
X74052Y19750D01*
X75027Y17395D01*
X75096Y17275D01*
X75161Y17152D01*
X75175Y17137D01*
X75185Y17119D01*
X75282Y17019D01*
X75375Y16916D01*
X75392Y16905D01*
X75406Y16891D01*
X75525Y16818D01*
X75641Y16742D01*
X75660Y16735D01*
X75677Y16724D01*
X75810Y16684D01*
X75942Y16638D01*
X75962Y16637D01*
X75981Y16631D01*
X76120Y16624D01*
X76259Y16613D01*
X76279Y16617D01*
X76299Y16616D01*
X76435Y16644D01*
X76572Y16668D01*
X76591Y16676D01*
X76610Y16680D01*
X76736Y16741D01*
X76862Y16798D01*
X76878Y16811D01*
X76896Y16820D01*
X77002Y16910D01*
X77110Y16997D01*
X77123Y17013D01*
X77138Y17026D01*
X77218Y17140D01*
X77302Y17251D01*
X77314Y17276D01*
X77321Y17286D01*
X77328Y17305D01*
X77373Y17395D01*
X78348Y19750D01*
X81850Y23252D01*
X86424Y25147D01*
X91376Y25147D01*
X95950Y23252D01*
X99452Y19750D01*
X100427Y17395D01*
X100496Y17275D01*
X100561Y17152D01*
X100575Y17137D01*
X100585Y17119D01*
X100682Y17019D01*
X100775Y16916D01*
X100792Y16905D01*
X100806Y16891D01*
X100925Y16818D01*
X101041Y16742D01*
X101060Y16735D01*
X101077Y16724D01*
X101210Y16683D01*
X101342Y16638D01*
X101362Y16637D01*
X101381Y16631D01*
X101520Y16624D01*
X101659Y16613D01*
X101679Y16617D01*
X101699Y16616D01*
X101835Y16644D01*
X101972Y16668D01*
X101991Y16676D01*
X102010Y16680D01*
X102136Y16741D01*
X102262Y16798D01*
X102278Y16811D01*
X102296Y16820D01*
X102402Y16910D01*
X102510Y16997D01*
X102523Y17013D01*
X102538Y17026D01*
X102618Y17140D01*
X102702Y17251D01*
X102714Y17276D01*
X102721Y17286D01*
X102728Y17305D01*
X102773Y17395D01*
X103748Y19751D01*
X107250Y23252D01*
X111824Y25147D01*
X116776Y25147D01*
X121350Y23252D01*
X124852Y19750D01*
X126105Y16725D01*
X126120Y16699D01*
X126129Y16670D01*
X126199Y16561D01*
X126263Y16448D01*
X126284Y16427D01*
X126300Y16402D01*
X126394Y16313D01*
X126484Y16220D01*
X126510Y16204D01*
X126531Y16184D01*
X126645Y16121D01*
X126755Y16054D01*
X126784Y16045D01*
X126810Y16031D01*
X126935Y15998D01*
X127059Y15960D01*
X127089Y15959D01*
X127118Y15951D01*
X127248Y15951D01*
X127377Y15945D01*
X127406Y15951D01*
X127436Y15951D01*
X127561Y15983D01*
X127688Y16009D01*
X127715Y16022D01*
X127744Y16030D01*
X127857Y16092D01*
X127974Y16149D01*
X127997Y16168D01*
X128023Y16183D01*
X128117Y16271D01*
X128216Y16355D01*
X128233Y16380D01*
X128255Y16400D01*
X128324Y16509D01*
X128399Y16615D01*
X128410Y16643D01*
X128426Y16669D01*
X128485Y16818D01*
X128636Y17283D01*
X129489Y18957D01*
X130594Y20478D01*
X131922Y21806D01*
X133443Y22911D01*
X135117Y23764D01*
X136904Y24345D01*
X137161Y24385D01*
X137161Y13970D01*
X137176Y13852D01*
X137183Y13733D01*
X137196Y13695D01*
X137201Y13655D01*
X137244Y13544D01*
X137281Y13431D01*
X137303Y13397D01*
X137318Y13359D01*
X137388Y13263D01*
X137451Y13162D01*
X137481Y13134D01*
X137504Y13102D01*
X137596Y13026D01*
X137683Y12944D01*
X137718Y12925D01*
X137749Y12899D01*
X137857Y12848D01*
X137961Y12791D01*
X138001Y12780D01*
X138037Y12763D01*
X138154Y12741D01*
X138269Y12711D01*
X138330Y12707D01*
X138350Y12703D01*
X138370Y12705D01*
X138430Y12701D01*
X140970Y12701D01*
X141088Y12716D01*
G37*
%LPC*%
G36*
X20239Y297961D02*
X20239Y297961D01*
X33545Y297961D01*
X33466Y297364D01*
X32922Y295333D01*
X32117Y293390D01*
X31066Y291569D01*
X29786Y289901D01*
X28299Y288414D01*
X26631Y287134D01*
X24810Y286083D01*
X22867Y285278D01*
X20836Y284734D01*
X20239Y284655D01*
X20239Y297961D01*
G37*
%LPD*%
%LPC*%
G36*
X131564Y284734D02*
X131564Y284734D01*
X129533Y285278D01*
X127590Y286083D01*
X125769Y287134D01*
X124101Y288414D01*
X122614Y289901D01*
X121334Y291569D01*
X120283Y293390D01*
X119478Y295333D01*
X118934Y297364D01*
X118855Y297961D01*
X132161Y297961D01*
X132161Y284655D01*
X131564Y284734D01*
G37*
%LPD*%
%LPC*%
G36*
X16739Y203039D02*
X16739Y203039D01*
X16739Y210041D01*
X24034Y210041D01*
X24681Y209868D01*
X25260Y209533D01*
X25733Y209060D01*
X26068Y208481D01*
X26241Y207834D01*
X26241Y203039D01*
X16739Y203039D01*
G37*
%LPD*%
D10*
X17700Y300500D03*
X134700Y300500D03*
D11*
X14200Y200500D03*
X14200Y178500D03*
X14200Y126500D03*
X14200Y104500D03*
X138200Y104500D03*
X138200Y126500D03*
X138200Y178500D03*
X138200Y200500D03*
D12*
X76200Y101600D03*
X139700Y12700D03*
X114300Y12700D03*
X88900Y12700D03*
X63500Y12700D03*
X38100Y12700D03*
X12700Y12700D03*
D13*
X111600Y200500D02*
X138200Y200500D01*
X111600Y200500D02*
X101600Y190500D01*
D14*
X101600Y190500D03*
D13*
X14200Y178500D02*
X14200Y163600D01*
X25400Y152400D01*
D14*
X25400Y152400D03*
D13*
X104500Y104500D02*
X138200Y104500D01*
X104500Y104500D02*
X101600Y101600D01*
X76200Y101600D01*
X35200Y104500D02*
X14200Y104500D01*
X35200Y104500D02*
X63500Y76200D01*
X63500Y12700D01*
X38100Y126500D02*
X14200Y126500D01*
D14*
X38100Y126500D03*
D13*
X127700Y178500D02*
X138200Y178500D01*
X127700Y178500D02*
X114300Y165100D01*
D14*
X114300Y165100D03*
M02*
