M48
;GenerationSoftware,Autodesk,EAGLE,9.6.2*%
;CreationDate,2022-08-05T21:21:33Z*%
FMAT,2
ICI,OFF
METRIC,TZ,000.000
T6C0.394
T5C0.500
T4C1.000
T3C1.300
T2C2.500
T1C2.900
%
G90
M71
T1
X38000Y59500
X12400Y4900
T2
X52070Y3810
X52070Y81280
X3810Y3810
T3
X2921Y39930
X2921Y46430
X2921Y29770
X2921Y36270
X2921Y19610
X2921Y26110
X2921Y9450
X2921Y15950
T4
X20828Y82296
X23368Y79756
X23368Y82296
X25908Y79756
X25908Y82296
X28448Y79756
X28448Y82296
X30988Y82296
X33528Y79756
X33528Y82296
X36068Y79756
X2152Y64770
X36068Y82296
X38608Y79756
X38608Y82296
X41148Y79756
X41148Y82296
X43688Y79756
X43688Y82296
X4692Y82550
X2152Y82550
X4692Y80010
X2152Y80010
X4692Y77470
X2152Y77470
X4692Y74930
X2152Y74930
X4692Y72390
X2152Y72390
X4692Y69850
X2152Y69850
X4692Y67310
X2152Y67310
X4692Y64770
X30988Y79756
X4692Y62230
X2152Y62230
X4692Y59690
X2152Y59690
X4692Y57150
X2152Y57150
X4692Y54610
X2152Y54610
X4692Y52070
X2152Y52070
X13208Y79756
X13208Y82296
X15748Y79756
X15748Y82296
X18288Y79756
X18288Y82296
X20828Y79756
T5
X11303Y34798
X4064Y49784
X9271Y30480
X37973Y70739
X39751Y72644
X35560Y36703
X40513Y42926
X43815Y41402
X37211Y43434
X34798Y68326
T6
X39624Y33274
X32258Y40640
X37338Y44958
X38100Y39878
X24638Y40132
X44831Y35814
X21971Y46101
X29718Y42799
X30734Y44196
X34290Y41656
X18288Y48260
X33528Y36322
X45212Y40386
X38862Y36830
X40386Y32258
X7112Y49022
X22860Y69088
X31242Y62484
X16002Y46990
X38354Y37846
M30