G04 EAGLE Gerber RS-274X export*
G75*
%MOMM*%
%FSLAX34Y34*%
%LPD*%
%INSilkscreen Bottom*%
%IPPOS*%
%AMOC8*
5,1,8,0,0,1.08239X$1,22.5*%
G01*
%ADD10C,0.203200*%
%ADD11C,0.152400*%
%ADD12R,6.839700X0.016800*%
%ADD13R,0.268300X0.016800*%
%ADD14R,0.268200X0.016800*%
%ADD15R,0.251500X0.016800*%
%ADD16R,0.301800X0.016800*%
%ADD17R,0.251400X0.016800*%
%ADD18R,0.285000X0.016800*%
%ADD19R,0.301700X0.016800*%
%ADD20R,0.419100X0.016800*%
%ADD21R,0.318500X0.016800*%
%ADD22R,0.586700X0.016800*%
%ADD23R,0.586800X0.016800*%
%ADD24R,6.839700X0.016700*%
%ADD25R,0.268300X0.016700*%
%ADD26R,0.251400X0.016700*%
%ADD27R,0.251500X0.016700*%
%ADD28R,0.301800X0.016700*%
%ADD29R,0.285000X0.016700*%
%ADD30R,0.301700X0.016700*%
%ADD31R,0.419100X0.016700*%
%ADD32R,0.318500X0.016700*%
%ADD33R,0.586700X0.016700*%
%ADD34R,0.586800X0.016700*%
%ADD35R,0.318600X0.016800*%
%ADD36R,0.569900X0.016800*%
%ADD37R,0.335300X0.016800*%
%ADD38R,0.234700X0.016800*%
%ADD39R,0.234700X0.016700*%
%ADD40R,0.016700X0.016700*%
%ADD41R,0.318600X0.016700*%
%ADD42R,0.569900X0.016700*%
%ADD43R,0.335300X0.016700*%
%ADD44R,0.217900X0.016800*%
%ADD45R,0.033500X0.016800*%
%ADD46R,0.570000X0.016800*%
%ADD47R,0.201100X0.016700*%
%ADD48R,0.050300X0.016700*%
%ADD49R,0.670500X0.016700*%
%ADD50R,1.005800X0.016700*%
%ADD51R,0.570000X0.016700*%
%ADD52R,0.201100X0.016800*%
%ADD53R,0.067000X0.016800*%
%ADD54R,0.670500X0.016800*%
%ADD55R,1.005800X0.016800*%
%ADD56R,0.184400X0.016800*%
%ADD57R,0.989000X0.016800*%
%ADD58R,0.184400X0.016700*%
%ADD59R,0.067000X0.016700*%
%ADD60R,0.989000X0.016700*%
%ADD61R,0.167600X0.016800*%
%ADD62R,0.083800X0.016800*%
%ADD63R,0.637000X0.016800*%
%ADD64R,0.955500X0.016800*%
%ADD65R,0.150800X0.016800*%
%ADD66R,0.100600X0.016800*%
%ADD67R,0.536400X0.016800*%
%ADD68R,0.854900X0.016800*%
%ADD69R,0.150800X0.016700*%
%ADD70R,0.100600X0.016700*%
%ADD71R,0.352000X0.016700*%
%ADD72R,0.435900X0.016700*%
%ADD73R,0.402400X0.016700*%
%ADD74R,0.368800X0.016700*%
%ADD75R,0.134100X0.016800*%
%ADD76R,0.117300X0.016800*%
%ADD77R,0.435900X0.016800*%
%ADD78R,0.368900X0.016800*%
%ADD79R,0.603500X0.016800*%
%ADD80R,0.134100X0.016700*%
%ADD81R,0.117300X0.016700*%
%ADD82R,0.452600X0.016700*%
%ADD83R,0.620300X0.016700*%
%ADD84R,0.284900X0.016800*%
%ADD85R,0.486200X0.016800*%
%ADD86R,0.653800X0.016800*%
%ADD87R,0.804700X0.016800*%
%ADD88R,0.150900X0.016700*%
%ADD89R,0.268200X0.016700*%
%ADD90R,0.737600X0.016700*%
%ADD91R,0.603500X0.016700*%
%ADD92R,0.922000X0.016700*%
%ADD93R,0.150900X0.016800*%
%ADD94R,0.821400X0.016800*%
%ADD95R,0.972300X0.016800*%
%ADD96R,0.989100X0.016800*%
%ADD97R,0.083800X0.016700*%
%ADD98R,0.167600X0.016700*%
%ADD99R,0.821400X0.016700*%
%ADD100R,0.989100X0.016700*%
%ADD101R,0.201200X0.016700*%
%ADD102R,0.050300X0.016800*%
%ADD103R,0.201200X0.016800*%
%ADD104R,0.217900X0.016700*%
%ADD105R,0.284900X0.016700*%
%ADD106R,0.352100X0.016800*%
%ADD107R,0.620300X0.016800*%
%ADD108R,0.385600X0.016800*%
%ADD109R,0.335200X0.016800*%
%ADD110R,0.385600X0.016700*%
%ADD111R,0.687400X0.016700*%
%ADD112R,13.998000X0.016800*%
%ADD113R,13.998000X0.016700*%
%ADD114R,0.637000X0.016700*%
%ADD115R,0.486100X0.016700*%
%ADD116R,0.637100X0.016700*%
%ADD117R,0.519700X0.016700*%
%ADD118R,0.536500X0.016700*%
%ADD119R,0.787900X0.016800*%
%ADD120R,0.687400X0.016800*%
%ADD121R,0.771200X0.016800*%
%ADD122R,0.637100X0.016800*%
%ADD123R,0.720800X0.016800*%
%ADD124R,0.704100X0.016800*%
%ADD125R,0.754400X0.016800*%
%ADD126R,0.838200X0.016700*%
%ADD127R,0.871800X0.016700*%
%ADD128R,0.871700X0.016700*%
%ADD129R,0.402400X0.016800*%
%ADD130R,0.922100X0.016800*%
%ADD131R,0.938800X0.016800*%
%ADD132R,0.938800X0.016700*%
%ADD133R,1.022600X0.016700*%
%ADD134R,0.972400X0.016700*%
%ADD135R,0.972300X0.016700*%
%ADD136R,0.469400X0.016800*%
%ADD137R,1.072900X0.016800*%
%ADD138R,1.022600X0.016800*%
%ADD139R,1.005900X0.016800*%
%ADD140R,0.502900X0.016800*%
%ADD141R,1.123200X0.016800*%
%ADD142R,1.056200X0.016800*%
%ADD143R,1.123100X0.016800*%
%ADD144R,1.139900X0.016700*%
%ADD145R,1.089600X0.016700*%
%ADD146R,0.553200X0.016800*%
%ADD147R,1.190200X0.016800*%
%ADD148R,1.190300X0.016800*%
%ADD149R,1.039400X0.016800*%
%ADD150R,1.223700X0.016800*%
%ADD151R,1.173500X0.016800*%
%ADD152R,1.223800X0.016800*%
%ADD153R,1.240500X0.016700*%
%ADD154R,1.173500X0.016700*%
%ADD155R,1.240600X0.016700*%
%ADD156R,1.190300X0.016700*%
%ADD157R,1.056200X0.016700*%
%ADD158R,1.274100X0.016800*%
%ADD159R,1.274000X0.016800*%
%ADD160R,1.307600X0.016800*%
%ADD161R,1.257300X0.016800*%
%ADD162R,1.324400X0.016800*%
%ADD163R,0.687300X0.016700*%
%ADD164R,1.324400X0.016700*%
%ADD165R,1.307500X0.016700*%
%ADD166R,1.274100X0.016700*%
%ADD167R,1.072900X0.016700*%
%ADD168R,2.011600X0.016800*%
%ADD169R,1.324300X0.016800*%
%ADD170R,1.978100X0.016800*%
%ADD171R,2.011600X0.016700*%
%ADD172R,1.357900X0.016700*%
%ADD173R,1.994900X0.016700*%
%ADD174R,1.341200X0.016700*%
%ADD175R,1.089700X0.016700*%
%ADD176R,0.754300X0.016800*%
%ADD177R,1.994900X0.016800*%
%ADD178R,1.995000X0.016800*%
%ADD179R,1.089700X0.016800*%
%ADD180R,0.787900X0.016700*%
%ADD181R,1.995000X0.016700*%
%ADD182R,2.028400X0.016800*%
%ADD183R,2.011700X0.016800*%
%ADD184R,1.106500X0.016800*%
%ADD185R,2.028400X0.016700*%
%ADD186R,2.011700X0.016700*%
%ADD187R,1.106500X0.016700*%
%ADD188R,0.888400X0.016800*%
%ADD189R,0.922000X0.016800*%
%ADD190R,0.938700X0.016700*%
%ADD191R,2.045200X0.016800*%
%ADD192R,0.938700X0.016800*%
%ADD193R,0.670600X0.016700*%
%ADD194R,0.888500X0.016700*%
%ADD195R,2.045200X0.016700*%
%ADD196R,0.888400X0.016700*%
%ADD197R,0.804600X0.016800*%
%ADD198R,2.028500X0.016800*%
%ADD199R,1.056100X0.016700*%
%ADD200R,0.771100X0.016700*%
%ADD201R,0.754300X0.016700*%
%ADD202R,2.028500X0.016700*%
%ADD203R,0.737700X0.016700*%
%ADD204R,1.072800X0.016800*%
%ADD205R,0.871700X0.016800*%
%ADD206R,0.737600X0.016800*%
%ADD207R,0.871800X0.016800*%
%ADD208R,1.089600X0.016800*%
%ADD209R,0.704000X0.016800*%
%ADD210R,0.687300X0.016800*%
%ADD211R,0.670600X0.016800*%
%ADD212R,1.123100X0.016700*%
%ADD213R,0.720800X0.016700*%
%ADD214R,0.653700X0.016700*%
%ADD215R,0.653800X0.016700*%
%ADD216R,1.139900X0.016800*%
%ADD217R,1.173400X0.016800*%
%ADD218R,1.190200X0.016700*%
%ADD219R,1.207000X0.016800*%
%ADD220R,1.240500X0.016800*%
%ADD221R,0.469400X0.016700*%
%ADD222R,1.274000X0.016700*%
%ADD223R,0.519600X0.016800*%
%ADD224R,1.341100X0.016800*%
%ADD225R,0.771200X0.016700*%
%ADD226R,1.374600X0.016700*%
%ADD227R,0.838200X0.016800*%
%ADD228R,1.391400X0.016800*%
%ADD229R,1.424900X0.016800*%
%ADD230R,1.441700X0.016700*%
%ADD231R,1.475200X0.016800*%
%ADD232R,1.491900X0.016700*%
%ADD233R,1.525500X0.016800*%
%ADD234R,1.559000X0.016700*%
%ADD235R,1.575800X0.016800*%
%ADD236R,1.307600X0.016700*%
%ADD237R,1.592500X0.016700*%
%ADD238R,1.374700X0.016800*%
%ADD239R,1.609300X0.016800*%
%ADD240R,1.408200X0.016800*%
%ADD241R,1.626100X0.016800*%
%ADD242R,1.626100X0.016700*%
%ADD243R,1.508800X0.016800*%
%ADD244R,1.659600X0.016800*%
%ADD245R,1.559000X0.016800*%
%ADD246R,1.676400X0.016800*%
%ADD247R,1.575800X0.016700*%
%ADD248R,1.676400X0.016700*%
%ADD249R,1.978100X0.016700*%
%ADD250R,1.693100X0.016800*%
%ADD251R,1.642800X0.016800*%
%ADD252R,1.709900X0.016800*%
%ADD253R,1.961300X0.016800*%
%ADD254R,1.726600X0.016700*%
%ADD255R,1.961300X0.016700*%
%ADD256R,1.693200X0.016800*%
%ADD257R,1.726600X0.016800*%
%ADD258R,1.944600X0.016800*%
%ADD259R,1.726700X0.016700*%
%ADD260R,1.743400X0.016700*%
%ADD261R,1.944600X0.016700*%
%ADD262R,1.726700X0.016800*%
%ADD263R,1.760200X0.016800*%
%ADD264R,1.927800X0.016800*%
%ADD265R,1.911000X0.016800*%
%ADD266R,1.793700X0.016700*%
%ADD267R,1.776900X0.016700*%
%ADD268R,1.911100X0.016700*%
%ADD269R,1.894300X0.016700*%
%ADD270R,1.793800X0.016800*%
%ADD271R,1.776900X0.016800*%
%ADD272R,1.911100X0.016800*%
%ADD273R,1.894300X0.016800*%
%ADD274R,1.827300X0.016800*%
%ADD275R,1.810500X0.016800*%
%ADD276R,1.877500X0.016800*%
%ADD277R,1.844100X0.016700*%
%ADD278R,1.810500X0.016700*%
%ADD279R,1.860800X0.016700*%
%ADD280R,1.844000X0.016700*%
%ADD281R,1.860900X0.016800*%
%ADD282R,1.844000X0.016800*%
%ADD283R,1.827200X0.016800*%
%ADD284R,1.860800X0.016800*%
%ADD285R,1.793700X0.016800*%
%ADD286R,1.877600X0.016700*%
%ADD287R,1.827200X0.016700*%
%ADD288R,1.927800X0.016700*%
%ADD289R,1.927900X0.016800*%
%ADD290R,1.944700X0.016700*%
%ADD291R,1.877500X0.016700*%
%ADD292R,1.961400X0.016800*%
%ADD293R,1.961400X0.016700*%
%ADD294R,1.978200X0.016800*%
%ADD295R,1.911000X0.016700*%
%ADD296R,0.620200X0.016800*%
%ADD297R,1.425000X0.016800*%
%ADD298R,0.620200X0.016700*%
%ADD299R,1.425000X0.016700*%
%ADD300R,0.653700X0.016800*%
%ADD301R,0.704100X0.016700*%
%ADD302R,0.804700X0.016700*%
%ADD303R,0.905200X0.016800*%
%ADD304R,1.894400X0.016800*%
%ADD305R,1.927900X0.016700*%
%ADD306R,1.877600X0.016800*%
%ADD307R,3.889300X0.016800*%
%ADD308R,3.872500X0.016700*%
%ADD309R,3.872500X0.016800*%
%ADD310R,3.855700X0.016700*%
%ADD311R,0.754400X0.016700*%
%ADD312R,3.855700X0.016800*%
%ADD313R,3.839000X0.016800*%
%ADD314R,0.720900X0.016800*%
%ADD315R,3.822200X0.016700*%
%ADD316R,2.715700X0.016800*%
%ADD317R,2.632000X0.016800*%
%ADD318R,1.290800X0.016800*%
%ADD319R,2.615200X0.016700*%
%ADD320R,1.257300X0.016700*%
%ADD321R,2.581700X0.016800*%
%ADD322R,1.240600X0.016800*%
%ADD323R,2.564900X0.016800*%
%ADD324R,1.760300X0.016800*%
%ADD325R,2.531400X0.016700*%
%ADD326R,1.156700X0.016700*%
%ADD327R,2.514600X0.016800*%
%ADD328R,0.955600X0.016800*%
%ADD329R,2.497800X0.016800*%
%ADD330R,1.659700X0.016800*%
%ADD331R,2.464300X0.016700*%
%ADD332R,1.039300X0.016700*%
%ADD333R,2.447500X0.016800*%
%ADD334R,1.592500X0.016800*%
%ADD335R,0.536500X0.016800*%
%ADD336R,2.430800X0.016700*%
%ADD337R,1.559100X0.016700*%
%ADD338R,1.542300X0.016700*%
%ADD339R,0.502900X0.016700*%
%ADD340R,2.414000X0.016800*%
%ADD341R,0.905300X0.016800*%
%ADD342R,1.508700X0.016800*%
%ADD343R,0.888500X0.016800*%
%ADD344R,2.397300X0.016800*%
%ADD345R,1.441700X0.016800*%
%ADD346R,0.452700X0.016800*%
%ADD347R,1.290900X0.016700*%
%ADD348R,1.156700X0.016800*%
%ADD349R,0.855000X0.016800*%
%ADD350R,1.123200X0.016700*%
%ADD351R,0.720900X0.016700*%
%ADD352R,1.106400X0.016800*%
%ADD353R,1.106400X0.016700*%
%ADD354R,0.771100X0.016800*%
%ADD355R,0.435800X0.016700*%
%ADD356R,1.592600X0.016700*%
%ADD357R,0.435800X0.016800*%
%ADD358R,1.642900X0.016800*%
%ADD359R,0.402300X0.016800*%
%ADD360R,1.793800X0.016700*%
%ADD361R,0.368800X0.016800*%
%ADD362R,1.056100X0.016800*%
%ADD363R,1.039400X0.016700*%
%ADD364R,2.078800X0.016800*%
%ADD365R,0.335200X0.016700*%
%ADD366R,2.145800X0.016700*%
%ADD367R,2.162600X0.016800*%
%ADD368R,0.352000X0.016800*%
%ADD369R,2.212800X0.016800*%
%ADD370R,2.279900X0.016700*%
%ADD371R,2.330200X0.016800*%
%ADD372R,2.799500X0.016800*%
%ADD373R,2.816300X0.016700*%
%ADD374R,0.955500X0.016700*%
%ADD375R,2.849900X0.016800*%
%ADD376R,2.916900X0.016800*%
%ADD377R,4.224500X0.016700*%
%ADD378R,4.291600X0.016800*%
%ADD379R,4.409000X0.016800*%
%ADD380R,4.509500X0.016700*%
%ADD381R,4.526300X0.016800*%
%ADD382R,4.626800X0.016700*%
%ADD383R,4.693900X0.016800*%
%ADD384R,4.727400X0.016800*%
%ADD385R,2.548200X0.016700*%
%ADD386R,2.179300X0.016700*%
%ADD387R,2.430800X0.016800*%
%ADD388R,2.414000X0.016700*%
%ADD389R,2.414100X0.016800*%
%ADD390R,2.430700X0.016700*%
%ADD391R,2.447600X0.016700*%
%ADD392R,1.559100X0.016800*%
%ADD393R,1.525500X0.016700*%
%ADD394R,1.492000X0.016800*%
%ADD395R,1.491900X0.016800*%
%ADD396R,1.458500X0.016700*%
%ADD397R,2.061900X0.016800*%
%ADD398R,1.408100X0.016700*%
%ADD399R,0.905200X0.016700*%
%ADD400R,2.112300X0.016700*%
%ADD401R,2.179300X0.016800*%
%ADD402R,1.408200X0.016700*%
%ADD403R,2.212900X0.016700*%
%ADD404R,1.140000X0.016800*%
%ADD405R,3.319300X0.016800*%
%ADD406R,1.374700X0.016700*%
%ADD407R,0.402300X0.016700*%
%ADD408R,3.302500X0.016700*%
%ADD409R,3.285700X0.016800*%
%ADD410R,1.357900X0.016800*%
%ADD411R,3.269000X0.016800*%
%ADD412R,3.285800X0.016700*%
%ADD413R,3.268900X0.016800*%
%ADD414R,0.452700X0.016700*%
%ADD415R,3.268900X0.016700*%
%ADD416R,1.391400X0.016700*%
%ADD417R,3.269000X0.016700*%
%ADD418R,1.374600X0.016800*%
%ADD419R,0.519700X0.016800*%
%ADD420R,3.252200X0.016800*%
%ADD421R,3.235400X0.016800*%
%ADD422R,3.235400X0.016700*%
%ADD423R,3.218600X0.016800*%
%ADD424R,3.201900X0.016800*%
%ADD425R,3.201900X0.016700*%
%ADD426R,1.458500X0.016800*%
%ADD427R,1.525600X0.016800*%
%ADD428R,3.185100X0.016800*%
%ADD429R,2.531300X0.016700*%
%ADD430R,3.168400X0.016700*%
%ADD431R,2.531300X0.016800*%
%ADD432R,3.151600X0.016800*%
%ADD433R,2.548100X0.016800*%
%ADD434R,3.134900X0.016800*%
%ADD435R,2.564900X0.016700*%
%ADD436R,3.118100X0.016700*%
%ADD437R,2.581600X0.016800*%
%ADD438R,3.101400X0.016800*%
%ADD439R,2.598400X0.016700*%
%ADD440R,3.067900X0.016700*%
%ADD441R,2.598400X0.016800*%
%ADD442R,3.034300X0.016800*%
%ADD443R,2.615100X0.016800*%
%ADD444R,3.000800X0.016800*%
%ADD445R,2.631900X0.016700*%
%ADD446R,2.950500X0.016700*%
%ADD447R,2.648700X0.016800*%
%ADD448R,2.900200X0.016800*%
%ADD449R,2.665500X0.016800*%
%ADD450R,2.682200X0.016700*%
%ADD451R,2.799600X0.016700*%
%ADD452R,2.699000X0.016800*%
%ADD453R,2.732500X0.016800*%
%ADD454R,2.749300X0.016700*%
%ADD455R,2.632000X0.016700*%
%ADD456R,2.749300X0.016800*%
%ADD457R,2.766100X0.016700*%
%ADD458R,2.766100X0.016800*%
%ADD459R,2.481100X0.016800*%
%ADD460R,2.782900X0.016800*%
%ADD461R,2.380500X0.016700*%
%ADD462R,2.833100X0.016800*%
%ADD463R,1.592600X0.016800*%
%ADD464R,2.849900X0.016700*%
%ADD465R,2.883400X0.016800*%
%ADD466R,2.917000X0.016700*%
%ADD467R,2.933700X0.016800*%
%ADD468R,2.967200X0.016800*%
%ADD469R,2.967200X0.016700*%
%ADD470R,3.017500X0.016700*%
%ADD471R,3.051000X0.016800*%
%ADD472R,0.788000X0.016800*%
%ADD473R,3.084600X0.016800*%
%ADD474R,2.397300X0.016700*%
%ADD475R,2.397200X0.016800*%
%ADD476R,1.760200X0.016700*%
%ADD477R,2.397200X0.016700*%
%ADD478R,1.827300X0.016700*%
%ADD479R,2.380500X0.016800*%
%ADD480R,2.363700X0.016800*%
%ADD481R,2.363700X0.016700*%
%ADD482R,2.346900X0.016800*%
%ADD483R,2.296600X0.016700*%
%ADD484R,2.279900X0.016800*%
%ADD485R,2.246300X0.016800*%
%ADD486R,2.229600X0.016700*%
%ADD487R,2.129100X0.016800*%
%ADD488R,2.112300X0.016800*%
%ADD489R,1.609300X0.016700*%
%ADD490R,1.743400X0.016800*%
%ADD491R,1.693100X0.016700*%
%ADD492R,1.659700X0.016700*%
%ADD493R,1.575900X0.016800*%
%ADD494R,1.575900X0.016700*%
%ADD495R,1.475200X0.016700*%
%ADD496R,1.324300X0.016700*%
%ADD497R,1.290800X0.016700*%
%ADD498R,1.207000X0.016700*%
%ADD499R,0.854900X0.016700*%
%ADD500R,0.821500X0.016700*%
%ADD501R,0.821500X0.016800*%
%ADD502R,0.218000X0.016800*%


D10*
X267436Y157869D02*
X269216Y159648D01*
X272775Y159648D01*
X274554Y157869D01*
X274554Y156089D01*
X272775Y154310D01*
X269216Y154310D01*
X267436Y152530D01*
X267436Y150751D01*
X269216Y148971D01*
X272775Y148971D01*
X274554Y150751D01*
X262860Y156089D02*
X261081Y156089D01*
X261081Y148971D01*
X262860Y148971D02*
X259301Y148971D01*
X261081Y159648D02*
X261081Y161428D01*
X255065Y159648D02*
X247946Y159648D01*
X255065Y159648D02*
X255065Y154310D01*
X251505Y156089D01*
X249726Y156089D01*
X247946Y154310D01*
X247946Y150751D01*
X249726Y148971D01*
X253285Y148971D01*
X255065Y150751D01*
X243371Y157869D02*
X241591Y159648D01*
X238032Y159648D01*
X236252Y157869D01*
X236252Y156089D01*
X238032Y154310D01*
X239812Y154310D01*
X238032Y154310D02*
X236252Y152530D01*
X236252Y150751D01*
X238032Y148971D01*
X241591Y148971D01*
X243371Y150751D01*
X231677Y159648D02*
X224559Y159648D01*
X231677Y159648D02*
X231677Y154310D01*
X228118Y156089D01*
X226338Y156089D01*
X224559Y154310D01*
X224559Y150751D01*
X226338Y148971D01*
X229897Y148971D01*
X231677Y150751D01*
X219983Y156089D02*
X216424Y159648D01*
X216424Y148971D01*
X219983Y148971D02*
X212865Y148971D01*
X196595Y157869D02*
X194815Y159648D01*
X191256Y159648D01*
X189477Y157869D01*
X189477Y156089D01*
X191256Y154310D01*
X189477Y152530D01*
X189477Y150751D01*
X191256Y148971D01*
X194815Y148971D01*
X196595Y150751D01*
X196595Y152530D01*
X194815Y154310D01*
X196595Y156089D01*
X196595Y157869D01*
X194815Y154310D02*
X191256Y154310D01*
X173207Y159648D02*
X173207Y148971D01*
X173207Y152530D02*
X167868Y148971D01*
X173207Y152530D02*
X167868Y156089D01*
X163462Y159648D02*
X163462Y148971D01*
X163462Y154310D02*
X156344Y154310D01*
X156344Y159648D02*
X156344Y148971D01*
X151768Y156089D02*
X144650Y156089D01*
X151768Y148971D01*
X144650Y148971D01*
X128380Y154310D02*
X121262Y154310D01*
X104992Y156089D02*
X101433Y159648D01*
X101433Y148971D01*
X104992Y148971D02*
X97874Y148971D01*
X89739Y157869D02*
X86180Y159648D01*
X89739Y157869D02*
X93298Y154310D01*
X93298Y150751D01*
X91518Y148971D01*
X87959Y148971D01*
X86180Y150751D01*
X86180Y152530D01*
X87959Y154310D01*
X93298Y154310D01*
X81604Y150751D02*
X81604Y157869D01*
X79824Y159648D01*
X76265Y159648D01*
X74486Y157869D01*
X74486Y150751D01*
X76265Y148971D01*
X79824Y148971D01*
X81604Y150751D01*
X74486Y157869D01*
X58216Y159648D02*
X58216Y148971D01*
X54657Y156089D02*
X58216Y159648D01*
X54657Y156089D02*
X51098Y159648D01*
X51098Y148971D01*
X46522Y148971D02*
X46522Y159648D01*
X46522Y154310D02*
X39404Y154310D01*
X39404Y159648D02*
X39404Y148971D01*
X34828Y156089D02*
X27710Y156089D01*
X34828Y148971D01*
X27710Y148971D01*
X222609Y138819D02*
X224389Y140598D01*
X227948Y140598D01*
X229727Y138819D01*
X229727Y131701D01*
X227948Y129921D01*
X224389Y129921D01*
X222609Y131701D01*
X218034Y140598D02*
X216254Y140598D01*
X216254Y129921D01*
X218034Y129921D02*
X214474Y129921D01*
X208458Y129921D02*
X204899Y129921D01*
X203119Y131701D01*
X203119Y135260D01*
X204899Y137039D01*
X208458Y137039D01*
X210238Y135260D01*
X210238Y131701D01*
X208458Y129921D01*
X196764Y137039D02*
X191426Y137039D01*
X196764Y137039D02*
X198544Y135260D01*
X198544Y131701D01*
X196764Y129921D01*
X191426Y129921D01*
X186850Y129921D02*
X186850Y140598D01*
X186850Y133480D02*
X181511Y129921D01*
X186850Y133480D02*
X181511Y137039D01*
X160072Y140598D02*
X158293Y138819D01*
X160072Y140598D02*
X163631Y140598D01*
X165411Y138819D01*
X165411Y131701D01*
X163631Y129921D01*
X160072Y129921D01*
X158293Y131701D01*
X158293Y135260D01*
X161852Y135260D01*
X151937Y129921D02*
X148378Y129921D01*
X151937Y129921D02*
X153717Y131701D01*
X153717Y135260D01*
X151937Y137039D01*
X148378Y137039D01*
X146599Y135260D01*
X146599Y133480D01*
X153717Y133480D01*
X142023Y129921D02*
X142023Y137039D01*
X136684Y137039D01*
X134905Y135260D01*
X134905Y129921D01*
X128549Y129921D02*
X124990Y129921D01*
X128549Y129921D02*
X130329Y131701D01*
X130329Y135260D01*
X128549Y137039D01*
X124990Y137039D01*
X123211Y135260D01*
X123211Y133480D01*
X130329Y133480D01*
X118635Y129921D02*
X118635Y137039D01*
X118635Y133480D02*
X115076Y137039D01*
X113296Y137039D01*
X107110Y137039D02*
X103551Y137039D01*
X101772Y135260D01*
X101772Y129921D01*
X107110Y129921D01*
X108890Y131701D01*
X107110Y133480D01*
X101772Y133480D01*
X95416Y131701D02*
X95416Y138819D01*
X95416Y131701D02*
X93637Y129921D01*
X93637Y137039D02*
X97196Y137039D01*
X87620Y129921D02*
X84061Y129921D01*
X82282Y131701D01*
X82282Y135260D01*
X84061Y137039D01*
X87620Y137039D01*
X89400Y135260D01*
X89400Y131701D01*
X87620Y129921D01*
X77706Y129921D02*
X77706Y137039D01*
X77706Y133480D02*
X74147Y137039D01*
X72367Y137039D01*
D11*
X188028Y113545D02*
X188028Y107783D01*
X185146Y104902D01*
X182265Y107783D01*
X182265Y113545D01*
X178672Y110664D02*
X177232Y110664D01*
X177232Y104902D01*
X178672Y104902D02*
X175791Y104902D01*
X177232Y113545D02*
X177232Y114986D01*
X172436Y110664D02*
X172436Y104902D01*
X172436Y110664D02*
X168114Y110664D01*
X166673Y109224D01*
X166673Y104902D01*
X163080Y110664D02*
X161640Y110664D01*
X161640Y109224D01*
X163080Y109224D01*
X163080Y110664D01*
X163080Y106343D02*
X161640Y106343D01*
X161640Y104902D01*
X163080Y104902D01*
X163080Y106343D01*
X149048Y112105D02*
X147607Y113545D01*
X144726Y113545D01*
X143285Y112105D01*
X143285Y110664D01*
X144726Y109224D01*
X146167Y109224D01*
X144726Y109224D02*
X143285Y107783D01*
X143285Y106343D01*
X144726Y104902D01*
X147607Y104902D01*
X149048Y106343D01*
X139692Y106343D02*
X139692Y104902D01*
X139692Y106343D02*
X138252Y106343D01*
X138252Y104902D01*
X139692Y104902D01*
X135015Y112105D02*
X133574Y113545D01*
X130693Y113545D01*
X129253Y112105D01*
X129253Y110664D01*
X130693Y109224D01*
X132134Y109224D01*
X130693Y109224D02*
X129253Y107783D01*
X129253Y106343D01*
X130693Y104902D01*
X133574Y104902D01*
X135015Y106343D01*
X125660Y107783D02*
X125660Y113545D01*
X125660Y107783D02*
X122779Y104902D01*
X119897Y107783D01*
X119897Y113545D01*
X106949Y109224D02*
X101187Y109224D01*
X88239Y113545D02*
X82477Y113545D01*
X88239Y113545D02*
X88239Y109224D01*
X85358Y110664D01*
X83917Y110664D01*
X82477Y109224D01*
X82477Y106343D01*
X83917Y104902D01*
X86798Y104902D01*
X88239Y106343D01*
X78884Y107783D02*
X78884Y113545D01*
X78884Y107783D02*
X76003Y104902D01*
X73121Y107783D01*
X73121Y113545D01*
X183350Y98305D02*
X183350Y89662D01*
X177588Y89662D01*
X172554Y89662D02*
X169673Y89662D01*
X168233Y91103D01*
X168233Y93984D01*
X169673Y95424D01*
X172554Y95424D01*
X173995Y93984D01*
X173995Y91103D01*
X172554Y89662D01*
X161758Y86781D02*
X160318Y86781D01*
X158877Y88221D01*
X158877Y95424D01*
X163199Y95424D01*
X164640Y93984D01*
X164640Y91103D01*
X163199Y89662D01*
X158877Y89662D01*
X155284Y95424D02*
X153844Y95424D01*
X153844Y89662D01*
X155284Y89662D02*
X152403Y89662D01*
X153844Y98305D02*
X153844Y99746D01*
X147607Y95424D02*
X143285Y95424D01*
X147607Y95424D02*
X149048Y93984D01*
X149048Y91103D01*
X147607Y89662D01*
X143285Y89662D01*
X139692Y95424D02*
X138252Y95424D01*
X138252Y93984D01*
X139692Y93984D01*
X139692Y95424D01*
X139692Y91103D02*
X138252Y91103D01*
X138252Y89662D01*
X139692Y89662D01*
X139692Y91103D01*
X125660Y96865D02*
X124219Y98305D01*
X121338Y98305D01*
X119897Y96865D01*
X119897Y95424D01*
X121338Y93984D01*
X122779Y93984D01*
X121338Y93984D02*
X119897Y92543D01*
X119897Y91103D01*
X121338Y89662D01*
X124219Y89662D01*
X125660Y91103D01*
X116304Y91103D02*
X116304Y89662D01*
X116304Y91103D02*
X114864Y91103D01*
X114864Y89662D01*
X116304Y89662D01*
X111627Y96865D02*
X110186Y98305D01*
X107305Y98305D01*
X105865Y96865D01*
X105865Y95424D01*
X107305Y93984D01*
X108746Y93984D01*
X107305Y93984D02*
X105865Y92543D01*
X105865Y91103D01*
X107305Y89662D01*
X110186Y89662D01*
X111627Y91103D01*
X102272Y93984D02*
X96509Y93984D01*
X92917Y98305D02*
X87154Y98305D01*
X92917Y98305D02*
X92917Y93984D01*
X90035Y95424D01*
X88595Y95424D01*
X87154Y93984D01*
X87154Y91103D01*
X88595Y89662D01*
X91476Y89662D01*
X92917Y91103D01*
X83561Y92543D02*
X83561Y98305D01*
X83561Y92543D02*
X80680Y89662D01*
X77799Y92543D01*
X77799Y98305D01*
D12*
X171682Y43180D03*
D13*
X135136Y43180D03*
D14*
X131615Y43180D03*
D15*
X127173Y43180D03*
D13*
X123569Y43180D03*
D16*
X119545Y43180D03*
D17*
X115438Y43180D03*
D18*
X111582Y43180D03*
D19*
X107643Y43180D03*
D20*
X103033Y43180D03*
X97836Y43180D03*
D21*
X93142Y43180D03*
D18*
X89118Y43180D03*
X85263Y43180D03*
D22*
X79731Y43180D03*
D19*
X74283Y43180D03*
D23*
X68834Y43180D03*
D24*
X171682Y43348D03*
D25*
X135136Y43348D03*
D26*
X131699Y43348D03*
D27*
X127173Y43348D03*
D28*
X123401Y43348D03*
D29*
X119461Y43348D03*
D30*
X115522Y43348D03*
D29*
X111582Y43348D03*
D30*
X107643Y43348D03*
D31*
X103033Y43348D03*
X97836Y43348D03*
D32*
X93142Y43348D03*
D29*
X89118Y43348D03*
X85263Y43348D03*
D33*
X79731Y43348D03*
D32*
X74367Y43348D03*
D34*
X68834Y43348D03*
D12*
X171682Y43515D03*
D13*
X135136Y43515D03*
D17*
X131699Y43515D03*
D15*
X127173Y43515D03*
D35*
X123317Y43515D03*
D13*
X119378Y43515D03*
D21*
X115438Y43515D03*
D18*
X111582Y43515D03*
D21*
X107727Y43515D03*
D20*
X103033Y43515D03*
X97836Y43515D03*
D21*
X93142Y43515D03*
D18*
X89118Y43515D03*
X85263Y43515D03*
D36*
X79815Y43515D03*
D37*
X74283Y43515D03*
D23*
X68834Y43515D03*
D12*
X171682Y43683D03*
D13*
X135136Y43683D03*
D38*
X131783Y43683D03*
D15*
X127173Y43683D03*
D35*
X123317Y43683D03*
D13*
X119378Y43683D03*
D21*
X115438Y43683D03*
D17*
X111582Y43683D03*
D21*
X107727Y43683D03*
D20*
X103033Y43683D03*
X97836Y43683D03*
D21*
X93142Y43683D03*
D18*
X89118Y43683D03*
X85263Y43683D03*
D36*
X79815Y43683D03*
D37*
X74283Y43683D03*
D23*
X68834Y43683D03*
D24*
X171682Y43851D03*
D25*
X135136Y43851D03*
D39*
X131783Y43851D03*
D40*
X129520Y43851D03*
D27*
X127173Y43851D03*
D41*
X123317Y43851D03*
D25*
X119378Y43851D03*
D32*
X115438Y43851D03*
D26*
X111582Y43851D03*
D32*
X107727Y43851D03*
D31*
X103033Y43851D03*
X97836Y43851D03*
D32*
X93142Y43851D03*
D29*
X89118Y43851D03*
X85263Y43851D03*
D42*
X79815Y43851D03*
D43*
X74283Y43851D03*
D34*
X68834Y43851D03*
D12*
X171682Y44018D03*
D13*
X135136Y44018D03*
D44*
X131867Y44018D03*
D45*
X129604Y44018D03*
D15*
X127173Y44018D03*
D35*
X123317Y44018D03*
D13*
X119378Y44018D03*
D21*
X115438Y44018D03*
D17*
X111582Y44018D03*
D21*
X107727Y44018D03*
D20*
X103033Y44018D03*
X97836Y44018D03*
D19*
X93226Y44018D03*
D18*
X89118Y44018D03*
X85263Y44018D03*
D36*
X79815Y44018D03*
D37*
X74283Y44018D03*
D46*
X68750Y44018D03*
D12*
X171682Y44186D03*
D13*
X135136Y44186D03*
D44*
X131867Y44186D03*
D45*
X129604Y44186D03*
D15*
X127173Y44186D03*
D35*
X123317Y44186D03*
D13*
X119378Y44186D03*
D21*
X115438Y44186D03*
D17*
X111582Y44186D03*
D21*
X107727Y44186D03*
D20*
X103033Y44186D03*
X97836Y44186D03*
D19*
X93226Y44186D03*
D18*
X89118Y44186D03*
X85263Y44186D03*
D36*
X79815Y44186D03*
D37*
X74283Y44186D03*
D46*
X68750Y44186D03*
D24*
X171682Y44354D03*
D25*
X135136Y44354D03*
D47*
X131951Y44354D03*
D48*
X129688Y44354D03*
D27*
X127173Y44354D03*
D41*
X123317Y44354D03*
D25*
X119378Y44354D03*
D32*
X115438Y44354D03*
D49*
X109487Y44354D03*
D31*
X103033Y44354D03*
X97836Y44354D03*
D30*
X93226Y44354D03*
D28*
X89202Y44354D03*
D29*
X85263Y44354D03*
D50*
X77635Y44354D03*
D51*
X68750Y44354D03*
D12*
X171682Y44521D03*
D13*
X135136Y44521D03*
D52*
X131951Y44521D03*
D53*
X129771Y44521D03*
D15*
X127173Y44521D03*
D35*
X123317Y44521D03*
D15*
X119294Y44521D03*
D21*
X115438Y44521D03*
D54*
X109487Y44521D03*
D20*
X103033Y44521D03*
X97836Y44521D03*
D19*
X93226Y44521D03*
D16*
X89202Y44521D03*
D18*
X85263Y44521D03*
D55*
X77635Y44521D03*
D23*
X68834Y44521D03*
D12*
X171682Y44689D03*
D13*
X135136Y44689D03*
D56*
X132034Y44689D03*
D53*
X129771Y44689D03*
D15*
X127173Y44689D03*
D37*
X123234Y44689D03*
D15*
X119294Y44689D03*
D21*
X115438Y44689D03*
D54*
X109487Y44689D03*
D20*
X103033Y44689D03*
X97836Y44689D03*
D19*
X93226Y44689D03*
D16*
X89202Y44689D03*
D18*
X85263Y44689D03*
D57*
X77719Y44689D03*
D23*
X68834Y44689D03*
D24*
X171682Y44857D03*
D25*
X135136Y44857D03*
D58*
X132034Y44857D03*
D59*
X129771Y44857D03*
D27*
X127173Y44857D03*
D43*
X123234Y44857D03*
D27*
X119294Y44857D03*
D32*
X115438Y44857D03*
D49*
X109487Y44857D03*
D31*
X103033Y44857D03*
X97836Y44857D03*
D29*
X93309Y44857D03*
D41*
X89286Y44857D03*
D29*
X85263Y44857D03*
D60*
X77719Y44857D03*
D34*
X68834Y44857D03*
D12*
X171682Y45024D03*
D13*
X135136Y45024D03*
D61*
X132118Y45024D03*
D62*
X129855Y45024D03*
D15*
X127173Y45024D03*
D37*
X123234Y45024D03*
D15*
X119294Y45024D03*
D21*
X115438Y45024D03*
D63*
X109654Y45024D03*
D20*
X103033Y45024D03*
X97836Y45024D03*
D35*
X89286Y45024D03*
D18*
X85263Y45024D03*
D64*
X77887Y45024D03*
D23*
X68834Y45024D03*
D12*
X171682Y45192D03*
D13*
X135136Y45192D03*
D65*
X132202Y45192D03*
D66*
X129939Y45192D03*
D15*
X127173Y45192D03*
D37*
X123234Y45192D03*
D15*
X119294Y45192D03*
D21*
X115438Y45192D03*
D67*
X110157Y45192D03*
D20*
X103033Y45192D03*
X97836Y45192D03*
D37*
X89370Y45192D03*
D18*
X85263Y45192D03*
D68*
X78390Y45192D03*
D23*
X68834Y45192D03*
D24*
X171682Y45360D03*
D25*
X135136Y45360D03*
D69*
X132202Y45360D03*
D70*
X129939Y45360D03*
D27*
X127173Y45360D03*
D43*
X123234Y45360D03*
D27*
X119294Y45360D03*
D32*
X115438Y45360D03*
D71*
X111079Y45360D03*
D72*
X103117Y45360D03*
D31*
X97836Y45360D03*
D73*
X89705Y45360D03*
D29*
X85263Y45360D03*
D74*
X77803Y45360D03*
D34*
X68834Y45360D03*
D12*
X171682Y45527D03*
D13*
X135136Y45527D03*
D75*
X132286Y45527D03*
D76*
X130023Y45527D03*
D15*
X127173Y45527D03*
D37*
X123234Y45527D03*
D15*
X119294Y45527D03*
D21*
X115438Y45527D03*
D19*
X111331Y45527D03*
D77*
X103117Y45527D03*
D20*
X97836Y45527D03*
D78*
X89538Y45527D03*
D18*
X85263Y45527D03*
D21*
X78055Y45527D03*
D79*
X68918Y45527D03*
D24*
X171682Y45695D03*
D25*
X135136Y45695D03*
D80*
X132286Y45695D03*
D81*
X130023Y45695D03*
D27*
X127173Y45695D03*
D43*
X123234Y45695D03*
D27*
X119294Y45695D03*
D32*
X115438Y45695D03*
D30*
X111331Y45695D03*
D82*
X103200Y45695D03*
D31*
X97836Y45695D03*
D43*
X89370Y45695D03*
D29*
X85263Y45695D03*
D32*
X78055Y45695D03*
D83*
X69002Y45695D03*
D12*
X171682Y45862D03*
D13*
X135136Y45862D03*
D76*
X132370Y45862D03*
X130023Y45862D03*
D15*
X127173Y45862D03*
D37*
X123234Y45862D03*
D15*
X119294Y45862D03*
D21*
X115438Y45862D03*
D84*
X111415Y45862D03*
D85*
X103368Y45862D03*
D20*
X97836Y45862D03*
D14*
X93393Y45862D03*
D35*
X89286Y45862D03*
D18*
X85263Y45862D03*
D16*
X78138Y45862D03*
D86*
X69169Y45862D03*
D12*
X171682Y46030D03*
D13*
X135136Y46030D03*
D76*
X132370Y46030D03*
D75*
X130107Y46030D03*
D15*
X127173Y46030D03*
D37*
X123234Y46030D03*
D15*
X119294Y46030D03*
D21*
X115438Y46030D03*
D14*
X111498Y46030D03*
D63*
X104122Y46030D03*
D20*
X97836Y46030D03*
D19*
X93226Y46030D03*
D16*
X89202Y46030D03*
D18*
X85263Y46030D03*
D16*
X78138Y46030D03*
D87*
X69924Y46030D03*
D24*
X171682Y46198D03*
D25*
X135136Y46198D03*
D70*
X132453Y46198D03*
D88*
X130191Y46198D03*
D27*
X127173Y46198D03*
D43*
X123234Y46198D03*
D27*
X119294Y46198D03*
D32*
X115438Y46198D03*
D89*
X111498Y46198D03*
D90*
X104625Y46198D03*
D31*
X97836Y46198D03*
D30*
X93226Y46198D03*
D28*
X89202Y46198D03*
D29*
X85263Y46198D03*
D91*
X79647Y46198D03*
D92*
X70510Y46198D03*
D12*
X171682Y46365D03*
D13*
X135136Y46365D03*
D66*
X132453Y46365D03*
D93*
X130191Y46365D03*
D15*
X127173Y46365D03*
D37*
X123234Y46365D03*
D15*
X119294Y46365D03*
D21*
X115438Y46365D03*
D14*
X111498Y46365D03*
D94*
X105044Y46365D03*
D20*
X97836Y46365D03*
D21*
X93142Y46365D03*
D18*
X89118Y46365D03*
X85263Y46365D03*
D22*
X79731Y46365D03*
D95*
X70762Y46365D03*
D12*
X171682Y46533D03*
D13*
X135136Y46533D03*
D62*
X132537Y46533D03*
D61*
X130274Y46533D03*
D15*
X127173Y46533D03*
D35*
X123317Y46533D03*
D15*
X119294Y46533D03*
D21*
X115438Y46533D03*
D14*
X111498Y46533D03*
D94*
X105044Y46533D03*
D20*
X97836Y46533D03*
D21*
X93142Y46533D03*
D18*
X89118Y46533D03*
X85263Y46533D03*
D22*
X79731Y46533D03*
D96*
X70846Y46533D03*
D24*
X171682Y46701D03*
D25*
X135136Y46701D03*
D97*
X132537Y46701D03*
D98*
X130274Y46701D03*
D27*
X127173Y46701D03*
D41*
X123317Y46701D03*
D27*
X119294Y46701D03*
D32*
X115438Y46701D03*
D89*
X111498Y46701D03*
D99*
X105044Y46701D03*
D31*
X97836Y46701D03*
D32*
X93142Y46701D03*
D29*
X89118Y46701D03*
X85263Y46701D03*
D33*
X79731Y46701D03*
D100*
X70846Y46701D03*
D12*
X171682Y46868D03*
D13*
X135136Y46868D03*
D53*
X132621Y46868D03*
D56*
X130358Y46868D03*
D15*
X127173Y46868D03*
D35*
X123317Y46868D03*
D13*
X119378Y46868D03*
D21*
X115438Y46868D03*
D14*
X111498Y46868D03*
D94*
X105044Y46868D03*
D20*
X97836Y46868D03*
D21*
X93142Y46868D03*
D18*
X89118Y46868D03*
X85263Y46868D03*
D22*
X79731Y46868D03*
D96*
X70846Y46868D03*
D12*
X171682Y47036D03*
D13*
X135136Y47036D03*
D53*
X132621Y47036D03*
D56*
X130358Y47036D03*
D15*
X127173Y47036D03*
D35*
X123317Y47036D03*
D13*
X119378Y47036D03*
D21*
X115438Y47036D03*
D14*
X111498Y47036D03*
D94*
X105044Y47036D03*
D20*
X97836Y47036D03*
D21*
X93142Y47036D03*
D18*
X89118Y47036D03*
X85263Y47036D03*
D22*
X79731Y47036D03*
D96*
X70846Y47036D03*
D24*
X171682Y47204D03*
D25*
X135136Y47204D03*
D48*
X132705Y47204D03*
D101*
X130442Y47204D03*
D27*
X127173Y47204D03*
D41*
X123317Y47204D03*
D25*
X119378Y47204D03*
D32*
X115438Y47204D03*
D89*
X111498Y47204D03*
D30*
X107643Y47204D03*
D72*
X103117Y47204D03*
D31*
X97836Y47204D03*
D32*
X93142Y47204D03*
D29*
X89118Y47204D03*
X85263Y47204D03*
D33*
X79731Y47204D03*
D30*
X74283Y47204D03*
D34*
X68834Y47204D03*
D12*
X171682Y47371D03*
D13*
X135136Y47371D03*
D102*
X132705Y47371D03*
D103*
X130442Y47371D03*
D15*
X127173Y47371D03*
D35*
X123317Y47371D03*
D13*
X119378Y47371D03*
D21*
X115438Y47371D03*
D14*
X111498Y47371D03*
D84*
X107727Y47371D03*
D77*
X103117Y47371D03*
D20*
X97836Y47371D03*
D21*
X93142Y47371D03*
D18*
X89118Y47371D03*
X85263Y47371D03*
D22*
X79731Y47371D03*
D19*
X74283Y47371D03*
D23*
X68834Y47371D03*
D24*
X171682Y47539D03*
D25*
X135136Y47539D03*
D48*
X132705Y47539D03*
D104*
X130526Y47539D03*
D27*
X127173Y47539D03*
D41*
X123317Y47539D03*
D25*
X119378Y47539D03*
D32*
X115438Y47539D03*
D89*
X111498Y47539D03*
D105*
X107727Y47539D03*
D72*
X103117Y47539D03*
D31*
X97836Y47539D03*
D32*
X93142Y47539D03*
D29*
X89118Y47539D03*
X85263Y47539D03*
D33*
X79731Y47539D03*
D30*
X74283Y47539D03*
D34*
X68834Y47539D03*
D12*
X171682Y47706D03*
D13*
X135136Y47706D03*
D38*
X130610Y47706D03*
D15*
X127173Y47706D03*
D35*
X123317Y47706D03*
D13*
X119378Y47706D03*
D21*
X115438Y47706D03*
D14*
X111498Y47706D03*
D84*
X107727Y47706D03*
D77*
X103117Y47706D03*
D20*
X97836Y47706D03*
D21*
X93142Y47706D03*
D18*
X89118Y47706D03*
X85263Y47706D03*
D22*
X79731Y47706D03*
D19*
X74283Y47706D03*
D23*
X68834Y47706D03*
D12*
X171682Y47874D03*
D13*
X135136Y47874D03*
D38*
X130610Y47874D03*
D15*
X127173Y47874D03*
D16*
X123401Y47874D03*
D18*
X119461Y47874D03*
D21*
X115438Y47874D03*
D14*
X111498Y47874D03*
D84*
X107727Y47874D03*
D77*
X103117Y47874D03*
D20*
X97836Y47874D03*
D19*
X93226Y47874D03*
D18*
X89118Y47874D03*
X85263Y47874D03*
D22*
X79731Y47874D03*
D19*
X74283Y47874D03*
D23*
X68834Y47874D03*
D24*
X171682Y48042D03*
D25*
X135136Y48042D03*
D39*
X130610Y48042D03*
D27*
X127173Y48042D03*
D29*
X123485Y48042D03*
X119461Y48042D03*
D32*
X115438Y48042D03*
D89*
X111498Y48042D03*
D105*
X107727Y48042D03*
D72*
X103117Y48042D03*
D31*
X97836Y48042D03*
D30*
X93226Y48042D03*
D29*
X89118Y48042D03*
X85263Y48042D03*
D91*
X79647Y48042D03*
D30*
X74283Y48042D03*
D34*
X68834Y48042D03*
D12*
X171682Y48209D03*
D13*
X135136Y48209D03*
D17*
X130693Y48209D03*
D15*
X127173Y48209D03*
D16*
X119545Y48209D03*
D21*
X115438Y48209D03*
D14*
X111498Y48209D03*
D103*
X104290Y48209D03*
X96746Y48209D03*
D16*
X89202Y48209D03*
D18*
X85263Y48209D03*
D15*
X77887Y48209D03*
D79*
X68918Y48209D03*
D12*
X171682Y48377D03*
D13*
X135136Y48377D03*
D14*
X130777Y48377D03*
D15*
X127173Y48377D03*
D16*
X119545Y48377D03*
D21*
X115438Y48377D03*
D84*
X111415Y48377D03*
D103*
X104290Y48377D03*
X96746Y48377D03*
D35*
X89286Y48377D03*
D18*
X85263Y48377D03*
D15*
X77887Y48377D03*
D79*
X68918Y48377D03*
D24*
X171682Y48545D03*
D25*
X135136Y48545D03*
D89*
X130777Y48545D03*
D27*
X127173Y48545D03*
D32*
X119629Y48545D03*
X115438Y48545D03*
D105*
X111415Y48545D03*
D104*
X104374Y48545D03*
D101*
X96746Y48545D03*
D41*
X89286Y48545D03*
D29*
X85263Y48545D03*
D27*
X77887Y48545D03*
D83*
X69002Y48545D03*
D12*
X171682Y48712D03*
D13*
X135136Y48712D03*
D18*
X130861Y48712D03*
D15*
X127173Y48712D03*
D106*
X119797Y48712D03*
D21*
X115438Y48712D03*
D19*
X111331Y48712D03*
D38*
X104458Y48712D03*
D103*
X96746Y48712D03*
D37*
X89370Y48712D03*
D18*
X85263Y48712D03*
D14*
X77803Y48712D03*
D107*
X69002Y48712D03*
D12*
X171682Y48880D03*
D13*
X135136Y48880D03*
D18*
X130861Y48880D03*
D15*
X127173Y48880D03*
D108*
X119964Y48880D03*
D21*
X115438Y48880D03*
D109*
X111163Y48880D03*
D15*
X104542Y48880D03*
D103*
X96746Y48880D03*
D106*
X89454Y48880D03*
D18*
X85263Y48880D03*
D16*
X77635Y48880D03*
D86*
X69169Y48880D03*
D24*
X171682Y49048D03*
D25*
X135136Y49048D03*
D30*
X130945Y49048D03*
D27*
X127173Y49048D03*
D72*
X120216Y49048D03*
D32*
X115438Y49048D03*
D74*
X110995Y49048D03*
D29*
X104709Y49048D03*
D101*
X96746Y49048D03*
D110*
X89621Y49048D03*
D29*
X85263Y49048D03*
D43*
X77468Y49048D03*
D111*
X69337Y49048D03*
D112*
X135890Y49215D03*
X135890Y49383D03*
D113*
X135890Y49551D03*
D112*
X135890Y49718D03*
D113*
X135890Y49886D03*
D112*
X135890Y50053D03*
D102*
X213675Y53071D03*
D103*
X71768Y53071D03*
D101*
X213591Y53239D03*
D34*
X199258Y53239D03*
D114*
X188613Y53239D03*
D115*
X175789Y53239D03*
D83*
X165563Y53239D03*
D34*
X153492Y53239D03*
D114*
X143015Y53239D03*
D116*
X134298Y53239D03*
X121222Y53239D03*
D117*
X101357Y53239D03*
D116*
X90879Y53239D03*
D114*
X82329Y53239D03*
D118*
X71433Y53239D03*
D14*
X213591Y53406D03*
D119*
X199258Y53406D03*
D63*
X188613Y53406D03*
D120*
X175956Y53406D03*
D107*
X165563Y53406D03*
D121*
X153576Y53406D03*
D63*
X143015Y53406D03*
D122*
X134298Y53406D03*
X121222Y53406D03*
D123*
X101356Y53406D03*
D122*
X90879Y53406D03*
D63*
X82329Y53406D03*
D124*
X71098Y53406D03*
D16*
X213591Y53574D03*
D94*
X199258Y53574D03*
D63*
X188613Y53574D03*
D125*
X175956Y53574D03*
D107*
X165563Y53574D03*
D94*
X153492Y53574D03*
D63*
X143015Y53574D03*
D122*
X134298Y53574D03*
X121222Y53574D03*
D121*
X101440Y53574D03*
D122*
X90879Y53574D03*
D63*
X82329Y53574D03*
D121*
X71097Y53574D03*
D71*
X213675Y53742D03*
D92*
X199258Y53742D03*
D114*
X188613Y53742D03*
D126*
X176040Y53742D03*
D83*
X165563Y53742D03*
D92*
X153492Y53742D03*
D114*
X143015Y53742D03*
D116*
X134298Y53742D03*
X121222Y53742D03*
D127*
X101440Y53742D03*
D116*
X90879Y53742D03*
D114*
X82329Y53742D03*
D128*
X70930Y53742D03*
D129*
X213591Y53909D03*
D57*
X199258Y53909D03*
D63*
X188613Y53909D03*
D130*
X176124Y53909D03*
D107*
X165563Y53909D03*
D96*
X153493Y53909D03*
D63*
X143015Y53909D03*
D122*
X134298Y53909D03*
X121222Y53909D03*
D131*
X101440Y53909D03*
D122*
X90879Y53909D03*
D63*
X82329Y53909D03*
D95*
X70762Y53909D03*
D72*
X213759Y54077D03*
D50*
X199174Y54077D03*
D114*
X188613Y54077D03*
D132*
X176040Y54077D03*
D83*
X165563Y54077D03*
D133*
X153492Y54077D03*
D114*
X143015Y54077D03*
D116*
X134298Y54077D03*
X121222Y54077D03*
D134*
X101440Y54077D03*
D116*
X90879Y54077D03*
D114*
X82329Y54077D03*
D135*
X70762Y54077D03*
D136*
X213759Y54244D03*
D137*
X199175Y54244D03*
D63*
X188613Y54244D03*
D55*
X176040Y54244D03*
D107*
X165563Y54244D03*
D137*
X153409Y54244D03*
D63*
X143015Y54244D03*
D122*
X134298Y54244D03*
X121222Y54244D03*
D138*
X101356Y54244D03*
D122*
X90879Y54244D03*
D63*
X82329Y54244D03*
D139*
X70930Y54244D03*
D140*
X213927Y54412D03*
D141*
X199090Y54412D03*
D63*
X188613Y54412D03*
D142*
X175956Y54412D03*
D107*
X165563Y54412D03*
D143*
X153325Y54412D03*
D63*
X143015Y54412D03*
D122*
X134298Y54412D03*
X121222Y54412D03*
D142*
X101356Y54412D03*
D122*
X90879Y54412D03*
D63*
X82329Y54412D03*
D138*
X71013Y54412D03*
D118*
X213927Y54580D03*
D144*
X199007Y54580D03*
D114*
X188613Y54580D03*
D145*
X175956Y54580D03*
D83*
X165563Y54580D03*
D144*
X153409Y54580D03*
D114*
X143015Y54580D03*
D116*
X134298Y54580D03*
X121222Y54580D03*
D145*
X101356Y54580D03*
D116*
X90879Y54580D03*
D114*
X82329Y54580D03*
D133*
X71013Y54580D03*
D146*
X214010Y54747D03*
D147*
X199090Y54747D03*
D63*
X188613Y54747D03*
D141*
X175956Y54747D03*
D107*
X165563Y54747D03*
D148*
X153325Y54747D03*
D63*
X143015Y54747D03*
D122*
X134298Y54747D03*
X121222Y54747D03*
D141*
X101356Y54747D03*
D122*
X90879Y54747D03*
D63*
X82329Y54747D03*
D149*
X71097Y54747D03*
D79*
X214095Y54915D03*
D150*
X198923Y54915D03*
D63*
X188613Y54915D03*
D151*
X175873Y54915D03*
D107*
X165563Y54915D03*
D152*
X153157Y54915D03*
D63*
X143015Y54915D03*
D122*
X134298Y54915D03*
X121222Y54915D03*
D151*
X101273Y54915D03*
D122*
X90879Y54915D03*
D63*
X82329Y54915D03*
D142*
X71181Y54915D03*
D91*
X214095Y55083D03*
D153*
X198839Y55083D03*
D114*
X188613Y55083D03*
D154*
X175873Y55083D03*
D83*
X165563Y55083D03*
D155*
X153073Y55083D03*
D114*
X143015Y55083D03*
D116*
X134298Y55083D03*
X121222Y55083D03*
D156*
X101189Y55083D03*
D116*
X90879Y55083D03*
D114*
X82329Y55083D03*
D157*
X71181Y55083D03*
D63*
X214262Y55250D03*
D158*
X198839Y55250D03*
D63*
X188613Y55250D03*
D152*
X175788Y55250D03*
D107*
X165563Y55250D03*
D159*
X153073Y55250D03*
D63*
X143015Y55250D03*
D122*
X134298Y55250D03*
X121222Y55250D03*
D150*
X101189Y55250D03*
D122*
X90879Y55250D03*
D63*
X82329Y55250D03*
D137*
X71265Y55250D03*
D54*
X214430Y55418D03*
D160*
X198671Y55418D03*
D63*
X188613Y55418D03*
D161*
X175789Y55418D03*
D107*
X165563Y55418D03*
D162*
X152989Y55418D03*
D63*
X143015Y55418D03*
D122*
X134298Y55418D03*
X121222Y55418D03*
D161*
X101021Y55418D03*
D122*
X90879Y55418D03*
D63*
X82329Y55418D03*
D137*
X71265Y55418D03*
D163*
X214514Y55586D03*
D164*
X198755Y55586D03*
D114*
X188613Y55586D03*
D165*
X175705Y55586D03*
D83*
X165563Y55586D03*
D164*
X152989Y55586D03*
D114*
X143015Y55586D03*
D116*
X134298Y55586D03*
X121222Y55586D03*
D166*
X101105Y55586D03*
D116*
X90879Y55586D03*
D114*
X82329Y55586D03*
D167*
X71265Y55586D03*
D123*
X214681Y55753D03*
D168*
X195486Y55753D03*
D169*
X175621Y55753D03*
D107*
X165563Y55753D03*
D170*
X149721Y55753D03*
D122*
X134298Y55753D03*
X121222Y55753D03*
D160*
X100937Y55753D03*
D122*
X90879Y55753D03*
D63*
X82329Y55753D03*
D137*
X71265Y55753D03*
D90*
X214765Y55921D03*
D171*
X195486Y55921D03*
D172*
X175621Y55921D03*
D83*
X165563Y55921D03*
D173*
X149805Y55921D03*
D116*
X134298Y55921D03*
X121222Y55921D03*
D174*
X100937Y55921D03*
D116*
X90879Y55921D03*
D114*
X82329Y55921D03*
D175*
X71349Y55921D03*
D176*
X214849Y56088D03*
D168*
X195486Y56088D03*
D177*
X172436Y56088D03*
X149805Y56088D03*
D122*
X134298Y56088D03*
X121222Y56088D03*
D178*
X97668Y56088D03*
D63*
X82329Y56088D03*
D179*
X71349Y56088D03*
D119*
X215017Y56256D03*
D168*
X195486Y56256D03*
D177*
X172436Y56256D03*
X149805Y56256D03*
D122*
X134298Y56256D03*
X121222Y56256D03*
D178*
X97668Y56256D03*
D63*
X82329Y56256D03*
D179*
X71349Y56256D03*
D180*
X215017Y56424D03*
D171*
X195486Y56424D03*
D173*
X172436Y56424D03*
X149805Y56424D03*
D116*
X134298Y56424D03*
X121222Y56424D03*
D181*
X97668Y56424D03*
D114*
X82329Y56424D03*
D175*
X71349Y56424D03*
D94*
X215184Y56591D03*
D182*
X195570Y56591D03*
D183*
X172520Y56591D03*
D168*
X149888Y56591D03*
D122*
X134298Y56591D03*
X121222Y56591D03*
D183*
X97752Y56591D03*
D63*
X82329Y56591D03*
D179*
X71349Y56591D03*
D68*
X215352Y56759D03*
D182*
X195570Y56759D03*
X172603Y56759D03*
D168*
X149888Y56759D03*
D122*
X134298Y56759D03*
X121222Y56759D03*
D183*
X97752Y56759D03*
D63*
X82329Y56759D03*
D184*
X71433Y56759D03*
D128*
X215436Y56927D03*
D185*
X195570Y56927D03*
X172603Y56927D03*
D171*
X149888Y56927D03*
D116*
X134298Y56927D03*
X121222Y56927D03*
D186*
X97752Y56927D03*
D114*
X82329Y56927D03*
D187*
X71433Y56927D03*
D188*
X215519Y57094D03*
D182*
X195570Y57094D03*
X172603Y57094D03*
D168*
X149888Y57094D03*
D122*
X134298Y57094D03*
X121222Y57094D03*
D183*
X97752Y57094D03*
D63*
X82329Y57094D03*
D184*
X71433Y57094D03*
D189*
X215687Y57262D03*
D182*
X195570Y57262D03*
X172603Y57262D03*
X149972Y57262D03*
D122*
X134298Y57262D03*
X121222Y57262D03*
D183*
X97752Y57262D03*
D63*
X82329Y57262D03*
D184*
X71433Y57262D03*
D190*
X215771Y57430D03*
D185*
X195570Y57430D03*
X172603Y57430D03*
X149972Y57430D03*
D116*
X134298Y57430D03*
X121222Y57430D03*
D186*
X97752Y57430D03*
D114*
X82329Y57430D03*
D187*
X71433Y57430D03*
D64*
X215855Y57597D03*
D182*
X195570Y57597D03*
D191*
X172687Y57597D03*
D182*
X149972Y57597D03*
D122*
X134298Y57597D03*
X121222Y57597D03*
D183*
X97752Y57597D03*
D63*
X82329Y57597D03*
D184*
X71433Y57597D03*
D57*
X216022Y57765D03*
D124*
X202192Y57765D03*
D64*
X190206Y57765D03*
D191*
X172687Y57765D03*
D124*
X156594Y57765D03*
D192*
X144524Y57765D03*
D122*
X134298Y57765D03*
X121222Y57765D03*
D183*
X97752Y57765D03*
D63*
X82329Y57765D03*
D184*
X71433Y57765D03*
D50*
X216106Y57933D03*
D193*
X202359Y57933D03*
D194*
X189871Y57933D03*
D195*
X172687Y57933D03*
D163*
X156678Y57933D03*
D196*
X144272Y57933D03*
D116*
X134298Y57933D03*
X121222Y57933D03*
D186*
X97752Y57933D03*
D114*
X82329Y57933D03*
D187*
X71433Y57933D03*
D138*
X216190Y58100D03*
D86*
X202611Y58100D03*
D94*
X189535Y58100D03*
D191*
X172687Y58100D03*
D86*
X156845Y58100D03*
D197*
X143853Y58100D03*
D122*
X134298Y58100D03*
X121222Y58100D03*
D198*
X97836Y58100D03*
D63*
X82329Y58100D03*
D184*
X71433Y58100D03*
D199*
X216358Y58268D03*
D116*
X202695Y58268D03*
D200*
X189284Y58268D03*
D195*
X172687Y58268D03*
D114*
X156929Y58268D03*
D201*
X143602Y58268D03*
D116*
X134298Y58268D03*
X121222Y58268D03*
D202*
X97836Y58268D03*
D114*
X82329Y58268D03*
D203*
X73277Y58268D03*
D204*
X216441Y58435D03*
D122*
X202695Y58435D03*
D176*
X189200Y58435D03*
D125*
X179141Y58435D03*
D205*
X166820Y58435D03*
D63*
X156929Y58435D03*
D206*
X143518Y58435D03*
D122*
X134298Y58435D03*
X121222Y58435D03*
D125*
X104206Y58435D03*
D207*
X92052Y58435D03*
D63*
X82329Y58435D03*
D120*
X73528Y58435D03*
D208*
X216525Y58603D03*
D107*
X202779Y58603D03*
D209*
X188948Y58603D03*
D210*
X179477Y58603D03*
D119*
X166401Y58603D03*
D107*
X157013Y58603D03*
D210*
X143267Y58603D03*
D122*
X134298Y58603D03*
X121222Y58603D03*
D124*
X104458Y58603D03*
D87*
X91717Y58603D03*
D63*
X82329Y58603D03*
D211*
X73612Y58603D03*
D212*
X216693Y58771D03*
D83*
X202779Y58771D03*
D49*
X188781Y58771D03*
D193*
X179560Y58771D03*
D213*
X166065Y58771D03*
D83*
X157013Y58771D03*
D214*
X143099Y58771D03*
D116*
X134298Y58771D03*
X121222Y58771D03*
D163*
X104542Y58771D03*
D203*
X91382Y58771D03*
D114*
X82329Y58771D03*
D215*
X73696Y58771D03*
D216*
X216777Y58938D03*
D107*
X202779Y58938D03*
D63*
X188613Y58938D03*
D211*
X179728Y58938D03*
D124*
X165982Y58938D03*
D107*
X157013Y58938D03*
D63*
X143015Y58938D03*
D122*
X134298Y58938D03*
X121222Y58938D03*
D211*
X104625Y58938D03*
D124*
X91214Y58938D03*
D63*
X82329Y58938D03*
D86*
X73696Y58938D03*
D76*
X251562Y59106D03*
D217*
X216944Y59106D03*
D107*
X202779Y59106D03*
D63*
X188613Y59106D03*
D211*
X179728Y59106D03*
D86*
X165730Y59106D03*
D79*
X157097Y59106D03*
D63*
X143015Y59106D03*
D122*
X134298Y59106D03*
X121222Y59106D03*
D211*
X104625Y59106D03*
D86*
X90962Y59106D03*
D63*
X82329Y59106D03*
D86*
X73696Y59106D03*
D26*
X251394Y59274D03*
D218*
X217028Y59274D03*
D83*
X202779Y59274D03*
D114*
X188613Y59274D03*
D215*
X179812Y59274D03*
D83*
X165563Y59274D03*
D91*
X157097Y59274D03*
D114*
X143015Y59274D03*
D116*
X134298Y59274D03*
X121222Y59274D03*
D215*
X104709Y59274D03*
D116*
X90879Y59274D03*
D114*
X82329Y59274D03*
D116*
X73780Y59274D03*
D16*
X251478Y59441D03*
D219*
X217112Y59441D03*
D107*
X202779Y59441D03*
D63*
X188613Y59441D03*
D86*
X179812Y59441D03*
D107*
X165563Y59441D03*
D79*
X157097Y59441D03*
D63*
X143015Y59441D03*
D122*
X134298Y59441D03*
X121222Y59441D03*
D86*
X104709Y59441D03*
D122*
X90879Y59441D03*
D63*
X82329Y59441D03*
D122*
X73780Y59441D03*
D108*
X251226Y59609D03*
D220*
X217280Y59609D03*
D107*
X202779Y59609D03*
D63*
X188613Y59609D03*
D86*
X179812Y59609D03*
D107*
X165563Y59609D03*
D79*
X157097Y59609D03*
D63*
X143015Y59609D03*
D122*
X134298Y59609D03*
X121222Y59609D03*
D86*
X104709Y59609D03*
D122*
X90879Y59609D03*
D63*
X82329Y59609D03*
D122*
X73780Y59609D03*
D221*
X250975Y59777D03*
D222*
X217447Y59777D03*
D83*
X202779Y59777D03*
D114*
X188613Y59777D03*
D116*
X179896Y59777D03*
D83*
X165563Y59777D03*
D91*
X157097Y59777D03*
D114*
X143015Y59777D03*
D116*
X134298Y59777D03*
X121222Y59777D03*
D215*
X104709Y59777D03*
D116*
X90879Y59777D03*
D114*
X82329Y59777D03*
D116*
X73780Y59777D03*
D223*
X250891Y59944D03*
D159*
X217447Y59944D03*
D107*
X202779Y59944D03*
D63*
X188613Y59944D03*
D122*
X179896Y59944D03*
D107*
X165563Y59944D03*
D79*
X157097Y59944D03*
D63*
X143015Y59944D03*
D122*
X134298Y59944D03*
X121222Y59944D03*
D86*
X104709Y59944D03*
D122*
X90879Y59944D03*
D63*
X82329Y59944D03*
D122*
X73780Y59944D03*
D91*
X250640Y60112D03*
D165*
X217615Y60112D03*
D83*
X202779Y60112D03*
D114*
X188613Y60112D03*
X180063Y60112D03*
D83*
X165563Y60112D03*
D91*
X157097Y60112D03*
D114*
X143015Y60112D03*
D116*
X134298Y60112D03*
X121222Y60112D03*
D114*
X104793Y60112D03*
D116*
X90879Y60112D03*
D114*
X82329Y60112D03*
D116*
X73780Y60112D03*
D86*
X250388Y60279D03*
D169*
X217699Y60279D03*
D107*
X202779Y60279D03*
D63*
X188613Y60279D03*
X180063Y60279D03*
D107*
X165563Y60279D03*
D79*
X157097Y60279D03*
D63*
X143015Y60279D03*
D122*
X134298Y60279D03*
X121222Y60279D03*
D63*
X104793Y60279D03*
D122*
X90879Y60279D03*
D63*
X82329Y60279D03*
D122*
X73780Y60279D03*
D124*
X250305Y60447D03*
D224*
X217783Y60447D03*
D107*
X202779Y60447D03*
D63*
X188613Y60447D03*
X180063Y60447D03*
D107*
X165563Y60447D03*
D79*
X157097Y60447D03*
D63*
X143015Y60447D03*
D122*
X134298Y60447D03*
X121222Y60447D03*
D63*
X104793Y60447D03*
D122*
X90879Y60447D03*
D63*
X82329Y60447D03*
D122*
X73780Y60447D03*
D225*
X249969Y60615D03*
D226*
X217950Y60615D03*
D83*
X202779Y60615D03*
D114*
X188613Y60615D03*
X180063Y60615D03*
D83*
X165563Y60615D03*
D91*
X157097Y60615D03*
D114*
X143015Y60615D03*
D116*
X134298Y60615D03*
X121222Y60615D03*
D114*
X104793Y60615D03*
D116*
X90879Y60615D03*
D114*
X82329Y60615D03*
D116*
X73780Y60615D03*
D227*
X249801Y60782D03*
D228*
X218034Y60782D03*
D79*
X202695Y60782D03*
D63*
X188613Y60782D03*
X180063Y60782D03*
D107*
X165563Y60782D03*
D79*
X157097Y60782D03*
D63*
X143015Y60782D03*
D122*
X134298Y60782D03*
X121222Y60782D03*
D63*
X104793Y60782D03*
D122*
X90879Y60782D03*
D63*
X82329Y60782D03*
D122*
X73780Y60782D03*
D205*
X249634Y60950D03*
D229*
X218202Y60950D03*
D79*
X202695Y60950D03*
D63*
X188613Y60950D03*
X180063Y60950D03*
D107*
X165563Y60950D03*
D79*
X157097Y60950D03*
D63*
X143015Y60950D03*
D122*
X134298Y60950D03*
X121222Y60950D03*
D63*
X104793Y60950D03*
D122*
X90879Y60950D03*
D63*
X82329Y60950D03*
D122*
X73780Y60950D03*
D190*
X249299Y61118D03*
D230*
X218286Y61118D03*
D91*
X202695Y61118D03*
D114*
X188613Y61118D03*
X180063Y61118D03*
D83*
X165563Y61118D03*
X157013Y61118D03*
D114*
X143015Y61118D03*
D116*
X134298Y61118D03*
X121222Y61118D03*
D114*
X104793Y61118D03*
D116*
X90879Y61118D03*
D114*
X82329Y61118D03*
D116*
X73780Y61118D03*
D57*
X249047Y61285D03*
D231*
X218453Y61285D03*
D79*
X202695Y61285D03*
D63*
X188613Y61285D03*
X180063Y61285D03*
D107*
X165563Y61285D03*
X157013Y61285D03*
D63*
X143015Y61285D03*
D122*
X134298Y61285D03*
X121222Y61285D03*
D63*
X104793Y61285D03*
D122*
X90879Y61285D03*
D63*
X82329Y61285D03*
D122*
X73780Y61285D03*
D138*
X248879Y61453D03*
D231*
X218453Y61453D03*
D79*
X202695Y61453D03*
D63*
X188613Y61453D03*
X180063Y61453D03*
D107*
X165563Y61453D03*
X157013Y61453D03*
D63*
X143015Y61453D03*
D122*
X134298Y61453D03*
X121222Y61453D03*
D63*
X104793Y61453D03*
D122*
X90879Y61453D03*
D63*
X82329Y61453D03*
D122*
X73780Y61453D03*
D145*
X248544Y61621D03*
D232*
X218537Y61621D03*
D83*
X202611Y61621D03*
D114*
X188613Y61621D03*
X180063Y61621D03*
D83*
X165563Y61621D03*
D114*
X156929Y61621D03*
X143015Y61621D03*
D116*
X134298Y61621D03*
X121222Y61621D03*
D114*
X104793Y61621D03*
D116*
X90879Y61621D03*
D114*
X82329Y61621D03*
D116*
X73780Y61621D03*
D216*
X248293Y61788D03*
D233*
X218705Y61788D03*
D107*
X202611Y61788D03*
D63*
X188613Y61788D03*
X180063Y61788D03*
D107*
X165563Y61788D03*
D63*
X156929Y61788D03*
X143015Y61788D03*
D122*
X134298Y61788D03*
X121222Y61788D03*
D63*
X104793Y61788D03*
D122*
X90879Y61788D03*
D63*
X82329Y61788D03*
D122*
X73780Y61788D03*
D217*
X248125Y61956D03*
D233*
X218705Y61956D03*
D63*
X202527Y61956D03*
X188613Y61956D03*
X180063Y61956D03*
D107*
X165563Y61956D03*
D63*
X156761Y61956D03*
X143015Y61956D03*
D122*
X134298Y61956D03*
X121222Y61956D03*
D63*
X104793Y61956D03*
D122*
X90879Y61956D03*
D63*
X82329Y61956D03*
D122*
X73780Y61956D03*
D153*
X247790Y62124D03*
D234*
X218872Y62124D03*
D215*
X202443Y62124D03*
D114*
X188613Y62124D03*
X180063Y62124D03*
D83*
X165563Y62124D03*
D215*
X156677Y62124D03*
D114*
X143015Y62124D03*
D116*
X134298Y62124D03*
X121222Y62124D03*
D114*
X104793Y62124D03*
D116*
X90879Y62124D03*
D114*
X82329Y62124D03*
D116*
X73780Y62124D03*
D158*
X247455Y62291D03*
D235*
X218956Y62291D03*
D124*
X202192Y62291D03*
D63*
X188613Y62291D03*
X180063Y62291D03*
D107*
X165563Y62291D03*
D210*
X156510Y62291D03*
D63*
X143015Y62291D03*
D122*
X134298Y62291D03*
X121222Y62291D03*
D63*
X104793Y62291D03*
D122*
X90879Y62291D03*
D63*
X82329Y62291D03*
D122*
X73780Y62291D03*
D236*
X247287Y62459D03*
D237*
X219040Y62459D03*
D90*
X202024Y62459D03*
D114*
X188613Y62459D03*
X180063Y62459D03*
D83*
X165563Y62459D03*
D90*
X156258Y62459D03*
D114*
X143015Y62459D03*
D116*
X134298Y62459D03*
X121222Y62459D03*
D114*
X104793Y62459D03*
D116*
X90879Y62459D03*
D114*
X82329Y62459D03*
D116*
X73780Y62459D03*
D238*
X246952Y62626D03*
D239*
X219124Y62626D03*
D168*
X195486Y62626D03*
D63*
X180063Y62626D03*
D107*
X165563Y62626D03*
D177*
X149805Y62626D03*
D122*
X134298Y62626D03*
X121222Y62626D03*
D63*
X104793Y62626D03*
D122*
X90879Y62626D03*
D63*
X82329Y62626D03*
D122*
X73780Y62626D03*
D240*
X246616Y62794D03*
D241*
X219208Y62794D03*
D168*
X195486Y62794D03*
D63*
X180063Y62794D03*
D107*
X165563Y62794D03*
D177*
X149805Y62794D03*
D122*
X134298Y62794D03*
X121222Y62794D03*
D63*
X104793Y62794D03*
D122*
X90879Y62794D03*
D63*
X82329Y62794D03*
D122*
X73780Y62794D03*
D230*
X246449Y62962D03*
D242*
X219208Y62962D03*
D171*
X195486Y62962D03*
D114*
X180063Y62962D03*
D83*
X165563Y62962D03*
D173*
X149805Y62962D03*
D116*
X134298Y62962D03*
X121222Y62962D03*
D114*
X104793Y62962D03*
D116*
X90879Y62962D03*
D114*
X82329Y62962D03*
D116*
X73780Y62962D03*
D243*
X246113Y63129D03*
D244*
X219375Y63129D03*
D168*
X195486Y63129D03*
D63*
X180063Y63129D03*
D107*
X165563Y63129D03*
D177*
X149805Y63129D03*
D122*
X134298Y63129D03*
X121222Y63129D03*
D63*
X104793Y63129D03*
D122*
X90879Y63129D03*
D63*
X82329Y63129D03*
D122*
X73780Y63129D03*
D245*
X245862Y63297D03*
D246*
X219459Y63297D03*
D177*
X195403Y63297D03*
D63*
X180063Y63297D03*
D107*
X165563Y63297D03*
D170*
X149721Y63297D03*
D122*
X134298Y63297D03*
X121222Y63297D03*
D63*
X104793Y63297D03*
D122*
X90879Y63297D03*
D63*
X82329Y63297D03*
D122*
X73780Y63297D03*
D247*
X245610Y63465D03*
D248*
X219459Y63465D03*
D173*
X195403Y63465D03*
D114*
X180063Y63465D03*
D83*
X165563Y63465D03*
D249*
X149721Y63465D03*
D116*
X134298Y63465D03*
X121222Y63465D03*
D114*
X104793Y63465D03*
D116*
X90879Y63465D03*
D114*
X82329Y63465D03*
D116*
X73780Y63465D03*
D239*
X245443Y63632D03*
D250*
X219543Y63632D03*
D170*
X195319Y63632D03*
D63*
X180063Y63632D03*
D107*
X165563Y63632D03*
D170*
X149721Y63632D03*
D122*
X134298Y63632D03*
X121222Y63632D03*
D63*
X104793Y63632D03*
D122*
X90879Y63632D03*
D63*
X82329Y63632D03*
D122*
X73780Y63632D03*
D251*
X245275Y63800D03*
D252*
X219627Y63800D03*
D170*
X195319Y63800D03*
D63*
X180063Y63800D03*
D107*
X165563Y63800D03*
D253*
X149637Y63800D03*
D122*
X134298Y63800D03*
X121222Y63800D03*
D63*
X104793Y63800D03*
D122*
X90879Y63800D03*
D63*
X82329Y63800D03*
D122*
X73780Y63800D03*
D248*
X245107Y63968D03*
D254*
X219710Y63968D03*
D249*
X195319Y63968D03*
D114*
X180063Y63968D03*
D83*
X165563Y63968D03*
D255*
X149637Y63968D03*
D116*
X134298Y63968D03*
X121222Y63968D03*
D114*
X104793Y63968D03*
D116*
X90879Y63968D03*
D114*
X82329Y63968D03*
D116*
X73780Y63968D03*
D256*
X244856Y64135D03*
D257*
X219710Y64135D03*
D253*
X195235Y64135D03*
D63*
X180063Y64135D03*
D107*
X165563Y64135D03*
D258*
X149553Y64135D03*
D122*
X134298Y64135D03*
X121222Y64135D03*
D63*
X104793Y64135D03*
D122*
X90879Y64135D03*
D63*
X82329Y64135D03*
D122*
X73780Y64135D03*
D259*
X244521Y64303D03*
D260*
X219794Y64303D03*
D255*
X195235Y64303D03*
D114*
X180063Y64303D03*
D83*
X165563Y64303D03*
D261*
X149553Y64303D03*
D116*
X134298Y64303D03*
X121222Y64303D03*
D114*
X104793Y64303D03*
D116*
X90879Y64303D03*
D114*
X82329Y64303D03*
D116*
X73780Y64303D03*
D262*
X244521Y64470D03*
D263*
X219878Y64470D03*
D258*
X195151Y64470D03*
D63*
X180063Y64470D03*
D107*
X165563Y64470D03*
D264*
X149469Y64470D03*
D122*
X134298Y64470D03*
X121222Y64470D03*
D63*
X104793Y64470D03*
D122*
X90879Y64470D03*
D63*
X82329Y64470D03*
D122*
X73780Y64470D03*
D263*
X244353Y64638D03*
X219878Y64638D03*
D264*
X195067Y64638D03*
D63*
X180063Y64638D03*
D107*
X165563Y64638D03*
D265*
X149385Y64638D03*
D122*
X134298Y64638D03*
X121222Y64638D03*
D63*
X104793Y64638D03*
D122*
X90879Y64638D03*
D63*
X82329Y64638D03*
D122*
X73780Y64638D03*
D266*
X244186Y64806D03*
D267*
X219962Y64806D03*
D268*
X194984Y64806D03*
D114*
X180063Y64806D03*
D83*
X165563Y64806D03*
D269*
X149302Y64806D03*
D116*
X134298Y64806D03*
X121222Y64806D03*
D114*
X104793Y64806D03*
D116*
X90879Y64806D03*
D114*
X82329Y64806D03*
D116*
X73780Y64806D03*
D270*
X244018Y64973D03*
D271*
X219962Y64973D03*
D272*
X194984Y64973D03*
D63*
X180063Y64973D03*
D107*
X165563Y64973D03*
D273*
X149302Y64973D03*
D122*
X134298Y64973D03*
X121222Y64973D03*
D63*
X104793Y64973D03*
D122*
X90879Y64973D03*
D63*
X82329Y64973D03*
D122*
X73780Y64973D03*
D274*
X243851Y65141D03*
D275*
X220130Y65141D03*
D276*
X194816Y65141D03*
D63*
X180063Y65141D03*
D107*
X165563Y65141D03*
D276*
X149218Y65141D03*
D122*
X134298Y65141D03*
X121222Y65141D03*
D63*
X104793Y65141D03*
D122*
X90879Y65141D03*
D63*
X82329Y65141D03*
D122*
X73780Y65141D03*
D277*
X243767Y65309D03*
D278*
X220130Y65309D03*
D279*
X194732Y65309D03*
D114*
X180063Y65309D03*
D83*
X165563Y65309D03*
D280*
X149050Y65309D03*
D116*
X134298Y65309D03*
X121222Y65309D03*
D114*
X104793Y65309D03*
D116*
X90879Y65309D03*
D114*
X82329Y65309D03*
D116*
X73780Y65309D03*
D281*
X243683Y65476D03*
D275*
X220130Y65476D03*
D282*
X194648Y65476D03*
D63*
X180063Y65476D03*
D107*
X165563Y65476D03*
D283*
X148966Y65476D03*
D122*
X134298Y65476D03*
X121222Y65476D03*
D63*
X104793Y65476D03*
D122*
X90879Y65476D03*
D63*
X82329Y65476D03*
D122*
X73780Y65476D03*
D284*
X243515Y65644D03*
D283*
X220213Y65644D03*
D275*
X194481Y65644D03*
D63*
X180063Y65644D03*
D107*
X165563Y65644D03*
D285*
X148799Y65644D03*
D122*
X134298Y65644D03*
X121222Y65644D03*
D63*
X104793Y65644D03*
D122*
X90879Y65644D03*
D63*
X82329Y65644D03*
D122*
X73780Y65644D03*
D286*
X243431Y65812D03*
D287*
X220213Y65812D03*
D267*
X194313Y65812D03*
D114*
X180063Y65812D03*
D83*
X165563Y65812D03*
D267*
X148715Y65812D03*
D116*
X134298Y65812D03*
X121222Y65812D03*
D114*
X104793Y65812D03*
D116*
X90879Y65812D03*
D114*
X82329Y65812D03*
D116*
X73780Y65812D03*
D273*
X243180Y65979D03*
D282*
X220297Y65979D03*
D139*
X197666Y65979D03*
D63*
X188613Y65979D03*
X180063Y65979D03*
D107*
X165563Y65979D03*
D138*
X151983Y65979D03*
D63*
X143015Y65979D03*
D122*
X134298Y65979D03*
X121222Y65979D03*
D63*
X104793Y65979D03*
D122*
X90879Y65979D03*
D63*
X82329Y65979D03*
D122*
X73780Y65979D03*
D272*
X243096Y66147D03*
D284*
X220381Y66147D03*
D87*
X198001Y66147D03*
D63*
X188613Y66147D03*
X180063Y66147D03*
D107*
X165563Y66147D03*
D197*
X152235Y66147D03*
D63*
X143015Y66147D03*
D122*
X134298Y66147D03*
X121222Y66147D03*
D63*
X104793Y66147D03*
D122*
X90879Y66147D03*
D63*
X82329Y66147D03*
D122*
X73780Y66147D03*
D288*
X243012Y66315D03*
D279*
X220381Y66315D03*
D215*
X198084Y66315D03*
D114*
X188613Y66315D03*
X180063Y66315D03*
D83*
X165563Y66315D03*
D116*
X152403Y66315D03*
D114*
X143015Y66315D03*
D116*
X134298Y66315D03*
X121222Y66315D03*
D114*
X104793Y66315D03*
D116*
X90879Y66315D03*
D114*
X82329Y66315D03*
D116*
X73780Y66315D03*
D289*
X242845Y66482D03*
D284*
X220381Y66482D03*
D63*
X188613Y66482D03*
X180063Y66482D03*
D107*
X165563Y66482D03*
D63*
X143015Y66482D03*
D122*
X134298Y66482D03*
X121222Y66482D03*
D63*
X104793Y66482D03*
D122*
X90879Y66482D03*
D63*
X82329Y66482D03*
D122*
X73780Y66482D03*
D290*
X242761Y66650D03*
D291*
X220465Y66650D03*
D114*
X188613Y66650D03*
X180063Y66650D03*
D83*
X165563Y66650D03*
D114*
X143015Y66650D03*
D116*
X134298Y66650D03*
X121222Y66650D03*
D114*
X104793Y66650D03*
D116*
X90879Y66650D03*
D114*
X82329Y66650D03*
D116*
X73780Y66650D03*
D292*
X242677Y66817D03*
D276*
X220465Y66817D03*
D63*
X188613Y66817D03*
X180063Y66817D03*
D107*
X165563Y66817D03*
D63*
X143015Y66817D03*
D122*
X134298Y66817D03*
X121222Y66817D03*
D63*
X104793Y66817D03*
D122*
X90879Y66817D03*
D63*
X82329Y66817D03*
D122*
X73780Y66817D03*
D292*
X242677Y66985D03*
D276*
X220465Y66985D03*
D63*
X188613Y66985D03*
X180063Y66985D03*
D107*
X165563Y66985D03*
D63*
X143015Y66985D03*
D122*
X134298Y66985D03*
X121222Y66985D03*
D63*
X104793Y66985D03*
D122*
X90879Y66985D03*
D63*
X82329Y66985D03*
D122*
X73780Y66985D03*
D293*
X242509Y67153D03*
D269*
X220549Y67153D03*
D114*
X188613Y67153D03*
X180063Y67153D03*
D83*
X165563Y67153D03*
D114*
X143015Y67153D03*
D116*
X134298Y67153D03*
X121222Y67153D03*
D114*
X104793Y67153D03*
D116*
X90879Y67153D03*
D114*
X82329Y67153D03*
D116*
X73780Y67153D03*
D294*
X242425Y67320D03*
D273*
X220549Y67320D03*
D63*
X188613Y67320D03*
X180063Y67320D03*
D107*
X165563Y67320D03*
D63*
X143015Y67320D03*
D122*
X134298Y67320D03*
X121222Y67320D03*
D63*
X104793Y67320D03*
D122*
X90879Y67320D03*
D63*
X82329Y67320D03*
D122*
X73780Y67320D03*
D170*
X242258Y67488D03*
D265*
X220632Y67488D03*
D63*
X188613Y67488D03*
X180063Y67488D03*
D107*
X165563Y67488D03*
D63*
X143015Y67488D03*
D122*
X134298Y67488D03*
X121222Y67488D03*
D63*
X104793Y67488D03*
D122*
X90879Y67488D03*
D63*
X82329Y67488D03*
D122*
X73780Y67488D03*
D173*
X242174Y67656D03*
D295*
X220632Y67656D03*
D114*
X188613Y67656D03*
X180063Y67656D03*
D83*
X165563Y67656D03*
D114*
X143015Y67656D03*
D116*
X134298Y67656D03*
X121222Y67656D03*
D114*
X104793Y67656D03*
D116*
X90879Y67656D03*
D114*
X82329Y67656D03*
D116*
X73780Y67656D03*
D177*
X242174Y67823D03*
D265*
X220632Y67823D03*
D63*
X188613Y67823D03*
X180063Y67823D03*
D107*
X165563Y67823D03*
D63*
X143015Y67823D03*
D122*
X134298Y67823D03*
X121222Y67823D03*
D63*
X104793Y67823D03*
D122*
X90879Y67823D03*
D63*
X82329Y67823D03*
D122*
X73780Y67823D03*
D177*
X242007Y67991D03*
D265*
X220632Y67991D03*
D63*
X188613Y67991D03*
X180063Y67991D03*
D107*
X165563Y67991D03*
D63*
X143015Y67991D03*
D122*
X134298Y67991D03*
X121222Y67991D03*
D63*
X104793Y67991D03*
D122*
X90879Y67991D03*
D63*
X82329Y67991D03*
D122*
X73780Y67991D03*
D186*
X241923Y68159D03*
D288*
X220716Y68159D03*
D114*
X188613Y68159D03*
X180063Y68159D03*
D83*
X165563Y68159D03*
D114*
X143015Y68159D03*
D116*
X134298Y68159D03*
X121222Y68159D03*
D114*
X104793Y68159D03*
D116*
X90879Y68159D03*
D114*
X82329Y68159D03*
D116*
X73780Y68159D03*
D183*
X241923Y68326D03*
D264*
X220716Y68326D03*
D63*
X188613Y68326D03*
X180063Y68326D03*
D107*
X165563Y68326D03*
D63*
X143015Y68326D03*
D122*
X134298Y68326D03*
X121222Y68326D03*
D63*
X104793Y68326D03*
D122*
X90879Y68326D03*
D63*
X82329Y68326D03*
D122*
X73780Y68326D03*
D202*
X241839Y68494D03*
D288*
X220716Y68494D03*
D114*
X188613Y68494D03*
X180063Y68494D03*
D83*
X165563Y68494D03*
D114*
X143015Y68494D03*
D116*
X134298Y68494D03*
X121222Y68494D03*
D114*
X104793Y68494D03*
D116*
X90879Y68494D03*
D114*
X82329Y68494D03*
D116*
X73780Y68494D03*
D183*
X241755Y68661D03*
D264*
X220716Y68661D03*
D79*
X202024Y68661D03*
D63*
X188613Y68661D03*
X180063Y68661D03*
D107*
X165563Y68661D03*
D79*
X156259Y68661D03*
D63*
X143015Y68661D03*
D122*
X134298Y68661D03*
D86*
X121138Y68661D03*
D63*
X104793Y68661D03*
D122*
X90879Y68661D03*
D63*
X82329Y68661D03*
D122*
X73780Y68661D03*
D182*
X241671Y68829D03*
D264*
X220716Y68829D03*
D79*
X202024Y68829D03*
D63*
X188613Y68829D03*
X180063Y68829D03*
D107*
X165563Y68829D03*
D79*
X156259Y68829D03*
D63*
X143015Y68829D03*
D122*
X134298Y68829D03*
D211*
X121054Y68829D03*
D63*
X104793Y68829D03*
D122*
X90879Y68829D03*
D63*
X82329Y68829D03*
D122*
X73780Y68829D03*
D185*
X241503Y68997D03*
D288*
X220716Y68997D03*
D91*
X202024Y68997D03*
D114*
X188613Y68997D03*
D116*
X179896Y68997D03*
D83*
X165563Y68997D03*
D91*
X156259Y68997D03*
D114*
X143015Y68997D03*
D116*
X134298Y68997D03*
D203*
X120719Y68997D03*
D114*
X104793Y68997D03*
D116*
X90879Y68997D03*
D114*
X82329Y68997D03*
D116*
X73780Y68997D03*
D182*
X241503Y69164D03*
D272*
X220800Y69164D03*
D79*
X202024Y69164D03*
D63*
X188613Y69164D03*
D122*
X179896Y69164D03*
D107*
X165563Y69164D03*
D79*
X156259Y69164D03*
D63*
X143015Y69164D03*
D122*
X134298Y69164D03*
D87*
X120384Y69164D03*
D63*
X104793Y69164D03*
D122*
X90879Y69164D03*
D63*
X82329Y69164D03*
D122*
X73780Y69164D03*
D182*
X241503Y69332D03*
D272*
X220800Y69332D03*
D79*
X202024Y69332D03*
D63*
X188613Y69332D03*
D122*
X179896Y69332D03*
D107*
X165563Y69332D03*
D79*
X156259Y69332D03*
D63*
X143015Y69332D03*
D122*
X134298Y69332D03*
D227*
X120216Y69332D03*
D63*
X104793Y69332D03*
D122*
X90879Y69332D03*
D63*
X82329Y69332D03*
D122*
X73780Y69332D03*
D202*
X241336Y69500D03*
D268*
X220800Y69500D03*
D91*
X202024Y69500D03*
D215*
X188697Y69500D03*
X179812Y69500D03*
D83*
X165563Y69500D03*
D91*
X156259Y69500D03*
D114*
X143015Y69500D03*
D116*
X134298Y69500D03*
D135*
X119546Y69500D03*
D114*
X104793Y69500D03*
D116*
X90879Y69500D03*
D114*
X82329Y69500D03*
D116*
X73780Y69500D03*
D198*
X241336Y69667D03*
D289*
X220884Y69667D03*
D296*
X201940Y69667D03*
D86*
X188697Y69667D03*
X179812Y69667D03*
D107*
X165563Y69667D03*
X156175Y69667D03*
D63*
X143015Y69667D03*
D122*
X134298Y69667D03*
D297*
X117282Y69667D03*
D63*
X104793Y69667D03*
D122*
X90879Y69667D03*
D63*
X82329Y69667D03*
D122*
X73780Y69667D03*
D198*
X241336Y69835D03*
D289*
X220884Y69835D03*
D296*
X201940Y69835D03*
D86*
X188697Y69835D03*
X179812Y69835D03*
D107*
X165563Y69835D03*
X156175Y69835D03*
D63*
X143015Y69835D03*
D122*
X134298Y69835D03*
D297*
X117282Y69835D03*
D63*
X104793Y69835D03*
D122*
X90879Y69835D03*
D63*
X82329Y69835D03*
D122*
X73780Y69835D03*
D195*
X241252Y70003D03*
D268*
X220968Y70003D03*
D298*
X201940Y70003D03*
D215*
X188697Y70003D03*
X179644Y70003D03*
D193*
X165814Y70003D03*
D83*
X156175Y70003D03*
D114*
X143015Y70003D03*
D116*
X134298Y70003D03*
D299*
X117282Y70003D03*
D114*
X104793Y70003D03*
D116*
X90879Y70003D03*
D114*
X82329Y70003D03*
D116*
X73780Y70003D03*
D191*
X241084Y70170D03*
D272*
X220968Y70170D03*
D63*
X201856Y70170D03*
D54*
X188781Y70170D03*
D211*
X179560Y70170D03*
D124*
X165982Y70170D03*
D107*
X156175Y70170D03*
D300*
X143099Y70170D03*
D122*
X134298Y70170D03*
D297*
X117282Y70170D03*
D63*
X104793Y70170D03*
D122*
X90879Y70170D03*
D63*
X82329Y70170D03*
D122*
X73780Y70170D03*
D191*
X241084Y70338D03*
D272*
X220968Y70338D03*
D107*
X201773Y70338D03*
D54*
X188781Y70338D03*
D210*
X179477Y70338D03*
D206*
X166149Y70338D03*
D79*
X156091Y70338D03*
D300*
X143099Y70338D03*
D122*
X134298Y70338D03*
D297*
X117282Y70338D03*
D63*
X104793Y70338D03*
D122*
X90879Y70338D03*
D63*
X82329Y70338D03*
D122*
X73780Y70338D03*
D185*
X241000Y70506D03*
D268*
X220968Y70506D03*
D83*
X201773Y70506D03*
D215*
X188864Y70506D03*
D301*
X179393Y70506D03*
D302*
X166485Y70506D03*
D83*
X156007Y70506D03*
D214*
X143099Y70506D03*
D116*
X134298Y70506D03*
D299*
X117282Y70506D03*
D114*
X104793Y70506D03*
D116*
X90879Y70506D03*
D114*
X82329Y70506D03*
D116*
X73780Y70506D03*
D182*
X241000Y70673D03*
D272*
X220968Y70673D03*
D86*
X201605Y70673D03*
D211*
X188948Y70673D03*
D87*
X178890Y70673D03*
D303*
X166987Y70673D03*
D63*
X155923Y70673D03*
D210*
X143267Y70673D03*
D122*
X134298Y70673D03*
D297*
X117282Y70673D03*
D63*
X104793Y70673D03*
D122*
X90879Y70673D03*
D63*
X82329Y70673D03*
D122*
X73780Y70673D03*
D195*
X240916Y70841D03*
D268*
X220968Y70841D03*
D215*
X201605Y70841D03*
D163*
X189032Y70841D03*
D195*
X172687Y70841D03*
D215*
X155839Y70841D03*
D163*
X143267Y70841D03*
D175*
X132035Y70841D03*
D299*
X117282Y70841D03*
D114*
X104793Y70841D03*
D116*
X90879Y70841D03*
D114*
X82329Y70841D03*
D187*
X71433Y70841D03*
D191*
X240916Y71008D03*
D272*
X220968Y71008D03*
D289*
X195235Y71008D03*
D191*
X172687Y71008D03*
D264*
X149469Y71008D03*
D179*
X132035Y71008D03*
D297*
X117282Y71008D03*
D63*
X104793Y71008D03*
D122*
X90879Y71008D03*
D63*
X82329Y71008D03*
D184*
X71433Y71008D03*
D198*
X240833Y71176D03*
D304*
X221051Y71176D03*
D289*
X195235Y71176D03*
D182*
X172603Y71176D03*
D264*
X149469Y71176D03*
D179*
X132035Y71176D03*
D297*
X117282Y71176D03*
D63*
X104793Y71176D03*
D122*
X90879Y71176D03*
D63*
X82329Y71176D03*
D184*
X71433Y71176D03*
D202*
X240833Y71344D03*
D286*
X220967Y71344D03*
D305*
X195235Y71344D03*
D185*
X172603Y71344D03*
D288*
X149469Y71344D03*
D175*
X132035Y71344D03*
D299*
X117282Y71344D03*
D114*
X104793Y71344D03*
D116*
X90879Y71344D03*
D114*
X82329Y71344D03*
D187*
X71433Y71344D03*
D191*
X240749Y71511D03*
D306*
X220967Y71511D03*
D289*
X195235Y71511D03*
D182*
X172603Y71511D03*
D264*
X149469Y71511D03*
D179*
X132035Y71511D03*
D297*
X117282Y71511D03*
D63*
X104793Y71511D03*
D122*
X90879Y71511D03*
D63*
X82329Y71511D03*
D184*
X71433Y71511D03*
D182*
X240665Y71679D03*
D306*
X220967Y71679D03*
D273*
X195235Y71679D03*
D182*
X172603Y71679D03*
D272*
X149553Y71679D03*
D179*
X132035Y71679D03*
D297*
X117282Y71679D03*
D63*
X104793Y71679D03*
D122*
X90879Y71679D03*
D63*
X82329Y71679D03*
D184*
X71433Y71679D03*
D185*
X240665Y71847D03*
D286*
X220967Y71847D03*
D269*
X195235Y71847D03*
D185*
X172603Y71847D03*
D268*
X149553Y71847D03*
D175*
X132035Y71847D03*
D299*
X117282Y71847D03*
D114*
X104793Y71847D03*
D116*
X90879Y71847D03*
D114*
X82329Y71847D03*
D187*
X71433Y71847D03*
D307*
X231194Y72014D03*
D273*
X195235Y72014D03*
D183*
X172520Y72014D03*
D272*
X149553Y72014D03*
D179*
X132035Y72014D03*
D297*
X117282Y72014D03*
D63*
X104793Y72014D03*
D122*
X90879Y72014D03*
D63*
X82329Y72014D03*
D184*
X71433Y72014D03*
D307*
X231194Y72182D03*
D273*
X195235Y72182D03*
D183*
X172520Y72182D03*
D273*
X149469Y72182D03*
D179*
X132035Y72182D03*
D297*
X117282Y72182D03*
D63*
X104793Y72182D03*
D122*
X90879Y72182D03*
D63*
X82329Y72182D03*
D184*
X71433Y72182D03*
D308*
X231278Y72350D03*
D269*
X195235Y72350D03*
D173*
X172436Y72350D03*
D269*
X149469Y72350D03*
D175*
X132035Y72350D03*
D299*
X117282Y72350D03*
D114*
X104793Y72350D03*
D116*
X90879Y72350D03*
D114*
X82329Y72350D03*
D187*
X71433Y72350D03*
D309*
X231278Y72517D03*
D273*
X195235Y72517D03*
D177*
X172436Y72517D03*
D273*
X149469Y72517D03*
D179*
X132035Y72517D03*
D122*
X121222Y72517D03*
D121*
X114013Y72517D03*
D63*
X104793Y72517D03*
D122*
X90879Y72517D03*
D63*
X82329Y72517D03*
D184*
X71433Y72517D03*
D310*
X231194Y72685D03*
D286*
X195151Y72685D03*
D173*
X172436Y72685D03*
D286*
X149385Y72685D03*
D175*
X132035Y72685D03*
D116*
X121222Y72685D03*
D311*
X113929Y72685D03*
D114*
X104793Y72685D03*
D116*
X90879Y72685D03*
D114*
X82329Y72685D03*
D187*
X71433Y72685D03*
D312*
X231194Y72852D03*
D284*
X195235Y72852D03*
D177*
X172436Y72852D03*
D284*
X149469Y72852D03*
D179*
X132035Y72852D03*
D122*
X121222Y72852D03*
D206*
X113845Y72852D03*
D63*
X104793Y72852D03*
D122*
X90879Y72852D03*
D63*
X82329Y72852D03*
D184*
X71433Y72852D03*
D313*
X231277Y73020D03*
D284*
X195235Y73020D03*
D170*
X172352Y73020D03*
D284*
X149469Y73020D03*
D179*
X132035Y73020D03*
D122*
X121222Y73020D03*
D314*
X113762Y73020D03*
D63*
X104793Y73020D03*
D122*
X90879Y73020D03*
D63*
X82329Y73020D03*
D184*
X71433Y73020D03*
D315*
X231193Y73188D03*
D279*
X195235Y73188D03*
D249*
X172352Y73188D03*
D277*
X149553Y73188D03*
D175*
X132035Y73188D03*
D116*
X121222Y73188D03*
D301*
X113678Y73188D03*
D114*
X104793Y73188D03*
D116*
X90879Y73188D03*
D114*
X82329Y73188D03*
D187*
X71433Y73188D03*
D316*
X236726Y73355D03*
D179*
X217531Y73355D03*
D284*
X195235Y73355D03*
D292*
X172268Y73355D03*
D274*
X149469Y73355D03*
D179*
X132035Y73355D03*
D122*
X121222Y73355D03*
D210*
X113594Y73355D03*
D63*
X104793Y73355D03*
D122*
X90879Y73355D03*
D63*
X82329Y73355D03*
D184*
X71433Y73355D03*
D317*
X236977Y73523D03*
D138*
X217363Y73523D03*
D274*
X195235Y73523D03*
D318*
X175453Y73523D03*
D107*
X165563Y73523D03*
D274*
X149469Y73523D03*
D179*
X132035Y73523D03*
D122*
X121222Y73523D03*
D211*
X113510Y73523D03*
D63*
X104793Y73523D03*
D122*
X90879Y73523D03*
D63*
X82329Y73523D03*
D184*
X71433Y73523D03*
D319*
X237061Y73691D03*
D50*
X217447Y73691D03*
D266*
X195235Y73691D03*
D320*
X175454Y73691D03*
D83*
X165563Y73691D03*
D278*
X149553Y73691D03*
D175*
X132035Y73691D03*
D116*
X121222Y73691D03*
D215*
X113426Y73691D03*
D114*
X104793Y73691D03*
D116*
X90879Y73691D03*
D114*
X82329Y73691D03*
D187*
X71433Y73691D03*
D321*
X237229Y73858D03*
D57*
X217363Y73858D03*
D285*
X195235Y73858D03*
D322*
X175537Y73858D03*
D107*
X165563Y73858D03*
D270*
X149469Y73858D03*
D179*
X132035Y73858D03*
D122*
X121222Y73858D03*
X113343Y73858D03*
D63*
X104793Y73858D03*
D122*
X90879Y73858D03*
D63*
X82329Y73858D03*
D184*
X71433Y73858D03*
D323*
X237313Y74026D03*
D57*
X217363Y74026D03*
D324*
X195235Y74026D03*
D148*
X175621Y74026D03*
D107*
X165563Y74026D03*
D263*
X149469Y74026D03*
D179*
X132035Y74026D03*
D122*
X121222Y74026D03*
D107*
X113259Y74026D03*
D63*
X104793Y74026D03*
D122*
X90879Y74026D03*
D63*
X82329Y74026D03*
D184*
X71433Y74026D03*
D325*
X237312Y74194D03*
D135*
X217447Y74194D03*
D259*
X195235Y74194D03*
D326*
X175621Y74194D03*
D83*
X165563Y74194D03*
D259*
X149469Y74194D03*
D175*
X132035Y74194D03*
D116*
X121222Y74194D03*
D91*
X113175Y74194D03*
D114*
X104793Y74194D03*
D116*
X90879Y74194D03*
D114*
X82329Y74194D03*
D187*
X71433Y74194D03*
D327*
X237396Y74361D03*
D328*
X217363Y74361D03*
D250*
X195235Y74361D03*
D216*
X175705Y74361D03*
D107*
X165563Y74361D03*
D252*
X149553Y74361D03*
D179*
X132035Y74361D03*
D122*
X121222Y74361D03*
D23*
X113091Y74361D03*
D63*
X104793Y74361D03*
D122*
X90879Y74361D03*
D63*
X82329Y74361D03*
D184*
X71433Y74361D03*
D329*
X237480Y74529D03*
D131*
X217447Y74529D03*
D330*
X195235Y74529D03*
D137*
X175705Y74529D03*
D107*
X165563Y74529D03*
D244*
X149469Y74529D03*
D179*
X132035Y74529D03*
D122*
X121222Y74529D03*
D146*
X112923Y74529D03*
D63*
X104793Y74529D03*
D122*
X90879Y74529D03*
D63*
X82329Y74529D03*
D184*
X71433Y74529D03*
D331*
X237480Y74697D03*
D92*
X217531Y74697D03*
D242*
X195235Y74697D03*
D332*
X175705Y74697D03*
D83*
X165563Y74697D03*
D242*
X149469Y74697D03*
D175*
X132035Y74697D03*
D116*
X121222Y74697D03*
D118*
X112840Y74697D03*
D114*
X104793Y74697D03*
D116*
X90879Y74697D03*
D114*
X82329Y74697D03*
D187*
X71433Y74697D03*
D333*
X237564Y74864D03*
D189*
X217531Y74864D03*
D334*
X195235Y74864D03*
D96*
X175789Y74864D03*
D107*
X165563Y74864D03*
D239*
X149553Y74864D03*
D179*
X132035Y74864D03*
D122*
X121222Y74864D03*
D335*
X112840Y74864D03*
D63*
X104793Y74864D03*
D122*
X90879Y74864D03*
D63*
X82329Y74864D03*
D184*
X71433Y74864D03*
D336*
X237480Y75032D03*
D92*
X217531Y75032D03*
D337*
X195235Y75032D03*
D190*
X175705Y75032D03*
D83*
X165563Y75032D03*
D338*
X149553Y75032D03*
D175*
X132035Y75032D03*
D116*
X121222Y75032D03*
D339*
X112672Y75032D03*
D114*
X104793Y75032D03*
D116*
X90879Y75032D03*
D114*
X82329Y75032D03*
D187*
X71433Y75032D03*
D340*
X237564Y75199D03*
D341*
X217615Y75199D03*
D342*
X195319Y75199D03*
D343*
X175789Y75199D03*
D107*
X165563Y75199D03*
D342*
X149553Y75199D03*
D179*
X132035Y75199D03*
D122*
X121222Y75199D03*
D85*
X112588Y75199D03*
D63*
X104793Y75199D03*
D122*
X90879Y75199D03*
D63*
X82329Y75199D03*
D184*
X71433Y75199D03*
D344*
X237648Y75367D03*
D341*
X217615Y75367D03*
D345*
X195319Y75367D03*
D94*
X175788Y75367D03*
D107*
X165563Y75367D03*
D345*
X149553Y75367D03*
D179*
X132035Y75367D03*
D122*
X121222Y75367D03*
D346*
X112421Y75367D03*
D63*
X104793Y75367D03*
D122*
X90879Y75367D03*
D63*
X82329Y75367D03*
D184*
X71433Y75367D03*
D153*
X243264Y75535D03*
D133*
X230942Y75535D03*
D194*
X217866Y75535D03*
D236*
X195318Y75535D03*
D301*
X175705Y75535D03*
D83*
X165563Y75535D03*
D347*
X149637Y75535D03*
D175*
X132035Y75535D03*
D116*
X121222Y75535D03*
D73*
X112169Y75535D03*
D114*
X104793Y75535D03*
D116*
X90879Y75535D03*
D114*
X82329Y75535D03*
D187*
X71433Y75535D03*
D152*
X243347Y75702D03*
D96*
X230775Y75702D03*
D343*
X217866Y75702D03*
D219*
X195318Y75702D03*
D122*
X175705Y75702D03*
D107*
X165563Y75702D03*
D148*
X149637Y75702D03*
D179*
X132035Y75702D03*
D122*
X121222Y75702D03*
D108*
X112085Y75702D03*
D63*
X104793Y75702D03*
D122*
X90879Y75702D03*
D63*
X82329Y75702D03*
D184*
X71433Y75702D03*
D217*
X243431Y75870D03*
D130*
X230607Y75870D03*
D205*
X217950Y75870D03*
D107*
X165563Y75870D03*
D122*
X134298Y75870D03*
X73780Y75870D03*
D326*
X243348Y76038D03*
D194*
X230439Y76038D03*
D128*
X217950Y76038D03*
D83*
X165563Y76038D03*
D116*
X134298Y76038D03*
X73780Y76038D03*
D348*
X243348Y76205D03*
D349*
X230439Y76205D03*
D68*
X218034Y76205D03*
D107*
X165563Y76205D03*
D122*
X134298Y76205D03*
X73780Y76205D03*
D348*
X243348Y76373D03*
D197*
X230355Y76373D03*
D349*
X218201Y76373D03*
D107*
X165563Y76373D03*
D122*
X134298Y76373D03*
X73780Y76373D03*
D144*
X243264Y76541D03*
D180*
X230272Y76541D03*
D126*
X218285Y76541D03*
D83*
X165563Y76541D03*
D116*
X134298Y76541D03*
X73780Y76541D03*
D216*
X243264Y76708D03*
D125*
X230104Y76708D03*
D227*
X218285Y76708D03*
D107*
X165563Y76708D03*
D122*
X134298Y76708D03*
X73780Y76708D03*
D350*
X243180Y76876D03*
D351*
X230104Y76876D03*
D302*
X218453Y76876D03*
D83*
X165563Y76876D03*
D116*
X134298Y76876D03*
X73780Y76876D03*
D352*
X243096Y77043D03*
D120*
X229936Y77043D03*
D87*
X218621Y77043D03*
D107*
X165563Y77043D03*
D122*
X134298Y77043D03*
X73780Y77043D03*
D352*
X243096Y77211D03*
D211*
X230020Y77211D03*
D87*
X218621Y77211D03*
D107*
X165563Y77211D03*
D122*
X134298Y77211D03*
X73780Y77211D03*
D353*
X242928Y77379D03*
D114*
X230020Y77379D03*
D180*
X218872Y77379D03*
D83*
X165563Y77379D03*
D116*
X134298Y77379D03*
X73780Y77379D03*
D141*
X242844Y77546D03*
D79*
X229853Y77546D03*
D354*
X218956Y77546D03*
D107*
X165563Y77546D03*
D122*
X134298Y77546D03*
X73780Y77546D03*
D184*
X242761Y77714D03*
D79*
X229853Y77714D03*
D176*
X219040Y77714D03*
D107*
X165563Y77714D03*
D122*
X134298Y77714D03*
X73780Y77714D03*
D175*
X242677Y77882D03*
D51*
X229852Y77882D03*
D90*
X219291Y77882D03*
D105*
X212502Y77882D03*
D83*
X165563Y77882D03*
D116*
X134298Y77882D03*
X73780Y77882D03*
D352*
X242593Y78049D03*
D335*
X229685Y78049D03*
D124*
X219459Y78049D03*
D140*
X212418Y78049D03*
D107*
X165563Y78049D03*
D86*
X134214Y78049D03*
D122*
X73780Y78049D03*
D208*
X242509Y78217D03*
D335*
X229685Y78217D03*
D124*
X219459Y78217D03*
D146*
X212334Y78217D03*
D107*
X165563Y78217D03*
D86*
X134214Y78217D03*
D122*
X73780Y78217D03*
D175*
X242342Y78385D03*
D339*
X229685Y78385D03*
D111*
X219710Y78385D03*
D163*
X212334Y78385D03*
D83*
X165563Y78385D03*
D215*
X134214Y78385D03*
D116*
X73780Y78385D03*
D179*
X242174Y78552D03*
D85*
X229601Y78552D03*
D54*
X219962Y78552D03*
D87*
X212418Y78552D03*
D107*
X165563Y78552D03*
D124*
X133963Y78552D03*
D122*
X73780Y78552D03*
D179*
X242174Y78720D03*
D136*
X229517Y78720D03*
D86*
X220045Y78720D03*
D349*
X212334Y78720D03*
D107*
X165563Y78720D03*
D179*
X132035Y78720D03*
D122*
X73780Y78720D03*
D145*
X242006Y78888D03*
D355*
X229517Y78888D03*
D356*
X215519Y78888D03*
D83*
X165563Y78888D03*
D175*
X132035Y78888D03*
D114*
X82329Y78888D03*
D116*
X73780Y78888D03*
D179*
X241839Y79055D03*
D357*
X229517Y79055D03*
D358*
X215268Y79055D03*
D107*
X165563Y79055D03*
D179*
X132035Y79055D03*
D63*
X82329Y79055D03*
D167*
X241755Y79223D03*
D31*
X229434Y79223D03*
D248*
X215268Y79223D03*
D83*
X165563Y79223D03*
D175*
X132035Y79223D03*
D114*
X82329Y79223D03*
D204*
X241587Y79390D03*
D359*
X229350Y79390D03*
D262*
X215184Y79390D03*
D107*
X165563Y79390D03*
D137*
X131951Y79390D03*
D63*
X82329Y79390D03*
D179*
X241336Y79558D03*
D359*
X229350Y79558D03*
D270*
X215016Y79558D03*
D107*
X165563Y79558D03*
D137*
X131951Y79558D03*
D63*
X82329Y79558D03*
D167*
X241252Y79726D03*
D74*
X229349Y79726D03*
D360*
X215016Y79726D03*
D83*
X165563Y79726D03*
D167*
X131951Y79726D03*
D114*
X82329Y79726D03*
D137*
X241085Y79893D03*
D361*
X229349Y79893D03*
D284*
X214848Y79893D03*
D107*
X165563Y79893D03*
D137*
X131951Y79893D03*
D63*
X82329Y79893D03*
D137*
X240917Y80061D03*
D106*
X229266Y80061D03*
D272*
X214765Y80061D03*
D107*
X165563Y80061D03*
D137*
X131951Y80061D03*
D63*
X82329Y80061D03*
D167*
X240749Y80229D03*
D43*
X229182Y80229D03*
D268*
X214765Y80229D03*
D83*
X165563Y80229D03*
D167*
X131951Y80229D03*
D114*
X82329Y80229D03*
D137*
X240582Y80396D03*
D37*
X229182Y80396D03*
D292*
X214681Y80396D03*
D107*
X165563Y80396D03*
D362*
X131867Y80396D03*
D63*
X82329Y80396D03*
D362*
X240330Y80564D03*
D37*
X229182Y80564D03*
D182*
X214681Y80564D03*
D107*
X165563Y80564D03*
D362*
X131867Y80564D03*
D63*
X82329Y80564D03*
D167*
X240246Y80732D03*
D32*
X229098Y80732D03*
D185*
X214681Y80732D03*
D83*
X165563Y80732D03*
D363*
X131783Y80732D03*
D114*
X82329Y80732D03*
D362*
X239995Y80899D03*
D109*
X229014Y80899D03*
D364*
X214597Y80899D03*
D107*
X165563Y80899D03*
D149*
X131783Y80899D03*
D63*
X82329Y80899D03*
D157*
X239659Y81067D03*
D365*
X229014Y81067D03*
D366*
X214597Y81067D03*
D83*
X165563Y81067D03*
D363*
X131783Y81067D03*
D114*
X82329Y81067D03*
D149*
X239575Y81234D03*
D109*
X229014Y81234D03*
D367*
X214513Y81234D03*
D107*
X165563Y81234D03*
D138*
X131699Y81234D03*
D63*
X82329Y81234D03*
D149*
X239240Y81402D03*
D368*
X228930Y81402D03*
D369*
X214597Y81402D03*
D107*
X165563Y81402D03*
D138*
X131699Y81402D03*
D63*
X82329Y81402D03*
D363*
X238905Y81570D03*
D74*
X228846Y81570D03*
D370*
X214597Y81570D03*
D83*
X165563Y81570D03*
D50*
X131615Y81570D03*
D114*
X82329Y81570D03*
D55*
X238737Y81737D03*
D359*
X228679Y81737D03*
D371*
X214681Y81737D03*
D107*
X165563Y81737D03*
D96*
X131532Y81737D03*
D63*
X82329Y81737D03*
D138*
X238318Y81905D03*
D372*
X216693Y81905D03*
D107*
X165563Y81905D03*
D95*
X131448Y81905D03*
D63*
X82329Y81905D03*
D60*
X237815Y82073D03*
D373*
X216609Y82073D03*
D83*
X165563Y82073D03*
D374*
X131364Y82073D03*
D114*
X82329Y82073D03*
D96*
X237648Y82240D03*
D375*
X216609Y82240D03*
D107*
X165563Y82240D03*
D131*
X131280Y82240D03*
D63*
X82329Y82240D03*
D328*
X236977Y82408D03*
D376*
X216609Y82408D03*
D107*
X165563Y82408D03*
D189*
X131196Y82408D03*
D63*
X82329Y82408D03*
D377*
X222812Y82576D03*
D83*
X165563Y82576D03*
D194*
X131029Y82576D03*
D114*
X82329Y82576D03*
D378*
X223147Y82743D03*
D107*
X165563Y82743D03*
D343*
X131029Y82743D03*
D63*
X82329Y82743D03*
D379*
X223398Y82911D03*
D107*
X165563Y82911D03*
D227*
X130777Y82911D03*
D63*
X82329Y82911D03*
D380*
X223566Y83079D03*
D83*
X165563Y83079D03*
D180*
X130526Y83079D03*
D114*
X82329Y83079D03*
D381*
X223650Y83246D03*
D107*
X165563Y83246D03*
D354*
X130442Y83246D03*
D63*
X82329Y83246D03*
D382*
X223817Y83414D03*
D83*
X165563Y83414D03*
D114*
X129771Y83414D03*
X82329Y83414D03*
D383*
X223818Y83581D03*
D384*
X223817Y83749D03*
D385*
X235049Y83917D03*
D386*
X210909Y83917D03*
D387*
X235971Y84084D03*
D182*
X209819Y84084D03*
D387*
X236139Y84252D03*
D178*
X209484Y84252D03*
D388*
X236558Y84420D03*
D293*
X208981Y84420D03*
D389*
X236726Y84587D03*
D289*
X208814Y84587D03*
D387*
X236977Y84755D03*
D272*
X208395Y84755D03*
D390*
X237145Y84923D03*
D269*
X207976Y84923D03*
D333*
X237229Y85090D03*
D273*
X207808Y85090D03*
D391*
X237396Y85258D03*
D286*
X207556Y85258D03*
D329*
X237480Y85425D03*
D306*
X207221Y85425D03*
D327*
X237564Y85593D03*
D304*
X207137Y85593D03*
D242*
X242174Y85761D03*
D163*
X228428Y85761D03*
D268*
X206886Y85761D03*
D235*
X242593Y85928D03*
D210*
X228260Y85928D03*
D304*
X206634Y85928D03*
D392*
X242845Y86096D03*
D211*
X228176Y86096D03*
D272*
X206551Y86096D03*
D393*
X243180Y86264D03*
D163*
X227925Y86264D03*
D290*
X206383Y86264D03*
D394*
X243515Y86431D03*
D124*
X227841Y86431D03*
D258*
X206215Y86431D03*
D395*
X243683Y86599D03*
D314*
X227757Y86599D03*
D292*
X206131Y86599D03*
D396*
X244018Y86767D03*
D311*
X227589Y86767D03*
D186*
X206048Y86767D03*
D345*
X244270Y86934D03*
D87*
X227338Y86934D03*
D198*
X205964Y86934D03*
D297*
X244353Y87102D03*
D227*
X227338Y87102D03*
D397*
X205964Y87102D03*
D398*
X244605Y87270D03*
D399*
X227170Y87270D03*
D400*
X205880Y87270D03*
D297*
X244856Y87437D03*
D95*
X226835Y87437D03*
D401*
X206048Y87437D03*
D402*
X244940Y87605D03*
D363*
X226667Y87605D03*
D403*
X206048Y87605D03*
D228*
X245191Y87772D03*
D404*
X226164Y87772D03*
D371*
X206299Y87772D03*
D228*
X245359Y87940D03*
D20*
X230104Y87940D03*
D405*
X211077Y87940D03*
D406*
X245443Y88108D03*
D407*
X230188Y88108D03*
D408*
X210826Y88108D03*
D238*
X245611Y88275D03*
D129*
X230355Y88275D03*
D409*
X210574Y88275D03*
D410*
X245862Y88443D03*
D359*
X230691Y88443D03*
D411*
X210490Y88443D03*
D172*
X245862Y88611D03*
D407*
X230691Y88611D03*
D412*
X210406Y88611D03*
D410*
X246030Y88778D03*
D20*
X230775Y88778D03*
D409*
X210239Y88778D03*
D410*
X246198Y88946D03*
D77*
X231026Y88946D03*
D413*
X210155Y88946D03*
D226*
X246281Y89114D03*
D414*
X231110Y89114D03*
D415*
X210155Y89114D03*
D410*
X246365Y89281D03*
D85*
X231277Y89281D03*
D411*
X209987Y89281D03*
D416*
X246532Y89449D03*
D339*
X231529Y89449D03*
D417*
X209987Y89449D03*
D418*
X246616Y89616D03*
D419*
X231613Y89616D03*
D420*
X209903Y89616D03*
D228*
X246700Y89784D03*
D146*
X231780Y89784D03*
D421*
X209819Y89784D03*
D416*
X246700Y89952D03*
D42*
X232032Y89952D03*
D422*
X209819Y89952D03*
D240*
X246784Y90119D03*
D79*
X232200Y90119D03*
D423*
X209903Y90119D03*
D229*
X246868Y90287D03*
D86*
X232451Y90287D03*
D424*
X209820Y90287D03*
D396*
X246868Y90455D03*
D301*
X232703Y90455D03*
D425*
X209820Y90455D03*
D426*
X246868Y90622D03*
D123*
X232786Y90622D03*
D424*
X209820Y90622D03*
D427*
X246700Y90790D03*
D197*
X233205Y90790D03*
D428*
X209736Y90790D03*
D429*
X241839Y90958D03*
D430*
X209819Y90958D03*
D431*
X241839Y91125D03*
D432*
X209903Y91125D03*
D433*
X241923Y91293D03*
D434*
X209820Y91293D03*
D435*
X242007Y91461D03*
D436*
X209904Y91461D03*
D437*
X242090Y91628D03*
D438*
X209987Y91628D03*
D439*
X242174Y91796D03*
D440*
X210155Y91796D03*
D441*
X242174Y91963D03*
D442*
X210323Y91963D03*
D443*
X242258Y92131D03*
D444*
X210322Y92131D03*
D445*
X242342Y92299D03*
D446*
X210574Y92299D03*
D447*
X242426Y92466D03*
D448*
X210825Y92466D03*
D449*
X242342Y92634D03*
D375*
X211077Y92634D03*
D450*
X242425Y92802D03*
D451*
X211328Y92802D03*
D452*
X242509Y92969D03*
D453*
X211664Y92969D03*
D452*
X242509Y93137D03*
X211831Y93137D03*
D454*
X242593Y93305D03*
D455*
X212166Y93305D03*
D456*
X242593Y93472D03*
D323*
X212502Y93472D03*
D457*
X242677Y93640D03*
D325*
X212669Y93640D03*
D458*
X242677Y93807D03*
D459*
X212921Y93807D03*
D460*
X242761Y93975D03*
D79*
X222309Y93975D03*
D274*
X209987Y93975D03*
D373*
X242761Y94143D03*
D461*
X213424Y94143D03*
D462*
X242845Y94310D03*
D63*
X222141Y94310D03*
D251*
X210406Y94310D03*
D462*
X242845Y94478D03*
D86*
X222057Y94478D03*
D463*
X210490Y94478D03*
D464*
X242929Y94646D03*
D193*
X221973Y94646D03*
D393*
X210658Y94646D03*
D465*
X242928Y94813D03*
D210*
X221890Y94813D03*
D297*
X210825Y94813D03*
D465*
X242928Y94981D03*
D210*
X221890Y94981D03*
D418*
X210909Y94981D03*
D466*
X242928Y95149D03*
D301*
X221806Y95149D03*
D166*
X211077Y95149D03*
D467*
X243012Y95316D03*
D314*
X221722Y95316D03*
D148*
X211161Y95316D03*
D468*
X243012Y95484D03*
D314*
X221722Y95484D03*
D404*
X211244Y95484D03*
D469*
X243012Y95652D03*
D311*
X221722Y95652D03*
D363*
X211412Y95652D03*
D444*
X243012Y95819D03*
D121*
X221638Y95819D03*
D189*
X211496Y95819D03*
D470*
X243096Y95987D03*
D225*
X221638Y95987D03*
D128*
X211580Y95987D03*
D471*
X243096Y96154D03*
D472*
X221554Y96154D03*
D125*
X211663Y96154D03*
D473*
X243096Y96322D03*
D94*
X221554Y96322D03*
D46*
X211747Y96322D03*
D474*
X246533Y96490D03*
D49*
X231026Y96490D03*
D126*
X221638Y96490D03*
D221*
X211747Y96490D03*
D475*
X246700Y96657D03*
D123*
X230942Y96657D03*
D227*
X221638Y96657D03*
D340*
X246784Y96825D03*
D206*
X230858Y96825D03*
D205*
X221638Y96825D03*
D474*
X246868Y96993D03*
D225*
X230858Y96993D03*
D194*
X221722Y96993D03*
D389*
X246952Y97160D03*
D263*
X225913Y97160D03*
D475*
X247203Y97328D03*
D263*
X225913Y97328D03*
D388*
X247287Y97496D03*
D476*
X225913Y97496D03*
D344*
X247371Y97663D03*
D285*
X225913Y97663D03*
D477*
X247538Y97831D03*
D266*
X225913Y97831D03*
D475*
X247538Y97998D03*
D285*
X225913Y97998D03*
D475*
X247706Y98166D03*
D275*
X225997Y98166D03*
D474*
X247874Y98334D03*
D478*
X225913Y98334D03*
D479*
X247958Y98501D03*
D274*
X225913Y98501D03*
D480*
X248042Y98669D03*
D284*
X225913Y98669D03*
D481*
X248209Y98837D03*
D279*
X225913Y98837D03*
D482*
X248293Y99004D03*
D284*
X225913Y99004D03*
D371*
X248376Y99172D03*
D284*
X225913Y99172D03*
D483*
X248544Y99340D03*
D279*
X225913Y99340D03*
D484*
X248628Y99507D03*
D284*
X225913Y99507D03*
D485*
X248796Y99675D03*
D284*
X225913Y99675D03*
D486*
X248879Y99843D03*
D286*
X225829Y99843D03*
D369*
X248963Y100010D03*
D306*
X225829Y100010D03*
D386*
X249131Y100178D03*
D269*
X225913Y100178D03*
D487*
X249215Y100345D03*
D273*
X225913Y100345D03*
D488*
X249299Y100513D03*
D273*
X225913Y100513D03*
D195*
X249466Y100681D03*
D269*
X225913Y100681D03*
D170*
X249634Y100848D03*
D273*
X225913Y100848D03*
D258*
X249801Y101016D03*
D273*
X225913Y101016D03*
D286*
X249969Y101184D03*
X225829Y101184D03*
D285*
X250221Y101351D03*
D306*
X225829Y101351D03*
D262*
X250389Y101519D03*
D306*
X225829Y101519D03*
D489*
X250640Y101687D03*
D286*
X225829Y101687D03*
D169*
X251227Y101854D03*
D306*
X225829Y101854D03*
D286*
X225829Y102022D03*
D306*
X225829Y102189D03*
X225829Y102357D03*
D286*
X225829Y102525D03*
D306*
X225829Y102692D03*
D282*
X225829Y102860D03*
D280*
X225829Y103028D03*
D282*
X225829Y103195D03*
D283*
X225745Y103363D03*
D287*
X225745Y103531D03*
D283*
X225745Y103698D03*
X225745Y103866D03*
D278*
X225662Y104034D03*
D270*
X225745Y104201D03*
D360*
X225745Y104369D03*
D270*
X225745Y104536D03*
D263*
X225745Y104704D03*
D476*
X225745Y104872D03*
D490*
X225661Y105039D03*
X225661Y105207D03*
D260*
X225661Y105375D03*
D252*
X225662Y105542D03*
X225662Y105710D03*
D491*
X225578Y105878D03*
D246*
X225494Y106045D03*
D492*
X225578Y106213D03*
D330*
X225578Y106380D03*
D241*
X225578Y106548D03*
D242*
X225578Y106716D03*
D239*
X225494Y106883D03*
D493*
X225494Y107051D03*
D494*
X225494Y107219D03*
D392*
X225410Y107386D03*
X225410Y107554D03*
D393*
X225410Y107722D03*
D243*
X225326Y107889D03*
D394*
X225410Y108057D03*
D495*
X225326Y108225D03*
D231*
X225326Y108392D03*
D230*
X225159Y108560D03*
D297*
X225242Y108727D03*
D240*
X225158Y108895D03*
D416*
X225242Y109063D03*
D410*
X225075Y109230D03*
X225075Y109398D03*
D496*
X225075Y109566D03*
D169*
X225075Y109733D03*
D160*
X224991Y109901D03*
D497*
X224907Y110069D03*
D161*
X224907Y110236D03*
D320*
X224907Y110404D03*
D152*
X224907Y110571D03*
D219*
X224823Y110739D03*
D498*
X224823Y110907D03*
D147*
X224739Y111074D03*
D348*
X224740Y111242D03*
D144*
X224656Y111410D03*
D216*
X224656Y111577D03*
D352*
X224655Y111745D03*
D353*
X224655Y111913D03*
D362*
X224572Y112080D03*
X224572Y112248D03*
D363*
X224488Y112416D03*
D149*
X224488Y112583D03*
D133*
X224404Y112751D03*
D57*
X224404Y112918D03*
D95*
X224321Y113086D03*
D135*
X224321Y113254D03*
D131*
X224320Y113421D03*
D189*
X224236Y113589D03*
D399*
X224320Y113757D03*
D343*
X224237Y113924D03*
D205*
X224153Y114092D03*
D499*
X224069Y114260D03*
D227*
X224152Y114427D03*
D500*
X224069Y114595D03*
D501*
X224069Y114762D03*
D121*
X223985Y114930D03*
D225*
X223985Y115098D03*
D125*
X223901Y115265D03*
D206*
X223985Y115433D03*
D301*
X223818Y115601D03*
D124*
X223818Y115768D03*
D211*
X223817Y115936D03*
D215*
X223733Y116104D03*
D86*
X223733Y116271D03*
D122*
X223650Y116439D03*
D91*
X223650Y116607D03*
D22*
X223566Y116774D03*
D42*
X223650Y116942D03*
D146*
X223566Y117109D03*
X223566Y117277D03*
D339*
X223482Y117445D03*
D140*
X223482Y117612D03*
D85*
X223398Y117780D03*
D221*
X223482Y117948D03*
D20*
X223399Y118115D03*
X223399Y118283D03*
D110*
X223398Y118451D03*
D361*
X223314Y118618D03*
D43*
X223315Y118786D03*
D16*
X223314Y118953D03*
D502*
X223398Y119121D03*
D58*
X223398Y119289D03*
M02*
