<?xml version="1.0" standalone="no"?>
 <!DOCTYPE svg PUBLIC "-//W3C//DTD SVG 1.1//EN" 
 "http://www.w3.org/Graphics/SVG/1.1/DTD/svg11.dtd"> 
<svg
  xmlns:svg="http://www.w3.org/2000/svg"
  xmlns="http://www.w3.org/2000/svg"
  xmlns:xlink="http://www.w3.org/1999/xlink"
  version="1.1"
  width="29.700220cm" height="21.000720cm" viewBox="0 0 297002200 210007200">
<title>SVG Picture created as boardKicad-User_Comments.svg date 2022/08/21 15:29:24 </title>
  <desc>Picture generated by PCBNEW </desc>
<g style="fill:#000000; fill-opacity:1.000000;stroke:#000000; stroke-opacity:1.000000;
stroke-linecap:round; stroke-linejoin:round;"
 transform="translate(0 0) scale(1 1)">
</g>
<g style="fill:#000000; fill-opacity:0.0; 
stroke:#000000; stroke-width:0.000000; stroke-opacity:1; 
stroke-linecap:round; stroke-linejoin:round;">
</g>
<g style="fill:#000000; fill-opacity:0.0; 
stroke:#000000; stroke-width:21200.000000; stroke-opacity:1; 
stroke-linecap:round; stroke-linejoin:round;">
</g>
<g style="fill:#000000; fill-opacity:0.0; 
stroke:#000000; stroke-width:150000.000000; stroke-opacity:1; 
stroke-linecap:round; stroke-linejoin:round;">
<rect x="177002200.000000" y="166007200.000000" width="108000000.000000" height="32000000.000000" rx="0.000000" />
</g>
<g style="fill:#000000; fill-opacity:0.0; 
stroke:#000000; stroke-width:21200.000000; stroke-opacity:1; 
stroke-linecap:round; stroke-linejoin:round;">
</g>
<g style="fill:#000000; fill-opacity:0.0; 
stroke:#000000; stroke-width:150000.000000; stroke-opacity:1; 
stroke-linecap:round; stroke-linejoin:round;">
<rect x="10000000.000000" y="10000000.000000" width="277002200.000000" height="190007200.000000" rx="0.000000" />
</g>
<g style="fill:#000000; fill-opacity:0.0; 
stroke:#000000; stroke-width:21200.000000; stroke-opacity:1; 
stroke-linecap:round; stroke-linejoin:round;">
</g>
<g style="fill:#000000; fill-opacity:0.0; 
stroke:#000000; stroke-width:150000.000000; stroke-opacity:1; 
stroke-linecap:round; stroke-linejoin:round;">
<rect x="12000000.000000" y="12000000.000000" width="273002200.000000" height="186007200.000000" rx="0.000000" />
</g>
<g style="fill:#000000; fill-opacity:0.0; 
stroke:#000000; stroke-width:21200.000000; stroke-opacity:1; 
stroke-linecap:round; stroke-linejoin:round;">
</g>
<g style="fill:#000000; fill-opacity:0.0; 
stroke:#000000; stroke-width:150000.000000; stroke-opacity:1; 
stroke-linecap:round; stroke-linejoin:round;">
<path d="M60000000 12000000
L60000000 10000000
" />
</g>
<g style="fill:#000000; fill-opacity:0.0; 
stroke:#000000; stroke-width:21200.000000; stroke-opacity:1; 
stroke-linecap:round; stroke-linejoin:round;">
</g>
<g style="fill:#000000; fill-opacity:0.0; 
stroke:#000000; stroke-width:150000.000000; stroke-opacity:1; 
stroke-linecap:round; stroke-linejoin:round;">
<path d="M110000000 12000000
L110000000 10000000
" />
</g>
<g style="fill:#000000; fill-opacity:0.0; 
stroke:#000000; stroke-width:21200.000000; stroke-opacity:1; 
stroke-linecap:round; stroke-linejoin:round;">
</g>
<g style="fill:#000000; fill-opacity:0.0; 
stroke:#000000; stroke-width:150000.000000; stroke-opacity:1; 
stroke-linecap:round; stroke-linejoin:round;">
<path d="M160000000 12000000
L160000000 10000000
" />
</g>
<g style="fill:#000000; fill-opacity:0.0; 
stroke:#000000; stroke-width:21200.000000; stroke-opacity:1; 
stroke-linecap:round; stroke-linejoin:round;">
</g>
<g style="fill:#000000; fill-opacity:0.0; 
stroke:#000000; stroke-width:150000.000000; stroke-opacity:1; 
stroke-linecap:round; stroke-linejoin:round;">
<path d="M210000000 12000000
L210000000 10000000
" />
</g>
<g style="fill:#000000; fill-opacity:0.0; 
stroke:#000000; stroke-width:21200.000000; stroke-opacity:1; 
stroke-linecap:round; stroke-linejoin:round;">
</g>
<g style="fill:#000000; fill-opacity:0.0; 
stroke:#000000; stroke-width:150000.000000; stroke-opacity:1; 
stroke-linecap:round; stroke-linejoin:round;">
<path d="M260000000 12000000
L260000000 10000000
" />
</g>
<g style="fill:#000000; fill-opacity:0.0; 
stroke:#000000; stroke-width:21200.000000; stroke-opacity:1; 
stroke-linecap:round; stroke-linejoin:round;">
</g>
<g style="fill:#000000; fill-opacity:0.0; 
stroke:#000000; stroke-width:150000.000000; stroke-opacity:1; 
stroke-linecap:round; stroke-linejoin:round;">
<text x="35000000.000000" y="11650000.000000"
textLength="1388095.000000" font-size="1733333.000000" lengthAdjust="spacingAndGlyphs"
text-anchor="start" opacity="0">1</text>
<g class="stroked-text"><desc>1</desc>
<path d="M36065476 11588095
L35322619 11588095
" />
<path d="M35694047 11588095
L35694047 10288095
L35570238 10473809
L35446428 10597619
L35322619 10659523
" />
</g></g>
<g style="fill:#000000; fill-opacity:0.0; 
stroke:#000000; stroke-width:21200.000000; stroke-opacity:1; 
stroke-linecap:round; stroke-linejoin:round;">
</g>
<g style="fill:#000000; fill-opacity:0.0; 
stroke:#000000; stroke-width:150000.000000; stroke-opacity:1; 
stroke-linecap:round; stroke-linejoin:round;">
<text x="85000000.000000" y="11650000.000000"
textLength="1388095.000000" font-size="1733333.000000" lengthAdjust="spacingAndGlyphs"
text-anchor="start" opacity="0">2</text>
<g class="stroked-text"><desc>2</desc>
<path d="M85322619 10411904
L85384523 10350000
L85508333 10288095
L85817857 10288095
L85941666 10350000
L86003571 10411904
L86065476 10535714
L86065476 10659523
L86003571 10845238
L85260714 11588095
L86065476 11588095
" />
</g></g>
<g style="fill:#000000; fill-opacity:0.0; 
stroke:#000000; stroke-width:21200.000000; stroke-opacity:1; 
stroke-linecap:round; stroke-linejoin:round;">
</g>
<g style="fill:#000000; fill-opacity:0.0; 
stroke:#000000; stroke-width:150000.000000; stroke-opacity:1; 
stroke-linecap:round; stroke-linejoin:round;">
<text x="135000000.000000" y="11650000.000000"
textLength="1388095.000000" font-size="1733333.000000" lengthAdjust="spacingAndGlyphs"
text-anchor="start" opacity="0">3</text>
<g class="stroked-text"><desc>3</desc>
<path d="M135260714 10288095
L136065476 10288095
L135632142 10783333
L135817857 10783333
L135941666 10845238
L136003571 10907142
L136065476 11030952
L136065476 11340476
L136003571 11464285
L135941666 11526190
L135817857 11588095
L135446428 11588095
L135322619 11526190
L135260714 11464285
" />
</g></g>
<g style="fill:#000000; fill-opacity:0.0; 
stroke:#000000; stroke-width:21200.000000; stroke-opacity:1; 
stroke-linecap:round; stroke-linejoin:round;">
</g>
<g style="fill:#000000; fill-opacity:0.0; 
stroke:#000000; stroke-width:150000.000000; stroke-opacity:1; 
stroke-linecap:round; stroke-linejoin:round;">
<text x="185000000.000000" y="11650000.000000"
textLength="1388095.000000" font-size="1733333.000000" lengthAdjust="spacingAndGlyphs"
text-anchor="start" opacity="0">4</text>
<g class="stroked-text"><desc>4</desc>
<path d="M185941666 10721428
L185941666 11588095
" />
<path d="M185632142 10226190
L185322619 11154761
L186127380 11154761
" />
</g></g>
<g style="fill:#000000; fill-opacity:0.0; 
stroke:#000000; stroke-width:21200.000000; stroke-opacity:1; 
stroke-linecap:round; stroke-linejoin:round;">
</g>
<g style="fill:#000000; fill-opacity:0.0; 
stroke:#000000; stroke-width:150000.000000; stroke-opacity:1; 
stroke-linecap:round; stroke-linejoin:round;">
<text x="235000000.000000" y="11650000.000000"
textLength="1388095.000000" font-size="1733333.000000" lengthAdjust="spacingAndGlyphs"
text-anchor="start" opacity="0">5</text>
<g class="stroked-text"><desc>5</desc>
<path d="M236003571 10288095
L235384523 10288095
L235322619 10907142
L235384523 10845238
L235508333 10783333
L235817857 10783333
L235941666 10845238
L236003571 10907142
L236065476 11030952
L236065476 11340476
L236003571 11464285
L235941666 11526190
L235817857 11588095
L235508333 11588095
L235384523 11526190
L235322619 11464285
" />
</g></g>
<g style="fill:#000000; fill-opacity:0.0; 
stroke:#000000; stroke-width:21200.000000; stroke-opacity:1; 
stroke-linecap:round; stroke-linejoin:round;">
</g>
<g style="fill:#000000; fill-opacity:0.0; 
stroke:#000000; stroke-width:150000.000000; stroke-opacity:1; 
stroke-linecap:round; stroke-linejoin:round;">
<text x="285000000.000000" y="11650000.000000"
textLength="1388095.000000" font-size="1733333.000000" lengthAdjust="spacingAndGlyphs"
text-anchor="start" opacity="0">6</text>
<g class="stroked-text"><desc>6</desc>
<path d="M285941666 10288095
L285694047 10288095
L285570238 10350000
L285508333 10411904
L285384523 10597619
L285322619 10845238
L285322619 11340476
L285384523 11464285
L285446428 11526190
L285570238 11588095
L285817857 11588095
L285941666 11526190
L286003571 11464285
L286065476 11340476
L286065476 11030952
L286003571 10907142
L285941666 10845238
L285817857 10783333
L285570238 10783333
L285446428 10845238
L285384523 10907142
L285322619 11030952
" />
</g></g>
<g style="fill:#000000; fill-opacity:0.0; 
stroke:#000000; stroke-width:21200.000000; stroke-opacity:1; 
stroke-linecap:round; stroke-linejoin:round;">
</g>
<g style="fill:#000000; fill-opacity:0.0; 
stroke:#000000; stroke-width:150000.000000; stroke-opacity:1; 
stroke-linecap:round; stroke-linejoin:round;">
<path d="M60000000 198007200
L60000000 200007200
" />
</g>
<g style="fill:#000000; fill-opacity:0.0; 
stroke:#000000; stroke-width:21200.000000; stroke-opacity:1; 
stroke-linecap:round; stroke-linejoin:round;">
</g>
<g style="fill:#000000; fill-opacity:0.0; 
stroke:#000000; stroke-width:150000.000000; stroke-opacity:1; 
stroke-linecap:round; stroke-linejoin:round;">
<path d="M110000000 198007200
L110000000 200007200
" />
</g>
<g style="fill:#000000; fill-opacity:0.0; 
stroke:#000000; stroke-width:21200.000000; stroke-opacity:1; 
stroke-linecap:round; stroke-linejoin:round;">
</g>
<g style="fill:#000000; fill-opacity:0.0; 
stroke:#000000; stroke-width:150000.000000; stroke-opacity:1; 
stroke-linecap:round; stroke-linejoin:round;">
<path d="M160000000 198007200
L160000000 200007200
" />
</g>
<g style="fill:#000000; fill-opacity:0.0; 
stroke:#000000; stroke-width:21200.000000; stroke-opacity:1; 
stroke-linecap:round; stroke-linejoin:round;">
</g>
<g style="fill:#000000; fill-opacity:0.0; 
stroke:#000000; stroke-width:150000.000000; stroke-opacity:1; 
stroke-linecap:round; stroke-linejoin:round;">
<path d="M210000000 198007200
L210000000 200007200
" />
</g>
<g style="fill:#000000; fill-opacity:0.0; 
stroke:#000000; stroke-width:21200.000000; stroke-opacity:1; 
stroke-linecap:round; stroke-linejoin:round;">
</g>
<g style="fill:#000000; fill-opacity:0.0; 
stroke:#000000; stroke-width:150000.000000; stroke-opacity:1; 
stroke-linecap:round; stroke-linejoin:round;">
<path d="M260000000 198007200
L260000000 200007200
" />
</g>
<g style="fill:#000000; fill-opacity:0.0; 
stroke:#000000; stroke-width:21200.000000; stroke-opacity:1; 
stroke-linecap:round; stroke-linejoin:round;">
</g>
<g style="fill:#000000; fill-opacity:0.0; 
stroke:#000000; stroke-width:150000.000000; stroke-opacity:1; 
stroke-linecap:round; stroke-linejoin:round;">
<text x="35000000.000000" y="199657200.000000"
textLength="1388095.000000" font-size="1733333.000000" lengthAdjust="spacingAndGlyphs"
text-anchor="start" opacity="0">1</text>
<g class="stroked-text"><desc>1</desc>
<path d="M36065476 199595295
L35322619 199595295
" />
<path d="M35694047 199595295
L35694047 198295295
L35570238 198481009
L35446428 198604819
L35322619 198666723
" />
</g></g>
<g style="fill:#000000; fill-opacity:0.0; 
stroke:#000000; stroke-width:21200.000000; stroke-opacity:1; 
stroke-linecap:round; stroke-linejoin:round;">
</g>
<g style="fill:#000000; fill-opacity:0.0; 
stroke:#000000; stroke-width:150000.000000; stroke-opacity:1; 
stroke-linecap:round; stroke-linejoin:round;">
<text x="85000000.000000" y="199657200.000000"
textLength="1388095.000000" font-size="1733333.000000" lengthAdjust="spacingAndGlyphs"
text-anchor="start" opacity="0">2</text>
<g class="stroked-text"><desc>2</desc>
<path d="M85322619 198419104
L85384523 198357200
L85508333 198295295
L85817857 198295295
L85941666 198357200
L86003571 198419104
L86065476 198542914
L86065476 198666723
L86003571 198852438
L85260714 199595295
L86065476 199595295
" />
</g></g>
<g style="fill:#000000; fill-opacity:0.0; 
stroke:#000000; stroke-width:21200.000000; stroke-opacity:1; 
stroke-linecap:round; stroke-linejoin:round;">
</g>
<g style="fill:#000000; fill-opacity:0.0; 
stroke:#000000; stroke-width:150000.000000; stroke-opacity:1; 
stroke-linecap:round; stroke-linejoin:round;">
<text x="135000000.000000" y="199657200.000000"
textLength="1388095.000000" font-size="1733333.000000" lengthAdjust="spacingAndGlyphs"
text-anchor="start" opacity="0">3</text>
<g class="stroked-text"><desc>3</desc>
<path d="M135260714 198295295
L136065476 198295295
L135632142 198790533
L135817857 198790533
L135941666 198852438
L136003571 198914342
L136065476 199038152
L136065476 199347676
L136003571 199471485
L135941666 199533390
L135817857 199595295
L135446428 199595295
L135322619 199533390
L135260714 199471485
" />
</g></g>
<g style="fill:#000000; fill-opacity:0.0; 
stroke:#000000; stroke-width:21200.000000; stroke-opacity:1; 
stroke-linecap:round; stroke-linejoin:round;">
</g>
<g style="fill:#000000; fill-opacity:0.0; 
stroke:#000000; stroke-width:150000.000000; stroke-opacity:1; 
stroke-linecap:round; stroke-linejoin:round;">
<text x="185000000.000000" y="199657200.000000"
textLength="1388095.000000" font-size="1733333.000000" lengthAdjust="spacingAndGlyphs"
text-anchor="start" opacity="0">4</text>
<g class="stroked-text"><desc>4</desc>
<path d="M185941666 198728628
L185941666 199595295
" />
<path d="M185632142 198233390
L185322619 199161961
L186127380 199161961
" />
</g></g>
<g style="fill:#000000; fill-opacity:0.0; 
stroke:#000000; stroke-width:21200.000000; stroke-opacity:1; 
stroke-linecap:round; stroke-linejoin:round;">
</g>
<g style="fill:#000000; fill-opacity:0.0; 
stroke:#000000; stroke-width:150000.000000; stroke-opacity:1; 
stroke-linecap:round; stroke-linejoin:round;">
<text x="235000000.000000" y="199657200.000000"
textLength="1388095.000000" font-size="1733333.000000" lengthAdjust="spacingAndGlyphs"
text-anchor="start" opacity="0">5</text>
<g class="stroked-text"><desc>5</desc>
<path d="M236003571 198295295
L235384523 198295295
L235322619 198914342
L235384523 198852438
L235508333 198790533
L235817857 198790533
L235941666 198852438
L236003571 198914342
L236065476 199038152
L236065476 199347676
L236003571 199471485
L235941666 199533390
L235817857 199595295
L235508333 199595295
L235384523 199533390
L235322619 199471485
" />
</g></g>
<g style="fill:#000000; fill-opacity:0.0; 
stroke:#000000; stroke-width:21200.000000; stroke-opacity:1; 
stroke-linecap:round; stroke-linejoin:round;">
</g>
<g style="fill:#000000; fill-opacity:0.0; 
stroke:#000000; stroke-width:150000.000000; stroke-opacity:1; 
stroke-linecap:round; stroke-linejoin:round;">
<text x="285000000.000000" y="199657200.000000"
textLength="1388095.000000" font-size="1733333.000000" lengthAdjust="spacingAndGlyphs"
text-anchor="start" opacity="0">6</text>
<g class="stroked-text"><desc>6</desc>
<path d="M285941666 198295295
L285694047 198295295
L285570238 198357200
L285508333 198419104
L285384523 198604819
L285322619 198852438
L285322619 199347676
L285384523 199471485
L285446428 199533390
L285570238 199595295
L285817857 199595295
L285941666 199533390
L286003571 199471485
L286065476 199347676
L286065476 199038152
L286003571 198914342
L285941666 198852438
L285817857 198790533
L285570238 198790533
L285446428 198852438
L285384523 198914342
L285322619 199038152
" />
</g></g>
<g style="fill:#000000; fill-opacity:0.0; 
stroke:#000000; stroke-width:21200.000000; stroke-opacity:1; 
stroke-linecap:round; stroke-linejoin:round;">
</g>
<g style="fill:#000000; fill-opacity:0.0; 
stroke:#000000; stroke-width:150000.000000; stroke-opacity:1; 
stroke-linecap:round; stroke-linejoin:round;">
<path d="M10000000 60000000
L12000000 60000000
" />
</g>
<g style="fill:#000000; fill-opacity:0.0; 
stroke:#000000; stroke-width:21200.000000; stroke-opacity:1; 
stroke-linecap:round; stroke-linejoin:round;">
</g>
<g style="fill:#000000; fill-opacity:0.0; 
stroke:#000000; stroke-width:150000.000000; stroke-opacity:1; 
stroke-linecap:round; stroke-linejoin:round;">
<path d="M10000000 110000000
L12000000 110000000
" />
</g>
<g style="fill:#000000; fill-opacity:0.0; 
stroke:#000000; stroke-width:21200.000000; stroke-opacity:1; 
stroke-linecap:round; stroke-linejoin:round;">
</g>
<g style="fill:#000000; fill-opacity:0.0; 
stroke:#000000; stroke-width:150000.000000; stroke-opacity:1; 
stroke-linecap:round; stroke-linejoin:round;">
<path d="M10000000 160000000
L12000000 160000000
" />
</g>
<g style="fill:#000000; fill-opacity:0.0; 
stroke:#000000; stroke-width:21200.000000; stroke-opacity:1; 
stroke-linecap:round; stroke-linejoin:round;">
</g>
<g style="fill:#000000; fill-opacity:0.0; 
stroke:#000000; stroke-width:150000.000000; stroke-opacity:1; 
stroke-linecap:round; stroke-linejoin:round;">
<text x="11000000.000000" y="35650000.000000"
textLength="1264286.000000" font-size="1733333.000000" lengthAdjust="spacingAndGlyphs"
text-anchor="middle" opacity="0">A</text>
<g class="stroked-text"><desc>A</desc>
<path d="M10690476 35216666
L11309523 35216666
" />
<path d="M10566666 35588095
L11000000 34288095
L11433333 35588095
" />
</g></g>
<g style="fill:#000000; fill-opacity:0.0; 
stroke:#000000; stroke-width:21200.000000; stroke-opacity:1; 
stroke-linecap:round; stroke-linejoin:round;">
</g>
<g style="fill:#000000; fill-opacity:0.0; 
stroke:#000000; stroke-width:150000.000000; stroke-opacity:1; 
stroke-linecap:round; stroke-linejoin:round;">
<text x="11000000.000000" y="85650000.000000"
textLength="1450000.000000" font-size="1733333.000000" lengthAdjust="spacingAndGlyphs"
text-anchor="middle" opacity="0">B</text>
<g class="stroked-text"><desc>B</desc>
<path d="M11092857 84907142
L11278571 84969047
L11340476 85030952
L11402380 85154761
L11402380 85340476
L11340476 85464285
L11278571 85526190
L11154761 85588095
L10659523 85588095
L10659523 84288095
L11092857 84288095
L11216666 84350000
L11278571 84411904
L11340476 84535714
L11340476 84659523
L11278571 84783333
L11216666 84845238
L11092857 84907142
L10659523 84907142
" />
</g></g>
<g style="fill:#000000; fill-opacity:0.0; 
stroke:#000000; stroke-width:21200.000000; stroke-opacity:1; 
stroke-linecap:round; stroke-linejoin:round;">
</g>
<g style="fill:#000000; fill-opacity:0.0; 
stroke:#000000; stroke-width:150000.000000; stroke-opacity:1; 
stroke-linecap:round; stroke-linejoin:round;">
<text x="11000000.000000" y="135650000.000000"
textLength="1450000.000000" font-size="1733333.000000" lengthAdjust="spacingAndGlyphs"
text-anchor="middle" opacity="0">C</text>
<g class="stroked-text"><desc>C</desc>
<path d="M11402380 135464285
L11340476 135526190
L11154761 135588095
L11030952 135588095
L10845238 135526190
L10721428 135402380
L10659523 135278571
L10597619 135030952
L10597619 134845238
L10659523 134597619
L10721428 134473809
L10845238 134350000
L11030952 134288095
L11154761 134288095
L11340476 134350000
L11402380 134411904
" />
</g></g>
<g style="fill:#000000; fill-opacity:0.0; 
stroke:#000000; stroke-width:21200.000000; stroke-opacity:1; 
stroke-linecap:round; stroke-linejoin:round;">
</g>
<g style="fill:#000000; fill-opacity:0.0; 
stroke:#000000; stroke-width:150000.000000; stroke-opacity:1; 
stroke-linecap:round; stroke-linejoin:round;">
<text x="11000000.000000" y="185650000.000000"
textLength="1450000.000000" font-size="1733333.000000" lengthAdjust="spacingAndGlyphs"
text-anchor="middle" opacity="0">D</text>
<g class="stroked-text"><desc>D</desc>
<path d="M10659523 185588095
L10659523 184288095
L10969047 184288095
L11154761 184350000
L11278571 184473809
L11340476 184597619
L11402380 184845238
L11402380 185030952
L11340476 185278571
L11278571 185402380
L11154761 185526190
L10969047 185588095
L10659523 185588095
" />
</g></g>
<g style="fill:#000000; fill-opacity:0.0; 
stroke:#000000; stroke-width:21200.000000; stroke-opacity:1; 
stroke-linecap:round; stroke-linejoin:round;">
</g>
<g style="fill:#000000; fill-opacity:0.0; 
stroke:#000000; stroke-width:150000.000000; stroke-opacity:1; 
stroke-linecap:round; stroke-linejoin:round;">
<path d="M287002200 60000000
L285002200 60000000
" />
</g>
<g style="fill:#000000; fill-opacity:0.0; 
stroke:#000000; stroke-width:21200.000000; stroke-opacity:1; 
stroke-linecap:round; stroke-linejoin:round;">
</g>
<g style="fill:#000000; fill-opacity:0.0; 
stroke:#000000; stroke-width:150000.000000; stroke-opacity:1; 
stroke-linecap:round; stroke-linejoin:round;">
<path d="M287002200 110000000
L285002200 110000000
" />
</g>
<g style="fill:#000000; fill-opacity:0.0; 
stroke:#000000; stroke-width:21200.000000; stroke-opacity:1; 
stroke-linecap:round; stroke-linejoin:round;">
</g>
<g style="fill:#000000; fill-opacity:0.0; 
stroke:#000000; stroke-width:150000.000000; stroke-opacity:1; 
stroke-linecap:round; stroke-linejoin:round;">
<path d="M287002200 160000000
L285002200 160000000
" />
</g>
<g style="fill:#000000; fill-opacity:0.0; 
stroke:#000000; stroke-width:21200.000000; stroke-opacity:1; 
stroke-linecap:round; stroke-linejoin:round;">
</g>
<g style="fill:#000000; fill-opacity:0.0; 
stroke:#000000; stroke-width:150000.000000; stroke-opacity:1; 
stroke-linecap:round; stroke-linejoin:round;">
<text x="286002200.000000" y="35650000.000000"
textLength="1264286.000000" font-size="1733333.000000" lengthAdjust="spacingAndGlyphs"
text-anchor="middle" opacity="0">A</text>
<g class="stroked-text"><desc>A</desc>
<path d="M285692676 35216666
L286311723 35216666
" />
<path d="M285568866 35588095
L286002200 34288095
L286435533 35588095
" />
</g></g>
<g style="fill:#000000; fill-opacity:0.0; 
stroke:#000000; stroke-width:21200.000000; stroke-opacity:1; 
stroke-linecap:round; stroke-linejoin:round;">
</g>
<g style="fill:#000000; fill-opacity:0.0; 
stroke:#000000; stroke-width:150000.000000; stroke-opacity:1; 
stroke-linecap:round; stroke-linejoin:round;">
<text x="286002200.000000" y="85650000.000000"
textLength="1450000.000000" font-size="1733333.000000" lengthAdjust="spacingAndGlyphs"
text-anchor="middle" opacity="0">B</text>
<g class="stroked-text"><desc>B</desc>
<path d="M286095057 84907142
L286280771 84969047
L286342676 85030952
L286404580 85154761
L286404580 85340476
L286342676 85464285
L286280771 85526190
L286156961 85588095
L285661723 85588095
L285661723 84288095
L286095057 84288095
L286218866 84350000
L286280771 84411904
L286342676 84535714
L286342676 84659523
L286280771 84783333
L286218866 84845238
L286095057 84907142
L285661723 84907142
" />
</g></g>
<g style="fill:#000000; fill-opacity:0.0; 
stroke:#000000; stroke-width:21200.000000; stroke-opacity:1; 
stroke-linecap:round; stroke-linejoin:round;">
</g>
<g style="fill:#000000; fill-opacity:0.0; 
stroke:#000000; stroke-width:150000.000000; stroke-opacity:1; 
stroke-linecap:round; stroke-linejoin:round;">
<text x="286002200.000000" y="135650000.000000"
textLength="1450000.000000" font-size="1733333.000000" lengthAdjust="spacingAndGlyphs"
text-anchor="middle" opacity="0">C</text>
<g class="stroked-text"><desc>C</desc>
<path d="M286404580 135464285
L286342676 135526190
L286156961 135588095
L286033152 135588095
L285847438 135526190
L285723628 135402380
L285661723 135278571
L285599819 135030952
L285599819 134845238
L285661723 134597619
L285723628 134473809
L285847438 134350000
L286033152 134288095
L286156961 134288095
L286342676 134350000
L286404580 134411904
" />
</g></g>
<g style="fill:#000000; fill-opacity:0.0; 
stroke:#000000; stroke-width:21200.000000; stroke-opacity:1; 
stroke-linecap:round; stroke-linejoin:round;">
</g>
<g style="fill:#000000; fill-opacity:0.0; 
stroke:#000000; stroke-width:150000.000000; stroke-opacity:1; 
stroke-linecap:round; stroke-linejoin:round;">
<text x="286002200.000000" y="185650000.000000"
textLength="1450000.000000" font-size="1733333.000000" lengthAdjust="spacingAndGlyphs"
text-anchor="middle" opacity="0">D</text>
<g class="stroked-text"><desc>D</desc>
<path d="M285661723 185588095
L285661723 184288095
L285971247 184288095
L286156961 184350000
L286280771 184473809
L286342676 184597619
L286404580 184845238
L286404580 185030952
L286342676 185278571
L286280771 185402380
L286156961 185526190
L285971247 185588095
L285661723 185588095
" />
</g></g>
<g style="fill:#000000; fill-opacity:0.0; 
stroke:#000000; stroke-width:21200.000000; stroke-opacity:1; 
stroke-linecap:round; stroke-linejoin:round;">
</g>
<g style="fill:#000000; fill-opacity:0.0; 
stroke:#000000; stroke-width:150000.000000; stroke-opacity:1; 
stroke-linecap:round; stroke-linejoin:round;">
<text x="200002200.000000" y="193857200.000000"
textLength="7007143.000000" font-size="2000000.000000" lengthAdjust="spacingAndGlyphs"
text-anchor="start" opacity="0">Date: </text>
<g class="stroked-text"><desc>Date: </desc>
<path d="M200434342 193785771
L200434342 192285771
L200791485 192285771
L201005771 192357200
L201148628 192500057
L201220057 192642914
L201291485 192928628
L201291485 193142914
L201220057 193428628
L201148628 193571485
L201005771 193714342
L200791485 193785771
L200434342 193785771
" />
<path d="M202577200 193785771
L202577200 193000057
L202505771 192857200
L202362914 192785771
L202077200 192785771
L201934342 192857200
" />
<path d="M202577200 193714342
L202434342 193785771
L202077200 193785771
L201934342 193714342
L201862914 193571485
L201862914 193428628
L201934342 193285771
L202077200 193214342
L202434342 193214342
L202577200 193142914
" />
<path d="M203077200 192785771
L203648628 192785771
" />
<path d="M203291485 192285771
L203291485 193571485
L203362914 193714342
L203505771 193785771
L203648628 193785771
" />
<path d="M204720057 193714342
L204577200 193785771
L204291485 193785771
L204148628 193714342
L204077200 193571485
L204077200 193000057
L204148628 192857200
L204291485 192785771
L204577200 192785771
L204720057 192857200
L204791485 193000057
L204791485 193142914
L204077200 193285771
" />
<path d="M205434342 193642914
L205505771 193714342
L205434342 193785771
L205362914 193714342
L205434342 193642914
L205434342 193785771
" />
<path d="M205434342 192857200
L205505771 192928628
L205434342 193000057
L205362914 192928628
L205434342 192857200
L205434342 193000057
" />
</g></g>
<g style="fill:#000000; fill-opacity:0.0; 
stroke:#000000; stroke-width:21200.000000; stroke-opacity:1; 
stroke-linecap:round; stroke-linejoin:round;">
</g>
<g style="fill:#000000; fill-opacity:0.0; 
stroke:#000000; stroke-width:150000.000000; stroke-opacity:1; 
stroke-linecap:round; stroke-linejoin:round;">
<path d="M177002200 194507200
L285002200 194507200
" />
</g>
<g style="fill:#000000; fill-opacity:0.0; 
stroke:#000000; stroke-width:21200.000000; stroke-opacity:1; 
stroke-linecap:round; stroke-linejoin:round;">
</g>
<g style="fill:#000000; fill-opacity:0.0; 
stroke:#000000; stroke-width:150000.000000; stroke-opacity:1; 
stroke-linecap:round; stroke-linejoin:round;">
<text x="178002200.000000" y="196657200.000000"
textLength="33364286.000000" font-size="2000000.000000" lengthAdjust="spacingAndGlyphs"
text-anchor="start" opacity="0">KiCad E.D.A.  pcbnew (6.0.6)</text>
<g class="stroked-text"><desc>KiCad E.D.A.  pcbnew (6.0.6)</desc>
<path d="M178434342 196585771
L178434342 195085771
" />
<path d="M179291485 196585771
L178648628 195728628
" />
<path d="M179291485 195085771
L178434342 195942914
" />
<path d="M179934342 196585771
L179934342 195585771
" />
<path d="M179934342 195085771
L179862914 195157200
L179934342 195228628
L180005771 195157200
L179934342 195085771
L179934342 195228628
" />
<path d="M181505771 196442914
L181434342 196514342
L181220057 196585771
L181077200 196585771
L180862914 196514342
L180720057 196371485
L180648628 196228628
L180577200 195942914
L180577200 195728628
L180648628 195442914
L180720057 195300057
L180862914 195157200
L181077200 195085771
L181220057 195085771
L181434342 195157200
L181505771 195228628
" />
<path d="M182791485 196585771
L182791485 195800057
L182720057 195657200
L182577200 195585771
L182291485 195585771
L182148628 195657200
" />
<path d="M182791485 196514342
L182648628 196585771
L182291485 196585771
L182148628 196514342
L182077200 196371485
L182077200 196228628
L182148628 196085771
L182291485 196014342
L182648628 196014342
L182791485 195942914
" />
<path d="M184148628 196585771
L184148628 195085771
" />
<path d="M184148628 196514342
L184005771 196585771
L183720057 196585771
L183577200 196514342
L183505771 196442914
L183434342 196300057
L183434342 195871485
L183505771 195728628
L183577200 195657200
L183720057 195585771
L184005771 195585771
L184148628 195657200
" />
<path d="M186005771 195800057
L186505771 195800057
" />
<path d="M186720057 196585771
L186005771 196585771
L186005771 195085771
L186720057 195085771
" />
<path d="M187362914 196442914
L187434342 196514342
L187362914 196585771
L187291485 196514342
L187362914 196442914
L187362914 196585771
" />
<path d="M188077200 196585771
L188077200 195085771
L188434342 195085771
L188648628 195157200
L188791485 195300057
L188862914 195442914
L188934342 195728628
L188934342 195942914
L188862914 196228628
L188791485 196371485
L188648628 196514342
L188434342 196585771
L188077200 196585771
" />
<path d="M189577200 196442914
L189648628 196514342
L189577200 196585771
L189505771 196514342
L189577200 196442914
L189577200 196585771
" />
<path d="M190220057 196157200
L190934342 196157200
" />
<path d="M190077200 196585771
L190577200 195085771
L191077200 196585771
" />
<path d="M191577200 196442914
L191648628 196514342
L191577200 196585771
L191505771 196514342
L191577200 196442914
L191577200 196585771
" />
<path d="M194577200 195585771
L194577200 197085771
" />
<path d="M194577200 195657200
L194720057 195585771
L195005771 195585771
L195148628 195657200
L195220057 195728628
L195291485 195871485
L195291485 196300057
L195220057 196442914
L195148628 196514342
L195005771 196585771
L194720057 196585771
L194577200 196514342
" />
<path d="M196577200 196514342
L196434342 196585771
L196148628 196585771
L196005771 196514342
L195934342 196442914
L195862914 196300057
L195862914 195871485
L195934342 195728628
L196005771 195657200
L196148628 195585771
L196434342 195585771
L196577200 195657200
" />
<path d="M197220057 196585771
L197220057 195085771
" />
<path d="M197220057 195657200
L197362914 195585771
L197648628 195585771
L197791485 195657200
L197862914 195728628
L197934342 195871485
L197934342 196300057
L197862914 196442914
L197791485 196514342
L197648628 196585771
L197362914 196585771
L197220057 196514342
" />
<path d="M198577200 195585771
L198577200 196585771
" />
<path d="M198577200 195728628
L198648628 195657200
L198791485 195585771
L199005771 195585771
L199148628 195657200
L199220057 195800057
L199220057 196585771
" />
<path d="M200505771 196514342
L200362914 196585771
L200077200 196585771
L199934342 196514342
L199862914 196371485
L199862914 195800057
L199934342 195657200
L200077200 195585771
L200362914 195585771
L200505771 195657200
L200577200 195800057
L200577200 195942914
L199862914 196085771
" />
<path d="M201077200 195585771
L201362914 196585771
L201648628 195871485
L201934342 196585771
L202220057 195585771
" />
<path d="M204362914 197157200
L204291485 197085771
L204148628 196871485
L204077200 196728628
L204005771 196514342
L203934342 196157200
L203934342 195871485
L204005771 195514342
L204077200 195300057
L204148628 195157200
L204291485 194942914
L204362914 194871485
" />
<path d="M205577200 195085771
L205291485 195085771
L205148628 195157200
L205077200 195228628
L204934342 195442914
L204862914 195728628
L204862914 196300057
L204934342 196442914
L205005771 196514342
L205148628 196585771
L205434342 196585771
L205577200 196514342
L205648628 196442914
L205720057 196300057
L205720057 195942914
L205648628 195800057
L205577200 195728628
L205434342 195657200
L205148628 195657200
L205005771 195728628
L204934342 195800057
L204862914 195942914
" />
<path d="M206362914 196442914
L206434342 196514342
L206362914 196585771
L206291485 196514342
L206362914 196442914
L206362914 196585771
" />
<path d="M207362914 195085771
L207505771 195085771
L207648628 195157200
L207720057 195228628
L207791485 195371485
L207862914 195657200
L207862914 196014342
L207791485 196300057
L207720057 196442914
L207648628 196514342
L207505771 196585771
L207362914 196585771
L207220057 196514342
L207148628 196442914
L207077200 196300057
L207005771 196014342
L207005771 195657200
L207077200 195371485
L207148628 195228628
L207220057 195157200
L207362914 195085771
" />
<path d="M208505771 196442914
L208577200 196514342
L208505771 196585771
L208434342 196514342
L208505771 196442914
L208505771 196585771
" />
<path d="M209862914 195085771
L209577200 195085771
L209434342 195157200
L209362914 195228628
L209220057 195442914
L209148628 195728628
L209148628 196300057
L209220057 196442914
L209291485 196514342
L209434342 196585771
L209720057 196585771
L209862914 196514342
L209934342 196442914
L210005771 196300057
L210005771 195942914
L209934342 195800057
L209862914 195728628
L209720057 195657200
L209434342 195657200
L209291485 195728628
L209220057 195800057
L209148628 195942914
" />
<path d="M210505771 197157200
L210577200 197085771
L210720057 196871485
L210791485 196728628
L210862914 196514342
L210934342 196157200
L210934342 195871485
L210862914 195514342
L210791485 195300057
L210720057 195157200
L210577200 194942914
L210505771 194871485
" />
</g></g>
<g style="fill:#000000; fill-opacity:0.0; 
stroke:#000000; stroke-width:21200.000000; stroke-opacity:1; 
stroke-linecap:round; stroke-linejoin:round;">
</g>
<g style="fill:#000000; fill-opacity:0.0; 
stroke:#000000; stroke-width:150000.000000; stroke-opacity:1; 
stroke-linecap:round; stroke-linejoin:round;">
<path d="M177002200 191507200
L285002200 191507200
" />
</g>
<g style="fill:#000000; fill-opacity:0.0; 
stroke:#000000; stroke-width:21200.000000; stroke-opacity:1; 
stroke-linecap:round; stroke-linejoin:round;">
</g>
<g style="fill:#000000; fill-opacity:0.0; 
stroke:#000000; stroke-width:300000.000000; stroke-opacity:1; 
stroke-linecap:round; stroke-linejoin:round;">
<text x="263002200.000000" y="193857200.000000"
textLength="5935714.000000" font-size="2000000.000000" lengthAdjust="spacingAndGlyphs"
text-anchor="start" opacity="0">Rev: </text>
<g class="stroked-text"><desc>Rev: </desc>
<path d="M264411485 193785771
L263911485 193071485
" />
<path d="M263554342 193785771
L263554342 192285771
L264125771 192285771
L264268628 192357200
L264340057 192428628
L264411485 192571485
L264411485 192785771
L264340057 192928628
L264268628 193000057
L264125771 193071485
L263554342 193071485
" />
<path d="M265625771 193714342
L265482914 193785771
L265197200 193785771
L265054342 193714342
L264982914 193571485
L264982914 193000057
L265054342 192857200
L265197200 192785771
L265482914 192785771
L265625771 192857200
L265697200 193000057
L265697200 193142914
L264982914 193285771
" />
<path d="M266197200 192785771
L266554342 193785771
L266911485 192785771
" />
<path d="M267482914 193642914
L267554342 193714342
L267482914 193785771
L267411485 193714342
L267482914 193642914
L267482914 193785771
" />
<path d="M267482914 192857200
L267554342 192928628
L267482914 193000057
L267411485 192928628
L267482914 192857200
L267482914 193000057
" />
</g></g>
<g style="fill:#000000; fill-opacity:0.0; 
stroke:#000000; stroke-width:21200.000000; stroke-opacity:1; 
stroke-linecap:round; stroke-linejoin:round;">
</g>
<g style="fill:#000000; fill-opacity:0.0; 
stroke:#000000; stroke-width:150000.000000; stroke-opacity:1; 
stroke-linecap:round; stroke-linejoin:round;">
<text x="178002200.000000" y="193857200.000000"
textLength="9604286.000000" font-size="2000000.000000" lengthAdjust="spacingAndGlyphs"
text-anchor="start" opacity="0">Size: A4</text>
<g class="stroked-text"><desc>Size: A4</desc>
<path d="M178362914 193714342
L178577200 193785771
L178934342 193785771
L179077200 193714342
L179148628 193642914
L179220057 193500057
L179220057 193357200
L179148628 193214342
L179077200 193142914
L178934342 193071485
L178648628 193000057
L178505771 192928628
L178434342 192857200
L178362914 192714342
L178362914 192571485
L178434342 192428628
L178505771 192357200
L178648628 192285771
L179005771 192285771
L179220057 192357200
" />
<path d="M179862914 193785771
L179862914 192785771
" />
<path d="M179862914 192285771
L179791485 192357200
L179862914 192428628
L179934342 192357200
L179862914 192285771
L179862914 192428628
" />
<path d="M180434342 192785771
L181220057 192785771
L180434342 193785771
L181220057 193785771
" />
<path d="M182362914 193714342
L182220057 193785771
L181934342 193785771
L181791485 193714342
L181720057 193571485
L181720057 193000057
L181791485 192857200
L181934342 192785771
L182220057 192785771
L182362914 192857200
L182434342 193000057
L182434342 193142914
L181720057 193285771
" />
<path d="M183077200 193642914
L183148628 193714342
L183077200 193785771
L183005771 193714342
L183077200 193642914
L183077200 193785771
" />
<path d="M183077200 192857200
L183148628 192928628
L183077200 193000057
L183005771 192928628
L183077200 192857200
L183077200 193000057
" />
<path d="M184862914 193357200
L185577200 193357200
" />
<path d="M184720057 193785771
L185220057 192285771
L185720057 193785771
" />
<path d="M186862914 192785771
L186862914 193785771
" />
<path d="M186505771 192214342
L186148628 193285771
L187077200 193285771
" />
</g></g>
<g style="fill:#000000; fill-opacity:0.0; 
stroke:#000000; stroke-width:21200.000000; stroke-opacity:1; 
stroke-linecap:round; stroke-linejoin:round;">
</g>
<g style="fill:#000000; fill-opacity:0.0; 
stroke:#000000; stroke-width:150000.000000; stroke-opacity:1; 
stroke-linecap:round; stroke-linejoin:round;">
<text x="263002200.000000" y="196657200.000000"
textLength="8507143.000000" font-size="2000000.000000" lengthAdjust="spacingAndGlyphs"
text-anchor="start" opacity="0">Id: 1/1</text>
<g class="stroked-text"><desc>Id: 1/1</desc>
<path d="M263434342 196585771
L263434342 195085771
" />
<path d="M264791485 196585771
L264791485 195085771
" />
<path d="M264791485 196514342
L264648628 196585771
L264362914 196585771
L264220057 196514342
L264148628 196442914
L264077200 196300057
L264077200 195871485
L264148628 195728628
L264220057 195657200
L264362914 195585771
L264648628 195585771
L264791485 195657200
" />
<path d="M265505771 196442914
L265577200 196514342
L265505771 196585771
L265434342 196514342
L265505771 196442914
L265505771 196585771
" />
<path d="M265505771 195657200
L265577200 195728628
L265505771 195800057
L265434342 195728628
L265505771 195657200
L265505771 195800057
" />
<path d="M268148628 196585771
L267291485 196585771
" />
<path d="M267720057 196585771
L267720057 195085771
L267577200 195300057
L267434342 195442914
L267291485 195514342
" />
<path d="M269862914 195014342
L268577200 196942914
" />
<path d="M271148628 196585771
L270291485 196585771
" />
<path d="M270720057 196585771
L270720057 195085771
L270577200 195300057
L270434342 195442914
L270291485 195514342
" />
</g></g>
<g style="fill:#000000; fill-opacity:0.0; 
stroke:#000000; stroke-width:21200.000000; stroke-opacity:1; 
stroke-linecap:round; stroke-linejoin:round;">
</g>
<g style="fill:#000000; fill-opacity:0.0; 
stroke:#000000; stroke-width:150000.000000; stroke-opacity:1; 
stroke-linecap:round; stroke-linejoin:round;">
<path d="M177002200 187507200
L285002200 187507200
" />
</g>
<g style="fill:#000000; fill-opacity:0.0; 
stroke:#000000; stroke-width:21200.000000; stroke-opacity:1; 
stroke-linecap:round; stroke-linejoin:round;">
</g>
<g style="fill:#000000; fill-opacity:0.0; 
stroke:#000000; stroke-width:400000.000000; stroke-opacity:1; 
stroke-linecap:round; stroke-linejoin:round;">
<text x="178002200.000000" y="190307200.000000"
textLength="9409643.000000" font-size="2666666.000000" lengthAdjust="spacingAndGlyphs"
text-anchor="start" opacity="0">Title: </text>
<g class="stroked-text"><desc>Title: </desc>
<path d="M178714580 188211961
L179857438 188211961
" />
<path d="M179036009 190211961
L179286009 188211961
" />
<path d="M180274104 190211961
L180440771 188878628
" />
<path d="M180524104 188211961
L180416961 188307200
L180500295 188402438
L180607438 188307200
L180524104 188211961
L180500295 188402438
" />
<path d="M181107438 188878628
L181869342 188878628
" />
<path d="M181476485 188211961
L181262200 189926247
L181333628 190116723
L181512200 190211961
L181702676 190211961
" />
<path d="M182655057 190211961
L182476485 190116723
L182405057 189926247
L182619342 188211961
" />
<path d="M184190771 190116723
L183988390 190211961
L183607438 190211961
L183428866 190116723
L183357438 189926247
L183452676 189164342
L183571723 188973866
L183774104 188878628
L184155057 188878628
L184333628 188973866
L184405057 189164342
L184381247 189354819
L183405057 189545295
" />
<path d="M185155057 190021485
L185238390 190116723
L185131247 190211961
L185047914 190116723
L185155057 190021485
L185131247 190211961
" />
<path d="M185286009 188973866
L185369342 189069104
L185262200 189164342
L185178866 189069104
L185286009 188973866
L185262200 189164342
" />
</g></g>
<g style="fill:#000000; fill-opacity:0.0; 
stroke:#000000; stroke-width:21200.000000; stroke-opacity:1; 
stroke-linecap:round; stroke-linejoin:round;">
</g>
<g style="fill:#000000; fill-opacity:0.0; 
stroke:#000000; stroke-width:150000.000000; stroke-opacity:1; 
stroke-linecap:round; stroke-linejoin:round;">
<text x="178002200.000000" y="186457200.000000"
textLength="30805714.000000" font-size="2000000.000000" lengthAdjust="spacingAndGlyphs"
text-anchor="start" opacity="0">File: boardKicad.kicad_pcb</text>
<g class="stroked-text"><desc>File: boardKicad.kicad_pcb</desc>
<path d="M178934342 185600057
L178434342 185600057
" />
<path d="M178434342 186385771
L178434342 184885771
L179148628 184885771
" />
<path d="M179720057 186385771
L179720057 185385771
" />
<path d="M179720057 184885771
L179648628 184957200
L179720057 185028628
L179791485 184957200
L179720057 184885771
L179720057 185028628
" />
<path d="M180648628 186385771
L180505771 186314342
L180434342 186171485
L180434342 184885771
" />
<path d="M181791485 186314342
L181648628 186385771
L181362914 186385771
L181220057 186314342
L181148628 186171485
L181148628 185600057
L181220057 185457200
L181362914 185385771
L181648628 185385771
L181791485 185457200
L181862914 185600057
L181862914 185742914
L181148628 185885771
" />
<path d="M182505771 186242914
L182577200 186314342
L182505771 186385771
L182434342 186314342
L182505771 186242914
L182505771 186385771
" />
<path d="M182505771 185457200
L182577200 185528628
L182505771 185600057
L182434342 185528628
L182505771 185457200
L182505771 185600057
" />
<path d="M184362914 186385771
L184362914 184885771
" />
<path d="M184362914 185457200
L184505771 185385771
L184791485 185385771
L184934342 185457200
L185005771 185528628
L185077200 185671485
L185077200 186100057
L185005771 186242914
L184934342 186314342
L184791485 186385771
L184505771 186385771
L184362914 186314342
" />
<path d="M185934342 186385771
L185791485 186314342
L185720057 186242914
L185648628 186100057
L185648628 185671485
L185720057 185528628
L185791485 185457200
L185934342 185385771
L186148628 185385771
L186291485 185457200
L186362914 185528628
L186434342 185671485
L186434342 186100057
L186362914 186242914
L186291485 186314342
L186148628 186385771
L185934342 186385771
" />
<path d="M187720057 186385771
L187720057 185600057
L187648628 185457200
L187505771 185385771
L187220057 185385771
L187077200 185457200
" />
<path d="M187720057 186314342
L187577200 186385771
L187220057 186385771
L187077200 186314342
L187005771 186171485
L187005771 186028628
L187077200 185885771
L187220057 185814342
L187577200 185814342
L187720057 185742914
" />
<path d="M188434342 186385771
L188434342 185385771
" />
<path d="M188434342 185671485
L188505771 185528628
L188577200 185457200
L188720057 185385771
L188862914 185385771
" />
<path d="M190005771 186385771
L190005771 184885771
" />
<path d="M190005771 186314342
L189862914 186385771
L189577200 186385771
L189434342 186314342
L189362914 186242914
L189291485 186100057
L189291485 185671485
L189362914 185528628
L189434342 185457200
L189577200 185385771
L189862914 185385771
L190005771 185457200
" />
<path d="M190720057 186385771
L190720057 184885771
" />
<path d="M191577200 186385771
L190934342 185528628
" />
<path d="M191577200 184885771
L190720057 185742914
" />
<path d="M192220057 186385771
L192220057 185385771
" />
<path d="M192220057 184885771
L192148628 184957200
L192220057 185028628
L192291485 184957200
L192220057 184885771
L192220057 185028628
" />
<path d="M193577200 186314342
L193434342 186385771
L193148628 186385771
L193005771 186314342
L192934342 186242914
L192862914 186100057
L192862914 185671485
L192934342 185528628
L193005771 185457200
L193148628 185385771
L193434342 185385771
L193577200 185457200
" />
<path d="M194862914 186385771
L194862914 185600057
L194791485 185457200
L194648628 185385771
L194362914 185385771
L194220057 185457200
" />
<path d="M194862914 186314342
L194720057 186385771
L194362914 186385771
L194220057 186314342
L194148628 186171485
L194148628 186028628
L194220057 185885771
L194362914 185814342
L194720057 185814342
L194862914 185742914
" />
<path d="M196220057 186385771
L196220057 184885771
" />
<path d="M196220057 186314342
L196077200 186385771
L195791485 186385771
L195648628 186314342
L195577200 186242914
L195505771 186100057
L195505771 185671485
L195577200 185528628
L195648628 185457200
L195791485 185385771
L196077200 185385771
L196220057 185457200
" />
<path d="M196934342 186242914
L197005771 186314342
L196934342 186385771
L196862914 186314342
L196934342 186242914
L196934342 186385771
" />
<path d="M197648628 186385771
L197648628 184885771
" />
<path d="M197791485 185814342
L198220057 186385771
" />
<path d="M198220057 185385771
L197648628 185957200
" />
<path d="M198862914 186385771
L198862914 185385771
" />
<path d="M198862914 184885771
L198791485 184957200
L198862914 185028628
L198934342 184957200
L198862914 184885771
L198862914 185028628
" />
<path d="M200220057 186314342
L200077200 186385771
L199791485 186385771
L199648628 186314342
L199577200 186242914
L199505771 186100057
L199505771 185671485
L199577200 185528628
L199648628 185457200
L199791485 185385771
L200077200 185385771
L200220057 185457200
" />
<path d="M201505771 186385771
L201505771 185600057
L201434342 185457200
L201291485 185385771
L201005771 185385771
L200862914 185457200
" />
<path d="M201505771 186314342
L201362914 186385771
L201005771 186385771
L200862914 186314342
L200791485 186171485
L200791485 186028628
L200862914 185885771
L201005771 185814342
L201362914 185814342
L201505771 185742914
" />
<path d="M202862914 186385771
L202862914 184885771
" />
<path d="M202862914 186314342
L202720057 186385771
L202434342 186385771
L202291485 186314342
L202220057 186242914
L202148628 186100057
L202148628 185671485
L202220057 185528628
L202291485 185457200
L202434342 185385771
L202720057 185385771
L202862914 185457200
" />
<path d="M203220057 186528628
L204362914 186528628
" />
<path d="M204720057 185385771
L204720057 186885771
" />
<path d="M204720057 185457200
L204862914 185385771
L205148628 185385771
L205291485 185457200
L205362914 185528628
L205434342 185671485
L205434342 186100057
L205362914 186242914
L205291485 186314342
L205148628 186385771
L204862914 186385771
L204720057 186314342
" />
<path d="M206720057 186314342
L206577200 186385771
L206291485 186385771
L206148628 186314342
L206077200 186242914
L206005771 186100057
L206005771 185671485
L206077200 185528628
L206148628 185457200
L206291485 185385771
L206577200 185385771
L206720057 185457200
" />
<path d="M207362914 186385771
L207362914 184885771
" />
<path d="M207362914 185457200
L207505771 185385771
L207791485 185385771
L207934342 185457200
L208005771 185528628
L208077200 185671485
L208077200 186100057
L208005771 186242914
L207934342 186314342
L207791485 186385771
L207505771 186385771
L207362914 186314342
" />
</g></g>
<g style="fill:#000000; fill-opacity:0.0; 
stroke:#000000; stroke-width:21200.000000; stroke-opacity:1; 
stroke-linecap:round; stroke-linejoin:round;">
</g>
<g style="fill:#000000; fill-opacity:0.0; 
stroke:#000000; stroke-width:150000.000000; stroke-opacity:1; 
stroke-linecap:round; stroke-linejoin:round;">
<path d="M177002200 181507200
L285002200 181507200
" />
</g>
<g style="fill:#000000; fill-opacity:0.0; 
stroke:#000000; stroke-width:21200.000000; stroke-opacity:1; 
stroke-linecap:round; stroke-linejoin:round;">
</g>
<g style="fill:#000000; fill-opacity:0.0; 
stroke:#000000; stroke-width:150000.000000; stroke-opacity:1; 
stroke-linecap:round; stroke-linejoin:round;">
<text x="178002200.000000" y="183757200.000000"
textLength="8221429.000000" font-size="2000000.000000" lengthAdjust="spacingAndGlyphs"
text-anchor="start" opacity="0">Sheet: </text>
<g class="stroked-text"><desc>Sheet: </desc>
<path d="M178362914 183614342
L178577200 183685771
L178934342 183685771
L179077200 183614342
L179148628 183542914
L179220057 183400057
L179220057 183257200
L179148628 183114342
L179077200 183042914
L178934342 182971485
L178648628 182900057
L178505771 182828628
L178434342 182757200
L178362914 182614342
L178362914 182471485
L178434342 182328628
L178505771 182257200
L178648628 182185771
L179005771 182185771
L179220057 182257200
" />
<path d="M179862914 183685771
L179862914 182185771
" />
<path d="M180505771 183685771
L180505771 182900057
L180434342 182757200
L180291485 182685771
L180077200 182685771
L179934342 182757200
L179862914 182828628
" />
<path d="M181791485 183614342
L181648628 183685771
L181362914 183685771
L181220057 183614342
L181148628 183471485
L181148628 182900057
L181220057 182757200
L181362914 182685771
L181648628 182685771
L181791485 182757200
L181862914 182900057
L181862914 183042914
L181148628 183185771
" />
<path d="M183077200 183614342
L182934342 183685771
L182648628 183685771
L182505771 183614342
L182434342 183471485
L182434342 182900057
L182505771 182757200
L182648628 182685771
L182934342 182685771
L183077200 182757200
L183148628 182900057
L183148628 183042914
L182434342 183185771
" />
<path d="M183577200 182685771
L184148628 182685771
" />
<path d="M183791485 182185771
L183791485 183471485
L183862914 183614342
L184005771 183685771
L184148628 183685771
" />
<path d="M184648628 183542914
L184720057 183614342
L184648628 183685771
L184577200 183614342
L184648628 183542914
L184648628 183685771
" />
<path d="M184648628 182757200
L184720057 182828628
L184648628 182900057
L184577200 182828628
L184648628 182757200
L184648628 182900057
" />
</g></g>
<g style="fill:#000000; fill-opacity:0.0; 
stroke:#000000; stroke-width:21200.000000; stroke-opacity:1; 
stroke-linecap:round; stroke-linejoin:round;">
</g>
<g style="fill:#000000; fill-opacity:0.0; 
stroke:#000000; stroke-width:300000.000000; stroke-opacity:1; 
stroke-linecap:round; stroke-linejoin:round;">
<text x="178002200.000000" y="180757200.000000"
textLength="150000.000000" font-size="2000000.000000" lengthAdjust="spacingAndGlyphs"
text-anchor="start" opacity="0"></text>
<g class="stroked-text"><desc></desc>
</g></g>
<g style="fill:#000000; fill-opacity:0.0; 
stroke:#000000; stroke-width:21200.000000; stroke-opacity:1; 
stroke-linecap:round; stroke-linejoin:round;">
</g>
<g style="fill:#000000; fill-opacity:0.0; 
stroke:#000000; stroke-width:150000.000000; stroke-opacity:1; 
stroke-linecap:round; stroke-linejoin:round;">
<text x="178002200.000000" y="177757200.000000"
textLength="300000.000000" font-size="2000000.000000" lengthAdjust="spacingAndGlyphs"
text-anchor="start" opacity="0"></text>
<g class="stroked-text"><desc></desc>
</g></g>
<g style="fill:#000000; fill-opacity:0.0; 
stroke:#000000; stroke-width:21200.000000; stroke-opacity:1; 
stroke-linecap:round; stroke-linejoin:round;">
</g>
<g style="fill:#000000; fill-opacity:0.0; 
stroke:#000000; stroke-width:150000.000000; stroke-opacity:1; 
stroke-linecap:round; stroke-linejoin:round;">
<text x="178002200.000000" y="174757200.000000"
textLength="150000.000000" font-size="2000000.000000" lengthAdjust="spacingAndGlyphs"
text-anchor="start" opacity="0"></text>
<g class="stroked-text"><desc></desc>
</g></g>
<g style="fill:#000000; fill-opacity:0.0; 
stroke:#000000; stroke-width:21200.000000; stroke-opacity:1; 
stroke-linecap:round; stroke-linejoin:round;">
</g>
<g style="fill:#000000; fill-opacity:0.0; 
stroke:#000000; stroke-width:150000.000000; stroke-opacity:1; 
stroke-linecap:round; stroke-linejoin:round;">
<text x="178002200.000000" y="171757200.000000"
textLength="150000.000000" font-size="2000000.000000" lengthAdjust="spacingAndGlyphs"
text-anchor="start" opacity="0"></text>
<g class="stroked-text"><desc></desc>
</g></g>
<g style="fill:#000000; fill-opacity:0.0; 
stroke:#000000; stroke-width:21200.000000; stroke-opacity:1; 
stroke-linecap:round; stroke-linejoin:round;">
</g>
<g style="fill:#000000; fill-opacity:0.0; 
stroke:#000000; stroke-width:150000.000000; stroke-opacity:1; 
stroke-linecap:round; stroke-linejoin:round;">
<text x="178002200.000000" y="168757200.000000"
textLength="150000.000000" font-size="2000000.000000" lengthAdjust="spacingAndGlyphs"
text-anchor="start" opacity="0"></text>
<g class="stroked-text"><desc></desc>
</g></g>
<g style="fill:#000000; fill-opacity:0.0; 
stroke:#000000; stroke-width:21200.000000; stroke-opacity:1; 
stroke-linecap:round; stroke-linejoin:round;">
</g>
<g style="fill:#000000; fill-opacity:0.0; 
stroke:#000000; stroke-width:150000.000000; stroke-opacity:1; 
stroke-linecap:round; stroke-linejoin:round;">
<path d="M197002200 191507200
L197002200 194507200
" />
</g>
<g style="fill:#000000; fill-opacity:0.0; 
stroke:#000000; stroke-width:21200.000000; stroke-opacity:1; 
stroke-linecap:round; stroke-linejoin:round;">
</g>
<g style="fill:#000000; fill-opacity:0.0; 
stroke:#000000; stroke-width:150000.000000; stroke-opacity:1; 
stroke-linecap:round; stroke-linejoin:round;">
<path d="M261002200 191507200
L261002200 198007200
" />
</g>
<g style="fill:#5994DC; fill-opacity:0.0; 
stroke:#5994DC; stroke-width:150000.000000; stroke-opacity:1; 
stroke-linecap:round; stroke-linejoin:round;">
</g>
<g style="fill:#5994DC; fill-opacity:0.0; 
stroke:#5994DC; stroke-width:320000.000000; stroke-opacity:1; 
stroke-linecap:round; stroke-linejoin:round;">
<text x="237571100.000000" y="27143600.000000"
textLength="17323333.000000" font-size="4906666.000000" lengthAdjust="spacingAndGlyphs"
text-anchor="start" opacity="0">Notes:</text>
<g class="stroked-text"><desc>Notes:</desc>
<path d="M238655290 26968361
L238655290 23288361
L240758147 26968361
L240758147 23288361
" />
<path d="M243036242 26968361
L242685766 26793123
L242510528 26617885
L242335290 26267409
L242335290 25215980
L242510528 24865504
L242685766 24690266
L243036242 24515028
L243561957 24515028
L243912433 24690266
L244087671 24865504
L244262909 25215980
L244262909 26267409
L244087671 26617885
L243912433 26793123
L243561957 26968361
L243036242 26968361
" />
<path d="M245314338 24515028
L246716242 24515028
" />
<path d="M245840052 23288361
L245840052 26442647
L246015290 26793123
L246365766 26968361
L246716242 26968361
" />
<path d="M249344814 26793123
L248994338 26968361
L248293385 26968361
L247942909 26793123
L247767671 26442647
L247767671 25040742
L247942909 24690266
L248293385 24515028
L248994338 24515028
L249344814 24690266
L249520052 25040742
L249520052 25391219
L247767671 25741695
" />
<path d="M250921957 26793123
L251272433 26968361
L251973385 26968361
L252323861 26793123
L252499100 26442647
L252499100 26267409
L252323861 25916933
L251973385 25741695
L251447671 25741695
L251097195 25566457
L250921957 25215980
L250921957 25040742
L251097195 24690266
L251447671 24515028
L251973385 24515028
L252323861 24690266
" />
<path d="M254076242 26617885
L254251480 26793123
L254076242 26968361
L253901004 26793123
L254076242 26617885
L254076242 26968361
" />
<path d="M254076242 24690266
L254251480 24865504
L254076242 25040742
L253901004 24865504
L254076242 24690266
L254076242 25040742
" />
</g><text x="237571100.000000" y="33068400.000000"
textLength="416000.000000" font-size="4906666.000000" lengthAdjust="spacingAndGlyphs"
text-anchor="start" opacity="0"></text>
<g class="stroked-text"><desc></desc>
</g><text x="237571100.000000" y="38993200.000000"
textLength="49737143.000000" font-size="4906666.000000" lengthAdjust="spacingAndGlyphs"
text-anchor="start" opacity="0">* T4 solder paste</text>
<g class="stroked-text"><desc>* T4 solder paste</desc>
<path d="M239181004 35137961
L239181004 36014152
" />
<path d="M238304814 35663676
L239181004 36014152
L240057195 35663676
" />
<path d="M238655290 36715104
L239181004 36014152
L239706719 36715104
" />
<path d="M243737195 35137961
L245840052 35137961
" />
<path d="M244788623 38817961
L244788623 35137961
" />
<path d="M248643861 36364628
L248643861 38817961
" />
<path d="M247767671 34962723
L246891480 37591295
L249169576 37591295
" />
<path d="M253200052 38642723
L253550528 38817961
L254251480 38817961
L254601957 38642723
L254777195 38292247
L254777195 38117009
L254601957 37766533
L254251480 37591295
L253725766 37591295
L253375290 37416057
L253200052 37065580
L253200052 36890342
L253375290 36539866
L253725766 36364628
L254251480 36364628
L254601957 36539866
" />
<path d="M256880052 38817961
L256529576 38642723
L256354338 38467485
L256179100 38117009
L256179100 37065580
L256354338 36715104
L256529576 36539866
L256880052 36364628
L257405766 36364628
L257756242 36539866
L257931480 36715104
L258106719 37065580
L258106719 38117009
L257931480 38467485
L257756242 38642723
L257405766 38817961
L256880052 38817961
" />
<path d="M260209576 38817961
L259859100 38642723
L259683861 38292247
L259683861 35137961
" />
<path d="M263188623 38817961
L263188623 35137961
" />
<path d="M263188623 38642723
L262838147 38817961
L262137195 38817961
L261786719 38642723
L261611480 38467485
L261436242 38117009
L261436242 37065580
L261611480 36715104
L261786719 36539866
L262137195 36364628
L262838147 36364628
L263188623 36539866
" />
<path d="M266342909 38642723
L265992433 38817961
L265291480 38817961
L264941004 38642723
L264765766 38292247
L264765766 36890342
L264941004 36539866
L265291480 36364628
L265992433 36364628
L266342909 36539866
L266518147 36890342
L266518147 37240819
L264765766 37591295
" />
<path d="M268095290 38817961
L268095290 36364628
" />
<path d="M268095290 37065580
L268270528 36715104
L268445766 36539866
L268796242 36364628
L269146719 36364628
" />
<path d="M273177195 36364628
L273177195 40044628
" />
<path d="M273177195 36539866
L273527671 36364628
L274228623 36364628
L274579100 36539866
L274754338 36715104
L274929576 37065580
L274929576 38117009
L274754338 38467485
L274579100 38642723
L274228623 38817961
L273527671 38817961
L273177195 38642723
" />
<path d="M278083861 38817961
L278083861 36890342
L277908623 36539866
L277558147 36364628
L276857195 36364628
L276506719 36539866
" />
<path d="M278083861 38642723
L277733385 38817961
L276857195 38817961
L276506719 38642723
L276331480 38292247
L276331480 37941771
L276506719 37591295
L276857195 37416057
L277733385 37416057
L278083861 37240819
" />
<path d="M279661004 38642723
L280011480 38817961
L280712433 38817961
L281062909 38642723
L281238147 38292247
L281238147 38117009
L281062909 37766533
L280712433 37591295
L280186719 37591295
L279836242 37416057
L279661004 37065580
L279661004 36890342
L279836242 36539866
L280186719 36364628
L280712433 36364628
L281062909 36539866
" />
<path d="M282289576 36364628
L283691480 36364628
" />
<path d="M282815290 35137961
L282815290 38292247
L282990528 38642723
L283341004 38817961
L283691480 38817961
" />
<path d="M286320052 38642723
L285969576 38817961
L285268623 38817961
L284918147 38642723
L284742909 38292247
L284742909 36890342
L284918147 36539866
L285268623 36364628
L285969576 36364628
L286320052 36539866
L286495290 36890342
L286495290 37240819
L284742909 37591295
" />
</g><text x="237571100.000000" y="44918000.000000"
textLength="61574095.000000" font-size="4906666.000000" lengthAdjust="spacingAndGlyphs"
text-anchor="start" opacity="0">* Lead Free assembly</text>
<g class="stroked-text"><desc>* Lead Free assembly</desc>
<path d="M239181004 41062761
L239181004 41938952
" />
<path d="M238304814 41588476
L239181004 41938952
L240057195 41588476
" />
<path d="M238655290 42639904
L239181004 41938952
L239706719 42639904
" />
<path d="M246015290 44742761
L244262909 44742761
L244262909 41062761
" />
<path d="M248643861 44567523
L248293385 44742761
L247592433 44742761
L247241957 44567523
L247066719 44217047
L247066719 42815142
L247241957 42464666
L247592433 42289428
L248293385 42289428
L248643861 42464666
L248819100 42815142
L248819100 43165619
L247066719 43516095
" />
<path d="M251973385 44742761
L251973385 42815142
L251798147 42464666
L251447671 42289428
L250746719 42289428
L250396242 42464666
" />
<path d="M251973385 44567523
L251622909 44742761
L250746719 44742761
L250396242 44567523
L250221004 44217047
L250221004 43866571
L250396242 43516095
L250746719 43340857
L251622909 43340857
L251973385 43165619
" />
<path d="M255302909 44742761
L255302909 41062761
" />
<path d="M255302909 44567523
L254952433 44742761
L254251480 44742761
L253901004 44567523
L253725766 44392285
L253550528 44041809
L253550528 42990380
L253725766 42639904
L253901004 42464666
L254251480 42289428
L254952433 42289428
L255302909 42464666
" />
<path d="M261085766 42815142
L259859100 42815142
" />
<path d="M259859100 44742761
L259859100 41062761
L261611480 41062761
" />
<path d="M263013385 44742761
L263013385 42289428
" />
<path d="M263013385 42990380
L263188623 42639904
L263363861 42464666
L263714338 42289428
L264064814 42289428
" />
<path d="M266693385 44567523
L266342909 44742761
L265641957 44742761
L265291480 44567523
L265116242 44217047
L265116242 42815142
L265291480 42464666
L265641957 42289428
L266342909 42289428
L266693385 42464666
L266868623 42815142
L266868623 43165619
L265116242 43516095
" />
<path d="M269847671 44567523
L269497195 44742761
L268796242 44742761
L268445766 44567523
L268270528 44217047
L268270528 42815142
L268445766 42464666
L268796242 42289428
L269497195 42289428
L269847671 42464666
L270022909 42815142
L270022909 43165619
L268270528 43516095
" />
<path d="M275981004 44742761
L275981004 42815142
L275805766 42464666
L275455290 42289428
L274754338 42289428
L274403861 42464666
" />
<path d="M275981004 44567523
L275630528 44742761
L274754338 44742761
L274403861 44567523
L274228623 44217047
L274228623 43866571
L274403861 43516095
L274754338 43340857
L275630528 43340857
L275981004 43165619
" />
<path d="M277558147 44567523
L277908623 44742761
L278609576 44742761
L278960052 44567523
L279135290 44217047
L279135290 44041809
L278960052 43691333
L278609576 43516095
L278083861 43516095
L277733385 43340857
L277558147 42990380
L277558147 42815142
L277733385 42464666
L278083861 42289428
L278609576 42289428
L278960052 42464666
" />
<path d="M280537195 44567523
L280887671 44742761
L281588623 44742761
L281939100 44567523
L282114338 44217047
L282114338 44041809
L281939100 43691333
L281588623 43516095
L281062909 43516095
L280712433 43340857
L280537195 42990380
L280537195 42815142
L280712433 42464666
L281062909 42289428
L281588623 42289428
L281939100 42464666
" />
<path d="M285093385 44567523
L284742909 44742761
L284041957 44742761
L283691480 44567523
L283516242 44217047
L283516242 42815142
L283691480 42464666
L284041957 42289428
L284742909 42289428
L285093385 42464666
L285268623 42815142
L285268623 43165619
L283516242 43516095
" />
<path d="M286845766 44742761
L286845766 42289428
" />
<path d="M286845766 42639904
L287021004 42464666
L287371480 42289428
L287897195 42289428
L288247671 42464666
L288422909 42815142
L288422909 44742761
" />
<path d="M288422909 42815142
L288598147 42464666
L288948623 42289428
L289474338 42289428
L289824814 42464666
L290000052 42815142
L290000052 44742761
" />
<path d="M291752433 44742761
L291752433 41062761
" />
<path d="M291752433 42464666
L292102909 42289428
L292803861 42289428
L293154338 42464666
L293329576 42639904
L293504814 42990380
L293504814 44041809
L293329576 44392285
L293154338 44567523
L292803861 44742761
L292102909 44742761
L291752433 44567523
" />
<path d="M295607671 44742761
L295257195 44567523
L295081957 44217047
L295081957 41062761
" />
<path d="M296659100 42289428
L297535290 44742761
" />
<path d="M298411480 42289428
L297535290 44742761
L297184814 45618952
L297009576 45794190
L296659100 45969428
" />
</g><text x="237571100.000000" y="50842800.000000"
textLength="62625524.000000" font-size="4906666.000000" lengthAdjust="spacingAndGlyphs"
text-anchor="start" opacity="0">* Measures in inches </text>
<g class="stroked-text"><desc>* Measures in inches </desc>
<path d="M239181004 46987561
L239181004 47863752
" />
<path d="M238304814 47513276
L239181004 47863752
L240057195 47513276
" />
<path d="M238655290 48564704
L239181004 47863752
L239706719 48564704
" />
<path d="M244262909 50667561
L244262909 46987561
L245489576 49616133
L246716242 46987561
L246716242 50667561
" />
<path d="M249870528 50492323
L249520052 50667561
L248819100 50667561
L248468623 50492323
L248293385 50141847
L248293385 48739942
L248468623 48389466
L248819100 48214228
L249520052 48214228
L249870528 48389466
L250045766 48739942
L250045766 49090419
L248293385 49440895
" />
<path d="M253200052 50667561
L253200052 48739942
L253024814 48389466
L252674338 48214228
L251973385 48214228
L251622909 48389466
" />
<path d="M253200052 50492323
L252849576 50667561
L251973385 50667561
L251622909 50492323
L251447671 50141847
L251447671 49791371
L251622909 49440895
L251973385 49265657
L252849576 49265657
L253200052 49090419
" />
<path d="M254777195 50492323
L255127671 50667561
L255828623 50667561
L256179100 50492323
L256354338 50141847
L256354338 49966609
L256179100 49616133
L255828623 49440895
L255302909 49440895
L254952433 49265657
L254777195 48915180
L254777195 48739942
L254952433 48389466
L255302909 48214228
L255828623 48214228
L256179100 48389466
" />
<path d="M259508623 48214228
L259508623 50667561
" />
<path d="M257931480 48214228
L257931480 50141847
L258106719 50492323
L258457195 50667561
L258982909 50667561
L259333385 50492323
L259508623 50317085
" />
<path d="M261261004 50667561
L261261004 48214228
" />
<path d="M261261004 48915180
L261436242 48564704
L261611480 48389466
L261961957 48214228
L262312433 48214228
" />
<path d="M264941004 50492323
L264590528 50667561
L263889576 50667561
L263539100 50492323
L263363861 50141847
L263363861 48739942
L263539100 48389466
L263889576 48214228
L264590528 48214228
L264941004 48389466
L265116242 48739942
L265116242 49090419
L263363861 49440895
" />
<path d="M266518147 50492323
L266868623 50667561
L267569576 50667561
L267920052 50492323
L268095290 50141847
L268095290 49966609
L267920052 49616133
L267569576 49440895
L267043861 49440895
L266693385 49265657
L266518147 48915180
L266518147 48739942
L266693385 48389466
L267043861 48214228
L267569576 48214228
L267920052 48389466
" />
<path d="M272476242 50667561
L272476242 48214228
" />
<path d="M272476242 46987561
L272301004 47162800
L272476242 47338038
L272651480 47162800
L272476242 46987561
L272476242 47338038
" />
<path d="M274228623 48214228
L274228623 50667561
" />
<path d="M274228623 48564704
L274403861 48389466
L274754338 48214228
L275280052 48214228
L275630528 48389466
L275805766 48739942
L275805766 50667561
" />
<path d="M280361957 50667561
L280361957 48214228
" />
<path d="M280361957 46987561
L280186719 47162800
L280361957 47338038
L280537195 47162800
L280361957 46987561
L280361957 47338038
" />
<path d="M282114338 48214228
L282114338 50667561
" />
<path d="M282114338 48564704
L282289576 48389466
L282640052 48214228
L283165766 48214228
L283516242 48389466
L283691480 48739942
L283691480 50667561
" />
<path d="M287021004 50492323
L286670528 50667561
L285969576 50667561
L285619100 50492323
L285443861 50317085
L285268623 49966609
L285268623 48915180
L285443861 48564704
L285619100 48389466
L285969576 48214228
L286670528 48214228
L287021004 48389466
" />
<path d="M288598147 50667561
L288598147 46987561
" />
<path d="M290175290 50667561
L290175290 48739942
L290000052 48389466
L289649576 48214228
L289123861 48214228
L288773385 48389466
L288598147 48564704
" />
<path d="M293329576 50492323
L292979100 50667561
L292278147 50667561
L291927671 50492323
L291752433 50141847
L291752433 48739942
L291927671 48389466
L292278147 48214228
L292979100 48214228
L293329576 48389466
L293504814 48739942
L293504814 49090419
L291752433 49440895
" />
<path d="M294906719 50492323
L295257195 50667561
L295958147 50667561
L296308623 50492323
L296483861 50141847
L296483861 49966609
L296308623 49616133
L295958147 49440895
L295432433 49440895
L295081957 49265657
L294906719 48915180
L294906719 48739942
L295081957 48389466
L295432433 48214228
L295958147 48214228
L296308623 48389466
" />
</g></g>
<g style="fill:#5994DC; fill-opacity:0.0; 
stroke:#5994DC; stroke-width:406400.000000; stroke-opacity:1; 
stroke-linecap:round; stroke-linejoin:round;">
<text x="-978900.000000" y="234113600.000000"
textLength="31128229.000000" font-size="6231466.000000" lengthAdjust="spacingAndGlyphs"
text-anchor="start" opacity="0">Sparkfun</text>
<g class="stroked-text"><desc>Sparkfun</desc>
<path d="M175469 233668495
L843126 233891047
L1955888 233891047
L2400993 233668495
L2623545 233445942
L2846098 233000838
L2846098 232555733
L2623545 232110628
L2400993 231888076
L1955888 231665523
L1065679 231442971
L620574 231220419
L398021 230997866
L175469 230552761
L175469 230107657
L398021 229662552
L620574 229440000
L1065679 229217447
L2178440 229217447
L2846098 229440000
" />
<path d="M4849069 230775314
L4849069 235448914
" />
<path d="M4849069 230997866
L5294174 230775314
L6184383 230775314
L6629488 230997866
L6852040 231220419
L7074593 231665523
L7074593 233000838
L6852040 233445942
L6629488 233668495
L6184383 233891047
L5294174 233891047
L4849069 233668495
" />
<path d="M11080536 233891047
L11080536 231442971
L10857983 230997866
L10412879 230775314
L9522669 230775314
L9077564 230997866
" />
<path d="M11080536 233668495
L10635431 233891047
L9522669 233891047
L9077564 233668495
L8855012 233223390
L8855012 232778285
L9077564 232333180
L9522669 232110628
L10635431 232110628
L11080536 231888076
" />
<path d="M13306059 233891047
L13306059 230775314
" />
<path d="M13306059 231665523
L13528612 231220419
L13751164 230997866
L14196269 230775314
L14641374 230775314
" />
<path d="M16199240 233891047
L16199240 229217447
" />
<path d="M16644345 232110628
L17979659 233891047
" />
<path d="M17979659 230775314
L16199240 232555733
" />
<path d="M19314974 230775314
L21095393 230775314
" />
<path d="M19982631 233891047
L19982631 229885104
L20205183 229440000
L20650288 229217447
L21095393 229217447
" />
<path d="M24656231 230775314
L24656231 233891047
" />
<path d="M22653259 230775314
L22653259 233223390
L22875812 233668495
L23320917 233891047
L23988574 233891047
L24433679 233668495
L24656231 233445942
" />
<path d="M26881755 230775314
L26881755 233891047
" />
<path d="M26881755 231220419
L27104307 230997866
L27549412 230775314
L28217069 230775314
L28662174 230997866
L28884726 231442971
L28884726 233891047
" />
</g><text x="-3928900.000000" y="21263600.000000"
textLength="71967634.000000" font-size="6231466.000000" lengthAdjust="spacingAndGlyphs"
text-anchor="start" opacity="0">nRF9160 Thing Plus</text>
<g class="stroked-text"><desc>nRF9160 Thing Plus</desc>
<path d="M-2551978 17925314
L-2551978 21041047
" />
<path d="M-2551978 18370419
L-2329425 18147866
L-1884320 17925314
L-1216663 17925314
L-771559 18147866
L-549006 18592971
L-549006 21041047
" />
<path d="M4347145 21041047
L2789279 18815523
" />
<path d="M1676517 21041047
L1676517 16367447
L3456936 16367447
L3902040 16590000
L4124593 16812552
L4347145 17257657
L4347145 17925314
L4124593 18370419
L3902040 18592971
L3456936 18815523
L1676517 18815523
" />
<path d="M7907983 18592971
L6350117 18592971
" />
<path d="M6350117 21041047
L6350117 16367447
L8575640 16367447
" />
<path d="M10578612 21041047
L11468821 21041047
L11913926 20818495
L12136479 20595942
L12581583 19928285
L12804136 19038076
L12804136 17257657
L12581583 16812552
L12359031 16590000
L11913926 16367447
L11023717 16367447
L10578612 16590000
L10356059 16812552
L10133507 17257657
L10133507 18370419
L10356059 18815523
L10578612 19038076
L11023717 19260628
L11913926 19260628
L12359031 19038076
L12581583 18815523
L12804136 18370419
" />
<path d="M17255183 21041047
L14584555 21041047
" />
<path d="M15919869 21041047
L15919869 16367447
L15474764 17035104
L15029660 17480209
L14584555 17702761
" />
<path d="M21261126 16367447
L20370917 16367447
L19925812 16590000
L19703260 16812552
L19258155 17480209
L19035602 18370419
L19035602 20150838
L19258155 20595942
L19480707 20818495
L19925812 21041047
L20816021 21041047
L21261126 20818495
L21483679 20595942
L21706231 20150838
L21706231 19038076
L21483679 18592971
L21261126 18370419
L20816021 18147866
L19925812 18147866
L19480707 18370419
L19258155 18592971
L19035602 19038076
" />
<path d="M24599412 16367447
L25044517 16367447
L25489621 16590000
L25712174 16812552
L25934726 17257657
L26157279 18147866
L26157279 19260628
L25934726 20150838
L25712174 20595942
L25489621 20818495
L25044517 21041047
L24599412 21041047
L24154307 20818495
L23931755 20595942
L23709202 20150838
L23486650 19260628
L23486650 18147866
L23709202 17257657
L23931755 16812552
L24154307 16590000
L24599412 16367447
" />
<path d="M31053431 16367447
L33724060 16367447
" />
<path d="M32388745 21041047
L32388745 16367447
" />
<path d="M35281926 21041047
L35281926 16367447
" />
<path d="M37284898 21041047
L37284898 18592971
L37062345 18147866
L36617240 17925314
L35949583 17925314
L35504479 18147866
L35281926 18370419
" />
<path d="M39510421 21041047
L39510421 17925314
" />
<path d="M39510421 16367447
L39287869 16590000
L39510421 16812552
L39732974 16590000
L39510421 16367447
L39510421 16812552
" />
<path d="M41735945 17925314
L41735945 21041047
" />
<path d="M41735945 18370419
L41958498 18147866
L42403602 17925314
L43071260 17925314
L43516364 18147866
L43738917 18592971
L43738917 21041047
" />
<path d="M47967412 17925314
L47967412 21708704
L47744860 22153809
L47522307 22376361
L47077202 22598914
L46409545 22598914
L45964440 22376361
" />
<path d="M47967412 20818495
L47522307 21041047
L46632098 21041047
L46186993 20818495
L45964440 20595942
L45741888 20150838
L45741888 18815523
L45964440 18370419
L46186993 18147866
L46632098 17925314
L47522307 17925314
L47967412 18147866
" />
<path d="M53753774 21041047
L53753774 16367447
L55534193 16367447
L55979298 16590000
L56201850 16812552
L56424402 17257657
L56424402 17925314
L56201850 18370419
L55979298 18592971
L55534193 18815523
L53753774 18815523
" />
<path d="M59095031 21041047
L58649926 20818495
L58427374 20373390
L58427374 16367447
" />
<path d="M62878421 17925314
L62878421 21041047
" />
<path d="M60875450 17925314
L60875450 20373390
L61098002 20818495
L61543107 21041047
L62210764 21041047
L62655869 20818495
L62878421 20595942
" />
<path d="M64881393 20818495
L65326498 21041047
L66216707 21041047
L66661812 20818495
L66884364 20373390
L66884364 20150838
L66661812 19705733
L66216707 19483180
L65549050 19483180
L65103945 19260628
L64881393 18815523
L64881393 18592971
L65103945 18147866
L65549050 17925314
L66216707 17925314
L66661812 18147866
" />
</g></g>
<g style="fill:#5994DC; fill-opacity:0.0; 
stroke:#5994DC; stroke-width:203200.000000; stroke-opacity:1; 
stroke-linecap:round; stroke-linejoin:round;">
<text x="316521100.000000" y="239103600.000000"
textLength="29682682.000000" font-size="3115733.000000" lengthAdjust="spacingAndGlyphs"
text-anchor="start" opacity="0">&gt;DRAWING_NAME</text>
<g class="stroked-text"><desc>&gt;DRAWING_NAME</desc>
<path d="M317209560 237434457
L318989980 238102114
L317209560 238769771
" />
<path d="M320102741 238992323
L320102741 236655523
L320659122 236655523
L320992951 236766800
L321215503 236989352
L321326780 237211904
L321438056 237657009
L321438056 237990838
L321326780 238435942
L321215503 238658495
L320992951 238881047
L320659122 238992323
L320102741 238992323
" />
<path d="M323774856 238992323
L322995922 237879561
" />
<path d="M322439541 238992323
L322439541 236655523
L323329751 236655523
L323552303 236766800
L323663580 236878076
L323774856 237100628
L323774856 237434457
L323663580 237657009
L323552303 237768285
L323329751 237879561
L322439541 237879561
" />
<path d="M324665065 238324666
L325777827 238324666
" />
<path d="M324442513 238992323
L325221446 236655523
L326000380 238992323
" />
<path d="M326556760 236655523
L327113141 238992323
L327558246 237323180
L328003351 238992323
L328559732 236655523
" />
<path d="M329449941 238992323
L329449941 236655523
" />
<path d="M330562703 238992323
L330562703 236655523
L331898018 238992323
L331898018 236655523
" />
<path d="M334234818 236766800
L334012265 236655523
L333678437 236655523
L333344608 236766800
L333122056 236989352
L333010780 237211904
L332899503 237657009
L332899503 237990838
L333010780 238435942
L333122056 238658495
L333344608 238881047
L333678437 238992323
L333900989 238992323
L334234818 238881047
L334346094 238769771
L334346094 237990838
L333900989 237990838
" />
<path d="M334791199 239214876
L336571618 239214876
" />
<path d="M337127999 238992323
L337127999 236655523
L338463313 238992323
L338463313 236655523
" />
<path d="M339464799 238324666
L340577560 238324666
" />
<path d="M339242246 238992323
L340021180 236655523
L340800113 238992323
" />
<path d="M341579046 238992323
L341579046 236655523
L342357980 238324666
L343136913 236655523
L343136913 238992323
" />
<path d="M344249675 237768285
L345028608 237768285
" />
<path d="M345362437 238992323
L344249675 238992323
L344249675 236655523
L345362437 236655523
" />
</g></g>
<g style="fill:#5994DC; fill-opacity:0.0; 
stroke:#5994DC; stroke-width:182880.000000; stroke-opacity:1; 
stroke-linecap:round; stroke-linejoin:round;">
<text x="316521100.000000" y="244183600.000000"
textLength="27504571.000000" font-size="2804160.000000" lengthAdjust="spacingAndGlyphs"
text-anchor="start" opacity="0">&gt;LAST_DATE_TIME</text>
<g class="stroked-text"><desc>&gt;LAST_DATE_TIME</desc>
<path d="M317140714 242681371
L318743092 243282262
L317140714 243883154
" />
<path d="M320746063 244083451
L319744577 244083451
L319744577 241980331
" />
<path d="M321346954 243482560
L322348440 243482560
" />
<path d="M321146657 244083451
L321847697 241980331
L322548737 244083451
" />
<path d="M323149629 243983302
L323450074 244083451
L323950817 244083451
L324151114 243983302
L324251263 243883154
L324351412 243682857
L324351412 243482560
L324251263 243282262
L324151114 243182114
L323950817 243081965
L323550223 242981817
L323349926 242881668
L323249777 242781520
L323149629 242581222
L323149629 242380925
L323249777 242180628
L323349926 242080480
L323550223 241980331
L324050966 241980331
L324351412 242080480
" />
<path d="M324952303 241980331
L326154086 241980331
" />
<path d="M325553194 244083451
L325553194 241980331
" />
<path d="M326354383 244283748
L327956760 244283748
" />
<path d="M328457503 244083451
L328457503 241980331
L328958246 241980331
L329258692 242080480
L329458989 242280777
L329559137 242481074
L329659286 242881668
L329659286 243182114
L329559137 243582708
L329458989 243783005
L329258692 243983302
L328958246 244083451
L328457503 244083451
" />
<path d="M330460474 243482560
L331461960 243482560
" />
<path d="M330260177 244083451
L330961217 241980331
L331662257 244083451
" />
<path d="M332062852 241980331
L333264634 241980331
" />
<path d="M332663743 244083451
L332663743 241980331
" />
<path d="M333965674 242981817
L334666714 242981817
" />
<path d="M334967160 244083451
L333965674 244083451
L333965674 241980331
L334967160 241980331
" />
<path d="M335367754 244283748
L336970132 244283748
" />
<path d="M337170429 241980331
L338372212 241980331
" />
<path d="M337771320 244083451
L337771320 241980331
" />
<path d="M339073252 244083451
L339073252 241980331
" />
<path d="M340074737 244083451
L340074737 241980331
L340775777 243482560
L341476817 241980331
L341476817 244083451
" />
<path d="M342478303 242981817
L343179343 242981817
" />
<path d="M343479789 244083451
L342478303 244083451
L342478303 241980331
L343479789 241980331
" />
</g></g>
<g style="fill:#5994DC; fill-opacity:0.0; 
stroke:#5994DC; stroke-width:101600.000000; stroke-opacity:1; 
stroke-linecap:round; stroke-linejoin:round;">
<path d="M314616100 230213600
L355891100 230213600
" />
<path d="M355891100 240373600
L355891100 235293600
" />
<path d="M314616100 240373600
L314616100 235293600
" />
<path d="M314616100 245453600
L314616100 250533600
" />
<path d="M260641100 250533600
L314616100 250533600
" />
<path d="M355891100 245453600
L355891100 240373600
" />
<path d="M355891100 250533600
L355891100 245453600
" />
<path d="M260641100 230213600
L314616100 230213600
" />
<path d="M314616100 245453600
L314616100 240373600
" />
<path d="M345731100 250533600
L345731100 245453600
" />
<path d="M345731100 245453600
L314616100 245453600
" />
<path d="M355891100 235293600
L355891100 230213600
" />
<path d="M345731100 250533600
L355891100 250533600
" />
<path d="M345731100 245453600
L355891100 245453600
" />
<path d="M314616100 240373600
L355891100 240373600
" />
<path d="M314616100 235293600
L355891100 235293600
" />
<path d="M260641100 250533600
L260641100 230213600
" />
<path d="M314616100 235293600
L314616100 230213600
" />
<path d="M314616100 250533600
L345731100 250533600
" />
<g >
</g>
<g >
</g>
<g >
</g>
<g >
</g>
<g >
</g>
<g >
</g>
<g >
</g>
<g >
</g>
<g >
</g>
<g >
</g>
<g >
</g>
<g >
</g>
<g >
</g>
<g >
</g>
<g >
</g>
<g >
</g>
<g >
</g>
<g >
</g>
<g >
</g>
<g >
</g>
<g >
</g>
<g >
</g>
<g >
</g>
<g >
</g>
<g >
</g>
<g >
</g>
<g >
</g>
<g >
</g>
<g >
</g>
<g >
</g>
<g >
</g>
<g >
</g>
<g >
</g>
<g >
</g>
<g >
</g>
<g >
</g>
<g >
</g>
<g >
</g>
<g >
</g>
<g >
</g>
<g >
</g>
<g >
</g>
<g >
</g>
<g >
</g>
<g >
</g>
<g >
</g>
<g >
</g>
<g >
</g>
<g >
</g>
<g >
</g>
<g >
</g>
<g >
</g>
<g >
</g>
<g >
</g>
<g >
</g>
<g >
</g>
<g >
</g>
<g >
</g>
<g >
</g>
<g >
</g>
<g >
</g>
<g >
</g>
<g >
</g>
<g >
</g>
<g >
</g>
<g >
</g>
<g >
</g>
<g >
</g>
<g >
</g>
<g >
</g>
<g >
</g>
<g >
</g>
<g >
</g>
<g >
</g>
<g >
</g>
<g >
</g>
<g >
</g>
<g >
</g>
<g >
</g>
<g >
</g>
<g >
</g>
<g >
</g>
<g >
</g>
<g >
</g>
<g >
</g>
<g >
</g>
<g >
</g>
<g >
</g>
<g >
</g>
<g >
</g>
<g >
</g>
<g >
</g>
<g >
</g>
<g >
</g>
<g >
</g>
<g >
</g>
<g >
</g>
<g >
</g>
<g >
</g>
<g >
</g>
<g >
</g>
<g >
</g>
<g >
</g>
<g >
</g>
<g >
</g>
<g >
</g>
<g >
</g>
<g >
</g>
<g >
</g>
<g >
</g>
<g >
</g>
<g >
</g>
<g >
</g>
<g >
</g>
<g >
</g>
<g >
</g>
<g >
</g>
<g >
</g>
<g >
</g>
<g >
</g>
<g >
</g>
<g >
</g>
<g >
</g>
<g >
</g>
<g >
</g>
<g >
</g>
<g >
</g>
<g >
</g>
<g >
</g>
<g >
</g>
<g >
</g>
<g >
</g>
<g >
</g>
</g>
<g style="fill:#000000; fill-opacity:0.0; 
stroke:#000000; stroke-width:101600.000000; stroke-opacity:1; 
stroke-linecap:round; stroke-linejoin:round;">
</g>
<g style="fill:#D0D2CD; fill-opacity:0.0; 
stroke:#D0D2CD; stroke-width:101600.000000; stroke-opacity:1; 
stroke-linecap:round; stroke-linejoin:round;">
</g>
<g style="fill:#D0D2CD; fill-opacity:0.0; 
stroke:#D0D2CD; stroke-width:152400.000000; stroke-opacity:1; 
stroke-linecap:round; stroke-linejoin:round;">
<path d="M159931100.000000 78333600.000000 A2540000.000000 2540000.000000 0.0 0 0 157391100.000000 75793600.000000" />
<path d="M144351100 134213600
L144859100 133913600
" />
<path d="M157391100 75793600
L139611100 75793600
" />
<path d="M139611100 134213600
L144351100 134213600
" />
<path d="M137071100 78333600
L137071100 131673600
" />
<path d="M157391100.000000 134213600.000000 A2540000.000000 2540000.000000 0.0 0 0 159931100.000000 131673600.000000" />
<path d="M144859100 133913600
L152143100 133913600
" />
<path d="M139611100.000000 75793600.000000 A2540000.000000 2540000.000000 0.0 0 0 137071100.000000 78333600.000000" />
<path d="M152651100 134213600
L157391100 134213600
" />
<path d="M152143100 133913600
L152651100 134213600
" />
<path d="M159931100 131673600
L159931100 78333600
" />
<path d="M137071100.000000 131673600.000000 A2540000.000000 2540000.000000 0.0 0 0 139611100.000000 134213600.000000" />
<g >
</g>
<g >
</g>
<g >
</g>
<g >
</g>
<g >
</g>
<g >
</g>
<g >
</g>
<g >
</g>
<g >
</g>
<g >
</g>
<g >
</g>
<g >
</g>
<g >
</g>
<g >
</g>
<g >
</g>
<g >
</g>
<g >
</g>
<g >
</g>
<g >
</g>
<g >
</g>
<g >
</g>
<g >
</g>
<g >
</g>
<g >
</g>
<g >
</g>
<g >
</g>
<g >
</g>
<g >
</g>
<g >
</g>
<g >
</g>
<g >
</g>
<g >
</g>
<g >
</g>
<g >
</g>
<g >
</g>
<g >
</g>
<g >
</g>
<g >
</g>
<g >
</g>
<g >
</g>
<g >
</g>
<g >
</g>
<g >
</g>
<g >
</g>
<g >
</g>
<g >
</g>
<g >
</g>
<g >
</g>
<g >
</g>
<g >
</g>
<g >
</g>
<g >
</g>
<g >
</g>
<g >
</g>
<g >
</g>
<g >
</g>
<g >
</g>
<g >
</g>
<g >
</g>
<g >
</g>
<g >
</g>
<g >
</g>
<g >
</g>
<g >
</g>
<g >
</g>
<g >
</g>
<g >
</g>
<g >
</g>
<g >
</g>
<g >
</g>
<g >
</g>
<g >
</g>
<g >
</g>
<g >
</g>
<g >
</g>
<g >
</g>
<g >
</g>
<g >
</g>
<g >
</g>
<g >
</g>
<g >
</g>
<g >
</g>
<g >
</g>
<g >
</g>
<g >
</g>
<g >
</g>
<g >
</g>
<g >
</g>
<g >
</g>
<g >
</g>
<g >
</g>
<g >
</g>
<g >
</g>
<g >
</g>
<g >
</g>
<g >
</g>
<g >
</g>
<g >
</g>
<g >
</g>
<g >
</g>
<g >
</g>
<g >
</g>
<g >
</g>
<g >
</g>
<g >
</g>
<g >
</g>
<g >
</g>
<g >
</g>
<g >
</g>
<g >
</g>
<g >
</g>
<g >
</g>
<g >
</g>
<g >
</g>
<g >
</g>
<g >
</g>
<g >
</g>
<g >
</g>
<g >
</g>
<g >
</g>
<g >
</g>
<g >
</g>
<g >
</g>
<g >
</g>
<g >
</g>
<g >
</g>
<g >
</g>
<g >
</g>
<g >
</g>
<g >
</g>
<g >
</g>
<g >
</g>
<g >
</g>
</g> 
</svg>
