G04 EAGLE Gerber RS-274X export*
G75*
%MOMM*%
%FSLAX34Y34*%
%LPD*%
%INSolderpaste Top*%
%IPPOS*%
%AMOC8*
5,1,8,0,0,1.08239X$1,22.5*%
G01*
%ADD10R,1.270000X0.558800*%
%ADD11R,0.558800X1.270000*%
%ADD12R,1.240000X1.500000*%
%ADD13R,1.400000X3.556000*%
%ADD14R,3.556000X1.400000*%
%ADD15R,1.200000X1.200000*%
%ADD16R,1.400000X1.400000*%
%ADD17R,0.787400X0.889000*%
%ADD18R,1.500000X1.240000*%
%ADD19R,2.000000X0.700000*%
%ADD20R,1.350000X0.800000*%
%ADD21R,1.200000X1.500000*%
%ADD22R,1.300000X1.300000*%
%ADD23R,1.300000X3.600000*%
%ADD24R,2.000000X1.000000*%
%ADD25R,2.500000X2.500000*%
%ADD26R,1.250000X0.300000*%
%ADD27R,1.600000X1.800000*%
%ADD28R,3.200000X1.200000*%
%ADD29R,1.200000X1.300000*%
%ADD30R,1.200000X0.300000*%
%ADD31C,0.140000*%
%ADD32R,0.600000X0.600000*%
%ADD33R,1.200000X0.550000*%
%ADD34R,0.800000X1.000000*%
%ADD35R,1.500000X0.700000*%

G36*
X52278Y407873D02*
X52278Y407873D01*
X53552Y408073D01*
X53599Y408090D01*
X53689Y408111D01*
X54885Y408589D01*
X54928Y408616D01*
X55011Y408656D01*
X56071Y409388D01*
X56107Y409424D01*
X56178Y409482D01*
X57049Y410432D01*
X57076Y410474D01*
X57133Y410547D01*
X57770Y411667D01*
X57787Y411714D01*
X57826Y411797D01*
X58199Y413031D01*
X58204Y413081D01*
X58224Y413171D01*
X58313Y414456D01*
X58311Y414476D01*
X58314Y414500D01*
X58314Y425500D01*
X58312Y425515D01*
X58313Y425535D01*
X58252Y426661D01*
X58241Y426708D01*
X58233Y426784D01*
X57952Y427877D01*
X57932Y427921D01*
X57910Y427994D01*
X57422Y429011D01*
X57394Y429050D01*
X57357Y429117D01*
X56680Y430020D01*
X56645Y430053D01*
X56596Y430111D01*
X55756Y430864D01*
X55715Y430890D01*
X55655Y430938D01*
X54684Y431512D01*
X54639Y431529D01*
X54572Y431565D01*
X53507Y431939D01*
X53460Y431947D01*
X53387Y431969D01*
X52270Y432128D01*
X52242Y432127D01*
X52090Y432128D01*
X50974Y431969D01*
X50928Y431954D01*
X50853Y431939D01*
X49788Y431565D01*
X49746Y431541D01*
X49676Y431512D01*
X48705Y430938D01*
X48668Y430906D01*
X48604Y430864D01*
X47764Y430111D01*
X47735Y430074D01*
X47680Y430020D01*
X47003Y429117D01*
X46981Y429074D01*
X46938Y429011D01*
X46450Y427994D01*
X46437Y427947D01*
X46408Y427877D01*
X46127Y426784D01*
X46124Y426736D01*
X46108Y426661D01*
X46047Y425535D01*
X46049Y425519D01*
X46046Y425500D01*
X46046Y414500D01*
X46049Y414485D01*
X46047Y414465D01*
X46108Y413339D01*
X46120Y413292D01*
X46127Y413216D01*
X46408Y412123D01*
X46428Y412079D01*
X46450Y412006D01*
X46938Y410989D01*
X46967Y410950D01*
X47003Y410883D01*
X47680Y409980D01*
X47715Y409947D01*
X47764Y409889D01*
X48604Y409136D01*
X48645Y409110D01*
X48705Y409062D01*
X49676Y408488D01*
X49721Y408471D01*
X49788Y408435D01*
X50853Y408061D01*
X50900Y408053D01*
X50974Y408031D01*
X52090Y407872D01*
X52091Y407872D01*
X52278Y407873D01*
G37*
G36*
X52278Y329873D02*
X52278Y329873D01*
X53552Y330073D01*
X53599Y330090D01*
X53689Y330111D01*
X54885Y330589D01*
X54928Y330616D01*
X55011Y330656D01*
X56071Y331388D01*
X56107Y331424D01*
X56178Y331482D01*
X57049Y332432D01*
X57076Y332474D01*
X57133Y332547D01*
X57770Y333667D01*
X57787Y333714D01*
X57826Y333797D01*
X58199Y335031D01*
X58204Y335081D01*
X58224Y335171D01*
X58313Y336456D01*
X58311Y336476D01*
X58314Y336500D01*
X58314Y347500D01*
X58312Y347515D01*
X58313Y347535D01*
X58252Y348661D01*
X58241Y348708D01*
X58233Y348784D01*
X57952Y349877D01*
X57932Y349921D01*
X57910Y349994D01*
X57422Y351011D01*
X57394Y351050D01*
X57357Y351117D01*
X56680Y352020D01*
X56645Y352053D01*
X56596Y352111D01*
X55756Y352864D01*
X55715Y352890D01*
X55655Y352938D01*
X54684Y353512D01*
X54639Y353529D01*
X54572Y353565D01*
X53507Y353939D01*
X53460Y353947D01*
X53387Y353969D01*
X52270Y354128D01*
X52242Y354127D01*
X52090Y354128D01*
X50974Y353969D01*
X50928Y353954D01*
X50853Y353939D01*
X49788Y353565D01*
X49746Y353541D01*
X49676Y353512D01*
X48705Y352938D01*
X48668Y352906D01*
X48604Y352864D01*
X47764Y352111D01*
X47735Y352074D01*
X47680Y352020D01*
X47003Y351117D01*
X46981Y351074D01*
X46938Y351011D01*
X46450Y349994D01*
X46437Y349947D01*
X46408Y349877D01*
X46127Y348784D01*
X46124Y348736D01*
X46108Y348661D01*
X46047Y347535D01*
X46049Y347519D01*
X46046Y347500D01*
X46046Y336500D01*
X46049Y336485D01*
X46047Y336465D01*
X46108Y335339D01*
X46120Y335292D01*
X46127Y335216D01*
X46408Y334123D01*
X46428Y334079D01*
X46450Y334006D01*
X46938Y332989D01*
X46967Y332950D01*
X47003Y332883D01*
X47680Y331980D01*
X47715Y331947D01*
X47764Y331889D01*
X48604Y331136D01*
X48645Y331110D01*
X48705Y331062D01*
X49676Y330488D01*
X49721Y330471D01*
X49788Y330435D01*
X50853Y330061D01*
X50900Y330053D01*
X50974Y330031D01*
X52090Y329872D01*
X52091Y329872D01*
X52278Y329873D01*
G37*
D10*
G36*
X582268Y287722D02*
X591247Y296701D01*
X595198Y292750D01*
X586219Y283771D01*
X582268Y287722D01*
G37*
G36*
X576612Y293379D02*
X585591Y302358D01*
X589542Y298407D01*
X580563Y289428D01*
X576612Y293379D01*
G37*
G36*
X570955Y299036D02*
X579934Y308015D01*
X583885Y304064D01*
X574906Y295085D01*
X570955Y299036D01*
G37*
G36*
X565298Y304693D02*
X574277Y313672D01*
X578228Y309721D01*
X569249Y300742D01*
X565298Y304693D01*
G37*
G36*
X559641Y310349D02*
X568620Y319328D01*
X572571Y315377D01*
X563592Y306398D01*
X559641Y310349D01*
G37*
G36*
X553984Y316006D02*
X562963Y324985D01*
X566914Y321034D01*
X557935Y312055D01*
X553984Y316006D01*
G37*
G36*
X548327Y321663D02*
X557306Y330642D01*
X561257Y326691D01*
X552278Y317712D01*
X548327Y321663D01*
G37*
G36*
X542670Y327320D02*
X551649Y336299D01*
X555600Y332348D01*
X546621Y323369D01*
X542670Y327320D01*
G37*
D11*
G36*
X521562Y332348D02*
X525513Y336299D01*
X534492Y327320D01*
X530541Y323369D01*
X521562Y332348D01*
G37*
G36*
X515905Y326691D02*
X519856Y330642D01*
X528835Y321663D01*
X524884Y317712D01*
X515905Y326691D01*
G37*
G36*
X510248Y321034D02*
X514199Y324985D01*
X523178Y316006D01*
X519227Y312055D01*
X510248Y321034D01*
G37*
G36*
X504591Y315377D02*
X508542Y319328D01*
X517521Y310349D01*
X513570Y306398D01*
X504591Y315377D01*
G37*
G36*
X498934Y309721D02*
X502885Y313672D01*
X511864Y304693D01*
X507913Y300742D01*
X498934Y309721D01*
G37*
G36*
X493278Y304064D02*
X497229Y308015D01*
X506208Y299036D01*
X502257Y295085D01*
X493278Y304064D01*
G37*
G36*
X487621Y298407D02*
X491572Y302358D01*
X500551Y293379D01*
X496600Y289428D01*
X487621Y298407D01*
G37*
G36*
X481964Y292750D02*
X485915Y296701D01*
X494894Y287722D01*
X490943Y283771D01*
X481964Y292750D01*
G37*
D10*
G36*
X481964Y266613D02*
X490943Y275592D01*
X494894Y271641D01*
X485915Y262662D01*
X481964Y266613D01*
G37*
G36*
X487621Y260957D02*
X496600Y269936D01*
X500551Y265985D01*
X491572Y257006D01*
X487621Y260957D01*
G37*
G36*
X493278Y255300D02*
X502257Y264279D01*
X506208Y260328D01*
X497229Y251349D01*
X493278Y255300D01*
G37*
G36*
X498934Y249643D02*
X507913Y258622D01*
X511864Y254671D01*
X502885Y245692D01*
X498934Y249643D01*
G37*
G36*
X504591Y243986D02*
X513570Y252965D01*
X517521Y249014D01*
X508542Y240035D01*
X504591Y243986D01*
G37*
G36*
X510248Y238329D02*
X519227Y247308D01*
X523178Y243357D01*
X514199Y234378D01*
X510248Y238329D01*
G37*
G36*
X515905Y232672D02*
X524884Y241651D01*
X528835Y237700D01*
X519856Y228721D01*
X515905Y232672D01*
G37*
G36*
X521562Y227015D02*
X530541Y235994D01*
X534492Y232043D01*
X525513Y223064D01*
X521562Y227015D01*
G37*
D11*
G36*
X542670Y232043D02*
X546621Y235994D01*
X555600Y227015D01*
X551649Y223064D01*
X542670Y232043D01*
G37*
G36*
X548327Y237700D02*
X552278Y241651D01*
X561257Y232672D01*
X557306Y228721D01*
X548327Y237700D01*
G37*
G36*
X553984Y243357D02*
X557935Y247308D01*
X566914Y238329D01*
X562963Y234378D01*
X553984Y243357D01*
G37*
G36*
X559641Y249014D02*
X563592Y252965D01*
X572571Y243986D01*
X568620Y240035D01*
X559641Y249014D01*
G37*
G36*
X565298Y254671D02*
X569249Y258622D01*
X578228Y249643D01*
X574277Y245692D01*
X565298Y254671D01*
G37*
G36*
X570955Y260328D02*
X574906Y264279D01*
X583885Y255300D01*
X579934Y251349D01*
X570955Y260328D01*
G37*
G36*
X576612Y265985D02*
X580563Y269936D01*
X589542Y260957D01*
X585591Y257006D01*
X576612Y265985D01*
G37*
G36*
X582268Y271641D02*
X586219Y275592D01*
X595198Y266613D01*
X591247Y262662D01*
X582268Y271641D01*
G37*
D12*
X177190Y44450D03*
X196190Y44450D03*
D13*
X190754Y76330D03*
X190754Y129410D03*
D14*
X242440Y182626D03*
X189360Y182626D03*
D15*
X46060Y246380D03*
X25060Y246380D03*
D16*
X155914Y133858D03*
X118914Y133858D03*
D12*
X276200Y425450D03*
X257200Y425450D03*
D15*
X26330Y316230D03*
X47330Y316230D03*
D17*
X173736Y261620D03*
X154432Y261620D03*
X164084Y241300D03*
D18*
X200660Y385470D03*
X200660Y404470D03*
D12*
G36*
X593931Y342917D02*
X602699Y351685D01*
X613305Y341079D01*
X604537Y332311D01*
X593931Y342917D01*
G37*
G36*
X580495Y329481D02*
X589263Y338249D01*
X599869Y327643D01*
X591101Y318875D01*
X580495Y329481D01*
G37*
X255880Y57150D03*
X236880Y57150D03*
D19*
G36*
X571434Y357107D02*
X557293Y342966D01*
X552344Y347915D01*
X566485Y362056D01*
X571434Y357107D01*
G37*
G36*
X578505Y350036D02*
X564364Y335895D01*
X559415Y340844D01*
X573556Y354985D01*
X578505Y350036D01*
G37*
G36*
X585576Y342965D02*
X571435Y328824D01*
X566486Y333773D01*
X580627Y347914D01*
X585576Y342965D01*
G37*
D20*
X636270Y384810D03*
X610870Y384810D03*
D21*
G36*
X495112Y226475D02*
X503597Y217990D01*
X492992Y207385D01*
X484507Y215870D01*
X495112Y226475D01*
G37*
G36*
X480263Y241324D02*
X488748Y232839D01*
X478143Y222234D01*
X469658Y230719D01*
X480263Y241324D01*
G37*
D22*
X159278Y161404D03*
X159278Y184404D03*
X159278Y207404D03*
D23*
X98278Y184404D03*
D12*
X178460Y226060D03*
X197460Y226060D03*
X235610Y80010D03*
X254610Y80010D03*
D17*
X128524Y92710D03*
X147828Y92710D03*
X138176Y113030D03*
D12*
X128930Y76200D03*
X147930Y76200D03*
D24*
X23180Y388500D03*
X23180Y373500D03*
D25*
X24180Y417000D03*
X24180Y345000D03*
D26*
X50930Y394000D03*
X50930Y387500D03*
X50930Y381000D03*
X50930Y374500D03*
X50930Y368000D03*
D15*
X46060Y270510D03*
X25060Y270510D03*
D12*
X66700Y270510D03*
X85700Y270510D03*
D15*
X46060Y294640D03*
X25060Y294640D03*
D12*
X66700Y294640D03*
X85700Y294640D03*
D18*
X167640Y344780D03*
X167640Y325780D03*
D27*
X71090Y431800D03*
X99090Y431800D03*
D18*
X132080Y344780D03*
X132080Y325780D03*
X149860Y344780D03*
X149860Y325780D03*
D12*
X85700Y246380D03*
X66700Y246380D03*
D28*
X97500Y474030D03*
X29500Y474030D03*
X29500Y514030D03*
X97500Y514030D03*
D29*
X612140Y403860D03*
X632460Y403860D03*
D12*
X66700Y316230D03*
X85700Y316230D03*
D18*
X218440Y404470D03*
X218440Y385470D03*
D12*
X170790Y420370D03*
X151790Y420370D03*
X170790Y400050D03*
X151790Y400050D03*
D18*
X226060Y244450D03*
X226060Y225450D03*
D12*
X198780Y261620D03*
X217780Y261620D03*
G36*
X453373Y247221D02*
X444605Y255989D01*
X455211Y266595D01*
X463979Y257827D01*
X453373Y247221D01*
G37*
G36*
X466809Y233785D02*
X458041Y242553D01*
X468647Y253159D01*
X477415Y244391D01*
X466809Y233785D01*
G37*
D18*
X17780Y457810D03*
X17780Y438810D03*
D30*
X168110Y278530D03*
X168110Y285030D03*
X168110Y291530D03*
X168110Y298030D03*
X210360Y298030D03*
X210360Y291530D03*
X210360Y285030D03*
X210360Y278530D03*
D18*
X130810Y300330D03*
X130810Y281330D03*
X148590Y281330D03*
X148590Y300330D03*
D31*
X94552Y401312D02*
X87952Y401312D01*
X94552Y401312D02*
X94552Y399912D01*
X87952Y399912D01*
X87952Y401312D01*
X87952Y401242D02*
X94552Y401242D01*
X94552Y396312D02*
X87952Y396312D01*
X94552Y396312D02*
X94552Y394912D01*
X87952Y394912D01*
X87952Y396312D01*
X87952Y396242D02*
X94552Y396242D01*
X94552Y391312D02*
X87952Y391312D01*
X94552Y391312D02*
X94552Y389912D01*
X87952Y389912D01*
X87952Y391312D01*
X87952Y391242D02*
X94552Y391242D01*
X94552Y386312D02*
X87952Y386312D01*
X94552Y386312D02*
X94552Y384912D01*
X87952Y384912D01*
X87952Y386312D01*
X87952Y386242D02*
X94552Y386242D01*
X94552Y381312D02*
X87952Y381312D01*
X94552Y381312D02*
X94552Y379912D01*
X87952Y379912D01*
X87952Y381312D01*
X87952Y381242D02*
X94552Y381242D01*
X94552Y376312D02*
X87952Y376312D01*
X94552Y376312D02*
X94552Y374912D01*
X87952Y374912D01*
X87952Y376312D01*
X87952Y376242D02*
X94552Y376242D01*
X99452Y371412D02*
X99452Y364812D01*
X98052Y364812D01*
X98052Y371412D01*
X99452Y371412D01*
X99452Y366142D02*
X98052Y366142D01*
X98052Y367472D02*
X99452Y367472D01*
X99452Y368802D02*
X98052Y368802D01*
X98052Y370132D02*
X99452Y370132D01*
X104452Y371412D02*
X104452Y364812D01*
X103052Y364812D01*
X103052Y371412D01*
X104452Y371412D01*
X104452Y366142D02*
X103052Y366142D01*
X103052Y367472D02*
X104452Y367472D01*
X104452Y368802D02*
X103052Y368802D01*
X103052Y370132D02*
X104452Y370132D01*
X109452Y371412D02*
X109452Y364812D01*
X108052Y364812D01*
X108052Y371412D01*
X109452Y371412D01*
X109452Y366142D02*
X108052Y366142D01*
X108052Y367472D02*
X109452Y367472D01*
X109452Y368802D02*
X108052Y368802D01*
X108052Y370132D02*
X109452Y370132D01*
X114452Y371412D02*
X114452Y364812D01*
X113052Y364812D01*
X113052Y371412D01*
X114452Y371412D01*
X114452Y366142D02*
X113052Y366142D01*
X113052Y367472D02*
X114452Y367472D01*
X114452Y368802D02*
X113052Y368802D01*
X113052Y370132D02*
X114452Y370132D01*
X119452Y371412D02*
X119452Y364812D01*
X118052Y364812D01*
X118052Y371412D01*
X119452Y371412D01*
X119452Y366142D02*
X118052Y366142D01*
X118052Y367472D02*
X119452Y367472D01*
X119452Y368802D02*
X118052Y368802D01*
X118052Y370132D02*
X119452Y370132D01*
X124452Y371412D02*
X124452Y364812D01*
X123052Y364812D01*
X123052Y371412D01*
X124452Y371412D01*
X124452Y366142D02*
X123052Y366142D01*
X123052Y367472D02*
X124452Y367472D01*
X124452Y368802D02*
X123052Y368802D01*
X123052Y370132D02*
X124452Y370132D01*
X127952Y374912D02*
X134552Y374912D01*
X127952Y374912D02*
X127952Y376312D01*
X134552Y376312D01*
X134552Y374912D01*
X134552Y376242D02*
X127952Y376242D01*
X127952Y379912D02*
X134552Y379912D01*
X127952Y379912D02*
X127952Y381312D01*
X134552Y381312D01*
X134552Y379912D01*
X134552Y381242D02*
X127952Y381242D01*
X127952Y384912D02*
X134552Y384912D01*
X127952Y384912D02*
X127952Y386312D01*
X134552Y386312D01*
X134552Y384912D01*
X134552Y386242D02*
X127952Y386242D01*
X127952Y389912D02*
X134552Y389912D01*
X127952Y389912D02*
X127952Y391312D01*
X134552Y391312D01*
X134552Y389912D01*
X134552Y391242D02*
X127952Y391242D01*
X127952Y394912D02*
X134552Y394912D01*
X127952Y394912D02*
X127952Y396312D01*
X134552Y396312D01*
X134552Y394912D01*
X134552Y396242D02*
X127952Y396242D01*
X127952Y399912D02*
X134552Y399912D01*
X127952Y399912D02*
X127952Y401312D01*
X134552Y401312D01*
X134552Y399912D01*
X134552Y401242D02*
X127952Y401242D01*
X123052Y404812D02*
X123052Y411412D01*
X124452Y411412D01*
X124452Y404812D01*
X123052Y404812D01*
X123052Y406142D02*
X124452Y406142D01*
X124452Y407472D02*
X123052Y407472D01*
X123052Y408802D02*
X124452Y408802D01*
X124452Y410132D02*
X123052Y410132D01*
X118052Y411412D02*
X118052Y404812D01*
X118052Y411412D02*
X119452Y411412D01*
X119452Y404812D01*
X118052Y404812D01*
X118052Y406142D02*
X119452Y406142D01*
X119452Y407472D02*
X118052Y407472D01*
X118052Y408802D02*
X119452Y408802D01*
X119452Y410132D02*
X118052Y410132D01*
X113052Y411412D02*
X113052Y404812D01*
X113052Y411412D02*
X114452Y411412D01*
X114452Y404812D01*
X113052Y404812D01*
X113052Y406142D02*
X114452Y406142D01*
X114452Y407472D02*
X113052Y407472D01*
X113052Y408802D02*
X114452Y408802D01*
X114452Y410132D02*
X113052Y410132D01*
X108052Y411412D02*
X108052Y404812D01*
X108052Y411412D02*
X109452Y411412D01*
X109452Y404812D01*
X108052Y404812D01*
X108052Y406142D02*
X109452Y406142D01*
X109452Y407472D02*
X108052Y407472D01*
X108052Y408802D02*
X109452Y408802D01*
X109452Y410132D02*
X108052Y410132D01*
X103052Y411412D02*
X103052Y404812D01*
X103052Y411412D02*
X104452Y411412D01*
X104452Y404812D01*
X103052Y404812D01*
X103052Y406142D02*
X104452Y406142D01*
X104452Y407472D02*
X103052Y407472D01*
X103052Y408802D02*
X104452Y408802D01*
X104452Y410132D02*
X103052Y410132D01*
X98052Y411412D02*
X98052Y404812D01*
X98052Y411412D02*
X99452Y411412D01*
X99452Y404812D01*
X98052Y404812D01*
X98052Y406142D02*
X99452Y406142D01*
X99452Y407472D02*
X98052Y407472D01*
X98052Y408802D02*
X99452Y408802D01*
X99452Y410132D02*
X98052Y410132D01*
D32*
X102252Y379112D03*
X111252Y388112D03*
X102252Y388112D03*
X102252Y397112D03*
X120252Y397112D03*
X120252Y379112D03*
X120252Y388112D03*
X111252Y397112D03*
X111252Y379112D03*
D12*
X157124Y368808D03*
X176124Y368808D03*
D33*
X211789Y37440D03*
X211789Y27940D03*
X211789Y18440D03*
X237791Y18440D03*
X237791Y37440D03*
D34*
X18210Y219380D03*
X40210Y219380D03*
X40210Y146380D03*
X18210Y146380D03*
D35*
X46710Y160380D03*
X46710Y175380D03*
X46710Y205380D03*
M02*
