G04 EAGLE Gerber RS-274X export*
G75*
%MOMM*%
%FSLAX34Y34*%
%LPD*%
%IN*%
%IPPOS*%
%AMOC8*
5,1,8,0,0,1.08239X$1,22.5*%
G01*
%ADD10C,0.254000*%


D10*
X0Y25400D02*
X97Y23186D01*
X386Y20989D01*
X865Y18826D01*
X1532Y16713D01*
X2380Y14666D01*
X3403Y12700D01*
X4594Y10831D01*
X5942Y9073D01*
X7440Y7440D01*
X9073Y5942D01*
X10831Y4594D01*
X12700Y3403D01*
X14666Y2380D01*
X16713Y1532D01*
X18826Y865D01*
X20989Y386D01*
X23186Y97D01*
X25400Y0D01*
X508000Y0D01*
X510214Y97D01*
X512411Y386D01*
X514574Y865D01*
X516687Y1532D01*
X518735Y2380D01*
X520700Y3403D01*
X522569Y4594D01*
X524327Y5942D01*
X525961Y7440D01*
X527458Y9073D01*
X528806Y10831D01*
X529997Y12700D01*
X531020Y14666D01*
X531868Y16713D01*
X532535Y18826D01*
X533014Y20989D01*
X533303Y23186D01*
X533400Y25400D01*
X533400Y381000D01*
X533303Y383214D01*
X533014Y385411D01*
X532535Y387574D01*
X531868Y389687D01*
X531020Y391735D01*
X529997Y393700D01*
X528806Y395569D01*
X527458Y397327D01*
X525961Y398961D01*
X524327Y400458D01*
X522569Y401806D01*
X520700Y402997D01*
X518735Y404020D01*
X516687Y404868D01*
X514574Y405535D01*
X512411Y406014D01*
X510214Y406303D01*
X508000Y406400D01*
X25400Y406400D01*
X23186Y406303D01*
X20989Y406014D01*
X18826Y405535D01*
X16713Y404868D01*
X14666Y404020D01*
X12700Y402997D01*
X10831Y401806D01*
X9073Y400458D01*
X7440Y398961D01*
X5942Y397327D01*
X4594Y395569D01*
X3403Y393700D01*
X2380Y391735D01*
X1532Y389687D01*
X865Y387574D01*
X386Y385411D01*
X97Y383214D01*
X0Y381000D01*
X0Y25400D01*
X155497Y379190D02*
X154715Y379267D01*
X153944Y379420D01*
X153192Y379649D01*
X152465Y379949D01*
X151772Y380320D01*
X151119Y380757D01*
X150511Y381255D01*
X149955Y381811D01*
X149457Y382419D01*
X149020Y383072D01*
X148649Y383765D01*
X148349Y384492D01*
X148120Y385244D01*
X147967Y386015D01*
X147890Y386797D01*
X147890Y387583D01*
X147967Y388365D01*
X148120Y389136D01*
X148349Y389888D01*
X148649Y390615D01*
X149020Y391308D01*
X149457Y391961D01*
X149955Y392569D01*
X150511Y393125D01*
X151119Y393623D01*
X151772Y394060D01*
X152465Y394431D01*
X153192Y394731D01*
X153944Y394960D01*
X154715Y395113D01*
X155497Y395190D01*
X156283Y395190D01*
X157065Y395113D01*
X157836Y394960D01*
X158588Y394731D01*
X159315Y394431D01*
X160008Y394060D01*
X160661Y393623D01*
X161269Y393125D01*
X161825Y392569D01*
X162323Y391961D01*
X162760Y391308D01*
X163131Y390615D01*
X163431Y389888D01*
X163660Y389136D01*
X163813Y388365D01*
X163890Y387583D01*
X163890Y386797D01*
X163813Y386015D01*
X163660Y385244D01*
X163431Y384492D01*
X163131Y383765D01*
X162760Y383072D01*
X162323Y382419D01*
X161825Y381811D01*
X161269Y381255D01*
X160661Y380757D01*
X160008Y380320D01*
X159315Y379949D01*
X158588Y379649D01*
X157836Y379420D01*
X157065Y379267D01*
X156283Y379190D01*
X155497Y379190D01*
X155497Y333190D02*
X154714Y333259D01*
X153940Y333395D01*
X153181Y333598D01*
X152443Y333867D01*
X151730Y334199D01*
X151050Y334592D01*
X150406Y335043D01*
X149804Y335548D01*
X149248Y336104D01*
X148743Y336706D01*
X148292Y337350D01*
X147899Y338030D01*
X147567Y338743D01*
X147298Y339481D01*
X147095Y340240D01*
X146959Y341014D01*
X146890Y341797D01*
X146890Y342583D01*
X146959Y343366D01*
X147095Y344140D01*
X147298Y344899D01*
X147567Y345637D01*
X147899Y346350D01*
X148292Y347030D01*
X148743Y347674D01*
X149248Y348276D01*
X149804Y348832D01*
X150406Y349337D01*
X151050Y349788D01*
X151730Y350181D01*
X152443Y350513D01*
X153181Y350782D01*
X153940Y350985D01*
X154714Y351122D01*
X155497Y351190D01*
X156283Y351190D01*
X157066Y351122D01*
X157840Y350985D01*
X158599Y350782D01*
X159337Y350513D01*
X160050Y350181D01*
X160730Y349788D01*
X161374Y349337D01*
X161976Y348832D01*
X162532Y348276D01*
X163037Y347674D01*
X163488Y347030D01*
X163881Y346350D01*
X164213Y345637D01*
X164482Y344899D01*
X164685Y344140D01*
X164822Y343366D01*
X164890Y342583D01*
X164890Y341797D01*
X164822Y341014D01*
X164685Y340240D01*
X164482Y339481D01*
X164213Y338743D01*
X163881Y338030D01*
X163488Y337350D01*
X163037Y336706D01*
X162532Y336104D01*
X161976Y335548D01*
X161374Y335043D01*
X160730Y334592D01*
X160050Y334199D01*
X159337Y333867D01*
X158599Y333598D01*
X157840Y333395D01*
X157066Y333259D01*
X156283Y333190D01*
X155497Y333190D01*
X45000Y168473D02*
X44924Y167604D01*
X44772Y166744D01*
X44546Y165900D01*
X44248Y165080D01*
X43879Y164288D01*
X43442Y163532D01*
X42941Y162817D01*
X42380Y162148D01*
X41762Y161530D01*
X41093Y160969D01*
X40378Y160468D01*
X39622Y160031D01*
X38830Y159662D01*
X38010Y159364D01*
X37166Y159138D01*
X36307Y158986D01*
X35437Y158910D01*
X34563Y158910D01*
X33694Y158986D01*
X32834Y159138D01*
X31990Y159364D01*
X31170Y159662D01*
X30378Y160031D01*
X29622Y160468D01*
X28907Y160969D01*
X28238Y161530D01*
X27620Y162148D01*
X27059Y162817D01*
X26558Y163532D01*
X26121Y164288D01*
X25752Y165080D01*
X25454Y165900D01*
X25228Y166744D01*
X25076Y167604D01*
X25000Y168473D01*
X25000Y169347D01*
X25076Y170217D01*
X25228Y171076D01*
X25454Y171920D01*
X25752Y172740D01*
X26121Y173532D01*
X26558Y174288D01*
X27059Y175003D01*
X27620Y175672D01*
X28238Y176290D01*
X28907Y176851D01*
X29622Y177352D01*
X30378Y177789D01*
X31170Y178158D01*
X31990Y178456D01*
X32834Y178682D01*
X33694Y178834D01*
X34563Y178910D01*
X35437Y178910D01*
X36307Y178834D01*
X37166Y178682D01*
X38010Y178456D01*
X38830Y178158D01*
X39622Y177789D01*
X40378Y177352D01*
X41093Y176851D01*
X41762Y176290D01*
X42380Y175672D01*
X42941Y175003D01*
X43442Y174288D01*
X43879Y173532D01*
X44248Y172740D01*
X44546Y171920D01*
X44772Y171076D01*
X44924Y170217D01*
X45000Y169347D01*
X45000Y168473D01*
X115000Y168473D02*
X114924Y167604D01*
X114772Y166744D01*
X114546Y165900D01*
X114248Y165080D01*
X113879Y164288D01*
X113442Y163532D01*
X112941Y162817D01*
X112380Y162148D01*
X111762Y161530D01*
X111093Y160969D01*
X110378Y160468D01*
X109622Y160031D01*
X108830Y159662D01*
X108010Y159364D01*
X107166Y159138D01*
X106307Y158986D01*
X105437Y158910D01*
X104563Y158910D01*
X103694Y158986D01*
X102834Y159138D01*
X101990Y159364D01*
X101170Y159662D01*
X100378Y160031D01*
X99622Y160468D01*
X98907Y160969D01*
X98238Y161530D01*
X97620Y162148D01*
X97059Y162817D01*
X96558Y163532D01*
X96121Y164288D01*
X95752Y165080D01*
X95454Y165900D01*
X95228Y166744D01*
X95076Y167604D01*
X95000Y168473D01*
X95000Y169347D01*
X95076Y170217D01*
X95228Y171076D01*
X95454Y171920D01*
X95752Y172740D01*
X96121Y173532D01*
X96558Y174288D01*
X97059Y175003D01*
X97620Y175672D01*
X98238Y176290D01*
X98907Y176851D01*
X99622Y177352D01*
X100378Y177789D01*
X101170Y178158D01*
X101990Y178456D01*
X102834Y178682D01*
X103694Y178834D01*
X104563Y178910D01*
X105437Y178910D01*
X106307Y178834D01*
X107166Y178682D01*
X108010Y178456D01*
X108830Y178158D01*
X109622Y177789D01*
X110378Y177352D01*
X111093Y176851D01*
X111762Y176290D01*
X112380Y175672D01*
X112941Y175003D01*
X113442Y174288D01*
X113879Y173532D01*
X114248Y172740D01*
X114546Y171920D01*
X114772Y171076D01*
X114924Y170217D01*
X115000Y169347D01*
X115000Y168473D01*
M02*
