<?xml version="1.0" standalone="no"?>
 <!DOCTYPE svg PUBLIC "-//W3C//DTD SVG 1.1//EN" 
 "http://www.w3.org/Graphics/SVG/1.1/DTD/svg11.dtd"> 
<svg
  xmlns:svg="http://www.w3.org/2000/svg"
  xmlns="http://www.w3.org/2000/svg"
  xmlns:xlink="http://www.w3.org/1999/xlink"
  version="1.1"
  width="29.700220cm" height="21.000720cm" viewBox="0 0 297002200 210007200">
<title>SVG Picture created as boardKicad-F_Silkscreen.svg date 2022/08/16 06:03:45 </title>
  <desc>Picture generated by PCBNEW </desc>
<g style="fill:#000000; fill-opacity:1.000000;stroke:#000000; stroke-opacity:1.000000;
stroke-linecap:round; stroke-linejoin:round;"
 transform="translate(0 0) scale(1 1)">
</g>
<g style="fill:#000000; fill-opacity:0.0; 
stroke:#000000; stroke-width:0.000000; stroke-opacity:1; 
stroke-linecap:round; stroke-linejoin:round;">
</g>
<g style="fill:#000000; fill-opacity:0.0; 
stroke:#000000; stroke-width:21200.000000; stroke-opacity:1; 
stroke-linecap:round; stroke-linejoin:round;">
</g>
<g style="fill:#000000; fill-opacity:0.0; 
stroke:#000000; stroke-width:150000.000000; stroke-opacity:1; 
stroke-linecap:round; stroke-linejoin:round;">
<rect x="177002200.000000" y="166007200.000000" width="108000000.000000" height="32000000.000000" rx="0.000000" />
</g>
<g style="fill:#000000; fill-opacity:0.0; 
stroke:#000000; stroke-width:21200.000000; stroke-opacity:1; 
stroke-linecap:round; stroke-linejoin:round;">
</g>
<g style="fill:#000000; fill-opacity:0.0; 
stroke:#000000; stroke-width:150000.000000; stroke-opacity:1; 
stroke-linecap:round; stroke-linejoin:round;">
<rect x="10000000.000000" y="10000000.000000" width="277002200.000000" height="190007200.000000" rx="0.000000" />
</g>
<g style="fill:#000000; fill-opacity:0.0; 
stroke:#000000; stroke-width:21200.000000; stroke-opacity:1; 
stroke-linecap:round; stroke-linejoin:round;">
</g>
<g style="fill:#000000; fill-opacity:0.0; 
stroke:#000000; stroke-width:150000.000000; stroke-opacity:1; 
stroke-linecap:round; stroke-linejoin:round;">
<rect x="12000000.000000" y="12000000.000000" width="273002200.000000" height="186007200.000000" rx="0.000000" />
</g>
<g style="fill:#000000; fill-opacity:0.0; 
stroke:#000000; stroke-width:21200.000000; stroke-opacity:1; 
stroke-linecap:round; stroke-linejoin:round;">
</g>
<g style="fill:#000000; fill-opacity:0.0; 
stroke:#000000; stroke-width:150000.000000; stroke-opacity:1; 
stroke-linecap:round; stroke-linejoin:round;">
<path d="M60000000 12000000
L60000000 10000000
" />
</g>
<g style="fill:#000000; fill-opacity:0.0; 
stroke:#000000; stroke-width:21200.000000; stroke-opacity:1; 
stroke-linecap:round; stroke-linejoin:round;">
</g>
<g style="fill:#000000; fill-opacity:0.0; 
stroke:#000000; stroke-width:150000.000000; stroke-opacity:1; 
stroke-linecap:round; stroke-linejoin:round;">
<path d="M110000000 12000000
L110000000 10000000
" />
</g>
<g style="fill:#000000; fill-opacity:0.0; 
stroke:#000000; stroke-width:21200.000000; stroke-opacity:1; 
stroke-linecap:round; stroke-linejoin:round;">
</g>
<g style="fill:#000000; fill-opacity:0.0; 
stroke:#000000; stroke-width:150000.000000; stroke-opacity:1; 
stroke-linecap:round; stroke-linejoin:round;">
<path d="M160000000 12000000
L160000000 10000000
" />
</g>
<g style="fill:#000000; fill-opacity:0.0; 
stroke:#000000; stroke-width:21200.000000; stroke-opacity:1; 
stroke-linecap:round; stroke-linejoin:round;">
</g>
<g style="fill:#000000; fill-opacity:0.0; 
stroke:#000000; stroke-width:150000.000000; stroke-opacity:1; 
stroke-linecap:round; stroke-linejoin:round;">
<path d="M210000000 12000000
L210000000 10000000
" />
</g>
<g style="fill:#000000; fill-opacity:0.0; 
stroke:#000000; stroke-width:21200.000000; stroke-opacity:1; 
stroke-linecap:round; stroke-linejoin:round;">
</g>
<g style="fill:#000000; fill-opacity:0.0; 
stroke:#000000; stroke-width:150000.000000; stroke-opacity:1; 
stroke-linecap:round; stroke-linejoin:round;">
<path d="M260000000 12000000
L260000000 10000000
" />
</g>
<g style="fill:#000000; fill-opacity:0.0; 
stroke:#000000; stroke-width:21200.000000; stroke-opacity:1; 
stroke-linecap:round; stroke-linejoin:round;">
</g>
<g style="fill:#000000; fill-opacity:0.0; 
stroke:#000000; stroke-width:150000.000000; stroke-opacity:1; 
stroke-linecap:round; stroke-linejoin:round;">
<text x="35000000.000000" y="11650000.000000"
textLength="1388095.000000" font-size="1733333.000000" lengthAdjust="spacingAndGlyphs"
text-anchor="start" opacity="0">1</text>
<g class="stroked-text"><desc>1</desc>
<path d="M36065476 11588095
L35322619 11588095
" />
<path d="M35694047 11588095
L35694047 10288095
L35570238 10473809
L35446428 10597619
L35322619 10659523
" />
</g></g>
<g style="fill:#000000; fill-opacity:0.0; 
stroke:#000000; stroke-width:21200.000000; stroke-opacity:1; 
stroke-linecap:round; stroke-linejoin:round;">
</g>
<g style="fill:#000000; fill-opacity:0.0; 
stroke:#000000; stroke-width:150000.000000; stroke-opacity:1; 
stroke-linecap:round; stroke-linejoin:round;">
<text x="85000000.000000" y="11650000.000000"
textLength="1388095.000000" font-size="1733333.000000" lengthAdjust="spacingAndGlyphs"
text-anchor="start" opacity="0">2</text>
<g class="stroked-text"><desc>2</desc>
<path d="M85322619 10411904
L85384523 10350000
L85508333 10288095
L85817857 10288095
L85941666 10350000
L86003571 10411904
L86065476 10535714
L86065476 10659523
L86003571 10845238
L85260714 11588095
L86065476 11588095
" />
</g></g>
<g style="fill:#000000; fill-opacity:0.0; 
stroke:#000000; stroke-width:21200.000000; stroke-opacity:1; 
stroke-linecap:round; stroke-linejoin:round;">
</g>
<g style="fill:#000000; fill-opacity:0.0; 
stroke:#000000; stroke-width:150000.000000; stroke-opacity:1; 
stroke-linecap:round; stroke-linejoin:round;">
<text x="135000000.000000" y="11650000.000000"
textLength="1388095.000000" font-size="1733333.000000" lengthAdjust="spacingAndGlyphs"
text-anchor="start" opacity="0">3</text>
<g class="stroked-text"><desc>3</desc>
<path d="M135260714 10288095
L136065476 10288095
L135632142 10783333
L135817857 10783333
L135941666 10845238
L136003571 10907142
L136065476 11030952
L136065476 11340476
L136003571 11464285
L135941666 11526190
L135817857 11588095
L135446428 11588095
L135322619 11526190
L135260714 11464285
" />
</g></g>
<g style="fill:#000000; fill-opacity:0.0; 
stroke:#000000; stroke-width:21200.000000; stroke-opacity:1; 
stroke-linecap:round; stroke-linejoin:round;">
</g>
<g style="fill:#000000; fill-opacity:0.0; 
stroke:#000000; stroke-width:150000.000000; stroke-opacity:1; 
stroke-linecap:round; stroke-linejoin:round;">
<text x="185000000.000000" y="11650000.000000"
textLength="1388095.000000" font-size="1733333.000000" lengthAdjust="spacingAndGlyphs"
text-anchor="start" opacity="0">4</text>
<g class="stroked-text"><desc>4</desc>
<path d="M185941666 10721428
L185941666 11588095
" />
<path d="M185632142 10226190
L185322619 11154761
L186127380 11154761
" />
</g></g>
<g style="fill:#000000; fill-opacity:0.0; 
stroke:#000000; stroke-width:21200.000000; stroke-opacity:1; 
stroke-linecap:round; stroke-linejoin:round;">
</g>
<g style="fill:#000000; fill-opacity:0.0; 
stroke:#000000; stroke-width:150000.000000; stroke-opacity:1; 
stroke-linecap:round; stroke-linejoin:round;">
<text x="235000000.000000" y="11650000.000000"
textLength="1388095.000000" font-size="1733333.000000" lengthAdjust="spacingAndGlyphs"
text-anchor="start" opacity="0">5</text>
<g class="stroked-text"><desc>5</desc>
<path d="M236003571 10288095
L235384523 10288095
L235322619 10907142
L235384523 10845238
L235508333 10783333
L235817857 10783333
L235941666 10845238
L236003571 10907142
L236065476 11030952
L236065476 11340476
L236003571 11464285
L235941666 11526190
L235817857 11588095
L235508333 11588095
L235384523 11526190
L235322619 11464285
" />
</g></g>
<g style="fill:#000000; fill-opacity:0.0; 
stroke:#000000; stroke-width:21200.000000; stroke-opacity:1; 
stroke-linecap:round; stroke-linejoin:round;">
</g>
<g style="fill:#000000; fill-opacity:0.0; 
stroke:#000000; stroke-width:150000.000000; stroke-opacity:1; 
stroke-linecap:round; stroke-linejoin:round;">
<text x="285000000.000000" y="11650000.000000"
textLength="1388095.000000" font-size="1733333.000000" lengthAdjust="spacingAndGlyphs"
text-anchor="start" opacity="0">6</text>
<g class="stroked-text"><desc>6</desc>
<path d="M285941666 10288095
L285694047 10288095
L285570238 10350000
L285508333 10411904
L285384523 10597619
L285322619 10845238
L285322619 11340476
L285384523 11464285
L285446428 11526190
L285570238 11588095
L285817857 11588095
L285941666 11526190
L286003571 11464285
L286065476 11340476
L286065476 11030952
L286003571 10907142
L285941666 10845238
L285817857 10783333
L285570238 10783333
L285446428 10845238
L285384523 10907142
L285322619 11030952
" />
</g></g>
<g style="fill:#000000; fill-opacity:0.0; 
stroke:#000000; stroke-width:21200.000000; stroke-opacity:1; 
stroke-linecap:round; stroke-linejoin:round;">
</g>
<g style="fill:#000000; fill-opacity:0.0; 
stroke:#000000; stroke-width:150000.000000; stroke-opacity:1; 
stroke-linecap:round; stroke-linejoin:round;">
<path d="M60000000 198007200
L60000000 200007200
" />
</g>
<g style="fill:#000000; fill-opacity:0.0; 
stroke:#000000; stroke-width:21200.000000; stroke-opacity:1; 
stroke-linecap:round; stroke-linejoin:round;">
</g>
<g style="fill:#000000; fill-opacity:0.0; 
stroke:#000000; stroke-width:150000.000000; stroke-opacity:1; 
stroke-linecap:round; stroke-linejoin:round;">
<path d="M110000000 198007200
L110000000 200007200
" />
</g>
<g style="fill:#000000; fill-opacity:0.0; 
stroke:#000000; stroke-width:21200.000000; stroke-opacity:1; 
stroke-linecap:round; stroke-linejoin:round;">
</g>
<g style="fill:#000000; fill-opacity:0.0; 
stroke:#000000; stroke-width:150000.000000; stroke-opacity:1; 
stroke-linecap:round; stroke-linejoin:round;">
<path d="M160000000 198007200
L160000000 200007200
" />
</g>
<g style="fill:#000000; fill-opacity:0.0; 
stroke:#000000; stroke-width:21200.000000; stroke-opacity:1; 
stroke-linecap:round; stroke-linejoin:round;">
</g>
<g style="fill:#000000; fill-opacity:0.0; 
stroke:#000000; stroke-width:150000.000000; stroke-opacity:1; 
stroke-linecap:round; stroke-linejoin:round;">
<path d="M210000000 198007200
L210000000 200007200
" />
</g>
<g style="fill:#000000; fill-opacity:0.0; 
stroke:#000000; stroke-width:21200.000000; stroke-opacity:1; 
stroke-linecap:round; stroke-linejoin:round;">
</g>
<g style="fill:#000000; fill-opacity:0.0; 
stroke:#000000; stroke-width:150000.000000; stroke-opacity:1; 
stroke-linecap:round; stroke-linejoin:round;">
<path d="M260000000 198007200
L260000000 200007200
" />
</g>
<g style="fill:#000000; fill-opacity:0.0; 
stroke:#000000; stroke-width:21200.000000; stroke-opacity:1; 
stroke-linecap:round; stroke-linejoin:round;">
</g>
<g style="fill:#000000; fill-opacity:0.0; 
stroke:#000000; stroke-width:150000.000000; stroke-opacity:1; 
stroke-linecap:round; stroke-linejoin:round;">
<text x="35000000.000000" y="199657200.000000"
textLength="1388095.000000" font-size="1733333.000000" lengthAdjust="spacingAndGlyphs"
text-anchor="start" opacity="0">1</text>
<g class="stroked-text"><desc>1</desc>
<path d="M36065476 199595295
L35322619 199595295
" />
<path d="M35694047 199595295
L35694047 198295295
L35570238 198481009
L35446428 198604819
L35322619 198666723
" />
</g></g>
<g style="fill:#000000; fill-opacity:0.0; 
stroke:#000000; stroke-width:21200.000000; stroke-opacity:1; 
stroke-linecap:round; stroke-linejoin:round;">
</g>
<g style="fill:#000000; fill-opacity:0.0; 
stroke:#000000; stroke-width:150000.000000; stroke-opacity:1; 
stroke-linecap:round; stroke-linejoin:round;">
<text x="85000000.000000" y="199657200.000000"
textLength="1388095.000000" font-size="1733333.000000" lengthAdjust="spacingAndGlyphs"
text-anchor="start" opacity="0">2</text>
<g class="stroked-text"><desc>2</desc>
<path d="M85322619 198419104
L85384523 198357200
L85508333 198295295
L85817857 198295295
L85941666 198357200
L86003571 198419104
L86065476 198542914
L86065476 198666723
L86003571 198852438
L85260714 199595295
L86065476 199595295
" />
</g></g>
<g style="fill:#000000; fill-opacity:0.0; 
stroke:#000000; stroke-width:21200.000000; stroke-opacity:1; 
stroke-linecap:round; stroke-linejoin:round;">
</g>
<g style="fill:#000000; fill-opacity:0.0; 
stroke:#000000; stroke-width:150000.000000; stroke-opacity:1; 
stroke-linecap:round; stroke-linejoin:round;">
<text x="135000000.000000" y="199657200.000000"
textLength="1388095.000000" font-size="1733333.000000" lengthAdjust="spacingAndGlyphs"
text-anchor="start" opacity="0">3</text>
<g class="stroked-text"><desc>3</desc>
<path d="M135260714 198295295
L136065476 198295295
L135632142 198790533
L135817857 198790533
L135941666 198852438
L136003571 198914342
L136065476 199038152
L136065476 199347676
L136003571 199471485
L135941666 199533390
L135817857 199595295
L135446428 199595295
L135322619 199533390
L135260714 199471485
" />
</g></g>
<g style="fill:#000000; fill-opacity:0.0; 
stroke:#000000; stroke-width:21200.000000; stroke-opacity:1; 
stroke-linecap:round; stroke-linejoin:round;">
</g>
<g style="fill:#000000; fill-opacity:0.0; 
stroke:#000000; stroke-width:150000.000000; stroke-opacity:1; 
stroke-linecap:round; stroke-linejoin:round;">
<text x="185000000.000000" y="199657200.000000"
textLength="1388095.000000" font-size="1733333.000000" lengthAdjust="spacingAndGlyphs"
text-anchor="start" opacity="0">4</text>
<g class="stroked-text"><desc>4</desc>
<path d="M185941666 198728628
L185941666 199595295
" />
<path d="M185632142 198233390
L185322619 199161961
L186127380 199161961
" />
</g></g>
<g style="fill:#000000; fill-opacity:0.0; 
stroke:#000000; stroke-width:21200.000000; stroke-opacity:1; 
stroke-linecap:round; stroke-linejoin:round;">
</g>
<g style="fill:#000000; fill-opacity:0.0; 
stroke:#000000; stroke-width:150000.000000; stroke-opacity:1; 
stroke-linecap:round; stroke-linejoin:round;">
<text x="235000000.000000" y="199657200.000000"
textLength="1388095.000000" font-size="1733333.000000" lengthAdjust="spacingAndGlyphs"
text-anchor="start" opacity="0">5</text>
<g class="stroked-text"><desc>5</desc>
<path d="M236003571 198295295
L235384523 198295295
L235322619 198914342
L235384523 198852438
L235508333 198790533
L235817857 198790533
L235941666 198852438
L236003571 198914342
L236065476 199038152
L236065476 199347676
L236003571 199471485
L235941666 199533390
L235817857 199595295
L235508333 199595295
L235384523 199533390
L235322619 199471485
" />
</g></g>
<g style="fill:#000000; fill-opacity:0.0; 
stroke:#000000; stroke-width:21200.000000; stroke-opacity:1; 
stroke-linecap:round; stroke-linejoin:round;">
</g>
<g style="fill:#000000; fill-opacity:0.0; 
stroke:#000000; stroke-width:150000.000000; stroke-opacity:1; 
stroke-linecap:round; stroke-linejoin:round;">
<text x="285000000.000000" y="199657200.000000"
textLength="1388095.000000" font-size="1733333.000000" lengthAdjust="spacingAndGlyphs"
text-anchor="start" opacity="0">6</text>
<g class="stroked-text"><desc>6</desc>
<path d="M285941666 198295295
L285694047 198295295
L285570238 198357200
L285508333 198419104
L285384523 198604819
L285322619 198852438
L285322619 199347676
L285384523 199471485
L285446428 199533390
L285570238 199595295
L285817857 199595295
L285941666 199533390
L286003571 199471485
L286065476 199347676
L286065476 199038152
L286003571 198914342
L285941666 198852438
L285817857 198790533
L285570238 198790533
L285446428 198852438
L285384523 198914342
L285322619 199038152
" />
</g></g>
<g style="fill:#000000; fill-opacity:0.0; 
stroke:#000000; stroke-width:21200.000000; stroke-opacity:1; 
stroke-linecap:round; stroke-linejoin:round;">
</g>
<g style="fill:#000000; fill-opacity:0.0; 
stroke:#000000; stroke-width:150000.000000; stroke-opacity:1; 
stroke-linecap:round; stroke-linejoin:round;">
<path d="M10000000 60000000
L12000000 60000000
" />
</g>
<g style="fill:#000000; fill-opacity:0.0; 
stroke:#000000; stroke-width:21200.000000; stroke-opacity:1; 
stroke-linecap:round; stroke-linejoin:round;">
</g>
<g style="fill:#000000; fill-opacity:0.0; 
stroke:#000000; stroke-width:150000.000000; stroke-opacity:1; 
stroke-linecap:round; stroke-linejoin:round;">
<path d="M10000000 110000000
L12000000 110000000
" />
</g>
<g style="fill:#000000; fill-opacity:0.0; 
stroke:#000000; stroke-width:21200.000000; stroke-opacity:1; 
stroke-linecap:round; stroke-linejoin:round;">
</g>
<g style="fill:#000000; fill-opacity:0.0; 
stroke:#000000; stroke-width:150000.000000; stroke-opacity:1; 
stroke-linecap:round; stroke-linejoin:round;">
<path d="M10000000 160000000
L12000000 160000000
" />
</g>
<g style="fill:#000000; fill-opacity:0.0; 
stroke:#000000; stroke-width:21200.000000; stroke-opacity:1; 
stroke-linecap:round; stroke-linejoin:round;">
</g>
<g style="fill:#000000; fill-opacity:0.0; 
stroke:#000000; stroke-width:150000.000000; stroke-opacity:1; 
stroke-linecap:round; stroke-linejoin:round;">
<text x="11000000.000000" y="35650000.000000"
textLength="1264286.000000" font-size="1733333.000000" lengthAdjust="spacingAndGlyphs"
text-anchor="middle" opacity="0">A</text>
<g class="stroked-text"><desc>A</desc>
<path d="M10690476 35216666
L11309523 35216666
" />
<path d="M10566666 35588095
L11000000 34288095
L11433333 35588095
" />
</g></g>
<g style="fill:#000000; fill-opacity:0.0; 
stroke:#000000; stroke-width:21200.000000; stroke-opacity:1; 
stroke-linecap:round; stroke-linejoin:round;">
</g>
<g style="fill:#000000; fill-opacity:0.0; 
stroke:#000000; stroke-width:150000.000000; stroke-opacity:1; 
stroke-linecap:round; stroke-linejoin:round;">
<text x="11000000.000000" y="85650000.000000"
textLength="1450000.000000" font-size="1733333.000000" lengthAdjust="spacingAndGlyphs"
text-anchor="middle" opacity="0">B</text>
<g class="stroked-text"><desc>B</desc>
<path d="M11092857 84907142
L11278571 84969047
L11340476 85030952
L11402380 85154761
L11402380 85340476
L11340476 85464285
L11278571 85526190
L11154761 85588095
L10659523 85588095
L10659523 84288095
L11092857 84288095
L11216666 84350000
L11278571 84411904
L11340476 84535714
L11340476 84659523
L11278571 84783333
L11216666 84845238
L11092857 84907142
L10659523 84907142
" />
</g></g>
<g style="fill:#000000; fill-opacity:0.0; 
stroke:#000000; stroke-width:21200.000000; stroke-opacity:1; 
stroke-linecap:round; stroke-linejoin:round;">
</g>
<g style="fill:#000000; fill-opacity:0.0; 
stroke:#000000; stroke-width:150000.000000; stroke-opacity:1; 
stroke-linecap:round; stroke-linejoin:round;">
<text x="11000000.000000" y="135650000.000000"
textLength="1450000.000000" font-size="1733333.000000" lengthAdjust="spacingAndGlyphs"
text-anchor="middle" opacity="0">C</text>
<g class="stroked-text"><desc>C</desc>
<path d="M11402380 135464285
L11340476 135526190
L11154761 135588095
L11030952 135588095
L10845238 135526190
L10721428 135402380
L10659523 135278571
L10597619 135030952
L10597619 134845238
L10659523 134597619
L10721428 134473809
L10845238 134350000
L11030952 134288095
L11154761 134288095
L11340476 134350000
L11402380 134411904
" />
</g></g>
<g style="fill:#000000; fill-opacity:0.0; 
stroke:#000000; stroke-width:21200.000000; stroke-opacity:1; 
stroke-linecap:round; stroke-linejoin:round;">
</g>
<g style="fill:#000000; fill-opacity:0.0; 
stroke:#000000; stroke-width:150000.000000; stroke-opacity:1; 
stroke-linecap:round; stroke-linejoin:round;">
<text x="11000000.000000" y="185650000.000000"
textLength="1450000.000000" font-size="1733333.000000" lengthAdjust="spacingAndGlyphs"
text-anchor="middle" opacity="0">D</text>
<g class="stroked-text"><desc>D</desc>
<path d="M10659523 185588095
L10659523 184288095
L10969047 184288095
L11154761 184350000
L11278571 184473809
L11340476 184597619
L11402380 184845238
L11402380 185030952
L11340476 185278571
L11278571 185402380
L11154761 185526190
L10969047 185588095
L10659523 185588095
" />
</g></g>
<g style="fill:#000000; fill-opacity:0.0; 
stroke:#000000; stroke-width:21200.000000; stroke-opacity:1; 
stroke-linecap:round; stroke-linejoin:round;">
</g>
<g style="fill:#000000; fill-opacity:0.0; 
stroke:#000000; stroke-width:150000.000000; stroke-opacity:1; 
stroke-linecap:round; stroke-linejoin:round;">
<path d="M287002200 60000000
L285002200 60000000
" />
</g>
<g style="fill:#000000; fill-opacity:0.0; 
stroke:#000000; stroke-width:21200.000000; stroke-opacity:1; 
stroke-linecap:round; stroke-linejoin:round;">
</g>
<g style="fill:#000000; fill-opacity:0.0; 
stroke:#000000; stroke-width:150000.000000; stroke-opacity:1; 
stroke-linecap:round; stroke-linejoin:round;">
<path d="M287002200 110000000
L285002200 110000000
" />
</g>
<g style="fill:#000000; fill-opacity:0.0; 
stroke:#000000; stroke-width:21200.000000; stroke-opacity:1; 
stroke-linecap:round; stroke-linejoin:round;">
</g>
<g style="fill:#000000; fill-opacity:0.0; 
stroke:#000000; stroke-width:150000.000000; stroke-opacity:1; 
stroke-linecap:round; stroke-linejoin:round;">
<path d="M287002200 160000000
L285002200 160000000
" />
</g>
<g style="fill:#000000; fill-opacity:0.0; 
stroke:#000000; stroke-width:21200.000000; stroke-opacity:1; 
stroke-linecap:round; stroke-linejoin:round;">
</g>
<g style="fill:#000000; fill-opacity:0.0; 
stroke:#000000; stroke-width:150000.000000; stroke-opacity:1; 
stroke-linecap:round; stroke-linejoin:round;">
<text x="286002200.000000" y="35650000.000000"
textLength="1264286.000000" font-size="1733333.000000" lengthAdjust="spacingAndGlyphs"
text-anchor="middle" opacity="0">A</text>
<g class="stroked-text"><desc>A</desc>
<path d="M285692676 35216666
L286311723 35216666
" />
<path d="M285568866 35588095
L286002200 34288095
L286435533 35588095
" />
</g></g>
<g style="fill:#000000; fill-opacity:0.0; 
stroke:#000000; stroke-width:21200.000000; stroke-opacity:1; 
stroke-linecap:round; stroke-linejoin:round;">
</g>
<g style="fill:#000000; fill-opacity:0.0; 
stroke:#000000; stroke-width:150000.000000; stroke-opacity:1; 
stroke-linecap:round; stroke-linejoin:round;">
<text x="286002200.000000" y="85650000.000000"
textLength="1450000.000000" font-size="1733333.000000" lengthAdjust="spacingAndGlyphs"
text-anchor="middle" opacity="0">B</text>
<g class="stroked-text"><desc>B</desc>
<path d="M286095057 84907142
L286280771 84969047
L286342676 85030952
L286404580 85154761
L286404580 85340476
L286342676 85464285
L286280771 85526190
L286156961 85588095
L285661723 85588095
L285661723 84288095
L286095057 84288095
L286218866 84350000
L286280771 84411904
L286342676 84535714
L286342676 84659523
L286280771 84783333
L286218866 84845238
L286095057 84907142
L285661723 84907142
" />
</g></g>
<g style="fill:#000000; fill-opacity:0.0; 
stroke:#000000; stroke-width:21200.000000; stroke-opacity:1; 
stroke-linecap:round; stroke-linejoin:round;">
</g>
<g style="fill:#000000; fill-opacity:0.0; 
stroke:#000000; stroke-width:150000.000000; stroke-opacity:1; 
stroke-linecap:round; stroke-linejoin:round;">
<text x="286002200.000000" y="135650000.000000"
textLength="1450000.000000" font-size="1733333.000000" lengthAdjust="spacingAndGlyphs"
text-anchor="middle" opacity="0">C</text>
<g class="stroked-text"><desc>C</desc>
<path d="M286404580 135464285
L286342676 135526190
L286156961 135588095
L286033152 135588095
L285847438 135526190
L285723628 135402380
L285661723 135278571
L285599819 135030952
L285599819 134845238
L285661723 134597619
L285723628 134473809
L285847438 134350000
L286033152 134288095
L286156961 134288095
L286342676 134350000
L286404580 134411904
" />
</g></g>
<g style="fill:#000000; fill-opacity:0.0; 
stroke:#000000; stroke-width:21200.000000; stroke-opacity:1; 
stroke-linecap:round; stroke-linejoin:round;">
</g>
<g style="fill:#000000; fill-opacity:0.0; 
stroke:#000000; stroke-width:150000.000000; stroke-opacity:1; 
stroke-linecap:round; stroke-linejoin:round;">
<text x="286002200.000000" y="185650000.000000"
textLength="1450000.000000" font-size="1733333.000000" lengthAdjust="spacingAndGlyphs"
text-anchor="middle" opacity="0">D</text>
<g class="stroked-text"><desc>D</desc>
<path d="M285661723 185588095
L285661723 184288095
L285971247 184288095
L286156961 184350000
L286280771 184473809
L286342676 184597619
L286404580 184845238
L286404580 185030952
L286342676 185278571
L286280771 185402380
L286156961 185526190
L285971247 185588095
L285661723 185588095
" />
</g></g>
<g style="fill:#000000; fill-opacity:0.0; 
stroke:#000000; stroke-width:21200.000000; stroke-opacity:1; 
stroke-linecap:round; stroke-linejoin:round;">
</g>
<g style="fill:#000000; fill-opacity:0.0; 
stroke:#000000; stroke-width:150000.000000; stroke-opacity:1; 
stroke-linecap:round; stroke-linejoin:round;">
<text x="200002200.000000" y="193857200.000000"
textLength="7007143.000000" font-size="2000000.000000" lengthAdjust="spacingAndGlyphs"
text-anchor="start" opacity="0">Date: </text>
<g class="stroked-text"><desc>Date: </desc>
<path d="M200434342 193785771
L200434342 192285771
L200791485 192285771
L201005771 192357200
L201148628 192500057
L201220057 192642914
L201291485 192928628
L201291485 193142914
L201220057 193428628
L201148628 193571485
L201005771 193714342
L200791485 193785771
L200434342 193785771
" />
<path d="M202577200 193785771
L202577200 193000057
L202505771 192857200
L202362914 192785771
L202077200 192785771
L201934342 192857200
" />
<path d="M202577200 193714342
L202434342 193785771
L202077200 193785771
L201934342 193714342
L201862914 193571485
L201862914 193428628
L201934342 193285771
L202077200 193214342
L202434342 193214342
L202577200 193142914
" />
<path d="M203077200 192785771
L203648628 192785771
" />
<path d="M203291485 192285771
L203291485 193571485
L203362914 193714342
L203505771 193785771
L203648628 193785771
" />
<path d="M204720057 193714342
L204577200 193785771
L204291485 193785771
L204148628 193714342
L204077200 193571485
L204077200 193000057
L204148628 192857200
L204291485 192785771
L204577200 192785771
L204720057 192857200
L204791485 193000057
L204791485 193142914
L204077200 193285771
" />
<path d="M205434342 193642914
L205505771 193714342
L205434342 193785771
L205362914 193714342
L205434342 193642914
L205434342 193785771
" />
<path d="M205434342 192857200
L205505771 192928628
L205434342 193000057
L205362914 192928628
L205434342 192857200
L205434342 193000057
" />
</g></g>
<g style="fill:#000000; fill-opacity:0.0; 
stroke:#000000; stroke-width:21200.000000; stroke-opacity:1; 
stroke-linecap:round; stroke-linejoin:round;">
</g>
<g style="fill:#000000; fill-opacity:0.0; 
stroke:#000000; stroke-width:150000.000000; stroke-opacity:1; 
stroke-linecap:round; stroke-linejoin:round;">
<path d="M177002200 194507200
L285002200 194507200
" />
</g>
<g style="fill:#000000; fill-opacity:0.0; 
stroke:#000000; stroke-width:21200.000000; stroke-opacity:1; 
stroke-linecap:round; stroke-linejoin:round;">
</g>
<g style="fill:#000000; fill-opacity:0.0; 
stroke:#000000; stroke-width:150000.000000; stroke-opacity:1; 
stroke-linecap:round; stroke-linejoin:round;">
<text x="178002200.000000" y="196657200.000000"
textLength="33364286.000000" font-size="2000000.000000" lengthAdjust="spacingAndGlyphs"
text-anchor="start" opacity="0">KiCad E.D.A.  pcbnew (6.0.6)</text>
<g class="stroked-text"><desc>KiCad E.D.A.  pcbnew (6.0.6)</desc>
<path d="M178434342 196585771
L178434342 195085771
" />
<path d="M179291485 196585771
L178648628 195728628
" />
<path d="M179291485 195085771
L178434342 195942914
" />
<path d="M179934342 196585771
L179934342 195585771
" />
<path d="M179934342 195085771
L179862914 195157200
L179934342 195228628
L180005771 195157200
L179934342 195085771
L179934342 195228628
" />
<path d="M181505771 196442914
L181434342 196514342
L181220057 196585771
L181077200 196585771
L180862914 196514342
L180720057 196371485
L180648628 196228628
L180577200 195942914
L180577200 195728628
L180648628 195442914
L180720057 195300057
L180862914 195157200
L181077200 195085771
L181220057 195085771
L181434342 195157200
L181505771 195228628
" />
<path d="M182791485 196585771
L182791485 195800057
L182720057 195657200
L182577200 195585771
L182291485 195585771
L182148628 195657200
" />
<path d="M182791485 196514342
L182648628 196585771
L182291485 196585771
L182148628 196514342
L182077200 196371485
L182077200 196228628
L182148628 196085771
L182291485 196014342
L182648628 196014342
L182791485 195942914
" />
<path d="M184148628 196585771
L184148628 195085771
" />
<path d="M184148628 196514342
L184005771 196585771
L183720057 196585771
L183577200 196514342
L183505771 196442914
L183434342 196300057
L183434342 195871485
L183505771 195728628
L183577200 195657200
L183720057 195585771
L184005771 195585771
L184148628 195657200
" />
<path d="M186005771 195800057
L186505771 195800057
" />
<path d="M186720057 196585771
L186005771 196585771
L186005771 195085771
L186720057 195085771
" />
<path d="M187362914 196442914
L187434342 196514342
L187362914 196585771
L187291485 196514342
L187362914 196442914
L187362914 196585771
" />
<path d="M188077200 196585771
L188077200 195085771
L188434342 195085771
L188648628 195157200
L188791485 195300057
L188862914 195442914
L188934342 195728628
L188934342 195942914
L188862914 196228628
L188791485 196371485
L188648628 196514342
L188434342 196585771
L188077200 196585771
" />
<path d="M189577200 196442914
L189648628 196514342
L189577200 196585771
L189505771 196514342
L189577200 196442914
L189577200 196585771
" />
<path d="M190220057 196157200
L190934342 196157200
" />
<path d="M190077200 196585771
L190577200 195085771
L191077200 196585771
" />
<path d="M191577200 196442914
L191648628 196514342
L191577200 196585771
L191505771 196514342
L191577200 196442914
L191577200 196585771
" />
<path d="M194577200 195585771
L194577200 197085771
" />
<path d="M194577200 195657200
L194720057 195585771
L195005771 195585771
L195148628 195657200
L195220057 195728628
L195291485 195871485
L195291485 196300057
L195220057 196442914
L195148628 196514342
L195005771 196585771
L194720057 196585771
L194577200 196514342
" />
<path d="M196577200 196514342
L196434342 196585771
L196148628 196585771
L196005771 196514342
L195934342 196442914
L195862914 196300057
L195862914 195871485
L195934342 195728628
L196005771 195657200
L196148628 195585771
L196434342 195585771
L196577200 195657200
" />
<path d="M197220057 196585771
L197220057 195085771
" />
<path d="M197220057 195657200
L197362914 195585771
L197648628 195585771
L197791485 195657200
L197862914 195728628
L197934342 195871485
L197934342 196300057
L197862914 196442914
L197791485 196514342
L197648628 196585771
L197362914 196585771
L197220057 196514342
" />
<path d="M198577200 195585771
L198577200 196585771
" />
<path d="M198577200 195728628
L198648628 195657200
L198791485 195585771
L199005771 195585771
L199148628 195657200
L199220057 195800057
L199220057 196585771
" />
<path d="M200505771 196514342
L200362914 196585771
L200077200 196585771
L199934342 196514342
L199862914 196371485
L199862914 195800057
L199934342 195657200
L200077200 195585771
L200362914 195585771
L200505771 195657200
L200577200 195800057
L200577200 195942914
L199862914 196085771
" />
<path d="M201077200 195585771
L201362914 196585771
L201648628 195871485
L201934342 196585771
L202220057 195585771
" />
<path d="M204362914 197157200
L204291485 197085771
L204148628 196871485
L204077200 196728628
L204005771 196514342
L203934342 196157200
L203934342 195871485
L204005771 195514342
L204077200 195300057
L204148628 195157200
L204291485 194942914
L204362914 194871485
" />
<path d="M205577200 195085771
L205291485 195085771
L205148628 195157200
L205077200 195228628
L204934342 195442914
L204862914 195728628
L204862914 196300057
L204934342 196442914
L205005771 196514342
L205148628 196585771
L205434342 196585771
L205577200 196514342
L205648628 196442914
L205720057 196300057
L205720057 195942914
L205648628 195800057
L205577200 195728628
L205434342 195657200
L205148628 195657200
L205005771 195728628
L204934342 195800057
L204862914 195942914
" />
<path d="M206362914 196442914
L206434342 196514342
L206362914 196585771
L206291485 196514342
L206362914 196442914
L206362914 196585771
" />
<path d="M207362914 195085771
L207505771 195085771
L207648628 195157200
L207720057 195228628
L207791485 195371485
L207862914 195657200
L207862914 196014342
L207791485 196300057
L207720057 196442914
L207648628 196514342
L207505771 196585771
L207362914 196585771
L207220057 196514342
L207148628 196442914
L207077200 196300057
L207005771 196014342
L207005771 195657200
L207077200 195371485
L207148628 195228628
L207220057 195157200
L207362914 195085771
" />
<path d="M208505771 196442914
L208577200 196514342
L208505771 196585771
L208434342 196514342
L208505771 196442914
L208505771 196585771
" />
<path d="M209862914 195085771
L209577200 195085771
L209434342 195157200
L209362914 195228628
L209220057 195442914
L209148628 195728628
L209148628 196300057
L209220057 196442914
L209291485 196514342
L209434342 196585771
L209720057 196585771
L209862914 196514342
L209934342 196442914
L210005771 196300057
L210005771 195942914
L209934342 195800057
L209862914 195728628
L209720057 195657200
L209434342 195657200
L209291485 195728628
L209220057 195800057
L209148628 195942914
" />
<path d="M210505771 197157200
L210577200 197085771
L210720057 196871485
L210791485 196728628
L210862914 196514342
L210934342 196157200
L210934342 195871485
L210862914 195514342
L210791485 195300057
L210720057 195157200
L210577200 194942914
L210505771 194871485
" />
</g></g>
<g style="fill:#000000; fill-opacity:0.0; 
stroke:#000000; stroke-width:21200.000000; stroke-opacity:1; 
stroke-linecap:round; stroke-linejoin:round;">
</g>
<g style="fill:#000000; fill-opacity:0.0; 
stroke:#000000; stroke-width:150000.000000; stroke-opacity:1; 
stroke-linecap:round; stroke-linejoin:round;">
<path d="M177002200 191507200
L285002200 191507200
" />
</g>
<g style="fill:#000000; fill-opacity:0.0; 
stroke:#000000; stroke-width:21200.000000; stroke-opacity:1; 
stroke-linecap:round; stroke-linejoin:round;">
</g>
<g style="fill:#000000; fill-opacity:0.0; 
stroke:#000000; stroke-width:300000.000000; stroke-opacity:1; 
stroke-linecap:round; stroke-linejoin:round;">
<text x="263002200.000000" y="193857200.000000"
textLength="5935714.000000" font-size="2000000.000000" lengthAdjust="spacingAndGlyphs"
text-anchor="start" opacity="0">Rev: </text>
<g class="stroked-text"><desc>Rev: </desc>
<path d="M264411485 193785771
L263911485 193071485
" />
<path d="M263554342 193785771
L263554342 192285771
L264125771 192285771
L264268628 192357200
L264340057 192428628
L264411485 192571485
L264411485 192785771
L264340057 192928628
L264268628 193000057
L264125771 193071485
L263554342 193071485
" />
<path d="M265625771 193714342
L265482914 193785771
L265197200 193785771
L265054342 193714342
L264982914 193571485
L264982914 193000057
L265054342 192857200
L265197200 192785771
L265482914 192785771
L265625771 192857200
L265697200 193000057
L265697200 193142914
L264982914 193285771
" />
<path d="M266197200 192785771
L266554342 193785771
L266911485 192785771
" />
<path d="M267482914 193642914
L267554342 193714342
L267482914 193785771
L267411485 193714342
L267482914 193642914
L267482914 193785771
" />
<path d="M267482914 192857200
L267554342 192928628
L267482914 193000057
L267411485 192928628
L267482914 192857200
L267482914 193000057
" />
</g></g>
<g style="fill:#000000; fill-opacity:0.0; 
stroke:#000000; stroke-width:21200.000000; stroke-opacity:1; 
stroke-linecap:round; stroke-linejoin:round;">
</g>
<g style="fill:#000000; fill-opacity:0.0; 
stroke:#000000; stroke-width:150000.000000; stroke-opacity:1; 
stroke-linecap:round; stroke-linejoin:round;">
<text x="178002200.000000" y="193857200.000000"
textLength="9604286.000000" font-size="2000000.000000" lengthAdjust="spacingAndGlyphs"
text-anchor="start" opacity="0">Size: A4</text>
<g class="stroked-text"><desc>Size: A4</desc>
<path d="M178362914 193714342
L178577200 193785771
L178934342 193785771
L179077200 193714342
L179148628 193642914
L179220057 193500057
L179220057 193357200
L179148628 193214342
L179077200 193142914
L178934342 193071485
L178648628 193000057
L178505771 192928628
L178434342 192857200
L178362914 192714342
L178362914 192571485
L178434342 192428628
L178505771 192357200
L178648628 192285771
L179005771 192285771
L179220057 192357200
" />
<path d="M179862914 193785771
L179862914 192785771
" />
<path d="M179862914 192285771
L179791485 192357200
L179862914 192428628
L179934342 192357200
L179862914 192285771
L179862914 192428628
" />
<path d="M180434342 192785771
L181220057 192785771
L180434342 193785771
L181220057 193785771
" />
<path d="M182362914 193714342
L182220057 193785771
L181934342 193785771
L181791485 193714342
L181720057 193571485
L181720057 193000057
L181791485 192857200
L181934342 192785771
L182220057 192785771
L182362914 192857200
L182434342 193000057
L182434342 193142914
L181720057 193285771
" />
<path d="M183077200 193642914
L183148628 193714342
L183077200 193785771
L183005771 193714342
L183077200 193642914
L183077200 193785771
" />
<path d="M183077200 192857200
L183148628 192928628
L183077200 193000057
L183005771 192928628
L183077200 192857200
L183077200 193000057
" />
<path d="M184862914 193357200
L185577200 193357200
" />
<path d="M184720057 193785771
L185220057 192285771
L185720057 193785771
" />
<path d="M186862914 192785771
L186862914 193785771
" />
<path d="M186505771 192214342
L186148628 193285771
L187077200 193285771
" />
</g></g>
<g style="fill:#000000; fill-opacity:0.0; 
stroke:#000000; stroke-width:21200.000000; stroke-opacity:1; 
stroke-linecap:round; stroke-linejoin:round;">
</g>
<g style="fill:#000000; fill-opacity:0.0; 
stroke:#000000; stroke-width:150000.000000; stroke-opacity:1; 
stroke-linecap:round; stroke-linejoin:round;">
<text x="263002200.000000" y="196657200.000000"
textLength="8507143.000000" font-size="2000000.000000" lengthAdjust="spacingAndGlyphs"
text-anchor="start" opacity="0">Id: 1/1</text>
<g class="stroked-text"><desc>Id: 1/1</desc>
<path d="M263434342 196585771
L263434342 195085771
" />
<path d="M264791485 196585771
L264791485 195085771
" />
<path d="M264791485 196514342
L264648628 196585771
L264362914 196585771
L264220057 196514342
L264148628 196442914
L264077200 196300057
L264077200 195871485
L264148628 195728628
L264220057 195657200
L264362914 195585771
L264648628 195585771
L264791485 195657200
" />
<path d="M265505771 196442914
L265577200 196514342
L265505771 196585771
L265434342 196514342
L265505771 196442914
L265505771 196585771
" />
<path d="M265505771 195657200
L265577200 195728628
L265505771 195800057
L265434342 195728628
L265505771 195657200
L265505771 195800057
" />
<path d="M268148628 196585771
L267291485 196585771
" />
<path d="M267720057 196585771
L267720057 195085771
L267577200 195300057
L267434342 195442914
L267291485 195514342
" />
<path d="M269862914 195014342
L268577200 196942914
" />
<path d="M271148628 196585771
L270291485 196585771
" />
<path d="M270720057 196585771
L270720057 195085771
L270577200 195300057
L270434342 195442914
L270291485 195514342
" />
</g></g>
<g style="fill:#000000; fill-opacity:0.0; 
stroke:#000000; stroke-width:21200.000000; stroke-opacity:1; 
stroke-linecap:round; stroke-linejoin:round;">
</g>
<g style="fill:#000000; fill-opacity:0.0; 
stroke:#000000; stroke-width:150000.000000; stroke-opacity:1; 
stroke-linecap:round; stroke-linejoin:round;">
<path d="M177002200 187507200
L285002200 187507200
" />
</g>
<g style="fill:#000000; fill-opacity:0.0; 
stroke:#000000; stroke-width:21200.000000; stroke-opacity:1; 
stroke-linecap:round; stroke-linejoin:round;">
</g>
<g style="fill:#000000; fill-opacity:0.0; 
stroke:#000000; stroke-width:400000.000000; stroke-opacity:1; 
stroke-linecap:round; stroke-linejoin:round;">
<text x="178002200.000000" y="190307200.000000"
textLength="9409643.000000" font-size="2666666.000000" lengthAdjust="spacingAndGlyphs"
text-anchor="start" opacity="0">Title: </text>
<g class="stroked-text"><desc>Title: </desc>
<path d="M178714580 188211961
L179857438 188211961
" />
<path d="M179036009 190211961
L179286009 188211961
" />
<path d="M180274104 190211961
L180440771 188878628
" />
<path d="M180524104 188211961
L180416961 188307200
L180500295 188402438
L180607438 188307200
L180524104 188211961
L180500295 188402438
" />
<path d="M181107438 188878628
L181869342 188878628
" />
<path d="M181476485 188211961
L181262200 189926247
L181333628 190116723
L181512200 190211961
L181702676 190211961
" />
<path d="M182655057 190211961
L182476485 190116723
L182405057 189926247
L182619342 188211961
" />
<path d="M184190771 190116723
L183988390 190211961
L183607438 190211961
L183428866 190116723
L183357438 189926247
L183452676 189164342
L183571723 188973866
L183774104 188878628
L184155057 188878628
L184333628 188973866
L184405057 189164342
L184381247 189354819
L183405057 189545295
" />
<path d="M185155057 190021485
L185238390 190116723
L185131247 190211961
L185047914 190116723
L185155057 190021485
L185131247 190211961
" />
<path d="M185286009 188973866
L185369342 189069104
L185262200 189164342
L185178866 189069104
L185286009 188973866
L185262200 189164342
" />
</g></g>
<g style="fill:#000000; fill-opacity:0.0; 
stroke:#000000; stroke-width:21200.000000; stroke-opacity:1; 
stroke-linecap:round; stroke-linejoin:round;">
</g>
<g style="fill:#000000; fill-opacity:0.0; 
stroke:#000000; stroke-width:150000.000000; stroke-opacity:1; 
stroke-linecap:round; stroke-linejoin:round;">
<text x="178002200.000000" y="186457200.000000"
textLength="30805714.000000" font-size="2000000.000000" lengthAdjust="spacingAndGlyphs"
text-anchor="start" opacity="0">File: boardKicad.kicad_pcb</text>
<g class="stroked-text"><desc>File: boardKicad.kicad_pcb</desc>
<path d="M178934342 185600057
L178434342 185600057
" />
<path d="M178434342 186385771
L178434342 184885771
L179148628 184885771
" />
<path d="M179720057 186385771
L179720057 185385771
" />
<path d="M179720057 184885771
L179648628 184957200
L179720057 185028628
L179791485 184957200
L179720057 184885771
L179720057 185028628
" />
<path d="M180648628 186385771
L180505771 186314342
L180434342 186171485
L180434342 184885771
" />
<path d="M181791485 186314342
L181648628 186385771
L181362914 186385771
L181220057 186314342
L181148628 186171485
L181148628 185600057
L181220057 185457200
L181362914 185385771
L181648628 185385771
L181791485 185457200
L181862914 185600057
L181862914 185742914
L181148628 185885771
" />
<path d="M182505771 186242914
L182577200 186314342
L182505771 186385771
L182434342 186314342
L182505771 186242914
L182505771 186385771
" />
<path d="M182505771 185457200
L182577200 185528628
L182505771 185600057
L182434342 185528628
L182505771 185457200
L182505771 185600057
" />
<path d="M184362914 186385771
L184362914 184885771
" />
<path d="M184362914 185457200
L184505771 185385771
L184791485 185385771
L184934342 185457200
L185005771 185528628
L185077200 185671485
L185077200 186100057
L185005771 186242914
L184934342 186314342
L184791485 186385771
L184505771 186385771
L184362914 186314342
" />
<path d="M185934342 186385771
L185791485 186314342
L185720057 186242914
L185648628 186100057
L185648628 185671485
L185720057 185528628
L185791485 185457200
L185934342 185385771
L186148628 185385771
L186291485 185457200
L186362914 185528628
L186434342 185671485
L186434342 186100057
L186362914 186242914
L186291485 186314342
L186148628 186385771
L185934342 186385771
" />
<path d="M187720057 186385771
L187720057 185600057
L187648628 185457200
L187505771 185385771
L187220057 185385771
L187077200 185457200
" />
<path d="M187720057 186314342
L187577200 186385771
L187220057 186385771
L187077200 186314342
L187005771 186171485
L187005771 186028628
L187077200 185885771
L187220057 185814342
L187577200 185814342
L187720057 185742914
" />
<path d="M188434342 186385771
L188434342 185385771
" />
<path d="M188434342 185671485
L188505771 185528628
L188577200 185457200
L188720057 185385771
L188862914 185385771
" />
<path d="M190005771 186385771
L190005771 184885771
" />
<path d="M190005771 186314342
L189862914 186385771
L189577200 186385771
L189434342 186314342
L189362914 186242914
L189291485 186100057
L189291485 185671485
L189362914 185528628
L189434342 185457200
L189577200 185385771
L189862914 185385771
L190005771 185457200
" />
<path d="M190720057 186385771
L190720057 184885771
" />
<path d="M191577200 186385771
L190934342 185528628
" />
<path d="M191577200 184885771
L190720057 185742914
" />
<path d="M192220057 186385771
L192220057 185385771
" />
<path d="M192220057 184885771
L192148628 184957200
L192220057 185028628
L192291485 184957200
L192220057 184885771
L192220057 185028628
" />
<path d="M193577200 186314342
L193434342 186385771
L193148628 186385771
L193005771 186314342
L192934342 186242914
L192862914 186100057
L192862914 185671485
L192934342 185528628
L193005771 185457200
L193148628 185385771
L193434342 185385771
L193577200 185457200
" />
<path d="M194862914 186385771
L194862914 185600057
L194791485 185457200
L194648628 185385771
L194362914 185385771
L194220057 185457200
" />
<path d="M194862914 186314342
L194720057 186385771
L194362914 186385771
L194220057 186314342
L194148628 186171485
L194148628 186028628
L194220057 185885771
L194362914 185814342
L194720057 185814342
L194862914 185742914
" />
<path d="M196220057 186385771
L196220057 184885771
" />
<path d="M196220057 186314342
L196077200 186385771
L195791485 186385771
L195648628 186314342
L195577200 186242914
L195505771 186100057
L195505771 185671485
L195577200 185528628
L195648628 185457200
L195791485 185385771
L196077200 185385771
L196220057 185457200
" />
<path d="M196934342 186242914
L197005771 186314342
L196934342 186385771
L196862914 186314342
L196934342 186242914
L196934342 186385771
" />
<path d="M197648628 186385771
L197648628 184885771
" />
<path d="M197791485 185814342
L198220057 186385771
" />
<path d="M198220057 185385771
L197648628 185957200
" />
<path d="M198862914 186385771
L198862914 185385771
" />
<path d="M198862914 184885771
L198791485 184957200
L198862914 185028628
L198934342 184957200
L198862914 184885771
L198862914 185028628
" />
<path d="M200220057 186314342
L200077200 186385771
L199791485 186385771
L199648628 186314342
L199577200 186242914
L199505771 186100057
L199505771 185671485
L199577200 185528628
L199648628 185457200
L199791485 185385771
L200077200 185385771
L200220057 185457200
" />
<path d="M201505771 186385771
L201505771 185600057
L201434342 185457200
L201291485 185385771
L201005771 185385771
L200862914 185457200
" />
<path d="M201505771 186314342
L201362914 186385771
L201005771 186385771
L200862914 186314342
L200791485 186171485
L200791485 186028628
L200862914 185885771
L201005771 185814342
L201362914 185814342
L201505771 185742914
" />
<path d="M202862914 186385771
L202862914 184885771
" />
<path d="M202862914 186314342
L202720057 186385771
L202434342 186385771
L202291485 186314342
L202220057 186242914
L202148628 186100057
L202148628 185671485
L202220057 185528628
L202291485 185457200
L202434342 185385771
L202720057 185385771
L202862914 185457200
" />
<path d="M203220057 186528628
L204362914 186528628
" />
<path d="M204720057 185385771
L204720057 186885771
" />
<path d="M204720057 185457200
L204862914 185385771
L205148628 185385771
L205291485 185457200
L205362914 185528628
L205434342 185671485
L205434342 186100057
L205362914 186242914
L205291485 186314342
L205148628 186385771
L204862914 186385771
L204720057 186314342
" />
<path d="M206720057 186314342
L206577200 186385771
L206291485 186385771
L206148628 186314342
L206077200 186242914
L206005771 186100057
L206005771 185671485
L206077200 185528628
L206148628 185457200
L206291485 185385771
L206577200 185385771
L206720057 185457200
" />
<path d="M207362914 186385771
L207362914 184885771
" />
<path d="M207362914 185457200
L207505771 185385771
L207791485 185385771
L207934342 185457200
L208005771 185528628
L208077200 185671485
L208077200 186100057
L208005771 186242914
L207934342 186314342
L207791485 186385771
L207505771 186385771
L207362914 186314342
" />
</g></g>
<g style="fill:#000000; fill-opacity:0.0; 
stroke:#000000; stroke-width:21200.000000; stroke-opacity:1; 
stroke-linecap:round; stroke-linejoin:round;">
</g>
<g style="fill:#000000; fill-opacity:0.0; 
stroke:#000000; stroke-width:150000.000000; stroke-opacity:1; 
stroke-linecap:round; stroke-linejoin:round;">
<path d="M177002200 181507200
L285002200 181507200
" />
</g>
<g style="fill:#000000; fill-opacity:0.0; 
stroke:#000000; stroke-width:21200.000000; stroke-opacity:1; 
stroke-linecap:round; stroke-linejoin:round;">
</g>
<g style="fill:#000000; fill-opacity:0.0; 
stroke:#000000; stroke-width:150000.000000; stroke-opacity:1; 
stroke-linecap:round; stroke-linejoin:round;">
<text x="178002200.000000" y="183757200.000000"
textLength="8221429.000000" font-size="2000000.000000" lengthAdjust="spacingAndGlyphs"
text-anchor="start" opacity="0">Sheet: </text>
<g class="stroked-text"><desc>Sheet: </desc>
<path d="M178362914 183614342
L178577200 183685771
L178934342 183685771
L179077200 183614342
L179148628 183542914
L179220057 183400057
L179220057 183257200
L179148628 183114342
L179077200 183042914
L178934342 182971485
L178648628 182900057
L178505771 182828628
L178434342 182757200
L178362914 182614342
L178362914 182471485
L178434342 182328628
L178505771 182257200
L178648628 182185771
L179005771 182185771
L179220057 182257200
" />
<path d="M179862914 183685771
L179862914 182185771
" />
<path d="M180505771 183685771
L180505771 182900057
L180434342 182757200
L180291485 182685771
L180077200 182685771
L179934342 182757200
L179862914 182828628
" />
<path d="M181791485 183614342
L181648628 183685771
L181362914 183685771
L181220057 183614342
L181148628 183471485
L181148628 182900057
L181220057 182757200
L181362914 182685771
L181648628 182685771
L181791485 182757200
L181862914 182900057
L181862914 183042914
L181148628 183185771
" />
<path d="M183077200 183614342
L182934342 183685771
L182648628 183685771
L182505771 183614342
L182434342 183471485
L182434342 182900057
L182505771 182757200
L182648628 182685771
L182934342 182685771
L183077200 182757200
L183148628 182900057
L183148628 183042914
L182434342 183185771
" />
<path d="M183577200 182685771
L184148628 182685771
" />
<path d="M183791485 182185771
L183791485 183471485
L183862914 183614342
L184005771 183685771
L184148628 183685771
" />
<path d="M184648628 183542914
L184720057 183614342
L184648628 183685771
L184577200 183614342
L184648628 183542914
L184648628 183685771
" />
<path d="M184648628 182757200
L184720057 182828628
L184648628 182900057
L184577200 182828628
L184648628 182757200
L184648628 182900057
" />
</g></g>
<g style="fill:#000000; fill-opacity:0.0; 
stroke:#000000; stroke-width:21200.000000; stroke-opacity:1; 
stroke-linecap:round; stroke-linejoin:round;">
</g>
<g style="fill:#000000; fill-opacity:0.0; 
stroke:#000000; stroke-width:300000.000000; stroke-opacity:1; 
stroke-linecap:round; stroke-linejoin:round;">
<text x="178002200.000000" y="180757200.000000"
textLength="150000.000000" font-size="2000000.000000" lengthAdjust="spacingAndGlyphs"
text-anchor="start" opacity="0"></text>
<g class="stroked-text"><desc></desc>
</g></g>
<g style="fill:#000000; fill-opacity:0.0; 
stroke:#000000; stroke-width:21200.000000; stroke-opacity:1; 
stroke-linecap:round; stroke-linejoin:round;">
</g>
<g style="fill:#000000; fill-opacity:0.0; 
stroke:#000000; stroke-width:150000.000000; stroke-opacity:1; 
stroke-linecap:round; stroke-linejoin:round;">
<text x="178002200.000000" y="177757200.000000"
textLength="300000.000000" font-size="2000000.000000" lengthAdjust="spacingAndGlyphs"
text-anchor="start" opacity="0"></text>
<g class="stroked-text"><desc></desc>
</g></g>
<g style="fill:#000000; fill-opacity:0.0; 
stroke:#000000; stroke-width:21200.000000; stroke-opacity:1; 
stroke-linecap:round; stroke-linejoin:round;">
</g>
<g style="fill:#000000; fill-opacity:0.0; 
stroke:#000000; stroke-width:150000.000000; stroke-opacity:1; 
stroke-linecap:round; stroke-linejoin:round;">
<text x="178002200.000000" y="174757200.000000"
textLength="150000.000000" font-size="2000000.000000" lengthAdjust="spacingAndGlyphs"
text-anchor="start" opacity="0"></text>
<g class="stroked-text"><desc></desc>
</g></g>
<g style="fill:#000000; fill-opacity:0.0; 
stroke:#000000; stroke-width:21200.000000; stroke-opacity:1; 
stroke-linecap:round; stroke-linejoin:round;">
</g>
<g style="fill:#000000; fill-opacity:0.0; 
stroke:#000000; stroke-width:150000.000000; stroke-opacity:1; 
stroke-linecap:round; stroke-linejoin:round;">
<text x="178002200.000000" y="171757200.000000"
textLength="150000.000000" font-size="2000000.000000" lengthAdjust="spacingAndGlyphs"
text-anchor="start" opacity="0"></text>
<g class="stroked-text"><desc></desc>
</g></g>
<g style="fill:#000000; fill-opacity:0.0; 
stroke:#000000; stroke-width:21200.000000; stroke-opacity:1; 
stroke-linecap:round; stroke-linejoin:round;">
</g>
<g style="fill:#000000; fill-opacity:0.0; 
stroke:#000000; stroke-width:150000.000000; stroke-opacity:1; 
stroke-linecap:round; stroke-linejoin:round;">
<text x="178002200.000000" y="168757200.000000"
textLength="150000.000000" font-size="2000000.000000" lengthAdjust="spacingAndGlyphs"
text-anchor="start" opacity="0"></text>
<g class="stroked-text"><desc></desc>
</g></g>
<g style="fill:#000000; fill-opacity:0.0; 
stroke:#000000; stroke-width:21200.000000; stroke-opacity:1; 
stroke-linecap:round; stroke-linejoin:round;">
</g>
<g style="fill:#000000; fill-opacity:0.0; 
stroke:#000000; stroke-width:150000.000000; stroke-opacity:1; 
stroke-linecap:round; stroke-linejoin:round;">
<path d="M197002200 191507200
L197002200 194507200
" />
</g>
<g style="fill:#000000; fill-opacity:0.0; 
stroke:#000000; stroke-width:21200.000000; stroke-opacity:1; 
stroke-linecap:round; stroke-linejoin:round;">
</g>
<g style="fill:#000000; fill-opacity:0.0; 
stroke:#000000; stroke-width:150000.000000; stroke-opacity:1; 
stroke-linecap:round; stroke-linejoin:round;">
<path d="M261002200 191507200
L261002200 198007200
" />
</g>
<g style="fill:#F2EDA1; fill-opacity:0.0; 
stroke:#F2EDA1; stroke-width:150000.000000; stroke-opacity:1; 
stroke-linecap:round; stroke-linejoin:round;">
</g>
<g style="fill:#F2EDA1; fill-opacity:0.0; 
stroke:#F2EDA1; stroke-width:108000.000000; stroke-opacity:1; 
stroke-linecap:round; stroke-linejoin:round;">
<g transform="rotate(-90.000000 168561100.000000 100893600.000000)">
<text x="168561100.000000" y="101189600.000000"
textLength="1305810.000000" font-size="789333.000000" lengthAdjust="spacingAndGlyphs"
text-anchor="start" opacity="0">D3</text>
</g>
<g class="stroked-text"><desc>D3</desc>
<path d="M168828909 100682447
L168236909 100682447
L168236909 100541495
L168265100 100456923
L168321480 100400542
L168377861 100372352
L168490623 100344161
L168575195 100344161
L168687957 100372352
L168744338 100400542
L168800719 100456923
L168828909 100541495
L168828909 100682447
" />
<path d="M168236909 100146828
L168236909 99780352
L168462433 99977685
L168462433 99893114
L168490623 99836733
L168518814 99808542
L168575195 99780352
L168716147 99780352
L168772528 99808542
L168800719 99836733
L168828909 99893114
L168828909 100062257
L168800719 100118638
L168772528 100146828
" />
</g></g>
<g style="fill:#F2EDA1; fill-opacity:0.0; 
stroke:#F2EDA1; stroke-width:59822.000000; stroke-opacity:1; 
stroke-linecap:round; stroke-linejoin:round;">
<text x="147411100.000000" y="105020089.000000"
textLength="1646356.000000" font-size="1003970.000000" lengthAdjust="spacingAndGlyphs"
text-anchor="end" opacity="0">U3</text>
<g class="stroked-text"><desc>U3</desc>
<path d="M146045540 104231254
L146045540 104840808
L146081396 104912520
L146117252 104948376
L146188964 104984232
L146332388 104984232
L146404101 104948376
L146439957 104912520
L146475813 104840808
L146475813 104231254
" />
<path d="M146762662 104231254
L147228791 104231254
L146977798 104518103
L147085366 104518103
L147157079 104553959
L147192935 104589815
L147228791 104661528
L147228791 104840808
L147192935 104912520
L147157079 104948376
L147085366 104984232
L146870230 104984232
L146798518 104948376
L146762662 104912520
" />
</g></g>
<g style="fill:#F2EDA1; fill-opacity:0.0; 
stroke:#F2EDA1; stroke-width:150000.000000; stroke-opacity:1; 
stroke-linecap:round; stroke-linejoin:round;">
<text x="168821100.000000" y="113258600.000000"
textLength="77769.000000" font-size="1693333.000000" lengthAdjust="spacingAndGlyphs"
text-anchor="middle" opacity="0"></text>
<g class="stroked-text"><desc></desc>
</g></g>
<g style="fill:#F2EDA1; fill-opacity:0.0; 
stroke:#F2EDA1; stroke-width:73152.000000; stroke-opacity:1; 
stroke-linecap:round; stroke-linejoin:round;">
<g transform="rotate(-45.000000 165358140.000000 108060638.000000)">
<text x="165358140.000000" y="108430462.000000"
textLength="1629296.000000" font-size="986197.000000" lengthAdjust="spacingAndGlyphs"
text-anchor="start" opacity="0">Q1</text>
</g>
<g class="stroked-text"><desc>Q1</desc>
<path d="M166151372 107840226
L166076656 107865131
L165977035 107865131
L165827603 107865131
L165752888 107890037
L165703077 107939847
" />
<path d="M165852509 108039468
L165777793 108064373
L165678172 108064373
L165553646 107989658
L165379309 107815321
L165304593 107690795
L165304593 107591174
L165329498 107516458
L165429119 107416837
L165503835 107391932
L165603456 107391932
L165727982 107466647
L165902319 107640984
L165977035 107765510
L165977035 107865131
L165952130 107939847
L165852509 108039468
" />
<path d="M166574761 107317216
L166275898 107616079
" />
<path d="M166425329 107466647
L165902319 106943637
L165927224 107068164
L165927224 107167785
L165902319 107242500
" />
</g></g>
<g style="fill:#F2EDA1; fill-opacity:0.0; 
stroke:#F2EDA1; stroke-width:29911.000000; stroke-opacity:1; 
stroke-linecap:round; stroke-linejoin:round;">
<text x="146661100.000000" y="109219344.000000"
textLength="848076.000000" font-size="501985.000000" lengthAdjust="spacingAndGlyphs"
text-anchor="end" opacity="0">U2</text>
<g class="stroked-text"><desc>U2</desc>
<path d="M145978320 108824927
L145978320 109129704
L145996248 109165560
L146014176 109183488
L146050032 109201416
L146121744 109201416
L146157600 109183488
L146175528 109165560
L146193456 109129704
L146193456 108824927
" />
<path d="M146354809 108860783
L146372737 108842855
L146408593 108824927
L146498233 108824927
L146534089 108842855
L146552017 108860783
L146569945 108896639
L146569945 108932495
L146552017 108986279
L146336881 109201416
L146569945 109201416
" />
</g></g>
<g style="fill:#F2EDA1; fill-opacity:0.0; 
stroke:#F2EDA1; stroke-width:150000.000000; stroke-opacity:1; 
stroke-linecap:round; stroke-linejoin:round;">
<text x="128181100.000000" y="113258600.000000"
textLength="38884.000000" font-size="1693333.000000" lengthAdjust="spacingAndGlyphs"
text-anchor="middle" opacity="0"></text>
<g class="stroked-text"><desc></desc>
</g></g>
<g style="fill:#F2EDA1; fill-opacity:0.0; 
stroke:#F2EDA1; stroke-width:54864.000000; stroke-opacity:1; 
stroke-linecap:round; stroke-linejoin:round;">
<g transform="rotate(-90.000000 168566100.000000 105003600.000000)">
<text x="168566100.000000" y="105280968.000000"
textLength="1233056.000000" font-size="739648.000000" lengthAdjust="spacingAndGlyphs"
text-anchor="start" opacity="0">C4</text>
</g>
<g class="stroked-text"><desc>C4</desc>
<path d="M168764220 104518866
L168790636 104545282
L168817052 104624530
L168817052 104677362
L168790636 104756610
L168737804 104809442
L168684972 104835858
L168579308 104862274
L168500060 104862274
L168394396 104835858
L168341564 104809442
L168288732 104756610
L168262316 104677362
L168262316 104624530
L168288732 104545282
L168315148 104518866
" />
<path d="M168447228 104043378
L168817052 104043378
" />
<path d="M168235900 104175458
L168632140 104307538
L168632140 103964130
" />
</g></g>
<g style="fill:#F2EDA1; fill-opacity:0.0; 
stroke:#F2EDA1; stroke-width:73152.000000; stroke-opacity:1; 
stroke-linecap:round; stroke-linejoin:round;">
<g transform="rotate(-135.000000 165358140.000000 101846560.000000)">
<text x="165358140.000000" y="102216384.000000"
textLength="1550619.000000" font-size="986197.000000" lengthAdjust="spacingAndGlyphs"
text-anchor="start" opacity="0">Q2</text>
</g>
<g class="stroked-text"><desc>Q2</desc>
<path d="M165137728 101053327
L165162633 101128043
L165162633 101227664
L165162633 101377096
L165187539 101451811
L165237349 101501622
" />
<path d="M165336970 101352190
L165361875 101426906
L165361875 101526527
L165287160 101651053
L165112823 101825390
L164988297 101900106
L164888676 101900106
L164813960 101875201
L164714339 101775580
L164689434 101700864
L164689434 101601243
L164764149 101476717
L164938486 101302380
L165063012 101227664
L165162633 101227664
L165237349 101252569
L165336970 101352190
" />
<path d="M164440381 101402001
L164390571 101402001
L164315855 101377096
L164191329 101252569
L164166424 101177854
L164166424 101128043
L164191329 101053327
L164241139 101003517
L164340760 100953707
L164938486 100953707
L164614718 100629938
" />
</g></g>
<g style="fill:#F2EDA1; fill-opacity:0.0; 
stroke:#F2EDA1; stroke-width:150000.000000; stroke-opacity:1; 
stroke-linecap:round; stroke-linejoin:round;">
<text x="128181100.000000" y="98018600.000000"
textLength="95098.000000" font-size="1693333.000000" lengthAdjust="spacingAndGlyphs"
text-anchor="middle" opacity="0"></text>
<g class="stroked-text"><desc></desc>
</g></g>
<g style="fill:#F2EDA1; fill-opacity:0.0; 
stroke:#F2EDA1; stroke-width:18400.000000; stroke-opacity:1; 
stroke-linecap:round; stroke-linejoin:round;">
<text x="141911100.000000" y="109189200.000000"
textLength="1585771.000000" font-size="788266.000000" lengthAdjust="spacingAndGlyphs"
text-anchor="start" opacity="0">IC1</text>
<g class="stroked-text"><desc>IC1</desc>
<path d="M142063821 109161047
L142063821 108569847
" />
<path d="M142683174 109104742
L142655021 109132895
L142570564 109161047
L142514260 109161047
L142429802 109132895
L142373498 109076590
L142345345 109020285
L142317193 108907676
L142317193 108823219
L142345345 108710609
L142373498 108654304
L142429802 108598000
L142514260 108569847
L142570564 108569847
L142655021 108598000
L142683174 108626152
" />
<path d="M143246221 109161047
L142908393 109161047
" />
<path d="M143077307 109161047
L143077307 108569847
L143021002 108654304
L142964698 108710609
L142908393 108738761
" />
</g></g>
<g style="fill:#F2EDA1; fill-opacity:0.0; 
stroke:#F2EDA1; stroke-width:54864.000000; stroke-opacity:1; 
stroke-linecap:round; stroke-linejoin:round;">
<text x="141173600.000000" y="101140968.000000"
textLength="1106976.000000" font-size="739648.000000" lengthAdjust="spacingAndGlyphs"
text-anchor="end" opacity="0">C3</text>
<g class="stroked-text"><desc>C3</desc>
<path d="M140503954 101061720
L140477538 101088136
L140398290 101114552
L140345458 101114552
L140266210 101088136
L140213378 101035304
L140186962 100982472
L140160546 100876808
L140160546 100797560
L140186962 100691896
L140213378 100639064
L140266210 100586232
L140345458 100559816
L140398290 100559816
L140477538 100586232
L140503954 100612648
" />
<path d="M140688866 100559816
L141032274 100559816
L140847362 100771144
L140926610 100771144
L140979442 100797560
L141005858 100823976
L141032274 100876808
L141032274 101008888
L141005858 101061720
L140979442 101088136
L140926610 101114552
L140768114 101114552
L140715282 101088136
L140688866 101061720
" />
</g></g>
<g style="fill:#F2EDA1; fill-opacity:0.0; 
stroke:#F2EDA1; stroke-width:150000.000000; stroke-opacity:1; 
stroke-linecap:round; stroke-linejoin:round;">
<text x="168821100.000000" y="98018600.000000"
textLength="71323.000000" font-size="1693333.000000" lengthAdjust="spacingAndGlyphs"
text-anchor="middle" opacity="0"></text>
<g class="stroked-text"><desc></desc>
</g></g>
<g style="fill:#F2EDA1; fill-opacity:0.0; 
stroke:#F2EDA1; stroke-width:108000.000000; stroke-opacity:1; 
stroke-linecap:round; stroke-linejoin:round;">
<text x="134811100.000000" y="101239600.000000"
textLength="1305810.000000" font-size="789333.000000" lengthAdjust="spacingAndGlyphs"
text-anchor="end" opacity="0">D2</text>
<g class="stroked-text"><desc>D2</desc>
<path d="M133726042 101211409
L133726042 100619409
L133866995 100619409
L133951566 100647600
L134007947 100703980
L134036138 100760361
L134064328 100873123
L134064328 100957695
L134036138 101070457
L134007947 101126838
L133951566 101183219
L133866995 101211409
L133726042 101211409
" />
<path d="M134289852 100675790
L134318042 100647600
L134374423 100619409
L134515376 100619409
L134571757 100647600
L134599947 100675790
L134628138 100732171
L134628138 100788552
L134599947 100873123
L134261661 101211409
L134628138 101211409
" />
</g></g>
<g style="fill:#F2EDA1; fill-opacity:0.0; 
stroke:#F2EDA1; stroke-width:54864.000000; stroke-opacity:1; 
stroke-linecap:round; stroke-linejoin:round;">
<text x="133778600.000000" y="107543568.000000"
textLength="628370.000000" font-size="333248.000000" lengthAdjust="spacingAndGlyphs"
text-anchor="start" opacity="0">C1</text>
<g class="stroked-text"><desc>C1</desc>
<path d="M134016590 107507862
L134004689 107519764
L133968983 107531666
L133945180 107531666
L133909475 107519764
L133885671 107495961
L133873770 107472157
L133861868 107424550
L133861868 107388845
L133873770 107341238
L133885671 107317435
L133909475 107293632
L133945180 107281730
L133968983 107281730
L134004689 107293632
L134016590 107305533
" />
<path d="M134254625 107531666
L134111804 107531666
" />
<path d="M134183214 107531666
L134183214 107281730
L134159411 107317435
L134135607 107341238
L134111804 107353140
" />
</g></g>
<g style="fill:#F2EDA1; fill-opacity:0.0; 
stroke:#F2EDA1; stroke-width:74778.000000; stroke-opacity:1; 
stroke-linecap:round; stroke-linejoin:round;">
<g transform="rotate(-45.000000 158886553.000000 104006557.000000)">
<text x="158886553.000000" y="104477168.000000"
textLength="1953767.000000" font-size="1254962.000000" lengthAdjust="spacingAndGlyphs"
text-anchor="start" opacity="0">U1</text>
</g>
<g class="stroked-text"><desc>U1</desc>
<path d="M158714920 103449259
L159253694 103988033
L159348772 104019726
L159412157 104019726
L159507235 103988033
L159634005 103861263
L159665698 103766185
L159665698 103702800
L159634005 103607722
L159095231 103068948
" />
<path d="M160426320 103068948
L160046009 103449259
" />
<path d="M160236165 103259104
L159570620 102593559
L159602313 102752022
L159602313 102878793
L159570620 102973870
" />
</g></g>
<g style="fill:#F2EDA1; fill-opacity:0.0; 
stroke:#F2EDA1; stroke-width:120000.000000; stroke-opacity:1; 
stroke-linecap:round; stroke-linejoin:round;">
<path d="M169511100 103133600
L169511100 99593600
" />
<path d="M167611100 99593600
L167611100 103133600
" />
<path d="M167611100 103133600
L169511100 103133600
" />
</g>
<g style="fill:#F2EDA1; fill-opacity:0.0; 
stroke:#F2EDA1; stroke-width:101600.000000; stroke-opacity:1; 
stroke-linecap:round; stroke-linejoin:round;">
<path d="M145311100 102893600
L145311100 102543600
" />
<path d="M149261100 102543600
L149611100 102543600
" />
<path d="M149611100 102543600
L149611100 102893600
" />
<path d="M145311100 102543600
L145661100 102543600
" />
<path d="M149611100 106493600
L149611100 106843600
" />
<path d="M145311100 106843600
L145311100 106493600
" />
<path d="M145661100 106843600
L145311100 106843600
" />
<path d="M149611100 106843600
L149261100 106843600
" />
</g>
<g style="fill:#F2EDA1; fill-opacity:1.0; 
stroke:#F2EDA1; stroke-width:1.000000; stroke-opacity:1; 
stroke-linecap:round; stroke-linejoin:round;">
<circle cx="145136100.000000" cy="107118600.000000" r="150000.000000" /> 
</g>
<g style="fill:#F2EDA1; fill-opacity:1.0; 
stroke:#F2EDA1; stroke-width:127000.000000; stroke-opacity:1; 
stroke-linecap:round; stroke-linejoin:round;">
</g>
<g style="fill:#F2EDA1; fill-opacity:0.0; 
stroke:#F2EDA1; stroke-width:127000.000000; stroke-opacity:1; 
stroke-linecap:round; stroke-linejoin:round;">
<path d="M164109018 108467153
L165664653 106911518
" />
<path d="M165664653 106911518
L166513182 107760047
" />
<path d="M166513182 107760047
L164957547 109315682
" />
<path d="M164957547 109315682
L164109018 108467153
" />
<circle cx="164957547.000000" cy="108820707.000000" r="150000.000000" /> 
</g>
<g style="fill:#F2EDA1; fill-opacity:1.0; 
stroke:#F2EDA1; stroke-width:1.000000; stroke-opacity:1; 
stroke-linecap:round; stroke-linejoin:round;">
<path style="fill:#F2EDA1; fill-opacity:1.0; 
stroke:#F2EDA1; stroke-width:1.000000; stroke-opacity:1; 
stroke-linecap:round; stroke-linejoin:round;fill-rule:evenodd;"
d="M 166619248.000000,108148955.000000
166407116.000000,108361087.000000
166124273.000000,108078245.000000
166336405.000000,107866113.000000
Z" /> 
<path style="fill:#F2EDA1; fill-opacity:1.0; 
stroke:#F2EDA1; stroke-width:1.000000; stroke-opacity:1; 
stroke-linecap:round; stroke-linejoin:round;fill-rule:evenodd;"
d="M 165558587.000000,107088295.000000
165346455.000000,107300427.000000
165063613.000000,107017584.000000
165275745.000000,106805452.000000
Z" /> 
<path style="fill:#F2EDA1; fill-opacity:1.0; 
stroke:#F2EDA1; stroke-width:1.000000; stroke-opacity:1; 
stroke-linecap:round; stroke-linejoin:round;fill-rule:evenodd;"
d="M 164497927.000000,108148955.000000
164285795.000000,108361087.000000
164002952.000000,108078245.000000
164215084.000000,107866113.000000
Z" /> 
<path style="fill:#F2EDA1; fill-opacity:1.0; 
stroke:#F2EDA1; stroke-width:1.000000; stroke-opacity:1; 
stroke-linecap:round; stroke-linejoin:round;fill-rule:evenodd;"
d="M 165558587.000000,109209616.000000
165346455.000000,109421748.000000
165063613.000000,109138905.000000
165275745.000000,108926773.000000
Z" /> 
<path style="fill:#F2EDA1; fill-opacity:1.0; 
stroke:#F2EDA1; stroke-width:1.000000; stroke-opacity:1; 
stroke-linecap:round; stroke-linejoin:round;fill-rule:evenodd;"
d="M 165028257.000000,107618625.000000
164816125.000000,107830757.000000
164533283.000000,107547915.000000
164745415.000000,107335783.000000
Z" /> 
<path style="fill:#F2EDA1; fill-opacity:1.0; 
stroke:#F2EDA1; stroke-width:1.000000; stroke-opacity:1; 
stroke-linecap:round; stroke-linejoin:round;fill-rule:evenodd;"
d="M 166088917.000000,108679285.000000
165876785.000000,108891417.000000
165593943.000000,108608575.000000
165806075.000000,108396443.000000
Z" /> 
</g>
<g style="fill:#F2EDA1; fill-opacity:1.0; 
stroke:#F2EDA1; stroke-width:100000.000000; stroke-opacity:1; 
stroke-linecap:round; stroke-linejoin:round;">
</g>
<g style="fill:#F2EDA1; fill-opacity:0.0; 
stroke:#F2EDA1; stroke-width:100000.000000; stroke-opacity:1; 
stroke-linecap:round; stroke-linejoin:round;">
<path d="M147423600 107593600
L145923600 107593600
" />
<path d="M145923600 107593600
L145923600 110493600
" />
<path d="M145923600 110493600
L147423600 110493600
" />
<path d="M147423600 110493600
L147423600 107593600
" />
</g>
<g style="fill:#F2EDA1; fill-opacity:0.0; 
stroke:#F2EDA1; stroke-width:152400.000000; stroke-opacity:1; 
stroke-linecap:round; stroke-linejoin:round;">
<path d="M142786100 96113600
L144056100 96113600
" />
<path d="M165646100 96113600
L166916100 96113600
" />
<path d="M157391100 98018600
L156756100 98653600
" />
<path d="M135166100 98653600
L134531100 98018600
" />
<path d="M160566100 98653600
L159931100 98018600
" />
<path d="M144056100 98653600
L142786100 98653600
" />
<path d="M133896100 96113600
L134531100 96748600
" />
<path d="M146596100 96113600
L147231100 96748600
" />
<path d="M161836100 98653600
L160566100 98653600
" />
<path d="M129451100 96748600
L130086100 96113600
" />
<path d="M147231100 98018600
L146596100 98653600
" />
<path d="M150406100 96113600
L151676100 96113600
" />
<path d="M156756100 96113600
L157391100 96748600
" />
<path d="M133896100 98653600
L132626100 98653600
" />
<path d="M132626100 96113600
L133896100 96113600
" />
<path d="M151676100 98653600
L152311100 98018600
" />
<path d="M159931100 96748600
L160566100 96113600
" />
<path d="M149771100 98018600
L149771100 96748600
" />
<path d="M152311100 96748600
L152946100 96113600
" />
<path d="M129451100 98018600
L129451100 96748600
" />
<path d="M134531100 98018600
L133896100 98653600
" />
<path d="M147866100 98653600
L147231100 98018600
" />
<path d="M138976100 96113600
L139611100 96748600
" />
<path d="M156756100 98653600
L155486100 98653600
" />
<path d="M137706100 96113600
L138976100 96113600
" />
<path d="M144691100 98018600
L144691100 96748600
" />
<path d="M131991100 98018600
L131356100 98653600
" />
<path d="M144056100 98653600
L144691100 98018600
" />
<path d="M152311100 96748600
L151676100 96113600
" />
<path d="M164376100 98653600
L163106100 98653600
" />
<path d="M130086100 98653600
L129451100 98018600
" />
<path d="M163106100 96113600
L164376100 96113600
" />
<path d="M154851100 98018600
L154851100 96748600
" />
<path d="M147866100 96113600
L149136100 96113600
" />
<path d="M149771100 96748600
L150406100 96113600
" />
<path d="M165011100 96748600
L165646100 96113600
" />
<path d="M159296100 98653600
L159931100 98018600
" />
<path d="M142151100 98018600
L141516100 98653600
" />
<path d="M145326100 98653600
L144691100 98018600
" />
<path d="M166916100 98653600
L165646100 98653600
" />
<path d="M131991100 96748600
L132626100 96113600
" />
<path d="M165011100 98018600
L164376100 98653600
" />
<path d="M149136100 98653600
L147866100 98653600
" />
<path d="M167551100 96748600
L166916100 96113600
" />
<path d="M144691100 96748600
L145326100 96113600
" />
<path d="M154216100 96113600
L154851100 96748600
" />
<path d="M150406100 98653600
L149771100 98018600
" />
<path d="M132626100 98653600
L131991100 98018600
" />
<path d="M163106100 98653600
L162471100 98018600
" />
<path d="M136436100 98653600
L135166100 98653600
" />
<path d="M154851100 98018600
L154216100 98653600
" />
<path d="M134531100 96748600
L135166100 96113600
" />
<path d="M137706100 98653600
L137071100 98018600
" />
<path d="M131991100 98018600
L131991100 96748600
" />
<path d="M142151100 96748600
L142786100 96113600
" />
<path d="M151676100 98653600
L150406100 98653600
" />
<path d="M161836100 96113600
L162471100 96748600
" />
<path d="M166916100 98653600
L167551100 98018600
" />
<path d="M142786100 98653600
L142151100 98018600
" />
<path d="M159931100 98018600
L159931100 96748600
" />
<path d="M154216100 98653600
L152946100 98653600
" />
<path d="M155486100 98653600
L154851100 98018600
" />
<path d="M159931100 96748600
L159296100 96113600
" />
<path d="M157391100 98018600
L157391100 96748600
" />
<path d="M130086100 96113600
L131356100 96113600
" />
<path d="M139611100 96748600
L140246100 96113600
" />
<path d="M138976100 98653600
L137706100 98653600
" />
<path d="M167551100 98018600
L167551100 96748600
" />
<path d="M137071100 98018600
L137071100 96748600
" />
<path d="M147231100 96748600
L147866100 96113600
" />
<path d="M152311100 98018600
L152311100 96748600
" />
<path d="M141516100 98653600
L140246100 98653600
" />
<path d="M152946100 96113600
L154216100 96113600
" />
<path d="M131356100 96113600
L131991100 96748600
" />
<path d="M154851100 96748600
L155486100 96113600
" />
<path d="M162471100 98018600
L161836100 98653600
" />
<path d="M152946100 98653600
L152311100 98018600
" />
<path d="M160566100 96113600
L161836100 96113600
" />
<path d="M131356100 98653600
L130086100 98653600
" />
<path d="M157391100 96748600
L158026100 96113600
" />
<path d="M145326100 96113600
L146596100 96113600
" />
<path d="M137071100 96748600
L136436100 96113600
" />
<path d="M134531100 98018600
L134531100 96748600
" />
<path d="M136436100 98653600
L137071100 98018600
" />
<path d="M139611100 98018600
L138976100 98653600
" />
<path d="M155486100 96113600
L156756100 96113600
" />
<path d="M165011100 98018600
L165011100 96748600
" />
<path d="M149136100 96113600
L149771100 96748600
" />
<path d="M149771100 98018600
L149136100 98653600
" />
<path d="M139611100 98018600
L139611100 96748600
" />
<path d="M159296100 98653600
L158026100 98653600
" />
<path d="M140246100 96113600
L141516100 96113600
" />
<path d="M162471100 98018600
L162471100 96748600
" />
<path d="M158026100 96113600
L159296100 96113600
" />
<path d="M162471100 96748600
L163106100 96113600
" />
<path d="M146596100 98653600
L145326100 98653600
" />
<path d="M158026100 98653600
L157391100 98018600
" />
<path d="M137071100 96748600
L137706100 96113600
" />
<path d="M147231100 98018600
L147231100 96748600
" />
<path d="M144691100 96748600
L144056100 96113600
" />
<path d="M164376100 96113600
L165011100 96748600
" />
<path d="M142151100 98018600
L142151100 96748600
" />
<path d="M165646100 98653600
L165011100 98018600
" />
<path d="M135166100 96113600
L136436100 96113600
" />
<path d="M140246100 98653600
L139611100 98018600
" />
<path d="M141516100 96113600
L142151100 96748600
" />
</g>
<g style="fill:#F2EDA1; fill-opacity:0.0; 
stroke:#F2EDA1; stroke-width:127000.000000; stroke-opacity:1; 
stroke-linecap:round; stroke-linejoin:round;">
<path d="M135901100 107703600
L140101100 107703600
" />
<path d="M140101100 102303600
L135901100 102303600
" />
<path d="M140101100 107703600
L140101100 102303600
" />
<path d="M135901100 102303600
L135901100 107703600
" />
<circle cx="138001100.000000" cy="105003600.000000" r="800000.000000" /> 
<path d="M165664653 103095682
L164109018 101540047
" />
<path d="M164109018 101540047
L164957547 100691518
" />
<path d="M166513182 102247153
L165664653 103095682
" />
<path d="M164957547 100691518
L166513182 102247153
" />
<circle cx="166018207.000000" cy="102247153.000000" r="150000.000000" /> 
</g>
<g style="fill:#F2EDA1; fill-opacity:1.0; 
stroke:#F2EDA1; stroke-width:1.000000; stroke-opacity:1; 
stroke-linecap:round; stroke-linejoin:round;">
<path style="fill:#F2EDA1; fill-opacity:1.0; 
stroke:#F2EDA1; stroke-width:1.000000; stroke-opacity:1; 
stroke-linecap:round; stroke-linejoin:round;fill-rule:evenodd;"
d="M 166088917.000000,101327915.000000
165806075.000000,101610757.000000
165593943.000000,101398625.000000
165876785.000000,101115783.000000
Z" /> 
<path style="fill:#F2EDA1; fill-opacity:1.0; 
stroke:#F2EDA1; stroke-width:1.000000; stroke-opacity:1; 
stroke-linecap:round; stroke-linejoin:round;fill-rule:evenodd;"
d="M 164497927.000000,101858245.000000
164215084.000000,102141087.000000
164002952.000000,101928955.000000
164285795.000000,101646113.000000
Z" /> 
<path style="fill:#F2EDA1; fill-opacity:1.0; 
stroke:#F2EDA1; stroke-width:1.000000; stroke-opacity:1; 
stroke-linecap:round; stroke-linejoin:round;fill-rule:evenodd;"
d="M 165558587.000000,100797584.000000
165275745.000000,101080427.000000
165063613.000000,100868295.000000
165346455.000000,100585452.000000
Z" /> 
<path style="fill:#F2EDA1; fill-opacity:1.0; 
stroke:#F2EDA1; stroke-width:1.000000; stroke-opacity:1; 
stroke-linecap:round; stroke-linejoin:round;fill-rule:evenodd;"
d="M 166619248.000000,101858245.000000
166336405.000000,102141087.000000
166124273.000000,101928955.000000
166407116.000000,101646113.000000
Z" /> 
<path style="fill:#F2EDA1; fill-opacity:1.0; 
stroke:#F2EDA1; stroke-width:1.000000; stroke-opacity:1; 
stroke-linecap:round; stroke-linejoin:round;fill-rule:evenodd;"
d="M 165558587.000000,102918905.000000
165275745.000000,103201748.000000
165063613.000000,102989616.000000
165346455.000000,102706773.000000
Z" /> 
<path style="fill:#F2EDA1; fill-opacity:1.0; 
stroke:#F2EDA1; stroke-width:1.000000; stroke-opacity:1; 
stroke-linecap:round; stroke-linejoin:round;fill-rule:evenodd;"
d="M 165028257.000000,102388575.000000
164745415.000000,102671417.000000
164533283.000000,102459285.000000
164816125.000000,102176443.000000
Z" /> 
</g>
<g style="fill:#F2EDA1; fill-opacity:1.0; 
stroke:#F2EDA1; stroke-width:127000.000000; stroke-opacity:1; 
stroke-linecap:round; stroke-linejoin:round;">
</g>
<g style="fill:#F2EDA1; fill-opacity:0.0; 
stroke:#F2EDA1; stroke-width:127000.000000; stroke-opacity:1; 
stroke-linecap:round; stroke-linejoin:round;">
<path d="M144061100 111193600
L144061100 106193600
" />
<path d="M144061100 106193600
L141061100 106193600
" />
<path d="M141061100 111193600
L144061100 111193600
" />
<path d="M141061100 106193600
L141061100 111193600
" />
<circle cx="141661100.000000" cy="107143600.000000" r="65000.000000" /> 
</g>
<g style="fill:#F2EDA1; fill-opacity:0.0; 
stroke:#F2EDA1; stroke-width:152400.000000; stroke-opacity:1; 
stroke-linecap:round; stroke-linejoin:round;">
<path d="M160566100 111353600
L161836100 111353600
" />
<path d="M137071100 113258600
L137706100 113893600
" />
<path d="M134531100 113258600
L133896100 113893600
" />
<path d="M152311100 111988600
L152311100 113258600
" />
<path d="M156756100 111353600
L157391100 111988600
" />
<path d="M133896100 113893600
L132626100 113893600
" />
<path d="M134531100 111988600
L134531100 113258600
" />
<path d="M138976100 111353600
L139611100 111988600
" />
<path d="M157391100 111988600
L158026100 111353600
" />
<path d="M165646100 113893600
L165011100 113258600
" />
<path d="M154216100 113893600
L152946100 113893600
" />
<path d="M166916100 113893600
L165646100 113893600
" />
<path d="M152946100 111353600
L154216100 111353600
" />
<path d="M142151100 111988600
L142786100 111353600
" />
<path d="M133896100 111353600
L134531100 111988600
" />
<path d="M165646100 111353600
L166916100 111353600
" />
<path d="M139611100 111988600
L139611100 113258600
" />
<path d="M147231100 111988600
L147231100 113258600
" />
<path d="M155486100 113893600
L154851100 113258600
" />
<path d="M146596100 111353600
L147231100 111988600
" />
<path d="M139611100 113258600
L138976100 113893600
" />
<path d="M158026100 113893600
L157391100 113258600
" />
<path d="M149136100 113893600
L147866100 113893600
" />
<path d="M137071100 113258600
L136436100 113893600
" />
<path d="M160566100 111353600
L159931100 111988600
" />
<path d="M139611100 111988600
L140246100 111353600
" />
<path d="M149771100 111988600
L149771100 113258600
" />
<path d="M157391100 113258600
L156756100 113893600
" />
<path d="M129451100 111988600
L129451100 113258600
" />
<path d="M165011100 111988600
L165646100 111353600
" />
<path d="M144691100 113258600
L144056100 113893600
" />
<path d="M164376100 113893600
L163106100 113893600
" />
<path d="M149136100 111353600
L149771100 111988600
" />
<path d="M144691100 113258600
L145326100 113893600
" />
<path d="M159931100 111988600
L159931100 113258600
" />
<path d="M141516100 111353600
L142151100 111988600
" />
<path d="M144056100 113893600
L142786100 113893600
" />
<path d="M167551100 113258600
L166916100 113893600
" />
<path d="M159296100 111353600
L159931100 111988600
" />
<path d="M165011100 113258600
L164376100 113893600
" />
<path d="M161836100 113893600
L160566100 113893600
" />
<path d="M132626100 113893600
L131991100 113258600
" />
<path d="M145326100 111353600
L146596100 111353600
" />
<path d="M142786100 111353600
L144056100 111353600
" />
<path d="M136436100 113893600
L135166100 113893600
" />
<path d="M131991100 113258600
L131356100 113893600
" />
<path d="M144056100 111353600
L144691100 111988600
" />
<path d="M161836100 111353600
L162471100 111988600
" />
<path d="M156756100 113893600
L155486100 113893600
" />
<path d="M151676100 113893600
L150406100 113893600
" />
<path d="M157391100 111988600
L157391100 113258600
" />
<path d="M162471100 113258600
L161836100 113893600
" />
<path d="M142151100 113258600
L141516100 113893600
" />
<path d="M131991100 111988600
L132626100 111353600
" />
<path d="M164376100 111353600
L165011100 111988600
" />
<path d="M131356100 113893600
L130086100 113893600
" />
<path d="M137706100 111353600
L137071100 111988600
" />
<path d="M130086100 111353600
L129451100 111988600
" />
<path d="M154851100 111988600
L155486100 111353600
" />
<path d="M163106100 113893600
L162471100 113258600
" />
<path d="M131356100 111353600
L131991100 111988600
" />
<path d="M159931100 113258600
L159296100 113893600
" />
<path d="M146596100 113893600
L145326100 113893600
" />
<path d="M154216100 111353600
L154851100 111988600
" />
<path d="M154851100 113258600
L154216100 113893600
" />
<path d="M149771100 111988600
L150406100 111353600
" />
<path d="M145326100 111353600
L144691100 111988600
" />
<path d="M162471100 111988600
L162471100 113258600
" />
<path d="M162471100 111988600
L163106100 111353600
" />
<path d="M147231100 111988600
L147866100 111353600
" />
<path d="M141516100 113893600
L140246100 113893600
" />
<path d="M155486100 111353600
L156756100 111353600
" />
<path d="M135166100 113893600
L134531100 113258600
" />
<path d="M151676100 111353600
L152311100 111988600
" />
<path d="M159296100 113893600
L158026100 113893600
" />
<path d="M152311100 113258600
L151676100 113893600
" />
<path d="M158026100 111353600
L159296100 111353600
" />
<path d="M166916100 111353600
L167551100 111988600
" />
<path d="M129451100 113258600
L130086100 113893600
" />
<path d="M132626100 111353600
L133896100 111353600
" />
<path d="M137071100 111988600
L137071100 113258600
" />
<path d="M147866100 113893600
L147231100 113258600
" />
<path d="M136436100 111353600
L137071100 111988600
" />
<path d="M144691100 111988600
L144691100 113258600
" />
<path d="M147231100 113258600
L146596100 113893600
" />
<path d="M140246100 113893600
L139611100 113258600
" />
<path d="M167551100 111988600
L167551100 113258600
" />
<path d="M135166100 111353600
L136436100 111353600
" />
<path d="M134531100 111988600
L135166100 111353600
" />
<path d="M130086100 111353600
L131356100 111353600
" />
<path d="M152946100 111353600
L152311100 111988600
" />
<path d="M142151100 111988600
L142151100 113258600
" />
<path d="M147866100 111353600
L149136100 111353600
" />
<path d="M150406100 113893600
L149771100 113258600
" />
<path d="M150406100 111353600
L151676100 111353600
" />
<path d="M137706100 111353600
L138976100 111353600
" />
<path d="M154851100 111988600
L154851100 113258600
" />
<path d="M138976100 113893600
L137706100 113893600
" />
<path d="M131991100 111988600
L131991100 113258600
" />
<path d="M140246100 111353600
L141516100 111353600
" />
<path d="M142786100 113893600
L142151100 113258600
" />
<path d="M159931100 113258600
L160566100 113893600
" />
<path d="M163106100 111353600
L164376100 111353600
" />
<path d="M149771100 113258600
L149136100 113893600
" />
<path d="M152311100 113258600
L152946100 113893600
" />
<path d="M165011100 111988600
L165011100 113258600
" />
</g>
<g style="fill:#F2EDA1; fill-opacity:0.0; 
stroke:#F2EDA1; stroke-width:120000.000000; stroke-opacity:1; 
stroke-linecap:round; stroke-linejoin:round;">
<path d="M137051100 99993600
L133511100 99993600
" />
<path d="M137051100 101893600
L137051100 99993600
" />
<path d="M133511100 101893600
L137051100 101893600
" />
</g>
<g style="fill:#F2EDA1; fill-opacity:0.0; 
stroke:#F2EDA1; stroke-width:203200.000000; stroke-opacity:1; 
stroke-linecap:round; stroke-linejoin:round;">
<path d="M163232294 104650047
L163232294 105357153
" />
<path d="M163232294 105357153
L158989653 109599794
" />
<path d="M158282547 100407406
L158989653 100407406
" />
<path d="M158282547 109599794
L154039906 105357153
" />
<path d="M154039906 105357153
L154039906 104650047
" />
<path d="M158989653 109599794
L158282547 109599794
" />
<path d="M154039906 104650047
L158282547 100407406
" />
<path d="M158989653 100407406
L163232294 104650047
" />
</g>
<g style="fill:#F2EDA1; fill-opacity:0.0; 
stroke:#F2EDA1; stroke-width:254000.000000; stroke-opacity:1; 
stroke-linecap:round; stroke-linejoin:round;">
<circle cx="158636100.000000" cy="108892687.000000" r="282700.000000" /> 
<g >
</g>
<g >
</g>
<g >
</g>
<g >
</g>
<g >
</g>
<g >
</g>
<g >
</g>
<g >
</g>
<g >
</g>
<g >
</g>
<g >
</g>
<g >
</g>
<g >
</g>
<g >
</g>
<g >
</g>
<g >
</g>
<g >
</g>
<g >
</g>
<g >
</g>
<g >
</g>
<g >
</g>
<g >
</g>
<g >
</g>
<g >
</g>
<g >
</g>
<g >
</g>
<g >
</g>
<g >
</g>
<g >
</g>
<g >
</g>
<g >
</g>
<g >
</g>
<g >
</g>
<g >
</g>
<g >
</g>
<g >
</g>
<g >
</g>
<g >
</g>
<g >
</g>
<g >
</g>
<g >
</g>
<g >
</g>
<g >
</g>
<g >
</g>
<g >
</g>
<g >
</g>
<g >
</g>
<g >
</g>
<g >
</g>
<g >
</g>
<g >
</g>
<g >
</g>
<g >
</g>
<g >
</g>
<g >
</g>
<g >
</g>
<g >
</g>
<g >
</g>
<g >
</g>
<g >
</g>
<g >
</g>
</g>
<g style="fill:#000000; fill-opacity:0.0; 
stroke:#000000; stroke-width:254000.000000; stroke-opacity:1; 
stroke-linecap:round; stroke-linejoin:round;">
</g>
<g style="fill:#D0D2CD; fill-opacity:0.0; 
stroke:#D0D2CD; stroke-width:254000.000000; stroke-opacity:1; 
stroke-linecap:round; stroke-linejoin:round;">
</g>
<g style="fill:#D0D2CD; fill-opacity:0.0; 
stroke:#D0D2CD; stroke-width:10000.000000; stroke-opacity:1; 
stroke-linecap:round; stroke-linejoin:round;">
<path d="M126911100 96113600
L170091100 96113600
" />
<path d="M126911100 113893600
L126911100 96113600
" />
<path d="M170091100 113893600
L170091100 96113600
" />
<path d="M170091100 113893600
L126911100 113893600
" />
<g >
</g>
<g >
</g>
<g >
</g>
<g >
</g>
<g >
</g>
<g >
</g>
<g >
</g>
<g >
</g>
<g >
</g>
<g >
</g>
<g >
</g>
<g >
</g>
<g >
</g>
<g >
</g>
<g >
</g>
<g >
</g>
<g >
</g>
<g >
</g>
<g >
</g>
<g >
</g>
<g >
</g>
<g >
</g>
<g >
</g>
<g >
</g>
<g >
</g>
<g >
</g>
<g >
</g>
<g >
</g>
<g >
</g>
<g >
</g>
<g >
</g>
<g >
</g>
<g >
</g>
<g >
</g>
<g >
</g>
<g >
</g>
<g >
</g>
<g >
</g>
<g >
</g>
<g >
</g>
<g >
</g>
<g >
</g>
<g >
</g>
<g >
</g>
<g >
</g>
<g >
</g>
<g >
</g>
<g >
</g>
<g >
</g>
<g >
</g>
<g >
</g>
<g >
</g>
<g >
</g>
<g >
</g>
<g >
</g>
<g >
</g>
<g >
</g>
<g >
</g>
<g >
</g>
<g >
</g>
<g >
</g>
</g> 
</svg>
