G04 EAGLE Gerber RS-274X export*
G75*
%MOMM*%
%FSLAX34Y34*%
%LPD*%
%INSilkscreen Bottom*%
%IPPOS*%
%AMOC8*
5,1,8,0,0,1.08239X$1,22.5*%
G01*
%ADD10C,0.203200*%

G36*
X82594Y114218D02*
X82594Y114218D01*
X82636Y114233D01*
X82638Y114238D01*
X82642Y114240D01*
X82671Y114313D01*
X82675Y114324D01*
X82675Y114325D01*
X82675Y129489D01*
X82673Y129494D01*
X82675Y129500D01*
X82605Y130331D01*
X82599Y130342D01*
X82600Y130357D01*
X82360Y131156D01*
X82352Y131166D01*
X82350Y131180D01*
X81949Y131912D01*
X81939Y131920D01*
X81934Y131933D01*
X81464Y132483D01*
X81453Y132488D01*
X81446Y132500D01*
X80876Y132945D01*
X80864Y132948D01*
X80854Y132958D01*
X80206Y133279D01*
X80194Y133280D01*
X80182Y133288D01*
X79483Y133472D01*
X79472Y133471D01*
X79461Y133476D01*
X78521Y133549D01*
X78512Y133546D01*
X78501Y133549D01*
X77561Y133476D01*
X77557Y133474D01*
X77551Y133475D01*
X77068Y133399D01*
X77029Y133374D01*
X76989Y133353D01*
X76988Y133349D01*
X76985Y133347D01*
X76975Y133302D01*
X76963Y133258D01*
X76965Y133254D01*
X76964Y133250D01*
X76989Y133212D01*
X77013Y133173D01*
X77017Y133172D01*
X77019Y133169D01*
X77060Y133160D01*
X77100Y133148D01*
X77258Y133164D01*
X77396Y133136D01*
X77529Y133065D01*
X78353Y132466D01*
X78471Y132352D01*
X78543Y132214D01*
X78636Y131799D01*
X78636Y131371D01*
X78543Y130955D01*
X78337Y130551D01*
X78024Y130223D01*
X77418Y129858D01*
X76740Y129651D01*
X76029Y129616D01*
X75419Y129713D01*
X74833Y129911D01*
X74290Y130204D01*
X73865Y130569D01*
X73550Y131029D01*
X73364Y131554D01*
X73321Y132110D01*
X73423Y132658D01*
X73663Y133161D01*
X74033Y133596D01*
X74231Y133806D01*
X74826Y134437D01*
X75421Y135068D01*
X75486Y135137D01*
X75489Y135147D01*
X75498Y135153D01*
X76685Y136911D01*
X76687Y136924D01*
X76697Y136934D01*
X76977Y137622D01*
X76976Y137637D01*
X76985Y137652D01*
X77084Y138387D01*
X77080Y138402D01*
X77085Y138419D01*
X76998Y139156D01*
X76990Y139169D01*
X76990Y139187D01*
X76723Y139879D01*
X76712Y139890D01*
X76708Y139907D01*
X76277Y140510D01*
X76267Y140517D01*
X76261Y140529D01*
X75565Y141187D01*
X75557Y141190D01*
X75552Y141198D01*
X74775Y141758D01*
X74765Y141761D01*
X74757Y141769D01*
X73977Y142157D01*
X73965Y142158D01*
X73954Y142166D01*
X73114Y142397D01*
X73102Y142396D01*
X73090Y142402D01*
X72222Y142468D01*
X72212Y142464D01*
X72200Y142468D01*
X71300Y142382D01*
X71291Y142378D01*
X71281Y142379D01*
X70403Y142159D01*
X70395Y142153D01*
X70383Y142152D01*
X70155Y142051D01*
X69799Y141899D01*
X69798Y141899D01*
X69294Y141678D01*
X69284Y141667D01*
X69267Y141662D01*
X68832Y141324D01*
X68829Y141317D01*
X68821Y141313D01*
X68796Y141288D01*
X68793Y141287D01*
X68758Y141195D01*
X68799Y141106D01*
X68884Y141073D01*
X69487Y141073D01*
X69998Y141016D01*
X70488Y140877D01*
X70969Y140622D01*
X71364Y140252D01*
X71650Y139792D01*
X71807Y139273D01*
X71819Y138970D01*
X71760Y138670D01*
X71554Y138176D01*
X71271Y137718D01*
X70920Y137308D01*
X70508Y136954D01*
X69606Y136303D01*
X69118Y136054D01*
X68589Y135956D01*
X68050Y136014D01*
X67876Y136079D01*
X67515Y136327D01*
X67241Y136667D01*
X67197Y136770D01*
X67181Y136890D01*
X67181Y137770D01*
X67164Y137811D01*
X67150Y137853D01*
X67145Y137856D01*
X67143Y137861D01*
X67102Y137877D01*
X67062Y137896D01*
X67056Y137894D01*
X67051Y137896D01*
X67024Y137884D01*
X66975Y137868D01*
X65849Y136947D01*
X65843Y136935D01*
X65831Y136928D01*
X64924Y135791D01*
X64921Y135780D01*
X64912Y135772D01*
X64410Y134838D01*
X64409Y134828D01*
X64403Y134820D01*
X64045Y133823D01*
X64045Y133813D01*
X64040Y133804D01*
X63833Y132765D01*
X63835Y132755D01*
X63834Y132753D01*
X63835Y132753D01*
X63831Y132744D01*
X63771Y130816D01*
X63775Y130805D01*
X63772Y130793D01*
X64060Y128886D01*
X64066Y128876D01*
X64066Y128864D01*
X64694Y127040D01*
X64701Y127031D01*
X64703Y127019D01*
X65650Y125338D01*
X65658Y125332D01*
X65661Y125321D01*
X66546Y124214D01*
X66553Y124211D01*
X66555Y124205D01*
X66556Y124205D01*
X66558Y124201D01*
X67589Y123229D01*
X67597Y123226D01*
X67603Y123218D01*
X68760Y122401D01*
X68770Y122399D01*
X68778Y122391D01*
X70008Y121791D01*
X70019Y121790D01*
X70029Y121782D01*
X71348Y121414D01*
X71359Y121416D01*
X71370Y121410D01*
X72734Y121286D01*
X72739Y121288D01*
X72745Y121286D01*
X75020Y121286D01*
X75388Y121221D01*
X75739Y121094D01*
X76729Y120505D01*
X77583Y119723D01*
X82455Y114241D01*
X82459Y114239D01*
X82461Y114234D01*
X82503Y114218D01*
X82544Y114199D01*
X82548Y114201D01*
X82553Y114199D01*
X82594Y114218D01*
G37*
D10*
X128524Y104403D02*
X128524Y93726D01*
X121406Y93726D01*
X116830Y104403D02*
X109712Y104403D01*
X116830Y104403D02*
X116830Y93726D01*
X109712Y93726D01*
X113271Y99065D02*
X116830Y99065D01*
X105136Y104403D02*
X105136Y93726D01*
X99798Y93726D01*
X98018Y95506D01*
X98018Y102624D01*
X99798Y104403D01*
X105136Y104403D01*
X81748Y104403D02*
X81748Y93726D01*
X81748Y104403D02*
X76410Y104403D01*
X74630Y102624D01*
X74630Y100844D01*
X76410Y99065D01*
X74630Y97285D01*
X74630Y95506D01*
X76410Y93726D01*
X81748Y93726D01*
X81748Y99065D02*
X76410Y99065D01*
X70054Y100844D02*
X70054Y95506D01*
X68275Y93726D01*
X62936Y93726D01*
X62936Y100844D01*
X56581Y102624D02*
X56581Y95506D01*
X54801Y93726D01*
X54801Y100844D02*
X58360Y100844D01*
X48785Y102624D02*
X48785Y95506D01*
X47005Y93726D01*
X47005Y100844D02*
X50564Y100844D01*
X40989Y93726D02*
X37430Y93726D01*
X35650Y95506D01*
X35650Y99065D01*
X37430Y100844D01*
X40989Y100844D01*
X42768Y99065D01*
X42768Y95506D01*
X40989Y93726D01*
X31074Y93726D02*
X31074Y100844D01*
X25736Y100844D01*
X23956Y99065D01*
X23956Y93726D01*
M02*
